# https://github.com/mikedh/trimesh
v -0.02430758 -0.02500000 0.00291545
v 0.00207726 0.02500000 0.00291545
v -0.00295190 0.02500000 0.00291545
v -0.00054665 0.01406705 0.00291545
v 0.02430758 -0.02500000 0.00291545
v -0.00798105 -0.00393586 0.00291545
v 0.00747084 -0.00393586 0.00291545
v -0.01075073 -0.01034985 0.00291545
v 0.01038630 -0.01034985 0.00291545
v -0.01701895 -0.02500000 0.00291545
v 0.01701895 -0.02500000 0.00291545
v -0.02430758 -0.02500000 -0.00291545
v -0.00295190 0.02500000 -0.00291545
v 0.00207726 0.02500000 -0.00291545
v -0.00054665 0.01406705 -0.00291545
v 0.02430758 -0.02500000 -0.00291545
v -0.00798105 -0.00393586 -0.00291545
v 0.00747084 -0.00393586 -0.00291545
v -0.01075073 -0.01034985 -0.00291545
v 0.01038630 -0.01034985 -0.00291545
v -0.01701895 -0.02500000 -0.00291545
v 0.01701895 -0.02500000 -0.00291545
f 1 2 3
f 1 4 2
f 4 5 2
f 1 6 4
f 7 5 4
f 1 8 6
f 8 7 6
f 8 9 7
f 9 5 7
f 1 10 8
f 11 5 9
f 12 13 14
f 12 14 15
f 15 14 16
f 12 15 17
f 18 15 16
f 12 17 19
f 19 17 18
f 19 18 20
f 20 18 16
f 12 19 21
f 22 20 16
f 1 3 13
f 1 13 12
f 3 2 14
f 3 14 13
f 2 5 16
f 2 16 14
f 4 6 17
f 4 17 15
f 7 4 15
f 7 15 18
f 6 7 18
f 6 18 17
f 9 8 19
f 9 19 20
f 10 1 12
f 10 12 21
f 8 10 21
f 8 21 19
f 11 9 20
f 11 20 22
f 5 11 22
f 5 22 16

