# https://github.com/mikedh/trimesh
v -0.00369214 0.02365094 0.00272851
v 0.00368258 0.02365224 0.00272851
v -0.00003411 0.02387449 0.00272851
v 0.00714940 0.02300604 0.00272851
v -0.00711782 0.02300130 0.00272851
v 0.01035236 0.02196666 0.00272851
v -0.01029481 0.02195707 0.00272851
v 0.01327750 0.02056490 0.00272851
v -0.01320676 0.02054974 0.00272851
v 0.01591084 0.01883155 0.00272851
v -0.01583734 0.01881083 0.00272851
v 0.01823840 0.01679740 0.00272851
v -0.01817019 0.01677183 0.00272851
v -0.00003411 0.01773533 0.00272851
v -0.00256785 0.01758177 0.00272851
v 0.00251531 0.01758178 0.00272851
v 0.00493374 0.01713215 0.00272851
v -0.00497322 0.01713215 0.00272851
v 0.00720391 0.01640305 0.00272851
v -0.00723269 0.01640305 0.00272851
v 0.02024622 0.01449325 0.00272851
v -0.02018898 0.01446424 0.00272851
v 0.00930852 0.01541104 0.00272851
v -0.00932874 0.01541104 0.00272851
v 0.01123028 0.01417271 0.00272851
v -0.01124383 0.01417271 0.00272851
v 0.02192032 0.01194987 0.00272851
v -0.02187737 0.01191956 0.00272851
v 0.01295191 0.01270464 0.00272851
v -0.01296044 0.01270464 0.00272851
v 0.01445610 0.01102340 0.00272851
v -0.01446104 0.01102339 0.00272851
v 0.02324672 0.00919807 0.00272851
v -0.02321900 0.00916929 0.00272851
v 0.01572558 0.00914557 0.00272851
v -0.01572811 0.00914557 0.00272851
v 0.02421145 0.00626863 0.00272851
v -0.02419755 0.00624494 0.00272851
v 0.01674305 0.00708774 0.00272851
v -0.01674412 0.00708774 0.00272851
v 0.01749121 0.00486648 0.00272851
v -0.01749154 0.00486648 0.00272851
v 0.02480053 0.00319234 0.00272851
v -0.02479666 0.00317801 0.00272851
v 0.01795280 0.00249838 0.00272851
v -0.01795284 0.00249837 0.00272851
v 0.02500000 -0.00000000 0.00272851
v -0.02500000 -0.00000000 0.00272851
v 0.01811050 -0.00000000 0.00272851
v -0.01811050 -0.00000000 0.00272851
v -0.02480195 -0.00312070 0.00272851
v -0.01795284 -0.00248404 0.00272851
v 0.01795280 -0.00248404 0.00272851
v 0.02480566 -0.00310637 0.00272851
v -0.01749153 -0.00484279 0.00272851
v 0.01749122 -0.00484279 0.00272851
v 0.02422976 -0.00612652 0.00272851
v -0.02421713 -0.00615021 0.00272851
v -0.01674411 -0.00705896 0.00272851
v 0.01674305 -0.00705896 0.00272851
v 0.02328295 -0.00902541 0.00272851
v -0.02325951 -0.00905419 0.00272851
v 0.01572558 -0.00911525 0.00272851
v -0.01572811 -0.00911525 0.00272851
v 0.02197589 -0.01176798 0.00272851
v -0.02194306 -0.01179829 0.00272851
v 0.01445611 -0.01099438 0.00272851
v -0.01446104 -0.01099438 0.00272851
v 0.01295191 -0.01267906 0.00272851
v -0.01296043 -0.01267906 0.00272851
v 0.02031925 -0.01431917 0.00272851
v -0.02028175 -0.01434818 0.00272851
v 0.01123029 -0.01415199 0.00272851
v -0.01124383 -0.01415199 0.00272851
v 0.00930853 -0.01539588 0.00272851
v -0.00932874 -0.01539589 0.00272851
v 0.01832367 -0.01664393 0.00272851
v -0.01828956 -0.01666951 0.00272851
v 0.00720392 -0.01639346 0.00272851
v -0.00723269 -0.01639346 0.00272851
v 0.00493375 -0.01712742 0.00272851
v -0.00497322 -0.01712742 0.00272851
v 0.01599981 -0.01870721 0.00272851
v -0.01598047 -0.01872793 0.00272851
v 0.00251531 -0.01758047 0.00272851
v -0.00256785 -0.01758047 0.00272851
v -0.00003411 -0.01773533 0.00272851
v 0.01335834 -0.02047395 0.00272851
v -0.01336845 -0.02048911 0.00272851
v 0.01040991 -0.02190911 0.00272851
v -0.01046747 -0.02191870 0.00272851
v 0.00716519 -0.02297762 0.00272851
v -0.00729151 -0.02298235 0.00272851
v 0.00363482 -0.02364443 0.00272851
v -0.00385454 -0.02364573 0.00272851
v -0.00017053 -0.02387449 0.00272851
v -0.00369214 0.02365094 -0.00272851
v -0.00003411 0.02387449 -0.00272851
v 0.00368258 0.02365224 -0.00272851
v 0.00714940 0.02300604 -0.00272851
v -0.00711782 0.02300130 -0.00272851
v 0.01035236 0.02196666 -0.00272851
v -0.01029481 0.02195707 -0.00272851
v 0.01327750 0.02056490 -0.00272851
v -0.01320676 0.02054974 -0.00272851
v 0.01591084 0.01883155 -0.00272851
v -0.01583734 0.01881083 -0.00272851
v 0.01823840 0.01679740 -0.00272851
v -0.01817019 0.01677183 -0.00272851
v -0.00003411 0.01773533 -0.00272851
v -0.00256785 0.01758177 -0.00272851
v 0.00251531 0.01758178 -0.00272851
v 0.00493374 0.01713215 -0.00272851
v -0.00497322 0.01713215 -0.00272851
v 0.00720391 0.01640305 -0.00272851
v -0.00723269 0.01640305 -0.00272851
v 0.02024622 0.01449325 -0.00272851
v -0.02018898 0.01446424 -0.00272851
v 0.00930852 0.01541104 -0.00272851
v -0.00932874 0.01541104 -0.00272851
v 0.01123028 0.01417271 -0.00272851
v -0.01124383 0.01417271 -0.00272851
v 0.02192032 0.01194987 -0.00272851
v -0.02187737 0.01191956 -0.00272851
v 0.01295191 0.01270464 -0.00272851
v -0.01296044 0.01270464 -0.00272851
v 0.01445610 0.01102340 -0.00272851
v -0.01446104 0.01102339 -0.00272851
v 0.02324672 0.00919807 -0.00272851
v -0.02321900 0.00916929 -0.00272851
v 0.01572558 0.00914557 -0.00272851
v -0.01572811 0.00914557 -0.00272851
v 0.02421145 0.00626863 -0.00272851
v -0.02419755 0.00624494 -0.00272851
v 0.01674305 0.00708774 -0.00272851
v -0.01674412 0.00708774 -0.00272851
v 0.01749121 0.00486648 -0.00272851
v -0.01749154 0.00486648 -0.00272851
v 0.02480053 0.00319234 -0.00272851
v -0.02479666 0.00317801 -0.00272851
v 0.01795280 0.00249838 -0.00272851
v -0.01795284 0.00249837 -0.00272851
v 0.02500000 -0.00000000 -0.00272851
v -0.02500000 -0.00000000 -0.00272851
v 0.01811050 -0.00000000 -0.00272851
v -0.01811050 -0.00000000 -0.00272851
v -0.02480195 -0.00312070 -0.00272851
v -0.01795284 -0.00248404 -0.00272851
v 0.01795280 -0.00248404 -0.00272851
v 0.02480566 -0.00310637 -0.00272851
v -0.01749153 -0.00484279 -0.00272851
v 0.01749122 -0.00484279 -0.00272851
v 0.02422976 -0.00612652 -0.00272851
v -0.02421713 -0.00615021 -0.00272851
v -0.01674411 -0.00705896 -0.00272851
v 0.01674305 -0.00705896 -0.00272851
v 0.02328295 -0.00902541 -0.00272851
v -0.02325951 -0.00905419 -0.00272851
v 0.01572558 -0.00911525 -0.00272851
v -0.01572811 -0.00911525 -0.00272851
v 0.02197589 -0.01176798 -0.00272851
v -0.02194306 -0.01179829 -0.00272851
v 0.01445611 -0.01099438 -0.00272851
v -0.01446104 -0.01099438 -0.00272851
v 0.01295191 -0.01267906 -0.00272851
v -0.01296043 -0.01267906 -0.00272851
v 0.02031925 -0.01431917 -0.00272851
v -0.02028175 -0.01434818 -0.00272851
v 0.01123029 -0.01415199 -0.00272851
v -0.01124383 -0.01415199 -0.00272851
v 0.00930853 -0.01539588 -0.00272851
v -0.00932874 -0.01539589 -0.00272851
v 0.01832367 -0.01664393 -0.00272851
v -0.01828956 -0.01666951 -0.00272851
v 0.00720392 -0.01639346 -0.00272851
v -0.00723269 -0.01639346 -0.00272851
v 0.00493375 -0.01712742 -0.00272851
v -0.00497322 -0.01712742 -0.00272851
v 0.01599981 -0.01870721 -0.00272851
v -0.01598047 -0.01872793 -0.00272851
v 0.00251531 -0.01758047 -0.00272851
v -0.00256785 -0.01758047 -0.00272851
v -0.00003411 -0.01773533 -0.00272851
v 0.01335834 -0.02047395 -0.00272851
v -0.01336845 -0.02048911 -0.00272851
v 0.01040991 -0.02190911 -0.00272851
v -0.01046747 -0.02191870 -0.00272851
v 0.00716519 -0.02297762 -0.00272851
v -0.00729151 -0.02298235 -0.00272851
v 0.00363482 -0.02364443 -0.00272851
v -0.00385454 -0.02364573 -0.00272851
v -0.00017053 -0.02387449 -0.00272851
f 1 2 3
f 1 4 2
f 5 4 1
f 5 6 4
f 7 6 5
f 7 8 6
f 9 8 7
f 9 10 8
f 11 10 9
f 11 12 10
f 13 14 11
f 14 12 11
f 13 15 14
f 16 12 14
f 17 12 16
f 13 18 15
f 19 12 17
f 13 20 18
f 19 21 12
f 22 20 13
f 23 21 19
f 22 24 20
f 25 21 23
f 22 26 24
f 25 27 21
f 28 26 22
f 29 27 25
f 28 30 26
f 31 27 29
f 28 32 30
f 31 33 27
f 34 32 28
f 35 33 31
f 34 36 32
f 35 37 33
f 38 36 34
f 39 37 35
f 38 40 36
f 41 37 39
f 38 42 40
f 41 43 37
f 44 42 38
f 45 43 41
f 44 46 42
f 45 47 43
f 48 46 44
f 49 47 45
f 48 50 46
f 51 50 48
f 51 52 50
f 53 47 49
f 53 54 47
f 51 55 52
f 56 54 53
f 56 57 54
f 58 55 51
f 58 59 55
f 60 57 56
f 60 61 57
f 62 59 58
f 63 61 60
f 62 64 59
f 63 65 61
f 66 64 62
f 67 65 63
f 66 68 64
f 69 65 67
f 66 70 68
f 69 71 65
f 72 70 66
f 73 71 69
f 72 74 70
f 75 71 73
f 72 76 74
f 75 77 71
f 78 76 72
f 79 77 75
f 78 80 76
f 81 77 79
f 78 82 80
f 81 83 77
f 84 82 78
f 85 83 81
f 84 86 82
f 87 83 85
f 84 87 86
f 84 83 87
f 84 88 83
f 89 88 84
f 89 90 88
f 91 90 89
f 91 92 90
f 93 92 91
f 93 94 92
f 95 94 93
f 95 96 94
f 97 98 99
f 97 99 100
f 101 97 100
f 101 100 102
f 103 101 102
f 103 102 104
f 105 103 104
f 105 104 106
f 107 105 106
f 107 106 108
f 109 107 110
f 110 107 108
f 109 110 111
f 112 110 108
f 113 112 108
f 109 111 114
f 115 113 108
f 109 114 116
f 115 108 117
f 118 109 116
f 119 115 117
f 118 116 120
f 121 119 117
f 118 120 122
f 121 117 123
f 124 118 122
f 125 121 123
f 124 122 126
f 127 125 123
f 124 126 128
f 127 123 129
f 130 124 128
f 131 127 129
f 130 128 132
f 131 129 133
f 134 130 132
f 135 131 133
f 134 132 136
f 137 135 133
f 134 136 138
f 137 133 139
f 140 134 138
f 141 137 139
f 140 138 142
f 141 139 143
f 144 140 142
f 145 141 143
f 144 142 146
f 147 144 146
f 147 146 148
f 149 145 143
f 149 143 150
f 147 148 151
f 152 149 150
f 152 150 153
f 154 147 151
f 154 151 155
f 156 152 153
f 156 153 157
f 158 154 155
f 159 156 157
f 158 155 160
f 159 157 161
f 162 158 160
f 163 159 161
f 162 160 164
f 165 163 161
f 162 164 166
f 165 161 167
f 168 162 166
f 169 165 167
f 168 166 170
f 171 169 167
f 168 170 172
f 171 167 173
f 174 168 172
f 175 171 173
f 174 172 176
f 177 175 173
f 174 176 178
f 177 173 179
f 180 174 178
f 181 177 179
f 180 178 182
f 183 181 179
f 180 182 183
f 180 183 179
f 180 179 184
f 185 180 184
f 185 184 186
f 187 185 186
f 187 186 188
f 189 187 188
f 189 188 190
f 191 189 190
f 191 190 192
f 1 3 98
f 1 98 97
f 3 2 99
f 3 99 98
f 2 4 100
f 2 100 99
f 5 1 97
f 5 97 101
f 4 6 102
f 4 102 100
f 7 5 101
f 7 101 103
f 6 8 104
f 6 104 102
f 9 7 103
f 9 103 105
f 8 10 106
f 8 106 104
f 11 9 105
f 11 105 107
f 10 12 108
f 10 108 106
f 13 11 107
f 13 107 109
f 14 15 111
f 14 111 110
f 16 14 110
f 16 110 112
f 17 16 112
f 17 112 113
f 15 18 114
f 15 114 111
f 19 17 113
f 19 113 115
f 18 20 116
f 18 116 114
f 12 21 117
f 12 117 108
f 22 13 109
f 22 109 118
f 23 19 115
f 23 115 119
f 20 24 120
f 20 120 116
f 25 23 119
f 25 119 121
f 24 26 122
f 24 122 120
f 21 27 123
f 21 123 117
f 28 22 118
f 28 118 124
f 29 25 121
f 29 121 125
f 26 30 126
f 26 126 122
f 31 29 125
f 31 125 127
f 30 32 128
f 30 128 126
f 27 33 129
f 27 129 123
f 34 28 124
f 34 124 130
f 35 31 127
f 35 127 131
f 32 36 132
f 32 132 128
f 33 37 133
f 33 133 129
f 38 34 130
f 38 130 134
f 39 35 131
f 39 131 135
f 36 40 136
f 36 136 132
f 41 39 135
f 41 135 137
f 40 42 138
f 40 138 136
f 37 43 139
f 37 139 133
f 44 38 134
f 44 134 140
f 45 41 137
f 45 137 141
f 42 46 142
f 42 142 138
f 43 47 143
f 43 143 139
f 48 44 140
f 48 140 144
f 49 45 141
f 49 141 145
f 46 50 146
f 46 146 142
f 51 48 144
f 51 144 147
f 50 52 148
f 50 148 146
f 53 49 145
f 53 145 149
f 47 54 150
f 47 150 143
f 52 55 151
f 52 151 148
f 56 53 149
f 56 149 152
f 54 57 153
f 54 153 150
f 58 51 147
f 58 147 154
f 55 59 155
f 55 155 151
f 60 56 152
f 60 152 156
f 57 61 157
f 57 157 153
f 62 58 154
f 62 154 158
f 63 60 156
f 63 156 159
f 59 64 160
f 59 160 155
f 61 65 161
f 61 161 157
f 66 62 158
f 66 158 162
f 67 63 159
f 67 159 163
f 64 68 164
f 64 164 160
f 69 67 163
f 69 163 165
f 68 70 166
f 68 166 164
f 65 71 167
f 65 167 161
f 72 66 162
f 72 162 168
f 73 69 165
f 73 165 169
f 70 74 170
f 70 170 166
f 75 73 169
f 75 169 171
f 74 76 172
f 74 172 170
f 71 77 173
f 71 173 167
f 78 72 168
f 78 168 174
f 79 75 171
f 79 171 175
f 76 80 176
f 76 176 172
f 81 79 175
f 81 175 177
f 80 82 178
f 80 178 176
f 77 83 179
f 77 179 173
f 84 78 174
f 84 174 180
f 85 81 177
f 85 177 181
f 82 86 182
f 82 182 178
f 87 85 181
f 87 181 183
f 86 87 183
f 86 183 182
f 83 88 184
f 83 184 179
f 89 84 180
f 89 180 185
f 88 90 186
f 88 186 184
f 91 89 185
f 91 185 187
f 90 92 188
f 90 188 186
f 93 91 187
f 93 187 189
f 92 94 190
f 92 190 188
f 95 93 189
f 95 189 191
f 96 95 191
f 96 191 192
f 94 96 192
f 94 192 190

