# https://github.com/mikedh/trimesh
v -0.00050872 -0.02500000 0.00290698
v -0.01482558 0.02500000 0.00290698
v -0.02194767 0.02500000 0.00290698
v 0.00007267 -0.00981105 0.00290698
v 0.02194767 0.02500000 0.00290698
v 0.01489826 0.02500000 0.00290698
v 0.00094477 -0.02500000 0.00290698
v -0.00050872 -0.02500000 -0.00290698
v -0.02194767 0.02500000 -0.00290698
v -0.01482558 0.02500000 -0.00290698
v 0.00007267 -0.00981105 -0.00290698
v 0.01489826 0.02500000 -0.00290698
v 0.02194767 0.02500000 -0.00290698
v 0.00094477 -0.02500000 -0.00290698
f 1 2 3
f 1 4 2
f 4 5 6
f 4 7 5
f 1 7 4
f 8 9 10
f 8 10 11
f 11 12 13
f 11 13 14
f 8 11 14
f 1 3 9
f 1 9 8
f 3 2 10
f 3 10 9
f 2 4 11
f 2 11 10
f 4 6 12
f 4 12 11
f 6 5 13
f 6 13 12
f 5 7 14
f 5 14 13
f 7 1 8
f 7 8 14

