# https://github.com/mikedh/trimesh
v -0.01174351 -0.01652258 0.00192123
v -0.02029299 0.01652258 0.00192123
v -0.02500000 0.01652258 0.00192123
v -0.01126321 -0.00605187 0.00192123
v 0.00228146 0.01652258 0.00192123
v -0.00218540 0.01652258 0.00192123
v 0.00002402 0.01027858 0.00192123
v 0.01140730 -0.00605187 0.00192123
v 0.02500000 0.01652258 0.00192123
v 0.02034102 0.01652258 0.00192123
v 0.01169549 -0.01652258 0.00192123
v -0.01083093 -0.01652258 0.00192123
v 0.01078290 -0.01652258 0.00192123
v -0.01174351 -0.01652258 -0.00192123
v -0.02500000 0.01652258 -0.00192123
v -0.02029299 0.01652258 -0.00192123
v -0.01126321 -0.00605187 -0.00192123
v -0.00218540 0.01652258 -0.00192123
v 0.00228146 0.01652258 -0.00192123
v 0.00002402 0.01027858 -0.00192123
v 0.01140730 -0.00605187 -0.00192123
v 0.02034102 0.01652258 -0.00192123
v 0.02500000 0.01652258 -0.00192123
v 0.01169549 -0.01652258 -0.00192123
v -0.01083093 -0.01652258 -0.00192123
v 0.01078290 -0.01652258 -0.00192123
f 1 2 3
f 1 4 2
f 4 5 6
f 4 7 5
f 7 8 5
f 8 9 10
f 8 11 9
f 4 12 7
f 13 8 7
f 1 12 4
f 13 11 8
f 14 15 16
f 14 16 17
f 17 18 19
f 17 19 20
f 20 19 21
f 21 22 23
f 21 23 24
f 17 20 25
f 26 20 21
f 14 17 25
f 26 21 24
f 1 3 15
f 1 15 14
f 3 2 16
f 3 16 15
f 2 4 17
f 2 17 16
f 4 6 18
f 4 18 17
f 6 5 19
f 6 19 18
f 5 8 21
f 5 21 19
f 8 10 22
f 8 22 21
f 10 9 23
f 10 23 22
f 9 11 24
f 9 24 23
f 7 12 25
f 7 25 20
f 13 7 20
f 13 20 26
f 12 1 14
f 12 14 25
f 11 13 26
f 11 26 24

