# https://github.com/mikedh/trimesh
v -0.02773334 -0.00419831 -0.03070502
v -0.02498812 -0.00658467 -0.03120519
v -0.02599879 -0.00358231 -0.03413206
v -0.02827485 -0.00405036 -0.02433583
v -0.02547764 -0.00674258 -0.02592834
v -0.02830826 -0.00389940 -0.01781172
v -0.02455722 -0.00694941 -0.01897757
v -0.02768046 -0.00330922 -0.01297518
v -0.02481049 -0.00701079 -0.01333097
v -0.02464802 -0.00475826 -0.00981640
v -0.02824699 0.00186926 -0.03194315
v -0.02500948 0.00243502 -0.03471575
v -0.02906139 0.00109145 -0.02697586
v -0.02835942 0.00244319 -0.02091240
v -0.02784240 0.00127273 -0.01470791
v -0.02566181 0.00003224 -0.01009282
v -0.02764831 0.00730833 -0.03257426
v -0.02420629 0.00970172 -0.03484792
v -0.02798952 0.00746014 -0.02684119
v -0.02594868 0.00789612 -0.02183531
v -0.02553799 0.00578540 -0.01722519
v -0.02513481 0.00431134 -0.01232273
v -0.02570683 0.01163421 -0.03053746
v -0.02505837 0.01115832 -0.02521869
v -0.02120947 -0.01661173 0.00110731
v -0.01908969 -0.01910120 -0.00145517
v -0.01852160 -0.01621047 -0.00369094
v -0.02206968 -0.01643438 0.00723974
v -0.01962896 -0.02028409 0.00413076
v -0.02155320 -0.01554574 0.01327764
v -0.01831820 -0.02033711 0.01151913
v -0.01847359 -0.01757592 0.01562387
v -0.01852782 -0.01359112 -0.00082695
v -0.01758456 -0.00956403 0.00188873
v -0.02203358 -0.01048618 0.00505314
v -0.02275162 -0.01062826 0.01238298
v -0.01977940 -0.01430155 0.01753298
v -0.02139168 -0.01015497 0.01792289
v -0.01878153 -0.01112491 0.02080378
v -0.02332526 -0.00305526 -0.03181078
v -0.02305941 -0.00497078 -0.02681123
v -0.02175463 -0.00379843 -0.02113779
v -0.01964479 -0.00538122 -0.01633108
v -0.01960012 -0.00707622 -0.01246347
v -0.02226867 -0.00329441 -0.00531138
v -0.01989529 -0.00673814 -0.00690452
v -0.02165914 -0.00472649 0.00127156
v -0.01937369 -0.00687727 -0.00161282
v -0.02255609 -0.00334868 0.00702498
v -0.02264700 -0.00412172 0.01249001
v -0.02173860 -0.00407443 0.01820708
v -0.01914237 -0.00567582 0.02207555
v -0.02176770 0.00225119 -0.03253276
v -0.02112682 0.00062451 -0.02669887
v -0.01930061 0.00122418 -0.02175152
v -0.01835680 -0.00176448 -0.01801438
v -0.02297569 0.00362449 -0.00691395
v -0.02234770 0.00209275 -0.00025236
v -0.02248687 0.00220490 0.00614110
v -0.02257406 0.00147100 0.01168418
v -0.02148837 0.00276133 0.01698706
v -0.01916971 0.00047005 0.02176353
v -0.01897052 0.00563852 -0.03056477
v -0.01975157 0.00804865 -0.03502988
v -0.01855986 0.00451782 -0.02519151
v -0.02335807 0.01012782 -0.02038898
v -0.02226460 0.00871480 -0.01376275
v -0.02138415 0.00833457 -0.00754293
v -0.02157483 0.00771825 -0.00174056
v -0.02171736 0.00789185 0.00469479
v -0.02154734 0.00754018 0.01157450
v -0.01833497 0.00915218 0.01614976
v -0.01877244 0.00513413 0.01960148
v -0.02244274 0.01422744 -0.03262241
v -0.01851934 0.01533259 -0.03509290
v -0.02235587 0.01442596 -0.02647620
v -0.02114824 0.01412907 -0.01973024
v -0.01817030 0.01510201 -0.01561107
v -0.01915303 0.01190046 -0.01128623
v -0.01915760 0.01162130 -0.00520617
v -0.01928443 0.01184931 0.00129882
v -0.01934936 0.01200949 0.00768209
v -0.01846973 0.01202650 0.01241872
v -0.01923304 0.01792213 -0.03062623
v -0.01922195 0.01827593 -0.02418084
v -0.01832233 0.01818477 -0.01921446
v -0.01516366 -0.02324492 -0.00619209
v -0.01152038 -0.02535993 -0.00676844
v -0.01325404 -0.02173066 -0.00967010
v -0.01642179 -0.02274445 -0.00023950
v -0.01248613 -0.02583530 -0.00082610
v -0.01627078 -0.02350564 0.00731007
v -0.01220643 -0.02594141 0.00592968
v -0.01557033 -0.02352692 0.01177593
v -0.01210452 -0.02560380 0.01205189
v -0.01289359 -0.02346042 0.01547908
v -0.01599952 -0.01858495 -0.00667740
v -0.01151001 -0.01807690 -0.00951078
v -0.01637987 -0.01617224 0.02032972
v -0.01346848 -0.02032617 0.01850938
v -0.01496848 -0.01566130 0.02605388
v -0.01194024 -0.01930566 0.02449620
v -0.01191886 -0.01773232 0.02869772
v -0.01441541 -0.01491261 -0.00607551
v -0.01345187 -0.01356489 -0.00159826
v -0.01255952 -0.01151184 0.00270016
v -0.01673694 -0.00995352 0.02512580
v -0.01350734 -0.01437388 0.03064497
v -0.01522115 -0.01017765 0.03076033
v -0.01156479 -0.01164568 0.03382972
v -0.01657720 -0.00270220 -0.01304378
v -0.01645807 -0.00390660 -0.00645385
v -0.01645084 -0.00535786 0.00021622
v -0.01378397 -0.00777907 0.00552627
v -0.01476621 -0.00307162 0.00592821
v -0.01287651 -0.00697619 0.01075719
v -0.01428253 -0.00360192 0.01142677
v -0.01260228 -0.00512522 0.01456103
v -0.01681762 -0.00262173 0.02603775
v -0.01553861 -0.00403992 0.03094609
v -0.01248675 -0.00542463 0.03421564
v -0.01676892 0.00280802 -0.01953491
v -0.01517733 0.00319617 -0.01407728
v -0.01507902 0.00125072 -0.00804484
v -0.01495508 0.00082732 -0.00127421
v -0.01336218 0.00150479 0.00307790
v -0.01296450 -0.00041122 0.00794189
v -0.01259491 -0.00188056 0.01311851
v -0.01679470 0.00343763 0.02388876
v -0.01521415 0.00274598 0.02965308
v -0.01185107 0.00162775 0.03397073
v -0.01589185 0.00930375 -0.03265057
v -0.01593411 0.00792824 -0.02659831
v -0.01490725 0.00775856 -0.01992431
v -0.01339512 0.00765314 -0.01583907
v -0.01289225 0.00575584 -0.01117802
v -0.01182300 0.00539502 -0.00514907
v -0.01129123 0.00438770 0.00056104
v -0.01651806 0.00783821 0.01985926
v -0.01501282 0.00790408 0.02446174
v -0.01353655 0.00796335 0.02873437
v -0.01225668 0.00630235 0.03214831
v -0.01280604 0.01201903 -0.03071928
v -0.01338067 0.01452926 -0.03507880
v -0.01199341 0.01169645 -0.02428899
v -0.01145758 0.01065956 -0.01834223
v -0.01653020 0.01478579 -0.01280631
v -0.01600862 0.01482943 -0.00852671
v -0.01607351 0.01499677 -0.00207038
v -0.01617953 0.01514821 0.00439462
v -0.01578454 0.01519126 0.01040898
v -0.01443238 0.01411777 0.01501423
v -0.01259379 0.01196142 0.01989214
v -0.01147955 0.01094742 0.02607576
v -0.01601227 0.02071272 -0.03273439
v -0.01239819 0.02076927 -0.03495157
v -0.01614742 0.02164338 -0.02744706
v -0.01571507 0.02159538 -0.02121207
v -0.01396430 0.02027623 -0.01696790
v -0.01224248 0.01772506 -0.01240103
v -0.01212307 0.01729946 -0.00556823
v -0.01220616 0.01745003 0.00087056
v -0.01219192 0.01760682 0.00733754
v -0.01132364 0.01728725 0.01343753
v -0.01213428 0.02373734 -0.03070881
v -0.01205562 0.02410028 -0.02424778
v -0.01143677 0.02336192 -0.01922224
v -0.00582084 -0.02708222 -0.00649528
v -0.00674091 -0.02324044 -0.00977375
v -0.00687429 -0.02653359 -0.00069054
v -0.00648195 -0.02662121 0.00602617
v -0.00633285 -0.02673558 0.01254103
v -0.00911254 -0.02297483 0.01969611
v -0.00752407 -0.02551424 0.01739725
v -0.00441376 -0.02336485 0.02179590
v -0.00598175 -0.01963266 -0.00683341
v -0.00995124 -0.01666800 -0.00566252
v -0.00550993 -0.01955207 -0.00078358
v -0.00948112 -0.01605600 0.00083678
v -0.00565681 -0.01938068 0.00543207
v -0.00858165 -0.01571455 0.00691556
v -0.00571483 -0.01771083 0.00961471
v -0.00658800 -0.02095042 0.02482916
v -0.01012443 -0.01624823 0.03217408
v -0.00736790 -0.01928631 0.03009955
v -0.00590209 -0.01633179 0.03395498
v -0.01070249 -0.01144412 0.00636602
v -0.00624105 -0.01479568 0.01269409
v -0.00982582 -0.01041242 0.01333693
v -0.00579016 -0.01300042 0.01841147
v -0.00884057 -0.00927128 0.02011740
v -0.00582564 -0.01150476 0.02270989
v -0.00655072 -0.01057901 0.03501087
v -0.01060578 -0.00384775 0.01731248
v -0.00731101 -0.00821485 0.02460805
v -0.00880966 -0.00348286 0.02343532
v -0.00470608 -0.00491664 0.02760897
v -0.00674799 -0.00388338 0.03483430
v -0.01062122 0.00280586 0.00525211
v -0.00981357 0.00168976 0.01174216
v -0.00886892 0.00160278 0.01850672
v -0.00740244 0.00167062 0.02269739
v -0.00592778 -0.00021993 0.02601317
v -0.00575335 0.00177493 0.03474403
v -0.01075081 0.00910236 -0.01367415
v -0.00929501 0.00867630 -0.00861597
v -0.00728990 0.00823558 -0.00395570
v -0.00712000 0.00664669 0.00007766
v -0.00700578 0.00559350 0.00662406
v -0.00554023 0.00570268 0.01426664
v -0.00517071 0.00468983 0.02013469
v -0.01042247 0.00954319 0.03065550
v -0.00699071 0.00723330 0.03388147
v -0.00971324 0.01574808 -0.03269307
v -0.00943444 0.01485054 -0.02778975
v -0.00758494 0.01452032 -0.02285189
v -0.00624562 0.01279250 -0.01849615
v -0.00646944 0.01127377 -0.01233270
v -0.00481251 0.01076916 -0.00540443
v -0.01001510 0.01563397 0.01770535
v -0.00680393 0.01469399 0.02087096
v -0.00581300 0.01262382 0.02514595
v -0.00626878 0.01112006 0.03076229
v -0.00535334 0.01820556 -0.03110360
v -0.00683121 0.02044200 -0.03474081
v -0.00506110 0.01702791 -0.02436321
v -0.00821631 0.02137344 -0.01567017
v -0.00528064 0.01909663 -0.01150266
v -0.00650491 0.01790704 -0.00689324
v -0.00658202 0.01803418 -0.00058191
v -0.00655052 0.01826410 0.00588451
v -0.00637580 0.01838304 0.01245481
v -0.00586439 0.01721295 0.01802443
v -0.00638730 0.02404654 -0.03193579
v -0.00641380 0.02485727 -0.02579794
v -0.00595731 0.02406517 -0.01883523
v -0.00227246 -0.02965678 -0.00608919
v -0.00037232 -0.03116686 -0.00701320
v -0.00095797 -0.02805402 -0.00921519
v 0.00060196 -0.02971897 -0.00517085
v 0.00084027 -0.02332752 -0.00984136
v 0.00003143 -0.02720211 -0.00138552
v 0.00004614 -0.02646304 0.00609361
v 0.00024887 -0.02661348 0.01271042
v -0.00141782 -0.02585487 0.01830583
v 0.00156335 -0.02326701 0.02223057
v 0.00008608 -0.02089546 -0.00664070
v 0.00026735 -0.02036316 -0.00058290
v -0.00076596 -0.02059203 0.00513266
v -0.00062012 -0.01919101 0.01064160
v -0.00289544 -0.01672583 0.01341275
v 0.00104953 -0.01668969 0.01442651
v 0.00014281 -0.02100366 0.02611524
v -0.00130845 -0.01965540 0.03103042
v 0.00025708 -0.01651298 0.03424951
v -0.00035131 -0.01465687 0.01721013
v -0.00063577 -0.01291727 0.02334888
v -0.00394313 -0.01009918 0.02601552
v 0.00074976 -0.00888492 0.02760434
v 0.00004214 -0.01078382 0.03482819
v 0.00000444 -0.00417388 0.02901469
v 0.00000211 -0.00417008 0.03466637
v -0.00406737 0.00314367 0.02457451
v -0.00073835 0.00053693 0.02760432
v 0.00004863 0.00245401 0.03480436
v -0.00395747 0.00917260 -0.00061293
v -0.00310906 0.00882941 0.00466688
v -0.00280387 0.00890376 0.01079967
v -0.00092905 0.00855501 0.01456720
v 0.00028184 0.00648386 0.01730819
v 0.00066073 0.00464439 0.02339872
v -0.00009500 0.00821207 0.03422087
v -0.00374255 0.01545305 -0.01982255
v -0.00089714 0.01451708 -0.01702277
v 0.00084723 0.01239589 -0.01351354
v -0.00089704 0.01194806 -0.00728480
v 0.00032731 0.01084405 -0.00091013
v 0.00003641 0.01057487 0.00629683
v 0.00045217 0.01034133 0.01137952
v -0.00145161 0.01500265 0.02209970
v 0.00149330 0.01262913 0.02605537
v -0.00013131 0.01131141 0.03098366
v 0.00120215 0.01903199 -0.03170996
v -0.00019311 0.02150675 -0.03432232
v -0.00106936 0.01823920 -0.02646975
v 0.00065267 0.01688733 -0.02079677
v -0.00353501 0.02173626 -0.01367398
v -0.00089707 0.02061483 -0.01101529
v 0.00072726 0.01843309 -0.00744675
v -0.00009867 0.01795489 -0.00034981
v 0.00005216 0.01814956 0.00613924
v 0.00016908 0.01831754 0.01253283
v 0.00016813 0.01752296 0.01818648
v 0.00003104 0.02403136 -0.03179192
v 0.00015206 0.02484593 -0.02577679
v -0.00071670 0.02473138 -0.02006495
v 0.00080152 0.02319925 -0.01463682
v 0.00252871 -0.02918766 -0.00765194
v 0.00665928 -0.02673806 -0.00570460
v 0.00646152 -0.02326225 -0.00958684
v 0.00733253 -0.02660214 0.00049338
v 0.00659820 -0.02647320 0.00613747
v 0.00587807 -0.02649405 0.01179209
v 0.00563625 -0.02553363 0.01781596
v 0.00696863 -0.02284205 0.02120004
v 0.00580521 -0.01990129 -0.00661867
v 0.00587682 -0.01938343 -0.00046918
v 0.00477522 -0.01947246 0.00653278
v 0.00400912 -0.01765673 0.01171584
v 0.00719910 -0.01625753 0.00988393
v 0.00642577 -0.02090588 0.02451877
v 0.00566859 -0.01945174 0.03036480
v 0.00710950 -0.01545802 0.03389881
v 0.00570824 -0.01428021 0.01449478
v 0.00518328 -0.01294284 0.02005490
v 0.00407923 -0.01147443 0.02456001
v 0.00740856 -0.00995870 0.02267902
v 0.00578593 -0.01004610 0.03474736
v 0.00593710 -0.00812294 0.02601294
v 0.00471508 -0.00342957 0.02760595
v 0.00675639 -0.00434245 0.03483623
v 0.00395707 0.00175682 0.02601320
v 0.00732409 -0.00009764 0.02457426
v 0.00584732 0.00323753 0.02269072
v 0.00667764 0.00232341 0.03503336
v 0.00353593 0.00880837 0.00168083
v 0.00795223 0.00656447 -0.00146900
v 0.00547737 0.00912884 -0.00290137
v 0.00312926 0.00887923 0.00769194
v 0.00732557 0.00555412 0.00434016
v 0.00225508 0.00854227 0.01306493
v 0.00574829 0.00569661 0.01176875
v 0.00574004 0.00474965 0.01845982
v 0.00605396 0.00797358 0.03396693
v 0.00289884 0.01451117 -0.01784221
v 0.00718900 0.01280152 -0.01947695
v 0.00565736 0.01542777 -0.02164788
v 0.00767586 0.01109663 -0.01402840
v 0.00512473 0.01086114 -0.00743763
v 0.00469135 0.01497407 0.02175041
v 0.00764712 0.01254590 0.02392072
v 0.00676181 0.01093021 0.02971126
v 0.00662639 0.01774853 -0.03252625
v 0.00680732 0.02089721 -0.03463179
v 0.00504201 0.01720249 -0.02668368
v 0.00736648 0.01890717 -0.01175153
v 0.00272410 0.02067399 -0.01198230
v 0.00611442 0.02175841 -0.01506507
v 0.00722277 0.01792420 -0.00577714
v 0.00638200 0.01803333 -0.00015376
v 0.00655092 0.01819026 0.00632820
v 0.00579004 0.01829651 0.01181004
v 0.00703540 0.01731517 0.01697149
v 0.00637074 0.02411818 -0.03175583
v 0.00670225 0.02487067 -0.02570848
v 0.00602692 0.02405453 -0.01911701
v 0.01296920 -0.02525104 -0.00593178
v 0.01165062 -0.02324946 -0.00932171
v 0.01218047 -0.02599431 -0.00058287
v 0.01225168 -0.02588186 0.00601667
v 0.01120839 -0.02557472 0.01291573
v 0.01031980 -0.02378318 0.01809383
v 0.01318522 -0.02341617 0.01566570
v 0.00976166 -0.01734880 -0.00744044
v 0.01269127 -0.01841913 -0.00925159
v 0.00964704 -0.01588724 -0.00123001
v 0.00865147 -0.01620908 0.00571094
v 0.01293796 -0.02070572 0.01915705
v 0.01149007 -0.01911922 0.02622681
v 0.01049352 -0.01772722 0.03072730
v 0.01360700 -0.01618652 0.02882350
v 0.01331488 -0.01465245 -0.00535059
v 0.01272078 -0.01278703 -0.00003446
v 0.01408542 -0.01073408 0.00280381
v 0.01068921 -0.01187571 0.00499112
v 0.00979014 -0.01085951 0.01173421
v 0.00886899 -0.00984320 0.01851144
v 0.01237480 -0.01451341 0.03214179
v 0.01190682 -0.00984272 0.03397659
v 0.01366918 -0.00759107 0.00683006
v 0.01248881 -0.00639135 0.01324736
v 0.01258121 -0.00322191 0.01455270
v 0.01058962 -0.00436434 0.01736818
v 0.00881883 -0.00477378 0.02340243
v 0.01245423 -0.00275792 0.03424834
v 0.01007584 0.00229584 0.00788606
v 0.01338675 0.00005824 0.00552438
v 0.01189309 0.00273723 0.00322355
v 0.00982815 0.00139095 0.01421343
v 0.01298824 -0.00132563 0.01065321
v 0.00886079 0.00104596 0.02010774
v 0.01161421 0.00342452 0.03390496
v 0.01013321 0.00858377 -0.01105790
v 0.01336596 0.00637131 -0.01366029
v 0.01200424 0.00913708 -0.01584920
v 0.00875210 0.00810324 -0.00606748
v 0.01225714 0.00535577 -0.00738997
v 0.01203133 0.00424868 -0.00086051
v 0.01025322 0.00789257 0.03226704
v 0.01204081 0.00924736 0.02886730
v 0.01353243 0.00604598 0.03080454
v 0.00985382 0.01487682 -0.03058184
v 0.01347242 0.01172640 -0.03264961
v 0.01226368 0.01560788 -0.03502297
v 0.00876771 0.01452333 -0.02518912
v 0.01211721 0.01178630 -0.02657798
v 0.01202113 0.01074606 -0.01989378
v 0.00937555 0.01458061 0.01958604
v 0.01267857 0.01473381 0.01622789
v 0.01205142 0.01233272 0.01988103
v 0.01207585 0.01077294 0.02456301
v 0.01379633 0.02003449 -0.03478601
v 0.01168169 0.02063817 -0.01608722
v 0.01227793 0.01789855 -0.01262973
v 0.01201697 0.01714047 -0.00819223
v 0.01198478 0.01727923 -0.00167213
v 0.01216312 0.01755297 0.00478456
v 0.01177557 0.01740564 0.01157933
v 0.01141222 0.02350455 -0.03252304
v 0.01221879 0.02422333 -0.02723401
v 0.01233331 0.02360219 -0.02101103
v 0.01494482 -0.02176741 -0.00754444
v 0.01631852 -0.02246299 -0.00250940
v 0.01626207 -0.02362797 0.00419737
v 0.01563310 -0.02317003 0.01131371
v 0.01632293 -0.01739972 -0.00591307
v 0.01911554 -0.01786220 -0.00268419
v 0.01961496 -0.02007430 0.00116903
v 0.01949616 -0.02045522 0.00719238
v 0.01825928 -0.01956235 0.01319801
v 0.01682307 -0.01669925 0.01887143
v 0.01972464 -0.01624688 0.01572033
v 0.01504364 -0.01618888 0.02459545
v 0.01736738 -0.01375163 -0.00167734
v 0.01827740 -0.01025140 0.00195519
v 0.01875512 -0.01343912 0.01951718
v 0.01670833 -0.01094147 0.02479212
v 0.01912464 -0.00870364 0.02174389
v 0.01516410 -0.01179602 0.03008129
v 0.01668403 -0.00334540 -0.01220677
v 0.02035826 -0.00709480 -0.01412169
v 0.01839944 -0.00381178 -0.01660007
v 0.01658385 -0.00370867 -0.00541947
v 0.01954199 -0.00684201 -0.00748003
v 0.01636430 -0.00495504 0.00069348
v 0.01904680 -0.00737771 -0.00100947
v 0.01497517 -0.00299447 0.00603178
v 0.01423849 -0.00458983 0.01138638
v 0.01682852 -0.00418190 0.02609543
v 0.01912800 -0.00263104 0.02221800
v 0.01552912 -0.00579587 0.03099055
v 0.01677482 0.00176113 -0.01872956
v 0.01929004 -0.00068447 -0.02017624
v 0.01854857 0.00330671 -0.02305522
v 0.01518737 0.00281210 -0.01328215
v 0.01509515 0.00130350 -0.00682700
v 0.01501978 0.00031788 -0.00012302
v 0.01678717 0.00216749 0.02446051
v 0.01875859 0.00272411 0.02114608
v 0.01527487 0.00122829 0.03037341
v 0.01619301 0.00862709 -0.03065008
v 0.01993766 0.00529260 -0.03268029
v 0.01873468 0.00903718 -0.03503245
v 0.01585679 0.00776737 -0.02425735
v 0.01894504 0.00518166 -0.02788337
v 0.01485204 0.00709602 -0.01845666
v 0.01609957 0.00896449 0.01941316
v 0.01886755 0.00981330 0.01519482
v 0.01969446 0.00605361 0.01806577
v 0.01502085 0.00719129 0.02619684
v 0.01948782 0.01432108 -0.03499912
v 0.01953463 0.01248336 -0.01344739
v 0.01605164 0.01590687 -0.01242877
v 0.01872286 0.01582410 -0.01662422
v 0.01914509 0.01156531 -0.00807161
v 0.01599268 0.01480443 -0.00505991
v 0.01916613 0.01170873 -0.00164356
v 0.01609575 0.01509661 0.00146255
v 0.01927599 0.01203659 0.00472142
v 0.01616973 0.01525773 0.00774060
v 0.01928927 0.01176647 0.01067631
v 0.01616677 0.01376390 0.01315730
v 0.01827425 0.01834344 -0.03257858
v 0.01564644 0.02170833 -0.03045429
v 0.01918814 0.01841040 -0.02735177
v 0.01621087 0.02164114 -0.02412186
v 0.01917482 0.01782509 -0.02122616
v 0.01616949 0.01990132 -0.01845227
v 0.02115163 -0.01557677 0.00073527
v 0.02203343 -0.01645102 0.00576479
v 0.02151820 -0.01641791 0.01174013
v 0.02198180 -0.00991595 0.00504468
v 0.02267890 -0.01075293 0.01237848
v 0.02134917 -0.01187115 0.01722326
v 0.02330782 -0.00409562 -0.03084525
v 0.02593326 -0.00650930 -0.03147960
v 0.02501379 -0.00359867 -0.03430244
v 0.02305212 -0.00476762 -0.02506289
v 0.02555305 -0.00663754 -0.02608663
v 0.02131853 -0.00435942 -0.01970045
v 0.02489853 -0.00685133 -0.01868859
v 0.02399175 -0.00713704 -0.01180626
v 0.02261472 -0.00409140 -0.00630645
v 0.02566810 -0.00284720 -0.00990465
v 0.02159505 -0.00460389 0.00015112
v 0.02246911 -0.00322069 0.00697594
v 0.02259034 -0.00410941 0.01263940
v 0.02170795 -0.00570780 0.01831090
v 0.02217338 0.00111362 -0.03198746
v 0.02465111 0.00207096 -0.03475049
v 0.02110351 0.00012005 -0.02561166
v 0.02297156 0.00257569 -0.00647447
v 0.02511350 0.00239961 -0.01032567
v 0.02231684 0.00201193 -0.00029895
v 0.02238738 0.00234042 0.00616035
v 0.02248398 0.00156287 0.01172575
v 0.02143706 0.00132783 0.01781094
v 0.02506976 0.00801987 -0.03479609
v 0.02595419 0.00639924 -0.01941122
v 0.02329236 0.00933235 -0.01868398
v 0.02506187 0.00956948 -0.02283711
v 0.02551414 0.00494904 -0.01440266
v 0.02219407 0.00807439 -0.01197068
v 0.02132331 0.00834826 -0.00563014
v 0.02156353 0.00781030 -0.00018771
v 0.02164686 0.00806893 0.00618940
v 0.02148351 0.00697237 0.01294691
v 0.02494701 0.01180569 -0.03257224
v 0.02204765 0.01508225 -0.03058405
v 0.02569708 0.01146239 -0.02769943
v 0.02229158 0.01404792 -0.02416065
v 0.02105075 0.01332976 -0.01815238
v 0.02780106 -0.00307703 -0.03197718
v 0.02816276 -0.00415969 -0.02591897
v 0.02820294 -0.00401078 -0.01910341
v 0.02760680 -0.00486926 -0.01396818
v 0.02839810 0.00333419 -0.03170599
v 0.02910212 0.00080943 -0.02668682
v 0.02830421 0.00191057 -0.01953971
v 0.02783425 -0.00001940 -0.01323841
v 0.02779191 0.00853738 -0.03107073
v 0.02802428 0.00657161 -0.02528336
f 3 2 1
f 5 4 1
f 5 1 2
f 7 6 4
f 7 4 5
f 9 8 6
f 9 6 7
f 10 8 9
f 3 1 11
f 3 11 12
f 13 1 4
f 11 1 13
f 14 4 6
f 13 4 14
f 15 6 8
f 14 6 15
f 8 10 16
f 8 16 15
f 12 11 17
f 12 17 18
f 19 11 13
f 17 11 19
f 14 21 20
f 19 14 20
f 13 14 19
f 21 14 15
f 21 15 22
f 22 15 16
f 23 18 17
f 23 17 19
f 23 19 24
f 24 19 20
f 27 26 25
f 29 28 25
f 29 25 26
f 31 30 28
f 31 28 29
f 32 30 31
f 33 27 25
f 35 34 33
f 25 35 33
f 28 35 25
f 36 28 30
f 35 28 36
f 30 32 37
f 38 30 37
f 36 30 38
f 39 38 37
f 3 40 2
f 41 5 2
f 41 2 40
f 42 7 5
f 42 5 41
f 7 42 43
f 44 7 43
f 9 7 44
f 46 45 10
f 9 46 10
f 44 46 9
f 48 47 45
f 48 45 46
f 47 48 34
f 35 47 34
f 49 47 35
f 50 35 36
f 49 35 50
f 51 36 38
f 50 36 51
f 38 39 52
f 38 52 51
f 12 53 40
f 12 40 3
f 40 54 41
f 40 53 54
f 56 42 55
f 42 54 55
f 42 41 54
f 42 56 43
f 57 16 45
f 45 16 10
f 58 45 47
f 57 45 58
f 59 47 49
f 58 47 59
f 60 49 50
f 59 49 60
f 61 50 51
f 60 50 61
f 51 52 62
f 51 62 61
f 64 63 53
f 12 64 53
f 18 64 12
f 53 63 54
f 54 63 65
f 66 20 21
f 65 55 54
f 22 67 21
f 21 67 66
f 16 57 22
f 57 67 22
f 57 68 67
f 69 57 58
f 68 57 69
f 70 58 59
f 69 58 70
f 71 59 60
f 70 59 71
f 61 73 72
f 71 61 72
f 60 61 71
f 73 61 62
f 18 23 74
f 75 18 74
f 64 18 75
f 24 76 23
f 23 76 74
f 20 66 24
f 66 76 24
f 66 77 76
f 67 79 78
f 77 67 78
f 66 67 77
f 79 67 68
f 79 68 80
f 80 68 69
f 80 69 81
f 81 69 70
f 81 70 82
f 82 70 71
f 82 71 83
f 83 71 72
f 84 75 74
f 84 74 76
f 84 76 85
f 85 76 77
f 85 77 86
f 86 77 78
f 89 88 87
f 91 90 87
f 91 87 88
f 93 92 90
f 93 90 91
f 95 94 92
f 95 92 93
f 96 94 95
f 89 87 97
f 89 97 98
f 27 97 26
f 97 90 26
f 97 87 90
f 26 90 29
f 29 90 92
f 29 92 31
f 31 92 94
f 100 99 32
f 100 32 31
f 96 100 31
f 94 96 31
f 102 101 99
f 102 99 100
f 103 101 102
f 104 98 97
f 104 97 27
f 33 104 27
f 105 104 33
f 33 34 105
f 105 34 106
f 99 37 32
f 37 99 39
f 99 107 39
f 99 101 107
f 101 103 108
f 109 101 108
f 107 101 109
f 110 109 108
f 43 111 44
f 112 46 44
f 112 44 111
f 113 48 46
f 113 46 112
f 106 34 114
f 34 113 114
f 113 115 114
f 34 48 113
f 117 116 115
f 115 116 114
f 117 118 116
f 119 52 107
f 107 52 39
f 120 107 109
f 119 107 120
f 109 110 121
f 109 121 120
f 55 122 56
f 111 43 56
f 122 111 56
f 123 111 122
f 111 124 112
f 111 123 124
f 112 125 113
f 112 124 125
f 127 115 126
f 115 125 126
f 115 113 125
f 115 127 117
f 117 127 128
f 117 128 118
f 129 62 119
f 119 62 52
f 130 119 120
f 129 119 130
f 120 121 131
f 120 131 130
f 64 132 63
f 133 65 63
f 133 63 132
f 122 55 65
f 133 122 65
f 134 122 133
f 136 123 135
f 123 134 135
f 123 122 134
f 123 136 124
f 124 136 137
f 124 137 125
f 125 137 138
f 125 138 126
f 139 72 73
f 62 129 73
f 129 139 73
f 129 140 139
f 130 142 141
f 140 130 141
f 129 130 140
f 142 130 131
f 144 143 132
f 64 144 132
f 75 144 64
f 132 143 133
f 133 143 145
f 133 145 134
f 134 145 146
f 147 78 79
f 146 135 134
f 80 148 79
f 79 148 147
f 81 149 80
f 80 149 148
f 82 150 81
f 81 150 149
f 83 151 82
f 82 151 150
f 152 151 83
f 152 83 72
f 153 152 72
f 139 153 72
f 153 139 140
f 153 140 154
f 154 140 141
f 75 84 155
f 156 75 155
f 144 75 156
f 85 157 84
f 84 157 155
f 86 158 85
f 85 158 157
f 159 158 86
f 159 86 78
f 160 159 78
f 147 160 78
f 160 147 148
f 160 148 161
f 161 148 149
f 161 149 162
f 162 149 150
f 162 150 163
f 163 150 151
f 163 151 164
f 164 151 152
f 165 156 155
f 165 155 157
f 165 157 166
f 166 157 158
f 166 158 167
f 167 158 159
f 169 168 88
f 169 88 89
f 88 170 91
f 168 170 88
f 91 171 93
f 170 171 91
f 93 172 95
f 171 172 93
f 174 173 96
f 95 174 96
f 172 174 95
f 175 173 174
f 98 177 176
f 169 98 176
f 89 98 169
f 179 178 177
f 177 178 176
f 181 180 179
f 179 180 178
f 181 182 180
f 173 100 96
f 175 183 173
f 183 100 173
f 183 102 100
f 185 184 103
f 102 185 103
f 183 185 102
f 186 184 185
f 104 177 98
f 177 104 105
f 177 105 179
f 179 105 106
f 187 179 106
f 181 179 187
f 182 181 188
f 181 189 188
f 181 187 189
f 191 190 189
f 189 190 188
f 191 192 190
f 184 108 103
f 110 108 184
f 186 110 184
f 193 110 186
f 114 187 106
f 187 114 116
f 187 116 189
f 189 116 118
f 194 189 118
f 191 189 194
f 192 191 195
f 191 196 195
f 191 194 196
f 196 197 195
f 193 121 110
f 198 121 193
f 126 199 127
f 200 128 127
f 200 127 199
f 194 118 128
f 200 194 128
f 201 194 200
f 203 196 202
f 196 201 202
f 196 194 201
f 196 203 197
f 198 131 121
f 204 131 198
f 135 205 136
f 206 137 136
f 206 136 205
f 137 206 207
f 208 137 207
f 138 137 208
f 126 138 199
f 138 209 199
f 138 208 209
f 199 209 200
f 200 209 210
f 200 210 201
f 201 210 211
f 201 211 202
f 212 141 142
f 213 212 142
f 131 213 142
f 204 213 131
f 144 214 143
f 215 145 143
f 215 143 214
f 145 215 216
f 217 145 216
f 146 145 217
f 135 146 205
f 146 218 205
f 146 217 218
f 205 218 206
f 206 218 219
f 206 219 207
f 220 152 153
f 220 153 221
f 153 222 221
f 153 154 222
f 154 141 212
f 223 154 212
f 222 154 223
f 223 212 213
f 225 224 214
f 144 225 214
f 156 225 144
f 214 224 215
f 215 224 226
f 215 226 216
f 228 227 160
f 160 227 159
f 229 160 161
f 229 228 160
f 230 161 162
f 230 229 161
f 231 162 163
f 231 230 162
f 232 163 164
f 232 231 163
f 164 152 220
f 233 164 220
f 232 164 233
f 233 220 221
f 234 225 156
f 234 156 165
f 235 165 166
f 235 234 165
f 236 166 167
f 236 235 166
f 167 159 227
f 167 227 236
f 239 238 237
f 240 237 238
f 239 237 168
f 169 239 168
f 241 239 169
f 240 242 237
f 242 168 237
f 242 170 168
f 170 243 171
f 242 243 170
f 171 244 172
f 243 244 171
f 172 245 174
f 244 245 172
f 175 174 245
f 175 245 246
f 247 241 169
f 247 169 176
f 248 176 178
f 248 247 176
f 249 178 180
f 249 248 178
f 251 250 182
f 250 180 182
f 250 249 180
f 251 252 250
f 246 253 175
f 175 253 183
f 183 254 185
f 253 254 183
f 186 185 254
f 186 254 255
f 188 251 182
f 256 252 251
f 188 256 251
f 190 256 188
f 258 257 192
f 257 190 192
f 257 256 190
f 258 259 257
f 255 193 186
f 260 193 255
f 195 258 192
f 195 197 258
f 197 259 258
f 197 261 259
f 260 198 193
f 262 198 260
f 202 263 203
f 263 264 203
f 264 197 203
f 264 261 197
f 262 204 198
f 265 204 262
f 207 266 208
f 267 209 208
f 267 208 266
f 268 210 209
f 268 209 267
f 210 268 269
f 270 210 269
f 211 210 270
f 202 211 263
f 211 271 263
f 211 270 271
f 263 271 264
f 265 213 204
f 272 213 265
f 216 273 217
f 217 273 274
f 275 217 274
f 218 217 275
f 218 276 219
f 275 276 218
f 207 219 266
f 219 277 266
f 219 276 277
f 266 277 267
f 267 277 278
f 267 278 268
f 268 278 279
f 268 279 269
f 281 280 222
f 222 280 221
f 282 222 223
f 282 281 222
f 223 213 272
f 223 272 282
f 284 283 224
f 284 224 225
f 224 285 226
f 283 285 224
f 216 226 273
f 226 286 273
f 226 285 286
f 287 227 228
f 286 274 273
f 287 228 288
f 228 289 288
f 228 229 289
f 290 229 230
f 290 289 229
f 291 230 231
f 291 290 230
f 292 231 232
f 292 291 231
f 293 232 233
f 293 292 232
f 233 221 280
f 233 280 293
f 294 284 225
f 294 225 234
f 295 234 235
f 295 294 234
f 296 235 236
f 296 295 235
f 236 227 287
f 297 236 287
f 296 236 297
f 297 287 288
f 239 298 238
f 298 240 238
f 300 299 298
f 239 300 298
f 241 300 239
f 298 299 240
f 299 242 240
f 299 301 242
f 242 302 243
f 301 302 242
f 243 303 244
f 302 303 243
f 244 304 245
f 303 304 244
f 246 245 304
f 246 304 305
f 306 300 241
f 306 241 247
f 307 247 248
f 307 306 247
f 308 248 249
f 308 307 248
f 310 308 309
f 308 250 309
f 308 249 250
f 252 309 250
f 305 311 246
f 246 311 253
f 253 312 254
f 311 312 253
f 255 254 312
f 255 312 313
f 314 310 309
f 314 309 252
f 256 314 252
f 315 314 256
f 317 315 316
f 315 257 316
f 315 256 257
f 259 316 257
f 313 260 255
f 318 260 313
f 319 317 316
f 316 259 319
f 259 320 319
f 259 261 320
f 318 262 260
f 321 262 318
f 324 323 322
f 323 320 322
f 320 264 322
f 320 261 264
f 321 265 262
f 325 265 321
f 328 327 326
f 330 329 326
f 330 326 327
f 332 331 329
f 332 329 330
f 270 269 331
f 332 270 331
f 333 270 332
f 322 271 324
f 271 333 324
f 271 270 333
f 271 322 264
f 325 272 265
f 334 272 325
f 337 336 335
f 275 274 335
f 336 275 335
f 338 275 336
f 275 339 276
f 338 339 275
f 326 277 328
f 277 339 328
f 277 276 339
f 277 326 278
f 278 326 329
f 278 329 279
f 279 329 331
f 279 331 269
f 341 340 281
f 281 340 280
f 342 281 282
f 342 341 281
f 282 272 334
f 282 334 342
f 344 343 283
f 344 283 284
f 283 345 285
f 343 345 283
f 335 286 337
f 286 345 337
f 286 285 345
f 286 335 274
f 348 347 346
f 288 289 347
f 289 346 347
f 289 349 346
f 350 289 290
f 350 349 289
f 351 290 291
f 351 350 290
f 352 291 292
f 352 351 291
f 353 292 293
f 353 352 292
f 293 280 340
f 293 340 353
f 354 344 284
f 354 284 294
f 355 294 295
f 355 354 294
f 356 295 296
f 356 355 295
f 297 347 348
f 356 297 348
f 296 297 356
f 347 297 288
f 358 357 299
f 358 299 300
f 299 359 301
f 357 359 299
f 301 360 302
f 359 360 301
f 302 361 303
f 360 361 302
f 361 363 362
f 304 361 362
f 303 361 304
f 362 305 304
f 300 306 364
f 365 300 364
f 358 300 365
f 307 366 306
f 306 366 364
f 308 367 307
f 307 367 366
f 310 367 308
f 363 368 362
f 362 368 305
f 368 311 305
f 368 369 311
f 369 371 370
f 312 369 370
f 311 369 312
f 370 313 312
f 372 365 364
f 372 364 366
f 372 366 373
f 375 374 373
f 366 375 373
f 367 375 366
f 314 376 310
f 376 367 310
f 376 375 367
f 315 377 314
f 314 377 376
f 317 377 315
f 371 378 370
f 313 370 378
f 379 313 378
f 318 313 379
f 380 374 375
f 380 375 376
f 380 376 381
f 383 382 381
f 376 383 381
f 377 383 376
f 319 384 317
f 384 377 317
f 384 383 377
f 320 384 319
f 379 321 318
f 385 321 379
f 388 387 386
f 390 389 386
f 390 386 387
f 389 390 382
f 383 389 382
f 391 389 383
f 324 391 323
f 391 384 323
f 391 383 384
f 323 384 320
f 385 325 321
f 392 325 385
f 395 394 393
f 397 396 393
f 397 393 394
f 327 328 396
f 397 327 396
f 398 327 397
f 386 330 388
f 330 398 388
f 330 327 398
f 330 386 332
f 332 386 389
f 332 389 333
f 333 389 391
f 333 391 324
f 401 400 399
f 392 401 399
f 334 392 399
f 325 392 334
f 404 403 402
f 406 405 402
f 406 402 403
f 336 337 405
f 406 336 405
f 407 336 406
f 393 338 395
f 338 407 395
f 338 336 407
f 338 393 339
f 339 393 396
f 339 396 328
f 410 409 408
f 340 341 408
f 341 410 408
f 341 411 410
f 342 399 400
f 411 342 400
f 341 342 411
f 399 342 334
f 404 402 343
f 344 404 343
f 412 404 344
f 343 402 345
f 345 402 405
f 345 405 337
f 414 413 346
f 346 413 348
f 415 346 349
f 415 414 346
f 416 349 350
f 416 415 349
f 417 350 351
f 417 416 350
f 418 351 352
f 418 417 351
f 353 408 409
f 418 353 409
f 352 353 418
f 408 353 340
f 419 412 344
f 419 344 354
f 420 354 355
f 420 419 354
f 421 355 356
f 421 420 355
f 356 348 413
f 356 413 421
f 358 422 357
f 423 359 357
f 423 357 422
f 424 360 359
f 424 359 423
f 425 361 360
f 425 360 424
f 425 363 361
f 365 426 422
f 365 422 358
f 428 423 427
f 423 426 427
f 423 422 426
f 423 428 424
f 424 428 429
f 424 429 425
f 425 429 430
f 430 432 431
f 430 431 368
f 425 430 368
f 363 425 368
f 433 369 368
f 433 368 431
f 433 371 369
f 372 426 365
f 434 427 426
f 372 434 426
f 373 434 372
f 373 374 434
f 434 374 435
f 432 436 431
f 438 437 436
f 437 431 436
f 437 433 431
f 439 378 371
f 433 439 371
f 437 439 433
f 439 379 378
f 442 441 440
f 444 443 440
f 444 440 441
f 446 445 443
f 446 443 444
f 447 445 380
f 445 435 380
f 435 374 380
f 435 445 446
f 381 448 380
f 380 448 447
f 382 448 381
f 437 438 449
f 449 438 450
f 437 451 439
f 437 449 451
f 451 385 379
f 451 379 439
f 454 453 452
f 452 453 442
f 440 452 442
f 455 452 440
f 456 440 443
f 455 440 456
f 457 443 445
f 456 443 457
f 388 457 387
f 457 447 387
f 457 445 447
f 387 447 390
f 390 447 448
f 390 448 382
f 449 450 458
f 458 450 459
f 449 460 451
f 449 458 460
f 460 392 385
f 460 385 451
f 463 462 461
f 465 464 461
f 465 461 462
f 464 465 454
f 452 464 454
f 466 464 452
f 395 466 394
f 466 455 394
f 466 452 455
f 394 455 397
f 397 455 456
f 397 456 398
f 398 456 457
f 398 457 388
f 469 468 467
f 469 467 459
f 467 458 459
f 467 470 458
f 470 400 401
f 460 470 401
f 458 470 460
f 460 401 392
f 463 461 403
f 404 463 403
f 471 463 404
f 403 461 406
f 406 461 464
f 406 464 407
f 407 464 466
f 407 466 395
f 474 473 472
f 476 475 473
f 473 475 472
f 478 477 476
f 476 477 475
f 480 479 478
f 478 479 477
f 482 481 480
f 480 481 479
f 481 482 468
f 468 482 467
f 482 409 467
f 409 410 467
f 467 410 411
f 467 411 470
f 470 411 400
f 412 484 483
f 471 412 483
f 404 412 471
f 486 485 484
f 484 485 483
f 488 487 486
f 486 487 485
f 487 488 474
f 474 488 473
f 488 413 473
f 413 414 473
f 473 414 415
f 473 415 476
f 476 415 416
f 476 416 478
f 478 416 417
f 478 417 480
f 480 417 418
f 480 418 482
f 482 418 409
f 419 484 412
f 484 419 420
f 484 420 486
f 486 420 421
f 486 421 488
f 488 421 413
f 427 489 428
f 490 429 428
f 490 428 489
f 491 430 429
f 491 429 490
f 491 432 430
f 434 489 427
f 489 434 435
f 492 489 435
f 490 489 492
f 490 493 491
f 490 492 493
f 494 436 432
f 491 494 432
f 493 494 491
f 494 438 436
f 497 496 495
f 499 498 495
f 499 495 496
f 501 500 498
f 501 498 499
f 441 442 500
f 501 441 500
f 502 441 501
f 502 504 503
f 444 502 503
f 441 502 444
f 505 446 444
f 505 444 503
f 492 435 446
f 505 492 446
f 506 492 505
f 492 507 493
f 492 506 507
f 493 508 494
f 493 507 508
f 508 450 438
f 508 438 494
f 497 495 509
f 497 509 510
f 511 495 498
f 509 495 511
f 454 511 453
f 511 500 453
f 511 498 500
f 453 500 442
f 503 504 512
f 512 504 513
f 503 514 505
f 503 512 514
f 505 515 506
f 505 514 515
f 506 516 507
f 506 515 516
f 507 517 508
f 507 516 517
f 517 459 450
f 517 450 508
f 510 509 462
f 463 510 462
f 518 510 463
f 462 509 465
f 465 509 511
f 465 511 454
f 521 520 519
f 523 522 520
f 520 522 519
f 522 523 513
f 523 512 513
f 523 524 512
f 512 525 514
f 512 524 525
f 514 526 515
f 514 525 526
f 515 527 516
f 515 526 527
f 527 468 469
f 517 527 469
f 516 527 517
f 517 469 459
f 471 529 528
f 518 471 528
f 463 471 518
f 531 530 529
f 529 530 528
f 530 531 521
f 531 520 521
f 531 532 520
f 532 474 472
f 523 532 472
f 520 532 523
f 523 472 475
f 523 475 524
f 524 475 477
f 524 477 525
f 525 477 479
f 525 479 526
f 526 479 481
f 526 481 527
f 527 481 468
f 483 529 471
f 529 483 485
f 529 485 531
f 531 485 487
f 531 487 532
f 532 487 474
f 497 533 496
f 534 499 496
f 534 496 533
f 535 501 499
f 535 499 534
f 536 502 501
f 536 501 535
f 536 504 502
f 510 537 533
f 510 533 497
f 533 538 534
f 533 537 538
f 534 539 535
f 534 538 539
f 535 540 536
f 535 539 540
f 540 513 504
f 540 504 536
f 518 541 537
f 518 537 510
f 537 542 538
f 537 541 542
f 542 521 519
f 539 542 519
f 538 542 539
f 539 519 522
f 539 522 540
f 540 522 513
f 528 541 518
f 541 528 530
f 541 530 542
f 542 530 521

