# https://github.com/mikedh/trimesh
v -0.03424862 -0.00990664 -0.00312113
v -0.03007670 -0.01269325 -0.00538573
v -0.03194675 -0.00881118 -0.00788079
v -0.03408456 -0.00926834 0.00134789
v -0.03218484 -0.01236792 0.00015370
v -0.03074643 -0.01047767 0.00311975
v -0.03383769 -0.00571480 -0.00511108
v -0.03143904 -0.00392406 -0.00728562
v -0.03414533 -0.00505869 -0.00062782
v -0.03027536 -0.00492787 0.00426118
v -0.03191969 -0.00152811 -0.00309599
v -0.03105967 -0.00103520 0.00123229
v -0.02874571 -0.01059415 -0.01050303
v -0.02554843 -0.01354344 -0.01061661
v -0.02492747 -0.01012222 -0.01321150
v -0.02554991 -0.01422225 -0.00601897
v -0.02568902 -0.01358640 0.00091258
v -0.02594164 -0.00999655 0.00497407
v -0.02877092 -0.00434398 -0.01125792
v -0.02535655 -0.00467630 -0.01495832
v -0.02657833 -0.00727921 0.00726450
v -0.02805762 -0.00445081 0.00861796
v -0.02716902 -0.00350443 0.01224779
v -0.02577578 -0.00684374 0.01164639
v -0.02430419 -0.00566776 0.01526082
v -0.02776902 0.00084640 -0.01595222
v -0.02493387 -0.00162025 -0.01778888
v -0.02513294 0.00223836 -0.01943684
v -0.02803620 0.00316682 -0.01136731
v -0.02930977 0.00145874 -0.00518431
v -0.02864051 0.00272724 0.00065269
v -0.02606540 0.00201665 0.00421440
v -0.02533364 -0.00099544 0.00862453
v -0.02442208 -0.00233463 0.01360704
v -0.02765681 0.00755045 -0.01671892
v -0.02527440 0.00819503 -0.01982974
v -0.02579988 0.00738246 -0.01325085
v -0.02566049 0.00572892 -0.01010343
v -0.02525619 0.00940197 -0.00813935
v -0.02776163 0.00651298 -0.00584127
v -0.02754943 0.00817426 -0.00044794
v -0.02446539 0.00765544 0.00319401
v -0.02731293 0.01335553 -0.01780428
v -0.02421458 0.01382135 -0.01932192
v -0.02474821 0.01373963 -0.01446896
v -0.02769673 0.01380216 -0.00333320
v -0.02558446 0.01558138 -0.00794453
v -0.02595317 0.01334280 -0.00024239
v -0.02430622 0.01156544 0.00176971
v -0.02539485 0.01621310 -0.01727447
v -0.02781384 0.01927037 -0.00490195
v -0.02505430 0.02054755 -0.00815766
v -0.02613649 0.01703696 0.00057947
v -0.02759931 0.02029017 -0.00045968
v -0.02409822 0.01919784 0.00292252
v -0.02480792 0.02278656 -0.00404585
v -0.02453452 0.02247626 0.00131604
v -0.02166433 -0.02118301 -0.00392145
v -0.01915008 -0.02485677 -0.00540160
v -0.01980037 -0.02164821 -0.00868207
v -0.02142445 -0.02114515 0.00145130
v -0.01968822 -0.02537050 -0.00023136
v -0.01823576 -0.02367584 0.00363823
v -0.02212761 -0.01725892 -0.00943069
v -0.01847297 -0.01991646 -0.01185275
v -0.01966897 -0.01578477 -0.01332777
v -0.02339509 -0.01632717 -0.00407614
v -0.02263324 -0.01749002 0.00005803
v -0.01896556 -0.01692385 0.00398759
v -0.01977920 -0.01014497 -0.01466302
v -0.02277102 -0.01041569 0.00909148
v -0.01946947 -0.01294692 0.00730157
v -0.02244058 -0.00969577 0.01363446
v -0.01842057 -0.01261650 0.01327153
v -0.01943662 -0.00996038 0.01690805
v -0.02217417 -0.00530228 -0.01681202
v -0.01760948 -0.00734408 -0.01716553
v -0.02053377 -0.00309468 -0.01938065
v -0.02021289 -0.00507884 0.01682450
v -0.01950876 0.00162287 -0.02064535
v -0.02162733 0.00275226 0.00651152
v -0.01989260 0.00133159 0.00958358
v -0.02012979 -0.00123617 0.01342713
v -0.01952571 0.00795941 -0.02062059
v -0.02379361 0.00891608 -0.01137837
v -0.02030456 0.00683265 0.00508370
v -0.01832202 0.00430927 0.00777253
v -0.01813195 0.01359143 -0.01972839
v -0.02344487 0.01311377 -0.01061919
v -0.02356824 0.01518789 0.00181054
v -0.02032265 0.01339957 0.00427977
v -0.02112889 0.01725145 -0.01663679
v -0.02243633 0.01860206 -0.01176125
v -0.01754861 0.02046584 -0.01386738
v -0.02004752 0.01974491 0.00435243
v -0.01985027 0.02257144 -0.00939469
v -0.01878297 0.02346123 -0.00423776
v -0.01928605 0.02292713 0.00160579
v -0.01519226 -0.02900847 -0.00993459
v -0.01158653 -0.03111319 -0.01061623
v -0.01354408 -0.02759362 -0.01320692
v -0.01655428 -0.02840780 -0.00410716
v -0.01262318 -0.03149372 -0.00481391
v -0.01658352 -0.02815076 0.00177400
v -0.01333075 -0.03081515 0.00047723
v -0.01299107 -0.02814862 0.00377094
v -0.01675469 -0.02453245 -0.01042241
v -0.01365532 -0.02178235 -0.01438751
v -0.01311971 -0.02270409 0.00506269
v -0.01297216 -0.01472594 -0.01464618
v -0.01334579 -0.01726254 0.00532484
v -0.01322683 -0.00979388 -0.01471789
v -0.01337465 -0.01403215 0.00772944
v -0.01287958 -0.01340906 0.01337939
v -0.01601592 -0.00898789 0.02010288
v -0.01416133 -0.01274652 0.01852120
v -0.01185658 -0.01077449 0.02182465
v -0.01274198 -0.00685925 -0.01673528
v -0.01404174 -0.00355575 -0.01954743
v -0.01637816 -0.00284951 0.01894361
v -0.01257512 -0.00594230 0.02240002
v -0.01400447 0.00226224 -0.02071318
v -0.01692226 0.00278399 0.01360804
v -0.01568386 0.00273181 0.01983799
v -0.01281817 0.00041432 0.02233913
v -0.01249292 0.00814360 -0.02002909
v -0.01680282 0.00876162 0.00844081
v -0.01618707 0.00778728 0.01336110
v -0.01559982 0.00824659 0.01784703
v -0.01292267 0.00630847 0.02181749
v -0.01212097 0.01531949 -0.01990305
v -0.01682258 0.01569796 0.00802457
v -0.01566714 0.01353333 0.01345882
v -0.01356787 0.01381019 0.01712570
v -0.01183185 0.01085149 0.01975417
v -0.01509779 0.01776742 -0.01734195
v -0.01270951 0.02078252 -0.01516410
v -0.01675495 0.02045667 0.00700294
v -0.01519499 0.01974785 0.01184083
v -0.01270130 0.01858267 0.01565543
v -0.01259079 0.02270734 -0.01124300
v -0.01430262 0.02325946 -0.00604004
v -0.01334738 0.02401290 0.00051517
v -0.01304755 0.02356219 0.00848455
v -0.01198803 0.02222651 0.01385004
v -0.00571253 -0.03152962 -0.01043143
v -0.00886373 -0.02809709 -0.01451203
v -0.00799611 -0.03231488 -0.00566664
v -0.00801294 -0.03116675 0.00040419
v -0.00745087 -0.02758583 0.00395255
v -0.00955318 -0.02313647 -0.01708545
v -0.00553987 -0.02558670 -0.01767410
v -0.00725882 -0.02122888 -0.01936332
v -0.00648251 -0.02530634 0.00752851
v -0.01046358 -0.02169749 0.00799425
v -0.00900206 -0.02115075 0.01198840
v -0.00752894 -0.02449893 0.01236473
v -0.00566353 -0.02245755 0.01531173
v -0.00986271 -0.01804580 -0.01733370
v -0.00526891 -0.01695316 -0.01958343
v -0.01016911 -0.01684579 0.00837323
v -0.00751871 -0.01706620 0.01141689
v -0.00634754 -0.01908361 0.01391277
v -0.00739164 -0.01388798 -0.01681194
v -0.00695410 -0.01079500 -0.01477890
v -0.00824763 -0.01416838 0.01209566
v -0.00733394 -0.01257728 0.01829710
v -0.00663764 -0.00853828 0.02196246
v -0.00938846 -0.00276303 -0.01616022
v -0.00706213 -0.00623751 -0.01370530
v -0.00812780 -0.00333462 0.02302506
v -0.00692997 -0.00065525 -0.01729756
v -0.00875344 0.00072234 -0.01923958
v -0.00690632 0.00221828 -0.01488058
v -0.00910973 0.00186758 -0.01230086
v -0.00783713 -0.00168586 -0.01172260
v -0.00715738 0.00109550 -0.00898808
v -0.00742674 0.00204291 0.02291804
v -0.00687207 0.00469471 -0.01689409
v -0.00915159 0.00717924 -0.01608085
v -0.00644899 0.00487653 -0.01034103
v -0.00659327 0.00769861 -0.01435004
v -0.00681995 0.00818992 0.02218720
v -0.00554570 0.01073144 -0.01729250
v -0.00836500 0.01313463 -0.01987537
v -0.00922638 0.01499195 0.01780155
v -0.00701354 0.01213060 0.02013870
v -0.01049080 0.01951326 -0.01789680
v -0.00609209 0.01905823 -0.01974207
v -0.00722324 0.01940854 0.01588231
v -0.00814237 0.02229590 -0.01600694
v -0.00572125 0.02389360 -0.01098323
v -0.00796376 0.02363443 -0.00439231
v -0.00935921 0.02601079 0.00065210
v -0.00631342 0.02597191 -0.00069627
v -0.00985598 0.02666711 0.00561031
v -0.00745240 0.02552069 0.01003098
v -0.00843986 0.02307563 0.01309900
v -0.00759001 0.02801964 0.00241043
v -0.00671901 0.02800817 0.00617971
v -0.00088765 -0.03072456 -0.00983753
v -0.00125033 -0.02827801 -0.01392767
v -0.00264546 -0.03103446 -0.00443377
v -0.00340325 -0.02906839 0.00072368
v 0.00008548 -0.02803060 -0.00224131
v -0.00055926 -0.02517782 -0.01724918
v -0.00280501 -0.02199850 -0.01971743
v -0.00161366 -0.02668398 0.00192953
v -0.00130837 -0.02644651 0.00653771
v -0.00188975 -0.02490474 0.01242623
v -0.00181958 -0.02214159 0.01578997
v -0.00078044 -0.01773314 -0.01943611
v -0.00461755 -0.01522090 0.01440378
v -0.00128475 -0.01812268 0.01642667
v -0.00247597 -0.01340031 -0.01744179
v -0.00137192 -0.01016420 -0.01415561
v -0.00127043 -0.01212828 0.01776002
v -0.00367870 -0.01022607 0.01958630
v -0.00083512 -0.00740465 -0.01017113
v -0.00461397 -0.00344025 -0.00891119
v -0.00098288 -0.00625507 -0.00587265
v -0.00322158 -0.00300360 -0.00327053
v 0.00088449 -0.00341834 -0.00142936
v -0.00151313 -0.00854296 0.01999199
v -0.00118691 -0.00491755 0.02221285
v -0.00463403 0.00259032 -0.01616331
v -0.00484817 0.00128350 -0.00540387
v -0.00174178 -0.00078972 0.00129835
v -0.00291550 0.00171587 0.00025754
v -0.00126195 0.00215092 0.00314321
v -0.00108001 0.00205443 0.02276450
v -0.00500674 0.00533873 -0.01357109
v -0.00195423 0.00771681 -0.01473723
v -0.00098745 0.00513435 -0.01121670
v -0.00187510 0.00465686 -0.00422360
v 0.00040424 0.00401456 0.00077116
v -0.00032316 0.00729521 0.02280516
v -0.00046490 0.01191213 -0.01679107
v -0.00266170 0.01484450 -0.01949951
v -0.00426760 0.01526203 0.01874841
v -0.00155541 0.01249201 0.02191983
v -0.00077842 0.01896605 -0.01935072
v -0.00443185 0.02161518 0.01281507
v -0.00147405 0.02085535 0.01029992
v -0.00039752 0.01771351 0.01417882
v 0.00007438 0.01601264 0.01984407
v -0.00287509 0.02310576 -0.01654433
v -0.00306390 0.02610542 -0.01210361
v 0.00054824 0.02565272 -0.01387454
v -0.00109896 0.02699502 -0.00847668
v -0.00108163 0.02285370 -0.00463816
v -0.00196062 0.02328992 0.00034334
v -0.00443867 0.02652937 0.00299155
v -0.00023240 0.02364046 0.00556870
v -0.00401637 0.02495398 0.00835023
v -0.00097010 0.02799534 -0.01108411
v 0.00157783 -0.02883760 -0.01083760
v 0.00184902 -0.02859375 -0.00692219
v 0.00689734 -0.03092360 0.00168419
v 0.00553944 -0.02861011 -0.00182586
v 0.00244616 -0.02832445 0.00196323
v 0.00210612 -0.02775235 0.00818101
v 0.00490888 -0.03078385 0.00609607
v 0.00622654 -0.02897537 0.00939425
v 0.00186919 -0.02102399 -0.01649825
v 0.00516097 -0.02261320 -0.01412599
v 0.00566997 -0.02596345 -0.01068035
v 0.00451117 -0.02675859 -0.00395809
v 0.00555864 -0.02386215 0.01143078
v 0.00188166 -0.02151075 0.01476084
v 0.00131482 -0.01533372 -0.01589249
v 0.00476172 -0.01932335 -0.01178616
v 0.00335739 -0.01624908 -0.01148886
v 0.00562385 -0.01520183 -0.00929335
v 0.00558326 -0.02054487 0.01408777
v 0.00476566 -0.01857567 0.01787661
v 0.00257844 -0.01464853 0.01973517
v 0.00548143 -0.01521411 0.02124962
v 0.00236825 -0.01109938 -0.01076711
v 0.00527570 -0.01070361 -0.00783626
v 0.00148022 -0.00988912 0.02004595
v 0.00452610 -0.00963387 0.02153409
v 0.00348012 -0.00705417 -0.00541028
v 0.00546052 -0.00267786 -0.00245725
v 0.00540425 -0.00260168 0.02199304
v 0.00063718 0.00119534 0.00185531
v 0.00392754 0.00156159 -0.00097168
v 0.00428228 0.00282772 0.02280347
v 0.00578064 0.00486907 -0.01099054
v 0.00526990 0.00738317 -0.01332037
v 0.00405356 0.00453477 -0.00533469
v 0.00501136 0.00811439 0.02289879
v 0.00185686 0.01589614 -0.01732185
v 0.00488730 0.01253307 -0.01461803
v 0.00449263 0.01364536 0.02185332
v 0.00123403 0.02076828 -0.01697354
v 0.00501761 0.01977000 -0.01476671
v 0.00238839 0.01977237 0.00147003
v 0.00412998 0.02061466 -0.00161365
v 0.00666863 0.01780743 0.00226150
v 0.00506756 0.01718424 0.00791115
v 0.00199275 0.02051331 0.00657220
v 0.00490423 0.01687397 0.01347544
v 0.00520794 0.01631465 0.01792203
v 0.00624621 0.02588748 -0.01359111
v 0.00176826 0.02623181 -0.00326417
v 0.00414488 0.02285638 0.00143570
v 0.00247916 0.02663559 0.00232205
v 0.00164838 0.02253279 0.00349167
v 0.00535784 0.02439558 0.00413101
v 0.00311151 0.02942369 -0.01058081
v 0.00231071 0.03137940 -0.00574180
v 0.00671195 0.03291771 -0.00779116
v 0.00265739 0.03217695 -0.00036292
v 0.00556703 0.03102499 0.00369890
v 0.00557975 0.03510580 -0.00292034
v 0.00607333 0.03499850 0.00173585
v 0.01143721 -0.03075481 0.00251450
v 0.00944982 -0.02868725 -0.00192882
v 0.00946805 -0.03109112 0.00681417
v 0.01055566 -0.02692506 0.00948683
v 0.01228265 -0.02464493 -0.01007301
v 0.00992457 -0.02268689 -0.01323637
v 0.01152851 -0.02620275 -0.00503576
v 0.01167833 -0.02226647 0.00994375
v 0.00735094 -0.01702317 -0.01136212
v 0.01056635 -0.01719603 -0.01310427
v 0.01036872 -0.01938506 0.01369186
v 0.00800978 -0.01650225 0.01894276
v 0.01184506 -0.01564593 0.01654397
v 0.00826676 -0.01085089 -0.01022602
v 0.01109398 -0.01026239 -0.01282928
v 0.00791036 -0.01175633 0.01976612
v 0.01170862 -0.01021597 0.01718092
v 0.00905869 -0.00398480 -0.01032633
v 0.01168745 -0.00344428 -0.01308776
v 0.00733114 -0.00502258 -0.00590270
v 0.00824760 -0.00576633 0.01946314
v 0.01240260 -0.00551305 0.01777745
v 0.00835779 0.00155642 -0.01036506
v 0.01022935 0.00314678 -0.01354452
v 0.00738147 0.00057195 -0.00522131
v 0.01021399 -0.00232525 0.01989564
v 0.01104358 0.00105334 0.02231834
v 0.01131647 0.00806489 -0.01412903
v 0.01097881 0.00835110 0.02245112
v 0.01114937 0.01423899 -0.01413015
v 0.00848380 0.01344128 0.02027192
v 0.01071833 0.01465906 0.01756208
v 0.01315503 0.01153294 0.01993185
v 0.01101931 0.02043095 -0.01433376
v 0.00696900 0.02038305 0.00124771
v 0.00982736 0.02037684 0.00422456
v 0.01156766 0.01762410 0.00795614
v 0.01050437 0.01641488 0.01346031
v 0.01208744 0.02503287 -0.01354265
v 0.01142887 0.02655109 0.00409410
v 0.00925809 0.02933411 -0.01143247
v 0.01132640 0.03192660 -0.00834450
v 0.00983605 0.03298801 0.00355922
v 0.01001463 0.03477078 -0.00493828
v 0.01043344 0.03505374 -0.00022343
v 0.01372683 -0.02764159 0.00137479
v 0.01318231 -0.02884726 0.00620433
v 0.01384927 -0.02087386 -0.01139997
v 0.01687858 -0.02284143 -0.00877593
v 0.01804501 -0.02536718 -0.00527241
v 0.01740971 -0.02538788 0.00126784
v 0.01475950 -0.02425203 0.00635205
v 0.01831688 -0.02294201 0.00544871
v 0.01409997 -0.01502631 -0.01120712
v 0.01801160 -0.01813602 -0.00887647
v 0.01685439 -0.02058454 0.00909118
v 0.01655534 -0.01859683 0.01336215
v 0.01744015 -0.01569696 0.01579262
v 0.01382373 -0.00875252 -0.01108371
v 0.01780160 -0.01179240 -0.00867374
v 0.01726640 -0.01069273 0.01688348
v 0.01476586 -0.00365074 -0.01153881
v 0.01724644 -0.00587819 -0.00934839
v 0.01756308 -0.00651001 0.01835901
v 0.01379563 -0.00340168 0.01995556
v 0.01712261 -0.00269069 0.02140246
v 0.01785480 -0.00242653 -0.01148838
v 0.01645654 0.00103281 -0.01377362
v 0.01683499 0.00311870 0.02237138
v 0.01745207 0.00785316 -0.01428420
v 0.01629499 0.00804157 0.02179656
v 0.01723045 0.01412937 -0.01437657
v 0.01563527 0.01427997 0.01631321
v 0.01752349 0.01116546 0.01898637
v 0.01740992 0.01957844 -0.01367009
v 0.01428383 0.02103906 0.00661342
v 0.01698295 0.01966925 0.00992771
v 0.01732390 0.01690038 0.01204238
v 0.01625239 0.02316701 -0.01167299
v 0.01398339 0.02732211 -0.00967258
v 0.01776840 0.02311908 -0.00587004
v 0.01514090 0.02699042 -0.00350978
v 0.01712758 0.02372946 0.00219115
v 0.01439106 0.02677959 0.00092353
v 0.01874935 0.02194115 0.00785705
v 0.01339616 0.03196321 -0.00465021
v 0.01333771 0.03083276 0.00071201
v 0.02374177 -0.02494937 -0.00394580
v 0.02176033 -0.02232061 -0.00720989
v 0.02291426 -0.02539716 0.00105594
v 0.02110015 -0.02214310 0.00821926
v 0.02220265 -0.02432514 0.00590177
v 0.02431252 -0.02190549 0.01019934
v 0.02273635 -0.01667351 -0.00737988
v 0.02197099 -0.01926808 0.01267967
v 0.02292327 -0.01474692 0.01576844
v 0.02353621 -0.00947971 -0.00781759
v 0.02202650 -0.00975910 0.01601084
v 0.02058097 -0.00507718 -0.01063580
v 0.02429174 -0.00620389 -0.01083733
v 0.02194777 -0.00300068 -0.01282896
v 0.02094482 -0.00448240 0.01543183
v 0.02320076 -0.00300876 0.01169489
v 0.02445291 -0.00739822 0.01264865
v 0.01935269 -0.00412245 0.01920064
v 0.02281495 0.00152247 -0.01363773
v 0.02081072 0.00251248 0.01334040
v 0.02335953 0.00137360 0.00937986
v 0.01978307 0.00015591 0.01913503
v 0.02279089 0.00777613 -0.01369101
v 0.02090035 0.00778646 0.00877741
v 0.02387679 0.00884995 0.00519991
v 0.02379891 0.00430109 0.00648820
v 0.02019399 0.00826196 0.01328310
v 0.01956008 0.00712658 0.01852803
v 0.02268988 0.01371161 -0.01339927
v 0.02114461 0.01425740 0.00811184
v 0.02370735 0.01364353 0.00502524
v 0.01941240 0.01248445 0.01377314
v 0.02335777 0.01715289 -0.01061906
v 0.01977478 0.02009879 -0.00963860
v 0.02414390 0.01829762 -0.00542020
v 0.02107571 0.02051060 -0.00462463
v 0.02439701 0.01988584 -0.00128921
v 0.02456093 0.01743766 0.00636208
v 0.02174060 0.01983128 0.00945111
v 0.02197225 0.02214960 0.00020583
v 0.02288302 0.02237283 0.00598673
v 0.02559484 -0.02122820 -0.00446320
v 0.02612060 -0.02237481 0.00116469
v 0.02578592 -0.02217647 0.00723477
v 0.02575057 -0.01521362 -0.00445378
v 0.02662410 -0.01670864 0.00109681
v 0.02677318 -0.01665552 0.00774144
v 0.02589069 -0.01767955 0.01254358
v 0.02640248 -0.01097819 -0.00460933
v 0.02719402 -0.01123908 -0.00031134
v 0.02711987 -0.01012364 0.00736608
v 0.02564252 -0.01216968 0.01319727
v 0.02629529 -0.00290521 -0.01136558
v 0.02825173 -0.00531391 -0.00827516
v 0.02900384 -0.00743062 -0.00383407
v 0.02973204 -0.00736045 0.00281975
v 0.02959097 -0.00675755 0.00722602
v 0.02758357 -0.00409523 0.00944607
v 0.02667237 0.00292231 -0.01135914
v 0.02976545 0.00000754 -0.00828610
v 0.02668167 0.00072072 0.00766711
v 0.02831176 0.00352802 0.00574413
v 0.03009382 -0.00102343 0.00669420
v 0.02658569 0.00933511 -0.01135190
v 0.02975087 0.00641731 -0.00825365
v 0.02770044 0.00788188 0.00692236
v 0.02931966 0.00582577 0.00781868
v 0.02951436 0.00785526 0.00879812
v 0.02658453 0.01414603 -0.01048810
v 0.02979143 0.01244154 -0.00778197
v 0.02762934 0.01393016 0.00433400
v 0.03000093 0.01062274 0.00691610
v 0.02830119 0.01624735 -0.00619621
v 0.02883922 0.01711057 -0.00053956
v 0.02609750 0.01986249 0.00331301
v 0.02519172 0.02062118 0.00716773
v 0.03182153 -0.00267376 -0.00436494
v 0.03207253 -0.00438118 0.00037531
v 0.03143493 -0.00409156 0.00572493
v 0.03224539 0.00327456 -0.00431662
v 0.03240521 0.00091664 0.00208289
v 0.03227362 0.00969085 -0.00419744
v 0.03302592 0.00720522 0.00042599
v 0.03146102 0.00728902 0.00592626
v 0.03168231 0.01444897 -0.00357177
v 0.03198348 0.01253743 0.00173788
f 3 2 1
f 5 4 1
f 5 1 2
f 6 4 5
f 3 1 7
f 3 7 8
f 9 1 4
f 7 1 9
f 4 6 10
f 4 10 9
f 11 8 7
f 11 7 9
f 11 9 12
f 12 9 10
f 15 14 13
f 2 3 13
f 14 2 13
f 16 2 14
f 2 17 5
f 16 17 2
f 6 5 17
f 6 17 18
f 15 13 19
f 15 19 20
f 8 19 3
f 3 19 13
f 22 10 21
f 10 18 21
f 10 6 18
f 24 23 22
f 24 22 21
f 25 23 24
f 28 27 26
f 26 27 20
f 19 26 20
f 29 26 19
f 11 30 8
f 30 19 8
f 30 29 19
f 12 31 11
f 11 31 30
f 32 31 12
f 32 12 10
f 33 32 10
f 22 33 10
f 33 22 23
f 33 23 34
f 34 23 25
f 28 26 35
f 28 35 36
f 29 38 37
f 35 29 37
f 26 29 35
f 40 39 38
f 29 40 38
f 30 40 29
f 41 30 31
f 40 30 41
f 31 32 42
f 31 42 41
f 36 35 43
f 36 43 44
f 35 37 45
f 35 45 43
f 39 40 46
f 39 46 47
f 41 49 48
f 46 41 48
f 40 41 46
f 49 41 42
f 50 44 43
f 50 43 45
f 47 46 51
f 47 51 52
f 46 48 53
f 54 46 53
f 51 46 54
f 55 54 53
f 56 52 51
f 56 51 54
f 56 54 57
f 57 54 55
f 60 59 58
f 62 61 58
f 62 58 59
f 63 61 62
f 66 65 64
f 64 65 60
f 58 64 60
f 67 64 58
f 68 58 61
f 67 58 68
f 61 63 69
f 61 69 68
f 66 64 14
f 15 66 14
f 70 66 15
f 14 64 16
f 16 64 67
f 16 67 17
f 17 67 68
f 72 71 18
f 72 18 17
f 69 72 17
f 68 69 17
f 74 73 71
f 74 71 72
f 75 73 74
f 78 77 76
f 77 70 76
f 70 20 76
f 70 15 20
f 71 21 18
f 21 71 24
f 24 71 73
f 25 24 73
f 75 25 73
f 79 25 75
f 78 76 27
f 28 78 27
f 80 78 28
f 27 76 20
f 81 32 33
f 81 33 82
f 33 83 82
f 33 34 83
f 34 25 79
f 34 79 83
f 36 80 28
f 36 84 80
f 85 37 38
f 39 85 38
f 87 86 81
f 86 32 81
f 86 42 32
f 87 81 82
f 44 84 36
f 44 88 84
f 89 45 85
f 85 45 37
f 47 89 39
f 39 89 85
f 90 48 49
f 91 90 49
f 42 91 49
f 86 91 42
f 92 88 44
f 92 44 50
f 92 50 45
f 93 92 45
f 89 93 45
f 92 93 94
f 52 93 47
f 47 93 89
f 90 53 48
f 55 53 90
f 91 55 90
f 95 55 91
f 96 94 93
f 96 93 52
f 56 96 52
f 97 96 56
f 98 56 57
f 98 97 56
f 57 55 95
f 57 95 98
f 101 100 99
f 103 102 99
f 103 99 100
f 105 104 102
f 105 102 103
f 106 104 105
f 101 99 107
f 101 107 108
f 60 107 59
f 107 102 59
f 107 99 102
f 59 102 62
f 62 102 104
f 63 62 104
f 106 63 104
f 109 63 106
f 108 107 65
f 66 108 65
f 110 108 66
f 65 107 60
f 109 69 63
f 111 69 109
f 70 110 66
f 70 112 110
f 111 113 69
f 69 113 72
f 72 114 74
f 113 114 72
f 116 115 75
f 74 116 75
f 114 116 74
f 117 115 116
f 119 118 77
f 119 77 78
f 70 77 112
f 112 77 118
f 120 79 115
f 115 79 75
f 115 117 121
f 115 121 120
f 80 119 78
f 80 122 119
f 123 82 83
f 79 120 83
f 120 123 83
f 120 124 123
f 120 121 125
f 120 125 124
f 84 122 80
f 84 126 122
f 127 86 87
f 82 123 87
f 123 127 87
f 123 128 127
f 129 123 124
f 128 123 129
f 124 125 130
f 124 130 129
f 88 126 84
f 88 131 126
f 132 91 127
f 127 91 86
f 133 127 128
f 132 127 133
f 129 135 134
f 133 129 134
f 128 129 133
f 135 129 130
f 136 131 88
f 136 88 92
f 92 94 136
f 136 94 137
f 138 95 132
f 132 95 91
f 139 132 133
f 138 132 139
f 133 134 140
f 133 140 139
f 141 137 94
f 141 94 96
f 142 96 97
f 142 141 96
f 143 97 98
f 143 142 97
f 98 95 138
f 144 98 138
f 143 98 144
f 144 138 139
f 144 139 145
f 145 139 140
f 147 146 100
f 147 100 101
f 100 148 103
f 146 148 100
f 103 149 105
f 148 149 103
f 106 105 149
f 106 149 150
f 153 152 151
f 152 147 151
f 147 108 151
f 147 101 108
f 155 109 154
f 109 150 154
f 109 106 150
f 157 156 155
f 157 155 154
f 158 156 157
f 153 151 159
f 153 159 160
f 110 159 108
f 108 159 151
f 161 111 155
f 155 111 109
f 156 163 162
f 161 156 162
f 155 156 161
f 163 156 158
f 164 160 159
f 159 110 164
f 110 165 164
f 110 112 165
f 161 113 111
f 162 166 161
f 166 113 161
f 166 114 113
f 114 167 116
f 166 167 114
f 117 116 167
f 117 167 168
f 119 169 118
f 169 170 118
f 170 112 118
f 170 165 112
f 168 121 117
f 171 121 168
f 173 172 169
f 119 173 169
f 122 173 119
f 172 174 169
f 174 175 169
f 176 170 169
f 176 169 175
f 175 177 176
f 171 125 121
f 178 125 171
f 126 180 179
f 173 126 179
f 122 126 173
f 182 181 180
f 181 175 180
f 174 179 180
f 174 180 175
f 175 181 177
f 178 130 125
f 183 130 178
f 185 184 180
f 126 185 180
f 131 185 126
f 180 184 182
f 187 186 135
f 135 186 134
f 135 130 183
f 135 183 187
f 131 136 188
f 189 131 188
f 185 131 189
f 137 188 136
f 186 140 134
f 190 140 186
f 191 189 188
f 191 188 137
f 141 191 137
f 192 191 141
f 193 141 142
f 193 192 141
f 195 193 194
f 193 143 194
f 193 142 143
f 144 196 143
f 143 196 194
f 196 144 197
f 144 198 197
f 144 145 198
f 145 140 190
f 145 190 198
f 199 195 194
f 199 194 196
f 199 196 200
f 200 196 197
f 202 201 146
f 202 146 147
f 146 203 148
f 201 203 146
f 203 205 204
f 149 203 204
f 148 203 149
f 204 150 149
f 207 206 152
f 207 152 153
f 147 152 202
f 202 152 206
f 205 208 204
f 204 208 150
f 208 154 150
f 208 209 154
f 154 210 157
f 209 210 154
f 158 157 210
f 158 210 211
f 160 207 153
f 160 212 207
f 213 162 163
f 214 213 163
f 158 214 163
f 211 214 158
f 215 212 160
f 215 160 164
f 164 165 215
f 215 165 216
f 213 166 162
f 167 166 213
f 217 167 213
f 214 217 213
f 218 167 217
f 218 168 167
f 170 220 219
f 216 170 219
f 165 170 216
f 222 221 220
f 220 221 219
f 222 223 221
f 217 224 218
f 168 218 224
f 225 168 224
f 171 168 225
f 173 226 172
f 176 220 170
f 174 172 226
f 220 176 177
f 227 220 177
f 222 220 227
f 223 222 228
f 222 229 228
f 222 227 229
f 229 230 228
f 225 178 171
f 231 178 225
f 179 226 173
f 233 232 182
f 233 179 232
f 179 233 226
f 234 226 233
f 226 234 174
f 232 174 234
f 234 181 232
f 232 181 182
f 179 174 232
f 177 181 227
f 181 235 227
f 181 234 235
f 227 235 229
f 229 235 236
f 229 236 230
f 231 183 178
f 237 183 231
f 239 238 184
f 239 184 185
f 182 184 233
f 233 184 238
f 240 186 187
f 241 240 187
f 183 241 187
f 237 241 183
f 189 239 185
f 189 242 239
f 245 244 243
f 246 245 240
f 245 190 240
f 190 186 240
f 245 243 190
f 246 240 241
f 247 242 189
f 247 189 191
f 249 247 248
f 247 192 248
f 247 191 192
f 248 192 250
f 192 251 250
f 192 193 251
f 253 252 195
f 252 193 195
f 252 251 193
f 255 254 253
f 253 254 252
f 254 255 244
f 244 255 243
f 255 197 243
f 197 198 243
f 243 198 190
f 256 249 248
f 256 248 250
f 199 253 195
f 253 199 200
f 253 200 255
f 255 200 197
f 202 257 201
f 258 203 201
f 258 201 257
f 205 203 258
f 261 260 259
f 263 262 261
f 263 261 259
f 264 262 263
f 207 265 206
f 265 266 206
f 206 266 202
f 266 267 202
f 267 257 202
f 257 267 258
f 258 267 268
f 260 261 268
f 261 208 268
f 205 258 268
f 205 268 208
f 208 261 209
f 209 261 262
f 210 209 262
f 269 210 262
f 264 269 262
f 270 210 269
f 270 211 210
f 212 271 265
f 212 265 207
f 266 265 272
f 265 273 272
f 265 271 273
f 273 274 272
f 269 275 270
f 214 211 270
f 276 214 270
f 275 276 270
f 214 276 277
f 278 277 276
f 215 271 212
f 271 215 216
f 279 271 216
f 273 271 279
f 274 273 280
f 280 273 279
f 281 217 277
f 277 217 214
f 277 278 282
f 277 282 281
f 219 279 216
f 283 280 279
f 219 283 279
f 221 283 219
f 221 223 283
f 283 223 284
f 281 224 217
f 225 224 281
f 282 225 281
f 285 225 282
f 223 228 286
f 287 223 286
f 284 223 287
f 230 286 228
f 285 231 225
f 288 231 285
f 290 289 234
f 290 234 233
f 234 291 235
f 289 291 234
f 286 236 287
f 236 291 287
f 236 235 291
f 236 286 230
f 288 237 231
f 292 237 288
f 239 293 238
f 293 294 238
f 294 233 238
f 294 290 233
f 292 241 237
f 295 241 292
f 242 296 293
f 242 293 239
f 294 293 297
f 297 293 296
f 300 299 298
f 302 301 298
f 298 301 300
f 244 245 302
f 245 301 302
f 245 303 301
f 304 245 246
f 304 303 245
f 246 241 295
f 246 295 304
f 247 296 242
f 247 249 296
f 249 297 296
f 249 305 297
f 306 250 251
f 252 298 251
f 299 251 298
f 251 299 306
f 307 306 299
f 306 307 308
f 254 309 252
f 254 308 309
f 308 254 310
f 302 310 254
f 310 302 307
f 309 307 302
f 302 298 309
f 309 298 252
f 308 307 309
f 302 254 244
f 311 305 249
f 311 249 256
f 311 256 250
f 312 311 250
f 306 312 250
f 311 312 313
f 314 306 308
f 312 306 314
f 308 310 315
f 308 315 314
f 316 313 312
f 316 312 314
f 316 314 317
f 317 314 315
f 319 318 259
f 319 259 260
f 259 320 263
f 318 320 259
f 264 263 320
f 264 320 321
f 323 322 267
f 323 267 266
f 267 324 268
f 322 324 267
f 260 268 319
f 319 268 324
f 321 269 264
f 325 269 321
f 266 272 326
f 327 266 326
f 323 266 327
f 274 326 272
f 325 328 269
f 269 328 275
f 328 330 329
f 276 328 329
f 275 328 276
f 329 278 276
f 327 326 331
f 327 331 332
f 280 331 274
f 274 331 326
f 329 330 333
f 333 330 334
f 333 282 278
f 333 278 329
f 332 331 335
f 332 335 336
f 283 337 280
f 337 331 280
f 337 335 331
f 284 337 283
f 333 334 338
f 338 334 339
f 338 285 282
f 338 282 333
f 336 335 340
f 336 340 341
f 342 335 337
f 340 335 342
f 287 342 284
f 284 342 337
f 339 343 338
f 285 338 343
f 344 285 343
f 288 285 344
f 341 340 289
f 290 341 289
f 345 341 290
f 289 340 291
f 291 340 342
f 291 342 287
f 344 292 288
f 346 292 344
f 294 345 290
f 294 347 345
f 350 349 348
f 346 350 348
f 295 346 348
f 292 346 295
f 297 347 294
f 297 351 347
f 352 299 300
f 352 300 353
f 300 354 353
f 300 301 354
f 355 301 303
f 355 354 301
f 304 348 349
f 355 304 349
f 303 304 355
f 348 304 295
f 305 351 297
f 305 356 351
f 352 307 299
f 310 307 352
f 353 310 352
f 357 310 353
f 358 356 305
f 358 305 311
f 311 313 358
f 358 313 359
f 357 315 310
f 360 315 357
f 361 359 313
f 361 313 316
f 362 316 317
f 362 361 316
f 317 315 360
f 317 360 362
f 319 363 318
f 364 320 318
f 364 318 363
f 364 321 320
f 323 365 322
f 322 365 366
f 367 322 366
f 324 322 367
f 319 324 363
f 324 368 363
f 324 367 368
f 370 369 368
f 369 363 368
f 369 364 363
f 369 325 321
f 369 321 364
f 327 371 365
f 327 365 323
f 366 365 372
f 372 365 371
f 370 373 369
f 369 373 325
f 373 328 325
f 373 374 328
f 330 328 374
f 330 374 375
f 332 376 371
f 332 371 327
f 372 371 377
f 377 371 376
f 375 334 330
f 378 334 375
f 336 379 376
f 336 376 332
f 377 376 380
f 380 376 379
f 382 339 381
f 339 378 381
f 339 334 378
f 383 382 381
f 385 384 379
f 336 385 379
f 341 385 336
f 379 384 380
f 382 343 339
f 344 343 382
f 383 344 382
f 386 344 383
f 345 385 341
f 345 387 385
f 386 346 344
f 388 346 386
f 347 387 345
f 347 389 387
f 391 390 350
f 350 390 349
f 350 346 388
f 350 388 391
f 351 389 347
f 351 392 389
f 393 353 354
f 393 354 394
f 354 395 394
f 354 355 395
f 355 349 390
f 355 390 395
f 356 397 396
f 392 356 396
f 351 356 392
f 399 398 397
f 397 398 396
f 401 400 399
f 399 400 398
f 402 400 393
f 400 357 393
f 357 353 393
f 400 401 357
f 402 393 394
f 358 397 356
f 397 358 359
f 403 397 359
f 399 397 403
f 399 404 401
f 399 403 404
f 404 360 357
f 404 357 401
f 361 403 359
f 403 361 362
f 403 362 404
f 404 362 360
f 406 405 367
f 406 367 366
f 367 407 368
f 405 407 367
f 409 408 370
f 368 409 370
f 407 409 368
f 410 408 409
f 372 406 366
f 372 411 406
f 408 373 370
f 410 412 408
f 412 373 408
f 412 374 373
f 375 374 412
f 375 412 413
f 377 411 372
f 377 414 411
f 413 378 375
f 415 378 413
f 418 417 416
f 417 414 416
f 414 380 416
f 414 377 380
f 421 420 419
f 419 422 381
f 415 419 381
f 378 415 381
f 419 415 421
f 422 383 381
f 418 416 384
f 385 418 384
f 423 418 385
f 384 416 380
f 419 420 424
f 424 420 425
f 419 426 422
f 419 424 426
f 426 386 383
f 426 383 422
f 387 423 385
f 387 427 423
f 430 429 428
f 430 428 425
f 428 424 425
f 428 431 424
f 424 432 426
f 424 431 432
f 432 388 386
f 432 386 426
f 389 427 387
f 389 433 427
f 428 429 434
f 434 429 435
f 428 436 431
f 428 434 436
f 436 390 391
f 432 436 391
f 431 436 432
f 432 391 388
f 392 438 437
f 433 392 437
f 389 392 433
f 440 439 438
f 438 439 437
f 440 441 439
f 435 442 434
f 443 394 395
f 434 443 395
f 436 434 395
f 442 443 434
f 436 395 390
f 396 438 392
f 438 396 398
f 438 398 440
f 444 441 440
f 398 444 440
f 400 444 398
f 445 400 402
f 445 444 400
f 402 394 443
f 402 443 445
f 406 446 405
f 447 407 405
f 447 405 446
f 448 409 407
f 448 407 447
f 448 410 409
f 411 449 446
f 411 446 406
f 446 450 447
f 446 449 450
f 447 451 448
f 447 450 451
f 452 412 410
f 448 452 410
f 451 452 448
f 452 413 412
f 414 453 449
f 414 449 411
f 449 454 450
f 449 453 454
f 450 455 451
f 450 454 455
f 451 456 452
f 451 455 456
f 456 415 413
f 456 413 452
f 418 457 417
f 457 458 417
f 417 458 414
f 458 459 414
f 459 453 414
f 453 459 454
f 454 459 460
f 454 460 455
f 455 460 461
f 462 420 421
f 455 462 421
f 456 455 421
f 461 462 455
f 456 421 415
f 423 463 457
f 423 457 418
f 458 457 464
f 464 457 463
f 467 466 465
f 462 467 465
f 425 462 465
f 420 462 425
f 427 468 463
f 427 463 423
f 464 463 469
f 469 463 468
f 471 470 466
f 470 429 466
f 430 465 466
f 430 466 429
f 430 425 465
f 470 471 472
f 433 473 468
f 433 468 427
f 469 468 474
f 474 468 473
f 476 475 470
f 475 429 470
f 475 435 429
f 476 470 472
f 437 473 433
f 477 474 473
f 437 477 473
f 439 477 437
f 479 478 441
f 478 439 441
f 478 477 439
f 479 480 442
f 475 479 442
f 435 475 442
f 479 475 478
f 480 443 442
f 444 479 441
f 479 444 445
f 479 445 480
f 480 445 443
f 458 481 459
f 482 460 459
f 482 459 481
f 483 461 460
f 483 460 482
f 483 462 461
f 464 484 481
f 464 481 458
f 481 485 482
f 481 484 485
f 485 466 467
f 483 485 467
f 482 485 483
f 483 467 462
f 469 486 484
f 469 484 464
f 484 487 485
f 484 486 487
f 488 471 466
f 485 488 466
f 487 488 485
f 488 472 471
f 474 489 486
f 474 486 469
f 486 490 487
f 486 489 490
f 490 475 476
f 488 490 476
f 487 490 488
f 488 476 472
f 477 489 474
f 489 477 478
f 489 478 490
f 490 478 475

