# https://github.com/mikedh/trimesh
v -0.02072081 -0.00033293 -0.04878051
v -0.01838693 -0.00307025 -0.05022448
v -0.01734164 0.00057158 -0.05226314
v -0.02090092 0.00008143 -0.04356168
v -0.01927480 -0.00297140 -0.04507605
v -0.02070071 0.00005692 -0.03711042
v -0.01907342 -0.00290902 -0.03848946
v -0.02068685 0.00002209 -0.03082915
v -0.01897139 -0.00293939 -0.03208859
v -0.02069414 0.00002215 -0.02461424
v -0.01897594 -0.00294528 -0.02586967
v -0.02069428 0.00002298 -0.01839311
v -0.01897852 -0.00294423 -0.01965282
v -0.02069418 0.00002296 -0.01217074
v -0.01897831 -0.00294409 -0.01343051
v -0.02069419 0.00002295 -0.00594851
v -0.01897830 -0.00294409 -0.00720822
v -0.02069418 0.00002295 0.00027371
v -0.01897830 -0.00294409 -0.00098601
v -0.02069429 0.00002292 0.00649608
v -0.01897831 -0.00294412 0.00523626
v -0.02069409 0.00002380 0.01271716
v -0.01897845 -0.00294399 0.01145852
v -0.02068673 0.00002355 0.01893205
v -0.01897652 -0.00294221 0.01767681
v -0.02070156 -0.00001715 0.02522055
v -0.01897080 -0.00295543 0.02390643
v -0.02090280 -0.00002470 0.03167281
v -0.01907475 -0.00300803 0.03026607
v -0.02071432 0.00051778 0.03671642
v -0.01927888 -0.00261805 0.03622427
v -0.01735600 -0.00053733 0.03978674
v -0.01926924 0.00277576 -0.04826410
v -0.01907304 0.00305671 -0.04217104
v -0.01896977 0.00299969 -0.03581775
v -0.01897645 0.00298818 -0.02958944
v -0.01897850 0.00298988 -0.02337090
v -0.01897831 0.00299002 -0.01714866
v -0.01897830 0.00298999 -0.01092640
v -0.01897830 0.00298999 -0.00470418
v -0.01897833 0.00298997 0.00151810
v -0.01897846 0.00299008 0.00774049
v -0.01897555 0.00299147 0.01395737
v -0.01897218 0.00298415 0.02017762
v -0.01907699 0.00295168 0.02658734
v -0.01925876 0.00307966 0.03310445
v -0.01834628 0.00324151 0.03797689
v -0.01493120 -0.01203267 -0.04835124
v -0.01113474 -0.01491164 -0.04960107
v -0.01293184 -0.01146246 -0.05224098
v -0.01513918 -0.01196724 -0.04220232
v -0.01219024 -0.01519192 -0.04373860
v -0.01500096 -0.01189092 -0.03583513
v -0.01201430 -0.01514207 -0.03729777
v -0.01500520 -0.01187571 -0.02959225
v -0.01187247 -0.01503371 -0.03102923
v -0.01501403 -0.01187834 -0.02337135
v -0.01189801 -0.01498874 -0.02481036
v -0.01501349 -0.01188024 -0.01714889
v -0.01190408 -0.01498776 -0.01859050
v -0.01501332 -0.01188030 -0.01092659
v -0.01190378 -0.01498984 -0.01236715
v -0.01501333 -0.01188025 -0.00470439
v -0.01190373 -0.01498989 -0.00614482
v -0.01501331 -0.01188030 0.00151786
v -0.01190372 -0.01498987 0.00007738
v -0.01501352 -0.01188032 0.00774033
v -0.01190370 -0.01498999 0.00629983
v -0.01501459 -0.01187622 0.01395835
v -0.01190505 -0.01498851 0.01252159
v -0.01500146 -0.01187854 0.02017663
v -0.01190075 -0.01498375 0.01873209
v -0.01499351 -0.01198643 0.02656853
v -0.01184524 -0.01505094 0.02498527
v -0.01518822 -0.01204399 0.03307030
v -0.01194887 -0.01521385 0.03144254
v -0.01476057 -0.01139702 0.03793657
v -0.01283835 -0.01464324 0.03659876
v -0.01159290 -0.01276265 0.03970858
v -0.01609219 -0.00708567 -0.04946526
v -0.01285749 -0.00645610 -0.05250226
v -0.01667428 -0.00700971 -0.04355694
v -0.01652767 -0.00695497 -0.03709366
v -0.01648714 -0.00695558 -0.03082816
v -0.01649370 -0.00695874 -0.02461400
v -0.01649393 -0.00695960 -0.01839306
v -0.01649369 -0.00695960 -0.01217073
v -0.01649371 -0.00695956 -0.00594851
v -0.01649371 -0.00695956 0.00027372
v -0.01649372 -0.00695965 0.00649607
v -0.01649384 -0.00695880 0.01271739
v -0.01649042 -0.00695569 0.01893188
v -0.01650089 -0.00699225 0.02520425
v -0.01668712 -0.00705092 0.03164276
v -0.01649111 -0.00665619 0.03724099
v -0.01265245 -0.00717508 0.04081989
v -0.01279498 -0.00114045 -0.05265837
v -0.01282202 -0.00087664 0.04160040
v -0.01648536 0.00679689 -0.04953890
v -0.01288740 0.00629404 -0.05242604
v -0.01670499 0.00712452 -0.04372898
v -0.01650295 0.00703685 -0.03729134
v -0.01648829 0.00700273 -0.03102671
v -0.01649370 0.00700477 -0.02481088
v -0.01649377 0.00700552 -0.01858948
v -0.01649371 0.00700547 -0.01236714
v -0.01649371 0.00700546 -0.00614492
v -0.01649371 0.00700546 0.00007730
v -0.01649381 0.00700547 0.00629974
v -0.01649287 0.00700567 0.01252089
v -0.01648916 0.00700361 0.01873272
v -0.01653492 0.00699905 0.02500165
v -0.01665108 0.00708564 0.03146171
v -0.01598074 0.00721752 0.03719823
v -0.01303109 0.00564503 0.04093233
v -0.01473505 0.01144804 -0.05029246
v -0.01152610 0.01279413 -0.05211678
v -0.01523595 0.01206528 -0.04522542
v -0.01505352 0.01199499 -0.03871233
v -0.01500590 0.01192427 -0.03237599
v -0.01501247 0.01192409 -0.02615904
v -0.01501346 0.01192621 -0.01993976
v -0.01501334 0.01192618 -0.01371739
v -0.01501333 0.01192616 -0.00749514
v -0.01501333 0.01192616 -0.00127293
v -0.01501339 0.01192618 0.00494938
v -0.01501317 0.01192630 0.01117155
v -0.01500964 0.01192422 0.01738763
v -0.01502514 0.01191887 0.02361949
v -0.01511170 0.01198639 0.03001592
v -0.01474711 0.01216007 0.03610508
v -0.01269823 0.01161849 0.03976251
v -0.01206144 0.01484960 -0.04815842
v -0.01196303 0.01513556 -0.04192037
v -0.01189856 0.01504467 -0.03552910
v -0.01190177 0.01503208 -0.02930211
v -0.01190385 0.01503563 -0.02308589
v -0.01190375 0.01503582 -0.01686366
v -0.01190373 0.01503576 -0.01064136
v -0.01190373 0.01503576 -0.00441914
v -0.01190375 0.01503576 0.00180311
v -0.01190377 0.01503589 0.00802546
v -0.01190158 0.01503494 0.01424457
v -0.01190338 0.01502779 0.02046334
v -0.01197460 0.01507347 0.02680839
v -0.01198352 0.01528228 0.03324917
v -0.01134530 0.01484764 0.03807073
v -0.00617504 -0.01661480 -0.05017214
v -0.00651887 -0.01283818 -0.05249008
v -0.00583613 -0.01563207 -0.04401719
v -0.00789719 -0.01633171 -0.03809840
v -0.00706365 -0.01659845 -0.03232388
v -0.00697577 -0.01652404 -0.02611140
v -0.00698128 -0.01646951 -0.01992825
v -0.00698295 -0.01646896 -0.01370987
v -0.00698305 -0.01647027 -0.00748654
v -0.00698303 -0.01647024 -0.00126428
v -0.00698297 -0.01647030 0.00495802
v -0.00698339 -0.01647010 0.01118042
v -0.00698566 -0.01646553 0.01739568
v -0.00695925 -0.01648756 0.02361121
v -0.00694987 -0.01664629 0.03001071
v -0.00768931 -0.01602868 0.03667452
v -0.00570553 -0.01302249 0.04087202
v -0.00685675 -0.00904146 -0.05033618
v -0.00962821 -0.00522111 -0.04890569
v -0.00508424 -0.00942201 -0.04451642
v -0.00905052 -0.00577821 -0.04214529
v -0.00590938 -0.00896709 -0.03743287
v -0.00922332 -0.00584898 -0.03590797
v -0.00595410 -0.00912775 -0.03122796
v -0.00920591 -0.00589041 -0.02976599
v -0.00591218 -0.00918014 -0.02507760
v -0.00919942 -0.00589099 -0.02355120
v -0.00591161 -0.00917830 -0.01885823
v -0.00920067 -0.00588898 -0.01732607
v -0.00591251 -0.00917718 -0.01263440
v -0.00920073 -0.00588897 -0.01110372
v -0.00591235 -0.00917715 -0.00641205
v -0.00920059 -0.00588900 -0.00488138
v -0.00591255 -0.00917731 -0.00018975
v -0.00920092 -0.00588886 0.00134101
v -0.00591836 -0.00917675 0.00602688
v -0.00920449 -0.00588595 0.00755542
v -0.00590710 -0.00917666 0.01223948
v -0.00919544 -0.00589125 0.01377195
v -0.00576711 -0.00925649 0.01857424
v -0.00918150 -0.00596572 0.02019296
v -0.00581841 -0.00938965 0.02512835
v -0.00931634 -0.00594855 0.02676196
v -0.00679530 -0.00878830 0.03030386
v -0.00875225 -0.00536031 0.03170966
v -0.00529003 -0.00689599 0.03355017
v -0.00616502 -0.00918718 0.04422119
v -0.00971465 -0.00516885 0.04473936
v -0.00902640 -0.00600036 0.05125164
v -0.00560712 -0.00911195 0.04962980
v -0.00928955 -0.00600758 0.05793921
v -0.00574167 -0.00941917 0.05624828
v -0.00873510 -0.00534421 0.06313591
v -0.00675757 -0.00883837 0.06158909
v -0.00532889 -0.00686322 0.06511717
v -0.01043944 0.00126312 -0.04939422
v -0.00977087 -0.00011849 -0.04355755
v -0.00991941 -0.00003072 -0.03721692
v -0.00996919 0.00002222 -0.03101906
v -0.00996425 0.00002198 -0.02480399
v -0.00996441 0.00002289 -0.01857891
v -0.00996456 0.00002299 -0.01235643
v -0.00996455 0.00002295 -0.00613428
v -0.00996446 0.00002296 0.00008822
v -0.00996376 0.00002309 0.00630944
v -0.00996557 0.00002243 0.01252040
v -0.01001036 0.00001795 0.01878630
v -0.01010796 0.00005765 0.02524266
v -0.00944667 0.00012883 0.03098217
v -0.00529946 -0.00091285 0.03476034
v -0.01035823 0.00147440 0.04436089
v -0.00980352 -0.00010936 0.04977766
v -0.01004963 -0.00004119 0.05635944
v -0.00946768 0.00013973 0.06236175
v -0.00530081 -0.00019876 0.06543858
v -0.00929133 0.00668780 -0.05018912
v -0.00903732 0.00552166 -0.04510640
v -0.00915588 0.00574977 -0.03865001
v -0.00920260 0.00593277 -0.03237110
v -0.00920173 0.00593841 -0.02615394
v -0.00920064 0.00593489 -0.01993093
v -0.00920072 0.00593489 -0.01370845
v -0.00920071 0.00593489 -0.00748630
v -0.00920075 0.00593494 -0.00126399
v -0.00920041 0.00593489 0.00495818
v -0.00919833 0.00593171 0.01117438
v -0.00921612 0.00593109 0.01740619
v -0.00929375 0.00601567 0.02380029
v -0.00896522 0.00620104 0.02988612
v -0.00688018 0.00552493 0.03356542
v -0.00910652 0.00687119 0.04371554
v -0.00897656 0.00559784 0.04833727
v -0.00925503 0.00582602 0.05482666
v -0.00900790 0.00616480 0.06114238
v -0.00685017 0.00556659 0.06513327
v -0.00537580 0.00953002 -0.04875875
v -0.00653913 0.01276751 -0.05242450
v -0.00594646 0.00896457 -0.04188056
v -0.00593055 0.00920014 -0.03552402
v -0.00591282 0.00923151 -0.02931367
v -0.00591231 0.00922361 -0.02309497
v -0.00591248 0.00922303 -0.01687243
v -0.00591247 0.00922314 -0.01065021
v -0.00591247 0.00922316 -0.00442796
v -0.00591247 0.00922322 0.00179437
v -0.00591159 0.00922104 0.00801353
v -0.00591400 0.00921878 0.01423290
v -0.00594992 0.00929313 0.02057639
v -0.00590284 0.00948625 0.02702005
v -0.00532778 0.00896680 0.03186692
v -0.00719316 0.01262279 0.04093215
v -0.00518023 0.00960044 0.04497437
v -0.00596595 0.00904475 0.05156565
v -0.00596279 0.00945833 0.05820131
v -0.00531456 0.00895601 0.06329789
v -0.00712382 0.01608067 -0.04937068
v -0.00703778 0.01668540 -0.04339742
v -0.00697951 0.01655397 -0.03690848
v -0.00698149 0.01651137 -0.03064681
v -0.00698318 0.01651537 -0.02443530
v -0.00698305 0.01651624 -0.01821402
v -0.00698303 0.01651614 -0.01199159
v -0.00698303 0.01651614 -0.00576936
v -0.00698304 0.01651613 0.00045286
v -0.00698309 0.01651620 0.00667519
v -0.00698227 0.01651614 0.01289652
v -0.00698072 0.01651064 0.01911264
v -0.00701812 0.01652464 0.02538364
v -0.00706829 0.01673539 0.03179113
v -0.00666741 0.01654601 0.03733823
v -0.00257469 -0.01832029 -0.04879591
v -0.00005872 -0.02043791 -0.04997620
v -0.00075640 -0.01747002 -0.05210886
v -0.00003764 -0.01896549 -0.04840027
v -0.00290457 -0.01825460 -0.03653486
v 0.00031706 -0.02051158 -0.03593586
v -0.00004098 -0.01854241 -0.03869485
v -0.00302320 -0.01904460 -0.02928811
v -0.00007225 -0.02081758 -0.03091130
v -0.00297340 -0.01897780 -0.02305433
v -0.00002921 -0.02072672 -0.02460050
v -0.00296671 -0.01895249 -0.01686151
v -0.00000004 -0.02066898 -0.01838876
v -0.00296748 -0.01895450 -0.01064001
v 0.00000006 -0.02066941 -0.01217152
v -0.00296758 -0.01895487 -0.00441732
v -0.00000054 -0.02067076 -0.00594856
v -0.00296754 -0.01895484 0.00180492
v -0.00000052 -0.02067072 0.00027372
v -0.00296748 -0.01895499 0.00802734
v -0.00000036 -0.02067078 0.00649613
v -0.00296994 -0.01895285 0.01424642
v -0.00000147 -0.02067064 0.01271715
v -0.00296607 -0.01894702 0.02046335
v -0.00000581 -0.02066382 0.01893119
v -0.00290024 -0.01904222 0.02680775
v 0.00003814 -0.02067851 0.02521665
v -0.00299071 -0.01924571 0.03326252
v 0.00009499 -0.02087707 0.03166477
v -0.00318953 -0.01834192 0.03806230
v -0.00040195 -0.02068566 0.03671644
v 0.00053856 -0.01731070 0.03977599
v 0.00099980 -0.01276837 -0.05270992
v -0.00057968 -0.01411302 -0.04615704
v -0.00289136 -0.01201337 -0.04252401
v 0.00048106 -0.01398633 -0.04088568
v 0.00075978 -0.01279214 0.04157749
v -0.00016758 -0.01045352 -0.04878275
v 0.00027241 -0.01006196 -0.03802448
v -0.00008846 -0.00981645 -0.03096964
v -0.00001461 -0.00992843 -0.02477395
v 0.00000189 -0.00994359 -0.01858009
v -0.00000037 -0.00994124 -0.01235690
v -0.00000047 -0.00994090 -0.00613412
v -0.00000046 -0.00994129 0.00008806
v -0.00000534 -0.00994444 0.00630467
v -0.00000362 -0.00993928 0.01252187
v 0.00012853 -0.00996160 0.01885094
v 0.00017866 -0.01010318 0.02534621
v -0.00152072 -0.00944782 0.03100399
v 0.00108902 -0.00525095 0.03485066
v -0.00008866 -0.01031834 0.04428721
v 0.00018979 -0.00973120 0.04978933
v 0.00025842 -0.01007481 0.05644861
v -0.00153405 -0.00947241 0.06237587
v 0.00037197 -0.00525235 0.06552623
v -0.00031595 -0.00219918 0.03822483
v -0.00222819 0.00038294 0.03820608
v 0.00003554 -0.00179832 0.04356781
v -0.00182145 -0.00001760 0.04356663
v 0.00000283 -0.00187976 0.05002071
v -0.00190272 0.00001515 0.05001993
v -0.00004182 -0.00186034 0.05661411
v -0.00188346 0.00005993 0.05661523
v 0.00035994 -0.00219299 0.06251241
v -0.00222205 -0.00029282 0.06249519
v 0.00035415 0.00229516 0.03822304
v -0.00093855 0.00548306 0.03480698
v -0.00004067 0.00183943 0.04356727
v -0.00000781 0.00192070 0.05001998
v 0.00003676 0.00190153 0.05661446
v -0.00032189 0.00228891 0.06247618
v -0.00022480 0.00548417 0.06548620
v 0.00122309 0.01041384 -0.04929571
v -0.00118696 0.01279674 -0.05264285
v -0.00018112 0.00974533 -0.04332094
v -0.00007399 0.00992652 -0.03688091
v 0.00000244 0.00999512 -0.03065785
v 0.00000092 0.00998863 -0.02444682
v -0.00000060 0.00998685 -0.01822468
v -0.00000056 0.00998696 -0.01200226
v -0.00000053 0.00998697 -0.00578001
v -0.00000052 0.00998705 0.00044231
v -0.00000043 0.00998615 0.00666363
v -0.00000108 0.00998266 0.01288089
v -0.00000526 0.01002699 0.01915019
v 0.00003424 0.01016468 0.02554913
v 0.00010508 0.00955849 0.03115873
v -0.00090697 0.01279288 0.04168101
v 0.00145048 0.01032108 0.04450398
v -0.00013463 0.00978102 0.05008296
v -0.00006536 0.01011001 0.05667738
v 0.00011561 0.00958414 0.06254711
v -0.00309346 0.01841270 -0.05022820
v 0.00054778 0.01736570 -0.05227104
v -0.00299404 0.01930233 -0.04507776
v -0.00293315 0.01909754 -0.03848951
v -0.00296338 0.01899404 -0.03209030
v -0.00296890 0.01899804 -0.02587192
v -0.00296764 0.01900089 -0.01965478
v -0.00296755 0.01900075 -0.01343238
v -0.00296757 0.01900073 -0.00721011
v -0.00296757 0.01900073 -0.00098789
v -0.00296759 0.01900074 0.00523438
v -0.00296743 0.01900093 0.01145660
v -0.00296566 0.01899888 0.01767494
v -0.00297956 0.01899191 0.02390582
v -0.00303333 0.01909576 0.03026659
v -0.00264379 0.01930185 0.03622212
v -0.00056404 0.01736533 0.03979391
v -0.00035447 0.02075091 -0.04879318
v 0.00005796 0.02092544 -0.04357543
v 0.00003345 0.02072351 -0.03712705
v -0.00000129 0.02070919 -0.03084655
v -0.00000128 0.02071652 -0.02463155
v -0.00000049 0.02071672 -0.01841036
v -0.00000052 0.02071661 -0.01218800
v -0.00000052 0.02071661 -0.00596577
v -0.00000053 0.02071661 0.00025645
v -0.00000056 0.02071672 0.00647882
v 0.00000033 0.02071656 0.01269984
v 0.00000008 0.02070918 0.01891467
v -0.00004066 0.02072341 0.02520403
v -0.00004815 0.02092378 0.03165875
v 0.00049461 0.02073425 0.03670362
v 0.00283068 -0.01779870 -0.04946144
v 0.00269716 -0.01796756 -0.03808113
v 0.00301356 -0.01912087 -0.03255053
v 0.00294805 -0.01903307 -0.02623018
v 0.00296424 -0.01895292 -0.01993850
v 0.00296754 -0.01895219 -0.01371699
v 0.00296655 -0.01895485 -0.00749517
v 0.00296650 -0.01895486 -0.00127284
v 0.00296665 -0.01895480 0.00494950
v 0.00296632 -0.01895506 0.01117154
v 0.00296011 -0.01895371 0.01738557
v 0.00298030 -0.01894914 0.02361951
v 0.00311075 -0.01905544 0.03005177
v 0.00273901 -0.01924334 0.03611810
v 0.00834428 -0.01589230 -0.04952453
v 0.00641738 -0.01296677 -0.05251291
v 0.00567055 -0.01561973 -0.04316958
v 0.00284310 -0.01193480 -0.04447890
v 0.00711289 -0.01661307 -0.03584427
v 0.00703774 -0.01657066 -0.02955018
v 0.00698040 -0.01646958 -0.02327550
v 0.00698204 -0.01646639 -0.01704932
v 0.00698207 -0.01647022 -0.01082913
v 0.00698196 -0.01647030 -0.00460693
v 0.00698206 -0.01647019 0.00161536
v 0.00698206 -0.01647044 0.00783771
v 0.00697695 -0.01647190 0.01405515
v 0.00697978 -0.01646385 0.02027401
v 0.00711956 -0.01647172 0.02665193
v 0.00715519 -0.01663750 0.03317845
v 0.00586904 -0.01650516 0.03802196
v 0.00714874 -0.01258177 0.04088092
v 0.00579864 -0.00945816 -0.04955003
v 0.00519462 -0.00936481 -0.04279902
v 0.00665163 -0.00877464 -0.03629362
v 0.00584844 -0.00906875 -0.03087170
v 0.00586863 -0.00915591 -0.02460169
v 0.00591304 -0.00917996 -0.01839851
v 0.00591228 -0.00917793 -0.01217875
v 0.00591142 -0.00917707 -0.00595555
v 0.00591150 -0.00917746 0.00026668
v 0.00590796 -0.00918299 0.00648377
v 0.00590568 -0.00917210 0.01270267
v 0.00600240 -0.00909414 0.01905082
v 0.00614440 -0.00916928 0.02553960
v 0.00498170 -0.00889354 0.03120262
v 0.00706092 -0.00520793 0.03374453
v 0.00556087 -0.00968049 0.04428769
v 0.00589413 -0.00886503 0.04985753
v 0.00617961 -0.00908943 0.05657746
v 0.00497025 -0.00888117 0.06257675
v 0.00702513 -0.00524985 0.06531247
v 0.00226639 -0.00028696 0.03824180
v 0.00543068 0.00111512 0.03489347
v 0.00181632 0.00005872 0.04356845
v 0.00189774 0.00002579 0.05002076
v 0.00187840 -0.00001874 0.05661334
v 0.00226010 0.00038874 0.06249340
v 0.00543240 0.00039809 0.06557123
v 0.00543849 0.00704284 0.03373039
v 0.00548299 0.00700902 0.06529719
v 0.00666766 0.00920163 -0.05005800
v 0.00628650 0.01282959 -0.05239789
v 0.00548071 0.00897390 -0.04485507
v 0.00570735 0.00914541 -0.03825983
v 0.00591242 0.00922593 -0.03190311
v 0.00591893 0.00922440 -0.02569155
v 0.00591221 0.00922303 -0.01947587
v 0.00591167 0.00922329 -0.01325466
v 0.00591142 0.00922318 -0.00703276
v 0.00591140 0.00922318 -0.00081051
v 0.00591147 0.00922306 0.00541165
v 0.00591068 0.00921989 0.01163101
v 0.00590801 0.00923212 0.01786306
v 0.00595346 0.00934328 0.02419138
v 0.00609973 0.00907739 0.03015379
v 0.00561119 0.01306595 0.04097399
v 0.00684636 0.00906055 0.04386754
v 0.00555814 0.00890135 0.04859279
v 0.00574385 0.00927268 0.05514682
v 0.00606496 0.00911879 0.06141115
v 0.00678847 0.01646151 -0.04945792
v 0.00275078 0.01929416 -0.04826558
v 0.00710667 0.01670371 -0.04357872
v 0.00303137 0.01909738 -0.04216988
v 0.00701082 0.01652446 -0.03711139
v 0.00297560 0.01899348 -0.03581838
v 0.00697772 0.01651291 -0.03084600
v 0.00296474 0.01899894 -0.02959131
v 0.00698129 0.01651624 -0.02463178
v 0.00296644 0.01900088 -0.02337281
v 0.00698208 0.01651615 -0.01841035
v 0.00296654 0.01900074 -0.01715054
v 0.00698199 0.01651613 -0.01218800
v 0.00296652 0.01900073 -0.01092828
v 0.00698199 0.01651614 -0.00596578
v 0.00296652 0.01900073 -0.00470606
v 0.00698198 0.01651614 0.00025645
v 0.00296650 0.01900075 0.00151622
v 0.00698198 0.01651623 0.00647881
v 0.00296659 0.01900089 0.00773854
v 0.00698211 0.01651535 0.01270009
v 0.00296793 0.01899798 0.01395544
v 0.00698122 0.01651117 0.01891471
v 0.00296113 0.01899406 0.02017722
v 0.00697863 0.01655732 0.02518393
v 0.00292978 0.01909853 0.02658993
v 0.00705822 0.01668830 0.03161506
v 0.00305847 0.01928201 0.03310595
v 0.00718040 0.01603958 0.03728527
v 0.00321984 0.01837171 0.03797088
v 0.01271505 -0.01493772 -0.04877449
v 0.01136801 -0.01312768 -0.05222156
v 0.01204034 -0.01539693 -0.04357753
v 0.01200634 -0.01518612 -0.03713116
v 0.01199766 -0.01507680 -0.03090320
v 0.01190595 -0.01499055 -0.02471679
v 0.01190047 -0.01498545 -0.01849747
v 0.01190269 -0.01498979 -0.01227684
v 0.01190269 -0.01498995 -0.00605474
v 0.01190271 -0.01498983 0.00016753
v 0.01190280 -0.01498994 0.00638997
v 0.01189974 -0.01499189 0.01261030
v 0.01189658 -0.01498389 0.01882643
v 0.01199513 -0.01493681 0.02514077
v 0.01214037 -0.01499823 0.03161520
v 0.01095845 -0.01480631 0.03727762
v 0.01284805 -0.01149666 0.03981009
v 0.00930244 -0.00600697 -0.04956207
v 0.01272362 -0.00652126 -0.05248003
v 0.00904369 -0.00554155 -0.04373852
v 0.00917235 -0.00569382 -0.03724356
v 0.00916824 -0.00584614 -0.03092872
v 0.00914950 -0.00588892 -0.02465156
v 0.00919811 -0.00589215 -0.01840230
v 0.00920140 -0.00588986 -0.01218130
v 0.00919968 -0.00588887 -0.00595864
v 0.00919974 -0.00588905 0.00026367
v 0.00919756 -0.00589427 0.00648213
v 0.00919450 -0.00588448 0.01270132
v 0.00927022 -0.00574311 0.01903520
v 0.00944153 -0.00575416 0.02553545
v 0.00891789 -0.00668404 0.03063642
v 0.00915031 -0.00614262 0.04433863
v 0.01305951 -0.00567063 0.04091214
v 0.00903656 -0.00557066 0.04986699
v 0.00943601 -0.00565720 0.05657536
v 0.00896425 -0.00664723 0.06191876
v 0.01037393 0.00012140 -0.04934095
v 0.01275516 0.00093100 -0.05263257
v 0.00977135 0.00016631 -0.04347752
v 0.00993706 0.00010743 -0.03703721
v 0.00994710 0.00002846 -0.03073543
v 0.00994157 0.00001127 -0.02447202
v 0.00996195 0.00001973 -0.01822482
v 0.00996538 0.00002257 -0.01200157
v 0.00996357 0.00002304 -0.00578000
v 0.00996353 0.00002304 0.00044231
v 0.00996267 0.00001990 0.00666237
v 0.00995871 0.00002208 0.01288203
v 0.01000554 0.00014357 0.01918190
v 0.01016680 0.00018563 0.02560679
v 0.00953365 -0.00148583 0.03121772
v 0.01029543 -0.00006058 0.04446244
v 0.01275761 0.00079204 0.04167609
v 0.00974677 0.00020546 0.05002458
v 0.01012729 0.00026629 0.05668790
v 0.00956004 -0.00150046 0.06259807
v 0.00946960 0.00576210 -0.04924215
v 0.01276640 0.00637291 -0.05238368
v 0.00887438 0.00586818 -0.04322724
v 0.00912624 0.00594514 -0.03668234
v 0.00921014 0.00593170 -0.03038076
v 0.00920070 0.00592940 -0.02416540
v 0.00920028 0.00593349 -0.01794477
v 0.00920081 0.00593502 -0.01172338
v 0.00919973 0.00593497 -0.00550206
v 0.00919966 0.00593499 0.00072019
v 0.00919958 0.00593387 0.00694160
v 0.00919657 0.00593045 0.01316058
v 0.00920826 0.00599016 0.01942579
v 0.00933770 0.00609841 0.02577022
v 0.00907652 0.00495399 0.03131715
v 0.00954490 0.00557050 0.04456955
v 0.01254425 0.00716590 0.04100358
v 0.00888030 0.00586508 0.05017477
v 0.00925678 0.00613456 0.05681627
v 0.00907112 0.00494404 0.06269991
v 0.01286305 0.01145188 -0.05208252
v 0.01151817 0.01278170 0.03984159
v 0.01150314 0.01467288 -0.05017829
v 0.01212568 0.01519139 -0.04504401
v 0.01200597 0.01501975 -0.03846973
v 0.01189909 0.01502509 -0.03208830
v 0.01189875 0.01503698 -0.02587285
v 0.01190276 0.01503593 -0.01965465
v 0.01190273 0.01503574 -0.01343215
v 0.01190268 0.01503576 -0.00720989
v 0.01190268 0.01503576 -0.00098767
v 0.01190269 0.01503580 0.00523458
v 0.01190271 0.01503570 0.01145683
v 0.01190206 0.01503250 0.01767604
v 0.01189997 0.01504539 0.02390441
v 0.01193844 0.01515236 0.03023177
v 0.01205763 0.01481668 0.03622136
v 0.01468831 -0.01110423 -0.04943745
v 0.01501715 -0.01219759 -0.04348514
v 0.01503033 -0.01204158 -0.03697122
v 0.01505304 -0.01190786 -0.03070177
v 0.01501490 -0.01187625 -0.02451997
v 0.01500895 -0.01187657 -0.01830454
v 0.01501215 -0.01188017 -0.01208188
v 0.01501233 -0.01188036 -0.00585962
v 0.01501229 -0.01188024 0.00036263
v 0.01501239 -0.01188021 0.00658503
v 0.01501105 -0.01188146 0.01280688
v 0.01500655 -0.01187860 0.01902032
v 0.01507084 -0.01182651 0.02527006
v 0.01525837 -0.01190023 0.03167158
v 0.01472060 -0.01272575 0.03674184
v 0.01645608 -0.00605159 -0.05029597
v 0.01663638 -0.00718438 -0.04515030
v 0.01649596 -0.00709043 -0.03855017
v 0.01648695 -0.00695409 -0.03218379
v 0.01649108 -0.00695082 -0.02597089
v 0.01649051 -0.00695765 -0.01975325
v 0.01649253 -0.00695961 -0.01352977
v 0.01649273 -0.00695964 -0.00730736
v 0.01649266 -0.00695956 -0.00108515
v 0.01649272 -0.00695950 0.00513716
v 0.01649252 -0.00695989 0.01135950
v 0.01648802 -0.00696210 0.01757485
v 0.01650929 -0.00693698 0.02379275
v 0.01666942 -0.00692967 0.03019402
v 0.01608484 -0.00765392 0.03683344
v 0.01925875 -0.00283114 -0.04816495
v 0.01731785 -0.00073712 -0.05224484
v 0.01907837 -0.00308184 -0.04195638
v 0.01897006 -0.00295193 -0.03553286
v 0.01897414 -0.00293610 -0.02930194
v 0.01897682 -0.00294348 -0.02308643
v 0.01897726 -0.00294429 -0.01686381
v 0.01897731 -0.00294414 -0.01064141
v 0.01897725 -0.00294409 -0.00441922
v 0.01897727 -0.00294406 0.00180303
v 0.01897743 -0.00294401 0.00802544
v 0.01897532 -0.00294646 0.01424443
v 0.01896943 -0.00294257 0.02046134
v 0.01906360 -0.00287744 0.02680716
v 0.01926834 -0.00296911 0.03326530
v 0.01836779 -0.00316776 0.03805829
v 0.01731887 0.00056522 0.03978158
v 0.01840982 0.00300987 -0.05030980
v 0.01611930 0.00759897 -0.04881151
v 0.01928850 0.00296027 -0.04523303
v 0.01667552 0.00695543 -0.04194175
v 0.01906369 0.00292853 -0.03871168
v 0.01650886 0.00698366 -0.03552210
v 0.01896907 0.00298971 -0.03237620
v 0.01648791 0.00700824 -0.02930987
v 0.01897533 0.00299218 -0.02616086
v 0.01649254 0.00700579 -0.02309474
v 0.01897744 0.00298989 -0.01994161
v 0.01649272 0.00700540 -0.01687230
v 0.01897727 0.00298997 -0.01371919
v 0.01649266 0.00700546 -0.01064999
v 0.01897725 0.00299000 -0.00749695
v 0.01649266 0.00700546 -0.00442777
v 0.01897725 0.00298999 -0.00127473
v 0.01649266 0.00700550 0.00179448
v 0.01897728 0.00299009 0.00494759
v 0.01649274 0.00700553 0.00801683
v 0.01897742 0.00298976 0.01116966
v 0.01649213 0.00700198 0.01423591
v 0.01897479 0.00298423 0.01738502
v 0.01648747 0.00700573 0.02045421
v 0.01896971 0.00300563 0.02362097
v 0.01651963 0.00713675 0.02680096
v 0.01907879 0.00313644 0.03005122
v 0.01670491 0.00716549 0.03325562
v 0.01926666 0.00276446 0.03611241
v 0.01653567 0.00588889 0.03805996
v 0.01476010 0.01277561 -0.04867505
v 0.01524803 0.01195269 -0.04337249
v 0.01506964 0.01187021 -0.03689217
v 0.01500586 0.01192386 -0.03064562
v 0.01501099 0.01192744 -0.02443598
v 0.01501242 0.01192613 -0.01821412
v 0.01501229 0.01192615 -0.01199166
v 0.01501228 0.01192616 -0.00576944
v 0.01501229 0.01192616 0.00045278
v 0.01501231 0.01192625 0.00667510
v 0.01501225 0.01192509 0.01289653
v 0.01501023 0.01192153 0.01911364
v 0.01501613 0.01198331 0.02538060
v 0.01508896 0.01207823 0.03177735
v 0.01488377 0.01091645 0.03737613
v 0.02072332 0.00028364 -0.04879034
v 0.02090037 -0.00007323 -0.04356696
v 0.02070067 -0.00000904 -0.03712286
v 0.02068618 0.00002826 -0.03084579
v 0.02069309 0.00002372 -0.02463155
v 0.02069327 0.00002273 -0.01841037
v 0.02069316 0.00002293 -0.01218798
v 0.02069314 0.00002295 -0.00596577
v 0.02069314 0.00002296 0.00025645
v 0.02069324 0.00002309 0.00647885
v 0.02069309 0.00002196 0.01269984
v 0.02068589 0.00001774 0.01891432
v 0.02069979 0.00006201 0.02520137
v 0.02089802 0.00011878 0.03165182
v 0.02070626 -0.00037878 0.03670335
f 3 2 1
f 5 4 1
f 5 1 2
f 7 6 4
f 7 4 5
f 9 8 6
f 9 6 7
f 11 10 8
f 11 8 9
f 13 12 10
f 13 10 11
f 15 14 12
f 15 12 13
f 17 16 14
f 17 14 15
f 19 18 16
f 19 16 17
f 21 20 18
f 21 18 19
f 23 22 20
f 23 20 21
f 25 24 22
f 25 22 23
f 27 26 24
f 27 24 25
f 29 28 26
f 29 26 27
f 31 30 28
f 31 28 29
f 32 30 31
f 33 3 1
f 33 1 4
f 33 4 34
f 34 4 6
f 34 6 35
f 35 6 8
f 35 8 36
f 36 8 10
f 36 10 37
f 37 10 12
f 37 12 38
f 38 12 14
f 38 14 39
f 39 14 16
f 39 16 40
f 40 16 18
f 40 18 41
f 41 18 20
f 41 20 42
f 42 20 22
f 42 22 43
f 43 22 24
f 43 24 44
f 44 24 26
f 44 26 45
f 45 26 28
f 45 28 46
f 46 28 30
f 46 30 47
f 47 30 32
f 50 49 48
f 52 51 48
f 52 48 49
f 54 53 51
f 54 51 52
f 56 55 53
f 56 53 54
f 58 57 55
f 58 55 56
f 60 59 57
f 60 57 58
f 62 61 59
f 62 59 60
f 64 63 61
f 64 61 62
f 66 65 63
f 66 63 64
f 68 67 65
f 68 65 66
f 70 69 67
f 70 67 68
f 72 71 69
f 72 69 70
f 74 73 71
f 74 71 72
f 76 75 73
f 76 73 74
f 78 77 75
f 78 75 76
f 79 77 78
f 50 48 80
f 50 80 81
f 82 48 51
f 80 48 82
f 83 51 53
f 82 51 83
f 84 53 55
f 83 53 84
f 85 55 57
f 84 55 85
f 86 57 59
f 85 57 86
f 87 59 61
f 86 59 87
f 88 61 63
f 87 61 88
f 89 63 65
f 88 63 89
f 90 65 67
f 89 65 90
f 91 67 69
f 90 67 91
f 92 69 71
f 91 69 92
f 93 71 73
f 92 71 93
f 94 73 75
f 93 73 94
f 95 75 77
f 94 75 95
f 77 79 96
f 77 96 95
f 81 80 2
f 3 81 2
f 97 81 3
f 2 80 5
f 5 80 82
f 5 82 7
f 7 82 83
f 7 83 9
f 9 83 84
f 9 84 11
f 11 84 85
f 11 85 13
f 13 85 86
f 13 86 15
f 15 86 87
f 15 87 17
f 17 87 88
f 17 88 19
f 19 88 89
f 19 89 21
f 21 89 90
f 21 90 23
f 23 90 91
f 23 91 25
f 25 91 92
f 25 92 27
f 27 92 93
f 27 93 29
f 29 93 94
f 29 94 31
f 31 94 95
f 32 31 95
f 96 32 95
f 98 32 96
f 3 33 99
f 100 3 99
f 97 3 100
f 34 101 33
f 33 101 99
f 35 102 34
f 34 102 101
f 36 103 35
f 35 103 102
f 37 104 36
f 36 104 103
f 38 105 37
f 37 105 104
f 39 106 38
f 38 106 105
f 40 107 39
f 39 107 106
f 41 108 40
f 40 108 107
f 42 109 41
f 41 109 108
f 43 110 42
f 42 110 109
f 44 111 43
f 43 111 110
f 45 112 44
f 44 112 111
f 46 113 45
f 45 113 112
f 47 114 46
f 46 114 113
f 115 114 47
f 32 115 47
f 98 115 32
f 100 99 116
f 100 116 117
f 118 99 101
f 116 99 118
f 119 101 102
f 118 101 119
f 120 102 103
f 119 102 120
f 121 103 104
f 120 103 121
f 122 104 105
f 121 104 122
f 123 105 106
f 122 105 123
f 124 106 107
f 123 106 124
f 125 107 108
f 124 107 125
f 126 108 109
f 125 108 126
f 127 109 110
f 126 109 127
f 128 110 111
f 127 110 128
f 129 111 112
f 128 111 129
f 130 112 113
f 129 112 130
f 131 113 114
f 130 113 131
f 114 115 132
f 114 132 131
f 133 117 116
f 133 116 118
f 133 118 134
f 134 118 119
f 134 119 135
f 135 119 120
f 135 120 136
f 136 120 121
f 136 121 137
f 137 121 122
f 137 122 138
f 138 122 123
f 138 123 139
f 139 123 124
f 139 124 140
f 140 124 125
f 140 125 141
f 141 125 126
f 141 126 142
f 142 126 127
f 142 127 143
f 143 127 128
f 143 128 144
f 144 128 129
f 144 129 145
f 145 129 130
f 145 130 146
f 146 130 131
f 146 131 147
f 147 131 132
f 149 148 49
f 149 49 50
f 49 150 52
f 148 150 49
f 52 151 54
f 150 151 52
f 54 152 56
f 151 152 54
f 56 153 58
f 152 153 56
f 58 154 60
f 153 154 58
f 60 155 62
f 154 155 60
f 62 156 64
f 155 156 62
f 64 157 66
f 156 157 64
f 66 158 68
f 157 158 66
f 68 159 70
f 158 159 68
f 70 160 72
f 159 160 70
f 72 161 74
f 160 161 72
f 74 162 76
f 161 162 74
f 76 163 78
f 162 163 76
f 79 78 163
f 79 163 164
f 81 166 165
f 149 81 165
f 50 81 149
f 168 167 166
f 166 167 165
f 170 169 168
f 168 169 167
f 172 171 170
f 170 171 169
f 174 173 172
f 172 173 171
f 176 175 174
f 174 175 173
f 178 177 176
f 176 177 175
f 180 179 178
f 178 179 177
f 182 181 180
f 180 181 179
f 184 183 182
f 182 183 181
f 186 185 184
f 184 185 183
f 188 187 186
f 186 187 185
f 190 189 188
f 188 189 187
f 192 191 190
f 190 191 189
f 192 193 191
f 195 96 194
f 96 164 194
f 96 79 164
f 197 196 195
f 197 195 194
f 199 198 196
f 199 196 197
f 201 200 198
f 201 198 199
f 202 200 201
f 97 203 166
f 97 166 81
f 166 204 168
f 166 203 204
f 168 205 170
f 168 204 205
f 170 206 172
f 170 205 206
f 172 207 174
f 172 206 207
f 174 208 176
f 174 207 208
f 176 209 178
f 176 208 209
f 178 210 180
f 178 209 210
f 180 211 182
f 180 210 211
f 182 212 184
f 182 211 212
f 184 213 186
f 184 212 213
f 186 214 188
f 186 213 214
f 188 215 190
f 188 214 215
f 190 216 192
f 190 215 216
f 193 192 217
f 217 192 216
f 218 98 195
f 195 98 96
f 219 195 196
f 218 195 219
f 220 196 198
f 219 196 220
f 221 198 200
f 220 198 221
f 200 202 222
f 200 222 221
f 100 223 203
f 100 203 97
f 203 224 204
f 203 223 224
f 204 225 205
f 204 224 225
f 205 226 206
f 205 225 226
f 206 227 207
f 206 226 227
f 207 228 208
f 207 227 228
f 208 229 209
f 208 228 229
f 209 230 210
f 209 229 230
f 210 231 211
f 210 230 231
f 211 232 212
f 211 231 232
f 212 233 213
f 212 232 233
f 213 234 214
f 213 233 234
f 214 235 215
f 214 234 235
f 215 236 216
f 215 235 236
f 217 216 237
f 237 216 236
f 238 115 218
f 218 115 98
f 239 218 219
f 238 218 239
f 240 219 220
f 239 219 240
f 241 220 221
f 240 220 241
f 221 222 242
f 221 242 241
f 244 243 223
f 100 244 223
f 117 244 100
f 223 243 224
f 224 243 245
f 224 245 225
f 225 245 246
f 225 246 226
f 226 246 247
f 226 247 227
f 227 247 248
f 227 248 228
f 228 248 249
f 228 249 229
f 229 249 250
f 229 250 230
f 230 250 251
f 230 251 231
f 231 251 252
f 231 252 232
f 232 252 253
f 232 253 233
f 233 253 254
f 233 254 234
f 234 254 255
f 234 255 235
f 235 255 256
f 235 256 236
f 236 256 257
f 236 257 237
f 259 258 238
f 258 115 238
f 258 132 115
f 259 238 239
f 259 239 260
f 260 239 240
f 260 240 261
f 261 240 241
f 261 241 262
f 262 241 242
f 263 244 117
f 263 117 133
f 264 133 134
f 264 263 133
f 265 134 135
f 265 264 134
f 266 135 136
f 266 265 135
f 267 136 137
f 267 266 136
f 268 137 138
f 268 267 137
f 269 138 139
f 269 268 138
f 270 139 140
f 270 269 139
f 271 140 141
f 271 270 140
f 272 141 142
f 272 271 141
f 273 142 143
f 273 272 142
f 274 143 144
f 274 273 143
f 275 144 145
f 275 274 144
f 276 145 146
f 276 275 145
f 277 146 147
f 277 276 146
f 147 132 258
f 147 258 277
f 280 279 278
f 281 278 279
f 284 283 282
f 286 285 282
f 286 282 283
f 288 287 285
f 288 285 286
f 290 289 287
f 290 287 288
f 292 291 289
f 292 289 290
f 294 293 291
f 294 291 292
f 296 295 293
f 296 293 294
f 298 297 295
f 298 295 296
f 300 299 297
f 300 297 298
f 302 301 299
f 302 299 300
f 304 303 301
f 304 301 302
f 306 305 303
f 306 303 304
f 308 307 305
f 308 305 306
f 309 307 308
f 280 278 148
f 149 280 148
f 310 280 149
f 150 148 278
f 311 150 278
f 281 311 278
f 312 150 311
f 313 284 282
f 150 313 282
f 151 150 282
f 313 150 312
f 151 282 152
f 152 282 285
f 152 285 153
f 153 285 287
f 153 287 154
f 154 287 289
f 154 289 155
f 155 289 291
f 155 291 156
f 156 291 293
f 156 293 157
f 157 293 295
f 157 295 158
f 158 295 297
f 158 297 159
f 159 297 299
f 159 299 160
f 160 299 301
f 160 301 161
f 161 301 303
f 161 303 162
f 162 303 305
f 162 305 163
f 163 305 307
f 164 163 307
f 309 164 307
f 314 164 309
f 315 310 149
f 315 149 165
f 167 312 311
f 315 167 311
f 165 167 315
f 316 313 312
f 167 316 312
f 169 316 167
f 317 169 171
f 317 316 169
f 318 171 173
f 318 317 171
f 319 173 175
f 319 318 173
f 320 175 177
f 320 319 175
f 321 177 179
f 321 320 177
f 322 179 181
f 322 321 179
f 323 181 183
f 323 322 181
f 324 183 185
f 324 323 183
f 325 185 187
f 325 324 185
f 326 187 189
f 326 325 187
f 327 189 191
f 327 326 189
f 191 193 327
f 327 193 328
f 314 329 164
f 164 329 194
f 194 330 197
f 329 330 194
f 197 331 199
f 330 331 197
f 199 332 201
f 331 332 199
f 202 201 332
f 202 332 333
f 217 335 334
f 328 217 334
f 193 217 328
f 337 336 335
f 335 336 334
f 339 338 337
f 337 338 336
f 341 340 339
f 339 340 338
f 343 342 341
f 341 342 340
f 333 342 343
f 222 333 343
f 202 333 222
f 345 344 335
f 217 345 335
f 237 345 217
f 335 344 337
f 337 344 346
f 337 346 339
f 339 346 347
f 339 347 341
f 341 347 348
f 341 348 343
f 343 348 349
f 222 343 349
f 350 222 349
f 242 222 350
f 352 351 243
f 352 243 244
f 243 353 245
f 351 353 243
f 245 354 246
f 353 354 245
f 246 355 247
f 354 355 246
f 247 356 248
f 355 356 247
f 248 357 249
f 356 357 248
f 249 358 250
f 357 358 249
f 250 359 251
f 358 359 250
f 251 360 252
f 359 360 251
f 252 361 253
f 360 361 252
f 253 362 254
f 361 362 253
f 254 363 255
f 362 363 254
f 255 364 256
f 363 364 255
f 256 365 257
f 364 365 256
f 237 257 345
f 345 257 365
f 367 366 259
f 259 366 258
f 368 259 260
f 368 367 259
f 369 260 261
f 369 368 260
f 370 261 262
f 370 369 261
f 262 242 350
f 262 350 370
f 244 263 371
f 372 244 371
f 352 244 372
f 264 373 263
f 263 373 371
f 265 374 264
f 264 374 373
f 266 375 265
f 265 375 374
f 267 376 266
f 266 376 375
f 268 377 267
f 267 377 376
f 269 378 268
f 268 378 377
f 270 379 269
f 269 379 378
f 271 380 270
f 270 380 379
f 272 381 271
f 271 381 380
f 273 382 272
f 272 382 381
f 274 383 273
f 273 383 382
f 275 384 274
f 274 384 383
f 276 385 275
f 275 385 384
f 277 386 276
f 276 386 385
f 387 386 277
f 258 387 277
f 366 387 258
f 388 372 371
f 388 371 373
f 388 373 389
f 389 373 374
f 389 374 390
f 390 374 375
f 390 375 391
f 391 375 376
f 391 376 392
f 392 376 377
f 392 377 393
f 393 377 378
f 393 378 394
f 394 378 379
f 394 379 395
f 395 379 380
f 395 380 396
f 396 380 381
f 396 381 397
f 397 381 382
f 397 382 398
f 398 382 383
f 398 383 399
f 399 383 384
f 399 384 400
f 400 384 385
f 400 385 401
f 401 385 386
f 401 386 402
f 402 386 387
f 280 403 279
f 403 281 279
f 284 404 283
f 405 286 283
f 405 283 404
f 406 288 286
f 406 286 405
f 407 290 288
f 407 288 406
f 408 292 290
f 408 290 407
f 409 294 292
f 409 292 408
f 410 296 294
f 410 294 409
f 411 298 296
f 411 296 410
f 412 300 298
f 412 298 411
f 413 302 300
f 413 300 412
f 414 304 302
f 414 302 413
f 415 306 304
f 415 304 414
f 416 308 306
f 416 306 415
f 416 309 308
f 418 417 403
f 280 418 403
f 310 418 280
f 311 281 403
f 419 311 403
f 417 419 403
f 311 419 420
f 419 421 404
f 313 419 404
f 284 313 404
f 420 419 313
f 404 421 405
f 405 421 422
f 405 422 406
f 406 422 423
f 406 423 407
f 407 423 424
f 407 424 408
f 408 424 425
f 408 425 409
f 409 425 426
f 409 426 410
f 410 426 427
f 410 427 411
f 411 427 428
f 411 428 412
f 412 428 429
f 412 429 413
f 413 429 430
f 413 430 414
f 414 430 431
f 414 431 415
f 415 431 432
f 415 432 416
f 416 432 433
f 309 416 433
f 434 309 433
f 314 309 434
f 435 418 310
f 435 310 315
f 315 311 420
f 436 315 420
f 435 315 436
f 436 420 313
f 316 436 313
f 437 436 316
f 438 316 317
f 438 437 316
f 439 317 318
f 439 438 317
f 440 318 319
f 440 439 318
f 441 319 320
f 441 440 319
f 442 320 321
f 442 441 320
f 443 321 322
f 443 442 321
f 444 322 323
f 444 443 322
f 445 323 324
f 445 444 323
f 446 324 325
f 446 445 324
f 447 325 326
f 447 446 325
f 448 326 327
f 448 447 326
f 327 328 448
f 448 328 449
f 434 450 314
f 314 450 329
f 329 451 330
f 450 451 329
f 330 452 331
f 451 452 330
f 331 453 332
f 452 453 331
f 333 332 453
f 333 453 454
f 328 334 455
f 456 328 455
f 449 328 456
f 336 457 334
f 334 457 455
f 338 458 336
f 336 458 457
f 340 459 338
f 338 459 458
f 342 460 340
f 340 460 459
f 461 460 342
f 333 461 342
f 454 461 333
f 456 455 344
f 345 456 344
f 462 456 345
f 344 455 346
f 346 455 457
f 346 457 347
f 347 457 458
f 347 458 348
f 348 458 459
f 348 459 349
f 349 459 460
f 350 349 460
f 461 350 460
f 463 350 461
f 465 464 351
f 465 351 352
f 351 466 353
f 464 466 351
f 353 467 354
f 466 467 353
f 354 468 355
f 467 468 354
f 355 469 356
f 468 469 355
f 356 470 357
f 469 470 356
f 357 471 358
f 470 471 357
f 358 472 359
f 471 472 358
f 359 473 360
f 472 473 359
f 360 474 361
f 473 474 360
f 361 475 362
f 474 475 361
f 362 476 363
f 475 476 362
f 363 477 364
f 476 477 363
f 364 478 365
f 477 478 364
f 345 365 462
f 462 365 478
f 480 479 367
f 367 479 366
f 481 367 368
f 481 480 367
f 482 368 369
f 482 481 368
f 483 369 370
f 483 482 369
f 370 350 463
f 370 463 483
f 372 485 484
f 465 372 484
f 352 372 465
f 487 486 485
f 485 486 484
f 489 488 487
f 487 488 486
f 491 490 489
f 489 490 488
f 493 492 491
f 491 492 490
f 495 494 493
f 493 494 492
f 497 496 495
f 495 496 494
f 499 498 497
f 497 498 496
f 501 500 499
f 499 500 498
f 503 502 501
f 501 502 500
f 505 504 503
f 503 504 502
f 507 506 505
f 505 506 504
f 509 508 507
f 507 508 506
f 511 510 509
f 509 510 508
f 513 512 511
f 511 512 510
f 479 512 513
f 387 479 513
f 366 479 387
f 388 485 372
f 485 388 389
f 485 389 487
f 487 389 390
f 487 390 489
f 489 390 391
f 489 391 491
f 491 391 392
f 491 392 493
f 493 392 393
f 493 393 495
f 495 393 394
f 495 394 497
f 497 394 395
f 497 395 499
f 499 395 396
f 499 396 501
f 501 396 397
f 501 397 503
f 503 397 398
f 503 398 505
f 505 398 399
f 505 399 507
f 507 399 400
f 507 400 509
f 509 400 401
f 509 401 511
f 511 401 402
f 511 402 513
f 513 402 387
f 515 514 417
f 515 417 418
f 417 516 419
f 514 516 417
f 419 517 421
f 516 517 419
f 421 518 422
f 517 518 421
f 422 519 423
f 518 519 422
f 423 520 424
f 519 520 423
f 424 521 425
f 520 521 424
f 425 522 426
f 521 522 425
f 426 523 427
f 522 523 426
f 427 524 428
f 523 524 427
f 428 525 429
f 524 525 428
f 429 526 430
f 525 526 429
f 430 527 431
f 526 527 430
f 431 528 432
f 527 528 431
f 432 529 433
f 528 529 432
f 434 433 529
f 434 529 530
f 418 435 531
f 532 418 531
f 515 418 532
f 436 533 435
f 435 533 531
f 437 534 436
f 436 534 533
f 438 535 437
f 437 535 534
f 439 536 438
f 438 536 535
f 440 537 439
f 439 537 536
f 441 538 440
f 440 538 537
f 442 539 441
f 441 539 538
f 443 540 442
f 442 540 539
f 444 541 443
f 443 541 540
f 445 542 444
f 444 542 541
f 446 543 445
f 445 543 542
f 447 544 446
f 446 544 543
f 448 545 447
f 447 545 544
f 449 545 448
f 450 434 546
f 434 547 546
f 434 530 547
f 548 451 450
f 548 450 546
f 549 452 451
f 549 451 548
f 550 453 452
f 550 452 549
f 550 454 453
f 532 531 551
f 532 551 552
f 553 531 533
f 551 531 553
f 554 533 534
f 553 533 554
f 555 534 535
f 554 534 555
f 556 535 536
f 555 535 556
f 557 536 537
f 556 536 557
f 558 537 538
f 557 537 558
f 559 538 539
f 558 538 559
f 560 539 540
f 559 539 560
f 561 540 541
f 560 540 561
f 562 541 542
f 561 541 562
f 563 542 543
f 562 542 563
f 564 543 544
f 563 543 564
f 565 544 545
f 564 544 565
f 456 565 449
f 449 565 545
f 546 547 566
f 566 547 567
f 546 568 548
f 546 566 568
f 548 569 549
f 548 568 569
f 549 570 550
f 549 569 570
f 570 461 454
f 570 454 550
f 552 551 571
f 552 571 572
f 573 551 553
f 571 551 573
f 574 553 554
f 573 553 574
f 575 554 555
f 574 554 575
f 576 555 556
f 575 555 576
f 577 556 557
f 576 556 577
f 578 557 558
f 577 557 578
f 579 558 559
f 578 558 579
f 580 559 560
f 579 559 580
f 581 560 561
f 580 560 581
f 582 561 562
f 581 561 582
f 583 562 563
f 582 562 583
f 584 563 564
f 583 563 584
f 585 564 565
f 584 564 585
f 462 585 456
f 456 585 565
f 566 567 586
f 586 567 587
f 566 588 568
f 566 586 588
f 568 589 569
f 568 588 589
f 569 590 570
f 569 589 590
f 590 463 461
f 590 461 570
f 572 571 464
f 465 572 464
f 591 572 465
f 464 571 466
f 466 571 573
f 466 573 467
f 467 573 574
f 467 574 468
f 468 574 575
f 468 575 469
f 469 575 576
f 469 576 470
f 470 576 577
f 470 577 471
f 471 577 578
f 471 578 472
f 472 578 579
f 472 579 473
f 473 579 580
f 473 580 474
f 474 580 581
f 474 581 475
f 475 581 582
f 475 582 476
f 476 582 583
f 476 583 477
f 477 583 584
f 477 584 478
f 478 584 585
f 478 585 462
f 586 587 480
f 587 479 480
f 587 592 479
f 586 480 481
f 586 481 588
f 588 481 482
f 588 482 589
f 589 482 483
f 589 483 590
f 590 483 463
f 593 591 465
f 593 465 484
f 594 484 486
f 594 593 484
f 595 486 488
f 595 594 486
f 596 488 490
f 596 595 488
f 597 490 492
f 597 596 490
f 598 492 494
f 598 597 492
f 599 494 496
f 599 598 494
f 600 496 498
f 600 599 496
f 601 498 500
f 601 600 498
f 602 500 502
f 602 601 500
f 603 502 504
f 603 602 502
f 604 504 506
f 604 603 504
f 605 506 508
f 605 604 506
f 606 508 510
f 606 605 508
f 607 510 512
f 607 606 510
f 512 479 592
f 512 592 607
f 515 608 514
f 609 516 514
f 609 514 608
f 610 517 516
f 610 516 609
f 611 518 517
f 611 517 610
f 612 519 518
f 612 518 611
f 613 520 519
f 613 519 612
f 614 521 520
f 614 520 613
f 615 522 521
f 615 521 614
f 616 523 522
f 616 522 615
f 617 524 523
f 617 523 616
f 618 525 524
f 618 524 617
f 619 526 525
f 619 525 618
f 620 527 526
f 620 526 619
f 621 528 527
f 621 527 620
f 622 529 528
f 622 528 621
f 622 530 529
f 532 623 608
f 532 608 515
f 608 624 609
f 608 623 624
f 609 625 610
f 609 624 625
f 610 626 611
f 610 625 626
f 611 627 612
f 611 626 627
f 612 628 613
f 612 627 628
f 613 629 614
f 613 628 629
f 614 630 615
f 614 629 630
f 615 631 616
f 615 630 631
f 616 632 617
f 616 631 632
f 617 633 618
f 617 632 633
f 618 634 619
f 618 633 634
f 619 635 620
f 619 634 635
f 620 636 621
f 620 635 636
f 621 637 622
f 621 636 637
f 637 547 530
f 637 530 622
f 639 638 623
f 532 639 623
f 552 639 532
f 623 638 624
f 624 638 640
f 624 640 625
f 625 640 641
f 625 641 626
f 626 641 642
f 626 642 627
f 627 642 643
f 627 643 628
f 628 643 644
f 628 644 629
f 629 644 645
f 629 645 630
f 630 645 646
f 630 646 631
f 631 646 647
f 631 647 632
f 632 647 648
f 632 648 633
f 633 648 649
f 633 649 634
f 634 649 650
f 634 650 635
f 635 650 651
f 635 651 636
f 636 651 652
f 636 652 637
f 637 652 653
f 547 637 653
f 654 547 653
f 567 547 654
f 572 656 655
f 639 572 655
f 552 572 639
f 658 657 656
f 656 657 655
f 660 659 658
f 658 659 657
f 662 661 660
f 660 661 659
f 664 663 662
f 662 663 661
f 666 665 664
f 664 665 663
f 668 667 666
f 666 667 665
f 670 669 668
f 668 669 667
f 672 671 670
f 670 671 669
f 674 673 672
f 672 673 671
f 676 675 674
f 674 675 673
f 678 677 676
f 676 677 675
f 680 679 678
f 678 679 677
f 682 681 680
f 680 681 679
f 684 683 682
f 682 683 681
f 654 683 684
f 587 654 684
f 567 654 587
f 591 685 656
f 591 656 572
f 656 686 658
f 656 685 686
f 658 687 660
f 658 686 687
f 660 688 662
f 660 687 688
f 662 689 664
f 662 688 689
f 664 690 666
f 664 689 690
f 666 691 668
f 666 690 691
f 668 692 670
f 668 691 692
f 670 693 672
f 670 692 693
f 672 694 674
f 672 693 694
f 674 695 676
f 674 694 695
f 676 696 678
f 676 695 696
f 678 697 680
f 678 696 697
f 680 698 682
f 680 697 698
f 682 699 684
f 682 698 699
f 699 592 587
f 699 587 684
f 593 685 591
f 685 593 594
f 685 594 686
f 686 594 595
f 686 595 687
f 687 595 596
f 687 596 688
f 688 596 597
f 688 597 689
f 689 597 598
f 689 598 690
f 690 598 599
f 690 599 691
f 691 599 600
f 691 600 692
f 692 600 601
f 692 601 693
f 693 601 602
f 693 602 694
f 694 602 603
f 694 603 695
f 695 603 604
f 695 604 696
f 696 604 605
f 696 605 697
f 697 605 606
f 697 606 698
f 698 606 607
f 698 607 699
f 699 607 592
f 639 700 638
f 701 640 638
f 701 638 700
f 702 641 640
f 702 640 701
f 703 642 641
f 703 641 702
f 704 643 642
f 704 642 703
f 705 644 643
f 705 643 704
f 706 645 644
f 706 644 705
f 707 646 645
f 707 645 706
f 708 647 646
f 708 646 707
f 709 648 647
f 709 647 708
f 710 649 648
f 710 648 709
f 711 650 649
f 711 649 710
f 712 651 650
f 712 650 711
f 713 652 651
f 713 651 712
f 714 653 652
f 714 652 713
f 714 654 653
f 655 700 639
f 700 655 657
f 700 657 701
f 701 657 659
f 701 659 702
f 702 659 661
f 702 661 703
f 703 661 663
f 703 663 704
f 704 663 665
f 704 665 705
f 705 665 667
f 705 667 706
f 706 667 669
f 706 669 707
f 707 669 671
f 707 671 708
f 708 671 673
f 708 673 709
f 709 673 675
f 709 675 710
f 710 675 677
f 710 677 711
f 711 677 679
f 711 679 712
f 712 679 681
f 712 681 713
f 713 681 683
f 713 683 714
f 714 683 654

