# https://github.com/mikedh/trimesh
v -0.01392043 -0.05479005 -0.00594643
v -0.01181018 -0.05772420 -0.00735388
v -0.01182679 -0.05509864 -0.00882942
v -0.01421987 -0.05477463 -0.00136477
v -0.01197423 -0.05759645 -0.00306234
v -0.01424886 -0.05478137 0.00340465
v -0.01186458 -0.05707342 0.00216606
v -0.01382963 -0.05443488 0.00695269
v -0.01185020 -0.05689260 0.00666438
v -0.01176552 -0.05542767 0.00928674
v -0.01424192 -0.05055943 -0.00657222
v -0.01187492 -0.05058637 -0.00891050
v -0.01478077 -0.05058526 -0.00235767
v -0.01478946 -0.05056650 0.00237630
v -0.01428339 -0.05059517 0.00647624
v -0.01246947 -0.05174530 0.00931993
v -0.01439134 -0.04569821 -0.00651897
v -0.01209356 -0.04572280 -0.00885927
v -0.01483369 -0.04570397 -0.00225454
v -0.01476101 -0.04638623 0.00186403
v -0.01401363 -0.04547331 0.00575818
v -0.01242897 -0.04720807 0.00911050
v -0.01405410 -0.04193099 -0.00715251
v -0.01133958 -0.04153309 -0.00867440
v -0.01441304 -0.04143041 -0.00343499
v -0.01406339 -0.04183771 0.00178185
v -0.01235148 -0.04166123 0.00474616
v -0.01091308 -0.04373587 0.00779590
v -0.01213285 -0.03940156 -0.00580525
v -0.01189308 -0.03913111 -0.00128783
v -0.01137119 -0.03967707 0.00232618
v -0.01403031 -0.00952954 -0.00579728
v -0.01114911 -0.01160031 -0.00660425
v -0.01250480 -0.00897817 -0.00846140
v -0.01433145 -0.00947031 -0.00135339
v -0.01192923 -0.01192380 -0.00247959
v -0.01398602 -0.00881800 0.00323053
v -0.01176188 -0.01159715 0.00200969
v -0.01165659 -0.01031956 0.00511588
v -0.01426280 -0.00514987 -0.00650763
v -0.01200030 -0.00456863 -0.00935818
v -0.01488609 -0.00519715 -0.00239055
v -0.01490460 -0.00511583 0.00243172
v -0.01279049 -0.00783413 0.00654578
v -0.01410744 -0.00476513 0.00662293
v -0.01138509 -0.00598387 0.00874252
v -0.01377428 -0.00122743 -0.00693317
v -0.01246873 -0.00060480 -0.00887016
v -0.01422373 -0.00085141 -0.00331327
v -0.01427529 -0.00090497 0.00147535
v -0.01406863 -0.00087247 0.00594504
v -0.01162572 -0.00109787 0.00884849
v -0.01185602 0.00171051 -0.00666183
v -0.01238491 0.00202018 -0.00097288
v -0.01239403 0.00196994 0.00379225
v -0.01183291 0.00200553 0.00730387
v -0.00986277 -0.05999483 -0.00585854
v -0.00634560 -0.06167007 -0.00665892
v -0.00857475 -0.05902134 -0.00880051
v -0.00944671 -0.05949267 -0.00213560
v -0.00715375 -0.06147799 -0.00270077
v -0.00698122 -0.06011874 0.00034119
v -0.00760491 -0.05542720 -0.00951641
v -0.00878977 -0.05828726 0.00141891
v -0.00767565 -0.05802707 0.00656075
v -0.00975363 -0.05404894 0.01163403
v -0.00790711 -0.05704783 0.01124184
v -0.00700791 -0.05550232 0.01404204
v -0.00768343 -0.05062047 -0.00935197
v -0.01012471 -0.04946137 0.01161065
v -0.00774484 -0.05174730 0.01396094
v -0.00795353 -0.04578488 -0.00937317
v -0.01004699 -0.04581301 0.01100231
v -0.00696421 -0.04617463 0.01395841
v -0.00682941 -0.04156767 -0.00889209
v -0.00897667 -0.04120507 0.00488093
v -0.00753471 -0.04262852 0.00795205
v -0.00764218 -0.04354636 0.01110652
v -0.00789249 -0.03918231 -0.00657946
v -0.00773808 -0.03865692 -0.00240508
v -0.00733745 -0.03925527 0.00250652
v -0.00935109 -0.03290590 -0.00645075
v -0.00627205 -0.03451706 -0.00679279
v -0.00786233 -0.03186734 -0.00883788
v -0.00949702 -0.03184714 -0.00230655
v -0.00717409 -0.03481526 -0.00254294
v -0.00980898 -0.03228722 0.00353639
v -0.00719557 -0.03479911 0.00243018
v -0.00924873 -0.03181711 0.00734539
v -0.00776569 -0.03429788 0.00631254
v -0.00661331 -0.03284767 0.00878578
v -0.00952383 -0.02819332 -0.00629371
v -0.00722454 -0.02795720 -0.00919738
v -0.00708103 -0.02752615 -0.00419263
v -0.00673426 -0.02976550 -0.00159696
v -0.00754452 -0.02771709 0.00017195
v -0.00995073 -0.02777582 0.00187371
v -0.00979738 -0.02797580 0.00675769
v -0.00710097 -0.02912107 0.00926768
v -0.00981778 -0.02300899 -0.00670351
v -0.00718464 -0.02299775 -0.00913081
v -0.00790882 -0.02611133 -0.00236345
v -0.00996548 -0.02375312 -0.00171009
v -0.01040459 -0.02232700 0.00321545
v -0.00977808 -0.02304501 0.00679248
v -0.00713936 -0.02424833 0.00928860
v -0.00935397 -0.01909782 -0.00720100
v -0.00628827 -0.01871868 -0.00877478
v -0.00982875 -0.01870360 -0.00347181
v -0.00976728 -0.01871973 0.00144004
v -0.00941920 -0.01871505 0.00604319
v -0.00711785 -0.01962219 0.00901820
v -0.00723344 -0.01653745 -0.00569188
v -0.00715372 -0.01625741 -0.00105467
v -0.00710841 -0.01628386 0.00379865
v -0.00662824 -0.01676754 0.00748716
v -0.00660294 -0.01196835 -0.00727789
v -0.00912672 -0.00927966 -0.00967939
v -0.00776748 -0.01241388 -0.00224650
v -0.00765795 -0.01243498 0.00249679
v -0.01030539 -0.00925799 0.00755647
v -0.00835150 -0.01154092 0.00610148
v -0.00726812 -0.00943635 0.00879782
v -0.00930407 -0.00543066 -0.01144295
v -0.00691845 -0.00795755 -0.01211123
v -0.00697433 -0.00485131 -0.01334841
v -0.00750369 -0.00557384 0.01003425
v -0.01003116 -0.00116258 -0.01123022
v -0.00620036 -0.00090861 -0.01331211
v -0.00728808 -0.00040801 0.00996440
v -0.00826276 0.00212550 -0.01054705
v -0.00932170 0.00401827 -0.00725352
v -0.00665731 0.00400969 -0.00922778
v -0.00992057 0.00423488 -0.00335295
v -0.00985659 0.00416348 0.00137693
v -0.00962605 0.00418945 0.00573469
v -0.00773901 0.00397464 0.00871951
v -0.00686917 0.00620781 -0.00637696
v -0.00733240 0.00634527 -0.00114635
v -0.00735984 0.00629050 0.00350696
v -0.00751520 0.00593402 0.00663119
v -0.00927262 0.01338737 -0.01043594
v -0.00711041 0.01054901 -0.01174737
v -0.00727192 0.01307039 -0.01334750
v -0.00943305 0.01343485 -0.00594665
v -0.00763395 0.01062949 -0.00810943
v -0.00937387 0.01339273 -0.00114619
v -0.00745716 0.01067100 -0.00342695
v -0.00947299 0.01336401 0.00366795
v -0.00743036 0.01058719 0.00127544
v -0.00905705 0.01383208 0.00731013
v -0.00757596 0.01080678 0.00574772
v -0.00675930 0.01329819 0.00850268
v -0.00967056 0.01750335 -0.01121069
v -0.00714093 0.01720750 -0.01317921
v -0.01014285 0.01757497 -0.00697278
v -0.01008064 0.01755524 -0.00223989
v -0.01011827 0.01758309 0.00256523
v -0.00960279 0.01763222 0.00685771
v -0.00779087 0.01764351 0.00854628
v -0.00978832 0.02231825 -0.01122339
v -0.00743172 0.02272493 -0.01324805
v -0.01026747 0.02241089 -0.00692126
v -0.01015466 0.02238135 -0.00213685
v -0.01017140 0.02244966 0.00257095
v -0.00963484 0.02252344 0.00679018
v -0.00817684 0.02185863 0.00871349
v -0.00930836 0.02607246 -0.01184970
v -0.00675950 0.02701064 -0.01322189
v -0.00974347 0.02655291 -0.00808693
v -0.00961605 0.02655605 -0.00326924
v -0.00962495 0.02657045 0.00143158
v -0.00937968 0.02669166 0.00584678
v -0.00738475 0.02591461 0.00857561
v -0.00714270 0.02853249 -0.01039891
v -0.00710922 0.02874976 -0.00588878
v -0.00713927 0.02868384 -0.00119819
v -0.00725304 0.02877203 0.00347754
v -0.00678391 0.02863727 0.00790836
v -0.00925860 0.03579741 -0.01043805
v -0.00642398 0.03422160 -0.01106595
v -0.00685817 0.03583147 -0.01277933
v -0.00986382 0.03610476 -0.00597488
v -0.00733510 0.03391763 -0.00691986
v -0.00969603 0.03547022 -0.00164382
v -0.00725019 0.03385071 -0.00227756
v -0.00957849 0.03648772 0.00269534
v -0.00734403 0.03371360 0.00246004
v -0.00948370 0.03646095 0.00730328
v -0.00805404 0.03411370 0.00626337
v -0.00696548 0.03554040 0.00869487
v -0.00787234 0.03771091 -0.01112359
v -0.00718420 0.04074591 -0.00911362
v -0.00988369 0.04001379 -0.00721056
v -0.00991910 0.03985481 -0.00227690
v -0.00793234 0.04057386 -0.00027642
v -0.00714632 0.03832487 0.00196110
v -0.00736825 0.04065660 0.00506135
v -0.00950845 0.03997088 0.00663925
v -0.00743797 0.03919526 0.00915325
v -0.00991953 0.04552216 -0.00683507
v -0.00728356 0.04470980 -0.00922394
v -0.00990345 0.04545916 -0.00191080
v -0.00763606 0.04480619 -0.00068595
v -0.00954126 0.04563772 0.00688885
v -0.00738216 0.04483338 0.00490151
v -0.00747471 0.04401146 0.00914739
v -0.00938610 0.04865236 -0.01055901
v -0.00658356 0.04773706 -0.01158903
v -0.00712228 0.05019762 -0.01290506
v -0.00985281 0.04981031 -0.00775850
v -0.00991565 0.04934059 -0.00338713
v -0.00686487 0.04704667 0.00199328
v -0.00961663 0.04891704 0.00237719
v -0.00954770 0.05009406 0.00622757
v -0.00743529 0.04859823 0.00882988
v -0.00757624 0.05132640 -0.01052813
v -0.00745349 0.05160498 -0.00604317
v -0.00744703 0.05162670 -0.00117182
v -0.00750048 0.05180330 0.00362473
v -0.00700552 0.05138236 0.00726250
v -0.00178670 -0.06207921 -0.00663613
v -0.00399368 -0.05966064 -0.00901063
v -0.00292232 -0.06250653 -0.00238531
v -0.00554901 -0.05980832 0.00378038
v -0.00319354 -0.06184160 0.00222054
v -0.00457868 -0.05949488 0.00749774
v -0.00295175 -0.06120664 0.00618202
v -0.00158344 -0.05993497 0.00932805
v -0.00282347 -0.05547298 -0.00940500
v -0.00322045 -0.05813066 0.01165165
v -0.00510155 -0.05411642 0.01646381
v -0.00379556 -0.05697956 0.01545733
v -0.00193305 -0.05551468 0.01797497
v -0.00299719 -0.05064433 -0.00932631
v -0.00552513 -0.04947660 0.01635663
v -0.00244115 -0.05178088 0.01835452
v -0.00322893 -0.04579549 -0.00942030
v -0.00500825 -0.04607008 0.01634988
v -0.00249494 -0.04714711 0.01795437
v -0.00207464 -0.04151501 -0.00892482
v -0.00585225 -0.04093949 0.00659886
v -0.00489747 -0.04119391 0.01033827
v -0.00377277 -0.04183991 0.01352031
v -0.00224212 -0.04375554 0.01621785
v -0.00306938 -0.03915083 -0.00651160
v -0.00288206 -0.03867576 -0.00230685
v -0.00277440 -0.03874172 0.00248407
v -0.00275230 -0.03922669 0.00759272
v -0.00184872 -0.03959568 0.01182356
v -0.00252777 -0.03434755 -0.00618403
v -0.00412996 -0.03234075 -0.00889894
v -0.00316405 -0.03475624 -0.00230287
v -0.00318328 -0.03476399 0.00258031
v -0.00406923 -0.03445681 0.00681914
v -0.00313938 -0.03138415 0.00904697
v -0.00321685 -0.02804799 -0.00912085
v -0.00320492 -0.02747090 -0.00478811
v -0.00258523 -0.03025470 -0.00255094
v -0.00341392 -0.03016484 0.00125997
v -0.00509213 -0.02637681 0.00183008
v -0.00228649 -0.02827235 0.00453028
v -0.00319674 -0.02670652 0.00930016
v -0.00319189 -0.02309116 -0.00908940
v -0.00537439 -0.02416579 -0.00189083
v -0.00300022 -0.02340929 -0.00434727
v -0.00426109 -0.02292767 0.00142572
v -0.00269262 -0.02446661 0.00470742
v -0.00318550 -0.02186616 0.00929759
v -0.00259519 -0.01921522 -0.00862951
v -0.00270563 -0.02088103 -0.00098412
v -0.00234299 -0.02123027 0.00280994
v -0.00366957 -0.01819325 0.00884174
v -0.00374002 -0.01676026 -0.00718156
v -0.00323434 -0.01629753 -0.00347579
v -0.00318907 -0.01630589 0.00136362
v -0.00318929 -0.01662051 0.00599633
v -0.00561185 -0.01043581 -0.01107955
v -0.00248255 -0.01152991 -0.01032465
v -0.00400519 -0.00889810 -0.01300449
v -0.00308978 -0.01247536 -0.00707683
v -0.00251355 -0.01199363 -0.00246939
v -0.00288681 -0.01247273 0.00266411
v -0.00386344 -0.01190598 0.00681395
v -0.00212417 -0.00912740 0.00965316
v -0.00340399 -0.00518084 -0.01356857
v -0.00358601 -0.00685488 0.01159373
v -0.00510650 -0.00389923 0.01182261
v -0.00257874 -0.00439998 0.01286605
v -0.00280437 -0.00143262 -0.01300544
v -0.00471384 -0.00003933 0.01140709
v -0.00325314 -0.00145289 0.01282665
v -0.00431139 0.00175618 -0.01160999
v -0.00296993 0.00398526 -0.00971090
v -0.00327033 0.00330372 0.00962080
v -0.00299699 0.00117786 0.01174021
v -0.00535070 0.00802077 -0.01009704
v -0.00172955 0.00644070 -0.01216766
v -0.00388404 0.00965920 -0.01377076
v -0.00616069 0.00882302 -0.00618571
v -0.00608741 0.00851868 -0.00221076
v -0.00613137 0.00842575 0.00243755
v -0.00599760 0.00842907 0.00774021
v -0.00260174 0.00642731 0.01089897
v -0.00466409 0.00944913 0.01239711
v -0.00247304 0.00791793 0.01430786
v -0.00366092 0.01368453 -0.01380026
v -0.00529975 0.01349318 0.01113965
v -0.00358407 0.01025106 0.01569117
v -0.00486431 0.01329938 0.01570487
v -0.00212431 0.01212589 0.01796468
v -0.00280547 0.01556729 -0.01102443
v -0.00553670 0.01838276 -0.01075931
v -0.00348486 0.01536388 -0.00768672
v -0.00509740 0.01802603 -0.00584779
v -0.00320080 0.01500706 -0.00344758
v -0.00506499 0.01816871 -0.00122969
v -0.00261658 0.01507112 0.00191774
v -0.00494741 0.01822129 0.00347275
v -0.00321475 0.01525931 0.00741432
v -0.00574036 0.01727815 0.00717099
v -0.00275329 0.01676277 0.01001442
v -0.00508688 0.01864493 0.01200381
v -0.00520782 0.01775728 0.01568770
v -0.00274498 0.01661507 0.01821904
v -0.00517989 0.02258809 -0.01177519
v -0.00499206 0.02175566 -0.00802234
v -0.00508805 0.02186957 -0.00331954
v -0.00502121 0.02198619 0.00127111
v -0.00569224 0.02215038 0.00657400
v -0.00335921 0.02157738 0.01014698
v -0.00539554 0.02308042 0.01241150
v -0.00523711 0.02251524 0.01572118
v -0.00278590 0.02136848 0.01821198
v -0.00261113 0.02459868 -0.01082865
v -0.00374090 0.02652671 -0.01336504
v -0.00253010 0.02438403 -0.00568726
v -0.00252363 0.02445988 -0.00106384
v -0.00246804 0.02454205 0.00360001
v -0.00282319 0.02482363 0.00832763
v -0.00537620 0.02646540 0.01066528
v -0.00493488 0.02665089 0.01495115
v -0.00283088 0.02580604 0.01797182
v -0.00330646 0.02930262 -0.01115332
v -0.00320036 0.02973425 -0.00696757
v -0.00326246 0.02961573 -0.00238236
v -0.00341302 0.02957750 0.00227825
v -0.00357882 0.02968302 0.00708448
v -0.00296198 0.02935023 0.01243980
v -0.00229808 0.02849034 0.01657016
v -0.00244915 0.03370401 -0.01208702
v -0.00271157 0.03643126 -0.01299423
v -0.00344256 0.03302364 -0.00784137
v -0.00331460 0.03293341 -0.00316684
v -0.00261219 0.03348300 0.00234629
v -0.00364498 0.03377499 0.00753019
v -0.00224265 0.03636421 0.00945723
v -0.00428863 0.03814836 -0.01156835
v -0.00334461 0.04165794 -0.00975554
v -0.00541564 0.04014576 -0.00184869
v -0.00284325 0.04125480 -0.00408555
v -0.00260116 0.03834593 -0.00196720
v -0.00312687 0.03824156 0.00193943
v -0.00352682 0.04144403 0.00431724
v -0.00377808 0.04113063 0.00971876
v -0.00396597 0.04506896 -0.00993599
v -0.00511713 0.04387683 -0.00249696
v -0.00135197 0.04476301 -0.00417181
v -0.00394361 0.04518138 0.00417123
v -0.00303975 0.04519802 0.00970156
v -0.00269229 0.04681175 -0.01183152
v -0.00270397 0.04939988 -0.01322023
v -0.00375882 0.04708344 -0.00121534
v -0.00199635 0.04699423 0.00152719
v -0.00302499 0.04939167 0.00916183
v -0.00323088 0.05167452 -0.01135421
v -0.00309528 0.05213437 -0.00705145
v -0.00305659 0.05212904 -0.00222939
v -0.00306259 0.05222773 0.00251813
v -0.00305591 0.05175281 0.00675371
v 0.00175869 -0.06160631 -0.00616243
v 0.00107875 -0.05928053 -0.00882604
v 0.00123036 -0.06202177 -0.00229831
v 0.00121945 -0.06188772 0.00257981
v 0.00034577 -0.06147899 0.00673800
v 0.00202220 -0.05964427 0.00897967
v 0.00115844 -0.05474686 -0.00944855
v 0.00172423 -0.05824603 0.01143177
v 0.00102939 -0.05706068 0.01568598
v 0.00122397 -0.05408519 0.01817833
v 0.00216175 -0.05035999 -0.00906802
v 0.00116715 -0.04949419 0.01836282
v 0.00080052 -0.04506880 -0.00957710
v 0.00082451 -0.04566244 0.01782626
v 0.00236487 -0.04206826 -0.00871553
v 0.00085149 -0.04134690 0.01420282
v 0.00142474 -0.04363407 0.01649243
v 0.00063430 -0.03958768 -0.00709958
v 0.00123677 -0.03918141 -0.00334732
v 0.00138394 -0.03927246 0.00145036
v 0.00126162 -0.03921308 0.00614168
v 0.00124191 -0.03936469 0.01055606
v -0.00105734 -0.03193888 -0.00715979
v -0.00102692 -0.03245648 -0.00269491
v -0.00103304 -0.03213494 0.00296785
v -0.00104246 -0.03281563 0.00651869
v -0.00102632 -0.02832814 -0.00643167
v -0.00103358 -0.02843780 0.00705357
v -0.00106388 -0.02262922 -0.00675945
v -0.00110192 -0.02281155 0.00668120
v -0.00111368 -0.01820111 -0.00621979
v -0.00105465 -0.01891695 -0.00267716
v -0.00108061 -0.01869061 0.00296057
v -0.00111030 -0.01923248 0.00737720
v -0.00078922 -0.00863726 -0.01172090
v 0.00151094 -0.01017619 -0.00975522
v 0.00150752 -0.01177450 -0.00657202
v -0.00028534 -0.00929857 -0.00182420
v 0.00182492 -0.00953926 -0.00401349
v 0.00130346 -0.00982067 0.00018758
v 0.00211248 -0.01203952 0.00138468
v 0.00130763 -0.01183115 0.00644971
v 0.00203115 -0.00906665 0.00867227
v -0.00043435 -0.00409590 -0.01155107
v 0.00248392 -0.00649745 -0.00984294
v -0.00042234 -0.00590600 -0.00246889
v 0.00148436 -0.00520213 -0.00379763
v 0.00200674 -0.00788282 0.00288561
v -0.00005074 -0.00460300 0.00107391
v 0.00217314 -0.00520772 0.00499340
v -0.00109440 -0.00573889 0.01160066
v 0.00142465 -0.00472530 0.00959267
v -0.00122147 -0.00002697 -0.01113099
v 0.00184250 -0.00098482 -0.00953607
v -0.00007324 -0.00066385 -0.00193764
v 0.00156294 -0.00014643 -0.00380039
v 0.00146525 0.00018732 -0.00017247
v 0.00255256 -0.00246028 0.00273971
v -0.00098137 -0.00058851 0.01115004
v 0.00140266 0.00015712 0.00863173
v 0.00162791 0.00354208 -0.00956397
v 0.00051779 0.00385154 -0.00276639
v 0.00197163 0.00381940 -0.00345925
v 0.00113371 0.00384153 -0.00129058
v 0.00017324 0.00335301 0.00759358
v 0.00299962 0.00404713 0.00554751
v 0.00233757 0.00180849 0.00650174
v -0.00086368 0.00821711 -0.01566755
v 0.00221231 0.00664685 -0.01530279
v 0.00152833 0.00906451 -0.01770312
v 0.00217968 0.00554532 -0.01139740
v 0.00159987 0.00564126 -0.00239490
v 0.00076324 0.00566688 0.00780983
v 0.00209738 0.00673676 0.01154428
v -0.00115256 0.00883076 0.01679727
v 0.00052917 0.00705417 0.01529093
v 0.00205043 0.00964514 0.01793723
v -0.00083373 0.01239725 -0.01583393
v 0.00209979 0.01283957 -0.01808281
v -0.00043601 0.01314965 -0.00670143
v 0.00180138 0.01293326 -0.00832616
v 0.00215015 0.01143037 -0.00621165
v 0.00171581 0.01118290 -0.00235180
v -0.00073574 0.01253950 -0.00123377
v 0.00137329 0.01151173 0.00147303
v 0.00004533 0.01294260 0.00280258
v 0.00218802 0.01334669 0.00455277
v 0.00090185 0.01361973 0.01885497
v -0.00030186 0.01774312 -0.01561492
v 0.00200918 0.01765616 -0.01798258
v -0.00065173 0.01745474 -0.01228807
v 0.00136995 0.01628730 -0.00917910
v 0.00114363 0.01508306 0.00695989
v 0.00079414 0.01620091 0.01076903
v -0.00021918 0.01890398 0.01180208
v 0.00236059 0.01864079 0.01317143
v 0.00153878 0.01772225 0.01878967
v -0.00032981 0.02184112 -0.01613236
v 0.00189192 0.02236609 -0.01803116
v -0.00050422 0.02261535 -0.01218666
v 0.00190788 0.02114884 -0.00890992
v -0.00057915 0.02250225 0.01115700
v 0.00161974 0.02146849 0.01308935
v 0.00155249 0.02249196 0.01879316
v -0.00087003 0.02651564 -0.01517333
v 0.00186433 0.02705872 -0.01813214
v 0.00071004 0.02420464 -0.00756413
v 0.00130375 0.02449198 -0.00320083
v 0.00130432 0.02449959 0.00139674
v 0.00131565 0.02463430 0.00613163
v 0.00160611 0.02395216 0.01061919
v 0.00147182 0.02660619 0.01834318
v -0.00013361 0.03161575 -0.01561779
v 0.00242536 0.03052374 -0.01764874
v -0.00148077 0.03085733 -0.01173212
v -0.00133889 0.03139868 -0.00676191
v -0.00127514 0.03129337 -0.00218271
v -0.00055788 0.03176964 0.00262065
v -0.00067193 0.03126632 0.00681073
v -0.00098503 0.03190557 0.01048827
v 0.00104900 0.03107374 0.01329841
v 0.00220511 0.02930337 0.01559654
v 0.00136920 0.03302637 -0.01640066
v 0.00083569 0.03509755 -0.01421791
v -0.00050948 0.03521404 0.00753542
v 0.00100696 0.03515265 0.00473371
v 0.00162517 0.03340296 0.00663533
v 0.00120406 0.03322104 0.01048131
v -0.00019052 0.03327665 0.00908915
v -0.00098845 0.03999699 -0.01172846
v 0.00136365 0.03999363 -0.01291972
v 0.00072009 0.04070028 -0.00424870
v 0.00102023 0.03858672 -0.00134274
v -0.00024568 0.03986227 0.00194207
v 0.00229598 0.04154516 -0.00017618
v 0.00199776 0.03770740 0.00640761
v 0.00085868 0.04111601 0.00886635
v -0.00067538 0.04367796 -0.01131918
v 0.00103512 0.04541462 -0.01301204
v 0.00223418 0.04410371 -0.00406820
v -0.00056000 0.04364642 0.00271963
v 0.00151181 0.04529771 0.00014849
v 0.00129711 0.04616395 0.00916919
v 0.00167286 0.04889026 -0.01310956
v 0.00068162 0.04673241 -0.00213245
v 0.00085086 0.04986744 0.00873242
v 0.00142042 0.05138804 -0.01120252
v 0.00182768 0.05221673 -0.00693591
v 0.00190294 0.05215083 -0.00202970
v 0.00119889 0.05214806 0.00201708
v 0.00212467 0.05149745 0.00599171
v 0.00398572 -0.05910181 -0.00668021
v 0.00338880 -0.05960551 -0.00231877
v 0.00342767 -0.06005187 0.00192526
v 0.00379347 -0.05921718 0.00592441
v 0.00728546 -0.05707606 -0.00659524
v 0.00579521 -0.05553762 -0.00878938
v 0.00407793 -0.05521028 -0.00304137
v 0.00635188 -0.05509738 -0.00483305
v 0.00416300 -0.05539502 0.00316954
v 0.00652218 -0.05526588 0.00493483
v 0.00641672 -0.05755763 0.00720283
v 0.00594353 -0.05701270 0.01215780
v 0.00401175 -0.05487515 0.01555950
v 0.00594796 -0.05468459 0.01328462
v 0.00674108 -0.05306803 -0.00646577
v 0.00431746 -0.05066399 -0.00615331
v 0.00350905 -0.04996563 -0.00175427
v 0.00347305 -0.05121144 0.00178050
v 0.00667152 -0.05283170 0.00651284
v 0.00438876 -0.05023835 0.00658392
v 0.00690638 -0.05297944 0.01054127
v 0.00467470 -0.05090076 0.01252735
v 0.00338806 -0.05137022 0.01666260
v 0.00720607 -0.04778869 -0.00664257
v 0.00560533 -0.04608042 -0.00883867
v 0.00419834 -0.04571617 -0.00302262
v 0.00646846 -0.04575637 -0.00489056
v 0.00402202 -0.04594940 0.00307486
v 0.00625419 -0.04602460 0.00476647
v 0.00681078 -0.04833156 0.00688350
v 0.00652556 -0.04785249 0.01158846
v 0.00368190 -0.04617014 0.01549069
v 0.00601247 -0.04523382 0.01323578
v 0.00679502 -0.04369095 -0.00650946
v 0.00371032 -0.04175796 -0.00567241
v 0.00345197 -0.04108382 -0.00155840
v 0.00346087 -0.04163130 0.00254452
v 0.00676024 -0.04358290 0.00642147
v 0.00397270 -0.04141247 0.00774300
v 0.00710371 -0.04365888 0.01056563
v 0.00403164 -0.04205374 0.01249066
v 0.00668610 -0.01156324 -0.00614984
v 0.00521915 -0.00966462 -0.00862185
v 0.00337950 -0.00914072 -0.00174279
v 0.00563453 -0.01174415 -0.00211579
v 0.00559326 -0.01170085 0.00354595
v 0.00372666 -0.00934598 0.00628161
v 0.00612826 -0.00858506 0.00422092
v 0.00605506 -0.00542271 -0.00873326
v 0.00334578 -0.00451733 -0.00259900
v 0.00406928 -0.00559943 0.00177549
v 0.00683613 -0.00444629 0.00409971
v 0.00318095 -0.00593261 0.00766050
v 0.00592163 -0.00066707 -0.00856027
v 0.00307787 -0.00046007 -0.00168427
v 0.00526526 0.00000109 0.00444536
v 0.00306402 -0.00176175 0.00670897
v 0.00572536 0.00336057 -0.00906930
v 0.00258755 0.00380939 -0.00198345
v 0.00625944 0.00453491 0.00497979
v 0.00619859 0.00680280 -0.01537976
v 0.00554973 0.00904186 -0.01802890
v 0.00560413 0.00572572 -0.01180278
v 0.00478180 0.00663704 0.00756282
v 0.00451343 0.00815412 0.01137518
v 0.00680118 0.00886647 0.00897436
v 0.00363944 0.00826909 0.01509052
v 0.00559799 0.01343851 -0.01866396
v 0.00339338 0.01399762 -0.00666500
v 0.00367238 0.01303641 -0.00242065
v 0.00336773 0.01315629 0.00216214
v 0.00672874 0.00979776 0.01205200
v 0.00625804 0.01048448 0.01593662
v 0.00538513 0.01353654 0.01806809
v 0.00621989 0.01749313 -0.01856569
v 0.00384138 0.01878502 -0.00638609
v 0.00438500 0.01753075 -0.00232313
v 0.00436646 0.01757646 0.00255877
v 0.00388779 0.01738847 0.00719204
v 0.00337841 0.01759221 0.01113797
v 0.00583044 0.01866881 0.01812362
v 0.00607060 0.02224069 -0.01863932
v 0.00338656 0.02262901 -0.00579574
v 0.00385684 0.02198963 -0.00219500
v 0.00381077 0.02201345 0.00252797
v 0.00381206 0.02213592 0.00739268
v 0.00356537 0.02110726 0.01169714
v 0.00574705 0.02346319 0.01821351
v 0.00646628 0.02692039 -0.01826757
v 0.00529338 0.02703952 0.01785007
v 0.00628010 0.02952885 -0.01575818
v 0.00339862 0.03207936 -0.01489616
v 0.00596241 0.02973519 -0.01215729
v 0.00429631 0.03123348 -0.01083767
v 0.00666970 0.02900442 -0.00799942
v 0.00460364 0.03180745 -0.00714579
v 0.00583565 0.02906586 -0.00329122
v 0.00457021 0.03161968 -0.00188186
v 0.00635548 0.02914657 0.00206853
v 0.00436126 0.03128806 0.00300808
v 0.00661091 0.02975213 0.00714197
v 0.00390256 0.03182821 0.00757699
v 0.00570928 0.02977000 0.01187163
v 0.00332991 0.03107717 0.01226200
v 0.00710181 0.02851839 0.01540426
v 0.00385814 0.03577834 -0.01161125
v 0.00587471 0.03522584 -0.00871182
v 0.00614576 0.03354244 -0.00569573
v 0.00591655 0.03398715 -0.00216744
v 0.00393173 0.03477850 0.00264348
v 0.00671608 0.03634784 0.00024550
v 0.00407316 0.04155040 -0.01169608
v 0.00635820 0.03911415 -0.00939946
v 0.00329954 0.04114727 -0.00292632
v 0.00562293 0.03839466 0.00351566
v 0.00415282 0.04034208 0.00649024
v 0.00650968 0.04177954 0.00461261
v 0.00410446 0.04624732 -0.01173246
v 0.00646604 0.04383717 -0.00937790
v 0.00329007 0.04419850 -0.00215359
v 0.00424832 0.04387722 0.00727719
v 0.00659261 0.04626379 0.00504487
v 0.00414980 0.04986203 -0.01105999
v 0.00654983 0.04839321 -0.00899694
v 0.00402216 0.04840036 0.00744307
v 0.00599194 0.04993174 0.00514182
v 0.00549624 0.05140054 -0.00769146
v 0.00617536 0.05166673 -0.00307869
v 0.00574302 0.05147880 0.00208534
v 0.01129946 -0.05659252 -0.00629304
v 0.01026170 -0.05555344 -0.00836671
v 0.00889745 -0.05515462 -0.00214500
v 0.01040836 -0.05670385 -0.00271678
v 0.00899502 -0.05502666 0.00213375
v 0.01073803 -0.05661423 0.00283178
v 0.01016545 -0.05679922 0.00802194
v 0.00841687 -0.05559435 0.01127663
v 0.01056573 -0.05483413 0.00923763
v 0.01018500 -0.05368825 -0.00734232
v 0.01069649 -0.05354612 -0.00294882
v 0.01038965 -0.05351192 0.00273995
v 0.01060360 -0.05346359 0.00699002
v 0.01128113 -0.04748179 -0.00630742
v 0.01018415 -0.04635716 -0.00840005
v 0.00890457 -0.04599968 -0.00216677
v 0.01040540 -0.04757997 -0.00273338
v 0.00884038 -0.04592241 0.00208160
v 0.01061051 -0.04752462 0.00282569
v 0.00996441 -0.04766794 0.00799171
v 0.00835289 -0.04634032 0.01126861
v 0.01053620 -0.04569336 0.00925590
v 0.01014891 -0.04446179 -0.00738102
v 0.01069620 -0.04442154 -0.00295917
v 0.01035040 -0.04440199 0.00269612
v 0.01067457 -0.04432608 0.00694329
v 0.00820723 -0.00873881 -0.00653410
v 0.00855979 -0.00962934 -0.00228035
v 0.00805561 -0.01014864 0.00171155
v 0.00839374 -0.00428379 -0.00644161
v 0.00897342 -0.00536816 -0.00220992
v 0.00845676 -0.00638707 0.00218527
v 0.00825716 0.00035141 -0.00632044
v 0.00885624 -0.00067824 -0.00217002
v 0.00825446 -0.00160088 0.00214847
v 0.00808996 0.00495189 -0.00709847
v 0.00869078 0.00392518 -0.00212026
v 0.00818268 0.00363082 0.00254743
v 0.00862733 0.00866838 -0.01639756
v 0.00848476 0.00815683 -0.01168373
v 0.00834932 0.00900921 -0.00622925
v 0.00845571 0.00849475 -0.00202592
v 0.00854556 0.00793234 0.00197303
v 0.00830853 0.00866571 0.00566454
v 0.01165898 0.01055786 -0.01492285
v 0.00958667 0.01246221 -0.01793544
v 0.01128701 0.01057327 -0.01094205
v 0.00868610 0.01262468 -0.00727733
v 0.01086496 0.01317930 -0.00878320
v 0.00822244 0.01305997 -0.00203014
v 0.00885773 0.01277852 0.00275388
v 0.01077610 0.01348177 0.00462696
v 0.01085793 0.01066526 0.00702742
v 0.01040502 0.01118897 0.01192887
v 0.00860953 0.01276182 0.01570359
v 0.01086315 0.01415986 0.01362777
v 0.01037768 0.01742948 -0.01796587
v 0.00873966 0.01754691 -0.00664460
v 0.01064865 0.01733335 -0.00863440
v 0.00811926 0.01770402 -0.00213993
v 0.00876730 0.01787914 0.00233229
v 0.01066865 0.01796330 0.00413272
v 0.00864398 0.01633381 0.01627257
v 0.01083141 0.01864434 0.01386898
v 0.01022388 0.02221390 -0.01801722
v 0.00884402 0.02221947 -0.00661486
v 0.01073001 0.02208651 -0.00845784
v 0.00817999 0.02238452 -0.00215390
v 0.00876406 0.02251267 0.00232445
v 0.01062820 0.02266930 0.00424198
v 0.00867803 0.02114680 0.01626500
v 0.01086475 0.02348586 0.01391727
v 0.01076847 0.02604027 -0.01760917
v 0.00829515 0.02625612 -0.00641069
v 0.01049170 0.02627800 -0.00837908
v 0.00762602 0.02638570 -0.00213295
v 0.00852260 0.02652018 0.00249076
v 0.01095405 0.02676021 0.00446398
v 0.00835504 0.02565861 0.01642184
v 0.01026753 0.02709960 0.01407431
v 0.01052453 0.02859033 -0.01572566
v 0.01058794 0.02888973 -0.01088153
v 0.01053427 0.02901288 0.00618563
v 0.01069288 0.02880336 0.01101135
v 0.00788524 0.03690339 -0.00647744
v 0.00793227 0.03610716 -0.00271825
v 0.00829108 0.04139540 -0.00640897
v 0.00887536 0.04022834 -0.00226741
v 0.00801463 0.03946176 0.00132394
v 0.00838096 0.04619046 -0.00629432
v 0.00896679 0.04505709 -0.00213697
v 0.00836845 0.04393667 0.00199113
v 0.00802144 0.04985764 -0.00578279
v 0.00849934 0.04930962 -0.00201895
v 0.00813549 0.04848192 0.00214931
v 0.01235997 -0.05469124 -0.00633057
v 0.01253890 -0.05506730 -0.00245115
v 0.01252893 -0.05513460 0.00240387
v 0.01238347 -0.05547674 0.00616645
v 0.01236223 -0.04560745 -0.00632989
v 0.01254421 -0.04598972 -0.00244624
v 0.01251391 -0.04605365 0.00241193
v 0.01230899 -0.04639220 0.00619610
v 0.01305890 0.01405886 -0.01621097
v 0.01495857 0.01260689 -0.01394579
v 0.01497729 0.01104804 -0.01139313
v 0.01307049 0.01349708 -0.00636330
v 0.01471311 0.01108443 -0.00739539
v 0.01375189 0.01325963 -0.00136073
v 0.01555691 0.01129787 -0.00247087
v 0.01284102 0.01293453 0.00268015
v 0.01514378 0.01129280 0.00272066
v 0.01451472 0.01121660 0.00777653
v 0.01321895 0.01271756 0.01094330
v 0.01562056 0.01411730 0.00906420
v 0.01325002 0.01855745 -0.01617702
v 0.01558835 0.01619299 -0.01387499
v 0.01251985 0.01848479 -0.00669077
v 0.01312233 0.01749788 -0.00231862
v 0.01254077 0.01663339 0.00198499
v 0.01314548 0.01636803 0.01157946
v 0.01552568 0.01874825 0.00940002
v 0.01319627 0.02339488 -0.01620025
v 0.01557812 0.02100957 -0.01386055
v 0.01258861 0.02334004 -0.00641791
v 0.01313397 0.02236717 -0.00209947
v 0.01248648 0.02142341 0.00225405
v 0.01314116 0.02123382 0.01157585
v 0.01557227 0.02361273 0.00938336
v 0.01323610 0.02713549 -0.01559667
v 0.01563809 0.02570705 -0.01358284
v 0.01287521 0.02703205 -0.00707403
v 0.01378580 0.02664246 -0.00309574
v 0.01311321 0.02639381 0.00199471
v 0.01294444 0.02577351 0.01167567
v 0.01500717 0.02725493 0.00947376
v 0.01452252 0.02869245 -0.01230241
v 0.01516718 0.02861767 -0.00717205
v 0.01558600 0.02858032 -0.00192609
v 0.01481134 0.02882570 0.00303869
v 0.01507314 0.02884144 0.00699565
v 0.01706338 0.01394345 -0.01101764
v 0.01730686 0.01306832 -0.00695106
v 0.01732972 0.01314950 -0.00227611
v 0.01742292 0.01320460 0.00237038
v 0.01701449 0.01268839 0.00601724
v 0.01734197 0.01848111 -0.01098073
v 0.01788330 0.01735909 -0.00688796
v 0.01788158 0.01747911 -0.00216998
v 0.01790281 0.01757106 0.00254442
v 0.01740400 0.01643836 0.00656650
v 0.01740468 0.02342111 -0.01095350
v 0.01790153 0.02229322 -0.00692791
v 0.01788385 0.02238283 -0.00221909
v 0.01789006 0.02250836 0.00250020
v 0.01734438 0.02137734 0.00659462
v 0.01702175 0.02720552 -0.01047087
v 0.01742670 0.02666989 -0.00677223
v 0.01735189 0.02672058 -0.00210351
v 0.01738035 0.02682298 0.00256665
v 0.01714854 0.02595229 0.00660304
f 3 2 1
f 5 4 1
f 5 1 2
f 7 6 4
f 7 4 5
f 9 8 6
f 9 6 7
f 10 8 9
f 3 1 11
f 3 11 12
f 13 1 4
f 11 1 13
f 14 4 6
f 13 4 14
f 15 6 8
f 14 6 15
f 8 10 16
f 8 16 15
f 12 11 17
f 12 17 18
f 19 11 13
f 17 11 19
f 20 13 14
f 19 13 20
f 21 14 15
f 20 14 21
f 15 16 22
f 15 22 21
f 18 17 23
f 18 23 24
f 25 17 19
f 23 17 25
f 26 19 20
f 25 19 26
f 21 28 27
f 26 21 27
f 20 21 26
f 28 21 22
f 29 24 23
f 29 23 25
f 29 25 30
f 30 25 26
f 30 26 31
f 31 26 27
f 34 33 32
f 36 35 32
f 36 32 33
f 38 37 35
f 38 35 36
f 39 37 38
f 34 32 40
f 34 40 41
f 42 32 35
f 40 32 42
f 43 35 37
f 42 35 43
f 37 39 44
f 45 37 44
f 43 37 45
f 46 45 44
f 41 40 47
f 41 47 48
f 49 40 42
f 47 40 49
f 50 42 43
f 49 42 50
f 51 43 45
f 50 43 51
f 45 46 52
f 45 52 51
f 53 48 47
f 53 47 49
f 53 49 54
f 54 49 50
f 54 50 55
f 55 50 51
f 55 51 56
f 56 51 52
f 59 58 57
f 61 60 57
f 61 57 58
f 62 60 61
f 59 57 2
f 3 59 2
f 63 59 3
f 2 57 5
f 5 57 60
f 62 64 60
f 64 5 60
f 64 7 5
f 7 65 9
f 64 65 7
f 67 66 10
f 9 67 10
f 65 67 9
f 68 66 67
f 12 63 3
f 12 69 63
f 70 16 66
f 66 16 10
f 66 68 71
f 66 71 70
f 18 69 12
f 18 72 69
f 73 22 70
f 70 22 16
f 70 71 74
f 70 74 73
f 24 72 18
f 24 75 72
f 77 76 28
f 28 76 27
f 28 22 73
f 78 28 73
f 77 28 78
f 78 73 74
f 79 75 24
f 79 24 29
f 80 29 30
f 80 79 29
f 81 30 31
f 81 80 30
f 31 27 76
f 31 76 81
f 84 83 82
f 86 85 82
f 86 82 83
f 88 87 85
f 88 85 86
f 90 89 87
f 90 87 88
f 91 89 90
f 84 82 92
f 84 92 93
f 85 95 94
f 92 85 94
f 82 85 92
f 97 96 95
f 85 97 95
f 87 97 85
f 98 87 89
f 97 87 98
f 89 91 99
f 89 99 98
f 93 92 100
f 93 100 101
f 92 94 102
f 103 92 102
f 100 92 103
f 103 102 96
f 97 103 96
f 104 103 97
f 105 97 98
f 104 97 105
f 98 99 106
f 98 106 105
f 101 100 107
f 101 107 108
f 109 100 103
f 107 100 109
f 110 103 104
f 109 103 110
f 111 104 105
f 110 104 111
f 105 106 112
f 105 112 111
f 113 108 107
f 113 107 109
f 113 109 114
f 114 109 110
f 114 110 115
f 115 110 111
f 115 111 116
f 116 111 112
f 118 117 33
f 118 33 34
f 33 119 36
f 117 119 33
f 36 120 38
f 119 120 36
f 122 121 39
f 38 122 39
f 120 122 38
f 123 121 122
f 126 125 124
f 125 118 124
f 118 41 124
f 118 34 41
f 121 44 39
f 46 44 121
f 123 46 121
f 127 46 123
f 126 124 128
f 126 128 129
f 48 128 41
f 41 128 124
f 127 52 46
f 130 52 127
f 131 129 128
f 133 131 132
f 132 131 53
f 131 128 53
f 128 48 53
f 54 134 53
f 53 134 132
f 55 135 54
f 54 135 134
f 56 136 55
f 55 136 135
f 137 136 56
f 52 137 56
f 130 137 52
f 138 133 132
f 138 132 134
f 138 134 139
f 139 134 135
f 139 135 140
f 140 135 136
f 140 136 141
f 141 136 137
f 144 143 142
f 146 145 142
f 146 142 143
f 148 147 145
f 148 145 146
f 150 149 147
f 150 147 148
f 152 151 149
f 152 149 150
f 153 151 152
f 144 142 154
f 144 154 155
f 156 142 145
f 154 142 156
f 157 145 147
f 156 145 157
f 158 147 149
f 157 147 158
f 159 149 151
f 158 149 159
f 151 153 160
f 151 160 159
f 155 154 161
f 155 161 162
f 163 154 156
f 161 154 163
f 164 156 157
f 163 156 164
f 165 157 158
f 164 157 165
f 166 158 159
f 165 158 166
f 159 160 167
f 159 167 166
f 162 161 168
f 162 168 169
f 170 161 163
f 168 161 170
f 171 163 164
f 170 163 171
f 172 164 165
f 171 164 172
f 173 165 166
f 172 165 173
f 166 167 174
f 166 174 173
f 175 169 168
f 175 168 170
f 175 170 176
f 176 170 171
f 176 171 177
f 177 171 172
f 177 172 178
f 178 172 173
f 178 173 179
f 179 173 174
f 182 181 180
f 184 183 180
f 184 180 181
f 186 185 183
f 186 183 184
f 188 187 185
f 188 185 186
f 190 189 187
f 190 187 188
f 191 189 190
f 192 182 180
f 194 193 192
f 180 194 192
f 183 194 180
f 195 183 185
f 194 183 195
f 187 197 196
f 195 187 196
f 185 187 195
f 199 198 197
f 187 199 197
f 189 199 187
f 189 191 200
f 189 200 199
f 193 194 201
f 193 201 202
f 203 194 195
f 201 194 203
f 195 196 204
f 195 204 203
f 198 199 205
f 198 205 206
f 199 200 207
f 199 207 205
f 210 209 208
f 208 209 202
f 201 208 202
f 211 208 201
f 212 201 203
f 211 201 212
f 203 204 213
f 214 203 213
f 212 203 214
f 214 213 206
f 205 214 206
f 215 214 205
f 205 207 216
f 205 216 215
f 217 210 208
f 217 208 211
f 217 211 218
f 218 211 212
f 218 212 219
f 219 212 214
f 219 214 220
f 220 214 215
f 220 215 221
f 221 215 216
f 223 222 58
f 223 58 59
f 58 224 61
f 222 224 58
f 226 225 62
f 61 226 62
f 224 226 61
f 228 227 225
f 228 225 226
f 229 227 228
f 63 223 59
f 63 230 223
f 225 64 62
f 64 225 65
f 65 225 227
f 229 231 227
f 231 65 227
f 231 67 65
f 233 232 68
f 67 233 68
f 231 233 67
f 234 232 233
f 69 230 63
f 69 235 230
f 236 71 232
f 232 71 68
f 232 234 237
f 232 237 236
f 72 235 69
f 72 238 235
f 239 74 236
f 236 74 71
f 236 237 240
f 236 240 239
f 75 238 72
f 75 241 238
f 242 76 77
f 78 243 77
f 77 243 242
f 244 243 78
f 244 78 74
f 245 244 74
f 239 245 74
f 245 239 240
f 246 241 75
f 246 75 79
f 247 79 80
f 247 246 79
f 248 80 81
f 248 247 80
f 81 76 242
f 249 81 242
f 248 81 249
f 249 242 243
f 249 243 250
f 250 243 244
f 252 251 83
f 252 83 84
f 83 253 86
f 251 253 83
f 86 254 88
f 253 254 86
f 88 255 90
f 254 255 88
f 91 90 255
f 91 255 256
f 93 252 84
f 93 257 252
f 259 258 95
f 95 258 94
f 261 260 96
f 260 95 96
f 260 259 95
f 261 262 260
f 256 99 91
f 263 99 256
f 101 257 93
f 101 264 257
f 102 94 265
f 94 266 265
f 94 258 266
f 261 96 102
f 265 261 102
f 267 261 265
f 262 261 268
f 268 261 267
f 263 106 99
f 269 106 263
f 108 264 101
f 108 270 264
f 266 271 265
f 265 271 267
f 267 271 272
f 267 272 268
f 269 112 106
f 273 112 269
f 274 270 108
f 274 108 113
f 275 113 114
f 275 274 113
f 276 114 115
f 276 275 114
f 277 115 116
f 277 276 115
f 116 112 273
f 116 273 277
f 280 279 278
f 117 118 278
f 279 117 278
f 281 117 279
f 117 282 119
f 281 282 117
f 119 283 120
f 282 283 119
f 120 284 122
f 283 284 120
f 123 122 284
f 123 284 285
f 280 278 125
f 126 280 125
f 286 280 126
f 125 278 118
f 288 127 287
f 127 285 287
f 127 123 285
f 289 288 287
f 129 286 126
f 129 290 286
f 291 130 288
f 288 130 127
f 288 289 292
f 288 292 291
f 293 290 129
f 293 129 131
f 131 133 293
f 293 133 294
f 296 295 291
f 295 130 291
f 295 137 130
f 296 291 292
f 299 298 297
f 300 297 138
f 297 294 138
f 294 133 138
f 294 297 298
f 139 301 138
f 138 301 300
f 140 302 139
f 139 302 301
f 141 303 140
f 140 303 302
f 137 295 304
f 303 137 304
f 305 303 304
f 141 137 303
f 306 305 304
f 299 297 143
f 144 299 143
f 307 299 144
f 143 297 146
f 146 297 300
f 146 300 148
f 148 300 301
f 148 301 150
f 150 301 302
f 150 302 152
f 152 302 303
f 152 303 153
f 303 308 153
f 303 305 308
f 305 306 309
f 310 305 309
f 308 305 310
f 311 310 309
f 155 313 312
f 307 155 312
f 144 155 307
f 315 314 313
f 313 314 312
f 317 316 315
f 315 316 314
f 319 318 317
f 317 318 316
f 321 320 319
f 319 320 318
f 153 321 160
f 321 153 320
f 308 320 153
f 320 308 322
f 323 322 308
f 324 308 310
f 323 308 324
f 310 311 325
f 310 325 324
f 162 326 313
f 162 313 155
f 313 327 315
f 313 326 327
f 315 328 317
f 315 327 328
f 317 329 319
f 317 328 329
f 319 330 321
f 319 329 330
f 330 160 321
f 160 330 167
f 322 323 331
f 332 331 323
f 333 323 324
f 332 323 333
f 324 325 334
f 324 334 333
f 336 335 326
f 162 336 326
f 169 336 162
f 326 335 327
f 327 335 337
f 327 337 328
f 328 337 338
f 328 338 329
f 329 338 339
f 329 339 330
f 330 339 340
f 167 330 174
f 340 174 330
f 174 340 341
f 331 341 340
f 341 331 332
f 342 332 333
f 341 332 342
f 333 334 343
f 333 343 342
f 344 336 169
f 344 169 175
f 345 175 176
f 345 344 175
f 346 176 177
f 346 345 176
f 347 177 178
f 347 346 177
f 348 178 179
f 348 347 178
f 179 174 341
f 349 179 341
f 348 179 349
f 349 341 342
f 349 342 350
f 350 342 343
f 352 351 181
f 352 181 182
f 181 353 184
f 351 353 181
f 184 354 186
f 353 354 184
f 186 355 188
f 354 355 186
f 188 356 190
f 355 356 188
f 191 190 356
f 191 356 357
f 358 352 182
f 358 182 192
f 192 193 358
f 358 193 359
f 362 361 360
f 196 197 360
f 197 362 360
f 197 363 362
f 197 198 363
f 363 198 364
f 357 200 191
f 365 200 357
f 202 359 193
f 202 366 359
f 360 361 367
f 367 361 368
f 367 204 196
f 367 196 360
f 206 364 198
f 206 369 364
f 365 207 200
f 370 207 365
f 372 371 209
f 372 209 210
f 202 209 366
f 366 209 371
f 368 373 367
f 367 373 204
f 373 213 204
f 373 374 213
f 206 213 369
f 369 213 374
f 370 216 207
f 375 216 370
f 376 372 210
f 376 210 217
f 377 217 218
f 377 376 217
f 378 218 219
f 378 377 218
f 379 219 220
f 379 378 219
f 380 220 221
f 380 379 220
f 221 216 375
f 221 375 380
f 382 381 222
f 382 222 223
f 222 383 224
f 381 383 222
f 224 384 226
f 383 384 224
f 226 385 228
f 384 385 226
f 229 228 385
f 229 385 386
f 230 382 223
f 230 387 382
f 386 388 229
f 229 388 231
f 231 389 233
f 388 389 231
f 234 233 389
f 234 389 390
f 235 387 230
f 235 391 387
f 390 237 234
f 392 237 390
f 238 391 235
f 238 393 391
f 392 240 237
f 394 240 392
f 241 393 238
f 241 395 393
f 397 396 245
f 245 396 244
f 245 240 394
f 245 394 397
f 398 395 241
f 398 241 246
f 399 246 247
f 399 398 246
f 400 247 248
f 400 399 247
f 401 248 249
f 401 400 248
f 402 249 250
f 402 401 249
f 250 244 396
f 250 396 402
f 252 403 251
f 404 253 251
f 404 251 403
f 405 254 253
f 405 253 404
f 406 255 254
f 406 254 405
f 406 256 255
f 257 407 403
f 257 403 252
f 407 258 259
f 404 407 259
f 403 407 404
f 404 259 260
f 404 260 405
f 405 260 262
f 408 405 262
f 406 405 408
f 408 263 256
f 408 256 406
f 264 409 407
f 264 407 257
f 409 266 258
f 409 258 407
f 268 410 408
f 268 408 262
f 410 269 263
f 410 263 408
f 270 411 409
f 270 409 264
f 412 271 266
f 409 412 266
f 411 412 409
f 413 272 271
f 413 271 412
f 410 268 272
f 413 410 272
f 414 410 413
f 414 273 269
f 414 269 410
f 274 411 270
f 411 274 275
f 411 275 412
f 412 275 276
f 412 276 413
f 413 276 277
f 413 277 414
f 414 277 273
f 280 415 279
f 279 415 416
f 417 279 416
f 281 279 417
f 417 419 418
f 282 417 418
f 281 417 282
f 282 418 420
f 421 282 420
f 283 282 421
f 283 422 284
f 421 422 283
f 285 284 422
f 285 422 423
f 286 424 415
f 286 415 280
f 416 415 425
f 425 415 424
f 418 419 426
f 426 419 427
f 420 418 428
f 418 429 428
f 418 426 429
f 429 430 428
f 287 285 431
f 285 432 431
f 285 423 432
f 431 289 287
f 290 433 424
f 290 424 286
f 425 424 434
f 434 424 433
f 426 427 435
f 435 427 436
f 438 429 437
f 429 435 437
f 429 426 435
f 429 438 430
f 431 432 439
f 439 432 440
f 439 292 289
f 439 289 431
f 293 433 290
f 293 294 433
f 294 434 433
f 294 441 434
f 435 436 442
f 442 436 443
f 437 435 444
f 444 435 442
f 447 446 445
f 447 445 440
f 440 445 439
f 445 295 439
f 295 296 439
f 439 296 292
f 450 449 448
f 298 299 448
f 449 298 448
f 451 298 449
f 294 298 441
f 441 298 451
f 443 452 442
f 442 452 444
f 446 453 445
f 445 453 295
f 453 304 295
f 453 454 304
f 456 455 306
f 304 456 306
f 454 456 304
f 457 455 456
f 450 448 458
f 450 458 459
f 307 458 299
f 299 458 448
f 462 461 460
f 464 463 460
f 460 463 462
f 466 465 464
f 464 465 463
f 466 467 465
f 455 309 306
f 311 309 455
f 457 311 455
f 468 311 457
f 459 458 469
f 459 469 470
f 312 471 307
f 471 458 307
f 471 469 458
f 461 472 460
f 472 312 460
f 312 314 460
f 312 472 471
f 460 314 316
f 460 316 464
f 464 316 318
f 464 318 466
f 473 467 466
f 318 473 466
f 320 473 318
f 475 474 322
f 474 320 322
f 474 473 320
f 475 476 474
f 468 325 311
f 477 325 468
f 470 469 478
f 470 478 479
f 480 469 471
f 478 469 480
f 471 472 481
f 471 481 480
f 331 482 475
f 331 475 322
f 476 475 483
f 483 475 482
f 477 334 325
f 484 334 477
f 479 478 485
f 479 485 486
f 336 485 335
f 485 480 335
f 485 478 480
f 481 487 480
f 487 335 480
f 487 337 335
f 337 488 338
f 487 488 337
f 338 489 339
f 488 489 338
f 339 490 340
f 489 490 339
f 331 340 482
f 340 491 482
f 340 490 491
f 482 491 483
f 484 343 334
f 492 343 484
f 486 485 493
f 486 493 494
f 344 495 336
f 495 485 336
f 495 493 485
f 345 496 344
f 344 496 495
f 346 497 345
f 345 497 496
f 347 498 346
f 346 498 497
f 348 499 347
f 347 499 498
f 349 500 348
f 348 500 499
f 500 349 501
f 349 502 501
f 349 350 502
f 350 343 492
f 350 492 502
f 503 494 493
f 352 504 351
f 504 493 351
f 493 495 351
f 504 503 493
f 351 495 353
f 353 495 496
f 353 496 354
f 354 496 497
f 354 497 355
f 355 497 498
f 355 505 356
f 505 355 506
f 498 506 355
f 506 498 507
f 499 507 498
f 507 509 508
f 509 505 508
f 357 508 505
f 508 357 500
f 356 500 357
f 500 356 509
f 509 499 500
f 507 499 509
f 509 356 505
f 508 500 501
f 352 358 510
f 511 352 510
f 504 352 511
f 359 510 358
f 513 512 362
f 362 512 361
f 515 513 514
f 513 363 514
f 513 362 363
f 506 516 505
f 514 363 364
f 357 505 516
f 517 357 516
f 365 357 517
f 511 510 518
f 511 518 519
f 366 518 359
f 359 518 510
f 512 368 361
f 520 368 512
f 515 514 521
f 515 521 522
f 369 521 364
f 364 521 514
f 517 370 365
f 523 370 517
f 519 518 371
f 372 519 371
f 524 519 372
f 371 518 366
f 520 525 368
f 368 525 373
f 521 374 522
f 374 525 522
f 374 373 525
f 374 521 369
f 523 375 370
f 526 375 523
f 527 524 372
f 527 372 376
f 528 376 377
f 528 527 376
f 529 377 378
f 529 528 377
f 530 378 379
f 530 529 378
f 531 379 380
f 531 530 379
f 380 375 526
f 380 526 531
f 382 532 381
f 533 383 381
f 533 381 532
f 534 384 383
f 534 383 533
f 535 385 384
f 535 384 534
f 535 386 385
f 537 536 532
f 382 537 532
f 387 537 382
f 539 538 536
f 538 532 536
f 538 533 532
f 533 540 534
f 533 538 540
f 542 535 541
f 535 540 541
f 535 534 540
f 535 542 386
f 542 388 386
f 542 543 388
f 543 545 544
f 389 543 544
f 388 543 389
f 544 390 389
f 391 547 546
f 537 391 546
f 387 391 537
f 546 547 539
f 547 538 539
f 547 548 538
f 538 549 540
f 538 548 549
f 541 540 550
f 540 551 550
f 540 549 551
f 553 552 551
f 551 552 550
f 552 553 545
f 553 544 545
f 553 554 544
f 554 392 390
f 554 390 544
f 556 555 547
f 391 556 547
f 393 556 391
f 558 557 555
f 557 547 555
f 557 548 547
f 548 559 549
f 548 557 559
f 561 551 560
f 551 559 560
f 551 549 559
f 551 561 553
f 553 561 562
f 564 563 562
f 563 553 562
f 563 554 553
f 563 394 392
f 563 392 554
f 395 566 565
f 556 395 565
f 393 395 556
f 565 566 558
f 566 557 558
f 566 567 557
f 557 568 559
f 557 567 568
f 560 559 569
f 559 570 569
f 559 568 570
f 572 571 570
f 570 571 569
f 571 572 564
f 564 572 563
f 572 396 563
f 396 397 563
f 563 397 394
f 398 566 395
f 566 398 399
f 566 399 567
f 567 399 400
f 567 400 568
f 568 400 401
f 568 401 570
f 570 401 402
f 570 402 572
f 572 402 396
f 574 573 417
f 574 417 416
f 576 575 419
f 417 576 419
f 573 576 417
f 421 420 575
f 576 421 575
f 577 421 576
f 577 579 578
f 422 577 578
f 421 577 422
f 578 423 422
f 425 574 416
f 425 580 574
f 581 427 575
f 575 427 419
f 428 582 420
f 582 575 420
f 582 581 575
f 583 582 579
f 428 579 582
f 579 428 578
f 430 578 428
f 578 430 584
f 584 432 423
f 584 423 578
f 434 580 425
f 434 585 580
f 586 436 581
f 581 436 427
f 437 586 438
f 586 582 438
f 586 581 582
f 587 582 583
f 582 587 438
f 588 438 587
f 438 588 430
f 584 430 588
f 588 440 432
f 588 432 584
f 441 585 434
f 441 589 585
f 590 443 586
f 586 443 436
f 444 590 437
f 437 590 586
f 588 587 447
f 587 446 447
f 587 591 446
f 588 447 440
f 593 592 449
f 593 449 450
f 449 594 451
f 592 594 449
f 441 451 589
f 589 451 594
f 590 452 443
f 452 590 444
f 591 595 446
f 446 595 453
f 595 597 596
f 454 595 596
f 453 595 454
f 598 456 454
f 598 454 596
f 598 457 456
f 459 593 450
f 459 599 593
f 600 461 462
f 463 601 462
f 462 601 600
f 465 602 463
f 463 602 601
f 467 602 465
f 597 603 596
f 596 603 598
f 598 603 604
f 457 598 604
f 605 457 604
f 468 457 605
f 470 599 459
f 470 606 599
f 607 472 600
f 600 472 461
f 608 600 601
f 607 600 608
f 609 601 602
f 608 601 609
f 473 610 467
f 610 602 467
f 610 609 602
f 474 611 473
f 473 611 610
f 476 611 474
f 605 477 468
f 612 477 605
f 479 606 470
f 479 613 606
f 614 481 607
f 607 481 472
f 615 607 608
f 614 607 615
f 616 608 609
f 615 608 616
f 617 609 610
f 616 609 617
f 618 610 611
f 617 610 618
f 483 618 476
f 476 618 611
f 612 484 477
f 619 484 612
f 486 613 479
f 486 620 613
f 614 487 481
f 487 614 488
f 488 614 615
f 488 615 489
f 489 615 616
f 489 616 490
f 490 616 617
f 490 617 491
f 491 617 618
f 491 618 483
f 619 492 484
f 621 492 619
f 494 623 622
f 620 494 622
f 486 494 620
f 625 624 623
f 623 624 622
f 627 626 625
f 625 626 624
f 629 628 627
f 627 628 626
f 631 630 629
f 629 630 628
f 633 632 631
f 631 632 630
f 635 634 633
f 633 634 632
f 501 502 635
f 502 634 635
f 502 636 634
f 502 492 621
f 502 621 636
f 503 623 494
f 623 503 504
f 637 623 504
f 625 623 637
f 639 627 638
f 627 637 638
f 627 625 637
f 627 639 629
f 629 639 640
f 642 641 640
f 641 629 640
f 641 631 629
f 641 506 507
f 633 641 507
f 631 641 633
f 633 507 508
f 633 508 635
f 635 508 501
f 511 643 637
f 511 637 504
f 638 637 644
f 644 637 643
f 645 512 513
f 642 646 641
f 645 513 515
f 646 648 647
f 646 647 516
f 641 646 516
f 506 641 516
f 647 517 516
f 519 649 643
f 519 643 511
f 644 643 650
f 650 643 649
f 651 520 645
f 645 520 512
f 522 651 515
f 515 651 645
f 647 648 652
f 652 648 653
f 652 523 517
f 652 517 647
f 524 654 649
f 524 649 519
f 650 649 655
f 655 649 654
f 651 525 520
f 525 651 522
f 652 653 656
f 656 653 657
f 656 526 523
f 656 523 652
f 527 654 524
f 658 655 654
f 527 658 654
f 528 658 527
f 659 528 529
f 659 658 528
f 660 529 530
f 660 659 529
f 531 656 657
f 660 531 657
f 530 531 660
f 656 531 526
f 662 661 536
f 662 536 537
f 664 663 539
f 536 664 539
f 661 664 536
f 666 665 663
f 666 663 664
f 542 541 665
f 666 542 665
f 667 542 666
f 667 669 668
f 543 667 668
f 542 667 543
f 668 545 543
f 670 662 537
f 670 537 546
f 546 539 663
f 671 546 663
f 670 546 671
f 671 663 665
f 671 665 672
f 672 665 541
f 550 672 541
f 673 672 550
f 552 668 669
f 673 552 669
f 550 552 673
f 668 552 545
f 675 674 555
f 675 555 556
f 677 676 558
f 555 677 558
f 674 677 555
f 679 678 676
f 679 676 677
f 561 560 678
f 679 561 678
f 680 561 679
f 680 682 681
f 562 680 681
f 561 680 562
f 681 564 562
f 683 675 556
f 683 556 565
f 565 558 676
f 684 565 676
f 683 565 684
f 684 676 678
f 684 678 685
f 685 678 560
f 569 685 560
f 686 685 569
f 571 681 682
f 686 571 682
f 569 571 686
f 681 571 564
f 574 687 573
f 688 576 573
f 688 573 687
f 689 577 576
f 689 576 688
f 689 579 577
f 580 690 687
f 580 687 574
f 687 691 688
f 687 690 691
f 688 692 689
f 688 691 692
f 692 583 579
f 692 579 689
f 585 693 690
f 585 690 580
f 690 694 691
f 690 693 694
f 691 695 692
f 691 694 695
f 695 587 583
f 695 583 692
f 589 696 693
f 589 693 585
f 693 697 694
f 693 696 697
f 694 698 695
f 694 697 698
f 698 591 587
f 698 587 695
f 593 699 592
f 700 594 592
f 700 592 699
f 696 589 594
f 700 696 594
f 701 696 700
f 696 702 697
f 696 701 702
f 697 703 698
f 697 702 703
f 704 595 591
f 698 704 591
f 703 704 698
f 704 597 595
f 706 705 699
f 593 706 699
f 599 706 593
f 699 705 700
f 700 705 707
f 709 708 707
f 708 700 707
f 708 701 700
f 701 710 702
f 701 708 710
f 702 711 703
f 702 710 711
f 713 704 712
f 704 711 712
f 704 703 711
f 704 713 597
f 713 603 597
f 713 714 603
f 714 716 715
f 604 714 715
f 603 714 604
f 715 605 604
f 606 706 599
f 606 717 706
f 708 709 718
f 718 709 719
f 708 720 710
f 708 718 720
f 710 721 711
f 710 720 721
f 712 711 722
f 722 711 721
f 715 716 723
f 723 716 724
f 723 612 605
f 723 605 715
f 613 717 606
f 613 725 717
f 718 719 726
f 726 719 727
f 718 728 720
f 718 726 728
f 720 729 721
f 720 728 729
f 722 721 730
f 730 721 729
f 723 724 731
f 731 724 732
f 731 619 612
f 731 612 723
f 620 725 613
f 620 733 725
f 726 727 734
f 734 727 735
f 726 736 728
f 726 734 736
f 728 737 729
f 728 736 737
f 730 729 738
f 738 729 737
f 731 732 739
f 739 732 740
f 739 621 619
f 739 619 731
f 741 733 620
f 741 620 622
f 742 622 624
f 742 741 622
f 626 734 735
f 742 626 735
f 624 626 742
f 734 626 628
f 734 628 736
f 736 628 630
f 736 630 737
f 743 738 737
f 630 743 737
f 632 743 630
f 744 632 634
f 744 743 632
f 636 739 740
f 744 636 740
f 634 636 744
f 739 636 621
f 638 745 639
f 746 640 639
f 746 639 745
f 746 642 640
f 644 747 745
f 644 745 638
f 745 748 746
f 745 747 748
f 749 646 642
f 746 749 642
f 748 749 746
f 749 648 646
f 650 750 747
f 650 747 644
f 747 751 748
f 747 750 751
f 748 752 749
f 748 751 752
f 752 653 648
f 752 648 749
f 655 753 750
f 655 750 650
f 750 754 751
f 750 753 754
f 751 755 752
f 751 754 755
f 755 657 653
f 755 653 752
f 658 753 655
f 753 658 659
f 753 659 754
f 754 659 660
f 754 660 755
f 755 660 657
f 662 756 661
f 757 664 661
f 757 661 756
f 758 666 664
f 758 664 757
f 759 667 666
f 759 666 758
f 759 669 667
f 670 756 662
f 756 670 671
f 756 671 757
f 757 671 672
f 757 672 758
f 758 672 673
f 758 673 759
f 759 673 669
f 675 760 674
f 761 677 674
f 761 674 760
f 762 679 677
f 762 677 761
f 763 680 679
f 763 679 762
f 763 682 680
f 683 760 675
f 760 683 684
f 760 684 761
f 761 684 685
f 761 685 762
f 762 685 686
f 762 686 763
f 763 686 682
f 706 764 705
f 705 764 765
f 766 705 765
f 707 705 766
f 768 767 709
f 707 768 709
f 766 768 707
f 770 769 767
f 770 767 768
f 772 771 769
f 772 769 770
f 713 712 771
f 772 713 771
f 773 713 772
f 773 775 774
f 714 773 774
f 713 773 714
f 774 716 714
f 717 776 764
f 717 764 706
f 765 764 777
f 777 764 776
f 778 719 767
f 767 719 709
f 779 767 769
f 778 767 779
f 780 769 771
f 779 769 780
f 722 780 712
f 712 780 771
f 774 775 781
f 781 775 782
f 781 724 716
f 781 716 774
f 725 783 776
f 725 776 717
f 777 776 784
f 784 776 783
f 785 727 778
f 778 727 719
f 786 778 779
f 785 778 786
f 787 779 780
f 786 779 787
f 730 787 722
f 722 787 780
f 781 782 788
f 788 782 789
f 788 732 724
f 788 724 781
f 733 790 783
f 733 783 725
f 784 783 791
f 791 783 790
f 792 735 785
f 785 735 727
f 793 785 786
f 792 785 793
f 794 786 787
f 793 786 794
f 738 794 730
f 730 794 787
f 788 789 795
f 795 789 796
f 795 740 732
f 795 732 788
f 741 790 733
f 797 791 790
f 741 797 790
f 742 797 741
f 742 735 792
f 798 742 792
f 797 742 798
f 798 792 793
f 798 793 799
f 799 793 794
f 799 794 800
f 800 794 738
f 743 800 738
f 801 800 743
f 744 795 796
f 801 744 796
f 743 744 801
f 795 744 740
f 765 802 766
f 803 768 766
f 803 766 802
f 804 770 768
f 804 768 803
f 805 772 770
f 805 770 804
f 806 773 772
f 806 772 805
f 806 775 773
f 777 807 802
f 777 802 765
f 802 808 803
f 802 807 808
f 803 809 804
f 803 808 809
f 804 810 805
f 804 809 810
f 805 811 806
f 805 810 811
f 811 782 775
f 811 775 806
f 784 812 807
f 784 807 777
f 807 813 808
f 807 812 813
f 808 814 809
f 808 813 814
f 809 815 810
f 809 814 815
f 810 816 811
f 810 815 816
f 816 789 782
f 816 782 811
f 791 817 812
f 791 812 784
f 812 818 813
f 812 817 818
f 813 819 814
f 813 818 819
f 814 820 815
f 814 819 820
f 815 821 816
f 815 820 821
f 821 796 789
f 821 789 816
f 797 817 791
f 817 797 798
f 817 798 818
f 818 798 799
f 818 799 819
f 819 799 800
f 819 800 820
f 820 800 801
f 820 801 821
f 821 801 796

