# https://github.com/mikedh/trimesh
v -0.02173470 -0.00756200 -0.00360299
v -0.02002032 -0.00972396 -0.00442443
v -0.02060386 -0.00771958 -0.00652132
v -0.02193091 -0.00788959 0.00087560
v -0.02030024 -0.01038884 -0.00102528
v -0.02167836 -0.00726475 0.00482227
v -0.02030597 -0.01011149 0.00280218
v -0.02001642 -0.00880324 0.00577951
v -0.02173448 -0.00449647 -0.00710595
v -0.02002005 -0.00592431 -0.00885681
v -0.02030064 -0.00297846 -0.01011016
v -0.02236126 -0.00371701 -0.00373492
v -0.02241894 -0.00427056 -0.00010374
v -0.02246614 -0.00412928 0.00415728
v -0.02061131 -0.00639134 0.00759485
v -0.02167908 -0.00376771 0.00776076
v -0.02001495 -0.00427095 0.00967148
v -0.02193118 -0.00013110 -0.00782718
v -0.02030609 0.00084645 -0.01036737
v -0.02241892 -0.00007205 -0.00418496
v -0.02238595 -0.00000020 0.00000002
v -0.02241892 0.00007173 0.00418506
v -0.02193085 0.00013096 0.00782756
v -0.02030440 -0.00084707 0.01036848
v -0.02167930 0.00376708 -0.00776080
v -0.02001715 0.00426948 -0.00967030
v -0.02246609 0.00412893 -0.00415726
v -0.02241895 0.00427019 0.00010383
v -0.02236123 0.00371668 0.00373505
v -0.02173302 0.00449688 0.00710722
v -0.02030001 0.00297736 0.01011147
v -0.02061266 0.00638980 -0.00759443
v -0.02001813 0.00880189 -0.00577816
v -0.02167882 0.00726361 -0.00482252
v -0.02193097 0.00788904 -0.00087561
v -0.02173365 0.00756229 0.00360375
v -0.02060304 0.00771976 0.00652162
v -0.02002074 0.00592242 0.00885683
v -0.02030675 0.01011049 -0.00280161
v -0.02029863 0.01038961 0.00102567
v -0.02001899 0.00972504 0.00442399
v -0.01746881 -0.01508144 0.00041543
v -0.01508102 -0.01746540 -0.00041791
v -0.01655403 -0.01570761 -0.00221984
v -0.01574205 -0.01654953 0.00220253
v -0.01760731 -0.01172047 -0.01110251
v -0.01638883 -0.01395288 -0.01202567
v -0.01613402 -0.01158904 -0.01399056
v -0.01767311 -0.01216288 -0.00755814
v -0.01626520 -0.01427258 -0.00914798
v -0.01826012 -0.01244808 -0.00347255
v -0.01623523 -0.01450808 -0.00516985
v -0.01884883 -0.01234359 0.00054815
v -0.01659016 -0.01484337 0.00355180
v -0.01828831 -0.01209619 0.00447945
v -0.01789432 -0.01169957 0.00895551
v -0.01633474 -0.01427697 0.00699898
v -0.01760092 -0.01140222 0.01211201
v -0.01568162 -0.01435179 0.01185316
v -0.01591597 -0.01229608 0.01429819
v -0.01771313 -0.00862340 -0.01228466
v -0.01627634 -0.00699999 -0.01433151
v -0.01881201 -0.00888240 -0.00834021
v -0.01889728 -0.00791108 0.00853196
v -0.01787040 -0.00810931 0.01162784
v -0.01637995 -0.00909330 0.01417373
v -0.01827118 -0.00454223 -0.01211025
v -0.01657802 -0.00357121 -0.01482029
v -0.01825651 -0.00342081 0.01244801
v -0.01629467 -0.00516461 0.01446146
v -0.01746880 -0.00042332 -0.01507904
v -0.01574173 -0.00220241 -0.01654457
v -0.01508133 0.00041939 -0.01746617
v -0.01884874 -0.00065280 -0.01233948
v -0.01884784 0.00065007 0.01234117
v -0.01654803 -0.00220549 0.01574254
v -0.01746353 0.00041915 0.01508355
v -0.01508077 -0.00041613 0.01746950
v -0.01654607 0.00219972 -0.01574279
v -0.01624560 0.00516506 -0.01450077
v -0.01825637 0.00341947 -0.01244812
v -0.01829621 0.00453112 0.01208818
v -0.01657845 0.00358377 0.01480800
v -0.01570710 0.00222062 0.01655491
v -0.01781308 0.00814572 -0.01165201
v -0.01631515 0.00913980 -0.01422022
v -0.01889073 0.00792135 -0.00852677
v -0.01885042 0.00885848 0.00831284
v -0.01779643 0.00860996 0.01219879
v -0.01631956 0.00706869 0.01424354
v -0.01753739 0.01146136 -0.01212897
v -0.01643172 0.01199058 -0.01392437
v -0.01784050 0.01176564 -0.00895134
v -0.01827815 0.01211368 -0.00447187
v -0.01884851 0.01234401 -0.00054680
v -0.01826205 0.01244578 0.00347359
v -0.01774098 0.01209592 0.00755011
v -0.01769010 0.01165353 0.01106798
v -0.01568322 0.01190637 0.01434210
v -0.01588201 0.01402658 -0.01203957
v -0.01629428 0.01433691 -0.00700566
v -0.01656389 0.01486161 -0.00356498
v -0.01570579 0.01655736 -0.00222540
v -0.01746414 0.01508344 -0.00041531
v -0.01655643 0.01570658 0.00222577
v -0.01628487 0.01445003 0.00519665
v -0.01633636 0.01417822 0.00913580
v -0.01587942 0.01431607 0.01233830
v -0.01508163 0.01746472 0.00041225
v -0.01434201 -0.01568345 -0.01190650
v -0.01106788 -0.01769032 -0.01165366
v -0.01233820 -0.01587964 -0.01431620
v -0.01424350 -0.01631975 -0.00706885
v -0.01219872 -0.01779663 -0.00861009
v -0.01480785 -0.01657869 -0.00358382
v -0.01208804 -0.01829647 -0.00453121
v -0.01233972 -0.01884938 -0.00065011
v -0.01451682 -0.01626156 0.00512728
v -0.01244944 -0.01825519 0.00342020
v -0.01426561 -0.01631989 0.00907909
v -0.01169250 -0.01779214 0.00813344
v -0.01393558 -0.01643461 0.01195346
v -0.01218021 -0.01750945 0.01143539
v -0.01156066 -0.01616695 0.01397370
v -0.01386807 -0.01302026 -0.01577897
v -0.01105035 -0.01407734 -0.01638376
v -0.01220239 -0.01133790 -0.01758706
v -0.01408550 -0.01101036 0.01636817
v -0.01300481 -0.01385925 0.01574938
v -0.01133480 -0.01220124 0.01758565
v -0.01424185 -0.00904499 -0.01640084
v -0.01171868 -0.00805993 -0.01783954
v -0.01430488 -0.00704703 0.01626509
v -0.01168547 -0.00903489 0.01783877
v -0.01449379 -0.00511919 -0.01629159
v -0.01245016 -0.00341923 -0.01825554
v -0.01485322 -0.00358376 0.01656320
v -0.01210713 -0.00451580 0.01825704
v -0.01234027 0.00065065 -0.01884687
v -0.01234367 -0.00054859 0.01884883
v -0.01480331 0.00358036 -0.01658744
v -0.01208630 0.00455297 -0.01828407
v -0.01450788 0.00516974 0.01623531
v -0.01244760 0.00347334 0.01826099
v -0.01423232 0.00706012 -0.01632059
v -0.01216616 0.00864322 -0.01780222
v -0.01427236 0.00914783 0.01626528
v -0.01216266 0.00755803 0.01767321
v -0.01432613 0.01141231 -0.01595581
v -0.01103348 0.01167725 -0.01771693
v -0.01395266 0.01202555 0.01638893
v -0.01172025 0.01110237 0.01760740
v -0.01284124 0.01433078 -0.01549915
v -0.01377978 0.01616592 -0.01261587
v -0.01106376 0.01631545 -0.01412265
v -0.01425789 0.01633650 -0.00906795
v -0.01449923 0.01628278 -0.00512843
v -0.01485785 0.01654386 0.00360426
v -0.01430475 0.01625283 0.00708964
v -0.01407712 0.01638363 0.01105045
v -0.01302004 0.01577885 0.01386817
v -0.01158882 0.01399043 0.01613412
v -0.01174652 0.01762448 -0.01103880
v -0.01218744 0.01769909 -0.00749964
v -0.01244942 0.01826057 -0.00347293
v -0.01234300 0.01884867 0.00054585
v -0.01210785 0.01825593 0.00451613
v -0.01168533 0.01783862 0.00903697
v -0.01133767 0.01758693 0.01220249
v -0.01011135 -0.02030027 -0.00297749
v -0.00710715 -0.02173321 -0.00449701
v -0.00885678 -0.02002092 -0.00592255
v -0.01036718 -0.02030594 0.00084677
v -0.00782748 -0.02193105 -0.00013106
v -0.00966957 -0.02001750 0.00427025
v -0.00776036 -0.02167983 0.00376723
v -0.00759390 -0.02061329 0.00639006
v -0.00755001 -0.01774120 -0.01209605
v -0.00913570 -0.01633658 -0.01417835
v -0.00831275 -0.01885063 -0.00885861
v -0.00853943 -0.01888171 0.00792429
v -0.00897062 -0.01781779 0.01177772
v -0.00696742 -0.01628423 0.01436391
v -0.00708954 -0.01430498 -0.01625296
v -0.00903687 -0.01168555 -0.01783874
v -0.00901278 -0.01424293 0.01641850
v -0.00805862 -0.01171993 0.01784150
v -0.00855519 -0.00791602 -0.01887771
v -0.00791629 -0.00855676 0.01887718
v -0.00966910 -0.00427297 -0.02001549
v -0.00759289 -0.00639218 -0.02061214
v -0.00775986 -0.00376764 -0.02167972
v -0.00880466 -0.00578004 0.02001564
v -0.01011149 -0.00280232 0.02030618
v -0.00726409 -0.00482080 0.02167982
v -0.01036684 -0.00084836 -0.02030541
v -0.00782750 0.00013065 -0.02193105
v -0.01038834 0.00102611 0.02030116
v -0.00788920 -0.00087526 0.02193142
v -0.01011201 0.00297782 -0.02029917
v -0.00710748 0.00449587 -0.02173338
v -0.00972372 0.00442435 0.02002045
v -0.00756177 0.00360287 0.02173480
v -0.00885751 0.00592462 -0.02001858
v -0.00829985 0.00888231 -0.01884658
v -0.00888218 0.00834009 0.01881210
v -0.00771937 0.00652116 0.02060393
v -0.00751668 0.01211425 -0.01775855
v -0.00862318 0.01228453 0.01771322
v -0.00913476 0.01418181 -0.01636242
v -0.00710305 0.01623052 -0.01430824
v -0.00904477 0.01640072 0.01424194
v -0.00699977 0.01433139 0.01627644
v -0.00869130 0.01769940 -0.01223094
v -0.00891390 0.01880826 -0.00831692
v -0.00972423 0.02001899 -0.00442585
v -0.00771932 0.02060342 -0.00652200
v -0.01038743 0.02030042 -0.00102767
v -0.01011140 0.02030627 0.00280160
v -0.00880463 0.02001578 0.00577924
v -0.00791580 0.01887759 0.00855528
v -0.00805971 0.01783942 0.01171877
v -0.00756093 0.02173463 -0.00360360
v -0.00788915 0.02193121 0.00087514
v -0.00726411 0.02167960 0.00482070
v -0.00652153 -0.02060327 -0.00771988
v -0.00360365 -0.02173388 -0.00756242
v -0.00442390 -0.02001922 -0.00972517
v -0.00373496 -0.02236145 -0.00371681
v -0.00418498 -0.02241912 -0.00007184
v -0.00415720 -0.02246633 0.00412917
v -0.00577980 -0.02001749 0.00880205
v -0.00482174 -0.02167960 0.00726373
v -0.00280257 -0.02030664 0.01011045
v -0.00347349 -0.01826228 -0.01244591
v -0.00519655 -0.01628509 -0.01445016
v -0.00448887 -0.01826566 0.01211675
v -0.00355978 -0.01657048 0.01486037
v -0.00360416 -0.01485807 -0.01654399
v -0.00451604 -0.01210807 -0.01825605
v -0.00510771 -0.01449090 0.01630988
v -0.00341967 -0.01245028 0.01825502
v -0.00577915 -0.00880485 -0.02001591
v -0.00280151 -0.01011162 -0.02030640
v -0.00482061 -0.00726433 -0.02167973
v -0.00427284 -0.00966940 0.02001532
v -0.00639199 -0.00759317 0.02061222
v -0.00376738 -0.00776007 0.02167981
v -0.00415721 -0.00412923 -0.02246616
v -0.00412900 -0.00415741 0.02246626
v -0.00418499 0.00007169 -0.02241892
v -0.00427034 0.00010359 0.02241902
v -0.00373495 0.00371663 -0.02236127
v -0.00371679 0.00373478 0.02236134
v -0.00652195 0.00771982 -0.02060245
v -0.00360399 0.00756167 -0.02173380
v -0.00592409 0.00885667 0.02002014
v -0.00449625 0.00710582 0.02173457
v -0.00442456 0.00972538 -0.02001810
v -0.00347132 0.01244685 -0.01826183
v -0.00454200 0.01211012 0.01827128
v -0.00297824 0.01011003 0.02030074
v -0.00519210 0.01445369 -0.01628035
v -0.00361464 0.01655148 -0.01481844
v -0.00511897 0.01629146 0.01449389
v -0.00357099 0.01482016 0.01657812
v -0.00457195 0.01826069 -0.01210140
v -0.00592492 0.02001956 -0.00885735
v -0.00297709 0.02030089 -0.01011090
v -0.00639196 0.02061202 0.00759298
v -0.00427274 0.02001537 0.00966920
v -0.00341901 0.01825541 0.01245025
v -0.00449483 0.02173466 -0.00710674
v -0.00371674 0.02236114 -0.00373490
v -0.00427035 0.02241880 -0.00010368
v -0.00412901 0.02246603 0.00415731
v -0.00376742 0.02167959 0.00775996
v 0.00087570 -0.02193119 -0.00788917
v -0.00102558 -0.02029886 -0.01038974
v -0.00010373 -0.02241918 -0.00427031
v 0.00000007 -0.02238617 0.00000007
v 0.00010383 -0.02241915 0.00427045
v -0.00087537 -0.02193141 0.00788923
v 0.00102565 -0.02030106 0.01038820
v -0.00222567 -0.01655665 -0.01570670
v 0.00041540 -0.01746437 -0.01508357
v -0.00041215 -0.01508186 -0.01746484
v 0.00054690 -0.01884873 -0.01234414
v -0.00054878 -0.01884939 0.01234251
v -0.00220538 -0.01574080 0.01654787
v -0.00041724 -0.01746936 0.01507933
v 0.00041722 -0.01508201 0.01746345
v -0.00054575 -0.01234322 -0.01884880
v 0.00064921 -0.01233980 0.01884829
v 0.00102776 -0.01038766 -0.02030054
v -0.00087504 -0.00788938 -0.02193133
v -0.00084767 -0.01036702 0.02030506
v 0.00013120 -0.00782771 0.02193095
v 0.00010378 -0.00427057 -0.02241892
v 0.00007195 -0.00418522 0.02241899
v 0.00000006 -0.00000021 -0.02238593
v 0.00000003 -0.00000015 0.02238604
v -0.00010373 0.00427018 -0.02241896
v -0.00007183 0.00418484 0.02241902
v 0.00087568 0.00788902 -0.02193099
v -0.00013088 0.00782705 0.02193127
v -0.00102616 0.01038892 -0.02029856
v 0.00054772 0.01234368 -0.01884763
v -0.00065258 0.01233935 0.01884884
v 0.00084667 0.01036725 0.02030618
v -0.00222284 0.01570747 -0.01655166
v 0.00041708 0.01508222 -0.01746704
v -0.00220219 0.01654445 0.01574183
v -0.00042310 0.01507891 0.01746889
v -0.00041771 0.01746514 -0.01507915
v -0.00064949 0.01884913 -0.01233866
v 0.00084878 0.02030621 -0.01036613
v -0.00084813 0.02030529 0.01036693
v 0.00065087 0.01884675 0.01234037
v 0.00041962 0.01746605 0.01508143
v -0.00013052 0.02193119 -0.00782731
v -0.00007182 0.02241878 -0.00418500
v 0.00000002 0.02238580 0.00000003
v 0.00007191 0.02241880 0.00418508
v 0.00013087 0.02193093 0.00782759
v 0.00482261 -0.02167904 -0.00726373
v 0.00280171 -0.02030698 -0.01011061
v 0.00415735 -0.02246631 -0.00412906
v 0.00418506 -0.02241915 0.00007192
v 0.00373501 -0.02236147 0.00371689
v 0.00360310 -0.02173492 0.00756188
v 0.00442457 -0.02002056 0.00972384
v 0.00222550 -0.01570601 -0.01655749
v 0.00356508 -0.01656412 -0.01486174
v 0.00447197 -0.01827837 -0.01211380
v 0.00347290 -0.01826092 0.01244746
v 0.00222015 -0.01655481 0.01570699
v 0.00516999 -0.01623546 0.01450799
v 0.00512853 -0.01449945 -0.01628291
v 0.00347302 -0.01244964 -0.01826070
v 0.00358396 -0.01480810 0.01657857
v 0.00453131 -0.01208827 0.01829633
v 0.00442595 -0.00972445 -0.02001911
v 0.00360370 -0.00756115 -0.02173476
v 0.00297757 -0.01011155 0.02030015
v 0.00449712 -0.00710738 0.02173310
v 0.00373500 -0.00371697 -0.02236127
v 0.00371691 -0.00373518 0.02236133
v 0.00418505 -0.00007204 -0.02241892
v 0.00427041 -0.00010395 0.02241905
v 0.00415733 0.00412891 -0.02246608
v 0.00412916 0.00415713 0.02246618
v 0.00482263 0.00726360 -0.02167880
v 0.00376730 0.00776067 0.02167940
v 0.00280224 0.01011050 -0.02030644
v 0.00447119 0.01211348 -0.01827895
v 0.00341969 0.01244799 0.01825647
v 0.00426970 0.00967018 0.02001725
v 0.00354400 0.01485786 -0.01658261
v 0.00220451 0.01654958 -0.01574089
v 0.00509628 0.01629238 -0.01451253
v 0.00219995 0.01574267 0.01654616
v 0.00358058 0.01658732 0.01480341
v 0.00516529 0.01450064 0.01624569
v 0.00342010 0.01825577 -0.01245063
v 0.00427231 0.02001634 -0.00966870
v 0.00297804 0.02029904 0.01011211
v 0.00455319 0.01828394 0.01208639
v 0.00376746 0.02167960 -0.00775981
v 0.00412909 0.02246599 -0.00415722
v 0.00427040 0.02241881 0.00010379
v 0.00371685 0.02236114 0.00373503
v 0.00449609 0.02173325 0.00710757
v 0.00577825 -0.02001835 -0.00880201
v 0.00759452 -0.02061288 -0.00638993
v 0.00776090 -0.02167952 -0.00376720
v 0.00782727 -0.02193140 0.00013098
v 0.00710605 -0.02173470 0.00449634
v 0.00652141 -0.02060406 0.00771947
v 0.00885690 -0.02002027 0.00592419
v 0.00895144 -0.01784072 -0.01176577
v 0.00700576 -0.01629450 -0.01433704
v 0.00852687 -0.01889095 -0.00792148
v 0.00834032 -0.01881223 0.00888228
v 0.00755826 -0.01767333 0.01216277
v 0.00914807 -0.01626541 0.01427246
v 0.00906804 -0.01425811 -0.01633662
v 0.00749974 -0.01218766 -0.01769922
v 0.00706896 -0.01424370 0.01631966
v 0.00861020 -0.01219894 0.01779652
v 0.00652210 -0.00771954 -0.02060355
v 0.00831701 -0.00891410 -0.01880838
v 0.00592267 -0.00885700 0.02002082
v 0.00885872 -0.00831297 0.01885052
v 0.00885741 -0.00592510 -0.02001968
v 0.00710681 -0.00449503 -0.02173479
v 0.00771998 -0.00652175 0.02060314
v 0.00756251 -0.00360387 0.02173375
v 0.00782739 -0.00013071 -0.02193131
v 0.00788927 0.00087548 0.02193107
v 0.00776085 0.00376703 -0.02167931
v 0.00726383 0.00482239 0.02167891
v 0.00759458 0.00638978 -0.02061262
v 0.00577898 0.00880195 -0.02001779
v 0.00852806 0.00792216 -0.01889005
v 0.00639003 0.00759430 0.02061275
v 0.00792158 0.00852665 0.01889082
v 0.00880211 0.00577803 0.02001822
v 0.00894880 0.01176544 -0.01784001
v 0.00814594 0.01165188 0.01781317
v 0.00696242 0.01433664 -0.01630682
v 0.00902497 0.01637081 -0.01426257
v 0.00706035 0.01632046 0.01423242
v 0.00914003 0.01422010 0.01631525
v 0.00807403 0.01780910 -0.01173595
v 0.00791755 0.01887640 -0.00855679
v 0.00639136 0.02061273 -0.00759284
v 0.00880330 0.02001664 -0.00578005
v 0.00592484 0.02001845 0.00885760
v 0.00772004 0.02060231 0.00652201
v 0.00888254 0.01884646 0.00829995
v 0.00864345 0.01780209 0.01216625
v 0.00726408 0.02167965 -0.00482063
v 0.00788928 0.02193118 -0.00087501
v 0.00756189 0.02173367 0.00360410
v 0.00967040 -0.02001738 -0.00426960
v 0.01036747 -0.02030631 -0.00084657
v 0.01011025 -0.02030087 0.00297833
v 0.01212907 -0.01753762 -0.01146148
v 0.01203967 -0.01588223 -0.01402671
v 0.01165210 -0.01781330 -0.00814585
v 0.01244821 -0.01825659 -0.00341960
v 0.01233957 -0.01884896 0.00065267
v 0.01211034 -0.01827140 0.00454210
v 0.01228475 -0.01771334 0.00862328
v 0.01110260 -0.01760752 0.01172035
v 0.01202577 -0.01638905 0.01395275
v 0.01261597 -0.01378000 -0.01616604
v 0.01103889 -0.01174675 -0.01762461
v 0.01190659 -0.01434223 0.01568332
v 0.01165375 -0.01106810 0.01769020
v 0.01223102 -0.00869150 -0.01769952
v 0.01209615 -0.00755023 0.01774107
v 0.01011105 -0.00297734 -0.02030100
v 0.01210154 -0.00457222 -0.01826082
v 0.00972526 -0.00442412 0.02001909
v 0.01244600 -0.00347371 0.01826215
v 0.01036771 0.00084732 -0.02030625
v 0.01234008 -0.00065114 -0.01884939
v 0.01038984 -0.00102580 0.02029873
v 0.01234424 0.00054667 0.01884860
v 0.00967046 0.00426961 -0.02001694
v 0.01244836 0.00342140 -0.01825623
v 0.01011071 0.00280149 0.02030685
v 0.01211390 0.00447175 0.01827825
v 0.01165251 0.00814580 -0.01781381
v 0.01176586 0.00895122 0.01784059
v 0.01212771 0.01145719 -0.01753773
v 0.01146158 0.01212884 0.01753749
v 0.01201472 0.01400747 -0.01586468
v 0.01257958 0.01618157 -0.01375098
v 0.01141253 0.01595568 0.01432623
v 0.01199080 0.01392425 0.01643182
v 0.01136650 0.01752801 -0.01220971
v 0.01172518 0.01780785 -0.00902780
v 0.01210854 0.01825645 -0.00451472
v 0.01011090 0.02030631 -0.00280233
v 0.01234403 0.01884737 -0.00054817
v 0.01038929 0.02029902 0.00102740
v 0.01244721 0.01826226 0.00347251
v 0.00972561 0.02001799 0.00442472
v 0.01211448 0.01775843 0.00751679
v 0.01167747 0.01771680 0.01103356
v 0.01392447 -0.01643194 -0.01199070
v 0.01422032 -0.01631537 -0.00913993
v 0.01450087 -0.01624582 -0.00516519
v 0.01574289 -0.01654629 -0.00219985
v 0.01507913 -0.01746902 0.00042319
v 0.01482038 -0.01657825 0.00357108
v 0.01654467 -0.01574195 0.00220228
v 0.01433161 -0.01627657 0.00699987
v 0.01399065 -0.01613424 0.01158891
v 0.01412274 -0.01106398 -0.01631557
v 0.01549924 -0.01284146 -0.01433091
v 0.01595590 -0.01432636 -0.01141244
v 0.01632068 -0.01423255 -0.00706025
v 0.01658754 -0.01480353 -0.00358048
v 0.01629168 -0.01449402 0.00511907
v 0.01640094 -0.01424207 0.00904486
v 0.01577907 -0.01386829 0.01302013
v 0.01431629 -0.01233843 0.01587951
v 0.01638385 -0.01105057 0.01407722
v 0.01430831 -0.00710322 -0.01623063
v 0.01636251 -0.00913497 -0.01418193
v 0.01417844 -0.00913592 0.01633646
v 0.01625305 -0.00708977 0.01430485
v 0.01481857 -0.00361490 -0.01655160
v 0.01628045 -0.00519230 -0.01445379
v 0.01445026 -0.00519677 0.01628496
v 0.01654408 -0.00360438 0.01485795
v 0.01655186 -0.00222379 -0.01570803
v 0.01508046 -0.00042038 -0.01746618
v 0.01570680 -0.00222590 0.01655653
v 0.01508366 0.00041518 0.01746424
v 0.01574205 0.00220415 -0.01654964
v 0.01449767 0.00515403 -0.01626285
v 0.01658002 0.00356910 -0.01484278
v 0.01486183 0.00356485 0.01656399
v 0.01628301 0.00512830 0.01449933
v 0.01655758 0.00222528 0.01570589
v 0.01422135 0.00910875 -0.01633451
v 0.01632681 0.00702746 -0.01426686
v 0.01433713 0.00700553 0.01629438
v 0.01633672 0.00906782 0.01425798
v 0.01392666 0.01195733 -0.01643790
v 0.01598789 0.01138627 -0.01432556
v 0.01402681 0.01203945 0.01588211
v 0.01616614 0.01261575 0.01377988
v 0.01552425 0.01432369 -0.01276433
v 0.01412940 0.01633828 -0.01099640
v 0.01642315 0.01418217 -0.00905635
v 0.01434195 0.01625113 -0.00702198
v 0.01630705 0.01446247 -0.00514874
v 0.01485380 0.01656253 -0.00358267
v 0.01654787 0.01574147 -0.00220726
v 0.01445393 0.01628020 0.00519220
v 0.01570780 0.01655213 0.00222404
v 0.01655172 0.01481835 0.00361482
v 0.01623076 0.01430806 0.00710309
v 0.01418203 0.01636228 0.00913483
v 0.01631567 0.01412252 0.01106386
v 0.01433100 0.01549902 0.01284134
v 0.01508185 0.01746758 -0.00041757
v 0.01746627 -0.01508156 -0.00041952
v 0.01771702 -0.01103370 -0.01167737
v 0.01780232 -0.01216638 -0.00864335
v 0.01828417 -0.01208652 -0.00455310
v 0.01884697 -0.01234049 -0.00065077
v 0.01825563 -0.01245038 0.00341911
v 0.01783964 -0.01171890 0.00805980
v 0.01758715 -0.01220262 0.01133777
v 0.01775866 -0.00751691 -0.01211437
v 0.01884669 -0.00830007 -0.00888243
v 0.02001868 -0.00885773 -0.00592474
v 0.02029927 -0.01011224 -0.00297794
v 0.02030551 -0.01036706 0.00084823
v 0.02001559 -0.00966932 0.00427284
v 0.01887781 -0.00855541 0.00791589
v 0.02061224 -0.00759311 0.00639206
v 0.01783884 -0.00903709 0.01168543
v 0.01826199 -0.00347224 -0.01244742
v 0.02001823 -0.00442481 -0.00972549
v 0.02060254 -0.00652215 -0.00771994
v 0.02001600 -0.00577937 0.00880472
v 0.01825615 -0.00451626 0.01210794
v 0.02030650 -0.00280173 0.01011150
v 0.01746629 0.00041616 -0.01508383
v 0.01884660 0.00054766 -0.01234485
v 0.02029875 -0.00102711 -0.01038950
v 0.01884890 -0.00054597 0.01234310
v 0.02030064 0.00102754 0.01038753
v 0.01746494 -0.00041237 0.01508173
v 0.01827623 0.00449900 -0.01209558
v 0.02030559 0.00280203 -0.01011162
v 0.01826080 0.00347280 0.01244951
v 0.02001921 0.00442573 0.00972433
v 0.01790136 0.00898565 -0.01167146
v 0.02001506 0.00578003 -0.00880405
v 0.01888954 0.00854464 -0.00790974
v 0.02061107 0.00759407 -0.00639182
v 0.01880849 0.00831678 0.00891398
v 0.02001981 0.00885718 0.00592500
v 0.02060364 0.00652188 0.00771942
v 0.01769931 0.00749951 0.01218753
v 0.01763645 0.01213567 -0.01136182
v 0.01787904 0.01165696 -0.00807748
v 0.02001430 0.00967082 -0.00427194
v 0.01825645 0.01244840 -0.00342127
v 0.02030541 0.01036738 -0.00084836
v 0.01884838 0.01234001 0.00065018
v 0.02030109 0.01011081 0.00297720
v 0.01826090 0.01210132 0.00457210
v 0.01769963 0.01223080 0.00869138
v 0.01762470 0.01103867 0.01174662
v 0.01746458 0.01508127 0.00041992
v 0.02173347 -0.00710770 -0.00449599
v 0.02193115 -0.00782772 -0.00013077
v 0.02167981 -0.00776008 0.00376751
v 0.02173391 -0.00360422 -0.00756178
v 0.02236137 -0.00373516 -0.00371675
v 0.02241902 -0.00418521 -0.00007182
v 0.02246625 -0.00415743 0.00412910
v 0.02167983 -0.00482083 0.00726420
v 0.02193118 0.00087508 -0.00788933
v 0.02241905 -0.00010393 -0.00427029
v 0.02238602 -0.00000016 0.00000008
v 0.02241902 0.00010356 0.00427044
v 0.02193143 -0.00087526 0.00788925
v 0.02167901 0.00482121 -0.00726454
v 0.02246627 0.00415707 -0.00412899
v 0.02241902 0.00418485 0.00007193
v 0.02236136 0.00373477 0.00371684
v 0.02173485 0.00360347 0.00756103
v 0.02167941 0.00776012 -0.00376753
v 0.02193145 0.00782717 0.00013063
v 0.02173490 0.00710659 0.00449492
f 3 2 1
f 5 4 1
f 5 1 2
f 7 6 4
f 7 4 5
f 8 6 7
f 11 10 9
f 9 10 3
f 1 9 3
f 12 9 1
f 13 1 4
f 12 1 13
f 14 4 6
f 13 4 14
f 6 8 15
f 16 6 15
f 14 6 16
f 17 16 15
f 11 9 18
f 11 18 19
f 20 9 12
f 18 9 20
f 21 12 13
f 20 12 21
f 22 13 14
f 21 13 22
f 23 14 16
f 22 14 23
f 16 17 24
f 16 24 23
f 19 18 25
f 19 25 26
f 27 18 20
f 25 18 27
f 28 20 21
f 27 20 28
f 29 21 22
f 28 21 29
f 30 22 23
f 29 22 30
f 23 24 31
f 23 31 30
f 32 26 25
f 34 33 32
f 25 34 32
f 27 34 25
f 35 27 28
f 34 27 35
f 36 28 29
f 35 28 36
f 30 38 37
f 36 30 37
f 29 30 36
f 38 30 31
f 39 33 34
f 39 34 35
f 39 35 40
f 40 35 36
f 40 36 41
f 41 36 37
f 44 43 42
f 45 42 43
f 48 47 46
f 50 49 46
f 50 46 47
f 52 51 49
f 52 49 50
f 51 52 44
f 42 51 44
f 53 51 42
f 42 45 54
f 55 42 54
f 53 42 55
f 57 56 55
f 57 55 54
f 59 58 56
f 59 56 57
f 60 58 59
f 48 46 61
f 48 61 62
f 63 46 49
f 61 46 63
f 3 63 2
f 63 51 2
f 63 49 51
f 2 51 5
f 5 51 53
f 5 53 7
f 7 53 55
f 7 55 8
f 55 64 8
f 55 56 64
f 65 56 58
f 64 56 65
f 58 60 66
f 58 66 65
f 62 61 67
f 62 67 68
f 11 67 10
f 67 63 10
f 67 61 63
f 10 63 3
f 64 15 8
f 15 64 17
f 64 69 17
f 64 65 69
f 65 66 70
f 65 70 69
f 73 72 71
f 71 72 68
f 67 71 68
f 74 71 67
f 19 74 11
f 11 74 67
f 75 24 69
f 69 24 17
f 69 70 76
f 77 69 76
f 75 69 77
f 78 77 76
f 79 73 71
f 81 80 79
f 71 81 79
f 74 81 71
f 26 81 19
f 19 81 74
f 82 31 75
f 75 31 24
f 77 84 83
f 82 77 83
f 75 77 82
f 84 77 78
f 80 81 85
f 80 85 86
f 32 87 26
f 87 81 26
f 87 85 81
f 33 87 32
f 88 37 38
f 31 82 38
f 82 88 38
f 82 89 88
f 82 83 90
f 82 90 89
f 86 85 91
f 86 91 92
f 93 85 87
f 91 85 93
f 39 94 33
f 94 87 33
f 94 93 87
f 40 95 39
f 39 95 94
f 41 96 40
f 40 96 95
f 37 88 41
f 88 96 41
f 88 97 96
f 98 88 89
f 97 88 98
f 89 90 99
f 89 99 98
f 100 92 91
f 100 91 93
f 100 93 101
f 101 93 94
f 101 94 102
f 104 103 102
f 94 104 102
f 95 104 94
f 96 106 105
f 104 96 105
f 95 96 104
f 106 96 97
f 106 97 107
f 107 97 98
f 107 98 108
f 108 98 99
f 109 103 104
f 109 104 105
f 112 111 110
f 114 113 110
f 114 110 111
f 116 115 113
f 116 113 114
f 43 44 115
f 116 43 115
f 117 43 116
f 119 118 45
f 43 119 45
f 117 119 43
f 121 120 118
f 121 118 119
f 123 122 120
f 123 120 121
f 124 122 123
f 127 126 125
f 125 126 112
f 125 112 110
f 48 125 110
f 47 48 110
f 47 110 50
f 50 110 113
f 50 113 52
f 52 113 115
f 52 115 44
f 118 54 45
f 54 118 57
f 57 118 120
f 57 120 59
f 59 120 122
f 129 128 60
f 129 60 59
f 124 129 59
f 122 124 59
f 130 128 129
f 127 125 131
f 127 131 132
f 62 131 48
f 48 131 125
f 133 66 128
f 128 66 60
f 128 130 134
f 128 134 133
f 132 131 135
f 132 135 136
f 68 135 62
f 62 135 131
f 137 70 133
f 133 70 66
f 133 134 138
f 133 138 137
f 136 135 72
f 73 136 72
f 139 136 73
f 72 135 68
f 137 76 70
f 78 76 137
f 138 78 137
f 140 78 138
f 73 79 141
f 142 73 141
f 139 73 142
f 80 141 79
f 143 83 84
f 144 143 84
f 78 144 84
f 140 144 78
f 142 141 145
f 142 145 146
f 86 145 80
f 80 145 141
f 147 90 143
f 143 90 83
f 143 144 148
f 143 148 147
f 146 145 149
f 146 149 150
f 92 149 86
f 86 149 145
f 151 99 147
f 147 99 90
f 147 148 152
f 147 152 151
f 153 150 149
f 155 153 154
f 154 153 100
f 153 149 100
f 149 92 100
f 101 156 100
f 100 156 154
f 102 157 101
f 101 157 156
f 103 157 102
f 158 105 106
f 107 159 106
f 106 159 158
f 108 160 107
f 107 160 159
f 161 160 108
f 161 108 99
f 162 161 99
f 151 162 99
f 162 151 152
f 163 155 154
f 163 154 156
f 163 156 164
f 164 156 157
f 164 157 165
f 165 157 103
f 109 165 103
f 166 165 109
f 109 105 158
f 167 109 158
f 166 109 167
f 167 158 159
f 167 159 168
f 168 159 160
f 168 160 169
f 169 160 161
f 172 171 170
f 174 173 170
f 174 170 171
f 176 175 173
f 176 173 174
f 177 175 176
f 179 178 111
f 179 111 112
f 111 180 114
f 178 180 111
f 170 116 172
f 116 180 172
f 116 114 180
f 116 170 117
f 117 170 173
f 117 173 119
f 119 173 175
f 177 181 175
f 181 119 175
f 181 121 119
f 121 182 123
f 181 182 121
f 124 123 182
f 124 182 183
f 185 184 126
f 185 126 127
f 112 126 179
f 179 126 184
f 183 186 124
f 124 186 129
f 130 129 186
f 130 186 187
f 132 185 127
f 132 188 185
f 187 134 130
f 189 134 187
f 192 191 190
f 191 188 190
f 188 136 190
f 188 132 136
f 194 138 193
f 138 189 193
f 138 134 189
f 195 194 193
f 192 190 196
f 192 196 197
f 139 196 136
f 136 196 190
f 198 140 194
f 194 140 138
f 194 195 199
f 194 199 198
f 197 196 200
f 197 200 201
f 142 200 139
f 139 200 196
f 202 144 198
f 198 144 140
f 198 199 203
f 198 203 202
f 204 201 200
f 200 142 204
f 142 205 204
f 142 146 205
f 207 206 202
f 206 144 202
f 206 148 144
f 207 202 203
f 150 205 146
f 150 208 205
f 206 152 148
f 209 152 206
f 210 208 150
f 210 150 153
f 153 155 210
f 210 155 211
f 213 212 162
f 162 212 161
f 162 152 209
f 162 209 213
f 214 211 155
f 214 155 163
f 215 163 164
f 215 214 163
f 217 215 216
f 215 165 216
f 215 164 165
f 166 218 165
f 165 218 216
f 167 219 166
f 166 219 218
f 219 167 220
f 167 221 220
f 167 168 221
f 222 168 169
f 222 221 168
f 169 161 212
f 169 212 222
f 223 217 216
f 223 216 218
f 223 218 224
f 224 218 219
f 224 219 225
f 225 219 220
f 228 227 226
f 171 172 226
f 227 171 226
f 229 171 227
f 171 230 174
f 229 230 171
f 174 231 176
f 230 231 174
f 233 232 177
f 176 233 177
f 231 233 176
f 234 232 233
f 236 235 178
f 236 178 179
f 226 180 228
f 180 235 228
f 180 178 235
f 180 226 172
f 232 181 177
f 234 237 232
f 237 181 232
f 237 182 181
f 183 182 237
f 183 237 238
f 240 239 184
f 240 184 185
f 179 184 236
f 236 184 239
f 238 241 183
f 183 241 186
f 187 186 241
f 187 241 242
f 245 244 243
f 244 240 243
f 240 188 243
f 240 185 188
f 247 189 246
f 189 242 246
f 189 187 242
f 248 247 246
f 245 243 191
f 192 245 191
f 249 245 192
f 191 243 188
f 247 193 189
f 195 193 247
f 248 195 247
f 250 195 248
f 197 249 192
f 197 251 249
f 250 199 195
f 252 199 250
f 201 251 197
f 201 253 251
f 252 203 199
f 254 203 252
f 201 204 255
f 256 201 255
f 253 201 256
f 205 255 204
f 257 206 207
f 258 257 207
f 203 258 207
f 254 258 203
f 259 256 255
f 255 205 259
f 205 260 259
f 205 208 260
f 262 261 257
f 261 206 257
f 261 209 206
f 262 257 258
f 263 260 208
f 263 208 210
f 210 211 263
f 263 211 264
f 266 265 213
f 213 265 212
f 213 209 261
f 213 261 266
f 267 264 211
f 267 211 214
f 269 267 268
f 267 215 268
f 267 214 215
f 217 268 215
f 270 220 221
f 270 221 271
f 221 272 271
f 221 222 272
f 222 212 265
f 222 265 272
f 273 269 268
f 273 268 217
f 223 273 217
f 274 273 223
f 275 223 224
f 275 274 223
f 276 224 225
f 276 275 224
f 225 220 270
f 277 225 270
f 276 225 277
f 277 270 271
f 279 278 227
f 279 227 228
f 227 280 229
f 278 280 227
f 229 281 230
f 280 281 229
f 230 282 231
f 281 282 230
f 231 283 233
f 282 283 231
f 234 233 283
f 234 283 284
f 287 286 285
f 235 236 285
f 286 235 285
f 288 235 286
f 228 235 279
f 279 235 288
f 284 289 234
f 234 289 237
f 291 290 238
f 237 291 238
f 289 291 237
f 292 290 291
f 287 285 239
f 240 287 239
f 293 287 240
f 239 285 236
f 290 241 238
f 242 241 290
f 292 242 290
f 294 242 292
f 296 295 244
f 296 244 245
f 240 244 293
f 293 244 295
f 294 297 242
f 242 297 246
f 248 246 297
f 248 297 298
f 249 296 245
f 249 299 296
f 298 250 248
f 300 250 298
f 251 299 249
f 251 301 299
f 300 252 250
f 302 252 300
f 253 301 251
f 253 303 301
f 302 254 252
f 304 254 302
f 256 303 253
f 256 305 303
f 304 258 254
f 306 258 304
f 307 305 256
f 307 256 259
f 259 260 307
f 307 260 308
f 310 309 262
f 262 309 261
f 262 258 306
f 262 306 310
f 260 263 311
f 312 260 311
f 308 260 312
f 264 311 263
f 313 265 266
f 314 313 266
f 261 314 266
f 309 314 261
f 315 312 311
f 315 311 264
f 267 315 264
f 316 315 267
f 267 269 316
f 316 269 317
f 319 318 272
f 272 318 271
f 272 265 313
f 320 272 313
f 319 272 320
f 320 313 314
f 321 317 269
f 321 269 273
f 322 273 274
f 322 321 273
f 323 274 275
f 323 322 274
f 324 275 276
f 324 323 275
f 325 276 277
f 325 324 276
f 277 271 318
f 277 318 325
f 327 326 278
f 327 278 279
f 278 328 280
f 326 328 278
f 280 329 281
f 328 329 280
f 281 330 282
f 329 330 281
f 282 331 283
f 330 331 282
f 284 283 331
f 284 331 332
f 287 333 286
f 286 333 334
f 335 286 334
f 288 286 335
f 279 288 327
f 327 288 335
f 332 336 284
f 284 336 289
f 336 338 337
f 291 336 337
f 289 336 291
f 337 292 291
f 340 339 333
f 287 340 333
f 293 340 287
f 333 339 334
f 338 341 337
f 292 337 341
f 342 292 341
f 294 292 342
f 344 343 295
f 344 295 296
f 293 295 340
f 340 295 343
f 342 345 294
f 294 345 297
f 298 297 345
f 298 345 346
f 299 344 296
f 299 347 344
f 346 300 298
f 348 300 346
f 301 347 299
f 301 349 347
f 348 302 300
f 350 302 348
f 303 349 301
f 303 351 349
f 350 304 302
f 352 304 350
f 305 351 303
f 305 353 351
f 352 306 304
f 354 306 352
f 355 353 305
f 355 305 307
f 307 308 355
f 355 308 356
f 358 357 310
f 310 357 309
f 310 306 354
f 310 354 358
f 312 360 359
f 356 312 359
f 308 312 356
f 360 361 359
f 364 363 362
f 357 364 362
f 314 357 362
f 309 357 314
f 315 360 312
f 365 361 360
f 315 365 360
f 316 365 315
f 316 317 365
f 365 317 366
f 368 367 319
f 319 367 318
f 320 362 363
f 368 320 363
f 319 320 368
f 362 320 314
f 369 366 317
f 369 317 321
f 370 321 322
f 370 369 321
f 371 322 323
f 371 370 322
f 372 323 324
f 372 371 323
f 373 324 325
f 373 372 324
f 325 318 367
f 325 367 373
f 327 374 326
f 326 374 375
f 376 326 375
f 328 326 376
f 328 377 329
f 376 377 328
f 329 378 330
f 377 378 329
f 378 380 379
f 331 378 379
f 330 378 331
f 379 332 331
f 382 381 335
f 382 335 334
f 327 335 374
f 335 383 374
f 335 381 383
f 374 383 375
f 380 384 379
f 379 384 332
f 384 336 332
f 384 385 336
f 338 336 385
f 338 385 386
f 388 387 339
f 388 339 340
f 334 339 382
f 382 339 387
f 386 389 338
f 338 389 341
f 342 341 389
f 342 389 390
f 344 391 343
f 391 392 343
f 392 340 343
f 392 388 340
f 345 342 393
f 342 394 393
f 342 390 394
f 393 346 345
f 396 395 391
f 344 396 391
f 347 396 344
f 391 395 392
f 394 397 393
f 346 393 397
f 398 346 397
f 348 346 398
f 349 396 347
f 349 399 396
f 398 350 348
f 400 350 398
f 351 399 349
f 351 401 399
f 400 352 350
f 402 352 400
f 353 404 403
f 401 353 403
f 351 353 401
f 404 405 403
f 408 407 406
f 402 408 406
f 354 402 406
f 352 402 354
f 355 404 353
f 355 356 404
f 356 405 404
f 356 409 405
f 406 407 358
f 407 357 358
f 407 410 357
f 406 358 354
f 411 409 356
f 411 356 359
f 359 361 411
f 411 361 412
f 414 413 364
f 364 413 363
f 364 357 410
f 364 410 414
f 415 412 361
f 415 361 365
f 417 416 366
f 416 365 366
f 416 415 365
f 417 418 416
f 421 420 419
f 367 368 419
f 368 421 419
f 368 422 421
f 368 363 413
f 368 413 422
f 369 417 366
f 423 418 417
f 369 423 417
f 370 423 369
f 424 370 371
f 424 423 370
f 425 371 372
f 425 424 371
f 373 419 420
f 425 373 420
f 372 373 425
f 419 373 367
f 375 426 376
f 427 377 376
f 427 376 426
f 428 378 377
f 428 377 427
f 428 380 378
f 430 429 381
f 430 381 382
f 381 431 383
f 429 431 381
f 375 383 426
f 383 432 426
f 383 431 432
f 426 432 427
f 427 432 433
f 427 433 428
f 428 433 434
f 428 434 380
f 434 384 380
f 434 435 384
f 384 436 385
f 435 436 384
f 386 385 436
f 386 436 437
f 439 438 387
f 439 387 388
f 382 387 430
f 430 387 438
f 437 440 386
f 386 440 389
f 390 389 440
f 390 440 441
f 392 439 388
f 392 442 439
f 441 394 390
f 443 394 441
f 396 444 395
f 444 445 395
f 445 392 395
f 445 442 392
f 397 394 446
f 394 447 446
f 394 443 447
f 446 398 397
f 399 448 444
f 399 444 396
f 445 444 449
f 449 444 448
f 446 447 450
f 450 447 451
f 450 400 398
f 450 398 446
f 401 452 448
f 401 448 399
f 449 448 453
f 453 448 452
f 450 451 454
f 454 451 455
f 454 402 400
f 454 400 450
f 403 452 401
f 403 405 452
f 405 453 452
f 405 456 453
f 454 455 408
f 455 407 408
f 455 457 407
f 454 408 402
f 409 456 405
f 409 458 456
f 457 410 407
f 459 410 457
f 460 458 409
f 460 409 411
f 411 412 460
f 460 412 461
f 463 462 414
f 414 462 413
f 414 410 459
f 414 459 463
f 464 461 412
f 464 412 415
f 465 415 416
f 465 464 415
f 467 466 418
f 466 416 418
f 466 465 416
f 469 468 467
f 467 468 466
f 471 470 469
f 469 470 468
f 420 421 471
f 421 470 471
f 421 472 470
f 473 421 422
f 473 472 421
f 422 413 462
f 422 462 473
f 423 467 418
f 467 423 424
f 467 424 469
f 469 424 425
f 469 425 471
f 471 425 420
f 430 474 429
f 475 431 429
f 475 429 474
f 476 432 431
f 476 431 475
f 432 476 477
f 478 432 477
f 433 432 478
f 478 480 479
f 434 478 479
f 433 478 434
f 481 435 434
f 481 434 479
f 482 436 435
f 482 435 481
f 482 437 436
f 439 483 438
f 483 484 438
f 438 484 430
f 484 485 430
f 485 474 430
f 474 485 475
f 475 485 486
f 475 486 476
f 476 486 487
f 476 487 477
f 480 488 479
f 479 488 481
f 481 488 489
f 481 489 482
f 482 489 490
f 490 492 491
f 490 491 440
f 482 490 440
f 437 482 440
f 491 441 440
f 442 493 483
f 442 483 439
f 484 483 494
f 494 483 493
f 491 492 495
f 495 492 496
f 495 443 441
f 495 441 491
f 445 497 493
f 445 493 442
f 494 493 498
f 498 493 497
f 495 496 499
f 499 496 500
f 499 447 443
f 499 443 495
f 502 501 497
f 445 502 497
f 449 502 445
f 497 501 498
f 500 503 499
f 447 499 503
f 504 447 503
f 451 447 504
f 453 506 505
f 502 453 505
f 449 453 502
f 506 507 505
f 510 509 508
f 504 510 508
f 455 504 508
f 451 504 455
f 456 511 506
f 456 506 453
f 507 506 512
f 512 506 511
f 508 509 513
f 513 509 514
f 513 457 455
f 513 455 508
f 458 515 511
f 458 511 456
f 512 511 516
f 516 511 515
f 513 514 517
f 517 514 518
f 517 459 457
f 517 457 513
f 460 515 458
f 520 519 461
f 461 519 460
f 519 516 460
f 516 515 460
f 522 521 520
f 520 521 519
f 524 523 522
f 522 523 521
f 524 525 523
f 528 527 526
f 530 529 526
f 526 529 528
f 532 531 530
f 530 531 529
f 531 532 518
f 518 532 517
f 532 462 517
f 462 463 517
f 517 463 459
f 464 520 461
f 520 464 465
f 520 465 522
f 522 465 466
f 522 466 524
f 533 525 524
f 466 533 524
f 468 533 466
f 470 526 527
f 533 470 527
f 468 470 533
f 526 470 472
f 526 472 530
f 530 472 473
f 530 473 532
f 532 473 462
f 477 534 478
f 534 480 478
f 484 535 485
f 536 486 485
f 536 485 535
f 537 487 486
f 537 486 536
f 534 477 487
f 537 534 487
f 538 534 537
f 539 488 480
f 534 539 480
f 538 539 534
f 540 489 488
f 540 488 539
f 541 490 489
f 541 489 540
f 541 492 490
f 494 542 535
f 494 535 484
f 535 543 536
f 535 542 543
f 545 537 544
f 537 543 544
f 537 536 543
f 537 545 538
f 538 545 546
f 538 546 539
f 539 546 547
f 549 548 547
f 548 539 547
f 548 540 539
f 540 550 541
f 540 548 550
f 550 496 492
f 550 492 541
f 498 551 542
f 498 542 494
f 553 543 552
f 543 551 552
f 543 542 551
f 543 553 544
f 549 554 548
f 556 555 554
f 555 548 554
f 555 550 548
f 555 500 496
f 555 496 550
f 502 557 501
f 551 498 501
f 557 551 501
f 558 551 557
f 552 551 559
f 559 551 558
f 555 556 560
f 560 556 561
f 562 503 500
f 555 562 500
f 560 562 555
f 562 504 503
f 505 557 502
f 557 505 507
f 563 557 507
f 558 557 563
f 559 558 564
f 564 558 563
f 560 561 565
f 565 561 566
f 565 509 510
f 562 565 510
f 560 565 562
f 562 510 504
f 512 567 563
f 512 563 507
f 564 563 568
f 563 569 568
f 563 567 569
f 569 570 568
f 573 572 571
f 573 571 566
f 571 565 566
f 571 574 565
f 574 514 509
f 574 509 565
f 516 575 567
f 516 567 512
f 567 576 569
f 567 575 576
f 570 569 577
f 569 578 577
f 569 576 578
f 580 579 578
f 578 579 577
f 582 581 580
f 580 581 579
f 581 582 572
f 582 571 572
f 582 583 571
f 571 584 574
f 571 583 584
f 584 518 514
f 584 514 574
f 519 575 516
f 575 519 521
f 575 521 576
f 576 521 523
f 576 523 578
f 578 523 525
f 585 578 525
f 580 578 585
f 585 527 528
f 582 585 528
f 580 585 582
f 582 528 529
f 582 529 583
f 583 529 531
f 583 531 584
f 584 531 518
f 533 585 525
f 585 533 527
f 544 586 545
f 587 546 545
f 587 545 586
f 588 547 546
f 588 546 587
f 588 549 547
f 552 589 553
f 586 544 553
f 589 586 553
f 590 586 589
f 586 591 587
f 586 590 591
f 587 592 588
f 587 591 592
f 593 554 549
f 588 593 549
f 592 593 588
f 593 556 554
f 559 594 589
f 559 589 552
f 589 595 590
f 589 594 595
f 590 596 591
f 590 595 596
f 591 597 592
f 591 596 597
f 592 598 593
f 592 597 598
f 598 561 556
f 598 556 593
f 564 599 594
f 564 594 559
f 594 600 595
f 594 599 600
f 595 601 596
f 595 600 601
f 596 602 597
f 596 601 602
f 597 603 598
f 597 602 603
f 603 566 561
f 603 561 598
f 568 599 564
f 599 568 570
f 604 599 570
f 600 599 604
f 600 605 601
f 600 604 605
f 601 606 602
f 601 605 606
f 606 572 573
f 603 606 573
f 602 606 603
f 603 573 566
f 577 604 570
f 604 577 579
f 604 579 605
f 605 579 581
f 605 581 606
f 606 581 572

