# https://github.com/mikedh/trimesh
v -0.03091447 -0.01186612 -0.00271584
v -0.02833668 -0.01522819 -0.00401955
v -0.02911907 -0.01213343 -0.00713165
v -0.03129750 -0.01231383 0.00398955
v -0.02883598 -0.01615572 0.00106828
v -0.03145149 -0.01205514 0.01026667
v -0.02904001 -0.01607258 0.00727755
v -0.03089779 -0.01147370 0.01493699
v -0.02800142 -0.01595370 0.01443588
v -0.02818465 -0.01280988 0.01793575
v -0.03093031 -0.00707859 -0.00787561
v -0.02820950 -0.00929073 -0.01065860
v -0.02863041 -0.00470713 -0.01240041
v -0.03196476 -0.00592424 -0.00269831
v -0.03198740 -0.00673565 0.00268303
v -0.03208981 -0.00653646 0.00898342
v -0.03135709 -0.00648088 0.01429980
v -0.02893120 -0.00804611 0.01794080
v -0.03125552 -0.00038358 -0.00897689
v -0.02871767 0.00122477 -0.01261454
v -0.03204384 -0.00040387 -0.00351407
v -0.03200041 -0.00030903 0.00279095
v -0.03199403 -0.00015232 0.00910364
v -0.03119235 -0.00006693 0.01454096
v -0.02872408 -0.00171527 0.01823863
v -0.03066074 0.00462047 -0.00960494
v -0.02831855 0.00644547 -0.01163441
v -0.03132168 0.00522067 -0.00488591
v -0.03123108 0.00530060 0.00143648
v -0.03120035 0.00539067 0.00780125
v -0.03078210 0.00550417 0.01364769
v -0.02868218 0.00433365 0.01811291
v -0.02882733 0.00874201 -0.00770332
v -0.02879669 0.00912827 -0.00183302
v -0.02875930 0.00910151 0.00440261
v -0.02879288 0.00919880 0.01059755
v -0.02834767 0.00836480 0.01580212
v -0.02472670 -0.01821353 -0.00917516
v -0.02097982 -0.02114285 -0.00990496
v -0.02314629 -0.01798402 -0.01307784
v -0.02580976 -0.01851127 -0.00284556
v -0.02212542 -0.02142361 -0.00349862
v -0.02587095 -0.01914684 0.00404372
v -0.02203716 -0.02142800 0.00264242
v -0.02589145 -0.01906968 0.01027838
v -0.02189131 -0.02144143 0.00890174
v -0.02531241 -0.01907542 0.01460672
v -0.02187352 -0.02107844 0.01482870
v -0.02268403 -0.01909146 0.01830475
v -0.02479691 -0.01165924 -0.02723618
v -0.02275125 -0.01560066 -0.02756642
v -0.02276347 -0.01298247 -0.03116364
v -0.02483612 -0.01189609 -0.02047664
v -0.02261924 -0.01596314 -0.02333715
v -0.02492446 -0.01369935 -0.01454921
v -0.02261833 -0.01616115 -0.01749475
v -0.02657132 -0.01345217 -0.00931845
v -0.02543820 -0.01094066 0.02191195
v -0.02267436 -0.01589915 0.02112209
v -0.02175273 -0.01322162 0.02432606
v -0.02487612 -0.00708410 -0.03256041
v -0.02234628 -0.00931284 -0.03522459
v -0.02274343 -0.00479234 -0.03710094
v -0.02566161 -0.00578409 -0.02736215
v -0.02551890 -0.00649050 -0.02197076
v -0.02611516 -0.00803342 -0.01545581
v -0.02636591 -0.00514922 0.02197191
v -0.02304799 -0.01069344 0.02657628
v -0.02513481 -0.00663955 0.02796382
v -0.02450766 -0.00531687 0.03365875
v -0.02270592 -0.00946619 0.03156568
v -0.02229398 -0.00721246 0.03566450
v -0.02517754 -0.00041150 -0.03350289
v -0.02276522 0.00111255 -0.03728144
v -0.02578268 -0.00042973 -0.02800624
v -0.02552360 -0.00030427 -0.02179951
v -0.02618859 -0.00174639 -0.01643868
v -0.02632677 0.00119659 0.02213997
v -0.02569134 -0.00138435 0.02659708
v -0.02484832 -0.00014311 0.03176163
v -0.02275601 -0.00225024 0.03628281
v -0.02492671 0.00558882 -0.03321723
v -0.02283583 0.00541131 -0.03650657
v -0.02600315 0.00597568 -0.02771500
v -0.02571900 0.00609290 -0.02146912
v -0.02614115 0.00536995 -0.01545915
v -0.02642696 0.00715875 0.02027805
v -0.02492526 0.00563163 0.02632213
v -0.02159789 0.00617192 0.03094258
v -0.02224807 0.00229934 0.03430503
v -0.02223873 0.00913897 -0.03444225
v -0.02203181 0.01268491 -0.03099663
v -0.02499369 0.01084427 -0.02862950
v -0.02518914 0.01156515 -0.02280709
v -0.02494442 0.01151266 -0.01669312
v -0.02560568 0.01122800 -0.01087969
v -0.02557367 0.01208681 -0.00476449
v -0.02553313 0.01200387 0.00133251
v -0.02563627 0.01203445 0.00747944
v -0.02575487 0.01154633 0.01446416
v -0.02478875 0.01137376 0.02075987
v -0.02323568 0.01129270 0.02461828
v -0.02176514 0.00952534 0.02768196
v -0.02217412 0.01419869 -0.02706237
v -0.02217441 0.01525226 -0.02081231
v -0.02266417 0.01524722 -0.01395190
v -0.02253366 0.01514888 -0.00794497
v -0.02247196 0.01505107 -0.00188776
v -0.02252738 0.01502275 0.00419046
v -0.02267165 0.01511197 0.01023453
v -0.02186399 0.01515699 0.01646254
v -0.02130582 0.01413680 0.02210572
v -0.01969876 -0.01802530 -0.02737124
v -0.01487042 -0.02123743 -0.02829142
v -0.01720217 -0.01816859 -0.03134939
v -0.01960754 -0.01908509 -0.02034607
v -0.01588021 -0.02140649 -0.02184569
v -0.02054576 -0.01940357 -0.01521772
v -0.01658944 -0.02146556 -0.01507465
v -0.01578203 -0.02201279 -0.00876570
v -0.01671060 -0.02205146 -0.00345056
v -0.01663763 -0.02203890 0.00269065
v -0.01635007 -0.02211014 0.00890010
v -0.01624736 -0.02219825 0.01523619
v -0.01946712 -0.01907853 0.02149501
v -0.01738542 -0.02108572 0.02007632
v -0.01543421 -0.01861421 0.02374373
v -0.01840364 -0.01284482 -0.03884249
v -0.01531575 -0.01458921 -0.04021346
v -0.01665079 -0.01146104 -0.04197367
v -0.01977132 -0.01344725 -0.03409494
v -0.01572743 -0.01623503 -0.03584968
v -0.01992369 -0.01291702 0.02874364
v -0.01677484 -0.01550835 0.02702339
v -0.01961080 -0.01206901 0.03470170
v -0.01569346 -0.01532937 0.03317389
v -0.01863368 -0.01160068 0.04024657
v -0.01580978 -0.01513392 0.03891356
v -0.01585585 -0.01346000 0.04274348
v -0.01965358 -0.00817788 -0.03939987
v -0.01590854 -0.00586521 -0.04342446
v -0.02029397 -0.00607695 0.03944804
v -0.01626919 -0.01060494 0.04576030
v -0.01915666 -0.00673465 0.04614823
v -0.01925982 -0.00597209 0.05348015
v -0.01590675 -0.00924907 0.05183445
v -0.01876996 -0.00544086 0.05849936
v -0.01673403 -0.00871447 0.05708679
v -0.01544102 -0.00693770 0.06041910
v -0.01954720 -0.00174039 -0.04040080
v -0.01644187 0.00130780 -0.04345671
v -0.02020268 0.00122187 0.03913426
v -0.01977709 -0.00026859 0.04565945
v -0.02000701 -0.00117785 0.05109055
v -0.01922563 0.00017440 0.05648973
v -0.01620337 -0.00228179 0.06060607
v -0.01957380 0.00474866 -0.03961681
v -0.01639612 0.00555302 -0.04283533
v -0.01984284 0.00498437 0.03455364
v -0.01858776 0.00583730 0.03847588
v -0.01894066 0.00528319 0.04429557
v -0.01901372 0.00489011 0.05108431
v -0.01695686 0.00545079 0.05511718
v -0.01510175 0.00259841 0.05832341
v -0.01643555 0.00904608 -0.04018819
v -0.01922635 0.01178837 -0.03462133
v -0.01636787 0.01203632 -0.03693508
v -0.02005084 0.01260920 0.02621987
v -0.01775223 0.01105213 0.02978761
v -0.01692024 0.00894143 0.03445582
v -0.01651941 0.00904551 0.04092715
v -0.01574544 0.00920751 0.04734838
v -0.01544363 0.00801593 0.05195160
v -0.01656343 0.01464849 -0.03329190
v -0.01809334 0.01621907 -0.02662783
v -0.01885686 0.01775092 -0.02221888
v -0.01578719 0.01859620 -0.02537943
v -0.01976962 0.01824346 -0.01710086
v -0.01968027 0.01828627 -0.01097784
v -0.01956051 0.01821266 -0.00491204
v -0.01957267 0.01817974 0.00119795
v -0.01967311 0.01823145 0.00728892
v -0.01938077 0.01825612 0.01306969
v -0.01755028 0.01784157 0.01755343
v -0.01622029 0.01604593 0.02168108
v -0.01576309 0.01421006 0.02734840
v -0.01545560 0.02031866 -0.02102583
v -0.01599876 0.02059987 -0.01439750
v -0.01586918 0.02058885 -0.00825356
v -0.01584509 0.02057237 -0.00216030
v -0.01590105 0.02059129 0.00397843
v -0.01592161 0.02069008 0.01020496
v -0.01510570 0.02030558 0.01614293
v -0.01411936 -0.01949835 -0.03315789
v -0.00963606 -0.02116219 -0.03293845
v -0.01097187 -0.01856741 -0.03626090
v -0.00978332 -0.02209413 -0.02723160
v -0.01055385 -0.02206656 -0.02189179
v -0.01044814 -0.02197189 -0.01574283
v -0.01039438 -0.02189715 -0.00960343
v -0.01041220 -0.02186496 -0.00343343
v -0.01032499 -0.02183969 0.00277230
v -0.01005823 -0.02193076 0.00905140
v -0.00998687 -0.02211170 0.01536205
v -0.01152136 -0.02138189 0.02077243
v -0.00877221 -0.01883364 0.02447844
v -0.00950206 -0.01594119 -0.04049233
v -0.01223265 -0.01193287 -0.04368794
v -0.01032758 -0.01640662 0.02795164
v -0.01014322 -0.01589331 0.03327019
v -0.01016020 -0.01615561 0.03951612
v -0.01307170 -0.01242230 0.04649341
v -0.01147383 -0.01497615 0.04423954
v -0.00831468 -0.01277591 0.04862225
v -0.01251091 -0.00704752 -0.04606007
v -0.00938137 -0.01031391 -0.04692146
v -0.00956338 -0.00630002 -0.04843504
v -0.01058632 -0.01040241 0.05166734
v -0.01176500 -0.00923824 0.05768145
v -0.01044074 -0.00603791 0.06106689
v -0.01346682 -0.00171193 -0.04648592
v -0.00974046 -0.00041098 -0.04879262
v -0.01055843 -0.00113209 0.06088992
v -0.01342682 0.00469100 -0.04589751
v -0.00847915 0.00612513 -0.04859600
v -0.01201953 0.00609954 0.05491906
v -0.00900136 0.00280226 0.05818250
v -0.01126421 0.00927180 -0.04513360
v -0.01319334 0.01202702 -0.04018833
v -0.01010832 0.01195290 -0.04353271
v -0.01406825 0.01249496 0.03271289
v -0.01335947 0.01218404 0.03796499
v -0.01317287 0.01227745 0.04392685
v -0.01088841 0.01187063 0.04788781
v -0.00977719 0.00913335 0.05114999
v -0.01031282 0.01509640 -0.04028123
v -0.01264671 0.01779285 -0.03446832
v -0.00973754 0.01873037 -0.03765594
v -0.01395148 0.01819092 -0.02973679
v -0.01384388 0.01864767 0.02036067
v -0.01069030 0.01771090 0.02338817
v -0.00965850 0.01558495 0.02723928
v -0.01028562 0.01453120 0.03393234
v -0.00955364 0.01460373 0.04100035
v -0.00904517 0.01405772 0.04574975
v -0.00936193 0.02040119 -0.03327229
v -0.01084437 0.02063323 -0.02657814
v -0.00967316 0.02124692 -0.02115981
v -0.01052176 0.02125598 -0.01588813
v -0.01046504 0.02125242 -0.00971212
v -0.01040444 0.02123508 -0.00360588
v -0.01041605 0.02123796 0.00250682
v -0.01046641 0.02136550 0.00874821
v -0.01029124 0.02145475 0.01511172
v -0.00980034 0.02023746 0.02060449
v -0.00284002 -0.02127596 -0.03357592
v -0.00568287 -0.01888560 -0.03721263
v -0.00443791 -0.02200780 -0.02811015
v -0.00437150 -0.02191202 -0.02179752
v -0.00416464 -0.02185639 -0.01553876
v -0.00406914 -0.02186033 -0.00943069
v -0.00405039 -0.02184893 -0.00336316
v -0.00392188 -0.02184071 0.00281063
v -0.00373104 -0.02190999 0.00907385
v -0.00370151 -0.02200958 0.01537043
v -0.00532739 -0.02128033 0.02084648
v -0.00264397 -0.01876402 0.02453553
v -0.00760737 -0.01345176 -0.04557632
v -0.00312429 -0.01500697 -0.04513709
v -0.00521388 -0.01149941 -0.04845500
v -0.00320858 -0.01667349 -0.04027429
v -0.00421204 -0.01637202 0.02812446
v -0.00400298 -0.01573962 0.03350113
v -0.00375924 -0.01601774 0.03978562
v -0.00528374 -0.01530550 0.04523492
v -0.00228433 -0.01283621 0.04916585
v -0.00432102 -0.00608697 -0.05010355
v -0.00475216 -0.01058295 0.05219455
v -0.00499981 -0.00882075 0.05727723
v -0.00380595 -0.00481452 0.06071971
v -0.00511092 0.00108687 -0.05014620
v -0.00409819 0.00025017 0.06078250
v -0.00320444 0.00703475 -0.05006463
v -0.00596548 0.00589371 0.05518469
v -0.00364034 0.00359148 0.05860393
v -0.00788640 0.01154832 -0.04615328
v -0.00376018 0.01125509 -0.04843176
v -0.00554969 0.01222091 0.04872007
v -0.00241160 0.00906941 0.05276242
v -0.00498807 0.01508237 -0.04506281
v -0.00707359 0.01785895 -0.04125018
v -0.00260117 0.01824726 -0.04314235
v -0.00543513 0.01804645 0.02438216
v -0.00268091 0.01560060 0.02805410
v -0.00423295 0.01504590 0.03341511
v -0.00408514 0.01535136 0.03969309
v -0.00402983 0.01466742 0.04504774
v -0.00484175 0.02043067 -0.03858675
v -0.00354359 0.02130811 -0.03347072
v -0.00434730 0.02123109 -0.02814130
v -0.00429971 0.02117257 -0.02196590
v -0.00424045 0.02113927 -0.01581856
v -0.00421969 0.02110940 -0.00963106
v -0.00415601 0.02109783 -0.00348491
v -0.00413301 0.02109871 0.00265360
v -0.00411757 0.02120073 0.00890727
v -0.00400135 0.02137537 0.01518977
v -0.00391552 0.02060640 0.02066433
v 0.00348177 -0.02133352 -0.03346089
v 0.00050190 -0.01885215 -0.03728352
v 0.00189363 -0.02210181 -0.02810031
v 0.00200267 -0.02193698 -0.02175622
v 0.00224034 -0.02186699 -0.01544552
v 0.00225791 -0.02189395 -0.00923965
v 0.00222326 -0.02192650 -0.00308034
v 0.00232659 -0.02197398 0.00302594
v 0.00247215 -0.02201221 0.00921038
v 0.00164221 -0.02204830 0.01456101
v 0.00137428 -0.02104749 0.02038619
v 0.00258806 -0.01840011 0.02366507
v 0.00328692 -0.01522298 -0.04575136
v 0.00031219 -0.01209576 -0.04955150
v 0.00200299 -0.01648802 -0.04099976
v 0.00194999 -0.01638030 0.02671674
v 0.00200121 -0.01503915 0.03289422
v 0.00166003 -0.01511723 0.03979210
v 0.00071056 -0.01490376 0.04534510
v 0.00197628 -0.01285614 0.04859620
v -0.00024115 -0.00728181 -0.05214549
v 0.00369512 -0.00969056 -0.05267302
v 0.00184993 -0.00538889 -0.05434781
v 0.00153745 -0.00968029 0.05192013
v -0.00051825 -0.00706493 0.05758803
v 0.00295456 -0.00617928 0.05471803
v -0.00131605 -0.00195760 -0.05249988
v 0.00245937 -0.00036923 -0.05494778
v 0.00252823 -0.00436921 0.05806245
v 0.00230128 -0.00121883 0.06092408
v -0.00103489 0.00412467 -0.05239527
v 0.00363764 0.00641306 -0.05475730
v -0.00136767 0.00627271 0.05726795
v 0.00200050 0.00400650 0.06064703
v 0.00090776 0.00885441 -0.05202686
v 0.00158441 0.01185769 -0.05019205
v 0.00078531 0.01225915 0.04877975
v 0.00378149 0.00986464 0.05271220
v 0.00269900 0.00802158 0.05758725
v 0.00131470 0.01516824 -0.04706245
v 0.00324964 0.01825913 -0.04347891
v 0.00075242 0.01807797 0.02450336
v 0.00290991 0.01576683 0.02736181
v 0.00258901 0.01437516 0.03256495
v 0.00206073 0.01531135 0.03960485
v 0.00232051 0.01472056 0.04500795
v 0.00164646 0.02059223 -0.03968863
v 0.00173943 0.02127359 -0.03429226
v 0.00193130 0.02116986 -0.02805936
v 0.00199083 0.02109587 -0.02173814
v 0.00203325 0.02109164 -0.01547176
v 0.00207255 0.02109762 -0.00927802
v 0.00213082 0.02110061 -0.00314157
v 0.00219589 0.02110903 0.00300676
v 0.00221484 0.02118158 0.00924034
v 0.00234837 0.02128154 0.01544225
v 0.00239553 0.02055017 0.02080878
v 0.00940133 -0.02096380 -0.03261652
v 0.00630689 -0.01880709 -0.03685981
v 0.00825088 -0.02218772 -0.02787276
v 0.00832080 -0.02210929 -0.02158604
v 0.00850874 -0.02198659 -0.01527798
v 0.00761487 -0.02196801 -0.00999247
v 0.00829033 -0.02131110 -0.00359298
v 0.00760955 -0.02118640 0.00313139
v 0.00780615 -0.02126131 0.00929339
v 0.00673889 -0.02108669 0.01577032
v 0.00582704 -0.01931667 0.02070805
v 0.00944978 -0.01846068 0.01792612
v 0.00938244 -0.01525302 -0.04575377
v 0.00648338 -0.01311554 -0.04962813
v 0.00840868 -0.01642582 -0.03999155
v 0.00804770 -0.01668691 0.02192198
v 0.00749768 -0.01477386 0.02756619
v 0.00588296 -0.01304270 0.03304254
v 0.00808322 -0.01266479 0.03031303
v 0.00527445 -0.01274594 0.03828691
v 0.00484628 -0.01252177 0.04501831
v 0.00960460 -0.01010469 -0.05264087
v 0.00659790 -0.00611050 -0.05504384
v 0.00955323 -0.01009573 0.03393931
v 0.00841081 -0.01058756 0.04050879
v 0.00812623 -0.00908750 0.04594205
v 0.00564302 -0.00691824 0.05098215
v 0.00841494 -0.00665122 0.04851643
v 0.00801025 -0.00040772 -0.05582446
v 0.00841909 -0.00409193 0.05234758
v 0.00726589 -0.00224426 0.05840639
v 0.00804175 0.00151364 0.06063470
v 0.00898413 0.00510105 -0.05585935
v 0.00733650 0.00601741 0.06041855
v 0.00449503 0.01153705 -0.05299172
v 0.00865866 0.01045052 -0.05450919
v 0.00601007 0.01228903 0.03416437
v 0.00725206 0.01225157 0.03110316
v 0.00964899 0.01028549 0.03362560
v 0.00888379 0.01165664 0.03692799
v 0.00730567 0.01163174 0.04888965
v 0.00796018 0.00915223 0.05254928
v 0.00783106 0.00801743 0.05655949
v 0.00745364 0.01404169 -0.05068830
v 0.00717337 0.01606111 -0.04640864
v 0.00947485 0.01822763 -0.04327286
v 0.00653946 0.01808522 0.02412046
v 0.00879736 0.01496689 0.02710517
v 0.00664450 0.01413149 0.03854408
v 0.00778885 0.01436214 0.04410465
v 0.00796624 0.02063976 -0.03951768
v 0.00808622 0.02136538 -0.03403556
v 0.00826471 0.02120179 -0.02772167
v 0.00830099 0.02113542 -0.02138714
v 0.00831951 0.02118220 -0.01522147
v 0.00830322 0.02121793 -0.00913262
v 0.00830647 0.02123453 -0.00302983
v 0.00842879 0.02125111 0.00307516
v 0.00850051 0.02127518 0.00927220
v 0.00770198 0.02131555 0.01461978
v 0.00888033 0.02035708 0.01967981
v 0.01090672 -0.01840298 -0.03492505
v 0.01370007 -0.01933085 -0.03130460
v 0.01380514 -0.02102909 -0.02737328
v 0.01384939 -0.02143055 -0.02150994
v 0.01395009 -0.02134812 -0.01526088
v 0.01269908 -0.02105150 -0.00882938
v 0.01212133 -0.01925345 -0.00357768
v 0.01526660 -0.01846543 -0.00680069
v 0.01125078 -0.01878630 0.00151805
v 0.01144399 -0.01879124 0.00767960
v 0.01127645 -0.01883573 0.01345589
v 0.01538767 -0.01497701 -0.04492858
v 0.01401849 -0.01219532 -0.04895227
v 0.01427179 -0.01598857 -0.04011309
v 0.01504855 -0.01673664 -0.03356514
v 0.01561531 -0.01674736 -0.00253560
v 0.01512136 -0.01644646 0.00417976
v 0.01456995 -0.01659894 0.00981712
v 0.01437295 -0.01578652 0.01572713
v 0.01308533 -0.01470909 0.02207276
v 0.01129906 -0.01268987 0.02715332
v 0.01451767 -0.01277561 0.02390647
v 0.01498729 -0.00907797 -0.05217139
v 0.01351935 -0.00562475 -0.05484584
v 0.01419957 -0.00950878 0.02722444
v 0.01227564 -0.00678997 0.03264984
v 0.01394607 -0.00630255 0.03040896
v 0.01333451 -0.00693333 0.03603343
v 0.01269332 -0.00850684 0.04006833
v 0.01161349 -0.00678785 0.04545403
v 0.01523592 -0.00603488 0.04278461
v 0.01351714 0.00041294 -0.05588616
v 0.01536863 -0.00467217 0.03275215
v 0.01375144 -0.00342319 0.04703951
v 0.01216198 0.00023311 0.05240024
v 0.01481523 0.00140211 0.04855423
v 0.01054469 -0.00043908 0.05703419
v 0.01505085 0.00586856 -0.05531040
v 0.01146628 0.00648275 0.05185672
v 0.01441207 0.00646848 0.04820500
v 0.01079656 0.00405468 0.05773878
v 0.01386224 0.01006138 -0.05313075
v 0.01166669 0.01266649 -0.05163145
v 0.01633389 0.01217515 -0.04975006
v 0.01345543 0.01126966 0.03042556
v 0.01461475 0.00835429 0.03332657
v 0.01339587 0.00907050 0.03795467
v 0.01107941 0.01232902 0.04155170
v 0.01466761 0.00883686 0.04415188
v 0.01174686 0.01088716 0.04674066
v 0.01357296 0.01521531 -0.04649442
v 0.01483943 0.01788692 -0.04222639
v 0.01099124 0.01774274 0.02229057
v 0.01377429 0.01860889 0.01874355
v 0.01544638 0.01594706 0.02155851
v 0.01503657 0.01429263 0.02745501
v 0.01397410 0.02036640 -0.03926928
v 0.01443107 0.02151965 -0.03382615
v 0.01462586 0.02143000 -0.02751278
v 0.01458134 0.02132020 -0.02127981
v 0.01368878 0.02131774 -0.01603303
v 0.01480095 0.02072047 -0.01076901
v 0.01371136 0.02057311 -0.00454156
v 0.01373223 0.02056126 0.00151944
v 0.01391771 0.02054311 0.00764831
v 0.01348835 0.02032184 0.01431721
v 0.01677836 -0.01847613 -0.02807456
v 0.01766494 -0.01894127 -0.02286700
v 0.01775200 -0.01902881 -0.01680062
v 0.01727736 -0.01896816 -0.01116473
v 0.01756446 -0.01299432 -0.04633779
v 0.01983454 -0.01353526 -0.04356935
v 0.01981731 -0.01504446 -0.03966657
v 0.01983267 -0.01525456 -0.03380273
v 0.02002903 -0.01581201 -0.02697378
v 0.02064883 -0.01585554 -0.02009949
v 0.02061896 -0.01590132 -0.01412532
v 0.01965730 -0.01588193 -0.00808407
v 0.02063452 -0.01507249 -0.00270032
v 0.01988951 -0.01516239 0.00262333
v 0.01881453 -0.01485294 0.00910408
v 0.01857221 -0.01318478 0.01439474
v 0.02113315 -0.01193045 0.01236397
v 0.01698560 -0.01243906 0.02004089
v 0.01826052 -0.00597536 -0.05313034
v 0.01933564 -0.00791098 -0.04984153
v 0.02030737 -0.01065344 -0.04592864
v 0.02065657 -0.01006874 0.01670304
v 0.01937657 -0.00885402 0.02210557
v 0.01719824 -0.00648383 0.02723959
v 0.02142663 -0.00617507 0.02356216
v 0.01642328 -0.00477380 0.03882802
v 0.02138670 -0.00415978 -0.05190878
v 0.01909420 -0.00088670 -0.05500050
v 0.02057606 -0.00370636 0.02775321
v 0.01788336 -0.00041494 0.03430192
v 0.02146406 0.00006644 0.03031586
v 0.01779054 0.00047757 0.04054313
v 0.01685025 -0.00172605 0.04424294
v 0.02095653 0.00441326 -0.05469713
v 0.01744911 0.00495795 0.03408190
v 0.02034640 0.00599140 0.03118029
v 0.01689716 0.00521801 0.03964702
v 0.01679978 0.00402061 0.04518642
v 0.01901654 0.00867418 -0.05274704
v 0.02095961 0.01120892 -0.04932637
v 0.02010425 0.01135990 0.02967763
v 0.01955315 0.01384260 -0.04613343
v 0.01981888 0.01553644 -0.04178350
v 0.01810386 0.01884931 -0.03901303
v 0.02126960 0.01752901 -0.03718921
v 0.01781466 0.01818035 -0.00769873
v 0.02022671 0.01783236 -0.01176017
v 0.02045283 0.01554665 -0.00914295
v 0.02038739 0.01495548 -0.00493430
v 0.01742946 0.01816047 -0.00185916
v 0.02111420 0.01512797 0.00214136
v 0.01762346 0.01820624 0.00433206
v 0.02144070 0.01591145 0.00890257
v 0.01768654 0.01811893 0.01041817
v 0.01997138 0.01580360 0.01500898
v 0.01674047 0.01769801 0.01556323
v 0.02158285 0.01448506 0.02019090
v 0.01970815 0.01414349 0.02584442
v 0.01930040 0.02046156 -0.03478706
v 0.02005359 0.02082336 -0.02894196
v 0.02007582 0.02080094 -0.02268720
v 0.01946737 0.02051360 -0.01620087
v 0.02273041 -0.01156748 -0.04105757
v 0.02374377 -0.01210376 -0.03543751
v 0.02370749 -0.01293959 -0.02928368
v 0.02364756 -0.01285697 -0.02319239
v 0.02358714 -0.01224329 -0.01633131
v 0.02281219 -0.01207058 -0.00960383
v 0.02288630 -0.01208292 -0.00339548
v 0.02303512 -0.01214358 0.00276345
v 0.02261872 -0.01208162 0.00848108
v 0.02300180 -0.00564965 -0.04606907
v 0.02442182 -0.00675802 -0.03940576
v 0.02634291 -0.00731626 -0.03627873
v 0.02682100 -0.00963423 -0.03234201
v 0.02682208 -0.00997979 -0.02656680
v 0.02673110 -0.00987359 -0.02042272
v 0.02626943 -0.00899687 -0.01522257
v 0.02438427 -0.00734687 -0.00977356
v 0.02713173 -0.00593694 -0.01196334
v 0.02339631 -0.00658564 -0.00325123
v 0.02355884 -0.00742541 0.00210763
v 0.02423807 -0.00631688 0.00744453
v 0.02374734 -0.00761977 0.01340564
v 0.02336340 -0.00665690 0.01917500
v 0.02311496 0.00033863 -0.05162575
v 0.02367269 0.00032502 -0.04570633
v 0.02428281 -0.00052629 -0.04096000
v 0.02669134 -0.00202233 -0.03729058
v 0.02613987 -0.00323253 -0.00827909
v 0.02389136 -0.00065549 -0.00337393
v 0.02654541 0.00131057 -0.00631897
v 0.02394774 -0.00086282 0.00291046
v 0.02616383 -0.00077620 0.00663015
v 0.02679265 -0.00321618 0.01055941
v 0.02695730 -0.00363044 0.01632528
v 0.02608517 -0.00369197 0.02261404
v 0.02574365 -0.00254643 0.02728429
v 0.02648516 0.00113045 0.02958486
v 0.02301473 0.00685913 -0.05134407
v 0.02388012 0.00565703 -0.04651497
v 0.02417142 0.00604733 -0.03993981
v 0.02658700 0.00393908 -0.03689569
v 0.02394993 0.00640017 -0.00304343
v 0.02625781 0.00613950 -0.00683992
v 0.02407373 0.00601832 0.00215622
v 0.02662729 0.00460145 0.00569373
v 0.02561044 0.00688345 0.02987893
v 0.02290741 0.01127957 -0.04591302
v 0.02320997 0.01236174 -0.03968379
v 0.02618426 0.00854319 -0.03493437
v 0.02455847 0.01280390 -0.03349193
v 0.02714103 0.01128018 -0.03132856
v 0.02352656 0.01213819 -0.00866897
v 0.02637986 0.01309738 -0.01265635
v 0.02720859 0.00939562 -0.00985081
v 0.02249503 0.01186042 -0.00244967
v 0.02380471 0.01143141 0.00253898
v 0.02681834 0.01058507 0.00619201
v 0.02399584 0.01221715 0.02338011
v 0.02597624 0.01260099 0.01871726
v 0.02735442 0.01001627 0.02102417
v 0.02701110 0.00862844 0.02606649
v 0.02366348 0.01130832 0.02787287
v 0.02273723 0.01767619 -0.03323752
v 0.02635087 0.01443158 -0.02809886
v 0.02379034 0.01789320 -0.02681027
v 0.02684231 0.01548710 -0.02285904
v 0.02383422 0.01854107 -0.01989598
v 0.02686075 0.01513012 -0.01706499
v 0.02372169 0.01692571 -0.01464145
v 0.02543685 0.01427470 0.00782296
v 0.02566538 0.01430989 0.01409094
v 0.02877417 -0.00500608 -0.03362497
v 0.02919172 -0.00616744 -0.02812168
v 0.02922410 -0.00602416 -0.02175054
v 0.02883148 -0.00601367 -0.01586231
v 0.02919216 0.00099387 -0.03355288
v 0.03000217 -0.00054276 -0.02813989
v 0.03000492 -0.00039116 -0.02168259
v 0.03000861 -0.00036566 -0.01529737
v 0.02878959 -0.00159161 -0.01051953
v 0.02886220 0.00144781 0.00930380
v 0.02941833 0.00025562 0.01487972
v 0.02957763 0.00015458 0.02134281
v 0.02908093 -0.00077155 0.02624205
v 0.02875915 0.00698366 -0.03262858
v 0.03002226 0.00589395 -0.02786226
v 0.02999640 0.00594400 -0.02147866
v 0.02998258 0.00519368 -0.01592460
v 0.02899152 0.00489787 -0.01013801
v 0.02946006 0.00750891 0.00944609
v 0.03022358 0.00488733 0.01392541
v 0.02963730 0.00571415 0.02067648
v 0.02927163 0.00378218 0.02703233
v 0.02882356 0.01145035 -0.02737350
v 0.02923590 0.01156320 -0.02146829
v 0.02897508 0.01045164 -0.01478465
v 0.02885340 0.01237741 0.01023669
v 0.02926197 0.01029102 0.01536561
f 3 2 1
f 5 4 1
f 5 1 2
f 7 6 4
f 7 4 5
f 9 8 6
f 9 6 7
f 10 8 9
f 13 12 11
f 11 12 3
f 1 11 3
f 14 11 1
f 15 1 4
f 14 1 15
f 16 4 6
f 15 4 16
f 17 6 8
f 16 6 17
f 8 10 18
f 8 18 17
f 13 11 19
f 13 19 20
f 21 11 14
f 19 11 21
f 22 14 15
f 21 14 22
f 23 15 16
f 22 15 23
f 24 16 17
f 23 16 24
f 17 18 25
f 17 25 24
f 20 19 26
f 20 26 27
f 28 19 21
f 26 19 28
f 29 21 22
f 28 21 29
f 30 22 23
f 29 22 30
f 31 23 24
f 30 23 31
f 24 25 32
f 24 32 31
f 33 27 26
f 33 26 28
f 33 28 34
f 34 28 29
f 34 29 35
f 35 29 30
f 35 30 36
f 36 30 31
f 36 31 37
f 37 31 32
f 40 39 38
f 42 41 38
f 42 38 39
f 44 43 41
f 44 41 42
f 46 45 43
f 46 43 44
f 48 47 45
f 48 45 46
f 49 47 48
f 52 51 50
f 54 53 50
f 54 50 51
f 56 55 53
f 56 53 54
f 55 56 40
f 38 55 40
f 57 55 38
f 3 57 2
f 57 41 2
f 57 38 41
f 2 41 5
f 5 41 43
f 5 43 7
f 7 43 45
f 7 45 9
f 9 45 47
f 59 58 10
f 59 10 9
f 49 59 9
f 47 49 9
f 60 58 59
f 63 62 61
f 61 62 52
f 50 61 52
f 64 61 50
f 65 50 53
f 64 50 65
f 66 53 55
f 65 53 66
f 13 66 12
f 66 57 12
f 66 55 57
f 12 57 3
f 67 18 58
f 58 18 10
f 58 60 68
f 69 58 68
f 67 58 69
f 71 70 69
f 71 69 68
f 72 70 71
f 63 61 73
f 63 73 74
f 75 61 64
f 73 61 75
f 76 64 65
f 75 64 76
f 77 65 66
f 76 65 77
f 20 77 13
f 13 77 66
f 78 25 67
f 67 25 18
f 79 67 69
f 78 67 79
f 80 69 70
f 79 69 80
f 70 72 81
f 70 81 80
f 74 73 82
f 74 82 83
f 84 73 75
f 82 73 84
f 85 75 76
f 84 75 85
f 86 76 77
f 85 76 86
f 27 86 20
f 20 86 77
f 87 32 78
f 78 32 25
f 88 78 79
f 87 78 88
f 80 90 89
f 88 80 89
f 79 80 88
f 90 80 81
f 91 83 82
f 93 92 91
f 82 93 91
f 84 93 82
f 94 84 85
f 93 84 94
f 95 85 86
f 94 85 95
f 33 96 27
f 96 86 27
f 96 95 86
f 34 97 33
f 33 97 96
f 35 98 34
f 34 98 97
f 36 99 35
f 35 99 98
f 37 100 36
f 36 100 99
f 32 87 37
f 87 100 37
f 87 101 100
f 88 103 102
f 101 88 102
f 87 88 101
f 103 88 89
f 104 92 93
f 104 93 94
f 104 94 105
f 105 94 95
f 105 95 106
f 106 95 96
f 106 96 107
f 107 96 97
f 107 97 108
f 108 97 98
f 108 98 109
f 109 98 99
f 109 99 110
f 110 99 100
f 110 100 111
f 111 100 101
f 111 101 112
f 112 101 102
f 115 114 113
f 117 116 113
f 117 113 114
f 119 118 116
f 119 116 117
f 39 40 118
f 119 39 118
f 120 39 119
f 39 121 42
f 120 121 39
f 42 122 44
f 121 122 42
f 44 123 46
f 122 123 44
f 46 124 48
f 123 124 46
f 126 125 49
f 48 126 49
f 124 126 48
f 127 125 126
f 130 129 128
f 132 131 128
f 132 128 129
f 131 132 115
f 131 115 113
f 52 131 113
f 51 52 113
f 51 113 54
f 54 113 116
f 54 116 56
f 56 116 118
f 56 118 40
f 125 59 49
f 134 133 60
f 134 60 59
f 127 134 59
f 125 127 59
f 136 135 133
f 136 133 134
f 138 137 135
f 138 135 136
f 139 137 138
f 130 128 140
f 130 140 141
f 63 140 62
f 140 131 62
f 140 128 131
f 62 131 52
f 133 68 60
f 68 133 71
f 71 133 135
f 71 135 72
f 135 142 72
f 135 137 142
f 137 139 143
f 144 137 143
f 142 137 144
f 146 145 144
f 146 144 143
f 148 147 145
f 148 145 146
f 149 147 148
f 141 140 150
f 141 150 151
f 74 150 63
f 63 150 140
f 152 81 142
f 142 81 72
f 153 142 144
f 152 142 153
f 154 144 145
f 153 144 154
f 155 145 147
f 154 145 155
f 147 149 156
f 147 156 155
f 151 150 157
f 151 157 158
f 83 157 74
f 74 157 150
f 159 89 90
f 81 152 90
f 152 159 90
f 152 160 159
f 161 152 153
f 160 152 161
f 162 153 154
f 161 153 162
f 155 164 163
f 162 155 163
f 154 155 162
f 164 155 156
f 165 158 157
f 167 165 166
f 166 165 91
f 165 157 91
f 157 83 91
f 92 166 91
f 168 102 103
f 169 168 103
f 169 103 89
f 170 169 89
f 159 170 89
f 170 159 160
f 170 160 171
f 171 160 161
f 171 161 172
f 172 161 162
f 172 162 173
f 173 162 163
f 174 167 166
f 174 166 92
f 104 174 92
f 175 174 104
f 177 175 176
f 175 105 176
f 175 104 105
f 106 178 105
f 105 178 176
f 107 179 106
f 106 179 178
f 108 180 107
f 107 180 179
f 109 181 108
f 108 181 180
f 110 182 109
f 109 182 181
f 111 183 110
f 110 183 182
f 183 111 184
f 111 185 184
f 111 112 185
f 112 102 168
f 186 112 168
f 185 112 186
f 186 168 169
f 187 177 176
f 187 176 178
f 187 178 188
f 188 178 179
f 188 179 189
f 189 179 180
f 189 180 190
f 190 180 181
f 190 181 191
f 191 181 182
f 191 182 192
f 192 182 183
f 192 183 193
f 193 183 184
f 196 195 194
f 114 115 194
f 195 114 194
f 197 114 195
f 114 198 117
f 197 198 114
f 117 199 119
f 198 199 117
f 119 200 120
f 199 200 119
f 120 201 121
f 200 201 120
f 121 202 122
f 201 202 121
f 122 203 123
f 202 203 122
f 123 204 124
f 203 204 123
f 124 205 126
f 204 205 124
f 127 126 205
f 127 205 206
f 208 207 129
f 208 129 130
f 194 132 196
f 132 207 196
f 132 129 207
f 132 194 115
f 206 209 127
f 127 209 134
f 134 210 136
f 209 210 134
f 136 211 138
f 210 211 136
f 213 212 139
f 138 213 139
f 211 213 138
f 214 212 213
f 217 216 215
f 216 208 215
f 208 141 215
f 208 130 141
f 212 143 139
f 214 218 212
f 218 143 212
f 218 146 143
f 146 219 148
f 218 219 146
f 149 148 219
f 149 219 220
f 217 215 221
f 217 221 222
f 151 221 141
f 141 221 215
f 220 156 149
f 223 156 220
f 222 221 224
f 222 224 225
f 158 224 151
f 151 224 221
f 227 226 164
f 164 226 163
f 164 156 223
f 164 223 227
f 228 225 224
f 230 228 229
f 229 228 165
f 228 224 165
f 224 158 165
f 167 229 165
f 231 169 170
f 171 232 170
f 170 232 231
f 172 233 171
f 171 233 232
f 233 172 234
f 172 235 234
f 172 173 235
f 173 163 226
f 173 226 235
f 236 230 229
f 238 236 237
f 237 236 174
f 236 229 174
f 229 167 174
f 175 239 174
f 174 239 237
f 177 239 175
f 240 184 185
f 240 185 241
f 185 242 241
f 185 186 242
f 186 169 231
f 243 186 231
f 242 186 243
f 243 231 232
f 243 232 244
f 244 232 233
f 244 233 245
f 245 233 234
f 246 238 237
f 246 237 239
f 246 239 247
f 247 239 177
f 187 247 177
f 248 247 187
f 249 187 188
f 249 248 187
f 250 188 189
f 250 249 188
f 251 189 190
f 251 250 189
f 252 190 191
f 252 251 190
f 253 191 192
f 253 252 191
f 254 192 193
f 254 253 192
f 193 184 240
f 255 193 240
f 254 193 255
f 255 240 241
f 257 256 195
f 257 195 196
f 195 258 197
f 256 258 195
f 197 259 198
f 258 259 197
f 198 260 199
f 259 260 198
f 199 261 200
f 260 261 199
f 200 262 201
f 261 262 200
f 201 263 202
f 262 263 201
f 202 264 203
f 263 264 202
f 203 265 204
f 264 265 203
f 204 266 205
f 265 266 204
f 206 205 266
f 206 266 267
f 270 269 268
f 207 208 268
f 269 207 268
f 271 207 269
f 196 207 257
f 257 207 271
f 267 272 206
f 206 272 209
f 209 273 210
f 272 273 209
f 210 274 211
f 273 274 210
f 211 275 213
f 274 275 211
f 214 213 275
f 214 275 276
f 270 268 216
f 217 270 216
f 277 270 217
f 216 268 208
f 276 278 214
f 214 278 218
f 218 279 219
f 278 279 218
f 220 219 279
f 220 279 280
f 222 277 217
f 222 281 277
f 280 223 220
f 282 223 280
f 225 281 222
f 225 283 281
f 285 284 227
f 227 284 226
f 227 223 282
f 227 282 285
f 225 228 286
f 287 225 286
f 283 225 287
f 230 286 228
f 289 288 235
f 235 288 234
f 235 226 284
f 235 284 289
f 290 287 286
f 292 290 291
f 291 290 236
f 290 286 236
f 286 230 236
f 238 291 236
f 294 293 242
f 242 293 241
f 295 242 243
f 295 294 242
f 296 243 244
f 296 295 243
f 297 244 245
f 297 296 244
f 245 234 288
f 245 288 297
f 298 292 291
f 298 291 238
f 246 298 238
f 299 298 246
f 300 246 247
f 300 299 246
f 301 247 248
f 301 300 247
f 302 248 249
f 302 301 248
f 303 249 250
f 303 302 249
f 304 250 251
f 304 303 250
f 305 251 252
f 305 304 251
f 306 252 253
f 306 305 252
f 307 253 254
f 307 306 253
f 308 254 255
f 308 307 254
f 255 241 293
f 255 293 308
f 310 309 256
f 310 256 257
f 256 311 258
f 309 311 256
f 258 312 259
f 311 312 258
f 259 313 260
f 312 313 259
f 260 314 261
f 313 314 260
f 261 315 262
f 314 315 261
f 262 316 263
f 315 316 262
f 263 317 264
f 316 317 263
f 264 318 265
f 317 318 264
f 265 319 266
f 318 319 265
f 267 266 319
f 267 319 320
f 322 321 269
f 322 269 270
f 269 323 271
f 321 323 269
f 257 271 310
f 310 271 323
f 320 324 267
f 267 324 272
f 272 325 273
f 324 325 272
f 273 326 274
f 325 326 273
f 274 327 275
f 326 327 274
f 276 275 327
f 276 327 328
f 331 330 329
f 330 322 329
f 322 277 329
f 322 270 277
f 328 332 276
f 276 332 278
f 332 334 333
f 279 332 333
f 278 332 279
f 333 280 279
f 331 329 335
f 331 335 336
f 281 335 277
f 277 335 329
f 334 337 333
f 280 333 337
f 338 280 337
f 282 280 338
f 336 335 339
f 336 339 340
f 283 339 281
f 281 339 335
f 341 284 285
f 342 341 285
f 282 342 285
f 338 342 282
f 343 340 339
f 339 283 343
f 283 344 343
f 283 287 344
f 346 345 289
f 289 345 288
f 289 284 341
f 347 289 341
f 346 289 347
f 347 341 342
f 348 344 287
f 348 287 290
f 290 292 348
f 348 292 349
f 351 350 294
f 294 350 293
f 352 294 295
f 352 351 294
f 353 295 296
f 353 352 295
f 354 296 297
f 354 353 296
f 297 288 345
f 297 345 354
f 355 349 292
f 355 292 298
f 356 298 299
f 356 355 298
f 357 299 300
f 357 356 299
f 358 300 301
f 358 357 300
f 359 301 302
f 359 358 301
f 360 302 303
f 360 359 302
f 361 303 304
f 361 360 303
f 362 304 305
f 362 361 304
f 363 305 306
f 363 362 305
f 364 306 307
f 364 363 306
f 365 307 308
f 365 364 307
f 308 293 350
f 308 350 365
f 367 366 309
f 367 309 310
f 309 368 311
f 366 368 309
f 311 369 312
f 368 369 311
f 312 370 313
f 369 370 312
f 313 371 314
f 370 371 313
f 314 372 315
f 371 372 314
f 315 373 316
f 372 373 315
f 316 374 317
f 373 374 316
f 317 375 318
f 374 375 317
f 375 377 376
f 319 375 376
f 318 375 319
f 376 320 319
f 379 378 321
f 379 321 322
f 321 380 323
f 378 380 321
f 310 323 367
f 367 323 380
f 377 381 376
f 376 381 320
f 381 324 320
f 381 382 324
f 382 384 383
f 325 382 383
f 324 382 325
f 385 326 325
f 385 325 383
f 386 327 326
f 386 326 385
f 386 328 327
f 388 387 330
f 388 330 331
f 322 330 379
f 379 330 387
f 384 389 383
f 383 389 385
f 385 389 390
f 385 390 386
f 386 390 391
f 391 393 392
f 391 392 332
f 386 391 332
f 328 386 332
f 392 334 332
f 336 388 331
f 336 394 388
f 393 395 392
f 392 395 334
f 395 337 334
f 395 396 337
f 338 337 396
f 338 396 397
f 340 394 336
f 340 398 394
f 397 342 338
f 399 342 397
f 340 343 400
f 401 340 400
f 398 340 401
f 344 400 343
f 404 403 402
f 402 405 404
f 407 406 346
f 346 406 345
f 408 346 347
f 408 407 346
f 347 342 399
f 347 399 408
f 409 401 400
f 409 400 344
f 348 409 344
f 410 409 348
f 348 349 410
f 410 349 411
f 413 412 351
f 351 412 350
f 352 402 403
f 413 352 403
f 351 352 413
f 414 405 402
f 352 414 402
f 353 414 352
f 415 353 354
f 415 414 353
f 354 345 406
f 354 406 415
f 416 411 349
f 416 349 355
f 417 355 356
f 417 416 355
f 418 356 357
f 418 417 356
f 419 357 358
f 419 418 357
f 420 358 359
f 420 419 358
f 421 359 360
f 421 420 359
f 422 360 361
f 422 421 360
f 423 361 362
f 423 422 361
f 424 362 363
f 424 423 362
f 425 363 364
f 425 424 363
f 426 364 365
f 426 425 364
f 365 350 412
f 365 412 426
f 367 427 366
f 366 427 428
f 429 366 428
f 368 366 429
f 368 430 369
f 429 430 368
f 369 431 370
f 430 431 369
f 370 432 371
f 431 432 370
f 432 434 433
f 372 432 433
f 371 432 372
f 435 373 372
f 435 372 433
f 436 374 373
f 436 373 435
f 437 375 374
f 437 374 436
f 437 377 375
f 439 438 378
f 439 378 379
f 378 440 380
f 438 440 378
f 367 380 427
f 380 441 427
f 380 440 441
f 427 441 428
f 434 442 433
f 433 442 435
f 435 442 443
f 435 443 436
f 436 443 444
f 436 444 437
f 437 444 445
f 437 445 377
f 445 381 377
f 445 446 381
f 446 448 447
f 382 446 447
f 381 446 382
f 447 384 382
f 450 449 387
f 450 387 388
f 379 387 439
f 439 387 449
f 448 451 447
f 451 453 452
f 451 452 389
f 447 451 389
f 384 447 389
f 389 452 454
f 455 389 454
f 390 389 455
f 455 457 456
f 391 455 456
f 390 455 391
f 456 393 391
f 394 450 388
f 394 458 450
f 453 459 452
f 452 459 454
f 457 460 456
f 460 462 461
f 460 461 395
f 456 460 395
f 393 456 395
f 463 396 395
f 463 395 461
f 463 397 396
f 398 458 394
f 398 464 458
f 461 462 465
f 465 462 466
f 461 467 463
f 461 465 467
f 467 399 397
f 467 397 463
f 401 469 468
f 464 401 468
f 398 401 464
f 469 470 468
f 472 471 404
f 404 471 403
f 474 473 405
f 473 404 405
f 473 472 404
f 476 475 474
f 474 475 473
f 475 476 466
f 466 476 465
f 476 406 465
f 406 407 465
f 465 407 408
f 465 408 467
f 467 408 399
f 409 469 401
f 477 470 469
f 409 477 469
f 410 477 409
f 410 411 477
f 477 411 478
f 481 480 479
f 412 413 479
f 413 481 479
f 413 482 481
f 413 403 471
f 413 471 482
f 414 474 405
f 474 414 415
f 474 415 476
f 476 415 406
f 483 478 411
f 483 411 416
f 484 416 417
f 484 483 416
f 485 417 418
f 485 484 417
f 486 418 419
f 486 485 418
f 487 419 420
f 487 486 419
f 488 420 421
f 488 487 420
f 489 421 422
f 489 488 421
f 490 422 423
f 490 489 422
f 491 423 424
f 491 490 423
f 492 424 425
f 492 491 424
f 426 479 480
f 492 426 480
f 425 426 492
f 479 426 412
f 428 493 429
f 494 430 429
f 494 429 493
f 495 431 430
f 495 430 494
f 496 432 431
f 496 431 495
f 496 434 432
f 439 497 438
f 438 497 498
f 499 438 498
f 440 438 499
f 440 500 441
f 499 500 440
f 428 441 493
f 441 501 493
f 441 500 501
f 493 501 494
f 494 501 502
f 494 502 495
f 495 502 503
f 495 503 496
f 496 503 504
f 496 504 434
f 504 442 434
f 504 505 442
f 442 506 443
f 505 506 442
f 443 507 444
f 506 507 443
f 507 509 508
f 445 507 508
f 444 507 445
f 510 446 445
f 510 445 508
f 510 448 446
f 450 511 449
f 511 512 449
f 449 512 439
f 512 513 439
f 513 497 439
f 497 513 498
f 509 514 508
f 508 514 510
f 510 514 515
f 515 517 516
f 515 516 451
f 510 515 451
f 448 510 451
f 516 453 451
f 454 518 455
f 518 457 455
f 520 519 511
f 450 520 511
f 458 520 450
f 511 519 512
f 517 521 516
f 521 523 522
f 521 522 459
f 516 521 459
f 453 516 459
f 518 454 459
f 522 518 459
f 524 518 522
f 525 460 457
f 518 525 457
f 524 525 518
f 525 462 460
f 464 520 458
f 464 526 520
f 522 523 527
f 527 523 528
f 522 529 524
f 522 527 529
f 524 530 525
f 524 529 530
f 530 466 462
f 530 462 525
f 531 526 464
f 531 464 468
f 468 470 531
f 531 470 532
f 527 528 472
f 528 471 472
f 528 533 471
f 527 472 473
f 527 473 529
f 529 473 475
f 529 475 530
f 530 475 466
f 534 532 470
f 534 470 477
f 536 535 478
f 535 477 478
f 535 534 477
f 536 537 535
f 540 539 538
f 542 541 538
f 538 541 540
f 544 543 542
f 542 543 541
f 546 545 544
f 544 545 543
f 548 547 546
f 546 547 545
f 480 481 548
f 481 547 548
f 481 549 547
f 550 481 482
f 550 549 481
f 482 471 533
f 482 533 550
f 483 536 478
f 551 537 536
f 483 551 536
f 484 551 483
f 552 484 485
f 552 551 484
f 553 485 486
f 553 552 485
f 554 486 487
f 554 553 486
f 488 538 539
f 554 488 539
f 487 488 554
f 538 488 489
f 538 489 542
f 542 489 490
f 542 490 544
f 544 490 491
f 544 491 546
f 546 491 492
f 546 492 548
f 548 492 480
f 498 555 499
f 556 500 499
f 556 499 555
f 557 501 500
f 557 500 556
f 558 502 501
f 558 501 557
f 559 503 502
f 559 502 558
f 560 504 503
f 560 503 559
f 561 505 504
f 561 504 560
f 562 506 505
f 562 505 561
f 563 507 506
f 563 506 562
f 563 509 507
f 512 564 513
f 555 498 513
f 564 555 513
f 565 555 564
f 567 556 566
f 556 565 566
f 556 555 565
f 556 567 557
f 557 567 568
f 557 568 558
f 558 568 569
f 558 569 559
f 559 569 570
f 572 571 570
f 571 559 570
f 571 560 559
f 560 573 561
f 560 571 573
f 561 574 562
f 561 573 574
f 562 575 563
f 562 574 575
f 576 514 509
f 563 576 509
f 575 576 563
f 577 515 514
f 577 514 576
f 577 517 515
f 520 578 519
f 564 512 519
f 578 564 519
f 579 564 578
f 564 580 565
f 564 579 580
f 566 565 581
f 581 565 580
f 572 582 571
f 584 583 582
f 583 571 582
f 583 573 571
f 573 585 574
f 573 583 585
f 587 575 586
f 575 585 586
f 575 574 585
f 575 587 576
f 576 587 588
f 576 588 577
f 577 588 589
f 577 589 517
f 589 521 517
f 589 590 521
f 523 521 590
f 523 590 591
f 526 592 578
f 526 578 520
f 578 593 579
f 578 592 593
f 579 594 580
f 579 593 594
f 581 580 595
f 595 580 594
f 583 584 596
f 596 584 597
f 583 598 585
f 583 596 598
f 586 585 599
f 599 585 598
f 591 528 523
f 600 528 591
f 531 592 526
f 592 531 532
f 601 592 532
f 593 592 601
f 593 602 594
f 593 601 602
f 595 594 603
f 594 604 603
f 594 602 604
f 604 605 603
f 608 607 606
f 608 606 597
f 606 596 597
f 606 609 596
f 596 610 598
f 596 609 610
f 599 598 611
f 611 598 610
f 614 613 612
f 616 615 612
f 612 615 614
f 600 615 616
f 533 600 616
f 528 600 533
f 534 601 532
f 601 534 535
f 601 535 602
f 602 535 537
f 617 602 537
f 604 602 617
f 605 604 618
f 604 619 618
f 604 617 619
f 621 620 619
f 619 620 618
f 623 622 621
f 621 622 620
f 622 623 607
f 607 623 606
f 623 539 606
f 539 540 606
f 606 540 541
f 606 541 609
f 609 541 543
f 609 543 610
f 624 611 610
f 543 624 610
f 545 624 543
f 625 545 547
f 625 624 545
f 549 612 613
f 625 549 613
f 547 549 625
f 612 549 550
f 612 550 616
f 616 550 533
f 551 617 537
f 617 551 552
f 617 552 619
f 619 552 553
f 619 553 621
f 621 553 554
f 621 554 623
f 623 554 539
f 566 626 567
f 627 568 567
f 627 567 626
f 628 569 568
f 628 568 627
f 629 570 569
f 629 569 628
f 629 572 570
f 581 630 626
f 581 626 566
f 626 631 627
f 626 630 631
f 627 632 628
f 627 631 632
f 628 633 629
f 628 632 633
f 634 582 572
f 629 634 572
f 633 634 629
f 634 584 582
f 586 635 587
f 636 588 587
f 636 587 635
f 637 589 588
f 637 588 636
f 638 590 589
f 638 589 637
f 638 591 590
f 595 639 630
f 595 630 581
f 630 640 631
f 630 639 640
f 631 641 632
f 631 640 641
f 632 642 633
f 632 641 642
f 633 643 634
f 633 642 643
f 643 597 584
f 643 584 634
f 599 644 635
f 599 635 586
f 635 645 636
f 635 644 645
f 636 646 637
f 636 645 646
f 637 647 638
f 637 646 647
f 647 600 591
f 647 591 638
f 603 639 595
f 639 603 605
f 648 639 605
f 640 639 648
f 640 649 641
f 640 648 649
f 641 650 642
f 641 649 650
f 650 607 608
f 643 650 608
f 642 650 643
f 643 608 597
f 611 651 644
f 611 644 599
f 644 652 645
f 644 651 652
f 652 613 614
f 646 652 614
f 645 652 646
f 646 614 615
f 646 615 647
f 647 615 600
f 618 648 605
f 648 618 620
f 648 620 649
f 649 620 622
f 649 622 650
f 650 622 607
f 624 651 611
f 651 624 625
f 651 625 652
f 652 625 613

