# https://github.com/mikedh/trimesh
v -0.01935401 -0.01325654 -0.00360676
v -0.01716273 -0.01544782 -0.00360676
v -0.01716273 -0.01325654 -0.00579804
v -0.01935401 -0.01325654 0.00077579
v -0.01716273 -0.01544782 0.00077579
v -0.01935401 -0.01325654 0.00515835
v -0.01716273 -0.01544782 0.00515835
v -0.01716273 -0.01325654 0.00734962
v -0.01935401 -0.00887399 -0.00360676
v -0.01716273 -0.00887399 -0.00579804
v -0.01935401 -0.00887399 0.00077579
v -0.01935401 -0.00887399 0.00515835
v -0.01716273 -0.00887399 0.00734962
v -0.01716273 -0.00668271 -0.00360676
v -0.01716273 -0.00668271 0.00077579
v -0.01716273 -0.00668271 0.00515835
v -0.01935401 0.00865622 -0.00360676
v -0.01716273 0.00646495 -0.00360676
v -0.01716273 0.00865622 -0.00579804
v -0.01935401 0.00865622 0.00077579
v -0.01716273 0.00646495 0.00077579
v -0.01935401 0.00865622 0.00515835
v -0.01716273 0.00646495 0.00515835
v -0.01716273 0.00865622 0.00734962
v -0.01935401 0.01303878 -0.00360676
v -0.01716273 0.01303878 -0.00579804
v -0.01935401 0.01303878 0.00077579
v -0.01935401 0.01303878 0.00515835
v -0.01716273 0.01303878 0.00734962
v -0.01716273 0.01523005 -0.00360676
v -0.01716273 0.01523005 0.00077579
v -0.01716273 0.01523005 0.00515835
v -0.01497146 -0.02202165 -0.00360676
v -0.01278018 -0.02421293 -0.00360676
v -0.01278018 -0.02202165 -0.00579804
v -0.01497146 -0.02202165 0.00077579
v -0.01278018 -0.02421293 0.00077579
v -0.01497146 -0.02202165 0.00515835
v -0.01278018 -0.02421293 0.00515835
v -0.01278018 -0.02202165 0.00734962
v -0.01497146 -0.01763910 -0.00798931
v -0.01278018 -0.01983037 -0.00798931
v -0.01278018 -0.01763910 -0.01018059
v -0.01497146 -0.01763910 -0.00360676
v -0.01497146 -0.01763910 0.00077579
v -0.01497146 -0.01763910 0.00515835
v -0.01278018 -0.01983037 0.00954090
v -0.01497146 -0.01763910 0.00954090
v -0.01278018 -0.01763910 0.01173218
v -0.01497146 -0.01325654 -0.01237187
v -0.01278018 -0.01544782 -0.01237187
v -0.01278018 -0.01325654 -0.01456314
v -0.01497146 -0.01325654 -0.00798931
v -0.01497146 -0.01325654 0.00077579
v -0.01278018 -0.01325654 -0.00141548
v -0.01278018 -0.01544782 0.00077579
v -0.01278018 -0.01325654 0.00296707
v -0.01497146 -0.01325654 0.00954090
v -0.01278018 -0.01325654 0.01173218
v -0.01497146 -0.00887399 -0.01237187
v -0.01278018 -0.00887399 -0.01456314
v -0.01497146 -0.00887399 -0.00798931
v -0.01497146 -0.00887399 0.00077579
v -0.01278018 -0.00887399 -0.00141548
v -0.01278018 -0.00887399 0.00296707
v -0.01497146 -0.00887399 0.00954090
v -0.01278018 -0.00887399 0.01173218
v -0.01278018 -0.00668271 -0.01237187
v -0.01278018 -0.00668271 -0.00798931
v -0.01278018 -0.00668271 -0.00360676
v -0.01278018 -0.00668271 0.00515835
v -0.01278018 -0.00668271 0.00954090
v -0.01497146 0.00865622 -0.01237187
v -0.01278018 0.00646495 -0.01237187
v -0.01278018 0.00865622 -0.01456314
v -0.01497146 0.00865622 -0.00798931
v -0.01278018 0.00646495 -0.00798931
v -0.01278018 0.00646495 -0.00360676
v -0.01497146 0.00865622 0.00077579
v -0.01278018 0.00865622 -0.00141548
v -0.01278018 0.00865622 0.00296707
v -0.01278018 0.00646495 0.00515835
v -0.01497146 0.00865622 0.00954090
v -0.01278018 0.00646495 0.00954090
v -0.01278018 0.00865622 0.01173218
v -0.01497146 0.01303878 -0.01237187
v -0.01278018 0.01303878 -0.01456314
v -0.01497146 0.01303878 -0.00798931
v -0.01497146 0.01303878 0.00077579
v -0.01278018 0.01303878 -0.00141548
v -0.01278018 0.01303878 0.00296707
v -0.01497146 0.01303878 0.00954090
v -0.01278018 0.01303878 0.01173218
v -0.01278018 0.01523005 -0.01237187
v -0.01278018 0.01742133 -0.01018059
v -0.01497146 0.01742133 -0.00798931
v -0.01497146 0.01742133 -0.00360676
v -0.01278018 0.01523005 0.00077579
v -0.01497146 0.01742133 0.00077579
v -0.01497146 0.01742133 0.00515835
v -0.01497146 0.01742133 0.00954090
v -0.01278018 0.01742133 0.01173218
v -0.01497146 0.02180388 -0.00798931
v -0.01278018 0.02180388 -0.01018059
v -0.01497146 0.02180388 -0.00360676
v -0.01497146 0.02180388 0.00077579
v -0.01497146 0.02180388 0.00515835
v -0.01497146 0.02180388 0.00954090
v -0.01278018 0.02180388 0.01173218
v -0.01278018 0.02399516 -0.00798931
v -0.01278018 0.02399516 -0.00360676
v -0.01278018 0.02399516 0.00077579
v -0.01278018 0.02399516 0.00515835
v -0.01278018 0.02399516 0.00954090
v -0.01058890 -0.02202165 -0.00798931
v -0.00839763 -0.02421293 -0.00798931
v -0.00839763 -0.02202165 -0.01018059
v -0.00839763 -0.02421293 -0.00360676
v -0.01058890 -0.02202165 0.00077579
v -0.00839763 -0.02202165 -0.00141548
v -0.00839763 -0.02202165 0.00296707
v -0.00839763 -0.02421293 0.00515835
v -0.01058890 -0.02202165 0.00954090
v -0.00839763 -0.02421293 0.00954090
v -0.00839763 -0.02202165 0.01173218
v -0.01058890 -0.01763910 -0.01237187
v -0.00839763 -0.01983037 -0.01237187
v -0.00839763 -0.01763910 -0.01456314
v -0.01058890 -0.01763910 0.00077579
v -0.00839763 -0.01763910 -0.00141548
v -0.00839763 -0.01763910 0.00296707
v -0.01058890 -0.01763910 0.01392345
v -0.00839763 -0.01983037 0.01392345
v -0.00839763 -0.01763910 0.01611473
v -0.00839763 -0.01325654 -0.01456314
v -0.00839763 -0.01544782 -0.00798931
v -0.01058890 -0.01325654 -0.00798931
v -0.00839763 -0.01325654 -0.01018059
v -0.00839763 -0.01544782 -0.00360676
v -0.01058890 -0.01325654 -0.00360676
v -0.00839763 -0.01544782 0.00515835
v -0.01058890 -0.01325654 0.00515835
v -0.00839763 -0.01544782 0.00954090
v -0.01058890 -0.01325654 0.00954090
v -0.00839763 -0.01325654 0.01173218
v -0.01058890 -0.01325654 0.01392345
v -0.00839763 -0.01325654 0.01611473
v -0.00839763 -0.00887399 -0.01456314
v -0.01058890 -0.00887399 -0.00798931
v -0.00839763 -0.00887399 -0.01018059
v -0.01058890 -0.00887399 -0.00360676
v -0.01058890 -0.00887399 0.00515835
v -0.01058890 -0.00887399 0.00954090
v -0.00839763 -0.00887399 0.01173218
v -0.01058890 -0.00887399 0.01392345
v -0.00839763 -0.00887399 0.01611473
v -0.01058890 -0.00449144 -0.01237187
v -0.00839763 -0.00449144 -0.01456314
v -0.00839763 -0.00449144 -0.01018059
v -0.00839763 -0.00668271 0.01392345
v -0.01058890 -0.00010888 -0.01237187
v -0.00839763 -0.00010888 -0.01456314
v -0.00839763 -0.00010888 -0.01018059
v -0.01058890 0.00427367 -0.01237187
v -0.00839763 0.00427367 -0.01456314
v -0.00839763 0.00427367 -0.01018059
v -0.00839763 0.00865622 -0.01456314
v -0.00839763 0.00865622 -0.01018059
v -0.01058890 0.00865622 -0.00798931
v -0.01058890 0.00865622 -0.00360676
v -0.01058890 0.00865622 0.00515835
v -0.01058890 0.00865622 0.00954090
v -0.00839763 0.00646495 0.01392345
v -0.00839763 0.00865622 0.01173218
v -0.01058890 0.00865622 0.01392345
v -0.00839763 0.00865622 0.01611473
v -0.00839763 0.01303878 -0.01456314
v -0.01058890 0.01303878 -0.00798931
v -0.00839763 0.01303878 -0.01018059
v -0.01058890 0.01303878 -0.00360676
v -0.01058890 0.01303878 0.00515835
v -0.01058890 0.01303878 0.00954090
v -0.00839763 0.01303878 0.01173218
v -0.01058890 0.01303878 0.01392345
v -0.00839763 0.01303878 0.01611473
v -0.01058890 0.01742133 -0.01237187
v -0.00839763 0.01742133 -0.01456314
v -0.00839763 0.01523005 -0.00798931
v -0.01058890 0.01742133 -0.00360676
v -0.00839763 0.01742133 -0.00579804
v -0.01058890 0.01742133 0.00077579
v -0.01058890 0.01742133 0.00515835
v -0.00839763 0.01742133 0.00734962
v -0.00839763 0.01523005 0.00954090
v -0.01058890 0.01742133 0.01392345
v -0.00839763 0.01742133 0.01611473
v -0.01058890 0.02180388 -0.01237187
v -0.00839763 0.02180388 -0.01456314
v -0.00839763 0.01961261 -0.00360676
v -0.01058890 0.02180388 0.00077579
v -0.00839763 0.02180388 -0.00141548
v -0.00839763 0.02180388 0.00296707
v -0.00839763 0.01961261 0.00515835
v -0.01058890 0.02180388 0.01392345
v -0.00839763 0.02180388 0.01611473
v -0.00839763 0.02399516 -0.01237187
v -0.00839763 0.02399516 -0.00798931
v -0.00839763 0.02399516 -0.00360676
v -0.00839763 0.02399516 0.00515835
v -0.00839763 0.02399516 0.00954090
v -0.00839763 0.02399516 0.01392345
v -0.00620635 -0.02202165 -0.01237187
v -0.00401507 -0.02421293 -0.01237187
v -0.00401507 -0.02202165 -0.01456314
v -0.00401507 -0.02421293 -0.00798931
v -0.00620635 -0.02202165 -0.00360676
v -0.00401507 -0.02202165 -0.00579804
v -0.00620635 -0.02202165 0.00515835
v -0.00401507 -0.02202165 0.00734962
v -0.00401507 -0.02421293 0.00954090
v -0.00620635 -0.02202165 0.01392345
v -0.00401507 -0.02421293 0.01392345
v -0.00401507 -0.02202165 0.01611473
v -0.00401507 -0.01763910 -0.01456314
v -0.00620635 -0.01763910 -0.00360676
v -0.00401507 -0.01763910 -0.00579804
v -0.00620635 -0.01763910 0.00515835
v -0.00401507 -0.01763910 0.00734962
v -0.00401507 -0.01763910 0.01611473
v -0.00620635 -0.01325654 -0.01675442
v -0.00401507 -0.01544782 -0.01675442
v -0.00401507 -0.01325654 -0.01894570
v -0.00401507 -0.01325654 -0.01018059
v -0.00401507 -0.01544782 -0.00798931
v -0.00401507 -0.01544782 0.00954090
v -0.00401507 -0.01325654 0.01173218
v -0.00401507 -0.01325654 0.01611473
v -0.00620635 -0.00887399 -0.01675442
v -0.00401507 -0.00887399 -0.01894570
v -0.00401507 -0.00887399 -0.01018059
v -0.00401507 -0.00887399 0.01173218
v -0.00401507 -0.00887399 0.01611473
v -0.00401507 -0.00668271 -0.01675442
v -0.00401507 -0.00449144 -0.01456314
v -0.00401507 -0.00449144 -0.01018059
v -0.00401507 -0.00668271 0.01392345
v -0.00401507 -0.00010888 -0.01456314
v -0.00401507 -0.00010888 -0.01018059
v -0.00401507 0.00427367 -0.01456314
v -0.00401507 0.00427367 -0.01018059
v -0.00620635 0.00865622 -0.01675442
v -0.00401507 0.00646495 -0.01675442
v -0.00401507 0.00865622 -0.01894570
v -0.00401507 0.00865622 -0.01018059
v -0.00401507 0.00646495 0.01392345
v -0.00401507 0.00865622 0.01173218
v -0.00401507 0.00865622 0.01611473
v -0.00620635 0.01303878 -0.01675442
v -0.00401507 0.01303878 -0.01894570
v -0.00401507 0.01303878 -0.01018059
v -0.00401507 0.01303878 0.01173218
v -0.00401507 0.01303878 0.01611473
v -0.00401507 0.01523005 -0.01675442
v -0.00401507 0.01742133 -0.01456314
v -0.00620635 0.01742133 -0.00798931
v -0.00401507 0.01742133 -0.01018059
v -0.00620635 0.01742133 0.00954090
v -0.00401507 0.01742133 0.01173218
v -0.00401507 0.01742133 0.01611473
v -0.00401507 0.02180388 -0.01456314
v -0.00401507 0.01961261 -0.00798931
v -0.00620635 0.02180388 -0.00360676
v -0.00401507 0.02180388 -0.00579804
v -0.00620635 0.02180388 0.00515835
v -0.00401507 0.02180388 0.00734962
v -0.00401507 0.01961261 0.00954090
v -0.00401507 0.02180388 0.01611473
v -0.00401507 0.02399516 -0.01237187
v -0.00401507 0.02399516 -0.00798931
v -0.00401507 0.02399516 0.00954090
v -0.00401507 0.02399516 0.01392345
v 0.00036748 -0.02421293 -0.01237187
v 0.00036748 -0.02202165 -0.01456314
v -0.00182380 -0.02202165 -0.00798931
v 0.00036748 -0.02202165 -0.01018059
v 0.00036748 -0.02421293 0.00954090
v 0.00036748 -0.02202165 0.00734962
v 0.00036748 -0.02421293 0.01392345
v 0.00036748 -0.02202165 0.01611473
v -0.00182380 -0.01763910 -0.01675442
v 0.00036748 -0.01983037 -0.01675442
v 0.00036748 -0.01763910 -0.01894570
v -0.00182380 -0.01763910 -0.00798931
v 0.00036748 -0.01763910 -0.01018059
v 0.00036748 -0.01983037 0.00954090
v -0.00182380 -0.01763910 0.00954090
v 0.00036748 -0.01763910 0.01173218
v 0.00036748 -0.01763910 0.01611473
v 0.00036748 -0.01325654 -0.01894570
v 0.00036748 -0.01544782 -0.01237187
v -0.00182380 -0.01325654 -0.01237187
v 0.00036748 -0.01325654 -0.01456314
v 0.00036748 -0.01544782 0.01392345
v -0.00182380 -0.01325654 0.01392345
v -0.00182380 -0.01325654 0.01830601
v 0.00036748 -0.01544782 0.01830601
v 0.00036748 -0.01325654 0.01611473
v 0.00036748 -0.01325654 0.02049728
v 0.00036748 -0.00887399 -0.01894570
v 0.00036748 -0.01106527 -0.01237187
v 0.00036748 -0.00887399 -0.01018059
v -0.00182380 -0.00887399 0.01392345
v 0.00036748 -0.00887399 0.01611473
v -0.00182380 -0.00887399 0.01830601
v 0.00036748 -0.00887399 0.02049728
v 0.00036748 -0.00668271 -0.01675442
v 0.00036748 -0.00449144 -0.01456314
v 0.00036748 -0.00449144 -0.01018059
v 0.00036748 -0.00668271 0.01830601
v 0.00036748 -0.00010888 -0.01456314
v 0.00036748 -0.00010888 -0.01018059
v 0.00036748 0.00427367 -0.01456314
v 0.00036748 0.00427367 -0.01018059
v 0.00036748 0.00646495 -0.01675442
v 0.00036748 0.00865622 -0.01894570
v 0.00036748 0.00865622 -0.01018059
v -0.00182380 0.00865622 0.01392345
v 0.00036748 0.00646495 0.01830601
v 0.00036748 0.00865622 0.01611473
v -0.00182380 0.00865622 0.01830601
v 0.00036748 0.00865622 0.02049728
v 0.00036748 0.01303878 -0.01894570
v -0.00182380 0.01303878 -0.01237187
v 0.00036748 0.01303878 -0.01456314
v 0.00036748 0.01084750 -0.01237187
v -0.00182380 0.01303878 0.01392345
v 0.00036748 0.01303878 0.01611473
v -0.00182380 0.01303878 0.01830601
v 0.00036748 0.01303878 0.02049728
v -0.00182380 0.01742133 -0.01675442
v 0.00036748 0.01742133 -0.01894570
v 0.00036748 0.01523005 -0.01237187
v 0.00036748 0.01742133 -0.01018059
v 0.00036748 0.01523005 0.01392345
v 0.00036748 0.01742133 0.01173218
v 0.00036748 0.01523005 0.01830601
v 0.00036748 0.01742133 0.01611473
v 0.00036748 0.01961261 -0.01675442
v 0.00036748 0.02180388 -0.01456314
v -0.00182380 0.02180388 -0.00798931
v 0.00036748 0.02180388 -0.01018059
v 0.00036748 0.01961261 0.00954090
v 0.00036748 0.02180388 0.00734962
v 0.00036748 0.02180388 0.01611473
v 0.00036748 0.02399516 -0.01237187
v 0.00036748 0.02399516 0.00954090
v 0.00036748 0.02399516 0.01392345
v 0.00475003 -0.02421293 -0.01237187
v 0.00475003 -0.02202165 -0.01456314
v 0.00255876 -0.02202165 -0.00798931
v 0.00475003 -0.02421293 -0.00798931
v 0.00475003 -0.02202165 -0.00579804
v 0.00475003 -0.02421293 0.00954090
v 0.00475003 -0.02202165 0.00734962
v 0.00475003 -0.02421293 0.01392345
v 0.00475003 -0.02202165 0.01611473
v 0.00255876 -0.01763910 -0.01675442
v 0.00475003 -0.01763910 -0.01456314
v 0.00255876 -0.01763910 -0.00798931
v 0.00475003 -0.01763910 -0.00579804
v 0.00255876 -0.01763910 0.00954090
v 0.00475003 -0.01763910 0.00734962
v 0.00475003 -0.01763910 0.01611473
v 0.00475003 -0.01544782 -0.01675442
v 0.00475003 -0.01325654 -0.01894570
v 0.00255876 -0.01325654 -0.01237187
v 0.00475003 -0.01325654 -0.01018059
v 0.00475003 -0.01544782 -0.00798931
v 0.00475003 -0.01544782 0.00954090
v 0.00255876 -0.01325654 0.01392345
v 0.00475003 -0.01325654 0.01173218
v 0.00255876 -0.01325654 0.01830601
v 0.00475003 -0.01325654 0.01611473
v 0.00475003 -0.00887399 -0.01894570
v 0.00475003 -0.00887399 -0.01018059
v 0.00255876 -0.00887399 0.01392345
v 0.00475003 -0.00887399 0.01173218
v 0.00255876 -0.00887399 0.01830601
v 0.00475003 -0.00887399 0.01611473
v 0.00475003 -0.00668271 -0.01675442
v 0.00475003 -0.00668271 -0.01237187
v 0.00255876 -0.00449144 -0.01237187
v 0.00475003 -0.00668271 0.01392345
v 0.00255876 -0.00010888 -0.01237187
v 0.00255876 0.00427367 -0.01237187
v 0.00475003 0.00646495 -0.01675442
v 0.00475003 0.00865622 -0.01894570
v 0.00475003 0.00646495 -0.01237187
v 0.00475003 0.00865622 -0.01018059
v 0.00255876 0.00865622 0.01392345
v 0.00475003 0.00646495 0.01392345
v 0.00475003 0.00865622 0.01173218
v 0.00255876 0.00865622 0.01830601
v 0.00475003 0.00865622 0.01611473
v 0.00475003 0.01303878 -0.01894570
v 0.00255876 0.01303878 -0.01237187
v 0.00475003 0.01303878 -0.01018059
v 0.00255876 0.01303878 0.01392345
v 0.00475003 0.01303878 0.01173218
v 0.00255876 0.01303878 0.01830601
v 0.00475003 0.01303878 0.01611473
v 0.00475003 0.01523005 -0.01675442
v 0.00255876 0.01742133 -0.01675442
v 0.00475003 0.01742133 -0.01456314
v 0.00475003 0.01742133 -0.01018059
v 0.00475003 0.01742133 0.01173218
v 0.00475003 0.01742133 0.01611473
v 0.00475003 0.02180388 -0.01456314
v 0.00475003 0.01961261 -0.00798931
v 0.00255876 0.02180388 -0.00798931
v 0.00475003 0.02180388 -0.00579804
v 0.00475003 0.01961261 0.00954090
v 0.00475003 0.02180388 0.00734962
v 0.00475003 0.02180388 0.01611473
v 0.00475003 0.02399516 -0.01237187
v 0.00475003 0.02399516 -0.00798931
v 0.00475003 0.02399516 0.00954090
v 0.00475003 0.02399516 0.01392345
v 0.00694131 -0.02202165 -0.01237187
v 0.00913259 -0.02202165 -0.01018059
v 0.00913259 -0.02421293 -0.00798931
v 0.00694131 -0.02202165 -0.00360676
v 0.00913259 -0.02421293 -0.00360676
v 0.00694131 -0.02202165 0.00077579
v 0.00913259 -0.02421293 0.00077579
v 0.00694131 -0.02202165 0.00515835
v 0.00913259 -0.02421293 0.00515835
v 0.00913259 -0.02421293 0.00954090
v 0.00694131 -0.02202165 0.01392345
v 0.00913259 -0.02202165 0.01173218
v 0.00913259 -0.01983037 -0.01237187
v 0.00913259 -0.01763910 -0.01456314
v 0.00694131 -0.01763910 -0.00360676
v 0.00913259 -0.01763910 -0.00141548
v 0.00913259 -0.01983037 0.00077579
v 0.00913259 -0.01763910 0.00296707
v 0.00694131 -0.01763910 0.00515835
v 0.00913259 -0.01983037 0.01392345
v 0.00913259 -0.01763910 0.01611473
v 0.00694131 -0.01325654 -0.01675442
v 0.00913259 -0.01325654 -0.01456314
v 0.00913259 -0.01325654 -0.01018059
v 0.00913259 -0.01544782 -0.00798931
v 0.00913259 -0.01544782 -0.00360676
v 0.00913259 -0.01544782 0.00515835
v 0.00694131 -0.01325654 0.00954090
v 0.00913259 -0.01325654 0.00734962
v 0.00913259 -0.01325654 0.01611473
v 0.00694131 -0.00887399 -0.01675442
v 0.00913259 -0.00887399 -0.01456314
v 0.00913259 -0.00887399 -0.01018059
v 0.00694131 -0.00887399 0.00954090
v 0.00913259 -0.00887399 0.00734962
v 0.00913259 -0.00887399 0.01611473
v 0.00913259 -0.00668271 -0.01237187
v 0.00913259 -0.00668271 0.00954090
v 0.00913259 -0.00668271 0.01392345
v 0.00694131 0.00865622 -0.01675442
v 0.00913259 0.00865622 -0.01456314
v 0.00913259 0.00646495 -0.01237187
v 0.00913259 0.00865622 -0.01018059
v 0.00694131 0.00865622 0.00954090
v 0.00913259 0.00646495 0.00954090
v 0.00913259 0.00865622 0.00734962
v 0.00913259 0.00646495 0.01392345
v 0.00913259 0.00865622 0.01611473
v 0.00694131 0.01303878 -0.01675442
v 0.00913259 0.01303878 -0.01456314
v 0.00913259 0.01303878 -0.01018059
v 0.00694131 0.01303878 0.00954090
v 0.00913259 0.01303878 0.00734962
v 0.00913259 0.01303878 0.01611473
v 0.00913259 0.01742133 -0.01456314
v 0.00913259 0.01523005 -0.00798931
v 0.00694131 0.01742133 -0.00798931
v 0.00913259 0.01742133 -0.00579804
v 0.00694131 0.01742133 0.00954090
v 0.00913259 0.01742133 0.00734962
v 0.00913259 0.01742133 0.01611473
v 0.00913259 0.02180388 -0.01456314
v 0.00694131 0.02180388 -0.00360676
v 0.00913259 0.01961261 -0.00360676
v 0.00694131 0.02180388 0.00077579
v 0.00913259 0.01961261 0.00077579
v 0.00694131 0.02180388 0.00515835
v 0.00913259 0.01961261 0.00515835
v 0.00913259 0.02180388 0.01611473
v 0.00913259 0.02399516 -0.01237187
v 0.00913259 0.02399516 -0.00798931
v 0.00913259 0.02399516 -0.00360676
v 0.00913259 0.02399516 0.00077579
v 0.00913259 0.02399516 0.00515835
v 0.00913259 0.02399516 0.00954090
v 0.00913259 0.02399516 0.01392345
v 0.01132387 -0.02202165 -0.00798931
v 0.01351514 -0.02202165 -0.00579804
v 0.01351514 -0.02421293 -0.00360676
v 0.01351514 -0.02421293 0.00077579
v 0.01351514 -0.02421293 0.00515835
v 0.01132387 -0.02202165 0.00954090
v 0.01351514 -0.02202165 0.00734962
v 0.01132387 -0.01763910 -0.01237187
v 0.01351514 -0.01763910 -0.01018059
v 0.01351514 -0.01983037 -0.00798931
v 0.01132387 -0.01763910 0.00077579
v 0.01351514 -0.01983037 0.00954090
v 0.01132387 -0.01763910 0.01392345
v 0.01351514 -0.01763910 0.01173218
v 0.01132387 -0.01325654 -0.01237187
v 0.01351514 -0.01325654 -0.01018059
v 0.01132387 -0.01325654 -0.00798931
v 0.01132387 -0.01325654 -0.00360676
v 0.01132387 -0.01325654 0.00077579
v 0.01132387 -0.01325654 0.00515835
v 0.01132387 -0.01325654 0.01392345
v 0.01351514 -0.01325654 0.01173218
v 0.01132387 -0.00887399 -0.01237187
v 0.01351514 -0.00887399 -0.01018059
v 0.01132387 -0.00887399 -0.00798931
v 0.01132387 -0.00887399 -0.00360676
v 0.01132387 -0.00887399 0.00077579
v 0.01132387 -0.00887399 0.00515835
v 0.01132387 -0.00887399 0.01392345
v 0.01351514 -0.00887399 0.01173218
v 0.01351514 -0.00668271 -0.00798931
v 0.01351514 -0.00668271 -0.00360676
v 0.01351514 -0.00449144 -0.00141548
v 0.01132387 -0.00449144 0.00077579
v 0.01132387 -0.00449144 0.00515835
v 0.01132387 -0.00449144 0.00954090
v 0.01351514 -0.00449144 0.01173218
v 0.01132387 -0.00010888 0.00077579
v 0.01351514 -0.00010888 -0.00141548
v 0.01132387 -0.00010888 0.00515835
v 0.01132387 -0.00010888 0.00954090
v 0.01351514 -0.00010888 0.01173218
v 0.01132387 0.00427367 0.00077579
v 0.01351514 0.00427367 -0.00141548
v 0.01132387 0.00427367 0.00515835
v 0.01132387 0.00427367 0.00954090
v 0.01351514 0.00427367 0.01173218
v 0.01132387 0.00865622 -0.01237187
v 0.01351514 0.00646495 -0.00798931
v 0.01351514 0.00865622 -0.01018059
v 0.01132387 0.00865622 -0.00798931
v 0.01132387 0.00865622 -0.00360676
v 0.01351514 0.00646495 -0.00360676
v 0.01132387 0.00865622 0.00077579
v 0.01132387 0.00865622 0.00515835
v 0.01351514 0.00865622 0.01173218
v 0.01132387 0.00865622 0.01392345
v 0.01132387 0.01303878 -0.01237187
v 0.01351514 0.01303878 -0.01018059
v 0.01132387 0.01303878 -0.00798931
v 0.01132387 0.01303878 -0.00360676
v 0.01132387 0.01303878 0.00077579
v 0.01132387 0.01303878 0.00515835
v 0.01132387 0.01303878 0.01392345
v 0.01351514 0.01303878 0.01173218
v 0.01132387 0.01742133 -0.01237187
v 0.01351514 0.01742133 -0.01018059
v 0.01132387 0.01742133 -0.00360676
v 0.01132387 0.01742133 0.00077579
v 0.01132387 0.01742133 0.00515835
v 0.01132387 0.01742133 0.01392345
v 0.01351514 0.01742133 0.01173218
v 0.01132387 0.02180388 -0.01237187
v 0.01351514 0.02180388 -0.01018059
v 0.01132387 0.02180388 0.01392345
v 0.01351514 0.02180388 0.01173218
v 0.01351514 0.02399516 -0.00798931
v 0.01351514 0.02399516 -0.00360676
v 0.01351514 0.02399516 0.00077579
v 0.01351514 0.02399516 0.00515835
v 0.01351514 0.02399516 0.00954090
v 0.01570642 -0.02202165 -0.00360676
v 0.01570642 -0.02202165 0.00077579
v 0.01570642 -0.02202165 0.00515835
v 0.01570642 -0.01763910 -0.00798931
v 0.01570642 -0.01763910 -0.00360676
v 0.01570642 -0.01763910 0.00077579
v 0.01570642 -0.01763910 0.00515835
v 0.01570642 -0.01763910 0.00954090
v 0.01570642 -0.01325654 -0.00798931
v 0.01570642 -0.01325654 -0.00360676
v 0.01789770 -0.01325654 -0.00141548
v 0.01789770 -0.01544782 0.00077579
v 0.01570642 -0.01325654 0.00515835
v 0.01789770 -0.01325654 0.00296707
v 0.01570642 -0.01325654 0.00954090
v 0.01570642 -0.00887399 -0.00798931
v 0.01570642 -0.00887399 -0.00360676
v 0.01789770 -0.00887399 -0.00141548
v 0.01570642 -0.00887399 0.00515835
v 0.01789770 -0.00887399 0.00296707
v 0.01570642 -0.00887399 0.00954090
v 0.01789770 -0.00668271 0.00077579
v 0.01570642 -0.00449144 0.00077579
v 0.01570642 -0.00449144 0.00515835
v 0.01570642 -0.00449144 0.00954090
v 0.01570642 -0.00010888 0.00077579
v 0.01570642 -0.00010888 0.00515835
v 0.01570642 -0.00010888 0.00954090
v 0.01570642 0.00427367 0.00077579
v 0.01570642 0.00427367 0.00515835
v 0.01570642 0.00427367 0.00954090
v 0.01570642 0.00865622 -0.00798931
v 0.01570642 0.00865622 -0.00360676
v 0.01789770 0.00865622 -0.00141548
v 0.01789770 0.00646495 0.00077579
v 0.01570642 0.00865622 0.00515835
v 0.01789770 0.00865622 0.00296707
v 0.01570642 0.00865622 0.00954090
v 0.01570642 0.01303878 -0.00798931
v 0.01570642 0.01303878 -0.00360676
v 0.01789770 0.01303878 -0.00141548
v 0.01570642 0.01303878 0.00515835
v 0.01789770 0.01303878 0.00296707
v 0.01570642 0.01303878 0.00954090
v 0.01570642 0.01742133 -0.00798931
v 0.01570642 0.01742133 -0.00360676
v 0.01789770 0.01523005 0.00077579
v 0.01570642 0.01742133 0.00077579
v 0.01570642 0.01742133 0.00515835
v 0.01570642 0.01742133 0.00954090
v 0.01570642 0.02180388 -0.00798931
v 0.01570642 0.02180388 -0.00360676
v 0.01570642 0.02180388 0.00077579
v 0.01570642 0.02180388 0.00515835
v 0.01570642 0.02180388 0.00954090
v 0.02008897 -0.01325654 0.00077579
v 0.02008897 -0.00887399 0.00077579
v 0.02008897 0.00865622 0.00077579
v 0.02008897 0.01303878 0.00077579
vn -0.87557868 -0.34158598 -0.34158598
vn -0.53132898 -0.84184755 -0.09477457
vn -0.67388734 -0.30290545 -0.67388734
vn -0.92387953 -0.38268343 0.00000000
vn -0.00000000 -1.00000000 0.00000000
vn -0.87557868 -0.34158598 0.34158598
vn -0.53132898 -0.84184755 0.09477457
vn -0.67388734 -0.30290545 0.67388734
vn -0.87557868 0.34158598 -0.34158598
vn -0.67388734 0.30290545 -0.67388734
vn -0.92387953 0.38268343 0.00000000
vn -0.87557868 0.34158598 0.34158598
vn -0.67388734 0.30290545 0.67388734
vn -0.43296683 0.87270352 -0.22567297
vn -0.19836821 0.98012757 -0.00000000
vn -0.43296683 0.87270352 0.22567297
vn -0.87557868 -0.34158598 -0.34158598
vn -0.43296683 -0.87270352 -0.22567297
vn -0.67388734 -0.30290545 -0.67388734
vn -0.92387953 -0.38268343 0.00000000
vn -0.19836821 -0.98012757 -0.00000000
vn -0.87557868 -0.34158598 0.34158598
vn -0.43296683 -0.87270352 0.22567297
vn -0.67388734 -0.30290545 0.67388734
vn -0.87557868 0.34158598 -0.34158598
vn -0.67388734 0.30290545 -0.67388734
vn -0.92387953 0.38268343 0.00000000
vn -0.87557868 0.34158598 0.34158598
vn -0.67388734 0.30290545 0.67388734
vn -0.53132898 0.84184755 -0.09477457
vn -0.00000000 1.00000000 0.00000000
vn -0.53132898 0.84184755 0.09477457
vn -0.87270352 -0.43296683 -0.22567297
vn -0.43296683 -0.87270352 -0.22567297
vn -0.57735027 -0.57735027 -0.57735027
vn -0.92387953 -0.38268343 0.00000000
vn -0.19836821 -0.98012757 0.00000000
vn -0.87270352 -0.43296683 0.22567297
vn -0.43296683 -0.87270352 0.22567297
vn -0.57735027 -0.57735027 0.57735027
vn -0.88807383 -0.32505758 -0.32505758
vn -0.57735027 -0.57735027 -0.57735027
vn -0.57735027 -0.57735027 -0.57735027
vn -0.99041503 -0.06366870 0.12257389
vn -0.92387953 0.38268343 0.00000000
vn -0.99041503 -0.06366870 -0.12257389
vn -0.57735027 -0.57735027 0.57735027
vn -0.87270352 -0.22567297 0.43296683
vn -0.53132898 -0.09477457 0.84184755
vn -0.87270352 -0.22567297 -0.43296683
vn -0.57735027 -0.57735027 -0.57735027
vn -0.43296683 -0.22567297 -0.87270352
vn -0.95177497 -0.10198709 -0.28934935
vn 0.76442700 -0.64471029 -0.00000000
vn 0.46421975 0.04897022 0.88436527
vn -0.26436884 0.96442165 0.00000000
vn 0.46421975 0.04897022 -0.88436527
vn -0.76440354 -0.09787009 0.63726657
vn 0.00000000 0.00000000 1.00000000
vn -0.87557868 0.34158598 -0.34158598
vn -0.43296683 0.22567297 -0.87270352
vn -0.83614993 0.38784874 -0.38784874
vn 0.88677189 0.46220734 -0.00000000
vn 0.67388734 0.30290545 0.67388734
vn 0.67388734 0.30290545 -0.67388734
vn -0.67388734 0.30290545 0.67388734
vn -0.00000000 0.33242531 0.94312959
vn -0.61434439 0.77179564 -0.16405015
vn 0.10571639 0.98634468 -0.12628623
vn 0.43296683 0.87270352 0.22567297
vn 0.43296683 0.87270352 -0.22567297
vn 0.12164991 0.89170629 0.43596009
vn -0.87557868 -0.34158598 -0.34158598
vn -0.67388734 -0.67388734 -0.30290545
vn -0.43296683 -0.22567297 -0.87270352
vn -0.83614993 -0.38784874 -0.38784874
vn -0.02677184 -0.99778528 0.06089177
vn 0.43296683 -0.87270352 0.22567297
vn 0.88677189 -0.46220734 0.00000000
vn 0.67388734 -0.30290545 0.67388734
vn 0.67388734 -0.30290545 -0.67388734
vn 0.43296683 -0.87270352 -0.22567297
vn -0.67388734 -0.30290545 0.67388734
vn 0.12164991 -0.89170629 0.43596009
vn 0.00000000 -0.33242531 0.94312959
vn -0.87270352 0.22567297 -0.43296683
vn -0.43296683 0.22567297 -0.87270352
vn -0.95177497 0.10198709 -0.28934935
vn 0.76442700 0.64471029 -0.00000000
vn 0.46421975 -0.04897022 0.88436527
vn 0.46421975 -0.04897022 -0.88436527
vn -0.76440354 0.09787009 0.63726657
vn 0.00000000 0.00000000 1.00000000
vn -0.57735027 0.57735027 -0.57735027
vn -0.67388734 0.30290545 -0.67388734
vn -0.95177497 0.10198709 -0.28934935
vn -0.99041503 0.06366870 0.12257389
vn -0.26436884 -0.96442165 -0.00000000
vn -0.92387953 -0.38268343 0.00000000
vn -0.99041503 0.06366870 -0.12257389
vn -0.92387953 0.00000000 0.38268343
vn -0.53781426 -0.23075817 0.81086774
vn -0.87557868 0.34158598 -0.34158598
vn -0.67388734 0.30290545 -0.67388734
vn -0.92387953 0.38268343 0.00000000
vn -0.92387953 0.38268343 0.00000000
vn -0.92387953 0.38268343 0.00000000
vn -0.87557868 0.34158598 0.34158598
vn -0.67388734 0.30290545 0.67388734
vn -0.43296683 0.87270352 -0.22567297
vn -0.38268343 0.92387953 0.00000000
vn -0.19836821 0.98012757 -0.00000000
vn -0.38268343 0.92387953 0.00000000
vn -0.43296683 0.87270352 0.22567297
vn -0.57735027 -0.57735027 -0.57735027
vn -0.32505758 -0.88807383 -0.32505758
vn -0.57735027 -0.57735027 -0.57735027
vn 0.32505758 -0.88807383 0.32505758
vn 0.88677189 -0.46220734 -0.00000000
vn 0.67388734 -0.30290545 0.67388734
vn 0.67388734 -0.30290545 -0.67388734
vn 0.32505758 -0.88807383 -0.32505758
vn -0.57735027 -0.57735027 0.57735027
vn -0.32505758 -0.88807383 0.32505758
vn -0.57735027 -0.57735027 0.57735027
vn -0.57735027 -0.57735027 -0.57735027
vn -0.57735027 -0.57735027 -0.57735027
vn -0.32505758 -0.32505758 -0.88807383
vn 0.88677189 0.46220734 0.00000000
vn 0.67388734 0.30290545 0.67388734
vn 0.67388734 0.30290545 -0.67388734
vn -0.84184755 -0.09477457 0.53132898
vn -0.57735027 -0.57735027 0.57735027
vn -0.43296683 -0.22567297 0.87270352
vn -0.28934935 -0.10198709 -0.95177497
vn 0.34158598 0.87557868 0.34158598
vn 0.87557868 0.34158598 0.34158598
vn 0.34158598 0.34158598 0.87557868
vn 0.58082451 0.71008577 0.39802147
vn 0.83614993 0.38784874 0.38784874
vn 0.58082451 0.71008577 -0.39802147
vn 0.83614993 0.38784874 -0.38784874
vn 0.03207108 0.99897092 -0.03207108
vn 0.82687829 0.25489896 0.50129713
vn -0.50129713 0.25489896 -0.82687829
vn -1.00000000 0.00000000 -0.00000000
vn -0.38268343 0.00000000 0.92387953
vn -0.28934935 0.10198709 -0.95177497
vn 0.80193364 0.42243487 0.42243487
vn 0.38268343 0.00000000 0.92387953
vn 0.87557868 0.34158598 0.34158598
vn 0.87557868 0.34158598 -0.34158598
vn 0.87557868 0.34158598 0.34158598
vn -0.34158598 0.34158598 -0.87557868
vn -0.94312959 0.33242531 -0.00000000
vn -0.34158598 0.34158598 0.87557868
vn -0.88677189 0.46220734 0.00000000
vn -0.28934935 0.10198709 -0.95177497
vn -0.26892438 0.15412400 0.95074995
vn -0.33242531 0.94312959 -0.00000000
vn -1.00000000 0.00000000 0.00000000
vn -0.38268343 0.00000000 -0.92387953
vn -0.38268343 0.00000000 0.92387953
vn -0.85893360 -0.51187933 0.01458151
vn -0.28934935 -0.10198709 -0.95177497
vn -0.38268343 0.00000000 0.92387953
vn -0.28934935 -0.10198709 -0.95177497
vn 0.26892438 -0.15412400 0.95074995
vn 0.83614993 -0.38784874 0.38784874
vn 0.87557868 -0.34158598 0.34158598
vn 0.87557868 -0.34158598 -0.34158598
vn 0.87557868 -0.34158598 0.34158598
vn -0.33242531 -0.94312959 -0.00000000
vn -0.34158598 -0.34158598 -0.87557868
vn -0.94312959 -0.33242531 -0.00000000
vn -0.34158598 -0.34158598 0.87557868
vn -0.28934935 0.10198709 -0.95177497
vn 0.87270352 -0.22567297 0.43296683
vn 0.43296683 -0.22567297 0.87270352
vn 0.95177497 -0.10198709 0.28934935
vn 0.95177497 -0.10198709 -0.28934935
vn 0.89634848 -0.17288610 0.40825213
vn -0.40825213 -0.17288610 -0.89634848
vn -1.00000000 0.00000000 -0.00000000
vn -0.38268343 0.00000000 0.92387953
vn -0.67388734 0.30290545 -0.67388734
vn -0.28934935 0.10198709 -0.95177497
vn 0.57735027 -0.57735027 0.57735027
vn 0.88807383 -0.32505758 0.32505758
vn 0.57735027 -0.57735027 0.57735027
vn 0.97978097 -0.20007313 -0.00000000
vn 0.88807383 -0.32505758 -0.32505758
vn 0.57735027 -0.57735027 -0.57735027
vn 0.39721251 -0.82731158 -0.39721251
vn -0.81086774 -0.23075817 0.53781426
vn -0.38268343 0.00000000 0.92387953
vn -0.67388734 0.30290545 -0.67388734
vn -0.34158598 0.34158598 -0.87557868
vn 0.57735027 -0.57735027 0.57735027
vn 0.97399684 0.22656158 -0.00000000
vn 0.70710678 -0.00000000 0.70710678
vn 0.70710678 -0.00000000 -0.70710678
vn 0.57735027 -0.57735027 -0.57735027
vn -0.67388734 0.30290545 0.67388734
vn -0.34158598 0.34158598 0.87557868
vn -0.22567297 0.87270352 -0.43296683
vn 0.00000000 1.00000000 0.00000000
vn 0.32505758 0.88807383 0.32505758
vn 0.32505758 0.88807383 -0.32505758
vn 0.00000000 1.00000000 0.00000000
vn -0.22567297 0.87270352 0.43296683
vn -0.57735027 -0.57735027 -0.57735027
vn -0.22567297 -0.87270352 -0.43296683
vn -0.22567297 -0.43296683 -0.87270352
vn 0.32505758 -0.88807383 0.32505758
vn 0.67388734 -0.30290545 0.67388734
vn 0.67388734 -0.30290545 0.67388734
vn 0.67388734 -0.30290545 -0.67388734
vn 0.38784874 -0.38784874 -0.83614993
vn 0.10198709 -0.95177497 -0.28934935
vn -0.57735027 -0.57735027 0.57735027
vn -0.22567297 -0.87270352 0.43296683
vn -0.22567297 -0.43296683 0.87270352
vn -0.32505758 -0.32505758 -0.88807383
vn 0.67388734 0.30290545 0.67388734
vn 0.67388734 0.30290545 0.67388734
vn 0.67388734 0.30290545 -0.67388734
vn 0.58082451 0.39802147 -0.71008577
vn 0.00000000 0.00000000 1.00000000
vn -0.67388734 -0.30290545 -0.67388734
vn -0.57735027 -0.57735027 -0.57735027
vn -0.43296683 -0.22567297 -0.87270352
vn 0.31052500 0.29366529 0.90406577
vn 0.39802147 0.71008577 0.58082451
vn 0.39802147 0.71008577 -0.58082451
vn 0.38784874 0.38784874 -0.83614993
vn 0.28934935 0.10198709 0.95177497
vn -0.67388734 0.30290545 -0.67388734
vn -0.34158598 0.34158598 -0.87557868
vn 0.00000000 0.00000000 1.00000000
vn 0.34158598 0.34158598 -0.87557868
vn 0.34158598 0.34158598 0.87557868
vn -0.30290545 0.67388734 -0.67388734
vn -0.10198709 0.28934935 -0.95177497
vn 0.00000000 0.00000000 1.00000000
vn 0.33242531 0.94312959 -0.00000000
vn 0.00000000 0.00000000 -1.00000000
vn 0.00000000 0.00000000 1.00000000
vn -0.10198709 -0.28934935 -0.95177497
vn 0.00000000 0.00000000 1.00000000
vn -0.67388734 -0.30290545 -0.67388734
vn -0.30290545 -0.67388734 -0.67388734
vn -0.34158598 -0.34158598 -0.87557868
vn 0.00000000 0.00000000 1.00000000
vn 0.33242531 -0.94312959 -0.00000000
vn 0.34158598 -0.34158598 -0.87557868
vn 0.34158598 -0.34158598 0.87557868
vn -0.67388734 0.30290545 -0.67388734
vn -0.43296683 0.22567297 -0.87270352
vn 0.20007313 0.00000000 0.97978097
vn 0.28934935 -0.10198709 -0.95177497
vn 0.28934935 -0.10198709 0.95177497
vn -0.57735027 0.57735027 -0.57735027
vn -0.32505758 0.32505758 -0.88807383
vn 0.57735027 -0.57735027 0.57735027
vn 0.32505758 -0.32505758 0.88807383
vn 0.57735027 -0.57735027 -0.57735027
vn 0.22567297 -0.43296683 -0.87270352
vn 0.00000000 0.00000000 1.00000000
vn 0.00000000 0.38268343 -0.92387953
vn 0.57735027 -0.57735027 0.57735027
vn 0.70710678 -0.00000000 0.70710678
vn 0.70710678 -0.00000000 0.70710678
vn 0.70710678 -0.00000000 -0.70710678
vn 0.46220734 -0.00000000 -0.88677189
vn 0.30290545 -0.67388734 -0.67388734
vn 0.00000000 0.38268343 0.92387953
vn 0.00000000 0.92387953 -0.38268343
vn 0.32505758 0.88807383 0.32505758
vn 0.10198709 0.95177497 -0.28934935
vn 0.00000000 0.92387953 0.38268343
vn -0.00000000 -0.98012757 -0.19836821
vn 0.00000000 -0.56564992 -0.82464548
vn 0.67388734 -0.30290545 0.67388734
vn 0.00000000 -0.46220734 0.88677189
vn 0.00000000 -0.92387953 -0.38268343
vn -0.00000000 -0.19836821 -0.98012757
vn 0.00000000 -0.92387953 0.38268343
vn 0.00000000 -0.38268343 0.92387953
vn -0.57735027 -0.57735027 -0.57735027
vn -0.00000000 -0.70710678 -0.70710678
vn 0.00000000 -0.51841223 -0.85513085
vn 0.67388734 0.30290545 0.67388734
vn 0.00000000 0.46220734 0.88677189
vn -0.00000000 0.70710678 -0.70710678
vn 0.57735027 0.57735027 -0.57735027
vn -0.00000000 0.70710678 -0.70710678
vn -0.00000000 0.20007313 0.97978097
vn 0.00000000 0.00000000 -1.00000000
vn 0.00000000 0.70710678 0.70710678
vn 0.70710678 -0.00000000 0.70710678
vn 0.00000000 -0.00000000 1.00000000
vn -0.00000000 1.00000000 -0.00000000
vn 0.88677189 0.46220734 -0.00000000
vn -0.94312959 -0.33242531 -0.00000000
vn 0.00000000 -1.00000000 0.00000000
vn 0.00000000 -0.33242531 -0.94312959
vn 0.00000000 -0.33242531 0.94312959
vn 0.00000000 0.38268343 -0.92387953
vn 0.00000000 -0.70710678 0.70710678
vn -0.00000000 -0.20007313 0.97978097
vn 0.94312959 0.33242531 -0.00000000
vn 0.00000000 0.33242531 -0.94312959
vn -0.94312959 0.33242531 0.00000000
vn -0.00000000 0.33242531 0.94312959
vn 0.09787009 0.76440354 -0.63726657
vn 0.38784874 0.38784874 -0.83614993
vn 0.28934935 0.10198709 0.95177497
vn 0.00000000 1.00000000 0.00000000
vn 0.38268343 0.00000000 -0.92387953
vn 0.38268343 0.00000000 0.92387953
vn 0.38784874 -0.38784874 -0.83614993
vn 0.28934935 -0.10198709 0.95177497
vn 0.09787009 -0.76440354 -0.63726657
vn 0.00000000 -0.38268343 -0.92387953
vn -0.00000000 0.20007313 0.97978097
vn 0.94312959 -0.33242531 -0.00000000
vn 0.00000000 -1.00000000 -0.00000000
vn -0.00000000 -0.33242531 -0.94312959
vn -0.94312959 -0.33242531 0.00000000
vn -0.00000000 -0.33242531 0.94312959
vn 0.00000000 0.00000000 -1.00000000
vn 0.70710678 0.00000000 0.70710678
vn 0.00000000 0.00000000 1.00000000
vn -0.00000000 0.70710678 0.70710678
vn 0.88677189 -0.46220734 -0.00000000
vn -0.00000000 0.33242531 -0.94312959
vn -0.94312959 0.33242531 0.00000000
vn -0.00000000 0.33242531 0.94312959
vn -0.57735027 0.57735027 -0.57735027
vn 0.00000000 0.51841223 -0.85513085
vn 0.00000000 -0.70710678 0.70710678
vn -0.00000000 -0.20007313 0.97978097
vn -0.00000000 -1.00000000 -0.00000000
vn 0.00000000 -0.56564992 -0.82464548
vn 0.00000000 1.00000000 -0.00000000
vn 0.00000000 -0.20007313 0.97978097
vn -0.00000000 0.70710678 -0.70710678
vn 0.00000000 0.56564992 -0.82464548
vn 0.70710678 -0.00000000 0.70710678
vn -0.00000000 0.22656158 0.97399684
vn 0.00000000 -0.70710678 -0.70710678
vn 0.00000000 -0.00000000 -1.00000000
vn 0.00000000 0.38268343 0.92387953
vn 0.00000000 0.98012757 -0.19836821
vn 0.00000000 0.92387953 -0.38268343
vn 0.00000000 0.92387953 0.38268343
vn 0.22567297 -0.87270352 -0.43296683
vn 0.22567297 -0.43296683 -0.87270352
vn -0.67388734 -0.30290545 0.67388734
vn -0.32505758 -0.88807383 0.32505758
vn -0.67388734 -0.30290545 0.67388734
vn -0.10198709 -0.95177497 -0.28934935
vn -0.38784874 -0.38784874 -0.83614993
vn 0.22567297 -0.87270352 0.43296683
vn 0.22567297 -0.43296683 0.87270352
vn 0.57735027 -0.57735027 -0.57735027
vn 0.32505758 -0.32505758 -0.88807383
vn -0.67388734 0.30290545 0.67388734
vn -0.67388734 0.30290545 0.67388734
vn -0.57735027 0.57735027 -0.57735027
vn -0.58082451 0.39802147 -0.71008577
vn 0.00000000 0.00000000 1.00000000
vn 0.57735027 -0.57735027 -0.57735027
vn 0.43296683 -0.22567297 -0.87270352
vn -0.70710678 -0.00000000 0.70710678
vn -0.31052500 0.29366529 0.90406577
vn -0.39802147 0.71008577 0.58082451
vn -0.57735027 0.57735027 -0.57735027
vn -0.88677189 0.46220734 -0.00000000
vn -0.67388734 0.30290545 -0.67388734
vn 0.94312959 -0.33242531 0.00000000
vn -0.28934935 0.10198709 0.95177497
vn 0.34158598 0.34158598 -0.87557868
vn 0.10198709 0.28934935 0.95177497
vn -0.94312959 0.33242531 -0.00000000
vn -0.67388734 0.30290545 -0.67388734
vn 0.94312959 0.33242531 -0.00000000
vn -0.34158598 0.34158598 0.87557868
vn 0.22567297 0.87270352 -0.43296683
vn 0.31052500 0.90406577 0.29366529
vn 0.88677189 0.46220734 0.00000000
vn -0.43596009 0.89170629 0.12164991
vn 1.00000000 0.00000000 0.00000000
vn 0.88677189 -0.46220734 0.00000000
vn 0.22567297 -0.87270352 -0.43296683
vn 0.34158598 -0.34158598 -0.87557868
vn 0.31052500 -0.90406577 0.29366529
vn 0.10198709 -0.28934935 0.95177497
vn -0.94312959 -0.33242531 -0.00000000
vn -0.43596009 -0.89170629 0.12164991
vn -0.67388734 -0.30290545 -0.67388734
vn 0.94312959 -0.33242531 0.00000000
vn -0.34158598 -0.34158598 0.87557868
vn 0.43296683 0.22567297 -0.87270352
vn -0.70710678 0.00000000 0.70710678
vn -0.20007313 0.00000000 0.97978097
vn -0.88677189 -0.46220734 -0.00000000
vn -0.63726657 -0.09787009 -0.76440354
vn 0.94312959 0.33242531 0.00000000
vn -0.28934935 -0.10198709 0.95177497
vn 0.57735027 0.57735027 -0.57735027
vn 0.57735027 0.57735027 -0.57735027
vn 0.32505758 0.32505758 -0.88807383
vn -0.32505758 -0.32505758 0.88807383
vn -0.34158598 -0.34158598 -0.87557868
vn 0.00000000 0.00000000 1.00000000
vn 0.00000000 0.38268343 -0.92387953
vn -0.57735027 -0.57735027 0.57735027
vn -0.70710678 -0.00000000 0.70710678
vn -0.70710678 -0.00000000 0.70710678
vn -0.30290545 -0.67388734 -0.67388734
vn -0.46220734 -0.00000000 -0.88677189
vn 0.00000000 0.38268343 0.92387953
vn 0.00000000 0.92387953 -0.38268343
vn -0.32505758 0.88807383 0.32505758
vn -0.10198709 0.95177497 -0.28934935
vn 0.00000000 0.92387953 0.38268343
vn 0.57735027 -0.57735027 -0.57735027
vn 0.57735027 -0.57735027 -0.57735027
vn 0.32505758 -0.88807383 -0.32505758
vn -0.83614993 -0.38784874 0.38784874
vn -0.28934935 -0.95177497 0.10198709
vn -0.98012757 -0.19836821 -0.00000000
vn -0.38268343 -0.92387953 0.00000000
vn -0.83614993 -0.38784874 -0.38784874
vn -0.28934935 -0.95177497 -0.10198709
vn 0.32505758 -0.88807383 0.32505758
vn 0.57735027 -0.57735027 0.57735027
vn 0.57735027 -0.57735027 0.57735027
vn 0.57735027 -0.57735027 -0.57735027
vn 0.43296683 -0.22567297 -0.87270352
vn -0.71008577 0.39802147 0.58082451
vn -0.57735027 0.57735027 0.57735027
vn -0.70710678 0.70710678 0.00000000
vn -0.57735027 0.57735027 -0.57735027
vn -0.71008577 0.39802147 -0.58082451
vn 0.57735027 -0.57735027 0.57735027
vn 0.43296683 -0.22567297 0.87270352
vn 0.67388734 -0.30290545 -0.67388734
vn 0.63726657 -0.09787009 -0.76440354
vn 0.50129713 0.25489896 0.82687829
vn -0.03207108 0.99897092 0.03207108
vn -0.58082451 0.71008577 0.39802147
vn -0.57735027 0.57735027 -0.57735027
vn -0.67388734 0.30290545 -0.67388734
vn -0.67388734 0.30290545 -0.67388734
vn 0.38268343 0.00000000 0.92387953
vn 0.67388734 0.30290545 -0.67388734
vn 0.67388734 0.30290545 -0.67388734
vn 0.34158598 0.34158598 0.87557868
vn -0.67388734 0.30290545 -0.67388734
vn -0.67388734 0.30290545 -0.67388734
vn 0.34158598 0.34158598 0.87557868
vn 0.43596009 0.89170629 0.12164991
vn -0.51656098 0.81251413 -0.27015835
vn 0.34158598 0.87557868 0.34158598
vn 0.67388734 -0.30290545 -0.67388734
vn 0.67388734 -0.30290545 -0.67388734
vn 0.43596009 -0.89170629 0.12164991
vn 0.34158598 -0.34158598 0.87557868
vn -0.67388734 -0.30290545 -0.67388734
vn -0.58082451 -0.71008577 -0.39802147
vn -0.67388734 -0.30290545 -0.67388734
vn 0.19831257 -0.85277741 0.48315920
vn 0.34158598 -0.34158598 0.87557868
vn 0.67388734 0.30290545 -0.67388734
vn 0.63726657 0.09787009 -0.76440354
vn 0.40825213 -0.17288610 0.89634848
vn -0.70710678 0.00000000 -0.70710678
vn -0.70710678 0.00000000 -0.70710678
vn 0.38268343 0.00000000 0.92387953
vn 0.38268343 0.00000000 -0.92387953
vn -0.39721251 -0.82731158 0.39721251
vn -0.57735027 -0.57735027 0.57735027
vn -0.57735027 -0.57735027 0.57735027
vn -0.67388734 -0.30290545 -0.67388734
vn -0.67388734 -0.30290545 -0.67388734
vn 0.38268343 0.00000000 0.92387953
vn 0.34158598 0.34158598 -0.87557868
vn -0.88677189 -0.00000000 0.46220734
vn -0.67388734 -0.67388734 0.30290545
vn -1.00000000 -0.00000000 0.00000000
vn -0.70710678 -0.70710678 0.00000000
vn -0.88677189 -0.00000000 -0.46220734
vn -0.67388734 -0.67388734 -0.30290545
vn 0.34158598 0.34158598 0.87557868
vn 0.22567297 0.87270352 -0.43296683
vn 0.00000000 1.00000000 0.00000000
vn -0.28934935 0.95177497 0.10198709
vn -0.38268343 0.92387953 0.00000000
vn -0.28934935 0.95177497 -0.10198709
vn 0.00000000 1.00000000 0.00000000
vn 0.22567297 0.87270352 0.43296683
vn 0.57735027 -0.57735027 -0.57735027
vn 0.57735027 -0.57735027 -0.57735027
vn 0.43296683 -0.87270352 -0.22567297
vn 0.38268343 -0.92387953 0.00000000
vn 0.43296683 -0.87270352 0.22567297
vn 0.57735027 -0.57735027 0.57735027
vn 0.57735027 -0.57735027 0.57735027
vn 0.84184755 -0.09477457 -0.53132898
vn 0.53132898 -0.09477457 -0.84184755
vn 0.57735027 -0.57735027 -0.57735027
vn -0.85513085 0.51841223 -0.00000000
vn 0.57735027 -0.57735027 0.57735027
vn 0.67388734 -0.30290545 0.67388734
vn 0.67388734 -0.30290545 0.67388734
vn 1.00000000 0.00000000 0.00000000
vn -0.00000000 0.00000000 -1.00000000
vn -0.82687829 0.25489896 -0.50129713
vn -0.95177497 0.28934935 0.10198709
vn -1.00000000 0.00000000 0.00000000
vn -0.87270352 0.22567297 -0.43296683
vn 0.70710678 0.00000000 0.70710678
vn 0.70710678 0.00000000 0.70710678
vn 0.94312959 0.33242531 0.00000000
vn -0.00000000 0.33242531 -0.94312959
vn -0.87557868 0.34158598 -0.34158598
vn -0.95177497 0.28934935 -0.10198709
vn -1.00000000 0.00000000 0.00000000
vn -0.95177497 0.10198709 -0.28934935
vn 0.62024258 0.32721895 0.71290035
vn 0.70710678 0.00000000 0.70710678
vn -0.00000000 0.94312959 -0.33242531
vn -0.00000000 0.88677189 -0.46220734
vn -0.00000000 0.46220734 -0.88677189
vn -0.95177497 0.10198709 -0.28934935
vn -1.00000000 0.00000000 0.00000000
vn -0.90406577 0.31052500 0.29366529
vn 0.13301705 0.18877509 0.97296990
vn -0.92387953 0.00000000 -0.38268343
vn -0.00000000 0.00000000 -1.00000000
vn -1.00000000 0.00000000 0.00000000
vn -0.92387953 0.00000000 0.38268343
vn -0.00000000 0.00000000 1.00000000
vn -0.95177497 -0.10198709 -0.28934935
vn -0.00000000 -0.46220734 -0.88677189
vn -1.00000000 0.00000000 0.00000000
vn -0.88028737 -0.34435627 0.32636316
vn -0.00000000 0.00000000 1.00000000
vn 0.94312959 -0.33242531 0.00000000
vn -0.00000000 -0.94312959 -0.33242531
vn -0.00000000 -0.33242531 -0.94312959
vn -0.87557868 -0.34158598 -0.34158598
vn -0.95177497 -0.28934935 -0.10198709
vn -0.00000000 -0.88677189 -0.46220734
vn -1.00000000 0.00000000 0.00000000
vn -0.95177497 -0.10198709 -0.28934935
vn 0.62416485 -0.14881097 0.76698992
vn 0.67388734 -0.30290545 0.67388734
vn 1.00000000 0.00000000 0.00000000
vn -0.00000000 0.00000000 -1.00000000
vn -0.89634848 -0.17288610 -0.40825213
vn -1.00000000 0.00000000 0.00000000
vn -1.00000000 0.00000000 0.00000000
vn -0.92387953 0.00000000 -0.38268343
vn 0.70710678 0.00000000 0.70710678
vn 0.70710678 0.00000000 0.70710678
vn 0.81086774 -0.23075817 -0.53781426
vn 0.53781426 -0.23075817 -0.81086774
vn -0.87270352 -0.43296683 0.22567297
vn -0.92387953 -0.38268343 0.00000000
vn -0.87557868 -0.34158598 -0.34158598
vn 0.70710678 0.00000000 0.70710678
vn 0.70710678 0.00000000 0.70710678
vn 0.67388734 0.30290545 -0.67388734
vn 0.67388734 0.30290545 -0.67388734
vn 0.67388734 0.30290545 0.67388734
vn 0.67388734 0.30290545 0.67388734
vn 0.43296683 0.87270352 -0.22567297
vn 0.38268343 0.92387953 0.00000000
vn 0.38268343 0.92387953 0.00000000
vn 0.38268343 0.92387953 0.00000000
vn 0.43296683 0.87270352 0.22567297
vn 0.87270352 -0.43296683 -0.22567297
vn 0.92387953 -0.38268343 0.00000000
vn 0.87270352 -0.43296683 0.22567297
vn 0.87270352 -0.22567297 -0.43296683
vn 1.00000000 0.00000000 0.00000000
vn 0.97978097 -0.20007313 -0.00000000
vn 1.00000000 0.00000000 0.00000000
vn 0.87270352 -0.22567297 0.43296683
vn 0.92387953 0.00000000 -0.38268343
vn 0.95177497 -0.10198709 -0.28934935
vn 0.67388734 -0.30290545 -0.67388734
vn 0.70710678 -0.70710678 -0.00000000
vn 0.95177497 -0.10198709 0.28934935
vn 0.67388734 -0.30290545 0.67388734
vn 0.92387953 0.00000000 0.38268343
vn 0.87557868 0.34158598 -0.34158598
vn 0.83614993 0.38784874 -0.38784874
vn 0.67388734 0.30290545 -0.67388734
vn 0.95177497 0.10198709 0.28934935
vn 0.67388734 0.30290545 0.67388734
vn 0.92387953 0.00000000 0.38268343
vn 0.70710678 0.70710678 -0.00000000
vn 0.90406577 0.31052500 -0.29366529
vn 1.00000000 0.00000000 0.00000000
vn 0.92387953 0.00000000 0.38268343
vn 0.92387953 0.00000000 -0.38268343
vn 1.00000000 0.00000000 0.00000000
vn 0.92387953 0.00000000 0.38268343
vn 0.90406577 -0.31052500 -0.29366529
vn 1.00000000 0.00000000 0.00000000
vn 0.92387953 0.00000000 0.38268343
vn 0.87557868 -0.34158598 -0.34158598
vn 0.83614993 -0.38784874 -0.38784874
vn 0.67388734 -0.30290545 -0.67388734
vn 0.70710678 -0.70710678 -0.00000000
vn 0.95177497 -0.10198709 0.28934935
vn 0.67388734 -0.30290545 0.67388734
vn 0.92387953 0.00000000 0.38268343
vn 0.92387953 0.00000000 -0.38268343
vn 0.95177497 0.10198709 -0.28934935
vn 0.67388734 0.30290545 -0.67388734
vn 0.95177497 0.10198709 0.28934935
vn 0.67388734 0.30290545 0.67388734
vn 0.92387953 0.00000000 0.38268343
vn 0.92387953 0.00000000 -0.38268343
vn 1.00000000 0.00000000 0.00000000
vn 0.70710678 0.70710678 -0.00000000
vn 0.97978097 0.20007313 0.00000000
vn 1.00000000 0.00000000 0.00000000
vn 0.92387953 0.00000000 0.38268343
vn 0.87557868 0.34158598 -0.34158598
vn 0.92387953 0.38268343 0.00000000
vn 0.92387953 0.38268343 0.00000000
vn 0.92387953 0.38268343 0.00000000
vn 0.87557868 0.34158598 0.34158598
vn 0.94312959 -0.33242531 0.00000000
vn 0.94312959 0.33242531 -0.00000000
vn 0.94312959 -0.33242531 -0.00000000
vn 0.94312959 0.33242531 0.00000000
f 3//3 2//2 1//1
f 5//5 4//4 1//1
f 5//5 1//1 2//2
f 7//7 6//6 4//4
f 7//7 4//4 5//5
f 8//8 6//6 7//7
f 3//3 1//1 9//9
f 3//3 9//9 10//10
f 11//11 1//1 4//4
f 9//9 1//1 11//11
f 12//12 4//4 6//6
f 11//11 4//4 12//12
f 6//6 8//8 13//13
f 6//6 13//13 12//12
f 14//14 10//10 9//9
f 14//14 9//9 11//11
f 14//14 11//11 15//15
f 15//15 11//11 12//12
f 15//15 12//12 16//16
f 16//16 12//12 13//13
f 19//19 18//18 17//17
f 21//21 20//20 17//17
f 21//21 17//17 18//18
f 23//23 22//22 20//20
f 23//23 20//20 21//21
f 24//24 22//22 23//23
f 19//19 17//17 25//25
f 19//19 25//25 26//26
f 27//27 17//17 20//20
f 25//25 17//17 27//27
f 28//28 20//20 22//22
f 27//27 20//20 28//28
f 22//22 24//24 29//29
f 22//22 29//29 28//28
f 30//30 26//26 25//25
f 30//30 25//25 27//27
f 30//30 27//27 31//31
f 31//31 27//27 28//28
f 31//31 28//28 32//32
f 32//32 28//28 29//29
f 35//35 34//34 33//33
f 37//37 36//36 33//33
f 37//37 33//33 34//34
f 39//39 38//38 36//36
f 39//39 36//36 37//37
f 40//40 38//38 39//39
f 43//43 42//42 41//41
f 41//41 42//42 35//35
f 33//33 41//41 35//35
f 44//44 41//41 33//33
f 45//45 33//33 36//36
f 44//44 33//33 45//45
f 46//46 36//36 38//38
f 45//45 36//36 46//46
f 38//38 40//40 47//47
f 48//48 38//38 47//47
f 46//46 38//38 48//48
f 49//49 48//48 47//47
f 52//52 51//51 50//50
f 50//50 51//51 43//43
f 41//41 50//50 43//43
f 53//53 50//50 41//41
f 3//3 53//53 2//2
f 53//53 44//44 2//2
f 53//53 41//41 44//44
f 2//2 54//54 5//5
f 54//54 2//2 55//55
f 44//44 55//55 2//2
f 55//55 44//44 56//56
f 45//45 56//56 44//44
f 5//5 54//54 7//7
f 57//57 7//7 54//54
f 7//7 57//57 46//46
f 56//56 46//46 57//57
f 46//46 56//56 45//45
f 7//7 46//46 8//8
f 46//46 58//58 8//8
f 46//46 48//48 58//58
f 48//48 49//49 59//59
f 48//48 59//59 58//58
f 52//52 50//50 60//60
f 52//52 60//60 61//61
f 62//62 50//50 53//53
f 60//60 50//50 62//62
f 10//10 62//62 3//3
f 3//3 62//62 53//53
f 54//54 55//55 63//63
f 63//63 55//55 64//64
f 57//57 54//54 65//65
f 65//65 54//54 63//63
f 66//66 13//13 58//58
f 58//58 13//13 8//8
f 58//58 59//59 67//67
f 58//58 67//67 66//66
f 68//68 61//61 60//60
f 68//68 60//60 62//62
f 68//68 62//62 69//69
f 69//69 62//62 10//10
f 14//14 69//69 10//10
f 70//70 69//69 14//14
f 15//15 63//63 64//64
f 70//70 15//15 64//64
f 14//14 15//15 70//70
f 71//71 65//65 63//63
f 15//15 71//71 63//63
f 16//16 71//71 15//15
f 16//16 13//13 66//66
f 72//72 16//16 66//66
f 71//71 16//16 72//72
f 72//72 66//66 67//67
f 75//75 74//74 73//73
f 77//77 76//76 73//73
f 77//77 73//73 74//74
f 18//18 19//19 76//76
f 77//77 18//18 76//76
f 78//78 18//18 77//77
f 78//78 80//80 79//79
f 21//21 78//78 79//79
f 18//18 78//78 21//21
f 21//21 79//79 81//81
f 82//82 21//21 81//81
f 23//23 21//21 82//82
f 84//84 83//83 24//24
f 23//23 84//84 24//24
f 82//82 84//84 23//23
f 85//85 83//83 84//84
f 75//75 73//73 86//86
f 75//75 86//86 87//87
f 88//88 73//73 76//76
f 86//86 73//73 88//88
f 26//26 88//88 19//19
f 19//19 88//88 76//76
f 79//79 80//80 89//89
f 89//89 80//80 90//90
f 81//81 79//79 91//91
f 91//91 79//79 89//89
f 92//92 29//29 83//83
f 83//83 29//29 24//24
f 83//83 85//85 93//93
f 83//83 93//93 92//92
f 94//94 87//87 86//86
f 96//96 95//95 94//94
f 86//86 96//96 94//94
f 88//88 96//96 86//86
f 30//30 97//97 26//26
f 97//97 88//88 26//26
f 97//97 96//96 88//88
f 31//31 89//89 30//30
f 90//90 30//30 89//89
f 30//30 90//90 97//97
f 98//98 97//97 90//90
f 97//97 98//98 99//99
f 32//32 89//89 31//31
f 89//89 32//32 91//91
f 100//100 91//91 32//32
f 91//91 100//100 98//98
f 99//99 98//98 100//100
f 29//29 92//92 32//32
f 92//92 100//100 32//32
f 92//92 101//101 100//100
f 92//92 93//93 102//102
f 92//92 102//102 101//101
f 95//95 96//96 103//103
f 95//95 103//103 104//104
f 105//105 96//96 97//97
f 103//103 96//96 105//105
f 106//106 97//97 99//99
f 105//105 97//97 106//106
f 107//107 99//99 100//100
f 106//106 99//99 107//107
f 108//108 100//100 101//101
f 107//107 100//100 108//108
f 101//101 102//102 109//109
f 101//101 109//109 108//108
f 110//110 104//104 103//103
f 110//110 103//103 105//105
f 110//110 105//105 111//111
f 111//111 105//105 106//106
f 111//111 106//106 112//112
f 112//112 106//106 107//107
f 112//112 107//107 113//113
f 113//113 107//107 108//108
f 113//113 108//108 114//114
f 114//114 108//108 109//109
f 117//117 116//116 115//115
f 34//34 35//35 115//115
f 116//116 34//34 115//115
f 118//118 34//34 116//116
f 118//118 120//120 119//119
f 37//37 118//118 119//119
f 34//34 118//118 37//37
f 37//37 119//119 121//121
f 122//122 37//37 121//121
f 39//39 37//37 122//122
f 124//124 123//123 40//40
f 39//39 124//124 40//40
f 122//122 124//124 39//39
f 125//125 123//123 124//124
f 128//128 127//127 126//126
f 126//126 127//127 117//117
f 126//126 117//117 115//115
f 43//43 126//126 115//115
f 42//42 43//43 115//115
f 42//42 115//115 35//35
f 119//119 120//120 129//129
f 129//129 120//120 130//130
f 121//121 119//119 131//131
f 131//131 119//119 129//129
f 123//123 47//47 40//40
f 133//133 132//132 49//49
f 133//133 49//49 47//47
f 125//125 133//133 47//47
f 123//123 125//125 47//47
f 134//134 132//132 133//133
f 128//128 126//126 51//51
f 52//52 128//128 51//51
f 135//135 128//128 52//52
f 51//51 126//126 43//43
f 138//138 137//137 136//136
f 140//140 139//139 137//137
f 137//137 139//139 136//136
f 139//139 140//140 130//130
f 130//130 140//140 129//129
f 140//140 55//55 129//129
f 55//55 56//56 129//129
f 142//142 141//141 57//57
f 57//57 141//141 56//56
f 141//141 131//131 56//56
f 131//131 129//129 56//56
f 144//144 143//143 142//142
f 142//142 143//143 141//141
f 49//49 144//144 59//59
f 144//144 49//49 143//143
f 132//132 143//143 49//49
f 143//143 132//132 145//145
f 146//146 145//145 132//132
f 132//132 134//134 147//147
f 132//132 147//147 146//146
f 61//61 135//135 52//52
f 61//61 148//148 135//135
f 137//137 138//138 149//149
f 149//149 138//138 150//150
f 137//137 151//151 140//140
f 137//137 149//149 151//151
f 151//151 64//64 55//55
f 151//151 55//55 140//140
f 65//65 152//152 142//142
f 65//65 142//142 57//57
f 142//142 153//153 144//144
f 142//142 152//152 153//153
f 153//153 59//59 144//144
f 59//59 153//153 67//67
f 145//145 146//146 154//154
f 155//155 154//154 146//146
f 146//146 147//147 156//156
f 146//146 156//156 155//155
f 61//61 68//68 157//157
f 158//158 61//61 157//157
f 148//148 61//61 158//158
f 150//150 159//159 149//149
f 159//159 68//68 149//149
f 68//68 69//69 149//149
f 68//68 159//159 157//157
f 149//149 69//69 70//70
f 149//149 70//70 151//151
f 151//151 70//70 64//64
f 71//71 152//152 65//65
f 152//152 71//71 72//72
f 152//152 72//72 153//153
f 155//155 160//160 154//154
f 67//67 153//153 72//72
f 160//160 155//155 156//156
f 158//158 157//157 161//161
f 158//158 161//161 162//162
f 157//157 159//159 163//163
f 157//157 163//163 161//161
f 162//162 161//161 164//164
f 162//162 164//164 165//165
f 161//161 163//163 166//166
f 161//161 166//166 164//164
f 165//165 164//164 74//74
f 75//75 165//165 74//74
f 167//167 165//165 75//75
f 77//77 74//74 164//164
f 168//168 77//77 164//164
f 166//166 168//168 164//164
f 169//169 77//77 168//168
f 170//170 78//78 77//77
f 170//170 77//77 169//169
f 170//170 80//80 78//78
f 81//81 171//171 82//82
f 172//172 84//84 82//82
f 172//172 82//82 171//171
f 85//85 84//84 172//172
f 175//175 174//174 173//173
f 176//176 175//175 173//173
f 87//87 167//167 75//75
f 87//87 177//177 167//167
f 169//169 168//168 178//178
f 178//178 168//168 179//179
f 169//169 180//180 170//170
f 169//169 178//178 180//180
f 180//180 90//90 80//80
f 180//180 80//80 170//170
f 91//91 181//181 171//171
f 91//91 171//171 81//81
f 171//171 182//182 172//172
f 171//171 181//181 182//182
f 182//182 85//85 172//172
f 85//85 182//182 93//93
f 174//174 175//175 183//183
f 184//184 183//183 175//175
f 175//175 176//176 185//185
f 175//175 185//185 184//184
f 87//87 94//94 186//186
f 187//187 87//87 186//186
f 177//177 87//87 187//187
f 179//179 188//188 178//178
f 186//186 94//94 95//95
f 190//190 189//189 188//188
f 189//189 178//178 188//188
f 189//189 180//180 178//178
f 191//191 98//98 90//90
f 180//180 191//191 90//90
f 189//189 191//191 180//180
f 181//181 91//91 98//98
f 191//191 181//181 98//98
f 192//192 181//181 191//191
f 194//194 182//182 193//193
f 182//182 192//192 193//193
f 182//182 181//181 192//192
f 93//93 182//182 102//102
f 194//194 102//102 182//182
f 102//102 194//194 195//195
f 183//183 195//195 194//194
f 195//195 183//183 184//184
f 184//184 185//185 196//196
f 184//184 196//196 195//195
f 187//187 186//186 197//197
f 187//187 197//197 198//198
f 104//104 197//197 95//95
f 95//95 197//197 186//186
f 190//190 199//199 189//189
f 201//201 200//200 199//199
f 200//200 189//189 199//199
f 200//200 191//191 189//189
f 203//203 192//192 202//202
f 192//192 200//200 202//202
f 192//192 191//191 200//200
f 192//192 203//203 193//193
f 204//204 109//109 195//195
f 195//195 109//109 102//102
f 195//195 196//196 205//205
f 195//195 205//205 204//204
f 206//206 198//198 197//197
f 206//206 197//197 104//104
f 110//110 206//206 104//104
f 207//207 206//206 110//110
f 208//208 110//110 111//111
f 208//208 207//207 110//110
f 112//112 200//200 201//201
f 208//208 112//112 201//201
f 111//111 112//112 208//208
f 209//209 202//202 200//200
f 112//112 209//209 200//200
f 113//113 209//209 112//112
f 210//210 113//113 114//114
f 210//210 209//209 113//113
f 114//114 109//109 204//204
f 211//211 114//114 204//204
f 210//210 114//114 211//211
f 211//211 204//204 205//205
f 214//214 213//213 212//212
f 116//116 117//117 212//212
f 213//213 116//116 212//212
f 215//215 116//116 213//213
f 215//215 217//217 216//216
f 118//118 215//215 216//216
f 116//116 215//215 118//118
f 216//216 120//120 118//118
f 121//121 218//218 122//122
f 122//122 218//218 219//219
f 220//220 122//122 219//219
f 124//124 122//122 220//220
f 222//222 221//221 125//125
f 124//124 222//222 125//125
f 220//220 222//222 124//124
f 223//223 221//221 222//222
f 214//214 212//212 127//127
f 128//128 214//214 127//127
f 224//224 214//214 128//128
f 127//127 212//212 117//117
f 216//216 217//217 225//225
f 225//225 217//217 226//226
f 225//225 130//130 120//120
f 225//225 120//120 216//216
f 131//131 227//227 218//218
f 131//131 218//218 121//121
f 219//219 218//218 228//228
f 228//228 218//218 227//227
f 221//221 133//133 125//125
f 134//134 133//133 221//221
f 223//223 134//134 221//221
f 229//229 134//134 223//223
f 232//232 231//231 230//230
f 231//231 224//224 230//230
f 224//224 135//135 230//230
f 224//224 128//128 135//135
f 234//234 233//233 136//136
f 136//136 233//233 138//138
f 139//139 225//225 226//226
f 234//234 139//139 226//226
f 136//136 139//139 234//234
f 225//225 139//139 130//130
f 141//141 227//227 131//131
f 235//235 228//228 227//227
f 141//141 235//235 227//227
f 143//143 235//235 141//141
f 143//143 145//145 235//235
f 235//235 145//145 236//236
f 229//229 147//147 134//134
f 237//237 147//147 229//229
f 232//232 230//230 238//238
f 232//232 238//238 239//239
f 148//148 238//238 135//135
f 135//135 238//238 230//230
f 233//233 150//150 138//138
f 240//240 150//150 233//233
f 154//154 236//236 145//145
f 154//154 241//241 236//236
f 237//237 156//156 147//147
f 242//242 156//156 237//237
f 243//243 239//239 238//238
f 238//238 148//148 243//243
f 148//148 244//244 243//243
f 148//148 158//158 244//244
f 240//240 159//159 150//150
f 245//245 159//159 240//240
f 246//246 241//241 154//154
f 246//246 154//154 160//160
f 160//160 156//156 242//242
f 160//160 242//242 246//246
f 162//162 244//244 158//158
f 162//162 247//247 244//244
f 245//245 163//163 159//159
f 248//248 163//163 245//245
f 165//165 247//247 162//162
f 165//165 249//249 247//247
f 248//248 166//166 163//163
f 250//250 166//166 248//248
f 253//253 252//252 251//251
f 252//252 249//249 251//251
f 249//249 167//167 251//251
f 249//249 165//165 167//167
f 250//250 168//168 166//166
f 254//254 168//168 250//250
f 256//256 255//255 173//173
f 256//256 173//173 174//174
f 176//176 173//173 255//255
f 176//176 255//255 257//257
f 253//253 251//251 258//258
f 253//253 258//258 259//259
f 177//177 258//258 167//167
f 167//167 258//258 251//251
f 254//254 179//179 168//168
f 260//260 179//179 254//254
f 183//183 256//256 174//174
f 183//183 261//261 256//256
f 257//257 185//185 176//176
f 262//262 185//185 257//257
f 263//263 259//259 258//258
f 258//258 177//177 263//263
f 177//177 264//264 263//263
f 177//177 187//187 264//264
f 188//188 179//179 265//265
f 179//179 266//266 265//265
f 179//179 260//260 266//266
f 265//265 190//190 188//188
f 193//193 267//267 194//194
f 267//267 268//268 194//194
f 268//268 183//183 194//194
f 268//268 261//261 183//183
f 262//262 196//196 185//185
f 269//269 196//196 262//262
f 198//198 264//264 187//187
f 198//198 270//270 264//264
f 266//266 271//271 265//265
f 271//271 273//273 272//272
f 271//271 272//272 199//199
f 265//265 271//271 199//199
f 190//190 265//265 199//199
f 272//272 201//201 199//199
f 202//202 274//274 203//203
f 274//274 275//275 203//203
f 203//203 275//275 193//193
f 275//275 276//276 193//193
f 276//276 267//267 193//193
f 267//267 276//276 268//268
f 269//269 205//205 196//196
f 277//277 205//205 269//269
f 278//278 270//270 198//198
f 278//278 198//198 206//206
f 279//279 206//206 207//207
f 279//279 278//278 206//206
f 208//208 272//272 273//273
f 279//279 208//208 273//273
f 207//207 208//208 279//279
f 272//272 208//208 201//201
f 209//209 274//274 202//202
f 280//280 275//275 274//274
f 209//209 280//280 274//274
f 210//210 280//280 209//209
f 281//281 210//210 211//211
f 281//281 280//280 210//210
f 211//211 205//205 277//277
f 211//211 277//277 281//281
f 283//283 282//282 213//213
f 283//283 213//213 214//214
f 282//282 285//285 284//284
f 215//215 282//282 284//284
f 213//213 282//282 215//215
f 284//284 217//217 215//215
f 287//287 286//286 220//220
f 287//287 220//220 219//219
f 220//220 288//288 222//222
f 286//286 288//288 220//220
f 223//223 222//222 288//288
f 223//223 288//288 289//289
f 292//292 291//291 290//290
f 291//291 283//283 290//290
f 283//283 224//224 290//290
f 283//283 214//214 224//224
f 284//284 285//285 293//293
f 293//293 285//285 294//294
f 293//293 226//226 217//217
f 293//293 217//217 284//284
f 228//228 296//296 295//295
f 287//287 228//228 295//295
f 219//219 228//228 287//287
f 296//296 297//297 295//295
f 289//289 229//229 223//223
f 298//298 229//229 289//289
f 292//292 290//290 231//231
f 232//232 292//292 231//231
f 299//299 292//292 232//232
f 231//231 290//290 224//224
f 302//302 301//301 300//300
f 300//300 301//301 294//294
f 294//294 301//301 293//293
f 301//301 233//233 293//293
f 233//233 234//234 293//293
f 293//293 234//234 226//226
f 235//235 296//296 228//228
f 304//304 303//303 236//236
f 236//236 303//303 235//235
f 303//303 297//297 235//235
f 297//297 296//296 235//235
f 307//307 306//306 305//305
f 303//303 304//304 298//298
f 237//237 298//298 304//304
f 298//298 237//237 229//229
f 308//308 305//305 306//306
f 239//239 299//299 232//232
f 239//239 309//309 299//299
f 302//302 310//310 301//301
f 233//233 301//301 310//310
f 311//311 233//233 310//310
f 240//240 233//233 311//311
f 241//241 312//312 304//304
f 241//241 304//304 236//236
f 312//312 237//237 304//304
f 237//237 312//312 242//242
f 307//307 305//305 313//313
f 314//314 313//313 305//305
f 305//305 308//308 315//315
f 305//305 315//315 314//314
f 316//316 309//309 239//239
f 316//316 239//239 243//243
f 243//243 244//244 316//316
f 316//316 244//244 317//317
f 311//311 245//245 240//240
f 318//318 245//245 311//311
f 246//246 312//312 241//241
f 314//314 319//319 313//313
f 242//242 312//312 246//246
f 319//319 314//314 315//315
f 247//247 317//317 244//244
f 247//247 320//320 317//317
f 318//318 248//248 245//245
f 321//321 248//248 318//318
f 249//249 320//320 247//247
f 249//249 322//322 320//320
f 321//321 250//250 248//248
f 323//323 250//250 321//321
f 325//325 324//324 252//252
f 325//325 252//252 253//253
f 249//249 252//252 322//322
f 322//322 252//252 324//324
f 323//323 254//254 250//250
f 326//326 254//254 323//323
f 256//256 327//327 255//255
f 257//257 255//255 327//327
f 330//330 329//329 328//328
f 331//331 330//330 328//328
f 259//259 325//325 253//253
f 259//259 332//332 325//325
f 335//335 334//334 333//333
f 326//326 335//335 333//333
f 260//260 326//326 333//333
f 254//254 326//326 260//260
f 261//261 336//336 327//327
f 261//261 327//327 256//256
f 336//336 257//257 327//327
f 257//257 336//336 262//262
f 329//329 330//330 337//337
f 338//338 337//337 330//330
f 330//330 331//331 339//339
f 330//330 339//339 338//338
f 259//259 263//263 340//340
f 341//341 259//259 340//340
f 332//332 259//259 341//341
f 334//334 342//342 333//333
f 340//340 263//263 264//264
f 260//260 333//333 342//342
f 343//343 260//260 342//342
f 266//266 260//260 343//343
f 345//345 344//344 336//336
f 261//261 345//345 336//336
f 268//268 345//345 261//261
f 338//338 346//346 337//337
f 347//347 336//336 344//344
f 336//336 347//347 262//262
f 269//269 262//262 347//347
f 346//346 338//338 339//339
f 348//348 341//341 340//340
f 340//340 264//264 348//348
f 264//264 349//349 348//348
f 264//264 270//270 349//349
f 271//271 266//266 350//350
f 266//266 351//351 350//350
f 266//266 343//343 351//351
f 350//350 273//273 271//271
f 353//353 352//352 276//276
f 353//353 276//276 275//275
f 268//268 276//276 345//345
f 345//345 276//276 352//352
f 347//347 277//277 269//269
f 354//354 277//277 347//347
f 355//355 349//349 270//270
f 355//355 270//270 278//278
f 279//279 350//350 351//351
f 355//355 279//279 351//351
f 278//278 279//279 355//355
f 350//350 279//279 273//273
f 356//356 353//353 275//275
f 356//356 275//275 280//280
f 357//357 280//280 281//281
f 357//357 356//356 280//280
f 281//281 277//277 354//354
f 281//281 354//354 357//357
f 359//359 358//358 282//282
f 359//359 282//282 283//283
f 361//361 360//360 285//285
f 282//282 361//361 285//285
f 358//358 361//361 282//282
f 362//362 360//360 361//361
f 364//364 363//363 286//286
f 364//364 286//286 287//287
f 286//286 365//365 288//288
f 363//363 365//365 286//286
f 289//289 288//288 365//365
f 289//289 365//365 366//366
f 292//292 367//367 291//291
f 367//367 368//368 291//291
f 368//368 283//283 291//291
f 368//368 359//359 283//283
f 369//369 294//294 360//360
f 360//360 294//294 285//285
f 360//360 362//362 370//370
f 360//360 370//370 369//369
f 287//287 295//295 371//371
f 372//372 287//287 371//371
f 364//364 287//287 372//372
f 297//297 371//371 295//295
f 366//366 298//298 289//289
f 373//373 298//298 366//366
f 375//375 374//374 367//367
f 292//292 375//375 367//367
f 299//299 375//375 292//292
f 376//376 302//302 300//300
f 374//374 368//368 367//367
f 377//377 376//376 300//300
f 377//377 300//300 294//294
f 378//378 377//377 294//294
f 369//369 378//378 294//294
f 378//378 369//369 370//370
f 379//379 372//372 371//371
f 381//381 379//379 380//380
f 380//380 379//379 303//303
f 379//379 371//371 303//303
f 371//371 297//297 303//303
f 382//382 306//306 307//307
f 298//298 380//380 303//303
f 380//380 298//298 383//383
f 373//373 383//383 298//298
f 382//382 308//308 306//306
f 309//309 375//375 299//299
f 309//309 384//384 375//375
f 376//376 310//310 302//302
f 311//311 310//310 376//376
f 377//377 311//311 376//376
f 385//385 311//311 377//377
f 381//381 380//380 386//386
f 381//381 386//386 387//387
f 382//382 307//307 388//388
f 313//313 388//388 307//307
f 389//389 380//380 383//383
f 380//380 389//389 386//386
f 388//388 315//315 308//308
f 388//388 308//308 382//382
f 390//390 384//384 309//309
f 390//390 309//309 316//316
f 392//392 391//391 317//317
f 391//391 316//316 317//317
f 391//391 390//390 316//316
f 385//385 391//391 392//392
f 318//318 385//385 392//392
f 311//311 385//385 318//318
f 393//393 387//387 386//386
f 313//313 319//319 388//388
f 386//386 389//389 393//393
f 388//388 319//319 315//315
f 320//320 394//394 392//392
f 320//320 392//392 317//317
f 394//394 321//321 318//318
f 394//394 318//318 392//392
f 322//322 395//395 394//394
f 322//322 394//394 320//320
f 395//395 323//323 321//321
f 395//395 321//321 394//394
f 397//397 396//396 324//324
f 397//397 324//324 325//325
f 322//322 324//324 395//395
f 324//324 398//398 395//395
f 324//324 396//396 398//398
f 323//323 395//395 398//398
f 399//399 323//323 398//398
f 326//326 323//323 399//399
f 402//402 401//401 400//400
f 403//403 328//328 329//329
f 404//404 400//400 401//401
f 403//403 331//331 328//328
f 332//332 397//397 325//325
f 332//332 405//405 397//397
f 406//406 334//334 335//335
f 407//407 406//406 335//335
f 326//326 407//407 335//335
f 399//399 407//407 326//326
f 402//402 400//400 408//408
f 402//402 408//408 409//409
f 403//403 329//329 410//410
f 337//337 410//410 329//329
f 411//411 400//400 404//404
f 400//400 411//411 408//408
f 410//410 339//339 331//331
f 410//410 331//331 403//403
f 341//341 413//413 412//412
f 405//405 341//341 412//412
f 332//332 341//341 405//405
f 406//406 342//342 334//334
f 414//414 412//412 413//413
f 343//343 342//342 406//406
f 407//407 343//343 406//406
f 415//415 343//343 407//407
f 409//409 408//408 344//344
f 345//345 409//409 344//344
f 416//416 409//409 345//345
f 337//337 346//346 410//410
f 344//344 408//408 347//347
f 411//411 347//347 408//408
f 347//347 411//411 417//417
f 410//410 346//346 339//339
f 348//348 413//413 341//341
f 348//348 349//349 413//413
f 349//349 414//414 413//413
f 349//349 418//418 414//414
f 420//420 351//351 419//419
f 351//351 415//415 419//419
f 351//351 343//343 415//415
f 421//421 420//420 419//419
f 423//423 422//422 352//352
f 423//423 352//352 353//353
f 345//345 352//352 416//416
f 416//416 352//352 422//422
f 417//417 354//354 347//347
f 424//424 354//354 417//417
f 425//425 418//418 349//349
f 425//425 349//349 355//355
f 355//355 351//351 420//420
f 426//426 355//355 420//420
f 425//425 355//355 426//426
f 426//426 420//420 421//421
f 427//427 423//423 353//353
f 427//427 353//353 356//356
f 428//428 356//356 357//357
f 428//428 427//427 356//356
f 357//357 354//354 424//424
f 357//357 424//424 428//428
f 359//359 429//429 358//358
f 358//358 429//429 430//430
f 431//431 358//358 430//430
f 361//361 358//358 431//431
f 433//433 432//432 362//362
f 361//361 433//433 362//362
f 431//431 433//433 361//361
f 435//435 434//434 432//432
f 435//435 432//432 433//433
f 437//437 436//436 434//434
f 437//437 434//434 435//435
f 363//363 364//364 436//436
f 437//437 363//363 436//436
f 438//438 363//363 437//437
f 438//438 440//440 439//439
f 365//365 438//438 439//439
f 363//363 438//438 365//365
f 439//439 366//366 365//365
f 442//442 441//441 429//429
f 359//359 442//442 429//429
f 368//368 442//442 359//359
f 429//429 441//441 430//430
f 443//443 370//370 432//432
f 432//432 370//370 362//362
f 434//434 445//445 444//444
f 443//443 434//434 444//444
f 432//432 434//434 443//443
f 447//447 446//446 445//445
f 434//434 447//447 445//445
f 436//436 447//447 434//434
f 372//372 447//447 364//364
f 364//364 447//447 436//436
f 440//440 448//448 439//439
f 366//366 439//439 448//448
f 449//449 366//366 448//448
f 373//373 366//366 449//449
f 375//375 450//450 374//374
f 450//450 451//451 374//374
f 451//451 368//368 374//374
f 451//451 442//442 368//368
f 453//453 452//452 378//378
f 378//378 452//452 377//377
f 378//378 370//370 443//443
f 454//454 378//378 443//443
f 453//453 378//378 454//454
f 454//454 443//443 444//444
f 455//455 446//446 447//447
f 457//457 455//455 456//456
f 456//456 455//455 379//379
f 455//455 447//447 379//379
f 447//447 372//372 379//379
f 381//381 456//456 379//379
f 449//449 383//383 373//373
f 458//458 383//383 449//449
f 384//384 459//459 450//450
f 384//384 450//450 375//375
f 451//451 450//450 460//460
f 460//460 450//450 459//459
f 452//452 385//385 377//377
f 461//461 385//385 452//452
f 457//457 456//456 462//462
f 457//457 462//462 463//463
f 387//387 462//462 381//381
f 381//381 462//462 456//456
f 458//458 389//389 383//383
f 464//464 389//389 458//458
f 390//390 459//459 384//384
f 465//465 460//460 459//459
f 390//390 465//465 459//459
f 391//391 465//465 390//390
f 391//391 385//385 461//461
f 391//391 461//461 465//465
f 466//466 463//463 462//462
f 466//466 462//462 387//387
f 393//393 466//466 387//387
f 467//467 466//466 393//393
f 393//393 389//389 464//464
f 393//393 464//464 467//467
f 397//397 468//468 396//396
f 396//396 468//468 469//469
f 470//470 396//396 469//469
f 398//398 396//396 470//470
f 399//399 398//398 470//470
f 399//399 470//470 471//471
f 474//474 473//473 472//472
f 401//401 402//402 472//472
f 473//473 401//401 472//472
f 475//475 401//401 473//473
f 404//404 401//401 475//475
f 404//404 475//475 476//476
f 405//405 477//477 468//468
f 405//405 468//468 397//397
f 469//469 468//468 478//478
f 478//478 468//468 477//477
f 471//471 407//407 399//399
f 479//479 407//407 471//471
f 474//474 472//472 480//480
f 474//474 480//480 481//481
f 409//409 480//480 402//402
f 402//402 480//480 472//472
f 476//476 411//411 404//404
f 482//482 411//411 476//476
f 412//412 477//477 405//405
f 412//412 414//414 477//477
f 414//414 478//478 477//477
f 414//414 483//483 478//478
f 485//485 415//415 484//484
f 415//415 479//479 484//484
f 415//415 407//407 479//479
f 486//486 485//485 484//484
f 481//481 480//480 487//487
f 481//481 487//487 488//488
f 416//416 487//487 409//409
f 409//409 487//487 480//480
f 482//482 417//417 411//411
f 489//489 417//417 482//482
f 418//418 483//483 414//414
f 418//418 490//490 483//483
f 485//485 419//419 415//415
f 492//492 491//491 421//421
f 492//492 421//421 419//419
f 486//486 492//492 419//419
f 485//485 486//486 419//419
f 494//494 493//493 491//491
f 494//494 491//491 492//492
f 496//496 495//495 493//493
f 496//496 493//493 494//494
f 495//495 496//496 488//488
f 495//495 488//488 487//487
f 423//423 495//495 487//487
f 422//422 423//423 487//487
f 422//422 487//487 416//416
f 489//489 424//424 417//417
f 497//497 424//424 489//489
f 498//498 490//490 418//418
f 498//498 418//418 425//425
f 499//499 425//425 426//426
f 499//499 498//498 425//425
f 426//426 421//421 491//491
f 500//500 426//426 491//491
f 499//499 426//426 500//500
f 500//500 491//491 493//493
f 500//500 493//493 501//501
f 501//501 493//493 495//495
f 501//501 495//495 502//502
f 502//502 495//495 423//423
f 427//427 502//502 423//423
f 503//503 502//502 427//427
f 504//504 427//427 428//428
f 504//504 503//503 427//427
f 428//428 424//424 497//497
f 428//428 497//497 504//504
f 430//430 505//505 431//431
f 431//431 505//505 506//506
f 507//507 431//431 506//506
f 433//433 431//431 507//507
f 433//433 508//508 435//435
f 507//507 508//508 433//433
f 435//435 509//509 437//437
f 508//508 509//509 435//435
f 509//509 511//511 510//510
f 438//438 509//509 510//510
f 437//437 509//509 438//438
f 510//510 440//440 438//438
f 442//442 512//512 441//441
f 512//512 513//513 441//441
f 441//441 513//513 430//430
f 513//513 514//514 430//430
f 514//514 505//505 430//430
f 505//505 514//514 506//506
f 515//515 444//444 445//445
f 446//446 515//515 445//445
f 511//511 516//516 510//510
f 516//516 518//518 517//517
f 516//516 517//517 448//448
f 510//510 516//516 448//448
f 440//440 510//510 448//448
f 517//517 449//449 448//448
f 451//451 519//519 512//512
f 451//451 512//512 442//442
f 513//513 521//521 520//520
f 521//521 513//513 453//453
f 512//512 453//453 513//513
f 453//453 512//512 452//452
f 519//519 452//452 512//512
f 454//454 522//522 453//453
f 453//453 522//522 521//521
f 444//444 515//515 454//454
f 515//515 522//522 454//454
f 515//515 523//523 522//522
f 455//455 524//524 446//446
f 524//524 515//515 446//446
f 524//524 523//523 515//515
f 457//457 524//524 455//455
f 517//517 518//518 525//525
f 525//525 518//518 526//526
f 525//525 458//458 449//449
f 525//525 449//449 517//517
f 460//460 527//527 519//519
f 460//460 519//519 451//451
f 527//527 452//452 519//519
f 452//452 527//527 461//461
f 520//520 521//521 528//528
f 529//529 528//528 521//521
f 530//530 521//521 522//522
f 529//529 521//521 530//530
f 531//531 522//522 523//523
f 530//530 522//522 531//531
f 532//532 523//523 524//524
f 531//531 523//523 532//532
f 463//463 532//532 457//457
f 457//457 532//532 524//524
f 525//525 526//526 533//533
f 533//533 526//526 534//534
f 533//533 464//464 458//458
f 533//533 458//458 525//525
f 465//465 527//527 460//460
f 529//529 535//535 528//528
f 461//461 527//527 465//465
f 535//535 529//529 530//530
f 535//535 530//530 536//536
f 538//538 537//537 536//536
f 530//530 538//538 536//536
f 531//531 538//538 530//530
f 539//539 531//531 532//532
f 538//538 531//531 539//539
f 466//466 540//540 463//463
f 540//540 532//532 463//463
f 540//540 539//539 532//532
f 534//534 541//541 533//533
f 541//541 466//466 533//533
f 466//466 467//467 533//533
f 466//466 541//541 540//540
f 533//533 467//467 464//464
f 537//537 538//538 542//542
f 537//537 542//542 543//543
f 544//544 538//538 539//539
f 542//542 538//538 544//544
f 545//545 539//539 540//540
f 544//544 539//539 545//545
f 540//540 541//541 546//546
f 540//540 546//546 545//545
f 543//543 542//542 547//547
f 543//543 547//547 548//548
f 549//549 542//542 544//544
f 547//547 542//542 549//549
f 550//550 544//544 545//545
f 549//549 544//544 550//550
f 545//545 546//546 551//551
f 545//545 551//551 550//550
f 469//469 552//552 470//470
f 471//471 470//470 552//552
f 555//555 554//554 553//553
f 557//557 556//556 555//555
f 557//557 555//555 553//553
f 556//556 557//557 548//548
f 547//547 556//556 548//548
f 558//558 556//556 547//547
f 559//559 547//547 549//549
f 558//558 547//547 559//559
f 474//474 559//559 473//473
f 559//559 550//550 473//473
f 559//559 549//549 550//550
f 475//475 473//473 550//550
f 560//560 475//475 550//550
f 551//551 560//560 550//550
f 561//561 475//475 560//560
f 561//561 476//476 475//475
f 478//478 562//562 552//552
f 478//478 552//552 469//469
f 562//562 471//471 552//552
f 471//471 562//562 479//479
f 554//554 555//555 563//563
f 564//564 563//563 555//555
f 565//565 555//555 556//556
f 564//564 555//555 565//565
f 566//566 556//556 558//558
f 565//565 556//556 566//566
f 567//567 558//558 559//559
f 566//566 558//558 567//567
f 481//481 567//567 474//474
f 474//474 567//567 559//559
f 561//561 560//560 568//568
f 568//568 560//560 569//569
f 568//568 482//482 476//476
f 568//568 476//476 561//561
f 483//483 570//570 562//562
f 483//483 562//562 478//478
f 563//563 564//564 571//571
f 484//484 571//571 564//564
f 571//571 484//484 570//570
f 479//479 570//570 484//484
f 570//570 479//479 562//562
f 484//484 564//564 486//486
f 564//564 572//572 486//486
f 564//564 565//565 572//572
f 573//573 565//565 566//566
f 572//572 565//565 573//573
f 574//574 566//566 567//567
f 573//573 566//566 574//574
f 488//488 574//574 481//481
f 481//481 574//574 567//567
f 568//568 569//569 575//575
f 575//575 569//569 576//576
f 575//575 489//489 482//482
f 575//575 482//482 568//568
f 490//490 577//577 570//570
f 490//490 570//570 483//483
f 571//571 570//570 578//578
f 578//578 570//570 577//577
f 572//572 492//492 486//486
f 492//492 572//572 494//494
f 494//494 572//572 573//573
f 494//494 573//573 496//496
f 496//496 573//573 574//574
f 496//496 574//574 488//488
f 575//575 576//576 579//579
f 579//579 576//576 580//580
f 579//579 497//497 489//489
f 579//579 489//489 575//575
f 498//498 577//577 490//490
f 581//581 578//578 577//577
f 498//498 581//581 577//577
f 499//499 581//581 498//498
f 582//582 499//499 500//500
f 582//582 581//581 499//499
f 583//583 500//500 501//501
f 583//583 582//582 500//500
f 584//584 501//501 502//502
f 584//584 583//583 501//501
f 585//585 502//502 503//503
f 585//585 584//584 502//502
f 504//504 579//579 580//580
f 585//585 504//504 580//580
f 503//503 504//504 585//585
f 579//579 504//504 497//497
f 506//506 586//586 507//507
f 587//587 508//508 507//507
f 587//587 507//507 586//586
f 588//588 509//509 508//508
f 588//588 508//508 587//587
f 588//588 511//511 509//509
f 513//513 589//589 514//514
f 586//586 506//506 514//514
f 589//589 586//586 514//514
f 590//590 586//586 589//589
f 586//586 591//591 587//587
f 586//586 590//590 591//591
f 587//587 592//592 588//588
f 587//587 591//591 592//592
f 593//593 516//516 511//511
f 588//588 593//593 511//511
f 592//592 593//593 588//588
f 593//593 518//518 516//516
f 520//520 594//594 589//589
f 520//520 589//589 513//513
f 589//589 595//595 590//590
f 589//589 594//594 595//595
f 597//597 591//591 596//596
f 591//591 595//595 596//596
f 591//591 590//590 595//595
f 599//599 598//598 597//597
f 598//598 591//591 597//597
f 598//598 592//592 591//591
f 592//592 600//600 593//593
f 592//592 598//598 600//600
f 600//600 526//526 518//518
f 600//600 518//518 593//593
f 528//528 601//601 594//594
f 528//528 594//594 520//520
f 594//594 602//602 595//595
f 594//594 601//601 602//602
f 596//596 595//595 603//603
f 603//603 595//595 602//602
f 598//598 599//599 604//604
f 604//604 599//599 605//605
f 598//598 606//606 600//600
f 598//598 604//604 606//606
f 606//606 534//534 526//526
f 606//606 526//526 600//600
f 535//535 601//601 528//528
f 601//601 535//535 536//536
f 601//601 536//536 602//602
f 608//608 607//607 537//537
f 537//537 607//607 536//536
f 607//607 603//603 536//536
f 603//603 602//602 536//536
f 607//607 608//608 605//605
f 608//608 604//604 605//605
f 608//608 609//609 604//604
f 604//604 610//610 606//606
f 604//604 609//609 610//610
f 610//610 541//541 534//534
f 610//610 534//534 606//606
f 543//543 611//611 608//608
f 543//543 608//608 537//537
f 608//608 612//612 609//609
f 608//608 611//611 612//612
f 609//609 613//613 610//610
f 609//609 612//612 613//613
f 613//613 546//546 541//541
f 613//613 541//541 610//610
f 548//548 614//614 611//611
f 548//548 611//611 543//543
f 611//611 615//615 612//612
f 611//611 614//614 615//615
f 612//612 616//616 613//613
f 612//612 615//615 616//616
f 616//616 551//551 546//546
f 616//616 546//546 613//613
f 554//554 617//617 553//553
f 618//618 557//557 553//553
f 618//618 553//553 617//617
f 618//618 619//619 557//557
f 557//557 619//619 548//548
f 619//619 620//620 548//548
f 620//620 614//614 548//548
f 622//622 621//621 620//620
f 621//621 614//614 620//620
f 621//621 615//615 614//614
f 615//615 623//623 616//616
f 615//615 621//621 623//623
f 623//623 560//560 551//551
f 623//623 551//551 616//616
f 563//563 624//624 617//617
f 563//563 617//617 554//554
f 617//617 625//625 618//618
f 617//617 624//624 625//625
f 619//619 618//618 626//626
f 626//626 618//618 625//625
f 621//621 622//622 627//627
f 627//627 622//622 628//628
f 621//621 629//629 623//623
f 621//621 627//627 629//629
f 629//629 569//569 560//560
f 629//629 560//560 623//623
f 571//571 630//630 624//624
f 571//571 624//624 563//563
f 624//624 631//631 625//625
f 624//624 630//630 631//631
f 626//626 625//625 632//632
f 625//625 633//633 632//632
f 625//625 631//631 633//633
f 632//632 633//633 628//628
f 633//633 627//627 628//628
f 633//633 634//634 627//627
f 627//627 635//635 629//629
f 627//627 634//634 635//635
f 635//635 576//576 569//569
f 635//635 569//569 629//629
f 578//578 636//636 630//630
f 578//578 630//630 571//571
f 630//630 637//637 631//631
f 630//630 636//636 637//637
f 631//631 638//638 633//633
f 631//631 637//637 638//638
f 633//633 639//639 634//634
f 633//633 638//638 639//639
f 634//634 640//640 635//635
f 634//634 639//639 640//640
f 640//640 580//580 576//576
f 640//640 576//576 635//635
f 581//581 636//636 578//578
f 636//636 581//581 582//582
f 636//636 582//582 637//637
f 637//637 582//582 583//583
f 637//637 583//583 638//638
f 638//638 583//583 584//584
f 638//638 584//584 639//639
f 639//639 584//584 585//585
f 639//639 585//585 640//640
f 640//640 585//585 580//580
f 596//596 641//641 597//597
f 641//641 599//599 597//597
f 603//603 642//642 641//641
f 603//603 641//641 596//596
f 642//642 605//605 599//599
f 642//642 599//599 641//641
f 607//607 642//642 603//603
f 642//642 607//607 605//605
f 619//619 643//643 620//620
f 643//643 622//622 620//620
f 626//626 644//644 643//643
f 626//626 643//643 619//619
f 644//644 628//628 622//622
f 644//644 622//622 643//643
f 632//632 644//644 626//626
f 644//644 632//632 628//628

