# https://github.com/mikedh/trimesh
v -0.04847696 -0.02539142 -0.01631194
v -0.04654531 -0.02647483 -0.01663012
v -0.04680213 -0.02430937 -0.01814291
v -0.04844470 -0.02483048 -0.01412049
v -0.04715640 -0.02642070 -0.01357403
v -0.04701737 -0.02540029 -0.01168868
v -0.04768903 -0.02342915 -0.01603711
v -0.04733600 -0.02373204 -0.01305382
v -0.04389890 -0.02640426 -0.01632710
v -0.04417068 -0.02485225 -0.01833357
v -0.04433596 -0.02670201 -0.01340433
v -0.04573557 -0.02462498 -0.00981633
v -0.04445801 -0.02636048 -0.00980382
v -0.04493009 -0.02433469 -0.00691096
v -0.04417787 -0.02604042 -0.00674766
v -0.04335970 -0.02458806 -0.00472509
v -0.04578561 -0.02192029 -0.01718700
v -0.04359103 -0.02136929 -0.01846483
v -0.04579684 -0.02178207 -0.01372839
v -0.04515430 -0.02188202 -0.00993673
v -0.04318387 -0.02176287 -0.00805750
v -0.04345877 -0.02371549 -0.00597360
v -0.04394584 -0.01985106 -0.01604308
v -0.04399411 -0.01958291 -0.01253018
v -0.04353751 -0.01962404 -0.00980460
v -0.04211164 -0.02481528 -0.01709420
v -0.04207099 -0.02530851 -0.01430266
v -0.04245384 -0.02477855 -0.00997603
v -0.04271133 -0.02506533 -0.00608190
v -0.04034041 -0.02326750 -0.01602172
v -0.04073586 -0.02185558 -0.01838984
v -0.03983540 -0.02343684 -0.01259451
v -0.04041125 -0.02318113 -0.00906350
v -0.04180994 -0.02184581 -0.00640241
v -0.04000823 -0.02312825 -0.00573433
v -0.04202227 -0.02310444 -0.00492503
v -0.04059647 -0.02337509 -0.00315373
v -0.04194297 -0.02194877 -0.00382064
v -0.04001300 -0.02180765 -0.00122565
v -0.04217683 -0.01842272 -0.01710245
v -0.04009429 -0.01783559 -0.01838717
v -0.04221675 -0.01787834 -0.01426025
v -0.04197730 -0.01787815 -0.01091756
v -0.04126718 -0.01846660 -0.00835096
v -0.04084340 -0.01958647 -0.00567945
v -0.04027319 -0.02017829 -0.00254185
v -0.04051525 -0.01639302 -0.01601148
v -0.03989215 -0.01620688 -0.01252225
v -0.03950907 -0.01682975 -0.00924898
v -0.03867162 -0.02117405 -0.01702566
v -0.03844482 -0.02162806 -0.01443658
v -0.03652888 -0.02125171 -0.01163681
v -0.03725237 -0.02279501 -0.00978052
v -0.03728135 -0.02300372 -0.00646168
v -0.03732460 -0.02299486 -0.00283465
v -0.03880764 -0.02105186 0.00046965
v -0.03694292 -0.02282926 0.00075818
v -0.03807846 -0.02086035 0.00320848
v -0.03658748 -0.02297509 0.00404116
v -0.03660504 -0.02211107 0.00568156
v -0.03697194 -0.01964840 -0.01593190
v -0.03730477 -0.01828482 -0.01833992
v -0.03650113 -0.01982391 -0.01337755
v -0.03913597 -0.01763144 -0.00668057
v -0.03875024 -0.01827291 -0.00329233
v -0.03824046 -0.01840851 0.00020238
v -0.03742983 -0.01853077 0.00234632
v -0.03695299 -0.02015939 0.00452019
v -0.03880903 -0.01491557 -0.01708964
v -0.03669517 -0.01429117 -0.01839460
v -0.03855760 -0.01450753 -0.01449551
v -0.03743113 -0.01479968 -0.01191680
v -0.03728483 -0.01569767 -0.00963414
v -0.03724005 -0.01625164 -0.00612768
v -0.03646738 -0.01624732 -0.00218351
v -0.03624670 -0.01686321 0.00098617
v -0.03650646 -0.01289058 -0.01597696
v -0.03610175 -0.01346120 -0.01274557
v -0.03534265 -0.02163071 -0.00962536
v -0.03507422 -0.02166033 -0.00725135
v -0.03515417 -0.02162798 -0.00371975
v -0.03495675 -0.02163289 -0.00043739
v -0.03385256 -0.02191770 0.00210189
v -0.03377840 -0.02293367 0.00440779
v -0.03529270 -0.02063444 0.00753001
v -0.03431068 -0.02283898 0.00687923
v -0.03305401 -0.02153282 0.00860601
v -0.03526450 -0.01763473 -0.01701917
v -0.03501467 -0.01808613 -0.01440812
v -0.03425876 -0.01864428 -0.01181115
v -0.03371928 -0.01979978 -0.00914632
v -0.03343290 -0.01979972 -0.00556272
v -0.03297282 -0.01977378 -0.00205522
v -0.03257571 -0.02043241 0.00116779
v -0.03584430 -0.01826872 0.00409753
v -0.03500491 -0.01808202 0.00688703
v -0.03303662 -0.01994082 0.01057638
v -0.03475640 -0.01831957 0.00983000
v -0.03342856 -0.01837646 0.01229280
v -0.03298230 -0.01621120 -0.01593672
v -0.03392540 -0.01477198 -0.01837677
v -0.03261727 -0.01693462 -0.01272180
v -0.03564998 -0.01439946 -0.01011046
v -0.03520901 -0.01461867 -0.00723994
v -0.03501992 -0.01461606 -0.00403702
v -0.03398300 -0.01481370 -0.00157491
v -0.03388146 -0.01565969 0.00060416
v -0.03393680 -0.01634024 0.00418044
v -0.03317379 -0.01636308 0.00819185
v -0.03303235 -0.01695062 0.01142596
v -0.03503875 -0.01142930 -0.01735691
v -0.03336473 -0.01139454 -0.01827743
v -0.03400791 -0.01123118 -0.01548624
v -0.03385699 -0.01221852 -0.01313717
v -0.03379172 -0.01295302 -0.00947208
v -0.03297148 -0.01294019 -0.00554503
v -0.03266047 -0.01354165 -0.00236870
v -0.03266083 -0.01007729 -0.01616108
v -0.03207067 -0.02142963 0.00382271
v -0.03184947 -0.02177065 0.00657180
v -0.03217304 -0.01776733 -0.01010520
v -0.03173562 -0.01799095 -0.00722428
v -0.03158287 -0.01803586 -0.00401028
v -0.03056401 -0.01826909 -0.00156099
v -0.03041277 -0.01914877 0.00069487
v -0.03029316 -0.01983129 0.00430456
v -0.03002011 -0.01993735 0.00837260
v -0.02962433 -0.01997708 0.01138360
v -0.03191763 -0.01810481 0.01449215
v -0.03046022 -0.01961853 0.01415955
v -0.03108474 -0.01793987 0.01708194
v -0.02985233 -0.01942000 0.01763140
v -0.02980517 -0.01851461 0.01937701
v -0.03157586 -0.01423081 -0.01734597
v -0.03055199 -0.01497940 -0.01546948
v -0.03042525 -0.01579369 -0.01312219
v -0.03034639 -0.01630247 -0.00952066
v -0.02953528 -0.01630019 -0.00556453
v -0.02921146 -0.01694935 -0.00235260
v -0.03217372 -0.01439637 0.00019867
v -0.03174363 -0.01463369 0.00312765
v -0.03160544 -0.01464324 0.00640178
v -0.02970490 -0.01428623 0.00905748
v -0.03053636 -0.01573827 0.01089874
v -0.03062399 -0.01635225 0.01455787
v -0.03008934 -0.01689925 0.01808454
v -0.02902636 -0.01323187 -0.01646781
v -0.03010505 -0.01115128 -0.01829679
v -0.03216581 -0.01083314 -0.01363884
v -0.03172902 -0.01117988 -0.01060804
v -0.03156641 -0.01122619 -0.00731279
v -0.02968746 -0.01085655 -0.00468006
v -0.03039409 -0.01235352 -0.00280263
v -0.03032625 -0.01294787 0.00084489
v -0.03006881 -0.01289499 0.00483866
v -0.02961614 -0.01285851 0.00741676
v -0.03044333 -0.00929295 -0.01660501
v -0.03032658 -0.00936797 -0.01295256
v -0.03007052 -0.00943963 -0.00891354
v -0.02962038 -0.00942405 -0.00633175
v -0.02878236 -0.01783233 0.00019579
v -0.02830658 -0.01805347 0.00307782
v -0.02808850 -0.01809532 0.00632114
v -0.02703640 -0.01833206 0.00879212
v -0.02694413 -0.01928833 0.01102620
v -0.02700221 -0.01957568 0.01426557
v -0.02644226 -0.01970095 0.01803074
v -0.02838734 -0.01715829 0.02076657
v -0.02682410 -0.01961224 0.02106814
v -0.02624807 -0.01834657 0.02312904
v -0.02881651 -0.01451654 -0.01363707
v -0.02834269 -0.01464044 -0.01066425
v -0.02811653 -0.01462262 -0.00741846
v -0.02709801 -0.01483633 -0.00497102
v -0.02696804 -0.01572483 -0.00273047
v -0.02691873 -0.01639210 0.00084142
v -0.02608418 -0.01636964 0.00476093
v -0.02577398 -0.01697259 0.00793912
v -0.02850506 -0.01466697 0.01095453
v -0.02831542 -0.01464436 0.01332873
v -0.02850150 -0.01492550 0.01736278
v -0.02781556 -0.01455950 0.02039038
v -0.02684180 -0.01569659 0.02276071
v -0.02663707 -0.01238366 -0.01625893
v -0.02681841 -0.01092894 -0.01826978
v -0.02698842 -0.01301867 -0.01300548
v -0.02609552 -0.01289304 -0.00897044
v -0.02573767 -0.01351233 -0.00577274
v -0.02851318 -0.01124950 -0.00277032
v -0.02824978 -0.01124387 -0.00039351
v -0.02833944 -0.01116413 0.00316134
v -0.02815732 -0.01112187 0.00640379
v -0.02738191 -0.01173254 0.00885402
v -0.02684220 -0.01290029 0.01143559
v -0.02660797 -0.01286855 0.01498912
v -0.02621022 -0.01280825 0.01851181
v -0.02598675 -0.01345291 0.02176386
v -0.02832882 -0.00810696 -0.01707583
v -0.02628453 -0.00754854 -0.01837521
v -0.02833204 -0.00761874 -0.01424013
v -0.02836772 -0.00765961 -0.01060319
v -0.02815697 -0.00768753 -0.00734397
v -0.02738618 -0.00829746 -0.00489497
v -0.02685089 -0.00947978 -0.00229189
v -0.02657663 -0.00945359 0.00126604
v -0.02611929 -0.00939975 0.00477506
v -0.02575372 -0.01000538 0.00797274
v -0.02664253 -0.00612427 -0.01595589
v -0.02668693 -0.00591605 -0.01254663
v -0.02612677 -0.00595744 -0.00897641
v -0.02575072 -0.00656957 -0.00577368
v -0.02528823 -0.01787930 0.01053152
v -0.02485190 -0.01815535 0.01344064
v -0.02463467 -0.01822467 0.01670649
v -0.02351978 -0.01847110 0.01926747
v -0.02341019 -0.01948081 0.02154840
v -0.02490026 -0.01724825 0.02527564
v -0.02389104 -0.01935279 0.02402836
v -0.02270423 -0.01812056 0.02577481
v -0.02529968 -0.01439901 -0.00323367
v -0.02485899 -0.01464927 -0.00028334
v -0.02469344 -0.01465849 0.00299229
v -0.02281318 -0.01429175 0.00563063
v -0.02354821 -0.01578672 0.00751401
v -0.02350983 -0.01640642 0.01111890
v -0.02265102 -0.01639653 0.01510618
v -0.02229367 -0.01700716 0.01831988
v -0.02543066 -0.01465620 0.02442835
v -0.02265136 -0.01657957 0.02777452
v -0.02439708 -0.01490476 0.02708634
v -0.02244460 -0.01443547 0.02978171
v -0.02493216 -0.01092742 -0.01708616
v -0.02498284 -0.01133923 -0.01427762
v -0.02476257 -0.01124081 -0.01092394
v -0.02366536 -0.01139610 -0.00840510
v -0.02349746 -0.01228348 -0.00617028
v -0.02342298 -0.01293893 -0.00255225
v -0.02319658 -0.01289643 0.00140128
v -0.02274697 -0.01285755 0.00397535
v -0.02529580 -0.01089451 0.01051549
v -0.02487611 -0.01113043 0.01337012
v -0.02473918 -0.01116157 0.01656902
v -0.02369847 -0.01138522 0.01903507
v -0.02360951 -0.01223353 0.02131635
v -0.02369648 -0.01289955 0.02496584
v -0.02294354 -0.01292832 0.02809937
v -0.02321461 -0.00946207 -0.01598228
v -0.02351487 -0.00805397 -0.01838246
v -0.02270902 -0.00955497 -0.01252993
v -0.02236229 -0.01010431 -0.00925933
v -0.02529561 -0.00745605 -0.00323092
v -0.02485753 -0.00768737 -0.00035488
v -0.02470622 -0.00772905 0.00285986
v -0.02368331 -0.00796325 0.00531056
v -0.02352984 -0.00883699 0.00756579
v -0.02347417 -0.00946517 0.01111590
v -0.02267676 -0.00948451 0.01503947
v -0.02236023 -0.01010536 0.01823081
v -0.02497195 -0.00466685 -0.01707533
v -0.02286027 -0.00407330 -0.01838363
v -0.02505058 -0.00419529 -0.01427046
v -0.02478391 -0.00426285 -0.01095096
v -0.02368546 -0.00452805 -0.00843206
v -0.02353984 -0.00539633 -0.00617976
v -0.02347137 -0.00598502 -0.00264351
v -0.02265995 -0.00599309 0.00130929
v -0.02231312 -0.00664096 0.00452128
v -0.02333604 -0.00269170 -0.01600543
v -0.02274766 -0.00253092 -0.01255884
v -0.02238905 -0.00322325 -0.00927237
v -0.02171747 -0.01796816 0.02099683
v -0.02148164 -0.01832513 0.02373958
v -0.02165237 -0.01468620 0.00755396
v -0.02142475 -0.01469088 0.00995341
v -0.02126453 -0.01465180 0.01326705
v -0.01938328 -0.01428841 0.01594334
v -0.02006940 -0.01578000 0.01782084
v -0.01995525 -0.01641772 0.02147796
v -0.02022871 -0.01652061 0.02553868
v -0.01911854 -0.01618902 0.02868555
v -0.02131756 -0.01511895 0.03228488
v -0.02004267 -0.01633353 0.03140841
v -0.02074536 -0.01456290 0.03443771
v -0.01992798 -0.01595311 0.03441237
v -0.01874114 -0.01453340 0.03629894
v -0.02185486 -0.01095790 -0.00668052
v -0.02137371 -0.01119843 -0.00375662
v -0.02146039 -0.01116851 -0.00023785
v -0.02128341 -0.01112258 0.00296433
v -0.02051200 -0.01173333 0.00541435
v -0.01998628 -0.01291629 0.00805380
v -0.01971420 -0.01288765 0.01165882
v -0.01930990 -0.01285578 0.01427618
v -0.02186173 -0.01096296 0.02081823
v -0.02143529 -0.01118896 0.02381914
v -0.02133876 -0.01116622 0.02716425
v -0.01986042 -0.01107081 0.02988083
v -0.02034061 -0.01288068 0.03230494
v -0.01941727 -0.01284833 0.03526627
v -0.02148987 -0.00742970 -0.01702529
v -0.02129548 -0.00785303 -0.01440670
v -0.01939136 -0.00744882 -0.01161175
v -0.02009088 -0.00891817 -0.00969081
v -0.02000672 -0.00950722 -0.00606527
v -0.01975016 -0.00945851 -0.00211518
v -0.01924902 -0.00939985 0.00135337
v -0.01888101 -0.01000380 0.00453546
v -0.02186271 -0.00752991 0.00707616
v -0.02141884 -0.00777497 0.01002757
v -0.02125384 -0.00778643 0.01330081
v -0.01939212 -0.00742335 0.01594211
v -0.02010189 -0.00892224 0.01780896
v -0.02003490 -0.00950647 0.02145618
v -0.01975683 -0.00940944 0.02551635
v -0.01931617 -0.00929869 0.02821554
v -0.01978616 -0.00590378 -0.01593332
v -0.02009798 -0.00453787 -0.01834835
v -0.01931808 -0.00607631 -0.01337661
v -0.02190676 -0.00409144 -0.00667396
v -0.02147776 -0.00430850 -0.00379732
v -0.02130713 -0.00431513 -0.00056486
v -0.02027867 -0.00449473 0.00189405
v -0.02009903 -0.00537446 0.00413368
v -0.02001189 -0.00602642 0.00775843
v -0.01976727 -0.00598980 0.01171263
v -0.01930753 -0.00597237 0.01428807
v -0.02159806 -0.00120964 -0.01702709
v -0.01946498 -0.00056133 -0.01835877
v -0.02138744 -0.00077996 -0.01440952
v -0.01938924 -0.00051139 -0.01161172
v -0.02011456 -0.00203761 -0.00968554
v -0.02008675 -0.00265145 -0.00607787
v -0.01931218 -0.00260706 -0.00208670
v -0.01901363 -0.00317210 0.00107414
v -0.01989384 0.00086185 -0.01594007
v -0.01934439 0.00100586 -0.01337516
v -0.01820280 -0.01468096 0.01785306
v -0.01787587 -0.01467221 0.02022253
v -0.01794728 -0.01463800 0.02375012
v -0.01776664 -0.01472222 0.02698234
v -0.01657307 -0.01504609 0.02947591
v -0.01646612 -0.01604562 0.03182438
v -0.01715353 -0.01605090 0.03487619
v -0.01600397 -0.01399883 0.03646312
v -0.01842315 -0.01089271 0.00708382
v -0.01798052 -0.01111096 0.01001680
v -0.01781595 -0.01112700 0.01326314
v -0.01707985 -0.01173297 0.01572770
v -0.01650560 -0.01291698 0.01832065
v -0.01615557 -0.01291688 0.02186410
v -0.01620052 -0.01291319 0.02533709
v -0.01588450 -0.01345752 0.02823783
v -0.01835568 -0.01096995 0.03188617
v -0.01779939 -0.01091462 0.03416064
v -0.01696679 -0.01183065 0.03632812
v -0.01820129 -0.00780971 -0.00963760
v -0.01793748 -0.00780299 -0.00726445
v -0.01803621 -0.00773715 -0.00377218
v -0.01786965 -0.00772187 -0.00056715
v -0.01681438 -0.00796122 0.00187292
v -0.01667353 -0.00883187 0.00412585
v -0.01660107 -0.00941995 0.00766966
v -0.01577856 -0.00941668 0.01163269
v -0.01540737 -0.01002344 0.01481869
v -0.01825040 -0.00781973 0.01784876
v -0.01796704 -0.00778782 0.02023343
v -0.01804076 -0.00765745 0.02385169
v -0.01783151 -0.00749721 0.02723909
v -0.01684229 -0.00806183 0.02957920
v -0.01610562 -0.00963031 0.03150598
v -0.01578875 -0.01013974 0.03452591
v -0.01807674 -0.00388664 -0.01702212
v -0.01782770 -0.00433955 -0.01440892
v -0.01707244 -0.00489798 -0.01181166
v -0.01653890 -0.00603906 -0.00915888
v -0.01626795 -0.00601487 -0.00561093
v -0.01581346 -0.00600912 -0.00217681
v -0.01541814 -0.00665921 0.00099302
v -0.01851239 -0.00399992 0.00361475
v -0.01799794 -0.00421478 0.00653559
v -0.01808946 -0.00420248 0.01004613
v -0.01790845 -0.00417909 0.01327179
v -0.01711552 -0.00480564 0.01575689
v -0.01656406 -0.00598442 0.01839552
v -0.01571883 -0.00585544 0.02216043
v -0.01578915 -0.00616120 0.02564075
v -0.01541504 -0.00642811 0.02834261
v -0.01579578 -0.00246150 -0.01593743
v -0.01670525 -0.00103198 -0.01839068
v -0.01543014 -0.00318594 -0.01272181
v -0.01820914 -0.00094418 -0.00962673
v -0.01798163 -0.00094737 -0.00723029
v -0.01786947 -0.00090199 -0.00390520
v -0.01608673 -0.00053578 -0.00115378
v -0.01620698 -0.00209771 0.00090955
v -0.01627482 -0.00290427 0.00431153
v -0.01591141 -0.00288962 0.00822086
v -0.01596088 -0.00280746 0.01166943
v -0.01551817 -0.00301176 0.01492948
v -0.01812983 0.00235747 -0.01706351
v -0.01616413 0.00232537 -0.01827650
v -0.01788825 0.00279658 -0.01442689
v -0.01706482 0.00208167 -0.01180543
v -0.01654229 0.00082908 -0.00912787
v -0.01627498 0.00085676 -0.00552856
v -0.01593062 0.00089146 -0.00285958
v -0.01591285 0.00392551 -0.01596896
v -0.01544647 0.00385910 -0.01273302
v -0.01473972 -0.01364807 0.03142894
v -0.01486350 -0.01480630 0.03454022
v -0.01492656 -0.01090686 0.01735339
v -0.01439018 -0.01117976 0.02020738
v -0.01439149 -0.01120783 0.02370587
v -0.01429135 -0.01094551 0.02823721
v -0.01469359 -0.01094535 0.03219848
v -0.01480865 -0.01208626 0.03492157
v -0.01498911 -0.00753595 0.00358149
v -0.01452076 -0.00775637 0.00645266
v -0.01436128 -0.00777246 0.00972676
v -0.01336543 -0.00799347 0.01217813
v -0.01316252 -0.00885161 0.01439760
v -0.01297446 -0.00945487 0.01795279
v -0.01257707 -0.00946562 0.02191756
v -0.01247115 -0.00942392 0.02548431
v -0.01243381 -0.00904496 0.02790100
v -0.01358864 -0.00784220 0.02929353
v -0.01498373 -0.00402093 -0.01010564
v -0.01454886 -0.00424480 -0.00722381
v -0.01440423 -0.00432590 -0.00402275
v -0.01333883 -0.00460197 -0.00157578
v -0.01313698 -0.00547687 0.00064587
v -0.01300663 -0.00608660 0.00419664
v -0.01215386 -0.00608765 0.00807963
v -0.01192687 -0.00672816 0.01132294
v -0.01504010 -0.00387951 0.01751256
v -0.01428349 -0.00406947 0.02030698
v -0.01320822 -0.00431982 0.02239575
v -0.01310196 -0.00556940 0.02425985
v -0.01296686 -0.00634197 0.02729421
v -0.01438684 -0.00048182 -0.01734783
v -0.01336700 -0.00122806 -0.01546891
v -0.01324007 -0.00204312 -0.01312245
v -0.01316240 -0.00255262 -0.00951968
v -0.01234610 -0.00257548 -0.00552288
v -0.01198012 -0.00328756 -0.00229767
v -0.01466866 -0.00092192 0.00058078
v -0.01258398 -0.00074106 0.00202709
v -0.01272140 -0.00265509 0.00335295
v -0.01313927 -0.00296480 0.00656462
v -0.01265219 -0.00207354 0.01032701
v -0.01265703 -0.00196752 0.01461533
v -0.01314419 -0.00274008 0.01790343
v -0.01183811 -0.00318122 0.02065444
v -0.01184081 0.00051592 -0.01646896
v -0.01289676 0.00257722 -0.01830370
v -0.01497842 0.00288833 -0.01008949
v -0.01453954 0.00263657 -0.00716428
v -0.01441044 0.00261745 -0.00387289
v -0.01374278 0.00203101 -0.00131468
v -0.01287683 0.00085709 0.00069319
v -0.01328170 0.00444184 -0.01663973
v -0.01324344 0.00483582 -0.01337326
v -0.01318727 0.00437547 -0.00950860
v -0.01236317 0.00433971 -0.00549355
v -0.01203550 0.00378697 -0.00216538
v -0.01148744 -0.00756934 0.01391051
v -0.01085369 -0.00742243 0.01735927
v -0.01130163 -0.00773133 0.02072551
v -0.01147965 -0.00726363 0.02441996
v -0.01168515 -0.00781925 0.02751330
v -0.01130623 -0.00373237 0.00091638
v -0.01173294 -0.00436244 0.00389496
v -0.01126697 -0.00397085 0.00721333
v -0.00959845 -0.00430838 0.00880111
v -0.00948621 -0.00549171 0.01084531
v -0.00940097 -0.00611653 0.01458927
v -0.00924899 -0.00551142 0.01816798
v -0.01098736 -0.00523639 0.02138486
v -0.00951194 -0.00389744 0.01953008
v -0.01163283 -0.00076906 -0.01363809
v -0.01117961 -0.00090697 -0.01067530
v -0.01095817 -0.00088716 -0.00742881
v -0.00990187 -0.00109715 -0.00492004
v -0.00971516 -0.00204110 -0.00263945
v -0.00968092 -0.00248444 -0.00005525
v -0.00912492 -0.00077947 0.00210725
v -0.00950179 -0.00169672 0.00956376
v -0.01072577 -0.00055929 0.01102677
v -0.01082515 -0.00045876 0.01327193
v -0.00965747 -0.00079485 0.01546280
v -0.00983862 -0.00235381 0.01767341
v -0.00943358 0.00136025 -0.01625709
v -0.00963051 0.00282089 -0.01827205
v -0.00980839 0.00068983 -0.01299729
v -0.00893637 0.00079243 -0.00900692
v -0.00856660 0.00019538 -0.00580413
v -0.01131854 0.00292505 0.00028185
v -0.00941484 0.00235199 0.00213810
v -0.00943855 0.00027831 0.01146646
v -0.00886191 0.00027997 0.01357917
v -0.01112489 0.00560395 -0.01706036
v -0.00909545 0.00620735 -0.01837597
v -0.01113817 0.00610240 -0.01424406
v -0.01119552 0.00606877 -0.01068567
v -0.01099562 0.00601867 -0.00742293
v -0.00996731 0.00581292 -0.00491507
v -0.00979057 0.00502205 -0.00255050
v -0.00930350 0.00448800 0.00044986
v -0.00944950 0.00760346 -0.01594446
v -0.00950473 0.00780304 -0.01252186
v -0.00898480 0.00778434 -0.00894801
v -0.00861339 0.00717825 -0.00572729
v -0.00785576 -0.00318215 0.01098919
v -0.00768239 -0.00433350 0.01370365
v -0.00804527 -0.00405168 0.01687529
v -0.00802830 -0.00068484 -0.00313030
v -0.00762818 -0.00097574 -0.00030414
v -0.00801418 -0.00052513 0.01145504
v -0.00773463 -0.00168915 0.01451191
v -0.00770132 0.00282076 -0.01708332
v -0.00775423 0.00238461 -0.01420806
v -0.00757487 0.00248824 -0.01081875
v -0.00559294 0.00282156 -0.00811879
v -0.00628402 0.00137276 -0.00624228
v -0.00605656 0.00079089 -0.00247862
v -0.00607684 0.00084023 0.00091013
v -0.00606661 0.00290894 0.00216564
v -0.00594439 0.00430310 -0.01593626
v -0.00629936 0.00572611 -0.01840211
v -0.00602024 0.00421983 -0.01246161
v -0.00551939 0.00429165 -0.00975345
v -0.00819170 0.00636158 -0.00307108
v -0.00737598 0.00625323 -0.00017118
v -0.00654614 0.00543434 0.00195685
v -0.00778134 0.00909710 -0.01707737
v -0.00568739 0.00975860 -0.01841079
v -0.00786154 0.00958015 -0.01422669
v -0.00766078 0.00955743 -0.01083689
v -0.00657019 0.00934683 -0.00827504
v -0.00573134 0.00841839 -0.00587076
v -0.00622263 0.00750403 -0.00268461
v -0.00488936 0.00715334 0.00017090
v -0.00615449 0.01118908 -0.01596435
v -0.00558889 0.01141279 -0.01236609
v -0.00518080 0.01075463 -0.00907575
v -0.00437886 0.00242468 -0.00619179
v -0.00394961 0.00285861 -0.00319870
v -0.00460845 0.00263822 0.00011341
v -0.00419935 0.00634227 -0.01710832
v -0.00422206 0.00593327 -0.01423103
v -0.00399772 0.00601853 -0.01081495
v -0.00314738 0.00541306 -0.00825774
v -0.00253015 0.00420798 -0.00564943
v -0.00233508 0.00479206 -0.00243081
v -0.00406603 0.00513683 0.00042949
v -0.00260019 0.00641743 -0.00107489
v -0.00249643 0.00785877 -0.01605047
v -0.00288161 0.00928665 -0.01845959
v -0.00241442 0.00773528 -0.01253354
v -0.00204097 0.00734133 -0.00954226
v -0.00440562 0.00991577 -0.00672042
v -0.00270428 0.00943798 -0.00516264
v -0.00288103 0.00791671 -0.00297070
v -0.00443312 0.01274036 -0.01709293
v -0.00243156 0.01277179 -0.01834204
v -0.00425113 0.01322802 -0.01437376
v -0.00292312 0.01292837 -0.01195291
v -0.00252366 0.01137234 -0.01038959
v -0.00247568 0.01056988 -0.00718167
v -0.00228630 0.01441135 -0.01598640
v -0.00197083 0.01421022 -0.01327866
v -0.00098392 0.00688472 -0.00686987
v -0.00113169 0.00630015 -0.00372779
v -0.00086320 0.00990254 -0.01718620
v -0.00081802 0.00992156 -0.01356137
v -0.00122177 0.00926213 -0.00938182
v -0.00095933 0.00879275 -0.00556303
v 0.00144840 0.01112417 -0.01643401
v 0.00062832 0.01250971 -0.01831996
v 0.00149850 0.01108681 -0.01310610
v 0.00018234 0.01258499 -0.01164789
v 0.00079406 0.01457106 -0.01671352
v 0.00094095 0.01457884 -0.01317127
v 0.00486042 0.01149666 -0.01676451
v 0.00416323 0.01296724 -0.01817647
v 0.00413849 0.01102367 -0.01343211
v 0.00272827 0.01325584 -0.01024872
v 0.00403643 0.01163668 -0.01010425
v 0.00467127 0.01263592 -0.00825194
v 0.00426936 0.01444563 -0.01678274
v 0.00425420 0.01490050 -0.01352902
v 0.00450614 0.01422903 -0.00967383
v 0.00827934 0.01146872 -0.01677531
v 0.00754423 0.01291942 -0.01820040
v 0.00753063 0.01101854 -0.01349367
v 0.00765846 0.01104091 -0.00982577
v 0.00598536 0.01286134 -0.00610560
v 0.00751804 0.01136903 -0.00640437
v 0.00666420 0.01312909 -0.00355884
v 0.00796055 0.01163139 -0.00292599
v 0.00791803 0.01261071 -0.00118585
v 0.00770678 0.01434801 -0.01676474
v 0.00777116 0.01479287 -0.01352181
v 0.00767326 0.01475724 -0.00993694
v 0.00748930 0.01439218 -0.00603827
v 0.00822165 0.01412410 -0.00212901
v 0.01170182 0.01141363 -0.01675941
v 0.01095547 0.01284038 -0.01819142
v 0.01096819 0.01103685 -0.01349557
v 0.01114317 0.01107754 -0.00986622
v 0.01130556 0.01101549 -0.00628920
v 0.01126740 0.01095093 -0.00264992
v 0.00947721 0.01314616 0.00044714
v 0.01049045 0.01163309 0.00012546
v 0.01190791 0.01263636 0.00177702
v 0.01112334 0.01429004 -0.01676862
v 0.01123116 0.01472427 -0.01349390
v 0.01121953 0.01468213 -0.00990849
v 0.01111980 0.01474256 -0.00641572
v 0.01100704 0.01481570 -0.00278827
v 0.01127046 0.01414359 0.00051058
v 0.01514054 0.01136427 -0.01674683
v 0.01437695 0.01278466 -0.01814861
v 0.01440026 0.01101965 -0.01349241
v 0.01456566 0.01111895 -0.00988316
v 0.01475894 0.01110366 -0.00635846
v 0.01486172 0.01099355 -0.00271865
v 0.01398800 0.01141603 0.00056852
v 0.01476230 0.01289524 0.00192662
v 0.01453495 0.01420965 -0.01675219
v 0.01465011 0.01468110 -0.01350819
v 0.01466711 0.01464373 -0.00988161
v 0.01465780 0.01465695 -0.00637927
v 0.01461908 0.01477290 -0.00283459
v 0.01463747 0.01436572 0.00042824
v 0.01860085 0.01132260 -0.01668770
v 0.01798246 0.01333893 -0.01827160
v 0.01784385 0.01096780 -0.01350132
v 0.01799773 0.01111655 -0.00988441
v 0.01814846 0.01113561 -0.00638745
v 0.01827243 0.01105952 -0.00282565
v 0.01749980 0.01147663 0.00046074
v 0.01823483 0.01290832 0.00177064
v 0.01811667 0.01462108 -0.01655658
v 0.01807499 0.01460242 -0.01345714
v 0.01807757 0.01459152 -0.00990223
v 0.01808791 0.01462753 -0.00639472
v 0.01808974 0.01470153 -0.00289724
v 0.01813214 0.01430704 0.00029581
v 0.01996216 0.00921741 0.01129073
v 0.02212775 0.00799236 0.01099858
v 0.02101552 0.01003956 0.00951129
v 0.02006702 0.01015374 0.01335026
v 0.02143808 0.00800986 0.01386661
v 0.02216702 0.00965363 0.01595921
v 0.02189068 0.01154321 -0.01616369
v 0.02103743 0.01320375 -0.01828176
v 0.02133153 0.01095357 -0.01343940
v 0.02142515 0.01108931 -0.00989329
v 0.02154774 0.01115627 -0.00639783
v 0.02163224 0.01108797 -0.00290955
v 0.02132685 0.01143083 0.00066930
v 0.02137294 0.01291298 0.00216446
v 0.02007209 0.01189510 0.01078579
v 0.02194285 0.01259330 0.00877641
v 0.02080988 0.01256542 0.01273400
v 0.02164330 0.01149051 0.01453918
v 0.01988453 0.01598662 -0.01735424
v 0.02151265 0.01610110 -0.01828505
v 0.02094007 0.01625742 -0.01540838
v 0.02168487 0.01513744 -0.01299992
v 0.02152014 0.01452083 -0.00988539
v 0.02150319 0.01457015 -0.00641693
v 0.02151671 0.01467346 -0.00297453
v 0.02166957 0.01435973 0.00068446
v 0.02225195 0.01420632 0.01103338
v 0.02225222 0.01754229 -0.01613940
v 0.02544497 0.00805867 0.01147413
v 0.02366359 0.00986542 0.00903560
v 0.02470503 0.00736589 0.01409335
v 0.02328615 0.00906834 0.01839665
v 0.02442798 0.00778856 0.01751223
v 0.02373370 0.00963515 0.02037973
v 0.02500475 0.00816909 0.02101912
v 0.02501678 0.00917558 0.02268818
v 0.02326824 0.01326890 -0.01728184
v 0.02451831 0.01248748 -0.01565642
v 0.02515075 0.01132626 -0.01338599
v 0.02486744 0.01106817 -0.00989718
v 0.02496055 0.01115726 -0.00639893
v 0.02500266 0.01113233 -0.00295814
v 0.02502937 0.01108566 0.00051809
v 0.02340684 0.01294427 0.00410399
v 0.02480458 0.01149350 0.00382235
v 0.02364277 0.01276118 0.00675296
v 0.02542624 0.01115566 0.00749843
v 0.02273252 0.01337473 0.01379900
v 0.02415993 0.01238275 0.01558408
v 0.02495849 0.01102192 0.01806461
v 0.02533034 0.01063423 0.02175377
v 0.02581361 0.01440428 -0.01702626
v 0.02458726 0.01596472 -0.01818527
v 0.02298920 0.01675796 -0.01379128
v 0.02474123 0.01612439 -0.01204717
v 0.02531835 0.01482885 -0.00983684
v 0.02491923 0.01449202 -0.00645094
v 0.02494799 0.01461681 -0.00298688
v 0.02494020 0.01469021 0.00041751
v 0.02484911 0.01439085 0.00413004
v 0.02456346 0.01451803 0.00801975
v 0.02532457 0.01495515 0.01117822
v 0.02508991 0.01430310 0.01377985
v 0.02490361 0.01798608 -0.01660058
v 0.02517270 0.01768971 -0.01374127
v 0.02639380 0.00956220 0.01027756
v 0.02816688 0.00908069 0.01198808
v 0.02870063 0.00786908 0.01417989
v 0.02832186 0.00746268 0.01765647
v 0.02837569 0.00749105 0.02131146
v 0.02658134 0.00967797 0.02433582
v 0.02808690 0.00808625 0.02452980
v 0.02872983 0.00919276 0.02649769
v 0.02909257 0.01139621 -0.01298045
v 0.02741154 0.01275352 -0.01518392
v 0.02832018 0.01103549 -0.00992918
v 0.02836513 0.01113364 -0.00641274
v 0.02841185 0.01116538 -0.00296175
v 0.02842522 0.01112928 0.00047597
v 0.02839811 0.01114902 0.00391970
v 0.02843078 0.01120668 0.00742010
v 0.02864030 0.01055002 0.01043957
v 0.02753893 0.01298327 0.01587321
v 0.02916387 0.01157326 0.01798878
v 0.02814856 0.01126486 0.02112152
v 0.02850691 0.01077543 0.02505715
v 0.02903577 0.01463448 -0.01705190
v 0.02826473 0.01650501 -0.01806472
v 0.02742398 0.01636823 -0.01133105
v 0.02902078 0.01511882 -0.00901582
v 0.02836297 0.01445966 -0.00644651
v 0.02834873 0.01453789 -0.00299051
v 0.02840376 0.01463042 0.00044686
v 0.02838426 0.01467310 0.00381790
v 0.02830056 0.01474421 0.00720557
v 0.02833500 0.01483664 0.01068028
v 0.02842016 0.01441033 0.01375973
v 0.02830893 0.01796952 -0.01665177
v 0.02861252 0.01798543 -0.01318532
v 0.03248314 0.00820494 0.01502381
v 0.03083886 0.00943785 0.01274552
v 0.03196180 0.00749345 0.01764369
v 0.03205285 0.00747508 0.02128200
v 0.03155496 0.00750025 0.02444786
v 0.03032458 0.00972066 0.02814322
v 0.03159177 0.00830424 0.02755698
v 0.03192088 0.00945132 0.02923530
v 0.03239544 0.01162303 -0.01257176
v 0.03067138 0.01278703 -0.01497269
v 0.03177364 0.01100232 -0.00994475
v 0.03175447 0.01109064 -0.00645166
v 0.03184121 0.01116687 -0.00296335
v 0.03184279 0.01116379 0.00046871
v 0.03183643 0.01116617 0.00390637
v 0.03184663 0.01124664 0.00741185
v 0.03206407 0.01091882 0.01107511
v 0.03089448 0.01292208 0.01611316
v 0.03255128 0.01170999 0.01850399
v 0.03186202 0.01118036 0.02117225
v 0.03124105 0.01129395 0.02429787
v 0.03224729 0.01057576 0.02755086
v 0.03252071 0.01462110 -0.01654339
v 0.03166704 0.01645940 -0.01811298
v 0.02994838 0.01662891 -0.01025660
v 0.03165482 0.01605372 -0.00855862
v 0.03215768 0.01482251 -0.00644411
v 0.03175076 0.01450200 -0.00302193
v 0.03182789 0.01458550 0.00046829
v 0.03185015 0.01460490 0.00389317
v 0.03185423 0.01463584 0.00730632
v 0.03186254 0.01472661 0.01080085
v 0.03209027 0.01438511 0.01446446
v 0.03173955 0.01790235 -0.01670302
v 0.03192273 0.01833988 -0.01339772
v 0.03215689 0.01758299 -0.01019504
v 0.03335051 0.00969738 0.01381584
v 0.03516155 0.00909746 0.01548295
v 0.03586655 0.00781637 0.01768503
v 0.03507298 0.00745551 0.02071317
v 0.03503217 0.00801843 0.02482233
v 0.03353688 0.00918594 0.02820146
v 0.03514388 0.00967965 0.02659491
v 0.03321008 0.01304351 -0.01389780
v 0.03498709 0.01254822 -0.01211082
v 0.03557562 0.01136341 -0.00989599
v 0.03518117 0.01104604 -0.00649361
v 0.03526060 0.01115436 -0.00296892
v 0.03527918 0.01116862 0.00047322
v 0.03529027 0.01116159 0.00391965
v 0.03533658 0.01120597 0.00742520
v 0.03539878 0.01124698 0.01094356
v 0.03560474 0.01058653 0.01392895
v 0.03342159 0.01313622 0.01727723
v 0.03518679 0.01269365 0.01908376
v 0.03548121 0.01159355 0.02093726
v 0.03541201 0.01074880 0.02430175
v 0.03585191 0.01504279 -0.01668594
v 0.03504971 0.01641670 -0.01814614
v 0.03535071 0.01397045 -0.01381712
v 0.03450778 0.01630044 -0.00810899
v 0.03605371 0.01487601 -0.00607099
v 0.03518748 0.01446729 -0.00306894
v 0.03522970 0.01456253 0.00045316
v 0.03529709 0.01459835 0.00392448
v 0.03533799 0.01460870 0.00741797
v 0.03532558 0.01469779 0.01095254
v 0.03540085 0.01479306 0.01448731
v 0.03565355 0.01416317 0.01751715
v 0.03517178 0.01781147 -0.01675602
v 0.03533121 0.01829164 -0.01344294
v 0.03536942 0.01780166 -0.01020728
v 0.03916485 0.00824447 0.01842692
v 0.03873557 0.00979395 0.01620883
v 0.03815260 0.00800403 0.02143436
v 0.03723684 0.00911473 0.02447677
v 0.03877017 0.00959716 0.02285605
v 0.03933671 0.01168275 -0.00905384
v 0.03764646 0.01283907 -0.01135290
v 0.03866941 0.01102417 -0.00647681
v 0.03866870 0.01110589 -0.00297835
v 0.03874189 0.01115577 0.00051158
v 0.03878931 0.01112397 0.00396203
v 0.03888039 0.01110512 0.00743035
v 0.03894801 0.01117016 0.01094000
v 0.03847236 0.01096552 0.01367729
v 0.03799310 0.01301291 0.01951184
v 0.03875804 0.01120281 0.02140766
v 0.03920935 0.01501558 -0.01673410
v 0.03844953 0.01637703 -0.01819123
v 0.03873500 0.01429019 -0.01321744
v 0.03775529 0.01632932 -0.00790386
v 0.03933504 0.01509158 -0.00567438
v 0.03865164 0.01443513 -0.00306648
v 0.03864139 0.01453638 0.00047139
v 0.03876564 0.01463913 0.00401515
v 0.03882663 0.01467161 0.00750610
v 0.03887069 0.01470501 0.01104731
v 0.03840055 0.01479498 0.01407639
v 0.03917640 0.01431377 0.01701361
v 0.03860986 0.01776182 -0.01677648
v 0.03872485 0.01825439 -0.01346912
v 0.03897629 0.01784891 -0.00966076
v 0.04032774 0.00959554 0.01804222
v 0.04017501 0.00950261 0.02023330
v 0.04021785 0.01314080 -0.01029471
v 0.04196240 0.01260228 -0.00862003
v 0.04248238 0.01136898 -0.00643237
v 0.04213943 0.01103147 -0.00298596
v 0.04223641 0.01110021 0.00055902
v 0.04233796 0.01107880 0.00401639
v 0.04245366 0.01105575 0.00749864
v 0.04202193 0.01108475 0.01048820
v 0.04196712 0.01147618 0.01419053
v 0.04057547 0.01187489 0.01808597
v 0.04215318 0.01325721 0.01609490
v 0.04262268 0.01495365 -0.01677316
v 0.04189387 0.01632663 -0.01819750
v 0.04195247 0.01461964 -0.01343099
v 0.04233953 0.01403955 -0.01022809
v 0.04026736 0.01657289 -0.00688556
v 0.04194059 0.01602357 -0.00521006
v 0.04248528 0.01480464 -0.00297343
v 0.04210142 0.01452813 0.00052943
v 0.04223610 0.01467521 0.00411945
v 0.04234996 0.01472160 0.00762501
v 0.04191354 0.01473717 0.01063956
v 0.04238892 0.01431561 0.01403394
v 0.04205688 0.01773444 -0.01677390
v 0.04213575 0.01821875 -0.01350320
v 0.04220861 0.01822023 -0.00982117
v 0.04242800 0.01750895 -0.00675486
v 0.04623083 0.01163660 -0.00559675
v 0.04459590 0.01288347 -0.00787642
v 0.04569425 0.01093881 -0.00298273
v 0.04575803 0.01099936 0.00056602
v 0.04537920 0.01105320 0.00358638
v 0.04602428 0.01140521 0.00725057
v 0.04507325 0.01161987 0.01124665
v 0.04417643 0.01272810 0.01416594
v 0.04566881 0.01315277 0.01268541
v 0.04607352 0.01490645 -0.01677372
v 0.04533627 0.01631110 -0.01819839
v 0.04534415 0.01458516 -0.01343774
v 0.04574284 0.01433810 -0.00958882
v 0.04460625 0.01630845 -0.00443419
v 0.04628880 0.01515242 -0.00205107
v 0.04568720 0.01453111 0.00063708
v 0.04519849 0.01461966 0.00367822
v 0.04605001 0.01434945 0.00686173
v 0.04531614 0.01417882 0.01067482
v 0.04550074 0.01773022 -0.01677078
v 0.04560123 0.01817171 -0.01348704
v 0.04560555 0.01820689 -0.00978989
v 0.04582415 0.01783830 -0.00607737
v 0.04710343 0.01313245 -0.00680271
v 0.04891391 0.01253419 -0.00513735
v 0.04961210 0.01124929 -0.00293504
v 0.04879924 0.01089500 0.00005631
v 0.04882638 0.01148598 0.00402521
v 0.04757416 0.01288680 0.00793486
v 0.04897103 0.01311350 0.00578146
v 0.04688440 0.01262742 0.01044004
v 0.04952888 0.01488844 -0.01675472
v 0.04876981 0.01631249 -0.01819494
v 0.04883443 0.01451351 -0.01341412
v 0.04905488 0.01463429 -0.00971867
v 0.04935831 0.01402467 -0.00668755
v 0.04715983 0.01660558 -0.00329950
v 0.04894854 0.01614162 -0.00152568
v 0.04925603 0.01502762 0.00033826
v 0.04921480 0.01413859 0.00363476
v 0.04894875 0.01773721 -0.01675245
v 0.04908983 0.01817378 -0.01342270
v 0.04907457 0.01818577 -0.00971030
v 0.04913949 0.01823778 -0.00612918
v 0.04939599 0.01760962 -0.00310510
v 0.05291283 0.01168192 -0.00219397
v 0.05249035 0.01323389 -0.00441069
v 0.05188936 0.01144069 0.00078903
v 0.05097806 0.01252264 0.00377793
v 0.05251631 0.01302196 0.00222977
v 0.05303297 0.01485271 -0.01670359
v 0.05222347 0.01633586 -0.01813948
v 0.05237314 0.01441165 -0.01340815
v 0.05260413 0.01455816 -0.00971953
v 0.05222811 0.01440535 -0.00693624
v 0.05174268 0.01645105 -0.00111357
v 0.05250899 0.01463319 0.00078271
v 0.05241792 0.01778303 -0.01666151
v 0.05257606 0.01823578 -0.01333106
v 0.05262346 0.01819143 -0.00961403
v 0.05214918 0.01822912 -0.00654100
v 0.05292422 0.01774771 -0.00360948
v 0.05407686 0.01303334 -0.00257995
v 0.05392156 0.01294054 -0.00038685
v 0.05669935 0.01482075 -0.01670191
v 0.05578067 0.01637254 -0.01806956
v 0.05594819 0.01435183 -0.01336799
v 0.05565195 0.01446075 -0.01018256
v 0.05571925 0.01491558 -0.00642452
v 0.05432556 0.01531334 -0.00253639
v 0.05590641 0.01669535 -0.00452360
v 0.05595695 0.01785041 -0.01660123
v 0.05612291 0.01829327 -0.01323502
v 0.05566615 0.01823564 -0.01002655
v 0.05613944 0.01775284 -0.00657715
v 0.06010078 0.01490866 -0.01710151
v 0.05952420 0.01632215 -0.01804668
v 0.05964263 0.01472254 -0.01368011
v 0.05874244 0.01500547 -0.00942618
v 0.05792883 0.01616627 -0.00644657
v 0.05941575 0.01658736 -0.00792331
v 0.05905531 0.01776369 -0.01702616
v 0.05995584 0.01790654 -0.01414366
v 0.05909351 0.01765239 -0.01001595
v 0.06250155 0.01529786 -0.01610152
v 0.06252866 0.01600803 -0.01783806
v 0.06138644 0.01629569 -0.01294239
v 0.06293737 0.01663646 -0.01533089
v 0.06058861 0.01600878 -0.01025867
v 0.06228696 0.01734491 -0.01679770
v 0.06392063 0.01631209 -0.01698051
f 3 2 1
f 5 4 1
f 5 1 2
f 6 4 5
f 7 3 1
f 7 1 4
f 7 4 8
f 8 4 6
f 10 9 2
f 10 2 3
f 2 11 5
f 9 11 2
f 13 12 6
f 5 13 6
f 11 13 5
f 15 14 12
f 15 12 13
f 16 14 15
f 3 7 17
f 18 3 17
f 10 3 18
f 8 19 7
f 7 19 17
f 6 12 8
f 12 19 8
f 12 20 19
f 14 22 21
f 20 14 21
f 12 14 20
f 22 14 16
f 23 18 17
f 23 17 19
f 23 19 24
f 24 19 20
f 24 20 25
f 25 20 21
f 10 26 9
f 27 11 9
f 27 9 26
f 28 13 11
f 28 11 27
f 29 15 13
f 29 13 28
f 29 16 15
f 31 30 26
f 10 31 26
f 18 31 10
f 26 30 27
f 27 30 32
f 27 32 28
f 28 32 33
f 35 34 33
f 21 33 34
f 33 21 28
f 22 28 21
f 28 22 29
f 37 36 35
f 37 29 36
f 29 37 16
f 38 16 37
f 16 38 22
f 36 22 38
f 38 34 36
f 36 34 35
f 29 22 36
f 39 38 37
f 18 23 40
f 41 18 40
f 31 18 41
f 24 42 23
f 23 42 40
f 25 43 24
f 24 43 42
f 44 43 25
f 44 25 21
f 45 44 21
f 34 45 21
f 45 34 38
f 45 38 46
f 46 38 39
f 47 41 40
f 47 40 42
f 47 42 48
f 48 42 43
f 48 43 49
f 49 43 44
f 31 50 30
f 51 32 30
f 51 30 50
f 32 51 52
f 53 32 52
f 33 32 53
f 33 54 35
f 53 54 33
f 35 55 37
f 54 55 35
f 57 56 39
f 37 57 39
f 55 57 37
f 59 58 56
f 59 56 57
f 60 58 59
f 62 61 50
f 31 62 50
f 41 62 31
f 50 61 51
f 51 61 63
f 51 63 52
f 64 44 45
f 46 65 45
f 45 65 64
f 39 56 46
f 56 65 46
f 56 66 65
f 58 68 67
f 66 58 67
f 56 58 66
f 68 58 60
f 41 47 69
f 70 41 69
f 62 41 70
f 48 71 47
f 47 71 69
f 71 48 72
f 48 73 72
f 48 49 73
f 49 44 64
f 74 49 64
f 73 49 74
f 74 64 65
f 74 65 75
f 75 65 66
f 75 66 76
f 76 66 67
f 77 70 69
f 77 69 71
f 77 71 78
f 78 71 72
f 52 79 53
f 80 54 53
f 80 53 79
f 81 55 54
f 81 54 80
f 82 57 55
f 82 55 81
f 57 82 83
f 84 57 83
f 59 57 84
f 86 85 60
f 59 86 60
f 84 86 59
f 87 85 86
f 62 88 61
f 89 63 61
f 89 61 88
f 89 90 63
f 63 90 52
f 90 91 52
f 91 79 52
f 79 91 80
f 80 91 92
f 80 92 81
f 81 92 93
f 81 93 82
f 82 93 94
f 95 67 68
f 94 83 82
f 60 85 68
f 85 95 68
f 85 96 95
f 85 87 97
f 98 85 97
f 96 85 98
f 99 98 97
f 101 100 88
f 62 101 88
f 70 101 62
f 88 100 89
f 89 100 102
f 103 72 73
f 102 90 89
f 74 104 73
f 73 104 103
f 75 105 74
f 74 105 104
f 105 75 106
f 75 107 106
f 75 76 107
f 76 67 95
f 108 76 95
f 107 76 108
f 108 95 96
f 108 96 109
f 109 96 98
f 109 98 110
f 110 98 99
f 70 77 111
f 112 70 111
f 101 70 112
f 111 77 113
f 77 114 113
f 77 78 114
f 78 72 103
f 115 78 103
f 114 78 115
f 115 103 104
f 115 104 116
f 116 104 105
f 116 105 117
f 117 105 106
f 118 112 111
f 118 111 113
f 83 119 84
f 120 86 84
f 120 84 119
f 120 87 86
f 90 121 91
f 122 92 91
f 122 91 121
f 123 93 92
f 123 92 122
f 93 123 124
f 125 93 124
f 94 93 125
f 83 94 119
f 94 126 119
f 94 125 126
f 119 126 120
f 120 126 127
f 120 127 87
f 127 97 87
f 127 128 97
f 130 129 99
f 97 130 99
f 128 130 97
f 132 131 129
f 132 129 130
f 133 131 132
f 101 134 100
f 100 134 135
f 136 100 135
f 102 100 136
f 90 102 121
f 102 137 121
f 102 136 137
f 121 137 122
f 122 137 138
f 122 138 123
f 123 138 139
f 140 106 107
f 139 124 123
f 108 141 107
f 107 141 140
f 109 142 108
f 108 142 141
f 142 109 143
f 109 144 143
f 109 110 144
f 110 99 129
f 145 110 129
f 144 110 145
f 145 129 131
f 145 131 146
f 146 131 133
f 148 147 134
f 101 148 134
f 112 148 101
f 149 113 114
f 147 135 134
f 115 150 114
f 114 150 149
f 116 151 115
f 115 151 150
f 151 116 152
f 116 153 152
f 116 117 153
f 117 106 140
f 154 117 140
f 153 117 154
f 154 140 141
f 154 141 155
f 155 141 142
f 155 142 156
f 156 142 143
f 157 148 112
f 157 112 118
f 118 113 149
f 158 118 149
f 157 118 158
f 158 149 150
f 158 150 159
f 159 150 151
f 159 151 160
f 160 151 152
f 124 161 125
f 162 126 125
f 162 125 161
f 163 127 126
f 163 126 162
f 127 163 164
f 165 127 164
f 128 127 165
f 128 166 130
f 165 166 128
f 130 167 132
f 166 167 130
f 169 168 133
f 132 169 133
f 167 169 132
f 170 168 169
f 135 171 136
f 172 137 136
f 172 136 171
f 173 138 137
f 173 137 172
f 138 173 174
f 175 138 174
f 139 138 175
f 124 139 161
f 139 176 161
f 139 175 176
f 161 176 162
f 162 176 177
f 162 177 163
f 163 177 178
f 179 143 144
f 178 164 163
f 145 180 144
f 144 180 179
f 146 181 145
f 145 181 180
f 133 168 146
f 168 181 146
f 168 182 181
f 168 170 183
f 168 183 182
f 185 184 147
f 185 147 148
f 135 147 171
f 147 186 171
f 147 184 186
f 171 186 172
f 172 186 187
f 172 187 173
f 173 187 188
f 189 152 153
f 188 174 173
f 154 190 153
f 153 190 189
f 155 191 154
f 154 191 190
f 156 192 155
f 155 192 191
f 193 192 156
f 193 156 143
f 194 193 143
f 179 194 143
f 194 179 180
f 194 180 195
f 195 180 181
f 195 181 196
f 196 181 182
f 196 182 197
f 197 182 183
f 148 157 198
f 199 148 198
f 185 148 199
f 158 200 157
f 157 200 198
f 159 201 158
f 158 201 200
f 160 202 159
f 159 202 201
f 203 202 160
f 203 160 152
f 204 203 152
f 189 204 152
f 204 189 190
f 204 190 205
f 205 190 191
f 205 191 206
f 206 191 192
f 206 192 207
f 207 192 193
f 208 199 198
f 208 198 200
f 208 200 209
f 209 200 201
f 209 201 210
f 210 201 202
f 210 202 211
f 211 202 203
f 164 212 165
f 213 166 165
f 213 165 212
f 214 167 166
f 214 166 213
f 167 214 215
f 216 167 215
f 169 167 216
f 218 217 170
f 169 218 170
f 216 218 169
f 219 217 218
f 174 220 175
f 221 176 175
f 221 175 220
f 222 177 176
f 222 176 221
f 177 222 223
f 224 177 223
f 178 177 224
f 164 178 212
f 178 225 212
f 178 224 225
f 212 225 213
f 213 225 226
f 213 226 214
f 214 226 227
f 214 227 215
f 228 183 217
f 217 183 170
f 217 219 229
f 230 217 229
f 228 217 230
f 231 230 229
f 185 232 184
f 233 186 184
f 233 184 232
f 234 187 186
f 234 186 233
f 187 234 235
f 236 187 235
f 188 187 236
f 174 188 220
f 188 237 220
f 188 236 237
f 220 237 221
f 221 237 238
f 221 238 222
f 222 238 239
f 222 239 223
f 240 193 194
f 195 241 194
f 194 241 240
f 196 242 195
f 195 242 241
f 242 196 243
f 196 244 243
f 196 197 244
f 197 183 228
f 245 197 228
f 244 197 245
f 245 228 230
f 245 230 246
f 246 230 231
f 248 247 232
f 185 248 232
f 199 248 185
f 232 247 233
f 233 247 249
f 233 249 234
f 234 249 250
f 234 250 235
f 251 203 204
f 205 252 204
f 204 252 251
f 206 253 205
f 205 253 252
f 253 206 254
f 206 255 254
f 206 207 255
f 207 193 240
f 256 207 240
f 255 207 256
f 256 240 241
f 256 241 257
f 257 241 242
f 257 242 258
f 258 242 243
f 199 208 259
f 260 199 259
f 248 199 260
f 209 261 208
f 208 261 259
f 210 262 209
f 209 262 261
f 262 210 263
f 210 264 263
f 210 211 264
f 211 203 251
f 265 211 251
f 264 211 265
f 265 251 252
f 265 252 266
f 266 252 253
f 266 253 267
f 267 253 254
f 268 260 259
f 268 259 261
f 268 261 269
f 269 261 262
f 269 262 270
f 270 262 263
f 215 271 216
f 272 218 216
f 272 216 271
f 272 219 218
f 223 273 224
f 274 225 224
f 274 224 273
f 275 226 225
f 275 225 274
f 226 275 276
f 277 226 276
f 227 226 277
f 215 227 271
f 227 278 271
f 227 277 278
f 271 278 272
f 272 278 279
f 272 279 219
f 279 229 219
f 279 280 229
f 282 281 231
f 229 282 231
f 280 282 229
f 284 283 281
f 284 281 282
f 285 283 284
f 235 286 236
f 287 237 236
f 287 236 286
f 288 238 237
f 288 237 287
f 289 239 238
f 289 238 288
f 289 290 239
f 239 290 223
f 290 291 223
f 291 273 223
f 273 291 274
f 274 291 292
f 274 292 275
f 275 292 293
f 275 293 276
f 294 243 244
f 245 295 244
f 244 295 294
f 246 296 245
f 245 296 295
f 297 296 246
f 297 246 231
f 298 297 231
f 281 298 231
f 298 281 283
f 298 283 299
f 299 283 285
f 248 300 247
f 301 249 247
f 301 247 300
f 249 301 302
f 303 249 302
f 250 249 303
f 235 250 286
f 250 304 286
f 250 303 304
f 286 304 287
f 287 304 305
f 287 305 288
f 288 305 306
f 288 306 289
f 289 306 307
f 308 254 255
f 307 290 289
f 256 309 255
f 255 309 308
f 257 310 256
f 256 310 309
f 310 257 311
f 257 312 311
f 257 258 312
f 258 243 294
f 313 258 294
f 312 258 313
f 313 294 295
f 313 295 314
f 314 295 296
f 314 296 315
f 315 296 297
f 317 316 300
f 248 317 300
f 260 317 248
f 300 316 301
f 301 316 318
f 301 318 302
f 319 263 264
f 265 320 264
f 264 320 319
f 266 321 265
f 265 321 320
f 321 266 322
f 266 323 322
f 266 267 323
f 267 254 308
f 324 267 308
f 323 267 324
f 324 308 309
f 324 309 325
f 325 309 310
f 325 310 326
f 326 310 311
f 260 268 327
f 328 260 327
f 317 260 328
f 269 329 268
f 268 329 327
f 329 269 330
f 269 331 330
f 269 270 331
f 270 263 319
f 332 270 319
f 331 270 332
f 332 319 320
f 332 320 333
f 333 320 321
f 333 321 334
f 334 321 322
f 335 328 327
f 335 327 329
f 335 329 336
f 336 329 330
f 276 337 277
f 338 278 277
f 338 277 337
f 339 279 278
f 339 278 338
f 340 280 279
f 340 279 339
f 280 340 341
f 342 280 341
f 282 280 342
f 282 343 284
f 342 343 282
f 285 284 343
f 285 343 344
f 290 345 291
f 346 292 291
f 346 291 345
f 347 293 292
f 347 292 346
f 347 348 293
f 293 348 276
f 348 349 276
f 349 337 276
f 337 349 338
f 338 349 350
f 338 350 339
f 339 350 351
f 339 351 340
f 340 351 352
f 353 297 298
f 352 341 340
f 299 354 298
f 298 354 353
f 355 354 299
f 285 355 299
f 344 355 285
f 302 356 303
f 357 304 303
f 357 303 356
f 358 305 304
f 358 304 357
f 359 306 305
f 359 305 358
f 306 359 360
f 361 306 360
f 307 306 361
f 290 307 345
f 307 362 345
f 307 361 362
f 345 362 346
f 346 362 363
f 346 363 347
f 347 363 364
f 365 311 312
f 364 348 347
f 313 366 312
f 312 366 365
f 314 367 313
f 313 367 366
f 315 368 314
f 314 368 367
f 369 368 315
f 369 315 297
f 370 369 297
f 353 370 297
f 370 353 354
f 370 354 371
f 371 354 355
f 317 372 316
f 373 318 316
f 373 316 372
f 373 374 318
f 318 374 302
f 374 375 302
f 375 356 302
f 356 375 357
f 357 375 376
f 357 376 358
f 358 376 377
f 358 377 359
f 359 377 378
f 379 322 323
f 378 360 359
f 324 380 323
f 323 380 379
f 325 381 324
f 324 381 380
f 326 382 325
f 325 382 381
f 383 382 326
f 383 326 311
f 384 383 311
f 365 384 311
f 384 365 366
f 384 366 385
f 385 366 367
f 385 367 386
f 386 367 368
f 386 368 387
f 387 368 369
f 389 388 372
f 317 389 372
f 328 389 317
f 372 388 373
f 373 388 390
f 391 330 331
f 390 374 373
f 332 392 331
f 331 392 391
f 333 393 332
f 332 393 392
f 393 333 394
f 333 395 394
f 333 334 395
f 334 322 379
f 396 334 379
f 395 334 396
f 396 379 380
f 396 380 397
f 397 380 381
f 397 381 398
f 398 381 382
f 398 382 399
f 399 382 383
f 328 335 400
f 401 328 400
f 389 328 401
f 336 402 335
f 335 402 400
f 403 402 336
f 403 336 330
f 404 403 330
f 391 404 330
f 404 391 392
f 404 392 405
f 405 392 393
f 405 393 406
f 406 393 394
f 407 401 400
f 407 400 402
f 407 402 408
f 408 402 403
f 341 409 342
f 410 343 342
f 410 342 409
f 410 344 343
f 348 411 349
f 412 350 349
f 412 349 411
f 413 351 350
f 413 350 412
f 414 352 351
f 414 351 413
f 409 341 352
f 414 409 352
f 415 409 414
f 409 416 410
f 409 415 416
f 416 355 344
f 416 344 410
f 360 417 361
f 418 362 361
f 418 361 417
f 419 363 362
f 419 362 418
f 363 419 420
f 421 363 420
f 364 363 421
f 348 364 411
f 364 422 411
f 364 421 422
f 411 422 412
f 412 422 423
f 412 423 413
f 413 423 424
f 413 424 414
f 414 424 425
f 426 369 370
f 414 426 370
f 415 414 370
f 425 426 414
f 415 370 371
f 415 371 416
f 416 371 355
f 374 427 375
f 428 376 375
f 428 375 427
f 429 377 376
f 429 376 428
f 377 429 430
f 431 377 430
f 378 377 431
f 360 378 417
f 378 432 417
f 378 431 432
f 417 432 418
f 418 432 433
f 418 433 419
f 419 433 434
f 419 434 420
f 435 383 384
f 385 436 384
f 384 436 435
f 436 385 437
f 385 438 437
f 385 386 438
f 439 386 387
f 439 438 386
f 387 369 426
f 387 426 439
f 389 440 388
f 388 440 441
f 442 388 441
f 390 388 442
f 374 390 427
f 390 443 427
f 390 442 443
f 427 443 428
f 428 443 444
f 428 444 429
f 429 444 445
f 446 394 395
f 445 430 429
f 446 395 447
f 395 448 447
f 395 396 448
f 449 396 397
f 449 448 396
f 450 397 398
f 450 449 397
f 451 398 399
f 451 450 398
f 399 383 435
f 452 399 435
f 451 399 452
f 452 435 436
f 452 436 453
f 453 436 437
f 455 454 440
f 389 455 440
f 401 455 389
f 440 454 441
f 456 403 404
f 405 457 404
f 404 457 456
f 406 458 405
f 405 458 457
f 459 458 406
f 459 406 394
f 460 459 394
f 446 460 394
f 460 446 447
f 461 455 401
f 461 401 407
f 462 407 408
f 462 461 407
f 408 403 456
f 463 408 456
f 462 408 463
f 463 456 457
f 463 457 464
f 464 457 458
f 464 458 465
f 465 458 459
f 420 466 421
f 467 422 421
f 467 421 466
f 468 423 422
f 468 422 467
f 469 424 423
f 469 423 468
f 470 425 424
f 470 424 469
f 470 426 425
f 430 471 431
f 472 432 431
f 472 431 471
f 473 433 432
f 473 432 472
f 433 473 474
f 475 433 474
f 434 433 475
f 420 434 466
f 434 476 466
f 434 475 476
f 466 476 467
f 467 476 477
f 479 478 477
f 478 467 477
f 478 468 467
f 478 437 438
f 469 478 438
f 468 478 469
f 469 438 439
f 469 439 470
f 470 439 426
f 441 480 442
f 481 443 442
f 481 442 480
f 482 444 443
f 482 443 481
f 444 482 483
f 484 444 483
f 445 444 484
f 430 445 471
f 445 485 471
f 445 484 485
f 486 447 448
f 471 486 448
f 472 471 448
f 485 486 471
f 472 448 449
f 472 449 473
f 449 450 473
f 450 487 473
f 487 474 473
f 450 488 487
f 451 489 450
f 450 489 488
f 489 451 490
f 451 491 490
f 451 452 491
f 453 478 479
f 491 453 479
f 452 453 491
f 478 453 437
f 493 492 454
f 493 454 455
f 441 454 480
f 454 494 480
f 454 492 494
f 480 494 481
f 481 494 495
f 481 495 482
f 482 495 496
f 482 496 483
f 497 459 460
f 498 497 460
f 447 498 460
f 486 498 447
f 499 487 488
f 499 488 489
f 499 489 500
f 500 489 490
f 455 461 501
f 502 455 501
f 493 455 502
f 462 503 461
f 461 503 501
f 463 504 462
f 462 504 503
f 464 505 463
f 463 505 504
f 505 464 506
f 464 507 506
f 464 465 507
f 465 459 497
f 508 465 497
f 507 465 508
f 508 497 498
f 509 502 501
f 509 501 503
f 509 503 510
f 510 503 504
f 510 504 511
f 511 504 505
f 511 505 512
f 512 505 506
f 474 513 475
f 514 476 475
f 514 475 513
f 515 477 476
f 515 476 514
f 515 479 477
f 483 516 484
f 517 485 484
f 517 484 516
f 517 486 485
f 487 518 513
f 487 513 474
f 513 519 514
f 513 518 519
f 519 490 491
f 515 519 491
f 514 519 515
f 515 491 479
f 493 520 492
f 521 494 492
f 521 492 520
f 522 495 494
f 522 494 521
f 495 522 523
f 524 495 523
f 496 495 524
f 483 496 516
f 496 525 516
f 496 524 525
f 516 525 517
f 517 525 526
f 486 517 526
f 527 486 526
f 498 486 527
f 499 518 487
f 518 499 500
f 518 500 519
f 519 500 490
f 529 528 520
f 493 529 520
f 502 529 493
f 520 528 521
f 521 528 530
f 521 530 522
f 522 530 531
f 522 531 523
f 532 506 507
f 508 533 507
f 507 533 532
f 534 533 508
f 498 534 508
f 527 534 498
f 502 509 535
f 536 502 535
f 529 502 536
f 510 537 509
f 509 537 535
f 511 538 510
f 510 538 537
f 538 511 539
f 511 540 539
f 511 512 540
f 512 506 532
f 541 512 532
f 540 512 541
f 541 532 533
f 541 533 542
f 542 533 534
f 543 536 535
f 543 535 537
f 543 537 544
f 544 537 538
f 544 538 545
f 545 538 539
f 523 546 524
f 547 525 524
f 547 524 546
f 548 526 525
f 548 525 547
f 548 527 526
f 529 549 528
f 550 530 528
f 550 528 549
f 551 531 530
f 551 530 550
f 551 552 531
f 531 552 523
f 552 553 523
f 553 546 523
f 546 553 547
f 547 553 554
f 556 555 554
f 555 547 554
f 555 548 547
f 555 534 527
f 555 527 548
f 558 557 549
f 529 558 549
f 536 558 529
f 549 557 550
f 550 557 559
f 550 559 551
f 551 559 560
f 561 539 540
f 560 552 551
f 561 540 562
f 540 563 562
f 540 541 563
f 542 555 556
f 563 542 556
f 541 542 563
f 555 542 534
f 536 543 564
f 565 536 564
f 558 536 565
f 544 566 543
f 543 566 564
f 566 544 567
f 544 568 567
f 544 545 568
f 545 539 561
f 569 545 561
f 568 545 569
f 569 561 562
f 570 565 564
f 570 564 566
f 570 566 571
f 571 566 567
f 552 572 553
f 573 554 553
f 573 553 572
f 573 556 554
f 558 574 557
f 575 559 557
f 575 557 574
f 576 560 559
f 576 559 575
f 572 552 560
f 576 572 560
f 577 572 576
f 577 562 563
f 573 577 563
f 572 577 573
f 573 563 556
f 579 578 574
f 558 579 574
f 565 579 558
f 574 578 575
f 575 578 580
f 581 567 568
f 575 581 568
f 576 575 568
f 580 581 575
f 576 568 569
f 576 569 577
f 577 569 562
f 582 579 565
f 582 565 570
f 583 570 571
f 583 582 570
f 571 567 581
f 571 581 583
f 585 584 578
f 585 578 579
f 578 586 580
f 584 586 578
f 588 587 581
f 580 588 581
f 586 588 580
f 589 587 588
f 590 585 579
f 590 579 582
f 591 582 583
f 591 590 582
f 583 581 587
f 592 583 587
f 591 583 592
f 592 587 589
f 594 593 584
f 594 584 585
f 584 595 586
f 593 595 584
f 586 596 588
f 595 596 586
f 598 597 589
f 588 598 589
f 596 598 588
f 600 599 597
f 600 597 598
f 601 599 600
f 602 594 585
f 602 585 590
f 603 590 591
f 603 602 590
f 604 591 592
f 604 603 591
f 592 589 597
f 605 592 597
f 604 592 605
f 605 597 599
f 605 599 606
f 606 599 601
f 608 607 593
f 608 593 594
f 593 609 595
f 607 609 593
f 595 610 596
f 609 610 595
f 596 611 598
f 610 611 596
f 598 612 600
f 611 612 598
f 614 613 601
f 600 614 601
f 612 614 600
f 615 613 614
f 616 608 594
f 616 594 602
f 617 602 603
f 617 616 602
f 618 603 604
f 618 617 603
f 619 604 605
f 619 618 604
f 620 605 606
f 620 619 605
f 606 601 613
f 621 606 613
f 620 606 621
f 621 613 615
f 623 622 607
f 623 607 608
f 607 624 609
f 622 624 607
f 609 625 610
f 624 625 609
f 610 626 611
f 625 626 610
f 611 627 612
f 626 627 611
f 612 628 614
f 627 628 612
f 615 614 628
f 615 628 629
f 630 623 608
f 630 608 616
f 631 616 617
f 631 630 616
f 632 617 618
f 632 631 617
f 633 618 619
f 633 632 618
f 634 619 620
f 634 633 619
f 635 620 621
f 635 634 620
f 621 615 629
f 621 629 635
f 637 636 622
f 637 622 623
f 622 638 624
f 636 638 622
f 624 639 625
f 638 639 624
f 625 640 626
f 639 640 625
f 626 641 627
f 640 641 626
f 627 642 628
f 641 642 627
f 629 628 642
f 629 642 643
f 644 637 623
f 644 623 630
f 645 630 631
f 645 644 630
f 646 631 632
f 646 645 631
f 647 632 633
f 647 646 632
f 648 633 634
f 648 647 633
f 649 634 635
f 649 648 634
f 635 629 643
f 635 643 649
f 652 651 650
f 654 653 650
f 654 650 651
f 655 653 654
f 657 656 636
f 657 636 637
f 636 658 638
f 656 658 636
f 638 659 639
f 658 659 638
f 639 660 640
f 659 660 639
f 640 661 641
f 660 661 640
f 641 662 642
f 661 662 641
f 643 642 662
f 643 662 663
f 652 650 664
f 652 664 665
f 653 667 666
f 664 653 666
f 650 653 664
f 667 653 655
f 637 644 668
f 669 637 668
f 657 637 669
f 668 644 670
f 644 671 670
f 644 645 671
f 672 645 646
f 672 671 645
f 673 646 647
f 673 672 646
f 674 647 648
f 674 673 647
f 675 648 649
f 675 674 648
f 649 643 663
f 649 663 675
f 676 665 664
f 676 664 666
f 677 669 668
f 677 668 670
f 679 678 651
f 679 651 652
f 651 680 654
f 678 680 651
f 682 681 655
f 654 682 655
f 680 682 654
f 684 683 681
f 684 681 682
f 685 683 684
f 657 686 656
f 656 686 687
f 688 656 687
f 658 656 688
f 658 689 659
f 688 689 658
f 659 690 660
f 689 690 659
f 660 691 661
f 690 691 660
f 661 692 662
f 691 692 661
f 694 693 663
f 662 694 663
f 692 694 662
f 696 695 693
f 696 693 694
f 696 679 695
f 679 665 695
f 679 652 665
f 697 666 667
f 698 697 667
f 698 667 655
f 699 698 655
f 681 699 655
f 699 681 683
f 699 683 700
f 700 683 685
f 702 701 686
f 657 702 686
f 669 702 657
f 703 670 671
f 701 687 686
f 703 671 704
f 671 705 704
f 671 672 705
f 706 672 673
f 706 705 672
f 707 673 674
f 707 706 673
f 708 674 675
f 708 707 674
f 675 663 693
f 709 675 693
f 708 675 709
f 709 693 695
f 709 695 710
f 710 695 665
f 676 710 665
f 711 710 676
f 676 666 697
f 712 676 697
f 711 676 712
f 712 697 698
f 713 702 669
f 713 669 677
f 677 670 703
f 714 677 703
f 713 677 714
f 714 703 704
f 679 715 678
f 678 715 716
f 717 678 716
f 680 678 717
f 680 718 682
f 717 718 680
f 682 719 684
f 718 719 682
f 721 720 685
f 684 721 685
f 719 721 684
f 722 720 721
f 724 723 688
f 724 688 687
f 688 725 689
f 723 725 688
f 689 726 690
f 725 726 689
f 690 727 691
f 726 727 690
f 691 728 692
f 727 728 691
f 692 729 694
f 728 729 692
f 694 730 696
f 729 730 694
f 679 696 715
f 696 731 715
f 696 730 731
f 715 731 716
f 733 732 699
f 699 732 698
f 734 699 700
f 734 733 699
f 700 685 720
f 735 700 720
f 734 700 735
f 735 720 722
f 737 736 701
f 737 701 702
f 687 701 724
f 724 701 736
f 739 738 705
f 705 738 704
f 740 705 706
f 740 739 705
f 741 706 707
f 741 740 706
f 742 707 708
f 742 741 707
f 743 708 709
f 743 742 708
f 744 709 710
f 744 743 709
f 745 710 711
f 745 744 710
f 746 711 712
f 746 745 711
f 712 698 732
f 712 732 746
f 747 737 702
f 747 702 713
f 748 713 714
f 748 747 713
f 714 704 738
f 714 738 748
f 750 749 717
f 750 717 716
f 717 751 718
f 749 751 717
f 718 752 719
f 751 752 718
f 719 753 721
f 752 753 719
f 755 754 722
f 721 755 722
f 753 755 721
f 756 754 755
f 758 757 723
f 758 723 724
f 723 759 725
f 757 759 723
f 725 760 726
f 759 760 725
f 726 761 727
f 760 761 726
f 727 762 728
f 761 762 727
f 728 763 729
f 762 763 728
f 729 764 730
f 763 764 729
f 730 765 731
f 764 765 730
f 716 731 750
f 750 731 765
f 767 766 733
f 733 766 732
f 768 733 734
f 768 767 733
f 769 734 735
f 769 768 734
f 735 722 754
f 770 735 754
f 769 735 770
f 770 754 756
f 772 771 736
f 772 736 737
f 724 736 758
f 758 736 771
f 773 738 739
f 773 739 774
f 739 775 774
f 739 740 775
f 776 740 741
f 776 775 740
f 777 741 742
f 777 776 741
f 778 742 743
f 778 777 742
f 779 743 744
f 779 778 743
f 780 744 745
f 780 779 744
f 781 745 746
f 781 780 745
f 746 732 766
f 746 766 781
f 782 772 737
f 782 737 747
f 783 747 748
f 783 782 747
f 748 738 773
f 784 748 773
f 783 748 784
f 784 773 774
f 750 785 749
f 749 785 786
f 787 749 786
f 751 749 787
f 751 788 752
f 787 788 751
f 752 789 753
f 788 789 752
f 789 791 790
f 755 789 790
f 753 789 755
f 790 756 755
f 758 792 757
f 757 792 793
f 794 757 793
f 759 757 794
f 759 795 760
f 794 795 759
f 760 796 761
f 795 796 760
f 761 797 762
f 796 797 761
f 762 798 763
f 797 798 762
f 763 799 764
f 798 799 763
f 764 800 765
f 799 800 764
f 750 765 785
f 765 801 785
f 765 800 801
f 802 766 767
f 801 786 785
f 802 767 803
f 767 804 803
f 767 768 804
f 805 768 769
f 805 804 768
f 770 790 791
f 805 770 791
f 769 770 805
f 790 770 756
f 807 806 771
f 807 771 772
f 758 771 792
f 771 808 792
f 771 806 808
f 792 808 793
f 810 809 775
f 775 809 774
f 811 775 776
f 811 810 775
f 812 776 777
f 812 811 776
f 813 777 778
f 813 812 777
f 814 778 779
f 814 813 778
f 815 779 780
f 815 814 779
f 816 780 781
f 816 815 780
f 781 766 802
f 817 781 802
f 816 781 817
f 817 802 803
f 818 807 772
f 818 772 782
f 819 782 783
f 819 818 782
f 820 783 784
f 820 819 783
f 784 774 809
f 784 809 820
f 822 821 787
f 822 787 786
f 787 823 788
f 821 823 787
f 823 825 824
f 789 823 824
f 788 823 789
f 824 791 789
f 827 826 794
f 827 794 793
f 794 828 795
f 826 828 794
f 795 829 796
f 828 829 795
f 796 830 797
f 829 830 796
f 797 831 798
f 830 831 797
f 798 832 799
f 831 832 798
f 799 833 800
f 832 833 799
f 800 834 801
f 833 834 800
f 786 801 822
f 822 801 834
f 836 835 804
f 804 835 803
f 805 824 825
f 836 805 825
f 804 805 836
f 824 805 791
f 838 837 806
f 838 806 807
f 806 839 808
f 837 839 806
f 793 808 827
f 827 808 839
f 841 840 810
f 810 840 809
f 842 810 811
f 842 841 810
f 843 811 812
f 843 842 811
f 844 812 813
f 844 843 812
f 845 813 814
f 845 844 813
f 846 814 815
f 846 845 814
f 847 815 816
f 847 846 815
f 848 816 817
f 848 847 816
f 817 803 835
f 817 835 848
f 849 838 807
f 849 807 818
f 850 818 819
f 850 849 818
f 851 819 820
f 851 850 819
f 820 809 840
f 820 840 851
f 822 852 821
f 853 823 821
f 853 821 852
f 853 825 823
f 827 854 826
f 826 854 855
f 856 826 855
f 828 826 856
f 828 857 829
f 856 857 828
f 829 858 830
f 857 858 829
f 830 859 831
f 858 859 830
f 831 860 832
f 859 860 831
f 832 861 833
f 860 861 832
f 833 862 834
f 861 862 833
f 834 862 822
f 862 863 822
f 863 852 822
f 863 862 864
f 863 835 836
f 853 863 836
f 852 863 853
f 853 836 825
f 866 865 837
f 866 837 838
f 837 867 839
f 865 867 837
f 827 839 854
f 839 868 854
f 839 867 868
f 869 840 841
f 868 855 854
f 869 841 870
f 841 871 870
f 841 842 871
f 872 842 843
f 872 871 842
f 873 843 844
f 873 872 843
f 874 844 845
f 874 873 844
f 875 845 846
f 875 874 845
f 876 846 847
f 876 875 846
f 848 863 864
f 876 848 864
f 847 848 876
f 863 848 835
f 877 866 838
f 877 838 849
f 878 849 850
f 878 877 849
f 879 850 851
f 879 878 850
f 851 840 869
f 880 851 869
f 879 851 880
f 880 869 870
f 882 881 856
f 882 856 855
f 856 883 857
f 881 883 856
f 857 884 858
f 883 884 857
f 858 885 859
f 884 885 858
f 859 886 860
f 885 886 859
f 860 887 861
f 886 887 860
f 887 889 888
f 862 887 888
f 861 887 862
f 888 864 862
f 891 890 865
f 891 865 866
f 865 892 867
f 890 892 865
f 867 893 868
f 892 893 867
f 855 868 882
f 882 868 893
f 895 894 871
f 871 894 870
f 896 871 872
f 896 895 871
f 897 872 873
f 897 896 872
f 898 873 874
f 898 897 873
f 899 874 875
f 899 898 874
f 876 888 889
f 899 876 889
f 875 876 899
f 888 876 864
f 900 891 866
f 900 866 877
f 901 877 878
f 901 900 877
f 902 878 879
f 902 901 878
f 903 879 880
f 903 902 879
f 880 870 894
f 880 894 903
f 882 904 881
f 881 904 905
f 906 881 905
f 883 881 906
f 883 907 884
f 906 907 883
f 884 908 885
f 907 908 884
f 908 910 909
f 886 908 909
f 885 908 886
f 911 887 886
f 911 886 909
f 911 889 887
f 913 912 890
f 913 890 891
f 890 914 892
f 912 914 890
f 892 915 893
f 914 915 892
f 882 893 904
f 893 916 904
f 893 915 916
f 917 894 895
f 916 905 904
f 917 895 918
f 895 919 918
f 895 896 919
f 920 896 897
f 920 919 896
f 898 909 910
f 920 898 910
f 897 898 920
f 909 898 899
f 909 899 911
f 911 899 889
f 921 913 891
f 921 891 900
f 922 900 901
f 922 921 900
f 923 901 902
f 923 922 901
f 924 902 903
f 924 923 902
f 903 894 917
f 925 903 917
f 924 903 925
f 925 917 918
f 927 926 906
f 927 906 905
f 906 928 907
f 926 928 906
f 928 930 929
f 908 928 929
f 907 928 908
f 929 910 908
f 932 931 912
f 932 912 913
f 912 933 914
f 931 933 912
f 914 934 915
f 933 934 914
f 915 935 916
f 934 935 915
f 905 916 927
f 927 916 935
f 937 936 919
f 919 936 918
f 920 929 930
f 937 920 930
f 919 920 937
f 929 920 910
f 938 932 913
f 938 913 921
f 939 921 922
f 939 938 921
f 940 922 923
f 940 939 922
f 941 923 924
f 941 940 923
f 942 924 925
f 942 941 924
f 925 918 936
f 925 936 942
f 927 943 926
f 944 928 926
f 944 926 943
f 944 930 928
f 946 945 931
f 946 931 932
f 931 947 933
f 945 947 931
f 933 948 934
f 947 948 933
f 934 949 935
f 948 949 934
f 935 949 927
f 949 950 927
f 950 943 927
f 950 949 951
f 950 936 937
f 944 950 937
f 943 950 944
f 944 937 930
f 952 946 932
f 952 932 938
f 953 938 939
f 953 952 938
f 954 939 940
f 954 953 939
f 955 940 941
f 955 954 940
f 942 950 951
f 955 942 951
f 941 942 955
f 950 942 936
f 957 956 945
f 957 945 946
f 945 958 947
f 956 958 945
f 947 959 948
f 958 959 947
f 959 961 960
f 949 959 960
f 948 959 949
f 960 951 949
f 962 957 946
f 962 946 952
f 963 952 953
f 963 962 952
f 964 953 954
f 964 963 953
f 955 960 961
f 964 955 961
f 954 955 964
f 960 955 951
f 966 965 956
f 966 956 957
f 965 968 967
f 958 965 967
f 956 965 958
f 969 959 958
f 969 958 967
f 969 961 959
f 970 966 957
f 970 957 962
f 963 967 968
f 970 963 968
f 962 963 970
f 967 963 964
f 967 964 969
f 969 964 961
f 966 971 965
f 971 968 965
f 970 971 966
f 971 970 968

