# https://github.com/mikedh/trimesh
v -0.03057867 -0.01220644 0.01595842
v -0.02799267 -0.01539633 0.01472861
v -0.02869087 -0.01250562 0.01170589
v -0.03045223 -0.01205031 0.02102775
v -0.02861460 -0.01581613 0.01939561
v -0.02737671 -0.01418738 0.02309413
v -0.03041859 -0.00695957 -0.01757338
v -0.02775741 -0.01038788 -0.01927692
v -0.02794423 -0.00725278 -0.02112751
v -0.03060750 -0.00696651 -0.01205291
v -0.02846922 -0.01037367 -0.01481984
v -0.03048024 -0.00697520 -0.00627531
v -0.02831323 -0.01034967 -0.00897470
v -0.03045920 -0.00692124 -0.00062994
v -0.02821718 -0.01033280 -0.00323257
v -0.03043000 -0.00689117 0.00492408
v -0.02818901 -0.01022350 0.00235113
v -0.03065762 -0.00793819 0.01067225
v -0.02821943 -0.01063367 0.00756878
v -0.03150106 -0.00683061 0.01583011
v -0.03095608 -0.00748056 0.02029272
v -0.02803434 -0.00867776 0.02338876
v -0.03089054 -0.00187668 -0.01852658
v -0.02804637 -0.00183280 -0.02138273
v -0.03142449 -0.00193377 -0.01337937
v -0.03128420 -0.00195782 -0.00761181
v -0.03124338 -0.00195397 -0.00194979
v -0.03123484 -0.00189309 0.00366994
v -0.03127449 -0.00188993 0.00934083
v -0.03144715 -0.00179760 0.01510254
v -0.03086078 -0.00173084 0.02031099
v -0.02787898 -0.00295539 0.02337689
v -0.03099003 0.00397963 -0.01847422
v -0.02812944 0.00397668 -0.02132043
v -0.03148577 0.00397005 -0.01330702
v -0.03131092 0.00392240 -0.00746599
v -0.03124407 0.00391756 -0.00177430
v -0.03124271 0.00392201 0.00384196
v -0.03128241 0.00394793 0.00950054
v -0.03142657 0.00402100 0.01526824
v -0.03081638 0.00403034 0.02050421
v -0.02784265 0.00274557 0.02356222
v -0.03041911 0.00848211 -0.01919251
v -0.02704355 0.00997320 -0.02113078
v -0.03079285 0.00899498 -0.01470533
v -0.03054064 0.00896767 -0.00882657
v -0.03046094 0.00893455 -0.00308183
v -0.03046096 0.00893367 0.00253509
v -0.03047705 0.00892749 0.00816625
v -0.03061994 0.00894630 0.01393229
v -0.03041932 0.00902826 0.01947390
v -0.02736914 0.00878298 0.02336118
v -0.02860503 0.01215031 -0.01740611
v -0.02833998 0.01238541 -0.01187748
v -0.02821209 0.01232198 -0.00610472
v -0.02821520 0.01231194 -0.00047459
v -0.02821819 0.01230754 0.00514090
v -0.02831129 0.01231570 0.01086739
v -0.02845883 0.01245965 0.01670582
v -0.02776933 0.01247301 0.02124590
v -0.02457003 -0.01817991 -0.01756060
v -0.02204949 -0.02188822 -0.01947758
v -0.02203227 -0.01864343 -0.02118864
v -0.02484346 -0.01807770 -0.01203146
v -0.02286622 -0.02179870 -0.01500610
v -0.02472724 -0.01808002 -0.00626712
v -0.02279145 -0.02171981 -0.00919889
v -0.02470938 -0.01799510 -0.00063012
v -0.02272490 -0.02171612 -0.00349979
v -0.02472404 -0.01798442 0.00501494
v -0.02272998 -0.02164564 0.00213746
v -0.02460341 -0.01874228 0.01022752
v -0.02270713 -0.02161636 0.00783735
v -0.02553151 -0.01834613 0.01586144
v -0.02267156 -0.02174760 0.01373936
v -0.02572095 -0.01815216 0.02119698
v -0.02273181 -0.02148271 0.01943932
v -0.02219873 -0.01918077 0.02329365
v -0.02562794 -0.01384689 -0.01853688
v -0.02301599 -0.01296607 -0.02151122
v -0.02620849 -0.01377081 -0.01332964
v -0.02606061 -0.01376111 -0.00751494
v -0.02600770 -0.01370664 -0.00184319
v -0.02600723 -0.01365577 0.00373716
v -0.02623437 -0.01482773 0.00973261
v -0.02283334 -0.01297902 0.02414183
v -0.02280246 -0.00752483 -0.02195026
v -0.02267158 -0.00660813 0.02348038
v -0.02290206 -0.00181060 -0.02186249
v -0.02326541 -0.00019788 0.02347217
v -0.02294497 0.00393798 -0.02184960
v -0.02324443 0.00537307 0.02356086
v -0.02216213 0.00883408 -0.02187500
v -0.02160392 0.01056385 0.02356200
v -0.02622045 0.01577510 -0.01851164
v -0.02310522 0.01482837 -0.02144260
v -0.02629900 0.01595913 -0.01333440
v -0.02610784 0.01584087 -0.00753151
v -0.02609811 0.01581130 -0.00186901
v -0.02610067 0.01581030 0.00374259
v -0.02614275 0.01581278 0.00940431
v -0.02626251 0.01593539 0.01521669
v -0.02569256 0.01599292 0.02048885
v -0.02377972 0.01424365 0.02353922
v -0.02473529 0.01993316 -0.01926091
v -0.02144762 0.02044694 -0.02103521
v -0.02507446 0.02039640 -0.01481441
v -0.02487635 0.02024434 -0.00897572
v -0.02483978 0.02017818 -0.00324612
v -0.02484370 0.02017861 0.00237027
v -0.02485577 0.02017661 0.00800096
v -0.02495678 0.02024952 0.01377250
v -0.02467298 0.02035381 0.01934995
v -0.02214161 0.01934890 0.02312009
v -0.02230089 0.02289964 -0.01743283
v -0.02209880 0.02310317 -0.01188950
v -0.02202669 0.02300034 -0.00611276
v -0.02203142 0.02299086 -0.00048127
v -0.02203190 0.02298796 0.00513493
v -0.02210079 0.02302723 0.01086027
v -0.02221487 0.02318314 0.01670397
v -0.02166289 0.02274339 0.02124954
v -0.01975770 -0.02480963 -0.01771436
v -0.01551134 -0.02669587 -0.01867933
v -0.01808748 -0.02352013 -0.02127588
v -0.02011664 -0.02467598 -0.01220463
v -0.01661192 -0.02688682 -0.01354331
v -0.02001058 -0.02461925 -0.00644270
v -0.01654612 -0.02674801 -0.00777593
v -0.01997570 -0.02461633 -0.00078098
v -0.01643066 -0.02671534 -0.00206066
v -0.01996409 -0.02457104 0.00492077
v -0.01640305 -0.02666680 0.00367305
v -0.01989873 -0.02461114 0.01075584
v -0.01633505 -0.02666900 0.00938312
v -0.01983445 -0.02473812 0.01665128
v -0.01630012 -0.02681090 0.01520302
v -0.01982684 -0.02394196 0.02117882
v -0.01698951 -0.02635464 0.01990706
v -0.01664645 -0.02401361 0.02306292
v -0.01687999 -0.01906370 -0.02211568
v -0.01698556 -0.01876456 0.02415353
v -0.01682427 -0.01322347 -0.02183783
v -0.01753775 -0.01263374 0.02311750
v -0.01695402 -0.00747523 -0.02166429
v -0.01921117 -0.00704115 -0.01206710
v -0.01668825 -0.00734655 -0.01559291
v -0.01652749 -0.01053356 -0.01374454
v -0.01727594 -0.01049358 -0.00923813
v -0.01942674 -0.00704418 -0.00656788
v -0.01715794 -0.01046830 -0.00341543
v -0.01931158 -0.00705868 -0.00080872
v -0.01711343 -0.01048279 0.00225104
v -0.01930432 -0.00705160 0.00481863
v -0.01715759 -0.01048585 0.00782229
v -0.01924007 -0.00688951 0.01054922
v -0.01712408 -0.01034535 0.01359754
v -0.01908969 -0.00676380 0.01643709
v -0.01698087 -0.01056218 0.01918763
v -0.01928296 -0.00771937 0.02100342
v -0.01705245 -0.00179092 -0.02163002
v -0.01963671 -0.00188910 -0.01291797
v -0.01679043 -0.00185040 -0.01577444
v -0.02017136 -0.00193736 -0.00776814
v -0.02003254 -0.00196228 -0.00200165
v -0.01999352 -0.00195584 0.00365601
v -0.01991187 -0.00182923 0.00932591
v -0.01972486 -0.00175658 0.01513906
v -0.02029299 -0.00298316 0.02037137
v -0.01709666 0.00388759 -0.02166167
v -0.01973793 0.00398202 -0.01283467
v -0.01691290 0.00402505 -0.01567949
v -0.02022871 0.00396767 -0.00766632
v -0.02005387 0.00391967 -0.00182605
v -0.01999076 0.00391884 0.00386058
v -0.01993041 0.00398872 0.00948626
v -0.01973362 0.00398564 0.01521812
v -0.02031705 0.00267424 0.02042897
v -0.01722446 0.00958205 -0.02175324
v -0.01924523 0.00860107 -0.01348552
v -0.01588477 0.01011093 -0.01554837
v -0.01961817 0.00909576 -0.00894094
v -0.01937372 0.00905194 -0.00303599
v -0.01929753 0.00901512 0.00270674
v -0.01928022 0.00903919 0.00831929
v -0.01913298 0.00904665 0.01403454
v -0.01965270 0.00844170 0.02007395
v -0.01737124 0.01534136 -0.02189484
v -0.01751675 0.01238633 -0.01181323
v -0.01727870 0.01263253 -0.00621434
v -0.01717059 0.01253119 -0.00039360
v -0.01718318 0.01252346 0.00523493
v -0.01710525 0.01255009 0.01089812
v -0.01693820 0.01240019 0.01667956
v -0.01760731 0.01232579 0.02122951
v -0.01711944 0.01619630 0.02338309
v -0.01601016 0.02137547 -0.02143901
v -0.01701708 0.02170308 0.02352683
v -0.01801108 0.02391998 -0.01851821
v -0.01779627 0.02442958 -0.01333083
v -0.01766054 0.02428690 -0.00751691
v -0.01766281 0.02424767 -0.00185314
v -0.01766418 0.02424568 0.00375848
v -0.01769584 0.02425760 0.00941875
v -0.01779954 0.02443197 0.01522073
v -0.01753038 0.02427127 0.02049175
v -0.01011082 -0.02703135 -0.01859081
v -0.01261023 -0.02421766 -0.02149864
v -0.01161548 -0.02754276 -0.01350127
v -0.01158817 -0.02738174 -0.00771014
v -0.01142489 -0.02728597 -0.00199757
v -0.01133107 -0.02723139 0.00371559
v -0.01209231 -0.02724893 0.00856674
v -0.01098420 -0.02792550 0.01364792
v -0.01246244 -0.02754911 0.01986845
v -0.01096999 -0.02501598 0.02355177
v -0.01104199 -0.01905979 -0.02191639
v -0.01152316 -0.01845002 0.02351464
v -0.01108825 -0.01316332 -0.02163757
v -0.01399985 -0.01329767 -0.01193728
v -0.01174938 -0.01283158 -0.01570178
v -0.01067365 -0.01622469 -0.01373622
v -0.01146725 -0.01608921 -0.00923326
v -0.01429045 -0.01316770 -0.00635823
v -0.01143537 -0.01595989 -0.00343294
v -0.01420444 -0.01315088 -0.00059742
v -0.01143257 -0.01598018 0.00227728
v -0.01424061 -0.01317943 0.00499525
v -0.01086417 -0.01588419 0.00874138
v -0.01425260 -0.01309793 0.01073221
v -0.01064694 -0.01501989 0.01516093
v -0.01417607 -0.01299834 0.01657467
v -0.01053699 -0.01567932 0.02040105
v -0.01411934 -0.01376594 0.02104914
v -0.01126340 -0.00744629 -0.02153657
v -0.01147001 -0.00765265 -0.01642674
v -0.01129440 -0.00180429 -0.02154175
v -0.01164230 -0.00181610 -0.01624014
v -0.01131365 0.00384986 -0.02156549
v -0.01176926 0.00400699 -0.01622233
v -0.01144675 0.00949955 -0.02164458
v -0.01103649 0.00892527 -0.01631561
v -0.01161452 0.01523007 -0.02175074
v -0.01463808 0.01474753 -0.01369577
v -0.01093799 0.01434366 -0.01557468
v -0.01443231 0.01544588 -0.00923358
v -0.01428089 0.01530345 -0.00342453
v -0.01432420 0.01524417 0.00226303
v -0.01436187 0.01527734 0.00788607
v -0.01417782 0.01525622 0.01368375
v -0.01432168 0.01514801 0.01929651
v -0.01096336 0.02022682 -0.02187519
v -0.01089983 0.01720169 -0.01189959
v -0.01066179 0.01736983 -0.00640802
v -0.01071933 0.01724979 -0.00066046
v -0.01081120 0.01728031 0.00497697
v -0.01071647 0.01726478 0.01064138
v -0.01049216 0.01720214 0.01644419
v -0.01140997 0.01747725 0.02107973
v -0.01105892 0.02015030 0.02347277
v -0.01455552 0.02599525 -0.01924235
v -0.01096049 0.02569580 -0.02120511
v -0.01433829 0.02664799 -0.01481060
v -0.01415756 0.02646067 -0.00897511
v -0.01415601 0.02636841 -0.00324412
v -0.01416073 0.02636632 0.00237137
v -0.01417168 0.02636368 0.00799997
v -0.01423781 0.02649390 0.01376544
v -0.01395624 0.02670234 0.01933112
v -0.01159079 0.02495854 0.02325954
v -0.01098713 0.02861827 -0.01755534
v -0.01078940 0.02876493 -0.01205636
v -0.01077891 0.02862203 -0.00628451
v -0.01078742 0.02860807 -0.00065291
v -0.01078685 0.02860706 0.00496263
v -0.01082247 0.02869207 0.01070335
v -0.01085692 0.02894648 0.01658359
v -0.01029336 0.02847563 0.02116899
v -0.00807133 -0.03043966 0.01680873
v -0.00379403 -0.03238022 0.01567410
v -0.00586060 -0.02983694 0.01289073
v -0.00849548 -0.02976139 0.02108159
v -0.00559921 -0.03234616 0.01967532
v -0.00526168 -0.02998593 0.02301175
v -0.00443931 -0.02694943 -0.01853873
v -0.00689121 -0.02417144 -0.02136390
v -0.00594477 -0.02746206 -0.01339837
v -0.00588548 -0.02728121 -0.00756756
v -0.00573005 -0.02715643 -0.00187879
v -0.00555859 -0.02709151 0.00376478
v -0.00610257 -0.02774548 0.00932786
v -0.00552532 -0.02462662 0.02420183
v -0.00538395 -0.01898657 -0.02183040
v -0.00838585 -0.01912631 -0.01207695
v -0.00676334 -0.01789528 -0.01560684
v -0.00416619 -0.02117598 -0.01307675
v -0.00527595 -0.02133198 -0.00792743
v -0.00878116 -0.01895799 -0.00657835
v -0.00514174 -0.02121786 -0.00210647
v -0.00871056 -0.01893027 -0.00078745
v -0.00509233 -0.02128616 0.00366176
v -0.00869208 -0.01890810 0.00493984
v -0.00508886 -0.02085969 0.00905092
v -0.00784828 -0.01844837 0.00972057
v -0.00490089 -0.01922651 0.01275090
v -0.00587634 -0.01933792 0.02302243
v -0.00548044 -0.01314744 -0.02162059
v -0.00559122 -0.01350723 -0.01644092
v -0.00703243 -0.01680558 0.01408695
v -0.00622487 -0.01672576 0.01931131
v -0.00564486 -0.00744543 -0.02154259
v -0.00552865 -0.00765473 -0.01615273
v -0.00564555 -0.00182641 -0.02154569
v -0.00577069 -0.00181279 -0.01599635
v -0.00563863 0.00379080 -0.02154848
v -0.00595975 0.00392099 -0.01606081
v -0.00572726 0.00944858 -0.02156522
v -0.00609325 0.00970942 -0.01621586
v -0.00590665 0.01519132 -0.02166084
v -0.00465437 0.01582422 -0.01582896
v -0.00611493 0.02104031 -0.02187504
v -0.00654543 0.01837500 -0.01282220
v -0.00630581 0.01883419 -0.00757194
v -0.00629048 0.01866164 -0.00172712
v -0.00638968 0.01866438 0.00397248
v -0.00541592 0.01851590 0.00988829
v -0.00550428 0.01774579 0.01521877
v -0.00667444 0.01842781 0.02041352
v -0.00535634 0.02135700 0.02348271
v -0.00486452 0.02618572 -0.02141104
v -0.00562185 0.02600683 0.02348057
v -0.00609110 0.02901127 -0.01863614
v -0.00590480 0.02951522 -0.01353557
v -0.00584999 0.02934579 -0.00777704
v -0.00585855 0.02930269 -0.00211685
v -0.00585746 0.02930530 0.00349953
v -0.00585855 0.02938734 0.00920292
v -0.00590397 0.02959498 0.01507881
v -0.00587797 0.02904985 0.02038156
v 0.00030765 -0.03214865 0.01622033
v -0.00136663 -0.03017380 0.01237411
v -0.00148555 -0.03254884 0.02023118
v 0.00048485 -0.02873638 0.02325185
v 0.00119211 -0.02693681 -0.01855033
v -0.00124711 -0.02412282 -0.02135158
v -0.00028370 -0.02741708 -0.01340423
v -0.00019046 -0.02721165 -0.00756674
v -0.00004285 -0.02710746 -0.00187480
v 0.00004823 -0.02701813 0.00370186
v 0.00052148 -0.02765705 0.00959948
v -0.00018877 -0.02302710 0.02360498
v 0.00022884 -0.01898164 -0.02183595
v -0.00123986 -0.01873124 -0.01588335
v 0.00132978 -0.02162794 -0.01287782
v -0.00014297 -0.02212760 -0.00775714
v -0.00003297 -0.02197539 -0.00190734
v 0.00010387 -0.02200325 0.00386494
v -0.00080322 -0.02200084 0.00869605
v -0.00030676 -0.02069391 0.01456471
v -0.00309316 -0.01870047 0.01706307
v 0.00028797 -0.02045027 0.02052263
v -0.00267268 -0.01941380 0.02121451
v 0.00013447 -0.01315230 -0.02162714
v 0.00027884 -0.01355804 -0.01629015
v -0.00002641 -0.00744645 -0.02154584
v 0.00025484 -0.00766350 -0.01603544
v -0.00002962 -0.00182509 -0.02154891
v 0.00007874 -0.00189881 -0.01592914
v -0.00001591 0.00379266 -0.02154864
v -0.00018136 0.00386017 -0.01596698
v -0.00003958 0.00943708 -0.02154638
v -0.00038485 0.00967697 -0.01614552
v -0.00021023 0.01517447 -0.02163292
v 0.00038101 0.01469057 -0.01637372
v -0.00043596 0.02100337 -0.02184856
v -0.00302752 0.02053205 -0.01358655
v 0.00028715 0.01959056 -0.01535609
v -0.00281051 0.02123943 -0.00907310
v -0.00268339 0.02103833 -0.00314405
v -0.00279291 0.02098271 0.00271775
v -0.00250565 0.02099763 0.00809056
v -0.00074945 0.02048041 0.01141267
v 0.00091517 0.01826792 0.01460032
v -0.00101771 0.01831305 0.02047033
v 0.00029948 0.02133082 0.02357396
v 0.00089354 0.02618379 -0.02129528
v -0.00051017 0.02254430 -0.01239869
v 0.00002170 0.02269038 -0.00775482
v -0.00001314 0.02252656 -0.00186402
v 0.00001377 0.02255735 0.00396002
v 0.00042881 0.02224539 0.00855024
v 0.00005644 0.02598031 0.02347092
v -0.00033553 0.02902305 -0.01845257
v -0.00014347 0.02952352 -0.01334857
v -0.00002277 0.02933080 -0.00756018
v -0.00002361 0.02925963 -0.00187095
v -0.00002436 0.02926150 0.00375060
v -0.00002130 0.02933436 0.00943776
v -0.00004123 0.02951637 0.01522826
v -0.00008977 0.02895339 0.02041584
v 0.00240892 -0.02979931 0.01459483
v 0.00282003 -0.03043246 0.01930302
v 0.00688942 -0.02704372 -0.01856722
v 0.00436348 -0.02414333 -0.02136842
v 0.00542088 -0.02750107 -0.01340166
v 0.00551803 -0.02729022 -0.00756448
v 0.00567432 -0.02720840 -0.00186339
v 0.00567342 -0.02715714 0.00372242
v 0.00587096 -0.02714221 0.00940238
v 0.00604823 -0.02785586 0.01577620
v 0.00563320 -0.02787333 0.02117794
v 0.00586116 -0.02523343 0.02351428
v 0.00585166 -0.01903446 -0.02185036
v 0.00505056 -0.01826186 -0.01556084
v 0.00577683 -0.02104002 -0.01229794
v 0.00495304 -0.02144343 -0.00760499
v 0.00504388 -0.02125437 -0.00168981
v 0.00524227 -0.02121996 0.00402965
v 0.00405973 -0.02101620 0.00993187
v 0.00349913 -0.01919215 0.01488947
v 0.00648133 -0.01847327 0.01195009
v 0.00287421 -0.01865256 0.01937373
v 0.00521735 -0.02042043 0.02326245
v 0.00578952 -0.01320510 -0.02163281
v 0.00525058 -0.01273989 -0.01626084
v 0.00652432 -0.01666853 0.01615393
v 0.00639084 -0.01690802 0.02114920
v 0.00562042 -0.00746635 -0.02154664
v 0.00601294 -0.00770849 -0.01613198
v 0.00558995 -0.00182498 -0.02154799
v 0.00590139 -0.00192934 -0.01603283
v 0.00560280 0.00379289 -0.02154612
v 0.00564346 0.00380149 -0.01603327
v 0.00560507 0.00941229 -0.02153908
v 0.00538464 0.00968131 -0.01624716
v 0.00543627 0.01511986 -0.02162331
v 0.00600988 0.01552420 -0.01590441
v 0.00523331 0.02102331 -0.02185900
v 0.00584270 0.01869805 -0.01300590
v 0.00235557 0.02122661 -0.01194761
v 0.00272625 0.02103390 -0.00649661
v 0.00628825 0.01880870 -0.00788226
v 0.00275455 0.02098276 -0.00065869
v 0.00630394 0.01864506 -0.00210687
v 0.00282623 0.02100245 0.00518440
v 0.00630588 0.01871544 0.00360736
v 0.00206583 0.02048468 0.01009637
v 0.00508259 0.01865797 0.00947236
v 0.00707173 0.01723926 0.01485073
v 0.00456920 0.01828937 0.02051499
v 0.00582518 0.02136685 0.02350955
v 0.00665600 0.02624457 -0.02134903
v 0.00578290 0.02600652 0.02356769
v 0.00544254 0.02910150 -0.01841882
v 0.00569289 0.02958953 -0.01318837
v 0.00581760 0.02938466 -0.00730889
v 0.00581767 0.02930472 -0.00160182
v 0.00581303 0.02930373 0.00401192
v 0.00581011 0.02934496 0.00966487
v 0.00578773 0.02949042 0.01542490
v 0.00572884 0.02895409 0.02060053
v 0.01265451 -0.02714562 -0.01844992
v 0.01009846 -0.02424984 -0.02139520
v 0.01118867 -0.02763349 -0.01327092
v 0.01126709 -0.02741600 -0.00740237
v 0.01142737 -0.02733844 -0.00169953
v 0.01143060 -0.02733807 0.00391263
v 0.01152687 -0.02733376 0.00955806
v 0.01166397 -0.02737034 0.01532731
v 0.01034185 -0.02675062 0.02053637
v 0.01146943 -0.02391701 0.02350129
v 0.01157884 -0.01908085 -0.02188402
v 0.00872604 -0.01855537 -0.01353221
v 0.00855229 -0.01920382 -0.00898027
v 0.00854094 -0.01899334 -0.00305076
v 0.00873872 -0.01893363 0.00266712
v 0.00836190 -0.01892703 0.00786585
v 0.01166151 -0.01875596 0.02357893
v 0.01150871 -0.01324465 -0.02169914
v 0.01072892 -0.01330761 -0.01564620
v 0.01153054 -0.01597174 -0.01183092
v 0.01130615 -0.01611136 -0.00622566
v 0.01134860 -0.01599949 -0.00042427
v 0.01140481 -0.01601776 0.00513800
v 0.01040925 -0.01597084 0.01090111
v 0.01099768 -0.01499941 0.01601599
v 0.01059126 -0.01536949 0.02036503
v 0.01134572 -0.00754062 -0.02160613
v 0.01097515 -0.00696126 -0.01627812
v 0.01126743 -0.00188186 -0.02156449
v 0.01171641 -0.00205611 -0.01625013
v 0.01125059 0.00377287 -0.02153993
v 0.01151390 0.00369992 -0.01630311
v 0.01121954 0.00941764 -0.02153714
v 0.01138765 0.00959968 -0.01646567
v 0.01104545 0.01519481 -0.02171007
v 0.01243445 0.01409945 -0.01548886
v 0.00953102 0.01537290 0.01584315
v 0.01243369 0.01243628 0.01606529
v 0.01079051 0.01472147 0.01290706
v 0.01196571 0.01457326 0.01833298
v 0.01102756 0.02107398 -0.02198764
v 0.01008790 0.01713275 -0.01357760
v 0.01067327 0.01748407 -0.00906326
v 0.01069403 0.01728112 -0.00320809
v 0.01068371 0.01733807 0.00248590
v 0.01013233 0.01711472 0.00858150
v 0.00961695 0.01749184 0.02012643
v 0.01172988 0.02054180 0.02357308
v 0.01217565 0.02552119 -0.02109221
v 0.01104722 0.02604688 0.02317823
v 0.01001308 0.02857857 -0.01915083
v 0.01073053 0.02899164 -0.01457976
v 0.01086825 0.02877200 -0.00866019
v 0.01083251 0.02869386 -0.00291621
v 0.01080734 0.02869224 0.00266907
v 0.01077015 0.02868612 0.00824025
v 0.01073824 0.02877607 0.01396040
v 0.01071540 0.02856894 0.01948389
v 0.01709667 -0.02661585 -0.01794700
v 0.01636590 -0.02383378 -0.02120946
v 0.01624685 -0.02702780 -0.01324197
v 0.01630141 -0.02680845 -0.00733256
v 0.01644627 -0.02672979 -0.00161033
v 0.01645109 -0.02673247 0.00400658
v 0.01649618 -0.02675104 0.00966875
v 0.01663634 -0.02688878 0.01540678
v 0.01566228 -0.02654209 0.02053670
v 0.01741564 -0.02299537 0.02331428
v 0.01651854 -0.01834468 -0.02195038
v 0.01690871 -0.01894276 0.02418231
v 0.01727199 -0.01339710 -0.02183741
v 0.01453159 -0.01271699 -0.01368025
v 0.01429509 -0.01334635 -0.00922415
v 0.01411352 -0.01322833 -0.00343565
v 0.01418760 -0.01320962 0.00228480
v 0.01411683 -0.01261897 0.00874553
v 0.01319520 -0.01308546 0.01426271
v 0.01415199 -0.01212940 0.01921999
v 0.01705376 -0.01413094 0.02331478
v 0.01715480 -0.00762303 -0.02172466
v 0.01579015 -0.00818268 -0.01562920
v 0.01735272 -0.01037842 -0.01203862
v 0.01711632 -0.01060623 -0.00657529
v 0.01707707 -0.01053835 -0.00081430
v 0.01705554 -0.01049083 0.00485975
v 0.01658523 -0.00952763 0.00965839
v 0.01728482 -0.00668342 0.01255078
v 0.01514036 -0.00913846 0.01448753
v 0.01627611 -0.00806829 0.01852137
v 0.01751407 -0.00972299 0.02150259
v 0.01705375 -0.00191736 -0.02165924
v 0.01680987 -0.00226357 -0.01580602
v 0.01711682 -0.00574701 0.01594296
v 0.01700576 0.00375940 -0.02162723
v 0.01668739 0.00357416 -0.01585201
v 0.01690183 0.00948002 -0.02170962
v 0.01664363 0.00913950 -0.01554188
v 0.01437267 0.01066265 0.01424234
v 0.01740860 0.00775404 0.01462802
v 0.01664449 0.01029858 0.01213166
v 0.01656380 0.00893505 0.01747125
v 0.01684925 0.01526142 -0.02194236
v 0.01652461 0.01248517 -0.01361682
v 0.01400880 0.01541074 -0.01176449
v 0.01434641 0.01530088 -0.00607797
v 0.01731823 0.01245418 -0.00900821
v 0.01428769 0.01532020 -0.00022217
v 0.01723002 0.01246039 -0.00305153
v 0.01427715 0.01536598 0.00535291
v 0.01716909 0.01267577 0.00272410
v 0.01408851 0.01389320 0.01025703
v 0.01713112 0.01222438 0.00806592
v 0.01375239 0.01579330 0.02139758
v 0.01557905 0.01240954 0.01995799
v 0.01767138 0.01480110 0.02324779
v 0.01717255 0.02042100 -0.02126355
v 0.01682855 0.02123375 0.02363442
v 0.01619099 0.02384583 -0.01927156
v 0.01387016 0.02678456 -0.01745989
v 0.01703879 0.02369438 -0.01472956
v 0.01433775 0.02658992 -0.01183809
v 0.01699968 0.02355613 -0.00888365
v 0.01426569 0.02649463 -0.00601858
v 0.01690785 0.02355393 -0.00320593
v 0.01420856 0.02649500 -0.00043201
v 0.01684148 0.02353765 0.00241856
v 0.01416268 0.02647905 0.00514808
v 0.01742276 0.02364107 0.00891886
v 0.01416027 0.02655642 0.01089166
v 0.01768495 0.02446663 0.01529239
v 0.01419671 0.02664920 0.01673439
v 0.01777614 0.02385607 0.02056504
v 0.01418082 0.02587997 0.02125706
v 0.02008692 -0.02422642 -0.01926612
v 0.01994450 -0.02489038 -0.01475538
v 0.01986828 -0.02470678 -0.00885513
v 0.01994997 -0.02460740 -0.00308118
v 0.01995726 -0.02459199 0.00256221
v 0.01994473 -0.02457730 0.00825897
v 0.02002821 -0.02466388 0.01407019
v 0.01974148 -0.02484301 0.01955959
v 0.02286386 -0.02169695 -0.01745445
v 0.02127915 -0.01952567 -0.02118188
v 0.02272499 -0.02185825 -0.01189944
v 0.02267852 -0.02172175 -0.00611250
v 0.02268256 -0.02166411 -0.00044803
v 0.02265579 -0.02165142 0.00522461
v 0.02268378 -0.02164065 0.01096281
v 0.02277955 -0.02184223 0.01675283
v 0.02203374 -0.02199056 0.02122467
v 0.02255262 -0.01799794 0.02334728
v 0.02296580 -0.01289578 -0.02140709
v 0.02277253 -0.01320123 0.02414561
v 0.02210104 -0.00690963 -0.02186838
v 0.01928052 -0.00634695 -0.01302676
v 0.01941909 -0.00724476 -0.00792356
v 0.01927770 -0.00707636 -0.00213298
v 0.01931938 -0.00704882 0.00358198
v 0.01884538 -0.00695626 0.00890914
v 0.01921712 -0.00560891 0.02015179
v 0.02236495 -0.00885065 0.02351024
v 0.02288677 -0.00205700 -0.02186960
v 0.01964983 -0.00093805 -0.01299089
v 0.02015315 -0.00223038 -0.00787591
v 0.01998892 -0.00198165 -0.00204839
v 0.02000920 -0.00185619 0.00368932
v 0.01995184 -0.00192258 0.00938457
v 0.01917196 -0.00248192 0.01539209
v 0.02036347 -0.00096993 0.02104006
v 0.02320367 -0.00305281 0.02337500
v 0.02284465 0.00365357 -0.02189465
v 0.01960049 0.00492594 -0.01286277
v 0.02018368 0.00359282 -0.00765642
v 0.02001503 0.00386663 -0.00177196
v 0.01995614 0.00399904 0.00398086
v 0.01999084 0.00312536 0.00883237
v 0.01936091 0.00452033 0.01515783
v 0.02035761 0.00381556 0.02049816
v 0.02325317 0.00252438 0.02347238
v 0.02276437 0.00942090 -0.02201502
v 0.01901274 0.00946133 -0.01236103
v 0.01951732 0.00873951 -0.00762010
v 0.01933773 0.00893546 -0.00169167
v 0.01927115 0.00912642 0.00406154
v 0.01906366 0.00792168 0.01006716
v 0.01909834 0.00902077 0.02081481
v 0.02272132 0.00890488 0.02361628
v 0.02304021 0.01463163 -0.02125269
v 0.02281031 0.01578028 0.02363434
v 0.02187597 0.01803385 -0.01925547
v 0.01946005 0.02084159 -0.01756037
v 0.02262758 0.01792698 -0.01471978
v 0.01979108 0.02068046 -0.01199177
v 0.02253359 0.01785261 -0.00888145
v 0.01967029 0.02065727 -0.00619073
v 0.02246133 0.01783633 -0.00317172
v 0.01959242 0.02062919 -0.00055534
v 0.02239185 0.01776708 0.00245971
v 0.01956041 0.02065708 0.00510165
v 0.02244792 0.01818044 0.00779774
v 0.02044400 0.02115516 0.00991567
v 0.02296434 0.02005399 0.01195313
v 0.02160772 0.02099489 0.02292249
v 0.02129450 0.02276881 0.01423181
v 0.02209966 0.02284410 0.01939655
v 0.02468912 -0.01745052 -0.01850137
v 0.02479975 -0.01828854 -0.01332733
v 0.02467850 -0.01813163 -0.00752502
v 0.02466291 -0.01803081 -0.00186101
v 0.02467359 -0.01799771 0.00379355
v 0.02456137 -0.01865445 0.00865147
v 0.02549566 -0.01792501 0.01376849
v 0.02535738 -0.01903374 0.01941301
v 0.02615025 -0.01309959 -0.01923038
v 0.02618721 -0.01404199 -0.01480459
v 0.02599692 -0.01387857 -0.00897442
v 0.02595963 -0.01373885 -0.00325703
v 0.02596047 -0.01363688 0.00239117
v 0.02619205 -0.01414046 0.00846420
v 0.02794677 -0.01387761 0.01264971
v 0.02858236 -0.01576097 0.01689725
v 0.02792654 -0.01622352 0.02110331
v 0.02753541 -0.01235949 0.02320084
v 0.02848594 -0.01035939 -0.01754777
v 0.02693939 -0.00815913 -0.02119474
v 0.02826577 -0.01051938 -0.01204801
v 0.02816728 -0.01035530 -0.00627983
v 0.02814225 -0.01025716 -0.00067454
v 0.02817248 -0.01023040 0.00494551
v 0.02864307 -0.01104525 0.00966637
v 0.02788654 -0.00610139 0.02343684
v 0.02802158 -0.00225829 -0.02142942
v 0.02778191 -0.00031335 0.02347929
v 0.02799573 0.00353218 -0.02145464
v 0.02777780 0.00532326 0.02356174
v 0.02797080 0.00903753 -0.02112990
v 0.02715796 0.01060684 0.02318440
v 0.02780476 0.01230705 -0.01922184
v 0.02526401 0.01518061 -0.01748376
v 0.02854223 0.01231759 -0.01463285
v 0.02550433 0.01512469 -0.01185121
v 0.02839690 0.01236646 -0.00869662
v 0.02537667 0.01512718 -0.00601596
v 0.02829945 0.01244536 -0.00292107
v 0.02535734 0.01507712 -0.00036925
v 0.02829715 0.01238400 0.00269375
v 0.02532840 0.01503726 0.00521119
v 0.02827915 0.01235600 0.00828154
v 0.02543882 0.01605442 0.01100422
v 0.02835444 0.01247470 0.01396148
v 0.02628720 0.01596469 0.01672748
v 0.02848455 0.01210466 0.01946311
v 0.02609980 0.01485038 0.02122750
v 0.02454528 0.02030721 0.01569424
v 0.02468674 0.01929619 0.02053926
v 0.03053706 -0.01146709 0.01478298
v 0.03043192 -0.01335115 0.01980530
v 0.03046000 -0.00631097 -0.01864410
v 0.03059851 -0.00717763 -0.01354118
v 0.03043236 -0.00702046 -0.00778204
v 0.03041178 -0.00695046 -0.00214076
v 0.03038317 -0.00688345 0.00346784
v 0.03061007 -0.00740194 0.00974904
v 0.03146808 -0.00667682 0.01590369
v 0.03093403 -0.00886098 0.02031299
v 0.03090025 -0.00093180 -0.01861915
v 0.03140372 -0.00223112 -0.01350612
v 0.03123347 -0.00206187 -0.00771595
v 0.03119140 -0.00195773 -0.00203048
v 0.03118544 -0.00191407 0.00355773
v 0.03122409 -0.00176312 0.00923583
v 0.03138703 -0.00170816 0.01512881
v 0.03082348 -0.00306772 0.02043514
v 0.03087835 0.00491435 -0.01848283
v 0.03143879 0.00359726 -0.01328166
v 0.03126387 0.00377552 -0.00741176
v 0.03119593 0.00392260 -0.00170657
v 0.03119612 0.00392636 0.00391271
v 0.03123366 0.00404283 0.00958036
v 0.03136644 0.00408925 0.01533604
v 0.03075866 0.00272345 0.02050071
v 0.03031620 0.00940504 -0.01796841
v 0.03077003 0.00874527 -0.01323949
v 0.03057946 0.00888345 -0.00731898
v 0.03050098 0.00902253 -0.00159371
v 0.03049837 0.00899294 0.00401924
v 0.03049209 0.00899888 0.00966973
v 0.03060276 0.00905141 0.01542699
v 0.03037948 0.00803126 0.02060405
f 3 2 1
f 5 4 1
f 5 1 2
f 6 4 5
f 9 8 7
f 11 10 7
f 11 7 8
f 13 12 10
f 13 10 11
f 15 14 12
f 15 12 13
f 17 16 14
f 17 14 15
f 19 18 16
f 19 16 17
f 18 19 3
f 1 18 3
f 20 18 1
f 21 1 4
f 20 1 21
f 4 6 22
f 4 22 21
f 9 7 23
f 9 23 24
f 25 7 10
f 23 7 25
f 26 10 12
f 25 10 26
f 27 12 14
f 26 12 27
f 28 14 16
f 27 14 28
f 29 16 18
f 28 16 29
f 30 18 20
f 29 18 30
f 31 20 21
f 30 20 31
f 21 22 32
f 21 32 31
f 24 23 33
f 24 33 34
f 35 23 25
f 33 23 35
f 36 25 26
f 35 25 36
f 37 26 27
f 36 26 37
f 38 27 28
f 37 27 38
f 39 28 29
f 38 28 39
f 40 29 30
f 39 29 40
f 41 30 31
f 40 30 41
f 31 32 42
f 31 42 41
f 34 33 43
f 34 43 44
f 45 33 35
f 43 33 45
f 46 35 36
f 45 35 46
f 47 36 37
f 46 36 47
f 48 37 38
f 47 37 48
f 49 38 39
f 48 38 49
f 50 39 40
f 49 39 50
f 51 40 41
f 50 40 51
f 41 42 52
f 41 52 51
f 53 44 43
f 53 43 45
f 53 45 54
f 54 45 46
f 54 46 55
f 55 46 47
f 55 47 56
f 56 47 48
f 56 48 57
f 57 48 49
f 57 49 58
f 58 49 50
f 58 50 59
f 59 50 51
f 59 51 60
f 60 51 52
f 63 62 61
f 65 64 61
f 65 61 62
f 67 66 64
f 67 64 65
f 69 68 66
f 69 66 67
f 71 70 68
f 71 68 69
f 73 72 70
f 73 70 71
f 75 74 72
f 75 72 73
f 77 76 74
f 77 74 75
f 78 76 77
f 63 61 79
f 63 79 80
f 81 61 64
f 79 61 81
f 82 64 66
f 81 64 82
f 83 66 68
f 82 66 83
f 84 68 70
f 83 68 84
f 85 70 72
f 84 70 85
f 3 85 2
f 85 74 2
f 85 72 74
f 2 74 5
f 5 74 76
f 6 5 76
f 78 6 76
f 86 6 78
f 80 79 8
f 9 80 8
f 87 80 9
f 8 79 11
f 11 79 81
f 11 81 13
f 13 81 82
f 13 82 15
f 15 82 83
f 15 83 17
f 17 83 84
f 17 84 19
f 19 84 85
f 19 85 3
f 86 22 6
f 88 22 86
f 24 87 9
f 24 89 87
f 88 32 22
f 90 32 88
f 34 89 24
f 34 91 89
f 90 42 32
f 92 42 90
f 44 91 34
f 44 93 91
f 92 52 42
f 94 52 92
f 44 53 95
f 96 44 95
f 93 44 96
f 54 97 53
f 53 97 95
f 55 98 54
f 54 98 97
f 56 99 55
f 55 99 98
f 57 100 56
f 56 100 99
f 58 101 57
f 57 101 100
f 59 102 58
f 58 102 101
f 60 103 59
f 59 103 102
f 104 103 60
f 52 104 60
f 94 104 52
f 96 95 105
f 96 105 106
f 107 95 97
f 105 95 107
f 108 97 98
f 107 97 108
f 109 98 99
f 108 98 109
f 110 99 100
f 109 99 110
f 111 100 101
f 110 100 111
f 112 101 102
f 111 101 112
f 113 102 103
f 112 102 113
f 103 104 114
f 103 114 113
f 115 106 105
f 115 105 107
f 115 107 116
f 116 107 108
f 116 108 117
f 117 108 109
f 117 109 118
f 118 109 110
f 118 110 119
f 119 110 111
f 119 111 120
f 120 111 112
f 120 112 121
f 121 112 113
f 121 113 122
f 122 113 114
f 125 124 123
f 127 126 123
f 127 123 124
f 129 128 126
f 129 126 127
f 131 130 128
f 131 128 129
f 133 132 130
f 133 130 131
f 135 134 132
f 135 132 133
f 137 136 134
f 137 134 135
f 139 138 136
f 139 136 137
f 140 138 139
f 125 123 62
f 63 125 62
f 141 125 63
f 62 123 65
f 65 123 126
f 65 126 67
f 67 126 128
f 67 128 69
f 69 128 130
f 69 130 71
f 71 130 132
f 71 132 73
f 73 132 134
f 73 134 75
f 75 134 136
f 75 136 77
f 77 136 138
f 78 77 138
f 140 78 138
f 142 78 140
f 80 141 63
f 80 143 141
f 142 86 78
f 144 86 142
f 87 143 80
f 87 145 143
f 148 147 146
f 150 149 146
f 146 149 148
f 152 151 150
f 150 151 149
f 154 153 152
f 152 153 151
f 156 155 154
f 154 155 153
f 158 157 156
f 156 157 155
f 160 159 158
f 158 159 157
f 144 159 160
f 88 144 160
f 86 144 88
f 89 145 87
f 89 161 145
f 146 147 162
f 162 147 163
f 146 164 150
f 146 162 164
f 150 165 152
f 150 164 165
f 152 166 154
f 152 165 166
f 154 167 156
f 154 166 167
f 156 168 158
f 156 167 168
f 158 169 160
f 158 168 169
f 169 90 88
f 169 88 160
f 91 161 89
f 91 170 161
f 162 163 171
f 171 163 172
f 162 173 164
f 162 171 173
f 164 174 165
f 164 173 174
f 165 175 166
f 165 174 175
f 166 176 167
f 166 175 176
f 167 177 168
f 167 176 177
f 168 178 169
f 168 177 178
f 178 92 90
f 178 90 169
f 93 170 91
f 93 179 170
f 171 172 180
f 180 172 181
f 171 182 173
f 171 180 182
f 173 183 174
f 173 182 183
f 174 184 175
f 174 183 184
f 175 185 176
f 175 184 185
f 176 186 177
f 176 185 186
f 177 187 178
f 177 186 187
f 187 94 92
f 187 92 178
f 96 179 93
f 96 188 179
f 181 189 180
f 180 189 182
f 182 189 190
f 182 190 183
f 183 190 191
f 183 191 184
f 184 191 192
f 184 192 185
f 185 192 193
f 185 193 186
f 186 193 194
f 186 194 187
f 187 194 195
f 94 187 195
f 196 94 195
f 104 94 196
f 106 188 96
f 106 197 188
f 196 114 104
f 198 114 196
f 199 197 106
f 199 106 115
f 200 115 116
f 200 199 115
f 201 116 117
f 201 200 116
f 202 117 118
f 202 201 117
f 203 118 119
f 203 202 118
f 204 119 120
f 204 203 119
f 205 120 121
f 205 204 120
f 206 121 122
f 206 205 121
f 122 114 198
f 122 198 206
f 208 207 124
f 208 124 125
f 124 209 127
f 207 209 124
f 127 210 129
f 209 210 127
f 129 211 131
f 210 211 129
f 131 212 133
f 211 212 131
f 133 213 135
f 212 213 133
f 135 214 137
f 213 214 135
f 137 215 139
f 214 215 137
f 140 139 215
f 140 215 216
f 141 208 125
f 141 217 208
f 216 142 140
f 218 142 216
f 143 217 141
f 143 219 217
f 222 221 220
f 224 223 220
f 220 223 222
f 226 225 224
f 224 225 223
f 228 227 226
f 226 227 225
f 230 229 228
f 228 229 227
f 232 231 230
f 230 231 229
f 234 233 232
f 232 233 231
f 218 233 234
f 144 218 234
f 142 218 144
f 145 219 143
f 145 235 219
f 220 221 148
f 221 147 148
f 221 236 147
f 220 148 149
f 220 149 224
f 224 149 151
f 224 151 226
f 226 151 153
f 226 153 228
f 228 153 155
f 228 155 230
f 230 155 157
f 230 157 232
f 232 157 159
f 232 159 234
f 234 159 144
f 161 235 145
f 161 237 235
f 236 163 147
f 238 163 236
f 170 237 161
f 170 239 237
f 238 172 163
f 240 172 238
f 179 239 170
f 179 241 239
f 240 181 172
f 242 181 240
f 188 241 179
f 188 243 241
f 189 181 244
f 181 245 244
f 181 242 245
f 246 190 189
f 246 189 244
f 247 191 190
f 247 190 246
f 248 192 191
f 248 191 247
f 249 193 192
f 249 192 248
f 250 194 193
f 250 193 249
f 251 195 194
f 251 194 250
f 251 196 195
f 197 243 188
f 197 252 243
f 245 253 244
f 244 253 246
f 246 253 254
f 246 254 247
f 247 254 255
f 247 255 248
f 248 255 256
f 248 256 249
f 249 256 257
f 249 257 250
f 250 257 258
f 250 258 251
f 251 258 259
f 196 251 259
f 260 196 259
f 198 196 260
f 197 199 261
f 262 197 261
f 252 197 262
f 200 263 199
f 199 263 261
f 201 264 200
f 200 264 263
f 202 265 201
f 201 265 264
f 203 266 202
f 202 266 265
f 204 267 203
f 203 267 266
f 205 268 204
f 204 268 267
f 206 269 205
f 205 269 268
f 270 269 206
f 198 270 206
f 260 270 198
f 271 262 261
f 271 261 263
f 271 263 272
f 272 263 264
f 272 264 273
f 273 264 265
f 273 265 274
f 274 265 266
f 274 266 275
f 275 266 267
f 275 267 276
f 276 267 268
f 276 268 277
f 277 268 269
f 277 269 278
f 278 269 270
f 281 280 279
f 283 282 279
f 283 279 280
f 284 282 283
f 286 285 207
f 286 207 208
f 207 287 209
f 285 287 207
f 209 288 210
f 287 288 209
f 210 289 211
f 288 289 210
f 211 290 212
f 289 290 211
f 212 291 213
f 290 291 212
f 279 214 281
f 214 291 281
f 214 213 291
f 214 279 215
f 215 279 282
f 216 215 282
f 284 216 282
f 292 216 284
f 217 286 208
f 217 293 286
f 296 295 294
f 298 297 294
f 294 297 296
f 300 299 298
f 298 299 297
f 302 301 300
f 300 301 299
f 304 303 302
f 302 303 301
f 304 305 303
f 292 218 216
f 306 218 292
f 219 293 217
f 219 307 293
f 294 295 222
f 295 221 222
f 295 308 221
f 294 222 223
f 294 223 298
f 298 223 225
f 298 225 300
f 300 225 227
f 300 227 302
f 302 227 229
f 302 229 304
f 309 305 304
f 229 309 304
f 231 309 229
f 310 231 233
f 310 309 231
f 233 218 306
f 233 306 310
f 235 307 219
f 235 311 307
f 308 236 221
f 312 236 308
f 237 311 235
f 237 313 311
f 312 238 236
f 314 238 312
f 239 313 237
f 239 315 313
f 314 240 238
f 316 240 314
f 241 315 239
f 241 317 315
f 316 242 240
f 318 242 316
f 243 317 241
f 243 319 317
f 318 245 242
f 320 245 318
f 252 319 243
f 252 321 319
f 320 322 245
f 245 322 253
f 253 323 254
f 322 323 253
f 254 324 255
f 323 324 254
f 255 325 256
f 324 325 255
f 256 326 257
f 325 326 256
f 257 327 258
f 326 327 257
f 258 328 259
f 327 328 258
f 260 259 328
f 260 328 329
f 262 321 252
f 262 330 321
f 329 270 260
f 331 270 329
f 332 330 262
f 332 262 271
f 333 271 272
f 333 332 271
f 334 272 273
f 334 333 272
f 335 273 274
f 335 334 273
f 336 274 275
f 336 335 274
f 337 275 276
f 337 336 275
f 338 276 277
f 338 337 276
f 339 277 278
f 339 338 277
f 278 270 331
f 278 331 339
f 341 340 280
f 341 280 281
f 280 342 283
f 340 342 280
f 284 283 342
f 284 342 343
f 345 344 285
f 345 285 286
f 285 346 287
f 344 346 285
f 287 347 288
f 346 347 287
f 288 348 289
f 347 348 288
f 289 349 290
f 348 349 289
f 290 350 291
f 349 350 290
f 281 291 341
f 341 291 350
f 343 292 284
f 351 292 343
f 293 345 286
f 293 352 345
f 354 353 296
f 296 353 295
f 355 296 297
f 355 354 296
f 356 297 299
f 356 355 297
f 357 299 301
f 357 356 299
f 358 301 303
f 358 357 301
f 360 359 305
f 359 303 305
f 359 358 303
f 362 361 360
f 360 361 359
f 351 361 362
f 306 351 362
f 292 351 306
f 307 352 293
f 307 363 352
f 353 308 295
f 364 308 353
f 309 360 305
f 360 309 310
f 360 310 362
f 362 310 306
f 311 363 307
f 311 365 363
f 364 312 308
f 366 312 364
f 313 365 311
f 313 367 365
f 366 314 312
f 368 314 366
f 315 367 313
f 315 369 367
f 368 316 314
f 370 316 368
f 317 369 315
f 317 371 369
f 370 318 316
f 372 318 370
f 319 371 317
f 319 373 371
f 372 320 318
f 374 320 372
f 321 373 319
f 321 375 373
f 322 320 376
f 320 377 376
f 320 374 377
f 378 323 322
f 378 322 376
f 379 324 323
f 379 323 378
f 380 325 324
f 380 324 379
f 381 326 325
f 381 325 380
f 326 381 382
f 383 326 382
f 327 326 383
f 327 384 328
f 383 384 327
f 329 328 384
f 329 384 385
f 330 375 321
f 330 386 375
f 377 387 376
f 376 387 378
f 378 387 388
f 378 388 379
f 379 388 389
f 379 389 380
f 380 389 390
f 380 390 381
f 381 390 391
f 381 391 382
f 385 331 329
f 392 331 385
f 393 386 330
f 393 330 332
f 394 332 333
f 394 393 332
f 395 333 334
f 395 394 333
f 396 334 335
f 396 395 334
f 397 335 336
f 397 396 335
f 398 336 337
f 398 397 336
f 399 337 338
f 399 398 337
f 400 338 339
f 400 399 338
f 339 331 392
f 339 392 400
f 341 401 340
f 402 342 340
f 402 340 401
f 402 343 342
f 404 403 344
f 404 344 345
f 344 405 346
f 403 405 344
f 346 406 347
f 405 406 346
f 347 407 348
f 406 407 347
f 348 408 349
f 407 408 348
f 349 409 350
f 408 409 349
f 341 350 401
f 350 410 401
f 350 409 410
f 401 410 402
f 402 410 411
f 343 402 411
f 412 343 411
f 351 343 412
f 352 404 345
f 352 413 404
f 415 414 354
f 354 414 353
f 416 354 355
f 416 415 354
f 417 355 356
f 417 416 355
f 418 356 357
f 418 417 356
f 419 357 358
f 419 418 357
f 421 419 420
f 419 359 420
f 419 358 359
f 361 422 359
f 359 422 420
f 423 422 361
f 351 423 361
f 412 423 351
f 363 413 352
f 363 424 413
f 414 364 353
f 425 364 414
f 426 421 420
f 426 420 422
f 426 422 427
f 427 422 423
f 365 424 363
f 365 428 424
f 425 366 364
f 429 366 425
f 367 428 365
f 367 430 428
f 429 368 366
f 431 368 429
f 369 430 367
f 369 432 430
f 431 370 368
f 433 370 431
f 371 432 369
f 371 434 432
f 433 372 370
f 435 372 433
f 373 434 371
f 373 436 434
f 435 374 372
f 437 374 435
f 375 436 373
f 375 438 436
f 440 377 439
f 377 437 439
f 377 374 437
f 442 441 440
f 442 440 439
f 444 443 441
f 444 441 442
f 446 445 443
f 446 443 444
f 448 447 445
f 448 445 446
f 383 382 447
f 448 383 447
f 449 383 448
f 383 450 384
f 449 450 383
f 385 384 450
f 385 450 451
f 386 438 375
f 386 452 438
f 440 387 377
f 387 440 388
f 388 440 441
f 388 441 389
f 389 441 443
f 389 443 390
f 390 443 445
f 390 445 391
f 391 445 447
f 391 447 382
f 451 392 385
f 453 392 451
f 454 452 386
f 454 386 393
f 455 393 394
f 455 454 393
f 456 394 395
f 456 455 394
f 457 395 396
f 457 456 395
f 458 396 397
f 458 457 396
f 459 397 398
f 459 458 397
f 460 398 399
f 460 459 398
f 461 399 400
f 461 460 399
f 400 392 453
f 400 453 461
f 463 462 403
f 463 403 404
f 403 464 405
f 462 464 403
f 405 465 406
f 464 465 405
f 406 466 407
f 465 466 406
f 407 467 408
f 466 467 407
f 408 468 409
f 467 468 408
f 409 469 410
f 468 469 409
f 410 470 411
f 469 470 410
f 412 411 470
f 412 470 471
f 413 463 404
f 413 472 463
f 473 414 415
f 416 474 415
f 415 474 473
f 417 475 416
f 416 475 474
f 418 476 417
f 417 476 475
f 419 477 418
f 418 477 476
f 421 477 419
f 471 423 412
f 478 423 471
f 424 472 413
f 424 479 472
f 481 480 473
f 480 414 473
f 480 425 414
f 481 473 474
f 481 474 482
f 482 474 475
f 482 475 483
f 483 475 476
f 483 476 484
f 484 476 477
f 484 477 485
f 485 477 421
f 426 485 421
f 486 485 426
f 487 426 427
f 487 486 426
f 427 423 478
f 427 478 487
f 428 479 424
f 428 488 479
f 480 429 425
f 489 429 480
f 430 488 428
f 430 490 488
f 489 431 429
f 491 431 489
f 432 490 430
f 432 492 490
f 491 433 431
f 493 433 491
f 434 492 432
f 434 494 492
f 493 435 433
f 495 435 493
f 436 494 434
f 436 496 494
f 495 437 435
f 497 437 495
f 500 499 498
f 501 498 499
f 438 496 436
f 438 502 496
f 497 503 437
f 437 503 439
f 439 504 442
f 503 504 439
f 442 505 444
f 504 505 442
f 444 506 446
f 505 506 444
f 446 507 448
f 506 507 446
f 498 449 500
f 449 507 500
f 449 448 507
f 501 508 498
f 508 449 498
f 508 450 449
f 451 450 508
f 451 508 509
f 452 502 438
f 452 510 502
f 509 453 451
f 511 453 509
f 512 510 452
f 512 452 454
f 513 454 455
f 513 512 454
f 514 455 456
f 514 513 455
f 515 456 457
f 515 514 456
f 516 457 458
f 516 515 457
f 517 458 459
f 517 516 458
f 518 459 460
f 518 517 459
f 519 460 461
f 519 518 460
f 461 453 511
f 461 511 519
f 521 520 462
f 521 462 463
f 462 522 464
f 520 522 462
f 464 523 465
f 522 523 464
f 465 524 466
f 523 524 465
f 466 525 467
f 524 525 466
f 467 526 468
f 525 526 467
f 468 527 469
f 526 527 468
f 469 528 470
f 527 528 469
f 471 470 528
f 471 528 529
f 472 521 463
f 472 530 521
f 529 478 471
f 531 478 529
f 479 530 472
f 479 532 530
f 533 480 481
f 482 534 481
f 481 534 533
f 483 535 482
f 482 535 534
f 484 536 483
f 483 536 535
f 485 537 484
f 484 537 536
f 486 538 485
f 485 538 537
f 487 539 486
f 486 539 538
f 540 539 487
f 478 540 487
f 531 540 478
f 488 532 479
f 488 541 532
f 543 542 533
f 542 480 533
f 542 489 480
f 543 533 534
f 543 534 544
f 544 534 535
f 544 535 545
f 545 535 536
f 545 536 546
f 546 536 537
f 546 537 547
f 549 548 547
f 537 549 547
f 538 549 537
f 539 551 550
f 549 539 550
f 538 539 549
f 551 539 540
f 490 541 488
f 490 552 541
f 542 491 489
f 553 491 542
f 554 548 549
f 554 549 550
f 492 552 490
f 492 555 552
f 553 493 491
f 556 493 553
f 494 555 492
f 494 557 555
f 556 495 493
f 558 495 556
f 561 560 559
f 562 559 560
f 496 557 494
f 496 563 557
f 565 497 564
f 497 558 564
f 497 495 558
f 567 566 565
f 567 565 564
f 569 568 566
f 569 566 567
f 571 570 568
f 571 568 569
f 573 572 570
f 573 570 571
f 572 573 561
f 572 561 559
f 500 572 559
f 499 500 559
f 575 574 501
f 575 501 499
f 562 575 499
f 559 562 499
f 576 574 575
f 502 563 496
f 502 577 563
f 565 503 497
f 503 565 504
f 504 565 566
f 504 566 505
f 505 566 568
f 505 568 506
f 506 568 570
f 506 570 507
f 507 570 572
f 507 572 500
f 574 508 501
f 509 508 574
f 576 509 574
f 578 509 576
f 510 580 579
f 577 510 579
f 502 510 577
f 582 581 580
f 580 581 579
f 584 583 582
f 582 583 581
f 586 585 584
f 584 585 583
f 588 587 586
f 586 587 585
f 590 589 588
f 588 589 587
f 592 591 590
f 590 591 589
f 594 593 592
f 592 593 591
f 578 593 594
f 511 578 594
f 509 578 511
f 512 580 510
f 580 512 513
f 580 513 582
f 582 513 514
f 582 514 584
f 584 514 515
f 584 515 586
f 586 515 516
f 586 516 588
f 588 516 517
f 588 517 590
f 590 517 518
f 590 518 592
f 592 518 519
f 592 519 594
f 594 519 511
f 521 595 520
f 596 522 520
f 596 520 595
f 597 523 522
f 597 522 596
f 598 524 523
f 598 523 597
f 599 525 524
f 599 524 598
f 600 526 525
f 600 525 599
f 601 527 526
f 601 526 600
f 602 528 527
f 602 527 601
f 602 529 528
f 604 603 595
f 521 604 595
f 530 604 521
f 595 603 596
f 596 603 605
f 596 605 597
f 597 605 606
f 597 606 598
f 598 606 607
f 598 607 599
f 599 607 608
f 599 608 600
f 600 608 609
f 600 609 601
f 601 609 610
f 601 610 602
f 602 610 611
f 529 602 611
f 612 529 611
f 531 529 612
f 532 604 530
f 532 613 604
f 612 540 531
f 614 540 612
f 541 613 532
f 541 615 613
f 616 542 543
f 544 617 543
f 543 617 616
f 545 618 544
f 544 618 617
f 546 619 545
f 545 619 618
f 547 620 546
f 546 620 619
f 548 620 547
f 621 550 551
f 622 621 551
f 540 622 551
f 614 622 540
f 552 615 541
f 552 623 615
f 624 553 616
f 616 553 542
f 625 616 617
f 624 616 625
f 626 617 618
f 625 617 626
f 627 618 619
f 626 618 627
f 628 619 620
f 627 619 628
f 554 629 548
f 629 620 548
f 629 628 620
f 550 621 554
f 621 629 554
f 621 630 629
f 621 622 631
f 621 631 630
f 555 623 552
f 555 632 623
f 633 556 624
f 624 556 553
f 634 624 625
f 633 624 634
f 635 625 626
f 634 625 635
f 636 626 627
f 635 626 636
f 637 627 628
f 636 627 637
f 638 628 629
f 637 628 638
f 639 629 630
f 638 629 639
f 630 631 640
f 630 640 639
f 557 632 555
f 557 641 632
f 642 558 633
f 633 558 556
f 643 633 634
f 642 633 643
f 644 634 635
f 643 634 644
f 645 635 636
f 644 635 645
f 646 636 637
f 645 636 646
f 561 646 560
f 646 638 560
f 646 637 638
f 560 638 562
f 638 647 562
f 638 639 647
f 639 640 648
f 639 648 647
f 563 641 557
f 563 649 641
f 642 564 558
f 564 642 567
f 567 642 643
f 567 643 569
f 569 643 644
f 569 644 571
f 571 644 645
f 571 645 573
f 573 645 646
f 573 646 561
f 647 575 562
f 576 575 647
f 648 576 647
f 650 576 648
f 577 652 651
f 649 577 651
f 563 577 649
f 654 653 652
f 652 653 651
f 656 655 654
f 654 655 653
f 658 657 656
f 656 657 655
f 660 659 658
f 658 659 657
f 662 661 660
f 660 661 659
f 662 663 661
f 650 578 576
f 664 578 650
f 579 652 577
f 652 579 581
f 652 581 654
f 654 581 583
f 654 583 656
f 656 583 585
f 656 585 658
f 658 585 587
f 658 587 660
f 660 587 589
f 660 589 662
f 665 663 662
f 589 665 662
f 591 665 589
f 666 591 593
f 666 665 591
f 593 578 664
f 593 664 666
f 604 667 603
f 668 605 603
f 668 603 667
f 669 606 605
f 669 605 668
f 670 607 606
f 670 606 669
f 671 608 607
f 671 607 670
f 672 609 608
f 672 608 671
f 673 610 609
f 673 609 672
f 674 611 610
f 674 610 673
f 674 612 611
f 613 675 667
f 613 667 604
f 667 676 668
f 667 675 676
f 668 677 669
f 668 676 677
f 669 678 670
f 669 677 678
f 670 679 671
f 670 678 679
f 671 680 672
f 671 679 680
f 682 673 681
f 673 680 681
f 673 672 680
f 673 682 674
f 674 682 683
f 612 674 683
f 684 612 683
f 614 612 684
f 686 685 675
f 613 686 675
f 615 686 613
f 675 685 676
f 676 685 687
f 676 687 677
f 677 687 688
f 677 688 678
f 678 688 689
f 678 689 679
f 679 689 690
f 679 690 680
f 680 690 691
f 680 691 681
f 684 622 614
f 692 622 684
f 623 686 615
f 623 693 686
f 692 631 622
f 694 631 692
f 632 693 623
f 632 695 693
f 694 640 631
f 696 640 694
f 641 695 632
f 641 697 695
f 696 648 640
f 698 648 696
f 649 700 699
f 697 649 699
f 641 649 697
f 702 701 700
f 700 701 699
f 704 703 702
f 702 703 701
f 706 705 704
f 704 705 703
f 708 707 706
f 706 707 705
f 710 709 708
f 708 709 707
f 712 711 710
f 710 711 709
f 714 713 712
f 712 713 711
f 698 713 714
f 650 698 714
f 648 698 650
f 651 700 649
f 700 651 653
f 700 653 702
f 702 653 655
f 702 655 704
f 704 655 657
f 704 657 706
f 706 657 659
f 706 659 708
f 708 659 661
f 708 661 710
f 710 661 663
f 715 710 663
f 712 710 715
f 712 716 714
f 712 715 716
f 716 664 650
f 716 650 714
f 665 715 663
f 715 665 666
f 715 666 716
f 716 666 664
f 681 717 682
f 718 683 682
f 718 682 717
f 718 684 683
f 686 719 685
f 720 687 685
f 720 685 719
f 721 688 687
f 721 687 720
f 722 689 688
f 722 688 721
f 723 690 689
f 723 689 722
f 724 691 690
f 724 690 723
f 717 681 691
f 724 717 691
f 725 717 724
f 717 726 718
f 717 725 726
f 726 692 684
f 726 684 718
f 693 727 719
f 693 719 686
f 719 728 720
f 719 727 728
f 720 729 721
f 720 728 729
f 721 730 722
f 721 729 730
f 722 731 723
f 722 730 731
f 723 732 724
f 723 731 732
f 724 733 725
f 724 732 733
f 725 734 726
f 725 733 734
f 734 694 692
f 734 692 726
f 695 735 727
f 695 727 693
f 727 736 728
f 727 735 736
f 728 737 729
f 728 736 737
f 729 738 730
f 729 737 738
f 730 739 731
f 730 738 739
f 731 740 732
f 731 739 740
f 732 741 733
f 732 740 741
f 733 742 734
f 733 741 742
f 742 696 694
f 742 694 734
f 697 743 735
f 697 735 695
f 735 744 736
f 735 743 744
f 736 745 737
f 736 744 745
f 737 746 738
f 737 745 746
f 738 747 739
f 738 746 747
f 739 748 740
f 739 747 748
f 740 749 741
f 740 748 749
f 741 750 742
f 741 749 750
f 750 698 696
f 750 696 742
f 699 743 697
f 743 699 701
f 743 701 744
f 744 701 703
f 744 703 745
f 745 703 705
f 745 705 746
f 746 705 707
f 746 707 747
f 747 707 709
f 747 709 748
f 748 709 711
f 748 711 749
f 749 711 713
f 749 713 750
f 750 713 698

