# https://github.com/mikedh/trimesh
v -0.05285036 -0.01838531 -0.01667935
v -0.04943079 -0.02291338 -0.01900775
v -0.04950074 -0.01894717 -0.02150770
v -0.05255006 -0.01781839 -0.01120187
v -0.04915345 -0.02286100 -0.01196853
v -0.04924534 -0.01938866 -0.00748340
v -0.05318355 -0.01205491 -0.01805979
v -0.04908312 -0.01260986 -0.02127014
v -0.05319052 -0.01206121 -0.01213542
v -0.05022969 -0.01381366 -0.00749904
v -0.05304823 -0.00489205 -0.01800595
v -0.05015120 -0.00521784 -0.02093818
v -0.05300880 -0.00468828 -0.01214316
v -0.05003004 -0.00644902 -0.00745816
v -0.05308046 0.00223827 -0.01785324
v -0.05015173 0.00199639 -0.02078890
v -0.05299433 0.00251477 -0.01202134
v -0.04995668 0.00084245 -0.00736817
v -0.05316674 0.00940719 -0.01790661
v -0.04934138 0.01003212 -0.02116697
v -0.05309703 0.00968477 -0.01200060
v -0.05011009 0.00800336 -0.00731677
v -0.05241582 0.01505685 -0.01885847
v -0.04844928 0.01776580 -0.02133301
v -0.05270652 0.01590179 -0.01336737
v -0.04882856 0.01609737 -0.00738630
v -0.05028154 0.01984298 -0.01645490
v -0.04914626 0.02027642 -0.01101548
v -0.04501843 -0.03177409 -0.01706272
v -0.04209227 -0.03688855 -0.01950511
v -0.04217566 -0.03335498 -0.02142578
v -0.04264500 -0.03458328 -0.01556026
v -0.04681374 -0.02726193 -0.01802864
v -0.04293879 -0.02651846 -0.02142058
v -0.04198568 -0.03035911 -0.01083244
v -0.04629792 -0.02714657 -0.01278566
v -0.04291993 -0.02616633 -0.00750427
v -0.04362209 -0.01968203 -0.02143311
v -0.04591202 -0.01735524 -0.00393266
v -0.04271395 -0.02296430 -0.00395851
v -0.04151152 -0.01956704 -0.00049881
v -0.04192793 -0.01577706 -0.01804448
v -0.04596140 -0.01027271 -0.01888105
v -0.04167589 -0.01223852 -0.01491479
v -0.04619822 -0.01042807 -0.00400974
v -0.04243862 -0.01407924 -0.00059301
v -0.04637016 -0.00364107 -0.01880435
v -0.04272643 -0.00692417 -0.01488795
v -0.04599530 -0.00307872 -0.00397999
v -0.04229726 -0.00690957 -0.00071105
v -0.04624924 0.00369814 -0.01875341
v -0.04260612 0.00028385 -0.01475264
v -0.04614134 0.00405037 -0.00393910
v -0.04221153 0.00032025 -0.00058346
v -0.04513334 0.00975705 -0.01929528
v -0.04248651 0.00717969 -0.01519409
v -0.04629100 0.01126636 -0.00391294
v -0.04243049 0.00768021 -0.00050403
v -0.04202508 0.01228463 -0.01752696
v -0.04434909 0.01515049 -0.02131142
v -0.04559233 0.01616005 -0.00392568
v -0.04122280 0.01608648 -0.00045960
v -0.04701812 0.02419365 -0.01795427
v -0.04286782 0.02353669 -0.02138884
v -0.04656143 0.02465933 -0.01195886
v -0.04438431 0.02305277 -0.00734452
v -0.04253520 0.02031331 -0.00392479
v -0.04510719 0.02937659 -0.01880711
v -0.04133806 0.03217111 -0.02133944
v -0.04533110 0.03017327 -0.01329933
v -0.04154639 0.03049489 -0.00741114
v -0.04315258 0.03424950 -0.01642291
v -0.04208054 0.03479482 -0.01094750
v -0.03921090 -0.03994066 -0.01646463
v -0.03366548 -0.04347162 -0.01794397
v -0.03701348 -0.03944870 -0.02141466
v -0.03803059 -0.03926689 -0.01104364
v -0.03588170 -0.04309644 -0.01263162
v -0.03434828 -0.04081306 -0.00887859
v -0.03530441 -0.03451162 -0.02151524
v -0.04007703 -0.03500711 -0.01217009
v -0.03541036 -0.03490053 -0.00743759
v -0.03482411 -0.03013506 -0.01793156
v -0.03864545 -0.02434935 -0.01878246
v -0.03445116 -0.02651162 -0.01483630
v -0.03896042 -0.02630205 -0.00388005
v -0.03545954 -0.02972743 -0.00400247
v -0.03524367 -0.02650606 -0.00050835
v -0.03964116 -0.01987844 -0.01882484
v -0.03602975 -0.02068230 -0.01489690
v -0.03843679 -0.01737602 0.00409234
v -0.03686667 -0.02266367 0.00172081
v -0.03465265 -0.02048565 0.00600866
v -0.03526468 -0.01573993 -0.01124154
v -0.03858276 -0.01015511 -0.01120540
v -0.03422152 -0.01230002 -0.00765555
v -0.03970550 -0.01077793 0.00379852
v -0.03578431 -0.01690507 0.00969029
v -0.03833991 -0.01218183 0.01108959
v -0.03774395 -0.01057838 0.01774312
v -0.03557480 -0.01537927 0.01548213
v -0.03521004 -0.01267828 0.02042170
v -0.03896392 -0.00342791 -0.01115127
v -0.03526942 -0.00694414 -0.00773157
v -0.03960391 -0.00357755 0.00386754
v -0.03907344 -0.00506931 0.01035297
v -0.03843908 -0.00491572 0.01689708
v -0.03574921 -0.00663734 0.02152058
v -0.03889044 0.00381587 -0.01103631
v -0.03517369 0.00024862 -0.00768653
v -0.03968546 0.00380901 0.00402253
v -0.03902586 0.00234690 0.01054756
v -0.03846183 0.00241315 0.01702721
v -0.03575452 0.00065448 0.02163040
v -0.03901666 0.01108739 -0.01219386
v -0.03529193 0.00749012 -0.00755166
v -0.03994933 0.01057081 0.00318616
v -0.03839359 0.01003668 0.00878133
v -0.03804099 0.00898651 0.01594074
v -0.03585159 0.00760707 0.02136030
v -0.04042707 0.01673341 -0.01783462
v -0.03805433 0.01752859 -0.01293637
v -0.03434050 0.01572849 -0.00757665
v -0.03842546 0.01527190 0.00420904
v -0.03474138 0.01482401 0.00644832
v -0.03565816 0.01207034 0.01107313
v -0.03440866 0.01181539 0.01735154
v -0.03846622 0.02285788 -0.01832344
v -0.03473024 0.02373126 -0.01406878
v -0.03486844 0.02035684 -0.01060718
v -0.03934447 0.02609418 -0.00393515
v -0.03683074 0.02315367 -0.00046237
v -0.03568364 0.01946705 0.00358737
v -0.03472623 0.02740792 -0.01815822
v -0.03645252 0.03029357 -0.02156697
v -0.03830141 0.03055644 -0.00397436
v -0.03529771 0.02902934 -0.00092346
v -0.03951105 0.03726192 -0.01877096
v -0.03508804 0.03856172 -0.02162722
v -0.03907229 0.03828602 -0.01327183
v -0.03703945 0.03703283 -0.00832103
v -0.03431113 0.03399050 -0.00347258
v -0.03459910 0.04147893 -0.01647346
v -0.03407535 0.04029442 -0.01112306
v -0.02801832 -0.04517912 -0.01893156
v -0.02840925 -0.04092982 -0.02142286
v -0.02858353 -0.04493470 -0.01138897
v -0.02893345 -0.04030225 -0.00646182
v -0.02889782 -0.03608661 -0.01932496
v -0.03196435 -0.03360313 -0.01874449
v -0.02731573 -0.03317682 -0.01564782
v -0.02761142 -0.03697786 -0.00327331
v -0.03196701 -0.03329341 -0.00404862
v -0.02823008 -0.03335156 -0.00055353
v -0.02873252 -0.02947439 -0.01157864
v -0.03129662 -0.02447271 -0.01115355
v -0.02714415 -0.02661507 -0.00768053
v -0.03191764 -0.02548249 0.00507066
v -0.02877113 -0.03000022 0.00296676
v -0.03051620 -0.02486942 0.01132975
v -0.02722186 -0.02881721 0.00951129
v -0.02716835 -0.02712661 0.01412380
v -0.03226034 -0.01987488 -0.01115729
v -0.02868275 -0.02083918 -0.00763206
v -0.03300501 -0.02028456 0.01061140
v -0.02894547 -0.02410586 0.01682145
v -0.03208669 -0.01904800 0.01854768
v -0.03062983 -0.01777742 0.02529984
v -0.02857109 -0.02263365 0.02291530
v -0.02681362 -0.02060734 0.02779581
v -0.02964664 -0.01592844 -0.00500156
v -0.03170876 -0.01102413 -0.00266624
v -0.02806216 -0.01558943 0.00089093
v -0.03064083 -0.01069976 0.00449846
v -0.02780982 -0.01347289 0.00613143
v -0.03208084 -0.01134085 0.02459782
v -0.02772114 -0.01261589 0.02766726
v -0.03252231 -0.00373359 -0.00334675
v -0.03190094 -0.00522859 0.00318814
v -0.02893604 -0.00915839 0.00944213
v -0.03074241 -0.00465407 0.00961081
v -0.02781817 -0.00541064 0.01297584
v -0.03195920 -0.00316409 0.02537199
v -0.02820077 -0.00475713 0.02730331
v -0.03244455 0.00366553 -0.00335446
v -0.03179321 0.00202170 0.00299530
v -0.03113528 0.00208285 0.00947853
v -0.02820949 0.00073779 0.01400823
v -0.03207609 0.00399235 0.02551447
v -0.02806176 0.00223186 0.02730532
v -0.03282220 0.01018763 -0.00411555
v -0.03181772 0.01047177 0.00249689
v -0.03243207 0.00873576 0.01005649
v -0.02803351 0.00975641 0.01449118
v -0.03236699 0.01118033 0.02436982
v -0.02723404 0.00962716 0.02764670
v -0.03129490 0.01494015 -0.00322413
v -0.02705475 0.01676327 0.00005788
v -0.02892922 0.01414507 0.00506608
v -0.03193483 0.01801948 0.00939729
v -0.02792377 0.01398570 0.01106674
v -0.03191879 0.01495159 0.01744161
v -0.03122488 0.01756269 0.02352264
v -0.02784124 0.01596130 0.02777672
v -0.03229806 0.02353001 -0.01109948
v -0.02843536 0.02372348 -0.00761676
v -0.02826700 0.02017581 -0.00419594
v -0.03294790 0.02435995 0.00392749
v -0.03103771 0.02502336 0.00906353
v -0.03110815 0.02205585 0.01661665
v -0.02758613 0.02406331 0.02211026
v -0.02776603 0.02049326 0.02569797
v -0.03154321 0.03161600 -0.01922443
v -0.02835560 0.03072256 -0.01472212
v -0.02853528 0.02724610 -0.01111264
v -0.03178545 0.03014857 0.00295332
v -0.02886699 0.02993344 0.00709745
v -0.02842259 0.02775398 0.01246474
v -0.02756979 0.02728484 0.01763804
v -0.02737447 0.03483545 -0.01803308
v -0.02925423 0.03764720 -0.02147332
v -0.02866188 0.03903277 -0.00700928
v -0.02722822 0.03569831 -0.00260720
v -0.02771827 0.03346632 0.00327416
v -0.03162277 0.04460788 -0.01939897
v -0.02817157 0.04472649 -0.02142840
v -0.02943311 0.04512850 -0.01539689
v -0.02867693 0.04269161 -0.01151347
v -0.02666275 0.04765866 -0.01704242
v -0.02459066 -0.04832491 -0.01648592
v -0.01922534 -0.05070181 -0.01789538
v -0.02252809 -0.04651029 -0.02142112
v -0.02435067 -0.04831371 -0.01156012
v -0.02139592 -0.05046127 -0.01262042
v -0.02023950 -0.04782772 -0.00801344
v -0.01988711 -0.04248393 -0.02125771
v -0.02469486 -0.04063687 -0.00388291
v -0.02249595 -0.04351433 -0.00503583
v -0.02000448 -0.04033134 -0.00119199
v -0.02146861 -0.03768996 -0.01767745
v -0.02072364 -0.03390654 -0.01381079
v -0.02400228 -0.03301689 0.00396048
v -0.02140125 -0.03627157 0.00258153
v -0.01996303 -0.03399753 0.00707425
v -0.02166582 -0.03125537 -0.01035985
v -0.02159467 -0.02912504 -0.00486700
v -0.02421225 -0.02456334 -0.00311620
v -0.02022100 -0.02708583 -0.00016926
v -0.02261926 -0.03132967 0.00881424
v -0.02515668 -0.02665518 0.01973154
v -0.02129897 -0.03016794 0.01648806
v -0.02471387 -0.02562584 0.02531455
v -0.02098406 -0.02866177 0.02363858
v -0.02067732 -0.02570766 0.02778515
v -0.02594320 -0.01952922 -0.00270974
v -0.02086580 -0.02388282 0.00319164
v -0.02467094 -0.01919640 0.00379477
v -0.02045455 -0.02166253 0.00943157
v -0.02352693 -0.01766029 0.01124152
v -0.02029765 -0.01973961 0.01409779
v -0.02192073 -0.01868169 0.02795723
v -0.02579242 -0.01176950 0.01101058
v -0.02173657 -0.01664025 0.01671714
v -0.02390525 -0.01180986 0.01827255
v -0.02118867 -0.01574291 0.02279892
v -0.02420530 -0.01216290 0.02525656
v -0.02520926 -0.00390264 0.01773388
v -0.02535784 -0.00628425 0.02443813
v -0.02523540 0.00421350 0.01845949
v -0.02521230 0.00079633 0.02432185
v -0.02435423 0.00900347 0.01810123
v -0.02436352 0.00795135 0.02360606
v -0.02517201 0.01616247 0.00350207
v -0.02413311 0.01620897 0.00800432
v -0.02089143 0.01647886 0.01379298
v -0.02155099 0.01299906 0.01890219
v -0.02190079 0.01294107 0.02512630
v -0.02061543 0.01709398 0.02784257
v -0.02461442 0.02388182 -0.00420419
v -0.02264349 0.02252157 -0.00104946
v -0.02165434 0.02003731 0.00442041
v -0.01997071 0.02009279 0.01020053
v -0.02497320 0.02380437 0.02506832
v -0.02157840 0.02289997 0.02779818
v -0.02463540 0.03090422 -0.01105757
v -0.02227998 0.02962350 -0.00846602
v -0.01972543 0.02661373 -0.00356820
v -0.02591153 0.03149226 0.00960560
v -0.02443709 0.03109816 0.01535246
v -0.02295056 0.02996606 0.02079877
v -0.02124860 0.02758063 0.02501320
v -0.02430409 0.03898487 -0.01922904
v -0.02247652 0.03663912 -0.01565072
v -0.01993963 0.03369252 -0.01143435
v -0.02481552 0.03779685 -0.00432128
v -0.02235874 0.03735752 -0.00113634
v -0.02103002 0.03552363 0.00385419
v -0.02131093 0.03395429 0.01094613
v -0.01951152 0.03364965 0.01893792
v -0.01924246 0.04117246 -0.01871541
v -0.02180499 0.04432629 -0.02114212
v -0.02506241 0.04610325 -0.01220871
v -0.02222139 0.04410297 -0.00841136
v -0.01988245 0.04087097 -0.00329855
v -0.02124326 0.04837362 -0.01793508
v -0.02056282 0.04790053 -0.01210875
v -0.01238289 -0.05120348 -0.01791740
v -0.01467174 -0.04745785 -0.02115004
v -0.01591569 -0.05115596 -0.01201351
v -0.01236982 -0.04812989 -0.00727615
v -0.01438072 -0.04329693 -0.01927962
v -0.01741126 -0.04065437 -0.01859464
v -0.01285016 -0.04023237 -0.01555651
v -0.01464863 -0.04434410 -0.00310055
v -0.01345490 -0.04115175 0.00057146
v -0.01533508 -0.03607342 -0.01250312
v -0.01709906 -0.03282858 -0.01025202
v -0.01197625 -0.03334022 -0.00804877
v -0.01445854 -0.03829528 0.00382317
v -0.01781823 -0.03361320 0.01230720
v -0.01429579 -0.03640008 0.00980961
v -0.01631414 -0.03331672 0.01811267
v -0.01287959 -0.03611720 0.01713999
v -0.01268752 -0.03449943 0.02190950
v -0.01440564 -0.03059976 -0.00438496
v -0.01438711 -0.02897376 0.00241061
v -0.01721571 -0.02607919 0.00395265
v -0.01303724 -0.02688623 0.00721572
v -0.01590232 -0.03063426 0.02402030
v -0.01380627 -0.02642125 0.02777797
v -0.01491497 -0.02382478 0.00971260
v -0.01448260 -0.02178650 0.01710070
v -0.01805750 -0.01902030 0.01965646
v -0.01305915 -0.02246202 0.02435480
v -0.01752405 -0.01991974 0.02517786
v -0.01768649 0.01651597 0.01798846
v -0.01753674 0.01650197 0.02275234
v -0.01844217 0.02422933 0.00249208
v -0.01707224 0.02381121 0.00821596
v -0.01554325 0.02258745 0.01345409
v -0.01318723 0.02005074 0.01910208
v -0.01391029 0.01941488 0.02511236
v -0.01354409 0.02277593 0.02815374
v -0.01387522 0.02848411 -0.00281453
v -0.01399447 0.03159100 -0.00707879
v -0.01365312 0.02719284 0.00386767
v -0.01227055 0.02614221 0.01154443
v -0.01798530 0.03189481 0.02405691
v -0.01406875 0.02903302 0.02784683
v -0.01320562 0.03547397 -0.01057004
v -0.01607081 0.03795242 -0.01430795
v -0.01829961 0.03843237 0.00233175
v -0.01346107 0.03649708 0.00567595
v -0.01326601 0.03416795 0.00959080
v -0.01413923 0.03489571 0.01775200
v -0.01347219 0.03377996 0.02436818
v -0.01235994 0.04152700 -0.01754112
v -0.01400210 0.04641243 -0.02110470
v -0.01592067 0.04531870 -0.00706020
v -0.01263706 0.04289483 -0.00193877
v -0.01361962 0.04027275 0.00287441
v -0.01393776 0.04911172 -0.01765358
v -0.01356410 0.04830828 -0.01087621
v -0.00523092 -0.05106822 -0.01797153
v -0.00678394 -0.04820664 -0.02086943
v -0.00884442 -0.05102259 -0.01209965
v -0.00516355 -0.04796466 -0.00740637
v -0.00840704 -0.04434099 -0.01875541
v -0.00487356 -0.04067442 -0.01474588
v -0.00682210 -0.04514287 -0.00293299
v -0.00991980 -0.04006288 0.00410143
v -0.00816329 -0.04292113 0.00150834
v -0.00479344 -0.04053541 0.00640074
v -0.00755503 -0.03704310 -0.01035348
v -0.00643161 -0.03388436 -0.00639542
v -0.00715137 -0.03779074 0.01002007
v -0.00656126 -0.03738720 0.01768040
v -0.01058832 -0.03296631 0.02584767
v -0.00771347 -0.03636671 0.02345948
v -0.00603099 -0.03307673 0.02784184
v -0.00726812 -0.03109126 -0.00302651
v -0.00676142 -0.02999649 0.00339417
v -0.00707343 -0.02902137 0.00989742
v -0.00991065 -0.02588831 0.01141503
v -0.00580661 -0.02688695 0.01483291
v -0.00663759 -0.02724655 0.02827501
v -0.00769611 -0.02363451 0.01739615
v -0.00692098 -0.02330829 0.02433123
v -0.01062621 0.02432664 0.01656643
v -0.00729773 0.02311743 0.02079696
v -0.00826693 0.02164083 0.02479463
v -0.00598567 0.02594850 0.02798173
v -0.01091643 0.03044433 -0.00368482
v -0.01078310 0.03148490 0.00241187
v -0.00841012 0.03068232 0.00674976
v -0.00632658 0.02793234 0.01022419
v -0.00590100 0.02619041 0.01809985
v -0.00761235 0.03125767 0.02809397
v -0.01083691 0.03847624 -0.01212689
v -0.00783797 0.03668835 -0.00833844
v -0.00587486 0.03389165 -0.00298335
v -0.00724220 0.03472178 0.00363104
v -0.00690011 0.03787755 0.00577700
v -0.00545792 0.03359391 0.01085596
v -0.00704836 0.03486923 0.01757783
v -0.00692010 0.03411983 0.02439481
v -0.00537593 0.04224913 -0.01775677
v -0.00835830 0.04512959 -0.02158075
v -0.00637242 0.04028918 -0.01197871
v -0.01081122 0.04576679 -0.00483445
v -0.00725667 0.04470020 -0.00103874
v -0.00601487 0.04162964 0.00315259
v -0.01021233 0.05177496 -0.01930150
v -0.00598053 0.05127121 -0.02143705
v -0.00757608 0.05224768 -0.01592136
v -0.00608577 0.04967650 -0.01093965
v -0.00631362 0.04754141 -0.00456553
v -0.00542570 0.05443198 -0.01804086
v 0.00185687 -0.05108012 -0.01797645
v 0.00036927 -0.04813640 -0.02092494
v -0.00170261 -0.05089589 -0.01216106
v 0.00199132 -0.04790908 -0.00745439
v -0.00120650 -0.04428131 -0.01883270
v 0.00233305 -0.04058130 -0.01475878
v 0.00037378 -0.04503416 -0.00292907
v -0.00141956 -0.04332863 0.00247828
v 0.00201342 -0.04052950 0.00696371
v -0.00067068 -0.03806321 -0.01092443
v -0.00058150 -0.03555125 -0.00597714
v -0.00281612 -0.03282645 -0.00283919
v 0.00133985 -0.03287993 -0.00180122
v 0.00044237 -0.03789638 0.01136398
v 0.00067966 -0.03731377 0.01788827
v -0.00087691 -0.03678768 0.02452728
v 0.00062838 -0.03303076 0.02838893
v 0.00082367 -0.03057332 0.00251672
v -0.00048506 -0.03014079 0.00979496
v -0.00033729 -0.02867741 0.01593326
v -0.00281932 -0.02576811 0.01907690
v 0.00122032 -0.02583430 0.02020870
v 0.00023572 -0.02712874 0.02835592
v 0.00043071 -0.02379135 0.02371548
v -0.00421170 0.02408149 0.02417727
v 0.00194195 0.02770208 0.00981077
v -0.00103420 0.03099525 0.00788052
v -0.00073760 0.02719527 0.01658047
v 0.00048497 0.02619836 0.02370848
v 0.00011524 0.02945711 0.02788934
v 0.00190614 0.03538026 -0.00383045
v -0.00111239 0.03806022 -0.00739108
v 0.00087654 0.03439254 0.00236743
v -0.00046279 0.03839918 0.00589029
v 0.00114361 0.03398684 0.01170341
v 0.00016822 0.03485123 0.01766720
v 0.00023850 0.03406960 0.02442571
v 0.00176041 0.04221230 -0.01781322
v -0.00174855 0.04597802 -0.02172647
v 0.00029005 0.04073199 -0.01194660
v -0.00121718 0.04527170 0.00013926
v 0.00238819 0.04163164 0.00384495
v 0.00211977 0.05187312 -0.02176378
v -0.00137902 0.05278567 -0.01457621
v 0.00214517 0.04977399 -0.01004610
v 0.00036988 0.04802063 -0.00443681
v 0.00046959 0.05487326 -0.01857875
v 0.00905393 -0.05118674 -0.01798233
v 0.00749467 -0.04817242 -0.02091888
v 0.00550451 -0.05096879 -0.01213477
v 0.00921174 -0.04797893 -0.00734401
v 0.00600226 -0.04428331 -0.01883610
v 0.00955462 -0.04056770 -0.01476524
v 0.00651086 -0.04515597 -0.00375819
v 0.00631271 -0.04296776 0.00188705
v 0.00796551 -0.03999312 0.00583648
v 0.00575931 -0.03697314 -0.00988055
v 0.00434949 -0.03389436 -0.00479378
v 0.00958722 -0.03338941 -0.00694613
v 0.00819948 -0.03771769 0.01058709
v 0.00671365 -0.03717655 0.01682294
v 0.00678885 -0.03637565 0.02390223
v 0.00794812 -0.03164730 0.02802013
v 0.00729688 -0.03096798 -0.00166561
v 0.00775031 -0.02991675 0.00341567
v 0.00650132 -0.02910688 0.01038680
v 0.00442162 -0.02695020 0.01706909
v 0.00869274 -0.02596991 0.01381241
v 0.00719816 -0.02543330 0.02821551
v 0.00698433 -0.02377567 0.01869646
v 0.00837044 -0.02210594 0.02436047
v 0.00443849 0.02449209 0.02584803
v 0.00913391 0.02139010 0.02315220
v 0.00650851 0.02385791 0.02189303
v 0.00790750 0.02438688 0.02763767
v 0.00426107 0.03109189 0.00491497
v 0.00879059 0.02773487 0.00318593
v 0.00664342 0.03077654 -0.00005316
v 0.00734185 0.02686823 0.01012228
v 0.00707378 0.02609094 0.01624344
v 0.00755021 0.03034256 0.02833449
v 0.00636723 0.03360774 -0.00304876
v 0.00620411 0.03722550 -0.00753116
v 0.00561368 0.03705240 0.00564492
v 0.00817156 0.03436186 0.00928398
v 0.00751164 0.03485369 0.01784542
v 0.00753675 0.03422735 0.02452797
v 0.00843506 0.04231141 -0.01888549
v 0.00573140 0.04594049 -0.02174616
v 0.00772426 0.04030405 -0.01349200
v 0.00624419 0.04453385 -0.00002990
v 0.00732608 0.04094351 0.00360683
v 0.00910113 0.05092103 -0.02124257
v 0.00552026 0.05277640 -0.01515697
v 0.00904910 0.04983608 -0.01234411
v 0.00788790 0.04775161 -0.00597622
v 0.00631108 0.05443258 -0.01926170
v 0.01633714 -0.05122891 -0.01794817
v 0.01519895 -0.04704064 -0.02127294
v 0.01289275 -0.05113701 -0.01204944
v 0.01655264 -0.04810869 -0.00720205
v 0.01279789 -0.04388876 -0.01876758
v 0.01448615 -0.04061580 -0.01554444
v 0.01301456 -0.04414695 -0.00266368
v 0.01157407 -0.04093689 0.00229481
v 0.01675663 -0.04049712 0.00020099
v 0.01418618 -0.03696092 -0.01242175
v 0.01405928 -0.03338626 -0.00828149
v 0.01334009 -0.03816823 0.00500436
v 0.01533190 -0.03610632 0.01056546
v 0.01265410 -0.03612673 0.01822511
v 0.01182395 -0.03440215 0.02430907
v 0.01576458 -0.03325694 0.02101381
v 0.01497251 -0.03016746 -0.00462531
v 0.01274767 -0.02885059 0.00366174
v 0.01196637 -0.02693037 0.00953350
v 0.01502840 -0.02643933 0.00677507
v 0.01516420 -0.03115689 0.02487128
v 0.01451789 -0.02742648 0.02819198
v 0.01477923 -0.02339911 0.01088322
v 0.01265250 -0.02134589 0.01900190
v 0.01220645 -0.01951931 0.02407083
v 0.01430023 -0.01902970 0.02122281
v 0.01469087 -0.02047213 0.02802460
v 0.01607175 -0.01626499 0.02381907
v 0.01058902 0.02282774 0.01841500
v 0.01359966 0.02011625 0.01883694
v 0.01526496 0.02421825 0.01512316
v 0.01367023 0.01961707 0.02397231
v 0.01500816 0.02327050 0.02830083
v 0.01043581 0.03154572 -0.00457907
v 0.01515978 0.02815046 -0.00358127
v 0.01472782 0.03163525 -0.00787478
v 0.01656879 0.02701177 0.00291357
v 0.01321437 0.02754562 0.01062639
v 0.01447979 0.03055954 0.02796897
v 0.01144190 0.03619818 -0.01002981
v 0.01667082 0.03483002 -0.01137490
v 0.01394412 0.03849898 -0.01396186
v 0.01539911 0.03555004 0.00405096
v 0.01054250 0.03900484 0.00295658
v 0.01485436 0.03888639 -0.00049930
v 0.01626465 0.03358468 0.00925852
v 0.01409701 0.03394299 0.01623605
v 0.01406472 0.03377973 0.02336926
v 0.01546876 0.04149858 -0.01819308
v 0.01428619 0.04578276 -0.02119827
v 0.01689137 0.04210072 -0.00409319
v 0.01153875 0.04352755 -0.00271484
v 0.01415157 0.04593459 -0.00645497
v 0.01488128 0.04937478 -0.01723396
v 0.00990263 0.05220735 -0.01758296
v 0.01487393 0.04826972 -0.01030992
v 0.02207612 -0.05051582 -0.01731240
v 0.02170297 -0.04732738 -0.02159467
v 0.01988739 -0.05080065 -0.01191756
v 0.02158489 -0.04827416 -0.00796219
v 0.01769355 -0.04102744 -0.01840494
v 0.02258841 -0.04150007 -0.02152968
v 0.02152484 -0.04437022 -0.00501114
v 0.02130130 -0.04053588 -0.00092085
v 0.02130225 -0.03690074 -0.01712119
v 0.01822298 -0.03335912 -0.01133495
v 0.02408841 -0.03217263 -0.01475661
v 0.02084970 -0.03688592 0.00309400
v 0.01905057 -0.03381093 0.00993719
v 0.02254605 -0.03280395 0.00635513
v 0.01777958 -0.03347847 0.01561669
v 0.02048411 -0.02933287 -0.00971315
v 0.01929546 -0.02680685 -0.00470486
v 0.02169676 -0.02624487 -0.00778855
v 0.01769718 -0.02600053 0.00200733
v 0.02245205 -0.03114644 0.01084067
v 0.02151500 -0.03010504 0.01855742
v 0.02033678 -0.02872532 0.02513138
v 0.02232715 -0.02439222 0.02782430
v 0.02272819 -0.02334264 -0.00387614
v 0.02062435 -0.02201864 0.00420712
v 0.01949847 -0.01990383 0.00945468
v 0.02243921 -0.01835381 0.00692887
v 0.01739508 -0.01886216 0.01628608
v 0.02176673 -0.01920296 0.02914868
v 0.02193827 -0.01625246 0.01211742
v 0.02033402 -0.01478275 0.01870091
v 0.01939576 -0.01241963 0.02396282
v 0.02213083 -0.01102161 0.02175706
v 0.02191482 -0.01310197 0.02805622
v 0.02259566 -0.00885987 0.02570699
v 0.01969819 0.01086417 0.02471786
v 0.02201899 0.00684158 0.02428012
v 0.02111804 0.00994998 0.02076123
v 0.02347259 0.00774847 0.02783805
v 0.01807015 0.01643573 0.01832120
v 0.02226549 0.01323510 0.01644987
v 0.02116896 0.01748810 0.01315476
v 0.01754391 0.01650892 0.02507899
v 0.02187697 0.01556030 0.02834397
v 0.01951938 0.02431422 0.00512792
v 0.02210357 0.02109010 0.00232516
v 0.02071665 0.02397614 -0.00026847
v 0.01916611 0.02258940 0.01162146
v 0.02153769 0.01972352 0.00802392
v 0.02133310 0.02431047 0.02805524
v 0.02027996 0.02637378 -0.00341358
v 0.02036162 0.02990708 -0.00789933
v 0.01713883 0.03097103 0.01092920
v 0.02016419 0.03006993 0.00637621
v 0.02290377 0.02730738 0.00842671
v 0.02218311 0.02657322 0.01558565
v 0.01777878 0.03033702 0.01821530
v 0.02202693 0.02720486 0.02317803
v 0.01855371 0.03043664 0.02551364
v 0.02113833 0.03380730 -0.01145422
v 0.02142664 0.03851113 -0.01446411
v 0.02060382 0.03719004 -0.00048230
v 0.02056764 0.03373214 0.00427724
v 0.02232961 0.04276213 -0.01780783
v 0.02100821 0.04468254 -0.02062878
v 0.02062065 0.04480911 -0.00756809
v 0.02139539 0.04108435 -0.00407608
v 0.02109694 0.04744097 -0.01900572
v 0.02162233 0.04784662 -0.01353143
v 0.02597013 -0.04718858 -0.01905812
v 0.02516833 -0.04791766 -0.01234304
v 0.02983961 -0.04399042 -0.01671339
v 0.02793351 -0.04240557 -0.02116959
v 0.02836285 -0.04365641 -0.00988614
v 0.02565447 -0.04076773 -0.00378571
v 0.02958511 -0.04088965 -0.00748108
v 0.02807341 -0.03763873 -0.01833543
v 0.03018648 -0.03359711 -0.01563856
v 0.02917512 -0.03716588 -0.00391621
v 0.02571868 -0.03382873 0.00225127
v 0.02899979 -0.03348499 -0.00031065
v 0.02440253 -0.02653958 -0.01108154
v 0.02783748 -0.02772618 -0.01477281
v 0.02882474 -0.03048995 0.00364884
v 0.02723915 -0.02871751 0.01137958
v 0.02666037 -0.02705397 0.01679816
v 0.02965653 -0.02535233 0.01417040
v 0.02527373 -0.02663714 0.02275638
v 0.02870928 -0.02267479 -0.01146425
v 0.02598323 -0.01879906 -0.00363959
v 0.02867417 -0.01914899 -0.00765149
v 0.02397720 -0.01843696 0.00258289
v 0.02942161 -0.02337298 0.01967248
v 0.02845193 -0.02293754 0.02511389
v 0.02786071 -0.01797099 0.02794867
v 0.02941683 -0.01584414 -0.00469230
v 0.02914767 -0.01127015 0.00016852
v 0.02618241 -0.01293932 0.00276628
v 0.02465127 -0.01259561 0.00984063
v 0.02410658 -0.01134428 0.01715092
v 0.02912884 -0.01066997 0.02809417
v 0.02828446 -0.00807027 0.00431361
v 0.02943491 -0.00389798 0.00762327
v 0.02639810 -0.00572094 0.01024692
v 0.02536038 -0.00500896 0.01780037
v 0.02534765 -0.00522375 0.02414366
v 0.02787397 -0.00502724 0.02758773
v 0.02846355 -0.00078446 0.01187182
v 0.02854833 0.00337099 0.01296830
v 0.02604414 0.00183674 0.01624023
v 0.02490564 0.00238816 0.02394911
v 0.02833732 0.00296155 0.02762270
v 0.02651341 0.00913470 0.01151167
v 0.02961677 0.00653973 0.00988633
v 0.02849839 0.01062754 0.00657989
v 0.02417255 0.00842691 0.01825083
v 0.02837489 0.01095545 0.02825741
v 0.02681440 0.01639566 -0.00257692
v 0.02876611 0.01347051 -0.00349767
v 0.02922944 0.01742391 -0.00689883
v 0.02530666 0.01625511 0.00403753
v 0.02879259 0.01253310 0.00107760
v 0.02405642 0.01484226 0.01161875
v 0.02759229 0.01781144 0.02771294
v 0.02477280 0.02295942 -0.00423788
v 0.02848919 0.02412059 -0.00865840
v 0.02968279 0.02133911 0.01696360
v 0.02601767 0.02391248 0.01989303
v 0.02804296 0.02441226 0.01436351
v 0.02931181 0.01972014 0.02288136
v 0.02566645 0.02284841 0.02536608
v 0.02525657 0.03090220 -0.01130071
v 0.02889890 0.02734329 -0.01115298
v 0.02857441 0.03105597 -0.01490904
v 0.02811967 0.02790611 0.00451457
v 0.02482553 0.03193056 0.00272759
v 0.02901656 0.03094542 -0.00063111
v 0.02818351 0.02612971 0.00966808
v 0.02630305 0.03748929 -0.01686580
v 0.02923866 0.03441900 -0.01943376
v 0.03041856 0.03829243 -0.02100259
v 0.02990335 0.03405293 -0.00457239
v 0.02555181 0.03817882 -0.00404041
v 0.02986471 0.03833310 -0.00736562
v 0.02424785 0.04594735 -0.01738166
v 0.02992780 0.04143609 -0.01716150
v 0.02876904 0.04106380 -0.01222340
v 0.02509356 0.04336348 -0.01161292
v 0.03145628 -0.04062630 -0.01838834
v 0.03157209 -0.03979091 -0.01271283
v 0.03634289 -0.03202547 -0.02117839
v 0.03342351 -0.03404972 -0.01785224
v 0.03655091 -0.03583422 -0.01743622
v 0.03440830 -0.03623893 -0.01136867
v 0.03267063 -0.03369535 -0.00391093
v 0.03633254 -0.03399020 -0.00771196
v 0.03231012 -0.02797132 -0.01831162
v 0.03773629 -0.02530537 -0.02166898
v 0.03625196 -0.03035979 -0.00414293
v 0.03327429 -0.02617941 0.00333764
v 0.03647220 -0.02568198 -0.00012731
v 0.03120230 -0.02554334 0.00956724
v 0.03476668 -0.02236582 -0.01729020
v 0.03242036 -0.01923164 -0.01138971
v 0.03613971 -0.01936400 -0.01518619
v 0.03545246 -0.02250701 0.00397399
v 0.03354691 -0.01999334 0.00976567
v 0.03643986 -0.01832557 0.00713059
v 0.03204906 -0.01949525 0.01713327
v 0.03145326 -0.01917163 0.02362865
v 0.03607564 -0.01598160 -0.01131514
v 0.03231969 -0.01155406 -0.00390007
v 0.03595407 -0.01044325 -0.00792163
v 0.03561039 -0.01504146 0.01132831
v 0.03371468 -0.01264897 0.01735091
v 0.03665891 -0.01092326 0.01461488
v 0.03203839 -0.01347822 0.02432694
v 0.03328861 -0.00512553 -0.00301887
v 0.03595681 -0.00367177 -0.00740866
v 0.03137788 -0.00538131 0.00261432
v 0.03580161 -0.00774592 0.01896280
v 0.03275121 -0.00642983 0.02426133
v 0.03631220 -0.00265391 0.02127907
v 0.03336976 0.00213984 -0.00289084
v 0.03597512 0.00365358 -0.00748874
v 0.03262856 0.00113370 0.00245640
v 0.03119364 0.00160542 0.00865518
v 0.03273117 0.00163215 0.02462039
v 0.03584294 0.00287131 0.02066122
v 0.03208763 0.00983853 -0.00423847
v 0.03548982 0.00962187 -0.00852987
v 0.03150222 0.00730083 0.00385734
v 0.03662442 0.00637916 0.01691917
v 0.03367523 0.00966264 0.01912382
v 0.03559427 0.01042576 0.01359563
v 0.03185690 0.00837078 0.02537108
v 0.03329195 0.01511991 -0.00982533
v 0.03602666 0.01281426 -0.01104355
v 0.03626802 0.01773366 -0.01398500
v 0.03647650 0.01342684 0.00934365
v 0.03365984 0.01616206 0.01095702
v 0.03560261 0.01752054 0.00607112
v 0.03195525 0.01734792 0.01744784
v 0.03161649 0.01443663 0.02427594
v 0.03173716 0.02344536 -0.01207198
v 0.03532405 0.02450989 -0.01591709
v 0.03251907 0.02400971 0.00373898
v 0.03599839 0.02373415 -0.00069650
v 0.03599235 0.02026445 0.00290705
v 0.03139515 0.02207738 0.01133889
v 0.03248352 0.02950042 -0.01740261
v 0.03681109 0.02712090 -0.01928242
v 0.03536259 0.03202572 -0.02164199
v 0.03703354 0.02681812 -0.00468944
v 0.03278466 0.02921461 -0.00310271
v 0.03573585 0.03174704 -0.00635623
v 0.03717702 0.03688714 -0.02142801
v 0.03582132 0.03754811 -0.00838720
v 0.03422660 0.04090289 -0.01879338
v 0.03516250 0.04105887 -0.01314266
v 0.03972179 -0.03334750 -0.01915501
v 0.03919172 -0.03389355 -0.01257756
v 0.04356157 -0.03021354 -0.01679541
v 0.04270281 -0.02723272 -0.02182459
v 0.04220033 -0.02963214 -0.01011929
v 0.03965966 -0.02585039 -0.00409193
v 0.04324103 -0.02457829 -0.00811274
v 0.03896632 -0.01977775 -0.01853633
v 0.04426139 -0.01911789 -0.02173348
v 0.04073264 -0.01981523 -0.00312422
v 0.04307562 -0.02005088 -0.00692245
v 0.03840861 -0.01983650 0.00234466
v 0.04215140 -0.01540107 -0.01696768
v 0.03971441 -0.01249350 -0.01211036
v 0.04336453 -0.01007048 -0.01525382
v 0.04372892 -0.01585832 -0.00459082
v 0.04018250 -0.01249570 0.00295460
v 0.04289308 -0.01020457 -0.00075787
v 0.03857181 -0.01241879 0.00969688
v 0.03959862 -0.00704209 -0.01103460
v 0.04329152 -0.00323849 -0.01468260
v 0.04025941 -0.00484558 0.00422163
v 0.04284563 -0.00354062 -0.00032577
v 0.03971028 -0.00483410 0.01068442
v 0.03861048 -0.00601242 0.01624995
v 0.03956785 0.00021967 -0.01093066
v 0.04317084 0.00406518 -0.01468396
v 0.04025006 0.00218809 0.00411637
v 0.04302237 0.00369254 -0.00032693
v 0.03958722 0.00136971 0.00970138
v 0.03872153 0.00131756 0.01655503
v 0.03890816 0.00904820 -0.01196515
v 0.04259189 0.01014680 -0.01580529
v 0.04054242 0.00828011 0.00336416
v 0.04316044 0.01097275 -0.00023038
v 0.03861747 0.00812383 0.01027004
v 0.04032003 0.01552646 -0.01720874
v 0.04418656 0.01272984 -0.01923051
v 0.04410796 0.01721543 -0.02123728
v 0.03903602 0.01592626 0.00325975
v 0.04281778 0.01697678 -0.00125914
v 0.03905576 0.02192562 -0.01868838
v 0.04331901 0.02401002 -0.02145701
v 0.04018636 0.02201988 -0.00278974
v 0.04244196 0.02589985 -0.00717753
v 0.04397371 0.02059508 -0.00494273
v 0.04254422 0.03079857 -0.02143748
v 0.04204372 0.03224881 -0.00849614
v 0.04267392 0.03485176 -0.01882030
v 0.03949853 0.03861535 -0.01632609
v 0.04394113 0.03428279 -0.01319037
v 0.04019027 0.03741895 -0.01065961
v 0.04721913 -0.02520310 -0.01816056
v 0.04563374 -0.02680939 -0.01303742
v 0.05050920 -0.02162577 -0.01786655
v 0.04917416 -0.02083975 -0.02151744
v 0.04702074 -0.02111723 -0.01168834
v 0.05146756 -0.01865152 -0.01443019
v 0.04613017 -0.01259136 -0.01935387
v 0.05019238 -0.01294281 -0.02118491
v 0.04935268 -0.01554770 -0.00932970
v 0.04669645 -0.01229189 -0.00475717
v 0.05066661 -0.01026222 -0.00770634
v 0.04705595 -0.00654977 -0.01879212
v 0.05085434 -0.00492818 -0.02080987
v 0.04670258 -0.00695796 -0.00376487
v 0.05068103 -0.00346808 -0.00715617
v 0.04695984 0.00065989 -0.01868071
v 0.05073742 0.00223074 -0.02078585
v 0.04669124 0.00020492 -0.00371461
v 0.05059019 0.00376665 -0.00714460
v 0.04641423 0.00743119 -0.01869468
v 0.04965694 0.00989343 -0.02110348
v 0.04676781 0.00846651 -0.00439061
v 0.05011166 0.00987333 -0.00820910
v 0.05000715 0.01625573 -0.02132398
v 0.05126851 0.01349639 -0.01200355
v 0.04813793 0.01618264 -0.01031995
v 0.05035334 0.01775451 -0.01549327
v 0.04567238 0.01598825 -0.00469127
v 0.04983108 0.01977376 -0.01947229
v 0.04727165 0.02416165 -0.01716947
v 0.04636347 0.02237847 -0.00990137
v 0.04589655 0.03104597 -0.01727237
v 0.04616468 0.02878538 -0.01207522
v 0.05297325 -0.01745238 -0.01846836
v 0.05378621 -0.01061805 -0.01792413
v 0.05331405 -0.01370807 -0.01292799
v 0.05373975 -0.00340395 -0.01782509
v 0.05370939 -0.00694566 -0.01200007
v 0.05374643 0.00381852 -0.01787505
v 0.05365656 0.00030407 -0.01187318
v 0.05362267 0.01035430 -0.01870842
v 0.05342086 0.00818060 -0.01248337
v 0.05286304 0.01484370 -0.01693246
f 3 2 1
f 5 4 1
f 5 1 2
f 6 4 5
f 3 1 7
f 3 7 8
f 9 1 4
f 7 1 9
f 4 6 10
f 4 10 9
f 8 7 11
f 8 11 12
f 13 7 9
f 11 7 13
f 9 10 14
f 9 14 13
f 12 11 15
f 12 15 16
f 17 11 13
f 15 11 17
f 13 14 18
f 13 18 17
f 16 15 19
f 16 19 20
f 21 15 17
f 19 15 21
f 17 18 22
f 17 22 21
f 20 19 23
f 20 23 24
f 25 19 21
f 23 19 25
f 21 22 26
f 21 26 25
f 27 24 23
f 27 23 25
f 27 25 28
f 28 25 26
f 31 30 29
f 32 29 30
f 31 29 33
f 31 33 34
f 29 32 35
f 36 29 35
f 33 29 36
f 37 36 35
f 34 33 2
f 3 34 2
f 38 34 3
f 2 33 5
f 5 33 36
f 40 39 6
f 40 6 5
f 37 40 5
f 36 37 5
f 41 39 40
f 8 43 42
f 38 8 42
f 3 8 38
f 43 44 42
f 45 10 39
f 39 10 6
f 39 41 46
f 39 46 45
f 12 47 43
f 12 43 8
f 44 43 48
f 48 43 47
f 49 14 45
f 45 14 10
f 45 46 50
f 45 50 49
f 16 51 47
f 16 47 12
f 48 47 52
f 52 47 51
f 53 18 49
f 49 18 14
f 49 50 54
f 49 54 53
f 20 55 51
f 20 51 16
f 52 51 56
f 56 51 55
f 57 22 53
f 53 22 18
f 53 54 58
f 53 58 57
f 60 59 55
f 20 60 55
f 24 60 20
f 55 59 56
f 61 26 57
f 57 26 22
f 57 58 62
f 57 62 61
f 24 27 63
f 64 24 63
f 60 24 64
f 28 65 27
f 27 65 63
f 66 65 28
f 66 28 26
f 67 66 26
f 61 67 26
f 67 61 62
f 64 63 68
f 64 68 69
f 70 63 65
f 68 63 70
f 65 66 71
f 65 71 70
f 72 69 68
f 72 68 70
f 72 70 73
f 73 70 71
f 76 75 74
f 78 77 74
f 78 74 75
f 79 77 78
f 76 74 30
f 31 76 30
f 80 76 31
f 30 74 32
f 74 81 32
f 74 77 81
f 77 79 82
f 77 82 81
f 34 84 83
f 80 34 83
f 31 34 80
f 81 35 32
f 85 83 84
f 87 86 37
f 87 37 35
f 82 87 35
f 81 82 35
f 88 86 87
f 38 89 84
f 38 84 34
f 85 84 90
f 90 84 89
f 86 40 37
f 92 91 41
f 92 41 40
f 88 92 40
f 86 88 40
f 93 91 92
f 42 89 38
f 95 94 44
f 44 94 42
f 94 90 42
f 90 89 42
f 95 96 94
f 97 46 91
f 91 46 41
f 91 93 98
f 99 91 98
f 97 91 99
f 101 100 99
f 101 99 98
f 102 100 101
f 48 103 95
f 48 95 44
f 96 95 104
f 104 95 103
f 105 50 97
f 97 50 46
f 106 97 99
f 105 97 106
f 107 99 100
f 106 99 107
f 100 102 108
f 100 108 107
f 52 109 103
f 52 103 48
f 104 103 110
f 110 103 109
f 111 54 105
f 105 54 50
f 112 105 106
f 111 105 112
f 113 106 107
f 112 106 113
f 107 108 114
f 107 114 113
f 56 115 109
f 56 109 52
f 110 109 116
f 116 109 115
f 117 58 111
f 111 58 54
f 118 111 112
f 117 111 118
f 119 112 113
f 118 112 119
f 113 114 120
f 113 120 119
f 60 121 59
f 115 56 59
f 121 115 59
f 122 115 121
f 116 115 123
f 123 115 122
f 124 62 117
f 117 62 58
f 118 126 125
f 124 118 125
f 117 118 124
f 126 118 119
f 126 119 127
f 127 119 120
f 64 128 121
f 64 121 60
f 130 122 129
f 122 128 129
f 122 121 128
f 131 66 67
f 130 123 122
f 132 131 67
f 132 67 62
f 133 132 62
f 124 133 62
f 133 124 125
f 135 134 128
f 64 135 128
f 69 135 64
f 128 134 129
f 136 71 131
f 131 71 66
f 131 132 137
f 131 137 136
f 69 72 138
f 139 69 138
f 135 69 139
f 73 140 72
f 72 140 138
f 141 140 73
f 141 73 71
f 142 141 71
f 136 142 71
f 142 136 137
f 143 139 138
f 143 138 140
f 143 140 144
f 144 140 141
f 146 145 75
f 146 75 76
f 75 147 78
f 145 147 75
f 79 78 147
f 79 147 148
f 80 150 149
f 146 80 149
f 76 80 146
f 150 151 149
f 153 82 152
f 82 148 152
f 82 79 148
f 154 153 152
f 83 150 80
f 156 155 85
f 85 155 83
f 155 151 83
f 151 150 83
f 153 87 82
f 157 155 156
f 159 158 88
f 159 88 87
f 154 159 87
f 153 154 87
f 161 160 158
f 161 158 159
f 162 160 161
f 90 163 156
f 90 156 85
f 157 156 164
f 164 156 163
f 158 92 88
f 92 158 93
f 158 165 93
f 158 160 165
f 160 162 166
f 167 160 166
f 165 160 167
f 169 168 167
f 169 167 166
f 170 168 169
f 94 163 90
f 172 171 96
f 96 171 94
f 171 164 94
f 164 163 94
f 174 173 172
f 172 173 171
f 165 98 93
f 175 173 174
f 98 165 101
f 101 165 167
f 101 167 102
f 167 176 102
f 167 168 176
f 168 170 177
f 168 177 176
f 104 178 172
f 104 172 96
f 172 179 174
f 172 178 179
f 175 174 180
f 174 181 180
f 174 179 181
f 181 182 180
f 183 108 176
f 176 108 102
f 176 177 184
f 176 184 183
f 110 185 178
f 110 178 104
f 178 186 179
f 178 185 186
f 179 187 181
f 179 186 187
f 182 181 188
f 188 181 187
f 189 114 183
f 183 114 108
f 183 184 190
f 183 190 189
f 116 191 185
f 116 185 110
f 185 192 186
f 185 191 192
f 186 193 187
f 186 192 193
f 188 187 194
f 194 187 193
f 195 120 189
f 189 120 114
f 189 190 196
f 189 196 195
f 123 197 191
f 123 191 116
f 199 192 198
f 192 197 198
f 192 191 197
f 201 200 199
f 125 199 200
f 199 125 192
f 126 192 125
f 192 126 193
f 127 193 126
f 193 127 194
f 202 194 127
f 194 202 201
f 200 201 202
f 120 195 127
f 195 202 127
f 195 203 202
f 195 196 204
f 195 204 203
f 129 205 130
f 205 206 130
f 130 206 123
f 206 207 123
f 207 197 123
f 208 132 133
f 207 198 197
f 125 200 133
f 200 208 133
f 200 209 208
f 210 200 202
f 209 200 210
f 203 212 211
f 210 203 211
f 202 203 210
f 212 203 204
f 135 213 134
f 213 214 134
f 134 214 129
f 214 215 129
f 215 205 129
f 205 215 206
f 216 137 208
f 208 137 132
f 209 218 217
f 216 209 217
f 208 209 216
f 218 209 210
f 218 210 219
f 219 210 211
f 221 220 213
f 135 221 213
f 139 221 135
f 213 220 214
f 223 222 142
f 142 222 141
f 142 137 216
f 224 142 216
f 223 142 224
f 224 216 217
f 139 143 225
f 226 139 225
f 221 139 226
f 225 143 227
f 143 228 227
f 143 144 228
f 144 141 222
f 144 222 228
f 229 226 225
f 229 225 227
f 232 231 230
f 234 233 230
f 234 230 231
f 235 233 234
f 232 230 145
f 146 232 145
f 236 232 146
f 145 230 147
f 147 230 233
f 238 237 148
f 238 148 147
f 235 238 147
f 233 235 147
f 239 237 238
f 240 236 146
f 240 146 149
f 149 151 240
f 240 151 241
f 237 152 148
f 243 242 154
f 243 154 152
f 239 243 152
f 237 239 152
f 244 242 243
f 245 241 151
f 245 151 155
f 247 246 157
f 246 155 157
f 246 245 155
f 242 159 154
f 248 246 247
f 244 249 242
f 249 159 242
f 249 161 159
f 251 250 162
f 161 251 162
f 249 251 161
f 253 252 250
f 253 250 251
f 254 252 253
f 164 255 247
f 164 247 157
f 248 247 256
f 247 257 256
f 247 255 257
f 259 258 257
f 257 258 256
f 250 166 162
f 260 258 259
f 166 250 169
f 169 250 252
f 170 169 252
f 254 170 252
f 261 170 254
f 171 255 164
f 255 171 173
f 255 173 257
f 257 173 175
f 262 257 175
f 259 257 262
f 260 259 263
f 259 264 263
f 259 262 264
f 266 265 264
f 264 265 263
f 261 265 266
f 177 261 266
f 170 261 177
f 180 262 175
f 262 180 182
f 267 262 182
f 264 262 267
f 264 268 266
f 264 267 268
f 268 184 177
f 268 177 266
f 188 269 267
f 188 267 182
f 267 270 268
f 267 269 270
f 270 190 184
f 270 184 268
f 194 271 269
f 194 269 188
f 269 272 270
f 269 271 272
f 272 196 190
f 272 190 270
f 198 273 199
f 274 201 199
f 274 199 273
f 274 275 201
f 201 275 194
f 275 276 194
f 276 271 194
f 271 276 272
f 272 276 277
f 196 272 277
f 278 196 277
f 204 196 278
f 206 279 207
f 279 280 207
f 207 280 198
f 280 281 198
f 281 273 198
f 273 281 274
f 274 281 282
f 274 282 275
f 283 211 212
f 284 283 212
f 204 284 212
f 278 284 204
f 214 285 215
f 285 286 215
f 215 286 206
f 286 287 206
f 287 279 206
f 279 287 280
f 288 217 218
f 219 289 218
f 218 289 288
f 290 289 219
f 290 219 211
f 291 290 211
f 283 291 211
f 291 283 284
f 221 292 220
f 292 293 220
f 220 293 214
f 293 294 214
f 294 285 214
f 295 222 223
f 294 286 285
f 295 223 296
f 223 297 296
f 223 224 297
f 224 217 288
f 298 224 288
f 297 224 298
f 298 288 289
f 298 289 299
f 299 289 290
f 301 300 292
f 221 301 292
f 226 301 221
f 302 227 228
f 300 293 292
f 303 302 228
f 303 228 222
f 304 303 222
f 295 304 222
f 304 295 296
f 305 301 226
f 305 226 229
f 229 227 302
f 306 229 302
f 305 229 306
f 306 302 303
f 308 307 231
f 308 231 232
f 231 309 234
f 307 309 231
f 235 234 309
f 235 309 310
f 236 312 311
f 308 236 311
f 232 236 308
f 312 313 311
f 310 314 235
f 235 314 238
f 239 238 314
f 239 314 315
f 240 312 236
f 317 316 241
f 241 316 240
f 316 313 240
f 313 312 240
f 317 318 316
f 315 319 239
f 239 319 243
f 321 320 244
f 243 321 244
f 319 321 243
f 323 322 320
f 323 320 321
f 324 322 323
f 245 317 241
f 325 318 317
f 245 325 317
f 246 325 245
f 327 326 248
f 326 246 248
f 326 325 246
f 320 249 244
f 328 326 327
f 249 320 251
f 251 320 322
f 324 329 322
f 329 251 322
f 329 253 251
f 254 253 329
f 254 329 330
f 256 327 248
f 331 328 327
f 256 331 327
f 258 331 256
f 333 332 260
f 332 258 260
f 332 331 258
f 335 334 333
f 333 334 332
f 330 334 335
f 261 330 335
f 254 330 261
f 263 333 260
f 333 263 265
f 333 265 335
f 335 265 261
f 275 336 276
f 337 277 276
f 337 276 336
f 337 278 277
f 280 338 281
f 339 282 281
f 339 281 338
f 339 340 282
f 282 340 275
f 340 341 275
f 341 336 275
f 336 341 337
f 337 341 342
f 278 337 342
f 343 278 342
f 284 278 343
f 345 344 287
f 345 287 286
f 280 287 338
f 287 346 338
f 287 344 346
f 338 346 339
f 339 346 347
f 339 347 340
f 348 290 291
f 349 348 291
f 284 349 291
f 343 349 284
f 351 350 294
f 351 294 293
f 286 294 345
f 345 294 350
f 352 296 297
f 352 297 353
f 297 354 353
f 297 298 354
f 355 298 299
f 355 354 298
f 299 290 348
f 356 299 348
f 355 299 356
f 356 348 349
f 358 357 300
f 358 300 301
f 293 300 351
f 351 300 357
f 360 359 304
f 304 359 303
f 304 296 352
f 361 304 352
f 360 304 361
f 361 352 353
f 362 358 301
f 362 301 305
f 363 305 306
f 363 362 305
f 306 303 359
f 306 359 363
f 365 364 307
f 365 307 308
f 307 366 309
f 364 366 307
f 310 309 366
f 310 366 367
f 368 365 308
f 368 308 311
f 311 313 368
f 368 313 369
f 367 370 310
f 310 370 314
f 372 371 315
f 314 372 315
f 370 372 314
f 373 371 372
f 374 369 313
f 374 313 316
f 316 318 374
f 374 318 375
f 371 319 315
f 373 376 371
f 376 319 371
f 376 321 319
f 321 377 323
f 376 377 321
f 379 378 324
f 323 379 324
f 377 379 323
f 380 378 379
f 381 375 318
f 381 318 325
f 382 325 326
f 382 381 325
f 384 383 328
f 383 326 328
f 383 382 326
f 384 385 383
f 378 329 324
f 330 329 378
f 380 330 378
f 386 330 380
f 331 384 328
f 387 385 384
f 331 387 384
f 332 387 331
f 388 332 334
f 388 387 332
f 334 330 386
f 334 386 388
f 340 389 341
f 341 389 390
f 391 341 390
f 342 341 391
f 343 342 391
f 343 391 392
f 345 393 344
f 394 346 344
f 394 344 393
f 346 394 395
f 396 346 395
f 347 346 396
f 340 347 389
f 347 397 389
f 347 396 397
f 389 397 390
f 392 349 343
f 398 349 392
f 351 399 350
f 399 400 350
f 350 400 345
f 400 401 345
f 401 393 345
f 393 401 394
f 394 401 402
f 353 402 403
f 402 353 394
f 354 394 353
f 394 354 395
f 404 395 354
f 405 354 355
f 405 404 354
f 406 355 356
f 406 405 355
f 356 349 398
f 356 398 406
f 408 407 357
f 408 357 358
f 351 357 399
f 357 409 399
f 357 407 409
f 410 359 360
f 409 400 399
f 410 360 411
f 360 412 411
f 360 361 412
f 361 353 403
f 361 403 412
f 358 362 413
f 414 358 413
f 408 358 414
f 413 362 415
f 362 416 415
f 362 363 416
f 363 359 410
f 417 363 410
f 416 363 417
f 417 410 411
f 418 414 413
f 418 413 415
f 420 419 364
f 420 364 365
f 364 421 366
f 419 421 364
f 367 366 421
f 367 421 422
f 423 420 365
f 423 365 368
f 368 369 423
f 423 369 424
f 422 425 367
f 367 425 370
f 370 426 372
f 425 426 370
f 373 372 426
f 373 426 427
f 428 424 369
f 428 369 374
f 430 429 375
f 429 374 375
f 429 428 374
f 430 431 429
f 427 432 373
f 373 432 376
f 376 433 377
f 432 433 376
f 377 434 379
f 433 434 377
f 380 379 434
f 380 434 435
f 381 430 375
f 436 431 430
f 381 436 430
f 382 436 381
f 437 382 383
f 437 436 382
f 439 438 385
f 438 383 385
f 438 437 383
f 439 440 438
f 435 386 380
f 441 386 435
f 387 439 385
f 442 440 439
f 387 442 439
f 388 442 387
f 388 386 441
f 388 441 442
f 390 443 391
f 443 392 391
f 445 444 396
f 445 396 395
f 396 446 397
f 444 446 396
f 390 397 443
f 397 447 443
f 397 446 447
f 392 443 447
f 448 392 447
f 398 392 448
f 450 449 401
f 450 401 400
f 401 451 402
f 449 451 401
f 451 403 402
f 403 451 452
f 395 404 445
f 453 445 404
f 454 404 405
f 454 453 404
f 455 405 406
f 455 454 405
f 406 398 448
f 406 448 455
f 457 456 407
f 457 407 408
f 407 458 409
f 456 458 407
f 400 409 450
f 450 409 458
f 460 459 412
f 412 459 411
f 412 403 452
f 412 452 460
f 414 457 408
f 414 461 457
f 463 462 416
f 416 462 415
f 464 416 417
f 464 463 416
f 417 411 459
f 417 459 464
f 465 461 414
f 465 414 418
f 418 415 462
f 418 462 465
f 467 466 419
f 467 419 420
f 419 468 421
f 466 468 419
f 422 421 468
f 422 468 469
f 470 467 420
f 470 420 423
f 423 424 470
f 470 424 471
f 469 472 422
f 422 472 425
f 425 473 426
f 472 473 425
f 427 426 473
f 427 473 474
f 475 471 424
f 475 424 428
f 477 475 476
f 475 429 476
f 475 428 429
f 431 476 429
f 474 478 427
f 427 478 432
f 432 479 433
f 478 479 432
f 433 480 434
f 479 480 433
f 435 434 480
f 435 480 481
f 482 477 476
f 482 476 431
f 436 482 431
f 483 482 436
f 484 436 437
f 484 483 436
f 486 484 485
f 484 438 485
f 484 437 438
f 440 485 438
f 481 441 435
f 487 441 481
f 488 486 485
f 488 485 440
f 442 488 440
f 489 488 442
f 442 441 487
f 442 487 489
f 492 491 490
f 493 490 491
f 496 495 494
f 444 445 494
f 495 444 494
f 497 444 495
f 444 498 446
f 497 498 444
f 490 447 492
f 447 498 492
f 447 446 498
f 448 447 490
f 493 448 490
f 499 448 493
f 501 500 449
f 501 449 450
f 494 451 496
f 451 500 496
f 451 449 500
f 452 451 502
f 494 502 451
f 502 494 503
f 445 503 494
f 503 445 453
f 504 453 454
f 504 503 453
f 505 454 455
f 505 504 454
f 455 448 499
f 455 499 505
f 507 506 456
f 507 456 457
f 456 508 458
f 506 508 456
f 450 458 501
f 501 458 508
f 510 509 460
f 460 509 459
f 460 452 502
f 460 502 510
f 461 507 457
f 461 511 507
f 513 512 463
f 463 512 462
f 514 463 464
f 514 513 463
f 464 459 509
f 464 509 514
f 515 511 461
f 515 461 465
f 465 462 512
f 465 512 515
f 517 516 466
f 517 466 467
f 466 518 468
f 516 518 466
f 469 468 518
f 469 518 519
f 520 517 467
f 520 467 470
f 470 471 520
f 520 471 521
f 519 522 469
f 469 522 472
f 522 524 523
f 473 522 523
f 472 522 473
f 523 474 473
f 525 521 471
f 525 471 475
f 475 477 525
f 525 477 526
f 524 527 523
f 523 527 474
f 527 478 474
f 527 528 478
f 478 529 479
f 528 529 478
f 529 531 530
f 480 529 530
f 479 529 480
f 530 481 480
f 532 526 477
f 532 477 482
f 533 482 483
f 533 532 482
f 535 533 534
f 533 484 534
f 533 483 484
f 486 534 484
f 531 536 530
f 481 530 536
f 537 481 536
f 487 481 537
f 538 535 534
f 538 534 486
f 488 538 486
f 539 538 488
f 541 539 540
f 539 489 540
f 539 488 489
f 542 540 489
f 487 542 489
f 537 542 487
f 543 541 540
f 543 540 542
f 546 545 544
f 491 492 544
f 545 491 544
f 547 491 545
f 493 491 547
f 493 547 548
f 551 550 549
f 495 496 549
f 550 495 549
f 552 495 550
f 495 553 497
f 552 553 495
f 544 498 546
f 498 553 546
f 498 497 553
f 498 544 492
f 548 499 493
f 554 499 548
f 557 556 555
f 555 556 551
f 555 551 549
f 501 555 549
f 500 501 549
f 500 549 496
f 560 559 558
f 502 503 559
f 503 558 559
f 503 561 558
f 562 503 504
f 562 561 503
f 563 504 505
f 563 562 504
f 505 499 554
f 505 554 563
f 565 564 506
f 565 506 507
f 555 508 557
f 508 564 557
f 508 506 564
f 508 555 501
f 568 567 566
f 566 567 560
f 560 567 559
f 567 509 559
f 509 510 559
f 559 510 502
f 511 570 569
f 565 511 569
f 507 511 565
f 512 513 570
f 513 569 570
f 513 571 569
f 514 567 568
f 571 514 568
f 513 514 571
f 567 514 509
f 515 570 511
f 570 515 512
f 573 572 516
f 573 516 517
f 516 574 518
f 572 574 516
f 519 518 574
f 519 574 575
f 517 520 576
f 577 517 576
f 573 517 577
f 521 576 520
f 575 578 519
f 519 578 522
f 524 522 578
f 524 578 579
f 580 577 576
f 582 580 581
f 581 580 525
f 580 576 525
f 576 521 525
f 526 581 525
f 579 583 524
f 524 583 527
f 583 585 584
f 528 583 584
f 527 583 528
f 586 529 528
f 586 528 584
f 586 531 529
f 587 582 581
f 589 587 588
f 588 587 532
f 587 581 532
f 581 526 532
f 533 590 532
f 532 590 588
f 585 591 584
f 590 533 535
f 584 591 586
f 586 591 592
f 586 592 531
f 592 536 531
f 592 593 536
f 537 536 593
f 537 593 594
f 595 589 588
f 595 588 590
f 595 590 596
f 598 596 597
f 597 596 538
f 596 590 538
f 590 535 538
f 539 599 538
f 538 599 597
f 541 599 539
f 594 542 537
f 600 542 594
f 601 598 597
f 601 597 599
f 601 599 602
f 604 602 603
f 603 602 543
f 602 599 543
f 599 541 543
f 605 603 543
f 542 605 543
f 600 605 542
f 606 604 603
f 606 603 605
f 609 608 607
f 610 607 608
f 613 612 611
f 611 612 609
f 607 611 609
f 614 611 607
f 607 610 615
f 607 615 614
f 618 617 616
f 620 619 616
f 620 616 617
f 619 620 613
f 619 613 611
f 546 619 611
f 545 546 611
f 545 611 547
f 547 611 614
f 548 547 614
f 615 548 614
f 621 548 615
f 623 622 550
f 623 550 551
f 616 552 618
f 552 622 618
f 552 550 622
f 552 624 553
f 624 552 625
f 616 625 552
f 625 616 626
f 619 626 616
f 626 619 627
f 546 627 619
f 627 546 628
f 553 628 546
f 628 553 624
f 630 629 628
f 628 629 627
f 621 629 630
f 554 621 630
f 548 621 554
f 632 631 556
f 632 556 557
f 551 556 623
f 623 556 631
f 634 633 558
f 558 633 560
f 561 624 625
f 634 561 625
f 558 561 634
f 624 561 562
f 624 562 628
f 628 562 563
f 628 563 630
f 630 563 554
f 636 635 564
f 636 564 565
f 557 564 632
f 632 564 635
f 638 637 566
f 566 637 568
f 566 560 633
f 566 633 638
f 639 636 565
f 639 565 569
f 640 569 571
f 640 639 569
f 571 568 637
f 571 637 640
f 573 641 572
f 642 574 572
f 642 572 641
f 642 575 574
f 644 643 641
f 573 644 641
f 577 644 573
f 641 643 642
f 642 643 645
f 645 647 646
f 645 646 578
f 642 645 578
f 575 642 578
f 646 579 578
f 648 644 577
f 648 577 580
f 580 582 648
f 648 582 649
f 647 650 646
f 650 652 651
f 650 651 583
f 646 650 583
f 579 646 583
f 651 585 583
f 582 587 653
f 654 582 653
f 649 582 654
f 589 653 587
f 652 655 651
f 651 655 585
f 655 591 585
f 655 656 591
f 656 658 657
f 592 656 657
f 591 656 592
f 659 593 592
f 659 592 657
f 659 594 593
f 660 654 653
f 662 660 661
f 661 660 595
f 660 653 595
f 653 589 595
f 596 663 595
f 595 663 661
f 598 663 596
f 658 664 657
f 657 664 659
f 659 664 665
f 594 659 665
f 666 594 665
f 600 594 666
f 667 662 661
f 669 668 667
f 661 669 667
f 663 669 661
f 601 670 598
f 670 663 598
f 670 669 663
f 602 671 601
f 601 671 670
f 604 671 602
f 666 605 600
f 672 605 666
f 673 668 669
f 675 674 673
f 669 675 673
f 670 675 669
f 676 670 671
f 675 670 676
f 606 677 604
f 677 671 604
f 677 676 671
f 678 677 606
f 605 678 606
f 672 678 605
f 679 674 675
f 681 680 679
f 675 681 679
f 676 681 675
f 682 676 677
f 681 676 682
f 677 678 683
f 677 683 682
f 686 685 684
f 684 685 680
f 681 684 680
f 687 684 681
f 609 687 608
f 687 682 608
f 687 681 682
f 610 608 682
f 683 610 682
f 688 610 683
f 691 690 689
f 693 692 689
f 693 689 690
f 692 693 686
f 684 692 686
f 694 692 684
f 613 694 612
f 694 687 612
f 694 684 687
f 612 687 609
f 688 615 610
f 695 615 688
f 691 689 696
f 691 696 697
f 618 696 617
f 696 692 617
f 696 689 692
f 617 692 620
f 620 692 694
f 620 694 613
f 700 699 698
f 702 701 699
f 699 701 698
f 695 701 702
f 621 695 702
f 615 695 621
f 705 704 703
f 703 704 697
f 703 697 696
f 623 703 696
f 622 623 696
f 622 696 618
f 708 707 706
f 625 626 707
f 626 706 707
f 626 709 706
f 627 699 700
f 709 627 700
f 626 627 709
f 699 627 629
f 699 629 702
f 702 629 621
f 712 711 710
f 710 711 705
f 710 705 703
f 632 710 703
f 631 632 703
f 631 703 623
f 715 714 713
f 713 714 708
f 708 714 707
f 714 633 707
f 633 634 707
f 707 634 625
f 635 636 716
f 710 717 712
f 717 710 718
f 632 718 710
f 718 632 719
f 635 719 632
f 719 635 716
f 718 719 715
f 715 719 714
f 719 637 714
f 637 638 714
f 714 638 633
f 639 716 636
f 716 639 640
f 716 640 719
f 719 640 637
f 644 720 643
f 721 645 643
f 721 643 720
f 721 647 645
f 720 644 648
f 724 723 722
f 725 723 724
f 723 725 649
f 721 649 725
f 649 721 648
f 720 648 721
f 725 727 726
f 725 726 650
f 721 725 650
f 647 721 650
f 726 652 650
f 722 723 728
f 722 728 729
f 654 728 649
f 649 728 723
f 727 730 726
f 730 732 731
f 730 731 655
f 726 730 655
f 652 726 655
f 733 656 655
f 733 655 731
f 733 658 656
f 734 729 728
f 736 734 735
f 735 734 660
f 734 728 660
f 728 654 660
f 662 735 660
f 732 737 731
f 739 738 737
f 738 731 737
f 738 733 731
f 740 664 658
f 733 740 658
f 738 740 733
f 741 665 664
f 741 664 740
f 741 666 665
f 742 736 735
f 744 742 743
f 743 742 667
f 742 735 667
f 735 662 667
f 668 743 667
f 739 745 738
f 747 746 745
f 746 738 745
f 746 740 738
f 740 748 741
f 740 746 748
f 748 672 666
f 748 666 741
f 744 743 749
f 744 749 750
f 673 751 668
f 751 743 668
f 751 749 743
f 674 751 673
f 747 752 746
f 754 753 752
f 753 746 752
f 753 748 746
f 753 678 672
f 753 672 748
f 750 749 755
f 750 755 756
f 757 749 751
f 755 749 757
f 679 758 674
f 758 751 674
f 758 757 751
f 680 758 679
f 753 754 759
f 759 754 760
f 759 683 678
f 759 678 753
f 756 755 761
f 756 761 762
f 763 755 757
f 761 755 763
f 686 763 685
f 763 758 685
f 763 757 758
f 685 758 680
f 766 765 764
f 764 765 760
f 765 759 760
f 765 767 759
f 767 688 683
f 767 683 759
f 770 769 768
f 768 769 762
f 768 762 761
f 691 768 761
f 690 691 761
f 690 761 693
f 693 761 763
f 693 763 686
f 773 772 771
f 771 772 766
f 772 765 766
f 772 774 765
f 765 775 767
f 765 774 775
f 775 695 688
f 775 688 767
f 770 768 776
f 770 776 777
f 697 776 691
f 691 776 768
f 780 779 778
f 780 778 773
f 778 772 773
f 778 781 772
f 781 700 698
f 774 781 698
f 772 781 774
f 774 698 701
f 774 701 775
f 775 701 695
f 784 783 782
f 782 783 777
f 782 777 776
f 705 782 776
f 704 705 776
f 704 776 697
f 787 786 785
f 785 786 779
f 779 786 778
f 786 708 778
f 708 706 778
f 778 706 709
f 778 709 781
f 781 709 700
f 784 782 711
f 712 784 711
f 788 784 712
f 711 782 705
f 786 787 713
f 787 715 713
f 787 789 715
f 786 713 708
f 790 788 712
f 790 712 717
f 791 717 718
f 791 790 717
f 718 715 789
f 718 789 791
f 722 792 724
f 793 725 724
f 793 724 792
f 793 727 725
f 795 794 792
f 722 795 792
f 729 795 722
f 792 794 793
f 793 794 796
f 796 798 797
f 796 797 730
f 793 796 730
f 727 793 730
f 797 732 730
f 729 734 799
f 800 729 799
f 795 729 800
f 736 799 734
f 797 798 801
f 801 798 802
f 803 737 732
f 797 803 732
f 801 803 797
f 803 739 737
f 804 800 799
f 806 804 805
f 805 804 742
f 804 799 742
f 799 736 742
f 802 807 801
f 805 742 744
f 809 808 807
f 808 801 807
f 808 803 801
f 810 745 739
f 803 810 739
f 808 810 803
f 810 747 745
f 806 805 811
f 806 811 812
f 750 811 744
f 744 811 805
f 808 809 813
f 813 809 814
f 808 815 810
f 808 813 815
f 816 752 747
f 810 816 747
f 815 816 810
f 816 754 752
f 812 811 817
f 812 817 818
f 756 817 750
f 750 817 811
f 813 814 819
f 819 814 820
f 813 821 815
f 813 819 821
f 815 822 816
f 815 821 822
f 822 760 754
f 822 754 816
f 818 817 823
f 818 823 824
f 762 823 756
f 756 823 817
f 819 820 825
f 825 820 826
f 819 827 821
f 819 825 827
f 827 766 764
f 822 827 764
f 821 827 822
f 822 764 760
f 830 829 828
f 828 829 824
f 828 824 823
f 770 828 823
f 769 770 823
f 769 823 762
f 825 826 831
f 831 826 832
f 831 773 771
f 827 831 771
f 825 831 827
f 827 771 766
f 830 828 833
f 830 833 834
f 777 833 770
f 770 833 828
f 837 836 835
f 837 835 832
f 832 835 831
f 835 779 831
f 779 780 831
f 831 780 773
f 834 833 783
f 784 834 783
f 838 834 784
f 783 833 777
f 835 836 785
f 836 787 785
f 836 839 787
f 835 785 779
f 788 841 840
f 838 788 840
f 784 788 838
f 843 842 841
f 841 842 840
f 839 842 843
f 789 839 843
f 787 839 789
f 790 841 788
f 841 790 791
f 841 791 843
f 843 791 789
f 795 844 794
f 845 796 794
f 845 794 844
f 845 798 796
f 847 846 844
f 795 847 844
f 800 847 795
f 849 848 846
f 848 844 846
f 848 845 844
f 848 802 798
f 848 798 845
f 800 804 850
f 851 800 850
f 847 800 851
f 849 852 848
f 850 804 806
f 852 854 853
f 852 853 807
f 848 852 807
f 802 848 807
f 853 809 807
f 851 850 855
f 851 855 856
f 812 855 806
f 806 855 850
f 853 854 857
f 857 854 858
f 857 814 809
f 857 809 853
f 856 855 859
f 856 859 860
f 818 859 812
f 812 859 855
f 857 858 861
f 861 858 862
f 861 820 814
f 861 814 857
f 860 859 863
f 860 863 864
f 824 863 818
f 818 863 859
f 861 862 865
f 865 862 866
f 865 826 820
f 865 820 861
f 864 863 829
f 830 864 829
f 867 864 830
f 829 863 824
f 870 869 868
f 868 869 866
f 869 865 866
f 869 871 865
f 871 832 826
f 871 826 865
f 834 873 872
f 867 834 872
f 830 834 867
f 872 873 870
f 873 869 870
f 873 874 869
f 874 836 837
f 871 874 837
f 869 874 871
f 871 837 832
f 838 875 873
f 838 873 834
f 873 876 874
f 873 875 876
f 876 839 836
f 876 836 874
f 840 875 838
f 875 840 842
f 875 842 876
f 876 842 839
f 847 877 846
f 877 849 846
f 851 878 877
f 851 877 847
f 879 852 849
f 877 879 849
f 878 879 877
f 879 854 852
f 856 880 878
f 856 878 851
f 878 881 879
f 878 880 881
f 881 858 854
f 881 854 879
f 860 882 880
f 860 880 856
f 880 883 881
f 880 882 883
f 883 862 858
f 883 858 881
f 864 884 882
f 864 882 860
f 882 885 883
f 882 884 885
f 885 866 862
f 885 862 883
f 867 886 884
f 867 884 864
f 886 870 868
f 885 886 868
f 884 886 885
f 885 868 866
f 872 886 867
f 886 872 870

