# https://github.com/mikedh/trimesh
v -0.02772627 -0.01011520 0.01945346
v -0.02303429 -0.01388914 0.01873573
v -0.02357282 -0.01002831 0.01350345
v -0.02758265 -0.00954045 0.02513347
v -0.02399950 -0.01384628 0.02471679
v -0.02385774 -0.01124441 0.02935777
v -0.02816912 -0.00269629 0.01788749
v -0.02463434 -0.00073954 0.01311156
v -0.02833550 -0.00284764 0.02419108
v -0.02499576 -0.00483101 0.02940875
v -0.02722366 0.00384690 0.01706766
v -0.02404808 0.00616377 0.01430928
v -0.02762214 0.00463961 0.02285519
v -0.02489310 0.00318430 0.02897776
v -0.02478592 0.00918707 0.01959445
v -0.02427969 0.00860064 0.02608240
v -0.01953260 -0.05738955 -0.01456295
v -0.01540143 -0.06162453 -0.01586122
v -0.01597841 -0.05800790 -0.01962171
v -0.01466240 -0.05969388 -0.01153680
v -0.01970640 -0.05213666 -0.02137380
v -0.01559778 -0.05404390 -0.02329993
v -0.01724837 -0.05006851 -0.02571715
v -0.02095364 -0.05045623 -0.01436417
v -0.01609945 -0.05603086 -0.00648194
v -0.02018603 -0.05148824 -0.00640738
v -0.01951468 -0.04953058 0.00247140
v -0.01697142 -0.05370181 -0.00065624
v -0.01434248 -0.05121866 0.00471105
v -0.01977866 -0.04271812 -0.02385597
v -0.01640469 -0.04421542 -0.02762454
v -0.02060517 -0.04332468 -0.01554086
v -0.02061423 -0.04317748 -0.00725642
v -0.02081013 -0.04319546 0.00110093
v -0.01584302 -0.04785582 0.00985808
v -0.02026597 -0.04318413 0.01031267
v -0.01937006 -0.04149065 0.01795348
v -0.01685844 -0.04565002 0.01601219
v -0.01496115 -0.04327305 0.02039437
v -0.01927634 -0.03584578 -0.02964977
v -0.01575849 -0.03923455 -0.03104392
v -0.01709967 -0.03376540 -0.03396907
v -0.02050163 -0.03396813 -0.02244129
v -0.02040218 -0.03502895 -0.01531629
v -0.02030847 -0.03487551 -0.00698412
v -0.02046833 -0.03479629 0.00125716
v -0.02089202 -0.03477825 0.00947507
v -0.02018197 -0.03474520 0.01690593
v -0.01590712 -0.03682474 0.02122460
v -0.01985849 -0.02701808 -0.03101525
v -0.01580274 -0.02629845 -0.03454330
v -0.02065389 -0.02695990 -0.02345140
v -0.02038733 -0.02693926 -0.01508172
v -0.02021382 -0.02680465 -0.00682626
v -0.02026487 -0.02658096 0.00144548
v -0.02054685 -0.02760607 0.00843945
v -0.01956201 -0.02598992 0.01520077
v -0.01543740 -0.02726223 0.02112918
v -0.01955015 -0.01910817 -0.03080839
v -0.01506511 -0.01868537 -0.03418414
v -0.02095337 -0.01862824 -0.02339668
v -0.02057194 -0.01870916 -0.01493468
v -0.02021741 -0.01869627 -0.00667723
v -0.02017292 -0.01849005 0.00143126
v -0.02008377 -0.01881623 0.01009315
v -0.01576919 -0.02053326 0.01361732
v -0.01551530 -0.02324888 0.01787256
v -0.01701809 -0.01436160 -0.03051043
v -0.01442936 -0.01036397 -0.02687273
v -0.01963663 -0.01227310 -0.02470941
v -0.01996423 -0.01061003 -0.01571739
v -0.02035639 -0.01060142 -0.00663993
v -0.02014956 -0.01052506 0.00143004
v -0.02078103 -0.01166584 0.00766275
v -0.01835114 -0.01560523 0.01619367
v -0.01752779 -0.01584075 0.02334679
v -0.02017979 -0.00881958 0.03354159
v -0.01624660 -0.01521304 0.03275544
v -0.01542008 -0.01129962 0.03770683
v -0.01574925 -0.00800306 -0.02067177
v -0.01657970 -0.00628440 -0.01422775
v -0.01550814 -0.00214958 -0.01070955
v -0.01968944 -0.00319918 -0.00714422
v -0.02023331 -0.00261404 0.00149692
v -0.02119920 -0.00446292 0.00835022
v -0.02069192 -0.00098124 0.03351632
v -0.01655069 -0.00502857 0.03755232
v -0.01981823 0.00582001 -0.00691090
v -0.01566032 0.00445406 -0.01109137
v -0.02038684 0.00529821 0.00130385
v -0.02113647 0.00468433 0.00929126
v -0.02069745 0.00748648 0.03230521
v -0.01669302 0.00335691 0.03754450
v -0.01961892 0.01344610 -0.02951434
v -0.01459204 0.00979916 -0.03085095
v -0.01698871 0.01407329 -0.03443479
v -0.02005517 0.01379030 -0.02161869
v -0.01611325 0.00977274 -0.02332814
v -0.01996228 0.01257321 -0.01318619
v -0.01597542 0.00907401 -0.01581474
v -0.02060118 0.01418094 -0.00610094
v -0.02050459 0.01324483 0.00110382
v -0.02037922 0.01228914 0.00815252
v -0.02047144 0.01347104 0.01514620
v -0.02069872 0.01266714 0.02467596
v -0.01903590 0.01337752 0.03191118
v -0.01537322 0.01288448 0.03768024
v -0.01998852 0.02072156 -0.03100727
v -0.01593168 0.02089512 -0.03515865
v -0.02080595 0.02082205 -0.02364945
v -0.02059596 0.02098287 -0.01538683
v -0.02044979 0.02103853 -0.00725973
v -0.02050260 0.02115559 0.00100641
v -0.01987346 0.02095801 0.01043275
v -0.01601382 0.01972031 0.01339426
v -0.01572472 0.01755932 0.01868010
v -0.01666545 0.01727323 0.02759428
v -0.01555830 0.01744073 0.03376981
v -0.01991415 0.02925023 -0.03085577
v -0.01542140 0.02889115 -0.03442295
v -0.02069261 0.02910685 -0.02339464
v -0.02039361 0.02914292 -0.01511179
v -0.02028091 0.02918919 -0.00691655
v -0.02044793 0.02917958 0.00128329
v -0.02074768 0.02938996 0.00962698
v -0.01601520 0.02487145 0.01730470
v -0.01946403 0.02993128 0.01697314
v -0.01426054 0.02968448 0.02120770
v -0.01934875 0.03702471 -0.03087458
v -0.01597085 0.03558767 -0.03382731
v -0.02076995 0.03749572 -0.02311908
v -0.02049497 0.03742458 -0.01462261
v -0.02034267 0.03740293 -0.00643235
v -0.02049666 0.03742619 0.00167478
v -0.02083603 0.03757656 0.00982421
v -0.02014979 0.03770511 0.01710256
v -0.01699148 0.03644645 0.02103807
v -0.01706769 0.04097779 -0.03072162
v -0.01644663 0.04625359 -0.02718955
v -0.01995091 0.04542110 -0.02373831
v -0.02082053 0.04580789 -0.01466210
v -0.02066637 0.04574323 -0.00630840
v -0.02065249 0.04456473 0.00064881
v -0.02009737 0.04621666 0.00776490
v -0.01962716 0.04501682 0.01566340
v -0.01612039 0.04354083 0.02077715
v -0.01902498 0.05245806 -0.02346582
v -0.01596696 0.05232696 -0.02529743
v -0.02000040 0.05325192 -0.01698567
v -0.02000362 0.05321575 -0.00847437
v -0.01962788 0.05241186 0.00039018
v -0.01687818 0.05285230 0.00550957
v -0.01533287 0.04994200 0.01124448
v -0.01533535 0.04838056 0.01799043
v -0.01633474 0.05639166 -0.02110678
v -0.01595483 0.05739047 -0.01324018
v -0.01574239 0.05728401 -0.00479821
v -0.01497714 0.05635854 0.00132912
v -0.00879421 -0.06187370 -0.01516388
v -0.00989543 -0.05983890 -0.01820009
v -0.00681725 -0.05942925 -0.01102757
v -0.01284623 -0.04922387 -0.02248336
v -0.00793227 -0.05323372 -0.01950917
v -0.00877332 -0.05617778 -0.00582697
v -0.01064842 -0.05418050 0.00026237
v -0.00646350 -0.05094519 0.00524863
v -0.01306647 -0.04172713 -0.02408613
v -0.00745208 -0.04785383 -0.01463442
v -0.01171516 -0.04349943 -0.01436514
v -0.00872371 -0.04567639 -0.00863188
v -0.01141585 -0.04153758 -0.00548082
v -0.00620238 -0.04336019 -0.00327163
v -0.00832660 -0.04813747 0.01035813
v -0.01030210 -0.04634675 0.01680944
v -0.00821336 -0.04218945 0.02118816
v -0.01363306 -0.03429047 -0.03033066
v -0.01235239 -0.03428388 -0.02210504
v -0.01240224 -0.03531566 -0.01500723
v -0.01269629 -0.03525718 -0.00689797
v -0.00786362 -0.03990902 0.00168301
v -0.01214298 -0.03519734 0.00190800
v -0.00894036 -0.03757449 0.00752269
v -0.01155550 -0.03304669 0.01069978
v -0.00641490 -0.03494031 0.01295427
v -0.00902080 -0.03433464 0.02117292
v -0.01192292 -0.02668653 -0.03192426
v -0.01184017 -0.02712535 -0.02411402
v -0.01268518 -0.02682358 -0.01489276
v -0.01273458 -0.02661202 -0.00667314
v -0.01280547 -0.02792390 0.00006513
v -0.01277375 -0.02544827 0.00860075
v -0.00797713 -0.03211668 0.01717024
v -0.01248384 -0.02727180 0.01783973
v -0.00695229 -0.02295247 -0.02986431
v -0.00887326 -0.02012069 -0.03432021
v -0.00899129 -0.02222976 -0.02257234
v -0.01162982 -0.02045948 -0.01642086
v -0.00650545 -0.01843751 -0.01846833
v -0.01223080 -0.01813172 -0.00753523
v -0.01191661 -0.01900465 0.00133764
v -0.00846815 -0.01897242 0.00577996
v -0.00760137 -0.02171301 0.01076616
v -0.01280598 -0.01903689 0.01791664
v -0.00730781 -0.02235679 0.01845044
v -0.01201579 -0.02209265 0.02040325
v -0.00873371 -0.02317287 0.02485041
v -0.01309449 -0.01995437 0.02570419
v -0.01152740 -0.01904192 0.03337291
v -0.00822984 -0.02128410 0.03227922
v -0.00693794 -0.01884190 0.03722814
v -0.01059450 -0.01447002 -0.03170972
v -0.00647594 -0.01048148 -0.02736060
v -0.00799774 -0.01559662 -0.01250577
v -0.00779496 -0.01342847 -0.00535335
v -0.01095722 -0.01155069 -0.00054295
v -0.00742290 -0.01024583 -0.00091854
v -0.00801846 -0.01228625 0.00349276
v -0.01203600 -0.00882581 0.04178240
v -0.00982588 -0.01435020 0.04053939
v -0.00667140 -0.01115006 0.04424481
v -0.00831471 -0.00765665 -0.02204306
v -0.01020364 -0.00603120 -0.01566657
v -0.00809586 -0.00217171 -0.01124424
v -0.00861440 -0.00837471 0.00141085
v -0.01272246 -0.00095637 0.04163796
v -0.00749998 -0.00476493 0.04489511
v -0.00837081 0.00419232 -0.01104498
v -0.01285794 0.00751862 0.04165257
v -0.00777888 0.00368171 0.04477653
v -0.00681866 0.00946880 -0.03062134
v -0.01071179 0.01347127 -0.03509476
v -0.00883573 0.00895966 -0.02298878
v -0.00877599 0.00838258 -0.01536554
v -0.01065301 0.01465686 0.00167677
v -0.00878132 0.01319842 -0.00273454
v -0.00804183 0.01065858 0.00088061
v -0.00801275 0.01195664 0.00359707
v -0.01216725 0.01319651 0.04173178
v -0.00789576 0.01152814 0.04426519
v -0.00763702 0.02117809 -0.03507864
v -0.01158758 0.02214514 -0.02244622
v -0.00866604 0.02182928 -0.02770906
v -0.00627507 0.01781741 -0.02256247
v -0.00771895 0.01730156 -0.01549729
v -0.01185016 0.02151274 -0.01363162
v -0.00714729 0.01633013 -0.00693149
v -0.01176715 0.02013906 -0.00528210
v -0.01258873 0.02194561 0.00212101
v -0.00916878 0.01728735 0.00885539
v -0.01297550 0.02175675 0.00967870
v -0.00751930 0.02177093 0.01233462
v -0.01165843 0.02119548 0.01731687
v -0.01376950 0.02233003 0.02359845
v -0.01209173 0.02153762 0.03145362
v -0.00992584 0.02036602 0.03685803
v -0.00748054 0.01709166 0.04137754
v -0.00799420 0.02472845 -0.03177899
v -0.01249385 0.02925362 -0.03008424
v -0.01253550 0.02985760 -0.02221781
v -0.01277659 0.02888969 -0.01510355
v -0.01284460 0.02915382 -0.00697548
v -0.01280532 0.02928839 0.00112902
v -0.01275642 0.02813698 0.00816273
v -0.00706200 0.02457006 0.01806093
v -0.01236579 0.02936282 0.01674793
v -0.00912568 0.02551551 0.02576383
v -0.01233294 0.02480010 0.02063857
v -0.00650627 0.02406186 0.03388551
v -0.01370887 0.03867067 -0.02997231
v -0.01232535 0.03708828 -0.02342565
v -0.01260496 0.03718482 -0.01481206
v -0.01282230 0.03630195 -0.00769924
v -0.01209285 0.03821001 -0.00050705
v -0.01153233 0.03611924 0.00829304
v -0.00855448 0.03648150 0.01359451
v -0.00781524 0.03377047 0.01780489
v -0.00929380 0.03737921 0.02127759
v -0.01326409 0.04558926 -0.02457124
v -0.01179336 0.04597320 -0.01719582
v -0.01164341 0.04413157 -0.00774068
v -0.00890270 0.04480265 -0.00248632
v -0.00694673 0.04191227 0.00316474
v -0.00679713 0.04007236 0.00950913
v -0.00874788 0.04488851 0.02112089
v -0.01261170 0.05300645 -0.02174826
v -0.00783012 0.05330052 -0.01811665
v -0.00711350 0.04972131 -0.01335429
v -0.00709548 0.04808880 -0.00664719
v -0.01049610 0.05378096 0.00521760
v -0.00671217 0.05053791 0.01023219
v -0.00883325 0.04893549 0.01678451
v -0.00903816 0.05726908 -0.01586698
v -0.00838488 0.05810581 -0.00698040
v -0.00834017 0.05694652 0.00017887
v -0.00040038 -0.06170267 -0.01525221
v -0.00215634 -0.05860110 -0.01840133
v 0.00161942 -0.05946677 -0.01110703
v 0.00214063 -0.05204566 -0.01845477
v -0.00044644 -0.05597358 -0.00591146
v -0.00232438 -0.05388097 0.00028021
v 0.00189934 -0.05093475 0.00517464
v 0.00001803 -0.04798499 -0.01411485
v -0.00223188 -0.04624838 -0.00781032
v 0.00199130 -0.04331297 -0.00269243
v 0.00003787 -0.04799888 0.01030215
v -0.00179014 -0.04620344 0.01680292
v 0.00022973 -0.04214323 0.02110120
v -0.00020834 -0.04034221 0.00225622
v -0.00243171 -0.03828961 0.00833456
v 0.00165808 -0.03486692 0.01354440
v -0.00030228 -0.03579436 0.02101907
v -0.00053918 -0.03261017 0.01771220
v 0.00160904 -0.02182712 -0.03055496
v -0.00018895 -0.01874407 -0.03377791
v -0.00259965 -0.02172112 -0.02404713
v 0.00163437 -0.01832710 -0.01888831
v 0.00197417 -0.02184668 0.01012100
v -0.00206657 -0.01722488 0.00522703
v -0.00000115 -0.02310455 0.01709587
v -0.00006576 -0.02318673 0.02539175
v -0.00188422 -0.02224295 0.03283199
v 0.00206724 -0.01934023 0.03796029
v -0.00231166 -0.01457650 -0.03168222
v 0.00188881 -0.01043298 -0.02716552
v -0.00027635 -0.01498204 -0.01383484
v -0.00014327 -0.01401518 -0.00675350
v -0.00487324 -0.01094592 0.00194526
v -0.00041230 -0.01408942 0.00011718
v -0.00205828 -0.01525999 0.04201174
v -0.00022050 -0.01014318 0.04500845
v 0.00001418 -0.00770893 -0.02184404
v -0.00179733 -0.00608831 -0.01546170
v 0.00029238 -0.00199935 -0.01083762
v -0.00029300 -0.00287817 0.04589682
v -0.00001094 0.00447381 -0.01072797
v -0.00049131 0.00544184 0.04583244
v 0.00147737 0.00953168 -0.03059736
v -0.00246404 0.01367857 -0.03489515
v -0.00051449 0.00908599 -0.02287550
v -0.00042193 0.00859903 -0.01516478
v -0.00602831 0.01304641 0.00095774
v -0.00049876 0.01273768 0.04491069
v 0.00180080 0.02029279 -0.03485881
v -0.00221155 0.02085361 -0.02748548
v 0.00184907 0.01729438 -0.02233990
v -0.00021080 0.01621049 -0.01521367
v -0.00010024 0.01639505 -0.00706736
v -0.00161079 0.01705180 0.00141886
v -0.00375921 0.02048685 0.00772045
v 0.00243709 0.02094166 0.00551875
v -0.00217910 0.02195259 0.03790174
v 0.00160869 0.01783199 0.04186349
v -0.00009275 0.02338966 -0.03155675
v -0.00076667 0.02397421 0.01133311
v 0.00077013 0.02536015 0.01827889
v -0.00023078 0.02556566 0.02544287
v -0.00006226 0.02481346 0.03287603
v 0.00023399 0.03504116 0.01784133
v -0.00195790 0.03745813 0.01356885
v 0.00009113 0.03814089 0.02114331
v 0.00197993 0.04276042 0.00250927
v -0.00236717 0.04584639 -0.00254476
v 0.00000392 0.04071879 0.00855491
v -0.00033395 0.04451654 0.02108347
v 0.00147471 0.05068972 -0.01410024
v -0.00062541 0.05373463 -0.01749350
v -0.00037049 0.04877661 -0.00769322
v -0.00209847 0.05344342 0.00512710
v 0.00172250 0.05030518 0.01039728
v -0.00047796 0.04857454 0.01671294
v -0.00040152 0.05690492 -0.01433876
v -0.00002649 0.05792107 -0.00683472
v 0.00010244 0.05668616 0.00033329
v 0.00798497 -0.06200557 -0.01524994
v 0.00623591 -0.05861550 -0.01849292
v 0.01005166 -0.05973099 -0.01099623
v 0.00921888 -0.05178611 -0.01899089
v 0.00792149 -0.05617384 -0.00595821
v 0.00603854 -0.05400409 0.00017139
v 0.01023130 -0.05112520 0.00523792
v 0.00734305 -0.04692304 -0.01416947
v 0.00581731 -0.04562116 -0.00773249
v 0.00855230 -0.04208424 -0.00265249
v 0.00833907 -0.04814697 0.01035518
v 0.00656457 -0.04635443 0.01675333
v 0.00852038 -0.04228908 0.02114420
v 0.00748739 -0.03925203 0.00236023
v 0.00575419 -0.03768736 0.00847503
v 0.00837300 -0.03370096 0.01357447
v 0.00888351 -0.03473978 0.02125186
v 0.00751820 -0.03111667 0.01780553
v 0.00856941 -0.02341356 -0.03177693
v 0.00893963 -0.01956804 -0.03426107
v 0.00619819 -0.02266752 -0.02492030
v 0.00823770 -0.01940280 -0.01882086
v 0.00841803 -0.02195695 0.00903787
v 0.00604454 -0.01847185 0.00500966
v 0.00832607 -0.02359906 0.01667296
v 0.00821813 -0.02306045 0.02556183
v 0.00644549 -0.02229276 0.03280760
v 0.01034959 -0.01932530 0.03790620
v 0.00604438 -0.01441914 -0.03162515
v 0.01017945 -0.01026736 -0.02720215
v 0.00655894 -0.01569722 -0.01466881
v 0.00741866 -0.01478026 -0.00850148
v 0.00762743 -0.01551816 -0.00082645
v 0.00626129 -0.01527309 0.04194856
v 0.00805419 -0.01022475 0.04496176
v 0.00829698 -0.00746204 -0.02176070
v 0.00652954 -0.00592769 -0.01524175
v 0.00854477 -0.00178922 -0.01091541
v 0.00800663 -0.00304093 0.04594443
v 0.00829040 0.00452290 -0.01091621
v 0.00788937 0.00520974 0.04596339
v 0.00986851 0.00925887 -0.03073698
v 0.00587377 0.01364100 -0.03500299
v 0.00789531 0.00883203 -0.02309807
v 0.00795731 0.00842535 -0.01537228
v 0.00795715 0.01252765 0.04502639
v 0.01006011 0.02135754 -0.03522071
v 0.00574756 0.02083815 -0.02694043
v 0.00839660 0.01803381 -0.02160423
v 0.00735162 0.01707848 -0.01508118
v 0.00736132 0.01728757 -0.00682676
v 0.00607383 0.01809783 0.00032271
v 0.00852178 0.02202149 0.00526868
v 0.00565746 0.02176352 0.03723210
v 0.01008440 0.01759885 0.04046869
v 0.00720826 0.02379891 -0.03119162
v 0.00729168 0.02504305 0.01016429
v 0.00848358 0.02607321 0.01771343
v 0.00695174 0.02543417 0.02416989
v 0.00857413 0.02434054 0.03104881
v 0.00774137 0.03442256 0.01751371
v 0.00609032 0.03728315 0.01324261
v 0.00888773 0.03677438 0.02135695
v 0.00849732 0.04243695 0.00120882
v 0.00575963 0.04573509 -0.00288310
v 0.00755993 0.04024048 0.00730051
v 0.00808253 0.04455454 0.02134498
v 0.00789088 0.05049545 -0.01552406
v 0.00723936 0.05392309 -0.01892808
v 0.00709221 0.04833622 -0.00890907
v 0.00628756 0.05341682 0.00551892
v 0.01011319 0.05048773 0.01068942
v 0.00797912 0.04856196 0.01701098
v 0.00878401 0.05723336 -0.01521158
v 0.00827132 0.05804753 -0.00648151
v 0.00839140 0.05684318 0.00073453
v 0.01462105 -0.06180188 -0.01463594
v 0.01390208 -0.05877748 -0.01908923
v 0.01645262 -0.05874714 -0.01102954
v 0.01309154 -0.05115090 -0.02230261
v 0.01692946 -0.05547289 -0.02256674
v 0.01545341 -0.05009564 -0.02562361
v 0.01540111 -0.05547802 -0.00589953
v 0.01392163 -0.05372661 0.00024640
v 0.01659337 -0.04999688 0.00535752
v 0.01255963 -0.04253816 -0.02378562
v 0.01588487 -0.04419517 -0.02759546
v 0.01127654 -0.04349989 -0.01564910
v 0.01095155 -0.04206604 -0.00722486
v 0.01569796 -0.04721998 0.01050264
v 0.01428062 -0.04588302 0.01688636
v 0.01576981 -0.04074674 0.02070181
v 0.01313832 -0.03571014 -0.02957240
v 0.01660235 -0.03910742 -0.03110351
v 0.01549991 -0.03368105 -0.03395776
v 0.01186305 -0.03380409 -0.02239278
v 0.01195018 -0.03481577 -0.01516517
v 0.01231312 -0.03473390 -0.00668983
v 0.01178966 -0.03527852 0.00110261
v 0.01111797 -0.03395014 0.00906478
v 0.01641389 -0.03357464 0.02105112
v 0.01195247 -0.02792542 -0.03094988
v 0.01503691 -0.02672571 -0.03454753
v 0.01129216 -0.02626054 -0.02288442
v 0.01224359 -0.02638189 -0.01492603
v 0.01241633 -0.02630440 -0.00652653
v 0.01251928 -0.02751248 0.00049834
v 0.01170974 -0.02652898 0.00882096
v 0.01197853 -0.02785827 0.01694408
v 0.01502903 -0.02736140 0.02152784
v 0.01648797 -0.02056915 -0.03434495
v 0.01106296 -0.01899802 -0.01423492
v 0.01172091 -0.01893251 -0.00643057
v 0.01134684 -0.02061400 0.00215513
v 0.01525108 -0.02278099 0.02536021
v 0.01415735 -0.02163925 0.03293812
v 0.01591277 -0.01927524 0.03717570
v 0.01404055 -0.01496240 -0.03170632
v 0.01660405 -0.01144194 -0.02728016
v 0.01572224 -0.01538568 0.04044557
v 0.01533892 -0.00915810 0.04446057
v 0.01488199 -0.00809631 -0.02289272
v 0.01496169 -0.00668764 -0.01612384
v 0.01561323 -0.00231945 -0.01074019
v 0.01532604 -0.00140513 0.04498193
v 0.01539995 0.00424651 -0.01042840
v 0.01526628 0.00707594 0.04507257
v 0.01635343 0.00984018 -0.03002468
v 0.01380784 0.01327469 -0.03460916
v 0.01531346 0.00933782 -0.02331086
v 0.01523486 0.00845310 -0.01528824
v 0.01449851 0.01343415 0.04418466
v 0.01627801 0.01944134 -0.03500247
v 0.01101634 0.02314385 -0.02376802
v 0.01147814 0.02131653 -0.01504915
v 0.01164344 0.02151011 -0.00668396
v 0.01127662 0.02173170 0.00096503
v 0.01157943 0.02104625 0.03460163
v 0.01579886 0.02109426 0.03037113
v 0.01505667 0.01816048 0.03511462
v 0.01621228 0.01580623 0.03991122
v 0.01154771 0.02884572 -0.03006686
v 0.01530174 0.02821870 -0.03449181
v 0.01208362 0.03021087 -0.02201990
v 0.01233917 0.02889749 -0.01493608
v 0.01250385 0.02908760 -0.00659565
v 0.01276030 0.02919891 0.00168958
v 0.01171852 0.02762134 0.00814014
v 0.01137892 0.03026313 0.01606948
v 0.01535211 0.03095414 0.02062077
v 0.01472590 0.02542535 0.02466952
v 0.01319304 0.03699215 -0.03088716
v 0.01651781 0.03552565 -0.03380156
v 0.01185462 0.03762440 -0.02319013
v 0.01216352 0.03746533 -0.01463223
v 0.01238252 0.03633515 -0.00758786
v 0.01177114 0.03770073 0.00096081
v 0.01150122 0.03489391 0.01021872
v 0.01569515 0.03942666 0.02141743
v 0.01530162 0.04100156 -0.03076879
v 0.01607808 0.04618483 -0.02731782
v 0.01275587 0.04446399 -0.02489879
v 0.01118601 0.04586011 -0.01554057
v 0.01111295 0.04338381 -0.00586809
v 0.01464528 0.04570078 0.02066884
v 0.01238831 0.05155435 -0.02218557
v 0.01689570 0.05225594 -0.02544493
v 0.01409808 0.05374067 0.00531817
v 0.01647788 0.05041252 0.00933369
v 0.01543652 0.04830724 0.01570103
v 0.01434076 0.05622320 -0.02166478
v 0.01647613 0.05705865 -0.01627832
v 0.01558360 0.05723579 -0.00840207
v 0.01558538 0.05662804 -0.00048669
v 0.01890624 -0.05763331 -0.01614504
v 0.01904173 -0.05069101 -0.02203272
v 0.02042481 -0.05058630 -0.01404767
v 0.01969992 -0.05193069 -0.00733523
v 0.01910074 -0.05023695 0.00081985
v 0.01928927 -0.04172443 -0.02416289
v 0.02015292 -0.04350340 -0.01522510
v 0.02020880 -0.04322770 -0.00692439
v 0.02038068 -0.04294671 0.00130225
v 0.01985323 -0.04341570 0.00919081
v 0.01905605 -0.04320195 0.01617228
v 0.01897272 -0.03430913 -0.03042969
v 0.02012567 -0.03444513 -0.02229919
v 0.01999448 -0.03531528 -0.01514461
v 0.01989245 -0.03501697 -0.00689188
v 0.01996955 -0.03466943 0.00136738
v 0.02026121 -0.03465929 0.00971021
v 0.01965852 -0.03677983 0.01704772
v 0.01958747 -0.02534222 -0.03103630
v 0.02029725 -0.02745547 -0.02353492
v 0.01997407 -0.02718326 -0.01501176
v 0.01976084 -0.02680135 -0.00668889
v 0.01967270 -0.02662296 0.00154832
v 0.01982403 -0.02645175 0.00970008
v 0.01937806 -0.02733085 0.01787652
v 0.01928979 -0.01730385 -0.02977041
v 0.02060472 -0.01902421 -0.02336879
v 0.02016849 -0.01903689 -0.01499152
v 0.01972840 -0.01867324 -0.00663082
v 0.01957344 -0.01848066 0.00159415
v 0.01962454 -0.01954007 0.00852932
v 0.02067135 -0.01817143 0.01552563
v 0.02038169 -0.01992369 0.02361368
v 0.01976443 -0.01867386 0.03253410
v 0.01931577 -0.01158747 -0.02258431
v 0.01969330 -0.01046313 -0.01435609
v 0.01993156 -0.01068377 -0.00666393
v 0.01963453 -0.01154653 0.00032070
v 0.02073162 -0.01085438 0.00790356
v 0.02334999 -0.01202459 0.01365260
v 0.02422721 -0.01449049 0.01957159
v 0.02459729 -0.01513003 0.02729480
v 0.02317299 -0.01431765 0.03504416
v 0.02042152 -0.01149164 0.04072946
v 0.02450719 -0.00888934 0.03728691
v 0.01938672 -0.00199523 -0.00662391
v 0.02061331 -0.00338217 0.00114189
v 0.02334994 -0.00321581 0.00594047
v 0.02449867 -0.00743789 0.00988236
v 0.02038494 -0.00526444 0.04191637
v 0.02436896 -0.00110252 0.03792680
v 0.01934835 0.00690953 -0.00725340
v 0.02068273 0.00558462 0.00140635
v 0.02393113 0.00296967 0.00520443
v 0.02036217 0.00416079 0.04109365
v 0.02375179 0.00595009 0.03664855
v 0.01900742 0.01457413 -0.03085396
v 0.01946577 0.01324109 -0.02339797
v 0.01943255 0.01265364 -0.01426517
v 0.02002995 0.01386877 -0.00590452
v 0.01979515 0.01303992 0.00104849
v 0.02338948 0.00885028 0.00772818
v 0.02096409 0.01430046 0.00960377
v 0.02455250 0.01254857 0.01256873
v 0.02027550 0.01379006 0.03453773
v 0.02371762 0.01495194 0.02907340
v 0.02483046 0.01015995 0.03265830
v 0.01863462 0.01158582 0.04185025
v 0.01937373 0.02246139 -0.03091212
v 0.02033578 0.02049544 -0.02336528
v 0.02016028 0.02069376 -0.01507186
v 0.02000931 0.02088992 -0.00699090
v 0.01983845 0.02109142 0.00099736
v 0.01978714 0.02145770 0.00925822
v 0.02340692 0.01670370 0.01682322
v 0.02086719 0.02084817 0.01746898
v 0.02409415 0.01742967 0.02317395
v 0.02022475 0.02091253 0.02551132
v 0.01923451 0.03072361 -0.03097041
v 0.02021656 0.02867223 -0.02337381
v 0.01998919 0.02892180 -0.01492857
v 0.01987718 0.02920119 -0.00681891
v 0.01997374 0.02940502 0.00122418
v 0.02010193 0.02955759 0.00936867
v 0.01938998 0.02752679 0.01798773
v 0.01868941 0.03862610 -0.03002738
v 0.02025697 0.03692337 -0.02349238
v 0.02008103 0.03714455 -0.01490613
v 0.01993325 0.03749178 -0.00668118
v 0.02006706 0.03766784 0.00148157
v 0.02036295 0.03774544 0.00973396
v 0.01961944 0.03572526 0.01697598
v 0.01960274 0.04635319 -0.02357347
v 0.02038888 0.04549143 -0.01488403
v 0.02026268 0.04574942 -0.00648764
v 0.02023607 0.04467718 0.00045293
v 0.01962990 0.04586046 0.00906349
v 0.01916023 0.04341852 0.01725522
v 0.01881629 0.05404853 -0.02179895
v 0.01961316 0.05301199 -0.01488921
v 0.01958877 0.05304204 -0.00628667
v 0.01928104 0.05154573 0.00221544
v 0.02702467 -0.00865648 0.01645106
v 0.02756061 -0.01022756 0.02517371
v 0.02688437 -0.01121692 0.03168207
v 0.02702411 -0.00159282 0.01018909
v 0.02849713 -0.00173845 0.01793567
v 0.02846569 -0.00297613 0.02527149
v 0.02755537 -0.00488996 0.03263140
v 0.02682554 0.00690691 0.01063325
v 0.02846196 0.00544711 0.01702893
v 0.02849786 0.00415602 0.02424922
v 0.02713255 0.00411041 0.03218705
v 0.02684013 0.01280127 0.01775414
v 0.02712858 0.01123762 0.02595580
f 3 2 1
f 5 4 1
f 5 1 2
f 6 4 5
f 3 1 7
f 3 7 8
f 9 1 4
f 7 1 9
f 4 6 10
f 4 10 9
f 8 7 11
f 8 11 12
f 13 7 9
f 11 7 13
f 9 10 14
f 9 14 13
f 15 12 11
f 15 11 13
f 15 13 16
f 16 13 14
f 19 18 17
f 20 17 18
f 23 22 21
f 21 22 19
f 17 21 19
f 24 21 17
f 17 20 25
f 26 17 25
f 24 17 26
f 28 27 26
f 28 26 25
f 29 27 28
f 23 21 30
f 23 30 31
f 32 21 24
f 30 21 32
f 33 24 26
f 32 24 33
f 34 26 27
f 33 26 34
f 27 29 35
f 36 27 35
f 34 27 36
f 38 37 36
f 38 36 35
f 39 37 38
f 42 41 40
f 40 41 31
f 30 40 31
f 43 40 30
f 44 30 32
f 43 30 44
f 45 32 33
f 44 32 45
f 46 33 34
f 45 33 46
f 47 34 36
f 46 34 47
f 48 36 37
f 47 36 48
f 37 39 49
f 37 49 48
f 42 40 50
f 42 50 51
f 52 40 43
f 50 40 52
f 53 43 44
f 52 43 53
f 54 44 45
f 53 44 54
f 55 45 46
f 54 45 55
f 56 46 47
f 55 46 56
f 57 47 48
f 56 47 57
f 48 49 58
f 48 58 57
f 51 50 59
f 51 59 60
f 61 50 52
f 59 50 61
f 62 52 53
f 61 52 62
f 63 53 54
f 62 53 63
f 64 54 55
f 63 54 64
f 65 55 56
f 64 55 65
f 57 67 66
f 65 57 66
f 56 57 65
f 67 57 58
f 68 60 59
f 70 69 68
f 59 70 68
f 61 70 59
f 71 61 62
f 70 61 71
f 72 62 63
f 71 62 72
f 73 63 64
f 72 63 73
f 74 64 65
f 73 64 74
f 75 2 3
f 65 75 3
f 74 65 3
f 75 65 66
f 2 76 5
f 75 76 2
f 78 77 6
f 5 78 6
f 76 78 5
f 79 77 78
f 80 69 70
f 80 70 71
f 80 71 81
f 83 82 81
f 71 83 81
f 72 83 71
f 84 72 73
f 83 72 84
f 85 73 74
f 84 73 85
f 8 85 3
f 3 85 74
f 86 10 77
f 77 10 6
f 77 79 87
f 77 87 86
f 82 83 88
f 82 88 89
f 90 83 84
f 88 83 90
f 91 84 85
f 90 84 91
f 12 91 8
f 8 91 85
f 92 14 86
f 86 14 10
f 86 87 93
f 86 93 92
f 96 95 94
f 98 97 94
f 98 94 95
f 100 99 97
f 100 97 98
f 99 100 89
f 88 99 89
f 101 99 88
f 102 88 90
f 101 88 102
f 103 90 91
f 102 90 103
f 15 104 12
f 104 91 12
f 104 103 91
f 16 105 15
f 15 105 104
f 14 92 16
f 92 105 16
f 92 106 105
f 92 93 107
f 92 107 106
f 96 94 108
f 96 108 109
f 110 94 97
f 108 94 110
f 111 97 99
f 110 97 111
f 112 99 101
f 111 99 112
f 113 101 102
f 112 101 113
f 114 102 103
f 113 102 114
f 104 116 115
f 114 104 115
f 103 104 114
f 116 104 105
f 116 105 117
f 117 105 106
f 117 106 118
f 118 106 107
f 109 108 119
f 109 119 120
f 121 108 110
f 119 108 121
f 122 110 111
f 121 110 122
f 123 111 112
f 122 111 123
f 124 112 113
f 123 112 124
f 125 113 114
f 124 113 125
f 114 115 126
f 127 114 126
f 125 114 127
f 128 127 126
f 120 119 129
f 120 129 130
f 131 119 121
f 129 119 131
f 132 121 122
f 131 121 132
f 133 122 123
f 132 122 133
f 134 123 124
f 133 123 134
f 135 124 125
f 134 124 135
f 136 125 127
f 135 125 136
f 127 128 137
f 127 137 136
f 138 130 129
f 140 139 138
f 129 140 138
f 131 140 129
f 141 131 132
f 140 131 141
f 142 132 133
f 141 132 142
f 143 133 134
f 142 133 143
f 144 134 135
f 143 134 144
f 145 135 136
f 144 135 145
f 136 137 146
f 136 146 145
f 139 140 147
f 139 147 148
f 149 140 141
f 147 140 149
f 150 141 142
f 149 141 150
f 151 142 143
f 150 142 151
f 144 153 152
f 151 144 152
f 143 144 151
f 153 144 145
f 153 145 154
f 154 145 146
f 155 148 147
f 155 147 149
f 155 149 156
f 156 149 150
f 156 150 157
f 157 150 151
f 157 151 158
f 158 151 152
f 160 159 18
f 160 18 19
f 20 18 159
f 20 159 161
f 23 162 22
f 162 163 22
f 163 19 22
f 163 160 19
f 161 164 20
f 20 164 25
f 25 165 28
f 164 165 25
f 29 28 165
f 29 165 166
f 31 167 162
f 31 162 23
f 163 162 168
f 162 169 168
f 162 167 169
f 171 170 169
f 169 170 168
f 171 172 170
f 166 173 29
f 29 173 35
f 35 174 38
f 173 174 35
f 39 38 174
f 39 174 175
f 42 176 41
f 167 31 41
f 176 167 41
f 177 167 176
f 167 178 169
f 167 177 178
f 169 179 171
f 169 178 179
f 172 171 180
f 171 181 180
f 171 179 181
f 183 182 181
f 181 182 180
f 183 184 182
f 175 49 39
f 185 49 175
f 51 186 176
f 51 176 42
f 176 187 177
f 176 186 187
f 177 188 178
f 177 187 188
f 178 189 179
f 178 188 189
f 179 190 181
f 179 189 190
f 181 191 183
f 181 190 191
f 184 183 192
f 183 193 192
f 183 191 193
f 185 192 193
f 58 185 193
f 49 185 58
f 195 194 186
f 51 195 186
f 60 195 51
f 186 194 187
f 187 194 196
f 198 197 196
f 197 187 196
f 197 188 187
f 188 199 189
f 188 197 199
f 189 200 190
f 189 199 200
f 202 191 201
f 191 200 201
f 191 190 200
f 204 203 202
f 66 202 203
f 202 66 191
f 67 191 66
f 191 67 193
f 206 205 204
f 206 193 205
f 193 206 58
f 207 58 206
f 58 207 67
f 205 67 207
f 207 203 205
f 205 203 204
f 193 67 205
f 209 208 207
f 209 207 206
f 210 208 209
f 211 195 60
f 211 60 68
f 68 69 211
f 211 69 212
f 198 213 197
f 197 213 199
f 199 213 214
f 216 215 214
f 215 199 214
f 215 200 199
f 201 200 217
f 217 200 215
f 203 75 66
f 75 203 76
f 76 203 207
f 76 207 78
f 78 207 208
f 219 218 79
f 219 79 78
f 210 219 78
f 208 210 78
f 220 218 219
f 221 212 69
f 221 69 80
f 222 80 81
f 222 221 80
f 81 82 222
f 222 82 223
f 216 224 215
f 215 224 217
f 225 87 218
f 218 87 79
f 218 220 226
f 218 226 225
f 89 223 82
f 89 227 223
f 228 93 225
f 225 93 87
f 225 226 229
f 225 229 228
f 231 230 95
f 231 95 96
f 95 232 98
f 230 232 95
f 98 233 100
f 232 233 98
f 89 100 227
f 227 100 233
f 236 235 234
f 234 237 236
f 238 107 228
f 228 107 93
f 228 229 239
f 228 239 238
f 109 231 96
f 109 240 231
f 243 242 241
f 245 244 241
f 241 244 243
f 247 246 245
f 245 246 244
f 246 247 235
f 247 234 235
f 247 248 234
f 237 234 249
f 234 250 249
f 234 248 250
f 250 115 249
f 115 116 249
f 252 251 249
f 252 249 116
f 117 253 116
f 116 253 252
f 118 254 117
f 117 254 253
f 255 254 118
f 255 118 107
f 256 255 107
f 238 256 107
f 256 238 239
f 120 258 257
f 240 120 257
f 109 120 240
f 257 258 242
f 258 241 242
f 258 259 241
f 241 260 245
f 241 259 260
f 245 261 247
f 245 260 261
f 247 262 248
f 247 261 262
f 248 263 250
f 248 262 263
f 264 251 252
f 250 126 115
f 126 250 265
f 263 265 250
f 264 267 266
f 267 265 266
f 128 266 265
f 266 128 253
f 126 253 128
f 253 126 267
f 267 252 253
f 264 252 267
f 267 126 265
f 266 253 254
f 266 254 268
f 268 254 255
f 130 269 258
f 130 258 120
f 258 270 259
f 258 269 270
f 259 271 260
f 259 270 271
f 260 272 261
f 260 271 272
f 261 273 262
f 261 272 273
f 262 274 263
f 262 273 274
f 276 265 275
f 265 274 275
f 265 263 274
f 128 265 276
f 277 128 276
f 137 128 277
f 138 269 130
f 269 138 139
f 278 269 139
f 270 269 278
f 270 279 271
f 270 278 279
f 271 280 272
f 271 279 280
f 282 273 281
f 273 280 281
f 273 272 280
f 273 282 274
f 274 282 283
f 274 283 275
f 277 146 137
f 284 146 277
f 148 285 278
f 148 278 139
f 287 279 286
f 279 285 286
f 279 278 285
f 279 287 280
f 280 287 288
f 280 288 281
f 290 289 153
f 153 289 152
f 291 153 154
f 291 290 153
f 154 146 284
f 154 284 291
f 155 285 148
f 292 286 285
f 155 292 285
f 156 292 155
f 293 156 157
f 293 292 156
f 294 157 158
f 294 293 157
f 158 152 289
f 158 289 294
f 296 295 159
f 296 159 160
f 161 159 295
f 161 295 297
f 163 296 160
f 163 298 296
f 297 299 161
f 161 299 164
f 164 300 165
f 299 300 164
f 166 165 300
f 166 300 301
f 302 298 163
f 302 163 168
f 303 168 170
f 303 302 168
f 170 172 303
f 303 172 304
f 301 305 166
f 166 305 173
f 173 306 174
f 305 306 173
f 175 174 306
f 175 306 307
f 308 304 172
f 308 172 180
f 309 180 182
f 309 308 180
f 182 184 309
f 309 184 310
f 307 185 175
f 311 185 307
f 312 310 184
f 312 184 192
f 192 185 311
f 192 311 312
f 314 313 194
f 314 194 195
f 194 315 196
f 313 315 194
f 198 196 315
f 198 315 316
f 318 317 202
f 318 202 201
f 202 319 204
f 317 319 202
f 204 320 206
f 319 320 204
f 206 321 209
f 320 321 206
f 210 209 321
f 210 321 322
f 323 314 195
f 323 195 211
f 211 212 323
f 323 212 324
f 316 325 198
f 198 325 213
f 213 326 214
f 325 326 213
f 328 327 216
f 214 328 216
f 326 328 214
f 328 318 327
f 318 217 327
f 318 201 217
f 322 329 210
f 210 329 219
f 220 219 329
f 220 329 330
f 331 324 212
f 331 212 221
f 332 221 222
f 332 331 221
f 222 223 332
f 332 223 333
f 327 224 216
f 224 327 217
f 330 226 220
f 334 226 330
f 227 333 223
f 227 335 333
f 334 229 226
f 336 229 334
f 338 337 230
f 338 230 231
f 230 339 232
f 337 339 230
f 232 340 233
f 339 340 232
f 227 233 335
f 335 233 340
f 341 235 236
f 237 341 236
f 336 239 229
f 342 239 336
f 240 338 231
f 240 343 338
f 345 344 243
f 243 344 242
f 346 243 244
f 346 345 243
f 347 244 246
f 347 346 244
f 246 235 341
f 348 246 341
f 347 246 348
f 350 348 349
f 349 348 249
f 348 341 249
f 341 237 249
f 251 349 249
f 352 351 256
f 256 351 255
f 256 239 342
f 256 342 352
f 353 343 240
f 353 240 257
f 257 242 344
f 257 344 353
f 354 350 349
f 354 349 251
f 264 354 251
f 355 354 264
f 356 264 266
f 356 355 264
f 357 266 268
f 357 356 266
f 268 255 351
f 268 351 357
f 359 358 276
f 359 276 275
f 277 276 358
f 277 358 360
f 362 361 282
f 362 282 281
f 282 363 283
f 361 363 282
f 275 283 359
f 359 283 363
f 360 284 277
f 364 284 360
f 366 365 287
f 366 287 286
f 287 367 288
f 365 367 287
f 281 288 362
f 362 288 367
f 369 368 290
f 290 368 289
f 370 290 291
f 370 369 290
f 291 284 364
f 291 364 370
f 371 366 286
f 371 286 292
f 372 292 293
f 372 371 292
f 373 293 294
f 373 372 293
f 294 289 368
f 294 368 373
f 375 374 295
f 375 295 296
f 297 295 374
f 297 374 376
f 298 375 296
f 298 377 375
f 376 378 297
f 297 378 299
f 299 379 300
f 378 379 299
f 301 300 379
f 301 379 380
f 381 377 298
f 381 298 302
f 382 302 303
f 382 381 302
f 303 304 382
f 382 304 383
f 380 384 301
f 301 384 305
f 305 385 306
f 384 385 305
f 307 306 385
f 307 385 386
f 387 383 304
f 387 304 308
f 388 308 309
f 388 387 308
f 309 310 388
f 388 310 389
f 386 311 307
f 390 311 386
f 391 389 310
f 391 310 312
f 312 311 390
f 312 390 391
f 393 392 313
f 393 313 314
f 313 394 315
f 392 394 313
f 316 315 394
f 316 394 395
f 397 396 317
f 397 317 318
f 317 398 319
f 396 398 317
f 319 399 320
f 398 399 319
f 320 400 321
f 399 400 320
f 322 321 400
f 322 400 401
f 402 393 314
f 402 314 323
f 323 324 402
f 402 324 403
f 395 404 316
f 316 404 325
f 325 405 326
f 404 405 325
f 326 406 328
f 405 406 326
f 318 328 397
f 397 328 406
f 401 407 322
f 322 407 329
f 330 329 407
f 330 407 408
f 409 403 324
f 409 324 331
f 410 331 332
f 410 409 331
f 332 333 410
f 410 333 411
f 408 334 330
f 412 334 408
f 335 411 333
f 335 413 411
f 412 336 334
f 414 336 412
f 416 415 337
f 416 337 338
f 337 417 339
f 415 417 337
f 339 418 340
f 417 418 339
f 335 340 413
f 413 340 418
f 414 342 336
f 419 342 414
f 343 416 338
f 343 420 416
f 422 421 345
f 345 421 344
f 423 345 346
f 423 422 345
f 424 346 347
f 424 423 346
f 425 347 348
f 425 424 347
f 348 350 425
f 425 350 426
f 428 427 352
f 352 427 351
f 352 342 419
f 352 419 428
f 429 420 343
f 429 343 353
f 353 344 421
f 353 421 429
f 430 426 350
f 430 350 354
f 431 354 355
f 431 430 354
f 432 355 356
f 432 431 355
f 433 356 357
f 433 432 356
f 357 351 427
f 357 427 433
f 435 434 358
f 435 358 359
f 360 358 434
f 360 434 436
f 438 437 361
f 438 361 362
f 361 439 363
f 437 439 361
f 359 363 435
f 435 363 439
f 436 364 360
f 440 364 436
f 442 441 365
f 442 365 366
f 365 443 367
f 441 443 365
f 362 367 438
f 438 367 443
f 445 444 369
f 369 444 368
f 446 369 370
f 446 445 369
f 370 364 440
f 370 440 446
f 447 442 366
f 447 366 371
f 448 371 372
f 448 447 371
f 449 372 373
f 449 448 372
f 373 368 444
f 373 444 449
f 451 450 374
f 451 374 375
f 376 374 450
f 376 450 452
f 455 454 453
f 454 451 453
f 451 377 453
f 451 375 377
f 452 456 376
f 376 456 378
f 378 457 379
f 456 457 378
f 380 379 457
f 380 457 458
f 455 453 459
f 455 459 460
f 381 461 377
f 461 453 377
f 461 459 453
f 382 462 381
f 381 462 461
f 383 462 382
f 458 463 380
f 380 463 384
f 384 464 385
f 463 464 384
f 386 385 464
f 386 464 465
f 468 467 466
f 466 467 460
f 459 466 460
f 469 466 459
f 470 459 461
f 469 459 470
f 471 461 462
f 470 461 471
f 387 472 383
f 472 462 383
f 472 471 462
f 388 473 387
f 387 473 472
f 389 473 388
f 465 390 386
f 474 390 465
f 468 466 475
f 468 475 476
f 477 466 469
f 475 466 477
f 478 469 470
f 477 469 478
f 479 470 471
f 478 470 479
f 480 471 472
f 479 471 480
f 481 472 473
f 480 472 481
f 391 482 389
f 482 473 389
f 482 481 473
f 483 482 391
f 390 483 391
f 474 483 390
f 476 475 392
f 393 476 392
f 484 476 393
f 392 475 394
f 394 475 477
f 394 477 395
f 477 485 395
f 477 478 485
f 486 478 479
f 485 478 486
f 487 479 480
f 486 479 487
f 397 487 396
f 487 481 396
f 487 480 481
f 396 481 398
f 398 481 482
f 483 488 482
f 488 398 482
f 488 399 398
f 399 489 400
f 488 489 399
f 401 400 489
f 401 489 490
f 491 484 393
f 491 393 402
f 402 403 491
f 491 403 492
f 485 404 395
f 404 485 405
f 405 485 486
f 405 486 406
f 406 486 487
f 406 487 397
f 490 493 401
f 401 493 407
f 408 407 493
f 408 493 494
f 495 492 403
f 495 403 409
f 496 409 410
f 496 495 409
f 410 411 496
f 496 411 497
f 494 412 408
f 498 412 494
f 413 497 411
f 413 499 497
f 498 414 412
f 500 414 498
f 502 501 415
f 502 415 416
f 415 503 417
f 501 503 415
f 417 504 418
f 503 504 417
f 413 418 499
f 499 418 504
f 500 419 414
f 505 419 500
f 420 502 416
f 420 506 502
f 507 421 422
f 423 508 422
f 422 508 507
f 424 509 423
f 423 509 508
f 425 510 424
f 424 510 509
f 426 510 425
f 513 512 511
f 427 428 511
f 428 513 511
f 428 514 513
f 428 419 505
f 428 505 514
f 420 429 515
f 516 420 515
f 506 420 516
f 421 507 429
f 507 515 429
f 507 517 515
f 518 507 508
f 517 507 518
f 519 508 509
f 518 508 519
f 520 509 510
f 519 509 520
f 430 521 426
f 521 510 426
f 521 520 510
f 431 522 430
f 430 522 521
f 522 431 523
f 431 524 523
f 431 432 524
f 433 511 512
f 524 433 512
f 432 433 524
f 511 433 427
f 516 515 525
f 516 525 526
f 527 515 517
f 525 515 527
f 528 517 518
f 527 517 528
f 529 518 519
f 528 518 529
f 530 519 520
f 529 519 530
f 531 520 521
f 530 520 531
f 435 531 434
f 531 522 434
f 531 521 522
f 436 434 522
f 523 436 522
f 532 436 523
f 533 526 525
f 535 534 533
f 525 535 533
f 527 535 525
f 536 527 528
f 535 527 536
f 537 528 529
f 536 528 537
f 438 537 437
f 537 530 437
f 537 529 530
f 437 530 439
f 439 530 531
f 439 531 435
f 532 440 436
f 538 440 532
f 534 535 539
f 534 539 540
f 442 539 441
f 539 536 441
f 539 535 536
f 441 536 443
f 443 536 537
f 443 537 438
f 542 541 445
f 445 541 444
f 543 445 446
f 543 542 445
f 446 440 538
f 446 538 543
f 544 540 539
f 544 539 442
f 447 544 442
f 545 544 447
f 546 447 448
f 546 545 447
f 547 448 449
f 547 546 448
f 449 444 541
f 449 541 547
f 451 548 450
f 548 452 450
f 455 549 454
f 548 451 454
f 549 548 454
f 550 548 549
f 551 456 452
f 548 551 452
f 550 551 548
f 552 457 456
f 552 456 551
f 552 458 457
f 460 553 549
f 460 549 455
f 549 554 550
f 549 553 554
f 550 555 551
f 550 554 555
f 551 556 552
f 551 555 556
f 557 463 458
f 552 557 458
f 556 557 552
f 558 464 463
f 558 463 557
f 558 465 464
f 468 559 467
f 553 460 467
f 559 553 467
f 560 553 559
f 553 561 554
f 553 560 561
f 554 562 555
f 554 561 562
f 555 563 556
f 555 562 563
f 556 564 557
f 556 563 564
f 557 565 558
f 557 564 565
f 565 474 465
f 565 465 558
f 476 566 559
f 476 559 468
f 559 567 560
f 559 566 567
f 560 568 561
f 560 567 568
f 561 569 562
f 561 568 569
f 562 570 563
f 562 569 570
f 563 571 564
f 563 570 571
f 564 572 565
f 564 571 572
f 572 483 474
f 572 474 565
f 484 573 566
f 484 566 476
f 566 574 567
f 566 573 574
f 567 575 568
f 567 574 575
f 568 576 569
f 568 575 576
f 569 577 570
f 569 576 577
f 570 578 571
f 570 577 578
f 571 579 572
f 571 578 579
f 580 488 483
f 572 580 483
f 579 580 572
f 581 489 488
f 581 488 580
f 581 490 489
f 491 573 484
f 573 491 492
f 582 573 492
f 574 573 582
f 574 583 575
f 574 582 583
f 575 584 576
f 575 583 584
f 576 585 577
f 576 584 585
f 577 586 578
f 577 585 586
f 588 579 587
f 579 586 587
f 579 578 586
f 579 588 580
f 580 588 589
f 580 589 581
f 581 589 590
f 590 592 591
f 590 591 493
f 581 590 493
f 490 581 493
f 591 494 493
f 495 582 492
f 582 495 496
f 582 496 583
f 583 496 497
f 593 583 497
f 584 583 593
f 584 594 585
f 584 593 594
f 596 586 595
f 586 594 595
f 586 585 594
f 586 596 587
f 591 592 597
f 597 592 598
f 597 498 494
f 597 494 591
f 499 599 593
f 499 593 497
f 593 600 594
f 593 599 600
f 595 594 601
f 601 594 600
f 597 598 602
f 602 598 603
f 602 500 498
f 602 498 597
f 502 604 501
f 605 503 501
f 605 501 604
f 606 504 503
f 606 503 605
f 599 499 504
f 606 599 504
f 607 599 606
f 599 608 600
f 599 607 608
f 601 600 609
f 600 610 609
f 600 608 610
f 610 611 609
f 614 613 612
f 614 612 603
f 612 602 603
f 612 615 602
f 615 505 500
f 615 500 602
f 506 616 604
f 506 604 502
f 604 617 605
f 604 616 617
f 605 618 606
f 605 617 618
f 606 619 607
f 606 618 619
f 607 620 608
f 607 619 620
f 608 621 610
f 608 620 621
f 611 610 622
f 610 623 622
f 610 621 623
f 625 624 623
f 623 624 622
f 624 625 613
f 613 625 612
f 625 512 612
f 512 513 612
f 612 513 514
f 612 514 615
f 615 514 505
f 516 626 616
f 516 616 506
f 616 627 617
f 616 626 627
f 617 628 618
f 617 627 628
f 618 629 619
f 618 628 629
f 619 630 620
f 619 629 630
f 620 631 621
f 620 630 631
f 621 632 623
f 621 631 632
f 632 523 524
f 625 632 524
f 623 632 625
f 625 524 512
f 526 633 626
f 526 626 516
f 626 634 627
f 626 633 634
f 627 635 628
f 627 634 635
f 628 636 629
f 628 635 636
f 629 637 630
f 629 636 637
f 630 638 631
f 630 637 638
f 631 639 632
f 631 638 639
f 639 532 523
f 639 523 632
f 533 633 526
f 633 533 534
f 640 633 534
f 634 633 640
f 634 641 635
f 634 640 641
f 635 642 636
f 635 641 642
f 636 643 637
f 636 642 643
f 637 644 638
f 637 643 644
f 638 645 639
f 638 644 645
f 645 538 532
f 645 532 639
f 540 646 640
f 540 640 534
f 640 647 641
f 640 646 647
f 641 648 642
f 641 647 648
f 642 649 643
f 642 648 649
f 649 541 542
f 644 649 542
f 643 649 644
f 644 542 543
f 644 543 645
f 645 543 538
f 544 646 540
f 646 544 545
f 646 545 647
f 647 545 546
f 647 546 648
f 648 546 547
f 648 547 649
f 649 547 541
f 587 650 588
f 651 589 588
f 651 588 650
f 652 590 589
f 652 589 651
f 652 592 590
f 595 653 596
f 650 587 596
f 653 650 596
f 654 650 653
f 650 655 651
f 650 654 655
f 651 656 652
f 651 655 656
f 656 598 592
f 656 592 652
f 601 657 653
f 601 653 595
f 653 658 654
f 653 657 658
f 654 659 655
f 654 658 659
f 655 660 656
f 655 659 660
f 660 603 598
f 660 598 656
f 609 657 601
f 657 609 611
f 661 657 611
f 658 657 661
f 658 662 659
f 658 661 662
f 662 613 614
f 660 662 614
f 659 662 660
f 660 614 603
f 622 661 611
f 661 622 624
f 661 624 662
f 662 624 613

