# https://github.com/mikedh/trimesh
v -0.05773934 -0.01152033 -0.03301701
v -0.05373824 -0.01491761 -0.03416815
v -0.05600015 -0.01192131 -0.03753046
v -0.05790915 -0.01211074 -0.02634565
v -0.05490531 -0.01512861 -0.02766660
v -0.05785200 -0.01204123 -0.02025410
v -0.05484048 -0.01511143 -0.02154794
v -0.05784418 -0.01202001 -0.01416195
v -0.05479254 -0.01507255 -0.01547730
v -0.05784592 -0.01202220 -0.00805072
v -0.05479401 -0.01507268 -0.00936906
v -0.05784610 -0.01202252 -0.00193939
v -0.05479485 -0.01507369 -0.00325719
v -0.05784570 -0.01202138 0.00417076
v -0.05479474 -0.01507355 0.00285380
v -0.05784106 -0.01202103 0.01027678
v -0.05479459 -0.01507076 0.00896268
v -0.05785756 -0.01207285 0.01641841
v -0.05479559 -0.01508562 0.01507930
v -0.05797914 -0.01206652 0.02265939
v -0.05480647 -0.01516879 0.02125553
v -0.05765139 -0.01118785 0.02861893
v -0.05482003 -0.01475806 0.02714777
v -0.05464002 -0.01307315 0.03114311
v -0.05762163 -0.00676544 -0.03830944
v -0.05453640 -0.01007357 -0.04064940
v -0.05461632 -0.00602760 -0.04221714
v -0.05845337 -0.00561766 -0.03303669
v -0.05841029 -0.00653576 -0.02773502
v -0.05837376 -0.00649877 -0.02158476
v -0.05836222 -0.00643858 -0.01547960
v -0.05836362 -0.00643848 -0.00937030
v -0.05836402 -0.00643976 -0.00325884
v -0.05836395 -0.00643957 0.00285203
v -0.05835977 -0.00643794 0.00895845
v -0.05836119 -0.00644874 0.01507204
v -0.05848630 -0.00649540 0.02130005
v -0.05866136 -0.00632694 0.02757771
v -0.05450562 -0.01007253 0.03423352
v -0.05754526 -0.00588745 0.03314752
v -0.05462275 -0.00620569 0.03711726
v -0.05796444 -0.00002554 -0.03929727
v -0.05483223 -0.00000234 -0.04242947
v -0.05850769 -0.00004104 -0.03369008
v -0.05829905 -0.00009399 -0.02739647
v -0.05822398 -0.00008273 -0.02116824
v -0.05822099 -0.00001580 -0.01502253
v -0.05822271 -0.00001151 -0.00891227
v -0.05822313 -0.00001392 -0.00280146
v -0.05822315 -0.00001394 0.00330953
v -0.05822093 -0.00001388 0.00941842
v -0.05821974 -0.00001680 0.01552954
v -0.05829665 -0.00001295 0.02171267
v -0.05844127 0.00009809 0.02791951
v -0.05781379 0.00008725 0.03333076
v -0.05545938 -0.00136579 0.03721069
v -0.05775211 0.00599973 -0.03908135
v -0.05384441 0.00673757 -0.04208667
v -0.05872248 0.00639295 -0.03352739
v -0.05850475 0.00642536 -0.02714002
v -0.05836076 0.00638738 -0.02087906
v -0.05835856 0.00640985 -0.01474144
v -0.05836368 0.00641434 -0.00863144
v -0.05836400 0.00641191 -0.00252151
v -0.05836400 0.00641178 0.00358946
v -0.05836308 0.00641188 0.00969965
v -0.05836092 0.00640903 0.01580959
v -0.05840591 0.00641214 0.02195893
v -0.05848732 0.00652497 0.02811946
v -0.05778921 0.00654938 0.03353631
v -0.05544665 0.00501890 0.03734537
v -0.05618437 0.01004570 -0.03900143
v -0.05481648 0.01319582 -0.03726391
v -0.05769880 0.01124385 -0.03462732
v -0.05798391 0.01201564 -0.02865560
v -0.05788410 0.01202868 -0.02243390
v -0.05784009 0.01199622 -0.01634235
v -0.05784490 0.01199541 -0.01023972
v -0.05784612 0.01199463 -0.00412936
v -0.05784603 0.01199450 0.00198165
v -0.05784585 0.01199472 0.00809253
v -0.05784338 0.01199357 0.01420174
v -0.05785799 0.01198845 0.02032102
v -0.05794032 0.01204501 0.02648347
v -0.05757000 0.01214278 0.03234856
v -0.05552485 0.01108603 0.03695902
v -0.05432670 0.01488825 -0.03271857
v -0.05488470 0.01508623 -0.02593032
v -0.05481033 0.01505434 -0.01979557
v -0.05479218 0.01504493 -0.01370661
v -0.05479466 0.01504562 -0.00759694
v -0.05479484 0.01504572 -0.00148564
v -0.05479485 0.01504587 0.00462545
v -0.05479390 0.01504575 0.01073573
v -0.05479263 0.01503919 0.01684168
v -0.05483835 0.01505080 0.02297831
v -0.05487882 0.01520052 0.02922445
v -0.05413341 0.01496323 0.03522450
v -0.05279888 -0.01322369 -0.03928152
v -0.04825353 -0.01491612 -0.03879174
v -0.05016228 -0.01127172 -0.04216383
v -0.04850560 -0.01569030 -0.03286565
v -0.04938696 -0.01564491 -0.02747351
v -0.04930302 -0.01562235 -0.02129759
v -0.04920742 -0.01559685 -0.01519590
v -0.04920447 -0.01559534 -0.00908912
v -0.04920689 -0.01559675 -0.00297705
v -0.04920669 -0.01559693 0.00313413
v -0.04920705 -0.01559584 0.00924429
v -0.04921385 -0.01559055 0.01534963
v -0.04920025 -0.01564313 0.02149738
v -0.04908702 -0.01575376 0.02774378
v -0.05217969 -0.01262138 0.03398136
v -0.04929469 -0.01482849 0.03338442
v -0.04895381 -0.01258006 0.03727190
v -0.04906235 -0.00642082 -0.04318752
v -0.05197027 -0.00428950 0.04034291
v -0.05055498 -0.00901847 0.03929902
v -0.04759131 -0.00739873 0.04250729
v -0.04922504 0.00001316 -0.04297273
v -0.05235613 0.00173118 0.04039115
v -0.04849446 -0.00134193 0.04273063
v -0.04857165 0.00558979 -0.04291841
v -0.05236234 0.00814284 0.04042255
v -0.04849528 0.00507491 0.04271890
v -0.05306542 0.01189343 -0.04046519
v -0.04855197 0.01149246 -0.04220438
v -0.05242187 0.01301409 0.03956290
v -0.04849588 0.01108736 0.04241985
v -0.04970311 0.01488974 -0.03820327
v -0.04840061 0.01566243 -0.03297063
v -0.04929692 0.01560503 -0.02759553
v -0.04926409 0.01557938 -0.02141507
v -0.04920565 0.01556796 -0.01531083
v -0.04920573 0.01556851 -0.00920321
v -0.04920692 0.01556888 -0.00309176
v -0.04920690 0.01556898 0.00301934
v -0.04920688 0.01556909 0.00913032
v -0.04920490 0.01556399 0.01523572
v -0.04920748 0.01555832 0.02134168
v -0.04926841 0.01568093 0.02757278
v -0.04929140 0.01592547 0.03400325
v -0.04890485 0.01496222 0.03964589
v -0.04146529 -0.01511410 -0.03934974
v -0.04419056 -0.01204352 -0.04244895
v -0.04313050 -0.01563291 -0.03376196
v -0.04311444 -0.01544376 -0.02740967
v -0.04295621 -0.01537312 -0.02117139
v -0.04286825 -0.01536724 -0.01502250
v -0.04286416 -0.01536788 -0.00891262
v -0.04286793 -0.01536899 -0.00280155
v -0.04286784 -0.01536917 0.00330962
v -0.04286791 -0.01536919 0.00942059
v -0.04287676 -0.01536251 0.01552526
v -0.04287414 -0.01536177 0.02163338
v -0.04269202 -0.01552773 0.02789853
v -0.04251354 -0.01574621 0.03424026
v -0.04615183 -0.01177638 0.04101141
v -0.04356363 -0.01468753 0.03911208
v -0.04219022 -0.01192849 0.04264331
v -0.04267499 -0.00645323 -0.04296979
v -0.04286776 -0.00628639 0.04356151
v -0.04293143 0.00006611 -0.04276409
v -0.04307379 0.00018455 0.04339071
v -0.04326998 0.00650788 -0.04287533
v -0.04299597 0.00656794 0.04342450
v -0.04188061 0.01208287 -0.04237419
v -0.04297140 0.01213996 0.04282348
v -0.04320156 0.01510074 -0.03937035
v -0.04300847 0.01561703 -0.03385200
v -0.04294463 0.01541588 -0.02757948
v -0.04293268 0.01534420 -0.02135050
v -0.04286975 0.01533966 -0.01520708
v -0.04286565 0.01534072 -0.00909816
v -0.04286798 0.01534115 -0.00298737
v -0.04286802 0.01534125 0.00312374
v -0.04286804 0.01534132 0.00923476
v -0.04286794 0.01533704 0.01534139
v -0.04286550 0.01533057 0.02144587
v -0.04286862 0.01541900 0.02764189
v -0.04291246 0.01568096 0.03399711
v -0.04296436 0.01520026 0.03966377
v -0.03533053 -0.01508221 -0.03927537
v -0.03796886 -0.01205656 -0.04234914
v -0.03695003 -0.01560725 -0.03372913
v -0.03688546 -0.01537208 -0.02739771
v -0.03670201 -0.01527717 -0.02115875
v -0.03666373 -0.01527816 -0.01502268
v -0.03666645 -0.01528154 -0.00891308
v -0.03667002 -0.01528206 -0.00280325
v -0.03666997 -0.01528215 0.00330781
v -0.03666995 -0.01528225 0.00941885
v -0.03667853 -0.01527782 0.01552540
v -0.03668020 -0.01526971 0.02162834
v -0.03650058 -0.01536262 0.02783135
v -0.03624329 -0.01564592 0.03423493
v -0.03765704 -0.01511063 0.03984223
v -0.03637294 -0.01194213 0.04292679
v -0.03641402 -0.00641525 -0.04282580
v -0.03664091 -0.00627995 0.04343492
v -0.03670320 0.00005485 -0.04268901
v -0.03677446 0.00014553 0.04325357
v -0.03711972 0.00647089 -0.04283880
v -0.03675324 0.00652322 0.04336200
v -0.03578906 0.01201335 -0.04231704
v -0.03671571 0.01204397 0.04281223
v -0.03708290 0.01508356 -0.03930552
v -0.03683255 0.01559448 -0.03376806
v -0.03670635 0.01534524 -0.02742125
v -0.03669371 0.01524930 -0.02116705
v -0.03667057 0.01525079 -0.01502880
v -0.03666759 0.01525390 -0.00891972
v -0.03667000 0.01525419 -0.00280985
v -0.03667014 0.01525426 0.00330123
v -0.03667008 0.01525432 0.00941223
v -0.03667014 0.01525007 0.01551891
v -0.03667003 0.01524490 0.02162474
v -0.03666811 0.01533056 0.02782182
v -0.03666791 0.01555833 0.03415747
v -0.03668279 0.01505086 0.03974509
v -0.02924158 -0.01507280 -0.03925722
v -0.03187732 -0.01202410 -0.04230513
v -0.03084579 -0.01559584 -0.03367069
v -0.03074205 -0.01536753 -0.02733479
v -0.03056376 -0.01527866 -0.02113561
v -0.03055362 -0.01528273 -0.01502735
v -0.03056229 -0.01528711 -0.00892152
v -0.03056438 -0.01528724 -0.00281173
v -0.03056415 -0.01528726 0.00329931
v -0.03056415 -0.01528732 0.00941033
v -0.03057263 -0.01528311 0.01551705
v -0.03057448 -0.01527780 0.02162268
v -0.03039787 -0.01536248 0.02781778
v -0.03011611 -0.01559364 0.03415965
v -0.03147351 -0.01508600 0.03978715
v -0.03013295 -0.01201863 0.04280889
v -0.03027640 -0.00643772 -0.04282360
v -0.03039810 -0.00643420 0.04331456
v -0.03055750 -0.00001208 -0.04268603
v -0.03057296 -0.00001101 0.04317403
v -0.03101456 0.00641071 -0.04282726
v -0.03057189 0.00641011 0.04331718
v -0.02969691 0.01199213 -0.04230921
v -0.03056147 0.01198847 0.04280205
v -0.03101226 0.01504468 -0.03925757
v -0.03073087 0.01556897 -0.03367246
v -0.03055747 0.01533937 -0.02733329
v -0.03055764 0.01525029 -0.02112876
v -0.03056232 0.01525485 -0.01501865
v -0.03056288 0.01525925 -0.00891296
v -0.03056423 0.01525935 -0.00280315
v -0.03056434 0.01525938 0.00330792
v -0.03056428 0.01525944 0.00941893
v -0.03056428 0.01525516 0.01552558
v -0.03056433 0.01525007 0.02163141
v -0.03056430 0.01533704 0.02782938
v -0.03056338 0.01556399 0.03416804
v -0.03056140 0.01503922 0.03975427
v -0.02313190 -0.01507349 -0.03925970
v -0.02577468 -0.01202328 -0.04230994
v -0.02473817 -0.01559639 -0.03367077
v -0.02463312 -0.01536860 -0.02733069
v -0.02445468 -0.01528178 -0.02113263
v -0.02444793 -0.01528713 -0.01502791
v -0.02445709 -0.01529155 -0.00892243
v -0.02445788 -0.01529153 -0.00281189
v -0.02445747 -0.01529153 0.00329923
v -0.02445750 -0.01529159 0.00941025
v -0.02446597 -0.01528732 0.01551690
v -0.02446776 -0.01528225 0.02162278
v -0.02429206 -0.01536911 0.02782057
v -0.02401094 -0.01559590 0.03415748
v -0.02533368 -0.01507654 0.03974325
v -0.02400593 -0.01202883 0.04279308
v -0.02416640 -0.00644222 -0.04282872
v -0.02428693 -0.00644679 0.04331257
v -0.02444723 -0.00001636 -0.04268775
v -0.02446429 -0.00001927 0.04317370
v -0.02490526 0.00641060 -0.04282866
v -0.02446383 0.00640895 0.04331595
v -0.02358569 0.01199432 -0.04231096
v -0.02445659 0.01199362 0.04279880
v -0.02490402 0.01504481 -0.03925904
v -0.02462408 0.01556746 -0.03366951
v -0.02444758 0.01534001 -0.02732919
v -0.02444804 0.01525367 -0.02113148
v -0.02445648 0.01525924 -0.01502732
v -0.02445739 0.01526368 -0.00892212
v -0.02445765 0.01526365 -0.00281162
v -0.02445766 0.01526365 0.00329952
v -0.02445763 0.01526372 0.00941054
v -0.02445763 0.01525944 0.01551719
v -0.02445763 0.01525432 0.02162299
v -0.02445765 0.01534132 0.02782091
v -0.02445769 0.01556909 0.03415982
v -0.02445729 0.01504575 0.03974782
v -0.01702060 -0.01507359 -0.03925987
v -0.01966432 -0.01202251 -0.04231115
v -0.01862672 -0.01559676 -0.03367195
v -0.01852233 -0.01536903 -0.02733302
v -0.01834481 -0.01528206 -0.02113504
v -0.01833811 -0.01528723 -0.01502926
v -0.01834658 -0.01529153 -0.00892269
v -0.01834689 -0.01529146 -0.00281171
v -0.01834644 -0.01529146 0.00329946
v -0.01834650 -0.01529153 0.00941046
v -0.01835498 -0.01528725 0.01551711
v -0.01835675 -0.01528213 0.02162292
v -0.01818104 -0.01536914 0.02782088
v -0.01790116 -0.01559677 0.03415977
v -0.01922643 -0.01507372 0.03974673
v -0.01790082 -0.01202272 0.04279861
v -0.01805648 -0.00643979 -0.04282904
v -0.01818099 -0.00643989 0.04331675
v -0.01833645 -0.00001395 -0.04268814
v -0.01835675 -0.00001396 0.04317588
v -0.01879386 0.00641186 -0.04282900
v -0.01835502 0.00641193 0.04331668
v -0.01747447 0.01199459 -0.04231104
v -0.01834657 0.01199472 0.04279866
v -0.01879217 0.01504578 -0.03925989
v -0.01851201 0.01556887 -0.03367193
v -0.01833650 0.01534112 -0.02733296
v -0.01833820 0.01525419 -0.02113505
v -0.01834668 0.01525937 -0.01502941
v -0.01834685 0.01526366 -0.00892291
v -0.01834667 0.01526359 -0.00281193
v -0.01834664 0.01526358 0.00329924
v -0.01834663 0.01526365 0.00941025
v -0.01834663 0.01525938 0.01551690
v -0.01834663 0.01525425 0.02162270
v -0.01834663 0.01534124 0.02782061
v -0.01834664 0.01556898 0.03415948
v -0.01834646 0.01504587 0.03974742
v -0.01090965 -0.01507361 -0.03925983
v -0.01355334 -0.01202237 -0.04231103
v -0.01251574 -0.01559675 -0.03367191
v -0.01241132 -0.01536902 -0.02733306
v -0.01223384 -0.01528204 -0.02113518
v -0.01222715 -0.01528716 -0.01502937
v -0.01223555 -0.01529143 -0.00892270
v -0.01223583 -0.01529135 -0.00281168
v -0.01223539 -0.01529135 0.00329946
v -0.01223547 -0.01529142 0.00941046
v -0.01224395 -0.01528715 0.01551711
v -0.01224571 -0.01528202 0.02162292
v -0.01206998 -0.01536901 0.02782082
v -0.01179006 -0.01559675 0.03415972
v -0.01311625 -0.01507347 0.03974776
v -0.01179017 -0.01202226 0.04279892
v -0.01194555 -0.00643963 -0.04282897
v -0.01207007 -0.00643955 0.04331681
v -0.01222548 -0.00001391 -0.04268811
v -0.01224577 -0.00001386 0.04317592
v -0.01268292 0.00641182 -0.04282897
v -0.01224397 0.00641184 0.04331676
v -0.01136356 0.01199455 -0.04231102
v -0.01223548 0.01199456 0.04279881
v -0.01268123 0.01504575 -0.03925984
v -0.01240098 0.01556889 -0.03367193
v -0.01222547 0.01534117 -0.02733309
v -0.01222725 0.01525418 -0.02113521
v -0.01223575 0.01525929 -0.01502940
v -0.01223583 0.01526355 -0.00892271
v -0.01223560 0.01526348 -0.00281169
v -0.01223560 0.01526348 0.00329947
v -0.01223560 0.01526355 0.00941046
v -0.01223560 0.01525927 0.01551711
v -0.01223560 0.01525415 0.02162292
v -0.01223560 0.01534114 0.02782083
v -0.01223560 0.01556887 0.03415970
v -0.01223539 0.01504574 0.03974763
v -0.00479873 -0.01507361 -0.03925983
v -0.00744240 -0.01202243 -0.04231102
v -0.00640482 -0.01559675 -0.03367190
v -0.00630040 -0.01536901 -0.02733303
v -0.00612290 -0.01528203 -0.02113512
v -0.00611620 -0.01528715 -0.01502932
v -0.00612460 -0.01529143 -0.00892267
v -0.00612489 -0.01529136 -0.00281167
v -0.00612446 -0.01529136 0.00329946
v -0.00612454 -0.01529142 0.00941046
v -0.00613302 -0.01528715 0.01551711
v -0.00613479 -0.01528203 0.02162291
v -0.00595906 -0.01536901 0.02782082
v -0.00567911 -0.01559675 0.03415969
v -0.00700519 -0.01507361 0.03974763
v -0.00567911 -0.01202243 0.04279881
v -0.00583461 -0.00643969 -0.04282896
v -0.00595906 -0.00643969 0.04331675
v -0.00611456 -0.00001394 -0.04268811
v -0.00613479 -0.00001394 0.04317590
v -0.00657200 0.00641181 -0.04282896
v -0.00613302 0.00641181 0.04331676
v -0.00525263 0.01199455 -0.04231102
v -0.00612454 0.01199455 0.04279881
v -0.00657031 0.01504574 -0.03925983
v -0.00629008 0.01556887 -0.03367190
v -0.00611456 0.01534114 -0.02733303
v -0.00611633 0.01525415 -0.02113512
v -0.00612480 0.01525928 -0.01502932
v -0.00612488 0.01526355 -0.00892266
v -0.00612467 0.01526348 -0.00281167
v -0.00612467 0.01526348 0.00329947
v -0.00612467 0.01526355 0.00941046
v -0.00612467 0.01525927 0.01551711
v -0.00612467 0.01525415 0.02162292
v -0.00612467 0.01534114 0.02782083
v -0.00612468 0.01556887 0.03415970
v -0.00612447 0.01504574 0.03974763
v 0.00131220 -0.01507361 -0.03925983
v -0.00133147 -0.01202243 -0.04231102
v -0.00029389 -0.01559675 -0.03367190
v -0.00018947 -0.01536901 -0.02733303
v -0.00001197 -0.01528203 -0.02113512
v -0.00000527 -0.01528715 -0.01502932
v -0.00001367 -0.01529143 -0.00892267
v -0.00001396 -0.01529136 -0.00281167
v -0.00001353 -0.01529136 0.00329946
v -0.00001361 -0.01529143 0.00941046
v -0.00002209 -0.01528715 0.01551711
v -0.00002386 -0.01528203 0.02162291
v 0.00015187 -0.01536901 0.02782082
v 0.00043181 -0.01559675 0.03415969
v -0.00089426 -0.01507362 0.03974762
v 0.00043181 -0.01202243 0.04279881
v 0.00027632 -0.00643969 -0.04282896
v 0.00015187 -0.00643969 0.04331675
v -0.00000363 -0.00001394 -0.04268811
v -0.00002386 -0.00001394 0.04317590
v -0.00046107 0.00641181 -0.04282896
v -0.00002209 0.00641181 0.04331675
v 0.00085830 0.01199455 -0.04231102
v -0.00001362 0.01199455 0.04279881
v -0.00045938 0.01504574 -0.03925983
v -0.00017915 0.01556887 -0.03367190
v -0.00000363 0.01534114 -0.02733303
v -0.00000540 0.01525415 -0.02113512
v -0.00001387 0.01525928 -0.01502932
v -0.00001395 0.01526355 -0.00892267
v -0.00001374 0.01526348 -0.00281167
v -0.00001374 0.01526348 0.00329946
v -0.00001374 0.01526355 0.00941046
v -0.00001374 0.01525928 0.01551711
v -0.00001374 0.01525416 0.02162291
v -0.00001375 0.01534114 0.02782082
v -0.00001375 0.01556887 0.03415969
v -0.00001354 0.01504574 0.03974762
v 0.00742313 -0.01507361 -0.03925983
v 0.00477946 -0.01202243 -0.04231102
v 0.00581704 -0.01559675 -0.03367190
v 0.00592146 -0.01536901 -0.02733303
v 0.00609896 -0.01528203 -0.02113512
v 0.00610566 -0.01528715 -0.01502932
v 0.00609726 -0.01529142 -0.00892267
v 0.00609697 -0.01529136 -0.00281167
v 0.00609739 -0.01529136 0.00329946
v 0.00609731 -0.01529142 0.00941046
v 0.00608884 -0.01528715 0.01551711
v 0.00608707 -0.01528203 0.02162291
v 0.00626280 -0.01536901 0.02782082
v 0.00654274 -0.01559675 0.03415969
v 0.00521667 -0.01507361 0.03974762
v 0.00654274 -0.01202243 0.04279881
v 0.00638725 -0.00643968 -0.04282896
v 0.00626280 -0.00643968 0.04331675
v 0.00610730 -0.00001394 -0.04268811
v 0.00608707 -0.00001394 0.04317590
v 0.00564986 0.00641181 -0.04282896
v 0.00608884 0.00641181 0.04331675
v 0.00696922 0.01199455 -0.04231102
v 0.00609731 0.01199455 0.04279881
v 0.00565155 0.01504574 -0.03925983
v 0.00593178 0.01556887 -0.03367190
v 0.00610730 0.01534114 -0.02733303
v 0.00610553 0.01525415 -0.02113513
v 0.00609706 0.01525927 -0.01502932
v 0.00609698 0.01526355 -0.00892267
v 0.00609719 0.01526348 -0.00281168
v 0.00609719 0.01526348 0.00329946
v 0.00609718 0.01526355 0.00941045
v 0.00609718 0.01525928 0.01551711
v 0.00609718 0.01525416 0.02162291
v 0.00609718 0.01534114 0.02782082
v 0.00609718 0.01556887 0.03415969
v 0.00609739 0.01504574 0.03974762
v 0.01353405 -0.01507362 -0.03925984
v 0.01089039 -0.01202243 -0.04231102
v 0.01192796 -0.01559674 -0.03367190
v 0.01203239 -0.01536901 -0.02733303
v 0.01220988 -0.01528203 -0.02113512
v 0.01221659 -0.01528715 -0.01502932
v 0.01220819 -0.01529142 -0.00892267
v 0.01220790 -0.01529135 -0.00281167
v 0.01220833 -0.01529135 0.00329948
v 0.01220827 -0.01529143 0.00941049
v 0.01219979 -0.01528716 0.01551716
v 0.01219800 -0.01528204 0.02162297
v 0.01237372 -0.01536902 0.02782085
v 0.01265367 -0.01559675 0.03415970
v 0.01132760 -0.01507361 0.03974762
v 0.01265367 -0.01202243 0.04279882
v 0.01249817 -0.00643969 -0.04282897
v 0.01237372 -0.00643971 0.04331678
v 0.01221822 -0.00001397 -0.04268812
v 0.01219801 -0.00001401 0.04317595
v 0.01176079 0.00641176 -0.04282897
v 0.01219982 0.00641168 0.04331682
v 0.01308018 0.01199450 -0.04231103
v 0.01220833 0.01199438 0.04279890
v 0.01176248 0.01504574 -0.03925984
v 0.01204271 0.01556887 -0.03367191
v 0.01221822 0.01534114 -0.02733304
v 0.01221646 0.01525415 -0.02113513
v 0.01220798 0.01525927 -0.01502932
v 0.01220791 0.01526355 -0.00892267
v 0.01220812 0.01526348 -0.00281168
v 0.01220812 0.01526348 0.00329947
v 0.01220814 0.01526355 0.00941050
v 0.01220816 0.01525927 0.01551719
v 0.01220818 0.01525412 0.02162302
v 0.01220821 0.01534104 0.02782093
v 0.01220822 0.01556871 0.03415980
v 0.01220843 0.01504555 0.03974772
v 0.01964512 -0.01507377 -0.03925986
v 0.01700131 -0.01202246 -0.04231104
v 0.01803898 -0.01559687 -0.03367192
v 0.01814342 -0.01536911 -0.02733303
v 0.01832092 -0.01528213 -0.02113512
v 0.01832762 -0.01528725 -0.01502932
v 0.01831922 -0.01529153 -0.00892267
v 0.01831894 -0.01529146 -0.00281166
v 0.01831940 -0.01529146 0.00329950
v 0.01831930 -0.01529153 0.00941048
v 0.01831075 -0.01528723 0.01551706
v 0.01830899 -0.01528208 0.02162283
v 0.01848475 -0.01536905 0.02782081
v 0.01876465 -0.01559679 0.03415975
v 0.01743853 -0.01507364 0.03974766
v 0.01876465 -0.01202249 0.04279887
v 0.01860914 -0.00643974 -0.04282899
v 0.01848476 -0.00643974 0.04331680
v 0.01832923 -0.00001393 -0.04268813
v 0.01830897 -0.00001389 0.04317592
v 0.01787178 0.00641192 -0.04282901
v 0.01831067 0.00641198 0.04331676
v 0.01919127 0.01199474 -0.04231094
v 0.01831917 0.01199478 0.04279882
v 0.01787356 0.01504583 -0.03925964
v 0.01815375 0.01556898 -0.03367169
v 0.01832926 0.01534124 -0.02733283
v 0.01832749 0.01525425 -0.02113492
v 0.01831902 0.01525938 -0.01502911
v 0.01831894 0.01526365 -0.00892246
v 0.01831916 0.01526358 -0.00281146
v 0.01831919 0.01526359 0.00329971
v 0.01831918 0.01526365 0.00941070
v 0.01831918 0.01525931 0.01551724
v 0.01831920 0.01525412 0.02162292
v 0.01831916 0.01534114 0.02782083
v 0.01831909 0.01556901 0.03415975
v 0.01831928 0.01504596 0.03974767
v 0.02575669 -0.01507273 -0.03925918
v 0.02311262 -0.01202229 -0.04231093
v 0.02415006 -0.01559692 -0.03367188
v 0.02425440 -0.01536922 -0.02733307
v 0.02443191 -0.01528220 -0.02113512
v 0.02443862 -0.01528732 -0.01502932
v 0.02443022 -0.01529159 -0.00892267
v 0.02442997 -0.01529153 -0.00281165
v 0.02443039 -0.01529152 0.00329950
v 0.02442983 -0.01529153 0.00941011
v 0.02442058 -0.01528712 0.01551568
v 0.02441882 -0.01528178 0.02162045
v 0.02459542 -0.01536860 0.02781851
v 0.02487593 -0.01559644 0.03415854
v 0.02354974 -0.01507357 0.03974742
v 0.02487598 -0.01202166 0.04279786
v 0.02472054 -0.00643855 -0.04282864
v 0.02459533 -0.00643710 0.04331482
v 0.02444004 -0.00001155 -0.04268773
v 0.02441786 -0.00000882 0.04317305
v 0.02398174 0.00641436 -0.04282860
v 0.02441795 0.00641907 0.04331317
v 0.02530036 0.01199513 -0.04231074
v 0.02442558 0.01200246 0.04279480
v 0.02398445 0.01504566 -0.03925991
v 0.02426479 0.01556905 -0.03367183
v 0.02444028 0.01534133 -0.02733291
v 0.02443849 0.01525432 -0.02113500
v 0.02443001 0.01525944 -0.01502919
v 0.02442994 0.01526372 -0.00892254
v 0.02443018 0.01526365 -0.00281152
v 0.02443017 0.01526365 0.00329961
v 0.02442979 0.01526366 0.00941014
v 0.02442902 0.01525922 0.01551536
v 0.02442819 0.01525419 0.02161930
v 0.02442722 0.01534240 0.02781619
v 0.02442608 0.01557272 0.03415514
v 0.02442559 0.01505232 0.03974340
v 0.03186032 -0.01506803 -0.03925947
v 0.02922279 -0.01201987 -0.04230982
v 0.03025721 -0.01559077 -0.03367031
v 0.03036111 -0.01536485 -0.02733292
v 0.03053856 -0.01527797 -0.02113518
v 0.03054527 -0.01528304 -0.01502932
v 0.03053687 -0.01528732 -0.00892267
v 0.03053667 -0.01528724 -0.00281163
v 0.03053692 -0.01528718 0.00329950
v 0.03053505 -0.01528709 0.00940934
v 0.03052620 -0.01528273 0.01551508
v 0.03052770 -0.01527836 0.02162320
v 0.03070393 -0.01536667 0.02782229
v 0.03098296 -0.01559475 0.03415826
v 0.02965934 -0.01507174 0.03974498
v 0.03098283 -0.01201954 0.04279628
v 0.03082820 -0.00643841 -0.04282812
v 0.03070455 -0.00643933 0.04331471
v 0.03054895 -0.00001575 -0.04268655
v 0.03053088 -0.00001654 0.04317372
v 0.03008951 0.00640950 -0.04282474
v 0.03052918 0.00640904 0.04331407
v 0.03140163 0.01199310 -0.04231079
v 0.03053577 0.01199172 0.04279425
v 0.03008894 0.01504017 -0.03926652
v 0.03037063 0.01556389 -0.03368021
v 0.03054689 0.01533700 -0.02734147
v 0.03054518 0.01525008 -0.02114349
v 0.03053667 0.01525517 -0.01503766
v 0.03053659 0.01525944 -0.00893101
v 0.03053686 0.01525938 -0.00282000
v 0.03053675 0.01525936 0.00329107
v 0.03053536 0.01525925 0.00940090
v 0.03053477 0.01525486 0.01550651
v 0.03053501 0.01525156 0.02161570
v 0.03053276 0.01534220 0.02781818
v 0.03053345 0.01557019 0.03415616
v 0.03053656 0.01504393 0.03974180
v 0.03794769 -0.01511077 -0.03929384
v 0.03531322 -0.01203812 -0.04231848
v 0.03636101 -0.01558862 -0.03367503
v 0.03646687 -0.01535775 -0.02733085
v 0.03664439 -0.01527274 -0.02113499
v 0.03665108 -0.01527796 -0.01502936
v 0.03664268 -0.01528220 -0.00892267
v 0.03664250 -0.01528209 -0.00281160
v 0.03664261 -0.01528199 0.00329952
v 0.03663899 -0.01528207 0.00940851
v 0.03663538 -0.01527944 0.01551532
v 0.03666505 -0.01527760 0.02164754
v 0.03684883 -0.01537162 0.02788384
v 0.03709203 -0.01560690 0.03421540
v 0.03575460 -0.01507932 0.03976414
v 0.03708827 -0.01206693 0.04284014
v 0.03693263 -0.00649702 -0.04283937
v 0.03686156 -0.00654804 0.04337469
v 0.03669105 -0.00008090 -0.04268979
v 0.03672644 -0.00017276 0.04325088
v 0.03622534 0.00638971 -0.04282771
v 0.03673261 0.00623783 0.04340119
v 0.03754173 0.01203988 -0.04232420
v 0.03674927 0.01184717 0.04287927
v 0.03620488 0.01505516 -0.03926257
v 0.03647676 0.01555985 -0.03367804
v 0.03665092 0.01533049 -0.02734247
v 0.03665085 0.01524483 -0.02114532
v 0.03664253 0.01525008 -0.01503946
v 0.03664239 0.01525432 -0.00893278
v 0.03664266 0.01525426 -0.00282178
v 0.03664252 0.01525420 0.00328930
v 0.03664013 0.01525390 0.00939914
v 0.03664288 0.01525048 0.01550801
v 0.03666722 0.01524972 0.02164537
v 0.03668326 0.01534519 0.02790073
v 0.03669365 0.01555709 0.03426373
v 0.03673292 0.01496816 0.03983570
v 0.04416325 -0.01520776 -0.03928030
v 0.04144985 -0.01211295 -0.04234977
v 0.04256408 -0.01572341 -0.03372772
v 0.04266427 -0.01544788 -0.02733717
v 0.04284189 -0.01535824 -0.02113333
v 0.04284901 -0.01536491 -0.01502927
v 0.04284059 -0.01536920 -0.00892269
v 0.04284041 -0.01536901 -0.00281158
v 0.04284052 -0.01536901 0.00329948
v 0.04283588 -0.01537028 0.00940754
v 0.04283786 -0.01537007 0.01551308
v 0.04292042 -0.01537306 0.02166358
v 0.04308161 -0.01544605 0.02790321
v 0.04328072 -0.01565433 0.03425838
v 0.04191114 -0.01514234 0.03984637
v 0.04324243 -0.01213618 0.04291113
v 0.04311339 -0.00653231 -0.04286302
v 0.04303053 -0.00659594 0.04345263
v 0.04291783 -0.00008848 -0.04276553
v 0.04297176 -0.00025215 0.04335368
v 0.04251069 0.00643081 -0.04295958
v 0.04301916 0.00617863 0.04353190
v 0.04385012 0.01205350 -0.04236922
v 0.04300277 0.01184776 0.04303411
v 0.04244535 0.01517710 -0.03917259
v 0.04271424 0.01568433 -0.03351528
v 0.04285328 0.01542198 -0.02716323
v 0.04284656 0.01533047 -0.02096831
v 0.04284031 0.01533691 -0.01486378
v 0.04284035 0.01534133 -0.00875708
v 0.04284054 0.01534125 -0.00264606
v 0.04284050 0.01534118 0.00346506
v 0.04283820 0.01534072 0.00957573
v 0.04284197 0.01533879 0.01568424
v 0.04290353 0.01534375 0.02182914
v 0.04292290 0.01541817 0.02806192
v 0.04298090 0.01558545 0.03437807
v 0.04301260 0.01498097 0.03997395
v 0.05013563 -0.01491987 -0.03850736
v 0.04823913 -0.01155753 -0.04215017
v 0.04893925 -0.01593210 -0.03367396
v 0.04901758 -0.01570941 -0.02737496
v 0.04917927 -0.01558633 -0.02113614
v 0.04918766 -0.01559185 -0.01502848
v 0.04917949 -0.01559696 -0.00892269
v 0.04917927 -0.01559669 -0.00281157
v 0.04917944 -0.01559688 0.00329941
v 0.04917483 -0.01560060 0.00940640
v 0.04917585 -0.01559806 0.01551376
v 0.04928341 -0.01558497 0.02167396
v 0.04939775 -0.01561332 0.02796122
v 0.04862388 -0.01571663 0.03339925
v 0.04859873 -0.01498232 0.03934746
v 0.04864146 -0.01107543 0.04253594
v 0.04848488 -0.00563552 -0.04292157
v 0.04842758 -0.00513733 0.04271507
v 0.04920304 -0.00011537 -0.04300180
v 0.04845576 0.00124681 0.04265674
v 0.04896340 0.00627785 -0.04316643
v 0.04851059 0.00767482 0.04291111
v 0.04995534 0.01118776 -0.04203070
v 0.04797355 0.01261017 0.04251066
v 0.04844663 0.01485936 -0.03904762
v 0.04904228 0.01587140 -0.03335980
v 0.04924477 0.01568619 -0.02691491
v 0.04918922 0.01556330 -0.02068589
v 0.04917742 0.01556388 -0.01458260
v 0.04917923 0.01556888 -0.00847725
v 0.04917941 0.01556897 -0.00236614
v 0.04917943 0.01556891 0.00374497
v 0.04917822 0.01556857 0.00985625
v 0.04917794 0.01556687 0.01596327
v 0.04923508 0.01557903 0.02207235
v 0.04927806 0.01562646 0.02826103
v 0.04841894 0.01568875 0.03360419
v 0.04965823 0.01484867 0.03887247
v 0.05277779 -0.01204393 -0.04046067
v 0.05451439 -0.01340382 -0.03730809
v 0.05453849 -0.01496527 -0.03327251
v 0.05466715 -0.01521911 -0.02735492
v 0.05476936 -0.01507920 -0.02114720
v 0.05477430 -0.01506719 -0.01502817
v 0.05476743 -0.01507361 -0.00892229
v 0.05476721 -0.01507356 -0.00281138
v 0.05476736 -0.01507383 0.00329960
v 0.05476309 -0.01508020 0.00940591
v 0.05476149 -0.01507180 0.01551688
v 0.05485538 -0.01499603 0.02171323
v 0.05499363 -0.01500884 0.02799292
v 0.05389216 -0.01487654 0.03463854
v 0.05259391 -0.01286414 0.03975070
v 0.05565218 -0.01081398 0.03707030
v 0.05597955 -0.01029254 -0.03915721
v 0.05371426 -0.00692628 -0.04216555
v 0.05238628 -0.00801892 0.04048865
v 0.05539112 -0.00474071 0.03732693
v 0.05479076 -0.00029224 -0.04250063
v 0.05223531 -0.00169224 0.04032509
v 0.05534477 0.00166437 0.03721563
v 0.05460175 0.00571576 -0.04216678
v 0.05234661 0.00471284 0.04037143
v 0.05550834 0.00799105 0.03736659
v 0.05447665 0.00981519 -0.04042907
v 0.05258670 0.01315922 -0.03896967
v 0.05593552 0.01170177 -0.03707930
v 0.05208998 0.01078610 0.04063249
v 0.05477039 0.01283627 0.03757422
v 0.05396129 0.01476084 -0.03444613
v 0.05482908 0.01510186 -0.02834003
v 0.05481392 0.01505990 -0.02203807
v 0.05476357 0.01504710 -0.01590332
v 0.05476622 0.01504612 -0.00980220
v 0.05476745 0.01504565 -0.00369235
v 0.05476736 0.01504571 0.00241882
v 0.05476710 0.01504569 0.00853006
v 0.05476466 0.01504386 0.01463965
v 0.05478382 0.01505144 0.02073491
v 0.05486606 0.01511447 0.02689145
v 0.05436714 0.01495445 0.03357905
v 0.05758518 -0.01107313 -0.03400746
v 0.05778659 -0.01216081 -0.02736638
v 0.05782944 -0.01207227 -0.02114809
v 0.05782331 -0.01201711 -0.01502855
v 0.05781846 -0.01202148 -0.00892210
v 0.05781842 -0.01202241 -0.00281147
v 0.05781851 -0.01202266 0.00329949
v 0.05781449 -0.01203033 0.00940589
v 0.05781393 -0.01201960 0.01551609
v 0.05789895 -0.01187504 0.02172959
v 0.05805380 -0.01187564 0.02798309
v 0.05753034 -0.01263804 0.03295387
v 0.05772891 -0.00575240 -0.03879586
v 0.05843109 -0.00581050 -0.03286182
v 0.05835632 -0.00662149 -0.02740736
v 0.05835011 -0.00653511 -0.02116423
v 0.05833908 -0.00643898 -0.01503630
v 0.05833610 -0.00643706 -0.00893030
v 0.05833639 -0.00643965 -0.00281999
v 0.05833645 -0.00643989 0.00329098
v 0.05833286 -0.00644694 0.00939827
v 0.05833376 -0.00643691 0.01550950
v 0.05842088 -0.00626570 0.02171293
v 0.05855159 -0.00620651 0.02799947
v 0.05793079 -0.00770270 0.03349090
v 0.05794180 0.00111150 -0.03941016
v 0.05851107 -0.00038611 -0.03383066
v 0.05827360 -0.00025753 -0.02742932
v 0.05819906 -0.00009778 -0.02118567
v 0.05819532 -0.00001365 -0.01503893
v 0.05819513 -0.00001000 -0.00893163
v 0.05819556 -0.00001383 -0.00282179
v 0.05819561 -0.00001405 0.00328927
v 0.05819274 -0.00001905 0.00939818
v 0.05819340 -0.00001134 0.01551119
v 0.05827057 0.00014489 0.02170675
v 0.05837337 0.00022427 0.02795208
v 0.05767642 -0.00127469 0.03343608
v 0.05754406 0.00719627 -0.03847299
v 0.05865807 0.00609758 -0.03359393
v 0.05846401 0.00621199 -0.02727332
v 0.05833240 0.00638252 -0.02099660
v 0.05833242 0.00641823 -0.01486274
v 0.05833616 0.00641542 -0.00875554
v 0.05833647 0.00641189 -0.00264605
v 0.05833649 0.00641177 0.00346505
v 0.05833450 0.00640923 0.00957564
v 0.05833440 0.00641145 0.01568486
v 0.05839437 0.00652016 0.02184187
v 0.05847231 0.00656807 0.02801085
v 0.05773475 0.00510946 0.03340789
v 0.05763463 0.01178058 -0.03294189
v 0.05795070 0.01190463 -0.02694327
v 0.05782725 0.01199587 -0.02069978
v 0.05781218 0.01200355 -0.01457997
v 0.05781822 0.01199658 -0.00847585
v 0.05781860 0.01199447 -0.00236613
v 0.05781856 0.01199453 0.00374494
v 0.05781755 0.01199379 0.00985629
v 0.05781596 0.01199167 0.01596314
v 0.05785982 0.01203905 0.02206859
v 0.05793081 0.01210830 0.02822275
v 0.05755563 0.01104756 0.03362178
f 3 2 1
f 5 4 1
f 5 1 2
f 7 6 4
f 7 4 5
f 9 8 6
f 9 6 7
f 11 10 8
f 11 8 9
f 13 12 10
f 13 10 11
f 15 14 12
f 15 12 13
f 17 16 14
f 17 14 15
f 19 18 16
f 19 16 17
f 21 20 18
f 21 18 19
f 23 22 20
f 23 20 21
f 24 22 23
f 27 26 25
f 25 26 3
f 1 25 3
f 28 25 1
f 29 1 4
f 28 1 29
f 30 4 6
f 29 4 30
f 31 6 8
f 30 6 31
f 32 8 10
f 31 8 32
f 33 10 12
f 32 10 33
f 34 12 14
f 33 12 34
f 35 14 16
f 34 14 35
f 36 16 18
f 35 16 36
f 37 18 20
f 36 18 37
f 38 20 22
f 37 20 38
f 22 24 39
f 40 22 39
f 38 22 40
f 41 40 39
f 27 25 42
f 27 42 43
f 44 25 28
f 42 25 44
f 45 28 29
f 44 28 45
f 46 29 30
f 45 29 46
f 47 30 31
f 46 30 47
f 48 31 32
f 47 31 48
f 49 32 33
f 48 32 49
f 50 33 34
f 49 33 50
f 51 34 35
f 50 34 51
f 52 35 36
f 51 35 52
f 53 36 37
f 52 36 53
f 54 37 38
f 53 37 54
f 55 38 40
f 54 38 55
f 40 41 56
f 40 56 55
f 43 42 57
f 43 57 58
f 59 42 44
f 57 42 59
f 60 44 45
f 59 44 60
f 61 45 46
f 60 45 61
f 62 46 47
f 61 46 62
f 63 47 48
f 62 47 63
f 64 48 49
f 63 48 64
f 65 49 50
f 64 49 65
f 66 50 51
f 65 50 66
f 67 51 52
f 66 51 67
f 68 52 53
f 67 52 68
f 69 53 54
f 68 53 69
f 70 54 55
f 69 54 70
f 55 56 71
f 55 71 70
f 72 58 57
f 74 73 72
f 57 74 72
f 59 74 57
f 75 59 60
f 74 59 75
f 76 60 61
f 75 60 76
f 77 61 62
f 76 61 77
f 78 62 63
f 77 62 78
f 79 63 64
f 78 63 79
f 80 64 65
f 79 64 80
f 81 65 66
f 80 65 81
f 82 66 67
f 81 66 82
f 83 67 68
f 82 67 83
f 84 68 69
f 83 68 84
f 85 69 70
f 84 69 85
f 70 71 86
f 70 86 85
f 87 73 74
f 87 74 75
f 87 75 88
f 88 75 76
f 88 76 89
f 89 76 77
f 89 77 90
f 90 77 78
f 90 78 91
f 91 78 79
f 91 79 92
f 92 79 80
f 92 80 93
f 93 80 81
f 93 81 94
f 94 81 82
f 94 82 95
f 95 82 83
f 95 83 96
f 96 83 84
f 96 84 97
f 97 84 85
f 97 85 98
f 98 85 86
f 101 100 99
f 2 3 99
f 100 2 99
f 102 2 100
f 2 103 5
f 102 103 2
f 5 104 7
f 103 104 5
f 7 105 9
f 104 105 7
f 9 106 11
f 105 106 9
f 11 107 13
f 106 107 11
f 13 108 15
f 107 108 13
f 15 109 17
f 108 109 15
f 17 110 19
f 109 110 17
f 19 111 21
f 110 111 19
f 21 112 23
f 111 112 21
f 114 113 24
f 23 114 24
f 112 114 23
f 115 113 114
f 101 99 26
f 27 101 26
f 116 101 27
f 26 99 3
f 113 39 24
f 118 117 41
f 118 41 39
f 115 118 39
f 113 115 39
f 119 117 118
f 43 116 27
f 43 120 116
f 121 56 117
f 117 56 41
f 117 119 122
f 117 122 121
f 58 120 43
f 58 123 120
f 124 71 121
f 121 71 56
f 121 122 125
f 121 125 124
f 58 72 126
f 127 58 126
f 123 58 127
f 73 126 72
f 128 86 124
f 124 86 71
f 124 125 129
f 124 129 128
f 130 127 126
f 130 126 73
f 87 130 73
f 131 130 87
f 132 87 88
f 132 131 87
f 133 88 89
f 133 132 88
f 134 89 90
f 134 133 89
f 135 90 91
f 135 134 90
f 136 91 92
f 136 135 91
f 137 92 93
f 137 136 92
f 138 93 94
f 138 137 93
f 139 94 95
f 139 138 94
f 140 95 96
f 140 139 95
f 141 96 97
f 141 140 96
f 142 97 98
f 142 141 97
f 98 86 128
f 143 98 128
f 142 98 143
f 143 128 129
f 145 144 100
f 145 100 101
f 100 146 102
f 144 146 100
f 102 147 103
f 146 147 102
f 103 148 104
f 147 148 103
f 104 149 105
f 148 149 104
f 105 150 106
f 149 150 105
f 106 151 107
f 150 151 106
f 107 152 108
f 151 152 107
f 108 153 109
f 152 153 108
f 109 154 110
f 153 154 109
f 110 155 111
f 154 155 110
f 111 156 112
f 155 156 111
f 112 157 114
f 156 157 112
f 159 158 115
f 114 159 115
f 157 159 114
f 160 158 159
f 116 145 101
f 116 161 145
f 158 118 115
f 119 118 158
f 160 119 158
f 162 119 160
f 120 161 116
f 120 163 161
f 162 122 119
f 164 122 162
f 123 163 120
f 123 165 163
f 164 125 122
f 166 125 164
f 127 165 123
f 127 167 165
f 166 129 125
f 168 129 166
f 169 167 127
f 169 127 130
f 170 130 131
f 170 169 130
f 171 131 132
f 171 170 131
f 172 132 133
f 172 171 132
f 173 133 134
f 173 172 133
f 174 134 135
f 174 173 134
f 175 135 136
f 175 174 135
f 176 136 137
f 176 175 136
f 177 137 138
f 177 176 137
f 178 138 139
f 178 177 138
f 179 139 140
f 179 178 139
f 180 140 141
f 180 179 140
f 181 141 142
f 181 180 141
f 182 142 143
f 182 181 142
f 143 129 168
f 143 168 182
f 184 183 144
f 184 144 145
f 144 185 146
f 183 185 144
f 146 186 147
f 185 186 146
f 147 187 148
f 186 187 147
f 148 188 149
f 187 188 148
f 149 189 150
f 188 189 149
f 150 190 151
f 189 190 150
f 151 191 152
f 190 191 151
f 152 192 153
f 191 192 152
f 153 193 154
f 192 193 153
f 154 194 155
f 193 194 154
f 155 195 156
f 194 195 155
f 156 196 157
f 195 196 156
f 157 197 159
f 196 197 157
f 160 159 197
f 160 197 198
f 161 184 145
f 161 199 184
f 198 162 160
f 200 162 198
f 163 199 161
f 163 201 199
f 200 164 162
f 202 164 200
f 165 201 163
f 165 203 201
f 202 166 164
f 204 166 202
f 167 203 165
f 167 205 203
f 204 168 166
f 206 168 204
f 207 205 167
f 207 167 169
f 208 169 170
f 208 207 169
f 209 170 171
f 209 208 170
f 210 171 172
f 210 209 171
f 211 172 173
f 211 210 172
f 212 173 174
f 212 211 173
f 213 174 175
f 213 212 174
f 214 175 176
f 214 213 175
f 215 176 177
f 215 214 176
f 216 177 178
f 216 215 177
f 217 178 179
f 217 216 178
f 218 179 180
f 218 217 179
f 219 180 181
f 219 218 180
f 220 181 182
f 220 219 181
f 182 168 206
f 182 206 220
f 222 221 183
f 222 183 184
f 183 223 185
f 221 223 183
f 185 224 186
f 223 224 185
f 186 225 187
f 224 225 186
f 187 226 188
f 225 226 187
f 188 227 189
f 226 227 188
f 189 228 190
f 227 228 189
f 190 229 191
f 228 229 190
f 191 230 192
f 229 230 191
f 192 231 193
f 230 231 192
f 193 232 194
f 231 232 193
f 194 233 195
f 232 233 194
f 195 234 196
f 233 234 195
f 196 235 197
f 234 235 196
f 198 197 235
f 198 235 236
f 199 222 184
f 199 237 222
f 236 200 198
f 238 200 236
f 201 237 199
f 201 239 237
f 238 202 200
f 240 202 238
f 203 239 201
f 203 241 239
f 240 204 202
f 242 204 240
f 205 241 203
f 205 243 241
f 242 206 204
f 244 206 242
f 245 243 205
f 245 205 207
f 246 207 208
f 246 245 207
f 247 208 209
f 247 246 208
f 248 209 210
f 248 247 209
f 249 210 211
f 249 248 210
f 250 211 212
f 250 249 211
f 251 212 213
f 251 250 212
f 252 213 214
f 252 251 213
f 253 214 215
f 253 252 214
f 254 215 216
f 254 253 215
f 255 216 217
f 255 254 216
f 256 217 218
f 256 255 217
f 257 218 219
f 257 256 218
f 258 219 220
f 258 257 219
f 220 206 244
f 220 244 258
f 260 259 221
f 260 221 222
f 221 261 223
f 259 261 221
f 223 262 224
f 261 262 223
f 224 263 225
f 262 263 224
f 225 264 226
f 263 264 225
f 226 265 227
f 264 265 226
f 227 266 228
f 265 266 227
f 228 267 229
f 266 267 228
f 229 268 230
f 267 268 229
f 230 269 231
f 268 269 230
f 231 270 232
f 269 270 231
f 232 271 233
f 270 271 232
f 233 272 234
f 271 272 233
f 234 273 235
f 272 273 234
f 236 235 273
f 236 273 274
f 237 260 222
f 237 275 260
f 274 238 236
f 276 238 274
f 239 275 237
f 239 277 275
f 276 240 238
f 278 240 276
f 241 277 239
f 241 279 277
f 278 242 240
f 280 242 278
f 243 279 241
f 243 281 279
f 280 244 242
f 282 244 280
f 283 281 243
f 283 243 245
f 284 245 246
f 284 283 245
f 285 246 247
f 285 284 246
f 286 247 248
f 286 285 247
f 287 248 249
f 287 286 248
f 288 249 250
f 288 287 249
f 289 250 251
f 289 288 250
f 290 251 252
f 290 289 251
f 291 252 253
f 291 290 252
f 292 253 254
f 292 291 253
f 293 254 255
f 293 292 254
f 294 255 256
f 294 293 255
f 295 256 257
f 295 294 256
f 296 257 258
f 296 295 257
f 258 244 282
f 258 282 296
f 298 297 259
f 298 259 260
f 259 299 261
f 297 299 259
f 261 300 262
f 299 300 261
f 262 301 263
f 300 301 262
f 263 302 264
f 301 302 263
f 264 303 265
f 302 303 264
f 265 304 266
f 303 304 265
f 266 305 267
f 304 305 266
f 267 306 268
f 305 306 267
f 268 307 269
f 306 307 268
f 269 308 270
f 307 308 269
f 270 309 271
f 308 309 270
f 271 310 272
f 309 310 271
f 272 311 273
f 310 311 272
f 274 273 311
f 274 311 312
f 275 298 260
f 275 313 298
f 312 276 274
f 314 276 312
f 277 313 275
f 277 315 313
f 314 278 276
f 316 278 314
f 279 315 277
f 279 317 315
f 316 280 278
f 318 280 316
f 281 317 279
f 281 319 317
f 318 282 280
f 320 282 318
f 321 319 281
f 321 281 283
f 322 283 284
f 322 321 283
f 323 284 285
f 323 322 284
f 324 285 286
f 324 323 285
f 325 286 287
f 325 324 286
f 326 287 288
f 326 325 287
f 327 288 289
f 327 326 288
f 328 289 290
f 328 327 289
f 329 290 291
f 329 328 290
f 330 291 292
f 330 329 291
f 331 292 293
f 331 330 292
f 332 293 294
f 332 331 293
f 333 294 295
f 333 332 294
f 334 295 296
f 334 333 295
f 296 282 320
f 296 320 334
f 336 335 297
f 336 297 298
f 297 337 299
f 335 337 297
f 299 338 300
f 337 338 299
f 300 339 301
f 338 339 300
f 301 340 302
f 339 340 301
f 302 341 303
f 340 341 302
f 303 342 304
f 341 342 303
f 304 343 305
f 342 343 304
f 305 344 306
f 343 344 305
f 306 345 307
f 344 345 306
f 307 346 308
f 345 346 307
f 308 347 309
f 346 347 308
f 309 348 310
f 347 348 309
f 310 349 311
f 348 349 310
f 312 311 349
f 312 349 350
f 313 336 298
f 313 351 336
f 350 314 312
f 352 314 350
f 315 351 313
f 315 353 351
f 352 316 314
f 354 316 352
f 317 353 315
f 317 355 353
f 354 318 316
f 356 318 354
f 319 355 317
f 319 357 355
f 356 320 318
f 358 320 356
f 359 357 319
f 359 319 321
f 360 321 322
f 360 359 321
f 361 322 323
f 361 360 322
f 362 323 324
f 362 361 323
f 363 324 325
f 363 362 324
f 364 325 326
f 364 363 325
f 365 326 327
f 365 364 326
f 366 327 328
f 366 365 327
f 367 328 329
f 367 366 328
f 368 329 330
f 368 367 329
f 369 330 331
f 369 368 330
f 370 331 332
f 370 369 331
f 371 332 333
f 371 370 332
f 372 333 334
f 372 371 333
f 334 320 358
f 334 358 372
f 374 373 335
f 374 335 336
f 335 375 337
f 373 375 335
f 337 376 338
f 375 376 337
f 338 377 339
f 376 377 338
f 339 378 340
f 377 378 339
f 340 379 341
f 378 379 340
f 341 380 342
f 379 380 341
f 342 381 343
f 380 381 342
f 343 382 344
f 381 382 343
f 344 383 345
f 382 383 344
f 345 384 346
f 383 384 345
f 346 385 347
f 384 385 346
f 347 386 348
f 385 386 347
f 348 387 349
f 386 387 348
f 350 349 387
f 350 387 388
f 351 374 336
f 351 389 374
f 388 352 350
f 390 352 388
f 353 389 351
f 353 391 389
f 390 354 352
f 392 354 390
f 355 391 353
f 355 393 391
f 392 356 354
f 394 356 392
f 357 393 355
f 357 395 393
f 394 358 356
f 396 358 394
f 397 395 357
f 397 357 359
f 398 359 360
f 398 397 359
f 399 360 361
f 399 398 360
f 400 361 362
f 400 399 361
f 401 362 363
f 401 400 362
f 402 363 364
f 402 401 363
f 403 364 365
f 403 402 364
f 404 365 366
f 404 403 365
f 405 366 367
f 405 404 366
f 406 367 368
f 406 405 367
f 407 368 369
f 407 406 368
f 408 369 370
f 408 407 369
f 409 370 371
f 409 408 370
f 410 371 372
f 410 409 371
f 372 358 396
f 372 396 410
f 412 411 373
f 412 373 374
f 373 413 375
f 411 413 373
f 375 414 376
f 413 414 375
f 376 415 377
f 414 415 376
f 377 416 378
f 415 416 377
f 378 417 379
f 416 417 378
f 379 418 380
f 417 418 379
f 380 419 381
f 418 419 380
f 381 420 382
f 419 420 381
f 382 421 383
f 420 421 382
f 383 422 384
f 421 422 383
f 384 423 385
f 422 423 384
f 385 424 386
f 423 424 385
f 386 425 387
f 424 425 386
f 388 387 425
f 388 425 426
f 389 412 374
f 389 427 412
f 426 390 388
f 428 390 426
f 391 427 389
f 391 429 427
f 428 392 390
f 430 392 428
f 393 429 391
f 393 431 429
f 430 394 392
f 432 394 430
f 395 431 393
f 395 433 431
f 432 396 394
f 434 396 432
f 435 433 395
f 435 395 397
f 436 397 398
f 436 435 397
f 437 398 399
f 437 436 398
f 438 399 400
f 438 437 399
f 439 400 401
f 439 438 400
f 440 401 402
f 440 439 401
f 441 402 403
f 441 440 402
f 442 403 404
f 442 441 403
f 443 404 405
f 443 442 404
f 444 405 406
f 444 443 405
f 445 406 407
f 445 444 406
f 446 407 408
f 446 445 407
f 447 408 409
f 447 446 408
f 448 409 410
f 448 447 409
f 410 396 434
f 410 434 448
f 450 449 411
f 450 411 412
f 411 451 413
f 449 451 411
f 413 452 414
f 451 452 413
f 414 453 415
f 452 453 414
f 415 454 416
f 453 454 415
f 416 455 417
f 454 455 416
f 417 456 418
f 455 456 417
f 418 457 419
f 456 457 418
f 419 458 420
f 457 458 419
f 420 459 421
f 458 459 420
f 421 460 422
f 459 460 421
f 422 461 423
f 460 461 422
f 423 462 424
f 461 462 423
f 424 463 425
f 462 463 424
f 426 425 463
f 426 463 464
f 427 450 412
f 427 465 450
f 464 428 426
f 466 428 464
f 429 465 427
f 429 467 465
f 466 430 428
f 468 430 466
f 431 467 429
f 431 469 467
f 468 432 430
f 470 432 468
f 433 469 431
f 433 471 469
f 470 434 432
f 472 434 470
f 473 471 433
f 473 433 435
f 474 435 436
f 474 473 435
f 475 436 437
f 475 474 436
f 476 437 438
f 476 475 437
f 477 438 439
f 477 476 438
f 478 439 440
f 478 477 439
f 479 440 441
f 479 478 440
f 480 441 442
f 480 479 441
f 481 442 443
f 481 480 442
f 482 443 444
f 482 481 443
f 483 444 445
f 483 482 444
f 484 445 446
f 484 483 445
f 485 446 447
f 485 484 446
f 486 447 448
f 486 485 447
f 448 434 472
f 448 472 486
f 488 487 449
f 488 449 450
f 449 489 451
f 487 489 449
f 451 490 452
f 489 490 451
f 452 491 453
f 490 491 452
f 453 492 454
f 491 492 453
f 454 493 455
f 492 493 454
f 455 494 456
f 493 494 455
f 456 495 457
f 494 495 456
f 457 496 458
f 495 496 457
f 458 497 459
f 496 497 458
f 459 498 460
f 497 498 459
f 460 499 461
f 498 499 460
f 461 500 462
f 499 500 461
f 462 501 463
f 500 501 462
f 464 463 501
f 464 501 502
f 465 488 450
f 465 503 488
f 502 466 464
f 504 466 502
f 467 503 465
f 467 505 503
f 504 468 466
f 506 468 504
f 469 505 467
f 469 507 505
f 506 470 468
f 508 470 506
f 471 507 469
f 471 509 507
f 508 472 470
f 510 472 508
f 511 509 471
f 511 471 473
f 512 473 474
f 512 511 473
f 513 474 475
f 513 512 474
f 514 475 476
f 514 513 475
f 515 476 477
f 515 514 476
f 516 477 478
f 516 515 477
f 517 478 479
f 517 516 478
f 518 479 480
f 518 517 479
f 519 480 481
f 519 518 480
f 520 481 482
f 520 519 481
f 521 482 483
f 521 520 482
f 522 483 484
f 522 521 483
f 523 484 485
f 523 522 484
f 524 485 486
f 524 523 485
f 486 472 510
f 486 510 524
f 526 525 487
f 526 487 488
f 487 527 489
f 525 527 487
f 489 528 490
f 527 528 489
f 490 529 491
f 528 529 490
f 491 530 492
f 529 530 491
f 492 531 493
f 530 531 492
f 493 532 494
f 531 532 493
f 494 533 495
f 532 533 494
f 495 534 496
f 533 534 495
f 496 535 497
f 534 535 496
f 497 536 498
f 535 536 497
f 498 537 499
f 536 537 498
f 499 538 500
f 537 538 499
f 500 539 501
f 538 539 500
f 502 501 539
f 502 539 540
f 503 526 488
f 503 541 526
f 540 504 502
f 542 504 540
f 505 541 503
f 505 543 541
f 542 506 504
f 544 506 542
f 507 543 505
f 507 545 543
f 544 508 506
f 546 508 544
f 509 545 507
f 509 547 545
f 546 510 508
f 548 510 546
f 549 547 509
f 549 509 511
f 550 511 512
f 550 549 511
f 551 512 513
f 551 550 512
f 552 513 514
f 552 551 513
f 553 514 515
f 553 552 514
f 554 515 516
f 554 553 515
f 555 516 517
f 555 554 516
f 556 517 518
f 556 555 517
f 557 518 519
f 557 556 518
f 558 519 520
f 558 557 519
f 559 520 521
f 559 558 520
f 560 521 522
f 560 559 521
f 561 522 523
f 561 560 522
f 562 523 524
f 562 561 523
f 524 510 548
f 524 548 562
f 564 563 525
f 564 525 526
f 525 565 527
f 563 565 525
f 527 566 528
f 565 566 527
f 528 567 529
f 566 567 528
f 529 568 530
f 567 568 529
f 530 569 531
f 568 569 530
f 531 570 532
f 569 570 531
f 532 571 533
f 570 571 532
f 533 572 534
f 571 572 533
f 534 573 535
f 572 573 534
f 535 574 536
f 573 574 535
f 536 575 537
f 574 575 536
f 537 576 538
f 575 576 537
f 538 577 539
f 576 577 538
f 540 539 577
f 540 577 578
f 541 564 526
f 541 579 564
f 578 542 540
f 580 542 578
f 543 579 541
f 543 581 579
f 580 544 542
f 582 544 580
f 545 581 543
f 545 583 581
f 582 546 544
f 584 546 582
f 547 583 545
f 547 585 583
f 584 548 546
f 586 548 584
f 587 585 547
f 587 547 549
f 588 549 550
f 588 587 549
f 589 550 551
f 589 588 550
f 590 551 552
f 590 589 551
f 591 552 553
f 591 590 552
f 592 553 554
f 592 591 553
f 593 554 555
f 593 592 554
f 594 555 556
f 594 593 555
f 595 556 557
f 595 594 556
f 596 557 558
f 596 595 557
f 597 558 559
f 597 596 558
f 598 559 560
f 598 597 559
f 599 560 561
f 599 598 560
f 600 561 562
f 600 599 561
f 562 548 586
f 562 586 600
f 602 601 563
f 602 563 564
f 563 603 565
f 601 603 563
f 565 604 566
f 603 604 565
f 566 605 567
f 604 605 566
f 567 606 568
f 605 606 567
f 568 607 569
f 606 607 568
f 569 608 570
f 607 608 569
f 570 609 571
f 608 609 570
f 571 610 572
f 609 610 571
f 572 611 573
f 610 611 572
f 573 612 574
f 611 612 573
f 574 613 575
f 612 613 574
f 575 614 576
f 613 614 575
f 576 615 577
f 614 615 576
f 578 577 615
f 578 615 616
f 579 602 564
f 579 617 602
f 616 580 578
f 618 580 616
f 581 617 579
f 581 619 617
f 618 582 580
f 620 582 618
f 583 619 581
f 583 621 619
f 620 584 582
f 622 584 620
f 585 621 583
f 585 623 621
f 622 586 584
f 624 586 622
f 625 623 585
f 625 585 587
f 626 587 588
f 626 625 587
f 627 588 589
f 627 626 588
f 628 589 590
f 628 627 589
f 629 590 591
f 629 628 590
f 630 591 592
f 630 629 591
f 631 592 593
f 631 630 592
f 632 593 594
f 632 631 593
f 633 594 595
f 633 632 594
f 634 595 596
f 634 633 595
f 635 596 597
f 635 634 596
f 636 597 598
f 636 635 597
f 637 598 599
f 637 636 598
f 638 599 600
f 638 637 599
f 600 586 624
f 600 624 638
f 640 639 601
f 640 601 602
f 601 641 603
f 639 641 601
f 603 642 604
f 641 642 603
f 604 643 605
f 642 643 604
f 605 644 606
f 643 644 605
f 606 645 607
f 644 645 606
f 607 646 608
f 645 646 607
f 608 647 609
f 646 647 608
f 609 648 610
f 647 648 609
f 610 649 611
f 648 649 610
f 611 650 612
f 649 650 611
f 612 651 613
f 650 651 612
f 613 652 614
f 651 652 613
f 614 653 615
f 652 653 614
f 616 615 653
f 616 653 654
f 617 640 602
f 617 655 640
f 654 618 616
f 656 618 654
f 619 655 617
f 619 657 655
f 656 620 618
f 658 620 656
f 621 657 619
f 621 659 657
f 658 622 620
f 660 622 658
f 623 659 621
f 623 661 659
f 660 624 622
f 662 624 660
f 663 661 623
f 663 623 625
f 664 625 626
f 664 663 625
f 665 626 627
f 665 664 626
f 666 627 628
f 666 665 627
f 667 628 629
f 667 666 628
f 668 629 630
f 668 667 629
f 669 630 631
f 669 668 630
f 670 631 632
f 670 669 631
f 671 632 633
f 671 670 632
f 672 633 634
f 672 671 633
f 673 634 635
f 673 672 634
f 674 635 636
f 674 673 635
f 675 636 637
f 675 674 636
f 676 637 638
f 676 675 637
f 638 624 662
f 638 662 676
f 678 677 639
f 678 639 640
f 639 679 641
f 677 679 639
f 641 680 642
f 679 680 641
f 642 681 643
f 680 681 642
f 643 682 644
f 681 682 643
f 644 683 645
f 682 683 644
f 645 684 646
f 683 684 645
f 646 685 647
f 684 685 646
f 647 686 648
f 685 686 647
f 648 687 649
f 686 687 648
f 649 688 650
f 687 688 649
f 650 689 651
f 688 689 650
f 651 690 652
f 689 690 651
f 652 691 653
f 690 691 652
f 654 653 691
f 654 691 692
f 655 678 640
f 655 693 678
f 692 656 654
f 694 656 692
f 657 693 655
f 657 695 693
f 694 658 656
f 696 658 694
f 659 695 657
f 659 697 695
f 696 660 658
f 698 660 696
f 661 697 659
f 661 699 697
f 698 662 660
f 700 662 698
f 701 699 661
f 701 661 663
f 702 663 664
f 702 701 663
f 703 664 665
f 703 702 664
f 704 665 666
f 704 703 665
f 705 666 667
f 705 704 666
f 706 667 668
f 706 705 667
f 707 668 669
f 707 706 668
f 708 669 670
f 708 707 669
f 709 670 671
f 709 708 670
f 710 671 672
f 710 709 671
f 711 672 673
f 711 710 672
f 712 673 674
f 712 711 673
f 713 674 675
f 713 712 674
f 714 675 676
f 714 713 675
f 676 662 700
f 676 700 714
f 716 715 677
f 716 677 678
f 677 717 679
f 715 717 677
f 679 718 680
f 717 718 679
f 680 719 681
f 718 719 680
f 681 720 682
f 719 720 681
f 682 721 683
f 720 721 682
f 683 722 684
f 721 722 683
f 684 723 685
f 722 723 684
f 685 724 686
f 723 724 685
f 686 725 687
f 724 725 686
f 687 726 688
f 725 726 687
f 688 727 689
f 726 727 688
f 689 728 690
f 727 728 689
f 690 729 691
f 728 729 690
f 692 691 729
f 692 729 730
f 693 716 678
f 693 731 716
f 730 694 692
f 732 694 730
f 695 731 693
f 695 733 731
f 732 696 694
f 734 696 732
f 697 733 695
f 697 735 733
f 734 698 696
f 736 698 734
f 699 735 697
f 699 737 735
f 736 700 698
f 738 700 736
f 739 737 699
f 739 699 701
f 740 701 702
f 740 739 701
f 741 702 703
f 741 740 702
f 742 703 704
f 742 741 703
f 743 704 705
f 743 742 704
f 744 705 706
f 744 743 705
f 745 706 707
f 745 744 706
f 746 707 708
f 746 745 707
f 747 708 709
f 747 746 708
f 748 709 710
f 748 747 709
f 749 710 711
f 749 748 710
f 750 711 712
f 750 749 711
f 751 712 713
f 751 750 712
f 752 713 714
f 752 751 713
f 714 700 738
f 714 738 752
f 716 753 715
f 715 753 754
f 755 715 754
f 717 715 755
f 717 756 718
f 755 756 717
f 718 757 719
f 756 757 718
f 719 758 720
f 757 758 719
f 720 759 721
f 758 759 720
f 721 760 722
f 759 760 721
f 722 761 723
f 760 761 722
f 723 762 724
f 761 762 723
f 724 763 725
f 762 763 724
f 725 764 726
f 763 764 725
f 726 765 727
f 764 765 726
f 727 766 728
f 765 766 727
f 766 768 767
f 729 766 767
f 728 766 729
f 767 730 729
f 770 769 753
f 716 770 753
f 731 770 716
f 753 769 754
f 767 768 771
f 771 768 772
f 771 732 730
f 771 730 767
f 733 770 731
f 733 773 770
f 771 772 774
f 774 772 775
f 774 734 732
f 774 732 771
f 735 773 733
f 735 776 773
f 774 775 777
f 777 775 778
f 777 736 734
f 777 734 774
f 737 780 779
f 776 737 779
f 735 737 776
f 780 781 779
f 777 778 782
f 782 778 783
f 782 738 736
f 782 736 777
f 739 780 737
f 784 781 780
f 739 784 780
f 740 784 739
f 785 740 741
f 785 784 740
f 786 741 742
f 786 785 741
f 787 742 743
f 787 786 742
f 788 743 744
f 788 787 743
f 789 744 745
f 789 788 744
f 790 745 746
f 790 789 745
f 791 746 747
f 791 790 746
f 792 747 748
f 792 791 747
f 793 748 749
f 793 792 748
f 794 749 750
f 794 793 749
f 795 750 751
f 795 794 750
f 752 782 783
f 795 752 783
f 751 752 795
f 782 752 738
f 754 796 755
f 797 756 755
f 797 755 796
f 798 757 756
f 798 756 797
f 799 758 757
f 799 757 798
f 800 759 758
f 800 758 799
f 801 760 759
f 801 759 800
f 802 761 760
f 802 760 801
f 803 762 761
f 803 761 802
f 804 763 762
f 804 762 803
f 805 764 763
f 805 763 804
f 806 765 764
f 806 764 805
f 807 766 765
f 807 765 806
f 807 768 766
f 770 808 769
f 796 754 769
f 808 796 769
f 809 796 808
f 796 810 797
f 796 809 810
f 797 811 798
f 797 810 811
f 798 812 799
f 798 811 812
f 799 813 800
f 799 812 813
f 800 814 801
f 800 813 814
f 801 815 802
f 801 814 815
f 802 816 803
f 802 815 816
f 803 817 804
f 803 816 817
f 804 818 805
f 804 817 818
f 805 819 806
f 805 818 819
f 806 820 807
f 806 819 820
f 820 772 768
f 820 768 807
f 773 821 808
f 773 808 770
f 808 822 809
f 808 821 822
f 809 823 810
f 809 822 823
f 810 824 811
f 810 823 824
f 811 825 812
f 811 824 825
f 812 826 813
f 812 825 826
f 813 827 814
f 813 826 827
f 814 828 815
f 814 827 828
f 815 829 816
f 815 828 829
f 816 830 817
f 816 829 830
f 817 831 818
f 817 830 831
f 818 832 819
f 818 831 832
f 819 833 820
f 819 832 833
f 833 775 772
f 833 772 820
f 776 834 821
f 776 821 773
f 821 835 822
f 821 834 835
f 822 836 823
f 822 835 836
f 823 837 824
f 823 836 837
f 824 838 825
f 824 837 838
f 825 839 826
f 825 838 839
f 826 840 827
f 826 839 840
f 827 841 828
f 827 840 841
f 828 842 829
f 828 841 842
f 829 843 830
f 829 842 843
f 830 844 831
f 830 843 844
f 831 845 832
f 831 844 845
f 832 846 833
f 832 845 846
f 846 778 775
f 846 775 833
f 779 834 776
f 834 779 781
f 847 834 781
f 835 834 847
f 835 848 836
f 835 847 848
f 836 849 837
f 836 848 849
f 837 850 838
f 837 849 850
f 838 851 839
f 838 850 851
f 839 852 840
f 839 851 852
f 840 853 841
f 840 852 853
f 841 854 842
f 841 853 854
f 842 855 843
f 842 854 855
f 843 856 844
f 843 855 856
f 844 857 845
f 844 856 857
f 845 858 846
f 845 857 858
f 858 783 778
f 858 778 846
f 784 847 781
f 847 784 785
f 847 785 848
f 848 785 786
f 848 786 849
f 849 786 787
f 849 787 850
f 850 787 788
f 850 788 851
f 851 788 789
f 851 789 852
f 852 789 790
f 852 790 853
f 853 790 791
f 853 791 854
f 854 791 792
f 854 792 855
f 855 792 793
f 855 793 856
f 856 793 794
f 856 794 857
f 857 794 795
f 857 795 858
f 858 795 783

