# https://github.com/mikedh/trimesh
v -0.02904568 0.00370282 -0.00671109
v -0.02782613 0.00165881 -0.00748045
v -0.02721569 0.00406525 -0.00939773
v -0.02896104 0.00443052 -0.00337113
v -0.02778429 0.00146080 -0.00396618
v -0.02738045 0.00316139 -0.00054884
v -0.02783252 0.00657204 -0.00624576
v -0.02739348 0.00603481 -0.00172022
v -0.02417956 -0.00599282 -0.00153477
v -0.02134198 -0.00889559 -0.00207269
v -0.02257172 -0.00618644 -0.00553089
v -0.02400618 -0.00595070 0.00285696
v -0.02173312 -0.00862686 0.00260448
v -0.02173973 -0.00681746 0.00552070
v -0.02500579 -0.00130003 -0.00722710
v -0.02181044 -0.00366974 -0.00868679
v -0.02256650 -0.00050607 -0.01101821
v -0.02569332 -0.00072251 -0.00121900
v -0.02459317 -0.00128614 0.00336172
v -0.02254452 -0.00308217 0.00588426
v -0.02457313 0.00385277 -0.01208819
v -0.02154783 0.00104215 -0.01368095
v -0.02184837 0.00436530 -0.01502263
v -0.02555073 0.00470079 0.00259946
v -0.02281509 0.00087853 0.00766288
v -0.02414330 0.00438511 0.00795850
v -0.02108253 0.00341943 0.01053212
v -0.02410033 0.00832706 -0.01347647
v -0.02093266 0.00965311 -0.01516041
v -0.02510314 0.00873354 -0.00948223
v -0.02495451 0.00893579 -0.00289630
v -0.02424704 0.00935284 0.00250630
v -0.02419820 0.00886192 0.00718410
v -0.02128534 0.00860796 0.01048222
v -0.02242165 0.01188132 -0.01181440
v -0.02217177 0.01215344 -0.00657624
v -0.02216433 0.01202694 -0.00092063
v -0.02242150 0.01213044 0.00456784
v -0.02179325 0.01221864 0.00865517
v -0.01858737 -0.01591919 -0.00274279
v -0.01559108 -0.01905802 -0.00207368
v -0.01719903 -0.01678974 -0.00501787
v -0.01629212 -0.01758297 0.00028940
v -0.01905683 -0.01231166 -0.00724749
v -0.01549084 -0.01441765 -0.00765370
v -0.01701263 -0.01123044 -0.01047972
v -0.01938126 -0.01142479 -0.00272631
v -0.01697449 -0.01360412 0.00065679
v -0.01874259 -0.00759206 -0.01201614
v -0.01525602 -0.00890548 -0.01322106
v -0.01677651 -0.00543325 -0.01481239
v -0.02043955 -0.00727788 -0.00755440
v -0.01814910 -0.01028497 0.00205236
v -0.01954398 -0.00506680 0.00905254
v -0.01678303 -0.00924242 0.00763417
v -0.01630734 -0.00688860 0.01127297
v -0.01980494 -0.00289343 -0.01250239
v -0.01720853 -0.00098460 -0.01534607
v -0.02040466 -0.00076964 0.00953356
v -0.01626629 -0.00454018 0.01379246
v -0.01857182 -0.00211533 0.01245147
v -0.01532013 -0.00085979 0.01632430
v -0.01715934 0.00458758 -0.01632148
v -0.01714814 0.00148744 0.01306905
v -0.01794428 0.00505187 0.01181679
v -0.01624964 0.01033492 -0.01645286
v -0.01683039 0.00861223 0.01188042
v -0.01982449 0.01478345 -0.01264989
v -0.01682647 0.01407743 -0.01490759
v -0.02028692 0.01552530 -0.00782679
v -0.02025911 0.01481776 -0.00308339
v -0.01965307 0.01557794 0.00171802
v -0.01947584 0.01485808 0.00690855
v -0.01785190 0.01329738 0.01091025
v -0.01714868 0.01743442 -0.01243275
v -0.01547449 0.02029122 -0.01008610
v -0.01883347 0.01904653 -0.00869896
v -0.01887471 0.01921783 -0.00311584
v -0.01695073 0.01938071 0.00038986
v -0.01589783 0.01727725 0.00415448
v -0.01580288 0.01656818 0.00940741
v -0.01638930 0.02206793 -0.00603208
v -0.01584847 0.02181364 -0.00220447
v -0.01211593 -0.02031649 -0.00178752
v -0.01268077 -0.01803797 -0.00488831
v -0.01429557 -0.01630035 0.00418284
v -0.01192546 -0.02024075 0.00240338
v -0.01317367 -0.01619882 0.00849063
v -0.01171081 -0.01897268 0.00737766
v -0.01055634 -0.01737978 0.01012211
v -0.01144496 -0.01462667 -0.00831748
v -0.01305632 -0.01191954 -0.01066017
v -0.01531332 -0.01188988 0.00416758
v -0.01423313 -0.01297252 0.00729120
v -0.01138951 -0.01309579 0.01106812
v -0.01185112 -0.00976966 -0.01304642
v -0.01209706 -0.00607018 -0.01554761
v -0.01433241 -0.00662230 0.01350795
v -0.01158259 -0.00922992 0.01352547
v -0.01162502 -0.00671344 0.01626107
v -0.01282335 -0.00031813 -0.01668630
v -0.01356470 0.00000088 -0.00183792
v -0.01193483 -0.00163012 -0.00540593
v -0.01182064 -0.00348988 -0.00266068
v -0.01145423 -0.00257997 -0.00014765
v -0.01328687 -0.00129323 0.01910083
v -0.01289064 -0.00372163 0.01810030
v -0.01124955 -0.00215978 0.02066229
v -0.01367767 0.00372068 -0.01799403
v -0.01090101 0.00105879 -0.01886971
v -0.01120397 0.00445057 -0.02032069
v -0.01372097 0.00340467 -0.00631293
v -0.01032123 0.00470168 -0.00961756
v -0.01119912 0.00083723 -0.00846481
v -0.01487755 0.00484053 -0.00147759
v -0.01218372 0.00068693 0.00243355
v -0.01372206 0.00445468 0.00271159
v -0.01089871 0.00446577 0.00541546
v -0.01429245 0.00550890 0.01362599
v -0.01267348 0.00325809 0.01633256
v -0.01187266 0.00069601 0.01946174
v -0.01426246 0.00784508 -0.01844393
v -0.01025160 0.00886514 -0.02034503
v -0.01241259 0.00722175 -0.00729605
v -0.01391437 0.00833798 -0.00337169
v -0.01125802 0.01006755 -0.00570973
v -0.01385368 0.00908067 0.00171831
v -0.01191083 0.00863845 0.00502917
v -0.01400017 0.01078769 0.01374203
v -0.01079914 0.00886456 0.01637447
v -0.01222920 0.01139697 -0.01807141
v -0.01096029 0.01503103 -0.01574820
v -0.01082930 0.01168027 -0.00145113
v -0.01083912 0.01142119 0.00341189
v -0.01426676 0.01505358 0.01309723
v -0.01144015 0.01385869 0.01531794
v -0.01325266 0.01778603 -0.01311255
v -0.01114947 0.02058894 -0.01126095
v -0.01314314 0.01994471 0.00069735
v -0.01161876 0.01815708 0.00422084
v -0.01134874 0.01774679 0.00872411
v -0.01133221 0.01664665 0.01317597
v -0.01157840 0.02231626 -0.00835609
v -0.01164861 0.02255940 -0.00320312
v -0.00888733 -0.02181413 -0.00167663
v -0.00583059 -0.02465171 -0.00250908
v -0.00647282 -0.02182407 -0.00523172
v -0.00827526 -0.02248040 0.00358905
v -0.00633613 -0.02522942 0.00171328
v -0.00480079 -0.02361996 0.00574144
v -0.00765063 -0.01716713 -0.01176787
v -0.00628554 -0.01931713 -0.01258141
v -0.00605398 -0.01630139 -0.01519927
v -0.00872886 -0.01777085 -0.00751331
v -0.00622911 -0.02023010 -0.00924683
v -0.00705782 -0.02012653 0.00831434
v -0.00657035 -0.01704084 0.01184382
v -0.00917912 -0.01220488 -0.01293528
v -0.00662023 -0.01127442 -0.01657457
v -0.00565407 -0.01467900 0.01427813
v -0.00893462 -0.01183901 0.01361688
v -0.00616036 -0.01196383 0.01626620
v -0.00819554 -0.00732654 -0.01749628
v -0.00551885 -0.00945355 -0.01895832
v -0.00565071 -0.00619169 -0.02035366
v -0.00914169 -0.00560037 -0.00193385
v -0.00635075 -0.00693304 -0.00519647
v -0.00566288 -0.00934809 -0.00131464
v -0.00581769 -0.00875874 0.00262690
v -0.00828485 -0.00567295 0.00388059
v -0.00577372 -0.00735761 0.00610518
v -0.00918680 -0.00603117 0.02075402
v -0.00666013 -0.00951318 0.01906442
v -0.00788905 -0.00573743 0.02473235
v -0.00625960 -0.00851174 0.02347783
v -0.00522221 -0.00693375 0.02631437
v -0.00921264 -0.00280551 -0.01851175
v -0.00642675 -0.00123015 -0.02043567
v -0.00884741 -0.00276725 -0.00710663
v -0.00690658 -0.00030470 -0.01002956
v -0.00636845 -0.00409832 -0.00785576
v -0.00999043 -0.00124363 0.00358030
v -0.00567445 -0.00479615 0.00876349
v -0.00836566 -0.00110735 0.00775392
v -0.00588766 -0.00137959 0.01126131
v -0.00909306 -0.00062820 0.02341480
v -0.00582182 -0.00271901 0.02691697
v -0.00641732 0.00471610 -0.02087936
v -0.00551932 0.00525564 -0.01111746
v -0.00853297 0.00388715 0.00763008
v -0.00660714 0.00263122 0.01100391
v -0.00987831 0.00438418 0.01972162
v -0.00826779 0.00517294 0.02323574
v -0.00592434 0.00251426 0.02645913
v -0.00549968 0.00942007 -0.02055701
v -0.00963985 0.00881556 -0.00851747
v -0.00618471 0.00891225 -0.00976321
v -0.00484309 0.00677955 0.00944100
v -0.00782587 0.00898116 0.00607023
v -0.00831688 0.00920232 0.01938368
v -0.00656293 0.00883081 0.02171742
v -0.00499167 0.00659597 0.02457582
v -0.00752724 0.01214642 -0.01843843
v -0.00537278 0.01480208 -0.01643872
v -0.00750054 0.01140672 -0.00667774
v -0.00506228 0.01296764 -0.00211070
v -0.00643116 0.01183702 0.00260671
v -0.00757767 0.01406896 0.01638903
v -0.00482791 0.01195951 0.01898303
v -0.00923176 0.01942404 -0.01348330
v -0.00532126 0.01904162 -0.01492668
v -0.00989631 0.02108522 0.00197568
v -0.00875681 0.02059241 0.00682159
v -0.00592941 0.02019427 0.01054475
v -0.00576805 0.01741759 0.01318033
v -0.00647771 0.02206588 -0.01158828
v -0.00721203 0.02345691 -0.00696769
v -0.00839868 0.02445411 -0.00219609
v -0.00478386 0.02555080 -0.00498110
v -0.00822733 0.02468753 0.00262481
v -0.00686728 0.02467233 0.00618725
v -0.00558029 0.02303319 0.00895985
v -0.00588056 0.02735330 -0.00088876
v -0.00526009 0.02747978 0.00402759
v -0.00274983 -0.02767320 -0.01176938
v 0.00068730 -0.03029085 -0.01275768
v -0.00103018 -0.02718071 -0.01500161
v -0.00294506 -0.02833021 -0.00691673
v -0.00100461 -0.03034787 -0.00867042
v -0.00368605 -0.02779843 -0.00146867
v -0.00046980 -0.02998269 -0.00261950
v -0.00380042 -0.02759605 0.00344510
v -0.00143876 -0.02952590 0.00242725
v -0.00056911 -0.02651466 0.00509234
v -0.00400563 -0.02219857 -0.01349266
v -0.00048517 -0.02319951 -0.01639269
v -0.00444084 -0.02438736 -0.00739051
v -0.00024078 -0.02258703 0.00663592
v -0.00312284 -0.01827873 -0.01768559
v 0.00052776 -0.01985507 -0.01863694
v -0.00106049 -0.01629895 -0.02016046
v -0.00096609 -0.02062621 0.00914279
v -0.00337214 -0.01741974 0.01383256
v -0.00179256 -0.01911304 0.01258602
v 0.00006912 -0.01718257 0.01590738
v -0.00402886 -0.01342515 -0.01859213
v -0.00123319 -0.01170370 -0.02083645
v -0.00316785 -0.01110794 -0.00256631
v -0.00137769 -0.01171252 -0.00533026
v 0.00060283 -0.01417728 -0.00275003
v -0.00021433 -0.01283496 0.00099196
v -0.00297978 -0.01179191 0.01988567
v -0.00168762 -0.01414417 0.01814655
v 0.00090071 -0.01213603 0.02160176
v -0.00017827 -0.00595269 -0.02099871
v -0.00363266 -0.00681846 -0.00764884
v -0.00084830 -0.00688432 -0.01033948
v -0.00094609 -0.00967521 -0.00755376
v -0.00153250 -0.01053567 0.00294454
v -0.00194674 -0.00867051 0.00724140
v -0.00372637 -0.00692361 0.00860056
v 0.00000987 -0.00662639 0.01091676
v -0.00212405 -0.00957953 0.02384115
v -0.00093128 -0.00617006 0.02694236
v -0.00073406 -0.00406909 -0.01788933
v -0.00370360 -0.00016811 -0.01753919
v -0.00124597 -0.00406970 -0.01430538
v -0.00329306 -0.00224389 -0.01237780
v -0.00186465 -0.00355670 0.01323492
v -0.00349910 0.00030339 0.01421996
v 0.00034139 -0.00142001 0.01592571
v -0.00098636 -0.00132300 0.02760934
v -0.00330404 0.00456696 -0.01861152
v -0.00372432 0.00317347 -0.01413397
v -0.00391169 0.00428039 0.01337610
v -0.00062762 0.00256784 0.01571237
v -0.00093814 0.00351454 0.02681017
v -0.00064714 0.00606246 -0.01786012
v -0.00060315 0.00831526 -0.02034377
v -0.00141022 0.00611881 -0.01369213
v -0.00031751 0.00851734 -0.01052220
v -0.00011098 0.00774245 0.00851717
v -0.00223756 0.00966979 0.00591242
v -0.00045182 0.00593951 0.01235563
v -0.00235915 0.00966022 0.02168926
v 0.00033991 0.00695092 0.02454722
v -0.00208614 0.01204778 -0.01840559
v -0.00081572 0.01539286 -0.01631355
v -0.00169803 0.01238845 -0.00670529
v -0.00249489 0.01470740 -0.00325725
v -0.00011001 0.01471451 -0.00394926
v -0.00172500 0.01466506 -0.00079509
v -0.00010748 0.01230445 0.00200735
v -0.00219640 0.01485002 0.01628110
v 0.00025883 0.01227982 0.01885925
v -0.00003118 0.01887118 -0.01489411
v -0.00094328 0.01580428 -0.00236785
v -0.00155995 0.01996648 0.01187588
v 0.00041770 0.01732063 0.01366196
v -0.00135183 0.02187224 -0.01262010
v -0.00221178 0.02350105 -0.00864107
v 0.00034691 0.02550900 -0.00535712
v -0.00407532 0.02600576 0.00784041
v -0.00108736 0.02384922 0.01047210
v -0.00103959 0.02773964 -0.00196544
v -0.00103345 0.02854886 0.00299617
v -0.00051722 0.02752737 0.00789656
v 0.00461773 -0.03008021 -0.01219382
v 0.00287808 -0.02783948 -0.01513406
v 0.00286931 -0.03030887 -0.00746434
v 0.00256119 -0.02867628 -0.00228620
v 0.00451926 -0.02821688 -0.00479197
v 0.00141082 -0.02826096 0.00200899
v 0.00478034 -0.02265892 -0.01566674
v 0.00512741 -0.02582335 -0.00178753
v 0.00352339 -0.02527766 0.00345711
v 0.00394313 -0.02275526 0.00525615
v 0.00472946 -0.01951052 -0.01817344
v 0.00357950 -0.01651197 -0.02049323
v 0.00498623 -0.02047229 0.00845474
v 0.00331433 -0.01940496 0.01314527
v 0.00600006 -0.01663558 0.01656879
v 0.00379459 -0.01146836 -0.02141021
v 0.00121171 -0.01166861 -0.00795727
v 0.00546325 -0.01110242 -0.01008606
v 0.00416383 -0.01399957 -0.00624398
v 0.00449665 -0.01449111 -0.00150594
v 0.00327374 -0.01386779 0.00212534
v 0.00223994 -0.01199673 0.00424481
v 0.00468924 -0.01229273 0.00517545
v 0.00304973 -0.01441381 0.01918364
v 0.00420644 -0.01205351 0.02144487
v 0.00542284 -0.00758992 -0.02143565
v 0.00186214 -0.00771108 -0.01301123
v 0.00358326 -0.00592874 -0.01531288
v 0.00547216 -0.00850474 -0.01295948
v 0.00410648 -0.00961623 0.00731839
v 0.00484832 -0.00616151 0.01156313
v 0.00416773 -0.00944012 0.02371782
v 0.00401977 -0.00526304 0.02657653
v 0.00190932 -0.00173244 -0.01743106
v 0.00452130 -0.00181484 -0.02087796
v 0.00529664 -0.00428368 -0.01288719
v 0.00271898 -0.00023544 -0.01306169
v 0.00508745 -0.00149605 -0.01024685
v 0.00313600 -0.00388671 0.01432180
v 0.00343616 -0.00005835 0.01573496
v 0.00399073 -0.00012979 0.02680666
v 0.00162579 0.00376159 -0.01789242
v 0.00422703 0.00447962 -0.02081883
v 0.00117143 0.00395751 -0.01374343
v 0.00427320 0.00419571 -0.01042879
v 0.00222060 0.00355057 0.01456440
v 0.00507319 0.00196291 0.01332184
v 0.00379567 0.00468358 0.01165999
v 0.00353800 0.00415668 0.02615437
v 0.00592337 0.00970329 -0.02085588
v 0.00535864 0.00976095 -0.00988867
v 0.00423976 0.00633696 0.00879545
v 0.00416143 0.00905696 0.00596267
v 0.00342844 0.00904787 0.02167172
v 0.00421097 0.00640444 0.02450463
v 0.00300842 0.01244880 -0.01850456
v 0.00414405 0.01573271 -0.01646090
v 0.00471368 0.01187437 -0.00732073
v 0.00065987 0.01467216 -0.00148709
v 0.00402691 0.01289468 -0.00203040
v 0.00564864 0.01149702 0.00340090
v 0.00388746 0.01419128 0.01625451
v 0.00487598 0.01147353 0.01853364
v 0.00518303 0.01785510 -0.01332275
v 0.00195700 0.02039788 -0.01241468
v 0.00498499 0.01946097 -0.00991417
v 0.00334104 0.02065514 0.01178368
v 0.00587459 0.01721825 0.01376283
v 0.00393004 0.02223335 -0.00781608
v 0.00483905 0.02502472 -0.00447339
v 0.00434499 0.02490950 0.01034076
v 0.00332991 0.02707404 -0.00261794
v 0.00380573 0.02772842 0.00162951
v 0.00400139 0.02744917 0.00694814
v 0.00609552 -0.02725834 -0.01328350
v 0.00676900 -0.02728446 -0.00869400
v 0.00757206 -0.02396125 -0.01247306
v 0.01059279 -0.02240469 -0.01002625
v 0.00876394 -0.02434793 -0.00657352
v 0.00772316 -0.02281706 -0.00277167
v 0.01035637 -0.02217831 -0.00566441
v 0.00661895 -0.02241041 0.00158860
v 0.00757721 -0.01692806 -0.01886428
v 0.00978044 -0.01745150 -0.01571629
v 0.00973164 -0.01996752 -0.01310510
v 0.01078984 -0.02059947 -0.00173995
v 0.00955265 -0.02035934 0.00434186
v 0.01081793 -0.02005597 0.00931037
v 0.00876288 -0.01948798 0.01325579
v 0.01078866 -0.01749134 0.01590570
v 0.01077492 -0.01453185 -0.01804273
v 0.00841850 -0.01256128 -0.02043643
v 0.00683422 -0.01249928 -0.00761685
v 0.00737877 -0.01253003 -0.00375568
v 0.00687259 -0.01214641 0.00241891
v 0.00657582 -0.01233558 0.01953049
v 0.00995627 -0.01363010 0.01687438
v 0.00940912 -0.00681709 -0.02065217
v 0.00640948 -0.00695098 -0.01330427
v 0.00852209 -0.00756638 -0.01057501
v 0.00971221 -0.00968449 -0.00687793
v 0.01032657 -0.00965685 -0.00112326
v 0.00924248 -0.00897706 0.00422544
v 0.00749214 -0.00625790 0.00871392
v 0.01016830 -0.00524990 0.00555635
v 0.00984596 -0.00939552 0.01912733
v 0.00731726 -0.00694474 0.02392257
v 0.00988809 -0.00530755 0.02161259
v 0.00923895 -0.00140530 -0.02069858
v 0.00737920 0.00008551 -0.00756928
v 0.00870225 -0.00400691 -0.00856748
v 0.01044374 -0.00191372 -0.00559204
v 0.00821724 -0.00222275 0.00855897
v 0.01020700 -0.00005898 0.00589156
v 0.00636669 -0.00199572 0.01247459
v 0.00742817 -0.00284744 0.02474266
v 0.00992016 -0.00021306 0.02189844
v 0.00919426 0.00397852 -0.02072382
v 0.00785514 0.00448477 -0.00817021
v 0.01004059 0.00244900 -0.00530710
v 0.00714273 0.00252097 0.00935002
v 0.00939823 0.00555980 0.00596177
v 0.00690073 0.00376639 0.02386408
v 0.00955162 0.00444120 0.02100738
v 0.00979394 0.00867527 -0.02064968
v 0.00872558 0.00844384 -0.00940868
v 0.01047015 0.00653339 -0.00713424
v 0.00918481 0.00959760 0.00499674
v 0.00757240 0.00824474 0.01998115
v 0.01001538 0.01051393 0.01678839
v 0.00985708 0.00681203 0.01904628
v 0.00685860 0.01410211 -0.01901777
v 0.00954767 0.01336435 -0.02016837
v 0.00910249 0.01136689 -0.00805332
v 0.00975720 0.01184311 -0.00369502
v 0.00979287 0.01138092 0.00176722
v 0.00913186 0.01462097 0.01572004
v 0.00935738 0.01643189 -0.01693371
v 0.01060045 0.01730223 -0.01218705
v 0.00877273 0.01805985 -0.00873132
v 0.00698372 0.01969259 -0.00746137
v 0.01062925 0.02016436 -0.00532144
v 0.00864098 0.02085564 0.01127629
v 0.01131598 0.01732208 0.01397571
v 0.00954244 0.02295930 -0.00230456
v 0.00686470 0.02546492 -0.00085984
v 0.01056988 0.02338063 0.00311181
v 0.00732169 0.02548019 0.00441337
v 0.01060011 0.02272399 0.00794028
v 0.00736640 0.02470939 0.00863721
v 0.01138179 -0.02263234 -0.00800786
v 0.01242602 -0.01718206 -0.01304223
v 0.01525900 -0.01718722 -0.01048801
v 0.01482524 -0.01996118 -0.00669503
v 0.01604155 -0.02004382 -0.00173833
v 0.01446985 -0.01996871 0.00214486
v 0.01543697 -0.01958919 0.00796153
v 0.01384817 -0.01922366 0.01337222
v 0.01404136 -0.01614012 0.01531179
v 0.01242205 -0.01062923 -0.01840899
v 0.01408152 -0.01273831 -0.01563153
v 0.01523904 -0.01456932 -0.01300240
v 0.01311188 -0.01223847 0.01462653
v 0.01516560 -0.01196561 0.01183381
v 0.01560232 -0.01424541 0.01291268
v 0.01268653 -0.00559535 -0.01844674
v 0.01530153 -0.00803698 -0.01563362
v 0.01166392 -0.00561764 -0.00643570
v 0.01242986 -0.00621556 -0.00234357
v 0.01182453 -0.00693526 0.00192627
v 0.01509236 -0.00934130 0.01359653
v 0.01239317 -0.00611897 0.01780085
v 0.01462876 -0.00592851 0.01510309
v 0.01250184 -0.00028560 -0.01845267
v 0.01516535 -0.00275666 -0.01560643
v 0.01242872 -0.00088963 -0.00221953
v 0.01231336 -0.00274880 0.00244228
v 0.01337630 -0.00196853 0.01531878
v 0.01535545 -0.00212993 0.01205576
v 0.01492117 -0.00399001 0.01360793
v 0.01164358 -0.00221640 0.01918069
v 0.01239858 0.00517880 -0.01853709
v 0.01505332 0.00262322 -0.01562227
v 0.01247946 0.00557927 -0.00250091
v 0.01237914 0.00283803 0.00258901
v 0.01552083 0.00128010 0.01308993
v 0.01199030 0.00358961 0.01779059
v 0.01456990 0.00470843 0.01509374
v 0.01242991 0.01080249 -0.01868173
v 0.01505290 0.00816071 -0.01576045
v 0.01176099 0.00948716 -0.00628839
v 0.01245630 0.00974569 -0.00140655
v 0.01217007 0.00804533 0.00270881
v 0.01338797 0.00812651 0.01467735
v 0.01574393 0.00932516 0.01229337
v 0.01501587 0.00662776 0.01369049
v 0.01252858 0.01502497 -0.01792728
v 0.01522899 0.01341408 -0.01556083
v 0.01444003 0.01181278 0.01406800
v 0.01372805 0.01452318 0.01520767
v 0.01477078 0.01671746 -0.01335256
v 0.01399655 0.01795300 -0.00816230
v 0.01669990 0.02013926 -0.00481325
v 0.01380261 0.02009016 0.01106827
v 0.01540594 0.01748766 0.01324361
v 0.01533134 0.02223362 -0.00143429
v 0.01452102 0.02286123 0.00243318
v 0.01565432 0.02207137 0.00700476
v 0.01803745 -0.01727743 -0.00790097
v 0.02008031 -0.01779033 -0.00558215
v 0.02021217 -0.01931008 -0.00213224
v 0.01920376 -0.01940907 0.00322559
v 0.01855249 -0.01756338 0.00808685
v 0.02085438 -0.01598989 0.00542448
v 0.01683036 -0.01718923 0.01228166
v 0.01770342 -0.01040547 -0.01299274
v 0.01950974 -0.01262655 -0.01044604
v 0.02051370 -0.01532168 -0.00754857
v 0.01801064 -0.01326441 0.00954777
v 0.02111978 -0.01165408 0.00653428
v 0.01792191 -0.00542547 -0.01297965
v 0.02070241 -0.00798416 -0.01047780
v 0.01963761 -0.00901164 0.00962860
v 0.01715757 -0.00586829 0.01220161
v 0.02016322 -0.00587773 0.00982469
v 0.01774171 -0.00008911 -0.01296111
v 0.02056170 -0.00271324 -0.01047267
v 0.01833889 -0.00215850 0.00963560
v 0.02092678 -0.00048381 0.00692236
v 0.02097185 -0.00350760 0.00761593
v 0.01772658 0.00529141 -0.01302198
v 0.02048667 0.00260329 -0.01045829
v 0.01951355 0.00158953 0.00960456
v 0.01715306 0.00473797 0.01234409
v 0.02011939 0.00460869 0.00996378
v 0.01788044 0.01072468 -0.01308467
v 0.02056458 0.00798905 -0.01053574
v 0.01836245 0.00901875 0.00975543
v 0.02050757 0.01102328 0.00612371
v 0.02090492 0.00702218 0.00775735
v 0.01801528 0.01489307 -0.01237829
v 0.02072007 0.01316240 -0.01018143
v 0.01862179 0.01404409 0.00842666
v 0.02066751 0.01625126 0.00583475
v 0.01682523 0.01422954 0.01213441
v 0.01916050 0.01721505 -0.00852307
v 0.02091803 0.01956051 -0.00499318
v 0.01775827 0.01863783 0.00943115
v 0.02009098 0.02043708 0.00601619
v 0.01974846 0.02190061 -0.00214416
v 0.01971863 0.02226328 0.00245968
v 0.02280478 -0.01595561 -0.00266834
v 0.02243261 -0.01766381 0.00187902
v 0.02266597 -0.01130239 -0.00674678
v 0.02351020 -0.01133944 -0.00159669
v 0.02298584 -0.01268911 0.00303188
v 0.02270075 -0.00554173 -0.00727934
v 0.02337642 -0.00667026 -0.00241670
v 0.02337572 -0.00747274 0.00231250
v 0.02223820 -0.00714575 0.00680650
v 0.02260686 -0.00018811 -0.00722233
v 0.02331171 -0.00126182 -0.00241497
v 0.02282515 -0.00189240 0.00374382
v 0.02263376 0.00514893 -0.00723429
v 0.02331685 0.00404197 -0.00236327
v 0.02329592 0.00335137 0.00235686
v 0.02215839 0.00354343 0.00685474
v 0.02281799 0.01057599 -0.00724301
v 0.02338004 0.00934013 -0.00241200
v 0.02271139 0.00803469 0.00336360
v 0.02264141 0.01580143 -0.00652844
v 0.02358632 0.01484249 -0.00241298
v 0.02272639 0.01354759 0.00240082
v 0.02270266 0.01974673 -0.00196637
v 0.02262097 0.01879885 0.00249462
f 3 2 1
f 5 4 1
f 5 1 2
f 6 4 5
f 7 3 1
f 7 1 4
f 7 4 8
f 8 4 6
f 11 10 9
f 13 12 9
f 13 9 10
f 14 12 13
f 17 16 15
f 15 16 11
f 9 15 11
f 18 15 9
f 19 9 12
f 18 9 19
f 12 14 20
f 12 20 19
f 23 22 21
f 21 22 17
f 21 17 15
f 3 21 15
f 2 3 15
f 2 15 5
f 5 15 18
f 5 18 6
f 18 24 6
f 18 19 24
f 19 20 25
f 26 19 25
f 24 19 26
f 27 26 25
f 23 21 28
f 23 28 29
f 7 30 3
f 30 21 3
f 30 28 21
f 8 31 7
f 7 31 30
f 6 24 8
f 24 31 8
f 24 32 31
f 33 24 26
f 32 24 33
f 26 27 34
f 26 34 33
f 35 29 28
f 35 28 30
f 35 30 36
f 36 30 31
f 36 31 37
f 37 31 32
f 37 32 38
f 38 32 33
f 38 33 39
f 39 33 34
f 42 41 40
f 43 40 41
f 46 45 44
f 44 45 42
f 40 44 42
f 47 44 40
f 40 43 48
f 40 48 47
f 51 50 49
f 49 50 46
f 44 49 46
f 52 49 44
f 11 52 10
f 52 47 10
f 52 44 47
f 48 53 47
f 53 10 47
f 53 13 10
f 55 54 14
f 13 55 14
f 53 55 13
f 56 54 55
f 51 49 57
f 51 57 58
f 17 57 16
f 57 52 16
f 57 49 52
f 16 52 11
f 59 20 54
f 54 20 14
f 54 56 60
f 61 54 60
f 59 54 61
f 62 61 60
f 58 57 22
f 23 58 22
f 63 58 23
f 22 57 17
f 59 25 20
f 59 61 64
f 27 59 64
f 65 27 64
f 59 27 25
f 64 61 62
f 29 63 23
f 29 66 63
f 65 34 27
f 67 34 65
f 29 35 68
f 69 29 68
f 66 29 69
f 36 70 35
f 35 70 68
f 37 71 36
f 36 71 70
f 38 72 37
f 37 72 71
f 39 73 38
f 38 73 72
f 74 73 39
f 34 74 39
f 67 74 34
f 75 69 68
f 77 76 75
f 68 77 75
f 70 77 68
f 78 70 71
f 77 70 78
f 72 80 79
f 78 72 79
f 71 72 78
f 80 72 73
f 80 73 81
f 81 73 74
f 82 76 77
f 82 77 78
f 82 78 83
f 83 78 79
f 85 84 41
f 85 41 42
f 87 86 43
f 41 87 43
f 84 87 41
f 89 88 86
f 89 86 87
f 90 88 89
f 92 91 45
f 92 45 46
f 42 45 85
f 85 45 91
f 93 48 86
f 86 48 43
f 94 86 88
f 93 86 94
f 88 90 95
f 88 95 94
f 97 96 50
f 97 50 51
f 46 50 92
f 92 50 96
f 93 53 48
f 53 93 55
f 55 93 94
f 99 98 56
f 99 56 55
f 95 99 55
f 94 95 55
f 100 98 99
f 58 97 51
f 58 101 97
f 104 103 102
f 102 105 104
f 98 60 56
f 107 106 62
f 107 62 60
f 100 107 60
f 98 100 60
f 108 106 107
f 111 110 109
f 110 101 109
f 101 63 109
f 101 58 63
f 114 113 112
f 114 112 103
f 112 102 103
f 112 115 102
f 105 102 116
f 102 117 116
f 102 115 117
f 117 118 116
f 119 65 64
f 120 119 64
f 120 64 62
f 121 120 62
f 106 121 62
f 121 106 108
f 111 109 122
f 111 122 123
f 66 122 63
f 63 122 109
f 113 124 112
f 126 125 124
f 125 112 124
f 125 115 112
f 115 127 117
f 115 125 127
f 118 117 128
f 128 117 127
f 129 67 119
f 119 67 65
f 119 120 130
f 119 130 129
f 131 123 122
f 122 66 131
f 66 132 131
f 66 69 132
f 126 133 125
f 125 133 127
f 127 133 134
f 127 134 128
f 135 74 129
f 129 74 67
f 129 130 136
f 129 136 135
f 137 132 69
f 137 69 75
f 75 76 137
f 137 76 138
f 140 139 80
f 80 139 79
f 141 80 81
f 141 140 80
f 81 74 135
f 142 81 135
f 141 81 142
f 142 135 136
f 143 138 76
f 143 76 82
f 144 82 83
f 144 143 82
f 83 79 139
f 83 139 144
f 147 146 145
f 149 148 145
f 149 145 146
f 150 148 149
f 153 152 151
f 155 154 151
f 155 151 152
f 154 155 147
f 154 147 145
f 85 154 145
f 84 85 145
f 84 145 87
f 87 145 148
f 150 156 148
f 156 87 148
f 156 89 87
f 90 89 156
f 90 156 157
f 153 151 158
f 153 158 159
f 92 158 91
f 158 154 91
f 158 151 154
f 91 154 85
f 161 95 160
f 95 157 160
f 95 90 157
f 162 161 160
f 165 164 163
f 163 164 159
f 163 159 158
f 97 163 158
f 96 97 158
f 96 158 92
f 168 167 166
f 170 169 166
f 166 169 168
f 170 171 169
f 161 99 95
f 173 172 100
f 173 100 99
f 162 173 99
f 161 162 99
f 175 174 172
f 175 172 173
f 176 174 175
f 165 163 177
f 165 177 178
f 101 177 97
f 97 177 163
f 181 180 179
f 181 179 167
f 167 179 166
f 179 103 166
f 103 104 166
f 166 104 105
f 182 166 105
f 170 166 182
f 171 170 183
f 170 184 183
f 170 182 184
f 184 185 183
f 172 107 100
f 107 172 108
f 172 186 108
f 172 174 186
f 174 176 187
f 174 187 186
f 178 177 110
f 111 178 110
f 188 178 111
f 110 177 101
f 179 180 114
f 180 113 114
f 180 189 113
f 179 114 103
f 116 182 105
f 182 116 118
f 190 182 118
f 184 182 190
f 185 184 191
f 191 184 190
f 192 120 121
f 108 186 121
f 186 192 121
f 186 193 192
f 186 187 194
f 186 194 193
f 123 188 111
f 123 195 188
f 124 113 196
f 113 197 196
f 113 189 197
f 196 126 124
f 199 198 190
f 118 199 190
f 128 199 118
f 190 198 191
f 200 130 192
f 192 130 120
f 193 202 201
f 200 193 201
f 192 193 200
f 202 193 194
f 203 195 123
f 203 123 131
f 131 132 203
f 203 132 204
f 197 205 196
f 196 205 126
f 205 133 126
f 205 206 133
f 133 207 134
f 206 207 133
f 128 134 199
f 199 134 207
f 209 208 200
f 208 130 200
f 208 136 130
f 209 200 201
f 132 137 210
f 211 132 210
f 204 132 211
f 138 210 137
f 212 139 140
f 141 213 140
f 140 213 212
f 213 141 214
f 141 215 214
f 141 142 215
f 142 136 208
f 142 208 215
f 216 211 210
f 216 210 138
f 143 216 138
f 217 216 143
f 219 217 218
f 217 144 218
f 217 143 144
f 139 212 144
f 212 218 144
f 212 220 218
f 213 222 221
f 220 213 221
f 212 213 220
f 222 213 214
f 223 219 218
f 223 218 220
f 223 220 224
f 224 220 221
f 227 226 225
f 229 228 225
f 229 225 226
f 231 230 228
f 231 228 229
f 233 232 230
f 233 230 231
f 234 232 233
f 227 225 235
f 227 235 236
f 237 225 228
f 235 225 237
f 147 237 146
f 237 230 146
f 237 228 230
f 146 230 149
f 149 230 232
f 150 149 232
f 234 150 232
f 238 150 234
f 241 240 239
f 239 240 236
f 239 236 235
f 153 239 235
f 152 153 235
f 152 235 155
f 155 235 237
f 155 237 147
f 238 242 150
f 150 242 156
f 244 243 157
f 156 244 157
f 242 244 156
f 245 243 244
f 241 239 246
f 241 246 247
f 159 246 153
f 153 246 239
f 250 249 248
f 248 251 250
f 243 160 157
f 253 252 162
f 253 162 160
f 245 253 160
f 243 245 160
f 254 252 253
f 247 246 164
f 165 247 164
f 255 247 165
f 164 246 159
f 258 257 256
f 258 256 249
f 249 256 248
f 256 167 248
f 167 168 248
f 259 251 248
f 168 259 248
f 169 259 168
f 261 260 171
f 260 169 171
f 260 259 169
f 261 262 260
f 252 173 162
f 254 263 252
f 263 173 252
f 263 175 173
f 176 175 263
f 176 263 264
f 178 266 265
f 255 178 265
f 165 178 255
f 268 267 266
f 266 267 265
f 267 268 257
f 257 268 256
f 268 180 256
f 180 181 256
f 256 181 167
f 183 261 171
f 270 269 185
f 185 269 183
f 269 262 183
f 262 261 183
f 270 271 269
f 264 187 176
f 272 187 264
f 188 273 266
f 188 266 178
f 266 274 268
f 266 273 274
f 274 189 180
f 274 180 268
f 191 275 270
f 191 270 185
f 271 270 276
f 276 270 275
f 272 194 187
f 277 194 272
f 279 278 273
f 188 279 273
f 195 279 188
f 273 278 274
f 274 278 280
f 189 274 280
f 281 189 280
f 197 189 281
f 283 282 198
f 283 198 199
f 191 198 275
f 198 284 275
f 198 282 284
f 275 284 276
f 286 285 202
f 202 285 201
f 202 194 277
f 202 277 286
f 287 279 195
f 287 195 203
f 203 204 287
f 287 204 288
f 281 289 197
f 197 289 205
f 289 291 290
f 206 289 290
f 205 289 206
f 206 290 292
f 293 206 292
f 207 206 293
f 199 207 283
f 283 207 293
f 295 294 209
f 209 294 208
f 209 201 285
f 209 285 295
f 211 288 204
f 211 296 288
f 291 297 290
f 290 297 292
f 299 298 215
f 215 298 214
f 215 208 294
f 215 294 299
f 300 296 211
f 300 211 216
f 301 216 217
f 301 300 216
f 217 219 301
f 301 219 302
f 303 221 222
f 304 303 222
f 214 304 222
f 298 304 214
f 305 302 219
f 305 219 223
f 306 223 224
f 306 305 223
f 224 221 303
f 307 224 303
f 306 224 307
f 307 303 304
f 309 308 226
f 309 226 227
f 226 310 229
f 308 310 226
f 310 312 311
f 231 310 311
f 229 310 231
f 313 233 231
f 313 231 311
f 313 234 233
f 236 309 227
f 236 314 309
f 312 315 311
f 311 315 313
f 313 315 316
f 234 313 316
f 317 234 316
f 238 234 317
f 319 318 240
f 319 240 241
f 236 240 314
f 314 240 318
f 317 320 238
f 238 320 242
f 242 321 244
f 320 321 242
f 245 244 321
f 245 321 322
f 247 319 241
f 247 323 319
f 326 325 324
f 249 250 324
f 250 326 324
f 250 327 326
f 329 328 251
f 328 250 251
f 328 327 250
f 329 330 328
f 322 331 245
f 245 331 253
f 254 253 331
f 254 331 332
f 255 323 247
f 255 333 323
f 336 335 334
f 336 334 325
f 325 334 324
f 334 257 324
f 257 258 324
f 324 258 249
f 259 329 251
f 337 330 329
f 259 337 329
f 260 337 259
f 260 262 337
f 337 262 338
f 332 339 254
f 254 339 263
f 264 263 339
f 264 339 340
f 255 265 341
f 342 255 341
f 333 255 342
f 267 334 265
f 335 265 334
f 265 335 341
f 343 341 335
f 341 343 344
f 267 257 334
f 344 343 345
f 346 338 262
f 346 262 269
f 269 271 346
f 346 271 347
f 340 272 264
f 348 272 340
f 342 341 349
f 342 349 350
f 351 341 344
f 349 341 351
f 344 345 352
f 344 352 351
f 355 354 353
f 354 347 353
f 347 276 353
f 347 271 276
f 348 277 272
f 356 277 348
f 350 349 278
f 279 350 278
f 357 350 279
f 278 349 280
f 280 349 351
f 281 280 351
f 352 281 351
f 358 281 352
f 360 359 282
f 360 282 283
f 353 284 355
f 284 359 355
f 284 282 359
f 284 353 276
f 362 361 286
f 286 361 285
f 286 277 356
f 286 356 362
f 363 357 279
f 363 279 287
f 287 288 363
f 363 288 364
f 358 365 281
f 281 365 289
f 367 366 291
f 289 367 291
f 365 367 289
f 293 292 366
f 367 293 366
f 368 293 367
f 283 293 360
f 360 293 368
f 370 369 295
f 295 369 294
f 295 285 361
f 295 361 370
f 296 372 371
f 364 296 371
f 288 296 364
f 372 373 371
f 366 297 291
f 297 366 292
f 375 374 299
f 299 374 298
f 299 294 369
f 299 369 375
f 300 372 296
f 376 373 372
f 300 376 372
f 301 376 300
f 301 302 376
f 376 302 377
f 374 304 298
f 378 304 374
f 379 377 302
f 379 302 305
f 380 305 306
f 380 379 305
f 381 306 307
f 381 380 306
f 307 304 378
f 307 378 381
f 309 382 308
f 383 310 308
f 383 308 382
f 383 312 310
f 314 384 382
f 314 382 309
f 386 383 385
f 383 384 385
f 383 382 384
f 386 388 387
f 386 387 315
f 383 386 315
f 312 383 315
f 389 316 315
f 389 315 387
f 389 317 316
f 319 390 318
f 390 391 318
f 318 391 314
f 391 392 314
f 392 384 314
f 384 392 385
f 388 393 387
f 387 393 389
f 389 393 394
f 389 394 317
f 394 320 317
f 394 395 320
f 320 396 321
f 395 396 320
f 322 321 396
f 322 396 397
f 399 398 390
f 319 399 390
f 323 399 319
f 390 398 391
f 400 325 326
f 327 401 326
f 326 401 400
f 328 402 327
f 327 402 401
f 330 402 328
f 331 322 403
f 322 404 403
f 322 397 404
f 403 332 331
f 333 399 323
f 333 405 399
f 406 335 336
f 407 406 336
f 407 336 325
f 408 407 325
f 400 408 325
f 408 400 401
f 408 401 409
f 409 401 402
f 409 402 410
f 412 410 411
f 411 410 337
f 410 402 337
f 402 330 337
f 338 411 337
f 404 413 403
f 413 415 414
f 413 414 339
f 403 413 339
f 332 403 339
f 414 340 339
f 342 405 333
f 342 416 405
f 406 343 335
f 418 417 345
f 418 345 343
f 407 418 343
f 406 407 343
f 419 417 418
f 412 411 420
f 412 420 421
f 346 422 338
f 422 411 338
f 422 420 411
f 347 422 346
f 414 415 423
f 423 415 424
f 423 348 340
f 423 340 414
f 350 416 342
f 350 425 416
f 426 352 417
f 417 352 345
f 417 419 427
f 417 427 426
f 421 420 428
f 421 428 429
f 355 428 354
f 428 422 354
f 428 420 422
f 354 422 347
f 423 424 430
f 430 424 431
f 430 356 348
f 430 348 423
f 357 425 350
f 357 432 425
f 434 433 426
f 433 352 426
f 433 358 352
f 434 426 427
f 429 428 359
f 360 429 359
f 435 429 360
f 359 428 355
f 438 437 436
f 438 436 431
f 431 436 430
f 436 361 430
f 361 362 430
f 430 362 356
f 357 363 439
f 440 357 439
f 432 357 440
f 364 439 363
f 433 441 358
f 358 441 365
f 365 442 367
f 441 442 365
f 367 443 368
f 442 443 367
f 360 368 435
f 435 368 443
f 436 437 370
f 437 369 370
f 437 444 369
f 436 370 361
f 445 440 439
f 445 439 364
f 371 445 364
f 446 445 371
f 448 447 373
f 447 371 373
f 447 446 371
f 448 449 447
f 451 450 375
f 375 450 374
f 375 369 444
f 375 444 451
f 376 448 373
f 453 452 377
f 377 452 376
f 452 449 376
f 449 448 376
f 455 454 453
f 453 454 452
f 457 456 455
f 455 456 454
f 450 456 457
f 378 450 457
f 374 450 378
f 379 453 377
f 453 379 380
f 453 380 455
f 455 380 381
f 455 381 457
f 457 381 378
f 385 458 386
f 458 388 386
f 391 459 392
f 459 460 392
f 392 460 385
f 460 461 385
f 461 458 385
f 458 461 388
f 461 393 388
f 461 462 393
f 393 463 394
f 462 463 393
f 394 464 395
f 463 464 394
f 395 465 396
f 464 465 395
f 397 396 465
f 397 465 466
f 399 467 398
f 467 468 398
f 398 468 391
f 468 469 391
f 469 459 391
f 459 469 460
f 472 471 470
f 466 472 470
f 404 466 470
f 397 466 404
f 405 473 467
f 405 467 399
f 468 467 474
f 474 467 473
f 475 407 408
f 409 476 408
f 408 476 475
f 410 477 409
f 409 477 476
f 412 477 410
f 471 478 470
f 478 480 479
f 478 479 413
f 470 478 413
f 404 470 413
f 479 415 413
f 416 481 473
f 416 473 405
f 474 473 482
f 482 473 481
f 475 418 407
f 418 475 419
f 475 483 419
f 475 476 483
f 484 476 477
f 483 476 484
f 421 484 412
f 412 484 477
f 487 486 485
f 487 485 480
f 485 479 480
f 485 488 479
f 488 424 415
f 488 415 479
f 425 489 481
f 425 481 416
f 482 481 490
f 490 481 489
f 491 427 483
f 483 427 419
f 492 483 484
f 491 483 492
f 429 492 421
f 421 492 484
f 486 493 485
f 495 494 493
f 494 485 493
f 494 488 485
f 494 431 424
f 494 424 488
f 432 496 489
f 432 489 425
f 490 489 497
f 497 489 496
f 498 433 434
f 427 491 434
f 491 498 434
f 491 499 498
f 500 491 492
f 499 491 500
f 435 500 429
f 429 500 492
f 503 502 501
f 503 501 495
f 495 501 494
f 501 437 494
f 437 438 494
f 494 438 431
f 440 504 496
f 440 496 432
f 497 496 505
f 505 496 504
f 498 441 433
f 441 498 442
f 442 498 499
f 442 499 443
f 443 499 500
f 443 500 435
f 502 506 501
f 437 501 506
f 507 437 506
f 444 437 507
f 445 504 440
f 508 505 504
f 445 508 504
f 446 508 445
f 509 446 447
f 509 508 446
f 447 449 509
f 509 449 510
f 512 511 451
f 451 511 450
f 451 444 507
f 451 507 512
f 513 510 449
f 513 449 452
f 514 452 454
f 514 513 452
f 515 454 456
f 515 514 454
f 456 450 511
f 456 511 515
f 460 516 461
f 461 516 517
f 518 461 517
f 462 461 518
f 462 519 463
f 518 519 462
f 519 521 520
f 464 519 520
f 463 519 464
f 522 465 464
f 522 464 520
f 522 466 465
f 468 523 469
f 523 524 469
f 469 524 460
f 524 525 460
f 525 516 460
f 516 525 517
f 520 521 526
f 526 521 527
f 526 471 472
f 522 526 472
f 520 526 522
f 522 472 466
f 474 528 523
f 474 523 468
f 524 523 529
f 529 523 528
f 527 530 526
f 530 532 531
f 530 531 478
f 526 530 478
f 471 526 478
f 531 480 478
f 482 533 528
f 482 528 474
f 529 528 534
f 534 528 533
f 537 536 535
f 537 535 532
f 532 535 531
f 535 486 531
f 486 487 531
f 531 487 480
f 490 538 533
f 490 533 482
f 534 533 539
f 539 533 538
f 536 540 535
f 540 542 541
f 540 541 493
f 535 540 493
f 486 535 493
f 541 495 493
f 497 543 538
f 497 538 490
f 539 538 544
f 544 538 543
f 547 546 545
f 547 545 542
f 542 545 541
f 545 502 541
f 502 503 541
f 541 503 495
f 505 548 543
f 505 543 497
f 544 543 549
f 549 543 548
f 545 546 550
f 550 546 551
f 552 506 502
f 545 552 502
f 550 552 545
f 552 507 506
f 508 548 505
f 553 549 548
f 508 553 548
f 509 553 508
f 509 510 553
f 553 510 554
f 550 551 555
f 555 551 556
f 555 511 512
f 552 555 512
f 550 555 552
f 552 512 507
f 557 554 510
f 557 510 513
f 558 513 514
f 558 557 513
f 515 555 556
f 558 515 556
f 514 515 558
f 555 515 511
f 517 559 518
f 560 519 518
f 560 518 559
f 560 521 519
f 524 561 525
f 559 517 525
f 561 559 525
f 562 559 561
f 559 563 560
f 559 562 563
f 563 527 521
f 563 521 560
f 529 564 561
f 529 561 524
f 561 565 562
f 561 564 565
f 562 566 563
f 562 565 566
f 567 530 527
f 563 567 527
f 566 567 563
f 567 532 530
f 534 568 564
f 534 564 529
f 564 569 565
f 564 568 569
f 565 570 566
f 565 569 570
f 570 536 537
f 567 570 537
f 566 570 567
f 567 537 532
f 539 571 568
f 539 568 534
f 568 572 569
f 568 571 572
f 569 573 570
f 569 572 573
f 574 540 536
f 570 574 536
f 573 574 570
f 574 542 540
f 544 575 571
f 544 571 539
f 571 576 572
f 571 575 576
f 572 577 573
f 572 576 577
f 577 546 547
f 574 577 547
f 573 577 574
f 574 547 542
f 549 578 575
f 549 575 544
f 575 579 576
f 575 578 579
f 576 580 577
f 576 579 580
f 580 551 546
f 580 546 577
f 553 578 549
f 578 553 554
f 581 578 554
f 579 578 581
f 579 582 580
f 579 581 582
f 582 556 551
f 582 551 580
f 557 581 554
f 581 557 558
f 581 558 582
f 582 558 556

