# https://github.com/mikedh/trimesh
v -0.00515595 -0.01224248 -0.00360610
v -0.00504545 -0.01254591 0.00171214
v -0.00565184 -0.01215443 0.00219479
v -0.00584436 -0.01124645 -0.00173982
v -0.00583990 -0.01129612 -0.00007567
v -0.00538631 -0.01225315 0.00326621
v -0.00568088 -0.01162000 0.00290925
v -0.00575932 -0.01068030 -0.00285038
v -0.00585431 -0.01120777 0.00127979
v -0.00565425 -0.01135091 -0.00322145
v -0.00582007 -0.00992445 0.00217763
v -0.00544767 -0.00928064 0.00333710
v -0.00569791 -0.00720816 -0.00302467
v -0.00586060 -0.00926685 -0.00084904
v -0.00582020 -0.00729101 0.00217731
v -0.00585519 -0.00518747 -0.00164127
v -0.00586046 -0.00623419 -0.00048696
v -0.00557275 -0.00587773 -0.00328145
v -0.00582020 -0.00538909 0.00217731
v -0.00569791 -0.00487983 0.00282371
v -0.00585519 -0.00423783 0.00144031
v -0.00569791 -0.00454547 -0.00302467
v -0.00586046 -0.00290582 0.00067248
v -0.00544760 -0.00470498 0.00333722
v -0.00557275 -0.00273955 -0.00328145
v -0.00586046 -0.00195486 -0.00048696
v -0.00544758 -0.00332790 0.00333727
v -0.00569648 -0.00091539 -0.00282986
v -0.00585519 -0.00157514 0.00144031
v -0.00582020 -0.00101467 0.00217731
v -0.00569791 -0.00316810 0.00282371
v -0.00586046 -0.00081371 -0.00087345
v -0.00586046 0.00165879 0.00067248
v -0.00585519 0.00032810 -0.00164127
v -0.00557275 0.00030382 0.00308048
v -0.00569791 0.00192106 -0.00302467
v -0.00585519 0.00223003 -0.00164127
v -0.00586078 0.00299013 -0.00010048
v -0.00563533 0.00287096 0.00295209
v -0.00586078 0.00375090 -0.00010048
v -0.00582020 0.00354995 0.00217731
v -0.00557275 0.00429755 -0.00328145
v -0.00569648 0.00436245 -0.00282986
v -0.00582020 0.00338128 -0.00237827
v -0.00586046 0.00489206 -0.00010048
v -0.00582895 0.00564459 0.00199306
v -0.00544752 0.00688255 0.00333740
v -0.00569719 0.00682673 -0.00292727
v -0.00569791 0.00501017 0.00282371
v -0.00585519 0.00679332 0.00144031
v -0.00575906 0.00713294 0.00250051
v -0.00569791 0.00914836 -0.00302467
v -0.00586173 0.00840488 -0.00048602
v -0.00578743 0.01084365 0.00255612
v -0.00581777 0.01052609 -0.00238365
v -0.00585661 0.01050755 -0.00157076
v -0.00585757 0.00978482 0.00137125
v -0.00544748 0.00881597 0.00333726
v -0.00554742 0.01037122 -0.00338463
v -0.00582626 0.01125451 0.00118284
v -0.00566920 0.01182263 0.00243338
v -0.00567736 0.01186445 -0.00293393
v -0.00559886 0.01149319 0.00306270
v -0.00512609 0.01240539 -0.00161653
v -0.00510375 0.01237648 0.00280528
v -0.00560998 0.01205690 0.00169398
v -0.00442952 -0.01251589 -0.00343220
v -0.00494749 -0.01154707 -0.00400237
v -0.00473413 -0.01013155 0.00414684
v -0.00473692 -0.00937195 0.00414843
v -0.00510962 -0.00707813 -0.00396084
v -0.00499600 -0.00745687 0.00389529
v -0.00489558 -0.00905170 -0.00419752
v -0.00436730 -0.00421945 -0.00464049
v -0.00504977 -0.00227967 0.00382939
v -0.00557275 -0.00178859 -0.00328145
v -0.00431372 -0.00171514 0.00454021
v -0.00433532 0.00050571 0.00450301
v -0.00557275 0.00049371 -0.00328145
v -0.00523207 0.00024011 0.00359694
v -0.00510962 0.00205110 -0.00396084
v -0.00518553 0.00209612 0.00364531
v -0.00494917 0.00410148 0.00394148
v -0.00492348 0.00356104 -0.00415433
v -0.00497134 0.00737189 -0.00412017
v -0.00424929 0.00751561 0.00459225
v -0.00501454 0.00902593 0.00386939
v -0.00522638 0.01178245 0.00355409
v -0.00447494 0.01248394 -0.00211069
v -0.00419029 -0.01257004 0.00355103
v -0.00422080 -0.01132117 0.00453497
v -0.00424444 -0.01058127 -0.00471508
v -0.00303201 -0.00866146 0.00546221
v -0.00404277 -0.00879678 0.00476189
v -0.00412117 -0.00785738 0.00477584
v -0.00409770 -0.00465441 0.00479844
v -0.00411758 -0.00350673 0.00468719
v -0.00477644 -0.00163665 -0.00429174
v -0.00265509 -0.00092696 0.00542496
v -0.00387506 -0.00106340 0.00479872
v -0.00477644 0.00178681 -0.00429174
v -0.00410519 0.00181890 -0.00485183
v -0.00418821 0.00409570 0.00461952
v -0.00394843 0.00522211 0.00487213
v -0.00416556 0.00595773 -0.00483432
v -0.00392601 0.00649556 0.00485046
v -0.00433695 0.00654560 -0.00470731
v -0.00413082 0.00709020 -0.00489269
v -0.00363324 0.00984043 0.00489983
v -0.00383621 0.00922770 -0.00529335
v -0.00321381 0.01134840 0.00493140
v -0.00548340 0.01206164 -0.00320856
v -0.00422853 0.01074136 0.00445444
v -0.00456869 0.01212189 0.00374475
v -0.00389769 0.01249828 0.00072097
v -0.00027494 -0.01260503 -0.00362743
v -0.00252965 -0.01254903 0.00491481
v -0.00318131 -0.01170962 -0.00482300
v -0.00415806 -0.00765009 -0.00483923
v -0.00308602 -0.00705126 0.00553990
v -0.00329463 -0.00576998 0.00546507
v -0.00344561 -0.00539638 0.00537153
v -0.00410519 -0.00160456 -0.00485183
v -0.00250725 -0.00343176 0.00552554
v -0.00308097 0.00228655 -0.00539546
v -0.00245256 -0.00037326 0.00550794
v -0.00387983 0.00382282 0.00479399
v -0.00307449 0.00587673 0.00539103
v -0.00338529 0.00797129 -0.00556219
v -0.00296152 0.00954555 -0.00580797
v -0.00377352 0.01127168 -0.00480357
v -0.00346782 0.01164913 -0.00492733
v -0.00314915 0.01227508 0.00443186
v -0.00335052 0.01249511 0.00316564
v -0.00186806 -0.01248436 -0.00454225
v -0.00309208 -0.01115653 -0.00503164
v -0.00229047 -0.00934902 -0.00566005
v -0.00257423 -0.00938037 0.00557311
v -0.00406257 -0.00869192 -0.00488805
v -0.00291517 -0.00518858 -0.00548189
v -0.00240952 -0.00750114 -0.00572143
v -0.00287423 -0.00372675 -0.00550777
v -0.00287419 -0.00033400 -0.00550779
v -0.00240524 -0.00082937 -0.00572252
v -0.00234751 0.00165114 0.00554064
v -0.00240713 0.00139440 -0.00572189
v -0.00249788 0.00149143 0.00548735
v -0.00245226 0.00275311 -0.00570755
v -0.00243906 0.00421708 0.00558259
v -0.00318724 0.00632938 -0.00536534
v -0.00230303 0.00595633 -0.00577927
v -0.00203435 0.00808665 0.00573390
v -0.00129597 0.01158315 0.00592156
v -0.00172128 0.01087032 -0.00656181
v -0.00294234 0.01237202 -0.00463395
v -0.00251066 0.01249971 0.00220813
v 0.00247116 -0.01260040 -0.00447746
v -0.00188784 -0.01139047 -0.00527390
v -0.00139504 -0.01097869 -0.00569601
v -0.00220530 -0.01149785 0.00571537
v -0.00099395 -0.01193473 0.00625143
v -0.00114962 -0.00930319 0.00621842
v -0.00090031 -0.00451797 0.00624436
v -0.00097641 -0.00409909 0.00618696
v -0.00156137 -0.00299455 0.00576730
v -0.00145520 0.00031666 0.00568315
v -0.00177521 0.00615386 -0.00600890
v -0.00226041 0.00687263 0.00560657
v -0.00062411 0.01249701 -0.00444576
v -0.00336463 0.01249085 -0.00290512
v -0.00033728 0.01249974 0.00222606
v 0.00072960 -0.01260557 0.00224979
v -0.00110566 -0.01149229 -0.00562180
v -0.00095244 -0.01185531 -0.00549669
v -0.00224378 -0.00846549 -0.00577659
v -0.00171750 -0.00849375 -0.00585974
v -0.00052078 -0.00709453 0.00637706
v -0.00053651 -0.00471465 -0.00593412
v -0.00039972 -0.00346230 0.00618876
v -0.00105520 0.00331988 -0.00605150
v -0.00117045 0.00306473 0.00585131
v -0.00114271 0.00639867 0.00589160
v -0.00094518 0.00803538 0.00627830
v -0.00041015 0.00616078 -0.00661744
v -0.00058221 0.00783200 0.00638735
v -0.00074460 0.01174709 0.00621625
v -0.00150168 0.01225835 -0.00592531
v -0.00091456 0.01248236 -0.00468588
v 0.00184612 0.01249968 0.00144727
v -0.00028600 -0.01256955 0.00544198
v -0.00000029 -0.01122921 0.00638544
v 0.00003743 -0.00776702 0.00637917
v -0.00043949 -0.00234308 0.00576682
v -0.00067055 -0.00037411 -0.00599045
v -0.00047405 0.00170181 0.00604863
v -0.00002217 0.00445146 0.00627716
v -0.00119472 0.01086949 -0.00666503
v 0.00045469 0.01198024 -0.00656036
v -0.00027510 0.01226196 0.00590005
v 0.00264121 0.01249942 0.00137687
v 0.00080455 0.01249757 0.00347050
v -0.00008193 -0.01126457 -0.00611276
v 0.00255386 -0.01249995 -0.00593604
v -0.00008613 -0.00873708 -0.00597302
v 0.00029041 -0.00701434 0.00627053
v 0.00006737 -0.00623504 -0.00598201
v 0.00119438 -0.00650777 0.00574326
v 0.00059462 -0.00527841 0.00588707
v 0.00144152 -0.00239855 0.00564014
v -0.00052268 0.00023382 -0.00600446
v 0.00057304 -0.00038898 -0.00635670
v -0.00001293 0.00194914 -0.00626761
v -0.00003431 0.00680800 0.00635936
v 0.00043214 0.00797232 -0.00662909
v 0.00039027 0.01166276 0.00642900
v 0.00122016 0.01208960 -0.00633970
v 0.00266416 0.01249974 -0.00167586
v 0.00124807 -0.01242308 -0.00592662
v 0.00316632 -0.01258878 -0.00296194
v 0.00074184 -0.01168199 -0.00623738
v 0.00061810 -0.01210879 0.00607516
v 0.00088856 -0.01070066 -0.00655146
v 0.00094188 -0.00798657 0.00602086
v 0.00146867 -0.00944063 -0.00656304
v 0.00109323 -0.00388799 -0.00594469
v 0.00162527 -0.00293567 0.00559661
v 0.00030553 0.00223413 -0.00643584
v 0.00050335 0.00127860 0.00594401
v 0.00135234 0.00464765 0.00583548
v 0.00109284 0.00522078 0.00595235
v 0.00059211 0.00744296 0.00635535
v 0.00116823 0.00914964 0.00628458
v 0.00117662 0.01147045 0.00614797
v 0.00119571 0.01238708 0.00524286
v 0.00182558 0.01246739 -0.00471379
v 0.00313819 0.01249203 -0.00335739
v 0.00247040 0.01243293 0.00400158
v 0.00245428 -0.01215896 0.00506723
v 0.00176569 -0.01180300 0.00554568
v 0.00182552 -0.00778816 0.00558391
v 0.00180623 -0.00648087 0.00555048
v 0.00130411 -0.00490720 -0.00630403
v 0.00225436 -0.00148182 -0.00539222
v 0.00142980 0.00056220 0.00565929
v 0.00047592 0.00340792 -0.00659197
v 0.00081765 0.00395675 -0.00659837
v 0.00254336 0.00657170 0.00555864
v 0.00127077 0.00718200 -0.00643800
v 0.00205591 0.00911670 -0.00596251
v 0.00109600 0.01106017 0.00628406
v 0.00158461 0.01033490 -0.00623630
v 0.00157201 0.01214074 -0.00593069
v 0.00338402 -0.01260143 -0.00084062
v 0.00254557 -0.01170337 -0.00640254
v 0.00318488 -0.01056324 -0.00550658
v 0.00159880 -0.00730431 -0.00646377
v 0.00367307 -0.01003348 0.00447134
v 0.00218866 -0.00942392 -0.00638699
v 0.00240936 -0.00798877 0.00525807
v 0.00247126 -0.00897503 -0.00627005
v 0.00176839 -0.00646299 -0.00613783
v 0.00234796 -0.00592908 -0.00551927
v 0.00236992 -0.00597787 0.00528315
v 0.00301883 -0.00652602 -0.00486039
v 0.00196098 -0.00423407 -0.00574101
v 0.00269141 -0.00442887 -0.00524662
v 0.00174797 -0.00535102 0.00558459
v 0.00201971 -0.00252896 -0.00566287
v 0.00234321 -0.00035618 0.00530213
v 0.00211573 0.00038695 -0.00561154
v 0.00231550 0.00234786 -0.00548276
v 0.00223137 0.00351115 -0.00559450
v 0.00290942 0.00642544 0.00539670
v 0.00233289 0.00573416 -0.00557677
v 0.00256441 0.00560123 -0.00538730
v 0.00249312 0.00940644 0.00562245
v 0.00221559 0.01168154 -0.00559634
v 0.00295548 0.01188089 -0.00507166
v 0.00407950 0.01249033 -0.00089109
v 0.00394320 0.01249675 0.00056162
v 0.00437247 0.01237665 0.00244620
v 0.00350275 -0.01171753 0.00446218
v 0.00341567 -0.00880837 0.00470811
v 0.00427176 -0.00618824 0.00414588
v 0.00379051 -0.00508400 0.00452757
v 0.00413444 -0.00673376 -0.00386699
v 0.00330534 -0.00311296 -0.00488736
v 0.00370958 0.00060000 0.00460137
v 0.00250385 0.00107706 -0.00532461
v 0.00288056 0.00225906 0.00539348
v 0.00172056 0.00504892 -0.00611427
v 0.00291637 0.00430819 -0.00501208
v 0.00354505 0.00558832 -0.00482313
v 0.00311359 0.00433412 0.00522590
v 0.00275567 0.00893079 0.00553473
v 0.00376926 0.00964122 0.00456487
v 0.00210700 0.01200533 0.00524416
v 0.00385627 0.01098947 0.00424099
v 0.00467966 0.01241059 -0.00121252
v 0.00430584 -0.01243015 0.00332126
v 0.00320849 -0.01217313 -0.00521833
v 0.00398067 -0.01134581 0.00414174
v 0.00370216 -0.00884088 -0.00479956
v 0.00434268 -0.00943868 -0.00405452
v 0.00339512 -0.00741661 -0.00464775
v 0.00472213 -0.00755503 0.00358859
v 0.00378198 -0.00773136 0.00433929
v 0.00400326 -0.00328917 -0.00441330
v 0.00358258 -0.00243939 0.00465890
v 0.00427550 -0.00227554 -0.00368222
v 0.00362579 -0.00130422 -0.00418812
v 0.00414348 -0.00139821 0.00422658
v 0.00421222 -0.00148711 -0.00357607
v 0.00391109 -0.00003291 0.00441983
v 0.00371275 0.00184589 -0.00409077
v 0.00310722 0.00230943 0.00522682
v 0.00393890 0.00389356 -0.00411145
v 0.00491170 0.00439658 -0.00340998
v 0.00419963 0.00774312 0.00415233
v 0.00388994 0.00595245 -0.00463161
v 0.00324169 0.00883607 -0.00510549
v 0.00369443 0.00775688 -0.00479467
v 0.00355169 0.00483928 0.00482305
v 0.00392017 0.00916156 -0.00461502
v 0.00404174 0.00904807 0.00431546
v 0.00394371 0.01024848 -0.00457918
v 0.00394006 0.01152912 0.00397174
v 0.00348620 0.01231312 0.00372287
v 0.00456604 0.01207277 -0.00371684
v 0.00456505 0.01235773 -0.00294691
v 0.00472315 0.01235007 0.00143815
v 0.00463367 -0.01232451 -0.00123159
v 0.00480084 -0.01249104 0.00039175
v 0.00490386 -0.01231892 0.00081297
v 0.00465377 -0.01218652 0.00328682
v 0.00482431 -0.01206391 -0.00146393
v 0.00501123 -0.01172563 0.00315966
v 0.00479565 -0.01139003 0.00346663
v 0.00481703 -0.00939222 -0.00321178
v 0.00477464 -0.00868764 0.00354726
v 0.00484191 -0.00771553 0.00342791
v 0.00461359 -0.00747805 -0.00329888
v 0.00508179 -0.00791521 -0.00260220
v 0.00515772 -0.00598022 -0.00280696
v 0.00485422 -0.00711097 0.00341153
v 0.00490461 -0.00443994 0.00333726
v 0.00456665 -0.00404582 0.00375987
v 0.00483200 -0.00376160 -0.00365969
v 0.00503492 -0.00194644 -0.00267538
v 0.00490461 0.00128178 0.00333726
v 0.00456699 0.00013611 -0.00318787
v 0.00485406 -0.00025012 -0.00284918
v 0.00502928 0.00120686 -0.00265767
v 0.00450992 0.00041624 0.00382537
v 0.00449032 0.00265179 -0.00336902
v 0.00499380 0.00235804 -0.00271446
v 0.00509468 0.00372537 -0.00287760
v 0.00456705 0.00280189 0.00376008
v 0.00490461 0.00545005 0.00333726
v 0.00482990 0.00603352 -0.00365561
v 0.00456689 0.00995265 -0.00395946
v 0.00456705 0.00810311 0.00376012
v 0.00490490 0.00790841 0.00333707
v 0.00490494 0.00784276 -0.00353867
v 0.00426486 0.01166213 -0.00412634
v 0.00478335 0.01104004 0.00339132
v 0.00500981 0.01168286 0.00277793
v 0.00501964 -0.01110814 -0.00167031
v 0.00526912 -0.01132401 0.00184554
v 0.00506862 -0.01204666 0.00268392
v 0.00540638 -0.01039726 -0.00099418
v 0.00558340 -0.01077469 -0.00000862
v 0.00504868 -0.00893752 -0.00283213
v 0.00548660 -0.00931067 0.00078390
v 0.00540386 -0.00948618 0.00114142
v 0.00515492 -0.00931664 0.00282442
v 0.00568735 -0.00868517 -0.00087646
v 0.00528255 -0.00920070 0.00218275
v 0.00545747 -0.00711363 -0.00132770
v 0.00579441 -0.00690938 -0.00031819
v 0.00565240 -0.00643417 0.00032199
v 0.00544420 -0.00682791 0.00092941
v 0.00519991 -0.00743367 0.00270666
v 0.00520398 -0.00662247 -0.00234908
v 0.00525342 -0.00751132 -0.00205398
v 0.00528283 -0.00544744 0.00218311
v 0.00518629 -0.00496953 -0.00288614
v 0.00546919 -0.00527614 0.00084142
v 0.00535215 -0.00610986 0.00148262
v 0.00515524 -0.00616739 0.00282391
v 0.00546906 -0.00253996 -0.00104147
v 0.00522457 -0.00148792 -0.00216988
v 0.00555967 -0.00232412 0.00058471
v 0.00476273 -0.00261913 0.00343169
v 0.00543858 -0.00358362 0.00120874
v 0.00564980 -0.00220105 -0.00053020
v 0.00515526 -0.00145455 0.00282404
v 0.00516894 -0.00067389 -0.00224370
v 0.00546917 -0.00035180 0.00084149
v 0.00546347 -0.00064273 -0.00103777
v 0.00565019 0.00099371 0.00032783
v 0.00515526 -0.00031340 0.00282404
v 0.00564985 -0.00092412 -0.00052846
v 0.00556440 0.00124887 -0.00074365
v 0.00577953 0.00287558 -0.00013394
v 0.00546847 0.00213741 -0.00107598
v 0.00546942 0.00220337 0.00084035
v 0.00519072 0.00313204 -0.00240364
v 0.00535217 0.00353355 0.00148270
v 0.00515526 0.00158853 0.00282404
v 0.00559189 0.00240115 -0.00073625
v 0.00585409 0.00419683 -0.00017193
v 0.00548184 0.00293385 0.00081401
v 0.00530574 0.00558920 0.00191055
v 0.00496727 0.00419938 0.00320895
v 0.00516350 0.00571570 -0.00302259
v 0.00580763 0.00442236 -0.00078659
v 0.00528287 0.00497777 0.00218289
v 0.00597848 0.00717099 -0.00029431
v 0.00545331 0.00648598 0.00095624
v 0.00583428 0.00737782 0.00040802
v 0.00546976 0.00612114 -0.00180292
v 0.00584034 0.00773256 0.00049944
v 0.00521532 0.00807114 0.00266006
v 0.00515584 0.00720450 0.00282354
v 0.00544635 0.00797030 0.00151938
v 0.00596695 0.00860443 -0.00029362
v 0.00503327 0.00982523 0.00316960
v 0.00516429 0.00991218 -0.00302183
v 0.00557822 0.00938688 0.00100511
v 0.00535778 0.00942250 0.00184388
v 0.00515723 0.00958128 0.00282528
v 0.00594909 0.01172131 0.00021541
v 0.00499786 0.01164247 -0.00334550
v 0.00538763 0.01156269 0.00163599
v 0.00501660 0.01196921 -0.00279041
v 0.00544148 0.01200278 -0.00096384
v 0.00525453 0.01234147 0.00084882
v 0.00570967 -0.01032637 -0.00014414
v 0.00588664 -0.00794178 -0.00039699
v 0.00575560 -0.00615092 -0.00011780
v 0.00574903 -0.00537934 -0.00010183
v 0.00575250 -0.00337966 -0.00013770
v 0.00574849 -0.00185641 -0.00010046
v 0.00574858 0.00138591 -0.00010120
v 0.00585183 0.00339440 -0.00030191
v 0.00587008 0.00587110 -0.00020186
v 0.00589918 0.00768244 -0.00073243
v 0.00593277 0.00901366 0.00003164
v 0.00573808 0.01073555 -0.00105309
v 0.00582248 0.01147091 -0.00062158
v 0.00577060 0.01175780 0.00050757
f 2 6 3
f 3 10 1
f 4 10 3
f 5 4 3
f 9 5 3
f 6 7 3
f 4 8 10
f 3 11 9
f 7 11 3
f 5 14 4
f 9 14 5
f 13 10 8
f 4 13 8
f 9 17 14
f 15 17 9
f 11 15 9
f 7 15 11
f 18 10 13
f 4 16 13
f 14 17 4
f 17 16 4
f 16 18 13
f 15 21 17
f 19 21 15
f 7 19 15
f 24 7 12
f 20 19 7
f 20 7 24
f 17 21 16
f 20 21 19
f 16 22 18
f 16 25 22
f 21 26 16
f 23 26 21
f 21 31 23
f 20 31 21
f 27 20 24
f 31 20 27
f 16 28 25
f 26 28 16
f 28 76 25
f 23 29 26
f 31 29 23
f 30 29 31
f 35 30 31
f 26 32 28
f 30 26 29
f 32 33 28
f 33 34 28
f 26 33 32
f 30 39 26
f 39 33 26
f 34 79 28
f 35 39 30
f 34 36 79
f 37 36 34
f 33 37 34
f 39 41 33
f 39 35 82
f 44 43 36
f 37 44 36
f 33 38 37
f 38 40 37
f 40 44 37
f 33 40 38
f 40 45 44
f 33 45 40
f 41 46 33
f 46 45 33
f 39 49 41
f 49 39 47
f 43 48 42
f 44 45 43
f 49 46 41
f 45 53 43
f 53 48 43
f 46 53 45
f 50 53 46
f 51 50 46
f 49 51 46
f 51 49 47
f 50 51 53
f 54 51 47
f 52 59 48
f 53 56 48
f 48 55 52
f 56 55 48
f 51 57 53
f 57 56 53
f 54 57 51
f 58 54 47
f 55 59 52
f 63 54 58
f 55 62 59
f 57 60 56
f 54 60 57
f 56 62 55
f 56 66 62
f 60 66 56
f 61 60 54
f 63 61 54
f 61 66 60
f 66 64 62
f 65 64 66
f 65 66 61
f 63 65 61
f 3 1 67
f 3 67 2
f 1 10 68
f 68 10 92
f 69 6 91
f 73 92 10
f 6 72 12
f 7 6 12
f 70 6 69
f 72 6 70
f 10 18 71
f 73 10 71
f 12 72 24
f 74 73 71
f 18 22 74
f 71 18 74
f 72 75 24
f 22 25 74
f 74 25 98
f 24 75 27
f 98 25 76
f 76 28 98
f 27 75 31
f 31 75 35
f 78 75 77
f 98 28 79
f 35 75 80
f 80 75 78
f 79 36 98
f 98 36 101
f 36 43 81
f 101 36 81
f 35 80 82
f 82 80 78
f 81 43 101
f 82 83 39
f 43 42 84
f 101 43 84
f 39 83 47
f 42 48 84
f 84 48 85
f 83 87 47
f 48 59 85
f 87 88 58
f 47 87 58
f 85 59 110
f 58 88 63
f 59 62 112
f 110 59 112
f 64 89 62
f 62 89 112
f 88 65 63
f 88 114 65
f 1 68 92
f 91 6 90
f 92 73 139
f 91 94 70
f 69 91 70
f 94 91 93
f 94 95 72
f 70 94 72
f 139 73 119
f 72 95 96
f 119 73 74
f 96 97 75
f 72 96 75
f 123 74 98
f 75 97 77
f 100 77 99
f 78 77 100
f 102 123 98
f 98 101 102
f 78 103 82
f 103 78 127
f 101 84 102
f 82 103 83
f 84 85 105
f 102 84 105
f 103 104 83
f 108 105 107
f 105 85 107
f 104 86 87
f 83 104 87
f 107 85 108
f 108 85 110
f 86 113 88
f 87 86 88
f 111 86 109
f 113 86 111
f 113 114 88
f 89 170 112
f 65 115 64
f 114 133 65
f 65 133 134
f 2 67 135
f 2 116 90
f 6 2 90
f 118 67 92
f 92 67 1
f 90 117 91
f 92 136 118
f 94 93 95
f 93 121 95
f 121 93 120
f 95 121 96
f 96 121 122
f 119 74 140
f 140 74 123
f 122 124 96
f 123 102 125
f 99 126 100
f 100 126 78
f 78 126 127
f 102 105 125
f 127 104 103
f 125 105 150
f 104 128 106
f 105 108 150
f 129 150 110
f 110 150 108
f 104 106 86
f 129 110 130
f 154 130 110
f 131 110 112
f 131 132 110
f 132 154 110
f 112 155 132
f 131 112 132
f 113 133 114
f 64 115 89
f 65 134 115
f 2 135 116
f 118 136 135
f 67 118 135
f 117 160 91
f 160 138 93
f 91 160 93
f 139 137 92
f 175 137 139
f 139 119 175
f 119 140 141
f 175 119 141
f 144 141 142
f 140 123 142
f 141 140 142
f 122 121 124
f 96 124 97
f 123 144 142
f 124 99 77
f 97 124 77
f 143 144 123
f 123 125 143
f 143 125 144
f 126 147 127
f 145 147 126
f 144 125 146
f 147 145 127
f 148 146 125
f 145 149 127
f 148 125 151
f 127 149 104
f 151 125 150
f 104 149 128
f 150 129 151
f 106 128 86
f 86 128 109
f 109 128 152
f 109 153 111
f 132 155 154
f 113 111 133
f 154 155 187
f 170 155 112
f 134 156 115
f 90 116 157
f 135 136 158
f 117 161 160
f 159 158 92
f 92 158 136
f 92 137 159
f 161 162 160
f 160 162 138
f 138 162 93
f 162 163 93
f 175 141 176
f 93 163 120
f 120 163 121
f 163 164 121
f 141 144 176
f 121 164 124
f 164 165 124
f 176 144 178
f 124 165 99
f 165 166 99
f 178 144 194
f 99 166 126
f 144 146 194
f 126 166 145
f 146 148 194
f 148 151 194
f 194 151 180
f 149 168 128
f 167 151 129
f 168 152 128
f 152 153 109
f 187 197 154
f 89 115 170
f 156 171 115
f 153 133 111
f 153 186 133
f 116 135 218
f 157 172 90
f 90 172 117
f 173 174 135
f 173 135 158
f 158 159 173
f 159 137 175
f 206 176 178
f 164 179 165
f 166 195 145
f 210 194 180
f 195 181 145
f 181 182 145
f 145 182 149
f 167 184 151
f 149 182 168
f 184 167 129
f 129 130 184
f 183 152 182
f 182 152 168
f 130 154 184
f 154 197 184
f 183 186 153
f 152 183 153
f 187 198 197
f 155 188 187
f 155 169 188
f 170 280 155
f 155 280 169
f 115 189 170
f 156 134 171
f 133 199 134
f 186 199 133
f 161 117 190
f 221 161 190
f 174 173 218
f 173 159 218
f 135 174 218
f 221 191 161
f 159 175 202
f 161 191 162
f 191 192 162
f 162 192 177
f 175 176 202
f 202 176 204
f 204 176 206
f 162 177 163
f 163 179 164
f 179 193 165
f 165 193 166
f 181 195 182
f 180 151 227
f 151 184 245
f 227 151 245
f 182 195 196
f 184 246 245
f 213 182 196
f 182 213 183
f 183 213 185
f 185 215 183
f 183 215 186
f 186 215 199
f 189 200 170
f 170 200 280
f 171 189 115
f 134 201 171
f 199 234 134
f 116 218 203
f 116 203 157
f 218 159 202
f 192 205 177
f 207 163 205
f 163 177 205
f 163 208 179
f 207 208 163
f 179 208 267
f 225 178 194
f 193 179 209
f 211 268 194
f 193 209 166
f 211 194 210
f 209 244 166
f 166 244 195
f 211 210 227
f 210 180 212
f 227 210 212
f 180 227 212
f 228 230 195
f 230 196 195
f 184 197 214
f 231 215 213
f 213 215 185
f 198 187 216
f 188 169 187
f 280 217 169
f 171 201 189
f 134 234 201
f 234 199 215
f 172 157 219
f 172 190 117
f 222 218 220
f 218 202 220
f 202 222 220
f 191 221 192
f 202 204 222
f 223 221 240
f 221 223 192
f 222 204 224
f 204 206 256
f 224 204 256
f 192 223 205
f 223 207 205
f 206 178 242
f 256 206 242
f 225 242 178
f 208 207 267
f 267 226 179
f 179 226 209
f 195 244 228
f 245 211 227
f 229 230 228
f 196 230 213
f 246 184 248
f 213 230 231
f 184 214 248
f 231 232 215
f 232 250 215
f 214 197 248
f 197 198 248
f 248 198 216
f 169 235 187
f 187 235 216
f 217 236 169
f 201 237 189
f 221 190 238
f 238 239 221
f 218 222 254
f 254 222 224
f 221 239 240
f 258 256 260
f 223 240 207
f 240 241 207
f 256 242 261
f 241 267 207
f 242 225 265
f 225 194 265
f 265 194 268
f 268 211 243
f 209 316 244
f 246 272 245
f 245 272 271
f 291 272 246
f 246 248 291
f 248 274 291
f 295 230 247
f 276 230 295
f 231 230 232
f 232 230 276
f 249 248 251
f 248 216 251
f 216 277 251
f 250 233 215
f 252 277 216
f 215 233 234
f 234 233 297
f 216 235 252
f 169 236 235
f 237 328 189
f 234 237 201
f 203 301 157
f 172 219 253
f 172 253 190
f 190 300 238
f 218 254 203
f 254 224 256
f 258 255 254
f 256 258 254
f 239 238 240
f 259 238 257
f 238 259 240
f 256 261 305
f 256 305 260
f 240 259 241
f 262 264 261
f 259 263 241
f 262 261 242
f 242 264 262
f 266 264 242
f 265 266 242
f 263 267 241
f 268 266 265
f 267 269 226
f 288 269 267
f 268 243 287
f 226 269 209
f 243 211 270
f 209 269 316
f 289 243 270
f 289 211 271
f 270 211 289
f 290 244 316
f 211 245 271
f 244 290 228
f 228 273 229
f 274 275 291
f 229 273 230
f 230 273 247
f 274 248 275
f 275 248 321
f 248 249 321
f 232 276 250
f 249 251 277
f 277 278 249
f 297 250 276
f 250 297 233
f 277 252 278
f 252 235 278
f 235 236 278
f 217 279 236
f 328 281 189
f 189 281 200
f 237 234 297
f 157 301 219
f 190 253 333
f 190 333 300
f 203 254 301
f 282 238 300
f 255 301 254
f 257 238 282
f 260 255 258
f 257 283 259
f 305 303 260
f 307 259 283
f 305 261 264
f 284 259 307
f 264 286 305
f 259 284 263
f 263 284 267
f 284 285 267
f 286 266 268
f 264 266 286
f 285 309 267
f 286 268 287
f 267 309 288
f 311 287 243
f 289 311 243
f 269 288 316
f 315 271 272
f 289 271 315
f 292 315 272
f 291 292 272
f 290 294 228
f 228 294 273
f 291 275 292
f 292 275 293
f 293 275 320
f 275 321 320
f 273 295 247
f 249 278 321
f 321 278 322
f 297 295 298
f 276 295 297
f 328 297 298
f 279 299 236
f 217 280 279
f 200 281 280
f 297 328 237
f 336 219 301
f 219 336 332
f 253 219 333
f 219 332 333
f 302 282 300
f 304 301 255
f 368 301 304
f 282 302 257
f 260 304 255
f 303 304 260
f 307 257 340
f 257 307 283
f 303 305 304
f 286 342 305
f 308 286 287
f 394 309 285
f 287 310 308
f 313 310 287
f 311 313 287
f 309 312 288
f 394 312 309
f 311 289 313
f 312 314 288
f 313 289 315
f 354 288 314
f 292 353 315
f 354 316 288
f 355 353 292
f 317 355 292
f 290 323 294
f 316 323 290
f 293 320 292
f 292 320 317
f 294 323 273
f 322 320 321
f 273 323 295
f 324 320 322
f 325 323 319
f 323 325 295
f 322 278 324
f 295 325 296
f 324 278 326
f 296 298 295
f 365 326 278
f 328 298 327
f 278 329 365
f 236 330 278
f 278 330 329
f 236 299 330
f 280 438 279
f 281 331 280
f 333 334 300
f 301 368 336
f 300 337 302
f 335 337 300
f 337 338 302
f 304 339 368
f 302 338 257
f 338 340 257
f 342 339 304
f 340 341 307
f 304 305 342
f 341 306 307
f 307 345 284
f 306 345 307
f 342 286 343
f 348 286 308
f 347 284 346
f 284 347 285
f 394 347 346
f 347 394 285
f 308 310 348
f 348 310 349
f 310 313 349
f 349 313 352
f 350 312 394
f 352 313 351
f 351 315 352
f 313 315 351
f 354 312 350
f 312 354 314
f 315 353 352
f 355 356 353
f 358 354 350
f 354 358 316
f 355 317 356
f 415 358 350
f 316 358 323
f 317 318 356
f 323 415 319
f 358 415 323
f 317 320 318
f 415 359 319
f 360 318 320
f 362 359 363
f 359 362 319
f 360 324 361
f 320 324 360
f 361 364 360
f 319 362 325
f 428 362 363
f 362 428 325
f 324 326 361
f 434 364 361
f 325 366 296
f 428 366 325
f 361 326 365
f 365 434 361
f 296 366 298
f 329 434 365
f 298 366 327
f 366 367 281
f 366 281 328
f 327 366 328
f 279 438 299
f 280 331 438
f 333 332 336
f 334 370 300
f 300 370 335
f 333 336 372
f 372 336 368
f 334 333 369
f 369 333 372
f 370 334 369
f 335 370 337
f 371 372 368
f 337 370 369
f 369 372 375
f 337 369 375
f 338 337 340
f 339 373 368
f 368 373 371
f 377 371 373
f 377 439 371
f 337 375 376
f 376 375 378
f 337 376 340
f 339 342 373
f 343 373 342
f 343 377 373
f 340 376 341
f 379 343 385
f 379 377 343
f 375 374 382
f 376 378 383
f 341 383 306
f 376 383 341
f 385 343 384
f 378 375 383
f 383 375 382
f 306 383 345
f 344 384 343
f 383 382 389
f 383 390 345
f 344 286 387
f 343 286 344
f 385 384 379
f 379 384 344
f 388 382 381
f 389 382 388
f 383 389 386
f 390 383 386
f 345 390 284
f 286 348 387
f 379 344 387
f 284 390 346
f 387 348 392
f 379 387 391
f 396 443 379
f 391 396 379
f 395 388 381
f 389 388 395
f 386 389 395
f 391 387 392
f 390 386 394
f 394 386 395
f 390 394 346
f 349 392 348
f 392 396 391
f 395 393 399
f 394 395 397
f 392 349 398
f 400 392 398
f 403 396 392
f 400 403 392
f 397 395 399
f 394 397 350
f 398 352 353
f 349 352 398
f 400 398 353
f 402 399 410
f 397 399 402
f 397 402 350
f 400 353 404
f 407 399 401
f 410 399 409
f 409 399 407
f 402 410 350
f 404 353 406
f 406 353 356
f 404 403 400
f 405 407 401
f 406 356 411
f 410 409 418
f 411 356 408
f 411 404 406
f 413 407 405
f 409 407 413
f 357 408 356
f 357 411 408
f 410 418 415
f 410 415 350
f 356 318 357
f 417 357 318
f 417 411 357
f 409 413 414
f 418 409 414
f 417 318 416
f 414 413 420
f 415 418 425
f 415 425 359
f 318 360 416
f 417 416 422
f 422 448 417
f 425 418 414
f 359 425 363
f 421 420 419
f 414 420 424
f 360 364 416
f 420 421 423
f 423 426 420
f 420 426 424
f 425 414 424
f 416 364 429
f 422 416 427
f 427 416 429
f 427 448 422
f 425 424 363
f 426 430 431
f 424 426 428
f 424 428 363
f 364 434 429
f 428 426 432
f 432 426 431
f 427 429 450
f 450 429 434
f 433 435 430
f 432 431 428
f 428 431 430
f 450 434 437
f 430 435 367
f 428 430 367
f 428 367 366
f 437 434 436
f 367 435 281
f 434 329 436
f 330 436 329
f 299 436 330
f 437 436 299
f 299 438 437
f 435 438 331
f 281 435 331
f 372 371 439
f 372 439 375
f 375 439 374
f 377 440 439
f 374 440 382
f 439 440 374
f 377 379 440
f 380 440 379
f 382 380 381
f 440 380 382
f 380 379 441
f 380 441 381
f 441 379 442
f 441 442 381
f 379 443 442
f 442 443 381
f 381 443 395
f 443 396 444
f 395 444 393
f 443 444 395
f 393 444 399
f 444 403 445
f 396 403 444
f 444 445 399
f 399 445 401
f 403 404 445
f 401 445 405
f 445 404 405
f 404 411 405
f 411 446 405
f 413 446 412
f 405 446 413
f 411 417 446
f 412 446 417
f 413 412 420
f 412 417 447
f 447 417 448
f 420 447 419
f 412 447 420
f 447 448 419
f 421 419 423
f 419 448 427
f 430 423 427
f 423 419 427
f 426 423 430
f 449 427 450
f 427 449 430
f 449 450 433
f 449 433 430
f 433 450 451
f 450 437 451
f 433 451 437
f 435 452 438
f 433 452 435
f 438 433 437
f 452 433 438

