# https://github.com/mikedh/trimesh
v -0.02949909 -0.03017255 -0.00780930
v -0.02740576 -0.03190938 -0.00820472
v -0.02778078 -0.02930666 -0.01033618
v -0.02981811 -0.03005321 -0.00302563
v -0.02779005 -0.03210464 -0.00418867
v -0.02976342 -0.03000965 0.00192145
v -0.02778240 -0.03201897 0.00083545
v -0.02975073 -0.03001544 0.00674346
v -0.02775616 -0.03201597 0.00570313
v -0.02975031 -0.03001524 0.01155519
v -0.02775140 -0.03201338 0.01051310
v -0.02978793 -0.03003335 0.01655446
v -0.02769714 -0.03195534 0.01544252
v -0.02986139 -0.03005126 0.02181381
v -0.02773877 -0.03197919 0.02058583
v -0.02932305 -0.02941458 0.02592544
v -0.02814995 -0.03170486 0.02475845
v -0.02735775 -0.02934915 0.02711416
v -0.02981506 -0.02566118 -0.00866013
v -0.02777365 -0.02454577 -0.01059267
v -0.03044201 -0.02551256 -0.00414234
v -0.03038171 -0.02541811 0.00085077
v -0.03034094 -0.02541925 0.00570347
v -0.03034326 -0.02542175 0.01051181
v -0.03041671 -0.02543096 0.01539877
v -0.03051169 -0.02546651 0.02053917
v -0.02987971 -0.02535631 0.02526627
v -0.02776894 -0.02517654 0.02738849
v -0.02976071 -0.02067315 -0.00853653
v -0.02774528 -0.01960470 -0.01047945
v -0.03038250 -0.02047543 -0.00399223
v -0.03029642 -0.02034483 0.00104798
v -0.03023046 -0.02034358 0.00592573
v -0.03022937 -0.02034790 0.01073868
v -0.03030465 -0.02035360 0.01562345
v -0.03041700 -0.02035623 0.02069314
v -0.02982315 -0.02023250 0.02530382
v -0.02781066 -0.02003332 0.02736463
v -0.02973381 -0.01579913 -0.00847480
v -0.02779042 -0.01474495 -0.01039998
v -0.03034195 -0.01559450 -0.00389846
v -0.03023440 -0.01545375 0.00117731
v -0.03015717 -0.01545237 0.00606581
v -0.03015521 -0.01545828 0.01087823
v -0.03022962 -0.01546465 0.01576541
v -0.03034010 -0.01546474 0.02083756
v -0.02974828 -0.01532516 0.02542548
v -0.02775450 -0.01510276 0.02742214
v -0.02977612 -0.01092713 -0.00842905
v -0.02820987 -0.01027205 -0.01041244
v -0.03033016 -0.01076342 -0.00390467
v -0.03022954 -0.01063850 0.00117027
v -0.03015320 -0.01063763 0.00606009
v -0.03015161 -0.01064358 0.01087214
v -0.03022697 -0.01064877 0.01576046
v -0.03034054 -0.01064815 0.02083639
v -0.02974930 -0.01050830 0.02543045
v -0.02774812 -0.01028690 0.02742822
v -0.02981222 -0.00601321 -0.00829540
v -0.02737164 -0.00569514 -0.01078239
v -0.03033808 -0.00590362 -0.00387653
v -0.03022860 -0.00581663 0.00116832
v -0.03015583 -0.00581721 0.00605957
v -0.03015457 -0.00582188 0.01087345
v -0.03023205 -0.00582571 0.01576049
v -0.03036839 -0.00583395 0.02082699
v -0.02981335 -0.00570993 0.02542275
v -0.02781036 -0.00548462 0.02743995
v -0.02995149 -0.00103859 -0.00805241
v -0.02820809 0.00016632 -0.01111075
v -0.03043061 -0.00099341 -0.00368865
v -0.03029775 -0.00092330 0.00130159
v -0.03022588 -0.00092407 0.00619265
v -0.03022426 -0.00092740 0.01100844
v -0.03029278 -0.00093048 0.01588227
v -0.03044116 -0.00095915 0.02089372
v -0.02987939 -0.00091224 0.02542683
v -0.02789071 -0.00074441 0.02739905
v -0.03011701 0.00384074 -0.00800567
v -0.02751691 0.00509154 -0.01105776
v -0.03055112 0.00392945 -0.00360070
v -0.03040499 0.00400665 0.00138647
v -0.03033633 0.00400453 0.00627722
v -0.03033498 0.00400109 0.01109127
v -0.03037742 0.00399827 0.01594028
v -0.03050688 0.00396923 0.02089884
v -0.02994278 0.00395735 0.02543469
v -0.02710158 0.00430358 0.02758627
v -0.02967123 0.00765901 -0.00861729
v -0.02699734 0.00964975 -0.01029223
v -0.03006238 0.00821192 -0.00478983
v -0.02988181 0.00833013 0.00022228
v -0.02981176 0.00830563 0.00514454
v -0.02981204 0.00830018 0.00996329
v -0.02983069 0.00829607 0.01479167
v -0.02993449 0.00828730 0.01973087
v -0.02968255 0.00830876 0.02452976
v -0.02733538 0.00869162 0.02775064
v -0.02818129 0.01098938 -0.00722679
v -0.02804556 0.01136195 -0.00246026
v -0.02795378 0.01133048 0.00252050
v -0.02792261 0.01135623 0.00738122
v -0.02792040 0.01137408 0.01224861
v -0.02798923 0.01137599 0.01716098
v -0.02802915 0.01144412 0.02217841
v -0.02729461 0.01149753 0.02612876
v -0.02468931 -0.02934722 -0.01285033
v -0.02233390 -0.03170475 -0.01364304
v -0.02350062 -0.02941252 -0.01481571
v -0.02587465 -0.02969804 -0.00813124
v -0.02239922 -0.03051545 -0.01167750
v -0.02575272 -0.03011102 -0.00406363
v -0.02577872 -0.03003928 0.00100573
v -0.02575931 -0.03001740 0.00592509
v -0.02575604 -0.03001621 0.01073763
v -0.02568456 -0.02989460 0.01564166
v -0.02562804 -0.02985696 0.02076558
v -0.02618465 -0.03051614 0.02482388
v -0.02496535 -0.02517864 -0.01326102
v -0.02284363 -0.02535701 -0.01536994
v -0.02574938 -0.02567803 -0.00858316
v -0.02303568 -0.02640322 -0.01113855
v -0.02510941 -0.02554982 -0.00397053
v -0.02514770 -0.02545198 0.00113617
v -0.02516649 -0.02542625 0.00606521
v -0.02516462 -0.02542731 0.01087914
v -0.02509066 -0.02528392 0.01576546
v -0.02499609 -0.02512987 0.02087574
v -0.02564631 -0.02640451 0.02546056
v -0.02495039 -0.02008707 -0.01331311
v -0.02288351 -0.02023162 -0.01530723
v -0.02575111 -0.02069333 -0.00851435
v -0.02302748 -0.02118415 -0.01122125
v -0.02513638 -0.02050169 -0.00393434
v -0.02521553 -0.02035972 0.00116279
v -0.02527610 -0.02035069 0.00606726
v -0.02527751 -0.02035497 0.01087892
v -0.02520312 -0.02021426 0.01576275
v -0.02509117 -0.01998957 0.02084017
v -0.02571983 -0.02114519 0.02544268
v -0.02495476 -0.01516572 -0.01332181
v -0.02298493 -0.01528935 -0.01528384
v -0.02577577 -0.01582484 -0.00842057
v -0.02298724 -0.01622788 -0.01129949
v -0.02517387 -0.01560752 -0.00388069
v -0.02526891 -0.01545522 0.00116748
v -0.02534515 -0.01546125 0.00605518
v -0.02534860 -0.01546783 0.01086664
v -0.02527441 -0.01532856 0.01575405
v -0.02516265 -0.01510203 0.02082972
v -0.02575708 -0.01614586 0.02542426
v -0.02497078 -0.01104304 -0.01374670
v -0.02286677 -0.01042268 -0.01531903
v -0.02581848 -0.01070667 -0.00859684
v -0.02258873 -0.01020849 -0.01103545
v -0.02521953 -0.01083807 -0.00380134
v -0.02529715 -0.01063456 0.00119579
v -0.02534589 -0.01063983 0.00606034
v -0.02534715 -0.01064842 0.01087299
v -0.02527262 -0.01050930 0.01575938
v -0.02516108 -0.01028879 0.02083025
v -0.02575200 -0.01133071 0.02542395
v -0.02503861 -0.00684692 -0.01297720
v -0.02277071 -0.00555437 -0.01535370
v -0.02402571 -0.00754615 -0.00878261
v -0.02490080 -0.00619355 -0.00382039
v -0.02300969 -0.00441929 -0.00629985
v -0.02541517 -0.00579762 0.00135132
v -0.02542830 -0.00573836 0.00620637
v -0.02541503 -0.00575200 0.01101280
v -0.02534179 -0.00563936 0.01587364
v -0.02521366 -0.00545760 0.02089088
v -0.02577167 -0.00651703 0.02543815
v -0.02577677 -0.00198440 -0.01357940
v -0.02276390 -0.00071915 -0.01537262
v -0.02503828 -0.00091703 -0.00293639
v -0.02320957 0.00032499 -0.00613464
v -0.02562448 -0.00089290 0.00140808
v -0.02557078 -0.00080457 0.00627574
v -0.02552777 -0.00081939 0.01109292
v -0.02547381 -0.00076371 0.01591913
v -0.02534632 -0.00065115 0.02089933
v -0.02588592 -0.00172920 0.02545599
v -0.02553636 0.00256039 -0.01349946
v -0.02183700 0.00437388 -0.01514527
v -0.02472181 0.00304393 -0.00367593
v -0.02332760 0.00371970 -0.00582129
v -0.02515396 0.00345500 0.00014170
v -0.02504605 0.00345616 0.00502234
v -0.02493453 0.00340602 0.00982737
v -0.02491134 0.00341658 0.01463760
v -0.02479248 0.00349688 0.01959903
v -0.02531570 0.00312371 0.02493956
v -0.02402907 0.00606296 -0.01311950
v -0.02292993 0.00934785 -0.01182891
v -0.02266118 0.00610847 -0.00360061
v -0.02311187 0.00643807 0.00234973
v -0.02292654 0.00631887 0.00716808
v -0.02285972 0.00629921 0.01190971
v -0.02277179 0.00638109 0.01683036
v -0.02266077 0.00643153 0.02192407
v -0.02335378 0.00647945 0.02594658
v -0.02325379 0.00928859 0.02767870
v -0.02559517 0.01304264 -0.00881214
v -0.02282732 0.01314566 -0.01036732
v -0.02554143 0.01380690 -0.00501616
v -0.02546932 0.01379241 0.00003469
v -0.02543660 0.01380458 0.00500124
v -0.02537081 0.01391544 0.00987597
v -0.02534420 0.01395597 0.01477513
v -0.02540315 0.01402207 0.01977338
v -0.02506151 0.01412907 0.02457152
v -0.02392766 0.01290119 0.02746148
v -0.02310687 0.01518997 -0.00779291
v -0.02265479 0.01623428 -0.00338157
v -0.02256647 0.01542430 0.00247466
v -0.02321978 0.01523357 0.00689931
v -0.02276264 0.01521460 0.01107091
v -0.02271415 0.01529717 0.01597176
v -0.02266253 0.01543560 0.02095475
v -0.02225156 0.01521707 0.02498869
v -0.01816133 -0.03197924 -0.01323187
v -0.01938921 -0.03005082 -0.01535453
v -0.01834050 -0.02985535 -0.01112053
v -0.01811557 -0.02546492 -0.01600142
v -0.01845266 -0.02513164 -0.01048820
v -0.01827053 -0.02033286 -0.01589696
v -0.01844985 -0.02004371 -0.01060401
v -0.01839868 -0.01538517 -0.01582780
v -0.01841105 -0.01518947 -0.01074624
v -0.01835571 -0.01051557 -0.01584817
v -0.01763618 -0.01107181 -0.01082465
v -0.01837555 -0.00566313 -0.01585748
v -0.02132296 -0.00610201 -0.00877952
v -0.01826347 -0.00611212 -0.01042801
v -0.01843158 -0.00076009 -0.01586226
v -0.02065216 -0.00199642 -0.00860419
v -0.01774911 -0.00071797 -0.01059097
v -0.01777509 0.00346703 -0.01588863
v -0.02083150 0.00317637 -0.00828027
v -0.01700648 0.00357554 -0.01042161
v -0.02114785 0.00828737 -0.01377521
v -0.01762728 0.00807434 -0.01514525
v -0.01901696 0.00653434 -0.00772171
v -0.02004742 0.00849750 -0.00425295
v -0.01687453 0.00873896 -0.00596760
v -0.02058643 0.00927984 0.00062124
v -0.02095852 0.00936852 0.00596904
v -0.02079204 0.00936599 0.01070418
v -0.02072713 0.00944937 0.01556812
v -0.02060409 0.00950883 0.02065609
v -0.02104476 0.00894610 0.02475691
v -0.01862320 0.01071215 -0.01314188
v -0.01771006 0.01332369 -0.01109434
v -0.01821719 0.01002920 -0.00268323
v -0.01788243 0.01164504 0.00094309
v -0.02063839 0.01330303 0.00549813
v -0.01854656 0.01452213 0.00288024
v -0.02076796 0.01323881 0.01091981
v -0.02070391 0.01333941 0.01579111
v -0.02059224 0.01344150 0.02081870
v -0.02087771 0.01254799 0.02532812
v -0.01956217 0.01628495 -0.00806383
v -0.02024410 0.01837870 -0.00441582
v -0.01705151 0.01872912 -0.00624206
v -0.02056278 0.01791476 0.00079572
v -0.01802584 0.01633205 0.00609329
v -0.02018715 0.01880817 0.00509492
v -0.02014694 0.01835755 0.00952608
v -0.01818725 0.01633113 0.01183913
v -0.02018809 0.01829998 0.01433772
v -0.01809202 0.01624503 0.01674446
v -0.02018744 0.01832648 0.01934125
v -0.01805985 0.01623624 0.02189346
v -0.01980571 0.01833460 0.02430588
v -0.01821175 0.01657506 0.02545670
v -0.01753159 0.01793976 0.02702694
v -0.01801630 0.02022777 -0.00266523
v -0.01807727 0.02043067 0.00203761
v -0.01812911 0.02034343 0.00694021
v -0.01817130 0.02028642 0.01178385
v -0.01821712 0.02037171 0.01670183
v -0.01824043 0.02044556 0.02187828
v -0.01760793 0.01990550 0.02595322
v -0.01301806 -0.03195525 -0.01319016
v -0.01413000 -0.03003389 -0.01528129
v -0.01321590 -0.02989279 -0.01117679
v -0.01297486 -0.02543195 -0.01590876
v -0.01334423 -0.02528345 -0.01058174
v -0.01320142 -0.02035273 -0.01579441
v -0.01338822 -0.02021548 -0.01070707
v -0.01334285 -0.01546175 -0.01572055
v -0.01340112 -0.01533812 -0.01083642
v -0.01334504 -0.01064462 -0.01572078
v -0.01339329 -0.01050138 -0.01089274
v -0.01340745 -0.00578964 -0.01572829
v -0.01347551 -0.00559653 -0.01100228
v -0.01353334 -0.00086361 -0.01578569
v -0.01353122 -0.00073205 -0.01115472
v -0.01356204 0.00409999 -0.01586224
v -0.01242273 0.00345615 -0.01060012
v -0.01237988 0.00842612 -0.01532933
v -0.01466634 0.00643451 -0.00877185
v -0.01213659 0.00941758 -0.00613401
v -0.01454363 0.01145694 -0.01345382
v -0.01215651 0.01386851 -0.01101701
v -0.01477268 0.01125745 -0.00291011
v -0.01539563 0.01306979 0.00051475
v -0.01272611 0.01375453 -0.00167606
v -0.01364845 0.01576060 -0.00804982
v -0.01234430 0.01810971 -0.00577303
v -0.01325951 0.01523200 0.00192832
v -0.01291702 0.01584099 0.00653059
v -0.01362834 0.01578551 0.01069576
v -0.01347032 0.01564675 0.01557855
v -0.01332402 0.01555835 0.02069131
v -0.01459855 0.01623513 0.02533354
v -0.01336836 0.01835689 0.02734073
v -0.01363111 0.02049642 -0.00355938
v -0.01361396 0.02102443 0.00083063
v -0.01355779 0.02092471 0.00575428
v -0.01357659 0.02088026 0.01063987
v -0.01359036 0.02096521 0.01554069
v -0.01362788 0.02107587 0.02065541
v -0.01352237 0.02045527 0.02533084
v -0.00808777 -0.03201338 -0.01324506
v -0.00913072 -0.03001553 -0.01524366
v -0.00830898 -0.03001619 -0.01124954
v -0.00808705 -0.02542319 -0.01583727
v -0.00845150 -0.02542521 -0.01065549
v -0.00831369 -0.02035157 -0.01572403
v -0.00847475 -0.02033324 -0.01076720
v -0.00845149 -0.01546533 -0.01565055
v -0.00848561 -0.01541358 -0.01085303
v -0.00844967 -0.01065057 -0.01564880
v -0.00849189 -0.01059380 -0.01088055
v -0.00847315 -0.00580760 -0.01565457
v -0.00862637 -0.00573221 -0.01095663
v -0.00861260 -0.00088214 -0.01572939
v -0.00870157 -0.00082069 -0.01104474
v -0.00866992 0.00404582 -0.01584352
v -0.00751118 0.00344163 -0.01045526
v -0.00752898 0.00831999 -0.01531538
v -0.00978389 0.00634356 -0.00859295
v -0.00773946 0.00865364 -0.00666375
v -0.00972517 0.01141536 -0.01345331
v -0.00730165 0.01379509 -0.01095603
v -0.01174293 0.01380583 -0.00475569
v -0.00813786 0.01278168 -0.00600632
v -0.00918516 0.01512588 -0.00880945
v -0.00901420 0.01602384 -0.00315677
v -0.00798866 0.01891634 -0.00549642
v -0.00799993 0.01594490 0.00167912
v -0.00861849 0.01594378 0.00583810
v -0.00861191 0.01589046 0.01068289
v -0.00841667 0.01575897 0.01561242
v -0.00815076 0.01564010 0.02069960
v -0.00931838 0.01627781 0.02531929
v -0.00819319 0.01836394 0.02736392
v -0.00869906 0.02044264 -0.00353083
v -0.00863149 0.02094566 0.00088764
v -0.00851428 0.02083934 0.00586165
v -0.00850620 0.02077885 0.01073689
v -0.00851403 0.02085389 0.01562578
v -0.00851522 0.02096871 0.02069627
v -0.00839036 0.02037508 0.02530963
v -0.00327297 -0.03201839 -0.01325007
v -0.00431597 -0.03001612 -0.01524556
v -0.00349352 -0.03002055 -0.01125066
v -0.00327392 -0.02542150 -0.01583597
v -0.00363202 -0.02542816 -0.01065638
v -0.00349496 -0.02034802 -0.01572475
v -0.00363188 -0.02035137 -0.01076547
v -0.00363199 -0.01545940 -0.01565191
v -0.00361990 -0.01546352 -0.01083460
v -0.00362387 -0.01064581 -0.01564921
v -0.00362660 -0.01064874 -0.01083357
v -0.00362470 -0.00582308 -0.01565281
v -0.00376320 -0.00575641 -0.01089873
v -0.00375862 -0.00092841 -0.01572385
v -0.00384255 -0.00081923 -0.01100579
v -0.00384544 0.00400093 -0.01583415
v -0.00266149 0.00345591 -0.01046296
v -0.00271470 0.00830077 -0.01531031
v -0.00490013 0.00634439 -0.00851545
v -0.00317836 0.00909987 -0.00594675
v -0.00489646 0.01131758 -0.01343827
v -0.00244817 0.01369856 -0.01094287
v -0.00411105 0.01171317 -0.00384685
v -0.00547717 0.01454384 -0.00394468
v -0.00243464 0.01349748 -0.00150699
v -0.00489854 0.01536302 -0.00802338
v -0.00356528 0.01792020 -0.00591999
v -0.00407102 0.01550244 0.00082108
v -0.00374201 0.01599283 0.00587678
v -0.00370376 0.01593602 0.01076946
v -0.00351205 0.01582667 0.01573475
v -0.00326051 0.01571313 0.02083064
v -0.00430287 0.01630791 0.02542181
v -0.00326194 0.01830685 0.02742496
v -0.00378730 0.02042840 -0.00347667
v -0.00370936 0.02090666 0.00095834
v -0.00362093 0.02077679 0.00598837
v -0.00361468 0.02070782 0.01087616
v -0.00362503 0.02078095 0.01576235
v -0.00362548 0.02089485 0.02083146
v -0.00348556 0.02030242 0.02542096
v 0.00154774 -0.03201317 -0.01324696
v 0.00050064 -0.03001359 -0.01524642
v 0.00132714 -0.03001391 -0.01124737
v 0.00154776 -0.02542149 -0.01583925
v 0.00118905 -0.02542270 -0.01065430
v 0.00132672 -0.02034784 -0.01572819
v 0.00119144 -0.02035005 -0.01076470
v 0.00118862 -0.01545852 -0.01565540
v 0.00120491 -0.01546383 -0.01083307
v 0.00119710 -0.01064514 -0.01565260
v 0.00119957 -0.01064595 -0.01083142
v 0.00119870 -0.00582491 -0.01565520
v 0.00106353 -0.00575264 -0.01089896
v 0.00106443 -0.00093035 -0.01572451
v 0.00097911 -0.00081714 -0.01101128
v 0.00097630 0.00400457 -0.01583452
v 0.00213565 0.00347045 -0.01048767
v 0.00210995 0.00830443 -0.01531056
v -0.00002121 0.00636917 -0.00854785
v 0.00233519 0.00865027 -0.00602546
v -0.00006206 0.01126330 -0.01343289
v 0.00236739 0.01360519 -0.01093638
v -0.00010214 0.01099689 -0.00353606
v 0.00208280 0.01356242 -0.00125452
v 0.00002963 0.01606687 -0.00857688
v 0.00220915 0.01854182 -0.00627430
v 0.00097360 0.01544475 0.00168893
v 0.00106228 0.01600682 0.00595420
v 0.00118510 0.01594422 0.01084403
v 0.00133203 0.01582488 0.01576437
v 0.00155386 0.01571486 0.02083986
v 0.00051040 0.01630739 0.02543254
v 0.00155192 0.01830308 0.02742762
v 0.00108265 0.02040510 -0.00335867
v 0.00113380 0.02091866 0.00099736
v 0.00120373 0.02077789 0.00599206
v 0.00120398 0.02070704 0.01088150
v 0.00119292 0.02078087 0.01576723
v 0.00119130 0.02089526 0.02083749
v 0.00133029 0.02030234 0.02542902
v 0.00637299 -0.03201293 -0.01324678
v 0.00532589 -0.03001346 -0.01524637
v 0.00615197 -0.03001344 -0.01124731
v 0.00637302 -0.02542167 -0.01583934
v 0.00601309 -0.02542153 -0.01065453
v 0.00615179 -0.02034797 -0.01572821
v 0.00601476 -0.02034801 -0.01076570
v 0.00601328 -0.01545835 -0.01565545
v 0.00602799 -0.01546168 -0.01083504
v 0.00602119 -0.01064415 -0.01565275
v 0.00602287 -0.01064472 -0.01083372
v 0.00602281 -0.00582312 -0.01565546
v 0.00588784 -0.00575298 -0.01090004
v 0.00588919 -0.00092846 -0.01572485
v 0.00580009 -0.00081690 -0.01101141
v 0.00580151 0.00400691 -0.01583516
v 0.00693740 0.00348375 -0.01048871
v 0.00693566 0.00830723 -0.01531095
v 0.00479984 0.00639010 -0.00859565
v 0.00717797 0.00870368 -0.00607345
v 0.00475982 0.01123886 -0.01341923
v 0.00715912 0.01354326 -0.01089585
v 0.00475661 0.01108032 -0.00362992
v 0.00692722 0.01365422 -0.00134808
v 0.00481860 0.01601201 -0.00852371
v 0.00696534 0.01849880 -0.00619440
v 0.00579168 0.01554235 0.00161910
v 0.00588761 0.01606730 0.00593109
v 0.00602131 0.01596181 0.01082986
v 0.00616013 0.01582302 0.01576374
v 0.00637446 0.01571147 0.02083399
v 0.00532594 0.01630671 0.02542344
v 0.00637273 0.01830621 0.02742233
v 0.00585704 0.02040547 -0.00327386
v 0.00592024 0.02091229 0.00104155
v 0.00602340 0.02078107 0.00598877
v 0.00602532 0.02070968 0.01087454
v 0.00601451 0.02078410 0.01576075
v 0.00601300 0.02089870 0.02083091
v 0.00615183 0.02030583 0.02542291
v 0.01119813 -0.03201309 -0.01324686
v 0.01015110 -0.03001359 -0.01524637
v 0.01097709 -0.03001357 -0.01124736
v 0.01119813 -0.02542167 -0.01583926
v 0.01083819 -0.02542156 -0.01065458
v 0.01097694 -0.02034798 -0.01572814
v 0.01083983 -0.02034804 -0.01076577
v 0.01083842 -0.01545834 -0.01565542
v 0.01085303 -0.01546181 -0.01083511
v 0.01084630 -0.01064407 -0.01565276
v 0.01084801 -0.01064497 -0.01083368
v 0.01084796 -0.00582306 -0.01565552
v 0.01071381 -0.00575371 -0.01089958
v 0.01071436 -0.00092850 -0.01572494
v 0.01062561 -0.00081747 -0.01101017
v 0.01062669 0.00400720 -0.01583545
v 0.01175992 0.00348439 -0.01048671
v 0.01176128 0.00830861 -0.01531186
v 0.00958849 0.00641689 -0.00859645
v 0.01198404 0.00871937 -0.00607212
v 0.00958471 0.01123880 -0.01341784
v 0.01198155 0.01354023 -0.01089410
v 0.00958740 0.01113210 -0.00366161
v 0.01176137 0.01365619 -0.00135930
v 0.00958624 0.01595483 -0.00848166
v 0.01175907 0.01847703 -0.00617980
v 0.01062631 0.01554997 0.00157343
v 0.01070777 0.01607693 0.00587408
v 0.01084081 0.01596582 0.01080224
v 0.01098403 0.01582233 0.01575952
v 0.01119815 0.01571078 0.02083307
v 0.01015075 0.01630671 0.02542253
v 0.01119804 0.01830635 0.02742218
v 0.01062643 0.02037151 -0.00324688
v 0.01071375 0.02089568 0.00105514
v 0.01084545 0.02078003 0.00598744
v 0.01085136 0.02070999 0.01087276
v 0.01083974 0.02078413 0.01576052
v 0.01083821 0.02089873 0.02083072
v 0.01097704 0.02030586 0.02542265
v 0.01602323 -0.03201313 -0.01324688
v 0.01497615 -0.03001359 -0.01524639
v 0.01580221 -0.03001366 -0.01124731
v 0.01602323 -0.02542168 -0.01583930
v 0.01566327 -0.02542168 -0.01065444
v 0.01580205 -0.02034802 -0.01572815
v 0.01566493 -0.02034807 -0.01076566
v 0.01566354 -0.01545840 -0.01565536
v 0.01567818 -0.01546172 -0.01083510
v 0.01567142 -0.01064413 -0.01565268
v 0.01567323 -0.01064485 -0.01083374
v 0.01567309 -0.00582312 -0.01565545
v 0.01553935 -0.00575382 -0.01089962
v 0.01553950 -0.00092857 -0.01572488
v 0.01545178 -0.00081808 -0.01101016
v 0.01545185 0.00400717 -0.01583542
v 0.01658643 0.00348345 -0.01048670
v 0.01658653 0.00830869 -0.01531190
v 0.01441048 0.00641676 -0.00859433
v 0.01680860 0.00871747 -0.00607057
v 0.01441134 0.01124125 -0.01341951
v 0.01680887 0.01354266 -0.01089575
v 0.01441119 0.01113095 -0.00365881
v 0.01658675 0.01365360 -0.00135689
v 0.01440998 0.01595395 -0.00848224
v 0.01658607 0.01847865 -0.00618175
v 0.01545222 0.01554612 0.00157519
v 0.01553293 0.01607329 0.00587231
v 0.01566487 0.01596339 0.01080021
v 0.01580853 0.01582112 0.01576002
v 0.01602317 0.01571045 0.02083387
v 0.01497595 0.01630668 0.02542283
v 0.01602324 0.01830625 0.02742236
v 0.01545045 0.02037037 -0.00324846
v 0.01553735 0.02089350 0.00105344
v 0.01567177 0.02077982 0.00598539
v 0.01567774 0.02071039 0.01087183
v 0.01566497 0.02078416 0.01576064
v 0.01566331 0.02089876 0.02083098
v 0.01580221 0.02030582 0.02542288
v 0.02084743 -0.03201306 -0.01324622
v 0.01980113 -0.03001364 -0.01524623
v 0.02062494 -0.03001289 -0.01124637
v 0.02084761 -0.02542172 -0.01583855
v 0.02048472 -0.02541936 -0.01065414
v 0.02062541 -0.02034803 -0.01572643
v 0.02048605 -0.02034377 -0.01076680
v 0.02048589 -0.01545845 -0.01565267
v 0.02049959 -0.01545585 -0.01083765
v 0.02049320 -0.01064427 -0.01564938
v 0.02049488 -0.01063824 -0.01083704
v 0.02049474 -0.00582330 -0.01565197
v 0.02036110 -0.00574710 -0.01090313
v 0.02036120 -0.00092873 -0.01572143
v 0.02027358 -0.00081140 -0.01101367
v 0.02027355 0.00400694 -0.01583201
v 0.02140747 0.00349051 -0.01049001
v 0.02140745 0.00830773 -0.01530851
v 0.01923642 0.00641624 -0.00859437
v 0.02163266 0.00871862 -0.00607064
v 0.01923651 0.01124120 -0.01341956
v 0.02163264 0.01354140 -0.01089575
v 0.01923643 0.01113004 -0.00365804
v 0.02140759 0.01365760 -0.00135655
v 0.01923642 0.01595505 -0.00848334
v 0.02140682 0.01847507 -0.00618736
v 0.02027358 0.01554946 0.00157628
v 0.02035450 0.01607626 0.00587433
v 0.02048729 0.01596573 0.01080238
v 0.02063208 0.01582264 0.01576137
v 0.02084765 0.01571117 0.02083434
v 0.01980096 0.01630686 0.02542293
v 0.02084743 0.01830691 0.02742229
v 0.02027333 0.02036794 -0.00325567
v 0.02036103 0.02089135 0.00104567
v 0.02049485 0.02077740 0.00597810
v 0.02049962 0.02070813 0.01086580
v 0.02048609 0.02078303 0.01575639
v 0.02048474 0.02089905 0.02082868
v 0.02062494 0.02030676 0.02542211
v 0.02566840 -0.03201073 -0.01324682
v 0.02462321 -0.03001307 -0.01524476
v 0.02544730 -0.03000961 -0.01125010
v 0.02566828 -0.02542055 -0.01583783
v 0.02530602 -0.02541810 -0.01065681
v 0.02544599 -0.02034674 -0.01572758
v 0.02530399 -0.02034486 -0.01076612
v 0.02530572 -0.01545759 -0.01565403
v 0.02531660 -0.01545651 -0.01083643
v 0.02531152 -0.01064392 -0.01564947
v 0.02531243 -0.01063740 -0.01083713
v 0.02531235 -0.00582318 -0.01565133
v 0.02517863 -0.00574565 -0.01090378
v 0.02517872 -0.00092877 -0.01572078
v 0.02508978 -0.00080949 -0.01101365
v 0.02508977 0.00400601 -0.01583126
v 0.02622323 0.00349190 -0.01048952
v 0.02622304 0.00830817 -0.01530639
v 0.02405504 0.00642417 -0.00859733
v 0.02645006 0.00872481 -0.00607379
v 0.02405496 0.01123869 -0.01341585
v 0.02644917 0.01353960 -0.01089230
v 0.02405504 0.01113534 -0.00365833
v 0.02622336 0.01365814 -0.00135877
v 0.02405411 0.01594994 -0.00848626
v 0.02622517 0.01847160 -0.00618556
v 0.02508981 0.01555088 0.00157571
v 0.02517274 0.01607631 0.00587401
v 0.02530714 0.01596444 0.01080163
v 0.02545269 0.01582156 0.01576016
v 0.02566834 0.01571193 0.02083317
v 0.02462305 0.01630834 0.02542233
v 0.02566841 0.01830632 0.02741995
v 0.02508998 0.02036427 -0.00325464
v 0.02517834 0.02088950 0.00104493
v 0.02531246 0.02077712 0.00597714
v 0.02531663 0.02070942 0.01086644
v 0.02530400 0.02078373 0.01575750
v 0.02530602 0.02089638 0.02082743
v 0.02544731 0.02030303 0.02541882
v 0.03053880 -0.03201894 -0.01327464
v 0.02945476 -0.03001089 -0.01525736
v 0.03035420 -0.03005334 -0.01126487
v 0.03052501 -0.02541958 -0.01587454
v 0.03021233 -0.02551248 -0.01063037
v 0.03032721 -0.02034389 -0.01578902
v 0.03019648 -0.02047489 -0.01070482
v 0.03019741 -0.01545144 -0.01572769
v 0.03020580 -0.01559704 -0.01076295
v 0.03020280 -0.01063684 -0.01572369
v 0.03020198 -0.01077709 -0.01076334
v 0.03020199 -0.00581643 -0.01572415
v 0.03006697 -0.00588375 -0.01082967
v 0.03006699 -0.00092246 -0.01579293
v 0.02998082 -0.00094845 -0.01094090
v 0.02998054 0.00401642 -0.01590149
v 0.03114674 0.00334390 -0.01042764
v 0.03114701 0.00834514 -0.01537654
v 0.02888417 0.00641397 -0.00859787
v 0.03133216 0.00867183 -0.00607229
v 0.02888370 0.01125365 -0.01341280
v 0.03133205 0.01359551 -0.01089644
v 0.02888417 0.01112295 -0.00366274
v 0.03114615 0.01356420 -0.00136378
v 0.02888551 0.01596227 -0.00848302
v 0.03117268 0.01855732 -0.00611630
v 0.02998066 0.01547616 0.00156617
v 0.03006275 0.01600243 0.00586559
v 0.03019882 0.01589081 0.01079541
v 0.03033392 0.01576012 0.01575731
v 0.03052507 0.01567522 0.02083218
v 0.02945460 0.01629575 0.02542014
v 0.03053880 0.01827850 0.02742816
v 0.02999638 0.02043438 -0.00313346
v 0.03006946 0.02096006 0.00118616
v 0.03020209 0.02084803 0.00611886
v 0.03020596 0.02078155 0.01100689
v 0.03019645 0.02084503 0.01588745
v 0.03021232 0.02092288 0.02092180
v 0.03035420 0.02028826 0.02546256
v 0.03553038 -0.03210479 -0.01325014
v 0.03439719 -0.03003932 -0.01529980
v 0.03540275 -0.03017257 -0.01121087
v 0.03551350 -0.02545215 -0.01591532
v 0.03530442 -0.02566098 -0.01057847
v 0.03536483 -0.02035997 -0.01586350
v 0.03527209 -0.02067254 -0.01061924
v 0.03527068 -0.01545371 -0.01583705
v 0.03527948 -0.01581906 -0.01065261
v 0.03527838 -0.01063568 -0.01583641
v 0.03527500 -0.01099835 -0.01064969
v 0.03527504 -0.00581466 -0.01583449
v 0.03514199 -0.00610619 -0.01071968
v 0.03514180 -0.00091991 -0.01590258
v 0.03508914 -0.00118030 -0.01086220
v 0.03508961 0.00402868 -0.01602292
v 0.03625743 0.00312708 -0.01035733
v 0.03626566 0.00830745 -0.01553991
v 0.03386804 0.00626362 -0.00854503
v 0.03633658 0.00857356 -0.00600506
v 0.03387193 0.01131592 -0.01350133
v 0.03634593 0.01363558 -0.01101855
v 0.03386719 0.01101078 -0.00364574
v 0.03625619 0.01347653 -0.00128424
v 0.03388335 0.01607209 -0.00848588
v 0.03626455 0.01868608 -0.00607413
v 0.03508720 0.01535770 0.00159498
v 0.03513848 0.01588919 0.00586441
v 0.03527148 0.01578142 0.01079587
v 0.03537158 0.01568562 0.01577335
v 0.03551356 0.01563444 0.02086477
v 0.03439702 0.01625330 0.02544857
v 0.03553039 0.01830300 0.02751401
v 0.03508307 0.02060634 -0.00300783
v 0.03514823 0.02112678 0.00137952
v 0.03527318 0.02098399 0.00634794
v 0.03528071 0.02089024 0.01123239
v 0.03527243 0.02092799 0.01608571
v 0.03530434 0.02097473 0.02107026
v 0.03540275 0.02034234 0.02558175
v 0.03955060 -0.03190939 -0.01286997
v 0.03915926 -0.03011119 -0.01496669
v 0.03996363 -0.02930682 -0.01152702
v 0.04002501 -0.02555031 -0.01528284
v 0.03989159 -0.02454468 -0.01119400
v 0.03990561 -0.02050169 -0.01522892
v 0.03986330 -0.01960220 -0.01123650
v 0.03986201 -0.01559474 -0.01524375
v 0.03987214 -0.01477347 -0.01124478
v 0.03987196 -0.01077530 -0.01524335
v 0.03986821 -0.00995512 -0.01124121
v 0.03986816 -0.00595623 -0.01523978
v 0.03974299 -0.00508161 -0.01134925
v 0.03974307 -0.00107674 -0.01533508
v 0.03969795 -0.00015133 -0.01149876
v 0.03970253 0.00383760 -0.01549633
v 0.04028040 0.00392230 -0.01065305
v 0.04028344 0.00773816 -0.01510540
v 0.03873552 0.00636922 -0.00849395
v 0.04033306 0.00917841 -0.00601725
v 0.03874192 0.01096941 -0.01364761
v 0.04033592 0.01298130 -0.01109301
v 0.03873551 0.01127009 -0.00357162
v 0.04029927 0.01419658 -0.00114785
v 0.03876276 0.01584694 -0.00854956
v 0.04029371 0.01806040 -0.00603181
v 0.03971457 0.01597464 0.00181989
v 0.03974074 0.01648626 0.00605571
v 0.03986089 0.01637565 0.01093756
v 0.03991232 0.01632011 0.01591377
v 0.04002511 0.01626691 0.02096294
v 0.03915909 0.01658643 0.02552044
v 0.03955060 0.01868324 0.02731855
v 0.03918260 0.02023184 -0.00354402
v 0.03968566 0.02065152 0.00029075
v 0.03983061 0.02050444 0.00525969
v 0.03986361 0.02035867 0.01018257
v 0.03986677 0.02031087 0.01501735
v 0.03989193 0.02035589 0.01995586
v 0.03996349 0.02002615 0.02471603
v 0.04176183 -0.02969816 -0.01362374
v 0.04195723 -0.02567795 -0.01324357
v 0.04187106 -0.02068621 -0.01321926
v 0.04186350 -0.01581570 -0.01324674
v 0.04187630 -0.01100085 -0.01323978
v 0.04185867 -0.00619002 -0.01325678
v 0.04171447 -0.00127284 -0.01341681
v 0.04186555 0.00415783 -0.01306991
v 0.04200354 0.00956094 -0.01246726
v 0.04214770 0.00831306 -0.00906578
v 0.04217784 0.01390667 -0.00805630
v 0.04216683 0.01328847 -0.00403267
v 0.04203168 0.01814237 -0.00320960
v 0.04193532 0.01784201 0.00119634
v 0.04178327 0.01847616 0.00634275
v 0.04185725 0.01837359 0.01118776
v 0.04187685 0.01833040 0.01609701
v 0.04195743 0.01830618 0.02109012
v 0.04176163 0.01792937 0.02510745
f 3 2 1
f 5 4 1
f 5 1 2
f 7 6 4
f 7 4 5
f 9 8 6
f 9 6 7
f 11 10 8
f 11 8 9
f 13 12 10
f 13 10 11
f 15 14 12
f 15 12 13
f 17 16 14
f 17 14 15
f 18 16 17
f 3 1 19
f 3 19 20
f 21 1 4
f 19 1 21
f 22 4 6
f 21 4 22
f 23 6 8
f 22 6 23
f 24 8 10
f 23 8 24
f 25 10 12
f 24 10 25
f 26 12 14
f 25 12 26
f 27 14 16
f 26 14 27
f 16 18 28
f 16 28 27
f 20 19 29
f 20 29 30
f 31 19 21
f 29 19 31
f 32 21 22
f 31 21 32
f 33 22 23
f 32 22 33
f 34 23 24
f 33 23 34
f 35 24 25
f 34 24 35
f 36 25 26
f 35 25 36
f 37 26 27
f 36 26 37
f 27 28 38
f 27 38 37
f 30 29 39
f 30 39 40
f 41 29 31
f 39 29 41
f 42 31 32
f 41 31 42
f 43 32 33
f 42 32 43
f 44 33 34
f 43 33 44
f 45 34 35
f 44 34 45
f 46 35 36
f 45 35 46
f 47 36 37
f 46 36 47
f 37 38 48
f 37 48 47
f 40 39 49
f 40 49 50
f 51 39 41
f 49 39 51
f 52 41 42
f 51 41 52
f 53 42 43
f 52 42 53
f 54 43 44
f 53 43 54
f 55 44 45
f 54 44 55
f 56 45 46
f 55 45 56
f 57 46 47
f 56 46 57
f 47 48 58
f 47 58 57
f 50 49 59
f 50 59 60
f 61 49 51
f 59 49 61
f 62 51 52
f 61 51 62
f 63 52 53
f 62 52 63
f 64 53 54
f 63 53 64
f 65 54 55
f 64 54 65
f 66 55 56
f 65 55 66
f 67 56 57
f 66 56 67
f 57 58 68
f 57 68 67
f 60 59 69
f 60 69 70
f 71 59 61
f 69 59 71
f 72 61 62
f 71 61 72
f 73 62 63
f 72 62 73
f 74 63 64
f 73 63 74
f 75 64 65
f 74 64 75
f 76 65 66
f 75 65 76
f 77 66 67
f 76 66 77
f 67 68 78
f 67 78 77
f 70 69 79
f 70 79 80
f 81 69 71
f 79 69 81
f 82 71 72
f 81 71 82
f 83 72 73
f 82 72 83
f 84 73 74
f 83 73 84
f 85 74 75
f 84 74 85
f 86 75 76
f 85 75 86
f 87 76 77
f 86 76 87
f 77 78 88
f 77 88 87
f 80 79 89
f 80 89 90
f 91 79 81
f 89 79 91
f 92 81 82
f 91 81 92
f 93 82 83
f 92 82 93
f 94 83 84
f 93 83 94
f 95 84 85
f 94 84 95
f 96 85 86
f 95 85 96
f 97 86 87
f 96 86 97
f 87 88 98
f 87 98 97
f 99 90 89
f 99 89 91
f 99 91 100
f 100 91 92
f 100 92 101
f 101 92 93
f 101 93 102
f 102 93 94
f 102 94 103
f 103 94 95
f 103 95 104
f 104 95 96
f 104 96 105
f 105 96 97
f 105 97 106
f 106 97 98
f 109 108 107
f 110 2 3
f 111 107 108
f 112 5 2
f 112 2 110
f 113 7 5
f 113 5 112
f 114 9 7
f 114 7 113
f 115 11 9
f 115 9 114
f 116 13 11
f 116 11 115
f 117 15 13
f 117 13 116
f 118 17 15
f 118 15 117
f 118 18 17
f 109 107 119
f 109 119 120
f 110 3 121
f 20 121 3
f 122 107 111
f 107 122 119
f 110 123 112
f 110 121 123
f 112 124 113
f 112 123 124
f 113 125 114
f 113 124 125
f 114 126 115
f 114 125 126
f 115 127 116
f 115 126 127
f 116 128 117
f 116 127 128
f 117 129 118
f 117 128 129
f 129 28 18
f 129 18 118
f 120 119 130
f 120 130 131
f 121 20 132
f 30 132 20
f 133 119 122
f 119 133 130
f 121 134 123
f 121 132 134
f 123 135 124
f 123 134 135
f 124 136 125
f 124 135 136
f 125 137 126
f 125 136 137
f 126 138 127
f 126 137 138
f 127 139 128
f 127 138 139
f 128 140 129
f 128 139 140
f 140 38 28
f 140 28 129
f 131 130 141
f 131 141 142
f 132 30 143
f 40 143 30
f 144 130 133
f 130 144 141
f 132 145 134
f 132 143 145
f 134 146 135
f 134 145 146
f 135 147 136
f 135 146 147
f 136 148 137
f 136 147 148
f 137 149 138
f 137 148 149
f 138 150 139
f 138 149 150
f 139 151 140
f 139 150 151
f 151 48 38
f 151 38 140
f 142 141 152
f 142 152 153
f 143 40 154
f 50 154 40
f 155 141 144
f 141 155 152
f 143 156 145
f 143 154 156
f 145 157 146
f 145 156 157
f 146 158 147
f 146 157 158
f 147 159 148
f 147 158 159
f 148 160 149
f 148 159 160
f 149 161 150
f 149 160 161
f 150 162 151
f 150 161 162
f 162 58 48
f 162 48 151
f 153 152 163
f 153 163 164
f 60 154 50
f 154 60 165
f 163 165 60
f 165 163 155
f 152 155 163
f 167 166 165
f 166 154 165
f 166 156 154
f 156 168 157
f 156 166 168
f 157 169 158
f 157 168 169
f 158 170 159
f 158 169 170
f 159 171 160
f 159 170 171
f 160 172 161
f 160 171 172
f 161 173 162
f 161 172 173
f 173 68 58
f 173 58 162
f 164 163 174
f 164 174 175
f 70 174 60
f 60 174 163
f 166 167 176
f 176 167 177
f 166 178 168
f 166 176 178
f 168 179 169
f 168 178 179
f 169 180 170
f 169 179 180
f 170 181 171
f 170 180 181
f 171 182 172
f 171 181 182
f 172 183 173
f 172 182 183
f 183 78 68
f 183 68 173
f 175 174 184
f 175 184 185
f 80 184 70
f 70 184 174
f 176 177 186
f 186 177 187
f 176 188 178
f 176 186 188
f 178 189 179
f 178 188 189
f 179 190 180
f 179 189 190
f 180 191 181
f 180 190 191
f 181 192 182
f 181 191 192
f 182 193 183
f 182 192 193
f 193 88 78
f 193 78 183
f 194 185 184
f 184 80 194
f 80 195 194
f 80 90 195
f 187 196 186
f 186 196 188
f 188 196 197
f 188 197 189
f 189 197 198
f 189 198 190
f 190 198 199
f 190 199 191
f 191 199 200
f 191 200 192
f 192 200 201
f 192 201 193
f 193 201 202
f 88 193 202
f 203 88 202
f 98 88 203
f 90 99 204
f 205 90 204
f 195 90 205
f 100 206 99
f 99 206 204
f 101 207 100
f 100 207 206
f 102 208 101
f 101 208 207
f 103 209 102
f 102 209 208
f 104 210 103
f 103 210 209
f 105 211 104
f 104 211 210
f 106 212 105
f 105 212 211
f 213 212 106
f 98 213 106
f 203 213 98
f 214 205 204
f 214 204 206
f 214 206 215
f 215 206 207
f 215 207 216
f 216 207 208
f 216 208 217
f 217 208 209
f 217 209 218
f 218 209 210
f 218 210 219
f 219 210 211
f 219 211 220
f 220 211 212
f 220 212 221
f 221 212 213
f 223 222 108
f 223 108 109
f 111 108 222
f 111 222 224
f 120 223 109
f 120 225 223
f 224 122 111
f 226 122 224
f 131 225 120
f 131 227 225
f 226 133 122
f 228 133 226
f 142 227 131
f 142 229 227
f 228 144 133
f 230 144 228
f 153 229 142
f 153 231 229
f 230 155 144
f 232 155 230
f 164 231 153
f 164 233 231
f 165 155 234
f 155 235 234
f 155 232 235
f 234 167 165
f 175 233 164
f 175 236 233
f 234 235 237
f 237 235 238
f 237 177 167
f 237 167 234
f 185 236 175
f 185 239 236
f 237 238 240
f 240 238 241
f 240 187 177
f 240 177 237
f 185 194 242
f 243 185 242
f 239 185 243
f 241 244 240
f 242 194 195
f 244 246 245
f 244 245 196
f 240 244 196
f 187 240 196
f 247 197 196
f 247 196 245
f 248 198 197
f 248 197 247
f 249 199 198
f 249 198 248
f 250 200 199
f 250 199 249
f 251 201 200
f 251 200 250
f 252 202 201
f 252 201 251
f 252 203 202
f 253 243 242
f 242 195 253
f 195 254 253
f 195 205 254
f 246 255 245
f 245 255 247
f 247 255 256
f 258 257 256
f 257 247 256
f 257 248 247
f 248 259 249
f 248 257 259
f 249 260 250
f 249 259 260
f 250 261 251
f 250 260 261
f 251 262 252
f 251 261 262
f 262 213 203
f 262 203 252
f 263 254 205
f 263 205 214
f 265 263 264
f 263 215 264
f 263 214 215
f 216 266 215
f 215 266 264
f 217 257 216
f 258 216 257
f 216 258 266
f 267 266 258
f 266 267 268
f 270 269 267
f 268 267 269
f 257 218 259
f 218 257 217
f 272 271 270
f 269 270 271
f 259 219 260
f 219 259 218
f 274 273 272
f 271 272 273
f 260 220 261
f 220 260 219
f 276 275 274
f 273 274 275
f 261 221 262
f 221 261 220
f 221 213 262
f 275 276 277
f 278 265 264
f 278 264 266
f 278 266 279
f 279 266 268
f 279 268 280
f 280 268 269
f 280 269 281
f 281 269 271
f 281 271 282
f 282 271 273
f 282 273 283
f 283 273 275
f 283 275 284
f 284 275 277
f 286 285 222
f 286 222 223
f 224 222 285
f 224 285 287
f 225 286 223
f 225 288 286
f 287 226 224
f 289 226 287
f 227 288 225
f 227 290 288
f 289 228 226
f 291 228 289
f 229 290 227
f 229 292 290
f 291 230 228
f 293 230 291
f 231 292 229
f 231 294 292
f 293 232 230
f 295 232 293
f 233 294 231
f 233 296 294
f 295 235 232
f 297 235 295
f 236 296 233
f 236 298 296
f 297 238 235
f 299 238 297
f 239 298 236
f 239 300 298
f 299 241 238
f 301 241 299
f 243 300 239
f 243 302 300
f 301 303 241
f 241 303 244
f 246 244 303
f 246 303 304
f 305 302 243
f 305 243 253
f 253 254 305
f 305 254 306
f 304 307 246
f 246 307 255
f 307 309 308
f 256 307 308
f 255 307 256
f 308 258 256
f 310 306 254
f 310 254 263
f 263 265 310
f 310 265 311
f 309 312 308
f 308 312 258
f 312 267 258
f 312 313 267
f 267 314 270
f 313 314 267
f 270 315 272
f 314 315 270
f 272 316 274
f 315 316 272
f 274 317 276
f 316 317 274
f 277 276 317
f 277 317 318
f 319 311 265
f 319 265 278
f 320 278 279
f 320 319 278
f 321 279 280
f 321 320 279
f 322 280 281
f 322 321 280
f 323 281 282
f 323 322 281
f 324 282 283
f 324 323 282
f 325 283 284
f 325 324 283
f 284 277 318
f 284 318 325
f 327 326 285
f 327 285 286
f 287 285 326
f 287 326 328
f 288 327 286
f 288 329 327
f 328 289 287
f 330 289 328
f 290 329 288
f 290 331 329
f 330 291 289
f 332 291 330
f 292 331 290
f 292 333 331
f 332 293 291
f 334 293 332
f 294 333 292
f 294 335 333
f 334 295 293
f 336 295 334
f 296 335 294
f 296 337 335
f 336 297 295
f 338 297 336
f 298 337 296
f 298 339 337
f 338 299 297
f 340 299 338
f 300 339 298
f 300 341 339
f 340 301 299
f 342 301 340
f 302 341 300
f 302 343 341
f 342 344 301
f 301 344 303
f 304 303 344
f 304 344 345
f 346 343 302
f 346 302 305
f 305 306 346
f 346 306 347
f 307 304 348
f 304 349 348
f 304 345 349
f 348 309 307
f 350 347 306
f 350 306 310
f 310 349 350
f 349 310 348
f 311 348 310
f 348 311 351
f 352 351 311
f 348 351 309
f 351 312 309
f 351 353 312
f 312 354 313
f 353 354 312
f 313 355 314
f 354 355 313
f 314 356 315
f 355 356 314
f 315 357 316
f 356 357 315
f 316 358 317
f 357 358 316
f 318 317 358
f 318 358 359
f 360 352 311
f 360 311 319
f 361 319 320
f 361 360 319
f 362 320 321
f 362 361 320
f 363 321 322
f 363 362 321
f 364 322 323
f 364 363 322
f 365 323 324
f 365 364 323
f 366 324 325
f 366 365 324
f 325 318 359
f 325 359 366
f 368 367 326
f 368 326 327
f 328 326 367
f 328 367 369
f 329 368 327
f 329 370 368
f 369 330 328
f 371 330 369
f 331 370 329
f 331 372 370
f 371 332 330
f 373 332 371
f 333 372 331
f 333 374 372
f 373 334 332
f 375 334 373
f 335 374 333
f 335 376 374
f 375 336 334
f 377 336 375
f 337 376 335
f 337 378 376
f 377 338 336
f 379 338 377
f 339 378 337
f 339 380 378
f 379 340 338
f 381 340 379
f 341 380 339
f 341 382 380
f 381 342 340
f 383 342 381
f 343 382 341
f 343 384 382
f 383 385 342
f 342 385 344
f 345 344 385
f 345 385 386
f 387 384 343
f 387 343 346
f 346 347 387
f 387 347 388
f 390 349 389
f 349 386 389
f 349 345 386
f 391 390 389
f 392 388 347
f 392 347 350
f 350 349 392
f 390 392 349
f 392 390 393
f 351 393 390
f 393 351 352
f 391 394 390
f 394 351 390
f 394 353 351
f 353 395 354
f 394 395 353
f 354 396 355
f 395 396 354
f 355 397 356
f 396 397 355
f 356 398 357
f 397 398 356
f 357 399 358
f 398 399 357
f 359 358 399
f 359 399 400
f 401 393 352
f 401 352 360
f 402 360 361
f 402 401 360
f 403 361 362
f 403 402 361
f 404 362 363
f 404 403 362
f 405 363 364
f 405 404 363
f 406 364 365
f 406 405 364
f 407 365 366
f 407 406 365
f 366 359 400
f 366 400 407
f 409 408 367
f 409 367 368
f 369 367 408
f 369 408 410
f 370 409 368
f 370 411 409
f 410 371 369
f 412 371 410
f 372 411 370
f 372 413 411
f 412 373 371
f 414 373 412
f 374 413 372
f 374 415 413
f 414 375 373
f 416 375 414
f 376 415 374
f 376 417 415
f 416 377 375
f 418 377 416
f 378 417 376
f 378 419 417
f 418 379 377
f 420 379 418
f 380 419 378
f 380 421 419
f 420 381 379
f 422 381 420
f 382 421 380
f 382 423 421
f 422 383 381
f 424 383 422
f 384 423 382
f 384 425 423
f 424 426 383
f 383 426 385
f 386 385 426
f 386 426 427
f 428 425 384
f 428 384 387
f 387 388 428
f 428 388 429
f 427 430 386
f 386 430 389
f 391 389 430
f 391 430 431
f 432 429 388
f 432 388 392
f 392 393 432
f 432 393 433
f 431 434 391
f 391 434 394
f 394 435 395
f 434 435 394
f 395 436 396
f 435 436 395
f 396 437 397
f 436 437 396
f 397 438 398
f 437 438 397
f 398 439 399
f 438 439 398
f 400 399 439
f 400 439 440
f 441 433 393
f 441 393 401
f 442 401 402
f 442 441 401
f 443 402 403
f 443 442 402
f 444 403 404
f 444 443 403
f 445 404 405
f 445 444 404
f 446 405 406
f 446 445 405
f 447 406 407
f 447 446 406
f 407 400 440
f 407 440 447
f 449 448 408
f 449 408 409
f 410 408 448
f 410 448 450
f 411 449 409
f 411 451 449
f 450 412 410
f 452 412 450
f 413 451 411
f 413 453 451
f 452 414 412
f 454 414 452
f 415 453 413
f 415 455 453
f 454 416 414
f 456 416 454
f 417 455 415
f 417 457 455
f 456 418 416
f 458 418 456
f 419 457 417
f 419 459 457
f 458 420 418
f 460 420 458
f 421 459 419
f 421 461 459
f 460 422 420
f 462 422 460
f 423 461 421
f 423 463 461
f 462 424 422
f 464 424 462
f 425 463 423
f 425 465 463
f 464 466 424
f 424 466 426
f 427 426 466
f 427 466 467
f 468 465 425
f 468 425 428
f 428 429 468
f 468 429 469
f 467 470 427
f 427 470 430
f 431 430 470
f 431 470 471
f 472 469 429
f 472 429 432
f 432 433 472
f 472 433 473
f 471 474 431
f 431 474 434
f 434 475 435
f 474 475 434
f 435 476 436
f 475 476 435
f 436 477 437
f 476 477 436
f 437 478 438
f 477 478 437
f 438 479 439
f 478 479 438
f 440 439 479
f 440 479 480
f 481 473 433
f 481 433 441
f 482 441 442
f 482 481 441
f 483 442 443
f 483 482 442
f 484 443 444
f 484 483 443
f 485 444 445
f 485 484 444
f 486 445 446
f 486 485 445
f 487 446 447
f 487 486 446
f 447 440 480
f 447 480 487
f 489 488 448
f 489 448 449
f 450 448 488
f 450 488 490
f 451 489 449
f 451 491 489
f 490 452 450
f 492 452 490
f 453 491 451
f 453 493 491
f 492 454 452
f 494 454 492
f 455 493 453
f 455 495 493
f 494 456 454
f 496 456 494
f 457 495 455
f 457 497 495
f 496 458 456
f 498 458 496
f 459 497 457
f 459 499 497
f 498 460 458
f 500 460 498
f 461 499 459
f 461 501 499
f 500 462 460
f 502 462 500
f 463 501 461
f 463 503 501
f 502 464 462
f 504 464 502
f 465 503 463
f 465 505 503
f 504 506 464
f 464 506 466
f 467 466 506
f 467 506 507
f 508 505 465
f 508 465 468
f 468 469 508
f 508 469 509
f 507 510 467
f 467 510 470
f 471 470 510
f 471 510 511
f 512 509 469
f 512 469 472
f 472 473 512
f 512 473 513
f 511 514 471
f 471 514 474
f 474 515 475
f 514 515 474
f 475 516 476
f 515 516 475
f 476 517 477
f 516 517 476
f 477 518 478
f 517 518 477
f 478 519 479
f 518 519 478
f 480 479 519
f 480 519 520
f 521 513 473
f 521 473 481
f 522 481 482
f 522 521 481
f 523 482 483
f 523 522 482
f 524 483 484
f 524 523 483
f 525 484 485
f 525 524 484
f 526 485 486
f 526 525 485
f 527 486 487
f 527 526 486
f 487 480 520
f 487 520 527
f 529 528 488
f 529 488 489
f 490 488 528
f 490 528 530
f 491 529 489
f 491 531 529
f 530 492 490
f 532 492 530
f 493 531 491
f 493 533 531
f 532 494 492
f 534 494 532
f 495 533 493
f 495 535 533
f 534 496 494
f 536 496 534
f 497 535 495
f 497 537 535
f 536 498 496
f 538 498 536
f 499 537 497
f 499 539 537
f 538 500 498
f 540 500 538
f 501 539 499
f 501 541 539
f 540 502 500
f 542 502 540
f 503 541 501
f 503 543 541
f 542 504 502
f 544 504 542
f 505 543 503
f 505 545 543
f 544 546 504
f 504 546 506
f 507 506 546
f 507 546 547
f 548 545 505
f 548 505 508
f 508 509 548
f 548 509 549
f 547 550 507
f 507 550 510
f 511 510 550
f 511 550 551
f 552 549 509
f 552 509 512
f 512 513 552
f 552 513 553
f 551 554 511
f 511 554 514
f 514 555 515
f 554 555 514
f 515 556 516
f 555 556 515
f 516 557 517
f 556 557 516
f 517 558 518
f 557 558 517
f 518 559 519
f 558 559 518
f 520 519 559
f 520 559 560
f 561 553 513
f 561 513 521
f 562 521 522
f 562 561 521
f 563 522 523
f 563 562 522
f 564 523 524
f 564 563 523
f 565 524 525
f 565 564 524
f 566 525 526
f 566 565 525
f 567 526 527
f 567 566 526
f 527 520 560
f 527 560 567
f 569 568 528
f 569 528 529
f 530 528 568
f 530 568 570
f 531 569 529
f 531 571 569
f 570 532 530
f 572 532 570
f 533 571 531
f 533 573 571
f 572 534 532
f 574 534 572
f 535 573 533
f 535 575 573
f 574 536 534
f 576 536 574
f 537 575 535
f 537 577 575
f 576 538 536
f 578 538 576
f 539 577 537
f 539 579 577
f 578 540 538
f 580 540 578
f 541 579 539
f 541 581 579
f 580 542 540
f 582 542 580
f 543 581 541
f 543 583 581
f 582 544 542
f 584 544 582
f 545 583 543
f 545 585 583
f 584 586 544
f 544 586 546
f 547 546 586
f 547 586 587
f 588 585 545
f 588 545 548
f 548 549 588
f 588 549 589
f 587 590 547
f 547 590 550
f 551 550 590
f 551 590 591
f 592 589 549
f 592 549 552
f 552 553 592
f 592 553 593
f 591 594 551
f 551 594 554
f 554 595 555
f 594 595 554
f 555 596 556
f 595 596 555
f 556 597 557
f 596 597 556
f 557 598 558
f 597 598 557
f 558 599 559
f 598 599 558
f 560 559 599
f 560 599 600
f 601 593 553
f 601 553 561
f 602 561 562
f 602 601 561
f 603 562 563
f 603 602 562
f 604 563 564
f 604 603 563
f 605 564 565
f 605 604 564
f 606 565 566
f 606 605 565
f 607 566 567
f 607 606 566
f 567 560 600
f 567 600 607
f 609 608 568
f 609 568 569
f 570 568 608
f 570 608 610
f 571 609 569
f 571 611 609
f 610 572 570
f 612 572 610
f 573 611 571
f 573 613 611
f 612 574 572
f 614 574 612
f 575 613 573
f 575 615 613
f 614 576 574
f 616 576 614
f 577 615 575
f 577 617 615
f 616 578 576
f 618 578 616
f 579 617 577
f 579 619 617
f 618 580 578
f 620 580 618
f 581 619 579
f 581 621 619
f 620 582 580
f 622 582 620
f 583 621 581
f 583 623 621
f 622 584 582
f 624 584 622
f 585 623 583
f 585 625 623
f 624 626 584
f 584 626 586
f 587 586 626
f 587 626 627
f 628 625 585
f 628 585 588
f 588 589 628
f 628 589 629
f 627 630 587
f 587 630 590
f 591 590 630
f 591 630 631
f 632 629 589
f 632 589 592
f 592 593 632
f 632 593 633
f 631 634 591
f 591 634 594
f 594 635 595
f 634 635 594
f 595 636 596
f 635 636 595
f 596 637 597
f 636 637 596
f 597 638 598
f 637 638 597
f 598 639 599
f 638 639 598
f 600 599 639
f 600 639 640
f 641 633 593
f 641 593 601
f 642 601 602
f 642 641 601
f 643 602 603
f 643 642 602
f 644 603 604
f 644 643 603
f 645 604 605
f 645 644 604
f 646 605 606
f 646 645 605
f 647 606 607
f 647 646 606
f 607 600 640
f 607 640 647
f 649 648 608
f 649 608 609
f 610 608 648
f 610 648 650
f 611 649 609
f 611 651 649
f 650 612 610
f 652 612 650
f 613 651 611
f 613 653 651
f 652 614 612
f 654 614 652
f 615 653 613
f 615 655 653
f 654 616 614
f 656 616 654
f 617 655 615
f 617 657 655
f 656 618 616
f 658 618 656
f 619 657 617
f 619 659 657
f 658 620 618
f 660 620 658
f 621 659 619
f 621 661 659
f 660 622 620
f 662 622 660
f 623 661 621
f 623 663 661
f 662 624 622
f 664 624 662
f 625 663 623
f 625 665 663
f 664 666 624
f 624 666 626
f 627 626 666
f 627 666 667
f 668 665 625
f 668 625 628
f 628 629 668
f 668 629 669
f 667 670 627
f 627 670 630
f 631 630 670
f 631 670 671
f 672 669 629
f 672 629 632
f 632 633 672
f 672 633 673
f 671 674 631
f 631 674 634
f 634 675 635
f 674 675 634
f 635 676 636
f 675 676 635
f 636 677 637
f 676 677 636
f 637 678 638
f 677 678 637
f 638 679 639
f 678 679 638
f 640 639 679
f 640 679 680
f 681 673 633
f 681 633 641
f 682 641 642
f 682 681 641
f 683 642 643
f 683 682 642
f 684 643 644
f 684 683 643
f 685 644 645
f 685 684 644
f 686 645 646
f 686 685 645
f 687 646 647
f 687 686 646
f 647 640 680
f 647 680 687
f 689 688 648
f 689 648 649
f 650 648 688
f 650 688 690
f 651 689 649
f 651 691 689
f 690 652 650
f 692 652 690
f 653 691 651
f 653 693 691
f 692 654 652
f 694 654 692
f 655 693 653
f 655 695 693
f 694 656 654
f 696 656 694
f 657 695 655
f 657 697 695
f 696 658 656
f 698 658 696
f 659 697 657
f 659 699 697
f 698 660 658
f 700 660 698
f 661 699 659
f 661 701 699
f 700 662 660
f 702 662 700
f 663 701 661
f 663 703 701
f 702 664 662
f 704 664 702
f 665 703 663
f 665 705 703
f 704 706 664
f 664 706 666
f 667 666 706
f 667 706 707
f 708 705 665
f 708 665 668
f 668 669 708
f 708 669 709
f 707 710 667
f 667 710 670
f 671 670 710
f 671 710 711
f 712 709 669
f 712 669 672
f 672 673 712
f 712 673 713
f 711 714 671
f 671 714 674
f 674 715 675
f 714 715 674
f 675 716 676
f 715 716 675
f 676 717 677
f 716 717 676
f 677 718 678
f 717 718 677
f 678 719 679
f 718 719 678
f 680 679 719
f 680 719 720
f 721 713 673
f 721 673 681
f 722 681 682
f 722 721 681
f 723 682 683
f 723 722 682
f 724 683 684
f 724 723 683
f 725 684 685
f 725 724 684
f 726 685 686
f 726 725 685
f 727 686 687
f 727 726 686
f 687 680 720
f 687 720 727
f 729 728 688
f 729 688 689
f 690 688 728
f 690 728 730
f 691 729 689
f 691 731 729
f 730 692 690
f 732 692 730
f 693 731 691
f 693 733 731
f 732 694 692
f 734 694 732
f 695 733 693
f 695 735 733
f 734 696 694
f 736 696 734
f 697 735 695
f 697 737 735
f 736 698 696
f 738 698 736
f 699 737 697
f 699 739 737
f 738 700 698
f 740 700 738
f 701 739 699
f 701 741 739
f 740 702 700
f 742 702 740
f 703 741 701
f 703 743 741
f 742 704 702
f 744 704 742
f 705 743 703
f 705 745 743
f 744 746 704
f 704 746 706
f 707 706 746
f 707 746 747
f 748 745 705
f 748 705 708
f 708 709 748
f 748 709 749
f 747 750 707
f 707 750 710
f 711 710 750
f 711 750 751
f 752 749 709
f 752 709 712
f 712 713 752
f 752 713 753
f 751 754 711
f 711 754 714
f 714 755 715
f 754 755 714
f 715 756 716
f 755 756 715
f 716 757 717
f 756 757 716
f 717 758 718
f 757 758 717
f 718 759 719
f 758 759 718
f 720 719 759
f 720 759 760
f 761 753 713
f 761 713 721
f 762 721 722
f 762 761 721
f 763 722 723
f 763 762 722
f 764 723 724
f 764 763 723
f 765 724 725
f 765 764 724
f 766 725 726
f 766 765 725
f 767 726 727
f 767 766 726
f 727 720 760
f 727 760 767
f 729 768 728
f 768 730 728
f 731 769 768
f 731 768 729
f 769 732 730
f 769 730 768
f 733 770 769
f 733 769 731
f 770 734 732
f 770 732 769
f 735 771 770
f 735 770 733
f 771 736 734
f 771 734 770
f 737 772 771
f 737 771 735
f 772 738 736
f 772 736 771
f 739 773 772
f 739 772 737
f 773 740 738
f 773 738 772
f 741 774 773
f 741 773 739
f 774 742 740
f 774 740 773
f 743 775 774
f 743 774 741
f 775 744 742
f 775 742 774
f 745 776 775
f 745 775 743
f 777 746 744
f 775 777 744
f 776 777 775
f 777 747 746
f 748 776 745
f 776 748 749
f 778 776 749
f 777 776 778
f 779 750 747
f 777 779 747
f 778 779 777
f 779 751 750
f 752 778 749
f 778 752 753
f 780 778 753
f 779 778 780
f 781 754 751
f 779 781 751
f 780 781 779
f 782 755 754
f 782 754 781
f 783 756 755
f 783 755 782
f 784 757 756
f 784 756 783
f 785 758 757
f 785 757 784
f 786 759 758
f 786 758 785
f 786 760 759
f 761 780 753
f 780 761 762
f 780 762 781
f 781 762 763
f 781 763 782
f 782 763 764
f 782 764 783
f 783 764 765
f 783 765 784
f 784 765 766
f 784 766 785
f 785 766 767
f 785 767 786
f 786 767 760

