# https://github.com/mikedh/trimesh
v -0.02399629 -0.04242647 -0.02456155
v -0.01918881 -0.04616269 -0.02704969
v -0.02112792 -0.04153885 -0.02960225
v -0.02442143 -0.04241330 -0.01636895
v -0.02012720 -0.04625229 -0.01914296
v -0.02420341 -0.04240365 -0.00784483
v -0.02085716 -0.04590900 -0.00969199
v -0.02422896 -0.04241673 0.00057880
v -0.02078589 -0.04590753 -0.00115474
v -0.02442347 -0.04239702 0.00933923
v -0.02093406 -0.04579715 0.00744996
v -0.02477473 -0.04214529 0.01835456
v -0.01977308 -0.04604023 0.01673338
v -0.02410415 -0.04110969 0.02533698
v -0.02137122 -0.04585644 0.02336621
v -0.01955436 -0.04313498 0.02792475
v -0.02453120 -0.03438650 -0.02601880
v -0.02004607 -0.03438721 -0.03028931
v -0.02546719 -0.03438900 -0.01833181
v -0.02526137 -0.03435861 -0.00973453
v -0.02516534 -0.03437782 -0.00126473
v -0.02532780 -0.03437717 0.00729649
v -0.02567458 -0.03415557 0.01617407
v -0.02489601 -0.03383398 0.02420160
v -0.02046649 -0.03597788 0.02881206
v -0.02447487 -0.02551789 -0.02582058
v -0.02013356 -0.02549792 -0.03004238
v -0.02533346 -0.02549706 -0.01813167
v -0.02508703 -0.02547284 -0.00941900
v -0.02497094 -0.02548265 -0.00086752
v -0.02509342 -0.02548572 0.00770388
v -0.02541477 -0.02524212 0.01646665
v -0.02468769 -0.02487275 0.02423516
v -0.02044635 -0.02684354 0.02867647
v -0.02457362 -0.01690181 -0.02569460
v -0.02034879 -0.01689926 -0.02992438
v -0.02529757 -0.01690155 -0.01796229
v -0.02497590 -0.01689887 -0.00919634
v -0.02484463 -0.01691039 -0.00062103
v -0.02496833 -0.01691323 0.00795573
v -0.02528793 -0.01666800 0.01672250
v -0.02456380 -0.01627481 0.02444556
v -0.02033819 -0.01810384 0.02866996
v -0.02458172 -0.00845207 -0.02569898
v -0.02035441 -0.00845306 -0.02992868
v -0.02530124 -0.00845135 -0.01796317
v -0.02497456 -0.00845205 -0.00919297
v -0.02484329 -0.00846457 -0.00061872
v -0.02496931 -0.00846512 0.00795307
v -0.02529116 -0.00821832 0.01671938
v -0.02456739 -0.00783117 0.02445494
v -0.02033610 -0.00966226 0.02867847
v -0.02457249 0.00000014 -0.02570511
v -0.02034278 -0.00000019 -0.02993490
v -0.02529675 0.00000047 -0.01796995
v -0.02497529 0.00000012 -0.00920149
v -0.02484764 -0.00001155 -0.00062929
v -0.02497528 -0.00000862 0.00794000
v -0.02530001 0.00023675 0.01670845
v -0.02457569 0.00059122 0.02447368
v -0.02032889 -0.00128519 0.02875229
v -0.02456625 0.00845308 -0.02571663
v -0.02033654 0.00845201 -0.02994404
v -0.02529049 0.00845366 -0.01798197
v -0.02496943 0.00845330 -0.00921320
v -0.02484297 0.00844198 -0.00063956
v -0.02497320 0.00844798 0.00793237
v -0.02530125 0.00868882 0.01670599
v -0.02458587 0.00895714 0.02452060
v -0.02030974 0.00699534 0.02884288
v -0.02456230 0.01689920 -0.02571149
v -0.02033217 0.01690176 -0.02993595
v -0.02528799 0.01689904 -0.01798251
v -0.02496853 0.01689965 -0.00921441
v -0.02484328 0.01688994 -0.00063673
v -0.02497295 0.01689829 0.00793846
v -0.02529394 0.01714131 0.01670359
v -0.02455966 0.01734222 0.02451538
v -0.02023880 0.01529725 0.02885372
v -0.02468110 0.02549755 -0.02549752
v -0.02045808 0.02551774 -0.02983726
v -0.02541187 0.02547333 -0.01772789
v -0.02509328 0.02547144 -0.00896219
v -0.02496894 0.02546604 -0.00039007
v -0.02508431 0.02547083 0.00816244
v -0.02536041 0.02570013 0.01686064
v -0.02453467 0.02590564 0.02454333
v -0.02022058 0.02378478 0.02887491
v -0.02492849 0.03438652 -0.02541044
v -0.02065719 0.03438706 -0.02988901
v -0.02566580 0.03438953 -0.01743687
v -0.02532241 0.03435921 -0.00855655
v -0.02516234 0.03436228 0.00000662
v -0.02525595 0.03435304 0.00847778
v -0.02552233 0.03449437 0.01705522
v -0.02468349 0.03468028 0.02466779
v -0.02027095 0.03252974 0.02895961
v -0.02424343 0.04153899 -0.02648659
v -0.01920500 0.04243304 -0.02935322
v -0.02484996 0.04242686 -0.01958699
v -0.02444647 0.04241378 -0.01059543
v -0.02422272 0.04239794 -0.00183769
v -0.02419293 0.04239295 0.00658732
v -0.02445135 0.04243357 0.01510475
v -0.02420801 0.04259437 0.02323651
v -0.02035909 0.04098827 0.02847404
v -0.02169545 0.04616704 -0.02454473
v -0.02003985 0.04625992 -0.01795663
v -0.02099332 0.04590034 -0.00869967
v -0.02077595 0.04589994 -0.00010280
v -0.02085112 0.04589431 0.00843575
v -0.02036775 0.04632349 0.01787161
v -0.01962062 0.04631406 0.02568425
v -0.01262580 -0.04624487 -0.02541289
v -0.01422747 -0.04242825 -0.03020567
v -0.01621483 -0.04239059 -0.01746181
v -0.01148142 -0.04236462 -0.02224058
v -0.01749864 -0.04239742 -0.00940507
v -0.01734754 -0.04240555 -0.00071053
v -0.01755235 -0.04219289 0.00792860
v -0.01657140 -0.04203216 0.01553312
v -0.01275502 -0.04312097 0.02028508
v -0.01315669 -0.04592581 0.02434648
v -0.01241998 -0.04205933 0.02871440
v -0.01207248 -0.03439190 -0.03102354
v -0.01592502 -0.03433962 -0.01698772
v -0.01178678 -0.03434260 -0.02133067
v -0.01657647 -0.03435160 -0.00930499
v -0.01634723 -0.03436907 -0.00053307
v -0.01652597 -0.03412861 0.00827597
v -0.01571088 -0.03381299 0.01589365
v -0.01119187 -0.03593498 0.01996910
v -0.01265638 -0.03384422 0.02970214
v -0.01236388 -0.02547535 -0.03076748
v -0.01610589 -0.02546862 -0.01713822
v -0.01179757 -0.02547149 -0.02148173
v -0.01677131 -0.02548275 -0.00945540
v -0.01652776 -0.02548619 -0.00060629
v -0.01670813 -0.02524017 0.00827770
v -0.01599624 -0.02483679 0.01600414
v -0.01157993 -0.02679162 0.02011827
v -0.01262445 -0.02483936 0.02951588
v -0.01262280 -0.01689951 -0.03064381
v -0.01611970 -0.01689178 -0.01724116
v -0.01177013 -0.01689508 -0.02158570
v -0.01683519 -0.01691175 -0.00952133
v -0.01663363 -0.01691328 -0.00063152
v -0.01682806 -0.01666791 0.00826467
v -0.01612660 -0.01626356 0.01599399
v -0.01190577 -0.01809607 0.02021953
v -0.01260759 -0.01626369 0.02938886
v -0.01262551 -0.00845320 -0.03064697
v -0.01611909 -0.00844181 -0.01724318
v -0.01177378 -0.00844122 -0.02158487
v -0.01683125 -0.00846308 -0.00951925
v -0.01663444 -0.00846364 -0.00062815
v -0.01684251 -0.00821736 0.00823405
v -0.01616445 -0.00781462 0.01590371
v -0.01197842 -0.00964738 0.02013611
v -0.01258698 -0.00787981 0.02946449
v -0.01261387 -0.00000006 -0.03065303
v -0.01612044 0.00001206 -0.01723915
v -0.01177665 0.00001452 -0.02158274
v -0.01683176 -0.00000840 -0.00951509
v -0.01663498 -0.00001269 -0.00062716
v -0.01683889 0.00020305 0.00817702
v -0.01615758 0.00056253 0.01577356
v -0.01203531 -0.00124712 0.01996552
v -0.01257359 0.00043636 0.02958979
v -0.01260693 0.00845167 -0.03065750
v -0.01612615 0.00846508 -0.01723858
v -0.01178235 0.00846770 -0.02158279
v -0.01683713 0.00844531 -0.00951524
v -0.01663648 0.00843964 -0.00062208
v -0.01679224 0.00860383 0.00818627
v -0.01597490 0.00892010 0.01573928
v -0.01153692 0.00690778 0.02087200
v -0.01249238 0.00958616 0.02873742
v -0.01260594 0.01690182 -0.03065394
v -0.01612570 0.01691135 -0.01723888
v -0.01178166 0.01691431 -0.02158753
v -0.01683609 0.01689264 -0.00951287
v -0.01663822 0.01689384 -0.00061745
v -0.01676699 0.01706070 0.00825137
v -0.01586878 0.01737942 0.01581188
v -0.01166119 0.01651925 0.02092313
v -0.01184828 0.01912874 0.02871283
v -0.01277496 0.02549778 -0.03068726
v -0.01600034 0.02548483 -0.01725159
v -0.01167525 0.02548587 -0.02157801
v -0.01670894 0.02546818 -0.00952560
v -0.01653140 0.02546902 -0.00064880
v -0.01675454 0.02564393 0.00821424
v -0.01591347 0.02590828 0.01584365
v -0.01256329 0.02480867 0.01981566
v -0.01369539 0.02692028 0.02978451
v -0.01298074 0.03439385 -0.03081696
v -0.01584259 0.03436859 -0.01716942
v -0.01151558 0.03435219 -0.02139913
v -0.01652318 0.03436462 -0.00952704
v -0.01634090 0.03435138 -0.00072490
v -0.01661125 0.03443969 0.00805636
v -0.01590601 0.03463864 0.01573814
v -0.01165798 0.03266985 0.01988072
v -0.01252103 0.03450928 0.02982198
v -0.01101110 0.04240096 -0.02988786
v -0.01680218 0.04239763 -0.01679412
v -0.01198548 0.04239804 -0.02169636
v -0.01758411 0.04239811 -0.00917963
v -0.01733372 0.04239301 -0.00054673
v -0.01752091 0.04240517 0.00815100
v -0.01642431 0.04254445 0.01619881
v -0.01108125 0.04185918 0.02077528
v -0.01263391 0.04259576 0.02879974
v -0.01371911 0.04625002 -0.02560204
v -0.01323367 0.04639169 0.02407808
v -0.00346141 -0.04582763 -0.02652667
v -0.00529154 -0.04239453 -0.02984834
v -0.00384900 -0.04231714 -0.02330580
v -0.00332294 -0.04571117 0.02514278
v -0.00536565 -0.04202830 0.02182639
v -0.00360836 -0.04220563 0.02850473
v -0.00322747 -0.03434635 -0.03070202
v -0.00396852 -0.03441394 -0.02240762
v -0.00348614 -0.03392863 0.02077803
v -0.00386574 -0.03412229 0.02943033
v -0.00359953 -0.02546674 -0.03044815
v -0.00378543 -0.02567211 -0.02258175
v -0.00384318 -0.02505517 0.02093880
v -0.00385657 -0.02524018 0.02919135
v -0.00385082 -0.01689151 -0.03032340
v -0.00371947 -0.01714089 -0.02262701
v -0.00408223 -0.01652712 0.02103365
v -0.00383178 -0.01669166 0.02909224
v -0.00385670 -0.00844169 -0.03032553
v -0.00372325 -0.00868666 -0.02262205
v -0.00426379 -0.00809268 0.02086998
v -0.00384774 -0.00830753 0.02924312
v -0.00384660 0.00001179 -0.03033047
v -0.00372625 -0.00022864 -0.02262218
v -0.00345711 0.00031394 0.02158487
v -0.00435952 0.00068145 0.02845982
v -0.00383800 0.00846386 -0.03032971
v -0.00373108 0.00822477 -0.02262320
v -0.00372217 0.00416867 0.02495415
v -0.00872875 0.00925401 0.02509565
v -0.00384088 0.01691082 -0.03033048
v -0.00373214 0.01667166 -0.02262930
v -0.00840529 0.01658195 0.02509976
v -0.00406503 0.02548725 -0.03043600
v -0.00365920 0.02523830 -0.02257228
v -0.00285302 0.02138289 0.02495113
v -0.00588624 0.02522443 0.02159535
v -0.00445480 0.02541398 0.02858151
v -0.00440207 0.03436446 -0.03065797
v -0.00350385 0.03410513 -0.02238150
v -0.00400077 0.03442119 0.02055668
v -0.00375031 0.03440893 0.02960254
v -0.00244380 0.04229274 -0.02982670
v -0.00370199 0.04216305 -0.02330269
v -0.00230064 0.04233238 0.02162475
v -0.00401146 0.04250109 0.02851703
v -0.00414859 0.04571940 -0.02659820
v -0.00433742 0.04598507 0.02507163
v 0.00595900 -0.04608275 -0.02575047
v 0.00335228 -0.04229664 -0.02976507
v 0.00429025 -0.04236373 -0.02185625
v 0.00543970 -0.04598552 0.02501716
v 0.00347547 -0.04233675 0.02165668
v 0.00506556 -0.04248565 0.02843233
v 0.00531313 -0.03431110 -0.03066152
v 0.00401621 -0.03458659 -0.02150356
v 0.00544409 -0.03444659 0.02063830
v 0.00484447 -0.03450935 0.02939975
v 0.00507193 -0.02546930 -0.03043367
v 0.00426479 -0.02599612 -0.02161507
v 0.00527549 -0.02577371 0.02084110
v 0.00484705 -0.02571708 0.02917217
v 0.00485395 -0.01689407 -0.03032461
v 0.00433654 -0.01752960 -0.02159021
v 0.00504751 -0.01732410 0.02085983
v 0.00484998 -0.01719337 0.02914221
v 0.00484584 -0.00844023 -0.03032742
v 0.00433205 -0.00907544 -0.02158798
v 0.00484145 -0.00884951 0.02073978
v 0.00476009 -0.00863162 0.02927280
v 0.00485335 0.00001435 -0.03033044
v 0.00433027 -0.00061606 -0.02158862
v 0.00696304 0.00012939 0.02150935
v 0.00546303 0.00002012 0.02849014
v 0.00486387 0.00846712 -0.03032605
v 0.00432721 0.00783713 -0.02159220
v 0.00385321 0.00394915 0.02495601
v 0.00486221 0.01691367 -0.03032486
v 0.00432818 0.01627873 -0.02160285
v 0.00460648 0.02548718 -0.03045073
v 0.00436044 0.02485000 -0.02148687
v 0.00478159 0.02116417 0.02489601
v 0.00438468 0.02509261 0.02137624
v 0.00537348 0.02475653 0.02856685
v 0.00419470 0.03433606 -0.03075537
v 0.00432521 0.03381106 -0.02122219
v 0.00484084 0.03393209 0.02046840
v 0.00486930 0.03419504 0.02959932
v 0.00623165 0.04227736 -0.02990859
v 0.00392437 0.04193657 -0.02216450
v 0.00656153 0.04200238 0.02176856
v 0.00459253 0.04220974 0.02852286
v 0.00484528 0.04589850 -0.02511766
v 0.00433850 0.04568808 0.02515949
v 0.01580713 -0.04691555 -0.02578456
v 0.01185234 -0.04230986 -0.02995651
v 0.00905375 -0.04163287 -0.01655235
v 0.01305968 -0.04699577 -0.01855363
v 0.00954738 -0.04231496 -0.00766767
v 0.01423754 -0.04677974 -0.00961544
v 0.00916243 -0.04199921 0.00102976
v 0.01396558 -0.04678071 -0.00105241
v 0.01020148 -0.04097705 0.00766152
v 0.01394963 -0.04606968 0.00713591
v 0.01443915 -0.04304374 0.01205885
v 0.01444562 -0.04620986 0.02392577
v 0.01249408 -0.04167419 0.02064572
v 0.01381506 -0.04248677 0.02868679
v 0.01387495 -0.03443828 -0.03090585
v 0.00844275 -0.03267271 -0.01733833
v 0.00885177 -0.03458307 -0.00966889
v 0.00828676 -0.03415978 -0.00087963
v 0.00937567 -0.03377844 0.00678932
v 0.01327289 -0.03602612 0.01211415
v 0.01331390 -0.03248432 0.01971239
v 0.01367008 -0.03452393 0.02960562
v 0.01377713 -0.02569690 -0.03071220
v 0.00865999 -0.02415558 -0.01726449
v 0.00918396 -0.02600994 -0.00949566
v 0.00862735 -0.02543078 -0.00063623
v 0.00966814 -0.02486568 0.00701965
v 0.01348754 -0.02703957 0.01231286
v 0.01324617 -0.02392181 0.01986352
v 0.01361435 -0.02581922 0.02945017
v 0.01361905 -0.01714062 -0.03064723
v 0.00868657 -0.01570912 -0.01723714
v 0.00927270 -0.01754413 -0.00938725
v 0.00875192 -0.01690063 -0.00043345
v 0.00979560 -0.01626324 0.00722945
v 0.01362610 -0.01833972 0.01249577
v 0.01303544 -0.01548501 0.01982822
v 0.01354561 -0.01728253 0.02946367
v 0.01361633 -0.00868523 -0.03065180
v 0.00868175 -0.00725177 -0.01723961
v 0.00926670 -0.00908992 -0.00938884
v 0.00874718 -0.00844793 -0.00042908
v 0.00979185 -0.00781262 0.00723713
v 0.01361928 -0.00988818 0.01250528
v 0.01289603 -0.00697501 0.01974285
v 0.01348413 -0.00864075 0.02959187
v 0.01362072 -0.00022889 -0.03065297
v 0.00868146 0.00120758 -0.01724051
v 0.00926473 -0.00063079 -0.00939091
v 0.00874370 0.00000844 -0.00043292
v 0.00978573 0.00064445 0.00723209
v 0.01358020 -0.00141199 0.01249885
v 0.01390984 0.00082558 0.01947697
v 0.01470133 -0.00120808 0.02971625
v 0.01363258 0.00822438 -0.03064705
v 0.00868466 0.00965498 -0.01725437
v 0.00926808 0.00782386 -0.00939816
v 0.00874432 0.00846473 -0.00043520
v 0.00978615 0.00910456 0.00722895
v 0.01354722 0.00709985 0.01246895
v 0.00946392 0.00876435 0.02504128
v 0.01294755 0.00903660 0.02064299
v 0.01285353 0.00643214 0.02871613
v 0.01363194 0.01667137 -0.03064229
v 0.00868347 0.01809948 -0.01723788
v 0.00927177 0.01627424 -0.00939038
v 0.00875051 0.01692264 -0.00043037
v 0.00979394 0.01755616 0.00722418
v 0.01358010 0.01556200 0.01240241
v 0.00984662 0.01609309 0.02498842
v 0.01281210 0.01865060 0.02060420
v 0.01349574 0.01596669 0.02873645
v 0.01337160 0.02524352 -0.03077200
v 0.00858375 0.02679365 -0.01692756
v 0.00916207 0.02484545 -0.00917651
v 0.00868097 0.02547759 -0.00027813
v 0.00977260 0.02606640 0.00730701
v 0.01363775 0.02397338 0.01241993
v 0.01308301 0.02706247 0.01958760
v 0.01359057 0.02527320 0.02971067
v 0.01308339 0.03410679 -0.03106126
v 0.00834489 0.03584499 -0.01672834
v 0.00895602 0.03369481 -0.00902735
v 0.00844522 0.03417685 -0.00023383
v 0.00954675 0.03469536 0.00737584
v 0.01351479 0.03252380 0.01257267
v 0.01261031 0.03604387 0.01969975
v 0.01362554 0.03409624 0.02979934
v 0.01523804 0.04204222 -0.03015454
v 0.00845385 0.04293494 -0.01831409
v 0.00991358 0.04176115 -0.01093406
v 0.00942086 0.04196549 -0.00219431
v 0.00992005 0.04240935 0.00586676
v 0.01325737 0.04075743 0.01206356
v 0.01400123 0.04310717 0.02033756
v 0.01341554 0.04215492 0.02879585
v 0.01315098 0.04674839 -0.02550831
v 0.01329235 0.04672026 -0.01664503
v 0.01408603 0.04655486 -0.00659276
v 0.01393372 0.04681853 0.00189392
v 0.01519365 0.04631310 0.00984022
v 0.01425100 0.04592539 0.02459417
v 0.02246074 -0.04608857 -0.02503277
v 0.01998443 -0.04245771 -0.02967413
v 0.02124203 -0.04686104 -0.01806229
v 0.02105072 -0.04671663 -0.00934044
v 0.02104382 -0.04669977 -0.00081892
v 0.02106522 -0.04663576 0.00779397
v 0.01662322 -0.04216484 0.01697093
v 0.02050802 -0.04617468 0.01699282
v 0.02086473 -0.04602173 0.02549880
v 0.02162681 -0.04068887 0.02836451
v 0.02153677 -0.03469421 -0.03008994
v 0.01627688 -0.03415472 0.01650378
v 0.02145020 -0.03222880 0.02879536
v 0.02142507 -0.02604362 -0.02994840
v 0.01643865 -0.02538238 0.01664443
v 0.02133589 -0.02354383 0.02868721
v 0.02134416 -0.01752893 -0.02993093
v 0.01640774 -0.01691659 0.01671855
v 0.02125024 -0.01500443 0.02869811
v 0.02134793 -0.00907445 -0.02993474
v 0.01627821 -0.00844091 0.01669523
v 0.02122459 -0.00639127 0.02880021
v 0.02134985 -0.00061626 -0.02993491
v 0.01619031 0.00008514 0.01661837
v 0.02123022 0.00221582 0.02886432
v 0.02136136 0.00783657 -0.02992850
v 0.01616142 0.00860652 0.01652022
v 0.02124348 0.01068669 0.02885617
v 0.02135163 0.01627934 -0.02992450
v 0.01626223 0.01706490 0.01647464
v 0.02131402 0.01897981 0.02883753
v 0.02113743 0.02487832 -0.03005473
v 0.01642964 0.02547510 0.01654544
v 0.02139224 0.02743210 0.02886362
v 0.02111015 0.03381362 -0.03024577
v 0.01611006 0.03413827 0.01663172
v 0.02138500 0.03632654 0.02900625
v 0.02228453 0.04098928 -0.02934117
v 0.01626669 0.04212620 0.01625311
v 0.02053328 0.04333217 0.02823385
v 0.02033523 0.04571421 -0.02670905
v 0.02123844 0.04658709 -0.01976695
v 0.02120395 0.04653372 -0.01078726
v 0.02092918 0.04668894 -0.00215471
v 0.02096369 0.04681290 0.00625406
v 0.02026153 0.04627072 0.01646075
v 0.02235396 0.04596532 0.02385821
v 0.02525815 -0.04096175 -0.02585183
v 0.02559362 -0.04241407 -0.01805174
v 0.02545789 -0.04219301 -0.00921902
v 0.02548696 -0.04208484 -0.00061439
v 0.02562563 -0.04193139 0.00796444
v 0.02591756 -0.04201602 0.01674191
v 0.02525570 -0.04327453 0.02372234
v 0.02573829 -0.03276594 -0.02575849
v 0.02652029 -0.03469464 -0.01802953
v 0.02632296 -0.03442660 -0.00922202
v 0.02628931 -0.03423656 -0.00062246
v 0.02642331 -0.03399160 0.00795402
v 0.02675657 -0.03394483 0.01676412
v 0.02601049 -0.03627928 0.02451406
v 0.02559409 -0.02416705 -0.02570133
v 0.02636188 -0.02604481 -0.01796919
v 0.02608314 -0.02571165 -0.00920108
v 0.02597351 -0.02547475 -0.00062770
v 0.02609808 -0.02522430 0.00794197
v 0.02641809 -0.02508945 0.01671291
v 0.02569542 -0.02736871 0.02449497
v 0.02557495 -0.01569488 -0.02570393
v 0.02629805 -0.01752902 -0.01796763
v 0.02597706 -0.01715252 -0.00919908
v 0.02584732 -0.01689804 -0.00062777
v 0.02597252 -0.01665431 0.00794281
v 0.02629336 -0.01652088 0.01670633
v 0.02556553 -0.01874098 0.02443879
v 0.02557909 -0.00723935 -0.02570525
v 0.02630260 -0.00907456 -0.01796992
v 0.02597949 -0.00869679 -0.00920137
v 0.02585018 -0.00844280 -0.00062912
v 0.02597851 -0.00820456 0.00794141
v 0.02629825 -0.00807152 0.01670552
v 0.02553525 -0.01025355 0.02444067
v 0.02557963 0.00121970 -0.02570491
v 0.02630371 -0.00061651 -0.01796982
v 0.02598257 -0.00024072 -0.00920129
v 0.02585488 0.00001166 -0.00062915
v 0.02598339 0.00024750 0.00794009
v 0.02630629 0.00038576 0.01670744
v 0.02552555 -0.00170287 0.02447278
v 0.02558288 0.00966580 -0.02569968
v 0.02629765 0.00783671 -0.01797013
v 0.02597638 0.00821285 -0.00920156
v 0.02585004 0.00846628 -0.00062905
v 0.02597947 0.00870565 0.00794016
v 0.02630840 0.00884218 0.01671029
v 0.02557042 0.00681033 0.02452167
v 0.02557189 0.01811314 -0.02570941
v 0.02629609 0.01628137 -0.01797600
v 0.02596960 0.01666515 -0.00920999
v 0.02584556 0.01692021 -0.00063513
v 0.02597632 0.01716188 0.00793674
v 0.02630226 0.01728793 0.01670348
v 0.02558952 0.01519190 0.02451671
v 0.02557503 0.02685114 -0.02580304
v 0.02642166 0.02485226 -0.01796790
v 0.02610139 0.02523488 -0.00919762
v 0.02597708 0.02549520 -0.00063196
v 0.02608517 0.02571756 0.00793549
v 0.02636080 0.02579799 0.01669973
v 0.02559862 0.02356341 0.02446584
v 0.02576645 0.03589616 -0.02568105
v 0.02670418 0.03373372 -0.01779719
v 0.02642805 0.03400015 -0.00896967
v 0.02631747 0.03427351 -0.00044805
v 0.02637877 0.03446407 0.00804856
v 0.02653941 0.03450493 0.01679140
v 0.02570548 0.03222255 0.02454324
v 0.02498919 0.04295219 -0.02474275
v 0.02586420 0.04183143 -0.01764464
v 0.02561218 0.04189142 -0.00880459
v 0.02546657 0.04215013 -0.00031794
v 0.02546940 0.04227640 0.00818031
v 0.02566375 0.04237567 0.01692638
v 0.02527350 0.04068780 0.02470128
f 3 2 1
f 5 4 1
f 5 1 2
f 7 6 4
f 7 4 5
f 9 8 6
f 9 6 7
f 11 10 8
f 11 8 9
f 13 12 10
f 13 10 11
f 15 14 12
f 15 12 13
f 16 14 15
f 3 1 17
f 3 17 18
f 19 1 4
f 17 1 19
f 20 4 6
f 19 4 20
f 21 6 8
f 20 6 21
f 22 8 10
f 21 8 22
f 23 10 12
f 22 10 23
f 24 12 14
f 23 12 24
f 14 16 25
f 14 25 24
f 18 17 26
f 18 26 27
f 28 17 19
f 26 17 28
f 29 19 20
f 28 19 29
f 30 20 21
f 29 20 30
f 31 21 22
f 30 21 31
f 32 22 23
f 31 22 32
f 33 23 24
f 32 23 33
f 24 25 34
f 24 34 33
f 27 26 35
f 27 35 36
f 37 26 28
f 35 26 37
f 38 28 29
f 37 28 38
f 39 29 30
f 38 29 39
f 40 30 31
f 39 30 40
f 41 31 32
f 40 31 41
f 42 32 33
f 41 32 42
f 33 34 43
f 33 43 42
f 36 35 44
f 36 44 45
f 46 35 37
f 44 35 46
f 47 37 38
f 46 37 47
f 48 38 39
f 47 38 48
f 49 39 40
f 48 39 49
f 50 40 41
f 49 40 50
f 51 41 42
f 50 41 51
f 42 43 52
f 42 52 51
f 45 44 53
f 45 53 54
f 55 44 46
f 53 44 55
f 56 46 47
f 55 46 56
f 57 47 48
f 56 47 57
f 58 48 49
f 57 48 58
f 59 49 50
f 58 49 59
f 60 50 51
f 59 50 60
f 51 52 61
f 51 61 60
f 54 53 62
f 54 62 63
f 64 53 55
f 62 53 64
f 65 55 56
f 64 55 65
f 66 56 57
f 65 56 66
f 67 57 58
f 66 57 67
f 68 58 59
f 67 58 68
f 69 59 60
f 68 59 69
f 60 61 70
f 60 70 69
f 63 62 71
f 63 71 72
f 73 62 64
f 71 62 73
f 74 64 65
f 73 64 74
f 75 65 66
f 74 65 75
f 76 66 67
f 75 66 76
f 77 67 68
f 76 67 77
f 78 68 69
f 77 68 78
f 69 70 79
f 69 79 78
f 72 71 80
f 72 80 81
f 82 71 73
f 80 71 82
f 83 73 74
f 82 73 83
f 84 74 75
f 83 74 84
f 85 75 76
f 84 75 85
f 86 76 77
f 85 76 86
f 87 77 78
f 86 77 87
f 78 79 88
f 78 88 87
f 81 80 89
f 81 89 90
f 91 80 82
f 89 80 91
f 92 82 83
f 91 82 92
f 93 83 84
f 92 83 93
f 94 84 85
f 93 84 94
f 95 85 86
f 94 85 95
f 96 86 87
f 95 86 96
f 87 88 97
f 87 97 96
f 90 89 98
f 90 98 99
f 100 89 91
f 98 89 100
f 101 91 92
f 100 91 101
f 102 92 93
f 101 92 102
f 103 93 94
f 102 93 103
f 104 94 95
f 103 94 104
f 105 95 96
f 104 95 105
f 96 97 106
f 96 106 105
f 107 99 98
f 107 98 100
f 107 100 108
f 108 100 101
f 108 101 109
f 109 101 102
f 109 102 110
f 110 102 103
f 110 103 111
f 111 103 104
f 111 104 112
f 112 104 105
f 112 105 113
f 113 105 106
f 115 114 2
f 115 2 3
f 114 117 116
f 5 114 116
f 2 114 5
f 118 7 5
f 118 5 116
f 119 9 7
f 119 7 118
f 120 11 9
f 120 9 119
f 121 13 11
f 121 11 120
f 13 121 122
f 123 13 122
f 15 13 123
f 16 15 123
f 16 123 124
f 18 115 3
f 18 125 115
f 116 117 126
f 126 117 127
f 116 128 118
f 116 126 128
f 118 129 119
f 118 128 129
f 119 130 120
f 119 129 130
f 120 131 121
f 120 130 131
f 122 121 132
f 132 121 131
f 124 25 16
f 133 25 124
f 27 125 18
f 27 134 125
f 126 127 135
f 135 127 136
f 126 137 128
f 126 135 137
f 128 138 129
f 128 137 138
f 129 139 130
f 129 138 139
f 130 140 131
f 130 139 140
f 132 131 141
f 141 131 140
f 133 34 25
f 142 34 133
f 36 134 27
f 36 143 134
f 135 136 144
f 144 136 145
f 135 146 137
f 135 144 146
f 137 147 138
f 137 146 147
f 138 148 139
f 138 147 148
f 139 149 140
f 139 148 149
f 141 140 150
f 150 140 149
f 142 43 34
f 151 43 142
f 45 143 36
f 45 152 143
f 144 145 153
f 153 145 154
f 144 155 146
f 144 153 155
f 146 156 147
f 146 155 156
f 147 157 148
f 147 156 157
f 148 158 149
f 148 157 158
f 150 149 159
f 159 149 158
f 151 52 43
f 160 52 151
f 54 152 45
f 54 161 152
f 153 154 162
f 162 154 163
f 153 164 155
f 153 162 164
f 155 165 156
f 155 164 165
f 156 166 157
f 156 165 166
f 157 167 158
f 157 166 167
f 159 158 168
f 168 158 167
f 160 61 52
f 169 61 160
f 63 161 54
f 63 170 161
f 162 163 171
f 171 163 172
f 162 173 164
f 162 171 173
f 164 174 165
f 164 173 174
f 165 175 166
f 165 174 175
f 166 176 167
f 166 175 176
f 168 167 177
f 177 167 176
f 169 70 61
f 178 70 169
f 72 170 63
f 72 179 170
f 171 172 180
f 180 172 181
f 171 182 173
f 171 180 182
f 173 183 174
f 173 182 183
f 174 184 175
f 174 183 184
f 175 185 176
f 175 184 185
f 177 176 186
f 186 176 185
f 178 79 70
f 187 79 178
f 81 179 72
f 81 188 179
f 180 181 189
f 189 181 190
f 180 191 182
f 180 189 191
f 182 192 183
f 182 191 192
f 183 193 184
f 183 192 193
f 184 194 185
f 184 193 194
f 186 185 195
f 195 185 194
f 187 88 79
f 196 88 187
f 90 188 81
f 90 197 188
f 189 190 198
f 198 190 199
f 189 200 191
f 189 198 200
f 191 201 192
f 191 200 201
f 192 202 193
f 192 201 202
f 193 203 194
f 193 202 203
f 195 194 204
f 204 194 203
f 196 97 88
f 205 97 196
f 99 197 90
f 99 206 197
f 198 199 207
f 207 199 208
f 198 209 200
f 198 207 209
f 200 210 201
f 200 209 210
f 201 211 202
f 201 210 211
f 202 212 203
f 202 211 212
f 204 203 213
f 213 203 212
f 205 106 97
f 214 106 205
f 215 206 99
f 215 99 107
f 108 207 208
f 215 108 208
f 107 108 215
f 207 108 109
f 207 109 209
f 209 109 110
f 209 110 210
f 210 110 111
f 210 111 211
f 211 111 112
f 211 112 212
f 216 213 212
f 112 216 212
f 113 216 112
f 113 106 214
f 113 214 216
f 218 217 114
f 218 114 115
f 117 114 217
f 117 217 219
f 221 220 123
f 221 123 122
f 124 123 220
f 124 220 222
f 125 218 115
f 125 223 218
f 219 127 117
f 224 127 219
f 132 221 122
f 132 225 221
f 222 133 124
f 226 133 222
f 134 223 125
f 134 227 223
f 224 136 127
f 228 136 224
f 141 225 132
f 141 229 225
f 226 142 133
f 230 142 226
f 143 227 134
f 143 231 227
f 228 145 136
f 232 145 228
f 150 229 141
f 150 233 229
f 230 151 142
f 234 151 230
f 152 231 143
f 152 235 231
f 232 154 145
f 236 154 232
f 159 233 150
f 159 237 233
f 234 160 151
f 238 160 234
f 161 235 152
f 161 239 235
f 236 163 154
f 240 163 236
f 168 237 159
f 168 241 237
f 238 169 160
f 242 169 238
f 170 239 161
f 170 243 239
f 240 172 163
f 244 172 240
f 177 246 245
f 241 177 245
f 168 177 241
f 242 245 246
f 178 242 246
f 169 242 178
f 179 243 170
f 179 247 243
f 244 181 172
f 248 181 244
f 186 249 246
f 186 246 177
f 249 187 178
f 249 178 246
f 188 247 179
f 188 250 247
f 248 190 181
f 251 190 248
f 253 252 249
f 186 253 249
f 195 253 186
f 187 249 252
f 254 187 252
f 196 187 254
f 197 250 188
f 197 255 250
f 251 199 190
f 256 199 251
f 204 253 195
f 204 257 253
f 254 205 196
f 258 205 254
f 206 255 197
f 206 259 255
f 256 208 199
f 260 208 256
f 213 257 204
f 213 261 257
f 258 214 205
f 262 214 258
f 263 259 206
f 263 206 215
f 215 208 260
f 215 260 263
f 264 261 213
f 264 213 216
f 216 214 262
f 216 262 264
f 266 265 217
f 266 217 218
f 219 217 265
f 219 265 267
f 269 268 220
f 269 220 221
f 222 220 268
f 222 268 270
f 223 266 218
f 223 271 266
f 267 224 219
f 272 224 267
f 225 269 221
f 225 273 269
f 270 226 222
f 274 226 270
f 227 271 223
f 227 275 271
f 272 228 224
f 276 228 272
f 229 273 225
f 229 277 273
f 274 230 226
f 278 230 274
f 231 275 227
f 231 279 275
f 276 232 228
f 280 232 276
f 233 277 229
f 233 281 277
f 278 234 230
f 282 234 278
f 235 279 231
f 235 283 279
f 280 236 232
f 284 236 280
f 237 281 233
f 237 285 281
f 282 238 234
f 286 238 282
f 239 283 235
f 239 287 283
f 284 240 236
f 288 240 284
f 241 285 237
f 241 289 285
f 286 242 238
f 290 242 286
f 243 287 239
f 243 291 287
f 288 244 240
f 292 244 288
f 293 289 241
f 293 241 245
f 245 242 290
f 245 290 293
f 247 291 243
f 247 294 291
f 292 248 244
f 295 248 292
f 250 294 247
f 250 296 294
f 295 251 248
f 297 251 295
f 299 298 252
f 299 252 253
f 254 252 298
f 254 298 300
f 255 296 250
f 255 301 296
f 297 256 251
f 302 256 297
f 257 299 253
f 257 303 299
f 300 258 254
f 304 258 300
f 259 301 255
f 259 305 301
f 302 260 256
f 306 260 302
f 261 303 257
f 261 307 303
f 304 262 258
f 308 262 304
f 309 305 259
f 309 259 263
f 263 260 306
f 263 306 309
f 310 307 261
f 310 261 264
f 264 262 308
f 264 308 310
f 312 311 265
f 312 265 266
f 314 313 267
f 265 314 267
f 311 314 265
f 316 315 313
f 316 313 314
f 318 317 315
f 318 315 316
f 320 319 317
f 320 317 318
f 321 319 320
f 323 322 268
f 323 268 269
f 270 268 322
f 270 322 324
f 271 312 266
f 271 325 312
f 326 272 313
f 313 272 267
f 327 313 315
f 326 313 327
f 328 315 317
f 327 315 328
f 329 317 319
f 328 317 329
f 319 321 330
f 319 330 329
f 273 323 269
f 273 331 323
f 324 274 270
f 332 274 324
f 275 325 271
f 275 333 325
f 334 276 326
f 326 276 272
f 335 326 327
f 334 326 335
f 336 327 328
f 335 327 336
f 337 328 329
f 336 328 337
f 329 330 338
f 329 338 337
f 277 331 273
f 277 339 331
f 332 278 274
f 340 278 332
f 279 333 275
f 279 341 333
f 342 280 334
f 334 280 276
f 343 334 335
f 342 334 343
f 344 335 336
f 343 335 344
f 345 336 337
f 344 336 345
f 337 338 346
f 337 346 345
f 281 339 277
f 281 347 339
f 340 282 278
f 348 282 340
f 283 341 279
f 283 349 341
f 350 284 342
f 342 284 280
f 351 342 343
f 350 342 351
f 352 343 344
f 351 343 352
f 353 344 345
f 352 344 353
f 345 346 354
f 345 354 353
f 285 347 281
f 285 355 347
f 348 286 282
f 356 286 348
f 287 349 283
f 287 357 349
f 358 288 350
f 350 288 284
f 359 350 351
f 358 350 359
f 360 351 352
f 359 351 360
f 361 352 353
f 360 352 361
f 353 354 362
f 353 362 361
f 289 355 285
f 289 363 355
f 356 290 286
f 364 290 356
f 291 357 287
f 291 365 357
f 366 292 358
f 358 292 288
f 367 358 359
f 366 358 367
f 368 359 360
f 367 359 368
f 369 360 361
f 368 360 369
f 361 362 370
f 361 370 369
f 289 293 371
f 372 289 371
f 363 289 372
f 373 371 293
f 290 373 293
f 364 373 290
f 294 365 291
f 294 374 365
f 375 295 366
f 366 295 292
f 376 366 367
f 375 366 376
f 377 367 368
f 376 367 377
f 378 368 369
f 377 368 378
f 369 370 379
f 369 379 378
f 372 371 380
f 372 380 381
f 371 373 382
f 371 382 380
f 296 374 294
f 296 383 374
f 384 297 375
f 375 297 295
f 385 375 376
f 384 375 385
f 386 376 377
f 385 376 386
f 387 377 378
f 386 377 387
f 378 379 388
f 378 388 387
f 381 380 298
f 299 381 298
f 389 381 299
f 300 298 380
f 382 300 380
f 390 300 382
f 301 383 296
f 301 391 383
f 392 302 384
f 384 302 297
f 393 384 385
f 392 384 393
f 394 385 386
f 393 385 394
f 395 386 387
f 394 386 395
f 387 388 396
f 387 396 395
f 303 389 299
f 303 397 389
f 390 304 300
f 398 304 390
f 305 391 301
f 305 399 391
f 400 306 392
f 392 306 302
f 401 392 393
f 400 392 401
f 402 393 394
f 401 393 402
f 403 394 395
f 402 394 403
f 395 396 404
f 395 404 403
f 307 397 303
f 307 405 397
f 398 308 304
f 406 308 398
f 407 399 305
f 407 305 309
f 309 306 400
f 408 309 400
f 407 309 408
f 408 400 401
f 408 401 409
f 409 401 402
f 409 402 410
f 410 402 403
f 410 403 411
f 411 403 404
f 412 405 307
f 412 307 310
f 310 308 406
f 310 406 412
f 414 413 311
f 414 311 312
f 311 415 314
f 413 415 311
f 314 416 316
f 415 416 314
f 316 417 318
f 416 417 316
f 318 418 320
f 417 418 318
f 420 419 321
f 320 420 321
f 418 420 320
f 322 323 419
f 420 322 419
f 421 322 420
f 324 322 421
f 324 421 422
f 325 414 312
f 325 423 414
f 424 330 419
f 419 330 321
f 331 424 323
f 323 424 419
f 422 332 324
f 425 332 422
f 333 423 325
f 333 426 423
f 427 338 424
f 424 338 330
f 339 427 331
f 331 427 424
f 425 340 332
f 428 340 425
f 341 426 333
f 341 429 426
f 430 346 427
f 427 346 338
f 347 430 339
f 339 430 427
f 428 348 340
f 431 348 428
f 349 429 341
f 349 432 429
f 433 354 430
f 430 354 346
f 355 433 347
f 347 433 430
f 431 356 348
f 434 356 431
f 357 432 349
f 357 435 432
f 436 362 433
f 433 362 354
f 363 436 355
f 355 436 433
f 434 364 356
f 437 364 434
f 365 435 357
f 365 438 435
f 439 370 436
f 436 370 362
f 372 439 363
f 363 439 436
f 437 373 364
f 440 373 437
f 374 438 365
f 374 441 438
f 442 379 439
f 439 379 370
f 381 442 372
f 372 442 439
f 440 382 373
f 443 382 440
f 383 441 374
f 383 444 441
f 445 388 442
f 442 388 379
f 389 445 381
f 381 445 442
f 443 390 382
f 446 390 443
f 391 444 383
f 391 447 444
f 448 396 445
f 445 396 388
f 397 448 389
f 389 448 445
f 446 398 390
f 449 398 446
f 399 447 391
f 399 450 447
f 451 404 448
f 448 404 396
f 405 451 397
f 397 451 448
f 449 406 398
f 452 406 449
f 453 450 399
f 453 399 407
f 454 407 408
f 454 453 407
f 455 408 409
f 455 454 408
f 456 409 410
f 456 455 409
f 457 410 411
f 457 456 410
f 411 404 451
f 458 411 451
f 457 411 458
f 458 451 405
f 412 458 405
f 459 458 412
f 412 406 452
f 412 452 459
f 414 460 413
f 461 415 413
f 461 413 460
f 462 416 415
f 462 415 461
f 463 417 416
f 463 416 462
f 464 418 417
f 464 417 463
f 465 420 418
f 465 418 464
f 466 421 420
f 466 420 465
f 466 422 421
f 423 467 460
f 423 460 414
f 460 468 461
f 460 467 468
f 461 469 462
f 461 468 469
f 462 470 463
f 462 469 470
f 463 471 464
f 463 470 471
f 464 472 465
f 464 471 472
f 465 473 466
f 465 472 473
f 473 425 422
f 473 422 466
f 426 474 467
f 426 467 423
f 467 475 468
f 467 474 475
f 468 476 469
f 468 475 476
f 469 477 470
f 469 476 477
f 470 478 471
f 470 477 478
f 471 479 472
f 471 478 479
f 472 480 473
f 472 479 480
f 480 428 425
f 480 425 473
f 429 481 474
f 429 474 426
f 474 482 475
f 474 481 482
f 475 483 476
f 475 482 483
f 476 484 477
f 476 483 484
f 477 485 478
f 477 484 485
f 478 486 479
f 478 485 486
f 479 487 480
f 479 486 487
f 487 431 428
f 487 428 480
f 432 488 481
f 432 481 429
f 481 489 482
f 481 488 489
f 482 490 483
f 482 489 490
f 483 491 484
f 483 490 491
f 484 492 485
f 484 491 492
f 485 493 486
f 485 492 493
f 486 494 487
f 486 493 494
f 494 434 431
f 494 431 487
f 435 495 488
f 435 488 432
f 488 496 489
f 488 495 496
f 489 497 490
f 489 496 497
f 490 498 491
f 490 497 498
f 491 499 492
f 491 498 499
f 492 500 493
f 492 499 500
f 493 501 494
f 493 500 501
f 501 437 434
f 501 434 494
f 438 502 495
f 438 495 435
f 495 503 496
f 495 502 503
f 496 504 497
f 496 503 504
f 497 505 498
f 497 504 505
f 498 506 499
f 498 505 506
f 499 507 500
f 499 506 507
f 500 508 501
f 500 507 508
f 508 440 437
f 508 437 501
f 441 509 502
f 441 502 438
f 502 510 503
f 502 509 510
f 503 511 504
f 503 510 511
f 504 512 505
f 504 511 512
f 505 513 506
f 505 512 513
f 506 514 507
f 506 513 514
f 507 515 508
f 507 514 515
f 515 443 440
f 515 440 508
f 444 516 509
f 444 509 441
f 509 517 510
f 509 516 517
f 510 518 511
f 510 517 518
f 511 519 512
f 511 518 519
f 512 520 513
f 512 519 520
f 513 521 514
f 513 520 521
f 514 522 515
f 514 521 522
f 522 446 443
f 522 443 515
f 447 523 516
f 447 516 444
f 516 524 517
f 516 523 524
f 517 525 518
f 517 524 525
f 518 526 519
f 518 525 526
f 519 527 520
f 519 526 527
f 520 528 521
f 520 527 528
f 521 529 522
f 521 528 529
f 529 449 446
f 529 446 522
f 450 530 523
f 450 523 447
f 523 531 524
f 523 530 531
f 524 532 525
f 524 531 532
f 525 533 526
f 525 532 533
f 526 534 527
f 526 533 534
f 527 535 528
f 527 534 535
f 528 536 529
f 528 535 536
f 536 452 449
f 536 449 529
f 453 530 450
f 530 453 454
f 530 454 531
f 531 454 455
f 531 455 532
f 532 455 456
f 532 456 533
f 533 456 457
f 533 457 534
f 534 457 458
f 534 458 535
f 535 458 459
f 535 459 536
f 536 459 452

