# https://github.com/mikedh/trimesh
v -0.02500849 -0.02686808 -0.00462700
v -0.02223101 -0.02821918 -0.00504126
v -0.02351945 -0.02642979 -0.00709868
v -0.02537031 -0.02644316 -0.00023021
v -0.02327316 -0.02858959 -0.00020813
v -0.02508960 -0.02603149 0.00406462
v -0.02392671 -0.02802843 0.00406850
v -0.02232518 -0.02591261 0.00669228
v -0.02336871 -0.02395353 -0.00527521
v -0.02408683 -0.02367992 0.00098610
v -0.02401141 -0.02421177 0.00470180
v -0.02513157 0.01980042 0.00533702
v -0.02345913 0.01726660 0.00432238
v -0.02399433 0.02032864 0.00268064
v -0.02255892 0.01782257 0.00658920
v -0.02517547 0.02293818 0.00461145
v -0.02324058 0.02411495 0.00223975
v -0.02331917 0.02240440 0.00657950
v -0.02235719 0.02548907 0.00450599
v -0.01846618 -0.02803659 -0.00447712
v -0.02022967 -0.02594631 -0.00784198
v -0.01903557 -0.02857261 -0.00021064
v -0.02014413 -0.02823444 0.00459670
v -0.01819830 -0.02608306 0.00693321
v -0.02037295 -0.02215589 -0.00971648
v -0.01706961 -0.02365538 -0.01002635
v -0.01824641 -0.02134314 -0.01209984
v -0.02092604 -0.02076958 -0.00647319
v -0.02136061 -0.02107603 -0.00170537
v -0.02145020 -0.02179644 0.00456067
v -0.01829720 -0.02356229 0.00923672
v -0.02005959 -0.02070624 0.00856935
v -0.01821603 -0.02157720 0.01189939
v -0.01801395 -0.01896458 -0.01025501
v -0.01763586 -0.01868456 -0.00431950
v -0.01789662 -0.01930017 0.00061455
v -0.01807443 -0.01921471 0.00566323
v -0.01764984 -0.01950194 0.01052864
v -0.02045014 -0.01065946 -0.00476118
v -0.01759146 -0.01346440 -0.00503016
v -0.01899300 -0.01094751 -0.00832764
v -0.02040918 -0.01041820 0.00035306
v -0.01784104 -0.01317737 -0.00061868
v -0.01787363 -0.01180316 0.00252862
v -0.02040630 -0.00685128 -0.00908231
v -0.01863061 -0.00901082 -0.01051395
v -0.01830895 -0.00568762 -0.01240752
v -0.02119990 -0.00599584 -0.00494651
v -0.02129696 -0.00661626 -0.00055172
v -0.01917429 -0.00967310 0.00429040
v -0.02088286 -0.00642157 0.00508681
v -0.02030098 -0.00534188 0.00977569
v -0.01786592 -0.00890507 0.00934974
v -0.01813853 -0.00645761 0.01240173
v -0.02064518 -0.00095703 -0.01057837
v -0.01900955 -0.00105294 -0.01375912
v -0.02107193 -0.00156347 -0.00555417
v -0.02113472 -0.00147834 -0.00040163
v -0.02124071 -0.00134811 0.00477381
v -0.02073770 -0.00128453 0.00923410
v -0.01884315 -0.00254783 0.01239889
v -0.02051211 0.00326385 -0.01406584
v -0.01794712 0.00066276 -0.01582071
v -0.01816184 0.00381285 -0.01710267
v -0.02116335 0.00425651 -0.00980282
v -0.02101175 0.00358623 -0.00539293
v -0.02098405 0.00363705 -0.00014316
v -0.02103882 0.00378365 0.00498214
v -0.02055609 0.00380680 0.00937577
v -0.01876162 0.00256935 0.01245726
v -0.02046060 0.00821641 -0.01496931
v -0.01724778 0.00877165 -0.01728677
v -0.02125089 0.00866201 -0.01046707
v -0.02101079 0.00875029 -0.00528533
v -0.02089793 0.00874031 -0.00003887
v -0.02095305 0.00808988 0.00436853
v -0.02021151 0.00901574 0.00850290
v -0.01857231 0.00727392 0.01220636
v -0.01915483 0.01145742 -0.01482429
v -0.01874341 0.01370013 -0.01292522
v -0.02050766 0.01326490 -0.01064009
v -0.02111072 0.01383416 -0.00518424
v -0.02093751 0.01311854 -0.00071464
v -0.02121794 0.01351468 0.00456026
v -0.01934893 0.01396380 0.00804262
v -0.01810867 0.01074517 0.01065393
v -0.01822029 0.01626497 -0.01087527
v -0.01816915 0.01919351 -0.00820610
v -0.02047461 0.01836183 -0.00551616
v -0.02170356 0.01753342 0.00018094
v -0.01923419 0.01874901 0.00798837
v -0.01774733 0.02128817 -0.00500359
v -0.01790411 0.02353977 -0.00207586
v -0.02102809 0.02242486 -0.00115437
v -0.01857852 0.02327635 0.00653501
v -0.01981388 0.02547409 0.00074706
v -0.01849177 0.02560085 0.00358671
v -0.01664305 -0.02616571 -0.00599867
v -0.01577310 -0.02655716 -0.00151435
v -0.01616513 -0.02653152 0.00345983
v -0.01353173 -0.02280701 -0.00951489
v -0.01519079 -0.02089797 -0.01279203
v -0.01311240 -0.02388589 -0.00475212
v -0.01266787 -0.02447402 0.00095612
v -0.01363709 -0.02439296 0.00614673
v -0.01269333 -0.02395415 0.01061302
v -0.01604225 -0.02137281 0.01522378
v -0.01391818 -0.02350155 0.01475931
v -0.01488895 -0.02103461 0.01901798
v -0.01371021 -0.02299415 0.01909631
v -0.01214690 -0.02101890 0.02165827
v -0.01531064 -0.01665755 -0.01405518
v -0.01208577 -0.01882708 -0.01568873
v -0.01320443 -0.01570745 -0.01695897
v -0.01646480 -0.01586762 -0.01052873
v -0.01609168 -0.01584359 -0.00613388
v -0.01368775 -0.01668592 -0.00248623
v -0.01352048 -0.01794268 -0.00016844
v -0.01374816 -0.01820874 0.00443053
v -0.01399080 -0.01810129 0.00949722
v -0.01422492 -0.01873779 0.01528254
v -0.01380874 -0.01927368 0.01961008
v -0.01382340 -0.01348253 -0.01459722
v -0.01373451 -0.01058091 -0.01370660
v -0.01633247 -0.01191406 -0.01084101
v -0.01427308 -0.01484200 -0.00110702
v -0.01635197 -0.01135332 0.00628690
v -0.01386995 -0.01393433 0.00355643
v -0.01549080 -0.01132156 0.00945272
v -0.01313977 -0.01357920 0.00838199
v -0.01237933 -0.01163679 0.01198154
v -0.01527912 -0.00716950 -0.01422438
v -0.01303718 -0.00832635 -0.01581053
v -0.01343517 -0.00476012 -0.01736545
v -0.01544948 -0.00525925 0.00024757
v -0.01415067 -0.00604952 -0.00318567
v -0.01235120 -0.00819576 -0.00064898
v -0.01322197 -0.00706161 0.00278699
v -0.01594053 -0.00493065 0.01499154
v -0.01448112 -0.00836977 0.01398569
v -0.01245995 -0.00645363 0.01630797
v -0.01632082 -0.00279272 -0.01532145
v -0.01437167 -0.00004759 -0.01788926
v -0.01575953 -0.00134200 -0.00449202
v -0.01411668 -0.00075969 -0.00844603
v -0.01339290 -0.00377428 -0.00616246
v -0.01653669 -0.00087084 0.00041843
v -0.01309352 -0.00465299 0.00514985
v -0.01562927 -0.00130971 0.00416830
v -0.01320704 -0.00156487 0.00740948
v -0.01627213 -0.00005491 0.01497428
v -0.01298764 -0.00252553 0.01681302
v -0.01436860 0.00484039 -0.01850676
v -0.01314245 0.00072717 -0.01099132
v -0.01539026 0.00315550 -0.00904796
v -0.01230626 0.00419214 -0.01211430
v -0.01644793 0.00437394 -0.00464835
v -0.01651148 0.00362813 -0.00022902
v -0.01592621 0.00358599 0.00424481
v -0.01396063 0.00247126 0.00745146
v -0.01621017 0.00503776 0.01499890
v -0.01310730 0.00262627 0.01684180
v -0.01283258 0.00956049 -0.01848604
v -0.01422228 0.00656254 -0.00990310
v -0.01547585 0.00764093 -0.00633503
v -0.01379573 0.00879891 -0.00805568
v -0.01583082 0.00823816 -0.00132722
v -0.01553197 0.00825655 0.00356647
v -0.01302899 0.00848547 0.00753749
v -0.01615034 0.00996370 0.01422221
v -0.01314684 0.00768190 0.01691779
v -0.01678171 0.01328170 -0.01514368
v -0.01332404 0.01297981 -0.01703150
v -0.01313847 0.01088347 -0.00506371
v -0.01390214 0.01146068 0.00121605
v -0.01317092 0.01148859 0.00512462
v -0.01691343 0.01395949 0.01049088
v -0.01532436 0.01459460 0.01373273
v -0.01323851 0.01234285 0.01664196
v -0.01423528 0.01613303 -0.01423301
v -0.01588634 0.01837373 -0.01108975
v -0.01210689 0.01871163 -0.01266432
v -0.01578220 0.01873821 0.00957975
v -0.01369706 0.01806500 0.01237751
v -0.01237096 0.01604381 0.01499765
v -0.01401362 0.02039279 -0.00892775
v -0.01302649 0.02105011 -0.00477164
v -0.01381806 0.02166427 -0.00075766
v -0.01626127 0.02395769 0.00097429
v -0.01363994 0.02170425 0.00534198
v -0.01631170 0.02400991 0.00419422
v -0.01244411 0.02017643 0.00977366
v -0.01188686 -0.02105299 -0.01098520
v -0.01066372 -0.02134071 -0.00683531
v -0.00907933 -0.02160208 -0.00315319
v -0.00889588 -0.02289174 0.00001842
v -0.00886072 -0.02324838 0.00471868
v -0.00885479 -0.02332229 0.00976702
v -0.00885658 -0.02346273 0.01492185
v -0.00994851 -0.02324469 0.01957933
v -0.00810439 -0.02123996 0.02194095
v -0.01115402 -0.01596530 -0.01946603
v -0.00787392 -0.01848535 -0.01961283
v -0.00873659 -0.01555834 -0.02205001
v -0.00785070 -0.01915014 -0.01482525
v -0.00847843 -0.01942494 -0.00990498
v -0.00714538 -0.01966191 -0.00435113
v -0.01171809 -0.01606442 0.00078528
v -0.01153594 -0.01638991 0.00464842
v -0.01127937 -0.01585678 0.00983475
v -0.01117365 -0.01659676 0.01386166
v -0.01113063 -0.01692654 0.01960182
v -0.00816881 -0.01880922 0.02440133
v -0.00985140 -0.01596320 0.02383843
v -0.00810149 -0.01681689 0.02720155
v -0.01043508 -0.01222142 -0.02044589
v -0.00758523 -0.01082795 -0.02290938
v -0.01206597 -0.01184789 -0.01684027
v -0.00882709 -0.01357022 0.01497567
v -0.00853148 -0.01137619 0.01336234
v -0.00863746 -0.01369224 0.02080895
v -0.00847609 -0.01446811 0.02529535
v -0.01102719 -0.00757562 -0.01950681
v -0.00856285 -0.00567743 -0.02200632
v -0.00721879 -0.00821248 -0.00983602
v -0.01017512 -0.00666273 -0.00935798
v -0.00874598 -0.00556998 -0.01196630
v -0.00932953 -0.00853373 -0.00525224
v -0.01186507 -0.00640275 -0.00562147
v -0.00753389 -0.00947912 -0.00028270
v -0.00967269 -0.00816794 0.00380807
v -0.01132439 -0.00661089 0.00501806
v -0.00788854 -0.00619458 0.00701762
v -0.00975625 -0.00924192 0.01466725
v -0.00809007 -0.00645121 0.01686918
v -0.01102795 -0.00245065 -0.02027456
v -0.00797718 -0.00138082 -0.02214805
v -0.01149749 -0.00305779 -0.00979214
v -0.00907872 -0.00087947 -0.01310514
v -0.00956391 -0.00343767 0.00916525
v -0.01101039 0.00006777 0.01005768
v -0.00753060 -0.00150812 0.01155396
v -0.00851738 -0.00138960 0.01721705
v -0.01114671 0.00251476 -0.02034641
v -0.00806750 0.00372133 -0.02220052
v -0.00787894 0.00465069 -0.01362521
v -0.01146161 0.00502829 0.01005317
v -0.00810124 0.00252146 0.01202042
v -0.00856597 0.00376035 0.01732057
v -0.01099822 0.00731407 -0.02034635
v -0.00726395 0.00824213 -0.02194312
v -0.01187912 0.00846515 -0.01022020
v -0.00818361 0.00904570 -0.01234574
v -0.01096633 0.00864553 0.01002279
v -0.00828641 0.00746573 0.01165644
v -0.00874993 0.00887676 0.01746116
v -0.00915624 0.01064619 -0.01995419
v -0.00797295 0.01399832 -0.01785027
v -0.00959764 0.01164364 -0.00940010
v -0.01055226 0.01354351 -0.00583117
v -0.00802563 0.01429754 -0.00853795
v -0.01139656 0.01393669 -0.00137254
v -0.01103883 0.01403277 0.00352142
v -0.00963843 0.01319395 0.00691491
v -0.00799346 0.01109158 0.00976718
v -0.00885460 0.01330677 0.01689607
v -0.01004159 0.01652312 -0.01542482
v -0.00817783 0.01917142 -0.01375163
v -0.00777391 0.01570926 -0.00466290
v -0.00815060 0.01593237 0.00101353
v -0.00758168 0.01551363 0.00494910
v -0.00984252 0.01883877 0.01236667
v -0.00756384 0.01641326 0.01491623
v -0.00808557 0.02066400 -0.01049742
v -0.00946612 0.02101349 -0.00613118
v -0.00802093 0.02147029 -0.00050599
v -0.00845668 0.02105497 0.00477444
v -0.00842555 0.02061529 0.00918818
v -0.00647792 -0.02090957 -0.00059914
v -0.00573670 -0.02130219 0.00353837
v -0.00575888 -0.02134869 0.00858035
v -0.00571929 -0.02140860 0.01366035
v -0.00608207 -0.02154317 0.01854546
v -0.00348399 -0.01825039 -0.01944578
v -0.00515789 -0.01594754 -0.02285449
v -0.00397657 -0.01859581 -0.01540474
v -0.00399997 -0.01836869 -0.01027194
v -0.00390288 -0.01820994 -0.00516816
v -0.00376304 -0.01878750 0.00031644
v -0.00331609 -0.01881688 0.00597511
v -0.00341094 -0.01872072 0.01098269
v -0.00341294 -0.01876307 0.01595892
v -0.00420725 -0.01893012 0.02112993
v -0.00355614 -0.01831053 0.02563594
v -0.00606980 -0.01486715 0.02929486
v -0.00482509 -0.01789083 0.02896922
v -0.00367981 -0.01608457 0.03135903
v -0.00514156 -0.01225191 -0.02520791
v -0.00208926 -0.01382550 -0.02474364
v -0.00333178 -0.01146588 -0.02669814
v -0.00509083 -0.01098656 0.00061738
v -0.00435635 -0.01101044 -0.00216620
v -0.00316501 -0.01272929 -0.00085830
v -0.00195539 -0.01187147 0.00216439
v -0.00653560 -0.01049415 0.01555436
v -0.00618684 -0.01164765 0.01862651
v -0.00623121 -0.01174349 0.02407835
v -0.00537400 -0.01112670 0.02874003
v -0.00333230 -0.01276370 0.03207931
v -0.00354646 -0.00917746 -0.02586707
v -0.00380684 -0.00558151 -0.02324856
v -0.00439135 -0.00553386 -0.01292213
v -0.00278912 -0.00832352 -0.01019232
v -0.00374757 -0.00961386 -0.00597173
v -0.00486527 -0.00889200 0.00412777
v -0.00219686 -0.00637135 0.00742792
v -0.00317815 -0.00902762 0.01957184
v -0.00401185 -0.00551195 0.01730140
v -0.00324844 -0.00927368 0.02579486
v -0.00278424 -0.00942660 0.03086793
v -0.00430152 -0.00076058 -0.02266992
v -0.00563620 -0.00202000 -0.01519673
v -0.00332979 -0.00003396 -0.01691906
v -0.00300567 -0.00305783 -0.01517709
v -0.00464406 -0.00396119 0.01011042
v -0.00350503 -0.00087527 0.01206940
v -0.00333064 -0.00153488 0.01700042
v -0.00362293 0.00365786 -0.02279172
v -0.00592181 0.00213050 -0.01556748
v -0.00244797 0.00373528 -0.01701030
v -0.00357841 0.00367230 0.01268514
v -0.00336356 0.00362907 0.01713887
v -0.00238531 0.00817199 -0.02226431
v -0.00393794 0.00565034 -0.01517745
v -0.00351130 0.00832774 -0.01359068
v -0.00357153 0.00829115 0.01202189
v -0.00360386 0.00878862 0.01731084
v -0.00486395 0.01135406 -0.02028411
v -0.00287457 0.01389054 -0.01850691
v -0.00655276 0.01320206 -0.01105857
v -0.00308364 0.01239001 -0.01206660
v -0.00231016 0.01153025 0.01003251
v -0.00475514 0.01414711 0.00748520
v -0.00373497 0.01323529 0.01677654
v -0.00647733 0.01814675 -0.01579309
v -0.00285181 0.01787397 -0.01714808
v -0.00418388 0.01546037 -0.00908524
v -0.00293152 0.01653483 -0.00462681
v -0.00359424 0.01657459 -0.00019119
v -0.00354044 0.01601269 0.00432635
v -0.00471915 0.01883453 0.01234652
v -0.00239152 0.01635611 0.01489786
v -0.00381471 0.02059837 -0.01402356
v -0.00283839 0.02117748 -0.00980295
v -0.00492826 0.02161676 -0.00515655
v -0.00511077 0.02335215 -0.00085161
v -0.00205373 0.02377604 -0.00252833
v -0.00402079 0.02337369 0.00172975
v -0.00296290 0.02165570 0.00498658
v -0.00341506 0.02056017 0.00932791
v -0.00255890 0.02494307 0.00014797
v -0.00164008 -0.01639412 -0.02084901
v -0.00077582 -0.01668962 -0.01646579
v -0.00064794 -0.01598103 -0.01063162
v -0.00142069 -0.01639292 -0.00585538
v -0.00147289 -0.01547321 -0.00049255
v -0.00122764 -0.01666728 0.00395357
v -0.00096071 -0.01627042 0.00840179
v -0.00104777 -0.01615768 0.01334532
v -0.00106358 -0.01618712 0.01829071
v -0.00101221 -0.01635776 0.02337320
v -0.00124339 -0.01586905 0.02947597
v 0.00141948 -0.01297457 -0.02433756
v -0.00027803 -0.01093068 -0.02745708
v 0.00115294 -0.01408057 -0.01978566
v 0.00181328 -0.01392664 -0.01389765
v 0.00157355 -0.01308283 -0.00959478
v -0.00103650 -0.01286379 -0.00504238
v 0.00110803 -0.01092588 -0.00785419
v 0.00166773 -0.01371806 0.00509340
v 0.00119317 -0.01139448 0.00331345
v 0.00209104 -0.01444671 0.01070571
v 0.00202124 -0.01432497 0.01569142
v 0.00203530 -0.01436645 0.02060795
v 0.00218407 -0.01453263 0.02575141
v 0.00272486 -0.01431066 0.03062307
v 0.00086620 -0.01323640 0.03397914
v -0.00094613 -0.01079040 0.03450472
v 0.00258045 -0.01152943 0.03642865
v -0.00045228 -0.00719148 -0.02923656
v 0.00282273 -0.00876993 -0.03063418
v 0.00117353 -0.00626831 -0.03224658
v -0.00116353 -0.00605462 -0.02611956
v 0.00080176 -0.00651271 -0.01188502
v 0.00169394 -0.00907904 -0.01027962
v 0.00013493 -0.00914355 0.00459315
v 0.00306387 -0.00715917 0.00711957
v 0.00100572 -0.00580886 0.01755214
v 0.00158079 -0.00820901 0.02034103
v 0.00072242 -0.00831729 0.02449256
v 0.00151181 -0.00805569 0.03020957
v 0.00171264 -0.00945673 0.03467711
v 0.00186128 -0.00414407 -0.03014132
v 0.00071737 -0.00392986 -0.02495365
v 0.00123555 -0.00066893 -0.02316726
v -0.00066014 -0.00077596 -0.01590326
v 0.00169664 -0.00243754 -0.01347205
v 0.00050725 -0.00395548 0.00998024
v 0.00169013 -0.00088201 0.01205165
v 0.00111347 -0.00106444 0.01685853
v 0.00081000 0.00426578 -0.02278100
v 0.00045834 0.00256438 -0.01691790
v 0.00236091 0.00146891 -0.01517440
v 0.00164377 0.00353994 0.01276901
v 0.00176827 0.00344121 0.01703922
v 0.00279037 0.00802445 -0.02223049
v 0.00019904 0.00611638 -0.01554732
v 0.00233243 0.00862219 -0.01304269
v 0.00134322 0.00811462 0.01171988
v 0.00158737 0.00863220 0.01729806
v 0.00027466 0.01133429 -0.02034100
v 0.00142972 0.01448991 -0.01847289
v 0.00118194 0.01215747 -0.01085420
v -0.00072854 0.01435131 -0.00975807
v 0.00312135 0.01395878 -0.00821123
v 0.00121628 0.01091828 0.01000027
v 0.00059116 0.01351260 0.00743925
v 0.00149711 0.01311696 0.01683344
v 0.00217600 0.01779540 -0.01711984
v 0.00131057 0.01607558 -0.00555454
v 0.00087828 0.01664569 -0.00093392
v 0.00187531 0.01585795 0.00335072
v 0.00033707 0.01882776 0.01244751
v 0.00269476 0.01632195 0.01496198
v 0.00097217 0.02055555 -0.01497665
v 0.00154165 0.02131209 -0.01052680
v 0.00109919 0.02170617 -0.00538560
v 0.00199998 0.02338924 -0.00218221
v -0.00002530 0.02382972 0.00206119
v 0.00293349 0.02178222 0.00470796
v 0.00159415 0.02066625 0.00937104
v 0.00049057 0.02494180 -0.00068370
v 0.00311739 -0.01115680 -0.02581144
v 0.00401823 -0.01154856 -0.02139210
v 0.00420468 -0.01077171 -0.01528146
v 0.00293812 -0.01158637 -0.01105627
v 0.00311720 -0.01064709 0.00479390
v 0.00623269 -0.01047780 0.00693949
v 0.00606226 -0.01316140 0.00978277
v 0.00588996 -0.01334990 0.01455543
v 0.00582726 -0.01323390 0.01952707
v 0.00595474 -0.01325205 0.02459214
v 0.00619556 -0.01337858 0.02988405
v 0.00531054 -0.01303341 0.03462750
v 0.00573869 -0.01098399 0.03650158
v 0.00380629 -0.00637209 -0.03466597
v 0.00702329 -0.00812705 -0.03431235
v 0.00643500 -0.00649293 -0.03672948
v 0.00644005 -0.00920387 -0.03051793
v 0.00700012 -0.00907550 -0.02507227
v 0.00726094 -0.00958975 -0.01879944
v 0.00714247 -0.00893970 -0.01539365
v 0.00598211 -0.00664841 -0.01293546
v 0.00675639 -0.00695641 0.00745942
v 0.00412723 -0.00613194 0.01925176
v 0.00389378 -0.00655614 0.02320544
v 0.00413370 -0.00613834 0.02828559
v 0.00616478 -0.00636303 0.03195780
v 0.00668023 -0.00893969 0.03404966
v 0.00545352 -0.00401413 -0.03466390
v 0.00451873 -0.00133766 -0.03079446
v 0.00804080 -0.00184360 -0.03290450
v 0.00362275 -0.00124582 -0.02648352
v 0.00737610 -0.00240453 -0.01209647
v 0.00628443 -0.00384370 0.00913317
v 0.00621067 -0.00016462 0.01171892
v 0.00583493 -0.00152874 0.01749942
v 0.00722618 -0.00379701 0.02095433
v 0.00705894 -0.00429276 0.02595090
v 0.00754478 -0.00460953 0.03008401
v 0.00706431 0.00061879 -0.02875245
v 0.00688325 0.00080932 -0.02437048
v 0.00591234 0.00345082 -0.02231262
v 0.00319527 0.00454071 -0.01517312
v 0.00554239 0.00301016 -0.01293621
v 0.00559306 0.00431559 0.01179896
v 0.00609590 0.00410844 0.01714235
v 0.00668414 0.00748819 -0.02167083
v 0.00669903 0.00758648 -0.01198003
v 0.00416797 0.00922078 0.00953412
v 0.00674504 0.00600038 0.01005995
v 0.00665986 0.00867347 0.00740807
v 0.00668155 0.00854674 0.01738212
v 0.00508356 0.01099595 -0.02038262
v 0.00711034 0.01355678 -0.01794493
v 0.00524982 0.01098633 -0.01052458
v 0.00678945 0.01317175 -0.00789175
v 0.00442902 0.01278732 0.00574296
v 0.00654194 0.01144991 0.00486120
v 0.00637593 0.01376613 0.00298144
v 0.00634945 0.01309382 0.01658217
v 0.00660965 0.01696501 -0.01518219
v 0.00405181 0.01926931 -0.01483541
v 0.00704367 0.01851916 -0.01250862
v 0.00575788 0.01546390 -0.00525181
v 0.00569639 0.01587742 -0.00089939
v 0.00552243 0.01835204 0.01243888
v 0.00615929 0.01586336 0.01496726
v 0.00592884 0.02059641 -0.01069852
v 0.00670355 0.02123202 -0.00537724
v 0.00608223 0.02166482 0.00003340
v 0.00307827 0.02343050 0.00043067
v 0.00666332 0.02130030 0.00491723
v 0.00683445 0.02060538 0.00836796
v 0.00920375 -0.01089472 0.00945074
v 0.00910225 -0.01156310 0.01338161
v 0.00895092 -0.01145825 0.01840521
v 0.00902669 -0.01145152 0.02346186
v 0.00929074 -0.01074768 0.02974119
v 0.00798246 -0.01173204 0.03418895
v 0.00801752 -0.00572128 -0.03559435
v 0.01045881 -0.00587063 -0.03322972
v 0.00995151 -0.00810355 -0.02998428
v 0.00998015 -0.00685758 -0.02596403
v 0.01248481 -0.00556214 -0.02795119
v 0.01071350 -0.00673235 -0.02297364
v 0.01101952 -0.00805327 -0.01970201
v 0.01025193 -0.00810989 -0.01556152
v 0.01134731 -0.00568102 -0.01308724
v 0.01153719 -0.00868214 0.01102311
v 0.01004436 -0.00675365 0.00739472
v 0.01142245 -0.00890412 0.01582738
v 0.01220973 -0.00897738 0.02101742
v 0.01165561 -0.00977758 0.02557988
v 0.01247632 -0.00860196 0.02896520
v 0.01021232 -0.00667792 0.03167413
v 0.01175763 -0.00231490 -0.03208064
v 0.01268810 -0.00505978 -0.02404852
v 0.01216724 -0.00364637 -0.01037195
v 0.00918066 -0.00010178 -0.01043968
v 0.01203352 -0.00178029 -0.00797000
v 0.00984751 -0.00185148 0.00616655
v 0.01294505 -0.00386541 0.00435410
v 0.01182186 -0.00079763 0.00309914
v 0.00836950 -0.00121485 0.00945807
v 0.00936593 -0.00091350 0.01902484
v 0.01072535 -0.00169984 0.02168489
v 0.01151287 -0.00320744 0.02539278
v 0.01052232 -0.00430499 0.02898966
v 0.01131169 0.00054830 -0.02986842
v 0.01083498 0.00132159 -0.02589365
v 0.01106763 0.00199884 -0.02154596
v 0.00939105 0.00485867 -0.02006925
v 0.01150429 0.00376725 -0.01878359
v 0.00905642 0.00489251 -0.00981849
v 0.01142590 0.00196535 -0.00775582
v 0.01123307 0.00133738 0.00553490
v 0.01134951 0.00429759 0.00643567
v 0.00881180 0.00301820 0.00886006
v 0.01058252 0.00358463 0.01704438
v 0.01300873 0.00084321 0.01958365
v 0.00836845 0.00895952 -0.01992092
v 0.01145428 0.00784297 -0.01786922
v 0.00837319 0.00969416 -0.00931009
v 0.01123584 0.00586321 -0.00624852
v 0.00998079 0.00943650 -0.00517528
v 0.01200612 0.00824491 -0.00316377
v 0.00916290 0.00886865 0.00497226
v 0.01209729 0.00670311 0.00436876
v 0.01134907 0.00972569 0.00218712
v 0.01056155 0.00939348 0.01650703
v 0.01148512 0.01262702 -0.01676879
v 0.00842877 0.01341240 -0.00498088
v 0.01134604 0.01047033 -0.00087509
v 0.00921152 0.01256251 -0.00012244
v 0.00914729 0.01422330 0.01444372
v 0.01161565 0.01368326 0.01225695
v 0.01173844 0.01105967 0.01485729
v 0.01037112 0.01525213 -0.01543174
v 0.01170859 0.01627020 -0.01086880
v 0.00937824 0.01913692 -0.00955253
v 0.01236833 0.01847661 -0.00726910
v 0.00934202 0.01773292 0.01066811
v 0.01122778 0.01864829 0.00785342
v 0.01147588 0.01642555 0.00972045
v 0.01052183 0.02040589 -0.00609988
v 0.01120369 0.02073386 -0.00133886
v 0.01062663 0.02062093 0.00410238
v 0.01275210 -0.00539990 -0.03091331
v 0.01340788 -0.00603436 -0.02041849
v 0.01393597 -0.00647524 -0.01647613
v 0.01317426 -0.00607090 0.00897323
v 0.01385257 -0.00630225 0.01337708
v 0.01421402 -0.00630764 0.01817309
v 0.01682231 -0.00593061 0.02206818
v 0.01523145 -0.00803086 0.02546145
v 0.01403579 -0.00580528 0.02877718
v 0.01723672 -0.00543209 0.02689122
v 0.01424063 -0.00207188 -0.02932558
v 0.01596893 -0.00314483 -0.02543964
v 0.01674503 -0.00137345 -0.02719115
v 0.01616368 -0.00397638 -0.01965645
v 0.01581093 -0.00407413 -0.01378315
v 0.01628533 -0.00342206 -0.00940523
v 0.01394030 -0.00060916 -0.00443163
v 0.01549627 -0.00316940 -0.00558011
v 0.01367761 -0.00096482 0.00029423
v 0.01652821 -0.00326239 0.00020526
v 0.01708910 -0.00418112 0.00519985
v 0.01641064 -0.00449493 0.00998476
v 0.01702933 -0.00443106 0.01588699
v 0.01694398 -0.00471792 0.01932379
v 0.01359083 -0.00088028 0.02412213
v 0.01586664 -0.00244073 0.02670655
v 0.01510203 0.00097225 -0.02543942
v 0.01419423 0.00399002 -0.01985510
v 0.01816279 0.00321622 -0.02245819
v 0.01323885 0.00457324 -0.00422029
v 0.01413381 0.00292540 -0.00109997
v 0.01310525 0.00307536 0.00324145
v 0.01400847 0.00326974 0.01517576
v 0.01606011 0.00427813 0.01337562
v 0.01605912 0.00215959 0.01600911
v 0.01697654 0.00155841 0.02081415
v 0.01583900 0.00020188 0.02393739
v 0.01754190 0.00547439 -0.01921258
v 0.01634790 0.00653192 -0.01567179
v 0.01416619 0.01007265 -0.01447745
v 0.01705628 0.00806397 -0.01236866
v 0.01320992 0.00738670 0.00036717
v 0.01365853 0.00812403 0.01400097
v 0.01697726 0.00787759 0.01167362
v 0.01292537 0.01375491 -0.01423572
v 0.01611641 0.01057760 -0.01093180
v 0.01438261 0.01295548 -0.01131965
v 0.01625148 0.01325455 -0.00832787
v 0.01402001 0.01375656 0.00977053
v 0.01615559 0.01455293 0.00703442
v 0.01677902 0.01149633 0.00913208
v 0.01552052 0.01626390 -0.00578131
v 0.01400071 0.01886271 -0.00363276
v 0.01673196 0.01637148 -0.00141150
v 0.01431643 0.01893433 0.00106825
v 0.01663399 0.01608508 0.00330895
v 0.01410727 0.01779199 0.00549256
v 0.01798578 -0.00608436 0.02498555
v 0.01835130 -0.00050356 -0.02441172
v 0.01880695 -0.00177393 -0.02118708
v 0.01911317 -0.00148954 -0.01648589
v 0.01891360 -0.00151811 -0.01139490
v 0.01871823 -0.00151476 -0.00645997
v 0.01905180 -0.00153470 -0.00180473
v 0.02066140 -0.00188602 0.00181866
v 0.02081799 -0.00325205 0.00491087
v 0.02093464 -0.00351381 0.00962328
v 0.02099597 -0.00334560 0.01485073
v 0.02018271 -0.00328605 0.02000629
v 0.01881416 -0.00187119 0.02415039
v 0.02205113 -0.00010696 0.02203600
v 0.02111344 0.00137447 -0.02005984
v 0.02129597 0.00380676 -0.02179909
v 0.02237388 0.00101266 -0.01414735
v 0.02193616 0.00038722 -0.00907212
v 0.02187076 0.00048396 -0.00405145
v 0.02256746 0.00020987 0.00064295
v 0.01852257 0.00426637 0.01406191
v 0.01910691 0.00373052 0.01837112
v 0.02066933 0.00272846 0.02180694
v 0.02059734 0.00522976 -0.02050821
v 0.02093592 0.00560988 -0.01656573
v 0.02140691 0.00680053 -0.01114330
v 0.01869819 0.00907250 -0.00871448
v 0.02125233 0.00694757 -0.00534797
v 0.01951697 0.00886314 -0.00418971
v 0.02119122 0.00684670 -0.00038985
v 0.01942729 0.00884709 0.00077114
v 0.02121535 0.00699266 0.00473814
v 0.01951275 0.00835228 0.00542358
v 0.02133077 0.00680766 0.01069983
v 0.01853760 0.00913707 0.00872643
v 0.02143878 0.00547144 0.01567746
v 0.02271050 0.00519054 0.01901248
v 0.01821193 0.01297144 -0.00501692
v 0.01846093 0.01296825 -0.00043557
v 0.01813683 0.01208395 0.00497347
v 0.02328880 -0.00115540 0.00434314
v 0.02413974 -0.00156883 0.00855055
v 0.02426608 -0.00099891 0.01442048
v 0.02320617 -0.00130509 0.01900093
v 0.02277228 0.00414190 -0.01947089
v 0.02369664 0.00411276 -0.01545687
v 0.02596248 0.00352140 -0.01300215
v 0.02593087 0.00185634 -0.01015681
v 0.02569433 0.00156298 -0.00539200
v 0.02572182 0.00170132 -0.00029025
v 0.02605553 0.00110048 0.00527952
v 0.02679063 0.00105389 0.01109371
v 0.02643745 0.00191484 0.01550921
v 0.02397913 0.00228948 0.01950327
v 0.02600792 0.00427669 0.01733425
v 0.02606964 0.00721657 -0.01200609
v 0.02429567 0.00881111 -0.01002635
v 0.02371887 0.00870387 -0.00659492
v 0.02362156 0.00844606 -0.00148167
v 0.02357252 0.00848087 0.00366613
v 0.02398787 0.00871351 0.00854648
v 0.02567954 0.00849612 0.01160810
v 0.02552679 0.00636525 0.01469845
v 0.02667546 0.01029597 -0.00906028
v 0.02687055 0.01090155 -0.00421487
v 0.02679503 0.01082631 0.00115300
v 0.02617640 0.01069202 0.00582326
v 0.02755838 0.01027705 0.00902669
v 0.02804789 0.00466274 -0.01063260
v 0.02898607 0.00430228 -0.00687735
v 0.02888939 0.00342939 -0.00166872
v 0.02896579 0.00410932 0.00425483
v 0.02845405 0.00366087 0.00919783
v 0.02803780 0.00408546 0.01358943
v 0.02902466 0.00824032 -0.00949156
v 0.03117684 0.00810082 -0.00713564
v 0.03238981 0.00624344 -0.00405231
v 0.03217895 0.00534309 0.00085479
v 0.03158383 0.00649133 0.00533809
v 0.02884928 0.00728408 0.01005499
v 0.03192297 0.00887107 0.00738336
v 0.03099960 0.01083889 -0.00588080
v 0.03158567 0.01161835 -0.00023535
v 0.03104094 0.01104843 0.00517966
v 0.03378532 0.00918632 -0.00497801
v 0.03619225 0.00836691 -0.00260547
v 0.03633452 0.00686202 0.00003158
v 0.03533015 0.00695584 0.00435470
v 0.03584636 0.00910822 0.00625641
v 0.03569958 0.01057293 -0.00130858
v 0.03643750 0.01047620 0.00359891
v 0.03823839 0.00900137 0.00090894
v 0.03822282 0.00825345 0.00398428
f 3 2 1
f 5 4 1
f 5 1 2
f 7 6 4
f 7 4 5
f 8 6 7
f 9 3 1
f 9 1 4
f 9 4 10
f 10 4 6
f 10 6 11
f 11 6 8
f 14 13 12
f 15 12 13
f 14 12 16
f 14 16 17
f 12 15 18
f 12 18 16
f 19 17 16
f 19 16 18
f 21 20 2
f 21 2 3
f 2 22 5
f 20 22 2
f 5 23 7
f 22 23 5
f 8 7 23
f 8 23 24
f 27 26 25
f 28 25 9
f 25 21 9
f 21 3 9
f 21 25 26
f 10 29 9
f 9 29 28
f 11 30 10
f 10 30 29
f 8 24 31
f 30 8 31
f 32 30 31
f 11 8 30
f 33 32 31
f 34 27 25
f 34 25 28
f 34 28 35
f 35 28 29
f 35 29 36
f 36 29 30
f 36 30 37
f 37 30 32
f 37 32 38
f 38 32 33
f 41 40 39
f 43 42 39
f 43 39 40
f 44 42 43
f 47 46 45
f 45 46 41
f 39 45 41
f 48 45 39
f 49 39 42
f 48 39 49
f 42 44 50
f 51 42 50
f 49 42 51
f 53 52 51
f 53 51 50
f 54 52 53
f 47 45 55
f 47 55 56
f 57 45 48
f 55 45 57
f 58 48 49
f 57 48 58
f 59 49 51
f 58 49 59
f 60 51 52
f 59 51 60
f 52 54 61
f 52 61 60
f 64 63 62
f 62 63 56
f 55 62 56
f 65 62 55
f 66 55 57
f 65 55 66
f 67 57 58
f 66 57 67
f 68 58 59
f 67 58 68
f 69 59 60
f 68 59 69
f 60 61 70
f 60 70 69
f 64 62 71
f 64 71 72
f 73 62 65
f 71 62 73
f 74 65 66
f 73 65 74
f 75 66 67
f 74 66 75
f 76 67 68
f 75 67 76
f 77 68 69
f 76 68 77
f 69 70 78
f 69 78 77
f 79 72 71
f 81 80 79
f 71 81 79
f 73 81 71
f 82 73 74
f 81 73 82
f 83 74 75
f 82 74 83
f 84 75 76
f 83 75 84
f 77 86 85
f 84 77 85
f 76 77 84
f 86 77 78
f 87 80 81
f 89 88 87
f 81 89 87
f 82 89 81
f 90 82 83
f 89 82 90
f 14 90 13
f 90 84 13
f 90 83 84
f 15 13 84
f 85 15 84
f 91 15 85
f 92 88 89
f 94 93 92
f 89 94 92
f 90 94 89
f 17 94 14
f 14 94 90
f 91 18 15
f 95 18 91
f 96 93 94
f 96 94 17
f 19 96 17
f 97 96 19
f 19 18 95
f 19 95 97
f 21 98 20
f 99 22 20
f 99 20 98
f 100 23 22
f 100 22 99
f 100 24 23
f 102 101 26
f 102 26 27
f 21 26 98
f 26 103 98
f 26 101 103
f 98 103 99
f 99 103 104
f 99 104 100
f 100 104 105
f 100 105 24
f 105 31 24
f 105 106 31
f 108 107 33
f 31 108 33
f 106 108 31
f 110 109 107
f 110 107 108
f 111 109 110
f 114 113 112
f 115 112 34
f 112 102 34
f 102 27 34
f 102 112 113
f 35 116 34
f 34 116 115
f 116 35 117
f 35 118 117
f 35 36 118
f 119 36 37
f 119 118 36
f 120 37 38
f 120 119 37
f 38 33 107
f 121 38 107
f 120 38 121
f 121 107 109
f 121 109 122
f 122 109 111
f 123 114 112
f 125 124 123
f 112 125 123
f 115 125 112
f 41 125 40
f 125 116 40
f 125 115 116
f 117 126 116
f 126 40 116
f 126 43 40
f 128 127 44
f 43 128 44
f 126 128 43
f 130 129 127
f 130 127 128
f 131 129 130
f 134 133 132
f 132 133 124
f 132 124 125
f 47 132 125
f 46 47 125
f 46 125 41
f 137 136 135
f 127 50 44
f 138 137 135
f 50 127 53
f 53 127 129
f 140 139 54
f 140 54 53
f 131 140 53
f 129 131 53
f 141 139 140
f 134 132 142
f 134 142 143
f 56 142 47
f 47 142 132
f 146 145 144
f 146 144 136
f 144 135 136
f 144 147 135
f 138 135 148
f 135 149 148
f 135 147 149
f 149 150 148
f 151 61 139
f 139 61 54
f 139 141 152
f 139 152 151
f 143 142 63
f 64 143 63
f 153 143 64
f 63 142 56
f 156 155 154
f 154 155 145
f 155 144 145
f 155 157 144
f 144 158 147
f 144 157 158
f 147 159 149
f 147 158 159
f 150 149 160
f 160 149 159
f 161 70 151
f 151 70 61
f 151 152 162
f 151 162 161
f 72 153 64
f 72 163 153
f 156 164 155
f 166 165 164
f 165 155 164
f 165 157 155
f 157 167 158
f 157 165 167
f 158 168 159
f 158 167 168
f 160 159 169
f 169 159 168
f 170 78 161
f 161 78 70
f 161 162 171
f 161 171 170
f 72 79 172
f 173 72 172
f 163 72 173
f 80 172 79
f 166 174 165
f 165 174 167
f 167 174 175
f 167 175 168
f 168 175 176
f 177 85 86
f 176 169 168
f 78 170 86
f 170 177 86
f 170 178 177
f 170 171 179
f 170 179 178
f 180 173 172
f 182 180 181
f 181 180 87
f 180 172 87
f 172 80 87
f 88 181 87
f 183 91 177
f 177 91 85
f 178 185 184
f 183 178 184
f 177 178 183
f 185 178 179
f 186 182 181
f 186 181 88
f 92 186 88
f 187 186 92
f 189 188 93
f 188 92 93
f 188 187 92
f 191 190 189
f 189 190 188
f 192 190 183
f 190 95 183
f 95 91 183
f 190 191 95
f 192 183 184
f 96 189 93
f 189 96 97
f 189 97 191
f 191 97 95
f 102 193 101
f 194 103 101
f 194 101 193
f 103 194 195
f 196 103 195
f 104 103 196
f 104 197 105
f 196 197 104
f 105 198 106
f 197 198 105
f 106 199 108
f 198 199 106
f 108 200 110
f 199 200 108
f 111 110 200
f 111 200 201
f 204 203 202
f 113 114 202
f 203 113 202
f 205 113 203
f 102 113 193
f 113 206 193
f 113 205 206
f 193 206 194
f 194 206 207
f 208 117 118
f 207 195 194
f 119 209 118
f 118 209 208
f 120 210 119
f 119 210 209
f 121 211 120
f 120 211 210
f 122 212 121
f 121 212 211
f 111 201 213
f 212 111 213
f 214 212 213
f 122 111 212
f 215 214 213
f 204 202 216
f 204 216 217
f 123 218 114
f 218 202 114
f 218 216 202
f 124 218 123
f 208 126 117
f 126 208 128
f 128 208 209
f 128 209 130
f 130 209 210
f 210 211 219
f 131 210 219
f 220 131 219
f 210 131 130
f 219 211 212
f 219 212 221
f 221 212 214
f 221 214 222
f 222 214 215
f 217 216 223
f 217 223 224
f 134 223 133
f 223 218 133
f 223 216 218
f 133 218 124
f 227 226 225
f 229 228 226
f 226 228 225
f 136 137 229
f 137 228 229
f 137 230 228
f 232 231 138
f 231 137 138
f 231 230 137
f 232 233 231
f 220 234 131
f 131 234 140
f 141 140 234
f 141 234 235
f 224 223 236
f 224 236 237
f 143 236 134
f 134 236 223
f 226 227 238
f 238 227 239
f 238 145 146
f 229 238 146
f 226 238 229
f 229 146 136
f 148 232 138
f 241 240 150
f 150 240 148
f 240 233 148
f 233 232 148
f 241 242 240
f 235 152 141
f 243 152 235
f 237 236 244
f 237 244 245
f 153 244 143
f 143 244 236
f 238 239 154
f 239 156 154
f 239 246 156
f 238 154 145
f 160 247 241
f 160 241 150
f 242 241 248
f 248 241 247
f 243 162 152
f 249 162 243
f 245 244 250
f 245 250 251
f 163 250 153
f 153 250 244
f 164 156 252
f 156 253 252
f 156 246 253
f 252 166 164
f 169 254 247
f 169 247 160
f 248 247 255
f 255 247 254
f 249 171 162
f 256 171 249
f 257 251 250
f 250 163 257
f 163 258 257
f 163 173 258
f 253 259 252
f 259 261 260
f 259 260 174
f 252 259 174
f 166 252 174
f 262 175 174
f 262 174 260
f 263 176 175
f 263 175 262
f 263 264 176
f 176 264 169
f 264 265 169
f 265 254 169
f 254 265 255
f 256 179 171
f 266 179 256
f 267 258 173
f 267 173 180
f 180 182 267
f 267 182 268
f 261 269 260
f 260 269 262
f 262 269 270
f 262 270 263
f 263 270 271
f 263 271 264
f 273 272 185
f 185 272 184
f 185 179 266
f 185 266 273
f 274 268 182
f 274 182 186
f 275 186 187
f 275 274 186
f 276 187 188
f 276 275 187
f 277 188 190
f 277 276 188
f 278 190 192
f 278 277 190
f 192 184 272
f 192 272 278
f 195 279 196
f 280 197 196
f 280 196 279
f 281 198 197
f 281 197 280
f 282 199 198
f 282 198 281
f 283 200 199
f 283 199 282
f 283 201 200
f 285 284 203
f 285 203 204
f 203 286 205
f 284 286 203
f 205 287 206
f 286 287 205
f 206 288 207
f 287 288 206
f 195 207 279
f 207 289 279
f 207 288 289
f 279 289 280
f 280 289 290
f 280 290 281
f 281 290 291
f 281 291 282
f 282 291 292
f 282 292 283
f 283 292 293
f 283 293 201
f 293 213 201
f 293 294 213
f 296 295 215
f 213 296 215
f 294 296 213
f 297 295 296
f 300 299 298
f 299 285 298
f 285 217 298
f 285 204 217
f 303 302 301
f 301 304 303
f 305 220 219
f 221 306 219
f 219 306 305
f 222 307 221
f 221 307 306
f 215 295 222
f 295 307 222
f 295 308 307
f 295 297 309
f 295 309 308
f 310 300 298
f 298 217 310
f 217 311 310
f 217 224 311
f 313 312 225
f 225 312 227
f 314 225 228
f 314 313 225
f 230 301 302
f 314 230 302
f 228 230 314
f 315 304 301
f 230 315 301
f 231 315 230
f 231 233 315
f 315 233 316
f 305 234 220
f 305 306 317
f 235 305 317
f 318 235 317
f 305 235 234
f 317 306 307
f 317 307 319
f 319 307 308
f 319 308 320
f 320 308 309
f 237 311 224
f 237 321 311
f 324 323 322
f 312 324 322
f 239 312 322
f 227 312 239
f 325 316 233
f 325 233 240
f 240 242 325
f 325 242 326
f 318 243 235
f 327 243 318
f 245 321 237
f 245 328 321
f 322 323 329
f 329 323 330
f 329 246 239
f 329 239 322
f 248 326 242
f 248 331 326
f 327 249 243
f 332 249 327
f 251 328 245
f 251 333 328
f 330 334 329
f 246 329 334
f 335 246 334
f 253 246 335
f 255 331 248
f 255 336 331
f 332 256 249
f 337 256 332
f 338 333 251
f 338 251 257
f 257 258 338
f 338 258 339
f 259 253 340
f 253 341 340
f 253 335 341
f 340 261 259
f 343 342 265
f 343 265 264
f 255 265 336
f 336 265 342
f 337 266 256
f 344 266 337
f 258 267 345
f 346 258 345
f 339 258 346
f 341 347 340
f 345 267 268
f 340 347 261
f 347 269 261
f 347 348 269
f 269 349 270
f 348 349 269
f 270 350 271
f 349 350 270
f 264 271 343
f 343 271 350
f 352 351 273
f 273 351 272
f 273 266 344
f 273 344 352
f 353 346 345
f 353 345 268
f 274 353 268
f 354 353 274
f 355 274 275
f 355 354 274
f 357 355 356
f 355 276 356
f 355 275 276
f 356 276 358
f 276 359 358
f 276 277 359
f 360 277 278
f 360 359 277
f 278 272 351
f 278 351 360
f 361 357 356
f 361 356 358
f 285 362 284
f 363 286 284
f 363 284 362
f 364 287 286
f 364 286 363
f 365 288 287
f 365 287 364
f 366 289 288
f 366 288 365
f 367 290 289
f 367 289 366
f 368 291 290
f 368 290 367
f 369 292 291
f 369 291 368
f 370 293 292
f 370 292 369
f 371 294 293
f 371 293 370
f 372 296 294
f 372 294 371
f 372 297 296
f 374 373 299
f 374 299 300
f 285 299 362
f 299 375 362
f 299 373 375
f 362 375 363
f 363 375 376
f 363 376 364
f 364 376 377
f 379 378 377
f 378 364 377
f 378 365 364
f 378 302 303
f 366 378 303
f 365 378 366
f 367 366 380
f 366 304 380
f 304 381 380
f 304 366 303
f 367 380 368
f 368 380 382
f 368 382 369
f 369 382 383
f 369 383 370
f 370 383 384
f 370 384 371
f 371 384 385
f 371 385 372
f 372 385 386
f 309 297 372
f 387 309 372
f 386 387 372
f 309 387 388
f 389 388 387
f 392 391 390
f 393 390 310
f 390 374 310
f 374 300 310
f 374 390 391
f 311 393 310
f 395 394 313
f 313 394 312
f 314 378 379
f 395 314 379
f 313 314 395
f 378 314 302
f 396 381 304
f 396 304 315
f 315 316 396
f 396 316 397
f 399 398 317
f 317 398 318
f 400 317 319
f 400 399 317
f 401 319 320
f 401 400 319
f 320 309 388
f 402 320 388
f 401 320 402
f 402 388 389
f 403 392 390
f 403 390 393
f 403 393 404
f 393 311 404
f 311 405 404
f 311 321 405
f 406 323 324
f 407 406 324
f 312 407 324
f 394 407 312
f 408 397 316
f 408 316 325
f 325 326 408
f 408 326 409
f 398 327 318
f 410 327 398
f 328 405 321
f 328 411 405
f 413 412 406
f 412 323 406
f 412 330 323
f 413 406 407
f 331 409 326
f 331 414 409
f 410 332 327
f 415 332 410
f 333 411 328
f 333 416 411
f 412 417 330
f 330 417 334
f 335 334 417
f 335 417 418
f 336 414 331
f 336 419 414
f 415 337 332
f 420 337 415
f 421 416 333
f 421 333 338
f 338 339 421
f 421 339 422
f 424 341 423
f 341 418 423
f 341 335 418
f 425 424 423
f 427 426 342
f 427 342 343
f 336 342 419
f 419 342 426
f 420 344 337
f 428 344 420
f 346 422 339
f 346 429 422
f 424 347 341
f 425 430 424
f 430 347 424
f 430 348 347
f 348 431 349
f 430 431 348
f 349 432 350
f 431 432 349
f 343 350 427
f 427 350 432
f 434 433 352
f 352 433 351
f 352 344 428
f 352 428 434
f 435 429 346
f 435 346 353
f 436 353 354
f 436 435 353
f 437 354 355
f 437 436 354
f 355 357 437
f 437 357 438
f 440 439 359
f 359 439 358
f 441 359 360
f 441 440 359
f 360 351 433
f 360 433 441
f 442 438 357
f 442 357 361
f 361 358 439
f 361 439 442
f 374 443 373
f 444 375 373
f 444 373 443
f 445 376 375
f 445 375 444
f 446 377 376
f 446 376 445
f 446 379 377
f 381 447 380
f 380 447 448
f 449 380 448
f 382 380 449
f 382 450 383
f 449 450 382
f 383 451 384
f 450 451 383
f 384 452 385
f 451 452 384
f 385 453 386
f 452 453 385
f 386 454 387
f 453 454 386
f 389 387 454
f 389 454 455
f 458 457 456
f 391 392 456
f 457 391 456
f 459 391 457
f 374 391 443
f 391 460 443
f 391 459 460
f 443 460 444
f 444 460 461
f 444 461 445
f 445 461 462
f 463 394 395
f 445 463 395
f 446 445 395
f 462 463 445
f 446 395 379
f 396 447 381
f 396 397 447
f 397 448 447
f 397 464 448
f 465 398 399
f 400 466 399
f 399 466 465
f 401 467 400
f 400 467 466
f 467 401 468
f 401 469 468
f 401 402 469
f 402 389 455
f 402 455 469
f 470 458 456
f 472 470 471
f 471 470 403
f 470 456 403
f 456 392 403
f 404 473 403
f 403 473 471
f 405 473 404
f 463 407 394
f 474 407 463
f 475 464 397
f 475 397 408
f 408 409 475
f 475 409 476
f 478 477 465
f 477 398 465
f 477 410 398
f 478 465 466
f 478 466 479
f 479 466 467
f 479 467 480
f 480 467 468
f 481 472 471
f 481 471 473
f 481 473 482
f 473 405 482
f 405 483 482
f 405 411 483
f 484 412 413
f 485 484 413
f 407 485 413
f 474 485 407
f 414 476 409
f 414 486 476
f 477 415 410
f 487 415 477
f 416 483 411
f 416 488 483
f 484 417 412
f 418 417 484
f 485 418 484
f 489 418 485
f 492 491 490
f 491 486 490
f 486 419 490
f 486 414 419
f 487 420 415
f 493 420 487
f 494 488 416
f 494 416 421
f 421 422 494
f 494 422 495
f 489 496 418
f 418 496 423
f 425 423 496
f 425 496 497
f 500 499 498
f 498 499 492
f 498 492 490
f 427 498 490
f 426 427 490
f 426 490 419
f 493 428 420
f 501 428 493
f 429 503 502
f 495 429 502
f 422 429 495
f 503 504 502
f 497 505 425
f 425 505 430
f 430 506 431
f 505 506 430
f 498 432 500
f 432 506 500
f 432 431 506
f 432 498 427
f 508 507 434
f 434 507 433
f 434 428 501
f 434 501 508
f 435 503 429
f 509 504 503
f 435 509 503
f 436 509 435
f 510 436 437
f 510 509 436
f 512 511 438
f 511 437 438
f 511 510 437
f 439 440 512
f 440 511 512
f 440 513 511
f 514 440 441
f 514 513 440
f 441 433 507
f 441 507 514
f 442 512 438
f 512 442 439
f 448 515 449
f 516 450 449
f 516 449 515
f 517 451 450
f 517 450 516
f 518 452 451
f 518 451 517
f 519 453 452
f 519 452 518
f 520 454 453
f 520 453 519
f 520 455 454
f 458 521 457
f 457 521 522
f 523 457 522
f 459 457 523
f 523 525 524
f 460 523 524
f 459 523 460
f 460 524 526
f 527 460 526
f 461 460 527
f 461 528 462
f 527 528 461
f 463 462 528
f 463 528 529
f 531 530 515
f 448 531 515
f 464 531 448
f 515 530 516
f 516 530 532
f 516 532 517
f 517 532 533
f 517 533 518
f 518 533 534
f 518 534 519
f 519 534 535
f 536 468 469
f 519 536 469
f 520 519 469
f 535 536 519
f 520 469 455
f 470 521 458
f 470 472 521
f 472 522 521
f 472 537 522
f 525 538 524
f 524 538 526
f 540 474 539
f 474 529 539
f 474 463 529
f 541 540 539
f 544 543 542
f 545 542 475
f 542 531 475
f 531 464 475
f 531 542 543
f 476 545 475
f 546 477 478
f 546 478 547
f 478 548 547
f 478 479 548
f 549 479 480
f 549 548 479
f 480 468 536
f 480 536 549
f 550 537 472
f 550 472 481
f 551 481 482
f 551 550 481
f 553 552 483
f 552 482 483
f 552 551 482
f 553 554 552
f 555 485 540
f 540 485 474
f 540 541 556
f 540 556 555
f 557 544 542
f 559 558 557
f 542 559 557
f 545 559 542
f 486 559 476
f 476 559 545
f 561 560 546
f 560 477 546
f 560 487 477
f 561 546 547
f 488 562 553
f 488 553 483
f 554 553 563
f 563 553 562
f 564 489 555
f 555 489 485
f 555 556 565
f 566 555 565
f 564 555 566
f 567 566 565
f 570 569 568
f 568 569 558
f 568 558 559
f 492 568 559
f 491 492 559
f 491 559 486
f 560 493 487
f 571 493 560
f 494 562 488
f 494 495 562
f 495 563 562
f 495 572 563
f 564 496 489
f 496 564 497
f 564 573 497
f 564 566 573
f 566 567 574
f 575 566 574
f 573 566 575
f 575 574 570
f 575 570 568
f 500 575 568
f 499 500 568
f 499 568 492
f 578 577 576
f 571 578 576
f 501 571 576
f 493 571 501
f 579 572 495
f 579 495 502
f 581 580 504
f 580 502 504
f 580 579 502
f 573 505 497
f 582 580 581
f 505 573 506
f 506 573 575
f 506 575 500
f 585 584 583
f 585 583 577
f 577 583 576
f 583 507 576
f 507 508 576
f 576 508 501
f 509 581 504
f 586 582 581
f 509 586 581
f 510 586 509
f 587 510 511
f 587 586 510
f 588 511 513
f 588 587 511
f 514 583 584
f 588 514 584
f 513 514 588
f 583 514 507
f 522 589 523
f 589 525 523
f 526 590 527
f 591 528 527
f 591 527 590
f 591 529 528
f 531 592 530
f 593 532 530
f 593 530 592
f 594 533 532
f 594 532 593
f 533 594 595
f 596 533 595
f 534 533 596
f 596 598 597
f 535 596 597
f 534 596 535
f 597 536 535
f 537 599 589
f 537 589 522
f 589 599 525
f 599 600 525
f 600 538 525
f 599 601 600
f 526 538 590
f 538 602 590
f 538 600 602
f 590 602 591
f 591 602 603
f 591 603 529
f 603 539 529
f 603 604 539
f 606 605 541
f 539 606 541
f 604 606 539
f 608 607 605
f 608 605 606
f 543 544 607
f 608 543 607
f 609 543 608
f 531 543 592
f 543 610 592
f 543 609 610
f 592 610 593
f 593 610 611
f 593 611 594
f 594 611 612
f 613 547 548
f 612 595 594
f 598 614 597
f 614 548 597
f 548 549 597
f 548 614 613
f 597 549 536
f 550 599 537
f 615 601 599
f 550 615 599
f 551 615 550
f 617 615 616
f 615 552 616
f 615 551 552
f 554 616 552
f 618 556 605
f 605 556 541
f 619 605 607
f 618 605 619
f 557 620 544
f 620 607 544
f 620 619 607
f 558 620 557
f 623 622 621
f 560 561 621
f 561 623 621
f 561 624 623
f 561 547 613
f 625 561 613
f 624 561 625
f 625 613 614
f 626 617 616
f 554 563 616
f 563 627 616
f 627 626 616
f 627 563 628
f 628 629 627
f 618 565 556
f 565 618 567
f 618 630 567
f 618 619 630
f 570 630 569
f 630 620 569
f 630 619 620
f 569 620 558
f 621 622 631
f 631 622 632
f 631 571 560
f 631 560 621
f 572 633 628
f 572 628 563
f 629 628 634
f 628 635 634
f 628 633 635
f 635 636 634
f 630 574 567
f 574 630 570
f 639 638 637
f 639 637 632
f 632 637 631
f 637 577 631
f 577 578 631
f 631 578 571
f 579 633 572
f 633 579 580
f 633 580 635
f 641 640 582
f 582 640 580
f 640 636 580
f 636 635 580
f 643 642 641
f 641 642 640
f 645 644 643
f 643 644 642
f 644 645 638
f 638 645 637
f 645 584 637
f 584 585 637
f 637 585 577
f 586 641 582
f 641 586 587
f 641 587 643
f 643 587 588
f 643 588 645
f 645 588 584
f 595 646 596
f 646 598 596
f 601 647 600
f 648 602 600
f 648 600 647
f 649 603 602
f 649 602 648
f 650 604 603
f 650 603 649
f 651 606 604
f 651 604 650
f 652 608 606
f 652 606 651
f 608 652 653
f 654 608 653
f 609 608 654
f 609 655 610
f 654 655 609
f 610 656 611
f 655 656 610
f 611 657 612
f 656 657 611
f 612 657 595
f 657 658 595
f 658 646 595
f 658 657 659
f 658 614 598
f 658 598 646
f 615 647 601
f 648 647 660
f 647 617 660
f 617 661 660
f 617 647 615
f 648 660 649
f 649 660 662
f 649 662 650
f 650 662 663
f 650 663 651
f 651 663 664
f 651 664 652
f 652 664 665
f 652 665 653
f 666 622 623
f 624 667 623
f 623 667 666
f 659 668 658
f 668 624 658
f 624 625 658
f 624 668 667
f 658 625 614
f 669 661 617
f 669 617 626
f 670 626 627
f 670 669 626
f 672 671 629
f 671 627 629
f 671 670 627
f 674 673 672
f 672 673 671
f 676 675 674
f 674 675 673
f 678 677 676
f 676 677 675
f 680 679 678
f 678 679 677
f 681 679 666
f 679 632 666
f 632 622 666
f 679 680 632
f 681 666 667
f 681 667 682
f 682 667 668
f 634 672 629
f 672 634 636
f 683 672 636
f 674 672 683
f 674 684 676
f 674 683 684
f 676 685 678
f 676 684 685
f 685 638 639
f 680 685 639
f 678 685 680
f 680 639 632
f 640 683 636
f 683 640 642
f 683 642 684
f 684 642 644
f 684 644 685
f 685 644 638
f 653 686 654
f 687 655 654
f 687 654 686
f 688 656 655
f 688 655 687
f 689 657 656
f 689 656 688
f 689 659 657
f 661 690 660
f 691 662 660
f 691 660 690
f 662 691 692
f 693 662 692
f 663 662 693
f 663 694 664
f 693 694 663
f 664 695 665
f 694 695 664
f 653 665 686
f 665 696 686
f 665 695 696
f 686 696 687
f 687 696 697
f 687 697 688
f 688 697 698
f 700 699 698
f 699 688 698
f 699 689 688
f 699 668 659
f 699 659 689
f 669 690 661
f 690 669 670
f 690 670 691
f 670 671 691
f 671 701 691
f 701 692 691
f 671 702 701
f 673 703 671
f 671 703 702
f 675 704 673
f 673 704 703
f 677 705 675
f 675 705 704
f 679 706 677
f 677 706 705
f 706 679 707
f 679 708 707
f 679 681 708
f 682 699 700
f 708 682 700
f 681 682 708
f 699 682 668
f 709 701 702
f 709 702 703
f 709 703 710
f 710 703 704
f 710 704 711
f 711 704 705
f 711 705 712
f 712 705 706
f 712 706 713
f 713 706 707
f 692 714 693
f 715 694 693
f 715 693 714
f 716 695 694
f 716 694 715
f 717 696 695
f 717 695 716
f 718 697 696
f 718 696 717
f 719 698 697
f 719 697 718
f 719 700 698
f 701 720 714
f 701 714 692
f 722 715 721
f 715 720 721
f 715 714 720
f 715 722 716
f 716 722 723
f 716 723 717
f 717 723 724
f 726 725 724
f 725 717 724
f 725 718 717
f 725 707 708
f 719 725 708
f 718 725 719
f 719 708 700
f 709 720 701
f 727 721 720
f 709 727 720
f 710 727 709
f 728 710 711
f 728 727 710
f 729 711 712
f 729 728 711
f 713 725 726
f 729 713 726
f 712 713 729
f 725 713 707
f 721 730 722
f 722 730 731
f 732 722 731
f 723 722 732
f 723 733 724
f 732 733 723
f 726 724 733
f 726 733 734
f 727 730 721
f 735 731 730
f 727 735 730
f 728 735 727
f 736 728 729
f 736 735 728
f 729 726 734
f 729 734 736
f 731 737 732
f 738 733 732
f 738 732 737
f 738 734 733
f 735 737 731
f 737 735 736
f 737 736 738
f 738 736 734

