# https://github.com/mikedh/trimesh
v -0.04230185 -0.05484517 -0.01126575
v -0.03844136 -0.05762215 -0.01229053
v -0.04022808 -0.05428327 -0.01489377
v -0.04264150 -0.05478397 -0.00535441
v -0.03961625 -0.05789848 -0.00674600
v -0.04253531 -0.05481595 0.00106120
v -0.03937882 -0.05789247 -0.00039408
v -0.04265623 -0.05472984 0.00760398
v -0.03929998 -0.05801935 0.00609971
v -0.04210151 -0.05402272 0.01266906
v -0.04014797 -0.05736822 0.01127659
v -0.03875601 -0.05541605 0.01462126
v -0.04252719 -0.04922956 -0.01229031
v -0.03934504 -0.04922956 -0.01534736
v -0.04320566 -0.04920651 -0.00674531
v -0.04317743 -0.04916505 -0.00041144
v -0.04333204 -0.04903390 0.00604372
v -0.04275445 -0.04884252 0.01182459
v -0.03946403 -0.05034819 0.01517912
v -0.04244718 -0.04285662 -0.01208325
v -0.03932258 -0.04284132 -0.01512370
v -0.04306081 -0.04284992 -0.00653957
v -0.04297706 -0.04283182 -0.00016029
v -0.04313085 -0.04265305 0.00624171
v -0.04261410 -0.04238994 0.01184482
v -0.03955190 -0.04381486 0.01504445
v -0.04252189 -0.03663029 -0.01199046
v -0.03947401 -0.03662911 -0.01503997
v -0.04304122 -0.03663882 -0.00641305
v -0.04290036 -0.03663951 0.00000622
v -0.04303790 -0.03646357 0.00642679
v -0.04251887 -0.03618008 0.01200027
v -0.03947971 -0.03750294 0.01504393
v -0.04253214 -0.03052845 -0.01199610
v -0.03948464 -0.03052897 -0.01504522
v -0.04304650 -0.03053656 -0.00641664
v -0.04290192 -0.03053871 0.00000603
v -0.04303994 -0.03036381 0.00642897
v -0.04252113 -0.03008408 0.01200840
v -0.03947229 -0.03140435 0.01505194
v -0.04252569 -0.02442688 -0.01200037
v -0.03947655 -0.02442681 -0.01504943
v -0.04304326 -0.02443532 -0.00642149
v -0.04290239 -0.02443708 -0.00000013
v -0.04304308 -0.02426152 0.00642125
v -0.04252553 -0.02398190 0.01200030
v -0.03947628 -0.02530708 0.01504947
v -0.04252530 -0.01832009 -0.01200029
v -0.03947621 -0.01832001 -0.01504937
v -0.04304292 -0.01832858 -0.00642141
v -0.04290224 -0.01833035 -0.00000012
v -0.04304309 -0.01815473 0.00642116
v -0.04252557 -0.01787497 0.01200000
v -0.03947652 -0.01920023 0.01504918
v -0.04252550 -0.01221328 -0.01200018
v -0.03947642 -0.01221320 -0.01504926
v -0.04304308 -0.01222175 -0.00642130
v -0.04290233 -0.01222351 0.00000000
v -0.04304308 -0.01204790 0.00642131
v -0.04252550 -0.01176815 0.01200019
v -0.03947642 -0.01309331 0.01504927
v -0.04252550 -0.00610658 -0.01200019
v -0.03947642 -0.00610650 -0.01504927
v -0.04304308 -0.00611505 -0.00642130
v -0.04290233 -0.00611681 0.00000000
v -0.04304308 -0.00594120 0.00642131
v -0.04252550 -0.00566145 0.01200019
v -0.03947642 -0.00698661 0.01504927
v -0.04252550 0.00000013 -0.01200019
v -0.03947642 0.00000021 -0.01504927
v -0.04304308 -0.00000834 -0.00642131
v -0.04290232 -0.00001011 -0.00000000
v -0.04304308 0.00016550 0.00642131
v -0.04252550 0.00044525 0.01200019
v -0.03947642 -0.00087991 0.01504927
v -0.04252550 0.00610683 -0.01200019
v -0.03947642 0.00610691 -0.01504927
v -0.04304308 0.00609836 -0.00642131
v -0.04290232 0.00609660 -0.00000000
v -0.04304308 0.00627221 0.00642131
v -0.04252550 0.00655195 0.01200019
v -0.03947642 0.00522680 0.01504927
v -0.04252549 0.01221353 -0.01200019
v -0.03947642 0.01221361 -0.01504927
v -0.04304308 0.01220507 -0.00642131
v -0.04290232 0.01220330 -0.00000000
v -0.04304308 0.01237891 0.00642130
v -0.04252550 0.01265866 0.01200019
v -0.03947642 0.01133350 0.01504927
v -0.04252557 0.01832034 -0.01200001
v -0.03947651 0.01832043 -0.01504907
v -0.04304313 0.01831185 -0.00642117
v -0.04290235 0.01831005 0.00000008
v -0.04304309 0.01848564 0.00642134
v -0.04252550 0.01876537 0.01200019
v -0.03947642 0.01744021 0.01504927
v -0.04252558 0.02442711 -0.01200041
v -0.03947656 0.02442721 -0.01504950
v -0.04304315 0.02441857 -0.00642147
v -0.04290241 0.02441678 -0.00000004
v -0.04304315 0.02459240 0.00642138
v -0.04252553 0.02487214 0.01200027
v -0.03947642 0.02354694 0.01504930
v -0.04252150 0.03052923 -0.01200831
v -0.03947225 0.03052876 -0.01505599
v -0.04303972 0.03052118 -0.00642879
v -0.04290023 0.03052014 -0.00000546
v -0.04304227 0.03069701 0.00641832
v -0.04252540 0.03097802 0.01199916
v -0.03947648 0.02965356 0.01504918
v -0.04251694 0.03662937 -0.01199689
v -0.03946659 0.03663057 -0.01504572
v -0.04303693 0.03662258 -0.00641856
v -0.04289769 0.03662403 0.00000227
v -0.04303900 0.03680123 0.00642037
v -0.04252280 0.03708131 0.01199614
v -0.03947564 0.03575754 0.01504606
v -0.04260194 0.04284166 -0.01184417
v -0.03955951 0.04285679 -0.01497107
v -0.04312499 0.04281788 -0.00623921
v -0.04297424 0.04281689 0.00016584
v -0.04308394 0.04298132 0.00653889
v -0.04253498 0.04322932 0.01205599
v -0.03947378 0.04187372 0.01505987
v -0.04282708 0.04922981 -0.01186564
v -0.03976658 0.04922978 -0.01505092
v -0.04334713 0.04919673 -0.00619018
v -0.04317048 0.04915018 0.00023536
v -0.04323015 0.04927578 0.00658311
v -0.04263497 0.04947807 0.01213928
v -0.03951397 0.04808413 0.01516657
v -0.04237424 0.05428360 -0.01274766
v -0.03873691 0.05484936 -0.01481886
v -0.04282520 0.05484511 -0.00784716
v -0.04261352 0.05477083 -0.00144150
v -0.04262978 0.05482356 0.00495754
v -0.04235571 0.05503248 0.01095784
v -0.03958260 0.05400367 0.01481886
v -0.03976572 0.05762247 -0.01095784
v -0.03955679 0.05789654 -0.00495754
v -0.03950407 0.05788028 0.00144150
v -0.03957835 0.05809196 0.00784716
v -0.03901684 0.05764100 0.01274766
v -0.03243504 -0.05790167 -0.01208323
v -0.03532086 -0.05484935 -0.01534735
v -0.03406093 -0.05849697 -0.00654063
v -0.03383491 -0.05844225 -0.00016109
v -0.03351884 -0.05859880 0.00629311
v -0.03507841 -0.05792538 0.01198568
v -0.03357570 -0.05457087 0.01527503
v -0.03366356 -0.04920151 -0.01587083
v -0.03376890 -0.04878653 0.01585584
v -0.03371409 -0.04282387 -0.01564937
v -0.03389900 -0.04237260 0.01565500
v -0.03389288 -0.03663003 -0.01556299
v -0.03389744 -0.03618077 0.01556709
v -0.03390090 -0.03052945 -0.01556793
v -0.03389228 -0.03008427 0.01556792
v -0.03389244 -0.02442700 -0.01557220
v -0.03389224 -0.02398185 0.01557204
v -0.03389214 -0.01832022 -0.01557214
v -0.03389235 -0.01787496 0.01557214
v -0.03389235 -0.01221341 -0.01557203
v -0.03389235 -0.01176815 0.01557203
v -0.03389235 -0.00610671 -0.01557204
v -0.03389235 -0.00566145 0.01557204
v -0.03389235 -0.00000001 -0.01557204
v -0.03389235 0.00044525 0.01557204
v -0.03389235 0.00610670 -0.01557204
v -0.03389235 0.00655195 0.01557204
v -0.03389235 0.01221340 -0.01557204
v -0.03389235 0.01265866 0.01557204
v -0.03389245 0.01832023 -0.01557188
v -0.03389235 0.01876537 0.01557204
v -0.03389253 0.02442697 -0.01557222
v -0.03389237 0.02487214 0.01557212
v -0.03388766 0.03052822 -0.01557547
v -0.03389238 0.03097802 0.01557119
v -0.03388413 0.03663042 -0.01557028
v -0.03389075 0.03708131 0.01556796
v -0.03401064 0.04284153 -0.01558993
v -0.03389169 0.04322928 0.01561425
v -0.03421129 0.04920150 -0.01573035
v -0.03393474 0.04947805 0.01573035
v -0.03281737 0.05478073 -0.01516657
v -0.03396301 0.05503334 0.01505092
v -0.03421131 0.05790173 -0.01213928
v -0.03400901 0.05849692 -0.00658311
v -0.03388341 0.05843724 -0.00023536
v -0.03392997 0.05861389 0.00619018
v -0.03396304 0.05809385 0.01186564
v -0.02616525 -0.05780173 -0.01199043
v -0.02892341 -0.05478074 -0.01512369
v -0.02780284 -0.05835057 -0.00641305
v -0.02755261 -0.05824252 0.00000389
v -0.02710814 -0.05839733 0.00642486
v -0.02854263 -0.05778937 0.01207495
v -0.02712304 -0.05458981 0.01513597
v -0.02727724 -0.04915845 -0.01564937
v -0.02738816 -0.04898418 0.01565438
v -0.02738024 -0.04282293 -0.01542242
v -0.02756582 -0.04265554 0.01542394
v -0.02755966 -0.03663099 -0.01533525
v -0.02756625 -0.03646559 0.01533515
v -0.02756636 -0.03052944 -0.01534035
v -0.02755782 -0.03036403 0.01534025
v -0.02755794 -0.02442699 -0.01534463
v -0.02755766 -0.02426148 0.01534463
v -0.02755765 -0.01832022 -0.01534456
v -0.02755787 -0.01815471 0.01534456
v -0.02755787 -0.01221341 -0.01534446
v -0.02755787 -0.01204790 0.01534446
v -0.02755787 -0.00610671 -0.01534446
v -0.02755786 -0.00594120 0.01534446
v -0.02755786 -0.00000000 -0.01534446
v -0.02755786 0.00016550 0.01534446
v -0.02755786 0.00610670 -0.01534446
v -0.02755786 0.00627221 0.01534446
v -0.02755786 0.01221340 -0.01534446
v -0.02755786 0.01237891 0.01534446
v -0.02755798 0.01832024 -0.01534438
v -0.02755786 0.01848564 0.01534448
v -0.02755800 0.02442698 -0.01534453
v -0.02755790 0.02459240 0.01534454
v -0.02755188 0.03052857 -0.01534406
v -0.02755785 0.03069701 0.01534235
v -0.02755182 0.03662931 -0.01534260
v -0.02755617 0.03680119 0.01534067
v -0.02771457 0.04282386 -0.01541743
v -0.02755710 0.04298133 0.01541743
v -0.02796252 0.04915845 -0.01561425
v -0.02757476 0.04927740 0.01558993
v -0.02660696 0.05474054 -0.01505987
v -0.02759003 0.05482627 0.01497107
v -0.02796256 0.05780174 -0.01205599
v -0.02771455 0.05835070 -0.00653889
v -0.02755013 0.05824100 -0.00016584
v -0.02755112 0.05839175 0.00623921
v -0.02757490 0.05786870 0.01184417
v -0.02005008 -0.05778956 -0.01199610
v -0.02268726 -0.05474054 -0.01503997
v -0.02165672 -0.05830572 -0.00641658
v -0.02137828 -0.05816435 0.00000603
v -0.02091551 -0.05830777 0.00642552
v -0.02222874 -0.05778757 0.01200352
v -0.02091316 -0.05474399 0.01504195
v -0.02108252 -0.04915751 -0.01556299
v -0.02119799 -0.04916774 0.01556304
v -0.02118862 -0.04282461 -0.01533525
v -0.02137443 -0.04283491 0.01533513
v -0.02136605 -0.03663104 -0.01524831
v -0.02137263 -0.03664119 0.01524826
v -0.02137271 -0.03052941 -0.01525343
v -0.02136411 -0.03053952 0.01525343
v -0.02136432 -0.02442698 -0.01525770
v -0.02136403 -0.02443709 0.01525770
v -0.02136403 -0.01832021 -0.01525764
v -0.02136425 -0.01833032 0.01525764
v -0.02136424 -0.01221340 -0.01525753
v -0.02136424 -0.01222351 0.01525753
v -0.02136424 -0.00610670 -0.01525754
v -0.02136424 -0.00611681 0.01525754
v -0.02136424 0.00000000 -0.01525754
v -0.02136424 -0.00001011 0.01525754
v -0.02136424 0.00610670 -0.01525754
v -0.02136424 0.00609660 0.01525754
v -0.02136424 0.01221341 -0.01525754
v -0.02136424 0.01220330 0.01525754
v -0.02136439 0.01832023 -0.01525754
v -0.02136424 0.01831006 0.01525759
v -0.02136430 0.02442701 -0.01525754
v -0.02136428 0.02441678 0.01525759
v -0.02135679 0.03052918 -0.01525446
v -0.02136423 0.03052011 0.01525416
v -0.02135728 0.03663003 -0.01525212
v -0.02136326 0.03662404 0.01525212
v -0.02153443 0.04282293 -0.01534067
v -0.02136255 0.04281858 0.01534260
v -0.02181455 0.04915751 -0.01556796
v -0.02136366 0.04915089 0.01557028
v -0.02049078 0.05474240 -0.01504606
v -0.02136381 0.05473335 0.01504572
v -0.02181455 0.05778956 -0.01199614
v -0.02153447 0.05830577 -0.00642037
v -0.02135727 0.05816445 -0.00000227
v -0.02135582 0.05830370 0.00641856
v -0.02136261 0.05778370 0.01199689
v -0.01394998 -0.05779216 -0.01200037
v -0.01658685 -0.05474240 -0.01504522
v -0.01555594 -0.05830904 -0.00642149
v -0.01527506 -0.05816689 -0.00000005
v -0.01481663 -0.05830646 0.00642131
v -0.01612920 -0.05779490 0.01199624
v -0.01481717 -0.05475143 0.01504490
v -0.01498272 -0.04915914 -0.01556793
v -0.01509750 -0.04916767 0.01556787
v -0.01508709 -0.04282466 -0.01534035
v -0.01527279 -0.04283301 0.01534034
v -0.01526442 -0.03663100 -0.01525343
v -0.01527099 -0.03663934 0.01525343
v -0.01527112 -0.03052942 -0.01525855
v -0.01526253 -0.03053776 0.01525855
v -0.01526273 -0.02442698 -0.01526282
v -0.01526245 -0.02443533 0.01526282
v -0.01526244 -0.01832021 -0.01526275
v -0.01526266 -0.01832856 0.01526275
v -0.01526266 -0.01221340 -0.01526265
v -0.01526266 -0.01222175 0.01526265
v -0.01526266 -0.00610670 -0.01526265
v -0.01526265 -0.00611505 0.01526265
v -0.01526265 0.00000000 -0.01526265
v -0.01526265 -0.00000834 0.01526265
v -0.01526265 0.00610670 -0.01526265
v -0.01526265 0.00609836 0.01526265
v -0.01526265 0.01221341 -0.01526265
v -0.01526265 0.01220507 0.01526265
v -0.01526284 0.01832022 -0.01526272
v -0.01526265 0.01831185 0.01526273
v -0.01526270 0.02442702 -0.01526270
v -0.01526268 0.02441856 0.01526273
v -0.01525438 0.03052945 -0.01525855
v -0.01526268 0.03052115 0.01525855
v -0.01525335 0.03663099 -0.01525416
v -0.01526242 0.03662356 0.01525446
v -0.01543025 0.04282461 -0.01534235
v -0.01526181 0.04281864 0.01534406
v -0.01571126 0.04915914 -0.01557119
v -0.01526146 0.04915442 0.01557547
v -0.01438679 0.05474324 -0.01504918
v -0.01526199 0.05473902 0.01505599
v -0.01571126 0.05779216 -0.01199916
v -0.01543025 0.05830903 -0.00641832
v -0.01525337 0.05816699 0.00000546
v -0.01525441 0.05830648 0.00642879
v -0.01526246 0.05778826 0.01200831
v -0.00784338 -0.05779229 -0.01200029
v -0.01048531 -0.05474324 -0.01504943
v -0.00945008 -0.05830992 -0.00642141
v -0.00917031 -0.05816917 -0.00000012
v -0.00871326 -0.05830976 0.00642125
v -0.01003176 -0.05779235 0.01200012
v -0.00871502 -0.05474321 0.01504942
v -0.00888029 -0.04915913 -0.01557220
v -0.00899494 -0.04915899 0.01557220
v -0.00898462 -0.04282462 -0.01534463
v -0.00917033 -0.04282449 0.01534463
v -0.00916199 -0.03663100 -0.01525770
v -0.00916856 -0.03663087 0.01525770
v -0.00916869 -0.03052942 -0.01526282
v -0.00916010 -0.03052929 0.01526282
v -0.00916030 -0.02442698 -0.01526709
v -0.00916002 -0.02442686 0.01526709
v -0.00916001 -0.01832021 -0.01526703
v -0.00916023 -0.01832008 0.01526703
v -0.00916023 -0.01221340 -0.01526692
v -0.00916023 -0.01221328 0.01526692
v -0.00916023 -0.00610670 -0.01526693
v -0.00916023 -0.00610657 0.01526693
v -0.00916023 0.00000000 -0.01526693
v -0.00916023 0.00000013 0.01526693
v -0.00916022 0.00610670 -0.01526693
v -0.00916023 0.00610683 0.01526693
v -0.00916022 0.01221341 -0.01526693
v -0.00916022 0.01221354 0.01526692
v -0.00916043 0.01832022 -0.01526702
v -0.00916022 0.01832034 0.01526702
v -0.00916032 0.02442699 -0.01526705
v -0.00916023 0.02442708 0.01526705
v -0.00915180 0.03052944 -0.01526273
v -0.00916025 0.03052947 0.01526270
v -0.00915002 0.03663104 -0.01525759
v -0.00916025 0.03663106 0.01525754
v -0.00932564 0.04282466 -0.01534454
v -0.00916022 0.04282476 0.01534453
v -0.00960538 0.04915913 -0.01557212
v -0.00916021 0.04915929 0.01557222
v -0.00828018 0.05474318 -0.01504931
v -0.00916045 0.05474333 0.01504950
v -0.00960538 0.05779229 -0.01200028
v -0.00932564 0.05830992 -0.00642138
v -0.00915002 0.05816917 0.00000004
v -0.00915181 0.05830992 0.00642147
v -0.00916035 0.05779235 0.01200041
v -0.00173654 -0.05779225 -0.01200018
v -0.00437849 -0.05474318 -0.01504937
v -0.00334321 -0.05830985 -0.00642130
v -0.00306348 -0.05816911 0.00000000
v -0.00260638 -0.05830990 0.00642131
v -0.00392498 -0.05779214 0.01200029
v -0.00260812 -0.05474297 0.01504937
v -0.00277350 -0.04915911 -0.01557214
v -0.00288816 -0.04915890 0.01557214
v -0.00287785 -0.04282462 -0.01534456
v -0.00306356 -0.04282442 0.01534456
v -0.00305522 -0.03663100 -0.01525763
v -0.00306180 -0.03663079 0.01525763
v -0.00306193 -0.03052941 -0.01526275
v -0.00305333 -0.03052921 0.01526275
v -0.00305353 -0.02442698 -0.01526703
v -0.00305325 -0.02442678 0.01526703
v -0.00305325 -0.01832021 -0.01526696
v -0.00305346 -0.01832001 0.01526696
v -0.00305346 -0.01221340 -0.01526685
v -0.00305346 -0.01221320 0.01526685
v -0.00305346 -0.00610670 -0.01526686
v -0.00305346 -0.00610649 0.01526686
v -0.00305346 0.00000000 -0.01526686
v -0.00305346 0.00000021 0.01526686
v -0.00305345 0.00610671 -0.01526686
v -0.00305346 0.00610691 0.01526686
v -0.00305345 0.01221341 -0.01526685
v -0.00305346 0.01221362 0.01526685
v -0.00305366 0.01832022 -0.01526696
v -0.00305346 0.01832042 0.01526696
v -0.00305358 0.02442699 -0.01526702
v -0.00305346 0.02442719 0.01526702
v -0.00304509 0.03052942 -0.01526273
v -0.00305346 0.03052960 0.01526272
v -0.00304330 0.03663100 -0.01525758
v -0.00305348 0.03663115 0.01525754
v -0.00321888 0.04282463 -0.01534448
v -0.00305348 0.04282475 0.01534437
v -0.00349861 0.04915911 -0.01557204
v -0.00305347 0.04915922 0.01557187
v -0.00217345 0.05474318 -0.01504927
v -0.00305367 0.05474328 0.01504907
v -0.00349861 0.05779226 -0.01200020
v -0.00321888 0.05830985 -0.00642134
v -0.00304330 0.05816911 -0.00000008
v -0.00304509 0.05830990 0.00642117
v -0.00305358 0.05779234 0.01200000
v 0.00437025 -0.05779234 -0.01200019
v 0.00172832 -0.05474318 -0.01504926
v 0.00276354 -0.05830989 -0.00642130
v 0.00304327 -0.05816911 0.00000000
v 0.00350038 -0.05830985 0.00642131
v 0.00218192 -0.05779226 0.01200019
v 0.00349869 -0.05474319 0.01504926
v 0.00333331 -0.04915911 -0.01557204
v 0.00321867 -0.04915915 0.01557204
v 0.00322898 -0.04282462 -0.01534448
v 0.00304330 -0.04282471 0.01534448
v 0.00305163 -0.03663100 -0.01525758
v 0.00304509 -0.03663114 0.01525758
v 0.00304496 -0.03052941 -0.01526273
v 0.00305358 -0.03052960 0.01526273
v 0.00305337 -0.02442698 -0.01526702
v 0.00305366 -0.02442720 0.01526702
v 0.00305367 -0.01832021 -0.01526696
v 0.00305345 -0.01832043 0.01526696
v 0.00305345 -0.01221340 -0.01526685
v 0.00305345 -0.01221362 0.01526685
v 0.00305345 -0.00610670 -0.01526686
v 0.00305346 -0.00610692 0.01526686
v 0.00305346 0.00000001 -0.01526686
v 0.00305346 -0.00000022 0.01526686
v 0.00305346 0.00610671 -0.01526686
v 0.00305346 0.00610649 0.01526686
v 0.00305346 0.01221341 -0.01526685
v 0.00305346 0.01221319 0.01526685
v 0.00305325 0.01832022 -0.01526696
v 0.00305346 0.01832000 0.01526696
v 0.00305333 0.02442699 -0.01526703
v 0.00305346 0.02442677 0.01526703
v 0.00306180 0.03052942 -0.01526275
v 0.00305346 0.03052920 0.01526275
v 0.00306356 0.03663101 -0.01525763
v 0.00305346 0.03663079 0.01525764
v 0.00288795 0.04282463 -0.01534456
v 0.00305346 0.04282441 0.01534456
v 0.00260820 0.04915912 -0.01557214
v 0.00305346 0.04915890 0.01557214
v 0.00393347 0.05474328 -0.01504918
v 0.00305325 0.05474297 0.01504937
v 0.00260821 0.05779233 -0.01200000
v 0.00288797 0.05830985 -0.00642115
v 0.00306359 0.05816900 0.00000012
v 0.00306182 0.05830968 0.00642141
v 0.00305333 0.05779206 0.01200029
v 0.01047701 -0.05779233 -0.01200022
v 0.00783516 -0.05474327 -0.01504930
v 0.00887029 -0.05830990 -0.00642129
v 0.00915003 -0.05816917 0.00000004
v 0.00960714 -0.05830992 0.00642133
v 0.00828865 -0.05779230 0.01200019
v 0.00960546 -0.05474327 0.01504930
v 0.00944017 -0.04915921 -0.01557211
v 0.00932543 -0.04915919 0.01557211
v 0.00933580 -0.04282474 -0.01534454
v 0.00915002 -0.04282459 0.01534454
v 0.00915838 -0.03663115 -0.01525761
v 0.00915180 -0.03663085 0.01525761
v 0.00915167 -0.03052960 -0.01526274
v 0.00916031 -0.03052925 0.01526274
v 0.00916011 -0.02442718 -0.01526706
v 0.00916042 -0.02442687 0.01526706
v 0.00916043 -0.01832042 -0.01526702
v 0.00916022 -0.01832013 0.01526702
v 0.00916022 -0.01221361 -0.01526692
v 0.00916022 -0.01221333 0.01526692
v 0.00916022 -0.00610691 -0.01526693
v 0.00916022 -0.00610663 0.01526693
v 0.00916022 -0.00000020 -0.01526693
v 0.00916022 0.00000008 0.01526693
v 0.00916023 0.00610650 -0.01526693
v 0.00916022 0.00610678 0.01526693
v 0.00916023 0.01221320 -0.01526692
v 0.00916022 0.01221348 0.01526692
v 0.00916002 0.01832001 -0.01526703
v 0.00916022 0.01832029 0.01526703
v 0.00916010 0.02442678 -0.01526709
v 0.00916022 0.02442706 0.01526709
v 0.00916857 0.03052921 -0.01526282
v 0.00916022 0.03052949 0.01526282
v 0.00917033 0.03663080 -0.01525770
v 0.00916022 0.03663108 0.01525770
v 0.00899472 0.04282442 -0.01534463
v 0.00916023 0.04282470 0.01534463
v 0.00871509 0.04915900 -0.01557204
v 0.00916024 0.04915920 0.01557220
v 0.01004032 0.05474304 -0.01504947
v 0.00916005 0.05474331 0.01504943
v 0.00871513 0.05779229 -0.01200030
v 0.00899475 0.05830985 -0.00642125
v 0.00917032 0.05816916 0.00000013
v 0.00916856 0.05831002 0.00642149
v 0.00916012 0.05779245 0.01200037
v 0.01657870 -0.05778822 -0.01199938
v 0.01394173 -0.05474332 -0.01504916
v 0.01497362 -0.05830647 -0.00642134
v 0.01525468 -0.05816697 -0.00000005
v 0.01571303 -0.05830900 0.00642134
v 0.01439526 -0.05779217 0.01200025
v 0.01571134 -0.05474215 0.01504917
v 0.01554603 -0.04915929 -0.01557123
v 0.01543004 -0.04915612 0.01557123
v 0.01544044 -0.04282476 -0.01534237
v 0.01525335 -0.04281919 0.01534237
v 0.01526177 -0.03663106 -0.01525417
v 0.01525438 -0.03662359 0.01525417
v 0.01525428 -0.03052946 -0.01525859
v 0.01526270 -0.03052104 0.01525859
v 0.01526249 -0.02442708 -0.01526274
v 0.01526283 -0.02441844 0.01526274
v 0.01526283 -0.01832034 -0.01526273
v 0.01526265 -0.01831172 0.01526273
v 0.01526265 -0.01221353 -0.01526265
v 0.01526265 -0.01220494 0.01526265
v 0.01526265 -0.00610683 -0.01526265
v 0.01526265 -0.00609823 0.01526265
v 0.01526265 -0.00000013 -0.01526265
v 0.01526265 0.00000847 0.01526265
v 0.01526266 0.00610658 -0.01526265
v 0.01526265 0.00611517 0.01526265
v 0.01526266 0.01221328 -0.01526265
v 0.01526265 0.01222188 0.01526265
v 0.01526245 0.01832009 -0.01526275
v 0.01526265 0.01832868 0.01526275
v 0.01526253 0.02442686 -0.01526282
v 0.01526265 0.02443546 0.01526282
v 0.01527100 0.03052929 -0.01525855
v 0.01526265 0.03053789 0.01525855
v 0.01527276 0.03663087 -0.01525343
v 0.01526265 0.03663947 0.01525343
v 0.01509727 0.04282458 -0.01534025
v 0.01526268 0.04283312 0.01534035
v 0.01481751 0.04915904 -0.01556792
v 0.01526269 0.04916766 0.01556793
v 0.01613759 0.05473906 -0.01505194
v 0.01526221 0.05475140 0.01504522
v 0.01481732 0.05778789 -0.01200840
v 0.01509705 0.05830671 -0.00642897
v 0.01527195 0.05816868 -0.00000603
v 0.01526980 0.05831326 0.00641664
v 0.01526168 0.05779890 0.01199610
v 0.02267994 -0.05778399 -0.01199779
v 0.02004179 -0.05473897 -0.01504654
v 0.02107576 -0.05830461 -0.00642068
v 0.02135880 -0.05816531 -0.00000168
v 0.02181636 -0.05830576 0.00641967
v 0.02049925 -0.05778905 0.01199941
v 0.02181463 -0.05473913 0.01504657
v 0.02164671 -0.04915441 -0.01556796
v 0.02153421 -0.04915822 0.01556797
v 0.02154368 -0.04281864 -0.01533981
v 0.02135728 -0.04282692 0.01533981
v 0.02136574 -0.03662356 -0.01525121
v 0.02135680 -0.03663250 0.01525121
v 0.02135683 -0.03052115 -0.01525417
v 0.02136430 -0.03052853 0.01525417
v 0.02136409 -0.02441856 -0.01525761
v 0.02136439 -0.02442514 0.01525761
v 0.02136437 -0.01831185 -0.01525759
v 0.02136423 -0.01831839 0.01525759
v 0.02136424 -0.01220507 -0.01525754
v 0.02136424 -0.01221164 0.01525754
v 0.02136424 -0.00609836 -0.01525754
v 0.02136424 -0.00610493 0.01525754
v 0.02136424 0.00000834 -0.01525754
v 0.02136424 0.00000177 0.01525754
v 0.02136424 0.00611504 -0.01525754
v 0.02136424 0.00610847 0.01525754
v 0.02136424 0.01222175 -0.01525753
v 0.02136424 0.01221518 0.01525753
v 0.02136403 0.01832856 -0.01525764
v 0.02136424 0.01832198 0.01525764
v 0.02136411 0.02443533 -0.01525770
v 0.02136424 0.02442875 0.01525770
v 0.02137258 0.03053776 -0.01525343
v 0.02136424 0.03053119 0.01525343
v 0.02137443 0.03663940 -0.01524826
v 0.02136428 0.03663282 0.01524831
v 0.02119883 0.04283301 -0.01533515
v 0.02136423 0.04282642 0.01533525
v 0.02091401 0.04916420 -0.01556709
v 0.02136327 0.04915964 0.01556299
v 0.02223618 0.05474647 -0.01504393
v 0.02136235 0.05474078 0.01503997
v 0.02091331 0.05778563 -0.01200027
v 0.02119681 0.05830466 -0.00642679
v 0.02137275 0.05816712 -0.00000622
v 0.02137206 0.05830798 0.00641305
v 0.02136353 0.05778865 0.01199046
v 0.02891754 -0.05787039 -0.01203858
v 0.02615692 -0.05473328 -0.01505873
v 0.02727140 -0.05839454 -0.00642233
v 0.02753694 -0.05824230 0.00000094
v 0.02796431 -0.05835206 0.00642065
v 0.02661546 -0.05780286 0.01199753
v 0.02796261 -0.05479902 0.01505875
v 0.02779270 -0.04915084 -0.01561286
v 0.02771436 -0.04927668 0.01561288
v 0.02772168 -0.04281859 -0.01541613
v 0.02755182 -0.04298844 0.01541613
v 0.02756016 -0.03662404 -0.01533981
v 0.02755188 -0.03681044 0.01533981
v 0.02755243 -0.03052011 -0.01534237
v 0.02755800 -0.03070720 0.01534237
v 0.02755782 -0.02441678 -0.01534454
v 0.02755798 -0.02460257 0.01534454
v 0.02755794 -0.01831006 -0.01534448
v 0.02755786 -0.01849574 0.01534448
v 0.02755786 -0.01220330 -0.01534446
v 0.02755786 -0.01238901 0.01534446
v 0.02755786 -0.00609660 -0.01534446
v 0.02755786 -0.00628231 0.01534446
v 0.02755786 0.00001011 -0.01534446
v 0.02755786 -0.00017560 0.01534446
v 0.02755786 0.00611681 -0.01534446
v 0.02755786 0.00593110 0.01534446
v 0.02755787 0.01222351 -0.01534446
v 0.02755786 0.01203780 0.01534446
v 0.02755766 0.01833032 -0.01534456
v 0.02755786 0.01814461 0.01534456
v 0.02755773 0.02443709 -0.01534463
v 0.02755786 0.02425138 0.01534463
v 0.02756624 0.03053955 -0.01534034
v 0.02755790 0.03035385 0.01534035
v 0.02756815 0.03664120 -0.01533513
v 0.02755784 0.03645538 0.01533525
v 0.02738878 0.04283258 -0.01542394
v 0.02755617 0.04264700 0.01542242
v 0.02710584 0.04916576 -0.01565500
v 0.02755711 0.04898085 0.01564937
v 0.02854809 0.05481866 -0.01504445
v 0.02757456 0.05458934 0.01512370
v 0.02712318 0.05788087 -0.01184482
v 0.02738629 0.05839762 -0.00624171
v 0.02756506 0.05824383 0.00016029
v 0.02758316 0.05832757 0.00653957
v 0.02758986 0.05771394 0.01208325
v 0.03531615 -0.05809803 -0.01210751
v 0.03242664 -0.05482619 -0.01515871
v 0.03365550 -0.05861613 -0.00646426
v 0.03383234 -0.05841421 0.00001766
v 0.03421178 -0.05846836 0.00646466
v 0.03282589 -0.05790959 0.01203771
v 0.03421137 -0.05488233 0.01515866
v 0.03405249 -0.04927713 -0.01575881
v 0.03401036 -0.04931925 0.01575881
v 0.03400991 -0.04298112 -0.01561288
v 0.03388408 -0.04305946 0.01561286
v 0.03389146 -0.03680098 -0.01556797
v 0.03388764 -0.03691347 0.01556796
v 0.03388936 -0.03069680 -0.01557123
v 0.03389253 -0.03081279 0.01557123
v 0.03389242 -0.02459219 -0.01557211
v 0.03389245 -0.02470693 0.01557211
v 0.03389238 -0.01848542 -0.01557204
v 0.03389235 -0.01860007 0.01557204
v 0.03389235 -0.01237870 -0.01557204
v 0.03389235 -0.01249336 0.01557204
v 0.03389235 -0.00627199 -0.01557204
v 0.03389235 -0.00638666 0.01557204
v 0.03389235 -0.00016529 -0.01557204
v 0.03389235 -0.00027995 0.01557204
v 0.03389235 0.00594142 -0.01557204
v 0.03389235 0.00582675 0.01557204
v 0.03389236 0.01204812 -0.01557203
v 0.03389235 0.01193345 0.01557203
v 0.03389214 0.01815492 -0.01557214
v 0.03389235 0.01804026 0.01557214
v 0.03389223 0.02426170 -0.01557220
v 0.03389237 0.02414705 0.01557220
v 0.03390091 0.03036426 -0.01556787
v 0.03389238 0.03024948 0.01556793
v 0.03390098 0.03646475 -0.01556304
v 0.03389075 0.03634928 0.01556299
v 0.03371742 0.04265493 -0.01565438
v 0.03389169 0.04254400 0.01564937
v 0.03351977 0.04903566 -0.01585584
v 0.03393475 0.04893032 0.01587083
v 0.03508143 0.05473079 -0.01517912
v 0.03396280 0.05461180 0.01534736
v 0.03357576 0.05802121 -0.01182459
v 0.03376714 0.05859880 -0.00604372
v 0.03389828 0.05844419 0.00041144
v 0.03393975 0.05847242 0.00674531
v 0.03396279 0.05779396 0.01229031
v 0.04022297 -0.05764909 -0.01154239
v 0.03843331 -0.05503362 -0.01487936
v 0.03933543 -0.05809106 -0.00649247
v 0.03940557 -0.05779258 0.00001513
v 0.03976411 -0.05778880 0.00649358
v 0.03874506 -0.05756203 0.01210655
v 0.03976686 -0.05370007 0.01487936
v 0.03961556 -0.04947813 -0.01515866
v 0.03955943 -0.04769340 0.01515871
v 0.03953226 -0.04322937 -0.01505875
v 0.03946652 -0.04142369 0.01505873
v 0.03947237 -0.03708139 -0.01504657
v 0.03947221 -0.03530855 0.01504654
v 0.03947539 -0.03097810 -0.01504917
v 0.03947655 -0.02920849 0.01504916
v 0.03947650 -0.02487222 -0.01504930
v 0.03947651 -0.02310192 0.01504930
v 0.03947642 -0.01876545 -0.01504927
v 0.03947641 -0.01699508 0.01504927
v 0.03947642 -0.01265874 -0.01504927
v 0.03947642 -0.01088838 0.01504927
v 0.03947642 -0.00655203 -0.01504927
v 0.03947642 -0.00478167 0.01504927
v 0.03947642 -0.00044533 -0.01504927
v 0.03947642 0.00132503 0.01504927
v 0.03947642 0.00566138 -0.01504927
v 0.03947642 0.00743173 0.01504927
v 0.03947642 0.01176808 -0.01504926
v 0.03947642 0.01353844 0.01504926
v 0.03947621 0.01787489 -0.01504937
v 0.03947642 0.01964525 0.01504937
v 0.03947645 0.02398178 -0.01504942
v 0.03947648 0.02575207 0.01504943
v 0.03948467 0.03008393 -0.01504490
v 0.03947564 0.03185361 0.01504522
v 0.03947722 0.03617992 -0.01504195
v 0.03947378 0.03795402 0.01503997
v 0.03932305 0.04238980 -0.01513597
v 0.03951397 0.04419017 0.01512369
v 0.03930410 0.04884246 -0.01527503
v 0.03958259 0.05058762 0.01534735
v 0.04014929 0.05402278 -0.01462126
v 0.03901651 0.05549484 0.01489377
v 0.03875596 0.05736827 -0.01266906
v 0.03946308 0.05792300 -0.00760398
v 0.03954919 0.05780207 -0.00106120
v 0.03951720 0.05790826 0.00535441
v 0.03957841 0.05756861 0.01126575
v 0.04229527 -0.05401182 -0.01210655
v 0.04252204 -0.05503087 -0.00649358
v 0.04252582 -0.05467233 -0.00001513
v 0.04282429 -0.05460219 0.00649247
v 0.04238233 -0.05548974 0.01154239
v 0.04264283 -0.04809265 -0.01203771
v 0.04320160 -0.04947855 -0.00646466
v 0.04314745 -0.04909910 -0.00001766
v 0.04334937 -0.04892226 0.00646426
v 0.04283127 -0.05058291 0.01210751
v 0.04253610 -0.04188222 -0.01199753
v 0.04308530 -0.04323108 -0.00642065
v 0.04297554 -0.04280370 -0.00000094
v 0.04312778 -0.04253816 0.00642233
v 0.04260363 -0.04418430 0.01203858
v 0.04252229 -0.03576601 -0.01199941
v 0.04303900 -0.03708312 -0.00641967
v 0.04289855 -0.03662556 0.00000168
v 0.04303785 -0.03634253 0.00642068
v 0.04251723 -0.03794670 0.01199779
v 0.04252541 -0.02966202 -0.01200025
v 0.04304224 -0.03097979 -0.00642134
v 0.04290020 -0.03052144 0.00000005
v 0.04303970 -0.03024038 0.00642134
v 0.04252146 -0.03184546 0.01199938
v 0.04252553 -0.02355541 -0.01200019
v 0.04304316 -0.02487391 -0.00642133
v 0.04290241 -0.02441679 -0.00000004
v 0.04304314 -0.02413705 0.00642129
v 0.04252557 -0.02574377 0.01200022
v 0.04252549 -0.01744868 -0.01200019
v 0.04304309 -0.01876713 -0.00642130
v 0.04290235 -0.01831003 0.00000000
v 0.04304313 -0.01803030 0.00642131
v 0.04252557 -0.01963701 0.01200019
v 0.04252550 -0.01134197 -0.01200019
v 0.04304308 -0.01266042 -0.00642131
v 0.04290232 -0.01220330 0.00000000
v 0.04304308 -0.01192355 0.00642131
v 0.04252549 -0.01353022 0.01200019
v 0.04252550 -0.00523527 -0.01200019
v 0.04304308 -0.00655372 -0.00642131
v 0.04290232 -0.00609659 -0.00000000
v 0.04304308 -0.00581685 0.00642131
v 0.04252549 -0.00742352 0.01200019
v 0.04252550 0.00087144 -0.01200019
v 0.04304308 -0.00044702 -0.00642131
v 0.04290232 0.00001011 0.00000000
v 0.04304308 0.00028986 0.00642131
v 0.04252550 -0.00131681 0.01200019
v 0.04252550 0.00697814 -0.01200019
v 0.04304308 0.00565969 -0.00642131
v 0.04290232 0.00611682 0.00000000
v 0.04304308 0.00639656 0.00642131
v 0.04252550 0.00478989 0.01200019
v 0.04252550 0.01308484 -0.01200019
v 0.04304308 0.01176639 -0.00642131
v 0.04290232 0.01222352 -0.00000000
v 0.04304308 0.01250327 0.00642130
v 0.04252550 0.01089659 0.01200019
v 0.04252538 0.01919174 -0.01200029
v 0.04304314 0.01787314 -0.00642131
v 0.04290235 0.01833024 -0.00000000
v 0.04304309 0.01860998 0.00642130
v 0.04252550 0.01700330 0.01200018
v 0.04252559 0.02529852 -0.01200012
v 0.04304299 0.02398002 -0.00642125
v 0.04290241 0.02443707 0.00000012
v 0.04304315 0.02471684 0.00642141
v 0.04252553 0.02311014 0.01200029
v 0.04252814 0.03139596 -0.01199624
v 0.04303970 0.03008339 -0.00642131
v 0.04290012 0.03054182 0.00000005
v 0.04304227 0.03082270 0.00642149
v 0.04252540 0.02921675 0.01200037
v 0.04252081 0.03749550 -0.01200352
v 0.04304101 0.03618227 -0.00642552
v 0.04289759 0.03664504 -0.00000603
v 0.04303896 0.03692348 0.00641658
v 0.04252280 0.03531684 0.01199610
v 0.04252260 0.04380939 -0.01207495
v 0.04313057 0.04237490 -0.00642486
v 0.04297576 0.04281937 -0.00000389
v 0.04308381 0.04306961 0.00641305
v 0.04253497 0.04143201 0.01199043
v 0.04265862 0.05034517 -0.01198568
v 0.04333204 0.04878560 -0.00629311
v 0.04317549 0.04910167 0.00016109
v 0.04323020 0.04932769 0.00654063
v 0.04263490 0.04770180 0.01208323
v 0.04210146 0.05541473 -0.01127659
v 0.04275259 0.05456674 -0.00609971
v 0.04262571 0.05464559 0.00039408
v 0.04263172 0.05488301 0.00674600
v 0.04235538 0.05370812 0.01229053
f 3 2 1
f 5 4 1
f 5 1 2
f 7 6 4
f 7 4 5
f 9 8 6
f 9 6 7
f 11 10 8
f 11 8 9
f 12 10 11
f 3 1 13
f 3 13 14
f 15 1 4
f 13 1 15
f 16 4 6
f 15 4 16
f 17 6 8
f 16 6 17
f 18 8 10
f 17 8 18
f 10 12 19
f 10 19 18
f 14 13 20
f 14 20 21
f 22 13 15
f 20 13 22
f 23 15 16
f 22 15 23
f 24 16 17
f 23 16 24
f 25 17 18
f 24 17 25
f 18 19 26
f 18 26 25
f 21 20 27
f 21 27 28
f 29 20 22
f 27 20 29
f 30 22 23
f 29 22 30
f 31 23 24
f 30 23 31
f 32 24 25
f 31 24 32
f 25 26 33
f 25 33 32
f 28 27 34
f 28 34 35
f 36 27 29
f 34 27 36
f 37 29 30
f 36 29 37
f 38 30 31
f 37 30 38
f 39 31 32
f 38 31 39
f 32 33 40
f 32 40 39
f 35 34 41
f 35 41 42
f 43 34 36
f 41 34 43
f 44 36 37
f 43 36 44
f 45 37 38
f 44 37 45
f 46 38 39
f 45 38 46
f 39 40 47
f 39 47 46
f 42 41 48
f 42 48 49
f 50 41 43
f 48 41 50
f 51 43 44
f 50 43 51
f 52 44 45
f 51 44 52
f 53 45 46
f 52 45 53
f 46 47 54
f 46 54 53
f 49 48 55
f 49 55 56
f 57 48 50
f 55 48 57
f 58 50 51
f 57 50 58
f 59 51 52
f 58 51 59
f 60 52 53
f 59 52 60
f 53 54 61
f 53 61 60
f 56 55 62
f 56 62 63
f 64 55 57
f 62 55 64
f 65 57 58
f 64 57 65
f 66 58 59
f 65 58 66
f 67 59 60
f 66 59 67
f 60 61 68
f 60 68 67
f 63 62 69
f 63 69 70
f 71 62 64
f 69 62 71
f 72 64 65
f 71 64 72
f 73 65 66
f 72 65 73
f 74 66 67
f 73 66 74
f 67 68 75
f 67 75 74
f 70 69 76
f 70 76 77
f 78 69 71
f 76 69 78
f 79 71 72
f 78 71 79
f 80 72 73
f 79 72 80
f 81 73 74
f 80 73 81
f 74 75 82
f 74 82 81
f 77 76 83
f 77 83 84
f 85 76 78
f 83 76 85
f 86 78 79
f 85 78 86
f 87 79 80
f 86 79 87
f 88 80 81
f 87 80 88
f 81 82 89
f 81 89 88
f 84 83 90
f 84 90 91
f 92 83 85
f 90 83 92
f 93 85 86
f 92 85 93
f 94 86 87
f 93 86 94
f 95 87 88
f 94 87 95
f 88 89 96
f 88 96 95
f 91 90 97
f 91 97 98
f 99 90 92
f 97 90 99
f 100 92 93
f 99 92 100
f 101 93 94
f 100 93 101
f 102 94 95
f 101 94 102
f 95 96 103
f 95 103 102
f 98 97 104
f 98 104 105
f 106 97 99
f 104 97 106
f 107 99 100
f 106 99 107
f 108 100 101
f 107 100 108
f 109 101 102
f 108 101 109
f 102 103 110
f 102 110 109
f 105 104 111
f 105 111 112
f 113 104 106
f 111 104 113
f 114 106 107
f 113 106 114
f 115 107 108
f 114 107 115
f 116 108 109
f 115 108 116
f 109 110 117
f 109 117 116
f 112 111 118
f 112 118 119
f 120 111 113
f 118 111 120
f 121 113 114
f 120 113 121
f 122 114 115
f 121 114 122
f 123 115 116
f 122 115 123
f 116 117 124
f 116 124 123
f 119 118 125
f 119 125 126
f 127 118 120
f 125 118 127
f 128 120 121
f 127 120 128
f 129 121 122
f 128 121 129
f 130 122 123
f 129 122 130
f 123 124 131
f 123 131 130
f 126 125 132
f 126 132 133
f 134 125 127
f 132 125 134
f 135 127 128
f 134 127 135
f 136 128 129
f 135 128 136
f 137 129 130
f 136 129 137
f 130 131 138
f 130 138 137
f 139 133 132
f 139 132 134
f 139 134 140
f 140 134 135
f 140 135 141
f 141 135 136
f 141 136 142
f 142 136 137
f 142 137 143
f 143 137 138
f 145 144 2
f 145 2 3
f 2 146 5
f 144 146 2
f 5 147 7
f 146 147 5
f 7 148 9
f 147 148 7
f 9 149 11
f 148 149 9
f 12 11 149
f 12 149 150
f 14 145 3
f 14 151 145
f 150 19 12
f 152 19 150
f 21 151 14
f 21 153 151
f 152 26 19
f 154 26 152
f 28 153 21
f 28 155 153
f 154 33 26
f 156 33 154
f 35 155 28
f 35 157 155
f 156 40 33
f 158 40 156
f 42 157 35
f 42 159 157
f 158 47 40
f 160 47 158
f 49 159 42
f 49 161 159
f 160 54 47
f 162 54 160
f 56 161 49
f 56 163 161
f 162 61 54
f 164 61 162
f 63 163 56
f 63 165 163
f 164 68 61
f 166 68 164
f 70 165 63
f 70 167 165
f 166 75 68
f 168 75 166
f 77 167 70
f 77 169 167
f 168 82 75
f 170 82 168
f 84 169 77
f 84 171 169
f 170 89 82
f 172 89 170
f 91 171 84
f 91 173 171
f 172 96 89
f 174 96 172
f 98 173 91
f 98 175 173
f 174 103 96
f 176 103 174
f 105 175 98
f 105 177 175
f 176 110 103
f 178 110 176
f 112 177 105
f 112 179 177
f 178 117 110
f 180 117 178
f 119 179 112
f 119 181 179
f 180 124 117
f 182 124 180
f 126 181 119
f 126 183 181
f 182 131 124
f 184 131 182
f 133 183 126
f 133 185 183
f 184 138 131
f 186 138 184
f 187 185 133
f 187 133 139
f 188 139 140
f 188 187 139
f 189 140 141
f 189 188 140
f 190 141 142
f 190 189 141
f 191 142 143
f 191 190 142
f 143 138 186
f 143 186 191
f 193 192 144
f 193 144 145
f 144 194 146
f 192 194 144
f 146 195 147
f 194 195 146
f 147 196 148
f 195 196 147
f 148 197 149
f 196 197 148
f 150 149 197
f 150 197 198
f 151 193 145
f 151 199 193
f 198 152 150
f 200 152 198
f 153 199 151
f 153 201 199
f 200 154 152
f 202 154 200
f 155 201 153
f 155 203 201
f 202 156 154
f 204 156 202
f 157 203 155
f 157 205 203
f 204 158 156
f 206 158 204
f 159 205 157
f 159 207 205
f 206 160 158
f 208 160 206
f 161 207 159
f 161 209 207
f 208 162 160
f 210 162 208
f 163 209 161
f 163 211 209
f 210 164 162
f 212 164 210
f 165 211 163
f 165 213 211
f 212 166 164
f 214 166 212
f 167 213 165
f 167 215 213
f 214 168 166
f 216 168 214
f 169 215 167
f 169 217 215
f 216 170 168
f 218 170 216
f 171 217 169
f 171 219 217
f 218 172 170
f 220 172 218
f 173 219 171
f 173 221 219
f 220 174 172
f 222 174 220
f 175 221 173
f 175 223 221
f 222 176 174
f 224 176 222
f 177 223 175
f 177 225 223
f 224 178 176
f 226 178 224
f 179 225 177
f 179 227 225
f 226 180 178
f 228 180 226
f 181 227 179
f 181 229 227
f 228 182 180
f 230 182 228
f 183 229 181
f 183 231 229
f 230 184 182
f 232 184 230
f 185 231 183
f 185 233 231
f 232 186 184
f 234 186 232
f 235 233 185
f 235 185 187
f 236 187 188
f 236 235 187
f 237 188 189
f 237 236 188
f 238 189 190
f 238 237 189
f 239 190 191
f 239 238 190
f 191 186 234
f 191 234 239
f 241 240 192
f 241 192 193
f 192 242 194
f 240 242 192
f 194 243 195
f 242 243 194
f 195 244 196
f 243 244 195
f 196 245 197
f 244 245 196
f 198 197 245
f 198 245 246
f 199 241 193
f 199 247 241
f 246 200 198
f 248 200 246
f 201 247 199
f 201 249 247
f 248 202 200
f 250 202 248
f 203 249 201
f 203 251 249
f 250 204 202
f 252 204 250
f 205 251 203
f 205 253 251
f 252 206 204
f 254 206 252
f 207 253 205
f 207 255 253
f 254 208 206
f 256 208 254
f 209 255 207
f 209 257 255
f 256 210 208
f 258 210 256
f 211 257 209
f 211 259 257
f 258 212 210
f 260 212 258
f 213 259 211
f 213 261 259
f 260 214 212
f 262 214 260
f 215 261 213
f 215 263 261
f 262 216 214
f 264 216 262
f 217 263 215
f 217 265 263
f 264 218 216
f 266 218 264
f 219 265 217
f 219 267 265
f 266 220 218
f 268 220 266
f 221 267 219
f 221 269 267
f 268 222 220
f 270 222 268
f 223 269 221
f 223 271 269
f 270 224 222
f 272 224 270
f 225 271 223
f 225 273 271
f 272 226 224
f 274 226 272
f 227 273 225
f 227 275 273
f 274 228 226
f 276 228 274
f 229 275 227
f 229 277 275
f 276 230 228
f 278 230 276
f 231 277 229
f 231 279 277
f 278 232 230
f 280 232 278
f 233 279 231
f 233 281 279
f 280 234 232
f 282 234 280
f 283 281 233
f 283 233 235
f 284 235 236
f 284 283 235
f 285 236 237
f 285 284 236
f 286 237 238
f 286 285 237
f 287 238 239
f 287 286 238
f 239 234 282
f 239 282 287
f 289 288 240
f 289 240 241
f 240 290 242
f 288 290 240
f 242 291 243
f 290 291 242
f 243 292 244
f 291 292 243
f 244 293 245
f 292 293 244
f 246 245 293
f 246 293 294
f 247 289 241
f 247 295 289
f 294 248 246
f 296 248 294
f 249 295 247
f 249 297 295
f 296 250 248
f 298 250 296
f 251 297 249
f 251 299 297
f 298 252 250
f 300 252 298
f 253 299 251
f 253 301 299
f 300 254 252
f 302 254 300
f 255 301 253
f 255 303 301
f 302 256 254
f 304 256 302
f 257 303 255
f 257 305 303
f 304 258 256
f 306 258 304
f 259 305 257
f 259 307 305
f 306 260 258
f 308 260 306
f 261 307 259
f 261 309 307
f 308 262 260
f 310 262 308
f 263 309 261
f 263 311 309
f 310 264 262
f 312 264 310
f 265 311 263
f 265 313 311
f 312 266 264
f 314 266 312
f 267 313 265
f 267 315 313
f 314 268 266
f 316 268 314
f 269 315 267
f 269 317 315
f 316 270 268
f 318 270 316
f 271 317 269
f 271 319 317
f 318 272 270
f 320 272 318
f 273 319 271
f 273 321 319
f 320 274 272
f 322 274 320
f 275 321 273
f 275 323 321
f 322 276 274
f 324 276 322
f 277 323 275
f 277 325 323
f 324 278 276
f 326 278 324
f 279 325 277
f 279 327 325
f 326 280 278
f 328 280 326
f 281 327 279
f 281 329 327
f 328 282 280
f 330 282 328
f 331 329 281
f 331 281 283
f 332 283 284
f 332 331 283
f 333 284 285
f 333 332 284
f 334 285 286
f 334 333 285
f 335 286 287
f 335 334 286
f 287 282 330
f 287 330 335
f 337 336 288
f 337 288 289
f 288 338 290
f 336 338 288
f 290 339 291
f 338 339 290
f 291 340 292
f 339 340 291
f 292 341 293
f 340 341 292
f 294 293 341
f 294 341 342
f 295 337 289
f 295 343 337
f 342 296 294
f 344 296 342
f 297 343 295
f 297 345 343
f 344 298 296
f 346 298 344
f 299 345 297
f 299 347 345
f 346 300 298
f 348 300 346
f 301 347 299
f 301 349 347
f 348 302 300
f 350 302 348
f 303 349 301
f 303 351 349
f 350 304 302
f 352 304 350
f 305 351 303
f 305 353 351
f 352 306 304
f 354 306 352
f 307 353 305
f 307 355 353
f 354 308 306
f 356 308 354
f 309 355 307
f 309 357 355
f 356 310 308
f 358 310 356
f 311 357 309
f 311 359 357
f 358 312 310
f 360 312 358
f 313 359 311
f 313 361 359
f 360 314 312
f 362 314 360
f 315 361 313
f 315 363 361
f 362 316 314
f 364 316 362
f 317 363 315
f 317 365 363
f 364 318 316
f 366 318 364
f 319 365 317
f 319 367 365
f 366 320 318
f 368 320 366
f 321 367 319
f 321 369 367
f 368 322 320
f 370 322 368
f 323 369 321
f 323 371 369
f 370 324 322
f 372 324 370
f 325 371 323
f 325 373 371
f 372 326 324
f 374 326 372
f 327 373 325
f 327 375 373
f 374 328 326
f 376 328 374
f 329 375 327
f 329 377 375
f 376 330 328
f 378 330 376
f 379 377 329
f 379 329 331
f 380 331 332
f 380 379 331
f 381 332 333
f 381 380 332
f 382 333 334
f 382 381 333
f 383 334 335
f 383 382 334
f 335 330 378
f 335 378 383
f 385 384 336
f 385 336 337
f 336 386 338
f 384 386 336
f 338 387 339
f 386 387 338
f 339 388 340
f 387 388 339
f 340 389 341
f 388 389 340
f 342 341 389
f 342 389 390
f 343 385 337
f 343 391 385
f 390 344 342
f 392 344 390
f 345 391 343
f 345 393 391
f 392 346 344
f 394 346 392
f 347 393 345
f 347 395 393
f 394 348 346
f 396 348 394
f 349 395 347
f 349 397 395
f 396 350 348
f 398 350 396
f 351 397 349
f 351 399 397
f 398 352 350
f 400 352 398
f 353 399 351
f 353 401 399
f 400 354 352
f 402 354 400
f 355 401 353
f 355 403 401
f 402 356 354
f 404 356 402
f 357 403 355
f 357 405 403
f 404 358 356
f 406 358 404
f 359 405 357
f 359 407 405
f 406 360 358
f 408 360 406
f 361 407 359
f 361 409 407
f 408 362 360
f 410 362 408
f 363 409 361
f 363 411 409
f 410 364 362
f 412 364 410
f 365 411 363
f 365 413 411
f 412 366 364
f 414 366 412
f 367 413 365
f 367 415 413
f 414 368 366
f 416 368 414
f 369 415 367
f 369 417 415
f 416 370 368
f 418 370 416
f 371 417 369
f 371 419 417
f 418 372 370
f 420 372 418
f 373 419 371
f 373 421 419
f 420 374 372
f 422 374 420
f 375 421 373
f 375 423 421
f 422 376 374
f 424 376 422
f 377 423 375
f 377 425 423
f 424 378 376
f 426 378 424
f 427 425 377
f 427 377 379
f 428 379 380
f 428 427 379
f 429 380 381
f 429 428 380
f 430 381 382
f 430 429 381
f 431 382 383
f 431 430 382
f 383 378 426
f 383 426 431
f 433 432 384
f 433 384 385
f 384 434 386
f 432 434 384
f 386 435 387
f 434 435 386
f 387 436 388
f 435 436 387
f 388 437 389
f 436 437 388
f 390 389 437
f 390 437 438
f 391 433 385
f 391 439 433
f 438 392 390
f 440 392 438
f 393 439 391
f 393 441 439
f 440 394 392
f 442 394 440
f 395 441 393
f 395 443 441
f 442 396 394
f 444 396 442
f 397 443 395
f 397 445 443
f 444 398 396
f 446 398 444
f 399 445 397
f 399 447 445
f 446 400 398
f 448 400 446
f 401 447 399
f 401 449 447
f 448 402 400
f 450 402 448
f 403 449 401
f 403 451 449
f 450 404 402
f 452 404 450
f 405 451 403
f 405 453 451
f 452 406 404
f 454 406 452
f 407 453 405
f 407 455 453
f 454 408 406
f 456 408 454
f 409 455 407
f 409 457 455
f 456 410 408
f 458 410 456
f 411 457 409
f 411 459 457
f 458 412 410
f 460 412 458
f 413 459 411
f 413 461 459
f 460 414 412
f 462 414 460
f 415 461 413
f 415 463 461
f 462 416 414
f 464 416 462
f 417 463 415
f 417 465 463
f 464 418 416
f 466 418 464
f 419 465 417
f 419 467 465
f 466 420 418
f 468 420 466
f 421 467 419
f 421 469 467
f 468 422 420
f 470 422 468
f 423 469 421
f 423 471 469
f 470 424 422
f 472 424 470
f 425 471 423
f 425 473 471
f 472 426 424
f 474 426 472
f 475 473 425
f 475 425 427
f 476 427 428
f 476 475 427
f 477 428 429
f 477 476 428
f 478 429 430
f 478 477 429
f 479 430 431
f 479 478 430
f 431 426 474
f 431 474 479
f 481 480 432
f 481 432 433
f 432 482 434
f 480 482 432
f 434 483 435
f 482 483 434
f 435 484 436
f 483 484 435
f 436 485 437
f 484 485 436
f 438 437 485
f 438 485 486
f 439 481 433
f 439 487 481
f 486 440 438
f 488 440 486
f 441 487 439
f 441 489 487
f 488 442 440
f 490 442 488
f 443 489 441
f 443 491 489
f 490 444 442
f 492 444 490
f 445 491 443
f 445 493 491
f 492 446 444
f 494 446 492
f 447 493 445
f 447 495 493
f 494 448 446
f 496 448 494
f 449 495 447
f 449 497 495
f 496 450 448
f 498 450 496
f 451 497 449
f 451 499 497
f 498 452 450
f 500 452 498
f 453 499 451
f 453 501 499
f 500 454 452
f 502 454 500
f 455 501 453
f 455 503 501
f 502 456 454
f 504 456 502
f 457 503 455
f 457 505 503
f 504 458 456
f 506 458 504
f 459 505 457
f 459 507 505
f 506 460 458
f 508 460 506
f 461 507 459
f 461 509 507
f 508 462 460
f 510 462 508
f 463 509 461
f 463 511 509
f 510 464 462
f 512 464 510
f 465 511 463
f 465 513 511
f 512 466 464
f 514 466 512
f 467 513 465
f 467 515 513
f 514 468 466
f 516 468 514
f 469 515 467
f 469 517 515
f 516 470 468
f 518 470 516
f 471 517 469
f 471 519 517
f 518 472 470
f 520 472 518
f 473 519 471
f 473 521 519
f 520 474 472
f 522 474 520
f 523 521 473
f 523 473 475
f 524 475 476
f 524 523 475
f 525 476 477
f 525 524 476
f 526 477 478
f 526 525 477
f 527 478 479
f 527 526 478
f 479 474 522
f 479 522 527
f 529 528 480
f 529 480 481
f 480 530 482
f 528 530 480
f 482 531 483
f 530 531 482
f 483 532 484
f 531 532 483
f 484 533 485
f 532 533 484
f 486 485 533
f 486 533 534
f 487 529 481
f 487 535 529
f 534 488 486
f 536 488 534
f 489 535 487
f 489 537 535
f 536 490 488
f 538 490 536
f 491 537 489
f 491 539 537
f 538 492 490
f 540 492 538
f 493 539 491
f 493 541 539
f 540 494 492
f 542 494 540
f 495 541 493
f 495 543 541
f 542 496 494
f 544 496 542
f 497 543 495
f 497 545 543
f 544 498 496
f 546 498 544
f 499 545 497
f 499 547 545
f 546 500 498
f 548 500 546
f 501 547 499
f 501 549 547
f 548 502 500
f 550 502 548
f 503 549 501
f 503 551 549
f 550 504 502
f 552 504 550
f 505 551 503
f 505 553 551
f 552 506 504
f 554 506 552
f 507 553 505
f 507 555 553
f 554 508 506
f 556 508 554
f 509 555 507
f 509 557 555
f 556 510 508
f 558 510 556
f 511 557 509
f 511 559 557
f 558 512 510
f 560 512 558
f 513 559 511
f 513 561 559
f 560 514 512
f 562 514 560
f 515 561 513
f 515 563 561
f 562 516 514
f 564 516 562
f 517 563 515
f 517 565 563
f 564 518 516
f 566 518 564
f 519 565 517
f 519 567 565
f 566 520 518
f 568 520 566
f 521 567 519
f 521 569 567
f 568 522 520
f 570 522 568
f 571 569 521
f 571 521 523
f 572 523 524
f 572 571 523
f 573 524 525
f 573 572 524
f 574 525 526
f 574 573 525
f 575 526 527
f 575 574 526
f 527 522 570
f 527 570 575
f 577 576 528
f 577 528 529
f 528 578 530
f 576 578 528
f 530 579 531
f 578 579 530
f 531 580 532
f 579 580 531
f 532 581 533
f 580 581 532
f 534 533 581
f 534 581 582
f 535 577 529
f 535 583 577
f 582 536 534
f 584 536 582
f 537 583 535
f 537 585 583
f 584 538 536
f 586 538 584
f 539 585 537
f 539 587 585
f 586 540 538
f 588 540 586
f 541 587 539
f 541 589 587
f 588 542 540
f 590 542 588
f 543 589 541
f 543 591 589
f 590 544 542
f 592 544 590
f 545 591 543
f 545 593 591
f 592 546 544
f 594 546 592
f 547 593 545
f 547 595 593
f 594 548 546
f 596 548 594
f 549 595 547
f 549 597 595
f 596 550 548
f 598 550 596
f 551 597 549
f 551 599 597
f 598 552 550
f 600 552 598
f 553 599 551
f 553 601 599
f 600 554 552
f 602 554 600
f 555 601 553
f 555 603 601
f 602 556 554
f 604 556 602
f 557 603 555
f 557 605 603
f 604 558 556
f 606 558 604
f 559 605 557
f 559 607 605
f 606 560 558
f 608 560 606
f 561 607 559
f 561 609 607
f 608 562 560
f 610 562 608
f 563 609 561
f 563 611 609
f 610 564 562
f 612 564 610
f 565 611 563
f 565 613 611
f 612 566 564
f 614 566 612
f 567 613 565
f 567 615 613
f 614 568 566
f 616 568 614
f 569 615 567
f 569 617 615
f 616 570 568
f 618 570 616
f 619 617 569
f 619 569 571
f 620 571 572
f 620 619 571
f 621 572 573
f 621 620 572
f 622 573 574
f 622 621 573
f 623 574 575
f 623 622 574
f 575 570 618
f 575 618 623
f 625 624 576
f 625 576 577
f 576 626 578
f 624 626 576
f 578 627 579
f 626 627 578
f 579 628 580
f 627 628 579
f 580 629 581
f 628 629 580
f 582 581 629
f 582 629 630
f 583 625 577
f 583 631 625
f 630 584 582
f 632 584 630
f 585 631 583
f 585 633 631
f 632 586 584
f 634 586 632
f 587 633 585
f 587 635 633
f 634 588 586
f 636 588 634
f 589 635 587
f 589 637 635
f 636 590 588
f 638 590 636
f 591 637 589
f 591 639 637
f 638 592 590
f 640 592 638
f 593 639 591
f 593 641 639
f 640 594 592
f 642 594 640
f 595 641 593
f 595 643 641
f 642 596 594
f 644 596 642
f 597 643 595
f 597 645 643
f 644 598 596
f 646 598 644
f 599 645 597
f 599 647 645
f 646 600 598
f 648 600 646
f 601 647 599
f 601 649 647
f 648 602 600
f 650 602 648
f 603 649 601
f 603 651 649
f 650 604 602
f 652 604 650
f 605 651 603
f 605 653 651
f 652 606 604
f 654 606 652
f 607 653 605
f 607 655 653
f 654 608 606
f 656 608 654
f 609 655 607
f 609 657 655
f 656 610 608
f 658 610 656
f 611 657 609
f 611 659 657
f 658 612 610
f 660 612 658
f 613 659 611
f 613 661 659
f 660 614 612
f 662 614 660
f 615 661 613
f 615 663 661
f 662 616 614
f 664 616 662
f 617 663 615
f 617 665 663
f 664 618 616
f 666 618 664
f 667 665 617
f 667 617 619
f 668 619 620
f 668 667 619
f 669 620 621
f 669 668 620
f 670 621 622
f 670 669 621
f 671 622 623
f 671 670 622
f 623 618 666
f 623 666 671
f 673 672 624
f 673 624 625
f 624 674 626
f 672 674 624
f 626 675 627
f 674 675 626
f 627 676 628
f 675 676 627
f 628 677 629
f 676 677 628
f 630 629 677
f 630 677 678
f 631 673 625
f 631 679 673
f 678 632 630
f 680 632 678
f 633 679 631
f 633 681 679
f 680 634 632
f 682 634 680
f 635 681 633
f 635 683 681
f 682 636 634
f 684 636 682
f 637 683 635
f 637 685 683
f 684 638 636
f 686 638 684
f 639 685 637
f 639 687 685
f 686 640 638
f 688 640 686
f 641 687 639
f 641 689 687
f 688 642 640
f 690 642 688
f 643 689 641
f 643 691 689
f 690 644 642
f 692 644 690
f 645 691 643
f 645 693 691
f 692 646 644
f 694 646 692
f 647 693 645
f 647 695 693
f 694 648 646
f 696 648 694
f 649 695 647
f 649 697 695
f 696 650 648
f 698 650 696
f 651 697 649
f 651 699 697
f 698 652 650
f 700 652 698
f 653 699 651
f 653 701 699
f 700 654 652
f 702 654 700
f 655 701 653
f 655 703 701
f 702 656 654
f 704 656 702
f 657 703 655
f 657 705 703
f 704 658 656
f 706 658 704
f 659 705 657
f 659 707 705
f 706 660 658
f 708 660 706
f 661 707 659
f 661 709 707
f 708 662 660
f 710 662 708
f 663 709 661
f 663 711 709
f 710 664 662
f 712 664 710
f 665 711 663
f 665 713 711
f 712 666 664
f 714 666 712
f 715 713 665
f 715 665 667
f 716 667 668
f 716 715 667
f 717 668 669
f 717 716 668
f 718 669 670
f 718 717 669
f 719 670 671
f 719 718 670
f 671 666 714
f 671 714 719
f 721 720 672
f 721 672 673
f 672 722 674
f 720 722 672
f 674 723 675
f 722 723 674
f 675 724 676
f 723 724 675
f 676 725 677
f 724 725 676
f 678 677 725
f 678 725 726
f 679 721 673
f 679 727 721
f 726 680 678
f 728 680 726
f 681 727 679
f 681 729 727
f 728 682 680
f 730 682 728
f 683 729 681
f 683 731 729
f 730 684 682
f 732 684 730
f 685 731 683
f 685 733 731
f 732 686 684
f 734 686 732
f 687 733 685
f 687 735 733
f 734 688 686
f 736 688 734
f 689 735 687
f 689 737 735
f 736 690 688
f 738 690 736
f 691 737 689
f 691 739 737
f 738 692 690
f 740 692 738
f 693 739 691
f 693 741 739
f 740 694 692
f 742 694 740
f 695 741 693
f 695 743 741
f 742 696 694
f 744 696 742
f 697 743 695
f 697 745 743
f 744 698 696
f 746 698 744
f 699 745 697
f 699 747 745
f 746 700 698
f 748 700 746
f 701 747 699
f 701 749 747
f 748 702 700
f 750 702 748
f 703 749 701
f 703 751 749
f 750 704 702
f 752 704 750
f 705 751 703
f 705 753 751
f 752 706 704
f 754 706 752
f 707 753 705
f 707 755 753
f 754 708 706
f 756 708 754
f 709 755 707
f 709 757 755
f 756 710 708
f 758 710 756
f 711 757 709
f 711 759 757
f 758 712 710
f 760 712 758
f 713 759 711
f 713 761 759
f 760 714 712
f 762 714 760
f 763 761 713
f 763 713 715
f 764 715 716
f 764 763 715
f 765 716 717
f 765 764 716
f 766 717 718
f 766 765 717
f 767 718 719
f 767 766 718
f 719 714 762
f 719 762 767
f 721 768 720
f 769 722 720
f 769 720 768
f 770 723 722
f 770 722 769
f 771 724 723
f 771 723 770
f 772 725 724
f 772 724 771
f 772 726 725
f 727 773 768
f 727 768 721
f 768 774 769
f 768 773 774
f 769 775 770
f 769 774 775
f 770 776 771
f 770 775 776
f 771 777 772
f 771 776 777
f 777 728 726
f 777 726 772
f 729 778 773
f 729 773 727
f 773 779 774
f 773 778 779
f 774 780 775
f 774 779 780
f 775 781 776
f 775 780 781
f 776 782 777
f 776 781 782
f 782 730 728
f 782 728 777
f 731 783 778
f 731 778 729
f 778 784 779
f 778 783 784
f 779 785 780
f 779 784 785
f 780 786 781
f 780 785 786
f 781 787 782
f 781 786 787
f 787 732 730
f 787 730 782
f 733 788 783
f 733 783 731
f 783 789 784
f 783 788 789
f 784 790 785
f 784 789 790
f 785 791 786
f 785 790 791
f 786 792 787
f 786 791 792
f 792 734 732
f 792 732 787
f 735 793 788
f 735 788 733
f 788 794 789
f 788 793 794
f 789 795 790
f 789 794 795
f 790 796 791
f 790 795 796
f 791 797 792
f 791 796 797
f 797 736 734
f 797 734 792
f 737 798 793
f 737 793 735
f 793 799 794
f 793 798 799
f 794 800 795
f 794 799 800
f 795 801 796
f 795 800 801
f 796 802 797
f 796 801 802
f 802 738 736
f 802 736 797
f 739 803 798
f 739 798 737
f 798 804 799
f 798 803 804
f 799 805 800
f 799 804 805
f 800 806 801
f 800 805 806
f 801 807 802
f 801 806 807
f 807 740 738
f 807 738 802
f 741 808 803
f 741 803 739
f 803 809 804
f 803 808 809
f 804 810 805
f 804 809 810
f 805 811 806
f 805 810 811
f 806 812 807
f 806 811 812
f 812 742 740
f 812 740 807
f 743 813 808
f 743 808 741
f 808 814 809
f 808 813 814
f 809 815 810
f 809 814 815
f 810 816 811
f 810 815 816
f 811 817 812
f 811 816 817
f 817 744 742
f 817 742 812
f 745 818 813
f 745 813 743
f 813 819 814
f 813 818 819
f 814 820 815
f 814 819 820
f 815 821 816
f 815 820 821
f 816 822 817
f 816 821 822
f 822 746 744
f 822 744 817
f 747 823 818
f 747 818 745
f 818 824 819
f 818 823 824
f 819 825 820
f 819 824 825
f 820 826 821
f 820 825 826
f 821 827 822
f 821 826 827
f 827 748 746
f 827 746 822
f 749 828 823
f 749 823 747
f 823 829 824
f 823 828 829
f 824 830 825
f 824 829 830
f 825 831 826
f 825 830 831
f 826 832 827
f 826 831 832
f 832 750 748
f 832 748 827
f 751 833 828
f 751 828 749
f 828 834 829
f 828 833 834
f 829 835 830
f 829 834 835
f 830 836 831
f 830 835 836
f 831 837 832
f 831 836 837
f 837 752 750
f 837 750 832
f 753 838 833
f 753 833 751
f 833 839 834
f 833 838 839
f 834 840 835
f 834 839 840
f 835 841 836
f 835 840 841
f 836 842 837
f 836 841 842
f 842 754 752
f 842 752 837
f 755 843 838
f 755 838 753
f 838 844 839
f 838 843 844
f 839 845 840
f 839 844 845
f 840 846 841
f 840 845 846
f 841 847 842
f 841 846 847
f 847 756 754
f 847 754 842
f 757 848 843
f 757 843 755
f 843 849 844
f 843 848 849
f 844 850 845
f 844 849 850
f 845 851 846
f 845 850 851
f 846 852 847
f 846 851 852
f 852 758 756
f 852 756 847
f 759 853 848
f 759 848 757
f 848 854 849
f 848 853 854
f 849 855 850
f 849 854 855
f 850 856 851
f 850 855 856
f 851 857 852
f 851 856 857
f 857 760 758
f 857 758 852
f 761 858 853
f 761 853 759
f 853 859 854
f 853 858 859
f 854 860 855
f 854 859 860
f 855 861 856
f 855 860 861
f 856 862 857
f 856 861 862
f 862 762 760
f 862 760 857
f 763 858 761
f 858 763 764
f 858 764 859
f 859 764 765
f 859 765 860
f 860 765 766
f 860 766 861
f 861 766 767
f 861 767 862
f 862 767 762

