# https://github.com/mikedh/trimesh
v -0.02186099 -0.00983910 0.00877777
v -0.02037854 -0.01208351 0.00782350
v -0.02010299 -0.00953565 0.00581026
v -0.02223630 -0.00970613 0.01313629
v -0.02044159 -0.01250170 0.01096836
v -0.02182540 -0.00917420 0.01677813
v -0.02053110 -0.01209383 0.01541741
v -0.01950576 -0.01083570 0.01832234
v -0.02207623 -0.00592752 0.00804067
v -0.02025121 -0.00479078 0.00546233
v -0.02271056 -0.00582959 0.01200554
v -0.02222130 -0.00555337 0.01618615
v -0.02017224 -0.00603016 0.01810878
v -0.02207606 -0.00138468 0.00829277
v -0.02085717 -0.00184588 0.01799784
v -0.02209731 0.00288637 0.00824831
v -0.02028465 0.00395810 0.00561414
v -0.02276595 0.00296822 0.01216093
v -0.02223255 0.00308776 0.01616494
v -0.02010834 0.00205102 0.01875935
v -0.02165108 0.00634816 0.00766638
v -0.02000641 0.00763093 0.00619783
v -0.02219973 0.00678087 0.01110207
v -0.02202016 0.00689853 0.01533445
v -0.01983324 0.00707741 0.01887139
v -0.02042265 0.00924525 0.00906812
v -0.02054075 0.00955689 0.01326658
v -0.01996861 0.00955401 0.01664290
v -0.01812396 -0.01378182 0.00804088
v -0.01594820 -0.01626229 0.00805007
v -0.01594550 -0.01437299 0.00558141
v -0.01820378 -0.01454841 0.01322606
v -0.01595171 -0.01677220 0.01112988
v -0.01824669 -0.01385867 0.01687481
v -0.01598895 -0.01647952 0.01548327
v -0.01558828 -0.01470805 0.01851031
v -0.01753173 -0.00939858 -0.01323025
v -0.01570743 -0.01176883 -0.01412865
v -0.01604621 -0.01244532 -0.01050728
v -0.01773360 -0.00977062 -0.00855803
v -0.01609071 -0.01235862 -0.00616400
v -0.01760479 -0.00940434 0.00013262
v -0.01602294 -0.01208354 -0.00182816
v -0.01784856 -0.01076038 0.00385958
v -0.01594629 -0.01230530 0.00220359
v -0.01667339 -0.00983818 0.01841134
v -0.01763903 -0.00524258 -0.02148104
v -0.01557532 -0.00782585 -0.02278797
v -0.01577231 -0.00549262 -0.02426157
v -0.01780383 -0.00605571 -0.01718800
v -0.01611214 -0.00845244 -0.01886111
v -0.01819339 -0.00591372 -0.00946356
v -0.01803836 -0.00562211 -0.00082625
v -0.01855900 -0.00678155 0.00288365
v -0.01797989 -0.00530676 0.01640354
v -0.01559226 -0.00461242 0.01426484
v -0.01548897 -0.00777094 0.01585338
v -0.01802182 -0.00141442 -0.02220841
v -0.01524180 -0.00135368 -0.02423969
v -0.01838155 -0.00142977 -0.01819243
v -0.01819416 -0.00151426 -0.01384233
v -0.01819821 -0.00513767 -0.01330898
v -0.01746086 -0.00228267 0.01307568
v -0.01528679 -0.00133891 0.00978446
v -0.01571821 -0.00292389 0.01142344
v -0.01840861 -0.00101929 0.01683248
v -0.01768354 0.00263109 -0.02216031
v -0.01515205 0.00352292 -0.02416896
v -0.01844361 0.00296984 -0.01817681
v -0.01816497 0.00309054 -0.00976614
v -0.01789800 0.00089321 -0.00080145
v -0.01844731 0.00195421 0.00309056
v -0.01599586 -0.00012282 0.01229327
v -0.01529907 0.00008603 0.01660638
v -0.01655631 0.00134210 0.02014990
v -0.01802932 0.00434736 0.02124261
v -0.01505632 0.00293232 0.02252362
v -0.01651461 0.00538865 -0.02195054
v -0.01585950 0.00794859 -0.01990602
v -0.01760281 0.00628870 -0.01882036
v -0.01775369 0.00683155 -0.01459659
v -0.01776600 0.00731795 -0.00962913
v -0.01822178 0.00736269 -0.00485041
v -0.01812349 0.00741287 -0.00057803
v -0.01848517 0.00690183 0.00356648
v -0.01802828 0.00712474 0.02105306
v -0.01581062 0.00610273 0.02229840
v -0.01603670 0.00924702 -0.01667442
v -0.01599302 0.00944785 -0.01255483
v -0.01621871 0.01014849 -0.00898698
v -0.01747195 0.01061466 -0.00561951
v -0.01773194 0.01119871 -0.00154324
v -0.01762870 0.01116870 0.00268739
v -0.01815099 0.01145063 0.00731147
v -0.01887919 0.01167747 0.01157721
v -0.01810863 0.01234663 0.01528738
v -0.01582000 0.01135485 0.01878360
v -0.01620934 0.00854185 0.02042038
v -0.01553244 0.01337604 -0.00474910
v -0.01608635 0.01385786 0.00041076
v -0.01598267 0.01378580 0.00468011
v -0.01634217 0.01438487 0.00825758
v -0.01549810 0.01623370 0.00975385
v -0.01741111 0.01464244 0.01177259
v -0.01644712 0.01540833 0.01474392
v -0.01549950 0.01423402 0.01691008
v -0.01481205 0.01731219 0.01271693
v -0.01382099 -0.01806100 0.00823030
v -0.01040067 -0.02023893 0.00766385
v -0.01197805 -0.01806183 0.00534475
v -0.01382650 -0.01899954 0.01329718
v -0.01112958 -0.02058982 0.01232598
v -0.01374934 -0.01837369 0.01684430
v -0.01159466 -0.02027628 0.01592343
v -0.01128825 -0.01841205 0.01842511
v -0.01318135 -0.01388283 -0.01772846
v -0.01053703 -0.01596452 -0.01828992
v -0.01209994 -0.01384694 -0.02064894
v -0.01386788 -0.01404853 -0.01319086
v -0.01147500 -0.01593307 -0.01223172
v -0.01384582 -0.01446536 -0.00829233
v -0.01383286 -0.01430621 -0.00398859
v -0.01098621 -0.01649098 -0.00610631
v -0.01379215 -0.01418705 0.00027159
v -0.01164098 -0.01640350 -0.00179250
v -0.01378274 -0.01526999 0.00404164
v -0.01164040 -0.01667966 0.00223656
v -0.01212859 -0.01423925 0.01850336
v -0.01371071 -0.01071010 -0.02132212
v -0.01113197 -0.01263325 -0.02297958
v -0.01194642 -0.00969805 -0.02433234
v -0.01466052 -0.01113578 -0.01737292
v -0.01312093 -0.00946534 0.01325725
v -0.01122764 -0.01047770 0.01070917
v -0.01111434 -0.01219612 0.01205467
v -0.01115570 -0.01177306 0.01520537
v -0.01405087 -0.01058326 0.01676029
v -0.01150608 -0.00623691 -0.02432852
v -0.01110958 -0.00807835 -0.01300370
v -0.01346552 -0.00515232 -0.01330159
v -0.01135595 -0.00484920 -0.01595844
v -0.01193720 -0.00811485 -0.00984915
v -0.01361068 -0.00554854 -0.00854114
v -0.01102874 -0.00765759 -0.00571484
v -0.01369011 -0.00552862 -0.00412109
v -0.01198580 -0.00719117 -0.00164118
v -0.01340736 -0.00491948 -0.00004563
v -0.01055302 -0.00572133 0.00115600
v -0.01178581 -0.00845214 0.01179427
v -0.01169584 -0.00691052 0.01410473
v -0.01170574 -0.00360119 -0.02215174
v -0.01328217 -0.00095650 -0.02182280
v -0.01179250 -0.00337018 -0.01922842
v -0.01363244 -0.00175147 -0.01718907
v -0.01420013 -0.00084794 -0.01324861
v -0.01416888 -0.00154266 -0.00836411
v -0.01427579 -0.00219174 -0.00144099
v -0.01129859 -0.00380087 0.00376202
v -0.01341031 -0.00124488 0.00289385
v -0.01227803 -0.00265649 0.00842133
v -0.01347590 -0.00107509 0.00677349
v -0.01048761 -0.00096315 0.01032158
v -0.01399091 -0.00169084 0.01247981
v -0.01159724 -0.00321149 0.01554399
v -0.01314824 -0.00123538 0.01704716
v -0.01152045 -0.00156939 0.01818384
v -0.01196750 0.00146437 -0.02202724
v -0.01274435 0.00189694 -0.02418035
v -0.01320429 0.00185288 -0.01897039
v -0.01137650 0.00349167 -0.02004777
v -0.01365661 0.00250360 -0.01482864
v -0.01363323 0.00251448 -0.01045271
v -0.01370166 0.00299565 -0.00546591
v -0.01388717 0.00281736 -0.00022629
v -0.01178681 0.00279887 0.00123166
v -0.01269673 -0.00004847 0.00856469
v -0.01201159 0.00056535 0.01999853
v -0.01254221 0.00377857 0.02230468
v -0.01446322 0.00752711 -0.02236966
v -0.01165992 0.00713026 -0.02415459
v -0.01186037 0.00495065 -0.01686653
v -0.01131063 0.00475407 -0.01260662
v -0.01166254 0.00500230 -0.00883892
v -0.01127500 0.00521997 -0.00546713
v -0.01341505 0.00639604 -0.00136476
v -0.01162201 0.00807148 -0.00241673
v -0.01109892 0.00503638 0.00342149
v -0.01343408 0.00694711 0.00325325
v -0.01133995 0.00537498 0.00813995
v -0.01314084 0.00762993 0.00718254
v -0.01067620 0.00705176 0.01011818
v -0.01355971 0.00667315 0.02129514
v -0.01186287 0.00790391 0.01972316
v -0.01087100 0.00461502 0.02065783
v -0.01293910 0.01071036 -0.02268333
v -0.01077111 0.01168763 -0.02394200
v -0.01387603 0.01103004 -0.01921822
v -0.01375046 0.01156345 -0.01465867
v -0.01422976 0.01172686 -0.00991843
v -0.01207128 0.00934113 0.00060781
v -0.01213854 0.00957347 0.00467180
v -0.01154738 0.00948478 0.00812498
v -0.01308937 0.01095540 0.02070600
v -0.01083911 0.01117615 0.02202157
v -0.01171142 0.01297410 -0.02162662
v -0.01125845 0.01379815 -0.01761336
v -0.01161550 0.01366715 -0.01265794
v -0.01245909 0.01416804 -0.00857752
v -0.01338233 0.01560788 -0.00543663
v -0.01118026 0.01616334 -0.00765324
v -0.01398300 0.01597075 -0.00183378
v -0.01382446 0.01590819 0.00250927
v -0.01410824 0.01588345 0.00658101
v -0.01421733 0.01638942 0.01598616
v -0.01241148 0.01534291 0.01832163
v -0.01094315 0.01338485 0.02092331
v -0.01090335 0.01731349 -0.00462836
v -0.01114824 0.01749908 0.00009129
v -0.01163408 0.01735561 0.00405774
v -0.01201614 0.01809539 0.00833898
v -0.01105824 0.01875438 0.01288293
v -0.01140327 0.01755721 0.01600605
v -0.00932716 -0.01864356 -0.00383902
v -0.00615726 -0.02021197 -0.00548882
v -0.00957504 -0.01867355 0.00017254
v -0.00693622 -0.02032393 -0.00090450
v -0.01014771 -0.01897780 0.00380387
v -0.00738524 -0.02040078 0.00395263
v -0.00682556 -0.02129157 0.01169368
v -0.00830089 -0.02055213 0.01632274
v -0.00750413 -0.01815873 0.01827981
v -0.00994740 -0.01488213 -0.02194543
v -0.00719630 -0.01593719 -0.02205175
v -0.00812154 -0.01354399 -0.02414707
v -0.00678111 -0.01713199 -0.01896986
v -0.00799226 -0.01704813 -0.01470133
v -0.00821954 -0.01714882 -0.01000836
v -0.00919842 -0.01450580 0.01304836
v -0.00831253 -0.01331832 0.01071046
v -0.00621485 -0.01581118 0.01251934
v -0.00690910 -0.01663991 0.01622121
v -0.00910020 -0.01405203 0.01595130
v -0.00710922 -0.01065787 -0.02432530
v -0.00953427 -0.01032145 -0.00901920
v -0.00789571 -0.00935264 -0.01150804
v -0.00630580 -0.01199304 -0.00973393
v -0.00758631 -0.01163099 -0.00589964
v -0.00888169 -0.00936525 -0.00546194
v -0.00619235 -0.01014200 -0.00304230
v -0.00969969 -0.01036080 0.01249567
v -0.00698433 -0.01199600 0.01210195
v -0.00981512 -0.01256125 0.01369320
v -0.00783253 -0.00957227 0.01409811
v -0.00777947 -0.00768675 -0.02306760
v -0.00907751 -0.00540865 -0.02201457
v -0.00683578 -0.00631287 -0.02076262
v -0.00957365 -0.00590922 -0.01259492
v -0.00808166 -0.00767232 -0.00915445
v -0.00912153 -0.00567369 -0.00868875
v -0.00991364 -0.00847400 -0.00770135
v -0.00812553 -0.00642161 -0.00736385
v -0.00794829 -0.00788918 -0.00086888
v -0.00688353 -0.00576262 0.00205099
v -0.00805348 -0.00515497 0.01403714
v -0.00857131 -0.00391666 -0.01845470
v -0.00906104 -0.00175189 -0.01388148
v -0.00689363 -0.00182075 -0.01563579
v -0.00902317 -0.00138367 -0.00994963
v -0.00692854 -0.00253397 -0.00734763
v -0.00813570 -0.00427304 0.00349083
v -0.00766966 -0.00383578 0.00680490
v -0.00762253 -0.00362983 0.01096163
v -0.00922924 -0.00191406 0.01339444
v -0.00953442 -0.00054483 0.01632591
v -0.01049637 0.00398138 -0.02241090
v -0.00757350 0.00071617 -0.01318470
v -0.00689084 0.00319832 -0.01187298
v -0.00928513 0.00312271 -0.01002547
v -0.00795965 0.00261866 -0.00693863
v -0.00937105 0.00269957 -0.00043928
v -0.00703048 0.00123514 0.00020735
v -0.00621576 0.00251838 -0.00302302
v -0.01086741 0.00078329 0.00354684
v -0.00795699 0.00112399 0.00751438
v -0.00928248 0.00233382 0.01174760
v -0.00793199 0.00324810 0.00947556
v -0.00745710 0.00205517 0.01476808
v -0.00778916 0.00117984 0.01769483
v -0.00952299 0.00227900 0.02042492
v -0.00710780 0.00391059 0.01848459
v -0.00912792 0.00741125 -0.02267562
v -0.00952864 0.00655128 -0.01929458
v -0.00927449 0.00671420 -0.01377524
v -0.00989821 0.00551716 -0.01104849
v -0.00736587 0.00491296 -0.00884957
v -0.00947743 0.00752300 -0.00927849
v -0.00985999 0.00544238 -0.00759976
v -0.00964188 0.00717274 -0.00546006
v -0.00768993 0.00452619 -0.00057853
v -0.00636926 0.00491553 0.00373006
v -0.00825615 0.00456227 0.00730173
v -0.00645130 0.00502824 0.01208400
v -0.00660980 0.00836041 0.01004351
v -0.00730611 0.00653500 0.01900285
v -0.00648532 0.00924153 -0.02173920
v -0.00732895 0.01158786 -0.02417084
v -0.00746486 0.00872255 -0.01751121
v -0.00710657 0.00940554 -0.01322233
v -0.00787353 0.01008721 -0.00896556
v -0.00894757 0.01065943 -0.00571133
v -0.00700225 0.01201706 -0.00744215
v -0.00976584 0.01115579 -0.00174160
v -0.00978821 0.01187442 0.00264988
v -0.00946184 0.01182724 0.00685829
v -0.00827463 0.01070949 0.00967085
v -0.00777275 0.00938221 0.02031982
v -0.00810931 0.01188068 0.02206493
v -0.00873829 0.01412401 -0.02196327
v -0.00901222 0.01570734 -0.01848066
v -0.00686842 0.01637460 -0.02079691
v -0.00954949 0.01589074 -0.01474878
v -0.00982193 0.01584634 -0.01069348
v -0.00667252 0.01336310 -0.00431941
v -0.00698857 0.01363270 0.00042883
v -0.00676217 0.01367559 0.00490404
v -0.00628252 0.01314731 0.00834431
v -0.00840798 0.01606186 0.01852431
v -0.00704391 0.01384328 0.02047754
v -0.00660884 0.01749238 -0.01754239
v -0.00694851 0.01751129 -0.01283446
v -0.00761970 0.01753203 -0.00842322
v -0.00729843 0.01786389 -0.00082974
v -0.00844445 0.01835439 0.00366998
v -0.00913837 0.01988834 0.00732890
v -0.00617137 0.02011111 0.00586758
v -0.00962206 0.02035685 0.01075415
v -0.00764151 0.01969320 0.01389605
v -0.00756990 0.01773410 0.01564621
v -0.00718260 0.02171646 0.00897425
v -0.00681140 0.02187834 0.01284451
v -0.00430907 -0.02280077 0.01283140
v -0.00173455 -0.02452642 0.01167124
v -0.00368132 -0.02274196 0.01016880
v -0.00240707 -0.02355356 0.01479547
v -0.00507286 -0.01874559 -0.01695285
v -0.00185769 -0.02028210 -0.01773854
v -0.00350977 -0.01852436 -0.01988208
v -0.00528184 -0.01869457 -0.01279201
v -0.00261779 -0.02047750 -0.01389852
v -0.00582218 -0.01896686 -0.00919737
v -0.00314115 -0.02048984 -0.00918560
v -0.00261106 -0.02089279 -0.00471749
v -0.00312793 -0.02080331 -0.00097859
v -0.00365910 -0.02076133 0.00275645
v -0.00319911 -0.02137028 0.00695110
v -0.00429430 -0.02120793 0.01620608
v -0.00276139 -0.01936504 0.01826834
v -0.00269153 -0.01665265 -0.02228524
v -0.00323037 -0.01349262 -0.02416457
v -0.00404953 -0.01341674 0.00431529
v -0.00308707 -0.01467674 0.00214179
v -0.00219343 -0.01582440 0.00335586
v -0.00268421 -0.01483085 0.00561505
v -0.00428895 -0.01396246 0.00969519
v -0.00203286 -0.01603853 0.01185865
v -0.00312943 -0.01699644 0.01621061
v -0.00328416 -0.01157879 -0.02215795
v -0.00527052 -0.00956242 -0.02136817
v -0.00243998 -0.01162573 -0.01797105
v -0.00465297 -0.00979720 -0.01727780
v -0.00314074 -0.01220828 -0.01348781
v -0.00549225 -0.00989219 -0.01320486
v -0.00263243 -0.01257455 -0.00894718
v -0.00363862 -0.01196170 -0.00513829
v -0.00267348 -0.01032183 -0.00231487
v -0.00239769 -0.01231911 0.00261558
v -0.00334682 -0.00987552 0.00459372
v -0.00454051 -0.00993577 0.00815154
v -0.00337527 -0.01319583 0.00694057
v -0.00547079 -0.00958939 0.01189559
v -0.00562099 -0.00550434 -0.01781099
v -0.00505687 -0.00646617 -0.01453898
v -0.00536496 -0.00540528 -0.01004150
v -0.00382604 -0.00870478 -0.00070410
v -0.00346789 -0.00784832 0.00229430
v -0.00506411 -0.00602953 0.00485341
v -0.00527491 -0.00546558 0.00851551
v -0.00546287 -0.00680533 0.01181503
v -0.00552894 -0.00187961 -0.01361150
v -0.00364454 -0.00098322 -0.01137807
v -0.00195577 -0.00337040 -0.00884740
v -0.00309336 -0.00323168 -0.00547706
v -0.00513643 -0.00012184 -0.00470401
v -0.00236719 -0.00184601 -0.00271826
v -0.00212653 0.00261600 -0.01125197
v -0.00568654 0.00298609 -0.00578057
v -0.00390358 0.00014210 -0.00151016
v -0.00374835 0.00067404 0.00319546
v -0.00543129 0.00293967 0.00699645
v -0.00324490 0.00313880 0.00530800
v -0.00585966 0.00294515 0.01594316
v -0.00362303 0.00467714 -0.00962806
v -0.00345317 0.00514410 -0.00519230
v -0.00392562 0.00588445 -0.00028914
v -0.00415128 0.00638249 0.00375069
v -0.00242081 0.00788388 0.00150817
v -0.00375636 0.00513736 0.00792645
v -0.00485248 0.00728171 0.00757648
v -0.00247871 0.00463610 0.01213864
v -0.00366939 0.00470203 0.01600237
v -0.00289053 0.00745573 0.01850956
v -0.00249254 0.00983005 -0.02268748
v -0.00364330 0.01147440 -0.02436762
v -0.00389135 0.00987880 -0.01833233
v -0.00473427 0.01127559 -0.01404678
v -0.00258745 0.01192553 -0.01632713
v -0.00566243 0.01163433 -0.01062689
v -0.00267446 0.00918455 0.00480509
v -0.00337368 0.00955262 0.00806619
v -0.00404139 0.01156812 0.00942681
v -0.00458592 0.01081761 0.01732955
v -0.00304985 0.01236307 0.01490715
v -0.00175162 0.00985225 0.01690081
v -0.00588876 0.01206352 0.01997882
v -0.00554987 0.01547613 -0.02311983
v -0.00242697 0.01512059 -0.02438357
v -0.00230097 0.01319772 -0.01312238
v -0.00342515 0.01351696 -0.00821618
v -0.00318005 0.01406191 -0.00496878
v -0.00281903 0.01362302 -0.00169062
v -0.00341532 0.01363410 0.00280838
v -0.00316449 0.01336434 0.00699824
v -0.00519723 0.01459866 0.01702105
v -0.00316279 0.01651816 0.01492816
v -0.00332828 0.01763194 -0.02138221
v -0.00253111 0.01817000 -0.01760921
v -0.00312463 0.01803262 -0.01384901
v -0.00371548 0.01796921 -0.01010384
v -0.00299138 0.01838675 -0.00554406
v -0.00339177 0.01837630 -0.00067576
v -0.00421653 0.01861596 0.00309088
v -0.00269646 0.02041270 0.00512492
v -0.00501732 0.02021901 0.01568508
v -0.00206742 0.01807133 0.01730732
v -0.00210772 0.01962596 0.01851433
v -0.00273929 0.02206079 0.00784702
v -0.00336960 0.02269392 0.01225702
v -0.00310426 0.02198250 0.01611118
v -0.00112030 -0.02338998 0.00818944
v 0.00116326 -0.02429034 0.00888055
v 0.00087372 -0.02267895 0.00632791
v 0.00128369 -0.02485694 0.01275152
v -0.00108169 -0.02257155 0.01721660
v 0.00030656 -0.02442813 0.01568198
v 0.00188657 -0.02173295 0.01829778
v 0.00125098 -0.02012442 -0.01723526
v -0.00001977 -0.01885702 -0.02022538
v 0.00069869 -0.02050941 -0.01381967
v 0.00133615 -0.02051756 -0.00925780
v 0.00116888 -0.02094553 -0.00522137
v 0.00118265 -0.02082847 -0.00095481
v 0.00119627 -0.02108779 0.00390913
v 0.00071232 -0.01857194 0.01858333
v 0.00235194 -0.01665331 -0.02207289
v 0.00062499 -0.01437044 -0.02440442
v 0.00098647 -0.01375550 0.00155456
v 0.00206460 -0.01636866 0.00366343
v 0.00050725 -0.01625989 0.00774898
v -0.00193474 -0.01477492 0.00811836
v 0.00333781 -0.01642589 0.01298554
v 0.00127752 -0.01685248 0.01633517
v -0.00093688 -0.01054669 -0.02263298
v 0.00185870 -0.01080070 -0.02428203
v -0.00073847 -0.01004503 -0.01939278
v 0.00060008 -0.01051264 -0.01613348
v 0.00149074 -0.01197043 -0.01327345
v 0.00127873 -0.01258619 -0.00945081
v 0.00126459 -0.01241259 -0.00516208
v 0.00145801 -0.01179045 -0.00089637
v -0.00116948 -0.01039079 0.00046078
v -0.00181109 -0.00991992 0.00307722
v 0.00119041 -0.00855040 -0.02157360
v 0.00191790 -0.00824892 -0.01828042
v 0.00226733 -0.00382088 -0.00963075
v 0.00111234 -0.00163845 -0.01166215
v 0.00037079 -0.00373035 -0.00568729
v -0.00097621 -0.00162010 0.00029798
v 0.00127152 -0.00319422 -0.00119385
v -0.00071045 -0.00089229 0.00447344
v 0.00102679 -0.00339560 0.00279312
v -0.00047226 -0.00100646 0.00882361
v 0.00160864 -0.00374200 0.00743893
v -0.00020067 -0.00060617 0.01225317
v 0.00098362 -0.00280883 0.01138936
v 0.00196672 -0.00156017 0.01364116
v 0.00200343 0.00203100 -0.01092968
v -0.00158444 0.00243892 0.00793918
v -0.00071136 0.00239455 0.01187619
v 0.00182353 0.00149852 0.01470481
v 0.00098451 0.00477750 -0.00849022
v -0.00021827 0.00755539 -0.00500820
v 0.00193986 0.00684625 -0.00639426
v -0.00137446 0.00785012 -0.00122652
v -0.00010146 0.00481213 0.01593319
v 0.00203977 0.00718254 0.01817430
v 0.00141339 0.01001854 -0.02177603
v 0.00019959 0.01200413 -0.02450649
v -0.00067533 0.01124108 -0.01892350
v 0.00180757 0.01119808 -0.01957008
v 0.00106808 0.00907471 -0.00443448
v 0.00180784 0.01090488 -0.00280582
v -0.00069996 0.01107520 -0.00095552
v -0.00135952 0.01112473 0.00342065
v -0.00164863 0.01148332 0.00722421
v 0.00021232 0.01146767 0.01408427
v 0.00126030 0.00889571 0.01603598
v -0.00043268 0.00876281 0.01837445
v 0.00069039 0.00983076 0.02042378
v -0.00029503 0.01136257 0.02049614
v 0.00084370 0.01189011 0.01947329
v 0.00200387 0.01227807 0.02199993
v 0.00193848 0.01499294 -0.02424190
v 0.00013406 0.01277962 -0.01725542
v 0.00162756 0.01330518 -0.01387283
v 0.00126328 0.01389564 -0.00936162
v 0.00086395 0.01345646 -0.00484034
v 0.00167173 0.01503131 0.01417054
v -0.00041672 0.01594694 0.02005321
v 0.00061914 0.01626231 0.01921136
v 0.00123987 0.01494359 0.02198305
v 0.00097177 0.01752091 -0.02219465
v 0.00127167 0.01827015 -0.01818450
v 0.00138878 0.01812884 -0.01376675
v 0.00078172 0.01839641 -0.00894190
v -0.00021715 0.01990793 -0.00550437
v 0.00189142 0.01994555 -0.00652865
v -0.00075085 0.02019997 -0.00179143
v -0.00100227 0.02012490 0.00239485
v 0.00016141 0.01779608 0.01640970
v -0.00043513 0.01859095 0.01845984
v 0.00059951 0.01745886 0.02044451
v 0.00116219 0.01980589 0.01811009
v 0.00099084 0.02123022 -0.00439626
v 0.00127773 0.02140017 -0.00090471
v 0.00106292 0.02163895 0.00402549
v 0.00188458 0.02254713 0.00839721
v 0.00126299 0.02267061 0.01223474
v 0.00120860 0.02224164 0.01626198
v 0.00302002 -0.02262382 0.00726080
v 0.00357698 -0.02310433 0.01109001
v 0.00328200 -0.02319225 0.01548230
v 0.00282796 -0.01851211 -0.01850934
v 0.00334775 -0.01874863 -0.01474702
v 0.00351508 -0.01866834 -0.01062510
v 0.00486234 -0.01888430 -0.00750102
v 0.00579976 -0.02022133 -0.00462825
v 0.00561905 -0.02088233 -0.00085125
v 0.00572135 -0.02078397 0.00341338
v 0.00582717 -0.02119836 0.00816015
v 0.00636996 -0.02135093 0.01339098
v 0.00559597 -0.02115667 0.01701284
v 0.00542333 -0.01895411 0.01836637
v 0.00658177 -0.01621614 -0.02210477
v 0.00452416 -0.01392269 -0.02455317
v 0.00556246 -0.01704877 -0.01765133
v 0.00597521 -0.01692201 -0.01259659
v 0.00650816 -0.01711878 -0.00857421
v 0.00523499 -0.01449374 0.00141159
v 0.00561039 -0.01592291 0.00422003
v 0.00575538 -0.01626640 0.00788479
v 0.00580081 -0.01682283 0.01639609
v 0.00664370 -0.01055562 -0.02447897
v 0.00320806 -0.00884076 -0.01432388
v 0.00513766 -0.01042099 -0.01144889
v 0.00530290 -0.01183668 -0.00907657
v 0.00610195 -0.01203679 -0.00483157
v 0.00505120 -0.01271127 -0.00136259
v 0.00403414 -0.01268841 0.00093012
v 0.00593123 -0.01194887 0.00363650
v 0.00345417 -0.01043770 0.00395738
v 0.00500746 -0.00999322 0.00178523
v 0.00407482 -0.00929738 0.00809129
v 0.00501563 -0.01124932 0.00705195
v 0.00636450 -0.00911840 0.00913860
v 0.00502022 -0.00775279 -0.02158846
v 0.00387162 -0.00635353 -0.01790318
v 0.00620559 -0.00597663 -0.01943051
v 0.00351666 -0.00500482 -0.01385577
v 0.00533948 -0.00600451 -0.01174573
v 0.00336672 -0.00568511 0.00334637
v 0.00624741 -0.00647044 0.00143794
v 0.00348250 -0.00640916 0.00782217
v 0.00588782 -0.00630879 0.01023516
v 0.00525487 -0.00473420 -0.01728512
v 0.00559115 -0.00354123 -0.01423273
v 0.00386447 -0.00325890 -0.01146707
v 0.00452323 -0.00104184 -0.01147358
v 0.00581086 -0.00331805 -0.00956513
v 0.00523155 -0.00364572 -0.00448306
v 0.00407208 -0.00072682 -0.00035869
v 0.00676691 -0.00204389 -0.00237113
v 0.00593832 -0.00225409 0.00141755
v 0.00430239 -0.00369804 0.01171270
v 0.00607859 -0.00114195 0.01457593
v 0.00589055 0.00120155 -0.01055864
v 0.00509693 0.00313137 -0.00814731
v 0.00596069 0.00052011 -0.00076819
v 0.00618382 0.00320302 0.00125005
v 0.00387557 0.00254484 0.00412935
v 0.00575935 0.00043467 0.00286101
v 0.00569416 0.00135289 0.00669954
v 0.00382692 0.00357363 0.00874807
v 0.00521877 0.00250823 0.00942945
v 0.00534252 0.00112824 0.01643966
v 0.00304946 0.00340019 0.01698732
v 0.00594289 0.00317493 0.01821197
v 0.00552957 0.00519916 -0.00618817
v 0.00320516 0.00768668 -0.00458733
v 0.00545933 0.00829143 -0.00348804
v 0.00494778 0.00535848 0.00394118
v 0.00375765 0.00667311 0.00763337
v 0.00581239 0.00479497 0.01093366
v 0.00312615 0.00742632 0.01218556
v 0.00463873 0.00809604 0.01413526
v 0.00631793 0.00646398 0.01910794
v 0.00576998 0.00894849 -0.02270659
v 0.00549249 0.01151240 -0.02419027
v 0.00302415 0.01157007 -0.01694760
v 0.00533717 0.00931760 -0.01869393
v 0.00396335 0.01188124 -0.01346559
v 0.00605399 0.01016043 -0.01389018
v 0.00661837 0.01180187 -0.01111865
v 0.00481141 0.01147852 -0.00334116
v 0.00590114 0.00957639 0.00719373
v 0.00347954 0.01117849 0.01142677
v 0.00610535 0.01219182 0.00959970
v 0.00600596 0.01127311 0.01489139
v 0.00372675 0.01134976 0.01690589
v 0.00272195 0.01170971 0.02100128
v 0.00631136 0.01142121 0.01850019
v 0.00363139 0.01631652 -0.02204564
v 0.00578640 0.01423900 -0.02237394
v 0.00516318 0.01383257 -0.01026751
v 0.00572257 0.01380537 -0.00610789
v 0.00608824 0.01367635 0.01304463
v 0.00334868 0.01568880 0.01613355
v 0.00252103 0.01454818 0.02102835
v 0.00502410 0.01615408 0.01852195
v 0.00520629 0.01755908 -0.01834857
v 0.00522836 0.01819787 -0.01433733
v 0.00642886 0.01776701 -0.00991847
v 0.00549924 0.01850360 -0.00548408
v 0.00314850 0.02026268 -0.00408620
v 0.00605942 0.01846585 -0.00097946
v 0.00334343 0.02019781 0.00001964
v 0.00603062 0.01866859 0.00312834
v 0.00393397 0.02044240 0.00361036
v 0.00742895 0.02023095 0.00888559
v 0.00538469 0.02001821 0.01833797
v 0.00457412 0.02162872 0.00693101
v 0.00515611 0.02202011 0.01114130
v 0.00519243 0.02185340 0.01546957
v 0.00742534 -0.01828377 -0.00568135
v 0.00938541 -0.01895767 -0.00320045
v 0.00953492 -0.02011924 -0.00046012
v 0.01033067 -0.02052588 0.00374453
v 0.01022837 -0.02092435 0.00782192
v 0.00967769 -0.02083340 0.01167309
v 0.00970691 -0.02016122 0.01604698
v 0.00946452 -0.01823642 0.01794767
v 0.00994192 -0.01591668 -0.02168542
v 0.00928322 -0.01370991 -0.02435591
v 0.00934453 -0.01622499 -0.01808175
v 0.00927131 -0.01596403 -0.01362957
v 0.01010436 -0.01600237 -0.00909807
v 0.01041990 -0.01709577 -0.00484789
v 0.00813073 -0.01343157 0.00360052
v 0.00779075 -0.01485386 0.00672507
v 0.00933145 -0.01482508 0.00963926
v 0.01016464 -0.01660577 0.01279624
v 0.00939113 -0.01704376 0.01595550
v 0.01085161 -0.00945718 -0.02447640
v 0.00706420 -0.00943515 -0.00936108
v 0.00830639 -0.00954562 -0.00640630
v 0.01015400 -0.00996644 -0.00340759
v 0.00896990 -0.01225114 -0.00052815
v 0.00886845 -0.01005409 0.00097979
v 0.00728218 -0.01050424 0.00720157
v 0.00979708 -0.01034186 0.00586353
v 0.01000141 -0.01281127 0.00765957
v 0.00954472 -0.00795043 -0.02202525
v 0.00906541 -0.00690665 -0.01908017
v 0.00794347 -0.00497077 -0.01735827
v 0.01056637 -0.00494489 -0.01700232
v 0.00796669 -0.00579940 -0.00907117
v 0.00990214 -0.00639354 -0.00642834
v 0.01030726 -0.00799731 -0.00512199
v 0.00985073 -0.00525318 -0.00259367
v 0.00798698 -0.00524972 -0.00063370
v 0.01065692 -0.00775938 -0.00146266
v 0.01027838 -0.00804184 0.00819211
v 0.00982850 -0.00675923 0.01022068
v 0.00978911 -0.00186302 -0.01544500
v 0.00733355 -0.00216617 -0.01251074
v 0.00949439 -0.00374166 -0.00575002
v 0.00824110 -0.00337913 -0.00346653
v 0.00941105 -0.00405600 -0.00115494
v 0.01054664 -0.00059831 -0.00312399
v 0.00969318 -0.00316154 0.00232767
v 0.00801446 -0.00041287 0.00363680
v 0.00991455 -0.00129073 0.00472368
v 0.00962728 -0.00357347 0.01142498
v 0.01019837 -0.00098785 0.01451285
v 0.00952576 0.00100690 -0.01273289
v 0.00806499 0.00275582 -0.00926941
v 0.01067999 0.00346612 -0.01105881
v 0.00848879 0.00047521 -0.00035763
v 0.00706273 0.00103226 0.00093397
v 0.00881929 0.00239958 0.00118584
v 0.01033220 0.00214920 0.00581290
v 0.00720725 0.00286099 0.00850652
v 0.00888096 0.00073803 0.01679827
v 0.00967717 0.00396173 0.01832863
v 0.00788296 0.00716570 -0.02124986
v 0.01043356 0.00496949 -0.02266714
v 0.00967003 0.00752933 -0.02430577
v 0.00832864 0.00755910 -0.01755262
v 0.00989239 0.00537786 -0.01928733
v 0.01037386 0.00679872 -0.01582547
v 0.00948965 0.00510837 -0.00799871
v 0.00792591 0.00749848 -0.00560065
v 0.00984986 0.00772309 -0.00768017
v 0.00716190 0.00716082 0.00346839
v 0.01028043 0.00617502 0.00159602
v 0.00992834 0.00521986 0.00819144
v 0.00801742 0.00771544 0.01231089
v 0.01003117 0.00740480 0.01062129
v 0.00907056 0.00805760 0.01832984
v 0.01073293 0.01054318 -0.02413681
v 0.00899810 0.00870129 -0.01416307
v 0.00857316 0.01106129 -0.00834683
v 0.00945867 0.00921345 -0.01033006
v 0.00770734 0.01144337 -0.00527234
v 0.00925627 0.00942596 0.00413211
v 0.00809862 0.01160159 0.00691426
v 0.01034006 0.01127989 0.00553153
v 0.01008969 0.00845649 0.01245479
v 0.00965072 0.00910235 0.01530176
v 0.00777772 0.01152060 0.01649817
v 0.00965148 0.01303456 -0.02201998
v 0.00979739 0.01444619 -0.01848594
v 0.00827376 0.01624020 -0.01737662
v 0.01086110 0.01573399 -0.01546454
v 0.00875386 0.01523071 -0.01082245
v 0.00798657 0.01602539 -0.00823475
v 0.01109902 0.01404403 -0.00916880
v 0.00992073 0.01513654 -0.00633544
v 0.00897089 0.01307825 0.00859478
v 0.00996407 0.01343572 0.01143408
v 0.00927396 0.01330839 0.01583011
v 0.00959529 0.01573179 0.01846231
v 0.00888339 0.01730327 -0.01409053
v 0.00915466 0.01737796 -0.00577468
v 0.00946550 0.01749483 -0.00181080
v 0.00982979 0.01748729 0.00307230
v 0.00967598 0.01837541 0.00760126
v 0.01049794 0.01861893 0.01227658
v 0.00786719 0.02034433 0.01337119
v 0.01047955 0.01818604 0.01630592
v 0.00784257 0.01981845 0.01688714
v 0.01159577 -0.01836705 -0.00103856
v 0.01251938 -0.01872773 0.00234349
v 0.01385234 -0.01913658 0.00550038
v 0.01403884 -0.02030861 0.00827244
v 0.01340012 -0.02038946 0.01259517
v 0.01209963 -0.01874293 0.01587579
v 0.01407495 -0.01789806 0.01443855
v 0.01219596 -0.01412201 -0.02272152
v 0.01218645 -0.01465344 -0.01919935
v 0.01207260 -0.01443795 -0.01471425
v 0.01235457 -0.01434526 -0.01058716
v 0.01367734 -0.01471004 -0.00745625
v 0.01378199 -0.01573565 -0.00473143
v 0.01394172 -0.01650983 -0.00022374
v 0.01469423 -0.01719933 0.00400183
v 0.01185104 -0.01401207 0.01266698
v 0.01381528 -0.01592856 0.01628935
v 0.01270127 -0.01374316 0.01697937
v 0.01510276 -0.01355268 0.01817852
v 0.01447501 -0.01225629 -0.02141518
v 0.01339881 -0.01111044 -0.02427650
v 0.01435986 -0.01234584 -0.01709814
v 0.01429658 -0.01222169 -0.01260297
v 0.01460480 -0.01289201 -0.00892324
v 0.01138920 -0.00968080 -0.00139316
v 0.01219075 -0.00984379 0.00813289
v 0.01175433 -0.00938249 0.01117370
v 0.01258057 -0.01071503 0.01551947
v 0.01453668 -0.01040276 0.01848086
v 0.01205211 -0.00558014 -0.02201774
v 0.01402060 -0.00637064 -0.02416543
v 0.01142170 -0.00592081 -0.01887777
v 0.01183251 -0.00621447 -0.00383131
v 0.01338129 -0.00680107 0.00651341
v 0.01218488 -0.00588660 0.00863721
v 0.01446295 -0.00747592 0.00841565
v 0.01353045 -0.00759378 0.01212892
v 0.01244228 -0.00804339 0.00914899
v 0.01467451 -0.00793890 0.01694540
v 0.01276812 -0.00145628 -0.02207950
v 0.01440731 -0.00167352 -0.02398049
v 0.01196412 -0.00187364 -0.01798994
v 0.01364692 -0.00191699 -0.00330099
v 0.01320718 -0.00339163 -0.00073010
v 0.01244323 -0.00127342 0.00373805
v 0.01499000 -0.00097333 0.00148434
v 0.01376717 -0.00386319 0.00845732
v 0.01242175 -0.00060677 0.01168115
v 0.01450242 -0.00158814 0.00919897
v 0.01212197 0.00233452 -0.02216142
v 0.01368826 0.00287073 -0.02413367
v 0.01184178 0.00329201 -0.01772109
v 0.01183561 0.00280306 -0.01403136
v 0.01214293 0.00344156 -0.00077529
v 0.01453346 0.00190917 -0.00237719
v 0.01481320 0.00054975 0.00434388
v 0.01392687 0.00052608 0.00729605
v 0.01241232 0.00290231 0.00818747
v 0.01244539 0.00353909 0.01292032
v 0.01172184 0.00196807 0.01577467
v 0.01387098 0.00681127 -0.02423422
v 0.01162233 0.00687774 -0.01308461
v 0.01147599 0.00625539 -0.01008690
v 0.01472017 0.00429042 -0.00088200
v 0.01357278 0.00478424 0.00296918
v 0.01153386 0.00741801 0.00448516
v 0.01245005 0.00544344 0.00586352
v 0.01444646 0.00510734 0.00651373
v 0.01287432 0.00803167 0.00804908
v 0.01467382 0.00663790 0.00959916
v 0.01142900 0.00672479 0.01192051
v 0.01166877 0.00600565 0.01625649
v 0.01385608 0.00972812 -0.02296079
v 0.01256118 0.01197986 -0.02189169
v 0.01485201 0.01104987 -0.02056002
v 0.01147378 0.01135454 0.00774261
v 0.01380018 0.00922420 0.01250171
v 0.01190911 0.01153371 0.01213183
v 0.01236031 0.01195170 0.01632090
v 0.01459383 0.00942003 0.01585468
v 0.01477076 0.01145611 0.01854270
v 0.01341501 0.01307158 -0.01876692
v 0.01360280 0.01389352 -0.01414169
v 0.01146262 0.01576280 -0.01300065
v 0.01446929 0.01332174 -0.00984144
v 0.01370863 0.01389387 -0.00605705
v 0.01189392 0.01597510 -0.00373748
v 0.01418077 0.01379445 -0.00168295
v 0.01204950 0.01588746 0.00031395
v 0.01490709 0.01371418 0.00326144
v 0.01261459 0.01616850 0.00388978
v 0.01484512 0.01562747 0.00603443
v 0.01405349 0.01548579 0.01841285
v 0.01319907 0.01724853 0.00710543
v 0.01378670 0.01758054 0.01124979
v 0.01382432 0.01736019 0.01549077
v 0.01589744 -0.01747604 0.00779166
v 0.01593233 -0.01848561 0.01213847
v 0.01576533 -0.01310868 -0.00522230
v 0.01589444 -0.01472942 0.00341641
v 0.01687154 -0.01358777 0.00711729
v 0.01704462 -0.01504667 0.01128327
v 0.01627919 -0.01533967 0.01549088
v 0.01586722 -0.00909385 -0.02229228
v 0.01604883 -0.00971906 -0.01825602
v 0.01587562 -0.00955779 -0.01375271
v 0.01588443 -0.01054140 -0.00933389
v 0.01687039 -0.00934907 -0.00590657
v 0.01687695 -0.01057920 -0.00182774
v 0.01697699 -0.01089752 0.00284181
v 0.01815587 -0.01063605 0.00586964
v 0.01859781 -0.01198896 0.00910558
v 0.01872296 -0.01232192 0.01337614
v 0.01804200 -0.01225445 0.01690901
v 0.01808845 -0.00973273 0.01840427
v 0.01610616 -0.00504938 -0.02228021
v 0.01651023 -0.00600452 -0.01822544
v 0.01634133 -0.00575140 -0.01373584
v 0.01675618 -0.00613848 -0.00944326
v 0.01821910 -0.00612241 -0.00677483
v 0.01852231 -0.00774477 -0.00401718
v 0.01850856 -0.00796304 0.00005346
v 0.01877317 -0.00849573 0.00362455
v 0.01569476 -0.00491356 0.00842373
v 0.01604341 -0.00543180 0.01210325
v 0.01639418 -0.00523312 0.01638688
v 0.01790874 -0.00579535 0.01836230
v 0.01608086 -0.00076025 -0.02226311
v 0.01674113 -0.00126326 -0.00984837
v 0.01850375 -0.00243231 -0.00737323
v 0.01592241 -0.00012555 -0.00090482
v 0.01618270 -0.00107448 0.01154529
v 0.01699650 -0.00155538 0.01634825
v 0.01860714 -0.00119460 0.01819035
v 0.01615282 0.00362602 -0.02222391
v 0.01644549 -0.00040285 -0.01829493
v 0.01622512 0.00106628 -0.01372155
v 0.01671612 0.00304107 -0.00984997
v 0.01597715 0.00312741 -0.00030686
v 0.01590165 0.00227087 0.00300501
v 0.01579725 0.00300815 0.00832483
v 0.01649559 0.00340920 0.01294491
v 0.01699443 0.00281440 0.01637094
v 0.01862803 0.00306955 0.01820558
v 0.01596835 0.00789940 -0.02156503
v 0.01671641 0.00712532 -0.01811010
v 0.01647781 0.00726956 -0.01365820
v 0.01677985 0.00766984 -0.00909720
v 0.01855897 0.00617165 -0.00704453
v 0.01568801 0.00669578 0.01251969
v 0.01623080 0.00693931 0.01632994
v 0.01822462 0.00779964 0.01835329
v 0.01599786 0.01107681 -0.01771237
v 0.01614742 0.01114605 -0.01354770
v 0.01596124 0.01123995 -0.00921031
v 0.01831641 0.00898436 -0.00538806
v 0.01637612 0.01127736 -0.00454624
v 0.01862913 0.00946525 -0.00168387
v 0.01631409 0.01156019 0.00043688
v 0.01857979 0.00961664 0.00246861
v 0.01666967 0.01149802 0.00343993
v 0.01829663 0.01128248 0.00535893
v 0.01772339 0.01250764 0.01847910
v 0.01762215 0.01377278 0.00741457
v 0.01627259 0.01598687 0.00924360
v 0.01880474 0.01391143 0.01131832
v 0.01663118 0.01603687 0.01346778
v 0.01884573 0.01368090 0.01558079
v 0.01655916 0.01544132 0.01698772
v 0.02009598 -0.00878256 0.00741189
v 0.02044870 -0.00949964 0.01217447
v 0.02003792 -0.00996690 0.01585458
v 0.01998748 -0.00462524 -0.00487002
v 0.02023032 -0.00540777 -0.00109044
v 0.02027014 -0.00583653 0.00366775
v 0.02080646 -0.00516243 0.00826205
v 0.02095480 -0.00565076 0.01217784
v 0.02046112 -0.00661695 0.01627019
v 0.02032119 -0.00047123 -0.00481464
v 0.02085090 -0.00165818 -0.00108243
v 0.02074384 -0.00162700 0.00326571
v 0.02034495 0.00396900 -0.00467768
v 0.02091072 0.00275190 -0.00089418
v 0.02082408 0.00276607 0.00343329
v 0.02070933 -0.00140642 0.00737939
v 0.02077834 0.00234319 0.01229228
v 0.02033777 -0.00171142 0.01638553
v 0.01993452 0.00736586 -0.00422874
v 0.02039437 0.00671380 -0.00078426
v 0.02042393 0.00738684 0.00385833
v 0.02085685 0.00737021 0.00796102
v 0.02088687 0.00749843 0.01239018
v 0.02033978 0.00651137 0.01643409
v 0.02010535 0.01113265 0.00825416
v 0.02048770 0.01124250 0.01236140
v 0.02016639 0.01053170 0.01642720
f 3 2 1
f 5 4 1
f 5 1 2
f 7 6 4
f 7 4 5
f 8 6 7
f 3 1 9
f 3 9 10
f 11 1 4
f 9 1 11
f 12 4 6
f 11 4 12
f 6 8 13
f 6 13 12
f 10 9 14
f 14 9 11
f 12 13 15
f 14 16 17
f 18 14 11
f 16 14 18
f 19 11 12
f 18 11 19
f 12 15 20
f 12 20 19
f 17 16 21
f 17 21 22
f 23 16 18
f 21 16 23
f 24 18 19
f 23 18 24
f 19 20 25
f 19 25 24
f 26 22 21
f 26 21 23
f 26 23 27
f 27 23 24
f 27 24 28
f 28 24 25
f 31 30 29
f 33 32 29
f 33 29 30
f 35 34 32
f 35 32 33
f 36 34 35
f 51 38 37
f 39 40 37
f 39 37 38
f 41 40 39
f 43 42 40
f 43 40 41
f 45 44 42
f 45 42 43
f 44 45 31
f 44 31 29
f 3 44 29
f 2 3 29
f 2 29 5
f 5 29 32
f 5 32 7
f 7 32 34
f 8 7 34
f 36 8 34
f 46 8 36
f 49 48 47
f 51 50 47
f 51 47 48
f 37 50 51
f 62 50 37
f 52 37 40
f 62 37 52
f 53 40 42
f 52 40 53
f 54 42 44
f 53 42 54
f 10 54 3
f 3 54 44
f 57 56 55
f 46 57 55
f 13 46 55
f 8 46 13
f 49 47 58
f 49 58 59
f 60 47 50
f 58 47 60
f 61 50 62
f 60 50 61
f 71 52 53
f 62 52 71
f 71 53 54
f 14 54 10
f 65 64 63
f 65 63 56
f 63 55 56
f 63 66 55
f 66 15 13
f 66 13 55
f 59 58 67
f 59 67 68
f 69 58 60
f 67 58 69
f 70 60 61
f 69 60 70
f 70 61 62
f 70 62 71
f 72 71 54
f 17 72 14
f 14 72 54
f 64 73 63
f 63 73 66
f 66 73 74
f 20 15 66
f 75 20 66
f 74 75 66
f 20 75 76
f 77 76 75
f 78 68 67
f 80 79 78
f 67 80 78
f 69 80 67
f 81 69 70
f 80 69 81
f 81 70 82
f 82 70 83
f 84 70 71
f 83 70 84
f 85 71 72
f 84 71 85
f 22 85 17
f 17 85 72
f 86 25 76
f 76 25 20
f 76 77 87
f 76 87 86
f 88 79 80
f 88 80 81
f 88 81 89
f 89 81 82
f 89 82 90
f 82 91 90
f 83 91 82
f 92 83 84
f 91 83 92
f 93 84 85
f 92 84 93
f 26 94 22
f 94 85 22
f 94 93 85
f 27 95 26
f 26 95 94
f 28 96 27
f 27 96 95
f 97 96 28
f 97 28 25
f 98 97 25
f 86 98 25
f 98 86 87
f 99 90 91
f 99 91 92
f 99 92 100
f 100 92 93
f 100 93 101
f 101 93 94
f 101 94 102
f 104 103 102
f 94 104 102
f 95 104 94
f 96 106 105
f 104 96 105
f 95 96 104
f 106 96 97
f 107 103 104
f 107 104 105
f 110 109 108
f 112 111 108
f 112 108 109
f 114 113 111
f 114 111 112
f 115 113 114
f 118 117 116
f 120 119 116
f 120 116 117
f 120 121 119
f 123 122 121
f 123 121 120
f 125 124 122
f 125 122 123
f 127 126 124
f 127 124 125
f 126 127 110
f 126 110 108
f 31 126 108
f 30 31 108
f 30 108 33
f 33 108 111
f 33 111 35
f 35 111 113
f 36 35 113
f 115 36 113
f 128 36 115
f 131 130 129
f 129 130 118
f 116 129 118
f 132 129 116
f 51 132 38
f 132 119 38
f 132 116 119
f 38 119 39
f 39 119 121
f 39 121 41
f 41 121 122
f 41 122 43
f 43 122 124
f 43 124 45
f 45 124 126
f 45 126 31
f 135 134 133
f 137 136 133
f 133 136 135
f 128 136 137
f 46 128 137
f 36 128 46
f 131 129 48
f 49 131 48
f 138 131 49
f 48 129 51
f 51 129 132
f 141 140 139
f 143 142 140
f 140 142 139
f 145 144 143
f 143 144 142
f 147 146 145
f 145 146 144
f 147 148 146
f 134 149 133
f 150 56 57
f 133 150 57
f 137 133 57
f 149 150 133
f 137 57 46
f 59 152 151
f 138 59 151
f 49 59 138
f 154 153 152
f 152 153 151
f 153 154 141
f 154 140 141
f 154 155 140
f 140 156 143
f 140 155 156
f 143 156 145
f 145 157 147
f 145 156 157
f 148 147 158
f 147 159 158
f 147 157 159
f 161 160 159
f 159 160 158
f 161 64 160
f 64 65 160
f 163 162 160
f 163 160 65
f 56 150 164
f 163 56 164
f 165 163 164
f 65 56 163
f 166 165 164
f 168 167 152
f 59 168 152
f 68 168 59
f 170 169 167
f 169 152 167
f 169 154 152
f 154 171 155
f 154 169 171
f 155 172 156
f 155 171 172
f 156 172 173
f 156 174 157
f 156 173 174
f 283 159 175
f 159 174 175
f 159 157 174
f 159 283 161
f 161 283 176
f 162 163 176
f 163 73 176
f 64 161 176
f 64 176 73
f 73 163 74
f 74 163 165
f 166 177 165
f 177 74 165
f 177 75 74
f 77 75 177
f 77 177 178
f 68 78 179
f 180 68 179
f 168 68 180
f 170 181 169
f 179 78 79
f 169 181 171
f 171 181 182
f 171 182 172
f 172 182 183
f 172 183 173
f 173 183 184
f 186 185 184
f 185 173 184
f 185 174 173
f 175 174 187
f 174 188 187
f 174 185 188
f 190 189 188
f 188 189 187
f 190 191 189
f 194 193 192
f 178 194 192
f 87 178 192
f 77 178 87
f 180 179 195
f 180 195 196
f 88 197 79
f 197 179 79
f 197 195 179
f 89 198 88
f 88 198 197
f 90 199 89
f 89 199 198
f 186 200 185
f 185 200 188
f 188 200 201
f 188 201 190
f 190 201 202
f 190 202 191
f 203 97 193
f 98 192 193
f 98 193 97
f 98 87 192
f 203 193 204
f 205 196 195
f 205 195 197
f 205 197 206
f 206 197 198
f 206 198 207
f 207 198 199
f 207 199 208
f 210 208 209
f 209 208 99
f 208 199 99
f 199 90 99
f 100 211 99
f 99 211 209
f 101 212 100
f 100 212 211
f 102 213 101
f 101 213 212
f 103 213 102
f 214 105 106
f 215 214 106
f 215 106 97
f 216 215 97
f 203 216 97
f 216 203 204
f 217 210 209
f 217 209 211
f 217 211 218
f 218 211 212
f 218 212 219
f 219 212 213
f 219 213 220
f 220 213 103
f 107 220 103
f 221 220 107
f 107 105 214
f 222 107 214
f 221 107 222
f 222 214 215
f 226 225 223
f 226 223 224
f 228 227 225
f 228 225 226
f 109 110 227
f 228 109 227
f 109 229 112
f 228 229 109
f 112 230 114
f 229 230 112
f 115 114 230
f 115 230 231
f 234 233 232
f 117 118 232
f 233 117 232
f 235 117 233
f 117 236 120
f 235 236 117
f 236 237 120
f 123 237 223
f 123 120 237
f 123 223 125
f 125 223 225
f 125 225 127
f 127 225 227
f 127 227 110
f 240 239 238
f 242 241 238
f 238 241 240
f 231 241 242
f 128 231 242
f 115 231 128
f 234 232 130
f 131 234 130
f 243 234 131
f 130 232 118
f 246 245 244
f 248 247 244
f 244 247 246
f 248 249 247
f 251 250 239
f 250 134 239
f 135 238 239
f 135 239 134
f 136 252 135
f 136 250 252
f 250 136 253
f 242 253 136
f 253 242 251
f 252 251 242
f 242 238 252
f 252 238 135
f 250 251 252
f 242 136 128
f 138 255 254
f 243 138 254
f 131 138 243
f 255 256 254
f 257 141 139
f 142 244 139
f 245 139 244
f 139 245 257
f 258 257 245
f 257 258 259
f 144 260 142
f 144 259 260
f 259 144 261
f 248 261 144
f 261 248 258
f 260 258 248
f 248 244 260
f 260 244 142
f 259 258 260
f 262 249 248
f 144 262 248
f 146 262 144
f 146 148 262
f 262 148 263
f 250 149 134
f 150 149 250
f 253 150 250
f 264 150 253
f 151 255 138
f 265 256 255
f 151 265 255
f 153 265 151
f 265 153 141
f 266 265 141
f 257 266 141
f 265 266 267
f 268 257 259
f 266 257 268
f 259 261 269
f 259 269 268
f 270 263 148
f 270 148 158
f 271 158 160
f 271 270 158
f 273 272 162
f 272 160 162
f 272 271 160
f 273 274 164
f 264 273 164
f 150 264 164
f 273 264 272
f 274 166 164
f 168 275 167
f 275 170 167
f 276 267 266
f 278 277 276
f 266 278 276
f 268 278 266
f 268 269 279
f 268 279 278
f 282 281 280
f 283 175 280
f 281 283 280
f 283 284 176
f 176 284 162
f 284 285 162
f 285 273 162
f 285 284 286
f 288 274 287
f 274 285 287
f 274 273 285
f 288 290 289
f 288 289 177
f 274 288 177
f 166 274 177
f 289 178 177
f 180 291 275
f 180 275 168
f 292 181 170
f 275 292 170
f 291 292 275
f 293 182 181
f 293 181 292
f 182 294 183
f 182 278 294
f 278 182 277
f 293 277 182
f 277 293 295
f 294 295 293
f 293 296 294
f 294 296 183
f 278 295 294
f 183 297 184
f 297 278 184
f 279 184 278
f 184 279 298
f 295 298 279
f 298 295 297
f 297 296 298
f 183 296 297
f 297 295 278
f 280 299 282
f 186 184 298
f 299 280 175
f 187 299 175
f 300 299 187
f 301 187 189
f 301 300 187
f 189 286 301
f 286 189 285
f 191 285 189
f 285 191 302
f 303 302 191
f 285 302 287
f 289 290 194
f 290 193 194
f 290 304 193
f 289 194 178
f 306 305 291
f 180 306 291
f 196 306 180
f 291 305 292
f 292 305 307
f 292 307 293
f 293 307 308
f 293 308 296
f 296 308 309
f 311 310 309
f 310 296 309
f 310 298 296
f 312 200 186
f 298 312 186
f 310 312 298
f 313 201 200
f 313 200 312
f 314 202 201
f 314 201 313
f 314 315 202
f 315 191 202
f 315 303 191
f 304 316 193
f 204 193 316
f 204 316 317
f 318 306 196
f 318 196 205
f 320 318 319
f 318 206 319
f 318 205 206
f 207 321 206
f 206 321 319
f 208 322 207
f 207 322 321
f 311 323 310
f 322 208 210
f 310 323 312
f 312 323 324
f 312 324 313
f 313 324 325
f 313 325 314
f 314 325 326
f 314 326 315
f 328 327 216
f 216 327 215
f 216 204 317
f 216 317 328
f 329 320 319
f 329 319 321
f 329 321 330
f 330 321 322
f 330 322 331
f 331 322 210
f 217 331 210
f 332 217 218
f 333 218 219
f 333 332 218
f 335 333 334
f 333 220 334
f 333 219 220
f 221 336 220
f 220 336 334
f 336 221 337
f 221 338 337
f 221 222 338
f 222 215 327
f 222 327 338
f 339 335 334
f 339 334 336
f 339 336 340
f 340 336 337
f 343 342 341
f 344 341 342
f 347 346 345
f 349 348 345
f 349 345 346
f 351 350 348
f 351 348 349
f 224 223 350
f 351 224 350
f 352 224 351
f 224 353 226
f 352 353 224
f 226 354 228
f 353 354 226
f 354 355 228
f 341 229 343
f 229 355 343
f 229 228 355
f 344 356 341
f 356 229 341
f 356 230 229
f 231 230 356
f 231 356 357
f 359 358 233
f 359 233 234
f 345 235 347
f 235 358 347
f 235 233 358
f 235 345 236
f 236 345 348
f 236 348 237
f 237 348 350
f 237 350 223
f 362 361 360
f 360 363 362
f 365 364 240
f 240 364 239
f 366 240 241
f 366 365 240
f 241 231 357
f 241 357 366
f 243 368 367
f 359 243 367
f 234 243 359
f 370 369 368
f 368 369 367
f 372 371 370
f 370 371 369
f 245 246 372
f 246 371 372
f 246 373 371
f 374 246 247
f 374 373 246
f 247 249 374
f 374 249 375
f 361 376 360
f 376 377 360
f 377 378 360
f 379 363 360
f 379 360 378
f 378 380 251
f 364 378 251
f 239 364 251
f 378 364 379
f 380 253 251
f 254 368 243
f 368 254 256
f 381 368 256
f 370 368 381
f 370 382 372
f 370 381 382
f 383 258 245
f 372 383 245
f 382 383 372
f 383 261 258
f 384 375 249
f 384 249 262
f 386 385 263
f 385 262 263
f 385 384 262
f 385 386 377
f 386 378 377
f 386 387 378
f 378 388 380
f 378 387 388
f 388 264 253
f 388 253 380
f 265 381 256
f 381 265 267
f 389 381 267
f 382 381 389
f 391 383 390
f 383 389 390
f 383 382 389
f 269 261 383
f 392 269 383
f 391 392 383
f 269 392 393
f 394 393 392
f 270 386 263
f 386 270 271
f 386 271 387
f 387 271 272
f 387 272 388
f 388 272 264
f 276 389 267
f 276 277 389
f 277 390 389
f 277 395 390
f 396 279 393
f 393 279 269
f 397 281 282
f 393 397 282
f 396 393 282
f 397 393 394
f 281 398 283
f 397 398 281
f 398 400 399
f 284 398 399
f 283 398 284
f 399 286 284
f 287 401 288
f 401 290 288
f 402 395 277
f 402 277 295
f 295 279 396
f 403 295 396
f 402 295 403
f 403 396 282
f 299 403 282
f 404 403 299
f 406 404 405
f 404 300 405
f 404 299 300
f 301 399 300
f 400 300 399
f 300 400 405
f 407 405 400
f 405 407 408
f 301 286 399
f 303 408 302
f 407 302 408
f 302 407 409
f 287 302 401
f 302 410 401
f 302 409 410
f 290 401 410
f 411 290 410
f 304 290 411
f 413 412 305
f 413 305 306
f 305 414 307
f 412 414 305
f 414 416 415
f 308 414 415
f 307 414 308
f 417 309 308
f 417 308 415
f 417 311 309
f 418 406 405
f 418 405 408
f 418 408 419
f 408 303 419
f 303 420 419
f 303 315 420
f 423 422 421
f 421 424 316
f 411 421 316
f 304 411 316
f 421 411 423
f 424 317 316
f 306 318 425
f 426 306 425
f 413 306 426
f 320 425 318
f 416 427 415
f 415 427 417
f 417 427 428
f 417 428 311
f 428 323 311
f 428 429 323
f 323 430 324
f 429 430 323
f 324 431 325
f 430 431 324
f 325 432 326
f 431 432 325
f 315 326 420
f 420 326 432
f 421 422 433
f 433 422 434
f 433 327 328
f 424 433 328
f 421 433 424
f 424 328 317
f 435 426 425
f 435 425 320
f 329 435 320
f 436 435 329
f 437 329 330
f 437 436 329
f 438 330 331
f 438 437 330
f 439 331 217
f 439 438 331
f 440 217 332
f 440 439 217
f 441 332 333
f 441 440 332
f 333 335 441
f 441 335 442
f 444 443 434
f 443 337 434
f 338 433 434
f 338 434 337
f 338 327 433
f 443 444 445
f 446 442 335
f 446 335 339
f 447 339 340
f 447 446 339
f 340 337 443
f 448 340 443
f 447 340 448
f 448 443 445
f 451 450 449
f 342 343 449
f 450 342 449
f 452 342 450
f 454 453 344
f 342 454 344
f 452 454 342
f 455 453 454
f 457 456 346
f 457 346 347
f 346 458 349
f 456 458 346
f 349 459 351
f 458 459 349
f 351 460 352
f 459 460 351
f 352 461 353
f 460 461 352
f 353 462 354
f 461 462 353
f 449 355 451
f 355 462 451
f 355 354 462
f 355 449 343
f 453 356 344
f 357 356 453
f 455 357 453
f 463 357 455
f 465 464 358
f 465 358 359
f 347 358 457
f 457 358 464
f 467 466 362
f 362 466 361
f 469 468 363
f 468 362 363
f 468 467 362
f 364 365 469
f 365 468 469
f 365 470 468
f 471 365 366
f 471 470 365
f 366 357 463
f 366 463 471
f 359 367 472
f 473 359 472
f 465 359 473
f 369 474 367
f 367 474 472
f 474 369 475
f 369 476 475
f 369 371 476
f 477 371 373
f 477 476 371
f 478 373 374
f 478 477 373
f 480 479 375
f 479 374 375
f 479 478 374
f 480 481 376
f 466 480 376
f 361 466 376
f 480 466 479
f 379 469 363
f 377 376 481
f 469 379 364
f 482 473 472
f 482 472 474
f 482 474 483
f 483 474 475
f 384 480 375
f 480 384 385
f 480 385 481
f 481 385 377
f 485 484 391
f 485 391 390
f 391 486 392
f 484 486 391
f 488 487 394
f 392 488 394
f 486 488 392
f 490 489 487
f 490 487 488
f 492 491 489
f 492 489 490
f 494 493 491
f 494 491 492
f 495 493 494
f 395 485 390
f 395 496 485
f 487 397 394
f 397 487 398
f 398 487 489
f 398 489 400
f 489 497 400
f 489 491 497
f 498 491 493
f 497 491 498
f 493 495 499
f 493 499 498
f 500 496 395
f 500 395 402
f 502 500 501
f 500 403 501
f 500 402 403
f 404 503 403
f 403 503 501
f 406 503 404
f 497 407 400
f 407 497 409
f 409 497 498
f 499 504 498
f 504 409 498
f 504 410 409
f 411 410 504
f 411 504 505
f 507 506 412
f 507 412 413
f 506 509 508
f 414 506 508
f 412 506 414
f 508 416 414
f 510 502 501
f 512 511 510
f 501 512 510
f 503 512 501
f 418 513 406
f 513 503 406
f 513 512 503
f 419 514 418
f 418 514 513
f 420 514 419
f 516 515 423
f 423 515 422
f 505 517 411
f 517 518 411
f 519 411 518
f 411 519 423
f 520 423 519
f 423 520 517
f 517 516 423
f 505 516 517
f 517 520 518
f 521 519 518
f 426 507 413
f 426 522 507
f 509 523 508
f 508 523 416
f 523 427 416
f 523 524 427
f 427 525 428
f 524 525 427
f 428 526 429
f 525 526 428
f 512 430 511
f 430 526 511
f 430 429 526
f 430 512 431
f 431 512 513
f 431 513 432
f 432 513 514
f 432 514 420
f 515 434 422
f 527 434 515
f 520 519 528
f 520 528 529
f 519 521 530
f 519 530 528
f 531 522 426
f 531 426 435
f 532 435 436
f 532 531 435
f 533 436 437
f 533 532 436
f 534 437 438
f 534 533 437
f 536 534 535
f 534 439 535
f 534 438 439
f 440 537 439
f 439 537 535
f 441 538 440
f 440 538 537
f 442 538 441
f 527 539 434
f 434 539 444
f 539 540 444
f 540 529 444
f 528 444 529
f 444 528 445
f 541 445 528
f 445 541 540
f 540 542 445
f 539 542 540
f 540 541 529
f 541 528 530
f 543 536 535
f 543 535 537
f 543 537 544
f 544 537 538
f 544 538 545
f 545 538 442
f 446 545 442
f 546 545 446
f 547 446 447
f 547 546 446
f 548 447 448
f 548 547 447
f 448 445 542
f 448 542 548
f 451 549 450
f 550 452 450
f 550 450 549
f 551 454 452
f 551 452 550
f 551 455 454
f 457 552 456
f 553 458 456
f 553 456 552
f 554 459 458
f 554 458 553
f 459 554 555
f 556 459 555
f 460 459 556
f 460 557 461
f 556 557 460
f 461 558 462
f 557 558 461
f 451 462 549
f 462 559 549
f 462 558 559
f 549 559 550
f 550 559 560
f 550 560 551
f 551 560 561
f 455 551 561
f 562 455 561
f 463 455 562
f 564 563 464
f 564 464 465
f 457 464 552
f 464 565 552
f 464 563 565
f 552 565 553
f 553 565 566
f 553 566 554
f 554 566 567
f 554 567 555
f 569 568 467
f 467 568 466
f 570 467 468
f 570 569 467
f 470 570 468
f 571 470 471
f 471 463 562
f 471 562 571
f 473 564 465
f 473 572 564
f 573 475 476
f 573 476 574
f 476 575 574
f 476 477 575
f 576 477 478
f 576 575 477
f 577 478 479
f 577 576 478
f 568 578 466
f 578 579 466
f 580 466 579
f 466 580 479
f 581 479 580
f 479 581 578
f 578 577 479
f 568 577 578
f 578 581 579
f 583 582 580
f 583 580 579
f 584 582 583
f 585 572 473
f 585 473 482
f 587 585 586
f 585 483 586
f 585 482 483
f 475 573 483
f 573 586 483
f 573 588 586
f 573 574 589
f 573 589 588
f 581 580 590
f 581 590 591
f 592 580 582
f 590 580 592
f 582 584 593
f 582 593 592
f 594 587 586
f 594 586 588
f 594 588 595
f 597 596 485
f 596 595 485
f 588 485 595
f 485 588 484
f 589 484 588
f 484 589 596
f 596 598 484
f 597 598 596
f 596 589 595
f 484 599 486
f 598 599 484
f 599 601 600
f 488 599 600
f 486 599 488
f 602 591 590
f 488 602 590
f 490 488 590
f 602 488 600
f 490 590 492
f 492 590 592
f 593 603 592
f 603 492 592
f 603 494 492
f 495 494 603
f 495 603 604
f 597 496 605
f 485 496 597
f 601 607 600
f 607 608 600
f 608 609 600
f 610 602 600
f 610 600 609
f 612 611 609
f 609 611 610
f 612 613 611
f 615 499 614
f 499 604 614
f 499 495 604
f 616 615 614
f 500 605 496
f 618 617 502
f 502 617 500
f 617 606 500
f 606 605 500
f 618 619 617
f 608 620 609
f 621 609 620
f 621 612 609
f 613 612 622
f 612 623 622
f 612 621 623
f 615 504 499
f 624 622 623
f 505 504 615
f 616 505 615
f 625 505 616
f 627 626 506
f 627 506 507
f 629 628 509
f 506 629 509
f 626 629 506
f 631 630 628
f 631 628 629
f 632 630 631
f 510 618 502
f 510 511 618
f 511 619 618
f 511 633 619
f 620 634 621
f 636 635 634
f 635 621 634
f 635 623 621
f 624 638 637
f 638 624 516
f 623 516 624
f 516 623 515
f 635 515 623
f 639 518 520
f 505 638 516
f 638 505 640
f 625 640 505
f 639 521 518
f 522 641 642
f 627 522 642
f 507 522 627
f 628 523 509
f 523 628 524
f 524 628 630
f 632 643 630
f 643 524 630
f 643 525 524
f 525 644 526
f 643 644 525
f 511 526 633
f 633 526 644
f 636 645 635
f 515 635 527
f 645 527 635
f 527 645 646
f 637 646 645
f 646 637 638
f 639 520 647
f 529 647 520
f 648 638 640
f 638 648 646
f 647 530 521
f 647 521 639
f 531 641 522
f 649 642 641
f 531 649 641
f 532 649 531
f 650 532 533
f 650 649 532
f 651 533 534
f 651 650 533
f 653 652 536
f 652 534 536
f 652 651 534
f 655 654 653
f 653 654 652
f 657 656 655
f 655 656 654
f 657 658 656
f 646 539 527
f 529 541 647
f 539 646 542
f 648 542 646
f 542 648 659
f 647 541 530
f 543 653 536
f 653 543 544
f 653 544 655
f 655 544 545
f 655 545 657
f 660 658 657
f 545 660 657
f 546 660 545
f 661 546 547
f 661 660 546
f 662 547 548
f 662 661 547
f 548 542 659
f 548 659 662
f 555 663 556
f 556 663 664
f 665 556 664
f 557 556 665
f 557 666 558
f 665 666 557
f 558 667 559
f 666 667 558
f 559 668 560
f 667 668 559
f 560 669 561
f 668 669 560
f 562 561 669
f 562 669 670
f 672 671 563
f 672 563 564
f 563 673 565
f 671 673 563
f 565 674 566
f 673 674 565
f 566 675 567
f 674 675 566
f 555 567 663
f 567 676 663
f 567 675 676
f 663 676 664
f 677 568 569
f 570 678 569
f 569 678 677
f 678 570 679
f 570 680 679
f 570 470 680
f 681 470 571
f 681 680 470
f 571 562 670
f 571 670 681
f 572 672 564
f 572 682 672
f 683 574 575
f 576 684 575
f 575 684 683
f 684 576 685
f 576 686 685
f 576 577 686
f 577 568 686
f 677 686 568
f 686 677 687
f 579 687 677
f 687 579 581
f 579 688 583
f 688 579 689
f 677 689 579
f 689 677 690
f 678 690 677
f 678 679 690
f 583 688 584
f 691 682 572
f 691 572 585
f 693 692 587
f 692 585 587
f 692 691 585
f 693 694 692
f 695 589 683
f 683 589 574
f 684 697 696
f 695 684 696
f 683 684 695
f 700 699 698
f 685 697 684
f 700 687 699
f 687 591 699
f 687 581 591
f 689 701 688
f 584 688 701
f 702 584 701
f 593 584 702
f 594 693 587
f 594 595 693
f 595 703 693
f 703 694 693
f 595 704 703
f 595 589 704
f 589 695 704
f 598 597 704
f 598 704 695
f 696 705 695
f 705 598 695
f 705 599 598
f 705 706 599
f 706 698 599
f 699 599 698
f 599 699 601
f 707 601 699
f 601 707 706
f 706 708 601
f 705 708 706
f 706 707 698
f 591 602 699
f 602 709 699
f 709 707 699
f 709 602 710
f 710 711 709
f 702 712 593
f 593 712 603
f 604 603 712
f 604 712 713
f 714 703 704
f 716 714 715
f 715 714 605
f 714 704 605
f 704 597 605
f 606 715 605
f 708 717 601
f 601 717 607
f 717 718 607
f 717 602 718
f 602 717 710
f 719 710 717
f 710 719 610
f 718 610 719
f 719 608 718
f 718 608 607
f 602 610 718
f 610 611 710
f 611 720 710
f 720 711 710
f 611 721 720
f 613 721 611
f 713 722 604
f 604 722 614
f 616 614 722
f 616 722 723
f 726 725 724
f 728 727 724
f 728 724 725
f 729 727 728
f 730 716 715
f 732 730 731
f 731 730 617
f 730 715 617
f 715 606 617
f 619 731 617
f 620 608 733
f 608 734 733
f 608 719 734
f 721 735 720
f 737 735 736
f 736 735 622
f 735 721 622
f 721 613 622
f 624 736 622
f 723 625 616
f 738 625 723
f 726 724 626
f 627 726 626
f 739 726 627
f 626 724 629
f 629 724 727
f 729 740 727
f 740 629 727
f 740 631 629
f 742 741 632
f 631 742 632
f 740 742 631
f 741 742 732
f 731 741 732
f 743 741 731
f 633 743 619
f 619 743 731
f 734 744 733
f 744 746 745
f 744 745 634
f 733 744 634
f 620 733 634
f 736 747 737
f 636 634 745
f 624 637 736
f 637 748 736
f 748 747 736
f 748 637 749
f 738 748 749
f 640 738 749
f 625 738 640
f 750 739 627
f 750 627 642
f 752 751 642
f 751 750 642
f 752 753 751
f 755 643 754
f 643 632 754
f 754 632 741
f 756 754 741
f 643 755 644
f 757 644 755
f 644 757 743
f 756 743 757
f 743 756 741
f 644 743 633
f 746 758 745
f 745 758 636
f 758 645 636
f 758 759 645
f 637 645 749
f 645 760 749
f 645 759 760
f 640 749 760
f 761 640 760
f 648 640 761
f 649 752 642
f 762 753 752
f 649 762 752
f 650 762 649
f 651 755 754
f 762 651 754
f 650 651 762
f 763 757 755
f 651 763 755
f 652 763 651
f 764 652 654
f 764 763 652
f 765 654 656
f 765 764 654
f 766 656 658
f 766 765 656
f 768 767 658
f 658 767 766
f 770 769 768
f 768 769 767
f 761 769 770
f 659 761 770
f 648 761 659
f 658 660 661
f 658 661 768
f 768 661 662
f 768 662 770
f 770 662 659
f 664 771 665
f 772 666 665
f 772 665 771
f 666 772 773
f 774 666 773
f 667 666 774
f 667 775 668
f 774 775 667
f 775 777 776
f 669 775 776
f 668 775 669
f 776 670 669
f 672 778 671
f 779 673 671
f 779 671 778
f 780 674 673
f 780 673 779
f 781 675 674
f 781 674 780
f 675 781 782
f 783 675 782
f 676 675 783
f 664 676 771
f 676 784 771
f 676 783 784
f 771 784 772
f 772 784 785
f 772 785 773
f 786 679 680
f 681 776 680
f 777 680 776
f 680 777 786
f 787 786 777
f 786 787 788
f 681 670 776
f 788 787 789
f 791 790 778
f 672 791 778
f 682 791 672
f 778 790 779
f 779 790 792
f 779 792 780
f 780 792 793
f 780 793 781
f 781 793 794
f 781 794 782
f 795 685 686
f 687 795 686
f 796 689 690
f 679 786 690
f 786 796 690
f 786 797 796
f 798 786 788
f 797 786 798
f 788 789 799
f 788 799 798
f 682 691 800
f 801 682 800
f 791 682 801
f 692 802 691
f 691 802 800
f 694 802 692
f 803 696 697
f 697 685 803
f 685 795 803
f 700 698 803
f 700 803 795
f 700 795 687
f 805 701 804
f 701 689 804
f 804 689 796
f 806 804 796
f 806 808 807
f 808 805 807
f 702 807 805
f 807 702 797
f 701 797 702
f 797 701 808
f 808 796 797
f 806 796 808
f 808 701 805
f 807 797 798
f 807 798 809
f 809 798 799
f 801 800 810
f 801 810 811
f 812 800 802
f 810 800 812
f 703 812 694
f 694 812 802
f 803 705 696
f 708 705 813
f 803 813 705
f 813 803 814
f 698 814 803
f 814 698 707
f 816 814 815
f 814 709 815
f 814 707 709
f 804 817 805
f 815 709 711
f 817 819 818
f 817 818 712
f 805 817 712
f 702 805 712
f 818 713 712
f 811 810 820
f 811 820 821
f 822 810 812
f 820 810 822
f 714 823 703
f 823 812 703
f 823 822 812
f 716 823 714
f 717 708 824
f 708 825 824
f 708 813 825
f 815 826 816
f 719 717 824
f 711 720 815
f 720 827 815
f 827 826 815
f 827 720 828
f 827 828 819
f 828 818 819
f 828 829 818
f 830 722 713
f 818 830 713
f 829 830 818
f 830 723 722
f 821 820 725
f 726 821 725
f 831 821 726
f 725 820 728
f 728 820 822
f 728 822 729
f 822 832 729
f 822 823 832
f 730 833 716
f 833 823 716
f 833 832 823
f 732 833 730
f 825 834 824
f 734 719 824
f 835 734 824
f 834 835 824
f 734 835 836
f 838 837 835
f 837 828 835
f 720 835 828
f 835 720 836
f 735 836 720
f 836 735 837
f 837 839 836
f 838 839 837
f 837 735 828
f 838 840 839
f 841 735 737
f 735 841 828
f 829 828 841
f 829 842 830
f 829 841 842
f 842 738 723
f 842 723 830
f 739 844 843
f 831 739 843
f 726 739 831
f 844 845 843
f 832 740 729
f 740 832 742
f 742 832 833
f 742 833 732
f 836 744 734
f 744 836 746
f 836 846 746
f 836 839 846
f 841 737 747
f 840 847 839
f 848 839 847
f 839 848 846
f 850 849 847
f 848 847 849
f 841 748 842
f 748 841 747
f 748 738 842
f 849 850 851
f 750 844 739
f 852 845 844
f 750 852 844
f 751 852 750
f 854 853 753
f 853 751 753
f 853 852 751
f 754 756 854
f 756 853 854
f 756 855 853
f 857 856 757
f 856 756 757
f 856 855 756
f 859 858 857
f 857 858 856
f 861 860 859
f 859 860 858
f 846 758 746
f 862 860 861
f 758 846 759
f 759 846 848
f 759 848 760
f 760 848 849
f 761 760 849
f 851 761 849
f 863 761 851
f 762 854 753
f 854 762 754
f 763 857 757
f 857 763 764
f 857 764 859
f 859 764 765
f 859 765 861
f 864 862 861
f 765 864 861
f 766 864 765
f 865 766 767
f 865 864 766
f 866 767 769
f 866 865 767
f 769 761 863
f 769 863 866
f 773 867 774
f 868 775 774
f 868 774 867
f 868 777 775
f 782 869 783
f 870 784 783
f 870 783 869
f 870 785 784
f 867 773 785
f 870 867 785
f 871 867 870
f 867 872 868
f 867 871 872
f 873 787 777
f 868 873 777
f 872 873 868
f 873 789 787
f 791 874 790
f 875 792 790
f 875 790 874
f 876 793 792
f 876 792 875
f 877 794 793
f 877 793 876
f 869 782 794
f 877 869 794
f 878 869 877
f 869 879 870
f 869 878 879
f 870 879 880
f 882 871 881
f 871 880 881
f 871 870 880
f 871 882 872
f 872 882 883
f 872 883 873
f 873 883 884
f 789 873 884
f 885 789 884
f 799 789 885
f 801 886 874
f 801 874 791
f 874 887 875
f 874 886 887
f 875 888 876
f 875 887 888
f 876 889 877
f 876 888 889
f 891 878 890
f 878 889 890
f 878 877 889
f 878 891 879
f 879 891 892
f 879 892 880
f 880 892 893
f 894 804 806
f 893 881 880
f 807 895 806
f 806 895 894
f 809 896 807
f 807 896 895
f 897 896 809
f 799 897 809
f 885 897 799
f 811 898 886
f 811 886 801
f 886 906 887
f 886 898 906
f 887 907 888
f 887 906 907
f 888 899 889
f 888 907 899
f 890 889 900
f 900 889 899
f 901 813 814
f 816 901 814
f 894 817 804
f 817 894 819
f 894 902 819
f 894 895 902
f 903 895 896
f 902 895 903
f 896 897 904
f 896 904 903
f 821 905 898
f 821 898 811
f 898 905 906
f 907 908 899
f 900 899 908
f 909 825 901
f 901 825 813
f 826 910 816
f 910 901 816
f 910 909 901
f 827 911 826
f 826 911 910
f 819 902 827
f 902 911 827
f 902 912 911
f 913 902 903
f 912 902 913
f 903 904 914
f 903 914 913
f 831 915 905
f 831 905 821
f 905 916 906
f 905 915 916
f 906 917 907
f 906 916 917
f 907 918 908
f 907 917 918
f 919 908 918
f 909 834 825
f 834 909 835
f 835 909 910
f 835 910 838
f 838 910 911
f 838 911 840
f 911 920 840
f 911 912 920
f 921 912 913
f 920 912 921
f 913 914 922
f 913 922 921
f 843 915 831
f 915 843 845
f 923 915 845
f 916 915 923
f 916 924 917
f 916 923 924
f 917 925 918
f 917 924 925
f 919 918 926
f 918 927 926
f 918 925 927
f 929 928 927
f 927 928 926
f 931 930 929
f 929 930 928
f 931 932 930
f 920 847 840
f 847 920 850
f 850 920 921
f 851 850 921
f 922 851 921
f 933 851 922
f 852 923 845
f 923 852 853
f 923 853 924
f 924 853 855
f 924 855 925
f 925 855 856
f 925 856 927
f 927 856 858
f 927 858 929
f 929 858 860
f 929 860 931
f 935 934 862
f 862 934 860
f 934 932 860
f 932 931 860
f 937 936 935
f 935 936 934
f 939 938 937
f 937 938 936
f 933 938 939
f 863 933 939
f 851 933 863
f 864 935 862
f 935 864 865
f 935 865 937
f 937 865 866
f 937 866 939
f 939 866 863
f 881 940 882
f 941 883 882
f 941 882 940
f 942 884 883
f 942 883 941
f 942 885 884
f 890 943 891
f 944 892 891
f 944 891 943
f 945 893 892
f 945 892 944
f 940 881 893
f 945 940 893
f 946 940 945
f 940 947 941
f 940 946 947
f 941 948 942
f 941 947 948
f 948 897 885
f 948 885 942
f 900 949 943
f 900 943 890
f 943 950 944
f 943 949 950
f 944 951 945
f 944 950 951
f 945 955 946
f 945 951 955
f 946 956 947
f 946 955 956
f 947 957 948
f 947 956 957
f 957 904 897
f 957 897 948
f 908 952 949
f 908 949 900
f 949 953 950
f 949 952 953
f 950 954 951
f 950 953 954
f 951 954 955
f 957 914 904
f 919 958 952
f 919 952 908
f 952 959 953
f 952 958 959
f 953 960 954
f 953 959 960
f 954 961 955
f 954 960 961
f 955 962 956
f 955 961 962
f 956 963 957
f 956 962 963
f 963 922 914
f 963 914 957
f 926 958 919
f 958 926 928
f 958 928 959
f 959 928 930
f 959 930 960
f 960 930 932
f 964 960 932
f 961 960 964
f 961 965 962
f 961 964 965
f 962 966 963
f 962 965 966
f 966 933 922
f 966 922 963
f 934 964 932
f 964 934 936
f 964 936 965
f 965 936 938
f 965 938 966
f 966 938 933

