# https://github.com/mikedh/trimesh
v -0.03667189 0.00069179 0.00085548
v -0.03523572 -0.00178726 0.00027234
v -0.03531644 0.00000537 -0.00077020
v -0.03485987 -0.00070742 0.00188925
v -0.03687383 0.00370527 0.00055825
v -0.03528522 0.00357652 -0.00103526
v -0.03532050 0.00289884 0.00214064
v -0.03687237 0.00756142 0.00055162
v -0.03532553 0.00744307 -0.00099456
v -0.03531827 0.00671170 0.00210784
v -0.03692644 0.01138580 0.00055071
v -0.03538697 0.01124502 -0.00100430
v -0.03534006 0.01057611 0.00212748
v -0.03675165 0.01437321 0.00026511
v -0.03468553 0.01528124 -0.00085062
v -0.03504447 0.01466270 0.00198005
v -0.03535744 0.01685932 0.00086139
v -0.03287934 -0.01068434 0.00082487
v -0.03149411 -0.01321236 0.00026665
v -0.03148905 -0.01135379 -0.00080134
v -0.03111820 -0.01214480 0.00189812
v -0.03297597 -0.00763832 0.00056397
v -0.03135974 -0.00776310 -0.00102829
v -0.03150868 -0.00845570 0.00213977
v -0.03358624 -0.00411857 0.00053874
v -0.03197623 -0.00382090 -0.00107792
v -0.03185074 -0.00415579 0.00218805
v -0.03171073 -0.00027469 -0.00149648
v -0.03176578 0.00002066 0.00261146
v -0.03169964 0.00353502 -0.00148575
v -0.03173717 0.00380824 0.00259469
v -0.03176840 0.00734454 -0.00145987
v -0.03174200 0.00759404 0.00258443
v -0.03180173 0.01116826 -0.00146343
v -0.03176033 0.01140405 0.00258897
v -0.03128427 0.01442520 -0.00146710
v -0.03121350 0.01464719 0.00258485
v -0.03374739 0.01920928 0.00056222
v -0.03198216 0.01845575 -0.00106675
v -0.03210493 0.01806078 0.00219018
v -0.03291192 0.02195021 0.00027389
v -0.03090165 0.02283961 -0.00086292
v -0.03119340 0.02221894 0.00197358
v -0.03155044 0.02441252 0.00083426
v -0.02975833 -0.01488111 0.00082888
v -0.02746986 -0.01707153 0.00029117
v -0.02820190 -0.01509721 -0.00090875
v -0.02768552 -0.01550565 0.00202324
v -0.02788815 -0.01161351 -0.00153166
v -0.02803310 -0.01136963 0.00263401
v -0.02780982 -0.00775992 -0.00146741
v -0.02791843 -0.00754631 0.00258319
v -0.02776473 -0.00399091 -0.00142555
v -0.02781687 -0.00380273 0.00254870
v -0.02774021 -0.00022085 -0.00140380
v -0.02776690 -0.00007683 0.00252068
v -0.02775486 0.00355585 -0.00137528
v -0.02775592 0.00366464 0.00249192
v -0.02780571 0.00734096 -0.00137740
v -0.02779311 0.00744407 0.00249492
v -0.02784007 0.01113516 -0.00139696
v -0.02780214 0.01125051 0.00251330
v -0.02793224 0.01492842 -0.00142095
v -0.02785476 0.01506412 0.00253771
v -0.02804675 0.01874289 -0.00144675
v -0.02793480 0.01889390 0.00256930
v -0.02755374 0.02200854 -0.00146714
v -0.02744367 0.02219029 0.00258456
v -0.02990035 0.02602353 0.00027636
v -0.02751440 0.02625400 -0.00093010
v -0.02795616 0.02587895 0.00204796
v -0.02767026 0.02817173 0.00084069
v -0.02579134 -0.01875023 0.00082617
v -0.02361818 -0.02101531 0.00029117
v -0.02425099 -0.01894382 -0.00090278
v -0.02382261 -0.01942824 0.00202038
v -0.02397099 -0.01541474 -0.00151687
v -0.02415533 -0.01521083 0.00263266
v -0.02395973 -0.01151465 -0.00143115
v -0.02403362 -0.01136831 0.00254693
v -0.02394788 -0.00772080 -0.00135405
v -0.02395777 -0.00766236 0.00247173
v -0.02393900 -0.00395985 -0.00132953
v -0.02394292 -0.00394569 0.00244694
v -0.02394296 -0.00019730 -0.00131746
v -0.02394251 -0.00020290 0.00243416
v -0.02394561 0.00356092 -0.00131621
v -0.02394596 0.00355427 0.00243279
v -0.02396014 0.00733408 -0.00131820
v -0.02396122 0.00732980 0.00243466
v -0.02397641 0.01111662 -0.00133092
v -0.02397034 0.01113130 0.00244730
v -0.02402927 0.01489438 -0.00135991
v -0.02400350 0.01494802 0.00247696
v -0.02413010 0.01866937 -0.00140201
v -0.02406615 0.01876858 0.00251894
v -0.02420036 0.02248621 -0.00143130
v -0.02412063 0.02262810 0.00254241
v -0.02371937 0.02575098 -0.00144458
v -0.02361165 0.02591239 0.00255468
v -0.02610893 0.03051893 0.00056409
v -0.02441899 0.02977192 -0.00106157
v -0.02446168 0.02935823 0.00218278
v -0.02533695 0.03329867 0.00028240
v -0.02337208 0.03426550 -0.00086768
v -0.02362148 0.03355294 0.00198482
v -0.02400771 0.03583103 0.00084326
v -0.02196048 -0.02265979 0.00084815
v -0.01945758 -0.02403781 0.00026703
v -0.02089916 -0.02231710 -0.00078182
v -0.02012491 -0.02266152 0.00189578
v -0.02013864 -0.01925998 -0.00150729
v -0.02034870 -0.01909170 0.00262734
v -0.02013128 -0.01528248 -0.00141844
v -0.02024282 -0.01520249 0.00253179
v -0.02019486 -0.01145813 -0.00132031
v -0.02018699 -0.01146655 0.00243372
v -0.02019664 -0.00770589 -0.00131693
v -0.02018802 -0.00772044 0.00243081
v -0.02019499 -0.00394982 -0.00131919
v -0.02019195 -0.00396239 0.00243346
v -0.02019398 -0.00019291 -0.00131928
v -0.02019242 -0.00020339 0.00243435
v -0.02019242 0.00356313 -0.00131844
v -0.02019231 0.00355450 0.00243441
v -0.02018984 0.00732019 -0.00131709
v -0.02019142 0.00731292 0.00243366
v -0.02018659 0.01107808 -0.00131692
v -0.02019000 0.01107308 0.00243362
v -0.02020549 0.01484996 -0.00131922
v -0.02020716 0.01484781 0.00243595
v -0.02026928 0.01865625 -0.00133640
v -0.02025467 0.01867231 0.00245280
v -0.02029924 0.02244867 -0.00137769
v -0.02025466 0.02251890 0.00249342
v -0.02038955 0.02622350 -0.00141510
v -0.02030348 0.02634492 0.00253195
v -0.02051387 0.03005936 -0.00144979
v -0.02037943 0.03019585 0.00257298
v -0.02006358 0.03340038 -0.00149724
v -0.01987933 0.03352075 0.00261300
v -0.02236985 0.03755231 0.00027741
v -0.02008529 0.03721574 -0.00088391
v -0.02076642 0.03687337 0.00199000
v -0.01981112 0.03893502 0.00082870
v -0.01671121 -0.02489873 0.00057960
v -0.01674115 -0.02318957 -0.00108462
v -0.01638255 -0.02325632 0.00224378
v -0.01629641 -0.01917981 -0.00144595
v -0.01649335 -0.01903833 0.00257349
v -0.01640339 -0.01524065 -0.00133446
v -0.01643910 -0.01521677 0.00244644
v -0.01644274 -0.01146686 -0.00131769
v -0.01643754 -0.01146809 0.00242867
v -0.01644116 -0.00771315 -0.00132251
v -0.01643995 -0.00771003 0.00243440
v -0.01644052 -0.00395603 -0.00132268
v -0.01643883 -0.00395141 0.00243591
v -0.01643963 -0.00019652 -0.00132338
v -0.01643824 -0.00019429 0.00243695
v -0.01643784 0.00356364 -0.00132338
v -0.01643742 0.00356170 0.00243741
v -0.01643642 0.00732070 -0.00132138
v -0.01643569 0.00731702 0.00243690
v -0.01643243 0.01107598 -0.00131862
v -0.01643340 0.01107194 0.00243520
v -0.01643240 0.01483598 -0.00131655
v -0.01643543 0.01483026 0.00243338
v -0.01644559 0.01861156 -0.00131797
v -0.01644812 0.01860741 0.00243487
v -0.01645951 0.02239147 -0.00133128
v -0.01645605 0.02240796 0.00244799
v -0.01650939 0.02616650 -0.00135928
v -0.01648782 0.02622358 0.00247655
v -0.01661997 0.02997656 -0.00142092
v -0.01651108 0.03006692 0.00253776
v -0.01676856 0.03392047 -0.00148613
v -0.01656530 0.03399856 0.00258829
v -0.01593525 0.03742507 -0.00101697
v -0.01663928 0.03754800 0.00211714
v -0.01675966 0.03904029 0.00055442
v -0.01438164 -0.02654124 0.00094791
v -0.01195584 -0.02791569 0.00038869
v -0.01331585 -0.02618501 -0.00065051
v -0.01259741 -0.02657261 0.00193077
v -0.01252457 -0.02312474 -0.00137299
v -0.01276114 -0.02300625 0.00260085
v -0.01250751 -0.01918003 -0.00131054
v -0.01266601 -0.01906279 0.00249893
v -0.01258306 -0.01535191 -0.00126101
v -0.01265874 -0.01524286 0.00243415
v -0.01262542 -0.01158031 -0.00126604
v -0.01267947 -0.01147301 0.00243638
v -0.01264577 -0.00782415 -0.00126941
v -0.01268335 -0.00771561 0.00243683
v -0.01265944 -0.00405538 -0.00128520
v -0.01268084 -0.00395642 0.00243550
v -0.01265507 -0.00025867 -0.00130960
v -0.01267934 -0.00019538 0.00243534
v -0.01266449 0.00354603 -0.00132280
v -0.01267988 0.00356368 0.00243663
v -0.01267931 0.00732285 -0.00132360
v -0.01267927 0.00732070 0.00243761
v -0.01267858 0.01107871 -0.00132153
v -0.01267718 0.01107703 0.00243748
v -0.01267540 0.01483458 -0.00131952
v -0.01267644 0.01483281 0.00243628
v -0.01267312 0.01859332 -0.00131794
v -0.01267571 0.01858963 0.00243468
v -0.01266943 0.02235115 -0.00131633
v -0.01267587 0.02234782 0.00243297
v -0.01268534 0.02612104 -0.00131882
v -0.01268834 0.02612091 0.00243580
v -0.01279879 0.02995330 -0.00137956
v -0.01269555 0.02996436 0.00249532
v -0.01294543 0.03384093 -0.00146341
v -0.01272033 0.03390338 0.00257203
v -0.01214328 0.03731471 -0.00098419
v -0.01283901 0.03742456 0.00209595
v -0.01298754 0.03891044 0.00055172
v -0.00888476 -0.02814666 0.00003617
v -0.00903583 -0.02612302 -0.00128164
v -0.00903561 -0.02650942 0.00211439
v -0.00924340 -0.02253288 -0.00122940
v -0.00887695 -0.02300591 0.00250215
v -0.00871502 -0.01919142 -0.00116542
v -0.00880806 -0.01913612 0.00245460
v -0.00874868 -0.01539472 -0.00117072
v -0.00882378 -0.01534420 0.00248149
v -0.00882394 -0.01163796 -0.00118648
v -0.00888576 -0.01158258 0.00249500
v -0.00883922 -0.00787244 -0.00121263
v -0.00890379 -0.00781601 0.00247652
v -0.00884001 -0.00411232 -0.00124003
v -0.00889694 -0.00401869 0.00245024
v -0.00885372 -0.00031360 -0.00127120
v -0.00890545 -0.00021450 0.00243680
v -0.00888019 0.00352758 -0.00130936
v -0.00892018 0.00356253 0.00243589
v -0.00892109 0.00732257 -0.00132330
v -0.00892136 0.00732087 0.00243724
v -0.00892144 0.01108010 -0.00132273
v -0.00891985 0.01107876 0.00243778
v -0.00891930 0.01483660 -0.00132091
v -0.00891931 0.01483643 0.00243761
v -0.00891771 0.01859391 -0.00132009
v -0.00891824 0.01859275 0.00243682
v -0.00891190 0.02234987 -0.00131659
v -0.00891756 0.02234681 0.00243330
v -0.00891276 0.02610707 -0.00131680
v -0.00891590 0.02610184 0.00243375
v -0.00902079 0.02989721 -0.00137146
v -0.00892375 0.02990140 0.00248849
v -0.00917874 0.03376970 -0.00143352
v -0.00896851 0.03382717 0.00255691
v -0.00835857 0.03796100 -0.00105704
v -0.00871826 0.03779668 0.00217952
v -0.00950763 0.03957269 0.00055112
v -0.00689928 -0.02713362 -0.00271198
v -0.00473592 -0.02815722 -0.00316819
v -0.00533370 -0.02671424 -0.00458304
v -0.00531010 -0.02836303 0.00098110
v -0.00501115 -0.02610124 0.00262906
v -0.00498507 -0.02522131 -0.00380473
v -0.00575708 -0.02238651 -0.00175614
v -0.00557921 -0.02247372 0.00242564
v -0.00543933 -0.01821722 -0.00158571
v -0.00500479 -0.01916016 0.00246952
v -0.00551124 -0.01439235 -0.00163979
v -0.00502858 -0.01536744 0.00255333
v -0.00556829 -0.01063490 -0.00167580
v -0.00507937 -0.01160428 0.00254967
v -0.00489935 -0.00684044 -0.00161973
v -0.00509042 -0.00783307 0.00251807
v -0.00555593 -0.00357454 -0.00122257
v -0.00510944 -0.00403926 0.00248585
v -0.00505175 -0.00031664 -0.00123873
v -0.00512710 -0.00021579 0.00244822
v -0.00512273 0.00352861 -0.00128396
v -0.00516149 0.00356271 0.00243665
v -0.00516539 0.00732121 -0.00132195
v -0.00516251 0.00732005 0.00243697
v -0.00516209 0.01107985 -0.00132311
v -0.00516137 0.01107895 0.00243772
v -0.00516141 0.01483760 -0.00132112
v -0.00516136 0.01483771 0.00243781
v -0.00516120 0.01859604 -0.00132097
v -0.00516120 0.01859611 0.00243770
v -0.00515567 0.02235238 -0.00131854
v -0.00516002 0.02235183 0.00243524
v -0.00515613 0.02610590 -0.00131876
v -0.00515961 0.02610363 0.00243535
v -0.00525363 0.02988000 -0.00135530
v -0.00519367 0.02989162 0.00247278
v -0.00539178 0.03373800 -0.00141312
v -0.00522744 0.03379115 0.00253693
v -0.00498090 0.03712246 -0.00146251
v -0.00473399 0.03717404 0.00258821
v -0.00717829 0.04124709 0.00027470
v -0.00494250 0.04097748 -0.00084773
v -0.00557825 0.04057048 0.00198718
v -0.00465116 0.04267785 0.00088012
v -0.00278038 -0.02703350 -0.02171231
v -0.00071734 -0.02810167 -0.02197984
v -0.00094971 -0.02573337 -0.02363653
v -0.00301860 -0.02669299 -0.01857619
v -0.00144784 -0.02830020 -0.01850020
v -0.00290028 -0.02662346 -0.01473457
v -0.00141214 -0.02820184 -0.01465036
v -0.00273973 -0.02665800 -0.01101193
v -0.00137724 -0.02816465 -0.01092114
v -0.00347856 -0.02647075 -0.00701345
v -0.00169773 -0.02815963 -0.00680284
v -0.00101885 -0.02856481 -0.00279604
v -0.00147363 -0.02867562 0.00050528
v -0.00282264 -0.02656160 0.00462006
v -0.00164803 -0.02836983 0.00414266
v -0.00280419 -0.02667265 0.00786833
v -0.00113386 -0.02826670 0.00811119
v -0.00287446 -0.02663047 0.01169376
v -0.00120153 -0.02824674 0.01194851
v -0.00289334 -0.02667340 0.01569586
v -0.00130453 -0.02830260 0.01588104
v -0.00269111 -0.02640989 0.01897158
v -0.00182167 -0.02795322 0.01898727
v -0.00061068 -0.02648665 0.02098458
v -0.00194054 -0.02484545 -0.02137327
v -0.00187842 -0.02456186 -0.01766196
v -0.00106697 -0.02467438 -0.01371802
v -0.00102744 -0.02525670 -0.00997977
v -0.00181107 -0.02459878 -0.00634727
v -0.00315012 -0.02291134 -0.00363977
v -0.00084969 -0.02248091 -0.00498719
v -0.00218125 -0.02280684 0.00225144
v -0.00074246 -0.02483211 0.00418292
v -0.00133883 -0.02506353 0.00868621
v -0.00187362 -0.02510680 0.01224188
v -0.00149559 -0.02451557 0.01609103
v -0.00134392 -0.02459933 0.01982173
v -0.00317242 -0.02000259 -0.00305079
v -0.00091706 -0.01910323 -0.00459707
v -0.00168494 -0.01818550 0.00194843
v -0.00324819 -0.01613598 -0.00312945
v -0.00103571 -0.01517154 -0.00474825
v -0.00171918 -0.01433536 0.00201866
v -0.00336119 -0.01226333 -0.00322676
v -0.00109890 -0.01126001 -0.00486189
v -0.00110185 -0.01050518 0.00208608
v -0.00313873 -0.00868787 -0.00324803
v -0.00036967 -0.00789500 -0.00462861
v -0.00182307 -0.00723897 0.00252040
v -0.00166498 -0.00627027 -0.00296277
v -0.00164131 -0.00399082 -0.00162290
v -0.00132510 -0.00398658 0.00249370
v -0.00126459 -0.00026146 -0.00121539
v -0.00137624 -0.00018603 0.00245737
v -0.00139334 0.00353970 -0.00126993
v -0.00140421 0.00356272 0.00243688
v -0.00140818 0.00732030 -0.00132186
v -0.00140317 0.00731969 0.00243717
v -0.00140254 0.01107914 -0.00132264
v -0.00140266 0.01107890 0.00243770
v -0.00140276 0.01483761 -0.00132103
v -0.00140273 0.01483766 0.00243776
v -0.00140276 0.01859634 -0.00132102
v -0.00140271 0.01859645 0.00243774
v -0.00139839 0.02235377 -0.00131941
v -0.00140125 0.02235337 0.00243608
v -0.00139787 0.02610896 -0.00131795
v -0.00140361 0.02610745 0.00243441
v -0.00145616 0.02988726 -0.00133005
v -0.00144305 0.02989529 0.00244673
v -0.00157931 0.03372039 -0.00139762
v -0.00146199 0.03375812 0.00251452
v -0.00170304 0.03771058 -0.00148941
v -0.00147192 0.03771354 0.00260699
v -0.00077978 0.04129576 -0.00103875
v -0.00148008 0.04130857 0.00216037
v -0.00158014 0.04287961 0.00056554
v 0.00208291 -0.02797136 -0.02152252
v 0.00185842 -0.02625597 -0.02380491
v 0.00162098 -0.02828934 -0.01837323
v 0.00233157 -0.02826099 -0.01424933
v 0.00220772 -0.02866247 -0.01068200
v 0.00226706 -0.02863783 -0.00701776
v 0.00235043 -0.02858223 -0.00325825
v 0.00246185 -0.02857414 0.00058724
v 0.00250826 -0.02865624 0.00446979
v 0.00194498 -0.02873664 0.00775505
v 0.00251057 -0.02834632 0.01174664
v 0.00194220 -0.02834902 0.01599537
v 0.00115539 -0.02809783 0.01949168
v 0.00306630 -0.02576242 0.02123111
v 0.00012918 -0.02310993 -0.02259298
v 0.00232454 -0.02307635 -0.02386114
v 0.00011463 -0.02251582 -0.01951473
v 0.00045261 -0.02257197 -0.01581206
v 0.00175795 -0.02294118 -0.01296182
v 0.00196523 -0.02410250 -0.01054728
v 0.00137503 -0.02421343 -0.00741605
v 0.00269139 -0.02189375 -0.00559322
v 0.00056729 -0.02302768 0.00065658
v 0.00227037 -0.02224653 -0.00073854
v 0.00214857 -0.02406746 0.00123204
v 0.00221968 -0.02434161 0.00458269
v 0.00225767 -0.02490109 0.00815909
v 0.00134476 -0.02455570 0.01228446
v 0.00066850 -0.02273024 0.01528699
v 0.00309042 -0.02295378 0.01383836
v 0.00026786 -0.02244489 0.01849369
v 0.00144619 -0.02350440 0.02115090
v 0.00258778 -0.02123894 -0.02133823
v 0.00260505 -0.02101109 -0.01760195
v 0.00314830 -0.02137224 -0.01388938
v 0.00183949 -0.01861929 -0.00515455
v 0.00066448 -0.02002757 0.00020740
v 0.00251341 -0.01912435 -0.00083693
v 0.00280060 -0.02105617 0.01618090
v 0.00286819 -0.02132089 0.01970664
v 0.00229386 -0.01529361 -0.00529814
v 0.00062165 -0.01608706 0.00032661
v 0.00244072 -0.01510894 -0.00074024
v 0.00229899 -0.01135268 -0.00541906
v 0.00080053 -0.01244333 0.00037993
v 0.00268453 -0.01201636 -0.00051842
v 0.00330523 -0.00800275 -0.00492910
v 0.00194786 -0.01022638 0.00069455
v 0.00228965 -0.00813444 0.00213530
v 0.00155494 -0.00566511 -0.00329415
v 0.00252958 -0.00347768 -0.00171150
v 0.00241622 -0.00392528 0.00249036
v 0.00246109 -0.00020634 -0.00121561
v 0.00236114 -0.00018147 0.00244820
v 0.00234465 0.00355869 -0.00128338
v 0.00235471 0.00356078 0.00243641
v 0.00235303 0.00732040 -0.00132291
v 0.00235595 0.00731995 0.00243754
v 0.00235633 0.01107875 -0.00132175
v 0.00235600 0.01107888 0.00243769
v 0.00235589 0.01483755 -0.00132097
v 0.00235594 0.01483756 0.00243771
v 0.00235590 0.01859629 -0.00132104
v 0.00235602 0.01859632 0.00243774
v 0.00235874 0.02235405 -0.00132026
v 0.00235756 0.02235371 0.00243695
v 0.00236317 0.02611038 -0.00131645
v 0.00235571 0.02610926 0.00243306
v 0.00234496 0.02987786 -0.00131804
v 0.00234000 0.02987886 0.00243466
v 0.00221515 0.03372572 -0.00140885
v 0.00235209 0.03371226 0.00252420
v 0.00214048 0.03771850 -0.00150277
v 0.00240358 0.03769265 0.00261175
v 0.00287680 0.04078648 -0.00077745
v 0.00212527 0.04127758 0.00187233
v 0.00146107 0.04261905 0.00024266
v 0.00403073 -0.02617391 -0.02244621
v 0.00401157 -0.02669120 -0.01932011
v 0.00431010 -0.02661346 -0.01558977
v 0.00555628 -0.02680912 -0.01277068
v 0.00568250 -0.02785616 -0.01040691
v 0.00643237 -0.02821438 -0.00670330
v 0.00630764 -0.02860650 -0.00310220
v 0.00576907 -0.02856682 0.00013438
v 0.00631856 -0.02817089 0.00415819
v 0.00522866 -0.02804787 0.00853898
v 0.00419550 -0.02665149 0.01135332
v 0.00594406 -0.02585522 0.00945407
v 0.00382406 -0.02630063 0.01486508
v 0.00417167 -0.02677707 0.01876327
v 0.00674675 -0.02466462 -0.02166940
v 0.00581115 -0.02322162 -0.02369409
v 0.00639029 -0.02507209 -0.01750303
v 0.00693477 -0.02522508 -0.01380864
v 0.00377858 -0.02249125 -0.01097136
v 0.00418748 -0.02294184 -0.00801647
v 0.00352630 -0.02226244 0.00010109
v 0.00415511 -0.02245606 0.00306085
v 0.00436596 -0.02331534 0.00772394
v 0.00680015 -0.02451267 0.01161301
v 0.00461072 -0.02264580 0.01144862
v 0.00602068 -0.02470906 0.01595958
v 0.00607734 -0.02498395 0.01991961
v 0.00581545 -0.02299979 0.02104903
v 0.00606978 -0.02099020 -0.02196417
v 0.00601498 -0.02052002 -0.01841030
v 0.00604494 -0.02061646 -0.01449340
v 0.00622701 -0.02121784 -0.01020910
v 0.00654295 -0.02133620 -0.00630196
v 0.00564134 -0.01930083 -0.00481376
v 0.00428166 -0.01872313 0.00060781
v 0.00604951 -0.01940263 0.00249597
v 0.00671598 -0.02089006 0.00490655
v 0.00626977 -0.02116799 0.00879166
v 0.00564303 -0.02093478 0.01266030
v 0.00644041 -0.02048963 0.01622878
v 0.00607513 -0.02098913 0.01925660
v 0.00566475 -0.01541629 -0.00475939
v 0.00429970 -0.01417332 0.00032749
v 0.00657874 -0.01614194 0.00184291
v 0.00570448 -0.01147649 -0.00489695
v 0.00377749 -0.01099022 0.00068007
v 0.00620126 -0.01175327 0.00201030
v 0.00626990 -0.00844355 -0.00448586
v 0.00616407 -0.00765433 0.00250608
v 0.00518880 -0.00594224 -0.00330601
v 0.00644178 -0.00409491 -0.00163533
v 0.00612229 -0.00391566 0.00247113
v 0.00613952 -0.00018414 -0.00124331
v 0.00611277 -0.00019628 0.00243710
v 0.00610530 0.00356693 -0.00130921
v 0.00611449 0.00356047 0.00243709
v 0.00611454 0.00731985 -0.00132300
v 0.00611474 0.00732007 0.00243775
v 0.00611483 0.01107873 -0.00132114
v 0.00611467 0.01107879 0.00243770
v 0.00611458 0.01483752 -0.00132097
v 0.00611461 0.01483751 0.00243770
v 0.00611448 0.01859624 -0.00132109
v 0.00611468 0.01859626 0.00243779
v 0.00611592 0.02235438 -0.00132071
v 0.00611550 0.02235428 0.00243741
v 0.00612319 0.02610841 -0.00131609
v 0.00611530 0.02610865 0.00243289
v 0.00610558 0.02986157 -0.00132982
v 0.00612071 0.02985557 0.00244618
v 0.00596486 0.03373639 -0.00143192
v 0.00615227 0.03368361 0.00254278
v 0.00631937 0.03776744 -0.00107064
v 0.00598117 0.03789360 0.00219380
v 0.00628256 0.03950201 0.00057850
v 0.00394876 0.04115057 0.00084249
v 0.00745141 -0.02620882 -0.01094791
v 0.00828733 -0.02654856 -0.00804964
v 0.00948728 -0.02686963 -0.00527810
v 0.00964454 -0.02787785 -0.00286279
v 0.00895796 -0.02796037 0.00090447
v 0.00866572 -0.02685713 0.00418805
v 0.01052245 -0.02633540 0.00222409
v 0.00786547 -0.02662903 0.00711082
v 0.01090523 -0.02428948 -0.02210223
v 0.00999960 -0.02263219 -0.02356046
v 0.00986042 -0.02472793 -0.01855027
v 0.00991111 -0.02461767 -0.01459312
v 0.00997695 -0.02495973 -0.01039521
v 0.01093038 -0.02534702 -0.00629031
v 0.01075252 -0.02528384 0.00485275
v 0.00974392 -0.02510019 0.00897194
v 0.01061411 -0.02480373 0.01233236
v 0.01014004 -0.02478190 0.01578782
v 0.00928880 -0.02426007 0.01940976
v 0.01022140 -0.02263962 0.02092230
v 0.01009909 -0.02099667 -0.02192955
v 0.01010781 -0.02052499 -0.01829504
v 0.01004662 -0.02059494 -0.01435365
v 0.01009833 -0.02068337 -0.01049748
v 0.01012574 -0.02086809 -0.00661721
v 0.00937068 -0.02038156 -0.00373700
v 0.00824858 -0.01809316 -0.00297826
v 0.01076947 -0.01913595 -0.00171180
v 0.00892466 -0.01858595 0.00276122
v 0.01073783 -0.02044516 0.00467397
v 0.00987513 -0.02072090 0.00803814
v 0.00989732 -0.02059434 0.01186994
v 0.00999377 -0.02055556 0.01579388
v 0.01012424 -0.02106277 0.01936464
v 0.00795549 -0.01442956 -0.00317302
v 0.01028876 -0.01622525 -0.00146281
v 0.00991452 -0.01526347 0.00237544
v 0.00804865 -0.01054592 -0.00328189
v 0.01024088 -0.01234044 -0.00164366
v 0.00993469 -0.01141917 0.00247465
v 0.00761474 -0.00737175 -0.00298958
v 0.00991308 -0.00802239 -0.00163339
v 0.00987635 -0.00767017 0.00247191
v 0.00989462 -0.00391726 -0.00123794
v 0.00986742 -0.00394903 0.00243687
v 0.00985968 -0.00017516 -0.00128648
v 0.00987136 -0.00019686 0.00243610
v 0.00987163 0.00356199 -0.00132245
v 0.00987323 0.00356169 0.00243772
v 0.00987384 0.00731981 -0.00132180
v 0.00987344 0.00732013 0.00243777
v 0.00987343 0.01107888 -0.00132103
v 0.00987338 0.01107871 0.00243776
v 0.00987335 0.01483751 -0.00132108
v 0.00987334 0.01483735 0.00243778
v 0.00987314 0.01859631 -0.00132125
v 0.00987340 0.01859608 0.00243795
v 0.00987465 0.02235467 -0.00132031
v 0.00987343 0.02235482 0.00243702
v 0.00988080 0.02610565 -0.00131540
v 0.00987272 0.02610917 0.00243222
v 0.00982381 0.02987348 -0.00135481
v 0.00988262 0.02986266 0.00247100
v 0.00969964 0.03382188 -0.00146050
v 0.00991432 0.03372399 0.00257806
v 0.01057908 0.03740309 -0.00102120
v 0.00991092 0.03727528 0.00213336
v 0.00978748 0.03889224 0.00054363
v 0.01145828 -0.02635998 -0.00343013
v 0.01174571 -0.02662931 -0.00053842
v 0.01408065 -0.02395848 -0.02159571
v 0.01318590 -0.02300641 -0.02338196
v 0.01355588 -0.02436411 -0.01846837
v 0.01354209 -0.02427621 -0.01453223
v 0.01356077 -0.02419299 -0.01070225
v 0.01354010 -0.02423830 -0.00690837
v 0.01409592 -0.02480587 -0.00272514
v 0.01316838 -0.02523225 0.00113410
v 0.01434116 -0.02430918 0.00423993
v 0.01349765 -0.02421273 0.00803750
v 0.01358816 -0.02425344 0.01187672
v 0.01373733 -0.02433115 0.01582807
v 0.01309807 -0.02405389 0.01942950
v 0.01344458 -0.02244499 0.02085724
v 0.01324030 -0.02147149 -0.02243902
v 0.01372091 -0.02109313 -0.01923166
v 0.01370134 -0.02116716 -0.01514326
v 0.01370336 -0.02119747 -0.01126107
v 0.01369037 -0.02126349 -0.00746757
v 0.01319664 -0.02095134 -0.00357176
v 0.01400204 -0.01931234 -0.00140788
v 0.01333577 -0.01917150 0.00275074
v 0.01409218 -0.02137148 0.00429008
v 0.01336929 -0.02134749 0.00724585
v 0.01350851 -0.02117282 0.01112619
v 0.01369009 -0.02111377 0.01504900
v 0.01375274 -0.02140278 0.01880046
v 0.01363695 -0.01525721 -0.00112865
v 0.01374526 -0.01538567 0.00244202
v 0.01363662 -0.01143201 -0.00121871
v 0.01370348 -0.01153691 0.00245784
v 0.01362281 -0.00766178 -0.00124435
v 0.01364227 -0.00772472 0.00243609
v 0.01361693 -0.00392747 -0.00128213
v 0.01362735 -0.00394977 0.00243155
v 0.01362426 -0.00019357 -0.00131817
v 0.01362759 -0.00018962 0.00243439
v 0.01362972 0.00356280 -0.00132064
v 0.01362997 0.00356655 0.00243601
v 0.01363086 0.00732174 -0.00132023
v 0.01363111 0.00732297 0.00243695
v 0.01363135 0.01107976 -0.00132083
v 0.01363145 0.01107994 0.00243755
v 0.01363185 0.01483778 -0.00132112
v 0.01363195 0.01483763 0.00243782
v 0.01363218 0.01859630 -0.00132091
v 0.01363222 0.01859652 0.00243760
v 0.01363596 0.02235256 -0.00131610
v 0.01363033 0.02235697 0.00243279
v 0.01363161 0.02610218 -0.00131546
v 0.01362587 0.02610955 0.00243203
v 0.01351557 0.02992228 -0.00141292
v 0.01365199 0.02987110 0.00252977
v 0.01347095 0.03392706 -0.00151503
v 0.01372759 0.03378135 0.00263942
v 0.01423699 0.03701981 -0.00076624
v 0.01345084 0.03738334 0.00190706
v 0.01276265 0.03877546 0.00026944
v 0.01500233 -0.02244390 -0.02152921
v 0.01521805 -0.02277006 -0.01827561
v 0.01520445 -0.02279950 -0.01427464
v 0.01525387 -0.02277046 -0.01044264
v 0.01513380 -0.02279561 -0.00671418
v 0.01524374 -0.02266641 -0.00346539
v 0.01740793 -0.02231734 -0.00131876
v 0.01658675 -0.02419854 0.00084457
v 0.01558556 -0.02296996 0.00453317
v 0.01770444 -0.02204630 0.00223664
v 0.01501332 -0.02276321 0.00816107
v 0.01515475 -0.02268358 0.01204689
v 0.01529818 -0.02273868 0.01597458
v 0.01515693 -0.02305079 0.01914644
v 0.01711377 -0.01862713 -0.00123971
v 0.01708096 -0.01883698 0.00243419
v 0.01758205 -0.01532137 -0.00132187
v 0.01756100 -0.01552644 0.00250033
v 0.01753734 -0.01152082 -0.00135003
v 0.01748671 -0.01163786 0.00250153
v 0.01746392 -0.00775957 -0.00132564
v 0.01744737 -0.00778747 0.00245262
v 0.01739854 -0.00396779 -0.00132034
v 0.01740091 -0.00396539 0.00243520
v 0.01737960 -0.00019563 -0.00131939
v 0.01738312 -0.00019166 0.00243462
v 0.01738237 0.00356176 -0.00131764
v 0.01738454 0.00356695 0.00243444
v 0.01738599 0.00732033 -0.00131703
v 0.01738763 0.00732680 0.00243384
v 0.01738613 0.01108022 -0.00131770
v 0.01738707 0.01108594 0.00243438
v 0.01738735 0.01483781 -0.00131760
v 0.01738707 0.01484394 0.00243429
v 0.01738881 0.01859401 -0.00131459
v 0.01738507 0.01860338 0.00243129
v 0.01738858 0.02234901 -0.00131446
v 0.01738049 0.02235549 0.00243104
v 0.01735186 0.02612816 -0.00137323
v 0.01740120 0.02606885 0.00249022
v 0.01729238 0.03004166 -0.00150474
v 0.01751797 0.02987216 0.00262183
v 0.01781455 0.03402264 -0.00112735
v 0.01742130 0.03410507 0.00225134
v 0.01778734 0.03573689 0.00056446
v 0.01530096 0.03736563 0.00089015
v 0.01945376 -0.02275971 0.00020263
v 0.02110588 -0.02119796 0.00077275
v 0.02093616 -0.01924741 -0.00090524
v 0.02134700 -0.01882340 0.00199655
v 0.02097877 -0.01493874 -0.00143572
v 0.02086181 -0.01506888 0.00255476
v 0.02143935 -0.01160916 -0.00143588
v 0.02133880 -0.01173249 0.00255095
v 0.02133654 -0.00777570 -0.00140654
v 0.02127947 -0.00788331 0.00252205
v 0.02123103 -0.00398632 -0.00137690
v 0.02121213 -0.00407681 0.00249343
v 0.02117012 -0.00022880 -0.00135590
v 0.02115852 -0.00028836 0.00247184
v 0.02116950 0.00352326 -0.00133124
v 0.02116378 0.00350813 0.00244748
v 0.02115716 0.00730514 -0.00131828
v 0.02115731 0.00731043 0.00243493
v 0.02114037 0.01107956 -0.00131623
v 0.02114061 0.01108613 0.00243278
v 0.02113798 0.01483670 -0.00131606
v 0.02113566 0.01484251 0.00243292
v 0.02113301 0.01859880 -0.00133096
v 0.02113886 0.01858348 0.00244798
v 0.02112484 0.02239547 -0.00140634
v 0.02118967 0.02228462 0.00252372
v 0.02115452 0.02623198 -0.00148805
v 0.02131632 0.02602615 0.00261021
v 0.02145846 0.02994319 -0.00111873
v 0.02146955 0.03036748 0.00223037
v 0.02140620 0.03319481 -0.00062857
v 0.02068517 0.03393980 0.00174060
v 0.02062371 0.03485110 0.00023705
v 0.02324932 -0.01900197 0.00028279
v 0.02491554 -0.01732515 0.00081046
v 0.02475506 -0.01540276 -0.00093710
v 0.02521119 -0.01502390 0.00205693
v 0.02479433 -0.01111421 -0.00147042
v 0.02470718 -0.01130325 0.00259563
v 0.02525698 -0.00783048 -0.00146165
v 0.02516265 -0.00801758 0.00259177
v 0.02516589 -0.00403365 -0.00144012
v 0.02508038 -0.00421413 0.00255811
v 0.02506865 -0.00026257 -0.00142014
v 0.02501616 -0.00042333 0.00253029
v 0.02503463 0.00350464 -0.00139745
v 0.02499747 0.00338758 0.00251331
v 0.02500219 0.00729839 -0.00137724
v 0.02498857 0.00719659 0.00249517
v 0.02494965 0.01108395 -0.00137471
v 0.02494965 0.01097493 0.00249159
v 0.02493482 0.01485896 -0.00140343
v 0.02496256 0.01471692 0.00251972
v 0.02495275 0.01865774 -0.00145720
v 0.02505120 0.01846788 0.00257379
v 0.02500965 0.02249830 -0.00149970
v 0.02515425 0.02227067 0.00261663
v 0.02533725 0.02592036 -0.00089144
v 0.02485401 0.02633612 0.00200372
v 0.02464268 0.02787257 0.00025448
v 0.02311872 0.03031033 0.00055385
v 0.02234048 0.03312872 0.00087105
v 0.02715968 -0.01515374 0.00029322
v 0.02885467 -0.01351350 0.00084102
v 0.02816119 -0.01194742 -0.00086239
v 0.02845704 -0.01131566 0.00199275
v 0.02878147 -0.00792321 -0.00099541
v 0.02864677 -0.00721830 0.00211328
v 0.02911020 -0.00377663 -0.00105312
v 0.02924717 -0.00338623 0.00217888
v 0.02844995 0.00023277 -0.00147097
v 0.02839737 -0.00001529 0.00258034
v 0.02899715 0.00347269 -0.00146471
v 0.02895648 0.00323452 0.00258921
v 0.02896419 0.00729510 -0.00145948
v 0.02893672 0.00704629 0.00258459
v 0.02889439 0.01110400 -0.00148476
v 0.02893101 0.01083082 0.00259394
v 0.02890463 0.01492071 -0.00150412
v 0.02897810 0.01464421 0.00261178
v 0.02917401 0.01853898 -0.00111312
v 0.02907247 0.01888128 0.00222203
v 0.02857967 0.02228413 -0.00077613
v 0.02822273 0.02303632 0.00189987
v 0.02857691 0.02411219 0.00027648
v 0.02691276 0.02570687 0.00084669
v 0.03018328 -0.01104787 0.00028836
v 0.03025878 -0.00804625 0.00054839
v 0.03087535 -0.00454639 0.00057874
v 0.03252274 -0.00221060 0.00084513
v 0.03184854 -0.00061914 -0.00086106
v 0.03223282 -0.00002829 0.00197613
v 0.03258276 0.00339571 -0.00100479
v 0.03253545 0.00406368 0.00212774
v 0.03252072 0.00719693 -0.00099406
v 0.03251231 0.00792746 0.00210814
v 0.03247973 0.01106185 -0.00103442
v 0.03251569 0.01174130 0.00213930
v 0.03251028 0.01464052 -0.00077807
v 0.03207622 0.01540013 0.00187731
v 0.03243775 0.01647156 0.00024784
v 0.03080215 0.01885393 0.00055196
v 0.02995510 0.02162096 0.00084608
v 0.03394649 0.00026667 0.00026258
v 0.03412291 0.00325326 0.00055133
v 0.03406720 0.00707880 0.00055207
v 0.03406751 0.01093154 0.00055940
v 0.03386681 0.01394824 0.00085270
f 3 2 1
f 4 1 2
f 3 1 5
f 3 5 6
f 1 4 7
f 1 7 5
f 6 5 8
f 6 8 9
f 5 7 10
f 5 10 8
f 9 8 11
f 9 11 12
f 8 10 13
f 8 13 11
f 12 11 14
f 12 14 15
f 11 13 16
f 11 16 14
f 17 15 14
f 17 14 16
f 20 19 18
f 21 18 19
f 20 18 22
f 20 22 23
f 18 21 24
f 18 24 22
f 23 22 25
f 23 25 26
f 22 24 27
f 22 27 25
f 26 25 2
f 3 26 2
f 28 26 3
f 4 2 25
f 27 4 25
f 29 4 27
f 6 28 3
f 6 30 28
f 29 7 4
f 31 7 29
f 9 30 6
f 9 32 30
f 31 10 7
f 33 10 31
f 12 32 9
f 12 34 32
f 33 13 10
f 35 13 33
f 15 34 12
f 15 36 34
f 35 16 13
f 37 16 35
f 15 17 38
f 39 15 38
f 36 15 39
f 40 38 17
f 16 40 17
f 37 40 16
f 39 38 41
f 39 41 42
f 38 40 43
f 38 43 41
f 44 42 41
f 44 41 43
f 47 46 45
f 48 45 46
f 47 45 19
f 20 47 19
f 49 47 20
f 21 19 45
f 48 21 45
f 50 21 48
f 23 49 20
f 23 51 49
f 50 24 21
f 52 24 50
f 26 51 23
f 26 53 51
f 52 27 24
f 54 27 52
f 28 53 26
f 28 55 53
f 54 29 27
f 56 29 54
f 30 55 28
f 30 57 55
f 56 31 29
f 58 31 56
f 32 57 30
f 32 59 57
f 58 33 31
f 60 33 58
f 34 59 32
f 34 61 59
f 60 35 33
f 62 35 60
f 36 61 34
f 36 63 61
f 62 37 35
f 64 37 62
f 39 63 36
f 39 65 63
f 64 40 37
f 66 40 64
f 42 65 39
f 42 67 65
f 66 43 40
f 68 43 66
f 42 44 69
f 70 42 69
f 67 42 70
f 71 69 44
f 43 71 44
f 68 71 43
f 72 70 69
f 72 69 71
f 75 74 73
f 76 73 74
f 75 73 46
f 47 75 46
f 77 75 47
f 48 46 73
f 76 48 73
f 78 48 76
f 49 77 47
f 49 79 77
f 78 50 48
f 80 50 78
f 51 79 49
f 51 81 79
f 80 52 50
f 82 52 80
f 53 81 51
f 53 83 81
f 82 54 52
f 84 54 82
f 55 83 53
f 55 85 83
f 84 56 54
f 86 56 84
f 57 85 55
f 57 87 85
f 86 58 56
f 88 58 86
f 59 87 57
f 59 89 87
f 88 60 58
f 90 60 88
f 61 89 59
f 61 91 89
f 90 62 60
f 92 62 90
f 63 91 61
f 63 93 91
f 92 64 62
f 94 64 92
f 65 93 63
f 65 95 93
f 94 66 64
f 96 66 94
f 67 95 65
f 67 97 95
f 96 68 66
f 98 68 96
f 70 97 67
f 70 99 97
f 98 71 68
f 100 71 98
f 70 72 101
f 102 70 101
f 99 70 102
f 103 101 72
f 71 103 72
f 100 103 71
f 102 101 104
f 102 104 105
f 101 103 106
f 101 106 104
f 107 105 104
f 107 104 106
f 110 109 108
f 111 108 109
f 110 108 74
f 75 110 74
f 112 110 75
f 76 74 108
f 111 76 108
f 113 76 111
f 77 112 75
f 77 114 112
f 113 78 76
f 115 78 113
f 79 114 77
f 79 116 114
f 115 80 78
f 117 80 115
f 81 116 79
f 81 118 116
f 117 82 80
f 119 82 117
f 83 118 81
f 83 120 118
f 119 84 82
f 121 84 119
f 85 120 83
f 85 122 120
f 121 86 84
f 123 86 121
f 87 122 85
f 87 124 122
f 123 88 86
f 125 88 123
f 89 124 87
f 89 126 124
f 125 90 88
f 127 90 125
f 91 126 89
f 91 128 126
f 127 92 90
f 129 92 127
f 93 128 91
f 93 130 128
f 129 94 92
f 131 94 129
f 95 130 93
f 95 132 130
f 131 96 94
f 133 96 131
f 97 132 95
f 97 134 132
f 133 98 96
f 135 98 133
f 99 134 97
f 99 136 134
f 135 100 98
f 137 100 135
f 102 136 99
f 102 138 136
f 137 103 100
f 139 103 137
f 105 138 102
f 105 140 138
f 139 106 103
f 141 106 139
f 105 107 142
f 143 105 142
f 140 105 143
f 144 142 107
f 106 144 107
f 141 144 106
f 145 143 142
f 145 142 144
f 147 146 109
f 147 109 110
f 111 109 146
f 111 146 148
f 112 147 110
f 112 149 147
f 148 113 111
f 150 113 148
f 114 149 112
f 114 151 149
f 150 115 113
f 152 115 150
f 116 151 114
f 116 153 151
f 152 117 115
f 154 117 152
f 118 153 116
f 118 155 153
f 154 119 117
f 156 119 154
f 120 155 118
f 120 157 155
f 156 121 119
f 158 121 156
f 122 157 120
f 122 159 157
f 158 123 121
f 160 123 158
f 124 159 122
f 124 161 159
f 160 125 123
f 162 125 160
f 126 161 124
f 126 163 161
f 162 127 125
f 164 127 162
f 128 163 126
f 128 165 163
f 164 129 127
f 166 129 164
f 130 165 128
f 130 167 165
f 166 131 129
f 168 131 166
f 132 167 130
f 132 169 167
f 168 133 131
f 170 133 168
f 134 169 132
f 134 171 169
f 170 135 133
f 172 135 170
f 136 171 134
f 136 173 171
f 172 137 135
f 174 137 172
f 138 173 136
f 138 175 173
f 174 139 137
f 176 139 174
f 140 175 138
f 140 177 175
f 176 141 139
f 178 141 176
f 143 177 140
f 143 179 177
f 178 144 141
f 180 144 178
f 181 179 143
f 181 143 145
f 145 144 180
f 145 180 181
f 184 183 182
f 185 182 183
f 184 182 146
f 147 184 146
f 186 184 147
f 148 146 182
f 185 148 182
f 187 148 185
f 149 186 147
f 149 188 186
f 187 150 148
f 189 150 187
f 151 188 149
f 151 190 188
f 189 152 150
f 191 152 189
f 153 190 151
f 153 192 190
f 191 154 152
f 193 154 191
f 155 192 153
f 155 194 192
f 193 156 154
f 195 156 193
f 157 194 155
f 157 196 194
f 195 158 156
f 197 158 195
f 159 196 157
f 159 198 196
f 197 160 158
f 199 160 197
f 161 198 159
f 161 200 198
f 199 162 160
f 201 162 199
f 163 200 161
f 163 202 200
f 201 164 162
f 203 164 201
f 165 202 163
f 165 204 202
f 203 166 164
f 205 166 203
f 167 204 165
f 167 206 204
f 205 168 166
f 207 168 205
f 169 206 167
f 169 208 206
f 207 170 168
f 209 170 207
f 171 208 169
f 171 210 208
f 209 172 170
f 211 172 209
f 173 210 171
f 173 212 210
f 211 174 172
f 213 174 211
f 175 212 173
f 175 214 212
f 213 176 174
f 215 176 213
f 177 214 175
f 177 216 214
f 215 178 176
f 217 178 215
f 179 216 177
f 179 218 216
f 217 180 178
f 219 180 217
f 220 218 179
f 220 179 181
f 181 180 219
f 181 219 220
f 222 221 183
f 222 183 184
f 185 183 221
f 185 221 223
f 186 222 184
f 186 224 222
f 223 187 185
f 225 187 223
f 188 224 186
f 188 226 224
f 225 189 187
f 227 189 225
f 190 226 188
f 190 228 226
f 227 191 189
f 229 191 227
f 192 228 190
f 192 230 228
f 229 193 191
f 231 193 229
f 194 230 192
f 194 232 230
f 231 195 193
f 233 195 231
f 196 232 194
f 196 234 232
f 233 197 195
f 235 197 233
f 198 234 196
f 198 236 234
f 235 199 197
f 237 199 235
f 200 236 198
f 200 238 236
f 237 201 199
f 239 201 237
f 202 238 200
f 202 240 238
f 239 203 201
f 241 203 239
f 204 240 202
f 204 242 240
f 241 205 203
f 243 205 241
f 206 242 204
f 206 244 242
f 243 207 205
f 245 207 243
f 208 244 206
f 208 246 244
f 245 209 207
f 247 209 245
f 210 246 208
f 210 248 246
f 247 211 209
f 249 211 247
f 212 248 210
f 212 250 248
f 249 213 211
f 251 213 249
f 214 250 212
f 214 252 250
f 251 215 213
f 253 215 251
f 216 252 214
f 216 254 252
f 253 217 215
f 255 217 253
f 218 254 216
f 218 256 254
f 255 219 217
f 257 219 255
f 258 256 218
f 258 218 220
f 220 219 257
f 220 257 258
f 261 260 259
f 221 222 259
f 260 221 259
f 262 221 260
f 223 221 262
f 223 262 263
f 264 261 259
f 259 222 264
f 222 265 264
f 222 224 265
f 263 225 223
f 266 225 263
f 226 265 224
f 226 267 265
f 266 227 225
f 268 227 266
f 228 267 226
f 228 269 267
f 268 229 227
f 270 229 268
f 230 269 228
f 230 271 269
f 270 231 229
f 272 231 270
f 232 271 230
f 232 273 271
f 272 233 231
f 274 233 272
f 234 273 232
f 234 275 273
f 274 235 233
f 276 235 274
f 236 275 234
f 236 277 275
f 276 237 235
f 278 237 276
f 238 277 236
f 238 279 277
f 278 239 237
f 280 239 278
f 240 279 238
f 240 281 279
f 280 241 239
f 282 241 280
f 242 281 240
f 242 283 281
f 282 243 241
f 284 243 282
f 244 283 242
f 244 285 283
f 284 245 243
f 286 245 284
f 246 285 244
f 246 287 285
f 286 247 245
f 288 247 286
f 248 287 246
f 248 289 287
f 288 249 247
f 290 249 288
f 250 289 248
f 250 291 289
f 290 251 249
f 292 251 290
f 252 291 250
f 252 293 291
f 292 253 251
f 294 253 292
f 254 293 252
f 254 295 293
f 294 255 253
f 296 255 294
f 256 295 254
f 256 297 295
f 296 257 255
f 298 257 296
f 256 258 299
f 300 256 299
f 297 256 300
f 301 299 258
f 257 301 258
f 298 301 257
f 302 300 299
f 302 299 301
f 305 304 303
f 307 306 303
f 307 303 304
f 309 308 306
f 309 306 307
f 311 310 308
f 311 308 309
f 313 312 310
f 313 310 311
f 260 261 312
f 313 260 312
f 314 260 313
f 260 315 262
f 314 315 260
f 317 316 263
f 262 317 263
f 315 317 262
f 319 318 316
f 319 316 317
f 321 320 318
f 321 318 319
f 323 322 320
f 323 320 321
f 325 324 322
f 325 322 323
f 326 324 325
f 327 305 303
f 327 303 306
f 327 306 328
f 328 306 308
f 328 308 329
f 329 308 310
f 329 310 330
f 330 310 312
f 330 312 331
f 333 331 332
f 332 331 264
f 331 312 264
f 312 261 264
f 265 332 264
f 335 334 316
f 334 263 316
f 334 266 263
f 335 316 318
f 335 318 336
f 336 318 320
f 336 320 337
f 337 320 322
f 337 322 338
f 338 322 324
f 338 324 339
f 339 324 326
f 333 332 340
f 333 340 341
f 267 340 265
f 265 340 332
f 334 268 266
f 342 268 334
f 341 340 343
f 341 343 344
f 269 343 267
f 267 343 340
f 342 270 268
f 345 270 342
f 344 343 346
f 344 346 347
f 271 346 269
f 269 346 343
f 345 272 270
f 348 272 345
f 347 346 349
f 347 349 350
f 273 349 271
f 271 349 346
f 348 274 272
f 351 274 348
f 352 350 349
f 349 273 352
f 273 353 352
f 273 275 353
f 351 276 274
f 354 276 351
f 277 353 275
f 277 355 353
f 354 278 276
f 356 278 354
f 279 355 277
f 279 357 355
f 356 280 278
f 358 280 356
f 281 357 279
f 281 359 357
f 358 282 280
f 360 282 358
f 283 359 281
f 283 361 359
f 360 284 282
f 362 284 360
f 285 361 283
f 285 363 361
f 362 286 284
f 364 286 362
f 287 363 285
f 287 365 363
f 364 288 286
f 366 288 364
f 289 365 287
f 289 367 365
f 366 290 288
f 368 290 366
f 291 367 289
f 291 369 367
f 368 292 290
f 370 292 368
f 293 369 291
f 293 371 369
f 370 294 292
f 372 294 370
f 295 371 293
f 295 373 371
f 372 296 294
f 374 296 372
f 297 373 295
f 297 375 373
f 374 298 296
f 376 298 374
f 300 375 297
f 300 377 375
f 376 301 298
f 378 301 376
f 379 377 300
f 379 300 302
f 302 301 378
f 302 378 379
f 381 380 304
f 381 304 305
f 304 382 307
f 380 382 304
f 307 383 309
f 382 383 307
f 309 384 311
f 383 384 309
f 311 385 313
f 384 385 311
f 313 386 314
f 385 386 313
f 314 387 315
f 386 387 314
f 315 388 317
f 387 388 315
f 317 389 319
f 388 389 317
f 319 390 321
f 389 390 319
f 321 391 323
f 390 391 321
f 323 392 325
f 391 392 323
f 326 325 392
f 326 392 393
f 305 327 394
f 395 305 394
f 381 305 395
f 328 396 327
f 327 396 394
f 329 397 328
f 328 397 396
f 397 329 398
f 329 399 398
f 329 330 399
f 400 330 331
f 400 399 330
f 331 333 400
f 400 333 401
f 404 403 402
f 334 335 402
f 335 404 402
f 335 405 404
f 406 335 336
f 406 405 335
f 407 336 337
f 407 406 336
f 409 407 408
f 407 338 408
f 407 337 338
f 339 410 338
f 338 410 408
f 411 410 339
f 326 411 339
f 393 411 326
f 412 395 394
f 412 394 396
f 412 396 413
f 413 396 397
f 413 397 414
f 414 397 398
f 341 401 333
f 341 415 401
f 402 403 416
f 416 403 417
f 416 342 334
f 416 334 402
f 418 409 408
f 418 408 410
f 418 410 419
f 419 410 411
f 344 415 341
f 344 420 415
f 416 417 421
f 421 417 422
f 421 345 342
f 421 342 416
f 347 420 344
f 347 423 420
f 421 422 424
f 424 422 425
f 424 348 345
f 424 345 421
f 350 423 347
f 350 426 423
f 425 427 424
f 348 424 427
f 428 348 427
f 351 348 428
f 429 426 350
f 429 350 352
f 352 353 429
f 429 353 430
f 428 354 351
f 431 354 428
f 355 430 353
f 355 432 430
f 431 356 354
f 433 356 431
f 357 432 355
f 357 434 432
f 433 358 356
f 435 358 433
f 359 434 357
f 359 436 434
f 435 360 358
f 437 360 435
f 361 436 359
f 361 438 436
f 437 362 360
f 439 362 437
f 363 438 361
f 363 440 438
f 439 364 362
f 441 364 439
f 365 440 363
f 365 442 440
f 441 366 364
f 443 366 441
f 367 442 365
f 367 444 442
f 443 368 366
f 445 368 443
f 369 444 367
f 369 446 444
f 445 370 368
f 447 370 445
f 371 446 369
f 371 448 446
f 447 372 370
f 449 372 447
f 373 448 371
f 373 450 448
f 449 374 372
f 451 374 449
f 375 450 373
f 375 452 450
f 451 376 374
f 453 376 451
f 377 452 375
f 377 454 452
f 453 378 376
f 455 378 453
f 456 454 377
f 456 377 379
f 379 378 455
f 379 455 456
f 381 457 380
f 458 382 380
f 458 380 457
f 459 383 382
f 459 382 458
f 383 459 460
f 461 383 460
f 384 383 461
f 384 462 385
f 461 462 384
f 385 463 386
f 462 463 385
f 386 464 387
f 463 464 386
f 387 465 388
f 464 465 387
f 388 466 389
f 465 466 388
f 466 468 467
f 390 466 467
f 389 466 390
f 469 391 390
f 469 390 467
f 470 392 391
f 470 391 469
f 470 393 392
f 472 471 457
f 381 472 457
f 395 472 381
f 457 471 458
f 458 471 473
f 458 473 459
f 459 473 474
f 475 398 399
f 474 460 459
f 400 476 399
f 399 476 475
f 401 476 400
f 477 403 404
f 405 478 404
f 404 478 477
f 406 479 405
f 405 479 478
f 407 467 406
f 468 406 467
f 406 468 479
f 480 479 468
f 479 480 481
f 482 481 480
f 481 482 409
f 469 409 482
f 409 469 407
f 467 407 469
f 469 482 470
f 470 482 483
f 393 470 483
f 484 393 483
f 411 393 484
f 485 472 395
f 485 395 412
f 486 412 413
f 486 485 412
f 487 413 414
f 487 486 413
f 414 398 475
f 488 414 475
f 487 414 488
f 488 475 476
f 488 476 489
f 476 401 489
f 401 490 489
f 401 415 490
f 491 417 477
f 477 417 403
f 478 493 492
f 491 478 492
f 477 478 491
f 493 478 479
f 493 479 494
f 494 479 481
f 494 481 495
f 495 481 409
f 418 495 409
f 496 495 418
f 497 418 419
f 497 496 418
f 419 411 484
f 419 484 497
f 420 490 415
f 420 498 490
f 499 422 491
f 491 422 417
f 491 492 500
f 491 500 499
f 423 498 420
f 423 501 498
f 502 425 499
f 499 425 422
f 499 500 503
f 499 503 502
f 426 501 423
f 426 504 501
f 502 427 425
f 428 427 502
f 503 428 502
f 505 428 503
f 506 504 426
f 506 426 429
f 429 430 506
f 506 430 507
f 505 431 428
f 508 431 505
f 432 507 430
f 432 509 507
f 508 433 431
f 510 433 508
f 434 509 432
f 434 511 509
f 510 435 433
f 512 435 510
f 436 511 434
f 436 513 511
f 512 437 435
f 514 437 512
f 438 513 436
f 438 515 513
f 514 439 437
f 516 439 514
f 440 515 438
f 440 517 515
f 516 441 439
f 518 441 516
f 442 517 440
f 442 519 517
f 518 443 441
f 520 443 518
f 444 519 442
f 444 521 519
f 520 445 443
f 522 445 520
f 446 521 444
f 446 523 521
f 522 447 445
f 524 447 522
f 448 523 446
f 448 525 523
f 524 449 447
f 526 449 524
f 450 525 448
f 450 527 525
f 526 451 449
f 528 451 526
f 452 527 450
f 452 529 527
f 528 453 451
f 530 453 528
f 454 532 531
f 529 454 531
f 452 454 529
f 530 531 532
f 455 530 532
f 453 530 455
f 456 532 454
f 532 456 455
f 460 533 461
f 534 462 461
f 534 461 533
f 462 534 535
f 536 462 535
f 463 462 536
f 463 537 464
f 536 537 463
f 537 539 538
f 465 537 538
f 464 537 465
f 540 466 465
f 540 465 538
f 540 468 466
f 542 541 471
f 542 471 472
f 471 543 473
f 541 543 471
f 473 544 474
f 543 544 473
f 460 474 533
f 474 545 533
f 474 544 545
f 533 545 534
f 534 545 546
f 534 546 535
f 539 547 538
f 538 547 540
f 540 547 548
f 540 548 468
f 548 480 468
f 548 549 480
f 480 550 482
f 549 550 480
f 482 551 483
f 550 551 482
f 484 483 551
f 484 551 552
f 553 542 472
f 553 472 485
f 554 485 486
f 554 553 485
f 555 486 487
f 555 554 486
f 556 487 488
f 556 555 487
f 557 488 489
f 557 556 488
f 559 558 490
f 558 489 490
f 558 557 489
f 559 560 558
f 562 561 493
f 493 561 492
f 563 493 494
f 563 562 493
f 564 494 495
f 564 563 494
f 565 495 496
f 565 564 495
f 566 496 497
f 566 565 496
f 497 484 552
f 497 552 566
f 498 567 559
f 498 559 490
f 560 559 568
f 568 559 567
f 561 500 492
f 569 500 561
f 501 570 567
f 501 567 498
f 568 567 571
f 571 567 570
f 569 503 500
f 572 503 569
f 504 573 570
f 504 570 501
f 571 570 574
f 574 570 573
f 572 505 503
f 575 505 572
f 506 573 504
f 506 507 573
f 507 574 573
f 507 576 574
f 575 508 505
f 577 508 575
f 509 576 507
f 509 578 576
f 577 510 508
f 579 510 577
f 511 578 509
f 511 580 578
f 579 512 510
f 581 512 579
f 513 580 511
f 513 582 580
f 581 514 512
f 583 514 581
f 515 582 513
f 515 584 582
f 583 516 514
f 585 516 583
f 517 584 515
f 517 586 584
f 585 518 516
f 587 518 585
f 519 586 517
f 519 588 586
f 587 520 518
f 589 520 587
f 521 588 519
f 521 590 588
f 589 522 520
f 591 522 589
f 523 590 521
f 523 592 590
f 591 524 522
f 593 524 591
f 525 592 523
f 525 594 592
f 593 526 524
f 595 526 593
f 527 594 525
f 527 596 594
f 595 528 526
f 597 528 595
f 529 596 527
f 529 598 596
f 597 530 528
f 599 530 597
f 600 598 529
f 600 529 531
f 531 530 599
f 531 599 600
f 535 601 536
f 602 537 536
f 602 536 601
f 602 539 537
f 604 603 541
f 604 541 542
f 541 605 543
f 603 605 541
f 543 606 544
f 605 606 543
f 544 607 545
f 606 607 544
f 545 608 546
f 607 608 545
f 535 546 601
f 546 609 601
f 546 608 609
f 601 609 602
f 602 609 610
f 602 610 539
f 610 547 539
f 610 611 547
f 547 612 548
f 611 612 547
f 548 613 549
f 612 613 548
f 549 614 550
f 613 614 549
f 550 615 551
f 614 615 550
f 552 551 615
f 552 615 616
f 617 604 542
f 617 542 553
f 618 553 554
f 618 617 553
f 619 554 555
f 619 618 554
f 620 555 556
f 620 619 555
f 621 556 557
f 621 620 556
f 622 557 558
f 622 621 557
f 558 560 622
f 622 560 623
f 625 624 562
f 562 624 561
f 626 562 563
f 626 625 562
f 627 563 564
f 627 626 563
f 628 564 565
f 628 627 564
f 629 565 566
f 629 628 565
f 566 552 616
f 566 616 629
f 568 623 560
f 568 630 623
f 624 569 561
f 631 569 624
f 571 630 568
f 571 632 630
f 631 572 569
f 633 572 631
f 574 632 571
f 574 634 632
f 633 575 572
f 635 575 633
f 576 634 574
f 576 636 634
f 635 577 575
f 637 577 635
f 578 636 576
f 578 638 636
f 637 579 577
f 639 579 637
f 580 638 578
f 580 640 638
f 639 581 579
f 641 581 639
f 582 640 580
f 582 642 640
f 641 583 581
f 643 583 641
f 584 642 582
f 584 644 642
f 643 585 583
f 645 585 643
f 586 644 584
f 586 646 644
f 645 587 585
f 647 587 645
f 588 646 586
f 588 648 646
f 647 589 587
f 649 589 647
f 590 648 588
f 590 650 648
f 649 591 589
f 651 591 649
f 592 650 590
f 592 652 650
f 651 593 591
f 653 593 651
f 594 652 592
f 594 654 652
f 653 595 593
f 655 595 653
f 596 654 594
f 596 656 654
f 655 597 595
f 657 597 655
f 598 656 596
f 598 658 656
f 657 599 597
f 659 599 657
f 660 658 598
f 660 598 600
f 600 599 659
f 600 659 660
f 604 661 603
f 662 605 603
f 662 603 661
f 663 606 605
f 663 605 662
f 664 607 606
f 664 606 663
f 665 608 607
f 665 607 664
f 666 609 608
f 666 608 665
f 609 666 667
f 668 609 667
f 610 609 668
f 668 670 669
f 611 668 669
f 610 668 611
f 671 612 611
f 671 611 669
f 672 613 612
f 672 612 671
f 673 614 613
f 673 613 672
f 674 615 614
f 674 614 673
f 674 616 615
f 617 661 604
f 661 617 618
f 661 618 662
f 662 618 619
f 662 619 663
f 663 619 620
f 663 620 664
f 664 620 621
f 664 621 665
f 665 621 622
f 665 622 666
f 622 623 666
f 623 667 666
f 623 675 667
f 669 670 625
f 670 624 625
f 670 676 624
f 669 625 626
f 669 626 671
f 671 626 627
f 671 627 672
f 672 627 628
f 672 628 673
f 673 628 629
f 673 629 674
f 674 629 616
f 630 675 623
f 630 677 675
f 676 631 624
f 678 631 676
f 632 677 630
f 632 679 677
f 678 633 631
f 680 633 678
f 634 679 632
f 634 681 679
f 680 635 633
f 682 635 680
f 636 681 634
f 636 683 681
f 682 637 635
f 684 637 682
f 638 683 636
f 638 685 683
f 684 639 637
f 686 639 684
f 640 685 638
f 640 687 685
f 686 641 639
f 688 641 686
f 642 687 640
f 642 689 687
f 688 643 641
f 690 643 688
f 644 689 642
f 644 691 689
f 690 645 643
f 692 645 690
f 646 691 644
f 646 693 691
f 692 647 645
f 694 647 692
f 648 693 646
f 648 695 693
f 694 649 647
f 696 649 694
f 650 695 648
f 650 697 695
f 696 651 649
f 698 651 696
f 652 697 650
f 652 699 697
f 698 653 651
f 700 653 698
f 654 699 652
f 654 701 699
f 700 655 653
f 702 655 700
f 656 701 654
f 656 703 701
f 702 657 655
f 704 657 702
f 658 706 705
f 703 658 705
f 656 658 703
f 704 705 706
f 659 704 706
f 657 704 659
f 660 706 658
f 706 660 659
f 667 707 668
f 707 670 668
f 709 708 707
f 667 709 707
f 675 709 667
f 670 707 708
f 710 670 708
f 676 670 710
f 677 709 675
f 677 711 709
f 710 678 676
f 712 678 710
f 679 711 677
f 679 713 711
f 712 680 678
f 714 680 712
f 681 713 679
f 681 715 713
f 714 682 680
f 716 682 714
f 683 715 681
f 683 717 715
f 716 684 682
f 718 684 716
f 685 717 683
f 685 719 717
f 718 686 684
f 720 686 718
f 687 719 685
f 687 721 719
f 720 688 686
f 722 688 720
f 689 721 687
f 689 723 721
f 722 690 688
f 724 690 722
f 691 723 689
f 691 725 723
f 724 692 690
f 726 692 724
f 693 725 691
f 693 727 725
f 726 694 692
f 728 694 726
f 695 727 693
f 695 729 727
f 728 696 694
f 730 696 728
f 697 729 695
f 697 731 729
f 730 698 696
f 732 698 730
f 699 731 697
f 699 733 731
f 732 700 698
f 734 700 732
f 701 733 699
f 701 735 733
f 734 702 700
f 736 702 734
f 703 735 701
f 703 737 735
f 736 704 702
f 738 704 736
f 739 737 703
f 739 703 705
f 705 704 738
f 705 738 739
f 709 740 708
f 740 710 708
f 742 741 740
f 709 742 740
f 711 742 709
f 710 740 741
f 743 710 741
f 712 710 743
f 713 742 711
f 713 744 742
f 743 714 712
f 745 714 743
f 715 744 713
f 715 746 744
f 745 716 714
f 747 716 745
f 717 746 715
f 717 748 746
f 747 718 716
f 749 718 747
f 719 748 717
f 719 750 748
f 749 720 718
f 751 720 749
f 721 750 719
f 721 752 750
f 751 722 720
f 753 722 751
f 723 752 721
f 723 754 752
f 753 724 722
f 755 724 753
f 725 754 723
f 725 756 754
f 755 726 724
f 757 726 755
f 727 756 725
f 727 758 756
f 757 728 726
f 759 728 757
f 729 758 727
f 729 760 758
f 759 730 728
f 761 730 759
f 731 760 729
f 731 762 760
f 761 732 730
f 763 732 761
f 733 762 731
f 733 764 762
f 763 734 732
f 765 734 763
f 735 767 766
f 764 735 766
f 733 735 764
f 765 766 767
f 736 765 767
f 734 765 736
f 737 768 767
f 737 767 735
f 768 738 736
f 768 736 767
f 739 768 737
f 768 739 738
f 742 769 741
f 769 743 741
f 771 770 769
f 742 771 769
f 744 771 742
f 743 769 770
f 772 743 770
f 745 743 772
f 746 771 744
f 746 773 771
f 772 747 745
f 774 747 772
f 748 773 746
f 748 775 773
f 774 749 747
f 776 749 774
f 750 775 748
f 750 777 775
f 776 751 749
f 778 751 776
f 752 777 750
f 752 779 777
f 778 753 751
f 780 753 778
f 754 779 752
f 754 781 779
f 780 755 753
f 782 755 780
f 756 781 754
f 756 783 781
f 782 757 755
f 784 757 782
f 758 783 756
f 758 785 783
f 784 759 757
f 786 759 784
f 760 785 758
f 760 787 785
f 786 761 759
f 788 761 786
f 762 787 760
f 762 789 787
f 788 763 761
f 790 763 788
f 764 792 791
f 789 764 791
f 762 764 789
f 790 791 792
f 765 790 792
f 763 790 765
f 766 792 764
f 792 766 765
f 771 793 770
f 793 772 770
f 773 794 793
f 773 793 771
f 794 774 772
f 794 772 793
f 775 795 794
f 775 794 773
f 795 776 774
f 795 774 794
f 797 796 795
f 775 797 795
f 777 797 775
f 776 795 796
f 798 776 796
f 778 776 798
f 779 797 777
f 779 799 797
f 798 780 778
f 800 780 798
f 781 799 779
f 781 801 799
f 800 782 780
f 802 782 800
f 783 801 781
f 783 803 801
f 802 784 782
f 804 784 802
f 785 803 783
f 785 805 803
f 804 786 784
f 806 786 804
f 787 808 807
f 805 787 807
f 785 787 805
f 806 807 808
f 788 806 808
f 786 806 788
f 789 809 808
f 789 808 787
f 809 790 788
f 809 788 808
f 791 809 789
f 809 791 790
f 797 810 796
f 810 798 796
f 799 811 810
f 799 810 797
f 811 800 798
f 811 798 810
f 801 812 811
f 801 811 799
f 812 802 800
f 812 800 811
f 803 813 812
f 803 812 801
f 813 804 802
f 813 802 812
f 805 814 813
f 805 813 803
f 814 806 804
f 814 804 813
f 807 814 805
f 814 807 806

