# https://github.com/mikedh/trimesh
v -0.02717924 -0.03499513 0.03169441
v -0.02234564 -0.03983546 0.03264553
v -0.02494242 -0.03625490 0.02802384
v -0.02380307 -0.03753802 0.03644911
v -0.02734421 -0.02766668 0.00960404
v -0.02309041 -0.03195245 0.00787536
v -0.02438233 -0.02629928 0.00355806
v -0.02800134 -0.02769048 0.01749711
v -0.02364217 -0.03194603 0.01568683
v -0.02815140 -0.03030552 0.02533715
v -0.02379318 -0.03300281 0.02293083
v -0.02748044 -0.02730735 0.03025658
v -0.02335416 -0.02945908 0.03644636
v -0.02684280 -0.02218096 0.00693788
v -0.02351291 -0.01981471 0.00421258
v -0.02777790 -0.02127652 0.01325715
v -0.02752959 -0.02200548 0.02245985
v -0.02501917 -0.02151966 0.02863781
v -0.02338084 -0.02397020 0.03288754
v -0.02414187 -0.01672922 0.00945565
v -0.02419367 -0.01618524 0.01728748
v -0.02365119 -0.01745511 0.02444053
v -0.01936562 -0.03579694 -0.01601729
v -0.01491041 -0.03999762 -0.01708637
v -0.01557736 -0.03569223 -0.02104948
v -0.01967752 -0.03643174 -0.00713702
v -0.01490068 -0.03996026 -0.00926541
v -0.01938938 -0.03723268 0.00046810
v -0.01550714 -0.04050978 -0.00036624
v -0.01933007 -0.03574018 0.00713993
v -0.01530867 -0.03989739 0.00743567
v -0.01499147 -0.03768443 0.01276440
v -0.01420538 -0.04069302 0.03315498
v -0.01712853 -0.03647056 0.02797430
v -0.02023906 -0.03467096 0.04081297
v -0.01788190 -0.04027410 0.03870782
v -0.01448970 -0.03720174 0.04336963
v -0.01914772 -0.02843129 -0.03091359
v -0.01457969 -0.03216048 -0.03461859
v -0.01643822 -0.02694422 -0.03694164
v -0.01974831 -0.02966456 -0.02315629
v -0.01534248 -0.03216320 -0.02650203
v -0.02027714 -0.02787450 -0.01605240
v -0.02025209 -0.02899203 -0.00911116
v -0.02115833 -0.03096682 -0.00048549
v -0.01809130 -0.03443819 0.01452061
v -0.01551627 -0.03244127 0.02226256
v -0.01998340 -0.02910221 0.04074850
v -0.01526074 -0.03093644 0.04366536
v -0.01946980 -0.02100959 -0.03231019
v -0.01626842 -0.01894153 -0.03733445
v -0.02037825 -0.02095791 -0.02517934
v -0.02012754 -0.02071405 -0.01703546
v -0.01983935 -0.02053668 -0.00887355
v -0.02073673 -0.02134197 -0.00088953
v -0.02053571 -0.01793849 0.03091953
v -0.01767191 -0.02132195 0.03575555
v -0.01505502 -0.02508644 0.04015693
v -0.01927129 -0.01277993 -0.03219419
v -0.01620675 -0.01062130 -0.03717044
v -0.02018644 -0.01264983 -0.02506974
v -0.02001076 -0.01240793 -0.01684150
v -0.01977448 -0.01234458 -0.00856102
v -0.01964660 -0.01232582 -0.00049852
v -0.02050352 -0.01269495 0.00696794
v -0.02077928 -0.01132734 0.01553038
v -0.02082802 -0.01220029 0.02466250
v -0.01896850 -0.01109891 0.03208975
v -0.01508872 -0.01414271 0.03512462
v -0.01925036 -0.00464804 -0.03212320
v -0.01621163 -0.00251977 -0.03715306
v -0.02012504 -0.00451171 -0.02492116
v -0.01994920 -0.00427442 -0.01665781
v -0.01983004 -0.00426094 -0.00844138
v -0.01974837 -0.00423359 -0.00032837
v -0.01965889 -0.00426238 0.00767401
v -0.01971608 -0.00429919 0.01570577
v -0.01995292 -0.00419449 0.02392203
v -0.01928594 -0.00415697 0.03124499
v -0.01497506 -0.00625106 0.03627335
v -0.01924376 0.00342566 -0.03213986
v -0.01619983 0.00555301 -0.03716905
v -0.02012408 0.00356939 -0.02492397
v -0.01994601 0.00380224 -0.01664889
v -0.01983199 0.00380439 -0.00844984
v -0.01982606 0.00379768 -0.00037146
v -0.01980280 0.00380433 0.00773062
v -0.01986474 0.00379573 0.01594576
v -0.02002101 0.00397232 0.02416748
v -0.01927284 0.00408529 0.03132175
v -0.01638415 0.00215888 0.03640771
v -0.01924216 0.01150753 -0.03212909
v -0.01626810 0.01364527 -0.03716563
v -0.02012019 0.01167953 -0.02488555
v -0.01996544 0.01191480 -0.01655878
v -0.01986676 0.01186442 -0.00835902
v -0.01984607 0.01185065 -0.00033249
v -0.01983095 0.01190811 0.00775765
v -0.01995865 0.01193699 0.01603826
v -0.02018718 0.01207777 0.02431652
v -0.01934491 0.01216773 0.03144471
v -0.01633171 0.01031424 0.03642862
v -0.01943935 0.01973719 -0.03192889
v -0.01644234 0.02183548 -0.03709598
v -0.02025148 0.01993184 -0.02463507
v -0.02009947 0.02014784 -0.01633588
v -0.01998211 0.02009260 -0.00816551
v -0.02000520 0.02006734 -0.00007839
v -0.02001036 0.02013869 0.00803770
v -0.02005363 0.02019182 0.01624272
v -0.02026704 0.02024175 0.02444347
v -0.01940742 0.02027142 0.03155386
v -0.01638724 0.01839772 0.03649162
v -0.01969772 0.02823009 -0.03188259
v -0.01525139 0.03045351 -0.03712023
v -0.02057163 0.02843892 -0.02443782
v -0.02036903 0.02862237 -0.01614025
v -0.02017471 0.02733588 -0.00915539
v -0.01949767 0.02940780 -0.00102088
v -0.02034344 0.02842882 0.00812244
v -0.02038292 0.02862332 0.01629227
v -0.02037151 0.02740685 0.02333766
v -0.01919450 0.02896979 0.03008391
v -0.01485597 0.02776233 0.03658111
v -0.01905138 0.03503111 -0.03287774
v -0.01478459 0.03698675 -0.03546419
v -0.01986479 0.03602236 -0.02651870
v -0.01963652 0.03629324 -0.01816631
v -0.01904162 0.03527068 -0.00931403
v -0.01662437 0.03546351 -0.00366299
v -0.01669231 0.03407577 0.00093433
v -0.01497944 0.03707598 0.00311826
v -0.01892246 0.03462277 0.00658406
v -0.01973818 0.03592364 0.01422679
v -0.01943020 0.03529587 0.02303553
v -0.01698463 0.03574157 0.02879385
v -0.01511050 0.03322032 0.03294477
v -0.01672758 0.03953192 -0.03121847
v -0.01535173 0.03982359 -0.02514423
v -0.01563320 0.03972765 -0.01570549
v -0.01418668 0.03954065 -0.00707566
v -0.01474369 0.03962642 0.00892414
v -0.01566196 0.04018009 0.01777106
v -0.01447641 0.03963938 0.02553643
v -0.00797752 -0.03991398 -0.01517853
v -0.00939261 -0.03757777 -0.01963296
v -0.01089986 -0.03740751 -0.00999452
v -0.00724065 -0.03719484 -0.01118361
v -0.00947073 -0.03715891 -0.00505636
v -0.00752206 -0.03974123 0.00078247
v -0.00792191 -0.04137647 0.00815913
v -0.01193407 -0.03559371 0.01775713
v -0.00925809 -0.03982180 0.01446090
v -0.00595096 -0.03698780 0.01851753
v -0.00546993 -0.04061914 0.03311757
v -0.00885181 -0.03730551 0.02914051
v -0.00966223 -0.04069176 0.03976178
v -0.00765271 -0.03611333 0.04427995
v -0.01216688 -0.02943087 -0.04041562
v -0.00671372 -0.03240178 -0.03981913
v -0.00785576 -0.02744269 -0.04391987
v -0.00989146 -0.03253075 -0.03142167
v -0.01113886 -0.02791900 -0.02477279
v -0.00759133 -0.02807283 -0.02855979
v -0.00849167 -0.03107815 -0.02130569
v -0.00594677 -0.03460444 -0.00656882
v -0.00825942 -0.02956870 0.02076996
v -0.01105234 -0.02667366 0.02480352
v -0.00818993 -0.03078082 0.02736130
v -0.00773679 -0.02931321 0.04410045
v -0.01211872 -0.02282141 -0.04153602
v -0.00675713 -0.02062268 -0.04470421
v -0.01085452 -0.02031036 -0.02421500
v -0.00773218 -0.01984303 -0.02872308
v -0.00722843 -0.02229893 -0.02100748
v -0.01064099 -0.02013666 0.02410531
v -0.00717470 -0.02024685 0.02045818
v -0.00690674 -0.02225559 0.02752365
v -0.00981174 -0.01920435 0.03707769
v -0.00577732 -0.02417445 0.04046425
v -0.01205000 -0.01431790 -0.04134344
v -0.00682892 -0.01213060 -0.04446461
v -0.01105012 -0.01204309 -0.02430150
v -0.00857657 -0.01039693 -0.02880209
v -0.00753600 -0.01397860 -0.02100480
v -0.01094962 -0.01198258 0.02388377
v -0.00733845 -0.01215383 0.02025424
v -0.00733668 -0.01416439 0.02751944
v -0.00702138 -0.01235820 0.03695506
v -0.01216085 -0.00601545 -0.04119578
v -0.00700919 -0.00390070 -0.04436263
v -0.01095884 -0.00396305 -0.02432607
v -0.00844097 -0.00225842 -0.02878941
v -0.00765271 -0.00586470 -0.02104265
v -0.01120323 -0.00404469 0.02381372
v -0.00744002 -0.00424030 0.02027886
v -0.00767422 -0.00611618 0.02743875
v -0.00867478 -0.00716236 0.03985237
v -0.01179855 -0.00182848 0.04057208
v -0.00628783 -0.00448219 0.04301376
v -0.01216910 0.00206759 -0.04119725
v -0.00701357 0.00418151 -0.04436531
v -0.01093565 0.00402089 -0.02441715
v -0.00848877 0.00578094 -0.02888694
v -0.00764841 0.00217426 -0.02107537
v -0.01116408 0.00392480 0.02375931
v -0.00763339 0.00393150 0.02023590
v -0.00768509 0.00180920 0.02737060
v -0.01230971 0.00598927 0.04056614
v -0.00700086 0.00172644 0.04387573
v -0.01217913 0.01015144 -0.04120807
v -0.00708689 0.01226665 -0.04437774
v -0.01093597 0.01196533 -0.02455886
v -0.00846039 0.01386973 -0.02903367
v -0.00767769 0.01019332 -0.02126176
v -0.01123334 0.01241328 0.02358544
v -0.00762593 0.01254469 0.01998841
v -0.00647500 0.01172960 0.02758780
v -0.01233463 0.01418979 0.04048050
v -0.00708704 0.00996480 0.04374158
v -0.01233410 0.01819570 -0.04123114
v -0.00721381 0.02040459 -0.04442016
v -0.01113278 0.02040598 -0.02339680
v -0.00696305 0.02220051 -0.02914830
v -0.00682656 0.01838926 -0.02035898
v -0.01070938 0.01938997 0.02285517
v -0.00643719 0.01917407 0.02102563
v -0.00873774 0.01897241 0.02702387
v -0.01239221 0.02232808 0.04051184
v -0.00721344 0.01832188 0.04365847
v -0.01190777 0.02597864 -0.04119515
v -0.00563279 0.02912201 -0.04428719
v -0.01169051 0.02830559 -0.02389078
v -0.00816300 0.02963153 -0.02795511
v -0.00865531 0.02414865 -0.01735939
v -0.01130820 0.02872272 -0.01734356
v -0.00667413 0.02826773 -0.01378762
v -0.00617104 0.02286087 0.02579006
v -0.01156437 0.02797001 0.04063578
v -0.00650726 0.02726664 0.04353639
v -0.00935945 0.03214137 -0.04079881
v -0.00865812 0.03653324 -0.03835467
v -0.01251470 0.03600680 -0.02387305
v -0.00758774 0.03603560 -0.02861021
v -0.01223254 0.03589018 -0.01715781
v -0.00673276 0.03495464 -0.01231568
v -0.01365026 0.03714610 -0.00157439
v -0.01268823 0.03738939 0.03111750
v -0.00979430 0.03543003 0.03607889
v -0.00803627 0.03278569 0.04074618
v -0.00818434 0.03985530 -0.03311181
v -0.00863981 0.04032689 -0.00901299
v -0.00893675 0.04018449 0.00045315
v -0.00796704 0.04082079 0.00744304
v -0.00717475 0.03995739 0.01457179
v -0.00822503 0.04105163 0.02401897
v -0.00695960 0.03985429 0.03272402
v 0.00235172 -0.04068737 -0.01736228
v 0.00016032 -0.03559767 -0.02061009
v -0.00394541 -0.03630342 -0.00877595
v -0.00021308 -0.03968240 -0.00963220
v -0.00427226 -0.03564558 -0.00119911
v 0.00064220 -0.03628385 -0.00437993
v -0.00026403 -0.03691575 0.00249555
v 0.00136623 -0.04023781 0.00621370
v 0.00032466 -0.04145289 0.01423969
v -0.00025329 -0.03667841 0.01937674
v 0.00097258 -0.04086825 0.03293133
v 0.00064681 -0.03694778 0.02798655
v -0.00038617 -0.04023871 0.03910644
v -0.00014651 -0.03455331 0.04372077
v 0.00184353 -0.03254412 -0.04159427
v -0.00128210 -0.02824514 -0.04476448
v -0.00014996 -0.03355336 -0.03497842
v 0.00101071 -0.02829425 -0.02986971
v -0.00045592 -0.02767347 -0.02010012
v -0.00030607 -0.03431942 -0.00116875
v -0.00018108 -0.02874912 0.02051340
v 0.00016620 -0.02686233 0.02729874
v -0.00106183 -0.02852144 0.04318890
v 0.00065727 -0.02081926 -0.04564526
v -0.00289335 -0.02156021 -0.03263919
v -0.00036848 -0.01918432 -0.03517903
v 0.00155440 -0.02331190 -0.03265986
v 0.00067318 -0.02052172 -0.01995712
v -0.00001508 -0.02060122 0.02034246
v -0.00006900 -0.01868964 0.02750567
v -0.00023718 -0.02020730 0.03693708
v 0.00129757 -0.02566845 0.03995615
v 0.00052995 -0.01245009 -0.04547959
v -0.00413440 -0.01467073 -0.03330203
v 0.00034072 -0.01262354 -0.03567124
v 0.00045387 -0.01235751 -0.01997174
v -0.00011655 -0.01267196 0.02026769
v -0.00036709 -0.01068178 0.02749834
v 0.00251182 -0.01332795 0.03703774
v 0.00037468 -0.00426838 -0.04542148
v -0.00393116 -0.00637319 -0.03335055
v 0.00042332 -0.00435784 -0.03562082
v 0.00037006 -0.00427693 -0.01998885
v 0.00075489 -0.00384083 0.02007787
v 0.00103505 -0.00256790 0.02759719
v -0.00153749 -0.00847555 0.04044451
v 0.00038696 -0.00362831 0.04388892
v 0.00037288 0.00381329 -0.04542431
v -0.00390941 0.00182058 -0.03331085
v 0.00032902 0.00388442 -0.03561386
v 0.00027254 0.00381841 -0.02008528
v -0.00080226 0.00505235 0.01895899
v 0.00098590 0.00552706 0.02933211
v 0.00036624 0.00356897 0.04494271
v 0.00023797 0.01192517 -0.04544155
v -0.00400568 0.01001448 -0.03338830
v 0.00040413 0.01215328 -0.03565865
v 0.00032602 0.01186032 -0.02034900
v 0.00152269 0.01247943 0.01982230
v -0.00063082 0.00918051 0.03224637
v -0.00219933 0.01458870 0.03149878
v 0.00139865 0.01346442 0.03482419
v 0.00020932 0.01182277 0.04476532
v 0.00015892 0.02022117 -0.04554359
v -0.00340001 0.01780290 -0.03343329
v 0.00108882 0.01872045 -0.03519229
v 0.00254060 0.01888784 -0.01937109
v -0.00130150 0.01662626 0.02429755
v -0.00457180 0.01942144 0.02457816
v -0.00455680 0.01753136 0.02861554
v 0.00029384 0.01924700 0.02811156
v -0.00394248 0.02044140 0.03108910
v 0.00015029 0.01874785 0.03474361
v 0.00019668 0.02012968 0.04483345
v 0.00141081 0.02727542 -0.04562989
v -0.00071547 0.02269280 -0.03282101
v 0.00019640 0.02738860 -0.02987888
v -0.00186978 0.02406192 -0.01610666
v 0.00020345 0.02916938 -0.01290800
v -0.00056862 0.02277774 0.03149133
v 0.00136376 0.02724906 0.04498109
v -0.00456783 0.03586305 -0.04207242
v 0.00102100 0.03448863 -0.04399482
v 0.00080599 0.03561852 -0.02898807
v 0.00215532 0.03563542 -0.01107207
v -0.00239796 0.03644420 0.01687402
v -0.00033202 0.03643061 0.01267783
v 0.00194140 0.03374967 0.01525692
v 0.00260163 0.03583653 0.01964498
v -0.00424142 0.03759909 0.03961449
v -0.00054869 0.03435350 0.04326240
v -0.00072807 0.03963462 -0.03897943
v 0.00164690 0.04035286 -0.03142588
v 0.00003853 0.04000521 -0.00738110
v 0.00048497 0.04097581 -0.00049053
v -0.00025506 0.03965417 0.00748487
v -0.00043485 0.03979003 0.02374596
v -0.00086879 0.04103703 0.03125434
v 0.00133711 0.03940693 0.03826448
v 0.00526741 -0.04464707 0.01811584
v 0.00942059 -0.04787152 0.01721819
v 0.00778349 -0.04533140 0.01330433
v 0.00599870 -0.04389942 0.02485710
v 0.00847804 -0.04790537 0.02211699
v 0.00965274 -0.04477852 0.02760763
v 0.00515788 -0.03669878 -0.03083524
v 0.01038576 -0.03960264 -0.03151135
v 0.00944960 -0.03574400 -0.03584601
v 0.00443730 -0.03816194 -0.02451005
v 0.00841090 -0.04085661 -0.02438229
v 0.00985475 -0.04165403 -0.01577766
v 0.00882722 -0.04141905 -0.00866674
v 0.00341144 -0.03697534 0.00122485
v 0.00701872 -0.04014949 -0.00064640
v 0.00904503 -0.04184168 0.00803068
v 0.00368906 -0.03727378 0.02229271
v 0.00671626 -0.04077395 0.03282061
v 0.00526756 -0.03722477 0.03976755
v 0.00928825 -0.03454250 0.03632239
v 0.00846791 -0.03246639 -0.04012543
v 0.00667562 -0.02842759 -0.04416292
v 0.00708907 -0.03291813 -0.02551111
v 0.00867715 -0.02843503 -0.02716399
v 0.00790214 -0.02776545 -0.02146499
v 0.00350086 -0.02886665 0.02371631
v 0.00463597 -0.03110686 0.04090396
v 0.00770944 -0.02644908 0.03647119
v 0.00808910 -0.02101782 -0.04452097
v 0.00420556 -0.01838544 -0.03332130
v 0.00809472 -0.02300686 -0.02872877
v 0.00858579 -0.01889137 -0.02100007
v 0.00355549 -0.02076300 0.02388073
v 0.00781683 -0.01849084 0.03513702
v 0.00784298 -0.01278017 -0.04438064
v 0.00475994 -0.01050773 -0.03335596
v 0.00933048 -0.01458460 -0.02879885
v 0.00839982 -0.01071739 -0.02102876
v 0.00341223 -0.01282374 0.02389788
v 0.00814769 -0.01311459 0.03605311
v 0.00776083 -0.00464210 -0.04436335
v 0.00466031 -0.00229271 -0.03331148
v 0.00923425 -0.00629288 -0.02878652
v 0.00835674 -0.00265344 -0.02104123
v 0.00482708 -0.00529544 0.02392249
v 0.00806830 -0.00854421 0.03900858
v 0.00784993 -0.00225615 0.04335253
v 0.00775950 0.00343952 -0.04436494
v 0.00468350 0.00589550 -0.03334731
v 0.00919297 0.00177967 -0.02878366
v 0.00821947 0.00543449 -0.02123317
v 0.00707087 0.00329843 0.02047543
v 0.00845010 -0.00004142 0.02441798
v 0.00866657 0.00420624 0.02669074
v 0.00768983 0.00539929 0.04383133
v 0.00765566 0.01160191 -0.04439354
v 0.00486043 0.01417138 -0.03336833
v 0.00930364 0.00986459 -0.02889515
v 0.00833092 0.01353066 -0.02146527
v 0.00990182 0.01067723 0.02099667
v 0.00427150 0.01278068 0.03096163
v 0.00845207 0.01028525 0.02756982
v 0.00754676 0.01373542 0.04373756
v 0.00763421 0.01992233 -0.04451251
v 0.00364701 0.02101728 -0.03278856
v 0.00850491 0.01921558 -0.02903417
v 0.00948953 0.02017136 -0.01992858
v 0.00703499 0.01487833 0.02439717
v 0.00273355 0.01874604 0.03342376
v 0.00895696 0.02209062 0.04404928
v 0.00754148 0.02781462 -0.04408916
v 0.00824940 0.02779068 -0.02736266
v 0.00656423 0.02435773 -0.01615527
v 0.00793640 0.03058599 -0.01347578
v 0.00710610 0.02975939 0.04399586
v 0.00733166 0.03329012 -0.04205160
v 0.00492236 0.03773865 -0.04031308
v 0.01118005 0.03556658 -0.03772858
v 0.00771357 0.03314735 -0.02515743
v 0.00508598 0.03748982 -0.02569771
v 0.00948684 0.03552071 -0.02195167
v 0.00931083 0.03675145 -0.01248908
v 0.00647419 0.03576231 0.01225407
v 0.00696856 0.03382124 0.01649941
v 0.00930208 0.03660048 0.01905935
v 0.00514002 0.03556498 0.04132144
v 0.00822855 0.03740150 0.03779503
v 0.01122764 0.03285223 0.04079570
v 0.00820252 0.04054665 -0.03339828
v 0.00958419 0.03989034 -0.02395660
v 0.00939871 0.04024564 -0.00800683
v 0.00872995 0.04107226 -0.00018978
v 0.00954647 0.03970519 0.00819591
v 0.00940952 0.03983276 0.02422735
v 0.00772178 0.04019817 0.03248063
v 0.01166783 -0.04311079 0.01524587
v 0.01163344 -0.04490694 0.02343150
v 0.01271897 -0.03740392 -0.03352248
v 0.01573158 -0.03813400 -0.02997244
v 0.01589080 -0.04025099 -0.02472532
v 0.01600523 -0.04073309 -0.01686713
v 0.01624663 -0.04057556 -0.00859890
v 0.01482235 -0.04014443 -0.00005329
v 0.01362932 -0.03755124 0.00865075
v 0.01766391 -0.03596557 0.00404550
v 0.01260313 -0.03568545 0.01675681
v 0.01286996 -0.03700455 0.02418467
v 0.01181002 -0.03871270 0.03068253
v 0.01278489 -0.02681081 -0.04143118
v 0.01529576 -0.03015654 -0.03741434
v 0.01651381 -0.03424784 -0.03294016
v 0.01152462 -0.02742776 -0.02495636
v 0.01615815 -0.03223155 0.00850755
v 0.01389213 -0.03049198 0.01415016
v 0.01719484 -0.02736915 0.01216156
v 0.01349879 -0.02857633 0.02329266
v 0.01215301 -0.03052172 0.03156400
v 0.01318324 -0.01903360 -0.04129246
v 0.01726479 -0.02287975 -0.03734607
v 0.01195589 -0.02092466 -0.02432369
v 0.01671250 -0.02489906 0.01819434
v 0.01626981 -0.02327774 0.02465414
v 0.01288378 -0.02246320 0.03099080
v 0.01711294 -0.01807776 0.02759412
v 0.01293428 -0.01085848 -0.04119799
v 0.01706625 -0.01472572 -0.03720053
v 0.01179568 -0.01263207 -0.02429333
v 0.01296523 -0.01404042 0.03295560
v 0.01775929 -0.01176756 0.02929626
v 0.01291582 -0.00275952 -0.04119871
v 0.01695460 -0.00662434 -0.03715616
v 0.01165815 -0.00452423 -0.02431551
v 0.01569924 -0.00793141 0.03416583
v 0.01305306 -0.00461831 0.03941521
v 0.01712163 -0.00196703 0.03597950
v 0.01292432 0.00531893 -0.04119896
v 0.01696087 0.00145460 -0.03715803
v 0.01168269 0.00346545 -0.02435379
v 0.01172436 0.00561336 0.02301968
v 0.01300919 0.00149569 0.04065478
v 0.01696192 0.00582078 0.03650976
v 0.01296059 0.01344258 -0.04124335
v 0.01699244 0.00949553 -0.03715915
v 0.01166935 0.01156509 -0.02459960
v 0.01176985 0.01051894 0.02423642
v 0.01276163 0.00979038 0.04054578
v 0.01672174 0.01413690 0.03638563
v 0.01287499 0.02173941 -0.04128264
v 0.01703477 0.01762689 -0.03722822
v 0.01203222 0.02061743 -0.02380651
v 0.01320841 0.01764558 0.04057208
v 0.01675461 0.01958069 0.03713628
v 0.01159585 0.02887403 -0.04080006
v 0.01626341 0.02719213 -0.03729124
v 0.01200387 0.02959767 -0.02249772
v 0.01208227 0.02650194 -0.01816749
v 0.01739048 0.02324433 0.03945098
v 0.01463494 0.02761732 0.04291056
v 0.01722160 0.03489606 -0.03548514
v 0.01194021 0.03489657 -0.01725635
v 0.01136519 0.03652657 0.01489677
v 0.01544772 0.03582226 0.03663889
v 0.01649746 0.03142172 0.04074185
v 0.01539497 0.03938564 -0.03308702
v 0.01619316 0.04027954 -0.02656745
v 0.01532901 0.03963457 -0.01646316
v 0.01697777 0.04007783 -0.00917182
v 0.01592610 0.04020556 -0.00195523
v 0.01607631 0.03995693 0.00612103
v 0.01526325 0.03920219 0.01574824
v 0.01684311 0.03985372 0.02305256
v 0.01595878 0.03953114 0.03007529
v 0.01999061 -0.03499360 -0.02544471
v 0.02026730 -0.03657685 -0.01674469
v 0.02040893 -0.03644283 -0.00849692
v 0.01995964 -0.03628518 -0.00095119
v 0.02003176 -0.02788055 -0.03159460
v 0.02114547 -0.02800911 -0.02383654
v 0.02106385 -0.02918334 -0.01671244
v 0.02109025 -0.02907351 -0.00841151
v 0.02117271 -0.02893457 -0.00030414
v 0.01981852 -0.02914533 0.00679383
v 0.02016245 -0.01896498 -0.03222532
v 0.02099731 -0.02090516 -0.02502407
v 0.02080445 -0.02087866 -0.01675434
v 0.02070763 -0.02067722 -0.00849514
v 0.02080768 -0.02053678 -0.00028551
v 0.02094375 -0.02049974 0.00778217
v 0.02014000 -0.02086912 0.01544134
v 0.01924438 -0.02043707 0.02230064
v 0.02001305 -0.01081472 -0.03214905
v 0.02089890 -0.01272137 -0.02499628
v 0.02070924 -0.01263633 -0.01674672
v 0.02058112 -0.01240789 -0.00849841
v 0.02057759 -0.01236349 -0.00037460
v 0.02069982 -0.01229623 0.00776970
v 0.02097423 -0.01219433 0.01600364
v 0.02035057 -0.01308568 0.02398453
v 0.02000365 -0.00274667 -0.03212915
v 0.02088575 -0.00463764 -0.02492122
v 0.02070650 -0.00450678 -0.01665219
v 0.02058820 -0.00428478 -0.00844507
v 0.02057919 -0.00427867 -0.00036259
v 0.02058571 -0.00426822 0.00772291
v 0.02079272 -0.00401695 0.01597539
v 0.02105678 -0.00405147 0.02419395
v 0.01975167 -0.00560716 0.03033661
v 0.02000634 0.00532817 -0.03212589
v 0.02088103 0.00347528 -0.02487963
v 0.02067573 0.00362934 -0.01651297
v 0.02050709 0.00384387 -0.00822647
v 0.02046835 0.00387954 -0.00011758
v 0.02046276 0.00391387 0.00795479
v 0.02059143 0.00408763 0.01608474
v 0.02086719 0.00414164 0.02429342
v 0.02012093 0.00215848 0.03139222
v 0.02004654 0.01334283 -0.03213715
v 0.02085527 0.01159264 -0.02488043
v 0.02059413 0.01177630 -0.01647618
v 0.02041333 0.01204365 -0.00819661
v 0.02035222 0.01207402 -0.00007056
v 0.02028923 0.01209184 0.00807225
v 0.02038682 0.01224656 0.01611796
v 0.02063862 0.01228977 0.02420525
v 0.01987971 0.01040263 0.03140469
v 0.02016376 0.02159234 -0.03224971
v 0.02097677 0.01973645 -0.02495485
v 0.02067424 0.02000959 -0.01658614
v 0.02045419 0.01911598 -0.00947463
v 0.02137871 0.02067006 -0.00244323
v 0.02146090 0.01926106 0.00584481
v 0.02144185 0.01933029 0.01398955
v 0.02167727 0.01942828 0.02211784
v 0.02053587 0.01927960 0.03161166
v 0.02043879 0.03019456 -0.03220809
v 0.02133295 0.02813563 -0.02494250
v 0.02095987 0.02837641 -0.01657809
v 0.02148722 0.02819265 -0.00740456
v 0.02442312 0.02727847 -0.00303973
v 0.02499754 0.02470771 0.00175965
v 0.02497264 0.02418555 0.00956491
v 0.02506577 0.02430720 0.01782659
v 0.02525517 0.02421575 0.02613182
v 0.02401361 0.02512980 0.03401819
v 0.02050036 0.02940022 0.03882193
v 0.02504384 0.02935488 0.03503663
v 0.01974145 0.03690419 -0.03130523
v 0.02056194 0.03581406 -0.02474748
v 0.02029352 0.03585612 -0.01636485
v 0.02004203 0.03605593 -0.00814133
v 0.02460801 0.03138074 -0.00124064
v 0.02107264 0.03603211 0.00060850
v 0.02538675 0.03244474 0.00558542
v 0.02116824 0.03667072 0.00989516
v 0.02539663 0.03230572 0.01385646
v 0.02108631 0.03670056 0.01808941
v 0.02535107 0.03240240 0.02224703
v 0.02116042 0.03677600 0.02630536
v 0.02550395 0.03183113 0.03016075
v 0.02132475 0.03468094 0.03364388
v 0.02701152 0.02886258 0.00088354
v 0.02746893 0.02818738 0.00744530
v 0.02742662 0.02816774 0.01579151
v 0.02755297 0.02818893 0.02412417
v 0.02730294 0.02756489 0.03078449
f 3 2 1
f 4 1 2
f 7 6 5
f 9 8 5
f 9 5 6
f 11 10 8
f 11 8 9
f 10 11 3
f 1 10 3
f 12 10 1
f 1 4 13
f 1 13 12
f 7 5 14
f 7 14 15
f 16 5 8
f 14 5 16
f 17 8 10
f 16 8 17
f 12 19 18
f 17 12 18
f 10 12 17
f 19 12 13
f 20 15 14
f 20 14 16
f 20 16 21
f 21 16 17
f 21 17 22
f 22 17 18
f 25 24 23
f 27 26 23
f 27 23 24
f 29 28 26
f 29 26 27
f 31 30 28
f 31 28 29
f 32 30 31
f 34 33 2
f 34 2 3
f 36 35 4
f 2 36 4
f 33 36 2
f 37 35 36
f 40 39 38
f 42 41 38
f 42 38 39
f 41 42 25
f 23 41 25
f 43 41 23
f 44 23 26
f 43 23 44
f 45 26 28
f 44 26 45
f 7 45 6
f 45 30 6
f 45 28 30
f 32 46 30
f 46 6 30
f 46 9 6
f 9 47 11
f 46 47 9
f 3 11 34
f 34 11 47
f 48 13 35
f 35 13 4
f 35 37 49
f 35 49 48
f 40 38 50
f 40 50 51
f 52 38 41
f 50 38 52
f 53 41 43
f 52 41 53
f 54 43 44
f 53 43 54
f 55 44 45
f 54 44 55
f 15 55 7
f 7 55 45
f 56 18 19
f 57 56 19
f 57 19 13
f 58 57 13
f 48 58 13
f 58 48 49
f 51 50 59
f 51 59 60
f 61 50 52
f 59 50 61
f 62 52 53
f 61 52 62
f 63 53 54
f 62 53 63
f 64 54 55
f 63 54 64
f 20 65 15
f 65 55 15
f 65 64 55
f 21 66 20
f 20 66 65
f 22 67 21
f 21 67 66
f 18 56 22
f 56 67 22
f 56 68 67
f 56 57 69
f 56 69 68
f 60 59 70
f 60 70 71
f 72 59 61
f 70 59 72
f 73 61 62
f 72 61 73
f 74 62 63
f 73 62 74
f 75 63 64
f 74 63 75
f 76 64 65
f 75 64 76
f 77 65 66
f 76 65 77
f 78 66 67
f 77 66 78
f 79 67 68
f 78 67 79
f 68 69 80
f 68 80 79
f 71 70 81
f 71 81 82
f 83 70 72
f 81 70 83
f 84 72 73
f 83 72 84
f 85 73 74
f 84 73 85
f 86 74 75
f 85 74 86
f 87 75 76
f 86 75 87
f 88 76 77
f 87 76 88
f 89 77 78
f 88 77 89
f 90 78 79
f 89 78 90
f 79 80 91
f 79 91 90
f 82 81 92
f 82 92 93
f 94 81 83
f 92 81 94
f 95 83 84
f 94 83 95
f 96 84 85
f 95 84 96
f 97 85 86
f 96 85 97
f 98 86 87
f 97 86 98
f 99 87 88
f 98 87 99
f 100 88 89
f 99 88 100
f 101 89 90
f 100 89 101
f 90 91 102
f 90 102 101
f 93 92 103
f 93 103 104
f 105 92 94
f 103 92 105
f 106 94 95
f 105 94 106
f 107 95 96
f 106 95 107
f 108 96 97
f 107 96 108
f 109 97 98
f 108 97 109
f 110 98 99
f 109 98 110
f 111 99 100
f 110 99 111
f 112 100 101
f 111 100 112
f 101 102 113
f 101 113 112
f 104 103 114
f 104 114 115
f 116 103 105
f 114 103 116
f 117 105 106
f 116 105 117
f 118 106 107
f 117 106 118
f 119 107 108
f 118 107 119
f 120 108 109
f 119 108 120
f 121 109 110
f 120 109 121
f 122 110 111
f 121 110 122
f 123 111 112
f 122 111 123
f 112 113 124
f 112 124 123
f 115 114 125
f 115 125 126
f 127 114 116
f 125 114 127
f 128 116 117
f 127 116 128
f 129 117 118
f 128 117 129
f 119 131 130
f 129 119 130
f 118 119 129
f 133 132 131
f 119 133 131
f 120 133 119
f 134 120 121
f 133 120 134
f 135 121 122
f 134 121 135
f 123 137 136
f 135 123 136
f 122 123 135
f 137 123 124
f 138 126 125
f 138 125 127
f 138 127 139
f 139 127 128
f 139 128 140
f 140 128 129
f 140 129 141
f 141 129 130
f 142 132 133
f 142 133 134
f 142 134 143
f 143 134 135
f 143 135 144
f 144 135 136
f 146 145 24
f 146 24 25
f 145 148 147
f 27 145 147
f 24 145 27
f 27 147 149
f 150 27 149
f 29 27 150
f 29 151 31
f 150 151 29
f 153 152 32
f 31 153 32
f 151 153 31
f 154 152 153
f 156 155 33
f 156 33 34
f 33 157 36
f 155 157 33
f 37 36 157
f 37 157 158
f 161 160 159
f 39 40 159
f 160 39 159
f 162 39 160
f 162 164 163
f 42 162 163
f 39 162 42
f 163 165 42
f 165 25 42
f 165 146 25
f 148 166 147
f 147 166 149
f 152 46 32
f 47 46 152
f 167 47 152
f 154 167 152
f 168 47 167
f 168 169 47
f 169 34 47
f 169 156 34
f 158 49 37
f 170 49 158
f 161 159 171
f 161 171 172
f 51 171 40
f 40 171 159
f 163 164 173
f 173 164 174
f 165 163 175
f 175 163 173
f 168 167 176
f 176 167 177
f 169 168 178
f 178 168 176
f 180 179 58
f 58 179 57
f 58 49 170
f 58 170 180
f 172 171 181
f 172 181 182
f 60 181 51
f 51 181 171
f 173 174 183
f 183 174 184
f 175 173 185
f 185 173 183
f 176 177 186
f 186 177 187
f 178 176 188
f 188 176 186
f 179 69 57
f 189 69 179
f 182 181 190
f 182 190 191
f 71 190 60
f 60 190 181
f 183 184 192
f 192 184 193
f 185 183 194
f 194 183 192
f 186 187 195
f 195 187 196
f 188 186 197
f 197 186 195
f 199 80 198
f 80 189 198
f 80 69 189
f 200 199 198
f 191 190 201
f 191 201 202
f 82 201 71
f 71 201 190
f 192 193 203
f 203 193 204
f 194 192 205
f 205 192 203
f 195 196 206
f 206 196 207
f 197 195 208
f 208 195 206
f 209 91 199
f 199 91 80
f 199 200 210
f 199 210 209
f 202 201 211
f 202 211 212
f 93 211 82
f 82 211 201
f 203 204 213
f 213 204 214
f 205 203 215
f 215 203 213
f 206 207 216
f 216 207 217
f 208 206 218
f 218 206 216
f 219 102 209
f 209 102 91
f 209 210 220
f 209 220 219
f 212 211 221
f 212 221 222
f 104 221 93
f 93 221 211
f 213 214 223
f 223 214 224
f 215 213 225
f 225 213 223
f 216 217 226
f 226 217 227
f 218 216 228
f 228 216 226
f 229 113 219
f 219 113 102
f 219 220 230
f 219 230 229
f 222 221 231
f 222 231 232
f 115 231 104
f 104 231 221
f 223 224 233
f 233 224 234
f 225 223 235
f 223 236 235
f 223 233 236
f 236 237 235
f 227 238 226
f 226 238 228
f 239 124 229
f 229 124 113
f 229 230 240
f 229 240 239
f 241 232 231
f 231 115 241
f 115 242 241
f 115 126 242
f 233 234 243
f 243 234 244
f 233 245 236
f 233 243 245
f 237 236 246
f 246 236 245
f 247 130 131
f 132 247 131
f 248 136 137
f 249 248 137
f 249 137 124
f 250 249 124
f 239 250 124
f 250 239 240
f 251 242 126
f 251 126 138
f 139 243 244
f 251 139 244
f 138 139 251
f 243 139 140
f 243 140 245
f 252 246 245
f 140 252 245
f 141 252 140
f 141 130 247
f 253 141 247
f 252 141 253
f 253 247 132
f 142 253 132
f 254 253 142
f 255 142 143
f 255 254 142
f 256 143 144
f 256 255 143
f 144 136 248
f 257 144 248
f 256 144 257
f 257 248 249
f 259 258 145
f 259 145 146
f 261 260 148
f 145 261 148
f 258 261 145
f 262 150 149
f 263 260 261
f 150 262 264
f 265 150 264
f 151 150 265
f 151 266 153
f 265 266 151
f 154 153 266
f 154 266 267
f 269 268 155
f 269 155 156
f 155 270 157
f 268 270 155
f 158 157 270
f 158 270 271
f 273 272 160
f 273 160 161
f 160 274 162
f 272 274 160
f 164 162 274
f 164 274 275
f 165 259 146
f 165 276 259
f 260 166 148
f 260 263 166
f 263 277 166
f 262 149 166
f 262 166 277
f 262 277 264
f 267 167 154
f 278 167 267
f 169 269 156
f 169 279 269
f 271 170 158
f 280 170 271
f 172 273 161
f 172 281 273
f 284 283 282
f 275 284 282
f 174 275 282
f 164 275 174
f 175 276 165
f 175 285 276
f 278 177 167
f 286 177 278
f 178 279 169
f 178 287 279
f 289 288 180
f 180 288 179
f 180 170 280
f 180 280 289
f 182 281 172
f 182 290 281
f 282 283 291
f 291 283 292
f 291 184 174
f 291 174 282
f 185 285 175
f 185 293 285
f 286 187 177
f 294 187 286
f 188 287 178
f 188 295 287
f 288 189 179
f 296 189 288
f 191 290 182
f 191 297 290
f 291 292 298
f 298 292 299
f 298 193 184
f 298 184 291
f 194 293 185
f 194 300 293
f 294 196 187
f 301 196 294
f 197 295 188
f 197 302 295
f 296 303 189
f 189 303 198
f 200 198 303
f 200 303 304
f 202 297 191
f 202 305 297
f 298 299 306
f 306 299 307
f 306 204 193
f 306 193 298
f 205 300 194
f 205 308 300
f 301 207 196
f 309 207 301
f 208 302 197
f 208 310 302
f 304 210 200
f 311 210 304
f 212 305 202
f 212 312 305
f 306 307 313
f 313 307 314
f 313 214 204
f 313 204 306
f 215 308 205
f 215 315 308
f 309 217 207
f 316 217 309
f 218 318 317
f 310 218 317
f 208 218 310
f 318 319 317
f 311 220 210
f 320 220 311
f 222 312 212
f 222 321 312
f 313 314 322
f 322 314 323
f 322 224 214
f 322 214 313
f 225 315 215
f 225 324 315
f 326 227 325
f 227 316 325
f 227 217 316
f 228 327 218
f 327 326 218
f 325 218 326
f 218 325 318
f 328 318 325
f 318 328 327
f 327 329 318
f 228 329 327
f 327 328 326
f 319 318 330
f 330 318 329
f 320 230 220
f 331 230 320
f 232 321 222
f 232 332 321
f 323 333 322
f 224 322 333
f 334 224 333
f 234 224 334
f 335 324 225
f 335 225 235
f 235 237 335
f 335 237 336
f 326 238 227
f 326 328 238
f 328 337 238
f 329 228 238
f 329 238 337
f 329 337 330
f 331 240 230
f 338 240 331
f 232 241 339
f 340 232 339
f 332 232 340
f 242 339 241
f 334 244 234
f 341 244 334
f 246 336 237
f 246 342 336
f 345 344 343
f 343 346 345
f 347 249 250
f 348 347 250
f 240 348 250
f 338 348 240
f 349 340 339
f 349 339 242
f 251 349 242
f 350 349 251
f 251 244 341
f 251 341 350
f 351 342 246
f 351 246 252
f 352 252 253
f 352 351 252
f 353 253 254
f 353 352 253
f 255 343 344
f 353 255 344
f 254 255 353
f 354 346 343
f 255 354 343
f 256 354 255
f 355 256 257
f 355 354 256
f 257 249 347
f 356 257 347
f 355 257 356
f 356 347 348
f 359 358 357
f 361 360 357
f 361 357 358
f 362 360 361
f 365 364 363
f 367 366 363
f 367 363 364
f 258 259 366
f 367 258 366
f 368 258 367
f 258 369 261
f 368 369 258
f 371 370 263
f 261 371 263
f 369 371 261
f 265 264 370
f 371 265 370
f 372 265 371
f 357 266 359
f 266 372 359
f 266 265 372
f 266 357 267
f 357 373 267
f 357 360 373
f 374 268 269
f 360 374 269
f 373 360 269
f 374 360 362
f 374 376 375
f 270 374 375
f 268 374 270
f 375 271 270
f 378 377 272
f 378 272 273
f 363 274 365
f 274 377 365
f 274 272 377
f 363 366 379
f 275 363 379
f 380 275 379
f 363 275 274
f 366 259 379
f 259 381 379
f 259 276 381
f 370 277 263
f 277 370 264
f 382 278 373
f 373 278 267
f 279 382 269
f 269 382 373
f 375 376 383
f 383 376 384
f 383 280 271
f 383 271 375
f 281 378 273
f 281 385 378
f 386 283 284
f 387 386 284
f 275 387 284
f 380 387 275
f 285 381 276
f 285 388 381
f 389 286 382
f 382 286 278
f 287 389 279
f 279 389 382
f 383 384 289
f 384 288 289
f 384 390 288
f 383 289 280
f 290 385 281
f 290 391 385
f 392 292 386
f 386 292 283
f 386 387 393
f 386 393 392
f 293 388 285
f 293 394 388
f 395 294 389
f 389 294 286
f 295 395 287
f 287 395 389
f 390 296 288
f 396 296 390
f 297 391 290
f 297 397 391
f 398 299 392
f 392 299 292
f 392 393 399
f 392 399 398
f 300 394 293
f 300 400 394
f 401 301 395
f 395 301 294
f 302 401 295
f 295 401 395
f 396 402 296
f 296 402 303
f 304 303 402
f 304 402 403
f 305 397 297
f 305 404 397
f 405 307 398
f 398 307 299
f 398 399 406
f 398 406 405
f 308 400 300
f 308 407 400
f 409 408 401
f 408 301 401
f 408 309 301
f 401 302 409
f 302 410 409
f 302 310 410
f 403 311 304
f 411 311 403
f 312 404 305
f 312 412 404
f 413 314 405
f 405 314 307
f 405 406 414
f 405 414 413
f 315 407 308
f 315 415 407
f 408 316 309
f 416 316 408
f 310 317 417
f 418 310 417
f 410 310 418
f 319 417 317
f 411 320 311
f 419 320 411
f 321 412 312
f 321 420 412
f 421 323 413
f 413 323 314
f 413 414 422
f 413 422 421
f 324 415 315
f 324 423 415
f 416 424 316
f 316 424 325
f 417 425 328
f 424 417 328
f 325 424 328
f 418 417 424
f 330 425 319
f 319 425 417
f 419 331 320
f 426 331 419
f 332 420 321
f 332 427 420
f 421 333 323
f 334 333 421
f 422 334 421
f 428 334 422
f 429 423 324
f 429 324 335
f 335 336 429
f 429 336 430
f 425 337 328
f 337 425 330
f 426 338 331
f 431 338 426
f 340 433 432
f 427 340 432
f 332 340 427
f 433 434 432
f 436 341 435
f 341 428 435
f 341 334 428
f 437 436 435
f 342 430 336
f 342 438 430
f 440 439 345
f 345 439 344
f 345 346 440
f 440 346 441
f 444 443 442
f 431 444 442
f 348 431 442
f 338 431 348
f 349 433 340
f 445 434 433
f 349 445 433
f 350 445 349
f 350 341 436
f 446 350 436
f 445 350 446
f 446 436 437
f 447 438 342
f 447 342 351
f 448 351 352
f 448 447 351
f 449 352 353
f 449 448 352
f 353 344 439
f 353 439 449
f 450 441 346
f 450 346 354
f 451 354 355
f 451 450 354
f 356 442 443
f 451 356 443
f 355 356 451
f 442 356 348
f 359 452 358
f 453 361 358
f 453 358 452
f 453 362 361
f 365 454 364
f 364 454 455
f 456 364 455
f 367 364 456
f 367 457 368
f 456 457 367
f 368 458 369
f 457 458 368
f 369 459 371
f 458 459 369
f 459 461 460
f 372 459 460
f 371 459 372
f 452 359 372
f 460 452 372
f 462 452 460
f 452 463 453
f 452 462 463
f 464 374 362
f 453 464 362
f 463 464 453
f 464 376 374
f 378 465 377
f 465 466 377
f 377 466 365
f 466 467 365
f 467 454 365
f 468 380 379
f 467 455 454
f 381 468 379
f 461 469 460
f 471 470 469
f 470 460 469
f 470 462 460
f 462 472 463
f 462 470 472
f 463 473 464
f 463 472 473
f 473 384 376
f 473 376 464
f 385 474 465
f 385 465 378
f 466 465 475
f 475 465 474
f 476 387 468
f 468 387 380
f 388 476 381
f 381 476 468
f 471 477 470
f 470 477 472
f 472 477 478
f 480 479 478
f 479 472 478
f 479 473 472
f 479 390 384
f 479 384 473
f 391 481 474
f 391 474 385
f 475 474 482
f 482 474 481
f 483 393 476
f 476 393 387
f 394 483 388
f 388 483 476
f 479 480 484
f 484 480 485
f 484 396 390
f 484 390 479
f 397 486 481
f 397 481 391
f 482 481 487
f 487 481 486
f 488 399 483
f 483 399 393
f 400 488 394
f 394 488 483
f 485 489 484
f 489 491 490
f 489 490 402
f 484 489 402
f 396 484 402
f 490 403 402
f 404 492 486
f 404 486 397
f 487 486 493
f 493 486 492
f 494 406 488
f 488 406 399
f 407 494 400
f 400 494 488
f 495 408 409
f 410 495 409
f 490 491 496
f 496 491 497
f 496 411 403
f 496 403 490
f 412 498 492
f 412 492 404
f 493 492 499
f 499 492 498
f 500 414 494
f 494 414 406
f 415 500 407
f 407 500 494
f 501 416 495
f 495 416 408
f 418 501 410
f 410 501 495
f 496 497 502
f 502 497 503
f 502 419 411
f 502 411 496
f 420 504 498
f 420 498 412
f 499 498 505
f 505 498 504
f 506 422 500
f 500 422 414
f 423 506 415
f 415 506 500
f 501 424 416
f 424 501 418
f 502 503 507
f 507 503 508
f 507 426 419
f 507 419 502
f 427 509 504
f 427 504 420
f 505 504 510
f 510 504 509
f 511 428 506
f 506 428 422
f 429 512 423
f 512 506 423
f 512 511 506
f 430 512 429
f 508 513 507
f 426 507 513
f 514 426 513
f 431 426 514
f 432 509 427
f 432 434 509
f 434 510 509
f 434 515 510
f 511 435 428
f 435 511 437
f 511 516 437
f 511 512 516
f 438 516 430
f 430 516 512
f 517 439 440
f 441 517 440
f 519 518 444
f 444 518 443
f 444 431 514
f 444 514 519
f 520 515 434
f 520 434 445
f 521 445 446
f 521 520 445
f 446 437 516
f 522 446 516
f 521 446 522
f 522 516 438
f 447 522 438
f 523 522 447
f 524 447 448
f 524 523 447
f 525 448 449
f 525 524 448
f 449 439 517
f 526 449 517
f 525 449 526
f 526 517 441
f 450 526 441
f 527 526 450
f 528 450 451
f 528 527 450
f 451 443 518
f 451 518 528
f 455 529 456
f 530 457 456
f 530 456 529
f 531 458 457
f 531 457 530
f 532 459 458
f 532 458 531
f 532 461 459
f 466 533 467
f 529 455 467
f 533 529 467
f 534 529 533
f 529 535 530
f 529 534 535
f 530 536 531
f 530 535 536
f 531 537 532
f 531 536 537
f 538 469 461
f 532 538 461
f 537 538 532
f 538 471 469
f 475 539 533
f 475 533 466
f 533 540 534
f 533 539 540
f 534 541 535
f 534 540 541
f 535 542 536
f 535 541 542
f 536 543 537
f 536 542 543
f 537 544 538
f 537 543 544
f 545 477 471
f 538 545 471
f 544 545 538
f 546 478 477
f 546 477 545
f 546 480 478
f 482 547 539
f 482 539 475
f 539 548 540
f 539 547 548
f 540 549 541
f 540 548 549
f 541 550 542
f 541 549 550
f 542 551 543
f 542 550 551
f 543 552 544
f 543 551 552
f 544 553 545
f 544 552 553
f 545 554 546
f 545 553 554
f 554 485 480
f 554 480 546
f 487 555 547
f 487 547 482
f 547 556 548
f 547 555 556
f 548 557 549
f 548 556 557
f 549 558 550
f 549 557 558
f 550 559 551
f 550 558 559
f 551 560 552
f 551 559 560
f 552 561 553
f 552 560 561
f 553 562 554
f 553 561 562
f 563 489 485
f 554 563 485
f 562 563 554
f 563 491 489
f 493 564 555
f 493 555 487
f 555 565 556
f 555 564 565
f 556 566 557
f 556 565 566
f 557 567 558
f 557 566 567
f 558 568 559
f 558 567 568
f 559 569 560
f 559 568 569
f 560 570 561
f 560 569 570
f 561 571 562
f 561 570 571
f 562 572 563
f 562 571 572
f 572 497 491
f 572 491 563
f 499 573 564
f 499 564 493
f 564 574 565
f 564 573 574
f 565 575 566
f 565 574 575
f 566 576 567
f 566 575 576
f 567 577 568
f 567 576 577
f 568 578 569
f 568 577 578
f 569 579 570
f 569 578 579
f 570 580 571
f 570 579 580
f 571 581 572
f 571 580 581
f 581 503 497
f 581 497 572
f 505 582 573
f 505 573 499
f 573 583 574
f 573 582 583
f 574 584 575
f 574 583 584
f 575 585 576
f 575 584 585
f 576 586 577
f 576 585 586
f 577 587 578
f 577 586 587
f 578 588 579
f 578 587 588
f 579 589 580
f 579 588 589
f 580 590 581
f 580 589 590
f 590 508 503
f 590 503 581
f 510 591 582
f 510 582 505
f 582 592 583
f 582 591 592
f 583 593 584
f 583 592 593
f 584 594 585
f 584 593 594
f 596 586 595
f 586 594 595
f 586 585 594
f 586 596 587
f 587 596 597
f 587 597 588
f 588 597 598
f 588 598 589
f 589 598 599
f 589 599 590
f 590 599 600
f 600 602 601
f 600 601 513
f 590 600 513
f 508 590 513
f 601 514 513
f 515 603 591
f 515 591 510
f 591 604 592
f 591 603 604
f 592 605 593
f 592 604 605
f 593 606 594
f 593 605 606
f 595 594 607
f 594 608 607
f 594 606 608
f 610 609 608
f 608 609 607
f 612 611 610
f 610 611 609
f 614 613 612
f 612 613 611
f 616 615 614
f 614 615 613
f 615 616 602
f 602 616 601
f 616 518 601
f 518 519 601
f 601 519 514
f 520 603 515
f 603 520 521
f 603 521 604
f 604 521 522
f 604 522 605
f 605 522 523
f 605 523 606
f 606 523 524
f 606 524 608
f 608 524 525
f 608 525 610
f 610 525 526
f 610 526 612
f 612 526 527
f 612 527 614
f 614 527 528
f 614 528 616
f 616 528 518
f 595 617 596
f 618 597 596
f 618 596 617
f 619 598 597
f 619 597 618
f 620 599 598
f 620 598 619
f 621 600 599
f 621 599 620
f 621 602 600
f 607 617 595
f 617 607 609
f 617 609 618
f 618 609 611
f 618 611 619
f 619 611 613
f 619 613 620
f 620 613 615
f 620 615 621
f 621 615 602

