# https://github.com/mikedh/trimesh
v -0.02533009 -0.00661865 -0.01334398
v -0.02415190 -0.00856416 -0.01413606
v -0.02396526 -0.00642424 -0.01586984
v -0.02516343 -0.00623204 -0.01080411
v -0.02412931 -0.00863321 -0.01188279
v -0.02381590 -0.00725229 -0.00957131
v -0.02561587 -0.00303202 -0.01441902
v -0.02441085 -0.00309830 -0.01682403
v -0.02549117 -0.00339107 -0.01122307
v -0.02402915 -0.00421783 -0.00908153
v -0.02548610 0.00000439 -0.01692636
v -0.02367136 -0.00177781 -0.01832285
v -0.02379836 0.00042945 -0.01920392
v -0.02601035 0.00074337 -0.01380891
v -0.02546299 0.00022060 -0.01123946
v -0.02396506 -0.00066013 -0.00908904
v -0.02542362 0.00349180 -0.01761201
v -0.02320167 0.00390259 -0.01927085
v -0.02602821 0.00380793 -0.01436776
v -0.02548240 0.00385750 -0.01113557
v -0.02394268 0.00290156 -0.00895875
v -0.02447876 0.00575481 -0.01750772
v -0.02391944 0.00783183 -0.01589327
v -0.02536069 0.00650896 -0.01499544
v -0.02527103 0.00701184 -0.01171601
v -0.02400671 0.00631235 -0.00907013
v -0.02407721 0.00895562 -0.01322728
v -0.02381390 0.00868187 -0.01036062
v -0.02230739 -0.00989760 -0.01414121
v -0.02049632 -0.01188612 -0.01414233
v -0.02055949 -0.01032945 -0.01624584
v -0.02225769 -0.01003057 -0.00998736
v -0.02045730 -0.01226191 -0.01167090
v -0.02185563 -0.01008451 -0.00659153
v -0.02048349 -0.01228406 -0.00817010
v -0.02171798 -0.00959153 -0.00332083
v -0.02052630 -0.01197414 -0.00495456
v -0.02035730 -0.01084284 -0.00243288
v -0.02190894 -0.00740539 -0.01743203
v -0.02009894 -0.00868573 -0.01833204
v -0.02015829 -0.00648192 -0.01916931
v -0.02256346 -0.00663592 -0.00737945
v -0.02230390 -0.00697194 -0.00392012
v -0.02087162 -0.00905756 -0.00060246
v -0.02207069 -0.00679085 0.00000983
v -0.02166313 -0.00603671 0.00316630
v -0.01993960 -0.00851118 0.00288759
v -0.02006006 -0.00685573 0.00492826
v -0.02256112 -0.00429802 -0.01805368
v -0.02078823 -0.00306988 -0.01942145
v -0.02251078 -0.00256723 -0.00699970
v -0.02218160 -0.00345290 -0.00394149
v -0.02236520 -0.00333875 -0.00034927
v -0.02200922 -0.00326906 0.00273499
v -0.02058290 -0.00421070 0.00483572
v -0.02065652 0.00022292 -0.01974786
v -0.02249025 0.00096144 -0.00688928
v -0.02212557 0.00007471 -0.00380962
v -0.02229961 0.00020623 -0.00022656
v -0.02193979 0.00030121 0.00282345
v -0.02052178 -0.00064901 0.00486479
v -0.02017281 0.00322456 -0.01971601
v -0.02257410 0.00452011 -0.00677189
v -0.02216660 0.00357381 -0.00375103
v -0.02234542 0.00366363 -0.00019010
v -0.02196942 0.00385902 0.00291603
v -0.02053505 0.00298784 0.00498052
v -0.02286713 0.00749180 -0.01782062
v -0.02072672 0.00693157 -0.01938643
v -0.02263404 0.00792431 -0.00781994
v -0.02182974 0.00729803 -0.00463368
v -0.02189236 0.00669391 -0.00099705
v -0.02178041 0.00689239 0.00232903
v -0.01990966 0.00702078 0.00500180
v -0.02171001 0.01007651 -0.01802711
v -0.01970073 0.01103462 -0.01924034
v -0.02234283 0.01030333 -0.01530908
v -0.02226269 0.01049823 -0.01113065
v -0.02156449 0.01029334 -0.00754511
v -0.02066454 0.01012169 -0.00529176
v -0.02049959 0.00904005 -0.00265451
v -0.02058271 0.00891602 0.00067877
v -0.02009559 0.00905512 0.00332012
v -0.02063248 0.01236263 -0.01701863
v -0.02051193 0.01255365 -0.01364053
v -0.02045255 0.01249142 -0.01001153
v -0.02020655 0.01192018 -0.00707493
v -0.01874557 -0.01327771 -0.01408774
v -0.01699091 -0.01528434 -0.01412423
v -0.01703325 -0.01378117 -0.01621486
v -0.01869401 -0.01394317 -0.01001249
v -0.01695518 -0.01563517 -0.01166893
v -0.01876624 -0.01389493 -0.00653855
v -0.01698846 -0.01562560 -0.00817872
v -0.01882279 -0.01328666 -0.00300125
v -0.01708402 -0.01560562 -0.00474626
v -0.01820092 -0.01294144 0.00023415
v -0.01649722 -0.01563726 -0.00076011
v -0.01656003 -0.01410139 0.00152257
v -0.01863032 -0.01104464 -0.01745149
v -0.01657292 -0.01221253 -0.01830394
v -0.01722687 -0.00983480 -0.01927657
v -0.01945424 -0.01066785 -0.00011417
v -0.01724781 -0.01228929 0.00259230
v -0.01850716 -0.01072029 0.00241092
v -0.01714940 -0.01052117 0.00449262
v -0.01700060 -0.00676303 -0.01969976
v -0.01872148 -0.00620311 0.00725504
v -0.01775843 -0.00862064 0.00622606
v -0.01806016 -0.00598892 0.01060357
v -0.01689347 -0.00835049 0.00902607
v -0.01666887 -0.00721577 0.01151985
v -0.01844383 -0.00615166 0.01769933
v -0.01681659 -0.00814852 0.01690455
v -0.01728458 -0.00632100 0.01502481
v -0.01834676 -0.00607915 0.02090319
v -0.01719658 -0.00846810 0.01986665
v -0.01643089 -0.00744972 0.02215732
v -0.01702776 -0.00330369 -0.01963458
v -0.01912182 -0.00262718 0.00693573
v -0.01873551 -0.00342852 0.00998892
v -0.01723888 -0.00573114 0.01298616
v -0.01856100 -0.00380276 0.01400430
v -0.01905888 -0.00334659 0.01713554
v -0.01854931 -0.00303738 0.01969628
v -0.01708235 -0.00419692 0.02182059
v -0.01705590 0.00021120 -0.01960404
v -0.01910164 0.00099993 0.00698737
v -0.01869727 0.00009111 0.00997974
v -0.01889307 0.00014852 0.01359118
v -0.01875050 0.00011985 0.01768549
v -0.01650568 -0.00017679 0.01946106
v -0.01671903 -0.00208732 0.02045751
v -0.01712645 0.00374022 -0.01961150
v -0.01921385 0.00428760 0.00662328
v -0.01828846 0.00379408 0.00915981
v -0.01843185 0.00364362 0.01325093
v -0.01899759 0.00331803 0.01671596
v -0.01726672 0.00200731 0.02035609
v -0.01833229 0.00410612 0.01980807
v -0.01617596 0.00382299 0.02188479
v -0.01720790 0.00727889 -0.01966422
v -0.01839408 0.00649412 0.00707565
v -0.01706781 0.00658260 0.00857928
v -0.01690020 0.00550399 0.01113127
v -0.01724832 0.00590665 0.01388732
v -0.01678919 0.00770446 0.01561380
v -0.01820864 0.00621142 0.01684291
v -0.01748594 0.00679213 0.01934270
v -0.01677253 0.00565851 0.02123465
v -0.01675908 0.01033130 -0.01971230
v -0.01926354 0.01167153 -0.00398119
v -0.01926055 0.01056349 -0.00072497
v -0.01858452 0.01118842 0.00215449
v -0.01778714 0.01013942 0.00473273
v -0.01709439 0.00854625 0.00684107
v -0.01689216 0.00829367 0.01771190
v -0.01896329 0.01386352 -0.01807328
v -0.01662513 0.01422546 -0.01933018
v -0.01880055 0.01424412 -0.01530118
v -0.01874994 0.01454637 -0.01120101
v -0.01916195 0.01379119 -0.00736396
v -0.01840392 0.01478190 -0.00439238
v -0.01821674 0.01341107 -0.00082688
v -0.01649944 0.01437139 0.00171295
v -0.01672874 0.01221584 0.00359123
v -0.01710347 0.01584707 -0.01698853
v -0.01698058 0.01592569 -0.01354044
v -0.01728894 0.01639891 -0.01051731
v -0.01662674 0.01791265 -0.00928657
v -0.01812203 0.01661613 -0.00769792
v -0.01740140 0.01724297 -0.00532806
v -0.01710642 0.01618103 -0.00274766
v -0.01657759 0.01591918 -0.00030812
v -0.01610373 0.01874339 -0.00701920
v -0.01527304 -0.01674454 -0.01411120
v -0.01357799 -0.01881835 -0.01418189
v -0.01357117 -0.01735113 -0.01624993
v -0.01526079 -0.01736577 -0.01008446
v -0.01358895 -0.01918369 -0.01174657
v -0.01533143 -0.01732431 -0.00656572
v -0.01326215 -0.01909752 -0.00777088
v -0.01540467 -0.01738719 -0.00308423
v -0.01319452 -0.01864328 -0.00387511
v -0.01512410 -0.01745955 -0.00068990
v -0.01321428 -0.01851232 -0.00055672
v -0.01359732 -0.01740037 0.00135798
v -0.01507332 -0.01455773 -0.01745022
v -0.01307032 -0.01577753 -0.01832096
v -0.01369023 -0.01337310 -0.01927599
v -0.01539105 -0.01331304 0.00410937
v -0.01388872 -0.01562910 0.00303007
v -0.01456870 -0.01300046 0.00708561
v -0.01306072 -0.01495397 0.00621832
v -0.01300231 -0.01409228 0.00840366
v -0.01345661 -0.01032900 -0.01970065
v -0.01577055 -0.01075202 0.00679000
v -0.01377502 -0.01254671 0.00964424
v -0.01516877 -0.01010808 0.01045375
v -0.01468062 -0.01024214 0.01409045
v -0.01349497 -0.01201328 0.01263045
v -0.01528746 -0.01002709 0.01758438
v -0.01348871 -0.01211053 0.01629033
v -0.01540263 -0.00992517 0.02094431
v -0.01360062 -0.01193597 0.01984124
v -0.01330086 -0.01052325 0.02222461
v -0.01343953 -0.00684289 -0.01959021
v -0.01590684 -0.00781395 0.01395619
v -0.01400872 -0.00657395 0.02211005
v -0.01346414 -0.00330447 -0.01951684
v -0.01514785 -0.00359720 0.02101709
v -0.01386299 -0.00258127 0.01906000
v -0.01357895 -0.00491462 0.02067672
v -0.01348438 0.00020924 -0.01951668
v -0.01385998 0.00004671 0.01868726
v -0.01353366 0.00370945 -0.01954382
v -0.01391496 0.00198992 0.02001399
v -0.01298820 0.00443904 0.02201371
v -0.01362825 0.00720919 -0.01958395
v -0.01562096 0.00812531 0.00990264
v -0.01580527 0.00746198 0.01337916
v -0.01563093 0.00827052 0.02031480
v -0.01426124 0.00647355 0.02234169
v -0.01370557 0.01077963 -0.01964612
v -0.01570683 0.01103193 0.00636344
v -0.01476332 0.01122416 0.00941053
v -0.01474092 0.01009836 0.01278031
v -0.01531100 0.00989707 0.01670034
v -0.01466111 0.01078871 0.02007094
v -0.01292726 0.01021442 0.02214378
v -0.01323566 0.01383813 -0.01972122
v -0.01548777 0.01371619 0.00375370
v -0.01464700 0.01375198 0.00620993
v -0.01381410 0.01366865 0.00846470
v -0.01351258 0.01259661 0.01109738
v -0.01354460 0.01239331 0.01445522
v -0.01370274 0.01255658 0.01806053
v -0.01322953 0.01258952 0.02086888
v -0.01536032 0.01739843 -0.01805444
v -0.01315779 0.01716402 -0.01925104
v -0.01521458 0.01774864 -0.01525511
v -0.01549335 0.01766150 -0.01181666
v -0.01594807 0.01801784 -0.00417637
v -0.01517064 0.01776506 -0.00143361
v -0.01441084 0.01718651 0.00110216
v -0.01340555 0.01600168 0.00375769
v -0.01273601 0.01531586 0.00704813
v -0.01356193 0.01884992 -0.01724989
v -0.01320789 0.01947160 -0.01402680
v -0.01417545 0.01944915 -0.00996570
v -0.01303920 0.01981133 -0.00678239
v -0.01361108 0.01910453 -0.00362780
v -0.01275034 0.01888534 0.00018279
v -0.01190456 -0.02031472 -0.01415220
v -0.00912311 -0.02200781 -0.01404706
v -0.01012477 -0.02034476 -0.01625212
v -0.01194883 -0.02093522 -0.01011820
v -0.00976297 -0.02228544 -0.01088565
v -0.01144376 -0.02061069 -0.00715867
v -0.00979269 -0.02203639 -0.00757341
v -0.00967234 -0.02104317 -0.00539219
v -0.01164198 -0.01814637 -0.01744158
v -0.00904128 -0.01881416 -0.01803427
v -0.01063259 -0.01644233 -0.01916211
v -0.01047335 -0.01953095 -0.00409895
v -0.01004239 -0.01902260 -0.00037472
v -0.01147701 -0.01711031 0.00360487
v -0.01012426 -0.01856307 0.00281941
v -0.00939104 -0.01761941 0.00514756
v -0.00996634 -0.01382180 -0.01969754
v -0.01078055 -0.01621389 0.00591270
v -0.01197569 -0.01380450 0.01102895
v -0.01015861 -0.01553967 0.00959928
v -0.01176039 -0.01381799 0.01445550
v -0.00957095 -0.01506716 0.01361323
v -0.01182981 -0.01391557 0.01809027
v -0.00997658 -0.01508828 0.01668332
v -0.01186245 -0.01343672 0.02091999
v -0.00958400 -0.01549901 0.01977562
v -0.00978878 -0.01413921 0.02219874
v -0.00992335 -0.01033735 -0.01959186
v -0.01032690 -0.01013287 0.02228194
v -0.00997091 -0.00679616 -0.01950714
v -0.01187368 -0.00644546 0.02024040
v -0.00970939 -0.00612100 0.01870013
v -0.00910349 -0.00833116 0.02062275
v -0.00997244 -0.00330963 -0.01950482
v -0.01141537 -0.00401937 0.01738722
v -0.01019392 -0.00268900 0.01586033
v -0.00959381 -0.00444899 0.01700376
v -0.00996966 0.00017132 -0.01950782
v -0.01174447 -0.00050365 0.01708619
v -0.00969043 -0.00055308 0.01587833
v -0.00998703 0.00366460 -0.01950822
v -0.01061207 0.00179910 0.01766015
v -0.01158023 0.00349942 0.02015658
v -0.00900523 0.00382558 0.01888040
v -0.01005074 0.00719243 -0.01952214
v -0.01055671 0.00524124 0.02095705
v -0.01017739 0.00783111 0.02214079
v -0.01013749 0.01072958 -0.01958436
v -0.01000226 0.01078912 0.02268231
v -0.01017793 0.01427305 -0.01967509
v -0.01236226 0.01442934 0.00967448
v -0.01182599 0.01420644 0.01264992
v -0.01189779 0.01429664 0.01627070
v -0.01180370 0.01439630 0.01973656
v -0.01033073 0.01329561 0.02212360
v -0.00931287 0.01796777 -0.01940787
v -0.01205189 0.01803915 0.00258009
v -0.01051195 0.01753343 0.00458047
v -0.00977320 0.01642644 0.00691613
v -0.00998338 0.01550031 0.01030542
v -0.00963097 0.01545356 0.01436173
v -0.00973866 0.01563236 0.01800980
v -0.00944906 0.01541608 0.02084458
v -0.01115508 0.01971466 -0.01746444
v -0.01132165 0.02096891 -0.01471935
v -0.00961812 0.02144425 -0.01653948
v -0.01192847 0.02117694 -0.01172628
v -0.01177558 0.02118677 -0.00844120
v -0.01062221 0.02090603 -0.00593867
v -0.00992162 0.01986527 -0.00358154
v -0.01007220 0.01938849 -0.00041021
v -0.00964543 0.01895900 0.00329863
v -0.00944314 0.02237217 -0.01387148
v -0.00982651 0.02251661 -0.01008816
v -0.00934806 0.02231426 -0.00676661
v -0.00696497 -0.02261786 -0.01408094
v -0.00731324 -0.02114316 -0.01620839
v -0.00666032 -0.02299246 -0.01118420
v -0.00666647 -0.02263759 -0.00733372
v -0.00810447 -0.02050482 -0.00338319
v -0.00676266 -0.02205617 -0.00416470
v -0.00603913 -0.02097168 -0.00184683
v -0.00625076 -0.01950455 -0.01824894
v -0.00680187 -0.01727635 -0.01937604
v -0.00689071 -0.01947028 -0.00054543
v -0.00642338 -0.01902301 0.00318799
v -0.00840848 -0.01737850 0.00768763
v -0.00658563 -0.01878306 0.00653903
v -0.00776075 -0.01705204 0.01046049
v -0.00649471 -0.01839408 0.00949964
v -0.00547644 -0.01726576 0.01179008
v -0.00815375 -0.01705235 0.02109269
v -0.00576193 -0.01853637 0.01988664
v -0.00710615 -0.01724411 0.01922699
v -0.00637976 -0.01720255 0.02201045
v -0.00642848 -0.01383423 -0.01961169
v -0.00711637 -0.01587612 0.01304309
v -0.00666465 -0.01599112 0.01649453
v -0.00660447 -0.01391461 0.02267498
v -0.00648360 -0.01027567 -0.01951715
v -0.00684133 -0.01068986 0.02188217
v -0.00649959 -0.00678886 -0.01950715
v -0.00659233 -0.00723855 0.01915024
v -0.00637834 -0.00901138 0.02030673
v -0.00649312 -0.00331233 -0.01951197
v -0.00847584 -0.00233290 0.01670868
v -0.00673796 -0.00427749 0.01830805
v -0.00648908 0.00016829 -0.01951078
v -0.00873262 0.00052221 0.01702152
v -0.00658895 -0.00008102 0.01832757
v -0.00648760 0.00365177 -0.01950754
v -0.00618057 0.00340750 0.01872063
v -0.00650751 0.00714888 -0.01950790
v -0.00853898 0.00681839 0.02034505
v -0.00604463 0.00668293 0.01923407
v -0.00660040 0.01066943 -0.01954515
v -0.00671308 0.00858106 0.02084363
v -0.00681252 0.01083370 0.02219594
v -0.00667548 0.01419653 -0.01961011
v -0.00624566 0.01435218 0.02227524
v -0.00622372 0.01725294 -0.01965938
v -0.00842280 0.01793526 0.00617834
v -0.00656885 0.01734729 0.00790741
v -0.00635597 0.01616383 0.00969183
v -0.00600343 0.01605462 0.01344166
v -0.00705504 0.01588755 0.01668578
v -0.00648262 0.01624398 0.02011015
v -0.00865710 0.02079070 -0.01831910
v -0.00611447 0.02117552 -0.01933259
v -0.00858034 0.02135604 -0.00436354
v -0.00699739 0.02083674 -0.00238209
v -0.00633422 0.01982599 -0.00000994
v -0.00646807 0.01937441 0.00317639
v -0.00615798 0.01876041 0.00630843
v -0.00720458 0.02281578 -0.01697860
v -0.00670000 0.02342253 -0.01391444
v -0.00654255 0.02322995 -0.01067092
v -0.00669300 0.02292709 -0.00734805
v -0.00620383 0.02239839 -0.00363305
v -0.00493912 -0.02375288 -0.01402805
v -0.00208600 -0.02580315 -0.01455497
v -0.00334948 -0.02393554 -0.01648950
v -0.00447422 -0.02411198 -0.01048310
v -0.00323440 -0.02546564 -0.01147440
v -0.00219401 -0.02434755 -0.00911844
v -0.00460588 -0.02161597 -0.01735339
v -0.00253866 -0.02290576 -0.01831122
v -0.00308188 -0.02047209 -0.01924169
v -0.00328574 -0.02289808 -0.00737594
v -0.00297341 -0.02260254 -0.00366908
v -0.00451181 -0.02049488 0.00017020
v -0.00315707 -0.02208545 -0.00056570
v -0.00253584 -0.02102866 0.00181833
v -0.00287232 -0.01734183 -0.01967095
v -0.00332443 -0.01950721 0.00306020
v -0.00292982 -0.01907675 0.00676608
v -0.00381698 -0.01869247 0.00985221
v -0.00216281 -0.01717015 0.01200669
v -0.00497570 -0.01769019 0.01756755
v -0.00237719 -0.01874304 0.01771170
v -0.00318253 -0.01700866 0.01574115
v -0.00350470 -0.01895439 0.02068705
v -0.00299621 -0.01716843 0.02221359
v -0.00292870 -0.01379270 -0.01955318
v -0.00333508 -0.01608405 0.01395040
v -0.00321929 -0.01368819 0.02220311
v -0.00301507 -0.01026768 -0.01950499
v -0.00460741 -0.01074601 0.02081777
v -0.00368192 -0.00945171 0.01932028
v -0.00204608 -0.01186401 0.02056380
v -0.00301967 -0.00678893 -0.01950993
v -0.00297415 -0.00685451 0.01868631
v -0.00301407 -0.00330939 -0.01951291
v -0.00295967 -0.00330864 0.01876765
v -0.00301064 0.00017069 -0.01951281
v -0.00315499 0.00033250 0.01879256
v -0.00300575 0.00365071 -0.01951063
v -0.00322571 0.00388978 0.01869369
v -0.00300877 0.00713324 -0.01950862
v -0.00227462 0.00692655 0.01907877
v -0.00306711 0.01063737 -0.01951950
v -0.00378092 0.00904244 0.02055696
v -0.00292451 0.01116134 0.02206470
v -0.00316617 0.01415824 -0.01955726
v -0.00251758 0.01375770 0.02265316
v -0.00322869 0.01774433 -0.01962700
v -0.00383406 0.01751489 0.00865684
v -0.00371046 0.01659377 0.01094847
v -0.00394498 0.01730426 0.01316150
v -0.00245056 0.01787036 0.01164082
v -0.00347036 0.01733138 0.01518614
v -0.00408982 0.01662554 0.01756963
v -0.00407388 0.01758869 0.02039626
v -0.00250641 0.01808142 0.01882328
v -0.00333613 0.01683390 0.02214603
v -0.00278919 0.02089568 -0.01975653
v -0.00497348 0.02131742 -0.00077513
v -0.00345225 0.02085025 0.00132933
v -0.00278876 0.01987611 0.00365644
v -0.00270652 0.01900225 0.00686144
v -0.00194582 0.01876289 0.01395475
v -0.00205940 0.01889573 0.02063404
v -0.00499333 0.02442225 -0.01811725
v -0.00274072 0.02426415 -0.01934980
v -0.00495740 0.02482395 -0.01530675
v -0.00469890 0.02471031 -0.01184605
v -0.00338395 0.02436593 -0.00948614
v -0.00275978 0.02319442 -0.00727063
v -0.00309377 0.02294756 -0.00372290
v -0.00261273 0.02243079 0.00004228
v -0.00276108 0.02613515 -0.01698087
v -0.00263233 0.02623333 -0.01344207
v -0.00231319 0.02573227 -0.01063963
v -0.00158380 -0.02479333 -0.01756487
v 0.00085536 -0.02565916 -0.01691655
v 0.00016707 -0.02342570 -0.01914636
v 0.00097884 -0.02638584 -0.01375524
v -0.00050283 -0.02588820 -0.01112187
v 0.00125056 -0.02431757 -0.00888978
v 0.00013975 -0.02042032 -0.01976819
v 0.00048959 -0.02288929 -0.00679308
v 0.00060410 -0.02252921 -0.00362989
v 0.00013565 -0.02264162 -0.00056547
v -0.00105109 -0.02052713 0.00383370
v 0.00013306 -0.02191527 0.00235627
v 0.00089354 -0.02053334 0.00436515
v 0.00065893 -0.01740921 -0.01966800
v 0.00063293 -0.01932602 0.00633983
v -0.00036276 -0.01860459 0.00988646
v 0.00128826 -0.01712005 0.01197256
v 0.00152512 -0.01886025 0.01738031
v -0.00024494 -0.01718903 0.01516193
v -0.00022396 -0.01903075 0.02029098
v 0.00054972 -0.01715033 0.02219057
v 0.00058182 -0.01380939 -0.01954535
v 0.00048744 -0.01612825 0.01352130
v 0.00043761 -0.01435823 0.02213443
v 0.00048493 -0.01028479 -0.01950769
v -0.00032330 -0.00995199 0.01905547
v 0.00121744 -0.01221945 0.02054756
v 0.00046390 -0.00678962 -0.01950874
v 0.00062378 -0.00690809 0.01866658
v 0.00046486 -0.00330689 -0.01951150
v 0.00058125 -0.00333596 0.01877671
v 0.00046861 0.00017327 -0.01951279
v 0.00036266 0.00025746 0.01875963
v 0.00047338 0.00365297 -0.01951234
v 0.00030448 0.00381714 0.01866272
v 0.00047597 0.00713425 -0.01951018
v 0.00124638 0.00686963 0.01907567
v 0.00045796 0.01062867 -0.01950706
v -0.00029220 0.00896325 0.02052229
v 0.00060346 0.01106906 0.02207190
v 0.00039500 0.01415639 -0.01951993
v 0.00046300 0.01428392 0.02265359
v 0.00029589 0.01774586 -0.01963137
v -0.00189803 0.01782898 0.00966766
v -0.00201070 0.01798300 0.01675336
v 0.00015332 0.01756564 0.02201937
v 0.00021888 0.02134172 -0.01979282
v -0.00144005 0.02138150 0.00293280
v 0.00002148 0.02089421 0.00441457
v 0.00068922 0.01972921 0.00589568
v 0.00022161 0.01886918 0.00977128
v 0.00037655 0.01902474 0.01294855
v -0.00034141 0.01902507 0.01696716
v 0.00038726 0.01901916 0.02000632
v 0.00084564 0.02407646 -0.01923470
v -0.00034772 0.02463528 -0.00890230
v 0.00133500 0.02321810 -0.00673677
v 0.00046215 0.02286786 -0.00364638
v 0.00003607 0.02298300 -0.00059165
v 0.00090805 0.02225621 0.00238291
v 0.00012291 0.02614925 -0.01766031
v 0.00051817 0.02673534 -0.01437150
v 0.00056804 0.02617761 -0.01109549
v 0.00251245 -0.02404851 -0.01837245
v 0.00351583 -0.02474433 -0.01650477
v 0.00364042 -0.02563524 -0.01410284
v 0.00297695 -0.02558354 -0.01109020
v 0.00435666 -0.02405920 -0.00942386
v 0.00509984 -0.02293077 -0.01750635
v 0.00321891 -0.02117967 -0.01946170
v 0.00442608 -0.02285476 -0.00717925
v 0.00357027 -0.02248601 -0.00416176
v 0.00344678 -0.02211036 -0.00027312
v 0.00240776 -0.02103523 0.00286512
v 0.00441761 -0.02052140 0.00126950
v 0.00412618 -0.01743263 -0.01967637
v 0.00410049 -0.01947483 0.00384053
v 0.00449395 -0.01905855 0.00724318
v 0.00312995 -0.01859123 0.00989140
v 0.00473693 -0.01716666 0.01197220
v 0.00505756 -0.01887197 0.01747472
v 0.00325267 -0.01721814 0.01512883
v 0.00335490 -0.01903122 0.02030548
v 0.00400964 -0.01715971 0.02225244
v 0.00411511 -0.01386495 -0.01958146
v 0.00394350 -0.01617323 0.01352865
v 0.00387548 -0.01438073 0.02215384
v 0.00402954 -0.01033164 -0.01952452
v 0.00319353 -0.01010600 0.01906128
v 0.00469068 -0.01225269 0.02058395
v 0.00396609 -0.00680415 -0.01951021
v 0.00414205 -0.00701297 0.01864809
v 0.00394689 -0.00330762 -0.01950947
v 0.00411854 -0.00344792 0.01872368
v 0.00394742 0.00017555 -0.01951154
v 0.00392755 0.00016382 0.01873040
v 0.00395212 0.00365523 -0.01951256
v 0.00382302 0.00381007 0.01863621
v 0.00395800 0.00713423 -0.01950962
v 0.00473719 0.00688458 0.01904357
v 0.00395947 0.01061345 -0.01950247
v 0.00319633 0.00894336 0.02051828
v 0.00406655 0.01109410 0.02206123
v 0.00391468 0.01412626 -0.01954152
v 0.00379795 0.01447532 0.02224805
v 0.00381494 0.01770951 -0.01966342
v 0.00229224 0.01761514 0.01086347
v 0.00359642 0.01782850 0.00874023
v 0.00483530 0.01639322 0.01037455
v 0.00420640 0.01620494 0.01345551
v 0.00205284 0.01771451 0.01420934
v 0.00427309 0.01635442 0.01707596
v 0.00212490 0.01784014 0.01792350
v 0.00432627 0.01602919 0.02034565
v 0.00215702 0.01743000 0.02076111
v 0.00390408 0.02085338 -0.01921909
v 0.00198590 0.02091355 0.00386861
v 0.00351804 0.02140184 0.00184761
v 0.00462776 0.01985858 0.00339646
v 0.00395080 0.01896140 0.00700664
v 0.00419153 0.02296888 -0.01765632
v 0.00234638 0.02512623 -0.01759661
v 0.00447474 0.02452886 -0.01595876
v 0.00307200 0.02464598 -0.00916521
v 0.00497764 0.02320558 -0.00736225
v 0.00354360 0.02282042 -0.00416416
v 0.00384973 0.02245434 -0.00081027
v 0.00321182 0.02602579 -0.01509712
v 0.00374608 0.02592491 -0.01184683
v 0.00535646 -0.02417911 -0.01464995
v 0.00566524 -0.02435310 -0.01178591
v 0.00811081 -0.02214494 -0.01721280
v 0.00699815 -0.02033181 -0.01925009
v 0.00756669 -0.02300617 -0.01400134
v 0.00699772 -0.02297538 -0.01010574
v 0.00792307 -0.02209948 -0.00723591
v 0.00648245 -0.02197331 -0.00356745
v 0.00599319 -0.02099473 -0.00075542
v 0.00794836 -0.02049800 -0.00236367
v 0.00714201 -0.01698068 -0.01967937
v 0.00764492 -0.01945115 0.00019318
v 0.00799344 -0.01902309 0.00360348
v 0.00703700 -0.01905258 0.00620296
v 0.00695748 -0.01852204 0.00956267
v 0.00767420 -0.01700310 0.01148844
v 0.00771417 -0.01851037 0.01783381
v 0.00653866 -0.01725899 0.01542677
v 0.00666255 -0.01876005 0.02035947
v 0.00772771 -0.01644843 0.02213567
v 0.00763550 -0.01393691 -0.01961076
v 0.00790491 -0.01606268 0.01375338
v 0.00736926 -0.01357097 0.02217144
v 0.00759245 -0.01037083 -0.01956753
v 0.00699533 -0.00985577 0.01919726
v 0.00762594 -0.01176639 0.02085102
v 0.00751051 -0.00684808 -0.01952666
v 0.00717568 -0.00657181 0.01865252
v 0.00744744 -0.00332385 -0.01951020
v 0.00764740 -0.00347681 0.01869611
v 0.00742846 0.00017282 -0.01950781
v 0.00748528 0.00020104 0.01863607
v 0.00742931 0.00365561 -0.01950715
v 0.00741342 0.00379491 0.01857995
v 0.00743483 0.00713576 -0.01950574
v 0.00805005 0.00645711 0.01925793
v 0.00742391 0.01062284 -0.01953088
v 0.00647788 0.00876301 0.02053677
v 0.00769506 0.01051284 0.02216256
v 0.00737246 0.01417090 -0.01964868
v 0.00745926 0.01385281 0.02224597
v 0.00767494 0.01769324 -0.01937358
v 0.00635361 0.01755105 0.00814113
v 0.00823707 0.01617512 0.00996740
v 0.00729573 0.01581281 0.01360624
v 0.00735417 0.01592432 0.01719145
v 0.00743087 0.01561633 0.02041382
v 0.00704547 0.01990476 -0.01820736
v 0.00551039 0.02113527 -0.01797483
v 0.00793806 0.02134299 -0.01656242
v 0.00552127 0.02090515 0.00019630
v 0.00707847 0.02137630 -0.00186094
v 0.00814101 0.01981592 -0.00027702
v 0.00752640 0.01939399 0.00314395
v 0.00766195 0.01882699 0.00564129
v 0.00735428 0.02312242 -0.01442751
v 0.00568857 0.02470793 -0.01328540
v 0.00762390 0.02329726 -0.01042886
v 0.00543460 0.02440437 -0.01046791
v 0.00760367 0.02293093 -0.00724815
v 0.00741013 0.02244477 -0.00442469
v 0.00940525 -0.02060563 -0.01830819
v 0.01129014 -0.02066753 -0.01623760
v 0.01059866 -0.02208356 -0.01425591
v 0.00996984 -0.02203828 -0.01065685
v 0.00974359 -0.02102230 -0.00760190
v 0.01150445 -0.02055747 -0.00935839
v 0.00902336 -0.02076063 -0.00488789
v 0.01141253 -0.01909080 -0.01778739
v 0.01041436 -0.01740900 -0.01925165
v 0.01167656 -0.01959559 -0.00683975
v 0.01080143 -0.01939353 -0.00307899
v 0.01100410 -0.01904107 -0.00050719
v 0.01109052 -0.01872118 0.00264000
v 0.01003485 -0.01855699 0.00683417
v 0.00951589 -0.01758186 0.00980021
v 0.01107911 -0.01736205 0.00848215
v 0.00886945 -0.01711014 0.01678659
v 0.00923241 -0.01751109 0.01969091
v 0.01065003 -0.01350167 -0.01962307
v 0.01093896 -0.01578738 0.01036316
v 0.01160506 -0.01511876 0.01421769
v 0.01115734 -0.01599346 0.01753417
v 0.01095868 -0.01600797 0.02087595
v 0.01107023 -0.01436645 0.02231684
v 0.01112153 -0.01042749 -0.01960539
v 0.00946802 -0.01001997 0.02031292
v 0.01109855 -0.01103484 0.02214375
v 0.01107221 -0.00689000 -0.01956805
v 0.01047723 -0.00681692 0.01914559
v 0.01145669 -0.00840590 0.02088402
v 0.01099233 -0.00336793 -0.01952307
v 0.01062986 -0.00294109 0.01862724
v 0.01092821 0.00016115 -0.01950634
v 0.01105763 0.00016111 0.01857387
v 0.01090591 0.00366533 -0.01951729
v 0.01114432 0.00333139 0.01915007
v 0.01090483 0.00716140 -0.01956755
v 0.01043979 0.00571225 0.02023862
v 0.00896334 0.00770502 0.02077884
v 0.01135954 0.00690117 0.02194941
v 0.01088269 0.01066138 -0.01967016
v 0.01102337 0.01068496 0.02269351
v 0.01083308 0.01419034 -0.01976729
v 0.01079924 0.01393287 0.02210706
v 0.01147472 0.01692390 -0.01916390
v 0.00896981 0.01737860 0.00722663
v 0.01057476 0.01791155 0.00523253
v 0.01137987 0.01647165 0.00648300
v 0.01153521 0.01552228 0.00947972
v 0.01042924 0.01546528 0.01286976
v 0.01049454 0.01558966 0.01646746
v 0.01060652 0.01548682 0.01988557
v 0.01077082 0.01914902 -0.01754430
v 0.01131436 0.02095067 -0.01566369
v 0.00908454 0.02090616 -0.00345280
v 0.01087237 0.02097223 -0.00528218
v 0.01056790 0.01961254 -0.00330825
v 0.01105662 0.01884337 -0.00099180
v 0.01035331 0.01883296 0.00261360
v 0.01035261 0.02220584 -0.01442065
v 0.01069934 0.02259326 -0.01169056
v 0.01040010 0.02245816 -0.00785715
v 0.01250930 -0.02097246 -0.01414152
v 0.01259156 -0.02085983 -0.01192843
v 0.01296136 -0.01705750 -0.01818572
v 0.01444234 -0.01742470 -0.01620797
v 0.01417457 -0.01913071 -0.01373230
v 0.01398970 -0.01906202 -0.01003674
v 0.01448086 -0.01859432 -0.00692037
v 0.01407823 -0.01868780 -0.00390544
v 0.01350362 -0.01857597 -0.00029567
v 0.01339648 -0.01767274 0.00277514
v 0.01483127 -0.01690988 0.00160358
v 0.01246413 -0.01719457 0.00605941
v 0.01496668 -0.01547525 -0.01773436
v 0.01395368 -0.01386774 -0.01920359
v 0.01456013 -0.01584767 0.00407253
v 0.01384240 -0.01514862 0.00712188
v 0.01315304 -0.01398482 0.00972072
v 0.01467409 -0.01320394 0.00848979
v 0.01285278 -0.01374799 0.01247884
v 0.01402495 -0.01406306 0.01510487
v 0.01425818 -0.01506435 0.01745554
v 0.01369005 -0.01512900 0.02048660
v 0.01426769 -0.01293979 0.02211134
v 0.01414684 -0.00999220 -0.01962281
v 0.01440486 -0.01215196 0.01109041
v 0.01468630 -0.01251874 0.01388287
v 0.01518713 -0.00971519 0.02235159
v 0.01462655 -0.00692219 -0.01960912
v 0.01305952 -0.00633629 0.02035054
v 0.01388810 -0.00760990 0.02197608
v 0.01457704 -0.00336795 -0.01958573
v 0.01376612 -0.00355620 0.01903480
v 0.01567256 -0.00524223 0.02067308
v 0.01448655 0.00016822 -0.01958957
v 0.01479500 -0.00031665 0.01923567
v 0.01443906 0.00366692 -0.01962560
v 0.01403240 0.00197752 0.02030776
v 0.01243316 0.00407280 0.02078342
v 0.01493992 0.00327615 0.02202109
v 0.01440230 0.00713025 -0.01967420
v 0.01459400 0.00707482 0.02271919
v 0.01454685 0.01049516 -0.01938756
v 0.01421808 0.01095094 0.02221469
v 0.01395171 0.01401676 -0.01917399
v 0.01290703 0.01418195 0.01116211
v 0.01397304 0.01446900 0.00852104
v 0.01473944 0.01294744 0.00972152
v 0.01446717 0.01239963 0.01271153
v 0.01271404 0.01424174 0.01457662
v 0.01447282 0.01249793 0.01636548
v 0.01280602 0.01437303 0.01818547
v 0.01456119 0.01236754 0.01985438
v 0.01282560 0.01389764 0.02094851
v 0.01482873 0.01595408 -0.01768088
v 0.01270361 0.01777145 -0.01802412
v 0.01453278 0.01773513 -0.01622062
v 0.01278163 0.01820336 -0.00367067
v 0.01444343 0.01758689 -0.00563016
v 0.01443571 0.01604828 -0.00365550
v 0.01449879 0.01577965 -0.00124575
v 0.01282129 0.01758247 0.00037295
v 0.01419161 0.01591788 0.00273443
v 0.01233542 0.01744986 0.00344491
v 0.01406003 0.01536669 0.00629566
v 0.01377471 0.01944666 -0.01484931
v 0.01269846 0.02126021 -0.01335418
v 0.01460647 0.01953084 -0.01166772
v 0.01288983 0.02130822 -0.01003985
v 0.01451502 0.01927727 -0.00838148
v 0.01280997 0.02042617 -0.00698260
v 0.01596294 -0.01730272 -0.01417377
v 0.01629243 -0.01730426 -0.01179432
v 0.01627474 -0.01737655 -0.00827205
v 0.01626243 -0.01706610 -0.00426957
v 0.01564623 -0.01697996 -0.00063733
v 0.01653951 -0.01347662 -0.01816821
v 0.01800348 -0.01393096 -0.01619935
v 0.01766814 -0.01556946 -0.01378999
v 0.01803645 -0.01560694 -0.01011757
v 0.01797698 -0.01567719 -0.00652422
v 0.01773853 -0.01517247 -0.00361682
v 0.01686612 -0.01473352 -0.00099792
v 0.01820552 -0.01337091 -0.00186901
v 0.01624106 -0.01402717 0.00261784
v 0.01556658 -0.01335772 0.00630280
v 0.01582645 -0.01285292 0.01705837
v 0.01573861 -0.01402226 0.02012476
v 0.01857973 -0.01191433 -0.01772337
v 0.01752729 -0.01029520 -0.01922499
v 0.01796317 -0.01231442 0.00064332
v 0.01772753 -0.01158779 0.00333973
v 0.01667430 -0.01062289 0.00637449
v 0.01820441 -0.00985262 0.00509187
v 0.01574744 -0.01033560 0.00986725
v 0.01574962 -0.01056095 0.01367058
v 0.01667537 -0.00964915 0.01660433
v 0.01646151 -0.01113363 0.02023764
v 0.01767984 -0.00644111 -0.01967997
v 0.01765382 -0.00826806 0.00709245
v 0.01668863 -0.00744362 0.00944537
v 0.01810680 -0.00617174 0.00856599
v 0.01662793 -0.00733063 0.01301877
v 0.01775188 -0.00719677 0.01559337
v 0.01814094 -0.00840720 0.01830425
v 0.01769850 -0.00862739 0.02097291
v 0.01711742 -0.00698747 0.02179074
v 0.01816030 -0.00338908 -0.01973450
v 0.01790946 -0.00507416 0.01106165
v 0.01819796 -0.00541144 0.01373389
v 0.01755419 -0.00287692 0.01938065
v 0.01829432 -0.00506722 0.02022528
v 0.01810477 0.00009167 -0.01974696
v 0.01772306 -0.00100207 0.02038784
v 0.01614984 0.00041607 0.02090761
v 0.01802728 0.00100878 0.02175322
v 0.01818495 0.00342489 -0.01936802
v 0.01684481 0.00447811 0.01341318
v 0.01753966 0.00391889 0.01173317
v 0.01805480 0.00245395 0.01326000
v 0.01814812 0.00330343 0.01491058
v 0.01781746 0.00438173 0.02232667
v 0.01753062 0.00692391 -0.01906771
v 0.01652322 0.00717228 0.01070936
v 0.01766731 0.00762570 0.00810072
v 0.01807472 0.00550872 0.00970694
v 0.01648598 0.00773915 0.01419643
v 0.01790864 0.00616317 0.01553531
v 0.01737497 0.00783530 0.02210519
v 0.01831101 0.00879960 -0.01758783
v 0.01639122 0.01163089 -0.01799115
v 0.01850170 0.01059697 -0.01617949
v 0.01673074 0.01050907 0.00690977
v 0.01776790 0.01134989 0.00459061
v 0.01818265 0.00928291 0.00611215
v 0.01576611 0.01097777 0.00995018
v 0.01568315 0.01019236 0.01356157
v 0.01775480 0.00860120 0.01685431
v 0.01624419 0.01042252 0.01754143
v 0.01819369 0.00888607 0.01977001
v 0.01638045 0.01030274 0.02090100
v 0.01585884 0.01385337 -0.01802065
v 0.01767001 0.01341965 -0.01618769
v 0.01621208 0.01463284 -0.00349592
v 0.01772224 0.01463199 -0.00579218
v 0.01821319 0.01281804 -0.00406013
v 0.01798300 0.01234807 -0.00116284
v 0.01626023 0.01412036 0.00045828
v 0.01798967 0.01230158 0.00211467
v 0.01626440 0.01372691 0.00396706
v 0.01561826 0.01337824 0.00708632
v 0.01729076 0.01592844 -0.01483299
v 0.01617024 0.01770758 -0.01333681
v 0.01811623 0.01601209 -0.01166273
v 0.01631556 0.01775177 -0.00998209
v 0.01801230 0.01577177 -0.00835410
v 0.01619264 0.01686028 -0.00687895
v 0.01950695 -0.01386645 -0.01415841
v 0.01976835 -0.01351495 -0.01128719
v 0.01928963 -0.01347315 -0.00740716
v 0.01904678 -0.01344179 -0.00408913
v 0.02020188 -0.00995959 -0.01822762
v 0.02082321 -0.01107953 -0.01642690
v 0.02121484 -0.01220024 -0.01374035
v 0.02128775 -0.01167869 -0.01066430
v 0.02031871 -0.01120062 -0.00803145
v 0.02172912 -0.00993533 -0.00886526
v 0.01998613 -0.01038171 -0.00426532
v 0.01932619 -0.01051668 -0.00056645
v 0.01909019 -0.00993502 0.00289598
v 0.02199125 -0.00898339 -0.01754269
v 0.02068820 -0.00714235 -0.01924740
v 0.02142832 -0.00884601 -0.00633127
v 0.02116020 -0.00811041 -0.00363258
v 0.02015992 -0.00722649 -0.00055912
v 0.02166140 -0.00638207 -0.00188353
v 0.01966468 -0.00684411 0.00313406
v 0.01916161 -0.00696676 0.00625707
v 0.01927501 -0.00596207 0.01644309
v 0.01915553 -0.00662325 0.01970798
v 0.02129882 -0.00347205 -0.01945119
v 0.02116452 -0.00487616 0.00018433
v 0.02016064 -0.00367514 0.00308166
v 0.02167392 -0.00284325 0.00180863
v 0.01969111 -0.00329500 0.00669723
v 0.01936737 -0.00340775 0.00994335
v 0.01950509 -0.00322701 0.01390923
v 0.01968852 -0.00352394 0.01797968
v 0.02121448 -0.00020364 -0.01921150
v 0.02116027 -0.00133562 0.00383473
v 0.01996012 0.00034275 0.00633857
v 0.02118736 0.00067323 0.00435821
v 0.01971949 -0.00030010 0.00976971
v 0.01947328 0.00064252 0.01354837
v 0.02002607 0.00019228 0.01719710
v 0.01942362 -0.00056588 0.01987933
v 0.02110770 0.00200002 -0.01824111
v 0.01999919 0.00460273 -0.01794254
v 0.02184928 0.00328535 -0.01670655
v 0.02014056 0.00392905 0.00382903
v 0.02117821 0.00421784 0.00128314
v 0.02171699 0.00221210 0.00287280
v 0.01964869 0.00369493 0.00677041
v 0.01917622 0.00296993 0.01012922
v 0.01954386 0.00409549 0.01725197
v 0.01964608 0.00280501 0.02042404
v 0.01942163 0.00678877 -0.01789501
v 0.02120299 0.00639759 -0.01614353
v 0.02016424 0.00781187 -0.00328362
v 0.02115606 0.00762910 -0.00577201
v 0.02161838 0.00588881 -0.00398277
v 0.02139889 0.00522299 -0.00127447
v 0.01999859 0.00704903 0.00053173
v 0.01966933 0.00727587 0.00313062
v 0.01919512 0.00660932 0.00650862
v 0.01915161 0.00736393 0.01791833
v 0.01940274 0.00625881 0.02047019
v 0.02074447 0.00910363 -0.01499019
v 0.02000697 0.01174573 -0.01383254
v 0.02187751 0.01030241 -0.01283477
v 0.02021077 0.01048906 -0.00696529
v 0.02127158 0.01133217 -0.00933980
v 0.02169954 0.00927574 -0.00779786
v 0.01926010 0.01097034 -0.00382824
v 0.01925522 0.01023959 -0.00035381
v 0.01915660 0.00974868 0.00328202
v 0.01909087 0.01420879 -0.01362894
v 0.02134413 0.01184623 -0.01133648
v 0.01979504 0.01349701 -0.01038950
v 0.01909328 0.01329069 -0.00670943
v 0.02288015 -0.00948917 -0.01460581
v 0.02270347 -0.01007524 -0.01109545
v 0.02291885 -0.00651575 -0.01735394
v 0.02331729 -0.00659708 -0.01395334
v 0.02327522 -0.00705245 -0.01085963
v 0.02289725 -0.00712535 -0.00749509
v 0.02261114 -0.00645460 -0.00405312
v 0.02298133 -0.00267930 -0.01770386
v 0.02330586 -0.00405065 -0.01505389
v 0.02355069 -0.00303789 -0.01130203
v 0.02322052 -0.00339674 -0.00722729
v 0.02331132 -0.00327121 -0.00371134
v 0.02276198 -0.00347631 -0.00060793
v 0.02272503 0.00065861 -0.01719929
v 0.02361390 -0.00004096 -0.01399498
v 0.02480946 -0.00036738 -0.01183455
v 0.02478168 -0.00086159 -0.01026704
v 0.02352079 0.00038111 -0.00764505
v 0.02480685 0.00070151 -0.00977182
v 0.02326783 0.00029353 -0.00353732
v 0.02335706 -0.00020998 -0.00056146
v 0.02257018 -0.00015615 0.00234276
v 0.02300667 0.00405537 -0.01438024
v 0.02483463 0.00119572 -0.01133933
v 0.02360387 0.00329934 -0.01033259
v 0.02317630 0.00377282 -0.00711510
v 0.02281845 0.00374186 -0.00396861
v 0.02271233 0.00270322 0.00009008
v 0.02275058 0.00789362 -0.01351505
v 0.02334366 0.00685454 -0.01127661
v 0.02274347 0.00663515 -0.00735810
v 0.02263823 0.00978696 -0.01044975
v 0.02558949 0.00017369 -0.01080322
f 3 2 1
f 5 4 1
f 5 1 2
f 6 4 5
f 3 1 7
f 3 7 8
f 9 1 4
f 7 1 9
f 4 6 10
f 4 10 9
f 13 12 11
f 11 12 8
f 7 11 8
f 14 11 7
f 15 7 9
f 14 7 15
f 9 10 16
f 9 16 15
f 13 11 17
f 13 17 18
f 19 11 14
f 17 11 19
f 20 14 15
f 19 14 20
f 15 16 21
f 15 21 20
f 22 18 17
f 24 23 22
f 17 24 22
f 19 24 17
f 25 19 20
f 24 19 25
f 20 21 26
f 20 26 25
f 27 23 24
f 27 24 25
f 27 25 28
f 28 25 26
f 31 30 29
f 33 32 29
f 33 29 30
f 35 34 32
f 35 32 33
f 37 36 34
f 37 34 35
f 38 36 37
f 41 40 39
f 39 40 31
f 39 31 29
f 3 39 29
f 2 3 29
f 2 29 5
f 5 29 32
f 5 32 6
f 32 42 6
f 32 34 42
f 43 34 36
f 42 34 43
f 36 38 44
f 45 36 44
f 43 36 45
f 47 46 45
f 47 45 44
f 48 46 47
f 41 39 49
f 41 49 50
f 8 49 3
f 3 49 39
f 51 10 42
f 42 10 6
f 52 42 43
f 51 42 52
f 53 43 45
f 52 43 53
f 54 45 46
f 53 45 54
f 46 48 55
f 46 55 54
f 50 49 12
f 13 50 12
f 56 50 13
f 12 49 8
f 57 16 51
f 51 16 10
f 58 51 52
f 57 51 58
f 59 52 53
f 58 52 59
f 60 53 54
f 59 53 60
f 54 55 61
f 54 61 60
f 18 56 13
f 18 62 56
f 63 21 57
f 57 21 16
f 64 57 58
f 63 57 64
f 65 58 59
f 64 58 65
f 66 59 60
f 65 59 66
f 60 61 67
f 60 67 66
f 18 22 68
f 69 18 68
f 62 18 69
f 23 68 22
f 70 26 63
f 63 26 21
f 71 63 64
f 70 63 71
f 72 64 65
f 71 64 72
f 73 65 66
f 72 65 73
f 66 67 74
f 66 74 73
f 69 68 75
f 69 75 76
f 27 77 23
f 77 68 23
f 77 75 68
f 28 78 27
f 27 78 77
f 26 70 28
f 70 78 28
f 70 79 78
f 71 81 80
f 79 71 80
f 70 71 79
f 81 71 72
f 81 72 82
f 82 72 73
f 82 73 83
f 83 73 74
f 84 76 75
f 84 75 77
f 84 77 85
f 85 77 78
f 85 78 86
f 86 78 79
f 86 79 87
f 87 79 80
f 90 89 88
f 92 91 88
f 92 88 89
f 94 93 91
f 94 91 92
f 96 95 93
f 96 93 94
f 98 97 95
f 98 95 96
f 99 97 98
f 102 101 100
f 100 101 90
f 100 90 88
f 31 100 88
f 30 31 88
f 30 88 33
f 33 88 91
f 33 91 35
f 35 91 93
f 35 93 37
f 37 93 95
f 37 95 38
f 95 103 38
f 95 97 103
f 97 99 104
f 105 97 104
f 103 97 105
f 106 105 104
f 102 100 40
f 41 102 40
f 107 102 41
f 40 100 31
f 103 44 38
f 44 103 47
f 47 103 105
f 109 108 48
f 109 48 47
f 106 109 47
f 105 106 47
f 111 110 108
f 111 108 109
f 112 110 111
f 115 114 113
f 117 116 113
f 117 113 114
f 118 116 117
f 50 107 41
f 50 119 107
f 120 55 108
f 108 55 48
f 121 108 110
f 120 108 121
f 110 112 122
f 123 110 122
f 121 110 123
f 123 122 115
f 113 123 115
f 124 123 113
f 125 113 116
f 124 113 125
f 116 118 126
f 116 126 125
f 56 119 50
f 56 127 119
f 128 61 120
f 120 61 55
f 129 120 121
f 128 120 129
f 130 121 123
f 129 121 130
f 131 123 124
f 130 123 131
f 125 133 132
f 131 125 132
f 124 125 131
f 133 125 126
f 62 127 56
f 62 134 127
f 135 67 128
f 128 67 61
f 136 128 129
f 135 128 136
f 137 129 130
f 136 129 137
f 138 130 131
f 137 130 138
f 131 132 139
f 140 131 139
f 138 131 140
f 141 140 139
f 69 134 62
f 69 142 134
f 143 74 135
f 135 74 67
f 136 145 144
f 143 136 144
f 135 136 143
f 145 136 137
f 145 137 146
f 148 147 146
f 137 148 146
f 138 148 137
f 140 150 149
f 148 140 149
f 138 140 148
f 150 140 141
f 76 142 69
f 76 151 142
f 152 80 81
f 82 153 81
f 81 153 152
f 83 154 82
f 82 154 153
f 155 154 83
f 155 83 74
f 156 155 74
f 143 156 74
f 156 143 144
f 157 147 148
f 157 148 149
f 76 84 158
f 159 76 158
f 151 76 159
f 85 160 84
f 84 160 158
f 86 161 85
f 85 161 160
f 87 162 86
f 86 162 161
f 80 152 87
f 152 162 87
f 152 163 162
f 164 152 153
f 163 152 164
f 154 166 165
f 164 154 165
f 153 154 164
f 166 154 155
f 167 159 158
f 167 158 160
f 167 160 168
f 168 160 161
f 168 161 169
f 171 170 169
f 161 171 169
f 162 171 161
f 163 173 172
f 171 163 172
f 162 163 171
f 173 163 164
f 173 164 174
f 174 164 165
f 175 170 171
f 175 171 172
f 178 177 176
f 180 179 176
f 180 176 177
f 182 181 179
f 182 179 180
f 184 183 181
f 184 181 182
f 186 185 183
f 186 183 184
f 187 185 186
f 190 189 188
f 188 189 178
f 188 178 176
f 90 188 176
f 89 90 176
f 89 176 92
f 92 176 179
f 92 179 94
f 94 179 181
f 94 181 96
f 96 181 183
f 96 183 98
f 98 183 185
f 192 191 99
f 192 99 98
f 187 192 98
f 185 187 98
f 194 193 191
f 194 191 192
f 195 193 194
f 190 188 101
f 102 190 101
f 196 190 102
f 101 188 90
f 191 104 99
f 104 191 106
f 191 197 106
f 191 193 197
f 193 195 198
f 199 193 198
f 197 193 199
f 201 200 199
f 201 199 198
f 203 202 200
f 203 200 201
f 205 204 202
f 205 202 203
f 206 204 205
f 107 196 102
f 107 207 196
f 197 109 106
f 109 197 111
f 111 197 199
f 111 199 112
f 199 208 112
f 199 200 208
f 115 208 114
f 208 202 114
f 208 200 202
f 114 202 117
f 117 202 204
f 118 117 204
f 206 118 204
f 209 118 206
f 119 207 107
f 119 210 207
f 208 122 112
f 122 208 115
f 213 212 211
f 209 213 211
f 126 209 211
f 118 209 126
f 127 210 119
f 127 214 210
f 211 212 133
f 212 132 133
f 212 215 132
f 211 133 126
f 134 214 127
f 134 216 214
f 215 217 132
f 132 217 139
f 141 139 217
f 141 217 218
f 142 216 134
f 142 219 216
f 220 144 145
f 146 221 145
f 145 221 220
f 147 221 146
f 222 149 150
f 223 222 150
f 141 223 150
f 218 223 141
f 151 219 142
f 151 224 219
f 225 155 156
f 144 220 156
f 220 225 156
f 220 226 225
f 227 220 221
f 226 220 227
f 157 228 147
f 228 221 147
f 228 227 221
f 149 222 157
f 222 228 157
f 222 229 228
f 222 223 230
f 222 230 229
f 159 224 151
f 159 231 224
f 232 165 166
f 155 225 166
f 225 232 166
f 225 233 232
f 226 235 234
f 233 226 234
f 225 226 233
f 235 226 227
f 235 227 236
f 236 227 228
f 236 228 237
f 237 228 229
f 237 229 238
f 238 229 230
f 159 167 239
f 240 159 239
f 231 159 240
f 168 241 167
f 167 241 239
f 169 242 168
f 168 242 241
f 170 242 169
f 243 172 173
f 174 244 173
f 173 244 243
f 245 244 174
f 245 174 165
f 246 245 165
f 232 246 165
f 246 232 233
f 246 233 247
f 247 233 234
f 248 240 239
f 248 239 241
f 248 241 249
f 249 241 242
f 249 242 250
f 250 242 170
f 175 250 170
f 251 250 175
f 175 172 243
f 252 175 243
f 251 175 252
f 252 243 244
f 252 244 253
f 253 244 245
f 256 255 254
f 258 257 254
f 258 254 255
f 260 259 257
f 260 257 258
f 261 259 260
f 264 263 262
f 262 263 256
f 262 256 254
f 178 262 254
f 177 178 254
f 177 254 180
f 180 254 257
f 180 257 182
f 182 257 259
f 261 265 259
f 265 182 259
f 265 184 182
f 184 266 186
f 265 266 184
f 268 267 187
f 186 268 187
f 266 268 186
f 269 267 268
f 264 262 189
f 190 264 189
f 270 264 190
f 189 262 178
f 267 192 187
f 269 271 267
f 271 192 267
f 271 194 192
f 273 272 195
f 194 273 195
f 271 273 194
f 275 274 272
f 275 272 273
f 277 276 274
f 277 274 275
f 279 278 276
f 279 276 277
f 280 278 279
f 196 270 190
f 196 281 270
f 272 198 195
f 198 272 201
f 201 272 274
f 201 274 203
f 203 274 276
f 203 276 205
f 205 276 278
f 206 205 278
f 280 206 278
f 282 206 280
f 207 281 196
f 207 283 281
f 286 285 284
f 282 286 284
f 209 282 284
f 206 282 209
f 210 283 207
f 210 287 283
f 290 289 288
f 290 288 285
f 285 288 284
f 288 212 284
f 212 213 284
f 284 213 209
f 214 287 210
f 214 291 287
f 288 289 292
f 292 289 293
f 292 215 212
f 292 212 288
f 216 291 214
f 216 294 291
f 293 295 292
f 295 297 296
f 295 296 217
f 292 295 217
f 215 292 217
f 296 218 217
f 219 294 216
f 219 298 294
f 297 299 296
f 218 296 299
f 300 218 299
f 223 218 300
f 224 298 219
f 224 301 298
f 300 230 223
f 302 230 300
f 231 301 224
f 231 303 301
f 304 234 235
f 236 305 235
f 235 305 304
f 237 306 236
f 236 306 305
f 238 307 237
f 237 307 306
f 308 307 238
f 230 308 238
f 302 308 230
f 240 303 231
f 240 309 303
f 310 245 246
f 310 246 311
f 246 312 311
f 246 247 312
f 247 234 304
f 313 247 304
f 312 247 313
f 313 304 305
f 313 305 314
f 314 305 306
f 314 306 315
f 315 306 307
f 315 307 316
f 316 307 308
f 317 309 240
f 317 240 248
f 319 317 318
f 317 249 318
f 317 248 249
f 250 320 249
f 249 320 318
f 251 321 250
f 250 321 320
f 321 251 322
f 251 323 322
f 251 252 323
f 324 252 253
f 324 323 252
f 253 245 310
f 325 253 310
f 324 253 325
f 325 310 311
f 326 319 318
f 326 318 320
f 326 320 327
f 327 320 321
f 327 321 328
f 328 321 322
f 330 329 255
f 330 255 256
f 255 331 258
f 329 331 255
f 258 332 260
f 331 332 258
f 334 333 261
f 260 334 261
f 332 334 260
f 335 333 334
f 337 336 263
f 337 263 264
f 256 263 330
f 330 263 336
f 333 265 261
f 335 338 333
f 338 265 333
f 338 266 265
f 266 339 268
f 338 339 266
f 341 340 269
f 268 341 269
f 339 341 268
f 343 342 340
f 343 340 341
f 344 342 343
f 347 346 345
f 348 345 346
f 270 337 264
f 270 349 337
f 340 271 269
f 271 340 273
f 273 340 342
f 344 350 342
f 350 273 342
f 350 275 273
f 275 351 277
f 350 351 275
f 345 279 347
f 279 351 347
f 279 277 351
f 280 279 345
f 348 280 345
f 352 280 348
f 281 349 270
f 281 353 349
f 352 282 280
f 354 282 352
f 283 353 281
f 283 355 353
f 357 356 286
f 286 356 285
f 286 282 354
f 286 354 357
f 287 355 283
f 287 358 355
f 359 289 290
f 360 359 290
f 285 360 290
f 356 360 285
f 291 358 287
f 291 361 358
f 362 293 359
f 359 293 289
f 359 360 363
f 359 363 362
f 294 361 291
f 294 364 361
f 362 295 293
f 297 295 362
f 363 297 362
f 365 297 363
f 298 364 294
f 298 366 364
f 299 297 367
f 297 368 367
f 297 365 368
f 367 300 299
f 301 366 298
f 301 369 366
f 368 370 367
f 300 367 370
f 371 300 370
f 302 300 371
f 303 369 301
f 303 372 369
f 371 308 302
f 373 308 371
f 309 372 303
f 309 374 372
f 375 311 312
f 375 312 376
f 312 377 376
f 312 313 377
f 378 313 314
f 378 377 313
f 379 314 315
f 379 378 314
f 380 315 316
f 380 379 315
f 316 308 373
f 316 373 380
f 309 317 381
f 382 309 381
f 374 309 382
f 319 381 317
f 383 322 323
f 383 323 384
f 323 385 384
f 323 324 385
f 386 324 325
f 386 385 324
f 325 311 375
f 387 325 375
f 386 325 387
f 387 375 376
f 388 382 381
f 388 381 319
f 326 388 319
f 389 388 326
f 390 326 327
f 390 389 326
f 391 327 328
f 391 390 327
f 328 322 383
f 392 328 383
f 391 328 392
f 392 383 384
f 395 394 393
f 397 396 393
f 397 393 394
f 398 396 397
f 401 400 399
f 399 400 395
f 399 395 393
f 330 399 393
f 329 330 393
f 329 393 331
f 331 393 396
f 398 402 396
f 402 331 396
f 402 332 331
f 332 403 334
f 402 403 332
f 405 404 335
f 334 405 335
f 403 405 334
f 406 404 405
f 401 399 336
f 337 401 336
f 407 401 337
f 336 399 330
f 404 338 335
f 406 408 404
f 408 338 404
f 408 339 338
f 339 409 341
f 408 409 339
f 341 410 343
f 409 410 341
f 344 343 410
f 344 410 411
f 414 413 412
f 346 347 412
f 413 346 412
f 415 346 413
f 348 346 415
f 348 415 416
f 349 407 337
f 349 417 407
f 411 418 344
f 344 418 350
f 412 351 414
f 351 418 414
f 351 350 418
f 351 412 347
f 416 352 348
f 419 352 416
f 353 417 349
f 353 420 417
f 423 422 421
f 419 423 421
f 354 419 421
f 352 419 354
f 355 420 353
f 355 424 420
f 421 422 357
f 422 356 357
f 422 425 356
f 421 357 354
f 358 424 355
f 358 426 424
f 425 360 356
f 427 360 425
f 361 426 358
f 361 428 426
f 427 363 360
f 429 363 427
f 364 428 361
f 364 430 428
f 429 365 363
f 431 365 429
f 366 430 364
f 366 432 430
f 431 368 365
f 433 368 431
f 369 432 366
f 369 434 432
f 433 435 368
f 368 435 370
f 371 370 435
f 371 435 436
f 372 434 369
f 372 437 434
f 436 373 371
f 438 373 436
f 374 437 372
f 374 439 437
f 441 440 377
f 377 440 376
f 443 441 442
f 441 378 442
f 441 377 378
f 442 378 444
f 378 445 444
f 378 379 445
f 447 445 446
f 445 380 446
f 445 379 380
f 448 446 380
f 373 448 380
f 438 448 373
f 382 439 374
f 382 449 439
f 450 384 385
f 450 385 451
f 385 452 451
f 385 386 452
f 453 386 387
f 453 452 386
f 387 376 440
f 387 440 453
f 454 443 442
f 454 442 444
f 455 447 446
f 455 446 448
f 382 388 456
f 457 382 456
f 449 382 457
f 389 458 388
f 388 458 456
f 390 459 389
f 389 459 458
f 459 390 460
f 390 461 460
f 390 391 461
f 462 391 392
f 462 461 391
f 392 384 450
f 463 392 450
f 462 392 463
f 463 450 451
f 464 457 456
f 464 456 458
f 464 458 465
f 465 458 459
f 465 459 466
f 466 459 460
f 469 468 467
f 394 395 467
f 468 394 467
f 470 394 468
f 394 471 397
f 470 471 394
f 398 397 471
f 398 471 472
f 469 467 400
f 401 469 400
f 473 469 401
f 400 467 395
f 472 474 398
f 398 474 402
f 402 475 403
f 474 475 402
f 403 476 405
f 475 476 403
f 478 477 406
f 405 478 406
f 476 478 405
f 479 477 478
f 407 473 401
f 407 480 473
f 477 408 406
f 479 481 477
f 481 408 477
f 481 409 408
f 409 482 410
f 481 482 409
f 411 410 482
f 411 482 483
f 485 484 413
f 485 413 414
f 413 486 415
f 484 486 413
f 416 415 486
f 416 486 487
f 417 480 407
f 417 488 480
f 483 489 411
f 411 489 418
f 414 418 485
f 485 418 489
f 487 419 416
f 490 419 487
f 420 488 417
f 420 491 488
f 493 492 423
f 423 492 422
f 423 419 490
f 423 490 493
f 424 491 420
f 424 494 491
f 492 425 422
f 495 425 492
f 426 494 424
f 426 496 494
f 495 427 425
f 497 427 495
f 428 496 426
f 428 498 496
f 497 429 427
f 499 429 497
f 430 498 428
f 430 500 498
f 499 431 429
f 501 431 499
f 432 500 430
f 432 502 500
f 501 433 431
f 503 433 501
f 434 502 432
f 434 504 502
f 503 505 433
f 433 505 435
f 436 435 505
f 436 505 506
f 437 504 434
f 437 507 504
f 506 438 436
f 508 438 506
f 439 507 437
f 439 509 507
f 510 440 441
f 443 510 441
f 511 444 445
f 447 511 445
f 508 448 438
f 512 448 508
f 449 509 439
f 449 513 509
f 514 451 452
f 514 452 515
f 452 516 515
f 452 453 516
f 453 440 510
f 517 453 510
f 516 453 517
f 517 510 443
f 454 517 443
f 518 517 454
f 454 444 511
f 519 454 511
f 518 454 519
f 519 511 447
f 455 519 447
f 520 519 455
f 455 448 512
f 455 512 520
f 457 513 449
f 457 521 513
f 523 522 461
f 461 522 460
f 524 461 462
f 524 523 461
f 525 462 463
f 525 524 462
f 463 451 514
f 526 463 514
f 525 463 526
f 526 514 515
f 527 521 457
f 527 457 464
f 528 464 465
f 528 527 464
f 529 465 466
f 529 528 465
f 466 460 522
f 466 522 529
f 469 530 468
f 468 530 531
f 532 468 531
f 470 468 532
f 470 533 471
f 532 533 470
f 472 471 533
f 472 533 534
f 536 535 530
f 469 536 530
f 473 536 469
f 530 535 531
f 534 537 472
f 472 537 474
f 474 538 475
f 537 538 474
f 475 539 476
f 538 539 475
f 539 541 540
f 478 539 540
f 476 539 478
f 540 479 478
f 480 536 473
f 480 542 536
f 541 543 540
f 540 543 479
f 543 481 479
f 543 544 481
f 481 545 482
f 544 545 481
f 483 482 545
f 483 545 546
f 548 547 484
f 548 484 485
f 484 549 486
f 547 549 484
f 487 486 549
f 487 549 550
f 488 542 480
f 488 551 542
f 546 552 483
f 483 552 489
f 485 489 548
f 548 489 552
f 550 490 487
f 553 490 550
f 491 551 488
f 491 554 551
f 556 555 493
f 493 555 492
f 493 490 553
f 493 553 556
f 494 554 491
f 494 557 554
f 555 495 492
f 558 495 555
f 496 557 494
f 496 559 557
f 558 497 495
f 560 497 558
f 498 559 496
f 498 561 559
f 560 499 497
f 562 499 560
f 500 561 498
f 500 563 561
f 562 501 499
f 564 501 562
f 502 563 500
f 502 565 563
f 564 503 501
f 566 503 564
f 504 565 502
f 504 567 565
f 566 568 503
f 503 568 505
f 506 505 568
f 506 568 569
f 507 567 504
f 507 570 567
f 569 508 506
f 571 508 569
f 509 570 507
f 509 572 570
f 575 574 573
f 577 576 573
f 573 576 575
f 579 578 577
f 577 578 576
f 581 580 579
f 579 580 578
f 571 580 581
f 512 571 581
f 508 571 512
f 513 572 509
f 513 582 572
f 585 584 583
f 515 516 583
f 516 585 583
f 516 586 585
f 517 573 574
f 586 517 574
f 516 517 586
f 573 517 518
f 573 518 577
f 577 518 519
f 577 519 579
f 579 519 520
f 579 520 581
f 581 520 512
f 521 588 587
f 582 521 587
f 513 521 582
f 588 589 587
f 591 590 523
f 523 590 522
f 592 523 524
f 592 591 523
f 593 524 525
f 593 592 524
f 526 583 584
f 593 526 584
f 525 526 593
f 583 526 515
f 527 588 521
f 594 589 588
f 527 594 588
f 528 594 527
f 595 528 529
f 595 594 528
f 529 522 590
f 529 590 595
f 531 596 532
f 597 533 532
f 597 532 596
f 597 534 533
f 599 598 535
f 599 535 536
f 531 535 596
f 535 600 596
f 535 598 600
f 596 600 597
f 597 600 601
f 597 601 534
f 601 537 534
f 601 602 537
f 537 603 538
f 602 603 537
f 603 605 604
f 539 603 604
f 538 603 539
f 604 541 539
f 542 599 536
f 542 606 599
f 605 607 604
f 604 607 541
f 607 543 541
f 607 608 543
f 543 609 544
f 608 609 543
f 544 610 545
f 609 610 544
f 546 545 610
f 546 610 611
f 613 612 547
f 613 547 548
f 547 614 549
f 612 614 547
f 550 549 614
f 550 614 615
f 551 606 542
f 551 616 606
f 611 617 546
f 546 617 552
f 548 552 613
f 613 552 617
f 615 553 550
f 618 553 615
f 554 616 551
f 554 619 616
f 621 620 556
f 556 620 555
f 556 553 618
f 556 618 621
f 557 619 554
f 557 622 619
f 620 558 555
f 623 558 620
f 559 622 557
f 559 624 622
f 623 560 558
f 625 560 623
f 561 624 559
f 561 626 624
f 625 562 560
f 627 562 625
f 563 626 561
f 563 628 626
f 627 564 562
f 629 564 627
f 565 628 563
f 565 630 628
f 629 566 564
f 631 566 629
f 567 630 565
f 567 632 630
f 631 633 566
f 566 633 568
f 569 568 633
f 569 633 634
f 570 632 567
f 570 635 632
f 634 571 569
f 636 571 634
f 572 635 570
f 572 637 635
f 639 638 575
f 575 638 574
f 640 575 576
f 640 639 575
f 641 576 578
f 641 640 576
f 642 578 580
f 642 641 578
f 580 571 636
f 580 636 642
f 582 644 643
f 637 582 643
f 572 582 637
f 644 645 643
f 648 647 646
f 584 585 646
f 585 648 646
f 585 649 648
f 650 585 586
f 650 649 585
f 586 574 638
f 586 638 650
f 587 644 582
f 652 651 589
f 589 651 587
f 651 645 587
f 645 644 587
f 654 653 652
f 652 653 651
f 590 591 654
f 591 653 654
f 591 655 653
f 656 591 592
f 656 655 591
f 593 646 647
f 656 593 647
f 592 593 656
f 646 593 584
f 594 652 589
f 652 594 595
f 652 595 654
f 654 595 590
f 599 657 598
f 598 657 658
f 659 598 658
f 600 598 659
f 600 660 601
f 659 660 600
f 660 662 661
f 602 660 661
f 601 660 602
f 663 603 602
f 663 602 661
f 663 605 603
f 665 664 657
f 599 665 657
f 606 665 599
f 657 664 658
f 662 666 661
f 661 666 663
f 663 666 667
f 663 667 605
f 667 607 605
f 667 668 607
f 607 669 608
f 668 669 607
f 608 670 609
f 669 670 608
f 670 672 671
f 610 670 671
f 609 670 610
f 671 611 610
f 613 673 612
f 674 614 612
f 674 612 673
f 674 615 614
f 616 665 606
f 616 675 665
f 672 676 671
f 671 676 611
f 676 617 611
f 676 677 617
f 613 617 673
f 617 678 673
f 617 677 678
f 673 678 674
f 674 678 679
f 615 674 679
f 680 615 679
f 618 615 680
f 619 675 616
f 619 681 675
f 682 620 621
f 683 682 621
f 618 683 621
f 680 683 618
f 622 681 619
f 622 684 681
f 686 685 682
f 685 620 682
f 685 623 620
f 686 682 683
f 624 684 622
f 624 687 684
f 685 625 623
f 688 625 685
f 626 687 624
f 626 689 687
f 688 627 625
f 690 627 688
f 628 689 626
f 628 691 689
f 690 629 627
f 692 629 690
f 630 691 628
f 630 693 691
f 695 631 694
f 631 692 694
f 631 629 692
f 696 695 694
f 632 693 630
f 632 697 693
f 695 633 631
f 634 633 695
f 696 634 695
f 698 634 696
f 635 697 632
f 635 699 697
f 698 636 634
f 700 636 698
f 637 699 635
f 637 701 699
f 704 703 702
f 638 639 702
f 639 704 702
f 639 705 704
f 706 639 640
f 706 705 639
f 707 640 641
f 707 706 640
f 708 641 642
f 708 707 641
f 642 636 700
f 642 700 708
f 709 701 637
f 709 637 643
f 643 645 709
f 709 645 710
f 713 712 711
f 647 648 711
f 648 713 711
f 648 714 713
f 715 648 649
f 715 714 648
f 650 702 703
f 715 650 703
f 649 650 715
f 702 650 638
f 716 710 645
f 716 645 651
f 717 651 653
f 717 716 651
f 718 653 655
f 718 717 653
f 656 711 712
f 718 656 712
f 655 656 718
f 711 656 647
f 658 719 659
f 720 660 659
f 720 659 719
f 720 662 660
f 665 721 664
f 721 722 664
f 664 722 658
f 722 723 658
f 723 719 658
f 719 723 720
f 720 723 724
f 720 724 662
f 724 666 662
f 724 725 666
f 666 726 667
f 725 726 666
f 667 727 668
f 726 727 667
f 727 729 728
f 669 727 728
f 668 727 669
f 730 670 669
f 730 669 728
f 730 672 670
f 732 731 721
f 665 732 721
f 675 732 665
f 721 731 722
f 729 733 728
f 728 733 730
f 730 733 734
f 734 736 735
f 734 735 676
f 730 734 676
f 672 730 676
f 737 677 676
f 737 676 735
f 677 737 738
f 739 677 738
f 678 677 739
f 678 740 679
f 739 740 678
f 680 679 740
f 680 740 741
f 681 732 675
f 681 742 732
f 736 743 735
f 735 743 737
f 737 743 744
f 737 744 738
f 741 683 680
f 745 683 741
f 684 742 681
f 684 746 742
f 747 685 686
f 748 747 686
f 683 748 686
f 745 748 683
f 687 746 684
f 687 749 746
f 751 750 747
f 750 685 747
f 750 688 685
f 751 747 748
f 689 749 687
f 689 752 749
f 750 690 688
f 753 690 750
f 691 752 689
f 691 754 752
f 756 692 755
f 692 753 755
f 692 690 753
f 757 756 755
f 693 754 691
f 693 758 754
f 756 694 692
f 696 694 756
f 757 696 756
f 759 696 757
f 697 758 693
f 697 760 758
f 759 698 696
f 761 698 759
f 699 760 697
f 699 762 760
f 765 764 763
f 767 766 763
f 763 766 765
f 769 768 767
f 767 768 766
f 771 770 769
f 769 770 768
f 761 770 771
f 700 761 771
f 698 761 700
f 701 773 772
f 762 701 772
f 699 701 762
f 773 774 772
f 777 776 775
f 779 778 775
f 775 778 777
f 781 780 779
f 779 780 778
f 703 704 781
f 704 780 781
f 704 782 780
f 705 763 764
f 782 705 764
f 704 705 782
f 763 705 706
f 763 706 767
f 767 706 707
f 767 707 769
f 769 707 708
f 769 708 771
f 771 708 700
f 709 773 701
f 784 783 710
f 710 783 709
f 783 774 709
f 774 773 709
f 786 785 784
f 784 785 783
f 788 787 786
f 786 787 785
f 787 788 776
f 776 788 775
f 788 712 775
f 712 713 775
f 775 713 714
f 775 714 779
f 779 714 715
f 779 715 781
f 781 715 703
f 716 784 710
f 784 716 717
f 784 717 786
f 786 717 718
f 786 718 788
f 788 718 712
f 722 789 723
f 790 724 723
f 790 723 789
f 791 725 724
f 791 724 790
f 792 726 725
f 792 725 791
f 793 727 726
f 793 726 792
f 793 729 727
f 732 794 731
f 794 795 731
f 731 795 722
f 795 796 722
f 796 789 722
f 789 796 790
f 790 796 797
f 790 797 791
f 791 797 798
f 791 798 792
f 792 798 799
f 801 800 799
f 800 792 799
f 800 793 792
f 802 733 729
f 793 802 729
f 800 802 793
f 803 734 733
f 803 733 802
f 803 736 734
f 738 804 739
f 805 740 739
f 805 739 804
f 805 741 740
f 807 806 794
f 732 807 794
f 742 807 732
f 794 806 795
f 801 808 800
f 800 808 802
f 802 808 809
f 811 810 809
f 810 802 809
f 810 803 802
f 812 743 736
f 803 812 736
f 810 812 803
f 813 744 743
f 813 743 812
f 804 738 744
f 813 804 744
f 814 804 813
f 804 815 805
f 804 814 815
f 815 745 741
f 815 741 805
f 746 807 742
f 746 816 807
f 811 817 810
f 819 818 817
f 818 810 817
f 818 812 810
f 812 820 813
f 812 818 820
f 822 814 821
f 814 820 821
f 814 813 820
f 814 822 815
f 815 822 823
f 745 815 823
f 824 745 823
f 748 745 824
f 749 816 746
f 749 825 816
f 819 826 818
f 818 826 820
f 820 826 827
f 820 827 821
f 829 828 751
f 751 828 750
f 751 748 824
f 751 824 829
f 752 825 749
f 752 830 825
f 832 753 831
f 753 828 831
f 753 750 828
f 833 832 831
f 754 830 752
f 754 834 830
f 837 836 835
f 835 838 837
f 832 755 753
f 757 755 832
f 833 757 832
f 839 757 833
f 758 834 754
f 758 840 834
f 843 842 841
f 843 841 836
f 841 835 836
f 841 844 835
f 838 835 845
f 845 835 844
f 839 759 757
f 846 759 839
f 760 848 847
f 840 760 847
f 758 760 840
f 848 849 847
f 852 851 850
f 852 850 842
f 850 841 842
f 850 853 841
f 841 854 844
f 841 853 854
f 845 844 855
f 844 856 855
f 844 854 856
f 858 857 856
f 856 857 855
f 846 857 858
f 761 846 858
f 759 846 761
f 762 859 848
f 762 848 760
f 849 848 860
f 860 848 859
f 863 862 861
f 865 864 861
f 861 864 863
f 867 866 865
f 865 866 864
f 866 867 851
f 867 850 851
f 867 868 850
f 868 764 765
f 853 868 765
f 850 868 853
f 853 765 766
f 853 766 854
f 854 766 768
f 854 768 856
f 856 768 770
f 856 770 858
f 858 770 761
f 772 859 762
f 870 869 774
f 774 869 772
f 869 860 772
f 860 859 772
f 872 871 870
f 870 871 869
f 874 873 872
f 872 873 871
f 873 874 862
f 862 874 861
f 874 776 861
f 776 777 861
f 861 777 778
f 861 778 865
f 865 778 780
f 865 780 867
f 867 780 782
f 867 782 868
f 868 782 764
f 783 870 774
f 870 783 785
f 870 785 872
f 872 785 787
f 872 787 874
f 874 787 776
f 795 875 796
f 876 797 796
f 876 796 875
f 877 798 797
f 877 797 876
f 878 799 798
f 878 798 877
f 878 801 799
f 807 879 806
f 879 880 806
f 806 880 795
f 880 881 795
f 881 875 795
f 875 881 876
f 876 881 882
f 884 883 882
f 883 876 882
f 883 877 876
f 877 885 878
f 877 883 885
f 886 808 801
f 878 886 801
f 885 886 878
f 887 809 808
f 887 808 886
f 887 811 809
f 889 888 879
f 807 889 879
f 816 889 807
f 879 888 880
f 884 890 883
f 883 890 885
f 885 890 891
f 893 892 891
f 892 885 891
f 892 886 885
f 886 894 887
f 886 892 894
f 895 817 811
f 887 895 811
f 894 895 887
f 895 819 817
f 821 896 822
f 897 823 822
f 897 822 896
f 897 824 823
f 825 889 816
f 825 898 889
f 893 899 892
f 901 900 899
f 900 892 899
f 900 894 892
f 894 902 895
f 894 900 902
f 903 826 819
f 895 903 819
f 902 903 895
f 904 827 826
f 904 826 903
f 896 821 827
f 904 896 827
f 905 896 904
f 905 828 829
f 897 905 829
f 896 905 897
f 897 829 824
f 830 898 825
f 830 906 898
f 901 907 900
f 909 908 907
f 908 900 907
f 908 902 900
f 902 910 903
f 902 908 910
f 903 911 904
f 903 910 911
f 904 912 905
f 904 911 912
f 913 831 828
f 905 913 828
f 912 913 905
f 913 833 831
f 834 915 914
f 906 834 914
f 830 834 906
f 915 916 914
f 919 918 917
f 919 917 909
f 917 908 909
f 917 920 908
f 908 921 910
f 908 920 921
f 921 836 837
f 911 921 837
f 910 921 911
f 911 837 838
f 922 911 838
f 912 911 922
f 912 923 913
f 912 922 923
f 923 839 833
f 923 833 913
f 840 924 915
f 840 915 834
f 916 915 925
f 925 915 924
f 928 927 926
f 930 929 926
f 926 929 928
f 929 930 918
f 930 917 918
f 930 931 917
f 917 932 920
f 917 931 932
f 932 842 843
f 921 932 843
f 920 932 921
f 921 843 836
f 845 933 922
f 845 922 838
f 922 934 923
f 922 933 934
f 934 846 839
f 934 839 923
f 847 924 840
f 936 935 849
f 849 935 847
f 935 925 847
f 925 924 847
f 936 937 935
f 940 939 938
f 940 938 927
f 938 926 927
f 938 941 926
f 926 942 930
f 926 941 942
f 930 943 931
f 930 942 943
f 943 851 852
f 932 943 852
f 931 943 932
f 932 852 842
f 855 933 845
f 933 855 857
f 933 857 934
f 934 857 846
f 860 944 936
f 860 936 849
f 937 936 945
f 936 946 945
f 936 944 946
f 945 946 939
f 946 938 939
f 946 947 938
f 947 862 863
f 941 947 863
f 938 947 941
f 941 863 864
f 941 864 942
f 942 864 866
f 942 866 943
f 943 866 851
f 869 944 860
f 944 869 871
f 944 871 946
f 946 871 873
f 946 873 947
f 947 873 862
f 880 948 881
f 949 882 881
f 949 881 948
f 949 884 882
f 889 950 888
f 948 880 888
f 950 948 888
f 951 948 950
f 948 952 949
f 948 951 952
f 953 890 884
f 949 953 884
f 952 953 949
f 954 891 890
f 954 890 953
f 954 893 891
f 898 955 950
f 898 950 889
f 950 956 951
f 950 955 956
f 951 957 952
f 951 956 957
f 952 958 953
f 952 957 958
f 953 959 954
f 953 958 959
f 960 899 893
f 954 960 893
f 959 960 954
f 960 901 899
f 906 961 955
f 906 955 898
f 955 962 956
f 955 961 962
f 964 957 963
f 957 962 963
f 957 956 962
f 966 965 964
f 965 957 964
f 965 958 957
f 958 967 959
f 958 965 967
f 959 968 960
f 959 967 968
f 969 907 901
f 960 969 901
f 968 969 960
f 969 909 907
f 914 961 906
f 961 914 916
f 970 961 916
f 962 961 970
f 963 962 971
f 962 972 971
f 962 970 972
f 971 972 966
f 972 965 966
f 972 973 965
f 965 974 967
f 965 973 974
f 967 975 968
f 967 974 975
f 975 918 919
f 969 975 919
f 968 975 969
f 969 919 909
f 925 976 970
f 925 970 916
f 970 977 972
f 970 976 977
f 972 978 973
f 972 977 978
f 978 927 928
f 974 978 928
f 973 978 974
f 974 928 929
f 974 929 975
f 975 929 918
f 935 976 925
f 976 935 937
f 979 976 937
f 977 976 979
f 979 939 940
f 978 979 940
f 977 979 978
f 978 940 927
f 945 979 937
f 979 945 939
f 963 980 964
f 980 966 964
f 971 980 963
f 980 971 966

