# https://github.com/mikedh/trimesh
v -0.05060755 -0.01329203 -0.00419862
v -0.04902985 -0.01613201 -0.00443005
v -0.04895107 -0.01415539 -0.00703188
v -0.05084733 -0.01362081 0.00079550
v -0.04908626 -0.01652674 -0.00128298
v -0.05059684 -0.01294474 0.00519189
v -0.04822501 -0.01644663 0.00405952
v -0.04835199 -0.01435922 0.00706646
v -0.05061503 -0.00928858 -0.00870654
v -0.04861859 -0.01139819 -0.01005800
v -0.04924966 -0.00875411 -0.01214617
v -0.05121411 -0.00888665 -0.00428478
v -0.05127244 -0.00953639 -0.00027336
v -0.05139400 -0.00944725 0.00445712
v -0.04939602 -0.01193976 0.00838078
v -0.05071583 -0.00877538 0.00935016
v -0.04873023 -0.00984061 0.01110118
v -0.05055071 -0.00503957 -0.01278987
v -0.04896027 -0.00702809 -0.01416020
v -0.04876531 -0.00391555 -0.01600452
v -0.05120991 -0.00420300 -0.00892123
v -0.05115766 -0.00483642 -0.00489410
v -0.05111723 -0.00479369 -0.00018389
v -0.05122106 -0.00476606 0.00457538
v -0.05140068 -0.00465022 0.00930423
v -0.04834455 -0.00732939 0.01412592
v -0.05061374 -0.00433795 0.01342802
v -0.04846064 -0.00457459 0.01631591
v -0.05078225 -0.00005412 -0.01359500
v -0.04907727 0.00114487 -0.01646944
v -0.05125189 -0.00015425 -0.00951366
v -0.05111986 -0.00010936 -0.00480067
v -0.05105110 -0.00004323 0.00001173
v -0.05111941 0.00001896 0.00482149
v -0.05130224 0.00003483 0.00949933
v -0.05090660 -0.00002210 0.01350235
v -0.04918008 -0.00109867 0.01634813
v -0.05053371 0.00432277 -0.01346664
v -0.04904767 0.00421587 -0.01596766
v -0.05134683 0.00458955 -0.00930094
v -0.05122215 0.00467550 -0.00455396
v -0.05112258 0.00470392 0.00020345
v -0.05117542 0.00474179 0.00489992
v -0.05126566 0.00408214 0.00890370
v -0.05065092 0.00485385 0.01273381
v -0.04828113 0.00420070 0.01637963
v -0.04855159 0.00682746 -0.01438334
v -0.04864477 0.00986518 -0.01115869
v -0.05062650 0.00880503 -0.00936284
v -0.05135556 0.00940595 -0.00442913
v -0.05130055 0.00944201 0.00027969
v -0.05127195 0.00877181 0.00426258
v -0.05070705 0.00912511 0.00862030
v -0.04934522 0.00854305 0.01204755
v -0.04831785 0.00718984 0.01440278
v -0.04933006 0.01196756 -0.00839428
v -0.04899931 0.01400064 -0.00670416
v -0.05052157 0.01293969 -0.00518069
v -0.05085291 0.01354002 -0.00074982
v -0.05065584 0.01315051 0.00416641
v -0.04831137 0.01418695 0.00742653
v -0.04869707 0.01119300 0.00992542
v -0.04845164 0.01592032 -0.00421386
v -0.04913548 0.01640539 0.00132073
v -0.04842315 0.01636653 0.00470880
v -0.04677506 -0.01795432 -0.00425470
v -0.04308968 -0.02032018 -0.00496803
v -0.04481346 -0.01803185 -0.00728067
v -0.04677944 -0.01878009 0.00104134
v -0.04384631 -0.02054141 0.00002594
v -0.04629907 -0.01873626 0.00424630
v -0.04379906 -0.02025340 0.00445300
v -0.04427616 -0.01870644 0.00699476
v -0.04567650 -0.01404647 -0.01285965
v -0.04333742 -0.01536643 -0.01388274
v -0.04438182 -0.01299230 -0.01521363
v -0.04670123 -0.01451519 -0.00923707
v -0.04367136 -0.01660730 -0.01066395
v -0.04689687 -0.01320303 0.01058429
v -0.04473708 -0.01638440 0.00929763
v -0.04560535 -0.01292251 0.01398676
v -0.04427112 -0.01530800 0.01300461
v -0.04321199 -0.01401298 0.01536212
v -0.04701710 -0.00966119 -0.01397164
v -0.04406307 -0.00958006 -0.01684685
v -0.04699891 -0.01016171 0.01325736
v -0.04407833 -0.01030391 0.01634997
v -0.04611130 -0.00536812 -0.01789756
v -0.04365235 -0.00722602 -0.01898070
v -0.04382008 -0.00428330 -0.02022797
v -0.04653940 -0.00324261 0.01866685
v -0.04547463 -0.00663790 0.01788277
v -0.04322023 -0.00550947 0.02021898
v -0.04674800 -0.00097805 -0.01879304
v -0.04384677 0.00006675 -0.02053560
v -0.04689364 0.00118076 0.01865104
v -0.04393249 -0.00099189 0.02045286
v -0.04676821 0.00372114 -0.01826129
v -0.04306449 0.00497268 -0.02028121
v -0.04643794 0.00440146 0.01863489
v -0.04360706 0.00415649 0.02022169
v -0.04527195 0.00719038 -0.01754947
v -0.04667930 0.00969225 -0.01393437
v -0.04363905 0.01061326 -0.01656286
v -0.04688174 0.01058971 0.01320686
v -0.04477221 0.00931678 0.01635377
v -0.04442953 0.00710465 0.01863673
v -0.04562417 0.01279520 -0.01402364
v -0.04327621 0.01384957 -0.01536112
v -0.04706679 0.01345747 -0.00999220
v -0.04699028 0.01324320 0.01016164
v -0.04560337 0.01392492 0.01288167
v -0.04426782 0.01294337 0.01526893
v -0.04434062 0.01516932 -0.01300375
v -0.04461455 0.01671940 -0.00908665
v -0.04614404 0.01827524 -0.00497336
v -0.04382858 0.01887334 -0.00743837
v -0.04688747 0.01863663 -0.00103456
v -0.04652851 0.01867186 0.00330003
v -0.04546555 0.01786259 0.00663348
v -0.04407374 0.01630728 0.01027782
v -0.04320788 0.01530080 0.01397292
v -0.04364334 0.02016749 -0.00410026
v -0.04395655 0.02041873 0.00100718
v -0.04322159 0.02016484 0.00546786
v -0.04249875 -0.01900824 -0.00869228
v -0.03914807 -0.02027342 -0.00851827
v -0.04012052 -0.01834524 -0.01101426
v -0.03924323 -0.02095685 -0.00419024
v -0.03974176 -0.02103233 -0.00004818
v -0.03963635 -0.02106527 0.00474787
v -0.04148910 -0.01839418 0.01012398
v -0.04033430 -0.02021125 0.00837098
v -0.03808274 -0.01867510 0.01151922
v -0.03918413 -0.01633082 -0.01346575
v -0.04084187 -0.01334089 -0.01621886
v -0.04073772 -0.01636640 0.01333538
v -0.03905933 -0.01352965 0.01634254
v -0.04159684 -0.01003541 -0.01830596
v -0.03816799 -0.01151598 -0.01856663
v -0.04043689 -0.00826565 -0.02014892
v -0.03984644 -0.01100681 0.01839360
v -0.04225090 -0.00868634 0.01903983
v -0.03923245 -0.00884129 0.02020617
v -0.03967896 -0.00470539 -0.02100836
v -0.03966143 -0.00470442 0.02101123
v -0.03973111 0.00004324 -0.02097238
v -0.03982877 0.00016606 0.02094419
v -0.03922741 0.00416981 -0.02090359
v -0.03916827 0.00428664 0.02089185
v -0.04245321 0.00866533 -0.01898821
v -0.03912262 0.00849474 -0.02023528
v -0.04166582 0.01014960 0.01833186
v -0.04001421 0.00815379 0.02021961
v -0.04008361 0.01096599 -0.01833428
v -0.03915810 0.01342237 -0.01630516
v -0.04079690 0.01329394 0.01632322
v -0.03833058 0.01151807 0.01861736
v -0.04086470 0.01619641 -0.01334739
v -0.04174154 0.01823361 -0.01016104
v -0.03838122 0.01851560 -0.01154924
v -0.04225155 0.01898241 0.00864323
v -0.03984473 0.01833748 0.01096829
v -0.03905574 0.01628626 0.01349229
v -0.04008064 0.02013590 -0.00814151
v -0.03921575 0.02082738 -0.00428183
v -0.03985264 0.02089021 -0.00017800
v -0.03966323 0.02095621 0.00466473
v -0.03923221 0.02014950 0.00880042
v -0.03411007 -0.02038762 -0.00895635
v -0.03615998 -0.01861397 -0.01171366
v -0.03523489 -0.02089116 -0.00484573
v -0.03507824 -0.02088677 -0.00005560
v -0.03490246 -0.02096100 0.00478011
v -0.03591087 -0.02045785 0.00892387
v -0.03374794 -0.01860726 0.01173025
v -0.03387562 -0.01625559 -0.01388092
v -0.03602758 -0.01402029 -0.01617752
v -0.03599968 -0.01625986 0.01399395
v -0.03375959 -0.01393440 0.01622718
v -0.03374319 -0.01177064 -0.01855095
v -0.03593572 -0.00895009 -0.02039298
v -0.03589040 -0.01172101 0.01861542
v -0.03486497 -0.00887592 0.02041166
v -0.03490237 -0.00482034 -0.02090484
v -0.03497673 -0.00466444 0.02092211
v -0.03507676 0.00001675 -0.02083122
v -0.03508644 0.00014015 0.02084927
v -0.03523443 0.00480910 -0.02083701
v -0.03516685 0.00487723 0.02086126
v -0.03411070 0.00891996 -0.02033260
v -0.03517363 0.00893685 0.02036091
v -0.03615398 0.01167597 -0.01856236
v -0.03387191 0.01384398 -0.01620001
v -0.03611071 0.01394692 0.01622094
v -0.03405912 0.01169123 0.01856572
v -0.03612555 0.01614248 -0.01398521
v -0.03405412 0.01851028 -0.01172879
v -0.03588570 0.01856059 0.01168419
v -0.03375482 0.01617207 0.01389802
v -0.03519096 0.02029758 -0.00896517
v -0.03518458 0.02079916 -0.00490465
v -0.03508812 0.02079479 -0.00017698
v -0.03497592 0.02086786 0.00462581
v -0.03486413 0.02035727 0.00883796
v -0.02949341 -0.02037238 -0.00886121
v -0.03153729 -0.01858737 -0.01169980
v -0.03057813 -0.02087283 -0.00479777
v -0.03039500 -0.02082838 -0.00004076
v -0.03018204 -0.02086419 0.00475302
v -0.03125673 -0.02037464 0.00889495
v -0.02917532 -0.01856838 0.01165713
v -0.02927595 -0.01617111 -0.01383513
v -0.03141711 -0.01391478 -0.01614137
v -0.03142515 -0.01619526 0.01387616
v -0.02915175 -0.01389027 0.01613274
v -0.02916672 -0.01169502 -0.01851576
v -0.03125343 -0.00893607 -0.02032177
v -0.03123913 -0.01173302 0.01855468
v -0.03016959 -0.00889966 0.02033836
v -0.03018154 -0.00479194 -0.02081046
v -0.03025735 -0.00478170 0.02082952
v -0.03039578 0.00000314 -0.02077414
v -0.03040095 0.00001750 0.02079346
v -0.03057910 0.00476061 -0.02081832
v -0.03051790 0.00478895 0.02083704
v -0.02949383 0.00882439 -0.02031800
v -0.03058820 0.00884711 0.02033553
v -0.03153288 0.01166310 -0.01853145
v -0.02926968 0.01379860 -0.01611587
v -0.03155123 0.01382104 0.01615947
v -0.02951304 0.01160082 0.01853399
v -0.03154426 0.01610550 -0.01385829
v -0.02950532 0.01848120 -0.01163786
v -0.03123302 0.01850051 0.01169646
v -0.02914484 0.01607823 0.01385374
v -0.03058649 0.02028287 -0.00888427
v -0.03051711 0.02078341 -0.00482643
v -0.03039934 0.02073968 -0.00005579
v -0.03025598 0.02077571 0.00474367
v -0.03016927 0.02028428 0.00886267
v -0.02491626 -0.02036849 -0.00884141
v -0.02698185 -0.01856960 -0.01163147
v -0.02598849 -0.02086621 -0.00475050
v -0.02577824 -0.02082633 0.00000843
v -0.02556652 -0.02086346 0.00476917
v -0.02664128 -0.02036410 0.00886207
v -0.02458189 -0.01857039 0.01164732
v -0.02470624 -0.01616828 -0.01381898
v -0.02685352 -0.01387171 -0.01611514
v -0.02686094 -0.01616915 0.01383463
v -0.02458075 -0.01387381 0.01613132
v -0.02457560 -0.01168390 -0.01851631
v -0.02664097 -0.00889888 -0.02031024
v -0.02664481 -0.01169027 0.01853029
v -0.02556573 -0.00890405 0.02032827
v -0.02556675 -0.00480579 -0.02080936
v -0.02564494 -0.00481217 0.02082679
v -0.02577828 -0.00004510 -0.02077221
v -0.02577887 -0.00004650 0.02078939
v -0.02598864 0.00471381 -0.02081210
v -0.02591200 0.00471526 0.02082901
v -0.02491632 0.00880473 -0.02031441
v -0.02599105 0.00880489 0.02033103
v -0.02697556 0.01159479 -0.01851546
v -0.02469858 0.01378229 -0.01611421
v -0.02698617 0.01377991 0.01613270
v -0.02491752 0.01159251 0.01853392
v -0.02697892 0.01607865 -0.01381686
v -0.02491122 0.01847983 -0.01162917
v -0.02663853 0.01847619 0.01165363
v -0.02457312 0.01607722 0.01383712
v -0.02599086 0.02027709 -0.00884166
v -0.02591151 0.02077524 -0.00475225
v -0.02577822 0.02073557 0.00000948
v -0.02564481 0.02077278 0.00477535
v -0.02556581 0.02027417 0.00886739
v -0.02032572 -0.02036910 -0.00884464
v -0.02239610 -0.01857153 -0.01163029
v -0.02140039 -0.02086637 -0.00475208
v -0.02118964 -0.02082709 0.00001058
v -0.02097844 -0.02086641 0.00477240
v -0.02205267 -0.02036891 0.00886274
v -0.01999088 -0.01857201 0.01164922
v -0.02011550 -0.01617087 -0.01382110
v -0.02226506 -0.01387460 -0.01611606
v -0.02227262 -0.01617016 0.01383797
v -0.01999128 -0.01387511 0.01613426
v -0.01998462 -0.01168588 -0.01851788
v -0.02205281 -0.00889934 -0.02031477
v -0.02206017 -0.01168545 0.01853465
v -0.02097964 -0.00890044 0.02033225
v -0.02097858 -0.00480905 -0.02081229
v -0.02105658 -0.00480996 0.02082967
v -0.02118961 -0.00004724 -0.02077298
v -0.02118892 -0.00004840 0.02079038
v -0.02140054 0.00471541 -0.02081226
v -0.02132117 0.00471438 0.02082968
v -0.02032582 0.00880797 -0.02031498
v -0.02139858 0.00880746 0.02033238
v -0.02238979 0.01159361 -0.01851745
v -0.02010788 0.01378442 -0.01611678
v -0.02239682 0.01378390 0.01613344
v -0.02032541 0.01159515 0.01853525
v -0.02238924 0.01607934 -0.01382055
v -0.02031914 0.01848113 -0.01163182
v -0.02205390 0.01848054 0.01164879
v -0.01998366 0.01608015 0.01383842
v -0.02139871 0.02027823 -0.00884412
v -0.02132135 0.02077554 -0.00475104
v -0.02118892 0.02073626 0.00001174
v -0.02105676 0.02077555 0.00477332
v -0.02097978 0.02027813 0.00886380
v -0.01573488 -0.02036913 -0.00884491
v -0.01780442 -0.01857197 -0.01163191
v -0.01680952 -0.02086657 -0.00475315
v -0.01659926 -0.02082734 0.00000869
v -0.01638881 -0.02086658 0.00477057
v -0.01746343 -0.02036921 0.00886238
v -0.01540030 -0.01857193 0.01164929
v -0.01552459 -0.01617088 -0.01382133
v -0.01767381 -0.01387548 -0.01611678
v -0.01768143 -0.01617089 0.01383881
v -0.01540036 -0.01387543 0.01613421
v -0.01539403 -0.01168597 -0.01851782
v -0.01746353 -0.00889906 -0.02031509
v -0.01746991 -0.01168584 0.01853537
v -0.01639014 -0.00889893 0.02033252
v -0.01638896 -0.00480725 -0.02081247
v -0.01646722 -0.00480722 0.02082991
v -0.01659925 -0.00004537 -0.02077322
v -0.01659920 -0.00004542 0.02079068
v -0.01680967 0.00471647 -0.02081245
v -0.01673103 0.00471645 0.02082991
v -0.01573498 0.00880824 -0.02031501
v -0.01680820 0.00880825 0.02033247
v -0.01779815 0.01159523 -0.01851785
v -0.01551699 0.01378466 -0.01611676
v -0.01780566 0.01378471 0.01613421
v -0.01573489 0.01159521 0.01853525
v -0.01779804 0.01608010 -0.01382138
v -0.01572862 0.01848114 -0.01163188
v -0.01746364 0.01848125 0.01164917
v -0.01539276 0.01608009 0.01383875
v -0.01680829 0.02027835 -0.00884493
v -0.01673118 0.02077579 -0.00475312
v -0.01659921 0.02073655 0.00000875
v -0.01646738 0.02077579 0.00477055
v -0.01639024 0.02027839 0.00886225
v -0.01114434 -0.02036912 -0.00884486
v -0.01321381 -0.01857191 -0.01163187
v -0.01221894 -0.02086656 -0.00475308
v -0.01200864 -0.02082734 0.00000870
v -0.01179820 -0.02086656 0.00477047
v -0.01287287 -0.02036912 0.00886227
v -0.01080973 -0.01857191 0.01164929
v -0.01093404 -0.01617085 -0.01382129
v -0.01308323 -0.01387542 -0.01611674
v -0.01309083 -0.01617086 0.01383874
v -0.01080979 -0.01387541 0.01613417
v -0.01080346 -0.01168597 -0.01851779
v -0.01287296 -0.00889894 -0.02031500
v -0.01287923 -0.01168594 0.01853524
v -0.01179954 -0.00889892 0.02033244
v -0.01179835 -0.00480715 -0.02081244
v -0.01187666 -0.00480712 0.02082989
v -0.01200863 -0.00004537 -0.02077322
v -0.01200866 -0.00004535 0.02079066
v -0.01221909 0.00471640 -0.02081244
v -0.01214050 0.00471642 0.02082988
v -0.01114444 0.00880819 -0.02031500
v -0.01221767 0.00880819 0.02033244
v -0.01320754 0.01159519 -0.01851780
v -0.01092645 0.01378462 -0.01611673
v -0.01321508 0.01378462 0.01613418
v -0.01114434 0.01159518 0.01853523
v -0.01320749 0.01608006 -0.01382130
v -0.01113807 0.01848112 -0.01163185
v -0.01287296 0.01848112 0.01164927
v -0.01080219 0.01608005 0.01383874
v -0.01221777 0.02027832 -0.00884487
v -0.01214066 0.02077576 -0.00475309
v -0.01200865 0.02073655 0.00000867
v -0.01187681 0.02077577 0.00477044
v -0.01179964 0.02027833 0.00886224
v -0.00655378 -0.02036912 -0.00884486
v -0.00862326 -0.01857191 -0.01163185
v -0.00762838 -0.02086656 -0.00475307
v -0.00741808 -0.02082733 0.00000872
v -0.00720763 -0.02086656 0.00477051
v -0.00828228 -0.02036912 0.00886230
v -0.00621917 -0.01857191 0.01164929
v -0.00634348 -0.01617085 -0.01382129
v -0.00849268 -0.01387541 -0.01611673
v -0.00850027 -0.01617085 0.01383873
v -0.00621923 -0.01387541 0.01613417
v -0.00621290 -0.01168597 -0.01851779
v -0.00828238 -0.00889898 -0.02031500
v -0.00828865 -0.01168597 0.01853523
v -0.00720896 -0.00889898 0.02033244
v -0.00720778 -0.00480719 -0.02081244
v -0.00728607 -0.00480719 0.02082988
v -0.00741808 -0.00004540 -0.02077322
v -0.00741808 -0.00004540 0.02079066
v -0.00762853 0.00471640 -0.02081244
v -0.00754993 0.00471640 0.02082988
v -0.00655388 0.00880819 -0.02031500
v -0.00762711 0.00880819 0.02033244
v -0.00861699 0.01159518 -0.01851779
v -0.00633589 0.01378462 -0.01611673
v -0.00862453 0.01378462 0.01613417
v -0.00655378 0.01159518 0.01853523
v -0.00861693 0.01608006 -0.01382129
v -0.00654751 0.01848112 -0.01163185
v -0.00828238 0.01848112 0.01164930
v -0.00621163 0.01608006 0.01383873
v -0.00762720 0.02027832 -0.00884486
v -0.00755009 0.02077576 -0.00475307
v -0.00741808 0.02073654 0.00000872
v -0.00728623 0.02077576 0.00477051
v -0.00720905 0.02027832 0.00886230
v -0.00196320 -0.02036912 -0.00884483
v -0.00403270 -0.01857191 -0.01163185
v -0.00303781 -0.02086656 -0.00475303
v -0.00282753 -0.02082734 0.00000874
v -0.00261707 -0.02086656 0.00477052
v -0.00369172 -0.02036912 0.00886230
v -0.00162862 -0.01857191 0.01164931
v -0.00175293 -0.01617085 -0.01382130
v -0.00390212 -0.01387541 -0.01611673
v -0.00390971 -0.01617085 0.01383873
v -0.00162867 -0.01387541 0.01613418
v -0.00162235 -0.01168598 -0.01851780
v -0.00369182 -0.00889898 -0.02031500
v -0.00369809 -0.01168597 0.01853523
v -0.00261839 -0.00889899 0.02033244
v -0.00261722 -0.00480720 -0.02081244
v -0.00269550 -0.00480721 0.02082988
v -0.00282752 -0.00004542 -0.02077322
v -0.00282751 -0.00004545 0.02079066
v -0.00303796 0.00471636 -0.02081245
v -0.00295935 0.00471633 0.02082989
v -0.00196329 0.00880815 -0.02031500
v -0.00303652 0.00880812 0.02033244
v -0.00402643 0.01159518 -0.01851779
v -0.00174533 0.01378462 -0.01611674
v -0.00403397 0.01378462 0.01613417
v -0.00196320 0.01159515 0.01853524
v -0.00402637 0.01608006 -0.01382130
v -0.00195693 0.01848112 -0.01163183
v -0.00369182 0.01848112 0.01164929
v -0.00162107 0.01608006 0.01383874
v -0.00303662 0.02027833 -0.00884480
v -0.00295950 0.02077577 -0.00475300
v -0.00282750 0.02073655 0.00000877
v -0.00269566 0.02077576 0.00477054
v -0.00261849 0.02027832 0.00886231
v 0.00262737 -0.02036921 -0.00884494
v 0.00055787 -0.01857193 -0.01163186
v 0.00155280 -0.02086658 -0.00475313
v 0.00176309 -0.02082734 0.00000875
v 0.00197351 -0.02086657 0.00477059
v 0.00089882 -0.02036913 0.00886235
v 0.00296198 -0.01857196 0.01164936
v 0.00283764 -0.01617092 -0.01382135
v 0.00068842 -0.01387545 -0.01611676
v 0.00068083 -0.01617088 0.01383878
v 0.00296187 -0.01387549 0.01613424
v 0.00296825 -0.01168604 -0.01851784
v 0.00089872 -0.00889903 -0.02031501
v 0.00089246 -0.01168600 0.01853525
v 0.00197213 -0.00889905 0.02033247
v 0.00197335 -0.00480727 -0.02081245
v 0.00189502 -0.00480724 0.02082991
v 0.00176308 -0.00004544 -0.02077322
v 0.00176302 -0.00004537 0.02079067
v 0.00155262 0.00471642 -0.02081245
v 0.00163118 0.00471643 0.02082990
v 0.00262723 0.00880822 -0.02031507
v 0.00155403 0.00880815 0.02033249
v 0.00056414 0.01159518 -0.01851782
v 0.00284526 0.01378468 -0.01611678
v 0.00055660 0.01378464 0.01613421
v 0.00262743 0.01159510 0.01853533
v 0.00056420 0.01608009 -0.01382131
v 0.00263370 0.01848121 -0.01163177
v 0.00089873 0.01848114 0.01164933
v 0.00296949 0.01608010 0.01383882
v 0.00155393 0.02027837 -0.00884483
v 0.00163103 0.02077578 -0.00475311
v 0.00176303 0.02073655 0.00000869
v 0.00189486 0.02077579 0.00477056
v 0.00197204 0.02027835 0.00886237
v 0.00721659 -0.02036887 -0.00884520
v 0.00514842 -0.01857203 -0.01163176
v 0.00614243 -0.02086635 -0.00475487
v 0.00635344 -0.02082703 0.00000696
v 0.00656435 -0.02086633 0.00476960
v 0.00548963 -0.02036907 0.00886213
v 0.00755359 -0.01857153 0.01164775
v 0.00742881 -0.01617019 -0.01382049
v 0.00527928 -0.01387526 -0.01611674
v 0.00527167 -0.01617087 0.01383857
v 0.00755300 -0.01387466 0.01613345
v 0.00755986 -0.01168444 -0.01851740
v 0.00548951 -0.00889882 -0.02031495
v 0.00548293 -0.01168592 0.01853527
v 0.00656246 -0.00889823 0.02033237
v 0.00656418 -0.00480629 -0.02081221
v 0.00648513 -0.00480515 0.02082965
v 0.00635347 -0.00004361 -0.02077290
v 0.00635278 -0.00004236 0.02079036
v 0.00614233 0.00471829 -0.02081224
v 0.00622068 0.00471919 0.02082967
v 0.00721655 0.00880868 -0.02031481
v 0.00614368 0.00880961 0.02033228
v 0.00515466 0.01159504 -0.01851787
v 0.00743638 0.01378380 -0.01611602
v 0.00514744 0.01378437 0.01613422
v 0.00721777 0.01159452 0.01853469
v 0.00515506 0.01608009 -0.01382105
v 0.00722405 0.01848056 -0.01163120
v 0.00548922 0.01848114 0.01164925
v 0.00756060 0.01607931 0.01383799
v 0.00614359 0.02027816 -0.00884629
v 0.00622053 0.02077556 -0.00475587
v 0.00635279 0.02073624 0.00000568
v 0.00648497 0.02077553 0.00476847
v 0.00656238 0.02027825 0.00886156
v 0.01180478 -0.02036421 -0.00884478
v 0.00973942 -0.01857033 -0.01162982
v 0.01073046 -0.02086341 -0.00475171
v 0.01094211 -0.02082632 0.00000897
v 0.01115250 -0.02086623 0.00476783
v 0.01008016 -0.02036851 0.00885880
v 0.01214073 -0.01857039 0.01164713
v 0.01201917 -0.01616789 -0.01381802
v 0.00987043 -0.01387258 -0.01611437
v 0.00986280 -0.01616852 0.01383589
v 0.01214444 -0.01387155 0.01613143
v 0.01214755 -0.01168342 -0.01851632
v 0.01008026 -0.00889533 -0.02031440
v 0.01007503 -0.01168331 0.01853388
v 0.01115494 -0.00889575 0.02033118
v 0.01115311 -0.00480387 -0.02081225
v 0.01107627 -0.00480624 0.02082948
v 0.01094350 -0.00004424 -0.02077271
v 0.01094372 -0.00004460 0.02079015
v 0.01073197 0.00471690 -0.02081038
v 0.01081055 0.00472079 0.02082783
v 0.01180645 0.00880960 -0.02031146
v 0.01073132 0.00881191 0.02032959
v 0.00974579 0.01159325 -0.01851625
v 0.01202588 0.01378123 -0.01611422
v 0.00973723 0.01378249 0.01613162
v 0.01180434 0.01159658 0.01853248
v 0.00974484 0.01607748 -0.01381917
v 0.01181064 0.01847837 -0.01163324
v 0.01008133 0.01847975 0.01164663
v 0.01215109 0.01607778 0.01383472
v 0.01073123 0.02027546 -0.00884859
v 0.01081039 0.02077371 -0.00475747
v 0.01094373 0.02073603 0.00000792
v 0.01107613 0.02077536 0.00476956
v 0.01115489 0.02027704 0.00885908
v 0.01642033 -0.02037721 -0.00888084
v 0.01433399 -0.01856846 -0.01164077
v 0.01534459 -0.02086652 -0.00473908
v 0.01555915 -0.02083064 0.00005468
v 0.01574362 -0.02087516 0.00481112
v 0.01465930 -0.02037409 0.00887523
v 0.01669806 -0.01858762 0.01171716
v 0.01658496 -0.01619681 -0.01385946
v 0.01444414 -0.01388747 -0.01611742
v 0.01443653 -0.01617098 0.01385141
v 0.01671134 -0.01391219 0.01616126
v 0.01670515 -0.01175353 -0.01853400
v 0.01466003 -0.00891134 -0.02032018
v 0.01467267 -0.01169248 0.01853411
v 0.01575380 -0.00893853 0.02033698
v 0.01574316 -0.00484780 -0.02082178
v 0.01568135 -0.00488097 0.02083865
v 0.01555828 -0.00009372 -0.02077683
v 0.01556131 -0.00010991 0.02079423
v 0.01534384 0.00469713 -0.02081051
v 0.01541822 0.00469262 0.02082819
v 0.01641879 0.00884068 -0.02032105
v 0.01533203 0.00881168 0.02033920
v 0.01434169 0.01160471 -0.01851547
v 0.01659113 0.01382266 -0.01614440
v 0.01431154 0.01379810 0.01613392
v 0.01639757 0.01164492 0.01855669
v 0.01431856 0.01608036 -0.01383463
v 0.01640400 0.01850302 -0.01168159
v 0.01467866 0.01848012 0.01165576
v 0.01671664 0.01610800 0.01387533
v 0.01533195 0.02028510 -0.00884835
v 0.01541805 0.02077406 -0.00472930
v 0.01556133 0.02074011 0.00007323
v 0.01568125 0.02078452 0.00484429
v 0.01575376 0.02028285 0.00890184
v 0.02110337 -0.02045184 -0.00889634
v 0.01890974 -0.01860709 -0.01171461
v 0.02006926 -0.02096501 -0.00476385
v 0.02024134 -0.02088989 0.00006945
v 0.02039886 -0.02089338 0.00486224
v 0.01927471 -0.02038815 0.00897543
v 0.02127110 -0.01858336 0.01179955
v 0.02110755 -0.01627019 -0.01396033
v 0.01901333 -0.01396923 -0.01618681
v 0.01900602 -0.01623933 0.01393344
v 0.02121612 -0.01402274 0.01623382
v 0.02126442 -0.01184800 -0.01852791
v 0.01926158 -0.00902253 -0.02033246
v 0.01922169 -0.01178256 0.01856517
v 0.02034146 -0.00902134 0.02035044
v 0.02036596 -0.00492823 -0.02083178
v 0.02030910 -0.00496298 0.02084853
v 0.02020702 -0.00015206 -0.02081180
v 0.02021028 -0.00022618 0.02082926
v 0.02003561 0.00469002 -0.02087340
v 0.02010703 0.00460188 0.02089150
v 0.02106257 0.00885214 -0.02037327
v 0.01999997 0.00882854 0.02038988
v 0.01891392 0.01167796 -0.01855420
v 0.02111378 0.01392284 -0.01622146
v 0.01890222 0.01387067 0.01620562
v 0.02101841 0.01170068 0.01856244
v 0.01890783 0.01615149 -0.01390790
v 0.02102419 0.01850746 -0.01173799
v 0.01922638 0.01851171 0.01174585
v 0.02122236 0.01618072 0.01398602
v 0.02000039 0.02033620 -0.00886523
v 0.02010685 0.02083739 -0.00463855
v 0.02021027 0.02077510 0.00018950
v 0.02030901 0.02079441 0.00492631
v 0.02034119 0.02029646 0.00898471
v 0.02556234 -0.02016146 -0.00828229
v 0.02325157 -0.01862222 -0.01149191
v 0.02485747 -0.02103604 -0.00465209
v 0.02491693 -0.02098575 0.00013521
v 0.02440585 -0.02092295 0.00425849
v 0.02427553 -0.02021173 0.00864693
v 0.02517118 -0.01827240 0.01116188
v 0.02572417 -0.01630549 -0.01333018
v 0.02415709 -0.01359371 -0.01624379
v 0.02417124 -0.01630262 0.01354794
v 0.02577405 -0.01340469 0.01628007
v 0.02510985 -0.01124087 -0.01820320
v 0.02423208 -0.00870479 -0.02014599
v 0.02347228 -0.01160361 0.01856431
v 0.02518021 -0.00820179 0.02016272
v 0.02436202 -0.00433226 -0.02083973
v 0.02434344 -0.00434143 0.02085673
v 0.02488010 -0.00013972 -0.02091794
v 0.02499403 -0.00027606 0.02093544
v 0.02484189 0.00466067 -0.02096607
v 0.02481731 0.00457600 0.02098431
v 0.02550819 0.00825056 -0.02007678
v 0.02438754 0.00883376 0.02009248
v 0.02322539 0.01145824 -0.01856684
v 0.02573505 0.01329486 -0.01624282
v 0.02410492 0.01348373 0.01626777
v 0.02493059 0.01106121 0.01824517
v 0.02409811 0.01620240 -0.01351922
v 0.02492634 0.01818182 -0.01109864
v 0.02347487 0.01851068 0.01156721
v 0.02579272 0.01621709 0.01336443
v 0.02438919 0.02003850 -0.00887085
v 0.02481801 0.02093088 -0.00461285
v 0.02499409 0.02088139 0.00023934
v 0.02434337 0.02080263 0.00430477
v 0.02517922 0.02010904 0.00816554
v 0.02660810 -0.01830386 -0.01010582
v 0.02871533 -0.01890658 -0.00731979
v 0.02895258 -0.02011382 -0.00428590
v 0.02903533 -0.02040531 0.00013614
v 0.02826331 -0.02017863 0.00512922
v 0.02761090 -0.01886833 0.00888744
v 0.03028557 -0.01818350 0.00677961
v 0.02987643 -0.01558513 -0.01297242
v 0.02881536 -0.01352100 -0.01546557
v 0.02967814 -0.01699520 -0.00914276
v 0.02917934 -0.01694766 0.00987496
v 0.02890845 -0.01553191 0.01347752
v 0.02989396 -0.01296649 0.01554556
v 0.02748935 -0.00894586 -0.01877970
v 0.02904854 -0.00995677 -0.01687266
v 0.02670077 -0.01024202 0.01823032
v 0.02972512 -0.00922053 0.01693590
v 0.03017280 -0.00684135 -0.01814451
v 0.02878094 -0.00471892 -0.02023284
v 0.02882430 -0.00756149 0.01879671
v 0.02948241 -0.00406144 0.02024830
v 0.02894107 0.00048598 -0.02095921
v 0.02902006 0.00048769 0.02097663
v 0.02976771 0.00408001 -0.02019191
v 0.02900062 0.00484116 0.02020878
v 0.02865223 0.00732183 -0.01881564
v 0.02651833 0.01006818 -0.01823798
v 0.02971803 0.00908984 -0.01687879
v 0.02732285 0.00870181 0.01883198
v 0.02902421 0.00978517 0.01691166
v 0.03008318 0.00661520 0.01818862
v 0.02989698 0.01291676 -0.01542599
v 0.02890874 0.01339279 0.01549483
v 0.02884045 0.01548431 -0.01338425
v 0.02897980 0.01685618 -0.00981660
v 0.02731519 0.01876820 -0.00873798
v 0.03005745 0.01811054 -0.00664529
v 0.02670266 0.01817553 0.01020492
v 0.02882437 0.01874239 0.00752462
v 0.02975068 0.01687370 0.00916922
v 0.02994384 0.01548064 0.01291505
v 0.02900082 0.02015342 -0.00487733
v 0.02902150 0.02092364 -0.00052485
v 0.02948245 0.02019497 0.00402490
v 0.03102781 -0.01820457 -0.00491893
v 0.03188705 -0.01849484 -0.00098370
v 0.03170026 -0.01848485 0.00339319
v 0.03168410 -0.01345234 -0.01428339
v 0.03392925 -0.01388251 -0.01224819
v 0.03421830 -0.01594469 -0.00933869
v 0.03403981 -0.01671192 -0.00415842
v 0.03475394 -0.01673988 0.00111153
v 0.03338230 -0.01670163 0.00551962
v 0.03349956 -0.01554934 0.00959580
v 0.03179743 -0.01437098 0.01342594
v 0.03388353 -0.01400155 0.01175616
v 0.03441305 -0.01143798 -0.01357289
v 0.03338456 -0.00964386 -0.01546893
v 0.03389776 -0.01218894 0.01335795
v 0.03397473 -0.00887241 0.01559688
v 0.03230590 -0.00414670 -0.01877927
v 0.03391186 -0.00519168 -0.01684976
v 0.03153590 -0.00546571 0.01816216
v 0.03464347 -0.00447186 0.01689648
v 0.03500237 -0.00204270 -0.01815806
v 0.03293299 -0.00064983 -0.01991646
v 0.03368292 -0.00276009 0.01879450
v 0.03294222 0.00035889 0.01993207
v 0.03361865 0.00251591 -0.01879711
v 0.03143545 0.00525340 -0.01817059
v 0.03465504 0.00435534 -0.01685486
v 0.03225012 0.00389662 0.01881409
v 0.03392333 0.00501997 0.01689570
v 0.03499296 0.00186952 0.01817810
v 0.03407394 0.00878776 -0.01546115
v 0.03348584 0.00949679 0.01552845
v 0.03298804 0.01209104 -0.01422823
v 0.03170587 0.01442276 -0.01327969
v 0.03511336 0.01337851 -0.01187345
v 0.03183491 0.01330691 0.01435854
v 0.03344721 0.01370867 0.01223780
v 0.03387441 0.01166375 0.01396736
v 0.03361480 0.01584429 -0.00954103
v 0.03389155 0.01683983 -0.00507000
v 0.03223026 0.01874268 -0.00392540
v 0.03496195 0.01809951 -0.00189087
v 0.03153696 0.01810756 0.00542828
v 0.03368281 0.01874110 0.00272394
v 0.03464676 0.01683679 0.00442915
v 0.03400984 0.01555289 0.00881242
v 0.03294082 0.01987718 -0.00039381
v 0.03839687 -0.01546522 -0.00845486
v 0.03804542 -0.01361970 -0.01087717
v 0.03880347 -0.01588864 -0.00444144
v 0.03811527 -0.01623074 -0.00061167
v 0.03793374 -0.01557991 0.00441487
v 0.03621000 -0.01388649 0.00933308
v 0.03925891 -0.01362187 0.00661252
v 0.03654230 -0.00865858 -0.01407146
v 0.03818464 -0.00989812 -0.01225822
v 0.03831718 -0.01166462 0.00983069
v 0.03619298 -0.00969939 0.01338060
v 0.03966300 -0.00868149 0.01190696
v 0.03926211 -0.00661359 -0.01351088
v 0.03819721 -0.00488625 -0.01543420
v 0.03766678 -0.00739145 0.01425817
v 0.03890794 -0.00420056 0.01552018
v 0.03568564 0.00058066 -0.01816170
v 0.03772875 -0.00028632 -0.01662497
v 0.03570606 -0.00074651 0.01817346
v 0.03773701 0.00017348 0.01665700
v 0.03901694 0.00406655 -0.01543438
v 0.03821783 0.00475258 0.01550093
v 0.03781430 0.00725467 -0.01409479
v 0.03565313 0.00999015 -0.01356315
v 0.03886101 0.00907494 -0.01230116
v 0.03613005 0.00971432 0.01341443
v 0.03882381 0.00926789 0.01163488
v 0.03917780 0.00652849 0.01361739
v 0.03907662 0.01295494 -0.01092174
v 0.03618409 0.01288637 0.01013839
v 0.03767830 0.01423641 0.00731518
v 0.03965535 0.01187289 0.00863094
v 0.03744072 0.01537140 -0.00933323
v 0.03860700 0.01577601 -0.00512691
v 0.03771725 0.01658018 -0.00021255
v 0.03569289 0.01810947 0.00071895
v 0.03889671 0.01546932 0.00415440
v 0.04063365 -0.01347009 -0.00944713
v 0.04105319 -0.01410679 -0.00616051
v 0.04262464 -0.01431884 -0.00265421
v 0.04202011 -0.01530004 0.00049501
v 0.04146587 -0.01427746 0.00398991
v 0.04412872 -0.01362597 0.00199492
v 0.04367303 -0.01147853 -0.00808548
v 0.04254382 -0.00967361 -0.01099113
v 0.04430899 -0.01250740 -0.00393535
v 0.04300054 -0.01239477 0.00511450
v 0.04264922 -0.01091183 0.00882576
v 0.04375049 -0.00835011 0.01091514
v 0.04145634 -0.00397850 -0.01415499
v 0.04306221 -0.00515199 -0.01228283
v 0.04052264 -0.00541610 0.01361734
v 0.04368260 -0.00453559 0.01238537
v 0.04417896 -0.00198464 -0.01355710
v 0.04210826 -0.00052647 -0.01523113
v 0.04274092 -0.00271632 0.01420681
v 0.04211258 0.00041344 0.01526515
v 0.04282543 0.00256688 -0.01415519
v 0.04064897 0.00523807 -0.01352494
v 0.04374861 0.00440009 -0.01231231
v 0.04142046 0.00387169 0.01427698
v 0.04294693 0.00504805 0.01240004
v 0.04414911 0.00192526 0.01360761
v 0.04314984 0.00888575 -0.01105326
v 0.04263674 0.00876517 0.01088547
v 0.04289615 0.01166616 -0.00900070
v 0.04046504 0.01403211 -0.00806255
v 0.04374413 0.01239532 -0.00509316
v 0.04171109 0.01419367 -0.00439493
v 0.04407264 0.01346662 -0.00202420
v 0.04051227 0.01360923 0.00534734
v 0.04271347 0.01414950 0.00269944
v 0.04367427 0.01234081 0.00447311
v 0.04377190 0.01088748 0.00828880
v 0.04206150 0.01517320 -0.00047596
v 0.04475528 -0.01358333 -0.00063873
v 0.04556572 -0.00873748 -0.00974155
v 0.04801826 -0.00892169 -0.00715605
v 0.04796745 -0.01097774 -0.00429830
v 0.04681902 -0.01210526 0.00016771
v 0.04731559 -0.01102026 0.00493343
v 0.04556094 -0.00978917 0.00878436
v 0.04770934 -0.00944490 0.00713608
v 0.04827150 -0.00672639 -0.00912767
v 0.04732855 -0.00495816 -0.01096496
v 0.04779030 -0.00763036 0.00873732
v 0.04793569 -0.00431061 0.01107348
v 0.04486985 0.00062184 -0.01355841
v 0.04687314 -0.00026622 -0.01204712
v 0.04482965 -0.00074232 0.01359136
v 0.04682761 0.00014618 0.01214666
v 0.04800604 0.00418859 -0.01095895
v 0.04732380 0.00486914 0.01100312
v 0.04803651 0.00703513 -0.00894634
v 0.04546832 0.00961707 -0.00887980
v 0.04824762 0.00896802 -0.00677619
v 0.04560688 0.00868690 0.00977865
v 0.04732415 0.00911522 0.00765686
v 0.04773978 0.00706442 0.00940586
v 0.04723387 0.01084979 -0.00508552
v 0.04675157 0.01201170 -0.00028153
v 0.04473562 0.01351221 0.00072488
v 0.04794262 0.01101229 0.00422048
v 0.05002407 -0.00941583 -0.00484374
v 0.05185239 -0.00974539 -0.00281945
v 0.05120332 -0.01076002 0.00034368
v 0.05017749 -0.00941378 0.00470003
v 0.05328526 -0.00917182 0.00193696
v 0.05054121 -0.00405905 -0.00967966
v 0.05217786 -0.00502407 -0.00761191
v 0.05329631 -0.00761413 -0.00437063
v 0.05240823 -0.00721216 0.00520614
v 0.05032412 -0.00515027 0.00880853
v 0.05387420 -0.00413252 0.00744184
v 0.05326798 -0.00203434 -0.00909515
v 0.05120926 -0.00047016 -0.01069999
v 0.05180107 -0.00283904 0.00981441
v 0.05114796 0.00032609 0.01080758
v 0.05187694 0.00271275 -0.00969670
v 0.05008526 0.00472005 -0.00940254
v 0.05331272 0.00430910 -0.00755810
v 0.05011344 0.00510263 0.00892469
v 0.05296838 0.00466092 0.00720327
v 0.05319339 0.00186929 0.00917343
v 0.05217913 0.00755480 -0.00497155
v 0.05050493 0.00960872 -0.00403776
v 0.05322540 0.00907860 -0.00195772
v 0.05029111 0.00830560 0.00559572
v 0.05180110 0.00976475 0.00272696
v 0.05387082 0.00740446 0.00408933
v 0.05111781 0.01071089 -0.00046596
v 0.05400599 -0.00918269 -0.00077793
v 0.05730024 -0.00628634 -0.00384072
v 0.05617529 -0.00490095 -0.00622158
v 0.05619653 -0.00730968 0.00060955
v 0.05612593 -0.00633005 0.00486171
v 0.05721889 -0.00394498 0.00626197
v 0.05399618 0.00067367 -0.00907527
v 0.05621521 -0.00067778 -0.00720885
v 0.05389929 -0.00085538 0.00922911
v 0.05611326 0.00053743 0.00731284
v 0.05730563 0.00379906 -0.00621945
v 0.05606478 0.00483986 0.00630763
v 0.05616157 0.00619247 -0.00483741
v 0.05616533 0.00720859 -0.00060228
v 0.05391582 0.00913596 0.00071990
v 0.05719929 0.00624428 0.00390056
v 0.05860942 -0.00383732 -0.00497690
v 0.05966947 -0.00390869 -0.00069209
v 0.05854210 -0.00508956 0.00379820
v 0.05967610 0.00065082 -0.00384549
v 0.06165195 -0.00079308 -0.00141415
v 0.06165180 -0.00146624 0.00075604
v 0.05963091 -0.00075285 0.00387948
v 0.06165176 0.00070323 0.00142956
v 0.05859315 0.00494563 -0.00377599
v 0.06165191 0.00137639 -0.00074063
v 0.05964515 0.00381898 0.00071874
v 0.05848477 0.00377214 0.00505870
v 0.06259556 -0.00004494 0.00000756
f 3 2 1
f 5 4 1
f 5 1 2
f 7 6 4
f 7 4 5
f 8 6 7
f 11 10 9
f 9 10 3
f 1 9 3
f 12 9 1
f 13 1 4
f 12 1 13
f 14 4 6
f 13 4 14
f 6 8 15
f 16 6 15
f 14 6 16
f 17 16 15
f 20 19 18
f 18 19 11
f 9 18 11
f 21 18 9
f 22 9 12
f 21 9 22
f 23 12 13
f 22 12 23
f 24 13 14
f 23 13 24
f 25 14 16
f 24 14 25
f 16 17 26
f 27 16 26
f 25 16 27
f 28 27 26
f 20 18 29
f 20 29 30
f 31 18 21
f 29 18 31
f 32 21 22
f 31 21 32
f 33 22 23
f 32 22 33
f 34 23 24
f 33 23 34
f 35 24 25
f 34 24 35
f 36 25 27
f 35 25 36
f 27 28 37
f 27 37 36
f 30 29 38
f 30 38 39
f 40 29 31
f 38 29 40
f 41 31 32
f 40 31 41
f 42 32 33
f 41 32 42
f 43 33 34
f 42 33 43
f 44 34 35
f 43 34 44
f 45 35 36
f 44 35 45
f 36 37 46
f 36 46 45
f 47 39 38
f 49 48 47
f 38 49 47
f 40 49 38
f 50 40 41
f 49 40 50
f 51 41 42
f 50 41 51
f 52 42 43
f 51 42 52
f 53 43 44
f 52 43 53
f 45 55 54
f 53 45 54
f 44 45 53
f 55 45 46
f 56 48 49
f 58 57 56
f 49 58 56
f 50 58 49
f 59 50 51
f 58 50 59
f 60 51 52
f 59 51 60
f 53 62 61
f 60 53 61
f 52 53 60
f 62 53 54
f 63 57 58
f 63 58 59
f 63 59 64
f 64 59 60
f 64 60 65
f 65 60 61
f 68 67 66
f 70 69 66
f 70 66 67
f 72 71 69
f 72 69 70
f 73 71 72
f 76 75 74
f 78 77 74
f 78 74 75
f 77 78 68
f 77 68 66
f 3 77 66
f 2 3 66
f 2 66 5
f 5 66 69
f 5 69 7
f 7 69 71
f 80 79 8
f 80 8 7
f 73 80 7
f 71 73 7
f 82 81 79
f 82 79 80
f 83 81 82
f 76 74 84
f 76 84 85
f 11 84 10
f 84 77 10
f 84 74 77
f 10 77 3
f 79 15 8
f 15 79 17
f 79 86 17
f 79 81 86
f 81 83 87
f 81 87 86
f 90 89 88
f 88 89 85
f 88 85 84
f 20 88 84
f 19 20 84
f 19 84 11
f 86 26 17
f 92 91 28
f 92 28 26
f 87 92 26
f 86 87 26
f 93 91 92
f 90 88 94
f 90 94 95
f 30 94 20
f 20 94 88
f 96 37 91
f 91 37 28
f 91 93 97
f 91 97 96
f 95 94 98
f 95 98 99
f 39 98 30
f 30 98 94
f 100 46 96
f 96 46 37
f 96 97 101
f 96 101 100
f 102 99 98
f 104 102 103
f 103 102 47
f 102 98 47
f 98 39 47
f 48 103 47
f 105 54 55
f 106 105 55
f 106 55 46
f 107 106 46
f 100 107 46
f 107 100 101
f 104 103 108
f 104 108 109
f 56 110 48
f 110 103 48
f 110 108 103
f 57 110 56
f 111 61 62
f 54 105 62
f 105 111 62
f 105 112 111
f 105 106 113
f 105 113 112
f 114 109 108
f 114 108 110
f 114 110 115
f 117 115 116
f 116 115 63
f 115 110 63
f 110 57 63
f 64 118 63
f 63 118 116
f 65 119 64
f 64 119 118
f 120 119 65
f 120 65 61
f 121 120 61
f 111 121 61
f 121 111 112
f 121 112 122
f 122 112 113
f 123 117 116
f 123 116 118
f 123 118 124
f 124 118 119
f 124 119 125
f 125 119 120
f 128 127 126
f 67 68 126
f 127 67 126
f 129 67 127
f 67 130 70
f 129 130 67
f 70 131 72
f 130 131 70
f 133 132 73
f 72 133 73
f 131 133 72
f 134 132 133
f 136 135 75
f 136 75 76
f 126 78 128
f 78 135 128
f 78 75 135
f 78 126 68
f 132 80 73
f 134 137 132
f 137 80 132
f 137 82 80
f 83 82 137
f 83 137 138
f 141 140 139
f 140 136 139
f 136 85 139
f 136 76 85
f 143 87 142
f 87 138 142
f 87 83 138
f 144 143 142
f 141 139 89
f 90 141 89
f 145 141 90
f 89 139 85
f 143 92 87
f 93 92 143
f 144 93 143
f 146 93 144
f 95 145 90
f 95 147 145
f 146 97 93
f 148 97 146
f 99 147 95
f 99 149 147
f 148 101 97
f 150 101 148
f 99 102 151
f 152 99 151
f 149 99 152
f 104 151 102
f 153 106 107
f 154 153 107
f 101 154 107
f 150 154 101
f 155 152 151
f 151 104 155
f 104 156 155
f 104 109 156
f 158 157 153
f 157 106 153
f 157 113 106
f 158 153 154
f 159 156 109
f 159 109 114
f 161 159 160
f 159 115 160
f 159 114 115
f 117 160 115
f 162 120 121
f 162 121 163
f 121 164 163
f 121 122 164
f 122 113 157
f 122 157 164
f 165 161 160
f 165 160 117
f 123 165 117
f 166 165 123
f 167 123 124
f 167 166 123
f 168 124 125
f 168 167 124
f 125 120 162
f 169 125 162
f 168 125 169
f 169 162 163
f 171 170 127
f 171 127 128
f 127 172 129
f 170 172 127
f 129 173 130
f 172 173 129
f 130 174 131
f 173 174 130
f 131 175 133
f 174 175 131
f 134 133 175
f 134 175 176
f 178 177 135
f 178 135 136
f 128 135 171
f 171 135 177
f 176 179 134
f 134 179 137
f 138 137 179
f 138 179 180
f 182 181 140
f 182 140 141
f 136 140 178
f 178 140 181
f 180 183 138
f 138 183 142
f 144 142 183
f 144 183 184
f 145 182 141
f 145 185 182
f 184 146 144
f 186 146 184
f 147 185 145
f 147 187 185
f 186 148 146
f 188 148 186
f 149 187 147
f 149 189 187
f 188 150 148
f 190 150 188
f 152 189 149
f 152 191 189
f 190 154 150
f 192 154 190
f 193 191 152
f 193 152 155
f 155 156 193
f 193 156 194
f 196 195 158
f 158 195 157
f 158 154 192
f 158 192 196
f 197 194 156
f 197 156 159
f 159 161 197
f 197 161 198
f 200 199 164
f 164 199 163
f 164 157 195
f 164 195 200
f 201 198 161
f 201 161 165
f 202 165 166
f 202 201 165
f 203 166 167
f 203 202 166
f 204 167 168
f 204 203 167
f 205 168 169
f 205 204 168
f 169 163 199
f 169 199 205
f 207 206 170
f 207 170 171
f 170 208 172
f 206 208 170
f 172 209 173
f 208 209 172
f 173 210 174
f 209 210 173
f 174 211 175
f 210 211 174
f 176 175 211
f 176 211 212
f 214 213 177
f 214 177 178
f 171 177 207
f 207 177 213
f 212 215 176
f 176 215 179
f 180 179 215
f 180 215 216
f 218 217 181
f 218 181 182
f 178 181 214
f 214 181 217
f 216 219 180
f 180 219 183
f 184 183 219
f 184 219 220
f 185 218 182
f 185 221 218
f 220 186 184
f 222 186 220
f 187 221 185
f 187 223 221
f 222 188 186
f 224 188 222
f 189 223 187
f 189 225 223
f 224 190 188
f 226 190 224
f 191 225 189
f 191 227 225
f 226 192 190
f 228 192 226
f 229 227 191
f 229 191 193
f 193 194 229
f 229 194 230
f 232 231 196
f 196 231 195
f 196 192 228
f 196 228 232
f 233 230 194
f 233 194 197
f 197 198 233
f 233 198 234
f 236 235 200
f 200 235 199
f 200 195 231
f 200 231 236
f 237 234 198
f 237 198 201
f 238 201 202
f 238 237 201
f 239 202 203
f 239 238 202
f 240 203 204
f 240 239 203
f 241 204 205
f 241 240 204
f 205 199 235
f 205 235 241
f 243 242 206
f 243 206 207
f 206 244 208
f 242 244 206
f 208 245 209
f 244 245 208
f 209 246 210
f 245 246 209
f 210 247 211
f 246 247 210
f 212 211 247
f 212 247 248
f 250 249 213
f 250 213 214
f 207 213 243
f 243 213 249
f 248 251 212
f 212 251 215
f 216 215 251
f 216 251 252
f 254 253 217
f 254 217 218
f 214 217 250
f 250 217 253
f 252 255 216
f 216 255 219
f 220 219 255
f 220 255 256
f 221 254 218
f 221 257 254
f 256 222 220
f 258 222 256
f 223 257 221
f 223 259 257
f 258 224 222
f 260 224 258
f 225 259 223
f 225 261 259
f 260 226 224
f 262 226 260
f 227 261 225
f 227 263 261
f 262 228 226
f 264 228 262
f 265 263 227
f 265 227 229
f 229 230 265
f 265 230 266
f 268 267 232
f 232 267 231
f 232 228 264
f 232 264 268
f 269 266 230
f 269 230 233
f 233 234 269
f 269 234 270
f 272 271 236
f 236 271 235
f 236 231 267
f 236 267 272
f 273 270 234
f 273 234 237
f 274 237 238
f 274 273 237
f 275 238 239
f 275 274 238
f 276 239 240
f 276 275 239
f 277 240 241
f 277 276 240
f 241 235 271
f 241 271 277
f 279 278 242
f 279 242 243
f 242 280 244
f 278 280 242
f 244 281 245
f 280 281 244
f 245 282 246
f 281 282 245
f 246 283 247
f 282 283 246
f 248 247 283
f 248 283 284
f 286 285 249
f 286 249 250
f 243 249 279
f 279 249 285
f 284 287 248
f 248 287 251
f 252 251 287
f 252 287 288
f 290 289 253
f 290 253 254
f 250 253 286
f 286 253 289
f 288 291 252
f 252 291 255
f 256 255 291
f 256 291 292
f 257 290 254
f 257 293 290
f 292 258 256
f 294 258 292
f 259 293 257
f 259 295 293
f 294 260 258
f 296 260 294
f 261 295 259
f 261 297 295
f 296 262 260
f 298 262 296
f 263 297 261
f 263 299 297
f 298 264 262
f 300 264 298
f 301 299 263
f 301 263 265
f 265 266 301
f 301 266 302
f 304 303 268
f 268 303 267
f 268 264 300
f 268 300 304
f 305 302 266
f 305 266 269
f 269 270 305
f 305 270 306
f 308 307 272
f 272 307 271
f 272 267 303
f 272 303 308
f 309 306 270
f 309 270 273
f 310 273 274
f 310 309 273
f 311 274 275
f 311 310 274
f 312 275 276
f 312 311 275
f 313 276 277
f 313 312 276
f 277 271 307
f 277 307 313
f 315 314 278
f 315 278 279
f 278 316 280
f 314 316 278
f 280 317 281
f 316 317 280
f 281 318 282
f 317 318 281
f 282 319 283
f 318 319 282
f 284 283 319
f 284 319 320
f 322 321 285
f 322 285 286
f 279 285 315
f 315 285 321
f 320 323 284
f 284 323 287
f 288 287 323
f 288 323 324
f 326 325 289
f 326 289 290
f 286 289 322
f 322 289 325
f 324 327 288
f 288 327 291
f 292 291 327
f 292 327 328
f 293 326 290
f 293 329 326
f 328 294 292
f 330 294 328
f 295 329 293
f 295 331 329
f 330 296 294
f 332 296 330
f 297 331 295
f 297 333 331
f 332 298 296
f 334 298 332
f 299 333 297
f 299 335 333
f 334 300 298
f 336 300 334
f 337 335 299
f 337 299 301
f 301 302 337
f 337 302 338
f 340 339 304
f 304 339 303
f 304 300 336
f 304 336 340
f 341 338 302
f 341 302 305
f 305 306 341
f 341 306 342
f 344 343 308
f 308 343 307
f 308 303 339
f 308 339 344
f 345 342 306
f 345 306 309
f 346 309 310
f 346 345 309
f 347 310 311
f 347 346 310
f 348 311 312
f 348 347 311
f 349 312 313
f 349 348 312
f 313 307 343
f 313 343 349
f 351 350 314
f 351 314 315
f 314 352 316
f 350 352 314
f 316 353 317
f 352 353 316
f 317 354 318
f 353 354 317
f 318 355 319
f 354 355 318
f 320 319 355
f 320 355 356
f 358 357 321
f 358 321 322
f 315 321 351
f 351 321 357
f 356 359 320
f 320 359 323
f 324 323 359
f 324 359 360
f 362 361 325
f 362 325 326
f 322 325 358
f 358 325 361
f 360 363 324
f 324 363 327
f 328 327 363
f 328 363 364
f 329 362 326
f 329 365 362
f 364 330 328
f 366 330 364
f 331 365 329
f 331 367 365
f 366 332 330
f 368 332 366
f 333 367 331
f 333 369 367
f 368 334 332
f 370 334 368
f 335 369 333
f 335 371 369
f 370 336 334
f 372 336 370
f 373 371 335
f 373 335 337
f 337 338 373
f 373 338 374
f 376 375 340
f 340 375 339
f 340 336 372
f 340 372 376
f 377 374 338
f 377 338 341
f 341 342 377
f 377 342 378
f 380 379 344
f 344 379 343
f 344 339 375
f 344 375 380
f 381 378 342
f 381 342 345
f 382 345 346
f 382 381 345
f 383 346 347
f 383 382 346
f 384 347 348
f 384 383 347
f 385 348 349
f 385 384 348
f 349 343 379
f 349 379 385
f 387 386 350
f 387 350 351
f 350 388 352
f 386 388 350
f 352 389 353
f 388 389 352
f 353 390 354
f 389 390 353
f 354 391 355
f 390 391 354
f 356 355 391
f 356 391 392
f 394 393 357
f 394 357 358
f 351 357 387
f 387 357 393
f 392 395 356
f 356 395 359
f 360 359 395
f 360 395 396
f 398 397 361
f 398 361 362
f 358 361 394
f 394 361 397
f 396 399 360
f 360 399 363
f 364 363 399
f 364 399 400
f 365 398 362
f 365 401 398
f 400 366 364
f 402 366 400
f 367 401 365
f 367 403 401
f 402 368 366
f 404 368 402
f 369 403 367
f 369 405 403
f 404 370 368
f 406 370 404
f 371 405 369
f 371 407 405
f 406 372 370
f 408 372 406
f 409 407 371
f 409 371 373
f 373 374 409
f 409 374 410
f 412 411 376
f 376 411 375
f 376 372 408
f 376 408 412
f 413 410 374
f 413 374 377
f 377 378 413
f 413 378 414
f 416 415 380
f 380 415 379
f 380 375 411
f 380 411 416
f 417 414 378
f 417 378 381
f 418 381 382
f 418 417 381
f 419 382 383
f 419 418 382
f 420 383 384
f 420 419 383
f 421 384 385
f 421 420 384
f 385 379 415
f 385 415 421
f 423 422 386
f 423 386 387
f 386 424 388
f 422 424 386
f 388 425 389
f 424 425 388
f 389 426 390
f 425 426 389
f 390 427 391
f 426 427 390
f 392 391 427
f 392 427 428
f 430 429 393
f 430 393 394
f 387 393 423
f 423 393 429
f 428 431 392
f 392 431 395
f 396 395 431
f 396 431 432
f 434 433 397
f 434 397 398
f 394 397 430
f 430 397 433
f 432 435 396
f 396 435 399
f 400 399 435
f 400 435 436
f 401 434 398
f 401 437 434
f 436 402 400
f 438 402 436
f 403 437 401
f 403 439 437
f 438 404 402
f 440 404 438
f 405 439 403
f 405 441 439
f 440 406 404
f 442 406 440
f 407 441 405
f 407 443 441
f 442 408 406
f 444 408 442
f 445 443 407
f 445 407 409
f 409 410 445
f 445 410 446
f 448 447 412
f 412 447 411
f 412 408 444
f 412 444 448
f 449 446 410
f 449 410 413
f 413 414 449
f 449 414 450
f 452 451 416
f 416 451 415
f 416 411 447
f 416 447 452
f 453 450 414
f 453 414 417
f 454 417 418
f 454 453 417
f 455 418 419
f 455 454 418
f 456 419 420
f 456 455 419
f 457 420 421
f 457 456 420
f 421 415 451
f 421 451 457
f 459 458 422
f 459 422 423
f 422 460 424
f 458 460 422
f 424 461 425
f 460 461 424
f 425 462 426
f 461 462 425
f 426 463 427
f 462 463 426
f 428 427 463
f 428 463 464
f 466 465 429
f 466 429 430
f 423 429 459
f 459 429 465
f 464 467 428
f 428 467 431
f 432 431 467
f 432 467 468
f 470 469 433
f 470 433 434
f 430 433 466
f 466 433 469
f 468 471 432
f 432 471 435
f 436 435 471
f 436 471 472
f 437 470 434
f 437 473 470
f 472 438 436
f 474 438 472
f 439 473 437
f 439 475 473
f 474 440 438
f 476 440 474
f 441 475 439
f 441 477 475
f 476 442 440
f 478 442 476
f 443 477 441
f 443 479 477
f 478 444 442
f 480 444 478
f 481 479 443
f 481 443 445
f 445 446 481
f 481 446 482
f 484 483 448
f 448 483 447
f 448 444 480
f 448 480 484
f 485 482 446
f 485 446 449
f 449 450 485
f 485 450 486
f 488 487 452
f 452 487 451
f 452 447 483
f 452 483 488
f 489 486 450
f 489 450 453
f 490 453 454
f 490 489 453
f 491 454 455
f 491 490 454
f 492 455 456
f 492 491 455
f 493 456 457
f 493 492 456
f 457 451 487
f 457 487 493
f 495 494 458
f 495 458 459
f 458 496 460
f 494 496 458
f 460 497 461
f 496 497 460
f 461 498 462
f 497 498 461
f 462 499 463
f 498 499 462
f 464 463 499
f 464 499 500
f 502 501 465
f 502 465 466
f 459 465 495
f 495 465 501
f 500 503 464
f 464 503 467
f 468 467 503
f 468 503 504
f 506 505 469
f 506 469 470
f 466 469 502
f 502 469 505
f 504 507 468
f 468 507 471
f 472 471 507
f 472 507 508
f 473 506 470
f 473 509 506
f 508 474 472
f 510 474 508
f 475 509 473
f 475 511 509
f 510 476 474
f 512 476 510
f 477 511 475
f 477 513 511
f 512 478 476
f 514 478 512
f 479 513 477
f 479 515 513
f 514 480 478
f 516 480 514
f 517 515 479
f 517 479 481
f 481 482 517
f 517 482 518
f 520 519 484
f 484 519 483
f 484 480 516
f 484 516 520
f 521 518 482
f 521 482 485
f 485 486 521
f 521 486 522
f 524 523 488
f 488 523 487
f 488 483 519
f 488 519 524
f 525 522 486
f 525 486 489
f 526 489 490
f 526 525 489
f 527 490 491
f 527 526 490
f 528 491 492
f 528 527 491
f 529 492 493
f 529 528 492
f 493 487 523
f 493 523 529
f 531 530 494
f 531 494 495
f 494 532 496
f 530 532 494
f 496 533 497
f 532 533 496
f 497 534 498
f 533 534 497
f 498 535 499
f 534 535 498
f 500 499 535
f 500 535 536
f 538 537 501
f 538 501 502
f 495 501 531
f 531 501 537
f 536 539 500
f 500 539 503
f 504 503 539
f 504 539 540
f 542 541 505
f 542 505 506
f 502 505 538
f 538 505 541
f 540 543 504
f 504 543 507
f 508 507 543
f 508 543 544
f 509 542 506
f 509 545 542
f 544 510 508
f 546 510 544
f 511 545 509
f 511 547 545
f 546 512 510
f 548 512 546
f 513 547 511
f 513 549 547
f 548 514 512
f 550 514 548
f 515 549 513
f 515 551 549
f 550 516 514
f 552 516 550
f 553 551 515
f 553 515 517
f 517 518 553
f 553 518 554
f 556 555 520
f 520 555 519
f 520 516 552
f 520 552 556
f 557 554 518
f 557 518 521
f 521 522 557
f 557 522 558
f 560 559 524
f 524 559 523
f 524 519 555
f 524 555 560
f 561 558 522
f 561 522 525
f 562 525 526
f 562 561 525
f 563 526 527
f 563 562 526
f 564 527 528
f 564 563 527
f 565 528 529
f 565 564 528
f 529 523 559
f 529 559 565
f 567 566 530
f 567 530 531
f 530 568 532
f 566 568 530
f 532 569 533
f 568 569 532
f 533 570 534
f 569 570 533
f 534 571 535
f 570 571 534
f 536 535 571
f 536 571 572
f 574 573 537
f 574 537 538
f 531 537 567
f 567 537 573
f 572 575 536
f 536 575 539
f 540 539 575
f 540 575 576
f 578 577 541
f 578 541 542
f 538 541 574
f 574 541 577
f 576 579 540
f 540 579 543
f 544 543 579
f 544 579 580
f 545 578 542
f 545 581 578
f 580 546 544
f 582 546 580
f 547 581 545
f 547 583 581
f 582 548 546
f 584 548 582
f 549 583 547
f 549 585 583
f 584 550 548
f 586 550 584
f 551 585 549
f 551 587 585
f 586 552 550
f 588 552 586
f 589 587 551
f 589 551 553
f 553 554 589
f 589 554 590
f 592 591 556
f 556 591 555
f 556 552 588
f 556 588 592
f 593 590 554
f 593 554 557
f 557 558 593
f 593 558 594
f 596 595 560
f 560 595 559
f 560 555 591
f 560 591 596
f 597 594 558
f 597 558 561
f 598 561 562
f 598 597 561
f 599 562 563
f 599 598 562
f 600 563 564
f 600 599 563
f 601 564 565
f 601 600 564
f 565 559 595
f 565 595 601
f 603 602 566
f 603 566 567
f 566 604 568
f 602 604 566
f 568 605 569
f 604 605 568
f 569 606 570
f 605 606 569
f 570 607 571
f 606 607 570
f 572 571 607
f 572 607 608
f 610 609 573
f 610 573 574
f 567 573 603
f 603 573 609
f 608 611 572
f 572 611 575
f 576 575 611
f 576 611 612
f 614 613 577
f 614 577 578
f 574 577 610
f 610 577 613
f 612 615 576
f 576 615 579
f 580 579 615
f 580 615 616
f 581 614 578
f 581 617 614
f 616 582 580
f 618 582 616
f 583 617 581
f 583 619 617
f 618 584 582
f 620 584 618
f 585 619 583
f 585 621 619
f 620 586 584
f 622 586 620
f 587 621 585
f 587 623 621
f 622 588 586
f 624 588 622
f 625 623 587
f 625 587 589
f 589 590 625
f 625 590 626
f 628 627 592
f 592 627 591
f 592 588 624
f 592 624 628
f 629 626 590
f 629 590 593
f 593 594 629
f 629 594 630
f 632 631 596
f 596 631 595
f 596 591 627
f 596 627 632
f 633 630 594
f 633 594 597
f 634 597 598
f 634 633 597
f 635 598 599
f 635 634 598
f 636 599 600
f 636 635 599
f 637 600 601
f 637 636 600
f 601 595 631
f 601 631 637
f 639 638 602
f 639 602 603
f 602 640 604
f 638 640 602
f 604 641 605
f 640 641 604
f 605 642 606
f 641 642 605
f 606 643 607
f 642 643 606
f 608 607 643
f 608 643 644
f 646 645 609
f 646 609 610
f 603 609 639
f 639 609 645
f 644 647 608
f 608 647 611
f 612 611 647
f 612 647 648
f 650 649 613
f 650 613 614
f 610 613 646
f 646 613 649
f 648 651 612
f 612 651 615
f 616 615 651
f 616 651 652
f 617 650 614
f 617 653 650
f 652 618 616
f 654 618 652
f 619 653 617
f 619 655 653
f 654 620 618
f 656 620 654
f 621 655 619
f 621 657 655
f 656 622 620
f 658 622 656
f 623 657 621
f 623 659 657
f 658 624 622
f 660 624 658
f 661 659 623
f 661 623 625
f 625 626 661
f 661 626 662
f 664 663 628
f 628 663 627
f 628 624 660
f 628 660 664
f 665 662 626
f 665 626 629
f 629 630 665
f 665 630 666
f 668 667 632
f 632 667 631
f 632 627 663
f 632 663 668
f 669 666 630
f 669 630 633
f 670 633 634
f 670 669 633
f 671 634 635
f 671 670 634
f 672 635 636
f 672 671 635
f 673 636 637
f 673 672 636
f 637 631 667
f 637 667 673
f 639 674 638
f 638 674 675
f 676 638 675
f 640 638 676
f 640 677 641
f 676 677 640
f 641 678 642
f 677 678 641
f 678 680 679
f 643 678 679
f 642 678 643
f 679 644 643
f 682 681 645
f 682 645 646
f 639 645 674
f 645 683 674
f 645 681 683
f 674 683 675
f 680 684 679
f 679 684 644
f 684 647 644
f 684 685 647
f 648 647 685
f 648 685 686
f 650 687 649
f 687 688 649
f 688 646 649
f 688 682 646
f 651 648 689
f 648 690 689
f 648 686 690
f 689 652 651
f 692 691 687
f 650 692 687
f 653 692 650
f 687 691 688
f 690 693 689
f 652 689 693
f 694 652 693
f 654 652 694
f 655 692 653
f 655 695 692
f 694 656 654
f 696 656 694
f 657 695 655
f 657 697 695
f 696 658 656
f 698 658 696
f 659 700 699
f 697 659 699
f 657 659 697
f 700 701 699
f 704 703 702
f 698 704 702
f 660 698 702
f 658 698 660
f 661 700 659
f 661 662 700
f 662 701 700
f 662 705 701
f 702 703 664
f 703 663 664
f 703 706 663
f 702 664 660
f 707 705 662
f 707 662 665
f 709 708 666
f 708 665 666
f 708 707 665
f 709 710 708
f 713 712 711
f 667 668 711
f 668 713 711
f 668 714 713
f 668 663 706
f 668 706 714
f 669 709 666
f 715 710 709
f 669 715 709
f 670 715 669
f 716 670 671
f 716 715 670
f 717 671 672
f 717 716 671
f 673 711 712
f 717 673 712
f 672 673 717
f 711 673 667
f 675 718 676
f 719 677 676
f 719 676 718
f 720 678 677
f 720 677 719
f 720 680 678
f 682 721 681
f 681 721 722
f 723 681 722
f 683 681 723
f 675 683 718
f 683 724 718
f 683 723 724
f 718 724 719
f 719 724 725
f 719 725 720
f 720 725 726
f 720 726 680
f 726 684 680
f 726 727 684
f 727 729 728
f 685 727 728
f 684 727 685
f 728 686 685
f 731 730 721
f 682 731 721
f 688 731 682
f 721 730 722
f 729 732 728
f 686 728 732
f 733 686 732
f 690 686 733
f 692 734 691
f 734 735 691
f 735 688 691
f 735 731 688
f 693 690 736
f 690 737 736
f 690 733 737
f 736 694 693
f 739 738 734
f 692 739 734
f 695 739 692
f 734 738 735
f 737 740 736
f 694 736 740
f 741 694 740
f 696 694 741
f 697 743 742
f 739 697 742
f 695 697 739
f 743 744 742
f 747 746 745
f 741 747 745
f 698 741 745
f 696 741 698
f 699 743 697
f 699 701 743
f 701 744 743
f 701 748 744
f 745 746 704
f 746 703 704
f 746 749 703
f 745 704 698
f 705 751 750
f 748 705 750
f 701 705 748
f 751 752 750
f 755 754 753
f 749 755 753
f 706 749 753
f 703 749 706
f 707 751 705
f 756 752 751
f 707 756 751
f 708 756 707
f 758 757 710
f 757 708 710
f 757 756 708
f 758 759 757
f 762 761 760
f 712 713 760
f 713 762 760
f 713 763 762
f 714 753 754
f 763 714 754
f 713 714 763
f 753 714 706
f 715 758 710
f 764 759 758
f 715 764 758
f 716 764 715
f 717 760 761
f 764 717 761
f 716 717 764
f 760 717 712
f 766 765 723
f 766 723 722
f 723 767 724
f 765 767 723
f 724 768 725
f 767 768 724
f 725 769 726
f 768 769 725
f 769 771 770
f 727 769 770
f 726 769 727
f 770 729 727
f 731 772 730
f 772 773 730
f 773 722 730
f 773 766 722
f 771 774 770
f 774 776 775
f 774 775 732
f 770 774 732
f 729 770 732
f 775 733 732
f 778 777 772
f 731 778 772
f 735 778 731
f 772 777 773
f 776 779 775
f 733 775 779
f 780 733 779
f 737 733 780
f 739 781 738
f 781 782 738
f 782 735 738
f 782 778 735
f 740 737 783
f 737 784 783
f 737 780 784
f 783 741 740
f 742 781 739
f 742 744 781
f 744 782 781
f 744 785 782
f 783 784 747
f 784 746 747
f 784 786 746
f 783 747 741
f 748 788 787
f 785 748 787
f 744 748 785
f 788 789 787
f 792 791 790
f 786 792 790
f 749 786 790
f 746 786 749
f 750 788 748
f 750 752 788
f 752 789 788
f 752 793 789
f 796 795 794
f 796 794 791
f 791 794 790
f 794 754 790
f 754 755 790
f 790 755 749
f 797 793 752
f 797 752 756
f 798 756 757
f 798 797 756
f 800 799 759
f 799 757 759
f 799 798 757
f 761 762 800
f 762 799 800
f 762 801 799
f 763 794 795
f 801 763 795
f 762 763 801
f 794 763 754
f 764 800 759
f 800 764 761
f 766 802 765
f 803 767 765
f 803 765 802
f 767 803 804
f 805 767 804
f 768 767 805
f 805 807 806
f 769 805 806
f 768 805 769
f 806 771 769
f 809 808 802
f 766 809 802
f 773 809 766
f 802 808 803
f 803 808 810
f 803 810 804
f 807 811 806
f 806 811 771
f 811 774 771
f 811 812 774
f 776 774 812
f 776 812 813
f 778 814 777
f 814 815 777
f 815 773 777
f 815 809 773
f 779 776 816
f 776 817 816
f 776 813 817
f 816 780 779
f 819 818 814
f 778 819 814
f 782 819 778
f 814 818 815
f 817 820 816
f 780 816 820
f 821 780 820
f 784 780 821
f 785 823 822
f 819 785 822
f 782 785 819
f 823 824 822
f 827 826 825
f 821 827 825
f 786 821 825
f 784 821 786
f 787 823 785
f 787 789 823
f 789 824 823
f 789 828 824
f 825 826 792
f 826 791 792
f 826 829 791
f 825 792 786
f 793 831 830
f 828 793 830
f 789 793 828
f 833 832 831
f 831 832 830
f 833 834 832
f 837 836 835
f 795 796 835
f 796 837 835
f 796 838 837
f 796 791 829
f 796 829 838
f 797 831 793
f 831 797 798
f 831 798 833
f 839 834 833
f 798 839 833
f 799 839 798
f 801 835 836
f 839 801 836
f 799 801 839
f 835 801 795
f 804 840 805
f 840 807 805
f 809 841 808
f 808 841 842
f 843 808 842
f 810 808 843
f 804 810 840
f 810 844 840
f 810 843 844
f 840 844 807
f 844 811 807
f 844 845 811
f 845 847 846
f 812 845 846
f 811 845 812
f 846 813 812
f 849 848 841
f 809 849 841
f 815 849 809
f 841 848 842
f 847 850 846
f 813 846 850
f 851 813 850
f 817 813 851
f 819 852 818
f 852 853 818
f 853 815 818
f 853 849 815
f 820 817 854
f 817 855 854
f 817 851 855
f 854 821 820
f 822 852 819
f 822 824 852
f 824 853 852
f 824 856 853
f 854 855 827
f 855 826 827
f 855 857 826
f 854 827 821
f 828 859 858
f 856 828 858
f 824 828 856
f 859 860 858
f 863 862 861
f 857 863 861
f 829 857 861
f 826 857 829
f 830 859 828
f 864 860 859
f 830 864 859
f 832 864 830
f 866 865 834
f 865 832 834
f 865 864 832
f 836 837 866
f 837 865 866
f 837 867 865
f 838 861 862
f 867 838 862
f 837 838 867
f 861 838 829
f 839 866 834
f 866 839 836
f 842 868 843
f 843 868 869
f 870 843 869
f 844 843 870
f 870 872 871
f 845 870 871
f 844 870 845
f 871 847 845
f 849 873 848
f 873 874 848
f 848 874 842
f 874 875 842
f 875 868 842
f 868 875 869
f 872 876 871
f 876 878 877
f 876 877 850
f 871 876 850
f 847 871 850
f 877 851 850
f 880 879 873
f 849 880 873
f 853 880 849
f 873 879 874
f 878 881 877
f 851 877 881
f 882 851 881
f 855 851 882
f 856 884 883
f 880 856 883
f 853 856 880
f 884 885 883
f 888 887 886
f 882 888 886
f 857 882 886
f 855 882 857
f 858 884 856
f 890 889 860
f 860 889 858
f 889 885 858
f 885 884 858
f 890 891 889
f 894 893 892
f 894 892 887
f 887 892 886
f 892 862 886
f 862 863 886
f 886 863 857
f 864 890 860
f 895 891 890
f 864 895 890
f 865 895 864
f 867 892 893
f 895 867 893
f 865 867 895
f 892 867 862
f 869 896 870
f 896 872 870
f 898 897 875
f 898 875 874
f 869 875 896
f 875 899 896
f 875 897 899
f 896 899 872
f 899 876 872
f 899 900 876
f 878 876 900
f 878 900 901
f 880 902 879
f 902 903 879
f 903 874 879
f 903 898 874
f 881 878 904
f 878 905 904
f 878 901 905
f 904 882 881
f 883 902 880
f 883 885 902
f 885 903 902
f 885 906 903
f 904 905 888
f 905 887 888
f 905 907 887
f 904 888 882
f 908 906 885
f 908 885 889
f 910 909 891
f 909 889 891
f 909 908 889
f 893 894 910
f 894 909 910
f 894 911 909
f 894 887 907
f 894 907 911
f 895 910 891
f 910 895 893
f 898 912 897
f 913 899 897
f 913 897 912
f 914 900 899
f 914 899 913
f 914 901 900
f 903 915 912
f 903 912 898
f 917 913 916
f 913 915 916
f 913 912 915
f 919 918 917
f 918 913 917
f 918 914 913
f 918 905 901
f 918 901 914
f 906 920 915
f 906 915 903
f 916 915 921
f 915 922 921
f 915 920 922
f 921 922 919
f 922 918 919
f 922 923 918
f 923 907 905
f 923 905 918
f 908 920 906
f 920 908 909
f 920 909 922
f 922 909 911
f 922 911 923
f 923 911 907
f 916 924 917
f 924 919 917
f 921 924 916
f 924 921 919

