# https://github.com/mikedh/trimesh
v -0.89102290 0.02165625 -0.00793080
v -0.87858027 0.01496203 -0.01033856
v -0.88089097 0.02516706 -0.01905331
v -0.89076530 0.02525677 0.00702518
v -0.88566390 0.01605008 0.00680837
v -0.88004010 0.02166744 0.01818133
v -0.88309060 0.03183205 -0.00558452
v -0.87990640 0.03094681 0.01281545
v -0.85627009 0.01300435 -0.01013024
v -0.86227191 0.02318313 -0.02058513
v -0.86711537 0.01344188 0.00974038
v -0.86095156 0.02342790 0.01978586
v -0.86228909 0.03344829 -0.01065719
v -0.86131525 0.03354505 0.00962883
v -0.83330804 0.01283773 -0.00973104
v -0.83941232 0.02264613 -0.01988478
v -0.84351793 0.01332965 0.00997291
v -0.83744165 0.02359197 0.01973581
v -0.83905662 0.03282607 -0.01018588
v -0.83765693 0.03333370 0.00957522
v -0.81021284 0.01248162 -0.00965559
v -0.81582888 0.02575082 -0.02016920
v -0.82045212 0.01312872 0.01014962
v -0.81456024 0.02333322 0.02000691
v -0.81540270 0.03479436 -0.00850276
v -0.81503082 0.03274364 0.01020556
v -0.78866507 0.01255527 -0.01230475
v -0.79640294 0.02113932 -0.02173483
v -0.79514540 0.01349636 0.00816464
v -0.79654553 0.02431073 0.01878596
v -0.80492344 0.04724736 -0.01186617
v -0.79440721 0.04299607 -0.02224603
v -0.79187687 0.04247727 -0.00046292
v -0.79343255 0.03129206 0.00897853
v -0.80211447 0.06936694 -0.01150294
v -0.79244659 0.06954218 -0.02136364
v -0.79171086 0.06315333 -0.00145240
v -0.80138473 0.08850896 -0.01288449
v -0.78818484 0.09066990 -0.01954816
v -0.79267207 0.08599723 -0.00275885
v -0.79063945 0.09854761 -0.00939807
v -0.77344915 0.01467870 -0.00580609
v -0.77577469 0.02344823 -0.02041762
v -0.78156550 0.01990023 0.01009392
v -0.77175153 0.02804507 -0.00025143
v -0.77218866 0.04430266 -0.02182210
v -0.77191206 0.05007579 -0.00161251
v -0.77269500 0.06856023 -0.02128921
v -0.77273972 0.07436250 -0.00131531
v -0.76989512 0.08741381 -0.01868449
v -0.77589914 0.09316014 -0.00380349
v -0.77569666 0.09827757 -0.01302437
v -0.76296902 0.02548011 -0.01368542
v -0.76233000 0.04401031 -0.01197347
v -0.76280344 0.06813169 -0.01126349
v -0.76453843 0.08753711 -0.00942602
v -0.62610539 -0.11081965 -0.00793192
v -0.61365342 -0.11750442 -0.01032120
v -0.61596252 -0.10730845 -0.01903631
v -0.62584323 -0.10720632 0.00702408
v -0.62074708 -0.11642403 0.00680982
v -0.61512068 -0.11080263 0.01818591
v -0.61816472 -0.10064500 -0.00557697
v -0.61498243 -0.10152448 0.01282134
v -0.62687471 -0.05917191 0.01040503
v -0.61493794 -0.07210285 0.01056541
v -0.62055773 -0.06344121 -0.00049964
v -0.61479767 -0.06677814 0.01945971
v -0.62709430 -0.04752747 -0.00748554
v -0.61348672 -0.05312694 -0.01362160
v -0.61572814 -0.04001128 -0.01893425
v -0.62775837 -0.04126289 0.00639798
v -0.61783763 -0.04881104 0.01994505
v -0.61798889 -0.03320878 -0.00606737
v -0.61560390 -0.03380312 0.01172041
v -0.59122036 -0.11920254 -0.01014717
v -0.59723767 -0.10904177 -0.02054858
v -0.60218269 -0.11903028 0.00975536
v -0.59601389 -0.10905189 0.01979156
v -0.59733408 -0.09894103 -0.01062162
v -0.59639200 -0.09892782 0.00963594
v -0.59593953 -0.07345599 0.01242330
v -0.60203858 -0.06713673 -0.00052108
v -0.59626348 -0.06372476 0.02174224
v -0.59118706 -0.05446542 -0.01338924
v -0.59713437 -0.04161703 -0.02024657
v -0.59677703 -0.04425078 0.02161451
v -0.59719673 -0.03184516 -0.01070296
v -0.59680786 -0.03147988 0.00873147
v -0.56830584 -0.11908817 -0.01015814
v -0.57430115 -0.10916063 -0.02022746
v -0.57847888 -0.11902402 0.00989139
v -0.57251558 -0.10882037 0.01960561
v -0.57408323 -0.09909923 -0.01040384
v -0.57287457 -0.09891115 0.00946647
v -0.57253882 -0.07306422 0.01225202
v -0.57848199 -0.06701159 -0.00034128
v -0.57285328 -0.06343075 0.02156414
v -0.56831132 -0.05422353 -0.01317945
v -0.57427504 -0.04176629 -0.01967877
v -0.57346563 -0.04438634 0.02143439
v -0.57408262 -0.03223417 -0.01036253
v -0.57353216 -0.03188851 0.00862706
v -0.54621023 -0.11903324 -0.01017827
v -0.55204042 -0.10903100 -0.02018098
v -0.55576211 -0.11901977 0.00983280
v -0.54993439 -0.10900969 0.01981769
v -0.55164431 -0.09903319 -0.01017256
v -0.55035159 -0.09902482 0.00982361
v -0.54996694 -0.07325624 0.01202409
v -0.55576970 -0.06684023 -0.00049129
v -0.55034609 -0.06379245 0.02148825
v -0.54620975 -0.05415954 -0.01319160
v -0.55201070 -0.04164317 -0.01961164
v -0.55096448 -0.04469184 0.02164048
v -0.55164206 -0.03218010 -0.01012785
v -0.55102557 -0.03201937 0.00897241
v -0.52416835 -0.11903274 -0.01018115
v -0.52999663 -0.10902399 -0.02018727
v -0.53372096 -0.11903752 0.00984004
v -0.52789437 -0.10903052 0.01985075
v -0.52958944 -0.09901611 -0.01017753
v -0.52829994 -0.09901878 0.00984125
v -0.52792555 -0.07329837 0.01201469
v -0.53372248 -0.06685466 -0.00051237
v -0.52830170 -0.06381855 0.02150254
v -0.52416717 -0.05416367 -0.01318944
v -0.52996510 -0.04164034 -0.01962393
v -0.52891322 -0.04469154 0.02167068
v -0.52958319 -0.03216090 -0.01014206
v -0.52896540 -0.03200029 0.00898352
v -0.50209161 -0.11903295 -0.01018132
v -0.50792339 -0.10902674 -0.02018748
v -0.51167133 -0.11903352 0.00983194
v -0.50583937 -0.10902678 0.01983800
v -0.50752260 -0.09902035 -0.01018130
v -0.50623994 -0.09902020 0.00983128
v -0.50587102 -0.07328455 0.01201638
v -0.51167241 -0.06684921 -0.00050497
v -0.50624619 -0.06380580 0.02149487
v -0.50209057 -0.05416400 -0.01318865
v -0.50789200 -0.04164344 -0.01962428
v -0.50685683 -0.04468560 0.02165803
v -0.50751647 -0.03216515 -0.01014647
v -0.50690530 -0.03200134 0.00897328
v -0.48001395 -0.11903302 -0.01018110
v -0.48584559 -0.10902682 -0.02018732
v -0.48959381 -0.11903296 0.00983105
v -0.48376207 -0.10902684 0.01983733
v -0.48544496 -0.09902065 -0.01018112
v -0.48416262 -0.09902068 0.00983124
v -0.48379355 -0.07328354 0.01201596
v -0.48959488 -0.06684802 -0.00050456
v -0.48416896 -0.06380560 0.02149397
v -0.48001291 -0.05416413 -0.01318877
v -0.48581422 -0.04164344 -0.01962426
v -0.48477979 -0.04468606 0.02165751
v -0.48543887 -0.03216538 -0.01014618
v -0.48482810 -0.03200192 0.00897343
v -0.45793702 -0.11903302 -0.01018110
v -0.46376864 -0.10902680 -0.02018732
v -0.46751633 -0.11903302 0.00983134
v -0.46168472 -0.10902681 0.01983756
v -0.46336792 -0.09902058 -0.01018110
v -0.46208543 -0.09902059 0.00983134
v -0.46171609 -0.07328383 0.01201614
v -0.46751737 -0.06684833 -0.00050457
v -0.46209153 -0.06380573 0.02149425
v -0.45793598 -0.05416414 -0.01318878
v -0.46373727 -0.04164342 -0.01962427
v -0.46270244 -0.04468604 0.02165774
v -0.46336182 -0.03216531 -0.01014616
v -0.46275091 -0.03200183 0.00897354
v -0.43586009 -0.11903302 -0.01018110
v -0.44169170 -0.10902680 -0.02018732
v -0.44543940 -0.11903302 0.00983134
v -0.43960779 -0.10902680 0.01983755
v -0.44129099 -0.09902058 -0.01018110
v -0.44000850 -0.09902058 0.00983134
v -0.43963916 -0.07328383 0.01201615
v -0.44544044 -0.06684834 -0.00050457
v -0.44001460 -0.06380572 0.02149425
v -0.43585905 -0.05416414 -0.01318878
v -0.44166033 -0.04164342 -0.01962427
v -0.44062551 -0.04468603 0.02165773
v -0.44128489 -0.03216531 -0.01014616
v -0.44067398 -0.03200183 0.00897353
v -0.41378315 -0.11903302 -0.01018110
v -0.41961476 -0.10902680 -0.02018732
v -0.42336246 -0.11903302 0.00983134
v -0.41753085 -0.10902680 0.01983755
v -0.41921405 -0.09902058 -0.01018110
v -0.41793156 -0.09902058 0.00983134
v -0.41756222 -0.07328383 0.01201614
v -0.42336350 -0.06684834 -0.00050457
v -0.41793766 -0.06380572 0.02149425
v -0.41378211 -0.05416413 -0.01318878
v -0.41958339 -0.04164341 -0.01962427
v -0.41854857 -0.04468603 0.02165773
v -0.41920795 -0.03216531 -0.01014616
v -0.41859704 -0.03200183 0.00897353
v -0.39170621 -0.11903302 -0.01018111
v -0.39753782 -0.10902680 -0.02018732
v -0.40128552 -0.11903302 0.00983133
v -0.39545391 -0.10902680 0.01983755
v -0.39713711 -0.09902058 -0.01018111
v -0.39585462 -0.09902058 0.00983133
v -0.39548528 -0.07328383 0.01201614
v -0.40128656 -0.06684834 -0.00050458
v -0.39586072 -0.06380572 0.02149425
v -0.39170517 -0.05416413 -0.01318878
v -0.39750645 -0.04164342 -0.01962427
v -0.39647163 -0.04468603 0.02165773
v -0.39713101 -0.03216531 -0.01014617
v -0.39652010 -0.03200183 0.00897353
v -0.36962911 -0.11903304 -0.01018073
v -0.37546074 -0.10902686 -0.02018703
v -0.37920859 -0.11903302 0.00983133
v -0.37337699 -0.10902682 0.01983758
v -0.37506011 -0.09902066 -0.01018092
v -0.37377769 -0.09902063 0.00983142
v -0.37340839 -0.07328387 0.01201612
v -0.37920964 -0.06684834 -0.00050458
v -0.37378383 -0.06380585 0.02149419
v -0.36962802 -0.05416427 -0.01318842
v -0.37542916 -0.04164365 -0.01962397
v -0.37439464 -0.04468627 0.02165765
v -0.37505370 -0.03216565 -0.01014604
v -0.37444292 -0.03200215 0.00897350
v -0.34755169 -0.11903305 -0.01018134
v -0.35338383 -0.10902664 -0.02018750
v -0.35713148 -0.11903306 0.00983173
v -0.35129974 -0.10902685 0.01983788
v -0.35298312 -0.09902032 -0.01018111
v -0.35170044 -0.09902049 0.00983152
v -0.35133104 -0.07328400 0.01201625
v -0.35713258 -0.06684849 -0.00050433
v -0.35170614 -0.06380581 0.02149442
v -0.34755028 -0.05416431 -0.01318913
v -0.35335201 -0.04164321 -0.01962459
v -0.35231723 -0.04468590 0.02165806
v -0.35297693 -0.03216466 -0.01014618
v -0.35236611 -0.03200134 0.00897381
v -0.32548014 -0.11903339 -0.01019713
v -0.33131424 -0.10902689 -0.02020258
v -0.33505306 -0.11903255 0.00983048
v -0.32922146 -0.10902466 0.01983445
v -0.33091182 -0.09901790 -0.01019337
v -0.32962507 -0.09901697 0.00982401
v -0.32925053 -0.07327889 0.01201859
v -0.33505311 -0.06684716 -0.00050415
v -0.32963027 -0.06379584 0.02149846
v -0.32547615 -0.05416075 -0.01320039
v -0.33128451 -0.04164054 -0.01964078
v -0.33025103 -0.04467232 0.02165989
v -0.33091496 -0.03215591 -0.01015938
v -0.33030598 -0.03198781 0.00896853
v -0.30344418 -0.11903592 -0.01018473
v -0.30925582 -0.10902626 -0.02018934
v -0.31298664 -0.11903014 0.00981848
v -0.30715901 -0.10902673 0.01982935
v -0.30884026 -0.09902701 -0.01018151
v -0.30755143 -0.09902873 0.00982438
v -0.30720324 -0.07327651 0.01201468
v -0.31298624 -0.06684061 -0.00050707
v -0.30757819 -0.06380029 0.02148605
v -0.30344786 -0.05416589 -0.01319255
v -0.30923180 -0.04163319 -0.01962296
v -0.30817816 -0.04469295 0.02164773
v -0.30886058 -0.03217349 -0.01014704
v -0.30823441 -0.03202148 0.00896684
v -0.28133394 -0.11906945 -0.00991674
v -0.28705090 -0.10895765 -0.01988180
v -0.29099275 -0.11907246 0.00988125
v -0.28508647 -0.10912623 0.01998033
v -0.28661298 -0.09899885 -0.00981517
v -0.28534391 -0.09910234 0.01009750
v -0.28519679 -0.07350036 0.01189575
v -0.29105318 -0.06694105 -0.00054735
v -0.28525489 -0.06410199 0.02139734
v -0.28142329 -0.05434686 -0.01313424
v -0.28704561 -0.04156982 -0.01932857
v -0.28567983 -0.04502087 0.02175046
v -0.28663091 -0.03217523 -0.00974310
v -0.28585608 -0.03223250 0.00928495
v -0.25827171 -0.11902823 -0.00997604
v -0.26426184 -0.10879225 -0.01954804
v -0.26868028 -0.11921023 0.01003949
v -0.26285660 -0.10907341 0.02026609
v -0.26378920 -0.09887424 -0.00968771
v -0.26286319 -0.09895385 0.01042301
v -0.26250017 -0.07386094 0.01185562
v -0.26868589 -0.06721583 -0.00067282
v -0.26234439 -0.06424940 0.02155425
v -0.25830002 -0.05446969 -0.01330099
v -0.26431044 -0.04154480 -0.01914342
v -0.26280259 -0.04473105 0.02216909
v -0.26377566 -0.03204085 -0.00952196
v -0.26303272 -0.03204471 0.00973226
v -0.23659487 -0.11829106 -0.01278498
v -0.24039946 -0.10906601 -0.01953744
v -0.24363158 -0.11823011 0.00805315
v -0.24461180 -0.10734049 0.01909180
v -0.24379766 -0.09952923 -0.01277136
v -0.23825941 -0.09997762 0.00541118
v -0.24410820 -0.07250002 0.01374946
v -0.24177829 -0.06418386 0.00060479
v -0.24201687 -0.05977695 0.02047329
v -0.23659036 -0.05262874 -0.01485606
v -0.24049726 -0.04201435 -0.01924462
v -0.24438086 -0.04183125 0.01994081
v -0.24378061 -0.03276008 -0.01244799
v -0.23819470 -0.03313450 0.00494591
v -0.22146038 -0.11575624 -0.00624180
v -0.22120055 -0.11099571 -0.01811015
v -0.22937260 -0.11087787 0.01004594
v -0.21872566 -0.10709202 -0.00135098
v -0.22301312 -0.10226324 -0.01128297
v -0.23374533 -0.06540582 0.01227576
v -0.22135908 -0.05003782 -0.00815204
v -0.22129219 -0.04392383 -0.01795830
v -0.22976507 -0.04979242 0.01008141
v -0.21865806 -0.04009013 -0.00174234
v -0.22299126 -0.03535010 -0.01102023
v -0.21235958 -0.10887812 -0.01234454
v -0.21236728 -0.04174123 -0.01228282
v -0.05210487 -0.04458882 -0.00793192
v -0.03965291 -0.05127359 -0.01032120
v -0.04196201 -0.04107762 -0.01903631
v -0.05184271 -0.04097549 0.00702408
v -0.04674656 -0.05019320 0.00680982
v -0.04112016 -0.04457181 0.01818591
v -0.04416420 -0.03441417 -0.00557697
v -0.04098192 -0.03529365 0.01282134
v -0.05211165 0.02167373 -0.00793209
v -0.03965563 0.01498435 -0.01031946
v -0.04195562 0.02517455 -0.01903172
v -0.05183893 0.02527061 0.00702663
v -0.04674516 0.01605692 0.00680878
v -0.04111413 0.02167585 0.01818796
v -0.04416619 0.03182608 -0.00557171
v -0.04098511 0.03094603 0.01282603
v -0.01721986 -0.05297171 -0.01014717
v -0.02323717 -0.04281095 -0.02054858
v -0.02818218 -0.05279945 0.00975536
v -0.02201339 -0.04282106 0.01979155
v -0.02333357 -0.03271020 -0.01062163
v -0.02239150 -0.03269699 0.00963594
v -0.01719140 0.01300833 -0.01008863
v -0.02306823 0.02303822 -0.02051453
v -0.02819652 0.01344881 0.00975562
v -0.02208868 0.02335671 0.01976997
v -0.02323296 0.03314688 -0.01064070
v -0.02247011 0.03331183 0.00959116
v 0.00569520 -0.05285728 -0.01015786
v -0.00030025 -0.04292984 -0.02022723
v -0.00447839 -0.05279319 0.00989139
v 0.00148494 -0.04258956 0.01960561
v -0.00008248 -0.03286849 -0.01040374
v 0.00112603 -0.03268039 0.00946649
v 0.00587754 0.01282196 -0.00999602
v 0.00011821 0.02220602 -0.02009963
v -0.00465277 0.01325000 0.00987545
v 0.00122871 0.02337732 0.01944004
v 0.00018038 0.03216527 -0.01049502
v 0.00110115 0.03296032 0.00921080
v -0.00820665 0.15426870 -0.00763084
v 0.00398955 0.14805363 -0.01043845
v 0.00221158 0.15761781 -0.01875459
v -0.00815752 0.15818366 0.00716640
v -0.00321380 0.14926969 0.00676786
v 0.00218844 0.15507441 0.01787906
v 0.00001247 0.16442882 -0.00563519
v 0.00265536 0.16399212 0.01268073
v -0.00795102 0.22033449 -0.00793192
v 0.00450150 0.21364979 -0.01032091
v 0.00219234 0.22384566 -0.01903604
v -0.00768886 0.22394782 0.00702407
v -0.00259271 0.21473011 0.00680982
v 0.00303372 0.22035148 0.01818591
v -0.00001008 0.23050906 -0.00557687
v 0.00317207 0.22962958 0.01282136
v 0.02779138 -0.05280291 -0.01017887
v 0.02196085 -0.04280015 -0.02018142
v 0.01823910 -0.05278888 0.00983302
v 0.02406699 -0.04277880 0.01981785
v 0.02235681 -0.03280198 -0.01017251
v 0.02364971 -0.03279375 0.00982381
v 0.02792525 0.01267546 -0.01005091
v 0.02368847 0.02509384 -0.02077530
v 0.01789060 0.01312874 0.00971835
v 0.02585760 0.02520886 0.02020204
v 0.02009200 0.03439824 -0.01033866
v 0.02197121 0.03637841 0.00923108
v 0.01619634 0.09072061 -0.01279086
v 0.02328327 0.08071265 -0.01436050
v 0.02684948 0.08910981 -0.01893072
v 0.02434393 0.09163634 -0.00403001
v 0.02151472 0.09618306 -0.01242586
v 0.02421873 0.14748290 -0.01365925
v 0.02082544 0.15617834 -0.02045138
v 0.01985024 0.14461249 0.00648762
v 0.02266482 0.15392622 0.02018885
v 0.02111011 0.16606784 -0.01069434
v 0.02143273 0.16664421 0.00939172
v 0.02693514 0.21195110 -0.01014777
v 0.02091748 0.22211239 -0.02054902
v 0.01597240 0.21212393 0.00975558
v 0.02214136 0.22210231 0.01979171
v 0.02082093 0.23221349 -0.01062157
v 0.02176319 0.23222656 0.00963614
v 0.04980595 -0.05280641 -0.01018986
v 0.04398269 -0.04279688 -0.02020046
v 0.04028005 -0.05280641 0.00984009
v 0.04610330 -0.04279688 0.01985070
v 0.04439474 -0.03278348 -0.01018744
v 0.04569125 -0.03278348 0.00983768
v 0.05014000 0.01267565 -0.00999726
v 0.04164183 0.02132954 -0.02215731
v 0.04005930 0.01298290 0.00953027
v 0.04882073 0.02220761 0.02152092
v 0.03234089 0.04639964 -0.01002694
v 0.04547461 0.04113155 -0.02065839
v 0.03368121 0.04878826 0.00884736
v 0.04432768 0.04017843 0.02225534
v 0.03226286 0.06850915 -0.00873652
v 0.04041529 0.06851424 -0.01970970
v 0.03549150 0.06844741 0.00913997
v 0.04691422 0.06348123 0.02121518
v 0.04399661 0.08585612 -0.01969725
v 0.03350504 0.09044596 0.01080261
v 0.04650235 0.08572961 0.02129854
v 0.04171570 0.09940774 -0.00792249
v 0.03615918 0.11168666 0.00970391
v 0.04592429 0.11543613 0.00393090
v 0.04671677 0.11050506 0.01924399
v 0.03457335 0.13313716 0.01229065
v 0.04342537 0.13146503 0.00395833
v 0.04608554 0.13768990 0.02053592
v 0.04740877 0.14464122 -0.00783590
v 0.04390406 0.15642664 -0.02023969
v 0.04211809 0.15796133 0.02178641
v 0.04448036 0.16595809 -0.01042790
v 0.04528612 0.16654451 0.00923829
v 0.04982234 0.21206148 -0.01016685
v 0.04383205 0.22198979 -0.02024065
v 0.03967601 0.21213041 0.00989145
v 0.04563598 0.22233659 0.01960556
v 0.04405483 0.23205672 -0.01041376
v 0.04527051 0.23224747 0.00946290
v 0.07184689 -0.05278888 -0.01018279
v 0.06601901 -0.04277880 -0.02016762
v 0.06229461 -0.05280291 0.00982911
v 0.06812514 -0.04280015 0.01983166
v 0.06643629 -0.03279375 -0.01017358
v 0.06772918 -0.03280198 0.00982274
v 0.07264716 0.01254185 -0.00991043
v 0.06500871 0.02363310 -0.02001959
v 0.06219823 0.01283299 0.00916077
v 0.06773240 0.02485783 0.02162649
v 0.06589145 0.03610047 -0.01376719
v 0.05712751 0.05109593 -0.01187253
v 0.07224138 0.04404962 -0.00416527
v 0.06722614 0.04565745 0.02414950
v 0.05541587 0.07325499 -0.01246049
v 0.06956696 0.06175568 -0.00183809
v 0.06652959 0.06866445 0.02376494
v 0.05343505 0.08908944 -0.01292466
v 0.06829934 0.08790342 -0.00100419
v 0.06570314 0.09217971 0.02104405
v 0.06557264 0.10143030 0.00890497
v 0.05486399 0.11412656 0.01141400
v 0.05239373 0.13159163 0.01040352
v 0.07211760 0.14693870 -0.01040816
v 0.06632922 0.15657649 -0.02017182
v 0.06367399 0.14348049 0.00922908
v 0.06590956 0.15462487 0.02034609
v 0.06676658 0.16606427 -0.01022753
v 0.06806380 0.16609541 0.00963861
v 0.07188216 0.21213415 -0.01017974
v 0.06605587 0.22214026 -0.02016111
v 0.06235772 0.21213415 0.00982997
v 0.06818402 0.22214026 0.01981135
v 0.06646847 0.23211672 -0.01016484
v 0.06777142 0.23211672 0.00981507
v 0.09456438 -0.05279319 -0.01024116
v 0.08860106 -0.04258956 -0.01995537
v 0.08439080 -0.05285728 0.00980809
v 0.09038624 -0.04292984 0.01987747
v 0.08895996 -0.03268039 -0.00981625
v 0.09016848 -0.03286849 0.01005398
v 0.09516175 0.01230765 -0.01009202
v 0.08989294 0.02141662 -0.01888802
v 0.08431131 0.01250456 0.00877805
v 0.09016443 0.02427172 0.02108448
v 0.08464789 0.03277964 -0.01163476
v 0.08998791 0.04678183 -0.00145438
v 0.08991513 0.04464375 0.02371901
v 0.08903802 0.06773781 0.00133977
v 0.08941830 0.06769507 0.02354158
v 0.09388301 0.08915135 0.00348096
v 0.08929650 0.08832051 0.02072845
v 0.08899827 0.09759741 0.01201462
v 0.09463677 0.14626300 -0.01033979
v 0.08871244 0.15637571 -0.02007757
v 0.08459340 0.14657166 0.00948184
v 0.09056754 0.15609307 0.01976649
v 0.08905096 0.16608041 -0.00987386
v 0.09032576 0.16591779 0.01001500
v 0.09456387 0.21213041 -0.01024121
v 0.08860390 0.22233659 -0.01995533
v 0.08441754 0.21206148 0.00981709
v 0.09040783 0.22198979 0.01989089
v 0.08896937 0.23224747 -0.00981266
v 0.09018505 0.23205672 0.01006399
v 0.11826818 -0.05279945 -0.01010512
v 0.11209938 -0.04282106 -0.02014132
v 0.10730586 -0.05297171 0.00979740
v 0.11332316 -0.04281095 0.02019881
v 0.11247749 -0.03269699 -0.00998570
v 0.11341957 -0.03271020 0.01027186
v 0.11793948 0.01193838 -0.01012252
v 0.11375715 0.02474662 -0.02024556
v 0.10708623 0.01179291 0.00870519
v 0.11298079 0.02340805 0.02115905
v 0.10615638 0.03443453 -0.01178586
v 0.10983158 0.05172271 -0.00349258
v 0.11286978 0.04400033 0.02403187
v 0.10880594 0.07409313 -0.00254206
v 0.11253499 0.06768456 0.02413245
v 0.11268630 0.09252800 -0.00191720
v 0.11207104 0.08901839 0.02153842
v 0.11404285 0.09933411 0.00972680
v 0.11826361 0.14588612 -0.01009789
v 0.11209274 0.15585916 -0.02014224
v 0.10739881 0.14594676 0.00975001
v 0.11338473 0.15593616 0.02018634
v 0.11246818 0.16597239 -0.00998977
v 0.11341353 0.16596418 0.01027457
v 0.11826748 0.21212393 -0.01010534
v 0.11209852 0.22210231 -0.02014148
v 0.10730474 0.21195110 0.00979801
v 0.11332240 0.22211239 0.02019926
v 0.11247670 0.23222656 -0.00998591
v 0.11341895 0.23221349 0.01027180
v 0.13683256 -0.05019320 -0.00715958
v 0.13120616 -0.04457181 -0.01853568
v 0.12973890 -0.05127359 0.00997143
v 0.13204801 -0.04107762 0.01868655
v 0.13106791 -0.03529365 -0.01317111
v 0.13425020 -0.03441417 0.00522720
v 0.13583811 0.01400990 -0.00767604
v 0.13058249 0.02118273 -0.02018637
v 0.12912068 0.01301010 0.00897487
v 0.13347599 0.02731081 0.01991294
v 0.12114597 0.04288534 -0.01407197
v 0.13303188 0.04241881 -0.02028273
v 0.13330534 0.04949702 0.02155510
v 0.12378846 0.06248869 -0.01251962
v 0.13538517 0.06854616 -0.01967293
v 0.13293185 0.07351830 0.02169438
v 0.12435365 0.08504237 -0.01296896
v 0.13659242 0.08752999 -0.01846903
v 0.13067347 0.09213267 0.01911414
v 0.12929255 0.09872832 -0.00711430
v 0.13531897 0.09911810 0.00663192
v 0.13682823 0.14848645 -0.00715648
v 0.13120140 0.15410283 -0.01853030
v 0.12973833 0.14740936 0.00997713
v 0.13204211 0.15760316 0.01869049
v 0.13106263 0.16338421 -0.01316545
v 0.13424343 0.16426989 0.00523110
v 0.13683259 0.21473011 -0.00715958
v 0.13120616 0.22035148 -0.01853567
v 0.12973838 0.21364979 0.00997114
v 0.13204754 0.22384566 0.01868627
v 0.13106781 0.22962958 -0.01317113
v 0.13424997 0.23050906 0.00522710
v 0.14192871 -0.04097549 -0.00737385
v 0.14219087 -0.04458882 0.00758216
v 0.14328819 0.02784130 -0.01005040
v 0.14291197 0.02047041 0.00669174
v 0.14458805 0.05040795 -0.01010852
v 0.14512907 0.03825964 0.00894051
v 0.14445691 0.07422229 -0.01028758
v 0.14486499 0.06189369 0.00893889
v 0.14206164 0.09247773 -0.00775288
v 0.14330372 0.08482080 0.00888933
v 0.14192870 0.15771693 -0.00737364
v 0.14218762 0.15409860 0.00758336
v 0.14192874 0.22394782 -0.00737384
v 0.14219090 0.22033449 0.00758216
v 0.38943424 -0.11081973 -0.00793129
v 0.40188659 -0.11750445 -0.01032141
v 0.39957696 -0.10730825 -0.01903653
v 0.38969616 -0.10720644 0.00702435
v 0.39479248 -0.11642408 0.00681030
v 0.40041903 -0.11080270 0.01818631
v 0.39737477 -0.10064474 -0.00557693
v 0.40055728 -0.10152438 0.01282156
v 0.38943424 -0.04458890 -0.00793129
v 0.40188659 -0.05127363 -0.01032141
v 0.39957696 -0.04107742 -0.01903653
v 0.38969616 -0.04097562 0.00702435
v 0.39479248 -0.05019325 0.00681030
v 0.40041903 -0.04457187 0.01818631
v 0.39737477 -0.03441391 -0.00557693
v 0.40055728 -0.03529355 0.01282156
v 0.42431424 -0.11920291 -0.01016320
v 0.41829447 -0.10904187 -0.02056380
v 0.41335831 -0.11902981 0.00975450
v 0.41952709 -0.10904976 0.01978846
v 0.41819977 -0.09893835 -0.01063386
v 0.41914609 -0.09892422 0.00962862
v 0.42431424 -0.05297208 -0.01016320
v 0.41829447 -0.04281104 -0.02056380
v 0.41335831 -0.05279898 0.00975450
v 0.41952709 -0.04281893 0.01978846
v 0.41819977 -0.03270752 -0.01063386
v 0.41914609 -0.03269339 0.00962862
v 0.44718778 -0.11909106 -0.01016177
v 0.44121244 -0.10916009 -0.02022948
v 0.43705160 -0.11902114 0.00987854
v 0.44301092 -0.10882029 0.01959741
v 0.44144521 -0.09910566 -0.01040426
v 0.44266022 -0.09891929 0.00945951
v 0.44718778 -0.05286023 -0.01016177
v 0.44121244 -0.04292926 -0.02022948
v 0.43705160 -0.05279031 0.00987854
v 0.44301092 -0.04258946 0.01959741
v 0.44144521 -0.03287483 -0.01040426
v 0.44266022 -0.03268846 0.00945951
v 0.46931669 -0.11906967 -0.00991391
v 0.46360115 -0.10896184 -0.01987545
v 0.45968532 -0.11905921 0.00988272
v 0.46558770 -0.10910912 0.01996047
v 0.46403447 -0.09901145 -0.00980663
v 0.46531377 -0.09910658 0.01008977
v 0.46931669 -0.05283885 -0.00991391
v 0.46360115 -0.04273102 -0.01987545
v 0.45968532 -0.05282838 0.00988272
v 0.46558770 -0.04287829 0.01996047
v 0.46403447 -0.03278062 -0.00980663
v 0.46531377 -0.03287575 0.01008977
v 0.49234390 -0.11902796 -0.00997607
v 0.48635704 -0.10878944 -0.01954799
v 0.48196204 -0.11921474 0.01004822
v 0.48778066 -0.10907713 0.02027928
v 0.48683619 -0.09886978 -0.00968413
v 0.48776918 -0.09895203 0.01043290
v 0.49234390 -0.05279713 -0.00997607
v 0.48635704 -0.04255861 -0.01954799
v 0.48196204 -0.05298391 0.01004822
v 0.48778066 -0.04284630 0.02027928
v 0.48683619 -0.03263895 -0.00968413
v 0.48776918 -0.03272120 0.01043290
v 0.51402041 -0.11829099 -0.01278521
v 0.51021572 -0.10906596 -0.01953760
v 0.50698350 -0.11823054 0.00805365
v 0.50600344 -0.10734047 0.01909237
v 0.50681749 -0.09952893 -0.01277159
v 0.51235609 -0.09997730 0.00541111
v 0.51402041 -0.05206016 -0.01278521
v 0.51021572 -0.04283514 -0.01953760
v 0.50698350 -0.05199971 0.00805365
v 0.50600344 -0.04110964 0.01909237
v 0.50681749 -0.03329810 -0.01277159
v 0.51235609 -0.03374647 0.00541111
v 0.52915546 -0.11575620 -0.00624192
v 0.52941552 -0.11099574 -0.01811015
v 0.52124265 -0.11087785 0.01004550
v 0.53189026 -0.10709207 -0.00135106
v 0.52760270 -0.10226336 -0.01128306
v 0.52915546 -0.04952537 -0.00624192
v 0.52941552 -0.04476491 -0.01811015
v 0.52124265 -0.04464702 0.01004550
v 0.53189026 -0.04086124 -0.00135106
v 0.52760270 -0.03603253 -0.01128306
v 0.53825652 -0.10887812 -0.01234453
v 0.53825652 -0.04264729 -0.01234453
v 0.58858476 -0.10992623 -0.00557697
v 0.59875942 -0.11786690 -0.00793192
v 0.59524822 -0.10772404 -0.01903631
v 0.58946425 -0.10674395 0.01282134
v 0.59514609 -0.11760474 0.00702408
v 0.59874240 -0.10688219 0.01818591
v 0.58688080 -0.08909559 -0.01062162
v 0.59698154 -0.08899918 -0.02054858
v 0.58686759 -0.08815351 0.00963594
v 0.59699166 -0.08777541 0.01979156
v 0.58703900 -0.06584475 -0.01040384
v 0.59710040 -0.06606267 -0.02022746
v 0.58685092 -0.06463608 0.00946647
v 0.59676013 -0.06427709 0.01960561
v 0.58697296 -0.04340582 -0.01017256
v 0.59697076 -0.04380193 -0.02018098
v 0.58696458 -0.04211311 0.00982361
v 0.59694945 -0.04169590 0.01981769
v 0.58695588 -0.02135096 -0.01017753
v 0.59696375 -0.02175814 -0.02018727
v 0.58695855 -0.02006146 0.00984125
v 0.59697029 -0.01965588 0.01985075
v 0.58696012 0.00071587 -0.01018131
v 0.59696651 0.00031509 -0.02018748
v 0.58695997 0.00199854 0.00983128
v 0.59696655 0.00239911 0.01983800
v 0.58696051 0.02279376 -0.01018102
v 0.59696663 0.02239329 -0.02018709
v 0.58696051 0.02407595 0.00983125
v 0.59696663 0.02447642 0.01983733
v 0.58695997 0.04487117 -0.01018105
v 0.59696655 0.04447060 -0.02018776
v 0.58696012 0.04615384 0.00983154
v 0.59696651 0.04655463 0.01983771
v 0.58695855 0.06693117 -0.01019101
v 0.59697029 0.06652559 -0.02020051
v 0.58695588 0.06822067 0.00982776
v 0.59696375 0.06862785 0.01983751
v 0.58696458 0.08898282 -0.01017338
v 0.59694945 0.08856561 -0.02016746
v 0.58697296 0.09027553 0.00982280
v 0.59697076 0.09067164 0.01983121
v 0.58685092 0.11150579 -0.00981623
v 0.59676013 0.11114680 -0.01995538
v 0.58703900 0.11271446 0.01005408
v 0.59710040 0.11293238 0.01987769
v 0.58686759 0.13502322 -0.00998571
v 0.59699166 0.13464512 -0.02014132
v 0.58688080 0.13596530 0.01027186
v 0.59698154 0.13586889 0.02019881
v 0.58946425 0.15361366 -0.01317111
v 0.59874240 0.15375190 -0.01853568
v 0.58858476 0.15679594 0.00522720
v 0.59524822 0.15459375 0.01868654
v 0.59514609 0.16447445 -0.00737385
v 0.59875942 0.16473661 0.00758216
v 0.60544418 -0.10541493 -0.01032120
v 0.60436380 -0.11250859 0.00680982
v 0.60714231 -0.08298187 -0.01014717
v 0.60697005 -0.09394420 0.00975536
v 0.60702794 -0.06006736 -0.01015814
v 0.60696379 -0.07024039 0.00989139
v 0.60697301 -0.03797174 -0.01017827
v 0.60695954 -0.04752362 0.00983280
v 0.60697251 -0.01592987 -0.01018115
v 0.60697729 -0.02548247 0.00984004
v 0.60697272 0.00614686 -0.01018132
v 0.60697328 -0.00343285 0.00983194
v 0.60697273 0.02822506 -0.01018081
v 0.60697273 0.01864465 0.00983105
v 0.60697328 0.05030256 -0.01018170
v 0.60697272 0.04072285 0.00983155
v 0.60697729 0.07235218 -0.01018981
v 0.60697251 0.06279958 0.00983139
v 0.60695954 0.09439333 -0.01018257
v 0.60697301 0.08484145 0.00982850
v 0.60696379 0.11711010 -0.01024116
v 0.60702794 0.10693707 0.00980838
v 0.60697005 0.14081391 -0.01010513
v 0.60714231 0.12985158 0.00979740
v 0.60436380 0.15937830 -0.00715958
v 0.60544418 0.15228464 0.00997143
v 0.65481559 -0.10992623 -0.00557697
v 0.66499025 -0.11786690 -0.00793192
v 0.66147904 -0.10772404 -0.01903631
v 0.65569508 -0.10674395 0.01282134
v 0.66137692 -0.11760474 0.00702408
v 0.66497323 -0.10688219 0.01818591
v 0.65311163 -0.08909559 -0.01062162
v 0.66321237 -0.08899918 -0.02054858
v 0.65309842 -0.08815351 0.00963594
v 0.66322249 -0.08777541 0.01979156
v 0.65326983 -0.06584475 -0.01040384
v 0.66333123 -0.06606267 -0.02022746
v 0.65308174 -0.06463608 0.00946647
v 0.66299096 -0.06427709 0.01960561
v 0.65320379 -0.04340582 -0.01017256
v 0.66320159 -0.04380193 -0.02018098
v 0.65319541 -0.04211311 0.00982361
v 0.66318028 -0.04169590 0.01981769
v 0.65318671 -0.02135096 -0.01017753
v 0.66319458 -0.02175814 -0.02018727
v 0.65318937 -0.02006146 0.00984125
v 0.66320112 -0.01965588 0.01985075
v 0.65319095 0.00071587 -0.01018131
v 0.66319734 0.00031509 -0.02018748
v 0.65319080 0.00199854 0.00983128
v 0.66319738 0.00239911 0.01983800
v 0.65319134 0.02279376 -0.01018102
v 0.66319745 0.02239329 -0.02018709
v 0.65319134 0.02407595 0.00983125
v 0.66319745 0.02447642 0.01983733
v 0.65319080 0.04487117 -0.01018105
v 0.66319738 0.04447060 -0.02018776
v 0.65319095 0.04615384 0.00983154
v 0.66319734 0.04655463 0.01983771
v 0.65318937 0.06693117 -0.01019101
v 0.66320112 0.06652559 -0.02020051
v 0.65318671 0.06822067 0.00982776
v 0.66319458 0.06862785 0.01983751
v 0.65319541 0.08898282 -0.01017338
v 0.66318028 0.08856561 -0.02016746
v 0.65320379 0.09027553 0.00982280
v 0.66320159 0.09067164 0.01983121
v 0.65308174 0.11150579 -0.00981623
v 0.66299096 0.11114680 -0.01995538
v 0.65326983 0.11271446 0.01005408
v 0.66333123 0.11293238 0.01987769
v 0.65309842 0.13502322 -0.00998571
v 0.66322249 0.13464512 -0.02014132
v 0.65311163 0.13596530 0.01027186
v 0.66321237 0.13586889 0.02019881
v 0.65569508 0.15361366 -0.01317111
v 0.66497323 0.15375190 -0.01853568
v 0.65481559 0.15679594 0.00522720
v 0.66147904 0.15459375 0.01868654
v 0.66137692 0.16447445 -0.00737385
v 0.66499025 0.16473661 0.00758216
v 0.67167501 -0.10541493 -0.01032120
v 0.67059463 -0.11250859 0.00680982
v 0.67337314 -0.08298187 -0.01014717
v 0.67320088 -0.09394420 0.00975536
v 0.67325876 -0.06006736 -0.01015814
v 0.67319461 -0.07024039 0.00989139
v 0.67320384 -0.03797174 -0.01017827
v 0.67319037 -0.04752362 0.00983280
v 0.67320334 -0.01592987 -0.01018115
v 0.67320812 -0.02548247 0.00984004
v 0.67320355 0.00614686 -0.01018132
v 0.67320411 -0.00343285 0.00983194
v 0.67320356 0.02822506 -0.01018081
v 0.67320356 0.01864465 0.00983105
v 0.67320411 0.05030256 -0.01018170
v 0.67320355 0.04072285 0.00983155
v 0.67320812 0.07235218 -0.01018981
v 0.67320334 0.06279958 0.00983139
v 0.67319037 0.09439333 -0.01018257
v 0.67320384 0.08484145 0.00982850
v 0.67319461 0.11711010 -0.01024116
v 0.67325876 0.10693707 0.00980838
v 0.67320088 0.14081391 -0.01010513
v 0.67337314 0.12985158 0.00979740
v 0.67059463 0.15937830 -0.00715958
v 0.67167501 0.15228464 0.00997143
f 3 2 1
f 5 4 1
f 5 1 2
f 6 4 5
f 7 3 1
f 7 1 4
f 7 4 8
f 8 4 6
f 10 9 2
f 10 2 3
f 2 11 5
f 9 11 2
f 6 5 11
f 6 11 12
f 13 10 3
f 13 3 7
f 14 7 8
f 14 13 7
f 8 6 12
f 8 12 14
f 16 15 9
f 16 9 10
f 9 17 11
f 15 17 9
f 12 11 17
f 12 17 18
f 19 16 10
f 19 10 13
f 20 13 14
f 20 19 13
f 14 12 18
f 14 18 20
f 22 21 15
f 22 15 16
f 15 23 17
f 21 23 15
f 18 17 23
f 18 23 24
f 25 22 16
f 25 16 19
f 26 19 20
f 26 25 19
f 20 18 24
f 20 24 26
f 28 27 21
f 28 21 22
f 21 29 23
f 27 29 21
f 24 23 29
f 24 29 30
f 22 25 31
f 32 22 31
f 28 22 32
f 31 25 33
f 25 34 33
f 25 26 34
f 26 24 30
f 26 30 34
f 32 31 35
f 32 35 36
f 31 33 37
f 31 37 35
f 36 35 38
f 36 38 39
f 35 37 40
f 35 40 38
f 41 39 38
f 41 38 40
f 43 42 27
f 43 27 28
f 42 45 44
f 29 42 44
f 27 42 29
f 44 30 29
f 32 43 28
f 32 46 43
f 44 45 34
f 45 33 34
f 45 47 33
f 44 34 30
f 36 46 32
f 36 48 46
f 47 37 33
f 49 37 47
f 39 48 36
f 39 50 48
f 49 40 37
f 51 40 49
f 52 50 39
f 52 39 41
f 41 40 51
f 41 51 52
f 43 53 42
f 53 45 42
f 46 54 53
f 46 53 43
f 54 47 45
f 54 45 53
f 48 55 54
f 48 54 46
f 55 49 47
f 55 47 54
f 50 56 55
f 50 55 48
f 56 51 49
f 56 49 55
f 52 56 50
f 56 52 51
f 59 58 57
f 61 60 57
f 61 57 58
f 62 60 61
f 63 59 57
f 63 57 60
f 63 60 64
f 64 60 62
f 67 66 65
f 68 65 66
f 71 70 69
f 69 70 67
f 65 69 67
f 72 69 65
f 65 68 73
f 65 73 72
f 74 71 69
f 74 69 72
f 74 72 75
f 75 72 73
f 77 76 58
f 77 58 59
f 58 78 61
f 76 78 58
f 62 61 78
f 62 78 79
f 80 77 59
f 80 59 63
f 81 63 64
f 81 80 63
f 64 62 79
f 64 79 81
f 83 82 66
f 83 66 67
f 68 66 82
f 68 82 84
f 86 85 70
f 86 70 71
f 67 70 83
f 83 70 85
f 84 73 68
f 87 73 84
f 88 86 71
f 88 71 74
f 89 74 75
f 89 88 74
f 75 73 87
f 75 87 89
f 91 90 76
f 91 76 77
f 76 92 78
f 90 92 76
f 79 78 92
f 79 92 93
f 94 91 77
f 94 77 80
f 95 80 81
f 95 94 80
f 81 79 93
f 81 93 95
f 97 96 82
f 97 82 83
f 84 82 96
f 84 96 98
f 100 99 85
f 100 85 86
f 83 85 97
f 97 85 99
f 98 87 84
f 101 87 98
f 102 100 86
f 102 86 88
f 103 88 89
f 103 102 88
f 89 87 101
f 89 101 103
f 105 104 90
f 105 90 91
f 90 106 92
f 104 106 90
f 93 92 106
f 93 106 107
f 108 105 91
f 108 91 94
f 109 94 95
f 109 108 94
f 95 93 107
f 95 107 109
f 111 110 96
f 111 96 97
f 98 96 110
f 98 110 112
f 114 113 99
f 114 99 100
f 97 99 111
f 111 99 113
f 112 101 98
f 115 101 112
f 116 114 100
f 116 100 102
f 117 102 103
f 117 116 102
f 103 101 115
f 103 115 117
f 119 118 104
f 119 104 105
f 104 120 106
f 118 120 104
f 107 106 120
f 107 120 121
f 122 119 105
f 122 105 108
f 123 108 109
f 123 122 108
f 109 107 121
f 109 121 123
f 125 124 110
f 125 110 111
f 112 110 124
f 112 124 126
f 128 127 113
f 128 113 114
f 111 113 125
f 125 113 127
f 126 115 112
f 129 115 126
f 130 128 114
f 130 114 116
f 131 116 117
f 131 130 116
f 117 115 129
f 117 129 131
f 133 132 118
f 133 118 119
f 118 134 120
f 132 134 118
f 121 120 134
f 121 134 135
f 136 133 119
f 136 119 122
f 137 122 123
f 137 136 122
f 123 121 135
f 123 135 137
f 139 138 124
f 139 124 125
f 126 124 138
f 126 138 140
f 142 141 127
f 142 127 128
f 125 127 139
f 139 127 141
f 140 129 126
f 143 129 140
f 144 142 128
f 144 128 130
f 145 130 131
f 145 144 130
f 131 129 143
f 131 143 145
f 147 146 132
f 147 132 133
f 132 148 134
f 146 148 132
f 135 134 148
f 135 148 149
f 150 147 133
f 150 133 136
f 151 136 137
f 151 150 136
f 137 135 149
f 137 149 151
f 153 152 138
f 153 138 139
f 140 138 152
f 140 152 154
f 156 155 141
f 156 141 142
f 139 141 153
f 153 141 155
f 154 143 140
f 157 143 154
f 158 156 142
f 158 142 144
f 159 144 145
f 159 158 144
f 145 143 157
f 145 157 159
f 161 160 146
f 161 146 147
f 146 162 148
f 160 162 146
f 149 148 162
f 149 162 163
f 164 161 147
f 164 147 150
f 165 150 151
f 165 164 150
f 151 149 163
f 151 163 165
f 167 166 152
f 167 152 153
f 154 152 166
f 154 166 168
f 170 169 155
f 170 155 156
f 153 155 167
f 167 155 169
f 168 157 154
f 171 157 168
f 172 170 156
f 172 156 158
f 173 158 159
f 173 172 158
f 159 157 171
f 159 171 173
f 175 174 160
f 175 160 161
f 160 176 162
f 174 176 160
f 163 162 176
f 163 176 177
f 178 175 161
f 178 161 164
f 179 164 165
f 179 178 164
f 165 163 177
f 165 177 179
f 181 180 166
f 181 166 167
f 168 166 180
f 168 180 182
f 184 183 169
f 184 169 170
f 167 169 181
f 181 169 183
f 182 171 168
f 185 171 182
f 186 184 170
f 186 170 172
f 187 172 173
f 187 186 172
f 173 171 185
f 173 185 187
f 189 188 174
f 189 174 175
f 174 190 176
f 188 190 174
f 177 176 190
f 177 190 191
f 192 189 175
f 192 175 178
f 193 178 179
f 193 192 178
f 179 177 191
f 179 191 193
f 195 194 180
f 195 180 181
f 182 180 194
f 182 194 196
f 198 197 183
f 198 183 184
f 181 183 195
f 195 183 197
f 196 185 182
f 199 185 196
f 200 198 184
f 200 184 186
f 201 186 187
f 201 200 186
f 187 185 199
f 187 199 201
f 203 202 188
f 203 188 189
f 188 204 190
f 202 204 188
f 191 190 204
f 191 204 205
f 206 203 189
f 206 189 192
f 207 192 193
f 207 206 192
f 193 191 205
f 193 205 207
f 209 208 194
f 209 194 195
f 196 194 208
f 196 208 210
f 212 211 197
f 212 197 198
f 195 197 209
f 209 197 211
f 210 199 196
f 213 199 210
f 214 212 198
f 214 198 200
f 215 200 201
f 215 214 200
f 201 199 213
f 201 213 215
f 217 216 202
f 217 202 203
f 202 218 204
f 216 218 202
f 205 204 218
f 205 218 219
f 220 217 203
f 220 203 206
f 221 206 207
f 221 220 206
f 207 205 219
f 207 219 221
f 223 222 208
f 223 208 209
f 210 208 222
f 210 222 224
f 226 225 211
f 226 211 212
f 209 211 223
f 223 211 225
f 224 213 210
f 227 213 224
f 228 226 212
f 228 212 214
f 229 214 215
f 229 228 214
f 215 213 227
f 215 227 229
f 231 230 216
f 231 216 217
f 216 232 218
f 230 232 216
f 219 218 232
f 219 232 233
f 234 231 217
f 234 217 220
f 235 220 221
f 235 234 220
f 221 219 233
f 221 233 235
f 237 236 222
f 237 222 223
f 224 222 236
f 224 236 238
f 240 239 225
f 240 225 226
f 223 225 237
f 237 225 239
f 238 227 224
f 241 227 238
f 242 240 226
f 242 226 228
f 243 228 229
f 243 242 228
f 229 227 241
f 229 241 243
f 245 244 230
f 245 230 231
f 230 246 232
f 244 246 230
f 233 232 246
f 233 246 247
f 248 245 231
f 248 231 234
f 249 234 235
f 249 248 234
f 235 233 247
f 235 247 249
f 251 250 236
f 251 236 237
f 238 236 250
f 238 250 252
f 254 253 239
f 254 239 240
f 237 239 251
f 251 239 253
f 252 241 238
f 255 241 252
f 256 254 240
f 256 240 242
f 257 242 243
f 257 256 242
f 243 241 255
f 243 255 257
f 259 258 244
f 259 244 245
f 244 260 246
f 258 260 244
f 247 246 260
f 247 260 261
f 262 259 245
f 262 245 248
f 263 248 249
f 263 262 248
f 249 247 261
f 249 261 263
f 265 264 250
f 265 250 251
f 252 250 264
f 252 264 266
f 268 267 253
f 268 253 254
f 251 253 265
f 265 253 267
f 266 255 252
f 269 255 266
f 270 268 254
f 270 254 256
f 271 256 257
f 271 270 256
f 257 255 269
f 257 269 271
f 273 272 258
f 273 258 259
f 258 274 260
f 272 274 258
f 261 260 274
f 261 274 275
f 276 273 259
f 276 259 262
f 277 262 263
f 277 276 262
f 263 261 275
f 263 275 277
f 279 278 264
f 279 264 265
f 266 264 278
f 266 278 280
f 282 281 267
f 282 267 268
f 265 267 279
f 279 267 281
f 280 269 266
f 283 269 280
f 284 282 268
f 284 268 270
f 285 270 271
f 285 284 270
f 271 269 283
f 271 283 285
f 287 286 272
f 287 272 273
f 272 288 274
f 286 288 272
f 275 274 288
f 275 288 289
f 290 287 273
f 290 273 276
f 291 276 277
f 291 290 276
f 277 275 289
f 277 289 291
f 293 292 278
f 293 278 279
f 280 278 292
f 280 292 294
f 296 295 281
f 296 281 282
f 279 281 293
f 293 281 295
f 294 283 280
f 297 283 294
f 298 296 282
f 298 282 284
f 299 284 285
f 299 298 284
f 285 283 297
f 285 297 299
f 301 300 286
f 301 286 287
f 286 302 288
f 300 302 286
f 289 288 302
f 289 302 303
f 304 301 287
f 304 287 290
f 305 290 291
f 305 304 290
f 291 289 303
f 291 303 305
f 307 306 292
f 307 292 293
f 294 292 306
f 294 306 308
f 310 309 295
f 310 295 296
f 293 295 307
f 307 295 309
f 308 297 294
f 311 297 308
f 312 310 296
f 312 296 298
f 313 298 299
f 313 312 298
f 299 297 311
f 299 311 313
f 315 314 300
f 315 300 301
f 314 317 316
f 302 314 316
f 300 314 302
f 316 303 302
f 318 315 301
f 318 301 304
f 305 316 317
f 318 305 317
f 304 305 318
f 316 305 303
f 307 319 306
f 319 308 306
f 321 320 309
f 321 309 310
f 309 320 307
f 320 322 307
f 322 319 307
f 322 320 323
f 322 311 308
f 322 308 319
f 324 321 310
f 324 310 312
f 313 322 323
f 324 313 323
f 312 313 324
f 322 313 311
f 315 325 314
f 325 317 314
f 318 325 315
f 325 318 317
f 321 326 320
f 326 323 320
f 324 326 321
f 326 324 323
f 329 328 327
f 331 330 327
f 331 327 328
f 332 330 331
f 333 329 327
f 333 327 330
f 333 330 334
f 334 330 332
f 337 336 335
f 339 338 335
f 339 335 336
f 340 338 339
f 341 337 335
f 341 335 338
f 341 338 342
f 342 338 340
f 344 343 328
f 344 328 329
f 328 345 331
f 343 345 328
f 332 331 345
f 332 345 346
f 347 344 329
f 347 329 333
f 348 333 334
f 348 347 333
f 334 332 346
f 334 346 348
f 350 349 336
f 350 336 337
f 336 351 339
f 349 351 336
f 340 339 351
f 340 351 352
f 353 350 337
f 353 337 341
f 354 341 342
f 354 353 341
f 342 340 352
f 342 352 354
f 356 355 343
f 356 343 344
f 343 357 345
f 355 357 343
f 346 345 357
f 346 357 358
f 359 356 344
f 359 344 347
f 360 347 348
f 360 359 347
f 348 346 358
f 348 358 360
f 362 361 349
f 362 349 350
f 349 363 351
f 361 363 349
f 352 351 363
f 352 363 364
f 365 362 350
f 365 350 353
f 366 353 354
f 366 365 353
f 354 352 364
f 354 364 366
f 369 368 367
f 371 370 367
f 371 367 368
f 372 370 371
f 373 369 367
f 373 367 370
f 373 370 374
f 374 370 372
f 377 376 375
f 379 378 375
f 379 375 376
f 380 378 379
f 381 377 375
f 381 375 378
f 381 378 382
f 382 378 380
f 384 383 355
f 384 355 356
f 355 385 357
f 383 385 355
f 358 357 385
f 358 385 386
f 387 384 356
f 387 356 359
f 388 359 360
f 388 387 359
f 360 358 386
f 360 386 388
f 390 389 361
f 390 361 362
f 361 391 363
f 389 391 361
f 364 363 391
f 364 391 392
f 393 390 362
f 393 362 365
f 394 365 366
f 394 393 365
f 366 364 392
f 366 392 394
f 397 396 395
f 398 395 396
f 399 397 395
f 399 395 398
f 401 400 368
f 401 368 369
f 368 402 371
f 400 402 368
f 372 371 402
f 372 402 403
f 404 401 369
f 404 369 373
f 405 373 374
f 405 404 373
f 374 372 403
f 374 403 405
f 407 406 376
f 407 376 377
f 376 408 379
f 406 408 376
f 380 379 408
f 380 408 409
f 410 407 377
f 410 377 381
f 411 381 382
f 411 410 381
f 382 380 409
f 382 409 411
f 413 412 383
f 413 383 384
f 383 414 385
f 412 414 383
f 386 385 414
f 386 414 415
f 416 413 384
f 416 384 387
f 417 387 388
f 417 416 387
f 388 386 415
f 388 415 417
f 419 418 389
f 419 389 390
f 389 420 391
f 418 420 389
f 392 391 420
f 392 420 421
f 390 393 422
f 423 390 422
f 419 390 423
f 394 424 393
f 393 424 422
f 425 424 394
f 392 425 394
f 421 425 392
f 423 422 426
f 423 426 427
f 428 422 424
f 426 422 428
f 424 425 429
f 424 429 428
f 427 426 396
f 397 427 396
f 430 427 397
f 396 426 398
f 426 431 398
f 426 428 431
f 428 429 432
f 428 432 431
f 433 430 397
f 433 397 399
f 433 399 398
f 434 433 398
f 431 434 398
f 433 434 435
f 431 432 436
f 431 436 434
f 435 434 437
f 435 437 438
f 434 436 439
f 434 439 437
f 441 440 400
f 441 400 401
f 437 402 438
f 402 440 438
f 402 400 440
f 403 402 437
f 439 403 437
f 442 403 439
f 443 441 401
f 443 401 404
f 444 404 405
f 444 443 404
f 405 403 442
f 405 442 444
f 446 445 406
f 446 406 407
f 406 447 408
f 445 447 406
f 409 408 447
f 409 447 448
f 449 446 407
f 449 407 410
f 450 410 411
f 450 449 410
f 411 409 448
f 411 448 450
f 452 451 412
f 452 412 413
f 412 453 414
f 451 453 412
f 415 414 453
f 415 453 454
f 455 452 413
f 455 413 416
f 456 416 417
f 456 455 416
f 417 415 454
f 417 454 456
f 458 457 418
f 458 418 419
f 418 459 420
f 457 459 418
f 421 420 459
f 421 459 460
f 423 462 461
f 458 423 461
f 419 423 458
f 462 463 461
f 460 425 421
f 464 425 460
f 427 465 462
f 427 462 423
f 463 462 466
f 466 462 465
f 464 429 425
f 467 429 464
f 430 468 465
f 430 465 427
f 466 465 469
f 469 465 468
f 467 432 429
f 470 432 467
f 433 468 430
f 472 471 435
f 435 471 433
f 471 469 433
f 469 468 433
f 470 471 472
f 436 470 472
f 432 470 436
f 438 473 472
f 438 472 435
f 473 439 436
f 473 436 472
f 475 474 440
f 475 440 441
f 438 440 473
f 440 476 473
f 440 474 476
f 439 473 476
f 477 439 476
f 442 439 477
f 478 475 441
f 478 441 443
f 479 443 444
f 479 478 443
f 444 442 477
f 444 477 479
f 481 480 445
f 481 445 446
f 445 482 447
f 480 482 445
f 448 447 482
f 448 482 483
f 484 481 446
f 484 446 449
f 485 449 450
f 485 484 449
f 450 448 483
f 450 483 485
f 487 486 451
f 487 451 452
f 451 488 453
f 486 488 451
f 454 453 488
f 454 488 489
f 490 487 452
f 490 452 455
f 491 455 456
f 491 490 455
f 456 454 489
f 456 489 491
f 493 492 457
f 493 457 458
f 457 494 459
f 492 494 457
f 460 459 494
f 460 494 495
f 496 493 458
f 496 458 461
f 461 463 496
f 496 463 497
f 495 464 460
f 498 464 495
f 466 497 463
f 466 499 497
f 498 467 464
f 500 467 498
f 469 499 466
f 469 501 499
f 500 470 467
f 502 470 500
f 503 501 469
f 503 469 471
f 471 470 502
f 471 502 503
f 505 504 474
f 505 474 475
f 474 506 476
f 504 506 474
f 477 476 506
f 477 506 507
f 508 505 475
f 508 475 478
f 509 478 479
f 509 508 478
f 479 477 507
f 479 507 509
f 511 510 480
f 511 480 481
f 480 512 482
f 510 512 480
f 483 482 512
f 483 512 513
f 514 511 481
f 514 481 484
f 515 484 485
f 515 514 484
f 485 483 513
f 485 513 515
f 517 516 486
f 517 486 487
f 486 518 488
f 516 518 486
f 489 488 518
f 489 518 519
f 520 517 487
f 520 487 490
f 521 490 491
f 521 520 490
f 491 489 519
f 491 519 521
f 523 522 492
f 523 492 493
f 492 524 494
f 522 524 492
f 495 494 524
f 495 524 525
f 526 523 493
f 526 493 496
f 496 497 526
f 526 497 527
f 525 498 495
f 528 498 525
f 499 527 497
f 499 529 527
f 528 500 498
f 530 500 528
f 501 529 499
f 501 531 529
f 530 502 500
f 532 502 530
f 533 531 501
f 533 501 503
f 503 502 532
f 503 532 533
f 535 534 504
f 535 504 505
f 504 536 506
f 534 536 504
f 507 506 536
f 507 536 537
f 538 535 505
f 538 505 508
f 539 508 509
f 539 538 508
f 509 507 537
f 509 537 539
f 541 540 510
f 541 510 511
f 510 542 512
f 540 542 510
f 513 512 542
f 513 542 543
f 544 541 511
f 544 511 514
f 545 514 515
f 545 544 514
f 515 513 543
f 515 543 545
f 547 546 516
f 547 516 517
f 516 548 518
f 546 548 516
f 519 518 548
f 519 548 549
f 550 547 517
f 550 517 520
f 551 520 521
f 551 550 520
f 521 519 549
f 521 549 551
f 553 552 522
f 553 522 523
f 522 554 524
f 552 554 522
f 525 524 554
f 525 554 555
f 523 526 556
f 557 523 556
f 553 523 557
f 527 556 526
f 555 528 525
f 558 528 555
f 557 556 559
f 557 559 560
f 529 559 527
f 527 559 556
f 558 530 528
f 561 530 558
f 560 559 562
f 560 562 563
f 531 562 529
f 529 562 559
f 561 532 530
f 564 532 561
f 565 563 562
f 565 562 531
f 533 565 531
f 566 565 533
f 533 532 564
f 533 564 566
f 568 567 534
f 568 534 535
f 534 569 536
f 567 569 534
f 537 536 569
f 537 569 570
f 571 568 535
f 571 535 538
f 572 538 539
f 572 571 538
f 539 537 570
f 539 570 572
f 574 573 540
f 574 540 541
f 540 575 542
f 573 575 540
f 543 542 575
f 543 575 576
f 577 574 541
f 577 541 544
f 578 544 545
f 578 577 544
f 545 543 576
f 545 576 578
f 547 579 546
f 580 548 546
f 580 546 579
f 580 549 548
f 550 579 547
f 579 550 551
f 579 551 580
f 580 551 549
f 553 581 552
f 582 554 552
f 582 552 581
f 582 555 554
f 557 583 581
f 557 581 553
f 581 584 582
f 581 583 584
f 584 558 555
f 584 555 582
f 560 585 583
f 560 583 557
f 583 586 584
f 583 585 586
f 586 561 558
f 586 558 584
f 563 587 585
f 563 585 560
f 585 588 586
f 585 587 588
f 588 564 561
f 588 561 586
f 565 587 563
f 587 565 566
f 587 566 588
f 588 566 564
f 568 589 567
f 590 569 567
f 590 567 589
f 590 570 569
f 571 589 568
f 589 571 572
f 589 572 590
f 590 572 570
f 574 591 573
f 592 575 573
f 592 573 591
f 592 576 575
f 577 591 574
f 591 577 578
f 591 578 592
f 592 578 576
f 595 594 593
f 597 596 593
f 597 593 594
f 598 596 597
f 599 595 593
f 599 593 596
f 599 596 600
f 600 596 598
f 603 602 601
f 605 604 601
f 605 601 602
f 606 604 605
f 607 603 601
f 607 601 604
f 607 604 608
f 608 604 606
f 610 609 594
f 610 594 595
f 594 611 597
f 609 611 594
f 598 597 611
f 598 611 612
f 613 610 595
f 613 595 599
f 614 599 600
f 614 613 599
f 600 598 612
f 600 612 614
f 616 615 602
f 616 602 603
f 602 617 605
f 615 617 602
f 606 605 617
f 606 617 618
f 619 616 603
f 619 603 607
f 620 607 608
f 620 619 607
f 608 606 618
f 608 618 620
f 622 621 609
f 622 609 610
f 609 623 611
f 621 623 609
f 612 611 623
f 612 623 624
f 625 622 610
f 625 610 613
f 626 613 614
f 626 625 613
f 614 612 624
f 614 624 626
f 628 627 615
f 628 615 616
f 615 629 617
f 627 629 615
f 618 617 629
f 618 629 630
f 631 628 616
f 631 616 619
f 632 619 620
f 632 631 619
f 620 618 630
f 620 630 632
f 634 633 621
f 634 621 622
f 621 635 623
f 633 635 621
f 624 623 635
f 624 635 636
f 637 634 622
f 637 622 625
f 638 625 626
f 638 637 625
f 626 624 636
f 626 636 638
f 640 639 627
f 640 627 628
f 627 641 629
f 639 641 627
f 630 629 641
f 630 641 642
f 643 640 628
f 643 628 631
f 644 631 632
f 644 643 631
f 632 630 642
f 632 642 644
f 646 645 633
f 646 633 634
f 633 647 635
f 645 647 633
f 636 635 647
f 636 647 648
f 649 646 634
f 649 634 637
f 650 637 638
f 650 649 637
f 638 636 648
f 638 648 650
f 652 651 639
f 652 639 640
f 639 653 641
f 651 653 639
f 642 641 653
f 642 653 654
f 655 652 640
f 655 640 643
f 656 643 644
f 656 655 643
f 644 642 654
f 644 654 656
f 658 657 645
f 658 645 646
f 645 659 647
f 657 659 645
f 648 647 659
f 648 659 660
f 661 658 646
f 661 646 649
f 662 649 650
f 662 661 649
f 650 648 660
f 650 660 662
f 664 663 651
f 664 651 652
f 651 665 653
f 663 665 651
f 654 653 665
f 654 665 666
f 667 664 652
f 667 652 655
f 668 655 656
f 668 667 655
f 656 654 666
f 656 666 668
f 670 669 657
f 670 657 658
f 669 672 671
f 659 669 671
f 657 669 659
f 671 660 659
f 673 670 658
f 673 658 661
f 662 671 672
f 673 662 672
f 661 662 673
f 671 662 660
f 675 674 663
f 675 663 664
f 674 677 676
f 665 674 676
f 663 674 665
f 676 666 665
f 678 675 664
f 678 664 667
f 668 676 677
f 678 668 677
f 667 668 678
f 676 668 666
f 670 679 669
f 679 672 669
f 673 679 670
f 679 673 672
f 675 680 674
f 680 677 674
f 678 680 675
f 680 678 677
f 683 682 681
f 685 684 681
f 685 681 682
f 686 684 685
f 683 681 687
f 683 687 688
f 689 681 684
f 687 681 689
f 684 686 690
f 684 690 689
f 688 687 691
f 688 691 692
f 693 687 689
f 691 687 693
f 689 690 694
f 689 694 693
f 692 691 695
f 692 695 696
f 697 691 693
f 695 691 697
f 693 694 698
f 693 698 697
f 696 695 699
f 696 699 700
f 701 695 697
f 699 695 701
f 697 698 702
f 697 702 701
f 700 699 703
f 700 703 704
f 705 699 701
f 703 699 705
f 701 702 706
f 701 706 705
f 704 703 707
f 704 707 708
f 709 703 705
f 707 703 709
f 705 706 710
f 705 710 709
f 708 707 711
f 708 711 712
f 713 707 709
f 711 707 713
f 709 710 714
f 709 714 713
f 712 711 715
f 712 715 716
f 717 711 713
f 715 711 717
f 713 714 718
f 713 718 717
f 716 715 719
f 716 719 720
f 721 715 717
f 719 715 721
f 717 718 722
f 717 722 721
f 720 719 723
f 720 723 724
f 725 719 721
f 723 719 725
f 721 722 726
f 721 726 725
f 724 723 727
f 724 727 728
f 729 723 725
f 727 723 729
f 725 726 730
f 725 730 729
f 728 727 731
f 728 731 732
f 733 727 729
f 731 727 733
f 729 730 734
f 729 734 733
f 735 732 731
f 735 731 733
f 735 733 736
f 736 733 734
f 683 737 682
f 738 685 682
f 738 682 737
f 738 686 685
f 688 739 737
f 688 737 683
f 737 740 738
f 737 739 740
f 740 690 686
f 740 686 738
f 692 741 739
f 692 739 688
f 739 742 740
f 739 741 742
f 742 694 690
f 742 690 740
f 696 743 741
f 696 741 692
f 741 744 742
f 741 743 744
f 744 698 694
f 744 694 742
f 700 745 743
f 700 743 696
f 743 746 744
f 743 745 746
f 746 702 698
f 746 698 744
f 704 747 745
f 704 745 700
f 745 748 746
f 745 747 748
f 748 706 702
f 748 702 746
f 708 749 747
f 708 747 704
f 747 750 748
f 747 749 750
f 750 710 706
f 750 706 748
f 712 751 749
f 712 749 708
f 749 752 750
f 749 751 752
f 752 714 710
f 752 710 750
f 716 753 751
f 716 751 712
f 751 754 752
f 751 753 754
f 754 718 714
f 754 714 752
f 720 755 753
f 720 753 716
f 753 756 754
f 753 755 756
f 756 722 718
f 756 718 754
f 724 757 755
f 724 755 720
f 755 758 756
f 755 757 758
f 758 726 722
f 758 722 756
f 728 759 757
f 728 757 724
f 757 760 758
f 757 759 760
f 760 730 726
f 760 726 758
f 732 761 759
f 732 759 728
f 759 762 760
f 759 761 762
f 762 734 730
f 762 730 760
f 735 761 732
f 761 735 736
f 761 736 762
f 762 736 734
f 765 764 763
f 767 766 763
f 767 763 764
f 768 766 767
f 765 763 769
f 765 769 770
f 771 763 766
f 769 763 771
f 766 768 772
f 766 772 771
f 770 769 773
f 770 773 774
f 775 769 771
f 773 769 775
f 771 772 776
f 771 776 775
f 774 773 777
f 774 777 778
f 779 773 775
f 777 773 779
f 775 776 780
f 775 780 779
f 778 777 781
f 778 781 782
f 783 777 779
f 781 777 783
f 779 780 784
f 779 784 783
f 782 781 785
f 782 785 786
f 787 781 783
f 785 781 787
f 783 784 788
f 783 788 787
f 786 785 789
f 786 789 790
f 791 785 787
f 789 785 791
f 787 788 792
f 787 792 791
f 790 789 793
f 790 793 794
f 795 789 791
f 793 789 795
f 791 792 796
f 791 796 795
f 794 793 797
f 794 797 798
f 799 793 795
f 797 793 799
f 795 796 800
f 795 800 799
f 798 797 801
f 798 801 802
f 803 797 799
f 801 797 803
f 799 800 804
f 799 804 803
f 802 801 805
f 802 805 806
f 807 801 803
f 805 801 807
f 803 804 808
f 803 808 807
f 806 805 809
f 806 809 810
f 811 805 807
f 809 805 811
f 807 808 812
f 807 812 811
f 810 809 813
f 810 813 814
f 815 809 811
f 813 809 815
f 811 812 816
f 811 816 815
f 817 814 813
f 817 813 815
f 817 815 818
f 818 815 816
f 765 819 764
f 820 767 764
f 820 764 819
f 820 768 767
f 770 821 819
f 770 819 765
f 819 822 820
f 819 821 822
f 822 772 768
f 822 768 820
f 774 823 821
f 774 821 770
f 821 824 822
f 821 823 824
f 824 776 772
f 824 772 822
f 778 825 823
f 778 823 774
f 823 826 824
f 823 825 826
f 826 780 776
f 826 776 824
f 782 827 825
f 782 825 778
f 825 828 826
f 825 827 828
f 828 784 780
f 828 780 826
f 786 829 827
f 786 827 782
f 827 830 828
f 827 829 830
f 830 788 784
f 830 784 828
f 790 831 829
f 790 829 786
f 829 832 830
f 829 831 832
f 832 792 788
f 832 788 830
f 794 833 831
f 794 831 790
f 831 834 832
f 831 833 834
f 834 796 792
f 834 792 832
f 798 835 833
f 798 833 794
f 833 836 834
f 833 835 836
f 836 800 796
f 836 796 834
f 802 837 835
f 802 835 798
f 835 838 836
f 835 837 838
f 838 804 800
f 838 800 836
f 806 839 837
f 806 837 802
f 837 840 838
f 837 839 840
f 840 808 804
f 840 804 838
f 810 841 839
f 810 839 806
f 839 842 840
f 839 841 842
f 842 812 808
f 842 808 840
f 814 843 841
f 814 841 810
f 841 844 842
f 841 843 844
f 844 816 812
f 844 812 842
f 817 843 814
f 843 817 818
f 843 818 844
f 844 818 816

