# https://github.com/mikedh/trimesh
v -0.05335834 -0.02467522 -0.01058872
v -0.04957396 -0.02955049 -0.01326019
v -0.04962899 -0.02513171 -0.01600990
v -0.05327597 -0.02359917 -0.00287399
v -0.05061457 -0.02909429 -0.00711219
v -0.05001256 -0.02651268 -0.00077996
v -0.05379000 -0.01772590 -0.01224954
v -0.04912935 -0.01822364 -0.01582051
v -0.05490226 -0.01755622 -0.00445801
v -0.05114291 -0.02174099 0.00297891
v -0.05338393 -0.01671757 0.00304034
v -0.04880481 -0.01833273 0.00663379
v -0.05358597 -0.00978475 -0.01230528
v -0.05032489 -0.01008255 -0.01549110
v -0.05484771 -0.00952972 -0.00460473
v -0.05394369 -0.00922636 0.00298284
v -0.04972023 -0.01084800 0.00702994
v -0.05346834 -0.00197571 -0.01229214
v -0.05023871 -0.00236554 -0.01555932
v -0.05468095 -0.00153530 -0.00450942
v -0.05381538 -0.00119845 0.00306562
v -0.04968486 -0.00293657 0.00699734
v -0.05342635 0.00584940 -0.01215257
v -0.05023293 0.00554232 -0.01536058
v -0.05467676 0.00629414 -0.00438395
v -0.05383727 0.00663161 0.00314438
v -0.04965364 0.00493509 0.00700261
v -0.05354472 0.01385575 -0.01191546
v -0.04957413 0.01438093 -0.01555777
v -0.05478470 0.01416600 -0.00429102
v -0.05393726 0.01442673 0.00320791
v -0.04980024 0.01270495 0.00707825
v -0.05380859 0.02194949 -0.01192610
v -0.05062196 0.02292801 -0.01615222
v -0.05491375 0.02096171 -0.00550684
v -0.05375794 0.02260612 0.00160984
v -0.04921777 0.02108265 0.00679131
v -0.05318213 0.02836049 -0.01287369
v -0.04809469 0.03037861 -0.01606247
v -0.05379521 0.02840382 -0.00556085
v -0.04964072 0.03037720 0.00072085
v -0.04981545 0.02668278 0.00456313
v -0.05092746 0.03364297 -0.01033211
v -0.04975160 0.03399641 -0.00425463
v -0.04534041 -0.04046285 -0.01066633
v -0.04182946 -0.04547234 -0.01334504
v -0.04184308 -0.04095136 -0.01603363
v -0.04531826 -0.03938716 -0.00309447
v -0.04134366 -0.04551275 -0.00543151
v -0.04161763 -0.04184283 0.00021289
v -0.04672377 -0.03443111 -0.01220441
v -0.04250478 -0.03342339 -0.01590861
v -0.04747189 -0.03290377 -0.00407871
v -0.04326393 -0.03773143 0.00268748
v -0.04530109 -0.03257595 0.00285252
v -0.04076101 -0.03443499 0.00648228
v -0.04318478 -0.02605918 -0.01584414
v -0.04754851 -0.02554909 0.00353783
v -0.04261696 -0.02573348 0.00707000
v -0.04329273 -0.02185520 -0.01298411
v -0.04642306 -0.01623068 -0.01114335
v -0.04239670 -0.02117851 -0.00659920
v -0.04505508 -0.01583816 -0.00395695
v -0.04088063 -0.01873507 -0.00122289
v -0.04254604 -0.01710913 0.00769209
v -0.04736864 -0.00826710 -0.01198200
v -0.04580383 -0.00966287 -0.00510678
v -0.04202110 -0.01112754 -0.00080782
v -0.04243102 -0.00927780 0.00753066
v -0.04733942 -0.00040155 -0.01188579
v -0.04568419 -0.00180603 -0.00518486
v -0.04184780 -0.00322428 -0.00100838
v -0.04227821 -0.00142427 0.00746595
v -0.04730393 0.00747845 -0.01189870
v -0.04573287 0.00611502 -0.00511250
v -0.04180981 0.00476519 -0.00090018
v -0.04239826 0.00637687 0.00749827
v -0.04573317 0.01392784 -0.01291081
v -0.04511087 0.01293940 -0.00664520
v -0.04117534 0.01320565 -0.00122651
v -0.04252448 0.01416027 0.00758124
v -0.04247784 0.01808906 -0.01007133
v -0.04476331 0.02107718 -0.01596089
v -0.04160331 0.01809066 -0.00398757
v -0.04144014 0.02095854 0.00755034
v -0.04114169 0.02969249 -0.01645165
v -0.04688977 0.02997819 0.00386354
v -0.04227781 0.02861717 0.00661677
v -0.04664602 0.03709572 -0.01295495
v -0.04174689 0.03710870 -0.01579343
v -0.04621823 0.03812201 -0.00690720
v -0.04258134 0.03798003 -0.00017509
v -0.04265503 0.03393669 0.00376524
v -0.04243870 0.04049440 -0.01110769
v -0.04064561 0.04210754 -0.00540487
v -0.03850885 -0.04943860 -0.01059223
v -0.03247875 -0.05190284 -0.01203106
v -0.03637485 -0.04745841 -0.01594831
v -0.03810584 -0.04953550 -0.00517046
v -0.03373302 -0.05199634 -0.00483855
v -0.03452693 -0.04943532 -0.00012836
v -0.03426463 -0.04211155 -0.01604258
v -0.03920295 -0.04004968 0.00449724
v -0.03636780 -0.04486808 0.00253223
v -0.03359932 -0.04157825 0.00687366
v -0.03354233 -0.03743640 -0.01199691
v -0.03782673 -0.03102150 -0.01145764
v -0.03319386 -0.03399795 -0.00781344
v -0.03462748 -0.03309421 0.00772404
v -0.03985813 -0.02561442 -0.01095488
v -0.03496092 -0.02995136 -0.00526243
v -0.03841203 -0.02548448 -0.00507766
v -0.03385211 -0.02565355 -0.00110582
v -0.03420320 -0.02568602 0.00828569
v -0.03486795 -0.01710562 -0.00004179
v -0.03535650 -0.01759044 0.00827783
v -0.03474226 -0.00923729 -0.00028208
v -0.03517155 -0.00978273 0.00814092
v -0.03459728 -0.00140389 -0.00035076
v -0.03512957 -0.00193835 0.00814108
v -0.03460576 0.00645755 -0.00032148
v -0.03532634 0.00592201 0.00820613
v -0.03349872 0.01308993 -0.00031635
v -0.03450517 0.01456708 0.00809191
v -0.03979575 0.02389203 -0.01184118
v -0.03864941 0.02283722 -0.00504792
v -0.03516970 0.02021368 -0.00088360
v -0.03553750 0.02296249 0.00738044
v -0.03749072 0.03014027 -0.01293216
v -0.03697492 0.02882692 -0.00661977
v -0.03298910 0.02875441 -0.00116662
v -0.03320436 0.02877896 0.00739036
v -0.03406955 0.03428693 -0.01018813
v -0.03583616 0.03592447 -0.01520921
v -0.03333821 0.03392443 -0.00390871
v -0.03837671 0.03805288 0.00390511
v -0.03389340 0.03657829 0.00661986
v -0.03605621 0.04140810 -0.01104120
v -0.03692338 0.04549137 -0.00563105
v -0.03294051 0.04500386 -0.00823029
v -0.03656854 0.04470043 -0.00067639
v -0.03452965 0.04211714 0.00397715
v -0.03249493 0.04829885 -0.00356823
v -0.02633029 -0.05392420 -0.01308411
v -0.02675143 -0.04918221 -0.01581360
v -0.02672201 -0.05419807 -0.00524857
v -0.03076228 -0.04828343 0.00484394
v -0.02780400 -0.05199824 0.00224858
v -0.02573340 -0.04840573 0.00679888
v -0.02596432 -0.04435979 -0.01225130
v -0.03037831 -0.04136793 -0.01279377
v -0.02634272 -0.04143004 -0.00831716
v -0.02650114 -0.04115511 0.00776219
v -0.02823033 -0.03705487 -0.00550131
v -0.03104946 -0.03230019 -0.00345954
v -0.02566440 -0.03381113 -0.00109520
v -0.02589771 -0.03322924 0.00817540
v -0.02670932 -0.02530196 -0.00022763
v -0.02719791 -0.02825261 0.01080165
v -0.03008432 -0.02326962 0.01145464
v -0.02502091 -0.02550390 0.01386713
v -0.02631361 -0.01782719 0.00029125
v -0.03054595 -0.01587417 0.01137536
v -0.02580006 -0.01940985 0.01472393
v -0.02744487 -0.00965922 0.00033941
v -0.03041064 -0.00794177 0.01128088
v -0.02588426 -0.01137146 0.01458346
v -0.02743303 -0.00189116 0.00031016
v -0.03051730 -0.00010916 0.01131628
v -0.02582130 -0.00347042 0.01446540
v -0.02749182 0.00601281 0.00037511
v -0.03068695 0.00772330 0.01130940
v -0.02597355 0.00435913 0.01447113
v -0.02665753 0.01468971 0.00031096
v -0.02961257 0.01424259 0.01076172
v -0.02540033 0.01280412 0.01422898
v -0.02770135 0.02314554 -0.00023120
v -0.02790416 0.02198325 0.00831396
v -0.02574883 0.01831110 0.01190997
v -0.02529602 0.02885448 -0.00009877
v -0.02730709 0.03088294 0.00738665
v -0.03216492 0.03797014 -0.01209837
v -0.03129370 0.03882514 -0.00676479
v -0.02698785 0.03557111 -0.00111752
v -0.02503772 0.03673679 0.00751955
v -0.02553980 0.04713676 -0.01539170
v -0.02968165 0.04483841 -0.01163138
v -0.02486686 0.04241374 -0.01186117
v -0.02702567 0.04118769 -0.00552495
v -0.03130563 0.04665613 0.00275357
v -0.02674219 0.04363231 0.00658744
v -0.02852294 0.04924125 -0.01054339
v -0.02561079 0.05066144 -0.00304402
v -0.02618003 0.04855035 0.00289195
v -0.02248137 -0.05741767 -0.01036257
v -0.01669150 -0.06010250 -0.01190883
v -0.02041009 -0.05537518 -0.01581319
v -0.02169238 -0.05678722 -0.00360931
v -0.01898620 -0.05973467 -0.00612784
v -0.01641742 -0.05731275 -0.00051368
v -0.01691887 -0.04993646 -0.01625123
v -0.02052049 -0.05333181 0.00288511
v -0.01848346 -0.04828654 0.00697549
v -0.01844947 -0.04611135 -0.01167311
v -0.01964562 -0.04403718 -0.00591360
v -0.02279928 -0.04049238 -0.00328054
v -0.01779202 -0.04065764 -0.00121960
v -0.01856376 -0.04118659 0.00743687
v -0.01854525 -0.03354243 -0.00012593
v -0.01726796 -0.03511604 0.00867517
v -0.01835979 -0.02634168 0.00074286
v -0.02106692 -0.02978744 0.01142123
v -0.01835096 -0.02578283 0.01489152
v -0.01993129 -0.02107581 0.00294933
v -0.02228293 -0.01534179 0.00347893
v -0.01701748 -0.01909030 0.00635768
v -0.01900266 -0.01731386 0.01564766
v -0.02268723 -0.00793670 0.00347208
v -0.01804164 -0.01151815 0.00683324
v -0.01897607 -0.00937063 0.01537787
v -0.02272122 -0.00009960 0.00346277
v -0.01803934 -0.00354130 0.00671151
v -0.01897266 -0.00167315 0.01529985
v -0.02283206 0.00782005 0.00347435
v -0.01815355 0.00440965 0.00672170
v -0.01900784 0.00620126 0.01532363
v -0.02167988 0.01440045 0.00294458
v -0.01758803 0.01297591 0.00647307
v -0.01792412 0.01315122 0.01535451
v -0.01788337 0.01852249 0.00411700
v -0.02000957 0.02222495 0.00059176
v -0.02214013 0.02283456 0.01078117
v -0.01865155 0.02071874 0.01438356
v -0.01960036 0.03102560 -0.00015294
v -0.01984192 0.03005126 0.00836226
v -0.01766821 0.02644015 0.01190740
v -0.01796499 0.03786909 -0.00082952
v -0.01943414 0.03892692 0.00756618
v -0.01793807 0.04182123 -0.01273777
v -0.02023395 0.04483728 -0.01614903
v -0.01870966 0.04170947 -0.00574217
v -0.01768729 0.04583653 0.00692749
v -0.02335143 0.05251360 -0.01340770
v -0.01791286 0.05177914 -0.01623127
v -0.02272206 0.05370178 -0.00725425
v -0.02005356 0.05319980 -0.00092179
v -0.01929589 0.05078178 0.00344245
v -0.01820656 0.05639997 -0.01069287
v -0.01710172 0.05648633 -0.00299441
v -0.00906248 -0.06075562 -0.01186170
v -0.01290806 -0.05628945 -0.01632894
v -0.01283945 -0.06061441 -0.00537648
v -0.00884146 -0.05734982 0.00004023
v -0.00906106 -0.04981309 -0.01627550
v -0.01242025 -0.05324402 0.00408430
v -0.01070877 -0.04817572 0.00671516
v -0.01052141 -0.04588956 -0.01165464
v -0.01224941 -0.04441477 -0.00501301
v -0.01043402 -0.04058124 -0.00092915
v -0.00991968 -0.04127932 0.00815623
v -0.00984391 -0.03363305 0.00050377
v -0.01121601 -0.03618064 0.01074706
v -0.01522165 -0.03213832 0.01198694
v -0.01012941 -0.03252290 0.01412577
v -0.01130789 -0.02843608 0.00301273
v -0.01534863 -0.02450911 0.00416419
v -0.01028753 -0.02472167 0.00636891
v -0.01075632 -0.02561165 0.01563418
v -0.01090404 -0.01771484 0.00794866
v -0.01099985 -0.01758110 0.01536791
v -0.01108977 -0.00953151 0.00782323
v -0.01061215 -0.01032958 0.01601391
v -0.01112158 -0.00144298 0.00766700
v -0.01190194 -0.00201513 0.01619828
v -0.01123079 0.00656456 0.00769296
v -0.01099114 0.00703492 0.01606073
v -0.01020544 0.01342420 0.00775288
v -0.01212022 0.01548070 0.01531415
v -0.01431196 0.02307209 0.00294519
v -0.01162386 0.01988059 0.00648853
v -0.00992676 0.02127121 0.01540494
v -0.00861798 0.02561319 0.00352687
v -0.01263590 0.02951998 0.00036331
v -0.01415491 0.03091647 0.01078401
v -0.01140584 0.02775845 0.01427844
v -0.00961074 0.03683237 -0.00025141
v -0.01259439 0.03736724 0.00817543
v -0.00859053 0.03347191 0.01138304
v -0.01289511 0.04283918 -0.01065214
v -0.01212863 0.04650822 -0.01605814
v -0.01362515 0.04489122 -0.00516466
v -0.01006986 0.04589288 -0.00900886
v -0.01149730 0.04352976 -0.00122431
v -0.00944836 0.04462071 0.00753290
v -0.00976035 0.05347540 -0.01635222
v -0.00909374 0.04803412 -0.00456522
v -0.01549193 0.05438341 0.00285173
v -0.01107678 0.05150136 0.00666377
v -0.01112960 0.05692365 -0.01218989
v -0.01113908 0.05807316 -0.00444441
v -0.01048771 0.05662007 0.00299672
v -0.00100880 -0.06073937 -0.01171394
v -0.00497772 -0.05637701 -0.01628715
v -0.00473529 -0.06065697 -0.00522538
v -0.00082198 -0.05727582 -0.00002923
v -0.00111832 -0.04988571 -0.01626461
v -0.00457087 -0.05319640 0.00392244
v -0.00288320 -0.04826282 0.00660353
v -0.00263506 -0.04585631 -0.01170649
v -0.00440182 -0.04427283 -0.00509272
v -0.00254383 -0.04066316 -0.00106485
v -0.00112682 -0.04225825 0.00844032
v -0.00098237 -0.03464249 0.00069353
v -0.00472079 -0.03751914 0.01144730
v -0.00268956 -0.03276437 0.01463391
v -0.00472111 -0.02970536 0.00363042
v -0.00277650 -0.02476794 0.00686335
v -0.00283357 -0.02579354 0.01546480
v -0.00276791 -0.01772312 0.00783092
v -0.00205199 -0.01685400 0.01591732
v -0.00290652 -0.00968943 0.00763713
v -0.00414057 -0.01250999 0.01873525
v -0.00641305 -0.00798275 0.01950160
v -0.00100495 -0.00819449 0.02178701
v -0.00304323 -0.00157001 0.00750012
v -0.00694489 -0.00020117 0.01950500
v -0.00287412 -0.00320105 0.02266338
v -0.00315579 0.00651262 0.00757093
v -0.00583550 0.00685260 0.01873152
v -0.00255509 0.00393961 0.02177539
v -0.00326708 0.01448017 0.00776546
v -0.00403734 0.01337738 0.01591871
v -0.00189127 0.00880028 0.01880346
v -0.00321401 0.02139862 0.00683509
v -0.00305749 0.02234242 0.01546616
v -0.00119942 0.02612189 0.00351827
v -0.00471356 0.03090542 0.00043372
v -0.00317006 0.02927504 0.01463968
v -0.00302543 0.03806956 -0.00031810
v -0.00469412 0.03871882 0.00828077
v -0.00116825 0.03390604 0.01134367
v -0.00762022 0.04617779 -0.01353942
v -0.00333990 0.04528630 -0.00096307
v -0.00278385 0.04580599 0.00755078
v -0.00298280 0.04966967 -0.01091454
v -0.00341395 0.05215412 -0.01574223
v -0.00237354 0.04903128 -0.00402642
v -0.00291088 0.05302057 0.00700085
v -0.00300674 0.05677223 -0.01219089
v -0.00315303 0.05798818 -0.00455293
v -0.00308078 0.05712900 0.00297482
v 0.00506083 -0.05993942 -0.01099535
v 0.00367184 -0.05570558 -0.01593612
v 0.00281260 -0.06010600 -0.00525085
v 0.00584979 -0.05676406 -0.00131369
v 0.00611192 -0.04898810 -0.01598278
v 0.00441556 -0.05326461 0.00304534
v 0.00499877 -0.04835476 0.00662805
v 0.00525803 -0.04599539 -0.01164361
v 0.00344836 -0.04440737 -0.00511598
v 0.00522691 -0.04064348 -0.00101432
v 0.00678194 -0.04091923 0.00823631
v 0.00687581 -0.03309978 0.00048002
v 0.00265533 -0.03691768 0.01144645
v 0.00556923 -0.03115321 0.01423091
v 0.00266663 -0.02912568 0.00359395
v 0.00570954 -0.02329451 0.00641934
v 0.00387906 -0.02467227 0.01536655
v 0.00422880 -0.01682203 0.00767119
v 0.00600153 -0.01886174 0.01527179
v 0.00520481 -0.01004269 0.00759190
v 0.00043812 -0.01106383 0.01882445
v 0.00636170 -0.00997981 0.01628511
v 0.00502897 -0.00200232 0.00749571
v 0.00398250 -0.00619821 0.02011988
v 0.00275321 -0.00079214 0.02209698
v 0.00500185 0.00613556 0.00763485
v 0.00168376 0.00554663 0.02009666
v 0.00463513 0.00732753 0.01636970
v 0.00629666 0.00216941 0.01877421
v 0.00483624 0.01433493 0.00782783
v 0.00499672 0.01424691 0.01520297
v 0.00426020 0.02132798 0.00630921
v 0.00479576 0.02223466 0.01553531
v 0.00535630 0.02489843 0.00291864
v 0.00409890 0.02991902 0.00018871
v 0.00421890 0.02904656 0.01409786
v 0.00494627 0.03797016 -0.00026901
v 0.00417610 0.03767024 0.00799663
v 0.00535836 0.03257622 0.01069153
v 0.00473810 0.04518899 -0.00085570
v 0.00510784 0.04573106 0.00755885
v 0.00638435 0.05077764 -0.01190620
v 0.00472373 0.05373231 -0.01523907
v 0.00455686 0.04906351 -0.00512529
v 0.00495831 0.05296824 0.00709607
v 0.00497375 0.05680412 -0.01202676
v 0.00501846 0.05792017 -0.00433298
v 0.00495709 0.05698215 0.00314048
v 0.00891860 -0.05633906 -0.01302978
v 0.00864490 -0.05751627 -0.00690587
v 0.01454507 -0.05342730 -0.01122575
v 0.01274998 -0.04906812 -0.01584308
v 0.01283130 -0.05426971 -0.00218905
v 0.01193844 -0.05237051 0.00386286
v 0.01286303 -0.04854174 0.00680953
v 0.01209112 -0.04499131 -0.01178323
v 0.01082406 -0.04390801 -0.00510457
v 0.01334516 -0.03905819 -0.00132584
v 0.01366595 -0.04257489 0.00760556
v 0.01268450 -0.03347073 -0.00027157
v 0.00836529 -0.03433200 0.01075179
v 0.01379545 -0.03487972 0.00855361
v 0.00841146 -0.02656572 0.00292458
v 0.01402428 -0.02712954 0.00081517
v 0.01240813 -0.03048867 0.01191816
v 0.01216461 -0.02561066 0.01459157
v 0.01257103 -0.02269516 0.00410752
v 0.01247247 -0.01784065 0.00687594
v 0.01289260 -0.01771756 0.01531086
v 0.01325190 -0.01008380 0.00768872
v 0.01393653 -0.01085414 0.01521526
v 0.01316760 -0.00222860 0.00774422
v 0.00742696 -0.00249812 0.01878582
v 0.01197355 -0.00193559 0.01576418
v 0.01306255 0.00593946 0.00782703
v 0.01292081 0.00615769 0.01506449
v 0.01200739 0.01455423 0.00651696
v 0.01292579 0.01395067 0.01543631
v 0.00927389 0.02100528 0.00407996
v 0.01380785 0.01751459 0.00289591
v 0.01230850 0.02268886 0.00047605
v 0.01232416 0.02234036 0.01481369
v 0.01287689 0.02963637 -0.00055025
v 0.01502569 0.02627905 0.01132091
v 0.00926025 0.02870051 0.01194597
v 0.01137191 0.03148463 0.00854503
v 0.01294668 0.03778977 0.00001730
v 0.01287653 0.03747870 0.00714975
v 0.01227277 0.04495613 -0.00127355
v 0.01296360 0.04565485 0.00768912
v 0.01286048 0.04916918 -0.01294529
v 0.01331041 0.05296935 -0.01565962
v 0.01156033 0.04838547 -0.00669057
v 0.01291910 0.05291649 0.00727776
v 0.01285238 0.05698310 -0.01209098
v 0.01308270 0.05798562 -0.00436091
v 0.01299757 0.05701110 0.00326539
v 0.02060685 -0.05166995 -0.01123075
v 0.02003902 -0.04829952 -0.01592065
v 0.02002709 -0.05254429 -0.00433210
v 0.01872191 -0.05213424 0.00305745
v 0.02108498 -0.04713645 0.00675148
v 0.01698403 -0.04201890 -0.01290947
v 0.02121971 -0.04191253 -0.01581506
v 0.01669134 -0.04115171 -0.00665241
v 0.01923364 -0.04025604 0.00762478
v 0.02209551 -0.03845589 -0.01016290
v 0.02057461 -0.03796861 -0.00407102
v 0.02001937 -0.03352683 -0.00092207
v 0.02239225 -0.03297691 0.00820265
v 0.02278001 -0.02513407 0.00056842
v 0.01843887 -0.02892125 0.01132715
v 0.02125568 -0.02321916 0.01422130
v 0.01864798 -0.02108304 0.00360573
v 0.02016604 -0.01545677 0.00619172
v 0.01980177 -0.01669254 0.01539067
v 0.02154499 -0.00796246 0.00696480
v 0.02095245 -0.00995935 0.01531917
v 0.02000955 -0.00097531 0.00785107
v 0.02101033 -0.00208934 0.01531234
v 0.02010620 0.00640171 0.00652818
v 0.02102047 0.00582047 0.01548410
v 0.01726674 0.01291324 0.00400488
v 0.02181346 0.00946740 0.00291894
v 0.02015385 0.01474091 0.00045130
v 0.02072330 0.01399876 0.01568195
v 0.02070388 0.02155124 -0.00065082
v 0.02015921 0.02102278 0.01416601
v 0.02096336 0.02952459 -0.00013443
v 0.01983359 0.02962426 0.00786553
v 0.02115244 0.02466604 0.01074699
v 0.02059436 0.03827274 -0.00053161
v 0.02082359 0.03742289 0.00734572
v 0.01687684 0.04570517 -0.01010790
v 0.02216579 0.04167455 -0.01162428
v 0.01978263 0.04642460 -0.01596440
v 0.01671593 0.04469795 -0.00388592
v 0.02169287 0.04185905 -0.00492073
v 0.02079705 0.04570418 0.00799170
v 0.02194582 0.05186808 -0.01581741
v 0.02035831 0.05291283 0.00691497
v 0.01901049 0.05611734 -0.01312714
v 0.01995462 0.05700446 -0.00638043
v 0.02002133 0.05648272 0.00182150
v 0.02445606 -0.04827977 -0.01320871
v 0.02473500 -0.04948435 -0.00648374
v 0.02447943 -0.04952986 0.00159427
v 0.03021275 -0.04545746 -0.01128142
v 0.02858771 -0.04123797 -0.01594402
v 0.02876007 -0.04662711 -0.00303975
v 0.02876650 -0.04547729 0.00320750
v 0.02809157 -0.04006361 0.00682875
v 0.02801904 -0.03705329 -0.01179186
v 0.02666359 -0.03587090 -0.00507873
v 0.02796183 -0.03116518 -0.00151538
v 0.02829602 -0.03342883 0.00759154
v 0.02997968 -0.02417719 -0.00096065
v 0.02409243 -0.02660655 0.01077093
v 0.02983360 -0.02588041 0.00847241
v 0.02358692 -0.01825673 0.00298973
v 0.02767982 -0.01767510 0.00060639
v 0.02760759 -0.02221701 0.01192945
v 0.02864089 -0.01638665 0.01444703
v 0.02536021 -0.01215923 0.00360749
v 0.03115021 -0.00937819 0.00085222
v 0.02806843 -0.00895807 0.01555249
v 0.02781283 -0.00633726 0.00419808
v 0.02656804 -0.00103984 0.00609001
v 0.02902326 -0.00206075 0.01561047
v 0.02550118 0.00499257 0.00411431
v 0.03002491 0.00158306 0.00297453
v 0.02833583 0.00676402 0.00067301
v 0.02871765 0.00683603 0.01482344
v 0.02873098 0.01362915 -0.00048213
v 0.02672649 0.01548972 0.01416012
v 0.02888496 0.02157151 -0.00010505
v 0.02513027 0.02093275 0.01200970
v 0.02810001 0.02265885 0.00839644
v 0.02964488 0.01753825 0.01074535
v 0.02901156 0.03057715 -0.00052433
v 0.02864362 0.02944577 0.00729966
v 0.02593126 0.03814639 -0.01154003
v 0.02927206 0.03414659 -0.01336248
v 0.02768041 0.03826674 -0.01599414
v 0.02893806 0.03662157 -0.00889663
v 0.02717545 0.03793456 -0.00151233
v 0.02873301 0.03742829 0.00778497
v 0.02930482 0.04563085 -0.01656737
v 0.02667338 0.03992292 -0.00606763
v 0.02790107 0.04599580 0.00699686
v 0.02924013 0.05027081 -0.01200638
v 0.02427456 0.05382820 -0.01029877
v 0.02883034 0.05090726 -0.00554425
v 0.02487167 0.05376672 -0.00215365
v 0.02999935 0.04926804 0.00160895
v 0.02481894 0.05262601 0.00432029
v 0.03668668 -0.04379959 -0.01141569
v 0.03617966 -0.04064578 -0.01602801
v 0.03425464 -0.04419397 -0.00386346
v 0.03324260 -0.04201797 0.00295375
v 0.03671748 -0.04143966 -0.00020241
v 0.03278538 -0.03330112 -0.01184518
v 0.03726454 -0.03294030 -0.01603785
v 0.03125006 -0.03333968 -0.00602705
v 0.03707617 -0.03836459 0.00260755
v 0.03595886 -0.03204562 0.00671708
v 0.03599131 -0.02860624 -0.01146368
v 0.03694937 -0.02415234 -0.00766943
v 0.03310691 -0.02790757 -0.00531989
v 0.03631976 -0.02532273 0.00760783
v 0.03535815 -0.02209206 -0.00347720
v 0.03622543 -0.01620404 -0.00120616
v 0.03211754 -0.01875066 0.01085774
v 0.03801288 -0.01776047 0.00854926
v 0.03684321 -0.00981887 -0.00024424
v 0.03578938 -0.01416008 0.01197589
v 0.03542944 -0.00862721 0.01436484
v 0.03119625 -0.00285557 0.00297433
v 0.03587260 -0.00224913 0.00041184
v 0.03492075 -0.00043330 0.01411636
v 0.03687437 0.00589933 -0.00013382
v 0.03769971 0.00166282 0.01078742
v 0.03361562 0.00561917 0.01194735
v 0.03732735 0.00651293 0.00866318
v 0.03676282 0.01453666 -0.00074313
v 0.03196938 0.01173131 0.01131559
v 0.03602315 0.01420235 0.00801734
v 0.03488751 0.02320938 -0.00133520
v 0.03661329 0.02151029 0.00742136
v 0.03287532 0.03095921 -0.00999502
v 0.03738294 0.02573231 -0.01284841
v 0.03578777 0.03019887 -0.01595773
v 0.03340377 0.02931586 -0.00383889
v 0.03642443 0.02537621 -0.00668378
v 0.03673988 0.02937904 0.00780368
v 0.03690234 0.03704037 -0.01655055
v 0.03086731 0.03547942 -0.00431797
v 0.03586682 0.03790594 0.00692686
v 0.03684360 0.04414617 -0.01552122
v 0.03728193 0.04216441 0.00294940
v 0.03326935 0.04448952 0.00473156
v 0.03562622 0.04622062 0.00048441
v 0.03514575 0.04817746 -0.01307287
v 0.03518690 0.04858723 -0.00584630
v 0.04083546 -0.04065601 -0.01334731
v 0.03997762 -0.04116601 -0.00588324
v 0.04482207 -0.03727875 -0.01061763
v 0.04275649 -0.03512402 -0.01597511
v 0.04342444 -0.03665678 -0.00300819
v 0.04130316 -0.03404662 0.00278975
v 0.04535863 -0.03233213 0.00041225
v 0.03938583 -0.02471918 -0.01239763
v 0.04436803 -0.02550679 -0.01594549
v 0.04347083 -0.02993789 0.00455691
v 0.04278243 -0.02418333 0.00661195
v 0.04200284 -0.01902909 -0.01294724
v 0.04622265 -0.01605056 -0.01580596
v 0.03998084 -0.01863512 -0.00672561
v 0.04599300 -0.01598337 0.00687773
v 0.04453510 -0.01384811 -0.01018941
v 0.04361114 -0.01359618 -0.00412001
v 0.04333877 -0.00857295 -0.00126917
v 0.03975663 -0.01020320 0.01092537
v 0.04378202 -0.00956803 0.00848506
v 0.04406308 0.00001082 -0.00081265
v 0.04028931 -0.00413386 0.01142088
v 0.04420861 -0.00143151 0.00828979
v 0.04290367 0.00751405 -0.00127846
v 0.04459353 0.00585945 0.00753403
v 0.04159025 0.01507168 -0.01010554
v 0.04526030 0.01017221 -0.01296940
v 0.04512023 0.01428293 -0.01574942
v 0.04105931 0.01351374 -0.00391042
v 0.04432555 0.00978343 -0.00661810
v 0.04461366 0.01348266 0.00769483
v 0.04016847 0.02090888 -0.01183410
v 0.04434929 0.02155646 -0.01586336
v 0.03894309 0.01955815 -0.00502796
v 0.04468243 0.02225824 0.00720991
v 0.04354642 0.02898172 -0.01579075
v 0.04273510 0.03099898 0.00673915
v 0.04346799 0.03354083 -0.01317942
v 0.04078638 0.03942601 -0.01125690
v 0.04462178 0.03376038 -0.00649096
v 0.04185080 0.03775659 -0.00315230
v 0.04459294 0.03323420 0.00163096
v 0.04070478 0.03765766 0.00307529
v 0.03917354 0.04587238 -0.01117252
v 0.03955966 0.04337556 -0.00387016
v 0.04724812 -0.03127459 -0.01214313
v 0.04737431 -0.03256759 -0.00500790
v 0.04911707 -0.02517030 -0.01317490
v 0.04943154 -0.02567835 -0.00547742
v 0.04720266 -0.02697072 0.00191610
v 0.05255997 -0.02139928 -0.01059473
v 0.05053300 -0.01927121 -0.01603219
v 0.05201033 -0.02053281 -0.00380292
v 0.04892434 -0.01995492 0.00267020
v 0.05312187 -0.01645770 0.00046527
v 0.04814814 -0.00890334 -0.01186196
v 0.05166880 -0.01059343 -0.01582080
v 0.04712343 -0.00958738 -0.00587250
v 0.05151785 -0.01409018 0.00459669
v 0.05104266 -0.00836648 0.00665190
v 0.04959820 -0.00166226 -0.01180340
v 0.05249148 -0.00204282 -0.01538732
v 0.04803098 -0.00347746 -0.00516489
v 0.05184074 -0.00000393 0.00698833
v 0.04836705 0.00524587 -0.01189367
v 0.05112134 0.00613365 -0.01572190
v 0.04729963 0.00398257 -0.00504556
v 0.05178599 0.00767971 0.00711464
v 0.05152348 0.01309106 -0.01592318
v 0.05084107 0.01515115 0.00672612
v 0.05152384 0.01831855 -0.01373594
v 0.04902047 0.02425371 -0.01169537
v 0.05324449 0.02089268 -0.00932386
v 0.04959779 0.02231551 0.00367459
v 0.05198942 0.02330847 -0.00062951
v 0.05319381 0.01867848 0.00302669
v 0.04686874 0.02964820 -0.01111452
v 0.05198748 0.02444608 -0.00558043
v 0.04854434 0.02811401 -0.00320758
v 0.04691106 0.02791152 0.00418059
v 0.05519061 -0.01569354 -0.01221519
v 0.05529893 -0.01679240 -0.00503058
v 0.05575115 -0.00821616 -0.01220822
v 0.05688207 -0.00996250 -0.00456563
v 0.05534764 -0.01115319 0.00199976
v 0.05566424 -0.00028834 -0.01213586
v 0.05684751 -0.00205440 -0.00436036
v 0.05595418 -0.00377628 0.00304484
v 0.05577734 0.00769588 -0.01206625
v 0.05685417 0.00595122 -0.00443174
v 0.05592018 0.00416514 0.00320721
v 0.05534081 0.01526094 -0.01093725
v 0.05684622 0.01291978 -0.00551304
v 0.05554889 0.01275239 0.00248596
v 0.05505203 0.01970113 -0.00341919
f 3 2 1
f 5 4 1
f 5 1 2
f 6 4 5
f 3 1 7
f 3 7 8
f 9 1 4
f 7 1 9
f 4 6 10
f 11 4 10
f 9 4 11
f 12 11 10
f 8 7 13
f 8 13 14
f 15 7 9
f 13 7 15
f 16 9 11
f 15 9 16
f 11 12 17
f 11 17 16
f 14 13 18
f 14 18 19
f 20 13 15
f 18 13 20
f 21 15 16
f 20 15 21
f 16 17 22
f 16 22 21
f 19 18 23
f 19 23 24
f 25 18 20
f 23 18 25
f 26 20 21
f 25 20 26
f 21 22 27
f 21 27 26
f 24 23 28
f 24 28 29
f 30 23 25
f 28 23 30
f 31 25 26
f 30 25 31
f 26 27 32
f 26 32 31
f 29 28 33
f 29 33 34
f 35 28 30
f 33 28 35
f 36 30 31
f 35 30 36
f 31 32 37
f 31 37 36
f 34 33 38
f 34 38 39
f 40 33 35
f 38 33 40
f 36 42 41
f 40 36 41
f 35 36 40
f 42 36 37
f 43 39 38
f 43 38 40
f 43 40 44
f 44 40 41
f 47 46 45
f 49 48 45
f 49 45 46
f 50 48 49
f 47 45 51
f 47 51 52
f 53 45 48
f 51 45 53
f 48 50 54
f 55 48 54
f 53 48 55
f 56 55 54
f 52 51 2
f 3 52 2
f 57 52 3
f 2 51 5
f 5 51 53
f 5 53 6
f 53 58 6
f 53 55 58
f 55 56 59
f 55 59 58
f 8 61 60
f 57 8 60
f 3 8 57
f 63 62 61
f 61 62 60
f 58 10 6
f 64 62 63
f 12 10 58
f 59 12 58
f 65 12 59
f 14 66 61
f 14 61 8
f 61 67 63
f 61 66 67
f 64 63 68
f 68 63 67
f 65 17 12
f 69 17 65
f 19 70 66
f 19 66 14
f 66 71 67
f 66 70 71
f 68 67 72
f 72 67 71
f 69 22 17
f 73 22 69
f 24 74 70
f 24 70 19
f 70 75 71
f 70 74 75
f 72 71 76
f 76 71 75
f 73 27 22
f 77 27 73
f 29 78 74
f 29 74 24
f 74 79 75
f 74 78 79
f 76 75 80
f 80 75 79
f 77 32 27
f 81 32 77
f 83 82 78
f 29 83 78
f 34 83 29
f 78 82 79
f 79 82 84
f 79 84 80
f 81 37 32
f 85 37 81
f 39 83 34
f 39 86 83
f 87 41 42
f 88 87 42
f 37 88 42
f 85 88 37
f 39 43 89
f 90 39 89
f 86 39 90
f 44 91 43
f 43 91 89
f 92 91 44
f 92 44 41
f 93 92 41
f 87 93 41
f 93 87 88
f 94 90 89
f 94 89 91
f 94 91 95
f 95 91 92
f 98 97 96
f 100 99 96
f 100 96 97
f 101 99 100
f 98 96 46
f 47 98 46
f 102 98 47
f 46 96 49
f 49 96 99
f 104 103 50
f 104 50 49
f 101 104 49
f 99 101 49
f 105 103 104
f 52 107 106
f 102 52 106
f 47 52 102
f 107 108 106
f 103 54 50
f 56 54 103
f 105 56 103
f 109 56 105
f 57 110 107
f 57 107 52
f 108 107 111
f 107 112 111
f 107 110 112
f 112 113 111
f 109 59 56
f 114 59 109
f 60 110 57
f 110 60 62
f 110 62 112
f 62 64 112
f 64 113 112
f 64 115 113
f 114 65 59
f 116 65 114
f 68 115 64
f 68 117 115
f 116 69 65
f 118 69 116
f 72 117 68
f 72 119 117
f 118 73 69
f 120 73 118
f 76 119 72
f 76 121 119
f 120 77 73
f 122 77 120
f 80 121 76
f 80 123 121
f 122 81 77
f 124 81 122
f 83 125 82
f 126 84 82
f 126 82 125
f 126 127 84
f 127 80 84
f 127 123 80
f 124 85 81
f 128 85 124
f 86 129 125
f 86 125 83
f 125 130 126
f 125 129 130
f 127 126 131
f 131 126 130
f 128 88 85
f 132 88 128
f 134 133 129
f 86 134 129
f 90 134 86
f 129 133 130
f 130 133 135
f 136 92 93
f 135 131 130
f 137 136 93
f 88 137 93
f 132 137 88
f 138 134 90
f 138 90 94
f 140 138 139
f 138 95 139
f 138 94 95
f 141 139 95
f 141 95 92
f 142 141 92
f 136 142 92
f 142 136 137
f 143 140 139
f 143 139 141
f 145 144 97
f 145 97 98
f 97 146 100
f 144 146 97
f 148 147 101
f 100 148 101
f 146 148 100
f 149 147 148
f 102 151 150
f 145 102 150
f 98 102 145
f 151 152 150
f 147 104 101
f 105 104 147
f 149 105 147
f 153 105 149
f 106 151 102
f 155 154 108
f 108 154 106
f 154 152 106
f 152 151 106
f 155 156 154
f 153 109 105
f 157 109 153
f 111 155 108
f 111 113 155
f 113 156 155
f 113 158 156
f 160 114 159
f 114 157 159
f 114 109 157
f 161 160 159
f 115 158 113
f 115 162 158
f 163 116 160
f 160 116 114
f 160 161 164
f 160 164 163
f 117 162 115
f 117 165 162
f 166 118 163
f 163 118 116
f 163 164 167
f 163 167 166
f 119 165 117
f 119 168 165
f 169 120 166
f 166 120 118
f 166 167 170
f 166 170 169
f 121 168 119
f 121 171 168
f 172 122 169
f 169 122 120
f 169 170 173
f 169 173 172
f 123 171 121
f 123 174 171
f 175 124 172
f 172 124 122
f 172 173 176
f 172 176 175
f 127 174 123
f 127 177 174
f 179 178 175
f 178 124 175
f 178 128 124
f 179 175 176
f 131 177 127
f 131 180 177
f 178 132 128
f 181 132 178
f 134 182 133
f 183 135 133
f 183 133 182
f 183 184 135
f 184 131 135
f 184 180 131
f 181 137 132
f 185 137 181
f 182 134 138
f 188 187 186
f 189 187 188
f 187 189 140
f 183 140 189
f 140 183 138
f 182 138 183
f 190 141 142
f 189 184 183
f 191 190 142
f 137 191 142
f 185 191 137
f 192 186 187
f 192 187 140
f 143 192 140
f 193 192 143
f 143 141 190
f 194 143 190
f 193 143 194
f 194 190 191
f 197 196 195
f 199 198 195
f 199 195 196
f 200 198 199
f 197 195 144
f 145 197 144
f 201 197 145
f 144 195 146
f 146 195 198
f 200 202 198
f 202 146 198
f 202 148 146
f 149 148 202
f 149 202 203
f 204 201 145
f 204 145 150
f 206 205 152
f 205 150 152
f 205 204 150
f 206 207 205
f 203 153 149
f 208 153 203
f 154 206 152
f 154 156 206
f 156 207 206
f 156 209 207
f 208 157 153
f 210 157 208
f 158 209 156
f 158 211 209
f 210 212 157
f 157 212 159
f 161 159 212
f 161 212 213
f 162 215 214
f 211 162 214
f 158 162 211
f 215 216 214
f 213 164 161
f 217 164 213
f 165 218 215
f 165 215 162
f 216 215 219
f 219 215 218
f 217 167 164
f 220 167 217
f 168 221 218
f 168 218 165
f 219 218 222
f 222 218 221
f 220 170 167
f 223 170 220
f 171 224 221
f 171 221 168
f 222 221 225
f 225 221 224
f 223 173 170
f 226 173 223
f 174 227 224
f 174 224 171
f 225 224 228
f 228 224 227
f 226 176 173
f 229 176 226
f 231 230 227
f 174 231 227
f 177 231 174
f 232 178 179
f 230 228 227
f 233 232 179
f 176 233 179
f 229 233 176
f 180 231 177
f 180 234 231
f 236 235 232
f 235 178 232
f 235 181 178
f 236 232 233
f 184 234 180
f 184 237 234
f 235 185 181
f 238 185 235
f 240 239 188
f 240 188 186
f 188 241 189
f 239 241 188
f 184 189 237
f 237 189 241
f 238 191 185
f 242 191 238
f 186 192 243
f 244 186 243
f 240 186 244
f 193 245 192
f 192 245 243
f 245 193 246
f 193 247 246
f 193 194 247
f 194 191 242
f 194 242 247
f 248 244 243
f 248 243 245
f 248 245 249
f 249 245 246
f 251 250 196
f 251 196 197
f 196 252 199
f 250 252 196
f 200 199 252
f 200 252 253
f 201 251 197
f 201 254 251
f 253 255 200
f 200 255 202
f 203 202 255
f 203 255 256
f 257 254 201
f 257 201 204
f 258 204 205
f 258 257 204
f 205 207 258
f 258 207 259
f 256 208 203
f 260 208 256
f 209 259 207
f 209 261 259
f 263 210 262
f 210 260 262
f 210 208 260
f 264 263 262
f 211 266 265
f 261 211 265
f 209 211 261
f 263 212 210
f 267 265 266
f 213 212 263
f 264 213 263
f 268 213 264
f 214 266 211
f 214 216 266
f 216 267 266
f 216 269 267
f 268 217 213
f 270 217 268
f 219 269 216
f 219 271 269
f 270 220 217
f 272 220 270
f 222 271 219
f 222 273 271
f 272 223 220
f 274 223 272
f 225 273 222
f 225 275 273
f 274 226 223
f 276 226 274
f 228 275 225
f 228 277 275
f 276 229 226
f 278 229 276
f 231 279 230
f 279 280 230
f 280 228 230
f 280 277 228
f 278 233 229
f 281 233 278
f 283 282 279
f 231 283 279
f 234 283 231
f 284 235 236
f 282 280 279
f 285 284 236
f 233 285 236
f 281 285 233
f 237 283 234
f 237 286 283
f 288 287 284
f 287 235 284
f 287 238 235
f 288 284 285
f 290 289 239
f 290 239 240
f 289 292 291
f 241 289 291
f 239 289 241
f 291 293 241
f 293 237 241
f 293 286 237
f 287 242 238
f 294 242 287
f 244 290 240
f 244 295 290
f 292 296 291
f 297 246 247
f 296 293 291
f 298 297 247
f 242 298 247
f 294 298 242
f 299 295 244
f 299 244 248
f 300 248 249
f 300 299 248
f 249 246 297
f 301 249 297
f 300 249 301
f 301 297 298
f 303 302 250
f 303 250 251
f 250 304 252
f 302 304 250
f 253 252 304
f 253 304 305
f 254 303 251
f 254 306 303
f 305 307 253
f 253 307 255
f 256 255 307
f 256 307 308
f 309 306 254
f 309 254 257
f 310 257 258
f 310 309 257
f 258 259 310
f 310 259 311
f 308 260 256
f 312 260 308
f 261 311 259
f 261 313 311
f 312 314 260
f 260 314 262
f 264 262 314
f 264 314 315
f 316 313 261
f 316 261 265
f 265 267 316
f 316 267 317
f 315 268 264
f 318 268 315
f 269 317 267
f 269 319 317
f 318 270 268
f 320 270 318
f 271 319 269
f 271 321 319
f 323 272 322
f 272 320 322
f 272 270 320
f 324 323 322
f 273 321 271
f 273 325 321
f 326 274 323
f 323 274 272
f 323 324 327
f 323 327 326
f 275 325 273
f 275 328 325
f 329 276 326
f 326 276 274
f 326 327 330
f 326 330 329
f 277 328 275
f 277 331 328
f 333 332 329
f 332 276 329
f 332 278 276
f 333 329 330
f 280 331 277
f 280 334 331
f 332 281 278
f 335 281 332
f 337 336 282
f 337 282 283
f 280 282 334
f 334 282 336
f 335 285 281
f 338 285 335
f 286 337 283
f 286 339 337
f 341 340 288
f 288 340 287
f 288 285 338
f 288 338 341
f 290 342 289
f 342 292 289
f 293 339 286
f 293 343 339
f 340 294 287
f 344 294 340
f 346 345 342
f 290 346 342
f 295 346 290
f 342 345 292
f 345 296 292
f 345 347 296
f 293 296 343
f 343 296 347
f 344 298 294
f 348 298 344
f 349 346 295
f 349 295 299
f 350 299 300
f 350 349 299
f 351 300 301
f 351 350 300
f 301 298 348
f 301 348 351
f 353 352 302
f 353 302 303
f 302 354 304
f 352 354 302
f 305 304 354
f 305 354 355
f 306 353 303
f 306 356 353
f 355 357 305
f 305 357 307
f 308 307 357
f 308 357 358
f 359 356 306
f 359 306 309
f 360 309 310
f 360 359 309
f 310 311 360
f 360 311 361
f 358 312 308
f 362 312 358
f 313 361 311
f 313 363 361
f 362 364 312
f 312 364 314
f 315 314 364
f 315 364 365
f 366 363 313
f 366 313 316
f 316 317 366
f 366 317 367
f 365 318 315
f 368 318 365
f 319 367 317
f 319 369 367
f 368 320 318
f 370 320 368
f 321 369 319
f 321 371 369
f 322 320 372
f 320 373 372
f 320 370 373
f 372 324 322
f 325 371 321
f 325 374 371
f 373 375 372
f 324 372 375
f 376 324 375
f 327 324 376
f 328 374 325
f 328 377 374
f 380 379 378
f 376 380 378
f 330 376 378
f 327 376 330
f 331 377 328
f 331 381 377
f 378 379 333
f 379 332 333
f 379 382 332
f 378 333 330
f 334 381 331
f 334 383 381
f 382 335 332
f 384 335 382
f 386 385 336
f 386 336 337
f 334 336 383
f 383 336 385
f 384 338 335
f 387 338 384
f 339 386 337
f 339 388 386
f 390 389 341
f 341 389 340
f 341 338 387
f 341 387 390
f 343 388 339
f 343 391 388
f 389 344 340
f 392 344 389
f 394 393 345
f 394 345 346
f 345 395 347
f 393 395 345
f 343 347 391
f 391 347 395
f 392 348 344
f 396 348 392
f 397 394 346
f 397 346 349
f 398 349 350
f 398 397 349
f 399 350 351
f 399 398 350
f 351 348 396
f 351 396 399
f 353 400 352
f 401 354 352
f 401 352 400
f 401 355 354
f 403 402 400
f 353 403 400
f 356 403 353
f 400 402 401
f 401 402 404
f 401 404 355
f 404 357 355
f 404 405 357
f 358 357 405
f 358 405 406
f 407 403 356
f 407 356 359
f 408 359 360
f 408 407 359
f 360 361 408
f 408 361 409
f 406 362 358
f 410 362 406
f 363 409 361
f 363 411 409
f 364 362 412
f 362 413 412
f 362 410 413
f 412 365 364
f 363 366 414
f 415 363 414
f 411 363 415
f 413 416 412
f 414 366 367
f 365 412 416
f 417 365 416
f 368 365 417
f 418 415 414
f 414 367 418
f 367 419 418
f 367 369 419
f 417 370 368
f 420 370 417
f 371 419 369
f 371 421 419
f 420 373 370
f 422 373 420
f 374 421 371
f 374 423 421
f 375 373 424
f 373 425 424
f 373 422 425
f 424 376 375
f 377 423 374
f 377 426 423
f 424 425 380
f 425 379 380
f 425 427 379
f 424 380 376
f 381 426 377
f 381 428 426
f 427 382 379
f 429 382 427
f 432 431 430
f 431 428 430
f 428 383 430
f 428 381 383
f 429 384 382
f 433 384 429
f 432 430 385
f 386 432 385
f 434 432 386
f 385 430 383
f 437 436 435
f 433 435 436
f 387 433 436
f 384 433 387
f 388 434 386
f 388 438 434
f 436 437 390
f 437 389 390
f 437 439 389
f 436 390 387
f 391 438 388
f 391 440 438
f 439 392 389
f 441 392 439
f 443 442 393
f 443 393 394
f 393 444 395
f 442 444 393
f 391 395 440
f 440 395 444
f 441 396 392
f 445 396 441
f 446 443 394
f 446 394 397
f 447 397 398
f 447 446 397
f 448 398 399
f 448 447 398
f 399 396 445
f 399 445 448
f 450 449 402
f 450 402 403
f 402 451 404
f 449 451 402
f 404 452 405
f 451 452 404
f 406 405 452
f 406 452 453
f 403 407 454
f 455 403 454
f 450 403 455
f 408 456 407
f 407 456 454
f 409 456 408
f 453 410 406
f 457 410 453
f 458 455 454
f 458 454 456
f 458 456 459
f 456 409 459
f 409 460 459
f 409 411 460
f 457 413 410
f 461 413 457
f 415 460 411
f 415 462 460
f 461 463 413
f 413 463 416
f 417 416 463
f 417 463 464
f 465 462 415
f 465 415 418
f 418 419 465
f 465 419 466
f 464 420 417
f 467 420 464
f 421 466 419
f 421 468 466
f 467 422 420
f 469 422 467
f 423 468 421
f 423 470 468
f 469 425 422
f 471 425 469
f 426 470 423
f 426 472 470
f 471 427 425
f 473 427 471
f 476 475 474
f 475 472 474
f 472 428 474
f 472 426 428
f 473 429 427
f 477 429 473
f 476 474 431
f 432 476 431
f 478 476 432
f 431 474 428
f 477 433 429
f 479 433 477
f 434 478 432
f 434 480 478
f 482 481 435
f 435 481 437
f 435 433 479
f 435 479 482
f 438 480 434
f 438 483 480
f 481 439 437
f 484 439 481
f 487 486 485
f 489 488 485
f 489 485 486
f 489 483 488
f 483 440 488
f 483 438 440
f 484 441 439
f 490 441 484
f 487 485 442
f 443 487 442
f 491 487 443
f 442 485 444
f 444 485 488
f 444 488 440
f 490 445 441
f 492 445 490
f 493 491 443
f 493 443 446
f 494 446 447
f 494 493 446
f 495 447 448
f 495 494 447
f 448 445 492
f 448 492 495
f 450 496 449
f 497 451 449
f 497 449 496
f 498 452 451
f 498 451 497
f 498 453 452
f 500 499 496
f 450 500 496
f 455 500 450
f 496 499 497
f 497 499 501
f 497 501 498
f 498 501 502
f 453 498 502
f 503 453 502
f 457 453 503
f 504 500 455
f 504 455 458
f 505 458 459
f 505 504 458
f 459 460 505
f 505 460 506
f 503 461 457
f 507 461 503
f 462 506 460
f 462 508 506
f 463 461 509
f 461 510 509
f 461 507 510
f 509 464 463
f 462 465 511
f 512 462 511
f 508 462 512
f 510 513 509
f 511 465 466
f 464 509 513
f 514 464 513
f 467 464 514
f 512 511 515
f 512 515 516
f 468 515 466
f 466 515 511
f 514 469 467
f 517 469 514
f 518 516 515
f 515 468 518
f 468 519 518
f 468 470 519
f 517 471 469
f 520 471 517
f 523 522 521
f 522 519 521
f 519 472 521
f 519 470 472
f 520 473 471
f 524 473 520
f 523 521 475
f 476 523 475
f 525 523 476
f 475 521 472
f 524 477 473
f 526 477 524
f 478 525 476
f 478 527 525
f 530 529 528
f 526 530 528
f 479 526 528
f 477 526 479
f 480 527 478
f 480 531 527
f 528 529 482
f 529 481 482
f 529 532 481
f 528 482 479
f 535 534 533
f 536 533 534
f 483 531 480
f 483 537 531
f 532 484 481
f 538 484 532
f 535 533 486
f 487 535 486
f 539 535 487
f 536 540 533
f 540 486 533
f 540 489 486
f 483 489 537
f 537 489 540
f 538 490 484
f 541 490 538
f 491 543 542
f 539 491 542
f 487 491 539
f 545 544 543
f 543 544 542
f 547 546 545
f 545 546 544
f 541 546 547
f 492 541 547
f 490 541 492
f 493 543 491
f 543 493 494
f 543 494 545
f 545 494 495
f 545 495 547
f 547 495 492
f 549 548 499
f 549 499 500
f 499 550 501
f 548 550 499
f 550 552 551
f 502 550 551
f 501 550 502
f 551 503 502
f 500 504 553
f 554 500 553
f 549 500 554
f 505 555 504
f 504 555 553
f 552 556 551
f 555 505 506
f 503 551 556
f 557 503 556
f 507 503 557
f 558 554 553
f 560 559 558
f 553 560 558
f 555 560 553
f 508 560 506
f 506 560 555
f 557 510 507
f 561 510 557
f 562 559 560
f 560 508 562
f 508 563 562
f 508 512 563
f 513 510 564
f 510 565 564
f 510 561 565
f 564 514 513
f 516 563 512
f 516 566 563
f 565 567 564
f 514 564 567
f 568 514 567
f 517 514 568
f 516 518 569
f 570 516 569
f 566 516 570
f 519 569 518
f 568 520 517
f 571 520 568
f 570 569 522
f 523 570 522
f 572 570 523
f 522 569 519
f 575 574 573
f 571 573 574
f 524 571 574
f 520 571 524
f 525 572 523
f 525 576 572
f 574 575 577
f 577 575 578
f 577 526 524
f 577 524 574
f 527 576 525
f 527 579 576
f 577 578 530
f 578 529 530
f 578 580 529
f 577 530 526
f 583 582 581
f 585 584 581
f 585 581 582
f 585 579 584
f 579 531 584
f 579 527 531
f 580 532 529
f 586 532 580
f 583 581 534
f 535 583 534
f 587 583 535
f 534 581 536
f 581 588 536
f 581 584 588
f 537 588 531
f 531 588 584
f 586 538 532
f 589 538 586
f 539 587 535
f 539 590 587
f 588 540 536
f 540 588 537
f 593 592 591
f 589 591 592
f 541 589 592
f 538 589 541
f 594 590 539
f 594 539 542
f 595 542 544
f 595 594 542
f 546 592 593
f 595 546 593
f 544 546 595
f 592 546 541
f 549 596 548
f 597 550 548
f 597 548 596
f 597 552 550
f 599 598 596
f 549 599 596
f 554 599 549
f 596 598 597
f 597 598 600
f 600 602 601
f 600 601 556
f 597 600 556
f 552 597 556
f 601 557 556
f 554 558 603
f 604 554 603
f 599 554 604
f 559 603 558
f 602 605 601
f 557 601 605
f 606 557 605
f 561 557 606
f 604 603 607
f 604 607 608
f 562 609 559
f 609 603 559
f 609 607 603
f 563 609 562
f 606 565 561
f 610 565 606
f 611 608 607
f 611 607 609
f 611 609 612
f 609 563 612
f 563 613 612
f 563 566 613
f 567 565 614
f 565 615 614
f 565 610 615
f 614 568 567
f 570 613 566
f 570 616 613
f 614 615 617
f 617 615 618
f 617 571 568
f 617 568 614
f 572 616 570
f 572 619 616
f 617 618 573
f 618 575 573
f 618 620 575
f 617 573 571
f 623 622 621
f 625 624 621
f 625 621 622
f 625 619 624
f 619 576 624
f 619 572 576
f 620 578 575
f 626 578 620
f 623 621 627
f 623 627 628
f 629 621 624
f 627 621 629
f 579 629 576
f 576 629 624
f 626 580 578
f 630 580 626
f 628 627 582
f 583 628 582
f 631 628 583
f 582 627 585
f 585 627 629
f 585 629 579
f 630 586 580
f 632 586 630
f 587 634 633
f 631 587 633
f 583 587 631
f 636 635 634
f 634 635 633
f 638 637 636
f 636 637 635
f 632 637 638
f 589 632 638
f 586 632 589
f 590 639 634
f 590 634 587
f 634 640 636
f 634 639 640
f 640 593 591
f 638 640 591
f 636 640 638
f 638 591 589
f 594 639 590
f 639 594 595
f 639 595 640
f 640 595 593
f 599 641 598
f 642 600 598
f 642 598 641
f 642 602 600
f 604 643 641
f 604 641 599
f 641 644 642
f 641 643 644
f 645 605 602
f 642 645 602
f 644 645 642
f 645 606 605
f 647 646 643
f 604 647 643
f 608 647 604
f 643 646 644
f 644 646 648
f 650 649 648
f 649 644 648
f 649 645 644
f 649 610 606
f 649 606 645
f 608 611 651
f 652 608 651
f 647 608 652
f 612 653 611
f 611 653 651
f 650 654 649
f 653 612 613
f 610 649 654
f 655 610 654
f 615 610 655
f 652 651 656
f 652 656 657
f 658 651 653
f 656 651 658
f 616 658 613
f 613 658 653
f 655 618 615
f 659 618 655
f 657 656 660
f 657 660 661
f 662 656 658
f 660 656 662
f 619 662 616
f 616 662 658
f 659 620 618
f 663 620 659
f 661 660 622
f 623 661 622
f 664 661 623
f 622 660 625
f 625 660 662
f 625 662 619
f 663 626 620
f 665 626 663
f 628 667 666
f 664 628 666
f 623 628 664
f 667 668 666
f 671 670 669
f 665 671 669
f 630 665 669
f 626 665 630
f 631 672 667
f 631 667 628
f 668 667 673
f 667 674 673
f 667 672 674
f 673 674 670
f 674 669 670
f 674 675 669
f 675 632 630
f 675 630 669
f 633 672 631
f 672 633 635
f 672 635 674
f 674 635 637
f 674 637 675
f 675 637 632
f 647 676 646
f 677 648 646
f 677 646 676
f 677 650 648
f 652 678 676
f 652 676 647
f 676 679 677
f 676 678 679
f 680 654 650
f 677 680 650
f 679 680 677
f 680 655 654
f 657 681 678
f 657 678 652
f 678 682 679
f 678 681 682
f 679 683 680
f 679 682 683
f 683 659 655
f 683 655 680
f 661 684 681
f 661 681 657
f 681 685 682
f 681 684 685
f 682 686 683
f 682 685 686
f 686 663 659
f 686 659 683
f 664 687 684
f 664 684 661
f 684 688 685
f 684 687 688
f 685 689 686
f 685 688 689
f 689 665 663
f 689 663 686
f 666 687 664
f 687 666 668
f 690 687 668
f 688 687 690
f 690 670 671
f 689 690 671
f 688 690 689
f 689 671 665
f 673 690 668
f 690 673 670

