# https://github.com/mikedh/trimesh
v -0.04182934 -0.00042181 -0.03787168
v -0.03908284 -0.00173165 -0.03924450
v -0.03914219 0.00043825 -0.04055672
v -0.04209133 0.00007856 -0.03299350
v -0.03969592 -0.00305466 -0.03462280
v -0.04162085 0.00051486 -0.02811183
v -0.04047727 -0.00266375 -0.02876207
v -0.03991818 -0.00088140 -0.02524835
v -0.04169719 -0.00047151 0.03036743
v -0.03990453 -0.00222262 0.02865504
v -0.03991171 0.00083928 0.02737276
v -0.04182402 0.00043907 0.03395026
v -0.04044927 -0.00273951 0.03337655
v -0.03871660 -0.00054188 0.03713024
v -0.04051449 0.00174775 -0.03780996
v -0.03980877 0.00311274 -0.03244737
v -0.03989849 0.00217771 -0.02655214
v -0.04048884 0.00278428 0.03092173
v -0.03977821 0.00325336 0.03524310
v -0.03719058 -0.00602072 -0.03122932
v -0.03280315 -0.00781894 -0.03243163
v -0.03502375 -0.00566569 -0.03518889
v -0.03737651 -0.00508495 -0.02561837
v -0.03375595 -0.00813962 -0.02729868
v -0.03656360 -0.00523725 -0.02017244
v -0.03431463 -0.00798878 -0.02242929
v -0.03662777 -0.00522389 -0.01466559
v -0.03351012 -0.00875076 -0.01750100
v -0.03668938 -0.00515181 -0.00910016
v -0.03448944 -0.00876249 -0.01189049
v -0.03663229 -0.00514609 -0.00345499
v -0.03447172 -0.00874232 -0.00632205
v -0.03662600 -0.00514785 0.00219158
v -0.03441843 -0.00874054 -0.00066994
v -0.03666066 -0.00514742 0.00778926
v -0.03444371 -0.00874788 0.00494650
v -0.03670392 -0.00509707 0.01334089
v -0.03452573 -0.00875726 0.01057259
v -0.03670424 -0.00511633 0.01891190
v -0.03399639 -0.00864876 0.01698620
v -0.03645976 -0.00598805 0.02415047
v -0.03370799 -0.00804202 0.02330135
v -0.03733357 -0.00552865 0.02985826
v -0.03351341 -0.00831069 0.02929684
v -0.03740873 -0.00526393 0.03540891
v -0.03427915 -0.00787010 0.03413035
v -0.03398602 -0.00534676 0.03737789
v -0.03371467 -0.00309821 -0.03852007
v -0.03425984 -0.00006273 -0.04081789
v -0.03787020 0.00076558 -0.02215264
v -0.03736536 -0.00006078 -0.01582516
v -0.03739536 -0.00001826 -0.01025641
v -0.03737095 0.00001008 -0.00466393
v -0.03736074 0.00000790 0.00097785
v -0.03736591 0.00000572 0.00662146
v -0.03739448 0.00003464 0.01221186
v -0.03741101 0.00007805 0.01771710
v -0.03788162 -0.00078433 0.02399162
v -0.03363772 -0.00074663 0.03838919
v -0.03587845 0.00307260 -0.03840684
v -0.03649679 0.00568250 -0.03371007
v -0.03253363 0.00603329 -0.03590802
v -0.03735693 0.00539080 -0.02787158
v -0.03642684 0.00590630 -0.02240031
v -0.03658303 0.00514966 -0.01714522
v -0.03663682 0.00512715 -0.01144548
v -0.03666274 0.00516627 -0.00584413
v -0.03662800 0.00516464 -0.00024627
v -0.03662887 0.00516087 0.00539808
v -0.03668598 0.00516466 0.01104109
v -0.03669873 0.00522739 0.01658277
v -0.03669633 0.00523151 0.02200527
v -0.03746530 0.00516866 0.02756182
v -0.03723466 0.00629665 0.03337603
v -0.03494290 0.00447288 0.03734796
v -0.03366212 0.00783850 -0.03150888
v -0.03366657 0.00807828 -0.02595550
v -0.03434355 0.00788208 -0.02064708
v -0.03387723 0.00868054 -0.01520535
v -0.03449069 0.00877332 -0.00879586
v -0.03444022 0.00876230 -0.00317399
v -0.03441724 0.00875587 0.00244684
v -0.03447022 0.00875833 0.00810556
v -0.03453244 0.00877686 0.01369366
v -0.03366171 0.00874554 0.01933776
v -0.03382743 0.00815659 0.02480906
v -0.03387020 0.00843378 0.03057122
v -0.03333997 0.00807796 0.03518054
v -0.03126956 -0.01147409 -0.01433115
v -0.02697617 -0.01331416 -0.01619929
v -0.02946857 -0.01104214 -0.01841570
v -0.03166642 -0.01150161 -0.00906963
v -0.02807045 -0.01352728 -0.01029890
v -0.03155544 -0.01148083 -0.00348316
v -0.02803882 -0.01349372 -0.00472294
v -0.03157393 -0.01150339 0.00210626
v -0.02796828 -0.01349593 0.00087968
v -0.03165598 -0.01157354 0.00769983
v -0.02799254 -0.01353226 0.00652462
v -0.03170407 -0.01156499 0.01336453
v -0.02804396 -0.01368351 0.01221964
v -0.03088005 -0.01111852 0.01818655
v -0.02812075 -0.01340205 0.01753042
v -0.02801552 -0.01185421 0.02114533
v -0.02778424 -0.00795284 -0.03315459
v -0.02914100 -0.00536534 -0.03605751
v -0.02838695 -0.00928386 -0.02891064
v -0.02982603 -0.00954659 -0.02261148
v -0.02927580 -0.00945348 0.02322762
v -0.02840903 -0.00878977 0.02938758
v -0.02968795 -0.00833078 0.03464908
v -0.02836373 -0.00523909 0.03764850
v -0.02780284 -0.00216538 -0.03860456
v -0.02937566 -0.00050143 -0.04034781
v -0.02859557 0.00018470 0.03827083
v -0.02998120 0.00266542 -0.03919204
v -0.02692139 0.00507792 -0.03610697
v -0.02875254 0.00558538 0.03746058
v -0.02941935 0.00805989 -0.03317109
v -0.02869909 0.00932164 -0.02803783
v -0.03037369 0.00952387 -0.02136033
v -0.03076693 0.01105584 -0.01639853
v -0.02783488 0.01179964 -0.01926072
v -0.03165141 0.01149071 -0.01167352
v -0.03162664 0.01152061 -0.00608308
v -0.03154720 0.01149600 -0.00050993
v -0.03160531 0.01151841 0.00512479
v -0.03171194 0.01158725 0.01078201
v -0.03138213 0.01158064 0.01615974
v -0.02961165 0.01113395 0.02027206
v -0.02842436 0.00948951 0.02408011
v -0.02877422 0.00883776 0.02922814
v -0.02877105 0.00846376 0.03445112
v -0.02751861 0.01333278 -0.01515064
v -0.02807237 0.01354414 -0.00902148
v -0.02800317 0.01350860 -0.00340809
v -0.02800969 0.01351644 0.00214045
v -0.02812300 0.01357425 0.00770118
v -0.02818925 0.01373663 0.01337842
v -0.02741189 0.01343482 0.01885758
v -0.02548235 -0.01145788 -0.02575666
v -0.02132918 -0.01327406 -0.02684309
v -0.02343820 -0.01110890 -0.02959533
v -0.02660901 -0.01178216 -0.02124856
v -0.02296063 -0.01362825 -0.02111320
v -0.02296777 -0.01415371 -0.01590120
v -0.02277494 -0.01471255 -0.01169459
v -0.02375754 -0.01482582 -0.00603468
v -0.02369342 -0.01481014 -0.00044610
v -0.02299440 -0.01464262 0.00597766
v -0.02292507 -0.01415758 0.01223453
v -0.02296798 -0.01430444 0.01798496
v -0.02540266 -0.01095597 0.02442616
v -0.02402855 -0.01328043 0.02230918
v -0.02113171 -0.01132796 0.02614166
v -0.02228828 -0.00870555 -0.03260445
v -0.02361966 -0.00586727 -0.03515420
v -0.02292784 -0.00912740 0.02910699
v -0.02379175 -0.00813167 0.03463271
v -0.02245771 -0.00517160 0.03752823
v -0.02647310 0.00087649 -0.03864759
v -0.02336342 -0.00074736 -0.03657985
v -0.02273132 0.00013460 0.03819587
v -0.02150512 0.00521612 -0.03532141
v -0.02296477 0.00543336 0.03742925
v -0.02448003 0.00881688 -0.03230020
v -0.02496580 0.01115248 -0.02789464
v -0.02139184 0.01159278 -0.03000773
v -0.02608909 0.01147425 -0.02345582
v -0.02618468 0.01186802 0.02275477
v -0.02327229 0.01097157 0.02555700
v -0.02235166 0.00913613 0.02928853
v -0.02304538 0.00816923 0.03437059
v -0.02220577 0.01328888 -0.02582165
v -0.02315657 0.01364394 -0.02028602
v -0.02294973 0.01416959 -0.01596916
v -0.02303532 0.01472834 -0.01084323
v -0.02373865 0.01484050 -0.00460724
v -0.02369185 0.01482961 0.00093798
v -0.02276581 0.01469321 0.00677047
v -0.02312443 0.01420988 0.01201712
v -0.02305311 0.01437450 0.01779351
v -0.02256304 0.01334038 0.02292997
v -0.01999086 -0.01700859 -0.00872898
v -0.01585562 -0.01909205 -0.01091633
v -0.01822587 -0.01660974 -0.01283814
v -0.02031167 -0.01705364 -0.00342476
v -0.01689810 -0.01928776 -0.00494139
v -0.02023231 -0.01699323 0.00223077
v -0.01683736 -0.01931178 0.00077216
v -0.01936096 -0.01651864 0.00693703
v -0.01669023 -0.01893837 0.00615422
v -0.01648101 -0.01741000 0.00980262
v -0.01599599 -0.01362417 -0.02680361
v -0.01866451 -0.01155168 -0.03041763
v -0.01806227 -0.01424560 -0.02259288
v -0.01758779 -0.01492183 -0.01699765
v -0.01859803 -0.01505444 0.01127596
v -0.01721317 -0.01473165 0.01752319
v -0.01781216 -0.01366992 0.02367798
v -0.01671750 -0.01174793 0.02730423
v -0.01574038 -0.00871356 -0.03320154
v -0.01834842 -0.00509860 -0.03531889
v -0.01731730 -0.00955513 0.03001436
v -0.01813934 -0.00801330 0.03450272
v -0.01682817 -0.00517941 0.03743267
v -0.01710894 0.00007691 -0.03605488
v -0.01705353 0.00006773 0.03818846
v -0.01597111 0.00521225 -0.03536461
v -0.01731936 0.00526208 0.03745259
v -0.01886436 0.00882069 -0.03319626
v -0.01606301 0.01155306 -0.03042287
v -0.01883327 0.01137267 0.02683117
v -0.01621105 0.00957027 0.03074995
v -0.01730189 0.00801776 0.03449246
v -0.01721038 0.01363730 -0.02686716
v -0.01800290 0.01426021 -0.02257646
v -0.01824474 0.01493760 -0.01632005
v -0.01946524 0.01662551 -0.01072063
v -0.01667517 0.01743813 -0.01365771
v -0.02032711 0.01702347 -0.00599005
v -0.02031298 0.01706900 -0.00036886
v -0.01992518 0.01703355 0.00490685
v -0.01817241 0.01659407 0.00899372
v -0.01703562 0.01489583 0.01273799
v -0.01733645 0.01416671 0.01779170
v -0.01694753 0.01372805 0.02386503
v -0.01647212 0.01910746 -0.00962535
v -0.01692211 0.01930342 -0.00345115
v -0.01683566 0.01934574 0.00225315
v -0.01610051 0.01898512 0.00763753
v -0.01489548 -0.01742231 -0.01542697
v -0.01087235 -0.01908922 -0.01517657
v -0.01194411 -0.01660514 -0.01817619
v -0.01118434 -0.01998783 -0.00980533
v -0.01200227 -0.01993750 -0.00488537
v -0.01189367 -0.01996609 0.00083843
v -0.01166350 -0.02006364 0.00656141
v -0.01477163 -0.01702291 0.01400285
v -0.01191358 -0.01949377 0.01204123
v -0.01359469 -0.01663320 0.01846525
v -0.01170067 -0.01876418 0.01684433
v -0.00996835 -0.01711393 0.02056905
v -0.01028647 -0.01352113 -0.02666753
v -0.01300383 -0.01153710 -0.03034064
v -0.01207991 -0.01474127 -0.02173165
v -0.01188670 -0.01478221 0.02346400
v -0.01380244 -0.01101617 0.03016280
v -0.01251028 -0.01321247 0.02804970
v -0.00964129 -0.01148098 0.03194466
v -0.01008368 -0.00873992 -0.03316972
v -0.01272727 -0.00508366 -0.03536321
v -0.01269123 -0.00867758 0.03428402
v -0.01129665 -0.00516655 0.03739438
v -0.01155230 0.00003401 -0.03608049
v -0.01144850 0.00006357 0.03814200
v -0.01036626 0.00516350 -0.03536006
v -0.01173347 0.00519163 0.03740156
v -0.01324007 0.00876065 -0.03319978
v -0.01037082 0.01149341 -0.03029093
v -0.01469663 0.01181911 0.02857941
v -0.01190565 0.01105674 0.03147021
v -0.01109270 0.00868639 0.03460533
v -0.01159535 0.01353512 -0.02674625
v -0.01295732 0.01475677 -0.02153928
v -0.01407135 0.01662097 -0.01693834
v -0.00998255 0.01702013 -0.01867232
v -0.01490619 0.01738902 0.01151749
v -0.01238864 0.01656336 0.01477851
v -0.01127554 0.01491564 0.01859894
v -0.01149664 0.01418703 0.02369695
v -0.01112738 0.01328657 0.02873237
v -0.01216511 0.01910503 -0.01456191
v -0.01113007 0.02000344 -0.00987437
v -0.01192196 0.01995259 -0.00496390
v -0.01193489 0.01999204 0.00074620
v -0.01182526 0.02009562 0.00655947
v -0.01107014 0.01916575 0.01265022
v -0.00466680 -0.01927013 -0.01562410
v -0.00724694 -0.01700429 -0.01902428
v -0.00622619 -0.01990262 -0.01055790
v -0.00626470 -0.01980055 -0.00475143
v -0.00615147 -0.01974445 0.00101998
v -0.00589401 -0.01989141 0.00677936
v -0.00582316 -0.02008393 0.01247602
v -0.00732923 -0.01937617 0.01739317
v -0.00462963 -0.01705732 0.02089515
v -0.00469236 -0.01348336 -0.02670740
v -0.00739653 -0.01148137 -0.03026565
v -0.00588121 -0.01481411 -0.02241704
v -0.00597781 -0.01486000 0.02440624
v -0.00717669 -0.01356406 0.02873271
v -0.00431210 -0.01151172 0.03230783
v -0.00446828 -0.00874294 -0.03314857
v -0.00715692 -0.00514645 -0.03535960
v -0.00697844 -0.00875977 0.03517300
v -0.00569132 -0.00515019 0.03735753
v -0.00593719 0.00000575 -0.03609380
v -0.00586433 0.00003066 0.03808557
v -0.00472347 0.00516290 -0.03535842
v -0.00610636 0.00517725 0.03736951
v -0.00757875 0.00875447 -0.03314859
v -0.00474315 0.01149580 -0.03026638
v -0.00723736 0.01153490 0.03233879
v -0.00470194 0.00877388 0.03516948
v -0.00598372 0.01349908 -0.02670543
v -0.00729458 0.01482995 -0.02240212
v -0.00469074 0.01706905 -0.01903225
v -0.00909262 0.01739037 0.01731320
v -0.00626703 0.01659766 0.02015574
v -0.00527342 0.01472564 0.02372985
v -0.00584792 0.01361485 0.02875672
v -0.00614271 0.01928593 -0.01559901
v -0.00614678 0.01991842 -0.01065768
v -0.00609032 0.01981578 -0.00486905
v -0.00615272 0.01976112 0.00089943
v -0.00615154 0.01993357 0.00657352
v -0.00593564 0.02009471 0.01238907
v -0.00549305 0.01898352 0.01748419
v 0.00099329 -0.01927975 -0.01554173
v -0.00164411 -0.01705325 -0.01903654
v -0.00042401 -0.01990671 -0.01060693
v -0.00125166 -0.01974140 -0.00560678
v 0.00038916 -0.02026656 0.00029081
v -0.00021938 -0.01976980 0.00682123
v -0.00005786 -0.01994614 0.01256143
v -0.00155357 -0.01930807 0.01745464
v 0.00108459 -0.01702811 0.02086269
v 0.00087250 -0.01349943 -0.02671905
v -0.00178499 -0.01148019 -0.03027773
v -0.00033295 -0.01481189 -0.02239667
v -0.00034099 -0.01478289 0.02428532
v -0.00155551 -0.01348801 0.02865363
v 0.00132100 -0.01147692 0.03220235
v 0.00117405 -0.00874260 -0.03315028
v -0.00152025 -0.00514982 -0.03535892
v -0.00137368 -0.00874582 0.03513213
v -0.00005479 -0.00514781 0.03729940
v -0.00029472 0.00000748 -0.03609520
v -0.00028340 0.00001015 0.03805036
v 0.00092067 0.00516319 -0.03535752
v -0.00051196 0.00516629 0.03732827
v -0.00193857 0.00875822 -0.03314967
v 0.00083831 0.01152018 -0.03030283
v -0.00160785 0.01155244 0.03229961
v 0.00093957 0.00876018 0.03510556
v -0.00038871 0.01351531 -0.02669836
v -0.00171795 0.01482774 -0.02241533
v 0.00095992 0.01701234 -0.01896218
v -0.00152993 0.01703376 0.02094755
v 0.00114551 0.01482993 0.02437898
v -0.00019873 0.01353353 0.02865866
v -0.00043100 0.01929554 -0.01558914
v -0.00037857 0.01992252 -0.01060778
v -0.00111761 0.01975714 -0.00557317
v 0.00039630 0.02028158 0.00085664
v -0.00034508 0.01978790 0.00693314
v -0.00019878 0.01999106 0.01260552
v -0.00009521 0.01934999 0.01751350
v 0.00368719 -0.02245260 0.00185892
v 0.00533708 -0.02376274 0.00096862
v 0.00456049 -0.02243441 -0.00062372
v 0.00620305 -0.02248142 0.00264352
v 0.00635524 -0.01891801 -0.01479199
v 0.00361543 -0.01699655 -0.01855768
v 0.00534700 -0.01996938 -0.01057851
v 0.00512563 -0.02038299 -0.00401157
v 0.00570816 -0.02040340 0.00612589
v 0.00550706 -0.01992687 0.01269588
v 0.00414975 -0.01929597 0.01755996
v 0.00677114 -0.01705195 0.02097305
v 0.00640877 -0.01351406 -0.02676225
v 0.00384251 -0.01150438 -0.03031983
v 0.00553853 -0.01464344 -0.02141027
v 0.00532468 -0.01483043 0.02432817
v 0.00405584 -0.01348192 0.02860472
v 0.00691012 -0.01150215 0.03229061
v 0.00682054 -0.00874296 -0.03315050
v 0.00412218 -0.00514739 -0.03535590
v 0.00425907 -0.00874416 0.03510747
v 0.00554472 -0.00515061 0.03732737
v 0.00534786 0.00000833 -0.03609172
v 0.00530350 0.00000687 0.03804862
v 0.00656160 0.00516229 -0.03535517
v 0.00508696 0.00516412 0.03730060
v 0.00369664 0.00875893 -0.03315106
v 0.00641995 0.01155542 -0.03033086
v 0.00398878 0.01149693 0.03222304
v 0.00656901 0.00876027 0.03513427
v 0.00523627 0.01352978 -0.02672785
v 0.00470559 0.01465923 -0.02172789
v 0.00566480 0.01654102 -0.01808657
v 0.00416514 0.01708132 0.02098356
v 0.00679226 0.01485328 0.02443079
v 0.00540054 0.01350632 0.02870621
v 0.00489144 0.01893380 -0.01546388
v 0.00534899 0.01998517 -0.01050208
v 0.00472254 0.02039877 -0.00393840
v 0.00374528 0.02245018 0.00019703
v 0.00624285 0.02247905 -0.00063401
v 0.00448875 0.02246832 0.00270655
v 0.00613356 0.02041837 0.00621722
v 0.00550441 0.01994332 0.01266822
v 0.00559547 0.01932672 0.01757521
v 0.00533087 0.02377857 0.00096161
v 0.00707634 -0.02246323 0.00016089
v 0.00779169 -0.01652523 -0.01678385
v 0.01069644 -0.01740973 -0.01399364
v 0.01167524 -0.01942415 -0.01039777
v 0.01123961 -0.01999644 -0.00478481
v 0.01048643 -0.02044642 0.00181907
v 0.01119262 -0.01984476 0.00699351
v 0.01111001 -0.01930156 0.01209343
v 0.00940017 -0.01889501 0.01762971
v 0.01143154 -0.01658876 0.02016114
v 0.01202243 -0.01359524 -0.02687803
v 0.00949386 -0.01153944 -0.03035138
v 0.01082941 -0.01407281 -0.02173920
v 0.01134125 -0.01503839 -0.01664718
v 0.01164834 -0.01474486 0.02370219
v 0.00970471 -0.01353481 0.02872350
v 0.01248670 -0.01147388 0.03231723
v 0.01247550 -0.00874279 -0.03319641
v 0.00976733 -0.00514378 -0.03535677
v 0.00987187 -0.00875901 0.03515876
v 0.01116049 -0.00517294 0.03732619
v 0.01098886 0.00000993 -0.03609333
v 0.01091080 -0.00001672 0.03806586
v 0.01215451 0.00515979 -0.03538932
v 0.01072329 0.00516971 0.03735628
v 0.00931246 0.00876268 -0.03317282
v 0.01203938 0.01160710 -0.03039514
v 0.00957125 0.01151703 0.03233072
v 0.01214270 0.00878086 0.03515490
v 0.01083320 0.01361104 -0.02677372
v 0.01089860 0.01408854 -0.02170538
v 0.00999726 0.01505417 -0.01734644
v 0.00851337 0.01742553 -0.01523882
v 0.01268119 0.01701220 -0.01356176
v 0.00946890 0.01706941 0.02058973
v 0.01246209 0.01475951 0.02340931
v 0.01101680 0.01354940 0.02873863
v 0.01078356 0.01943994 -0.01073766
v 0.01129483 0.02001224 -0.00465561
v 0.01050593 0.02046220 0.00142858
v 0.00698632 0.02249719 0.00187551
v 0.01126442 0.01986050 0.00692642
v 0.01141116 0.01931676 0.01114432
v 0.01048920 0.01890955 0.01651450
v 0.01681576 -0.01871728 -0.00913295
v 0.01508946 -0.01699642 -0.01278856
v 0.01724990 -0.01944794 -0.00438475
v 0.01620181 -0.01997891 0.00029335
v 0.01582550 -0.01911091 0.00659809
v 0.01453901 -0.01730505 0.01203969
v 0.01731235 -0.01654311 0.00903342
v 0.01341434 -0.01695911 0.01647617
v 0.01779527 -0.01376163 -0.02689988
v 0.01515252 -0.01158808 -0.03043243
v 0.01647546 -0.01425453 -0.02187144
v 0.01692187 -0.01463082 -0.01571795
v 0.01766204 -0.01494070 0.01304593
v 0.01641683 -0.01470496 0.01937403
v 0.01676729 -0.01416730 0.02365955
v 0.01587755 -0.01333097 0.02817431
v 0.01714709 -0.01103987 0.03142936
v 0.01805989 -0.00875868 -0.03326027
v 0.01540562 -0.00514613 -0.03541183
v 0.01623595 -0.00871863 0.03455216
v 0.01687475 -0.00521814 0.03731741
v 0.01657290 -0.00001904 -0.03612369
v 0.01656219 -0.00005971 0.03809582
v 0.01771183 0.00511744 -0.03542194
v 0.01634153 0.00518801 0.03734180
v 0.01493959 0.00876897 -0.03324759
v 0.01772528 0.01157886 -0.03042582
v 0.01485098 0.01149074 0.03193461
v 0.01779565 0.00874241 0.03422485
v 0.01653003 0.01377853 -0.02679353
v 0.01667067 0.01427023 -0.02157682
v 0.01618761 0.01464660 -0.01592003
v 0.01707642 0.01655702 -0.01234563
v 0.01409545 0.01697472 0.01397208
v 0.01580373 0.01732087 0.00986569
v 0.01822731 0.01495651 0.01196527
v 0.01656414 0.01472066 0.01856012
v 0.01302184 0.01660352 0.01842786
v 0.01666529 0.01418294 0.02366353
v 0.01698485 0.01334646 0.02764384
v 0.01548473 0.01873306 -0.01043739
v 0.01687702 0.01946372 -0.00526868
v 0.01631543 0.01999471 0.00026568
v 0.01664451 0.01912672 0.00577556
v 0.01878164 -0.01654124 -0.01072790
v 0.02007402 -0.01707933 -0.00634271
v 0.02182107 -0.01751435 -0.00220137
v 0.02093467 -0.01881982 0.00161147
v 0.02001360 -0.01744530 0.00580057
v 0.02335075 -0.01667123 0.00334040
v 0.02328852 -0.01342312 -0.02613056
v 0.02052615 -0.01156225 -0.03010980
v 0.02232022 -0.01443798 -0.02172469
v 0.02231500 -0.01425668 -0.01594381
v 0.02249262 -0.01466919 -0.00967630
v 0.02388585 -0.01516718 -0.00360876
v 0.02251459 -0.01490175 0.00753535
v 0.02308690 -0.01417408 0.01294663
v 0.02235058 -0.01418035 0.01788628
v 0.02098818 -0.01362418 0.02387354
v 0.01996240 -0.01178656 0.02851201
v 0.02417310 -0.01146294 0.02679334
v 0.02379443 -0.00878876 -0.03241646
v 0.02095999 -0.00521428 -0.03544259
v 0.02219015 -0.00955229 0.03105012
v 0.02174039 -0.00798800 0.03507114
v 0.02258832 -0.00531946 0.03734253
v 0.02210647 -0.00005440 -0.03618346
v 0.02226882 -0.00014721 0.03815336
v 0.02342011 0.00521105 -0.03541269
v 0.02200164 0.00515483 0.03736388
v 0.02143338 0.00872359 -0.03262702
v 0.02259183 0.01116582 -0.02952383
v 0.01899813 0.01105871 0.03013320
v 0.02197978 0.01180345 0.02728523
v 0.02306063 0.00957049 0.03054552
v 0.02276903 0.00797369 0.03513092
v 0.02191171 0.01344304 -0.02680208
v 0.02240849 0.01445502 -0.02165589
v 0.02254925 0.01427374 -0.01581750
v 0.02214992 0.01468573 -0.01052016
v 0.01921785 0.01709511 -0.00867871
v 0.02314684 0.01518326 -0.00504941
v 0.02057767 0.01753011 -0.00427201
v 0.02339036 0.01664370 -0.00146736
v 0.01916122 0.01655894 0.00735230
v 0.02180507 0.01746110 0.00424941
v 0.02336777 0.01491733 0.00678265
v 0.02299653 0.01418885 0.01305885
v 0.02228419 0.01419492 0.01794511
v 0.02181544 0.01363917 0.02364530
v 0.02101274 0.01883561 0.00045228
v 0.02427205 -0.01662790 0.00024038
v 0.02468004 -0.01115137 -0.02834837
v 0.02725013 -0.01191937 -0.02492903
v 0.02747000 -0.01342228 -0.02123807
v 0.02745486 -0.01373078 -0.01587546
v 0.02742642 -0.01353467 -0.01015555
v 0.02745855 -0.01345341 -0.00453384
v 0.02688305 -0.01414513 0.00171130
v 0.02795382 -0.01339324 0.00738183
v 0.02732348 -0.01356557 0.01224580
v 0.02745361 -0.01363706 0.01791992
v 0.02647554 -0.01328165 0.02295234
v 0.02859269 -0.01111425 0.02564792
v 0.02932605 -0.00824204 -0.03248653
v 0.02647181 -0.00527283 -0.03550651
v 0.02862232 -0.00961021 -0.02714613
v 0.02876081 -0.00935113 0.02938110
v 0.02688510 -0.00824018 0.03439709
v 0.02829607 -0.00545929 0.03746217
v 0.02844797 0.00080899 -0.03670436
v 0.02812686 -0.00017539 0.03827188
v 0.02866726 0.00603506 -0.03527137
v 0.02785797 0.00514951 0.03755254
v 0.02786667 0.00814989 -0.03250566
v 0.02771910 0.00958011 -0.02800551
v 0.02560102 0.01193971 -0.02658736
v 0.02897484 0.01115112 -0.02401666
v 0.02648797 0.01147983 0.02617696
v 0.02944396 0.00937931 0.02918918
v 0.02783600 0.00815058 0.03459945
v 0.02680465 0.01344207 -0.02262639
v 0.02758980 0.01374837 -0.01713362
v 0.02756419 0.01355134 -0.01144799
v 0.02744731 0.01347072 -0.00592671
v 0.02687510 0.01416168 0.00021839
v 0.02421975 0.01668705 0.00179047
v 0.02798971 0.01340783 0.00578264
v 0.02725350 0.01357992 0.01099826
v 0.02735054 0.01365221 0.01675166
v 0.02753607 0.01329605 0.02203004
v 0.03016651 -0.01114616 -0.02198702
v 0.03107402 -0.01155722 -0.01719221
v 0.03105718 -0.01156674 -0.01155498
v 0.03098960 -0.01145239 -0.00599507
v 0.03094866 -0.01141968 -0.00044816
v 0.03095212 -0.01145057 0.00517351
v 0.03094474 -0.01148838 0.01084116
v 0.03103621 -0.01155638 0.01661744
v 0.03069315 -0.01155610 0.02205117
v 0.03363146 -0.00777648 -0.03196401
v 0.03171634 -0.00518244 -0.03593871
v 0.03306779 -0.00820982 -0.02738531
v 0.03319227 -0.00874245 -0.02101117
v 0.03386388 -0.00875904 -0.01462945
v 0.03384091 -0.00874146 -0.00906737
v 0.03383167 -0.00871769 -0.00348321
v 0.03382852 -0.00870765 0.00211770
v 0.03380022 -0.00872708 0.00775957
v 0.03384152 -0.00870336 0.01349014
v 0.03386549 -0.00871285 0.01924023
v 0.03298337 -0.00870695 0.02502502
v 0.03386992 -0.00807404 0.03013114
v 0.03230561 -0.00802569 0.03447082
v 0.03440261 -0.00440820 0.03741494
v 0.03174415 -0.00082266 -0.03880454
v 0.03536312 -0.00276032 -0.03841566
v 0.03475780 0.00046571 -0.04054787
v 0.03317811 0.00075422 0.03840427
v 0.03392795 0.00239069 -0.03811393
v 0.03338227 0.00506938 -0.03532847
v 0.03346229 0.00524925 0.03738389
v 0.03252610 0.00769376 -0.03307909
v 0.03314616 0.00814973 -0.02866790
v 0.03299596 0.00866425 -0.02297015
v 0.03072798 0.01154837 -0.01983944
v 0.03381654 0.00867033 -0.01714221
v 0.03109560 0.01155086 -0.01440769
v 0.03380776 0.00869358 -0.01149325
v 0.03104264 0.01144988 -0.00871834
v 0.03382585 0.00868966 -0.00577569
v 0.03097100 0.01143543 -0.00312310
v 0.03382956 0.00872160 -0.00013668
v 0.03092928 0.01146639 0.00246431
v 0.03379646 0.00874448 0.00550176
v 0.03088310 0.01150432 0.00811576
v 0.03381685 0.00876181 0.01115212
v 0.03093986 0.01159061 0.01381455
v 0.03388095 0.00878906 0.01680663
v 0.03110654 0.01160245 0.01950551
v 0.03326538 0.00881977 0.02323094
v 0.03029859 0.01114769 0.02419549
v 0.03368242 0.00816233 0.02872808
v 0.03304142 0.00794571 0.03375448
v 0.03571134 -0.00574280 -0.03370494
v 0.03667909 -0.00610279 -0.02872304
v 0.03668196 -0.00537956 -0.02214067
v 0.03599244 -0.00520296 -0.01600702
v 0.03601138 -0.00515985 -0.01046497
v 0.03602598 -0.00514642 -0.00492286
v 0.03602871 -0.00514816 0.00071441
v 0.03602518 -0.00515022 0.00635315
v 0.03600259 -0.00511389 0.01197582
v 0.03601120 -0.00506005 0.01765775
v 0.03583439 -0.00573918 0.02253580
v 0.03678345 -0.00496435 0.02765295
v 0.03663108 -0.00612636 0.03344683
v 0.03976956 -0.00176637 -0.03794147
v 0.03834908 -0.00037574 -0.04061356
v 0.03913700 -0.00311862 -0.03255929
v 0.03969935 -0.00311026 -0.02568193
v 0.03924368 -0.00220539 -0.02088653
v 0.03718247 0.00015689 -0.01645994
v 0.03921849 0.00072264 -0.01963032
v 0.03669806 -0.00005895 -0.01024259
v 0.03674633 0.00000137 -0.00465383
v 0.03676273 0.00000911 0.00096499
v 0.03676602 0.00000367 0.00660610
v 0.03676322 0.00001303 0.01219197
v 0.03671147 0.00010199 0.01776922
v 0.03719856 -0.00007767 0.02410408
v 0.03929291 -0.00066506 0.02740979
v 0.03986839 -0.00267598 0.03095114
v 0.03918180 -0.00323171 0.03530440
v 0.03819231 0.00054713 0.03717312
v 0.03828628 0.00181860 -0.03924549
v 0.03890745 0.00305937 -0.03462516
v 0.03652478 0.00603392 -0.03122589
v 0.03991817 0.00302884 -0.02844341
v 0.03686506 0.00586801 -0.02563400
v 0.03974043 0.00253991 -0.02290701
v 0.03670120 0.00486129 -0.01987256
v 0.03580030 0.00571968 -0.01494682
v 0.03594847 0.00507722 -0.01009114
v 0.03600081 0.00512848 -0.00440535
v 0.03602723 0.00516499 0.00122309
v 0.03602868 0.00516298 0.00686254
v 0.03606043 0.00515991 0.01245681
v 0.03601231 0.00520692 0.01801847
v 0.03593375 0.00534507 0.02375071
v 0.03929357 0.00237545 0.02875716
v 0.03671160 0.00556636 0.03011703
v 0.03986658 0.00282208 0.03344905
v 0.03686916 0.00526562 0.03554061
v 0.04103971 0.00042520 -0.03798394
v 0.04143050 -0.00000321 -0.03312498
v 0.04132657 -0.00010529 -0.02704351
v 0.04093343 -0.00049418 -0.02240377
v 0.04109386 0.00057643 0.03036239
v 0.04122146 -0.00042340 0.03394674
f 3 2 1
f 5 4 1
f 5 1 2
f 7 6 4
f 7 4 5
f 8 6 7
f 11 10 9
f 13 12 9
f 13 9 10
f 14 12 13
f 15 3 1
f 15 1 4
f 15 4 16
f 16 4 6
f 16 6 17
f 17 6 8
f 18 11 9
f 18 9 12
f 18 12 19
f 19 12 14
f 22 21 20
f 24 23 20
f 24 20 21
f 26 25 23
f 26 23 24
f 28 27 25
f 28 25 26
f 30 29 27
f 30 27 28
f 32 31 29
f 32 29 30
f 34 33 31
f 34 31 32
f 36 35 33
f 36 33 34
f 38 37 35
f 38 35 36
f 40 39 37
f 40 37 38
f 42 41 39
f 42 39 40
f 44 43 41
f 44 41 42
f 46 45 43
f 46 43 44
f 47 45 46
f 49 48 2
f 49 2 3
f 20 5 22
f 5 48 22
f 5 2 48
f 5 20 7
f 7 20 23
f 7 23 8
f 23 50 8
f 23 25 50
f 51 25 27
f 50 25 51
f 52 27 29
f 51 27 52
f 53 29 31
f 52 29 53
f 54 31 33
f 53 31 54
f 55 33 35
f 54 33 55
f 56 35 37
f 55 35 56
f 57 37 39
f 56 37 57
f 58 39 41
f 57 39 58
f 11 58 10
f 58 43 10
f 58 41 43
f 10 43 13
f 13 43 45
f 14 13 45
f 47 14 45
f 59 14 47
f 60 49 3
f 60 3 15
f 62 60 61
f 60 16 61
f 60 15 16
f 17 63 16
f 16 63 61
f 8 50 17
f 50 63 17
f 50 64 63
f 65 50 51
f 64 50 65
f 66 51 52
f 65 51 66
f 67 52 53
f 66 52 67
f 68 53 54
f 67 53 68
f 69 54 55
f 68 54 69
f 70 55 56
f 69 55 70
f 71 56 57
f 70 56 71
f 72 57 58
f 71 57 72
f 18 73 11
f 73 58 11
f 73 72 58
f 19 74 18
f 18 74 73
f 75 74 19
f 14 75 19
f 59 75 14
f 76 62 61
f 76 61 63
f 76 63 77
f 77 63 64
f 77 64 78
f 78 64 65
f 78 65 79
f 79 65 66
f 79 66 80
f 80 66 67
f 80 67 81
f 81 67 68
f 81 68 82
f 82 68 69
f 82 69 83
f 83 69 70
f 83 70 84
f 84 70 71
f 84 71 85
f 85 71 72
f 85 72 86
f 86 72 73
f 86 73 87
f 87 73 74
f 87 74 88
f 88 74 75
f 91 90 89
f 93 92 89
f 93 89 90
f 95 94 92
f 95 92 93
f 97 96 94
f 97 94 95
f 99 98 96
f 99 96 97
f 101 100 98
f 101 98 99
f 103 102 100
f 103 100 101
f 104 102 103
f 106 105 21
f 106 21 22
f 21 107 24
f 105 107 21
f 24 108 26
f 107 108 24
f 89 28 91
f 28 108 91
f 28 26 108
f 28 89 30
f 30 89 92
f 30 92 32
f 32 92 94
f 32 94 34
f 34 94 96
f 34 96 36
f 36 96 98
f 36 98 38
f 38 98 100
f 38 100 40
f 40 100 102
f 104 109 102
f 109 40 102
f 109 42 40
f 42 110 44
f 109 110 42
f 44 111 46
f 110 111 44
f 47 46 111
f 47 111 112
f 114 113 48
f 114 48 49
f 22 48 106
f 106 48 113
f 112 59 47
f 115 59 112
f 116 114 49
f 116 49 60
f 60 62 116
f 116 62 117
f 115 75 59
f 118 75 115
f 119 117 62
f 119 62 76
f 120 76 77
f 120 119 76
f 121 77 78
f 121 120 77
f 123 121 122
f 121 79 122
f 121 78 79
f 80 124 79
f 79 124 122
f 81 125 80
f 80 125 124
f 82 126 81
f 81 126 125
f 83 127 82
f 82 127 126
f 84 128 83
f 83 128 127
f 85 129 84
f 84 129 128
f 129 85 130
f 85 131 130
f 85 86 131
f 132 86 87
f 132 131 86
f 133 87 88
f 133 132 87
f 88 75 118
f 88 118 133
f 134 123 122
f 134 122 124
f 134 124 135
f 135 124 125
f 135 125 136
f 136 125 126
f 136 126 137
f 137 126 127
f 137 127 138
f 138 127 128
f 138 128 139
f 139 128 129
f 139 129 140
f 140 129 130
f 143 142 141
f 145 144 141
f 145 141 142
f 90 91 144
f 145 90 144
f 146 90 145
f 90 147 93
f 146 147 90
f 93 148 95
f 147 148 93
f 95 149 97
f 148 149 95
f 97 150 99
f 149 150 97
f 99 151 101
f 150 151 99
f 101 152 103
f 151 152 101
f 154 153 104
f 103 154 104
f 152 154 103
f 155 153 154
f 157 156 105
f 157 105 106
f 141 107 143
f 107 156 143
f 107 105 156
f 107 141 108
f 108 141 144
f 108 144 91
f 153 109 104
f 155 158 153
f 158 109 153
f 158 110 109
f 110 159 111
f 158 159 110
f 112 111 159
f 112 159 160
f 114 161 113
f 161 162 113
f 162 106 113
f 162 157 106
f 160 115 112
f 163 115 160
f 116 161 114
f 116 117 161
f 117 162 161
f 117 164 162
f 163 118 115
f 165 118 163
f 166 164 117
f 166 117 119
f 168 166 167
f 166 120 167
f 166 119 120
f 121 169 120
f 120 169 167
f 123 169 121
f 170 130 131
f 170 131 171
f 131 172 171
f 131 132 172
f 173 132 133
f 173 172 132
f 133 118 165
f 133 165 173
f 174 168 167
f 174 167 169
f 174 169 175
f 175 169 123
f 134 175 123
f 176 175 134
f 177 134 135
f 177 176 134
f 178 135 136
f 178 177 135
f 179 136 137
f 179 178 136
f 180 137 138
f 180 179 137
f 181 138 139
f 181 180 138
f 182 139 140
f 182 181 139
f 140 130 170
f 183 140 170
f 182 140 183
f 183 170 171
f 186 185 184
f 188 187 184
f 188 184 185
f 190 189 187
f 190 187 188
f 192 191 189
f 192 189 190
f 193 191 192
f 195 194 142
f 195 142 143
f 142 196 145
f 194 196 142
f 145 197 146
f 196 197 145
f 184 147 186
f 147 197 186
f 147 146 197
f 147 184 148
f 148 184 187
f 148 187 149
f 149 187 189
f 149 189 150
f 150 189 191
f 193 198 191
f 198 150 191
f 198 151 150
f 151 199 152
f 198 199 151
f 152 200 154
f 199 200 152
f 155 154 200
f 155 200 201
f 203 202 156
f 203 156 157
f 143 156 195
f 195 156 202
f 201 204 155
f 155 204 158
f 158 205 159
f 204 205 158
f 160 159 205
f 160 205 206
f 162 203 157
f 162 207 203
f 206 163 160
f 208 163 206
f 164 207 162
f 164 209 207
f 208 165 163
f 210 165 208
f 211 209 164
f 211 164 166
f 166 168 211
f 211 168 212
f 214 213 172
f 172 213 171
f 215 172 173
f 215 214 172
f 173 165 210
f 173 210 215
f 216 212 168
f 216 168 174
f 217 174 175
f 217 216 174
f 218 175 176
f 218 217 175
f 220 218 219
f 218 177 219
f 218 176 177
f 178 221 177
f 177 221 219
f 179 222 178
f 178 222 221
f 180 223 179
f 179 223 222
f 223 180 224
f 180 225 224
f 180 181 225
f 226 181 182
f 226 225 181
f 227 182 183
f 227 226 182
f 183 171 213
f 183 213 227
f 228 220 219
f 228 219 221
f 228 221 229
f 229 221 222
f 229 222 230
f 230 222 223
f 230 223 231
f 231 223 224
f 234 233 232
f 185 186 232
f 233 185 232
f 235 185 233
f 185 236 188
f 235 236 185
f 188 237 190
f 236 237 188
f 190 238 192
f 237 238 190
f 240 239 193
f 192 240 193
f 238 240 192
f 242 241 239
f 242 239 240
f 243 241 242
f 245 244 194
f 245 194 195
f 194 246 196
f 244 246 194
f 232 197 234
f 197 246 234
f 197 196 246
f 197 232 186
f 239 198 193
f 198 239 199
f 199 239 241
f 243 247 241
f 247 199 241
f 247 200 199
f 249 248 201
f 200 249 201
f 247 249 200
f 250 248 249
f 252 251 202
f 252 202 203
f 195 202 245
f 245 202 251
f 248 204 201
f 250 253 248
f 253 204 248
f 253 205 204
f 206 205 253
f 206 253 254
f 207 252 203
f 207 255 252
f 254 208 206
f 256 208 254
f 209 255 207
f 209 257 255
f 256 210 208
f 258 210 256
f 259 257 209
f 259 209 211
f 211 212 259
f 259 212 260
f 261 213 214
f 261 214 262
f 214 263 262
f 214 215 263
f 215 210 258
f 215 258 263
f 264 260 212
f 264 212 216
f 265 216 217
f 265 264 216
f 267 265 266
f 265 218 266
f 265 217 218
f 220 266 218
f 268 224 225
f 268 225 269
f 225 270 269
f 225 226 270
f 271 226 227
f 271 270 226
f 227 213 261
f 272 227 261
f 271 227 272
f 272 261 262
f 273 267 266
f 273 266 220
f 228 273 220
f 274 273 228
f 275 228 229
f 275 274 228
f 276 229 230
f 276 275 229
f 277 230 231
f 277 276 230
f 231 224 268
f 278 231 268
f 277 231 278
f 278 268 269
f 280 279 233
f 280 233 234
f 233 281 235
f 279 281 233
f 235 282 236
f 281 282 235
f 236 283 237
f 282 283 236
f 237 284 238
f 283 284 237
f 238 285 240
f 284 285 238
f 240 286 242
f 285 286 240
f 243 242 286
f 243 286 287
f 289 288 244
f 289 244 245
f 244 290 246
f 288 290 244
f 234 246 280
f 280 246 290
f 287 291 243
f 243 291 247
f 247 292 249
f 291 292 247
f 250 249 292
f 250 292 293
f 295 294 251
f 295 251 252
f 245 251 289
f 289 251 294
f 293 296 250
f 250 296 253
f 254 253 296
f 254 296 297
f 255 295 252
f 255 298 295
f 297 256 254
f 299 256 297
f 257 298 255
f 257 300 298
f 299 258 256
f 301 258 299
f 302 300 257
f 302 257 259
f 259 260 302
f 302 260 303
f 305 304 263
f 263 304 262
f 263 258 301
f 263 301 305
f 306 303 260
f 306 260 264
f 307 264 265
f 307 306 264
f 265 267 307
f 307 267 308
f 309 269 270
f 309 270 310
f 270 311 310
f 270 271 311
f 312 271 272
f 312 311 271
f 272 262 304
f 272 304 312
f 313 308 267
f 313 267 273
f 314 273 274
f 314 313 273
f 315 274 275
f 315 314 274
f 316 275 276
f 316 315 275
f 317 276 277
f 317 316 276
f 318 277 278
f 318 317 277
f 278 269 309
f 319 278 309
f 318 278 319
f 319 309 310
f 321 320 279
f 321 279 280
f 279 322 281
f 320 322 279
f 281 323 282
f 322 323 281
f 282 324 283
f 323 324 282
f 283 325 284
f 324 325 283
f 284 326 285
f 325 326 284
f 285 327 286
f 326 327 285
f 287 286 327
f 287 327 328
f 330 329 288
f 330 288 289
f 288 331 290
f 329 331 288
f 280 290 321
f 321 290 331
f 328 332 287
f 287 332 291
f 291 333 292
f 332 333 291
f 293 292 333
f 293 333 334
f 336 335 294
f 336 294 295
f 289 294 330
f 330 294 335
f 334 337 293
f 293 337 296
f 297 296 337
f 297 337 338
f 298 336 295
f 298 339 336
f 338 299 297
f 340 299 338
f 300 339 298
f 300 341 339
f 340 301 299
f 342 301 340
f 343 341 300
f 343 300 302
f 302 303 343
f 343 303 344
f 346 345 305
f 305 345 304
f 305 301 342
f 305 342 346
f 347 344 303
f 347 303 306
f 348 306 307
f 348 347 306
f 307 308 348
f 348 308 349
f 351 350 311
f 311 350 310
f 352 311 312
f 352 351 311
f 312 304 345
f 312 345 352
f 353 349 308
f 353 308 313
f 354 313 314
f 354 353 313
f 355 314 315
f 355 354 314
f 356 315 316
f 356 355 315
f 357 316 317
f 357 356 316
f 358 317 318
f 358 357 317
f 359 318 319
f 359 358 318
f 319 310 350
f 319 350 359
f 362 361 360
f 363 360 361
f 365 364 320
f 365 320 321
f 320 366 322
f 364 366 320
f 322 367 323
f 366 367 322
f 360 324 362
f 324 367 362
f 324 323 367
f 363 368 360
f 368 324 360
f 368 325 324
f 325 369 326
f 368 369 325
f 326 370 327
f 369 370 326
f 328 327 370
f 328 370 371
f 373 372 329
f 373 329 330
f 329 374 331
f 372 374 329
f 321 331 365
f 365 331 374
f 371 375 328
f 328 375 332
f 332 376 333
f 375 376 332
f 334 333 376
f 334 376 377
f 379 378 335
f 379 335 336
f 330 335 373
f 373 335 378
f 377 380 334
f 334 380 337
f 338 337 380
f 338 380 381
f 339 379 336
f 339 382 379
f 381 340 338
f 383 340 381
f 341 382 339
f 341 384 382
f 383 342 340
f 385 342 383
f 386 384 341
f 386 341 343
f 343 344 386
f 386 344 387
f 389 388 346
f 346 388 345
f 346 342 385
f 346 385 389
f 390 387 344
f 390 344 347
f 391 347 348
f 391 390 347
f 348 349 391
f 391 349 392
f 394 393 351
f 351 393 350
f 395 351 352
f 395 394 351
f 352 345 388
f 352 388 395
f 396 392 349
f 396 349 353
f 397 353 354
f 397 396 353
f 398 354 355
f 398 397 354
f 400 398 399
f 398 356 399
f 398 355 356
f 399 356 401
f 356 402 401
f 356 357 402
f 403 357 358
f 403 402 357
f 404 358 359
f 404 403 358
f 359 350 393
f 359 393 404
f 405 400 399
f 405 399 401
f 362 406 361
f 406 363 361
f 365 407 364
f 364 407 408
f 409 364 408
f 366 364 409
f 366 410 367
f 409 410 366
f 362 367 406
f 367 411 406
f 367 410 411
f 406 411 363
f 411 368 363
f 411 412 368
f 368 413 369
f 412 413 368
f 369 414 370
f 413 414 369
f 371 370 414
f 371 414 415
f 417 416 372
f 417 372 373
f 372 418 374
f 416 418 372
f 365 374 407
f 374 419 407
f 374 418 419
f 407 419 408
f 415 420 371
f 371 420 375
f 375 421 376
f 420 421 375
f 377 376 421
f 377 421 422
f 424 423 378
f 424 378 379
f 373 378 417
f 417 378 423
f 422 425 377
f 377 425 380
f 381 380 425
f 381 425 426
f 382 424 379
f 382 427 424
f 426 383 381
f 428 383 426
f 384 427 382
f 384 429 427
f 428 385 383
f 430 385 428
f 431 429 384
f 431 384 386
f 386 387 431
f 431 387 432
f 434 433 389
f 389 433 388
f 389 385 430
f 389 430 434
f 435 432 387
f 435 387 390
f 436 390 391
f 436 435 390
f 438 437 392
f 437 391 392
f 437 436 391
f 438 439 437
f 441 440 394
f 394 440 393
f 442 394 395
f 442 441 394
f 395 388 433
f 395 433 442
f 396 438 392
f 443 439 438
f 396 443 438
f 397 443 396
f 444 397 398
f 444 443 397
f 446 445 400
f 445 398 400
f 445 444 398
f 401 402 446
f 402 445 446
f 402 447 445
f 448 402 403
f 448 447 402
f 449 403 404
f 449 448 403
f 404 393 440
f 404 440 449
f 405 446 400
f 446 405 401
f 451 450 409
f 451 409 408
f 409 452 410
f 450 452 409
f 410 453 411
f 452 453 410
f 411 454 412
f 453 454 411
f 454 456 455
f 413 454 455
f 412 454 413
f 457 414 413
f 457 413 455
f 457 415 414
f 459 458 416
f 459 416 417
f 416 460 418
f 458 460 416
f 418 461 419
f 460 461 418
f 408 419 451
f 451 419 461
f 456 462 455
f 455 462 457
f 457 462 463
f 457 463 415
f 463 420 415
f 463 464 420
f 420 465 421
f 464 465 420
f 422 421 465
f 422 465 466
f 468 467 423
f 468 423 424
f 417 423 459
f 459 423 467
f 466 469 422
f 422 469 425
f 426 425 469
f 426 469 470
f 427 468 424
f 427 471 468
f 470 428 426
f 472 428 470
f 429 471 427
f 429 473 471
f 472 430 428
f 474 430 472
f 475 473 429
f 475 429 431
f 431 432 475
f 475 432 476
f 478 477 434
f 434 477 433
f 434 430 474
f 434 474 478
f 479 476 432
f 479 432 435
f 480 435 436
f 480 479 435
f 481 436 437
f 481 480 436
f 437 439 481
f 481 439 482
f 485 484 483
f 487 486 483
f 483 486 485
f 440 441 487
f 441 486 487
f 441 488 486
f 489 441 442
f 489 488 441
f 442 433 477
f 442 477 489
f 490 482 439
f 490 439 443
f 491 443 444
f 491 490 443
f 492 444 445
f 492 491 444
f 493 445 447
f 493 492 445
f 448 483 484
f 493 448 484
f 447 448 493
f 483 448 449
f 483 449 487
f 487 449 440
f 451 494 450
f 495 452 450
f 495 450 494
f 452 495 496
f 497 452 496
f 453 452 497
f 497 499 498
f 454 497 498
f 453 497 454
f 498 456 454
f 501 500 458
f 501 458 459
f 458 502 460
f 500 502 458
f 460 503 461
f 502 503 460
f 451 461 494
f 461 504 494
f 461 503 504
f 494 504 495
f 495 504 505
f 495 505 496
f 499 506 498
f 498 506 456
f 506 462 456
f 506 507 462
f 462 508 463
f 507 508 462
f 463 509 464
f 508 509 463
f 509 511 510
f 465 509 510
f 464 509 465
f 510 466 465
f 513 512 467
f 513 467 468
f 459 467 501
f 501 467 512
f 511 514 510
f 510 514 466
f 514 469 466
f 514 515 469
f 470 469 515
f 470 515 516
f 471 513 468
f 471 517 513
f 516 472 470
f 518 472 516
f 473 517 471
f 473 519 517
f 518 474 472
f 520 474 518
f 521 519 473
f 521 473 475
f 475 476 521
f 521 476 522
f 525 524 523
f 477 478 523
f 478 525 523
f 478 526 525
f 478 474 520
f 478 520 526
f 527 522 476
f 527 476 479
f 528 479 480
f 528 527 479
f 529 480 481
f 529 528 480
f 531 530 482
f 530 481 482
f 530 529 481
f 533 532 531
f 531 532 530
f 533 534 532
f 537 536 535
f 484 485 535
f 485 537 535
f 485 538 537
f 539 485 486
f 539 538 485
f 540 486 488
f 540 539 486
f 489 523 524
f 540 489 524
f 488 489 540
f 523 489 477
f 490 531 482
f 531 490 491
f 531 491 533
f 541 534 533
f 491 541 533
f 492 541 491
f 493 535 536
f 541 493 536
f 492 493 541
f 535 493 484
f 496 542 497
f 542 499 497
f 501 543 500
f 500 543 544
f 545 500 544
f 502 500 545
f 502 546 503
f 545 546 502
f 503 547 504
f 546 547 503
f 504 548 505
f 547 548 504
f 496 505 542
f 505 549 542
f 505 548 549
f 542 549 499
f 549 506 499
f 549 550 506
f 506 551 507
f 550 551 506
f 507 552 508
f 551 552 507
f 508 553 509
f 552 553 508
f 511 509 553
f 511 553 554
f 556 555 512
f 556 512 513
f 501 512 543
f 512 557 543
f 512 555 557
f 543 557 544
f 554 558 511
f 511 558 514
f 514 559 515
f 558 559 514
f 516 515 559
f 516 559 560
f 517 556 513
f 517 561 556
f 560 518 516
f 562 518 560
f 519 561 517
f 519 563 561
f 562 520 518
f 564 520 562
f 565 563 519
f 565 519 521
f 567 566 522
f 566 521 522
f 566 565 521
f 567 568 566
f 570 569 525
f 525 569 524
f 571 525 526
f 571 570 525
f 526 520 564
f 526 564 571
f 527 567 522
f 572 568 567
f 527 572 567
f 528 572 527
f 573 528 529
f 573 572 528
f 574 529 530
f 574 573 529
f 575 530 532
f 575 574 530
f 577 576 534
f 576 532 534
f 576 575 532
f 536 537 577
f 537 576 577
f 537 578 576
f 579 537 538
f 579 578 537
f 580 538 539
f 580 579 538
f 581 539 540
f 581 580 539
f 540 524 569
f 540 569 581
f 541 577 534
f 577 541 536
f 544 582 545
f 583 546 545
f 583 545 582
f 584 547 546
f 584 546 583
f 585 548 547
f 585 547 584
f 586 549 548
f 586 548 585
f 587 550 549
f 587 549 586
f 588 551 550
f 588 550 587
f 589 552 551
f 589 551 588
f 590 553 552
f 590 552 589
f 590 554 553
f 592 591 555
f 592 555 556
f 555 593 557
f 591 593 555
f 544 557 582
f 557 594 582
f 557 593 594
f 582 594 583
f 583 594 595
f 583 595 584
f 584 595 596
f 584 596 585
f 585 596 597
f 585 597 586
f 586 597 598
f 586 598 587
f 587 598 599
f 587 599 588
f 588 599 600
f 588 600 589
f 589 600 601
f 589 601 590
f 590 601 602
f 590 602 554
f 602 558 554
f 602 603 558
f 558 604 559
f 603 604 558
f 560 559 604
f 560 604 605
f 608 607 606
f 607 592 606
f 592 561 606
f 592 556 561
f 605 562 560
f 609 562 605
f 610 608 606
f 606 561 610
f 561 611 610
f 561 563 611
f 609 564 562
f 612 564 609
f 613 611 563
f 613 563 565
f 614 565 566
f 614 613 565
f 616 615 568
f 615 566 568
f 615 614 566
f 618 617 616
f 616 617 615
f 620 619 618
f 618 619 617
f 622 621 620
f 620 621 619
f 624 623 622
f 622 623 621
f 626 625 624
f 624 625 623
f 628 627 626
f 626 627 625
f 630 629 628
f 628 629 627
f 632 631 630
f 630 631 629
f 569 570 632
f 570 631 632
f 570 633 631
f 634 570 571
f 634 633 570
f 571 564 612
f 571 612 634
f 572 616 568
f 616 572 573
f 616 573 618
f 618 573 574
f 618 574 620
f 620 574 575
f 620 575 622
f 622 575 576
f 622 576 624
f 624 576 578
f 624 578 626
f 626 578 579
f 626 579 628
f 628 579 580
f 628 580 630
f 630 580 581
f 630 581 632
f 632 581 569
f 592 635 591
f 636 593 591
f 636 591 635
f 637 594 593
f 637 593 636
f 638 595 594
f 638 594 637
f 639 596 595
f 639 595 638
f 640 597 596
f 640 596 639
f 641 598 597
f 641 597 640
f 642 599 598
f 642 598 641
f 643 600 599
f 643 599 642
f 644 601 600
f 644 600 643
f 645 602 601
f 645 601 644
f 646 603 602
f 646 602 645
f 647 604 603
f 647 603 646
f 647 605 604
f 649 648 607
f 649 607 608
f 592 607 635
f 607 650 635
f 607 648 650
f 635 650 636
f 636 650 651
f 636 651 637
f 637 651 652
f 654 653 652
f 653 637 652
f 653 638 637
f 638 655 639
f 638 653 655
f 639 656 640
f 639 655 656
f 640 657 641
f 640 656 657
f 641 658 642
f 641 657 658
f 642 659 643
f 642 658 659
f 643 660 644
f 643 659 660
f 644 661 645
f 644 660 661
f 663 646 662
f 646 661 662
f 646 645 661
f 646 663 647
f 647 663 664
f 605 647 664
f 665 605 664
f 609 605 665
f 666 649 608
f 666 608 610
f 668 667 611
f 667 610 611
f 667 666 610
f 670 669 668
f 668 669 667
f 672 671 670
f 670 671 669
f 671 672 654
f 672 653 654
f 672 673 653
f 653 674 655
f 653 673 674
f 655 675 656
f 655 674 675
f 656 676 657
f 656 675 676
f 657 677 658
f 657 676 677
f 658 678 659
f 658 677 678
f 659 679 660
f 659 678 679
f 660 680 661
f 660 679 680
f 662 661 681
f 661 682 681
f 661 680 682
f 684 683 682
f 682 683 681
f 665 683 684
f 612 665 684
f 609 665 612
f 613 668 611
f 668 613 614
f 668 614 670
f 670 614 615
f 670 615 672
f 672 615 617
f 672 617 673
f 673 617 619
f 673 619 674
f 674 619 621
f 674 621 675
f 675 621 623
f 675 623 676
f 676 623 625
f 676 625 677
f 677 625 627
f 677 627 678
f 678 627 629
f 678 629 679
f 679 629 631
f 679 631 680
f 680 631 633
f 680 633 682
f 682 633 634
f 682 634 684
f 684 634 612
f 649 685 648
f 686 650 648
f 686 648 685
f 687 651 650
f 687 650 686
f 688 652 651
f 688 651 687
f 688 654 652
f 662 689 663
f 690 664 663
f 690 663 689
f 690 665 664
f 666 685 649
f 685 666 667
f 685 667 686
f 686 667 669
f 686 669 687
f 687 669 671
f 687 671 688
f 688 671 654
f 681 689 662
f 689 681 683
f 689 683 690
f 690 683 665

