# https://github.com/mikedh/trimesh
v -0.02939313 -0.00902187 0.00486729
v -0.02846552 -0.01071469 0.00451355
v -0.02850043 -0.00947870 0.00382402
v -0.02825090 -0.01003772 0.00556367
v -0.02952440 -0.00703755 0.00469075
v -0.02849582 -0.00714199 0.00367115
v -0.02856495 -0.00758917 0.00571338
v -0.02951633 -0.00459483 0.00468565
v -0.02852685 -0.00468583 0.00370978
v -0.02854499 -0.00512126 0.00567556
v -0.02951319 -0.00219839 0.00470007
v -0.02853001 -0.00230764 0.00371718
v -0.02852814 -0.00271414 0.00568119
v -0.02951176 0.00017358 0.00469940
v -0.02852734 0.00006409 0.00371497
v -0.02852773 -0.00034105 0.00568365
v -0.02951087 0.00254607 0.00469936
v -0.02852671 0.00243821 0.00371613
v -0.02852711 0.00203156 0.00568293
v -0.02952687 0.00492356 0.00470852
v -0.02855417 0.00482838 0.00372398
v -0.02853396 0.00440065 0.00568621
v -0.02956608 0.00731750 0.00469957
v -0.02860292 0.00724280 0.00371323
v -0.02856293 0.00680630 0.00569517
v -0.02946976 0.00925271 0.00452837
v -0.02816903 0.00987742 0.00379391
v -0.02837907 0.00943332 0.00561097
v -0.02858918 0.01088231 0.00487853
v -0.02733127 -0.01184648 0.00488560
v -0.02565614 -0.01273823 0.00453388
v -0.02666610 -0.01162459 0.00383678
v -0.02610248 -0.01183435 0.00557357
v -0.02619871 -0.00968557 0.00335113
v -0.02632265 -0.00952289 0.00604703
v -0.02621625 -0.00716545 0.00337797
v -0.02629849 -0.00698695 0.00601550
v -0.02626883 -0.00474737 0.00342445
v -0.02626845 -0.00457116 0.00597387
v -0.02626989 -0.00237757 0.00342480
v -0.02626733 -0.00219977 0.00597420
v -0.02626695 -0.00000468 0.00342309
v -0.02626786 0.00017317 0.00597496
v -0.02626744 0.00236952 0.00342398
v -0.02626789 0.00254566 0.00597482
v -0.02630652 0.00476061 0.00342459
v -0.02628947 0.00491981 0.00597951
v -0.02635197 0.00720520 0.00341734
v -0.02630226 0.00733371 0.00599026
v -0.02605133 0.00933471 0.00339730
v -0.02595660 0.00943093 0.00600084
v -0.02750111 0.01196744 0.00451957
v -0.02605346 0.01171880 0.00378823
v -0.02650321 0.01154165 0.00560326
v -0.02588382 0.01281372 0.00486760
v -0.02369949 -0.01281443 0.00469858
v -0.02423979 -0.01189396 0.00368745
v -0.02379823 -0.01176937 0.00571438
v -0.02366980 -0.00962967 0.00339175
v -0.02380523 -0.00950234 0.00600707
v -0.02373907 -0.00712995 0.00345456
v -0.02377824 -0.00705212 0.00594378
v -0.02377489 -0.00474787 0.00348093
v -0.02377014 -0.00468100 0.00591793
v -0.02377216 -0.00237771 0.00347867
v -0.02377127 -0.00231029 0.00591983
v -0.02376976 -0.00000415 0.00347800
v -0.02377059 0.00006417 0.00592019
v -0.02377067 0.00236896 0.00347843
v -0.02377216 0.00243740 0.00591976
v -0.02380280 0.00475899 0.00347632
v -0.02379575 0.00482447 0.00592265
v -0.02386684 0.00718153 0.00344709
v -0.02380148 0.00724546 0.00595120
v -0.02395165 0.00964482 0.00341150
v -0.02383807 0.00971575 0.00597837
v -0.02343731 0.01185531 0.00371599
v -0.02388526 0.01194331 0.00568151
v -0.02395910 0.01287289 0.00470432
v -0.02146932 -0.01321241 0.00471170
v -0.02149173 -0.01211426 0.00366964
v -0.02128118 -0.01219299 0.00573310
v -0.02126806 -0.00956472 0.00344217
v -0.02138756 -0.00953385 0.00595269
v -0.02135715 -0.00711737 0.00350729
v -0.02136757 -0.00711893 0.00589095
v -0.02136868 -0.00474696 0.00351660
v -0.02136448 -0.00475187 0.00588194
v -0.02136518 -0.00237470 0.00351454
v -0.02136521 -0.00237797 0.00588395
v -0.02136399 -0.00000093 0.00351505
v -0.02136478 -0.00000277 0.00588336
v -0.02136335 0.00237225 0.00351656
v -0.02136640 0.00237192 0.00588170
v -0.02137547 0.00475506 0.00351521
v -0.02137547 0.00475605 0.00588321
v -0.02144743 0.00716369 0.00347880
v -0.02138847 0.00717732 0.00591909
v -0.02153429 0.00960876 0.00343732
v -0.02141822 0.00966394 0.00596034
v -0.02101036 0.01224184 0.00367588
v -0.02125588 0.01215557 0.00571688
v -0.02174248 0.01327011 0.00468642
v -0.01999823 -0.01425298 0.00487991
v -0.01844928 -0.01512423 0.00451383
v -0.01932552 -0.01400684 0.00386020
v -0.01887014 -0.01425880 0.00553687
v -0.01887427 -0.01204388 0.00340598
v -0.01904303 -0.01199148 0.00599279
v -0.01892772 -0.00952562 0.00346269
v -0.01900988 -0.00950928 0.00593564
v -0.01899591 -0.00711816 0.00351586
v -0.01899369 -0.00712275 0.00588274
v -0.01899610 -0.00474855 0.00351642
v -0.01899468 -0.00475066 0.00588208
v -0.01899516 -0.00237444 0.00351500
v -0.01899666 -0.00237546 0.00588348
v -0.01899546 -0.00000017 0.00351493
v -0.01899719 -0.00000146 0.00588356
v -0.01899283 0.00237305 0.00351669
v -0.01899640 0.00237165 0.00588180
v -0.01899564 0.00474609 0.00351607
v -0.01899650 0.00474438 0.00588249
v -0.01905762 0.00713041 0.00349193
v -0.01901817 0.00713905 0.00590705
v -0.01914205 0.00956817 0.00345507
v -0.01903790 0.00960229 0.00594758
v -0.01888269 0.01170197 0.00342346
v -0.01872483 0.01173864 0.00597937
v -0.02026760 0.01430823 0.00451768
v -0.01888902 0.01408778 0.00380537
v -0.01926862 0.01387780 0.00559415
v -0.01871341 0.01517417 0.00488380
v -0.01657126 -0.01519864 0.00469066
v -0.01707038 -0.01425495 0.00370128
v -0.01664639 -0.01417875 0.00569446
v -0.01651406 -0.01199491 0.00342306
v -0.01664819 -0.01193464 0.00597613
v -0.01658884 -0.00950200 0.00348985
v -0.01662788 -0.00949354 0.00590847
v -0.01662485 -0.00712034 0.00351582
v -0.01662205 -0.00712031 0.00588269
v -0.01662753 -0.00474649 0.00350530
v -0.01662378 -0.00475583 0.00589298
v -0.01662299 -0.00236857 0.00348899
v -0.01661591 -0.00240489 0.00590928
v -0.01660262 0.00000495 0.00347922
v -0.01659912 -0.00005559 0.00591922
v -0.01658840 0.00237634 0.00347852
v -0.01659042 0.00230717 0.00591996
v -0.01659651 0.00474047 0.00348142
v -0.01660396 0.00467765 0.00591703
v -0.01663973 0.00711207 0.00348327
v -0.01663750 0.00707802 0.00591571
v -0.01671477 0.00953072 0.00345695
v -0.01664374 0.00954403 0.00594215
v -0.01681617 0.01201109 0.00342117
v -0.01668154 0.01206034 0.00597362
v -0.01631561 0.01423307 0.00372078
v -0.01674687 0.01431198 0.00568203
v -0.01683681 0.01525097 0.00470854
v -0.01435981 -0.01557498 0.00471391
v -0.01439096 -0.01447430 0.00367231
v -0.01416350 -0.01453431 0.00573092
v -0.01416068 -0.01193159 0.00344400
v -0.01427160 -0.01189322 0.00595084
v -0.01423972 -0.00949391 0.00350616
v -0.01425100 -0.00948973 0.00589196
v -0.01426535 -0.00711738 0.00349304
v -0.01424488 -0.00714121 0.00590526
v -0.01425814 -0.00473751 0.00346056
v -0.01421048 -0.00481310 0.00593822
v -0.01420330 -0.00236614 0.00343919
v -0.01415119 -0.00248993 0.00595922
v -0.01413162 0.00000312 0.00342527
v -0.01411046 -0.00015558 0.00597277
v -0.01410731 0.00236251 0.00342630
v -0.01413155 0.00220340 0.00597255
v -0.01411779 0.00471548 0.00344171
v -0.01417418 0.00459113 0.00595669
v -0.01415679 0.00708894 0.00345839
v -0.01421039 0.00700889 0.00593967
v -0.01425718 0.00950258 0.00344544
v -0.01423231 0.00948210 0.00595249
v -0.01437616 0.01196968 0.00342896
v -0.01427213 0.01202115 0.00596879
v -0.01388781 0.01459785 0.00367847
v -0.01414018 0.01452933 0.00571409
v -0.01462939 0.01563794 0.00468454
v -0.01289326 -0.01655557 0.00488068
v -0.01135824 -0.01742256 0.00450049
v -0.01222438 -0.01633106 0.00386093
v -0.01178016 -0.01656554 0.00552490
v -0.01178292 -0.01438594 0.00341325
v -0.01193094 -0.01431572 0.00598049
v -0.01183102 -0.01188647 0.00347300
v -0.01189159 -0.01185928 0.00592481
v -0.01189533 -0.00949098 0.00349386
v -0.01186807 -0.00950919 0.00590470
v -0.01190433 -0.00707788 0.00345390
v -0.01183438 -0.00716913 0.00594910
v -0.01170858 -0.00481552 0.00369574
v -0.01173062 -0.00460852 0.00571155
v -0.01199245 -0.00240267 0.00371975
v -0.01189683 -0.00199411 0.00567533
v -0.01188875 -0.00006834 0.00371562
v -0.01188936 0.00035075 0.00568276
v -0.01187534 0.00228688 0.00372316
v -0.01195685 0.00271795 0.00567859
v -0.01165142 0.00487692 0.00368808
v -0.01160384 0.00511866 0.00570306
v -0.01205736 0.00739162 0.00343997
v -0.01213858 0.00728304 0.00595303
v -0.01180970 0.00944040 0.00343052
v -0.01183485 0.00937970 0.00596384
v -0.01194404 0.01190879 0.00342771
v -0.01187808 0.01192710 0.00597426
v -0.01174563 0.01402955 0.00342694
v -0.01160654 0.01408744 0.00597715
v -0.01315487 0.01662251 0.00451795
v -0.01177982 0.01642366 0.00381792
v -0.01215810 0.01622331 0.00558970
v -0.01160434 0.01750261 0.00489230
v -0.00965722 -0.01796955 0.00469797
v -0.00966089 -0.01686476 0.00364934
v -0.00945680 -0.01694198 0.00574880
v -0.00941322 -0.01433210 0.00343226
v -0.00953557 -0.01427416 0.00596609
v -0.00950052 -0.01186826 0.00349791
v -0.00949956 -0.01186659 0.00590037
v -0.00955166 -0.00943063 0.00344804
v -0.00947069 -0.00951159 0.00595502
v -0.00927460 -0.00695362 0.00367611
v -0.00952440 -0.00698617 0.00573687
v -0.00930254 -0.00594218 0.00470783
v -0.01068563 -0.00463063 0.00470811
v -0.01097848 -0.00249290 0.00469312
v -0.01090814 -0.00016975 0.00469918
v -0.01094366 0.00218309 0.00470522
v -0.01057699 0.00438750 0.00469452
v -0.00913305 0.00577570 0.00469699
v -0.00986955 0.00682922 0.00367846
v -0.00959229 0.00683630 0.00570937
v -0.00935384 0.00938509 0.00342082
v -0.00942784 0.00930204 0.00596935
v -0.00950013 0.01184598 0.00341458
v -0.00949541 0.01183346 0.00598399
v -0.00964977 0.01433500 0.00342429
v -0.00955028 0.01438206 0.00597513
v -0.00915902 0.01700968 0.00367221
v -0.00939520 0.01692613 0.00572634
v -0.00989333 0.01805785 0.00469991
v -0.00815814 -0.01900430 0.00489563
v -0.00656241 -0.01990722 0.00451338
v -0.00748092 -0.01877537 0.00386626
v -0.00699946 -0.01905036 0.00554335
v -0.00700106 -0.01681886 0.00340408
v -0.00717712 -0.01677205 0.00599991
v -0.00704797 -0.01428541 0.00346078
v -0.00713796 -0.01426723 0.00593776
v -0.00716466 -0.01182832 0.00345457
v -0.00709102 -0.01187959 0.00594392
v -0.00715171 -0.00933451 0.00340254
v -0.00702983 -0.00945336 0.00600477
v -0.00666830 -0.00740249 0.00385907
v -0.00716486 -0.00722620 0.00555533
v -0.00788433 -0.00453602 -0.03804153
v -0.00718107 -0.00572842 -0.03825666
v -0.00670482 -0.00466661 -0.03878323
v -0.00687022 -0.00525870 -0.03729984
v -0.00757305 -0.00635058 0.00453570
v -0.00694608 -0.00393438 -0.03782641
v -0.00788433 0.00453602 -0.03804153
v -0.00694608 0.00393438 -0.03825666
v -0.00687022 0.00525870 -0.03878323
v -0.00670482 0.00466661 -0.03729984
v -0.00718107 0.00572842 -0.03782641
v -0.00738049 0.00623552 0.00486499
v -0.00721748 0.00732240 0.00379829
v -0.00680928 0.00747184 0.00558926
v -0.00724087 0.00966874 0.00341688
v -0.00734531 0.00959083 0.00597619
v -0.00702984 0.01178225 0.00341678
v -0.00707432 0.01173554 0.00598168
v -0.00716331 0.01427293 0.00340896
v -0.00711729 0.01428025 0.00598990
v -0.00694308 0.01641240 0.00340705
v -0.00681407 0.01644437 0.00599062
v -0.00840741 0.01908000 0.00450817
v -0.00700681 0.01887129 0.00380272
v -0.00739634 0.01864562 0.00558747
v -0.00683291 0.01995914 0.00488384
v -0.00465397 -0.02003420 0.00469940
v -0.00516633 -0.01905419 0.00370133
v -0.00473821 -0.01903051 0.00570568
v -0.00458946 -0.01679151 0.00341480
v -0.00476618 -0.01676748 0.00598917
v -0.00470321 -0.01426481 0.00343815
v -0.00473290 -0.01429628 0.00595957
v -0.00478684 -0.01178800 0.00340793
v -0.00466156 -0.01185550 0.00598674
v -0.00457975 -0.00954577 0.00377813
v -0.00484304 -0.00921268 0.00561723
v -0.00595827 -0.00698719 -0.03786367
v -0.00415382 -0.00794598 -0.03821940
v -0.00526333 -0.00666579 -0.03894832
v -0.00454642 -0.00701782 -0.03713475
v -0.00495586 -0.00821347 0.00453007
v -0.00600624 -0.00717423 0.00488521
v -0.00423462 -0.00520664 -0.03894832
v -0.00495153 -0.00485462 -0.03713475
v -0.00534413 -0.00392646 -0.03821940
v -0.00534413 0.00392646 -0.03786367
v -0.00495153 0.00485462 -0.03894832
v -0.00423462 0.00520664 -0.03713475
v -0.00595827 0.00698719 -0.03821940
v -0.00454642 0.00701782 -0.03894832
v -0.00526333 0.00666579 -0.03713475
v -0.00582254 0.00706309 0.00451977
v -0.00415382 0.00794598 -0.03786367
v -0.00478559 0.00807982 0.00486585
v -0.00488162 0.00932297 0.00375512
v -0.00464880 0.00960983 0.00564569
v -0.00490228 0.01207342 0.00342816
v -0.00497950 0.01202326 0.00597465
v -0.00469442 0.01422766 0.00340355
v -0.00469023 0.01421138 0.00599874
v -0.00486476 0.01677756 0.00338304
v -0.00475014 0.01678264 0.00601070
v -0.00440441 0.01905796 0.00370010
v -0.00483151 0.01908703 0.00569308
v -0.00494327 0.02006868 0.00470424
v -0.00222367 -0.02001704 0.00471361
v -0.00275113 -0.01904656 0.00372486
v -0.00231448 -0.01902904 0.00568827
v -0.00222115 -0.01678372 0.00340146
v -0.00237701 -0.01679311 0.00599781
v -0.00236341 -0.01425334 0.00340264
v -0.00234079 -0.01428423 0.00599190
v -0.00227527 -0.01202250 0.00380084
v -0.00250673 -0.01168268 0.00559059
v -0.00261504 -0.01075046 0.00451088
v -0.00360160 -0.00964603 0.00485801
v -0.00255187 -0.00793806 -0.03782641
v -0.00279313 -0.00720583 -0.03878323
v -0.00262773 -0.00661373 -0.03729984
v -0.00231688 -0.00614401 -0.03825666
v -0.00353968 -0.00488525 -0.03786367
v -0.00353968 0.00488525 -0.03821940
v -0.00231688 0.00614401 -0.03782641
v -0.00262773 0.00661373 -0.03878323
v -0.00279313 0.00720583 -0.03729984
v -0.00255187 0.00793806 -0.03825666
v -0.00343059 0.00949584 0.00454100
v -0.00242539 0.01060926 0.00488074
v -0.00253763 0.01181094 0.00376747
v -0.00232352 0.01212171 0.00563397
v -0.00263035 0.01458096 0.00340008
v -0.00263993 0.01457049 0.00600225
v -0.00245448 0.01678365 0.00337392
v -0.00235064 0.01679088 0.00601941
v -0.00200146 0.01904531 0.00369939
v -0.00244174 0.01906670 0.00568659
v -0.00255288 0.02003085 0.00468952
v 0.00017521 -0.02001349 0.00469897
v -0.00035104 -0.01903973 0.00371112
v 0.00006259 -0.01903988 0.00568771
v 0.00010726 -0.01677123 0.00338020
v -0.00001645 -0.01678252 0.00601703
v 0.00021600 -0.01389164 0.00362774
v 0.00007831 -0.01390389 0.00576843
v -0.00010915 -0.01268525 0.00469445
v -0.00132906 -0.01213341 0.00487023
v -0.00031106 -0.00949795 -0.03804153
v 0.00000000 -0.00980901 -0.03804153
v 0.00000000 -0.00949795 -0.03835260
v 0.00000000 -0.00949795 -0.03773047
v -0.00161362 -0.00733641 -0.03804153
v 0.00000000 -0.00918689 -0.03804153
v -0.00161362 0.00733641 -0.03804153
v 0.00000000 0.00949795 -0.03835260
v -0.00031106 0.00949795 -0.03804153
v 0.00000000 0.00918689 -0.03804153
v 0.00000000 0.00949795 -0.03773047
v 0.00000000 0.00980901 -0.03804153
v -0.00111891 0.01204217 0.00452246
v 0.00010915 0.01268525 0.00469445
v -0.00021600 0.01389164 0.00362774
v -0.00007831 0.01390389 0.00576843
v -0.00010726 0.01677123 0.00338020
v 0.00001645 0.01678252 0.00601703
v 0.00035104 0.01903973 0.00371112
v -0.00006259 0.01903988 0.00568771
v -0.00017521 0.02001349 0.00469897
v 0.00255288 -0.02003085 0.00468952
v 0.00200146 -0.01904531 0.00369939
v 0.00244174 -0.01906670 0.00568659
v 0.00245448 -0.01678365 0.00337392
v 0.00235064 -0.01679088 0.00601941
v 0.00263035 -0.01458096 0.00340008
v 0.00263993 -0.01457049 0.00600225
v 0.00111891 -0.01204217 0.00452246
v 0.00253763 -0.01181094 0.00376747
v 0.00232352 -0.01212171 0.00563397
v 0.00031106 -0.00949795 -0.03804153
v 0.00242539 -0.01060926 0.00488074
v 0.00262773 -0.00661373 -0.03878323
v 0.00161362 -0.00733641 -0.03804153
v 0.00255187 -0.00793806 -0.03825666
v 0.00279313 -0.00720583 -0.03729984
v 0.00231688 -0.00614401 -0.03782641
v 0.00161362 0.00733641 -0.03804153
v 0.00231688 0.00614401 -0.03825666
v 0.00279313 0.00720583 -0.03878323
v 0.00262773 0.00661373 -0.03729984
v 0.00031106 0.00949795 -0.03804153
v 0.00255187 0.00793806 -0.03782641
v 0.00132906 0.01213341 0.00487023
v 0.00261504 0.01075046 0.00451088
v 0.00227527 0.01202250 0.00380084
v 0.00250673 0.01168268 0.00559059
v 0.00236341 0.01425334 0.00340264
v 0.00234079 0.01428423 0.00599190
v 0.00222115 0.01678372 0.00340146
v 0.00237701 0.01679311 0.00599781
v 0.00275113 0.01904656 0.00372486
v 0.00231448 0.01902904 0.00568827
v 0.00222367 0.02001704 0.00471361
v 0.00494327 -0.02006868 0.00470424
v 0.00440441 -0.01905796 0.00370010
v 0.00483151 -0.01908703 0.00569308
v 0.00486476 -0.01677756 0.00338304
v 0.00475014 -0.01678264 0.00601070
v 0.00469442 -0.01422766 0.00340355
v 0.00469023 -0.01421138 0.00599874
v 0.00490228 -0.01207342 0.00342816
v 0.00497950 -0.01202326 0.00597465
v 0.00343059 -0.00949584 0.00454100
v 0.00488162 -0.00932297 0.00375512
v 0.00464880 -0.00960983 0.00564569
v 0.00415382 -0.00794598 -0.03786367
v 0.00454642 -0.00701782 -0.03894832
v 0.00526333 -0.00666579 -0.03713475
v 0.00478559 -0.00807982 0.00486585
v 0.00353968 -0.00488525 -0.03821940
v 0.00495153 -0.00485462 -0.03894832
v 0.00423462 -0.00520664 -0.03713475
v 0.00534413 -0.00392646 -0.03786367
v 0.00353968 0.00488525 -0.03786367
v 0.00534413 0.00392646 -0.03821940
v 0.00423462 0.00520664 -0.03894832
v 0.00495153 0.00485462 -0.03713475
v 0.00526333 0.00666579 -0.03894832
v 0.00454642 0.00701782 -0.03713475
v 0.00415382 0.00794598 -0.03821940
v 0.00360160 0.00964603 0.00485801
v 0.00495586 0.00821347 0.00453007
v 0.00457975 0.00954577 0.00377813
v 0.00484304 0.00921268 0.00561723
v 0.00478684 0.01178800 0.00340793
v 0.00466156 0.01185550 0.00598674
v 0.00470321 0.01426481 0.00343815
v 0.00473290 0.01429628 0.00595957
v 0.00458946 0.01679151 0.00341480
v 0.00476618 0.01676748 0.00598917
v 0.00516633 0.01905419 0.00370133
v 0.00473821 0.01903051 0.00570568
v 0.00465397 0.02003420 0.00469940
v 0.00683291 -0.01995914 0.00488384
v 0.00700681 -0.01887129 0.00380272
v 0.00739634 -0.01864562 0.00558747
v 0.00694308 -0.01641240 0.00340705
v 0.00681407 -0.01644437 0.00599062
v 0.00716331 -0.01427293 0.00340896
v 0.00711729 -0.01428025 0.00598990
v 0.00702984 -0.01178225 0.00341678
v 0.00707432 -0.01173554 0.00598168
v 0.00724087 -0.00966874 0.00341688
v 0.00734531 -0.00959083 0.00597619
v 0.00595827 -0.00698719 -0.03821940
v 0.00582254 -0.00706309 0.00451977
v 0.00721748 -0.00732240 0.00379829
v 0.00680928 -0.00747184 0.00558926
v 0.00718107 -0.00572842 -0.03782641
v 0.00687022 -0.00525870 -0.03878323
v 0.00670482 -0.00466661 -0.03729984
v 0.00738049 -0.00623552 0.00486499
v 0.00694608 -0.00393438 -0.03825666
v 0.00694608 0.00393438 -0.03782641
v 0.00670482 0.00466661 -0.03878323
v 0.00687022 0.00525870 -0.03729984
v 0.00718107 0.00572842 -0.03825666
v 0.00595827 0.00698719 -0.03786367
v 0.00600624 0.00717423 0.00488521
v 0.00757305 0.00635058 0.00453570
v 0.00666830 0.00740249 0.00385907
v 0.00716486 0.00722620 0.00555533
v 0.00715171 0.00933451 0.00340254
v 0.00702983 0.00945336 0.00600477
v 0.00716466 0.01182832 0.00345457
v 0.00709102 0.01187959 0.00594392
v 0.00704797 0.01428541 0.00346078
v 0.00713796 0.01426723 0.00593776
v 0.00700106 0.01681886 0.00340408
v 0.00717712 0.01677205 0.00599991
v 0.00748092 0.01877537 0.00386626
v 0.00699946 0.01905036 0.00554335
v 0.00656241 0.01990722 0.00451338
v 0.00840741 -0.01908000 0.00450817
v 0.00989333 -0.01805785 0.00469991
v 0.00915902 -0.01700968 0.00367221
v 0.00939520 -0.01692613 0.00572634
v 0.00964977 -0.01433500 0.00342429
v 0.00955028 -0.01438206 0.00597513
v 0.00950013 -0.01184598 0.00341458
v 0.00949541 -0.01183346 0.00598399
v 0.00935384 -0.00938509 0.00342082
v 0.00942784 -0.00930204 0.00596935
v 0.00986955 -0.00682922 0.00367846
v 0.00959229 -0.00683630 0.00570937
v 0.00788433 -0.00453602 -0.03804153
v 0.00913305 -0.00577570 0.00469699
v 0.00788433 0.00453602 -0.03804153
v 0.00930254 0.00594218 0.00470783
v 0.00927460 0.00695362 0.00367611
v 0.00952440 0.00698617 0.00573687
v 0.00955166 0.00943063 0.00344804
v 0.00947069 0.00951159 0.00595502
v 0.00950052 0.01186826 0.00349791
v 0.00949956 0.01186659 0.00590037
v 0.00941322 0.01433210 0.00343226
v 0.00953557 0.01427416 0.00596609
v 0.00966089 0.01686476 0.00364934
v 0.00945680 0.01694198 0.00574880
v 0.00965722 0.01796955 0.00469797
v 0.00815814 0.01900430 0.00489563
v 0.01160434 -0.01750261 0.00489230
v 0.01177982 -0.01642366 0.00381792
v 0.01215810 -0.01622331 0.00558970
v 0.01174563 -0.01402955 0.00342694
v 0.01160654 -0.01408744 0.00597715
v 0.01194404 -0.01190879 0.00342771
v 0.01187808 -0.01192710 0.00597426
v 0.01180970 -0.00944040 0.00343052
v 0.01183485 -0.00937970 0.00596384
v 0.01205736 -0.00739162 0.00343997
v 0.01213858 -0.00728304 0.00595303
v 0.01057699 -0.00438750 0.00469452
v 0.01165142 -0.00487692 0.00368808
v 0.01160384 -0.00511866 0.00570306
v 0.01094366 -0.00218309 0.00470522
v 0.01187534 -0.00228688 0.00372316
v 0.01195685 -0.00271795 0.00567859
v 0.01090814 0.00016975 0.00469918
v 0.01188875 0.00006834 0.00371562
v 0.01188936 -0.00035075 0.00568276
v 0.01097848 0.00249290 0.00469312
v 0.01199245 0.00240267 0.00371975
v 0.01189683 0.00199411 0.00567533
v 0.01068563 0.00463063 0.00470811
v 0.01170858 0.00481552 0.00369574
v 0.01173062 0.00460852 0.00571155
v 0.01190433 0.00707788 0.00345390
v 0.01183438 0.00716913 0.00594910
v 0.01189533 0.00949098 0.00349386
v 0.01186807 0.00950919 0.00590470
v 0.01183102 0.01188647 0.00347300
v 0.01189159 0.01185928 0.00592481
v 0.01178292 0.01438594 0.00341325
v 0.01193094 0.01431572 0.00598049
v 0.01222438 0.01633106 0.00386093
v 0.01178016 0.01656554 0.00552490
v 0.01135824 0.01742256 0.00450049
v 0.01315487 -0.01662251 0.00451795
v 0.01462939 -0.01563794 0.00468454
v 0.01388781 -0.01459785 0.00367847
v 0.01414018 -0.01452933 0.00571409
v 0.01437616 -0.01196968 0.00342896
v 0.01427213 -0.01202115 0.00596879
v 0.01425718 -0.00950258 0.00344544
v 0.01423231 -0.00948210 0.00595249
v 0.01415679 -0.00708894 0.00345839
v 0.01421039 -0.00700889 0.00593967
v 0.01411779 -0.00471548 0.00344171
v 0.01417418 -0.00459113 0.00595669
v 0.01410731 -0.00236251 0.00342630
v 0.01413155 -0.00220340 0.00597255
v 0.01413162 -0.00000312 0.00342527
v 0.01411046 0.00015558 0.00597277
v 0.01420330 0.00236614 0.00343919
v 0.01415119 0.00248993 0.00595922
v 0.01425814 0.00473751 0.00346056
v 0.01421048 0.00481310 0.00593822
v 0.01426535 0.00711738 0.00349304
v 0.01424488 0.00714121 0.00590526
v 0.01423972 0.00949391 0.00350616
v 0.01425100 0.00948973 0.00589196
v 0.01416068 0.01193159 0.00344400
v 0.01427160 0.01189322 0.00595084
v 0.01439096 0.01447430 0.00367231
v 0.01416350 0.01453431 0.00573092
v 0.01435981 0.01557498 0.00471391
v 0.01289326 0.01655557 0.00488068
v 0.01683681 -0.01525097 0.00470854
v 0.01631561 -0.01423307 0.00372078
v 0.01674687 -0.01431198 0.00568203
v 0.01681617 -0.01201109 0.00342117
v 0.01668154 -0.01206034 0.00597362
v 0.01671477 -0.00953072 0.00345695
v 0.01664374 -0.00954403 0.00594215
v 0.01663973 -0.00711207 0.00348327
v 0.01663750 -0.00707802 0.00591571
v 0.01659651 -0.00474047 0.00348142
v 0.01660396 -0.00467765 0.00591703
v 0.01658840 -0.00237634 0.00347852
v 0.01659042 -0.00230717 0.00591996
v 0.01660262 -0.00000495 0.00347922
v 0.01659912 0.00005559 0.00591922
v 0.01662299 0.00236857 0.00348899
v 0.01661591 0.00240489 0.00590928
v 0.01662753 0.00474649 0.00350530
v 0.01662378 0.00475583 0.00589298
v 0.01662485 0.00712034 0.00351582
v 0.01662205 0.00712031 0.00588269
v 0.01658884 0.00950200 0.00348985
v 0.01662788 0.00949354 0.00590847
v 0.01651406 0.01199491 0.00342306
v 0.01664819 0.01193464 0.00597613
v 0.01707038 0.01425495 0.00370128
v 0.01664639 0.01417875 0.00569446
v 0.01657126 0.01519864 0.00469066
v 0.01871341 -0.01517417 0.00488380
v 0.01888902 -0.01408778 0.00380537
v 0.01926862 -0.01387780 0.00559415
v 0.01888269 -0.01170197 0.00342346
v 0.01872483 -0.01173864 0.00597937
v 0.01914205 -0.00956817 0.00345507
v 0.01903790 -0.00960229 0.00594758
v 0.01905762 -0.00713041 0.00349193
v 0.01901817 -0.00713905 0.00590705
v 0.01899564 -0.00474609 0.00351607
v 0.01899650 -0.00474438 0.00588249
v 0.01899283 -0.00237305 0.00351669
v 0.01899640 -0.00237165 0.00588180
v 0.01899546 0.00000017 0.00351493
v 0.01899719 0.00000146 0.00588356
v 0.01899516 0.00237444 0.00351500
v 0.01899666 0.00237546 0.00588348
v 0.01899610 0.00474855 0.00351642
v 0.01899468 0.00475066 0.00588208
v 0.01899591 0.00711816 0.00351586
v 0.01899369 0.00712275 0.00588274
v 0.01892772 0.00952562 0.00346269
v 0.01900988 0.00950928 0.00593564
v 0.01887427 0.01204388 0.00340598
v 0.01904303 0.01199148 0.00599279
v 0.01932552 0.01400684 0.00386020
v 0.01887014 0.01425880 0.00553687
v 0.01844928 0.01512423 0.00451383
v 0.02026760 -0.01430823 0.00451768
v 0.02174248 -0.01327011 0.00468642
v 0.02101036 -0.01224184 0.00367588
v 0.02125588 -0.01215557 0.00571688
v 0.02153429 -0.00960876 0.00343732
v 0.02141822 -0.00966394 0.00596034
v 0.02144743 -0.00716369 0.00347880
v 0.02138847 -0.00717732 0.00591909
v 0.02137547 -0.00475506 0.00351521
v 0.02137547 -0.00475605 0.00588321
v 0.02136335 -0.00237225 0.00351656
v 0.02136640 -0.00237192 0.00588170
v 0.02136399 0.00000093 0.00351505
v 0.02136478 0.00000277 0.00588336
v 0.02136518 0.00237470 0.00351454
v 0.02136521 0.00237797 0.00588395
v 0.02136868 0.00474696 0.00351660
v 0.02136448 0.00475187 0.00588194
v 0.02135715 0.00711737 0.00350729
v 0.02136757 0.00711893 0.00589095
v 0.02126806 0.00956472 0.00344217
v 0.02138756 0.00953385 0.00595269
v 0.02149173 0.01211426 0.00366964
v 0.02128118 0.01219299 0.00573310
v 0.02146932 0.01321241 0.00471170
v 0.01999823 0.01425298 0.00487991
v 0.02395910 -0.01287289 0.00470432
v 0.02343731 -0.01185531 0.00371599
v 0.02388526 -0.01194331 0.00568151
v 0.02395165 -0.00964482 0.00341150
v 0.02383807 -0.00971575 0.00597837
v 0.02386684 -0.00718153 0.00344709
v 0.02380148 -0.00724546 0.00595120
v 0.02380280 -0.00475899 0.00347632
v 0.02379575 -0.00482447 0.00592265
v 0.02377067 -0.00236896 0.00347843
v 0.02377216 -0.00243740 0.00591976
v 0.02376976 0.00000415 0.00347800
v 0.02377059 -0.00006417 0.00592019
v 0.02377216 0.00237771 0.00347867
v 0.02377127 0.00231029 0.00591983
v 0.02377489 0.00474787 0.00348093
v 0.02377014 0.00468100 0.00591793
v 0.02373907 0.00712995 0.00345456
v 0.02377824 0.00705212 0.00594378
v 0.02366980 0.00962967 0.00339175
v 0.02380523 0.00950234 0.00600707
v 0.02423979 0.01189396 0.00368745
v 0.02379823 0.01176937 0.00571438
v 0.02369949 0.01281443 0.00469858
v 0.02588382 -0.01281372 0.00486760
v 0.02605346 -0.01171880 0.00378823
v 0.02650321 -0.01154165 0.00560326
v 0.02605133 -0.00933471 0.00339730
v 0.02595660 -0.00943093 0.00600084
v 0.02635197 -0.00720520 0.00341734
v 0.02630226 -0.00733371 0.00599026
v 0.02630652 -0.00476061 0.00342459
v 0.02628947 -0.00491981 0.00597951
v 0.02626744 -0.00236952 0.00342398
v 0.02626789 -0.00254566 0.00597482
v 0.02626695 0.00000468 0.00342309
v 0.02626786 -0.00017317 0.00597496
v 0.02626989 0.00237757 0.00342480
v 0.02626733 0.00219977 0.00597420
v 0.02626883 0.00474737 0.00342445
v 0.02626845 0.00457116 0.00597387
v 0.02621625 0.00716545 0.00337797
v 0.02629849 0.00698695 0.00601550
v 0.02619871 0.00968557 0.00335113
v 0.02632265 0.00952289 0.00604703
v 0.02666610 0.01162459 0.00383678
v 0.02610248 0.01183435 0.00557357
v 0.02565614 0.01273823 0.00453388
v 0.02750111 -0.01196744 0.00451957
v 0.02858918 -0.01088231 0.00487853
v 0.02816903 -0.00987742 0.00379391
v 0.02837907 -0.00943332 0.00561097
v 0.02860292 -0.00724280 0.00371323
v 0.02856293 -0.00680630 0.00569517
v 0.02855417 -0.00482838 0.00372398
v 0.02853396 -0.00440065 0.00568621
v 0.02852671 -0.00243821 0.00371613
v 0.02852711 -0.00203156 0.00568293
v 0.02852734 -0.00006409 0.00371497
v 0.02852773 0.00034105 0.00568365
v 0.02853001 0.00230764 0.00371718
v 0.02852814 0.00271414 0.00568119
v 0.02852685 0.00468583 0.00370978
v 0.02854499 0.00512126 0.00567556
v 0.02849582 0.00714199 0.00367115
v 0.02856495 0.00758917 0.00571338
v 0.02850043 0.00947870 0.00382402
v 0.02825090 0.01003772 0.00556367
v 0.02846552 0.01071469 0.00451355
v 0.02733127 0.01184648 0.00488560
v 0.02946976 -0.00925271 0.00452837
v 0.02956608 -0.00731750 0.00469957
v 0.02952687 -0.00492356 0.00470852
v 0.02951087 -0.00254607 0.00469936
v 0.02951176 -0.00017358 0.00469940
v 0.02951319 0.00219839 0.00470007
v 0.02951633 0.00459483 0.00468565
v 0.02952440 0.00703755 0.00469075
v 0.02939313 0.00902187 0.00486729
f 3 2 1
f 4 1 2
f 3 1 5
f 3 5 6
f 1 4 7
f 1 7 5
f 6 5 8
f 6 8 9
f 5 7 10
f 5 10 8
f 9 8 11
f 9 11 12
f 8 10 13
f 8 13 11
f 12 11 14
f 12 14 15
f 11 13 16
f 11 16 14
f 15 14 17
f 15 17 18
f 14 16 19
f 14 19 17
f 18 17 20
f 18 20 21
f 17 19 22
f 17 22 20
f 21 20 23
f 21 23 24
f 20 22 25
f 20 25 23
f 24 23 26
f 24 26 27
f 23 25 28
f 23 28 26
f 29 27 26
f 29 26 28
f 32 31 30
f 33 30 31
f 32 30 2
f 3 32 2
f 34 32 3
f 4 2 30
f 33 4 30
f 35 4 33
f 6 34 3
f 6 36 34
f 35 7 4
f 37 7 35
f 9 36 6
f 9 38 36
f 37 10 7
f 39 10 37
f 12 38 9
f 12 40 38
f 39 13 10
f 41 13 39
f 15 40 12
f 15 42 40
f 41 16 13
f 43 16 41
f 18 42 15
f 18 44 42
f 43 19 16
f 45 19 43
f 21 44 18
f 21 46 44
f 45 22 19
f 47 22 45
f 24 46 21
f 24 48 46
f 47 25 22
f 49 25 47
f 27 48 24
f 27 50 48
f 49 28 25
f 51 28 49
f 27 29 52
f 53 27 52
f 50 27 53
f 54 52 29
f 28 54 29
f 51 54 28
f 55 53 52
f 55 52 54
f 57 56 31
f 57 31 32
f 33 31 56
f 33 56 58
f 34 57 32
f 34 59 57
f 58 35 33
f 60 35 58
f 36 59 34
f 36 61 59
f 60 37 35
f 62 37 60
f 38 61 36
f 38 63 61
f 62 39 37
f 64 39 62
f 40 63 38
f 40 65 63
f 64 41 39
f 66 41 64
f 42 65 40
f 42 67 65
f 66 43 41
f 68 43 66
f 44 67 42
f 44 69 67
f 68 45 43
f 70 45 68
f 46 69 44
f 46 71 69
f 70 47 45
f 72 47 70
f 48 71 46
f 48 73 71
f 72 49 47
f 74 49 72
f 50 73 48
f 50 75 73
f 74 51 49
f 76 51 74
f 53 75 50
f 53 77 75
f 76 54 51
f 78 54 76
f 79 77 53
f 79 53 55
f 55 54 78
f 55 78 79
f 81 80 56
f 81 56 57
f 58 56 80
f 58 80 82
f 59 81 57
f 59 83 81
f 82 60 58
f 84 60 82
f 61 83 59
f 61 85 83
f 84 62 60
f 86 62 84
f 63 85 61
f 63 87 85
f 86 64 62
f 88 64 86
f 65 87 63
f 65 89 87
f 88 66 64
f 90 66 88
f 67 89 65
f 67 91 89
f 90 68 66
f 92 68 90
f 69 91 67
f 69 93 91
f 92 70 68
f 94 70 92
f 71 93 69
f 71 95 93
f 94 72 70
f 96 72 94
f 73 95 71
f 73 97 95
f 96 74 72
f 98 74 96
f 75 97 73
f 75 99 97
f 98 76 74
f 100 76 98
f 77 99 75
f 77 101 99
f 100 78 76
f 102 78 100
f 103 101 77
f 103 77 79
f 79 78 102
f 79 102 103
f 106 105 104
f 107 104 105
f 106 104 80
f 81 106 80
f 108 106 81
f 82 80 104
f 107 82 104
f 109 82 107
f 83 108 81
f 83 110 108
f 109 84 82
f 111 84 109
f 85 110 83
f 85 112 110
f 111 86 84
f 113 86 111
f 87 112 85
f 87 114 112
f 113 88 86
f 115 88 113
f 89 114 87
f 89 116 114
f 115 90 88
f 117 90 115
f 91 116 89
f 91 118 116
f 117 92 90
f 119 92 117
f 93 118 91
f 93 120 118
f 119 94 92
f 121 94 119
f 95 120 93
f 95 122 120
f 121 96 94
f 123 96 121
f 97 122 95
f 97 124 122
f 123 98 96
f 125 98 123
f 99 124 97
f 99 126 124
f 125 100 98
f 127 100 125
f 101 126 99
f 101 128 126
f 127 102 100
f 129 102 127
f 101 103 130
f 131 101 130
f 128 101 131
f 132 130 103
f 102 132 103
f 129 132 102
f 133 131 130
f 133 130 132
f 135 134 105
f 135 105 106
f 107 105 134
f 107 134 136
f 108 135 106
f 108 137 135
f 136 109 107
f 138 109 136
f 110 137 108
f 110 139 137
f 138 111 109
f 140 111 138
f 112 139 110
f 112 141 139
f 140 113 111
f 142 113 140
f 114 141 112
f 114 143 141
f 142 115 113
f 144 115 142
f 116 143 114
f 116 145 143
f 144 117 115
f 146 117 144
f 118 145 116
f 118 147 145
f 146 119 117
f 148 119 146
f 120 147 118
f 120 149 147
f 148 121 119
f 150 121 148
f 122 149 120
f 122 151 149
f 150 123 121
f 152 123 150
f 124 151 122
f 124 153 151
f 152 125 123
f 154 125 152
f 126 153 124
f 126 155 153
f 154 127 125
f 156 127 154
f 128 155 126
f 128 157 155
f 156 129 127
f 158 129 156
f 131 157 128
f 131 159 157
f 158 132 129
f 160 132 158
f 161 159 131
f 161 131 133
f 133 132 160
f 133 160 161
f 163 162 134
f 163 134 135
f 136 134 162
f 136 162 164
f 137 163 135
f 137 165 163
f 164 138 136
f 166 138 164
f 139 165 137
f 139 167 165
f 166 140 138
f 168 140 166
f 141 167 139
f 141 169 167
f 168 142 140
f 170 142 168
f 143 169 141
f 143 171 169
f 170 144 142
f 172 144 170
f 145 171 143
f 145 173 171
f 172 146 144
f 174 146 172
f 147 173 145
f 147 175 173
f 174 148 146
f 176 148 174
f 149 175 147
f 149 177 175
f 176 150 148
f 178 150 176
f 151 177 149
f 151 179 177
f 178 152 150
f 180 152 178
f 153 179 151
f 153 181 179
f 180 154 152
f 182 154 180
f 155 181 153
f 155 183 181
f 182 156 154
f 184 156 182
f 157 183 155
f 157 185 183
f 184 158 156
f 186 158 184
f 159 185 157
f 159 187 185
f 186 160 158
f 188 160 186
f 189 187 159
f 189 159 161
f 161 160 188
f 161 188 189
f 192 191 190
f 193 190 191
f 192 190 162
f 163 192 162
f 194 192 163
f 164 162 190
f 193 164 190
f 195 164 193
f 165 194 163
f 165 196 194
f 195 166 164
f 197 166 195
f 167 196 165
f 167 198 196
f 197 168 166
f 199 168 197
f 169 198 167
f 169 200 198
f 199 170 168
f 201 170 199
f 171 200 169
f 171 202 200
f 201 172 170
f 203 172 201
f 173 202 171
f 173 204 202
f 203 174 172
f 205 174 203
f 175 204 173
f 175 206 204
f 205 176 174
f 207 176 205
f 177 206 175
f 177 208 206
f 207 178 176
f 209 178 207
f 179 208 177
f 179 210 208
f 209 180 178
f 211 180 209
f 181 210 179
f 181 212 210
f 211 182 180
f 213 182 211
f 183 212 181
f 183 214 212
f 213 184 182
f 215 184 213
f 185 214 183
f 185 216 214
f 215 186 184
f 217 186 215
f 187 216 185
f 187 218 216
f 217 188 186
f 219 188 217
f 187 189 220
f 221 187 220
f 218 187 221
f 222 220 189
f 188 222 189
f 219 222 188
f 223 221 220
f 223 220 222
f 225 224 191
f 225 191 192
f 193 191 224
f 193 224 226
f 194 225 192
f 194 227 225
f 226 195 193
f 228 195 226
f 196 227 194
f 196 229 227
f 228 197 195
f 230 197 228
f 198 229 196
f 198 231 229
f 230 199 197
f 232 199 230
f 200 231 198
f 200 233 231
f 232 201 199
f 234 201 232
f 202 236 235
f 233 202 235
f 200 202 233
f 234 235 236
f 203 234 236
f 201 234 203
f 204 237 236
f 204 236 202
f 237 205 203
f 237 203 236
f 206 238 237
f 206 237 204
f 238 207 205
f 238 205 237
f 208 239 238
f 208 238 206
f 239 209 207
f 239 207 238
f 210 240 239
f 210 239 208
f 240 211 209
f 240 209 239
f 242 241 240
f 210 242 240
f 212 242 210
f 211 240 241
f 243 211 241
f 213 211 243
f 214 242 212
f 214 244 242
f 243 215 213
f 245 215 243
f 216 244 214
f 216 246 244
f 245 217 215
f 247 217 245
f 218 246 216
f 218 248 246
f 247 219 217
f 249 219 247
f 221 248 218
f 221 250 248
f 249 222 219
f 251 222 249
f 252 250 221
f 252 221 223
f 223 222 251
f 223 251 252
f 255 254 253
f 256 253 254
f 255 253 224
f 225 255 224
f 257 255 225
f 226 224 253
f 256 226 253
f 258 226 256
f 227 257 225
f 227 259 257
f 258 228 226
f 260 228 258
f 229 259 227
f 229 261 259
f 260 230 228
f 262 230 260
f 231 261 229
f 231 263 261
f 262 232 230
f 264 232 262
f 233 263 231
f 233 265 263
f 264 234 232
f 266 234 264
f 269 268 267
f 270 267 268
f 271 265 233
f 271 233 235
f 235 234 266
f 235 266 271
f 272 269 267
f 272 267 270
f 275 274 273
f 276 273 274
f 277 275 273
f 277 273 276
f 279 278 241
f 279 241 242
f 243 241 278
f 243 278 280
f 244 279 242
f 244 281 279
f 280 245 243
f 282 245 280
f 246 281 244
f 246 283 281
f 282 247 245
f 284 247 282
f 248 283 246
f 248 285 283
f 284 249 247
f 286 249 284
f 250 285 248
f 250 287 285
f 286 251 249
f 288 251 286
f 250 252 289
f 290 250 289
f 287 250 290
f 291 289 252
f 251 291 252
f 288 291 251
f 292 290 289
f 292 289 291
f 294 293 254
f 294 254 255
f 256 254 293
f 256 293 295
f 257 294 255
f 257 296 294
f 295 258 256
f 297 258 295
f 259 296 257
f 259 298 296
f 297 260 258
f 299 260 297
f 261 298 259
f 261 300 298
f 299 262 260
f 301 262 299
f 263 300 261
f 263 302 300
f 301 264 262
f 303 264 301
f 306 305 304
f 307 304 305
f 265 309 308
f 302 265 308
f 263 265 302
f 303 308 309
f 266 303 309
f 264 303 266
f 306 304 268
f 269 306 268
f 310 306 269
f 270 268 304
f 307 270 304
f 311 270 307
f 271 309 265
f 309 271 266
f 312 310 269
f 312 269 272
f 272 270 311
f 272 311 312
f 314 313 274
f 314 274 275
f 276 274 313
f 276 313 315
f 275 277 316
f 317 275 316
f 314 275 317
f 318 316 277
f 276 318 277
f 315 318 276
f 279 319 278
f 319 280 278
f 320 317 316
f 320 316 318
f 322 321 319
f 279 322 319
f 281 322 279
f 280 319 321
f 323 280 321
f 282 280 323
f 283 322 281
f 283 324 322
f 323 284 282
f 325 284 323
f 285 324 283
f 285 326 324
f 325 286 284
f 327 286 325
f 287 326 285
f 287 328 326
f 327 288 286
f 329 288 327
f 290 328 287
f 290 330 328
f 329 291 288
f 331 291 329
f 332 330 290
f 332 290 292
f 292 291 331
f 292 331 332
f 334 333 293
f 334 293 294
f 295 293 333
f 295 333 335
f 296 334 294
f 296 336 334
f 335 297 295
f 337 297 335
f 298 336 296
f 298 338 336
f 337 299 297
f 339 299 337
f 300 338 298
f 300 340 338
f 339 301 299
f 341 301 339
f 302 343 342
f 340 302 342
f 300 302 340
f 341 342 343
f 303 341 343
f 301 341 303
f 345 344 305
f 345 305 306
f 307 305 344
f 307 344 346
f 308 343 302
f 343 308 303
f 310 348 347
f 345 310 347
f 306 310 345
f 346 347 348
f 311 346 348
f 307 346 311
f 312 348 310
f 348 312 311
f 314 349 313
f 349 315 313
f 351 350 349
f 314 351 349
f 317 351 314
f 315 349 350
f 352 315 350
f 318 315 352
f 353 351 317
f 353 317 320
f 320 318 352
f 320 352 353
f 322 354 321
f 354 323 321
f 356 355 354
f 322 356 354
f 324 356 322
f 323 354 355
f 357 323 355
f 325 323 357
f 326 356 324
f 326 358 356
f 357 327 325
f 359 327 357
f 328 358 326
f 328 360 358
f 359 329 327
f 361 329 359
f 330 360 328
f 330 362 360
f 361 331 329
f 363 331 361
f 364 362 330
f 364 330 332
f 332 331 363
f 332 363 364
f 366 365 333
f 366 333 334
f 335 333 365
f 335 365 367
f 336 366 334
f 336 368 366
f 367 337 335
f 369 337 367
f 338 368 336
f 338 370 368
f 369 339 337
f 371 339 369
f 340 373 372
f 370 340 372
f 338 340 370
f 371 372 373
f 341 371 373
f 339 371 341
f 376 375 374
f 377 374 375
f 342 373 340
f 373 342 341
f 344 345 378
f 374 379 376
f 374 377 379
f 344 378 346
f 347 378 345
f 378 347 346
f 351 380 350
f 380 352 350
f 380 351 353
f 383 382 381
f 353 352 380
f 382 383 384
f 385 381 382
f 385 382 384
f 356 386 355
f 386 357 355
f 388 387 386
f 356 388 386
f 358 388 356
f 357 386 387
f 389 357 387
f 359 357 389
f 360 388 358
f 360 390 388
f 389 361 359
f 391 361 389
f 362 390 360
f 362 392 390
f 391 363 361
f 393 363 391
f 394 392 362
f 394 362 364
f 364 363 393
f 364 393 394
f 396 395 365
f 396 365 366
f 367 365 395
f 367 395 397
f 368 396 366
f 368 398 396
f 397 369 367
f 399 369 397
f 370 398 368
f 370 400 398
f 399 371 369
f 401 371 399
f 370 372 402
f 403 370 402
f 400 370 403
f 404 402 372
f 371 404 372
f 401 404 371
f 376 405 375
f 405 377 375
f 406 403 402
f 406 402 404
f 405 376 379
f 409 408 407
f 379 377 405
f 408 409 410
f 411 407 408
f 411 408 410
f 414 413 412
f 415 412 413
f 383 381 416
f 412 417 414
f 412 415 417
f 383 416 384
f 385 416 381
f 416 385 384
f 420 419 418
f 421 418 419
f 420 418 387
f 388 420 387
f 422 420 388
f 389 387 418
f 421 389 418
f 423 389 421
f 390 422 388
f 390 424 422
f 423 391 389
f 425 391 423
f 392 424 390
f 392 426 424
f 425 393 391
f 427 393 425
f 428 426 392
f 428 392 394
f 394 393 427
f 394 427 428
f 430 429 395
f 430 395 396
f 397 395 429
f 397 429 431
f 398 430 396
f 398 432 430
f 431 399 397
f 433 399 431
f 400 432 398
f 400 434 432
f 433 401 399
f 435 401 433
f 403 434 400
f 403 436 434
f 435 404 401
f 437 404 435
f 403 406 438
f 439 403 438
f 436 403 439
f 440 438 406
f 404 440 406
f 437 440 404
f 442 441 409
f 442 409 407
f 410 409 441
f 410 441 443
f 444 439 438
f 444 438 440
f 407 411 445
f 446 407 445
f 442 407 446
f 447 445 411
f 410 447 411
f 443 447 410
f 448 446 445
f 448 445 447
f 451 450 449
f 452 449 450
f 451 449 413
f 414 451 413
f 453 451 414
f 415 413 449
f 452 415 449
f 454 415 452
f 455 453 414
f 455 414 417
f 417 415 454
f 417 454 455
f 458 457 456
f 459 456 457
f 458 456 419
f 420 458 419
f 460 458 420
f 421 419 456
f 459 421 456
f 461 421 459
f 422 460 420
f 422 462 460
f 461 423 421
f 463 423 461
f 424 462 422
f 424 464 462
f 463 425 423
f 465 425 463
f 426 464 424
f 426 466 464
f 465 427 425
f 467 427 465
f 468 466 426
f 468 426 428
f 428 427 467
f 428 467 468
f 470 469 429
f 470 429 430
f 431 429 469
f 431 469 471
f 432 470 430
f 432 472 470
f 471 433 431
f 473 433 471
f 434 472 432
f 434 474 472
f 473 435 433
f 475 435 473
f 436 474 434
f 436 476 474
f 475 437 435
f 477 437 475
f 439 476 436
f 439 478 476
f 477 440 437
f 479 440 477
f 442 480 441
f 480 443 441
f 439 444 481
f 482 439 481
f 478 439 482
f 483 481 444
f 440 483 444
f 479 483 440
f 485 484 480
f 442 485 480
f 446 485 442
f 443 480 484
f 486 443 484
f 447 443 486
f 487 482 481
f 487 481 483
f 488 485 446
f 488 446 448
f 448 447 486
f 448 486 488
f 490 489 450
f 490 450 451
f 452 450 489
f 452 489 491
f 453 493 492
f 490 453 492
f 451 453 490
f 491 492 493
f 454 491 493
f 452 491 454
f 496 495 494
f 497 494 495
f 455 493 453
f 493 455 454
f 496 494 457
f 458 496 457
f 498 496 458
f 459 457 494
f 497 459 494
f 499 459 497
f 460 498 458
f 460 500 498
f 499 461 459
f 501 461 499
f 462 500 460
f 462 502 500
f 501 463 461
f 503 463 501
f 464 502 462
f 464 504 502
f 503 465 463
f 505 465 503
f 466 504 464
f 466 506 504
f 505 467 465
f 507 467 505
f 508 506 466
f 508 466 468
f 468 467 507
f 468 507 508
f 470 509 469
f 509 471 469
f 511 510 509
f 470 511 509
f 472 511 470
f 471 509 510
f 512 471 510
f 473 471 512
f 474 511 472
f 474 513 511
f 512 475 473
f 514 475 512
f 476 513 474
f 476 515 513
f 514 477 475
f 516 477 514
f 478 515 476
f 478 517 515
f 516 479 477
f 518 479 516
f 482 517 478
f 482 519 517
f 518 483 479
f 520 483 518
f 485 521 484
f 521 486 484
f 522 519 482
f 522 482 487
f 487 483 520
f 487 520 522
f 488 521 485
f 521 488 486
f 490 523 489
f 523 491 489
f 492 523 490
f 523 492 491
f 525 524 495
f 525 495 496
f 497 495 524
f 497 524 526
f 498 525 496
f 498 527 525
f 526 499 497
f 528 499 526
f 500 527 498
f 500 529 527
f 528 501 499
f 530 501 528
f 502 529 500
f 502 531 529
f 530 503 501
f 532 503 530
f 504 531 502
f 504 533 531
f 532 505 503
f 534 505 532
f 506 536 535
f 533 506 535
f 504 506 533
f 534 535 536
f 507 534 536
f 505 534 507
f 508 536 506
f 536 508 507
f 538 537 510
f 538 510 511
f 512 510 537
f 512 537 539
f 513 538 511
f 513 540 538
f 539 514 512
f 541 514 539
f 515 540 513
f 515 542 540
f 541 516 514
f 543 516 541
f 517 542 515
f 517 544 542
f 543 518 516
f 545 518 543
f 519 544 517
f 519 546 544
f 545 520 518
f 547 520 545
f 519 522 548
f 549 519 548
f 546 519 549
f 550 548 522
f 520 550 522
f 547 550 520
f 549 548 551
f 549 551 552
f 548 550 553
f 548 553 551
f 552 551 554
f 552 554 555
f 551 553 556
f 551 556 554
f 555 554 557
f 555 557 558
f 554 556 559
f 554 559 557
f 558 557 560
f 558 560 561
f 557 559 562
f 557 562 560
f 561 560 524
f 525 561 524
f 563 561 525
f 526 524 560
f 562 526 560
f 564 526 562
f 527 563 525
f 527 565 563
f 564 528 526
f 566 528 564
f 529 565 527
f 529 567 565
f 566 530 528
f 568 530 566
f 531 567 529
f 531 569 567
f 568 532 530
f 570 532 568
f 533 569 531
f 533 571 569
f 570 534 532
f 572 534 570
f 573 571 533
f 573 533 535
f 535 534 572
f 535 572 573
f 538 574 537
f 574 539 537
f 576 575 574
f 538 576 574
f 540 576 538
f 539 574 575
f 577 539 575
f 541 539 577
f 542 576 540
f 542 578 576
f 577 543 541
f 579 543 577
f 544 578 542
f 544 580 578
f 579 545 543
f 581 545 579
f 546 580 544
f 546 582 580
f 581 547 545
f 583 547 581
f 549 582 546
f 549 584 582
f 583 550 547
f 585 550 583
f 552 584 549
f 552 586 584
f 585 553 550
f 587 553 585
f 555 586 552
f 555 588 586
f 587 556 553
f 589 556 587
f 558 588 555
f 558 590 588
f 589 559 556
f 591 559 589
f 561 590 558
f 561 592 590
f 591 562 559
f 593 562 591
f 563 592 561
f 563 594 592
f 593 564 562
f 595 564 593
f 565 594 563
f 565 596 594
f 595 566 564
f 597 566 595
f 567 596 565
f 567 598 596
f 597 568 566
f 599 568 597
f 569 598 567
f 569 600 598
f 599 570 568
f 601 570 599
f 571 603 602
f 600 571 602
f 569 571 600
f 601 602 603
f 572 601 603
f 570 601 572
f 573 603 571
f 603 573 572
f 605 604 575
f 605 575 576
f 577 575 604
f 577 604 606
f 578 605 576
f 578 607 605
f 606 579 577
f 608 579 606
f 580 607 578
f 580 609 607
f 608 581 579
f 610 581 608
f 582 609 580
f 582 611 609
f 610 583 581
f 612 583 610
f 584 611 582
f 584 613 611
f 612 585 583
f 614 585 612
f 586 613 584
f 586 615 613
f 614 587 585
f 616 587 614
f 588 615 586
f 588 617 615
f 616 589 587
f 618 589 616
f 590 617 588
f 590 619 617
f 618 591 589
f 620 591 618
f 592 619 590
f 592 621 619
f 620 593 591
f 622 593 620
f 594 621 592
f 594 623 621
f 622 595 593
f 624 595 622
f 596 623 594
f 596 625 623
f 624 597 595
f 626 597 624
f 598 625 596
f 598 627 625
f 626 599 597
f 628 599 626
f 600 627 598
f 600 629 627
f 628 601 599
f 630 601 628
f 631 629 600
f 631 600 602
f 602 601 630
f 602 630 631
f 633 632 604
f 633 604 605
f 606 604 632
f 606 632 634
f 607 633 605
f 607 635 633
f 634 608 606
f 636 608 634
f 609 635 607
f 609 637 635
f 636 610 608
f 638 610 636
f 611 637 609
f 611 639 637
f 638 612 610
f 640 612 638
f 613 639 611
f 613 641 639
f 640 614 612
f 642 614 640
f 615 641 613
f 615 643 641
f 642 616 614
f 644 616 642
f 617 643 615
f 617 645 643
f 644 618 616
f 646 618 644
f 619 645 617
f 619 647 645
f 646 620 618
f 648 620 646
f 621 647 619
f 621 649 647
f 648 622 620
f 650 622 648
f 623 649 621
f 623 651 649
f 650 624 622
f 652 624 650
f 625 651 623
f 625 653 651
f 652 626 624
f 654 626 652
f 627 653 625
f 627 655 653
f 654 628 626
f 656 628 654
f 629 655 627
f 629 657 655
f 656 630 628
f 658 630 656
f 659 657 629
f 659 629 631
f 631 630 658
f 631 658 659
f 633 660 632
f 660 634 632
f 662 661 660
f 633 662 660
f 635 662 633
f 634 660 661
f 663 634 661
f 636 634 663
f 637 662 635
f 637 664 662
f 663 638 636
f 665 638 663
f 639 664 637
f 639 666 664
f 665 640 638
f 667 640 665
f 641 666 639
f 641 668 666
f 667 642 640
f 669 642 667
f 643 668 641
f 643 670 668
f 669 644 642
f 671 644 669
f 645 670 643
f 645 672 670
f 671 646 644
f 673 646 671
f 647 672 645
f 647 674 672
f 673 648 646
f 675 648 673
f 649 674 647
f 649 676 674
f 675 650 648
f 677 650 675
f 651 676 649
f 651 678 676
f 677 652 650
f 679 652 677
f 653 678 651
f 653 680 678
f 679 654 652
f 681 654 679
f 655 680 653
f 655 682 680
f 681 656 654
f 683 656 681
f 657 685 684
f 682 657 684
f 655 657 682
f 683 684 685
f 658 683 685
f 656 683 658
f 659 685 657
f 685 659 658
f 687 686 661
f 687 661 662
f 663 661 686
f 663 686 688
f 664 687 662
f 664 689 687
f 688 665 663
f 690 665 688
f 666 689 664
f 666 691 689
f 690 667 665
f 692 667 690
f 668 691 666
f 668 693 691
f 692 669 667
f 694 669 692
f 670 693 668
f 670 695 693
f 694 671 669
f 696 671 694
f 672 695 670
f 672 697 695
f 696 673 671
f 698 673 696
f 674 697 672
f 674 699 697
f 698 675 673
f 700 675 698
f 676 699 674
f 676 701 699
f 700 677 675
f 702 677 700
f 678 701 676
f 678 703 701
f 702 679 677
f 704 679 702
f 680 703 678
f 680 705 703
f 704 681 679
f 706 681 704
f 682 705 680
f 682 707 705
f 706 683 681
f 708 683 706
f 709 707 682
f 709 682 684
f 684 683 708
f 684 708 709
f 711 710 686
f 711 686 687
f 688 686 710
f 688 710 712
f 689 711 687
f 689 713 711
f 712 690 688
f 714 690 712
f 691 713 689
f 691 715 713
f 714 692 690
f 716 692 714
f 693 715 691
f 693 717 715
f 716 694 692
f 718 694 716
f 695 717 693
f 695 719 717
f 718 696 694
f 720 696 718
f 697 719 695
f 697 721 719
f 720 698 696
f 722 698 720
f 699 721 697
f 699 723 721
f 722 700 698
f 724 700 722
f 701 723 699
f 701 725 723
f 724 702 700
f 726 702 724
f 703 725 701
f 703 727 725
f 726 704 702
f 728 704 726
f 705 727 703
f 705 729 727
f 728 706 704
f 730 706 728
f 707 729 705
f 707 731 729
f 730 708 706
f 732 708 730
f 733 731 707
f 733 707 709
f 709 708 732
f 709 732 733
f 711 734 710
f 734 712 710
f 736 735 734
f 711 736 734
f 713 736 711
f 712 734 735
f 737 712 735
f 714 712 737
f 715 736 713
f 715 738 736
f 737 716 714
f 739 716 737
f 717 738 715
f 717 740 738
f 739 718 716
f 741 718 739
f 719 740 717
f 719 742 740
f 741 720 718
f 743 720 741
f 721 742 719
f 721 744 742
f 743 722 720
f 745 722 743
f 723 744 721
f 723 746 744
f 745 724 722
f 747 724 745
f 725 746 723
f 725 748 746
f 747 726 724
f 749 726 747
f 727 748 725
f 727 750 748
f 749 728 726
f 751 728 749
f 729 750 727
f 729 752 750
f 751 730 728
f 753 730 751
f 731 755 754
f 752 731 754
f 729 731 752
f 753 754 755
f 732 753 755
f 730 753 732
f 733 755 731
f 755 733 732
f 736 756 735
f 756 737 735
f 738 757 756
f 738 756 736
f 757 739 737
f 757 737 756
f 740 758 757
f 740 757 738
f 758 741 739
f 758 739 757
f 742 759 758
f 742 758 740
f 759 743 741
f 759 741 758
f 744 760 759
f 744 759 742
f 760 745 743
f 760 743 759
f 746 761 760
f 746 760 744
f 761 747 745
f 761 745 760
f 748 762 761
f 748 761 746
f 762 749 747
f 762 747 761
f 750 763 762
f 750 762 748
f 763 751 749
f 763 749 762
f 752 764 763
f 752 763 750
f 764 753 751
f 764 751 763
f 754 764 752
f 764 754 753

