# https://github.com/mikedh/trimesh
v -0.02480178 -0.00210170 0.01508256
v -0.02306856 -0.00369661 0.01346834
v -0.02302134 -0.00089349 0.01207524
v -0.02529861 -0.00172433 0.01984320
v -0.02364143 -0.00452809 0.01850064
v -0.02512413 -0.00125849 0.02465361
v -0.02382462 -0.00411825 0.02418216
v -0.02208424 -0.00213874 0.02779763
v -0.02356689 0.00071553 0.01548037
v -0.02376721 0.00106532 0.02119649
v -0.02298057 0.00112715 0.02592962
v -0.01970583 -0.01199006 0.00911503
v -0.01787126 -0.01555333 0.00874365
v -0.01780582 -0.01307688 0.00552137
v -0.01989073 -0.01251299 0.01545734
v -0.01784321 -0.01612136 0.01259036
v -0.02005793 -0.01239190 0.02139141
v -0.01788021 -0.01612562 0.01840585
v -0.01966945 -0.01178203 0.02590073
v -0.01797136 -0.01566478 0.02403745
v -0.01660870 -0.01413628 0.02784531
v -0.01986894 -0.00655291 -0.01330056
v -0.01743048 -0.00962848 -0.01443351
v -0.01820994 -0.00679859 -0.01733887
v -0.02003362 -0.00695658 -0.00724442
v -0.01781883 -0.01041713 -0.00968378
v -0.01997411 -0.00668781 -0.00167433
v -0.01781927 -0.01019113 -0.00409378
v -0.01999477 -0.00761869 0.00398120
v -0.01777477 -0.01042216 0.00108992
v -0.02052047 -0.00741118 0.00819747
v -0.02115171 -0.00740592 0.01344047
v -0.02142616 -0.00807588 0.02012658
v -0.02124680 -0.00761136 0.02537123
v -0.01801983 -0.00779146 0.02841048
v -0.01988547 -0.00212675 -0.01820872
v -0.01741599 -0.00416179 -0.02065098
v -0.01784828 0.00006703 -0.02240067
v -0.02085505 -0.00106936 -0.01339425
v -0.02078624 -0.00187305 -0.00846561
v -0.02068437 -0.00176506 -0.00283886
v -0.02055975 -0.00166471 0.00270330
v -0.02101231 -0.00243612 0.00889043
v -0.01726995 -0.00145271 0.02826675
v -0.01951674 0.00270090 -0.01994256
v -0.01744959 0.00446404 -0.02183418
v -0.02021674 0.00387636 -0.01477744
v -0.02081558 0.00401669 -0.00844026
v -0.02073357 0.00403978 -0.00268692
v -0.02060480 0.00407718 0.00290075
v -0.02051376 0.00409428 0.00847826
v -0.02111966 0.00375500 0.01367403
v -0.02132918 0.00466298 0.01979798
v -0.02076535 0.00465895 0.02518174
v -0.01788112 0.00408613 0.02791661
v -0.01785574 0.00647820 -0.01807271
v -0.01822868 0.00769727 -0.01357772
v -0.01743011 0.01061607 -0.01060660
v -0.01968747 0.00842905 -0.00929202
v -0.02005897 0.00916584 -0.00383338
v -0.01998050 0.00912269 0.00181997
v -0.02009273 0.00977133 0.00825286
v -0.02069652 0.00986355 0.01435452
v -0.02073877 0.00994906 0.02005008
v -0.02004668 0.00983246 0.02528145
v -0.01783518 0.00895274 0.02818714
v -0.01788583 0.01238513 -0.00652389
v -0.01785625 0.01271263 -0.00120840
v -0.01781034 0.01255226 0.00447201
v -0.01831417 0.01334141 0.00919628
v -0.01710730 0.01573300 0.01107139
v -0.01983804 0.01412621 0.01339838
v -0.02028033 0.01495561 0.01878135
v -0.01992939 0.01502276 0.02428842
v -0.01726461 0.01393023 0.02798904
v -0.01684467 0.01736136 0.01522880
v -0.01747387 0.01779906 0.02149331
v -0.01687340 0.01734025 0.02603596
v -0.01505061 -0.01784164 0.00891083
v -0.01057601 -0.02074814 0.00808735
v -0.01250682 -0.01786490 0.00528626
v -0.01504428 -0.01901249 0.01539701
v -0.01151531 -0.02108477 0.01406363
v -0.01502721 -0.01900202 0.02130264
v -0.01134694 -0.02123617 0.01995039
v -0.01504640 -0.01817593 0.02588066
v -0.01202714 -0.02066820 0.02463172
v -0.01164433 -0.01832719 0.02790046
v -0.01433498 -0.01191188 -0.02453899
v -0.01071753 -0.01519598 -0.02571598
v -0.01281055 -0.01244115 -0.02887594
v -0.01430908 -0.01313308 -0.01867993
v -0.01235202 -0.01517714 -0.02040739
v -0.01497083 -0.01256089 -0.01328025
v -0.01143635 -0.01592772 -0.01540290
v -0.01494450 -0.01296514 -0.00688385
v -0.01219521 -0.01584143 -0.00971369
v -0.01482314 -0.01281621 -0.00130008
v -0.01202993 -0.01567875 -0.00404283
v -0.01489539 -0.01423768 0.00358137
v -0.01199670 -0.01603425 0.00128546
v -0.01204800 -0.01306408 0.02902965
v -0.01426100 -0.00757331 -0.02966762
v -0.01158949 -0.01077681 -0.03194472
v -0.01157161 -0.00703046 -0.03350511
v -0.01504660 -0.00731349 -0.02549905
v -0.01574378 -0.00844000 -0.01993252
v -0.01270699 -0.00682155 0.02805845
v -0.01450683 -0.00152938 -0.03071835
v -0.01148433 -0.00192226 -0.03325639
v -0.01559779 -0.00298757 -0.02530684
v -0.01386856 -0.00150187 0.00982211
v -0.01188221 -0.00099211 0.00658332
v -0.01188484 -0.00390494 0.00776395
v -0.01236628 -0.00464289 0.01266372
v -0.01461067 -0.00100946 0.01531107
v -0.01227869 -0.00444835 0.01860928
v -0.01446595 -0.00081810 0.02129388
v -0.01209325 -0.00464484 0.02417048
v -0.01461240 -0.00181046 0.02593773
v -0.01462116 0.00425836 -0.03073608
v -0.01175240 0.00470671 -0.03324950
v -0.01571023 0.00367346 -0.02551954
v -0.01270333 0.00157022 0.00903079
v -0.01422695 0.00271088 0.01294344
v -0.01194346 0.00502545 0.01160903
v -0.01451466 0.00350627 0.01851625
v -0.01502147 0.00303310 0.02473239
v -0.01399374 0.00885569 -0.03144101
v -0.01103840 0.00995979 -0.03317583
v -0.01448860 0.00929083 -0.02678183
v -0.01499520 0.00953388 -0.02024197
v -0.01599201 0.01041406 -0.01421320
v -0.01228717 0.00679977 0.01578010
v -0.01212263 0.00704882 0.02131487
v -0.01282063 0.00696523 0.02594107
v -0.01223882 0.01078438 0.02818226
v -0.01224013 0.01171193 -0.03002192
v -0.01167814 0.01279917 -0.02463693
v -0.01264347 0.01346650 -0.01896672
v -0.01160654 0.01589885 -0.01707564
v -0.01406284 0.01410517 -0.01482856
v -0.01508486 0.01467068 -0.00974453
v -0.01502766 0.01558367 -0.00408512
v -0.01483434 0.01539129 0.00154407
v -0.01525316 0.01530373 0.00694473
v -0.01215150 0.01625897 0.02830082
v -0.01121414 0.01747596 -0.01321225
v -0.01154010 0.01767114 -0.00720579
v -0.01132158 0.01756537 -0.00153512
v -0.01197677 0.01728973 0.00362301
v -0.01240796 0.01810871 0.00921182
v -0.01225744 0.01891493 0.01494590
v -0.01299018 0.01894059 0.01998644
v -0.01267287 0.01879726 0.02524394
v -0.00916110 -0.01877864 -0.01255782
v -0.00491640 -0.02068168 -0.01365684
v -0.00701440 -0.01834582 -0.01614029
v -0.00944991 -0.01870985 -0.00726327
v -0.00608899 -0.02103265 -0.00871246
v -0.00931279 -0.01864518 -0.00155607
v -0.00596855 -0.02089899 -0.00300860
v -0.01013303 -0.01908344 0.00320352
v -0.00660692 -0.02099135 0.00327790
v -0.00587874 -0.02155362 0.00912046
v -0.00653263 -0.02166793 0.01407203
v -0.00627969 -0.02184323 0.01996359
v -0.00747934 -0.02125885 0.02519078
v -0.00608629 -0.01825742 0.02833893
v -0.00999796 -0.01375533 -0.03063637
v -0.00589067 -0.01523956 -0.03022902
v -0.00766768 -0.01192413 -0.03348478
v -0.00581084 -0.01589541 -0.02461256
v -0.00718995 -0.01646998 -0.01969103
v -0.00677908 -0.01266186 0.02805527
v -0.00622245 -0.00810024 -0.03366481
v -0.00887387 -0.00650519 -0.01328176
v -0.00716059 -0.00682869 -0.01735157
v -0.00499281 -0.00973896 -0.01447814
v -0.00612121 -0.00997806 -0.00867906
v -0.00904160 -0.00702525 -0.00734728
v -0.00605400 -0.00986208 -0.00303490
v -0.00892058 -0.00691772 -0.00169831
v -0.00662187 -0.00958613 0.00178225
v -0.00866771 -0.00751412 0.00348568
v -0.00565611 -0.01038495 0.00682997
v -0.00942236 -0.00691542 0.00891825
v -0.00650857 -0.01030954 0.01264878
v -0.00936357 -0.00735121 0.01553699
v -0.00646363 -0.01009234 0.01850665
v -0.00917569 -0.00719121 0.02139205
v -0.00631955 -0.01033811 0.02411350
v -0.00910647 -0.00791483 0.02592774
v -0.00734415 -0.00465880 -0.03151215
v -0.00950509 -0.00054875 -0.03020377
v -0.00649699 -0.00457195 -0.02685197
v -0.00884326 -0.00103438 -0.02398314
v -0.00659663 -0.00500516 -0.02134207
v -0.00908406 -0.00203424 -0.01814516
v -0.00971561 -0.00095848 -0.01320561
v -0.00968342 -0.00183073 -0.00854106
v -0.00954844 -0.00181049 -0.00294750
v -0.00994621 -0.00254437 0.00344387
v -0.00896629 0.00431515 -0.03146965
v -0.00884300 0.00330178 -0.02678137
v -0.00902133 0.00336622 -0.02090508
v -0.00899292 0.00342924 -0.01519615
v -0.00891920 0.00339248 -0.00958892
v -0.00876971 0.00336306 -0.00398691
v -0.00883712 0.00406430 0.00242924
v -0.01029418 0.00382179 0.00781809
v -0.00553709 0.00708793 -0.02949546
v -0.00772128 0.00843766 -0.03301407
v -0.00668147 0.00608516 -0.02446945
v -0.00617838 0.00708238 -0.01896697
v -0.00667813 0.00712890 -0.01239623
v -0.00656183 0.00704626 -0.00669458
v -0.00654698 0.00700028 -0.00110361
v -0.00700516 0.00783181 0.00355881
v -0.00847304 0.00855812 0.00761123
v -0.00586313 0.01035659 0.00545554
v -0.00949714 0.00913799 0.01270629
v -0.00930457 0.00994843 0.01852917
v -0.00938071 0.00978032 0.02407200
v -0.00815504 0.01250535 -0.03038617
v -0.00857216 0.01517626 -0.02580045
v -0.00484904 0.01456335 -0.02913840
v -0.00990678 0.01555722 -0.02122998
v -0.00548495 0.01202486 0.00946742
v -0.00585315 0.01214028 0.01549864
v -0.00555569 0.01191160 0.02128634
v -0.00649876 0.01205618 0.02587620
v -0.00617568 0.01475924 0.02826072
v -0.00559947 0.01753317 -0.02459753
v -0.00708860 0.01774728 -0.01837290
v -0.00591685 0.01826814 -0.01345054
v -0.00655366 0.01821586 -0.00857901
v -0.00643741 0.01810738 -0.00290491
v -0.00786140 0.01866567 0.00302189
v -0.00862915 0.02058694 0.00783903
v -0.00485520 0.02101937 0.00580648
v -0.00946518 0.02097445 0.01262160
v -0.00945695 0.02105666 0.01844577
v -0.00909697 0.02120967 0.02406236
v -0.00669979 0.01954031 0.02802912
v -0.00596679 0.02296847 0.00998433
v -0.00596749 0.02336927 0.01547226
v -0.00590225 0.02351013 0.02142567
v -0.00534782 0.02303761 0.02599202
v 0.00060774 -0.02106625 -0.01350407
v -0.00208922 -0.01871387 -0.01702196
v -0.00097829 -0.02179206 -0.00858389
v -0.00096142 -0.02170866 -0.00294825
v -0.00086218 -0.02159918 0.00268661
v -0.00087210 -0.02152249 0.00837173
v -0.00073542 -0.02156503 0.01413129
v -0.00046275 -0.02173179 0.02005686
v -0.00166677 -0.02119638 0.02534017
v -0.00070394 -0.01807839 0.02777705
v 0.00033759 -0.01550583 -0.03088445
v -0.00143679 -0.01277729 -0.03338775
v -0.00092915 -0.01591482 -0.02555020
v -0.00076174 -0.01645937 -0.02040201
v -0.00332892 -0.01333961 0.00991557
v -0.00148335 -0.01293046 0.00664519
v -0.00034255 -0.01459700 0.00942236
v -0.00090610 -0.01483014 0.01394871
v -0.00375659 -0.01319722 0.01536866
v -0.00013400 -0.01485096 0.02020276
v -0.00365854 -0.01304388 0.02127331
v -0.00004829 -0.01603865 0.02526223
v -0.00351104 -0.01384594 0.02588277
v -0.00024917 -0.01019069 -0.03088899
v -0.00382033 -0.00751882 -0.02975473
v 0.00012455 -0.00979136 -0.02556690
v -0.00357125 -0.00755078 -0.02415783
v -0.00073214 -0.00998528 -0.01913327
v -0.00459301 -0.00801950 -0.01936913
v -0.00001604 -0.01063633 -0.01315330
v -0.00092030 -0.01061854 -0.00833895
v -0.00085950 -0.01051545 -0.00272853
v -0.00101765 -0.01091024 0.00352675
v -0.00468216 0.01055485 -0.03089928
v -0.00203236 0.01000703 -0.02931165
v -0.00074027 0.00772994 -0.02531797
v -0.00290735 0.00957711 -0.02014464
v 0.00006067 0.00957574 -0.02136877
v -0.00376839 0.01007418 -0.01534954
v -0.00368200 0.01008302 -0.00961490
v -0.00363366 0.00993539 -0.00395434
v -0.00406469 0.00991573 0.00137156
v 0.00051816 0.01538208 -0.03297256
v -0.00297056 0.01567296 -0.03127290
v -0.00098400 0.01261374 -0.03129185
v -0.00121879 0.01126930 -0.01860817
v -0.00079120 0.01161472 -0.01412397
v -0.00079325 0.01154013 -0.00840148
v -0.00029695 0.01167477 -0.00222685
v -0.00114385 0.01228961 0.00427931
v 0.00000593 0.01292854 0.00927166
v -0.00079265 0.01283105 0.01412997
v -0.00061526 0.01261450 0.01992337
v -0.00177061 0.01316310 0.02518783
v -0.00054488 0.01609095 0.02822636
v -0.00142447 0.01770492 -0.02959235
v -0.00017236 0.01851824 -0.02465101
v -0.00093336 0.01836146 -0.01969946
v -0.00089127 0.01823263 -0.01406599
v -0.00077772 0.01813224 -0.00842714
v -0.00073424 0.01798303 -0.00279847
v -0.00208644 0.01869033 0.00205009
v 0.00059109 0.02098047 0.00550566
v -0.00074532 0.02070503 0.02829895
v -0.00084674 0.02338070 0.00893123
v -0.00084171 0.02417245 0.01402726
v -0.00081828 0.02425300 0.01994927
v -0.00085232 0.02368849 0.02524726
v 0.00508111 -0.02047401 -0.01282438
v 0.00350668 -0.01870610 -0.01659021
v 0.00416273 -0.02105878 -0.00838558
v 0.00507754 -0.02107492 -0.00235772
v 0.00500486 -0.02164198 0.00303232
v 0.00502072 -0.02159840 0.00860537
v 0.00512387 -0.02156763 0.01430995
v 0.00527538 -0.02170837 0.02017887
v 0.00399656 -0.02117769 0.02539195
v 0.00568325 -0.01842584 0.02785607
v 0.00616400 -0.01569517 -0.03069563
v 0.00517326 -0.01260234 -0.03335084
v 0.00476227 -0.01607421 -0.02544140
v 0.00530879 -0.01638084 -0.01931559
v 0.00135734 -0.01289862 0.00795690
v 0.00202811 -0.01325543 0.01267737
v 0.00221063 -0.01320039 0.01812307
v 0.00387049 -0.01345711 0.02244676
v 0.00445843 -0.01531297 0.02558870
v 0.00437100 -0.01057568 -0.03085612
v 0.00455865 -0.00990202 -0.02559940
v 0.00448109 -0.00994082 -0.01969268
v 0.00436476 -0.00991769 -0.01390732
v 0.00429172 -0.00986186 -0.00820437
v 0.00430863 -0.00976989 -0.00253140
v 0.00437194 -0.00962758 0.00310883
v 0.00440718 -0.01025688 0.00917399
v 0.00570359 -0.01026208 0.01570230
v 0.00614206 -0.01117721 0.02105379
v 0.00156881 0.00922013 -0.03036088
v 0.00500710 0.00685566 -0.03054291
v 0.00460069 0.01035653 -0.03342097
v 0.00503007 0.00615701 -0.02614584
v 0.00183685 0.01006935 -0.01802591
v 0.00421673 0.00711551 -0.02103608
v 0.00207646 0.01007334 -0.01271770
v 0.00505188 0.00716620 -0.01528586
v 0.00192870 0.01001305 -0.00702354
v 0.00482751 0.00710284 -0.00961891
v 0.00278160 0.01038531 -0.00240215
v 0.00582755 0.00701570 -0.00304523
v 0.00573713 0.00952692 0.00049424
v 0.00574821 0.01429427 -0.03345144
v 0.00358081 0.01182176 0.00179989
v 0.00434258 0.01217351 0.00713832
v 0.00436425 0.01209509 0.01280480
v 0.00439898 0.01188146 0.01860795
v 0.00398889 0.01247407 0.02471801
v 0.00530446 0.01513030 0.02840773
v 0.00338311 0.01736296 -0.03148556
v 0.00470677 0.01796124 -0.02609837
v 0.00495201 0.01840361 -0.01967135
v 0.00502930 0.01830086 -0.01387113
v 0.00501431 0.01819350 -0.00819597
v 0.00504480 0.01805258 -0.00253704
v 0.00446266 0.01859763 0.00294520
v 0.00542202 0.02057108 0.00639277
v 0.00457148 0.02064554 0.02787580
v 0.00371959 0.02271635 0.00822679
v 0.00425101 0.02335537 0.01255033
v 0.00431472 0.02341912 0.01843278
v 0.00425735 0.02316550 0.02409638
v 0.00717624 -0.01831629 -0.01432968
v 0.00775669 -0.01873539 -0.00958993
v 0.00801559 -0.01872003 -0.00431646
v 0.00980168 -0.01905268 -0.00020003
v 0.01006346 -0.02054509 0.00342433
v 0.01013311 -0.02095542 0.00873012
v 0.01013216 -0.02092711 0.01443265
v 0.01021095 -0.02104494 0.02021928
v 0.00923770 -0.02084203 0.02545766
v 0.01179486 -0.01760721 0.02807796
v 0.01059022 -0.01515054 -0.03000232
v 0.00939358 -0.01353398 -0.03311773
v 0.00988690 -0.01554572 -0.02531106
v 0.00991333 -0.01527135 -0.01943017
v 0.01009372 -0.01576598 -0.01323220
v 0.01142351 -0.01581366 -0.00683104
v 0.01196205 -0.01682681 -0.00165986
v 0.00721118 -0.01259512 0.02509006
v 0.01037097 -0.01367990 0.02812471
v 0.00759304 -0.00722591 -0.03077267
v 0.01070846 -0.00757185 -0.03338559
v 0.00736177 -0.00690413 -0.02550911
v 0.00743079 -0.00693204 -0.01959202
v 0.00724808 -0.00764305 -0.01470713
v 0.00803849 -0.00669417 -0.00981401
v 0.00801000 -0.00761452 -0.00404057
v 0.00796230 -0.00754044 0.00163179
v 0.00786516 -0.00734520 0.00722450
v 0.00813625 -0.00736166 0.01251361
v 0.00974162 -0.00783763 0.01655494
v 0.00986961 -0.00918566 0.02033132
v 0.01056207 -0.01014828 0.02520205
v 0.00859960 -0.00163432 -0.03062567
v 0.01075519 -0.00084380 -0.03359981
v 0.00799712 -0.00161687 -0.02534475
v 0.00806762 -0.00162309 -0.01948837
v 0.00851608 -0.00192162 -0.01314728
v 0.01052705 -0.00249269 -0.01016394
v 0.01096016 -0.00434121 -0.00686778
v 0.01095641 -0.00474366 -0.00153444
v 0.01084321 -0.00460014 0.00409801
v 0.01077102 -0.00452950 0.00973687
v 0.01109344 -0.00544444 0.01444177
v 0.00792009 0.00342121 -0.03056226
v 0.01047245 0.00434898 -0.03385387
v 0.00724405 0.00348514 -0.02524742
v 0.00730133 0.00353775 -0.01945497
v 0.00721648 0.00351955 -0.01375449
v 0.01042326 0.00044539 -0.00882783
v 0.00777225 0.00358328 -0.00756677
v 0.00830472 0.00407466 -0.00284511
v 0.01079901 0.00157394 -0.00432907
v 0.01045983 0.00366070 -0.00035845
v 0.01098154 0.00918497 -0.03352629
v 0.00763084 0.00993050 0.00460561
v 0.00947196 0.00692898 0.00243777
v 0.00805230 0.00991530 0.01000916
v 0.01098025 0.00698125 0.00739367
v 0.00797497 0.00977993 0.01579427
v 0.01092956 0.00698670 0.01302721
v 0.00792817 0.00963516 0.02157758
v 0.01078886 0.00689949 0.01877858
v 0.00785678 0.01035500 0.02606000
v 0.01062845 0.00712912 0.02422988
v 0.01117746 0.00932348 0.02808974
v 0.00965306 0.01267174 -0.03132961
v 0.00723296 0.01566006 -0.02969272
v 0.01152411 0.01261017 -0.02572718
v 0.00855436 0.01595559 -0.02494602
v 0.01145246 0.01506405 -0.02190857
v 0.01038335 0.01574772 0.02843042
v 0.00933419 0.01734706 -0.02056584
v 0.01010868 0.01765299 -0.01507123
v 0.01009919 0.01760198 -0.00942034
v 0.01001271 0.01750978 -0.00376326
v 0.01067942 0.01759840 0.00261725
v 0.01048020 0.01875117 0.00834448
v 0.00753339 0.02102152 0.01005529
v 0.01144686 0.01889342 0.01432031
v 0.00786035 0.02104919 0.01553402
v 0.01137339 0.01892434 0.02013009
v 0.00782200 0.02111088 0.02146327
v 0.01135473 0.01832640 0.02534726
v 0.00780598 0.02038895 0.02601258
v 0.01274962 -0.01829006 0.00257280
v 0.01363043 -0.01874374 0.00734607
v 0.01358856 -0.01878043 0.01308836
v 0.01359826 -0.01879275 0.01885695
v 0.01325662 -0.01891306 0.02440164
v 0.01234014 -0.01219087 -0.03134104
v 0.01353748 -0.01251701 -0.02681158
v 0.01349843 -0.01327097 -0.02086969
v 0.01344950 -0.01300526 -0.01522048
v 0.01374813 -0.01296643 -0.00993928
v 0.01544455 -0.01343370 -0.00598267
v 0.01563581 -0.01486907 -0.00232937
v 0.01580473 -0.01591016 0.00358114
v 0.01633009 -0.01589649 0.01006735
v 0.01628080 -0.01585003 0.01574836
v 0.01628300 -0.01595959 0.02150950
v 0.01558168 -0.01598515 0.02610135
v 0.01672552 -0.01248572 0.02814134
v 0.01432975 -0.00794775 -0.03102750
v 0.01607000 -0.00846536 -0.02793284
v 0.01636255 -0.01019718 -0.02369135
v 0.01635300 -0.01039506 -0.01830815
v 0.01631358 -0.01023253 -0.01272995
v 0.01670995 -0.01107775 -0.00803628
v 0.01261584 -0.00573182 0.01955535
v 0.01345960 -0.00671162 0.02513667
v 0.01537379 -0.00837141 0.02830209
v 0.01695791 -0.00516538 -0.03061797
v 0.01486826 -0.00208505 -0.03356892
v 0.01216713 -0.00126762 -0.00741082
v 0.01270999 -0.00089198 -0.00252398
v 0.01319700 -0.00108252 0.00276685
v 0.01307871 -0.00098933 0.00840941
v 0.01307508 -0.00173897 0.01474202
v 0.01351351 -0.00096170 0.02081698
v 0.01416766 -0.00180644 0.02520536
v 0.01712456 -0.00301195 0.02831133
v 0.01599799 0.00355834 -0.03340165
v 0.01284311 0.00329107 0.00331378
v 0.01321758 0.00337071 0.00851804
v 0.01304528 0.00335967 0.01421645
v 0.01287806 0.00328899 0.02003206
v 0.01307259 0.00353960 0.02525377
v 0.01634628 0.00341318 0.02842244
v 0.01578871 0.00677064 -0.03128283
v 0.01309110 0.00970014 -0.02943032
v 0.01648041 0.00707288 -0.02693290
v 0.01397662 0.00960858 -0.02557566
v 0.01605446 0.00927749 -0.02293620
v 0.01635474 0.01031270 0.02843676
v 0.01506349 0.01259070 -0.02007838
v 0.01327915 0.01549529 -0.01771684
v 0.01651296 0.01268302 -0.01506668
v 0.01370538 0.01551416 -0.01236071
v 0.01645607 0.01267103 -0.00942259
v 0.01352423 0.01544287 -0.00668773
v 0.01628837 0.01258942 -0.00374060
v 0.01345928 0.01541403 -0.00103453
v 0.01630440 0.01294886 0.00155674
v 0.01433154 0.01584282 0.00370224
v 0.01681093 0.01472081 0.00568418
v 0.01517125 0.01550239 0.02771697
v 0.01512842 0.01730035 0.00788480
v 0.01583162 0.01767479 0.01312821
v 0.01577662 0.01770018 0.01880590
v 0.01570552 0.01734315 0.02424438
v 0.01827360 -0.01143789 -0.00308146
v 0.01847082 -0.01242883 0.00291660
v 0.01831270 -0.01301004 0.00784784
v 0.01903649 -0.01218893 0.01275770
v 0.01913495 -0.01306069 0.01857085
v 0.01889147 -0.01310016 0.02415766
v 0.01844682 -0.00597871 -0.02590330
v 0.01851557 -0.00699326 -0.01985024
v 0.01846510 -0.00684826 -0.01419372
v 0.01855483 -0.00746458 -0.00794755
v 0.01903969 -0.00667170 -0.00204651
v 0.01910667 -0.00825900 0.00210649
v 0.01981511 -0.00765223 0.00743487
v 0.02153360 -0.00827837 0.01150240
v 0.02200660 -0.00999622 0.01571355
v 0.02220292 -0.01031321 0.02127750
v 0.02147776 -0.01016957 0.02590598
v 0.02115167 -0.00638024 0.02809435
v 0.01865875 -0.00105798 -0.03025157
v 0.01942930 -0.00118640 -0.02476638
v 0.01926703 -0.00197673 -0.01984942
v 0.01918757 -0.00183473 -0.01414237
v 0.01912716 -0.00176343 -0.00855309
v 0.01899289 -0.00176221 -0.00290048
v 0.01941568 -0.00189983 0.00348268
v 0.02143477 -0.00236587 0.00661632
v 0.02234437 -0.00494192 0.00899333
v 0.02158200 -0.00018177 0.02838259
v 0.01837613 0.00383909 -0.03009670
v 0.01890645 0.00409295 -0.02501745
v 0.01937037 0.00385097 -0.01954506
v 0.01923122 0.00399873 -0.01383878
v 0.01917124 0.00404244 -0.00818863
v 0.01906363 0.00400744 -0.00270694
v 0.01892924 0.00406872 0.00281208
v 0.02137857 0.00094035 0.00740031
v 0.01978030 0.00473577 0.00864818
v 0.02226001 0.00334686 0.01068258
v 0.02077261 0.00516604 0.02796601
v 0.01831355 0.00901495 -0.01906829
v 0.01863761 0.00912630 -0.01376502
v 0.01850240 0.00913073 -0.00805626
v 0.01843760 0.00907971 -0.00247882
v 0.01854532 0.01005727 0.00336707
v 0.01908141 0.00987245 0.00862602
v 0.02141798 0.00621030 0.01369769
v 0.01962313 0.00997437 0.01489496
v 0.02191078 0.00708918 0.01860981
v 0.01985228 0.01060924 0.02152383
v 0.02208139 0.00668939 0.02421539
v 0.01966028 0.00942533 0.02604261
v 0.01829035 0.01487234 0.00920126
v 0.01859594 0.01492971 0.01446292
v 0.01852296 0.01495807 0.02023963
v 0.01822830 0.01385116 0.02538784
v 0.02411273 -0.00569691 0.01357163
v 0.02449286 -0.00677525 0.01983508
v 0.02400585 -0.00738051 0.02460571
v 0.02369556 -0.00101427 0.00983612
v 0.02506876 -0.00078089 0.01478638
v 0.02522210 -0.00169893 0.01986605
v 0.02460178 -0.00295723 0.02520283
v 0.02384809 0.00345339 0.01441168
v 0.02437667 0.00342972 0.01997180
v 0.02411974 0.00242519 0.02533332
f 3 2 1
f 5 4 1
f 5 1 2
f 7 6 4
f 7 4 5
f 8 6 7
f 9 3 1
f 9 1 4
f 9 4 10
f 10 4 6
f 10 6 11
f 11 6 8
f 14 13 12
f 16 15 12
f 16 12 13
f 18 17 15
f 18 15 16
f 20 19 17
f 20 17 18
f 21 19 20
f 24 23 22
f 26 25 22
f 26 22 23
f 28 27 25
f 28 25 26
f 30 29 27
f 30 27 28
f 29 30 14
f 12 29 14
f 31 29 12
f 32 12 15
f 31 12 32
f 33 15 17
f 32 15 33
f 34 17 19
f 33 17 34
f 19 21 35
f 19 35 34
f 38 37 36
f 36 37 24
f 22 36 24
f 39 36 22
f 40 22 25
f 39 22 40
f 41 25 27
f 40 25 41
f 42 27 29
f 41 27 42
f 43 29 31
f 42 29 43
f 3 43 2
f 43 32 2
f 43 31 32
f 2 32 5
f 5 32 33
f 5 33 7
f 7 33 34
f 8 7 34
f 35 8 34
f 44 8 35
f 38 36 45
f 38 45 46
f 47 36 39
f 45 36 47
f 48 39 40
f 47 39 48
f 49 40 41
f 48 40 49
f 50 41 42
f 49 41 50
f 51 42 43
f 50 42 51
f 9 52 3
f 52 43 3
f 52 51 43
f 10 53 9
f 9 53 52
f 11 54 10
f 10 54 53
f 55 54 11
f 8 55 11
f 44 55 8
f 56 46 45
f 56 45 47
f 56 47 57
f 59 58 57
f 47 59 57
f 48 59 47
f 60 48 49
f 59 48 60
f 61 49 50
f 60 49 61
f 62 50 51
f 61 50 62
f 63 51 52
f 62 51 63
f 64 52 53
f 63 52 64
f 65 53 54
f 64 53 65
f 54 55 66
f 54 66 65
f 67 58 59
f 67 59 60
f 67 60 68
f 68 60 61
f 68 61 69
f 69 61 62
f 69 62 70
f 72 71 70
f 62 72 70
f 63 72 62
f 73 63 64
f 72 63 73
f 74 64 65
f 73 64 74
f 65 66 75
f 65 75 74
f 76 71 72
f 76 72 73
f 76 73 77
f 77 73 74
f 77 74 78
f 78 74 75
f 81 80 79
f 83 82 79
f 83 79 80
f 85 84 82
f 85 82 83
f 87 86 84
f 87 84 85
f 88 86 87
f 91 90 89
f 93 92 89
f 93 89 90
f 95 94 92
f 95 92 93
f 97 96 94
f 97 94 95
f 99 98 96
f 99 96 97
f 101 100 98
f 101 98 99
f 100 101 81
f 100 81 79
f 14 100 79
f 13 14 79
f 13 79 16
f 16 79 82
f 16 82 18
f 18 82 84
f 18 84 20
f 20 84 86
f 21 20 86
f 88 21 86
f 102 21 88
f 105 104 103
f 103 104 91
f 89 103 91
f 106 103 89
f 107 89 92
f 106 89 107
f 24 107 23
f 107 94 23
f 107 92 94
f 23 94 26
f 26 94 96
f 26 96 28
f 28 96 98
f 28 98 30
f 30 98 100
f 30 100 14
f 102 35 21
f 108 35 102
f 105 103 109
f 105 109 110
f 111 103 106
f 109 103 111
f 38 111 37
f 111 107 37
f 111 106 107
f 37 107 24
f 114 113 112
f 116 115 112
f 112 115 114
f 118 117 116
f 116 117 115
f 120 119 118
f 118 119 117
f 108 119 120
f 44 108 120
f 35 108 44
f 110 109 121
f 110 121 122
f 123 109 111
f 121 109 123
f 46 123 38
f 38 123 111
f 113 124 112
f 126 125 124
f 125 112 124
f 125 116 112
f 116 127 118
f 116 125 127
f 118 128 120
f 118 127 128
f 128 55 44
f 128 44 120
f 122 121 129
f 122 129 130
f 131 121 123
f 129 121 131
f 56 132 46
f 132 123 46
f 132 131 123
f 57 133 56
f 56 133 132
f 58 133 57
f 126 134 125
f 125 134 127
f 127 134 135
f 127 135 128
f 128 135 136
f 55 128 136
f 137 55 136
f 66 55 137
f 138 130 129
f 138 129 131
f 138 131 139
f 139 131 132
f 139 132 140
f 142 141 140
f 132 142 140
f 133 142 132
f 67 143 58
f 143 133 58
f 143 142 133
f 68 144 67
f 67 144 143
f 69 145 68
f 68 145 144
f 70 146 69
f 69 146 145
f 71 146 70
f 137 75 66
f 147 75 137
f 148 141 142
f 148 142 143
f 148 143 149
f 149 143 144
f 149 144 150
f 150 144 145
f 150 145 151
f 151 145 146
f 151 146 152
f 152 146 71
f 76 152 71
f 153 152 76
f 154 76 77
f 154 153 76
f 155 77 78
f 155 154 77
f 78 75 147
f 78 147 155
f 158 157 156
f 160 159 156
f 160 156 157
f 162 161 159
f 162 159 160
f 164 163 161
f 164 161 162
f 80 81 163
f 164 80 163
f 165 80 164
f 80 166 83
f 165 166 80
f 83 167 85
f 166 167 83
f 85 168 87
f 167 168 85
f 88 87 168
f 88 168 169
f 172 171 170
f 90 91 170
f 171 90 170
f 173 90 171
f 90 174 93
f 173 174 90
f 156 95 158
f 95 174 158
f 95 93 174
f 95 156 97
f 97 156 159
f 97 159 99
f 99 159 161
f 99 161 101
f 101 161 163
f 101 163 81
f 169 102 88
f 175 102 169
f 172 170 104
f 105 172 104
f 176 172 105
f 104 170 91
f 179 178 177
f 181 180 177
f 177 180 179
f 183 182 181
f 181 182 180
f 185 184 183
f 183 184 182
f 187 186 185
f 185 186 184
f 189 188 187
f 187 188 186
f 191 190 189
f 189 190 188
f 193 192 191
f 191 192 190
f 175 192 193
f 108 175 193
f 102 175 108
f 110 195 194
f 176 110 194
f 105 110 176
f 197 196 195
f 195 196 194
f 199 198 197
f 197 198 196
f 198 199 178
f 199 177 178
f 199 200 177
f 177 201 181
f 177 200 201
f 181 202 183
f 181 201 202
f 183 203 185
f 183 202 203
f 203 113 114
f 187 203 114
f 185 203 187
f 187 114 115
f 187 115 189
f 189 115 117
f 189 117 191
f 191 117 119
f 191 119 193
f 193 119 108
f 122 204 195
f 122 195 110
f 195 205 197
f 195 204 205
f 197 206 199
f 197 205 206
f 199 207 200
f 199 206 207
f 200 208 201
f 200 207 208
f 201 209 202
f 201 208 209
f 202 210 203
f 202 209 210
f 211 124 113
f 203 211 113
f 210 211 203
f 211 126 124
f 213 212 204
f 122 213 204
f 130 213 122
f 204 212 205
f 205 212 214
f 205 214 206
f 206 214 215
f 206 215 207
f 207 215 216
f 207 216 208
f 208 216 217
f 208 217 209
f 209 217 218
f 209 218 210
f 210 218 219
f 221 220 219
f 220 210 219
f 220 211 210
f 222 134 126
f 211 222 126
f 220 222 211
f 223 135 134
f 223 134 222
f 224 136 135
f 224 135 223
f 224 137 136
f 225 213 130
f 225 130 138
f 227 225 226
f 225 139 226
f 225 138 139
f 140 228 139
f 139 228 226
f 141 228 140
f 221 229 220
f 220 229 222
f 222 229 230
f 222 230 223
f 223 230 231
f 223 231 224
f 224 231 232
f 137 224 232
f 233 137 232
f 147 137 233
f 234 227 226
f 234 226 228
f 234 228 235
f 235 228 141
f 148 235 141
f 236 235 148
f 237 148 149
f 237 236 148
f 238 149 150
f 238 237 149
f 239 150 151
f 239 238 150
f 241 239 240
f 239 152 240
f 239 151 152
f 153 242 152
f 152 242 240
f 154 243 153
f 153 243 242
f 155 244 154
f 154 244 243
f 245 244 155
f 147 245 155
f 233 245 147
f 246 241 240
f 246 240 242
f 246 242 247
f 247 242 243
f 247 243 248
f 248 243 244
f 248 244 249
f 249 244 245
f 251 250 157
f 251 157 158
f 157 252 160
f 250 252 157
f 160 253 162
f 252 253 160
f 162 254 164
f 253 254 162
f 164 255 165
f 254 255 164
f 165 256 166
f 255 256 165
f 166 257 167
f 256 257 166
f 167 258 168
f 257 258 167
f 169 168 258
f 169 258 259
f 261 260 171
f 261 171 172
f 171 262 173
f 260 262 171
f 173 263 174
f 262 263 173
f 158 174 251
f 251 174 263
f 266 265 264
f 268 267 264
f 264 267 266
f 270 269 268
f 268 269 267
f 272 271 270
f 270 271 269
f 259 271 272
f 175 259 272
f 169 259 175
f 176 274 273
f 261 176 273
f 172 176 261
f 276 275 274
f 274 275 273
f 278 277 276
f 276 277 275
f 178 179 278
f 179 277 278
f 179 279 277
f 280 179 180
f 280 279 179
f 281 180 182
f 281 280 180
f 282 182 184
f 282 281 182
f 186 264 265
f 282 186 265
f 184 186 282
f 264 186 188
f 264 188 268
f 268 188 190
f 268 190 270
f 270 190 192
f 270 192 272
f 272 192 175
f 194 274 176
f 274 194 196
f 274 196 276
f 276 196 198
f 276 198 278
f 278 198 178
f 213 283 212
f 212 283 284
f 285 212 284
f 214 212 285
f 285 287 286
f 215 285 286
f 214 285 215
f 288 216 215
f 288 215 286
f 289 217 216
f 289 216 288
f 290 218 217
f 290 217 289
f 291 219 218
f 291 218 290
f 291 221 219
f 283 213 225
f 294 293 292
f 293 294 227
f 294 284 227
f 283 225 227
f 283 227 284
f 287 295 286
f 286 295 288
f 288 295 296
f 288 296 289
f 289 296 297
f 289 297 290
f 290 297 298
f 290 298 291
f 291 298 299
f 291 299 221
f 299 229 221
f 299 300 229
f 229 301 230
f 300 301 229
f 230 302 231
f 301 302 230
f 231 303 232
f 302 303 231
f 233 232 303
f 233 303 304
f 305 292 293
f 305 293 227
f 234 305 227
f 306 305 234
f 307 234 235
f 307 306 234
f 308 235 236
f 308 307 235
f 309 236 237
f 309 308 236
f 310 237 238
f 310 309 237
f 311 238 239
f 311 310 238
f 239 241 311
f 311 241 312
f 304 245 233
f 313 245 304
f 314 312 241
f 314 241 246
f 315 246 247
f 315 314 246
f 316 247 248
f 316 315 247
f 317 248 249
f 317 316 248
f 249 245 313
f 249 313 317
f 319 318 250
f 319 250 251
f 250 320 252
f 318 320 250
f 252 321 253
f 320 321 252
f 253 322 254
f 321 322 253
f 254 323 255
f 322 323 254
f 255 324 256
f 323 324 255
f 256 325 257
f 324 325 256
f 257 326 258
f 325 326 257
f 259 258 326
f 259 326 327
f 329 328 260
f 329 260 261
f 260 330 262
f 328 330 260
f 262 331 263
f 330 331 262
f 251 263 319
f 319 263 331
f 332 265 266
f 267 333 266
f 266 333 332
f 269 334 267
f 267 334 333
f 334 269 335
f 269 336 335
f 269 271 336
f 271 259 327
f 271 327 336
f 337 329 261
f 337 261 273
f 338 273 275
f 338 337 273
f 339 275 277
f 339 338 275
f 340 277 279
f 340 339 277
f 341 279 280
f 341 340 279
f 342 280 281
f 342 341 280
f 343 281 282
f 343 342 281
f 282 265 332
f 344 282 332
f 343 282 344
f 344 332 333
f 344 333 345
f 345 333 334
f 345 334 346
f 346 334 335
f 349 348 347
f 285 284 347
f 348 285 347
f 350 285 348
f 352 351 287
f 285 352 287
f 350 352 285
f 354 353 351
f 354 351 352
f 356 355 353
f 356 353 354
f 358 357 355
f 358 355 356
f 359 357 358
f 349 347 294
f 292 349 294
f 360 349 292
f 294 347 284
f 351 295 287
f 295 351 296
f 296 351 353
f 296 353 297
f 297 353 355
f 297 355 298
f 298 355 357
f 359 361 357
f 361 298 357
f 361 299 298
f 299 362 300
f 361 362 299
f 300 363 301
f 362 363 300
f 301 364 302
f 363 364 301
f 302 365 303
f 364 365 302
f 304 303 365
f 304 365 366
f 367 360 292
f 367 292 305
f 368 305 306
f 368 367 305
f 369 306 307
f 369 368 306
f 370 307 308
f 370 369 307
f 371 308 309
f 371 370 308
f 372 309 310
f 372 371 309
f 373 310 311
f 373 372 310
f 311 312 373
f 373 312 374
f 366 313 304
f 375 313 366
f 376 374 312
f 376 312 314
f 377 314 315
f 377 376 314
f 378 315 316
f 378 377 315
f 379 316 317
f 379 378 316
f 317 313 375
f 317 375 379
f 319 380 318
f 381 320 318
f 381 318 380
f 382 321 320
f 382 320 381
f 321 382 383
f 384 321 383
f 322 321 384
f 322 385 323
f 384 385 322
f 323 386 324
f 385 386 323
f 324 387 325
f 386 387 324
f 325 388 326
f 387 388 325
f 327 326 388
f 327 388 389
f 391 390 328
f 391 328 329
f 328 392 330
f 390 392 328
f 330 393 331
f 392 393 330
f 319 331 380
f 331 394 380
f 331 393 394
f 380 394 381
f 381 394 395
f 381 395 382
f 382 395 396
f 382 396 383
f 397 335 336
f 398 397 336
f 327 398 336
f 389 398 327
f 329 337 399
f 400 329 399
f 391 329 400
f 338 401 337
f 337 401 399
f 339 402 338
f 338 402 401
f 340 403 339
f 339 403 402
f 341 404 340
f 340 404 403
f 342 405 341
f 341 405 404
f 343 406 342
f 342 406 405
f 344 407 343
f 343 407 406
f 345 408 344
f 344 408 407
f 408 345 409
f 345 410 409
f 345 346 410
f 346 335 397
f 411 346 397
f 410 346 411
f 411 397 398
f 400 399 412
f 400 412 413
f 414 399 401
f 412 399 414
f 415 401 402
f 414 401 415
f 416 402 403
f 415 402 416
f 404 418 417
f 416 404 417
f 403 404 416
f 418 404 405
f 418 405 419
f 419 405 406
f 419 406 420
f 420 406 407
f 420 407 421
f 421 407 408
f 421 408 422
f 422 408 409
f 413 412 423
f 413 423 424
f 425 412 414
f 423 412 425
f 426 414 415
f 425 414 426
f 427 415 416
f 426 415 427
f 416 417 428
f 429 416 428
f 427 416 429
f 431 430 429
f 431 429 428
f 432 430 431
f 424 423 348
f 349 424 348
f 433 424 349
f 348 423 350
f 350 423 425
f 350 425 352
f 352 425 426
f 352 426 354
f 354 426 427
f 354 427 356
f 356 427 429
f 356 429 358
f 358 429 430
f 435 434 359
f 435 359 358
f 432 435 358
f 430 432 358
f 437 436 434
f 437 434 435
f 439 438 436
f 439 436 437
f 441 440 438
f 441 438 439
f 443 442 440
f 443 440 441
f 444 442 443
f 360 446 445
f 433 360 445
f 349 360 433
f 448 447 446
f 446 447 445
f 448 449 447
f 434 361 359
f 361 434 362
f 362 434 436
f 362 436 363
f 363 436 438
f 363 438 364
f 364 438 440
f 364 440 365
f 365 440 442
f 366 365 442
f 444 366 442
f 450 366 444
f 367 446 360
f 446 367 368
f 446 368 448
f 451 449 448
f 368 451 448
f 369 451 368
f 452 369 370
f 452 451 369
f 453 370 371
f 453 452 370
f 454 371 372
f 454 453 371
f 455 372 373
f 455 454 372
f 457 456 374
f 456 373 374
f 456 455 373
f 459 458 457
f 457 458 456
f 461 460 459
f 459 460 458
f 463 462 461
f 461 462 460
f 450 462 463
f 375 450 463
f 366 450 375
f 376 457 374
f 457 376 377
f 457 377 459
f 459 377 378
f 459 378 461
f 461 378 379
f 461 379 463
f 463 379 375
f 383 464 384
f 465 385 384
f 465 384 464
f 466 386 385
f 466 385 465
f 467 387 386
f 467 386 466
f 468 388 387
f 468 387 467
f 468 389 388
f 391 469 390
f 470 392 390
f 470 390 469
f 471 393 392
f 471 392 470
f 472 394 393
f 472 393 471
f 473 395 394
f 473 394 472
f 395 473 474
f 475 395 474
f 396 395 475
f 383 396 464
f 396 476 464
f 396 475 476
f 464 476 465
f 465 476 477
f 465 477 466
f 466 477 478
f 466 478 467
f 467 478 479
f 467 479 468
f 468 479 480
f 389 468 480
f 481 389 480
f 398 389 481
f 400 482 469
f 400 469 391
f 484 470 483
f 470 482 483
f 470 469 482
f 470 484 471
f 471 484 485
f 471 485 472
f 472 485 486
f 472 486 473
f 473 486 487
f 473 487 474
f 488 409 410
f 411 489 410
f 410 489 488
f 490 489 411
f 398 490 411
f 481 490 398
f 492 491 482
f 400 492 482
f 413 492 400
f 482 491 483
f 493 417 418
f 419 494 418
f 418 494 493
f 420 495 419
f 419 495 494
f 421 496 420
f 420 496 495
f 422 497 421
f 421 497 496
f 409 488 422
f 488 497 422
f 488 498 497
f 499 488 489
f 498 488 499
f 489 490 500
f 489 500 499
f 424 492 413
f 424 501 492
f 493 428 417
f 428 493 431
f 431 493 494
f 431 494 432
f 494 502 432
f 494 495 502
f 503 495 496
f 502 495 503
f 504 496 497
f 503 496 504
f 505 497 498
f 504 497 505
f 506 498 499
f 505 498 506
f 499 500 507
f 499 507 506
f 433 509 508
f 501 433 508
f 424 433 501
f 511 510 509
f 509 510 508
f 511 512 510
f 502 435 432
f 435 502 437
f 437 502 503
f 437 503 439
f 439 503 504
f 439 504 441
f 441 504 505
f 441 505 443
f 443 505 506
f 444 443 506
f 507 444 506
f 513 444 507
f 445 509 433
f 509 445 447
f 509 447 511
f 515 514 449
f 449 514 447
f 514 512 447
f 512 511 447
f 517 516 515
f 515 516 514
f 519 518 517
f 517 518 516
f 521 520 519
f 519 520 518
f 523 522 521
f 521 522 520
f 523 524 522
f 513 450 444
f 525 450 513
f 451 515 449
f 515 451 452
f 515 452 517
f 517 452 453
f 517 453 519
f 519 453 454
f 519 454 521
f 521 454 455
f 521 455 523
f 526 524 523
f 455 526 523
f 456 526 455
f 527 456 458
f 527 526 456
f 528 458 460
f 528 527 458
f 529 460 462
f 529 528 460
f 462 450 525
f 462 525 529
f 474 530 475
f 531 476 475
f 531 475 530
f 532 477 476
f 532 476 531
f 533 478 477
f 533 477 532
f 534 479 478
f 534 478 533
f 535 480 479
f 535 479 534
f 535 481 480
f 483 536 484
f 537 485 484
f 537 484 536
f 538 486 485
f 538 485 537
f 539 487 486
f 539 486 538
f 530 474 487
f 539 530 487
f 540 530 539
f 530 541 531
f 530 540 541
f 531 542 532
f 531 541 542
f 544 533 543
f 533 542 543
f 533 532 542
f 533 544 534
f 534 544 545
f 534 545 535
f 535 545 546
f 481 535 546
f 547 481 546
f 490 481 547
f 492 548 491
f 536 483 491
f 548 536 491
f 549 536 548
f 536 550 537
f 536 549 550
f 537 551 538
f 537 550 551
f 538 552 539
f 538 551 552
f 539 553 540
f 539 552 553
f 540 554 541
f 540 553 554
f 556 542 555
f 542 554 555
f 542 541 554
f 542 556 543
f 547 500 490
f 557 500 547
f 501 558 548
f 501 548 492
f 548 559 549
f 548 558 559
f 549 560 550
f 549 559 560
f 550 561 551
f 550 560 561
f 551 562 552
f 551 561 562
f 552 563 553
f 552 562 563
f 553 564 554
f 553 563 564
f 555 554 565
f 554 566 565
f 554 564 566
f 566 567 565
f 557 507 500
f 568 507 557
f 508 558 501
f 558 508 510
f 558 510 559
f 559 510 512
f 569 559 512
f 560 559 569
f 560 570 561
f 560 569 570
f 561 571 562
f 561 570 571
f 562 572 563
f 562 571 572
f 563 573 564
f 563 572 573
f 564 574 566
f 564 573 574
f 567 566 575
f 566 576 575
f 566 574 576
f 578 577 576
f 576 577 575
f 580 579 578
f 578 579 577
f 568 579 580
f 513 568 580
f 507 568 513
f 514 569 512
f 569 514 516
f 569 516 570
f 570 516 518
f 570 518 571
f 571 518 520
f 571 520 572
f 572 520 522
f 572 522 573
f 573 522 524
f 581 573 524
f 574 573 581
f 574 582 576
f 574 581 582
f 576 583 578
f 576 582 583
f 578 584 580
f 578 583 584
f 584 525 513
f 584 513 580
f 526 581 524
f 581 526 527
f 581 527 582
f 582 527 528
f 582 528 583
f 583 528 529
f 583 529 584
f 584 529 525
f 543 585 544
f 586 545 544
f 586 544 585
f 587 546 545
f 587 545 586
f 587 547 546
f 555 588 556
f 585 543 556
f 588 585 556
f 589 585 588
f 585 590 586
f 585 589 590
f 586 591 587
f 586 590 591
f 591 557 547
f 591 547 587
f 565 588 555
f 588 565 567
f 592 588 567
f 589 588 592
f 589 593 590
f 589 592 593
f 590 594 591
f 590 593 594
f 594 568 557
f 594 557 591
f 575 592 567
f 592 575 577
f 592 577 593
f 593 577 579
f 593 579 594
f 594 579 568

