# https://github.com/mikedh/trimesh
v -0.01962523 -0.01546631 -0.03303984
v -0.01840079 -0.01606168 -0.03330536
v -0.01859883 -0.01508956 -0.03409052
v -0.01962752 -0.01512136 -0.03169293
v -0.01915754 -0.01597854 -0.03167111
v -0.01836612 -0.01512126 -0.03052026
v -0.01913167 -0.01458939 -0.03306211
v -0.01877862 -0.01426092 -0.03174451
v -0.01947706 0.00577661 -0.00395938
v -0.01866413 0.00529441 -0.00413916
v -0.01896899 0.00580379 -0.00449566
v -0.01865426 0.00559654 -0.00346131
v -0.01965342 0.00771089 -0.00784768
v -0.01846839 0.00707471 -0.00807506
v -0.01868814 0.00804505 -0.00890446
v -0.01962847 0.00805477 -0.00642435
v -0.01914348 0.00717754 -0.00644474
v -0.01849862 0.00624160 -0.00393584
v -0.01860803 0.00771251 -0.00536210
v -0.01889772 0.00867919 -0.00762356
v -0.01859487 0.00859549 -0.00587263
v -0.01966422 0.02242094 -0.03305847
v -0.01841520 0.02178293 -0.03329332
v -0.01863753 0.02277582 -0.03409024
v -0.01963868 0.02276006 -0.03163610
v -0.01914879 0.02187801 -0.03166141
v -0.01859279 0.02240404 -0.03057040
v -0.01886179 0.02339707 -0.03280111
v -0.01855779 0.02329351 -0.03105960
v -0.01613539 -0.01621187 -0.03329399
v -0.01669700 -0.01526594 -0.03426816
v -0.01732540 -0.01626343 -0.03143486
v -0.01636462 -0.01558423 -0.03015634
v -0.01704241 -0.01406095 -0.03314540
v -0.01766626 -0.01347396 -0.03112631
v -0.01634982 -0.01312346 -0.03204449
v -0.01658840 -0.01410855 -0.02933481
v -0.01747963 -0.01291888 -0.02900421
v -0.01751093 -0.01267906 -0.02650685
v -0.01688557 -0.01374849 -0.02740004
v -0.01654882 -0.01298415 -0.02591450
v -0.01691047 -0.01255569 -0.03098000
v -0.01674194 -0.01207648 -0.02944434
v -0.01655456 -0.01110818 -0.02801888
v -0.01751487 -0.01138095 -0.02741474
v -0.01689672 -0.01190201 -0.02490706
v -0.01736693 -0.01096585 -0.02530990
v -0.01671056 -0.01084518 -0.02430657
v -0.01688566 -0.01031089 -0.02649314
v -0.01652695 -0.01031282 -0.02512733
v -0.01673073 -0.00908818 -0.02358859
v -0.01735251 -0.00897661 -0.02260295
v -0.01652458 -0.00963874 -0.02280129
v -0.01765400 -0.00884729 -0.02044727
v -0.01670650 -0.00979500 -0.02100090
v -0.01767220 -0.00891562 -0.01821354
v -0.01674237 -0.00983824 -0.01873971
v -0.01750163 -0.00871784 -0.01616879
v -0.01687366 -0.00975143 -0.01700199
v -0.01654424 -0.00895069 -0.01559784
v -0.01689147 -0.00804139 -0.02295284
v -0.01653632 -0.00700274 -0.02191931
v -0.01749592 -0.00724622 -0.02137482
v -0.01771490 -0.00674203 -0.01896335
v -0.01795687 -0.00686788 -0.01657930
v -0.01687527 -0.00796893 -0.01469277
v -0.01757600 -0.00675324 -0.01430603
v -0.01652560 -0.00669509 -0.01350588
v -0.01721071 -0.00649000 0.04243686
v -0.01671111 -0.00736679 0.04226443
v -0.01688354 -0.00649000 0.04176482
v -0.01653868 -0.00649000 0.04276404
v -0.01687792 -0.00616769 -0.02044635
v -0.01669372 -0.00567372 -0.01884354
v -0.01651949 -0.00478337 -0.01748808
v -0.01750396 -0.00500660 -0.01696402
v -0.01771273 -0.00459247 -0.01466413
v -0.01670087 -0.00580356 -0.01216443
v -0.01771075 -0.00476311 -0.01206900
v -0.01750305 -0.00428241 -0.00965952
v -0.01688342 -0.00535588 -0.01056120
v -0.01653653 -0.00454874 -0.00910439
v -0.01721071 -0.00506018 0.04209200
v -0.01653868 -0.00506018 0.04176482
v -0.01688354 -0.00506018 0.04276404
v -0.01690296 -0.00401075 -0.01611999
v -0.01671821 -0.00352349 -0.01461186
v -0.01652394 -0.00259587 -0.01327751
v -0.01751017 -0.00287787 -0.01272206
v -0.01767142 -0.00269037 -0.01061000
v -0.01689159 -0.00350944 -0.00807405
v -0.01734638 -0.00256086 -0.00845645
v -0.01672819 -0.00246320 -0.00743926
v -0.01671111 -0.00418340 0.04226443
v -0.01691979 -0.00182899 -0.01187048
v -0.01671926 -0.00174075 -0.01007746
v -0.01650972 -0.00190861 -0.00825353
v -0.01751106 0.00154463 -0.03084727
v -0.01650944 0.00077652 -0.03109576
v -0.01690733 0.00177671 -0.03210693
v -0.01760170 0.00131726 -0.02881736
v -0.01670952 0.00069374 -0.02917791
v -0.01734636 0.00192258 -0.02732486
v -0.01691612 0.00087189 -0.02728357
v -0.01671626 0.00139593 -0.02643030
v -0.01768680 0.00364973 -0.03130733
v -0.01670864 0.00364321 -0.03222455
v -0.01774764 0.00357994 -0.02883205
v -0.01671259 0.00370492 -0.02763805
v -0.01649332 0.00236832 -0.02707392
v -0.01741136 0.00550816 -0.03156692
v -0.01651811 0.00551497 -0.03205819
v -0.01767755 0.00577625 -0.02972863
v -0.01692983 0.00505836 -0.02706683
v -0.01734634 0.00592162 -0.02743134
v -0.01670822 0.00605467 -0.02639027
v -0.01685409 0.00516423 -0.00396717
v -0.01740751 0.00579628 -0.00457527
v -0.01687042 0.00576706 -0.00332472
v -0.01691318 0.00654964 -0.03100269
v -0.01671322 0.00667204 -0.02910324
v -0.01650019 0.00652829 -0.02722817
v -0.01633349 0.00691309 -0.00805845
v -0.01690614 0.00788008 -0.00904835
v -0.01737675 0.00692950 -0.00616440
v -0.01678968 0.00787912 -0.00520927
v -0.01634856 0.00640968 -0.00394893
v -0.01691531 0.00884135 -0.00810363
v -0.01682566 0.00884261 -0.00617576
v -0.01612298 0.02162037 -0.03326323
v -0.01672838 0.02258486 -0.03425591
v -0.01729924 0.02162037 -0.03138007
v -0.01669383 0.02258486 -0.03038739
v -0.01673986 0.02355740 -0.03329702
v -0.01668236 0.02355740 -0.03134628
v -0.01427497 -0.01597266 -0.03301094
v -0.01480108 -0.01545267 -0.03408419
v -0.01503000 -0.01612475 -0.03143585
v -0.01485661 -0.01497870 -0.03050242
v -0.01484713 -0.01458502 -0.03365150
v -0.01463071 -0.01422216 -0.03203054
v -0.01574433 -0.01326531 -0.03072550
v -0.01591645 -0.01254766 -0.02883182
v -0.01592310 -0.01296368 -0.02708726
v -0.01592211 -0.01109613 -0.02681084
v -0.01606017 -0.01147037 -0.02517232
v -0.01607781 -0.00851378 -0.02272247
v -0.01577611 -0.00887529 -0.02100938
v -0.01575748 -0.00894954 -0.01874003
v -0.01591567 -0.00899095 -0.01664982
v -0.01591665 -0.00699160 -0.02079621
v -0.01570037 -0.00668617 -0.01863968
v -0.01546067 -0.00689613 -0.01654678
v -0.01584383 -0.00708498 -0.01460570
v -0.01621150 -0.00649000 0.04209200
v -0.01591831 -0.00478415 -0.01646154
v -0.01571315 -0.00446240 -0.01437382
v -0.01570716 -0.00479946 -0.01239528
v -0.01590471 -0.00454264 -0.01023076
v -0.01621150 -0.00506018 0.04243686
v -0.01592197 -0.00256648 -0.01218049
v -0.01576271 -0.00266331 -0.01005920
v -0.01607143 -0.00303993 -0.00830853
v -0.01590439 0.00198588 -0.03131414
v -0.01580549 0.00129133 -0.02953344
v -0.01607775 0.00147280 -0.02746386
v -0.01574052 0.00425012 -0.03128773
v -0.01567454 0.00335218 -0.02883223
v -0.01601778 0.00606276 -0.03100724
v -0.01575257 0.00575627 -0.02913762
v -0.01607462 0.00546830 -0.02729496
v -0.01461159 0.00516192 -0.00394816
v -0.01513117 0.00578810 -0.00457637
v -0.01465997 0.00579155 -0.00332649
v -0.01415275 0.00692431 -0.00806011
v -0.01472332 0.00786887 -0.00901788
v -0.01512090 0.00693010 -0.00615144
v -0.01455338 0.00790116 -0.00522698
v -0.01414997 0.00641281 -0.00395765
v -0.01470258 0.00882628 -0.00808285
v -0.01458754 0.00884419 -0.00619189
v -0.01427343 0.02187801 -0.03298189
v -0.01482943 0.02240404 -0.03407290
v -0.01500702 0.02178293 -0.03134998
v -0.01478469 0.02277582 -0.03055306
v -0.01486443 0.02329351 -0.03358371
v -0.01456042 0.02339707 -0.03184220
v -0.01376323 -0.01512287 -0.03307984
v -0.01377478 -0.01546525 -0.03171596
v -0.01246876 0.00515354 -0.00395752
v -0.01296194 0.00578089 -0.00458507
v -0.01254040 0.00578119 -0.00333036
v -0.01204990 0.00692974 -0.00806371
v -0.01260467 0.00788210 -0.00901532
v -0.01295897 0.00693090 -0.00615818
v -0.01240435 0.00788333 -0.00520792
v -0.01204723 0.00640816 -0.00395845
v -0.01256705 0.00883307 -0.00806160
v -0.01244405 0.00883340 -0.00615847
v -0.01378354 0.02276006 -0.03300720
v -0.01375800 0.02242094 -0.03158483
v -0.01037134 0.00515208 -0.00395814
v -0.01086414 0.00577996 -0.00458631
v -0.01044351 0.00578026 -0.00332999
v -0.00995214 0.00691841 -0.00803453
v -0.01050648 0.00787524 -0.00900642
v -0.01086171 0.00692888 -0.00615763
v -0.01030743 0.00788126 -0.00520477
v -0.00994987 0.00640843 -0.00395796
v -0.01046791 0.00883487 -0.00806437
v -0.01034566 0.00883489 -0.00615858
v -0.00827142 0.00515247 -0.00395792
v -0.00876537 0.00578047 -0.00458595
v -0.00834286 0.00578050 -0.00332991
v -0.00784580 0.00691131 -0.00796315
v -0.00840920 0.00784311 -0.00892447
v -0.00876384 0.00692598 -0.00612974
v -0.00820940 0.00788430 -0.00519753
v -0.00784887 0.00640852 -0.00395792
v -0.00837004 0.00880784 -0.00803551
v -0.00824694 0.00883381 -0.00616067
v -0.00617031 0.00515249 -0.00395793
v -0.00666428 0.00578051 -0.00458594
v -0.00624176 0.00578050 -0.00332992
v -0.00572385 0.00686665 -0.00828534
v -0.00634798 0.00804104 -0.00912188
v -0.00664983 0.00693597 -0.00610292
v -0.00610159 0.00789376 -0.00519079
v -0.00574780 0.00640851 -0.00395793
v -0.00628509 0.00876136 -0.00794370
v -0.00615184 0.00880117 -0.00613252
v -0.00491185 -0.00433520 0.05284033
v -0.00372705 -0.00552187 0.05276486
v -0.00445319 -0.00435051 0.05201100
v -0.00388106 -0.00455704 0.05375988
v -0.00492197 -0.00294411 0.05249694
v -0.00373827 -0.00271969 0.05190976
v -0.00445047 -0.00294744 0.05329753
v -0.00394723 -0.00190645 0.05280460
v -0.00406928 0.00515249 -0.00395793
v -0.00456324 0.00578050 -0.00458594
v -0.00414074 0.00578050 -0.00332992
v -0.00501806 0.00802020 -0.01198049
v -0.00362131 0.00695950 -0.01240578
v -0.00430274 0.00819825 -0.01328782
v -0.00552251 0.00777462 -0.01026804
v -0.00421227 0.00684243 -0.01020805
v -0.00375991 0.00665821 -0.00780003
v -0.00450776 0.00695838 -0.00607345
v -0.00398189 0.00789384 -0.00518391
v -0.00364678 0.00640851 -0.00395793
v -0.00511993 0.00972231 -0.01260189
v -0.00404288 0.01002284 -0.01345368
v -0.00514787 0.00990041 -0.01059982
v -0.00413527 0.00917954 -0.00821068
v -0.00408155 0.01006959 -0.00938206
v -0.00407791 0.00874967 -0.00608567
v -0.00490504 0.01173217 -0.01239248
v -0.00355613 0.01210445 -0.01323786
v -0.00430778 0.01210255 -0.01133728
v -0.00359338 0.01109945 -0.01022369
v -0.00381967 0.01294660 -0.01230434
v -0.00271601 -0.00882697 0.08216557
v -0.00205123 -0.00988541 0.08198825
v -0.00162746 -0.00890896 0.08153757
v -0.00178718 -0.00943357 0.08282922
v -0.00185051 -0.00829137 0.08239981
v -0.00180322 -0.00580073 0.05256985
v -0.00270028 -0.00461855 0.05173220
v -0.00288398 -0.00467070 0.05509067
v -0.00220731 -0.00562452 0.05452370
v -0.00281240 -0.00474475 0.05706475
v -0.00184408 -0.00548746 0.05720699
v -0.00279005 -0.00454227 0.05888943
v -0.00225909 -0.00543217 0.05886087
v -0.00178831 -0.00491453 0.05987953
v -0.00162456 -0.00272450 0.05173147
v -0.00259691 -0.00295188 0.05382911
v -0.00205045 -0.00402187 0.05503675
v -0.00198631 -0.00401637 0.05729199
v -0.00175952 -0.00402286 0.05941137
v -0.00299784 -0.00033921 -0.00762950
v -0.00154566 -0.00153827 -0.00843255
v -0.00198534 0.00007122 -0.00900332
v -0.00292456 -0.00011352 -0.00595945
v -0.00199496 -0.00143130 -0.00615895
v -0.00189527 -0.00064337 -0.00489307
v -0.00205573 -0.00169788 0.05297400
v -0.00285757 0.00124348 -0.00833922
v -0.00216273 0.00153771 -0.00887360
v -0.00293469 0.00148366 -0.00669190
v -0.00194860 0.00105570 -0.00533698
v -0.00229751 0.00227116 -0.00784176
v -0.00197148 0.00229530 -0.00650188
v -0.00196826 0.00515249 -0.00395793
v -0.00246222 0.00578050 -0.00458594
v -0.00203972 0.00578050 -0.00332992
v -0.00165010 0.00692129 -0.01212923
v -0.00270147 0.00793304 -0.01336908
v -0.00204668 0.00658197 -0.01043949
v -0.00196257 0.00665146 -0.00812431
v -0.00236075 0.00698364 -0.00605440
v -0.00187432 0.00787312 -0.00517012
v -0.00154577 0.00640851 -0.00395793
v -0.00222106 0.01001365 -0.01341827
v -0.00255847 0.01007480 -0.00916722
v -0.00156318 0.00924454 -0.00782709
v -0.00199487 0.00871977 -0.00607231
v -0.00190758 0.01185448 -0.01314271
v -0.00216348 0.01211220 -0.01143438
v -0.00165889 0.01104108 -0.01009133
v -0.00244259 0.01287925 -0.01264830
v -0.00097384 -0.01098293 0.08236132
v 0.00009702 -0.01166816 0.08218374
v -0.00018657 -0.01054987 0.08144822
v 0.00038061 -0.01054987 0.08291926
v -0.00078259 -0.00865850 0.04690955
v 0.00026472 -0.00971579 0.04698699
v -0.00008157 -0.00885041 0.04555209
v -0.00062655 -0.00857300 0.04888032
v -0.00007146 -0.00967915 0.04835263
v 0.00026031 -0.00862556 0.04935981
v 0.00047589 -0.00880810 0.08128765
v -0.00028184 -0.00880810 0.08307983
v -0.00078662 -0.00654349 0.03412329
v 0.00027713 -0.00758340 0.03419752
v -0.00010024 -0.00676169 0.03286007
v -0.00087764 -0.00672268 0.03644086
v 0.00010988 -0.00766779 0.03589621
v -0.00078888 -0.00698230 0.03837865
v 0.00009805 -0.00761345 0.03803242
v -0.00063468 -0.00649737 0.04009236
v 0.00010273 -0.00752295 0.04015603
v -0.00052113 -0.00682574 0.04225866
v 0.00010669 -0.00746735 0.04224719
v -0.00064197 -0.00715973 0.04445750
v 0.00009624 -0.00786473 0.04418437
v -0.00080446 -0.00667666 0.04624522
v -0.00071680 -0.00694064 0.04818701
v -0.00007594 -0.00719353 0.04939337
v 0.00009702 -0.00815130 0.08218374
v -0.00078659 -0.00444189 0.01731506
v 0.00027712 -0.00548230 0.01738939
v -0.00010027 -0.00465904 0.01605173
v -0.00087774 -0.00462010 0.01963232
v 0.00010984 -0.00556607 0.01908775
v -0.00078848 -0.00488188 0.02156992
v 0.00009849 -0.00551121 0.02122438
v -0.00063459 -0.00442957 0.02328683
v 0.00010756 -0.00544522 0.02335801
v -0.00052643 -0.00478273 0.02547469
v 0.00011026 -0.00541327 0.02546588
v -0.00053083 -0.00472458 0.02755731
v 0.00009778 -0.00536092 0.02755076
v -0.00052643 -0.00466644 0.02963993
v 0.00009267 -0.00530993 0.02963456
v -0.00063459 -0.00501958 0.03182779
v 0.00008119 -0.00574887 0.03156234
v -0.00078848 -0.00456727 0.03354470
v -0.00087773 -0.00482944 0.03548234
v -0.00078666 -0.00500729 0.03780006
v -0.00010014 -0.00478752 0.03906371
v 0.00008711 -0.00576855 0.04035735
v 0.00010497 -0.00618265 0.04227245
v 0.00008901 -0.00612362 0.04438645
v 0.00010615 -0.00601358 0.04659372
v 0.00027745 -0.00614403 0.04839769
v 0.00023190 -0.00566320 0.05302375
v -0.00043934 -0.00461802 0.05171051
v -0.00117013 -0.00479448 0.05490596
v 0.00000746 -0.00427658 0.05409012
v -0.00118497 -0.00476088 0.05692748
v -0.00023003 -0.00492002 0.05805085
v -0.00002070 -0.00553802 0.05888041
v 0.00010012 -0.00472065 0.06001917
v -0.00078658 -0.00234050 0.00260741
v 0.00027631 -0.00338045 0.00268240
v -0.00009890 -0.00255851 0.00134320
v -0.00087772 -0.00251895 0.00492535
v 0.00010977 -0.00346485 0.00438078
v -0.00078840 -0.00278223 0.00686319
v 0.00009848 -0.00341123 0.00651759
v -0.00063500 -0.00232738 0.00857995
v 0.00010703 -0.00334456 0.00865036
v -0.00052597 -0.00264329 0.01076560
v 0.00010587 -0.00328731 0.01075072
v -0.00052597 -0.00260384 0.01283378
v 0.00009824 -0.00324014 0.01282909
v -0.00063499 -0.00291976 0.01501944
v 0.00008132 -0.00364994 0.01475346
v -0.00078839 -0.00246493 0.01673621
v -0.00087772 -0.00272802 0.01867416
v -0.00078663 -0.00290572 0.02099135
v -0.00010024 -0.00268745 0.02225454
v 0.00008118 -0.00370029 0.02355229
v 0.00009267 -0.00413924 0.02548007
v 0.00009778 -0.00408824 0.02756386
v 0.00011026 -0.00403589 0.02964874
v 0.00010756 -0.00400394 0.03175662
v 0.00009849 -0.00393794 0.03389024
v 0.00010984 -0.00388350 0.03602690
v 0.00027696 -0.00396880 0.03772553
v 0.00062615 -0.00271080 0.05173308
v -0.00092076 -0.00260334 0.05460714
v 0.00022436 -0.00328982 0.05517800
v -0.00034749 -0.00256850 0.05653301
v 0.00023358 -0.00307212 0.05677919
v 0.00007796 -0.00262092 0.05760004
v 0.00027216 -0.00396917 0.05874637
v -0.00085879 -0.00031551 -0.00997381
v 0.00031182 -0.00141170 -0.00987684
v -0.00009633 -0.00013041 -0.01096822
v 0.00044332 -0.00195043 -0.00799239
v -0.00026247 -0.00190946 -0.00639600
v -0.00081076 -0.00034506 -0.00388207
v 0.00000062 -0.00136172 -0.00416871
v -0.00051195 -0.00052723 -0.00188497
v 0.00014026 -0.00113455 -0.00185172
v -0.00063198 -0.00083563 0.00029946
v 0.00010631 -0.00155784 0.00004423
v -0.00078981 -0.00036444 0.00202841
v -0.00087747 -0.00062614 0.00396688
v -0.00078655 -0.00080525 0.00628431
v -0.00010027 -0.00058811 0.00754767
v 0.00008132 -0.00159720 0.00884593
v 0.00009824 -0.00200699 0.01077030
v 0.00010587 -0.00195982 0.01284866
v 0.00010703 -0.00190258 0.01494902
v 0.00009848 -0.00183592 0.01708180
v 0.00010984 -0.00178212 0.01921875
v 0.00027712 -0.00186576 0.02091712
v -0.00025051 -0.00154062 0.05262659
v 0.00016197 -0.00173111 0.05462160
v 0.00024134 -0.00209975 0.05679723
v -0.00040443 0.00122082 -0.01060329
v 0.00026356 0.00128585 -0.01089539
v -0.00123321 0.00154874 -0.00781099
v 0.00017177 0.00054600 -0.00854491
v 0.00008421 0.00117966 -0.00986429
v 0.00001094 0.00088748 -0.00564908
v -0.00118834 0.00179802 -0.00618092
v -0.00007201 0.00013386 -0.00362637
v 0.00009403 0.00010620 -0.00186557
v 0.00009080 0.00018265 0.00024897
v 0.00009666 0.00026501 0.00237570
v 0.00010992 0.00031927 0.00451108
v 0.00027714 0.00023514 0.00620996
v 0.00012715 0.00210143 -0.01038768
v 0.00013275 0.00515249 -0.00395793
v -0.00036120 0.00578050 -0.00458594
v 0.00006129 0.00578050 -0.00332992
v -0.00097078 0.00833101 -0.01258617
v -0.00008747 0.00768730 -0.01147864
v 0.00022247 0.00695501 -0.01019716
v 0.00016495 0.00663870 -0.00813249
v -0.00024016 0.00698369 -0.00605218
v 0.00020757 0.00785286 -0.00517702
v 0.00055525 0.00640851 -0.00395793
v -0.00086588 0.01061755 -0.01227284
v 0.00031921 0.00933238 -0.01128426
v -0.00002299 0.00980321 -0.00931421
v 0.00038837 0.00915677 -0.00763856
v 0.00010524 0.00872736 -0.00607881
v -0.00139499 0.01216718 -0.01247757
v -0.00020146 0.01077938 -0.01065639
v 0.00116788 -0.01098293 0.08200616
v 0.00096662 -0.00841661 0.04642160
v 0.00082188 -0.00917951 0.04830946
v 0.00224527 -0.00988541 0.08237923
v 0.00198122 -0.00943357 0.08153826
v 0.00182150 -0.00890896 0.08282991
v 0.00095971 -0.00630563 0.03367462
v 0.00107210 -0.00674138 0.03591986
v 0.00099611 -0.00699110 0.03773942
v 0.00082846 -0.00663905 0.03996958
v 0.00073278 -0.00682426 0.04226098
v 0.00082990 -0.00697890 0.04460269
v 0.00101375 -0.00664387 0.04693661
v 0.00090566 -0.00740610 0.04859682
v 0.00204456 -0.00829137 0.08196767
v 0.00095962 -0.00420353 0.01686633
v 0.00107217 -0.00463968 0.01911150
v 0.00099629 -0.00488839 0.02093119
v 0.00082748 -0.00455282 0.02317005
v 0.00072936 -0.00476978 0.02547126
v 0.00072638 -0.00472458 0.02755731
v 0.00072936 -0.00467939 0.02964337
v 0.00082748 -0.00489634 0.03194457
v 0.00099629 -0.00456075 0.03418343
v 0.00107211 -0.00481002 0.03600324
v 0.00095967 -0.00524541 0.03824837
v 0.00269007 -0.00579408 0.05253871
v 0.00181250 -0.00459727 0.05170338
v 0.00164240 -0.00469462 0.05500693
v 0.00230407 -0.00563293 0.05446229
v 0.00121936 -0.00463314 0.05716234
v 0.00217360 -0.00549095 0.05729254
v 0.00194706 -0.00542390 0.05941584
v 0.00197156 -0.00452522 0.05989298
v 0.00095992 -0.00210253 0.00215955
v 0.00107185 -0.00253851 0.00440423
v 0.00099624 -0.00278802 0.00622423
v 0.00082755 -0.00245181 0.00846297
v 0.00073008 -0.00265102 0.01075542
v 0.00073008 -0.00259612 0.01284397
v 0.00082754 -0.00279533 0.01513642
v 0.00099623 -0.00245914 0.01737516
v 0.00107216 -0.00270846 0.01919501
v 0.00095971 -0.00314353 0.02144001
v 0.00289419 -0.00272337 0.05177038
v 0.00199533 -0.00304620 0.05407286
v 0.00080167 -0.00257690 0.05564031
v 0.00249513 -0.00405504 0.05504585
v 0.00223305 -0.00396706 0.05708078
v 0.00058224 -0.00260808 0.05709292
v 0.00243330 -0.00401630 0.05888673
v 0.00075299 0.00008850 -0.01026610
v 0.00181204 -0.00032285 -0.00922569
v 0.00215341 -0.00146971 -0.00816697
v 0.00174542 -0.00147749 -0.00589950
v 0.00118099 -0.00023066 -0.00403084
v 0.00263048 -0.00011415 -0.00513572
v 0.00074624 -0.00050113 -0.00183232
v 0.00083195 -0.00069869 0.00044635
v 0.00099550 -0.00035784 0.00266850
v 0.00107185 -0.00060721 0.00448746
v 0.00095961 -0.00104362 0.00673304
v 0.00210255 -0.00170803 0.05285213
v 0.00063292 0.00158431 -0.01037447
v 0.00251247 0.00124434 -0.00876721
v 0.00153390 0.00135654 -0.00829698
v 0.00134163 0.00178716 -0.00664409
v 0.00201257 0.00123302 -0.00521623
v 0.00217043 0.00230431 -0.00776565
v 0.00248048 0.00229444 -0.00643360
v 0.00223377 0.00515249 -0.00395793
v 0.00173981 0.00578050 -0.00458594
v 0.00216231 0.00578050 -0.00332992
v 0.00104202 0.00847946 -0.01015199
v 0.00232275 0.00784710 -0.00923894
v 0.00245225 0.00687970 -0.00820604
v 0.00183511 0.00696071 -0.00606806
v 0.00229505 0.00784945 -0.00519233
v 0.00265627 0.00640851 -0.00395793
v 0.00079509 0.00983718 -0.01030597
v 0.00210953 0.00890154 -0.00816818
v 0.00222389 0.00874895 -0.00609731
v 0.00291005 -0.00882697 0.08220190
v 0.00410739 -0.00550429 0.05308138
v 0.00394800 -0.00460442 0.05186433
v 0.00335555 -0.00481679 0.05493910
v 0.00431424 -0.00410191 0.05359648
v 0.00298973 -0.00478101 0.05707352
v 0.00294497 -0.00491066 0.05892739
v 0.00464927 -0.00299872 0.05200896
v 0.00413690 -0.00242359 0.05327708
v 0.00314272 0.00006981 -0.00803571
v 0.00312676 -0.00064558 -0.00646688
v 0.00416120 -0.00192423 0.05251767
v 0.00301192 0.00179797 -0.00775455
v 0.00315871 0.00105316 -0.00622339
v 0.00433478 0.00515249 -0.00395793
v 0.00384083 0.00578050 -0.00458594
v 0.00426332 0.00578050 -0.00332992
v 0.00478632 0.00693610 -0.00801254
v 0.00424880 0.00785945 -0.00892488
v 0.00389198 0.00694535 -0.00611417
v 0.00439907 0.00786206 -0.00519465
v 0.00475728 0.00640851 -0.00395793
v 0.00427384 0.00877948 -0.00797012
v 0.00435492 0.00878292 -0.00611261
v 0.00513101 -0.00434797 0.05248111
v 0.00516013 -0.00294856 0.05280269
v 0.00643580 0.00515249 -0.00395793
v 0.00594184 0.00578050 -0.00458594
v 0.00636435 0.00578050 -0.00332993
v 0.00686317 0.00693157 -0.00805544
v 0.00631255 0.00788417 -0.00898898
v 0.00596065 0.00693425 -0.00614520
v 0.00650032 0.00787777 -0.00520063
v 0.00685833 0.00640850 -0.00395794
v 0.00634335 0.00882918 -0.00802572
v 0.00646135 0.00882420 -0.00613340
v 0.00853691 0.00515247 -0.00395793
v 0.00804292 0.00578049 -0.00458596
v 0.00846546 0.00578049 -0.00332990
v 0.00895639 0.00692911 -0.00806299
v 0.00840152 0.00788191 -0.00901543
v 0.00804535 0.00693021 -0.00615908
v 0.00859960 0.00788288 -0.00520673
v 0.00895942 0.00640852 -0.00395790
v 0.00843887 0.00883506 -0.00806273
v 0.00856077 0.00883534 -0.00615818
v 0.01063756 0.00515255 -0.00395769
v 0.01014391 0.00578052 -0.00458586
v 0.01056539 0.00578070 -0.00332951
v 0.01105532 0.00692877 -0.00806261
v 0.01050059 0.00788107 -0.00901575
v 0.01014588 0.00692941 -0.00615802
v 0.01070085 0.00788213 -0.00520605
v 0.01105819 0.00640888 -0.00395740
v 0.01053907 0.00883394 -0.00806383
v 0.01066193 0.00883442 -0.00615902
v 0.01273444 0.00515292 -0.00395862
v 0.01224128 0.00578101 -0.00458559
v 0.01266280 0.00578008 -0.00333097
v 0.01315305 0.00693050 -0.00806184
v 0.01259844 0.00788314 -0.00901207
v 0.01224402 0.00692920 -0.00615742
v 0.01279889 0.00788109 -0.00520552
v 0.01315599 0.00640764 -0.00395832
v 0.01263814 0.00883337 -0.00806097
v 0.01276118 0.00883256 -0.00615800
v 0.01399103 -0.01546631 -0.03303984
v 0.01521547 -0.01606168 -0.03330536
v 0.01501743 -0.01508956 -0.03409052
v 0.01398874 -0.01512136 -0.03169293
v 0.01445872 -0.01597854 -0.03167111
v 0.01525015 -0.01512126 -0.03052026
v 0.01448459 -0.01458939 -0.03306211
v 0.01483764 -0.01426092 -0.03174451
v 0.01485402 0.00514905 -0.00396898
v 0.01434401 0.00578022 -0.00459025
v 0.01480564 0.00577073 -0.00333936
v 0.01531495 0.00693010 -0.00806744
v 0.01474744 0.00790116 -0.00899192
v 0.01434681 0.00692399 -0.00615934
v 0.01491737 0.00786877 -0.00520106
v 0.01532522 0.00639893 -0.00396553
v 0.01478161 0.00884420 -0.00802699
v 0.01489663 0.00882630 -0.00613596
v 0.01395204 0.02242094 -0.03305847
v 0.01520106 0.02178293 -0.03329332
v 0.01497874 0.02277582 -0.03409024
v 0.01397758 0.02276006 -0.03163610
v 0.01446748 0.02187801 -0.03166141
v 0.01502347 0.02240404 -0.03057040
v 0.01475447 0.02339707 -0.03280111
v 0.01505847 0.02329351 -0.03105960
v 0.01748087 -0.01621187 -0.03329399
v 0.01691926 -0.01526594 -0.03426816
v 0.01629086 -0.01626343 -0.03143486
v 0.01725164 -0.01558423 -0.03015634
v 0.01657385 -0.01406095 -0.03314540
v 0.01595000 -0.01347396 -0.03112631
v 0.01726644 -0.01312346 -0.03204449
v 0.01702786 -0.01410855 -0.02933481
v 0.01613663 -0.01291888 -0.02900421
v 0.01610533 -0.01267906 -0.02650685
v 0.01673070 -0.01374849 -0.02740004
v 0.01706744 -0.01298415 -0.02591450
v 0.01670580 -0.01255569 -0.03098000
v 0.01687432 -0.01207648 -0.02944434
v 0.01706170 -0.01110818 -0.02801888
v 0.01610139 -0.01138095 -0.02741474
v 0.01671954 -0.01190201 -0.02490706
v 0.01624934 -0.01096585 -0.02530990
v 0.01690571 -0.01084518 -0.02430657
v 0.01673060 -0.01031089 -0.02649314
v 0.01708931 -0.01031282 -0.02512733
v 0.01688553 -0.00908818 -0.02358859
v 0.01626375 -0.00897661 -0.02260295
v 0.01709168 -0.00963874 -0.02280129
v 0.01596227 -0.00884729 -0.02044727
v 0.01690976 -0.00979500 -0.02100090
v 0.01594406 -0.00891562 -0.01821354
v 0.01687389 -0.00983824 -0.01873971
v 0.01611463 -0.00871784 -0.01616879
v 0.01674260 -0.00975143 -0.01700199
v 0.01707202 -0.00895069 -0.01559784
v 0.01672479 -0.00804139 -0.02295284
v 0.01707994 -0.00700274 -0.02191931
v 0.01612034 -0.00724622 -0.02137482
v 0.01590136 -0.00674203 -0.01896335
v 0.01565939 -0.00686788 -0.01657930
v 0.01674099 -0.00796893 -0.01469277
v 0.01604026 -0.00675324 -0.01430603
v 0.01709066 -0.00669509 -0.01350588
v 0.01640555 -0.00649000 0.04243686
v 0.01690515 -0.00736679 0.04226443
v 0.01673272 -0.00649000 0.04176482
v 0.01707758 -0.00649000 0.04276404
v 0.01673834 -0.00616769 -0.02044635
v 0.01692254 -0.00567372 -0.01884354
v 0.01709677 -0.00478337 -0.01748808
v 0.01611230 -0.00500660 -0.01696402
v 0.01590353 -0.00459247 -0.01466413
v 0.01691539 -0.00580356 -0.01216443
v 0.01590551 -0.00476311 -0.01206900
v 0.01611322 -0.00428241 -0.00965952
v 0.01673284 -0.00535588 -0.01056120
v 0.01707973 -0.00454874 -0.00910439
v 0.01640555 -0.00506018 0.04209200
v 0.01707758 -0.00506018 0.04176482
v 0.01673272 -0.00506018 0.04276404
v 0.01671330 -0.00401075 -0.01611999
v 0.01689805 -0.00352349 -0.01461186
v 0.01709232 -0.00259587 -0.01327751
v 0.01610609 -0.00287787 -0.01272206
v 0.01594484 -0.00269037 -0.01061000
v 0.01672467 -0.00350944 -0.00807405
v 0.01626988 -0.00256086 -0.00845645
v 0.01688807 -0.00246320 -0.00743926
v 0.01690515 -0.00418340 0.04226443
v 0.01669647 -0.00182899 -0.01187048
v 0.01689700 -0.00174075 -0.01007746
v 0.01710654 -0.00190861 -0.00825353
v 0.01610520 0.00154463 -0.03084727
v 0.01710683 0.00077652 -0.03109576
v 0.01670894 0.00177671 -0.03210693
v 0.01601456 0.00131726 -0.02881736
v 0.01690674 0.00069374 -0.02917791
v 0.01626991 0.00192258 -0.02732486
v 0.01670014 0.00087189 -0.02728357
v 0.01690000 0.00139593 -0.02643030
v 0.01592946 0.00364973 -0.03130733
v 0.01690762 0.00364321 -0.03222455
v 0.01586862 0.00357994 -0.02883205
v 0.01690367 0.00370492 -0.02763805
v 0.01712294 0.00236832 -0.02707392
v 0.01620490 0.00550816 -0.03156692
v 0.01709815 0.00551497 -0.03205819
v 0.01593871 0.00577625 -0.02972863
v 0.01668643 0.00505836 -0.02706683
v 0.01626992 0.00592162 -0.02743134
v 0.01690804 0.00605467 -0.02639027
v 0.01706446 0.00514729 -0.00394450
v 0.01654261 0.00577150 -0.00458712
v 0.01704814 0.00578974 -0.00334166
v 0.01670308 0.00654964 -0.03100269
v 0.01690305 0.00667204 -0.02910324
v 0.01711608 0.00652829 -0.02722817
v 0.01757079 0.00692950 -0.00805450
v 0.01698372 0.00787913 -0.00900962
v 0.01652753 0.00691311 -0.00616041
v 0.01710018 0.00788009 -0.00517053
v 0.01760156 0.00639784 -0.00397372
v 0.01701970 0.00884261 -0.00804313
v 0.01710936 0.00884136 -0.00611526
v 0.01749328 0.02162037 -0.03326323
v 0.01688788 0.02258486 -0.03425591
v 0.01631702 0.02162037 -0.03138007
v 0.01692243 0.02258486 -0.03038739
v 0.01687640 0.02355740 -0.03329702
v 0.01693391 0.02355740 -0.03134628
v 0.01934130 -0.01597266 -0.03301094
v 0.01881518 -0.01545267 -0.03408419
v 0.01858626 -0.01612475 -0.03143585
v 0.01875965 -0.01497870 -0.03050242
v 0.01876913 -0.01458502 -0.03365150
v 0.01898555 -0.01422216 -0.03203054
v 0.01787194 -0.01326531 -0.03072550
v 0.01769982 -0.01254766 -0.02883182
v 0.01769316 -0.01296368 -0.02708726
v 0.01769415 -0.01109613 -0.02681084
v 0.01755609 -0.01147037 -0.02517232
v 0.01753845 -0.00851378 -0.02272247
v 0.01784015 -0.00887529 -0.02100938
v 0.01785878 -0.00894954 -0.01874003
v 0.01770060 -0.00899095 -0.01664982
v 0.01769961 -0.00699160 -0.02079621
v 0.01791590 -0.00668617 -0.01863968
v 0.01815559 -0.00689613 -0.01654678
v 0.01777244 -0.00708498 -0.01460570
v 0.01740476 -0.00649000 0.04209200
v 0.01769795 -0.00478415 -0.01646154
v 0.01790311 -0.00446240 -0.01437382
v 0.01790911 -0.00479946 -0.01239528
v 0.01771155 -0.00454264 -0.01023076
v 0.01740476 -0.00506018 0.04243686
v 0.01769429 -0.00256648 -0.01218049
v 0.01785355 -0.00266331 -0.01005920
v 0.01754484 -0.00303993 -0.00830853
v 0.01771187 0.00198588 -0.03131414
v 0.01781077 0.00129133 -0.02953344
v 0.01753851 0.00147280 -0.02746386
v 0.01787575 0.00425012 -0.03128773
v 0.01794172 0.00335218 -0.02883223
v 0.01759848 0.00606276 -0.03100724
v 0.01786369 0.00575627 -0.02913762
v 0.01754164 0.00546830 -0.02729496
v 0.01884831 0.00528388 -0.00377397
v 0.01869266 0.00575840 -0.00441903
v 0.01885817 0.00596173 -0.00347184
v 0.01933752 0.00717754 -0.00777417
v 0.01880207 0.00771251 -0.00885681
v 0.01866244 0.00707472 -0.00614385
v 0.01888219 0.00804505 -0.00531445
v 0.01916304 0.00631823 -0.00398122
v 0.01878891 0.00859549 -0.00834628
v 0.01909177 0.00867919 -0.00659535
v 0.01934283 0.02187801 -0.03298189
v 0.01878683 0.02240404 -0.03407290
v 0.01860924 0.02178293 -0.03134998
v 0.01883157 0.02277582 -0.03055306
v 0.01875184 0.02329351 -0.03358371
v 0.01905584 0.02339707 -0.03184220
v 0.01985304 -0.01512287 -0.03307984
v 0.01984149 -0.01546525 -0.03171596
v 0.01967111 0.00578195 -0.00395405
v 0.01982251 0.00805477 -0.00779457
v 0.01984746 0.00771089 -0.00637123
v 0.01983272 0.02276006 -0.03300720
v 0.01985827 0.02242094 -0.03158483
f 3 2 1
f 5 4 1
f 5 1 2
f 6 4 5
f 7 3 1
f 7 1 4
f 7 4 8
f 8 4 6
f 11 10 9
f 12 9 10
f 15 14 13
f 17 16 13
f 17 13 14
f 11 9 18
f 17 19 16
f 18 9 12
f 20 15 13
f 20 13 16
f 20 16 21
f 21 16 19
f 24 23 22
f 26 25 22
f 26 22 23
f 27 25 26
f 28 24 22
f 28 22 25
f 28 25 29
f 29 25 27
f 31 30 2
f 31 2 3
f 2 32 5
f 30 32 2
f 6 5 32
f 6 32 33
f 34 31 3
f 34 3 7
f 36 34 35
f 34 8 35
f 34 7 8
f 6 33 37
f 35 6 37
f 38 35 37
f 8 6 35
f 40 39 38
f 40 38 37
f 41 39 40
f 42 36 35
f 42 35 38
f 42 38 43
f 45 44 43
f 38 45 43
f 39 45 38
f 39 41 46
f 47 39 46
f 45 39 47
f 48 47 46
f 49 44 45
f 49 45 47
f 49 47 50
f 53 52 51
f 48 50 47
f 55 54 52
f 55 52 53
f 57 56 54
f 57 54 55
f 59 58 56
f 59 56 57
f 60 58 59
f 61 51 52
f 63 62 61
f 52 63 61
f 54 63 52
f 64 54 56
f 63 54 64
f 65 56 58
f 64 56 65
f 58 60 66
f 67 58 66
f 65 58 67
f 68 67 66
f 71 70 69
f 72 69 70
f 73 62 63
f 73 63 64
f 73 64 74
f 76 75 74
f 64 76 74
f 65 76 64
f 77 65 67
f 76 65 77
f 67 68 78
f 79 67 78
f 77 67 79
f 81 80 79
f 81 79 78
f 82 80 81
f 71 69 83
f 71 83 84
f 69 72 85
f 69 85 83
f 86 75 76
f 86 76 77
f 86 77 87
f 89 88 87
f 77 89 87
f 79 89 77
f 90 79 80
f 89 79 90
f 80 82 91
f 92 80 91
f 90 80 92
f 93 92 91
f 94 84 83
f 94 83 85
f 95 88 89
f 95 89 90
f 95 90 96
f 96 90 92
f 96 92 97
f 97 92 93
f 100 99 98
f 102 101 98
f 102 98 99
f 104 103 101
f 104 101 102
f 105 103 104
f 100 98 106
f 100 106 107
f 108 98 101
f 106 98 108
f 103 110 109
f 108 103 109
f 101 103 108
f 110 103 105
f 107 106 111
f 107 111 112
f 113 106 108
f 111 106 113
f 108 109 114
f 115 108 114
f 113 108 115
f 116 115 114
f 118 117 10
f 118 10 11
f 12 10 117
f 12 117 119
f 120 112 111
f 120 111 113
f 120 113 121
f 121 113 115
f 121 115 122
f 122 115 116
f 124 123 14
f 124 14 15
f 14 125 17
f 123 125 14
f 125 19 17
f 19 125 126
f 11 18 118
f 127 118 18
f 18 12 119
f 18 119 127
f 128 124 15
f 128 15 20
f 129 20 21
f 129 128 20
f 21 19 126
f 21 126 129
f 131 130 23
f 131 23 24
f 23 132 26
f 130 132 23
f 27 26 132
f 27 132 133
f 134 131 24
f 134 24 28
f 135 28 29
f 135 134 28
f 29 27 133
f 29 133 135
f 137 136 30
f 137 30 31
f 30 138 32
f 136 138 30
f 33 32 138
f 33 138 139
f 140 137 31
f 140 31 34
f 142 141 36
f 141 34 36
f 141 140 34
f 142 143 37
f 139 142 37
f 33 139 37
f 142 139 141
f 144 40 37
f 144 37 143
f 144 41 40
f 42 142 36
f 142 42 43
f 142 43 143
f 143 43 44
f 145 143 44
f 144 143 145
f 146 46 41
f 144 146 41
f 145 146 144
f 146 48 46
f 49 145 44
f 145 49 50
f 145 50 146
f 48 146 50
f 53 51 147
f 148 55 53
f 148 53 147
f 149 57 55
f 149 55 148
f 150 59 57
f 150 57 149
f 150 60 59
f 61 147 51
f 147 61 62
f 151 147 62
f 148 147 151
f 148 152 149
f 148 151 152
f 149 153 150
f 149 152 153
f 154 66 60
f 150 154 60
f 153 154 150
f 154 68 66
f 71 155 70
f 155 72 70
f 73 151 62
f 151 73 74
f 151 74 152
f 152 74 75
f 156 152 75
f 153 152 156
f 153 157 154
f 153 156 157
f 158 78 68
f 154 158 68
f 157 158 154
f 159 81 78
f 159 78 158
f 159 82 81
f 84 160 155
f 84 155 71
f 160 85 72
f 160 72 155
f 86 156 75
f 156 86 87
f 156 87 157
f 157 87 88
f 161 157 88
f 158 157 161
f 158 162 159
f 158 161 162
f 163 91 82
f 159 163 82
f 162 163 159
f 163 93 91
f 94 160 84
f 160 94 85
f 95 161 88
f 161 95 96
f 161 96 162
f 162 96 97
f 162 97 163
f 163 97 93
f 100 164 99
f 165 102 99
f 165 99 164
f 166 104 102
f 166 102 165
f 166 105 104
f 107 167 164
f 107 164 100
f 164 168 165
f 164 167 168
f 168 109 110
f 166 168 110
f 165 168 166
f 166 110 105
f 112 169 167
f 112 167 107
f 167 170 168
f 167 169 170
f 171 114 109
f 168 171 109
f 170 171 168
f 171 116 114
f 173 172 117
f 173 117 118
f 119 117 172
f 119 172 174
f 120 169 112
f 169 120 121
f 169 121 170
f 170 121 122
f 170 122 171
f 171 122 116
f 176 175 123
f 176 123 124
f 123 177 125
f 175 177 123
f 177 126 125
f 126 177 178
f 118 127 173
f 179 173 127
f 127 119 174
f 127 174 179
f 180 176 124
f 180 124 128
f 181 128 129
f 181 180 128
f 129 126 178
f 129 178 181
f 183 182 130
f 183 130 131
f 130 184 132
f 182 184 130
f 133 132 184
f 133 184 185
f 186 183 131
f 186 131 134
f 187 134 135
f 187 186 134
f 135 133 185
f 135 185 187
f 137 188 136
f 189 138 136
f 189 136 188
f 189 139 138
f 140 188 137
f 188 140 141
f 188 141 189
f 189 141 139
f 191 190 172
f 191 172 173
f 174 172 190
f 174 190 192
f 194 193 175
f 194 175 176
f 175 195 177
f 193 195 175
f 195 178 177
f 178 195 196
f 173 179 191
f 197 191 179
f 179 174 192
f 179 192 197
f 198 194 176
f 198 176 180
f 199 180 181
f 199 198 180
f 181 178 196
f 181 196 199
f 183 200 182
f 201 184 182
f 201 182 200
f 201 185 184
f 186 200 183
f 200 186 187
f 200 187 201
f 201 187 185
f 203 202 190
f 203 190 191
f 192 190 202
f 192 202 204
f 206 205 193
f 206 193 194
f 193 207 195
f 205 207 193
f 207 196 195
f 196 207 208
f 191 197 203
f 209 203 197
f 197 192 204
f 197 204 209
f 210 206 194
f 210 194 198
f 211 198 199
f 211 210 198
f 199 196 208
f 199 208 211
f 213 212 202
f 213 202 203
f 204 202 212
f 204 212 214
f 216 215 205
f 216 205 206
f 205 217 207
f 215 217 205
f 217 208 207
f 208 217 218
f 203 209 213
f 219 213 209
f 209 204 214
f 209 214 219
f 220 216 206
f 220 206 210
f 221 210 211
f 221 220 210
f 211 208 218
f 211 218 221
f 223 222 212
f 223 212 213
f 214 212 222
f 214 222 224
f 226 225 215
f 226 215 216
f 215 227 217
f 225 227 215
f 227 218 217
f 218 227 228
f 213 219 223
f 229 223 219
f 219 214 224
f 219 224 229
f 230 226 216
f 230 216 220
f 231 220 221
f 231 230 220
f 221 218 228
f 221 228 231
f 234 233 232
f 235 232 233
f 234 232 236
f 234 236 237
f 232 235 238
f 232 238 236
f 239 237 236
f 239 236 238
f 241 240 222
f 241 222 223
f 224 222 240
f 224 240 242
f 245 244 243
f 247 246 243
f 247 243 244
f 225 226 246
f 247 225 246
f 248 225 247
f 225 249 227
f 248 249 225
f 249 228 227
f 228 249 250
f 223 229 241
f 251 241 229
f 229 224 242
f 229 242 251
f 245 243 252
f 245 252 253
f 254 243 246
f 252 243 254
f 254 246 226
f 255 254 226
f 230 255 226
f 256 254 255
f 257 230 231
f 257 255 230
f 231 228 250
f 231 250 257
f 253 252 258
f 253 258 259
f 254 261 260
f 258 254 260
f 252 254 258
f 261 254 256
f 262 259 258
f 262 258 260
f 265 264 263
f 266 263 264
f 267 265 263
f 267 263 266
f 269 268 233
f 269 233 234
f 271 270 235
f 233 271 235
f 268 271 233
f 273 272 270
f 273 270 271
f 275 274 272
f 275 272 273
f 276 274 275
f 237 269 234
f 237 277 269
f 279 278 270
f 278 235 270
f 278 238 235
f 279 270 272
f 279 272 280
f 280 272 274
f 280 274 281
f 281 274 276
f 284 283 282
f 286 285 282
f 286 282 283
f 287 285 286
f 288 277 237
f 288 237 239
f 239 238 278
f 239 278 288
f 284 282 289
f 284 289 290
f 291 282 285
f 289 282 291
f 285 287 292
f 285 292 291
f 293 290 289
f 293 289 291
f 293 291 294
f 294 291 292
f 296 295 240
f 296 240 241
f 242 240 295
f 242 295 297
f 299 298 244
f 299 244 245
f 244 300 247
f 298 300 244
f 247 301 248
f 300 301 247
f 248 302 249
f 301 302 248
f 302 250 249
f 250 302 303
f 241 251 296
f 304 296 251
f 251 242 297
f 251 297 304
f 253 299 245
f 253 305 299
f 307 306 255
f 255 306 256
f 308 255 257
f 308 307 255
f 257 250 303
f 257 303 308
f 259 305 253
f 259 309 305
f 311 310 261
f 261 310 260
f 261 256 306
f 261 306 311
f 312 309 259
f 312 259 262
f 262 260 310
f 262 310 312
f 315 314 313
f 316 313 314
f 319 318 317
f 321 320 317
f 321 317 318
f 322 320 321
f 315 313 264
f 265 315 264
f 323 315 265
f 266 264 313
f 316 266 313
f 324 266 316
f 327 326 325
f 329 328 325
f 329 325 326
f 331 330 328
f 331 328 329
f 333 332 330
f 333 330 331
f 335 334 332
f 335 332 333
f 337 336 334
f 337 334 335
f 336 337 319
f 317 336 319
f 338 336 317
f 339 317 320
f 338 317 339
f 320 322 340
f 320 340 339
f 341 323 265
f 341 265 267
f 267 266 324
f 267 324 341
f 344 343 342
f 346 345 342
f 346 342 343
f 348 347 345
f 348 345 346
f 350 349 347
f 350 347 348
f 352 351 349
f 352 349 350
f 354 353 351
f 354 351 352
f 356 355 353
f 356 353 354
f 358 357 355
f 358 355 356
f 357 358 327
f 325 357 327
f 359 357 325
f 360 325 328
f 359 325 360
f 361 328 330
f 360 328 361
f 332 363 362
f 361 332 362
f 330 332 361
f 363 332 334
f 363 334 364
f 364 334 336
f 364 336 365
f 365 336 338
f 365 338 366
f 366 338 339
f 366 339 367
f 367 339 340
f 369 368 268
f 369 268 269
f 368 371 370
f 271 368 370
f 268 368 271
f 372 273 271
f 372 271 370
f 273 372 373
f 374 273 373
f 275 273 374
f 276 275 374
f 276 374 375
f 378 377 376
f 380 379 376
f 380 376 377
f 382 381 379
f 382 379 380
f 384 383 381
f 384 381 382
f 386 385 383
f 386 383 384
f 388 387 385
f 388 385 386
f 390 389 387
f 390 387 388
f 389 390 344
f 342 389 344
f 391 389 342
f 392 342 345
f 391 342 392
f 393 345 347
f 392 345 393
f 349 395 394
f 393 349 394
f 347 349 393
f 395 349 351
f 395 351 396
f 396 351 353
f 396 353 397
f 397 353 355
f 397 355 398
f 398 355 357
f 398 357 399
f 399 357 359
f 399 359 400
f 400 359 360
f 400 360 401
f 401 360 361
f 401 361 402
f 402 361 362
f 277 369 269
f 277 403 369
f 405 404 371
f 404 278 371
f 279 370 371
f 279 371 278
f 407 406 405
f 404 405 406
f 370 280 372
f 280 370 279
f 407 408 406
f 373 372 409
f 280 409 372
f 409 280 281
f 281 276 375
f 281 375 409
f 412 411 410
f 283 284 410
f 411 283 410
f 413 283 411
f 283 414 286
f 413 414 283
f 416 415 287
f 286 416 287
f 414 416 286
f 418 417 415
f 418 415 416
f 420 419 417
f 420 417 418
f 419 420 378
f 376 419 378
f 421 419 376
f 422 376 379
f 421 376 422
f 423 379 381
f 422 379 423
f 383 425 424
f 423 383 424
f 381 383 423
f 425 383 385
f 425 385 426
f 426 385 387
f 426 387 427
f 427 387 389
f 427 389 428
f 428 389 391
f 428 391 429
f 429 391 392
f 429 392 430
f 430 392 393
f 430 393 431
f 431 393 394
f 432 403 277
f 432 277 288
f 288 278 404
f 433 288 404
f 432 288 433
f 433 404 406
f 433 406 434
f 434 406 408
f 412 410 435
f 412 435 436
f 290 437 284
f 438 284 437
f 284 438 410
f 439 410 438
f 410 439 435
f 441 440 437
f 437 440 438
f 442 440 415
f 440 292 415
f 292 287 415
f 440 441 292
f 442 415 417
f 442 417 443
f 443 417 419
f 443 419 444
f 444 419 421
f 444 421 445
f 445 421 422
f 445 422 446
f 446 422 423
f 446 423 447
f 447 423 424
f 448 436 435
f 290 293 437
f 435 439 448
f 437 293 294
f 437 294 441
f 441 294 292
f 450 449 295
f 450 295 296
f 297 295 449
f 297 449 451
f 299 452 298
f 298 452 453
f 454 298 453
f 300 298 454
f 300 455 301
f 454 455 300
f 301 456 302
f 455 456 301
f 456 303 302
f 303 456 457
f 296 304 450
f 458 450 304
f 304 297 451
f 304 451 458
f 305 459 452
f 305 452 299
f 453 452 460
f 460 452 459
f 462 461 307
f 307 461 306
f 463 307 308
f 463 462 307
f 308 303 457
f 308 457 463
f 309 464 459
f 309 459 305
f 311 465 310
f 465 459 310
f 459 464 310
f 459 465 460
f 311 306 461
f 311 461 465
f 312 464 309
f 464 312 310
f 315 466 314
f 466 316 314
f 319 467 318
f 468 321 318
f 468 318 467
f 468 322 321
f 470 469 466
f 315 470 466
f 323 470 315
f 316 466 469
f 471 316 469
f 324 316 471
f 327 472 326
f 473 329 326
f 473 326 472
f 474 331 329
f 474 329 473
f 475 333 331
f 475 331 474
f 476 335 333
f 476 333 475
f 477 337 335
f 477 335 476
f 467 319 337
f 477 467 337
f 478 467 477
f 467 479 468
f 467 478 479
f 479 340 322
f 479 322 468
f 480 470 323
f 480 323 341
f 341 324 471
f 341 471 480
f 344 481 343
f 482 346 343
f 482 343 481
f 483 348 346
f 483 346 482
f 484 350 348
f 484 348 483
f 485 352 350
f 485 350 484
f 486 354 352
f 486 352 485
f 487 356 354
f 487 354 486
f 488 358 356
f 488 356 487
f 472 327 358
f 488 472 358
f 489 472 488
f 472 490 473
f 472 489 490
f 473 491 474
f 473 490 491
f 491 362 363
f 475 491 363
f 474 491 475
f 475 363 364
f 475 364 476
f 476 364 365
f 476 365 477
f 477 365 366
f 477 366 478
f 478 366 367
f 478 367 479
f 479 367 340
f 493 492 368
f 493 368 369
f 495 494 371
f 368 495 371
f 492 495 368
f 497 496 494
f 497 494 495
f 374 373 496
f 497 374 496
f 498 374 497
f 375 374 498
f 375 498 499
f 378 500 377
f 501 380 377
f 501 377 500
f 502 382 380
f 502 380 501
f 503 384 382
f 503 382 502
f 504 386 384
f 504 384 503
f 505 388 386
f 505 386 504
f 506 390 388
f 506 388 505
f 481 344 390
f 506 481 390
f 507 481 506
f 481 508 482
f 481 507 508
f 482 509 483
f 482 508 509
f 509 394 395
f 484 509 395
f 483 509 484
f 484 395 396
f 484 396 485
f 485 396 397
f 485 397 486
f 486 397 398
f 486 398 487
f 487 398 399
f 487 399 488
f 488 399 400
f 488 400 489
f 489 400 401
f 489 401 490
f 490 401 402
f 490 402 491
f 491 402 362
f 403 493 369
f 403 510 493
f 512 405 511
f 405 371 511
f 511 371 494
f 513 511 494
f 513 496 514
f 496 513 494
f 515 407 512
f 405 512 407
f 515 408 407
f 409 496 373
f 496 409 514
f 516 514 409
f 409 375 499
f 409 499 516
f 412 517 411
f 411 517 518
f 519 411 518
f 413 411 519
f 413 520 414
f 519 520 413
f 520 522 521
f 416 520 521
f 414 520 416
f 523 418 416
f 523 416 521
f 524 420 418
f 524 418 523
f 500 378 420
f 524 500 420
f 525 500 524
f 500 526 501
f 500 525 526
f 501 527 502
f 501 526 527
f 527 424 425
f 503 527 425
f 502 527 503
f 503 425 426
f 503 426 504
f 504 426 427
f 504 427 505
f 505 427 428
f 505 428 506
f 506 428 429
f 506 429 507
f 507 429 430
f 507 430 508
f 508 430 431
f 508 431 509
f 509 431 394
f 528 510 403
f 528 403 432
f 433 512 511
f 528 433 511
f 432 433 528
f 512 433 434
f 512 434 515
f 515 434 408
f 436 529 517
f 436 517 412
f 518 531 530
f 531 518 438
f 517 438 518
f 438 517 439
f 529 439 517
f 440 532 438
f 438 532 531
f 522 533 521
f 533 440 521
f 440 442 521
f 440 533 532
f 521 442 443
f 521 443 523
f 523 443 444
f 523 444 524
f 524 444 445
f 524 445 525
f 525 445 446
f 525 446 526
f 526 446 447
f 526 447 527
f 527 447 424
f 448 529 436
f 531 534 530
f 439 529 448
f 534 531 532
f 534 532 535
f 535 532 533
f 537 536 449
f 537 449 450
f 451 449 536
f 451 536 538
f 453 539 454
f 454 539 540
f 541 454 540
f 455 454 541
f 455 542 456
f 541 542 455
f 542 457 456
f 457 542 543
f 450 458 537
f 544 537 458
f 458 451 538
f 458 538 544
f 460 545 539
f 460 539 453
f 462 546 461
f 546 539 461
f 539 545 461
f 539 546 540
f 547 462 463
f 547 546 462
f 463 457 543
f 463 543 547
f 465 545 460
f 545 465 461
f 470 548 469
f 548 471 469
f 480 548 470
f 548 480 471
f 550 549 492
f 550 492 493
f 549 552 551
f 495 549 551
f 492 549 495
f 553 497 495
f 553 495 551
f 554 498 497
f 554 497 553
f 554 499 498
f 510 550 493
f 510 555 550
f 551 552 513
f 552 511 513
f 552 556 511
f 551 513 514
f 551 514 553
f 553 514 516
f 553 516 554
f 554 516 499
f 518 557 519
f 558 520 519
f 558 519 557
f 558 522 520
f 559 555 510
f 559 510 528
f 528 511 556
f 528 556 559
f 530 560 557
f 530 557 518
f 557 561 558
f 557 560 561
f 561 533 522
f 561 522 558
f 534 560 530
f 560 534 535
f 560 535 561
f 561 535 533
f 563 562 536
f 563 536 537
f 538 536 562
f 538 562 564
f 566 565 541
f 566 541 540
f 541 567 542
f 565 567 541
f 567 543 542
f 543 567 568
f 537 544 563
f 569 563 544
f 544 538 564
f 544 564 569
f 570 566 540
f 570 540 546
f 571 546 547
f 571 570 546
f 547 543 568
f 547 568 571
f 550 572 549
f 572 552 549
f 555 573 572
f 555 572 550
f 573 556 552
f 573 552 572
f 559 573 555
f 573 559 556
f 575 574 562
f 575 562 563
f 564 562 574
f 564 574 576
f 578 577 565
f 578 565 566
f 565 579 567
f 577 579 565
f 579 568 567
f 568 579 580
f 563 569 575
f 581 575 569
f 569 564 576
f 569 576 581
f 582 578 566
f 582 566 570
f 583 570 571
f 583 582 570
f 571 568 580
f 571 580 583
f 585 584 574
f 585 574 575
f 576 574 584
f 576 584 586
f 588 587 577
f 588 577 578
f 577 589 579
f 587 589 577
f 589 580 579
f 580 589 590
f 575 581 585
f 591 585 581
f 581 576 586
f 581 586 591
f 592 588 578
f 592 578 582
f 593 582 583
f 593 592 582
f 583 580 590
f 583 590 593
f 595 594 584
f 595 584 585
f 586 584 594
f 586 594 596
f 598 597 587
f 598 587 588
f 587 599 589
f 597 599 587
f 599 590 589
f 590 599 600
f 585 591 595
f 601 595 591
f 591 586 596
f 591 596 601
f 602 598 588
f 602 588 592
f 603 592 593
f 603 602 592
f 593 590 600
f 593 600 603
f 605 604 594
f 605 594 595
f 596 594 604
f 596 604 606
f 608 607 597
f 608 597 598
f 597 609 599
f 607 609 597
f 609 600 599
f 600 609 610
f 595 601 605
f 611 605 601
f 601 596 606
f 601 606 611
f 612 608 598
f 612 598 602
f 613 602 603
f 613 612 602
f 603 600 610
f 603 610 613
f 616 615 614
f 618 617 614
f 618 614 615
f 619 617 618
f 620 616 614
f 620 614 617
f 620 617 621
f 621 617 619
f 623 622 604
f 623 604 605
f 606 604 622
f 606 622 624
f 626 625 607
f 626 607 608
f 607 627 609
f 625 627 607
f 627 610 609
f 610 627 628
f 605 611 623
f 629 623 611
f 611 606 624
f 611 624 629
f 630 626 608
f 630 608 612
f 631 612 613
f 631 630 612
f 613 610 628
f 613 628 631
f 634 633 632
f 636 635 632
f 636 632 633
f 637 635 636
f 638 634 632
f 638 632 635
f 638 635 639
f 639 635 637
f 641 640 615
f 641 615 616
f 615 642 618
f 640 642 615
f 619 618 642
f 619 642 643
f 644 641 616
f 644 616 620
f 646 644 645
f 644 621 645
f 644 620 621
f 619 643 647
f 645 619 647
f 648 645 647
f 621 619 645
f 650 649 648
f 650 648 647
f 651 649 650
f 652 646 645
f 652 645 648
f 652 648 653
f 655 654 653
f 648 655 653
f 649 655 648
f 649 651 656
f 657 649 656
f 655 649 657
f 658 657 656
f 659 654 655
f 659 655 657
f 659 657 660
f 663 662 661
f 658 660 657
f 665 664 662
f 665 662 663
f 667 666 664
f 667 664 665
f 669 668 666
f 669 666 667
f 670 668 669
f 671 661 662
f 673 672 671
f 662 673 671
f 664 673 662
f 674 664 666
f 673 664 674
f 675 666 668
f 674 666 675
f 668 670 676
f 677 668 676
f 675 668 677
f 678 677 676
f 681 680 679
f 682 679 680
f 683 672 673
f 683 673 674
f 683 674 684
f 686 685 684
f 674 686 684
f 675 686 674
f 687 675 677
f 686 675 687
f 677 678 688
f 689 677 688
f 687 677 689
f 691 690 689
f 691 689 688
f 692 690 691
f 681 679 693
f 681 693 694
f 679 682 695
f 679 695 693
f 696 685 686
f 696 686 687
f 696 687 697
f 699 698 697
f 687 699 697
f 689 699 687
f 700 689 690
f 699 689 700
f 690 692 701
f 702 690 701
f 700 690 702
f 703 702 701
f 704 694 693
f 704 693 695
f 705 698 699
f 705 699 700
f 705 700 706
f 706 700 702
f 706 702 707
f 707 702 703
f 710 709 708
f 712 711 708
f 712 708 709
f 714 713 711
f 714 711 712
f 715 713 714
f 710 708 716
f 710 716 717
f 718 708 711
f 716 708 718
f 713 720 719
f 718 713 719
f 711 713 718
f 720 713 715
f 717 716 721
f 717 721 722
f 723 716 718
f 721 716 723
f 718 719 724
f 725 718 724
f 723 718 725
f 726 725 724
f 728 727 622
f 728 622 623
f 624 622 727
f 624 727 729
f 730 722 721
f 730 721 723
f 730 723 731
f 731 723 725
f 731 725 732
f 732 725 726
f 734 733 625
f 734 625 626
f 625 735 627
f 733 735 625
f 735 628 627
f 628 735 736
f 623 629 728
f 737 728 629
f 629 624 729
f 629 729 737
f 738 734 626
f 738 626 630
f 739 630 631
f 739 738 630
f 631 628 736
f 631 736 739
f 741 740 633
f 741 633 634
f 633 742 636
f 740 742 633
f 637 636 742
f 637 742 743
f 744 741 634
f 744 634 638
f 745 638 639
f 745 744 638
f 639 637 743
f 639 743 745
f 747 746 640
f 747 640 641
f 640 748 642
f 746 748 640
f 643 642 748
f 643 748 749
f 750 747 641
f 750 641 644
f 752 751 646
f 751 644 646
f 751 750 644
f 752 753 647
f 749 752 647
f 643 749 647
f 752 749 751
f 754 650 647
f 754 647 753
f 754 651 650
f 652 752 646
f 752 652 653
f 752 653 753
f 753 653 654
f 755 753 654
f 754 753 755
f 756 656 651
f 754 756 651
f 755 756 754
f 756 658 656
f 659 755 654
f 755 659 660
f 755 660 756
f 658 756 660
f 663 661 757
f 758 665 663
f 758 663 757
f 759 667 665
f 759 665 758
f 760 669 667
f 760 667 759
f 760 670 669
f 671 757 661
f 757 671 672
f 761 757 672
f 758 757 761
f 758 762 759
f 758 761 762
f 759 763 760
f 759 762 763
f 764 676 670
f 760 764 670
f 763 764 760
f 764 678 676
f 681 765 680
f 765 682 680
f 683 761 672
f 761 683 684
f 761 684 762
f 762 684 685
f 766 762 685
f 763 762 766
f 763 767 764
f 763 766 767
f 768 688 678
f 764 768 678
f 767 768 764
f 769 691 688
f 769 688 768
f 769 692 691
f 694 770 765
f 694 765 681
f 770 695 682
f 770 682 765
f 696 766 685
f 766 696 697
f 766 697 767
f 767 697 698
f 771 767 698
f 768 767 771
f 768 772 769
f 768 771 772
f 773 701 692
f 769 773 692
f 772 773 769
f 773 703 701
f 704 770 694
f 770 704 695
f 705 771 698
f 771 705 706
f 771 706 772
f 772 706 707
f 772 707 773
f 773 707 703
f 710 774 709
f 775 712 709
f 775 709 774
f 776 714 712
f 776 712 775
f 776 715 714
f 717 777 774
f 717 774 710
f 774 778 775
f 774 777 778
f 778 719 720
f 776 778 720
f 775 778 776
f 776 720 715
f 722 779 777
f 722 777 717
f 777 780 778
f 777 779 780
f 781 724 719
f 778 781 719
f 780 781 778
f 781 726 724
f 783 782 727
f 783 727 728
f 729 727 782
f 729 782 784
f 730 779 722
f 779 730 731
f 779 731 780
f 780 731 732
f 780 732 781
f 781 732 726
f 786 785 733
f 786 733 734
f 733 787 735
f 785 787 733
f 787 736 735
f 736 787 788
f 728 737 783
f 789 783 737
f 737 729 784
f 737 784 789
f 790 786 734
f 790 734 738
f 791 738 739
f 791 790 738
f 739 736 788
f 739 788 791
f 793 792 740
f 793 740 741
f 740 794 742
f 792 794 740
f 743 742 794
f 743 794 795
f 796 793 741
f 796 741 744
f 797 744 745
f 797 796 744
f 745 743 795
f 745 795 797
f 747 798 746
f 799 748 746
f 799 746 798
f 799 749 748
f 750 798 747
f 798 750 751
f 798 751 799
f 799 751 749
f 783 800 782
f 800 784 782
f 786 801 785
f 802 787 785
f 802 785 801
f 789 800 783
f 788 787 802
f 800 789 784
f 790 801 786
f 801 790 791
f 801 791 802
f 802 791 788
f 793 803 792
f 804 794 792
f 804 792 803
f 804 795 794
f 796 803 793
f 803 796 797
f 803 797 804
f 804 797 795

