# https://github.com/mikedh/trimesh
v -0.05601472 -0.01096010 -0.00796089
v -0.05188888 -0.01436752 -0.00920096
v -0.05412350 -0.01135660 -0.01261560
v -0.05588339 -0.01073109 -0.00147232
v -0.05388859 -0.01401097 -0.00392427
v -0.05190848 -0.01207870 0.00016486
v -0.05592477 -0.00601721 -0.01342205
v -0.05278523 -0.00942181 -0.01592490
v -0.05287538 -0.00536089 -0.01759618
v -0.05687263 -0.00483432 -0.00791387
v -0.05693207 -0.00583862 -0.00248418
v -0.05288741 -0.00889497 0.00367440
v -0.05598817 -0.00513956 0.00416169
v -0.05279490 -0.00615831 0.00747261
v -0.05581340 0.00040783 -0.01453924
v -0.05167379 0.00095620 -0.01769445
v -0.05689073 0.00080535 -0.00877586
v -0.05690414 -0.00019513 -0.00334272
v -0.05621230 0.00099566 0.00230414
v -0.05416754 -0.00298761 0.00938920
v -0.05546682 0.00035402 0.00831095
v -0.05174910 0.00038397 0.01213803
v -0.05418415 0.00436577 -0.01435388
v -0.05367483 0.00707260 -0.01187951
v -0.05575249 0.00567778 -0.00982031
v -0.05582850 0.00584877 -0.00321637
v -0.05258384 0.00734611 0.00133780
v -0.05372354 0.00423998 0.00564973
v -0.05374597 0.00329221 0.00959168
v -0.05284965 0.00964913 -0.00828008
v -0.05278017 0.01029970 -0.00218527
v -0.05095695 -0.01258627 -0.01444400
v -0.04691580 -0.01403942 -0.01459863
v -0.04842227 -0.01053813 -0.01757023
v -0.04600321 -0.01575286 -0.00911039
v -0.04818115 -0.01447451 -0.00250776
v -0.04686801 -0.01226260 0.00152491
v -0.04695195 -0.00610270 -0.01810040
v -0.04569281 -0.00796541 -0.00931240
v -0.04927952 -0.00464645 -0.00813141
v -0.04776084 -0.00402878 -0.01149828
v -0.04706777 -0.00598225 -0.00531487
v -0.04763445 -0.00988495 0.00435033
v -0.05088211 -0.00470648 0.01060758
v -0.04838682 -0.00765973 0.00843989
v -0.04672280 -0.00490080 0.01203598
v -0.04645057 0.00044775 -0.01791541
v -0.04927765 -0.00078449 -0.00903469
v -0.04772055 -0.00000936 -0.01124569
v -0.04690487 0.00016419 -0.00537172
v -0.04615956 -0.00087731 0.01424684
v -0.05126015 0.00664729 -0.01477406
v -0.04657742 0.00722980 -0.01769019
v -0.04617582 0.00325894 -0.00960886
v -0.05090720 0.00689191 0.00414647
v -0.05063515 0.00607334 0.00967633
v -0.04868802 0.00388957 0.01523139
v -0.04905684 0.00745774 0.01508789
v -0.04579069 0.00648171 0.01827494
v -0.04850736 0.01049047 -0.01372462
v -0.04973591 0.01290239 -0.00913930
v -0.04662527 0.01373708 -0.01255266
v -0.05021817 0.01339064 -0.00410891
v -0.04835559 0.01219052 -0.00001193
v -0.04721868 0.00960356 0.00385813
v -0.04692719 0.01001260 0.01058400
v -0.04688196 0.01027294 0.01650531
v -0.04617943 0.01556367 -0.00778454
v -0.04596407 0.01512378 -0.00237425
v -0.04339358 -0.01773190 -0.00782807
v -0.04023219 -0.01954521 -0.00929261
v -0.04192615 -0.01776990 -0.01114206
v -0.03957042 -0.01822020 -0.00599064
v -0.04039528 -0.01498086 -0.01481842
v -0.04151761 -0.01123955 -0.01742833
v -0.04173707 -0.01558224 -0.00269490
v -0.04356566 -0.01133154 0.00460336
v -0.04221843 -0.01370688 0.00232255
v -0.03904301 -0.01173959 0.00648490
v -0.04112382 -0.00863328 -0.01399580
v -0.04537301 -0.00519702 -0.01497447
v -0.04008460 -0.00906874 -0.00761245
v -0.04247149 -0.00808008 -0.00359393
v -0.04442178 -0.00392213 -0.00212911
v -0.03996218 -0.00582614 -0.00022227
v -0.04168858 -0.00877095 0.00960432
v -0.04113978 -0.00545163 0.01376063
v -0.04499519 0.00050817 -0.01450239
v -0.04427807 0.00025861 -0.00220040
v -0.04050016 -0.00119723 0.00073228
v -0.04186019 -0.00219292 0.01572354
v -0.04486073 0.00159754 0.01666379
v -0.04047247 0.00021449 0.01835522
v -0.04127057 0.00462907 -0.01415524
v -0.04210546 0.00566527 -0.01780517
v -0.04327840 0.00678988 -0.00948265
v -0.03951791 0.00688707 -0.01136371
v -0.04273142 0.00625870 -0.00620047
v -0.04048440 0.00353173 -0.00162014
v -0.04052659 0.00603535 0.01940614
v -0.04467466 0.01242668 -0.01592956
v -0.04011596 0.01189223 -0.01775297
v -0.04022660 0.00866663 -0.00813770
v -0.04234835 0.01308918 0.00054442
v -0.04130808 0.01105668 0.00433544
v -0.04357107 0.01272598 0.00927381
v -0.03925965 0.01301781 0.00666537
v -0.04422794 0.01345135 0.01441361
v -0.04208862 0.01157258 0.01819355
v -0.04158968 0.01555773 -0.01341812
v -0.04027805 0.01649860 -0.00791048
v -0.04090401 0.01560777 -0.00321675
v -0.04126731 0.01519913 0.01098586
v -0.03977729 0.01524913 0.01458268
v -0.03491374 -0.02003838 -0.00894920
v -0.03536692 -0.01759573 -0.01217104
v -0.03336148 -0.01836703 -0.00568211
v -0.03388839 -0.01381588 -0.01502784
v -0.03570361 -0.01196868 -0.01689893
v -0.03503566 -0.01575588 -0.00164551
v -0.03643184 -0.01407397 0.00303158
v -0.03338133 -0.01174084 0.00681518
v -0.03465740 -0.00951099 -0.01464088
v -0.03437233 -0.00861416 -0.00867234
v -0.03620119 -0.00814196 -0.00279289
v -0.03414176 -0.00496652 0.00116334
v -0.03467481 -0.00952798 0.01066545
v -0.03814184 -0.00498336 0.01652081
v -0.03567177 -0.00784218 0.01468155
v -0.03425904 -0.00520982 0.01814072
v -0.03548044 -0.00151385 0.00390827
v -0.03784051 0.00123098 0.00339327
v -0.03366429 0.00039423 0.00579440
v -0.03468575 0.00010743 0.01993640
v -0.03503937 0.00477059 -0.01505692
v -0.03632862 0.00732316 -0.01781260
v -0.03359574 0.00657208 -0.01177544
v -0.03351830 0.00478221 -0.00148007
v -0.03669634 0.00736275 -0.00544052
v -0.03462847 0.00289043 0.00355630
v -0.03618065 0.00732020 0.01931862
v -0.03345087 0.01234290 -0.01793106
v -0.03515682 0.00872099 -0.00861332
v -0.03613695 0.01289394 0.00042078
v -0.03409392 0.01086856 0.00383871
v -0.03440038 0.01245403 0.00696540
v -0.03762804 0.01259437 0.01651033
v -0.03568084 0.01391160 0.01312192
v -0.03310510 0.01040593 0.01597692
v -0.03505179 0.01571477 -0.01462629
v -0.03491296 0.01648804 -0.00885710
v -0.03465738 0.01548092 -0.00331220
v -0.03672338 0.01496583 0.00982462
v -0.02963507 -0.01972118 -0.00850219
v -0.02949454 -0.01836342 -0.01074904
v -0.02824093 -0.01741680 -0.00577298
v -0.03144618 -0.01093584 -0.01454317
v -0.02874460 -0.01352929 -0.01175689
v -0.02830965 -0.01514615 -0.00150722
v -0.03030103 -0.01416621 0.00302717
v -0.02744608 -0.01178256 0.00667287
v -0.02926625 -0.00939318 -0.00995438
v -0.02935423 -0.00847560 -0.00351169
v -0.02675467 -0.00549112 0.00096481
v -0.02875003 -0.00940598 0.01054004
v -0.02998548 -0.00812630 0.01530637
v -0.02792059 -0.00527644 0.01915332
v -0.03037270 -0.00190677 0.00444790
v -0.03000750 0.00125000 0.00574145
v -0.02923793 -0.00192054 0.02194945
v -0.03173051 0.00235596 0.02245335
v -0.02749644 0.00049466 0.02429301
v -0.03009081 0.00492096 -0.01460683
v -0.02966146 0.00767566 -0.01756492
v -0.02837378 0.00697401 -0.01269538
v -0.02780268 0.00482805 -0.00231442
v -0.03030954 0.00714476 -0.00552776
v -0.02840897 0.00302080 0.00224591
v -0.03216539 0.00695346 0.02154676
v -0.02825892 0.00510633 0.02466498
v -0.02795696 0.01300800 -0.01774938
v -0.02818931 0.00877678 -0.00926651
v -0.02992733 0.01272774 0.00047648
v -0.02722197 0.01023356 0.00408155
v -0.02955013 0.01026692 0.00974316
v -0.03312448 0.01268583 0.01020421
v -0.02799485 0.01006260 0.01694079
v -0.02864617 0.00903486 0.02178992
v -0.02892668 0.01568698 -0.01460101
v -0.02871755 0.01644170 -0.00878872
v -0.02847844 0.01543410 -0.00318922
v -0.02625606 -0.01631635 -0.00846977
v -0.02601724 -0.01159454 -0.00738508
v -0.02595989 -0.01243365 -0.00336882
v -0.02348723 -0.01120334 0.00035379
v -0.02340506 -0.01377677 0.00303640
v -0.02149710 -0.01184373 0.00655293
v -0.02157464 -0.00639107 0.00081129
v -0.02281359 -0.00932916 0.01036556
v -0.02390755 -0.00797065 0.01512150
v -0.02082686 -0.00578948 0.01902056
v -0.02684605 0.00002335 0.00383749
v -0.02281308 -0.00042848 0.00121820
v -0.02393753 -0.00270326 0.02233331
v -0.02268684 0.00142152 0.02492781
v -0.02614617 0.00726272 -0.01559004
v -0.02197907 0.00396827 -0.00164857
v -0.02403762 0.00710672 -0.00546742
v -0.02321218 0.00638442 0.02463359
v -0.02268310 0.00898053 -0.01362875
v -0.02244974 0.01154374 -0.01745521
v -0.02174409 0.00930114 -0.00862799
v -0.02388149 0.01276597 0.00055511
v -0.02117218 0.01030129 0.00417486
v -0.02266439 0.00963074 0.00958730
v -0.02356850 0.00990805 0.01506520
v -0.02244804 0.00926733 0.02056054
v -0.02279419 0.01561184 -0.01457410
v -0.02256346 0.01641237 -0.00870874
v -0.02235632 0.01544632 -0.00310253
v -0.01657451 -0.01383351 0.00257433
v -0.01684787 -0.01052197 0.00062218
v -0.01548037 -0.01174832 0.00640858
v -0.01733207 -0.00459099 0.00081265
v -0.01674219 -0.00928474 0.01033683
v -0.01691636 -0.00807701 0.01580167
v -0.01562739 -0.00626358 0.01996121
v -0.01652809 0.00008407 0.00013727
v -0.01808652 -0.00298435 0.02234776
v -0.01652545 0.00067511 0.02450812
v -0.01850746 0.00688556 -0.01405966
v -0.01679522 0.00536466 -0.01506742
v -0.01735631 0.00839932 -0.01711937
v -0.01584717 0.00680201 -0.01318491
v -0.01509990 0.00398940 -0.00222329
v -0.01797342 0.00716139 -0.00543881
v -0.01925657 0.00623438 0.02287957
v -0.01696819 0.00750438 0.02010800
v -0.01483104 0.00422478 0.02237589
v -0.01577495 0.01305974 -0.01782066
v -0.01627986 0.00890010 -0.00998714
v -0.01784554 0.01282204 0.00056348
v -0.01512917 0.01038712 0.00428219
v -0.01651800 0.00972388 0.00975615
v -0.01708390 0.00934814 0.01601144
v -0.01662104 0.01563382 -0.01461622
v -0.01641441 0.01642402 -0.00871837
v -0.01624369 0.01544833 -0.00310108
v -0.01332297 -0.01233925 -0.00180483
v -0.01051917 -0.01427700 -0.00095028
v -0.00933760 -0.01235597 -0.00562903
v -0.01168675 -0.01409411 0.00336077
v -0.00926579 -0.01164740 0.00633722
v -0.01016032 -0.00936795 -0.00294184
v -0.01093568 -0.00552823 0.00022308
v -0.01049212 -0.00914584 0.01024456
v -0.01017877 -0.00863101 0.01590290
v -0.01354637 -0.00496353 0.02281382
v -0.01103275 -0.00783464 0.02083721
v -0.00975832 -0.00513400 0.02456490
v -0.01042994 -0.00006121 0.00024309
v -0.01047745 -0.00024066 0.02491267
v -0.01416404 0.00726227 -0.01560854
v -0.00907786 0.00395402 -0.00215125
v -0.01186781 0.00718658 -0.00540837
v -0.01182274 0.00702947 0.01922813
v -0.00917529 0.00382010 0.02233229
v -0.01057343 0.00898717 -0.01363210
v -0.01033545 0.01158037 -0.01745463
v -0.00954247 0.00935319 -0.00857995
v -0.01171945 0.01282708 0.00058626
v -0.00901731 0.01040783 0.00429989
v -0.01043194 0.00976877 0.00973510
v -0.01030080 0.00922781 0.01530497
v -0.01053109 0.01566768 -0.01461369
v -0.01029873 0.01643048 -0.00872269
v -0.01012782 0.01544730 -0.00310418
v -0.00679725 -0.01671731 -0.00784117
v -0.00474102 -0.01931943 -0.00879815
v -0.00531610 -0.01689564 -0.01028655
v -0.00379306 -0.01795397 -0.00715634
v -0.00708447 -0.01302905 -0.00951373
v -0.00334666 -0.01262965 -0.01240621
v -0.00435859 -0.01522998 -0.00330458
v -0.00520131 -0.01428752 0.00335890
v -0.00398411 -0.01201599 0.00723500
v -0.00424683 -0.00930806 -0.00791346
v -0.00501713 -0.00773414 -0.00233161
v -0.00412579 -0.00490743 0.00034611
v -0.00466192 -0.00947096 0.01017692
v -0.00395274 -0.00857724 0.01593372
v -0.00518508 -0.00815822 0.02174519
v -0.00403354 -0.00513217 0.02512104
v -0.00437965 -0.00011620 0.00039544
v -0.00442708 -0.00024450 0.02496201
v -0.00640665 0.00702682 -0.01411370
v -0.00338897 0.00485273 -0.01558606
v -0.00569596 0.00794728 -0.01728952
v -0.00276282 0.00644989 -0.01210534
v -0.00297991 0.00395901 -0.00213991
v -0.00577494 0.00722350 -0.00538724
v -0.00605246 0.00694443 0.01870398
v -0.00294720 0.00375201 0.02138344
v -0.00306100 0.01216704 -0.01789917
v -0.00476446 0.00883353 -0.00950527
v -0.00557010 0.01283909 0.00058929
v -0.00282182 0.01042046 0.00430975
v -0.00522731 0.00973247 0.00885121
v -0.00393502 0.00893324 0.01405519
v -0.00446038 0.01563714 -0.01457080
v -0.00420771 0.01644991 -0.00871537
v -0.00401667 0.01544818 -0.00310578
v -0.00240039 -0.01719932 -0.01009186
v -0.00075571 -0.01146470 -0.01578686
v 0.00184388 -0.01397124 -0.01423704
v 0.00252698 -0.01099990 -0.01718710
v 0.00116915 -0.01560322 -0.00743980
v 0.00252043 -0.01475952 -0.00183762
v 0.00174962 -0.01487959 0.00349246
v -0.00076557 -0.01117529 0.01041061
v 0.00150429 -0.01396563 0.00905644
v 0.00280985 -0.01224936 0.01327140
v 0.00121267 -0.00929943 -0.01367212
v 0.00283965 -0.00856778 -0.00795006
v 0.00068938 -0.00795771 -0.00298843
v 0.00202257 -0.00502910 0.00044014
v 0.00145079 -0.00958402 0.01562452
v 0.00085502 -0.00810448 0.02176459
v 0.00206743 -0.00494025 0.02507729
v 0.00171299 -0.00014892 0.00042588
v 0.00169131 -0.00010120 0.02495581
v 0.00155849 0.00440285 -0.01496524
v 0.00014876 0.00695735 -0.01776845
v 0.00306913 0.00641515 -0.01160144
v 0.00312099 0.00397628 -0.00215319
v 0.00023515 0.00721158 -0.00538415
v -0.00163684 0.00643940 0.01680007
v 0.00105060 0.00724587 0.01417897
v 0.00234992 0.00502962 0.01784072
v 0.00241683 0.00286845 0.02236301
v 0.00314258 0.01212924 -0.01787636
v 0.00159976 0.00858808 -0.00849285
v 0.00055652 0.01285516 0.00056923
v 0.00330197 0.01046405 0.00425798
v 0.00158311 0.00925263 0.01048231
v 0.00161513 0.01563903 -0.01455408
v 0.00185253 0.01645213 -0.00869753
v 0.00209225 0.01545004 -0.00310481
v 0.00885318 -0.01411046 -0.01490156
v 0.00747385 -0.01156646 -0.01744608
v 0.00756135 -0.01483124 -0.00908967
v 0.00778942 -0.01468211 -0.00273457
v 0.00801567 -0.01476594 0.00358995
v 0.00799050 -0.01501999 0.00989796
v 0.00550135 -0.01146489 0.01698339
v 0.00693893 -0.01392717 0.01464731
v 0.00992061 -0.01089260 0.01883676
v 0.00777065 -0.00913387 -0.01488567
v 0.00820524 -0.00861663 -0.00887942
v 0.00696894 -0.00812662 -0.00292815
v 0.00817822 -0.00507480 0.00053710
v 0.00639159 -0.00837887 0.02147285
v 0.00834807 -0.00351118 0.02468238
v 0.00782171 -0.00014512 0.00042483
v 0.00688453 0.00075702 0.02470429
v 0.00654893 0.00478769 -0.01450800
v 0.00695872 0.00749706 -0.01749600
v 0.00829223 0.00689718 -0.01268930
v 0.00918579 0.00396069 -0.00216511
v 0.00633541 0.00719031 -0.00536756
v 0.00449530 0.00725982 0.01503634
v 0.00707060 0.00639192 0.01762471
v 0.00854560 0.00379680 0.02090134
v 0.00875524 0.01296127 -0.01775714
v 0.00845360 0.00876466 -0.00919115
v 0.00666537 0.01285834 0.00056025
v 0.00936650 0.01046724 0.00418743
v 0.00702917 0.00977345 0.00875613
v 0.00853671 0.00858018 0.01395080
v 0.00774226 0.01562897 -0.01456623
v 0.00794376 0.01641822 -0.00869038
v 0.00819979 0.01544795 -0.00310297
v 0.01493392 -0.01414145 -0.01484448
v 0.01359697 -0.01161921 -0.01740402
v 0.01364464 -0.01487445 -0.00908668
v 0.01388261 -0.01470223 -0.00271940
v 0.01411921 -0.01468998 0.00356916
v 0.01424850 -0.01494269 0.00998813
v 0.01273145 -0.01429312 0.01540810
v 0.01509613 -0.01186253 0.01826270
v 0.01400011 -0.00918230 -0.01481395
v 0.01445171 -0.00864088 -0.00880220
v 0.01312993 -0.00816403 -0.00279746
v 0.01431202 -0.00507037 0.00057153
v 0.01075878 -0.00631556 0.02183075
v 0.01479859 -0.00731270 0.02024334
v 0.01392762 -0.00014136 0.00041905
v 0.01329698 -0.00343429 0.02270681
v 0.01374904 -0.00049011 0.02435481
v 0.01054511 0.00720908 -0.01562729
v 0.01529270 0.00392994 -0.00216450
v 0.01249996 0.00714744 -0.00542449
v 0.01055568 0.00639261 0.01679087
v 0.01320960 0.00726685 0.01409628
v 0.01460163 0.00508076 0.01780512
v 0.01475252 0.00300782 0.02227564
v 0.01427751 0.00986525 -0.01380396
v 0.01370334 0.01194842 -0.01734640
v 0.01489011 0.00923786 -0.00865436
v 0.01275061 0.01285536 0.00053317
v 0.01545112 0.01044697 0.00420181
v 0.01373921 0.00928123 0.01041180
v 0.01396185 0.01559177 -0.01461344
v 0.01412319 0.01640087 -0.00871099
v 0.01431021 0.01544535 -0.00310522
v 0.02101146 -0.01413078 -0.01482004
v 0.01969012 -0.01159874 -0.01735615
v 0.01969218 -0.01488840 -0.00900212
v 0.01997482 -0.01473939 -0.00258762
v 0.02027464 -0.01468457 0.00365065
v 0.02049510 -0.01488150 0.00993702
v 0.01981372 -0.01443144 0.01614057
v 0.01997163 -0.01159875 0.01984998
v 0.02014721 -0.00916090 -0.01473897
v 0.02061218 -0.00863730 -0.00870003
v 0.01928156 -0.00816516 -0.00271014
v 0.02042036 -0.00506710 0.00056910
v 0.01941501 -0.00820617 0.02172240
v 0.01674340 -0.00441164 0.02256678
v 0.02092746 -0.00590154 0.02456167
v 0.02003575 -0.00014545 0.00041853
v 0.02011650 -0.00010012 0.02486358
v 0.02144271 0.00389851 -0.00213822
v 0.01864584 0.00708189 -0.00543064
v 0.01671052 0.00726318 0.01493912
v 0.01976120 0.00649181 0.01812092
v 0.02079570 0.00389704 0.02172758
v 0.02133111 0.01065753 -0.01461365
v 0.01991960 0.01304689 -0.01720804
v 0.02010114 0.00928014 -0.00948011
v 0.01882902 0.01283780 0.00053515
v 0.02152077 0.01042883 0.00425796
v 0.02007243 0.00986264 0.00977976
v 0.02055269 0.00888641 0.01522639
v 0.02010638 0.01555094 -0.01468457
v 0.02031930 0.01639883 -0.00874747
v 0.02042818 0.01544543 -0.00310446
v 0.02715387 -0.01413232 -0.01480032
v 0.02583105 -0.01159839 -0.01733334
v 0.02583211 -0.01490015 -0.00894481
v 0.02610067 -0.01477725 -0.00250526
v 0.02643393 -0.01473292 0.00372709
v 0.02659929 -0.01489668 0.00998801
v 0.02578238 -0.01508641 0.01533650
v 0.02304974 -0.01119167 0.02276068
v 0.02596491 -0.01402061 0.02056188
v 0.02719892 -0.01028212 0.02440462
v 0.02629546 -0.00916406 -0.01467569
v 0.02671888 -0.00864909 -0.00863860
v 0.02537340 -0.00817458 -0.00268680
v 0.02648955 -0.00511558 0.00060370
v 0.02563144 -0.00479917 0.02575224
v 0.02614095 -0.00023373 0.00045462
v 0.02649414 -0.00004891 0.02491973
v 0.02761744 0.00381506 -0.00209598
v 0.02473778 0.00697976 -0.00540233
v 0.02497364 0.00712261 0.01926715
v 0.02802355 0.00400558 0.02248174
v 0.02732027 0.01060801 -0.01461480
v 0.02585284 0.01300246 -0.01730204
v 0.02612134 0.00916425 -0.00951176
v 0.02495096 0.01281914 0.00058197
v 0.02764292 0.01040291 0.00429161
v 0.02612599 0.00987036 0.00972388
v 0.02629884 0.00944309 0.01535362
v 0.02613294 0.01552406 -0.01474809
v 0.02644599 0.01636965 -0.00878005
v 0.02654081 0.01544667 -0.00310637
v 0.03334377 -0.01422759 -0.01476560
v 0.03205507 -0.01169691 -0.01730812
v 0.03204383 -0.01495973 -0.00892055
v 0.03233383 -0.01486663 -0.00243170
v 0.03262022 -0.01487853 0.00381915
v 0.03267169 -0.01501254 0.01001678
v 0.03115962 -0.01457403 0.01657112
v 0.03004271 -0.01271452 0.02162955
v 0.03446521 -0.01121941 0.01968255
v 0.03252997 -0.00922955 -0.01466846
v 0.03287556 -0.00867331 -0.00861103
v 0.03146428 -0.00822640 -0.00261406
v 0.03259042 -0.00513891 0.00067639
v 0.03181947 -0.00953281 0.02293128
v 0.03143290 -0.00475924 0.02466514
v 0.03230383 -0.00024725 0.00052799
v 0.03154787 0.00074899 0.02423346
v 0.03390783 0.00380667 -0.00202939
v 0.03089267 0.00694510 -0.00533464
v 0.03143096 0.00651917 0.01925545
v 0.03228539 0.00348023 0.02242229
v 0.03349812 0.01068762 -0.01452416
v 0.03187943 0.01300695 -0.01723122
v 0.03223874 0.00925516 -0.00942861
v 0.03106722 0.01285564 0.00059123
v 0.03383896 0.01052237 0.00435036
v 0.03140531 0.00980826 0.00884713
v 0.03267410 0.00911168 0.01410773
v 0.03214899 0.01548313 -0.01472328
v 0.03251520 0.01635142 -0.00878123
v 0.03260255 0.01547580 -0.00310661
v 0.03957601 -0.01436562 -0.01465768
v 0.03821796 -0.01180101 -0.01724175
v 0.03821552 -0.01507637 -0.00885982
v 0.03757428 -0.01494509 -0.00328308
v 0.03948340 -0.01439080 0.00352339
v 0.03794576 -0.01513232 0.00912407
v 0.03788273 -0.01429673 0.01492190
v 0.03983644 -0.01060011 0.01824491
v 0.03869846 -0.00934052 -0.01460364
v 0.03817056 -0.00864822 -0.00955517
v 0.03810094 -0.00796157 -0.00313084
v 0.03902851 -0.00396867 0.00047714
v 0.03482186 -0.00626204 0.02196361
v 0.03802852 -0.00569499 0.02002244
v 0.03770768 0.00054226 0.00040372
v 0.03520896 0.00039375 0.02151566
v 0.04004781 0.00107385 0.01905455
v 0.04029600 0.00383270 -0.00189751
v 0.03725337 0.00706628 -0.00525541
v 0.03605477 0.00552787 0.01711551
v 0.03776644 0.00747066 0.01427567
v 0.03958319 0.00523401 0.01658299
v 0.03918540 0.00959770 -0.01449766
v 0.03869914 0.01247465 -0.01731957
v 0.03844726 0.00940418 -0.00942688
v 0.03720415 0.01294993 0.00064571
v 0.04007234 0.01063703 0.00431430
v 0.03833370 0.00952483 0.01062712
v 0.03830838 0.01560559 -0.01454316
v 0.03864651 0.01642596 -0.00862433
v 0.03874710 0.01549965 -0.00298564
v 0.04592807 -0.01458287 -0.01462505
v 0.04473703 -0.01092503 -0.01743006
v 0.04447013 -0.01526832 -0.00880390
v 0.04307598 -0.01435910 -0.00207388
v 0.04293727 -0.01219732 0.00282765
v 0.04654584 -0.01177748 0.00112904
v 0.04506751 -0.01119443 0.00647455
v 0.04314648 -0.01389599 0.01056003
v 0.04240792 -0.01263598 0.01530804
v 0.04559167 -0.01119579 0.01352020
v 0.04399969 -0.00862086 -0.01465750
v 0.04323586 -0.00778711 -0.00820268
v 0.04251999 -0.00627597 -0.00262496
v 0.04508931 -0.00573576 -0.00514504
v 0.04512718 -0.01030984 0.00367313
v 0.04418814 -0.00937855 0.01665315
v 0.04365997 -0.00459559 0.01851271
v 0.04531961 -0.00326599 -0.00291090
v 0.04311430 0.00021798 -0.00021773
v 0.04502757 0.00182750 0.01874191
v 0.04244541 0.00723736 -0.01426361
v 0.04616272 0.00513166 -0.01485515
v 0.04306995 0.00825279 -0.01742608
v 0.04535384 0.00642623 -0.01136486
v 0.04458602 0.00334386 -0.00196125
v 0.04371836 0.00649699 -0.00524348
v 0.04134921 0.00755395 0.01532439
v 0.04359022 0.00569524 0.01796987
v 0.04586452 0.01249550 -0.01790962
v 0.04308916 0.00858093 -0.01012862
v 0.04431496 0.01245343 0.00076839
v 0.04525930 0.00948988 0.00357481
v 0.04408278 0.00939051 0.00835001
v 0.04456003 0.00883815 0.01440332
v 0.04457887 0.01580611 -0.01453291
v 0.04487647 0.01660405 -0.00856384
v 0.04506923 0.01565054 -0.00281019
v 0.05172133 -0.01460490 -0.01538949
v 0.04987232 -0.01209575 -0.01780873
v 0.05095678 -0.01484770 -0.00944005
v 0.04916900 -0.01402563 -0.00305041
v 0.05117563 -0.01104559 0.00091682
v 0.04690045 -0.01057068 0.01073837
v 0.04784542 -0.00634303 -0.01553047
v 0.05206461 -0.00594721 -0.01786559
v 0.04734717 -0.00525221 -0.00962803
v 0.04916020 -0.00869308 0.00451285
v 0.04843924 -0.00585137 0.00996615
v 0.05110642 -0.00372535 0.00666276
v 0.04709635 -0.00679529 0.01472364
v 0.05096266 -0.00278273 -0.01330250
v 0.05106995 -0.00247479 -0.00678197
v 0.04743924 0.00164903 -0.00361702
v 0.05141658 0.00136054 -0.00498964
v 0.04872826 0.00147782 0.01014102
v 0.05065175 0.00105391 0.00607695
v 0.04746470 -0.00064913 0.01561352
v 0.05117535 0.00322558 -0.01535055
v 0.05009843 0.00678526 -0.01801389
v 0.04747537 0.00558642 -0.00741098
v 0.05086826 0.00405100 -0.00939248
v 0.05154308 0.00412578 0.00296616
v 0.04823668 0.00599545 0.00558649
v 0.05026918 0.00881170 0.00106701
v 0.04715313 0.00724987 0.01092777
v 0.04705649 0.00544253 0.01575908
v 0.05206474 0.01185979 -0.01745648
v 0.05002595 0.01326702 -0.00034976
v 0.04955591 0.01533896 -0.01528181
v 0.05032218 0.01603926 -0.01006520
v 0.05065319 0.01544995 -0.00391331
v 0.05587149 -0.01403292 -0.01373988
v 0.05545704 -0.01151681 -0.01754263
v 0.05496123 -0.01199951 -0.00819615
v 0.05786582 -0.01155954 -0.01137748
v 0.05317143 -0.01144638 -0.00265053
v 0.05760452 -0.00671839 -0.01772368
v 0.05689191 -0.00870861 -0.00759190
v 0.05419542 -0.00531243 -0.00309348
v 0.05667225 -0.00385113 -0.00638349
v 0.05315849 -0.00686267 0.00259016
v 0.05289493 0.00031148 -0.01451397
v 0.05599318 0.00031473 -0.01745360
v 0.05404438 0.00046699 -0.00872676
v 0.05784910 0.00160658 -0.00629640
v 0.05367197 0.00060216 -0.00159147
v 0.05328762 -0.00043963 0.00272115
v 0.05663155 0.00660939 -0.01740240
v 0.05612443 0.00647166 -0.00645522
v 0.05353660 0.00602179 -0.00240701
v 0.05656723 0.01031317 -0.01524801
v 0.05386052 0.01363659 -0.01319524
v 0.05749026 0.00999986 -0.01036833
v 0.05443642 0.01255750 -0.00675734
v 0.05318230 0.01202433 -0.00207018
v 0.05917656 -0.01043762 -0.01488413
v 0.06005363 -0.00434373 -0.01435750
v 0.05947744 -0.00712048 -0.01004536
v 0.06000119 0.00216623 -0.01415886
v 0.05997267 -0.00094131 -0.00904352
v 0.05936304 0.00708887 -0.01372651
v 0.05959048 0.00515413 -0.00903645
f 3 2 1
f 5 4 1
f 5 1 2
f 6 4 5
f 9 8 7
f 7 8 3
f 1 7 3
f 10 7 1
f 11 1 4
f 10 1 11
f 4 6 12
f 13 4 12
f 11 4 13
f 14 13 12
f 9 7 15
f 9 15 16
f 17 7 10
f 15 7 17
f 18 10 11
f 17 10 18
f 19 11 13
f 18 11 19
f 13 14 20
f 21 13 20
f 19 13 21
f 22 21 20
f 23 16 15
f 25 24 23
f 15 25 23
f 17 25 15
f 26 17 18
f 25 17 26
f 19 28 27
f 26 19 27
f 18 19 26
f 28 19 21
f 28 21 29
f 29 21 22
f 30 24 25
f 30 25 26
f 30 26 31
f 31 26 27
f 34 33 32
f 2 3 32
f 33 2 32
f 35 2 33
f 2 36 5
f 35 36 2
f 6 5 36
f 6 36 37
f 34 32 8
f 9 34 8
f 38 34 9
f 8 32 3
f 41 40 39
f 40 42 39
f 37 43 6
f 6 43 12
f 45 44 14
f 12 45 14
f 43 45 12
f 46 44 45
f 16 38 9
f 16 47 38
f 40 41 48
f 48 41 49
f 42 40 50
f 50 40 48
f 44 20 14
f 22 20 44
f 46 22 44
f 51 22 46
f 16 23 52
f 53 16 52
f 47 16 53
f 49 54 48
f 52 23 24
f 48 54 50
f 55 27 28
f 29 56 28
f 28 56 55
f 22 51 57
f 56 22 57
f 58 56 57
f 29 22 56
f 59 58 57
f 60 53 52
f 62 60 61
f 61 60 30
f 60 52 30
f 52 24 30
f 31 63 30
f 30 63 61
f 64 63 31
f 64 31 27
f 65 64 27
f 55 65 27
f 65 55 56
f 65 56 66
f 66 56 58
f 66 58 67
f 67 58 59
f 68 62 61
f 68 61 63
f 68 63 69
f 69 63 64
f 72 71 70
f 73 70 71
f 75 74 33
f 75 33 34
f 70 35 72
f 35 74 72
f 35 33 74
f 73 76 70
f 76 35 70
f 76 36 35
f 78 77 37
f 36 78 37
f 76 78 36
f 79 77 78
f 38 81 80
f 75 38 80
f 34 38 75
f 41 39 81
f 39 80 81
f 39 82 80
f 84 83 42
f 83 39 42
f 83 82 39
f 77 43 37
f 85 83 84
f 79 86 77
f 86 43 77
f 86 45 43
f 46 45 86
f 46 86 87
f 47 88 81
f 47 81 38
f 88 49 41
f 88 41 81
f 50 89 84
f 50 84 42
f 85 84 90
f 90 84 89
f 92 51 91
f 51 87 91
f 51 46 87
f 93 92 91
f 95 94 88
f 47 95 88
f 53 95 47
f 94 97 96
f 94 96 54
f 88 94 54
f 49 88 54
f 96 98 54
f 54 98 50
f 98 99 50
f 99 89 50
f 89 99 90
f 92 57 51
f 59 57 92
f 93 59 92
f 100 59 93
f 53 60 101
f 102 53 101
f 95 53 102
f 97 103 96
f 101 60 62
f 96 103 98
f 105 104 65
f 65 104 64
f 107 105 106
f 105 66 106
f 105 65 66
f 67 108 66
f 66 108 106
f 109 108 67
f 59 109 67
f 100 109 59
f 110 102 101
f 110 101 62
f 68 110 62
f 111 110 68
f 112 68 69
f 112 111 68
f 69 64 104
f 69 104 112
f 113 107 106
f 113 106 108
f 113 108 114
f 114 108 109
f 116 115 71
f 116 71 72
f 73 71 115
f 73 115 117
f 119 118 74
f 119 74 75
f 72 74 116
f 116 74 118
f 117 120 73
f 73 120 76
f 76 121 78
f 120 121 76
f 79 78 121
f 79 121 122
f 123 119 75
f 123 75 80
f 124 80 82
f 124 123 80
f 125 82 83
f 125 124 82
f 83 85 125
f 125 85 126
f 122 127 79
f 79 127 86
f 129 128 87
f 86 129 87
f 127 129 86
f 130 128 129
f 90 132 131
f 126 90 131
f 85 90 126
f 132 133 131
f 128 91 87
f 93 91 128
f 130 93 128
f 134 93 130
f 136 135 94
f 136 94 95
f 97 94 135
f 97 135 137
f 139 138 99
f 139 99 98
f 90 99 132
f 99 140 132
f 99 138 140
f 132 140 133
f 134 100 93
f 141 100 134
f 102 136 95
f 102 142 136
f 137 143 97
f 97 143 103
f 98 103 139
f 139 103 143
f 145 144 105
f 105 144 104
f 105 107 145
f 145 107 146
f 149 148 147
f 141 149 147
f 109 141 147
f 100 141 109
f 150 142 102
f 150 102 110
f 151 110 111
f 151 150 110
f 152 111 112
f 152 151 111
f 112 104 144
f 112 144 152
f 153 146 107
f 153 107 113
f 114 147 148
f 153 114 148
f 113 114 153
f 147 114 109
f 155 154 115
f 155 115 116
f 117 115 154
f 117 154 156
f 119 157 118
f 157 158 118
f 158 116 118
f 158 155 116
f 156 159 117
f 117 159 120
f 120 160 121
f 159 160 120
f 122 121 160
f 122 160 161
f 123 157 119
f 162 158 157
f 123 162 157
f 124 162 123
f 163 124 125
f 163 162 124
f 125 126 163
f 163 126 164
f 161 165 122
f 122 165 127
f 127 166 129
f 165 166 127
f 130 129 166
f 130 166 167
f 168 164 126
f 168 126 131
f 131 133 168
f 168 133 169
f 171 134 170
f 134 167 170
f 134 130 167
f 172 171 170
f 174 173 135
f 174 135 136
f 137 135 173
f 137 173 175
f 177 176 138
f 177 138 139
f 138 178 140
f 176 178 138
f 133 140 169
f 169 140 178
f 179 141 171
f 171 141 134
f 171 172 180
f 171 180 179
f 142 174 136
f 142 181 174
f 175 182 137
f 137 182 143
f 139 143 177
f 177 143 182
f 184 183 145
f 145 183 144
f 186 185 146
f 185 145 146
f 185 184 145
f 148 149 186
f 149 185 186
f 149 187 185
f 149 141 179
f 188 149 179
f 187 149 188
f 188 179 180
f 189 181 142
f 189 142 150
f 190 150 151
f 190 189 150
f 191 151 152
f 191 190 151
f 152 144 183
f 152 183 191
f 153 186 146
f 186 153 148
f 155 192 154
f 192 156 154
f 158 193 192
f 158 192 155
f 194 159 156
f 192 194 156
f 193 194 192
f 159 194 195
f 196 159 195
f 160 159 196
f 161 160 196
f 161 196 197
f 162 193 158
f 193 162 163
f 193 163 194
f 163 164 194
f 164 195 194
f 164 198 195
f 197 199 161
f 161 199 165
f 165 200 166
f 199 200 165
f 167 166 200
f 167 200 201
f 164 168 202
f 203 164 202
f 198 164 203
f 169 202 168
f 201 204 167
f 167 204 170
f 172 170 204
f 172 204 205
f 174 206 173
f 206 175 173
f 208 207 176
f 208 176 177
f 202 178 203
f 178 207 203
f 178 176 207
f 178 202 169
f 205 180 172
f 209 180 205
f 211 210 206
f 174 211 206
f 181 211 174
f 206 210 175
f 210 182 175
f 210 212 182
f 177 182 208
f 208 182 212
f 214 213 184
f 184 213 183
f 215 184 185
f 215 214 184
f 216 185 187
f 216 215 185
f 217 187 188
f 217 216 187
f 188 180 209
f 188 209 217
f 218 211 181
f 218 181 189
f 219 189 190
f 219 218 189
f 220 190 191
f 220 219 190
f 191 183 213
f 191 213 220
f 222 221 196
f 222 196 195
f 197 196 221
f 197 221 223
f 198 222 195
f 198 224 222
f 223 225 197
f 197 225 199
f 199 226 200
f 225 226 199
f 201 200 226
f 201 226 227
f 203 224 198
f 203 228 224
f 227 229 201
f 201 229 204
f 205 204 229
f 205 229 230
f 233 232 231
f 234 231 232
f 236 235 207
f 236 207 208
f 203 207 228
f 228 207 235
f 239 238 237
f 230 239 237
f 209 230 237
f 205 230 209
f 233 231 210
f 211 233 210
f 240 233 211
f 234 241 231
f 241 210 231
f 241 212 210
f 208 212 236
f 236 212 241
f 243 242 214
f 214 242 213
f 244 214 215
f 244 243 214
f 245 215 216
f 245 244 215
f 217 237 238
f 245 217 238
f 216 217 245
f 237 217 209
f 246 240 211
f 246 211 218
f 247 218 219
f 247 246 218
f 248 219 220
f 248 247 219
f 220 213 242
f 220 242 248
f 251 250 249
f 221 222 249
f 250 221 249
f 252 221 250
f 223 221 252
f 223 252 253
f 254 251 249
f 249 222 254
f 222 255 254
f 222 224 255
f 253 256 223
f 223 256 225
f 225 257 226
f 256 257 225
f 259 258 227
f 226 259 227
f 257 259 226
f 260 258 259
f 228 255 224
f 228 261 255
f 258 229 227
f 230 229 258
f 260 230 258
f 262 230 260
f 233 263 232
f 263 234 232
f 265 264 235
f 265 235 236
f 228 235 261
f 261 235 264
f 267 266 239
f 239 266 238
f 239 230 262
f 239 262 267
f 269 268 263
f 233 269 263
f 240 269 233
f 263 268 234
f 268 241 234
f 268 270 241
f 236 241 265
f 265 241 270
f 272 271 243
f 243 271 242
f 273 243 244
f 273 272 243
f 274 244 245
f 274 273 244
f 245 238 266
f 245 266 274
f 275 269 240
f 275 240 246
f 276 246 247
f 276 275 246
f 277 247 248
f 277 276 247
f 248 242 271
f 248 271 277
f 280 279 278
f 281 278 279
f 280 278 282
f 280 282 283
f 284 250 251
f 278 284 251
f 282 278 251
f 284 278 281
f 250 285 252
f 284 285 250
f 253 252 285
f 253 285 286
f 287 283 282
f 287 282 251
f 254 287 251
f 288 287 254
f 254 255 288
f 288 255 289
f 286 290 253
f 253 290 256
f 256 291 257
f 290 291 256
f 257 292 259
f 291 292 257
f 260 259 292
f 260 292 293
f 261 289 255
f 261 294 289
f 293 262 260
f 295 262 293
f 298 297 296
f 299 296 297
f 301 300 264
f 301 264 265
f 261 264 294
f 294 264 300
f 303 302 267
f 267 302 266
f 267 262 295
f 267 295 303
f 298 296 268
f 269 298 268
f 304 298 269
f 299 305 296
f 305 268 296
f 305 270 268
f 265 270 301
f 301 270 305
f 307 306 272
f 272 306 271
f 308 272 273
f 308 307 272
f 309 273 274
f 309 308 273
f 274 266 302
f 274 302 309
f 310 304 269
f 310 269 275
f 311 275 276
f 311 310 275
f 312 276 277
f 312 311 276
f 277 271 306
f 277 306 312
f 280 313 279
f 313 281 279
f 316 315 314
f 315 317 313
f 283 315 313
f 280 283 313
f 314 315 283
f 313 317 281
f 317 284 281
f 317 318 284
f 284 319 285
f 318 319 284
f 321 320 286
f 285 321 286
f 319 321 285
f 322 320 321
f 323 316 314
f 323 314 283
f 287 323 283
f 324 323 287
f 325 287 288
f 325 324 287
f 288 289 325
f 325 289 326
f 320 290 286
f 322 327 320
f 327 290 320
f 327 291 290
f 291 328 292
f 327 328 291
f 293 292 328
f 293 328 329
f 294 326 289
f 294 330 326
f 329 295 293
f 331 295 329
f 333 332 297
f 333 297 298
f 299 297 332
f 299 332 334
f 336 335 300
f 336 300 301
f 294 300 330
f 330 300 335
f 339 338 337
f 302 303 337
f 303 339 337
f 303 340 339
f 303 295 331
f 303 331 340
f 304 333 298
f 304 341 333
f 334 342 299
f 299 342 305
f 301 305 336
f 336 305 342
f 344 343 307
f 307 343 306
f 345 307 308
f 345 344 307
f 309 337 338
f 345 309 338
f 308 309 345
f 337 309 302
f 346 341 304
f 346 304 310
f 347 310 311
f 347 346 310
f 348 311 312
f 348 347 311
f 312 306 343
f 312 343 348
f 350 349 315
f 350 315 316
f 315 351 317
f 349 351 315
f 317 352 318
f 351 352 317
f 318 353 319
f 352 353 318
f 319 354 321
f 353 354 319
f 356 355 322
f 321 356 322
f 354 356 321
f 357 355 356
f 358 350 316
f 358 316 323
f 359 323 324
f 359 358 323
f 360 324 325
f 360 359 324
f 325 326 360
f 360 326 361
f 355 327 322
f 357 362 355
f 362 327 355
f 362 328 327
f 329 328 362
f 329 362 363
f 330 361 326
f 330 364 361
f 363 331 329
f 365 331 363
f 367 366 332
f 367 332 333
f 334 332 366
f 334 366 368
f 370 369 335
f 370 335 336
f 330 335 364
f 364 335 369
f 371 338 339
f 371 339 372
f 339 373 372
f 339 340 373
f 340 331 365
f 340 365 373
f 341 367 333
f 341 374 367
f 368 375 334
f 334 375 342
f 336 342 370
f 370 342 375
f 377 376 344
f 344 376 343
f 378 344 345
f 378 377 344
f 345 338 371
f 379 345 371
f 378 345 379
f 379 371 372
f 380 374 341
f 380 341 346
f 381 346 347
f 381 380 346
f 382 347 348
f 382 381 347
f 348 343 376
f 348 376 382
f 384 383 349
f 384 349 350
f 349 385 351
f 383 385 349
f 351 386 352
f 385 386 351
f 352 387 353
f 386 387 352
f 353 388 354
f 387 388 353
f 354 389 356
f 388 389 354
f 357 356 389
f 357 389 390
f 391 384 350
f 391 350 358
f 392 358 359
f 392 391 358
f 393 359 360
f 393 392 359
f 360 361 393
f 393 361 394
f 362 357 395
f 357 396 395
f 357 390 396
f 395 363 362
f 364 394 361
f 364 397 394
f 396 398 395
f 363 395 398
f 399 363 398
f 365 363 399
f 367 400 366
f 400 368 366
f 402 401 369
f 402 369 370
f 364 369 397
f 397 369 401
f 405 404 403
f 372 373 403
f 373 405 403
f 373 406 405
f 373 365 399
f 373 399 406
f 408 407 400
f 367 408 400
f 374 408 367
f 400 407 368
f 407 375 368
f 407 409 375
f 370 375 402
f 402 375 409
f 411 410 377
f 377 410 376
f 412 377 378
f 412 411 377
f 379 403 404
f 412 379 404
f 378 379 412
f 403 379 372
f 413 408 374
f 413 374 380
f 414 380 381
f 414 413 380
f 415 381 382
f 415 414 381
f 382 376 410
f 382 410 415
f 417 416 383
f 417 383 384
f 383 418 385
f 416 418 383
f 385 419 386
f 418 419 385
f 386 420 387
f 419 420 386
f 387 421 388
f 420 421 387
f 388 422 389
f 421 422 388
f 390 389 422
f 390 422 423
f 424 417 384
f 424 384 391
f 425 391 392
f 425 424 391
f 426 392 393
f 426 425 392
f 393 394 426
f 426 394 427
f 429 396 428
f 396 423 428
f 396 390 423
f 430 429 428
f 397 427 394
f 397 431 427
f 429 398 396
f 399 398 429
f 430 399 429
f 432 399 430
f 434 433 401
f 434 401 402
f 397 401 431
f 431 401 433
f 435 404 405
f 435 405 436
f 405 437 436
f 405 406 437
f 406 399 432
f 406 432 437
f 439 438 407
f 439 407 408
f 407 440 409
f 438 440 407
f 402 409 434
f 434 409 440
f 442 441 411
f 411 441 410
f 443 411 412
f 443 442 411
f 412 404 435
f 444 412 435
f 443 412 444
f 444 435 436
f 445 439 408
f 445 408 413
f 446 413 414
f 446 445 413
f 447 414 415
f 447 446 414
f 415 410 441
f 415 441 447
f 449 448 416
f 449 416 417
f 416 450 418
f 448 450 416
f 418 451 419
f 450 451 418
f 419 452 420
f 451 452 419
f 420 453 421
f 452 453 420
f 421 454 422
f 453 454 421
f 456 455 423
f 422 456 423
f 454 456 422
f 457 455 456
f 458 449 417
f 458 417 424
f 459 424 425
f 459 458 424
f 460 425 426
f 460 459 425
f 426 427 460
f 460 427 461
f 455 428 423
f 430 428 455
f 457 430 455
f 462 430 457
f 431 461 427
f 431 463 461
f 462 432 430
f 464 432 462
f 466 465 433
f 466 433 434
f 431 433 463
f 463 433 465
f 468 467 437
f 437 467 436
f 437 432 464
f 437 464 468
f 470 469 438
f 470 438 439
f 438 471 440
f 469 471 438
f 434 440 466
f 466 440 471
f 473 472 442
f 442 472 441
f 474 442 443
f 474 473 442
f 475 443 444
f 475 474 443
f 444 436 467
f 444 467 475
f 476 470 439
f 476 439 445
f 477 445 446
f 477 476 445
f 478 446 447
f 478 477 446
f 447 441 472
f 447 472 478
f 480 479 448
f 480 448 449
f 448 481 450
f 479 481 448
f 450 482 451
f 481 482 450
f 451 483 452
f 482 483 451
f 452 484 453
f 483 484 452
f 453 485 454
f 484 485 453
f 485 487 486
f 456 485 486
f 454 485 456
f 486 457 456
f 488 480 449
f 488 449 458
f 489 458 459
f 489 488 458
f 490 459 460
f 490 489 459
f 460 461 490
f 490 461 491
f 487 492 486
f 457 486 492
f 493 457 492
f 462 457 493
f 463 491 461
f 463 494 491
f 493 464 462
f 495 464 493
f 497 496 465
f 497 465 466
f 463 465 494
f 494 465 496
f 499 498 468
f 468 498 467
f 468 464 495
f 468 495 499
f 501 500 469
f 501 469 470
f 469 502 471
f 500 502 469
f 466 471 497
f 497 471 502
f 504 503 473
f 473 503 472
f 505 473 474
f 505 504 473
f 506 474 475
f 506 505 474
f 475 467 498
f 475 498 506
f 507 501 470
f 507 470 476
f 508 476 477
f 508 507 476
f 509 477 478
f 509 508 477
f 478 472 503
f 478 503 509
f 511 510 479
f 511 479 480
f 479 512 481
f 510 512 479
f 481 513 482
f 512 513 481
f 482 514 483
f 513 514 482
f 483 515 484
f 514 515 483
f 484 516 485
f 515 516 484
f 487 485 516
f 487 516 517
f 518 511 480
f 518 480 488
f 519 488 489
f 519 518 488
f 520 489 490
f 520 519 489
f 490 491 520
f 520 491 521
f 492 487 522
f 487 523 522
f 487 517 523
f 522 493 492
f 494 521 491
f 494 524 521
f 522 523 525
f 525 523 526
f 525 495 493
f 525 493 522
f 528 527 496
f 528 496 497
f 494 496 524
f 524 496 527
f 531 530 529
f 531 529 526
f 526 529 525
f 529 498 525
f 498 499 525
f 525 499 495
f 533 532 500
f 533 500 501
f 500 534 502
f 532 534 500
f 497 502 528
f 528 502 534
f 536 535 504
f 504 535 503
f 537 504 505
f 537 536 504
f 506 529 530
f 537 506 530
f 505 506 537
f 529 506 498
f 538 533 501
f 538 501 507
f 539 507 508
f 539 538 507
f 540 508 509
f 540 539 508
f 509 503 535
f 509 535 540
f 542 541 510
f 542 510 511
f 510 543 512
f 541 543 510
f 512 544 513
f 543 544 512
f 544 546 545
f 514 544 545
f 513 544 514
f 514 545 547
f 548 514 547
f 515 514 548
f 548 550 549
f 516 548 549
f 515 548 516
f 549 517 516
f 551 542 511
f 551 511 518
f 552 518 519
f 552 551 518
f 554 552 553
f 552 520 553
f 552 519 520
f 546 555 545
f 553 520 521
f 545 555 547
f 550 556 549
f 517 549 556
f 557 517 556
f 523 517 557
f 558 554 553
f 553 521 558
f 521 559 558
f 521 524 559
f 557 526 523
f 560 526 557
f 563 562 561
f 564 561 562
f 566 565 527
f 566 527 528
f 524 527 559
f 559 527 565
f 567 530 531
f 568 567 531
f 526 568 531
f 560 568 526
f 563 561 532
f 533 563 532
f 569 563 533
f 564 570 561
f 570 532 561
f 570 534 532
f 528 534 566
f 566 534 570
f 572 571 536
f 536 571 535
f 573 536 537
f 573 572 536
f 537 530 567
f 574 537 567
f 573 537 574
f 574 567 568
f 575 569 533
f 575 533 538
f 576 538 539
f 576 575 538
f 577 539 540
f 577 576 539
f 540 535 571
f 540 571 577
f 579 578 541
f 579 541 542
f 541 580 543
f 578 580 541
f 543 581 544
f 580 581 543
f 546 544 581
f 546 581 582
f 547 583 548
f 583 550 548
f 542 551 584
f 585 542 584
f 579 542 585
f 552 586 551
f 551 586 584
f 554 586 552
f 582 587 546
f 546 587 555
f 555 587 547
f 587 588 547
f 588 583 547
f 588 587 589
f 590 556 550
f 583 590 550
f 588 590 583
f 590 557 556
f 591 585 584
f 591 584 586
f 591 586 592
f 594 592 593
f 593 592 558
f 592 586 558
f 586 554 558
f 559 593 558
f 588 589 595
f 595 589 596
f 588 597 590
f 588 595 597
f 597 560 557
f 597 557 590
f 599 598 562
f 599 562 563
f 601 600 564
f 562 601 564
f 598 601 562
f 600 601 594
f 600 594 593
f 566 600 593
f 565 566 593
f 565 593 559
f 604 603 602
f 602 603 596
f 603 595 596
f 603 605 595
f 595 606 597
f 595 605 606
f 606 568 560
f 606 560 597
f 569 599 563
f 569 607 599
f 600 570 564
f 570 600 566
f 603 604 572
f 604 571 572
f 604 608 571
f 603 572 573
f 603 573 605
f 605 573 574
f 605 574 606
f 606 574 568
f 609 607 569
f 609 569 575
f 610 575 576
f 610 609 575
f 611 576 577
f 611 610 576
f 577 571 608
f 577 608 611
f 613 612 578
f 613 578 579
f 612 615 614
f 580 612 614
f 578 612 580
f 616 581 580
f 616 580 614
f 616 582 581
f 585 613 579
f 585 617 613
f 615 618 614
f 620 619 618
f 619 614 618
f 619 616 614
f 621 587 582
f 616 621 582
f 619 621 616
f 621 589 587
f 585 591 622
f 623 585 622
f 617 585 623
f 592 624 591
f 591 624 622
f 625 624 620
f 592 620 624
f 620 592 619
f 594 619 592
f 619 594 626
f 619 627 621
f 619 626 627
f 627 596 589
f 627 589 621
f 623 622 598
f 599 623 598
f 628 623 599
f 598 622 601
f 601 622 624
f 629 624 625
f 624 629 601
f 630 601 629
f 601 630 594
f 626 594 630
f 630 604 602
f 627 630 602
f 626 630 627
f 627 602 596
f 607 632 631
f 628 607 631
f 599 607 628
f 634 633 632
f 632 633 631
f 633 634 629
f 634 630 629
f 634 635 630
f 635 608 604
f 635 604 630
f 609 632 607
f 632 609 610
f 632 610 634
f 634 610 611
f 634 611 635
f 635 611 608
f 613 636 612
f 636 615 612
f 617 637 636
f 617 636 613
f 638 618 615
f 636 638 615
f 637 638 636
f 638 620 618
f 623 639 637
f 623 637 617
f 637 640 638
f 637 639 640
f 640 625 620
f 640 620 638
f 628 641 639
f 628 639 623
f 639 642 640
f 639 641 642
f 642 629 625
f 642 625 640
f 631 641 628
f 641 631 633
f 641 633 642
f 642 633 629

