# https://github.com/mikedh/trimesh
v -0.05936754 -0.00896920 -0.00967075
v -0.05643879 -0.01401428 -0.01079011
v -0.05671382 -0.01019017 -0.01290600
v -0.05542121 -0.01149560 -0.00709110
v -0.05990385 -0.00261459 -0.01012203
v -0.05670068 -0.00261612 -0.01334963
v -0.05610857 -0.00473932 -0.00608594
v -0.05994559 0.00563912 -0.01013045
v -0.05680203 0.00553832 -0.01328855
v -0.05659744 0.00468998 -0.00598198
v -0.05955558 0.01216141 -0.01060036
v -0.05519564 0.01412148 -0.01310210
v -0.05649997 0.01331742 -0.00745283
v -0.05640012 0.01738500 -0.00958224
v -0.05134697 -0.03262924 -0.01010997
v -0.04722063 -0.03851679 -0.00976680
v -0.04871211 -0.03391745 -0.01326546
v -0.04831597 -0.03440338 -0.00652133
v -0.05197283 -0.02582493 -0.00914886
v -0.04844140 -0.02649531 -0.01356987
v -0.04958737 -0.02854945 -0.00587459
v -0.05300045 -0.01842358 -0.00898769
v -0.04967467 -0.01822283 -0.01363949
v -0.04983421 -0.02272510 -0.00330089
v -0.05148969 -0.01930122 -0.00381694
v -0.04634056 -0.01833543 0.00092161
v -0.04899113 -0.01075782 -0.01447916
v -0.05040466 -0.01440562 -0.00339319
v -0.05072449 -0.00956171 -0.00433173
v -0.04907903 -0.00281190 -0.01440547
v -0.05006296 -0.00620616 -0.00256553
v -0.05247113 -0.00042235 -0.00209709
v -0.04739253 -0.00239633 0.00098497
v -0.04926829 0.00522349 -0.01441124
v -0.05172529 0.00588007 -0.00258068
v -0.04745755 0.00511807 0.00072235
v -0.04813509 0.01204728 -0.01451720
v -0.05080804 0.01202874 -0.00456283
v -0.04859635 0.00918277 -0.00201814
v -0.05277340 0.02073663 -0.01086510
v -0.04781420 0.02102960 -0.01356888
v -0.05029348 0.01932660 -0.00646995
v -0.04855548 0.02390659 -0.00927445
v -0.04418593 -0.04253612 -0.01045236
v -0.03908592 -0.04457937 -0.01001905
v -0.04300296 -0.04066295 -0.01321385
v -0.04137657 -0.04243018 -0.00625569
v -0.04135249 -0.03449535 -0.01477710
v -0.04537562 -0.03275053 -0.00046291
v -0.04212433 -0.03838649 -0.00214713
v -0.04366085 -0.03271272 0.00618586
v -0.04134732 -0.03666819 0.00444930
v -0.03958920 -0.03443102 0.00865736
v -0.04001807 -0.02618843 -0.01381157
v -0.04613198 -0.02530080 -0.00026497
v -0.04419567 -0.02803754 0.00431933
v -0.03924511 -0.02720195 0.01032953
v -0.04188753 -0.01760411 -0.01447319
v -0.04132619 -0.02188527 0.00520171
v -0.04127883 -0.01843675 0.00415138
v -0.04024657 -0.01123295 -0.01349175
v -0.04628821 -0.01020607 0.00047997
v -0.04212333 -0.01452104 0.00473188
v -0.04334141 -0.00875902 0.00601639
v -0.03913169 -0.01168400 0.00854206
v -0.04179409 -0.00295418 -0.01327400
v -0.04398640 -0.00299259 0.00458566
v -0.03944672 -0.00356719 0.00858501
v -0.04196713 0.00489653 -0.01333799
v -0.04263915 0.00339979 0.00380013
v -0.03984502 0.00214219 0.00646119
v -0.04213885 0.01298021 -0.01339675
v -0.04589940 0.01403747 -0.00010673
v -0.04215060 0.00923937 0.00460502
v -0.04325502 0.01486586 0.00621124
v -0.03896050 0.01181740 0.00848753
v -0.04025338 0.02102019 -0.01360750
v -0.04588575 0.02339033 -0.00249210
v -0.04433254 0.02124963 0.00542907
v -0.04023918 0.01935792 0.00927889
v -0.04504498 0.02741356 -0.00961994
v -0.04033957 0.02953513 -0.01359682
v -0.04401784 0.02905096 -0.00328622
v -0.04393219 0.02823234 0.00397683
v -0.03984231 0.02804352 0.00920977
v -0.04113720 0.03253375 -0.00802837
v -0.04131565 0.03305095 0.00013993
v -0.04044842 0.03324906 0.00664123
v -0.03276418 -0.04705905 -0.01051435
v -0.03406381 -0.04241098 -0.01394600
v -0.03653502 -0.04177488 -0.00079220
v -0.03287285 -0.04642322 -0.00296197
v -0.03167422 -0.04296585 0.00289346
v -0.03225012 -0.03441071 -0.01373519
v -0.03539391 -0.03884891 0.00507718
v -0.03200340 -0.03455023 0.01045274
v -0.03278539 -0.02940060 -0.00965818
v -0.03547205 -0.02548795 -0.01068379
v -0.03086955 -0.02553513 -0.00565369
v -0.03407320 -0.02885780 0.01402121
v -0.03621325 -0.02600888 0.01464350
v -0.03178218 -0.02641835 0.01631595
v -0.03201183 -0.02190614 -0.00945823
v -0.03526159 -0.01949086 -0.01263769
v -0.03854460 -0.01725894 0.00661320
v -0.03518496 -0.01812435 0.00962494
v -0.03207933 -0.02288654 0.01401669
v -0.03387640 -0.01409882 -0.01065900
v -0.03632123 -0.00847069 -0.01002730
v -0.03112727 -0.01193031 -0.00740230
v -0.03317294 -0.01027019 0.00966889
v -0.03697713 -0.00107168 -0.00995922
v -0.03158489 -0.00375075 -0.00576189
v -0.03181280 -0.00393707 0.01044012
v -0.03705868 0.00685928 -0.00998393
v -0.03317371 0.00389746 -0.00698457
v -0.03850536 0.00655047 0.00648272
v -0.03477538 0.00433047 0.00982088
v -0.03714199 0.01482579 -0.01005931
v -0.03221822 0.01113139 -0.00685545
v -0.03315453 0.01394910 0.01065211
v -0.03600406 0.02148095 -0.01082574
v -0.03133279 0.02015304 -0.00691744
v -0.03438592 0.02256630 0.01006386
v -0.03316957 0.02484157 -0.01013014
v -0.03508985 0.02751749 -0.01312599
v -0.03205745 0.02829606 0.01008979
v -0.03777572 0.03765547 -0.00976074
v -0.03346158 0.03712737 -0.01335054
v -0.03849109 0.03712649 -0.00323422
v -0.03711383 0.03850268 0.00396879
v -0.03382582 0.03491870 0.00919239
v -0.03592699 0.04358910 -0.01073470
v -0.03201302 0.04525308 -0.01307538
v -0.03631153 0.04366967 -0.00342795
v -0.03355023 0.04419537 0.00226936
v -0.03126300 0.04068673 0.00635953
v -0.03265672 0.04783844 -0.00809947
v -0.03192037 0.04751795 -0.00204174
v -0.02906685 -0.05060823 -0.00796480
v -0.02314652 -0.05317424 -0.00947829
v -0.02674914 -0.04867985 -0.01327069
v -0.02882580 -0.05052894 -0.00270571
v -0.02554347 -0.05292058 -0.00374929
v -0.02389579 -0.04910224 0.00135666
v -0.02472582 -0.04275284 -0.01378478
v -0.02928759 -0.04121137 0.00698498
v -0.02670683 -0.04490130 0.00479905
v -0.02516942 -0.03977062 0.00830312
v -0.02502338 -0.03582913 -0.01260172
v -0.02539129 -0.03468964 0.01015242
v -0.02689289 -0.03189005 -0.01013970
v -0.02554264 -0.02866415 -0.00397672
v -0.02780175 -0.02621625 -0.00118808
v -0.02511869 -0.02609561 0.00010425
v -0.02570210 -0.02993766 0.01282095
v -0.02668687 -0.02541963 0.01616596
v -0.03067822 -0.01737286 -0.00950578
v -0.02622512 -0.01893968 -0.00628487
v -0.02520349 -0.02407732 -0.00213551
v -0.02581037 -0.01808223 0.01041588
v -0.02428508 -0.02319444 0.01352257
v -0.02449650 -0.01033848 -0.00515263
v -0.02466139 -0.01129022 0.01045754
v -0.02634367 -0.00543345 -0.00215111
v -0.02791358 -0.00161235 -0.00216803
v -0.02385700 -0.00334751 0.00008245
v -0.02625565 -0.00617441 0.01274814
v -0.02886743 -0.00026650 0.01492509
v -0.02477604 -0.00388500 0.01711240
v -0.02288262 0.00064906 -0.00186533
v -0.02738050 0.00478443 -0.00504655
v -0.03039060 0.00636394 0.01384070
v -0.02603678 0.00082363 0.02090520
v -0.02797058 0.00620592 0.01963186
v -0.02392339 0.00359205 0.02440640
v -0.02510448 0.01302164 -0.00612569
v -0.02833254 0.01262483 0.01418671
v -0.02578115 0.01214654 0.01784747
v -0.02362311 0.00908317 0.02215716
v -0.02315590 0.02127684 -0.00514428
v -0.02703097 0.02086065 0.01049018
v -0.02293032 0.01648613 0.01345348
v -0.03050549 0.02892082 -0.00873592
v -0.02661789 0.02574338 -0.00280337
v -0.02727275 0.03078594 -0.00316679
v -0.02516161 0.02878100 0.00016321
v -0.02513549 0.02912830 0.00981339
v -0.02842222 0.03661318 -0.00976746
v -0.02531162 0.03505430 -0.00564549
v -0.02514546 0.03145661 -0.00103580
v -0.02537455 0.03600749 0.00909612
v -0.02437504 0.03917109 -0.01090686
v -0.02498502 0.04440617 -0.01357448
v -0.02741378 0.04501299 0.00210309
v -0.02365937 0.04083867 0.00610840
v -0.02518754 0.04910782 -0.00931322
v -0.02541281 0.04807646 -0.00316745
v -0.01554320 -0.05356045 -0.00948876
v -0.01814493 -0.04969734 -0.01298525
v -0.01828923 -0.05381485 -0.00198988
v -0.01681171 -0.05065806 0.00274972
v -0.01769427 -0.04535215 -0.01077326
v -0.02046362 -0.03986667 -0.01006580
v -0.01533844 -0.04237348 -0.00757404
v -0.02199883 -0.04278266 0.00533204
v -0.01788266 -0.04325616 0.00325731
v -0.02153551 -0.03311301 -0.00852845
v -0.01597321 -0.03612363 -0.00667373
v -0.02070884 -0.03570171 0.00642315
v -0.01640137 -0.03591478 0.00337103
v -0.01828983 -0.02681413 -0.00510399
v -0.02243774 -0.02601910 -0.00128897
v -0.01812623 -0.03047892 0.00726649
v -0.02132134 -0.02652226 0.01282755
v -0.01718580 -0.02472509 0.00972451
v -0.01709813 -0.01817455 -0.00631869
v -0.01679165 -0.01746514 0.01002533
v -0.01524776 -0.01125845 -0.00541159
v -0.01658250 -0.01436531 0.01421337
v -0.02172826 -0.00965974 0.01596347
v -0.01989606 -0.00934821 0.02215759
v -0.01740421 -0.01345961 0.02012031
v -0.01574567 -0.01123951 0.02443512
v -0.01946176 -0.00647825 -0.00185979
v -0.01618927 -0.00190993 0.00083193
v -0.02251632 -0.00324211 0.02164650
v -0.01759974 -0.00366152 0.02562160
v -0.01770335 0.00157729 -0.00202604
v -0.01955216 0.00593262 -0.00477105
v -0.01771319 0.00447786 0.02546322
v -0.01812669 0.01283905 -0.00530546
v -0.01970868 0.01326842 0.01769260
v -0.01594389 0.00951475 0.02202169
v -0.01655539 0.02091017 -0.00526777
v -0.01880993 0.02172098 0.01030244
v -0.01533042 0.01676464 0.01330218
v -0.02298156 0.02958915 -0.00298477
v -0.01740917 0.02913402 -0.00646010
v -0.01718967 0.02866051 0.00962717
v -0.02099246 0.03490836 -0.00863705
v -0.01619765 0.03420739 -0.00966597
v -0.01832617 0.03907985 -0.01293888
v -0.01666277 0.03659163 0.00905842
v -0.01767070 0.04476349 -0.01486562
v -0.01765332 0.04573370 0.00272982
v -0.01692072 0.04172185 0.00654074
v -0.02111343 0.05195121 -0.01117999
v -0.01647785 0.05141750 -0.01365201
v -0.01856206 0.05252593 -0.00688891
v -0.01764651 0.04973345 -0.00264642
v -0.01569659 0.05527897 -0.00848726
v -0.00838591 -0.05480551 -0.00942634
v -0.00846172 -0.04990648 -0.01316967
v -0.01089182 -0.05446055 -0.00315832
v -0.01303162 -0.04823159 0.00600128
v -0.01047894 -0.05297278 0.00387698
v -0.00781674 -0.04852078 0.00840855
v -0.01166664 -0.04588727 -0.01009042
v -0.01078438 -0.04065483 -0.00688975
v -0.01357387 -0.04049477 0.00674730
v -0.00853798 -0.04200175 0.00998541
v -0.00909029 -0.03482892 -0.00530538
v -0.01459715 -0.03284875 0.00708641
v -0.01045718 -0.03793155 0.01286270
v -0.01234332 -0.03396269 0.01286449
v -0.00790464 -0.03233796 0.01632728
v -0.01009783 -0.02656794 -0.00501723
v -0.01247729 -0.02683110 0.01207130
v -0.00871993 -0.02674935 0.01657686
v -0.01002763 -0.01854239 -0.00548717
v -0.01090579 -0.02015746 0.01108848
v -0.00835607 -0.02163263 0.01421420
v -0.00912075 -0.01221894 -0.00472870
v -0.01067554 -0.01630275 0.01316789
v -0.00990688 -0.01386356 0.01985234
v -0.00877593 -0.00857777 0.02502346
v -0.01157422 -0.00698563 -0.00208992
v -0.00732146 -0.00273703 0.00235887
v -0.01052372 -0.00155255 0.02641729
v -0.01444738 0.00479735 -0.00071874
v -0.01074315 0.00191604 0.00518558
v -0.01147483 0.00673022 0.00479534
v -0.00959692 0.00488548 0.00806862
v -0.00941343 0.00453661 0.02523628
v -0.01353502 0.01381050 -0.00119672
v -0.00838734 0.01331938 0.00235815
v -0.00954007 0.00762893 0.00686905
v -0.01044318 0.01398430 0.01758364
v -0.00761851 0.00956807 0.02186227
v -0.01263559 0.02167542 -0.00261035
v -0.00983347 0.01964111 0.00046317
v -0.01146122 0.02140347 0.01087213
v -0.00871199 0.01782566 0.01399807
v -0.00744064 0.02485593 -0.00179723
v -0.01113197 0.02754051 -0.00515254
v -0.00946519 0.02930207 0.01060843
v -0.01282608 0.03754894 -0.01097404
v -0.00882799 0.03566925 -0.00696102
v -0.00957844 0.03649931 0.00992398
v -0.00941838 0.04038801 -0.01029384
v -0.01101636 0.04508308 -0.01359176
v -0.01333341 0.04464770 0.00608607
v -0.00904874 0.04322142 0.00909441
v -0.00862426 0.05318747 -0.01367926
v -0.01379284 0.05348261 -0.00316181
v -0.01097855 0.05145655 0.00169693
v -0.00913618 0.04875025 0.00627091
v -0.00971688 0.05641140 -0.00943352
v -0.00855803 0.05601401 -0.00141861
v -0.00419277 -0.05796559 -0.00915510
v -0.00008604 -0.06042387 -0.01083856
v -0.00314338 -0.05657546 -0.01319698
v 0.00047403 -0.05860732 -0.00656704
v -0.00048426 -0.05127553 -0.01478458
v -0.00396168 -0.05429918 -0.00193450
v -0.00519241 -0.05081240 0.00528322
v 0.00064095 -0.04868170 0.00242207
v -0.00571017 -0.04168981 -0.00925527
v -0.00019081 -0.04352998 -0.01329026
v -0.00291000 -0.04648875 0.00674573
v -0.00132914 -0.04102999 0.00867044
v -0.00075522 -0.03941303 -0.00937721
v -0.00177957 -0.03707787 -0.00408045
v -0.00489036 -0.03229509 -0.00149010
v -0.00107557 -0.03280066 0.00044658
v -0.00636641 -0.03540136 0.01358352
v -0.00112032 -0.03489376 0.01132679
v -0.00539578 -0.02484623 -0.00182591
v -0.00176312 -0.02662805 0.00072846
v -0.00212396 -0.03107004 0.01467992
v -0.00157847 -0.02697672 0.01717665
v -0.00531920 -0.01679559 -0.00211767
v -0.00043144 -0.01817600 0.00065531
v -0.00617871 -0.01688915 0.01488237
v -0.00091075 -0.01942487 0.01795536
v -0.00643043 -0.01005924 -0.00149023
v -0.00224489 -0.01071409 0.00131740
v -0.00084064 -0.01055621 0.01872528
v -0.00507771 -0.01093912 0.02187431
v -0.00029608 -0.00391436 0.00252432
v -0.00208406 -0.00729294 0.02244511
v -0.00267412 -0.00136078 0.02484821
v -0.00740702 0.00597746 0.00502470
v -0.00176613 0.00406854 0.00180239
v -0.00293040 0.00559284 0.02423900
v -0.00445194 0.01161522 -0.00078686
v 0.00065586 0.00975637 -0.00242368
v 0.00003864 0.01400358 -0.00435758
v -0.00158799 0.01240233 0.01863667
v -0.00080334 0.00848203 0.02124744
v -0.00230887 0.01647298 -0.00165007
v -0.00251908 0.02065450 0.00052546
v -0.00599446 0.02300578 0.01373228
v -0.00202385 0.01898447 0.01690540
v 0.00020441 0.02521347 -0.00177054
v -0.00357372 0.02991174 -0.00490886
v -0.00466385 0.02930996 0.01331855
v -0.00098445 0.02667120 0.01652113
v -0.00064733 0.03633442 -0.00529567
v -0.00225191 0.03719663 0.00991651
v 0.00013091 0.03240491 0.01261350
v -0.00559686 0.04446989 -0.00869704
v -0.00291409 0.04197690 -0.00270389
v -0.00333168 0.04586161 -0.00286477
v -0.00165325 0.04527571 0.00021625
v -0.00119534 0.04475799 0.01042785
v -0.00121527 0.04764436 -0.00901500
v -0.00136719 0.05130121 -0.01314839
v -0.00109130 0.04691506 -0.00301175
v -0.00564033 0.05362481 0.00536242
v -0.00137334 0.05060523 0.00942059
v -0.00175720 0.05648651 -0.00956427
v -0.00150782 0.05740829 -0.00193552
v -0.00063550 0.05591818 0.00569463
v 0.00469805 -0.06046991 -0.00964016
v 0.00512449 -0.05685272 -0.01330786
v 0.00687118 -0.05800058 -0.00727097
v 0.00541262 -0.04890238 -0.01473577
v 0.00619978 -0.05426204 -0.00200846
v 0.00679609 -0.04995318 0.00242884
v 0.00830162 -0.04275878 -0.01352135
v 0.00164019 -0.04272909 0.00518700
v 0.00585816 -0.04399252 0.00357355
v 0.00438239 -0.03805829 -0.00878433
v 0.00237449 -0.03429966 -0.00261505
v 0.00719643 -0.03323131 -0.00572709
v 0.00513068 -0.03921910 0.00607739
v 0.00765133 -0.03449386 0.00969275
v 0.00211802 -0.02832525 -0.00140781
v 0.00695581 -0.02616718 -0.00490236
v 0.00422349 -0.02942547 0.01386652
v 0.00487942 -0.02498962 0.01732652
v 0.00238766 -0.02068958 -0.00166527
v 0.00825396 -0.01775964 -0.00489644
v 0.00683186 -0.02144645 0.02011703
v 0.00391178 -0.01712531 0.02170278
v 0.00623065 -0.01829492 0.02357779
v 0.00498001 -0.01479284 -0.00131044
v 0.00611267 -0.00910995 0.00128953
v 0.00606693 -0.01231260 0.01871773
v 0.00737108 -0.01601319 0.02175160
v 0.00523882 -0.00152331 0.00245751
v 0.00195820 -0.00307428 0.02112776
v 0.00675776 -0.00320746 0.01842927
v 0.00662749 0.00531826 0.00092661
v 0.00242302 0.00323101 0.02176040
v 0.00625356 0.00582934 0.01851563
v 0.00697972 0.01035540 -0.00159483
v 0.00483354 0.01279123 -0.00418253
v 0.00653102 0.01308472 0.01780895
v 0.00406584 0.01699436 -0.00227543
v 0.00717576 0.01977084 0.00004944
v 0.00632601 0.02102508 0.01810892
v 0.00683091 0.02372282 -0.00244152
v 0.00519572 0.02902106 -0.00606399
v 0.00595740 0.02816207 0.01725402
v 0.00329765 0.03703780 -0.00872693
v 0.00859199 0.03267654 -0.01034080
v 0.00619426 0.03810188 -0.01284493
v 0.00249322 0.03581363 0.00657172
v 0.00703958 0.03728356 0.00345727
v 0.00645447 0.03425713 0.00793183
v 0.00677107 0.03188861 0.01402147
v 0.00219198 0.04392619 -0.00912971
v 0.00573315 0.04515439 -0.01385871
v 0.00048152 0.04311586 -0.00325539
v 0.00645258 0.04035371 0.00544890
v 0.00541158 0.04606297 0.00909505
v 0.00811919 0.05216011 -0.01371258
v 0.00538932 0.05306326 0.00903886
v 0.00513903 0.05614885 -0.01050657
v 0.00681443 0.05649295 -0.00421767
v 0.00594295 0.05575979 0.00407923
v 0.00987810 -0.05745795 -0.01082444
v 0.01489263 -0.05445660 -0.00854831
v 0.01247310 -0.05052406 -0.01372530
v 0.01549324 -0.05448658 -0.00063907
v 0.01076674 -0.04779036 0.00603764
v 0.01287014 -0.05299749 0.00437599
v 0.01616722 -0.05049655 0.00890621
v 0.01634951 -0.04155650 -0.01371057
v 0.00911918 -0.04115864 0.00631745
v 0.01428962 -0.04295148 0.00946368
v 0.01193958 -0.03746415 -0.01016444
v 0.01457886 -0.03180421 -0.00724363
v 0.01520474 -0.03512935 0.00995001
v 0.01274133 -0.02518651 -0.00615030
v 0.00966323 -0.02656707 0.01424919
v 0.01566882 -0.02642508 0.01070083
v 0.01504182 -0.01963676 -0.00618210
v 0.01310354 -0.02182592 0.01574260
v 0.00981955 -0.01895618 0.02113081
v 0.01324621 -0.01583878 0.01741774
v 0.00971435 -0.01132330 -0.00255351
v 0.01551339 -0.01072508 -0.00518357
v 0.01350330 -0.00836724 0.01663443
v 0.01335505 -0.00696225 -0.00135533
v 0.01200736 -0.00166997 0.00065306
v 0.01346176 -0.00063563 0.01661808
v 0.01205078 0.00555500 -0.00096061
v 0.01528870 0.00107485 -0.00271349
v 0.01633993 0.00515048 -0.00431739
v 0.01487144 0.00706911 0.01691890
v 0.00882185 0.01438407 -0.00148687
v 0.01450190 0.00898743 -0.00198802
v 0.01296149 0.01202618 0.00027393
v 0.01353287 0.01403789 0.01802426
v 0.01268288 0.02252638 -0.00446535
v 0.01038493 0.02086438 -0.00177935
v 0.01553366 0.01766665 -0.00120592
v 0.01447402 0.02107535 0.01831111
v 0.01491242 0.02841076 -0.00681954
v 0.01410750 0.02821331 0.01732603
v 0.01473993 0.03355241 -0.00942136
v 0.01281264 0.03800950 -0.01321359
v 0.01043007 0.03755791 0.00482221
v 0.01433323 0.03724643 0.00889039
v 0.01468973 0.03304343 0.01322162
v 0.01287492 0.04588677 -0.01467607
v 0.01217328 0.04340153 0.00263095
v 0.01032475 0.04626021 0.00473622
v 0.01505200 0.04121598 0.00632641
v 0.01603302 0.05228163 -0.01350297
v 0.01112342 0.05157588 0.00039578
v 0.01379252 0.05360978 -0.00510974
v 0.01670935 0.04927256 -0.00098966
v 0.00941987 0.05125763 0.00641075
v 0.01337807 0.05565637 -0.00962031
v 0.02372456 -0.05347001 -0.01060598
v 0.02053795 -0.04931450 -0.01375032
v 0.02264592 -0.05379269 -0.00282060
v 0.02011959 -0.05313754 0.00565726
v 0.02144851 -0.04803075 0.00934554
v 0.02340890 -0.04331143 -0.01471066
v 0.02108826 -0.04010767 0.00938059
v 0.01764425 -0.03517644 -0.01071214
v 0.02349450 -0.03574591 -0.01317452
v 0.02231111 -0.03184295 0.00905797
v 0.02167819 -0.03146798 -0.00947960
v 0.02134047 -0.02658590 -0.00680964
v 0.02198661 -0.02598861 0.00967150
v 0.02313117 -0.01832239 -0.00511261
v 0.01724609 -0.01872863 0.01297246
v 0.02207970 -0.01905472 0.01039735
v 0.02179805 -0.01045991 -0.00631752
v 0.01830461 -0.01203144 0.01347496
v 0.02283308 -0.01028470 0.01053385
v 0.01655954 -0.00353900 -0.00269637
v 0.02097514 -0.00283106 -0.00566079
v 0.01804461 -0.00426987 0.01350579
v 0.02260020 -0.00236761 0.01040239
v 0.02358059 0.00338565 -0.00469707
v 0.01848451 0.00297505 0.01357692
v 0.02408932 0.00592446 0.01070047
v 0.01954202 0.00891947 -0.00199925
v 0.02336184 0.01241183 0.00055001
v 0.02103326 0.00860166 0.01422661
v 0.02090127 0.01421917 0.01671246
v 0.02269186 0.01796675 -0.00087182
v 0.01982074 0.02161931 -0.00422671
v 0.02157054 0.02304645 0.01723979
v 0.02320702 0.02830301 -0.00667512
v 0.02055067 0.02927080 0.01640480
v 0.01866267 0.03790076 -0.01043680
v 0.02025597 0.03490076 -0.00767395
v 0.02200523 0.03610588 0.01102641
v 0.02274617 0.03205598 0.01350085
v 0.02323111 0.03928421 -0.01047349
v 0.02090821 0.04393620 -0.01361223
v 0.01745959 0.04537921 0.00478228
v 0.02115803 0.04253761 0.00852804
v 0.02384646 0.05261091 -0.01351501
v 0.02035454 0.05315709 -0.00633246
v 0.02345429 0.05016021 -0.00221149
v 0.02292969 0.04736857 0.00360639
v 0.02211016 0.05558511 -0.01043837
v 0.02869921 -0.05288959 -0.00862809
v 0.02798611 -0.04965428 -0.01335662
v 0.02743610 -0.05012908 -0.00154856
v 0.03093164 -0.04955635 -0.00581278
v 0.02478338 -0.05045462 0.00475786
v 0.03025646 -0.04165883 -0.01395130
v 0.02964745 -0.04567929 -0.00101493
v 0.02622973 -0.04409619 0.00511161
v 0.02951009 -0.04025027 0.00195403
v 0.03159642 -0.03284975 -0.01357327
v 0.02649843 -0.03612301 0.00605558
v 0.03153242 -0.03587337 0.00343085
v 0.02797541 -0.02988469 -0.01003949
v 0.02930759 -0.02470158 -0.00564597
v 0.02893538 -0.03169219 0.00661439
v 0.02965095 -0.02728565 0.00938029
v 0.02896222 -0.02098841 -0.00176247
v 0.02767746 -0.01750649 -0.00177926
v 0.02995059 -0.01859416 0.00010133
v 0.02998154 -0.01850503 0.00995672
v 0.03044706 -0.01503345 -0.00247368
v 0.02926722 -0.00984832 -0.00591829
v 0.02975467 -0.01061606 0.00969933
v 0.03069327 -0.00085992 -0.00525673
v 0.02962459 -0.00267795 0.00958203
v 0.02936326 0.00254853 -0.00240581
v 0.02565310 0.00625110 -0.00124062
v 0.02918652 0.00590372 0.00009682
v 0.03077733 0.00412239 0.00964725
v 0.03238691 0.01424566 -0.00400825
v 0.02765359 0.01424267 -0.00092125
v 0.03016441 0.00883812 -0.00155773
v 0.02487594 0.01273762 0.01307622
v 0.02981094 0.01248926 0.01046585
v 0.02607909 0.02232583 -0.00300250
v 0.02974926 0.01734886 -0.00148863
v 0.02790054 0.01913075 0.00005830
v 0.02626226 0.01930319 0.01379829
v 0.03100285 0.02105060 0.01078929
v 0.02668058 0.02954585 -0.01002572
v 0.03009042 0.02619998 -0.00876164
v 0.02987003 0.03057962 -0.01248529
v 0.03188846 0.02340641 -0.00356619
v 0.02586822 0.02686865 0.01398748
v 0.02974007 0.02939337 0.01090449
v 0.02554814 0.03454530 -0.00998630
v 0.02952206 0.03738398 -0.01350205
v 0.02921578 0.03731459 0.00905671
v 0.02981045 0.04535338 -0.01448244
v 0.02659344 0.04386184 0.00678246
v 0.02958612 0.04439430 0.00313518
v 0.03002756 0.04095404 0.00628023
v 0.03132672 0.05183579 -0.01308777
v 0.02860505 0.05245988 -0.00627882
v 0.02849873 0.04841358 -0.00090075
v 0.02841902 0.05541613 -0.01097433
v 0.03241696 -0.04840372 -0.01022370
v 0.03470028 -0.04211656 -0.01071163
v 0.03386163 -0.04243331 -0.00323368
v 0.03811188 -0.03818962 -0.00809528
v 0.03725517 -0.03495958 -0.01360898
v 0.03866027 -0.03810123 -0.00071036
v 0.03683014 -0.03701614 0.00445600
v 0.03365830 -0.03305271 0.00687767
v 0.03770370 -0.03213495 0.00869970
v 0.03334308 -0.02578500 -0.00961809
v 0.03712326 -0.02630299 -0.01366122
v 0.03714517 -0.02473818 0.00943790
v 0.03513487 -0.01932595 -0.01013520
v 0.03878865 -0.01809658 -0.01358846
v 0.03245045 -0.01922947 -0.00388775
v 0.03852489 -0.01677249 0.00935849
v 0.03423350 -0.01258884 -0.00866518
v 0.04018716 -0.00963504 -0.01316012
v 0.03688014 -0.00987849 0.01001389
v 0.03664719 -0.00677729 -0.00949668
v 0.03709240 -0.00199364 -0.00749097
v 0.03801264 -0.00295320 0.01007138
v 0.03256736 0.00359592 -0.00230975
v 0.03637451 0.00624807 -0.00588925
v 0.03778661 0.00515240 0.01004396
v 0.03793781 0.01469428 -0.00714845
v 0.03885154 0.01402101 0.00929366
v 0.03217133 0.02025177 -0.00213733
v 0.03613591 0.02061292 -0.00582589
v 0.03693833 0.02194700 0.01012229
v 0.03753292 0.02430702 -0.00957183
v 0.03712803 0.02898420 -0.01362056
v 0.03771355 0.02905643 0.00959589
v 0.03791845 0.03712865 -0.01461902
v 0.03406788 0.03737791 0.00541920
v 0.03741673 0.03747060 0.00159505
v 0.04043733 0.03289595 0.00528621
v 0.03826946 0.04463883 -0.01334301
v 0.03415990 0.04476531 -0.00197830
v 0.03812819 0.04495644 -0.00626495
v 0.03800854 0.04048413 -0.00204855
v 0.03689765 0.04889030 -0.01098370
v 0.03369903 0.05157904 -0.00898848
v 0.04209224 -0.03356032 -0.01067319
v 0.04215578 -0.03386644 -0.00270776
v 0.04045407 -0.03469034 0.00479187
v 0.04618350 -0.03025980 -0.00786733
v 0.04458664 -0.02626146 -0.01362903
v 0.04535968 -0.02945465 -0.00118311
v 0.04190632 -0.02762667 0.00470394
v 0.04505229 -0.02537613 0.00055558
v 0.04474594 -0.01721476 -0.01473434
v 0.04346372 -0.02034551 -0.00000733
v 0.04752654 -0.01672862 -0.00433773
v 0.04710384 -0.02265483 -0.00350507
v 0.04185532 -0.01959464 0.00527522
v 0.04716109 -0.01151034 -0.01455291
v 0.04572486 -0.01491837 0.00021316
v 0.04502099 -0.01465475 0.00600064
v 0.04480130 -0.00962257 0.00903247
v 0.04069789 -0.00275400 -0.01076472
v 0.04598818 -0.00299469 -0.01356150
v 0.04518418 -0.00093638 0.00943851
v 0.04188125 0.00372615 -0.01016170
v 0.04694214 0.00570443 -0.01344049
v 0.04382144 0.00659566 0.00878815
v 0.04193629 0.01172333 -0.01021156
v 0.04699861 0.01348674 -0.01352699
v 0.04332718 0.01192866 0.00671862
v 0.04617704 0.01310847 0.00425173
v 0.04690645 0.00922450 0.00475335
v 0.04143905 0.01921351 -0.01021929
v 0.04571322 0.02159130 -0.01372854
v 0.04618342 0.01654038 0.00536450
v 0.04442626 0.02200466 0.00909488
v 0.04618837 0.02907360 -0.01466492
v 0.04449528 0.02864906 0.00893958
v 0.04653569 0.03651725 -0.01329183
v 0.04112966 0.03779648 -0.00232319
v 0.04592032 0.03698172 -0.00617226
v 0.04481473 0.03333683 -0.00008944
v 0.04604494 0.03102684 0.00479443
v 0.04488775 0.04067466 -0.01095912
v 0.04147090 0.04329161 -0.00904664
v 0.05024328 -0.02496406 -0.00897158
v 0.04761422 -0.02721462 -0.00360517
v 0.05458855 -0.02162306 -0.01012708
v 0.05193467 -0.01916477 -0.01319275
v 0.05304620 -0.01896680 -0.00743461
v 0.05347203 -0.01061824 -0.01338463
v 0.04943853 -0.01005838 -0.00133722
v 0.05319167 -0.01010829 -0.00638292
v 0.04845214 -0.01063432 0.00418645
v 0.05335023 -0.00256663 -0.01346646
v 0.05089364 -0.00282549 -0.00115827
v 0.05406818 -0.00110067 -0.00623342
v 0.04929857 -0.00462175 0.00515159
v 0.05327876 0.00523666 -0.01356855
v 0.05101704 0.00518244 -0.00074522
v 0.05465883 0.00549994 -0.00488776
v 0.04849446 0.00288718 0.00527814
v 0.05339211 0.01309266 -0.01356513
v 0.05381522 0.00899733 -0.00194729
v 0.05125153 0.01306179 0.00097040
v 0.05349945 0.02103080 -0.01355272
v 0.05091834 0.02092530 0.00056656
v 0.05437761 0.02330065 -0.00560295
v 0.05477974 0.01741654 -0.00317395
v 0.04873283 0.02156583 0.00559627
v 0.05344014 0.02862046 -0.01301668
v 0.04977659 0.02964528 -0.00226454
v 0.05369348 0.02965095 -0.00745841
v 0.04871936 0.02649931 0.00549732
v 0.05319091 0.03260405 -0.01092894
v 0.04968804 0.03533818 -0.00896572
v 0.05636397 -0.01729114 -0.01074355
v 0.05657407 -0.01097740 -0.01029287
v 0.05639575 -0.00306208 -0.01044401
v 0.05668188 0.00564547 -0.00953886
v 0.05737300 0.01395079 -0.01032204
v 0.05658527 0.01202044 -0.00456681
v 0.05687274 0.02044542 -0.00901111
v 0.05610157 0.02731946 -0.00975040
f 3 2 1
f 4 1 2
f 3 1 5
f 3 5 6
f 1 4 7
f 1 7 5
f 6 5 8
f 6 8 9
f 5 7 10
f 5 10 8
f 9 8 11
f 9 11 12
f 8 10 13
f 8 13 11
f 14 12 11
f 14 11 13
f 17 16 15
f 18 15 16
f 17 15 19
f 17 19 20
f 15 18 21
f 15 21 19
f 20 19 22
f 20 22 23
f 19 21 24
f 25 19 24
f 22 19 25
f 26 25 24
f 23 22 2
f 3 23 2
f 27 23 3
f 22 25 28
f 4 22 28
f 29 4 28
f 22 4 2
f 28 25 26
f 6 27 3
f 6 30 27
f 32 7 31
f 7 29 31
f 7 4 29
f 33 32 31
f 9 30 6
f 9 34 30
f 35 10 32
f 32 10 7
f 32 33 36
f 32 36 35
f 12 34 9
f 12 37 34
f 39 38 35
f 38 10 35
f 38 13 10
f 39 35 36
f 12 14 40
f 41 12 40
f 37 12 41
f 42 40 14
f 13 42 14
f 38 42 13
f 43 41 40
f 43 40 42
f 46 45 44
f 47 44 45
f 46 44 16
f 17 46 16
f 48 46 17
f 50 49 18
f 50 18 16
f 47 50 16
f 44 47 16
f 52 51 49
f 52 49 50
f 53 51 52
f 20 48 17
f 20 54 48
f 55 21 49
f 49 21 18
f 56 49 51
f 55 49 56
f 51 53 57
f 51 57 56
f 23 54 20
f 23 58 54
f 55 24 21
f 55 56 59
f 26 55 59
f 60 26 59
f 55 26 24
f 59 56 57
f 27 58 23
f 27 61 58
f 62 29 28
f 26 60 63
f 62 26 63
f 64 62 63
f 28 26 62
f 65 64 63
f 30 61 27
f 30 66 61
f 62 31 29
f 31 62 33
f 62 67 33
f 62 64 67
f 64 65 68
f 64 68 67
f 34 66 30
f 34 69 66
f 71 70 67
f 70 33 67
f 70 36 33
f 71 67 68
f 37 69 34
f 37 72 69
f 73 38 39
f 36 70 74
f 73 36 74
f 75 73 74
f 39 36 73
f 76 75 74
f 41 72 37
f 41 77 72
f 78 42 73
f 73 42 38
f 79 73 75
f 78 73 79
f 75 76 80
f 75 80 79
f 41 43 81
f 82 41 81
f 77 41 82
f 42 78 43
f 78 81 43
f 78 83 81
f 84 78 79
f 83 78 84
f 79 80 85
f 79 85 84
f 86 82 81
f 86 81 83
f 86 83 87
f 87 83 84
f 87 84 88
f 88 84 85
f 90 89 45
f 90 45 46
f 92 91 47
f 45 92 47
f 89 92 45
f 93 91 92
f 48 90 46
f 48 94 90
f 91 50 47
f 93 95 91
f 95 50 91
f 95 52 50
f 53 52 95
f 53 95 96
f 54 98 97
f 94 54 97
f 48 54 94
f 98 99 97
f 101 57 100
f 57 96 100
f 57 53 96
f 102 101 100
f 104 103 98
f 54 104 98
f 58 104 54
f 98 103 99
f 105 60 59
f 106 105 59
f 106 59 57
f 107 106 57
f 101 107 57
f 107 101 102
f 61 109 108
f 104 61 108
f 58 61 104
f 109 110 108
f 105 63 60
f 65 63 105
f 106 65 105
f 111 65 106
f 66 112 109
f 66 109 61
f 110 109 113
f 113 109 112
f 111 68 65
f 114 68 111
f 69 115 112
f 69 112 66
f 113 112 116
f 116 112 115
f 117 70 71
f 118 117 71
f 68 118 71
f 114 118 68
f 72 119 115
f 72 115 69
f 116 115 120
f 120 115 119
f 117 74 70
f 76 74 117
f 118 76 117
f 121 76 118
f 77 122 119
f 77 119 72
f 120 119 123
f 123 119 122
f 121 80 76
f 124 80 121
f 126 125 122
f 77 126 122
f 82 126 77
f 122 125 123
f 124 85 80
f 127 85 124
f 82 86 128
f 129 82 128
f 126 82 129
f 87 130 86
f 86 130 128
f 88 131 87
f 87 131 130
f 132 131 88
f 85 132 88
f 127 132 85
f 129 128 133
f 129 133 134
f 135 128 130
f 133 128 135
f 131 137 136
f 135 131 136
f 130 131 135
f 137 131 132
f 138 134 133
f 138 133 135
f 138 135 139
f 139 135 136
f 142 141 140
f 144 143 140
f 144 140 141
f 145 143 144
f 142 140 89
f 90 142 89
f 146 142 90
f 89 140 92
f 92 140 143
f 148 147 93
f 148 93 92
f 145 148 92
f 143 145 92
f 149 147 148
f 94 146 90
f 94 150 146
f 147 95 93
f 96 95 147
f 149 96 147
f 151 96 149
f 152 150 94
f 152 94 97
f 154 153 99
f 153 97 99
f 153 152 97
f 154 155 153
f 151 156 96
f 96 156 100
f 102 100 156
f 102 156 157
f 104 158 103
f 158 159 103
f 103 159 99
f 159 160 99
f 160 154 99
f 154 160 155
f 162 161 107
f 107 161 106
f 107 102 157
f 107 157 162
f 108 158 104
f 108 110 158
f 110 159 158
f 110 163 159
f 161 111 106
f 164 111 161
f 113 166 165
f 163 113 165
f 110 113 163
f 166 167 165
f 169 114 168
f 114 164 168
f 114 111 164
f 170 169 168
f 172 171 166
f 113 172 166
f 116 172 113
f 166 171 167
f 173 118 169
f 169 118 114
f 169 170 174
f 175 169 174
f 173 169 175
f 176 175 174
f 120 172 116
f 120 177 172
f 178 121 173
f 173 121 118
f 175 180 179
f 178 175 179
f 173 175 178
f 180 175 176
f 123 177 120
f 123 181 177
f 183 182 178
f 182 121 178
f 182 124 121
f 183 178 179
f 126 184 125
f 181 123 185
f 123 184 185
f 184 186 185
f 123 125 184
f 186 187 185
f 182 127 124
f 188 127 182
f 129 189 184
f 129 184 126
f 191 186 190
f 186 189 190
f 186 184 189
f 186 191 187
f 188 132 127
f 192 132 188
f 194 193 189
f 129 194 189
f 134 194 129
f 189 193 190
f 196 195 137
f 137 195 136
f 137 132 192
f 137 192 196
f 197 194 134
f 197 134 138
f 198 138 139
f 198 197 138
f 139 136 195
f 139 195 198
f 200 199 141
f 200 141 142
f 141 201 144
f 199 201 141
f 145 144 201
f 145 201 202
f 146 204 203
f 200 146 203
f 142 146 200
f 204 205 203
f 148 145 206
f 145 207 206
f 145 202 207
f 206 149 148
f 150 208 204
f 150 204 146
f 205 204 209
f 209 204 208
f 206 207 210
f 210 207 211
f 210 151 149
f 210 149 206
f 152 208 150
f 152 153 208
f 153 212 208
f 212 209 208
f 153 213 212
f 211 214 210
f 213 153 155
f 214 216 215
f 214 215 156
f 210 214 156
f 151 210 156
f 215 157 156
f 212 213 160
f 159 212 160
f 217 212 159
f 160 213 155
f 215 216 162
f 216 161 162
f 216 218 161
f 215 162 157
f 163 217 159
f 163 219 217
f 221 164 220
f 164 218 220
f 164 161 218
f 223 222 221
f 223 221 220
f 224 222 223
f 225 219 163
f 225 163 165
f 165 167 225
f 225 167 226
f 221 168 164
f 168 221 170
f 221 227 170
f 221 222 227
f 222 224 228
f 222 228 227
f 230 229 171
f 230 171 172
f 167 171 226
f 226 171 229
f 227 174 170
f 176 174 227
f 228 176 227
f 231 176 228
f 177 230 172
f 177 232 230
f 234 233 180
f 180 233 179
f 180 176 231
f 180 231 234
f 181 232 177
f 181 235 232
f 237 236 183
f 183 236 182
f 183 179 233
f 183 233 237
f 181 185 238
f 239 181 238
f 235 181 239
f 187 238 185
f 236 188 182
f 240 188 236
f 243 242 241
f 241 242 239
f 241 239 238
f 190 241 238
f 191 190 238
f 191 238 187
f 240 192 188
f 244 192 240
f 243 241 193
f 194 243 193
f 245 243 194
f 193 241 190
f 247 246 196
f 196 246 195
f 196 192 244
f 196 244 247
f 194 197 248
f 249 194 248
f 245 194 249
f 248 197 250
f 197 251 250
f 197 198 251
f 198 195 246
f 198 246 251
f 252 249 248
f 252 248 250
f 254 253 199
f 254 199 200
f 199 255 201
f 253 255 199
f 257 256 202
f 201 257 202
f 255 257 201
f 258 256 257
f 259 254 200
f 259 200 203
f 203 205 259
f 259 205 260
f 261 207 256
f 256 207 202
f 256 258 262
f 256 262 261
f 209 260 205
f 209 263 260
f 264 211 261
f 261 211 207
f 261 262 265
f 266 261 265
f 264 261 266
f 267 266 265
f 212 263 209
f 212 268 263
f 264 214 211
f 214 264 216
f 264 269 216
f 264 266 269
f 266 267 270
f 266 270 269
f 217 268 212
f 217 271 268
f 273 272 269
f 272 216 269
f 272 218 216
f 273 269 270
f 219 271 217
f 219 274 271
f 272 275 218
f 218 275 220
f 220 276 223
f 275 276 220
f 224 223 276
f 224 276 277
f 278 274 219
f 278 219 225
f 225 226 278
f 278 226 279
f 277 228 224
f 280 228 277
f 230 281 229
f 279 226 282
f 226 281 282
f 281 283 282
f 226 229 281
f 283 284 282
f 280 231 228
f 285 231 280
f 232 286 281
f 232 281 230
f 288 283 287
f 283 286 287
f 283 281 286
f 283 288 284
f 290 289 234
f 234 289 233
f 234 231 285
f 234 285 290
f 235 291 286
f 235 286 232
f 287 286 292
f 292 286 291
f 294 293 237
f 237 293 236
f 237 233 289
f 237 289 294
f 296 295 291
f 235 296 291
f 239 296 235
f 291 295 292
f 293 240 236
f 297 240 293
f 243 298 242
f 298 299 242
f 299 239 242
f 299 296 239
f 297 244 240
f 300 244 297
f 302 301 298
f 243 302 298
f 245 302 243
f 298 301 299
f 303 246 247
f 304 303 247
f 244 304 247
f 300 304 244
f 249 302 245
f 249 305 302
f 306 250 251
f 307 306 251
f 307 251 246
f 308 307 246
f 303 308 246
f 308 303 304
f 309 305 249
f 309 249 252
f 252 250 306
f 310 252 306
f 309 252 310
f 310 306 307
f 313 312 311
f 314 311 312
f 313 311 253
f 254 313 253
f 315 313 254
f 314 316 311
f 316 253 311
f 316 255 253
f 316 318 317
f 257 316 317
f 255 316 257
f 317 258 257
f 254 259 319
f 320 254 319
f 315 254 320
f 260 319 259
f 318 321 317
f 258 317 321
f 322 258 321
f 262 258 322
f 323 320 319
f 260 263 319
f 263 324 319
f 324 323 319
f 324 263 325
f 325 326 324
f 265 262 327
f 262 328 327
f 262 322 328
f 327 267 265
f 268 329 325
f 268 325 263
f 326 325 330
f 330 325 329
f 328 331 327
f 267 327 331
f 332 267 331
f 270 267 332
f 271 333 329
f 271 329 268
f 330 329 334
f 334 329 333
f 335 272 273
f 336 335 273
f 270 336 273
f 332 336 270
f 274 337 333
f 274 333 271
f 334 333 338
f 338 333 337
f 335 275 272
f 276 275 335
f 339 276 335
f 336 339 335
f 340 276 339
f 340 277 276
f 278 337 274
f 278 279 337
f 279 338 337
f 279 341 338
f 339 342 340
f 277 340 342
f 343 277 342
f 280 277 343
f 279 282 344
f 345 279 344
f 341 279 345
f 284 344 282
f 343 285 280
f 346 285 343
f 349 348 347
f 347 348 345
f 347 345 344
f 287 347 344
f 288 287 344
f 288 344 284
f 351 350 290
f 290 350 289
f 290 285 346
f 290 346 351
f 352 349 347
f 347 287 352
f 287 353 352
f 287 292 353
f 354 293 294
f 355 354 294
f 289 355 294
f 350 355 289
f 357 356 295
f 357 295 296
f 292 295 353
f 353 295 356
f 358 297 354
f 354 297 293
f 354 355 359
f 354 359 358
f 299 357 296
f 299 360 357
f 362 361 358
f 361 297 358
f 361 300 297
f 362 358 359
f 302 363 301
f 360 299 364
f 299 363 364
f 363 365 364
f 299 301 363
f 365 366 364
f 361 304 300
f 367 304 361
f 369 368 363
f 302 369 363
f 305 369 302
f 363 368 365
f 365 368 370
f 371 307 308
f 370 366 365
f 372 371 308
f 304 372 308
f 367 372 304
f 373 369 305
f 373 305 309
f 374 309 310
f 374 373 309
f 310 307 371
f 375 310 371
f 374 310 375
f 375 371 372
f 377 376 312
f 377 312 313
f 314 312 376
f 314 376 378
f 315 377 313
f 315 379 377
f 378 380 314
f 314 380 316
f 318 316 380
f 318 380 381
f 320 379 315
f 320 382 379
f 321 318 383
f 318 384 383
f 318 381 384
f 383 322 321
f 385 382 320
f 385 320 323
f 387 385 386
f 385 324 386
f 385 323 324
f 384 388 383
f 386 324 326
f 322 383 388
f 389 322 388
f 328 322 389
f 387 386 390
f 387 390 391
f 330 390 326
f 326 390 386
f 389 392 328
f 328 392 331
f 332 331 392
f 332 392 393
f 391 390 394
f 391 394 395
f 334 394 330
f 330 394 390
f 397 336 396
f 336 393 396
f 336 332 393
f 398 397 396
f 399 395 394
f 394 334 399
f 334 400 399
f 334 338 400
f 402 401 397
f 401 336 397
f 401 339 336
f 402 397 398
f 341 400 338
f 341 403 400
f 342 339 404
f 339 405 404
f 339 401 405
f 404 343 342
f 345 403 341
f 345 406 403
f 404 405 407
f 407 405 408
f 407 346 343
f 407 343 404
f 410 409 348
f 410 348 349
f 345 348 406
f 406 348 409
f 407 408 351
f 408 350 351
f 408 411 350
f 407 351 346
f 412 410 349
f 412 349 352
f 352 353 412
f 412 353 413
f 411 355 350
f 414 355 411
f 416 415 356
f 416 356 357
f 353 356 413
f 413 356 415
f 414 359 355
f 417 359 414
f 420 419 418
f 419 416 418
f 416 360 418
f 416 357 360
f 423 422 421
f 361 362 421
f 362 423 421
f 362 424 423
f 362 359 417
f 362 417 424
f 420 418 425
f 420 425 426
f 364 427 360
f 427 418 360
f 427 425 418
f 422 428 421
f 427 364 366
f 361 421 428
f 429 361 428
f 367 361 429
f 426 425 368
f 369 426 368
f 430 426 369
f 368 425 370
f 370 425 427
f 370 427 366
f 429 372 367
f 431 372 429
f 432 430 369
f 432 369 373
f 433 373 374
f 433 432 373
f 434 374 375
f 434 433 374
f 375 372 431
f 375 431 434
f 377 435 376
f 435 378 376
f 437 436 435
f 377 437 435
f 379 437 377
f 435 436 378
f 436 380 378
f 436 438 380
f 440 439 381
f 380 440 381
f 438 440 380
f 441 439 440
f 382 437 379
f 382 442 437
f 443 384 439
f 439 384 381
f 439 441 444
f 439 444 443
f 445 442 382
f 445 382 385
f 385 387 445
f 445 387 446
f 443 388 384
f 389 388 443
f 444 389 443
f 447 389 444
f 391 446 387
f 391 448 446
f 392 389 449
f 389 450 449
f 389 447 450
f 449 393 392
f 395 448 391
f 395 451 448
f 450 452 449
f 452 454 453
f 452 453 396
f 449 452 396
f 393 449 396
f 453 398 396
f 395 399 455
f 456 395 455
f 451 395 456
f 400 455 399
f 453 454 402
f 454 401 402
f 454 457 401
f 453 402 398
f 458 456 455
f 455 400 458
f 400 459 458
f 400 403 459
f 457 405 401
f 460 405 457
f 463 462 461
f 462 459 461
f 459 406 461
f 459 403 406
f 460 408 405
f 464 408 460
f 409 410 465
f 461 466 463
f 466 461 467
f 461 406 467
f 409 465 467
f 409 467 406
f 464 411 408
f 468 411 464
f 465 410 412
f 471 470 469
f 470 471 413
f 471 467 413
f 465 412 413
f 465 413 467
f 468 414 411
f 472 414 468
f 469 470 415
f 416 469 415
f 473 469 416
f 415 470 413
f 472 417 414
f 474 417 472
f 476 475 419
f 476 419 420
f 416 419 473
f 473 419 475
f 477 422 423
f 477 423 478
f 423 479 478
f 423 424 479
f 424 417 474
f 424 474 479
f 426 476 420
f 426 480 476
f 482 428 481
f 428 422 481
f 481 422 477
f 483 481 477
f 477 478 483
f 428 482 429
f 430 480 426
f 430 484 480
f 487 486 485
f 487 485 481
f 485 482 481
f 485 488 482
f 488 431 429
f 488 429 482
f 489 484 430
f 489 430 432
f 433 485 486
f 489 433 486
f 432 433 489
f 485 433 434
f 485 434 488
f 488 434 431
f 491 490 436
f 491 436 437
f 436 492 438
f 490 492 436
f 438 493 440
f 492 493 438
f 441 440 493
f 441 493 494
f 442 491 437
f 442 495 491
f 494 444 441
f 496 444 494
f 442 445 497
f 498 442 497
f 495 442 498
f 446 497 445
f 496 447 444
f 499 447 496
f 500 498 497
f 497 446 500
f 446 501 500
f 446 448 501
f 499 450 447
f 502 450 499
f 451 501 448
f 451 503 501
f 452 450 504
f 450 505 504
f 450 502 505
f 504 454 452
f 456 503 451
f 456 506 503
f 504 505 507
f 507 505 508
f 507 457 454
f 507 454 504
f 456 458 509
f 510 456 509
f 506 456 510
f 459 509 458
f 507 508 511
f 511 508 512
f 511 460 457
f 511 457 507
f 510 509 462
f 463 510 462
f 513 510 463
f 462 509 459
f 511 512 514
f 514 512 515
f 514 464 460
f 514 460 511
f 516 513 463
f 516 463 466
f 466 467 516
f 516 467 517
f 515 518 514
f 464 514 518
f 519 464 518
f 468 464 519
f 521 520 471
f 521 471 469
f 467 471 517
f 517 471 520
f 519 472 468
f 522 472 519
f 473 521 469
f 473 523 521
f 522 474 472
f 524 474 522
f 476 525 475
f 525 526 475
f 526 473 475
f 526 523 473
f 528 527 479
f 479 527 478
f 479 474 524
f 479 524 528
f 530 529 525
f 476 530 525
f 480 530 476
f 525 529 526
f 531 481 483
f 532 531 483
f 478 532 483
f 527 532 478
f 484 530 480
f 484 533 530
f 535 534 487
f 487 534 486
f 487 481 531
f 536 487 531
f 535 487 536
f 536 531 532
f 537 533 484
f 537 484 489
f 489 486 534
f 489 534 537
f 539 538 490
f 539 490 491
f 538 541 540
f 492 538 540
f 490 538 492
f 542 493 492
f 542 492 540
f 542 494 493
f 495 539 491
f 495 543 539
f 541 544 540
f 546 545 544
f 545 540 544
f 545 542 540
f 545 496 494
f 545 494 542
f 498 543 495
f 498 547 543
f 545 546 548
f 548 546 549
f 548 499 496
f 548 496 545
f 550 547 498
f 550 498 500
f 500 501 550
f 550 501 551
f 549 552 548
f 499 548 552
f 553 499 552
f 502 499 553
f 503 555 554
f 551 503 554
f 501 503 551
f 555 556 554
f 553 505 502
f 557 505 553
f 559 558 555
f 503 559 555
f 506 559 503
f 555 558 556
f 557 508 505
f 560 508 557
f 510 559 506
f 510 561 559
f 560 512 508
f 562 512 560
f 513 564 563
f 561 513 563
f 510 513 561
f 564 565 563
f 562 515 512
f 566 515 562
f 564 513 516
f 569 568 567
f 568 569 517
f 569 565 517
f 564 516 517
f 564 517 565
f 518 515 570
f 515 571 570
f 515 566 571
f 570 519 518
f 520 521 572
f 568 573 567
f 573 568 574
f 568 517 574
f 520 572 574
f 520 574 517
f 570 571 575
f 575 571 576
f 575 522 519
f 575 519 570
f 579 578 577
f 578 580 572
f 523 578 572
f 521 523 572
f 577 578 523
f 572 580 574
f 575 576 581
f 581 576 582
f 581 524 522
f 581 522 575
f 579 577 583
f 579 583 584
f 526 583 523
f 523 583 577
f 581 582 528
f 582 527 528
f 582 585 527
f 581 528 524
f 584 583 529
f 530 584 529
f 586 584 530
f 529 583 526
f 589 588 587
f 585 589 587
f 532 585 587
f 527 585 532
f 533 586 530
f 533 590 586
f 592 591 535
f 535 591 534
f 536 587 588
f 592 536 588
f 535 536 592
f 587 536 532
f 593 590 533
f 593 533 537
f 537 534 591
f 537 591 593
f 539 594 538
f 594 541 538
f 543 595 594
f 543 594 539
f 596 544 541
f 594 596 541
f 595 596 594
f 596 546 544
f 598 597 595
f 543 598 595
f 547 598 543
f 595 597 596
f 596 597 599
f 549 546 596
f 600 549 596
f 599 600 596
f 549 600 601
f 602 601 600
f 547 550 603
f 604 547 603
f 598 547 604
f 551 603 550
f 601 552 549
f 553 552 601
f 602 553 601
f 605 553 602
f 604 603 606
f 604 606 607
f 554 608 551
f 608 603 551
f 608 606 603
f 556 608 554
f 605 557 553
f 609 557 605
f 607 606 610
f 607 610 611
f 559 610 558
f 610 608 558
f 610 606 608
f 558 608 556
f 609 560 557
f 612 560 609
f 613 611 610
f 610 559 613
f 559 614 613
f 559 561 614
f 612 562 560
f 615 562 612
f 561 563 616
f 617 561 616
f 614 561 617
f 565 616 563
f 615 566 562
f 618 566 615
f 617 616 569
f 567 617 569
f 619 617 567
f 569 616 565
f 618 571 566
f 620 571 618
f 567 573 621
f 622 567 621
f 619 567 622
f 574 621 573
f 620 576 571
f 623 576 620
f 625 624 578
f 625 578 579
f 621 580 622
f 580 624 622
f 580 578 624
f 580 621 574
f 623 582 576
f 626 582 623
f 584 625 579
f 584 627 625
f 630 629 628
f 626 630 628
f 585 626 628
f 582 626 585
f 586 627 584
f 586 631 627
f 634 633 632
f 634 632 629
f 629 632 628
f 632 588 628
f 588 589 628
f 628 589 585
f 590 636 635
f 631 590 635
f 586 590 631
f 635 636 633
f 633 636 632
f 636 591 632
f 591 592 632
f 632 592 588
f 593 636 590
f 636 593 591
f 598 637 597
f 638 599 597
f 638 597 637
f 639 600 599
f 639 599 638
f 639 602 600
f 641 640 637
f 598 641 637
f 604 641 598
f 637 640 638
f 638 640 642
f 644 643 642
f 643 638 642
f 643 639 638
f 643 605 602
f 643 602 639
f 607 641 604
f 607 645 641
f 648 647 646
f 648 646 644
f 646 643 644
f 646 649 643
f 649 609 605
f 649 605 643
f 611 645 607
f 611 650 645
f 647 651 646
f 646 651 649
f 649 651 652
f 609 649 652
f 653 609 652
f 612 609 653
f 611 613 654
f 655 611 654
f 650 611 655
f 614 654 613
f 653 615 612
f 656 615 653
f 655 654 657
f 655 657 658
f 617 657 614
f 614 657 654
f 656 618 615
f 659 618 656
f 658 657 660
f 658 660 661
f 619 660 617
f 617 660 657
f 664 663 662
f 659 664 662
f 620 659 662
f 618 659 620
f 661 660 665
f 661 665 666
f 622 665 619
f 619 665 660
f 663 667 662
f 620 662 667
f 668 620 667
f 623 620 668
f 666 665 624
f 625 666 624
f 669 666 625
f 624 665 622
f 668 626 623
f 670 626 668
f 627 669 625
f 627 671 669
f 674 673 672
f 629 630 672
f 630 674 672
f 630 675 674
f 630 626 670
f 630 670 675
f 631 677 676
f 671 631 676
f 627 631 671
f 676 677 673
f 673 677 672
f 677 633 672
f 633 634 672
f 672 634 629
f 635 677 631
f 677 635 633
f 641 678 640
f 679 642 640
f 679 640 678
f 679 644 642
f 681 680 678
f 641 681 678
f 645 681 641
f 682 647 648
f 678 682 648
f 679 678 648
f 680 682 678
f 679 648 644
f 650 681 645
f 650 683 681
f 651 647 684
f 647 685 684
f 647 682 685
f 686 652 651
f 686 651 684
f 686 653 652
f 655 683 650
f 655 687 683
f 684 685 688
f 688 685 689
f 684 690 686
f 684 688 690
f 690 656 653
f 690 653 686
f 658 687 655
f 658 691 687
f 688 689 692
f 692 689 693
f 688 694 690
f 688 692 694
f 694 659 656
f 694 656 690
f 661 691 658
f 661 695 691
f 693 696 692
f 697 663 664
f 692 697 664
f 694 692 664
f 696 697 692
f 694 664 659
f 666 695 661
f 666 698 695
f 701 700 699
f 699 702 667
f 697 699 667
f 663 697 667
f 699 697 701
f 702 668 667
f 669 698 666
f 669 703 698
f 699 700 704
f 704 700 705
f 699 706 702
f 699 704 706
f 706 670 668
f 706 668 702
f 671 708 707
f 703 671 707
f 669 671 703
f 707 708 705
f 705 708 704
f 708 673 704
f 673 674 704
f 704 674 675
f 704 675 706
f 706 675 670
f 676 708 671
f 708 676 673
f 681 709 680
f 709 682 680
f 683 710 709
f 683 709 681
f 710 685 682
f 710 682 709
f 687 711 710
f 687 710 683
f 711 689 685
f 711 685 710
f 691 712 711
f 691 711 687
f 712 693 689
f 712 689 711
f 695 713 712
f 695 712 691
f 714 696 693
f 712 714 693
f 713 714 712
f 714 697 696
f 698 715 713
f 698 713 695
f 715 700 701
f 714 715 701
f 713 715 714
f 714 701 697
f 703 716 715
f 703 715 698
f 716 705 700
f 716 700 715
f 707 716 703
f 716 707 705

