# https://github.com/mikedh/trimesh
v -0.05492381 -0.00899577 -0.00834762
v -0.05187365 -0.01109484 -0.00914616
v -0.05328257 -0.00855164 -0.01111316
v -0.05512590 -0.00955481 -0.00429964
v -0.05281478 -0.01133953 -0.00491268
v -0.05474798 -0.00857555 0.00001657
v -0.05264821 -0.01137602 -0.00013466
v -0.05511569 -0.00902773 0.00585794
v -0.05256461 -0.01147357 0.00471256
v -0.05466353 -0.00846147 0.00958180
v -0.05317052 -0.01099561 0.00854230
v -0.05207895 -0.00951339 0.01098140
v -0.05502045 -0.00542488 -0.00978491
v -0.05261122 -0.00477577 -0.01151317
v -0.05499336 -0.00496465 -0.00584088
v -0.05217911 -0.00455897 -0.00211699
v -0.05336564 -0.00625771 0.00045738
v -0.05294743 -0.00496114 0.00222854
v -0.05480606 -0.00533723 0.00442007
v -0.05518164 -0.00465320 0.00898407
v -0.05264856 -0.00570789 0.01143015
v -0.05478718 -0.00007999 -0.00856390
v -0.05264477 0.00007022 -0.01132655
v -0.05345281 -0.00049520 -0.00626565
v -0.05227735 -0.00190047 -0.00462905
v -0.05241131 -0.00256521 0.00424513
v -0.05333678 0.00051107 0.00629792
v -0.05476441 0.00029359 0.00856344
v -0.05274654 -0.00086161 0.01134113
v -0.05526590 0.00496398 -0.00901023
v -0.05287391 0.00487598 -0.01133161
v -0.05226411 0.00217099 -0.00455178
v -0.05490295 0.00551731 -0.00460121
v -0.05230909 0.00469156 -0.00194618
v -0.05496009 0.00499159 0.00570914
v -0.05297336 0.00222486 0.00496665
v -0.05301088 0.00471775 0.00251303
v -0.05507368 0.00563302 0.00963898
v -0.05274472 0.00392718 0.01138410
v -0.05487447 0.00866365 -0.00963852
v -0.05207053 0.00909042 -0.01112916
v -0.05525346 0.00913797 -0.00604526
v -0.05344831 0.00630895 -0.00064398
v -0.05479882 0.00857328 -0.00035051
v -0.05506049 0.00957679 0.00392463
v -0.05493360 0.00913624 0.00808658
v -0.05278463 0.00837450 0.01106313
v -0.05287459 0.01118424 -0.00829064
v -0.05274198 0.01137888 -0.00385290
v -0.05272378 0.01136280 0.00090776
v -0.05278224 0.01148269 0.00572421
v -0.05231361 0.01109993 0.00947511
v -0.04732525 -0.01138239 -0.00907820
v -0.04950650 -0.00904412 -0.01150785
v -0.04855138 -0.01181413 -0.00489687
v -0.04839505 -0.01177545 -0.00006648
v -0.04816297 -0.01191899 0.00479199
v -0.04932141 -0.01141494 0.00902749
v -0.04818309 -0.00887999 0.01146832
v -0.04826376 -0.00482567 -0.01193095
v -0.05147269 -0.00461427 0.00055714
v -0.04833936 -0.00454320 0.01191881
v -0.04838673 0.00001729 -0.01178241
v -0.05139907 0.00023019 -0.00489145
v -0.04849065 -0.00012289 -0.00246329
v -0.04822265 -0.00210071 0.00042208
v -0.05087437 0.00056189 0.00368653
v -0.04718355 0.00023524 0.00168646
v -0.04844943 0.00027959 0.01180005
v -0.04866233 0.00485397 -0.01180908
v -0.05074600 0.00371159 0.00101384
v -0.04808150 0.00225764 -0.00037829
v -0.04847534 0.00502523 0.01179464
v -0.04762153 0.00904263 -0.01138724
v -0.04847810 0.00921029 0.01128638
v -0.04866259 0.01138537 -0.00911722
v -0.04851968 0.01184396 -0.00497196
v -0.04843609 0.01179703 -0.00024124
v -0.04846738 0.01190510 0.00459585
v -0.04847844 0.01151100 0.00889625
v -0.04261989 -0.01131152 -0.00900980
v -0.04468481 -0.00904518 -0.01136357
v -0.04384893 -0.01172332 -0.00482290
v -0.04365996 -0.01163966 -0.00000223
v -0.04332661 -0.01175640 0.00482409
v -0.04440374 -0.01130092 0.00906718
v -0.04333818 -0.00889585 0.01136552
v -0.04344950 -0.00482585 -0.01175629
v -0.04353635 -0.00468686 0.01175664
v -0.04364952 -0.00000007 -0.01164027
v -0.04376308 -0.00038750 -0.00097629
v -0.04373181 -0.00109306 0.00044068
v -0.04377111 0.00035884 0.00111828
v -0.04367007 0.00012119 0.01164065
v -0.04397167 0.00482345 -0.01172238
v -0.04380238 0.00106441 -0.00029870
v -0.04368283 0.00491462 0.01170438
v -0.04295915 0.00901294 -0.01131052
v -0.04368772 0.00908024 0.01124742
v -0.04397043 0.01130890 -0.00905583
v -0.04378299 0.01172204 -0.00490987
v -0.04365958 0.01164114 -0.00012357
v -0.04365995 0.01175300 0.00468805
v -0.04367667 0.01136010 0.00890199
v -0.03802740 -0.01129946 -0.00901213
v -0.04000202 -0.00901395 -0.01129631
v -0.03923437 -0.01168754 -0.00482116
v -0.03902479 -0.01158173 0.00000258
v -0.03867677 -0.01168920 0.00482378
v -0.03966308 -0.01129778 0.00901352
v -0.03867520 -0.00901368 0.01129566
v -0.03879721 -0.00482341 -0.01168706
v -0.03888809 -0.00482618 0.01168586
v -0.03901033 -0.00000096 -0.01158279
v -0.04193936 -0.00002623 0.00009331
v -0.03902021 -0.00000268 0.01158319
v -0.03935416 0.00482285 -0.01168844
v -0.03902004 0.00481915 0.01168936
v -0.03836472 0.00901433 -0.01130024
v -0.03901375 0.00900844 0.01129976
v -0.03935285 0.01130010 -0.00901240
v -0.03914211 0.01168773 -0.00482346
v -0.03900881 0.01158145 -0.00000103
v -0.03900743 0.01168619 0.00482335
v -0.03901246 0.01129612 0.00901362
v -0.03344501 -0.01130136 -0.00901545
v -0.03541956 -0.00901360 -0.01129950
v -0.03465149 -0.01168967 -0.00482457
v -0.03444036 -0.01158299 -0.00000072
v -0.03409601 -0.01168782 0.00482300
v -0.03508204 -0.01130355 0.00901075
v -0.03409643 -0.00902041 0.01129778
v -0.03421376 -0.00482338 -0.01168891
v -0.03430680 -0.00482913 0.01168751
v -0.03442503 0.00000030 -0.01158422
v -0.03443804 -0.00000421 0.01158389
v -0.03476932 0.00482407 -0.01169083
v -0.03443645 0.00482048 0.01169237
v -0.03377942 0.00901495 -0.01130253
v -0.03443047 0.00901177 0.01130599
v -0.03476805 0.01130208 -0.00901460
v -0.03455676 0.01169040 -0.00482230
v -0.03442406 0.01158375 0.00000327
v -0.03442484 0.01168843 0.00482855
v -0.03443073 0.01129912 0.00901989
v -0.02885778 -0.01130151 -0.00901543
v -0.03083597 -0.00901426 -0.01130266
v -0.03006478 -0.01169039 -0.00482457
v -0.02985446 -0.01158474 -0.00000087
v -0.02951114 -0.01169026 0.00482292
v -0.03050162 -0.01130158 0.00901377
v -0.02951250 -0.00901436 0.01130106
v -0.02962895 -0.00482337 -0.01169150
v -0.02972277 -0.00482338 0.01168988
v -0.02983924 0.00000036 -0.01158586
v -0.02985449 0.00000040 0.01158426
v -0.03018262 0.00482406 -0.01169151
v -0.02985316 0.00482416 0.01168999
v -0.02919218 0.00901491 -0.01130262
v -0.02984698 0.00901501 0.01130116
v -0.03018135 0.01130217 -0.00901542
v -0.02997100 0.01169106 -0.00482455
v -0.02983924 0.01158541 -0.00000077
v -0.02984059 0.01169106 0.00482302
v -0.02984685 0.01130221 0.00901391
v -0.02427037 -0.01130148 -0.00901536
v -0.02624861 -0.00901425 -0.01130265
v -0.02547735 -0.01169034 -0.00482449
v -0.02526706 -0.01158470 -0.00000078
v -0.02492369 -0.01169038 0.00482293
v -0.02591421 -0.01130140 0.00901387
v -0.02492501 -0.00901411 0.01130108
v -0.02504160 -0.00482338 -0.01169149
v -0.02513538 -0.00482327 0.01168989
v -0.02525188 0.00000033 -0.01158581
v -0.02526714 0.00000042 0.01158417
v -0.02559526 0.00482404 -0.01169146
v -0.02526581 0.00482412 0.01168977
v -0.02460484 0.00901491 -0.01130259
v -0.02525960 0.00901498 0.01130089
v -0.02559399 0.01130214 -0.00901536
v -0.02538364 0.01169100 -0.00482452
v -0.02525191 0.01158536 -0.00000084
v -0.02525325 0.01169104 0.00482283
v -0.02525947 0.01130220 0.00901366
v -0.01968306 -0.01130148 -0.00901536
v -0.02166123 -0.00901425 -0.01130259
v -0.02089004 -0.01169034 -0.00482449
v -0.02067973 -0.01158468 -0.00000078
v -0.02033635 -0.01169034 0.00482293
v -0.02132676 -0.01130148 0.00901380
v -0.02033762 -0.00901425 0.01130103
v -0.02045425 -0.00482338 -0.01169145
v -0.02054798 -0.00482339 0.01168989
v -0.02066456 0.00000033 -0.01158579
v -0.02067973 0.00000033 0.01158423
v -0.02100794 0.00482404 -0.01169145
v -0.02067840 0.00482404 0.01168989
v -0.02001753 0.00901491 -0.01130259
v -0.02067220 0.00901491 0.01130103
v -0.02100667 0.01130214 -0.00901536
v -0.02079631 0.01169100 -0.00482449
v -0.02066456 0.01158534 -0.00000078
v -0.02066588 0.01169100 0.00482293
v -0.02067209 0.01130214 0.00901380
v -0.01509575 -0.01130148 -0.00901536
v -0.01707392 -0.00901425 -0.01130259
v -0.01630273 -0.01169034 -0.00482450
v -0.01609242 -0.01158468 -0.00000078
v -0.01574904 -0.01169034 0.00482293
v -0.01673945 -0.01130148 0.00901380
v -0.01575031 -0.00901425 0.01130103
v -0.01586694 -0.00482338 -0.01169145
v -0.01596067 -0.00482338 0.01168989
v -0.01607724 0.00000033 -0.01158580
v -0.01609242 0.00000033 0.01158423
v -0.01642063 0.00482404 -0.01169145
v -0.01609109 0.00482404 0.01168989
v -0.01543022 0.00901491 -0.01130259
v -0.01608489 0.00901491 0.01130103
v -0.01641936 0.01130214 -0.00901536
v -0.01620900 0.01169100 -0.00482449
v -0.01607724 0.01158534 -0.00000078
v -0.01607857 0.01169100 0.00482293
v -0.01608478 0.01130214 0.00901380
v -0.01050844 -0.01130148 -0.00901536
v -0.01248661 -0.00901425 -0.01130259
v -0.01171542 -0.01169034 -0.00482450
v -0.01150511 -0.01158468 -0.00000078
v -0.01116173 -0.01169034 0.00482293
v -0.01215214 -0.01130148 0.00901380
v -0.01116300 -0.00901425 0.01130103
v -0.01127963 -0.00482338 -0.01169145
v -0.01137336 -0.00482338 0.01168989
v -0.01148993 0.00000033 -0.01158580
v -0.01150511 0.00000033 0.01158423
v -0.01183332 0.00482404 -0.01169145
v -0.01150378 0.00482404 0.01168989
v -0.01084290 0.00901491 -0.01130259
v -0.01149758 0.00901491 0.01130103
v -0.01183205 0.01130214 -0.00901536
v -0.01162169 0.01169100 -0.00482450
v -0.01148993 0.01158535 -0.00000078
v -0.01149126 0.01169100 0.00482293
v -0.01149746 0.01130214 0.00901380
v -0.00592113 -0.01130148 -0.00901536
v -0.00789930 -0.00901425 -0.01130259
v -0.00712810 -0.01169034 -0.00482450
v -0.00691780 -0.01158468 -0.00000078
v -0.00657441 -0.01169034 0.00482293
v -0.00756483 -0.01130148 0.00901380
v -0.00657568 -0.00901425 0.01130103
v -0.00669232 -0.00482338 -0.01169145
v -0.00678605 -0.00482338 0.01168989
v -0.00690262 0.00000033 -0.01158580
v -0.00691780 0.00000033 0.01158423
v -0.00724601 0.00482404 -0.01169145
v -0.00691647 0.00482404 0.01168989
v -0.00625559 0.00901491 -0.01130259
v -0.00691027 0.00901491 0.01130103
v -0.00724474 0.01130214 -0.00901536
v -0.00703437 0.01169100 -0.00482450
v -0.00690262 0.01158535 -0.00000078
v -0.00690395 0.01169100 0.00482293
v -0.00691015 0.01130214 0.00901380
v -0.00133381 -0.01130148 -0.00901536
v -0.00331198 -0.00901425 -0.01130259
v -0.00254079 -0.01169034 -0.00482450
v -0.00233049 -0.01158468 -0.00000078
v -0.00198710 -0.01169034 0.00482293
v -0.00297752 -0.01130148 0.00901380
v -0.00198837 -0.00901425 0.01130103
v -0.00210501 -0.00482338 -0.01169145
v -0.00219873 -0.00482338 0.01168989
v -0.00231531 0.00000033 -0.01158580
v -0.00233049 0.00000033 0.01158423
v -0.00265870 0.00482404 -0.01169145
v -0.00232916 0.00482404 0.01168989
v -0.00166828 0.00901491 -0.01130259
v -0.00232296 0.00901491 0.01130103
v -0.00265743 0.01130214 -0.00901536
v -0.00244706 0.01169100 -0.00482450
v -0.00231531 0.01158535 -0.00000078
v -0.00231664 0.01169100 0.00482293
v -0.00232284 0.01130214 0.00901380
v 0.00325350 -0.01130148 -0.00901536
v 0.00127533 -0.00901425 -0.01130259
v 0.00204652 -0.01169034 -0.00482450
v 0.00225682 -0.01158468 -0.00000078
v 0.00260021 -0.01169034 0.00482293
v 0.00160980 -0.01130148 0.00901380
v 0.00259894 -0.00901425 0.01130103
v 0.00248231 -0.00482338 -0.01169145
v 0.00238858 -0.00482338 0.01168989
v 0.00227200 0.00000033 -0.01158580
v 0.00225682 0.00000033 0.01158423
v 0.00192862 0.00482404 -0.01169145
v 0.00225815 0.00482404 0.01168989
v 0.00291903 0.00901491 -0.01130259
v 0.00226435 0.00901491 0.01130103
v 0.00192989 0.01130214 -0.00901536
v 0.00214025 0.01169100 -0.00482450
v 0.00227200 0.01158535 -0.00000078
v 0.00227067 0.01169100 0.00482293
v 0.00226447 0.01130214 0.00901380
v 0.00784081 -0.01130148 -0.00901536
v 0.00586264 -0.00901425 -0.01130259
v 0.00663383 -0.01169034 -0.00482450
v 0.00684413 -0.01158468 -0.00000078
v 0.00718752 -0.01169034 0.00482293
v 0.00619711 -0.01130148 0.00901380
v 0.00718625 -0.00901425 0.01130103
v 0.00706962 -0.00482338 -0.01169145
v 0.00697589 -0.00482338 0.01168989
v 0.00685931 0.00000033 -0.01158580
v 0.00684413 0.00000033 0.01158423
v 0.00651593 0.00482404 -0.01169145
v 0.00684546 0.00482404 0.01168989
v 0.00750634 0.00901491 -0.01130259
v 0.00685167 0.00901491 0.01130103
v 0.00651720 0.01130214 -0.00901536
v 0.00672756 0.01169100 -0.00482450
v 0.00685931 0.01158535 -0.00000078
v 0.00685799 0.01169100 0.00482293
v 0.00685178 0.01130214 0.00901380
v 0.01242812 -0.01130148 -0.00901536
v 0.01044995 -0.00901425 -0.01130259
v 0.01122114 -0.01169034 -0.00482450
v 0.01143145 -0.01158468 -0.00000078
v 0.01177483 -0.01169034 0.00482293
v 0.01078442 -0.01130148 0.00901380
v 0.01177356 -0.00901425 0.01130103
v 0.01165693 -0.00482338 -0.01169145
v 0.01156320 -0.00482338 0.01168989
v 0.01144663 0.00000033 -0.01158580
v 0.01143145 0.00000033 0.01158423
v 0.01110324 0.00482404 -0.01169145
v 0.01143278 0.00482404 0.01168989
v 0.01209365 0.00901491 -0.01130259
v 0.01143898 0.00901491 0.01130103
v 0.01110451 0.01130214 -0.00901536
v 0.01131487 0.01169100 -0.00482450
v 0.01144663 0.01158535 -0.00000078
v 0.01144530 0.01169100 0.00482293
v 0.01143910 0.01130214 0.00901380
v 0.01701543 -0.01130148 -0.00901536
v 0.01503726 -0.00901425 -0.01130259
v 0.01580845 -0.01169034 -0.00482450
v 0.01601876 -0.01158468 -0.00000078
v 0.01636215 -0.01169034 0.00482293
v 0.01537173 -0.01130148 0.00901380
v 0.01636087 -0.00901425 0.01130103
v 0.01624424 -0.00482338 -0.01169145
v 0.01615051 -0.00482338 0.01168989
v 0.01603394 0.00000033 -0.01158580
v 0.01601876 0.00000033 0.01158423
v 0.01569055 0.00482404 -0.01169145
v 0.01602009 0.00482404 0.01168989
v 0.01668097 0.00901491 -0.01130260
v 0.01602629 0.00901491 0.01130103
v 0.01569182 0.01130214 -0.00901536
v 0.01590218 0.01169100 -0.00482450
v 0.01603394 0.01158535 -0.00000078
v 0.01603261 0.01169100 0.00482293
v 0.01602641 0.01130214 0.00901380
v 0.02160275 -0.01130148 -0.00901536
v 0.01962457 -0.00901425 -0.01130259
v 0.02039577 -0.01169034 -0.00482450
v 0.02060607 -0.01158468 -0.00000078
v 0.02094946 -0.01169034 0.00482293
v 0.01995904 -0.01130148 0.00901380
v 0.02094819 -0.00901425 0.01130103
v 0.02083155 -0.00482338 -0.01169145
v 0.02073782 -0.00482338 0.01168989
v 0.02062125 0.00000033 -0.01158580
v 0.02060607 0.00000033 0.01158423
v 0.02027786 0.00482404 -0.01169145
v 0.02060740 0.00482405 0.01168989
v 0.02126828 0.00901491 -0.01130259
v 0.02061360 0.00901491 0.01130103
v 0.02027913 0.01130214 -0.00901536
v 0.02048949 0.01169100 -0.00482450
v 0.02062125 0.01158535 -0.00000078
v 0.02061992 0.01169100 0.00482293
v 0.02061372 0.01130215 0.00901380
v 0.02619011 -0.01130155 -0.00901536
v 0.02421188 -0.00901425 -0.01130260
v 0.02498312 -0.01169038 -0.00482450
v 0.02519340 -0.01158470 -0.00000078
v 0.02553677 -0.01169034 0.00482293
v 0.02454635 -0.01130148 0.00901380
v 0.02553550 -0.00901425 0.01130103
v 0.02541886 -0.00482339 -0.01169145
v 0.02532514 -0.00482340 0.01168989
v 0.02520855 0.00000031 -0.01158580
v 0.02519339 0.00000028 0.01158424
v 0.02486518 0.00482400 -0.01169146
v 0.02519473 0.00482398 0.01168989
v 0.02585569 0.00901494 -0.01130246
v 0.02520094 0.00901485 0.01130103
v 0.02486652 0.01130221 -0.00901522
v 0.02507687 0.01169104 -0.00482440
v 0.02520860 0.01158536 -0.00000073
v 0.02520726 0.01169100 0.00482295
v 0.02520105 0.01130211 0.00901380
v 0.03077737 -0.01130150 -0.00901524
v 0.02879927 -0.00901434 -0.01130261
v 0.02957035 -0.01169037 -0.00482441
v 0.02978069 -0.01158474 -0.00000073
v 0.03012410 -0.01169040 0.00482295
v 0.02913368 -0.01130151 0.00901380
v 0.03012283 -0.00901431 0.01130105
v 0.03000628 -0.00482348 -0.01169147
v 0.02991247 -0.00482343 0.01168992
v 0.02979599 0.00000030 -0.01158581
v 0.02978073 0.00000036 0.01158426
v 0.02945265 0.00482417 -0.01169136
v 0.02978206 0.00482407 0.01168993
v 0.03044300 0.00901496 -0.01130283
v 0.02978830 0.00901483 0.01130112
v 0.02945382 0.01130211 -0.00901553
v 0.02966415 0.01169098 -0.00482461
v 0.02979594 0.01158531 -0.00000079
v 0.02979468 0.01169091 0.00482303
v 0.02978849 0.01130201 0.00901392
v 0.03536189 -0.01129785 -0.00901513
v 0.03338671 -0.00901406 -0.01130239
v 0.03415523 -0.01168781 -0.00482462
v 0.03436650 -0.01158310 -0.00000084
v 0.03471082 -0.01168970 0.00482297
v 0.03372088 -0.01130141 0.00901384
v 0.03470985 -0.00901346 0.01130100
v 0.03459380 -0.00482252 -0.01169112
v 0.03449931 -0.00482129 0.01168966
v 0.03438318 0.00000209 -0.01158538
v 0.03436721 0.00000341 0.01158393
v 0.03403911 0.00482585 -0.01169137
v 0.03436827 0.00482683 0.01168974
v 0.03502582 0.00901284 -0.01130743
v 0.03437463 0.00901645 0.01130090
v 0.03403782 0.01129907 -0.00902137
v 0.03424846 0.01168841 -0.00482997
v 0.03438078 0.01158369 -0.00000474
v 0.03438036 0.01169036 0.00482080
v 0.03437480 0.01130246 0.00901307
v 0.03994721 -0.01129871 -0.00902095
v 0.03796998 -0.00900988 -0.01130193
v 0.03874411 -0.01168774 -0.00482915
v 0.03895558 -0.01158273 -0.00000466
v 0.03929842 -0.01168741 0.00482094
v 0.03830758 -0.01129903 0.00901321
v 0.03929670 -0.00901123 0.01129961
v 0.03917583 -0.00482095 -0.01169076
v 0.03908517 -0.00482249 0.01168841
v 0.03896732 -0.00000041 -0.01158448
v 0.03895306 0.00000130 0.01158250
v 0.03862111 0.00482102 -0.01169133
v 0.03895304 0.00482917 0.01168656
v 0.03960960 0.00901346 -0.01129742
v 0.03895618 0.00902153 0.01129591
v 0.03862367 0.01129935 -0.00901294
v 0.03883488 0.01168945 -0.00482247
v 0.03896778 0.01158487 0.00000086
v 0.03896561 0.01169138 0.00482165
v 0.03895668 0.01130541 0.00900911
v 0.04459574 -0.01138513 -0.00903347
v 0.04254606 -0.00902528 -0.01131204
v 0.04339884 -0.01175516 -0.00482307
v 0.04359837 -0.01163880 0.00000236
v 0.04391583 -0.01172212 0.00482271
v 0.04290244 -0.01130940 0.00901159
v 0.04389112 -0.00905626 0.01130547
v 0.04376076 -0.00486318 -0.01170073
v 0.04368656 -0.00489906 0.01169766
v 0.04357566 -0.00004715 -0.01158804
v 0.04356909 -0.00006450 0.01158488
v 0.04322664 0.00480699 -0.01168893
v 0.04355722 0.00479915 0.01168479
v 0.04427594 0.00907729 -0.01124489
v 0.04355304 0.00901252 0.01130533
v 0.04328645 0.01136473 -0.00890207
v 0.04348926 0.01175586 -0.00469386
v 0.04361825 0.01164278 0.00011774
v 0.04360740 0.01172595 0.00490555
v 0.04357585 0.01131305 0.00905057
v 0.04929830 -0.01146872 -0.00893572
v 0.04722229 -0.00911169 -0.01133289
v 0.04810220 -0.01186251 -0.00471596
v 0.04825317 -0.01171938 0.00012300
v 0.04852527 -0.01179450 0.00490783
v 0.04750189 -0.01139190 0.00904819
v 0.04850898 -0.00913967 0.01135334
v 0.04843157 -0.00490046 -0.01172470
v 0.04834982 -0.00498387 0.01173126
v 0.04825133 -0.00005893 -0.01164596
v 0.04825347 -0.00018808 0.01164134
v 0.04796819 0.00484397 -0.01176963
v 0.04827455 0.00467507 0.01178303
v 0.04905179 0.00912718 -0.01132243
v 0.04826898 0.00895207 0.01141886
v 0.04799477 0.01146529 -0.00891301
v 0.04820560 0.01185500 -0.00465329
v 0.04830740 0.01172141 0.00017162
v 0.04828904 0.01177229 0.00493963
v 0.04827329 0.01132144 0.00912149
v 0.05291779 -0.01103359 -0.00851811
v 0.05234486 -0.00876339 -0.01117985
v 0.05222109 -0.01136873 -0.00468747
v 0.05230780 -0.01119856 0.00016155
v 0.05254714 -0.01126605 0.00493924
v 0.05183458 -0.01114875 0.00909958
v 0.05340135 -0.00828135 0.01122139
v 0.05248771 -0.00427253 -0.01178747
v 0.05239879 -0.00435670 0.01178396
v 0.05299330 -0.00012671 -0.01182977
v 0.05307539 -0.00020396 0.01181559
v 0.05286398 0.00476773 -0.01193669
v 0.05305769 0.00470718 0.01197398
v 0.05365866 0.00848498 -0.01111553
v 0.05272603 0.00894056 0.01124004
v 0.05175380 0.01103327 -0.00951089
v 0.05231286 0.01137249 -0.00578165
v 0.05242058 0.01120239 -0.00095017
v 0.05238678 0.01122988 0.00384417
v 0.05242035 0.01101909 0.00833031
v 0.05537738 -0.00907989 -0.00960230
v 0.05523579 -0.00963282 -0.00592900
v 0.05517872 -0.00947627 -0.00110801
v 0.05535642 -0.00943779 0.00373331
v 0.05521543 -0.00959161 0.00824397
v 0.05772963 -0.00708527 -0.00824895
v 0.05641461 -0.00526482 -0.01123649
v 0.05757258 -0.00722260 -0.00373919
v 0.05761016 -0.00704393 0.00110238
v 0.05776425 -0.00710263 0.00592542
v 0.05720929 -0.00724311 0.00959977
v 0.05692250 -0.00418791 0.01118607
v 0.05724000 -0.00019506 -0.01145582
v 0.05730967 0.00103890 0.01145099
v 0.05714932 0.00437875 -0.01116290
v 0.05666491 0.00563157 0.01125016
v 0.05701765 0.00710551 -0.00958526
v 0.05498401 0.00957693 -0.00808089
v 0.05768913 0.00705814 -0.00582875
v 0.05532261 0.00946161 -0.00344362
v 0.05761478 0.00705422 -0.00097121
v 0.05525684 0.00945586 0.00139113
v 0.05758192 0.00720496 0.00384844
v 0.05530618 0.00952113 0.00613472
v 0.05769458 0.00692526 0.00833693
v 0.05536530 0.00887878 0.00977497
v 0.05935041 -0.00360536 -0.00912427
v 0.05947115 -0.00434555 -0.00493833
v 0.05939200 -0.00411761 -0.00016018
v 0.05953923 -0.00405545 0.00468457
v 0.05918208 -0.00477377 0.00851188
v 0.05963511 0.00090971 -0.00900318
v 0.06009769 -0.00018893 -0.00480849
v 0.05999326 0.00000245 -0.00000588
v 0.06009496 0.00010093 0.00479772
v 0.05967806 -0.00111650 0.00897147
v 0.05908442 0.00460647 -0.00855532
v 0.05951732 0.00399597 -0.00469685
v 0.05939222 0.00412666 0.00015555
v 0.05944915 0.00428428 0.00493930
v 0.05931850 0.00340160 0.00914016
f 3 2 1
f 5 4 1
f 5 1 2
f 7 6 4
f 7 4 5
f 9 8 6
f 9 6 7
f 11 10 8
f 11 8 9
f 12 10 11
f 3 1 13
f 3 13 14
f 15 1 4
f 13 1 15
f 6 17 16
f 15 6 16
f 4 6 15
f 19 18 17
f 6 19 17
f 8 19 6
f 20 8 10
f 19 8 20
f 10 12 21
f 10 21 20
f 14 13 22
f 14 22 23
f 15 25 24
f 22 15 24
f 13 15 22
f 25 15 16
f 26 18 19
f 28 27 26
f 19 28 26
f 20 28 19
f 20 21 29
f 20 29 28
f 23 22 30
f 23 30 31
f 22 24 32
f 33 22 32
f 30 22 33
f 34 33 32
f 37 36 35
f 35 36 27
f 28 35 27
f 38 35 28
f 28 29 39
f 28 39 38
f 31 30 40
f 31 40 41
f 42 30 33
f 40 30 42
f 33 34 43
f 44 33 43
f 42 33 44
f 44 43 37
f 35 44 37
f 45 44 35
f 46 35 38
f 45 35 46
f 38 39 47
f 38 47 46
f 48 41 40
f 48 40 42
f 48 42 49
f 49 42 44
f 49 44 50
f 50 44 45
f 50 45 51
f 51 45 46
f 51 46 52
f 52 46 47
f 54 53 2
f 54 2 3
f 2 55 5
f 53 55 2
f 5 56 7
f 55 56 5
f 7 57 9
f 56 57 7
f 9 58 11
f 57 58 9
f 12 11 58
f 12 58 59
f 14 54 3
f 14 60 54
f 61 16 17
f 18 61 17
f 59 21 12
f 62 21 59
f 23 60 14
f 23 63 60
f 64 24 25
f 65 64 25
f 65 25 16
f 66 65 16
f 61 66 16
f 68 66 67
f 67 66 26
f 66 61 26
f 61 18 26
f 27 67 26
f 62 29 21
f 69 29 62
f 31 63 23
f 31 70 63
f 64 32 24
f 72 71 34
f 72 34 32
f 65 72 32
f 64 65 32
f 71 72 68
f 71 68 67
f 37 71 67
f 36 37 67
f 36 67 27
f 69 39 29
f 73 39 69
f 41 70 31
f 41 74 70
f 71 43 34
f 43 71 37
f 73 47 39
f 75 47 73
f 76 74 41
f 76 41 48
f 77 48 49
f 77 76 48
f 78 49 50
f 78 77 49
f 79 50 51
f 79 78 50
f 80 51 52
f 80 79 51
f 52 47 75
f 52 75 80
f 82 81 53
f 82 53 54
f 53 83 55
f 81 83 53
f 55 84 56
f 83 84 55
f 56 85 57
f 84 85 56
f 57 86 58
f 85 86 57
f 59 58 86
f 59 86 87
f 60 82 54
f 60 88 82
f 87 62 59
f 89 62 87
f 63 88 60
f 63 90 88
f 92 91 66
f 66 91 65
f 66 68 92
f 92 68 93
f 89 69 62
f 94 69 89
f 70 90 63
f 70 95 90
f 91 96 65
f 65 96 72
f 68 72 93
f 93 72 96
f 94 73 69
f 97 73 94
f 74 95 70
f 74 98 95
f 97 75 73
f 99 75 97
f 100 98 74
f 100 74 76
f 101 76 77
f 101 100 76
f 102 77 78
f 102 101 77
f 103 78 79
f 103 102 78
f 104 79 80
f 104 103 79
f 80 75 99
f 80 99 104
f 106 105 81
f 106 81 82
f 81 107 83
f 105 107 81
f 83 108 84
f 107 108 83
f 84 109 85
f 108 109 84
f 85 110 86
f 109 110 85
f 87 86 110
f 87 110 111
f 88 106 82
f 88 112 106
f 111 89 87
f 113 89 111
f 90 112 88
f 90 114 112
f 115 91 92
f 93 115 92
f 113 94 89
f 116 94 113
f 95 114 90
f 95 117 114
f 115 96 91
f 96 115 93
f 116 97 94
f 118 97 116
f 98 117 95
f 98 119 117
f 118 99 97
f 120 99 118
f 121 119 98
f 121 98 100
f 122 100 101
f 122 121 100
f 123 101 102
f 123 122 101
f 124 102 103
f 124 123 102
f 125 103 104
f 125 124 103
f 104 99 120
f 104 120 125
f 127 126 105
f 127 105 106
f 105 128 107
f 126 128 105
f 107 129 108
f 128 129 107
f 108 130 109
f 129 130 108
f 109 131 110
f 130 131 109
f 111 110 131
f 111 131 132
f 112 127 106
f 112 133 127
f 132 113 111
f 134 113 132
f 114 133 112
f 114 135 133
f 134 116 113
f 136 116 134
f 117 135 114
f 117 137 135
f 136 118 116
f 138 118 136
f 119 137 117
f 119 139 137
f 138 120 118
f 140 120 138
f 141 139 119
f 141 119 121
f 142 121 122
f 142 141 121
f 143 122 123
f 143 142 122
f 144 123 124
f 144 143 123
f 145 124 125
f 145 144 124
f 125 120 140
f 125 140 145
f 147 146 126
f 147 126 127
f 126 148 128
f 146 148 126
f 128 149 129
f 148 149 128
f 129 150 130
f 149 150 129
f 130 151 131
f 150 151 130
f 132 131 151
f 132 151 152
f 133 147 127
f 133 153 147
f 152 134 132
f 154 134 152
f 135 153 133
f 135 155 153
f 154 136 134
f 156 136 154
f 137 155 135
f 137 157 155
f 156 138 136
f 158 138 156
f 139 157 137
f 139 159 157
f 158 140 138
f 160 140 158
f 161 159 139
f 161 139 141
f 162 141 142
f 162 161 141
f 163 142 143
f 163 162 142
f 164 143 144
f 164 163 143
f 165 144 145
f 165 164 144
f 145 140 160
f 145 160 165
f 167 166 146
f 167 146 147
f 146 168 148
f 166 168 146
f 148 169 149
f 168 169 148
f 149 170 150
f 169 170 149
f 150 171 151
f 170 171 150
f 152 151 171
f 152 171 172
f 153 167 147
f 153 173 167
f 172 154 152
f 174 154 172
f 155 173 153
f 155 175 173
f 174 156 154
f 176 156 174
f 157 175 155
f 157 177 175
f 176 158 156
f 178 158 176
f 159 177 157
f 159 179 177
f 178 160 158
f 180 160 178
f 181 179 159
f 181 159 161
f 182 161 162
f 182 181 161
f 183 162 163
f 183 182 162
f 184 163 164
f 184 183 163
f 185 164 165
f 185 184 164
f 165 160 180
f 165 180 185
f 187 186 166
f 187 166 167
f 166 188 168
f 186 188 166
f 168 189 169
f 188 189 168
f 169 190 170
f 189 190 169
f 170 191 171
f 190 191 170
f 172 171 191
f 172 191 192
f 173 187 167
f 173 193 187
f 192 174 172
f 194 174 192
f 175 193 173
f 175 195 193
f 194 176 174
f 196 176 194
f 177 195 175
f 177 197 195
f 196 178 176
f 198 178 196
f 179 197 177
f 179 199 197
f 198 180 178
f 200 180 198
f 201 199 179
f 201 179 181
f 202 181 182
f 202 201 181
f 203 182 183
f 203 202 182
f 204 183 184
f 204 203 183
f 205 184 185
f 205 204 184
f 185 180 200
f 185 200 205
f 207 206 186
f 207 186 187
f 186 208 188
f 206 208 186
f 188 209 189
f 208 209 188
f 189 210 190
f 209 210 189
f 190 211 191
f 210 211 190
f 192 191 211
f 192 211 212
f 193 207 187
f 193 213 207
f 212 194 192
f 214 194 212
f 195 213 193
f 195 215 213
f 214 196 194
f 216 196 214
f 197 215 195
f 197 217 215
f 216 198 196
f 218 198 216
f 199 217 197
f 199 219 217
f 218 200 198
f 220 200 218
f 221 219 199
f 221 199 201
f 222 201 202
f 222 221 201
f 223 202 203
f 223 222 202
f 224 203 204
f 224 223 203
f 225 204 205
f 225 224 204
f 205 200 220
f 205 220 225
f 227 226 206
f 227 206 207
f 206 228 208
f 226 228 206
f 208 229 209
f 228 229 208
f 209 230 210
f 229 230 209
f 210 231 211
f 230 231 210
f 212 211 231
f 212 231 232
f 213 227 207
f 213 233 227
f 232 214 212
f 234 214 232
f 215 233 213
f 215 235 233
f 234 216 214
f 236 216 234
f 217 235 215
f 217 237 235
f 236 218 216
f 238 218 236
f 219 237 217
f 219 239 237
f 238 220 218
f 240 220 238
f 241 239 219
f 241 219 221
f 242 221 222
f 242 241 221
f 243 222 223
f 243 242 222
f 244 223 224
f 244 243 223
f 245 224 225
f 245 244 224
f 225 220 240
f 225 240 245
f 247 246 226
f 247 226 227
f 226 248 228
f 246 248 226
f 228 249 229
f 248 249 228
f 229 250 230
f 249 250 229
f 230 251 231
f 250 251 230
f 232 231 251
f 232 251 252
f 233 247 227
f 233 253 247
f 252 234 232
f 254 234 252
f 235 253 233
f 235 255 253
f 254 236 234
f 256 236 254
f 237 255 235
f 237 257 255
f 256 238 236
f 258 238 256
f 239 257 237
f 239 259 257
f 258 240 238
f 260 240 258
f 261 259 239
f 261 239 241
f 262 241 242
f 262 261 241
f 263 242 243
f 263 262 242
f 264 243 244
f 264 263 243
f 265 244 245
f 265 264 244
f 245 240 260
f 245 260 265
f 267 266 246
f 267 246 247
f 246 268 248
f 266 268 246
f 248 269 249
f 268 269 248
f 249 270 250
f 269 270 249
f 250 271 251
f 270 271 250
f 252 251 271
f 252 271 272
f 253 267 247
f 253 273 267
f 272 254 252
f 274 254 272
f 255 273 253
f 255 275 273
f 274 256 254
f 276 256 274
f 257 275 255
f 257 277 275
f 276 258 256
f 278 258 276
f 259 277 257
f 259 279 277
f 278 260 258
f 280 260 278
f 281 279 259
f 281 259 261
f 282 261 262
f 282 281 261
f 283 262 263
f 283 282 262
f 284 263 264
f 284 283 263
f 285 264 265
f 285 284 264
f 265 260 280
f 265 280 285
f 287 286 266
f 287 266 267
f 266 288 268
f 286 288 266
f 268 289 269
f 288 289 268
f 269 290 270
f 289 290 269
f 270 291 271
f 290 291 270
f 272 271 291
f 272 291 292
f 273 287 267
f 273 293 287
f 292 274 272
f 294 274 292
f 275 293 273
f 275 295 293
f 294 276 274
f 296 276 294
f 277 295 275
f 277 297 295
f 296 278 276
f 298 278 296
f 279 297 277
f 279 299 297
f 298 280 278
f 300 280 298
f 301 299 279
f 301 279 281
f 302 281 282
f 302 301 281
f 303 282 283
f 303 302 282
f 304 283 284
f 304 303 283
f 305 284 285
f 305 304 284
f 285 280 300
f 285 300 305
f 307 306 286
f 307 286 287
f 286 308 288
f 306 308 286
f 288 309 289
f 308 309 288
f 289 310 290
f 309 310 289
f 290 311 291
f 310 311 290
f 292 291 311
f 292 311 312
f 293 307 287
f 293 313 307
f 312 294 292
f 314 294 312
f 295 313 293
f 295 315 313
f 314 296 294
f 316 296 314
f 297 315 295
f 297 317 315
f 316 298 296
f 318 298 316
f 299 317 297
f 299 319 317
f 318 300 298
f 320 300 318
f 321 319 299
f 321 299 301
f 322 301 302
f 322 321 301
f 323 302 303
f 323 322 302
f 324 303 304
f 324 323 303
f 325 304 305
f 325 324 304
f 305 300 320
f 305 320 325
f 327 326 306
f 327 306 307
f 306 328 308
f 326 328 306
f 308 329 309
f 328 329 308
f 309 330 310
f 329 330 309
f 310 331 311
f 330 331 310
f 312 311 331
f 312 331 332
f 313 327 307
f 313 333 327
f 332 314 312
f 334 314 332
f 315 333 313
f 315 335 333
f 334 316 314
f 336 316 334
f 317 335 315
f 317 337 335
f 336 318 316
f 338 318 336
f 319 337 317
f 319 339 337
f 338 320 318
f 340 320 338
f 341 339 319
f 341 319 321
f 342 321 322
f 342 341 321
f 343 322 323
f 343 342 322
f 344 323 324
f 344 343 323
f 345 324 325
f 345 344 324
f 325 320 340
f 325 340 345
f 347 346 326
f 347 326 327
f 326 348 328
f 346 348 326
f 328 349 329
f 348 349 328
f 329 350 330
f 349 350 329
f 330 351 331
f 350 351 330
f 332 331 351
f 332 351 352
f 333 347 327
f 333 353 347
f 352 334 332
f 354 334 352
f 335 353 333
f 335 355 353
f 354 336 334
f 356 336 354
f 337 355 335
f 337 357 355
f 356 338 336
f 358 338 356
f 339 357 337
f 339 359 357
f 358 340 338
f 360 340 358
f 361 359 339
f 361 339 341
f 362 341 342
f 362 361 341
f 363 342 343
f 363 362 342
f 364 343 344
f 364 363 343
f 365 344 345
f 365 364 344
f 345 340 360
f 345 360 365
f 367 366 346
f 367 346 347
f 346 368 348
f 366 368 346
f 348 369 349
f 368 369 348
f 349 370 350
f 369 370 349
f 350 371 351
f 370 371 350
f 352 351 371
f 352 371 372
f 353 367 347
f 353 373 367
f 372 354 352
f 374 354 372
f 355 373 353
f 355 375 373
f 374 356 354
f 376 356 374
f 357 375 355
f 357 377 375
f 376 358 356
f 378 358 376
f 359 377 357
f 359 379 377
f 378 360 358
f 380 360 378
f 381 379 359
f 381 359 361
f 382 361 362
f 382 381 361
f 383 362 363
f 383 382 362
f 384 363 364
f 384 383 363
f 385 364 365
f 385 384 364
f 365 360 380
f 365 380 385
f 387 386 366
f 387 366 367
f 366 388 368
f 386 388 366
f 368 389 369
f 388 389 368
f 369 390 370
f 389 390 369
f 370 391 371
f 390 391 370
f 372 371 391
f 372 391 392
f 373 387 367
f 373 393 387
f 392 374 372
f 394 374 392
f 375 393 373
f 375 395 393
f 394 376 374
f 396 376 394
f 377 395 375
f 377 397 395
f 396 378 376
f 398 378 396
f 379 397 377
f 379 399 397
f 398 380 378
f 400 380 398
f 401 399 379
f 401 379 381
f 402 381 382
f 402 401 381
f 403 382 383
f 403 402 382
f 404 383 384
f 404 403 383
f 405 384 385
f 405 404 384
f 385 380 400
f 385 400 405
f 407 406 386
f 407 386 387
f 386 408 388
f 406 408 386
f 388 409 389
f 408 409 388
f 389 410 390
f 409 410 389
f 390 411 391
f 410 411 390
f 392 391 411
f 392 411 412
f 393 407 387
f 393 413 407
f 412 394 392
f 414 394 412
f 395 413 393
f 395 415 413
f 414 396 394
f 416 396 414
f 397 415 395
f 397 417 415
f 416 398 396
f 418 398 416
f 399 417 397
f 399 419 417
f 418 400 398
f 420 400 418
f 421 419 399
f 421 399 401
f 422 401 402
f 422 421 401
f 423 402 403
f 423 422 402
f 424 403 404
f 424 423 403
f 425 404 405
f 425 424 404
f 405 400 420
f 405 420 425
f 427 426 406
f 427 406 407
f 406 428 408
f 426 428 406
f 408 429 409
f 428 429 408
f 409 430 410
f 429 430 409
f 410 431 411
f 430 431 410
f 412 411 431
f 412 431 432
f 413 427 407
f 413 433 427
f 432 414 412
f 434 414 432
f 415 433 413
f 415 435 433
f 434 416 414
f 436 416 434
f 417 435 415
f 417 437 435
f 436 418 416
f 438 418 436
f 419 437 417
f 419 439 437
f 438 420 418
f 440 420 438
f 441 439 419
f 441 419 421
f 442 421 422
f 442 441 421
f 443 422 423
f 443 442 422
f 444 423 424
f 444 443 423
f 445 424 425
f 445 444 424
f 425 420 440
f 425 440 445
f 447 446 426
f 447 426 427
f 426 448 428
f 446 448 426
f 428 449 429
f 448 449 428
f 429 450 430
f 449 450 429
f 430 451 431
f 450 451 430
f 432 431 451
f 432 451 452
f 433 447 427
f 433 453 447
f 452 434 432
f 454 434 452
f 435 453 433
f 435 455 453
f 454 436 434
f 456 436 454
f 437 455 435
f 437 457 455
f 456 438 436
f 458 438 456
f 439 457 437
f 439 459 457
f 458 440 438
f 460 440 458
f 461 459 439
f 461 439 441
f 462 441 442
f 462 461 441
f 463 442 443
f 463 462 442
f 464 443 444
f 464 463 443
f 465 444 445
f 465 464 444
f 445 440 460
f 445 460 465
f 467 466 446
f 467 446 447
f 446 468 448
f 466 468 446
f 448 469 449
f 468 469 448
f 449 470 450
f 469 470 449
f 450 471 451
f 470 471 450
f 452 451 471
f 452 471 472
f 453 467 447
f 453 473 467
f 472 454 452
f 474 454 472
f 455 473 453
f 455 475 473
f 474 456 454
f 476 456 474
f 457 475 455
f 457 477 475
f 476 458 456
f 478 458 476
f 459 477 457
f 459 479 477
f 478 460 458
f 480 460 478
f 481 479 459
f 481 459 461
f 482 461 462
f 482 481 461
f 483 462 463
f 483 482 462
f 484 463 464
f 484 483 463
f 485 464 465
f 485 484 464
f 465 460 480
f 465 480 485
f 487 486 466
f 487 466 467
f 466 488 468
f 486 488 466
f 468 489 469
f 488 489 468
f 469 490 470
f 489 490 469
f 470 491 471
f 490 491 470
f 472 471 491
f 472 491 492
f 473 487 467
f 473 493 487
f 492 474 472
f 494 474 492
f 475 493 473
f 475 495 493
f 494 476 474
f 496 476 494
f 477 495 475
f 477 497 495
f 496 478 476
f 498 478 496
f 479 497 477
f 479 499 497
f 498 480 478
f 500 480 498
f 501 499 479
f 501 479 481
f 502 481 482
f 502 501 481
f 503 482 483
f 503 502 482
f 504 483 484
f 504 503 483
f 505 484 485
f 505 504 484
f 485 480 500
f 485 500 505
f 507 506 486
f 507 486 487
f 486 508 488
f 506 508 486
f 488 509 489
f 508 509 488
f 489 510 490
f 509 510 489
f 490 511 491
f 510 511 490
f 492 491 511
f 492 511 512
f 493 507 487
f 493 513 507
f 512 494 492
f 514 494 512
f 495 513 493
f 495 515 513
f 514 496 494
f 516 496 514
f 497 515 495
f 497 517 515
f 516 498 496
f 518 498 516
f 499 517 497
f 499 519 517
f 518 500 498
f 520 500 518
f 521 519 499
f 521 499 501
f 522 501 502
f 522 521 501
f 523 502 503
f 523 522 502
f 524 503 504
f 524 523 503
f 525 504 505
f 525 524 504
f 505 500 520
f 505 520 525
f 507 526 506
f 527 508 506
f 527 506 526
f 528 509 508
f 528 508 527
f 529 510 509
f 529 509 528
f 530 511 510
f 530 510 529
f 530 512 511
f 532 531 526
f 507 532 526
f 513 532 507
f 526 531 527
f 527 531 533
f 527 533 528
f 528 533 534
f 528 534 529
f 529 534 535
f 529 535 530
f 530 535 536
f 512 530 536
f 537 512 536
f 514 512 537
f 515 532 513
f 515 538 532
f 537 516 514
f 539 516 537
f 517 538 515
f 517 540 538
f 539 518 516
f 541 518 539
f 519 543 542
f 540 519 542
f 517 519 540
f 545 544 543
f 543 544 542
f 547 546 545
f 545 546 544
f 549 548 547
f 547 548 546
f 551 550 549
f 549 550 548
f 541 550 551
f 520 541 551
f 518 541 520
f 521 543 519
f 543 521 522
f 543 522 545
f 545 522 523
f 545 523 547
f 547 523 524
f 547 524 549
f 549 524 525
f 549 525 551
f 551 525 520
f 532 552 531
f 553 533 531
f 553 531 552
f 554 534 533
f 554 533 553
f 555 535 534
f 555 534 554
f 556 536 535
f 556 535 555
f 556 537 536
f 538 557 552
f 538 552 532
f 552 558 553
f 552 557 558
f 553 559 554
f 553 558 559
f 554 560 555
f 554 559 560
f 555 561 556
f 555 560 561
f 561 539 537
f 561 537 556
f 540 562 557
f 540 557 538
f 557 563 558
f 557 562 563
f 558 564 559
f 558 563 564
f 559 565 560
f 559 564 565
f 560 566 561
f 560 565 566
f 566 541 539
f 566 539 561
f 542 562 540
f 562 542 544
f 562 544 563
f 563 544 546
f 563 546 564
f 564 546 548
f 564 548 565
f 565 548 550
f 565 550 566
f 566 550 541

