# https://github.com/mikedh/trimesh
v -0.02390237 -0.00581057 -0.01242112
v -0.02274880 -0.00786286 -0.01299694
v -0.02273790 -0.00624758 -0.01392936
v -0.02229518 -0.00703905 -0.01149257
v -0.02401640 -0.00326459 -0.01270118
v -0.02242379 -0.00340399 -0.01384500
v -0.02264465 -0.00357111 -0.01158447
v -0.02397890 -0.00003405 -0.01271474
v -0.02299975 -0.00000838 -0.01366654
v -0.02299975 -0.00005971 -0.01176295
v -0.02401637 0.00319652 -0.01272831
v -0.02264462 0.00350302 -0.01384502
v -0.02242375 0.00333593 -0.01158450
v -0.02390230 0.00574253 -0.01300837
v -0.02229522 0.00697086 -0.01393688
v -0.02273815 0.00617948 -0.01150011
v -0.02274911 0.00779479 -0.01243253
v -0.02061792 -0.01225390 -0.01243682
v -0.01950475 -0.01436547 -0.01298518
v -0.01947925 -0.01273299 -0.01393312
v -0.01908466 -0.01351781 -0.01147691
v -0.02131995 -0.00989259 -0.01270858
v -0.01969365 -0.00962363 -0.01397247
v -0.01963671 -0.00962076 -0.01146105
v -0.01984774 -0.00659438 -0.01393919
v -0.02023417 -0.00582838 -0.01150072
v -0.01981842 -0.00499387 -0.01300864
v -0.02133485 -0.00300915 -0.01272809
v -0.02202059 -0.00003405 -0.01271474
v -0.02133483 0.00294106 -0.01270140
v -0.01981835 0.00492581 -0.01242084
v -0.02023422 0.00576014 -0.01392872
v -0.01984817 0.00652608 -0.01149022
v -0.02132136 0.00982419 -0.01272087
v -0.01963821 0.00955177 -0.01396850
v -0.01969663 0.00955331 -0.01145675
v -0.02062117 0.01218439 -0.01299265
v -0.01909129 0.01344906 -0.01395342
v -0.01948215 0.01266082 -0.01149603
v -0.01950963 0.01429269 -0.01244418
v -0.01805128 -0.01583543 -0.01246517
v -0.01614982 -0.01773689 -0.01296431
v -0.01673805 -0.01588781 -0.01406372
v -0.01620220 -0.01642366 -0.01136577
v -0.01615282 -0.01312737 -0.01406153
v -0.01664294 -0.01262723 -0.01139000
v -0.01666043 -0.01134824 -0.01299596
v -0.01799352 -0.00934975 -0.01271628
v -0.01864016 -0.00702551 -0.01243526
v -0.01789888 -0.00290440 -0.00220868
v -0.01622492 -0.00493006 -0.00339739
v -0.01627866 -0.00310642 -0.00453234
v -0.01770472 -0.00261641 0.00039565
v -0.01675280 -0.00473663 -0.00078963
v -0.01589500 -0.00380053 0.00153846
v -0.01809912 -0.00003600 -0.00293341
v -0.01588301 0.00009611 -0.00459084
v -0.01809869 -0.00003183 -0.00006635
v -0.01588264 -0.00016327 0.00159096
v -0.01770430 0.00254897 -0.00339565
v -0.01589351 0.00373403 -0.00453834
v -0.01789764 0.00283721 -0.00079086
v -0.01627854 0.00303861 0.00153272
v -0.01864042 0.00695703 -0.01299412
v -0.01675091 0.00467099 -0.00220977
v -0.01622493 0.00486233 0.00039810
v -0.01799617 0.00928049 -0.01271315
v -0.01666811 0.01127631 -0.01243363
v -0.01663421 0.01257476 -0.01404440
v -0.01612428 0.01305921 -0.01137010
v -0.01806045 0.01576145 -0.01296435
v -0.01616169 0.01640565 -0.01406593
v -0.01668964 0.01582157 -0.01136064
v -0.01612521 0.01767346 -0.01245508
v -0.01467986 -0.01919036 -0.01244431
v -0.01256830 -0.02030353 -0.01299267
v -0.01383220 -0.01877027 -0.01395258
v -0.01304738 -0.01916486 -0.01149636
v -0.01294162 -0.01632855 -0.01403949
v -0.01344176 -0.01583842 -0.01136796
v -0.01345475 -0.01452110 -0.01298340
v -0.01483549 -0.01314036 -0.01244609
v -0.01448496 -0.00937952 -0.00225648
v -0.01295590 -0.01149549 -0.00342501
v -0.01288863 -0.00959804 -0.00457592
v -0.01435945 -0.00902527 0.00034550
v -0.01345639 -0.01130085 -0.00077883
v -0.01256381 -0.01038072 0.00154868
v -0.01503782 -0.00690923 -0.00293778
v -0.01320490 -0.00649722 -0.00459084
v -0.01525292 -0.00667438 -0.00007363
v -0.01326618 -0.00643151 0.00159053
v -0.01354828 -0.00340986 -0.00451977
v -0.01398188 -0.00261437 0.00153020
v -0.01356618 -0.00159584 -0.00337236
v -0.01417360 0.00012484 -0.00293231
v -0.01307373 -0.00175605 -0.00078702
v -0.01417374 -0.00019261 -0.00006768
v -0.01307323 0.00168912 -0.00221323
v -0.01398089 0.00254729 -0.00453041
v -0.01356571 0.00152814 0.00037263
v -0.01354749 0.00334297 0.00151983
v -0.01525113 0.00661122 -0.00292502
v -0.01327664 0.00633339 -0.00457965
v -0.01505046 0.00683143 -0.00006477
v -0.01323614 0.00640707 0.00158026
v -0.01436152 0.00893931 -0.00334325
v -0.01261311 0.01019372 -0.00452527
v -0.01450484 0.00928750 -0.00075476
v -0.01294323 0.00946891 0.00154349
v -0.01481891 0.01309089 -0.01299255
v -0.01346666 0.01111910 -0.00224421
v -0.01297362 0.01132494 0.00037713
v -0.01333046 0.01450890 -0.01246903
v -0.01328388 0.01585717 -0.01406538
v -0.01271728 0.01639482 -0.01138875
v -0.01455030 0.01921513 -0.01296119
v -0.01277164 0.01921630 -0.01393402
v -0.01366186 0.01879620 -0.01147261
v -0.01226149 0.02040185 -0.01246402
v -0.01020698 -0.02100556 -0.01272090
v -0.00993515 -0.01932232 -0.01396844
v -0.00993802 -0.01937926 -0.01145702
v -0.00966414 -0.01767913 -0.01271321
v -0.01166263 -0.01634603 -0.01243353
v -0.01153480 -0.01323565 -0.00228174
v -0.00882598 -0.01432239 -0.00295703
v -0.01050911 -0.01238637 -0.00459154
v -0.01175807 -0.01276694 0.00036562
v -0.00991322 -0.01422737 -0.00041954
v -0.00972907 -0.01277406 0.00157016
v -0.00966309 -0.01004857 -0.00468872
v -0.01018935 -0.00956338 0.00168593
v -0.01026628 -0.00799806 -0.00338477
v -0.01139026 -0.00573538 -0.00258637
v -0.00978979 -0.00816997 -0.00072749
v -0.01118929 -0.00660405 0.00035410
v -0.01206713 -0.00319688 -0.00252959
v -0.01199328 -0.00408115 -0.00003590
v -0.01199042 0.00401478 -0.00296425
v -0.01206466 0.00313177 -0.00047062
v -0.01119835 0.00650447 -0.00334044
v -0.01138526 0.00566948 -0.00041399
v -0.00981488 0.00805488 -0.00224931
v -0.01028695 0.00938364 -0.00464273
v -0.01030423 0.00790674 0.00037262
v -0.00976544 0.00990532 0.00165455
v -0.01181373 0.01247563 -0.00333171
v -0.00978021 0.01307305 -0.00466669
v -0.01160595 0.01295547 -0.00070257
v -0.01020468 0.01261260 0.00166609
v -0.01134873 0.01643328 -0.01296788
v -0.01013857 0.01442765 -0.00229504
v -0.00964476 0.01464622 0.00033721
v -0.00982869 0.01801663 -0.01243264
v -0.01022953 0.01867782 -0.01370512
v -0.01045387 0.01937641 -0.01172973
v -0.01017362 0.02035312 -0.01299180
v -0.00817725 -0.02243441 -0.01243254
v -0.00612497 -0.02358798 -0.01300836
v -0.00735344 -0.02198079 -0.01393692
v -0.00656197 -0.02242351 -0.01150013
v -0.00614277 -0.01991978 -0.01392876
v -0.00690877 -0.01953335 -0.01149030
v -0.00733991 -0.01832577 -0.01299423
v -0.00660435 -0.01430200 -0.00300826
v -0.00737438 -0.01292925 -0.00435800
v -0.00704228 -0.01420429 -0.00040584
v -0.00717687 -0.01229098 0.00135247
v -0.00678081 -0.01133408 -0.00335647
v -0.00824053 -0.00964213 -0.00227103
v -0.00625628 -0.01153283 -0.00069557
v -0.00808449 -0.01011964 0.00039834
v -0.00763753 -0.00033872 0.01337847
v -0.00672890 -0.00123318 0.01239926
v -0.00672250 0.00037513 0.01168582
v -0.00794950 0.00024103 0.01642531
v -0.00694002 -0.00169609 0.01525235
v -0.00816610 0.00002533 0.01998299
v -0.00694093 -0.00168225 0.01870654
v -0.00781531 0.00075689 0.02201691
v -0.00693484 -0.00148378 0.02181481
v -0.00666702 -0.00055451 0.02371834
v -0.00695291 0.00137202 0.01366479
v -0.00717053 0.00208140 0.01622650
v -0.00665719 0.00379001 0.01788275
v -0.00794717 0.00229999 0.01904719
v -0.00718514 0.00284846 0.02129365
v -0.00669636 0.00139265 0.02325411
v -0.00669561 0.00427029 0.01979905
v -0.00825680 0.00993043 -0.00334388
v -0.00841618 0.00948505 -0.00071981
v -0.00665835 0.01126744 -0.00228351
v -0.00708427 0.01265633 -0.00466939
v -0.00708568 0.01109320 0.00034599
v -0.00653366 0.01316624 0.00164939
v -0.00853304 0.01586376 -0.00338522
v -0.00667692 0.01589012 -0.00458896
v -0.00830622 0.01635902 -0.00075164
v -0.00735558 0.01550710 0.00153270
v -0.00890555 0.01953635 -0.01271878
v -0.00649783 0.01747091 -0.00228226
v -0.00613836 0.01730788 0.00033600
v -0.00661271 0.02270281 -0.01346583
v -0.00786287 0.02239556 -0.01271474
v -0.00661254 0.02164229 -0.01302450
v -0.00661258 0.02208359 -0.01196365
v -0.00661276 0.02314412 -0.01240499
v -0.00357899 -0.02370201 -0.01272830
v -0.00388550 -0.02233026 -0.01384502
v -0.00371839 -0.02210940 -0.01158449
v -0.00332354 -0.02102046 -0.01270140
v -0.00530826 -0.01950403 -0.01242084
v -0.00483429 -0.01631161 -0.00262761
v -0.00302515 -0.01732177 -0.00296487
v -0.00333543 -0.01587095 -0.00422782
v -0.00479920 -0.01578545 -0.00045647
v -0.00406169 -0.01712023 -0.00048698
v -0.00325538 -0.01631976 0.00115931
v -0.00559449 -0.01312717 -0.00225005
v -0.00366703 -0.01489234 -0.00228570
v -0.00323352 -0.01500693 0.00037681
v -0.00548425 -0.01311713 0.00004587
v -0.00491742 -0.00602160 0.01315547
v -0.00291050 -0.00781851 0.01303629
v -0.00387252 -0.00628050 0.01098597
v -0.00496990 -0.00632743 0.01669798
v -0.00341091 -0.00799743 0.01589663
v -0.00496214 -0.00632143 0.01992839
v -0.00333843 -0.00802540 0.01916468
v -0.00478790 -0.00596609 0.02299846
v -0.00334241 -0.00780548 0.02220556
v -0.00327856 -0.00693210 0.02429900
v -0.00479766 -0.00292006 0.00039838
v -0.00322544 -0.00440131 -0.00019741
v -0.00405120 -0.00281829 -0.00096906
v -0.00318906 -0.00367761 0.00116529
v -0.00481193 -0.00398631 0.01011531
v -0.00282417 -0.00491803 0.00934171
v -0.00374819 -0.00269450 0.00837615
v -0.00573381 -0.00298801 0.01268355
v -0.00568418 -0.00375226 0.01605078
v -0.00566295 -0.00378930 0.01934999
v -0.00565380 -0.00326759 0.02277496
v -0.00357325 -0.00545290 0.02597778
v -0.00509400 -0.00336822 0.02620493
v -0.00477035 -0.00261609 0.02928329
v -0.00380362 -0.00432667 0.02847429
v -0.00308975 -0.00332795 0.03024427
v -0.00501248 -0.00003405 0.00010218
v -0.00319940 0.00018897 -0.00112439
v -0.00319940 -0.00025707 0.00132875
v -0.00537367 -0.00046613 0.01006351
v -0.00338412 -0.00004591 0.00808153
v -0.00565594 0.00036936 0.02553379
v -0.00513862 0.00001980 0.02888712
v -0.00342449 -0.00076440 0.03063066
v -0.00479766 0.00285196 -0.00019402
v -0.00318906 0.00360952 -0.00096093
v -0.00405120 0.00275019 0.00117342
v -0.00487238 0.00314396 0.00979308
v -0.00286841 0.00290257 0.00835038
v -0.00569437 0.00314559 0.01249471
v -0.00586778 0.00371726 0.01578321
v -0.00581436 0.00365355 0.02247228
v -0.00502339 0.00387896 0.02527787
v -0.00490646 0.00297036 0.02826877
v -0.00348800 0.00239200 0.03035824
v -0.00322544 0.00433321 0.00040177
v -0.00395756 0.00504478 0.00991590
v -0.00292109 0.00669169 0.01131690
v -0.00490377 0.00593023 0.01215664
v -0.00498785 0.00628674 0.01522688
v -0.00529706 0.00594200 0.01884019
v -0.00479671 0.00620030 0.02229736
v -0.00403286 0.00610244 0.02438826
v -0.00328657 0.00514246 0.02687792
v -0.00309744 0.00433768 0.02926192
v -0.00340430 0.00777819 0.01378089
v -0.00335209 0.00796860 0.01682677
v -0.00333486 0.00793835 0.02006069
v -0.00296465 0.00770398 0.02309688
v -0.00511390 0.01321811 -0.00339240
v -0.00523922 0.01271741 -0.00074828
v -0.00288799 0.01434944 -0.00264895
v -0.00377285 0.01568508 -0.00451607
v -0.00368053 0.01415279 0.00034104
v -0.00380424 0.01585271 0.00146529
v -0.00363278 0.01761172 -0.00292411
v -0.00353688 0.01759041 -0.00005995
v -0.00385846 0.02142638 -0.01274905
v -0.00385741 0.02242655 -0.01367992
v -0.00385735 0.02235920 -0.01174956
v -0.00385630 0.02335937 -0.01268044
v -0.00034845 -0.02366452 -0.01271474
v -0.00037411 -0.02268536 -0.01366654
v -0.00032278 -0.02268536 -0.01176295
v -0.00034844 -0.02170620 -0.01271474
v 0.00026642 -0.01764151 -0.00292557
v -0.00060957 -0.01617963 -0.00440601
v -0.00138102 -0.01754459 -0.00006496
v -0.00048749 -0.01613016 0.00138403
v -0.00062897 -0.01472620 -0.00297818
v -0.00051140 -0.01469018 -0.00007662
v 0.00028140 -0.00800361 0.01314860
v -0.00131480 -0.00677626 0.01102367
v -0.00047695 -0.00839832 0.01604459
v -0.00039490 -0.00839533 0.01934991
v -0.00034971 -0.00838029 0.02261495
v -0.00178307 -0.00644237 0.02635074
v -0.00092065 -0.00775001 0.02509950
v 0.00073558 -0.00665364 0.02747399
v -0.00027531 -0.00447951 0.00011609
v -0.00066527 -0.00317575 -0.00102363
v -0.00049225 -0.00298344 0.00122217
v 0.00037956 -0.00514160 0.00945574
v -0.00121276 -0.00304094 0.00811404
v -0.00121210 -0.00501800 0.02874915
v -0.00039707 -0.00296010 0.03060419
v -0.00005812 -0.00191922 0.00006700
v -0.00171077 -0.00003405 0.00010218
v -0.00044619 -0.00010815 0.00774262
v -0.00041557 0.00004048 0.03100803
v -0.00005812 0.00185112 0.00013736
v -0.00049225 0.00291534 -0.00101781
v -0.00066527 0.00310766 0.00122799
v 0.00032977 0.00289767 0.00816740
v -0.00040491 0.00298201 0.03052895
v -0.00027531 0.00441141 0.00008827
v -0.00139297 0.00500465 0.00945835
v 0.00030897 0.00664220 0.01110780
v -0.00235744 0.00683998 0.02533284
v -0.00060532 0.00643618 0.02703138
v 0.00000279 0.00500707 0.02890533
v -0.00044632 0.00792023 0.01313544
v -0.00042128 0.00832255 0.01603677
v -0.00040459 0.00833344 0.01930038
v -0.00037344 0.00834697 0.02257749
v -0.00016091 0.00775375 0.02543420
v 0.00036371 0.01469996 -0.00292064
v -0.00044281 0.01610593 -0.00436613
v -0.00103319 0.01471413 -0.00005810
v -0.00024878 0.01612735 0.00133282
v -0.00041109 0.01754363 -0.00295179
v -0.00028929 0.01754958 -0.00008596
v -0.00043300 0.02148348 -0.01269950
v -0.00043478 0.02241315 -0.01366141
v -0.00042480 0.02245972 -0.01176808
v -0.00042658 0.02338938 -0.01272999
v 0.00288209 -0.02370200 -0.01270119
v 0.00302149 -0.02210938 -0.01384500
v 0.00318859 -0.02233027 -0.01158446
v 0.00262663 -0.02102047 -0.01272808
v 0.00360586 -0.01769836 -0.00287337
v 0.00290760 -0.01573964 -0.00450156
v 0.00206838 -0.01763401 -0.00004296
v 0.00322014 -0.01580574 0.00150638
v 0.00234471 -0.01435432 -0.00299231
v 0.00262781 -0.01411641 -0.00012199
v 0.00292132 -0.00762896 0.01344142
v 0.00275227 -0.00632253 0.01140433
v 0.00249214 -0.00793674 0.01607178
v 0.00254650 -0.00790832 0.01941545
v 0.00268555 -0.00792076 0.02273949
v 0.00211968 -0.00773418 0.02564774
v 0.00288242 -0.00669706 0.02740415
v 0.00264975 -0.00413767 0.00042131
v 0.00267028 -0.00370101 -0.00064349
v 0.00265185 -0.00312626 0.00086736
v 0.00326447 -0.00464444 0.00971427
v 0.00242980 -0.00276524 0.00830582
v 0.00278136 -0.00506739 0.02871396
v 0.00264270 -0.00245922 0.03037060
v 0.00267238 -0.00268959 -0.00019744
v 0.00245744 0.00041378 0.00775272
v 0.00262749 0.00069785 0.03054546
v 0.00267238 0.00262150 0.00040180
v 0.00265185 0.00305816 -0.00066300
v 0.00267028 0.00363291 0.00084785
v 0.00378909 0.00293660 0.00814530
v 0.00235853 0.00330087 0.03016501
v 0.00264975 0.00406958 -0.00021696
v 0.00257028 0.00500376 0.00979277
v 0.00322432 0.00638863 0.01165719
v 0.00238436 0.00630847 0.02758019
v 0.00279630 0.00467335 0.02923513
v 0.00224612 0.00753719 0.01279022
v 0.00255733 0.00785411 0.01529760
v 0.00259292 0.00783035 0.01857726
v 0.00256676 0.00789210 0.02188523
v 0.00260784 0.00775101 0.02499159
v 0.00354030 0.01471427 -0.00294169
v 0.00275605 0.01612739 -0.00433265
v 0.00214367 0.01469996 -0.00007919
v 0.00295014 0.01610590 0.00136617
v 0.00279666 0.01754957 -0.00291389
v 0.00291841 0.01754361 -0.00004819
v 0.00286015 0.02154704 -0.01271131
v 0.00287099 0.02251210 -0.01366731
v 0.00284468 0.02250836 -0.01176218
v 0.00285553 0.02347342 -0.01271818
v 0.00542807 -0.02358794 -0.01242114
v 0.00586540 -0.02242337 -0.01392945
v 0.00665699 -0.02198060 -0.01149255
v 0.00461136 -0.01950403 -0.01300863
v 0.00621246 -0.01953323 -0.01393922
v 0.00544617 -0.01991974 -0.01150065
v 0.00664370 -0.01832570 -0.01243512
v 0.00604866 -0.01740268 -0.00256091
v 0.00584109 -0.01590135 -0.00456702
v 0.00518855 -0.01746047 -0.00004949
v 0.00672201 -0.01548412 0.00159512
v 0.00437442 -0.01317328 -0.00340086
v 0.00615847 -0.01317792 -0.00455294
v 0.00459845 -0.01264362 -0.00075725
v 0.00556138 -0.01352343 0.00159174
v 0.00639566 -0.01156042 -0.00220251
v 0.00673904 -0.01171669 0.00042333
v 0.00431990 -0.00668934 0.01301496
v 0.00460928 -0.00668376 0.01524248
v 0.00461251 -0.00663445 0.01854816
v 0.00473097 -0.00662924 0.02186729
v 0.00442790 -0.00650598 0.02549254
v 0.00401258 -0.00337645 0.00010619
v 0.00494297 -0.00300726 0.00923144
v 0.00555412 -0.00405654 0.01089063
v 0.00593694 -0.00508408 0.01337168
v 0.00627674 -0.00503138 0.01677359
v 0.00629970 -0.00497330 0.02006142
v 0.00637406 -0.00500727 0.02335168
v 0.00580404 -0.00467133 0.02649379
v 0.00472111 -0.00351228 0.02878175
v 0.00636972 -0.00245272 0.02736608
v 0.00606002 -0.00003405 -0.00031758
v 0.00564026 -0.00003405 0.00010218
v 0.00606002 -0.00045381 0.00010218
v 0.00606002 -0.00003405 0.00052194
v 0.00662301 -0.00204289 0.00984809
v 0.00535841 -0.00023468 0.00824646
v 0.00473984 -0.00094306 0.02926267
v 0.00635069 0.00074950 0.02764921
v 0.00401258 0.00330836 0.00009817
v 0.00606002 0.00038571 0.00010218
v 0.00641025 0.00262522 0.00843496
v 0.00444244 0.00311987 0.02886080
v 0.00610045 0.00363385 0.02718068
v 0.00566198 0.00433584 0.00941476
v 0.00584192 0.00497892 0.01196921
v 0.00448820 0.00659427 0.01385138
v 0.00633582 0.00490185 0.01539471
v 0.00467666 0.00656417 0.01699333
v 0.00624551 0.00491943 0.01871502
v 0.00462663 0.00658047 0.02028613
v 0.00623372 0.00502657 0.02199178
v 0.00465286 0.00666723 0.02353533
v 0.00627801 0.00486560 0.02506549
v 0.00469491 0.00591011 0.02641210
v 0.00618698 0.01415408 -0.00334121
v 0.00631070 0.01585391 -0.00446543
v 0.00539488 0.01434960 -0.00035115
v 0.00627988 0.01568441 0.00151545
v 0.00604414 0.01759048 -0.00293987
v 0.00613993 0.01761159 -0.00007627
v 0.00584200 0.02091631 -0.01270164
v 0.00644692 0.02221222 -0.01384856
v 0.00625928 0.02197041 -0.01158093
v 0.00609886 0.02357165 -0.01272785
v 0.00748091 -0.02243411 -0.01299710
v 0.00951158 -0.02100555 -0.01270867
v 0.00924174 -0.01938078 -0.01397176
v 0.00923976 -0.01932174 -0.01146154
v 0.00896876 -0.01767927 -0.01271677
v 0.00770200 -0.01587592 -0.00339679
v 0.00754667 -0.01640634 -0.00075091
v 0.01008227 -0.01471532 -0.00262096
v 0.00933708 -0.01284563 -0.00461260
v 0.00918472 -0.01491301 0.00038491
v 0.00939821 -0.01279522 0.00163954
v 0.00889478 -0.01092576 -0.00290375
v 0.00911503 -0.01073274 -0.00000034
v 0.00750835 -0.00244080 0.01252520
v 0.00755034 -0.00301038 0.01597098
v 0.00753278 -0.00290671 0.01924854
v 0.00757457 -0.00292481 0.02251555
v 0.00729202 -0.00336349 0.02512493
v 0.00647978 -0.00003405 0.00010218
v 0.00757595 0.00043352 0.01009054
v 0.00801734 0.00034040 0.01325365
v 0.00794603 -0.00012374 0.01608448
v 0.00792543 -0.00001910 0.01936533
v 0.00794467 0.00003016 0.02264457
v 0.00759196 -0.00078439 0.02550032
v 0.00736712 0.00332443 0.01011970
v 0.00764955 0.00283839 0.01279862
v 0.00754874 0.00277777 0.01617076
v 0.00747726 0.00287512 0.01947272
v 0.00750834 0.00298629 0.02274760
v 0.00735001 0.00239635 0.02563768
v 0.00774497 0.01271914 -0.00225349
v 0.00960477 0.01108549 -0.00334875
v 0.00905023 0.01316091 -0.00465156
v 0.00761984 0.01321761 0.00039107
v 0.00916252 0.01126648 -0.00071513
v 0.00959486 0.01265875 0.00168118
v 0.00986207 0.01550786 -0.00453325
v 0.00918375 0.01588839 0.00158851
v 0.00794413 0.01934959 -0.01244450
v 0.01017691 0.01807121 -0.01297489
v 0.00883194 0.01975477 -0.01393715
v 0.00970802 0.01932373 -0.01148730
v 0.00864493 0.01730867 -0.00333603
v 0.00900487 0.01747081 -0.00071842
v 0.01012728 0.02175695 -0.01394219
v 0.00925439 0.02225095 -0.01149234
v 0.00876670 0.02346445 -0.01298498
v 0.01187449 -0.02030384 -0.01243689
v 0.01234060 -0.01917563 -0.01392926
v 0.01312153 -0.01877635 -0.01147942
v 0.01096662 -0.01634884 -0.01299615
v 0.01272023 -0.01584310 -0.01405238
v 0.01222600 -0.01632641 -0.01139580
v 0.01274694 -0.01451262 -0.01244799
v 0.01283644 -0.01397341 -0.00260204
v 0.01210202 -0.01291649 -0.00445909
v 0.01182921 -0.01407688 -0.00005230
v 0.01283790 -0.01217503 0.00144738
v 0.01102076 -0.00974062 -0.00337587
v 0.01253945 -0.01033515 -0.00434792
v 0.01120995 -0.00916803 -0.00075363
v 0.01200066 -0.01011198 0.00136591
v 0.01253623 -0.00845494 -0.00252893
v 0.01302351 -0.00850937 -0.00037579
v 0.01095043 0.00947088 -0.00225375
v 0.01291361 0.00788107 -0.00335064
v 0.01233789 0.00983524 -0.00464860
v 0.01077013 0.00994152 0.00038430
v 0.01239959 0.00809598 -0.00071828
v 0.01283160 0.00945423 0.00169694
v 0.01274893 0.01257402 -0.00465483
v 0.01229757 0.01307590 0.00169094
v 0.01214893 0.01464597 -0.00333728
v 0.01081187 0.01636057 -0.00225039
v 0.01264138 0.01442681 -0.00070364
v 0.01103946 0.01586280 0.00038372
v 0.01223556 0.01808438 -0.01243072
v 0.01194425 0.01909079 -0.01371870
v 0.01216772 0.01986309 -0.01171079
v 0.01255408 0.02052053 -0.01299876
v 0.01100985 0.02220554 -0.01245460
v 0.01397215 -0.01920389 -0.01298147
v 0.01539889 -0.01777003 -0.01246134
v 0.01544714 -0.01642916 -0.01405877
v 0.01594670 -0.01590737 -0.01136777
v 0.01410830 -0.01309061 -0.01297412
v 0.01591005 -0.01257291 -0.01406936
v 0.01541185 -0.01308104 -0.01135981
v 0.01392726 -0.01185643 -0.00295741
v 0.01386768 -0.01295582 -0.00047659
v 0.01592499 -0.01128319 -0.01245203
v 0.01378799 -0.00925756 -0.00249478
v 0.01396230 -0.01040445 -0.00005703
v 0.01539823 -0.00625825 -0.00425410
v 0.01431806 -0.00625302 -0.00262189
v 0.01565776 -0.00767902 -0.00228936
v 0.01469779 -0.00646381 -0.00006754
v 0.01567513 -0.00773171 0.00001975
v 0.01594446 -0.00612559 0.00115578
v 0.01421366 -0.00355136 -0.00301654
v 0.01569274 -0.00355593 -0.00446041
v 0.01420135 -0.00341546 -0.00009967
v 0.01566615 -0.00335658 0.00138641
v 0.01429041 -0.00016956 -0.00297590
v 0.01574578 -0.00018529 -0.00440234
v 0.01424231 -0.00001772 -0.00008140
v 0.01564612 0.00004992 0.00139584
v 0.01437159 0.00310196 -0.00291737
v 0.01580871 0.00305792 -0.00435096
v 0.01434404 0.00325973 -0.00005396
v 0.01575108 0.00329976 0.00138861
v 0.01406074 0.00591350 -0.00295208
v 0.01539286 0.00645361 -0.00447529
v 0.01383579 0.00620139 -0.00007501
v 0.01551006 0.00677665 0.00152384
v 0.01558865 0.00939544 -0.00454914
v 0.01518546 0.01023947 0.00158583
v 0.01555311 0.01127770 -0.00333871
v 0.01411516 0.01293615 -0.00226564
v 0.01604491 0.01109554 -0.00071484
v 0.01432747 0.01246841 0.00037454
v 0.01525295 0.01598710 -0.01271474
v 0.01567271 0.01556735 -0.01271474
v 0.01567271 0.01598710 -0.01313450
v 0.01567271 0.01598710 -0.01229498
v 0.01347429 0.01890598 -0.01271474
v 0.01567271 0.01640686 -0.01271474
v 0.01721449 -0.01585717 -0.01297181
v 0.01867511 -0.01439457 -0.01245780
v 0.01873938 -0.01311278 -0.01406677
v 0.01928961 -0.01262335 -0.01136583
v 0.01738014 -0.00990586 -0.01297756
v 0.01923438 -0.00940847 -0.01403491
v 0.01874197 -0.00988985 -0.01136949
v 0.01929647 -0.00813726 -0.01242990
v 0.01688731 -0.00593185 -0.00299096
v 0.01672987 -0.00693005 -0.00045583
v 0.01715319 -0.00266381 -0.00295825
v 0.01711482 -0.00423300 -0.00007921
v 0.01716874 0.00066740 -0.00294095
v 0.01711572 -0.00080492 -0.00002922
v 0.01724381 0.00390504 -0.00292733
v 0.01715936 0.00246696 -0.00005095
v 0.01733178 0.00712838 -0.00287296
v 0.01726419 0.00566271 -0.00005539
v 0.01775688 0.01049145 -0.01245461
v 0.01903527 0.00825867 -0.01298492
v 0.01900936 0.01002256 -0.01394217
v 0.01944050 0.00914644 -0.01149234
v 0.01705190 0.00963725 -0.00256901
v 0.01712698 0.00870810 -0.00006499
v 0.01777000 0.01254997 -0.01299876
v 0.01954874 0.01248218 -0.01371870
v 0.01877642 0.01225872 -0.01171079
v 0.01609247 0.01598710 -0.01271474
v 0.01859159 0.01378867 -0.01271474
v 0.02060263 -0.01256609 -0.01297215
v 0.02211328 -0.01113615 -0.01245182
v 0.02166980 -0.01029735 -0.01395859
v 0.02211577 -0.00950474 -0.01149926
v 0.02072147 -0.00617211 -0.01269415
v 0.02195935 -0.00676140 -0.01383409
v 0.02180615 -0.00657536 -0.01159102
v 0.02124267 -0.00321927 -0.01270506
v 0.02219812 -0.00323974 -0.01366732
v 0.02221557 -0.00321043 -0.01175966
v 0.02119038 -0.00003529 -0.01271455
v 0.02215897 -0.00002648 -0.01367164
v 0.02215953 -0.00004523 -0.01175770
v 0.02122509 0.00316607 -0.01271827
v 0.02218986 0.00314968 -0.01367019
v 0.02219470 0.00317557 -0.01175942
v 0.02060039 0.00615205 -0.01272768
v 0.02165410 0.00657008 -0.01384832
v 0.02189640 0.00675761 -0.01158117
v 0.02193652 0.00956893 -0.01393715
v 0.02144264 0.01044179 -0.01148732
v 0.02189122 0.01132440 -0.01297488
v 0.02020615 0.01286849 -0.01243072
v 0.02325223 -0.00905248 -0.01299601
v 0.02330573 -0.00645832 -0.01273891
v 0.02317103 -0.00323090 -0.01272191
v 0.02312812 -0.00003641 -0.01271478
v 0.02315947 0.00315919 -0.01271133
v 0.02325488 0.00640906 -0.01270182
v 0.02315008 0.00908124 -0.01244457
f 3 2 1
f 4 1 2
f 3 1 5
f 3 5 6
f 1 4 7
f 1 7 5
f 6 5 8
f 6 8 9
f 5 7 10
f 5 10 8
f 9 8 11
f 9 11 12
f 8 10 13
f 8 13 11
f 12 11 14
f 12 14 15
f 11 13 16
f 11 16 14
f 17 15 14
f 17 14 16
f 20 19 18
f 21 18 19
f 20 18 22
f 20 22 23
f 18 21 24
f 18 24 22
f 23 22 2
f 3 23 2
f 25 23 3
f 4 2 22
f 24 4 22
f 26 4 24
f 6 28 27
f 25 6 27
f 3 6 25
f 26 27 28
f 7 26 28
f 4 26 7
f 9 29 28
f 9 28 6
f 29 10 7
f 29 7 28
f 12 30 29
f 12 29 9
f 30 13 10
f 30 10 29
f 32 31 30
f 12 32 30
f 15 32 12
f 13 30 31
f 33 13 31
f 16 13 33
f 15 17 34
f 35 15 34
f 32 15 35
f 36 34 17
f 16 36 17
f 33 36 16
f 35 34 37
f 35 37 38
f 34 36 39
f 34 39 37
f 40 38 37
f 40 37 39
f 43 42 41
f 44 41 42
f 43 41 19
f 20 43 19
f 45 43 20
f 21 19 41
f 44 21 41
f 46 21 44
f 23 48 47
f 45 23 47
f 20 23 45
f 46 47 48
f 24 46 48
f 21 46 24
f 25 49 48
f 25 48 23
f 49 26 24
f 49 24 48
f 27 49 25
f 49 27 26
f 52 51 50
f 54 53 50
f 54 50 51
f 55 53 54
f 52 50 56
f 52 56 57
f 58 50 53
f 56 50 58
f 53 55 59
f 53 59 58
f 57 56 60
f 57 60 61
f 62 56 58
f 60 56 62
f 58 59 63
f 58 63 62
f 32 64 31
f 64 33 31
f 65 61 60
f 65 60 62
f 65 62 66
f 66 62 63
f 35 67 64
f 35 64 32
f 67 36 33
f 67 33 64
f 69 68 67
f 35 69 67
f 38 69 35
f 36 67 68
f 70 36 68
f 39 36 70
f 38 40 71
f 72 38 71
f 69 38 72
f 73 71 40
f 39 73 40
f 70 73 39
f 74 72 71
f 74 71 73
f 77 76 75
f 78 75 76
f 77 75 42
f 43 77 42
f 79 77 43
f 44 42 75
f 78 44 75
f 80 44 78
f 45 82 81
f 79 45 81
f 43 45 79
f 80 81 82
f 46 80 82
f 44 80 46
f 47 82 45
f 82 47 46
f 85 84 83
f 87 86 83
f 87 83 84
f 88 86 87
f 85 83 89
f 85 89 90
f 91 83 86
f 89 83 91
f 86 88 92
f 86 92 91
f 90 89 51
f 52 90 51
f 93 90 52
f 51 89 54
f 54 89 91
f 55 54 91
f 92 55 91
f 94 55 92
f 57 96 95
f 93 57 95
f 52 57 93
f 98 97 96
f 96 97 95
f 94 97 98
f 59 94 98
f 55 94 59
f 100 99 96
f 57 100 96
f 61 100 57
f 96 99 98
f 98 99 101
f 59 98 101
f 102 59 101
f 63 59 102
f 61 65 103
f 104 61 103
f 100 61 104
f 66 105 65
f 65 105 103
f 106 105 66
f 63 106 66
f 102 106 63
f 104 103 107
f 104 107 108
f 109 103 105
f 107 103 109
f 105 106 110
f 105 110 109
f 69 111 68
f 111 70 68
f 112 108 107
f 112 107 109
f 112 109 113
f 113 109 110
f 115 114 111
f 69 115 111
f 72 115 69
f 70 111 114
f 116 70 114
f 73 70 116
f 72 74 117
f 118 72 117
f 115 72 118
f 119 117 74
f 73 119 74
f 116 119 73
f 120 118 117
f 120 117 119
f 122 121 76
f 122 76 77
f 78 76 121
f 78 121 123
f 79 125 124
f 122 79 124
f 77 79 122
f 123 124 125
f 80 123 125
f 78 123 80
f 81 125 79
f 125 81 80
f 128 127 126
f 130 129 126
f 130 126 127
f 131 129 130
f 128 126 84
f 85 128 84
f 132 128 85
f 84 126 87
f 87 126 129
f 88 87 129
f 131 88 129
f 133 88 131
f 90 135 134
f 132 90 134
f 85 90 132
f 137 136 135
f 135 136 134
f 133 136 137
f 92 133 137
f 88 133 92
f 93 138 135
f 93 135 90
f 135 139 137
f 135 138 139
f 139 94 92
f 139 92 137
f 95 138 93
f 138 95 97
f 138 97 139
f 139 97 94
f 100 140 99
f 141 101 99
f 141 99 140
f 141 102 101
f 104 142 140
f 104 140 100
f 140 143 141
f 140 142 143
f 143 106 102
f 143 102 141
f 145 144 142
f 104 145 142
f 108 145 104
f 142 144 143
f 143 144 146
f 106 143 146
f 147 106 146
f 110 106 147
f 108 112 148
f 149 108 148
f 145 108 149
f 113 150 112
f 112 150 148
f 151 150 113
f 110 151 113
f 147 151 110
f 115 152 114
f 152 116 114
f 153 149 148
f 153 148 150
f 153 150 154
f 154 150 151
f 156 155 152
f 115 156 152
f 118 156 115
f 116 152 155
f 157 116 155
f 119 116 157
f 158 156 118
f 158 118 120
f 120 119 157
f 120 157 158
f 161 160 159
f 162 159 160
f 161 159 121
f 122 161 121
f 163 161 122
f 123 121 159
f 162 123 159
f 164 123 162
f 165 163 122
f 165 122 124
f 124 123 164
f 124 164 165
f 167 166 127
f 167 127 128
f 127 168 130
f 166 168 127
f 131 130 168
f 131 168 169
f 132 171 170
f 167 132 170
f 128 132 167
f 173 172 171
f 171 172 170
f 169 172 173
f 133 169 173
f 131 169 133
f 134 171 132
f 171 134 136
f 171 136 173
f 173 136 133
f 176 175 174
f 178 177 174
f 178 174 175
f 180 179 177
f 180 177 178
f 182 181 179
f 182 179 180
f 183 181 182
f 184 176 174
f 184 174 177
f 184 177 185
f 187 186 185
f 177 187 185
f 179 187 177
f 181 189 188
f 187 181 188
f 179 181 187
f 189 181 183
f 190 186 187
f 190 187 188
f 145 191 144
f 192 146 144
f 192 144 191
f 192 147 146
f 194 193 191
f 145 194 191
f 149 194 145
f 191 193 192
f 192 193 195
f 147 192 195
f 196 147 195
f 151 147 196
f 149 153 197
f 198 149 197
f 194 149 198
f 154 199 153
f 153 199 197
f 200 199 154
f 151 200 154
f 196 200 151
f 156 201 155
f 201 157 155
f 202 198 197
f 202 197 199
f 202 199 203
f 203 199 200
f 201 156 158
f 206 205 204
f 158 157 201
f 205 206 207
f 208 204 205
f 208 205 207
f 210 209 160
f 210 160 161
f 162 160 209
f 162 209 211
f 163 213 212
f 210 163 212
f 161 163 210
f 211 212 213
f 164 211 213
f 162 211 164
f 165 213 163
f 213 165 164
f 216 215 214
f 218 217 214
f 218 214 215
f 219 217 218
f 166 167 220
f 214 221 216
f 221 217 222
f 217 221 214
f 223 168 220
f 166 220 168
f 217 219 222
f 168 223 169
f 170 220 167
f 220 170 172
f 220 172 223
f 223 172 169
f 226 225 224
f 228 227 224
f 228 224 225
f 230 229 227
f 230 227 228
f 232 231 229
f 232 229 230
f 233 231 232
f 236 235 234
f 237 234 235
f 240 239 238
f 238 239 226
f 224 238 226
f 241 238 224
f 242 224 227
f 241 224 242
f 243 227 229
f 242 227 243
f 244 229 231
f 243 229 244
f 231 233 245
f 246 231 245
f 244 231 246
f 248 247 246
f 248 246 245
f 249 247 248
f 236 234 250
f 236 250 251
f 234 237 252
f 234 252 250
f 240 238 253
f 240 253 254
f 176 253 175
f 253 241 175
f 253 238 241
f 175 241 178
f 178 241 242
f 178 242 180
f 180 242 243
f 180 243 182
f 182 243 244
f 182 244 183
f 244 255 183
f 244 246 255
f 256 246 247
f 255 246 256
f 247 249 257
f 247 257 256
f 251 250 258
f 251 258 259
f 250 252 260
f 250 260 258
f 254 253 261
f 254 261 262
f 184 263 176
f 263 253 176
f 263 261 253
f 185 264 184
f 184 264 263
f 186 264 185
f 265 188 189
f 183 255 189
f 255 265 189
f 255 266 265
f 267 255 256
f 266 255 267
f 256 257 268
f 256 268 267
f 269 259 258
f 269 258 260
f 270 262 261
f 272 271 270
f 261 272 270
f 263 272 261
f 273 263 264
f 272 263 273
f 190 274 186
f 274 264 186
f 274 273 264
f 188 265 190
f 265 274 190
f 265 275 274
f 266 277 276
f 275 266 276
f 265 266 275
f 277 266 267
f 277 267 278
f 278 267 268
f 279 271 272
f 279 272 273
f 279 273 280
f 280 273 274
f 280 274 281
f 281 274 275
f 281 275 282
f 282 275 276
f 194 283 193
f 284 195 193
f 284 193 283
f 284 196 195
f 286 285 283
f 194 286 283
f 198 286 194
f 283 285 284
f 284 285 287
f 196 284 287
f 288 196 287
f 200 196 288
f 289 286 198
f 289 198 202
f 290 202 203
f 290 289 202
f 203 200 288
f 203 288 290
f 292 291 206
f 292 206 204
f 207 206 291
f 207 291 293
f 294 292 204
f 294 204 208
f 208 207 293
f 208 293 294
f 296 295 209
f 296 209 210
f 211 209 295
f 211 295 297
f 298 296 210
f 298 210 212
f 212 211 297
f 212 297 298
f 300 299 215
f 300 215 216
f 215 301 218
f 299 301 215
f 219 218 301
f 219 301 302
f 303 300 216
f 303 216 221
f 304 221 222
f 304 303 221
f 222 219 302
f 222 302 304
f 306 305 225
f 306 225 226
f 225 307 228
f 305 307 225
f 228 308 230
f 307 308 228
f 230 309 232
f 308 309 230
f 311 310 233
f 232 311 233
f 309 311 232
f 312 310 311
f 314 313 235
f 314 235 236
f 237 235 313
f 237 313 315
f 317 316 239
f 317 239 240
f 226 239 306
f 306 239 316
f 310 245 233
f 312 318 310
f 318 245 310
f 318 248 245
f 249 248 318
f 249 318 319
f 251 321 320
f 314 251 320
f 236 251 314
f 315 320 321
f 252 315 321
f 237 315 252
f 254 317 240
f 254 322 317
f 319 257 249
f 323 257 319
f 325 324 321
f 251 325 321
f 259 325 251
f 252 321 324
f 326 252 324
f 260 252 326
f 262 322 254
f 262 327 322
f 323 268 257
f 328 268 323
f 329 325 259
f 329 259 269
f 269 260 326
f 269 326 329
f 330 327 262
f 330 262 270
f 270 271 330
f 330 271 331
f 332 276 277
f 332 277 333
f 277 334 333
f 277 278 334
f 278 268 328
f 278 328 334
f 335 331 271
f 335 271 279
f 336 279 280
f 336 335 279
f 337 280 281
f 337 336 280
f 338 281 282
f 338 337 281
f 282 276 332
f 339 282 332
f 338 282 339
f 339 332 333
f 341 340 285
f 341 285 286
f 285 342 287
f 340 342 285
f 288 287 342
f 288 342 343
f 344 341 286
f 344 286 289
f 345 289 290
f 345 344 289
f 290 288 343
f 290 343 345
f 347 346 291
f 347 291 292
f 293 291 346
f 293 346 348
f 349 347 292
f 349 292 294
f 294 293 348
f 294 348 349
f 351 350 295
f 351 295 296
f 297 295 350
f 297 350 352
f 353 351 296
f 353 296 298
f 298 297 352
f 298 352 353
f 355 354 299
f 355 299 300
f 299 356 301
f 354 356 299
f 302 301 356
f 302 356 357
f 358 355 300
f 358 300 303
f 359 303 304
f 359 358 303
f 304 302 357
f 304 357 359
f 361 360 305
f 361 305 306
f 305 362 307
f 360 362 305
f 307 363 308
f 362 363 307
f 308 364 309
f 363 364 308
f 309 365 311
f 364 365 309
f 312 311 365
f 312 365 366
f 368 367 313
f 368 313 314
f 315 313 367
f 315 367 369
f 371 370 316
f 371 316 317
f 306 316 361
f 361 316 370
f 366 372 312
f 312 372 318
f 319 318 372
f 319 372 373
f 374 368 314
f 374 314 320
f 320 315 369
f 320 369 374
f 322 371 317
f 322 375 371
f 373 323 319
f 376 323 373
f 378 377 324
f 378 324 325
f 326 324 377
f 326 377 379
f 327 375 322
f 327 380 375
f 376 328 323
f 381 328 376
f 382 378 325
f 382 325 329
f 329 326 379
f 329 379 382
f 383 380 327
f 383 327 330
f 330 331 383
f 383 331 384
f 386 385 334
f 334 385 333
f 334 328 381
f 334 381 386
f 387 384 331
f 387 331 335
f 388 335 336
f 388 387 335
f 389 336 337
f 389 388 336
f 390 337 338
f 390 389 337
f 391 338 339
f 391 390 338
f 339 333 385
f 339 385 391
f 393 392 340
f 393 340 341
f 340 394 342
f 392 394 340
f 343 342 394
f 343 394 395
f 396 393 341
f 396 341 344
f 397 344 345
f 397 396 344
f 345 343 395
f 345 395 397
f 399 398 346
f 399 346 347
f 348 346 398
f 348 398 400
f 401 399 347
f 401 347 349
f 349 348 400
f 349 400 401
f 403 402 350
f 403 350 351
f 352 350 402
f 352 402 404
f 351 353 405
f 406 351 405
f 403 351 406
f 407 405 353
f 352 407 353
f 404 407 352
f 408 406 405
f 408 405 407
f 410 409 354
f 410 354 355
f 354 411 356
f 409 411 354
f 357 356 411
f 357 411 412
f 355 358 413
f 414 355 413
f 410 355 414
f 359 415 358
f 358 415 413
f 416 415 359
f 357 416 359
f 412 416 357
f 417 414 413
f 417 413 415
f 417 415 418
f 418 415 416
f 361 419 360
f 420 362 360
f 420 360 419
f 421 363 362
f 421 362 420
f 422 364 363
f 422 363 421
f 423 365 364
f 423 364 422
f 423 366 365
f 368 424 367
f 424 369 367
f 371 425 370
f 425 426 370
f 370 426 361
f 426 427 361
f 427 419 361
f 419 427 420
f 420 427 428
f 420 428 421
f 421 428 429
f 421 429 422
f 422 429 430
f 422 430 423
f 423 430 431
f 431 433 432
f 431 432 372
f 423 431 372
f 366 423 372
f 432 373 372
f 424 368 374
f 436 435 434
f 374 369 424
f 435 436 437
f 439 438 425
f 371 439 425
f 375 439 371
f 425 438 426
f 432 433 440
f 440 433 441
f 440 376 373
f 440 373 432
f 377 378 442
f 435 443 434
f 435 437 443
f 377 442 379
f 380 439 375
f 380 444 439
f 440 441 445
f 445 441 446
f 445 381 376
f 445 376 440
f 382 442 378
f 442 382 379
f 447 444 380
f 447 380 383
f 449 448 384
f 448 383 384
f 448 447 383
f 451 450 449
f 449 450 448
f 453 452 451
f 451 452 450
f 455 454 453
f 453 454 452
f 457 456 455
f 455 456 454
f 456 457 446
f 446 457 445
f 457 385 445
f 385 386 445
f 445 386 381
f 387 449 384
f 449 387 388
f 449 388 451
f 451 388 389
f 451 389 453
f 453 389 390
f 453 390 455
f 455 390 391
f 455 391 457
f 457 391 385
f 459 458 392
f 459 392 393
f 392 460 394
f 458 460 392
f 395 394 460
f 395 460 461
f 462 459 393
f 462 393 396
f 463 396 397
f 463 462 396
f 397 395 461
f 397 461 463
f 465 464 398
f 465 398 399
f 400 398 464
f 400 464 466
f 467 465 399
f 467 399 401
f 401 400 466
f 401 466 467
f 403 468 402
f 468 404 402
f 470 469 468
f 403 470 468
f 406 470 403
f 404 468 469
f 471 404 469
f 407 404 471
f 472 470 406
f 472 406 408
f 408 407 471
f 408 471 472
f 410 473 409
f 474 411 409
f 474 409 473
f 474 412 411
f 476 475 473
f 410 476 473
f 414 476 410
f 473 475 474
f 474 475 477
f 412 474 477
f 478 412 477
f 416 412 478
f 479 476 414
f 479 414 417
f 480 417 418
f 480 479 417
f 418 416 478
f 418 478 480
f 426 481 427
f 482 428 427
f 482 427 481
f 483 429 428
f 483 428 482
f 484 430 429
f 484 429 483
f 485 431 430
f 485 430 484
f 485 433 431
f 434 486 436
f 486 437 436
f 439 487 438
f 481 426 438
f 487 481 438
f 488 481 487
f 481 489 482
f 481 488 489
f 482 490 483
f 482 489 490
f 483 491 484
f 483 490 491
f 484 492 485
f 484 491 492
f 492 441 433
f 492 433 485
f 443 486 434
f 486 443 437
f 444 493 487
f 444 487 439
f 487 494 488
f 487 493 494
f 488 495 489
f 488 494 495
f 489 496 490
f 489 495 496
f 490 497 491
f 490 496 497
f 491 498 492
f 491 497 498
f 498 446 441
f 498 441 492
f 447 493 444
f 493 447 448
f 493 448 494
f 494 448 450
f 494 450 495
f 495 450 452
f 495 452 496
f 496 452 454
f 496 454 497
f 497 454 456
f 497 456 498
f 498 456 446
f 501 500 499
f 503 502 499
f 503 499 500
f 504 502 503
f 501 499 458
f 459 501 458
f 505 501 459
f 458 499 460
f 460 499 502
f 461 460 502
f 504 461 502
f 506 461 504
f 509 508 507
f 510 507 508
f 511 505 459
f 511 459 462
f 512 462 463
f 512 511 462
f 463 461 506
f 463 506 512
f 509 507 464
f 465 509 464
f 513 509 465
f 466 464 507
f 510 466 507
f 514 466 510
f 515 513 465
f 515 465 467
f 467 466 514
f 467 514 515
f 517 516 469
f 517 469 470
f 471 469 516
f 471 516 518
f 470 472 519
f 520 470 519
f 517 470 520
f 521 519 472
f 471 521 472
f 518 521 471
f 522 520 519
f 522 519 521
f 524 523 475
f 524 475 476
f 475 525 477
f 523 525 475
f 478 477 525
f 478 525 526
f 476 479 527
f 528 476 527
f 524 476 528
f 480 529 479
f 479 529 527
f 530 529 480
f 478 530 480
f 526 530 478
f 531 528 527
f 531 527 529
f 531 529 532
f 532 529 530
f 535 534 533
f 537 536 533
f 537 533 534
f 538 536 537
f 535 533 500
f 501 535 500
f 539 535 501
f 500 533 503
f 503 533 536
f 504 503 536
f 538 504 536
f 540 504 538
f 505 542 541
f 539 505 541
f 501 505 539
f 544 543 542
f 542 543 541
f 540 543 544
f 506 540 544
f 504 540 506
f 546 545 508
f 546 508 509
f 510 508 545
f 510 545 547
f 511 542 505
f 542 511 512
f 542 512 544
f 544 512 506
f 513 549 548
f 546 513 548
f 509 513 546
f 547 548 549
f 514 547 549
f 510 547 514
f 515 549 513
f 549 515 514
f 517 550 516
f 550 518 516
f 552 551 550
f 517 552 550
f 520 552 517
f 518 550 551
f 553 518 551
f 521 518 553
f 520 522 554
f 555 520 554
f 552 520 555
f 556 554 522
f 521 556 522
f 553 556 521
f 524 557 523
f 558 525 523
f 558 523 557
f 558 526 525
f 559 555 554
f 559 554 556
f 528 560 557
f 528 557 524
f 557 561 558
f 557 560 561
f 561 530 526
f 561 526 558
f 560 528 531
f 564 563 562
f 566 565 564
f 563 564 565
f 560 532 561
f 532 560 531
f 532 530 561
f 565 566 567
f 562 563 568
f 562 568 569
f 570 563 565
f 568 563 570
f 565 567 571
f 565 571 570
f 569 568 572
f 569 572 573
f 574 568 570
f 572 568 574
f 570 571 575
f 570 575 574
f 573 572 576
f 573 576 577
f 578 572 574
f 576 572 578
f 574 575 579
f 574 579 578
f 577 576 580
f 577 580 581
f 582 576 578
f 580 576 582
f 578 579 583
f 578 583 582
f 581 580 534
f 535 581 534
f 584 581 535
f 534 580 537
f 537 580 582
f 538 537 582
f 583 538 582
f 585 538 583
f 539 587 586
f 584 539 586
f 535 539 584
f 589 588 587
f 587 588 586
f 585 588 589
f 540 585 589
f 538 585 540
f 592 591 590
f 593 590 591
f 541 587 539
f 587 541 543
f 587 543 589
f 589 543 540
f 545 546 594
f 590 595 592
f 590 593 595
f 545 594 547
f 548 594 546
f 594 548 547
f 552 596 551
f 596 553 551
f 598 597 596
f 552 598 596
f 555 598 552
f 553 596 597
f 599 553 597
f 556 553 599
f 555 559 600
f 601 555 600
f 598 555 601
f 602 600 559
f 556 602 559
f 599 602 556
f 603 601 600
f 603 600 602
f 562 604 564
f 605 566 564
f 605 564 604
f 605 567 566
f 569 606 604
f 569 604 562
f 604 607 605
f 604 606 607
f 607 571 567
f 607 567 605
f 573 608 606
f 573 606 569
f 606 609 607
f 606 608 609
f 609 575 571
f 609 571 607
f 577 610 608
f 577 608 573
f 608 611 609
f 608 610 611
f 611 579 575
f 611 575 609
f 581 612 610
f 581 610 577
f 610 613 611
f 610 612 613
f 613 583 579
f 613 579 611
f 616 615 614
f 617 614 615
f 584 618 612
f 584 612 581
f 612 619 613
f 612 618 619
f 619 585 583
f 619 583 613
f 616 614 620
f 616 620 621
f 614 617 622
f 614 622 620
f 586 618 584
f 618 586 588
f 618 588 619
f 619 588 585
f 591 592 623
f 620 624 621
f 620 622 624
f 591 623 593
f 595 623 592
f 623 595 593
f 598 625 597
f 625 599 597
f 627 626 625
f 598 627 625
f 601 627 598
f 599 625 626
f 628 599 626
f 602 599 628
f 601 603 629
f 630 601 629
f 627 601 630
f 631 629 603
f 602 631 603
f 628 631 602
f 630 629 632
f 630 632 633
f 629 631 634
f 629 634 632
f 633 632 635
f 633 635 636
f 632 634 637
f 632 637 635
f 636 635 638
f 636 638 639
f 635 637 640
f 635 640 638
f 639 638 641
f 639 641 642
f 638 640 643
f 638 643 641
f 642 641 615
f 616 642 615
f 644 642 616
f 617 615 641
f 643 617 641
f 645 617 643
f 621 647 646
f 644 621 646
f 616 621 644
f 645 646 647
f 622 645 647
f 617 645 622
f 624 647 621
f 647 624 622
f 627 648 626
f 648 628 626
f 630 649 648
f 630 648 627
f 649 631 628
f 649 628 648
f 633 650 649
f 633 649 630
f 650 634 631
f 650 631 649
f 636 651 650
f 636 650 633
f 651 637 634
f 651 634 650
f 639 652 651
f 639 651 636
f 652 640 637
f 652 637 651
f 642 653 652
f 642 652 639
f 653 643 640
f 653 640 652
f 644 654 653
f 644 653 642
f 654 645 643
f 654 643 653
f 646 654 644
f 654 646 645

