# https://github.com/mikedh/trimesh
v -0.02173449 -0.01208434 -0.00822608
v -0.01939587 -0.01619674 -0.00864715
v -0.01922437 -0.01339851 -0.01246060
v -0.02152480 -0.01183488 -0.00252771
v -0.01951900 -0.01632539 -0.00436812
v -0.01805849 -0.01442068 -0.00020948
v -0.02168530 -0.00613721 -0.03943369
v -0.01859324 -0.01011584 -0.04151189
v -0.01880898 -0.00646515 -0.04363346
v -0.02188531 -0.00616672 -0.03318722
v -0.01938302 -0.01012690 -0.03635153
v -0.02174170 -0.00614002 -0.02674786
v -0.01924867 -0.01008026 -0.02980195
v -0.02169119 -0.00608761 -0.02056290
v -0.01916263 -0.00990029 -0.02339948
v -0.02186216 -0.00724559 -0.01415404
v -0.01914837 -0.01031051 -0.01755380
v -0.02272359 -0.00594003 -0.00829779
v -0.02212162 -0.00660401 -0.00339568
v -0.01892862 -0.00806091 -0.00010081
v -0.02146247 -0.00575304 0.02302156
v -0.01872911 -0.00919601 0.02161067
v -0.01973138 -0.00606421 0.01827685
v -0.02161325 -0.00635922 0.03014115
v -0.01909250 -0.01018006 0.02706096
v -0.02174351 -0.00623870 0.03665185
v -0.01914661 -0.01025536 0.03344456
v -0.02150084 -0.00530369 0.04277517
v -0.01918991 -0.00975488 0.03950450
v -0.01889118 -0.00770371 0.04428609
v -0.02220495 -0.00036625 -0.04060256
v -0.01817684 -0.00014119 -0.04362086
v -0.02279224 -0.00035065 -0.03465948
v -0.02260258 -0.00044787 -0.02817978
v -0.02251398 -0.00044508 -0.02188748
v -0.02255655 -0.00042816 -0.01552350
v -0.02271252 -0.00031566 -0.00904572
v -0.02202664 -0.00015293 -0.00338873
v -0.01880319 -0.00163801 -0.00033994
v -0.02171717 -0.00087937 0.01745718
v -0.01841248 -0.00421609 0.01506585
v -0.01862273 -0.00020395 0.01360592
v -0.02261234 0.00038752 0.02299387
v -0.02249626 -0.00058533 0.02861295
v -0.02256944 -0.00058680 0.03511886
v -0.02274833 -0.00045716 0.04163578
v -0.01994748 -0.00386746 0.04721734
v -0.02173225 0.00015210 0.04740905
v -0.01812943 -0.00122416 0.05027935
v -0.02154736 0.00476146 -0.04135791
v -0.01805109 0.00716746 -0.04359788
v -0.02207173 0.00539497 -0.03618043
v -0.02181032 0.00537613 -0.02959673
v -0.02168040 0.00524035 -0.02320921
v -0.02182959 0.00602021 -0.01597047
v -0.02272325 0.00618330 -0.00882270
v -0.02203827 0.00636286 -0.00308946
v -0.01865340 0.00478964 -0.00016022
v -0.02161307 0.00541975 0.01634833
v -0.01752561 0.00612867 0.01361362
v -0.02270477 0.00604798 0.02202393
v -0.02255019 0.00615078 0.02866559
v -0.02246256 0.00516874 0.03424165
v -0.02190518 0.00632682 0.04006490
v -0.02170226 0.00529999 0.04634212
v -0.01838024 0.00524132 0.05051384
v -0.01952239 0.00895245 -0.03931936
v -0.01928592 0.00938248 -0.03296815
v -0.01910567 0.00920999 -0.02649743
v -0.01907021 0.00913404 -0.02019855
v -0.01960844 0.01007739 -0.01481339
v -0.01921303 0.01234217 -0.01205062
v -0.02144620 0.01097629 -0.00983171
v -0.02167048 0.01199877 -0.00399213
v -0.01813136 0.01185197 -0.00011444
v -0.01991262 0.00955507 0.01658464
v -0.01895858 0.01342001 0.01945341
v -0.02151638 0.01098140 0.02100079
v -0.02178548 0.01194891 0.02727572
v -0.02138903 0.01135344 0.03431697
v -0.01961456 0.01155537 0.03901569
v -0.01938513 0.00959054 0.04370882
v -0.01866961 0.00921454 0.04829445
v -0.01861927 0.01514999 -0.00845827
v -0.01875354 0.01609731 -0.00217208
v -0.01932259 0.01551803 0.02416891
v -0.01925297 0.01594319 0.03029652
v -0.01871095 0.01484526 0.03563385
v -0.01603722 -0.01875957 -0.00835530
v -0.01077808 -0.02211845 -0.00930548
v -0.01313555 -0.01870147 -0.01268212
v -0.01617875 -0.01909855 -0.00224488
v -0.01279402 -0.02188256 -0.00363736
v -0.01252143 -0.01913619 -0.00012576
v -0.01529795 -0.01849308 0.02291706
v -0.01134301 -0.02194599 0.02268966
v -0.01321676 -0.01894321 0.01863160
v -0.01543137 -0.01909804 0.02993789
v -0.01232256 -0.02245678 0.02842199
v -0.01502733 -0.01831487 0.03602880
v -0.01227949 -0.02198925 0.03449580
v -0.01208453 -0.02027875 0.03868410
v -0.01571825 -0.01324527 -0.03944781
v -0.01204615 -0.01652134 -0.04151635
v -0.01324301 -0.01269560 -0.04387356
v -0.01602687 -0.01313391 -0.03313080
v -0.01286806 -0.01640577 -0.03635442
v -0.01588714 -0.01300653 -0.02655858
v -0.01279522 -0.01623848 -0.02980534
v -0.01581912 -0.01291913 -0.02025247
v -0.01264150 -0.01611256 -0.02332906
v -0.01588635 -0.01458586 -0.01468114
v -0.01266285 -0.01655020 -0.01732641
v -0.01304346 -0.01309461 0.00067750
v -0.01501018 -0.01446082 0.01704371
v -0.01107103 -0.01615645 0.01561481
v -0.01279989 -0.01189916 0.01388394
v -0.01678073 -0.01257565 0.02209296
v -0.01680929 -0.01413424 0.02850360
v -0.01681713 -0.01411606 0.03488339
v -0.01261966 -0.01732948 0.04186885
v -0.01612134 -0.01296698 0.04232429
v -0.01479251 -0.01182605 0.04822216
v -0.01293546 -0.01516033 0.04667095
v -0.01150871 -0.01330857 0.05004343
v -0.01251241 -0.00745666 -0.04380005
v -0.01274236 -0.00681545 0.00089555
v -0.01633485 -0.00881558 0.01659768
v -0.01306210 -0.00606664 0.01264182
v -0.01698087 -0.00707717 0.04775931
v -0.01298352 -0.00741227 0.05085450
v -0.01384352 -0.00356938 -0.04134517
v -0.01514193 -0.00015847 -0.04059203
v -0.01292967 -0.00357838 -0.03615889
v -0.01475624 -0.00050058 -0.03464900
v -0.01303284 -0.00357913 -0.02956697
v -0.01487634 -0.00043623 -0.02813904
v -0.01310498 -0.00356471 -0.02313525
v -0.01490364 -0.00044133 -0.02172670
v -0.01318193 -0.00365105 -0.01664228
v -0.01507423 -0.00047443 -0.01517378
v -0.01339208 -0.00327104 -0.01045540
v -0.01490553 0.00002816 -0.00992568
v -0.01152900 -0.00106753 -0.00668544
v -0.01360290 -0.00017703 0.00098086
v -0.01355732 0.00084383 0.01203966
v -0.01320979 -0.00020271 0.05143043
v -0.01297670 0.00291265 -0.03943025
v -0.01366414 0.00554275 -0.04381610
v -0.01305953 0.00262823 -0.03319450
v -0.01310539 0.00272699 -0.02674974
v -0.01317261 0.00269977 -0.02028041
v -0.01334627 0.00275798 -0.01366237
v -0.01257097 0.00292245 -0.00859906
v -0.01269717 0.00682116 0.00094748
v -0.01174674 0.00686674 0.01218298
v -0.01231183 0.00536995 0.05135871
v -0.01616243 0.01157140 -0.04140805
v -0.01232477 0.01279220 -0.04385662
v -0.01603561 0.01242034 -0.03619324
v -0.01584892 0.01235301 -0.02965127
v -0.01573016 0.01216380 -0.02327200
v -0.01652271 0.01255226 -0.01628819
v -0.01278694 0.01268617 0.00052624
v -0.01705282 0.01276998 0.01604771
v -0.01382476 0.01233963 0.01338130
v -0.01718002 0.01391398 0.04036057
v -0.01585742 0.01338963 0.04616231
v -0.01276349 0.01143321 0.05062034
v -0.01286723 0.01528556 -0.03945032
v -0.01275350 0.01559345 -0.03313671
v -0.01262549 0.01541020 -0.02663513
v -0.01260095 0.01532416 -0.02035338
v -0.01394684 0.01617581 -0.01430024
v -0.01541739 0.01843592 -0.00945480
v -0.01212077 0.01917909 -0.01292786
v -0.01606550 0.01922193 -0.00426805
v -0.01331571 0.01733018 -0.00023195
v -0.01500192 0.01763113 0.01554352
v -0.01133717 0.01826226 0.01356893
v -0.01621276 0.01808170 0.02038697
v -0.01617331 0.01908256 0.02696310
v -0.01609017 0.01832861 0.03422502
v -0.01501128 0.01807628 0.04097904
v -0.01341210 0.01805984 0.04530946
v -0.01209963 0.01624568 0.04862140
v -0.01188983 0.02130962 -0.00812965
v -0.01173065 0.02115971 -0.00253550
v -0.01240185 0.02119712 0.01735434
v -0.01227951 0.02147592 0.02338007
v -0.01219287 0.02139819 0.02981534
v -0.01220570 0.02142774 0.03635318
v -0.01146670 0.02113591 0.04255599
v -0.00948443 -0.01982817 -0.03959306
v -0.00483091 -0.02209045 -0.04077021
v -0.00772746 -0.01838149 -0.04374048
v -0.00984525 -0.01962591 -0.03337328
v -0.00596117 -0.02230669 -0.03489744
v -0.00967078 -0.01949912 -0.02690130
v -0.00587127 -0.02211475 -0.02845029
v -0.00963107 -0.01948049 -0.02050796
v -0.00580594 -0.02203669 -0.02209944
v -0.01049324 -0.02002265 -0.01510750
v -0.00637884 -0.02226164 -0.01495598
v -0.00528149 -0.02314005 -0.00807407
v -0.00776650 -0.02249902 -0.00314111
v -0.00638408 -0.01899009 -0.00001814
v -0.00524259 -0.02221281 0.02280891
v -0.00830462 -0.01980890 0.01882498
v -0.00663674 -0.02311581 0.02854953
v -0.00756317 -0.02313813 0.03412847
v -0.00924548 -0.01924146 0.04251459
v -0.00712257 -0.02158294 0.03958153
v -0.00543362 -0.01903153 0.04340462
v -0.00603140 -0.01402972 -0.04385021
v -0.00591564 -0.01307527 0.00092309
v -0.00497459 -0.01650568 0.01593197
v -0.00791859 -0.01226309 0.01274389
v -0.00724312 -0.01645358 0.04665695
v -0.00629745 -0.01259876 0.05066501
v -0.00701930 -0.00999219 -0.04150294
v -0.00987143 -0.00666497 -0.03932165
v -0.00615712 -0.00994795 -0.03633915
v -0.00951442 -0.00669035 -0.03297232
v -0.00625973 -0.01003343 -0.02982844
v -0.00964793 -0.00670324 -0.02646091
v -0.00632397 -0.01005231 -0.02342810
v -0.00966458 -0.00677046 -0.02005357
v -0.00633596 -0.01018817 -0.01688515
v -0.00984270 -0.00685105 -0.01350066
v -0.00658297 -0.00997692 -0.01057251
v -0.01009557 -0.00606117 -0.00848491
v -0.00609684 -0.00752560 -0.00646133
v -0.00604319 -0.00944825 0.00395706
v -0.00941228 -0.00549293 0.00455499
v -0.00885376 -0.00745958 0.00962702
v -0.00550520 -0.01004142 0.00888733
v -0.00657275 -0.00685537 0.05135186
v -0.00514688 -0.00081054 -0.00524946
v -0.01014129 0.00099783 0.00403009
v -0.01015131 -0.00218416 0.00892223
v -0.00669363 0.00029791 0.05034828
v -0.00961531 0.00658431 -0.04150421
v -0.00957116 0.00572288 -0.03634026
v -0.00965700 0.00582360 -0.02982844
v -0.00967588 0.00588778 -0.02342808
v -0.00981173 0.00589980 -0.01688515
v -0.00960048 0.00614682 -0.01057251
v -0.00714915 0.00566068 -0.00646133
v -0.00881493 0.00629591 0.00329141
v -0.00937969 0.00434566 0.00846226
v -0.00623421 0.00787983 0.05041248
v -0.00628820 0.00943670 -0.03932269
v -0.00707979 0.01207724 -0.04380171
v -0.00631391 0.00907827 -0.03297232
v -0.00632681 0.00921173 -0.02646089
v -0.00639402 0.00922842 -0.02005358
v -0.00647461 0.00940654 -0.01350066
v -0.00568473 0.00965942 -0.00848491
v -0.00785257 0.01219621 0.00092211
v -0.00480945 0.00892336 0.00471517
v -0.00676154 0.00838635 0.00991060
v -0.00730381 0.01232208 0.01223449
v -0.00654798 0.01269741 0.05137225
v -0.00973860 0.01815961 -0.04151790
v -0.00608822 0.01837476 -0.04363569
v -0.00974958 0.01895004 -0.03635709
v -0.00970260 0.01881047 -0.02981238
v -0.00956371 0.01866006 -0.02344554
v -0.01000278 0.01863765 -0.01756602
v -0.00642439 0.01840665 -0.00027924
v -0.00532364 0.01822529 0.01329985
v -0.01019306 0.01958399 0.04715562
v -0.00713775 0.01707923 0.05002694
v -0.00576068 0.02124966 -0.03943418
v -0.00578836 0.02145137 -0.03318549
v -0.00576350 0.02130222 -0.02674592
v -0.00576037 0.02120704 -0.02054398
v -0.00694907 0.02138121 -0.01408479
v -0.00584927 0.02227743 -0.00823650
v -0.00657312 0.02168321 -0.00339333
v -0.00688820 0.02154219 0.01621540
v -0.00671723 0.02216607 0.02188571
v -0.00652970 0.02201673 0.02830221
v -0.00655960 0.02211995 0.03473644
v -0.00744574 0.02227711 0.04030336
v -0.00584207 0.02094587 0.04587722
v 0.00126190 -0.02257550 -0.04057255
v -0.00044372 -0.01852841 -0.04370177
v -0.00024655 -0.02319828 -0.03472051
v -0.00022802 -0.02298609 -0.02817565
v -0.00016106 -0.02291631 -0.02190465
v 0.00000245 -0.02294536 -0.01563063
v 0.00026287 -0.02306608 -0.00904453
v -0.00126117 -0.02238386 -0.00321175
v 0.00011487 -0.01905935 -0.00021073
v 0.00131067 -0.02214096 0.02276306
v -0.00179807 -0.01966843 0.01897924
v -0.00007585 -0.02297692 0.02854680
v -0.00085938 -0.02232399 0.03588488
v -0.00258516 -0.01993043 0.04055601
v 0.00106505 -0.01992506 0.03952497
v -0.00032167 -0.01551285 -0.04061028
v -0.00334892 -0.01335343 -0.03942944
v 0.00006619 -0.01513309 -0.03464772
v -0.00306270 -0.01343623 -0.03319365
v 0.00000065 -0.01525285 -0.02813881
v -0.00316316 -0.01348183 -0.02674975
v 0.00000513 -0.01528008 -0.02172673
v -0.00313594 -0.01354905 -0.02028041
v 0.00003827 -0.01545067 -0.01517378
v -0.00319414 -0.01372271 -0.01366237
v -0.00046431 -0.01528198 -0.00992568
v -0.00335861 -0.01294741 -0.00859906
v 0.00063137 -0.01190544 -0.00668544
v 0.00129918 -0.01405222 0.00097284
v 0.00158797 -0.01633857 0.01594790
v -0.00142707 -0.01318246 0.01292579
v -0.00046223 -0.01761350 0.04339903
v -0.00070714 -0.01554779 0.04803264
v 0.00021817 -0.01262761 0.05051128
v 0.00037438 -0.00552332 -0.00524946
v -0.00021379 -0.01062162 0.00399256
v 0.00001718 -0.01062898 0.00889606
v 0.00020238 -0.00632359 0.05051930
v -0.00038543 -0.00262069 -0.00229111
v -0.00224425 -0.00005072 -0.00229111
v -0.00007080 -0.00228510 0.00372885
v -0.00190866 -0.00036535 0.00372885
v -0.00061241 -0.00190967 0.00937423
v -0.00153323 0.00017625 0.00937423
v -0.00002986 -0.00040630 0.01195553
v -0.00255591 -0.00105892 0.04780702
v -0.00055926 0.00080511 0.04573664
v 0.00067222 -0.00250186 0.04782492
v 0.00032572 0.00180809 -0.00229111
v -0.00043409 0.00471072 -0.00524946
v 0.00001109 0.00147250 0.00372885
v 0.00055269 0.00109707 0.00937423
v -0.00293999 0.00405151 0.04728617
v 0.00047115 0.00461847 0.04576265
v -0.00319274 0.01340827 -0.04134584
v -0.00320194 0.01249348 -0.03615886
v -0.00320270 0.01259660 -0.02956695
v -0.00318827 0.01266882 -0.02313525
v -0.00327461 0.01274577 -0.01664228
v -0.00289460 0.01295592 -0.01045540
v -0.00069109 0.01109284 -0.00668544
v -0.00129785 0.01318596 0.00100614
v 0.00170869 0.00974314 0.00413054
v -0.00148641 0.00971861 0.00914392
v -0.00032225 0.01316945 0.01218300
v -0.00086467 0.00797271 0.04786259
v 0.00000881 0.01259395 0.05022526
v 0.00021781 0.01470754 -0.04059228
v 0.00023518 0.01774338 -0.04362188
v -0.00012415 0.01432012 -0.03464900
v -0.00005978 0.01444011 -0.02813904
v -0.00006489 0.01446748 -0.02172670
v -0.00009799 0.01463807 -0.01517378
v 0.00040460 0.01446938 -0.00992568
v -0.00000133 0.01829200 -0.00031317
v 0.00113027 0.01834707 0.01346589
v -0.00273741 0.01804416 0.04838520
v -0.00088994 0.01938140 0.04604834
v 0.00090930 0.01709569 0.04838779
v 0.00001024 0.02176890 -0.04060255
v 0.00002712 0.02235503 -0.03465852
v -0.00006622 0.02216648 -0.02817770
v -0.00006736 0.02207915 -0.02188741
v -0.00007696 0.02210521 -0.01551551
v -0.00011905 0.02224706 -0.00902992
v -0.00009602 0.02157088 -0.00335187
v -0.00041683 0.02152046 0.01647349
v -0.00020493 0.02212027 0.02211396
v -0.00002055 0.02192784 0.02858299
v 0.00004354 0.02196968 0.03503299
v -0.00025899 0.02157422 0.04228560
v 0.00623735 -0.02189316 -0.03989787
v 0.00583111 -0.01921410 -0.04361576
v 0.00549084 -0.02239672 -0.03454833
v 0.00553403 -0.02219033 -0.02789327
v 0.00552419 -0.02213431 -0.02154801
v 0.00672796 -0.02227240 -0.01500930
v 0.00667738 -0.02310706 -0.00889328
v 0.00518445 -0.02241315 -0.00322437
v 0.00647916 -0.01916632 -0.00014960
v 0.00791386 -0.02238227 0.02274389
v 0.00478790 -0.01970491 0.01883257
v 0.00651856 -0.02311379 0.02846425
v 0.00653041 -0.02304507 0.03504887
v 0.00394539 -0.01913319 0.04220843
v 0.00555268 -0.02172442 0.03986777
v 0.00871734 -0.01976353 0.04436494
v 0.00307779 -0.01421332 -0.04136664
v 0.00692700 -0.01289022 -0.04380552
v 0.00314363 -0.01330623 -0.03615835
v 0.00314477 -0.01340949 -0.02956629
v 0.00312852 -0.01348141 -0.02313526
v 0.00321487 -0.01355837 -0.01664228
v 0.00283488 -0.01376852 -0.01045540
v 0.00776458 -0.01312054 0.00094407
v 0.00811400 -0.01643574 0.01571446
v 0.00593545 -0.01237420 0.01282742
v 0.00510395 -0.01654622 0.04700710
v 0.00654884 -0.01267507 0.05060699
v 0.00622828 -0.01024791 -0.03932099
v 0.00625718 -0.00989107 -0.03297156
v 0.00626710 -0.01002437 -0.02646091
v 0.00633425 -0.01004102 -0.02005359
v 0.00641489 -0.01021914 -0.01350066
v 0.00562501 -0.01047201 -0.00848491
v 0.00708944 -0.00647328 -0.00646133
v 0.00531077 -0.00988931 0.00404531
v 0.00600980 -0.00938980 0.00890693
v 0.00737009 -0.00800482 0.05137474
v 0.00218453 -0.00076188 -0.00229111
v 0.00508716 -0.00000206 -0.00524946
v 0.00184894 -0.00044724 0.00372885
v 0.00147351 -0.00098885 0.00937423
v 0.00278046 0.00137836 0.04727940
v 0.00602304 -0.00239181 0.05035423
v 0.00603713 0.00671300 -0.00646133
v 0.00237642 0.00654661 0.04783653
v 0.00646340 0.00521469 0.05035002
v 0.00328892 0.01254367 -0.03943044
v 0.00696065 0.00918002 -0.04150375
v 0.00591909 0.01322674 -0.04381621
v 0.00300467 0.01262344 -0.03319452
v 0.00609936 0.00913820 -0.03633990
v 0.00310343 0.01266915 -0.02674974
v 0.00620005 0.00922089 -0.02982844
v 0.00307621 0.01273646 -0.02028041
v 0.00626421 0.00923965 -0.02342809
v 0.00313442 0.01291011 -0.01366237
v 0.00627624 0.00937557 -0.01688515
v 0.00329889 0.01213481 -0.00859906
v 0.00652326 0.00916432 -0.01057251
v 0.00589859 0.01225379 0.00098337
v 0.00690331 0.00847674 0.00334923
v 0.00497430 0.00910510 0.00854108
v 0.00645073 0.01227138 0.01225447
v 0.00744827 0.01142493 0.05133207
v 0.00754339 0.01761761 -0.04359997
v 0.00654553 0.01813543 0.00003471
v 0.00766181 0.01835666 0.01325995
v 0.00280475 0.01933080 0.04708193
v 0.00619370 0.01702365 0.05033968
v 0.00513774 0.02111247 -0.04135814
v 0.00577305 0.02163393 -0.03617975
v 0.00575332 0.02137241 -0.02959874
v 0.00559046 0.02126722 -0.02322236
v 0.00630315 0.02143332 -0.01606272
v 0.00643676 0.02222194 -0.00893167
v 0.00650450 0.02153204 -0.00306795
v 0.00619986 0.02167360 0.01650673
v 0.00640382 0.02224084 0.02235034
v 0.00651211 0.02199490 0.02890468
v 0.00652563 0.02200355 0.03527908
v 0.00663850 0.02218781 0.04173838
v 0.00700732 0.02111163 0.04742357
v 0.00948389 -0.01901884 -0.04135265
v 0.00952176 -0.01982284 -0.03609057
v 0.00955733 -0.01966041 -0.02941146
v 0.00947878 -0.01955777 -0.02288494
v 0.00981870 -0.01953868 -0.01703474
v 0.01347247 -0.01896811 -0.01210119
v 0.01230104 -0.02193467 -0.00854606
v 0.01120261 -0.02208833 -0.00319329
v 0.01331054 -0.01801985 -0.00026959
v 0.01290096 -0.02187626 0.02352225
v 0.01102729 -0.01992344 0.01917943
v 0.01218955 -0.02245091 0.02863147
v 0.01229854 -0.02238227 0.03519576
v 0.01137680 -0.02192238 0.04088962
v 0.01331391 -0.01894075 0.04512091
v 0.01275724 -0.01610998 -0.03936192
v 0.01217874 -0.01363259 -0.04384365
v 0.01267642 -0.01640962 -0.03297859
v 0.01259836 -0.01626166 -0.02634931
v 0.01251295 -0.01618670 -0.01997771
v 0.01344945 -0.01621807 -0.01523906
v 0.01272004 -0.01352284 0.00049442
v 0.01300685 -0.01659513 0.01658235
v 0.01170011 -0.01317745 0.01399691
v 0.01126891 -0.01619354 0.04823935
v 0.01221273 -0.01143559 0.05035523
v 0.00955690 -0.00739564 -0.04150248
v 0.01359232 -0.00640776 -0.04385032
v 0.00951499 -0.00653360 -0.03633879
v 0.00959733 -0.00663617 -0.02982845
v 0.00961608 -0.00670041 -0.02342811
v 0.00975201 -0.00671240 -0.01688515
v 0.00954076 -0.00695942 -0.01057251
v 0.00885033 -0.00637361 0.00410758
v 0.01260283 -0.00763845 0.00093655
v 0.00951903 -0.00582122 0.00900061
v 0.01265763 -0.00746875 0.01279314
v 0.01326339 -0.00533332 0.05078501
v 0.01292041 -0.00372520 -0.03942964
v 0.01300014 -0.00343914 -0.03319367
v 0.01304559 -0.00353960 -0.02674976
v 0.01311289 -0.00351238 -0.02028041
v 0.01328656 -0.00357058 -0.01366237
v 0.01251125 -0.00373505 -0.00859906
v 0.01146928 0.00025493 -0.00668544
v 0.01009196 -0.00040800 0.00416344
v 0.01352948 -0.00052793 0.00102531
v 0.01021187 -0.00015828 0.00909522
v 0.01288895 -0.00106951 0.01204758
v 0.01205250 0.00025573 0.05131106
v 0.00981318 0.00585151 -0.03932203
v 0.01377807 0.00270114 -0.04136730
v 0.01245504 0.00655014 -0.04380718
v 0.00945491 0.00588074 -0.03297155
v 0.01287003 0.00276719 -0.03615833
v 0.00958817 0.00589067 -0.02646089
v 0.01297325 0.00276834 -0.02956626
v 0.00960486 0.00595781 -0.02005359
v 0.01304525 0.00275208 -0.02313526
v 0.00978298 0.00603845 -0.01350066
v 0.01312221 0.00283843 -0.01664228
v 0.01003586 0.00524857 -0.00848491
v 0.01333236 0.00245844 -0.01045540
v 0.00946007 0.00510226 0.00415512
v 0.01259391 0.00609883 0.00101028
v 0.00898362 0.00576435 0.00912812
v 0.01275460 0.00551543 0.01222887
v 0.01301341 0.00584756 0.05144597
v 0.01318177 0.01180795 -0.04382667
v 0.01303534 0.01234097 0.00077899
v 0.01307428 0.01215452 0.01310022
v 0.01295752 0.01307118 0.05083879
v 0.01194743 0.01572879 -0.04141252
v 0.00932919 0.01908898 -0.03932385
v 0.01279643 0.01560194 -0.03620023
v 0.00975814 0.01884878 -0.03297926
v 0.01270344 0.01544037 -0.02966750
v 0.00954059 0.01871187 -0.02652198
v 0.01248068 0.01541954 -0.02319395
v 0.00941112 0.01874192 -0.02019409
v 0.01366483 0.01550084 -0.01586303
v 0.01034452 0.01925531 -0.01492194
v 0.01361068 0.01845124 -0.01166880
v 0.01269976 0.01818901 -0.00009336
v 0.01272494 0.01769573 0.01370879
v 0.01163320 0.01910201 0.05012094
v 0.01128548 0.02103566 -0.01000449
v 0.01223506 0.02112423 -0.00407861
v 0.01137148 0.02100029 0.01555821
v 0.01215741 0.02152247 0.02071079
v 0.01222613 0.02132528 0.02742097
v 0.01213991 0.02131803 0.03387775
v 0.01219638 0.02145074 0.04022358
v 0.01228700 0.02120617 0.04633354
v 0.01575539 -0.01980250 -0.00839984
v 0.01601112 -0.01997979 -0.00432963
v 0.01508038 -0.01795380 0.02182933
v 0.01524665 -0.01920246 0.02868804
v 0.01539038 -0.01902473 0.03523999
v 0.01523116 -0.01898230 0.04145811
v 0.01608806 -0.01242170 -0.04152105
v 0.01597397 -0.01324305 -0.03636041
v 0.01580817 -0.01317047 -0.02981083
v 0.01573221 -0.01299742 -0.02329158
v 0.01615136 -0.01299487 -0.01726279
v 0.01769254 -0.01418000 -0.01258278
v 0.01890680 -0.01651970 -0.00760937
v 0.01879812 -0.01669413 -0.00236471
v 0.01813890 -0.01249548 -0.00026467
v 0.01503496 -0.01285918 0.01652595
v 0.01670753 -0.01223163 0.02100102
v 0.01664382 -0.01421269 0.02710595
v 0.01668866 -0.01411505 0.03359252
v 0.01674346 -0.01325647 0.04097645
v 0.01513870 -0.01445256 0.04675472
v 0.01939575 -0.00986000 -0.03959798
v 0.01794796 -0.00810337 -0.04374258
v 0.01918897 -0.01022293 -0.03338198
v 0.01906681 -0.01004694 -0.02691011
v 0.01910027 -0.00995796 -0.02049985
v 0.01964317 -0.01080223 -0.01511769
v 0.01862785 -0.00543683 -0.00020809
v 0.01688746 -0.00721404 0.01606989
v 0.01872802 -0.00793038 0.01923422
v 0.01900382 -0.00992231 0.02398399
v 0.01903292 -0.01024738 0.03006027
v 0.01908456 -0.00999916 0.03648386
v 0.01876982 -0.00901267 0.04197022
v 0.01647706 -0.00873404 0.04716245
v 0.01980880 -0.00589770 0.04526325
v 0.01507846 -0.00069795 -0.04061053
v 0.01809490 -0.00082006 -0.04370275
v 0.01469697 -0.00031024 -0.03464771
v 0.01481662 -0.00037579 -0.02813880
v 0.01484392 -0.00037131 -0.02172673
v 0.01501451 -0.00033817 -0.01517378
v 0.01484582 -0.00084076 -0.00992568
v 0.01866574 0.00105059 -0.00019604
v 0.01978017 -0.00421894 0.01635517
v 0.01747295 -0.00068408 0.01354459
v 0.01858480 -0.00411233 0.04867477
v 0.01816379 0.00046266 0.05051500
v 0.01877977 0.00545427 -0.04361793
v 0.01877349 0.00745192 0.00005198
v 0.01858212 0.00551810 0.01352424
v 0.01796132 0.00701759 0.05033965
v 0.01858525 0.00910660 -0.04135854
v 0.01567837 0.01237797 -0.03936430
v 0.01939109 0.00914222 -0.03609684
v 0.01597453 0.01229616 -0.03298789
v 0.01922079 0.00918222 -0.02942364
v 0.01574531 0.01227257 -0.02641676
v 0.01904637 0.00919742 -0.02288009
v 0.01566139 0.01225392 -0.01998689
v 0.01903066 0.00953794 -0.01691209
v 0.01629089 0.01223791 -0.01562147
v 0.01871090 0.01201706 -0.01270922
v 0.01812789 0.01361501 -0.00013338
v 0.01845568 0.00948796 0.01501267
v 0.01639623 0.01434318 0.01661863
v 0.01979918 0.01131630 0.01838281
v 0.01693495 0.01278961 0.04784853
v 0.01884484 0.01345247 0.04446903
v 0.01981273 0.00965590 0.04736460
v 0.01776675 0.01572206 -0.00957473
v 0.01581820 0.01901612 -0.00683742
v 0.01958993 0.01541842 -0.00411010
v 0.01641230 0.01815011 -0.00211925
v 0.01473507 0.01903700 0.01703294
v 0.01887392 0.01464585 0.02180604
v 0.01616235 0.01828686 0.02305288
v 0.01926739 0.01570435 0.02737624
v 0.01611523 0.01894419 0.03053034
v 0.01925663 0.01588759 0.03378137
v 0.01608859 0.01900908 0.03686567
v 0.01920283 0.01549958 0.03979769
v 0.01613043 0.01800452 0.04335753
v 0.01485183 0.01764657 0.04827998
v 0.02174977 -0.01119911 -0.00934886
v 0.02156964 -0.01334117 -0.00377079
v 0.02165539 -0.00520725 -0.04077048
v 0.02187087 -0.00633956 -0.03489877
v 0.02167648 -0.00625093 -0.02845407
v 0.02160016 -0.00617176 -0.02210444
v 0.02184689 -0.00671987 -0.01497736
v 0.02272314 -0.00582385 -0.00810588
v 0.02209486 -0.00837305 -0.00326933
v 0.02142905 -0.00526131 0.02151708
v 0.02152972 -0.00634168 0.02838432
v 0.02162230 -0.00614698 0.03491857
v 0.02136107 -0.00598915 0.04105278
v 0.02213959 0.00088523 -0.04057255
v 0.02276379 -0.00062639 -0.03472199
v 0.02254989 -0.00060314 -0.02817725
v 0.02247524 -0.00050357 -0.02188097
v 0.02250462 -0.00034625 -0.01560864
v 0.02262632 -0.00029341 -0.00904881
v 0.02196518 -0.00195775 -0.00325107
v 0.02170179 0.00032830 0.01672292
v 0.02256970 0.00010265 0.02275023
v 0.02240688 -0.00066861 0.02841023
v 0.02248481 -0.00040973 0.03501316
v 0.02264138 -0.00034732 0.04158309
v 0.02159281 -0.00155309 0.04663364
v 0.02145763 0.00586062 -0.03989842
v 0.02196354 0.00511065 -0.03454863
v 0.02175264 0.00516173 -0.02789336
v 0.02166925 0.00523317 -0.02148612
v 0.02185696 0.00640819 -0.01482563
v 0.02269029 0.00618136 -0.00880345
v 0.02198302 0.00451770 -0.00319242
v 0.02155652 0.00685547 0.01702698
v 0.02262720 0.00578291 0.02207907
v 0.02248465 0.00590887 0.02865682
v 0.02240787 0.00616266 0.03526016
v 0.02257203 0.00534176 0.04092149
v 0.02170927 0.00503801 0.04700827
v 0.02151201 0.01180165 -0.00832425
v 0.02171269 0.01061632 -0.00303275
v 0.02141646 0.01152639 0.02261017
v 0.02171179 0.01173836 0.02875476
v 0.02162182 0.01190167 0.03527598
v 0.02147785 0.01071203 0.04212846
f 3 2 1
f 5 4 1
f 5 1 2
f 6 4 5
f 9 8 7
f 11 10 7
f 11 7 8
f 13 12 10
f 13 10 11
f 15 14 12
f 15 12 13
f 17 16 14
f 17 14 15
f 16 17 3
f 1 16 3
f 18 16 1
f 19 1 4
f 18 1 19
f 4 6 20
f 4 20 19
f 23 22 21
f 25 24 21
f 25 21 22
f 27 26 24
f 27 24 25
f 29 28 26
f 29 26 27
f 30 28 29
f 9 7 31
f 9 31 32
f 33 7 10
f 31 7 33
f 34 10 12
f 33 10 34
f 35 12 14
f 34 12 35
f 36 14 16
f 35 14 36
f 37 16 18
f 36 16 37
f 38 18 19
f 37 18 38
f 19 20 39
f 19 39 38
f 42 41 40
f 40 41 23
f 21 40 23
f 43 40 21
f 44 21 24
f 43 21 44
f 45 24 26
f 44 24 45
f 46 26 28
f 45 26 46
f 28 30 47
f 48 28 47
f 46 28 48
f 49 48 47
f 32 31 50
f 32 50 51
f 52 31 33
f 50 31 52
f 53 33 34
f 52 33 53
f 54 34 35
f 53 34 54
f 55 35 36
f 54 35 55
f 56 36 37
f 55 36 56
f 57 37 38
f 56 37 57
f 38 39 58
f 38 58 57
f 42 40 59
f 42 59 60
f 61 40 43
f 59 40 61
f 62 43 44
f 61 43 62
f 63 44 45
f 62 44 63
f 64 45 46
f 63 45 64
f 65 46 48
f 64 46 65
f 48 49 66
f 48 66 65
f 67 51 50
f 67 50 52
f 67 52 68
f 68 52 53
f 68 53 69
f 69 53 54
f 69 54 70
f 70 54 55
f 70 55 71
f 73 72 71
f 55 73 71
f 56 73 55
f 74 56 57
f 73 56 74
f 57 58 75
f 57 75 74
f 76 60 59
f 78 77 76
f 59 78 76
f 61 78 59
f 79 61 62
f 78 61 79
f 80 62 63
f 79 62 80
f 64 82 81
f 80 64 81
f 63 64 80
f 82 64 65
f 82 65 83
f 83 65 66
f 84 72 73
f 84 73 74
f 84 74 85
f 85 74 75
f 86 77 78
f 86 78 79
f 86 79 87
f 87 79 80
f 87 80 88
f 88 80 81
f 91 90 89
f 93 92 89
f 93 89 90
f 94 92 93
f 97 96 95
f 99 98 95
f 99 95 96
f 101 100 98
f 101 98 99
f 102 100 101
f 105 104 103
f 107 106 103
f 107 103 104
f 109 108 106
f 109 106 107
f 111 110 108
f 111 108 109
f 113 112 110
f 113 110 111
f 112 113 91
f 112 91 89
f 3 112 89
f 2 3 89
f 2 89 5
f 5 89 92
f 6 5 92
f 94 6 92
f 114 6 94
f 117 116 115
f 115 116 97
f 95 115 97
f 118 115 95
f 119 95 98
f 118 95 119
f 120 98 100
f 119 98 120
f 100 102 121
f 122 100 121
f 120 100 122
f 124 123 122
f 124 122 121
f 125 123 124
f 105 103 8
f 9 105 8
f 126 105 9
f 8 103 11
f 11 103 106
f 11 106 13
f 13 106 108
f 13 108 15
f 15 108 110
f 15 110 17
f 17 110 112
f 17 112 3
f 114 20 6
f 127 20 114
f 117 115 128
f 117 128 129
f 23 128 22
f 128 118 22
f 128 115 118
f 22 118 25
f 25 118 119
f 25 119 27
f 27 119 120
f 27 120 29
f 29 120 122
f 29 122 30
f 122 130 30
f 122 123 130
f 123 125 131
f 123 131 130
f 32 133 132
f 126 32 132
f 9 32 126
f 135 134 133
f 133 134 132
f 137 136 135
f 135 136 134
f 139 138 137
f 137 138 136
f 141 140 139
f 139 140 138
f 143 142 141
f 141 142 140
f 143 144 142
f 127 39 20
f 145 39 127
f 129 128 41
f 42 129 41
f 146 129 42
f 41 128 23
f 130 47 30
f 49 47 130
f 131 49 130
f 147 49 131
f 149 148 133
f 32 149 133
f 51 149 32
f 133 148 135
f 135 148 150
f 135 150 137
f 137 150 151
f 137 151 139
f 139 151 152
f 139 152 141
f 141 152 153
f 141 153 143
f 143 153 154
f 143 154 144
f 145 58 39
f 155 58 145
f 60 146 42
f 60 156 146
f 147 66 49
f 157 66 147
f 51 67 158
f 159 51 158
f 149 51 159
f 68 160 67
f 67 160 158
f 69 161 68
f 68 161 160
f 70 162 69
f 69 162 161
f 71 163 70
f 70 163 162
f 72 163 71
f 155 75 58
f 164 75 155
f 60 76 165
f 166 60 165
f 156 60 166
f 77 165 76
f 167 81 82
f 83 168 82
f 82 168 167
f 169 168 83
f 66 169 83
f 157 169 66
f 170 159 158
f 170 158 160
f 170 160 171
f 171 160 161
f 171 161 172
f 172 161 162
f 172 162 173
f 173 162 163
f 173 163 174
f 176 174 175
f 175 174 84
f 174 163 84
f 163 72 84
f 85 177 84
f 84 177 175
f 178 177 85
f 75 178 85
f 164 178 75
f 166 165 179
f 166 179 180
f 86 181 77
f 181 165 77
f 181 179 165
f 87 182 86
f 86 182 181
f 88 183 87
f 87 183 182
f 81 167 88
f 167 183 88
f 167 184 183
f 168 186 185
f 184 168 185
f 167 168 184
f 186 168 169
f 187 176 175
f 187 175 177
f 187 177 188
f 188 177 178
f 189 180 179
f 189 179 181
f 189 181 190
f 190 181 182
f 190 182 191
f 191 182 183
f 191 183 192
f 192 183 184
f 192 184 193
f 193 184 185
f 196 195 194
f 198 197 194
f 198 194 195
f 200 199 197
f 200 197 198
f 202 201 199
f 202 199 200
f 204 203 201
f 204 201 202
f 90 91 203
f 204 90 203
f 205 90 204
f 90 206 93
f 205 206 90
f 94 93 206
f 94 206 207
f 209 208 96
f 209 96 97
f 96 210 99
f 208 210 96
f 99 211 101
f 210 211 99
f 213 212 102
f 101 213 102
f 211 213 101
f 214 212 213
f 196 194 104
f 105 196 104
f 215 196 105
f 104 194 107
f 107 194 197
f 107 197 109
f 109 197 199
f 109 199 111
f 111 199 201
f 111 201 113
f 113 201 203
f 113 203 91
f 207 114 94
f 216 114 207
f 218 217 116
f 218 116 117
f 97 116 209
f 209 116 217
f 212 121 102
f 214 219 212
f 219 121 212
f 219 124 121
f 125 124 219
f 125 219 220
f 126 222 221
f 215 126 221
f 105 126 215
f 224 223 222
f 222 223 221
f 226 225 224
f 224 225 223
f 228 227 226
f 226 227 225
f 230 229 228
f 228 229 227
f 232 231 230
f 230 231 229
f 232 233 231
f 235 127 234
f 127 216 234
f 127 114 216
f 237 236 235
f 237 235 234
f 237 218 236
f 218 129 236
f 218 117 129
f 220 131 125
f 238 131 220
f 132 222 126
f 222 132 134
f 222 134 224
f 224 134 136
f 224 136 226
f 226 136 138
f 226 138 228
f 228 138 140
f 228 140 230
f 230 140 142
f 230 142 232
f 142 144 232
f 144 233 232
f 144 239 233
f 240 145 235
f 235 145 127
f 241 235 236
f 240 235 241
f 146 241 129
f 129 241 236
f 238 147 131
f 242 147 238
f 149 243 148
f 244 150 148
f 244 148 243
f 245 151 150
f 245 150 244
f 246 152 151
f 246 151 245
f 247 153 152
f 247 152 246
f 248 154 153
f 248 153 247
f 248 249 154
f 249 144 154
f 249 239 144
f 250 155 240
f 240 155 145
f 251 240 241
f 250 240 251
f 156 251 146
f 146 251 241
f 242 157 147
f 252 157 242
f 254 253 243
f 149 254 243
f 159 254 149
f 243 253 244
f 244 253 255
f 244 255 245
f 245 255 256
f 245 256 246
f 246 256 257
f 246 257 247
f 247 257 258
f 247 258 248
f 248 258 259
f 248 259 249
f 261 260 250
f 260 155 250
f 260 164 155
f 261 250 251
f 261 251 262
f 251 156 262
f 156 263 262
f 156 166 263
f 252 169 157
f 264 169 252
f 159 170 265
f 266 159 265
f 254 159 266
f 171 267 170
f 170 267 265
f 172 268 171
f 171 268 267
f 173 269 172
f 172 269 268
f 174 270 173
f 173 270 269
f 176 270 174
f 260 178 164
f 271 178 260
f 180 263 166
f 180 272 263
f 273 185 186
f 274 273 186
f 169 274 186
f 264 274 169
f 275 266 265
f 275 265 267
f 275 267 276
f 276 267 268
f 276 268 277
f 277 268 269
f 277 269 278
f 278 269 270
f 278 270 279
f 279 270 176
f 187 279 176
f 280 279 187
f 281 187 188
f 281 280 187
f 188 178 271
f 188 271 281
f 282 272 180
f 282 180 189
f 283 189 190
f 283 282 189
f 284 190 191
f 284 283 190
f 285 191 192
f 285 284 191
f 286 192 193
f 286 285 192
f 193 185 273
f 287 193 273
f 286 193 287
f 287 273 274
f 289 288 195
f 289 195 196
f 195 290 198
f 288 290 195
f 198 291 200
f 290 291 198
f 200 292 202
f 291 292 200
f 202 293 204
f 292 293 202
f 204 294 205
f 293 294 204
f 205 295 206
f 294 295 205
f 207 206 295
f 207 295 296
f 298 297 208
f 298 208 209
f 208 299 210
f 297 299 208
f 210 300 211
f 299 300 210
f 300 302 301
f 213 300 301
f 211 300 213
f 301 214 213
f 215 304 303
f 289 215 303
f 196 215 289
f 306 305 304
f 304 305 303
f 308 307 306
f 306 307 305
f 310 309 308
f 308 309 307
f 312 311 310
f 310 311 309
f 314 313 312
f 312 313 311
f 314 315 313
f 296 216 207
f 316 216 296
f 318 317 217
f 318 217 218
f 209 217 298
f 298 217 317
f 302 319 301
f 301 319 214
f 319 219 214
f 319 320 219
f 220 219 320
f 220 320 321
f 221 304 215
f 304 221 223
f 304 223 306
f 306 223 225
f 306 225 308
f 308 225 227
f 308 227 310
f 310 227 229
f 310 229 312
f 312 229 231
f 312 231 314
f 231 233 314
f 233 315 314
f 233 322 315
f 316 323 216
f 216 323 234
f 234 324 237
f 323 324 234
f 218 237 318
f 318 237 324
f 321 238 220
f 325 238 321
f 239 327 326
f 322 239 326
f 233 239 322
f 329 328 327
f 327 328 326
f 331 330 329
f 329 330 328
f 331 332 330
f 335 334 333
f 325 335 333
f 242 325 333
f 238 325 242
f 337 336 327
f 239 337 327
f 249 337 239
f 327 336 329
f 329 336 338
f 329 338 331
f 331 338 339
f 331 339 332
f 333 334 340
f 340 334 341
f 340 252 242
f 340 242 333
f 254 342 253
f 343 255 253
f 343 253 342
f 344 256 255
f 344 255 343
f 345 257 256
f 345 256 344
f 346 258 257
f 346 257 345
f 347 259 258
f 347 258 346
f 347 348 259
f 348 249 259
f 348 337 249
f 350 349 261
f 261 349 260
f 351 261 262
f 351 350 261
f 262 263 351
f 351 263 352
f 341 353 340
f 252 340 353
f 354 252 353
f 264 252 354
f 356 355 342
f 254 356 342
f 266 356 254
f 342 355 343
f 343 355 357
f 343 357 344
f 344 357 358
f 344 358 345
f 345 358 359
f 345 359 346
f 346 359 360
f 346 360 347
f 347 360 361
f 347 361 348
f 349 271 260
f 362 271 349
f 272 352 263
f 272 363 352
f 366 365 364
f 354 366 364
f 274 354 364
f 264 354 274
f 367 356 266
f 367 266 275
f 368 275 276
f 368 367 275
f 369 276 277
f 369 368 276
f 370 277 278
f 370 369 277
f 371 278 279
f 371 370 278
f 372 279 280
f 372 371 279
f 373 280 281
f 373 372 280
f 281 271 362
f 281 362 373
f 374 363 272
f 374 272 282
f 375 282 283
f 375 374 282
f 376 283 284
f 376 375 283
f 377 284 285
f 377 376 284
f 378 285 286
f 378 377 285
f 287 364 365
f 378 287 365
f 286 287 378
f 364 287 274
f 380 379 288
f 380 288 289
f 288 381 290
f 379 381 288
f 290 382 291
f 381 382 290
f 291 383 292
f 382 383 291
f 292 384 293
f 383 384 292
f 293 385 294
f 384 385 293
f 294 386 295
f 385 386 294
f 296 295 386
f 296 386 387
f 389 388 297
f 389 297 298
f 297 390 299
f 388 390 297
f 299 391 300
f 390 391 299
f 393 392 302
f 300 393 302
f 391 393 300
f 394 392 393
f 289 303 395
f 396 289 395
f 380 289 396
f 305 397 303
f 303 397 395
f 307 398 305
f 305 398 397
f 309 399 307
f 307 399 398
f 311 400 309
f 309 400 399
f 313 401 311
f 311 401 400
f 315 401 313
f 387 316 296
f 402 316 387
f 404 403 317
f 404 317 318
f 298 317 389
f 389 317 403
f 392 319 302
f 394 405 392
f 405 319 392
f 405 320 319
f 321 320 405
f 321 405 406
f 407 396 395
f 407 395 397
f 407 397 408
f 408 397 398
f 408 398 409
f 409 398 399
f 409 399 410
f 410 399 400
f 410 400 411
f 411 400 401
f 411 401 412
f 401 315 412
f 315 413 412
f 315 322 413
f 402 414 316
f 316 414 323
f 323 415 324
f 414 415 323
f 318 324 404
f 404 324 415
f 406 325 321
f 416 325 406
f 322 326 417
f 418 322 417
f 413 322 418
f 328 419 326
f 326 419 417
f 330 420 328
f 328 420 419
f 332 420 330
f 421 334 335
f 422 421 335
f 325 422 335
f 416 422 325
f 418 417 336
f 337 418 336
f 423 418 337
f 336 417 338
f 338 417 419
f 338 419 339
f 339 419 420
f 339 420 332
f 424 341 421
f 421 341 334
f 421 422 425
f 421 425 424
f 428 427 426
f 430 429 426
f 430 426 427
f 432 431 429
f 432 429 430
f 434 433 431
f 434 431 432
f 436 435 433
f 436 433 434
f 438 437 435
f 438 435 436
f 438 423 437
f 423 348 437
f 423 337 348
f 440 439 350
f 350 439 349
f 441 350 351
f 441 440 350
f 351 352 441
f 441 352 442
f 424 353 341
f 354 353 424
f 425 354 424
f 443 354 425
f 428 426 355
f 356 428 355
f 444 428 356
f 355 426 357
f 357 426 429
f 357 429 358
f 358 429 431
f 358 431 359
f 359 431 433
f 359 433 360
f 360 433 435
f 360 435 361
f 361 435 437
f 361 437 348
f 439 362 349
f 445 362 439
f 363 442 352
f 363 446 442
f 447 365 366
f 448 447 366
f 354 448 366
f 443 448 354
f 449 444 356
f 449 356 367
f 450 367 368
f 450 449 367
f 451 368 369
f 451 450 368
f 452 369 370
f 452 451 369
f 453 370 371
f 453 452 370
f 454 371 372
f 454 453 371
f 455 372 373
f 455 454 372
f 373 362 445
f 373 445 455
f 456 446 363
f 456 363 374
f 457 374 375
f 457 456 374
f 458 375 376
f 458 457 375
f 459 376 377
f 459 458 376
f 460 377 378
f 460 459 377
f 378 365 447
f 461 378 447
f 460 378 461
f 461 447 448
f 380 462 379
f 463 381 379
f 463 379 462
f 464 382 381
f 464 381 463
f 465 383 382
f 465 382 464
f 466 384 383
f 466 383 465
f 384 466 467
f 468 384 467
f 385 384 468
f 385 469 386
f 468 469 385
f 387 386 469
f 387 469 470
f 472 471 388
f 472 388 389
f 388 473 390
f 471 473 388
f 390 474 391
f 473 474 390
f 391 475 393
f 474 475 391
f 394 393 475
f 394 475 476
f 478 477 462
f 380 478 462
f 396 478 380
f 462 477 463
f 463 477 479
f 463 479 464
f 464 479 480
f 464 480 465
f 465 480 481
f 465 481 466
f 466 481 482
f 466 482 467
f 470 402 387
f 483 402 470
f 485 484 403
f 485 403 404
f 389 403 472
f 472 403 484
f 476 486 394
f 394 486 405
f 406 405 486
f 406 486 487
f 396 407 488
f 489 396 488
f 478 396 489
f 408 490 407
f 407 490 488
f 409 491 408
f 408 491 490
f 410 492 409
f 409 492 491
f 411 493 410
f 410 493 492
f 412 494 411
f 411 494 493
f 413 494 412
f 414 402 495
f 402 496 495
f 402 483 496
f 497 415 414
f 497 414 495
f 497 498 415
f 498 404 415
f 498 485 404
f 487 416 406
f 499 416 487
f 500 489 488
f 500 488 490
f 500 490 501
f 501 490 491
f 501 491 502
f 502 491 492
f 502 492 503
f 503 492 493
f 503 493 504
f 504 493 494
f 504 494 505
f 494 413 505
f 413 506 505
f 413 418 506
f 495 496 507
f 507 496 508
f 495 509 497
f 495 507 509
f 498 497 510
f 510 497 509
f 499 422 416
f 511 422 499
f 514 513 512
f 516 515 512
f 516 512 513
f 518 517 515
f 518 515 516
f 520 519 517
f 520 517 518
f 522 521 519
f 522 519 520
f 524 523 521
f 524 521 522
f 524 506 523
f 506 423 523
f 506 418 423
f 507 508 525
f 525 508 526
f 507 527 509
f 507 525 527
f 510 509 528
f 528 509 527
f 511 425 422
f 529 425 511
f 514 512 427
f 428 514 427
f 530 514 428
f 427 512 430
f 430 512 515
f 430 515 432
f 432 515 517
f 432 517 434
f 434 517 519
f 434 519 436
f 436 519 521
f 436 521 438
f 438 521 523
f 438 523 423
f 525 526 440
f 526 439 440
f 526 531 439
f 525 440 441
f 525 441 527
f 441 442 527
f 442 528 527
f 442 532 528
f 529 443 425
f 533 443 529
f 444 535 534
f 530 444 534
f 428 444 530
f 537 536 535
f 535 536 534
f 539 538 537
f 537 538 536
f 541 540 539
f 539 540 538
f 543 542 541
f 541 542 540
f 543 544 542
f 531 445 439
f 545 445 531
f 446 532 442
f 446 546 532
f 533 448 443
f 547 448 533
f 449 535 444
f 535 449 450
f 535 450 537
f 537 450 451
f 537 451 539
f 539 451 452
f 539 452 541
f 541 452 453
f 541 453 543
f 548 544 543
f 453 548 543
f 454 548 453
f 549 454 455
f 549 548 454
f 455 445 545
f 455 545 549
f 550 546 446
f 550 446 456
f 551 456 457
f 551 550 456
f 552 457 458
f 552 551 457
f 553 458 459
f 553 552 458
f 554 459 460
f 554 553 459
f 555 460 461
f 555 554 460
f 461 448 547
f 461 547 555
f 467 556 468
f 557 469 468
f 557 468 556
f 557 470 469
f 472 558 471
f 559 473 471
f 559 471 558
f 560 474 473
f 560 473 559
f 561 475 474
f 561 474 560
f 561 476 475
f 478 562 477
f 563 479 477
f 563 477 562
f 564 480 479
f 564 479 563
f 565 481 480
f 565 480 564
f 566 482 481
f 566 481 565
f 566 567 482
f 482 567 467
f 567 568 467
f 568 556 467
f 556 568 557
f 557 568 569
f 470 557 569
f 570 470 569
f 483 470 570
f 485 571 484
f 558 472 484
f 571 558 484
f 572 558 571
f 558 573 559
f 558 572 573
f 559 574 560
f 559 573 574
f 560 575 561
f 560 574 575
f 576 486 476
f 561 576 476
f 575 576 561
f 576 487 486
f 578 577 562
f 478 578 562
f 489 578 478
f 562 577 563
f 563 577 579
f 563 579 564
f 564 579 580
f 564 580 565
f 565 580 581
f 565 581 566
f 566 581 582
f 566 582 567
f 570 496 483
f 583 496 570
f 498 584 571
f 498 571 485
f 586 572 585
f 572 584 585
f 572 571 584
f 572 586 573
f 573 586 587
f 573 587 574
f 574 587 588
f 574 588 575
f 575 588 589
f 591 590 589
f 590 575 589
f 590 576 575
f 590 499 487
f 590 487 576
f 489 500 592
f 593 489 592
f 578 489 593
f 501 594 500
f 500 594 592
f 502 595 501
f 501 595 594
f 503 596 502
f 502 596 595
f 504 597 503
f 503 597 596
f 505 598 504
f 504 598 597
f 506 598 505
f 583 508 496
f 599 508 583
f 601 600 584
f 498 601 584
f 510 601 498
f 584 600 585
f 591 602 590
f 499 590 602
f 603 499 602
f 511 499 603
f 593 592 513
f 514 593 513
f 604 593 514
f 513 592 516
f 516 592 594
f 516 594 518
f 518 594 595
f 518 595 520
f 520 595 596
f 520 596 522
f 522 596 597
f 522 597 524
f 524 597 598
f 524 598 506
f 599 526 508
f 605 526 599
f 528 601 510
f 528 606 601
f 603 529 511
f 607 529 603
f 530 609 608
f 604 530 608
f 514 530 604
f 611 610 609
f 609 610 608
f 613 612 611
f 611 612 610
f 615 614 613
f 613 614 612
f 617 616 615
f 615 616 614
f 617 618 616
f 605 531 526
f 619 531 605
f 532 621 620
f 606 532 620
f 528 532 606
f 621 622 620
f 625 624 623
f 607 625 623
f 533 607 623
f 529 607 533
f 534 609 530
f 609 534 536
f 609 536 611
f 611 536 538
f 611 538 613
f 613 538 540
f 613 540 615
f 615 540 542
f 615 542 617
f 627 626 544
f 544 626 542
f 626 618 542
f 618 617 542
f 629 628 627
f 627 628 626
f 619 628 629
f 545 619 629
f 531 619 545
f 546 630 621
f 546 621 532
f 622 621 631
f 621 632 631
f 621 630 632
f 634 633 632
f 632 633 631
f 636 635 634
f 634 635 633
f 638 637 636
f 636 637 635
f 637 638 624
f 638 623 624
f 638 639 623
f 639 547 533
f 639 533 623
f 548 627 544
f 627 548 549
f 627 549 629
f 629 549 545
f 550 630 546
f 630 550 551
f 630 551 632
f 632 551 552
f 632 552 634
f 634 552 553
f 634 553 636
f 636 553 554
f 636 554 638
f 638 554 555
f 638 555 639
f 639 555 547
f 567 640 568
f 641 569 568
f 641 568 640
f 641 570 569
f 578 642 577
f 643 579 577
f 643 577 642
f 644 580 579
f 644 579 643
f 645 581 580
f 645 580 644
f 646 582 581
f 646 581 645
f 640 567 582
f 646 640 582
f 647 640 646
f 640 648 641
f 640 647 648
f 648 583 570
f 648 570 641
f 585 649 586
f 650 587 586
f 650 586 649
f 651 588 587
f 651 587 650
f 652 589 588
f 652 588 651
f 652 591 589
f 593 653 642
f 593 642 578
f 642 654 643
f 642 653 654
f 643 655 644
f 643 654 655
f 644 656 645
f 644 655 656
f 645 657 646
f 645 656 657
f 646 658 647
f 646 657 658
f 647 659 648
f 647 658 659
f 659 599 583
f 659 583 648
f 601 660 600
f 649 585 600
f 660 649 600
f 661 649 660
f 649 662 650
f 649 661 662
f 650 663 651
f 650 662 663
f 651 664 652
f 651 663 664
f 665 602 591
f 652 665 591
f 664 665 652
f 665 603 602
f 604 666 653
f 604 653 593
f 653 667 654
f 653 666 667
f 654 668 655
f 654 667 668
f 655 669 656
f 655 668 669
f 656 670 657
f 656 669 670
f 657 671 658
f 657 670 671
f 658 672 659
f 658 671 672
f 672 605 599
f 672 599 659
f 606 673 660
f 606 660 601
f 660 674 661
f 660 673 674
f 661 675 662
f 661 674 675
f 662 676 663
f 662 675 676
f 663 677 664
f 663 676 677
f 664 678 665
f 664 677 678
f 678 607 603
f 678 603 665
f 608 666 604
f 666 608 610
f 666 610 667
f 667 610 612
f 667 612 668
f 668 612 614
f 668 614 669
f 669 614 616
f 669 616 670
f 670 616 618
f 679 670 618
f 671 670 679
f 671 680 672
f 671 679 680
f 680 619 605
f 680 605 672
f 620 673 606
f 673 620 622
f 681 673 622
f 674 673 681
f 674 682 675
f 674 681 682
f 675 683 676
f 675 682 683
f 676 684 677
f 676 683 684
f 684 624 625
f 678 684 625
f 677 684 678
f 678 625 607
f 626 679 618
f 679 626 628
f 679 628 680
f 680 628 619
f 631 681 622
f 681 631 633
f 681 633 682
f 682 633 635
f 682 635 683
f 683 635 637
f 683 637 684
f 684 637 624

