# https://github.com/mikedh/trimesh
v -0.02182667 -0.00980814 0.00481281
v -0.02018709 -0.01241080 0.00377476
v -0.01994687 -0.00945015 0.00135373
v -0.02212208 -0.00971324 0.00961573
v -0.02015607 -0.01290843 0.00729373
v -0.02174113 -0.00897532 0.01455449
v -0.02007678 -0.01243646 0.01212056
v -0.01965610 -0.01081462 0.01578043
v -0.02174418 -0.00399923 -0.05100607
v -0.01895779 -0.00758182 -0.05086768
v -0.01999839 -0.00466961 -0.05317173
v -0.01980756 -0.00507043 -0.04863963
v -0.02209958 -0.00523686 0.00394919
v -0.02017804 -0.00398562 0.00090415
v -0.02271507 -0.00524406 0.00848817
v -0.02275056 -0.00514255 0.01375374
v -0.02039522 -0.00829860 0.01839508
v -0.02220345 -0.00496794 0.01943977
v -0.02153721 -0.00386154 0.02400758
v -0.02005357 -0.00725502 0.02233119
v -0.01963515 -0.00540741 0.02562797
v -0.02211857 0.00004148 -0.05145798
v -0.02004879 -0.00002721 -0.05350127
v -0.02062493 -0.00116992 -0.04863661
v -0.02211611 -0.00007631 0.00421468
v -0.02016088 0.00110017 0.00109775
v -0.02270582 -0.00003649 0.00870312
v -0.02270982 0.00006077 0.01382296
v -0.02275359 0.00012135 0.01894409
v -0.02212328 0.00013018 0.02344159
v -0.02002447 -0.00112464 0.02648268
v -0.02177254 0.00409480 -0.05181287
v -0.01901342 0.00531467 -0.05323952
v -0.01970863 0.00470301 -0.04862870
v -0.02219961 0.00513125 0.00429631
v -0.02025142 0.00624574 0.00107829
v -0.02277052 0.00518180 0.00885715
v -0.02266334 0.00456781 0.01327350
v -0.02209747 0.00550701 0.01774669
v -0.02170929 0.00464351 0.02248946
v -0.02002528 0.00369357 0.02615136
v -0.01982684 0.00737852 -0.05092458
v -0.02174682 0.00920846 0.00363453
v -0.02027444 0.00976796 0.00149396
v -0.02221975 0.00975661 0.00764936
v -0.02190490 0.00931967 0.01319086
v -0.02037367 0.00954787 0.01678162
v -0.02001240 0.00798928 0.02042761
v -0.01961601 0.00690222 0.02431656
v -0.01959105 0.01234396 0.00385264
v -0.02017816 0.01286151 0.00998786
v -0.01969363 0.01203053 0.01421744
v -0.01658341 -0.01419401 -0.05096564
v -0.01435442 -0.01642897 -0.05173127
v -0.01549218 -0.01418000 -0.05294055
v -0.01426568 -0.01530448 -0.04975141
v -0.01759337 -0.01437081 0.00393491
v -0.01506939 -0.01726100 0.00392452
v -0.01512503 -0.01514972 0.00091397
v -0.01752920 -0.01527186 0.00976432
v -0.01502124 -0.01780135 0.00741024
v -0.01750303 -0.01441560 0.01488776
v -0.01506893 -0.01775748 0.01242349
v -0.01697217 -0.01458709 0.01972186
v -0.01465140 -0.01768137 0.01799599
v -0.01677566 -0.01406191 0.02427571
v -0.01456225 -0.01681069 0.02312720
v -0.01452640 -0.01553209 0.02630510
v -0.01723823 -0.01124052 -0.05173569
v -0.01558151 -0.00994893 -0.05358948
v -0.01507347 -0.01123086 -0.04860988
v -0.01703981 -0.01092782 -0.00076404
v -0.01440050 -0.01288675 -0.00198224
v -0.01450090 -0.00962829 -0.00314701
v -0.01838686 -0.01073440 0.01895752
v -0.01802860 -0.00992446 0.02385275
v -0.01559846 -0.01343768 0.02805930
v -0.01717989 -0.01018292 0.02902406
v -0.01691235 -0.00894236 0.03466161
v -0.01425320 -0.01269909 0.03320792
v -0.01449657 -0.01042266 0.03670940
v -0.01504245 -0.00539906 -0.05351347
v -0.01760070 -0.00351827 -0.04591184
v -0.01646506 -0.00719579 -0.04683759
v -0.01394660 -0.00582955 -0.04417374
v -0.01764627 -0.00622812 -0.00153660
v -0.01464359 -0.00438947 -0.00387840
v -0.01665853 -0.00407430 0.00986256
v -0.01512752 -0.00440493 0.00643749
v -0.01526570 -0.00706091 0.00846792
v -0.01488141 -0.00615989 0.01078650
v -0.01802198 -0.00463001 0.02880044
v -0.01779420 -0.00513164 0.03390889
v -0.01570729 -0.00788498 0.03832411
v -0.01707445 -0.00474841 0.03851178
v -0.01409010 -0.00586488 0.04089898
v -0.01593592 -0.00013351 -0.05335548
v -0.01796098 0.00134636 -0.04591318
v -0.01471323 -0.00097871 -0.04391082
v -0.01763037 -0.00121879 -0.00140825
v -0.01520237 0.00121744 -0.00383864
v -0.01722058 -0.00061415 0.00868842
v -0.01544640 0.00142596 0.00597266
v -0.01555081 -0.00303948 0.01315453
v -0.01678661 0.00060038 0.01244773
v -0.01475192 -0.00074565 0.01546316
v -0.01804414 0.00122755 0.02959838
v -0.01764119 -0.00008120 0.03404063
v -0.01733876 -0.00005285 0.03864072
v -0.01422257 -0.00018226 0.04101247
v -0.01476740 0.00484465 -0.05338513
v -0.01746964 0.00485017 -0.04591186
v -0.01433544 0.00448604 -0.04416319
v -0.01763363 0.00378672 -0.00141468
v -0.01438183 0.00626625 -0.00395099
v -0.01670873 0.00389796 0.00899536
v -0.01530782 0.00507346 0.00647635
v -0.01563078 0.00464420 0.01179287
v -0.01481959 0.00233215 0.01481266
v -0.01798952 0.00634425 0.02868824
v -0.01756613 0.00424948 0.03333806
v -0.01704346 0.00519574 0.03765924
v -0.01475189 0.00473738 0.04099415
v -0.01768450 0.01065492 -0.05132226
v -0.01601144 0.01017535 -0.05339933
v -0.01585276 0.01031390 -0.04857670
v -0.01528988 0.00773552 -0.04595750
v -0.01766773 0.00905189 -0.00099322
v -0.01382287 0.01092067 -0.00324629
v -0.01426418 0.00691822 0.00812061
v -0.01829074 0.01162072 0.01847011
v -0.01808682 0.00953063 0.02383614
v -0.01699896 0.01093741 0.02793698
v -0.01686507 0.00901393 0.03323976
v -0.01442697 0.01036586 0.03703434
v -0.01460129 0.00792746 0.03954932
v -0.01649007 0.01438060 -0.05171547
v -0.01386637 0.01480348 -0.05305886
v -0.01534043 0.01439207 -0.04974107
v -0.01598234 0.01290861 -0.00040489
v -0.01685745 0.01488757 0.00317732
v -0.01503249 0.01512998 0.00092081
v -0.01761406 0.01526191 0.00756161
v -0.01760130 0.01467688 0.01326875
v -0.01690406 0.01509199 0.01794544
v -0.01683249 0.01404223 0.02285397
v -0.01551608 0.01443586 0.02652043
v -0.01514066 0.01296315 0.03026523
v -0.01444290 0.01260432 0.03389071
v -0.01423407 0.01657077 -0.05088860
v -0.01443671 0.01725846 0.00373304
v -0.01516407 0.01767828 0.00989602
v -0.01518003 0.01762339 0.01489153
v -0.01443997 0.01761206 0.01990882
v -0.01399874 0.01673094 0.02446829
v -0.01267258 -0.01941609 0.00392997
v -0.00881795 -0.02194110 0.00405851
v -0.01020150 -0.01962837 0.00095710
v -0.01267597 -0.02031796 0.00969907
v -0.00964520 -0.02223634 0.00852555
v -0.01268619 -0.02023494 0.01476094
v -0.00955017 -0.02223776 0.01367053
v -0.01198098 -0.01985071 0.01901857
v -0.00953126 -0.02186427 0.01843404
v -0.00944702 -0.02049906 0.02164945
v -0.00953968 -0.01797509 -0.05059598
v -0.01066744 -0.01536469 -0.05352768
v -0.01034416 -0.01496950 -0.04792577
v -0.01231910 -0.01637064 -0.00072151
v -0.00856405 -0.01745293 -0.00145504
v -0.01095136 -0.01388276 -0.00311778
v -0.01068999 -0.01836736 0.02339785
v -0.01295939 -0.01516588 0.03007190
v -0.01031843 -0.01713467 0.02843545
v -0.01205749 -0.01522172 0.03334492
v -0.00929498 -0.01687421 0.03360341
v -0.00989036 -0.01532011 0.03643719
v -0.00968360 -0.01073634 -0.05319054
v -0.01063258 -0.01221961 -0.04621126
v -0.01292129 -0.00930297 -0.04552411
v -0.00935851 -0.01032100 -0.04404281
v -0.01057822 -0.00978546 -0.00466966
v -0.01272318 -0.00899568 0.00900608
v -0.01027082 -0.01023863 0.00585187
v -0.00958225 -0.01246958 0.00951747
v -0.00956842 -0.01194906 0.01316427
v -0.01171086 -0.00910843 0.01436516
v -0.00941000 -0.01058811 0.01629775
v -0.01299982 -0.00937453 0.03945443
v -0.01113406 -0.01239580 0.03817150
v -0.00941067 -0.01036803 0.04111626
v -0.01073051 -0.00729949 -0.05152972
v -0.01242839 -0.00364927 -0.05116908
v -0.00889739 -0.00601232 -0.04925872
v -0.01019740 -0.00497120 -0.04335792
v -0.01193831 -0.00535930 -0.00602713
v -0.00934434 -0.00802821 -0.00671344
v -0.00964146 -0.00477871 -0.00792754
v -0.01215331 -0.00600523 0.00412558
v -0.00955038 -0.00464908 0.00163118
v -0.00950783 -0.00791610 0.00292189
v -0.01335903 -0.00503376 0.01427756
v -0.01047375 -0.00842967 0.01804148
v -0.01212778 -0.00513029 0.01917496
v -0.01020556 -0.00763669 0.02231275
v -0.01220563 -0.00444311 0.02487671
v -0.00929407 -0.00760076 0.02814122
v -0.01194098 -0.00380724 0.02959293
v -0.00940051 -0.00529463 0.03155602
v -0.01060099 -0.00464932 0.04111242
v -0.01280013 0.00108839 -0.05118016
v -0.00968147 -0.00115144 -0.04894668
v -0.01030774 0.00016297 -0.04350986
v -0.01280080 -0.00111617 -0.00629853
v -0.00921427 0.00074608 -0.00881479
v -0.01279733 -0.00107230 0.00328218
v -0.00958496 0.00014858 0.00137205
v -0.01301063 0.00065896 0.01829945
v -0.01277059 -0.00005380 0.02384275
v -0.01295510 -0.00066570 0.02810713
v -0.01053374 -0.00307883 0.03346484
v -0.01188858 0.00030991 0.03313370
v -0.01010695 -0.00260759 0.03760874
v -0.01184916 -0.00019168 0.03858959
v -0.01203471 0.00530734 -0.05157801
v -0.00930984 0.00440938 -0.04919920
v -0.00954429 0.00457149 -0.04356691
v -0.01252282 0.00356250 -0.00631114
v -0.00904980 0.00603610 -0.00790474
v -0.01278390 0.00441297 0.00385146
v -0.00872564 0.00556837 0.00156082
v -0.01344858 0.00579261 0.01360883
v -0.01203255 0.00599943 0.01791243
v -0.01204158 0.00445077 0.02276561
v -0.01202105 0.00408079 0.02806771
v -0.00927246 0.00537739 0.03176800
v -0.01004138 0.00279243 0.03530189
v -0.01081051 0.00246816 0.03914493
v -0.00973591 0.00553756 0.04106049
v -0.00956164 0.00800602 -0.05076634
v -0.01116068 0.01030020 -0.05328161
v -0.01226441 0.01102810 -0.04629265
v -0.00991656 0.00945349 -0.04413193
v -0.01094476 0.00716029 -0.00604597
v -0.00971051 0.01058396 -0.00474651
v -0.01109729 0.00821572 0.00448722
v -0.01210044 0.00948664 0.00879659
v -0.01023575 0.01035847 0.00580354
v -0.01181265 0.00960581 0.01333223
v -0.01052320 0.00941951 0.01650067
v -0.01011459 0.00790002 0.02025722
v -0.01016708 0.00767675 0.02503436
v -0.00948328 0.00776596 0.02876862
v -0.01259974 0.01013425 0.03911971
v -0.01027774 0.00963588 0.04104375
v -0.00932709 0.01627238 -0.05343950
v -0.01052530 0.01545128 -0.04814481
v -0.00936641 0.01322636 -0.04558289
v -0.01311588 0.01477616 -0.00132886
v -0.00965739 0.01445026 -0.00322404
v -0.00909933 0.01239244 0.00884179
v -0.00901835 0.01178378 0.01447511
v -0.01341676 0.01555739 0.02821222
v -0.01231644 0.01523329 0.03221318
v -0.01119348 0.01443968 0.03609453
v -0.00999519 0.01278399 0.03906507
v -0.01052658 0.01775399 -0.05132329
v -0.01072360 0.01766228 -0.00044081
v -0.01203082 0.01994185 0.00305969
v -0.00876220 0.02028106 0.00115420
v -0.01275884 0.02027013 0.00736159
v -0.01275764 0.02025262 0.01241223
v -0.01246453 0.02020205 0.01715252
v -0.01094070 0.01985621 0.02081447
v -0.00987566 0.01837020 0.02417723
v -0.01009823 0.01719288 0.02909704
v -0.00881340 0.01699872 0.03474535
v -0.00973635 0.02191262 0.00486370
v -0.00968205 0.02218953 0.00966240
v -0.00960835 0.02220312 0.01479829
v -0.00893956 0.02187847 0.01965608
v -0.00674033 -0.02061977 -0.05127196
v -0.00401909 -0.02175185 -0.05174783
v -0.00597164 -0.01937313 -0.05308763
v -0.00422503 -0.02035551 -0.04907648
v -0.00408675 -0.02220133 0.00411894
v -0.00635146 -0.02030705 0.00101337
v -0.00520908 -0.02278308 0.00855987
v -0.00502502 -0.02279812 0.01373703
v -0.00499230 -0.02281367 0.01888029
v -0.00723814 -0.01971620 0.02457077
v -0.00595362 -0.02181160 0.02272256
v -0.00356109 -0.02001840 0.02616186
v -0.00427583 -0.01540750 -0.05349868
v -0.00763927 -0.01448427 -0.04553094
v -0.00583006 -0.01725966 -0.04675700
v -0.00451107 -0.01469489 -0.04412981
v -0.00384376 -0.01774068 -0.00135514
v -0.00623638 -0.01447324 -0.00386331
v -0.00730338 -0.01409955 0.00836983
v -0.00528698 -0.01470157 0.00607309
v -0.00376398 -0.01684023 0.00902271
v -0.00455146 -0.01574660 0.01174803
v -0.00520889 -0.01803421 0.02862838
v -0.00472072 -0.01776987 0.03400640
v -0.00760170 -0.01469552 0.03963245
v -0.00555341 -0.01709022 0.03805290
v -0.00437341 -0.01483038 0.04104295
v -0.00513489 -0.01197406 -0.05153056
v -0.00777548 -0.00945504 -0.05069322
v -0.00459420 -0.00958600 -0.04925886
v -0.00496812 -0.01021218 -0.04332829
v -0.00709408 -0.01102436 -0.00602890
v -0.00347769 -0.01260491 -0.00630708
v -0.00592113 -0.00911604 -0.00793548
v -0.00744725 -0.01138770 0.00425556
v -0.00596532 -0.00893655 0.00171673
v -0.00363613 -0.01261460 0.00344202
v -0.00573833 -0.01357164 0.01348366
v -0.00528085 -0.01221208 0.01836064
v -0.00794110 -0.01015183 0.02000411
v -0.00431594 -0.01216290 0.02376776
v -0.00763564 -0.01018483 0.02480820
v -0.00438576 -0.01193985 0.02849216
v -0.00719433 -0.01027746 0.02827688
v -0.00500585 -0.01020727 0.03129515
v -0.00529865 -0.00985801 0.04107447
v -0.00504556 -0.00513604 -0.04825197
v -0.00514416 -0.00505908 -0.04359315
v -0.00573915 -0.00489295 -0.00958430
v -0.00505251 -0.00509030 0.00085397
v -0.00608858 -0.00747534 0.03315033
v -0.00769918 -0.00483228 0.03535627
v -0.00475159 -0.00773749 0.03756774
v -0.00737247 -0.00547547 0.03922466
v -0.00521499 0.00013695 -0.04831901
v -0.00444617 0.00027056 -0.04339510
v -0.00674073 -0.00063012 -0.01089568
v -0.00523527 -0.00258681 -0.01128590
v -0.00497121 -0.00065752 -0.01266721
v -0.00507626 0.00003441 0.00090295
v -0.00452660 0.00463813 -0.04838866
v -0.00583529 0.00602979 -0.04365726
v -0.00503877 0.00226224 -0.01201903
v -0.00497512 0.00585010 -0.00958527
v -0.00452142 0.00451490 0.00092751
v -0.00772729 0.00497115 0.03411353
v -0.00763127 0.00490521 0.03745038
v -0.00733526 0.01089263 -0.05157757
v -0.00546723 0.00881864 -0.04919916
v -0.00435700 0.00973629 -0.04357122
v -0.00795519 0.00942538 -0.00671077
v -0.00472388 0.00972430 -0.00792481
v -0.00835896 0.01006539 0.00354685
v -0.00455070 0.00931716 0.00154049
v -0.00838019 0.01047693 0.01818412
v -0.00762857 0.01020888 0.02248751
v -0.00728385 0.01029810 0.02727390
v -0.00613659 0.00940223 0.03098084
v -0.00524926 0.00756817 0.03484118
v -0.00533017 0.00756198 0.03919694
v -0.00451154 0.01074332 0.04113041
v -0.00366943 0.01250693 -0.05118018
v -0.00608391 0.01437563 -0.05338709
v -0.00751734 0.01544382 -0.04590530
v -0.00527947 0.01391543 -0.04418456
v -0.00528599 0.01201354 -0.00603052
v -0.00435034 0.01467216 -0.00390833
v -0.00599102 0.01286148 0.00447117
v -0.00679896 0.01501597 0.00783819
v -0.00379547 0.01550631 0.00629522
v -0.00605815 0.01499713 0.01089221
v -0.00494241 0.01348294 0.01433951
v -0.00507158 0.01218057 0.01923547
v -0.00438821 0.01223735 0.02497828
v -0.00371130 0.01201989 0.02972284
v -0.00771909 0.01584772 0.03838694
v -0.00569461 0.01426147 0.04089631
v -0.00723106 0.01991833 -0.05176035
v -0.00428718 0.01957049 -0.05323649
v -0.00595103 0.01973950 -0.04924440
v -0.00419210 0.01752330 -0.04618644
v -0.00625349 0.01765889 -0.00154410
v -0.00399732 0.02022059 0.00092904
v -0.00402196 0.01675512 0.00994988
v -0.00789416 0.02051568 0.02308787
v -0.00529921 0.01972936 0.02557591
v -0.00450011 0.01804691 0.02880457
v -0.00504724 0.01781689 0.03397095
v -0.00459192 0.01716441 0.03860406
v -0.00390551 0.02181443 -0.05092192
v -0.00525794 0.02216333 0.00397859
v -0.00519943 0.02273752 0.00845655
v -0.00511371 0.02278290 0.01365247
v -0.00498841 0.02282617 0.01889298
v -0.00459754 0.02182687 0.02333851
v 0.00014272 -0.02199020 -0.05131410
v -0.00102341 -0.02000695 -0.05345649
v 0.00139670 -0.02061937 -0.04846262
v 0.00103414 -0.02220105 0.00408624
v -0.00135961 -0.02024870 0.00106843
v -0.00005072 -0.02274133 0.00860842
v 0.00015090 -0.02271536 0.01381728
v 0.00026845 -0.02275770 0.01906553
v -0.00109917 -0.02212880 0.02348468
v 0.00122096 -0.02002289 0.02653172
v 0.00150847 -0.01599409 -0.05337595
v -0.00105058 -0.01793984 -0.04577679
v 0.00015718 -0.01477927 -0.04381293
v 0.00112010 -0.01773465 -0.00136891
v -0.00116119 -0.01528633 -0.00380666
v -0.00121095 -0.01557000 0.00605248
v 0.00069159 -0.01737098 0.00875044
v -0.00057645 -0.01690498 0.01244079
v -0.00233373 -0.01489929 0.01471984
v 0.00068991 -0.01482081 0.01542709
v 0.00012716 -0.01808203 0.02951811
v 0.00029484 -0.01769146 0.03408858
v -0.00079681 -0.01737561 0.03873360
v 0.00040909 -0.01421426 0.04105577
v -0.00091240 -0.01281455 -0.05116987
v 0.00019964 -0.00967096 -0.04894563
v 0.00005034 -0.01035115 -0.04344916
v 0.00121175 -0.01287276 -0.00630785
v -0.00062605 -0.00928562 -0.00885224
v -0.00101762 -0.00976424 0.00148045
v 0.00137870 -0.01296648 0.00344079
v 0.00029215 -0.01307878 0.01827550
v 0.00023766 -0.01277206 0.02388886
v -0.00047357 -0.01287602 0.02816541
v -0.00010005 -0.01187064 0.03337800
v -0.00262196 -0.01013936 0.03548037
v 0.00034781 -0.01183958 0.03870224
v -0.00226011 -0.01088937 0.03922955
v 0.00015342 -0.00517674 -0.04831893
v 0.00079267 -0.00456762 -0.04339381
v -0.00266157 -0.00470979 -0.01179272
v 0.00076224 -0.00683559 -0.01092584
v 0.00085084 -0.00399982 -0.01317338
v 0.00020294 -0.00527552 0.00096902
v 0.00007216 0.00000630 -0.04836798
v -0.00013952 -0.00173697 -0.04091400
v -0.00163598 0.00019258 -0.04091296
v -0.00138259 -0.00005600 -0.03640499
v 0.00013348 -0.00150335 -0.03640342
v -0.00143728 -0.00000914 -0.03123420
v 0.00008895 -0.00150521 -0.03124014
v -0.00143388 0.00005169 -0.02612628
v 0.00002337 -0.00147920 -0.02612019
v -0.00142263 0.00008612 -0.02117756
v 0.00002500 -0.00146199 -0.02111556
v -0.00219435 -0.00038166 -0.01577701
v 0.00033249 -0.00177749 -0.01673898
v 0.00007640 0.00000400 0.00101151
v -0.00000918 0.00518954 -0.04831900
v -0.00064946 0.00458295 -0.04339501
v 0.00028498 0.00174843 -0.04091439
v 0.00001199 0.00151495 -0.03640496
v 0.00005307 0.00151821 -0.03123985
v 0.00009621 0.00151483 -0.02620612
v 0.00013005 0.00149312 -0.02119675
v 0.00058445 0.00223397 -0.01541361
v -0.00225536 0.00496716 -0.01197541
v 0.00087740 0.00495978 -0.01263591
v -0.00009048 0.00526855 0.00090240
v -0.00005505 0.00968345 -0.04894692
v 0.00006214 0.01039822 -0.04350627
v -0.00076202 0.00676402 -0.01090690
v 0.00073283 0.00922137 -0.00883202
v 0.00104118 0.00977515 0.00141318
v -0.00294131 0.01066007 0.03355986
v -0.00244009 0.01024338 0.03764370
v 0.00105718 0.01282361 -0.05116889
v -0.00135763 0.01600182 -0.05335544
v 0.00008934 0.01480691 -0.04392168
v -0.00105227 0.01285886 -0.00632195
v 0.00124317 0.01530534 -0.00384410
v -0.00141295 0.01293365 0.00332128
v 0.00123784 0.01550718 0.00592975
v -0.00299139 0.01567770 0.01323372
v -0.00067637 0.01484251 0.01546499
v 0.00074447 0.01307327 0.01828020
v 0.00001732 0.01282223 0.02384529
v -0.00055835 0.01296948 0.02817385
v 0.00045899 0.01197025 0.03318115
v -0.00007896 0.01191210 0.03860316
v -0.00009584 0.01430571 0.04102308
v 0.00111884 0.02011841 -0.05350759
v -0.00101673 0.02074414 -0.04856820
v 0.00138894 0.01798536 -0.04585038
v -0.00122353 0.01769251 -0.00140492
v 0.00107245 0.02026527 0.00108897
v -0.00069740 0.01729934 0.00868291
v 0.00060750 0.01683331 0.01240049
v -0.00104115 0.02002941 0.02645462
v 0.00124653 0.01809231 0.02960045
v -0.00000235 0.01769946 0.03402873
v 0.00002875 0.01740337 0.03864244
v 0.00010102 0.02214987 -0.05138499
v -0.00010769 0.02217454 0.00419402
v -0.00000733 0.02274966 0.00864750
v 0.00013745 0.02272769 0.01381546
v 0.00021507 0.02277216 0.01895570
v 0.00019985 0.02214235 0.02341111
v 0.00429014 -0.02168970 -0.05089483
v 0.00455457 -0.01951957 -0.05329443
v 0.00496144 -0.02058316 -0.04904860
v 0.00615721 -0.02228637 0.00411026
v 0.00371531 -0.02031293 0.00095939
v 0.00510280 -0.02283068 0.00868943
v 0.00527591 -0.02272626 0.01392388
v 0.00473193 -0.02268794 0.01837715
v 0.00447411 -0.02188292 0.02312420
v 0.00546598 -0.01971260 0.02574195
v 0.00625448 -0.01438818 -0.05344893
v 0.00483970 -0.01798257 -0.04682472
v 0.00534282 -0.01387559 -0.04408883
v 0.00615130 -0.01777269 -0.00146705
v 0.00447890 -0.01472685 -0.00384868
v 0.00507969 -0.01484607 0.00647453
v 0.00408942 -0.01675154 0.00984938
v 0.00298723 -0.01563372 0.01313012
v 0.00616583 -0.01497945 0.01079567
v 0.00558376 -0.01801540 0.02891967
v 0.00448488 -0.01758029 0.03333061
v 0.00451587 -0.01702544 0.03828369
v 0.00601766 -0.01411607 0.04100120
v 0.00381295 -0.01249816 -0.05118116
v 0.00561023 -0.00880459 -0.04919609
v 0.00446421 -0.00968255 -0.04350777
v 0.00544308 -0.01200264 -0.00602962
v 0.00485218 -0.00971742 -0.00794950
v 0.00463993 -0.00933674 0.00170833
v 0.00580118 -0.01216139 0.00376805
v 0.00501997 -0.01343169 0.01430746
v 0.00577442 -0.01204214 0.01872630
v 0.00467667 -0.01206919 0.02386813
v 0.00375166 -0.01201605 0.02924986
v 0.00332738 -0.01052208 0.03373711
v 0.00522712 -0.01016365 0.03149479
v 0.00269745 -0.01008427 0.03776620
v 0.00466516 -0.01064954 0.04120641
v 0.00467082 -0.00462533 -0.04838854
v 0.00597293 -0.00599605 -0.04363412
v 0.00274773 -0.00534715 -0.01124120
v 0.00498165 -0.00586568 -0.00957046
v 0.00472887 -0.00452638 0.00100898
v 0.00563416 -0.00795858 0.03416384
v 0.00545073 -0.00742938 0.03931237
v 0.00535917 -0.00012421 -0.04831892
v 0.00178144 -0.00018113 -0.04091543
v 0.00459064 -0.00025479 -0.04339350
v 0.00152806 0.00006760 -0.03640338
v 0.00157930 0.00002215 -0.03124579
v 0.00155347 -0.00001606 -0.02620003
v 0.00157767 -0.00005499 -0.02113475
v 0.00205427 -0.00052860 -0.01716905
v 0.00385649 -0.00061096 -0.01363666
v 0.00541534 -0.00271157 -0.01119572
v 0.00529042 0.00001620 0.00089218
v 0.00518989 0.00514873 -0.04825204
v 0.00528397 0.00507107 -0.04358820
v 0.00423546 0.00301281 -0.01210324
v 0.00237915 0.00601485 -0.01095288
v 0.00597987 0.00493668 -0.00957739
v 0.00514943 0.00519849 0.00076887
v 0.00474153 0.00959608 -0.04925966
v 0.00516854 0.01016662 -0.04333369
v 0.00611681 0.00905943 -0.00795187
v 0.00603085 0.00906238 0.00172123
v 0.00289730 0.01008158 0.03531535
v 0.00506496 0.00782126 0.03410529
v 0.00490645 0.00979812 0.03182586
v 0.00255089 0.01085124 0.03916187
v 0.00500863 0.00766701 0.03748457
v 0.00560668 0.00977251 0.04109976
v 0.00527960 0.01198409 -0.05152830
v 0.00435480 0.01546640 -0.05349515
v 0.00484683 0.01464625 -0.04417448
v 0.00360632 0.01258908 -0.00634020
v 0.00625828 0.01454694 -0.00389967
v 0.00499947 0.01241283 0.00407195
v 0.00581865 0.01501732 0.00670774
v 0.00242080 0.01483221 0.01472792
v 0.00593793 0.01347812 0.01357378
v 0.00471808 0.01565216 0.01168581
v 0.00610951 0.01206906 0.01793575
v 0.00452874 0.01213298 0.02272436
v 0.00415240 0.01210291 0.02800308
v 0.00483654 0.01478615 0.04099969
v 0.00593884 0.01948365 -0.05314241
v 0.00412802 0.02015656 -0.04861047
v 0.00479877 0.01741928 -0.04586215
v 0.00376528 0.01777099 -0.00139295
v 0.00620050 0.02034836 0.00102752
v 0.00385820 0.01675372 0.00888135
v 0.00372811 0.02003515 0.02625709
v 0.00635622 0.01806155 0.02870384
v 0.00429179 0.01763136 0.03330566
v 0.00528781 0.01712323 0.03763128
v 0.00402650 0.02186225 -0.05182296
v 0.00505945 0.02226215 0.00419604
v 0.00518620 0.02282666 0.00876048
v 0.00534794 0.02274282 0.01397391
v 0.00469876 0.02270320 0.01840164
v 0.00561865 0.02189574 0.02256285
v 0.00729072 -0.01966155 -0.05106712
v 0.01012885 -0.02182321 0.00455943
v 0.00981015 -0.01968621 0.00137380
v 0.00957238 -0.02226451 0.00868193
v 0.00971131 -0.02217944 0.01391408
v 0.00892984 -0.02191760 0.01930265
v 0.00812662 -0.02045761 0.02329494
v 0.01113877 -0.01981970 0.02099549
v 0.01037896 -0.01724397 -0.05054091
v 0.00954681 -0.01626021 -0.05351244
v 0.00804217 -0.01576544 -0.04666395
v 0.01176644 -0.01459220 -0.04829704
v 0.01043339 -0.01705829 -0.00123937
v 0.00973611 -0.01461656 -0.00304640
v 0.00715492 -0.01533980 0.00851103
v 0.00997273 -0.01836103 0.02427667
v 0.01075633 -0.01702613 0.02865579
v 0.00868041 -0.01687988 0.03422540
v 0.00807139 -0.01561337 0.03852774
v 0.01094640 -0.01484619 0.03611425
v 0.00747807 -0.01088282 -0.05157983
v 0.01132819 -0.01032017 -0.05334401
v 0.00938639 -0.01312750 -0.04549171
v 0.00999221 -0.00935511 -0.04404626
v 0.00810214 -0.00940864 -0.00671854
v 0.00989577 -0.01064887 -0.00463935
v 0.00840741 -0.00962832 0.00307919
v 0.00936850 -0.01123213 0.00568307
v 0.00937081 -0.01282173 0.00962652
v 0.00912320 -0.01182526 0.01449493
v 0.00843179 -0.01052985 0.01817273
v 0.01062404 -0.00954881 0.01638032
v 0.00776476 -0.01020287 0.02244455
v 0.00722679 -0.00991168 0.02803423
v 0.01057309 -0.01331619 0.03887818
v 0.01015926 -0.01075319 0.04127973
v 0.00970466 -0.00799276 -0.05076396
v 0.00945305 -0.00439499 -0.04919614
v 0.00965890 -0.00451449 -0.04350136
v 0.01109922 -0.00715962 -0.00603291
v 0.00916876 -0.00598938 -0.00795769
v 0.00904852 -0.00553028 0.00166742
v 0.01096889 -0.00820689 0.00416109
v 0.01025347 -0.00799815 0.02005572
v 0.01030536 -0.00765255 0.02478102
v 0.00933764 -0.00703586 0.02952314
v 0.00819287 -0.00535859 0.03336989
v 0.01058318 -0.00436178 0.03153218
v 0.00769481 -0.00487885 0.03757996
v 0.01033566 -0.00581312 0.04124314
v 0.00982597 0.00116451 -0.04894550
v 0.01043736 -0.00016399 -0.04345021
v 0.00698220 0.00072786 -0.01087382
v 0.00941403 -0.00067161 -0.00881416
v 0.00981085 -0.00011821 0.00133470
v 0.01011217 -0.00275601 0.03539350
v 0.01081910 -0.00239175 0.03922581
v 0.00904430 0.00602275 -0.04925923
v 0.01040020 0.00486836 -0.04332496
v 0.00983230 0.00476369 -0.00794394
v 0.00970559 0.00476814 0.00160760
v 0.00765417 0.00576511 0.03433198
v 0.01066095 0.00317508 0.03370357
v 0.00996016 0.00583871 0.03110115
v 0.00763003 0.00539838 0.03923878
v 0.01026781 0.00257887 0.03772050
v 0.01078060 0.00459050 0.04119462
v 0.00792302 0.00946382 -0.05069307
v 0.01087500 0.00731279 -0.05152747
v 0.00977955 0.01079667 -0.05317562
v 0.00970752 0.01018722 -0.04407514
v 0.00948963 0.00803087 -0.00671953
v 0.00720198 0.01103790 -0.00605365
v 0.01059152 0.00990015 -0.00469325
v 0.00964492 0.00799219 0.00295454
v 0.00780404 0.01022787 0.00339413
v 0.01015935 0.00993656 0.00531778
v 0.00796288 0.01018987 0.02035482
v 0.01053864 0.00843426 0.01837141
v 0.00951862 0.01055335 0.01661345
v 0.00772775 0.01025562 0.02506454
v 0.01023643 0.00775161 0.02267839
v 0.00777235 0.00903679 0.02941604
v 0.01029917 0.00744049 0.02743337
v 0.00972989 0.01032233 0.04107821
v 0.01065350 0.01553749 -0.05355379
v 0.01096409 0.01216549 -0.04627280
v 0.00766632 0.01575645 -0.04645287
v 0.01085292 0.01534526 -0.04859510
v 0.01088064 0.01411301 -0.00309784
v 0.00697420 0.01497968 0.00933525
v 0.00903698 0.01277606 0.00853927
v 0.00980403 0.01184805 0.01336197
v 0.00804465 0.01462764 0.03956727
v 0.00989362 0.01495924 0.03712046
v 0.01022732 0.01268787 0.03911764
v 0.01054083 0.01775818 -0.05135562
v 0.00734264 0.01940199 -0.05035024
v 0.00977791 0.01734707 -0.00087786
v 0.01055837 0.01997093 0.00169188
v 0.00739945 0.01972520 0.02475105
v 0.00968447 0.02046881 0.02185626
v 0.01078529 0.01837174 0.02357301
v 0.01102242 0.01711271 0.02792327
v 0.00902036 0.01695805 0.03319914
v 0.00914805 0.02180754 0.00354492
v 0.00967679 0.02225652 0.00752549
v 0.00985254 0.02219189 0.01272134
v 0.00946476 0.02193071 0.01826201
v 0.01221338 -0.02032497 0.00390529
v 0.01271001 -0.02028600 0.00744156
v 0.01282739 -0.02024387 0.01259962
v 0.01266816 -0.02018782 0.01737596
v 0.01440653 -0.01657224 -0.05100590
v 0.01402248 -0.01486782 -0.05317566
v 0.01544813 -0.01434529 -0.04982420
v 0.01304476 -0.01448366 -0.00186573
v 0.01525826 -0.01522621 0.00091315
v 0.01471916 -0.01768979 0.00447601
v 0.01527000 -0.01762503 0.00983370
v 0.01530115 -0.01763735 0.01495601
v 0.01456093 -0.01766114 0.01993243
v 0.01407687 -0.01678666 0.02441232
v 0.01350554 -0.01553222 0.02811099
v 0.01564060 -0.01448762 0.02632730
v 0.01246692 -0.01513518 0.03222918
v 0.01620316 -0.01019009 -0.05350549
v 0.01230582 -0.01088320 -0.04624485
v 0.01464199 -0.01126950 -0.04822628
v 0.01607261 -0.01225172 -0.00118082
v 0.01406313 -0.01099841 -0.00301517
v 0.01226484 -0.00885584 0.00823039
v 0.01200955 -0.00972337 0.01326890
v 0.01532277 -0.01293066 0.03008257
v 0.01465006 -0.01261479 0.03511679
v 0.01435233 -0.01158372 0.03911748
v 0.01492061 -0.00855560 0.04090720
v 0.01217939 -0.00529554 -0.05157872
v 0.01493180 -0.00486008 -0.05343730
v 0.01566093 -0.00820347 -0.04672681
v 0.01442753 -0.00452260 -0.04408368
v 0.01267224 -0.00354448 -0.00631954
v 0.01458984 -0.00629159 -0.00383645
v 0.01215395 -0.00498146 0.00393063
v 0.01354865 -0.00442081 0.00748840
v 0.01339232 -0.00533955 0.01316946
v 0.01229245 -0.00542594 0.01842121
v 0.01230396 -0.00440753 0.02369482
v 0.01203703 -0.00445168 0.02832472
v 0.01550958 -0.00416324 0.04125060
v 0.01294698 -0.00107583 -0.05118121
v 0.01608753 0.00012308 -0.05339091
v 0.01486936 0.00084493 -0.04384698
v 0.01294531 0.00114217 -0.00631705
v 0.01536470 -0.00122737 -0.00380800
v 0.01294124 0.00057728 0.00434185
v 0.01507524 -0.00084009 0.00695218
v 0.01542516 -0.00246328 0.01017820
v 0.01498968 -0.00199915 0.01430977
v 0.01497169 0.00070258 0.01540854
v 0.01319054 0.00023025 0.01834457
v 0.01286402 0.00012041 0.02394893
v 0.01297402 -0.00062017 0.02811887
v 0.01197199 -0.00028450 0.03328348
v 0.01188927 0.00022919 0.03866382
v 0.01428521 0.00031937 0.04106044
v 0.01257500 0.00366320 -0.05116912
v 0.01513945 0.00546026 -0.05349428
v 0.01419636 0.00564697 -0.04419332
v 0.01207680 0.00537531 -0.00603316
v 0.01474789 0.00448678 -0.00384564
v 0.01210951 0.00602937 0.00452257
v 0.01509432 0.00187010 0.00804328
v 0.01348359 0.00516499 0.00904096
v 0.01340215 0.00427073 0.01478875
v 0.01542631 0.00232505 0.01223196
v 0.01211153 0.00575727 0.01886718
v 0.01215515 0.00462013 0.02398269
v 0.01212454 0.00363393 0.02930010
v 0.01424264 0.00591706 0.04100428
v 0.01563270 0.01012808 -0.05355452
v 0.01539986 0.00730860 -0.04586987
v 0.01315813 0.00913156 -0.04549477
v 0.01496734 0.01097294 -0.04808052
v 0.01451681 0.00989776 -0.00304892
v 0.01215821 0.00962218 0.00880685
v 0.01206272 0.00871204 0.01395919
v 0.01282386 0.01063823 0.03862746
v 0.01499550 0.01082490 0.03617527
v 0.01580260 0.00797076 0.03857970
v 0.01546469 0.01440103 -0.05290477
v 0.01430345 0.01546032 -0.04981170
v 0.01569639 0.01273888 -0.00102863
v 0.01253525 0.01534754 -0.00154716
v 0.01521362 0.01523794 0.00098944
v 0.01295633 0.01524486 0.03029804
v 0.01446805 0.01556416 0.02656031
v 0.01555977 0.01351027 0.02829624
v 0.01523537 0.01243950 0.03236868
v 0.01267982 0.01402308 0.03454975
v 0.01432489 0.01663928 -0.05178768
v 0.01411297 0.01767811 0.00291046
v 0.01253348 0.02027172 0.00502863
v 0.01534009 0.01763312 0.00744078
v 0.01292601 0.02024236 0.00988243
v 0.01531139 0.01761168 0.01246530
v 0.01292526 0.02017889 0.01499548
v 0.01479080 0.01764603 0.01811560
v 0.01219077 0.01981785 0.01924399
v 0.01459499 0.01678127 0.02327428
v 0.01666183 -0.01441568 -0.05185608
v 0.01740388 -0.01512792 0.00383388
v 0.01782528 -0.01511987 0.00732510
v 0.01768834 -0.01462309 0.01310452
v 0.01712412 -0.01454460 0.01859907
v 0.01685849 -0.01454169 0.02320677
v 0.01757467 -0.01031154 -0.05079937
v 0.01759971 -0.00856868 -0.00139974
v 0.01927798 -0.01079302 0.00095780
v 0.01992389 -0.01273375 0.00443925
v 0.02032280 -0.01274265 0.00968759
v 0.01980298 -0.01196554 0.01396430
v 0.01850985 -0.01129061 0.01776539
v 0.02053423 -0.00937800 0.01657333
v 0.01815305 -0.01016371 0.02316092
v 0.01727793 -0.01030851 0.02836594
v 0.01738598 -0.00942610 0.03384980
v 0.01704012 -0.01006321 0.03792902
v 0.01979062 -0.00691098 -0.05003866
v 0.01914622 -0.00536689 -0.05328874
v 0.01806858 -0.00538448 -0.04661495
v 0.02074005 -0.00389615 -0.04888426
v 0.01786031 -0.00387886 -0.00134004
v 0.02043098 -0.00635368 0.00102021
v 0.02019578 -0.00787910 0.02028575
v 0.01977925 -0.00688983 0.02419328
v 0.01812608 -0.00529215 0.02859243
v 0.02017077 -0.00364238 0.02610021
v 0.01785507 -0.00486188 0.03397009
v 0.01754005 -0.00609852 0.03856576
v 0.02012254 -0.00005230 -0.05351689
v 0.01804901 -0.00157989 -0.04580202
v 0.02070225 0.00092677 -0.04849772
v 0.01779534 0.00111981 -0.00133547
v 0.02033583 -0.00138054 0.00108269
v 0.01651657 0.00031805 0.00966304
v 0.01647813 -0.00038533 0.01281056
v 0.01818496 0.00004856 0.02951336
v 0.02017146 0.00119421 0.02653475
v 0.01772747 0.00020452 0.03405803
v 0.01738530 -0.00094225 0.03873715
v 0.02003855 0.00475878 -0.05311038
v 0.01757241 0.00463668 -0.04657716
v 0.02029739 0.00541373 -0.04936366
v 0.01776240 0.00624431 -0.00142323
v 0.02038478 0.00374956 0.00104587
v 0.01810434 0.00563107 0.02894303
v 0.01976014 0.00543199 0.02576518
v 0.01766278 0.00444733 0.03331856
v 0.01712134 0.00443334 0.03827867
v 0.01991312 0.00733034 -0.05175495
v 0.01779123 0.01001393 -0.05078097
v 0.01732121 0.00976573 -0.00147846
v 0.01994031 0.00905741 0.00103670
v 0.01844095 0.01114120 0.01949187
v 0.01982115 0.01086874 0.01596933
v 0.02051839 0.00844683 0.01859371
v 0.02016096 0.00735351 0.02248457
v 0.01821656 0.00922189 0.02466831
v 0.01708550 0.01074498 0.02873485
v 0.01700607 0.00866871 0.03427483
v 0.01656453 0.01438111 -0.05091831
v 0.01930167 0.01262908 0.00302841
v 0.01759865 0.01509968 0.00510852
v 0.02049460 0.01265947 0.00757836
v 0.01784298 0.01508688 0.00987467
v 0.02030310 0.01232885 0.01230647
v 0.01769977 0.01439362 0.01491368
v 0.01700650 0.01513196 0.01928110
v 0.01691822 0.01365601 0.02386883
v 0.02208224 -0.00882169 0.00405473
v 0.02237575 -0.00972162 0.00853131
v 0.02191614 -0.00958786 0.01333019
v 0.02186246 -0.00426138 -0.05182002
v 0.02229747 -0.00409060 0.00412373
v 0.02290979 -0.00523059 0.00858967
v 0.02291174 -0.00510753 0.01371496
v 0.02234665 -0.00526169 0.01857900
v 0.02168313 -0.00508721 0.02280827
v 0.02213793 -0.00021383 -0.05133824
v 0.02227641 0.00108361 0.00414853
v 0.02284217 -0.00006848 0.00865898
v 0.02285228 0.00008464 0.01390109
v 0.02289601 0.00016220 0.01909511
v 0.02226793 -0.00118430 0.02341018
v 0.02180205 0.00392681 -0.05087663
v 0.02241989 0.00623439 0.00424290
v 0.02290999 0.00508758 0.00875043
v 0.02279909 0.00442114 0.01321868
v 0.02223949 0.00525151 0.01860675
v 0.02185491 0.00365623 0.02353877
v 0.02199227 0.01012880 0.00472433
v 0.02242529 0.00956581 0.00876478
v 0.02201740 0.00865131 0.01418497
f 3 2 1
f 5 4 1
f 5 1 2
f 7 6 4
f 7 4 5
f 8 6 7
f 11 10 9
f 12 9 10
f 3 1 13
f 3 13 14
f 15 1 4
f 13 1 15
f 16 4 6
f 15 4 16
f 6 8 17
f 18 6 17
f 16 6 18
f 20 19 18
f 20 18 17
f 21 19 20
f 11 9 22
f 11 22 23
f 9 12 24
f 9 24 22
f 14 13 25
f 14 25 26
f 27 13 15
f 25 13 27
f 28 15 16
f 27 15 28
f 29 16 18
f 28 16 29
f 30 18 19
f 29 18 30
f 19 21 31
f 19 31 30
f 23 22 32
f 23 32 33
f 22 24 34
f 22 34 32
f 26 25 35
f 26 35 36
f 37 25 27
f 35 25 37
f 38 27 28
f 37 27 38
f 39 28 29
f 38 28 39
f 40 29 30
f 39 29 40
f 30 31 41
f 30 41 40
f 42 33 32
f 42 32 34
f 36 35 43
f 36 43 44
f 45 35 37
f 43 35 45
f 46 37 38
f 45 37 46
f 39 48 47
f 46 39 47
f 38 39 46
f 48 39 40
f 48 40 49
f 49 40 41
f 50 44 43
f 50 43 45
f 50 45 51
f 51 45 46
f 51 46 52
f 52 46 47
f 55 54 53
f 56 53 54
f 59 58 57
f 61 60 57
f 61 57 58
f 63 62 60
f 63 60 61
f 65 64 62
f 65 62 63
f 67 66 64
f 67 64 65
f 68 66 67
f 55 53 69
f 55 69 70
f 53 56 71
f 53 71 69
f 74 73 72
f 72 73 59
f 72 59 57
f 3 72 57
f 2 3 57
f 2 57 5
f 5 57 60
f 5 60 7
f 7 60 62
f 7 62 8
f 62 75 8
f 62 64 75
f 76 64 66
f 75 64 76
f 66 68 77
f 78 66 77
f 76 66 78
f 80 79 78
f 80 78 77
f 81 79 80
f 70 69 10
f 11 70 10
f 82 70 11
f 84 83 12
f 84 12 10
f 71 84 10
f 69 71 10
f 85 83 84
f 74 72 86
f 74 86 87
f 14 86 3
f 3 86 72
f 90 89 88
f 88 91 90
f 75 17 8
f 17 75 20
f 20 75 76
f 20 76 21
f 76 92 21
f 76 78 92
f 93 78 79
f 92 78 93
f 79 81 94
f 95 79 94
f 93 79 95
f 96 95 94
f 23 82 11
f 23 97 82
f 98 24 83
f 83 24 12
f 83 85 99
f 83 99 98
f 87 86 100
f 87 100 101
f 26 100 14
f 14 100 86
f 88 89 102
f 102 89 103
f 91 88 104
f 88 105 104
f 88 102 105
f 105 106 104
f 107 31 92
f 92 31 21
f 108 92 93
f 107 92 108
f 109 93 95
f 108 93 109
f 95 96 110
f 95 110 109
f 33 97 23
f 33 111 97
f 112 34 98
f 98 34 24
f 98 99 113
f 98 113 112
f 101 100 114
f 101 114 115
f 36 114 26
f 26 114 100
f 102 103 116
f 116 103 117
f 119 105 118
f 105 116 118
f 105 102 116
f 105 119 106
f 120 41 107
f 107 41 31
f 121 107 108
f 120 107 121
f 122 108 109
f 121 108 122
f 109 110 123
f 109 123 122
f 33 42 124
f 125 33 124
f 111 33 125
f 126 124 42
f 126 42 34
f 127 126 34
f 112 127 34
f 127 112 113
f 115 114 128
f 115 128 129
f 44 128 36
f 36 128 114
f 117 130 116
f 116 130 118
f 131 47 48
f 49 132 48
f 48 132 131
f 41 120 49
f 120 132 49
f 120 133 132
f 134 120 121
f 133 120 134
f 122 136 135
f 134 122 135
f 121 122 134
f 136 122 123
f 125 124 137
f 125 137 138
f 124 126 139
f 124 139 137
f 140 129 128
f 142 140 141
f 141 140 50
f 140 128 50
f 128 44 50
f 51 143 50
f 50 143 141
f 52 144 51
f 51 144 143
f 47 131 52
f 131 144 52
f 131 145 144
f 146 131 132
f 145 131 146
f 133 148 147
f 146 133 147
f 132 133 146
f 148 133 134
f 148 134 149
f 149 134 135
f 150 138 137
f 150 137 139
f 151 142 141
f 151 141 143
f 151 143 152
f 152 143 144
f 152 144 153
f 153 144 145
f 153 145 154
f 154 145 146
f 154 146 155
f 155 146 147
f 158 157 156
f 160 159 156
f 160 156 157
f 162 161 159
f 162 159 160
f 164 163 161
f 164 161 162
f 165 163 164
f 167 166 54
f 167 54 55
f 56 54 166
f 56 166 168
f 171 170 169
f 169 170 158
f 169 158 156
f 59 169 156
f 58 59 156
f 58 156 61
f 61 156 159
f 61 159 63
f 63 159 161
f 63 161 65
f 65 161 163
f 165 172 163
f 172 65 163
f 172 67 65
f 174 173 68
f 67 174 68
f 172 174 67
f 176 175 173
f 176 173 174
f 177 175 176
f 70 167 55
f 70 178 167
f 180 71 179
f 71 168 179
f 71 56 168
f 181 180 179
f 171 169 73
f 74 171 73
f 182 171 74
f 73 169 59
f 185 184 183
f 187 186 183
f 183 186 185
f 187 188 186
f 173 77 68
f 77 173 80
f 80 173 175
f 190 189 81
f 190 81 80
f 177 190 80
f 175 177 80
f 191 189 190
f 82 193 192
f 178 82 192
f 70 82 178
f 180 84 71
f 194 192 193
f 85 84 180
f 181 85 180
f 195 85 181
f 198 197 196
f 197 182 196
f 182 87 196
f 182 74 87
f 201 200 199
f 201 199 184
f 184 199 183
f 199 89 183
f 89 90 183
f 183 90 91
f 202 183 91
f 187 183 202
f 188 187 203
f 187 204 203
f 187 202 204
f 206 205 204
f 204 205 203
f 208 207 206
f 206 207 205
f 208 209 207
f 189 94 81
f 96 94 189
f 191 96 189
f 210 96 191
f 97 211 193
f 97 193 82
f 194 193 212
f 212 193 211
f 195 99 85
f 213 99 195
f 198 196 214
f 198 214 215
f 101 214 87
f 87 214 196
f 199 200 216
f 216 200 217
f 216 103 89
f 216 89 199
f 104 202 91
f 202 104 106
f 218 202 106
f 204 202 218
f 204 219 206
f 204 218 219
f 206 220 208
f 206 219 220
f 209 208 221
f 208 222 221
f 208 220 222
f 224 223 222
f 222 223 221
f 210 223 224
f 110 210 224
f 96 210 110
f 111 225 211
f 111 211 97
f 212 211 226
f 226 211 225
f 213 113 99
f 227 113 213
f 215 214 228
f 215 228 229
f 115 228 101
f 101 228 214
f 216 217 230
f 230 217 231
f 230 117 103
f 230 103 216
f 118 232 119
f 218 106 119
f 232 218 119
f 233 218 232
f 218 234 219
f 218 233 234
f 219 235 220
f 219 234 235
f 237 222 236
f 222 235 236
f 222 220 235
f 222 237 224
f 224 237 238
f 110 224 238
f 239 110 238
f 123 110 239
f 241 240 225
f 111 241 225
f 125 241 111
f 242 126 127
f 240 226 225
f 243 242 127
f 113 243 127
f 227 243 113
f 244 229 228
f 228 115 244
f 115 245 244
f 115 129 245
f 231 246 230
f 246 248 247
f 246 247 130
f 230 246 130
f 117 230 130
f 232 118 130
f 247 232 130
f 249 232 247
f 251 233 250
f 233 249 250
f 233 232 249
f 233 251 234
f 234 251 252
f 234 252 235
f 235 252 253
f 235 253 236
f 254 135 136
f 255 254 136
f 123 255 136
f 239 255 123
f 138 241 125
f 138 256 241
f 258 257 242
f 257 126 242
f 257 139 126
f 258 242 243
f 129 140 259
f 260 129 259
f 245 129 260
f 142 259 140
f 248 261 247
f 247 261 249
f 249 261 262
f 249 262 250
f 263 147 148
f 149 264 148
f 148 264 263
f 265 264 149
f 265 149 135
f 266 265 135
f 254 266 135
f 266 254 255
f 267 256 138
f 267 138 150
f 150 139 257
f 150 257 267
f 268 260 259
f 270 268 269
f 269 268 151
f 268 259 151
f 259 142 151
f 152 271 151
f 151 271 269
f 153 272 152
f 152 272 271
f 154 273 153
f 153 273 272
f 273 154 274
f 154 275 274
f 154 155 275
f 155 147 263
f 276 155 263
f 275 155 276
f 276 263 264
f 276 264 277
f 277 264 265
f 278 270 269
f 278 269 271
f 278 271 279
f 279 271 272
f 279 272 280
f 280 272 273
f 280 273 281
f 281 273 274
f 284 283 282
f 285 282 283
f 287 286 157
f 287 157 158
f 157 288 160
f 286 288 157
f 160 289 162
f 288 289 160
f 162 290 164
f 289 290 162
f 292 291 165
f 164 292 165
f 290 292 164
f 293 291 292
f 284 282 166
f 167 284 166
f 294 284 167
f 296 295 168
f 296 168 166
f 285 296 166
f 282 285 166
f 297 295 296
f 299 298 170
f 299 170 171
f 158 170 287
f 287 170 298
f 302 301 300
f 300 303 302
f 291 172 165
f 293 304 291
f 304 172 291
f 304 174 172
f 174 305 176
f 304 305 174
f 307 306 177
f 176 307 177
f 305 307 176
f 308 306 307
f 178 310 309
f 294 178 309
f 167 178 294
f 295 179 168
f 311 309 310
f 181 179 295
f 297 181 295
f 312 181 297
f 315 314 313
f 314 299 313
f 299 182 313
f 299 171 182
f 318 317 316
f 318 316 301
f 301 316 300
f 316 184 300
f 184 185 300
f 319 303 300
f 185 319 300
f 186 319 185
f 321 320 188
f 320 186 188
f 320 319 186
f 323 322 321
f 321 322 320
f 325 324 323
f 323 324 322
f 325 326 324
f 306 190 177
f 191 190 306
f 308 191 306
f 327 191 308
f 192 310 178
f 192 194 310
f 194 311 310
f 194 328 311
f 312 195 181
f 329 195 312
f 315 313 197
f 198 315 197
f 330 315 198
f 197 313 182
f 316 317 201
f 317 200 201
f 317 331 200
f 316 201 184
f 203 321 188
f 321 203 205
f 321 205 323
f 323 205 207
f 323 207 325
f 333 332 209
f 209 332 207
f 332 326 207
f 326 325 207
f 335 334 333
f 333 334 332
f 327 334 335
f 210 327 335
f 191 327 210
f 212 328 194
f 212 336 328
f 329 213 195
f 337 213 329
f 340 339 338
f 339 330 338
f 330 215 338
f 330 198 215
f 331 217 200
f 341 217 331
f 221 333 209
f 333 221 223
f 333 223 335
f 335 223 210
f 226 336 212
f 226 342 336
f 337 227 213
f 343 227 337
f 344 340 338
f 338 215 344
f 215 345 344
f 215 229 345
f 341 231 217
f 346 231 341
f 236 347 237
f 348 238 237
f 348 237 347
f 348 239 238
f 241 349 240
f 349 350 240
f 350 226 240
f 350 342 226
f 343 243 227
f 351 243 343
f 229 244 352
f 353 229 352
f 345 229 353
f 245 352 244
f 246 231 354
f 231 355 354
f 231 346 355
f 354 248 246
f 250 356 251
f 357 252 251
f 357 251 356
f 358 253 252
f 358 252 357
f 358 359 253
f 253 359 236
f 359 360 236
f 360 347 236
f 347 360 348
f 348 360 361
f 239 348 361
f 362 239 361
f 255 239 362
f 364 363 349
f 241 364 349
f 256 364 241
f 365 257 258
f 363 350 349
f 366 365 258
f 243 366 258
f 351 366 243
f 367 353 352
f 352 245 367
f 245 368 367
f 245 260 368
f 355 369 354
f 369 371 370
f 369 370 261
f 354 369 261
f 248 354 261
f 261 370 372
f 373 261 372
f 262 261 373
f 250 262 356
f 262 374 356
f 262 373 374
f 356 374 357
f 357 374 375
f 357 375 358
f 358 375 376
f 358 376 359
f 377 265 266
f 378 377 266
f 255 378 266
f 362 378 255
f 256 267 379
f 380 256 379
f 364 256 380
f 381 379 267
f 381 267 257
f 382 381 257
f 365 382 257
f 382 365 366
f 383 368 260
f 383 260 268
f 268 270 383
f 383 270 384
f 371 385 370
f 370 385 372
f 386 274 275
f 386 275 387
f 275 388 387
f 275 276 388
f 389 276 277
f 389 388 276
f 277 265 377
f 390 277 377
f 389 277 390
f 390 377 378
f 391 380 379
f 391 379 381
f 392 384 270
f 392 270 278
f 393 278 279
f 393 392 278
f 394 279 280
f 394 393 279
f 395 280 281
f 395 394 280
f 281 274 386
f 396 281 386
f 395 281 396
f 396 386 387
f 398 397 283
f 398 283 284
f 285 283 397
f 285 397 399
f 401 400 286
f 401 286 287
f 286 402 288
f 400 402 286
f 288 403 289
f 402 403 288
f 289 404 290
f 403 404 289
f 290 405 292
f 404 405 290
f 293 292 405
f 293 405 406
f 294 398 284
f 294 407 398
f 399 408 285
f 285 408 296
f 297 296 408
f 297 408 409
f 411 410 298
f 411 298 299
f 287 298 401
f 401 298 410
f 413 412 302
f 302 412 301
f 415 414 303
f 414 302 303
f 414 413 302
f 415 416 414
f 406 417 293
f 293 417 304
f 304 418 305
f 417 418 304
f 305 419 307
f 418 419 305
f 308 307 419
f 308 419 420
f 421 407 294
f 421 294 309
f 309 311 421
f 421 311 422
f 409 312 297
f 423 312 409
f 425 424 314
f 425 314 315
f 299 314 411
f 411 314 424
f 427 426 318
f 318 426 317
f 318 301 412
f 318 412 427
f 319 415 303
f 428 416 415
f 319 428 415
f 320 428 319
f 429 320 322
f 429 428 320
f 430 322 324
f 430 429 322
f 432 431 326
f 431 324 326
f 431 430 324
f 434 433 432
f 432 433 431
f 420 433 434
f 327 420 434
f 308 420 327
f 328 422 311
f 328 435 422
f 423 329 312
f 436 329 423
f 439 438 437
f 438 425 437
f 425 330 437
f 425 315 330
f 426 331 317
f 440 331 426
f 332 432 326
f 432 332 334
f 432 334 434
f 434 334 327
f 336 435 328
f 336 441 435
f 443 337 442
f 337 436 442
f 337 329 436
f 445 444 443
f 445 443 442
f 447 446 444
f 447 444 445
f 449 448 446
f 449 446 447
f 451 450 448
f 451 448 449
f 453 452 450
f 453 450 451
f 452 453 439
f 452 439 437
f 340 452 437
f 339 340 437
f 339 437 330
f 440 341 331
f 454 341 440
f 342 441 336
f 342 455 441
f 457 456 443
f 456 337 443
f 456 343 337
f 457 443 444
f 457 444 458
f 458 444 446
f 458 446 459
f 459 446 448
f 459 448 460
f 460 448 450
f 460 450 461
f 461 450 452
f 461 452 462
f 464 462 463
f 463 462 344
f 462 452 344
f 452 340 344
f 345 463 344
f 454 346 341
f 465 346 454
f 350 455 342
f 350 466 455
f 456 351 343
f 467 351 456
f 468 464 463
f 463 345 468
f 345 469 468
f 345 353 469
f 465 355 346
f 470 355 465
f 359 471 360
f 472 361 360
f 472 360 471
f 472 362 361
f 474 473 363
f 474 363 364
f 350 363 466
f 466 363 473
f 467 366 351
f 475 366 467
f 476 469 353
f 476 353 367
f 367 368 476
f 476 368 477
f 470 478 355
f 355 478 369
f 371 369 478
f 371 478 479
f 372 480 373
f 373 480 481
f 482 373 481
f 374 373 482
f 374 483 375
f 482 483 374
f 375 484 376
f 483 484 375
f 359 376 471
f 376 485 471
f 376 484 485
f 471 485 472
f 472 485 486
f 362 472 486
f 487 362 486
f 378 362 487
f 380 474 364
f 380 488 474
f 490 489 382
f 382 489 381
f 382 366 475
f 382 475 490
f 491 477 368
f 491 368 383
f 383 384 491
f 491 384 492
f 479 493 371
f 371 493 385
f 372 385 480
f 385 494 480
f 385 493 494
f 480 494 481
f 496 495 388
f 388 495 387
f 497 388 389
f 497 496 388
f 498 389 390
f 498 497 389
f 390 378 487
f 390 487 498
f 499 488 380
f 499 380 391
f 391 381 489
f 391 489 499
f 500 492 384
f 500 384 392
f 501 392 393
f 501 500 392
f 502 393 394
f 502 501 393
f 503 394 395
f 503 502 394
f 504 395 396
f 504 503 395
f 396 387 495
f 396 495 504
f 506 505 397
f 506 397 398
f 399 397 505
f 399 505 507
f 509 508 400
f 509 400 401
f 400 510 402
f 508 510 400
f 402 511 403
f 510 511 402
f 403 512 404
f 511 512 403
f 404 513 405
f 512 513 404
f 406 405 513
f 406 513 514
f 407 506 398
f 407 515 506
f 507 516 399
f 399 516 408
f 409 408 516
f 409 516 517
f 519 518 410
f 519 410 411
f 401 410 509
f 509 410 518
f 521 520 413
f 413 520 412
f 523 521 522
f 521 414 522
f 521 413 414
f 416 522 414
f 514 524 406
f 406 524 417
f 417 525 418
f 524 525 417
f 418 526 419
f 525 526 418
f 420 419 526
f 420 526 527
f 528 515 407
f 528 407 421
f 421 422 528
f 528 422 529
f 517 423 409
f 530 423 517
f 532 531 424
f 532 424 425
f 411 424 519
f 519 424 531
f 534 533 427
f 427 533 426
f 427 412 520
f 427 520 534
f 535 523 522
f 535 522 416
f 428 535 416
f 536 535 428
f 537 428 429
f 537 536 428
f 538 429 430
f 538 537 429
f 540 538 539
f 538 431 539
f 538 430 431
f 433 541 431
f 431 541 539
f 542 541 433
f 420 542 433
f 527 542 420
f 435 529 422
f 435 543 529
f 530 436 423
f 544 436 530
f 439 545 438
f 545 546 438
f 546 425 438
f 546 532 425
f 533 440 426
f 547 440 533
f 548 540 539
f 548 539 541
f 548 541 549
f 549 541 542
f 441 543 435
f 441 550 543
f 442 436 551
f 436 552 551
f 436 544 552
f 553 445 442
f 553 442 551
f 554 447 445
f 554 445 553
f 555 449 447
f 555 447 554
f 556 451 449
f 556 449 555
f 557 453 451
f 557 451 556
f 557 558 453
f 453 558 439
f 558 559 439
f 559 545 439
f 545 559 546
f 547 454 440
f 560 454 547
f 455 550 441
f 455 561 550
f 551 552 457
f 552 456 457
f 552 562 456
f 551 457 458
f 551 458 553
f 553 458 459
f 553 459 554
f 554 459 460
f 554 460 555
f 555 460 461
f 555 461 556
f 556 461 462
f 556 462 557
f 564 563 464
f 464 563 462
f 563 558 462
f 558 557 462
f 564 565 563
f 560 465 454
f 566 465 560
f 466 561 455
f 466 567 561
f 562 467 456
f 568 467 562
f 468 564 464
f 468 469 564
f 469 565 564
f 469 569 565
f 566 470 465
f 570 470 566
f 573 572 571
f 575 574 571
f 575 571 572
f 576 574 575
f 578 577 473
f 578 473 474
f 466 473 567
f 567 473 577
f 568 475 467
f 579 475 568
f 580 569 469
f 580 469 476
f 476 477 580
f 580 477 581
f 570 582 470
f 470 582 478
f 479 478 582
f 479 582 583
f 586 585 584
f 482 481 584
f 585 482 584
f 587 482 585
f 482 588 483
f 587 588 482
f 483 589 484
f 588 589 483
f 571 485 573
f 485 589 573
f 485 484 589
f 485 571 486
f 486 571 574
f 487 486 574
f 576 487 574
f 590 487 576
f 488 578 474
f 488 591 578
f 593 592 490
f 490 592 489
f 490 475 579
f 490 579 593
f 594 581 477
f 594 477 491
f 491 492 594
f 594 492 595
f 583 596 479
f 479 596 493
f 584 494 586
f 494 596 586
f 494 493 596
f 494 584 481
f 598 597 496
f 496 597 495
f 599 496 497
f 599 598 496
f 600 497 498
f 600 599 497
f 498 487 590
f 498 590 600
f 601 591 488
f 601 488 499
f 499 489 592
f 499 592 601
f 602 595 492
f 602 492 500
f 603 500 501
f 603 602 500
f 604 501 502
f 604 603 501
f 605 502 503
f 605 604 502
f 606 503 504
f 606 605 503
f 504 495 597
f 504 597 606
f 506 607 505
f 607 507 505
f 609 608 508
f 609 508 509
f 508 610 510
f 608 610 508
f 510 611 511
f 610 611 510
f 511 612 512
f 611 612 511
f 612 614 613
f 513 612 613
f 512 612 513
f 613 514 513
f 616 615 607
f 506 616 607
f 515 616 506
f 615 618 617
f 615 617 516
f 607 615 516
f 507 607 516
f 617 517 516
f 620 619 518
f 620 518 519
f 509 518 609
f 609 518 619
f 621 520 521
f 523 621 521
f 614 622 613
f 613 622 514
f 622 524 514
f 622 623 524
f 524 624 525
f 623 624 524
f 624 626 625
f 526 624 625
f 525 624 526
f 625 527 526
f 515 528 627
f 628 515 627
f 616 515 628
f 618 629 617
f 627 528 529
f 517 617 629
f 630 517 629
f 530 517 630
f 532 631 531
f 631 632 531
f 632 519 531
f 632 620 519
f 633 533 534
f 634 633 534
f 634 534 520
f 635 634 520
f 621 635 520
f 635 621 523
f 535 635 523
f 636 635 535
f 638 636 637
f 636 536 637
f 636 535 536
f 537 639 536
f 536 639 637
f 538 640 537
f 537 640 639
f 540 640 538
f 626 641 625
f 527 625 641
f 642 527 641
f 542 527 642
f 643 628 627
f 627 529 643
f 529 644 643
f 529 543 644
f 630 544 530
f 645 544 630
f 647 646 631
f 532 647 631
f 546 647 532
f 631 646 632
f 649 648 633
f 648 533 633
f 648 547 533
f 649 633 634
f 650 638 637
f 650 637 639
f 650 639 651
f 651 639 640
f 651 640 652
f 654 652 653
f 653 652 548
f 652 640 548
f 640 540 548
f 549 655 548
f 548 655 653
f 656 655 549
f 542 656 549
f 642 656 542
f 550 644 543
f 550 657 644
f 645 552 544
f 658 552 645
f 558 659 559
f 659 660 559
f 660 546 559
f 660 647 546
f 648 560 547
f 661 560 648
f 662 654 653
f 662 653 655
f 662 655 663
f 663 655 656
f 561 657 550
f 561 664 657
f 658 562 552
f 665 562 658
f 563 659 558
f 563 565 659
f 565 660 659
f 565 666 660
f 661 566 560
f 667 566 661
f 670 669 668
f 672 671 668
f 672 668 669
f 673 671 672
f 676 675 674
f 675 664 674
f 664 567 674
f 664 561 567
f 665 568 562
f 677 568 665
f 569 679 678
f 666 569 678
f 565 569 666
f 679 680 678
f 682 570 681
f 570 667 681
f 570 566 667
f 683 682 681
f 686 685 684
f 688 687 684
f 688 684 685
f 690 689 687
f 690 687 688
f 689 690 670
f 689 670 668
f 573 689 668
f 572 573 668
f 572 668 575
f 575 668 671
f 576 575 671
f 673 576 671
f 691 576 673
f 676 674 577
f 578 676 577
f 692 676 578
f 577 674 567
f 695 694 693
f 677 693 694
f 579 677 694
f 568 677 579
f 580 679 569
f 580 581 679
f 581 680 679
f 581 696 680
f 682 582 570
f 698 697 583
f 698 583 582
f 683 698 582
f 682 683 582
f 585 586 697
f 698 585 697
f 699 585 698
f 684 587 686
f 587 699 686
f 587 585 699
f 587 684 588
f 588 684 687
f 588 687 589
f 589 687 689
f 589 689 573
f 702 701 700
f 691 702 700
f 590 691 700
f 576 691 590
f 591 704 703
f 692 591 703
f 578 591 692
f 703 704 695
f 695 704 694
f 704 592 694
f 592 593 694
f 694 593 579
f 705 696 581
f 705 581 594
f 594 595 705
f 705 595 706
f 697 596 583
f 596 697 586
f 709 708 707
f 597 598 707
f 598 709 707
f 598 710 709
f 711 598 599
f 711 710 598
f 600 700 701
f 711 600 701
f 599 600 711
f 700 600 590
f 601 704 591
f 704 601 592
f 712 706 595
f 712 595 602
f 713 602 603
f 713 712 602
f 714 603 604
f 714 713 603
f 715 604 605
f 715 714 604
f 606 707 708
f 715 606 708
f 605 606 715
f 707 606 597
f 609 716 608
f 717 610 608
f 717 608 716
f 718 611 610
f 718 610 717
f 719 612 611
f 719 611 718
f 719 614 612
f 721 720 615
f 721 615 616
f 618 615 720
f 618 720 722
f 620 723 619
f 723 724 619
f 619 724 609
f 724 725 609
f 725 716 609
f 716 725 717
f 717 725 726
f 717 726 718
f 718 726 727
f 718 727 719
f 719 727 728
f 719 728 614
f 728 622 614
f 728 729 622
f 729 731 730
f 623 729 730
f 622 729 623
f 732 624 623
f 732 623 730
f 732 626 624
f 628 721 616
f 628 733 721
f 629 618 734
f 618 735 734
f 618 722 735
f 734 630 629
f 737 736 723
f 620 737 723
f 632 737 620
f 723 736 724
f 738 634 635
f 636 739 635
f 635 739 738
f 638 739 636
f 731 740 730
f 730 740 732
f 732 740 741
f 732 741 626
f 741 641 626
f 741 742 641
f 642 641 742
f 642 742 743
f 628 643 744
f 745 628 744
f 733 628 745
f 735 746 734
f 744 643 644
f 630 734 746
f 747 630 746
f 645 630 747
f 647 748 646
f 748 749 646
f 749 632 646
f 749 737 632
f 750 648 649
f 634 738 649
f 738 750 649
f 738 751 750
f 752 738 739
f 751 738 752
f 650 753 638
f 753 739 638
f 753 752 739
f 651 754 650
f 650 754 753
f 652 755 651
f 651 755 754
f 654 755 652
f 743 656 642
f 756 656 743
f 745 744 757
f 745 757 758
f 657 757 644
f 644 757 744
f 747 658 645
f 759 658 747
f 660 760 748
f 660 748 647
f 749 748 761
f 761 748 760
f 762 661 750
f 750 661 648
f 751 764 763
f 762 751 763
f 750 751 762
f 764 751 752
f 764 752 765
f 767 766 765
f 752 767 765
f 753 767 752
f 768 753 754
f 767 753 768
f 769 754 755
f 768 754 769
f 662 770 654
f 770 755 654
f 770 769 755
f 663 771 662
f 662 771 770
f 772 771 663
f 656 772 663
f 756 772 656
f 758 757 773
f 758 773 774
f 664 773 657
f 657 773 757
f 759 665 658
f 775 665 759
f 666 776 760
f 666 760 660
f 761 760 777
f 777 760 776
f 778 667 762
f 762 667 661
f 762 763 779
f 780 762 779
f 778 762 780
f 782 781 780
f 782 780 779
f 781 782 766
f 767 781 766
f 783 781 767
f 784 767 768
f 783 767 784
f 785 768 769
f 784 768 785
f 670 785 669
f 785 770 669
f 785 769 770
f 669 770 672
f 672 770 771
f 673 672 771
f 772 673 771
f 786 673 772
f 774 773 675
f 676 774 675
f 787 774 676
f 675 773 664
f 790 789 788
f 775 788 789
f 677 775 789
f 665 775 677
f 678 776 666
f 678 680 776
f 680 777 776
f 680 791 777
f 778 681 667
f 681 778 683
f 778 792 683
f 778 780 792
f 793 780 781
f 792 780 793
f 686 793 685
f 793 783 685
f 793 781 783
f 685 783 688
f 688 783 784
f 688 784 690
f 690 784 785
f 690 785 670
f 796 795 794
f 786 796 794
f 691 786 794
f 673 786 691
f 692 787 676
f 692 797 787
f 789 790 693
f 790 695 693
f 790 798 695
f 789 693 677
f 696 800 799
f 791 696 799
f 680 696 791
f 800 801 799
f 792 698 683
f 698 792 699
f 699 792 793
f 699 793 686
f 804 803 802
f 806 805 802
f 802 805 804
f 805 806 795
f 795 806 794
f 806 701 794
f 701 702 794
f 794 702 691
f 807 797 692
f 807 692 703
f 703 695 798
f 703 798 807
f 705 800 696
f 809 808 706
f 706 808 705
f 808 801 705
f 801 800 705
f 811 810 809
f 809 810 808
f 813 812 811
f 811 812 810
f 815 814 813
f 813 814 812
f 708 709 815
f 709 814 815
f 709 816 814
f 710 802 803
f 816 710 803
f 709 710 816
f 802 710 711
f 802 711 806
f 806 711 701
f 712 809 706
f 809 712 713
f 809 713 811
f 811 713 714
f 811 714 813
f 813 714 715
f 813 715 815
f 815 715 708
f 721 817 720
f 817 722 720
f 724 818 725
f 819 726 725
f 819 725 818
f 820 727 726
f 820 726 819
f 821 728 727
f 821 727 820
f 822 729 728
f 822 728 821
f 822 731 729
f 733 823 817
f 733 817 721
f 823 735 722
f 823 722 817
f 737 824 736
f 824 825 736
f 736 825 724
f 825 826 724
f 826 818 724
f 818 826 819
f 819 826 827
f 819 827 820
f 820 827 828
f 830 829 828
f 829 820 828
f 829 821 820
f 821 831 822
f 821 829 831
f 832 740 731
f 822 832 731
f 831 832 822
f 833 741 740
f 833 740 832
f 834 742 741
f 834 741 833
f 834 743 742
f 836 835 823
f 733 836 823
f 745 836 733
f 835 838 837
f 835 837 746
f 823 835 746
f 735 823 746
f 837 747 746
f 749 839 824
f 749 824 737
f 825 824 840
f 840 824 839
f 830 841 829
f 829 841 831
f 831 841 842
f 844 843 842
f 843 831 842
f 843 832 831
f 832 845 833
f 832 843 845
f 833 846 834
f 833 845 846
f 846 756 743
f 846 743 834
f 758 836 745
f 758 847 836
f 837 838 848
f 848 838 849
f 848 759 747
f 848 747 837
f 761 850 839
f 761 839 749
f 840 839 851
f 851 839 850
f 852 763 764
f 765 853 764
f 764 853 852
f 766 853 765
f 843 844 854
f 854 844 855
f 843 856 845
f 843 854 856
f 845 857 846
f 845 856 857
f 857 772 756
f 857 756 846
f 774 847 758
f 774 858 847
f 848 849 859
f 859 849 860
f 859 775 759
f 859 759 848
f 777 861 850
f 777 850 761
f 851 850 862
f 862 850 861
f 852 779 763
f 779 852 782
f 782 852 853
f 782 853 766
f 854 855 863
f 863 855 864
f 854 865 856
f 854 863 865
f 856 866 857
f 856 865 866
f 866 786 772
f 866 772 857
f 787 868 867
f 858 787 867
f 774 787 858
f 867 868 860
f 860 868 859
f 868 790 859
f 790 788 859
f 859 788 775
f 791 869 861
f 791 861 777
f 862 861 870
f 870 861 869
f 873 872 871
f 875 874 871
f 871 874 873
f 874 875 864
f 875 863 864
f 875 876 863
f 863 877 865
f 863 876 877
f 877 795 796
f 866 877 796
f 865 877 866
f 866 796 786
f 797 878 868
f 797 868 787
f 878 798 790
f 878 790 868
f 799 869 791
f 880 879 801
f 801 879 799
f 879 870 799
f 870 869 799
f 882 881 880
f 880 881 879
f 884 883 882
f 882 883 881
f 883 884 872
f 884 871 872
f 884 885 871
f 871 886 875
f 871 885 886
f 886 803 804
f 876 886 804
f 875 886 876
f 876 804 805
f 876 805 877
f 877 805 795
f 807 878 797
f 878 807 798
f 808 880 801
f 880 808 810
f 880 810 882
f 882 810 812
f 882 812 884
f 884 812 814
f 884 814 885
f 885 814 816
f 885 816 886
f 886 816 803
f 825 887 826
f 888 827 826
f 888 826 887
f 889 828 827
f 889 827 888
f 889 830 828
f 836 890 835
f 890 838 835
f 840 891 887
f 840 887 825
f 887 892 888
f 887 891 892
f 888 893 889
f 888 892 893
f 894 841 830
f 889 894 830
f 893 894 889
f 895 842 841
f 895 841 894
f 895 844 842
f 847 896 890
f 847 890 836
f 896 849 838
f 896 838 890
f 851 897 891
f 851 891 840
f 891 898 892
f 891 897 898
f 892 899 893
f 892 898 899
f 893 900 894
f 893 899 900
f 894 901 895
f 894 900 901
f 901 855 844
f 901 844 895
f 858 902 896
f 858 896 847
f 902 860 849
f 902 849 896
f 862 903 897
f 862 897 851
f 897 904 898
f 897 903 904
f 898 905 899
f 898 904 905
f 899 906 900
f 899 905 906
f 900 907 901
f 900 906 907
f 907 864 855
f 907 855 901
f 867 902 858
f 902 867 860
f 870 908 903
f 870 903 862
f 903 909 904
f 903 908 909
f 904 910 905
f 904 909 910
f 910 872 873
f 906 910 873
f 905 910 906
f 906 873 874
f 906 874 907
f 907 874 864
f 879 908 870
f 908 879 881
f 908 881 909
f 909 881 883
f 909 883 910
f 910 883 872

