# https://github.com/mikedh/trimesh
v -0.02777310 -0.00389931 -0.01601080
v -0.02495870 -0.00672102 -0.01545253
v -0.02646520 -0.00475547 -0.01828081
v -0.02568060 -0.00542256 -0.01319379
v -0.02765371 -0.00145809 -0.01972874
v -0.02467916 -0.00267474 -0.02095960
v -0.02509628 0.00002314 -0.02210326
v -0.02773453 -0.00025282 -0.01690403
v -0.02631194 -0.00181939 -0.01356807
v -0.02621636 0.00125346 -0.01989977
v -0.02532325 0.00159301 -0.01622288
v -0.02060742 -0.00721168 -0.01578081
v -0.02178150 -0.00502363 -0.01830577
v -0.02386504 -0.00437936 -0.00989089
v -0.02138515 -0.00779236 -0.01228820
v -0.02325750 -0.00467869 -0.00500876
v -0.02096894 -0.00756672 -0.00672863
v -0.02282095 -0.00424873 -0.00142867
v -0.02143197 -0.00652774 -0.00240844
v -0.02059257 -0.00579520 0.00057503
v -0.02067346 -0.00230801 -0.02058996
v -0.02207651 -0.00071283 -0.02212658
v -0.02432650 0.00041363 -0.01179422
v -0.02326925 -0.00030383 -0.00747851
v -0.02292608 -0.00111668 -0.00295348
v -0.02133065 -0.00193042 0.00052679
v -0.02261930 0.00191499 -0.02022712
v -0.02316850 0.00420359 -0.01508190
v -0.01961943 0.00440331 -0.01820579
v -0.02315322 0.00433603 -0.01045448
v -0.02096959 0.00454478 -0.00820732
v -0.02126424 0.00216673 -0.00505423
v -0.02094984 0.00122405 -0.00128077
v -0.02171563 0.00717868 -0.01510531
v -0.02157929 0.01079056 -0.01368250
v -0.02293961 0.00903108 -0.01157063
v -0.02139017 0.00850030 -0.00929135
v -0.02267744 0.01326745 -0.01119236
v -0.02086733 0.01431387 -0.01341049
v -0.02090630 0.01273939 -0.00941141
v -0.02004144 0.01560630 -0.01127129
v -0.01846127 -0.01431990 -0.00994871
v -0.01541070 -0.01642626 -0.01070058
v -0.01676948 -0.01386239 -0.01269041
v -0.01830003 -0.01371753 -0.00659222
v -0.01636072 -0.01651117 -0.00678807
v -0.01570581 -0.01417717 -0.00410556
v -0.01913424 -0.01063511 -0.01070818
v -0.01629098 -0.01066999 -0.01332421
v -0.01888228 -0.01043303 -0.00674191
v -0.01608478 -0.01023345 -0.00406302
v -0.01853713 -0.00891653 0.00350026
v -0.01553190 -0.01218824 0.00312386
v -0.01622224 -0.00991941 0.00119052
v -0.01838134 -0.00900293 0.00769570
v -0.01607256 -0.01216883 0.00796038
v -0.01574247 -0.01067680 0.01015258
v -0.01583577 -0.00778204 -0.01541317
v -0.01698843 -0.00544653 -0.01757100
v -0.01734047 -0.00817076 -0.00157103
v -0.01960873 -0.00424442 0.00370908
v -0.01877362 -0.00505546 0.00803158
v -0.01590457 -0.00617182 0.01016529
v -0.01957716 0.00024328 -0.02062569
v -0.01679788 -0.00111136 -0.01886009
v -0.01939190 0.00069881 0.00296241
v -0.01906131 -0.00050530 0.00794840
v -0.01622922 -0.00287825 0.01263766
v -0.01827125 -0.00023696 0.01215829
v -0.01603164 -0.00044761 0.01514433
v -0.01552430 0.00376232 -0.01839170
v -0.01884076 0.00538007 -0.00595781
v -0.01941926 0.00430874 -0.00115775
v -0.01893831 0.00432138 0.00320970
v -0.01856438 0.00490238 0.00737640
v -0.01858662 0.00435069 0.01218671
v -0.01677577 0.00334712 0.01523194
v -0.01964058 0.00890536 -0.01630931
v -0.01627064 0.00860123 -0.01758413
v -0.01757492 0.00887601 -0.00831344
v -0.01563787 0.00730085 -0.00623825
v -0.01526429 0.00849216 -0.00404339
v -0.01806062 0.00780874 -0.00254652
v -0.01830052 0.00803639 0.00249329
v -0.01621790 0.00913885 0.00583270
v -0.01701458 0.00759140 0.00861781
v -0.01593367 0.00988117 0.01030000
v -0.01798520 0.00804526 0.01165863
v -0.01688472 0.00792030 0.01494114
v -0.01873399 0.01272860 -0.01604682
v -0.01618251 0.01309582 -0.01717756
v -0.01562362 0.01406715 -0.00869096
v -0.01551248 0.01115654 -0.00095107
v -0.01624888 0.01049235 0.00284272
v -0.01571936 0.01056371 0.01387612
v -0.01710119 0.01566437 -0.01457364
v -0.01656329 0.01633467 -0.01157293
v -0.01143871 -0.01676824 -0.01076774
v -0.01202368 -0.01369003 -0.01356927
v -0.01199765 -0.01723600 -0.00630579
v -0.01361497 -0.01395578 -0.00060176
v -0.01227241 -0.01680663 -0.00177716
v -0.01363399 -0.01459393 0.00357229
v -0.01192680 -0.01630864 0.00229642
v -0.01038513 -0.01490983 0.00541117
v -0.01421009 -0.01394197 0.01301320
v -0.01096084 -0.01734492 0.01303433
v -0.01200217 -0.01486966 0.01047157
v -0.01366932 -0.01364446 0.01764523
v -0.01219898 -0.01615732 0.01656496
v -0.01116053 -0.01468854 0.01915088
v -0.01127103 -0.00932119 -0.01385431
v -0.01174232 -0.01041974 -0.00314379
v -0.01037054 -0.01153901 -0.00207738
v -0.01212237 -0.01042379 -0.00006941
v -0.01292605 -0.01269609 0.00722287
v -0.01389413 -0.01208250 0.00985995
v -0.01231365 -0.01241374 0.01229962
v -0.01219976 -0.00963622 0.00975085
v -0.01053734 -0.00920393 0.01535692
v -0.01354511 -0.01098689 0.01639896
v -0.01116963 -0.01060471 0.01940240
v -0.01182978 -0.00726858 -0.01590487
v -0.01214477 -0.00428446 -0.01761195
v -0.01138066 -0.00827496 -0.00158311
v -0.01076215 -0.00475997 0.01062112
v -0.01145815 -0.00771787 0.01791530
v -0.01210661 0.00034604 -0.01839291
v -0.01199130 -0.00295316 0.01335493
v -0.01399717 0.00104200 0.01761989
v -0.01302419 -0.00218963 0.01639543
v -0.01071324 -0.00117979 0.01909150
v -0.01142470 0.00389345 -0.01746816
v -0.01446602 0.00574986 0.01761351
v -0.01135508 0.00341320 0.01945706
v -0.01255214 0.00694669 -0.01607814
v -0.01390056 0.01056874 -0.01602131
v -0.01072704 0.00799556 -0.01403838
v -0.01250123 0.00912700 -0.00770756
v -0.01214105 0.00768968 -0.00613425
v -0.01244733 0.00967311 -0.00483006
v -0.01560620 0.00933689 0.00794435
v -0.01450998 0.00953054 0.01692827
v -0.01114554 0.00868243 0.01921281
v -0.01417957 0.01414561 -0.01540191
v -0.01072680 0.01363216 -0.01351759
v -0.01180835 0.01094521 -0.00675229
v -0.01403009 0.01335030 -0.00511626
v -0.01375693 0.01498565 -0.00254441
v -0.01187037 0.01357228 0.00022867
v -0.01251158 0.01174967 0.00316469
v -0.01393931 0.01345856 0.00768527
v -0.01083779 0.01430973 0.00469475
v -0.01254952 0.01129724 0.01189992
v -0.01096741 0.01352381 0.01028513
v -0.01152474 0.01181092 0.01641735
v -0.01328287 0.01662486 -0.01143213
v -0.01353871 0.01745630 -0.00650243
v -0.01117915 0.01943421 -0.00911795
v -0.01196095 0.01809822 -0.00385137
v -0.01073922 0.01613755 -0.00156150
v -0.01110828 0.01812747 0.00139004
v -0.01340154 0.01767290 0.00410675
v -0.01065242 0.01662976 0.00269533
v -0.01357876 0.01905051 0.00693141
v -0.01136616 0.01757193 0.00958397
v -0.01039409 0.02028301 -0.00653624
v -0.01172800 0.02036558 0.00447178
v -0.01092075 0.02067023 0.00804049
v -0.00851875 -0.01928324 -0.01957755
v -0.00597783 -0.02094903 -0.01988812
v -0.00719322 -0.01948665 -0.02190222
v -0.00908064 -0.01953185 -0.01511039
v -0.00723123 -0.02141588 -0.01660002
v -0.00910358 -0.01847909 -0.01108754
v -0.00699976 -0.02078362 -0.01222784
v -0.00655894 -0.01890893 -0.00940267
v -0.00844398 -0.01950484 0.01308430
v -0.00594103 -0.02093397 0.01192176
v -0.00789656 -0.01873893 0.01065822
v -0.00545510 -0.01984548 0.01467634
v -0.00756293 -0.01733241 -0.02048710
v -0.00551244 -0.01458740 -0.01829502
v -0.00938454 -0.01607789 -0.01595920
v -0.00768947 -0.01760618 -0.00733100
v -0.00717801 -0.01761184 -0.00190311
v -0.00818835 -0.01668508 0.00275769
v -0.00579379 -0.01399803 0.00562767
v -0.00635646 -0.01449070 0.01062046
v -0.00837873 -0.01732011 0.01684110
v -0.00714677 -0.01419769 0.01959071
v -0.00756944 -0.01249182 -0.01550428
v -0.00733283 -0.00982294 -0.01315448
v -0.00727267 -0.01005052 -0.00275428
v -0.00723103 -0.01075062 -0.00132120
v -0.00717557 -0.00921154 -0.00054137
v -0.00841788 -0.01206578 0.00796982
v -0.00757468 -0.00865012 0.00961751
v -0.00809729 -0.01173372 0.01288977
v -0.00613976 -0.00884080 0.01420602
v -0.00644410 -0.01061895 0.02009638
v -0.00911120 -0.00536142 -0.01495292
v -0.00755109 -0.00683382 -0.01136127
v -0.00780771 -0.00451586 -0.01146674
v -0.00678163 -0.00484296 -0.00959664
v -0.00721721 -0.00851145 -0.00197445
v -0.00632536 -0.00594398 0.01033033
v -0.00993462 -0.00445530 0.01691853
v -0.00730293 -0.00586397 0.01546858
v -0.00776689 -0.00571507 0.01956441
v -0.00716347 -0.00318840 -0.01451316
v -0.00786397 -0.00111595 -0.01759888
v -0.00647607 -0.00374280 -0.01148761
v -0.00932517 0.00003059 0.01252003
v -0.00722898 -0.00080919 0.01063572
v -0.00703639 -0.00097086 0.01437173
v -0.00709448 -0.00031639 0.01994283
v -0.00670856 0.00239072 -0.01686646
v -0.00971725 0.00477285 -0.01519500
v -0.00654614 0.00549681 -0.01396953
v -0.00852577 0.00443543 0.01245791
v -0.00666781 0.00487946 0.01093230
v -0.00636163 0.00462718 0.01398048
v -0.00719542 0.00449948 0.01999033
v -0.00766376 0.00947279 -0.01315335
v -0.01026726 0.00870279 -0.00652956
v -0.00921718 0.00916340 0.01298967
v -0.00801214 0.00995358 0.01065002
v -0.00723159 0.00845196 0.01432734
v -0.00658012 0.00858213 0.02001858
v -0.00633774 0.01309356 -0.01336412
v -0.00769325 0.01454275 0.00135872
v -0.00790386 0.01235718 0.00341015
v -0.00620880 0.01471422 0.00550587
v -0.00624284 0.01439506 0.01028698
v -0.00695301 0.01355062 0.01521966
v -0.00894041 0.01426382 0.01751693
v -0.00751108 0.01268682 0.01925874
v -0.00980973 0.01830550 -0.01156116
v -0.00653296 0.01734709 -0.01261220
v -0.00803918 0.01880344 -0.00386849
v -0.00734681 0.01678474 -0.00104427
v -0.00998025 0.01569444 0.00033790
v -0.00910649 0.01827895 0.00275542
v -0.00790979 0.01750904 0.00547605
v -0.00790333 0.01910918 0.00951065
v -0.00622146 0.01519927 0.01791862
v -0.00742562 0.02053447 -0.00975938
v -0.00613192 0.02072558 -0.00635261
v -0.00803680 0.02031911 0.00689809
v -0.00571962 -0.01879422 -0.02082307
v -0.00295452 -0.01909206 -0.01877586
v -0.00287261 -0.02130479 -0.01565778
v -0.00439192 -0.01978339 -0.01153812
v -0.00076208 -0.01951496 -0.01315190
v -0.00087862 -0.02111974 -0.00597788
v -0.00189209 -0.01927725 -0.00856690
v -0.00427474 -0.01913598 -0.00566131
v -0.00409253 -0.01919660 -0.00113910
v -0.00241909 -0.02102641 -0.00259952
v -0.00096417 -0.01893989 0.00060769
v -0.00300696 -0.02092414 0.01275386
v -0.00343451 -0.01928732 0.01073083
v -0.00231487 -0.01982181 0.01460381
v -0.00136106 -0.01548687 -0.01843937
v -0.00281055 -0.01813399 -0.00984115
v -0.00295068 -0.01738109 0.00325437
v -0.00195815 -0.01488530 0.00521927
v -0.00072671 -0.01478027 0.01017085
v -0.00251943 -0.01732286 0.01672021
v -0.00268654 -0.01343821 0.01919055
v -0.00500096 -0.00938768 -0.01538458
v -0.00217095 -0.01027208 -0.01790816
v -0.00532487 -0.00960885 -0.00158929
v -0.00519566 -0.00975332 0.00783821
v -0.00171940 -0.00959388 0.00608525
v -0.00505409 -0.00968364 0.01177714
v -0.00283248 -0.00977822 0.01041875
v -0.00205617 -0.00872955 0.02011729
v -0.00479003 -0.00448016 -0.01590216
v -0.00118399 -0.00504921 -0.01796877
v -0.00552086 -0.00601887 -0.01160604
v -0.00406272 -0.00547857 0.00869009
v -0.00177353 -0.00484268 0.00507162
v -0.00490724 -0.00793627 0.00982683
v -0.00208626 -0.00754042 0.01233439
v -0.00322104 -0.00511829 0.01480257
v -0.00277946 -0.00485325 0.01955355
v -0.00330650 -0.00077997 -0.02487152
v -0.00190786 -0.00151125 -0.02485065
v -0.00218349 -0.00044725 -0.02670271
v -0.00423164 -0.00075080 -0.02039601
v -0.00214017 -0.00202572 -0.02147689
v -0.00179004 -0.00315274 0.00721299
v -0.00181896 -0.00309165 0.01233744
v -0.00493905 0.00004321 0.01240650
v -0.00231340 -0.00049309 0.01965739
v -0.00258449 0.00062864 -0.02483481
v -0.00268984 0.00172247 -0.02045348
v -0.00421420 0.00387964 -0.01617326
v -0.00078170 0.00428244 -0.01793291
v -0.00485476 0.00409245 0.01244114
v -0.00158107 0.00462605 0.01957434
v -0.00284483 0.00617221 -0.01512863
v -0.00322443 0.00969363 -0.01391225
v -0.00258351 0.00880832 0.01049756
v -0.00294826 0.00632981 0.01289079
v -0.00265108 0.00883620 0.01452911
v -0.00295293 0.00979625 0.02006659
v -0.00288258 0.01476566 -0.01315088
v -0.00483547 0.01468742 0.00392902
v -0.00178723 0.01112765 0.01262781
v -0.00429564 0.01454232 0.01202156
v -0.00164573 0.01400634 0.01962214
v -0.00207132 0.01659861 -0.01067724
v -0.00417975 0.01927135 -0.01057988
v -0.00165965 0.01809092 -0.00846098
v -0.00296994 0.01823230 -0.00444079
v -0.00250681 0.01630993 -0.00162575
v -0.00389521 0.01747596 0.00234474
v -0.00188642 0.01918796 0.00045253
v -0.00551377 0.01767711 0.00801659
v -0.00295890 0.01573686 0.00753735
v -0.00182576 0.01749809 0.00488790
v -0.00140797 0.01794114 0.01039322
v -0.00408777 0.01785897 0.01332951
v -0.00286483 0.01701888 0.01700824
v -0.00244739 0.01905205 0.01495502
v -0.00304805 0.02023786 -0.00754044
v -0.00111871 0.02022198 0.00290157
v -0.00126789 0.02044935 0.01369773
v 0.00170766 -0.02076593 -0.01555962
v 0.00131289 -0.01921939 -0.01750254
v 0.00319677 -0.01870171 -0.01385488
v 0.00260797 -0.02101666 -0.00544097
v 0.00113876 -0.01938174 -0.00870312
v 0.00104191 -0.02134869 -0.00212120
v 0.00202032 -0.01929407 0.00001942
v 0.00027677 -0.01853651 0.00696151
v 0.00358369 -0.02106601 0.00755573
v 0.00168448 -0.01851657 0.00552986
v -0.00068245 -0.01893233 0.01285922
v 0.00353597 -0.01950181 0.00978086
v 0.00261408 -0.01435480 -0.01791547
v 0.00277121 -0.01798034 -0.01054588
v -0.00025320 -0.01531930 0.00353305
v 0.00279958 -0.01487904 0.00126495
v 0.00222550 -0.01489443 0.00545306
v 0.00024784 -0.01659228 0.00578895
v 0.00045774 -0.01510956 0.00785312
v 0.00166178 -0.01696560 0.01290833
v 0.00035027 -0.01499336 0.01685187
v 0.00320486 -0.01446209 0.01508619
v 0.00264234 -0.00884357 -0.01796836
v 0.00068847 -0.00994633 0.00400555
v 0.00226959 -0.00891854 0.00108277
v -0.00040292 -0.01271298 0.00509361
v 0.00223269 -0.01219724 0.00679343
v 0.00117133 -0.00948078 0.00958856
v 0.00022665 -0.00964185 0.01763142
v 0.00248555 -0.00973147 0.01482062
v 0.00191968 -0.00700921 -0.01525665
v 0.00036275 -0.00584467 -0.01469822
v 0.00172953 -0.00653943 -0.01180028
v 0.00101752 -0.00509106 -0.01172221
v 0.00277022 -0.00473837 -0.00949773
v 0.00033215 -0.00576467 0.00264532
v 0.00368326 -0.00448893 0.00109317
v -0.00043470 -0.00647235 0.00491853
v -0.00003371 -0.00537109 0.00811144
v 0.00226425 -0.00796951 0.00700826
v 0.00302109 -0.00514042 0.00538978
v 0.00004474 -0.00560341 0.01263350
v 0.00276313 -0.00523280 0.01427708
v -0.00050903 -0.00487018 0.01742492
v -0.00007509 -0.00704614 0.01959252
v 0.00059506 -0.00507872 0.02206699
v 0.00209281 -0.00787525 0.02140866
v 0.00243455 -0.00573310 0.02015961
v 0.00317745 -0.00605803 0.02399902
v -0.00118585 -0.00010265 -0.02481394
v -0.00077171 -0.00018553 -0.02138198
v 0.00162219 -0.00092400 -0.01858752
v 0.00248443 -0.00331169 -0.01499469
v 0.00271311 -0.00287085 -0.01055976
v 0.00099929 -0.00320806 0.00396181
v 0.00249408 -0.00287455 0.01747483
v 0.00045812 -0.00041585 0.02108407
v 0.00257765 -0.00151212 0.02398154
v 0.00344889 0.00414579 -0.01788035
v 0.00014849 0.00516935 0.01304154
v 0.00327307 0.00414979 0.00948146
v 0.00318843 0.00173288 0.01181449
v 0.00240203 0.00265350 0.01776331
v 0.00047908 0.00401437 0.01705430
v 0.00302999 0.00132493 0.02238351
v -0.00050195 0.00868583 -0.01602157
v 0.00182923 0.00916026 -0.01775211
v 0.00052920 0.00845309 -0.00548201
v 0.00271426 0.00980711 -0.00845836
v 0.00314725 0.00709711 -0.00535384
v 0.00253900 0.00660315 -0.00167635
v 0.00054529 0.00988047 -0.00269609
v 0.00288922 0.00821992 0.00062547
v 0.00057664 0.00790544 0.00819808
v 0.00216208 0.00977341 0.00630692
v 0.00306657 0.00724183 0.00772103
v 0.00153079 0.00660235 0.01708289
v 0.00187439 0.00914316 0.01518543
v 0.00193879 0.00967827 0.01938916
v -0.00003033 0.01350874 -0.01529727
v 0.00278655 0.01403983 -0.01781251
v -0.00014886 0.01393475 -0.00620621
v 0.00180321 0.01468479 -0.00921997
v 0.00270640 0.01398805 -0.00383010
v 0.00284113 0.01058765 -0.00111738
v 0.00031120 0.01291501 0.00804977
v 0.00171156 0.01399725 0.00612542
v 0.00274743 0.01089346 0.01175621
v 0.00279657 0.01408328 0.00998492
v 0.00303663 0.01460236 0.01958106
v 0.00077938 0.01798550 -0.01576219
v 0.00330855 0.01840575 -0.01842869
v 0.00023786 0.01791360 -0.01199022
v 0.00321358 0.01761627 -0.00871343
v -0.00079199 0.01823123 -0.00634881
v 0.00341532 0.01885857 -0.00306490
v 0.00024302 0.01812126 -0.00200983
v 0.00232834 0.01808800 0.00468936
v 0.00310817 0.01778343 0.01002810
v -0.00018771 0.01945309 0.01681675
v 0.00167192 0.01786586 0.01897950
v 0.00265728 0.02077432 -0.01553929
v 0.00340934 0.02038052 -0.01202349
v 0.00139594 0.02064587 -0.00051859
v 0.00315126 0.02055896 0.00195722
v 0.00138007 0.02067979 0.01252252
v 0.00234953 0.02048687 0.01614836
v 0.00373999 -0.01866952 -0.01627412
v 0.00433534 -0.01916970 -0.00687824
v 0.00476239 -0.01907903 -0.00204429
v 0.00642533 -0.02114712 0.00816352
v 0.00677134 -0.01875570 0.00560180
v 0.00741844 -0.01935034 0.01013776
v 0.00535578 -0.01527213 -0.01540295
v 0.00694836 -0.01667533 -0.01188016
v 0.00755504 -0.01475888 -0.01382733
v 0.00738111 -0.01721995 -0.00646906
v 0.00855734 -0.01704133 -0.00082533
v 0.00683858 -0.01733663 0.00194597
v 0.00517725 -0.01452426 0.00356937
v 0.00600008 -0.01720949 0.01259997
v 0.00753824 -0.01345044 0.01498844
v 0.00857282 -0.01269145 -0.01582325
v 0.00633854 -0.01082182 -0.01774763
v 0.00611451 -0.01041330 0.00060274
v 0.00737764 -0.01207244 0.00345185
v 0.00466545 -0.01010739 0.00740994
v 0.00658931 -0.00831251 0.00542008
v 0.00693581 -0.00890721 0.01465037
v 0.00493652 -0.00946874 0.02276896
v 0.00830805 -0.01155178 0.02119510
v 0.00645717 -0.00849700 0.02023289
v 0.00727517 -0.00967634 0.02399618
v 0.00469981 -0.00513398 -0.01515243
v 0.00639638 -0.00540373 -0.01795004
v 0.00430423 -0.00519655 -0.01130592
v 0.00809257 -0.00516998 0.00036527
v 0.00745271 -0.00489560 0.00524598
v 0.00830400 -0.00718824 0.01314513
v 0.00534888 -0.00511855 0.01233574
v 0.00749180 -0.00511430 0.01029833
v 0.00634600 -0.00484622 0.01894641
v 0.00694371 -0.00510218 0.02490764
v 0.00757405 -0.00020156 -0.01784280
v 0.00461107 0.00067523 -0.01142077
v 0.00714281 0.00018846 -0.01340085
v 0.00802657 -0.00264773 -0.01108973
v 0.00624979 -0.00142998 -0.00848604
v 0.00425269 -0.00102878 0.00361226
v 0.00648190 -0.00011527 0.00111214
v 0.00744150 -0.00302714 0.00709048
v 0.00503483 -0.00018423 0.00828711
v 0.00610285 -0.00260727 0.01302110
v 0.00724518 -0.00050058 0.01078263
v 0.00821192 -0.00324286 0.01623313
v 0.00695769 -0.00067241 0.02428952
v 0.00766530 0.00256305 -0.01524929
v 0.00516194 0.00399198 -0.01510320
v 0.00543149 0.00461586 -0.01178431
v 0.00734747 0.00320525 -0.00908670
v 0.00478308 0.00400250 0.00267033
v 0.00741995 0.00404763 0.00048969
v 0.00748770 0.00431919 0.00544553
v 0.00727879 0.00251159 0.00766865
v 0.00789737 0.00447562 0.00975399
v 0.00631422 0.00208855 0.01310854
v 0.00525092 0.00414787 0.01673244
v 0.00744488 0.00482708 0.01458904
v 0.00639424 0.00424387 0.01918857
v 0.00740985 0.00225368 0.02183816
v 0.00750207 0.00682582 -0.01529570
v 0.00572647 0.00887480 -0.01798469
v 0.00815488 0.00582283 -0.01198191
v 0.00486376 0.00993453 -0.00643364
v 0.00751107 0.00940240 -0.00379415
v 0.00714871 0.00662268 -0.00210024
v 0.00749933 0.00702184 0.00288382
v 0.00763855 0.00949248 0.00093606
v 0.00410260 0.01027439 0.00814387
v 0.00597226 0.00890491 0.01009581
v 0.00428480 0.00995516 0.01650354
v 0.00825593 0.00592939 0.01721448
v 0.00758814 0.01462363 -0.01900904
v 0.00478072 0.01348077 -0.01066815
v 0.00701021 0.01463281 -0.01227022
v 0.00645355 0.01144339 -0.01052397
v 0.00707794 0.01403118 -0.00891051
v 0.00471384 0.01429213 -0.00674811
v 0.00644974 0.01119644 -0.00205154
v 0.00487210 0.01459090 0.00766037
v 0.00528749 0.01184877 0.00978411
v 0.00732224 0.01359764 0.00997957
v 0.00500534 0.01365633 0.01309038
v 0.00480915 0.01315748 0.01779568
v 0.00576166 0.01808127 -0.02079913
v 0.00730016 0.01712340 -0.02116046
v 0.00721692 0.01870109 -0.02178152
v 0.00523167 0.01722422 -0.01033470
v 0.00760958 0.01816339 -0.01356215
v 0.00446178 0.01556810 -0.00885908
v 0.00684986 0.01633010 -0.00700046
v 0.00737537 0.01767696 -0.00378817
v 0.00476486 0.01887135 0.00306718
v 0.00755829 0.01843420 0.00092466
v 0.00721149 0.01686983 0.00456347
v 0.00731208 0.01617155 0.00857802
v 0.00465869 0.01586572 0.01040044
v 0.00475696 0.01822255 0.01243952
v 0.00449673 0.01750291 0.01719570
v 0.00593521 0.02021372 -0.01972705
v 0.00662350 0.02068211 -0.01622209
v 0.00584336 0.02025934 -0.00145568
v 0.00877981 -0.01895561 0.00839273
v 0.01097503 -0.01616064 -0.01008438
v 0.01158467 -0.01427486 -0.01326460
v 0.01028452 -0.01457680 -0.00615962
v 0.01251213 -0.01423161 -0.00847314
v 0.00897881 -0.01408070 -0.00168152
v 0.01123084 -0.01416016 0.00101777
v 0.01153576 -0.01686043 0.00305319
v 0.01017402 -0.01552139 0.00771291
v 0.01354516 -0.01427856 0.00567141
v 0.00960366 -0.01481874 0.01247114
v 0.01287491 -0.01228976 -0.01703629
v 0.01095718 -0.00897425 -0.01839974
v 0.01176370 -0.01201796 -0.00567332
v 0.00977831 -0.01030528 -0.00234521
v 0.01223819 -0.00907525 -0.00415548
v 0.01234804 -0.01029113 0.00071282
v 0.00975350 -0.01026312 0.00289036
v 0.01155723 -0.01208891 0.00841486
v 0.00976985 -0.01025287 0.01238081
v 0.01191376 -0.00831025 0.01016661
v 0.00939872 -0.01181303 0.01466340
v 0.00955141 -0.01043368 0.01721742
v 0.01180452 -0.01244608 0.01707693
v 0.01177072 -0.01016439 0.01512865
v 0.01176031 -0.01201996 0.02160470
v 0.01224459 -0.00876449 0.02408960
v 0.01226762 -0.00364356 -0.01887786
v 0.01193532 -0.00735998 -0.00158100
v 0.00978062 -0.00586221 0.00258629
v 0.01122427 -0.00496516 0.00982359
v 0.01167745 -0.00608756 0.01469714
v 0.00996506 -0.00792223 0.01528590
v 0.00883299 -0.00638726 0.01684440
v 0.01129234 -0.00439682 0.02486927
v 0.01280758 0.00007106 -0.01751291
v 0.01175174 -0.00076383 -0.01315583
v 0.01292974 -0.00251516 -0.01002675
v 0.01101211 -0.00212446 -0.00707990
v 0.00996735 0.00072634 -0.00645476
v 0.01304471 -0.00137617 -0.00505259
v 0.01076969 -0.00048262 0.00127512
v 0.01228074 -0.00254324 0.00439883
v 0.01276795 -0.00317270 0.00825620
v 0.01171484 -0.00269932 0.01278898
v 0.01227094 0.00022575 0.01035970
v 0.01174521 -0.00085766 0.02390057
v 0.01177383 0.00133889 -0.01556848
v 0.01006073 0.00185166 -0.01369708
v 0.01081251 0.00243669 -0.01027002
v 0.00878699 0.00375018 -0.01167234
v 0.01154443 0.00409576 -0.01297528
v 0.01306215 0.00107538 -0.00699063
v 0.01156084 0.00462305 0.00114154
v 0.01154468 0.00263971 0.00841600
v 0.01170388 0.00467672 0.00614131
v 0.00965562 0.00394864 0.01144316
v 0.01132348 0.00425218 0.01993010
v 0.01236582 0.00150519 0.02197282
v 0.01260640 0.00672720 -0.01558052
v 0.01084170 0.00958833 -0.01801778
v 0.01136919 0.00942138 -0.00397182
v 0.01210252 0.00701811 -0.00133723
v 0.00881885 0.00640349 0.00064588
v 0.01005537 0.00840396 0.00245040
v 0.01106472 0.00796299 0.00464362
v 0.01178315 0.00811875 0.01025706
v 0.01237429 0.00638518 0.01304277
v 0.01262808 0.00652838 0.01751782
v 0.01305557 0.01267187 -0.01775378
v 0.00930977 0.01452002 -0.01205882
v 0.00974209 0.01487250 -0.00182525
v 0.01143157 0.01278427 -0.00428597
v 0.01181762 0.01354950 0.00087474
v 0.01284064 0.01112652 0.00276949
v 0.01224592 0.01327880 0.00990861
v 0.00874173 0.01834435 -0.01952089
v 0.01155798 0.01612951 -0.01543145
v 0.00942430 0.01889975 -0.01643810
v 0.01145565 0.01576450 -0.01021141
v 0.01229651 0.01581913 -0.00647663
v 0.00849410 0.01846540 -0.00172704
v 0.01202014 0.01620932 0.00307484
v 0.01222487 0.01583722 0.00746626
v 0.01354609 -0.01393651 -0.01051442
v 0.01597056 -0.01623249 0.00339090
v 0.01550698 -0.01438016 0.00085732
v 0.01707346 -0.01402630 0.00450965
v 0.01439867 -0.01012756 -0.02022495
v 0.01664499 -0.01153409 -0.01943770
v 0.01659036 -0.00907309 -0.02206049
v 0.01581832 -0.01215920 -0.01530191
v 0.01474884 -0.01039781 -0.01103968
v 0.01705473 -0.00879498 -0.01371312
v 0.01365096 -0.01085153 -0.00746237
v 0.01733457 -0.01234768 -0.00128176
v 0.01688709 -0.00968713 -0.00304770
v 0.01502188 -0.01005649 -0.00181950
v 0.01406556 -0.01058776 0.00756680
v 0.01676792 -0.01025386 0.00619177
v 0.01598464 -0.01162422 0.01838805
v 0.01577438 -0.00949468 0.01563388
v 0.01498691 -0.01078618 0.02153200
v 0.01755740 -0.00968414 0.02007284
v 0.01469732 -0.00653001 -0.02098976
v 0.01733713 -0.00604803 -0.02208092
v 0.01507296 -0.00495388 -0.01011994
v 0.01628537 -0.00387595 -0.01332541
v 0.01369621 -0.00564093 -0.00614627
v 0.01663227 -0.00527398 -0.00368785
v 0.01630829 -0.00767389 0.00842926
v 0.01558722 -0.00511824 0.00950590
v 0.01669543 -0.00580629 0.01466655
v 0.01639364 -0.00825628 0.02261137
v 0.01553944 -0.00480100 0.02380236
v 0.01631058 -0.00348824 -0.02056467
v 0.01651760 -0.00098837 -0.01822267
v 0.01596255 -0.00001088 -0.01434810
v 0.01383948 -0.00296094 -0.00793372
v 0.01394188 -0.00086828 -0.00692416
v 0.01671380 -0.00019413 -0.00863492
v 0.01656585 -0.00227620 -0.00686725
v 0.01602779 0.00072367 0.00092426
v 0.01709360 -0.00219754 0.00297566
v 0.01652097 -0.00329473 0.00681692
v 0.01668082 -0.00259948 0.01240033
v 0.01675095 -0.00015049 0.01041618
v 0.01496174 -0.00100062 0.02266388
v 0.01630780 0.00123363 0.02014044
v 0.01748935 -0.00247633 0.02161947
v 0.01607469 0.00112759 -0.01605160
v 0.01547241 0.00262940 -0.01069117
v 0.01608019 0.00464166 -0.01370609
v 0.01598981 0.00443559 -0.00009041
v 0.01438490 0.00532534 0.00812131
v 0.01601822 0.00332819 0.01017464
v 0.01589910 0.00479969 0.01879319
v 0.01718771 0.00664113 -0.01557933
v 0.01560460 0.00927426 -0.01754820
v 0.01447120 0.00909662 -0.00572640
v 0.01706490 0.01062710 -0.00860242
v 0.01668541 0.00733568 -0.00613010
v 0.01699801 0.00577765 -0.00251038
v 0.01659184 0.00746186 0.00816750
v 0.01568550 0.00821709 0.00553710
v 0.01674012 0.01033240 0.00968715
v 0.01664095 0.00630112 0.01274463
v 0.01650392 0.00639981 0.01588055
v 0.01643829 0.01187432 -0.01655040
v 0.01509986 0.01432588 -0.01538591
v 0.01752004 0.01339230 -0.01407177
v 0.01432924 0.01252840 -0.00635571
v 0.01648915 0.01416980 -0.00877150
v 0.01730787 0.01157354 0.00355797
v 0.01617726 0.01379238 0.00187409
v 0.01624457 0.01390115 0.00958910
v 0.01572537 0.01553023 -0.01157437
v 0.01615627 0.01549288 0.00295710
v 0.01672807 0.01555373 0.00657998
v 0.01833279 -0.01404323 0.00188284
v 0.01866267 -0.00862739 -0.02037018
v 0.01846430 -0.01035689 -0.01697565
v 0.01867154 -0.00934476 -0.00080192
v 0.01894630 -0.01002654 0.00376121
v 0.01860616 -0.00875549 0.01744301
v 0.01872525 -0.00407417 -0.01963312
v 0.01904332 -0.00634957 -0.01647233
v 0.01896980 -0.00512540 -0.00126895
v 0.01903830 -0.00502504 0.00275169
v 0.01839767 -0.00605326 0.00706589
v 0.01918280 -0.00450119 0.01625423
v 0.01865739 -0.00588872 0.02069790
v 0.01848266 -0.00144358 -0.01602498
v 0.02081209 -0.00190583 -0.00551152
v 0.02092110 -0.00077326 -0.00734174
v 0.01934066 -0.00104173 -0.00174854
v 0.02175612 0.00031188 -0.00502572
v 0.01897133 0.00030478 0.01319907
v 0.01912837 -0.00127518 0.01816421
v 0.01892238 0.00454881 -0.01130078
v 0.02120624 0.00139356 -0.00724915
v 0.01956079 0.00417054 -0.00574832
v 0.01848439 0.00342803 -0.00147624
v 0.01862525 0.00468452 0.01327885
v 0.01876604 0.00324018 0.01672030
v 0.01859804 0.00957885 -0.01478084
v 0.01894945 0.00833382 -0.01044875
v 0.01870523 0.01006658 0.00675610
v 0.01846290 0.01264510 -0.01156813
v 0.01868212 0.01371908 0.00443601
v 0.01881591 0.01285055 0.00812821
v 0.02282745 -0.00045433 -0.00636107
f 3 2 1
f 4 1 2
f 7 6 5
f 5 6 3
f 1 5 3
f 8 5 1
f 1 4 9
f 1 9 8
f 10 7 5
f 10 5 8
f 10 8 11
f 11 8 9
f 13 12 2
f 13 2 3
f 15 14 4
f 2 15 4
f 12 15 2
f 17 16 14
f 17 14 15
f 19 18 16
f 19 16 17
f 20 18 19
f 22 21 6
f 22 6 7
f 3 6 13
f 13 6 21
f 23 9 14
f 14 9 4
f 24 14 16
f 23 14 24
f 25 16 18
f 24 16 25
f 18 20 26
f 18 26 25
f 27 22 7
f 27 7 10
f 29 27 28
f 27 11 28
f 27 10 11
f 9 23 11
f 23 28 11
f 23 30 28
f 24 32 31
f 30 24 31
f 23 24 30
f 32 24 25
f 32 25 33
f 33 25 26
f 34 29 28
f 36 35 34
f 28 36 34
f 30 36 28
f 30 31 37
f 30 37 36
f 35 36 38
f 35 38 39
f 36 37 40
f 36 40 38
f 41 39 38
f 41 38 40
f 44 43 42
f 46 45 42
f 46 42 43
f 47 45 46
f 44 42 48
f 44 48 49
f 50 42 45
f 48 42 50
f 45 47 51
f 45 51 50
f 54 53 52
f 56 55 52
f 56 52 53
f 57 55 56
f 59 58 12
f 59 12 13
f 48 15 49
f 15 58 49
f 15 12 58
f 15 48 17
f 17 48 50
f 51 60 50
f 60 17 50
f 60 19 17
f 52 61 20
f 60 52 20
f 19 60 20
f 54 52 60
f 62 52 55
f 61 52 62
f 55 57 63
f 55 63 62
f 22 64 21
f 64 65 21
f 65 13 21
f 65 59 13
f 66 26 61
f 61 26 20
f 67 61 62
f 66 61 67
f 62 63 68
f 69 62 68
f 67 62 69
f 70 69 68
f 27 64 22
f 27 29 64
f 29 65 64
f 29 71 65
f 72 31 32
f 33 73 32
f 32 73 72
f 26 66 33
f 66 73 33
f 66 74 73
f 75 66 67
f 74 66 75
f 76 67 69
f 75 67 76
f 69 70 77
f 69 77 76
f 29 34 78
f 79 29 78
f 71 29 79
f 35 78 34
f 81 80 72
f 80 31 72
f 80 37 31
f 83 82 81
f 72 83 81
f 73 83 72
f 84 73 74
f 83 73 84
f 75 86 85
f 84 75 85
f 74 75 84
f 88 87 86
f 75 88 86
f 76 88 75
f 76 77 89
f 76 89 88
f 79 78 90
f 79 90 91
f 39 90 35
f 35 90 78
f 80 40 37
f 92 40 80
f 93 82 83
f 93 83 84
f 93 84 94
f 94 84 85
f 95 87 88
f 95 88 89
f 96 91 90
f 96 90 39
f 41 96 39
f 97 96 41
f 41 40 92
f 41 92 97
f 99 98 43
f 99 43 44
f 43 100 46
f 98 100 43
f 102 101 47
f 46 102 47
f 100 102 46
f 104 103 101
f 104 101 102
f 105 103 104
f 108 107 106
f 110 109 106
f 110 106 107
f 111 109 110
f 49 99 44
f 49 112 99
f 114 113 101
f 113 47 101
f 113 51 47
f 54 115 53
f 115 101 53
f 101 103 53
f 115 114 101
f 105 116 103
f 116 53 103
f 116 56 53
f 116 117 56
f 117 108 56
f 106 56 108
f 56 106 57
f 118 57 106
f 57 118 117
f 117 119 57
f 116 119 117
f 117 118 108
f 121 120 118
f 106 121 118
f 109 121 106
f 109 111 122
f 109 122 121
f 124 123 58
f 124 58 59
f 49 58 112
f 112 58 123
f 113 125 51
f 51 125 60
f 54 60 115
f 115 60 125
f 119 63 57
f 126 63 119
f 127 120 121
f 127 121 122
f 65 124 59
f 65 128 124
f 126 129 63
f 63 129 68
f 131 130 70
f 68 131 70
f 129 131 68
f 132 130 131
f 71 128 65
f 71 133 128
f 134 77 130
f 130 77 70
f 130 132 135
f 130 135 134
f 79 137 136
f 133 79 136
f 71 79 133
f 137 138 136
f 140 139 81
f 81 139 80
f 81 82 140
f 140 82 141
f 142 85 86
f 87 142 86
f 143 89 134
f 134 89 77
f 134 135 144
f 134 144 143
f 91 145 137
f 91 137 79
f 138 137 146
f 146 137 145
f 148 92 147
f 92 139 147
f 92 80 139
f 149 148 93
f 148 141 93
f 141 82 93
f 141 148 147
f 149 93 150
f 93 151 150
f 93 94 151
f 151 94 85
f 152 151 85
f 142 152 85
f 151 152 153
f 152 142 87
f 154 152 87
f 95 154 87
f 155 152 154
f 95 89 143
f 156 95 143
f 154 95 156
f 156 143 144
f 96 145 91
f 157 146 145
f 96 157 145
f 97 157 96
f 157 97 92
f 158 157 92
f 148 158 92
f 157 158 159
f 149 161 160
f 158 149 160
f 148 149 158
f 164 163 162
f 150 161 149
f 163 164 153
f 152 163 153
f 165 163 152
f 152 155 166
f 152 166 165
f 167 159 158
f 167 158 160
f 168 162 163
f 168 163 165
f 168 165 169
f 169 165 166
f 172 171 170
f 174 173 170
f 174 170 171
f 176 175 173
f 176 173 174
f 177 175 176
f 180 179 178
f 181 178 179
f 182 172 170
f 184 183 182
f 170 184 182
f 173 184 170
f 99 184 98
f 184 175 98
f 184 173 175
f 177 185 175
f 185 98 175
f 185 100 98
f 100 186 102
f 185 186 100
f 102 187 104
f 186 187 102
f 105 104 187
f 105 187 188
f 180 178 107
f 108 180 107
f 189 180 108
f 181 190 178
f 190 107 178
f 190 110 107
f 111 110 190
f 111 190 191
f 192 183 184
f 184 99 192
f 99 193 192
f 99 112 193
f 195 194 114
f 114 194 113
f 114 115 195
f 195 115 196
f 188 197 105
f 105 197 116
f 197 119 116
f 119 197 198
f 108 118 189
f 199 189 118
f 118 120 199
f 199 120 200
f 191 122 111
f 201 122 191
f 124 202 123
f 193 112 203
f 112 202 203
f 202 204 203
f 112 123 202
f 204 205 203
f 194 206 113
f 113 206 125
f 115 125 196
f 196 125 206
f 198 126 119
f 207 126 198
f 120 127 208
f 209 120 208
f 200 120 209
f 210 208 127
f 122 210 127
f 201 210 122
f 212 211 202
f 124 212 202
f 128 212 124
f 202 211 204
f 204 211 213
f 204 213 205
f 129 126 214
f 126 215 214
f 126 207 215
f 216 209 208
f 129 216 208
f 131 129 208
f 216 129 214
f 132 131 208
f 210 132 208
f 217 132 210
f 133 219 218
f 212 133 218
f 128 133 212
f 219 220 218
f 214 215 221
f 221 215 222
f 216 214 223
f 223 214 221
f 217 135 132
f 224 135 217
f 136 219 133
f 136 138 219
f 138 220 219
f 138 225 220
f 226 139 140
f 141 226 140
f 221 222 227
f 227 222 228
f 223 221 229
f 229 221 227
f 224 144 135
f 230 144 224
f 146 225 138
f 146 231 225
f 226 147 139
f 147 226 141
f 233 232 151
f 151 232 150
f 151 153 233
f 233 153 234
f 227 228 154
f 228 155 154
f 228 235 155
f 154 156 227
f 156 236 227
f 236 229 227
f 156 237 236
f 238 237 156
f 144 238 156
f 230 238 144
f 146 157 239
f 240 146 239
f 231 146 240
f 159 239 157
f 242 241 161
f 161 241 160
f 232 243 150
f 232 164 243
f 164 232 244
f 242 244 232
f 244 242 162
f 243 162 242
f 242 161 243
f 243 161 150
f 164 162 243
f 244 245 164
f 245 153 164
f 245 234 153
f 235 166 155
f 246 166 235
f 247 236 237
f 247 237 238
f 248 240 239
f 248 239 159
f 167 248 159
f 249 248 167
f 167 160 241
f 167 241 249
f 168 244 162
f 250 245 244
f 168 250 244
f 169 250 168
f 169 166 246
f 169 246 250
f 172 251 171
f 171 251 252
f 253 171 252
f 174 171 253
f 253 255 254
f 176 253 254
f 174 253 176
f 177 176 254
f 258 257 256
f 260 259 258
f 260 258 256
f 261 259 260
f 263 262 179
f 263 179 180
f 181 179 262
f 181 262 264
f 182 251 172
f 182 183 251
f 183 252 251
f 183 265 252
f 255 266 254
f 257 258 266
f 258 185 266
f 177 254 266
f 177 266 185
f 185 258 186
f 186 258 259
f 261 267 259
f 267 186 259
f 267 187 186
f 188 187 267
f 188 267 268
f 189 263 180
f 189 269 263
f 264 270 181
f 181 270 190
f 191 190 270
f 191 270 271
f 183 192 272
f 273 183 272
f 265 183 273
f 193 272 192
f 274 194 195
f 196 274 195
f 197 188 275
f 188 276 275
f 188 268 276
f 198 197 275
f 199 277 189
f 278 189 277
f 189 278 269
f 200 277 199
f 271 201 191
f 279 201 271
f 273 272 280
f 273 280 281
f 203 282 193
f 282 272 193
f 282 280 272
f 205 282 203
f 274 206 194
f 206 274 196
f 275 276 283
f 283 276 284
f 198 285 207
f 285 277 207
f 286 207 277
f 207 286 283
f 278 283 286
f 283 278 285
f 285 275 283
f 198 275 285
f 285 278 277
f 277 200 286
f 200 287 286
f 200 209 287
f 279 210 201
f 288 210 279
f 291 290 289
f 293 292 289
f 293 289 290
f 292 293 281
f 292 281 280
f 212 292 280
f 211 212 280
f 211 280 213
f 213 280 282
f 213 282 205
f 284 294 283
f 215 207 283
f 295 215 283
f 294 295 283
f 215 295 296
f 295 287 296
f 287 216 296
f 287 209 216
f 288 217 210
f 297 217 288
f 298 291 289
f 298 289 292
f 298 292 299
f 301 299 300
f 300 299 218
f 299 292 218
f 292 212 218
f 220 300 218
f 302 222 296
f 296 222 215
f 223 302 216
f 216 302 296
f 297 224 217
f 303 224 297
f 304 301 300
f 300 220 304
f 220 305 304
f 220 225 305
f 307 306 302
f 306 222 302
f 306 228 222
f 302 223 307
f 223 308 307
f 223 229 308
f 303 230 224
f 309 230 303
f 231 305 225
f 231 310 305
f 311 232 233
f 234 311 233
f 313 235 312
f 235 306 312
f 235 228 306
f 312 308 313
f 308 236 313
f 308 229 236
f 309 238 230
f 314 238 309
f 240 316 315
f 310 240 315
f 231 240 310
f 316 317 315
f 319 318 242
f 242 318 241
f 319 242 232
f 320 319 232
f 311 320 232
f 319 320 321
f 245 322 234
f 323 234 322
f 234 323 311
f 324 311 323
f 311 324 320
f 235 322 246
f 322 235 323
f 313 323 235
f 323 313 325
f 326 325 313
f 326 313 236
f 327 326 236
f 247 327 236
f 328 326 327
f 247 238 314
f 247 314 327
f 248 316 240
f 329 317 316
f 248 329 316
f 249 329 248
f 249 241 318
f 249 318 329
f 330 321 320
f 245 250 322
f 320 324 330
f 326 331 325
f 246 322 250
f 331 326 328
f 333 332 253
f 333 253 252
f 255 253 332
f 255 332 334
f 336 335 256
f 336 256 257
f 256 337 260
f 335 337 256
f 261 260 337
f 261 337 338
f 341 340 339
f 342 262 263
f 343 339 340
f 342 264 262
f 265 333 252
f 265 344 333
f 334 345 255
f 255 345 266
f 257 266 336
f 336 266 345
f 267 261 346
f 261 347 346
f 261 338 347
f 341 349 348
f 341 346 349
f 346 341 267
f 339 267 341
f 267 339 268
f 349 268 339
f 339 350 349
f 349 350 348
f 346 268 349
f 269 342 263
f 342 269 351
f 350 351 269
f 351 350 343
f 339 343 350
f 351 353 352
f 351 352 270
f 342 351 270
f 264 342 270
f 352 271 270
f 273 344 265
f 273 354 344
f 346 347 355
f 355 347 356
f 268 357 276
f 357 350 276
f 358 276 350
f 276 358 355
f 348 355 358
f 355 348 357
f 357 346 355
f 268 346 357
f 357 348 350
f 350 269 358
f 269 359 358
f 269 278 359
f 352 353 360
f 360 353 361
f 360 279 271
f 360 271 352
f 281 363 362
f 354 281 362
f 273 281 354
f 365 364 363
f 363 364 362
f 365 366 364
f 355 356 367
f 367 356 368
f 276 369 284
f 276 370 369
f 370 276 371
f 355 371 276
f 371 355 372
f 369 372 355
f 355 367 369
f 369 367 284
f 370 372 369
f 373 370 286
f 370 359 286
f 359 278 286
f 359 370 371
f 374 373 361
f 286 361 373
f 361 286 360
f 287 360 286
f 360 287 375
f 279 376 288
f 279 377 376
f 377 279 378
f 360 378 279
f 378 360 379
f 376 379 360
f 360 375 376
f 376 375 288
f 377 379 376
f 380 377 378
f 291 381 290
f 382 293 290
f 382 290 381
f 382 383 293
f 293 383 281
f 383 384 281
f 384 363 281
f 363 384 365
f 365 384 385
f 365 385 366
f 368 386 367
f 372 370 386
f 370 294 386
f 284 367 386
f 284 386 294
f 294 370 295
f 295 370 373
f 373 374 295
f 374 387 295
f 375 287 295
f 375 295 387
f 288 375 297
f 387 297 375
f 297 387 388
f 379 388 387
f 388 379 377
f 377 380 389
f 377 389 388
f 298 381 291
f 381 298 299
f 381 299 382
f 299 301 382
f 301 383 382
f 301 390 383
f 393 392 391
f 395 394 391
f 391 394 393
f 396 394 388
f 394 303 388
f 303 297 388
f 394 395 303
f 396 388 389
f 301 304 397
f 398 301 397
f 390 301 398
f 305 397 304
f 401 400 399
f 403 402 399
f 399 402 401
f 403 404 402
f 407 406 405
f 407 405 392
f 392 405 391
f 405 306 391
f 306 307 391
f 395 391 408
f 391 308 408
f 308 409 408
f 308 391 307
f 303 395 408
f 410 303 408
f 309 303 410
f 398 397 411
f 398 411 412
f 310 411 305
f 305 411 397
f 399 400 413
f 413 400 414
f 416 403 415
f 403 413 415
f 403 399 413
f 403 416 404
f 405 406 417
f 417 406 418
f 405 417 306
f 417 419 306
f 419 312 306
f 417 420 419
f 308 312 409
f 409 312 419
f 410 314 309
f 421 314 410
f 412 411 422
f 412 422 423
f 315 424 310
f 424 411 310
f 424 422 411
f 425 424 414
f 315 414 424
f 414 315 413
f 317 413 315
f 413 317 426
f 415 428 427
f 428 415 319
f 413 319 415
f 319 413 318
f 426 318 413
f 321 428 319
f 417 418 323
f 418 324 323
f 418 429 324
f 323 325 417
f 325 420 417
f 325 430 420
f 431 328 327
f 432 431 327
f 314 432 327
f 421 432 314
f 433 423 422
f 433 422 424
f 433 424 434
f 317 329 426
f 424 425 434
f 428 435 427
f 318 426 329
f 435 428 321
f 330 435 321
f 436 435 330
f 330 324 429
f 330 429 436
f 437 430 325
f 437 325 331
f 331 328 431
f 438 331 431
f 437 331 438
f 438 431 432
f 333 439 332
f 439 334 332
f 336 440 335
f 441 337 335
f 441 335 440
f 441 338 337
f 443 442 340
f 443 340 341
f 343 340 442
f 343 442 444
f 344 445 439
f 344 439 333
f 439 445 334
f 445 446 334
f 446 345 334
f 445 447 446
f 336 345 440
f 345 448 440
f 345 446 448
f 440 448 441
f 441 448 449
f 347 338 441
f 450 347 441
f 449 450 441
f 347 450 451
f 450 443 451
f 443 348 451
f 443 341 348
f 444 452 343
f 343 452 351
f 353 351 452
f 353 452 453
f 455 454 445
f 344 455 445
f 354 455 344
f 445 454 447
f 457 456 451
f 456 347 451
f 456 356 347
f 459 457 458
f 458 457 358
f 457 451 358
f 451 348 358
f 359 458 358
f 453 361 353
f 460 361 453
f 463 462 461
f 464 461 462
f 354 362 465
f 466 354 465
f 455 354 466
f 364 467 362
f 362 467 465
f 366 467 364
f 456 368 356
f 468 368 456
f 459 458 371
f 372 459 371
f 469 459 372
f 371 458 359
f 472 471 470
f 460 470 471
f 374 460 471
f 361 460 374
f 463 461 378
f 379 463 378
f 473 463 379
f 380 378 461
f 464 380 461
f 474 380 464
f 466 465 384
f 383 466 384
f 475 466 383
f 384 476 385
f 476 384 477
f 465 477 384
f 477 465 478
f 467 478 465
f 478 467 479
f 467 366 479
f 385 476 479
f 385 479 366
f 386 368 480
f 368 481 480
f 368 468 481
f 469 372 482
f 372 480 482
f 480 483 482
f 372 386 480
f 485 484 483
f 484 471 483
f 472 482 483
f 472 483 471
f 471 484 374
f 484 387 374
f 484 486 387
f 379 387 473
f 473 387 486
f 474 389 380
f 487 389 474
f 390 489 488
f 475 390 488
f 383 390 475
f 488 489 477
f 489 476 477
f 489 490 476
f 479 476 491
f 491 476 490
f 480 481 492
f 492 481 493
f 495 483 494
f 483 492 494
f 483 480 492
f 392 495 496
f 495 392 483
f 393 483 392
f 483 393 485
f 497 485 393
f 499 497 498
f 497 394 498
f 497 393 394
f 498 394 500
f 394 501 500
f 394 396 501
f 396 389 487
f 396 487 501
f 503 502 489
f 390 503 489
f 398 503 390
f 489 502 490
f 490 502 504
f 505 400 401
f 504 491 490
f 505 401 506
f 401 507 506
f 401 402 507
f 402 493 507
f 493 402 492
f 404 492 402
f 492 404 508
f 509 508 404
f 510 406 407
f 508 494 492
f 511 510 407
f 392 511 407
f 496 511 392
f 408 409 512
f 498 513 499
f 498 500 513
f 408 512 410
f 412 503 398
f 412 514 503
f 517 516 515
f 400 515 414
f 515 400 517
f 505 517 400
f 517 505 518
f 519 518 505
f 520 416 415
f 505 520 415
f 519 505 415
f 520 505 506
f 404 416 509
f 509 416 520
f 521 418 510
f 510 418 406
f 523 522 511
f 522 524 511
f 419 511 524
f 511 419 510
f 420 510 419
f 510 420 522
f 522 521 510
f 523 521 522
f 522 420 524
f 512 409 419
f 524 512 419
f 525 512 524
f 525 421 410
f 525 410 512
f 528 527 526
f 527 514 526
f 514 423 526
f 514 412 423
f 515 516 529
f 529 516 530
f 414 531 425
f 531 519 425
f 532 425 519
f 425 532 529
f 518 529 532
f 529 518 531
f 531 515 529
f 414 515 531
f 531 518 519
f 519 415 532
f 415 533 532
f 415 427 533
f 536 535 534
f 537 536 521
f 536 429 521
f 429 418 521
f 536 534 429
f 430 538 420
f 430 521 538
f 521 430 537
f 539 537 430
f 537 539 523
f 538 523 539
f 539 524 538
f 538 524 420
f 521 523 538
f 524 540 525
f 524 539 540
f 540 432 421
f 540 421 525
f 541 528 526
f 541 526 423
f 433 541 423
f 542 541 433
f 434 529 530
f 542 434 530
f 433 434 542
f 529 434 425
f 543 533 427
f 543 427 435
f 436 534 535
f 543 436 535
f 435 436 543
f 534 436 429
f 437 539 430
f 539 437 438
f 539 438 540
f 540 438 432
f 443 544 442
f 544 444 442
f 546 545 446
f 546 446 447
f 545 548 547
f 448 545 547
f 446 545 448
f 549 449 448
f 549 448 547
f 449 549 550
f 551 449 550
f 450 449 551
f 450 551 443
f 551 552 443
f 552 544 443
f 552 551 553
f 554 452 444
f 544 554 444
f 552 554 544
f 554 453 452
f 556 555 454
f 556 454 455
f 447 454 546
f 546 454 555
f 548 557 547
f 559 558 557
f 558 547 557
f 558 549 547
f 550 561 560
f 561 550 457
f 549 457 550
f 457 549 456
f 558 456 549
f 553 562 552
f 561 457 459
f 564 563 562
f 563 552 562
f 563 554 552
f 453 565 460
f 453 566 565
f 566 453 567
f 554 567 453
f 567 554 568
f 565 568 554
f 554 563 565
f 565 563 460
f 566 568 565
f 462 463 566
f 567 462 566
f 569 462 567
f 464 462 569
f 464 569 570
f 466 556 455
f 466 571 556
f 559 572 558
f 456 558 468
f 572 468 558
f 468 572 573
f 560 573 572
f 573 560 561
f 469 573 459
f 459 573 561
f 563 564 470
f 564 472 470
f 564 574 472
f 568 576 575
f 576 563 575
f 470 575 563
f 575 470 577
f 460 577 470
f 577 460 576
f 576 566 577
f 568 566 576
f 576 460 563
f 473 577 463
f 463 577 566
f 570 474 464
f 578 474 570
f 475 571 466
f 475 579 571
f 581 580 478
f 478 580 477
f 583 582 479
f 582 478 479
f 582 581 478
f 583 584 582
f 586 585 573
f 585 468 573
f 585 481 468
f 586 573 469
f 482 586 469
f 587 586 482
f 484 485 588
f 589 588 485
f 574 482 472
f 482 574 587
f 577 486 575
f 486 588 575
f 486 484 588
f 486 577 473
f 578 487 474
f 590 487 578
f 591 579 475
f 591 475 488
f 580 592 477
f 592 593 477
f 594 477 593
f 477 594 488
f 595 488 594
f 488 595 592
f 592 591 488
f 580 591 592
f 592 595 593
f 593 596 583
f 491 593 583
f 479 491 583
f 594 593 491
f 583 596 584
f 585 493 481
f 597 493 585
f 599 598 495
f 599 495 494
f 485 497 589
f 600 589 497
f 589 600 598
f 496 598 600
f 598 496 495
f 499 600 497
f 602 601 501
f 501 601 500
f 501 487 590
f 501 590 602
f 604 603 502
f 604 502 503
f 594 504 595
f 504 603 595
f 504 502 603
f 504 594 491
f 606 605 507
f 507 605 506
f 597 607 493
f 597 508 607
f 508 597 608
f 606 608 597
f 608 606 509
f 607 509 606
f 606 507 607
f 607 507 493
f 508 509 607
f 608 609 508
f 609 494 508
f 609 599 494
f 611 610 600
f 610 496 600
f 610 511 496
f 611 600 499
f 513 611 499
f 612 611 513
f 513 500 601
f 513 601 612
f 514 604 503
f 514 613 604
f 614 516 517
f 518 614 517
f 520 506 615
f 506 616 615
f 506 605 616
f 615 617 520
f 520 617 509
f 617 618 509
f 618 608 509
f 608 618 609
f 610 523 511
f 619 523 610
f 528 620 527
f 613 514 621
f 514 620 621
f 620 622 621
f 514 527 620
f 623 621 614
f 621 530 614
f 530 516 614
f 621 622 530
f 623 614 518
f 532 623 518
f 624 623 532
f 625 615 533
f 615 624 533
f 624 532 533
f 615 616 624
f 536 626 535
f 626 615 535
f 615 625 535
f 615 626 617
f 627 536 537
f 627 626 536
f 537 523 619
f 537 619 627
f 541 620 528
f 620 541 542
f 620 542 622
f 622 542 530
f 543 625 533
f 625 543 535
f 546 628 545
f 628 548 545
f 630 629 551
f 630 551 550
f 553 551 629
f 553 629 631
f 634 633 632
f 555 556 632
f 633 555 632
f 635 555 633
f 555 635 546
f 635 636 546
f 636 628 546
f 636 635 637
f 638 557 548
f 628 638 548
f 636 638 628
f 559 557 638
f 641 640 639
f 639 630 641
f 630 560 641
f 630 550 560
f 562 553 642
f 553 643 642
f 553 631 643
f 642 564 562
f 645 644 567
f 645 567 568
f 644 647 646
f 569 644 646
f 567 644 569
f 646 570 569
f 634 632 648
f 634 648 649
f 571 648 556
f 556 648 632
f 636 637 650
f 650 637 651
f 636 652 638
f 636 650 652
f 640 641 653
f 572 653 641
f 653 572 652
f 559 652 572
f 652 559 638
f 572 641 560
f 643 654 642
f 564 642 654
f 655 564 654
f 574 564 655
f 575 645 568
f 575 656 645
f 647 657 646
f 570 646 657
f 658 570 657
f 578 570 658
f 659 649 648
f 648 571 659
f 571 660 659
f 571 579 660
f 650 651 581
f 651 580 581
f 651 661 580
f 582 662 581
f 662 663 581
f 664 581 663
f 581 664 650
f 665 650 664
f 650 665 662
f 662 652 650
f 582 652 662
f 662 665 663
f 663 665 584
f 665 653 584
f 652 582 584
f 652 584 653
f 667 666 586
f 586 666 585
f 668 586 587
f 668 667 586
f 588 589 669
f 670 669 589
f 655 587 574
f 587 655 668
f 575 588 656
f 656 588 669
f 673 672 671
f 658 673 671
f 590 658 671
f 578 658 590
f 674 660 579
f 674 579 591
f 593 595 675
f 676 675 595
f 661 591 580
f 591 661 674
f 663 596 664
f 596 675 664
f 596 593 675
f 596 663 584
f 666 597 585
f 677 597 666
f 599 678 598
f 678 679 598
f 679 589 598
f 679 670 589
f 671 672 602
f 672 601 602
f 672 680 601
f 671 602 590
f 682 681 603
f 682 603 604
f 595 603 676
f 676 603 681
f 685 684 683
f 605 606 683
f 606 685 683
f 606 686 685
f 606 597 677
f 606 677 686
f 688 687 678
f 599 688 678
f 609 688 599
f 610 687 689
f 687 610 678
f 611 678 610
f 678 611 679
f 690 679 611
f 691 611 612
f 691 690 611
f 612 601 680
f 612 680 691
f 613 693 692
f 682 613 692
f 604 613 682
f 693 694 692
f 683 684 695
f 695 684 696
f 695 616 605
f 695 605 683
f 698 697 618
f 698 618 617
f 609 618 688
f 688 618 697
f 689 619 610
f 699 619 689
f 621 693 613
f 700 694 693
f 621 700 693
f 623 700 621
f 624 695 696
f 700 624 696
f 623 624 700
f 695 624 616
f 701 698 617
f 701 617 626
f 702 626 627
f 702 701 626
f 627 619 699
f 627 699 702
f 630 703 629
f 703 631 629
f 634 704 633
f 705 635 633
f 705 633 704
f 705 637 635
f 640 706 639
f 703 630 639
f 706 703 639
f 707 703 706
f 707 643 631
f 707 631 703
f 645 708 644
f 708 647 644
f 649 709 704
f 649 704 634
f 704 710 705
f 704 709 710
f 710 651 637
f 710 637 705
f 653 711 706
f 653 706 640
f 706 712 707
f 706 711 712
f 713 654 643
f 707 713 643
f 712 713 707
f 713 655 654
f 656 714 708
f 656 708 645
f 715 657 647
f 708 715 647
f 714 715 708
f 715 658 657
f 659 709 649
f 709 659 660
f 716 709 660
f 710 709 716
f 716 661 651
f 716 651 710
f 718 717 665
f 718 665 664
f 665 717 653
f 717 719 653
f 719 711 653
f 719 717 720
f 719 666 667
f 712 719 667
f 711 719 712
f 712 667 668
f 712 668 713
f 655 713 668
f 669 670 721
f 714 656 669
f 721 714 669
f 722 714 721
f 722 672 673
f 715 722 673
f 714 722 715
f 715 673 658
f 674 716 660
f 661 716 674
f 675 676 723
f 718 664 724
f 664 723 724
f 723 725 724
f 664 675 723
f 724 725 720
f 725 719 720
f 725 726 719
f 726 677 666
f 726 666 719
f 679 727 721
f 679 721 670
f 721 728 722
f 721 727 728
f 728 680 672
f 728 672 722
f 682 729 681
f 723 676 681
f 729 723 681
f 730 723 729
f 730 684 685
f 725 730 685
f 723 730 725
f 725 685 686
f 725 686 726
f 726 686 677
f 688 731 687
f 690 727 679
f 689 687 731
f 727 690 691
f 727 691 728
f 728 691 680
f 692 729 682
f 729 692 694
f 732 729 694
f 730 729 732
f 732 696 684
f 732 684 730
f 698 733 697
f 731 688 697
f 733 731 697
f 734 731 733
f 734 699 689
f 734 689 731
f 700 732 694
f 732 700 696
f 701 733 698
f 733 701 702
f 733 702 734
f 734 702 699
f 718 735 717
f 735 720 717
f 724 735 718
f 735 724 720

