# https://github.com/mikedh/trimesh
v -0.05563830 -0.01646169 -0.00123342
v -0.05305414 -0.02057904 -0.00330895
v -0.05326846 -0.01765033 -0.00488592
v -0.05353640 -0.01872284 0.00001781
v -0.05649531 -0.01189273 -0.00196610
v -0.05328567 -0.01197280 -0.00523912
v -0.05437832 -0.01514204 0.00294114
v -0.05600250 -0.01142386 0.00310868
v -0.05236003 -0.01265782 0.00605378
v -0.05649031 -0.00588553 -0.00198579
v -0.05324350 -0.00589702 -0.00517309
v -0.05640852 -0.00582516 0.00303056
v -0.05311288 -0.00704000 0.00639941
v -0.05644276 0.00015134 -0.00186045
v -0.05325628 0.00010299 -0.00508373
v -0.05638939 0.00020622 0.00310413
v -0.05251285 -0.00002211 0.00593621
v -0.05649248 0.00622694 -0.00186643
v -0.05335513 0.00616799 -0.00504210
v -0.05640008 0.00616410 0.00316663
v -0.05384739 0.00531863 0.00631869
v -0.05640398 0.01146071 -0.00269201
v -0.05340459 0.01231744 -0.00508807
v -0.05620004 0.01249300 0.00190142
v -0.05254696 0.01122345 0.00625460
v -0.05574212 0.01656350 -0.00233516
v -0.05225318 0.01863446 -0.00490403
v -0.05447977 0.01732315 0.00108841
v -0.05299471 0.01547056 0.00445172
v -0.05364179 0.01995363 -0.00174478
v -0.04948751 -0.02844897 -0.00128351
v -0.04703452 -0.03257514 -0.00335833
v -0.04712928 -0.02964464 -0.00490236
v -0.04757982 -0.03072366 -0.00004116
v -0.05087124 -0.02359225 -0.00173872
v -0.04810028 -0.02369684 -0.00534086
v -0.04829629 -0.02717358 0.00286315
v -0.04972360 -0.02329010 0.00313320
v -0.04634023 -0.02459070 0.00594456
v -0.04774026 -0.01790519 -0.00585110
v -0.05155401 -0.01807338 0.00347697
v -0.04763638 -0.01747591 0.00596126
v -0.04771627 -0.01185077 -0.00579528
v -0.04837515 -0.01010299 0.00632577
v -0.04772284 -0.00588299 -0.00575342
v -0.04915190 -0.00456288 0.00580904
v -0.04775522 0.00004735 -0.00570824
v -0.04943677 -0.00056329 0.00408093
v -0.04590805 0.00090356 0.00153521
v -0.04689259 -0.00308995 0.00303776
v -0.04786462 0.00603308 -0.00567609
v -0.04852352 0.00284885 0.00409881
v -0.04886166 0.00718706 0.00603967
v -0.04787496 0.01212278 -0.00572421
v -0.04755541 0.01305587 0.00611032
v -0.04704329 0.01733791 -0.00577751
v -0.05118713 0.01981670 0.00287775
v -0.04762065 0.01798953 0.00599517
v -0.05140822 0.02316755 -0.00200000
v -0.04806757 0.02368364 -0.00523240
v -0.04981087 0.02492462 0.00227735
v -0.04684707 0.02345561 0.00600207
v -0.04966658 0.02836303 -0.00239558
v -0.04634429 0.03054279 -0.00500025
v -0.04839283 0.02912388 0.00103403
v -0.04685309 0.02722480 0.00445858
v -0.04771132 0.03186665 -0.00186269
v -0.04461805 -0.03498022 -0.00086203
v -0.04101652 -0.03900584 -0.00286475
v -0.04206565 -0.03538002 -0.00512694
v -0.04360604 -0.03442630 0.00388866
v -0.04190368 -0.03859603 0.00186027
v -0.04042098 -0.03681387 0.00600091
v -0.04163420 -0.02990558 -0.00587269
v -0.04558365 -0.03004320 0.00351207
v -0.04178985 -0.02951514 0.00596104
v -0.04157114 -0.02379926 -0.00567628
v -0.04310353 -0.02238728 0.00582531
v -0.04155340 -0.01777627 -0.00557015
v -0.04381802 -0.01789434 0.00409705
v -0.04094280 -0.01719111 0.00137477
v -0.04085386 -0.02091109 0.00306412
v -0.04156735 -0.01181808 -0.00552539
v -0.04460044 -0.01296779 0.00365303
v -0.04097894 -0.01164713 0.00098274
v -0.04158870 -0.00593923 -0.00546594
v -0.04506610 -0.00734518 0.00354013
v -0.04203769 -0.00536942 0.00085656
v -0.04158299 -0.00004520 -0.00543056
v -0.04094941 -0.00053467 0.00020600
v -0.04162645 0.00590348 -0.00543763
v -0.04551880 0.00590079 0.00305181
v -0.04171089 0.00569686 0.00085647
v -0.04163216 0.01189902 -0.00548850
v -0.04462222 0.01091608 0.00355275
v -0.04105080 0.01231031 0.00102257
v -0.04176240 0.01802522 -0.00561845
v -0.04425842 0.01647599 0.00365356
v -0.03999051 0.01861093 0.00124971
v -0.04197341 0.02415254 -0.00574291
v -0.04250190 0.02080342 0.00411034
v -0.04223335 0.02435777 0.00585070
v -0.04124431 0.02929987 -0.00581430
v -0.04521668 0.03184931 0.00284096
v -0.04145343 0.02998725 0.00604760
v -0.04521378 0.03482848 -0.00200169
v -0.04124797 0.03590755 -0.00505297
v -0.04363937 0.03615995 0.00246321
v -0.04156745 0.03489333 0.00574539
v -0.04117153 0.03888997 -0.00075638
v -0.04036596 0.03793231 0.00390206
v -0.03843365 -0.04200850 -0.00087799
v -0.03436676 -0.04500130 -0.00206544
v -0.03600687 -0.04137107 -0.00507273
v -0.03884504 -0.04107276 0.00390668
v -0.03575279 -0.04362817 0.00244706
v -0.03544446 -0.04105204 0.00599907
v -0.03556866 -0.03581758 -0.00586540
v -0.03639293 -0.03530523 0.00604705
v -0.03552357 -0.02970568 -0.00558210
v -0.03788698 -0.02991758 0.00405442
v -0.03499231 -0.02923736 0.00131066
v -0.03498095 -0.03296533 0.00303720
v -0.03554356 -0.02369426 -0.00545166
v -0.03908342 -0.02526135 0.00357422
v -0.03597637 -0.02334021 0.00080003
v -0.03554605 -0.01775463 -0.00543267
v -0.03570513 -0.01764289 0.00020822
v -0.03553284 -0.01186539 -0.00534520
v -0.03572084 -0.01170685 0.00026828
v -0.03560603 -0.00592867 -0.00528727
v -0.03577001 -0.00576217 0.00027185
v -0.03485102 0.00080759 -0.00586793
v -0.03574229 0.00020742 0.00023107
v -0.03629338 0.00670853 -0.00529794
v -0.03579354 0.00621075 0.00021438
v -0.03545452 0.01184665 -0.00532849
v -0.03581830 0.01215199 0.00020486
v -0.03561895 0.01791838 -0.00544079
v -0.03501470 0.01723574 0.00023117
v -0.03584895 0.02394115 -0.00557293
v -0.03954287 0.02386052 0.00309793
v -0.03578579 0.02358537 0.00089607
v -0.03602003 0.02998231 -0.00567601
v -0.03813250 0.02841055 0.00365659
v -0.03379931 0.03042713 0.00132625
v -0.03530196 0.03523986 -0.00571321
v -0.03616856 0.03278981 0.00421750
v -0.03719904 0.03581923 0.00553271
v -0.03885801 0.04141347 -0.00321159
v -0.03523409 0.04194571 -0.00506952
v -0.03497451 0.04209051 0.00046036
v -0.03603981 0.03849896 0.00256085
v -0.03537406 0.04485801 -0.00240707
v -0.03150811 -0.04760769 -0.00191336
v -0.02799077 -0.04958733 -0.00242591
v -0.03084135 -0.04652192 -0.00495192
v -0.02888882 -0.04841100 0.00101497
v -0.02965596 -0.04182728 -0.00591022
v -0.03152508 -0.04524139 0.00280009
v -0.02966250 -0.04167131 0.00600339
v -0.02952831 -0.03565374 -0.00558814
v -0.03238341 -0.03645559 0.00406042
v -0.03080939 -0.03423051 0.00130967
v -0.02795302 -0.03827713 0.00358251
v -0.02961669 -0.02962073 -0.00542978
v -0.02967785 -0.02970556 0.00012888
v -0.02961909 -0.02369139 -0.00543659
v -0.02963377 -0.02375696 0.00023826
v -0.02958234 -0.01778181 -0.00537511
v -0.02965844 -0.01778481 0.00037460
v -0.02969081 -0.01183722 -0.00527041
v -0.02967743 -0.01177467 0.00037733
v -0.03048448 -0.00558013 -0.00628946
v -0.02969065 -0.00581334 0.00029671
v -0.03162486 -0.00066713 -0.00813983
v -0.02923615 -0.00326395 -0.00908122
v -0.02813819 -0.00016785 -0.01034859
v -0.02967418 -0.00000738 0.00024282
v -0.03019016 0.00225840 -0.00808488
v -0.03009463 0.00591894 -0.00595201
v -0.02967860 0.00582965 0.00023865
v -0.02939820 0.01178102 -0.00526391
v -0.02968214 0.01182506 0.00023866
v -0.02961368 0.01782096 -0.00534914
v -0.02974320 0.01789521 0.00024432
v -0.02975377 0.02390166 -0.00546191
v -0.02975365 0.02396335 0.00023966
v -0.02988426 0.02991499 -0.00553959
v -0.02899974 0.02906190 0.00024710
v -0.03003651 0.03599187 -0.00562110
v -0.03377293 0.03538006 0.00315784
v -0.03031100 0.03609491 0.00149538
v -0.02937853 0.04120082 -0.00574166
v -0.03161842 0.04089553 0.00329950
v -0.02953038 0.03909100 0.00370635
v -0.02808229 0.04202247 0.00553732
v -0.03276986 0.04746031 -0.00319298
v -0.02936956 0.04700921 -0.00487144
v -0.03140936 0.04724974 0.00013975
v -0.02991224 0.04495693 0.00385024
v -0.02860303 0.04988628 -0.00113765
v -0.02276727 -0.05139034 -0.00192768
v -0.02430677 -0.04795197 -0.00528661
v -0.02704223 -0.04701489 0.00444441
v -0.02470198 -0.04985862 0.00231615
v -0.02327002 -0.04693584 0.00603518
v -0.02353197 -0.04171557 -0.00569033
v -0.02400294 -0.04229538 0.00584764
v -0.02365627 -0.03555902 -0.00545134
v -0.02426408 -0.03570717 0.00079991
v -0.02334422 -0.03949433 0.00307803
v -0.02369610 -0.02962381 -0.00543662
v -0.02352866 -0.02981890 0.00023707
v -0.02366938 -0.02370485 -0.00542704
v -0.02364289 -0.02371580 0.00045953
v -0.02367730 -0.01775299 -0.00530425
v -0.02372117 -0.01769313 0.00040675
v -0.02414731 -0.01154800 -0.00588943
v -0.02378639 -0.01174307 0.00024845
v -0.02660659 -0.00675602 -0.00811126
v -0.02222964 -0.00856616 -0.00852700
v -0.02508170 -0.00447327 -0.01074830
v -0.02351615 -0.00626812 0.00079287
v -0.02239332 -0.00063090 -0.01120047
v -0.02444535 -0.00021693 0.00093800
v -0.02506400 0.00304017 -0.00862200
v -0.02347424 0.00656890 -0.00608010
v -0.02363783 0.00620425 0.00087131
v -0.02348530 0.01169559 -0.00529520
v -0.02435148 0.01249269 0.00030083
v -0.02362820 0.01771957 -0.00537845
v -0.02353230 0.01769578 0.00027456
v -0.02368004 0.02380772 -0.00543470
v -0.02362920 0.02370087 0.00022788
v -0.02380347 0.02984954 -0.00545907
v -0.02381339 0.02976303 0.00027504
v -0.02396201 0.03587011 -0.00556658
v -0.02247609 0.03614435 0.00094248
v -0.02419694 0.04195852 -0.00571785
v -0.02572024 0.03909909 0.00366240
v -0.02268798 0.04319441 0.00588029
v -0.02288865 0.04845438 -0.00518314
v -0.02729600 0.04860514 0.00300192
v -0.02478414 0.04651897 0.00601596
v -0.02382978 0.05118366 -0.00166076
v -0.02343890 0.04997740 0.00314511
v -0.01959418 -0.05362667 -0.00179795
v -0.01661971 -0.05537883 -0.00326668
v -0.01887888 -0.05267302 -0.00477712
v -0.01606803 -0.05397998 0.00012457
v -0.01758027 -0.04788092 -0.00580385
v -0.01932569 -0.05081937 0.00284513
v -0.01805562 -0.04665479 0.00575894
v -0.01754863 -0.04160517 -0.00556710
v -0.02036741 -0.04241624 0.00412354
v -0.01882540 -0.04027009 0.00140079
v -0.01598568 -0.04417839 0.00365325
v -0.01774741 -0.03555545 -0.00543453
v -0.01761550 -0.03576791 0.00021028
v -0.01775410 -0.02963139 -0.00544396
v -0.01757709 -0.02972470 0.00037183
v -0.01772604 -0.02368967 -0.00538841
v -0.01778703 -0.02363140 0.00040789
v -0.01783987 -0.01768773 -0.00526116
v -0.01789111 -0.01764423 0.00023353
v -0.01794814 -0.01247133 -0.00598825
v -0.01766118 -0.01237601 0.00105489
v -0.01662951 -0.00887577 -0.00853501
v -0.01941503 -0.00522585 -0.01118084
v -0.01740172 -0.00898500 0.00379944
v -0.02063467 -0.00446312 0.00320952
v -0.01723471 -0.00621941 0.00631071
v -0.01638205 -0.00070542 -0.01124051
v -0.02093226 0.00103339 0.00324947
v -0.01815942 -0.00164628 0.00631828
v -0.01901417 0.00295657 -0.00867919
v -0.01755785 0.00650125 -0.00613661
v -0.01997568 0.00599807 0.00285234
v -0.01707870 0.00528411 0.00638442
v -0.01754170 0.01165453 -0.00543124
v -0.01863230 0.01176517 0.00105425
v -0.01705868 0.00905454 0.00371886
v -0.01757427 0.01770152 -0.00548182
v -0.01824567 0.01836727 0.00030942
v -0.01763698 0.02376755 -0.00545577
v -0.01751233 0.02362512 0.00027198
v -0.01776212 0.02977090 -0.00543359
v -0.01771489 0.02978726 0.00023815
v -0.01793037 0.03576912 -0.00550231
v -0.01710394 0.03510467 0.00022593
v -0.01813032 0.04184849 -0.00562248
v -0.02126904 0.04100152 0.00315132
v -0.01701194 0.04072427 0.00127189
v -0.01748165 0.04714270 -0.00573189
v -0.01816818 0.04406736 0.00417475
v -0.01825227 0.04720365 0.00577568
v -0.02087797 0.05342702 -0.00322798
v -0.01742184 0.05299891 -0.00492971
v -0.01851253 0.05368722 -0.00046079
v -0.01712312 0.05086843 0.00320894
v -0.01688153 0.05549323 -0.00230294
v -0.01113910 -0.05593046 -0.00212328
v -0.01316124 -0.05335467 -0.00518024
v -0.01133842 -0.05432043 0.00152554
v -0.01149894 -0.04783506 -0.00574582
v -0.01358807 -0.05102414 0.00389290
v -0.01146052 -0.04843891 0.00575845
v -0.01163480 -0.04158028 -0.00552483
v -0.01315039 -0.04096503 0.00101588
v -0.01046297 -0.04460174 0.00356182
v -0.01181285 -0.03556130 -0.00543754
v -0.01161319 -0.03579081 0.00026820
v -0.01181127 -0.02963162 -0.00544416
v -0.01174030 -0.02966056 0.00037715
v -0.01180098 -0.02364043 -0.00536338
v -0.01191388 -0.02361966 0.00030231
v -0.01196180 -0.01760625 -0.00522612
v -0.01168357 -0.01831783 0.00115503
v -0.01208237 -0.01238304 -0.00595017
v -0.01135444 -0.01482547 0.00391887
v -0.01502725 -0.01180294 0.00316584
v -0.01200469 -0.01195016 0.00639608
v -0.01069805 -0.00878239 -0.00849731
v -0.01348383 -0.00518154 -0.01116571
v -0.01480403 -0.00450708 0.00943503
v -0.01195347 -0.00916960 0.00954051
v -0.01125839 -0.00627900 0.01261163
v -0.01053770 -0.00051656 -0.01125176
v -0.01525505 0.00130095 0.00941861
v -0.01221559 -0.00144557 0.01256182
v -0.01240636 0.00309730 -0.00808128
v -0.01145224 0.00705550 -0.00524906
v -0.01466975 0.00563259 0.00946050
v -0.01119329 0.00574259 0.01255042
v -0.01242837 0.01252816 -0.00560146
v -0.01431323 0.01246614 0.00291214
v -0.01194558 0.01197496 0.00648552
v -0.01213068 0.00919086 0.00952432
v -0.01156619 0.01772020 -0.00562155
v -0.01253407 0.01782630 0.00109038
v -0.01090830 0.01518115 0.00379239
v -0.01163715 0.02377566 -0.00550254
v -0.01236231 0.02445223 0.00029882
v -0.01179522 0.02974460 -0.00543179
v -0.01176815 0.02979504 0.00023262
v -0.01189647 0.03571674 -0.00545269
v -0.01198087 0.03592358 0.00020074
v -0.01208321 0.04177609 -0.00555887
v -0.01063851 0.04122563 0.00105259
v -0.01233801 0.04799140 -0.00575689
v -0.01326392 0.04481510 0.00370150
v -0.01101183 0.04832272 0.00577954
v -0.01098904 0.05351953 -0.00515291
v -0.01359149 0.05403326 0.00096287
v -0.01118651 0.05157714 0.00441412
v -0.01177170 0.05607321 -0.00171717
v -0.00426027 -0.05649408 -0.00193718
v -0.00704124 -0.05335144 -0.00509610
v -0.00914273 -0.05288815 0.00439241
v -0.00678494 -0.05596944 0.00229182
v -0.00549080 -0.05302795 0.00595953
v -0.00557332 -0.04775446 -0.00574324
v -0.00630624 -0.04832834 0.00581452
v -0.00570874 -0.04157501 -0.00552620
v -0.00632538 -0.04171602 0.00087152
v -0.00553107 -0.04551353 0.00308461
v -0.00587415 -0.03556257 -0.00543974
v -0.00558453 -0.03575679 0.00026958
v -0.00587222 -0.02962948 -0.00544479
v -0.00585011 -0.02962257 0.00032309
v -0.00587047 -0.02360866 -0.00535945
v -0.00540391 -0.02367070 0.00089717
v -0.00603494 -0.01753909 -0.00521815
v -0.00642916 -0.01993480 0.00289487
v -0.00891893 -0.01782579 0.00334651
v -0.00496250 -0.01758208 0.00593002
v -0.00613557 -0.01233138 -0.00594353
v -0.00884396 -0.01207234 0.00963280
v -0.00694705 -0.01425271 0.00856994
v -0.00495932 -0.01179269 0.01224637
v -0.00474858 -0.00876678 -0.00849487
v -0.00757913 -0.00509136 -0.01117079
v -0.00806494 -0.00532159 0.00399966
v -0.00652890 -0.00523313 0.00175657
v -0.00517883 -0.00816753 0.00296615
v -0.00511113 -0.00684481 0.00526026
v -0.00878319 -0.00436766 0.01576418
v -0.00704694 -0.00849460 0.01474453
v -0.00474460 -0.00615685 0.01769085
v -0.00466174 -0.00034615 -0.01125139
v -0.00848822 0.00055623 0.00300113
v -0.00544248 -0.00055886 0.00010518
v -0.00520729 -0.00093233 0.00688016
v -0.00935583 0.00161080 0.01570692
v -0.00538924 -0.00137148 0.01823092
v -0.00601010 0.00274065 -0.00799576
v -0.00620999 0.00318694 -0.00345561
v -0.00830169 0.00541367 -0.00164114
v -0.00833123 0.00639934 0.00231019
v -0.00670961 0.00511460 0.00549391
v -0.00878329 0.00599008 0.01568108
v -0.00555929 0.00451824 0.01777875
v -0.00496005 0.00923401 -0.00130859
v -0.00733408 0.01148440 -0.00508621
v -0.00517467 0.00829599 0.00373816
v -0.00894689 0.01231841 0.00958834
v -0.00709123 0.01134598 0.01188326
v -0.00517881 0.00883231 0.01540024
v -0.00565348 0.01774887 -0.00572649
v -0.00816775 0.01856475 0.00295324
v -0.00693458 0.01690620 0.00577423
v -0.00499151 0.01466626 0.00927235
v -0.00571781 0.02377563 -0.00552673
v -0.00706180 0.02338475 0.00091425
v -0.00396360 0.02055907 0.00337418
v -0.00585742 0.02974556 -0.00543418
v -0.00583397 0.02977149 0.00023972
v -0.00588807 0.03570176 -0.00543356
v -0.00600871 0.03587632 0.00021317
v -0.00606657 0.04175934 -0.00553366
v -0.00463091 0.04218455 0.00087400
v -0.00631597 0.04792380 -0.00576981
v -0.00764786 0.04523867 0.00358905
v -0.00470047 0.04924077 0.00582406
v -0.00499373 0.05344818 -0.00510218
v -0.00921530 0.05442731 0.00294507
v -0.00664667 0.05239731 0.00598797
v -0.00623035 0.05669039 -0.00186504
v -0.00555496 0.05611191 0.00307000
v 0.00173035 -0.05650929 -0.00184622
v -0.00102517 -0.05329431 -0.00512489
v -0.00122539 -0.05639265 0.00308000
v 0.00025765 -0.05252970 0.00600207
v 0.00033198 -0.04773159 -0.00575182
v -0.00257783 -0.04852110 0.00412427
v -0.00045261 -0.04592458 0.00153716
v 0.00084293 -0.04947146 0.00411457
v 0.00022411 -0.04158072 -0.00552648
v -0.00046747 -0.04096042 0.00020331
v 0.00006347 -0.03556668 -0.00543992
v 0.00032139 -0.03575165 0.00023032
v 0.00006479 -0.02963084 -0.00544492
v 0.00007227 -0.02963175 0.00026655
v 0.00006765 -0.02360693 -0.00536038
v 0.00129749 -0.02435556 0.00099020
v -0.00009312 -0.01753633 -0.00521931
v -0.00132074 -0.02078590 0.00341343
v 0.00167539 -0.01786049 0.00660627
v -0.00019422 -0.01233111 -0.00594404
v -0.00111515 -0.01495555 0.00977749
v 0.00165609 -0.01200910 0.01293484
v 0.00118752 -0.00877147 -0.00849279
v -0.00163646 -0.00506296 -0.01115359
v -0.00131761 -0.00592326 0.00112813
v 0.00016283 -0.00852472 0.00345922
v 0.00098950 -0.00530258 0.00681866
v -0.00124648 -0.00914686 0.01600201
v 0.00008422 -0.00541013 0.01836033
v 0.00134436 -0.00033933 -0.01128147
v 0.00046701 -0.00079593 -0.00018036
v -0.00097407 -0.00181955 0.00960330
v -0.00179955 0.00106398 0.00964188
v 0.00006839 0.00007258 0.01090645
v 0.00003373 0.00006138 0.01905508
v 0.00005582 0.00289344 -0.00803038
v 0.00031784 0.00275745 -0.00317102
v 0.00109545 0.00189747 0.00966344
v -0.00086231 0.00512433 0.00702212
v 0.00011355 0.00556387 0.01821239
v 0.00152474 0.00988447 -0.00187835
v -0.00129408 0.01258925 -0.00505430
v 0.00006705 0.00883436 0.00300657
v -0.00121667 0.01244291 0.01262865
v 0.00163314 0.00936051 0.01579937
v 0.00022494 0.01776721 -0.00568594
v -0.00122955 0.01818435 0.00646988
v 0.00164631 0.01536725 0.00951512
v 0.00014560 0.02378694 -0.00550236
v -0.00109112 0.02448878 0.00101366
v 0.00157418 0.02107465 0.00328531
v 0.00007637 0.02974815 -0.00543742
v 0.00006263 0.02974427 0.00026794
v 0.00007795 0.03567903 -0.00543405
v -0.00018505 0.03586489 0.00023049
v -0.00009225 0.04169595 -0.00552821
v 0.00059915 0.04107678 0.00020311
v -0.00034262 0.04785466 -0.00572845
v -0.00340092 0.04705677 0.00308614
v 0.00054198 0.04607024 0.00155049
v 0.00100750 0.05342837 -0.00504650
v -0.00070298 0.04966636 0.00414185
v -0.00003050 0.05263181 0.00599693
v -0.00030379 0.05665587 -0.00188282
v -0.00001053 0.05658890 0.00312543
v 0.00769883 -0.05653349 -0.00192720
v 0.00488968 -0.05329059 -0.00511335
v 0.00469582 -0.05643036 0.00316233
v 0.00679565 -0.05390222 0.00632017
v 0.00628651 -0.04779569 -0.00574209
v 0.00347514 -0.04691791 0.00305010
v 0.00560149 -0.04955130 0.00606754
v 0.00619833 -0.04164214 -0.00553043
v 0.00472864 -0.04206124 0.00085344
v 0.00773575 -0.04512907 0.00355488
v 0.00602510 -0.03558954 -0.00544115
v 0.00614142 -0.03576149 0.00021237
v 0.00600264 -0.02963110 -0.00544360
v 0.00597670 -0.02966921 0.00021674
v 0.00600381 -0.02360603 -0.00535933
v 0.00732803 -0.02329255 0.00081561
v 0.00584346 -0.01753789 -0.00521843
v 0.00430907 -0.02036769 0.00338747
v 0.00577399 -0.01778020 0.00590301
v 0.00572280 -0.01235800 -0.00594991
v 0.00576989 -0.01483691 0.00855829
v 0.00579945 -0.01192712 0.01223285
v 0.00708960 -0.00886727 -0.00852322
v 0.00435221 -0.00510686 -0.01115047
v 0.00492772 -0.00593439 0.00166584
v 0.00550081 -0.00821962 0.00404876
v 0.00689275 -0.00530485 0.00546457
v 0.00569335 -0.00908284 0.01484998
v 0.00553479 -0.00438846 0.01798827
v 0.00743120 -0.00049940 -0.01130694
v 0.00616053 -0.00073861 0.00067711
v 0.00192093 -0.00098606 0.00962487
v 0.00529053 0.00082965 0.00702803
v 0.00554512 0.00136169 0.01830932
v 0.00525141 0.00265876 -0.00885323
v 0.00643325 0.00314905 -0.00335796
v 0.00514197 0.00652250 0.00564372
v 0.00507772 0.00616061 0.01760715
v 0.00677756 0.00866960 -0.00249974
v 0.00556303 0.01184907 -0.00504419
v 0.00576464 0.00829673 0.00192813
v 0.00515873 0.01166666 0.01263318
v 0.00587248 0.00860691 0.01578777
v 0.00610529 0.01775206 -0.00554088
v 0.00492887 0.01766855 0.00634549
v 0.00578448 0.01478736 0.00944177
v 0.00601945 0.02380757 -0.00546066
v 0.00550117 0.02388177 0.00083115
v 0.00647217 0.02025534 0.00275569
v 0.00601266 0.02974807 -0.00544064
v 0.00598577 0.02973683 0.00032328
v 0.00601614 0.03567612 -0.00543661
v 0.00572409 0.03586988 0.00026964
v 0.00584362 0.04169074 -0.00552519
v 0.00645698 0.04183028 0.00086993
v 0.00563358 0.04787904 -0.00569734
v 0.00566635 0.04563711 0.00308504
v 0.00273473 0.04871217 0.00414347
v 0.00654573 0.04848641 0.00583625
v 0.00711385 0.05347366 -0.00502985
v 0.00576755 0.05319235 0.00601592
v 0.00490276 0.05644804 -0.00266732
v 0.00622189 0.05628056 0.00190315
v 0.01318360 -0.05639710 -0.00265267
v 0.01097695 -0.05340185 -0.00513478
v 0.01118698 -0.05619702 0.00260794
v 0.01209884 -0.05196791 0.00624206
v 0.01237357 -0.04785089 -0.00573017
v 0.01090233 -0.04765335 0.00613290
v 0.01221908 -0.04165875 -0.00555658
v 0.01077935 -0.04111421 0.00102071
v 0.01337514 -0.04471880 0.00366367
v 0.01202874 -0.03560426 -0.00545907
v 0.01211784 -0.03580705 0.00020112
v 0.01194354 -0.02962821 -0.00544183
v 0.01190961 -0.02969301 0.00021262
v 0.01193578 -0.02360390 -0.00535541
v 0.01253245 -0.02439558 0.00020721
v 0.01174551 -0.01757625 -0.00522625
v 0.00831418 -0.01800276 0.00362242
v 0.01281682 -0.01782019 0.00090482
v 0.01162882 -0.01243983 -0.00598577
v 0.01106603 -0.01437110 0.00460144
v 0.00928147 -0.01189332 0.00951693
v 0.01226763 -0.01185268 0.00620295
v 0.01301073 -0.00892661 -0.00852662
v 0.01038812 -0.00525579 -0.01119402
v 0.00830188 -0.00535934 0.00326282
v 0.01221441 -0.00906579 0.00945119
v 0.00924431 -0.00628048 0.01500314
v 0.01220205 -0.00454910 0.01241905
v 0.01362521 -0.00064238 -0.01130075
v 0.00874399 0.00025028 0.00291111
v 0.00932937 -0.00166553 0.01597029
v 0.01221935 0.00116872 0.01284070
v 0.01078015 0.00327380 -0.00782743
v 0.00928699 0.00562900 -0.00140931
v 0.01199321 0.00692969 -0.00554387
v 0.00850579 0.00503694 0.00395944
v 0.00883242 0.00568471 0.01501904
v 0.01185727 0.00645005 0.01186200
v 0.01215662 0.01180725 -0.00547671
v 0.01214055 0.00913575 0.00958202
v 0.00919866 0.01220097 0.00952775
v 0.01201429 0.01220223 0.00639846
v 0.01197611 0.01780713 -0.00541536
v 0.00933989 0.01685211 0.00425026
v 0.01162574 0.01866020 0.00102829
v 0.01270625 0.01481606 0.00275447
v 0.01193487 0.02381357 -0.00544255
v 0.01199987 0.02378271 0.00029671
v 0.01195234 0.02974689 -0.00544259
v 0.01187996 0.02977213 0.00037962
v 0.01195224 0.03567654 -0.00543650
v 0.01175026 0.03590614 0.00026810
v 0.01177235 0.04169683 -0.00552478
v 0.01328365 0.04108066 0.00101490
v 0.01161705 0.04795591 -0.00572281
v 0.01060360 0.04471698 0.00356147
v 0.01167959 0.04854926 0.00578238
v 0.01328708 0.05347508 -0.00513162
v 0.00944227 0.05299318 0.00444936
v 0.01157272 0.05442715 0.00159922
v 0.01378372 0.05112669 0.00392441
v 0.01131080 0.05604623 -0.00206440
v 0.01682791 -0.05571027 -0.00115159
v 0.01752597 -0.05286777 -0.00491440
v 0.01539710 -0.05436736 0.00302072
v 0.01906005 -0.05362000 0.00008525
v 0.01758400 -0.04700705 -0.00573664
v 0.01833476 -0.05157813 0.00350696
v 0.01776761 -0.04765311 0.00600403
v 0.01826383 -0.04173325 -0.00562517
v 0.01720316 -0.04060999 0.00125543
v 0.01835117 -0.04394021 0.00414456
v 0.01806066 -0.03565636 -0.00550527
v 0.01726007 -0.03500897 0.00023804
v 0.01790773 -0.02965275 -0.00544057
v 0.01788090 -0.02971277 0.00025114
v 0.01785190 -0.02362440 -0.00535565
v 0.01768814 -0.02357074 0.00022098
v 0.01763791 -0.01759905 -0.00526114
v 0.01841583 -0.01833253 0.00019494
v 0.01812242 -0.01174379 -0.00588588
v 0.01430968 -0.01210594 0.00346326
v 0.01876059 -0.01184548 0.00091478
v 0.01803563 -0.00804519 -0.00811930
v 0.01702130 -0.00480931 -0.01095249
v 0.01694219 -0.00852854 0.00465245
v 0.01513004 -0.00617975 0.00867629
v 0.01806585 -0.00421102 0.00607490
v 0.01921625 -0.00005844 -0.01109179
v 0.01511562 -0.00155428 0.00967488
v 0.01799188 0.00153097 0.00657142
v 0.01697949 0.00306647 -0.00881092
v 0.01832500 0.00664522 -0.00622425
v 0.01447882 0.00576838 0.00886569
v 0.01747918 0.00667588 0.00563518
v 0.01807864 0.01186361 -0.00533462
v 0.01522069 0.01080616 0.00437164
v 0.01752734 0.01273709 0.00109574
v 0.01867194 0.00880671 0.00291251
v 0.01786339 0.01786584 -0.00538192
v 0.01789756 0.01786402 0.00025422
v 0.01787564 0.02381346 -0.00544618
v 0.01792394 0.02374526 0.00041129
v 0.01789274 0.02974536 -0.00544140
v 0.01771598 0.02983860 0.00037173
v 0.01788430 0.03567174 -0.00543440
v 0.01775143 0.03588439 0.00021024
v 0.01768649 0.04172143 -0.00556889
v 0.01896026 0.04038656 0.00140050
v 0.01771652 0.04799747 -0.00580339
v 0.01611993 0.04429318 0.00365239
v 0.01819150 0.04676978 0.00575832
v 0.01901393 0.05278953 -0.00477659
v 0.01623693 0.05408996 0.00016802
v 0.01946034 0.05093526 0.00284474
v 0.01676317 0.05549487 -0.00323174
v 0.02097157 -0.05319389 -0.00320952
v 0.02397455 -0.05100137 -0.00175075
v 0.02297624 -0.04829654 -0.00526144
v 0.02360897 -0.04976368 0.00313993
v 0.02492123 -0.04619868 0.00603785
v 0.02433799 -0.04184847 -0.00574419
v 0.02146002 -0.04086998 0.00317230
v 0.02278819 -0.04297450 0.00595848
v 0.02409463 -0.03575943 -0.00557250
v 0.02261910 -0.03606338 0.00096256
v 0.02579228 -0.03896083 0.00373618
v 0.02394201 -0.02973273 -0.00546311
v 0.02397887 -0.02970178 0.00028744
v 0.02377900 -0.02366580 -0.00537954
v 0.02380854 -0.02362894 0.00024258
v 0.02359906 -0.01759497 -0.00529398
v 0.02367936 -0.01760858 0.00023501
v 0.02432322 -0.01242223 -0.00526798
v 0.02449622 -0.01241067 0.00025019
v 0.02129811 -0.00507947 -0.00909438
v 0.02391937 -0.00676065 -0.00616548
v 0.02001638 -0.00612624 0.00279797
v 0.02373226 -0.00620180 0.00082881
v 0.02492645 -0.00236994 -0.00814723
v 0.02284656 -0.00134163 -0.01035667
v 0.02090891 -0.00112108 0.00335163
v 0.02446395 0.00030633 0.00102728
v 0.02264389 0.00267438 -0.00867763
v 0.02447738 0.00578076 -0.00599051
v 0.02052465 0.00452473 0.00339189
v 0.02347827 0.00648478 0.00088357
v 0.02390963 0.01195551 -0.00532404
v 0.02380516 0.01193123 0.00029942
v 0.02380571 0.01788268 -0.00542400
v 0.02385576 0.01780830 0.00041007
v 0.02382061 0.02381092 -0.00544788
v 0.02378395 0.02382827 0.00045850
v 0.02383162 0.02973980 -0.00543327
v 0.02366474 0.02993524 0.00023699
v 0.02379226 0.03567543 -0.00545140
v 0.02440009 0.03582359 0.00079995
v 0.02366858 0.04183175 -0.00569150
v 0.02348018 0.03961075 0.00307803
v 0.02050054 0.04253288 0.00412255
v 0.02413750 0.04241195 0.00584706
v 0.02444308 0.04806821 -0.00528818
v 0.02340370 0.04705255 0.00603389
v 0.02290181 0.05150692 -0.00193052
v 0.01972911 0.05374290 -0.00179787
v 0.02483701 0.04997518 0.00231534
v 0.02879317 -0.04957290 -0.00120030
v 0.02955460 -0.04683097 -0.00497560
v 0.02752327 -0.04827043 0.00293926
v 0.03021973 -0.04804586 0.00047109
v 0.02954142 -0.04111524 -0.00581598
v 0.03048021 -0.04540375 0.00285876
v 0.02818813 -0.04187095 0.00561852
v 0.03018661 -0.03589857 -0.00566540
v 0.02972383 -0.03529046 0.00122852
v 0.03046499 -0.03941967 0.00331134
v 0.03001949 -0.02979611 -0.00554241
v 0.02916699 -0.02898331 0.00026695
v 0.02981718 -0.02373164 -0.00544324
v 0.02992805 -0.02386678 0.00026582
v 0.02960620 -0.01759464 -0.00534453
v 0.02988223 -0.01777262 0.00024641
v 0.02953201 -0.01154825 -0.00529241
v 0.02982123 -0.01170610 0.00023448
v 0.03043988 -0.00644387 -0.00529146
v 0.02981478 -0.00571271 0.00023919
v 0.02598915 0.00102501 -0.00809664
v 0.02911407 -0.00050364 -0.00587936
v 0.02977622 0.00013911 0.00026991
v 0.02986135 0.00608833 -0.00532683
v 0.02979188 0.00594285 0.00032216
v 0.02976028 0.01197300 -0.00538726
v 0.02981535 0.01188789 0.00037838
v 0.02975182 0.01787295 -0.00544206
v 0.02979924 0.01789812 0.00037286
v 0.02975806 0.02380627 -0.00543441
v 0.02976991 0.02387330 0.00023816
v 0.02975189 0.02973764 -0.00542841
v 0.02981374 0.02982201 0.00012891
v 0.02966428 0.03577003 -0.00558818
v 0.03094541 0.03434686 0.00130967
v 0.02979199 0.04194358 -0.00591024
v 0.02808907 0.03839349 0.00358254
v 0.02979847 0.04178768 0.00600338
v 0.03097738 0.04663826 -0.00495190
v 0.02717820 0.04713127 0.00444440
v 0.02902486 0.04852735 0.00101503
v 0.03166112 0.04535774 0.00280012
v 0.02812678 0.04970369 -0.00242601
v 0.03269603 -0.04698327 -0.00236545
v 0.03529923 -0.04396397 -0.00126674
v 0.03543421 -0.04185771 -0.00515615
v 0.03260038 -0.04214082 0.00291334
v 0.03524475 -0.04039829 0.00068768
v 0.03545629 -0.03515533 -0.00576622
v 0.03404301 -0.03613025 0.00285634
v 0.03694905 -0.03879690 0.00283472
v 0.03727838 -0.03572083 0.00556447
v 0.03615687 -0.02986945 -0.00567950
v 0.03395966 -0.03033373 0.00133991
v 0.03630740 -0.03265683 0.00424139
v 0.03595326 -0.02379018 -0.00557234
v 0.03593480 -0.02346577 0.00090976
v 0.03571560 -0.01771631 -0.00547500
v 0.03515046 -0.01711538 0.00023345
v 0.03565614 -0.01164845 -0.00536787
v 0.03595717 -0.01203251 0.00020438
v 0.03569925 -0.00569328 -0.00533760
v 0.03593378 -0.00609334 0.00021268
v 0.03571206 0.00019955 -0.00535081
v 0.03588123 -0.00009257 0.00023025
v 0.03571695 0.00605901 -0.00538636
v 0.03590969 0.00587598 0.00027045
v 0.03568767 0.01194228 -0.00543469
v 0.03585926 0.01182180 0.00026698
v 0.03568726 0.01787421 -0.00543527
v 0.03584118 0.01775927 0.00020813
v 0.03567820 0.02381633 -0.00545027
v 0.03611228 0.02345668 0.00080007
v 0.03565927 0.02982386 -0.00558306
v 0.03512831 0.02935374 0.00131067
v 0.03570461 0.03593421 -0.00586565
v 0.03511695 0.03308169 0.00303720
v 0.03251944 0.03657194 0.00406043
v 0.03652894 0.03542159 0.00604706
v 0.03614287 0.04148740 -0.00507269
v 0.03558047 0.04116839 0.00599908
v 0.03450276 0.04511765 -0.00206542
v 0.03164413 0.04772404 -0.00191330
v 0.03588879 0.04374453 0.00244706
v 0.03898028 -0.04137409 -0.00330905
v 0.04121441 -0.03888039 -0.00079039
v 0.04137348 -0.03588912 -0.00512717
v 0.04038588 -0.03786479 0.00392019
v 0.04162789 -0.03472707 0.00574111
v 0.04138284 -0.02919004 -0.00581512
v 0.03827839 -0.02826273 0.00367979
v 0.04156567 -0.02982453 0.00605843
v 0.04211000 -0.02403363 -0.00574193
v 0.03967964 -0.02374434 0.00309979
v 0.04236879 -0.02423821 0.00585183
v 0.04193961 -0.01793077 -0.00563730
v 0.04012604 -0.01849697 0.00125009
v 0.04263757 -0.02069025 0.00410941
v 0.04182263 -0.01184152 -0.00554480
v 0.04118696 -0.01219884 0.00102271
v 0.04180690 -0.00584440 -0.00550032
v 0.04184792 -0.00558805 0.00085596
v 0.04172953 0.00008766 -0.00550930
v 0.04108703 0.00064799 0.00020483
v 0.04170413 0.00599621 -0.00552587
v 0.04217431 0.00547992 0.00085556
v 0.04170368 0.01192858 -0.00552739
v 0.04111518 0.01176010 0.00098175
v 0.04168883 0.01789479 -0.00556625
v 0.04107895 0.01730611 0.00137413
v 0.04170713 0.02391825 -0.00567609
v 0.04098999 0.02102695 0.00306373
v 0.03921946 0.02537757 0.00357410
v 0.04323963 0.02250256 0.00582493
v 0.04177011 0.03002439 -0.00587402
v 0.03802298 0.03003395 0.00405442
v 0.04192591 0.02963122 0.00596085
v 0.04220157 0.03549687 -0.00512736
v 0.04055698 0.03693024 0.00600091
v 0.04115252 0.03912217 -0.00286473
v 0.03856965 0.04212484 -0.00087798
v 0.04203968 0.03871239 0.00186028
v 0.03898104 0.04118911 0.00390668
v 0.04532042 -0.03475116 -0.00201717
v 0.04369875 -0.03606944 0.00244137
v 0.04784995 -0.03174915 -0.00186078
v 0.04648030 -0.03043051 -0.00500046
v 0.04534895 -0.03172663 0.00283947
v 0.04853216 -0.02900860 0.00103503
v 0.04820604 -0.02357017 -0.00522903
v 0.04699031 -0.02710797 0.00445992
v 0.04698302 -0.02333746 0.00600192
v 0.04720911 -0.01726088 -0.00578034
v 0.04439430 -0.01636303 0.00365345
v 0.04776432 -0.01781368 0.00597666
v 0.04803148 -0.01210117 -0.00576455
v 0.04475810 -0.01079799 0.00355301
v 0.04769626 -0.01286761 0.00609769
v 0.04797648 -0.00606780 -0.00575163
v 0.04565480 -0.00578096 0.00305168
v 0.04900109 -0.00688534 0.00603027
v 0.04786320 -0.00010656 -0.00575424
v 0.04604421 -0.00079219 0.00153448
v 0.04865938 -0.00265071 0.00409903
v 0.04785535 0.00582556 -0.00575208
v 0.04702890 0.00320797 0.00303656
v 0.04520194 0.00746441 0.00354046
v 0.04928294 0.00480017 0.00582467
v 0.04785835 0.01181584 -0.00576574
v 0.04473632 0.01308323 0.00365327
v 0.04850174 0.01029688 0.00635532
v 0.04788533 0.01792738 -0.00580923
v 0.04395425 0.01800841 0.00409624
v 0.04776843 0.01760762 0.00597267
v 0.04824045 0.02378968 -0.00532163
v 0.04647644 0.02470563 0.00594379
v 0.04726539 0.02976227 -0.00490470
v 0.04571971 0.03015934 0.00351198
v 0.04771584 0.03083995 -0.00004118
v 0.04843254 0.02728895 0.00286220
v 0.04717047 0.03269179 -0.00335872
v 0.04475405 0.03509658 -0.00086196
v 0.04374203 0.03454267 0.00388867
v 0.04980265 -0.02824585 -0.00239192
v 0.05154345 -0.02304997 -0.00200180
v 0.04994760 -0.02481121 0.00227912
v 0.05378450 -0.01979729 -0.00180367
v 0.05238693 -0.01852746 -0.00494754
v 0.05133336 -0.01965386 0.00285104
v 0.05462643 -0.01712046 0.00101123
v 0.05352873 -0.01225005 -0.00515783
v 0.05314527 -0.01521399 0.00440070
v 0.05269504 -0.01093295 0.00621638
v 0.05346570 -0.00617873 -0.00512968
v 0.05399451 -0.00495687 0.00629063
v 0.05337855 -0.00021076 -0.00515292
v 0.04957254 0.00075780 0.00408139
v 0.05264083 0.00031819 0.00596009
v 0.05339775 0.00575634 -0.00512257
v 0.05323459 0.00726851 0.00644742
v 0.05344136 0.01187907 -0.00517426
v 0.05248264 0.01285676 0.00610157
v 0.05341283 0.01764380 -0.00482196
v 0.05167926 0.01822771 0.00351196
v 0.05366531 0.01885136 0.00008508
v 0.05450453 0.01527749 0.00301769
v 0.05319502 0.02065455 -0.00324144
v 0.05100700 0.02371098 -0.00173553
v 0.04985930 0.02340729 0.00313148
v 0.04962371 0.02856521 -0.00128615
v 0.05587563 -0.01639245 -0.00240237
v 0.05667081 -0.01076201 -0.00197025
v 0.05616500 -0.01302163 0.00228815
v 0.05660775 -0.00470509 -0.00189490
v 0.05656571 -0.00736737 0.00311202
v 0.05659836 0.00125258 -0.00189471
v 0.05652331 -0.00143141 0.00311361
v 0.05665169 0.00724682 -0.00194575
v 0.05651577 0.00449967 0.00312115
v 0.05646966 0.01276082 -0.00268067
v 0.05631406 0.01098192 0.00259461
v 0.05577372 0.01652945 -0.00117248
f 3 2 1
f 4 1 2
f 3 1 5
f 3 5 6
f 1 4 7
f 8 1 7
f 5 1 8
f 9 8 7
f 6 5 10
f 6 10 11
f 12 5 8
f 10 5 12
f 8 9 13
f 8 13 12
f 11 10 14
f 11 14 15
f 16 10 12
f 14 10 16
f 12 13 17
f 12 17 16
f 15 14 18
f 15 18 19
f 20 14 16
f 18 14 20
f 16 17 21
f 16 21 20
f 19 18 22
f 19 22 23
f 24 18 20
f 22 18 24
f 20 21 25
f 20 25 24
f 23 22 26
f 23 26 27
f 24 29 28
f 26 24 28
f 22 24 26
f 29 24 25
f 30 27 26
f 30 26 28
f 33 32 31
f 34 31 32
f 33 31 35
f 33 35 36
f 31 34 37
f 38 31 37
f 35 31 38
f 39 38 37
f 36 35 2
f 3 36 2
f 40 36 3
f 2 35 4
f 35 41 4
f 35 38 41
f 38 39 42
f 38 42 41
f 6 40 3
f 6 43 40
f 41 7 4
f 9 7 41
f 42 9 41
f 44 9 42
f 11 43 6
f 11 45 43
f 44 13 9
f 46 13 44
f 15 45 11
f 15 47 45
f 50 49 48
f 46 50 48
f 17 46 48
f 13 46 17
f 19 47 15
f 19 51 47
f 49 52 48
f 17 48 52
f 53 17 52
f 21 17 53
f 23 51 19
f 23 54 51
f 53 25 21
f 55 25 53
f 27 54 23
f 27 56 54
f 57 28 29
f 58 57 29
f 25 58 29
f 55 58 25
f 27 30 59
f 60 27 59
f 56 27 60
f 28 57 30
f 57 59 30
f 57 61 59
f 57 58 62
f 57 62 61
f 60 59 63
f 60 63 64
f 61 66 65
f 63 61 65
f 59 61 63
f 66 61 62
f 67 64 63
f 67 63 65
f 70 69 68
f 72 71 68
f 72 68 69
f 73 71 72
f 70 68 32
f 33 70 32
f 74 70 33
f 32 68 34
f 68 75 34
f 68 71 75
f 71 73 76
f 71 76 75
f 36 74 33
f 36 77 74
f 75 37 34
f 39 37 75
f 76 39 75
f 78 39 76
f 40 77 36
f 40 79 77
f 82 81 80
f 78 82 80
f 42 78 80
f 39 78 42
f 43 79 40
f 43 83 79
f 80 81 84
f 84 81 85
f 84 44 42
f 84 42 80
f 45 83 43
f 45 86 83
f 84 85 87
f 87 85 88
f 87 46 44
f 87 44 84
f 47 86 45
f 47 89 86
f 87 88 50
f 88 49 50
f 88 90 49
f 87 50 46
f 51 89 47
f 51 91 89
f 52 49 92
f 49 93 92
f 49 90 93
f 92 53 52
f 54 91 51
f 54 94 91
f 92 93 95
f 95 93 96
f 95 55 53
f 95 53 92
f 56 94 54
f 56 97 94
f 95 96 98
f 98 96 99
f 98 58 55
f 98 55 95
f 60 97 56
f 60 100 97
f 99 101 98
f 58 98 101
f 102 58 101
f 62 58 102
f 64 100 60
f 64 103 100
f 104 65 66
f 105 104 66
f 62 105 66
f 102 105 62
f 64 67 106
f 107 64 106
f 103 64 107
f 65 104 67
f 104 106 67
f 104 108 106
f 104 105 109
f 104 109 108
f 110 107 106
f 110 106 108
f 110 108 111
f 111 108 109
f 114 113 112
f 116 115 112
f 116 112 113
f 117 115 116
f 114 112 69
f 70 114 69
f 118 114 70
f 69 112 72
f 72 112 115
f 73 72 115
f 117 73 115
f 119 73 117
f 74 118 70
f 74 120 118
f 123 122 121
f 119 123 121
f 76 119 121
f 73 119 76
f 77 120 74
f 77 124 120
f 121 122 125
f 125 122 126
f 125 78 76
f 125 76 121
f 79 124 77
f 79 127 124
f 125 126 82
f 126 81 82
f 126 128 81
f 125 82 78
f 83 127 79
f 83 129 127
f 128 85 81
f 130 85 128
f 86 129 83
f 86 131 129
f 130 88 85
f 132 88 130
f 89 131 86
f 89 133 131
f 132 90 88
f 134 90 132
f 91 133 89
f 91 135 133
f 134 93 90
f 136 93 134
f 94 135 91
f 94 137 135
f 136 96 93
f 138 96 136
f 97 137 94
f 97 139 137
f 138 99 96
f 140 99 138
f 100 139 97
f 100 141 139
f 101 99 142
f 99 143 142
f 99 140 143
f 142 102 101
f 103 141 100
f 103 144 141
f 142 143 145
f 145 143 146
f 145 105 102
f 145 102 142
f 107 144 103
f 107 147 144
f 146 148 145
f 105 145 148
f 149 105 148
f 109 105 149
f 107 110 150
f 151 107 150
f 147 107 151
f 150 110 152
f 110 153 152
f 110 111 153
f 111 109 149
f 111 149 153
f 154 151 150
f 154 150 152
f 157 156 155
f 158 155 156
f 157 155 113
f 114 157 113
f 159 157 114
f 158 160 155
f 160 113 155
f 160 116 113
f 117 116 160
f 117 160 161
f 118 159 114
f 118 162 159
f 165 164 163
f 161 165 163
f 119 161 163
f 117 161 119
f 120 162 118
f 120 166 162
f 163 164 123
f 164 122 123
f 164 167 122
f 163 123 119
f 124 166 120
f 124 168 166
f 167 126 122
f 169 126 167
f 127 168 124
f 127 170 168
f 169 128 126
f 171 128 169
f 129 170 127
f 129 172 170
f 171 130 128
f 173 130 171
f 131 172 129
f 131 174 172
f 173 132 130
f 175 132 173
f 178 177 176
f 177 174 176
f 174 133 176
f 174 131 133
f 175 134 132
f 179 134 175
f 180 178 176
f 176 133 180
f 133 181 180
f 133 135 181
f 179 136 134
f 182 136 179
f 137 181 135
f 137 183 181
f 182 138 136
f 184 138 182
f 139 183 137
f 139 185 183
f 184 140 138
f 186 140 184
f 141 185 139
f 141 187 185
f 186 143 140
f 188 143 186
f 144 187 141
f 144 189 187
f 188 146 143
f 190 146 188
f 147 189 144
f 147 191 189
f 148 146 192
f 146 193 192
f 146 190 193
f 192 149 148
f 151 191 147
f 151 194 191
f 196 195 193
f 195 152 193
f 153 192 193
f 153 193 152
f 153 149 192
f 195 196 197
f 151 154 198
f 199 151 198
f 194 151 199
f 200 198 154
f 200 154 152
f 201 200 152
f 195 201 152
f 201 195 197
f 202 199 198
f 202 198 200
f 204 203 156
f 204 156 157
f 206 205 158
f 156 206 158
f 203 206 156
f 207 205 206
f 159 204 157
f 159 208 204
f 205 160 158
f 161 160 205
f 207 161 205
f 209 161 207
f 162 208 159
f 162 210 208
f 212 211 165
f 165 211 164
f 165 161 209
f 165 209 212
f 166 210 162
f 166 213 210
f 211 167 164
f 214 167 211
f 168 213 166
f 168 215 213
f 214 169 167
f 216 169 214
f 170 215 168
f 170 217 215
f 216 171 169
f 218 171 216
f 172 217 170
f 172 219 217
f 218 173 171
f 220 173 218
f 223 222 221
f 222 219 221
f 219 174 221
f 219 172 174
f 220 175 173
f 224 175 220
f 223 221 177
f 178 223 177
f 225 223 178
f 177 221 174
f 224 179 175
f 226 179 224
f 227 225 178
f 227 178 180
f 180 181 227
f 227 181 228
f 226 182 179
f 229 182 226
f 183 228 181
f 183 230 228
f 229 184 182
f 231 184 229
f 185 230 183
f 185 232 230
f 231 186 184
f 233 186 231
f 187 232 185
f 187 234 232
f 233 188 186
f 235 188 233
f 189 234 187
f 189 236 234
f 235 190 188
f 237 190 235
f 191 236 189
f 191 238 236
f 237 193 190
f 239 193 237
f 194 238 191
f 194 240 238
f 239 241 193
f 193 241 196
f 197 196 241
f 197 241 242
f 199 240 194
f 199 243 240
f 244 200 201
f 245 244 201
f 197 245 201
f 242 245 197
f 246 243 199
f 246 199 202
f 202 200 244
f 247 202 244
f 246 202 247
f 247 244 245
f 250 249 248
f 251 248 249
f 250 248 203
f 204 250 203
f 252 250 204
f 251 253 248
f 253 203 248
f 253 206 203
f 207 206 253
f 207 253 254
f 208 252 204
f 208 255 252
f 258 257 256
f 254 258 256
f 209 254 256
f 207 254 209
f 210 255 208
f 210 259 255
f 256 257 212
f 257 211 212
f 257 260 211
f 256 212 209
f 213 259 210
f 213 261 259
f 260 214 211
f 262 214 260
f 215 261 213
f 215 263 261
f 262 216 214
f 264 216 262
f 217 263 215
f 217 265 263
f 264 218 216
f 266 218 264
f 219 265 217
f 219 267 265
f 266 220 218
f 268 220 266
f 270 269 222
f 270 222 223
f 219 222 267
f 267 222 269
f 272 224 271
f 224 268 271
f 224 220 268
f 273 272 271
f 225 270 223
f 225 274 270
f 275 226 272
f 272 226 224
f 272 273 276
f 272 276 275
f 277 274 225
f 277 225 227
f 227 228 277
f 277 228 278
f 279 229 275
f 275 229 226
f 275 276 280
f 275 280 279
f 230 278 228
f 230 281 278
f 283 282 279
f 282 229 279
f 282 231 229
f 283 279 280
f 232 281 230
f 232 284 281
f 282 233 231
f 285 233 282
f 234 284 232
f 234 286 284
f 285 235 233
f 287 235 285
f 236 286 234
f 236 288 286
f 287 237 235
f 289 237 287
f 238 288 236
f 238 290 288
f 289 239 237
f 291 239 289
f 240 290 238
f 240 292 290
f 241 239 293
f 239 294 293
f 239 291 294
f 293 242 241
f 243 292 240
f 243 295 292
f 294 296 293
f 242 293 296
f 297 242 296
f 245 242 297
f 243 246 298
f 299 243 298
f 295 243 299
f 298 246 300
f 246 301 300
f 246 247 301
f 247 245 297
f 247 297 301
f 302 299 298
f 302 298 300
f 304 303 249
f 304 249 250
f 251 249 303
f 251 303 305
f 252 304 250
f 252 306 304
f 305 307 251
f 251 307 253
f 254 253 307
f 254 307 308
f 255 306 252
f 255 309 306
f 311 310 258
f 258 310 257
f 258 254 308
f 258 308 311
f 259 309 255
f 259 312 309
f 310 260 257
f 313 260 310
f 261 312 259
f 261 314 312
f 313 262 260
f 315 262 313
f 263 314 261
f 263 316 314
f 315 264 262
f 317 264 315
f 265 316 263
f 265 318 316
f 317 266 264
f 319 266 317
f 267 318 265
f 267 320 318
f 322 268 321
f 268 319 321
f 268 266 319
f 323 322 321
f 325 324 269
f 325 269 270
f 267 269 320
f 320 269 324
f 322 271 268
f 327 326 273
f 327 273 271
f 323 327 271
f 322 323 271
f 328 326 327
f 274 325 270
f 274 329 325
f 330 276 326
f 326 276 273
f 326 328 331
f 326 331 330
f 332 329 274
f 332 274 277
f 277 278 332
f 332 278 333
f 334 280 330
f 330 280 276
f 330 331 335
f 330 335 334
f 281 333 278
f 281 336 333
f 337 282 283
f 338 337 283
f 338 283 280
f 339 338 280
f 334 339 280
f 339 334 335
f 284 336 281
f 284 340 336
f 342 341 337
f 341 282 337
f 341 285 282
f 342 337 338
f 286 340 284
f 286 343 340
f 341 287 285
f 344 287 341
f 288 343 286
f 288 345 343
f 344 289 287
f 346 289 344
f 290 345 288
f 290 347 345
f 346 291 289
f 348 291 346
f 292 347 290
f 292 349 347
f 348 294 291
f 350 294 348
f 295 349 292
f 295 351 349
f 350 352 294
f 294 352 296
f 297 296 352
f 297 352 353
f 299 351 295
f 299 354 351
f 356 355 301
f 301 355 300
f 301 297 353
f 301 353 356
f 357 354 299
f 357 299 302
f 302 300 355
f 302 355 357
f 359 358 303
f 359 303 304
f 361 360 305
f 303 361 305
f 358 361 303
f 362 360 361
f 306 359 304
f 306 363 359
f 360 307 305
f 308 307 360
f 362 308 360
f 364 308 362
f 309 363 306
f 309 365 363
f 367 366 311
f 311 366 310
f 311 308 364
f 311 364 367
f 312 365 309
f 312 368 365
f 366 313 310
f 369 313 366
f 314 368 312
f 314 370 368
f 369 315 313
f 371 315 369
f 316 370 314
f 316 372 370
f 371 317 315
f 373 317 371
f 318 372 316
f 318 374 372
f 376 319 375
f 319 373 375
f 319 317 373
f 377 376 375
f 320 374 318
f 320 378 374
f 376 321 319
f 380 379 323
f 380 323 321
f 377 380 321
f 376 377 321
f 381 379 380
f 383 382 324
f 383 324 325
f 320 324 378
f 378 324 382
f 386 385 384
f 379 327 323
f 387 386 384
f 389 388 328
f 389 328 327
f 381 389 327
f 379 381 327
f 390 388 389
f 329 383 325
f 329 391 383
f 384 385 392
f 392 385 393
f 387 384 394
f 394 384 392
f 395 331 388
f 388 331 328
f 388 390 396
f 388 396 395
f 397 391 329
f 397 329 332
f 399 398 333
f 398 332 333
f 398 397 332
f 398 399 393
f 399 392 393
f 399 400 392
f 394 392 401
f 401 392 400
f 402 335 395
f 395 335 331
f 395 396 403
f 395 403 402
f 405 404 399
f 333 405 399
f 336 405 333
f 399 404 400
f 400 404 406
f 407 338 339
f 406 401 400
f 408 407 339
f 408 339 335
f 409 408 335
f 402 409 335
f 409 402 403
f 340 405 336
f 340 410 405
f 411 341 342
f 412 411 342
f 412 342 338
f 413 412 338
f 407 413 338
f 413 407 408
f 343 410 340
f 343 414 410
f 416 415 411
f 415 341 411
f 415 344 341
f 416 411 412
f 345 414 343
f 345 417 414
f 415 346 344
f 418 346 415
f 347 417 345
f 347 419 417
f 418 348 346
f 420 348 418
f 349 419 347
f 349 421 419
f 420 350 348
f 422 350 420
f 351 421 349
f 351 423 421
f 422 424 350
f 350 424 352
f 353 352 424
f 353 424 425
f 354 423 351
f 354 426 423
f 427 355 356
f 428 427 356
f 353 428 356
f 425 428 353
f 429 426 354
f 429 354 357
f 357 355 427
f 430 357 427
f 429 357 430
f 430 427 428
f 432 431 358
f 432 358 359
f 358 433 361
f 431 433 358
f 362 361 433
f 362 433 434
f 363 432 359
f 363 435 432
f 438 437 436
f 434 438 436
f 364 434 436
f 362 434 364
f 365 435 363
f 365 439 435
f 436 437 367
f 437 366 367
f 437 440 366
f 436 367 364
f 368 439 365
f 368 441 439
f 440 369 366
f 442 369 440
f 370 441 368
f 370 443 441
f 442 371 369
f 444 371 442
f 372 443 370
f 372 445 443
f 444 373 371
f 446 373 444
f 374 445 372
f 374 447 445
f 446 448 373
f 373 448 375
f 377 375 448
f 377 448 449
f 378 447 374
f 378 450 447
f 449 451 377
f 377 451 380
f 381 380 451
f 381 451 452
f 454 453 382
f 454 382 383
f 378 382 450
f 450 382 453
f 456 455 386
f 386 455 385
f 386 387 456
f 456 387 457
f 452 458 381
f 381 458 389
f 390 389 458
f 390 458 459
f 391 454 383
f 391 460 454
f 455 393 385
f 461 393 455
f 394 463 462
f 457 394 462
f 387 394 457
f 463 464 462
f 459 396 390
f 465 396 459
f 466 460 391
f 466 391 397
f 467 397 398
f 467 466 397
f 398 393 461
f 398 461 467
f 469 468 463
f 394 469 463
f 401 469 394
f 463 468 464
f 465 403 396
f 470 403 465
f 472 471 404
f 472 404 405
f 404 473 406
f 471 473 404
f 401 406 469
f 469 406 473
f 475 474 409
f 409 474 408
f 409 403 470
f 409 470 475
f 410 472 405
f 410 476 472
f 478 477 413
f 413 477 412
f 413 408 474
f 413 474 478
f 414 476 410
f 414 479 476
f 481 480 416
f 416 480 415
f 416 412 477
f 416 477 481
f 417 479 414
f 417 482 479
f 480 418 415
f 483 418 480
f 419 482 417
f 419 484 482
f 483 420 418
f 485 420 483
f 421 484 419
f 421 486 484
f 485 422 420
f 487 422 485
f 423 486 421
f 423 488 486
f 424 422 489
f 422 490 489
f 422 487 490
f 489 425 424
f 426 488 423
f 426 491 488
f 490 492 489
f 425 489 492
f 493 425 492
f 428 425 493
f 494 491 426
f 494 426 429
f 495 429 430
f 495 494 429
f 430 428 493
f 430 493 495
f 497 496 431
f 497 431 432
f 431 498 433
f 496 498 431
f 434 433 498
f 434 498 499
f 435 497 432
f 435 500 497
f 501 437 438
f 502 501 438
f 434 502 438
f 499 502 434
f 439 500 435
f 439 503 500
f 505 504 501
f 504 437 501
f 504 440 437
f 505 501 502
f 441 503 439
f 441 506 503
f 504 442 440
f 507 442 504
f 443 506 441
f 443 508 506
f 507 444 442
f 509 444 507
f 445 508 443
f 445 510 508
f 509 446 444
f 511 446 509
f 447 510 445
f 447 512 510
f 511 513 446
f 446 513 448
f 449 448 513
f 449 513 514
f 450 512 447
f 450 515 512
f 514 516 449
f 449 516 451
f 452 451 516
f 452 516 517
f 519 518 453
f 519 453 454
f 450 453 515
f 515 453 518
f 521 520 456
f 456 520 455
f 456 457 521
f 521 457 522
f 517 523 452
f 452 523 458
f 459 458 523
f 459 523 524
f 460 519 454
f 460 525 519
f 520 461 455
f 526 461 520
f 457 462 527
f 528 457 527
f 522 457 528
f 464 527 462
f 524 465 459
f 529 465 524
f 530 525 460
f 530 460 466
f 531 466 467
f 531 530 466
f 467 461 526
f 467 526 531
f 528 527 468
f 469 528 468
f 532 528 469
f 468 527 464
f 529 470 465
f 533 470 529
f 535 534 471
f 535 471 472
f 471 536 473
f 534 536 471
f 469 473 532
f 532 473 536
f 538 537 475
f 475 537 474
f 475 470 533
f 475 533 538
f 476 535 472
f 476 539 535
f 541 540 478
f 478 540 477
f 478 474 537
f 478 537 541
f 479 539 476
f 479 542 539
f 544 543 481
f 481 543 480
f 481 477 540
f 481 540 544
f 482 542 479
f 482 545 542
f 543 483 480
f 546 483 543
f 484 545 482
f 484 547 545
f 546 485 483
f 548 485 546
f 486 547 484
f 486 549 547
f 548 487 485
f 550 487 548
f 488 549 486
f 488 551 549
f 553 490 552
f 490 550 552
f 490 487 550
f 554 553 552
f 491 551 488
f 491 555 551
f 553 492 490
f 493 492 553
f 554 493 553
f 556 493 554
f 557 555 491
f 557 491 494
f 558 494 495
f 558 557 494
f 495 493 556
f 495 556 558
f 560 559 496
f 560 496 497
f 496 561 498
f 559 561 496
f 499 498 561
f 499 561 562
f 500 560 497
f 500 563 560
f 562 502 499
f 564 502 562
f 503 563 500
f 503 565 563
f 567 566 505
f 505 566 504
f 505 502 564
f 505 564 567
f 506 565 503
f 506 568 565
f 566 507 504
f 569 507 566
f 508 568 506
f 508 570 568
f 569 509 507
f 571 509 569
f 510 570 508
f 510 572 570
f 571 511 509
f 573 511 571
f 512 572 510
f 512 574 572
f 513 511 575
f 511 576 575
f 511 573 576
f 575 514 513
f 515 574 512
f 515 577 574
f 576 578 575
f 578 580 579
f 578 579 516
f 575 578 516
f 514 575 516
f 579 517 516
f 582 581 518
f 582 518 519
f 515 518 577
f 577 518 581
f 583 520 521
f 580 584 579
f 583 521 522
f 584 586 585
f 584 585 523
f 579 584 523
f 517 579 523
f 585 524 523
f 525 582 519
f 525 587 582
f 588 526 583
f 583 526 520
f 528 588 522
f 522 588 583
f 585 586 589
f 589 586 590
f 589 529 524
f 589 524 585
f 591 587 525
f 591 525 530
f 593 591 592
f 591 531 592
f 591 530 531
f 526 588 531
f 588 592 531
f 588 594 592
f 532 594 528
f 528 594 588
f 589 590 595
f 595 590 596
f 595 533 529
f 595 529 589
f 593 592 534
f 535 593 534
f 597 593 535
f 534 592 536
f 536 592 594
f 536 594 532
f 600 599 598
f 598 599 596
f 596 599 595
f 599 537 595
f 537 538 595
f 595 538 533
f 539 597 535
f 539 601 597
f 604 603 602
f 604 602 600
f 600 602 599
f 602 540 599
f 540 541 599
f 599 541 537
f 542 601 539
f 542 605 601
f 602 603 544
f 603 543 544
f 603 606 543
f 602 544 540
f 545 605 542
f 545 607 605
f 606 546 543
f 608 546 606
f 547 607 545
f 547 609 607
f 608 548 546
f 610 548 608
f 549 609 547
f 549 611 609
f 610 550 548
f 612 550 610
f 551 611 549
f 551 613 611
f 612 614 550
f 550 614 552
f 554 552 614
f 554 614 615
f 555 613 551
f 555 616 613
f 619 618 617
f 615 619 617
f 556 615 617
f 554 615 556
f 620 616 555
f 620 555 557
f 558 617 618
f 620 558 618
f 557 558 620
f 617 558 556
f 622 621 559
f 622 559 560
f 621 624 623
f 561 621 623
f 559 621 561
f 623 562 561
f 563 622 560
f 563 625 622
f 624 626 623
f 562 623 626
f 627 562 626
f 564 562 627
f 565 625 563
f 565 628 625
f 630 629 567
f 567 629 566
f 567 564 627
f 567 627 630
f 568 628 565
f 568 631 628
f 629 569 566
f 632 569 629
f 570 631 568
f 570 633 631
f 632 571 569
f 634 571 632
f 572 633 570
f 572 635 633
f 634 573 571
f 636 573 634
f 574 635 572
f 574 637 635
f 636 576 573
f 638 576 636
f 577 637 574
f 577 639 637
f 578 576 640
f 576 641 640
f 576 638 641
f 640 580 578
f 643 642 581
f 643 581 582
f 577 581 639
f 639 581 642
f 641 644 640
f 644 646 645
f 644 645 584
f 640 644 584
f 580 640 584
f 645 586 584
f 587 643 582
f 587 647 643
f 645 646 648
f 648 646 649
f 648 590 586
f 648 586 645
f 650 647 587
f 650 587 591
f 591 593 650
f 650 593 651
f 648 649 652
f 652 649 653
f 652 596 590
f 652 590 648
f 597 651 593
f 597 654 651
f 657 656 655
f 657 655 653
f 653 655 652
f 655 600 652
f 600 598 652
f 652 598 596
f 601 654 597
f 601 658 654
f 655 656 604
f 656 603 604
f 656 659 603
f 655 604 600
f 605 658 601
f 605 660 658
f 659 606 603
f 661 606 659
f 607 660 605
f 607 662 660
f 661 608 606
f 663 608 661
f 609 662 607
f 609 664 662
f 663 610 608
f 665 610 663
f 611 664 609
f 611 666 664
f 665 612 610
f 667 612 665
f 613 666 611
f 613 668 666
f 667 669 612
f 612 669 614
f 615 614 669
f 615 669 670
f 616 668 613
f 616 671 668
f 673 672 619
f 619 672 618
f 619 615 670
f 619 670 673
f 674 671 616
f 674 616 620
f 620 618 672
f 620 672 674
f 622 675 621
f 675 624 621
f 677 676 675
f 622 677 675
f 625 677 622
f 675 676 624
f 676 626 624
f 676 678 626
f 627 626 678
f 627 678 679
f 628 677 625
f 628 680 677
f 681 629 630
f 682 681 630
f 627 682 630
f 679 682 627
f 631 680 628
f 631 683 680
f 685 684 681
f 684 629 681
f 684 632 629
f 685 681 682
f 633 683 631
f 633 686 683
f 684 634 632
f 687 634 684
f 635 686 633
f 635 688 686
f 687 636 634
f 689 636 687
f 637 688 635
f 637 690 688
f 689 638 636
f 691 638 689
f 639 690 637
f 639 692 690
f 691 641 638
f 693 641 691
f 643 694 642
f 694 695 642
f 695 639 642
f 695 692 639
f 644 641 696
f 641 697 696
f 641 693 697
f 696 646 644
f 699 698 694
f 643 699 694
f 647 699 643
f 694 698 695
f 696 697 700
f 700 697 701
f 700 649 646
f 700 646 696
f 702 699 647
f 702 647 650
f 650 651 702
f 702 651 703
f 700 701 704
f 704 701 705
f 704 653 649
f 704 649 700
f 654 703 651
f 654 706 703
f 704 705 657
f 705 656 657
f 705 707 656
f 704 657 653
f 658 706 654
f 658 708 706
f 707 659 656
f 709 659 707
f 660 708 658
f 660 710 708
f 709 661 659
f 711 661 709
f 662 710 660
f 662 712 710
f 711 663 661
f 713 663 711
f 664 712 662
f 664 714 712
f 713 665 663
f 715 665 713
f 666 714 664
f 666 716 714
f 718 667 717
f 667 715 717
f 667 665 715
f 719 718 717
f 668 716 666
f 668 720 716
f 718 669 667
f 670 669 718
f 719 670 718
f 721 670 719
f 671 723 722
f 720 671 722
f 668 671 720
f 672 673 723
f 673 722 723
f 673 724 722
f 673 670 721
f 673 721 724
f 674 723 671
f 723 674 672
f 726 725 676
f 726 676 677
f 725 728 727
f 678 725 727
f 676 725 678
f 727 679 678
f 680 726 677
f 680 729 726
f 728 730 727
f 679 727 730
f 731 679 730
f 682 679 731
f 683 729 680
f 683 732 729
f 734 733 685
f 685 733 684
f 685 682 731
f 685 731 734
f 686 732 683
f 686 735 732
f 733 687 684
f 736 687 733
f 688 735 686
f 688 737 735
f 736 689 687
f 738 689 736
f 690 737 688
f 690 739 737
f 738 691 689
f 740 691 738
f 692 739 690
f 692 741 739
f 740 693 691
f 742 693 740
f 695 741 692
f 695 743 741
f 742 697 693
f 744 697 742
f 699 745 698
f 745 746 698
f 746 695 698
f 746 743 695
f 744 701 697
f 747 701 744
f 702 745 699
f 702 703 745
f 703 746 745
f 703 748 746
f 747 705 701
f 749 705 747
f 706 748 703
f 706 750 748
f 749 707 705
f 751 707 749
f 708 750 706
f 708 752 750
f 751 709 707
f 753 709 751
f 710 752 708
f 710 754 752
f 753 711 709
f 755 711 753
f 712 754 710
f 712 756 754
f 755 713 711
f 757 713 755
f 714 756 712
f 714 758 756
f 757 715 713
f 759 715 757
f 716 758 714
f 716 760 758
f 759 761 715
f 715 761 717
f 719 717 761
f 719 761 762
f 720 760 716
f 720 763 760
f 766 765 764
f 762 766 764
f 721 762 764
f 719 762 721
f 767 763 720
f 767 720 722
f 724 764 765
f 767 724 765
f 722 724 767
f 764 724 721
f 726 768 725
f 768 728 725
f 770 769 768
f 726 770 768
f 729 770 726
f 769 772 771
f 769 771 730
f 768 769 730
f 728 768 730
f 771 731 730
f 732 770 729
f 732 773 770
f 775 774 772
f 774 733 772
f 734 771 772
f 734 772 733
f 734 731 771
f 774 775 776
f 735 773 732
f 735 777 773
f 779 778 774
f 778 733 774
f 778 736 733
f 779 774 776
f 737 777 735
f 737 780 777
f 778 738 736
f 781 738 778
f 739 780 737
f 739 782 780
f 781 740 738
f 783 740 781
f 741 782 739
f 741 784 782
f 783 742 740
f 785 742 783
f 743 784 741
f 743 786 784
f 785 744 742
f 787 744 785
f 746 786 743
f 746 788 786
f 787 747 744
f 789 747 787
f 748 788 746
f 748 790 788
f 789 749 747
f 791 749 789
f 750 790 748
f 750 792 790
f 791 751 749
f 793 751 791
f 752 792 750
f 752 794 792
f 793 753 751
f 795 753 793
f 754 794 752
f 754 796 794
f 795 755 753
f 797 755 795
f 756 796 754
f 756 798 796
f 797 757 755
f 799 757 797
f 758 798 756
f 758 800 798
f 802 759 801
f 759 799 801
f 759 757 799
f 803 802 801
f 760 800 758
f 760 804 800
f 802 761 759
f 762 761 802
f 803 762 802
f 805 762 803
f 763 807 806
f 804 763 806
f 760 763 804
f 765 766 807
f 766 806 807
f 766 808 806
f 766 762 805
f 766 805 808
f 767 807 763
f 807 767 765
f 770 809 769
f 809 772 769
f 811 810 809
f 770 811 809
f 773 811 770
f 809 810 772
f 810 775 772
f 810 812 775
f 776 775 812
f 776 812 813
f 777 811 773
f 777 814 811
f 815 778 779
f 816 815 779
f 776 816 779
f 813 816 776
f 780 814 777
f 780 817 814
f 818 781 815
f 815 781 778
f 815 816 819
f 815 819 818
f 782 817 780
f 782 820 817
f 822 821 818
f 821 781 818
f 821 783 781
f 822 818 819
f 784 820 782
f 784 823 820
f 821 785 783
f 824 785 821
f 786 823 784
f 786 825 823
f 824 787 785
f 826 787 824
f 788 825 786
f 788 827 825
f 826 789 787
f 828 789 826
f 790 827 788
f 790 829 827
f 828 791 789
f 830 791 828
f 792 829 790
f 792 831 829
f 830 793 791
f 832 793 830
f 794 831 792
f 794 833 831
f 832 795 793
f 834 795 832
f 796 833 794
f 796 835 833
f 837 797 836
f 797 834 836
f 797 795 834
f 838 837 836
f 798 835 796
f 798 839 835
f 840 799 837
f 837 799 797
f 837 838 841
f 837 841 840
f 800 839 798
f 800 842 839
f 840 801 799
f 803 801 840
f 841 803 840
f 843 803 841
f 804 845 844
f 842 804 844
f 800 804 842
f 847 846 845
f 845 846 844
f 843 846 847
f 805 843 847
f 803 843 805
f 806 845 804
f 845 806 808
f 845 808 847
f 847 808 805
f 811 848 810
f 849 812 810
f 849 810 848
f 849 813 812
f 851 850 848
f 811 851 848
f 814 851 811
f 853 852 850
f 852 848 850
f 852 849 848
f 852 816 813
f 852 813 849
f 817 851 814
f 817 854 851
f 853 855 852
f 816 852 855
f 856 816 855
f 819 816 856
f 820 854 817
f 820 857 854
f 858 821 822
f 859 858 822
f 819 859 822
f 856 859 819
f 823 857 820
f 823 860 857
f 861 824 858
f 858 824 821
f 858 859 862
f 858 862 861
f 825 860 823
f 825 863 860
f 864 826 861
f 861 826 824
f 861 862 865
f 861 865 864
f 827 863 825
f 827 866 863
f 868 867 864
f 867 826 864
f 867 828 826
f 868 864 865
f 829 866 827
f 829 869 866
f 871 830 870
f 830 867 870
f 830 828 867
f 872 871 870
f 831 869 829
f 831 873 869
f 874 832 871
f 871 832 830
f 871 872 875
f 871 875 874
f 833 873 831
f 833 876 873
f 877 834 874
f 874 834 832
f 874 875 878
f 874 878 877
f 835 876 833
f 835 879 876
f 877 836 834
f 838 836 877
f 878 838 877
f 880 838 878
f 839 879 835
f 839 881 879
f 884 883 882
f 880 884 882
f 841 880 882
f 838 880 841
f 842 886 885
f 881 842 885
f 839 842 881
f 885 886 883
f 886 882 883
f 886 887 882
f 887 843 841
f 887 841 882
f 844 886 842
f 886 844 846
f 886 846 887
f 887 846 843
f 851 888 850
f 888 853 850
f 854 889 888
f 854 888 851
f 890 855 853
f 888 890 853
f 889 890 888
f 890 856 855
f 892 891 889
f 854 892 889
f 857 892 854
f 894 893 891
f 893 889 891
f 893 890 889
f 893 859 856
f 893 856 890
f 860 892 857
f 860 895 892
f 894 896 893
f 859 893 896
f 897 859 896
f 862 859 897
f 863 895 860
f 863 898 895
f 897 865 862
f 899 865 897
f 866 898 863
f 866 900 898
f 901 867 868
f 902 901 868
f 865 902 868
f 899 902 865
f 869 900 866
f 869 903 900
f 901 870 867
f 872 870 901
f 902 872 901
f 904 872 902
f 873 903 869
f 873 905 903
f 904 875 872
f 906 875 904
f 876 905 873
f 876 907 905
f 910 909 908
f 906 910 908
f 878 906 908
f 875 906 878
f 879 912 911
f 907 879 911
f 876 879 907
f 911 912 909
f 912 908 909
f 912 913 908
f 913 880 878
f 913 878 908
f 881 914 912
f 881 912 879
f 914 883 884
f 913 914 884
f 912 914 913
f 913 884 880
f 885 914 881
f 914 885 883
f 892 915 891
f 915 894 891
f 895 916 915
f 895 915 892
f 917 896 894
f 915 917 894
f 916 917 915
f 917 897 896
f 898 918 916
f 898 916 895
f 916 919 917
f 916 918 919
f 919 899 897
f 919 897 917
f 900 920 918
f 900 918 898
f 918 921 919
f 918 920 921
f 921 902 899
f 921 899 919
f 903 922 920
f 903 920 900
f 920 923 921
f 920 922 923
f 923 904 902
f 923 902 921
f 905 924 922
f 905 922 903
f 922 925 923
f 922 924 925
f 925 906 904
f 925 904 923
f 907 926 924
f 907 924 905
f 926 909 910
f 925 926 910
f 924 926 925
f 925 910 906
f 911 926 907
f 926 911 909

