# https://github.com/mikedh/trimesh
v -0.04008097 -0.01372804 -0.01256376
v -0.03814411 -0.01727567 -0.01330959
v -0.03823446 -0.01465932 -0.01476295
v -0.03767371 -0.01579038 -0.01110049
v -0.04036055 -0.00953436 -0.01293767
v -0.03820898 -0.00973868 -0.01508683
v -0.03834604 -0.01066492 -0.01080151
v -0.04034326 -0.00437638 -0.01295043
v -0.03825421 -0.00456863 -0.01500854
v -0.03830587 -0.00549448 -0.01090661
v -0.04033659 0.00067910 -0.01291922
v -0.03825978 0.00044948 -0.01499445
v -0.03824076 -0.00045638 -0.01089410
v -0.04033303 0.00568262 -0.01291796
v -0.03825435 0.00545566 -0.01499473
v -0.03821145 0.00454258 -0.01086190
v -0.04034392 0.01074412 -0.01289164
v -0.03829922 0.01055200 -0.01498129
v -0.03823220 0.00959376 -0.01083015
v -0.04044439 0.01590356 -0.01292221
v -0.03841781 0.01571189 -0.01503042
v -0.03831860 0.01472015 -0.01079068
v -0.04024308 0.01995101 -0.01331471
v -0.03754437 0.02033331 -0.01468047
v -0.03840380 0.01959955 -0.01114283
v -0.03797483 0.02220668 -0.01251713
v -0.03576440 -0.01954228 -0.01252233
v -0.03229872 -0.02131367 -0.01325793
v -0.03438683 -0.01909211 -0.01472790
v -0.03321066 -0.01940962 -0.01108587
v -0.03342041 -0.01503381 -0.01573846
v -0.03363078 -0.01460195 -0.01016101
v -0.03342885 -0.00977198 -0.01568903
v -0.03358111 -0.00941374 -0.01027463
v -0.03348993 -0.00470029 -0.01561159
v -0.03346543 -0.00446302 -0.01034000
v -0.03348827 0.00029952 -0.01561149
v -0.03338101 0.00053859 -0.01032939
v -0.03348648 0.00530926 -0.01561028
v -0.03333252 0.00559275 -0.01029419
v -0.03358735 0.01038003 -0.01563470
v -0.03342130 0.01067855 -0.01020954
v -0.03372120 0.01556337 -0.01565506
v -0.03359227 0.01585394 -0.01017138
v -0.03253398 0.02114018 -0.01512527
v -0.03318221 0.02103786 -0.01072037
v -0.03416781 0.02335170 -0.01293148
v -0.02859260 -0.02225035 -0.01292369
v -0.02868111 -0.02009179 -0.01510865
v -0.02820380 -0.01998551 -0.01079082
v -0.02812763 -0.01485317 -0.01562454
v -0.02831386 -0.01459908 -0.01035379
v -0.02822096 -0.00971913 -0.01552977
v -0.02804752 -0.00994496 -0.00992326
v -0.02823778 -0.00473715 -0.01552032
v -0.02821924 -0.00420756 -0.00993007
v -0.02819226 0.00025541 -0.01551088
v -0.02876692 0.00100109 -0.01046485
v -0.02819451 0.00528370 -0.01549784
v -0.02799194 0.00532752 -0.01048255
v -0.02834002 0.01033889 -0.01553257
v -0.02810556 0.01041760 -0.01038955
v -0.02850049 0.01548790 -0.01558482
v -0.02828128 0.01559757 -0.01026687
v -0.02793071 0.01999353 -0.01562877
v -0.02761899 0.02007890 -0.01020843
v -0.03090644 0.02550661 -0.01333729
v -0.02794087 0.02510913 -0.01481647
v -0.02879753 0.02462968 -0.01103922
v -0.02755035 0.02739498 -0.01252582
v -0.02472813 -0.02888415 -0.01258129
v -0.02295593 -0.03234977 -0.01331727
v -0.02282881 -0.02979396 -0.01475618
v -0.02250744 -0.03097148 -0.01111419
v -0.02566906 -0.02517442 -0.01291899
v -0.02343193 -0.02475847 -0.01511534
v -0.02354013 -0.02525034 -0.01077940
v -0.02307977 -0.01982994 -0.01555993
v -0.02328687 -0.01965158 -0.01042917
v -0.02315520 -0.01473529 -0.01550667
v -0.02294229 -0.01532360 -0.00970483
v -0.02319066 -0.00980012 -0.01548754
v -0.02403873 -0.01200414 -0.00817372
v -0.02561904 -0.00827978 -0.00782923
v -0.02223759 -0.01065039 -0.00602472
v -0.02312136 -0.00483581 -0.01550210
v -0.02511062 -0.00434573 -0.00827861
v -0.02286995 -0.00610247 -0.00616144
v -0.02302787 0.00018553 -0.01549518
v -0.02427299 -0.00008444 -0.01012519
v -0.02173377 -0.00252832 -0.00811029
v -0.02302341 0.00522854 -0.01544316
v -0.02285128 0.00509376 -0.01069521
v -0.02319098 0.01033186 -0.01543710
v -0.02294528 0.01017388 -0.01058420
v -0.02338485 0.01546062 -0.01552338
v -0.02307731 0.01537563 -0.01038812
v -0.02358464 0.02074422 -0.01562567
v -0.02316393 0.02071281 -0.01024060
v -0.02240556 0.02554900 -0.01499529
v -0.02333894 0.02555705 -0.01081914
v -0.02351284 0.02764218 -0.01287752
v -0.02069015 -0.03472868 -0.01253194
v -0.01714437 -0.03666550 -0.01327669
v -0.01920917 -0.03425761 -0.01474110
v -0.01807287 -0.03481987 -0.01107733
v -0.01804797 -0.03019306 -0.01573693
v -0.01846821 -0.03000369 -0.01011999
v -0.01798297 -0.02486490 -0.01563221
v -0.01835541 -0.02466820 -0.01033354
v -0.01815352 -0.01973680 -0.01551025
v -0.01765142 -0.01973219 -0.01000498
v -0.01822253 -0.01482261 -0.01550606
v -0.01847067 -0.01666790 -0.00821527
v -0.02105431 -0.01420348 -0.00742265
v -0.01787338 -0.01422671 -0.00608020
v -0.01759001 -0.00977291 -0.01506464
v -0.01832492 -0.00969614 -0.00520256
v -0.01877361 -0.00425402 -0.01556971
v -0.01802945 -0.00543005 -0.00552129
v -0.02038290 -0.00439973 0.01354128
v -0.01692992 -0.00676219 0.01179759
v -0.01846963 -0.00356494 0.00968800
v -0.02028078 -0.00399197 0.01724073
v -0.01800675 -0.00669313 0.01700341
v -0.01793192 -0.00499969 0.01992799
v -0.01796007 0.00012024 -0.01556574
v -0.01941689 0.00067946 -0.00989907
v -0.01808082 -0.00230779 -0.00753948
v -0.02031248 -0.00016091 0.01250515
v -0.01803014 0.00052649 0.01013462
v -0.02079405 0.00013956 0.01645053
v -0.01878097 -0.00094117 0.01984264
v -0.01793470 0.00524825 -0.01549305
v -0.01780328 0.00549048 -0.01032953
v -0.01883584 0.00324074 0.01283229
v -0.01817787 0.00629484 0.01517505
v -0.02002135 0.00428076 0.01597596
v -0.01786047 0.00506204 0.01981746
v -0.01808607 0.01032558 -0.01543268
v -0.01854981 0.01075261 -0.01068365
v -0.01787080 0.00774438 0.01772408
v -0.01830913 0.01545292 -0.01550314
v -0.01786419 0.01525312 -0.01052699
v -0.01847729 0.02073372 -0.01564192
v -0.01790988 0.02063230 -0.01030812
v -0.01725230 0.02543455 -0.01502975
v -0.01813419 0.02544053 -0.01087465
v -0.01835929 0.02757706 -0.01295897
v -0.01295279 -0.03694354 -0.01290324
v -0.01409356 -0.03492085 -0.01505869
v -0.01315370 -0.03479567 -0.01075211
v -0.01280333 -0.03013745 -0.01567809
v -0.01325644 -0.02999283 -0.01020038
v -0.01299231 -0.02480562 -0.01553335
v -0.01325584 -0.02469877 -0.01047453
v -0.01324201 -0.01977084 -0.01551037
v -0.01205287 -0.02026015 -0.01000873
v -0.01284650 -0.01493587 -0.01499595
v -0.01430549 -0.01731946 -0.00795020
v -0.01309403 -0.01411481 -0.00596645
v -0.01376103 -0.01191758 -0.01327976
v -0.01474354 -0.00942684 -0.01330913
v -0.01188056 -0.00980379 -0.01162657
v -0.01284377 -0.01012249 -0.00469339
v -0.01261999 -0.00713775 -0.01263347
v -0.01404959 -0.00472224 -0.01490823
v -0.01385702 -0.00726315 -0.00316561
v -0.01560730 -0.00376930 -0.00295763
v -0.01502041 -0.00439225 0.00306819
v -0.01308381 -0.00732886 0.00069258
v -0.01614108 -0.00501299 0.00728878
v -0.01368167 -0.00737845 0.00651579
v -0.01320700 -0.00799196 0.01147649
v -0.01388397 -0.00799211 0.01618672
v -0.01571702 -0.00333511 0.02250432
v -0.01411210 -0.00716554 0.02105010
v -0.01208598 -0.00576491 0.02415812
v -0.01365261 0.00082925 -0.01560809
v -0.01626801 0.00074366 -0.00732172
v -0.01567069 0.00074421 -0.00245807
v -0.01565783 0.00016498 0.00206681
v -0.01624352 -0.00039517 0.00700991
v -0.01614155 0.00162251 0.02241148
v -0.01278209 -0.00087435 0.02434190
v -0.01295562 0.00527215 -0.01553041
v -0.01500651 0.00523763 -0.00843182
v -0.01498095 0.00437390 -0.00443291
v -0.01522280 0.00519793 0.00153628
v -0.01575626 0.00538333 0.00716230
v -0.01657617 0.00522472 0.01170559
v -0.01568155 0.00518362 0.02238787
v -0.01236399 0.00474143 0.02402105
v -0.01306060 0.01033409 -0.01544753
v -0.01362063 0.01014871 -0.01015782
v -0.01293866 0.00778891 -0.00680437
v -0.01316710 0.00763195 -0.00182795
v -0.01357704 0.00851911 0.00252396
v -0.01288050 0.01112974 0.00508477
v -0.01488330 0.00931733 0.00639477
v -0.01524504 0.01000211 0.01120682
v -0.01566916 0.00984834 0.01589865
v -0.01345322 0.01059478 0.01992049
v -0.01346414 0.00810156 0.02234807
v -0.01329709 0.01538400 -0.01553082
v -0.01339606 0.01577063 -0.01060124
v -0.01328853 0.01276048 0.00880136
v -0.01337132 0.01308771 0.01356264
v -0.01268843 0.01298826 0.01738723
v -0.01342395 0.02063999 -0.01563978
v -0.01273196 0.02043359 -0.01043296
v -0.01245682 0.02468316 -0.01471619
v -0.01330262 0.02534001 -0.01129024
v -0.01432529 0.02715219 -0.01336450
v -0.00779301 -0.03692580 -0.01289063
v -0.00890697 -0.03487643 -0.01498204
v -0.00798778 -0.03483956 -0.01083030
v -0.00774454 -0.03007111 -0.01560949
v -0.00823655 -0.03001456 -0.01029813
v -0.00804432 -0.02480218 -0.01553947
v -0.00833199 -0.02465450 -0.01054405
v -0.00827096 -0.01974726 -0.01554148
v -0.00713800 -0.02019013 -0.01013982
v -0.00707669 -0.01456375 -0.01506417
v -0.00931360 -0.01719012 -0.00813075
v -0.00739103 -0.01414444 -0.00566676
v -0.00982465 -0.01219806 -0.01295822
v -0.00756754 -0.00880558 -0.01045569
v -0.00826180 -0.01177392 -0.00313732
v -0.01081890 -0.00970584 -0.00160761
v -0.01058836 -0.00973338 0.00313669
v -0.00730225 -0.01219293 0.00060830
v -0.01066562 -0.00966220 0.00829037
v -0.00819426 -0.01225221 0.00574243
v -0.01059939 -0.00969997 0.01345759
v -0.00817905 -0.01223192 0.01078996
v -0.01063359 -0.00982775 0.01863253
v -0.00809420 -0.01237121 0.01594597
v -0.01062509 -0.00920761 0.02253237
v -0.00815328 -0.01222045 0.02085537
v -0.00854247 -0.00969061 0.02433559
v -0.01019927 -0.00312738 -0.01223240
v -0.00944362 -0.00601421 -0.01045812
v -0.00892730 -0.00483004 0.02549658
v -0.00759129 -0.00244753 -0.01355971
v -0.00875647 -0.00039038 -0.01518964
v -0.00727859 0.00002765 -0.01075566
v -0.00981411 -0.00034622 -0.00784018
v -0.00873685 -0.00279538 -0.00839369
v -0.00838569 -0.00207553 -0.00416674
v -0.00985592 0.00036720 -0.00306758
v -0.00843944 -0.00216683 0.00090719
v -0.00998964 0.00071876 0.00251200
v -0.00846281 -0.00227805 0.00596388
v -0.01050676 0.00082062 0.00832176
v -0.00852689 -0.00237243 0.01107928
v -0.01067619 0.00089243 0.01356169
v -0.00863291 -0.00211938 0.01594225
v -0.01023447 0.00133513 0.01754681
v -0.00742577 -0.00085912 0.01910238
v -0.00830710 0.00082654 0.02526898
v -0.00800328 0.00530307 -0.01551701
v -0.00855942 0.00261402 -0.00675689
v -0.00844801 0.00279600 -0.00187760
v -0.00873926 0.00343600 0.00235856
v -0.01010078 0.00412632 0.00619201
v -0.00796238 0.00608330 0.00493152
v -0.01060842 0.00478433 0.01110938
v -0.01042688 0.00489314 0.01604331
v -0.00762296 0.00464044 0.01925387
v -0.00821272 0.00542350 0.02468804
v -0.00811349 0.01031814 -0.01545056
v -0.01034120 0.01110475 -0.00769416
v -0.01113688 0.01074254 -0.00309305
v -0.01155265 0.01091449 0.00178987
v -0.00841677 0.00767291 0.00862507
v -0.00861708 0.00808034 0.01353491
v -0.00792877 0.00808667 0.01752724
v -0.01081809 0.01065096 0.02235810
v -0.00793664 0.00966582 0.02407188
v -0.00832396 0.01540089 -0.01554025
v -0.00921147 0.01472527 -0.00994700
v -0.00817112 0.01350778 -0.00751819
v -0.00768204 0.01588454 -0.00520618
v -0.00960849 0.01397690 -0.00396852
v -0.01007338 0.01476016 0.00092059
v -0.01067679 0.01471453 0.00593009
v -0.01081633 0.01549355 0.01114044
v -0.01055175 0.01543446 0.01588675
v -0.00827415 0.01549761 0.01992477
v -0.00818580 0.01310004 0.02233616
v -0.00779133 0.02134967 -0.01518293
v -0.00769356 0.02124816 -0.01032168
v -0.00820943 0.01764551 -0.00142347
v -0.00823183 0.01810603 0.00339344
v -0.00822795 0.01800390 0.00843214
v -0.00832108 0.01790226 0.01350943
v -0.00764946 0.01786901 0.01743804
v -0.00824063 0.02385749 -0.01308826
v -0.01095012 0.02513881 -0.01265927
v -0.00272915 -0.03691942 -0.01291874
v -0.00382074 -0.03483937 -0.01499165
v -0.00296506 -0.03484018 -0.01084536
v -0.00274111 -0.03006822 -0.01561164
v -0.00325750 -0.03000088 -0.01030175
v -0.00309876 -0.02480053 -0.01555791
v -0.00342614 -0.02469163 -0.01055770
v -0.00331683 -0.01970989 -0.01557308
v -0.00225235 -0.02022896 -0.01011931
v -0.00258010 -0.01540624 -0.01561149
v -0.00362723 -0.01715353 -0.00774249
v -0.00248308 -0.01508481 -0.00501515
v -0.00546251 -0.01485237 0.00331954
v -0.00162416 -0.01671851 0.00156914
v -0.00378886 -0.01443154 -0.00033506
v -0.00583105 -0.01494102 0.00810778
v -0.00264732 -0.01700788 0.00690652
v -0.00570660 -0.01501464 0.01313230
v -0.00263334 -0.01702817 0.01197185
v -0.00567108 -0.01516943 0.01830444
v -0.00318979 -0.01696046 0.01634796
v -0.00580341 -0.01445249 0.02363831
v -0.00213793 -0.01683875 0.02206193
v -0.00484689 -0.01424356 0.02756869
v -0.00329582 -0.01684575 0.02650232
v -0.00216875 -0.01538197 0.02914600
v -0.00575497 -0.00936781 -0.01256616
v -0.00324887 -0.01019281 -0.01509513
v -0.00434450 -0.01336018 -0.00294271
v -0.00592834 -0.00945052 0.02697019
v -0.00268463 -0.01130514 0.02957618
v -0.00558878 -0.00498540 -0.01317204
v -0.00344372 -0.00441302 -0.01512220
v -0.00614543 -0.00525692 -0.00690316
v -0.00252265 -0.00725639 -0.00826443
v -0.00384078 -0.00459520 -0.01097949
v -0.00296573 -0.00668000 -0.00369595
v -0.00568776 -0.00466263 -0.00164991
v -0.00231144 -0.00744934 0.00065102
v -0.00578680 -0.00475582 0.00329572
v -0.00321802 -0.00743764 0.00574237
v -0.00582555 -0.00485685 0.00829282
v -0.00267249 -0.00754439 0.01171628
v -0.00581907 -0.00499551 0.01344954
v -0.00261118 -0.00679567 0.01718987
v -0.00588410 -0.00443378 0.01742993
v -0.00334979 -0.00466697 0.02005650
v -0.00586443 -0.00349005 0.02731622
v -0.00279731 -0.00598451 0.02941677
v -0.00304316 0.00033132 -0.01554337
v -0.00256244 -0.00047115 -0.01076217
v -0.00343161 0.00051720 0.02043386
v -0.00506827 0.00068664 0.02685392
v -0.00227802 -0.00038246 0.02909127
v -0.00305270 0.00534243 -0.01546348
v -0.00593370 0.00474883 -0.00833943
v -0.00240737 0.00518558 -0.01013188
v -0.00577224 0.00581117 -0.00369953
v -0.00660257 0.00587900 0.00163802
v -0.00342655 0.00539867 0.01989892
v -0.00470848 0.00515327 0.02545511
v -0.00260381 0.00326031 0.02758681
v -0.00316350 0.01030689 -0.01544796
v -0.00325371 0.00762460 -0.00670231
v -0.00341631 0.00852356 -0.00264758
v -0.00469960 0.00915331 0.00118166
v -0.00272675 0.01115913 0.00009728
v -0.00568727 0.00968611 0.00591714
v -0.00584346 0.01053991 0.01113960
v -0.00561115 0.01064862 0.01604898
v -0.00304774 0.00976584 0.01934850
v -0.00255112 0.01057790 0.02529452
v -0.00331457 0.01541222 -0.01552787
v -0.00655110 0.01655531 -0.00785929
v -0.00309825 0.01277364 0.00379348
v -0.00319631 0.01314521 0.00853729
v -0.00324706 0.01320577 0.01370014
v -0.00253314 0.01327335 0.01766317
v -0.00560718 0.01563650 0.02237914
v -0.00327674 0.01514003 0.02402421
v -0.00279071 0.01992835 -0.01561005
v -0.00542847 0.01984950 -0.00766152
v -0.00565221 0.01963984 -0.00433444
v -0.00578238 0.02063422 0.00081943
v -0.00573385 0.02058826 0.00586259
v -0.00580064 0.02045004 0.01106770
v -0.00552951 0.02043797 0.01601790
v -0.00324763 0.02062099 0.02007788
v -0.00311797 0.01818449 0.02244990
v -0.00558412 0.02522078 -0.01345940
v -0.00276546 0.02498506 -0.01485116
v -0.00410984 0.02497399 -0.01116358
v -0.00261184 0.02292421 -0.00734488
v -0.00255690 0.02256965 -0.00184406
v -0.00260746 0.02254320 0.00316889
v -0.00325814 0.02231152 0.00780420
v -0.00277283 0.02310899 0.01277097
v -0.00259114 0.02316817 0.01758967
v -0.00234829 0.02718079 -0.01271223
v 0.00227932 -0.03691919 -0.01292004
v 0.00118666 -0.03484160 -0.01499777
v 0.00204429 -0.03484400 -0.01083908
v 0.00221015 -0.03010884 -0.01565191
v 0.00170688 -0.03008786 -0.01025481
v 0.00189853 -0.02486040 -0.01559166
v 0.00154209 -0.02478452 -0.01046501
v 0.00175353 -0.01971711 -0.01557512
v 0.00274236 -0.01934878 -0.01011983
v 0.00183319 -0.01467212 -0.01560315
v 0.00108510 -0.01714125 -0.00765345
v -0.00150398 -0.01514137 -0.00251592
v 0.00164929 -0.01660793 -0.00277254
v 0.00276750 -0.01769872 0.00265256
v 0.00200468 -0.01773939 0.00699741
v 0.00194342 -0.01771072 0.01213194
v 0.00059134 -0.01707298 0.01737408
v 0.00040476 -0.01526450 0.02157367
v 0.00338983 -0.01487843 0.02018035
v 0.00117786 -0.01536558 0.02455655
v 0.00042173 -0.01659199 0.02728631
v 0.00227592 -0.01360539 0.02951235
v 0.00190398 -0.00964940 -0.01555957
v 0.00241560 -0.01142765 0.00301503
v -0.00024201 -0.01027279 0.00326523
v 0.00131737 -0.00988219 0.00043908
v 0.00196555 -0.01171741 0.00707548
v -0.00066923 -0.01023422 0.00814299
v 0.00158857 -0.01136394 0.01121660
v 0.00012131 -0.00983579 0.01271456
v 0.00234932 -0.00943588 0.01469824
v 0.00313344 -0.01352022 0.02363149
v 0.00118285 -0.00922775 0.03024222
v 0.00193900 -0.00464815 -0.01551413
v 0.00127709 -0.00400716 -0.01000195
v 0.00214823 -0.00662505 -0.00713255
v 0.00102699 -0.00786854 -0.00287276
v 0.00119962 -0.00764429 0.01729918
v 0.00066906 -0.00661621 0.02153573
v -0.00051430 -0.00380980 0.02263653
v 0.00310210 -0.00398333 0.02421025
v 0.00186142 -0.00474053 0.03009209
v 0.00193780 0.00032065 -0.01546393
v 0.00126517 0.00087191 -0.01081908
v -0.00010994 0.00029766 0.02208212
v 0.00239587 -0.00038185 0.02431535
v 0.00252855 -0.00035347 0.02998965
v 0.00190549 0.00531860 -0.01542317
v 0.00268919 0.00460288 -0.01087489
v 0.00249393 0.00298169 0.02277510
v 0.00097548 0.00562889 0.02050838
v -0.00109004 0.00701374 0.02725215
v 0.00146530 0.00419639 0.02940482
v 0.00184778 0.01034023 -0.01543632
v -0.00116376 0.01086379 -0.00759365
v 0.00171800 0.01002915 -0.01033294
v -0.00155691 0.01110902 -0.00328366
v 0.00199092 0.01066758 0.01996779
v -0.00001237 0.01099416 0.02688526
v 0.00222605 0.00908560 0.02895353
v 0.00170690 0.01543918 -0.01552198
v 0.00008650 0.01468218 -0.00827792
v 0.00315419 0.01591436 -0.01006041
v -0.00025930 0.01514857 -0.00430639
v -0.00065568 0.01496603 0.00087785
v -0.00063121 0.01580294 0.00605593
v -0.00068571 0.01582770 0.01118711
v -0.00038888 0.01592102 0.01609592
v 0.00145716 0.01437045 0.01905168
v 0.00097405 0.01479942 0.02534575
v 0.00320040 0.01282918 0.02728059
v 0.00150323 0.02071884 -0.01562122
v 0.00208249 0.01787661 -0.00675600
v 0.00131547 0.01730952 -0.00233723
v 0.00177084 0.01713920 0.00199991
v 0.00179784 0.01708841 0.00706373
v 0.00177762 0.01720334 0.01224873
v 0.00221610 0.01706532 0.01638662
v -0.00056250 0.02077617 0.02251266
v 0.00170667 0.01924302 0.02409224
v 0.00260433 0.02550118 -0.01502856
v 0.00129016 0.02551659 -0.01052182
v 0.00278168 0.02309487 -0.00750882
v 0.00199678 0.02330104 -0.00301116
v 0.00196419 0.02317623 0.00199526
v 0.00119477 0.02353926 0.00762463
v -0.00002670 0.02542719 0.01167585
v 0.00257566 0.02538049 0.01040749
v -0.00040424 0.02583901 0.01583918
v 0.00067700 0.02495460 0.01910315
v 0.00284265 0.02287753 0.02164472
v 0.00160015 0.02757236 -0.01303526
v 0.00154369 0.02696276 0.01303783
v 0.00224345 0.02702307 0.01614885
v 0.00726588 -0.03694218 -0.01293297
v 0.00613690 -0.03488820 -0.01503806
v 0.00701925 -0.03490573 -0.01080024
v 0.00717538 -0.03015368 -0.01570311
v 0.00670451 -0.03013699 -0.01017902
v 0.00759326 -0.02464565 -0.01513430
v 0.00727971 -0.02408858 -0.01082224
v 0.00618093 -0.01900789 -0.01557452
v 0.00647824 -0.01955582 -0.01052347
v 0.00697922 -0.01469998 -0.01557345
v 0.00410934 -0.01518571 -0.00816806
v 0.00739045 -0.01467277 -0.00999663
v 0.00469718 -0.01468536 -0.00454540
v 0.00643108 -0.01527802 -0.00074733
v 0.00654123 -0.01672110 0.00250312
v 0.00657974 -0.01714346 0.00727230
v 0.00662094 -0.01708920 0.01231769
v 0.00559005 -0.01668958 0.01679211
v 0.00661920 -0.01492194 0.01944235
v 0.00342913 -0.01464753 0.02694331
v 0.00701113 -0.00973590 -0.01550831
v 0.00674033 -0.01224416 -0.00669485
v 0.00737698 -0.01290035 -0.00255128
v 0.00369363 -0.00860110 0.00175525
v 0.00390866 -0.00959408 0.00721121
v 0.00360552 -0.00958334 0.01208690
v 0.00723066 -0.01255463 0.02198781
v 0.00593828 -0.01241608 0.02702945
v 0.00693606 -0.00902542 0.02956899
v 0.00694437 -0.00472945 -0.01543792
v 0.00465823 -0.00441781 -0.00828398
v 0.00448642 -0.00555555 -0.00360170
v 0.00500694 -0.00483282 0.00137759
v 0.00490274 -0.00539962 0.00608543
v 0.00498613 -0.00542953 0.01131502
v 0.00451269 -0.00566233 0.01641865
v 0.00418098 -0.00507905 0.02134725
v 0.00638639 -0.00409297 0.03011262
v 0.00691109 0.00030774 -0.01541977
v 0.00631167 0.00025565 -0.01020459
v 0.00705982 -0.00221360 -0.00679008
v 0.00752840 -0.00227081 -0.00167028
v 0.00664549 -0.00284714 0.00297519
v 0.00715821 -0.00205557 0.00779628
v 0.00685362 -0.00206592 0.01361230
v 0.00701475 -0.00225957 0.01880283
v 0.00637664 -0.00240872 0.02287428
v 0.00729368 0.00063430 0.02461406
v 0.00701530 0.00031911 0.03009238
v 0.00691161 0.00532189 -0.01541941
v 0.00638090 0.00591297 -0.01089575
v 0.00491518 0.00612706 0.02211868
v 0.00611947 0.00407109 0.02432753
v 0.00683256 0.00540201 0.03009738
v 0.00689706 0.01034470 -0.01542393
v 0.00700692 0.01032655 -0.01089274
v 0.00879710 0.00776200 0.02268382
v 0.00584124 0.01069372 0.01997242
v 0.00678224 0.00983919 0.02939620
v 0.00674986 0.01545222 -0.01550295
v 0.00767888 0.01470986 -0.01082726
v 0.00438212 0.01635125 -0.00284422
v 0.00737862 0.01277942 -0.00336917
v 0.00779416 0.01509155 -0.00533575
v 0.00424574 0.01565866 0.00308729
v 0.00725305 0.01289950 0.00144216
v 0.00428389 0.01569408 0.00830701
v 0.00748287 0.01363904 0.00709384
v 0.00441177 0.01583346 0.01348720
v 0.00767164 0.01376644 0.01225172
v 0.00450538 0.01515170 0.01743542
v 0.00772518 0.01325796 0.01680996
v 0.00569298 0.01628620 0.02539955
v 0.00812096 0.01302212 0.02735477
v 0.00654697 0.02071439 -0.01561980
v 0.00423208 0.02055934 -0.00800287
v 0.00621609 0.02054261 -0.01019632
v 0.00700816 0.01918242 -0.00544750
v 0.00701769 0.02015069 0.02433351
v 0.00763707 0.02545290 -0.01500110
v 0.00681493 0.02549057 -0.01105418
v 0.00577043 0.02243417 -0.00411634
v 0.00647409 0.02258384 0.00073880
v 0.00641339 0.02235668 0.00575374
v 0.00670765 0.02303523 0.01136441
v 0.00418624 0.02585010 0.01354071
v 0.00699644 0.02383976 0.01784435
v 0.00377082 0.02557618 0.01769736
v 0.00780678 0.02260751 0.02250697
v 0.00658707 0.02755597 -0.01298813
v 0.01222641 -0.03696071 -0.01292910
v 0.01108622 -0.03488280 -0.01506608
v 0.01197009 -0.03489596 -0.01077219
v 0.01281039 -0.02934138 -0.01525031
v 0.01200449 -0.02939135 -0.01059437
v 0.01190770 -0.02674835 -0.01288850
v 0.00991674 -0.02482102 -0.01291012
v 0.01183762 -0.02276197 -0.01297449
v 0.01129326 -0.02040450 -0.01513695
v 0.01149497 -0.02031582 -0.01083795
v 0.01206792 -0.01476060 -0.01558647
v 0.01233843 -0.01529399 -0.01048245
v 0.00879493 -0.01335147 0.00192593
v 0.00901997 -0.01442293 0.00733797
v 0.00902641 -0.01508047 0.01170083
v 0.00921905 -0.01408324 0.01645716
v 0.01204948 -0.00981249 -0.01551154
v 0.00910232 -0.01005423 -0.00833788
v 0.01247142 -0.00972848 -0.01013254
v 0.00934905 -0.01007931 -0.00363926
v 0.01015268 -0.00973339 0.00125188
v 0.01001142 -0.01036860 0.00609463
v 0.01032191 -0.01085409 0.01158971
v 0.01287624 -0.00960294 0.01512635
v 0.01118639 -0.01145200 0.01826116
v 0.01028993 -0.01016941 0.02184262
v 0.01210124 -0.00986940 0.01947596
v 0.00937540 -0.00989284 0.02605519
v 0.01202377 -0.00478984 -0.01544458
v 0.01174234 -0.00730603 -0.00695309
v 0.01194096 -0.00716113 -0.00199491
v 0.01190920 -0.00720727 0.00324100
v 0.01188348 -0.00709567 0.00842624
v 0.01270348 -0.00711777 0.01226669
v 0.01286558 -0.00778298 0.02242940
v 0.01156409 -0.00738212 0.02764527
v 0.01121287 -0.00411688 0.02939206
v 0.01194314 0.00028758 -0.01542244
v 0.00974087 0.00071437 -0.00828340
v 0.00981664 0.00017227 -0.00454638
v 0.01244422 0.00069615 -0.00097269
v 0.01119465 -0.00176096 0.00189334
v 0.00996914 -0.00001724 0.00663279
v 0.01313246 -0.00062337 0.00474147
v 0.00925021 0.00040614 0.01090390
v 0.00951311 0.00036070 0.01612597
v 0.00940788 0.00024723 0.02117920
v 0.01245042 0.00150949 0.02968754
v 0.01192352 0.00531649 -0.01541585
v 0.01083040 0.00484537 -0.01012589
v 0.01224049 0.00284845 -0.00673907
v 0.01201929 0.00219215 -0.00342878
v 0.01268130 0.00259364 0.00734254
v 0.01213491 0.00283662 0.01324694
v 0.01238667 0.00284012 0.01859812
v 0.01168385 0.00286638 0.02277521
v 0.01089494 0.00515623 0.02416288
v 0.01126309 0.00605833 0.03022570
v 0.01192390 0.01032281 -0.01541590
v 0.01223699 0.01070427 -0.01036697
v 0.00959111 0.01013522 -0.00165796
v 0.01228933 0.00829639 -0.00357541
v 0.01063365 0.01136112 -0.00525083
v 0.01009823 0.01067976 0.00250383
v 0.01201973 0.00799949 0.00051062
v 0.01244631 0.00973368 0.00432114
v 0.01259617 0.00813420 0.02206573
v 0.01096996 0.01066340 0.01984858
v 0.01203072 0.00971143 0.02948460
v 0.01178288 0.01540036 -0.01549395
v 0.01135921 0.01611780 -0.01070003
v 0.01188071 0.01499676 -0.00533947
v 0.01084291 0.01211315 0.00634698
v 0.01164442 0.01252050 0.01115318
v 0.01180100 0.01225113 0.01600065
v 0.01083581 0.01620949 0.02544822
v 0.01335733 0.01288203 0.02747202
v 0.01155061 0.02066636 -0.01561217
v 0.01204539 0.02071481 -0.01046011
v 0.01196606 0.01814034 -0.00266079
v 0.00926105 0.02068931 -0.00165130
v 0.01268534 0.01857321 0.00194352
v 0.00961833 0.02041184 0.00329488
v 0.01255638 0.01831903 0.00713438
v 0.00942939 0.02021000 0.00837139
v 0.01189664 0.01878901 0.01125387
v 0.01013847 0.02067693 0.01266329
v 0.01351694 0.02049444 0.01453312
v 0.01179815 0.02007593 0.02409205
v 0.01263060 0.02543443 -0.01499341
v 0.01188865 0.02546361 -0.01091357
v 0.01114540 0.02254111 0.01644169
v 0.01236916 0.02256612 0.02094422
v 0.01155096 0.02751187 -0.01291543
v 0.01720238 -0.03691808 -0.01290948
v 0.01611438 -0.03485312 -0.01508121
v 0.01699336 -0.03483793 -0.01075810
v 0.01796102 -0.03076452 -0.01584439
v 0.01760617 -0.03083673 -0.00999736
v 0.01382858 -0.02468929 -0.01295287
v 0.01642350 -0.02490334 -0.01526767
v 0.01623981 -0.02548259 -0.01058280
v 0.01775666 -0.01950368 -0.01519256
v 0.01761187 -0.01918954 -0.01070926
v 0.01646246 -0.01415185 -0.01561599
v 0.01602508 -0.01408559 -0.01044324
v 0.01718072 -0.00991287 -0.01556387
v 0.01741544 -0.01048705 -0.01052700
v 0.01358296 -0.00954615 0.01764606
v 0.01715464 -0.00484012 -0.01551182
v 0.01425164 -0.00523107 -0.00832344
v 0.01760447 -0.00486391 -0.01003679
v 0.01441994 -0.00402741 -0.00336250
v 0.01373632 -0.00419305 0.00216687
v 0.01411314 -0.00493601 0.00637649
v 0.01485276 -0.00457926 0.01076074
v 0.01595544 -0.00561396 0.01440132
v 0.01593795 -0.00686777 0.01781991
v 0.01528651 -0.00450487 0.02255009
v 0.01752052 -0.00408689 0.01999000
v 0.01365982 -0.00483014 0.02643296
v 0.01703836 0.00022794 -0.01544593
v 0.01687899 -0.00241228 -0.00673530
v 0.01708225 -0.00183070 -0.00347024
v 0.01659315 -0.00032920 -0.00105307
v 0.01650092 -0.00198021 0.00750244
v 0.01593590 0.00113448 0.00472966
v 0.01759053 -0.00292789 0.01262792
v 0.01675609 -0.00187979 0.02302878
v 0.01490527 -0.00125365 0.02674939
v 0.01705790 0.00027618 0.02494522
v 0.01695172 0.00529701 -0.01541994
v 0.01379151 0.00616024 -0.00827391
v 0.01386699 0.00492761 -0.00291887
v 0.01781698 0.00221743 0.00172902
v 0.01442714 0.00552699 0.00327119
v 0.01447653 0.00657456 0.00771138
v 0.01430061 0.00605491 0.01209305
v 0.01428013 0.00544470 0.01663377
v 0.01389721 0.00579449 0.02118731
v 0.01749148 0.00215262 0.02681997
v 0.01621815 0.00593746 0.02945923
v 0.01691958 0.01032715 -0.01543565
v 0.01440084 0.01046074 -0.00713023
v 0.01390252 0.00995229 0.00752975
v 0.01439765 0.01001629 0.01229670
v 0.01430269 0.00908517 0.01773503
v 0.01619709 0.01024260 0.02908476
v 0.01678448 0.01541132 -0.01554556
v 0.01646465 0.01470571 -0.01016915
v 0.01763607 0.01225513 -0.00817585
v 0.01740297 0.01289463 -0.00364429
v 0.01483283 0.01597630 -0.00244652
v 0.01781799 0.01526745 -0.00003153
v 0.01613277 0.01572896 0.02495571
v 0.01685591 0.01238137 0.02757753
v 0.01659611 0.02067910 -0.01568391
v 0.01711408 0.02056757 -0.01027068
v 0.01590112 0.01714850 0.00106209
v 0.01649912 0.01723276 0.00591721
v 0.01603474 0.01786810 0.01118416
v 0.01716539 0.01991203 0.01472152
v 0.01514359 0.02008062 0.02272051
v 0.01656698 0.02123704 0.02013808
v 0.01765030 0.01860035 0.02156167
v 0.01782388 0.02545468 -0.01503523
v 0.01689891 0.02532798 -0.01077913
v 0.01569365 0.02210501 0.01759412
v 0.01666368 0.02744960 -0.01285869
v 0.02226577 -0.03689003 -0.01295479
v 0.02113162 -0.03479247 -0.01513556
v 0.02215737 -0.03486073 -0.01073695
v 0.02226180 -0.02985544 -0.01587361
v 0.02208704 -0.03006988 -0.00997885
v 0.02240702 -0.02501051 -0.01489413
v 0.02156798 -0.02449897 -0.01093119
v 0.02136050 -0.02249332 -0.01333297
v 0.02025703 -0.01987328 -0.01290830
v 0.02156770 -0.01729198 -0.01252107
v 0.02144948 -0.01482842 -0.01490787
v 0.02188895 -0.01423597 -0.01099959
v 0.02166684 -0.00929420 -0.01559694
v 0.02124966 -0.00924582 -0.01044972
v 0.02233460 -0.00488898 -0.01557508
v 0.02265509 -0.00554803 -0.01048178
v 0.01870476 -0.00332608 0.01662721
v 0.02219593 0.00022593 -0.01553878
v 0.01893143 0.00014464 -0.00821774
v 0.02186230 -0.00016323 -0.01011568
v 0.01930626 0.00103190 -0.00464473
v 0.01897875 0.00056726 0.00658561
v 0.01978027 -0.00030610 0.01162396
v 0.02047934 0.00015970 0.01635625
v 0.01923009 -0.00022686 0.02138577
v 0.02206168 0.00531626 -0.01554052
v 0.02027173 0.00530271 -0.00707268
v 0.02247431 0.00537878 -0.00996178
v 0.02190448 0.00463085 -0.00462487
v 0.02163131 0.00286337 -0.00168308
v 0.02248453 0.00327301 0.00246990
v 0.02184871 0.00263470 0.00739316
v 0.02235878 0.00271958 0.01322611
v 0.02234041 0.00267520 0.01834198
v 0.02147194 0.00321708 0.02333170
v 0.01991544 0.00513509 0.02699647
v 0.02248490 0.00670257 0.02484373
v 0.02202109 0.01037278 -0.01556513
v 0.01929148 0.01004120 -0.00750402
v 0.02174662 0.01055540 -0.01005390
v 0.02186302 0.00762650 -0.00376221
v 0.01980459 0.00991943 -0.00405954
v 0.02195900 0.01023367 -0.00102894
v 0.01940627 0.01007421 0.02701717
v 0.02205436 0.01077403 0.02450232
v 0.02193783 0.01543119 -0.01565525
v 0.02223192 0.01519164 -0.01032864
v 0.02113840 0.01305301 0.00160324
v 0.01944845 0.01549386 0.00368794
v 0.02242220 0.01294912 0.00607895
v 0.01972512 0.01544852 0.00845357
v 0.02232597 0.01295837 0.01110118
v 0.01965348 0.01633711 0.01350810
v 0.02223927 0.01308453 0.01621514
v 0.02040024 0.01565239 0.01804853
v 0.02228450 0.01274279 0.02109493
v 0.01977890 0.01506402 0.02241238
v 0.02188111 0.02071470 -0.01577902
v 0.02232190 0.02042971 -0.01009966
v 0.01871969 0.01924415 0.01772354
v 0.02328472 0.02547186 -0.01511166
v 0.02219363 0.02527393 -0.01071070
v 0.02201015 0.02747518 -0.01290565
v 0.02747679 -0.03697441 -0.01295677
v 0.02624625 -0.03468833 -0.01517782
v 0.02747029 -0.03485697 -0.01070177
v 0.02800834 -0.02964940 -0.01526052
v 0.02713106 -0.02958536 -0.01057109
v 0.02766879 -0.02724408 -0.01289167
v 0.02425372 -0.02528592 -0.01244607
v 0.02458654 -0.01459261 -0.01329790
v 0.02691338 -0.01245266 -0.01257887
v 0.02672376 -0.00992178 -0.01492362
v 0.02722593 -0.00931454 -0.01097798
v 0.02680945 -0.00423077 -0.01562479
v 0.02650878 -0.00432113 -0.01038888
v 0.02744607 0.00020822 -0.01565436
v 0.02726779 0.00005898 -0.01040776
v 0.02736594 0.00538331 -0.01565739
v 0.02733278 0.00511324 -0.01038183
v 0.02379741 0.00646746 -0.00188939
v 0.02449038 0.00576926 0.00189914
v 0.02439511 0.00578457 0.00695643
v 0.02432177 0.00592989 0.01214148
v 0.02436116 0.00589791 0.01723206
v 0.02390056 0.00524010 0.02130465
v 0.02763244 0.01013477 -0.01508908
v 0.02744363 0.01056026 -0.01084368
v 0.02414844 0.00976518 0.00238903
v 0.02444295 0.00966778 0.00712031
v 0.02429380 0.00976779 0.01229878
v 0.02429104 0.00984863 0.01743851
v 0.02406419 0.00889620 0.02195035
v 0.02668003 0.01535183 -0.01504233
v 0.02697672 0.01629819 -0.01085130
v 0.02677222 0.02060547 -0.01512610
v 0.02705453 0.02170523 -0.01073412
v 0.02755417 0.02481115 -0.01455201
v 0.02640989 0.02595505 -0.01129021
v 0.02634743 0.02719024 -0.01333334
v 0.03170764 -0.03662766 -0.01255955
v 0.03125622 -0.03466409 -0.01481077
v 0.03219524 -0.03367330 -0.01106828
v 0.03283608 -0.03082491 -0.01457886
v 0.03156553 -0.02962599 -0.01126238
v 0.03161140 -0.02837556 -0.01332981
v 0.02994760 -0.00960632 -0.01326886
v 0.03220997 -0.00741007 -0.01254339
v 0.03131341 -0.00532281 -0.01482662
v 0.03175153 -0.00437137 -0.01106616
v 0.03220896 0.00018882 -0.01505032
v 0.03215131 0.00115739 -0.01085475
v 0.03214311 0.00501349 -0.01466984
v 0.03148889 0.00599235 -0.01118214
v 0.03198008 0.00743755 -0.01329275
v 0.02977296 0.01048136 -0.01293281
v 0.02886495 0.01515249 -0.01297246
v 0.02901218 0.02043661 -0.01293982
v 0.02878955 0.02474446 -0.01250932
v 0.03402821 -0.03409223 -0.01332333
v 0.03396386 -0.03081321 -0.01251310
v 0.03407924 -0.00405545 -0.01331634
v 0.03429143 0.00007704 -0.01291978
v 0.03393218 0.00412526 -0.01249813
f 3 2 1
f 4 1 2
f 3 1 5
f 3 5 6
f 1 4 7
f 1 7 5
f 6 5 8
f 6 8 9
f 5 7 10
f 5 10 8
f 9 8 11
f 9 11 12
f 8 10 13
f 8 13 11
f 12 11 14
f 12 14 15
f 11 13 16
f 11 16 14
f 15 14 17
f 15 17 18
f 14 16 19
f 14 19 17
f 18 17 20
f 18 20 21
f 17 19 22
f 17 22 20
f 21 20 23
f 21 23 24
f 20 22 25
f 20 25 23
f 26 24 23
f 26 23 25
f 29 28 27
f 30 27 28
f 29 27 2
f 3 29 2
f 31 29 3
f 4 2 27
f 30 4 27
f 32 4 30
f 6 31 3
f 6 33 31
f 32 7 4
f 34 7 32
f 9 33 6
f 9 35 33
f 34 10 7
f 36 10 34
f 12 35 9
f 12 37 35
f 36 13 10
f 38 13 36
f 15 37 12
f 15 39 37
f 38 16 13
f 40 16 38
f 18 39 15
f 18 41 39
f 40 19 16
f 42 19 40
f 21 41 18
f 21 43 41
f 42 22 19
f 44 22 42
f 24 43 21
f 24 45 43
f 44 25 22
f 46 25 44
f 47 45 24
f 47 24 26
f 26 25 46
f 26 46 47
f 49 48 28
f 49 28 29
f 30 28 48
f 30 48 50
f 31 49 29
f 31 51 49
f 50 32 30
f 52 32 50
f 33 51 31
f 33 53 51
f 52 34 32
f 54 34 52
f 35 53 33
f 35 55 53
f 54 36 34
f 56 36 54
f 37 55 35
f 37 57 55
f 56 38 36
f 58 38 56
f 39 57 37
f 39 59 57
f 58 40 38
f 60 40 58
f 41 59 39
f 41 61 59
f 60 42 40
f 62 42 60
f 43 61 41
f 43 63 61
f 62 44 42
f 64 44 62
f 45 63 43
f 45 65 63
f 64 46 44
f 66 46 64
f 45 47 67
f 68 45 67
f 65 45 68
f 69 67 47
f 46 69 47
f 66 69 46
f 70 68 67
f 70 67 69
f 73 72 71
f 74 71 72
f 73 71 75
f 73 75 76
f 71 74 77
f 71 77 75
f 76 75 48
f 49 76 48
f 78 76 49
f 50 48 75
f 77 50 75
f 79 50 77
f 51 78 49
f 51 80 78
f 79 52 50
f 81 52 79
f 53 80 51
f 53 82 80
f 84 54 83
f 54 81 83
f 54 52 81
f 85 84 83
f 55 82 53
f 55 86 82
f 87 56 84
f 84 56 54
f 84 85 88
f 84 88 87
f 57 86 55
f 57 89 86
f 91 90 87
f 90 56 87
f 90 58 56
f 91 87 88
f 59 89 57
f 59 92 89
f 90 60 58
f 93 60 90
f 61 92 59
f 61 94 92
f 93 62 60
f 95 62 93
f 63 94 61
f 63 96 94
f 95 64 62
f 97 64 95
f 65 96 63
f 65 98 96
f 97 66 64
f 99 66 97
f 68 98 65
f 68 100 98
f 99 69 66
f 101 69 99
f 102 100 68
f 102 68 70
f 70 69 101
f 70 101 102
f 105 104 103
f 106 103 104
f 105 103 72
f 73 105 72
f 107 105 73
f 74 72 103
f 106 74 103
f 108 74 106
f 76 107 73
f 76 109 107
f 108 77 74
f 110 77 108
f 78 109 76
f 78 111 109
f 110 79 77
f 112 79 110
f 80 111 78
f 80 113 111
f 115 81 114
f 81 112 114
f 81 79 112
f 116 115 114
f 82 113 80
f 82 117 113
f 115 83 81
f 85 83 115
f 116 85 115
f 118 85 116
f 86 117 82
f 86 119 117
f 118 88 85
f 120 88 118
f 123 122 121
f 125 124 121
f 125 121 122
f 126 124 125
f 89 119 86
f 89 127 119
f 129 128 91
f 91 128 90
f 91 88 120
f 91 120 129
f 123 121 130
f 123 130 131
f 132 121 124
f 130 121 132
f 124 126 133
f 124 133 132
f 92 127 89
f 92 134 127
f 128 93 90
f 135 93 128
f 136 131 130
f 138 137 136
f 130 138 136
f 132 138 130
f 132 133 139
f 132 139 138
f 94 134 92
f 94 140 134
f 135 95 93
f 141 95 135
f 142 137 138
f 142 138 139
f 96 140 94
f 96 143 140
f 141 97 95
f 144 97 141
f 98 143 96
f 98 145 143
f 144 99 97
f 146 99 144
f 100 145 98
f 100 147 145
f 146 101 99
f 148 101 146
f 149 147 100
f 149 100 102
f 102 101 148
f 102 148 149
f 151 150 104
f 151 104 105
f 106 104 150
f 106 150 152
f 107 151 105
f 107 153 151
f 152 108 106
f 154 108 152
f 109 153 107
f 109 155 153
f 154 110 108
f 156 110 154
f 111 155 109
f 111 157 155
f 156 112 110
f 158 112 156
f 113 157 111
f 113 159 157
f 158 160 112
f 112 160 114
f 116 114 160
f 116 160 161
f 117 163 162
f 159 117 162
f 113 117 159
f 163 164 162
f 161 118 116
f 165 118 161
f 167 166 163
f 117 167 163
f 119 167 117
f 163 166 164
f 169 120 168
f 120 165 168
f 120 118 165
f 171 170 169
f 171 169 168
f 173 172 170
f 173 170 171
f 122 123 172
f 173 122 172
f 174 122 173
f 122 175 125
f 174 175 122
f 177 176 126
f 125 177 126
f 175 177 125
f 178 176 177
f 127 167 119
f 127 179 167
f 180 128 129
f 120 169 129
f 169 180 129
f 169 181 180
f 182 169 170
f 181 169 182
f 183 170 172
f 182 170 183
f 131 183 123
f 123 183 172
f 184 133 176
f 176 133 126
f 176 178 185
f 176 185 184
f 134 179 127
f 134 186 179
f 187 135 180
f 180 135 128
f 188 180 181
f 187 180 188
f 189 181 182
f 188 181 189
f 190 182 183
f 189 182 190
f 136 191 131
f 191 183 131
f 191 190 183
f 137 191 136
f 192 139 184
f 184 139 133
f 184 185 193
f 184 193 192
f 140 186 134
f 140 194 186
f 196 195 187
f 195 135 187
f 195 141 135
f 196 187 188
f 196 188 197
f 197 188 189
f 197 189 198
f 200 199 198
f 189 200 198
f 190 200 189
f 201 190 191
f 200 190 201
f 142 202 137
f 202 191 137
f 202 201 191
f 203 202 142
f 203 142 139
f 204 203 139
f 192 204 139
f 204 192 193
f 143 194 140
f 143 205 194
f 195 144 141
f 206 144 195
f 207 199 200
f 207 200 201
f 207 201 208
f 208 201 202
f 208 202 209
f 209 202 203
f 145 205 143
f 145 210 205
f 206 146 144
f 211 146 206
f 147 210 145
f 147 212 210
f 211 148 146
f 213 148 211
f 214 212 147
f 214 147 149
f 149 148 213
f 149 213 214
f 216 215 150
f 216 150 151
f 152 150 215
f 152 215 217
f 153 216 151
f 153 218 216
f 217 154 152
f 219 154 217
f 155 218 153
f 155 220 218
f 219 156 154
f 221 156 219
f 157 220 155
f 157 222 220
f 221 158 156
f 223 158 221
f 159 222 157
f 159 224 222
f 223 225 158
f 158 225 160
f 161 160 225
f 161 225 226
f 227 224 159
f 227 159 162
f 162 164 227
f 227 164 228
f 230 165 229
f 165 226 229
f 165 161 226
f 232 231 230
f 232 230 229
f 234 233 231
f 234 231 232
f 236 235 233
f 236 233 234
f 238 237 235
f 238 235 236
f 240 239 237
f 240 237 238
f 241 239 240
f 167 242 166
f 242 243 166
f 243 164 166
f 243 228 164
f 230 168 165
f 168 230 171
f 171 230 231
f 171 231 173
f 173 231 233
f 173 233 174
f 174 233 235
f 174 235 175
f 175 235 237
f 175 237 177
f 177 237 239
f 178 177 239
f 241 178 239
f 244 178 241
f 246 245 242
f 167 246 242
f 179 246 167
f 245 247 242
f 247 248 242
f 249 243 242
f 249 242 248
f 251 250 248
f 248 250 249
f 253 252 251
f 251 252 250
f 255 254 253
f 253 254 252
f 257 256 255
f 255 256 254
f 259 258 257
f 257 258 256
f 259 260 258
f 244 185 178
f 261 185 244
f 186 246 179
f 186 262 246
f 247 263 248
f 248 263 251
f 251 263 264
f 251 264 253
f 253 264 265
f 267 266 265
f 266 253 265
f 266 255 253
f 255 268 257
f 255 266 268
f 257 269 259
f 257 268 269
f 260 259 270
f 270 259 269
f 261 193 185
f 271 193 261
f 194 262 186
f 194 272 262
f 273 195 196
f 197 274 196
f 196 274 273
f 198 275 197
f 197 275 274
f 267 276 266
f 275 198 199
f 266 276 268
f 268 276 277
f 268 277 269
f 269 277 278
f 279 203 204
f 278 270 269
f 280 279 204
f 193 280 204
f 271 280 193
f 205 272 194
f 205 281 272
f 283 282 273
f 282 195 273
f 282 206 195
f 285 284 283
f 273 285 283
f 274 285 273
f 286 274 275
f 285 274 286
f 207 287 199
f 287 275 199
f 287 286 275
f 208 288 207
f 207 288 287
f 209 289 208
f 208 289 288
f 290 289 209
f 290 209 203
f 291 290 203
f 279 291 203
f 291 279 280
f 210 281 205
f 210 292 281
f 282 211 206
f 293 211 282
f 294 284 285
f 294 285 286
f 294 286 295
f 295 286 287
f 295 287 296
f 296 287 288
f 296 288 297
f 297 288 289
f 297 289 298
f 298 289 290
f 212 300 299
f 292 212 299
f 210 212 292
f 293 299 300
f 213 293 300
f 211 293 213
f 214 300 212
f 300 214 213
f 302 301 215
f 302 215 216
f 217 215 301
f 217 301 303
f 218 302 216
f 218 304 302
f 303 219 217
f 305 219 303
f 220 304 218
f 220 306 304
f 305 221 219
f 307 221 305
f 222 306 220
f 222 308 306
f 307 223 221
f 309 223 307
f 224 308 222
f 224 310 308
f 309 311 223
f 223 311 225
f 226 225 311
f 226 311 312
f 315 314 313
f 317 316 313
f 317 313 314
f 319 318 316
f 319 316 317
f 321 320 318
f 321 318 319
f 323 322 320
f 323 320 321
f 325 324 322
f 325 322 323
f 326 324 325
f 224 227 327
f 328 224 327
f 310 224 328
f 228 327 227
f 312 329 226
f 226 329 229
f 313 232 315
f 232 329 315
f 232 229 329
f 232 313 234
f 234 313 316
f 234 316 236
f 236 316 318
f 236 318 238
f 238 318 320
f 238 320 240
f 240 320 322
f 240 322 241
f 322 330 241
f 322 324 330
f 324 326 331
f 324 331 330
f 328 327 332
f 328 332 333
f 243 334 228
f 335 228 334
f 228 335 327
f 336 327 335
f 327 336 332
f 338 337 334
f 334 337 335
f 340 339 338
f 338 339 337
f 342 341 340
f 340 341 339
f 344 343 342
f 342 343 341
f 346 345 344
f 344 345 343
f 346 347 345
f 348 244 330
f 330 244 241
f 330 331 349
f 330 349 348
f 333 332 245
f 246 333 245
f 350 333 246
f 243 249 334
f 245 332 247
f 336 247 332
f 247 336 351
f 334 249 250
f 334 250 338
f 338 250 252
f 338 252 340
f 340 252 254
f 340 254 342
f 342 254 256
f 342 256 344
f 344 256 258
f 344 258 346
f 258 260 346
f 260 347 346
f 260 352 347
f 353 261 348
f 348 261 244
f 348 349 354
f 348 354 353
f 262 350 246
f 262 355 350
f 263 247 356
f 247 357 356
f 247 351 357
f 358 264 263
f 358 263 356
f 359 265 264
f 359 264 358
f 359 267 265
f 270 352 260
f 270 360 352
f 362 361 353
f 361 261 353
f 361 271 261
f 362 353 354
f 272 355 262
f 272 363 355
f 357 364 356
f 356 364 358
f 358 364 365
f 367 366 365
f 366 358 365
f 366 359 358
f 368 276 267
f 359 368 267
f 366 368 359
f 369 277 276
f 369 276 368
f 370 278 277
f 370 277 369
f 370 371 278
f 371 270 278
f 371 360 270
f 361 280 271
f 372 280 361
f 281 363 272
f 281 373 363
f 374 282 283
f 284 374 283
f 367 375 366
f 366 375 368
f 368 375 376
f 368 376 369
f 369 376 377
f 369 377 370
f 370 377 378
f 379 290 291
f 378 371 370
f 380 379 291
f 280 380 291
f 372 380 280
f 292 373 281
f 292 381 373
f 382 293 374
f 374 293 282
f 294 383 284
f 383 374 284
f 383 382 374
f 295 384 294
f 294 384 383
f 296 385 295
f 295 385 384
f 297 386 296
f 296 386 385
f 298 387 297
f 297 387 386
f 388 387 298
f 388 298 290
f 389 388 290
f 379 389 290
f 389 379 380
f 292 299 390
f 391 292 390
f 381 292 391
f 392 390 299
f 392 299 293
f 393 392 293
f 382 393 293
f 393 382 383
f 393 383 394
f 394 383 384
f 394 384 395
f 395 384 385
f 395 385 396
f 396 385 386
f 396 386 397
f 397 386 387
f 397 387 398
f 398 387 388
f 399 391 390
f 399 390 392
f 401 400 301
f 401 301 302
f 303 301 400
f 303 400 402
f 304 401 302
f 304 403 401
f 402 305 303
f 404 305 402
f 306 403 304
f 306 405 403
f 404 307 305
f 406 307 404
f 308 405 306
f 308 407 405
f 406 309 307
f 408 309 406
f 310 407 308
f 310 409 407
f 408 410 309
f 309 410 311
f 412 411 312
f 311 412 312
f 410 412 311
f 314 315 411
f 412 314 411
f 413 314 412
f 314 414 317
f 413 414 314
f 317 415 319
f 414 415 317
f 319 416 321
f 415 416 319
f 416 418 417
f 323 416 417
f 321 416 323
f 323 417 419
f 420 323 419
f 325 323 420
f 326 325 420
f 326 420 421
f 328 409 310
f 328 422 409
f 411 329 312
f 329 411 315
f 425 424 423
f 427 426 424
f 424 426 423
f 429 428 427
f 427 428 426
f 429 430 428
f 418 431 417
f 417 431 419
f 421 331 326
f 432 331 421
f 333 422 328
f 333 433 422
f 435 434 335
f 335 434 336
f 436 335 337
f 436 435 335
f 339 424 425
f 436 339 425
f 337 339 436
f 424 339 341
f 424 341 427
f 427 341 343
f 427 343 429
f 437 430 429
f 343 437 429
f 345 437 343
f 439 438 347
f 438 345 347
f 438 437 345
f 439 440 438
f 432 349 331
f 441 349 432
f 350 433 333
f 350 442 433
f 434 351 336
f 443 351 434
f 352 444 439
f 352 439 347
f 440 439 445
f 445 439 444
f 441 354 349
f 446 354 441
f 355 442 350
f 355 447 442
f 443 357 351
f 448 357 443
f 450 449 444
f 352 450 444
f 360 450 352
f 451 361 362
f 449 445 444
f 452 451 362
f 354 452 362
f 446 452 354
f 363 447 355
f 363 453 447
f 364 357 454
f 357 455 454
f 357 448 455
f 456 365 364
f 456 364 454
f 456 367 365
f 371 450 360
f 371 457 450
f 458 372 451
f 451 372 361
f 451 452 459
f 451 459 458
f 373 453 363
f 373 460 453
f 454 455 461
f 461 455 462
f 454 463 456
f 454 461 463
f 464 375 367
f 456 464 367
f 463 464 456
f 465 376 375
f 465 375 464
f 466 377 376
f 466 376 465
f 467 378 377
f 467 377 466
f 467 468 378
f 468 371 378
f 468 457 371
f 470 469 458
f 469 372 458
f 469 380 372
f 470 458 459
f 381 460 373
f 381 471 460
f 462 472 461
f 461 472 463
f 463 472 473
f 463 473 464
f 464 473 474
f 464 474 465
f 465 474 475
f 465 475 466
f 466 475 476
f 466 476 467
f 467 476 477
f 478 388 389
f 477 468 467
f 479 478 389
f 380 479 389
f 469 479 380
f 391 471 381
f 391 480 471
f 482 481 393
f 393 481 392
f 483 393 394
f 483 482 393
f 484 394 395
f 484 483 394
f 485 395 396
f 485 484 395
f 487 485 486
f 485 397 486
f 485 396 397
f 398 488 397
f 397 488 486
f 489 488 398
f 489 398 388
f 490 489 388
f 478 490 388
f 490 478 479
f 491 480 391
f 491 391 399
f 399 392 481
f 399 481 491
f 492 487 486
f 492 486 488
f 492 488 493
f 493 488 489
f 495 494 400
f 495 400 401
f 402 400 494
f 402 494 496
f 403 495 401
f 403 497 495
f 496 404 402
f 498 404 496
f 405 497 403
f 405 499 497
f 498 406 404
f 500 406 498
f 407 499 405
f 407 501 499
f 500 408 406
f 502 408 500
f 409 501 407
f 409 503 501
f 410 408 504
f 408 505 504
f 408 502 505
f 506 412 410
f 506 410 504
f 412 506 507
f 508 412 507
f 413 412 508
f 413 509 414
f 508 509 413
f 414 510 415
f 509 510 414
f 415 511 416
f 510 511 415
f 418 416 511
f 418 511 512
f 419 513 420
f 513 421 420
f 422 503 409
f 422 514 503
f 505 515 504
f 504 515 506
f 506 515 516
f 517 425 423
f 516 507 506
f 426 518 423
f 423 518 517
f 428 519 426
f 426 519 518
f 430 519 428
f 512 520 418
f 418 520 431
f 419 431 513
f 431 521 513
f 431 520 521
f 421 513 521
f 522 421 521
f 432 421 522
f 433 514 422
f 433 523 514
f 524 434 435
f 436 525 435
f 435 525 524
f 425 517 436
f 517 525 436
f 517 526 525
f 527 517 518
f 526 517 527
f 528 518 519
f 527 518 528
f 437 529 430
f 529 519 430
f 529 528 519
f 438 530 437
f 437 530 529
f 440 530 438
f 522 441 432
f 531 441 522
f 442 523 433
f 442 532 523
f 534 533 524
f 533 434 524
f 533 443 434
f 534 524 525
f 534 525 535
f 535 525 526
f 535 526 536
f 536 526 527
f 536 527 537
f 537 527 528
f 537 528 538
f 538 528 529
f 538 529 539
f 539 529 530
f 539 530 540
f 530 440 540
f 440 541 540
f 440 445 541
f 531 446 441
f 542 446 531
f 447 532 442
f 447 543 532
f 533 448 443
f 544 448 533
f 450 545 449
f 545 546 449
f 546 445 449
f 546 541 445
f 542 452 446
f 547 452 542
f 453 543 447
f 453 548 543
f 544 455 448
f 549 455 544
f 551 550 545
f 450 551 545
f 457 551 450
f 545 550 546
f 547 459 452
f 552 459 547
f 460 548 453
f 460 553 548
f 549 462 455
f 554 462 549
f 557 556 555
f 559 558 555
f 559 555 556
f 561 560 558
f 561 558 559
f 563 562 560
f 563 560 561
f 565 564 562
f 565 562 563
f 565 551 564
f 551 468 564
f 551 457 468
f 567 566 470
f 470 566 469
f 470 459 552
f 470 552 567
f 471 553 460
f 471 568 553
f 472 462 569
f 462 570 569
f 462 554 570
f 571 557 555
f 472 571 555
f 473 472 555
f 571 472 569
f 473 555 474
f 474 555 558
f 474 558 475
f 475 558 560
f 475 560 476
f 476 560 562
f 476 562 477
f 477 562 564
f 477 564 468
f 566 479 469
f 572 479 566
f 480 568 471
f 480 573 568
f 569 570 482
f 570 481 482
f 570 574 481
f 575 571 569
f 482 575 569
f 483 575 482
f 576 483 484
f 576 575 483
f 577 484 485
f 577 576 484
f 579 578 487
f 578 485 487
f 578 577 485
f 581 580 579
f 579 580 578
f 489 490 581
f 490 580 581
f 490 582 580
f 490 479 572
f 490 572 582
f 583 573 480
f 583 480 491
f 491 481 574
f 491 574 583
f 492 579 487
f 579 492 493
f 579 493 581
f 581 493 489
f 585 584 494
f 585 494 495
f 496 494 584
f 496 584 586
f 497 585 495
f 497 587 585
f 586 498 496
f 588 498 586
f 499 590 589
f 587 499 589
f 497 499 587
f 588 589 590
f 500 588 590
f 498 588 500
f 592 591 590
f 499 592 590
f 501 592 499
f 500 590 591
f 593 500 591
f 502 500 593
f 503 592 501
f 503 594 592
f 593 505 502
f 595 505 593
f 507 596 508
f 597 509 508
f 597 508 596
f 598 510 509
f 598 509 597
f 599 511 510
f 599 510 598
f 599 512 511
f 514 594 503
f 514 600 594
f 515 505 601
f 505 602 601
f 505 595 602
f 603 516 515
f 603 515 601
f 596 507 516
f 603 596 516
f 604 596 603
f 596 605 597
f 596 604 605
f 597 606 598
f 597 605 606
f 608 599 607
f 599 606 607
f 599 598 606
f 608 610 609
f 608 609 520
f 599 608 520
f 512 599 520
f 611 521 520
f 611 520 609
f 611 522 521
f 523 600 514
f 523 612 600
f 602 613 601
f 601 613 603
f 603 613 614
f 603 614 604
f 604 614 615
f 604 615 605
f 605 615 616
f 605 616 606
f 606 616 617
f 606 617 607
f 610 618 609
f 609 618 611
f 611 618 619
f 522 611 619
f 620 522 619
f 531 522 620
f 532 612 523
f 532 621 612
f 622 533 534
f 535 623 534
f 534 623 622
f 623 535 624
f 535 625 624
f 535 536 625
f 627 625 626
f 625 537 626
f 625 536 537
f 538 628 537
f 537 628 626
f 539 629 538
f 538 629 628
f 540 630 539
f 539 630 629
f 541 630 540
f 620 542 531
f 631 542 620
f 543 621 532
f 543 632 621
f 634 633 622
f 633 533 622
f 633 544 533
f 634 622 623
f 634 623 635
f 635 623 624
f 636 627 626
f 636 626 628
f 636 628 637
f 637 628 629
f 637 629 638
f 638 629 630
f 638 630 639
f 630 541 639
f 541 640 639
f 541 546 640
f 631 547 542
f 641 547 631
f 548 632 543
f 548 642 632
f 633 549 544
f 643 549 633
f 646 645 644
f 648 647 644
f 648 644 645
f 649 647 648
f 651 650 550
f 651 550 551
f 546 550 640
f 640 550 650
f 641 552 547
f 652 552 641
f 553 642 548
f 553 653 642
f 643 554 549
f 654 554 643
f 646 644 556
f 557 646 556
f 655 646 557
f 556 644 559
f 559 644 647
f 649 656 647
f 656 559 647
f 656 561 559
f 561 657 563
f 656 657 561
f 563 658 565
f 657 658 563
f 551 565 651
f 651 565 658
f 660 659 567
f 567 659 566
f 567 552 652
f 567 652 660
f 568 653 553
f 568 661 653
f 654 570 554
f 662 570 654
f 571 664 663
f 655 571 663
f 557 571 655
f 666 665 664
f 664 665 663
f 668 667 666
f 666 667 665
f 670 669 668
f 668 669 667
f 670 671 669
f 659 572 566
f 672 572 659
f 573 661 568
f 573 673 661
f 662 574 570
f 674 574 662
f 575 664 571
f 664 575 576
f 664 576 666
f 666 576 577
f 666 577 668
f 668 577 578
f 668 578 670
f 675 671 670
f 578 675 670
f 580 675 578
f 676 580 582
f 676 675 580
f 582 572 672
f 582 672 676
f 677 673 573
f 677 573 583
f 583 574 674
f 583 674 677
f 679 678 584
f 679 584 585
f 586 584 678
f 586 678 680
f 587 679 585
f 587 681 679
f 680 588 586
f 682 588 680
f 587 589 683
f 684 587 683
f 681 587 684
f 685 683 589
f 588 685 589
f 682 685 588
f 684 683 591
f 592 684 591
f 686 684 592
f 593 591 683
f 685 593 683
f 687 593 685
f 594 686 592
f 594 688 686
f 687 595 593
f 689 595 687
f 600 688 594
f 600 690 688
f 689 602 595
f 691 602 689
f 607 692 608
f 692 610 608
f 612 690 600
f 612 693 690
f 613 602 694
f 602 695 694
f 602 691 695
f 696 614 613
f 696 613 694
f 697 615 614
f 697 614 696
f 698 616 615
f 698 615 697
f 699 617 616
f 699 616 698
f 699 700 617
f 617 700 607
f 700 701 607
f 701 692 607
f 701 703 702
f 701 702 618
f 692 701 618
f 610 692 618
f 704 619 618
f 704 618 702
f 704 620 619
f 621 693 612
f 621 705 693
f 695 706 694
f 694 706 696
f 696 706 707
f 708 624 625
f 696 708 625
f 697 696 625
f 707 708 696
f 698 697 709
f 697 627 709
f 627 710 709
f 627 697 625
f 698 709 699
f 699 709 711
f 699 711 700
f 703 712 702
f 714 713 712
f 713 702 712
f 713 704 702
f 713 631 620
f 713 620 704
f 632 705 621
f 632 715 705
f 716 633 634
f 635 717 634
f 634 717 716
f 624 708 718
f 717 624 718
f 719 717 718
f 635 624 717
f 720 719 636
f 719 710 636
f 710 627 636
f 710 719 718
f 637 721 636
f 636 721 720
f 638 722 637
f 637 722 721
f 639 723 638
f 638 723 722
f 714 724 713
f 723 639 640
f 631 713 724
f 725 631 724
f 641 631 725
f 642 715 632
f 642 726 715
f 727 643 716
f 716 643 633
f 646 727 645
f 727 717 645
f 727 716 717
f 645 717 648
f 648 717 719
f 648 719 649
f 719 728 649
f 719 720 728
f 729 720 721
f 728 720 729
f 730 721 722
f 729 721 730
f 651 730 650
f 730 723 650
f 730 722 723
f 650 723 640
f 725 652 641
f 731 652 725
f 653 726 642
f 653 732 726
f 734 733 727
f 733 643 727
f 733 654 643
f 646 655 727
f 655 735 727
f 735 734 727
f 735 655 736
f 736 737 735
f 728 656 649
f 656 728 657
f 657 728 729
f 657 729 658
f 658 729 730
f 658 730 651
f 739 738 660
f 660 738 659
f 660 652 731
f 660 731 739
f 661 732 653
f 661 740 732
f 733 662 654
f 741 662 733
f 663 736 655
f 742 737 736
f 663 742 736
f 665 742 663
f 743 665 667
f 743 742 665
f 744 667 669
f 744 743 667
f 669 671 744
f 744 671 745
f 748 747 746
f 738 748 746
f 672 738 746
f 659 738 672
f 673 740 661
f 673 749 740
f 741 674 662
f 750 674 741
f 751 745 671
f 751 671 675
f 676 746 747
f 751 676 747
f 675 676 751
f 746 676 672
f 752 749 673
f 752 673 677
f 677 674 750
f 677 750 752
f 754 753 678
f 754 678 679
f 680 678 753
f 680 753 755
f 681 754 679
f 681 756 754
f 755 682 680
f 757 682 755
f 684 756 681
f 684 758 756
f 757 685 682
f 759 685 757
f 686 761 760
f 758 686 760
f 684 686 758
f 759 760 761
f 687 759 761
f 685 759 687
f 763 762 761
f 686 763 761
f 688 763 686
f 687 761 762
f 764 687 762
f 689 687 764
f 690 763 688
f 690 765 763
f 764 691 689
f 766 691 764
f 693 765 690
f 693 767 765
f 766 695 691
f 768 695 766
f 700 769 701
f 769 703 701
f 705 767 693
f 705 770 767
f 706 695 771
f 695 772 771
f 695 768 772
f 773 707 706
f 773 706 771
f 773 708 707
f 710 774 709
f 775 711 709
f 775 709 774
f 769 700 711
f 775 769 711
f 776 769 775
f 777 712 703
f 769 777 703
f 776 777 769
f 777 714 712
f 715 770 705
f 715 778 770
f 771 772 779
f 779 772 780
f 782 773 781
f 773 779 781
f 773 771 779
f 773 782 708
f 782 718 708
f 782 783 718
f 710 718 774
f 718 784 774
f 718 783 784
f 774 784 775
f 775 784 785
f 775 785 776
f 776 785 786
f 776 786 777
f 777 786 787
f 787 789 788
f 787 788 724
f 777 787 724
f 714 777 724
f 788 725 724
f 726 778 715
f 726 790 778
f 779 780 791
f 791 780 792
f 781 779 793
f 779 794 793
f 779 791 794
f 794 795 793
f 788 789 796
f 796 789 797
f 796 731 725
f 796 725 788
f 732 790 726
f 732 798 790
f 791 792 734
f 792 733 734
f 792 799 733
f 791 734 735
f 791 735 794
f 801 800 737
f 737 800 735
f 800 795 735
f 795 794 735
f 803 802 801
f 801 802 800
f 805 804 803
f 803 804 802
f 807 806 805
f 805 806 804
f 809 808 807
f 807 808 806
f 808 809 797
f 797 809 796
f 809 738 796
f 738 739 796
f 796 739 731
f 740 798 732
f 740 810 798
f 799 741 733
f 811 741 799
f 742 801 737
f 801 742 743
f 801 743 803
f 803 743 744
f 803 744 805
f 805 744 745
f 812 805 745
f 807 805 812
f 812 747 748
f 809 812 748
f 807 812 809
f 809 748 738
f 749 810 740
f 749 813 810
f 811 750 741
f 814 750 811
f 751 812 745
f 812 751 747
f 815 813 749
f 815 749 752
f 752 750 814
f 752 814 815
f 817 816 753
f 817 753 754
f 755 753 816
f 755 816 818
f 756 817 754
f 756 819 817
f 818 757 755
f 820 757 818
f 758 822 821
f 819 758 821
f 756 758 819
f 820 821 822
f 759 820 822
f 757 820 759
f 760 822 758
f 822 760 759
f 763 823 762
f 823 764 762
f 825 824 823
f 763 825 823
f 765 825 763
f 764 823 824
f 826 764 824
f 766 764 826
f 767 825 765
f 767 827 825
f 826 768 766
f 828 768 826
f 770 827 767
f 770 829 827
f 828 772 768
f 830 772 828
f 778 829 770
f 778 831 829
f 830 780 772
f 832 780 830
f 781 833 782
f 834 783 782
f 834 782 833
f 835 784 783
f 835 783 834
f 836 785 784
f 836 784 835
f 837 786 785
f 837 785 836
f 838 787 786
f 838 786 837
f 838 789 787
f 790 831 778
f 790 839 831
f 832 792 780
f 840 792 832
f 793 833 781
f 833 793 795
f 841 833 795
f 834 833 841
f 834 842 835
f 834 841 842
f 835 843 836
f 835 842 843
f 836 844 837
f 836 843 844
f 837 845 838
f 837 844 845
f 845 797 789
f 845 789 838
f 798 839 790
f 798 846 839
f 840 799 792
f 847 799 840
f 800 841 795
f 841 800 802
f 841 802 842
f 842 802 804
f 842 804 843
f 843 804 806
f 843 806 844
f 844 806 808
f 844 808 845
f 845 808 797
f 810 846 798
f 810 848 846
f 847 811 799
f 849 811 847
f 813 848 810
f 813 850 848
f 849 814 811
f 851 814 849
f 852 850 813
f 852 813 815
f 815 814 851
f 815 851 852
f 854 853 816
f 854 816 817
f 818 816 853
f 818 853 855
f 819 854 817
f 819 856 854
f 855 820 818
f 857 820 855
f 858 856 819
f 858 819 821
f 821 820 857
f 821 857 858
f 825 859 824
f 859 826 824
f 861 860 859
f 825 861 859
f 827 861 825
f 826 859 860
f 862 826 860
f 828 826 862
f 829 861 827
f 829 863 861
f 862 830 828
f 864 830 862
f 831 863 829
f 831 865 863
f 864 832 830
f 866 832 864
f 839 868 867
f 865 839 867
f 831 839 865
f 866 867 868
f 840 866 868
f 832 866 840
f 846 869 868
f 846 868 839
f 869 847 840
f 869 840 868
f 848 870 869
f 848 869 846
f 870 849 847
f 870 847 869
f 850 871 870
f 850 870 848
f 871 851 849
f 871 849 870
f 852 871 850
f 871 852 851
f 854 872 853
f 872 855 853
f 856 873 872
f 856 872 854
f 873 857 855
f 873 855 872
f 858 873 856
f 873 858 857
f 861 874 860
f 874 862 860
f 863 875 874
f 863 874 861
f 875 864 862
f 875 862 874
f 865 876 875
f 865 875 863
f 876 866 864
f 876 864 875
f 867 876 865
f 876 867 866

