# https://github.com/mikedh/trimesh
v -0.06141762 -0.00853813 -0.01192752
v -0.05702239 -0.01092296 -0.01405817
v -0.05839045 -0.00728232 -0.01732903
v -0.06199702 -0.00717897 -0.00450375
v -0.05954972 -0.01092878 -0.00666878
v -0.06233355 -0.00788892 0.00399531
v -0.05802512 -0.01212379 0.00045748
v -0.06126477 -0.00611696 0.00884008
v -0.05919981 -0.01151886 0.00819726
v -0.05839585 -0.00914133 0.01273866
v -0.05839570 -0.00527030 -0.01315643
v -0.05875929 -0.00290848 -0.00564538
v -0.06005251 0.00130139 -0.00270517
v -0.06241196 0.00024038 0.00270160
v -0.05955408 -0.00103049 0.00822460
v -0.05820774 -0.00457157 0.01161521
v -0.06146547 0.00769011 -0.01163920
v -0.05767728 0.00544988 -0.01474731
v -0.05868694 0.00888902 -0.01694118
v -0.06212882 0.00717560 -0.00485811
v -0.05813716 0.00362509 -0.00741312
v -0.06260011 0.00864191 0.00143097
v -0.05971015 0.00374302 0.00926671
v -0.06152629 0.00816552 0.00810469
v -0.05849281 0.00744392 0.01264006
v -0.05789595 0.01137280 -0.01222787
v -0.05851852 0.01183244 -0.00365260
v -0.05838232 0.01196653 0.00446025
v -0.05719420 0.01142007 0.01206325
v -0.05345980 -0.02371237 0.00372010
v -0.05016993 -0.02654028 0.00306318
v -0.05111792 -0.02292372 -0.00032588
v -0.05425258 -0.02366385 0.01150403
v -0.05096683 -0.02689680 0.00956192
v -0.05443054 -0.02343652 0.01971415
v -0.04979495 -0.02709235 0.01831905
v -0.05374870 -0.02260288 0.02603529
v -0.05020967 -0.02732442 0.02564188
v -0.05010449 -0.02448463 0.03031143
v -0.05483875 -0.01722187 0.00280917
v -0.05108264 -0.01727895 -0.00066985
v -0.05589180 -0.01584126 0.01043708
v -0.05525771 -0.01605181 0.01794664
v -0.05446808 -0.01591849 0.02508958
v -0.05131460 -0.01782319 0.03023277
v -0.05323238 -0.00873830 -0.02813116
v -0.04898522 -0.01136752 -0.02992671
v -0.05088655 -0.00693707 -0.03206498
v -0.05498042 -0.00790619 -0.02234110
v -0.05227568 -0.01148093 -0.02163822
v -0.04983833 -0.01158177 -0.01333430
v -0.05248291 -0.01272156 -0.00524479
v -0.05560247 -0.00681101 0.01734377
v -0.05419296 -0.00775366 0.02529453
v -0.05123171 -0.00953265 0.03018678
v -0.04984630 -0.00415640 -0.02731364
v -0.05246987 -0.00461322 -0.02038634
v -0.05053714 -0.00395300 -0.01325561
v -0.05554262 -0.00048459 -0.00606559
v -0.05103444 -0.00054646 -0.00902292
v -0.05647620 0.00106697 0.01285335
v -0.05490395 0.00150880 0.01959168
v -0.05408243 0.00032587 0.02558147
v -0.05116153 -0.00148057 0.03038897
v -0.05328208 0.00759035 -0.02793262
v -0.04999220 0.00516579 -0.02913405
v -0.05039636 0.00894927 -0.03306774
v -0.05521277 0.00809587 -0.02204548
v -0.05228991 0.00491894 -0.02134552
v -0.05084812 0.00356035 -0.01265646
v -0.05540780 0.00763480 0.01711213
v -0.05356643 0.00758538 0.02422135
v -0.05017768 0.00792840 0.03006260
v -0.04982388 0.01124965 -0.02828350
v -0.05283777 0.01151422 -0.02004254
v -0.04937454 0.01167711 -0.01461366
v -0.05168589 0.01175791 -0.00733831
v -0.05176233 0.01186276 0.00063972
v -0.05073897 0.01213183 0.00978816
v -0.05091278 0.01208566 0.01937337
v -0.05034223 0.01135953 0.02596139
v -0.04794232 -0.02220578 0.00273757
v -0.04775403 -0.02359689 0.00999924
v -0.04687548 -0.02341072 0.01720354
v -0.04379238 -0.02448843 0.02235269
v -0.04371671 -0.02729803 0.02672736
v -0.04656825 -0.02195194 0.03450584
v -0.04483117 -0.02682289 0.03253461
v -0.04288107 -0.02390983 0.03638128
v -0.04739809 -0.01422840 0.00186015
v -0.04663788 -0.01733577 0.00911287
v -0.04559440 -0.01553185 0.01595331
v -0.04268677 -0.01840835 0.02185101
v -0.04710997 -0.01392854 0.03423206
v -0.04220635 -0.01832647 0.03789399
v -0.04747135 -0.00733255 -0.03574085
v -0.04173902 -0.01163415 -0.03702239
v -0.04342607 -0.00586285 -0.04106235
v -0.04295911 -0.01277778 -0.02912352
v -0.04408783 -0.01147894 -0.02145122
v -0.04662945 -0.00708903 -0.01242079
v -0.04324531 -0.00756346 -0.01771434
v -0.04730209 -0.00826497 -0.00474280
v -0.04668828 -0.00670515 0.00350453
v -0.04598066 -0.00853841 0.01025040
v -0.04355237 -0.00817384 0.01530497
v -0.04232468 -0.01230979 0.01934797
v -0.04709320 -0.00577008 0.03403699
v -0.04305851 -0.00978771 0.03796907
v -0.04629547 -0.00112329 -0.03749355
v -0.04341429 0.00223092 -0.04160892
v -0.04755281 -0.00025588 -0.03104736
v -0.04299711 -0.00119613 -0.02538293
v -0.04468958 -0.00422403 -0.02137149
v -0.04703785 0.00109184 -0.00624970
v -0.04654425 0.00026746 0.00245451
v -0.04572769 0.00046550 0.00933622
v -0.04283213 -0.00147095 0.01402411
v -0.04716120 0.00227599 0.03414060
v -0.04302808 -0.00179040 0.03782194
v -0.04702774 0.00598698 -0.03642066
v -0.04234507 0.00878375 -0.04154701
v -0.04384915 0.00416094 -0.02225436
v -0.04680113 0.00756719 -0.01181775
v -0.04347508 0.00898414 -0.01746946
v -0.04751205 0.00851665 -0.00418372
v -0.04735563 0.00764374 0.00256066
v -0.04601116 0.00778215 0.00991897
v -0.04240258 0.00628722 0.01462220
v -0.04682228 0.00972609 0.03467308
v -0.04320542 0.00638353 0.03799035
v -0.04292882 0.01174136 -0.03600575
v -0.04295452 0.01270491 -0.02917501
v -0.04300337 0.01152185 -0.02240856
v -0.04441496 0.01150439 0.01698403
v -0.04474418 0.01252524 0.02561224
v -0.04602090 0.01504908 0.03270257
v -0.04092446 0.01574213 0.03022341
v -0.04347570 0.01435275 0.03759946
v -0.04164470 0.01922090 0.03580014
v -0.04033011 -0.02266587 0.02633105
v -0.03921657 -0.02268316 0.03333509
v -0.03885020 -0.01494034 0.02575713
v -0.03464162 -0.01577235 0.03086307
v -0.03334451 -0.01946113 0.03581391
v -0.03525506 -0.01968190 0.04137180
v -0.03873876 -0.01386011 0.04203914
v -0.03424449 -0.01632263 0.04618595
v -0.03926590 -0.00850858 -0.04454944
v -0.03371618 -0.01149717 -0.04394513
v -0.03527673 -0.00663903 -0.04801306
v -0.03483930 -0.01279590 -0.03716167
v -0.03614426 -0.01154895 -0.02920286
v -0.03914834 -0.00685887 -0.02299894
v -0.03515346 -0.00715674 -0.02644577
v -0.04016920 -0.00645130 0.01965608
v -0.03778757 -0.00669231 0.02599565
v -0.03502780 -0.00912611 0.02882713
v -0.03915959 -0.00613929 0.04179669
v -0.03532981 -0.00998949 0.04601220
v -0.03942871 -0.00187389 -0.04572112
v -0.03441374 0.00010812 -0.04875424
v -0.03771059 -0.00120819 -0.02695559
v -0.03228433 0.00098557 -0.03133465
v -0.03361177 -0.00480083 -0.02936166
v -0.03953633 0.00230193 0.01894737
v -0.03795445 0.00033874 0.02497882
v -0.03405724 -0.00174176 0.02898896
v -0.03903112 0.00196726 0.04188777
v -0.03531731 -0.00189091 0.04587422
v -0.03894259 0.00626099 -0.04565258
v -0.03306713 0.00770457 -0.04800857
v -0.03582139 0.00464802 -0.02708293
v -0.03890896 0.00781021 -0.02202348
v -0.03544573 0.00894450 -0.02548410
v -0.04017896 0.00869866 0.01989054
v -0.03930007 0.00818735 0.02502871
v -0.03500415 0.00756520 0.02895336
v -0.03914088 0.01034243 0.04203724
v -0.03437002 0.00737570 0.04604277
v -0.03576313 0.01182191 -0.04300709
v -0.03492883 0.01303674 -0.03718614
v -0.03503118 0.01169032 -0.03046336
v -0.03402056 0.01482391 0.03091343
v -0.03928712 0.01694210 0.04091714
v -0.03510926 0.01488383 0.04435563
v -0.03600373 0.01968012 0.03463254
v -0.03492912 0.01953335 0.04094889
v -0.03069327 -0.01505090 0.03319640
v -0.02684649 -0.01575755 0.03672064
v -0.02652184 -0.01962803 0.04197619
v -0.03090158 -0.01385974 0.05032852
v -0.02878239 -0.01903842 0.04841523
v -0.02558582 -0.01630466 0.05280659
v -0.02566410 -0.01156582 -0.04533397
v -0.02898192 -0.00739893 -0.04867677
v -0.02816837 -0.01157756 -0.03734042
v -0.03140059 -0.00899773 -0.02983894
v -0.02811409 -0.00567592 -0.03332681
v -0.02605340 -0.01141467 0.03422098
v -0.02952393 -0.00838553 0.03107655
v -0.03161706 -0.00606416 0.05008216
v -0.02647690 -0.00985595 0.05343781
v -0.02735491 0.00021138 -0.04938247
v -0.02698560 0.00156180 -0.03402394
v -0.02791204 0.00023546 0.03079518
v -0.03153863 0.00212133 0.04996322
v -0.02683012 -0.00153607 0.05314771
v -0.02559842 0.00780506 -0.04827449
v -0.03219646 0.00723463 -0.02951512
v -0.02863301 0.00762056 -0.03299644
v -0.02808077 0.00775640 0.03105392
v -0.03025906 0.00896683 0.04955484
v -0.02602301 0.00729464 0.05284114
v -0.02859174 0.01187071 -0.04523647
v -0.02745449 0.01196588 -0.03847077
v -0.02849650 0.01295557 0.03286546
v -0.03097374 0.01734713 0.03452783
v -0.02511335 0.01530767 0.03714553
v -0.02963067 0.01534169 0.04647779
v -0.02626010 0.01319968 0.05074436
v -0.02745677 0.01950934 0.04178075
v -0.01728250 -0.01953014 0.04268368
v -0.02053115 -0.01625206 0.03868309
v -0.02109457 -0.01955208 0.04931082
v -0.01922634 -0.01531691 0.05349668
v -0.02082442 -0.01159048 -0.04311683
v -0.02032335 -0.00763612 -0.04889360
v -0.02302878 -0.00831569 -0.03798583
v -0.01812143 -0.00865004 -0.04077859
v -0.02341368 -0.00555590 0.03383013
v -0.01966509 -0.01015961 0.03680019
v -0.01947565 -0.00787906 0.05427487
v -0.02044421 0.00228391 -0.05021015
v -0.02312748 -0.00166242 -0.03688267
v -0.01845898 0.00050820 -0.03979381
v -0.02298511 0.00197697 0.03379617
v -0.01818236 -0.00187937 0.03681612
v -0.01973077 0.00045976 0.05401253
v -0.01912192 0.00885941 -0.04965681
v -0.02358337 0.00637321 -0.03685055
v -0.01886910 0.00804092 -0.04039672
v -0.02441657 0.00870755 0.03415350
v -0.01946838 0.00740617 0.03687328
v -0.01860212 0.00749900 0.05399273
v -0.01952515 0.01161669 -0.04500145
v -0.01799354 0.01566630 0.03846469
v -0.02388422 0.01741795 0.04902720
v -0.01987293 0.01432581 0.05294827
v -0.01969036 0.01992422 0.04273458
v -0.01897382 0.01953563 0.04911861
v -0.01546997 -0.01416193 -0.04562125
v -0.01004331 -0.01856342 -0.04516103
v -0.01171475 -0.01553337 -0.04889600
v -0.01110300 -0.01575024 -0.04201205
v -0.00925705 -0.01962544 0.04242632
v -0.01317546 -0.01531362 0.03838878
v -0.01303019 -0.01960634 0.04909128
v -0.01118437 -0.01530182 0.05329467
v -0.01458174 -0.00975024 -0.05173679
v -0.00928931 -0.01193233 -0.05320420
v -0.01165956 -0.00624571 -0.05566001
v -0.01167493 -0.00809758 -0.04069768
v -0.01030163 -0.00763246 0.03850665
v -0.01137813 -0.00790783 0.05409298
v -0.01557520 -0.00175248 -0.05329739
v -0.01080202 0.00037059 -0.05661908
v -0.01160767 0.00060098 -0.04080347
v -0.01267186 0.00134013 0.03780146
v -0.01162446 0.00040308 0.05388471
v -0.01527839 0.00631332 -0.05333648
v -0.00944641 0.00784747 -0.05616715
v -0.01149151 0.00792347 -0.04181437
v -0.01191890 0.00850124 0.03752996
v -0.01161025 0.00859595 0.05399285
v -0.01224536 0.01183154 -0.05074123
v -0.01045160 0.01189792 -0.04493262
v -0.01021598 0.01574292 0.03826167
v -0.01149812 0.01581647 0.05322345
v -0.01203419 0.01996827 0.04257214
v -0.01164217 0.02000297 0.04907833
v -0.00365664 -0.01895031 -0.04452951
v -0.00553488 -0.01673341 -0.04881332
v -0.00368572 -0.01570820 -0.04161385
v -0.00134654 -0.01973109 0.04246961
v -0.00364966 -0.01444472 0.03888851
v -0.00513268 -0.01974587 0.04894652
v -0.00318725 -0.01554939 0.05324236
v -0.00152204 -0.01250267 -0.05315234
v -0.00551310 -0.00712176 -0.05654127
v -0.00364075 -0.00817326 -0.04083026
v -0.00451823 -0.01022318 0.04146743
v -0.00561307 -0.00666920 0.04161600
v -0.00335971 -0.00785218 0.04341135
v -0.00327447 -0.00829108 0.05404879
v -0.00369865 0.00017114 -0.05766477
v -0.00353475 0.00026470 -0.04085016
v -0.00211112 -0.00552656 0.04153112
v -0.00454576 -0.00072726 0.03852266
v -0.00346565 -0.00001289 0.05389842
v -0.00187711 0.00760677 -0.05679958
v -0.00349781 0.00766214 -0.04182932
v -0.00397180 0.00839557 0.03740928
v -0.00343625 0.00825566 0.05409829
v -0.00391112 0.01213925 -0.05248144
v -0.00368258 0.01201918 -0.04596171
v -0.00229596 0.01556443 0.03845396
v -0.00339779 0.01553684 0.05330766
v -0.00408374 0.01987138 0.04260032
v -0.00365537 0.01980568 0.04908616
v 0.00455562 -0.01875460 -0.04489994
v 0.00381444 -0.01575904 -0.04891419
v 0.00447303 -0.01567865 -0.04193936
v 0.00644146 -0.01972705 0.04251705
v 0.00350650 -0.01633860 0.03840839
v 0.00278794 -0.01981244 0.04913431
v 0.00476943 -0.01570669 0.05339157
v 0.00542331 -0.01116921 -0.05250396
v 0.00217149 -0.00733167 -0.05587188
v 0.00475664 -0.00864012 -0.04009634
v -0.00101628 -0.00908054 0.04138255
v 0.00354854 -0.00831509 0.03824772
v 0.00477820 -0.00845754 0.05420311
v 0.00342298 0.00009936 -0.05653305
v 0.00344267 0.00022877 -0.03976384
v 0.00433502 0.00017764 0.03755104
v 0.00467438 -0.00023139 0.05409018
v 0.00418515 0.00676292 -0.05581585
v 0.00341117 0.00763714 -0.04071508
v 0.00392541 0.00829880 0.03759468
v 0.00470353 0.00807371 0.05429182
v 0.00359453 0.01146579 -0.05251258
v 0.00459370 0.01215210 -0.04460091
v 0.00564114 0.01557188 0.03869233
v 0.00467052 0.01548930 0.05349489
v 0.00390867 0.01979003 0.04275610
v 0.00431805 0.01981498 0.04923058
v 0.01333639 -0.01907942 -0.04446283
v 0.01150442 -0.01652705 -0.04804942
v 0.01179544 -0.01611705 -0.04016062
v 0.01359328 -0.01957670 0.04036134
v 0.00994393 -0.01526992 0.03782575
v 0.01133445 -0.01951572 0.04863553
v 0.01179155 -0.01417632 0.05300645
v 0.00813530 -0.00567493 -0.05316161
v 0.01230324 -0.01031017 -0.04995406
v 0.01107757 -0.01169218 -0.03749300
v 0.00870412 -0.00559029 -0.03685219
v 0.01399359 -0.00964610 -0.03430591
v 0.01219154 -0.00828214 0.03809611
v 0.01170708 -0.00645217 0.05329378
v 0.00834593 0.00226563 -0.05331375
v 0.01343863 -0.00176186 -0.05014004
v 0.00820712 0.00229728 -0.03663058
v 0.01306437 -0.00178137 -0.03371834
v 0.01240143 0.00025533 0.03706076
v 0.01165587 0.00183687 0.05317071
v 0.00809245 0.00876604 -0.05227204
v 0.01377535 0.00697286 -0.04925981
v 0.00828794 0.00871420 -0.03771014
v 0.01308614 0.00612239 -0.03405409
v 0.01084819 0.01001767 0.03687437
v 0.01164211 0.01015728 0.05344562
v 0.01170798 0.01219401 -0.04543583
v 0.01266787 0.01146084 -0.03757062
v 0.01231728 0.01650143 0.03726917
v 0.01085157 0.01659393 0.05269788
v 0.01185528 0.01978781 0.04102434
v 0.01263361 0.01950858 0.04777261
v 0.02184007 -0.01932250 -0.04354980
v 0.01825562 -0.01550478 -0.04791231
v 0.01553708 -0.01535585 -0.03642244
v 0.01980484 -0.01954833 -0.03801185
v 0.01999366 -0.01552330 -0.03299493
v 0.01616326 -0.01517222 0.03551016
v 0.02124238 -0.01934169 0.03393964
v 0.02052324 -0.01537742 0.02983159
v 0.01888803 -0.01963640 0.04372849
v 0.01648597 -0.01553675 0.04866287
v 0.02125859 -0.01565515 0.04521865
v 0.01952513 -0.00807452 -0.04829649
v 0.01907587 -0.00811652 -0.03196227
v 0.02205026 -0.01255580 0.03426251
v 0.02005413 -0.01220201 0.04105837
v 0.01687704 -0.00787074 0.04309954
v 0.01539923 -0.00948483 0.05035847
v 0.01928050 0.00028370 -0.04827499
v 0.01910499 0.00030714 -0.03186064
v 0.01664042 0.00027757 0.03375107
v 0.02102750 -0.00348121 0.03446998
v 0.01982556 0.00199008 0.03017194
v 0.02012331 -0.00374943 0.04262651
v 0.01634602 -0.00224578 0.04893670
v 0.02121078 0.00065348 0.04612333
v 0.02002517 0.00684138 -0.04748763
v 0.01918524 0.00776638 -0.03258602
v 0.01581005 0.00601149 0.03382973
v 0.01976177 0.00992298 0.02971876
v 0.01644132 0.00609658 0.05016537
v 0.02133819 0.00803100 0.04725786
v 0.01954085 0.01135334 -0.04406553
v 0.02045615 0.01204264 -0.03623784
v 0.01623347 0.01398726 0.03384144
v 0.02087213 0.01653361 0.02980864
v 0.01597519 0.01396492 0.05031656
v 0.02083103 0.01554318 0.04685246
v 0.02026414 0.01965635 0.03547589
v 0.02016597 0.01980636 0.04323119
v 0.02396552 -0.01406715 -0.04535532
v 0.02716805 -0.01666954 -0.04132896
v 0.02857149 -0.01955865 -0.03648525
v 0.02444083 -0.01403015 -0.02917746
v 0.02760969 -0.01952149 -0.03007401
v 0.02902724 -0.01665621 -0.02542896
v 0.02403783 -0.01670322 0.02623143
v 0.02936775 -0.01939360 0.02598184
v 0.02827604 -0.01490909 0.02299495
v 0.02818413 -0.02048548 0.03398778
v 0.02714307 -0.01909856 0.04102037
v 0.02673426 -0.01533259 0.04451748
v 0.02427400 -0.00619425 -0.04520071
v 0.02817466 -0.01032707 -0.04117644
v 0.02411427 -0.00612231 -0.02918729
v 0.02804776 -0.01030943 -0.02551633
v 0.02781192 -0.01204398 0.02798972
v 0.02799263 -0.01148395 0.03402774
v 0.02877473 -0.01284156 0.04013273
v 0.02407426 0.00214355 -0.04516924
v 0.02806969 -0.00208718 -0.04098716
v 0.02420818 0.00220676 -0.02894667
v 0.02824308 -0.00210404 -0.02535104
v 0.02397682 -0.00042549 0.02682633
v 0.02861988 -0.00349466 0.02718791
v 0.02782284 0.00222189 0.02247191
v 0.02836581 -0.00460453 0.03410759
v 0.02705890 -0.00331561 0.04052709
v 0.02738211 0.00208030 0.04483279
v 0.02400495 0.00854949 -0.04398449
v 0.02893391 0.00747081 -0.04138689
v 0.02418753 0.00852635 -0.02973308
v 0.02817944 0.00572905 -0.02534825
v 0.02375807 0.00596481 0.02575700
v 0.02768726 0.01004356 0.02189198
v 0.02735587 0.00998758 0.04537015
v 0.02720511 0.01185867 -0.03897251
v 0.02863499 0.01091212 -0.03009615
v 0.02422283 0.01393096 0.02577908
v 0.02881267 0.01652406 0.02195037
v 0.02664411 0.01651246 0.04465442
v 0.02826870 0.01965970 0.02748248
v 0.02806787 0.02085894 0.03427213
v 0.02871704 0.01953473 0.03995933
v 0.03156785 -0.01417947 -0.03714029
v 0.03499941 -0.01656041 -0.03317348
v 0.03662327 -0.01951296 -0.02851880
v 0.03176418 -0.01481389 -0.02012221
v 0.03564713 -0.01996085 -0.02189825
v 0.03234462 -0.01537458 -0.01210381
v 0.03674462 -0.01968237 -0.01378294
v 0.03234356 -0.01636097 -0.00497895
v 0.03648863 -0.01967317 -0.00592780
v 0.03302700 -0.01450087 0.00237662
v 0.03659960 -0.01965943 0.00205938
v 0.03259764 -0.01541298 0.01181073
v 0.03676943 -0.01969828 0.01013168
v 0.03130664 -0.01523924 0.01900808
v 0.03498137 -0.01968414 0.01797666
v 0.03733045 -0.01957506 0.02616307
v 0.03418273 -0.01911767 0.03492487
v 0.03214360 -0.01651383 0.04190355
v 0.03564844 -0.01533477 0.03819617
v 0.03199077 -0.00646951 -0.03689667
v 0.03594587 -0.01022055 -0.03303743
v 0.03104864 -0.00633044 -0.02072079
v 0.03161084 -0.00802478 -0.01391680
v 0.03220792 -0.00834313 -0.00489332
v 0.03542697 -0.00909288 -0.00004972
v 0.03545941 -0.01026338 0.00345676
v 0.03549124 -0.00667395 0.00469786
v 0.03240163 -0.00763614 0.00922827
v 0.03175007 -0.00928142 0.01682253
v 0.03175457 -0.00830884 0.02437727
v 0.03596948 -0.00732834 0.03014747
v 0.03481660 -0.01162210 0.03352980
v 0.03187768 0.00188133 -0.03674827
v 0.03713596 -0.00023345 -0.03349455
v 0.03113597 0.00179461 -0.02024325
v 0.03181124 -0.00001527 -0.01354813
v 0.03150088 -0.00101028 -0.00687981
v 0.03545881 -0.00550346 0.00119138
v 0.03286678 -0.00033344 0.00171738
v 0.03244339 0.00095982 0.01038668
v 0.03095360 -0.00205383 0.01851359
v 0.03399315 -0.00390674 0.03416952
v 0.03237255 0.00048473 0.04051359
v 0.03580605 0.00095847 0.03653282
v 0.03228233 0.00850878 -0.05928094
v 0.03777306 0.00425355 -0.06071468
v 0.03504572 0.00925884 -0.06415735
v 0.03254832 0.00970612 -0.05203858
v 0.03647765 0.00447798 -0.05393910
v 0.03685390 0.00700136 -0.04888975
v 0.03139785 0.00913279 -0.03718955
v 0.03463175 0.00771373 -0.03272521
v 0.03093555 0.01013194 -0.02120184
v 0.03164798 0.00805062 -0.01310133
v 0.03201867 0.00796552 -0.00447920
v 0.03640863 0.00792056 -0.00038180
v 0.03652842 0.00422903 0.00315586
v 0.03678105 0.00474348 0.01081699
v 0.03590590 0.00854260 0.01449828
v 0.03140417 0.00709512 0.01649169
v 0.03397565 0.00710599 0.03661780
v 0.03676350 0.00942605 0.03161898
v 0.03678238 0.00468305 0.03290007
v 0.03122843 0.00651830 0.04236234
v 0.03257471 0.01446177 -0.06168921
v 0.03786974 0.01524505 -0.06438630
v 0.03187131 0.01543106 -0.05522976
v 0.03391486 0.01070890 -0.04405789
v 0.03170137 0.01491338 -0.04514272
v 0.03207017 0.01300420 -0.04012274
v 0.03689690 0.01141186 -0.03618677
v 0.03290475 0.01663193 -0.03852115
v 0.03256320 0.01491391 -0.03002940
v 0.03221790 0.01713304 -0.02087611
v 0.03136540 0.01492177 -0.01406196
v 0.03198304 0.01662474 -0.00728304
v 0.03522830 0.01190931 0.00163245
v 0.03272731 0.01569773 0.00150426
v 0.03289383 0.01516431 0.01059177
v 0.03782399 0.01138036 0.01011645
v 0.03152146 0.01558664 0.01709955
v 0.03580067 0.01296406 0.03521933
v 0.03199238 0.01382220 0.04111159
v 0.03529691 0.01718037 0.03765781
v 0.03635974 0.01936565 -0.05905032
v 0.03645954 0.01993102 -0.05105640
v 0.03649777 0.01988345 -0.04302356
v 0.03645866 0.01962914 -0.03517677
v 0.03538834 0.01920718 -0.02782708
v 0.03579804 0.02133172 -0.02164685
v 0.03638807 0.02504735 -0.01788780
v 0.03280333 0.02188039 -0.01384832
v 0.03464323 0.02340634 -0.00858379
v 0.03656337 0.02092452 -0.00304606
v 0.03647829 0.01955417 0.00412456
v 0.03669282 0.01967083 0.01205162
v 0.03453113 0.01978335 0.01954401
v 0.03779086 0.01980848 0.02495639
v 0.03474622 0.01952738 0.03304847
v 0.03776040 0.02703258 -0.01254697
v 0.03964772 -0.01416550 -0.02925296
v 0.04327905 -0.01661936 -0.02545815
v 0.04344154 -0.01933677 -0.02101048
v 0.04329355 -0.01982885 -0.01357721
v 0.04316231 -0.01962739 -0.00562526
v 0.04320581 -0.01953220 0.00244864
v 0.04331319 -0.01960766 0.01054882
v 0.04179262 -0.01934643 0.01880631
v 0.04084476 -0.01537399 0.02501016
v 0.04358843 -0.01511389 0.02065978
v 0.03873686 -0.01561429 0.03209419
v 0.03992896 -0.00650055 -0.02908497
v 0.04411449 -0.01033874 -0.02539726
v 0.03742239 -0.00788858 0.00243325
v 0.04168540 -0.00881709 0.02075527
v 0.04455329 -0.00677956 0.01618639
v 0.04471260 -0.01143808 0.01728001
v 0.03960941 -0.00836002 0.02827718
v 0.04092347 0.00200543 -0.03000743
v 0.04384210 -0.00213554 -0.02520894
v 0.04338462 -0.00334144 0.01947550
v 0.04089144 -0.00034489 0.02433862
v 0.04340971 0.00116585 0.02071224
v 0.03870444 -0.00073838 0.03173586
v 0.04417266 0.00454621 -0.05990007
v 0.04149871 0.00832191 -0.06449790
v 0.04319545 0.00371744 -0.05332129
v 0.03951245 0.00776901 -0.04290240
v 0.04294399 0.00495372 -0.04558222
v 0.04003635 0.00642125 -0.03652042
v 0.04253837 0.00455129 -0.03699735
v 0.03929396 0.00483562 -0.03233495
v 0.04310307 0.00805585 -0.03317087
v 0.03977347 0.00768269 -0.03026391
v 0.04535029 0.00736873 -0.02516601
v 0.04203784 0.00765653 -0.00087390
v 0.04255958 0.00529927 0.00305713
v 0.04078092 0.00696164 0.01051051
v 0.04346907 0.00764034 0.00640788
v 0.04250175 0.00501424 0.01621194
v 0.04368900 0.00946281 0.01469566
v 0.04028803 0.00781916 0.01999428
v 0.03937010 0.00778473 0.02808835
v 0.04427279 0.01434777 -0.06405390
v 0.04416513 0.01178126 -0.02942225
v 0.04362060 0.01101196 0.00197662
v 0.04281179 0.01279327 0.01869633
v 0.04035267 0.01523861 0.02608441
v 0.04346175 0.01710303 0.02194022
v 0.03838089 0.01463646 0.03222344
v 0.04241715 0.01895905 -0.06146796
v 0.04317509 0.01988427 -0.05491886
v 0.04323260 0.01975367 -0.04671009
v 0.04314275 0.01968078 -0.03867951
v 0.04378628 0.02007885 -0.02864746
v 0.04014203 0.02387926 -0.02267078
v 0.04518948 0.02372279 -0.02394849
v 0.03890317 0.02523687 -0.00642993
v 0.04340219 0.02298580 -0.00228692
v 0.04223875 0.02034511 0.00175134
v 0.04331418 0.01955171 0.00838707
v 0.04286682 0.01937152 0.01720183
v 0.04170831 0.02663702 -0.01970950
v 0.04365835 0.02755851 -0.01459910
v 0.04328240 0.02675184 -0.00767458
v 0.04696678 -0.01418070 -0.02058826
v 0.04746541 -0.01560825 -0.01347000
v 0.04741254 -0.01545550 -0.00545353
v 0.04748279 -0.01527942 0.00264417
v 0.04742373 -0.01626327 0.00958822
v 0.04647173 -0.01578039 0.01625483
v 0.04705797 -0.00633627 -0.02044810
v 0.04822803 -0.00824097 -0.01345026
v 0.04828700 -0.00818032 -0.00543498
v 0.04842013 -0.00795472 0.00268981
v 0.04770745 -0.00906173 0.01167127
v 0.04681052 0.00193301 -0.02051601
v 0.04798939 0.00003351 -0.01358836
v 0.04813176 -0.00117672 -0.00660942
v 0.04747094 0.00127917 0.00218669
v 0.04845317 -0.00102270 0.00960162
v 0.04653162 -0.00076309 0.01618160
v 0.04716479 0.00991439 -0.06049428
v 0.04774027 0.00822303 -0.05299144
v 0.04770115 0.00844089 -0.04468786
v 0.04716751 0.00875318 -0.03718833
v 0.04789896 0.00744264 -0.02086427
v 0.04901251 0.00718064 -0.01557391
v 0.04778634 0.00688564 -0.00540494
v 0.04730008 0.00816039 0.01072376
v 0.04689842 0.01632381 -0.05965366
v 0.04777884 0.01520377 -0.05296347
v 0.04771838 0.01510761 -0.04466135
v 0.04773457 0.01521779 -0.03662707
v 0.04758127 0.01433013 -0.03067851
v 0.04999341 0.01545426 -0.02520778
v 0.05156549 0.01211145 -0.01977103
v 0.05246605 0.01203188 -0.01156756
v 0.05102936 0.01308149 -0.00394110
v 0.04781139 0.01691453 0.00269637
v 0.05193583 0.01721347 -0.00277501
v 0.04762234 0.01629316 0.01180708
v 0.04670145 0.01441611 0.01692521
v 0.05065648 0.02021800 -0.02252811
v 0.04763703 0.02440010 -0.01925714
v 0.05260609 0.02013111 -0.01530183
v 0.04813621 0.02443548 -0.01132339
v 0.05249955 0.01953896 -0.00747318
v 0.04823284 0.02236893 -0.00401469
v 0.05437230 0.01665856 -0.01974650
v 0.05477459 0.01595859 -0.01331698
v 0.05427145 0.01539565 -0.00693100
f 3 2 1
f 5 4 1
f 5 1 2
f 7 6 4
f 7 4 5
f 9 8 6
f 9 6 7
f 10 8 9
f 11 3 1
f 11 1 4
f 11 4 12
f 14 13 12
f 4 14 12
f 6 14 4
f 8 16 15
f 14 8 15
f 6 8 14
f 16 8 10
f 19 18 17
f 21 20 17
f 21 17 18
f 20 21 13
f 14 20 13
f 22 20 14
f 14 15 23
f 24 14 23
f 22 14 24
f 25 24 23
f 26 19 17
f 26 17 20
f 26 20 27
f 27 20 22
f 27 22 28
f 28 22 24
f 28 24 29
f 29 24 25
f 32 31 30
f 34 33 30
f 34 30 31
f 36 35 33
f 36 33 34
f 38 37 35
f 38 35 36
f 39 37 38
f 32 30 40
f 32 40 41
f 42 30 33
f 40 30 42
f 43 33 35
f 42 33 43
f 44 35 37
f 43 35 44
f 37 39 45
f 37 45 44
f 48 47 46
f 50 49 46
f 50 46 47
f 2 3 49
f 50 2 49
f 51 2 50
f 2 52 5
f 51 52 2
f 40 7 41
f 7 52 41
f 7 5 52
f 7 40 9
f 9 40 42
f 9 42 10
f 42 53 10
f 42 43 53
f 54 43 44
f 53 43 54
f 44 45 55
f 44 55 54
f 56 48 46
f 56 46 49
f 56 49 57
f 57 49 3
f 11 57 3
f 58 57 11
f 60 58 59
f 58 12 59
f 58 11 12
f 13 59 12
f 61 15 16
f 10 53 16
f 53 61 16
f 53 62 61
f 63 53 54
f 62 53 63
f 54 55 64
f 54 64 63
f 67 66 65
f 69 68 65
f 69 65 66
f 18 19 68
f 69 18 68
f 70 18 69
f 59 21 60
f 21 70 60
f 21 18 70
f 21 59 13
f 61 23 15
f 23 61 25
f 61 71 25
f 61 62 71
f 72 62 63
f 71 62 72
f 63 64 73
f 63 73 72
f 74 67 65
f 74 65 68
f 74 68 75
f 75 68 19
f 26 75 19
f 76 75 26
f 77 26 27
f 77 76 26
f 78 27 28
f 78 77 27
f 79 28 29
f 79 78 28
f 29 25 71
f 80 29 71
f 79 29 80
f 80 71 72
f 80 72 81
f 81 72 73
f 32 82 31
f 83 34 31
f 83 31 82
f 84 36 34
f 84 34 83
f 36 84 85
f 86 36 85
f 38 36 86
f 88 87 39
f 38 88 39
f 86 88 38
f 89 87 88
f 41 90 82
f 41 82 32
f 82 91 83
f 82 90 91
f 83 92 84
f 83 91 92
f 85 84 93
f 93 84 92
f 94 45 87
f 87 45 39
f 87 89 95
f 87 95 94
f 98 97 96
f 47 48 96
f 97 47 96
f 99 47 97
f 47 100 50
f 99 100 47
f 100 102 101
f 51 100 101
f 50 100 51
f 103 52 51
f 103 51 101
f 90 41 52
f 103 90 52
f 104 90 103
f 90 105 91
f 90 104 105
f 107 92 106
f 92 105 106
f 92 91 105
f 92 107 93
f 108 55 94
f 94 55 45
f 94 95 109
f 94 109 108
f 98 96 110
f 98 110 111
f 56 112 48
f 112 96 48
f 112 110 96
f 112 56 113
f 56 114 113
f 56 57 114
f 58 101 102
f 114 58 102
f 57 58 114
f 101 58 60
f 115 101 60
f 103 101 115
f 103 116 104
f 103 115 116
f 104 117 105
f 104 116 117
f 106 105 118
f 118 105 117
f 119 64 108
f 108 64 55
f 108 109 120
f 108 120 119
f 111 110 121
f 111 121 122
f 67 121 66
f 121 112 66
f 121 110 112
f 113 123 112
f 123 66 112
f 123 69 66
f 123 125 124
f 70 123 124
f 69 123 70
f 115 60 70
f 124 115 70
f 126 115 124
f 115 127 116
f 115 126 127
f 116 128 117
f 116 127 128
f 118 117 129
f 129 117 128
f 130 73 119
f 119 73 64
f 119 120 131
f 119 131 130
f 132 122 121
f 132 121 67
f 74 132 67
f 133 132 74
f 134 74 75
f 134 133 74
f 76 124 125
f 134 76 125
f 75 76 134
f 124 76 77
f 124 77 126
f 126 77 78
f 126 78 127
f 127 78 79
f 127 79 128
f 135 129 128
f 79 135 128
f 80 135 79
f 136 80 81
f 136 135 80
f 136 81 73
f 137 136 73
f 130 137 73
f 136 137 138
f 130 131 139
f 130 139 137
f 140 138 137
f 140 137 139
f 85 141 86
f 142 88 86
f 142 86 141
f 142 89 88
f 93 143 141
f 93 141 85
f 145 142 144
f 142 143 144
f 142 141 143
f 95 89 142
f 146 95 142
f 145 146 142
f 95 146 147
f 148 147 146
f 151 150 149
f 97 98 149
f 150 97 149
f 152 97 150
f 97 153 99
f 152 153 97
f 153 155 154
f 100 153 154
f 99 153 100
f 154 102 100
f 106 156 107
f 143 93 107
f 156 143 107
f 157 143 156
f 144 143 158
f 158 143 157
f 159 109 147
f 147 109 95
f 147 148 160
f 147 160 159
f 151 149 161
f 151 161 162
f 111 161 98
f 98 161 149
f 165 164 163
f 165 163 155
f 155 163 154
f 163 113 154
f 113 114 154
f 154 114 102
f 118 166 156
f 118 156 106
f 156 167 157
f 156 166 167
f 158 157 168
f 168 157 167
f 169 120 159
f 159 120 109
f 159 160 170
f 159 170 169
f 162 161 171
f 162 171 172
f 122 171 111
f 111 171 161
f 164 173 163
f 173 175 174
f 173 174 123
f 163 173 123
f 113 163 123
f 174 125 123
f 129 176 166
f 129 166 118
f 166 177 167
f 166 176 177
f 168 167 178
f 178 167 177
f 179 131 169
f 169 131 120
f 169 170 180
f 169 180 179
f 181 172 171
f 181 171 122
f 132 181 122
f 182 181 132
f 183 132 133
f 183 182 132
f 134 174 175
f 183 134 175
f 133 134 183
f 174 134 125
f 135 176 129
f 176 135 136
f 176 136 177
f 136 138 177
f 138 178 177
f 138 184 178
f 185 139 179
f 179 139 131
f 179 180 186
f 179 186 185
f 187 184 138
f 187 138 140
f 140 139 185
f 188 140 185
f 187 140 188
f 188 185 186
f 144 189 145
f 145 189 190
f 191 145 190
f 146 145 191
f 193 192 148
f 146 193 148
f 191 193 146
f 194 192 193
f 196 195 150
f 196 150 151
f 150 197 152
f 195 197 150
f 197 199 198
f 153 197 198
f 152 197 153
f 198 155 153
f 201 200 189
f 144 201 189
f 158 201 144
f 189 200 190
f 202 160 192
f 192 160 148
f 192 194 203
f 192 203 202
f 162 196 151
f 162 204 196
f 198 199 165
f 199 164 165
f 199 205 164
f 198 165 155
f 168 201 158
f 168 206 201
f 207 170 202
f 202 170 160
f 202 203 208
f 202 208 207
f 172 204 162
f 172 209 204
f 173 164 210
f 164 211 210
f 164 205 211
f 210 175 173
f 178 206 168
f 178 212 206
f 213 180 207
f 207 180 170
f 207 208 214
f 207 214 213
f 215 209 172
f 215 172 181
f 216 181 182
f 216 215 181
f 183 210 211
f 216 183 211
f 182 183 216
f 210 183 175
f 184 218 217
f 212 184 217
f 178 184 212
f 218 219 217
f 221 220 213
f 220 180 213
f 220 186 180
f 221 213 214
f 187 218 184
f 222 219 218
f 187 222 218
f 188 222 187
f 188 186 220
f 188 220 222
f 224 223 191
f 224 191 190
f 191 225 193
f 223 225 191
f 194 193 225
f 194 225 226
f 228 227 195
f 228 195 196
f 227 230 229
f 197 227 229
f 195 227 197
f 229 199 197
f 201 231 200
f 231 232 200
f 232 190 200
f 232 224 190
f 226 203 194
f 233 203 226
f 204 228 196
f 204 234 228
f 229 230 235
f 235 230 236
f 235 205 199
f 235 199 229
f 206 237 231
f 206 231 201
f 232 231 238
f 238 231 237
f 233 208 203
f 239 208 233
f 209 234 204
f 209 240 234
f 235 236 241
f 241 236 242
f 241 211 205
f 241 205 235
f 212 243 237
f 212 237 206
f 238 237 244
f 244 237 243
f 239 214 208
f 245 214 239
f 246 240 209
f 246 209 215
f 216 241 242
f 246 216 242
f 215 216 246
f 241 216 211
f 217 243 212
f 217 219 243
f 219 244 243
f 219 247 244
f 248 220 221
f 249 248 221
f 214 249 221
f 245 249 214
f 250 247 219
f 250 219 222
f 222 220 248
f 251 222 248
f 250 222 251
f 251 248 249
f 254 253 252
f 255 252 253
f 257 256 223
f 257 223 224
f 223 258 225
f 256 258 223
f 226 225 258
f 226 258 259
f 262 261 260
f 260 261 254
f 260 254 252
f 228 260 252
f 227 228 252
f 230 227 252
f 255 230 252
f 263 230 255
f 232 257 224
f 232 264 257
f 259 233 226
f 265 233 259
f 262 260 266
f 262 266 267
f 234 266 228
f 228 266 260
f 263 236 230
f 268 236 263
f 238 264 232
f 238 269 264
f 265 239 233
f 270 239 265
f 267 266 271
f 267 271 272
f 240 271 234
f 234 271 266
f 268 242 236
f 273 242 268
f 244 269 238
f 244 274 269
f 270 245 239
f 275 245 270
f 276 272 271
f 276 271 240
f 246 276 240
f 277 276 246
f 246 242 273
f 246 273 277
f 247 274 244
f 247 278 274
f 275 249 245
f 279 249 275
f 280 278 247
f 280 247 250
f 281 250 251
f 281 280 250
f 251 249 279
f 251 279 281
f 283 282 253
f 283 253 254
f 255 253 282
f 255 282 284
f 286 285 256
f 286 256 257
f 256 287 258
f 285 287 256
f 259 258 287
f 259 287 288
f 290 289 261
f 290 261 262
f 254 261 283
f 283 261 289
f 284 263 255
f 291 263 284
f 264 293 292
f 286 264 292
f 257 264 286
f 293 294 292
f 288 265 259
f 295 265 288
f 267 290 262
f 267 296 290
f 291 268 263
f 297 268 291
f 299 298 293
f 264 299 293
f 269 299 264
f 293 298 294
f 295 270 265
f 300 270 295
f 272 296 267
f 272 301 296
f 297 273 268
f 302 273 297
f 274 299 269
f 274 303 299
f 300 275 270
f 304 275 300
f 305 301 272
f 305 272 276
f 306 276 277
f 306 305 276
f 277 273 302
f 277 302 306
f 278 303 274
f 278 307 303
f 304 279 275
f 308 279 304
f 309 307 278
f 309 278 280
f 310 280 281
f 310 309 280
f 281 279 308
f 281 308 310
f 312 311 282
f 312 282 283
f 284 282 311
f 284 311 313
f 315 314 285
f 315 285 286
f 285 316 287
f 314 316 285
f 288 287 316
f 288 316 317
f 319 318 289
f 319 289 290
f 283 289 312
f 312 289 318
f 313 291 284
f 320 291 313
f 286 292 321
f 322 286 321
f 315 286 322
f 294 321 292
f 317 295 288
f 323 295 317
f 296 319 290
f 296 324 319
f 320 297 291
f 325 297 320
f 322 321 298
f 299 322 298
f 326 322 299
f 298 321 294
f 323 300 295
f 327 300 323
f 301 324 296
f 301 328 324
f 325 302 297
f 329 302 325
f 303 326 299
f 303 330 326
f 327 304 300
f 331 304 327
f 332 328 301
f 332 301 305
f 333 305 306
f 333 332 305
f 306 302 329
f 306 329 333
f 307 330 303
f 307 334 330
f 331 308 304
f 335 308 331
f 336 334 307
f 336 307 309
f 337 309 310
f 337 336 309
f 310 308 335
f 310 335 337
f 339 338 311
f 339 311 312
f 313 311 338
f 313 338 340
f 342 341 314
f 342 314 315
f 314 343 316
f 341 343 314
f 317 316 343
f 317 343 344
f 319 345 318
f 345 346 318
f 346 312 318
f 346 339 312
f 348 320 347
f 320 340 347
f 320 313 340
f 349 348 347
f 322 342 315
f 322 350 342
f 344 323 317
f 351 323 344
f 324 352 345
f 324 345 319
f 346 345 353
f 353 345 352
f 354 325 348
f 348 325 320
f 348 349 355
f 348 355 354
f 326 350 322
f 326 356 350
f 351 327 323
f 357 327 351
f 328 358 352
f 328 352 324
f 353 352 359
f 359 352 358
f 360 329 354
f 354 329 325
f 354 355 361
f 354 361 360
f 330 356 326
f 330 362 356
f 357 331 327
f 363 331 357
f 332 358 328
f 364 359 358
f 332 364 358
f 333 364 332
f 333 329 360
f 365 333 360
f 364 333 365
f 365 360 361
f 334 362 330
f 334 366 362
f 363 335 331
f 367 335 363
f 368 366 334
f 368 334 336
f 369 336 337
f 369 368 336
f 337 335 367
f 337 367 369
f 371 370 338
f 371 338 339
f 373 372 340
f 338 373 340
f 370 373 338
f 374 372 373
f 377 376 375
f 341 342 375
f 376 341 375
f 378 341 376
f 378 380 379
f 343 378 379
f 341 378 343
f 379 344 343
f 346 371 339
f 346 381 371
f 372 347 340
f 349 347 372
f 374 349 372
f 382 349 374
f 383 377 375
f 342 350 375
f 350 384 375
f 384 383 375
f 384 350 385
f 384 385 380
f 385 379 380
f 385 386 379
f 386 351 344
f 386 344 379
f 353 381 346
f 353 387 381
f 382 355 349
f 388 355 382
f 391 390 389
f 390 392 385
f 356 390 385
f 350 356 385
f 389 390 356
f 394 393 392
f 393 385 392
f 393 386 385
f 393 357 351
f 393 351 386
f 359 387 353
f 359 395 387
f 388 361 355
f 396 361 388
f 391 389 397
f 391 397 398
f 362 397 356
f 356 397 389
f 393 394 399
f 399 394 400
f 399 363 357
f 399 357 393
f 401 395 359
f 401 359 364
f 402 364 365
f 402 401 364
f 365 361 396
f 365 396 402
f 398 397 403
f 398 403 404
f 366 403 362
f 362 403 397
f 399 400 405
f 405 400 406
f 405 367 363
f 405 363 399
f 407 404 403
f 407 403 366
f 368 407 366
f 408 407 368
f 369 405 406
f 408 369 406
f 368 369 408
f 405 369 367
f 371 409 370
f 370 409 410
f 411 370 410
f 373 370 411
f 413 412 374
f 373 413 374
f 411 413 373
f 414 412 413
f 417 416 415
f 376 377 415
f 416 376 415
f 418 376 416
f 376 419 378
f 418 419 376
f 380 378 419
f 380 419 420
f 381 421 409
f 381 409 371
f 410 409 422
f 422 409 421
f 423 382 412
f 412 382 374
f 412 414 424
f 412 424 423
f 425 417 415
f 425 415 377
f 383 425 377
f 426 425 383
f 427 383 384
f 427 426 383
f 384 380 420
f 384 420 427
f 387 428 421
f 387 421 381
f 422 421 429
f 429 421 428
f 430 388 423
f 423 388 382
f 423 424 431
f 423 431 430
f 434 433 432
f 390 391 432
f 433 390 432
f 435 390 433
f 390 436 392
f 435 436 390
f 394 392 436
f 394 436 437
f 395 438 428
f 395 428 387
f 429 428 439
f 439 428 438
f 440 396 430
f 430 396 388
f 430 431 441
f 430 441 440
f 434 432 442
f 434 442 443
f 398 442 391
f 391 442 432
f 437 400 394
f 444 400 437
f 401 438 395
f 445 439 438
f 401 445 438
f 402 445 401
f 402 396 440
f 446 402 440
f 445 402 446
f 446 440 441
f 443 442 447
f 443 447 448
f 404 447 398
f 398 447 442
f 444 406 400
f 449 406 444
f 450 448 447
f 450 447 404
f 407 450 404
f 451 450 407
f 452 407 408
f 452 451 407
f 408 406 449
f 408 449 452
f 410 453 411
f 411 453 454
f 455 411 454
f 413 411 455
f 457 456 414
f 413 457 414
f 455 457 413
f 459 458 456
f 459 456 457
f 461 460 458
f 461 458 459
f 463 462 460
f 463 460 461
f 465 464 462
f 465 462 463
f 467 466 464
f 467 464 465
f 416 417 466
f 467 416 466
f 468 416 467
f 416 469 418
f 468 469 416
f 469 471 470
f 419 469 470
f 418 469 419
f 470 420 419
f 422 472 453
f 422 453 410
f 454 453 473
f 473 453 472
f 474 424 456
f 456 424 414
f 475 456 458
f 474 456 475
f 476 458 460
f 475 458 476
f 462 478 477
f 476 462 477
f 460 462 476
f 480 479 478
f 462 480 478
f 464 480 462
f 481 464 466
f 480 464 481
f 425 482 417
f 482 466 417
f 482 481 466
f 482 425 483
f 425 484 483
f 425 426 484
f 427 470 471
f 484 427 471
f 426 427 484
f 470 427 420
f 429 485 472
f 429 472 422
f 473 472 486
f 486 472 485
f 487 431 474
f 474 431 424
f 488 474 475
f 487 474 488
f 489 475 476
f 488 475 489
f 476 477 490
f 491 476 490
f 489 476 491
f 491 490 479
f 480 491 479
f 492 491 480
f 493 480 481
f 492 480 493
f 434 493 433
f 493 482 433
f 493 481 482
f 483 494 482
f 494 433 482
f 494 435 433
f 494 496 495
f 436 494 495
f 435 494 436
f 495 437 436
f 499 498 497
f 501 500 497
f 501 497 498
f 502 500 501
f 439 503 485
f 439 485 429
f 486 485 504
f 504 485 503
f 505 441 487
f 487 441 431
f 506 487 488
f 505 487 506
f 507 488 489
f 506 488 507
f 491 509 508
f 507 491 508
f 489 491 507
f 509 491 492
f 509 492 510
f 512 511 510
f 492 512 510
f 493 512 492
f 443 512 434
f 434 512 493
f 515 514 513
f 515 513 496
f 513 495 496
f 513 516 495
f 516 444 437
f 516 437 495
f 499 497 517
f 499 517 518
f 519 497 500
f 517 497 519
f 500 502 520
f 521 500 520
f 519 500 521
f 523 522 520
f 522 503 520
f 439 520 503
f 520 439 521
f 445 521 439
f 521 445 522
f 522 524 521
f 523 524 522
f 522 445 503
f 446 503 445
f 503 446 504
f 525 504 446
f 504 525 523
f 524 523 525
f 441 505 446
f 505 525 446
f 505 526 525
f 527 505 506
f 526 505 527
f 528 506 507
f 527 506 528
f 507 508 529
f 530 507 529
f 528 507 530
f 532 531 530
f 532 530 529
f 531 532 511
f 512 531 511
f 533 531 512
f 448 533 443
f 443 533 512
f 514 534 513
f 536 535 534
f 535 513 534
f 535 516 513
f 535 449 444
f 535 444 516
f 537 518 517
f 537 517 519
f 537 519 538
f 538 519 521
f 538 521 539
f 539 521 524
f 539 524 540
f 540 524 525
f 540 525 541
f 541 525 526
f 541 526 542
f 544 543 542
f 526 544 542
f 527 544 526
f 528 546 545
f 544 528 545
f 527 528 544
f 546 528 530
f 546 530 547
f 547 530 531
f 547 531 548
f 548 531 533
f 548 533 549
f 549 533 448
f 450 549 448
f 550 549 450
f 551 450 451
f 551 550 450
f 452 535 536
f 551 452 536
f 451 452 551
f 535 452 449
f 552 543 544
f 552 544 545
f 454 553 455
f 455 553 554
f 555 455 554
f 457 455 555
f 457 556 459
f 555 556 457
f 459 557 461
f 556 557 459
f 461 558 463
f 557 558 461
f 463 559 465
f 558 559 463
f 465 560 467
f 559 560 465
f 560 562 561
f 468 560 561
f 467 560 468
f 563 469 468
f 563 468 561
f 563 471 469
f 473 564 553
f 473 553 454
f 554 553 565
f 565 553 564
f 566 477 478
f 479 566 478
f 569 568 567
f 569 567 562
f 567 561 562
f 567 570 561
f 570 483 484
f 563 570 484
f 561 570 563
f 563 484 471
f 486 571 564
f 486 564 473
f 565 564 572
f 572 564 571
f 566 490 477
f 490 566 479
f 568 573 567
f 575 574 573
f 574 567 573
f 574 570 567
f 576 494 483
f 570 576 483
f 574 576 570
f 576 496 494
f 578 577 498
f 578 498 499
f 498 579 501
f 577 579 498
f 581 580 502
f 501 581 502
f 579 581 501
f 583 582 580
f 583 580 581
f 504 584 486
f 584 582 486
f 583 486 582
f 486 583 571
f 585 571 583
f 571 585 584
f 584 586 571
f 504 586 584
f 584 585 582
f 572 571 587
f 587 571 586
f 589 588 509
f 509 588 508
f 591 589 590
f 589 510 590
f 589 509 510
f 593 590 592
f 590 510 592
f 511 594 592
f 511 592 510
f 592 594 575
f 594 574 575
f 594 595 574
f 595 514 515
f 576 595 515
f 574 595 576
f 576 515 496
f 518 578 499
f 518 596 578
f 580 520 502
f 520 580 523
f 523 580 582
f 582 585 523
f 585 597 523
f 586 504 523
f 586 523 597
f 586 597 587
f 588 598 508
f 508 598 529
f 590 532 591
f 532 598 591
f 532 529 598
f 590 593 532
f 593 599 532
f 594 511 532
f 594 532 599
f 601 600 599
f 600 594 599
f 600 595 594
f 602 534 514
f 595 602 514
f 600 602 595
f 602 536 534
f 603 596 518
f 603 518 537
f 604 537 538
f 604 603 537
f 605 538 539
f 605 604 538
f 606 539 540
f 606 605 539
f 607 540 541
f 607 606 540
f 609 607 608
f 607 542 608
f 607 541 542
f 543 608 542
f 610 545 546
f 610 546 611
f 546 612 611
f 546 547 612
f 613 547 548
f 613 612 547
f 614 548 549
f 614 613 548
f 550 600 601
f 614 550 601
f 549 550 614
f 600 550 551
f 600 551 602
f 602 551 536
f 615 609 608
f 615 608 543
f 552 615 543
f 616 615 552
f 552 545 610
f 617 552 610
f 616 552 617
f 617 610 611
f 554 618 555
f 619 556 555
f 619 555 618
f 620 557 556
f 620 556 619
f 621 558 557
f 621 557 620
f 622 559 558
f 622 558 621
f 623 560 559
f 623 559 622
f 623 562 560
f 565 624 618
f 565 618 554
f 618 625 619
f 618 624 625
f 619 626 620
f 619 625 626
f 620 627 621
f 620 626 627
f 621 628 622
f 621 627 628
f 628 568 569
f 623 628 569
f 622 628 623
f 623 569 562
f 572 629 624
f 572 624 565
f 624 630 625
f 624 629 630
f 625 631 626
f 625 630 631
f 626 632 627
f 626 631 632
f 627 633 628
f 627 632 633
f 634 573 568
f 628 634 568
f 633 634 628
f 634 575 573
f 578 635 577
f 636 579 577
f 636 577 635
f 637 581 579
f 637 579 636
f 638 583 581
f 638 581 637
f 638 585 583
f 587 639 629
f 587 629 572
f 629 640 630
f 629 639 640
f 630 641 631
f 630 640 641
f 641 588 589
f 632 641 589
f 631 641 632
f 632 589 591
f 642 632 591
f 633 632 642
f 642 593 592
f 634 642 592
f 633 642 634
f 634 592 575
f 596 643 635
f 596 635 578
f 635 644 636
f 635 643 644
f 636 645 637
f 636 644 645
f 637 646 638
f 637 645 646
f 647 597 585
f 638 647 585
f 646 647 638
f 647 648 597
f 597 648 587
f 648 649 587
f 649 639 587
f 639 649 640
f 640 649 650
f 640 650 641
f 641 650 651
f 651 653 652
f 651 652 598
f 641 651 598
f 588 641 598
f 642 591 598
f 652 642 598
f 654 642 652
f 655 599 593
f 642 655 593
f 654 655 642
f 655 601 599
f 603 643 596
f 643 603 604
f 643 604 644
f 644 604 605
f 644 605 645
f 645 605 606
f 645 606 646
f 646 606 607
f 646 607 647
f 657 656 609
f 609 656 607
f 656 648 607
f 648 647 607
f 659 658 657
f 657 658 656
f 661 660 659
f 659 660 658
f 660 661 653
f 653 661 652
f 661 611 652
f 611 612 652
f 652 612 613
f 652 613 654
f 654 613 614
f 654 614 655
f 655 614 601
f 615 657 609
f 657 615 616
f 657 616 659
f 659 616 617
f 659 617 661
f 661 617 611
f 648 662 649
f 663 650 649
f 663 649 662
f 664 651 650
f 664 650 663
f 664 653 651
f 656 662 648
f 662 656 658
f 662 658 663
f 663 658 660
f 663 660 664
f 664 660 653

