# https://github.com/mikedh/trimesh
v -0.02046436 -0.03500928 0.01666120
v -0.01603866 -0.03848062 0.01535084
v -0.01858577 -0.03544485 0.01193495
v -0.02069137 -0.03546151 0.02373035
v -0.01804352 -0.03872262 0.02113856
v -0.02002203 -0.03468236 0.02876393
v -0.01714924 -0.03920169 0.02661303
v -0.01771505 -0.03659575 0.03099624
v -0.02042579 -0.02835912 0.00363886
v -0.01643404 -0.03192258 0.00168067
v -0.01858681 -0.02889686 -0.00104545
v -0.02082340 -0.03001673 0.01075175
v -0.01710991 -0.03333369 0.00730445
v -0.02146572 -0.02863645 0.01648025
v -0.02149440 -0.02945606 0.02220580
v -0.02075274 -0.02934060 0.02814541
v -0.01823113 -0.03082869 0.03205645
v -0.01972881 -0.02467994 -0.00256191
v -0.01798646 -0.02656685 -0.00412458
v -0.01702246 -0.02323072 -0.00581339
v -0.02044609 -0.02305786 0.00141109
v -0.02068446 -0.02383096 0.00741732
v -0.02063287 -0.02371187 0.01394163
v -0.02068413 -0.02339341 0.02061256
v -0.02026210 -0.02328433 0.02687492
v -0.01746414 -0.02453086 0.03078301
v -0.01785503 -0.02018956 -0.00218670
v -0.01802137 -0.01981694 0.00405953
v -0.01698896 -0.01979143 0.01073312
v -0.01716322 -0.02017691 0.01720371
v -0.01800438 -0.02006828 0.02325959
v -0.01640962 -0.02075121 0.02721559
v -0.01924026 0.04127498 -0.00981836
v -0.01787450 0.03928349 -0.01094927
v -0.01730072 0.04184152 -0.01285181
v -0.01784061 0.04027755 -0.00785563
v -0.01608772 0.04346949 -0.00924177
v -0.01461898 -0.04175656 0.03046672
v -0.00963256 -0.04487179 0.02814308
v -0.01249121 -0.04225218 0.02574176
v -0.01355521 -0.04145901 0.03502361
v -0.01090985 -0.04496476 0.03460148
v -0.01079392 -0.04280984 0.03835961
v -0.01526350 -0.03662508 0.01010828
v -0.01025230 -0.03836549 0.00943132
v -0.01243578 -0.03568051 0.00637210
v -0.01130263 -0.03923757 0.01569336
v -0.01173908 -0.04021030 0.02094041
v -0.01489939 -0.03527749 0.03446475
v -0.01099568 -0.03657386 0.03839880
v -0.01529116 -0.02887659 -0.00416106
v -0.01080140 -0.03197052 -0.00282742
v -0.01128134 -0.02902064 -0.00692611
v -0.01098356 -0.03399558 0.00201678
v -0.01435766 -0.02828753 0.03419035
v -0.01151167 -0.03048644 0.03705135
v -0.01387660 -0.02234179 -0.01581939
v -0.00966171 -0.02567254 -0.01599174
v -0.01174685 -0.02286511 -0.02003749
v -0.01422687 -0.02375934 -0.00909535
v -0.01060778 -0.02675855 -0.01100440
v -0.01467712 -0.02256899 0.02877461
v -0.01172718 -0.02215807 0.02635226
v -0.01065435 -0.02497386 0.03021400
v -0.00995397 -0.02713248 0.03525451
v -0.01406417 -0.01699336 -0.02200105
v -0.00965503 -0.02019872 -0.02314966
v -0.01150075 -0.01644311 -0.02639339
v -0.01479753 -0.01616641 -0.01570750
v -0.01463282 -0.01683817 -0.01016988
v -0.01516004 -0.01694666 -0.00410251
v -0.01540494 -0.01583357 0.00281905
v -0.01470437 -0.01599391 0.00861486
v -0.01184128 -0.01674318 0.01206943
v -0.01048684 -0.01910629 0.01560315
v -0.01183095 -0.02011911 0.02209445
v -0.01400078 -0.01042454 -0.02831244
v -0.00947948 -0.01372935 -0.02954764
v -0.01139495 -0.00989704 -0.03284822
v -0.01485715 -0.00972244 -0.02194472
v -0.01476552 -0.01051888 -0.01642297
v -0.01466126 -0.01029785 -0.00994137
v -0.01460416 -0.01010782 -0.00339092
v -0.01462415 -0.01102467 0.00219921
v -0.01376752 -0.00990558 0.00765569
v -0.01016586 -0.01126974 0.01175044
v -0.01405824 -0.00393426 -0.03466628
v -0.00943516 -0.00727931 -0.03602738
v -0.01147340 -0.00353518 -0.03925551
v -0.01489697 -0.00311258 -0.02827991
v -0.01481671 -0.00486290 -0.02365399
v -0.01396086 -0.00367873 -0.01792271
v -0.01376959 -0.00471292 -0.01143137
v -0.01386974 -0.00451252 -0.00488748
v -0.01376747 -0.00497080 0.00219496
v -0.01066083 -0.00336280 0.00683849
v -0.01074844 -0.00652888 0.01005211
v -0.01409400 0.00245367 -0.04122430
v -0.00939681 -0.00076956 -0.04249701
v -0.01074344 0.00358387 -0.04570745
v -0.01494547 0.00330325 -0.03478283
v -0.01488713 0.00164559 -0.03003189
v -0.01376407 0.00226583 -0.02381933
v -0.01156768 0.00142140 -0.01906349
v -0.01111650 -0.00060061 -0.01452439
v -0.01121753 -0.00086849 -0.00845805
v -0.01141559 -0.00058877 -0.00197849
v -0.01062472 -0.00047062 0.00290329
v -0.01409650 0.00825965 -0.04687921
v -0.01073871 0.00667661 -0.04857332
v -0.01138034 0.01043034 -0.05078459
v -0.01509200 0.00874319 -0.04231669
v -0.01416842 0.00928085 -0.03738035
v -0.01364802 0.00772750 -0.03020899
v -0.01162462 0.00805195 -0.02557584
v -0.01065359 0.00512473 -0.02192685
v -0.01386900 0.01489765 -0.04804357
v -0.01011876 0.01628226 -0.05115657
v -0.01426972 0.01468381 -0.04219702
v -0.01177288 0.01492919 -0.03795972
v -0.01111223 0.01245864 -0.03389645
v -0.01065295 0.01112478 -0.02893704
v -0.01220111 0.01922700 -0.04777201
v -0.01163494 0.02212642 -0.04524049
v -0.01331925 0.02048065 -0.04354343
v -0.01128145 0.01996089 -0.03916697
v -0.01004617 0.02383163 -0.04269565
v -0.01342582 0.02841825 -0.01455482
v -0.01070001 0.02545485 -0.01681164
v -0.01123709 0.02980719 -0.01935566
v -0.01393740 0.02845362 -0.00834790
v -0.01123345 0.02447230 -0.01137642
v -0.01348197 0.02935463 -0.00220454
v -0.01119433 0.02502622 -0.00528926
v -0.01068496 0.02703394 -0.00060566
v -0.01364783 0.03438378 -0.03412230
v -0.01114718 0.03193160 -0.03610363
v -0.01209433 0.03598909 -0.03813289
v -0.01337640 0.03607705 -0.03024997
v -0.01151808 0.03127990 -0.03069211
v -0.01091056 0.03350902 -0.02672769
v -0.01369577 0.03338215 -0.01676481
v -0.01165029 0.03554746 -0.01952839
v -0.01546616 0.03518272 -0.01027923
v -0.01487214 0.03347574 -0.00422355
v -0.01178818 0.03020323 0.00268764
v -0.01390347 0.03528989 0.00298458
v -0.01355467 0.03596661 0.00980749
v -0.01142072 0.03159204 0.00781250
v -0.01032927 0.03503378 0.01222886
v -0.01343608 0.03943095 -0.03529467
v -0.01034937 0.04006429 -0.03808588
v -0.01210728 0.04069217 -0.03267485
v -0.00932628 0.03790122 -0.02883700
v -0.01439741 0.03920114 -0.01585276
v -0.00994444 0.03987635 -0.01878070
v -0.01484909 0.03986667 -0.00390304
v -0.01083917 0.03958298 -0.00037065
v -0.01172218 0.03895159 0.00393355
v -0.00949127 0.04149830 0.00637630
v -0.01352378 0.03978256 0.00811926
v -0.01168388 0.03991891 0.01163574
v -0.01156786 0.04259388 -0.03577327
v -0.01286479 0.04325425 -0.01521943
v -0.01122675 0.04406075 -0.01102738
v -0.01166655 0.04321053 -0.00530651
v -0.01019653 0.04290227 0.00984025
v -0.00864282 -0.04291321 0.02289554
v -0.00383467 -0.04472644 0.02202965
v -0.00574130 -0.04190929 0.01915922
v -0.00504894 -0.04567720 0.02829539
v -0.00433529 -0.04634247 0.03410450
v -0.00802690 -0.04051632 0.04185901
v -0.00634278 -0.04473187 0.04017314
v -0.00372645 -0.04241580 0.04375277
v -0.00866168 -0.03650354 0.00342577
v -0.00387142 -0.03832578 0.00364033
v -0.00529633 -0.03569847 0.00003413
v -0.00484955 -0.03922466 0.00892047
v -0.00513315 -0.04002364 0.01434710
v -0.00760983 -0.03512666 0.04130040
v -0.00437200 -0.03760729 0.04394347
v -0.00392876 -0.03297868 -0.00317080
v -0.00623133 -0.02987624 -0.00687463
v -0.00703794 -0.03006807 0.03808468
v -0.00326533 -0.03254357 0.04072100
v -0.00316341 -0.02606491 -0.01604240
v -0.00553784 -0.02308288 -0.01996416
v -0.00478081 -0.02752067 -0.01097921
v -0.00640075 -0.02291726 0.02502634
v -0.00330073 -0.02543021 0.02741490
v -0.00438385 -0.02690664 0.03311047
v -0.00421872 -0.01955645 -0.02254617
v -0.00664016 -0.01727534 -0.02581090
v -0.00563182 -0.01611473 0.01276673
v -0.00500694 -0.01986415 0.01615542
v -0.00513597 -0.02102887 0.02010294
v -0.00464119 -0.01412590 -0.02844503
v -0.00652577 -0.01093596 -0.03232717
v -0.00487070 -0.00927794 0.01165881
v -0.00458788 -0.00773792 -0.03493438
v -0.00651841 -0.00447615 -0.03883371
v -0.00846347 -0.00364957 0.00940091
v -0.00531392 -0.00405493 0.01198305
v -0.00451296 -0.00110747 -0.04139699
v -0.00603221 0.00217456 -0.04424850
v -0.00869383 0.00397426 -0.01693125
v -0.00855965 0.00278792 -0.01019484
v -0.00874598 0.00312391 -0.00368740
v -0.00809579 0.00338852 0.00193193
v -0.00554129 0.00135978 0.00582168
v -0.00438267 -0.00137921 0.00940474
v -0.00792205 0.00944432 -0.04951760
v -0.00590406 0.00674175 -0.04595554
v -0.00855541 0.00977946 -0.02274078
v -0.00759189 0.00929210 -0.01574295
v -0.00768270 0.00833918 -0.01022971
v -0.00786162 0.00860143 -0.00373875
v -0.00714057 0.00893097 0.00192754
v -0.00464745 0.00751380 0.00576081
v -0.00306198 0.01163966 -0.04792667
v -0.00626006 0.01393113 -0.05165019
v -0.00890420 0.01712915 -0.03492589
v -0.00824545 0.01511546 -0.02879963
v -0.00757380 0.01600506 -0.02201424
v -0.00759997 0.01497519 -0.01635088
v -0.00764001 0.01491256 -0.00993337
v -0.00779906 0.01510994 -0.00363882
v -0.00725637 0.01561227 0.00305304
v -0.00458600 0.01352410 0.00626436
v -0.00904644 0.02154844 -0.04835411
v -0.00386001 0.02041378 -0.05135895
v -0.00842426 0.02325838 -0.03586246
v -0.00752578 0.02147115 -0.02922298
v -0.00750321 0.02052510 -0.02374348
v -0.00836306 0.02143252 -0.01691948
v -0.00856872 0.02068899 -0.00983796
v -0.00843954 0.02190941 -0.00313133
v -0.00790333 0.02166462 0.00290355
v -0.00514327 0.01758487 0.00860712
v -0.00744977 0.02160467 0.00991671
v -0.00712686 0.02297282 0.01698598
v -0.00466146 0.01870409 0.01363592
v -0.00436319 0.02051804 0.01844063
v -0.00562662 0.02504786 -0.04732995
v -0.00763000 0.02738436 -0.04185555
v -0.00402318 0.02903683 -0.04575515
v -0.00878014 0.02855923 -0.03553952
v -0.00852154 0.02812307 -0.02847161
v -0.00836826 0.02625629 -0.02232278
v -0.00908101 0.02717447 0.00341428
v -0.00875755 0.02828117 0.00984382
v -0.00843241 0.02802646 0.01604885
v -0.00547985 0.02434794 0.02149740
v -0.00734563 0.02855001 0.02176987
v -0.00398770 0.02877112 0.02504997
v -0.00786225 0.03392055 -0.04103628
v -0.00321599 0.03328239 -0.04435897
v -0.00862058 0.03443786 -0.02258012
v -0.00692197 0.03576318 -0.00895747
v -0.00502420 0.03543667 -0.01371555
v -0.00433223 0.03182680 -0.01047588
v -0.00491365 0.03127290 -0.00539808
v -0.00729301 0.03589775 -0.00272339
v -0.00453026 0.03330627 -0.00083324
v -0.00780805 0.03433404 0.01533155
v -0.00719931 0.03404837 0.02074382
v -0.00520705 0.03360451 0.02460904
v -0.00482416 0.03646022 -0.04210694
v -0.00594744 0.03802662 -0.03674922
v -0.00958412 0.04132151 -0.03476353
v -0.00463488 0.03721303 -0.03001006
v -0.00495488 0.03697779 -0.02409797
v -0.00517254 0.03738401 -0.01844019
v -0.00809427 0.04047409 -0.01465437
v -0.00878814 0.04140514 -0.00906878
v -0.00890904 0.03979102 -0.00470400
v -0.00533458 0.03763375 0.00301019
v -0.00401989 0.04103273 0.00663822
v -0.00678901 0.04050730 0.01243096
v -0.00314281 0.03828644 0.01620232
v -0.00362251 0.03697892 0.02272047
v -0.00600792 0.04303426 0.00870360
v -0.00047547 -0.04852635 0.03593658
v 0.00347603 -0.05110984 0.03404899
v 0.00044768 -0.04844286 0.03193935
v 0.00237405 -0.04963253 0.03877549
v -0.00200998 -0.04276464 0.01620985
v 0.00263014 -0.04466540 0.01639873
v 0.00120748 -0.04195252 0.01290883
v 0.00149104 -0.04560378 0.02154780
v 0.00107839 -0.04649186 0.02701238
v -0.00051812 -0.04614035 0.04082224
v 0.00190869 -0.04272935 0.04455934
v 0.00335221 -0.03877751 0.00295935
v 0.00125059 -0.03559831 -0.00102918
v 0.00103529 -0.03994532 0.00878694
v 0.00133710 -0.03637978 0.04439167
v 0.00261942 -0.03199869 -0.00351747
v 0.00005266 -0.02975810 -0.00658425
v -0.00221954 -0.02946309 0.03594824
v 0.00075264 -0.02879982 0.03205358
v 0.00268719 -0.03148277 0.03527429
v 0.00229420 -0.03312419 0.04166612
v 0.00207800 -0.02546111 -0.01558129
v 0.00055537 -0.02368298 -0.01878014
v 0.00121194 -0.02709097 -0.01071980
v -0.00132100 -0.02206294 0.01618099
v 0.00153664 -0.02313885 0.01226542
v 0.00169450 -0.02587359 0.01591680
v 0.00123354 -0.02644185 0.02128194
v -0.00201799 -0.02360965 0.02253443
v 0.00109844 -0.02742108 0.02787411
v -0.00159182 -0.01523176 -0.02383247
v 0.00102966 -0.01883572 -0.01991493
v -0.00025585 -0.01636375 0.00438732
v 0.00187780 -0.01597086 0.00065609
v 0.00187680 -0.01896446 0.00215248
v 0.00141386 -0.02019409 0.00718865
v -0.00127225 -0.01782540 0.00981031
v -0.00224772 -0.00956259 -0.02884569
v -0.00046141 -0.00956912 -0.02270332
v 0.00198324 -0.01206458 -0.01956830
v 0.00106213 -0.01316904 0.00329042
v -0.00162916 -0.01189374 0.00809936
v 0.00118910 -0.00897218 0.00562585
v -0.00221366 -0.00317322 -0.03541148
v -0.00176480 -0.00319840 -0.02812994
v -0.00101371 -0.00385617 -0.02330091
v 0.00160336 -0.00529424 -0.01934506
v -0.00155286 -0.00454912 0.00995061
v 0.00122104 -0.00369491 0.00698810
v -0.00249745 0.00271272 -0.04146599
v -0.00074118 0.00356965 -0.03679919
v -0.00105676 0.00161838 -0.03055944
v -0.00095501 0.00193841 -0.02447407
v 0.00120623 0.00106229 -0.01981119
v -0.00142369 0.00316382 0.00943471
v 0.00128049 -0.00108317 0.00979772
v -0.00113089 -0.00015839 0.01139318
v 0.00134330 -0.00150313 0.01454499
v -0.00162386 0.00192628 0.01544118
v -0.00119732 0.00267741 0.02350367
v 0.00221855 -0.00042523 0.02208243
v -0.00108575 0.00326662 0.02971306
v 0.00125708 -0.00005113 0.02718435
v 0.00311112 0.00279148 0.03156105
v -0.00156464 0.00811602 -0.04224824
v 0.00101945 0.00807533 -0.03840447
v 0.00137417 0.00613617 -0.03359473
v 0.00212312 0.00588779 -0.02743535
v 0.00264515 0.00505652 -0.02147351
v -0.00199835 0.01047829 0.00974974
v -0.00134439 0.00881118 0.01532787
v -0.00175250 0.00859152 0.02192198
v -0.00210889 0.00849363 0.02865460
v 0.00053879 0.00566172 0.03427922
v -0.00105826 0.00890172 0.03459861
v 0.00265890 0.01026623 0.03713764
v 0.00264595 0.01301488 -0.04740893
v 0.00064620 0.01657563 -0.05137539
v 0.00216244 0.01108601 -0.04188683
v -0.00268179 0.01533950 0.01036932
v -0.00195290 0.01551369 0.01582541
v -0.00152157 0.01520376 0.02207494
v -0.00190860 0.01537359 0.02870076
v -0.00138708 0.01537113 0.03472981
v 0.00118891 0.01443417 0.03798569
v 0.00294998 0.02187767 -0.05144418
v -0.00259307 0.02200223 0.02296213
v -0.00178460 0.02104260 0.02793489
v -0.00100625 0.02241147 0.03352095
v 0.00152057 0.02008177 0.03735961
v 0.00130655 0.02513944 -0.04837984
v 0.00147786 0.02870711 -0.04489521
v -0.00058062 0.02927921 -0.02836215
v 0.00162973 0.02785954 -0.03259175
v 0.00142742 0.02499117 -0.02889050
v 0.00141392 0.02444879 -0.02443709
v -0.00083259 0.02869768 -0.02136769
v 0.00140882 0.02460890 -0.01793880
v -0.00077513 0.02791104 -0.01547285
v 0.00137667 0.02467363 -0.01148878
v -0.00176049 0.02835985 -0.00928793
v 0.00194098 0.02463352 -0.00416071
v -0.00183550 0.02869926 -0.00187339
v 0.00208858 0.02567363 0.00249596
v -0.00039899 0.02912271 0.00282062
v 0.00245172 0.02781329 0.00594411
v -0.00109450 0.02757346 0.02872470
v 0.00217731 0.02705481 0.03222882
v 0.00212366 0.02390939 0.03506783
v 0.00087098 0.03162093 -0.04243556
v -0.00189982 0.03495822 -0.04074502
v 0.00177896 0.03107289 -0.03777254
v -0.00148014 0.03381379 -0.03425866
v -0.00232111 0.03476108 -0.02821196
v -0.00218550 0.03394234 -0.02276805
v -0.00248535 0.03247398 -0.01600858
v -0.00216241 0.03288138 0.00182905
v 0.00101835 0.03308837 0.00577483
v -0.00047364 0.03416429 0.02558908
v 0.00364856 0.03153222 0.02792277
v 0.00011060 0.03803852 0.00903887
v -0.00258662 0.04110813 0.01005467
v 0.00211790 0.03717603 0.01465743
v 0.00106959 0.03715644 0.02052745
v 0.00427570 -0.04936549 0.02897105
v 0.00893004 -0.05111251 0.03006865
v 0.00724755 -0.04840213 0.02613146
v 0.00806450 -0.05267220 0.03468352
v 0.00436125 -0.04823001 0.04225947
v 0.00746268 -0.05136334 0.03944902
v 0.00900980 -0.04714999 0.04380355
v 0.00980879 -0.04515803 0.01564543
v 0.00763105 -0.04192762 0.01180423
v 0.00787978 -0.04628267 0.02234621
v 0.00725211 -0.04128648 0.04521377
v 0.00853924 -0.03804811 0.00370247
v 0.00709104 -0.03638863 0.00030730
v 0.00805869 -0.03904893 0.00798686
v 0.00764780 -0.03638001 0.04400794
v 0.00506341 -0.02765085 -0.00378241
v 0.00766172 -0.03161257 -0.00042351
v 0.00483256 -0.02846074 0.01610504
v 0.00892690 -0.02970830 0.01218590
v 0.00956922 -0.03170150 0.01696235
v 0.00898338 -0.03189996 0.02194763
v 0.00491508 -0.02963856 0.02330737
v 0.00819512 -0.03189500 0.02906653
v 0.00401397 -0.02987899 0.02875480
v 0.00810964 -0.03234745 0.03497202
v 0.00842474 -0.03322811 0.03971017
v 0.00422850 -0.02165961 -0.01607662
v 0.00462400 -0.02350015 -0.00968882
v 0.00514644 -0.02327513 -0.00365957
v 0.00815190 -0.02700530 0.00242252
v 0.00495011 -0.02297154 0.00282046
v 0.00840296 -0.02643387 0.00755437
v 0.00475911 -0.02446880 0.01002636
v 0.00450412 -0.01549667 -0.01570709
v 0.00513609 -0.01704915 -0.01014066
v 0.00428753 -0.01784359 -0.00293461
v 0.00419864 -0.00877765 -0.01544983
v 0.00500031 -0.01138323 -0.01084578
v 0.00539164 -0.01023426 -0.00524937
v 0.00449961 -0.01057586 0.00174646
v 0.00372359 -0.00257187 -0.01619487
v 0.00557723 -0.00402334 -0.01093904
v 0.00875909 -0.00355123 -0.00595924
v 0.00767494 -0.00690985 -0.00171791
v 0.00951307 -0.00722638 0.00383553
v 0.00814557 -0.00736314 0.00868688
v 0.00449023 -0.00413623 0.01092489
v 0.00578630 -0.00375895 0.01612058
v 0.00810266 -0.00626679 0.01423268
v 0.01010176 -0.00443821 0.01877835
v 0.00446320 0.00223371 -0.01616768
v 0.00736061 0.00200243 -0.01238751
v 0.00875576 0.00002938 -0.00917867
v 0.00775851 -0.00177629 0.02207501
v 0.00636712 -0.00059414 0.02798278
v 0.00897718 0.00198847 0.03117491
v 0.00366648 0.00945307 -0.03609446
v 0.00501598 0.00907557 -0.03095520
v 0.00733590 0.00854283 -0.02684859
v 0.00844033 0.00649499 -0.02272710
v 0.00846854 0.00514422 -0.01592301
v 0.00390315 0.00766907 0.03478363
v 0.00904475 0.00727672 0.03302428
v 0.00537134 0.01594680 -0.04955121
v 0.00731219 0.01445651 -0.04621840
v 0.00855405 0.01275297 -0.04172546
v 0.00819871 0.01144807 -0.03508235
v 0.00949209 0.01069024 -0.02913658
v 0.00743180 0.01117055 0.03581986
v 0.00708972 0.01566572 0.03765404
v 0.00899433 0.01781049 -0.04804282
v 0.00703325 0.02025106 -0.05074826
v 0.00465956 0.02246873 -0.02842797
v 0.00771959 0.02245110 -0.03251436
v 0.01017931 0.01933842 -0.02919904
v 0.00794407 0.01922185 -0.02335603
v 0.00455320 0.02131246 -0.02111956
v 0.00879081 0.01830803 -0.01789243
v 0.00449996 0.02148029 -0.01481119
v 0.00757558 0.01830800 -0.01156105
v 0.00449481 0.02155470 -0.00846198
v 0.00888003 0.01833812 -0.00420390
v 0.00551780 0.02203598 -0.00310569
v 0.00882157 0.02120762 0.00013715
v 0.00506394 0.02096648 0.03599054
v 0.00696075 0.02380390 0.03239062
v 0.01013058 0.01876654 0.03433917
v 0.00734569 0.02373017 -0.04897910
v 0.00768412 0.02506592 -0.04380986
v 0.00480710 0.02823829 -0.04023966
v 0.00846327 0.02446407 -0.03726134
v 0.00495283 0.02649488 -0.03474493
v 0.00630949 0.02356299 0.00176268
v 0.00827802 0.02472039 0.00855153
v 0.00533142 0.02992888 0.00999881
v 0.00911648 0.02764291 0.01272452
v 0.00672074 0.02846426 0.03063841
v 0.00386154 0.03463715 0.01038475
v 0.00778932 0.03051127 0.01492347
v 0.00513379 0.03415110 0.01617216
v 0.00767407 0.03169207 0.02144926
v 0.00405014 0.03467262 0.02280528
v 0.00833564 0.03028960 0.02723579
v 0.01122424 -0.04854136 0.02711100
v 0.01409526 -0.04959611 0.03096421
v 0.01286990 -0.05132346 0.03557310
v 0.01216942 -0.04988018 0.04076650
v 0.01556580 -0.04829990 0.03890682
v 0.01497487 -0.04457790 0.01618751
v 0.01362767 -0.04273841 0.01302311
v 0.01414412 -0.04512860 0.02150945
v 0.01461149 -0.04654596 0.02775167
v 0.01415576 -0.04644950 0.04227826
v 0.01295225 -0.04164736 0.04381950
v 0.01073117 -0.03418198 0.00331859
v 0.01147356 -0.03503188 0.00899228
v 0.01409838 -0.03798275 0.01233237
v 0.01210101 -0.03639372 0.04230183
v 0.01402101 -0.03487714 0.03898905
v 0.01554201 -0.03829752 0.04086151
v 0.01053753 -0.02938565 0.00416577
v 0.01091213 -0.03065458 0.00787792
v 0.01345048 -0.03336034 0.01485545
v 0.01419391 -0.03330478 0.02050679
v 0.01419146 -0.03321443 0.02693250
v 0.01348693 -0.03320890 0.03411648
v 0.01022774 -0.00398102 -0.00299572
v 0.01130780 -0.00415015 0.00093139
v 0.01472502 -0.00368927 0.00574940
v 0.01386937 -0.00664532 0.00969091
v 0.01275845 -0.00670822 0.01495606
v 0.01474042 -0.00356127 0.01920109
v 0.01067541 0.00335842 -0.01058389
v 0.01286102 0.00156580 -0.00774919
v 0.01510846 -0.00116486 -0.00364060
v 0.01482188 -0.00211624 0.00226462
v 0.01396635 -0.00119553 0.02323861
v 0.01267969 -0.00007667 0.02818042
v 0.01516744 0.00406974 0.03110129
v 0.01596365 0.00666355 -0.02146505
v 0.01276133 0.00883768 -0.02562239
v 0.01369710 0.00570472 -0.01743153
v 0.01516743 0.00450143 -0.01199054
v 0.01483561 0.00816640 0.03262872
v 0.01147315 0.01700657 -0.04221961
v 0.01417389 0.01461920 -0.03869194
v 0.01431733 0.01306734 -0.03541419
v 0.01420589 0.01165770 -0.02956090
v 0.01132396 0.01514687 -0.01452533
v 0.01498761 0.01459084 -0.01921257
v 0.01589395 0.01293009 -0.01509443
v 0.01505769 0.01275067 -0.00992664
v 0.01075916 0.01503817 -0.00849558
v 0.01502893 0.01306822 -0.00379269
v 0.01150129 0.01500320 -0.00401623
v 0.01437904 0.01514470 -0.00020728
v 0.01417090 0.01239842 0.03457182
v 0.01341763 0.01570174 0.03683584
v 0.01050235 0.02137877 -0.04681547
v 0.01102286 0.02170743 -0.04110186
v 0.01391384 0.01753340 -0.03524975
v 0.01089517 0.02043342 -0.03576656
v 0.01506658 0.01754822 -0.02992422
v 0.01345252 0.01743666 -0.02353656
v 0.01297720 0.01843122 0.00216647
v 0.01086568 0.02160778 0.00484411
v 0.01465848 0.01883418 0.00751149
v 0.01203518 0.02162337 0.00883799
v 0.01429953 0.02129538 0.01174314
v 0.01147313 0.02247031 0.02856106
v 0.01430891 0.02270614 0.02464200
v 0.01436492 0.01918182 0.02900612
v 0.01485838 0.01702469 0.03405945
v 0.01322106 0.02500115 0.01481146
v 0.01115309 0.02828938 0.01738762
v 0.01485029 0.02474876 0.01999763
v 0.01162274 0.02731719 0.02365307
v 0.01002580 0.02686738 0.02862186
v 0.01712638 -0.04697749 0.03429828
v 0.01735520 -0.04059188 0.01591269
v 0.01764896 -0.04163903 0.02163450
v 0.01778046 -0.04227252 0.02907950
v 0.01851771 -0.04221256 0.03505385
v 0.01712075 -0.04298865 0.03968036
v 0.01710436 -0.03579508 0.01681842
v 0.01775398 -0.03646825 0.02191133
v 0.01766008 -0.03641378 0.02853484
v 0.01743657 -0.03747215 0.03550448
v 0.01690086 -0.00308301 0.01070586
v 0.01675212 -0.00373860 0.01541727
v 0.01735451 0.00195184 -0.00918942
v 0.02199258 0.00024315 -0.00836280
v 0.02036711 0.00284299 -0.01218817
v 0.02115912 -0.00120841 -0.00379367
v 0.01987764 -0.00052801 0.00230674
v 0.01836678 0.00154203 0.00935319
v 0.02155357 0.00310561 0.00673349
v 0.01783447 0.00120104 0.01471435
v 0.01801442 0.00219767 0.02044210
v 0.01779376 0.00214737 0.02692273
v 0.01770655 0.01076311 -0.02316963
v 0.02068574 0.00817015 -0.01940693
v 0.02007575 0.00550016 -0.01605626
v 0.02051201 0.00600198 0.01036144
v 0.01867695 0.00896060 0.01556997
v 0.02058539 0.00977808 0.01123506
v 0.02074688 0.00811146 0.02014847
v 0.02154826 0.00592763 0.02408699
v 0.02071085 0.00539673 0.02877595
v 0.01957137 0.00912627 0.03100244
v 0.01661270 0.01559831 -0.03436832
v 0.01707185 0.01465229 -0.02851548
v 0.01704602 0.01469462 -0.02314942
v 0.01986899 0.01121754 -0.01737600
v 0.02044892 0.01130195 -0.01163167
v 0.02033984 0.01127857 -0.00498295
v 0.02017918 0.01205882 0.00161717
v 0.01750751 0.01523050 0.00492397
v 0.02122514 0.01168746 0.00768456
v 0.01794381 0.01540435 0.01105285
v 0.01781707 0.01645301 0.01648508
v 0.02072734 0.01143005 0.02142540
v 0.01872991 0.01481148 0.02195434
v 0.02146875 0.01189400 0.02657552
v 0.01785530 0.01537229 0.02965797
v 0.01643715 0.01532327 0.03491395
v 0.01679462 0.02111416 0.01593972
v 0.01695919 0.01996524 0.02227492
v 0.02448007 0.00431056 -0.01026357
v 0.02715104 0.00161295 -0.00659824
v 0.02593263 0.00013979 -0.00302490
v 0.02462370 0.00357582 0.00249964
v 0.02767164 0.00312441 -0.00158711
v 0.02318564 0.00838462 -0.01480996
v 0.02375859 0.00888809 -0.00909354
v 0.02771224 0.00401267 -0.00458925
v 0.02472941 0.00740665 -0.00249380
v 0.02366639 0.00878955 0.00418009
v 0.02290638 0.00725525 0.00805966
v 0.02285936 0.00950720 0.02338401
v 0.02305745 0.00837389 0.02727110
v 0.02904869 0.00204710 -0.00360955
f 3 2 1
f 5 4 1
f 5 1 2
f 7 6 4
f 7 4 5
f 8 6 7
f 11 10 9
f 13 12 9
f 13 9 10
f 12 13 3
f 1 12 3
f 14 12 1
f 15 1 4
f 14 1 15
f 16 4 6
f 15 4 16
f 6 8 17
f 6 17 16
f 20 19 18
f 18 19 11
f 9 18 11
f 21 18 9
f 22 9 12
f 21 9 22
f 23 12 14
f 22 12 23
f 24 14 15
f 23 14 24
f 25 15 16
f 24 15 25
f 16 17 26
f 16 26 25
f 27 20 18
f 27 18 21
f 27 21 28
f 28 21 22
f 28 22 29
f 29 22 23
f 29 23 30
f 30 23 24
f 30 24 31
f 31 24 25
f 31 25 32
f 32 25 26
f 35 34 33
f 36 33 34
f 37 35 33
f 37 33 36
f 40 39 38
f 42 41 38
f 42 38 39
f 43 41 42
f 46 45 44
f 2 3 44
f 45 2 44
f 47 2 45
f 2 48 5
f 47 48 2
f 38 7 40
f 7 48 40
f 7 5 48
f 7 38 8
f 38 49 8
f 38 41 49
f 41 43 50
f 41 50 49
f 53 52 51
f 10 11 51
f 52 10 51
f 54 10 52
f 44 13 46
f 13 54 46
f 13 10 54
f 13 44 3
f 55 17 49
f 49 17 8
f 49 50 56
f 49 56 55
f 59 58 57
f 61 60 57
f 61 57 58
f 60 61 53
f 60 53 51
f 20 60 51
f 19 20 51
f 19 51 11
f 64 63 62
f 65 64 55
f 64 26 55
f 26 17 55
f 64 62 26
f 65 55 56
f 68 67 66
f 66 67 59
f 57 66 59
f 69 66 57
f 70 57 60
f 69 57 70
f 27 71 20
f 71 60 20
f 71 70 60
f 28 72 27
f 27 72 71
f 29 73 28
f 28 73 72
f 73 29 74
f 29 75 74
f 29 30 75
f 76 30 31
f 76 75 30
f 32 62 63
f 76 32 63
f 31 32 76
f 62 32 26
f 79 78 77
f 77 78 68
f 66 77 68
f 80 77 66
f 81 66 69
f 80 66 81
f 82 69 70
f 81 69 82
f 83 70 71
f 82 70 83
f 84 71 72
f 83 71 84
f 85 72 73
f 84 72 85
f 73 74 86
f 73 86 85
f 89 88 87
f 87 88 79
f 77 87 79
f 90 87 77
f 91 77 80
f 90 77 91
f 92 80 81
f 91 80 92
f 93 81 82
f 92 81 93
f 94 82 83
f 93 82 94
f 95 83 84
f 94 83 95
f 85 97 96
f 95 85 96
f 84 85 95
f 97 85 86
f 100 99 98
f 98 99 89
f 87 98 89
f 101 98 87
f 102 87 90
f 101 87 102
f 103 90 91
f 102 90 103
f 92 105 104
f 103 92 104
f 91 92 103
f 105 92 93
f 105 93 106
f 106 93 94
f 106 94 107
f 107 94 95
f 107 95 108
f 108 95 96
f 111 110 109
f 109 110 100
f 98 109 100
f 112 109 98
f 113 98 101
f 112 98 113
f 114 101 102
f 113 101 114
f 103 116 115
f 114 103 115
f 102 103 114
f 116 103 104
f 111 109 117
f 111 117 118
f 119 109 112
f 117 109 119
f 113 121 120
f 119 113 120
f 112 113 119
f 121 113 114
f 121 114 122
f 122 114 115
f 123 118 117
f 125 124 123
f 117 125 123
f 119 125 117
f 119 120 126
f 119 126 125
f 127 124 125
f 127 125 126
f 130 129 128
f 132 131 128
f 132 128 129
f 134 133 131
f 134 131 132
f 135 133 134
f 138 137 136
f 140 139 136
f 140 136 137
f 141 139 140
f 130 128 142
f 130 142 143
f 144 128 131
f 142 128 144
f 145 131 133
f 144 131 145
f 133 135 146
f 147 133 146
f 145 133 147
f 149 148 147
f 149 147 146
f 150 148 149
f 138 136 151
f 138 151 152
f 139 154 153
f 151 139 153
f 136 139 151
f 154 139 141
f 143 142 155
f 143 155 156
f 35 155 34
f 155 144 34
f 155 142 144
f 34 144 36
f 144 157 36
f 144 145 157
f 147 159 158
f 157 147 158
f 145 147 157
f 161 160 159
f 147 161 159
f 148 161 147
f 148 150 162
f 148 162 161
f 163 152 151
f 163 151 153
f 164 156 155
f 164 155 35
f 37 164 35
f 165 164 37
f 37 36 157
f 166 37 157
f 165 37 166
f 166 157 158
f 167 160 161
f 167 161 162
f 170 169 168
f 39 40 168
f 169 39 168
f 171 39 169
f 39 172 42
f 171 172 39
f 174 173 43
f 42 174 43
f 172 174 42
f 175 173 174
f 178 177 176
f 45 46 176
f 177 45 176
f 179 45 177
f 45 180 47
f 179 180 45
f 168 48 170
f 48 180 170
f 48 47 180
f 48 168 40
f 181 50 173
f 173 50 43
f 173 175 182
f 173 182 181
f 184 183 52
f 184 52 53
f 176 54 178
f 54 183 178
f 54 52 183
f 54 176 46
f 186 185 181
f 185 50 181
f 185 56 50
f 186 181 182
f 188 187 58
f 188 58 59
f 58 189 61
f 187 189 58
f 53 61 184
f 184 61 189
f 191 190 64
f 64 190 63
f 192 64 65
f 192 191 64
f 65 56 185
f 65 185 192
f 194 193 67
f 194 67 68
f 59 67 188
f 188 67 193
f 196 195 75
f 75 195 74
f 197 75 76
f 197 196 75
f 76 63 190
f 76 190 197
f 199 198 78
f 199 78 79
f 68 78 194
f 194 78 198
f 195 86 74
f 200 86 195
f 202 201 88
f 202 88 89
f 79 88 199
f 199 88 201
f 203 96 97
f 204 203 97
f 86 204 97
f 200 204 86
f 206 205 99
f 206 99 100
f 89 99 202
f 202 99 205
f 207 104 105
f 106 208 105
f 105 208 207
f 107 209 106
f 106 209 208
f 108 210 107
f 107 210 209
f 211 210 108
f 211 108 96
f 212 211 96
f 203 212 96
f 212 203 204
f 111 213 110
f 213 214 110
f 214 100 110
f 214 206 100
f 215 115 116
f 104 207 116
f 207 215 116
f 207 216 215
f 217 207 208
f 216 207 217
f 218 208 209
f 217 208 218
f 219 209 210
f 218 209 219
f 210 211 220
f 210 220 219
f 222 221 213
f 111 222 213
f 118 222 111
f 213 221 214
f 223 120 121
f 122 224 121
f 121 224 223
f 115 215 122
f 215 224 122
f 215 225 224
f 226 215 216
f 225 215 226
f 227 216 217
f 226 216 227
f 228 217 218
f 227 217 228
f 229 218 219
f 228 218 229
f 219 220 230
f 219 230 229
f 118 123 231
f 232 118 231
f 222 118 232
f 124 231 123
f 233 126 223
f 223 126 120
f 234 223 224
f 233 223 234
f 235 224 225
f 234 224 235
f 236 225 226
f 235 225 236
f 237 226 227
f 236 226 237
f 238 227 228
f 237 227 238
f 239 228 229
f 238 228 239
f 229 230 240
f 241 229 240
f 239 229 241
f 243 242 241
f 243 241 240
f 244 242 243
f 245 232 231
f 247 245 246
f 246 245 127
f 245 231 127
f 231 124 127
f 126 233 127
f 233 246 127
f 233 248 246
f 249 233 234
f 248 233 249
f 250 234 235
f 249 234 250
f 130 250 129
f 250 236 129
f 250 235 236
f 129 236 132
f 132 236 237
f 132 237 134
f 134 237 238
f 134 238 135
f 238 251 135
f 238 239 251
f 252 239 241
f 251 239 252
f 253 241 242
f 252 241 253
f 242 244 254
f 255 242 254
f 253 242 255
f 256 255 254
f 247 246 257
f 247 257 258
f 138 257 137
f 257 248 137
f 257 246 248
f 137 248 140
f 140 248 249
f 140 249 141
f 249 259 141
f 249 250 259
f 143 259 130
f 130 259 250
f 262 261 260
f 264 263 260
f 260 263 262
f 251 146 135
f 265 263 264
f 146 251 149
f 149 251 252
f 149 252 150
f 252 266 150
f 252 253 266
f 267 253 255
f 266 253 267
f 255 256 268
f 255 268 267
f 269 258 257
f 138 152 257
f 152 270 257
f 270 269 257
f 270 152 271
f 153 154 271
f 154 270 271
f 154 272 270
f 154 141 259
f 273 154 259
f 272 154 273
f 143 156 259
f 156 274 259
f 274 273 259
f 274 156 275
f 274 275 261
f 275 260 261
f 275 276 260
f 260 277 264
f 260 276 277
f 159 278 158
f 278 264 158
f 264 277 158
f 264 278 265
f 159 160 278
f 278 160 279
f 281 280 266
f 280 150 266
f 280 162 150
f 281 266 267
f 281 267 282
f 282 267 268
f 163 271 152
f 271 163 153
f 164 275 156
f 275 164 165
f 275 165 276
f 276 165 166
f 276 166 277
f 277 166 158
f 283 279 160
f 283 160 167
f 167 162 280
f 167 280 283
f 286 285 284
f 287 284 285
f 290 289 288
f 169 170 288
f 289 169 288
f 291 169 289
f 169 292 171
f 291 292 169
f 284 172 286
f 172 292 286
f 172 171 292
f 287 293 284
f 293 172 284
f 293 174 172
f 175 174 293
f 175 293 294
f 296 295 177
f 296 177 178
f 177 297 179
f 295 297 177
f 288 180 290
f 180 297 290
f 180 179 297
f 180 288 170
f 294 182 175
f 298 182 294
f 300 299 183
f 300 183 184
f 178 183 296
f 296 183 299
f 303 302 301
f 185 186 301
f 186 303 301
f 186 304 303
f 186 182 298
f 186 298 304
f 306 305 187
f 306 187 188
f 187 307 189
f 305 307 187
f 184 189 300
f 300 189 307
f 310 309 308
f 312 311 308
f 308 311 310
f 190 191 312
f 191 311 312
f 191 313 311
f 192 301 302
f 313 192 302
f 191 192 313
f 301 192 185
f 194 314 193
f 314 315 193
f 315 188 193
f 315 306 188
f 318 317 316
f 320 319 316
f 316 319 318
f 319 320 309
f 309 320 308
f 320 195 308
f 195 196 308
f 308 196 197
f 308 197 312
f 312 197 190
f 199 321 198
f 314 194 198
f 321 314 198
f 322 314 321
f 315 314 323
f 323 314 322
f 317 324 316
f 326 325 324
f 325 316 324
f 325 320 316
f 325 200 195
f 325 195 320
f 202 327 201
f 321 199 201
f 327 321 201
f 328 321 327
f 321 329 322
f 321 328 329
f 323 322 330
f 330 322 329
f 325 326 331
f 331 326 332
f 331 204 200
f 331 200 325
f 206 333 205
f 327 202 205
f 333 327 205
f 334 327 333
f 327 335 328
f 327 334 335
f 328 336 329
f 328 335 336
f 330 329 337
f 337 329 336
f 339 338 332
f 338 211 332
f 212 331 332
f 212 332 211
f 341 340 339
f 341 331 340
f 331 341 204
f 342 204 341
f 204 342 212
f 340 212 342
f 342 338 340
f 340 338 339
f 331 212 340
f 344 343 342
f 344 342 341
f 346 345 343
f 346 343 344
f 347 345 346
f 214 348 333
f 214 333 206
f 350 334 349
f 334 348 349
f 334 333 348
f 334 350 335
f 335 350 351
f 335 351 336
f 336 351 352
f 336 352 337
f 353 220 338
f 338 220 211
f 354 338 342
f 353 338 354
f 355 342 343
f 354 342 355
f 356 343 345
f 355 343 356
f 345 347 357
f 358 345 357
f 356 345 358
f 359 358 357
f 361 360 221
f 361 221 222
f 214 221 348
f 221 362 348
f 221 360 362
f 348 362 349
f 363 230 353
f 353 230 220
f 364 353 354
f 363 353 364
f 365 354 355
f 364 354 365
f 366 355 356
f 365 355 366
f 367 356 358
f 366 356 367
f 358 359 368
f 358 368 367
f 232 361 222
f 232 369 361
f 363 240 230
f 240 363 243
f 243 363 364
f 243 364 244
f 364 370 244
f 364 365 370
f 371 365 366
f 370 365 371
f 372 366 367
f 371 366 372
f 367 368 373
f 367 373 372
f 374 369 232
f 374 232 245
f 245 247 374
f 374 247 375
f 378 377 376
f 380 379 376
f 376 379 378
f 382 381 380
f 380 381 379
f 384 383 382
f 382 383 381
f 386 385 384
f 384 385 383
f 388 387 386
f 386 387 385
f 388 389 387
f 370 254 244
f 254 370 256
f 370 390 256
f 370 371 390
f 372 392 391
f 390 372 391
f 371 372 390
f 392 372 373
f 258 394 393
f 375 258 393
f 247 258 375
f 396 395 394
f 394 395 393
f 395 396 377
f 396 376 377
f 396 397 376
f 376 398 380
f 376 397 398
f 380 399 382
f 380 398 399
f 399 261 262
f 384 399 262
f 382 399 384
f 384 262 263
f 384 263 386
f 386 263 265
f 400 386 265
f 388 386 400
f 389 388 401
f 401 388 400
f 403 402 390
f 402 256 390
f 402 268 256
f 403 390 391
f 269 394 258
f 394 269 270
f 394 270 396
f 396 270 272
f 396 272 397
f 397 272 273
f 397 273 398
f 398 273 274
f 398 274 399
f 399 274 261
f 278 400 265
f 405 404 279
f 279 404 278
f 404 401 278
f 401 400 278
f 280 281 405
f 281 404 405
f 281 406 404
f 407 281 282
f 407 406 281
f 282 268 402
f 282 402 407
f 283 405 279
f 405 283 280
f 410 409 408
f 285 286 408
f 409 285 408
f 411 285 409
f 413 412 287
f 285 413 287
f 411 413 285
f 414 412 413
f 416 415 289
f 416 289 290
f 289 417 291
f 415 417 289
f 408 292 410
f 292 417 410
f 292 291 417
f 292 408 286
f 412 293 287
f 294 293 412
f 414 294 412
f 418 294 414
f 420 419 295
f 420 295 296
f 295 421 297
f 419 421 295
f 290 297 416
f 416 297 421
f 418 298 294
f 422 298 418
f 300 423 299
f 423 424 299
f 424 296 299
f 424 420 296
f 427 426 425
f 429 428 425
f 425 428 427
f 431 430 429
f 429 430 428
f 302 303 431
f 303 430 431
f 303 432 430
f 433 303 304
f 433 432 303
f 304 298 422
f 304 422 433
f 306 434 305
f 435 307 305
f 435 305 434
f 423 300 307
f 435 423 307
f 436 423 435
f 424 423 437
f 423 438 437
f 423 436 438
f 440 439 438
f 438 439 437
f 439 440 426
f 426 440 425
f 440 309 425
f 309 310 425
f 425 310 311
f 425 311 429
f 429 311 313
f 429 313 431
f 431 313 302
f 315 441 434
f 315 434 306
f 434 442 435
f 434 441 442
f 435 443 436
f 435 442 443
f 443 317 318
f 438 443 318
f 436 443 438
f 438 318 319
f 438 319 440
f 440 319 309
f 323 444 441
f 323 441 315
f 441 445 442
f 441 444 445
f 442 446 443
f 442 445 446
f 447 324 317
f 443 447 317
f 446 447 443
f 447 326 324
f 330 448 444
f 330 444 323
f 444 449 445
f 444 448 449
f 451 446 450
f 446 449 450
f 446 445 449
f 446 451 447
f 447 451 452
f 332 326 447
f 453 332 447
f 452 453 447
f 332 453 454
f 456 455 454
f 456 454 453
f 457 455 456
f 337 458 448
f 337 448 330
f 460 449 459
f 449 458 459
f 449 448 458
f 449 460 450
f 454 339 332
f 339 454 341
f 341 454 455
f 457 461 455
f 461 341 455
f 461 344 341
f 344 462 346
f 461 462 344
f 347 346 462
f 347 462 463
f 349 464 350
f 465 351 350
f 465 350 464
f 351 465 466
f 467 351 466
f 352 351 467
f 337 352 458
f 352 468 458
f 352 467 468
f 458 468 459
f 357 347 469
f 347 470 469
f 347 463 470
f 469 359 357
f 361 471 360
f 360 471 472
f 473 360 472
f 362 360 473
f 349 362 464
f 362 474 464
f 362 473 474
f 464 474 465
f 465 474 475
f 465 475 466
f 470 476 469
f 359 469 476
f 477 359 476
f 368 359 477
f 479 478 471
f 361 479 471
f 369 479 361
f 471 478 472
f 482 481 480
f 484 483 480
f 480 483 482
f 486 485 484
f 484 485 483
f 488 487 486
f 486 487 485
f 490 489 488
f 488 489 487
f 490 491 489
f 494 493 492
f 477 494 492
f 373 477 492
f 368 477 373
f 495 479 369
f 495 369 374
f 497 496 375
f 496 374 375
f 496 495 374
f 499 498 497
f 497 498 496
f 498 499 481
f 481 499 480
f 499 377 480
f 377 378 480
f 480 378 379
f 480 379 484
f 484 379 381
f 484 381 486
f 486 381 383
f 486 383 488
f 488 383 385
f 488 385 490
f 500 491 490
f 385 500 490
f 387 500 385
f 502 501 389
f 501 387 389
f 501 500 387
f 502 503 501
f 492 493 392
f 493 391 392
f 493 504 391
f 492 392 373
f 393 497 375
f 497 393 395
f 497 395 499
f 499 395 377
f 401 505 502
f 401 502 389
f 503 502 506
f 502 507 506
f 502 505 507
f 509 508 507
f 507 508 506
f 402 403 509
f 403 508 509
f 403 510 508
f 403 391 504
f 403 504 510
f 404 505 401
f 505 404 406
f 505 406 507
f 507 406 407
f 507 407 509
f 509 407 402
f 410 511 409
f 409 511 512
f 513 409 512
f 411 409 513
f 513 515 514
f 413 513 514
f 411 513 413
f 514 414 413
f 517 516 415
f 517 415 416
f 415 518 417
f 516 518 415
f 410 417 511
f 417 519 511
f 417 518 519
f 511 519 512
f 515 520 514
f 414 514 520
f 521 414 520
f 418 414 521
f 420 522 419
f 523 421 419
f 523 419 522
f 523 524 421
f 524 416 421
f 524 517 416
f 527 526 525
f 521 527 525
f 422 521 525
f 418 521 422
f 424 528 522
f 424 522 420
f 522 529 523
f 522 528 529
f 427 530 426
f 530 523 426
f 523 529 426
f 523 530 524
f 531 427 428
f 531 530 427
f 532 428 430
f 532 531 428
f 533 430 432
f 533 532 430
f 433 525 526
f 533 433 526
f 432 433 533
f 525 433 422
f 437 528 424
f 528 437 439
f 528 439 529
f 529 439 426
f 450 534 451
f 535 452 451
f 535 451 534
f 452 535 536
f 537 452 536
f 453 452 537
f 453 538 456
f 537 538 453
f 457 456 538
f 457 538 539
f 459 540 460
f 540 541 460
f 460 541 450
f 541 542 450
f 542 534 450
f 534 542 535
f 535 542 543
f 535 543 536
f 539 544 457
f 457 544 461
f 461 545 462
f 544 545 461
f 463 462 545
f 463 545 546
f 548 547 467
f 548 467 466
f 467 549 468
f 547 549 467
f 459 468 540
f 468 550 540
f 468 549 550
f 540 550 541
f 546 470 463
f 551 470 546
f 472 552 473
f 473 552 553
f 554 473 553
f 474 473 554
f 474 555 475
f 554 555 474
f 466 475 548
f 548 475 555
f 558 557 556
f 560 559 556
f 556 559 558
f 562 561 560
f 560 561 559
f 562 563 561
f 551 564 470
f 470 564 476
f 477 476 564
f 477 564 565
f 479 566 478
f 552 472 478
f 566 552 478
f 567 552 566
f 553 552 568
f 552 569 568
f 552 567 569
f 481 482 569
f 482 568 569
f 482 570 568
f 571 482 483
f 571 570 482
f 485 556 557
f 571 485 557
f 483 485 571
f 556 485 487
f 556 487 560
f 560 487 489
f 560 489 562
f 573 572 491
f 491 572 489
f 572 563 489
f 563 562 489
f 575 574 573
f 573 574 572
f 575 576 574
f 579 578 577
f 493 494 577
f 494 579 577
f 494 580 579
f 494 477 565
f 494 565 580
f 495 566 479
f 566 495 496
f 566 496 567
f 567 496 498
f 567 498 569
f 569 498 481
f 500 573 491
f 573 500 501
f 573 501 575
f 582 581 503
f 503 581 501
f 581 576 501
f 576 575 501
f 584 583 582
f 582 583 581
f 583 584 578
f 584 577 578
f 584 585 577
f 585 504 493
f 585 493 577
f 506 582 503
f 582 506 508
f 582 508 584
f 584 508 510
f 584 510 585
f 585 510 504
f 512 586 513
f 586 515 513
f 517 587 516
f 588 518 516
f 588 516 587
f 589 519 518
f 589 518 588
f 586 512 519
f 589 586 519
f 590 586 589
f 591 520 515
f 586 591 515
f 590 591 586
f 591 521 520
f 524 592 587
f 524 587 517
f 587 593 588
f 587 592 593
f 588 594 589
f 588 593 594
f 589 595 590
f 589 594 595
f 595 526 527
f 591 595 527
f 590 595 591
f 591 527 521
f 530 592 524
f 592 530 531
f 592 531 593
f 593 531 532
f 593 532 594
f 594 532 533
f 594 533 595
f 595 533 526
f 536 596 537
f 597 538 537
f 597 537 596
f 597 539 538
f 600 599 598
f 542 541 598
f 599 542 598
f 601 542 599
f 542 602 543
f 601 602 542
f 543 602 536
f 602 603 536
f 603 596 536
f 603 602 604
f 596 605 597
f 596 603 605
f 606 544 539
f 597 606 539
f 605 606 597
f 607 545 544
f 607 544 606
f 607 546 545
f 548 608 547
f 547 608 609
f 610 547 609
f 549 547 610
f 598 550 600
f 550 610 600
f 550 549 610
f 550 598 541
f 604 611 603
f 613 612 611
f 612 603 611
f 612 605 603
f 615 606 614
f 606 612 614
f 606 605 612
f 606 615 607
f 607 615 616
f 546 607 616
f 617 546 616
f 551 546 617
f 553 618 554
f 619 555 554
f 619 554 618
f 608 548 555
f 619 608 555
f 620 608 619
f 558 621 557
f 621 608 557
f 608 620 557
f 608 621 609
f 622 558 559
f 622 621 558
f 623 559 561
f 623 622 559
f 625 624 563
f 624 561 563
f 624 623 561
f 627 626 625
f 625 626 624
f 626 627 613
f 627 612 613
f 627 628 612
f 614 612 629
f 612 630 629
f 612 628 630
f 632 631 630
f 630 631 629
f 632 633 564
f 617 632 564
f 551 617 564
f 632 617 631
f 633 565 564
f 568 618 553
f 618 568 570
f 618 570 619
f 619 570 571
f 619 571 620
f 620 571 557
f 572 625 563
f 625 572 574
f 625 574 627
f 627 574 576
f 634 627 576
f 628 627 634
f 628 635 630
f 628 634 635
f 635 578 579
f 632 635 579
f 630 635 632
f 632 579 580
f 632 580 633
f 633 580 565
f 581 634 576
f 634 581 583
f 634 583 635
f 635 583 578
f 600 636 599
f 599 636 637
f 638 599 637
f 601 599 638
f 638 640 639
f 602 638 639
f 601 638 602
f 639 604 602
f 609 641 610
f 636 600 610
f 641 636 610
f 642 636 641
f 637 636 643
f 636 644 643
f 636 642 644
f 643 644 640
f 644 639 640
f 644 645 639
f 646 611 604
f 639 646 604
f 645 646 639
f 646 613 611
f 614 647 615
f 648 616 615
f 648 615 647
f 648 617 616
f 621 641 609
f 641 621 622
f 641 622 642
f 642 622 623
f 642 623 644
f 644 623 624
f 644 624 645
f 645 624 626
f 645 626 646
f 646 626 613
f 629 647 614
f 647 629 631
f 647 631 648
f 648 631 617
f 637 649 638
f 649 640 638
f 643 649 637
f 649 643 640

