# https://github.com/mikedh/trimesh
v -0.04924081 0.00525954 -0.01443241
v -0.04695803 0.00142651 -0.01499677
v -0.04701450 0.00413959 -0.01868643
v -0.04906223 0.00550562 -0.00770755
v -0.04686414 0.00123916 -0.01084499
v -0.04651523 0.00324450 -0.00604625
v -0.04931445 0.01010788 -0.01993057
v -0.04620074 0.00695582 -0.02238475
v -0.04643360 0.01081601 -0.02388238
v -0.05031299 0.01112934 -0.01440982
v -0.05028982 0.00936650 -0.00978105
v -0.04743816 0.00697728 -0.00328489
v -0.04901805 0.01098730 -0.00439345
v -0.04510982 0.00986175 -0.00074089
v -0.04971227 0.01670649 -0.02091661
v -0.04656133 0.01666951 -0.02408618
v -0.05037199 0.01674987 -0.01525642
v -0.04969993 0.01588763 -0.00889783
v -0.04765664 0.01608992 -0.00475780
v -0.04624973 0.01396733 -0.00217722
v -0.04941360 0.02264853 -0.02075536
v -0.04545933 0.02325483 -0.02379070
v -0.05046038 0.02218691 -0.01610919
v -0.04938373 0.02330629 -0.01066293
v -0.04595190 0.02224294 -0.00563074
v -0.04778981 0.02660722 -0.02070038
v -0.04631016 0.02963758 -0.01886890
v -0.04912774 0.02738646 -0.01573235
v -0.04763941 0.02829736 -0.01138496
v -0.04625379 0.02649343 -0.00825652
v -0.04516177 0.03096516 -0.01437855
v -0.04302342 -0.00716691 -0.00796109
v -0.03903705 -0.01055284 -0.00924395
v -0.04122513 -0.00763838 -0.01252447
v -0.04274869 -0.00715929 -0.00269617
v -0.04024822 -0.01035882 -0.00296316
v -0.04013181 -0.00826901 0.00058209
v -0.04382909 -0.00190857 -0.01459855
v -0.04070154 -0.00520105 -0.01530201
v -0.04061690 -0.00194626 -0.01846525
v -0.04452494 -0.00103313 -0.00787264
v -0.04321853 -0.00207539 -0.00350182
v -0.04092979 -0.00346519 0.00043135
v -0.04344543 0.00292418 -0.02071448
v -0.03979935 0.00084183 -0.02212621
v -0.04102543 0.00491474 -0.02397472
v -0.04456335 0.00393842 -0.00295503
v -0.04140546 0.00372534 0.00039082
v -0.04079059 0.01029372 -0.02477423
v -0.04081548 0.00966569 0.00130884
v -0.04097329 0.01658630 -0.02462682
v -0.04435514 0.01837483 -0.00267110
v -0.04109353 0.01581703 0.00038508
v -0.04017673 0.02206330 -0.02458217
v -0.04324732 0.02229283 -0.00270002
v -0.03997047 0.02247631 -0.00075106
v -0.04464842 0.02835139 -0.02211332
v -0.03998407 0.02893780 -0.02395459
v -0.04442207 0.02952404 -0.00959201
v -0.04065156 0.02909230 -0.00560032
v -0.04062839 0.02597612 -0.00260990
v -0.04187960 0.03197191 -0.01971386
v -0.04076789 0.03308873 -0.01420413
v -0.04074347 0.03216012 -0.00949865
v -0.03608809 -0.02004759 -0.00305659
v -0.03436112 -0.02294863 -0.00347850
v -0.03374247 -0.02096048 -0.00496288
v -0.03474028 -0.02103118 -0.00121078
v -0.03366724 -0.01781670 -0.00321437
v -0.03836367 -0.00739541 -0.01552067
v -0.03434149 -0.01022829 -0.01447682
v -0.03464330 -0.00748831 -0.01838798
v -0.03359618 -0.01187049 -0.01015952
v -0.03543691 -0.01188646 -0.00413980
v -0.03741778 -0.00613869 0.00364589
v -0.03559067 -0.01073113 0.00184654
v -0.03308818 -0.00888040 0.00561512
v -0.03722041 -0.00352624 -0.02053965
v -0.03263074 -0.00492353 -0.02154235
v -0.03547097 -0.00065234 -0.02367094
v -0.03778561 -0.00024264 0.00348576
v -0.03393209 -0.00317681 0.00582212
v -0.03427308 0.00399449 -0.02467842
v -0.03773117 0.00591072 0.00344261
v -0.03389344 0.00283053 0.00566572
v -0.03428088 0.01024039 -0.02453714
v -0.03780779 0.01198373 0.00341745
v -0.03391499 0.00905573 0.00568568
v -0.03461256 0.01662307 -0.02439928
v -0.03695293 0.01718189 0.00303046
v -0.03346277 0.01578455 0.00554701
v -0.03480842 0.02295440 -0.02446786
v -0.03522148 0.02258487 0.00129059
v -0.03390994 0.02031627 0.00390481
v -0.03405491 0.02841356 -0.02462766
v -0.03738212 0.02919618 -0.00256685
v -0.03542526 0.02765749 -0.00069857
v -0.03794372 0.03463176 -0.02180314
v -0.03398800 0.03434801 -0.02394813
v -0.03783064 0.03542823 -0.01684052
v -0.03726018 0.03533222 -0.01072562
v -0.03551190 0.03415775 -0.00638235
v -0.03328012 0.03159275 -0.00289656
v -0.03411973 0.03753630 -0.01997624
v -0.03387039 0.03777949 -0.01381896
v -0.03318890 0.03710712 -0.00878091
v -0.03165197 -0.02579731 -0.00097111
v -0.02667466 -0.02904591 -0.00237014
v -0.02979803 -0.02523029 -0.00517151
v -0.03059239 -0.02541077 0.00372746
v -0.02881614 -0.02877777 0.00217706
v -0.02750796 -0.02681560 0.00539900
v -0.02884207 -0.02016555 -0.00661913
v -0.03173762 -0.01934854 0.00220420
v -0.02786692 -0.02171291 0.00603213
v -0.03159779 -0.01448438 -0.00719822
v -0.02661150 -0.01655893 -0.00927037
v -0.02901303 -0.01350261 -0.01140410
v -0.03266216 -0.01421392 -0.00110333
v -0.03188057 -0.01342157 0.00368906
v -0.02837012 -0.01455239 0.00601933
v -0.02784451 -0.01108939 -0.01470089
v -0.02905365 -0.00759605 -0.01835388
v -0.02816981 -0.00818065 0.00710488
v -0.02782385 -0.00433703 -0.02102904
v -0.02904807 -0.00096517 -0.02366200
v -0.02932386 -0.00178980 0.00714182
v -0.02880140 0.00476162 -0.02453569
v -0.02852252 0.00482751 0.00695506
v -0.02799494 0.01023401 -0.02440678
v -0.02928821 0.01133830 0.00640971
v -0.02822892 0.01656871 -0.02433010
v -0.02755746 0.01580658 0.00641228
v -0.02855271 0.02287784 -0.02437964
v -0.03118911 0.02381269 0.00299740
v -0.02880828 0.02100869 0.00550727
v -0.02876659 0.02927731 -0.02464647
v -0.02896198 0.02877452 0.00035078
v -0.02663346 0.02556879 0.00336716
v -0.02735791 0.03479546 -0.02414368
v -0.02990450 0.03537327 -0.00530093
v -0.02746182 0.03310710 -0.00222032
v -0.02872296 0.03794744 -0.02112114
v -0.02856700 0.03858859 -0.01540390
v -0.02795846 0.03788026 -0.00858582
v -0.02111263 -0.02922328 -0.00324132
v -0.02355816 -0.02604727 -0.00567193
v -0.02273478 -0.03002768 0.00180320
v -0.02259685 -0.02558260 0.00632731
v -0.02208406 -0.02104529 -0.00705185
v -0.02318818 -0.01922034 0.00663020
v -0.02079261 -0.01706886 -0.00923270
v -0.02382658 -0.01396798 -0.01231659
v -0.02192739 -0.01461295 0.00739534
v -0.02069004 -0.01100470 -0.01533373
v -0.02305255 -0.00800005 -0.01746019
v -0.02323970 -0.01058412 0.00911966
v -0.02523552 -0.00609740 0.00952324
v -0.02102065 -0.00916452 0.01166775
v -0.02470043 -0.00125327 -0.02180662
v -0.02253793 -0.00377730 -0.01920783
v -0.02563370 -0.00036074 0.00947887
v -0.02191197 -0.00322075 0.01202237
v -0.02031130 0.00069768 -0.02129999
v -0.02345751 0.00365352 -0.02385144
v -0.02465116 0.00463994 0.00897874
v -0.02144752 0.00352086 0.01170278
v -0.02184270 0.01012817 -0.02445332
v -0.02332445 0.01066792 0.00712244
v -0.02163110 0.00777707 0.00983023
v -0.02191827 0.01637506 -0.02437502
v -0.02306866 0.01748217 0.00635737
v -0.02227352 0.02273713 -0.02441417
v -0.02159532 0.02280993 0.00574391
v -0.02249212 0.02912954 -0.02463296
v -0.02254267 0.02974075 0.00143599
v -0.02185479 0.02680458 0.00379328
v -0.02148955 0.03387661 -0.02363572
v -0.02533397 0.03580164 -0.00353872
v -0.02293652 0.03376433 -0.00069392
v -0.02293893 0.03738385 -0.02098200
v -0.02242920 0.03850419 -0.01543623
v -0.02207889 0.03849495 -0.00894290
v -0.02150942 0.03729399 -0.00338943
v -0.01933091 -0.03196330 0.00522300
v -0.01455441 -0.03509008 0.00378350
v -0.01594284 -0.03191006 0.00048240
v -0.01849448 -0.03144318 0.00988999
v -0.01659796 -0.03479896 0.00836565
v -0.01529056 -0.03277667 0.01178300
v -0.01630347 -0.02905979 -0.00225455
v -0.01764578 -0.02593105 -0.00520294
v -0.01897065 -0.02663403 0.00871222
v -0.01586505 -0.02800933 0.01206569
v -0.01667128 -0.02094226 -0.00622263
v -0.01724132 -0.02030383 0.00669899
v -0.01464032 -0.02311859 0.00876495
v -0.01471890 -0.01710530 -0.00835759
v -0.01768596 -0.01407731 -0.01231855
v -0.01556537 -0.01654233 0.00848193
v -0.01960440 -0.01336838 0.00998657
v -0.01568866 -0.01358025 0.01170887
v -0.01460455 -0.01115890 -0.01540614
v -0.01748217 -0.00719004 -0.01757301
v -0.01630749 -0.00805008 0.01289642
v -0.01554624 -0.00185280 -0.01879708
v -0.01652251 -0.00157105 0.01278133
v -0.01573614 0.00203181 -0.02079623
v -0.01682494 0.00519866 -0.02350627
v -0.01569060 0.00389970 0.01265564
v -0.01652333 0.01090276 -0.02449234
v -0.01883352 0.01130536 0.00897326
v -0.01620772 0.00965896 0.01180709
v -0.01569322 0.01626451 -0.02446208
v -0.01704475 0.01692101 0.00711005
v -0.01537937 0.01408236 0.00984432
v -0.01590815 0.02271678 -0.02458798
v -0.01595330 0.02275533 0.00633735
v -0.01558099 0.02897646 -0.02404000
v -0.01874112 0.02996108 0.00298884
v -0.01637205 0.02712113 0.00544009
v -0.01688567 0.03304553 -0.02199892
v -0.01905293 0.03570674 -0.02071333
v -0.01460071 0.03527203 -0.01877795
v -0.01743610 0.03435028 0.00044375
v -0.01416911 0.03180422 0.00345227
v -0.01659366 0.03776794 -0.01555323
v -0.01593634 0.03839955 -0.00884806
v -0.01581249 0.03768570 -0.00328052
v -0.00855501 -0.03540773 0.00362724
v -0.01095817 -0.03287224 0.00037749
v -0.01165188 -0.03539731 0.00889024
v -0.01024443 -0.03188593 0.01242888
v -0.01324629 -0.02439381 -0.00231049
v -0.00971717 -0.02759988 -0.00045197
v -0.01024524 -0.02665077 0.01238778
v -0.01346779 -0.02006634 -0.00367221
v -0.01011883 -0.02296747 0.00404318
v -0.01278764 -0.02052879 0.00219345
v -0.00941141 -0.02341471 0.00972179
v -0.00887110 -0.01649894 -0.00862973
v -0.01164335 -0.01426120 -0.01242400
v -0.01000568 -0.01774621 -0.00255464
v -0.01004968 -0.01785685 0.00484014
v -0.01050657 -0.01657674 0.00963380
v -0.00976934 -0.01366565 0.01215057
v -0.00855809 -0.01139496 -0.01542199
v -0.01133344 -0.00737280 -0.01760461
v -0.01001356 -0.00799271 0.01280295
v -0.00911845 -0.00277207 -0.01824512
v -0.01019826 -0.00154323 0.01256603
v -0.01265962 0.00494863 -0.02167203
v -0.00977633 0.00321663 -0.01893205
v -0.01022451 0.00473088 0.01250468
v -0.00912296 0.00770000 -0.02080093
v -0.01075308 0.01035502 -0.02366787
v -0.00941227 0.00994376 0.01257379
v -0.01041568 0.01715011 -0.02461619
v -0.01260360 0.01752369 0.00897424
v -0.01052211 0.01496342 0.01164277
v -0.00955701 0.02259475 -0.02467558
v -0.01141691 0.02244481 0.00695450
v -0.00822094 0.01940598 0.00945782
v -0.00871369 0.02745471 -0.02350476
v -0.00991176 0.02821098 0.00569168
v -0.01201178 0.03177941 -0.02148255
v -0.00872153 0.03437622 -0.01835785
v -0.01122880 0.03531291 0.00054123
v -0.00833129 0.03214009 0.00351874
v -0.01008870 0.03776911 -0.01440216
v -0.00977714 0.03845149 -0.00874526
v -0.00964295 0.03764582 -0.00323917
v -0.00229244 -0.03540157 0.00353859
v -0.00530159 -0.03195636 0.00009147
v -0.00523527 -0.03536163 0.00880703
v -0.00379704 -0.03186351 0.01221207
v -0.00237445 -0.02673548 0.00005505
v -0.00390347 -0.02673724 0.01211256
v -0.00389378 -0.02325540 0.00353411
v -0.00403031 -0.02326962 0.00872296
v -0.00310137 -0.01621340 -0.00782290
v -0.00438486 -0.01350283 -0.01176467
v -0.00395475 -0.01728627 -0.00314324
v -0.00357730 -0.01734190 0.00327583
v -0.00481873 -0.01676080 0.00896470
v -0.00346027 -0.01374428 0.01206126
v -0.00344558 -0.01056731 -0.01494181
v -0.00467665 -0.00704753 -0.01745094
v -0.00372255 -0.00819473 0.01257695
v -0.00461082 -0.00106693 -0.01821858
v -0.00393727 -0.00188051 0.01233115
v -0.00292934 0.00356139 -0.01816681
v -0.00388769 0.00441736 0.01235958
v -0.00631030 0.01119220 -0.02169375
v -0.00347344 0.00952416 -0.01894452
v -0.00397166 0.01066443 0.01248329
v -0.00275084 0.01398880 -0.02087543
v -0.00530593 0.01608877 -0.02363384
v -0.00339677 0.01676183 0.01192621
v -0.00414910 0.02223384 -0.02349216
v -0.00481859 0.02399996 0.00734693
v -0.00354087 0.02065591 0.00994060
v -0.00452382 0.02626882 -0.02187270
v -0.00746386 0.02995243 -0.02102313
v -0.00330291 0.02873909 -0.01934491
v -0.00465500 0.02887461 0.00560258
v -0.00307272 0.03391515 -0.01743240
v -0.00503291 0.03524290 0.00062327
v -0.00217671 0.03201782 0.00358295
v -0.00443115 0.03746078 -0.01454545
v -0.00362094 0.03856397 -0.00888954
v -0.00339362 0.03769368 -0.00323249
v 0.00346518 -0.03499850 0.00424405
v 0.00050199 -0.03185772 0.00047337
v 0.00186673 -0.03559221 0.00944437
v 0.00203990 -0.03194874 0.01325010
v 0.00228623 -0.02729464 0.00068649
v 0.00153539 -0.02666377 0.01278247
v 0.00190009 -0.02357087 0.00346788
v 0.00243070 -0.02301317 0.00968690
v -0.00105832 -0.01422887 -0.00915724
v 0.00153571 -0.01467471 -0.00697952
v 0.00271513 -0.01678072 -0.00303015
v 0.00250523 -0.01746685 0.00332534
v 0.00132519 -0.01678968 0.00895053
v 0.00265584 -0.01379942 0.01202825
v -0.00030208 -0.00745934 -0.01569611
v 0.00184994 -0.00845724 -0.01275926
v 0.00299486 -0.01177026 -0.00944420
v 0.00262854 -0.00865671 0.01314350
v 0.00325257 -0.00467486 -0.01481083
v 0.00135196 -0.00167868 -0.01748077
v 0.00145709 -0.00206584 0.01306724
v 0.00162636 0.00531472 -0.01821826
v 0.00220790 0.00486869 0.01295290
v 0.00338443 0.00969897 -0.01825564
v 0.00141869 0.01144857 0.01242945
v -0.00078321 0.01835448 -0.02134703
v 0.00224650 0.01506859 -0.01884883
v 0.00313293 0.01589920 0.01248145
v -0.00139353 0.02317032 -0.02099868
v 0.00241957 0.02210030 -0.01898510
v -0.00048469 0.02369051 0.00916540
v 0.00183959 0.02109947 0.01172527
v 0.00277241 0.02899763 -0.01795222
v 0.00071416 0.02800042 0.00658701
v 0.00384584 0.02567207 0.00977592
v 0.00253862 0.03295988 -0.01516686
v -0.00056478 0.03578333 -0.01463503
v 0.00330517 0.03481388 -0.01188217
v 0.00090550 0.03520854 0.00021941
v 0.00409315 0.03205128 0.00266194
v 0.00103239 0.03734828 -0.01020833
v 0.00204229 0.03728153 -0.00445043
v 0.00492907 -0.03067993 0.00257055
v 0.00791365 -0.03278144 0.00540274
v 0.00909248 -0.03557165 0.00931348
v 0.00570855 -0.03068012 0.01613646
v 0.00740985 -0.03498125 0.01448791
v 0.00972295 -0.03273355 0.01802564
v 0.00528222 -0.02580786 0.00353363
v 0.00948135 -0.02722967 0.00583744
v 0.00519884 -0.02580471 0.01514872
v 0.00903653 -0.02787513 0.01828405
v 0.00791931 -0.02298896 0.00897513
v 0.00856565 -0.02355226 0.01523956
v 0.00960920 -0.01674111 -0.00230240
v 0.00669485 -0.01428467 -0.00615808
v 0.00847648 -0.01756744 0.00326429
v 0.00727823 -0.01683172 0.00894126
v 0.00926435 -0.01384880 0.01267059
v 0.00973932 -0.01116263 -0.00912653
v 0.00749006 -0.00800018 -0.01124972
v 0.00792054 -0.01050719 0.01531367
v 0.00548950 -0.00643709 0.01568363
v 0.00956194 -0.00814094 0.01760612
v 0.00598103 -0.00109585 -0.01563373
v 0.00878880 -0.00288518 -0.01293012
v 0.00503863 -0.00047839 0.01560286
v 0.00882557 -0.00324097 0.01825116
v 0.00950988 0.00169779 -0.01478692
v 0.00680937 0.00402946 -0.01735505
v 0.00600430 0.00477633 0.01506795
v 0.00866304 0.00269060 0.01776417
v 0.00794270 0.01044123 -0.01750930
v 0.00686972 0.01021175 0.01299225
v 0.00994983 0.00717302 0.01552698
v 0.00780338 0.01648503 -0.01752260
v 0.00842606 0.01676270 0.01253151
v 0.00766485 0.02277844 -0.01773507
v 0.00828083 0.02231855 0.01210637
v 0.00837855 0.02780949 -0.01728435
v 0.00650339 0.02901771 0.00639603
v 0.00972676 0.02614623 0.00895847
v 0.00807876 0.03117075 -0.01482758
v 0.00834235 0.03278650 -0.00948908
v 0.00540123 0.03517519 -0.00708709
v 0.00815891 0.03282440 -0.00266341
v 0.00493328 0.03477476 -0.00206979
v 0.00971087 0.03096322 0.00208668
v 0.01606271 -0.03534456 0.00998304
v 0.01295101 -0.03193974 0.00657806
v 0.01319726 -0.03538221 0.01521264
v 0.01453579 -0.03187997 0.01865957
v 0.01571584 -0.02658475 0.00648735
v 0.01446405 -0.02658991 0.01866870
v 0.01429737 -0.02311432 0.00999146
v 0.01431548 -0.02305518 0.01520249
v 0.01527797 -0.01637399 -0.00162723
v 0.01399123 -0.01354013 -0.00558758
v 0.01440493 -0.01756143 0.00316336
v 0.01324989 -0.01680636 0.00874928
v 0.01626297 -0.01437008 0.01261097
v 0.01494931 -0.01042776 -0.00881946
v 0.01370629 -0.00678844 -0.01126594
v 0.01314920 -0.01121974 0.01576593
v 0.01442117 -0.00720203 0.01824785
v 0.01473353 -0.00180276 -0.01218023
v 0.01417755 -0.00152092 0.01904104
v 0.01134478 0.00617454 -0.01517189
v 0.01450499 0.00277301 -0.01275152
v 0.01406070 0.00397455 0.01812521
v 0.01163037 0.01191896 -0.01514299
v 0.01542735 0.00897432 -0.01281988
v 0.01311403 0.01124593 0.01311240
v 0.01576336 0.00752745 0.01550538
v 0.01145151 0.01810020 -0.01526634
v 0.01526622 0.01507068 -0.01286342
v 0.01454462 0.01673528 0.01258666
v 0.01149747 0.02444382 -0.01547496
v 0.01528993 0.02138687 -0.01307332
v 0.01395868 0.02222780 0.01179897
v 0.01160267 0.02925289 -0.01466574
v 0.01576422 0.02740312 -0.01211181
v 0.01096843 0.02864638 0.00457810
v 0.01394427 0.02940065 0.00088480
v 0.01528149 0.02693996 0.00315071
v 0.01539078 0.02499883 0.00835062
v 0.01342727 0.03123015 -0.01032899
v 0.01370715 0.03121957 -0.00377946
v 0.02226455 -0.03536395 0.00972678
v 0.01906031 -0.03177699 0.00634804
v 0.01937177 -0.03533155 0.01513487
v 0.02077500 -0.03179807 0.01857861
v 0.02187356 -0.02658685 0.00626070
v 0.02071255 -0.02657711 0.01856706
v 0.02035710 -0.02306020 0.00983810
v 0.02043803 -0.02307911 0.01508726
v 0.01721435 -0.01435123 -0.00307101
v 0.01986855 -0.01480672 -0.00088216
v 0.02110726 -0.01686913 0.00316678
v 0.02018598 -0.01687507 0.00946721
v 0.02143104 -0.01476698 0.01352695
v 0.01820141 -0.00736650 -0.00960424
v 0.02040907 -0.00853394 -0.00670497
v 0.02137791 -0.01185405 -0.00329803
v 0.01903258 -0.01151739 0.01576627
v 0.02101680 -0.00817186 0.01833540
v 0.02183646 -0.00464487 -0.00869636
v 0.01909405 -0.00217644 -0.01121007
v 0.02033095 -0.00147955 0.01894116
v 0.02010995 0.00430561 -0.01134475
v 0.02026360 0.00388647 0.01802187
v 0.01994245 0.01045124 -0.01138719
v 0.01920654 0.01111873 0.01313440
v 0.02196878 0.00743085 0.01554929
v 0.01988736 0.01668406 -0.01161379
v 0.02031297 0.01691025 0.01202831
v 0.02013487 0.02254026 -0.01145966
v 0.01776984 0.02210965 0.01023454
v 0.01954769 0.02342202 0.00704805
v 0.02248551 0.02021851 0.00877372
v 0.02026318 0.02608866 -0.00944147
v 0.01776557 0.02918738 -0.00739363
v 0.02047571 0.02597967 -0.00377533
v 0.01717716 0.02867010 -0.00236999
v 0.01995266 0.02487891 0.00288551
v 0.02854663 -0.03547088 0.00966826
v 0.02532422 -0.03188500 0.00619062
v 0.02559712 -0.03543305 0.01494774
v 0.02701218 -0.03194859 0.01845573
v 0.02774590 -0.02741285 0.00670290
v 0.02685416 -0.02675092 0.01849357
v 0.02616156 -0.02361539 0.00977326
v 0.02649730 -0.02332276 0.01496489
v 0.02816591 -0.01670034 0.00384227
v 0.02598332 -0.01368500 -0.00001214
v 0.02686101 -0.01749720 0.00942249
v 0.02357584 -0.01341526 0.01624877
v 0.02598135 -0.01632679 0.01434670
v 0.02739658 -0.01354551 0.01777551
v 0.02726400 -0.01024310 -0.00254092
v 0.02649083 -0.00734413 -0.00488583
v 0.02682851 -0.00797565 0.01884660
v 0.02370135 -0.00001156 -0.00904046
v 0.02592989 -0.00302372 -0.00671840
v 0.02654559 -0.00160698 0.01885279
v 0.02387169 0.00586243 -0.00910421
v 0.02773551 0.00281417 -0.00681861
v 0.02658479 0.00377609 0.01807464
v 0.02367532 0.01199830 -0.00929053
v 0.02760378 0.00894364 -0.00696410
v 0.02536261 0.01116501 0.01327917
v 0.02821247 0.00747601 0.01571759
v 0.02383693 0.01827159 -0.00852855
v 0.02772542 0.01484552 -0.00602951
v 0.02690728 0.01602590 0.01204133
v 0.02277568 0.02289140 -0.00829984
v 0.02723575 0.01923571 -0.00270852
v 0.02391881 0.02223637 -0.00254974
v 0.02690037 0.02065913 0.00401419
v 0.02278785 0.02256151 0.00375761
v 0.02788597 0.01920621 0.00985386
v 0.03441791 -0.03512691 0.01054853
v 0.03125179 -0.03236312 0.00706501
v 0.03185166 -0.03554355 0.01489901
v 0.03312780 -0.03213503 0.01836149
v 0.03208032 -0.02886071 0.00844081
v 0.03019758 -0.02548295 0.00994080
v 0.03442199 -0.02772453 0.01149548
v 0.03311227 -0.02722312 0.01906395
v 0.03266602 -0.02369163 0.01444257
v 0.03355478 -0.01660640 0.00431287
v 0.03244673 -0.01351515 0.00095206
v 0.03161193 -0.01793379 0.00843308
v 0.03175020 -0.01742542 0.01445541
v 0.03323337 -0.01417797 0.01850937
v 0.03050151 -0.00712520 -0.00341611
v 0.03267962 -0.00876011 -0.00102345
v 0.03295201 -0.00801372 0.01880666
v 0.03412439 -0.00450807 -0.00276618
v 0.03128729 -0.00214564 -0.00514935
v 0.03289895 -0.00180071 0.01893296
v 0.03238795 0.00435874 -0.00554981
v 0.03250697 0.00364229 0.01785992
v 0.03225406 0.01012817 -0.00529787
v 0.03227324 0.01120795 0.01306288
v 0.03244266 0.00694509 0.01583410
v 0.03218922 0.01415121 -0.00368323
v 0.03042277 0.01732803 -0.00224642
v 0.03365632 0.01610363 -0.00040613
v 0.03190171 0.01702835 0.01160688
v 0.03170898 0.01907629 0.00223613
v 0.03248629 0.01915681 0.00796477
v 0.03492587 -0.03192823 0.00939666
v 0.03877167 -0.03164513 0.01226733
v 0.03763263 -0.03475039 0.01518328
v 0.03890181 -0.03187994 0.01811492
v 0.03871987 -0.02524884 0.01196749
v 0.03924504 -0.02895045 0.02102414
v 0.03587097 -0.02441323 0.02126886
v 0.03997634 -0.02645721 0.02406626
v 0.03582669 -0.02007090 0.00999081
v 0.03976594 -0.02203256 0.00950657
v 0.03976003 -0.01893292 0.00714564
v 0.03512608 -0.01983945 0.01737842
v 0.03658594 -0.02057169 0.02161644
v 0.03931624 -0.02192164 0.02423071
v 0.03640781 -0.01324839 0.00229668
v 0.03906677 -0.01475452 0.00513167
v 0.03932915 -0.01726208 0.02122067
v 0.03821469 -0.01283652 0.01918945
v 0.04012077 -0.01043002 0.00311141
v 0.03769097 -0.00905051 0.00085271
v 0.03920940 -0.00800878 0.01897969
v 0.03599028 0.00001447 -0.00327640
v 0.03846026 -0.00334151 -0.00023734
v 0.03860821 -0.00147600 0.01820710
v 0.03630774 0.00600994 -0.00238249
v 0.03944068 0.00264146 0.00009289
v 0.03609486 0.00506894 0.01534601
v 0.03878578 0.00540391 0.01231544
v 0.03966042 0.00177858 0.01518961
v 0.03521755 0.01179610 -0.00172148
v 0.03897437 0.00675526 0.00245650
v 0.03700033 0.01077214 0.00377965
v 0.03926973 0.00735756 0.00756342
v 0.03664310 0.00968562 0.01034604
v 0.03535242 0.01626633 0.00367964
v 0.03531635 0.01524769 0.00898428
v 0.04202173 -0.03213358 0.01498080
v 0.04566598 -0.02981338 0.01677794
v 0.04429834 -0.02771069 0.01291315
v 0.04415580 -0.02890515 0.02207710
v 0.04492800 -0.02574274 0.02464668
v 0.04245299 -0.01943868 0.00844830
v 0.04515475 -0.02221015 0.01180882
v 0.04489088 -0.02069496 0.02462320
v 0.04570553 -0.01752128 0.00984003
v 0.04378103 -0.01510337 0.00683597
v 0.04503302 -0.01374261 0.01884327
v 0.04578036 -0.01722145 0.02253667
v 0.04214250 -0.00576273 0.00385521
v 0.04456942 -0.00950813 0.00620573
v 0.04408078 -0.00680103 0.01797774
v 0.04173834 -0.00006649 0.00379307
v 0.04521949 -0.00531447 0.00884172
v 0.04322632 -0.00219490 0.00946445
v 0.04567355 -0.00492994 0.01398268
v 0.04241668 -0.00169832 0.01532219
v 0.04108041 0.00462103 0.00434884
v 0.04139978 0.00272638 0.00991351
v 0.05316383 -0.02918103 0.01577275
v 0.05084966 -0.02593079 0.01318412
v 0.04993598 -0.02912167 0.02106313
v 0.05132543 -0.02579904 0.02452090
v 0.05085918 -0.02230829 0.01477392
v 0.04834967 -0.01815708 0.01516772
v 0.05309643 -0.01981726 0.01821447
v 0.05124958 -0.02075229 0.02464395
v 0.04771993 -0.01292304 0.01043195
v 0.04812711 -0.01399706 0.01495571
v 0.05084874 -0.01769945 0.02144119
v 0.04750719 -0.00756497 0.01064765
v 0.04769099 -0.00956647 0.01496844
v 0.05902512 -0.02891445 0.01647825
v 0.05645235 -0.02702426 0.01345313
v 0.05640271 -0.02937248 0.02094766
v 0.05787738 -0.02596979 0.02453473
v 0.05570757 -0.02351383 0.01500531
v 0.05929807 -0.02070590 0.01837564
v 0.05768495 -0.02064816 0.02457785
v 0.05754643 -0.01791922 0.02194514
v 0.05950771 -0.02560252 0.01531555
v 0.06277350 -0.02578433 0.01827612
v 0.06243715 -0.02856419 0.02134471
v 0.06366664 -0.02459109 0.02404881
v 0.06429636 -0.02119920 0.01982578
v 0.06275947 -0.01960852 0.02382070
v 0.06275567 -0.01814119 0.02137480
v 0.06576323 -0.02520793 0.02128675
v 0.06573570 -0.02112234 0.02229271
f 3 2 1
f 5 4 1
f 5 1 2
f 6 4 5
f 9 8 7
f 7 8 3
f 1 7 3
f 10 7 1
f 11 1 4
f 10 1 11
f 4 6 12
f 13 4 12
f 11 4 13
f 14 13 12
f 9 7 15
f 9 15 16
f 17 7 10
f 15 7 17
f 18 10 11
f 17 10 18
f 13 20 19
f 18 13 19
f 11 13 18
f 20 13 14
f 16 15 21
f 16 21 22
f 23 15 17
f 21 15 23
f 24 17 18
f 23 17 24
f 18 19 25
f 18 25 24
f 26 22 21
f 28 27 26
f 21 28 26
f 23 28 21
f 24 30 29
f 28 24 29
f 23 24 28
f 30 24 25
f 31 27 28
f 31 28 29
f 34 33 32
f 36 35 32
f 36 32 33
f 37 35 36
f 40 39 38
f 38 39 34
f 32 38 34
f 41 38 32
f 42 32 35
f 41 32 42
f 35 37 43
f 35 43 42
f 46 45 44
f 44 45 40
f 44 40 38
f 3 44 38
f 2 3 38
f 2 38 5
f 5 38 41
f 5 41 6
f 41 47 6
f 41 42 47
f 42 43 48
f 42 48 47
f 46 44 8
f 9 46 8
f 49 46 9
f 8 44 3
f 47 12 6
f 14 12 47
f 48 14 47
f 50 14 48
f 16 49 9
f 16 51 49
f 52 19 20
f 53 52 20
f 14 53 20
f 50 53 14
f 22 51 16
f 22 54 51
f 55 25 52
f 52 25 19
f 52 53 56
f 52 56 55
f 22 26 57
f 58 22 57
f 54 22 58
f 27 57 26
f 59 29 30
f 60 59 30
f 60 30 25
f 61 60 25
f 55 61 25
f 61 55 56
f 62 58 57
f 62 57 27
f 31 62 27
f 63 62 31
f 31 29 59
f 64 31 59
f 63 31 64
f 64 59 60
f 67 66 65
f 68 65 66
f 69 67 65
f 69 65 68
f 72 71 70
f 33 34 70
f 71 33 70
f 73 33 71
f 33 74 36
f 73 74 33
f 76 75 37
f 36 76 37
f 74 76 36
f 77 75 76
f 80 79 78
f 78 79 72
f 78 72 70
f 40 78 70
f 39 40 70
f 39 70 34
f 81 43 75
f 75 43 37
f 75 77 82
f 75 82 81
f 80 78 45
f 46 80 45
f 83 80 46
f 45 78 40
f 84 48 81
f 81 48 43
f 81 82 85
f 81 85 84
f 49 83 46
f 49 86 83
f 87 50 84
f 84 50 48
f 84 85 88
f 84 88 87
f 51 86 49
f 51 89 86
f 90 53 87
f 87 53 50
f 87 88 91
f 87 91 90
f 54 89 51
f 54 92 89
f 94 93 90
f 93 53 90
f 93 56 53
f 94 90 91
f 58 92 54
f 58 95 92
f 96 60 61
f 97 96 61
f 56 97 61
f 93 97 56
f 58 62 98
f 99 58 98
f 95 58 99
f 63 100 62
f 62 100 98
f 64 101 63
f 63 101 100
f 102 101 64
f 102 64 60
f 103 102 60
f 96 103 60
f 103 96 97
f 104 99 98
f 104 98 100
f 104 100 105
f 105 100 101
f 105 101 106
f 106 101 102
f 109 108 107
f 111 110 107
f 111 107 108
f 112 110 111
f 109 107 66
f 67 109 66
f 113 109 67
f 66 107 68
f 107 114 68
f 107 110 114
f 110 112 115
f 110 115 114
f 118 117 116
f 119 116 69
f 116 113 69
f 113 67 69
f 113 116 117
f 68 114 69
f 114 119 69
f 114 120 119
f 114 115 121
f 114 121 120
f 123 122 71
f 123 71 72
f 116 73 118
f 73 122 118
f 73 71 122
f 73 116 74
f 74 116 119
f 74 119 76
f 76 119 120
f 77 76 120
f 121 77 120
f 124 77 121
f 126 125 79
f 126 79 80
f 72 79 123
f 123 79 125
f 124 82 77
f 127 82 124
f 83 126 80
f 83 128 126
f 127 85 82
f 129 85 127
f 86 128 83
f 86 130 128
f 129 88 85
f 131 88 129
f 89 130 86
f 89 132 130
f 131 91 88
f 133 91 131
f 92 132 89
f 92 134 132
f 135 93 94
f 136 135 94
f 91 136 94
f 133 136 91
f 95 134 92
f 95 137 134
f 139 138 135
f 138 93 135
f 138 97 93
f 139 135 136
f 99 137 95
f 99 140 137
f 142 141 103
f 103 141 102
f 103 97 138
f 103 138 142
f 143 140 99
f 143 99 104
f 144 104 105
f 144 143 104
f 145 105 106
f 145 144 105
f 106 102 141
f 106 141 145
f 147 146 108
f 147 108 109
f 108 148 111
f 146 148 108
f 112 111 148
f 112 148 149
f 113 147 109
f 113 150 147
f 149 115 112
f 151 115 149
f 153 152 117
f 153 117 118
f 113 117 150
f 150 117 152
f 151 121 115
f 154 121 151
f 156 155 122
f 156 122 123
f 118 122 153
f 153 122 155
f 158 124 157
f 124 154 157
f 124 121 154
f 159 158 157
f 126 160 125
f 160 161 125
f 161 123 125
f 161 156 123
f 162 127 158
f 158 127 124
f 158 159 163
f 158 163 162
f 165 164 160
f 126 165 160
f 128 165 126
f 160 164 161
f 166 129 162
f 162 129 127
f 162 163 167
f 162 167 166
f 130 165 128
f 130 168 165
f 170 169 166
f 169 129 166
f 169 131 129
f 170 166 167
f 132 168 130
f 132 171 168
f 169 133 131
f 172 133 169
f 134 171 132
f 134 173 171
f 172 136 133
f 174 136 172
f 137 173 134
f 137 175 173
f 177 176 139
f 139 176 138
f 139 136 174
f 139 174 177
f 140 175 137
f 140 178 175
f 179 141 142
f 180 179 142
f 138 180 142
f 176 180 138
f 181 178 140
f 181 140 143
f 182 143 144
f 182 181 143
f 183 144 145
f 183 182 144
f 145 141 179
f 184 145 179
f 183 145 184
f 184 179 180
f 187 186 185
f 189 188 185
f 189 185 186
f 190 188 189
f 192 191 146
f 192 146 147
f 185 148 187
f 148 191 187
f 148 146 191
f 148 185 149
f 185 193 149
f 185 188 193
f 188 190 194
f 188 194 193
f 150 192 147
f 150 195 192
f 197 196 193
f 196 149 193
f 196 151 149
f 197 193 194
f 199 198 152
f 199 152 153
f 150 152 195
f 195 152 198
f 201 154 200
f 154 196 200
f 154 151 196
f 202 201 200
f 204 203 155
f 204 155 156
f 153 155 199
f 199 155 203
f 201 157 154
f 159 157 201
f 202 159 201
f 205 159 202
f 161 204 156
f 161 206 204
f 205 163 159
f 207 163 205
f 209 208 164
f 209 164 165
f 161 164 206
f 206 164 208
f 207 167 163
f 210 167 207
f 168 209 165
f 168 211 209
f 212 169 170
f 213 212 170
f 167 213 170
f 210 213 167
f 171 211 168
f 171 214 211
f 216 215 212
f 215 169 212
f 215 172 169
f 216 212 213
f 173 214 171
f 173 217 214
f 215 174 172
f 218 174 215
f 175 217 173
f 175 219 217
f 220 176 177
f 221 220 177
f 174 221 177
f 218 221 174
f 178 223 222
f 219 178 222
f 175 178 219
f 223 224 222
f 226 225 220
f 225 176 220
f 225 180 176
f 226 220 221
f 181 223 178
f 227 224 223
f 181 227 223
f 182 227 181
f 228 182 183
f 228 227 182
f 229 183 184
f 229 228 183
f 184 180 225
f 184 225 229
f 231 230 186
f 231 186 187
f 186 232 189
f 230 232 186
f 190 189 232
f 190 232 233
f 192 234 191
f 234 235 191
f 235 187 191
f 235 231 187
f 233 194 190
f 236 194 233
f 195 237 234
f 195 234 192
f 235 234 238
f 234 239 238
f 234 237 239
f 196 197 239
f 197 238 239
f 197 240 238
f 197 194 236
f 197 236 240
f 242 241 198
f 242 198 199
f 195 198 237
f 198 243 237
f 198 241 243
f 237 243 239
f 239 243 244
f 239 244 196
f 244 200 196
f 244 245 200
f 202 200 245
f 202 245 246
f 248 247 203
f 248 203 204
f 199 203 242
f 242 203 247
f 246 205 202
f 249 205 246
f 206 248 204
f 206 250 248
f 249 207 205
f 251 207 249
f 209 252 208
f 252 253 208
f 253 206 208
f 253 250 206
f 251 210 207
f 254 210 251
f 256 255 252
f 209 256 252
f 211 256 209
f 252 255 253
f 254 213 210
f 257 213 254
f 214 256 211
f 214 258 256
f 259 215 216
f 260 259 216
f 213 260 216
f 257 260 213
f 217 258 214
f 217 261 258
f 263 262 259
f 262 215 259
f 262 218 215
f 263 259 260
f 219 261 217
f 219 264 261
f 262 221 218
f 265 221 262
f 266 264 219
f 266 219 222
f 222 224 266
f 266 224 267
f 269 268 226
f 226 268 225
f 226 221 265
f 226 265 269
f 270 267 224
f 270 224 227
f 271 227 228
f 271 270 227
f 272 228 229
f 272 271 228
f 229 225 268
f 229 268 272
f 274 273 230
f 274 230 231
f 230 275 232
f 273 275 230
f 233 232 275
f 233 275 276
f 235 274 231
f 235 277 274
f 276 236 233
f 278 236 276
f 279 277 235
f 279 235 238
f 280 238 240
f 280 279 238
f 240 236 278
f 240 278 280
f 282 281 241
f 282 241 242
f 241 283 243
f 281 283 241
f 243 284 244
f 283 284 243
f 244 285 245
f 284 285 244
f 246 245 285
f 246 285 286
f 288 287 247
f 288 247 248
f 242 247 282
f 282 247 287
f 286 249 246
f 289 249 286
f 250 288 248
f 250 290 288
f 289 251 249
f 291 251 289
f 253 290 250
f 253 292 290
f 291 254 251
f 293 254 291
f 256 294 255
f 294 295 255
f 295 253 255
f 295 292 253
f 293 257 254
f 296 257 293
f 298 297 294
f 256 298 294
f 258 298 256
f 294 297 295
f 296 260 257
f 299 260 296
f 261 298 258
f 261 300 298
f 302 301 263
f 263 301 262
f 263 260 299
f 263 299 302
f 264 304 303
f 300 264 303
f 261 264 300
f 304 305 303
f 301 265 262
f 306 265 301
f 266 304 264
f 266 267 304
f 267 305 304
f 267 307 305
f 309 308 269
f 269 308 268
f 269 265 306
f 269 306 309
f 310 307 267
f 310 267 270
f 311 270 271
f 311 310 270
f 312 271 272
f 312 311 271
f 272 268 308
f 272 308 312
f 314 313 273
f 314 273 274
f 273 315 275
f 313 315 273
f 276 275 315
f 276 315 316
f 277 314 274
f 277 317 314
f 316 278 276
f 318 278 316
f 319 317 277
f 319 277 279
f 320 279 280
f 320 319 279
f 280 278 318
f 280 318 320
f 282 321 281
f 281 321 322
f 323 281 322
f 283 281 323
f 283 324 284
f 323 324 283
f 284 325 285
f 324 325 284
f 286 285 325
f 286 325 326
f 288 327 287
f 327 328 287
f 287 328 282
f 328 329 282
f 329 321 282
f 321 329 322
f 326 289 286
f 330 289 326
f 332 331 327
f 288 332 327
f 290 332 288
f 327 331 328
f 330 291 289
f 333 291 330
f 292 332 290
f 292 334 332
f 333 293 291
f 335 293 333
f 295 334 292
f 295 336 334
f 335 296 293
f 337 296 335
f 298 338 297
f 338 339 297
f 339 295 297
f 339 336 295
f 337 299 296
f 340 299 337
f 300 341 338
f 300 338 298
f 339 338 342
f 342 338 341
f 343 301 302
f 344 343 302
f 299 344 302
f 340 344 299
f 303 341 300
f 303 305 341
f 305 342 341
f 305 345 342
f 347 346 343
f 346 301 343
f 346 306 301
f 347 343 344
f 307 349 348
f 345 307 348
f 305 307 345
f 349 350 348
f 352 351 309
f 309 351 308
f 309 306 346
f 309 346 352
f 310 349 307
f 353 350 349
f 310 353 349
f 311 353 310
f 354 311 312
f 354 353 311
f 312 308 351
f 312 351 354
f 314 355 313
f 313 355 356
f 357 313 356
f 315 313 357
f 359 358 316
f 315 359 316
f 357 359 315
f 360 358 359
f 317 361 355
f 317 355 314
f 356 355 362
f 362 355 361
f 363 318 358
f 358 318 316
f 358 360 364
f 358 364 363
f 319 361 317
f 365 362 361
f 319 365 361
f 320 365 319
f 320 318 363
f 366 320 363
f 365 320 366
f 366 363 364
f 368 367 323
f 368 323 322
f 323 369 324
f 367 369 323
f 324 370 325
f 369 370 324
f 326 325 370
f 326 370 371
f 373 372 329
f 373 329 328
f 322 329 368
f 368 329 372
f 375 330 374
f 330 371 374
f 330 326 371
f 376 375 374
f 332 377 331
f 377 378 331
f 378 328 331
f 378 373 328
f 379 333 375
f 375 333 330
f 375 376 380
f 375 380 379
f 382 381 377
f 332 382 377
f 334 382 332
f 377 381 378
f 383 335 379
f 379 335 333
f 379 380 384
f 379 384 383
f 336 382 334
f 336 385 382
f 387 386 383
f 386 335 383
f 386 337 335
f 387 383 384
f 339 385 336
f 339 388 385
f 386 340 337
f 389 340 386
f 342 388 339
f 342 390 388
f 389 344 340
f 391 344 389
f 345 390 342
f 345 392 390
f 394 393 347
f 347 393 346
f 347 344 391
f 347 391 394
f 395 392 345
f 395 345 348
f 397 396 350
f 396 348 350
f 396 395 348
f 399 398 397
f 397 398 396
f 351 352 399
f 352 398 399
f 352 400 398
f 352 346 393
f 352 393 400
f 353 397 350
f 397 353 354
f 397 354 399
f 399 354 351
f 402 401 357
f 402 357 356
f 357 403 359
f 401 403 357
f 360 359 403
f 360 403 404
f 362 402 356
f 362 405 402
f 404 364 360
f 406 364 404
f 407 405 362
f 407 362 365
f 408 365 366
f 408 407 365
f 366 364 406
f 366 406 408
f 410 409 367
f 410 367 368
f 367 411 369
f 409 411 367
f 369 412 370
f 411 412 369
f 371 370 412
f 371 412 413
f 415 414 372
f 415 372 373
f 368 372 410
f 410 372 414
f 413 416 371
f 371 416 374
f 376 374 416
f 376 416 417
f 378 415 373
f 378 418 415
f 417 380 376
f 419 380 417
f 382 420 381
f 420 421 381
f 421 378 381
f 421 418 378
f 419 384 380
f 422 384 419
f 385 423 420
f 385 420 382
f 421 420 424
f 424 420 423
f 426 425 387
f 387 425 386
f 387 384 422
f 387 422 426
f 388 427 423
f 388 423 385
f 424 423 428
f 428 423 427
f 425 389 386
f 429 389 425
f 390 430 427
f 390 427 388
f 428 427 431
f 431 427 430
f 429 391 389
f 432 391 429
f 392 433 430
f 392 430 390
f 431 430 434
f 434 430 433
f 437 436 435
f 393 394 435
f 394 437 435
f 394 438 437
f 394 391 432
f 394 432 438
f 395 433 392
f 439 434 433
f 395 439 433
f 396 439 395
f 440 396 398
f 440 439 396
f 400 435 436
f 440 400 436
f 398 400 440
f 435 400 393
f 442 441 401
f 442 401 402
f 401 443 403
f 441 443 401
f 404 403 443
f 404 443 444
f 405 442 402
f 405 445 442
f 444 406 404
f 446 406 444
f 447 445 405
f 447 405 407
f 448 407 408
f 448 447 407
f 408 406 446
f 408 446 448
f 410 449 409
f 409 449 450
f 451 409 450
f 411 409 451
f 411 452 412
f 451 452 411
f 413 412 452
f 413 452 453
f 415 454 414
f 454 455 414
f 414 455 410
f 455 456 410
f 456 449 410
f 449 456 450
f 453 457 413
f 413 457 416
f 417 416 457
f 417 457 458
f 460 459 454
f 415 460 454
f 418 460 415
f 454 459 455
f 458 419 417
f 461 419 458
f 421 460 418
f 421 462 460
f 461 422 419
f 463 422 461
f 424 462 421
f 424 464 462
f 466 465 426
f 426 465 425
f 426 422 463
f 426 463 466
f 428 464 424
f 428 467 464
f 465 429 425
f 468 429 465
f 431 467 428
f 431 469 467
f 472 471 470
f 468 472 470
f 432 468 470
f 429 468 432
f 434 474 473
f 469 434 473
f 431 434 469
f 476 475 474
f 474 475 473
f 436 437 476
f 437 475 476
f 437 477 475
f 438 470 471
f 477 438 471
f 437 438 477
f 470 438 432
f 439 474 434
f 474 439 440
f 474 440 476
f 476 440 436
f 479 478 441
f 479 441 442
f 441 480 443
f 478 480 441
f 444 443 480
f 444 480 481
f 445 479 442
f 445 482 479
f 481 446 444
f 483 446 481
f 484 482 445
f 484 445 447
f 485 447 448
f 485 484 447
f 448 446 483
f 448 483 485
f 487 486 451
f 487 451 450
f 451 488 452
f 486 488 451
f 490 489 453
f 452 490 453
f 488 490 452
f 491 489 490
f 493 492 456
f 493 456 455
f 450 456 487
f 487 456 492
f 489 457 453
f 458 457 489
f 491 458 489
f 494 458 491
f 460 495 459
f 495 496 459
f 496 455 459
f 496 493 455
f 494 461 458
f 497 461 494
f 462 498 495
f 462 495 460
f 496 495 499
f 499 495 498
f 497 463 461
f 500 463 497
f 464 501 498
f 464 498 462
f 499 498 502
f 502 498 501
f 504 503 466
f 466 503 465
f 466 463 500
f 466 500 504
f 467 505 501
f 467 501 464
f 502 501 506
f 506 501 505
f 503 468 465
f 507 468 503
f 469 508 505
f 469 505 467
f 506 505 509
f 505 510 509
f 505 508 510
f 512 511 510
f 510 511 509
f 471 472 512
f 472 511 512
f 472 513 511
f 472 468 507
f 472 507 513
f 473 508 469
f 508 473 475
f 508 475 510
f 510 475 477
f 510 477 512
f 512 477 471
f 515 514 478
f 515 478 479
f 478 516 480
f 514 516 478
f 481 480 516
f 481 516 517
f 482 519 518
f 515 482 518
f 479 482 515
f 519 520 518
f 517 483 481
f 521 483 517
f 484 519 482
f 522 520 519
f 484 522 519
f 485 522 484
f 485 483 521
f 485 521 522
f 524 523 486
f 524 486 487
f 486 525 488
f 523 525 486
f 488 526 490
f 525 526 488
f 491 490 526
f 491 526 527
f 493 528 492
f 528 529 492
f 529 487 492
f 529 524 487
f 527 494 491
f 530 494 527
f 532 531 528
f 493 532 528
f 496 532 493
f 528 531 529
f 530 497 494
f 533 497 530
f 499 532 496
f 499 534 532
f 533 500 497
f 535 500 533
f 502 534 499
f 502 536 534
f 538 537 504
f 504 537 503
f 504 500 535
f 504 535 538
f 506 540 539
f 536 506 539
f 502 506 536
f 540 541 539
f 537 507 503
f 542 507 537
f 509 540 506
f 543 541 540
f 509 543 540
f 511 543 509
f 544 511 513
f 544 543 511
f 513 507 542
f 513 542 544
f 515 545 514
f 514 545 546
f 547 514 546
f 516 514 547
f 517 516 547
f 517 547 548
f 518 545 515
f 518 520 545
f 520 546 545
f 520 549 546
f 551 521 550
f 521 548 550
f 521 517 548
f 552 551 550
f 555 554 553
f 556 553 522
f 553 549 522
f 549 520 522
f 549 553 554
f 521 551 522
f 551 556 522
f 551 557 556
f 551 552 558
f 551 558 557
f 524 559 523
f 560 555 553
f 523 560 553
f 525 523 553
f 560 523 559
f 525 553 526
f 526 553 556
f 556 557 561
f 527 556 561
f 562 527 561
f 556 527 526
f 561 557 558
f 564 563 559
f 524 564 559
f 529 564 524
f 559 563 560
f 562 530 527
f 565 530 562
f 532 566 531
f 566 567 531
f 567 529 531
f 567 564 529
f 565 533 530
f 568 533 565
f 534 569 566
f 534 566 532
f 567 566 570
f 570 566 569
f 573 572 571
f 568 573 571
f 535 568 571
f 533 568 535
f 536 574 569
f 536 569 534
f 570 569 575
f 569 576 575
f 569 574 576
f 578 577 576
f 576 577 575
f 577 578 572
f 572 578 571
f 578 537 571
f 537 538 571
f 571 538 535
f 539 574 536
f 574 539 541
f 579 574 541
f 576 574 579
f 576 580 578
f 576 579 580
f 580 542 537
f 580 537 578
f 543 579 541
f 579 543 544
f 579 544 580
f 580 544 542
f 546 581 547
f 581 548 547
f 583 582 581
f 546 583 581
f 549 583 546
f 581 582 548
f 582 550 548
f 582 584 550
f 552 550 584
f 552 584 585
f 555 586 554
f 586 587 554
f 587 549 554
f 587 583 549
f 585 558 552
f 588 558 585
f 590 589 586
f 555 590 586
f 560 590 555
f 586 589 587
f 592 591 561
f 561 591 562
f 561 558 588
f 561 588 592
f 564 593 563
f 593 594 563
f 594 560 563
f 594 590 560
f 591 565 562
f 595 565 591
f 567 596 593
f 567 593 564
f 594 593 597
f 593 598 597
f 593 596 598
f 600 599 598
f 598 599 597
f 595 599 600
f 568 595 600
f 565 595 568
f 570 601 596
f 570 596 567
f 596 602 598
f 596 601 602
f 602 572 573
f 600 602 573
f 598 602 600
f 600 573 568
f 575 601 570
f 601 575 577
f 601 577 602
f 602 577 572
f 604 603 582
f 604 582 583
f 582 605 584
f 603 605 582
f 585 584 605
f 585 605 606
f 587 608 607
f 604 587 607
f 583 587 604
f 608 609 607
f 606 588 585
f 610 588 606
f 590 611 589
f 608 587 589
f 611 608 589
f 612 608 611
f 592 613 591
f 613 608 591
f 608 612 591
f 608 613 609
f 592 588 610
f 592 610 613
f 594 614 611
f 594 611 590
f 611 615 612
f 611 614 615
f 615 595 591
f 615 591 612
f 597 614 594
f 614 597 599
f 614 599 615
f 615 599 595
f 617 616 603
f 617 603 604
f 603 618 605
f 616 618 603
f 606 605 618
f 606 618 619
f 620 617 604
f 620 604 607
f 607 609 620
f 620 609 621
f 619 610 606
f 622 610 619
f 623 621 609
f 623 609 613
f 613 610 622
f 613 622 623
f 617 624 616
f 616 624 625
f 626 616 625
f 618 616 626
f 619 618 626
f 619 626 627
f 620 624 617
f 620 621 624
f 621 625 624
f 621 628 625
f 627 622 619
f 629 622 627
f 630 628 621
f 630 621 623
f 623 622 629
f 623 629 630
f 625 631 626
f 631 627 626
f 628 632 631
f 628 631 625
f 632 629 627
f 632 627 631
f 630 632 628
f 632 630 629

