# https://github.com/mikedh/trimesh
v -0.04279524 -0.01365098 -0.00377561
v -0.04005299 -0.01692623 -0.00507084
v -0.04094998 -0.01380379 -0.00835673
v -0.04314176 -0.01399810 0.00322772
v -0.04055899 -0.01795654 0.00028337
v -0.04254034 -0.01320474 0.00817548
v -0.04069519 -0.01746140 0.00628602
v -0.04024298 -0.01489398 0.01041018
v -0.04295079 -0.00813846 -0.01018127
v -0.04018060 -0.01082861 -0.01207805
v -0.04113885 -0.00717280 -0.01497132
v -0.04378949 -0.00765847 -0.00407958
v -0.04394796 -0.00844062 0.00160361
v -0.04337461 -0.00785099 0.00847254
v -0.04079952 -0.00986522 0.01175263
v -0.04308208 -0.00221667 -0.01592789
v -0.03988530 -0.00521070 -0.01829755
v -0.04002099 -0.00135510 -0.02008919
v -0.04385169 -0.00117202 -0.01045209
v -0.04374332 -0.00205097 -0.00487540
v -0.04385061 -0.00195008 0.00164168
v -0.04395860 -0.00270880 0.00718216
v -0.04125549 -0.00518072 0.01361921
v -0.04265790 -0.00100435 0.01261179
v -0.03876249 -0.00232949 0.01627997
v -0.04296002 0.00399590 -0.01711989
v -0.03872641 0.00463649 -0.02024808
v -0.04401645 0.00447813 -0.01124955
v -0.04386929 0.00455068 -0.00461318
v -0.04374998 0.00464587 0.00190033
v -0.04322253 0.00396151 0.00828671
v -0.04118110 0.00407749 0.01233954
v -0.03980103 0.00184125 0.01487623
v -0.04118843 0.00788744 -0.01686479
v -0.04018817 0.01145008 -0.01386973
v -0.04298744 0.01012193 -0.01147838
v -0.04392071 0.01101245 -0.00455071
v -0.04384387 0.01028881 0.00112732
v -0.04279771 0.01138444 0.00641933
v -0.04060735 0.00890972 0.01106660
v -0.04094727 0.01432233 -0.01013650
v -0.04008495 0.01811917 -0.00728840
v -0.04266423 0.01585463 -0.00568746
v -0.04282878 0.01625595 0.00091126
v -0.04100071 0.01648876 0.00551749
v -0.04013896 0.01349835 0.00921306
v -0.04050141 0.02018304 -0.00267784
v -0.04011639 0.01961247 0.00227503
v -0.03636557 -0.03220258 -0.00352031
v -0.03275348 -0.03538616 -0.00433633
v -0.03459160 -0.03235706 -0.00664262
v -0.03387638 -0.03409159 -0.00128316
v -0.03694112 -0.02654768 -0.00477223
v -0.03399198 -0.02746769 -0.00858715
v -0.03355560 -0.03084803 0.00162652
v -0.03665214 -0.02645860 0.00176139
v -0.03338877 -0.02735996 0.00501486
v -0.03656705 -0.01967531 -0.01573755
v -0.03373594 -0.02366771 -0.01765924
v -0.03378865 -0.02012243 -0.01995893
v -0.03674497 -0.02167749 -0.00989186
v -0.03438211 -0.02401944 -0.01287449
v -0.03813136 -0.02010143 -0.00456136
v -0.03826627 -0.02166517 0.00172285
v -0.03477824 -0.02472003 0.00749940
v -0.03759895 -0.02042383 0.00897475
v -0.03632871 -0.01915824 0.01453144
v -0.03446624 -0.02339075 0.01272956
v -0.03309146 -0.02175078 0.01658512
v -0.03673143 -0.01495346 -0.01769256
v -0.03354169 -0.01408523 -0.02031180
v -0.03828814 -0.01541780 -0.01128524
v -0.03758908 -0.01356968 0.01386934
v -0.03373155 -0.01577391 0.01678657
v -0.03780334 -0.00973196 -0.01675288
v -0.03413174 -0.00784281 -0.01997080
v -0.03847223 -0.00738786 0.01492107
v -0.03405923 -0.00875341 0.01744543
v -0.03483774 -0.00188041 -0.02042764
v -0.03381543 -0.00457677 -0.01146800
v -0.03676425 -0.00139243 -0.00900626
v -0.03420991 -0.00038554 -0.01410288
v -0.03465129 -0.00491851 -0.00609724
v -0.03679909 -0.00044897 -0.00412811
v -0.03336308 -0.00284726 -0.00199066
v -0.03437073 -0.00265618 0.01837995
v -0.03397828 0.00326108 -0.02032390
v -0.03643979 0.00284861 -0.01114358
v -0.03388032 0.00468867 -0.01354732
v -0.03700047 0.00378918 -0.00625927
v -0.03360480 0.00388517 -0.00194921
v -0.03789679 0.00616801 0.01444078
v -0.03536903 0.00280965 0.01751393
v -0.03815507 0.01085626 -0.01735459
v -0.03410947 0.01042515 -0.01993772
v -0.03466917 0.00733384 -0.00902544
v -0.03398250 0.00802333 -0.00426765
v -0.03744886 0.01210684 0.01353258
v -0.03376699 0.00990123 0.01751238
v -0.03676368 0.01682870 -0.01695754
v -0.03441344 0.01769543 -0.02014422
v -0.03831367 0.01664725 -0.01171083
v -0.03846693 0.01761179 0.00786147
v -0.03656779 0.01776683 0.01300566
v -0.03366091 0.01630357 0.01649078
v -0.03631615 0.02194221 -0.01761663
v -0.03257445 0.02353262 -0.02003768
v -0.03694556 0.02323886 -0.01158490
v -0.03810542 0.02315085 -0.00489156
v -0.03824747 0.02271950 0.00175606
v -0.03674392 0.02337379 0.00740265
v -0.03361624 0.02328600 0.01188157
v -0.03365034 0.02027035 0.01491626
v -0.03454232 0.02600949 -0.01557280
v -0.03492681 0.02732154 -0.01032041
v -0.03354606 0.03150725 -0.00796112
v -0.03693901 0.02855537 -0.00559130
v -0.03685975 0.02941950 0.00061328
v -0.03342989 0.02979633 0.00550052
v -0.03368318 0.02654795 0.00837855
v -0.03645911 0.03426833 -0.00424793
v -0.03335591 0.03610478 -0.00653887
v -0.03516440 0.03542085 -0.00115446
v -0.03358765 0.03345935 0.00210427
v -0.03326517 0.03792060 -0.00336511
v -0.02639953 -0.03593675 -0.00483544
v -0.02991145 -0.03256134 -0.00804323
v -0.03144598 -0.03340872 0.00153122
v -0.02846009 -0.03565879 0.00101599
v -0.02794303 -0.03330834 0.00483017
v -0.03079506 -0.02693656 -0.01563266
v -0.02707940 -0.03025649 -0.01767639
v -0.02846241 -0.02641098 -0.02005453
v -0.03111265 -0.02777923 -0.01090024
v -0.02783759 -0.03059671 -0.01284621
v -0.03146697 -0.02690719 0.00986281
v -0.02930350 -0.03011667 0.00714987
v -0.03123818 -0.02607664 0.01457568
v -0.02787739 -0.02984172 0.01268654
v -0.02743905 -0.02741344 0.01678770
v -0.02757981 -0.02086253 -0.02040797
v -0.02782810 -0.02101006 0.01817086
v -0.02841259 -0.01457355 -0.01988932
v -0.03009847 -0.01345083 -0.00978286
v -0.02795539 -0.01372325 -0.01482756
v -0.02738177 -0.01703023 -0.01131924
v -0.02818223 -0.01749518 -0.00599988
v -0.03013632 -0.01330044 -0.00405960
v -0.02687994 -0.01561323 -0.00194593
v -0.02878327 -0.01473610 0.01852344
v -0.02838813 -0.01165038 -0.01828331
v -0.03072911 -0.00857338 -0.01669280
v -0.03175394 -0.00786579 -0.01089592
v -0.03180924 -0.00872861 -0.00486671
v -0.02837242 -0.00864938 -0.00152790
v -0.02884852 -0.01073319 0.02009467
v -0.03081618 -0.00609853 0.02061950
v -0.02655271 -0.00917659 0.02269901
v -0.03208855 -0.00254396 -0.01682363
v -0.02834782 -0.00146847 -0.00101859
v -0.03139171 -0.00022662 0.02068798
v -0.02740783 -0.00313940 0.02311598
v -0.03213216 0.00479202 -0.01717222
v -0.02743066 0.00399673 -0.00110673
v -0.03140315 0.00595172 0.02063292
v -0.02756174 0.00317432 0.02310996
v -0.03053109 0.01150379 -0.01684845
v -0.03184235 0.01042490 -0.01126003
v -0.03156168 0.01192939 -0.00492006
v -0.02870978 0.00964431 -0.00166375
v -0.03052074 0.01118832 0.02021436
v -0.02711339 0.00998833 0.02286445
v -0.02818091 0.01481747 -0.01662304
v -0.02893525 0.01689379 -0.02019003
v -0.03000946 0.01535096 -0.01196575
v -0.02786861 0.01669464 -0.01411738
v -0.03037139 0.01655433 -0.00599463
v -0.02717161 0.01659976 -0.00182478
v -0.02877040 0.01658054 0.01839860
v -0.02746741 0.01443699 0.02100084
v -0.02788495 0.02301334 -0.02113234
v -0.02732344 0.01955714 -0.01039323
v -0.02766872 0.02062758 -0.00391852
v -0.03136298 0.02312901 0.01439728
v -0.02835503 0.02259893 0.01650884
v -0.03127664 0.02872802 -0.01752701
v -0.02687533 0.02939752 -0.02014593
v -0.03161769 0.02951105 -0.01271082
v -0.03121899 0.02938805 0.00788292
v -0.02794490 0.02949915 0.01116351
v -0.02795883 0.02643285 0.01426875
v -0.02797311 0.03248024 -0.01556648
v -0.02875358 0.03271300 -0.01086923
v -0.02843907 0.03556450 -0.00859322
v -0.03183757 0.03671653 0.00061221
v -0.02940126 0.03495874 0.00442370
v -0.02786969 0.03271121 0.00796733
v -0.02756091 0.03850357 -0.00476816
v -0.02741561 0.03832219 0.00186008
v -0.02433011 -0.03342293 -0.01566425
v -0.01976860 -0.03540014 -0.01694557
v -0.02279222 -0.03191484 -0.01990284
v -0.02567601 -0.03386839 -0.01042212
v -0.02229482 -0.03573400 -0.01093855
v -0.02061040 -0.03711150 -0.00571871
v -0.02249026 -0.03727000 0.00031815
v -0.02488172 -0.03345283 0.01005924
v -0.02185338 -0.03660601 0.00737709
v -0.02461422 -0.03266683 0.01467229
v -0.02142120 -0.03537985 0.01338565
v -0.02123021 -0.03268431 0.01663689
v -0.02093520 -0.02693551 -0.02038702
v -0.02109538 -0.02701931 0.01818931
v -0.02184513 -0.02325162 -0.01766987
v -0.02451851 -0.01992534 -0.01673866
v -0.02057002 -0.02385941 -0.01247169
v -0.02477708 -0.02029617 -0.01008231
v -0.02189428 -0.02364569 -0.00590021
v -0.02516611 -0.02005125 -0.00402157
v -0.02139758 -0.02107181 -0.00178352
v -0.02218261 -0.02293568 0.02013844
v -0.02443525 -0.01882468 0.02062507
v -0.02030437 -0.02078280 0.02241794
v -0.02593640 -0.01598710 -0.01600925
v -0.02192194 -0.01428151 -0.00103189
v -0.02570385 -0.01397476 0.02104686
v -0.02165735 -0.01503978 0.02324371
v -0.02187208 -0.00786120 -0.00122872
v -0.02184372 -0.00794848 0.02388402
v -0.02177589 -0.00154012 -0.00131739
v -0.02192801 -0.00158975 0.02382957
v -0.02182685 0.00475770 -0.00129353
v -0.02198302 0.00472297 0.02380894
v -0.02193116 0.01109879 -0.00117432
v -0.02118334 0.01018270 0.02380638
v -0.02534091 0.01769172 -0.01715082
v -0.02112155 0.01656868 -0.00108858
v -0.02459942 0.01808054 0.02011105
v -0.02178234 0.01617704 0.02292910
v -0.02251536 0.02085346 -0.01601814
v -0.02249962 0.02316225 -0.02024341
v -0.02405187 0.02265768 -0.01128027
v -0.02147001 0.02287602 -0.01427888
v -0.02494208 0.02360266 -0.00591055
v -0.02190531 0.02274712 -0.00168228
v -0.02228559 0.02316088 0.01829702
v -0.02100187 0.02087215 0.02092603
v -0.02151846 0.02949123 -0.02114698
v -0.02103104 0.02581749 -0.01051908
v -0.02136281 0.02695843 -0.00404929
v -0.02451461 0.02980552 0.01438108
v -0.02168292 0.02912705 0.01650537
v -0.02476189 0.03535830 -0.01765117
v -0.02058793 0.03475080 -0.02011500
v -0.02505298 0.03604031 -0.01291789
v -0.02505785 0.03646909 0.00713382
v -0.02287103 0.03501127 0.01092233
v -0.02129560 0.03302795 0.01446071
v -0.02079142 0.03812379 -0.01578509
v -0.02274046 0.03834635 -0.01001249
v -0.02113992 0.03976876 -0.00481111
v -0.02154739 0.03970310 0.00199919
v -0.02088277 0.03828798 0.00852648
v -0.01833234 -0.03952013 -0.00265161
v -0.01366951 -0.04166558 -0.00506282
v -0.01636544 -0.03899656 -0.00741166
v -0.01877883 -0.03967481 0.00330212
v -0.01500297 -0.04199679 0.00164290
v -0.01763307 -0.03926869 0.00862033
v -0.01564024 -0.04143829 0.00671151
v -0.01353850 -0.03967837 0.01093485
v -0.01485551 -0.03702917 -0.01784350
v -0.01586920 -0.03329383 -0.02049518
v -0.01663522 -0.03738479 -0.01219118
v -0.01685963 -0.03656752 0.01354925
v -0.01530028 -0.03256753 0.01678599
v -0.01397417 -0.02821476 -0.01979598
v -0.01824931 -0.02710986 -0.00867929
v -0.01612395 -0.02643463 -0.01357434
v -0.01382774 -0.02885608 -0.01201175
v -0.01472308 -0.03002348 -0.00605926
v -0.01894348 -0.02631593 -0.00397598
v -0.01511407 -0.02754429 -0.00180818
v -0.01417157 -0.02844680 0.01852144
v -0.01694857 -0.02512357 -0.01718134
v -0.01558693 -0.02065170 -0.00106393
v -0.01725230 -0.02428063 0.02062611
v -0.01501530 -0.02108743 0.02324489
v -0.01543254 -0.01426453 -0.00134337
v -0.01547371 -0.01431885 0.02388039
v -0.01535214 -0.00806006 -0.00148013
v -0.01546835 -0.00790424 0.02370583
v -0.01536190 -0.00176614 -0.00147632
v -0.01548819 -0.00164405 0.02364014
v -0.01542236 0.00458392 -0.00142660
v -0.01556672 0.00468725 0.02368519
v -0.01552907 0.01093868 -0.00135785
v -0.01563009 0.01105619 0.02374267
v -0.01561930 0.01735130 -0.00124379
v -0.01483706 0.01646483 0.02379743
v -0.01897720 0.02392166 -0.01721607
v -0.01477197 0.02289048 -0.00110356
v -0.01813883 0.02439027 0.02004115
v -0.01600972 0.02167231 0.02276772
v -0.01646630 0.02714373 -0.01607345
v -0.01625550 0.02959562 -0.02026006
v -0.01803373 0.02907966 -0.01135759
v -0.01473739 0.02973814 -0.01486170
v -0.01869834 0.03003033 -0.00605838
v -0.01613721 0.02834937 -0.00186203
v -0.01628894 0.02863764 0.01812396
v -0.01362482 0.02625001 0.02052612
v -0.01423775 0.03585335 -0.02010840
v -0.01462220 0.03203804 -0.00991576
v -0.01459419 0.03207463 -0.00420050
v -0.01863549 0.03661466 0.01367537
v -0.01532678 0.03425264 0.01663091
v -0.01519381 0.03832396 -0.01688212
v -0.01694663 0.03961584 -0.01075306
v -0.01793687 0.04165199 -0.00522077
v -0.01372966 0.04204803 -0.00748762
v -0.01856680 0.04214441 -0.00024587
v -0.01658858 0.04175574 0.00447606
v -0.01505889 0.04000748 0.00889924
v -0.01469344 0.03811332 0.01381174
v -0.01510625 0.04426509 -0.00283494
v -0.01423596 0.04434371 0.00285927
v -0.01187819 -0.03974537 -0.01586477
v -0.00739129 -0.04185624 -0.01709999
v -0.01026872 -0.03825405 -0.02001964
v -0.01324860 -0.03997954 -0.01074431
v -0.00921572 -0.04211020 -0.01058572
v -0.00927192 -0.04264162 -0.00481619
v -0.00903340 -0.04336350 -0.00002225
v -0.00931289 -0.04310288 0.00789478
v -0.00858904 -0.04007524 0.01227251
v -0.00839151 -0.03307097 -0.02046346
v -0.00779389 -0.03547862 -0.00582584
v -0.01217784 -0.03279953 -0.00366008
v -0.01031370 -0.03317218 -0.00705199
v -0.00892430 -0.03306887 -0.00207167
v -0.01085370 -0.03681242 0.01441994
v -0.00815317 -0.03361968 0.01743479
v -0.00998088 -0.02935847 -0.01688055
v -0.01336054 -0.02705730 -0.01657237
v -0.00882288 -0.03100212 -0.01170786
v -0.00921041 -0.02721929 -0.00102725
v -0.00940633 -0.02926581 0.02008285
v -0.01261141 -0.02609900 0.02104720
v -0.00856567 -0.02630977 0.02270102
v -0.00913884 -0.02067795 -0.00130754
v -0.00896387 -0.02081209 0.02388603
v -0.00907366 -0.01436468 -0.00150133
v -0.00910441 -0.01442217 0.02370689
v -0.00906841 -0.00812121 -0.00150100
v -0.00907934 -0.00810448 0.02353758
v -0.00907046 -0.00186630 -0.00149100
v -0.00910107 -0.00182444 0.02353692
v -0.00909829 0.00441770 -0.00149051
v -0.00917740 0.00453851 0.02357496
v -0.00917817 0.01078210 -0.00146801
v -0.00921135 0.01095937 0.02368599
v -0.00917998 0.01722930 -0.00135624
v -0.00938484 0.01730148 0.02376271
v -0.00923908 0.02372181 -0.00115330
v -0.00879238 0.02349037 0.02313770
v -0.01267416 0.03010315 -0.01829435
v -0.00937335 0.02946913 -0.00175929
v -0.00995194 0.03097258 0.01843733
v -0.00880082 0.02748116 0.02104159
v -0.00907235 0.03254802 -0.01632149
v -0.00899297 0.03579817 -0.01994831
v -0.00868917 0.03298551 -0.01001256
v -0.00949282 0.03256915 -0.00502781
v -0.00975342 0.03598302 0.01668884
v -0.00963516 0.03904247 -0.01689080
v -0.01085590 0.04005002 -0.01184909
v -0.00870455 0.04252987 -0.00879584
v -0.01275873 0.04265200 0.00730888
v -0.00945601 0.04179794 0.01050691
v -0.00824671 0.03907840 0.01389212
v -0.00882361 0.04475778 -0.00474510
v -0.00939416 0.04557585 0.00168028
v -0.00871416 0.04437842 0.00740622
v -0.00579725 -0.04608221 0.00352121
v -0.00081866 -0.04822559 0.00230164
v -0.00326238 -0.04551436 -0.00081217
v -0.00564705 -0.04614353 0.00769637
v -0.00287482 -0.04806167 0.00674084
v -0.00186185 -0.04588330 0.01090696
v -0.00163994 -0.04237385 -0.01714343
v -0.00450303 -0.03899762 -0.02045154
v -0.00297229 -0.04283177 -0.01135789
v -0.00358782 -0.04330296 -0.00488393
v -0.00633208 -0.03871595 0.01489998
v -0.00389491 -0.04212626 0.01353453
v -0.00243931 -0.03891869 0.01648030
v -0.00141242 -0.03387037 -0.02039526
v -0.00640616 -0.03398263 -0.01009083
v -0.00316818 -0.03279846 -0.01354631
v -0.00164211 -0.03590790 -0.00976439
v -0.00367094 -0.03627291 -0.00442590
v -0.00275770 -0.03317585 -0.00179876
v -0.00130054 -0.03419963 0.01822564
v -0.00338542 -0.03102172 -0.01713592
v -0.00268886 -0.02731809 -0.00114424
v -0.00418180 -0.03029142 0.02058090
v -0.00258827 -0.02648086 0.02309572
v -0.00277802 -0.02079896 -0.00139649
v -0.00264728 -0.02095743 0.02382874
v -0.00279973 -0.01439692 -0.00149788
v -0.00277623 -0.01455877 0.02364200
v -0.00281891 -0.00811173 -0.00149157
v -0.00279216 -0.00815546 0.02353764
v -0.00281933 -0.00186237 -0.00148743
v -0.00281550 -0.00186023 0.02353418
v -0.00281902 0.00438761 -0.00149122
v -0.00284185 0.00442998 0.02354526
v -0.00283883 0.01067320 -0.00149206
v -0.00292273 0.01079811 0.02361395
v -0.00284778 0.01707846 -0.00139463
v -0.00301833 0.01721881 0.02371388
v -0.00285944 0.02359455 -0.00117926
v -0.00219518 0.02264427 0.02383491
v -0.00296857 0.02931056 -0.00181833
v -0.00560010 0.03060345 0.02020161
v -0.00337754 0.02791762 0.02289219
v -0.00168858 0.03325695 -0.01706253
v -0.00392031 0.03577826 -0.02031269
v -0.00314457 0.03276636 -0.01099684
v -0.00309396 0.03239882 -0.00509543
v -0.00430890 0.03502658 0.01750423
v -0.00108697 0.03253024 0.02061021
v -0.00574150 0.04150752 -0.01765927
v -0.00189933 0.04116520 -0.02022219
v -0.00624729 0.04226958 -0.01294030
v -0.00409094 0.04225823 0.01140603
v -0.00119134 0.03907021 0.01446597
v -0.00205028 0.04460728 -0.01581393
v -0.00322432 0.04481675 -0.00949722
v -0.00212943 0.04543478 -0.00375536
v -0.00292288 0.04551985 0.00168953
v -0.00275289 0.04479053 0.00743221
v 0.00391128 -0.04800354 0.00286374
v 0.00193525 -0.04594621 -0.00138612
v 0.00192019 -0.04834657 0.00742486
v 0.00323802 -0.04630047 0.01108379
v 0.00467826 -0.04242169 -0.01693247
v 0.00166378 -0.03910479 -0.02040689
v 0.00333064 -0.04296024 -0.01127911
v 0.00393631 -0.04337229 -0.00457757
v 0.00302563 -0.04291405 0.01353885
v 0.00361244 -0.03777449 0.01662245
v 0.00471139 -0.03382128 -0.02031962
v 0.00179162 -0.03310230 -0.01414749
v 0.00502067 -0.03569077 -0.00951041
v 0.00232777 -0.03646741 -0.00511297
v 0.00385773 -0.03323196 -0.00183166
v 0.00434433 -0.03345537 0.01836628
v 0.00380209 -0.03106749 -0.01677429
v 0.00372244 -0.02745622 -0.00114330
v 0.00212343 -0.03042846 0.02063530
v 0.00377713 -0.02657475 0.02306226
v 0.00354319 -0.02095544 -0.00135166
v 0.00369056 -0.02107535 0.02380781
v 0.00353199 -0.01450455 -0.00146587
v 0.00354958 -0.01470431 0.02368741
v 0.00346039 -0.00813738 -0.00149101
v 0.00353916 -0.00825859 0.02357542
v 0.00343517 -0.00185160 -0.00148964
v 0.00346643 -0.00189201 0.02354208
v 0.00343565 0.00439825 -0.00149069
v 0.00343313 0.00439868 0.02353450
v 0.00343890 0.01064699 -0.00149297
v 0.00336594 0.01071926 0.02355757
v 0.00344386 0.01699486 -0.00140267
v 0.00335102 0.01713051 0.02372072
v 0.00344412 0.02348581 -0.00117201
v 0.00322060 0.02353452 0.02386557
v 0.00342130 0.02920745 -0.00172082
v 0.00287624 0.02909356 0.02272482
v 0.00461574 0.03334057 -0.01692131
v 0.00170544 0.03657527 -0.02053039
v 0.00325484 0.03275515 -0.01084015
v 0.00330182 0.03228085 -0.00492658
v 0.00275785 0.03532955 0.01744760
v 0.00373190 0.03207563 0.02013931
v 0.00437981 0.04082137 -0.02005845
v 0.00214408 0.04230743 0.01148161
v 0.00496905 0.03909829 0.01448826
v 0.00208080 0.04438205 -0.01789524
v 0.00334062 0.04495164 -0.01178594
v 0.00346466 0.04552496 -0.00454722
v 0.00365748 0.04548132 0.00192698
v 0.00367410 0.04468684 0.00756271
v 0.00626395 -0.04554044 0.00104277
v 0.00641654 -0.04583346 0.00722984
v 0.00954482 -0.04176877 -0.01627488
v 0.00846869 -0.03854774 -0.02007533
v 0.00992129 -0.04235158 -0.01075030
v 0.00997659 -0.04282224 -0.00461222
v 0.01023434 -0.04342089 0.00233455
v 0.00932456 -0.04244767 0.00933518
v 0.00697297 -0.04009230 0.01367518
v 0.01167841 -0.03964430 0.01180503
v 0.01049962 -0.03195824 -0.02036647
v 0.00648639 -0.03274969 -0.01208374
v 0.00942852 -0.03402205 -0.00807326
v 0.00846798 -0.03560585 -0.00464460
v 0.01059566 -0.03199234 -0.00188111
v 0.00906001 -0.03739632 0.01494368
v 0.01036875 -0.03307527 0.01754693
v 0.00992104 -0.02971486 -0.01660425
v 0.01071227 -0.03105378 -0.01047913
v 0.00918482 -0.02663003 -0.00108236
v 0.00805650 -0.03007106 0.02057681
v 0.01036691 -0.02545469 0.02283568
v 0.00993970 -0.02108574 -0.00123554
v 0.00913282 -0.02023780 0.02380427
v 0.00986502 -0.01464987 -0.00138377
v 0.00993487 -0.01478707 0.02373345
v 0.00979771 -0.00824620 -0.00146557
v 0.00987257 -0.00839879 0.02365628
v 0.00971518 -0.00188312 -0.00149027
v 0.00980082 -0.00199809 0.02357223
v 0.00968788 0.00440033 -0.00149582
v 0.00971626 0.00435715 0.02353547
v 0.00968613 0.01065604 -0.00150407
v 0.00968965 0.01064223 0.02358745
v 0.00969039 0.01699414 -0.00140898
v 0.00970770 0.01701699 0.02382223
v 0.00974101 0.02347108 -0.00111058
v 0.00932540 0.02370487 0.02323128
v 0.00981312 0.02921267 -0.00155917
v 0.00688029 0.02885318 0.02102376
v 0.00843369 0.03114249 0.01850400
v 0.01151043 0.02683167 0.02055373
v 0.01040612 0.03229238 -0.01687801
v 0.00939078 0.03583535 -0.01996121
v 0.00956748 0.03284387 -0.01083975
v 0.00976066 0.03235559 -0.00478861
v 0.00953010 0.03518124 0.01678884
v 0.00987416 0.03928847 -0.01695096
v 0.00600814 0.04223173 -0.01584797
v 0.00947728 0.04015774 -0.01244951
v 0.00736659 0.04256024 -0.01057446
v 0.01151981 0.04200502 -0.00818033
v 0.00798180 0.04223360 0.01119430
v 0.01119547 0.03909724 0.01364595
v 0.00952863 0.04480403 -0.00488687
v 0.00916780 0.04552492 0.00106521
v 0.01041768 0.04445204 0.00645346
v 0.01261322 -0.03901323 -0.01776496
v 0.01305963 -0.03979078 -0.01303923
v 0.01499514 -0.04003724 -0.00821595
v 0.01545842 -0.04161608 -0.00413395
v 0.01574067 -0.04204883 0.00180571
v 0.01457379 -0.04164181 0.00749358
v 0.01571530 -0.03962872 0.01084025
v 0.01702730 -0.03661615 -0.01635846
v 0.01460963 -0.03453775 -0.02034235
v 0.01730177 -0.03753554 -0.00990923
v 0.01213276 -0.03332208 -0.00505852
v 0.01536759 -0.03647805 0.01349917
v 0.01686472 -0.03182816 0.01650325
v 0.01302554 -0.02743728 -0.01822502
v 0.01675156 -0.02806950 -0.02007949
v 0.01501152 -0.02699996 -0.01472259
v 0.01554731 -0.02889560 -0.01035652
v 0.01516613 -0.03050732 -0.00483846
v 0.01625646 -0.02642933 -0.00174416
v 0.01250894 -0.02812336 0.02017077
v 0.01653969 -0.02675834 0.01843114
v 0.01740508 -0.02503018 -0.01593576
v 0.01548688 -0.02027375 -0.00113510
v 0.01528630 -0.02449609 0.02099381
v 0.01603026 -0.01988557 0.02291611
v 0.01627236 -0.01476909 -0.00125109
v 0.01547738 -0.01391745 0.02375569
v 0.01614815 -0.00840080 -0.00135242
v 0.01628270 -0.00847687 0.02373077
v 0.01604004 -0.00204817 -0.00142440
v 0.01619012 -0.00215254 0.02368657
v 0.01598075 0.00429534 -0.00148112
v 0.01613349 0.00415825 0.02368911
v 0.01597206 0.01059192 -0.00148435
v 0.01614456 0.01049885 0.02381313
v 0.01603890 0.01690927 -0.00127058
v 0.01601914 0.01698529 0.02390799
v 0.01614880 0.02342401 -0.00092497
v 0.01558813 0.02256814 0.02269697
v 0.01378223 0.02996189 -0.01673676
v 0.01738919 0.02628453 -0.01701578
v 0.01511658 0.03018083 -0.02002386
v 0.01669658 0.02922744 -0.01376360
v 0.01589271 0.02921877 -0.00187100
v 0.01525738 0.02959624 0.01807875
v 0.01644902 0.02547720 0.02013343
v 0.01716693 0.03534984 -0.02033624
v 0.01437016 0.03179435 -0.01203668
v 0.01542748 0.03203074 -0.00593959
v 0.01544279 0.03517891 0.01652947
v 0.01582860 0.03836473 -0.01695230
v 0.01535650 0.03953145 -0.01112080
v 0.01667393 0.04165536 -0.00689650
v 0.01253934 0.04177236 0.00932304
v 0.01551339 0.04260843 0.00551508
v 0.01675719 0.04002356 0.00785980
v 0.01691788 0.03811339 0.01304246
v 0.01492664 0.04398955 -0.00460870
v 0.01517462 0.04445840 0.00084590
v 0.01832121 -0.03902847 -0.00499832
v 0.01954988 -0.03957437 0.00031135
v 0.01883817 -0.03931460 0.00727090
v 0.02198667 -0.03535673 -0.01630470
v 0.02121739 -0.03221810 -0.02008515
v 0.02241027 -0.03591248 -0.01077936
v 0.02235063 -0.03708291 -0.00403389
v 0.02255415 -0.03736740 0.00273321
v 0.02196581 -0.03581053 0.00846494
v 0.01936884 -0.03368218 0.01363725
v 0.02306680 -0.03289122 0.01077953
v 0.02329044 -0.02575527 -0.02027657
v 0.01854278 -0.02633408 -0.01121891
v 0.01927874 -0.02722025 -0.00595847
v 0.02251084 -0.03097615 0.01411478
v 0.02217091 -0.02778416 0.01685431
v 0.02146650 -0.02356114 -0.01673095
v 0.02190955 -0.02379425 -0.01004684
v 0.02196484 -0.02426883 -0.00403258
v 0.02251820 -0.02008010 -0.00177064
v 0.01872831 -0.02169267 0.02011856
v 0.02338099 -0.02100322 0.01829262
v 0.02175821 -0.01397030 -0.00109839
v 0.02157453 -0.01814638 0.02091159
v 0.02239417 -0.01357109 0.02291414
v 0.02255810 -0.00851804 -0.00116092
v 0.02182407 -0.00762052 0.02380275
v 0.02244811 -0.00220657 -0.00127611
v 0.02265428 -0.00217557 0.02385060
v 0.02239544 0.00407843 -0.00132031
v 0.02251549 0.00420993 0.02386181
v 0.02247963 0.01043618 -0.00122792
v 0.02235260 0.01125263 0.02321770
v 0.02250308 0.01694869 -0.00098517
v 0.02081943 0.01814741 0.02269526
v 0.01973935 0.02299909 -0.01755580
v 0.02375508 0.01994268 -0.01676918
v 0.02139240 0.02372051 -0.01993365
v 0.02200359 0.02319730 -0.01417360
v 0.02200198 0.02374862 -0.00179341
v 0.01959330 0.02246453 0.02104817
v 0.02209083 0.02379300 0.01842170
v 0.02328237 0.01967081 0.02013568
v 0.02200282 0.02966774 -0.02110284
v 0.01891625 0.02988342 -0.00882985
v 0.02077371 0.02652324 -0.01166560
v 0.01956207 0.02907164 -0.00400114
v 0.02265566 0.02625131 -0.00600886
v 0.02167000 0.02985662 0.01658564
v 0.02329027 0.03470058 -0.01983960
v 0.01940033 0.03515670 0.01499418
v 0.02178029 0.03566679 0.01205710
v 0.02224539 0.03288199 0.01441952
v 0.02087132 0.03799878 -0.01763753
v 0.02238091 0.03856895 -0.01160881
v 0.02235877 0.03973009 -0.00494887
v 0.01923887 0.04217930 -0.00279306
v 0.02198494 0.03983472 0.00166857
v 0.01870392 0.04173451 0.00218180
v 0.02267057 0.03829912 0.00742761
v 0.02528036 -0.03278192 -0.01763492
v 0.02552726 -0.03347368 -0.01287375
v 0.02885694 -0.03305132 -0.00858352
v 0.02935372 -0.03606723 -0.00475448
v 0.02708723 -0.03598964 0.00191812
v 0.02590597 -0.03379013 0.00699010
v 0.03065733 -0.03253229 0.00503856
v 0.02854698 -0.02992693 -0.01556433
v 0.02797284 -0.02748419 -0.02004744
v 0.02931041 -0.03016033 -0.01084376
v 0.02771433 -0.03052504 0.00987542
v 0.02723815 -0.02890985 0.01443764
v 0.02790841 -0.02520529 0.01637737
v 0.02478787 -0.02083493 -0.01766934
v 0.02776321 -0.02054285 -0.02028463
v 0.02544314 -0.01958846 -0.01253707
v 0.02555706 -0.02096022 -0.00599405
v 0.02974757 -0.01950936 0.01689951
v 0.02671996 -0.01593606 -0.01726575
v 0.03033874 -0.01388419 -0.02005743
v 0.02805784 -0.01505844 -0.01364225
v 0.02893101 -0.01727523 -0.00872682
v 0.02830547 -0.01802628 -0.00404034
v 0.02781112 -0.01398496 -0.00192748
v 0.02519151 -0.01542622 0.02011515
v 0.02936096 -0.01400660 0.01843728
v 0.02872384 -0.01228037 -0.01665513
v 0.02935463 -0.00702230 -0.00163928
v 0.02805112 -0.01185183 0.02099285
v 0.02780908 -0.00741158 0.02287655
v 0.02805207 -0.00140105 -0.00107991
v 0.02822546 -0.00064022 0.02318341
v 0.02894714 0.00410329 -0.00100939
v 0.02723625 0.00538683 0.02271402
v 0.02892464 0.01124701 -0.00150451
v 0.02636047 0.01011707 0.02101362
v 0.02940837 0.01085996 0.01852804
v 0.02951303 0.00694494 0.02012946
v 0.02617417 0.01675765 -0.01742760
v 0.02909265 0.01406489 -0.01801360
v 0.02795044 0.01727311 -0.01985430
v 0.02794133 0.01658125 -0.01489483
v 0.02750640 0.01816947 -0.00198441
v 0.02512128 0.01500708 0.02055663
v 0.02846929 0.01697485 0.01812053
v 0.02847530 0.02305828 -0.02108144
v 0.02531213 0.02339176 -0.00879183
v 0.02715213 0.02025032 -0.01148780
v 0.02597672 0.02253665 -0.00403706
v 0.02901726 0.01993874 -0.00596237
v 0.02814531 0.02321056 0.01666100
v 0.02903265 0.02897276 -0.02003840
v 0.02545144 0.03009973 0.01374163
v 0.02861933 0.02947448 0.01128210
v 0.02870388 0.02603489 0.01453068
v 0.02766368 0.03285203 -0.01766872
v 0.02502732 0.03615571 -0.01564230
v 0.02862525 0.03314474 -0.01292665
v 0.02655374 0.03645215 -0.01042694
v 0.02923873 0.03503823 -0.00817553
v 0.02580032 0.03463222 0.00913716
v 0.02788774 0.03668026 0.00522847
v 0.02907108 0.03342849 0.00705328
v 0.02748036 0.03806332 -0.00564315
v 0.02764125 0.03830721 0.00071378
v 0.03546197 -0.03565383 -0.00333655
v 0.03392357 -0.03358168 -0.00646182
v 0.03340085 -0.03582759 0.00083582
v 0.03524808 -0.03244242 0.00351059
v 0.03185780 -0.02619752 -0.01767600
v 0.03218979 -0.02693211 -0.01284458
v 0.03401226 -0.02891194 -0.00804364
v 0.03188342 -0.02704351 0.00862888
v 0.03468977 -0.02740543 0.00557604
v 0.03050985 -0.02705031 0.01293908
v 0.03505705 -0.02349240 -0.01566876
v 0.03307852 -0.02105122 -0.02009355
v 0.03544082 -0.02479105 -0.01048599
v 0.03453452 -0.02317309 0.00886959
v 0.03220706 -0.02253260 0.01339539
v 0.03544953 -0.01947104 0.01181977
v 0.03491650 -0.01526491 -0.02016859
v 0.03074828 -0.01248259 -0.01122104
v 0.03085778 -0.01479484 -0.00547094
v 0.03406904 -0.01778934 0.01505897
v 0.03414050 -0.01379745 0.01656932
v 0.03102765 -0.00896649 -0.01695824
v 0.03466610 -0.00802659 -0.01993364
v 0.03240678 -0.00706053 -0.01225812
v 0.03213253 -0.00975968 -0.00560567
v 0.03119690 -0.00863642 0.02021257
v 0.03441859 -0.00735735 0.01754194
v 0.03267181 -0.00240449 -0.01721880
v 0.03457282 -0.00083814 -0.02032204
v 0.03447549 -0.00220748 -0.01354573
v 0.03527914 -0.00479305 -0.00898830
v 0.03460784 -0.00544734 -0.00418333
v 0.03422163 -0.00128532 -0.00192810
v 0.03214716 -0.00339653 0.02069210
v 0.03504115 -0.00042938 0.01752323
v 0.03277236 0.00496763 -0.01681859
v 0.03551453 0.00430724 -0.02044375
v 0.03482950 0.00282017 -0.01410767
v 0.03395441 0.00542165 -0.00199053
v 0.03156703 0.00244305 0.02066335
v 0.03402132 0.00582180 0.01742901
v 0.03155154 0.01107569 -0.01655343
v 0.03484916 0.01030725 -0.01988154
v 0.03445509 0.00707363 -0.01153148
v 0.03241555 0.01101714 -0.01011749
v 0.03253005 0.01043236 -0.00405979
v 0.03526867 0.00744421 -0.00613421
v 0.03431698 0.01187754 0.01677430
v 0.03421725 0.01656328 -0.02024797
v 0.03067555 0.01644608 -0.01035865
v 0.03096213 0.01530177 -0.00483560
v 0.03374371 0.01764745 0.01655442
v 0.03448414 0.02266266 -0.01989646
v 0.03193987 0.02358116 0.01401276
v 0.03455790 0.02416183 0.01094310
v 0.03563110 0.02034430 0.01375667
v 0.03438304 0.02631045 -0.01766467
v 0.03148807 0.02953697 -0.01574784
v 0.03511986 0.02624582 -0.01263846
v 0.03186858 0.03050916 -0.00938989
v 0.03485667 0.02639222 -0.00618113
v 0.03247855 0.03048201 -0.00310321
v 0.03473082 0.02664120 0.00020468
v 0.03256002 0.02975218 0.00256177
v 0.03475131 0.02624663 0.00620973
v 0.03173690 0.02902909 0.00807004
v 0.03084464 0.03525430 -0.00416174
v 0.03092835 0.03424538 0.00200099
v 0.03739085 -0.03177496 -0.00379048
v 0.03725278 -0.03389411 0.00038667
v 0.03755299 -0.02549502 -0.00484771
v 0.03769090 -0.02790845 0.00177971
v 0.03699638 -0.01896222 -0.01687298
v 0.03739363 -0.02149564 -0.01096728
v 0.03873987 -0.01983029 -0.00574822
v 0.03872465 -0.02086107 0.00112464
v 0.03716554 -0.02087368 0.00746111
v 0.03717359 -0.01349132 -0.01773191
v 0.03884004 -0.01481150 -0.01226649
v 0.04070152 -0.01566608 -0.00739534
v 0.04112011 -0.01759676 -0.00280042
v 0.04077721 -0.01694418 0.00217665
v 0.03903475 -0.01501404 0.00783435
v 0.04169105 -0.01366752 0.00538137
v 0.03697338 -0.01523337 0.01307505
v 0.03876325 -0.00847621 -0.01737920
v 0.04081187 -0.00913679 -0.01398789
v 0.04156400 -0.01199529 -0.01028405
v 0.04085467 -0.01071073 0.00919050
v 0.03808845 -0.00954252 0.01359347
v 0.04128449 -0.00612364 0.01106668
v 0.04176138 -0.00557287 -0.01697818
v 0.03931227 -0.00227187 -0.02026737
v 0.03737917 0.00009018 -0.01020898
v 0.03741942 -0.00208278 -0.00569951
v 0.03814268 -0.00321793 0.01445591
v 0.04131108 -0.00025003 0.01146721
v 0.04066134 0.00367483 -0.02008858
v 0.03707840 0.00470238 -0.00957388
v 0.03761151 0.00257127 -0.00505936
v 0.03811500 0.00287200 0.01444129
v 0.04126483 0.00595879 0.01149628
v 0.04055774 0.00752978 -0.01826744
v 0.03846924 0.01220895 -0.01670532
v 0.04179795 0.00945615 -0.01487235
v 0.03816255 0.00985887 0.01381616
v 0.04084741 0.01129632 0.01058059
v 0.03753955 0.01817426 -0.01683282
v 0.04081998 0.01320971 -0.01195054
v 0.03903276 0.01758478 -0.01061429
v 0.04164732 0.01628324 -0.00814288
v 0.03907930 0.01677331 0.00890065
v 0.04083347 0.01837685 0.00460628
v 0.04169179 0.01463227 0.00742914
v 0.03720793 0.01630608 0.01375925
v 0.03707343 0.02304240 -0.01631257
v 0.03744281 0.02233625 -0.01105453
v 0.04079991 0.01962350 -0.00492684
v 0.03795606 0.02279997 -0.00386783
v 0.04119591 0.02027869 0.00004048
v 0.03796472 0.02265142 0.00342050
v 0.03703275 0.02181947 0.00936959
v 0.04346803 -0.01291128 -0.00509580
v 0.04333400 -0.01404088 0.00123781
v 0.04360995 -0.00734336 -0.01109751
v 0.04450978 -0.00752954 -0.00390674
v 0.04458213 -0.00842939 0.00168770
v 0.04339043 -0.00936897 0.00666644
v 0.04368935 -0.00123826 -0.01666767
v 0.04449835 -0.00137074 -0.01054227
v 0.04440054 -0.00205442 -0.00475703
v 0.04452001 -0.00193749 0.00188369
v 0.04378776 -0.00329528 0.00750381
v 0.04358368 0.00518122 -0.01629738
v 0.04462539 0.00427445 -0.01130230
v 0.04449111 0.00443910 -0.00473893
v 0.04440022 0.00462703 0.00190235
v 0.04369855 0.00317391 0.00763954
v 0.04357288 0.01102499 -0.01041114
v 0.04453648 0.01098762 -0.00453451
v 0.04447092 0.01019804 0.00109695
v 0.04345321 0.01005766 0.00714982
v 0.04335202 0.01670918 -0.00406675
v 0.04351591 0.01557099 0.00228193
f 3 2 1
f 5 4 1
f 5 1 2
f 7 6 4
f 7 4 5
f 8 6 7
f 11 10 9
f 9 10 3
f 1 9 3
f 12 9 1
f 13 1 4
f 12 1 13
f 14 4 6
f 13 4 14
f 6 8 15
f 6 15 14
f 18 17 16
f 16 17 11
f 9 16 11
f 19 16 9
f 20 9 12
f 19 9 20
f 21 12 13
f 20 12 21
f 22 13 14
f 21 13 22
f 14 15 23
f 24 14 23
f 22 14 24
f 25 24 23
f 18 16 26
f 18 26 27
f 28 16 19
f 26 16 28
f 29 19 20
f 28 19 29
f 30 20 21
f 29 20 30
f 31 21 22
f 30 21 31
f 24 33 32
f 31 24 32
f 22 24 31
f 33 24 25
f 34 27 26
f 36 35 34
f 26 36 34
f 28 36 26
f 37 28 29
f 36 28 37
f 38 29 30
f 37 29 38
f 39 30 31
f 38 30 39
f 31 32 40
f 31 40 39
f 41 35 36
f 43 42 41
f 36 43 41
f 37 43 36
f 44 37 38
f 43 37 44
f 39 46 45
f 44 39 45
f 38 39 44
f 46 39 40
f 47 42 43
f 47 43 44
f 47 44 48
f 48 44 45
f 51 50 49
f 52 49 50
f 51 49 53
f 51 53 54
f 49 52 55
f 56 49 55
f 53 49 56
f 57 56 55
f 60 59 58
f 62 61 58
f 62 58 59
f 61 62 54
f 53 61 54
f 63 61 53
f 64 53 56
f 63 53 64
f 56 57 65
f 66 56 65
f 64 56 66
f 68 67 66
f 68 66 65
f 69 67 68
f 60 58 70
f 60 70 71
f 72 58 61
f 70 58 72
f 3 72 2
f 72 63 2
f 72 61 63
f 2 63 5
f 5 63 64
f 5 64 7
f 7 64 66
f 7 66 8
f 66 73 8
f 66 67 73
f 67 69 74
f 67 74 73
f 71 70 75
f 71 75 76
f 11 75 10
f 75 72 10
f 75 70 72
f 10 72 3
f 77 15 73
f 73 15 8
f 73 74 78
f 73 78 77
f 76 75 17
f 18 76 17
f 79 76 18
f 17 75 11
f 82 81 80
f 84 83 81
f 81 83 80
f 84 85 83
f 77 23 15
f 25 23 77
f 78 25 77
f 86 25 78
f 27 79 18
f 27 87 79
f 81 82 88
f 88 82 89
f 81 90 84
f 81 88 90
f 85 84 91
f 91 84 90
f 92 32 33
f 93 92 33
f 25 93 33
f 86 93 25
f 27 34 94
f 95 27 94
f 87 27 95
f 89 96 88
f 94 34 35
f 88 96 90
f 90 96 97
f 90 97 91
f 98 40 92
f 92 40 32
f 92 93 99
f 92 99 98
f 95 94 100
f 95 100 101
f 41 102 35
f 102 94 35
f 102 100 94
f 42 102 41
f 103 45 46
f 40 98 46
f 98 103 46
f 98 104 103
f 98 99 105
f 98 105 104
f 101 100 106
f 101 106 107
f 108 100 102
f 106 100 108
f 47 109 42
f 109 102 42
f 109 108 102
f 48 110 47
f 47 110 109
f 45 103 48
f 103 110 48
f 103 111 110
f 104 113 112
f 111 104 112
f 103 104 111
f 113 104 105
f 114 107 106
f 114 106 108
f 114 108 115
f 117 116 115
f 108 117 115
f 109 117 108
f 118 109 110
f 117 109 118
f 111 120 119
f 118 111 119
f 110 111 118
f 120 111 112
f 116 117 121
f 116 121 122
f 118 124 123
f 121 118 123
f 117 118 121
f 124 118 119
f 125 122 121
f 125 121 123
f 127 126 50
f 127 50 51
f 129 128 52
f 50 129 52
f 126 129 50
f 130 128 129
f 133 132 131
f 135 134 131
f 135 131 132
f 135 127 134
f 127 54 134
f 127 51 54
f 128 55 52
f 137 136 57
f 137 57 55
f 130 137 55
f 128 130 55
f 139 138 136
f 139 136 137
f 140 138 139
f 133 131 59
f 60 133 59
f 141 133 60
f 59 131 62
f 62 131 134
f 62 134 54
f 136 65 57
f 65 136 68
f 68 136 138
f 69 68 138
f 140 69 138
f 142 69 140
f 71 141 60
f 71 143 141
f 146 145 144
f 148 147 144
f 144 147 146
f 148 149 147
f 142 74 69
f 150 74 142
f 76 152 151
f 143 76 151
f 71 76 143
f 151 152 145
f 152 144 145
f 152 153 144
f 144 154 148
f 144 153 154
f 149 148 155
f 155 148 154
f 157 78 156
f 78 150 156
f 78 74 150
f 158 157 156
f 79 159 152
f 79 152 76
f 159 82 80
f 153 159 80
f 152 159 153
f 153 80 83
f 153 83 154
f 83 85 154
f 85 155 154
f 85 160 155
f 161 86 157
f 157 86 78
f 157 158 162
f 157 162 161
f 87 163 159
f 87 159 79
f 163 89 82
f 163 82 159
f 91 160 85
f 91 164 160
f 165 93 161
f 161 93 86
f 161 162 166
f 161 166 165
f 95 167 163
f 95 163 87
f 168 96 89
f 163 168 89
f 167 168 163
f 169 97 96
f 169 96 168
f 169 170 97
f 170 91 97
f 170 164 91
f 171 99 165
f 165 99 93
f 165 166 172
f 165 172 171
f 174 173 167
f 95 174 167
f 101 174 95
f 176 175 173
f 175 167 173
f 175 168 167
f 168 177 169
f 168 175 177
f 170 169 178
f 178 169 177
f 180 179 171
f 179 99 171
f 179 105 99
f 180 171 172
f 107 174 101
f 107 181 174
f 176 182 175
f 175 182 177
f 177 182 183
f 177 183 178
f 184 112 113
f 185 184 113
f 105 185 113
f 179 185 105
f 107 114 186
f 187 107 186
f 181 107 187
f 115 188 114
f 114 188 186
f 116 188 115
f 189 119 120
f 190 189 120
f 190 120 112
f 191 190 112
f 184 191 112
f 191 184 185
f 192 187 186
f 192 186 188
f 192 188 193
f 188 116 193
f 116 194 193
f 116 122 194
f 195 123 124
f 196 195 124
f 196 124 119
f 197 196 119
f 189 197 119
f 197 189 190
f 198 194 122
f 198 122 125
f 125 123 195
f 199 125 195
f 198 125 199
f 199 195 196
f 202 201 200
f 204 203 200
f 204 200 201
f 126 127 203
f 204 126 203
f 205 126 204
f 126 206 129
f 205 206 126
f 208 207 130
f 129 208 130
f 206 208 129
f 210 209 207
f 210 207 208
f 211 209 210
f 202 200 132
f 133 202 132
f 212 202 133
f 132 200 135
f 135 200 203
f 135 203 127
f 207 137 130
f 137 207 139
f 139 207 209
f 140 139 209
f 211 140 209
f 213 140 211
f 141 215 214
f 212 141 214
f 133 141 212
f 217 216 215
f 215 216 214
f 219 218 217
f 217 218 216
f 219 220 218
f 222 142 221
f 142 213 221
f 142 140 213
f 223 222 221
f 143 224 215
f 143 215 141
f 224 145 146
f 217 224 146
f 215 224 217
f 217 146 147
f 217 147 219
f 147 149 219
f 149 220 219
f 149 225 220
f 226 150 222
f 222 150 142
f 222 223 227
f 222 227 226
f 151 224 143
f 224 151 145
f 155 225 149
f 155 228 225
f 226 156 150
f 158 156 226
f 227 158 226
f 229 158 227
f 160 228 155
f 160 230 228
f 229 162 158
f 231 162 229
f 164 230 160
f 164 232 230
f 231 166 162
f 233 166 231
f 170 232 164
f 170 234 232
f 233 172 166
f 235 172 233
f 174 236 173
f 236 176 173
f 178 234 170
f 178 237 234
f 238 179 180
f 239 238 180
f 172 239 180
f 235 239 172
f 241 240 236
f 174 241 236
f 181 241 174
f 240 243 242
f 240 242 182
f 236 240 182
f 176 236 182
f 244 183 182
f 244 182 242
f 244 245 183
f 245 178 183
f 245 237 178
f 247 246 238
f 246 179 238
f 246 185 179
f 247 238 239
f 187 241 181
f 187 248 241
f 243 249 242
f 242 249 244
f 244 249 250
f 244 250 245
f 251 190 191
f 252 251 191
f 185 252 191
f 246 252 185
f 187 192 253
f 254 187 253
f 248 187 254
f 193 255 192
f 192 255 253
f 194 255 193
f 256 196 197
f 257 256 197
f 257 197 190
f 258 257 190
f 251 258 190
f 258 251 252
f 259 254 253
f 259 253 255
f 259 255 260
f 260 255 194
f 198 260 194
f 261 260 198
f 262 198 199
f 262 261 198
f 199 196 256
f 263 199 256
f 262 199 263
f 263 256 257
f 266 265 264
f 268 267 264
f 268 264 265
f 270 269 267
f 270 267 268
f 271 269 270
f 273 272 201
f 273 201 202
f 201 274 204
f 272 274 201
f 264 205 266
f 205 274 266
f 205 204 274
f 205 264 206
f 206 264 267
f 206 267 208
f 208 267 269
f 271 275 269
f 275 208 269
f 275 210 208
f 211 210 275
f 211 275 276
f 212 273 202
f 212 277 273
f 280 279 278
f 282 281 278
f 278 281 280
f 282 283 281
f 276 213 211
f 284 213 276
f 285 277 212
f 285 212 214
f 216 278 279
f 285 216 279
f 214 216 285
f 278 216 218
f 278 218 282
f 218 220 282
f 220 283 282
f 220 286 283
f 284 287 213
f 213 287 221
f 223 221 287
f 223 287 288
f 225 286 220
f 225 289 286
f 288 227 223
f 290 227 288
f 228 289 225
f 228 291 289
f 290 229 227
f 292 229 290
f 230 291 228
f 230 293 291
f 292 231 229
f 294 231 292
f 232 293 230
f 232 295 293
f 294 233 231
f 296 233 294
f 234 295 232
f 234 297 295
f 296 235 233
f 298 235 296
f 237 297 234
f 237 299 297
f 298 239 235
f 300 239 298
f 241 301 240
f 301 243 240
f 245 299 237
f 245 302 299
f 303 246 247
f 304 303 247
f 239 304 247
f 300 304 239
f 306 305 301
f 241 306 301
f 248 306 241
f 305 308 307
f 305 307 249
f 301 305 249
f 243 301 249
f 309 250 249
f 309 249 307
f 309 310 250
f 310 245 250
f 310 302 245
f 312 311 303
f 311 246 303
f 311 252 246
f 312 303 304
f 254 306 248
f 254 313 306
f 308 314 307
f 307 314 309
f 309 314 315
f 309 315 310
f 316 257 258
f 317 316 258
f 252 317 258
f 311 317 252
f 318 313 254
f 318 254 259
f 319 259 260
f 319 318 259
f 321 319 320
f 319 261 320
f 319 260 261
f 262 322 261
f 261 322 320
f 322 262 323
f 262 324 323
f 262 263 324
f 263 257 316
f 325 263 316
f 324 263 325
f 325 316 317
f 326 321 320
f 326 320 322
f 326 322 327
f 327 322 323
f 330 329 328
f 332 331 328
f 332 328 329
f 265 266 331
f 332 265 331
f 333 265 332
f 265 334 268
f 333 334 265
f 268 335 270
f 334 335 268
f 271 270 335
f 271 335 336
f 330 328 272
f 273 330 272
f 337 330 273
f 272 328 274
f 274 328 331
f 274 331 266
f 340 339 338
f 339 341 338
f 336 342 271
f 271 342 275
f 276 275 342
f 276 342 343
f 277 345 344
f 337 277 344
f 273 277 337
f 279 280 345
f 280 344 345
f 280 346 344
f 281 339 340
f 346 281 340
f 280 281 346
f 281 283 339
f 283 341 339
f 283 347 341
f 349 284 348
f 284 343 348
f 284 276 343
f 350 349 348
f 285 345 277
f 345 285 279
f 286 347 283
f 286 351 347
f 349 287 284
f 288 287 349
f 350 288 349
f 352 288 350
f 289 351 286
f 289 353 351
f 352 290 288
f 354 290 352
f 291 353 289
f 291 355 353
f 354 292 290
f 356 292 354
f 293 355 291
f 293 357 355
f 356 294 292
f 358 294 356
f 295 357 293
f 295 359 357
f 358 296 294
f 360 296 358
f 297 359 295
f 297 361 359
f 360 298 296
f 362 298 360
f 299 361 297
f 299 363 361
f 362 300 298
f 364 300 362
f 302 363 299
f 302 365 363
f 364 304 300
f 366 304 364
f 306 367 305
f 367 308 305
f 310 365 302
f 310 368 365
f 370 369 312
f 312 369 311
f 312 304 366
f 312 366 370
f 372 371 367
f 306 372 367
f 313 372 306
f 367 371 308
f 371 314 308
f 371 373 314
f 314 374 315
f 373 374 314
f 310 315 368
f 368 315 374
f 369 317 311
f 375 317 369
f 376 372 313
f 376 313 318
f 377 318 319
f 377 376 318
f 319 321 377
f 377 321 378
f 379 323 324
f 379 324 380
f 324 381 380
f 324 325 381
f 325 317 375
f 325 375 381
f 382 378 321
f 382 321 326
f 383 326 327
f 383 382 326
f 327 323 379
f 384 327 379
f 383 327 384
f 384 379 380
f 387 386 385
f 389 388 385
f 389 385 386
f 390 388 389
f 392 391 329
f 392 329 330
f 329 393 332
f 391 393 329
f 332 394 333
f 393 394 332
f 385 334 387
f 334 394 387
f 334 333 394
f 334 385 335
f 335 385 388
f 396 395 336
f 396 336 335
f 390 396 335
f 388 390 335
f 397 395 396
f 337 392 330
f 337 398 392
f 401 400 399
f 340 338 399
f 338 401 399
f 338 402 401
f 338 341 402
f 402 341 403
f 395 342 336
f 343 342 395
f 397 343 395
f 404 343 397
f 405 398 337
f 405 337 344
f 346 399 400
f 405 346 400
f 344 346 405
f 399 346 340
f 347 403 341
f 347 406 403
f 404 407 343
f 343 407 348
f 350 348 407
f 350 407 408
f 351 406 347
f 351 409 406
f 408 352 350
f 410 352 408
f 353 409 351
f 353 411 409
f 410 354 352
f 412 354 410
f 355 411 353
f 355 413 411
f 412 356 354
f 414 356 412
f 357 413 355
f 357 415 413
f 414 358 356
f 416 358 414
f 359 415 357
f 359 417 415
f 416 360 358
f 418 360 416
f 361 417 359
f 361 419 417
f 418 362 360
f 420 362 418
f 363 419 361
f 363 421 419
f 420 364 362
f 422 364 420
f 365 421 363
f 365 423 421
f 422 366 364
f 424 366 422
f 368 423 365
f 368 425 423
f 426 369 370
f 427 426 370
f 366 427 370
f 424 427 366
f 429 428 371
f 429 371 372
f 371 430 373
f 428 430 371
f 373 431 374
f 430 431 373
f 368 374 425
f 425 374 431
f 433 432 426
f 432 369 426
f 432 375 369
f 433 426 427
f 372 376 434
f 435 372 434
f 429 372 435
f 377 436 376
f 376 436 434
f 378 436 377
f 438 437 381
f 381 437 380
f 381 375 432
f 381 432 438
f 439 435 434
f 439 434 436
f 439 436 440
f 440 436 378
f 382 440 378
f 441 440 382
f 442 382 383
f 442 441 382
f 443 383 384
f 443 442 383
f 384 380 437
f 384 437 443
f 445 444 386
f 445 386 387
f 386 446 389
f 444 446 386
f 390 389 446
f 390 446 447
f 449 448 391
f 449 391 392
f 391 450 393
f 448 450 391
f 393 451 394
f 450 451 393
f 387 394 445
f 445 394 451
f 447 452 390
f 390 452 396
f 397 396 452
f 397 452 453
f 398 449 392
f 398 454 449
f 456 455 401
f 401 455 400
f 457 401 402
f 457 456 401
f 402 403 457
f 457 403 458
f 453 404 397
f 459 404 453
f 460 454 398
f 460 398 405
f 405 400 455
f 405 455 460
f 406 458 403
f 406 461 458
f 459 462 404
f 404 462 407
f 408 407 462
f 408 462 463
f 409 461 406
f 409 464 461
f 463 410 408
f 465 410 463
f 411 464 409
f 411 466 464
f 465 412 410
f 467 412 465
f 413 466 411
f 413 468 466
f 467 414 412
f 469 414 467
f 415 468 413
f 415 470 468
f 469 416 414
f 471 416 469
f 417 470 415
f 417 472 470
f 471 418 416
f 473 418 471
f 419 472 417
f 419 474 472
f 473 420 418
f 475 420 473
f 421 474 419
f 421 476 474
f 475 422 420
f 477 422 475
f 423 476 421
f 423 478 476
f 477 424 422
f 479 424 477
f 425 478 423
f 425 480 478
f 479 427 424
f 481 427 479
f 483 482 428
f 483 428 429
f 428 484 430
f 482 484 428
f 430 485 431
f 484 485 430
f 425 431 480
f 480 431 485
f 487 486 433
f 433 486 432
f 433 427 481
f 433 481 487
f 435 483 429
f 435 488 483
f 490 489 438
f 438 489 437
f 438 432 486
f 438 486 490
f 491 488 435
f 491 435 439
f 492 439 440
f 492 491 439
f 493 440 441
f 493 492 440
f 494 441 442
f 494 493 441
f 495 442 443
f 495 494 442
f 443 437 489
f 443 489 495
f 445 496 444
f 497 446 444
f 497 444 496
f 497 447 446
f 499 498 448
f 499 448 449
f 448 500 450
f 498 500 448
f 450 501 451
f 500 501 450
f 445 451 496
f 451 502 496
f 451 501 502
f 496 502 497
f 497 502 503
f 503 505 504
f 503 504 452
f 497 503 452
f 447 497 452
f 504 453 452
f 454 499 449
f 454 506 499
f 507 455 456
f 507 456 508
f 456 509 508
f 456 457 509
f 457 458 509
f 509 458 510
f 505 511 504
f 453 504 511
f 512 453 511
f 459 453 512
f 513 506 454
f 513 454 460
f 460 455 507
f 514 460 507
f 513 460 514
f 514 507 508
f 461 510 458
f 461 515 510
f 512 516 459
f 459 516 462
f 463 462 516
f 463 516 517
f 464 515 461
f 464 518 515
f 517 465 463
f 519 465 517
f 466 518 464
f 466 520 518
f 519 467 465
f 521 467 519
f 468 520 466
f 468 522 520
f 521 469 467
f 523 469 521
f 470 522 468
f 470 524 522
f 523 471 469
f 525 471 523
f 472 524 470
f 472 526 524
f 525 473 471
f 527 473 525
f 474 526 472
f 474 528 526
f 527 475 473
f 529 475 527
f 476 528 474
f 476 530 528
f 529 477 475
f 531 477 529
f 478 530 476
f 478 532 530
f 531 479 477
f 533 479 531
f 480 532 478
f 480 534 532
f 537 536 535
f 533 537 535
f 481 533 535
f 479 533 481
f 539 538 482
f 539 482 483
f 482 540 484
f 538 540 482
f 484 541 485
f 540 541 484
f 480 485 534
f 534 485 541
f 535 536 487
f 536 486 487
f 536 542 486
f 535 487 481
f 488 544 543
f 539 488 543
f 483 488 539
f 546 545 544
f 544 545 543
f 546 547 545
f 549 548 490
f 490 548 489
f 490 486 542
f 490 542 549
f 491 544 488
f 544 491 492
f 544 492 546
f 550 547 546
f 492 550 546
f 493 550 492
f 551 493 494
f 551 550 493
f 552 494 495
f 552 551 494
f 495 489 548
f 495 548 552
f 499 553 498
f 554 500 498
f 554 498 553
f 500 554 555
f 556 500 555
f 501 500 556
f 501 557 502
f 556 557 501
f 502 558 503
f 557 558 502
f 505 503 558
f 505 558 559
f 561 560 553
f 499 561 553
f 506 561 499
f 553 560 554
f 554 560 562
f 563 508 509
f 562 555 554
f 510 563 509
f 559 564 505
f 505 564 511
f 512 511 564
f 512 564 565
f 506 513 566
f 567 506 566
f 561 506 567
f 566 513 568
f 513 569 568
f 513 514 569
f 514 508 563
f 570 514 563
f 569 514 570
f 563 510 570
f 510 571 570
f 510 515 571
f 516 512 572
f 512 573 572
f 512 565 573
f 572 517 516
f 574 567 566
f 574 566 568
f 518 571 515
f 518 575 571
f 573 576 572
f 517 572 576
f 577 517 576
f 519 517 577
f 520 575 518
f 520 578 575
f 577 521 519
f 579 521 577
f 522 578 520
f 522 580 578
f 579 523 521
f 581 523 579
f 524 580 522
f 524 582 580
f 581 525 523
f 583 525 581
f 526 582 524
f 526 584 582
f 583 527 525
f 585 527 583
f 528 584 526
f 528 586 584
f 585 529 527
f 587 529 585
f 530 586 528
f 530 588 586
f 587 531 529
f 589 531 587
f 532 588 530
f 532 590 588
f 589 533 531
f 591 533 589
f 594 593 592
f 595 592 593
f 534 590 532
f 534 596 590
f 598 597 537
f 537 597 536
f 537 533 591
f 537 591 598
f 594 592 538
f 539 594 538
f 599 594 539
f 595 600 592
f 600 538 592
f 600 540 538
f 540 601 541
f 600 601 540
f 534 541 596
f 596 541 601
f 597 542 536
f 602 542 597
f 603 599 539
f 603 539 543
f 604 543 545
f 604 603 543
f 545 547 604
f 604 547 605
f 608 607 606
f 548 549 606
f 549 608 606
f 549 609 608
f 549 542 602
f 549 602 609
f 610 605 547
f 610 547 550
f 611 550 551
f 611 610 550
f 552 606 607
f 611 552 607
f 551 552 611
f 606 552 548
f 555 612 556
f 613 557 556
f 613 556 612
f 614 558 557
f 614 557 613
f 614 559 558
f 616 615 560
f 616 560 561
f 560 617 562
f 615 617 560
f 555 562 612
f 562 618 612
f 562 617 618
f 612 618 613
f 613 618 619
f 613 619 614
f 614 619 620
f 620 622 621
f 620 621 564
f 614 620 564
f 559 614 564
f 621 565 564
f 567 616 561
f 567 623 616
f 624 568 569
f 570 625 569
f 569 625 624
f 571 625 570
f 622 626 621
f 565 621 626
f 627 565 626
f 573 565 627
f 628 623 567
f 628 567 574
f 574 568 624
f 629 574 624
f 628 574 629
f 629 624 625
f 629 625 630
f 625 571 630
f 571 631 630
f 571 575 631
f 576 573 632
f 573 633 632
f 573 627 633
f 632 577 576
f 578 631 575
f 578 634 631
f 633 635 632
f 577 632 635
f 636 577 635
f 579 577 636
f 580 634 578
f 580 637 634
f 636 581 579
f 638 581 636
f 582 637 580
f 582 639 637
f 638 583 581
f 640 583 638
f 584 639 582
f 584 641 639
f 640 585 583
f 642 585 640
f 586 641 584
f 586 643 641
f 642 587 585
f 644 587 642
f 588 643 586
f 588 645 643
f 644 589 587
f 646 589 644
f 649 648 647
f 650 647 648
f 590 645 588
f 590 651 645
f 654 653 652
f 646 654 652
f 591 646 652
f 589 646 591
f 649 647 593
f 594 649 593
f 655 649 594
f 657 656 595
f 657 595 593
f 650 657 593
f 647 650 593
f 659 658 656
f 659 656 657
f 659 651 658
f 651 596 658
f 651 590 596
f 652 653 598
f 653 597 598
f 653 660 597
f 652 598 591
f 599 655 594
f 599 661 655
f 656 600 595
f 600 656 601
f 601 656 658
f 601 658 596
f 664 663 662
f 660 664 662
f 602 660 662
f 597 660 602
f 665 661 599
f 665 599 603
f 666 603 604
f 666 665 603
f 668 667 605
f 667 604 605
f 667 666 604
f 670 669 668
f 668 669 667
f 607 608 670
f 608 669 670
f 608 671 669
f 609 662 663
f 671 609 663
f 608 609 671
f 662 609 602
f 610 668 605
f 668 610 611
f 668 611 670
f 670 611 607
f 616 672 615
f 673 617 615
f 673 615 672
f 617 673 674
f 675 617 674
f 618 617 675
f 618 676 619
f 675 676 618
f 676 678 677
f 620 676 677
f 619 676 620
f 677 622 620
f 680 679 672
f 616 680 672
f 623 680 616
f 672 679 673
f 673 679 681
f 673 681 674
f 678 682 677
f 677 682 622
f 682 626 622
f 682 683 626
f 627 626 683
f 627 683 684
f 623 628 685
f 686 623 685
f 680 623 686
f 629 687 628
f 628 687 685
f 630 688 629
f 629 688 687
f 631 688 630
f 684 633 627
f 689 633 684
f 686 685 690
f 686 690 691
f 687 693 692
f 690 687 692
f 685 687 690
f 693 687 688
f 693 688 694
f 688 631 694
f 631 695 694
f 631 634 695
f 635 633 696
f 633 697 696
f 633 689 697
f 696 636 635
f 698 691 690
f 698 690 692
f 637 695 634
f 637 699 695
f 697 700 696
f 636 696 700
f 701 636 700
f 638 636 701
f 639 699 637
f 639 702 699
f 701 640 638
f 703 640 701
f 641 702 639
f 641 704 702
f 703 642 640
f 705 642 703
f 643 704 641
f 643 706 704
f 709 708 707
f 705 709 707
f 644 705 707
f 642 705 644
f 712 711 710
f 713 710 711
f 645 706 643
f 645 714 706
f 707 708 715
f 715 708 716
f 715 646 644
f 715 644 707
f 712 710 648
f 649 712 648
f 717 712 649
f 719 718 650
f 719 650 648
f 713 719 648
f 710 713 648
f 721 720 718
f 721 718 719
f 721 714 720
f 714 651 720
f 714 645 651
f 715 716 654
f 716 653 654
f 716 722 653
f 715 654 646
f 655 717 649
f 655 723 717
f 718 657 650
f 657 718 659
f 659 718 720
f 659 720 651
f 726 725 724
f 722 726 724
f 660 722 724
f 653 722 660
f 661 728 727
f 723 661 727
f 655 661 723
f 730 729 728
f 728 729 727
f 730 731 729
f 734 733 732
f 734 732 725
f 725 732 724
f 732 663 724
f 663 664 724
f 724 664 660
f 665 728 661
f 728 665 666
f 728 666 730
f 735 731 730
f 666 735 730
f 667 735 666
f 736 667 669
f 736 735 667
f 671 732 733
f 736 671 733
f 669 671 736
f 732 671 663
f 738 737 675
f 738 675 674
f 675 739 676
f 737 739 675
f 678 676 739
f 678 739 740
f 680 741 679
f 742 681 679
f 742 679 741
f 742 743 681
f 743 674 681
f 743 738 674
f 682 678 744
f 678 745 744
f 678 740 745
f 746 683 682
f 746 682 744
f 746 684 683
f 748 747 741
f 680 748 741
f 686 748 680
f 741 747 742
f 742 747 749
f 742 749 743
f 745 750 744
f 752 751 750
f 751 744 750
f 751 746 744
f 751 689 684
f 751 684 746
f 691 748 686
f 691 753 748
f 754 692 693
f 694 755 693
f 693 755 754
f 695 755 694
f 752 756 751
f 689 751 756
f 757 689 756
f 697 689 757
f 691 698 758
f 759 691 758
f 753 691 759
f 692 754 698
f 754 758 698
f 754 760 758
f 761 754 755
f 760 754 761
f 699 761 695
f 695 761 755
f 700 697 762
f 697 763 762
f 697 757 763
f 762 701 700
f 759 758 764
f 759 764 765
f 760 767 766
f 764 760 766
f 758 760 764
f 767 760 761
f 767 761 768
f 761 699 768
f 699 769 768
f 699 702 769
f 762 763 770
f 770 763 771
f 770 703 701
f 770 701 762
f 765 764 772
f 765 772 773
f 764 766 774
f 764 774 772
f 704 769 702
f 704 775 769
f 770 771 776
f 776 771 777
f 776 705 703
f 776 703 770
f 773 772 778
f 773 778 779
f 772 774 780
f 781 772 780
f 778 772 781
f 783 782 781
f 783 781 780
f 783 775 782
f 775 706 782
f 775 704 706
f 776 777 709
f 777 708 709
f 777 784 708
f 776 709 705
f 779 778 711
f 712 779 711
f 785 779 712
f 711 778 713
f 778 786 713
f 778 781 786
f 787 781 782
f 786 781 787
f 714 787 706
f 706 787 782
f 784 716 708
f 788 716 784
f 717 785 712
f 717 789 785
f 786 719 713
f 719 786 721
f 721 786 787
f 721 787 714
f 792 791 790
f 788 792 790
f 722 788 790
f 716 788 722
f 723 794 793
f 789 723 793
f 717 723 789
f 796 795 794
f 794 795 793
f 798 797 796
f 796 797 795
f 800 799 798
f 798 799 797
f 802 801 800
f 800 801 799
f 801 802 791
f 791 802 790
f 802 725 790
f 725 726 790
f 790 726 722
f 727 794 723
f 794 727 729
f 794 729 796
f 796 729 731
f 803 796 731
f 798 796 803
f 798 804 800
f 798 803 804
f 804 733 734
f 802 804 734
f 800 804 802
f 802 734 725
f 735 803 731
f 803 735 736
f 803 736 804
f 804 736 733
f 738 805 737
f 806 739 737
f 806 737 805
f 806 740 739
f 743 807 805
f 743 805 738
f 805 808 806
f 805 807 808
f 808 745 740
f 808 740 806
f 748 809 747
f 810 749 747
f 810 747 809
f 807 743 749
f 810 807 749
f 811 807 810
f 807 812 808
f 807 811 812
f 813 750 745
f 808 813 745
f 812 813 808
f 813 752 750
f 753 814 809
f 753 809 748
f 809 815 810
f 809 814 815
f 817 811 816
f 811 815 816
f 811 810 815
f 811 817 812
f 812 817 818
f 820 819 818
f 819 812 818
f 819 813 812
f 821 756 752
f 813 821 752
f 819 821 813
f 821 757 756
f 759 822 814
f 759 814 753
f 824 815 823
f 815 822 823
f 815 814 822
f 815 824 816
f 820 825 819
f 827 826 825
f 826 819 825
f 826 821 819
f 826 763 757
f 826 757 821
f 829 828 822
f 759 829 822
f 765 829 759
f 830 766 767
f 828 823 822
f 768 831 767
f 767 831 830
f 769 831 768
f 826 827 832
f 832 827 833
f 832 771 763
f 832 763 826
f 773 829 765
f 773 834 829
f 835 774 830
f 830 774 766
f 836 830 831
f 835 830 836
f 775 836 769
f 769 836 831
f 832 833 837
f 837 833 838
f 837 777 771
f 837 771 832
f 779 840 839
f 834 779 839
f 773 779 834
f 835 780 774
f 841 839 840
f 780 835 783
f 783 835 836
f 783 836 775
f 837 838 842
f 842 838 843
f 842 784 777
f 842 777 837
f 785 844 840
f 785 840 779
f 841 840 845
f 840 846 845
f 840 844 846
f 846 847 845
f 850 849 848
f 850 848 843
f 848 842 843
f 848 851 842
f 851 788 784
f 851 784 842
f 789 852 844
f 789 844 785
f 844 853 846
f 844 852 853
f 847 846 854
f 846 855 854
f 846 853 855
f 857 856 855
f 855 856 854
f 856 857 849
f 857 848 849
f 857 858 848
f 858 791 792
f 851 858 792
f 848 858 851
f 851 792 788
f 793 852 789
f 852 793 795
f 852 795 853
f 853 795 797
f 853 797 855
f 855 797 799
f 855 799 857
f 857 799 801
f 857 801 858
f 858 801 791
f 816 859 817
f 860 818 817
f 860 817 859
f 860 820 818
f 823 861 824
f 859 816 824
f 861 859 824
f 862 859 861
f 859 863 860
f 859 862 863
f 864 825 820
f 860 864 820
f 863 864 860
f 864 827 825
f 829 865 828
f 861 823 828
f 865 861 828
f 866 861 865
f 861 867 862
f 861 866 867
f 862 868 863
f 862 867 868
f 863 869 864
f 863 868 869
f 869 833 827
f 869 827 864
f 834 870 865
f 834 865 829
f 865 871 866
f 865 870 871
f 866 872 867
f 866 871 872
f 867 873 868
f 867 872 873
f 868 874 869
f 868 873 874
f 874 838 833
f 874 833 869
f 839 870 834
f 870 839 841
f 875 870 841
f 871 870 875
f 871 876 872
f 871 875 876
f 872 877 873
f 872 876 877
f 873 878 874
f 873 877 878
f 878 843 838
f 878 838 874
f 845 875 841
f 875 845 847
f 879 875 847
f 876 875 879
f 876 880 877
f 876 879 880
f 880 849 850
f 878 880 850
f 877 880 878
f 878 850 843
f 854 879 847
f 879 854 856
f 879 856 880
f 880 856 849

