# https://github.com/mikedh/trimesh
v -0.03306420 -0.02402319 -0.01727313
v -0.03023755 -0.02793486 -0.01925085
v -0.03028606 -0.02440258 -0.02134739
v -0.03332882 -0.02400840 -0.01122085
v -0.03103947 -0.02791619 -0.01427935
v -0.03319823 -0.02401463 -0.00496486
v -0.03095210 -0.02782845 -0.00796273
v -0.03318389 -0.02401731 0.00114731
v -0.03088214 -0.02782025 -0.00177861
v -0.03328066 -0.02406126 0.00738108
v -0.03088399 -0.02783974 0.00433694
v -0.03348968 -0.02401507 0.01386963
v -0.03097276 -0.02792913 0.01069144
v -0.03292813 -0.02333498 0.01897407
v -0.03109375 -0.02754652 0.01694546
v -0.02953066 -0.02579245 0.02115698
v -0.03340959 -0.01849753 -0.01843050
v -0.02993105 -0.01889840 -0.02117943
v -0.03406130 -0.01853012 -0.01270180
v -0.03389496 -0.01856449 -0.00642172
v -0.03384691 -0.01856613 -0.00027903
v -0.03394071 -0.01857861 0.00591470
v -0.03409730 -0.01859148 0.01238787
v -0.03343240 -0.01834981 0.01823347
v -0.03034753 -0.01881976 0.02098834
v -0.03329479 -0.01233032 -0.01843456
v -0.03077268 -0.01254251 -0.02093448
v -0.03398341 -0.01227757 -0.01269498
v -0.03379232 -0.01231275 -0.00634810
v -0.03371144 -0.01231598 -0.00017448
v -0.03380588 -0.01232280 0.00601745
v -0.03394701 -0.01232587 0.01244811
v -0.03322799 -0.01212506 0.01828020
v -0.03079726 -0.01187625 0.02077993
v -0.03318771 -0.00625470 -0.01843518
v -0.03064786 -0.00653989 -0.02099201
v -0.03389197 -0.00609772 -0.01261115
v -0.03371639 -0.00610773 -0.00619350
v -0.03362268 -0.00611209 -0.00000337
v -0.03371573 -0.00611880 0.00618944
v -0.03385778 -0.00612040 0.01261641
v -0.03310405 -0.00594109 0.01843817
v -0.03059199 -0.00564454 0.02096110
v -0.03310856 -0.00017130 -0.01844628
v -0.03056737 -0.00045487 -0.02098552
v -0.03385879 0.00000514 -0.01262255
v -0.03371123 0.00000596 -0.00619263
v -0.03361834 0.00000023 -0.00000000
v -0.03371120 -0.00000550 0.00619261
v -0.03385876 -0.00000469 0.01262250
v -0.03310852 0.00017176 0.01844621
v -0.03056733 0.00045532 0.02098546
v -0.03310413 0.00594153 -0.01843834
v -0.03059211 0.00564497 -0.02096133
v -0.03385779 0.00612085 -0.01261661
v -0.03371573 0.00611925 -0.00618965
v -0.03362265 0.00611255 0.00000315
v -0.03371632 0.00610819 0.00619329
v -0.03389211 0.00609816 0.01261118
v -0.03318809 0.00625512 0.01843554
v -0.03064803 0.00654032 0.02099221
v -0.03322803 0.01212548 -0.01828030
v -0.03079486 0.01187691 -0.02077929
v -0.03394716 0.01232628 -0.01244814
v -0.03380592 0.01232324 -0.00601750
v -0.03371140 0.01231645 0.00017439
v -0.03379222 0.01231323 0.00634806
v -0.03398424 0.01227790 0.01269586
v -0.03329716 0.01233048 0.01843714
v -0.03077535 0.01254273 0.02093903
v -0.03342717 0.01835112 -0.01822841
v -0.03034405 0.01882146 -0.02098256
v -0.03409619 0.01859224 -0.01238141
v -0.03394053 0.01857911 -0.00590661
v -0.03384697 0.01856659 0.00028758
v -0.03389508 0.01856487 0.00642991
v -0.03406319 0.01853001 0.01270995
v -0.03341484 0.01849715 0.01843797
v -0.02991813 0.01889984 0.02116821
v -0.03292151 0.02333695 -0.01896679
v -0.02961685 0.02577998 -0.02118610
v -0.03348388 0.02401723 -0.01386461
v -0.03327674 0.02406331 -0.00737573
v -0.03318228 0.02401840 -0.00113867
v -0.03319892 0.02401442 0.00497377
v -0.03333125 0.02400709 0.01122723
v -0.03307041 0.02402184 0.01727894
v -0.03025303 0.02440953 0.02131254
v -0.03113737 0.02753484 -0.01702024
v -0.03099011 0.02792504 -0.01083296
v -0.03087849 0.02784317 -0.00450790
v -0.03087894 0.02782069 0.00160685
v -0.03095452 0.02782624 0.00779102
v -0.03103165 0.02792186 0.01413237
v -0.03020666 0.02794970 0.01915130
v -0.02762579 -0.03107486 -0.01727340
v -0.02313097 -0.03304015 -0.01843709
v -0.02598003 -0.02957221 -0.02135483
v -0.02794860 -0.03095491 -0.01122068
v -0.02416564 -0.03335374 -0.01270181
v -0.02784627 -0.03087709 -0.00496563
v -0.02407888 -0.03319956 -0.00642197
v -0.02782527 -0.03087799 0.00115063
v -0.02402119 -0.03317973 -0.00027878
v -0.02774390 -0.03098793 0.00741436
v -0.02386692 -0.03327591 0.00593443
v -0.02776294 -0.03109223 0.01387841
v -0.02370977 -0.03349005 0.01238085
v -0.02776445 -0.03025248 0.01899782
v -0.02445955 -0.03295763 0.01759136
v -0.02412937 -0.03031157 0.02120618
v -0.02439654 -0.02534445 -0.02150625
v -0.02522051 -0.02421124 0.02132436
v -0.02542430 -0.02166057 -0.01923418
v -0.02760612 -0.01746041 -0.01788162
v -0.02457747 -0.02169026 -0.01424878
v -0.02691074 -0.01799464 -0.01119750
v -0.02468293 -0.02174025 -0.00792955
v -0.02705917 -0.01792866 -0.00494592
v -0.02477720 -0.02172471 -0.00177629
v -0.02708489 -0.01791106 0.00114772
v -0.02477745 -0.02170870 0.00433431
v -0.02700268 -0.01772489 0.00738086
v -0.02471473 -0.02150504 0.01066613
v -0.02691873 -0.01745101 0.01385827
v -0.02463839 -0.02167596 0.01691050
v -0.02729267 -0.01851026 0.01897425
v -0.02820602 -0.01129952 -0.01847438
v -0.02751744 -0.01266686 -0.01269873
v -0.02768089 -0.01253245 -0.00638939
v -0.02775057 -0.01245801 -0.00027765
v -0.02765477 -0.01228401 0.00591446
v -0.02755374 -0.01198951 0.01238795
v -0.02836359 -0.01329575 0.01822931
v -0.02806071 -0.00523473 -0.01846342
v -0.02735224 -0.00657744 -0.01269685
v -0.02751874 -0.00635364 -0.00633798
v -0.02761108 -0.00620864 -0.00017891
v -0.02751685 -0.00603103 0.00601257
v -0.02737585 -0.00575190 0.01244692
v -0.02817519 -0.00704843 0.01827988
v -0.02803430 0.00087296 -0.01843728
v -0.02728314 -0.00045004 -0.01261627
v -0.02743027 -0.00017819 -0.00619186
v -0.02752291 0.00000023 -0.00000020
v -0.02743025 0.00017865 0.00619150
v -0.02728311 0.00045049 0.01261600
v -0.02803422 -0.00087251 0.01843709
v -0.02817520 0.00704888 -0.01827996
v -0.02737598 0.00575237 -0.01244695
v -0.02751686 0.00603149 -0.00601262
v -0.02761103 0.00620909 0.00017885
v -0.02751867 0.00635408 0.00633799
v -0.02735218 0.00657787 0.01269683
v -0.02806066 0.00523518 0.01846332
v -0.02835811 0.01329647 -0.01822415
v -0.02755299 0.01198992 -0.01238146
v -0.02765466 0.01228446 -0.00590636
v -0.02775049 0.01245847 0.00028623
v -0.02768113 0.01253288 0.00639761
v -0.02751867 0.01266724 0.01270537
v -0.02820718 0.01129988 0.01847737
v -0.02728743 0.01851146 -0.01896778
v -0.02691283 0.01745085 -0.01385361
v -0.02700095 0.01772447 -0.00737565
v -0.02708421 0.01791117 -0.00113904
v -0.02706085 0.01792936 0.00495488
v -0.02691492 0.01799578 0.01120302
v -0.02761070 0.01746135 0.01788547
v -0.02466458 0.02167784 -0.01698601
v -0.02535993 0.02420666 -0.02135920
v -0.02472222 0.02150568 -0.01080880
v -0.02477566 0.02170750 -0.00450593
v -0.02478060 0.02172500 0.00160456
v -0.02468871 0.02174214 0.00775778
v -0.02455938 0.02169200 0.01410043
v -0.02537652 0.02166391 0.01913683
v -0.02420666 0.02535993 0.02135920
v -0.02794970 0.03020666 -0.01915130
v -0.02440953 0.03025303 -0.02131254
v -0.02792186 0.03103165 -0.01413237
v -0.02782624 0.03095452 -0.00779102
v -0.02782069 0.03087894 -0.00160685
v -0.02784317 0.03087849 0.00450790
v -0.02792504 0.03099011 0.01083296
v -0.02753484 0.03113737 0.01702024
v -0.02577998 0.02961685 0.02118610
v -0.02402184 0.03307041 -0.01727894
v -0.02400709 0.03333125 -0.01122723
v -0.02401442 0.03319892 -0.00497377
v -0.02401840 0.03318228 0.00113867
v -0.02406331 0.03327674 0.00737573
v -0.02401723 0.03348388 0.01386461
v -0.02333695 0.03292151 0.01896679
v -0.01739378 -0.03331461 -0.01842898
v -0.01928618 -0.03026847 -0.02120621
v -0.01880666 -0.03404551 -0.01269454
v -0.01868712 -0.03389765 -0.00634826
v -0.01857448 -0.03384481 -0.00017501
v -0.01839439 -0.03393938 0.00602043
v -0.01814781 -0.03415374 0.01245551
v -0.01955542 -0.03352221 0.01821524
v -0.01846080 -0.02994672 0.02107557
v -0.01807908 -0.02732164 -0.01843486
v -0.02184239 -0.02467990 -0.01723740
v -0.01777507 -0.02696098 -0.01269185
v -0.02159112 -0.02474108 -0.01119684
v -0.01787376 -0.02706901 -0.00642196
v -0.02170226 -0.02477772 -0.00496365
v -0.01790692 -0.02708456 -0.00028005
v -0.02172079 -0.02477834 0.00114721
v -0.01791646 -0.02698902 0.00591500
v -0.02172130 -0.02466507 0.00738025
v -0.01787756 -0.02684373 0.01238536
v -0.02161260 -0.02453637 0.01385756
v -0.01759738 -0.02762318 0.01825072
v -0.02147814 -0.02537393 0.01899830
v -0.02166391 0.02537652 -0.01913683
v -0.02169200 0.02455938 -0.01410043
v -0.02174214 0.02468871 -0.00775778
v -0.02172500 0.02478060 -0.00160456
v -0.02170750 0.02477566 0.00450593
v -0.02150568 0.02472222 0.01080880
v -0.02167784 0.02466458 0.01698601
v -0.01746135 0.02761070 -0.01788547
v -0.01889984 0.02991813 -0.02116821
v -0.01799578 0.02691492 -0.01120302
v -0.01792936 0.02706085 -0.00495488
v -0.01791117 0.02708421 0.00113904
v -0.01772447 0.02700095 0.00737565
v -0.01745085 0.02691283 0.01385361
v -0.01851146 0.02728743 0.01896778
v -0.01882146 0.03034405 0.02098256
v -0.01849715 0.03341484 -0.01843797
v -0.01853001 0.03406319 -0.01270995
v -0.01856487 0.03389508 -0.00642991
v -0.01856659 0.03384697 -0.00028758
v -0.01857911 0.03394053 0.00590661
v -0.01859224 0.03409619 0.01238141
v -0.01835112 0.03342717 0.01822841
v -0.01132516 -0.03316056 -0.01842052
v -0.01262231 -0.03073661 -0.02094107
v -0.01269893 -0.03392576 -0.01260940
v -0.01248285 -0.03379206 -0.00619354
v -0.01232396 -0.03371140 -0.00000329
v -0.01214208 -0.03380217 0.00618955
v -0.01185671 -0.03397678 0.01261393
v -0.01323644 -0.03336488 0.01839177
v -0.01186105 -0.03079404 0.02086726
v -0.01238339 -0.02827898 -0.01842514
v -0.01232040 -0.02756752 -0.01269076
v -0.01241910 -0.02769962 -0.00634835
v -0.01245393 -0.02774992 -0.00017508
v -0.01246240 -0.02765508 0.00601751
v -0.01246289 -0.02751278 0.01244679
v -0.01222024 -0.02827267 0.01827818
v -0.01129988 0.02820718 -0.01847737
v -0.01254273 0.03077535 -0.02093903
v -0.01266724 0.02751867 -0.01270537
v -0.01253288 0.02768113 -0.00639761
v -0.01245847 0.02775049 -0.00028623
v -0.01228446 0.02765466 0.00590636
v -0.01198992 0.02755299 0.01238146
v -0.01329647 0.02835811 0.01822415
v -0.01187691 0.03079486 0.02077929
v -0.01233048 0.03329716 -0.01843714
v -0.01227790 0.03398424 -0.01269586
v -0.01231323 0.03379222 -0.00634806
v -0.01231645 0.03371140 -0.00017439
v -0.01232324 0.03380592 0.00601750
v -0.01232628 0.03394716 0.01244814
v -0.01212548 0.03322803 0.01828030
v -0.00523653 -0.03310590 -0.01843652
v -0.00654708 -0.03059138 -0.02096299
v -0.00656277 -0.03386142 -0.01261378
v -0.00629317 -0.03371674 -0.00618464
v -0.00611640 -0.03362458 0.00000676
v -0.00593841 -0.03371529 0.00619712
v -0.00566121 -0.03385780 0.01262548
v -0.00699262 -0.03318545 0.01843351
v -0.00571665 -0.03066606 0.02096326
v -0.00626282 -0.02810705 -0.01842063
v -0.00613659 -0.02738971 -0.01260920
v -0.00618757 -0.02752906 -0.00619384
v -0.00620581 -0.02760909 -0.00000358
v -0.00621017 -0.02751577 0.00618974
v -0.00621120 -0.02737373 0.01261715
v -0.00603419 -0.02812824 0.01843510
v -0.00523518 0.02806066 -0.01846332
v -0.00654032 0.03064803 -0.02099221
v -0.00657787 0.02735218 -0.01269683
v -0.00635408 0.02751867 -0.00633799
v -0.00620909 0.02761103 -0.00017885
v -0.00603149 0.02751686 0.00601262
v -0.00575237 0.02737598 0.01244695
v -0.00704888 0.02817520 0.01827996
v -0.00564497 0.03059211 0.02096133
v -0.00625512 0.03318809 -0.01843554
v -0.00609816 0.03389211 -0.01261118
v -0.00610819 0.03371632 -0.00619329
v -0.00611255 0.03362265 -0.00000315
v -0.00611925 0.03371573 0.00618965
v -0.00612085 0.03385779 0.01261661
v -0.00594153 0.03310413 0.01843834
v 0.00087324 -0.03310650 -0.01844117
v -0.00044849 -0.03057205 -0.02097875
v -0.00045153 -0.03385663 -0.01261666
v -0.00017735 -0.03371402 -0.00618905
v -0.00000023 -0.03362090 0.00000000
v 0.00017690 -0.03371402 0.00618906
v 0.00045107 -0.03385663 0.01261666
v -0.00087369 -0.03310645 0.01844106
v 0.00044804 -0.03057200 0.02097858
v -0.00016796 -0.02803582 -0.01844487
v 0.00000647 -0.02728531 -0.01262289
v 0.00000422 -0.02742875 -0.00619341
v -0.00000023 -0.02751957 -0.00000016
v -0.00000467 -0.02742869 0.00619311
v -0.00000692 -0.02728523 0.01262263
v 0.00016751 -0.02803575 0.01844465
v 0.00087251 0.02803422 -0.01843709
v -0.00045532 0.03056733 -0.02098546
v -0.00045049 0.02728311 -0.01261600
v -0.00017865 0.02743025 -0.00619150
v -0.00000023 0.02752291 0.00000020
v 0.00017819 0.02743027 0.00619186
v 0.00045004 0.02728314 0.01261627
v -0.00087296 0.02803430 0.01843728
v 0.00045487 0.03056737 0.02098552
v -0.00017176 0.03310852 -0.01844621
v 0.00000469 0.03385876 -0.01262250
v 0.00000550 0.03371120 -0.00619261
v -0.00000023 0.03361834 0.00000000
v -0.00000596 0.03371123 0.00619263
v -0.00000514 0.03385879 0.01262255
v 0.00017130 0.03310856 0.01844628
v 0.00699220 -0.03318509 -0.01843340
v 0.00571623 -0.03066591 -0.02096307
v 0.00566075 -0.03385784 -0.01262575
v 0.00593796 -0.03371529 -0.00619732
v 0.00611595 -0.03362455 -0.00000692
v 0.00629273 -0.03371667 0.00618454
v 0.00656233 -0.03386134 0.01261373
v 0.00523608 -0.03310584 0.01843650
v 0.00654664 -0.03059131 0.02096293
v 0.00603375 -0.02812833 -0.01843511
v 0.00621075 -0.02737379 -0.01261722
v 0.00620971 -0.02751576 -0.00618979
v 0.00620534 -0.02760901 0.00000358
v 0.00618712 -0.02752896 0.00619381
v 0.00613615 -0.02738972 0.01260911
v 0.00626239 -0.02810707 0.01842053
v 0.00704843 0.02817519 -0.01827988
v 0.00564454 0.03059199 -0.02096110
v 0.00575190 0.02737585 -0.01244692
v 0.00603103 0.02751685 -0.00601257
v 0.00620864 0.02761108 0.00017891
v 0.00635364 0.02751874 0.00633798
v 0.00657744 0.02735224 0.01269685
v 0.00523473 0.02806071 0.01846342
v 0.00653989 0.03064786 0.02099201
v 0.00594109 0.03310405 -0.01843817
v 0.00612040 0.03385778 -0.01261641
v 0.00611880 0.03371573 -0.00618944
v 0.00611209 0.03362268 0.00000337
v 0.00610773 0.03371639 0.00619350
v 0.00609772 0.03389197 0.01261115
v 0.00625470 0.03318771 0.01843518
v 0.01323626 -0.03336254 -0.01838913
v 0.01186085 -0.03079124 -0.02086230
v 0.01185626 -0.03397665 -0.01261390
v 0.01214164 -0.03380215 -0.00618963
v 0.01232355 -0.03371130 0.00000327
v 0.01248243 -0.03379195 0.00619349
v 0.01269850 -0.03392573 0.01260930
v 0.01132473 -0.03316057 0.01842041
v 0.01262165 -0.03073904 0.02094177
v 0.01221990 -0.02827105 -0.01827086
v 0.01246247 -0.02751256 -0.01243858
v 0.01246194 -0.02765517 -0.00600894
v 0.01245347 -0.02775005 0.00018319
v 0.01241869 -0.02770034 0.00635486
v 0.01231991 -0.02757027 0.01269488
v 0.01238265 -0.02828346 0.01842735
v 0.01329575 0.02836359 -0.01822931
v 0.01187625 0.03079726 -0.02077993
v 0.01198951 0.02755374 -0.01238795
v 0.01228401 0.02765477 -0.00591446
v 0.01245801 0.02775057 0.00027765
v 0.01253245 0.02768089 0.00638939
v 0.01266686 0.02751744 0.01269873
v 0.01129952 0.02820602 0.01847438
v 0.01254251 0.03077268 0.02093448
v 0.01212506 0.03322799 -0.01828020
v 0.01232587 0.03394701 -0.01244811
v 0.01232280 0.03380588 -0.00601745
v 0.01231598 0.03371144 0.00017448
v 0.01231275 0.03379232 0.00634810
v 0.01227757 0.03398341 0.01269498
v 0.01233032 0.03329479 0.01843456
v 0.01955597 -0.03351660 -0.01820320
v 0.01845937 -0.02995951 -0.02108644
v 0.01814757 -0.03415271 -0.01244640
v 0.01839393 -0.03393937 -0.00601194
v 0.01857396 -0.03384501 0.00018309
v 0.01868635 -0.03389874 0.00635474
v 0.01880563 -0.03404809 0.01269858
v 0.01739278 -0.03331865 0.01843111
v 0.01928455 -0.03027130 0.02121149
v 0.01759637 -0.02761785 -0.01824627
v 0.01787643 -0.02683939 -0.01237939
v 0.01791575 -0.02698735 -0.00590605
v 0.01790681 -0.02708525 0.00028872
v 0.01787418 -0.02707077 0.00642719
v 0.01777524 -0.02696640 0.01269624
v 0.01807801 -0.02732602 0.01844029
v 0.01851026 0.02729267 -0.01897425
v 0.01881976 0.03034753 -0.02098834
v 0.01745101 0.02691873 -0.01385827
v 0.01772489 0.02700268 -0.00738086
v 0.01791106 0.02708489 -0.00114772
v 0.01792866 0.02705917 0.00494592
v 0.01799464 0.02691074 0.01119750
v 0.01746041 0.02760612 0.01788162
v 0.01889840 0.02993105 0.02117943
v 0.01834981 0.03343240 -0.01823347
v 0.01859148 0.03409730 -0.01238787
v 0.01857861 0.03394071 -0.00591470
v 0.01856613 0.03384691 0.00027903
v 0.01856449 0.03389496 0.00642172
v 0.01853012 0.03406130 0.01270180
v 0.01849753 0.03340959 0.01843050
v 0.02446127 -0.03295018 -0.01758441
v 0.02412250 -0.03034439 -0.02124028
v 0.02371127 -0.03348670 -0.01237305
v 0.02386713 -0.03327527 -0.00592556
v 0.02402010 -0.03318136 0.00028740
v 0.02407682 -0.03320352 0.00642734
v 0.02416356 -0.03335914 0.01270658
v 0.02312927 -0.03304567 0.01844319
v 0.02599258 -0.02948570 0.02132550
v 0.02147481 -0.02542152 -0.01909515
v 0.02520467 -0.02440114 -0.02147125
v 0.02161088 -0.02455430 -0.01400545
v 0.02171941 -0.02465930 -0.00755202
v 0.02172049 -0.02477494 -0.00131894
v 0.02170346 -0.02477951 0.00479204
v 0.02159049 -0.02473360 0.01105419
v 0.02184053 -0.02465331 0.01716161
v 0.02440114 -0.02520467 0.02147125
v 0.02465331 -0.02184053 -0.01716161
v 0.02473360 -0.02159049 -0.01105419
v 0.02477951 -0.02170346 -0.00479204
v 0.02477494 -0.02172049 0.00131894
v 0.02465930 -0.02171941 0.00755202
v 0.02455430 -0.02161088 0.01400545
v 0.02542152 -0.02147481 0.01909515
v 0.02167596 0.02463839 -0.01691050
v 0.02537393 0.02147814 -0.01899830
v 0.02421124 0.02522051 -0.02132436
v 0.02150504 0.02471473 -0.01066613
v 0.02453637 0.02161260 -0.01385756
v 0.02170870 0.02477745 -0.00433431
v 0.02466507 0.02172130 -0.00738025
v 0.02172471 0.02477720 0.00177629
v 0.02477834 0.02172079 -0.00114721
v 0.02174025 0.02468293 0.00792955
v 0.02477772 0.02170226 0.00496365
v 0.02169026 0.02457747 0.01424878
v 0.02474108 0.02159112 0.01119684
v 0.02166057 0.02542430 0.01923418
v 0.02467990 0.02184239 0.01723740
v 0.02534445 0.02439654 0.02150625
v 0.02579245 0.02953066 -0.02115698
v 0.02440258 0.03028606 0.02134739
v 0.02333498 0.03292813 -0.01897407
v 0.02401507 0.03348968 -0.01386963
v 0.02406126 0.03328066 -0.00738108
v 0.02401731 0.03318389 -0.00114731
v 0.02401463 0.03319823 0.00496486
v 0.02400840 0.03332882 0.01122085
v 0.02402319 0.03306420 0.01727313
v 0.02774971 -0.03028313 -0.01909658
v 0.02775735 -0.03109985 -0.01402470
v 0.02774612 -0.03098553 -0.00758609
v 0.02782482 -0.03088121 -0.00132242
v 0.02784285 -0.03088259 0.00479470
v 0.02795271 -0.03093758 0.01107920
v 0.02763755 -0.03103093 0.01719837
v 0.03103093 -0.02763755 -0.01719837
v 0.02948570 -0.02599258 -0.02132550
v 0.03093758 -0.02795271 -0.01107920
v 0.03088259 -0.02784285 -0.00479470
v 0.03088121 -0.02782482 0.00132242
v 0.03098553 -0.02774612 0.00758609
v 0.03109985 -0.02775735 0.01402470
v 0.03028313 -0.02774971 0.01909658
v 0.03034439 -0.02412250 0.02124028
v 0.02732602 -0.01807801 -0.01844029
v 0.03027130 -0.01928455 -0.02121149
v 0.02696640 -0.01777524 -0.01269624
v 0.02707077 -0.01787418 -0.00642719
v 0.02708525 -0.01790681 -0.00028872
v 0.02698735 -0.01791575 0.00590605
v 0.02683939 -0.01787643 0.01237939
v 0.02761785 -0.01759637 0.01824627
v 0.02995951 -0.01845937 0.02108644
v 0.02828346 -0.01238265 -0.01842735
v 0.03073904 -0.01262165 -0.02094177
v 0.02757027 -0.01231991 -0.01269488
v 0.02770034 -0.01241869 -0.00635486
v 0.02775005 -0.01245347 -0.00018319
v 0.02765517 -0.01246194 0.00600894
v 0.02751256 -0.01246247 0.01243858
v 0.02827105 -0.01221990 0.01827086
v 0.03079124 -0.01186085 0.02086230
v 0.02810707 -0.00626239 -0.01842053
v 0.03059131 -0.00654664 -0.02096293
v 0.02738972 -0.00613615 -0.01260911
v 0.02752896 -0.00618712 -0.00619381
v 0.02760901 -0.00620534 -0.00000358
v 0.02751576 -0.00620971 0.00618979
v 0.02737379 -0.00621075 0.01261722
v 0.02812833 -0.00603375 0.01843511
v 0.03066591 -0.00571623 0.02096307
v 0.02803575 -0.00016751 -0.01844465
v 0.03057200 -0.00044804 -0.02097858
v 0.02728523 0.00000692 -0.01262263
v 0.02742869 0.00000467 -0.00619311
v 0.02751957 0.00000023 0.00000016
v 0.02742875 -0.00000422 0.00619341
v 0.02728531 -0.00000647 0.01262289
v 0.02803582 0.00016796 0.01844487
v 0.03057205 0.00044849 0.02097875
v 0.02812824 0.00603419 -0.01843510
v 0.03066606 0.00571665 -0.02096326
v 0.02737373 0.00621120 -0.01261715
v 0.02751577 0.00621017 -0.00618974
v 0.02760909 0.00620581 0.00000358
v 0.02752906 0.00618757 0.00619384
v 0.02738971 0.00613659 0.01260920
v 0.02810705 0.00626282 0.01842063
v 0.03059138 0.00654708 0.02096299
v 0.02827267 0.01222024 -0.01827818
v 0.03079404 0.01186105 -0.02086726
v 0.02751278 0.01246289 -0.01244679
v 0.02765508 0.01246240 -0.00601751
v 0.02774992 0.01245393 0.00017508
v 0.02769962 0.01241910 0.00634835
v 0.02756752 0.01232040 0.01269076
v 0.02827898 0.01238339 0.01842514
v 0.03073661 0.01262231 0.02094107
v 0.02762318 0.01759738 -0.01825072
v 0.02994672 0.01846080 -0.02107557
v 0.02684373 0.01787756 -0.01238536
v 0.02698902 0.01791646 -0.00591500
v 0.02708456 0.01790692 0.00028005
v 0.02706901 0.01787376 0.00642196
v 0.02696098 0.01777507 0.01269185
v 0.02732164 0.01807908 0.01843486
v 0.03026847 0.01928618 0.02120621
v 0.03031157 0.02412937 -0.02120618
v 0.02957221 0.02598003 0.02135483
v 0.03025248 0.02776445 -0.01899782
v 0.02754652 0.03109375 -0.01694546
v 0.03109223 0.02776294 -0.01387841
v 0.02792913 0.03097276 -0.01069144
v 0.03098793 0.02774390 -0.00741436
v 0.02783974 0.03088399 -0.00433694
v 0.03087799 0.02782527 -0.00115063
v 0.02782025 0.03088214 0.00177861
v 0.03087709 0.02784627 0.00496563
v 0.02782845 0.03095210 0.00796273
v 0.03095491 0.02794860 0.01122068
v 0.02791619 0.03103947 0.01427935
v 0.03107486 0.02762579 0.01727340
v 0.02793486 0.03023755 0.01925085
v 0.03304567 -0.02312927 -0.01844319
v 0.03335914 -0.02416356 -0.01270658
v 0.03320352 -0.02407682 -0.00642734
v 0.03318136 -0.02402010 -0.00028740
v 0.03327527 -0.02386713 0.00592556
v 0.03348670 -0.02371127 0.01237305
v 0.03295018 -0.02446127 0.01758441
v 0.03331865 -0.01739278 -0.01843111
v 0.03404809 -0.01880563 -0.01269858
v 0.03389874 -0.01868635 -0.00635474
v 0.03384501 -0.01857396 -0.00018309
v 0.03393937 -0.01839393 0.00601194
v 0.03415271 -0.01814757 0.01244640
v 0.03351660 -0.01955597 0.01820320
v 0.03316057 -0.01132473 -0.01842041
v 0.03392573 -0.01269850 -0.01260930
v 0.03379195 -0.01248243 -0.00619349
v 0.03371130 -0.01232355 -0.00000327
v 0.03380215 -0.01214164 0.00618963
v 0.03397665 -0.01185626 0.01261390
v 0.03336254 -0.01323626 0.01838913
v 0.03310584 -0.00523608 -0.01843650
v 0.03386134 -0.00656233 -0.01261373
v 0.03371667 -0.00629273 -0.00618454
v 0.03362455 -0.00611595 0.00000692
v 0.03371529 -0.00593796 0.00619732
v 0.03385784 -0.00566075 0.01262575
v 0.03318509 -0.00699220 0.01843340
v 0.03310645 0.00087369 -0.01844106
v 0.03385663 -0.00045107 -0.01261666
v 0.03371402 -0.00017690 -0.00618906
v 0.03362090 0.00000023 -0.00000000
v 0.03371402 0.00017735 0.00618905
v 0.03385663 0.00045153 0.01261666
v 0.03310650 -0.00087324 0.01844117
v 0.03318545 0.00699262 -0.01843351
v 0.03385780 0.00566121 -0.01262548
v 0.03371529 0.00593841 -0.00619712
v 0.03362458 0.00611640 -0.00000676
v 0.03371674 0.00629317 0.00618464
v 0.03386142 0.00656277 0.01261378
v 0.03310590 0.00523653 0.01843652
v 0.03336488 0.01323644 -0.01839177
v 0.03397678 0.01185671 -0.01261393
v 0.03380217 0.01214208 -0.00618955
v 0.03371140 0.01232396 0.00000329
v 0.03379206 0.01248285 0.00619354
v 0.03392576 0.01269893 0.01260940
v 0.03316056 0.01132516 0.01842052
v 0.03352221 0.01955542 -0.01821524
v 0.03415374 0.01814781 -0.01245551
v 0.03393938 0.01839439 -0.00602043
v 0.03384481 0.01857448 0.00017501
v 0.03389765 0.01868712 0.00634826
v 0.03404551 0.01880666 0.01269454
v 0.03331461 0.01739378 0.01842898
v 0.03295763 0.02445955 -0.01759136
v 0.03349005 0.02370977 -0.01238085
v 0.03327591 0.02386692 -0.00593443
v 0.03317973 0.02402119 0.00027878
v 0.03319956 0.02407888 0.00642197
v 0.03335374 0.02416564 0.01270181
v 0.03304015 0.02313097 0.01843709
f 3 2 1
f 5 4 1
f 5 1 2
f 7 6 4
f 7 4 5
f 9 8 6
f 9 6 7
f 11 10 8
f 11 8 9
f 13 12 10
f 13 10 11
f 15 14 12
f 15 12 13
f 16 14 15
f 3 1 17
f 3 17 18
f 19 1 4
f 17 1 19
f 20 4 6
f 19 4 20
f 21 6 8
f 20 6 21
f 22 8 10
f 21 8 22
f 23 10 12
f 22 10 23
f 24 12 14
f 23 12 24
f 14 16 25
f 14 25 24
f 18 17 26
f 18 26 27
f 28 17 19
f 26 17 28
f 29 19 20
f 28 19 29
f 30 20 21
f 29 20 30
f 31 21 22
f 30 21 31
f 32 22 23
f 31 22 32
f 33 23 24
f 32 23 33
f 24 25 34
f 24 34 33
f 27 26 35
f 27 35 36
f 37 26 28
f 35 26 37
f 38 28 29
f 37 28 38
f 39 29 30
f 38 29 39
f 40 30 31
f 39 30 40
f 41 31 32
f 40 31 41
f 42 32 33
f 41 32 42
f 33 34 43
f 33 43 42
f 36 35 44
f 36 44 45
f 46 35 37
f 44 35 46
f 47 37 38
f 46 37 47
f 48 38 39
f 47 38 48
f 49 39 40
f 48 39 49
f 50 40 41
f 49 40 50
f 51 41 42
f 50 41 51
f 42 43 52
f 42 52 51
f 45 44 53
f 45 53 54
f 55 44 46
f 53 44 55
f 56 46 47
f 55 46 56
f 57 47 48
f 56 47 57
f 58 48 49
f 57 48 58
f 59 49 50
f 58 49 59
f 60 50 51
f 59 50 60
f 51 52 61
f 51 61 60
f 54 53 62
f 54 62 63
f 64 53 55
f 62 53 64
f 65 55 56
f 64 55 65
f 66 56 57
f 65 56 66
f 67 57 58
f 66 57 67
f 68 58 59
f 67 58 68
f 69 59 60
f 68 59 69
f 60 61 70
f 60 70 69
f 63 62 71
f 63 71 72
f 73 62 64
f 71 62 73
f 74 64 65
f 73 64 74
f 75 65 66
f 74 65 75
f 76 66 67
f 75 66 76
f 77 67 68
f 76 67 77
f 78 68 69
f 77 68 78
f 69 70 79
f 69 79 78
f 72 71 80
f 72 80 81
f 82 71 73
f 80 71 82
f 83 73 74
f 82 73 83
f 84 74 75
f 83 74 84
f 85 75 76
f 84 75 85
f 86 76 77
f 85 76 86
f 87 77 78
f 86 77 87
f 78 79 88
f 78 88 87
f 89 81 80
f 89 80 82
f 89 82 90
f 90 82 83
f 90 83 91
f 91 83 84
f 91 84 92
f 92 84 85
f 92 85 93
f 93 85 86
f 93 86 94
f 94 86 87
f 94 87 95
f 95 87 88
f 98 97 96
f 100 99 96
f 100 96 97
f 102 101 99
f 102 99 100
f 104 103 101
f 104 101 102
f 106 105 103
f 106 103 104
f 108 107 105
f 108 105 106
f 110 109 107
f 110 107 108
f 111 109 110
f 98 96 2
f 3 98 2
f 112 98 3
f 2 96 5
f 5 96 99
f 5 99 7
f 7 99 101
f 7 101 9
f 9 101 103
f 9 103 11
f 11 103 105
f 11 105 13
f 13 105 107
f 13 107 15
f 15 107 109
f 16 15 109
f 111 16 109
f 113 16 111
f 18 115 114
f 112 18 114
f 3 18 112
f 117 116 115
f 115 116 114
f 119 118 117
f 117 118 116
f 121 120 119
f 119 120 118
f 123 122 121
f 121 122 120
f 125 124 123
f 123 124 122
f 127 126 125
f 125 126 124
f 113 126 127
f 25 113 127
f 16 113 25
f 27 128 115
f 27 115 18
f 115 129 117
f 115 128 129
f 117 130 119
f 117 129 130
f 119 131 121
f 119 130 131
f 121 132 123
f 121 131 132
f 123 133 125
f 123 132 133
f 125 134 127
f 125 133 134
f 134 34 25
f 134 25 127
f 36 135 128
f 36 128 27
f 128 136 129
f 128 135 136
f 129 137 130
f 129 136 137
f 130 138 131
f 130 137 138
f 131 139 132
f 131 138 139
f 132 140 133
f 132 139 140
f 133 141 134
f 133 140 141
f 141 43 34
f 141 34 134
f 45 142 135
f 45 135 36
f 135 143 136
f 135 142 143
f 136 144 137
f 136 143 144
f 137 145 138
f 137 144 145
f 138 146 139
f 138 145 146
f 139 147 140
f 139 146 147
f 140 148 141
f 140 147 148
f 148 52 43
f 148 43 141
f 54 149 142
f 54 142 45
f 142 150 143
f 142 149 150
f 143 151 144
f 143 150 151
f 144 152 145
f 144 151 152
f 145 153 146
f 145 152 153
f 146 154 147
f 146 153 154
f 147 155 148
f 147 154 155
f 155 61 52
f 155 52 148
f 63 156 149
f 63 149 54
f 149 157 150
f 149 156 157
f 150 158 151
f 150 157 158
f 151 159 152
f 151 158 159
f 152 160 153
f 152 159 160
f 153 161 154
f 153 160 161
f 154 162 155
f 154 161 162
f 162 70 61
f 162 61 155
f 72 163 156
f 72 156 63
f 156 164 157
f 156 163 164
f 157 165 158
f 157 164 165
f 158 166 159
f 158 165 166
f 159 167 160
f 159 166 167
f 160 168 161
f 160 167 168
f 161 169 162
f 161 168 169
f 169 79 70
f 169 70 162
f 171 170 163
f 72 171 163
f 81 171 72
f 163 170 164
f 164 170 172
f 164 172 165
f 165 172 173
f 165 173 166
f 166 173 174
f 166 174 167
f 167 174 175
f 167 175 168
f 168 175 176
f 168 176 169
f 169 176 177
f 79 169 177
f 178 79 177
f 88 79 178
f 81 89 179
f 180 81 179
f 171 81 180
f 90 181 89
f 89 181 179
f 91 182 90
f 90 182 181
f 92 183 91
f 91 183 182
f 93 184 92
f 92 184 183
f 94 185 93
f 93 185 184
f 95 186 94
f 94 186 185
f 187 186 95
f 88 187 95
f 178 187 88
f 188 180 179
f 188 179 181
f 188 181 189
f 189 181 182
f 189 182 190
f 190 182 183
f 190 183 191
f 191 183 184
f 191 184 192
f 192 184 185
f 192 185 193
f 193 185 186
f 193 186 194
f 194 186 187
f 196 195 97
f 196 97 98
f 97 197 100
f 195 197 97
f 100 198 102
f 197 198 100
f 102 199 104
f 198 199 102
f 104 200 106
f 199 200 104
f 106 201 108
f 200 201 106
f 108 202 110
f 201 202 108
f 111 110 202
f 111 202 203
f 112 205 204
f 196 112 204
f 98 112 196
f 207 206 205
f 205 206 204
f 209 208 207
f 207 208 206
f 211 210 209
f 209 210 208
f 213 212 211
f 211 212 210
f 215 214 213
f 213 214 212
f 217 216 215
f 215 216 214
f 203 216 217
f 113 203 217
f 111 203 113
f 114 205 112
f 205 114 116
f 205 116 207
f 207 116 118
f 207 118 209
f 209 118 120
f 209 120 211
f 211 120 122
f 211 122 213
f 213 122 124
f 213 124 215
f 215 124 126
f 215 126 217
f 217 126 113
f 171 218 170
f 219 172 170
f 219 170 218
f 220 173 172
f 220 172 219
f 221 174 173
f 221 173 220
f 222 175 174
f 222 174 221
f 223 176 175
f 223 175 222
f 224 177 176
f 224 176 223
f 224 178 177
f 226 225 218
f 171 226 218
f 180 226 171
f 218 225 219
f 219 225 227
f 219 227 220
f 220 227 228
f 220 228 221
f 221 228 229
f 221 229 222
f 222 229 230
f 222 230 223
f 223 230 231
f 223 231 224
f 224 231 232
f 178 224 232
f 233 178 232
f 187 178 233
f 234 226 180
f 234 180 188
f 235 188 189
f 235 234 188
f 236 189 190
f 236 235 189
f 237 190 191
f 237 236 190
f 238 191 192
f 238 237 191
f 239 192 193
f 239 238 192
f 240 193 194
f 240 239 193
f 194 187 233
f 194 233 240
f 242 241 195
f 242 195 196
f 195 243 197
f 241 243 195
f 197 244 198
f 243 244 197
f 198 245 199
f 244 245 198
f 199 246 200
f 245 246 199
f 200 247 201
f 246 247 200
f 201 248 202
f 247 248 201
f 203 202 248
f 203 248 249
f 250 242 196
f 250 196 204
f 251 204 206
f 251 250 204
f 252 206 208
f 252 251 206
f 253 208 210
f 253 252 208
f 254 210 212
f 254 253 210
f 255 212 214
f 255 254 212
f 256 214 216
f 256 255 214
f 216 203 249
f 216 249 256
f 258 257 225
f 258 225 226
f 225 259 227
f 257 259 225
f 227 260 228
f 259 260 227
f 228 261 229
f 260 261 228
f 229 262 230
f 261 262 229
f 230 263 231
f 262 263 230
f 231 264 232
f 263 264 231
f 233 232 264
f 233 264 265
f 266 258 226
f 266 226 234
f 267 234 235
f 267 266 234
f 268 235 236
f 268 267 235
f 269 236 237
f 269 268 236
f 270 237 238
f 270 269 237
f 271 238 239
f 271 270 238
f 272 239 240
f 272 271 239
f 240 233 265
f 240 265 272
f 274 273 241
f 274 241 242
f 241 275 243
f 273 275 241
f 243 276 244
f 275 276 243
f 244 277 245
f 276 277 244
f 245 278 246
f 277 278 245
f 246 279 247
f 278 279 246
f 247 280 248
f 279 280 247
f 249 248 280
f 249 280 281
f 282 274 242
f 282 242 250
f 283 250 251
f 283 282 250
f 284 251 252
f 284 283 251
f 285 252 253
f 285 284 252
f 286 253 254
f 286 285 253
f 287 254 255
f 287 286 254
f 288 255 256
f 288 287 255
f 256 249 281
f 256 281 288
f 290 289 257
f 290 257 258
f 257 291 259
f 289 291 257
f 259 292 260
f 291 292 259
f 260 293 261
f 292 293 260
f 261 294 262
f 293 294 261
f 262 295 263
f 294 295 262
f 263 296 264
f 295 296 263
f 265 264 296
f 265 296 297
f 298 290 258
f 298 258 266
f 299 266 267
f 299 298 266
f 300 267 268
f 300 299 267
f 301 268 269
f 301 300 268
f 302 269 270
f 302 301 269
f 303 270 271
f 303 302 270
f 304 271 272
f 304 303 271
f 272 265 297
f 272 297 304
f 306 305 273
f 306 273 274
f 273 307 275
f 305 307 273
f 275 308 276
f 307 308 275
f 276 309 277
f 308 309 276
f 277 310 278
f 309 310 277
f 278 311 279
f 310 311 278
f 279 312 280
f 311 312 279
f 281 280 312
f 281 312 313
f 314 306 274
f 314 274 282
f 315 282 283
f 315 314 282
f 316 283 284
f 316 315 283
f 317 284 285
f 317 316 284
f 318 285 286
f 318 317 285
f 319 286 287
f 319 318 286
f 320 287 288
f 320 319 287
f 288 281 313
f 288 313 320
f 322 321 289
f 322 289 290
f 289 323 291
f 321 323 289
f 291 324 292
f 323 324 291
f 292 325 293
f 324 325 292
f 293 326 294
f 325 326 293
f 294 327 295
f 326 327 294
f 295 328 296
f 327 328 295
f 297 296 328
f 297 328 329
f 330 322 290
f 330 290 298
f 331 298 299
f 331 330 298
f 332 299 300
f 332 331 299
f 333 300 301
f 333 332 300
f 334 301 302
f 334 333 301
f 335 302 303
f 335 334 302
f 336 303 304
f 336 335 303
f 304 297 329
f 304 329 336
f 338 337 305
f 338 305 306
f 305 339 307
f 337 339 305
f 307 340 308
f 339 340 307
f 308 341 309
f 340 341 308
f 309 342 310
f 341 342 309
f 310 343 311
f 342 343 310
f 311 344 312
f 343 344 311
f 313 312 344
f 313 344 345
f 346 338 306
f 346 306 314
f 347 314 315
f 347 346 314
f 348 315 316
f 348 347 315
f 349 316 317
f 349 348 316
f 350 317 318
f 350 349 317
f 351 318 319
f 351 350 318
f 352 319 320
f 352 351 319
f 320 313 345
f 320 345 352
f 354 353 321
f 354 321 322
f 321 355 323
f 353 355 321
f 323 356 324
f 355 356 323
f 324 357 325
f 356 357 324
f 325 358 326
f 357 358 325
f 326 359 327
f 358 359 326
f 327 360 328
f 359 360 327
f 329 328 360
f 329 360 361
f 362 354 322
f 362 322 330
f 363 330 331
f 363 362 330
f 364 331 332
f 364 363 331
f 365 332 333
f 365 364 332
f 366 333 334
f 366 365 333
f 367 334 335
f 367 366 334
f 368 335 336
f 368 367 335
f 336 329 361
f 336 361 368
f 370 369 337
f 370 337 338
f 337 371 339
f 369 371 337
f 339 372 340
f 371 372 339
f 340 373 341
f 372 373 340
f 341 374 342
f 373 374 341
f 342 375 343
f 374 375 342
f 343 376 344
f 375 376 343
f 345 344 376
f 345 376 377
f 378 370 338
f 378 338 346
f 379 346 347
f 379 378 346
f 380 347 348
f 380 379 347
f 381 348 349
f 381 380 348
f 382 349 350
f 382 381 349
f 383 350 351
f 383 382 350
f 384 351 352
f 384 383 351
f 352 345 377
f 352 377 384
f 386 385 353
f 386 353 354
f 353 387 355
f 385 387 353
f 355 388 356
f 387 388 355
f 356 389 357
f 388 389 356
f 357 390 358
f 389 390 357
f 358 391 359
f 390 391 358
f 359 392 360
f 391 392 359
f 361 360 392
f 361 392 393
f 394 386 354
f 394 354 362
f 395 362 363
f 395 394 362
f 396 363 364
f 396 395 363
f 397 364 365
f 397 396 364
f 398 365 366
f 398 397 365
f 399 366 367
f 399 398 366
f 400 367 368
f 400 399 367
f 368 361 393
f 368 393 400
f 402 401 369
f 402 369 370
f 369 403 371
f 401 403 369
f 371 404 372
f 403 404 371
f 372 405 373
f 404 405 372
f 373 406 374
f 405 406 373
f 374 407 375
f 406 407 374
f 375 408 376
f 407 408 375
f 377 376 408
f 377 408 409
f 410 402 370
f 410 370 378
f 411 378 379
f 411 410 378
f 412 379 380
f 412 411 379
f 413 380 381
f 413 412 380
f 414 381 382
f 414 413 381
f 415 382 383
f 415 414 382
f 416 383 384
f 416 415 383
f 384 377 409
f 384 409 416
f 418 417 385
f 418 385 386
f 385 419 387
f 417 419 385
f 387 420 388
f 419 420 387
f 388 421 389
f 420 421 388
f 389 422 390
f 421 422 389
f 390 423 391
f 422 423 390
f 391 424 392
f 423 424 391
f 393 392 424
f 393 424 425
f 426 418 386
f 426 386 394
f 427 394 395
f 427 426 394
f 428 395 396
f 428 427 395
f 429 396 397
f 429 428 396
f 430 397 398
f 430 429 397
f 431 398 399
f 431 430 398
f 432 399 400
f 432 431 399
f 400 393 425
f 400 425 432
f 434 433 401
f 434 401 402
f 401 435 403
f 433 435 401
f 403 436 404
f 435 436 403
f 404 437 405
f 436 437 404
f 405 438 406
f 437 438 405
f 406 439 407
f 438 439 406
f 407 440 408
f 439 440 407
f 409 408 440
f 409 440 441
f 402 410 442
f 443 402 442
f 434 402 443
f 411 444 410
f 410 444 442
f 412 445 411
f 411 445 444
f 413 446 412
f 412 446 445
f 414 447 413
f 413 447 446
f 415 448 414
f 414 448 447
f 416 449 415
f 415 449 448
f 450 449 416
f 409 450 416
f 441 450 409
f 451 443 442
f 451 442 444
f 451 444 452
f 452 444 445
f 452 445 453
f 453 445 446
f 453 446 454
f 454 446 447
f 454 447 455
f 455 447 448
f 455 448 456
f 456 448 449
f 456 449 457
f 457 449 450
f 460 459 458
f 462 461 458
f 462 458 459
f 464 463 461
f 464 461 462
f 466 465 463
f 466 463 464
f 468 467 465
f 468 465 466
f 470 469 467
f 470 467 468
f 472 471 469
f 472 469 470
f 473 471 472
f 460 458 417
f 418 460 417
f 474 460 418
f 417 458 419
f 419 458 461
f 419 461 420
f 420 461 463
f 420 463 421
f 421 463 465
f 421 465 422
f 422 465 467
f 422 467 423
f 423 467 469
f 423 469 424
f 424 469 471
f 425 424 471
f 473 425 471
f 475 425 473
f 476 474 418
f 476 418 426
f 477 426 427
f 477 476 426
f 478 427 428
f 478 477 427
f 479 428 429
f 479 478 428
f 480 429 430
f 480 479 429
f 481 430 431
f 481 480 430
f 482 431 432
f 482 481 431
f 432 425 475
f 432 475 482
f 434 483 433
f 484 435 433
f 484 433 483
f 485 436 435
f 485 435 484
f 486 437 436
f 486 436 485
f 487 438 437
f 487 437 486
f 488 439 438
f 488 438 487
f 489 440 439
f 489 439 488
f 489 441 440
f 491 490 483
f 434 491 483
f 443 491 434
f 483 490 484
f 484 490 492
f 484 492 485
f 485 492 493
f 485 493 486
f 486 493 494
f 486 494 487
f 487 494 495
f 487 495 488
f 488 495 496
f 488 496 489
f 489 496 497
f 441 489 497
f 498 441 497
f 450 441 498
f 443 451 499
f 500 443 499
f 491 443 500
f 452 501 451
f 451 501 499
f 453 502 452
f 452 502 501
f 454 503 453
f 453 503 502
f 455 504 454
f 454 504 503
f 456 505 455
f 455 505 504
f 457 506 456
f 456 506 505
f 507 506 457
f 450 507 457
f 498 507 450
f 500 499 508
f 500 508 509
f 510 499 501
f 508 499 510
f 511 501 502
f 510 501 511
f 512 502 503
f 511 502 512
f 513 503 504
f 512 503 513
f 514 504 505
f 513 504 514
f 515 505 506
f 514 505 515
f 506 507 516
f 506 516 515
f 509 508 517
f 509 517 518
f 519 508 510
f 517 508 519
f 520 510 511
f 519 510 520
f 521 511 512
f 520 511 521
f 522 512 513
f 521 512 522
f 523 513 514
f 522 513 523
f 524 514 515
f 523 514 524
f 515 516 525
f 515 525 524
f 518 517 526
f 518 526 527
f 528 517 519
f 526 517 528
f 529 519 520
f 528 519 529
f 530 520 521
f 529 520 530
f 531 521 522
f 530 521 531
f 532 522 523
f 531 522 532
f 533 523 524
f 532 523 533
f 524 525 534
f 524 534 533
f 527 526 535
f 527 535 536
f 537 526 528
f 535 526 537
f 538 528 529
f 537 528 538
f 539 529 530
f 538 529 539
f 540 530 531
f 539 530 540
f 541 531 532
f 540 531 541
f 542 532 533
f 541 532 542
f 533 534 543
f 533 543 542
f 536 535 544
f 536 544 545
f 546 535 537
f 544 535 546
f 547 537 538
f 546 537 547
f 548 538 539
f 547 538 548
f 549 539 540
f 548 539 549
f 550 540 541
f 549 540 550
f 551 541 542
f 550 541 551
f 542 543 552
f 542 552 551
f 545 544 553
f 545 553 554
f 555 544 546
f 553 544 555
f 556 546 547
f 555 546 556
f 557 547 548
f 556 547 557
f 558 548 549
f 557 548 558
f 559 549 550
f 558 549 559
f 560 550 551
f 559 550 560
f 551 552 561
f 551 561 560
f 554 553 459
f 460 554 459
f 562 554 460
f 459 553 462
f 462 553 555
f 462 555 464
f 464 555 556
f 464 556 466
f 466 556 557
f 466 557 468
f 468 557 558
f 468 558 470
f 470 558 559
f 470 559 472
f 472 559 560
f 473 472 560
f 561 473 560
f 563 473 561
f 474 565 564
f 562 474 564
f 460 474 562
f 567 566 565
f 565 566 564
f 569 568 567
f 567 568 566
f 571 570 569
f 569 570 568
f 573 572 571
f 571 572 570
f 575 574 573
f 573 574 572
f 577 576 575
f 575 576 574
f 563 576 577
f 475 563 577
f 473 563 475
f 476 565 474
f 565 476 477
f 565 477 567
f 567 477 478
f 567 478 569
f 569 478 479
f 569 479 571
f 571 479 480
f 571 480 573
f 573 480 481
f 573 481 575
f 575 481 482
f 575 482 577
f 577 482 475
f 491 578 490
f 579 492 490
f 579 490 578
f 580 493 492
f 580 492 579
f 581 494 493
f 581 493 580
f 582 495 494
f 582 494 581
f 583 496 495
f 583 495 582
f 584 497 496
f 584 496 583
f 584 498 497
f 500 585 578
f 500 578 491
f 578 586 579
f 578 585 586
f 579 587 580
f 579 586 587
f 580 588 581
f 580 587 588
f 581 589 582
f 581 588 589
f 582 590 583
f 582 589 590
f 583 591 584
f 583 590 591
f 591 507 498
f 591 498 584
f 509 592 585
f 509 585 500
f 585 593 586
f 585 592 593
f 586 594 587
f 586 593 594
f 587 595 588
f 587 594 595
f 588 596 589
f 588 595 596
f 589 597 590
f 589 596 597
f 590 598 591
f 590 597 598
f 598 516 507
f 598 507 591
f 518 599 592
f 518 592 509
f 592 600 593
f 592 599 600
f 593 601 594
f 593 600 601
f 594 602 595
f 594 601 602
f 595 603 596
f 595 602 603
f 596 604 597
f 596 603 604
f 597 605 598
f 597 604 605
f 605 525 516
f 605 516 598
f 527 606 599
f 527 599 518
f 599 607 600
f 599 606 607
f 600 608 601
f 600 607 608
f 601 609 602
f 601 608 609
f 602 610 603
f 602 609 610
f 603 611 604
f 603 610 611
f 604 612 605
f 604 611 612
f 612 534 525
f 612 525 605
f 536 613 606
f 536 606 527
f 606 614 607
f 606 613 614
f 607 615 608
f 607 614 615
f 608 616 609
f 608 615 616
f 609 617 610
f 609 616 617
f 610 618 611
f 610 617 618
f 611 619 612
f 611 618 619
f 619 543 534
f 619 534 612
f 545 620 613
f 545 613 536
f 613 621 614
f 613 620 621
f 614 622 615
f 614 621 622
f 615 623 616
f 615 622 623
f 616 624 617
f 616 623 624
f 617 625 618
f 617 624 625
f 618 626 619
f 618 625 626
f 626 552 543
f 626 543 619
f 554 627 620
f 554 620 545
f 620 628 621
f 620 627 628
f 621 629 622
f 621 628 629
f 622 630 623
f 622 629 630
f 623 631 624
f 623 630 631
f 624 632 625
f 624 631 632
f 625 633 626
f 625 632 633
f 633 561 552
f 633 552 626
f 562 634 627
f 562 627 554
f 627 635 628
f 627 634 635
f 628 636 629
f 628 635 636
f 629 637 630
f 629 636 637
f 630 638 631
f 630 637 638
f 631 639 632
f 631 638 639
f 632 640 633
f 632 639 640
f 640 563 561
f 640 561 633
f 564 634 562
f 634 564 566
f 634 566 635
f 635 566 568
f 635 568 636
f 636 568 570
f 636 570 637
f 637 570 572
f 637 572 638
f 638 572 574
f 638 574 639
f 639 574 576
f 639 576 640
f 640 576 563

