# https://github.com/mikedh/trimesh
v -0.02096396 -0.01206054 -0.04511499
v -0.01696996 -0.01474346 -0.04619376
v -0.01892525 -0.01140166 -0.04874946
v -0.02122965 -0.01210785 -0.03914779
v -0.01801587 -0.01516270 -0.04050755
v -0.02111064 -0.01210156 -0.03287738
v -0.01784736 -0.01523336 -0.03414059
v -0.02111509 -0.01210889 -0.02673222
v -0.01771184 -0.01527354 -0.02794857
v -0.02112374 -0.01210867 -0.02061416
v -0.01774119 -0.01530013 -0.02182365
v -0.02112308 -0.01210760 -0.01449506
v -0.01774787 -0.01530004 -0.01570404
v -0.02112300 -0.01210757 -0.00837563
v -0.01774745 -0.01529894 -0.00958408
v -0.02112296 -0.01210756 -0.00225615
v -0.01774723 -0.01529890 -0.00346458
v -0.02111960 -0.01210851 0.00386309
v -0.01774333 -0.01529971 0.00265538
v -0.02111393 -0.01210987 0.00997914
v -0.01774540 -0.01530183 0.00877680
v -0.02113149 -0.01210307 0.01609903
v -0.01781684 -0.01527133 0.01489887
v -0.02122062 -0.01210502 0.02237202
v -0.01793881 -0.01520857 0.02101226
v -0.02141171 -0.01195152 0.02874382
v -0.01814639 -0.01520739 0.02733222
v -0.02085458 -0.01123107 0.03356197
v -0.01903716 -0.01449270 0.03233470
v -0.01765969 -0.01254488 0.03546916
v -0.02125213 -0.00645646 -0.04619274
v -0.01810037 -0.00637349 -0.04920797
v -0.02188285 -0.00647858 -0.04064195
v -0.02176367 -0.00643534 -0.03438084
v -0.02172265 -0.00642965 -0.02821902
v -0.02172765 -0.00642968 -0.02210376
v -0.02172787 -0.00642917 -0.01598571
v -0.02172765 -0.00642916 -0.00986625
v -0.02172781 -0.00642917 -0.00374675
v -0.02172781 -0.00642911 0.00237265
v -0.02172295 -0.00642991 0.00848844
v -0.02172044 -0.00643491 0.01460518
v -0.02180262 -0.00643282 0.02081478
v -0.02196012 -0.00633519 0.02715704
v -0.02137493 -0.00627172 0.03277962
v -0.01801757 -0.00776806 0.03663461
v -0.02122889 0.00001051 -0.04584281
v -0.01819515 0.00006961 -0.04896016
v -0.02182481 -0.00002221 -0.04026859
v -0.02165326 -0.00000448 -0.03396364
v -0.02157853 0.00000151 -0.02777551
v -0.02157980 0.00000052 -0.02165997
v -0.02158158 0.00000048 -0.01554283
v -0.02158146 0.00000050 -0.00942332
v -0.02158152 0.00000046 -0.00330384
v -0.02158163 0.00000050 0.00281570
v -0.02157910 0.00000075 0.00893323
v -0.02157728 -0.00000164 0.01505129
v -0.02165146 0.00000380 0.02124506
v -0.02179278 0.00010310 0.02749011
v -0.02119625 0.00013575 0.03292795
v -0.01895303 -0.00134721 0.03663261
v -0.02149848 0.00650289 -0.04578423
v -0.01844333 0.00638145 -0.04899817
v -0.02202305 0.00647864 -0.04009118
v -0.02180535 0.00643370 -0.03369083
v -0.02172097 0.00643121 -0.02748320
v -0.02172490 0.00643080 -0.02137104
v -0.02172785 0.00643015 -0.01525580
v -0.02172772 0.00643014 -0.00913630
v -0.02172773 0.00643013 -0.00301681
v -0.02172776 0.00643015 0.00310278
v -0.02172531 0.00643128 0.00922198
v -0.02172117 0.00643121 0.01533717
v -0.02176580 0.00643266 0.02150170
v -0.02185971 0.00650618 0.02775907
v -0.02119169 0.00655660 0.03321297
v -0.01824689 0.00577052 0.03683215
v -0.02100221 0.01148422 -0.04667095
v -0.01733522 0.01197581 -0.04871144
v -0.02144289 0.01214072 -0.04173655
v -0.02118392 0.01212160 -0.03525217
v -0.02109232 0.01210180 -0.02893017
v -0.02111320 0.01210944 -0.02279420
v -0.02112269 0.01210967 -0.01668076
v -0.02112304 0.01210859 -0.01056169
v -0.02112300 0.01210853 -0.00444213
v -0.02112297 0.01210856 0.00167736
v -0.02112028 0.01211020 0.00779739
v -0.02111734 0.01211038 0.01391067
v -0.02115887 0.01208560 0.02002543
v -0.02126655 0.01208458 0.02625331
v -0.02091726 0.01211673 0.03210826
v -0.01888130 0.01145491 0.03566939
v -0.01829720 0.01483114 -0.04475919
v -0.01798221 0.01523424 -0.03865478
v -0.01780855 0.01524988 -0.03226140
v -0.01773400 0.01527288 -0.02601641
v -0.01774433 0.01530087 -0.01987974
v -0.01774580 0.01530110 -0.01376178
v -0.01774725 0.01529992 -0.00764112
v -0.01774743 0.01529987 -0.00152158
v -0.01774523 0.01530105 0.00459815
v -0.01774340 0.01530233 0.01071517
v -0.01780672 0.01525568 0.01680837
v -0.01795820 0.01516978 0.02300074
v -0.01806890 0.01518874 0.02922986
v -0.01755140 0.01461031 0.03391366
v -0.01207046 -0.01624157 -0.04688784
v -0.01311990 -0.01266084 -0.04933433
v -0.01215449 -0.01564794 -0.04067397
v -0.01349143 -0.01532891 -0.03482662
v -0.01261424 -0.01506709 -0.02903764
v -0.01251849 -0.01513204 -0.02294946
v -0.01253196 -0.01515957 -0.01685429
v -0.01253443 -0.01515858 -0.01073489
v -0.01253432 -0.01515796 -0.00461471
v -0.01253135 -0.01515820 0.00150587
v -0.01253459 -0.01516047 0.00762331
v -0.01263106 -0.01514196 0.01373650
v -0.01277906 -0.01502634 0.01981796
v -0.01229610 -0.01540098 0.02589849
v -0.01258651 -0.01595467 0.03352341
v -0.01295959 -0.01210155 0.03748966
v -0.01246011 -0.00634720 -0.04972765
v -0.01477448 -0.00568233 -0.03860731
v -0.01288788 -0.00522361 -0.04233957
v -0.01120270 -0.00838922 -0.04054648
v -0.01135307 -0.00945001 -0.03574066
v -0.01499159 -0.00561496 -0.03261463
v -0.01207035 -0.00941385 -0.02929397
v -0.01484749 -0.00557943 -0.02642611
v -0.01194886 -0.00946129 -0.02321367
v -0.01478030 -0.00558654 -0.02032752
v -0.01191553 -0.00948176 -0.01713764
v -0.01478197 -0.00558646 -0.01420969
v -0.01191746 -0.00948087 -0.01101893
v -0.01478394 -0.00558581 -0.00808882
v -0.01191780 -0.00948038 -0.00489810
v -0.01478297 -0.00558572 -0.00196804
v -0.01191582 -0.00948000 0.00122182
v -0.01477980 -0.00558460 0.00414569
v -0.01193239 -0.00948111 0.00730924
v -0.01480722 -0.00559362 0.01021352
v -0.01198522 -0.00950442 0.01342473
v -0.01489265 -0.00566065 0.01643632
v -0.01154672 -0.00950285 0.02058841
v -0.01513505 -0.00560395 0.02289004
v -0.01257987 -0.00815901 0.02630101
v -0.01468785 -0.00492175 0.02785033
v -0.01139843 -0.00633174 0.02956945
v -0.01193374 -0.00930767 0.04012956
v -0.01542084 -0.00441395 0.03945257
v -0.01170950 -0.00642187 0.04228384
v -0.01271525 -0.00004348 -0.04961451
v -0.01540330 0.00001809 -0.03979003
v -0.01219907 -0.00010598 -0.04292341
v -0.01600662 0.00001151 -0.03408477
v -0.01585338 -0.00000147 -0.02778958
v -0.01576971 -0.00000129 -0.02165865
v -0.01576920 0.00000002 -0.01554485
v -0.01577341 0.00000051 -0.00942341
v -0.01577346 0.00000045 -0.00330367
v -0.01576901 0.00000058 0.00281627
v -0.01576756 0.00000073 0.00892675
v -0.01585188 0.00000065 0.01505814
v -0.01605231 0.00007104 0.02134786
v -0.01548894 0.00015446 0.02703571
v -0.01219308 -0.00143720 0.03023828
v -0.01574927 0.00145790 0.03952721
v -0.01257632 -0.00163847 0.04234747
v -0.01283647 0.00627603 -0.04969632
v -0.01472307 0.00511943 -0.04052412
v -0.01096048 0.00569157 -0.04242852
v -0.01514523 0.00576412 -0.03565322
v -0.01488753 0.00565720 -0.02928655
v -0.01480845 0.00558899 -0.02309951
v -0.01478039 0.00558599 -0.01703105
v -0.01478292 0.00558678 -0.01091493
v -0.01478397 0.00558675 -0.00479420
v -0.01478163 0.00558681 0.00132479
v -0.01477858 0.00558803 0.00744378
v -0.01484819 0.00558918 0.01357610
v -0.01502608 0.00564773 0.01982769
v -0.01490445 0.00576236 0.02582192
v -0.01226333 0.00473703 0.02975654
v -0.01474903 0.00674437 0.03921112
v -0.01144716 0.00559501 0.04246873
v -0.01129170 0.01300139 -0.04921181
v -0.01269760 0.00826803 -0.03903315
v -0.01155651 0.00951155 -0.03327728
v -0.01197022 0.00948350 -0.02618823
v -0.01193367 0.00948092 -0.02012723
v -0.01191624 0.00948155 -0.01404071
v -0.01191781 0.00948135 -0.00791963
v -0.01191715 0.00948139 -0.00180006
v -0.01191321 0.00948371 0.00432065
v -0.01195819 0.00948045 0.01044962
v -0.01210941 0.00943128 0.01660542
v -0.01146187 0.00945907 0.02300621
v -0.01136048 0.00839779 0.02773493
v -0.01297015 0.01264245 0.03728642
v -0.01159692 0.00982457 0.03998787
v -0.01356881 0.01582276 -0.04600183
v -0.01234525 0.01542563 -0.04000242
v -0.01338691 0.01534790 -0.03477732
v -0.01263995 0.01506253 -0.02911127
v -0.01257460 0.01512933 -0.02295826
v -0.01253664 0.01516014 -0.01687225
v -0.01253235 0.01515961 -0.01075686
v -0.01253432 0.01515893 -0.00463539
v -0.01253347 0.01515927 0.00148403
v -0.01252970 0.01516199 0.00760492
v -0.01257702 0.01513745 0.01371824
v -0.01274249 0.01502149 0.01984651
v -0.01211067 0.01568629 0.02670828
v -0.01289764 0.01621688 0.03313959
v -0.00915898 -0.01881939 -0.04499638
v -0.00452820 -0.02103858 -0.04611779
v -0.00736796 -0.01748157 -0.04883925
v -0.00881451 -0.01795110 -0.03896583
v -0.00586426 -0.02121171 -0.04055109
v -0.00873225 -0.01896981 -0.03346371
v -0.00600587 -0.02106257 -0.03422840
v -0.00872470 -0.01845289 -0.02818669
v -0.00612096 -0.02103075 -0.02799475
v -0.00878410 -0.01836880 -0.02204065
v -0.00614787 -0.02097379 -0.02183525
v -0.00877123 -0.01835643 -0.01598793
v -0.00614470 -0.02098140 -0.01571643
v -0.00876950 -0.01835748 -0.00987490
v -0.00614237 -0.02098477 -0.00960157
v -0.00876987 -0.01835826 -0.00375357
v -0.00614257 -0.02098558 -0.00348062
v -0.00877243 -0.01835656 0.00236451
v -0.00614218 -0.02098404 0.00263839
v -0.00877824 -0.01834905 0.00847725
v -0.00614767 -0.02097678 0.00875669
v -0.00871005 -0.01839609 0.01463185
v -0.00614052 -0.02098018 0.01487666
v -0.00840296 -0.01853087 0.02101151
v -0.00595469 -0.02110270 0.02109837
v -0.00894846 -0.01790991 0.02780443
v -0.00577030 -0.02119119 0.02748822
v -0.00887208 -0.01885733 0.03340616
v -0.00635878 -0.02063527 0.03256299
v -0.00521624 -0.01853107 0.03643954
v -0.00609021 -0.01271527 -0.04974801
v -0.01014949 -0.01277047 -0.03289545
v -0.00774976 -0.01300473 -0.03762865
v -0.00562219 -0.01552218 -0.03450917
v -0.00613731 -0.01579786 -0.02666335
v -0.01004856 -0.01255532 -0.02608799
v -0.00615449 -0.01573966 -0.02055473
v -0.00999371 -0.01261813 -0.02002741
v -0.00614205 -0.01572960 -0.01448932
v -0.00999276 -0.01262787 -0.01392741
v -0.00614259 -0.01573053 -0.00836940
v -0.00999386 -0.01262655 -0.00780690
v -0.00614435 -0.01572963 -0.00224709
v -0.00999260 -0.01262639 -0.00168607
v -0.00614171 -0.01572543 0.00386704
v -0.00999248 -0.01262689 0.00443010
v -0.00608696 -0.01575267 0.00999043
v -0.01005337 -0.01262734 0.01051100
v -0.00594406 -0.01591186 0.01618086
v -0.01012992 -0.01257567 0.01665204
v -0.00564414 -0.01574966 0.02222686
v -0.00922326 -0.01251390 0.02248609
v -0.00632421 -0.01369764 0.02547587
v -0.00933709 -0.01234636 0.03967820
v -0.00737015 -0.01479563 0.03881752
v -0.00533212 -0.01207602 0.04209428
v -0.00608468 -0.00639502 -0.04951867
v -0.00701199 -0.00654023 -0.04294748
v -0.00647198 -0.01030083 -0.04012758
v -0.00794687 -0.00978129 0.02674013
v -0.00598487 -0.00663974 0.03030170
v -0.00946631 -0.00526597 0.04657547
v -0.00662304 -0.00915806 0.04539456
v -0.00888540 -0.00583578 0.05306932
v -0.00552028 -0.00890373 0.05145760
v -0.00924394 -0.00573847 0.05952361
v -0.00644759 -0.00886508 0.05682988
v -0.00877283 -0.00511529 0.06458018
v -0.00570062 -0.00949941 0.06239671
v -0.00524605 -0.00776247 0.06668385
v -0.00551441 0.00014131 -0.04884615
v -0.00557266 0.00083204 -0.04396088
v -0.00566037 0.00042878 0.03141908
v -0.01022834 0.00133818 0.04615751
v -0.00958538 -0.00007167 0.05162615
v -0.00986842 -0.00011621 0.05811402
v -0.00938668 0.00011537 0.06397275
v -0.00534374 -0.00018164 0.06678444
v -0.00738676 0.00713567 -0.04959224
v -0.00528208 0.00752257 -0.04281852
v -0.00646281 0.00732770 0.03007960
v -0.00946217 0.00574977 0.04603183
v -0.00878333 0.00561290 0.05018439
v -0.00897826 0.00562006 0.05654533
v -0.00883365 0.00580109 0.06273588
v -0.00593835 0.00626347 0.06685690
v -0.00565915 0.01177421 -0.04965641
v -0.00803559 0.00979611 -0.03941274
v -0.00942759 0.01283429 -0.03432830
v -0.00640139 0.01365741 -0.03823588
v -0.01004895 0.01256310 -0.02768596
v -0.01004301 0.01261677 -0.02159247
v -0.00999465 0.01262825 -0.01553726
v -0.00999274 0.01262755 -0.00941989
v -0.00999378 0.01262735 -0.00329910
v -0.00999044 0.01262881 0.00282099
v -0.01000047 0.01262968 0.00894672
v -0.01012880 0.01256240 0.01503988
v -0.01003861 0.01244433 0.02090955
v -0.00772312 0.01303625 0.02481727
v -0.00659184 0.01030638 0.02731200
v -0.00923828 0.01259236 0.03965349
v -0.00732884 0.01139947 0.04179905
v -0.00572995 0.00915867 0.04636665
v -0.00573281 0.00884749 0.05330732
v -0.00666076 0.00882603 0.05916878
v -0.00517244 0.00989307 0.06384368
v -0.00981849 0.01808139 -0.04680074
v -0.00563293 0.01781773 -0.04883209
v -0.00911294 0.01792965 -0.04077816
v -0.00573208 0.01584435 -0.03377592
v -0.00866950 0.01899724 -0.03511662
v -0.00870574 0.01842649 -0.02948684
v -0.00612906 0.01576966 -0.02638579
v -0.00877800 0.01834994 -0.02337841
v -0.00615191 0.01572983 -0.02029732
v -0.00877114 0.01835733 -0.01731124
v -0.00614228 0.01573124 -0.01421582
v -0.00876966 0.01835888 -0.01119547
v -0.00614265 0.01573169 -0.00809583
v -0.00877000 0.01835890 -0.00507446
v -0.00614401 0.01573097 -0.00197452
v -0.00877172 0.01835727 0.00104510
v -0.00613960 0.01572574 0.00414227
v -0.00877233 0.01835411 0.00716221
v -0.00609844 0.01575729 0.01026752
v -0.00873955 0.01841225 0.01330335
v -0.00601910 0.01592390 0.01648528
v -0.00852065 0.01850539 0.01961099
v -0.00549275 0.01536661 0.02291260
v -0.00869181 0.01801157 0.02589027
v -0.00901633 0.01885897 0.03192099
v -0.00727777 0.01782003 0.03612754
v -0.00509343 0.01511173 0.03937221
v -0.00585378 0.02100646 -0.04480210
v -0.00589157 0.02118373 -0.03883409
v -0.00608334 0.02103005 -0.03259424
v -0.00614362 0.02096091 -0.02644592
v -0.00614513 0.02098198 -0.02033351
v -0.00614263 0.02098639 -0.01421650
v -0.00614265 0.02098607 -0.00809547
v -0.00614274 0.02098619 -0.00197586
v -0.00614434 0.02098421 0.00414234
v -0.00614908 0.02098137 0.01025371
v -0.00612211 0.02103128 0.01638665
v -0.00597536 0.02114384 0.02269516
v -0.00564553 0.02128756 0.02905828
v -0.00487963 0.02075696 0.03383245
v 0.00156396 -0.02157169 -0.04597712
v -0.00131434 -0.01835068 -0.04913140
v -0.00000972 -0.02213000 -0.04046749
v -0.00003993 -0.02193043 -0.03412487
v 0.00001665 -0.02185819 -0.02786782
v 0.00000061 -0.02185703 -0.02168091
v -0.00000065 -0.02186975 -0.01553765
v 0.00000048 -0.02187395 -0.00941714
v 0.00000029 -0.02187396 -0.00329660
v 0.00000147 -0.02186969 0.00282394
v -0.00000043 -0.02185636 0.00896897
v -0.00001906 -0.02186206 0.01515666
v 0.00004662 -0.02194247 0.02138237
v 0.00007655 -0.02203155 0.02764152
v -0.00131525 -0.02128403 0.03320035
v 0.00177246 -0.01876424 0.03710404
v 0.00021469 -0.01274820 -0.04964668
v -0.00352697 -0.01284197 -0.03959417
v -0.00054762 -0.01073579 -0.04224957
v 0.00056221 -0.01414881 -0.03847926
v 0.00089759 -0.01516507 -0.03303194
v -0.00002478 -0.01499434 -0.02774306
v -0.00004072 -0.01486470 -0.02158493
v -0.00000082 -0.01483991 -0.01553153
v 0.00000114 -0.01484138 -0.00941865
v -0.00000037 -0.01484138 -0.00329505
v 0.00000159 -0.01483989 0.00281781
v 0.00004145 -0.01486450 0.00887152
v 0.00002473 -0.01499501 0.01503066
v -0.00089930 -0.01516871 0.02032003
v -0.00050823 -0.01417474 0.02577041
v -0.00342204 -0.01162727 0.02819241
v 0.00070293 -0.01071134 0.02955916
v -0.00135219 -0.01548856 0.03998359
v 0.00142823 -0.01232437 0.04283658
v -0.00282404 -0.01223695 0.06488475
v 0.00014122 -0.01399505 0.06440843
v -0.00085137 -0.01262430 0.06251198
v 0.00078120 -0.01111854 0.06651352
v 0.00098505 -0.00544122 -0.04883851
v -0.00025235 -0.00490557 -0.04399117
v 0.00034006 -0.00487048 0.03146285
v 0.00002750 -0.01010199 0.04635297
v 0.00017337 -0.00950229 0.05170165
v -0.00006417 -0.01029983 0.05876896
v -0.00044596 -0.00487586 0.06725853
v 0.00012174 -0.00247524 -0.04623004
v -0.00238169 -0.00012316 -0.04622978
v -0.00097602 -0.00180410 0.03343228
v -0.00182545 0.00102208 0.03343161
v 0.00000041 -0.00000354 0.03469818
v -0.00142278 -0.00055995 0.05855374
v 0.00000103 -0.00000346 0.05605606
v 0.00055138 -0.00145895 0.05855382
v 0.00037452 -0.00216432 0.06339152
v -0.00227887 -0.00033959 0.06337526
v -0.00011762 0.00248212 -0.04622953
v -0.00097917 0.00545060 -0.04884061
v 0.00025353 0.00490620 -0.04399458
v 0.00097625 0.00180096 0.03343073
v -0.00034018 0.00487343 0.03146109
v -0.00054984 0.00145461 0.05855288
v -0.00038301 0.00220866 0.06337669
v 0.00043448 0.00502102 0.06728856
v -0.00032684 0.01275868 -0.04963791
v -0.00359015 0.01162076 -0.04092948
v 0.00050558 0.01074788 -0.04221826
v -0.00347483 0.01286016 0.02677831
v -0.00065840 0.01071615 0.02951571
v -0.00131642 0.01254799 0.04254113
v 0.00159602 0.01012216 0.04638305
v 0.00008975 0.00953028 0.05185344
v -0.00090992 0.01033470 0.05898225
v -0.00196069 0.01264273 0.06345545
v 0.00099674 0.01263067 0.06255137
v -0.00069244 0.01121217 0.06652793
v 0.00109517 0.01838768 -0.04905035
v -0.00068104 0.01415243 -0.03846765
v 0.00095911 0.01517216 -0.03313830
v 0.00003498 0.01499022 -0.02773269
v -0.00003267 0.01484753 -0.02160778
v -0.00000133 0.01484021 -0.01553386
v 0.00000096 0.01484283 -0.00941796
v -0.00000019 0.01484283 -0.00329574
v 0.00000206 0.01484022 0.00282015
v 0.00003344 0.01484721 0.00889444
v -0.00003141 0.01498991 0.01501996
v -0.00095483 0.01517503 0.02042430
v 0.00062759 0.01417155 0.02574189
v -0.00119198 0.01899079 0.03676680
v 0.00177847 0.01575544 0.03962151
v -0.00001798 0.01398924 0.06439265
v -0.00019429 0.02156502 -0.04593243
v 0.00001932 0.02215150 -0.04033031
v 0.00003303 0.02192792 -0.03399321
v 0.00000483 0.02185240 -0.02778431
v -0.00000055 0.02186792 -0.02165573
v 0.00000019 0.02187537 -0.01553674
v 0.00000039 0.02187484 -0.00941666
v 0.00000038 0.02187484 -0.00329704
v 0.00000058 0.02187538 0.00282300
v 0.00000119 0.02186782 0.00894195
v -0.00000444 0.02185255 0.01507376
v -0.00002475 0.02193071 0.02128341
v -0.00000279 0.02211133 0.02752155
v 0.00007845 0.02146277 0.03299313
v 0.00642137 -0.02086575 -0.04534190
v 0.00543536 -0.01784619 -0.04886081
v 0.00571379 -0.02133019 -0.04023538
v 0.00594205 -0.02110089 -0.03381283
v 0.00613986 -0.02097459 -0.02758573
v 0.00614812 -0.02097716 -0.02146906
v 0.00614299 -0.02098415 -0.01535213
v 0.00614335 -0.02098556 -0.00923312
v 0.00614314 -0.02098478 -0.00311214
v 0.00614552 -0.02098138 0.00300270
v 0.00614823 -0.02097318 0.00912289
v 0.00611943 -0.02103233 0.01528261
v 0.00602055 -0.02108190 0.02146971
v 0.00598254 -0.02115244 0.02769408
v 0.00483500 -0.02084654 0.03325849
v 0.00617802 -0.01872658 0.03646963
v 0.00557685 -0.01177573 -0.04965628
v 0.00354958 -0.01163681 -0.04088207
v 0.00631712 -0.01369339 -0.03821270
v 0.00560148 -0.01576660 -0.03494501
v 0.00594047 -0.01591097 -0.02889286
v 0.00608930 -0.01575195 -0.02270370
v 0.00614258 -0.01572551 -0.01658084
v 0.00614510 -0.01572963 -0.01046663
v 0.00614336 -0.01573053 -0.00434430
v 0.00614283 -0.01572960 0.00177560
v 0.00615520 -0.01573956 0.00784117
v 0.00613641 -0.01579786 0.01395097
v 0.00562675 -0.01553098 0.02178494
v 0.00359577 -0.01282462 0.02688584
v 0.00778783 -0.01299942 0.02482442
v 0.00582390 -0.01553551 0.03886005
v 0.00563528 -0.01233537 0.04215809
v 0.00213023 -0.01261233 0.06351417
v 0.00737251 -0.00712883 -0.04960516
v 0.00528371 -0.00754223 -0.04281977
v 0.00805496 -0.00983873 -0.03954996
v 0.00660509 -0.01022811 0.02731828
v 0.00647770 -0.00723524 0.03004982
v 0.00643581 -0.00971864 0.04510701
v 0.00573690 -0.00866409 0.05180591
v 0.00608155 -0.00872124 0.05820319
v 0.00536599 -0.00971366 0.06385337
v 0.00604737 -0.00606960 0.06691181
v 0.00238581 0.00013004 -0.04622980
v 0.00552524 -0.00013569 -0.04884588
v 0.00556402 -0.00088614 -0.04399440
v 0.00182569 -0.00102522 0.03343140
v 0.00565969 -0.00034056 0.03142522
v 0.00142432 0.00055561 0.05855297
v 0.00227039 0.00038392 0.06339295
v 0.00531424 0.00032827 0.06686261
v 0.00608743 0.00639898 -0.04952032
v 0.00702311 0.00640494 -0.04293297
v 0.00596703 0.00669727 0.03036102
v 0.00524221 0.00788473 0.06682671
v 0.00595630 0.01274244 -0.04972675
v 0.00649093 0.01028349 -0.03997587
v 0.00340584 0.01289035 -0.03949329
v 0.00771262 0.01304358 -0.03748346
v 0.00346672 0.01160253 0.02823036
v 0.00789994 0.00979536 0.02689878
v 0.00635066 0.01369376 0.02549968
v 0.00515376 0.01181785 0.04263152
v 0.00587396 0.00923893 0.04628975
v 0.00574008 0.00861637 0.05047304
v 0.00574166 0.00884265 0.05670364
v 0.00575585 0.00956107 0.06266686
v 0.00291164 0.01226678 0.06499061
v 0.00713694 0.01755573 -0.04872560
v 0.00549430 0.01536754 -0.03562791
v 0.00602200 0.01592407 -0.02919871
v 0.00609921 0.01575753 -0.02298109
v 0.00614030 0.01572573 -0.01685599
v 0.00614477 0.01573096 -0.01073918
v 0.00614341 0.01573169 -0.00461787
v 0.00614303 0.01573125 0.00150211
v 0.00615263 0.01572967 0.00758377
v 0.00613179 0.01576940 0.01367322
v 0.00573438 0.01585813 0.02104584
v 0.00517737 0.01835849 0.03668947
v 0.00594373 0.01511597 0.03960376
v 0.00477819 0.02088699 -0.04675048
v 0.00565280 0.02137602 -0.04187031
v 0.00598428 0.02114594 -0.03540642
v 0.00612245 0.02102909 -0.02909569
v 0.00614961 0.02098138 -0.02296740
v 0.00614512 0.02098422 -0.01685612
v 0.00614351 0.02098619 -0.01073784
v 0.00614341 0.02098607 -0.00461823
v 0.00614340 0.02098640 0.00150278
v 0.00614581 0.02098193 0.00761973
v 0.00614424 0.02096024 0.01373379
v 0.00608904 0.02103307 0.01988495
v 0.00590172 0.02119606 0.02605288
v 0.00571439 0.02095097 0.03184295
v 0.00957792 -0.01816057 -0.04674464
v 0.00890844 -0.01801639 -0.04057801
v 0.00835270 -0.01855375 -0.03372893
v 0.00870991 -0.01839140 -0.02734219
v 0.00877973 -0.01834876 -0.02119041
v 0.00877322 -0.01835669 -0.01507830
v 0.00877063 -0.01835825 -0.00896016
v 0.00877027 -0.01835748 -0.00283880
v 0.00877203 -0.01835643 0.00327420
v 0.00878464 -0.01836847 0.00932759
v 0.00872303 -0.01845313 0.01547503
v 0.00873802 -0.01898334 0.02072694
v 0.00887751 -0.01796617 0.02614478
v 0.00907106 -0.01841188 0.03290176
v 0.01394019 -0.01594389 -0.04552515
v 0.01113806 -0.01303778 -0.04923633
v 0.01224834 -0.01544837 -0.03882246
v 0.00922544 -0.01251068 -0.03529277
v 0.01274678 -0.01502747 -0.03272049
v 0.01013101 -0.01257053 -0.02952156
v 0.01263188 -0.01514089 -0.02660812
v 0.01005522 -0.01262573 -0.02339151
v 0.01253572 -0.01516052 -0.02049236
v 0.00999322 -0.01262706 -0.01730831
v 0.01253208 -0.01515823 -0.01437491
v 0.00999331 -0.01262642 -0.01119166
v 0.01253508 -0.01515796 -0.00825437
v 0.00999470 -0.01262640 -0.00507083
v 0.01253532 -0.01515833 -0.00213403
v 0.00999361 -0.01262792 0.00104968
v 0.01253284 -0.01515961 0.00398525
v 0.00999271 -0.01262178 0.00714628
v 0.01251644 -0.01513702 0.01007639
v 0.01004419 -0.01255952 0.01320518
v 0.01261039 -0.01507410 0.01615964
v 0.01016275 -0.01277630 0.02003040
v 0.01350877 -0.01533790 0.02189921
v 0.01221162 -0.01565711 0.02771383
v 0.01188775 -0.01536249 0.03476139
v 0.00931865 -0.01256023 0.03963492
v 0.01445302 -0.01170575 0.03696390
v 0.01277682 -0.00635159 -0.04975197
v 0.01092275 -0.00581754 -0.04257017
v 0.01263835 -0.00837759 -0.03925747
v 0.01156623 -0.00955004 -0.03363226
v 0.01198808 -0.00949581 -0.02657666
v 0.01193530 -0.00947984 -0.02047444
v 0.01191658 -0.00948021 -0.01438363
v 0.01191854 -0.00948024 -0.00826344
v 0.01191797 -0.00948111 -0.00214230
v 0.01191319 -0.00948783 0.00397315
v 0.01194568 -0.00945872 0.01005004
v 0.01210423 -0.00932962 0.01622049
v 0.01148999 -0.00931482 0.02280159
v 0.01140847 -0.00821699 0.02760633
v 0.01230075 -0.00454793 0.02974312
v 0.01124889 -0.00925811 0.04084041
v 0.00964930 -0.00576744 0.04586340
v 0.01231054 -0.00470908 0.04210977
v 0.00882627 -0.00552870 0.05176464
v 0.00923380 -0.00543067 0.05825845
v 0.00882680 -0.00634846 0.06338014
v 0.01271450 -0.00010068 -0.04964137
v 0.01217177 -0.00007936 -0.04303957
v 0.01216608 0.00162665 0.03035080
v 0.01013828 -0.00018353 0.04640128
v 0.01240427 0.00121793 0.04266852
v 0.00956315 -0.00001969 0.05193936
v 0.00993218 0.00017095 0.05836003
v 0.00942240 -0.00146050 0.06407685
v 0.01243122 0.00617773 -0.04973205
v 0.01292681 0.00499355 -0.04233296
v 0.01133559 0.00648211 0.02979200
v 0.00911269 0.00667790 0.04552949
v 0.01196734 0.00653680 0.04188149
v 0.00884693 0.00548341 0.05205567
v 0.00913690 0.00577861 0.05835568
v 0.00897659 0.00473874 0.06404731
v 0.01302219 0.01254918 -0.04923644
v 0.01126715 0.00820917 -0.04037872
v 0.01004665 0.01243047 -0.03348251
v 0.01144189 0.00934465 -0.03551250
v 0.01012980 0.01256639 -0.02758014
v 0.01214438 0.00935109 -0.02895347
v 0.00999966 0.01263355 -0.02149292
v 0.01195904 0.00948203 -0.02271205
v 0.00999120 0.01262877 -0.01537074
v 0.01191085 0.00948990 -0.01658371
v 0.00999462 0.01262721 -0.00925058
v 0.01191764 0.00948150 -0.01046618
v 0.00999343 0.01262756 -0.00312978
v 0.01191855 0.00948121 -0.00434623
v 0.00999540 0.01262829 0.00298812
v 0.01191699 0.00948161 0.00177518
v 0.01004662 0.01261642 0.00904607
v 0.01193773 0.00948037 0.00786491
v 0.01005262 0.01256233 0.01512440
v 0.01197394 0.00948196 0.01391183
v 0.00940413 0.01283838 0.02167906
v 0.01147950 0.00951492 0.02091390
v 0.01248759 0.00825692 0.02669471
v 0.00939905 0.01247478 0.03972072
v 0.01327095 0.01262474 0.03692741
v 0.01332143 0.00883115 0.03938141
v 0.01281963 0.01621878 -0.04595834
v 0.00897609 0.01893324 -0.04477061
v 0.01211322 0.01569040 -0.03935499
v 0.00869832 0.01802510 -0.03861510
v 0.01274207 0.01502712 -0.03239000
v 0.00852308 0.01850279 -0.03232208
v 0.01257549 0.01514278 -0.02627041
v 0.00874013 0.01841202 -0.02601686
v 0.01253049 0.01516198 -0.02016343
v 0.00877306 0.01835415 -0.01987601
v 0.01253436 0.01515901 -0.01404252
v 0.00877248 0.01835726 -0.01375881
v 0.01253509 0.01515894 -0.00792293
v 0.00877077 0.01835890 -0.00763924
v 0.01253305 0.01515962 -0.00180152
v 0.00877043 0.01835889 -0.00151824
v 0.01253729 0.01516016 0.00431433
v 0.00877187 0.01835733 0.00459750
v 0.01257689 0.01512917 0.01040264
v 0.00877875 0.01834942 0.01066532
v 0.01264728 0.01506163 0.01655960
v 0.00870998 0.01842732 0.01677632
v 0.01339593 0.01534964 0.02226774
v 0.00867526 0.01901536 0.02238183
v 0.01226031 0.01543146 0.02737323
v 0.00900041 0.01792644 0.02793016
v 0.01327606 0.01574004 0.03321425
v 0.00949919 0.01737358 0.03451499
v 0.01897870 -0.01479786 -0.04555572
v 0.01719008 -0.01213030 -0.04883575
v 0.01807227 -0.01531265 -0.04053476
v 0.01787367 -0.01521038 -0.03422317
v 0.01781760 -0.01526902 -0.02805675
v 0.01774777 -0.01530182 -0.02192682
v 0.01774403 -0.01529974 -0.01580640
v 0.01774798 -0.01529890 -0.00968661
v 0.01774830 -0.01529875 -0.00356700
v 0.01774866 -0.01530017 0.00255292
v 0.01773874 -0.01530686 0.00866828
v 0.01770969 -0.01527355 0.01479542
v 0.01788140 -0.01514937 0.02106579
v 0.01806411 -0.01510164 0.02746230
v 0.01704727 -0.01471038 0.03301336
v 0.01897337 -0.01126314 0.03559433
v 0.01831590 -0.00663370 -0.04911853
v 0.01489382 -0.00476680 -0.03999105
v 0.01505406 -0.00591031 -0.03435666
v 0.01483560 -0.00568114 -0.02801988
v 0.01481096 -0.00558364 -0.02188351
v 0.01478401 -0.00558424 -0.01581457
v 0.01478369 -0.00558574 -0.00969805
v 0.01478382 -0.00558596 -0.00357604
v 0.01477986 -0.00559278 0.00254237
v 0.01477946 -0.00558243 0.00865545
v 0.01490272 -0.00543891 0.01485303
v 0.01513448 -0.00548719 0.02121652
v 0.01473058 -0.00631743 0.02625882
v 0.01458892 -0.00696576 0.03907529
v 0.01817564 -0.00560362 0.03677498
v 0.01816095 -0.00044866 -0.04905823
v 0.01541064 0.00130174 -0.03979358
v 0.01600367 -0.00030874 -0.03414134
v 0.01583994 -0.00015656 -0.02777394
v 0.01578114 0.00000257 -0.02161379
v 0.01577343 0.00000484 -0.01552675
v 0.01577304 0.00000051 -0.00941165
v 0.01577300 0.00000045 -0.00328868
v 0.01577377 -0.00000345 0.00282803
v 0.01578327 0.00000223 0.00891805
v 0.01584067 0.00015407 0.01507599
v 0.01601454 0.00018001 0.02143237
v 0.01550443 -0.00147265 0.02703241
v 0.01550536 -0.00165416 0.03962639
v 0.01874154 0.00163559 0.03682782
v 0.01808697 0.00598398 -0.04915485
v 0.01458900 0.00622723 -0.03901993
v 0.01509204 0.00542370 -0.03387334
v 0.01490782 0.00544844 -0.02742441
v 0.01477827 0.00558939 -0.02119663
v 0.01477933 0.00559338 -0.01508436
v 0.01478390 0.00558681 -0.00896835
v 0.01478366 0.00558673 -0.00284635
v 0.01478457 0.00558577 0.00327208
v 0.01481344 0.00558571 0.00933958
v 0.01482976 0.00567456 0.01543715
v 0.01501087 0.00580828 0.02171286
v 0.01486417 0.00460439 0.02732543
v 0.01516776 0.00427019 0.03980002
v 0.01781089 0.00798077 0.03695437
v 0.01889703 0.01112649 -0.04851830
v 0.01747377 0.01274398 0.03581080
v 0.01753114 0.01443711 -0.04668486
v 0.01812055 0.01505861 -0.04177049
v 0.01799328 0.01508943 -0.03534143
v 0.01780444 0.01525850 -0.02907572
v 0.01774090 0.01530901 -0.02298741
v 0.01774603 0.01530105 -0.01687458
v 0.01774828 0.01529968 -0.01075474
v 0.01774801 0.01529993 -0.00463510
v 0.01774644 0.01530111 0.00148542
v 0.01774495 0.01530092 0.00760355
v 0.01773855 0.01527234 0.01374476
v 0.01781834 0.01525000 0.01999770
v 0.01793950 0.01524125 0.02633480
v 0.01806535 0.01478889 0.03224451
v 0.02098365 -0.01120644 -0.04605012
v 0.02121481 -0.01227883 -0.04047329
v 0.02110926 -0.01212797 -0.03415522
v 0.02113233 -0.01209118 -0.02794261
v 0.02112100 -0.01210910 -0.02182174
v 0.02112047 -0.01210870 -0.01570344
v 0.02112360 -0.01210756 -0.00958425
v 0.02112384 -0.01210739 -0.00346472
v 0.02112385 -0.01210781 0.00265470
v 0.02112053 -0.01211675 0.00876941
v 0.02111290 -0.01210894 0.01488627
v 0.02118414 -0.01194692 0.02113333
v 0.02135811 -0.01188486 0.02757307
v 0.02078808 -0.01268154 0.03255139
v 0.02130727 -0.00536331 -0.04595607
v 0.02187315 -0.00675952 -0.04036501
v 0.02173285 -0.00655422 -0.03399840
v 0.02171619 -0.00642709 -0.02777540
v 0.02172599 -0.00642807 -0.02165779
v 0.02172719 -0.00642991 -0.01554260
v 0.02172844 -0.00642917 -0.00942343
v 0.02172856 -0.00642905 -0.00330386
v 0.02172853 -0.00642937 0.00281559
v 0.02172527 -0.00643660 0.00893093
v 0.02172487 -0.00642863 0.01504770
v 0.02181287 -0.00625391 0.02125331
v 0.02197910 -0.00613602 0.02759679
v 0.02131647 -0.00771030 0.03319109
v 0.02123146 0.00103843 -0.04597753
v 0.02184725 -0.00041534 -0.04031715
v 0.02165198 -0.00016557 -0.03396684
v 0.02157720 0.00000329 -0.02775886
v 0.02158055 0.00000541 -0.02164389
v 0.02158222 0.00000031 -0.01552929
v 0.02158228 0.00000044 -0.00940993
v 0.02158236 0.00000055 -0.00329032
v 0.02158269 0.00000049 0.00282883
v 0.02158064 -0.00000436 0.00894345
v 0.02157850 0.00000435 0.01506017
v 0.02165708 0.00016355 0.02126213
v 0.02181452 0.00027366 0.02752265
v 0.02116290 -0.00121313 0.03306708
v 0.02138049 0.00757004 -0.04588164
v 0.02200981 0.00606224 -0.04018730
v 0.02181176 0.00625615 -0.03379254
v 0.02172219 0.00643669 -0.02758819
v 0.02172554 0.00643785 -0.02147493
v 0.02172864 0.00643018 -0.01535996
v 0.02172851 0.00643002 -0.00924050
v 0.02172858 0.00643018 -0.00312091
v 0.02172902 0.00643071 0.00299775
v 0.02172597 0.00642879 0.00911229
v 0.02171844 0.00643315 0.01522950
v 0.02176626 0.00655019 0.02142830
v 0.02189878 0.00659174 0.02766970
v 0.02120781 0.00513022 0.03309003
v 0.02082281 0.01254958 -0.04521577
v 0.02140800 0.01183843 -0.04010066
v 0.02122955 0.01193899 -0.03369503
v 0.02111392 0.01211448 -0.02748934
v 0.02111710 0.01211835 -0.02138013
v 0.02112377 0.01210861 -0.01526449
v 0.02112385 0.01210836 -0.00914493
v 0.02112373 0.01210859 -0.00302534
v 0.02112341 0.01210972 0.00309370
v 0.02111782 0.01210920 0.00921116
v 0.02109848 0.01210017 0.01534912
v 0.02111922 0.01213761 0.02158644
v 0.02125500 0.01216179 0.02789825
v 0.02088724 0.01094296 0.03333785
f 3 2 1
f 5 4 1
f 5 1 2
f 7 6 4
f 7 4 5
f 9 8 6
f 9 6 7
f 11 10 8
f 11 8 9
f 13 12 10
f 13 10 11
f 15 14 12
f 15 12 13
f 17 16 14
f 17 14 15
f 19 18 16
f 19 16 17
f 21 20 18
f 21 18 19
f 23 22 20
f 23 20 21
f 25 24 22
f 25 22 23
f 27 26 24
f 27 24 25
f 29 28 26
f 29 26 27
f 30 28 29
f 3 1 31
f 3 31 32
f 33 1 4
f 31 1 33
f 34 4 6
f 33 4 34
f 35 6 8
f 34 6 35
f 36 8 10
f 35 8 36
f 37 10 12
f 36 10 37
f 38 12 14
f 37 12 38
f 39 14 16
f 38 14 39
f 40 16 18
f 39 16 40
f 41 18 20
f 40 18 41
f 42 20 22
f 41 20 42
f 43 22 24
f 42 22 43
f 44 24 26
f 43 24 44
f 45 26 28
f 44 26 45
f 28 30 46
f 28 46 45
f 32 31 47
f 32 47 48
f 49 31 33
f 47 31 49
f 50 33 34
f 49 33 50
f 51 34 35
f 50 34 51
f 52 35 36
f 51 35 52
f 53 36 37
f 52 36 53
f 54 37 38
f 53 37 54
f 55 38 39
f 54 38 55
f 56 39 40
f 55 39 56
f 57 40 41
f 56 40 57
f 58 41 42
f 57 41 58
f 59 42 43
f 58 42 59
f 60 43 44
f 59 43 60
f 61 44 45
f 60 44 61
f 45 46 62
f 45 62 61
f 48 47 63
f 48 63 64
f 65 47 49
f 63 47 65
f 66 49 50
f 65 49 66
f 67 50 51
f 66 50 67
f 68 51 52
f 67 51 68
f 69 52 53
f 68 52 69
f 70 53 54
f 69 53 70
f 71 54 55
f 70 54 71
f 72 55 56
f 71 55 72
f 73 56 57
f 72 56 73
f 74 57 58
f 73 57 74
f 75 58 59
f 74 58 75
f 76 59 60
f 75 59 76
f 77 60 61
f 76 60 77
f 61 62 78
f 61 78 77
f 64 63 79
f 64 79 80
f 81 63 65
f 79 63 81
f 82 65 66
f 81 65 82
f 83 66 67
f 82 66 83
f 84 67 68
f 83 67 84
f 85 68 69
f 84 68 85
f 86 69 70
f 85 69 86
f 87 70 71
f 86 70 87
f 88 71 72
f 87 71 88
f 89 72 73
f 88 72 89
f 90 73 74
f 89 73 90
f 91 74 75
f 90 74 91
f 92 75 76
f 91 75 92
f 93 76 77
f 92 76 93
f 77 78 94
f 77 94 93
f 95 80 79
f 95 79 81
f 95 81 96
f 96 81 82
f 96 82 97
f 97 82 83
f 97 83 98
f 98 83 84
f 98 84 99
f 99 84 85
f 99 85 100
f 100 85 86
f 100 86 101
f 101 86 87
f 101 87 102
f 102 87 88
f 102 88 103
f 103 88 89
f 103 89 104
f 104 89 90
f 104 90 105
f 105 90 91
f 105 91 106
f 106 91 92
f 106 92 107
f 107 92 93
f 107 93 108
f 108 93 94
f 110 109 2
f 110 2 3
f 2 111 5
f 109 111 2
f 5 112 7
f 111 112 5
f 7 113 9
f 112 113 7
f 9 114 11
f 113 114 9
f 11 115 13
f 114 115 11
f 13 116 15
f 115 116 13
f 15 117 17
f 116 117 15
f 17 118 19
f 117 118 17
f 19 119 21
f 118 119 19
f 21 120 23
f 119 120 21
f 23 121 25
f 120 121 23
f 25 122 27
f 121 122 25
f 27 123 29
f 122 123 27
f 30 29 123
f 30 123 124
f 32 110 3
f 32 125 110
f 128 127 126
f 130 129 126
f 126 129 128
f 132 131 130
f 130 131 129
f 134 133 132
f 132 133 131
f 136 135 134
f 134 135 133
f 138 137 136
f 136 137 135
f 140 139 138
f 138 139 137
f 142 141 140
f 140 141 139
f 144 143 142
f 142 143 141
f 146 145 144
f 144 145 143
f 148 147 146
f 146 147 145
f 150 149 148
f 148 149 147
f 150 151 149
f 153 46 152
f 46 124 152
f 46 30 124
f 154 153 152
f 48 125 32
f 48 155 125
f 126 127 156
f 156 127 157
f 126 158 130
f 126 156 158
f 130 159 132
f 130 158 159
f 132 160 134
f 132 159 160
f 134 161 136
f 134 160 161
f 136 162 138
f 136 161 162
f 138 163 140
f 138 162 163
f 140 164 142
f 140 163 164
f 142 165 144
f 142 164 165
f 144 166 146
f 144 165 166
f 146 167 148
f 146 166 167
f 148 168 150
f 148 167 168
f 151 150 169
f 169 150 168
f 170 62 153
f 153 62 46
f 153 154 171
f 153 171 170
f 64 155 48
f 64 172 155
f 156 157 173
f 173 157 174
f 156 175 158
f 156 173 175
f 158 176 159
f 158 175 176
f 159 177 160
f 159 176 177
f 160 178 161
f 160 177 178
f 161 179 162
f 161 178 179
f 162 180 163
f 162 179 180
f 163 181 164
f 163 180 181
f 164 182 165
f 164 181 182
f 165 183 166
f 165 182 183
f 166 184 167
f 166 183 184
f 167 185 168
f 167 184 185
f 169 168 186
f 186 168 185
f 187 78 170
f 170 78 62
f 170 171 188
f 170 188 187
f 80 172 64
f 80 189 172
f 174 190 173
f 173 190 175
f 175 190 191
f 175 191 176
f 176 191 192
f 176 192 177
f 177 192 193
f 177 193 178
f 178 193 194
f 178 194 179
f 179 194 195
f 179 195 180
f 180 195 196
f 180 196 181
f 181 196 197
f 181 197 182
f 182 197 198
f 182 198 183
f 183 198 199
f 183 199 184
f 184 199 200
f 184 200 185
f 185 200 201
f 185 201 186
f 203 202 187
f 202 78 187
f 202 94 78
f 203 187 188
f 204 189 80
f 204 80 95
f 205 95 96
f 205 204 95
f 206 96 97
f 206 205 96
f 207 97 98
f 207 206 97
f 208 98 99
f 208 207 98
f 209 99 100
f 209 208 99
f 210 100 101
f 210 209 100
f 211 101 102
f 211 210 101
f 212 102 103
f 212 211 102
f 213 103 104
f 213 212 103
f 214 104 105
f 214 213 104
f 215 105 106
f 215 214 105
f 216 106 107
f 216 215 106
f 217 107 108
f 217 216 107
f 108 94 202
f 108 202 217
f 220 219 218
f 222 221 218
f 222 218 219
f 224 223 221
f 224 221 222
f 226 225 223
f 226 223 224
f 228 227 225
f 228 225 226
f 230 229 227
f 230 227 228
f 232 231 229
f 232 229 230
f 234 233 231
f 234 231 232
f 236 235 233
f 236 233 234
f 238 237 235
f 238 235 236
f 240 239 237
f 240 237 238
f 242 241 239
f 242 239 240
f 244 243 241
f 244 241 242
f 246 245 243
f 246 243 244
f 247 245 246
f 220 218 109
f 110 220 109
f 248 220 110
f 109 218 111
f 111 218 221
f 111 249 112
f 249 111 250
f 221 250 111
f 250 221 251
f 223 251 221
f 251 225 252
f 225 251 223
f 253 113 249
f 112 249 113
f 252 227 254
f 227 252 225
f 255 114 253
f 113 253 114
f 254 229 256
f 229 254 227
f 257 115 255
f 114 255 115
f 256 231 258
f 231 256 229
f 259 116 257
f 115 257 116
f 258 233 260
f 233 258 231
f 261 117 259
f 116 259 117
f 260 235 262
f 235 260 233
f 263 118 261
f 117 261 118
f 262 237 264
f 237 262 235
f 265 119 263
f 118 263 119
f 264 239 266
f 239 264 237
f 267 120 265
f 119 265 120
f 266 241 268
f 241 266 239
f 269 121 267
f 120 267 121
f 121 269 122
f 270 122 269
f 122 270 243
f 268 243 270
f 243 268 241
f 122 243 123
f 123 243 245
f 272 271 124
f 272 124 123
f 247 272 123
f 245 247 123
f 273 271 272
f 125 248 110
f 125 274 248
f 276 275 128
f 128 275 127
f 129 249 250
f 276 129 250
f 128 129 276
f 249 129 131
f 249 131 253
f 253 131 133
f 253 133 255
f 255 133 135
f 255 135 257
f 257 135 137
f 257 137 259
f 259 137 139
f 259 139 261
f 261 139 141
f 261 141 263
f 263 141 143
f 263 143 265
f 265 143 145
f 265 145 267
f 267 145 147
f 267 147 269
f 277 270 269
f 147 277 269
f 149 277 147
f 149 151 277
f 277 151 278
f 271 152 124
f 280 279 154
f 280 154 152
f 273 280 152
f 271 273 152
f 282 281 279
f 282 279 280
f 284 283 281
f 284 281 282
f 286 285 283
f 286 283 284
f 287 285 286
f 155 274 125
f 155 288 274
f 275 157 127
f 289 157 275
f 169 278 151
f 169 290 278
f 291 171 279
f 279 171 154
f 292 279 281
f 291 279 292
f 293 281 283
f 292 281 293
f 294 283 285
f 293 283 294
f 285 287 295
f 285 295 294
f 172 288 155
f 172 296 288
f 289 174 157
f 297 174 289
f 186 290 169
f 186 298 290
f 299 188 291
f 291 188 171
f 300 291 292
f 299 291 300
f 301 292 293
f 300 292 301
f 302 293 294
f 301 293 302
f 294 295 303
f 294 303 302
f 189 296 172
f 189 304 296
f 297 305 174
f 174 305 190
f 305 307 306
f 191 305 306
f 190 305 191
f 308 192 191
f 308 191 306
f 309 193 192
f 309 192 308
f 310 194 193
f 310 193 309
f 311 195 194
f 311 194 310
f 312 196 195
f 312 195 311
f 313 197 196
f 313 196 312
f 314 198 197
f 314 197 313
f 315 199 198
f 315 198 314
f 316 200 199
f 316 199 315
f 200 316 317
f 318 200 317
f 201 200 318
f 186 201 298
f 298 201 318
f 319 202 203
f 320 319 203
f 320 203 188
f 321 320 188
f 299 321 188
f 321 299 300
f 321 300 322
f 322 300 301
f 322 301 323
f 323 301 302
f 323 302 324
f 324 302 303
f 189 204 325
f 326 189 325
f 304 189 326
f 205 327 204
f 204 327 325
f 206 306 205
f 307 205 306
f 205 307 327
f 328 327 307
f 327 328 329
f 331 330 328
f 329 328 330
f 306 207 308
f 207 306 206
f 333 332 331
f 330 331 332
f 308 208 309
f 208 308 207
f 335 334 333
f 332 333 334
f 309 209 310
f 209 309 208
f 337 336 335
f 334 335 336
f 310 210 311
f 210 310 209
f 339 338 337
f 336 337 338
f 311 211 312
f 211 311 210
f 341 340 339
f 338 339 340
f 312 212 313
f 212 312 211
f 343 342 341
f 340 341 342
f 313 213 314
f 213 313 212
f 345 344 343
f 342 343 344
f 314 214 315
f 214 314 213
f 347 346 345
f 344 345 346
f 315 215 316
f 215 315 214
f 216 316 215
f 316 216 317
f 348 317 216
f 317 348 347
f 346 347 348
f 217 349 216
f 216 349 348
f 350 349 217
f 350 217 202
f 351 350 202
f 319 351 202
f 351 319 320
f 352 326 325
f 352 325 327
f 352 327 353
f 353 327 329
f 353 329 354
f 354 329 330
f 354 330 355
f 355 330 332
f 355 332 356
f 356 332 334
f 356 334 357
f 357 334 336
f 357 336 358
f 358 336 338
f 358 338 359
f 359 338 340
f 359 340 360
f 360 340 342
f 360 342 361
f 361 342 344
f 361 344 362
f 362 344 346
f 362 346 363
f 363 346 348
f 363 348 364
f 364 348 349
f 364 349 365
f 365 349 350
f 367 366 219
f 367 219 220
f 219 368 222
f 366 368 219
f 222 369 224
f 368 369 222
f 224 370 226
f 369 370 224
f 226 371 228
f 370 371 226
f 228 372 230
f 371 372 228
f 230 373 232
f 372 373 230
f 232 374 234
f 373 374 232
f 234 375 236
f 374 375 234
f 236 376 238
f 375 376 236
f 238 377 240
f 376 377 238
f 240 378 242
f 377 378 240
f 242 379 244
f 378 379 242
f 244 380 246
f 379 380 244
f 247 246 380
f 247 380 381
f 248 367 220
f 248 382 367
f 385 384 383
f 250 251 383
f 251 385 383
f 251 386 385
f 387 251 252
f 387 386 251
f 388 252 254
f 388 387 252
f 389 254 256
f 389 388 254
f 390 256 258
f 390 389 256
f 391 258 260
f 391 390 258
f 392 260 262
f 392 391 260
f 393 262 264
f 393 392 262
f 394 264 266
f 394 393 264
f 395 266 268
f 395 394 266
f 397 396 270
f 396 268 270
f 396 395 268
f 397 398 396
f 381 399 247
f 247 399 272
f 273 272 399
f 273 399 400
f 403 402 401
f 404 401 402
f 274 382 248
f 274 405 382
f 383 384 276
f 384 275 276
f 384 406 275
f 383 276 250
f 277 397 270
f 277 278 397
f 278 398 397
f 278 407 398
f 400 408 273
f 273 408 280
f 280 409 282
f 408 409 280
f 282 410 284
f 409 410 282
f 401 286 403
f 286 410 403
f 286 284 410
f 287 286 401
f 404 287 401
f 411 287 404
f 288 413 412
f 405 288 412
f 274 288 405
f 406 412 413
f 289 406 413
f 275 406 289
f 290 415 414
f 407 290 414
f 278 290 407
f 415 416 414
f 419 418 417
f 421 420 417
f 417 420 419
f 411 420 421
f 295 411 421
f 287 411 295
f 423 422 413
f 288 423 413
f 296 423 288
f 289 413 422
f 424 289 422
f 297 289 424
f 426 425 415
f 290 426 415
f 298 426 290
f 415 425 416
f 418 427 417
f 417 427 421
f 421 427 428
f 295 421 428
f 429 295 428
f 303 295 429
f 304 423 296
f 304 430 423
f 305 297 431
f 297 432 431
f 297 424 432
f 431 307 305
f 317 433 318
f 433 434 318
f 434 298 318
f 434 426 298
f 436 435 321
f 321 435 320
f 437 321 322
f 437 436 321
f 438 322 323
f 438 437 322
f 440 438 439
f 438 324 439
f 438 323 324
f 441 439 324
f 303 441 324
f 429 441 303
f 326 430 304
f 326 442 430
f 432 443 431
f 431 443 307
f 443 328 307
f 443 444 328
f 328 445 331
f 444 445 328
f 331 446 333
f 445 446 331
f 333 447 335
f 446 447 333
f 335 448 337
f 447 448 335
f 337 449 339
f 448 449 337
f 339 450 341
f 449 450 339
f 341 451 343
f 450 451 341
f 343 452 345
f 451 452 343
f 345 453 347
f 452 453 345
f 317 347 433
f 347 454 433
f 347 453 454
f 433 454 434
f 456 455 351
f 351 455 350
f 351 320 435
f 351 435 456
f 457 440 439
f 457 439 441
f 458 442 326
f 458 326 352
f 459 352 353
f 459 458 352
f 460 353 354
f 460 459 353
f 461 354 355
f 461 460 354
f 462 355 356
f 462 461 355
f 463 356 357
f 463 462 356
f 464 357 358
f 464 463 357
f 465 358 359
f 465 464 358
f 466 359 360
f 466 465 359
f 467 360 361
f 467 466 360
f 468 361 362
f 468 467 361
f 469 362 363
f 469 468 362
f 470 363 364
f 470 469 363
f 471 364 365
f 471 470 364
f 365 350 455
f 365 455 471
f 473 472 366
f 473 366 367
f 366 474 368
f 472 474 366
f 368 475 369
f 474 475 368
f 369 476 370
f 475 476 369
f 370 477 371
f 476 477 370
f 371 478 372
f 477 478 371
f 372 479 373
f 478 479 372
f 373 480 374
f 479 480 373
f 374 481 375
f 480 481 374
f 375 482 376
f 481 482 375
f 376 483 377
f 482 483 376
f 377 484 378
f 483 484 377
f 378 485 379
f 484 485 378
f 379 486 380
f 485 486 379
f 381 380 486
f 381 486 487
f 382 473 367
f 382 488 473
f 489 384 385
f 489 385 490
f 385 491 490
f 385 386 491
f 492 386 387
f 492 491 386
f 493 387 388
f 493 492 387
f 494 388 389
f 494 493 388
f 495 389 390
f 495 494 389
f 496 390 391
f 496 495 390
f 497 391 392
f 497 496 391
f 498 392 393
f 498 497 392
f 499 393 394
f 499 498 393
f 500 394 395
f 500 499 394
f 502 500 501
f 500 396 501
f 500 395 396
f 398 501 396
f 487 503 381
f 381 503 399
f 400 399 503
f 400 503 504
f 403 505 402
f 505 404 402
f 405 488 382
f 405 506 488
f 508 507 489
f 507 384 489
f 507 406 384
f 508 489 490
f 509 502 501
f 501 398 509
f 398 510 509
f 398 407 510
f 504 511 400
f 400 511 408
f 408 512 409
f 511 512 408
f 409 513 410
f 512 513 409
f 403 410 505
f 410 514 505
f 410 513 514
f 404 505 514
f 515 404 514
f 411 404 515
f 405 412 516
f 517 405 516
f 506 405 517
f 518 516 412
f 406 518 412
f 507 518 406
f 407 414 519
f 520 407 519
f 510 407 520
f 416 519 414
f 521 418 419
f 420 522 419
f 419 522 521
f 523 522 420
f 411 523 420
f 515 523 411
f 517 516 422
f 423 517 422
f 524 517 423
f 424 422 516
f 518 424 516
f 525 424 518
f 520 519 425
f 426 520 425
f 526 520 426
f 425 519 416
f 521 427 418
f 427 521 428
f 428 521 522
f 429 428 522
f 523 429 522
f 527 429 523
f 430 524 423
f 430 528 524
f 530 432 529
f 432 525 529
f 432 424 525
f 531 530 529
f 534 533 532
f 533 526 532
f 526 434 532
f 526 426 434
f 536 535 436
f 436 535 435
f 537 436 437
f 537 536 436
f 538 437 438
f 538 537 437
f 540 539 440
f 539 438 440
f 539 538 438
f 527 539 540
f 441 527 540
f 429 527 441
f 442 528 430
f 442 541 528
f 530 443 432
f 531 542 530
f 542 443 530
f 542 444 443
f 444 543 445
f 542 543 444
f 445 544 446
f 543 544 445
f 446 545 447
f 544 545 446
f 447 546 448
f 545 546 447
f 448 547 449
f 546 547 448
f 449 548 450
f 547 548 449
f 450 549 451
f 548 549 450
f 451 550 452
f 549 550 451
f 452 551 453
f 550 551 452
f 532 454 534
f 454 551 534
f 454 453 551
f 454 532 434
f 553 552 456
f 456 552 455
f 456 435 535
f 456 535 553
f 457 540 440
f 540 457 441
f 554 541 442
f 554 442 458
f 555 458 459
f 555 554 458
f 556 459 460
f 556 555 459
f 557 460 461
f 557 556 460
f 558 461 462
f 558 557 461
f 559 462 463
f 559 558 462
f 560 463 464
f 560 559 463
f 561 464 465
f 561 560 464
f 562 465 466
f 562 561 465
f 563 466 467
f 563 562 466
f 564 467 468
f 564 563 467
f 565 468 469
f 565 564 468
f 566 469 470
f 566 565 469
f 567 470 471
f 567 566 470
f 471 455 552
f 471 552 567
f 473 568 472
f 569 474 472
f 569 472 568
f 570 475 474
f 570 474 569
f 571 476 475
f 571 475 570
f 572 477 476
f 572 476 571
f 573 478 477
f 573 477 572
f 574 479 478
f 574 478 573
f 575 480 479
f 575 479 574
f 576 481 480
f 576 480 575
f 577 482 481
f 577 481 576
f 578 483 482
f 578 482 577
f 579 484 483
f 579 483 578
f 580 485 484
f 580 484 579
f 581 486 485
f 581 485 580
f 581 487 486
f 583 582 568
f 473 583 568
f 488 583 473
f 568 582 569
f 569 582 584
f 586 585 584
f 490 584 585
f 584 490 569
f 491 569 490
f 569 491 570
f 588 587 586
f 585 586 587
f 570 492 571
f 492 570 491
f 590 589 588
f 587 588 589
f 571 493 572
f 493 571 492
f 592 591 590
f 589 590 591
f 572 494 573
f 494 572 493
f 594 593 592
f 591 592 593
f 573 495 574
f 495 573 494
f 596 595 594
f 593 594 595
f 574 496 575
f 496 574 495
f 598 597 596
f 595 596 597
f 575 497 576
f 497 575 496
f 600 599 598
f 597 598 599
f 576 498 577
f 498 576 497
f 602 601 600
f 599 600 601
f 577 499 578
f 499 577 498
f 604 603 602
f 601 602 603
f 578 500 579
f 500 578 499
f 605 603 604
f 603 605 502
f 580 502 605
f 502 580 500
f 579 500 580
f 580 605 581
f 581 605 606
f 606 608 607
f 606 607 503
f 581 606 503
f 487 581 503
f 607 504 503
f 506 583 488
f 506 609 583
f 611 610 508
f 508 610 507
f 508 490 585
f 612 508 585
f 611 508 612
f 612 585 587
f 612 587 613
f 613 587 589
f 613 589 614
f 614 589 591
f 614 591 615
f 615 591 593
f 615 593 616
f 616 593 595
f 616 595 617
f 617 595 597
f 617 597 618
f 618 597 599
f 618 599 619
f 619 599 601
f 619 601 620
f 620 601 603
f 620 603 621
f 621 603 502
f 509 621 502
f 622 621 509
f 509 510 622
f 622 510 623
f 608 624 607
f 624 626 625
f 624 625 511
f 607 624 511
f 504 607 511
f 627 512 511
f 627 511 625
f 628 513 512
f 628 512 627
f 629 514 513
f 629 513 628
f 629 515 514
f 517 609 506
f 517 630 609
f 610 518 507
f 631 518 610
f 520 623 510
f 520 632 623
f 625 626 633
f 633 626 634
f 625 635 627
f 625 633 635
f 627 636 628
f 627 635 636
f 628 637 629
f 628 636 637
f 637 523 515
f 637 515 629
f 524 630 517
f 524 638 630
f 631 525 518
f 639 525 631
f 526 632 520
f 526 640 632
f 633 634 641
f 641 634 642
f 633 643 635
f 633 641 643
f 635 644 636
f 635 643 644
f 636 645 637
f 636 644 645
f 645 527 523
f 645 523 637
f 528 638 524
f 528 646 638
f 639 647 525
f 525 647 529
f 649 648 531
f 529 649 531
f 647 649 529
f 651 650 648
f 651 648 649
f 653 652 650
f 653 650 651
f 655 654 652
f 655 652 653
f 657 656 654
f 657 654 655
f 659 658 656
f 659 656 657
f 661 660 658
f 661 658 659
f 663 662 660
f 663 660 661
f 665 664 662
f 665 662 663
f 667 666 664
f 667 664 665
f 533 534 666
f 667 533 666
f 668 533 667
f 526 533 640
f 640 533 668
f 671 670 669
f 671 669 642
f 642 669 641
f 669 535 641
f 535 536 641
f 641 536 537
f 641 537 643
f 643 537 538
f 643 538 644
f 644 538 539
f 644 539 645
f 645 539 527
f 541 673 672
f 646 541 672
f 528 541 646
f 675 674 673
f 673 674 672
f 674 648 676
f 648 674 531
f 675 531 674
f 531 675 542
f 677 542 675
f 676 650 678
f 650 676 648
f 679 543 677
f 542 677 543
f 678 652 680
f 652 678 650
f 681 544 679
f 543 679 544
f 680 654 682
f 654 680 652
f 683 545 681
f 544 681 545
f 682 656 684
f 656 682 654
f 685 546 683
f 545 683 546
f 684 658 686
f 658 684 656
f 687 547 685
f 546 685 547
f 686 660 688
f 660 686 658
f 689 548 687
f 547 687 548
f 688 662 690
f 662 688 660
f 691 549 689
f 548 689 549
f 690 664 692
f 664 690 662
f 693 550 691
f 549 691 550
f 692 666 694
f 666 692 664
f 695 551 693
f 550 693 551
f 694 666 696
f 534 696 666
f 696 534 697
f 551 697 534
f 697 551 695
f 699 698 697
f 697 698 696
f 698 699 670
f 670 699 669
f 699 552 669
f 552 553 669
f 669 553 535
f 554 673 541
f 673 554 555
f 673 555 675
f 675 555 556
f 675 556 677
f 677 556 557
f 677 557 679
f 679 557 558
f 679 558 681
f 681 558 559
f 681 559 683
f 683 559 560
f 683 560 685
f 685 560 561
f 685 561 687
f 687 561 562
f 687 562 689
f 689 562 563
f 689 563 691
f 691 563 564
f 691 564 693
f 693 564 565
f 693 565 695
f 695 565 566
f 695 566 697
f 697 566 567
f 697 567 699
f 699 567 552
f 701 700 582
f 701 582 583
f 582 702 584
f 700 702 582
f 584 703 586
f 702 703 584
f 586 704 588
f 703 704 586
f 588 705 590
f 704 705 588
f 590 706 592
f 705 706 590
f 592 707 594
f 706 707 592
f 594 708 596
f 707 708 594
f 596 709 598
f 708 709 596
f 598 710 600
f 709 710 598
f 600 711 602
f 710 711 600
f 602 712 604
f 711 712 602
f 604 713 605
f 712 713 604
f 605 714 606
f 713 714 605
f 608 606 714
f 608 714 715
f 609 701 583
f 609 716 701
f 717 610 611
f 612 718 611
f 611 718 717
f 613 719 612
f 612 719 718
f 614 720 613
f 613 720 719
f 615 721 614
f 614 721 720
f 616 722 615
f 615 722 721
f 617 723 616
f 616 723 722
f 618 724 617
f 617 724 723
f 619 725 618
f 618 725 724
f 620 726 619
f 619 726 725
f 621 727 620
f 620 727 726
f 622 728 621
f 621 728 727
f 623 728 622
f 624 608 729
f 608 730 729
f 608 715 730
f 729 626 624
f 630 716 609
f 630 731 716
f 732 631 717
f 717 631 610
f 733 717 718
f 732 717 733
f 734 718 719
f 733 718 734
f 735 719 720
f 734 719 735
f 736 720 721
f 735 720 736
f 737 721 722
f 736 721 737
f 738 722 723
f 737 722 738
f 739 723 724
f 738 723 739
f 740 724 725
f 739 724 740
f 741 725 726
f 740 725 741
f 742 726 727
f 741 726 742
f 743 727 728
f 742 727 743
f 632 743 623
f 623 743 728
f 729 730 744
f 744 730 745
f 744 634 626
f 744 626 729
f 638 731 630
f 638 746 731
f 747 639 732
f 732 639 631
f 748 732 733
f 747 732 748
f 749 733 734
f 748 733 749
f 750 734 735
f 749 734 750
f 751 735 736
f 750 735 751
f 752 736 737
f 751 736 752
f 753 737 738
f 752 737 753
f 754 738 739
f 753 738 754
f 755 739 740
f 754 739 755
f 756 740 741
f 755 740 756
f 757 741 742
f 756 741 757
f 758 742 743
f 757 742 758
f 640 758 632
f 632 758 743
f 744 745 759
f 759 745 760
f 759 642 634
f 759 634 744
f 646 746 638
f 646 761 746
f 747 647 639
f 647 747 649
f 649 747 748
f 649 748 651
f 651 748 749
f 651 749 653
f 653 749 750
f 653 750 655
f 655 750 751
f 655 751 657
f 657 751 752
f 657 752 659
f 659 752 753
f 659 753 661
f 661 753 754
f 661 754 663
f 663 754 755
f 663 755 665
f 665 755 756
f 665 756 667
f 667 756 757
f 667 757 668
f 668 757 758
f 668 758 640
f 759 760 671
f 760 670 671
f 760 762 670
f 759 671 642
f 763 761 646
f 763 646 672
f 764 672 674
f 764 763 672
f 765 674 676
f 765 764 674
f 766 676 678
f 766 765 676
f 767 678 680
f 767 766 678
f 768 680 682
f 768 767 680
f 769 682 684
f 769 768 682
f 770 684 686
f 770 769 684
f 771 686 688
f 771 770 686
f 772 688 690
f 772 771 688
f 773 690 692
f 773 772 690
f 774 692 694
f 774 773 692
f 775 694 696
f 775 774 694
f 776 696 698
f 776 775 696
f 698 670 762
f 698 762 776
f 701 777 700
f 778 702 700
f 778 700 777
f 779 703 702
f 779 702 778
f 780 704 703
f 780 703 779
f 781 705 704
f 781 704 780
f 782 706 705
f 782 705 781
f 783 707 706
f 783 706 782
f 784 708 707
f 784 707 783
f 785 709 708
f 785 708 784
f 786 710 709
f 786 709 785
f 787 711 710
f 787 710 786
f 788 712 711
f 788 711 787
f 789 713 712
f 789 712 788
f 790 714 713
f 790 713 789
f 790 715 714
f 716 791 777
f 716 777 701
f 777 792 778
f 777 791 792
f 778 793 779
f 778 792 793
f 779 794 780
f 779 793 794
f 780 795 781
f 780 794 795
f 781 796 782
f 781 795 796
f 782 797 783
f 782 796 797
f 783 798 784
f 783 797 798
f 784 799 785
f 784 798 799
f 785 800 786
f 785 799 800
f 786 801 787
f 786 800 801
f 787 802 788
f 787 801 802
f 788 803 789
f 788 802 803
f 789 804 790
f 789 803 804
f 804 730 715
f 804 715 790
f 731 805 791
f 731 791 716
f 791 806 792
f 791 805 806
f 792 807 793
f 792 806 807
f 793 808 794
f 793 807 808
f 794 809 795
f 794 808 809
f 795 810 796
f 795 809 810
f 796 811 797
f 796 810 811
f 797 812 798
f 797 811 812
f 798 813 799
f 798 812 813
f 799 814 800
f 799 813 814
f 800 815 801
f 800 814 815
f 801 816 802
f 801 815 816
f 802 817 803
f 802 816 817
f 803 818 804
f 803 817 818
f 818 745 730
f 818 730 804
f 746 819 805
f 746 805 731
f 805 820 806
f 805 819 820
f 806 821 807
f 806 820 821
f 807 822 808
f 807 821 822
f 808 823 809
f 808 822 823
f 809 824 810
f 809 823 824
f 810 825 811
f 810 824 825
f 811 826 812
f 811 825 826
f 812 827 813
f 812 826 827
f 813 828 814
f 813 827 828
f 814 829 815
f 814 828 829
f 815 830 816
f 815 829 830
f 816 831 817
f 816 830 831
f 817 832 818
f 817 831 832
f 832 760 745
f 832 745 818
f 761 833 819
f 761 819 746
f 819 834 820
f 819 833 834
f 820 835 821
f 820 834 835
f 821 836 822
f 821 835 836
f 822 837 823
f 822 836 837
f 823 838 824
f 823 837 838
f 824 839 825
f 824 838 839
f 825 840 826
f 825 839 840
f 826 841 827
f 826 840 841
f 827 842 828
f 827 841 842
f 828 843 829
f 828 842 843
f 829 844 830
f 829 843 844
f 830 845 831
f 830 844 845
f 831 846 832
f 831 845 846
f 846 762 760
f 846 760 832
f 763 833 761
f 833 763 764
f 833 764 834
f 834 764 765
f 834 765 835
f 835 765 766
f 835 766 836
f 836 766 767
f 836 767 837
f 837 767 768
f 837 768 838
f 838 768 769
f 838 769 839
f 839 769 770
f 839 770 840
f 840 770 771
f 840 771 841
f 841 771 772
f 841 772 842
f 842 772 773
f 842 773 843
f 843 773 774
f 843 774 844
f 844 774 775
f 844 775 845
f 845 775 776
f 845 776 846
f 846 776 762

