# https://github.com/mikedh/trimesh
v -0.02066701 -0.04809189 -0.00453579
v -0.01680610 -0.05095537 -0.00673920
v -0.01853972 -0.04704777 -0.00906221
v -0.02103577 -0.04795931 0.00128760
v -0.01793660 -0.05120752 -0.00029540
v -0.02031892 -0.04739176 0.00601236
v -0.01782849 -0.05081381 0.00557002
v -0.01758310 -0.04876842 0.00907090
v -0.02091301 -0.04235125 -0.00561636
v -0.01842149 -0.04100159 -0.00945474
v -0.02170071 -0.04221996 -0.00006216
v -0.02092736 -0.04223818 0.00545537
v -0.01846962 -0.04385509 0.00922227
v -0.02012377 -0.03726665 -0.00636140
v -0.01791709 -0.03566713 -0.00854187
v -0.02083378 -0.03651518 -0.00147699
v -0.02047451 -0.03640853 0.00446951
v -0.01845274 -0.03776967 0.00906377
v -0.01776755 -0.03409438 -0.00438998
v -0.01885488 -0.03389359 0.00099594
v -0.01723282 -0.03416272 0.00575094
v -0.01545959 -0.04889829 -0.01159637
v -0.01142070 -0.05095420 -0.01220354
v -0.01232878 -0.04693479 -0.01507141
v -0.01169114 -0.05161658 -0.00546861
v -0.01246226 -0.05164900 -0.00020461
v -0.01227571 -0.05178442 0.00601723
v -0.01490261 -0.04697492 0.01219612
v -0.01245786 -0.05096826 0.01161631
v -0.01129627 -0.04885959 0.01531676
v -0.01535245 -0.04410086 -0.01236732
v -0.01234071 -0.04094001 -0.01542128
v -0.01385464 -0.04151223 0.00031939
v -0.01243913 -0.04094871 -0.00289598
v -0.01076049 -0.04484158 -0.00071988
v -0.01180187 -0.04292414 0.00305681
v -0.01539651 -0.04092431 0.01233299
v -0.01228064 -0.04397346 0.01529684
v -0.01535496 -0.03695815 -0.01183007
v -0.01149427 -0.03460424 -0.01543259
v -0.01541441 -0.03643249 -0.00033165
v -0.01329506 -0.03556843 -0.00364693
v -0.01219974 -0.03628078 0.00349139
v -0.01542249 -0.03456557 0.01151419
v -0.01181541 -0.03677229 0.01533025
v -0.01428352 -0.03078684 -0.01168552
v -0.01087147 -0.02930027 -0.01434766
v -0.01528468 -0.03115509 -0.00582546
v -0.01148376 -0.03288093 -0.00076232
v -0.01489705 -0.02891323 0.00087077
v -0.01507304 -0.03140377 0.00593475
v -0.01433331 -0.02922133 0.01089007
v -0.01159549 -0.03060161 0.01427833
v -0.01270084 -0.02707640 -0.01146756
v -0.01217900 -0.02275632 -0.00957110
v -0.01469441 -0.02480938 -0.00651876
v -0.01534396 -0.02415403 -0.00005257
v -0.01474147 -0.02487185 0.00613259
v -0.01271001 -0.02474257 0.01004405
v -0.01140766 -0.02683275 0.01271339
v -0.01454137 -0.01857458 -0.00536948
v -0.01216503 -0.01709893 -0.00917248
v -0.01534544 -0.01826060 0.00002861
v -0.01456220 -0.01813145 0.00538685
v -0.01223797 -0.01962503 0.00912038
v -0.01458958 -0.01266696 -0.00540651
v -0.01225494 -0.01110263 -0.00925464
v -0.01537125 -0.01237578 0.00007236
v -0.01458663 -0.01209053 0.00547276
v -0.01221806 -0.01351894 0.00919833
v -0.01459830 -0.00667930 -0.00546487
v -0.01226038 -0.00511229 -0.00927252
v -0.01537959 -0.00641338 0.00000313
v -0.01459703 -0.00613626 0.00546763
v -0.01225857 -0.00751949 0.00927053
v -0.01459491 -0.00069734 -0.00546412
v -0.01225773 0.00086783 -0.00926986
v -0.01537736 -0.00043020 -0.00000210
v -0.01459505 -0.00015664 0.00546116
v -0.01225879 -0.00154145 0.00927000
v -0.01459467 0.00528237 -0.00546297
v -0.01225771 0.00684778 -0.00926965
v -0.01537704 0.00554980 0.00000023
v -0.01459465 0.00582402 0.00546337
v -0.01225767 0.00443890 0.00927002
v -0.01459473 0.01126243 -0.00546303
v -0.01225771 0.01282785 -0.00926969
v -0.01537711 0.01152981 0.00000026
v -0.01459472 0.01180404 0.00546355
v -0.01225770 0.01041896 0.00927020
v -0.01459478 0.01724247 -0.00546298
v -0.01225776 0.01880792 -0.00926962
v -0.01537715 0.01750986 0.00000025
v -0.01459474 0.01778411 0.00546350
v -0.01225772 0.01639903 0.00927015
v -0.01459478 0.02322282 -0.00546303
v -0.01225789 0.02478817 -0.00926979
v -0.01537716 0.02349014 0.00000035
v -0.01459482 0.02376423 0.00546358
v -0.01225779 0.02237908 0.00927018
v -0.01459261 0.02920331 -0.00546668
v -0.01225638 0.03076625 -0.00927199
v -0.01537458 0.02947205 -0.00000187
v -0.01459309 0.02974581 0.00546305
v -0.01225730 0.02835974 0.00927027
v -0.01458757 0.03517604 -0.00546252
v -0.01224815 0.03674198 -0.00927025
v -0.01537326 0.03544221 -0.00000388
v -0.01459134 0.03571966 0.00545766
v -0.01225287 0.03433980 0.00926745
v -0.01460814 0.04120785 -0.00537820
v -0.01227476 0.04281466 -0.00929504
v -0.01542140 0.04139926 0.00009270
v -0.01466096 0.04163953 0.00549875
v -0.01228848 0.04028688 0.00926574
v -0.01473383 0.04747327 -0.00533168
v -0.01244799 0.04901466 -0.00936482
v -0.01556372 0.04753747 0.00022569
v -0.01479616 0.04771961 0.00569007
v -0.01244254 0.04629097 0.00938540
v -0.01445723 0.05342540 -0.00539940
v -0.01254241 0.05320298 -0.00886623
v -0.01563649 0.05295914 -0.00063788
v -0.01463070 0.05430473 0.00463758
v -0.01142966 0.05332035 0.00950412
v -0.01118932 0.05640674 -0.00589354
v -0.01177585 0.05937475 -0.00166816
v -0.01420757 0.05833429 -0.00043046
v -0.01230090 0.05877395 0.00259216
v -0.01077391 0.05667070 0.00572439
v -0.01221124 0.06124188 0.00019912
v -0.00930491 -0.04869676 -0.01777237
v -0.00538887 -0.05086135 -0.01746400
v -0.00623246 -0.04734706 -0.02043080
v -0.00560854 -0.05160180 -0.01160007
v -0.00641606 -0.05145925 -0.00625248
v -0.00626410 -0.05136264 -0.00008121
v -0.00593594 -0.05149379 0.00615380
v -0.00584507 -0.05175021 0.01242779
v -0.00884359 -0.04690307 0.01848538
v -0.00701669 -0.05077397 0.01711913
v -0.00469296 -0.04874377 0.02042641
v -0.00928929 -0.04383166 -0.01854132
v -0.00552991 -0.04222775 -0.02095744
v -0.00942964 -0.04288010 -0.00549957
v -0.00621347 -0.04094496 -0.00916776
v -0.00526862 -0.04514868 -0.00616865
v -0.00547368 -0.04596611 0.00092213
v -0.00672229 -0.04516564 0.00568192
v -0.00912517 -0.04106269 0.00612926
v -0.00539211 -0.04297328 0.00934690
v -0.00951872 -0.04077796 0.01839065
v -0.00551106 -0.04384483 0.02095301
v -0.00905118 -0.03775586 -0.01843890
v -0.00446281 -0.03639625 -0.02046056
v -0.00915428 -0.03781445 -0.00561678
v -0.00603524 -0.03704089 -0.00878715
v -0.00876282 -0.03704534 0.00597301
v -0.00509413 -0.03711255 0.00906091
v -0.00863188 -0.03540878 0.01785831
v -0.00573960 -0.03770146 0.02038467
v -0.00572293 -0.03413476 -0.01723936
v -0.00589393 -0.03138682 -0.01510731
v -0.00606325 -0.03346972 -0.00610753
v -0.00812263 -0.02975374 -0.00025697
v -0.00630358 -0.02871377 -0.00334077
v -0.00753895 -0.03110551 0.00311491
v -0.00612032 -0.03342632 0.00603650
v -0.00622610 -0.03162846 0.01520182
v -0.00450773 -0.03402379 0.01771084
v -0.01003933 -0.02488506 -0.01270878
v -0.00610431 -0.02485556 -0.01474928
v -0.00795781 -0.02447446 0.00012018
v -0.00641012 -0.02301118 -0.00304626
v -0.00615192 -0.02592479 0.00322237
v -0.00953849 -0.02242197 0.01218932
v -0.00636989 -0.02569408 0.01464933
v -0.00911895 -0.01978540 -0.01223580
v -0.00538518 -0.01812252 -0.01456239
v -0.00809794 -0.01840393 0.00003319
v -0.00641846 -0.01690176 -0.00314981
v -0.00632884 -0.01992346 0.00319835
v -0.00917539 -0.01666784 0.01216771
v -0.00534502 -0.01961047 0.01454457
v -0.00919855 -0.01369108 -0.01221754
v -0.00547293 -0.01208115 -0.01458658
v -0.00811060 -0.01237657 -0.00000311
v -0.00641453 -0.01090566 -0.00316334
v -0.00642013 -0.01385441 0.00316038
v -0.00925503 -0.01065648 0.01225585
v -0.00543209 -0.01366627 0.01458842
v -0.00926963 -0.00769010 -0.01225940
v -0.00546670 -0.00612630 -0.01459754
v -0.00810742 -0.00640108 -0.00000052
v -0.00641519 -0.00493081 -0.00316018
v -0.00641700 -0.00787058 0.00315909
v -0.00927093 -0.00466737 0.01226148
v -0.00546608 -0.00770129 0.01459942
v -0.00926902 -0.00171186 -0.01225932
v -0.00546019 -0.00014672 -0.01459554
v -0.00810731 -0.00042211 0.00000030
v -0.00641527 0.00104904 -0.00316000
v -0.00641516 -0.00189313 0.00316054
v -0.00926931 0.00131367 0.01225869
v -0.00546206 -0.00172279 0.01459612
v -0.00926906 0.00426843 -0.01225814
v -0.00546241 0.00583391 -0.01459515
v -0.00810733 0.00555810 0.00000024
v -0.00641525 0.00702920 -0.00316005
v -0.00641524 0.00408699 0.00316053
v -0.00926919 0.00729373 0.01225867
v -0.00546245 0.00425856 0.01459561
v -0.00926924 0.01024852 -0.01225820
v -0.00546259 0.01181394 -0.01459522
v -0.00810733 0.01153819 0.00000023
v -0.00641525 0.01300928 -0.00316005
v -0.00641525 0.01006710 0.00316051
v -0.00926920 0.01327377 0.01225867
v -0.00546256 0.01023872 0.01459568
v -0.00926920 0.01622859 -0.01225821
v -0.00546254 0.01779401 -0.01459523
v -0.00810731 0.01751825 0.00000022
v -0.00641519 0.01898929 -0.00316005
v -0.00641525 0.01604717 0.00316051
v -0.00926922 0.01925383 0.01225867
v -0.00546254 0.01621878 0.01459568
v -0.00926925 0.02220871 -0.01225817
v -0.00546263 0.02377418 -0.01459524
v -0.00810721 0.02349815 0.00000014
v -0.00641520 0.02496939 -0.00316004
v -0.00641520 0.02202710 0.00316039
v -0.00926930 0.02523399 0.01225874
v -0.00546262 0.02219884 0.01459569
v -0.00926942 0.02818895 -0.01225798
v -0.00546218 0.02975473 -0.01459415
v -0.00810923 0.02948090 0.00000098
v -0.00642038 0.03095550 -0.00316083
v -0.00641557 0.02800800 0.00316086
v -0.00926654 0.03121526 0.01225844
v -0.00546226 0.02817923 0.01459577
v -0.00926636 0.03416543 -0.01225693
v -0.00545742 0.03572920 -0.01459179
v -0.00811277 0.03546357 0.00000130
v -0.00641619 0.03692643 -0.00316093
v -0.00641958 0.03399522 0.00316701
v -0.00926573 0.03718811 0.01225341
v -0.00545742 0.03415804 0.01459478
v -0.00926247 0.04013390 -0.01227984
v -0.00549425 0.04168274 -0.01463933
v -0.00801586 0.04132671 -0.00002023
v -0.00624366 0.04272521 -0.00309272
v -0.00639198 0.03992288 0.00314372
v -0.00938146 0.04314781 0.01226938
v -0.00548088 0.04012374 0.01459396
v -0.00936729 0.04618052 -0.01241057
v -0.00565299 0.04775435 -0.01479358
v -0.00784125 0.04723982 0.00001427
v -0.00605348 0.04873845 -0.00300823
v -0.00625012 0.04575579 0.00302120
v -0.00955138 0.04921931 0.01241483
v -0.00560622 0.04620553 0.01464152
v -0.00953767 0.05255645 -0.01187596
v -0.00459965 0.05432305 -0.01465226
v -0.00942559 0.05470363 -0.00009030
v -0.00662658 0.05527800 -0.00385515
v -0.00686059 0.05330385 0.00353637
v -0.00901060 0.05335911 0.01249935
v -0.00510675 0.05287011 0.01455713
v -0.00632083 0.05667955 -0.01046219
v -0.00764847 0.05902935 -0.00639450
v -0.00559729 0.05920292 -0.00776164
v -0.00592940 0.05953379 -0.00442587
v -0.01078034 0.05972480 0.00017488
v -0.00535522 0.05882979 0.00458898
v -0.00770369 0.05925026 0.00560388
v -0.00698337 0.05858206 0.00791105
v -0.00542849 0.05640211 0.01149100
v -0.00588330 0.06106830 -0.00588691
v -0.00581100 0.06115460 0.00588085
v 0.00128509 -0.05120839 -0.01796746
v -0.00155894 -0.04793527 -0.02108617
v -0.00031803 -0.05163609 -0.01246761
v -0.00026352 -0.05136328 -0.00617983
v -0.00000341 -0.05127146 0.00000210
v 0.00026413 -0.05136432 0.00618420
v 0.00043276 -0.05162238 0.01247407
v -0.00109740 -0.05110123 0.01799825
v 0.00019221 -0.04799108 0.02109103
v -0.00005350 -0.04222094 -0.02170295
v -0.00320183 -0.04282441 -0.01185789
v -0.00041378 -0.04146570 -0.01388065
v 0.00057439 -0.04481219 -0.01075073
v 0.00087876 -0.04596343 -0.00559419
v 0.00000148 -0.04591750 0.00000048
v -0.00088318 -0.04597228 0.00559671
v -0.00056823 -0.04489485 0.01076561
v -0.00280141 -0.04098396 0.01237469
v 0.00047592 -0.04157102 0.01386102
v -0.00006404 -0.04224729 0.02170417
v 0.00148021 -0.03651403 -0.02083099
v -0.00354943 -0.03667773 -0.01268319
v 0.00035479 -0.03640117 -0.01542253
v -0.00359839 -0.03550491 0.01322965
v -0.00039581 -0.03650634 0.01538078
v -0.00009867 -0.03644418 0.02083608
v -0.00098203 -0.03386677 -0.01883031
v 0.00028676 -0.03296140 -0.01115280
v -0.00081984 -0.02889648 -0.01492465
v -0.00314164 -0.03054589 -0.00697462
v 0.00027260 -0.02981954 -0.00818019
v -0.00331767 -0.02852255 0.00621969
v -0.00044657 -0.03084365 0.00857020
v -0.00053223 -0.03293928 0.01243301
v -0.00067504 -0.02885103 0.01479901
v 0.00083846 -0.03402823 0.01886208
v 0.00008185 -0.02413806 -0.01536258
v -0.00322440 -0.02603743 -0.00623787
v -0.00010185 -0.02451125 -0.00800376
v -0.00300241 -0.02289603 0.00637800
v 0.00007748 -0.02427278 0.00788535
v 0.00021457 -0.02424385 0.01532746
v -0.00002753 -0.01824566 -0.01534571
v -0.00319397 -0.01994642 -0.00635207
v -0.00002807 -0.01840475 -0.00809933
v -0.00314692 -0.01690353 0.00641972
v 0.00003811 -0.01836270 0.00808181
v 0.00004252 -0.01828729 0.01536269
v -0.00007198 -0.01235981 -0.01537131
v -0.00315841 -0.01385068 -0.00641847
v 0.00000516 -0.01237737 -0.00810962
v -0.00316395 -0.01090869 0.00641623
v -0.00000212 -0.01238337 0.00811315
v -0.00004225 -0.01234092 0.01537330
v -0.00000217 -0.00639668 -0.01538011
v -0.00315821 -0.00787021 -0.00641712
v 0.00000144 -0.00640119 -0.00810787
v -0.00315970 -0.00493072 0.00641612
v -0.00000014 -0.00640170 0.00810863
v -0.00000153 -0.00640824 0.01537917
v 0.00000306 -0.00041340 -0.01537786
v -0.00315962 -0.00189315 -0.00641570
v 0.00000061 -0.00042204 -0.00810783
v -0.00315950 0.00104907 0.00641622
v 0.00000080 -0.00042199 0.00810823
v 0.00000186 -0.00043147 0.01537821
v 0.00000073 0.00556654 -0.01537753
v -0.00315957 0.00408699 -0.00641573
v 0.00000072 0.00555810 -0.00810782
v -0.00315956 0.00702920 0.00641621
v 0.00000073 0.00555810 0.00810828
v 0.00000072 0.00554971 0.01537804
v 0.00000070 0.01154655 -0.01537761
v -0.00315955 0.01006710 -0.00641575
v 0.00000072 0.01153819 -0.00810782
v -0.00315955 0.01300928 0.00641621
v 0.00000073 0.01153819 0.00810829
v 0.00000071 0.01152983 0.01537807
v 0.00000071 0.01752662 -0.01537763
v -0.00315956 0.01604717 -0.00641574
v 0.00000073 0.01751825 -0.00810781
v -0.00315956 0.01898929 0.00641615
v 0.00000072 0.01751825 0.00810827
v 0.00000072 0.01750989 0.01537807
v 0.00000063 0.02350686 -0.01537766
v -0.00315943 0.02202710 -0.00641570
v 0.00000082 0.02349815 -0.00810771
v -0.00315954 0.02496941 0.00641613
v 0.00000063 0.02349816 0.00810816
v 0.00000065 0.02348999 0.01537812
v 0.00000273 0.02948752 -0.01537589
v -0.00315993 0.02800797 -0.00641607
v -0.00000006 0.02948088 -0.00810973
v -0.00316035 0.03095544 0.00642142
v 0.00000148 0.02948087 0.00811025
v 0.00000195 0.02947058 0.01537794
v 0.00000366 0.03546010 -0.01537242
v -0.00316619 0.03399528 -0.00641996
v -0.00000096 0.03546361 -0.00811287
v -0.00316067 0.03692518 0.00641823
v 0.00000183 0.03546268 0.00811466
v 0.00000152 0.03544682 0.01537423
v -0.00008981 0.04143598 -0.01540822
v -0.00314174 0.03992406 -0.00639185
v 0.00002283 0.04132744 -0.00801605
v -0.00309205 0.04272627 0.00624378
v -0.00001890 0.04132862 0.00801401
v -0.00005384 0.04141918 0.01538511
v -0.00020696 0.04758382 -0.01555070
v -0.00300607 0.04575576 -0.00625834
v 0.00001202 0.04724028 -0.00785654
v -0.00299811 0.04876196 0.00603523
v 0.00001454 0.04727027 0.00780203
v -0.00001917 0.04750737 0.01551288
v 0.00065800 0.05298946 -0.01563489
v -0.00352452 0.05328090 -0.00690656
v 0.00011562 0.05470555 -0.00945018
v -0.00383004 0.05533332 0.00659699
v -0.00010899 0.05471204 0.00937281
v 0.00094186 0.05293998 0.01562668
v -0.00255770 0.05879265 -0.01232422
v 0.00045918 0.05835090 -0.01421560
v -0.00013143 0.05972544 -0.01080567
v -0.00459975 0.05874117 -0.00546176
v -0.00438783 0.05961663 0.00589117
v 0.00013458 0.05972594 0.01072405
v -0.00175995 0.05939726 0.01172166
v -0.00057269 0.05828891 0.01415544
v -0.00016932 0.06124414 -0.01222713
v 0.00005785 0.06122312 0.01216381
v 0.00715385 -0.05091847 -0.01707499
v 0.00426564 -0.04811741 -0.02063302
v 0.00592556 -0.05179773 -0.01241294
v 0.00593803 -0.05149345 -0.00615418
v 0.00625840 -0.05136274 0.00008507
v 0.00641493 -0.05146225 0.00625624
v 0.00567738 -0.05161683 0.01159419
v 0.00556645 -0.05087385 0.01744256
v 0.00564926 -0.04685746 0.02063970
v 0.00553219 -0.04236034 -0.02089041
v 0.00283352 -0.04092406 -0.01241833
v 0.00535231 -0.04290435 -0.00936596
v 0.00666779 -0.04509881 -0.00567714
v 0.00547041 -0.04596856 -0.00092169
v 0.00533101 -0.04525446 0.00619782
v 0.00332038 -0.04297614 0.01185881
v 0.00634795 -0.04113581 0.00914568
v 0.00552291 -0.04074132 0.02090238
v 0.00636947 -0.03726566 -0.02012558
v 0.00369073 -0.03555883 -0.01331480
v 0.00560681 -0.03783097 -0.00913665
v 0.00319875 -0.03608859 0.01237007
v 0.00566086 -0.03610828 0.00836233
v 0.00495317 -0.03581395 0.02022600
v 0.00441989 -0.03408147 -0.01777403
v 0.00586275 -0.03115139 -0.01531236
v 0.00328641 -0.02869024 -0.00630197
v 0.00607859 -0.03350251 -0.00610011
v 0.00684189 -0.03051134 -0.00312868
v 0.00377753 -0.03137817 0.00716287
v 0.00603607 -0.03346320 0.00601538
v 0.00644428 -0.02940267 0.00360766
v 0.00561138 -0.03080137 0.01505289
v 0.00571976 -0.03436187 0.01721693
v 0.00652984 -0.02480570 -0.01470018
v 0.00302354 -0.02297834 -0.00641687
v 0.00609874 -0.02593049 -0.00317958
v 0.00311712 -0.02569213 0.00610595
v 0.00630555 -0.02276463 0.00300500
v 0.00623131 -0.02390064 0.01472019
v 0.00537041 -0.01856800 -0.01453931
v 0.00315259 -0.01690091 -0.00642020
v 0.00629813 -0.01985938 -0.00321463
v 0.00316381 -0.01978166 0.00629459
v 0.00640967 -0.01687027 0.00314121
v 0.00537773 -0.01703995 0.01456735
v 0.00540749 -0.01265969 -0.01458957
v 0.00316636 -0.01090908 -0.00641420
v 0.00642114 -0.01385058 -0.00316200
v 0.00316260 -0.01385535 0.00642053
v 0.00641835 -0.01091341 0.00316589
v 0.00543677 -0.01106785 0.01459104
v 0.00546585 -0.00666980 -0.01459881
v 0.00316114 -0.00493090 -0.00641562
v 0.00641989 -0.00787369 -0.00315783
v 0.00316015 -0.00787406 0.00641895
v 0.00641675 -0.00493122 0.00316077
v 0.00546635 -0.00511242 0.01459707
v 0.00546508 -0.00068739 -0.01459539
v 0.00316092 0.00104912 -0.00641579
v 0.00641661 -0.00189313 -0.00316007
v 0.00316101 -0.00189302 0.00641610
v 0.00641670 0.00104915 0.00316043
v 0.00546436 0.00086729 0.01459574
v 0.00546393 0.00529227 -0.01459515
v 0.00316101 0.00702920 -0.00641574
v 0.00641667 0.00408703 -0.00316008
v 0.00316102 0.00408702 0.00641619
v 0.00641670 0.00702920 0.00316051
v 0.00546395 0.00684771 0.01459566
v 0.00546398 0.01127232 -0.01459522
v 0.00316100 0.01300928 -0.00641575
v 0.00641670 0.01006710 -0.00316005
v 0.00316100 0.01006710 0.00641621
v 0.00641670 0.01300928 0.00316051
v 0.00546399 0.01282778 0.01459568
v 0.00546394 0.01725239 -0.01459526
v 0.00316101 0.01898929 -0.00641569
v 0.00641670 0.01604717 -0.00316005
v 0.00316100 0.01604717 0.00641621
v 0.00641664 0.01898929 0.00316051
v 0.00546397 0.01880783 0.01459570
v 0.00546401 0.02323267 -0.01459532
v 0.00316101 0.02496939 -0.00641570
v 0.00641665 0.02202710 -0.00315993
v 0.00316088 0.02202710 0.00641616
v 0.00641665 0.02496939 0.00316052
v 0.00546404 0.02478808 0.01459581
v 0.00546757 0.02921233 -0.01459367
v 0.00316173 0.03095548 -0.00642085
v 0.00641704 0.02800797 -0.00316042
v 0.00316138 0.02800800 0.00641655
v 0.00642181 0.03095547 0.00316123
v 0.00546511 0.03076947 0.01459391
v 0.00546265 0.03518519 -0.01458819
v 0.00316100 0.03692646 -0.00641620
v 0.00642087 0.03399529 -0.00316669
v 0.00316745 0.03399493 0.00642076
v 0.00641749 0.03692562 0.00316041
v 0.00545846 0.03673844 0.01458917
v 0.00537817 0.04121752 -0.01460807
v 0.00309495 0.04272583 -0.00624493
v 0.00639255 0.03992432 -0.00314279
v 0.00314431 0.03992350 0.00639122
v 0.00624583 0.04272713 0.00309523
v 0.00545831 0.04269364 0.01466156
v 0.00533180 0.04748041 -0.01473497
v 0.00302183 0.04873980 -0.00606149
v 0.00625905 0.04575587 -0.00300580
v 0.00302112 0.04577880 0.00622897
v 0.00603145 0.04877065 0.00303623
v 0.00560697 0.04891016 0.01484478
v 0.00540050 0.05342840 -0.01445947
v 0.00386563 0.05527886 -0.00663400
v 0.00690283 0.05326481 -0.00350148
v 0.00350010 0.05331948 0.00684702
v 0.00653831 0.05535049 0.00384532
v 0.00493079 0.05494041 0.01445667
v 0.00590748 0.05636048 -0.01118160
v 0.00168649 0.05937390 -0.01178631
v 0.00639982 0.05901204 -0.00764167
v 0.00442658 0.05953766 -0.00593258
v 0.00546238 0.05874369 -0.00460172
v 0.00447383 0.05893900 0.00534934
v 0.00572560 0.05970650 0.00436580
v 0.00247985 0.05870037 0.01227217
v 0.00521796 0.05615152 0.01123881
v 0.00604579 0.05861502 0.00833325
v 0.00588720 0.06107080 -0.00588611
v 0.00576529 0.06122480 0.00578637
v 0.00886083 -0.04708134 -0.01845433
v 0.01133490 -0.04896186 -0.01529564
v 0.01246111 -0.05101785 -0.01168846
v 0.01227400 -0.05176952 -0.00613985
v 0.01247294 -0.05160292 0.00012843
v 0.01169873 -0.05159267 0.00545017
v 0.01148810 -0.05096676 0.01218048
v 0.00948488 -0.04885273 0.01772851
v 0.01238136 -0.04701899 0.01505433
v 0.00943536 -0.04099945 -0.01840952
v 0.01228288 -0.04411511 -0.01529372
v 0.00907481 -0.04099252 -0.00612887
v 0.01176460 -0.04287872 -0.00303250
v 0.01077790 -0.04488364 0.00074748
v 0.00954873 -0.04309163 0.00555301
v 0.01250454 -0.04106440 0.00294780
v 0.00941779 -0.04402373 0.01851632
v 0.01236464 -0.04106742 0.01541081
v 0.00856232 -0.03566065 -0.01792902
v 0.01184512 -0.03697370 -0.01537342
v 0.00876163 -0.03708862 -0.00599957
v 0.01263422 -0.03677083 -0.00354267
v 0.00869271 -0.03696667 0.00538848
v 0.01286478 -0.03513188 0.00330575
v 0.00909162 -0.03798834 0.01845800
v 0.01156753 -0.03474503 0.01539030
v 0.01169442 -0.03085629 -0.01431885
v 0.00879174 -0.03076477 0.00064849
v 0.01165903 -0.03253725 -0.00080400
v 0.01099311 -0.02939252 0.01428006
v 0.01146549 -0.02719298 -0.01272125
v 0.00957170 -0.02287747 -0.01218021
v 0.01269221 -0.02512520 -0.01009739
v 0.00786027 -0.02433091 -0.00007813
v 0.01009985 -0.02498095 0.01268968
v 0.01218941 -0.02254311 0.00953873
v 0.01273494 -0.02695028 0.01140734
v 0.00917311 -0.01726268 -0.01216515
v 0.01222561 -0.02010988 -0.00915047
v 0.00805871 -0.01831806 -0.00005349
v 0.00915039 -0.01994936 0.01222686
v 0.01216624 -0.01683073 0.00917331
v 0.00925574 -0.01127617 -0.01225554
v 0.01221818 -0.01411963 -0.00919702
v 0.00811394 -0.01238121 0.00000346
v 0.00919687 -0.01394770 0.01221853
v 0.01225639 -0.01083000 0.00925599
v 0.00927345 -0.00528321 -0.01226135
v 0.01226014 -0.00813770 -0.00927055
v 0.00810967 -0.00640304 0.00000149
v 0.00927155 -0.00796710 0.01225935
v 0.01226248 -0.00483831 0.00927194
v 0.00927083 0.00069742 -0.01225823
v 0.01226012 -0.00215781 -0.00927124
v 0.00810871 -0.00042195 0.00000012
v 0.00927220 -0.00198739 0.01225959
v 0.01225919 0.00114326 0.00927027
v 0.00927061 0.00667734 -0.01225817
v 0.01225912 0.00382253 -0.00926964
v 0.00810877 0.00555812 0.00000022
v 0.00927059 0.00399299 0.01225865
v 0.01225912 0.00712329 0.00927015
v 0.00927065 0.01265741 -0.01225821
v 0.01225916 0.00980261 -0.00926968
v 0.00810878 0.01153819 0.00000023
v 0.00927064 0.00997305 0.01225866
v 0.01225916 0.01310333 0.00927015
v 0.00927058 0.01863750 -0.01225824
v 0.01225916 0.01578268 -0.00926969
v 0.00810876 0.01751825 0.00000024
v 0.00927065 0.01595312 0.01225867
v 0.01225917 0.01908338 0.00927017
v 0.00927077 0.02461778 -0.01225832
v 0.01225914 0.02176282 -0.00926968
v 0.00810866 0.02349815 0.00000033
v 0.00927064 0.02193316 0.01225875
v 0.01225919 0.02506357 0.00927028
v 0.00927300 0.03059548 -0.01225713
v 0.01225901 0.02774311 -0.00926992
v 0.00811069 0.02948089 -0.00000056
v 0.00927056 0.02791407 0.01225843
v 0.01225800 0.03104571 0.00926778
v 0.00927051 0.03656790 -0.01225134
v 0.01225730 0.03371747 -0.00926983
v 0.00811398 0.03546361 -0.00000179
v 0.00926939 0.03389313 0.01225340
v 0.01225631 0.03701457 0.00926560
v 0.00929399 0.04263922 -0.01227808
v 0.01227804 0.03968665 -0.00926373
v 0.00801738 0.04132694 0.00002240
v 0.00928399 0.03982752 0.01227952
v 0.01231767 0.04292761 0.00937715
v 0.00936759 0.04887372 -0.01243880
v 0.01242151 0.04580578 -0.00932125
v 0.00784540 0.04723670 0.00003648
v 0.00939308 0.04588765 0.01243741
v 0.01247208 0.04905368 0.00954314
v 0.00887218 0.05311850 -0.01252811
v 0.01190574 0.05234374 -0.00945583
v 0.00940757 0.05467893 0.00018762
v 0.00888421 0.05346142 0.01166782
v 0.01203676 0.05425499 0.00862677
v 0.01047910 0.05658208 -0.00624516
v 0.00776676 0.05918285 -0.00558722
v 0.01232513 0.05870783 -0.00237082
v 0.01076721 0.05967716 0.00000397
v 0.00844718 0.05823598 0.00673746
v 0.01163383 0.05660726 0.00470590
v 0.01173108 0.05933946 0.00185577
v 0.01218628 0.06118069 0.00006498
v 0.01488764 -0.04706006 -0.01224576
v 0.01753759 -0.04891444 -0.00926427
v 0.01780357 -0.05082323 -0.00577946
v 0.01796296 -0.05110278 0.00011588
v 0.01684252 -0.05082717 0.00663462
v 0.01547537 -0.04879201 0.01156065
v 0.01856399 -0.04686031 0.00906284
v 0.01540830 -0.04108498 -0.01235405
v 0.01844645 -0.04403154 -0.00935460
v 0.01388766 -0.04156377 -0.00026040
v 0.01534734 -0.04395633 0.01236565
v 0.01840201 -0.04076899 0.00954141
v 0.01542534 -0.03478410 -0.01152240
v 0.01845761 -0.03796508 -0.00908431
v 0.01546975 -0.03653377 0.00049012
v 0.01536060 -0.03681076 0.01184235
v 0.01790607 -0.03544661 0.00868067
v 0.01430986 -0.02948055 -0.01094915
v 0.01725032 -0.03434946 -0.00563132
v 0.01509618 -0.03082183 -0.00549167
v 0.01888226 -0.03401720 -0.00079012
v 0.01486817 -0.02890757 0.00083332
v 0.01778947 -0.03407081 0.00456825
v 0.01528591 -0.03170129 0.00632251
v 0.01433468 -0.03069499 0.01162944
v 0.01473030 -0.02389373 -0.00619421
v 0.01536917 -0.02424624 -0.00011909
v 0.01469666 -0.02572460 0.00645063
v 0.01456637 -0.01703072 -0.00537858
v 0.01536311 -0.01826995 -0.00004079
v 0.01454483 -0.01960383 0.00534931
v 0.01459140 -0.01105836 -0.00543632
v 0.01537301 -0.01232410 0.00004115
v 0.01458683 -0.01365816 0.00542966
v 0.01459758 -0.00510251 -0.00546536
v 0.01537969 -0.00639145 0.00000250
v 0.01459988 -0.00769180 0.00546697
v 0.01459623 0.00087718 -0.00546341
v 0.01537870 -0.00041472 -0.00000089
v 0.01459662 -0.00171284 0.00546306
v 0.01459616 0.00685761 -0.00546299
v 0.01537854 0.00556645 0.00000024
v 0.01459609 0.00426846 0.00546340
v 0.01459618 0.01283768 -0.00546303
v 0.01537857 0.01154657 0.00000024
v 0.01459617 0.01024862 0.00546351
v 0.01459619 0.01881774 -0.00546300
v 0.01537857 0.01752663 0.00000024
v 0.01459618 0.01622867 0.00546349
v 0.01459627 0.02479800 -0.00546305
v 0.01537865 0.02350672 0.00000033
v 0.01459621 0.02220871 0.00546357
v 0.01459458 0.03077805 -0.00546510
v 0.01537836 0.02948746 -0.00000102
v 0.01459617 0.02818926 0.00546327
v 0.01458918 0.03674972 -0.00545934
v 0.01537345 0.03546417 -0.00000261
v 0.01459361 0.03416984 0.00545828
v 0.01465340 0.04275501 -0.00542294
v 0.01538354 0.04143502 0.00005538
v 0.01459678 0.04012681 0.00548178
v 0.01487779 0.04893931 -0.00551084
v 0.01551727 0.04751793 0.00006725
v 0.01468118 0.04614456 0.00563000
v 0.01451710 0.05494600 -0.00482961
v 0.01565029 0.05295279 -0.00080937
v 0.01460629 0.05281847 0.00512917
v 0.01418979 0.05824342 0.00070018
v 0.02054514 -0.04689560 -0.00547550
v 0.02104507 -0.04801543 0.00008095
v 0.02046485 -0.04871656 0.00502284
v 0.02088522 -0.04074211 -0.00551263
v 0.02167509 -0.04225702 0.00013408
v 0.02096282 -0.04383811 0.00566184
v 0.02022036 -0.03578954 -0.00494368
v 0.02084680 -0.03645351 0.00009996
v 0.02039707 -0.03771446 0.00574494
f 3 2 1
f 5 4 1
f 5 1 2
f 7 6 4
f 7 4 5
f 8 6 7
f 3 1 9
f 3 9 10
f 11 1 4
f 9 1 11
f 12 4 6
f 11 4 12
f 6 8 13
f 6 13 12
f 10 9 14
f 10 14 15
f 16 9 11
f 14 9 16
f 17 11 12
f 16 11 17
f 12 13 18
f 12 18 17
f 19 15 14
f 19 14 16
f 19 16 20
f 20 16 17
f 20 17 21
f 21 17 18
f 24 23 22
f 2 3 22
f 23 2 22
f 25 2 23
f 2 26 5
f 25 26 2
f 5 27 7
f 26 27 5
f 29 28 8
f 7 29 8
f 27 29 7
f 30 28 29
f 24 22 31
f 24 31 32
f 10 31 3
f 3 31 22
f 35 34 33
f 33 36 35
f 37 13 28
f 28 13 8
f 28 30 38
f 28 38 37
f 32 31 39
f 32 39 40
f 15 39 10
f 10 39 31
f 33 34 41
f 41 34 42
f 36 33 43
f 43 33 41
f 44 18 37
f 37 18 13
f 37 38 45
f 37 45 44
f 40 39 46
f 40 46 47
f 19 48 15
f 48 39 15
f 48 46 39
f 20 41 19
f 42 19 41
f 19 42 48
f 49 48 42
f 48 49 50
f 21 41 20
f 41 21 43
f 51 43 21
f 43 51 49
f 50 49 51
f 18 44 21
f 44 51 21
f 44 52 51
f 44 45 53
f 44 53 52
f 54 47 46
f 56 55 54
f 46 56 54
f 48 56 46
f 57 48 50
f 56 48 57
f 58 50 51
f 57 50 58
f 52 60 59
f 58 52 59
f 51 52 58
f 60 52 53
f 55 56 61
f 55 61 62
f 63 56 57
f 61 56 63
f 64 57 58
f 63 57 64
f 58 59 65
f 58 65 64
f 62 61 66
f 62 66 67
f 68 61 63
f 66 61 68
f 69 63 64
f 68 63 69
f 64 65 70
f 64 70 69
f 67 66 71
f 67 71 72
f 73 66 68
f 71 66 73
f 74 68 69
f 73 68 74
f 69 70 75
f 69 75 74
f 72 71 76
f 72 76 77
f 78 71 73
f 76 71 78
f 79 73 74
f 78 73 79
f 74 75 80
f 74 80 79
f 77 76 81
f 77 81 82
f 83 76 78
f 81 76 83
f 84 78 79
f 83 78 84
f 79 80 85
f 79 85 84
f 82 81 86
f 82 86 87
f 88 81 83
f 86 81 88
f 89 83 84
f 88 83 89
f 84 85 90
f 84 90 89
f 87 86 91
f 87 91 92
f 93 86 88
f 91 86 93
f 94 88 89
f 93 88 94
f 89 90 95
f 89 95 94
f 92 91 96
f 92 96 97
f 98 91 93
f 96 91 98
f 99 93 94
f 98 93 99
f 94 95 100
f 94 100 99
f 97 96 101
f 97 101 102
f 103 96 98
f 101 96 103
f 104 98 99
f 103 98 104
f 99 100 105
f 99 105 104
f 102 101 106
f 102 106 107
f 108 101 103
f 106 101 108
f 109 103 104
f 108 103 109
f 104 105 110
f 104 110 109
f 107 106 111
f 107 111 112
f 113 106 108
f 111 106 113
f 114 108 109
f 113 108 114
f 109 110 115
f 109 115 114
f 112 111 116
f 112 116 117
f 118 111 113
f 116 111 118
f 119 113 114
f 118 113 119
f 114 115 120
f 114 120 119
f 117 116 121
f 117 121 122
f 123 116 118
f 121 116 123
f 124 118 119
f 123 118 124
f 119 120 125
f 119 125 124
f 126 122 121
f 128 127 126
f 121 128 126
f 123 128 121
f 124 130 129
f 128 124 129
f 123 124 128
f 130 124 125
f 131 127 128
f 131 128 129
f 134 133 132
f 23 24 132
f 133 23 132
f 135 23 133
f 23 136 25
f 135 136 23
f 25 137 26
f 136 137 25
f 26 138 27
f 137 138 26
f 27 139 29
f 138 139 27
f 141 140 30
f 29 141 30
f 139 141 29
f 142 140 141
f 134 132 143
f 134 143 144
f 32 143 24
f 24 143 132
f 147 146 145
f 34 35 145
f 35 147 145
f 35 148 147
f 150 149 36
f 149 35 36
f 149 148 35
f 150 151 149
f 152 38 140
f 140 38 30
f 140 142 153
f 140 153 152
f 144 143 154
f 144 154 155
f 40 154 32
f 32 154 143
f 145 146 156
f 156 146 157
f 156 42 34
f 156 34 145
f 43 158 150
f 43 150 36
f 151 150 159
f 159 150 158
f 160 45 152
f 152 45 38
f 152 153 161
f 152 161 160
f 162 155 154
f 154 40 162
f 40 163 162
f 40 47 163
f 157 164 156
f 164 166 165
f 164 165 49
f 156 164 49
f 42 156 49
f 165 167 49
f 49 167 43
f 167 168 43
f 168 158 43
f 158 168 159
f 170 169 160
f 169 45 160
f 169 53 45
f 170 160 161
f 47 54 171
f 172 47 171
f 163 47 172
f 55 171 54
f 165 166 173
f 173 166 174
f 167 165 175
f 175 165 173
f 176 59 60
f 177 176 60
f 53 177 60
f 169 177 53
f 172 171 178
f 172 178 179
f 62 178 55
f 55 178 171
f 173 174 180
f 180 174 181
f 175 173 182
f 182 173 180
f 183 65 176
f 176 65 59
f 176 177 184
f 176 184 183
f 179 178 185
f 179 185 186
f 67 185 62
f 62 185 178
f 180 181 187
f 187 181 188
f 182 180 189
f 189 180 187
f 190 70 183
f 183 70 65
f 183 184 191
f 183 191 190
f 186 185 192
f 186 192 193
f 72 192 67
f 67 192 185
f 187 188 194
f 194 188 195
f 189 187 196
f 196 187 194
f 197 75 190
f 190 75 70
f 190 191 198
f 190 198 197
f 193 192 199
f 193 199 200
f 77 199 72
f 72 199 192
f 194 195 201
f 201 195 202
f 196 194 203
f 203 194 201
f 204 80 197
f 197 80 75
f 197 198 205
f 197 205 204
f 200 199 206
f 200 206 207
f 82 206 77
f 77 206 199
f 201 202 208
f 208 202 209
f 203 201 210
f 210 201 208
f 211 85 204
f 204 85 80
f 204 205 212
f 204 212 211
f 207 206 213
f 207 213 214
f 87 213 82
f 82 213 206
f 208 209 215
f 215 209 216
f 210 208 217
f 217 208 215
f 218 90 211
f 211 90 85
f 211 212 219
f 211 219 218
f 214 213 220
f 214 220 221
f 92 220 87
f 87 220 213
f 215 216 222
f 222 216 223
f 217 215 224
f 224 215 222
f 225 95 218
f 218 95 90
f 218 219 226
f 218 226 225
f 221 220 227
f 221 227 228
f 97 227 92
f 92 227 220
f 222 223 229
f 229 223 230
f 224 222 231
f 231 222 229
f 232 100 225
f 225 100 95
f 225 226 233
f 225 233 232
f 228 227 234
f 228 234 235
f 102 234 97
f 97 234 227
f 229 230 236
f 236 230 237
f 231 229 238
f 238 229 236
f 239 105 232
f 232 105 100
f 232 233 240
f 232 240 239
f 235 234 241
f 235 241 242
f 107 241 102
f 102 241 234
f 236 237 243
f 243 237 244
f 238 236 245
f 245 236 243
f 246 110 239
f 239 110 105
f 239 240 247
f 239 247 246
f 242 241 248
f 242 248 249
f 112 248 107
f 107 248 241
f 243 244 250
f 250 244 251
f 245 243 252
f 252 243 250
f 253 115 246
f 246 115 110
f 246 247 254
f 246 254 253
f 249 248 255
f 249 255 256
f 117 255 112
f 112 255 248
f 250 251 257
f 257 251 258
f 252 250 259
f 259 250 257
f 260 120 253
f 253 120 115
f 253 254 261
f 253 261 260
f 256 255 262
f 256 262 263
f 122 262 117
f 117 262 255
f 257 258 264
f 264 258 265
f 259 257 266
f 266 257 264
f 267 125 260
f 260 125 120
f 260 261 268
f 260 268 267
f 269 263 262
f 271 269 270
f 270 269 126
f 269 262 126
f 262 122 126
f 272 270 265
f 126 265 270
f 265 126 264
f 127 264 126
f 264 127 273
f 266 275 274
f 275 266 130
f 264 130 266
f 130 264 129
f 273 129 264
f 276 275 130
f 276 130 125
f 277 276 125
f 267 277 125
f 277 267 268
f 278 271 270
f 127 131 273
f 270 272 278
f 275 279 274
f 129 273 131
f 279 275 276
f 281 280 133
f 281 133 134
f 133 282 135
f 280 282 133
f 135 283 136
f 282 283 135
f 136 284 137
f 283 284 136
f 137 285 138
f 284 285 137
f 138 286 139
f 285 286 138
f 139 287 141
f 286 287 139
f 142 141 287
f 142 287 288
f 144 281 134
f 144 289 281
f 292 291 290
f 146 147 290
f 147 292 290
f 147 293 292
f 294 147 148
f 294 293 147
f 295 148 149
f 295 294 148
f 297 296 151
f 296 149 151
f 296 295 149
f 297 298 296
f 288 153 142
f 299 153 288
f 155 289 144
f 155 300 289
f 290 291 301
f 301 291 302
f 301 157 146
f 301 146 290
f 159 303 297
f 159 297 151
f 298 297 304
f 304 297 303
f 299 161 153
f 305 161 299
f 306 300 155
f 306 155 162
f 162 302 306
f 302 162 301
f 163 301 162
f 301 163 307
f 308 307 163
f 307 310 309
f 307 309 164
f 301 307 164
f 157 301 164
f 309 166 164
f 167 311 168
f 311 312 168
f 168 312 159
f 312 313 159
f 313 303 159
f 169 313 314
f 313 169 303
f 170 303 169
f 303 170 304
f 315 304 170
f 170 161 305
f 170 305 315
f 172 308 163
f 172 316 308
f 309 310 317
f 317 310 318
f 317 174 166
f 317 166 309
f 175 319 311
f 175 311 167
f 312 311 320
f 320 311 319
f 314 177 169
f 321 177 314
f 179 316 172
f 179 322 316
f 317 318 323
f 323 318 324
f 323 181 174
f 323 174 317
f 182 325 319
f 182 319 175
f 320 319 326
f 326 319 325
f 321 184 177
f 327 184 321
f 186 322 179
f 186 328 322
f 323 324 329
f 329 324 330
f 329 188 181
f 329 181 323
f 189 331 325
f 189 325 182
f 326 325 332
f 332 325 331
f 327 191 184
f 333 191 327
f 193 328 186
f 193 334 328
f 329 330 335
f 335 330 336
f 335 195 188
f 335 188 329
f 196 337 331
f 196 331 189
f 332 331 338
f 338 331 337
f 333 198 191
f 339 198 333
f 200 334 193
f 200 340 334
f 335 336 341
f 341 336 342
f 341 202 195
f 341 195 335
f 203 343 337
f 203 337 196
f 338 337 344
f 344 337 343
f 339 205 198
f 345 205 339
f 207 340 200
f 207 346 340
f 341 342 347
f 347 342 348
f 347 209 202
f 347 202 341
f 210 349 343
f 210 343 203
f 344 343 350
f 350 343 349
f 345 212 205
f 351 212 345
f 214 346 207
f 214 352 346
f 347 348 353
f 353 348 354
f 353 216 209
f 353 209 347
f 217 355 349
f 217 349 210
f 350 349 356
f 356 349 355
f 351 219 212
f 357 219 351
f 221 352 214
f 221 358 352
f 353 354 359
f 359 354 360
f 359 223 216
f 359 216 353
f 224 361 355
f 224 355 217
f 356 355 362
f 362 355 361
f 357 226 219
f 363 226 357
f 228 358 221
f 228 364 358
f 359 360 365
f 365 360 366
f 365 230 223
f 365 223 359
f 231 367 361
f 231 361 224
f 362 361 368
f 368 361 367
f 363 233 226
f 369 233 363
f 235 364 228
f 235 370 364
f 365 366 371
f 371 366 372
f 371 237 230
f 371 230 365
f 238 373 367
f 238 367 231
f 368 367 374
f 374 367 373
f 369 240 233
f 375 240 369
f 242 370 235
f 242 376 370
f 371 372 377
f 377 372 378
f 377 244 237
f 377 237 371
f 245 379 373
f 245 373 238
f 374 373 380
f 380 373 379
f 375 247 240
f 381 247 375
f 249 376 242
f 249 382 376
f 377 378 383
f 383 378 384
f 383 251 244
f 383 244 377
f 252 385 379
f 252 379 245
f 380 379 386
f 386 379 385
f 381 254 247
f 387 254 381
f 256 382 249
f 256 388 382
f 383 384 389
f 389 384 390
f 389 258 251
f 389 251 383
f 259 391 385
f 259 385 252
f 386 385 392
f 392 385 391
f 387 261 254
f 393 261 387
f 263 388 256
f 263 394 388
f 389 390 395
f 395 390 396
f 395 265 258
f 395 258 389
f 266 397 391
f 266 391 259
f 392 391 398
f 398 391 397
f 393 268 261
f 399 268 393
f 263 269 400
f 401 263 400
f 394 263 401
f 402 400 396
f 269 396 400
f 396 269 395
f 271 395 269
f 395 271 403
f 403 272 265
f 403 265 395
f 274 404 397
f 274 397 266
f 398 406 405
f 406 398 277
f 397 277 398
f 277 397 276
f 404 276 397
f 407 406 277
f 268 407 277
f 399 407 268
f 408 401 400
f 271 278 403
f 400 402 408
f 403 278 272
f 279 404 274
f 406 409 405
f 276 404 279
f 409 406 407
f 411 410 280
f 411 280 281
f 280 412 282
f 410 412 280
f 282 413 283
f 412 413 282
f 283 414 284
f 413 414 283
f 284 415 285
f 414 415 284
f 285 416 286
f 415 416 285
f 286 417 287
f 416 417 286
f 288 287 417
f 288 417 418
f 289 411 281
f 289 419 411
f 420 291 292
f 420 292 421
f 292 422 421
f 292 293 422
f 423 293 294
f 423 422 293
f 424 294 295
f 424 423 294
f 426 424 425
f 424 296 425
f 424 295 296
f 298 425 296
f 418 299 288
f 427 299 418
f 300 419 289
f 300 428 419
f 429 302 420
f 420 302 291
f 420 421 430
f 420 430 429
f 426 425 431
f 426 431 432
f 304 431 298
f 298 431 425
f 427 305 299
f 433 305 427
f 434 428 300
f 434 300 306
f 306 302 434
f 429 434 302
f 434 429 435
f 307 435 429
f 435 307 308
f 437 436 310
f 437 310 307
f 430 437 307
f 429 430 307
f 438 436 437
f 441 440 439
f 439 440 432
f 439 432 431
f 312 439 431
f 313 312 431
f 314 313 442
f 431 442 313
f 442 431 443
f 304 443 431
f 443 304 315
f 315 305 433
f 315 433 443
f 316 435 308
f 316 444 435
f 445 318 436
f 436 318 310
f 436 438 446
f 436 446 445
f 441 439 447
f 441 447 448
f 320 447 312
f 312 447 439
f 442 321 314
f 449 321 442
f 322 444 316
f 322 450 444
f 451 324 445
f 445 324 318
f 445 446 452
f 445 452 451
f 448 447 453
f 448 453 454
f 326 453 320
f 320 453 447
f 449 327 321
f 455 327 449
f 328 450 322
f 328 456 450
f 457 330 451
f 451 330 324
f 451 452 458
f 451 458 457
f 454 453 459
f 454 459 460
f 332 459 326
f 326 459 453
f 455 333 327
f 461 333 455
f 334 456 328
f 334 462 456
f 463 336 457
f 457 336 330
f 457 458 464
f 457 464 463
f 460 459 465
f 460 465 466
f 338 465 332
f 332 465 459
f 461 339 333
f 467 339 461
f 340 462 334
f 340 468 462
f 469 342 463
f 463 342 336
f 463 464 470
f 463 470 469
f 466 465 471
f 466 471 472
f 344 471 338
f 338 471 465
f 467 345 339
f 473 345 467
f 346 468 340
f 346 474 468
f 475 348 469
f 469 348 342
f 469 470 476
f 469 476 475
f 472 471 477
f 472 477 478
f 350 477 344
f 344 477 471
f 473 351 345
f 479 351 473
f 352 474 346
f 352 480 474
f 481 354 475
f 475 354 348
f 475 476 482
f 475 482 481
f 478 477 483
f 478 483 484
f 356 483 350
f 350 483 477
f 479 357 351
f 485 357 479
f 358 480 352
f 358 486 480
f 487 360 481
f 481 360 354
f 481 482 488
f 481 488 487
f 484 483 489
f 484 489 490
f 362 489 356
f 356 489 483
f 485 363 357
f 491 363 485
f 364 486 358
f 364 492 486
f 493 366 487
f 487 366 360
f 487 488 494
f 487 494 493
f 490 489 495
f 490 495 496
f 368 495 362
f 362 495 489
f 491 369 363
f 497 369 491
f 370 492 364
f 370 498 492
f 499 372 493
f 493 372 366
f 493 494 500
f 493 500 499
f 496 495 501
f 496 501 502
f 374 501 368
f 368 501 495
f 497 375 369
f 503 375 497
f 376 498 370
f 376 504 498
f 505 378 499
f 499 378 372
f 499 500 506
f 499 506 505
f 502 501 507
f 502 507 508
f 380 507 374
f 374 507 501
f 503 381 375
f 509 381 503
f 382 504 376
f 382 510 504
f 511 384 505
f 505 384 378
f 505 506 512
f 505 512 511
f 508 507 513
f 508 513 514
f 386 513 380
f 380 513 507
f 509 387 381
f 515 387 509
f 388 510 382
f 388 516 510
f 517 390 511
f 511 390 384
f 511 512 518
f 511 518 517
f 514 513 519
f 514 519 520
f 392 519 386
f 386 519 513
f 515 393 387
f 521 393 515
f 394 516 388
f 394 522 516
f 523 396 517
f 517 396 390
f 517 518 524
f 517 524 523
f 520 519 525
f 520 525 526
f 398 525 392
f 392 525 519
f 521 399 393
f 527 399 521
f 401 529 528
f 522 401 528
f 394 401 522
f 396 529 402
f 529 396 528
f 523 528 396
f 528 523 530
f 531 530 523
f 523 524 532
f 523 532 531
f 526 525 533
f 526 533 534
f 405 535 398
f 536 398 535
f 398 536 525
f 537 525 536
f 525 537 533
f 527 536 535
f 407 527 535
f 399 527 407
f 408 529 401
f 531 538 530
f 402 529 408
f 538 531 532
f 539 534 533
f 405 409 535
f 533 537 539
f 535 409 407
f 411 540 410
f 410 540 541
f 542 410 541
f 412 410 542
f 412 543 413
f 542 543 412
f 413 544 414
f 543 544 413
f 414 545 415
f 544 545 414
f 415 546 416
f 545 546 415
f 546 548 547
f 417 546 547
f 416 546 417
f 547 418 417
f 419 549 540
f 419 540 411
f 541 540 550
f 550 540 549
f 551 421 422
f 551 422 552
f 422 553 552
f 422 423 553
f 555 553 554
f 553 424 554
f 553 423 424
f 426 554 424
f 547 548 556
f 556 548 557
f 556 427 418
f 556 418 547
f 428 558 549
f 428 549 419
f 550 549 559
f 559 549 558
f 560 430 551
f 551 430 421
f 551 552 561
f 551 561 560
f 555 554 562
f 555 562 563
f 432 562 426
f 426 562 554
f 556 557 564
f 564 557 565
f 564 433 427
f 564 427 556
f 434 558 428
f 434 435 558
f 435 559 558
f 435 566 559
f 560 437 430
f 568 567 438
f 568 438 437
f 561 568 437
f 560 561 437
f 567 568 563
f 567 563 562
f 441 567 562
f 440 441 562
f 440 562 432
f 564 565 443
f 565 442 443
f 565 569 442
f 564 443 433
f 444 571 570
f 566 444 570
f 435 444 566
f 571 572 570
f 573 446 567
f 567 446 438
f 448 573 441
f 441 573 567
f 576 575 574
f 569 576 574
f 449 569 574
f 442 569 449
f 450 577 571
f 450 571 444
f 572 571 578
f 578 571 577
f 579 452 573
f 573 452 446
f 454 579 448
f 448 579 573
f 574 575 580
f 580 575 581
f 580 455 449
f 580 449 574
f 456 582 577
f 456 577 450
f 578 577 583
f 583 577 582
f 584 458 579
f 579 458 452
f 460 584 454
f 454 584 579
f 580 581 585
f 585 581 586
f 585 461 455
f 585 455 580
f 462 587 582
f 462 582 456
f 583 582 588
f 588 582 587
f 589 464 584
f 584 464 458
f 466 589 460
f 460 589 584
f 585 586 590
f 590 586 591
f 590 467 461
f 590 461 585
f 468 592 587
f 468 587 462
f 588 587 593
f 593 587 592
f 594 470 589
f 589 470 464
f 472 594 466
f 466 594 589
f 590 591 595
f 595 591 596
f 595 473 467
f 595 467 590
f 474 597 592
f 474 592 468
f 593 592 598
f 598 592 597
f 599 476 594
f 594 476 470
f 478 599 472
f 472 599 594
f 595 596 600
f 600 596 601
f 600 479 473
f 600 473 595
f 480 602 597
f 480 597 474
f 598 597 603
f 603 597 602
f 604 482 599
f 599 482 476
f 484 604 478
f 478 604 599
f 600 601 605
f 605 601 606
f 605 485 479
f 605 479 600
f 486 607 602
f 486 602 480
f 603 602 608
f 608 602 607
f 609 488 604
f 604 488 482
f 490 609 484
f 484 609 604
f 605 606 610
f 610 606 611
f 610 491 485
f 610 485 605
f 492 612 607
f 492 607 486
f 608 607 613
f 613 607 612
f 614 494 609
f 609 494 488
f 496 614 490
f 490 614 609
f 610 611 615
f 615 611 616
f 615 497 491
f 615 491 610
f 498 617 612
f 498 612 492
f 613 612 618
f 618 612 617
f 619 500 614
f 614 500 494
f 502 619 496
f 496 619 614
f 615 616 620
f 620 616 621
f 620 503 497
f 620 497 615
f 504 622 617
f 504 617 498
f 618 617 623
f 623 617 622
f 624 506 619
f 619 506 500
f 508 624 502
f 502 624 619
f 620 621 625
f 625 621 626
f 625 509 503
f 625 503 620
f 510 627 622
f 510 622 504
f 623 622 628
f 628 622 627
f 629 512 624
f 624 512 506
f 514 629 508
f 508 629 624
f 625 626 630
f 630 626 631
f 630 515 509
f 630 509 625
f 516 632 627
f 516 627 510
f 628 627 633
f 633 627 632
f 634 518 629
f 629 518 512
f 520 634 514
f 514 634 629
f 630 631 635
f 635 631 636
f 635 521 515
f 635 515 630
f 522 637 632
f 522 632 516
f 633 632 638
f 638 632 637
f 639 524 634
f 634 524 518
f 526 639 520
f 520 639 634
f 635 636 640
f 640 636 641
f 640 527 521
f 640 521 635
f 528 637 522
f 643 642 530
f 530 642 528
f 642 638 528
f 638 637 528
f 524 643 532
f 643 524 642
f 639 642 524
f 642 639 644
f 645 644 639
f 534 646 526
f 647 526 646
f 526 647 639
f 648 639 647
f 639 648 645
f 647 646 641
f 641 646 640
f 646 537 640
f 537 536 640
f 640 536 527
f 538 643 530
f 645 649 644
f 532 643 538
f 534 539 646
f 645 648 649
f 646 539 537
f 541 650 542
f 542 650 651
f 652 542 651
f 543 542 652
f 543 653 544
f 652 653 543
f 544 654 545
f 653 654 544
f 654 656 655
f 546 654 655
f 545 654 546
f 655 548 546
f 550 657 650
f 550 650 541
f 651 650 658
f 658 650 657
f 659 552 553
f 555 659 553
f 655 656 660
f 660 656 661
f 660 557 548
f 660 548 655
f 559 662 657
f 559 657 550
f 658 657 663
f 663 657 662
f 664 561 659
f 659 561 552
f 563 664 555
f 555 664 659
f 660 661 665
f 665 661 666
f 665 565 557
f 665 557 660
f 566 667 662
f 566 662 559
f 663 662 668
f 662 669 668
f 662 667 669
f 668 664 670
f 664 668 561
f 669 561 668
f 561 669 568
f 671 568 669
f 670 664 672
f 563 672 664
f 672 563 673
f 568 673 563
f 673 568 671
f 672 673 666
f 673 665 666
f 673 674 665
f 674 569 565
f 674 565 665
f 570 667 566
f 667 570 572
f 675 667 572
f 669 667 675
f 669 676 671
f 669 675 676
f 671 677 673
f 671 676 677
f 677 575 576
f 674 677 576
f 673 677 674
f 674 576 569
f 578 678 675
f 578 675 572
f 675 679 676
f 675 678 679
f 676 680 677
f 676 679 680
f 680 581 575
f 680 575 677
f 583 681 678
f 583 678 578
f 678 682 679
f 678 681 682
f 679 683 680
f 679 682 683
f 683 586 581
f 683 581 680
f 588 684 681
f 588 681 583
f 681 685 682
f 681 684 685
f 682 686 683
f 682 685 686
f 686 591 586
f 686 586 683
f 593 687 684
f 593 684 588
f 684 688 685
f 684 687 688
f 685 689 686
f 685 688 689
f 689 596 591
f 689 591 686
f 598 690 687
f 598 687 593
f 687 691 688
f 687 690 691
f 688 692 689
f 688 691 692
f 692 601 596
f 692 596 689
f 603 693 690
f 603 690 598
f 690 694 691
f 690 693 694
f 691 695 692
f 691 694 695
f 695 606 601
f 695 601 692
f 608 696 693
f 608 693 603
f 693 697 694
f 693 696 697
f 694 698 695
f 694 697 698
f 698 611 606
f 698 606 695
f 613 699 696
f 613 696 608
f 696 700 697
f 696 699 700
f 697 701 698
f 697 700 701
f 701 616 611
f 701 611 698
f 618 702 699
f 618 699 613
f 699 703 700
f 699 702 703
f 700 704 701
f 700 703 704
f 704 621 616
f 704 616 701
f 623 705 702
f 623 702 618
f 702 706 703
f 702 705 706
f 703 707 704
f 703 706 707
f 707 626 621
f 707 621 704
f 628 708 705
f 628 705 623
f 705 709 706
f 705 708 709
f 706 710 707
f 706 709 710
f 710 631 626
f 710 626 707
f 633 711 708
f 633 708 628
f 708 712 709
f 708 711 712
f 709 713 710
f 709 712 713
f 713 636 631
f 713 631 710
f 638 714 711
f 638 711 633
f 711 715 712
f 711 714 715
f 712 716 713
f 712 715 716
f 716 641 636
f 716 636 713
f 642 714 638
f 714 642 644
f 717 714 644
f 715 714 717
f 717 648 647
f 716 717 647
f 715 717 716
f 716 647 641
f 649 717 644
f 717 649 648
f 651 718 652
f 719 653 652
f 719 652 718
f 720 654 653
f 720 653 719
f 720 656 654
f 658 721 718
f 658 718 651
f 718 722 719
f 718 721 722
f 719 723 720
f 719 722 723
f 723 661 656
f 723 656 720
f 663 724 721
f 663 721 658
f 721 725 722
f 721 724 725
f 722 726 723
f 722 725 726
f 726 666 661
f 726 661 723
f 668 724 663
f 724 668 670
f 724 670 725
f 725 670 672
f 725 672 726
f 726 672 666

