# https://github.com/mikedh/trimesh
v -0.05602469 -0.00730754 -0.00302525
v -0.05463153 -0.00963775 -0.00360082
v -0.05520710 -0.00730754 -0.00499399
v -0.05405595 -0.00730754 -0.00220766
v -0.05640786 -0.00202113 -0.00352281
v -0.05470954 -0.00202113 -0.00537716
v -0.05455351 -0.00202113 -0.00182449
v -0.05640786 0.00481396 -0.00367884
v -0.05455351 0.00481396 -0.00537716
v -0.05470954 0.00481396 -0.00182449
v -0.05602469 0.01010037 -0.00417640
v -0.05405595 0.01010037 -0.00499399
v -0.05520710 0.01010037 -0.00220766
v -0.05463153 0.01243059 -0.00360082
v -0.05082150 -0.02419119 -0.00305875
v -0.04872107 -0.02824381 -0.00408575
v -0.04873816 -0.02506162 -0.00584247
v -0.04787896 -0.02661573 -0.00128859
v -0.05096378 -0.01896131 -0.00362091
v -0.04811002 -0.01924514 -0.00570206
v -0.04850181 -0.01958941 -0.00150763
v -0.05037436 -0.01377560 -0.00416167
v -0.04840583 -0.01372470 -0.00499385
v -0.04952687 -0.01379454 -0.00221331
v -0.05323836 -0.00730754 -0.00417640
v -0.04892360 -0.01140157 -0.00360163
v -0.05285519 -0.00202113 -0.00367884
v -0.05285519 0.00481396 -0.00352281
v -0.05323836 0.01010037 -0.00302525
v -0.04952540 0.01659585 -0.00499483
v -0.05035480 0.01655935 -0.00303140
v -0.04894317 0.01418501 -0.00360082
v -0.04835341 0.01653314 -0.00220681
v -0.05087089 0.02178829 -0.00355990
v -0.04838564 0.02250149 -0.00572016
v -0.04782892 0.02215433 -0.00148149
v -0.05063213 0.02716386 -0.00412238
v -0.04745744 0.02980201 -0.00588252
v -0.04840428 0.02810043 -0.00134657
v -0.04830770 0.03151235 -0.00312124
v -0.04591181 -0.03090614 -0.00312275
v -0.04234981 -0.03427432 -0.00407230
v -0.04348801 -0.03098836 -0.00610420
v -0.04245089 -0.03188923 -0.00108952
v -0.04246618 -0.02586231 -0.00610092
v -0.04335511 -0.02490152 -0.00116228
v -0.04350014 -0.02248781 -0.00414934
v -0.04613965 -0.01843179 -0.00357375
v -0.04755834 -0.01374364 -0.00304549
v -0.04752401 0.01656964 -0.00417025
v -0.04591530 0.02131406 -0.00364174
v -0.04301443 0.02563330 -0.00307926
v -0.04373785 0.02731392 -0.00585507
v -0.04296334 0.02902173 -0.00131912
v -0.04517300 0.03438501 -0.00412867
v -0.04250875 0.03324788 -0.00546759
v -0.04395389 0.03366394 -0.00173405
v -0.04216876 0.03609092 -0.00360082
v -0.03966684 -0.03691332 -0.00311475
v -0.03626442 -0.04031333 -0.00408662
v -0.03725397 -0.03699951 -0.00609971
v -0.03635080 -0.03790372 -0.00110179
v -0.03625775 -0.03180338 -0.00610637
v -0.03717050 -0.03087222 -0.00109076
v -0.03721014 -0.02851085 -0.00408930
v -0.03991568 -0.02595156 -0.00311714
v -0.04061682 0.02996139 -0.00408041
v -0.04064045 0.03379192 -0.00307298
v -0.03622466 0.04114340 -0.00544896
v -0.03869801 0.03952023 -0.00360864
v -0.03633682 0.03799852 -0.00411851
v -0.03579046 0.03983989 -0.00175993
v -0.03695132 0.04237252 -0.00306970
v -0.03362158 -0.04299631 -0.00312939
v -0.03024283 -0.04656042 -0.00407994
v -0.03123377 -0.04310041 -0.00611413
v -0.03032882 -0.04413229 -0.00109544
v -0.03021551 -0.03781947 -0.00611223
v -0.03115089 -0.03690488 -0.00109500
v -0.03119396 -0.03445310 -0.00408024
v -0.03380535 -0.03184423 -0.00312122
v -0.03243885 0.03790741 -0.00313401
v -0.03151914 0.04016270 -0.00588359
v -0.02983840 0.04095723 -0.00126584
v -0.03408291 0.04538994 -0.00406564
v -0.03054170 0.04663280 -0.00611546
v -0.03158192 0.04552537 -0.00111708
v -0.03038791 0.04920388 -0.00314667
v -0.02757788 -0.04937221 -0.00311112
v -0.02369710 -0.05149241 -0.00412441
v -0.02601732 -0.04854512 -0.00591639
v -0.02453945 -0.04937761 -0.00133751
v -0.02436113 -0.04401193 -0.00605798
v -0.02525651 -0.04309872 -0.00109769
v -0.02528844 -0.04056033 -0.00408902
v -0.02785114 -0.03785595 -0.00311132
v -0.02764778 -0.02477835 -0.00199464
v -0.02404323 -0.02887485 -0.00328200
v -0.02469118 -0.02524462 -0.00617615
v -0.02739802 -0.02416034 0.00280255
v -0.02554035 -0.02746307 0.00129097
v -0.02410510 -0.02553282 0.00447250
v -0.02742689 -0.02044692 -0.00402319
v -0.02374780 -0.02064534 -0.00565984
v -0.02764526 -0.01980114 0.00069686
v -0.02387305 -0.01986135 0.00499437
v -0.02585968 -0.01767634 -0.00251816
v -0.02412756 -0.01714211 0.00116906
v -0.02732797 -0.00712905 -0.00234411
v -0.02434505 -0.01071141 -0.00428299
v -0.02450036 -0.00736781 -0.00643075
v -0.02778172 -0.00699370 0.00384300
v -0.02525982 -0.01076348 0.00077527
v -0.02715665 -0.00640222 0.00890600
v -0.02531997 -0.01032295 0.00697859
v -0.02365211 -0.00875292 0.01105916
v -0.02771658 -0.00171506 -0.00355985
v -0.02442163 -0.00169472 -0.00688011
v -0.02846630 -0.00174935 0.00230585
v -0.02768450 -0.00160392 0.00812505
v -0.02447716 -0.00291684 0.01144859
v -0.02758803 0.00435471 -0.00355108
v -0.02409399 0.00391904 -0.00628493
v -0.02840090 0.00433039 0.00231134
v -0.02758675 0.00448967 0.00813814
v -0.02449830 0.00404814 0.01092005
v -0.02760321 0.01033771 -0.00342620
v -0.02517772 0.01013422 -0.00594467
v -0.02840884 0.01041957 0.00247923
v -0.02756785 0.01048682 0.00833495
v -0.02510989 0.01063141 0.01075397
v -0.02769682 0.01633670 -0.00345749
v -0.02462660 0.01674522 -0.00618763
v -0.02845921 0.01652310 0.00242166
v -0.02766866 0.01645115 0.00835384
v -0.02421100 0.01684218 0.01107731
v -0.02710681 0.02113781 -0.00420081
v -0.02381569 0.02344202 -0.00632114
v -0.02776891 0.02182733 0.00090708
v -0.02735638 0.02183864 0.00716664
v -0.02454665 0.02215780 0.01120501
v -0.02535100 0.02513327 -0.00222324
v -0.02530933 0.02558356 0.00401257
v -0.02445729 0.02553889 0.00908858
v -0.02821251 0.04014072 -0.00406396
v -0.02540969 0.04306981 -0.00310034
v -0.02538574 0.04560695 -0.00611521
v -0.02449285 0.04668238 -0.00112163
v -0.02760207 0.05211910 -0.00411198
v -0.02456713 0.05210036 -0.00588403
v -0.02610344 0.05128941 -0.00127024
v -0.02370281 0.05429430 -0.00307813
v -0.01886706 -0.05159680 -0.00364572
v -0.01943207 -0.04908884 -0.00568529
v -0.01908551 -0.04880374 -0.00150817
v -0.01833495 -0.04678435 -0.00356264
v -0.02199446 -0.04412763 -0.00307055
v -0.02168854 -0.04306009 0.00998761
v -0.01729565 -0.04622222 0.00872315
v -0.01944062 -0.04263177 0.00599835
v -0.02137415 -0.04236766 0.01482239
v -0.01929989 -0.04583982 0.01329547
v -0.01786819 -0.04385950 0.01682328
v -0.02145430 -0.03871496 0.00799041
v -0.01728266 -0.03726842 0.00480231
v -0.02172700 -0.03796418 0.01292555
v -0.01861692 -0.03909555 0.01724734
v -0.02085115 -0.03157129 -0.00326744
v -0.01725401 -0.03360674 -0.00383558
v -0.02031714 -0.03052526 -0.00625821
v -0.01817928 -0.03223370 -0.00051866
v -0.01781885 -0.03435890 0.00857628
v -0.01810079 -0.03529057 0.01508850
v -0.01813356 -0.02493344 -0.00675255
v -0.02100746 -0.02905355 0.00137401
v -0.01873503 -0.02570198 0.00493554
v -0.01956105 -0.02111927 -0.00435579
v -0.02240601 -0.01863132 -0.00282726
v -0.01974571 -0.01828479 -0.00133871
v -0.01739619 -0.02010286 0.00642251
v -0.01915481 -0.01301664 -0.00645056
v -0.02193251 -0.01319052 -0.00267409
v -0.01832036 -0.01655601 -0.00347115
v -0.02223750 -0.01464850 0.00311053
v -0.01964063 -0.01611305 0.00792076
v -0.02202399 -0.01280505 0.00900882
v -0.01838896 -0.01285200 0.01108805
v -0.01848130 -0.00795542 -0.00692209
v -0.01874568 -0.00694651 0.01160911
v -0.01944148 -0.00202785 -0.00636773
v -0.02027474 -0.00025684 0.01105778
v -0.01950367 0.00122894 -0.00432623
v -0.02182985 0.00542706 -0.00288637
v -0.01851716 0.00135671 0.00071370
v -0.02096726 0.00518487 0.00402225
v -0.01859757 0.00120433 0.00691571
v -0.02135740 0.00430762 0.00906356
v -0.02273183 0.01150054 -0.00352528
v -0.02189425 0.01033816 0.00237279
v -0.02264560 0.00918281 0.00828705
v -0.02157650 0.01646994 -0.00422864
v -0.02113589 0.01551777 0.00082638
v -0.02195496 0.01527030 0.00768102
v -0.01890235 0.01956938 -0.00220337
v -0.01966120 0.02193980 -0.00646965
v -0.01888176 0.01937463 0.00400098
v -0.01976939 0.01951920 0.00907893
v -0.01862943 0.02309173 0.01123631
v -0.02214622 0.02765560 -0.00424448
v -0.01847691 0.02880883 -0.00653596
v -0.02218180 0.02845525 0.00085933
v -0.02178450 0.02856518 0.00704783
v -0.01939889 0.02794429 0.01125443
v -0.01912112 0.03119878 -0.00231611
v -0.01909776 0.03161744 0.00386095
v -0.01828912 0.03164619 0.00893787
v -0.02205451 0.04684205 -0.00412369
v -0.01821274 0.04958827 -0.00364665
v -0.01896884 0.05159033 -0.00568195
v -0.01932864 0.05186511 -0.00152630
v -0.01872444 0.05437867 -0.00354378
v -0.01285828 -0.05134363 -0.00361505
v -0.01287277 -0.04953352 -0.00537354
v -0.01281810 -0.04957010 -0.00182343
v -0.01283258 -0.04775998 -0.00358192
v -0.01237400 -0.04609176 0.00940589
v -0.01452730 -0.04328966 0.00572694
v -0.01440859 -0.04623690 0.01393500
v -0.01337622 -0.04200542 0.01719064
v -0.01305114 -0.03827038 0.00592240
v -0.01418461 -0.03720841 0.01712282
v -0.01146951 -0.03436936 -0.00342508
v -0.01446639 -0.03129375 -0.00660784
v -0.01696756 -0.03172745 0.00341022
v -0.01347689 -0.03404095 0.00254207
v -0.01523057 -0.03469115 0.00533391
v -0.01313812 -0.03495320 0.00870376
v -0.01449375 -0.03100720 0.00532903
v -0.01251720 -0.03412269 0.01312375
v -0.01198653 -0.02663004 -0.00736062
v -0.01345403 -0.02533632 0.00625097
v -0.01685672 -0.02044358 -0.00443551
v -0.01307576 -0.02010561 -0.00637123
v -0.01173318 -0.02007933 0.00587576
v -0.01327722 -0.01401243 -0.00630855
v -0.01437723 -0.01620210 0.00889806
v -0.01389949 -0.01211767 0.01068613
v -0.01330481 -0.01064911 -0.00428079
v -0.01549237 -0.00630974 -0.00279550
v -0.01238375 -0.01053108 0.00083061
v -0.01472637 -0.00677553 0.00405969
v -0.01236890 -0.01091561 0.00700317
v -0.01505039 -0.00790342 0.00909847
v -0.01680204 -0.00164204 -0.00281260
v -0.01618642 -0.00225371 0.00238773
v -0.01669139 -0.00321867 0.00822337
v -0.01597226 0.02307554 -0.00426635
v -0.01584731 0.02231649 0.00077543
v -0.01619716 0.02238375 0.00693645
v -0.01169524 0.02518390 -0.00293058
v -0.01411847 0.02730386 -0.00676424
v -0.01206675 0.02447898 0.00380199
v -0.01310821 0.02492637 0.00886301
v -0.01274706 0.02775359 0.01138258
v -0.01612321 0.03389847 -0.00431942
v -0.01220131 0.03345923 -0.00655766
v -0.01624071 0.03475747 0.00072051
v -0.01583520 0.03482205 0.00689298
v -0.01329229 0.03286188 0.01114131
v -0.01253061 0.03679334 -0.00237175
v -0.01254323 0.03724585 0.00375898
v -0.01192605 0.03661884 0.00880398
v -0.01226245 0.05054148 -0.00355489
v -0.01224741 0.05230164 -0.00539151
v -0.01230242 0.05239144 -0.00181487
v -0.01228737 0.05415160 -0.00365149
v -0.00689689 -0.05117501 -0.00361610
v -0.00688172 -0.04935139 -0.00538315
v -0.00689804 -0.04941277 -0.00181821
v -0.00688287 -0.04758915 -0.00358527
v -0.01032835 -0.04217343 0.00888245
v -0.01047151 -0.04409279 0.01343228
v -0.01024220 -0.03749838 0.00924598
v -0.00957436 -0.03774971 0.01350159
v -0.00533940 -0.03442976 -0.00334891
v -0.00837664 -0.03122468 -0.00658097
v -0.00759221 -0.03501882 0.00135575
v -0.00995643 -0.03080608 0.00899589
v -0.00707524 -0.03408275 0.00819412
v -0.00980546 -0.03474636 0.01104646
v -0.00720223 -0.03123613 0.01141018
v -0.00626622 -0.02565675 -0.00680279
v -0.00946408 -0.02450775 0.00750736
v -0.00726033 -0.02632399 0.01020100
v -0.00650782 -0.02209891 -0.00348764
v -0.00954049 -0.01831215 -0.00284424
v -0.00770718 -0.02171403 0.00249136
v -0.00947198 -0.01827310 0.00276880
v -0.00562008 -0.02355977 0.00720739
v -0.01066227 -0.01365962 -0.00277802
v -0.01004975 -0.01432557 0.00235523
v -0.01084045 -0.01502138 0.00733516
v -0.00559565 0.02568119 -0.00345304
v -0.00854538 0.02904401 -0.00673550
v -0.00675449 0.02495180 0.00231447
v -0.00803936 0.02592210 0.00807126
v -0.00660580 0.02908115 0.01133035
v -0.00565551 0.03394127 -0.00668625
v -0.00688322 0.03394094 0.01135670
v -0.00707267 0.03719249 -0.00336150
v -0.00714955 0.03797052 0.00237808
v -0.00710741 0.03717965 0.00808130
v -0.00714607 0.05077241 -0.00304321
v -0.00716435 0.05164412 -0.00499899
v -0.00714512 0.05272243 -0.00220307
v -0.00716340 0.05359414 -0.00415885
v -0.00094881 -0.05109245 -0.00360212
v -0.00094632 -0.04930385 -0.00538504
v -0.00094710 -0.04930845 -0.00181682
v -0.00094462 -0.04751985 -0.00359975
v 0.00068765 -0.03450406 -0.00324908
v -0.00233976 -0.03124058 -0.00663353
v -0.00212233 -0.03434571 0.00267937
v -0.00360939 -0.03138850 0.00799628
v -0.00005434 -0.03084018 0.00568090
v 0.00041145 -0.02637597 -0.00663703
v -0.00417551 -0.02691835 0.00889914
v -0.00038898 -0.02627599 0.00662852
v -0.00095315 -0.02315671 -0.00335014
v -0.00139215 -0.02287832 0.00323645
v 0.00035099 0.02563865 -0.00333009
v -0.00263133 0.02895273 -0.00672594
v -0.00076846 0.02475797 0.00236557
v -0.00201110 0.02568895 0.00803509
v -0.00050981 0.02893790 0.01145619
v 0.00035864 0.03385791 -0.00667480
v -0.00077661 0.03386421 0.01144682
v -0.00093232 0.03717706 -0.00336288
v -0.00091443 0.03795286 0.00235987
v -0.00089962 0.03712846 0.00811643
v -0.00484450 0.05209189 -0.00360045
v 0.00003198 0.05825865 -0.00547052
v -0.00281125 0.05860267 -0.00360082
v -0.00110032 0.05559636 -0.00412985
v -0.00038408 0.05682060 -0.00173112
v -0.00050728 0.06013263 -0.00307180
v 0.00500798 -0.05108719 -0.00359990
v 0.00500797 -0.04930986 -0.00537917
v 0.00500772 -0.04930841 -0.00182248
v 0.00500772 -0.04753108 -0.00360176
v 0.00538108 -0.03399082 -0.00273637
v 0.00421475 -0.03079440 -0.00637989
v 0.00360617 -0.03403805 0.00158794
v 0.00488551 -0.03076347 0.00483563
v 0.00602767 -0.02453235 -0.00662942
v 0.00526309 -0.02805804 0.00781456
v 0.00221081 -0.02514422 0.00796430
v 0.00653404 -0.02544328 0.01069649
v 0.00427055 -0.02246938 -0.00335598
v 0.00421033 -0.02164801 0.00242716
v 0.00477058 -0.02254844 0.00821582
v 0.00631042 0.02586377 -0.00337718
v 0.00339144 0.02899084 -0.00665250
v 0.00515846 0.02489734 0.00241432
v 0.00399051 0.02561051 0.00820808
v 0.00540160 0.02896425 0.01149483
v 0.00603581 0.03316590 -0.00627296
v 0.00488104 0.03386794 0.01111312
v 0.00379649 0.03648348 -0.00419674
v 0.00439514 0.03714061 0.00083839
v 0.00450911 0.03669231 0.00702234
v 0.00176537 0.05245866 -0.00311636
v 0.00593545 0.05012033 -0.00410312
v 0.00340752 0.05329577 -0.00588409
v 0.00502969 0.05237581 -0.00132890
v 0.00581623 0.05702134 -0.00587275
v 0.00418811 0.05782367 -0.00131756
v 0.00331618 0.06015759 -0.00408528
v 0.01112522 -0.05107614 -0.00361412
v 0.01112525 -0.04929953 -0.00536411
v 0.01112517 -0.04932622 -0.00183753
v 0.01112520 -0.04754962 -0.00358752
v 0.00829010 -0.03123987 -0.00409020
v 0.00803215 -0.03211694 0.00051221
v 0.01128972 -0.02849276 -0.00216610
v 0.01041308 -0.02601348 -0.00641732
v 0.01024083 -0.02891260 0.00412416
v 0.00964819 -0.02763824 0.00906732
v 0.01190741 -0.02436875 0.01116248
v 0.00791493 -0.02023473 -0.00409882
v 0.01148702 -0.01912442 -0.00641600
v 0.00792810 -0.01938627 0.00094645
v 0.00823564 -0.01943870 0.00712410
v 0.01042767 -0.02025886 0.01137492
v 0.01084358 -0.01668093 -0.00216449
v 0.01089280 -0.01633184 0.00400438
v 0.01159318 -0.01646823 0.00908726
v 0.01124513 0.02490222 -0.00416370
v 0.01088677 0.02846864 -0.00630819
v 0.01030286 0.02440449 0.00090750
v 0.01000895 0.02510549 0.00768172
v 0.01117007 0.02839169 0.01111909
v 0.01142288 0.03197417 -0.00344766
v 0.00774495 0.03470958 -0.00216101
v 0.01181310 0.03235168 0.00237051
v 0.00815765 0.03468352 0.00403823
v 0.01178516 0.03157230 0.00820693
v 0.00813980 0.03375455 0.00903718
v 0.01106181 0.04993645 -0.00363813
v 0.01039174 0.05245845 -0.00569468
v 0.01074113 0.05288677 -0.00150697
v 0.01154012 0.05484046 -0.00356351
v 0.00746696 0.05777185 -0.00309852
v 0.01752445 -0.05110903 -0.00353605
v 0.01752445 -0.04937763 -0.00539700
v 0.01752445 -0.04924809 -0.00180465
v 0.01752445 -0.04751669 -0.00366559
v 0.01414220 -0.02481366 -0.00423867
v 0.01425653 -0.02570220 0.00083728
v 0.01367567 -0.02582501 0.00704329
v 0.01839860 -0.02270055 -0.00284261
v 0.01592726 -0.02065335 -0.00669671
v 0.01714081 -0.02358987 0.00328093
v 0.01700255 -0.02269192 0.00822990
v 0.01715651 -0.01898484 0.01132533
v 0.01380862 -0.01406506 -0.00417171
v 0.01795918 -0.01360443 -0.00660570
v 0.01373101 -0.01328208 0.00087648
v 0.01412078 -0.01334298 0.00704134
v 0.01640668 -0.01406251 0.01130607
v 0.01672091 -0.01059983 -0.00226923
v 0.01674741 -0.01030044 0.00386258
v 0.01757833 -0.01042621 0.00896531
v 0.01419655 0.02224441 -0.00224021
v 0.01762501 0.01927433 -0.00425323
v 0.01659147 0.02300917 -0.00649962
v 0.01400420 0.02215877 0.00396044
v 0.01684739 0.01913899 0.00085230
v 0.01411913 0.02302448 0.00901077
v 0.01691246 0.01948778 0.00702036
v 0.01762740 0.02195148 0.01128276
v 0.01812289 0.02715946 -0.00631779
v 0.01668160 0.02778194 0.01110401
v 0.01579560 0.03034495 -0.00420240
v 0.01639526 0.03095061 0.00082135
v 0.01638378 0.03052747 0.00701540
v 0.01754434 0.05008394 -0.00354315
v 0.01751599 0.05182721 -0.00539210
v 0.01756407 0.05196094 -0.00180955
v 0.01753572 0.05370421 -0.00365849
v 0.02265610 -0.05071152 -0.00302413
v 0.02265610 -0.04988946 -0.00499958
v 0.02265610 -0.04873607 -0.00220206
v 0.02265610 -0.04791401 -0.00417752
v 0.02333700 -0.02161509 -0.00286990
v 0.02226271 -0.01855585 -0.00649053
v 0.02134643 -0.02185405 0.00277963
v 0.02045823 -0.02006914 0.00806626
v 0.02314166 -0.01974020 0.00556672
v 0.02308081 -0.01352260 -0.00753595
v 0.02342463 -0.01729814 0.00784244
v 0.02325832 -0.01283049 0.01123427
v 0.01983901 -0.00812696 -0.00426740
v 0.02412776 -0.00781332 -0.00668475
v 0.01971652 -0.00738678 0.00074001
v 0.02013874 -0.00747609 0.00693058
v 0.02259045 -0.00801871 0.01123314
v 0.02282891 -0.00481250 -0.00238399
v 0.02280285 -0.00457152 0.00378793
v 0.02373873 -0.00457134 0.00889991
v 0.02018681 0.01621660 -0.00221994
v 0.02378947 0.01329054 -0.00423729
v 0.02268180 0.01685247 -0.00655460
v 0.01977803 0.01621422 0.00400368
v 0.02287375 0.01334648 0.00091509
v 0.01991909 0.01700622 0.00907899
v 0.02288037 0.01368544 0.00714980
v 0.02366117 0.01608909 0.01136821
v 0.02347536 0.02179194 -0.00654983
v 0.02250063 0.02278836 0.01133390
v 0.02232612 0.02557135 -0.00425174
v 0.01980369 0.02867255 -0.00221957
v 0.02314019 0.02562901 0.00086367
v 0.02019144 0.02864984 0.00399893
v 0.02319223 0.02519218 0.00707236
v 0.02009996 0.02776899 0.00908015
v 0.02267071 0.05060805 -0.00304258
v 0.02268927 0.05148010 -0.00499866
v 0.02266667 0.05256025 -0.00220299
v 0.02268523 0.05343231 -0.00415906
v 0.02498303 -0.04931277 -0.00360082
v 0.02938921 -0.04239089 -0.00544475
v 0.02692416 -0.04398935 -0.00360834
v 0.02928511 -0.04551005 -0.00411666
v 0.02980690 -0.04369157 -0.00176688
v 0.02864290 -0.04115986 -0.00307558
v 0.02646274 -0.01922779 -0.00431196
v 0.02572926 -0.01964494 0.00126180
v 0.02950905 -0.01670528 -0.00234175
v 0.02753210 -0.01419002 -0.00654316
v 0.02828968 -0.01615284 0.00340640
v 0.02661982 -0.01402048 0.00793967
v 0.02974779 -0.01281582 0.00600944
v 0.02930014 -0.00868843 -0.00655170
v 0.02838415 -0.01087051 0.00938795
v 0.02841829 -0.00704305 0.01108685
v 0.02561779 -0.00114711 -0.00354102
v 0.02852557 -0.00232483 -0.00621735
v 0.02515419 -0.00089116 0.00228120
v 0.02597350 -0.00094088 0.00813686
v 0.02916445 -0.00148418 0.01109765
v 0.02674300 0.00443554 -0.00342665
v 0.02908727 0.00423956 -0.00597501
v 0.02595449 0.00445980 0.00233909
v 0.02674212 0.00436608 0.00813574
v 0.02915956 0.00357631 0.01132005
v 0.02602412 0.00965714 -0.00346658
v 0.02823533 0.01052494 -0.00625959
v 0.02521348 0.00976145 0.00240390
v 0.02567137 0.01003472 0.00828444
v 0.02918841 0.01049356 0.01123053
v 0.02862433 0.01586733 -0.00642375
v 0.02776800 0.01763061 0.01117369
v 0.02858072 0.01933183 -0.00421683
v 0.02585766 0.02250109 -0.00224941
v 0.02940167 0.01948738 0.00088583
v 0.02627220 0.02248846 0.00399180
v 0.02930759 0.01918598 0.00706791
v 0.02619613 0.02171671 0.00908162
v 0.02692416 0.04678218 -0.00359331
v 0.02864290 0.04395269 -0.00412606
v 0.02980690 0.04648440 -0.00543477
v 0.02938921 0.04518372 -0.00175690
v 0.02498803 0.05211308 -0.00360082
v 0.02928511 0.04830288 -0.00308499
v 0.03317240 -0.04560078 -0.00313402
v 0.03412222 -0.04339346 -0.00587092
v 0.03577969 -0.04261130 -0.00128815
v 0.03147299 -0.03821191 -0.00407213
v 0.03507593 -0.03713927 -0.00611551
v 0.03402101 -0.03814029 -0.00113203
v 0.03516265 -0.03462900 -0.00314335
v 0.03143224 -0.01218334 -0.00336120
v 0.03144053 -0.01313194 0.00195217
v 0.03159181 -0.00645281 -0.00344328
v 0.03241033 -0.00782383 0.00229590
v 0.03128626 -0.00869678 0.00735272
v 0.03126419 -0.00098572 -0.00434126
v 0.03293837 -0.00146604 0.00058427
v 0.03242039 -0.00277816 0.00759279
v 0.03222137 0.00505344 -0.00294347
v 0.03491024 0.00352528 0.00033217
v 0.03552384 0.00182055 0.00427291
v 0.03466031 0.00154284 0.00896314
v 0.03359971 0.00515245 0.01087427
v 0.03166344 0.01173534 -0.00342233
v 0.03494220 0.00657589 0.00167558
v 0.03300834 0.01047375 0.00299906
v 0.03551436 0.00721493 0.00677547
v 0.03282741 0.01018178 0.00904233
v 0.03120755 0.01633128 -0.00286816
v 0.03170183 0.01575029 0.00234445
v 0.03121791 0.01481274 0.00828623
v 0.03147299 0.04100475 -0.00312951
v 0.03516265 0.03742183 -0.00405830
v 0.03402101 0.04093312 -0.00606961
v 0.03507593 0.03993210 -0.00108614
v 0.03577969 0.04540413 -0.00591349
v 0.03412222 0.04618630 -0.00133072
v 0.03317240 0.04839361 -0.00406763
v 0.03743382 -0.04339128 -0.00405967
v 0.04036606 -0.04052094 -0.00311736
v 0.04043396 -0.03816045 -0.00611652
v 0.04141692 -0.03707300 -0.00107970
v 0.03793389 -0.03198887 -0.00411806
v 0.04131367 -0.03102792 -0.00607644
v 0.04036427 -0.03192991 -0.00109731
v 0.04137667 -0.02861044 -0.00307742
v 0.03680163 0.00491601 0.00356291
v 0.03689330 0.00416572 0.00742067
v 0.03793389 0.03478170 -0.00308359
v 0.04137667 0.03140327 -0.00412423
v 0.04036427 0.03472275 -0.00610434
v 0.04131367 0.03382075 -0.00112521
v 0.04141692 0.03986583 -0.00612195
v 0.04043396 0.04095328 -0.00108513
v 0.04036606 0.04331377 -0.00408428
v 0.03743382 0.04618411 -0.00314198
v 0.04396916 -0.03696107 -0.00406556
v 0.04666726 -0.03422645 -0.00309708
v 0.04588843 -0.03265574 -0.00590706
v 0.04661605 -0.03118817 -0.00133177
v 0.04385001 -0.02489488 -0.00359789
v 0.04690887 -0.02539994 -0.00593525
v 0.04701708 -0.02540288 -0.00125852
v 0.04505384 -0.02056990 -0.00412139
v 0.04801823 -0.01833904 -0.00586042
v 0.04730370 -0.01976549 -0.00132098
v 0.04724953 -0.01678319 -0.00305274
v 0.04505384 0.02336273 -0.00308026
v 0.04724953 0.01957602 -0.00414891
v 0.04730370 0.02255832 -0.00588067
v 0.04801823 0.02113187 -0.00134123
v 0.04385001 0.02768771 -0.00360376
v 0.04701708 0.02819572 -0.00594313
v 0.04690887 0.02819277 -0.00126640
v 0.04661605 0.03398100 -0.00586987
v 0.04588843 0.03544857 -0.00129459
v 0.04666726 0.03701929 -0.00410456
v 0.04396916 0.03975390 -0.00313609
v 0.04873678 -0.03030112 -0.00411826
v 0.05004166 -0.02590690 -0.00361220
v 0.05270493 -0.02212912 -0.00307497
v 0.05185626 -0.02059499 -0.00587623
v 0.05268412 -0.01911974 -0.00134000
v 0.05000083 -0.01307106 -0.00356104
v 0.05241481 -0.01413296 -0.00570609
v 0.05205513 -0.01380599 -0.00149560
v 0.05115249 -0.00755394 -0.00359250
v 0.05295558 -0.00757514 -0.00537823
v 0.05295377 -0.00752787 -0.00182349
v 0.05102528 -0.00156893 -0.00358671
v 0.05279369 -0.00156325 -0.00538379
v 0.05285000 -0.00158216 -0.00181785
v 0.05102528 0.00436177 -0.00361494
v 0.05285000 0.00437499 -0.00538379
v 0.05279369 0.00435608 -0.00181786
v 0.05115249 0.01034677 -0.00360914
v 0.05295377 0.01032070 -0.00537816
v 0.05295558 0.01036797 -0.00182342
v 0.05000083 0.01586390 -0.00364061
v 0.05205513 0.01659882 -0.00570605
v 0.05241481 0.01692579 -0.00149555
v 0.05268412 0.02191257 -0.00586164
v 0.05185626 0.02338783 -0.00132541
v 0.05270493 0.02492195 -0.00412668
v 0.05004166 0.02869973 -0.00358945
v 0.04873678 0.03309395 -0.00308339
v 0.05484671 -0.01830803 -0.00414839
v 0.05497353 -0.01355818 -0.00364102
v 0.05475685 -0.00754907 -0.00360922
v 0.05461841 -0.00157647 -0.00361493
v 0.05461841 0.00436931 -0.00358671
v 0.05475685 0.01034190 -0.00359243
v 0.05497353 0.01635101 -0.00356063
v 0.05484671 0.02110087 -0.00305326
f 3 2 1
f 4 1 2
f 3 1 5
f 3 5 6
f 1 4 7
f 1 7 5
f 6 5 8
f 6 8 9
f 5 7 10
f 5 10 8
f 9 8 11
f 9 11 12
f 8 10 13
f 8 13 11
f 14 12 11
f 14 11 13
f 17 16 15
f 18 15 16
f 17 15 19
f 17 19 20
f 15 18 21
f 15 21 19
f 20 19 22
f 20 22 23
f 19 21 24
f 19 24 22
f 2 3 25
f 22 26 23
f 22 24 26
f 2 25 4
f 6 27 25
f 6 25 3
f 27 7 4
f 27 4 25
f 9 28 27
f 9 27 6
f 28 10 7
f 28 7 27
f 12 29 28
f 12 28 9
f 29 13 10
f 29 10 28
f 29 12 14
f 32 31 30
f 14 13 29
f 31 32 33
f 30 31 34
f 30 34 35
f 31 33 36
f 31 36 34
f 35 34 37
f 35 37 38
f 34 36 39
f 34 39 37
f 40 38 37
f 40 37 39
f 43 42 41
f 44 41 42
f 43 41 16
f 17 43 16
f 45 43 17
f 18 16 41
f 44 18 41
f 46 18 44
f 20 48 47
f 45 20 47
f 17 20 45
f 46 47 48
f 21 46 48
f 18 46 21
f 23 49 48
f 23 48 20
f 49 24 21
f 49 21 48
f 26 49 23
f 49 26 24
f 30 50 32
f 50 33 32
f 35 51 50
f 35 50 30
f 51 36 33
f 51 33 50
f 53 52 51
f 35 53 51
f 38 53 35
f 36 51 52
f 54 36 52
f 39 36 54
f 38 40 55
f 56 38 55
f 53 38 56
f 57 55 40
f 39 57 40
f 54 57 39
f 58 56 55
f 58 55 57
f 61 60 59
f 62 59 60
f 61 59 42
f 43 61 42
f 63 61 43
f 44 42 59
f 62 44 59
f 64 44 62
f 45 66 65
f 63 45 65
f 43 45 63
f 64 65 66
f 46 64 66
f 44 64 46
f 47 66 45
f 66 47 46
f 53 67 52
f 67 54 52
f 56 68 67
f 56 67 53
f 68 57 54
f 68 54 67
f 68 56 58
f 71 70 69
f 58 57 68
f 70 71 72
f 73 69 70
f 73 70 72
f 76 75 74
f 77 74 75
f 76 74 60
f 61 76 60
f 78 76 61
f 62 60 74
f 77 62 74
f 79 62 77
f 63 81 80
f 78 63 80
f 61 63 78
f 79 80 81
f 64 79 81
f 62 79 64
f 65 81 63
f 81 65 64
f 83 82 71
f 83 71 69
f 72 71 82
f 72 82 84
f 69 73 85
f 86 69 85
f 83 69 86
f 87 85 73
f 72 87 73
f 84 87 72
f 88 86 85
f 88 85 87
f 91 90 89
f 92 89 90
f 91 89 75
f 76 91 75
f 93 91 76
f 77 75 89
f 92 77 89
f 94 77 92
f 78 96 95
f 93 78 95
f 76 78 93
f 94 95 96
f 79 94 96
f 77 94 79
f 80 96 78
f 96 80 79
f 99 98 97
f 101 100 97
f 101 97 98
f 102 100 101
f 99 97 103
f 99 103 104
f 105 97 100
f 103 97 105
f 100 102 106
f 100 106 105
f 107 104 103
f 107 103 105
f 107 105 108
f 108 105 106
f 111 110 109
f 113 112 109
f 113 109 110
f 115 114 112
f 115 112 113
f 116 114 115
f 111 109 117
f 111 117 118
f 119 109 112
f 117 109 119
f 120 112 114
f 119 112 120
f 114 116 121
f 114 121 120
f 118 117 122
f 118 122 123
f 124 117 119
f 122 117 124
f 125 119 120
f 124 119 125
f 120 121 126
f 120 126 125
f 123 122 127
f 123 127 128
f 129 122 124
f 127 122 129
f 130 124 125
f 129 124 130
f 125 126 131
f 125 131 130
f 128 127 132
f 128 132 133
f 134 127 129
f 132 127 134
f 135 129 130
f 134 129 135
f 130 131 136
f 130 136 135
f 133 132 137
f 133 137 138
f 139 132 134
f 137 132 139
f 140 134 135
f 139 134 140
f 135 136 141
f 135 141 140
f 142 138 137
f 142 137 139
f 142 139 143
f 143 139 140
f 143 140 144
f 144 140 141
f 83 145 82
f 145 84 82
f 147 146 145
f 83 147 145
f 86 147 83
f 84 145 146
f 148 84 146
f 87 84 148
f 86 88 149
f 150 86 149
f 147 86 150
f 151 149 88
f 87 151 88
f 148 151 87
f 152 150 149
f 152 149 151
f 154 153 90
f 154 90 91
f 92 90 153
f 92 153 155
f 93 157 156
f 154 93 156
f 91 93 154
f 155 156 157
f 94 155 157
f 92 155 94
f 160 159 158
f 162 161 158
f 162 158 159
f 163 161 162
f 95 157 93
f 157 95 94
f 160 158 164
f 160 164 165
f 166 158 161
f 164 158 166
f 161 163 167
f 161 167 166
f 170 169 168
f 171 168 169
f 172 165 164
f 172 164 166
f 172 166 173
f 173 166 167
f 170 168 98
f 99 170 98
f 174 170 99
f 171 175 168
f 175 98 168
f 175 101 98
f 102 101 175
f 102 175 176
f 104 178 177
f 174 104 177
f 99 104 174
f 178 179 177
f 176 106 102
f 180 106 176
f 178 104 107
f 183 182 181
f 108 178 107
f 178 108 179
f 184 179 108
f 179 184 183
f 182 183 184
f 106 180 185
f 184 106 185
f 186 184 185
f 108 106 184
f 187 186 185
f 181 182 110
f 111 181 110
f 188 181 111
f 110 182 113
f 113 182 184
f 113 184 115
f 115 184 186
f 116 115 186
f 187 116 186
f 189 116 187
f 118 188 111
f 118 190 188
f 189 121 116
f 191 121 189
f 123 193 192
f 190 123 192
f 118 123 190
f 195 194 193
f 193 194 192
f 197 196 195
f 195 196 194
f 191 196 197
f 126 191 197
f 121 191 126
f 128 198 193
f 128 193 123
f 193 199 195
f 193 198 199
f 195 200 197
f 195 199 200
f 200 131 126
f 200 126 197
f 133 201 198
f 133 198 128
f 198 202 199
f 198 201 202
f 199 203 200
f 199 202 203
f 203 136 131
f 203 131 200
f 205 204 201
f 133 205 201
f 138 205 133
f 201 204 202
f 202 204 206
f 202 206 203
f 203 206 207
f 136 203 207
f 208 136 207
f 141 136 208
f 138 142 209
f 210 138 209
f 205 138 210
f 143 211 142
f 142 211 209
f 144 212 143
f 143 212 211
f 213 212 144
f 141 213 144
f 208 213 141
f 214 210 209
f 214 209 211
f 214 211 215
f 215 211 212
f 215 212 216
f 216 212 213
f 147 217 146
f 217 148 146
f 219 218 217
f 147 219 217
f 150 219 147
f 148 217 218
f 220 148 218
f 151 148 220
f 221 219 150
f 221 150 152
f 152 151 220
f 152 220 221
f 223 222 153
f 223 153 154
f 155 153 222
f 155 222 224
f 225 223 154
f 225 154 156
f 156 155 224
f 156 224 225
f 227 226 159
f 227 159 160
f 159 228 162
f 226 228 159
f 163 162 228
f 163 228 229
f 165 227 160
f 165 230 227
f 229 167 163
f 231 167 229
f 233 232 169
f 233 169 170
f 235 234 171
f 169 235 171
f 232 235 169
f 237 236 172
f 236 238 172
f 234 172 238
f 172 234 165
f 235 165 234
f 165 235 236
f 236 230 165
f 237 230 236
f 236 235 238
f 239 172 173
f 239 237 172
f 173 167 231
f 173 231 239
f 174 233 170
f 174 240 233
f 234 175 171
f 176 175 234
f 238 176 234
f 241 176 238
f 174 177 242
f 243 174 242
f 240 174 243
f 179 242 177
f 241 180 176
f 244 180 241
f 243 242 183
f 181 243 183
f 245 243 181
f 183 242 179
f 244 246 180
f 180 246 185
f 187 185 246
f 187 246 247
f 188 249 248
f 245 188 248
f 181 188 245
f 251 250 249
f 249 250 248
f 253 252 251
f 251 252 250
f 247 252 253
f 189 247 253
f 187 247 189
f 190 254 249
f 190 249 188
f 249 255 251
f 249 254 255
f 251 256 253
f 251 255 256
f 256 191 189
f 256 189 253
f 192 254 190
f 254 192 194
f 254 194 255
f 255 194 196
f 255 196 256
f 256 196 191
f 205 257 204
f 258 206 204
f 258 204 257
f 259 207 206
f 259 206 258
f 259 208 207
f 261 260 257
f 205 261 257
f 210 261 205
f 257 260 258
f 258 260 262
f 258 262 259
f 259 262 263
f 208 259 263
f 264 208 263
f 213 208 264
f 210 214 265
f 266 210 265
f 261 210 266
f 215 267 214
f 214 267 265
f 216 268 215
f 215 268 267
f 269 268 216
f 213 269 216
f 264 269 213
f 270 266 265
f 270 265 267
f 270 267 271
f 271 267 268
f 271 268 272
f 272 268 269
f 274 273 218
f 274 218 219
f 220 218 273
f 220 273 275
f 276 274 219
f 276 219 221
f 221 220 275
f 221 275 276
f 278 277 222
f 278 222 223
f 224 222 277
f 224 277 279
f 280 278 223
f 280 223 225
f 225 224 279
f 225 279 280
f 227 281 226
f 282 228 226
f 282 226 281
f 282 229 228
f 230 283 281
f 230 281 227
f 281 284 282
f 281 283 284
f 284 231 229
f 284 229 282
f 286 285 232
f 286 232 233
f 232 287 235
f 285 287 232
f 283 230 237
f 235 288 238
f 288 235 289
f 287 289 235
f 239 290 237
f 239 288 290
f 288 239 291
f 284 291 239
f 291 284 289
f 290 289 284
f 284 283 290
f 290 283 237
f 288 289 290
f 284 239 231
f 240 286 233
f 240 292 286
f 293 241 288
f 288 241 238
f 288 291 294
f 288 294 293
f 243 296 295
f 292 243 295
f 240 243 292
f 298 297 296
f 296 297 295
f 299 297 293
f 297 244 293
f 244 241 293
f 297 298 244
f 299 293 294
f 245 300 296
f 245 296 243
f 296 301 298
f 296 300 301
f 302 246 244
f 298 302 244
f 301 302 298
f 302 247 246
f 248 300 245
f 300 248 250
f 300 250 301
f 301 250 252
f 301 252 302
f 302 252 247
f 304 303 260
f 304 260 261
f 260 305 262
f 303 305 260
f 262 306 263
f 305 306 262
f 264 263 306
f 264 306 307
f 266 304 261
f 266 308 304
f 307 269 264
f 309 269 307
f 310 308 266
f 310 266 270
f 311 270 271
f 311 310 270
f 312 271 272
f 312 311 271
f 272 269 309
f 272 309 312
f 314 313 273
f 314 273 274
f 275 273 313
f 275 313 315
f 316 314 274
f 316 274 276
f 276 275 315
f 276 315 316
f 318 317 277
f 318 277 278
f 279 277 317
f 279 317 319
f 320 318 278
f 320 278 280
f 280 279 319
f 280 319 320
f 322 321 285
f 322 285 286
f 285 323 287
f 321 323 285
f 323 325 324
f 289 323 324
f 287 323 289
f 324 291 289
f 292 322 286
f 292 326 322
f 324 325 327
f 327 325 328
f 327 294 291
f 327 291 324
f 329 326 292
f 329 292 295
f 330 295 297
f 330 329 295
f 299 327 328
f 330 299 328
f 297 299 330
f 327 299 294
f 332 331 303
f 332 303 304
f 303 333 305
f 331 333 303
f 305 334 306
f 333 334 305
f 307 306 334
f 307 334 335
f 308 332 304
f 308 336 332
f 335 309 307
f 337 309 335
f 338 336 308
f 338 308 310
f 339 310 311
f 339 338 310
f 340 311 312
f 340 339 311
f 312 309 337
f 312 337 340
f 314 341 313
f 341 315 313
f 341 314 316
f 344 343 342
f 316 315 341
f 343 344 345
f 346 342 343
f 346 343 345
f 348 347 317
f 348 317 318
f 319 317 347
f 319 347 349
f 350 348 318
f 350 318 320
f 320 319 349
f 320 349 350
f 352 351 321
f 352 321 322
f 321 353 323
f 351 353 321
f 325 323 353
f 325 353 354
f 326 352 322
f 326 355 352
f 357 328 356
f 328 354 356
f 328 325 354
f 358 357 356
f 359 355 326
f 359 326 329
f 360 329 330
f 360 359 329
f 330 328 357
f 361 330 357
f 360 330 361
f 361 357 358
f 363 362 331
f 363 331 332
f 331 364 333
f 362 364 331
f 333 365 334
f 364 365 333
f 335 334 365
f 335 365 366
f 336 363 332
f 336 367 363
f 366 337 335
f 368 337 366
f 369 367 336
f 369 336 338
f 370 338 339
f 370 369 338
f 371 339 340
f 371 370 339
f 340 337 368
f 340 368 371
f 374 373 372
f 375 372 373
f 374 372 344
f 342 374 344
f 376 374 342
f 345 344 372
f 375 345 372
f 377 345 375
f 378 376 342
f 378 342 346
f 346 345 377
f 346 377 378
f 380 379 347
f 380 347 348
f 349 347 379
f 349 379 381
f 382 380 348
f 382 348 350
f 350 349 381
f 350 381 382
f 352 383 351
f 384 353 351
f 384 351 383
f 384 354 353
f 386 385 383
f 352 386 383
f 355 386 352
f 383 385 384
f 384 385 387
f 384 387 354
f 387 356 354
f 387 388 356
f 358 356 388
f 358 388 389
f 355 359 390
f 391 355 390
f 386 355 391
f 360 392 359
f 359 392 390
f 361 393 360
f 360 393 392
f 394 393 361
f 358 394 361
f 389 394 358
f 395 391 390
f 395 390 392
f 395 392 396
f 396 392 393
f 396 393 397
f 397 393 394
f 399 398 362
f 399 362 363
f 362 400 364
f 398 400 362
f 364 401 365
f 400 401 364
f 366 365 401
f 366 401 402
f 367 404 403
f 399 367 403
f 363 367 399
f 406 405 404
f 404 405 403
f 408 407 406
f 406 407 405
f 402 407 408
f 368 402 408
f 366 402 368
f 369 404 367
f 404 369 370
f 404 370 406
f 406 370 371
f 406 371 408
f 408 371 368
f 410 409 373
f 410 373 374
f 375 373 409
f 375 409 411
f 376 413 412
f 410 376 412
f 374 376 410
f 411 412 413
f 377 411 413
f 375 411 377
f 378 413 376
f 413 378 377
f 415 414 379
f 415 379 380
f 381 379 414
f 381 414 416
f 417 415 380
f 417 380 382
f 382 381 416
f 382 416 417
f 386 418 385
f 419 387 385
f 419 385 418
f 420 388 387
f 420 387 419
f 420 389 388
f 422 421 418
f 386 422 418
f 391 422 386
f 418 421 419
f 419 421 423
f 419 423 420
f 420 423 424
f 389 420 424
f 425 389 424
f 394 389 425
f 391 395 426
f 427 391 426
f 422 391 427
f 396 428 395
f 395 428 426
f 397 429 396
f 396 429 428
f 430 429 397
f 394 430 397
f 425 430 394
f 431 427 426
f 431 426 428
f 431 428 432
f 432 428 429
f 432 429 433
f 433 429 430
f 436 435 434
f 438 437 434
f 438 434 435
f 440 439 437
f 440 437 438
f 441 439 440
f 436 434 398
f 399 436 398
f 442 436 399
f 398 434 400
f 400 434 437
f 400 437 401
f 401 437 439
f 402 401 439
f 441 402 439
f 443 402 441
f 444 442 399
f 444 399 403
f 445 403 405
f 445 444 403
f 446 405 407
f 446 445 405
f 407 402 443
f 407 443 446
f 448 447 409
f 448 409 410
f 411 409 447
f 411 447 449
f 450 448 410
f 450 410 412
f 412 411 449
f 412 449 450
f 452 451 414
f 452 414 415
f 416 414 451
f 416 451 453
f 454 452 415
f 454 415 417
f 417 416 453
f 417 453 454
f 456 455 421
f 456 421 422
f 421 457 423
f 455 457 421
f 457 459 458
f 424 457 458
f 423 457 424
f 458 425 424
f 427 456 422
f 427 460 456
f 459 461 458
f 425 458 461
f 462 425 461
f 430 425 462
f 427 431 463
f 464 427 463
f 460 427 464
f 432 465 431
f 431 465 463
f 433 466 432
f 432 466 465
f 467 466 433
f 430 467 433
f 462 467 430
f 468 464 463
f 468 463 465
f 468 465 469
f 469 465 466
f 469 466 470
f 470 466 467
f 473 472 471
f 475 474 471
f 475 471 472
f 477 476 474
f 477 474 475
f 478 476 477
f 473 471 435
f 436 473 435
f 479 473 436
f 435 471 438
f 438 471 474
f 438 474 440
f 440 474 476
f 441 440 476
f 478 441 476
f 480 441 478
f 442 482 481
f 479 442 481
f 436 442 479
f 484 483 482
f 482 483 481
f 486 485 484
f 484 485 483
f 480 485 486
f 443 480 486
f 441 480 443
f 444 482 442
f 482 444 445
f 482 445 484
f 484 445 446
f 484 446 486
f 486 446 443
f 488 487 447
f 488 447 448
f 449 447 487
f 449 487 489
f 490 488 448
f 490 448 450
f 450 449 489
f 450 489 490
f 452 491 451
f 491 453 451
f 491 452 454
f 494 493 492
f 454 453 491
f 493 494 495
f 496 492 493
f 496 493 495
f 456 497 455
f 498 457 455
f 498 455 497
f 498 459 457
f 500 499 497
f 456 500 497
f 460 500 456
f 497 499 498
f 498 499 501
f 501 503 502
f 501 502 461
f 498 501 461
f 459 498 461
f 502 462 461
f 464 500 460
f 464 504 500
f 503 505 502
f 462 502 505
f 506 462 505
f 467 462 506
f 464 468 507
f 508 464 507
f 504 464 508
f 469 509 468
f 468 509 507
f 470 510 469
f 469 510 509
f 511 510 470
f 467 511 470
f 506 511 467
f 508 507 512
f 508 512 513
f 514 507 509
f 512 507 514
f 515 509 510
f 514 509 515
f 510 511 516
f 510 516 515
f 513 512 517
f 513 517 518
f 519 512 514
f 517 512 519
f 520 514 515
f 519 514 520
f 515 516 521
f 515 521 520
f 518 517 472
f 473 518 472
f 522 518 473
f 472 517 475
f 475 517 519
f 475 519 477
f 477 519 520
f 478 477 520
f 521 478 520
f 523 478 521
f 479 525 524
f 522 479 524
f 473 479 522
f 527 526 525
f 525 526 524
f 529 528 527
f 527 528 526
f 523 528 529
f 480 523 529
f 478 523 480
f 481 525 479
f 525 481 483
f 525 483 527
f 527 483 485
f 527 485 529
f 529 485 480
f 532 531 530
f 533 530 531
f 487 488 534
f 530 535 532
f 530 533 535
f 487 534 489
f 490 534 488
f 534 490 489
f 537 536 494
f 537 494 492
f 495 494 536
f 495 536 538
f 492 496 539
f 540 492 539
f 537 492 540
f 541 539 496
f 495 541 496
f 538 541 495
f 542 540 539
f 542 539 541
f 500 543 499
f 544 501 499
f 544 499 543
f 544 503 501
f 504 545 543
f 504 543 500
f 543 546 544
f 543 545 546
f 547 505 503
f 544 547 503
f 546 547 544
f 547 506 505
f 508 548 545
f 508 545 504
f 545 549 546
f 545 548 549
f 546 550 547
f 546 549 550
f 550 511 506
f 550 506 547
f 513 551 548
f 513 548 508
f 553 549 552
f 549 551 552
f 549 548 551
f 549 553 550
f 550 553 554
f 511 550 554
f 555 511 554
f 516 511 555
f 518 556 551
f 518 551 513
f 552 551 557
f 551 558 557
f 551 556 558
f 560 559 558
f 558 559 557
f 555 559 560
f 521 555 560
f 516 555 521
f 522 561 556
f 522 556 518
f 556 562 558
f 556 561 562
f 558 563 560
f 558 562 563
f 563 523 521
f 563 521 560
f 524 561 522
f 561 524 526
f 561 526 562
f 562 526 528
f 562 528 563
f 563 528 523
f 566 565 564
f 567 564 565
f 566 564 531
f 532 566 531
f 568 566 532
f 533 531 564
f 567 533 564
f 569 533 567
f 570 568 532
f 570 532 535
f 535 533 569
f 535 569 570
f 537 571 536
f 571 538 536
f 573 572 571
f 537 573 571
f 540 573 537
f 538 571 572
f 574 538 572
f 541 538 574
f 540 542 575
f 576 540 575
f 573 540 576
f 577 575 542
f 541 577 542
f 574 577 541
f 578 576 575
f 578 575 577
f 552 579 553
f 580 554 553
f 580 553 579
f 580 555 554
f 557 579 552
f 579 557 559
f 579 559 580
f 580 559 555
f 583 582 581
f 584 581 582
f 583 581 565
f 566 583 565
f 585 583 566
f 567 565 581
f 584 567 581
f 586 567 584
f 568 588 587
f 585 568 587
f 566 568 585
f 586 587 588
f 569 586 588
f 567 586 569
f 570 588 568
f 588 570 569
f 573 589 572
f 589 574 572
f 591 590 589
f 573 591 589
f 576 591 573
f 574 589 590
f 592 574 590
f 577 574 592
f 576 578 593
f 594 576 593
f 591 576 594
f 595 593 578
f 577 595 578
f 592 595 577
f 594 593 596
f 594 596 597
f 593 595 598
f 593 598 596
f 599 597 596
f 599 596 598
f 602 601 600
f 603 600 601
f 602 600 604
f 602 604 605
f 600 603 606
f 600 606 604
f 605 604 582
f 583 605 582
f 607 605 583
f 584 582 604
f 606 584 604
f 608 584 606
f 585 610 609
f 607 585 609
f 583 585 607
f 608 609 610
f 586 608 610
f 584 608 586
f 587 610 585
f 610 587 586
f 591 611 590
f 611 592 590
f 594 612 611
f 594 611 591
f 612 595 592
f 612 592 611
f 614 613 612
f 594 614 612
f 597 614 594
f 595 612 613
f 615 595 613
f 598 595 615
f 597 599 616
f 617 597 616
f 614 597 617
f 618 616 599
f 598 618 599
f 615 618 598
f 617 616 619
f 617 619 620
f 616 618 621
f 616 621 619
f 620 619 622
f 620 622 623
f 619 621 624
f 619 624 622
f 623 622 625
f 623 625 626
f 622 624 627
f 622 627 625
f 626 625 628
f 626 628 629
f 625 627 630
f 625 630 628
f 629 628 631
f 629 631 632
f 628 630 633
f 628 633 631
f 632 631 601
f 602 632 601
f 634 632 602
f 603 601 631
f 633 603 631
f 635 603 633
f 605 637 636
f 634 605 636
f 602 605 634
f 635 636 637
f 606 635 637
f 603 635 606
f 607 638 637
f 607 637 605
f 638 608 606
f 638 606 637
f 609 638 607
f 638 609 608
f 614 639 613
f 639 615 613
f 617 640 639
f 617 639 614
f 640 618 615
f 640 615 639
f 620 641 640
f 620 640 617
f 641 621 618
f 641 618 640
f 623 642 641
f 623 641 620
f 642 624 621
f 642 621 641
f 626 643 642
f 626 642 623
f 643 627 624
f 643 624 642
f 629 644 643
f 629 643 626
f 644 630 627
f 644 627 643
f 632 645 644
f 632 644 629
f 645 633 630
f 645 630 644
f 634 646 645
f 634 645 632
f 646 635 633
f 646 633 645
f 636 646 634
f 646 636 635

