# https://github.com/mikedh/trimesh
v -0.05546781 0.00657803 -0.01154687
v -0.05377687 0.00426969 -0.01265035
v -0.05386352 0.00642844 -0.01384592
v -0.05571482 0.00659548 -0.00800745
v -0.05390011 0.00423484 -0.00928808
v -0.05532811 0.00689653 -0.00514971
v -0.05425576 0.00503008 -0.00598852
v -0.05343155 0.00607515 -0.00411957
v -0.05534823 0.00915556 -0.01261703
v -0.05317018 0.00947533 -0.01379154
v -0.05575131 0.00945500 -0.00980202
v -0.05553504 0.00942097 -0.00628226
v -0.05382364 0.00869948 -0.00394490
v -0.05433489 0.01100614 -0.01181497
v -0.05353321 0.01103773 -0.00869292
v -0.05355013 0.01089752 -0.00514882
v -0.05208351 -0.01738349 -0.03165138
v -0.04986105 -0.01889494 -0.03235076
v -0.05093346 -0.01704153 -0.03398286
v -0.05189655 -0.01699889 -0.02886916
v -0.05089661 -0.01883686 -0.02972319
v -0.05010086 -0.01768420 -0.02775358
v -0.05226076 -0.01425908 -0.03238728
v -0.05032103 -0.01438487 -0.03404928
v -0.05221768 -0.01414378 -0.02933149
v -0.05038448 -0.01443691 -0.02769773
v -0.05215651 -0.01077257 -0.03237422
v -0.05068538 -0.01079993 -0.03389042
v -0.05213806 -0.01060067 -0.02934086
v -0.05065715 -0.01056726 -0.02784817
v -0.05210791 -0.00737961 -0.03235086
v -0.05058145 -0.00744320 -0.03389076
v -0.05208185 -0.00718861 -0.02929121
v -0.05055243 -0.00712209 -0.02777473
v -0.05207064 -0.00402836 -0.03234732
v -0.05054490 -0.00409293 -0.03387297
v -0.05206892 -0.00383062 -0.02929358
v -0.05054016 -0.00376907 -0.02776454
v -0.05208862 -0.00059175 -0.03229266
v -0.05057687 -0.00064632 -0.03384027
v -0.05205998 -0.00040731 -0.02926002
v -0.05052484 -0.00037396 -0.02776063
v -0.05208768 0.00299837 -0.03231893
v -0.05054241 0.00294068 -0.03386905
v -0.05208562 0.00314214 -0.02922692
v -0.05054394 0.00312742 -0.02771177
v -0.05224803 0.00244301 -0.01151962
v -0.04972196 0.00125922 -0.01215075
v -0.05137940 0.00331801 -0.01381573
v -0.05193996 0.00271194 -0.00862248
v -0.05073703 0.00144257 -0.00967286
v -0.04964394 0.00247279 -0.00725456
v -0.05169130 0.00583594 -0.03280515
v -0.05027511 0.00585703 -0.03362396
v -0.05182555 0.00632167 -0.02999691
v -0.05080848 0.00598554 -0.02794254
v -0.05068343 0.00616035 -0.01449558
v -0.05151588 0.00422534 -0.00576416
v -0.05054995 0.00652337 -0.00373519
v -0.05082403 0.00749367 -0.03192027
v -0.05027250 0.00753369 -0.02963746
v -0.04996060 0.00894947 -0.01381838
v -0.05171539 0.00993871 -0.00830111
v -0.05070776 0.00972129 -0.01071035
v -0.05023592 0.00881305 -0.00943805
v -0.05027116 0.00989863 -0.00787031
v -0.05056945 0.00941912 -0.00373233
v -0.05169898 0.01082472 -0.01235938
v -0.05050878 0.01101227 -0.00599920
v -0.04647956 -0.01892118 -0.03233831
v -0.04769215 -0.01720113 -0.03396975
v -0.04816908 -0.01902597 -0.02936380
v -0.04745714 -0.01700785 -0.02769910
v -0.04707874 -0.01548553 -0.03233305
v -0.04890867 -0.01339546 -0.03202951
v -0.04681043 -0.01566662 -0.02931952
v -0.04869214 -0.01426934 -0.02885315
v -0.04915985 -0.00991527 -0.03237905
v -0.04924305 -0.01143023 -0.02934321
v -0.04902807 -0.00656180 -0.03235972
v -0.04908073 -0.00801238 -0.02933257
v -0.04901725 -0.00320384 -0.03234789
v -0.04901319 -0.00465792 -0.02929361
v -0.04902016 0.00026408 -0.03235781
v -0.04900888 -0.00128911 -0.02929682
v -0.04901933 0.00388226 -0.03233718
v -0.04899312 0.00220894 -0.02929940
v -0.04647353 0.00101081 -0.01217019
v -0.04805494 0.00288018 -0.01404734
v -0.04808757 0.00107275 -0.00941032
v -0.04629356 0.00304633 -0.00719314
v -0.04941708 0.00671582 -0.03188757
v -0.04925221 0.00563309 -0.02927278
v -0.04683100 0.00614226 -0.01411919
v -0.04800526 0.00452393 -0.00521239
v -0.04729800 0.00726146 -0.00403471
v -0.04873067 0.00648341 0.00198962
v -0.04671939 0.00499021 0.00094089
v -0.04755069 0.00687941 -0.00014860
v -0.04899908 0.00654311 0.00550392
v -0.04674408 0.00421097 0.00418622
v -0.04860723 0.00689593 0.00835432
v -0.04758197 0.00501899 0.00753530
v -0.04677809 0.00611430 0.00938145
v -0.04770103 0.00849111 -0.01181564
v -0.04950073 0.00975836 -0.01263408
v -0.04664554 0.00954722 -0.01009863
v -0.04871582 0.00938664 -0.00953702
v -0.04763753 0.00986018 -0.00422397
v -0.04863367 0.00901168 0.00082970
v -0.04640810 0.00942194 -0.00025803
v -0.04902388 0.00938430 0.00365147
v -0.04874854 0.00942834 0.00719682
v -0.04706906 0.00877068 0.00951569
v -0.04794186 0.01073383 -0.00814927
v -0.04696651 0.01090619 -0.00609098
v -0.04754837 0.01092054 0.00162417
v -0.04678103 0.01106568 0.00469044
v -0.04678228 0.01095563 0.00824145
v -0.04363046 -0.01948409 -0.03280095
v -0.04350887 -0.01769336 -0.03397010
v -0.04455613 -0.01929972 -0.02964543
v -0.04360807 -0.01794294 -0.02767469
v -0.04383793 -0.01588288 -0.03234036
v -0.04376310 -0.01593077 -0.02934055
v -0.04323912 0.00131607 -0.01178517
v -0.04433317 0.00323728 -0.01391918
v -0.04423841 0.00102493 -0.00901734
v -0.04359017 0.00254661 -0.00707829
v -0.04500692 0.00276625 0.00526932
v -0.04314360 0.00159099 0.00395296
v -0.04446176 0.00272628 0.00320146
v -0.04297241 0.00256392 0.00628877
v -0.04323073 0.00621275 -0.01395705
v -0.04561463 0.00639640 -0.00602125
v -0.04409091 0.00567828 -0.00722445
v -0.04390196 0.00404076 0.00089921
v -0.04473351 0.00655599 -0.00041167
v -0.04491953 0.00427898 0.00773043
v -0.04396109 0.00662800 0.00959503
v -0.04370011 0.00766612 -0.01224409
v -0.04372682 0.00810216 -0.00915149
v -0.04544284 0.00931282 -0.00797307
v -0.04579883 0.00908554 -0.00534699
v -0.04288706 0.00941514 -0.00036995
v -0.04496231 0.00997473 0.00503123
v -0.04420252 0.01000545 0.00322846
v -0.04286705 0.00866836 0.00471261
v -0.04347068 0.00936782 0.00656707
v -0.04413562 0.00946287 0.00939616
v -0.04424733 0.01094995 0.00128664
v -0.04479143 0.01078644 0.00734120
v -0.04197955 -0.02107455 -0.03161709
v -0.03952867 -0.02223968 -0.03235036
v -0.04112382 -0.02011683 -0.03407490
v -0.04210384 -0.02055960 -0.02882811
v -0.04043268 -0.02215278 -0.02969891
v -0.04018506 -0.02057839 -0.02758536
v -0.03990013 -0.01804307 -0.03407271
v -0.04051487 -0.01768864 -0.02757263
v -0.04108869 -0.01611989 -0.03280536
v -0.04076664 -0.01595233 -0.03002798
v -0.04184949 0.00306915 -0.01294556
v -0.03996296 0.00296175 -0.01085632
v -0.04083909 0.00137998 -0.00885110
v -0.04209388 0.00299317 -0.00528126
v -0.04036138 0.00134590 -0.00561328
v -0.04150549 0.00333934 -0.00200137
v -0.03987286 0.00110020 -0.00219420
v -0.04265659 0.00222380 0.00147357
v -0.04080590 0.00109990 0.00125100
v -0.04067561 0.00137744 0.00428877
v -0.04023296 0.00284132 0.00587568
v -0.03974350 0.00472693 -0.01242131
v -0.04110110 0.00542689 -0.01358688
v -0.04210800 0.00577797 -0.00571144
v -0.04053375 0.00567540 -0.00365520
v -0.04029812 0.00501839 -0.00225730
v -0.04132057 0.00617802 -0.00097155
v -0.04086464 0.00438138 0.00774770
v -0.04025926 0.00667762 0.00946143
v -0.04038306 0.00751406 -0.01218320
v -0.04017455 0.00818509 -0.00907322
v -0.03988600 0.00755679 -0.00541224
v -0.03976120 0.00901851 -0.00016901
v -0.04140505 0.00975028 0.00253032
v -0.03946451 0.00829504 0.00443397
v -0.04105040 0.00804817 0.00723285
v -0.04246199 0.00920665 0.00834283
v -0.04095592 0.01063240 0.00076659
v -0.03633040 -0.02243728 -0.03234494
v -0.03752797 -0.02052136 -0.03401869
v -0.03786274 -0.02247843 -0.02937062
v -0.03714010 -0.02038763 -0.02766398
v -0.03690270 -0.01873957 -0.03233114
v -0.03888891 -0.01710310 -0.03160815
v -0.03658136 -0.01896927 -0.02928881
v -0.03863559 -0.01766210 -0.02881361
v -0.03893158 0.00263552 -0.00876311
v -0.03836431 0.00259488 -0.00660262
v -0.03723882 0.00231035 -0.00410922
v -0.03717364 0.00133935 -0.00196139
v -0.03791592 0.00122189 0.00140398
v -0.03842530 0.00233817 0.00412533
v -0.03654992 0.00312549 0.00308390
v -0.03853898 0.00324273 0.01145489
v -0.03645583 0.00150527 0.01181314
v -0.03726263 0.00241017 0.00989360
v -0.03849956 0.00326354 0.01522056
v -0.03693267 0.00123190 0.01427053
v -0.03691712 0.00208152 0.01647941
v -0.03866846 0.00660559 -0.01209797
v -0.03747713 0.00573423 -0.01062424
v -0.03706873 0.00449297 -0.00833011
v -0.03644322 0.00393940 -0.00534149
v -0.03904019 0.00696218 -0.00201296
v -0.03688286 0.00428942 0.00553510
v -0.03707080 0.00400886 0.00862518
v -0.03919992 0.00666424 0.01198971
v -0.03907012 0.00619242 0.01482979
v -0.03760008 0.00397339 0.01762767
v -0.03845093 0.00639779 0.01793371
v -0.03661912 0.00650663 0.01921352
v -0.03743486 0.00760742 -0.00967210
v -0.03701431 0.00776543 -0.00635224
v -0.03688463 0.00746627 -0.00292226
v -0.03732783 0.00789296 0.00082856
v -0.03922994 0.00955003 0.00162150
v -0.03639506 0.00757490 0.00463815
v -0.03741237 0.00812696 0.00822806
v -0.03843072 0.00897123 0.01084658
v -0.03656594 0.00959230 0.01018274
v -0.03857840 0.00944600 0.01391805
v -0.03837449 0.00949619 0.01734994
v -0.03747498 0.00912491 0.01918019
v -0.03740898 0.01067622 0.01185654
v -0.03718778 0.01092777 0.01470537
v -0.03695805 0.01071626 0.01760852
v -0.03294773 -0.02234245 -0.03234216
v -0.03383769 -0.02084956 -0.03386141
v -0.03447068 -0.02241622 -0.02931732
v -0.03357755 -0.02090417 -0.02782100
v -0.03381038 -0.01935384 -0.03234837
v -0.03363318 -0.01939247 -0.02933462
v -0.03546412 0.00372975 -0.00229733
v -0.03561175 0.00303880 0.00098729
v -0.03566548 0.00275782 0.01052867
v -0.03327190 0.00294586 0.01285610
v -0.03422372 0.00131213 0.01472658
v -0.03585608 0.00298470 0.01900952
v -0.03390549 0.00127306 0.01791809
v -0.03514684 0.00338284 0.02195041
v -0.03354948 0.00131143 0.02112549
v -0.03348576 0.00227942 0.02323721
v -0.03586861 0.00665276 -0.00827311
v -0.03557175 0.00598844 -0.00517694
v -0.03543491 0.00628288 -0.00164364
v -0.03539567 0.00582554 0.00124232
v -0.03518764 0.00569259 0.00418096
v -0.03380935 0.00604080 0.00637037
v -0.03374263 0.00512432 0.00801037
v -0.03345100 0.00441508 0.01068879
v -0.03555985 0.00664931 0.02103487
v -0.03347706 0.00401910 0.02498839
v -0.03522005 0.00640818 0.02436877
v -0.03357425 0.00621559 0.02658688
v -0.03417630 0.00739429 0.00731125
v -0.03355841 0.00803725 0.01075702
v -0.03554452 0.00992089 0.01213886
v -0.03309164 0.00842473 0.01455413
v -0.03540337 0.00989229 0.01549373
v -0.03387401 0.00809969 0.01831302
v -0.03596298 0.00932490 0.01828017
v -0.03373448 0.00910074 0.02034153
v -0.03515893 0.00947525 0.02150667
v -0.03519765 0.00943247 0.02370285
v -0.03408254 0.00882067 0.02633860
v -0.03380301 0.01080716 0.02220180
v -0.03321248 0.01107497 0.02534782
v -0.02959386 -0.02229642 -0.03234791
v -0.03047475 -0.02078102 -0.03387108
v -0.03106243 -0.02234128 -0.02930258
v -0.03019343 -0.02083163 -0.02777532
v -0.03041473 -0.01928298 -0.03234031
v -0.03024660 -0.01930490 -0.02929249
v -0.03227008 0.00255927 0.01489592
v -0.03180501 0.00257757 0.01698040
v -0.03001808 0.00296190 0.01967467
v -0.03029006 0.00128726 0.02172522
v -0.03222246 0.00259309 0.02478368
v -0.03063936 0.00131002 0.02443446
v -0.03045828 0.00260638 0.02656426
v -0.03252096 0.00654175 0.00854822
v -0.03177301 0.00624009 0.01101146
v -0.03075722 0.00560844 0.01315379
v -0.03041513 0.00449279 0.01532203
v -0.02967945 0.00448970 0.01799058
v -0.03207434 0.00724964 0.02829559
v -0.03043714 0.00437259 0.02831504
v -0.03000306 0.00613017 0.03007324
v -0.03071134 0.00735930 0.01402146
v -0.03004225 0.00762140 0.01765282
v -0.03046128 0.00842425 0.02096563
v -0.03194357 0.00999421 0.02163247
v -0.02990173 0.00944974 0.02317653
v -0.03227966 0.00987613 0.02779680
v -0.03051835 0.00874961 0.02984725
v -0.03085054 0.01107662 0.02447653
v -0.03017995 0.01115698 0.02840940
v -0.02622711 -0.02229814 -0.03234865
v -0.02711740 -0.02077055 -0.03387623
v -0.02768914 -0.02229761 -0.02929306
v -0.02680011 -0.02077179 -0.02776537
v -0.02705476 -0.01924382 -0.03234860
v -0.02685944 -0.01924476 -0.02929322
v -0.02873770 0.00261256 0.02135279
v -0.02666292 0.00300533 0.02302230
v -0.02687084 0.00133558 0.02517827
v -0.02862048 0.00257575 0.02832531
v -0.02753697 0.00143444 0.02747891
v -0.02639169 0.00271975 0.02967028
v -0.02922686 0.00654986 0.01539893
v -0.02853736 0.00629554 0.01784057
v -0.02758616 0.00566376 0.01991079
v -0.02692811 0.00451393 0.02132088
v -0.02857591 0.00724135 0.03185751
v -0.02760961 0.00479338 0.03117562
v -0.02631598 0.00621836 0.03283671
v -0.02705827 0.00742549 0.02123942
v -0.02703540 0.00835753 0.02447227
v -0.02844754 0.00988777 0.02521782
v -0.02649776 0.00936132 0.02681969
v -0.02882541 0.00987558 0.03137330
v -0.02665627 0.00884798 0.03298228
v -0.02741037 0.01103858 0.02804340
v -0.02690316 0.01109840 0.03135543
v -0.02285732 -0.02230073 -0.03234878
v -0.02374765 -0.02077331 -0.03387613
v -0.02431874 -0.02229806 -0.02929391
v -0.02342886 -0.02077083 -0.02776690
v -0.02368671 -0.01924539 -0.03234897
v -0.02349070 -0.01924435 -0.02929442
v -0.02533743 0.00261514 0.02474587
v -0.02389974 0.00233796 0.02599193
v -0.02353217 0.00139073 0.02825180
v -0.02321911 0.00226058 0.03048607
v -0.02529454 0.00653631 0.02186750
v -0.02358664 0.00591772 0.02313025
v -0.02308062 0.00411546 0.02445463
v -0.02452533 0.00415635 0.03178999
v -0.02341879 0.00601881 0.03317177
v -0.02356288 0.00757529 0.02463956
v -0.02415805 0.00846003 0.02748795
v -0.02508046 0.00991296 0.02876596
v -0.02264702 0.00972613 0.02976790
v -0.02369115 0.00943704 0.03307573
v -0.02386960 0.01090662 0.03117117
v -0.01948761 -0.02230076 -0.03234876
v -0.02037771 -0.02077346 -0.03387606
v -0.02094971 -0.02230069 -0.02929418
v -0.02005965 -0.02077338 -0.02776688
v -0.02031656 -0.01924616 -0.03234876
v -0.02012084 -0.01924612 -0.02929417
v -0.01960093 0.00141877 0.02909583
v -0.02038482 0.00313652 0.02673942
v -0.02207476 0.00306926 0.03196662
v -0.02070520 0.00135804 0.03086577
v -0.01996674 0.00295062 0.03280098
v -0.01991147 0.00503875 0.02481485
v -0.02076135 0.00603417 0.02384158
v -0.02009678 0.00598590 0.03379739
v -0.02022793 0.00733981 0.02507997
v -0.02093805 0.00831989 0.02777335
v -0.01947186 0.00972376 0.02986615
v -0.02075658 0.00944443 0.03340432
v -0.02017243 0.01090036 0.03214199
v -0.01611788 -0.02230069 -0.03234876
v -0.01700799 -0.02077339 -0.03387606
v -0.01758003 -0.02230075 -0.02929415
v -0.01668991 -0.02077343 -0.02776685
v -0.01694683 -0.01924609 -0.03234876
v -0.01675107 -0.01924611 -0.02929415
v -0.01854220 0.00264150 0.02827699
v -0.01707978 0.00235960 0.02954922
v -0.01712825 0.00147535 0.03134217
v -0.01647353 0.00281426 0.03340831
v -0.01861194 0.00651670 0.02503686
v -0.01720724 0.00589021 0.02591710
v -0.01635211 0.00417046 0.02747672
v -0.01718024 0.00479449 0.03491443
v -0.01843205 0.00723952 0.03515000
v -0.01622168 0.00610952 0.03618686
v -0.01691962 0.00790936 0.02764252
v -0.01669390 0.00943341 0.03028897
v -0.01867929 0.00987883 0.03464103
v -0.01652266 0.00875326 0.03632794
v -0.01720223 0.01096585 0.03200191
v -0.01681831 0.01103195 0.03470662
v -0.01274816 -0.02230069 -0.03234876
v -0.01363827 -0.02077339 -0.03387606
v -0.01421030 -0.02230069 -0.02929415
v -0.01332019 -0.02077339 -0.02776685
v -0.01357711 -0.01924609 -0.03234876
v -0.01338136 -0.01924609 -0.02929415
v -0.01318392 0.00149190 0.03114972
v -0.01442723 0.00262262 0.02971153
v -0.01261642 0.00246533 0.03337579
v -0.01509854 0.00604358 0.02494321
v -0.01337644 0.00518681 0.02476898
v -0.01289099 0.00659789 0.02359017
v -0.01286928 0.00383764 0.02717811
v -0.01432373 0.00425291 0.03516315
v -0.01351436 0.00656278 0.03656080
v -0.01362339 0.00743622 0.02556947
v -0.01293300 0.00786727 0.02862435
v -0.01409299 0.00847628 0.03077021
v -0.01504530 0.00997479 0.03207480
v -0.01258757 0.00974789 0.03318468
v -0.01353773 0.00942617 0.03656024
v -0.01378731 0.01092264 0.03459587
v -0.00937844 -0.02230069 -0.03234876
v -0.01026855 -0.02077339 -0.03387606
v -0.01084058 -0.02230069 -0.02929415
v -0.00995047 -0.02077339 -0.02776685
v -0.01020739 -0.01924609 -0.03234876
v -0.01001164 -0.01924609 -0.02929415
v -0.01190558 0.00237260 0.02860928
v -0.01014170 0.00163922 0.02906141
v -0.01043254 0.00287187 0.02695646
v -0.01066924 0.00149925 0.03156690
v -0.00970507 0.00271347 0.03283270
v -0.00950872 0.00443936 0.02508090
v -0.01003815 0.00629897 0.02332639
v -0.01035428 0.00427050 0.03480964
v -0.01002948 0.00658252 0.03653569
v -0.00991459 0.00763967 0.02478680
v -0.00990831 0.00795489 0.02813477
v -0.01086902 0.00832090 0.03127780
v -0.00937859 0.00980973 0.03345161
v -0.01014593 0.00938913 0.03653290
v -0.01024645 0.01079970 0.03516879
v -0.00600872 -0.02230069 -0.03234876
v -0.00689883 -0.02077339 -0.03387606
v -0.00747086 -0.02230069 -0.02929415
v -0.00658075 -0.02077339 -0.02776685
v -0.00683767 -0.01924609 -0.03234876
v -0.00664192 -0.01924609 -0.02929415
v -0.00869137 0.00281713 0.02763319
v -0.00840186 0.00249343 0.03045706
v -0.00627791 0.00517527 0.02514023
v -0.00709752 0.00598351 0.02351187
v -0.00672287 0.00430797 0.02828830
v -0.00649411 0.00421791 0.03246919
v -0.00700819 0.00468430 0.03511921
v -0.00659534 0.00645901 0.03646897
v -0.00709005 0.00727691 0.02430777
v -0.00669402 0.00759126 0.02718205
v -0.00720965 0.00796875 0.03093259
v -0.00588664 0.00931467 0.03328415
v -0.00679792 0.00936606 0.03650758
v -0.00690593 0.01087149 0.03513151
v -0.00263900 -0.02230069 -0.03234876
v -0.00352911 -0.02077339 -0.03387606
v -0.00410114 -0.02230069 -0.02929415
v -0.00321103 -0.02077339 -0.02776685
v -0.00346795 -0.01924609 -0.03234876
v -0.00327220 -0.01924609 -0.02929415
v -0.00546825 0.00648926 0.02514263
v -0.00538213 0.00618581 0.02802709
v -0.00539106 0.00633138 0.03115784
v -0.00385187 0.00649541 0.03298998
v -0.00354095 0.00481534 0.03468013
v -0.00325692 0.00637878 0.03647173
v -0.00266690 0.00939821 0.03354310
v -0.00346625 0.00939060 0.03646927
v -0.00353568 0.01090485 0.03501843
v 0.00073072 -0.02230069 -0.03234876
v -0.00015939 -0.02077339 -0.03387606
v -0.00073142 -0.02230069 -0.02929415
v 0.00015869 -0.02077339 -0.02776685
v -0.00009823 -0.01924609 -0.03234876
v 0.00009752 -0.01924609 -0.02929415
v 0.00007497 0.00488243 0.03504711
v -0.00080181 0.00639694 0.03353384
v 0.00006085 0.00638315 0.03651378
v 0.00064784 0.00938486 0.03350042
v -0.00009277 0.00941092 0.03644742
v -0.00017065 0.01088768 0.03492911
v 0.00410044 -0.02230069 -0.03234876
v 0.00321033 -0.02077339 -0.03387606
v 0.00263830 -0.02230069 -0.02929415
v 0.00352841 -0.02077339 -0.02776685
v 0.00327149 -0.01924609 -0.03234876
v 0.00346724 -0.01924609 -0.02929415
v 0.00355796 0.00484762 0.03458141
v 0.00315244 0.00680864 0.03316823
v 0.00345437 0.00646351 0.03655086
v 0.00369801 0.00985240 0.03361814
v 0.00333406 0.00942967 0.03643108
v 0.00320288 0.01087670 0.03492693
v 0.00747016 -0.02230069 -0.03234876
v 0.00658005 -0.02077339 -0.03387606
v 0.00600802 -0.02230069 -0.02929415
v 0.00689813 -0.02077339 -0.02776685
v 0.00664121 -0.01924609 -0.03234876
v 0.00683696 -0.01924609 -0.02929415
v 0.00543012 0.00599806 0.02499655
v 0.00699723 0.00522149 0.02422821
v 0.00699553 0.00651783 0.02348656
v 0.00546090 0.00617854 0.02788612
v 0.00682474 0.00437431 0.02695732
v 0.00510833 0.00605825 0.03126646
v 0.00656582 0.00426304 0.03153225
v 0.00631942 0.00469790 0.03520166
v 0.00687090 0.00655162 0.03654352
v 0.00679135 0.00738032 0.02541208
v 0.00695963 0.00751763 0.02880146
v 0.00639081 0.00760200 0.03146385
v 0.00697362 0.00940134 0.03325217
v 0.00676364 0.00944925 0.03643817
v 0.00659269 0.01084176 0.03500510
v 0.01083988 -0.02230069 -0.03234876
v 0.00994977 -0.02077339 -0.03387606
v 0.00937774 -0.02230069 -0.02929415
v 0.01026785 -0.02077339 -0.02776685
v 0.01001093 -0.01924609 -0.03234876
v 0.01020669 -0.01924609 -0.02929415
v 0.00836975 0.00252284 0.02904167
v 0.01076510 0.00164650 0.02889932
v 0.00939459 0.00283434 0.02695975
v 0.00876023 0.00274411 0.03180685
v 0.00996834 0.00152278 0.03081579
v 0.01104918 0.00248130 0.03313969
v 0.01038678 0.00444699 0.02513585
v 0.00991469 0.00622734 0.02332024
v 0.00930198 0.00427102 0.03464109
v 0.01027789 0.00658727 0.03651479
v 0.01003578 0.00758132 0.02474008
v 0.01008246 0.00797175 0.02801176
v 0.00929303 0.00834292 0.03117014
v 0.01087756 0.00976484 0.03342703
v 0.01018035 0.00940053 0.03649541
v 0.01005168 0.01074585 0.03515447
v 0.01420960 -0.02230069 -0.03234876
v 0.01331949 -0.02077339 -0.03387606
v 0.01274746 -0.02230069 -0.02929415
v 0.01363757 -0.02077339 -0.02776685
v 0.01338065 -0.01924609 -0.03234876
v 0.01357641 -0.01924609 -0.02929415
v 0.01153046 0.00286784 0.02754531
v 0.01330203 0.00234971 0.02944817
v 0.01311138 0.00147307 0.03132614
v 0.01431122 0.00242904 0.03344286
v 0.01419776 0.00515001 0.02531437
v 0.01279241 0.00599751 0.02359430
v 0.01379131 0.00380828 0.02772143
v 0.01279391 0.00423834 0.03518324
v 0.01370384 0.00658223 0.03653862
v 0.01337481 0.00733762 0.02476446
v 0.01316527 0.00795080 0.02752221
v 0.01304112 0.00847574 0.03094303
v 0.01367766 0.00999006 0.03299133
v 0.01358583 0.00940700 0.03654948
v 0.01377699 0.01091088 0.03484281
v 0.01757933 -0.02230075 -0.03234876
v 0.01668921 -0.02077343 -0.03387606
v 0.01611718 -0.02230069 -0.02929415
v 0.01700729 -0.02077339 -0.02776685
v 0.01675037 -0.01924611 -0.03234876
v 0.01694612 -0.01924609 -0.02929416
v 0.01703186 0.00142693 0.03122537
v 0.01591409 0.00259833 0.02980888
v 0.01772454 0.00301855 0.03339492
v 0.01507212 0.00651961 0.02489203
v 0.01710388 0.00587493 0.02610853
v 0.01628269 0.00423946 0.02766183
v 0.01601262 0.00447439 0.03515657
v 0.01667843 0.00724411 0.03630674
v 0.01643641 0.00792857 0.02778549
v 0.01540836 0.00944411 0.03117324
v 0.01779830 0.00972495 0.03010808
v 0.01627644 0.00988447 0.03616509
v 0.01615151 0.01096910 0.03247877
v 0.01743525 0.01106980 0.03428986
v 0.02094900 -0.02230069 -0.03234873
v 0.02005895 -0.02077338 -0.03387603
v 0.01948691 -0.02230076 -0.02929415
v 0.02037701 -0.02077346 -0.02776685
v 0.02012013 -0.01924612 -0.03234874
v 0.02031586 -0.01924616 -0.02929415
v 0.01824207 0.00314892 0.02799821
v 0.02039656 0.00133528 0.02866981
v 0.02019278 0.00310947 0.02636756
v 0.01994423 0.00130661 0.03130437
v 0.02070681 0.00340996 0.03281439
v 0.01907360 0.00540882 0.02516748
v 0.02111197 0.00471838 0.02454623
v 0.02082227 0.00656857 0.02377645
v 0.01821328 0.00584023 0.03488618
v 0.01990473 0.00618228 0.03381094
v 0.01998391 0.00740342 0.02564334
v 0.01972490 0.00841669 0.02815092
v 0.02093751 0.00973193 0.02994801
v 0.01851042 0.00878147 0.03512263
v 0.02049496 0.00944329 0.03359310
v 0.01982223 0.01091083 0.03202106
v 0.02431803 -0.02229806 -0.03234900
v 0.02342815 -0.02077083 -0.03387601
v 0.02285662 -0.02230073 -0.02929413
v 0.02374694 -0.02077331 -0.02776678
v 0.02349000 -0.01924435 -0.03234849
v 0.02368600 -0.01924539 -0.02929394
v 0.02355954 0.00134139 0.02829873
v 0.02257673 0.00257770 0.02623366
v 0.02200185 0.00226446 0.03127070
v 0.02452967 0.00257597 0.03027693
v 0.02323452 0.00414870 0.02462517
v 0.02353842 0.00595340 0.02319561
v 0.02328170 0.00385779 0.03201905
v 0.02328967 0.00626298 0.03312762
v 0.02351298 0.00758557 0.02419313
v 0.02301742 0.00840864 0.02750407
v 0.02372594 0.00992523 0.02958733
v 0.02363200 0.00945467 0.03309955
v 0.02386018 0.01086524 0.03146202
v 0.02768844 -0.02229760 -0.03234985
v 0.02679940 -0.02077179 -0.03387754
v 0.02622641 -0.02229814 -0.02929426
v 0.02711669 -0.02077055 -0.02776668
v 0.02685873 -0.01924476 -0.03234969
v 0.02705405 -0.01924382 -0.02929431
v 0.02492336 0.00314833 0.02457834
v 0.02735232 0.00128759 0.02465824
v 0.02668535 0.00313240 0.02282130
v 0.02679220 0.00140987 0.02790430
v 0.02667646 0.00262463 0.02973615
v 0.02584103 0.00543678 0.02184747
v 0.02687235 0.00449685 0.02130053
v 0.02747076 0.00609027 0.01992629
v 0.02672930 0.00439317 0.03119628
v 0.02670614 0.00726439 0.03298902
v 0.02675525 0.00748562 0.02154306
v 0.02662827 0.00840852 0.02493715
v 0.02544601 0.00939348 0.02787791
v 0.02741758 0.00989371 0.02638880
v 0.02634793 0.00981639 0.03288309
v 0.02675227 0.01101994 0.02872730
v 0.02759348 0.01099420 0.03104958
v 0.03106172 -0.02234129 -0.03234035
v 0.03019272 -0.02083163 -0.03386760
v 0.02959316 -0.02229642 -0.02929500
v 0.03047405 -0.02078102 -0.02777183
v 0.03024589 -0.01930490 -0.03235042
v 0.03041403 -0.01928298 -0.02930260
v 0.02825824 0.00319429 0.02121304
v 0.03077134 0.00122254 0.02129863
v 0.03003158 0.00309901 0.01950864
v 0.03011939 0.00125045 0.02495070
v 0.02869422 0.00258126 0.02826432
v 0.03049478 0.00252968 0.02645208
v 0.02930763 0.00603563 0.01514234
v 0.02998259 0.00484967 0.01481813
v 0.03058854 0.00606822 0.01317668
v 0.02899264 0.00575039 0.01786220
v 0.03010920 0.00424836 0.01700278
v 0.03049743 0.00434112 0.02824828
v 0.02883004 0.00616082 0.03136529
v 0.03047951 0.00718538 0.02988367
v 0.03079641 0.00748606 0.01493996
v 0.02963276 0.00761363 0.01838705
v 0.03001668 0.00848139 0.02143124
v 0.02894469 0.00943359 0.02430874
v 0.03092008 0.00997196 0.02269834
v 0.02858301 0.00874016 0.03192566
v 0.02997700 0.00981232 0.03011654
v 0.03023815 0.01104047 0.02514012
v 0.03063313 0.01113621 0.02796741
v 0.03446997 -0.02241623 -0.03232557
v 0.03357685 -0.02090417 -0.03382191
v 0.03294702 -0.02234246 -0.02930076
v 0.03383699 -0.02084955 -0.02778151
v 0.03363247 -0.01939246 -0.03230832
v 0.03380968 -0.01935381 -0.02929455
v 0.03182442 0.00323960 0.01489200
v 0.03450084 0.00128124 0.01394229
v 0.03324792 0.00305988 0.01267990
v 0.03153245 0.00225784 0.01833020
v 0.03381921 0.00125717 0.01798056
v 0.03311960 0.00132416 0.02194297
v 0.03222572 0.00251893 0.02474425
v 0.03421999 0.00299942 0.02331502
v 0.03259269 0.00604173 0.00854271
v 0.03415365 0.00514965 0.00728510
v 0.03378347 0.00652933 0.00636537
v 0.03217409 0.00568314 0.01117728
v 0.03396156 0.00422936 0.01024933
v 0.03338731 0.00455696 0.02562563
v 0.03222577 0.00616866 0.02781082
v 0.03400276 0.00723865 0.02641746
v 0.03374971 0.00738971 0.00794678
v 0.03332091 0.00806134 0.01146367
v 0.03358646 0.00852747 0.01506575
v 0.03336674 0.00811844 0.01848674
v 0.03242400 0.00946787 0.02071203
v 0.03419732 0.00926211 0.02027315
v 0.03201532 0.00878032 0.02833099
v 0.03356165 0.00988654 0.02658909
v 0.03313174 0.01077825 0.02204096
v 0.03357866 0.01107839 0.02457534
v 0.03786206 -0.02247823 -0.03227196
v 0.03713945 -0.02038733 -0.03397812
v 0.03632969 -0.02243727 -0.02929801
v 0.03752726 -0.02052140 -0.02762426
v 0.03658067 -0.01896924 -0.03235405
v 0.03690200 -0.01873957 -0.02931181
v 0.03545537 0.00336692 -0.00165042
v 0.03789533 0.00123425 -0.00227371
v 0.03649007 0.00307345 -0.00410512
v 0.03558611 0.00341848 0.00176746
v 0.03721460 0.00135886 0.00099704
v 0.03733600 0.00230599 0.00308630
v 0.03511155 0.00219778 0.01166306
v 0.03700990 0.00143404 0.01209623
v 0.03725723 0.00323381 0.01002534
v 0.03647401 0.00122054 0.01506335
v 0.03601324 0.00263206 0.01822053
v 0.03756006 0.00289987 0.01656719
v 0.03505883 0.00288268 0.02115712
v 0.03596789 0.00610976 -0.00845832
v 0.03670373 0.00488769 -0.00885819
v 0.03730331 0.00618341 -0.01051291
v 0.03563602 0.00580701 -0.00544003
v 0.03671840 0.00423551 -0.00663301
v 0.03536325 0.00631131 -0.00263703
v 0.03531940 0.00580182 0.00037731
v 0.03666490 0.00405462 0.00506810
v 0.03516964 0.00586644 0.00396847
v 0.03642782 0.00417854 0.00813343
v 0.03712034 0.00456256 0.01865687
v 0.03567604 0.00642332 0.02090331
v 0.03690880 0.00731872 0.01936461
v 0.03513601 0.00548884 0.02403139
v 0.03743467 0.00772767 -0.00866245
v 0.03668961 0.00771078 -0.00515110
v 0.03721800 0.00740577 -0.00236026
v 0.03755900 0.00799984 0.00138011
v 0.03667541 0.00759497 0.00525190
v 0.03634545 0.00842859 0.00827371
v 0.03582199 0.00959536 0.01081566
v 0.03771150 0.00917806 0.00981200
v 0.03533876 0.00986701 0.01380649
v 0.03580248 0.00951650 0.01760854
v 0.03724413 0.00959843 0.01935844
v 0.03502389 0.00985751 0.02204035
v 0.03518399 0.00879946 0.02441919
v 0.03686830 0.01064973 0.01190306
v 0.03713181 0.01089663 0.01480347
v 0.03747697 0.01069187 0.01775849
v 0.04043208 -0.02215190 -0.03194286
v 0.04018454 -0.02057762 -0.03405735
v 0.03952797 -0.02223954 -0.02929242
v 0.04112299 -0.02011797 -0.02756705
v 0.03863494 -0.01766205 -0.03282801
v 0.04051414 -0.01768817 -0.03407166
v 0.03888820 -0.01710350 -0.03003411
v 0.03989931 -0.01804444 -0.02756955
v 0.04076560 -0.01595308 -0.03161503
v 0.04108761 -0.01612259 -0.02883601
v 0.03850194 0.00328927 -0.00879322
v 0.04115729 0.00136607 -0.00965764
v 0.03998388 0.00313013 -0.01110348
v 0.03805363 0.00226319 -0.00532004
v 0.04034326 0.00136888 -0.00555762
v 0.04037950 0.00124941 -0.00160812
v 0.04057817 0.00108303 0.00149805
v 0.03895445 0.00282647 0.00507232
v 0.03979518 0.00139818 0.00384508
v 0.04156223 0.00259059 0.00621070
v 0.03854414 0.00326759 0.01185336
v 0.03842235 0.00284855 0.01433450
v 0.03907611 0.00549412 -0.01205909
v 0.04066334 0.00422896 -0.01291252
v 0.04126300 0.00612203 -0.01368392
v 0.04050932 0.00522144 -0.00268130
v 0.03887564 0.00689699 -0.00161685
v 0.03975930 0.00657220 -0.00365283
v 0.04107335 0.00576956 -0.00101579
v 0.03955413 0.00422587 0.00784403
v 0.03903182 0.00651086 0.01082986
v 0.04145336 0.00632810 0.00939969
v 0.03904670 0.00614786 0.01472114
v 0.03845612 0.00547354 0.01741251
v 0.04003356 0.00767192 -0.01168058
v 0.04027703 0.00829819 -0.00924013
v 0.04012648 0.00768517 -0.00625615
v 0.04052991 0.00905651 -0.00021686
v 0.03905330 0.00986794 0.00106654
v 0.04010034 0.00954191 0.00226884
v 0.04043023 0.00830765 0.00410618
v 0.04017650 0.00803735 0.00779261
v 0.03811947 0.00992628 0.01197802
v 0.03854171 0.00954094 0.01486265
v 0.03839587 0.00881926 0.01806079
v 0.04103244 0.01059123 0.00129154
v 0.04210347 -0.02055872 -0.03281455
v 0.04197900 -0.02107414 -0.03002426
v 0.04455448 -0.01931136 -0.03200821
v 0.04360531 -0.01795903 -0.03399455
v 0.04363002 -0.01948587 -0.02883925
v 0.04350806 -0.01769177 -0.02767191
v 0.04376165 -0.01592950 -0.03233145
v 0.04383717 -0.01587236 -0.02931270
v 0.04173873 0.00230788 -0.01210855
v 0.04430466 0.00118512 -0.01186843
v 0.04305410 0.00345908 -0.01381266
v 0.04322496 0.00114128 -0.00846569
v 0.04233938 0.00258234 -0.00582356
v 0.04425966 0.00297771 -0.00724477
v 0.04164810 0.00320101 -0.00234555
v 0.04220836 0.00227490 0.00060081
v 0.04354579 0.00228762 0.00282353
v 0.04299689 0.00165458 0.00459602
v 0.04435150 0.00279928 0.00600454
v 0.04448598 0.00580630 -0.01409042
v 0.04191514 0.00514144 -0.00506097
v 0.04412017 0.00568730 -0.00664261
v 0.04439059 0.00415039 0.00113148
v 0.04326139 0.00693349 -0.00054919
v 0.04366816 0.00429795 0.00785358
v 0.04444932 0.00613453 0.00957500
v 0.04319516 0.00759472 -0.01273448
v 0.04336650 0.00798031 -0.00927966
v 0.04469304 0.00939293 -0.00050308
v 0.04293963 0.00970554 0.00298309
v 0.04314521 0.00871736 0.00538211
v 0.04285356 0.00940809 0.00770485
v 0.04445590 0.00999895 0.00615475
v 0.04366663 0.00866264 0.00951196
v 0.04410916 0.01089222 0.00148710
v 0.04489395 0.01078700 0.00809255
v 0.04816636 -0.01903308 -0.03233820
v 0.04743563 -0.01710136 -0.03399711
v 0.04648228 -0.01890509 -0.02931507
v 0.04769837 -0.01710626 -0.02770334
v 0.04680616 -0.01570535 -0.03235011
v 0.04708968 -0.01543987 -0.02934257
v 0.04808867 0.00101808 -0.01210958
v 0.04636438 0.00291861 -0.01403041
v 0.04645674 0.00110559 -0.00941388
v 0.04758916 0.00288990 -0.00711848
v 0.04509361 0.00280069 0.00427903
v 0.04799667 0.00634609 -0.01409430
v 0.04685718 0.00484069 -0.00550274
v 0.04543406 0.00732498 -0.00589597
v 0.04774064 0.00606984 -0.00418982
v 0.04761208 0.00499449 0.00169576
v 0.04643474 0.00653387 -0.00029738
v 0.04684842 0.00423341 0.00513169
v 0.04679233 0.00506781 0.00828974
v 0.04706619 0.00724129 0.00949865
v 0.04649928 0.00810635 -0.01186879
v 0.04567388 0.00916886 -0.00881855
v 0.04751833 0.00941466 -0.00999339
v 0.04581962 0.00987388 -0.00612343
v 0.04732223 0.00871269 -0.00405109
v 0.04754116 0.00897343 -0.00026291
v 0.04498190 0.01000196 0.00406969
v 0.04663516 0.00989709 0.00943657
v 0.04713874 0.01072640 -0.00786678
v 0.04757755 0.01087240 -0.00524063
v 0.04677419 0.01088241 0.00084961
v 0.04671199 0.01102893 0.00441076
v 0.04748333 0.01091611 0.00757174
v 0.05089466 -0.01880729 -0.03196260
v 0.05009156 -0.01775529 -0.03396297
v 0.04986459 -0.01882680 -0.02933516
v 0.05094858 -0.01692719 -0.02770165
v 0.04867827 -0.01393515 -0.03234107
v 0.05034623 -0.01458458 -0.03401498
v 0.04894082 -0.01361849 -0.02929435
v 0.05034382 -0.01423349 -0.02762970
v 0.04916517 -0.01078966 -0.03233645
v 0.05062982 -0.01081119 -0.03386636
v 0.04922315 -0.01061489 -0.02928999
v 0.05071493 -0.01058435 -0.02777333
v 0.04905333 -0.00738132 -0.03234257
v 0.05055287 -0.00744180 -0.03387418
v 0.04907400 -0.00721160 -0.02929057
v 0.05059914 -0.00715835 -0.02777108
v 0.04901578 -0.00402736 -0.03234748
v 0.05053999 -0.00409284 -0.03387311
v 0.04901686 -0.00383019 -0.02929529
v 0.05054203 -0.00377117 -0.02776798
v 0.04900078 -0.00059171 -0.03229324
v 0.05051390 -0.00064629 -0.03384070
v 0.04902843 -0.00040697 -0.02926041
v 0.05056333 -0.00037303 -0.02776085
v 0.04900407 0.00299836 -0.03231893
v 0.05054935 0.00294067 -0.03386904
v 0.04900607 0.00314212 -0.02922692
v 0.05054778 0.00312742 -0.02771172
v 0.05078319 0.00137751 -0.01175214
v 0.05013570 0.00319928 -0.01386737
v 0.04972659 0.00127850 -0.00935084
v 0.05101236 0.00269654 -0.00760463
v 0.04940034 0.00583594 -0.03280514
v 0.05081651 0.00585703 -0.03362396
v 0.04926611 0.00632167 -0.02999690
v 0.05028322 0.00598553 -0.02794253
v 0.05057493 0.00619202 -0.01449580
v 0.05034918 0.00422388 -0.00557834
v 0.05063089 0.00647814 -0.00378029
v 0.04876127 0.00716448 0.00125201
v 0.04904430 0.00644305 0.00454304
v 0.04866199 0.00605554 0.00749693
v 0.05026758 0.00749367 -0.03192027
v 0.05081910 0.00753369 -0.02963746
v 0.04926278 0.00911498 -0.01230647
v 0.05117831 0.00909125 -0.01390799
v 0.04969502 0.00896172 -0.00982081
v 0.05059281 0.00967790 -0.01062875
v 0.04908056 0.00994099 -0.00837797
v 0.05113780 0.00995888 -0.00779747
v 0.05053084 0.00938823 -0.00373779
v 0.04856728 0.00980502 0.00161636
v 0.04896259 0.00935861 0.00457373
v 0.04874372 0.00871537 0.00785842
v 0.05145287 0.01074083 -0.01158519
v 0.05073200 0.01099035 -0.00596554
v 0.05202882 -0.01671910 -0.03234495
v 0.05196589 -0.01775318 -0.02969273
v 0.05219964 -0.01335322 -0.03233777
v 0.05229060 -0.01500354 -0.02930431
v 0.05210868 -0.00990927 -0.03234443
v 0.05218284 -0.01148008 -0.02929125
v 0.05206839 -0.00656186 -0.03235039
v 0.05210656 -0.00802617 -0.02930137
v 0.05206832 -0.00320328 -0.03234892
v 0.05206794 -0.00465934 -0.02929532
v 0.05207147 0.00026415 -0.03235791
v 0.05207860 -0.00128788 -0.02929754
v 0.05207240 0.00388223 -0.03233716
v 0.05209868 0.00220901 -0.02929933
v 0.05250728 0.00292481 -0.01259858
v 0.05234934 0.00241243 -0.00999212
v 0.05167453 0.00671582 -0.03188757
v 0.05183949 0.00563307 -0.02927277
v 0.05434495 0.00448290 -0.01155541
v 0.05313240 0.00594926 -0.01394183
v 0.05382091 0.00419696 -0.00798490
v 0.05355224 0.00500997 -0.00521718
v 0.05387703 0.00720975 -0.00398323
v 0.05423533 0.00910615 -0.01376028
v 0.05165939 0.00995486 -0.00928281
v 0.05348641 0.00984804 -0.00405642
v 0.05345294 0.01094727 -0.01258853
v 0.05345225 0.01099252 -0.00898389
v 0.05428587 0.01085390 -0.00591071
v 0.05551487 0.00728109 -0.01223248
v 0.05577336 0.00651211 -0.00894246
v 0.05541574 0.00603274 -0.00603546
v 0.05530784 0.00990552 -0.01185948
v 0.05573513 0.00939765 -0.00889131
v 0.05554071 0.00866642 -0.00563125
f 3 2 1
f 5 4 1
f 5 1 2
f 7 6 4
f 7 4 5
f 8 6 7
f 3 1 9
f 3 9 10
f 11 1 4
f 9 1 11
f 12 4 6
f 11 4 12
f 6 8 13
f 6 13 12
f 14 10 9
f 14 9 11
f 14 11 15
f 15 11 12
f 15 12 16
f 16 12 13
f 19 18 17
f 21 20 17
f 21 17 18
f 22 20 21
f 19 17 23
f 19 23 24
f 25 17 20
f 23 17 25
f 20 22 26
f 20 26 25
f 24 23 27
f 24 27 28
f 29 23 25
f 27 23 29
f 25 26 30
f 25 30 29
f 28 27 31
f 28 31 32
f 33 27 29
f 31 27 33
f 29 30 34
f 29 34 33
f 32 31 35
f 32 35 36
f 37 31 33
f 35 31 37
f 33 34 38
f 33 38 37
f 36 35 39
f 36 39 40
f 41 35 37
f 39 35 41
f 37 38 42
f 37 42 41
f 40 39 43
f 40 43 44
f 45 39 41
f 43 39 45
f 41 42 46
f 41 46 45
f 49 48 47
f 51 50 47
f 51 47 48
f 52 50 51
f 44 43 53
f 44 53 54
f 55 43 45
f 53 43 55
f 45 46 56
f 45 56 55
f 49 47 2
f 3 49 2
f 57 49 3
f 2 47 5
f 5 47 50
f 52 58 50
f 58 5 50
f 58 7 5
f 8 7 58
f 8 58 59
f 60 54 53
f 60 53 55
f 60 55 61
f 61 55 56
f 10 57 3
f 10 62 57
f 65 64 63
f 63 66 65
f 59 13 8
f 67 13 59
f 68 62 10
f 68 10 14
f 15 63 64
f 68 15 64
f 14 15 68
f 69 66 63
f 15 69 63
f 16 69 15
f 16 13 67
f 16 67 69
f 71 70 18
f 71 18 19
f 18 72 21
f 70 72 18
f 22 21 72
f 22 72 73
f 24 75 74
f 71 24 74
f 19 24 71
f 77 76 75
f 75 76 74
f 73 76 77
f 26 73 77
f 22 73 26
f 28 78 75
f 28 75 24
f 75 79 77
f 75 78 79
f 79 30 26
f 79 26 77
f 32 80 78
f 32 78 28
f 78 81 79
f 78 80 81
f 81 34 30
f 81 30 79
f 36 82 80
f 36 80 32
f 80 83 81
f 80 82 83
f 83 38 34
f 83 34 81
f 40 84 82
f 40 82 36
f 82 85 83
f 82 84 85
f 85 42 38
f 85 38 83
f 44 86 84
f 44 84 40
f 84 87 85
f 84 86 87
f 87 46 42
f 87 42 85
f 89 88 48
f 89 48 49
f 48 90 51
f 88 90 48
f 52 51 90
f 52 90 91
f 54 92 86
f 54 86 44
f 86 93 87
f 86 92 93
f 93 56 46
f 93 46 87
f 57 89 49
f 57 94 89
f 91 95 52
f 52 95 58
f 59 58 95
f 59 95 96
f 99 98 97
f 101 100 97
f 101 97 98
f 103 102 100
f 103 100 101
f 104 102 103
f 60 92 54
f 92 60 61
f 92 61 93
f 93 61 56
f 62 106 105
f 94 62 105
f 57 62 94
f 106 64 105
f 64 65 105
f 108 107 105
f 108 105 65
f 66 108 65
f 96 67 59
f 109 67 96
f 99 97 110
f 99 110 111
f 112 97 100
f 110 97 112
f 113 100 102
f 112 100 113
f 102 104 114
f 102 114 113
f 68 106 62
f 108 115 107
f 64 106 68
f 115 108 66
f 69 115 66
f 116 115 69
f 69 67 109
f 69 109 116
f 117 111 110
f 117 110 112
f 117 112 118
f 118 112 113
f 118 113 119
f 119 113 114
f 121 120 70
f 121 70 71
f 70 122 72
f 120 122 70
f 73 72 122
f 73 122 123
f 124 121 71
f 124 71 74
f 125 74 76
f 125 124 74
f 76 73 123
f 76 123 125
f 127 126 88
f 127 88 89
f 88 128 90
f 126 128 88
f 91 90 128
f 91 128 129
f 132 131 130
f 133 130 131
f 94 127 89
f 94 134 127
f 95 91 135
f 91 136 135
f 91 129 136
f 135 96 95
f 138 137 98
f 138 98 99
f 130 101 132
f 101 137 132
f 101 98 137
f 133 139 130
f 139 101 130
f 139 103 101
f 104 103 139
f 104 139 140
f 141 134 94
f 141 94 105
f 143 142 107
f 142 105 107
f 142 141 105
f 142 143 136
f 143 135 136
f 143 144 135
f 144 109 96
f 144 96 135
f 111 138 99
f 111 145 138
f 148 147 146
f 146 149 148
f 140 114 104
f 150 114 140
f 115 143 107
f 143 115 116
f 143 116 144
f 144 116 109
f 151 145 111
f 151 111 117
f 118 146 147
f 151 118 147
f 117 118 151
f 152 149 146
f 118 152 146
f 119 152 118
f 119 114 150
f 119 150 152
f 155 154 153
f 157 156 153
f 157 153 154
f 158 156 157
f 155 153 120
f 121 155 120
f 159 155 121
f 120 153 122
f 122 153 156
f 123 122 156
f 158 123 156
f 160 123 158
f 161 159 121
f 161 121 124
f 162 124 125
f 162 161 124
f 125 123 160
f 125 160 162
f 127 163 126
f 126 163 164
f 165 126 164
f 128 126 165
f 167 166 129
f 128 167 129
f 165 167 128
f 169 168 166
f 169 166 167
f 171 170 168
f 171 168 169
f 131 132 170
f 171 131 170
f 172 131 171
f 133 131 172
f 133 172 173
f 175 174 163
f 127 175 163
f 134 175 127
f 163 174 164
f 176 136 166
f 166 136 129
f 168 178 177
f 176 168 177
f 166 168 176
f 138 179 137
f 179 168 137
f 168 170 137
f 179 178 168
f 137 170 132
f 173 180 133
f 133 180 139
f 140 139 180
f 140 180 181
f 182 175 134
f 182 134 141
f 183 141 142
f 183 182 141
f 142 136 176
f 184 142 176
f 183 142 184
f 184 176 177
f 145 179 138
f 145 185 179
f 187 186 148
f 148 186 147
f 189 188 149
f 188 148 149
f 188 187 148
f 181 188 189
f 150 181 189
f 140 181 150
f 190 185 145
f 190 145 151
f 151 147 186
f 151 186 190
f 152 189 149
f 189 152 150
f 192 191 154
f 192 154 155
f 154 193 157
f 191 193 154
f 158 157 193
f 158 193 194
f 159 196 195
f 192 159 195
f 155 159 192
f 198 197 196
f 196 197 195
f 194 197 198
f 160 194 198
f 158 194 160
f 161 196 159
f 196 161 162
f 196 162 198
f 198 162 160
f 164 199 165
f 200 167 165
f 200 165 199
f 167 200 201
f 202 167 201
f 169 167 202
f 169 203 171
f 202 203 169
f 203 205 204
f 172 203 204
f 171 203 172
f 204 173 172
f 208 207 206
f 210 209 206
f 210 206 207
f 211 209 210
f 175 212 174
f 212 213 174
f 174 213 164
f 213 214 164
f 214 199 164
f 199 214 200
f 200 214 215
f 216 177 178
f 215 201 200
f 179 216 178
f 205 217 204
f 204 217 173
f 217 180 173
f 217 218 180
f 206 219 181
f 218 206 181
f 180 218 181
f 208 206 218
f 220 206 209
f 219 206 220
f 209 211 221
f 222 209 221
f 220 209 222
f 223 222 221
f 182 212 175
f 224 213 212
f 182 224 212
f 183 224 182
f 225 183 184
f 225 224 183
f 184 177 216
f 226 184 216
f 225 184 226
f 179 185 216
f 185 227 216
f 227 226 216
f 227 185 228
f 186 187 228
f 187 227 228
f 187 229 227
f 230 187 188
f 230 229 187
f 230 188 181
f 231 230 181
f 219 231 181
f 230 231 232
f 233 219 220
f 231 219 233
f 234 220 222
f 233 220 234
f 222 223 235
f 222 235 234
f 190 228 185
f 228 190 186
f 236 232 231
f 236 231 233
f 236 233 237
f 237 233 234
f 237 234 238
f 238 234 235
f 240 239 191
f 240 191 192
f 191 241 193
f 239 241 191
f 194 193 241
f 194 241 242
f 243 240 192
f 243 192 195
f 244 195 197
f 244 243 195
f 197 194 242
f 197 242 244
f 201 245 202
f 246 203 202
f 246 202 245
f 246 205 203
f 208 247 207
f 207 247 248
f 249 207 248
f 210 207 249
f 251 250 211
f 210 251 211
f 249 251 210
f 253 252 250
f 253 250 251
f 254 252 253
f 213 255 214
f 256 215 214
f 256 214 255
f 245 201 215
f 256 245 215
f 257 245 256
f 245 258 246
f 245 257 258
f 259 217 205
f 246 259 205
f 258 259 246
f 217 259 260
f 261 217 260
f 218 217 261
f 208 218 247
f 218 262 247
f 218 261 262
f 247 262 248
f 250 221 211
f 221 250 223
f 250 263 223
f 250 252 263
f 252 254 264
f 265 252 264
f 263 252 265
f 266 265 264
f 224 255 213
f 255 224 225
f 255 225 256
f 256 225 226
f 256 226 257
f 257 226 227
f 257 227 258
f 258 227 229
f 258 229 259
f 267 260 259
f 229 267 259
f 230 267 229
f 269 268 232
f 268 230 232
f 268 267 230
f 271 270 269
f 269 270 268
f 273 272 271
f 271 272 270
f 223 273 235
f 273 223 272
f 263 272 223
f 272 263 274
f 275 274 263
f 276 263 265
f 275 263 276
f 265 266 277
f 265 277 276
f 236 269 232
f 269 236 237
f 269 237 271
f 271 237 238
f 271 238 273
f 275 278 274
f 235 273 238
f 278 275 276
f 278 276 279
f 279 276 277
f 281 280 239
f 281 239 240
f 239 282 241
f 280 282 239
f 242 241 282
f 242 282 283
f 284 281 240
f 284 240 243
f 285 243 244
f 285 284 243
f 244 242 283
f 244 283 285
f 248 286 249
f 287 251 249
f 287 249 286
f 251 287 288
f 289 251 288
f 253 251 289
f 291 290 254
f 253 291 254
f 289 291 253
f 292 290 291
f 260 293 261
f 294 262 261
f 294 261 293
f 294 295 262
f 262 295 248
f 295 296 248
f 296 286 248
f 286 296 287
f 287 296 297
f 287 297 288
f 290 264 254
f 299 298 266
f 299 266 264
f 292 299 264
f 290 292 264
f 300 298 299
f 267 293 260
f 293 267 268
f 293 268 294
f 301 295 294
f 268 301 294
f 270 301 268
f 302 270 272
f 302 301 270
f 304 303 274
f 303 272 274
f 303 302 272
f 304 305 303
f 306 277 298
f 298 277 266
f 298 300 307
f 298 307 306
f 278 304 274
f 308 305 304
f 278 308 304
f 279 308 278
f 279 277 306
f 309 279 306
f 308 279 309
f 309 306 307
f 311 310 280
f 311 280 281
f 280 312 282
f 310 312 280
f 283 282 312
f 283 312 313
f 314 311 281
f 314 281 284
f 315 284 285
f 315 314 284
f 285 283 313
f 285 313 315
f 288 316 289
f 289 316 317
f 318 289 317
f 291 289 318
f 320 319 292
f 291 320 292
f 318 320 291
f 321 319 320
f 295 322 296
f 323 297 296
f 323 296 322
f 323 324 297
f 297 324 288
f 324 325 288
f 325 316 288
f 316 325 317
f 319 299 292
f 327 326 300
f 327 300 299
f 321 327 299
f 319 321 299
f 328 326 327
f 301 322 295
f 322 301 302
f 322 302 323
f 329 324 323
f 302 329 323
f 303 329 302
f 331 330 305
f 330 303 305
f 330 329 303
f 331 332 330
f 333 307 326
f 326 307 300
f 326 328 334
f 326 334 333
f 308 331 305
f 335 332 331
f 308 335 331
f 309 335 308
f 309 307 333
f 336 309 333
f 335 309 336
f 336 333 334
f 338 337 310
f 338 310 311
f 310 339 312
f 337 339 310
f 313 312 339
f 313 339 340
f 341 338 311
f 341 311 314
f 342 314 315
f 342 341 314
f 315 313 340
f 315 340 342
f 317 343 318
f 318 343 344
f 345 318 344
f 320 318 345
f 321 320 345
f 321 345 346
f 324 347 325
f 347 348 325
f 325 348 317
f 348 349 317
f 349 343 317
f 343 349 344
f 346 350 321
f 321 350 327
f 328 327 350
f 328 350 351
f 329 347 324
f 352 348 347
f 329 352 347
f 330 352 329
f 354 353 332
f 353 330 332
f 353 352 330
f 354 355 353
f 351 334 328
f 356 334 351
f 335 354 332
f 357 355 354
f 335 357 354
f 336 357 335
f 336 334 356
f 336 356 357
f 359 358 337
f 359 337 338
f 337 360 339
f 358 360 337
f 340 339 360
f 340 360 361
f 362 359 338
f 362 338 341
f 363 341 342
f 363 362 341
f 342 340 361
f 342 361 363
f 365 364 345
f 365 345 344
f 367 366 346
f 345 367 346
f 364 367 345
f 368 366 367
f 370 369 349
f 370 349 348
f 344 349 365
f 365 349 369
f 366 350 346
f 351 350 366
f 368 351 366
f 371 351 368
f 372 370 348
f 372 348 352
f 373 352 353
f 373 372 352
f 353 355 373
f 373 355 374
f 371 356 351
f 375 356 371
f 376 374 355
f 376 355 357
f 357 356 375
f 357 375 376
f 378 377 358
f 378 358 359
f 358 379 360
f 377 379 358
f 361 360 379
f 361 379 380
f 381 378 359
f 381 359 362
f 382 362 363
f 382 381 362
f 363 361 380
f 363 380 382
f 365 383 364
f 364 383 384
f 385 364 384
f 367 364 385
f 368 367 385
f 368 385 386
f 370 387 369
f 387 388 369
f 369 388 365
f 388 389 365
f 389 383 365
f 383 389 384
f 391 371 390
f 371 386 390
f 371 368 386
f 392 391 390
f 372 387 370
f 393 388 387
f 372 393 387
f 373 393 372
f 373 374 393
f 393 374 394
f 395 375 391
f 391 375 371
f 391 392 396
f 391 396 395
f 397 394 374
f 397 374 376
f 376 375 395
f 398 376 395
f 397 376 398
f 398 395 396
f 400 399 377
f 400 377 378
f 377 401 379
f 399 401 377
f 380 379 401
f 380 401 402
f 403 400 378
f 403 378 381
f 404 381 382
f 404 403 381
f 382 380 402
f 382 402 404
f 406 405 385
f 406 385 384
f 386 385 405
f 386 405 407
f 410 409 408
f 389 388 408
f 409 389 408
f 411 389 409
f 384 389 406
f 406 389 411
f 407 412 386
f 386 412 390
f 392 390 412
f 392 412 413
f 414 410 408
f 414 408 388
f 393 414 388
f 415 414 393
f 417 416 394
f 416 393 394
f 416 415 393
f 417 418 416
f 413 396 392
f 419 396 413
f 397 417 394
f 420 418 417
f 397 420 417
f 398 420 397
f 398 396 419
f 398 419 420
f 422 421 399
f 422 399 400
f 399 423 401
f 421 423 399
f 402 401 423
f 402 423 424
f 425 422 400
f 425 400 403
f 426 403 404
f 426 425 403
f 404 402 424
f 404 424 426
f 429 428 427
f 405 406 427
f 428 405 427
f 430 405 428
f 407 405 430
f 407 430 431
f 433 432 409
f 433 409 410
f 427 411 429
f 411 432 429
f 411 409 432
f 411 427 406
f 431 434 407
f 407 434 412
f 413 412 434
f 413 434 435
f 436 433 410
f 436 410 414
f 437 414 415
f 437 436 414
f 438 415 416
f 438 437 415
f 416 418 438
f 438 418 439
f 435 419 413
f 440 419 435
f 441 439 418
f 441 418 420
f 420 419 440
f 420 440 441
f 443 442 421
f 443 421 422
f 421 444 423
f 442 444 421
f 424 423 444
f 424 444 445
f 446 443 422
f 446 422 425
f 447 425 426
f 447 446 425
f 426 424 445
f 426 445 447
f 429 448 428
f 449 430 428
f 449 428 448
f 449 431 430
f 451 450 432
f 451 432 433
f 429 432 448
f 432 452 448
f 432 450 452
f 448 452 449
f 449 452 453
f 449 453 431
f 453 434 431
f 453 454 434
f 435 434 454
f 435 454 455
f 456 451 433
f 456 433 436
f 457 436 437
f 457 456 436
f 458 437 438
f 458 457 437
f 438 439 458
f 458 439 459
f 455 440 435
f 460 440 455
f 461 459 439
f 461 439 441
f 441 440 460
f 441 460 461
f 463 462 442
f 463 442 443
f 442 464 444
f 462 464 442
f 445 444 464
f 445 464 465
f 466 463 443
f 466 443 446
f 467 446 447
f 467 466 446
f 447 445 465
f 447 465 467
f 451 468 450
f 469 452 450
f 469 450 468
f 470 453 452
f 470 452 469
f 453 470 471
f 472 453 471
f 454 453 472
f 455 454 472
f 455 472 473
f 456 468 451
f 468 456 457
f 468 457 469
f 469 457 458
f 469 458 470
f 458 459 470
f 459 471 470
f 459 474 471
f 473 460 455
f 475 460 473
f 476 474 459
f 476 459 461
f 461 460 475
f 461 475 476
f 478 477 462
f 478 462 463
f 462 479 464
f 477 479 462
f 465 464 479
f 465 479 480
f 481 478 463
f 481 463 466
f 482 466 467
f 482 481 466
f 467 465 480
f 467 480 482
f 484 483 472
f 484 472 471
f 473 472 483
f 473 483 485
f 474 484 471
f 474 486 484
f 485 475 473
f 487 475 485
f 488 486 474
f 488 474 476
f 476 475 487
f 476 487 488
f 490 489 477
f 490 477 478
f 477 491 479
f 489 491 477
f 480 479 491
f 480 491 492
f 493 490 478
f 493 478 481
f 494 481 482
f 494 493 481
f 482 480 492
f 482 492 494
f 496 495 483
f 496 483 484
f 485 483 495
f 485 495 497
f 486 496 484
f 486 498 496
f 497 487 485
f 499 487 497
f 500 498 486
f 500 486 488
f 488 487 499
f 488 499 500
f 502 501 489
f 502 489 490
f 489 503 491
f 501 503 489
f 492 491 503
f 492 503 504
f 505 502 490
f 505 490 493
f 506 493 494
f 506 505 493
f 494 492 504
f 494 504 506
f 509 508 507
f 511 510 507
f 511 507 508
f 513 512 510
f 513 510 511
f 495 496 512
f 513 495 512
f 514 495 513
f 497 495 514
f 497 514 515
f 516 509 507
f 516 507 510
f 516 510 517
f 517 510 512
f 517 512 518
f 512 496 518
f 496 519 518
f 496 498 519
f 515 499 497
f 520 499 515
f 521 519 498
f 521 498 500
f 500 499 520
f 500 520 521
f 523 522 501
f 523 501 502
f 501 524 503
f 522 524 501
f 504 503 524
f 504 524 525
f 526 523 502
f 526 502 505
f 527 505 506
f 527 526 505
f 506 504 525
f 506 525 527
f 530 529 528
f 532 531 528
f 532 528 529
f 533 531 532
f 535 534 508
f 535 508 509
f 528 511 530
f 511 534 530
f 511 508 534
f 511 528 513
f 513 528 531
f 533 536 531
f 536 513 531
f 536 514 513
f 515 514 536
f 515 536 537
f 538 535 509
f 538 509 516
f 539 516 517
f 539 538 516
f 540 517 518
f 540 539 517
f 518 519 540
f 540 519 541
f 537 520 515
f 542 520 537
f 543 541 519
f 543 519 521
f 521 520 542
f 521 542 543
f 545 544 522
f 545 522 523
f 522 546 524
f 544 546 522
f 525 524 546
f 525 546 547
f 548 545 523
f 548 523 526
f 549 526 527
f 549 548 526
f 527 525 547
f 527 547 549
f 530 550 529
f 529 550 551
f 552 529 551
f 532 529 552
f 533 532 552
f 533 552 553
f 555 554 534
f 555 534 535
f 530 534 550
f 534 556 550
f 534 554 556
f 550 556 551
f 553 557 533
f 533 557 536
f 537 536 557
f 537 557 558
f 559 555 535
f 559 535 538
f 560 538 539
f 560 559 538
f 561 539 540
f 561 560 539
f 540 541 561
f 561 541 562
f 558 542 537
f 563 542 558
f 564 562 541
f 564 541 543
f 543 542 563
f 543 563 564
f 566 565 544
f 566 544 545
f 544 567 546
f 565 567 544
f 547 546 567
f 547 567 568
f 569 566 545
f 569 545 548
f 570 548 549
f 570 569 548
f 549 547 568
f 549 568 570
f 572 571 552
f 572 552 551
f 553 552 571
f 553 571 573
f 555 574 554
f 554 574 575
f 576 554 575
f 556 554 576
f 551 556 572
f 572 556 576
f 573 577 553
f 553 577 557
f 558 557 577
f 558 577 578
f 559 574 555
f 579 575 574
f 559 579 574
f 560 579 559
f 581 579 580
f 579 561 580
f 579 560 561
f 562 580 561
f 578 563 558
f 582 563 578
f 583 581 580
f 583 580 562
f 564 583 562
f 584 583 564
f 564 563 582
f 564 582 584
f 586 585 565
f 586 565 566
f 565 587 567
f 585 587 565
f 568 567 587
f 568 587 588
f 589 586 566
f 589 566 569
f 590 569 570
f 590 589 569
f 570 568 588
f 570 588 590
f 593 592 591
f 571 572 591
f 592 571 591
f 594 571 592
f 573 571 594
f 573 594 595
f 598 597 596
f 596 597 593
f 596 593 591
f 575 596 591
f 576 575 591
f 576 591 572
f 577 573 599
f 573 600 599
f 573 595 600
f 599 578 577
f 601 598 596
f 601 596 575
f 579 601 575
f 602 601 579
f 579 581 602
f 602 581 603
f 599 600 604
f 604 600 605
f 604 582 578
f 604 578 599
f 606 603 581
f 606 581 583
f 584 604 605
f 606 584 605
f 583 584 606
f 604 584 582
f 608 607 585
f 608 585 586
f 585 609 587
f 607 609 585
f 588 587 609
f 588 609 610
f 611 608 586
f 611 586 589
f 612 589 590
f 612 611 589
f 590 588 610
f 590 610 612
f 614 613 592
f 614 592 593
f 613 616 615
f 594 613 615
f 592 613 594
f 615 595 594
f 618 617 597
f 618 597 598
f 593 597 614
f 614 597 617
f 616 619 615
f 595 615 619
f 620 595 619
f 600 595 620
f 621 618 598
f 621 598 601
f 622 601 602
f 622 621 601
f 602 603 622
f 622 603 623
f 620 605 600
f 624 605 620
f 625 623 603
f 625 603 606
f 606 605 624
f 606 624 625
f 627 626 607
f 627 607 608
f 607 628 609
f 626 628 607
f 610 609 628
f 610 628 629
f 630 627 608
f 630 608 611
f 631 611 612
f 631 630 611
f 612 610 629
f 612 629 631
f 634 633 632
f 613 614 632
f 633 613 632
f 635 613 633
f 616 613 635
f 616 635 636
f 639 638 637
f 637 638 634
f 637 634 632
f 618 637 632
f 617 618 632
f 617 632 614
f 636 640 616
f 616 640 619
f 620 619 640
f 620 640 641
f 642 639 637
f 642 637 618
f 621 642 618
f 643 642 621
f 645 643 644
f 643 622 644
f 643 621 622
f 623 644 622
f 641 624 620
f 646 624 641
f 647 645 644
f 647 644 623
f 625 647 623
f 648 647 625
f 625 624 646
f 625 646 648
f 650 649 626
f 650 626 627
f 626 651 628
f 649 651 626
f 629 628 651
f 629 651 652
f 653 650 627
f 653 627 630
f 654 630 631
f 654 653 630
f 631 629 652
f 631 652 654
f 657 656 655
f 633 634 655
f 656 633 655
f 658 633 656
f 658 660 659
f 635 658 659
f 633 658 635
f 659 636 635
f 663 662 661
f 665 664 661
f 665 661 662
f 664 665 657
f 664 657 655
f 639 664 655
f 638 639 655
f 638 655 634
f 660 666 659
f 666 668 667
f 666 667 640
f 659 666 640
f 636 659 640
f 667 641 640
f 669 663 661
f 669 661 664
f 669 664 670
f 670 664 639
f 642 670 639
f 671 670 642
f 673 671 672
f 671 643 672
f 671 642 643
f 645 672 643
f 667 668 674
f 674 668 675
f 674 646 641
f 674 641 667
f 676 673 672
f 676 672 645
f 647 676 645
f 677 676 647
f 648 674 675
f 677 648 675
f 647 648 677
f 674 648 646
f 679 678 649
f 679 649 650
f 649 680 651
f 678 680 649
f 652 651 680
f 652 680 681
f 682 679 650
f 682 650 653
f 683 653 654
f 683 682 653
f 654 652 681
f 654 681 683
f 686 685 684
f 688 687 684
f 688 684 685
f 656 657 687
f 688 656 687
f 689 656 688
f 689 691 690
f 658 689 690
f 656 689 658
f 690 660 658
f 694 693 692
f 696 695 692
f 696 692 693
f 695 696 686
f 695 686 684
f 663 695 684
f 662 663 684
f 662 684 665
f 665 684 687
f 665 687 657
f 691 697 690
f 697 699 698
f 697 698 666
f 690 697 666
f 660 690 666
f 698 668 666
f 700 694 692
f 700 692 695
f 700 695 701
f 701 695 663
f 669 701 663
f 702 701 669
f 703 669 670
f 703 702 669
f 705 703 704
f 703 671 704
f 703 670 671
f 673 704 671
f 698 699 706
f 706 699 707
f 706 675 668
f 706 668 698
f 708 705 704
f 708 704 673
f 676 708 673
f 709 708 676
f 677 706 707
f 709 677 707
f 676 677 709
f 706 677 675
f 711 710 678
f 711 678 679
f 678 712 680
f 710 712 678
f 681 680 712
f 681 712 713
f 714 711 679
f 714 679 682
f 715 682 683
f 715 714 682
f 683 681 713
f 683 713 715
f 718 717 716
f 720 719 716
f 720 716 717
f 721 719 720
f 724 723 722
f 685 686 722
f 723 685 722
f 725 685 723
f 725 727 726
f 688 725 726
f 685 725 688
f 728 689 688
f 728 688 726
f 728 691 689
f 731 730 729
f 733 732 729
f 733 729 730
f 732 733 718
f 716 732 718
f 734 732 716
f 735 716 719
f 734 716 735
f 719 721 736
f 737 719 736
f 735 719 737
f 693 694 737
f 736 693 737
f 738 693 736
f 722 696 724
f 696 738 724
f 696 693 738
f 696 722 686
f 727 739 726
f 741 740 739
f 740 726 739
f 740 728 726
f 742 697 691
f 728 742 691
f 740 742 728
f 742 699 697
f 743 731 729
f 743 729 732
f 743 732 744
f 744 732 734
f 744 734 745
f 745 734 735
f 745 735 746
f 746 735 737
f 746 737 747
f 747 737 694
f 700 747 694
f 748 747 700
f 750 748 749
f 748 701 749
f 748 700 701
f 702 751 701
f 701 751 749
f 703 752 702
f 702 752 751
f 753 752 741
f 703 741 752
f 741 703 740
f 705 740 703
f 740 705 754
f 740 755 742
f 740 754 755
f 755 707 699
f 755 699 742
f 756 750 749
f 756 749 751
f 756 751 757
f 757 751 752
f 757 752 758
f 705 708 754
f 752 753 758
f 754 708 709
f 754 709 755
f 755 709 707
f 760 759 710
f 760 710 711
f 710 761 712
f 759 761 710
f 713 712 761
f 713 761 762
f 711 714 763
f 764 711 763
f 760 711 764
f 715 765 714
f 714 765 763
f 766 765 715
f 713 766 715
f 762 766 713
f 767 764 763
f 767 763 765
f 767 765 768
f 768 765 766
f 771 770 769
f 773 772 769
f 773 769 770
f 717 718 772
f 773 717 772
f 774 717 773
f 717 775 720
f 774 775 717
f 777 776 721
f 720 777 721
f 775 777 720
f 778 776 777
f 724 779 723
f 780 725 723
f 780 723 779
f 780 727 725
f 783 782 781
f 781 782 771
f 781 771 769
f 731 781 769
f 730 731 769
f 730 769 733
f 733 769 772
f 733 772 718
f 786 785 784
f 785 787 784
f 776 736 721
f 778 788 776
f 788 736 776
f 788 738 736
f 738 788 724
f 788 789 724
f 789 779 724
f 789 788 790
f 779 791 780
f 779 789 791
f 792 739 727
f 780 792 727
f 791 792 780
f 792 741 739
f 793 783 781
f 793 781 731
f 743 793 731
f 794 793 743
f 795 743 744
f 795 794 743
f 745 785 786
f 795 745 786
f 744 745 795
f 745 746 785
f 746 796 785
f 796 787 785
f 746 797 796
f 797 746 798
f 746 799 798
f 746 747 799
f 800 747 748
f 800 799 747
f 801 789 750
f 789 800 750
f 800 748 750
f 789 790 800
f 789 802 791
f 789 801 802
f 791 803 792
f 791 802 803
f 803 753 741
f 803 741 792
f 804 796 797
f 804 797 798
f 756 801 750
f 801 756 757
f 801 757 802
f 802 757 758
f 802 758 803
f 803 758 753
f 760 805 759
f 806 761 759
f 806 759 805
f 806 762 761
f 808 807 805
f 760 808 805
f 764 808 760
f 805 807 806
f 806 807 809
f 762 806 809
f 810 762 809
f 766 762 810
f 811 808 764
f 811 764 767
f 812 767 768
f 812 811 767
f 768 766 810
f 768 810 812
f 815 814 813
f 770 771 813
f 814 770 813
f 816 770 814
f 816 818 817
f 773 816 817
f 770 816 773
f 819 774 773
f 819 773 817
f 820 775 774
f 820 774 819
f 775 820 821
f 822 775 821
f 777 775 822
f 778 777 822
f 778 822 823
f 815 813 782
f 783 815 782
f 824 815 783
f 782 813 771
f 817 818 825
f 825 818 826
f 825 786 784
f 819 825 784
f 817 825 819
f 820 819 827
f 819 787 827
f 787 828 827
f 787 819 784
f 820 827 821
f 823 829 778
f 778 829 788
f 790 788 829
f 790 829 830
f 831 824 783
f 831 783 793
f 832 793 794
f 832 831 793
f 795 825 826
f 832 795 826
f 794 795 832
f 825 795 786
f 796 828 787
f 796 833 828
f 835 834 799
f 799 834 798
f 837 835 836
f 835 800 836
f 835 799 800
f 838 836 800
f 790 838 800
f 830 838 790
f 839 833 796
f 839 796 804
f 804 798 834
f 804 834 839
f 840 837 836
f 840 836 838
f 842 841 807
f 842 807 808
f 807 843 809
f 841 843 807
f 810 809 843
f 810 843 844
f 845 842 808
f 845 808 811
f 846 811 812
f 846 845 811
f 812 810 844
f 812 844 846
f 848 847 814
f 848 814 815
f 814 849 816
f 847 849 814
f 818 816 849
f 818 849 850
f 821 851 822
f 851 823 822
f 824 848 815
f 824 852 848
f 854 826 853
f 826 850 853
f 826 818 850
f 855 854 853
f 857 856 827
f 857 827 828
f 821 827 851
f 827 858 851
f 827 856 858
f 851 858 823
f 858 829 823
f 858 859 829
f 830 829 859
f 830 859 860
f 861 852 824
f 861 824 831
f 863 861 862
f 861 832 862
f 861 831 832
f 826 854 832
f 854 862 832
f 854 864 862
f 854 855 865
f 854 865 864
f 833 857 828
f 833 866 857
f 867 834 835
f 837 867 835
f 860 838 830
f 868 838 860
f 869 863 862
f 869 862 864
f 869 864 870
f 870 864 865
f 871 866 833
f 871 833 839
f 839 834 867
f 872 839 867
f 871 839 872
f 872 867 837
f 840 872 837
f 873 872 840
f 840 838 868
f 840 868 873
f 875 874 841
f 875 841 842
f 841 876 843
f 874 876 841
f 844 843 876
f 844 876 877
f 842 845 878
f 879 842 878
f 875 842 879
f 846 880 845
f 845 880 878
f 881 880 846
f 844 881 846
f 877 881 844
f 879 878 882
f 879 882 883
f 884 878 880
f 882 878 884
f 880 881 885
f 880 885 884
f 883 882 886
f 883 886 887
f 888 882 884
f 886 882 888
f 884 885 889
f 884 889 888
f 887 886 890
f 887 890 891
f 892 886 888
f 890 886 892
f 888 889 893
f 888 893 892
f 891 890 894
f 891 894 895
f 896 890 892
f 894 890 896
f 892 893 897
f 892 897 896
f 895 894 898
f 895 898 899
f 900 894 896
f 898 894 900
f 896 897 901
f 896 901 900
f 903 902 847
f 903 847 848
f 847 904 849
f 902 904 847
f 850 849 904
f 850 904 905
f 899 898 906
f 899 906 907
f 908 898 900
f 906 898 908
f 900 901 909
f 900 909 908
f 852 903 848
f 852 910 903
f 905 911 850
f 850 911 853
f 855 853 911
f 855 911 912
f 857 913 856
f 914 858 856
f 914 856 913
f 915 859 858
f 915 858 914
f 915 860 859
f 916 907 906
f 916 906 908
f 916 908 917
f 917 908 909
f 852 861 918
f 919 852 918
f 910 852 919
f 921 918 920
f 918 861 920
f 863 922 920
f 863 920 861
f 922 923 920
f 912 865 855
f 924 865 912
f 866 925 913
f 866 913 857
f 913 926 914
f 913 925 926
f 914 927 915
f 914 926 927
f 927 868 860
f 927 860 915
f 928 919 918
f 863 869 922
f 918 921 928
f 929 923 922
f 869 929 922
f 870 929 869
f 870 865 924
f 870 924 929
f 871 925 866
f 925 871 872
f 925 872 926
f 926 872 873
f 926 873 927
f 927 873 868
f 875 930 874
f 931 876 874
f 931 874 930
f 931 877 876
f 879 932 930
f 879 930 875
f 930 933 931
f 930 932 933
f 933 881 877
f 933 877 931
f 883 934 932
f 883 932 879
f 932 935 933
f 932 934 935
f 935 885 881
f 935 881 933
f 887 936 934
f 887 934 883
f 934 937 935
f 934 936 937
f 937 889 885
f 937 885 935
f 891 938 936
f 891 936 887
f 936 939 937
f 936 938 939
f 939 893 889
f 939 889 937
f 895 940 938
f 895 938 891
f 938 941 939
f 938 940 941
f 941 897 893
f 941 893 939
f 899 942 940
f 899 940 895
f 940 943 941
f 940 942 943
f 943 901 897
f 943 897 941
f 903 944 902
f 945 904 902
f 945 902 944
f 945 905 904
f 907 946 942
f 907 942 899
f 942 947 943
f 942 946 947
f 947 909 901
f 947 901 943
f 949 948 944
f 903 949 944
f 910 949 903
f 944 948 945
f 945 948 950
f 945 950 905
f 950 911 905
f 950 951 911
f 912 911 951
f 912 951 952
f 916 946 907
f 946 916 917
f 946 917 947
f 947 917 909
f 919 949 910
f 919 953 949
f 954 921 920
f 923 954 920
f 952 924 912
f 955 924 952
f 956 953 919
f 956 919 928
f 928 921 954
f 957 928 954
f 956 928 957
f 957 954 923
f 929 957 923
f 958 957 929
f 929 924 955
f 929 955 958
f 949 959 948
f 960 950 948
f 960 948 959
f 961 951 950
f 961 950 960
f 961 952 951
f 953 962 959
f 953 959 949
f 959 963 960
f 959 962 963
f 960 964 961
f 960 963 964
f 964 955 952
f 964 952 961
f 956 962 953
f 962 956 957
f 962 957 963
f 963 957 958
f 963 958 964
f 964 958 955

