# https://github.com/mikedh/trimesh
v -0.01984400 -0.02239456 0.00128312
v -0.01796107 -0.02555643 0.00015457
v -0.01746598 -0.02203890 -0.00259756
v -0.01991335 -0.02150179 0.00659134
v -0.01688494 -0.02597815 0.00507483
v -0.01696016 -0.02314159 0.00904686
v -0.02004142 -0.01650663 -0.00033995
v -0.01796976 -0.01644354 -0.00398195
v -0.02095960 -0.01712134 0.00548885
v -0.01686073 -0.02026173 0.01194224
v -0.02009503 -0.01625720 0.01185345
v -0.01706491 -0.01707304 0.01506929
v -0.01988668 -0.01019836 -0.01693927
v -0.01752661 -0.01328202 -0.01814782
v -0.01760092 -0.00998126 -0.02109951
v -0.01989912 -0.01049068 -0.01047843
v -0.01769809 -0.01400245 -0.01308740
v -0.01990565 -0.01136891 -0.00455808
v -0.01754029 -0.01423231 -0.00757676
v -0.02050699 -0.01034130 0.00056845
v -0.02067536 -0.01121025 0.00561998
v -0.02088177 -0.01100881 0.01162574
v -0.01697249 -0.01437729 0.01795518
v -0.01986814 -0.01060174 0.01693537
v -0.01710972 -0.01099154 0.02071016
v -0.01986354 -0.00594740 -0.02207266
v -0.01690112 -0.00720357 -0.02338379
v -0.01729661 -0.00389433 -0.02554099
v -0.02070410 -0.00475073 -0.01711277
v -0.02060843 -0.00540422 -0.01195913
v -0.02051563 -0.00530144 -0.00603727
v -0.02045964 -0.00524373 -0.00021124
v -0.02049866 -0.00522099 0.00575440
v -0.02062527 -0.00506431 0.01181000
v -0.02007510 -0.00500333 0.01701301
v -0.01788537 -0.00644942 0.02070777
v -0.02006413 0.00037150 -0.02317943
v -0.01774919 0.00125593 -0.02612820
v -0.02070212 0.00041180 -0.01785963
v -0.02052609 0.00053186 -0.01189472
v -0.02042686 0.00058553 -0.00598391
v -0.02039516 0.00068675 -0.00009493
v -0.02045046 0.00070253 0.00591591
v -0.02059484 0.00081710 0.01194010
v -0.01999913 0.00088825 0.01710055
v -0.01783377 -0.00050212 0.02068822
v -0.02017529 0.00654139 -0.02313309
v -0.01709410 0.00646419 -0.02625980
v -0.02077752 0.00655959 -0.01771575
v -0.02059552 0.00658464 -0.01158895
v -0.02047047 0.00660292 -0.00563147
v -0.02042978 0.00666314 0.00022268
v -0.02050536 0.00667101 0.00615704
v -0.02069484 0.00668008 0.01205498
v -0.02010536 0.00668578 0.01716203
v -0.01789780 0.00535824 0.02072251
v -0.01969311 0.01134552 -0.02380054
v -0.01596080 0.01288964 -0.02607794
v -0.02018976 0.01181986 -0.01903558
v -0.02004192 0.01243917 -0.01215027
v -0.02060425 0.01253595 -0.00559073
v -0.02060574 0.01264738 0.00028972
v -0.02063934 0.01260923 0.00620823
v -0.02076889 0.01173775 0.01128703
v -0.01998971 0.01280895 0.01608547
v -0.01695111 0.01201648 0.02069787
v -0.01792537 0.01519189 -0.02195500
v -0.01773250 0.01538423 -0.01607487
v -0.01801217 0.01611706 -0.01106987
v -0.01724415 0.01911321 -0.00812279
v -0.01955392 0.01695051 -0.00665565
v -0.01999393 0.01778114 -0.00111126
v -0.02003810 0.01783220 0.00479430
v -0.01990305 0.01726592 0.01117318
v -0.01695407 0.01862509 0.01541757
v -0.01711142 0.01575511 0.01809878
v -0.01773147 0.02099114 -0.00393242
v -0.01783406 0.02146003 0.00155367
v -0.01784637 0.02144783 0.00742084
v -0.01703352 0.02139041 0.01193874
v -0.01497303 -0.02791676 0.00028518
v -0.01034605 -0.03086777 0.00058991
v -0.01201585 -0.02804612 -0.00315338
v -0.01442403 -0.02900509 0.00521917
v -0.01126460 -0.03093428 0.00543694
v -0.01179456 -0.02891900 0.00880651
v -0.01411579 -0.02304944 -0.00555819
v -0.01005467 -0.02535646 -0.00675953
v -0.01206728 -0.02174673 -0.00909885
v -0.01460836 -0.02263969 0.01168469
v -0.01308146 -0.02537179 0.01067642
v -0.01196793 -0.02295920 0.01402153
v -0.01377942 -0.01691900 -0.02237854
v -0.01216387 -0.01938141 -0.02321958
v -0.01111256 -0.01570574 -0.02622872
v -0.01482071 -0.01630629 -0.01695741
v -0.01194134 -0.01993239 -0.01903929
v -0.01461084 -0.01761377 -0.01006822
v -0.01173271 -0.02006291 -0.01329929
v -0.01583114 -0.01803643 -0.00583926
v -0.01479800 -0.01652780 0.01767118
v -0.01313497 -0.01917669 0.01655234
v -0.01078624 -0.01720425 0.02010796
v -0.01444085 -0.01192744 -0.02255420
v -0.01064440 -0.01053559 -0.02548745
v -0.01056486 -0.01376950 0.00078556
v -0.01365534 -0.00976884 0.00101739
v -0.01168196 -0.01034173 -0.00239539
v -0.01115852 -0.01146458 0.00293992
v -0.01452373 -0.00920535 0.02373869
v -0.01292903 -0.01311761 0.02263300
v -0.01056842 -0.01101304 0.02542007
v -0.01409579 -0.00461464 -0.02422472
v -0.01054263 -0.00801634 -0.02278506
v -0.01247409 -0.00666581 -0.02146038
v -0.01438420 -0.00473156 -0.00012930
v -0.01227673 -0.00494487 -0.00388241
v -0.01254947 -0.00891803 0.00511329
v -0.01455265 -0.00518903 0.00629711
v -0.01108047 -0.00810303 0.01118233
v -0.01381814 -0.00390920 0.01182958
v -0.01126295 -0.00512785 0.01482639
v -0.01493233 -0.00359416 0.02365084
v -0.01115466 -0.00651241 0.02590852
v -0.01090301 -0.00277263 -0.02286358
v -0.01333192 0.00011531 -0.02604612
v -0.01378675 0.00122077 -0.01016041
v -0.01167992 0.00214154 -0.01454729
v -0.01121785 -0.00160380 -0.01229757
v -0.01171582 -0.00274210 -0.00763874
v -0.01428194 0.00033144 -0.00442170
v -0.01494979 0.00147588 0.00090891
v -0.01503378 0.00071317 0.00593773
v -0.01440472 0.00071845 0.01122306
v -0.01212589 -0.00069036 0.01495611
v -0.01496681 0.00234585 0.02354368
v -0.01130329 -0.00062686 0.02572554
v -0.01230851 0.00645299 -0.02627000
v -0.01388767 0.00616936 -0.01118278
v -0.01135283 0.00688242 -0.01399324
v -0.01505171 0.00662690 -0.00591205
v -0.01499368 0.00678264 0.00011384
v -0.01492471 0.00596050 0.00523180
v -0.01397048 0.00706817 0.01025614
v -0.01200147 0.00491627 0.01468037
v -0.01502394 0.00814156 0.02355015
v -0.01131503 0.00527706 0.02566944
v -0.01090800 0.01244696 -0.02631836
v -0.01233495 0.01002091 -0.01085769
v -0.01396053 0.01125616 -0.00683651
v -0.01194585 0.01270662 -0.00856422
v -0.01432881 0.01212828 -0.00119808
v -0.01397342 0.01164751 0.00523986
v -0.01224926 0.01189398 0.00953334
v -0.01148853 0.00926555 0.01298413
v -0.01451754 0.01215497 0.02359045
v -0.01080951 0.01181888 0.02551152
v -0.01476241 0.01773293 -0.02388985
v -0.01130294 0.01776378 -0.02596139
v -0.01468001 0.01897083 -0.01819342
v -0.01571743 0.01892199 -0.01187770
v -0.01123343 0.01513562 -0.00537647
v -0.01203157 0.01580386 0.00158030
v -0.01152414 0.01486200 0.00648959
v -0.01483179 0.01826269 0.01765324
v -0.01184740 0.01844820 0.02061992
v -0.01200205 0.01563660 0.02356466
v -0.01161495 0.02021273 -0.02257708
v -0.01130431 0.02206602 -0.01793806
v -0.01180773 0.02424408 -0.01440461
v -0.01367523 0.02277337 -0.01256455
v -0.01476315 0.02326429 -0.00714694
v -0.01484015 0.02421153 -0.00139438
v -0.01492608 0.02426244 0.00434750
v -0.01455146 0.02434134 0.00997393
v -0.01319653 0.02333798 0.01440682
v -0.01175593 0.02133722 0.01766080
v -0.01125433 0.02664929 -0.01135886
v -0.01102036 0.02707447 -0.00437471
v -0.01118899 0.02629605 0.00134095
v -0.01125431 0.02642997 0.00719007
v -0.01041861 0.02629028 0.01282980
v -0.00506171 -0.03061142 0.00143075
v -0.00782089 -0.02870582 -0.00256622
v -0.00592090 -0.03193563 0.00588006
v -0.00895352 -0.02788403 0.01372682
v -0.00612020 -0.03139758 0.01164614
v -0.00754241 -0.02756985 0.01789126
v -0.00573606 -0.03068442 0.01669942
v -0.00458719 -0.02900505 0.01965464
v -0.00922833 -0.02182750 -0.02313897
v -0.00445561 -0.02519757 -0.02396927
v -0.00682237 -0.02212338 -0.02713764
v -0.00894599 -0.02285145 -0.01614900
v -0.00540063 -0.02516942 -0.01761979
v -0.00965204 -0.02306639 -0.01121978
v -0.00592505 -0.02500093 -0.01097606
v -0.00485961 -0.02615535 -0.00468706
v -0.00942829 -0.02298885 0.01740862
v -0.00585263 -0.02346649 0.02016351
v -0.00824057 -0.01816162 -0.02867416
v -0.00550584 -0.02026020 -0.03019888
v -0.00430942 -0.01700994 -0.03140006
v -0.00865728 -0.01579374 -0.00094175
v -0.00648587 -0.01643292 -0.00318838
v -0.00415367 -0.01915973 -0.00048175
v -0.00592067 -0.01727165 0.00295882
v -0.00763413 -0.01533458 0.01158117
v -0.00634048 -0.01618028 0.00850326
v -0.00455056 -0.01890324 0.01064360
v -0.00477033 -0.01742346 0.01377394
v -0.00485023 -0.01828161 0.02166392
v -0.00579802 -0.01437323 -0.02869926
v -0.00632905 -0.01163555 -0.02599198
v -0.00773826 -0.00985491 -0.01065181
v -0.00572459 -0.01101825 -0.01465534
v -0.00582801 -0.01356394 -0.01122562
v -0.00595514 -0.01459374 -0.00747562
v -0.00856982 -0.01227585 -0.00497761
v -0.00734454 -0.01448260 0.00471584
v -0.00934580 -0.01182462 0.00749133
v -0.00908314 -0.01153023 0.01134816
v -0.00585237 -0.01256808 0.01493616
v -0.00757745 -0.01426920 0.02365494
v -0.00555478 -0.01140130 0.02599249
v -0.00705051 -0.00873878 -0.02362149
v -0.00661595 -0.00807362 -0.01942519
v -0.00842732 -0.00506336 -0.01760651
v -0.00925414 -0.00453269 -0.01167067
v -0.00983286 -0.00698654 -0.00640398
v -0.00749153 -0.00790831 0.01684578
v -0.00871826 -0.00349176 0.01790055
v -0.00453507 -0.00641788 0.01991421
v -0.00602163 -0.00526891 0.02648701
v -0.00927006 0.00138655 -0.02253285
v -0.00917180 -0.00054912 -0.01669780
v -0.00910559 0.00217462 0.01796173
v -0.00527500 -0.00078157 0.02026167
v -0.00575836 0.00024829 0.02701415
v -0.00923695 0.00784052 -0.02318116
v -0.00915213 0.00575205 -0.01782899
v -0.00910315 0.00821258 0.01711721
v -0.00535997 0.00520419 0.02027741
v -0.00603912 0.00728197 0.02703502
v -0.00818214 0.01273744 -0.02385531
v -0.00792623 0.01156119 -0.01915385
v -0.00936086 0.01193053 -0.01269470
v -0.00994694 0.01326518 0.01163568
v -0.00820279 0.01368698 0.01652693
v -0.00549106 0.01075978 0.01996975
v -0.00603714 0.01279588 0.02639525
v -0.00489713 0.01555191 -0.02194573
v -0.00711982 0.01689849 -0.02553616
v -0.00587168 0.01441384 -0.01674348
v -0.00643320 0.01596543 -0.01137538
v -0.00833385 0.01799368 -0.00616718
v -0.00624952 0.01828318 -0.00880566
v -0.00922802 0.01856007 -0.00129852
v -0.00917876 0.01801755 0.00527315
v -0.00814739 0.01787810 0.01143186
v -0.00631264 0.01776255 0.01489044
v -0.00445297 0.01518590 0.01804732
v -0.00891050 0.01873710 0.02358798
v -0.00627448 0.01695151 0.02557051
v -0.00746039 0.02100077 -0.02297432
v -0.00885706 0.02425262 -0.01761636
v -0.00409208 0.02323020 -0.02060907
v -0.00481633 0.02094838 -0.00545167
v -0.00547125 0.02084513 0.00145516
v -0.00538194 0.02091280 0.00731734
v -0.00490414 0.02036133 0.01181303
v -0.00906817 0.02484486 0.01689886
v -0.00674467 0.02343415 0.01997650
v -0.00487897 0.02104949 0.02334446
v -0.00690143 0.02714772 -0.01639189
v -0.00847736 0.02982455 -0.01229831
v -0.00451556 0.03025701 -0.01454985
v -0.00877668 0.03016900 -0.00759575
v -0.00684974 0.02963137 -0.00324123
v -0.00662380 0.02802723 0.00054625
v -0.00569988 0.02763068 0.00634967
v -0.00593121 0.02722231 0.01191066
v -0.00541759 0.02638081 0.01709722
v -0.00548772 0.03224335 -0.01006850
v -0.00461007 0.03212288 -0.00469612
v -0.00347811 -0.02802752 -0.00063096
v -0.00090958 -0.02884586 0.00181928
v 0.00081184 -0.03123437 0.00513805
v 0.00021263 -0.03197937 0.01204078
v -0.00116077 -0.03136939 0.01738946
v 0.00010151 -0.02823287 0.02034787
v -0.00380795 -0.02343476 -0.02887481
v 0.00039205 -0.02493309 -0.02786673
v -0.00075019 -0.02106315 -0.03160370
v 0.00056416 -0.02614662 -0.02268491
v -0.00018220 -0.02597865 -0.01755788
v -0.00010522 -0.02565621 -0.01160915
v -0.00080628 -0.02542968 -0.00650913
v 0.00061307 -0.02658519 -0.00161360
v 0.00076382 -0.02200407 0.02122917
v 0.00088843 -0.01669357 -0.03192749
v -0.00299419 -0.01625611 -0.01126374
v 0.00089889 -0.01578306 -0.01405222
v 0.00031924 -0.01866509 -0.01073114
v 0.00022432 -0.01934804 -0.00517881
v -0.00392234 -0.01778659 -0.00536941
v 0.00001739 -0.02042982 0.00001934
v 0.00008119 -0.01953403 0.00615162
v -0.00416334 -0.01768689 0.00682766
v -0.00084726 -0.01964946 0.01216386
v 0.00085489 -0.01607384 0.01510164
v -0.00079515 -0.01866938 0.02298531
v -0.00329050 -0.01610364 0.02395755
v 0.00068236 -0.01526369 0.02524865
v -0.00085511 -0.01442426 -0.02973487
v -0.00024778 -0.01253612 -0.02428759
v -0.00313934 -0.01072378 -0.02170481
v 0.00049450 -0.01287658 -0.01812366
v -0.00275273 -0.01244573 -0.01688287
v -0.00079954 -0.01299792 0.01762528
v -0.00343692 -0.01051025 0.01843894
v 0.00071710 -0.00947913 0.01976430
v -0.00079659 -0.01031491 0.02650661
v -0.00080054 -0.00457545 0.02100662
v 0.00080154 -0.00463639 0.02697000
v -0.00000498 0.00059911 0.02102181
v -0.00082956 -0.00120777 0.02900569
v -0.00269557 0.00233321 0.02949900
v 0.00040378 0.00181724 0.03080388
v -0.00001819 0.00655359 0.02106251
v -0.00220025 0.00713453 0.02903945
v -0.00039327 0.00538807 0.03080752
v -0.00003662 0.01175794 0.02039607
v -0.00078555 0.01197439 0.02699162
v 0.00086323 0.00847908 0.02903397
v -0.00402875 0.01906338 -0.02351435
v -0.00001953 0.01952363 -0.02159534
v -0.00018829 0.01614591 -0.01773494
v -0.00327277 0.01825571 -0.01187155
v 0.00061866 0.01784760 -0.01361392
v 0.00154546 0.01559002 0.01801317
v -0.00152710 0.01868460 0.01491822
v 0.00014927 0.01786183 0.02586573
v 0.00079004 0.02407122 -0.01990721
v 0.00011806 0.02084440 -0.01019072
v -0.00184701 0.02414465 -0.00683839
v 0.00083191 0.02413119 -0.00773401
v -0.00097591 0.02415205 -0.00417017
v 0.00077026 0.02203767 -0.00073978
v 0.00002106 0.02166197 0.00598273
v 0.00002851 0.02105180 0.01110969
v -0.00123418 0.02453807 0.02081934
v 0.00155618 0.02157184 0.02373996
v -0.00158154 0.02714924 -0.01787733
v 0.00136327 0.03026260 -0.01498689
v -0.00006106 0.02549120 -0.00594390
v -0.00372101 0.03044827 -0.00014380
v -0.00253160 0.03002646 0.00443216
v -0.00085765 0.02958208 0.00789990
v 0.00075147 0.02768710 0.01122850
v 0.00004428 0.02667275 0.01710198
v -0.00007600 0.03261928 -0.01124676
v -0.00085864 0.03332268 -0.00663072
v 0.00038480 0.03208802 -0.00057683
v 0.00044955 0.03128835 0.00499212
v 0.00248984 -0.02891593 0.00085748
v 0.00686488 -0.03081616 0.00098068
v 0.00559000 -0.02809471 -0.00214860
v 0.00597649 -0.03186820 0.00571405
v 0.00614259 -0.03123210 0.01140734
v 0.00446685 -0.03087018 0.01751252
v 0.00531550 -0.02698672 0.01999706
v 0.00346217 -0.02223095 -0.03022718
v 0.00663230 -0.02248903 -0.02662310
v 0.00510759 -0.02502122 -0.02317191
v 0.00507577 -0.02519006 -0.01748124
v 0.00621909 -0.02514384 -0.01110722
v 0.00544505 -0.02614030 -0.00577672
v 0.00689715 -0.02151968 0.02010016
v 0.00704646 -0.01955521 -0.02936071
v 0.00470118 -0.01827095 -0.03133982
v 0.00231290 -0.01742749 -0.01138897
v 0.00330935 -0.01741041 -0.00775990
v 0.00665860 -0.01656901 -0.00306959
v 0.00417884 -0.01894600 0.00056556
v 0.00443198 -0.01747939 0.00518227
v 0.00609084 -0.01693689 0.00290351
v 0.00530761 -0.01757410 0.00873130
v 0.00433457 -0.01885748 0.01185728
v 0.00621350 -0.01582739 0.01373208
v 0.00254016 -0.01781127 0.02305820
v 0.00624592 -0.01750290 0.02171586
v 0.00431017 -0.01392465 -0.02872423
v 0.00388271 -0.01095782 -0.02378322
v 0.00790140 -0.01145060 -0.02622983
v 0.00329292 -0.01078413 -0.01907456
v 0.00447952 -0.01217138 -0.01470186
v 0.00522010 -0.01424069 -0.01035883
v 0.00692725 -0.01417855 -0.00580327
v 0.00736790 -0.01521295 0.00531954
v 0.00268732 -0.01212780 0.01754368
v 0.00534265 -0.01253729 0.01539146
v 0.00561695 -0.01491866 0.02396607
v 0.00544070 -0.01121967 0.02592408
v 0.00589350 -0.00883999 -0.02199715
v 0.00673432 -0.00856009 -0.01760065
v 0.00641758 -0.00889090 0.01697028
v 0.00487533 -0.00451093 0.02004808
v 0.00688061 -0.00619532 0.02649752
v 0.00541253 0.00188587 0.02031002
v 0.00219776 0.00014775 0.02900365
v 0.00603793 0.00004401 0.02703047
v 0.00534878 0.00792432 0.02028511
v 0.00268639 0.00488907 0.02949223
v 0.00581089 0.00700268 0.02708713
v 0.00491947 0.01248676 0.01969103
v 0.00610414 0.01244461 0.02659148
v 0.00307106 0.01792287 -0.02296802
v 0.00558215 0.01547954 -0.02311531
v 0.00740204 0.01815325 -0.02546918
v 0.00566577 0.01462529 -0.01844876
v 0.00289614 0.01831829 -0.01190793
v 0.00615221 0.01544303 -0.01233671
v 0.00599213 0.01837346 -0.00891974
v 0.00633426 0.01556504 0.01709025
v 0.00446569 0.01871758 0.01451618
v 0.00577162 0.01765199 0.02558683
v 0.00603629 0.02061349 -0.02273257
v 0.00557285 0.02314606 -0.01987500
v 0.00170301 0.02413859 -0.00506579
v 0.00426340 0.02141658 -0.00601495
v 0.00612874 0.02054686 -0.00082495
v 0.00539572 0.02085901 0.00458255
v 0.00544658 0.02061672 0.01011689
v 0.00481463 0.02385105 0.02078017
v 0.00554108 0.02087082 0.02370352
v 0.00574336 0.02664017 -0.01688908
v 0.00662835 0.02983542 -0.01400830
v 0.00775829 0.02794217 -0.00030667
v 0.00332048 0.03006368 0.00199939
v 0.00521035 0.03049717 -0.00245464
v 0.00584890 0.02769695 0.00665702
v 0.00201188 0.02959878 0.00665643
v 0.00593884 0.02720034 0.01195109
v 0.00628196 0.02642790 0.01598433
v 0.00489662 0.03198366 -0.01192693
v 0.00484712 0.03230858 -0.00684241
v 0.01203380 -0.03061099 0.00076051
v 0.01185643 -0.02803031 -0.00267573
v 0.01012481 -0.03092090 0.00604951
v 0.00967858 -0.02835831 0.01240642
v 0.01189737 -0.02868274 0.00877006
v 0.00781596 -0.02880764 0.01691336
v 0.00845996 -0.02308178 -0.02296008
v 0.00888751 -0.02289024 -0.01880291
v 0.00921430 -0.02276576 -0.01305873
v 0.01101480 -0.02308255 -0.00874895
v 0.01162897 -0.02498313 -0.00600869
v 0.01242384 -0.02561479 0.01123738
v 0.00912371 -0.02441611 0.01710719
v 0.01162632 -0.02251623 0.01484510
v 0.00793842 -0.01586619 -0.02923783
v 0.01040957 -0.01678951 -0.02667222
v 0.01141749 -0.01993123 -0.02227364
v 0.01187243 -0.01985234 -0.01595478
v 0.01210473 -0.02057720 -0.01082214
v 0.00777205 -0.01654973 0.00074341
v 0.00773342 -0.01564990 0.01054541
v 0.01197749 -0.02019150 0.01680418
v 0.01055517 -0.01748074 0.02014347
v 0.01211552 -0.01194595 -0.02533162
v 0.00779610 -0.00924082 -0.01170052
v 0.00889487 -0.01039450 -0.00621992
v 0.01063750 -0.01182855 -0.00284097
v 0.01059974 -0.01343476 0.00072461
v 0.00985912 -0.01208512 0.00608758
v 0.01258855 -0.01022936 0.00310663
v 0.00881587 -0.01138670 0.01186460
v 0.01139431 -0.01397252 0.02254724
v 0.01122825 -0.00951687 0.02550705
v 0.01001458 -0.00800592 -0.02255507
v 0.00881562 -0.00496880 -0.01785261
v 0.01269990 -0.00597179 -0.02199248
v 0.00926081 -0.00416200 -0.01276810
v 0.00982978 -0.00591939 -0.00740237
v 0.01193675 -0.00699921 -0.00316251
v 0.01212492 -0.00850878 0.00746084
v 0.01104345 -0.00740849 0.01286316
v 0.00914621 -0.00541950 0.01705929
v 0.01212490 -0.00352968 0.01460454
v 0.01118165 -0.00398730 0.02580354
v 0.00927752 0.00051511 -0.02191210
v 0.01231109 -0.00276183 -0.02426432
v 0.01216828 0.00089102 -0.02590361
v 0.00916710 0.00070029 -0.01705318
v 0.01121001 0.00011919 -0.01414641
v 0.01169064 -0.00206240 -0.01015782
v 0.01223453 -0.00327750 -0.00542896
v 0.00914045 -0.00099832 0.01801171
v 0.01201458 0.00199748 0.01513880
v 0.01126505 0.00194889 0.02572340
v 0.00910288 0.00674851 -0.02303361
v 0.01233371 0.00644078 -0.02638053
v 0.00910498 0.00709148 -0.01732038
v 0.01174207 0.00483828 -0.01458891
v 0.00910545 0.00580635 0.01738806
v 0.01151072 0.00710227 0.01418981
v 0.01138330 0.00771961 0.02586038
v 0.00850736 0.01188409 -0.02307775
v 0.01138135 0.01283884 -0.02641198
v 0.00788112 0.01197337 -0.01750478
v 0.01147855 0.00924431 -0.01245892
v 0.00923254 0.01186989 -0.01268910
v 0.01171155 0.01221691 -0.00917032
v 0.00995967 0.01230939 0.01259117
v 0.01226674 0.01020740 0.01122516
v 0.01149867 0.01366899 0.00859651
v 0.00816072 0.01210467 0.01720808
v 0.01068293 0.01321978 0.02562399
v 0.01283289 0.01712928 -0.02588546
v 0.00882774 0.01839619 -0.00409511
v 0.01077157 0.01543565 -0.00638276
v 0.00914313 0.01854265 0.00153958
v 0.01216505 0.01558224 -0.00123064
v 0.00906725 0.01778565 0.00753508
v 0.01197875 0.01540626 0.00430347
v 0.00821445 0.01720158 0.01301413
v 0.01201805 0.01511873 0.02370050
v 0.00899779 0.01887776 0.02308966
v 0.01191811 0.01823371 0.02059207
v 0.01044652 0.02022207 -0.02382112
v 0.01097476 0.02160666 -0.01940153
v 0.00908459 0.02418634 -0.01755249
v 0.01170594 0.02377211 -0.01534438
v 0.01177452 0.02145970 0.01754252
v 0.00926684 0.02302599 0.01866113
v 0.01147415 0.02407456 0.01535499
v 0.01071164 0.02712963 -0.01252669
v 0.00886573 0.03017989 -0.01009884
v 0.01139717 0.02704582 -0.00651223
v 0.00832367 0.02966444 -0.00546859
v 0.01178143 0.02621512 -0.00080275
v 0.01103548 0.02643872 0.00457565
v 0.01057095 0.02636725 0.01097553
v 0.01465524 -0.02898495 -0.00001137
v 0.01436009 -0.02858652 0.00464667
v 0.01442783 -0.02090486 -0.00648188
v 0.01659972 -0.02358579 -0.00293979
v 0.01749437 -0.02598914 0.00085835
v 0.01692284 -0.02515368 0.00663200
v 0.01472684 -0.02259797 0.01170741
v 0.01831816 -0.02205859 0.00897908
v 0.01386193 -0.01553477 -0.02364142
v 0.01495355 -0.01605085 -0.01908995
v 0.01466805 -0.01740194 -0.01215106
v 0.01584986 -0.01674819 -0.00701826
v 0.01774360 -0.01861303 -0.00321556
v 0.01683652 -0.01941052 0.01297538
v 0.01489044 -0.01674891 0.01759477
v 0.01836592 -0.01603922 0.01503766
v 0.01426259 -0.01120370 -0.02259411
v 0.01687992 -0.01129412 -0.02036842
v 0.01774987 -0.01387118 -0.01603797
v 0.01753904 -0.01401850 -0.01039132
v 0.01797730 -0.01479849 -0.00548357
v 0.01362393 -0.00934610 0.00023300
v 0.01695549 -0.01357945 0.01905970
v 0.01496404 -0.01115848 0.02286188
v 0.01787658 -0.00931704 0.02041991
v 0.01622621 -0.00420007 -0.02544697
v 0.01467899 -0.00540206 -0.02378790
v 0.01746982 -0.00782959 -0.02270437
v 0.01435366 -0.00373269 -0.00030027
v 0.01452061 -0.00554298 0.00547979
v 0.01379504 -0.00525156 0.01050910
v 0.01487958 -0.00671499 0.02369940
v 0.01779685 -0.00370542 0.02077619
v 0.01707349 0.00018137 -0.02636609
v 0.01382515 0.00228297 -0.01142113
v 0.01427765 0.00061201 -0.00551226
v 0.01495365 0.00162827 0.00082648
v 0.01501582 0.00072364 0.00607089
v 0.01436293 -0.00072174 0.01130461
v 0.01484441 -0.00089490 0.02362263
v 0.01780351 0.00214152 0.02079335
v 0.01715187 0.00627650 -0.02638978
v 0.01403352 0.00763166 -0.01040682
v 0.01511251 0.00658111 -0.00604053
v 0.01498891 0.00664581 0.00002836
v 0.01493616 0.00592828 0.00531007
v 0.01398341 0.00582386 0.01097628
v 0.01495842 0.00490852 0.02367171
v 0.01782698 0.00791764 0.02090440
v 0.01718569 0.01204822 -0.02590582
v 0.01413219 0.01180981 -0.00535198
v 0.01439526 0.01191451 0.00009359
v 0.01395236 0.01097060 0.00642624
v 0.01440109 0.01185792 0.02297030
v 0.01741181 0.01284060 0.02006614
v 0.01710426 0.01538517 -0.02380738
v 0.01447584 0.01841043 -0.02193556
v 0.01789253 0.01519934 -0.01901479
v 0.01490718 0.01909331 -0.01600585
v 0.01775577 0.01553195 -0.01333731
v 0.01577604 0.01957664 -0.01050380
v 0.01802490 0.01744659 -0.00901450
v 0.01479411 0.01840503 0.01772358
v 0.01737807 0.01939453 0.01450603
v 0.01819439 0.01594497 0.01716741
v 0.01383961 0.02334717 -0.01131453
v 0.01722616 0.02046832 -0.00612774
v 0.01471910 0.02357360 -0.00514763
v 0.01769450 0.02142950 -0.00118525
v 0.01472122 0.02431520 0.00162614
v 0.01780117 0.02157204 0.00473542
v 0.01478899 0.02439154 0.00746034
v 0.01779340 0.02121586 0.01025570
v 0.01480813 0.02306442 0.01258958
v 0.01992704 -0.02125347 0.00059056
v 0.02000390 -0.02230686 0.00528683
v 0.02007737 -0.01553163 -0.00038268
v 0.02088837 -0.01700811 0.00577558
v 0.02004678 -0.01728951 0.01098765
v 0.01993468 -0.00977971 -0.01815158
v 0.01994478 -0.01063273 -0.01196219
v 0.01990809 -0.01114016 -0.00546943
v 0.02051848 -0.01034513 0.00063689
v 0.02067732 -0.01104626 0.00586869
v 0.02079845 -0.01101942 0.01184366
v 0.01982194 -0.01200369 0.01629037
v 0.01995769 -0.00492121 -0.02270200
v 0.02077055 -0.00493377 -0.01702959
v 0.02064201 -0.00554270 -0.01192437
v 0.02053164 -0.00538881 -0.00603414
v 0.02047512 -0.00530138 -0.00014742
v 0.02052015 -0.00513146 0.00582947
v 0.02063871 -0.00497058 0.01190166
v 0.02005054 -0.00632284 0.01710867
v 0.02025020 0.00151237 -0.02328121
v 0.02077961 0.00015858 -0.01784089
v 0.02054146 0.00036795 -0.01178098
v 0.02044112 0.00055100 -0.00585865
v 0.02041545 0.00067659 -0.00001309
v 0.02046834 0.00084440 0.00591682
v 0.02058069 0.00094127 0.01190185
v 0.01995894 -0.00043206 0.01712019
v 0.02029407 0.00762967 -0.02305855
v 0.02084777 0.00622362 -0.01770052
v 0.02061029 0.00639529 -0.01172800
v 0.02048474 0.00656122 -0.00582785
v 0.02044940 0.00668433 0.00007156
v 0.02051547 0.00683267 0.00600393
v 0.02060998 0.00686463 0.01198508
v 0.01998713 0.00543064 0.01721215
v 0.01970425 0.01226740 -0.02245924
v 0.02016691 0.01144945 -0.01761136
v 0.02005291 0.01261686 -0.01124859
v 0.02062202 0.01255302 -0.00564737
v 0.02062191 0.01264132 0.00018175
v 0.02061017 0.01273615 0.00612778
v 0.02065045 0.01194561 0.01122929
v 0.01983418 0.01172957 0.01683404
v 0.01956778 0.01772273 -0.00527017
v 0.02001039 0.01784617 0.00023403
v 0.01999646 0.01790286 0.00614970
v 0.01980939 0.01683754 0.01239737
f 3 2 1
f 5 4 1
f 5 1 2
f 6 4 5
f 3 1 7
f 3 7 8
f 9 1 4
f 7 1 9
f 4 6 10
f 11 4 10
f 9 4 11
f 12 11 10
f 15 14 13
f 17 16 13
f 17 13 14
f 19 18 16
f 19 16 17
f 18 19 8
f 7 18 8
f 20 18 7
f 21 7 9
f 20 7 21
f 22 9 11
f 21 9 22
f 11 12 23
f 24 11 23
f 22 11 24
f 25 24 23
f 28 27 26
f 26 27 15
f 13 26 15
f 29 26 13
f 30 13 16
f 29 13 30
f 31 16 18
f 30 16 31
f 32 18 20
f 31 18 32
f 33 20 21
f 32 20 33
f 34 21 22
f 33 21 34
f 35 22 24
f 34 22 35
f 24 25 36
f 24 36 35
f 28 26 37
f 28 37 38
f 39 26 29
f 37 26 39
f 40 29 30
f 39 29 40
f 41 30 31
f 40 30 41
f 42 31 32
f 41 31 42
f 43 32 33
f 42 32 43
f 44 33 34
f 43 33 44
f 45 34 35
f 44 34 45
f 35 36 46
f 35 46 45
f 38 37 47
f 38 47 48
f 49 37 39
f 47 37 49
f 50 39 40
f 49 39 50
f 51 40 41
f 50 40 51
f 52 41 42
f 51 41 52
f 53 42 43
f 52 42 53
f 54 43 44
f 53 43 54
f 55 44 45
f 54 44 55
f 45 46 56
f 45 56 55
f 48 47 57
f 48 57 58
f 59 47 49
f 57 47 59
f 60 49 50
f 59 49 60
f 61 50 51
f 60 50 61
f 62 51 52
f 61 51 62
f 63 52 53
f 62 52 63
f 64 53 54
f 63 53 64
f 65 54 55
f 64 54 65
f 55 56 66
f 55 66 65
f 67 58 57
f 67 57 59
f 67 59 68
f 68 59 60
f 68 60 69
f 71 70 69
f 60 71 69
f 61 71 60
f 72 61 62
f 71 61 72
f 73 62 63
f 72 62 73
f 74 63 64
f 73 63 74
f 65 76 75
f 74 65 75
f 64 65 74
f 76 65 66
f 77 70 71
f 77 71 72
f 77 72 78
f 78 72 73
f 78 73 79
f 79 73 74
f 79 74 80
f 80 74 75
f 83 82 81
f 85 84 81
f 85 81 82
f 86 84 85
f 89 88 87
f 87 88 83
f 87 83 81
f 3 87 81
f 2 3 81
f 2 81 5
f 5 81 84
f 91 90 6
f 91 6 5
f 86 91 5
f 84 86 5
f 92 90 91
f 95 94 93
f 97 96 93
f 97 93 94
f 99 98 96
f 99 96 97
f 98 99 89
f 87 98 89
f 100 98 87
f 8 100 3
f 3 100 87
f 90 10 6
f 102 101 12
f 102 12 10
f 92 102 10
f 90 92 10
f 103 101 102
f 95 93 104
f 95 104 105
f 15 104 14
f 104 96 14
f 104 93 96
f 14 96 17
f 17 96 98
f 17 98 19
f 19 98 100
f 19 100 8
f 108 107 106
f 107 109 106
f 101 23 12
f 111 110 25
f 111 25 23
f 103 111 23
f 101 103 23
f 112 110 111
f 27 28 113
f 104 114 105
f 114 104 115
f 104 15 115
f 27 113 115
f 27 115 15
f 107 108 116
f 116 108 117
f 109 107 118
f 107 119 118
f 107 116 119
f 121 120 119
f 119 120 118
f 121 122 120
f 123 36 110
f 110 36 25
f 110 112 124
f 110 124 123
f 126 125 113
f 28 126 113
f 38 126 28
f 113 125 115
f 129 128 127
f 131 130 127
f 127 130 129
f 130 131 117
f 131 116 117
f 131 132 116
f 116 133 119
f 116 132 133
f 119 134 121
f 119 133 134
f 122 121 135
f 135 121 134
f 136 46 123
f 123 46 36
f 123 124 137
f 123 137 136
f 48 126 38
f 48 138 126
f 127 128 139
f 139 128 140
f 127 141 131
f 127 139 141
f 131 142 132
f 131 141 142
f 132 143 133
f 132 142 143
f 133 144 134
f 133 143 144
f 135 134 145
f 145 134 144
f 146 56 136
f 136 56 46
f 136 137 147
f 136 147 146
f 58 138 48
f 58 148 138
f 140 149 139
f 151 150 149
f 150 139 149
f 150 141 139
f 141 152 142
f 141 150 152
f 142 153 143
f 142 152 153
f 155 144 154
f 144 153 154
f 144 143 153
f 144 155 145
f 156 66 146
f 146 66 56
f 146 147 157
f 146 157 156
f 58 67 158
f 159 58 158
f 148 58 159
f 68 160 67
f 67 160 158
f 69 161 68
f 68 161 160
f 151 162 150
f 161 69 70
f 150 162 152
f 152 162 163
f 152 163 153
f 153 163 164
f 153 164 154
f 165 75 76
f 166 165 76
f 166 76 66
f 167 166 66
f 156 167 66
f 167 156 157
f 168 159 158
f 168 158 160
f 168 160 169
f 171 170 169
f 160 171 169
f 161 171 160
f 77 172 70
f 172 161 70
f 172 171 161
f 78 173 77
f 77 173 172
f 79 174 78
f 78 174 173
f 80 175 79
f 79 175 174
f 176 175 80
f 176 80 75
f 177 176 75
f 165 177 75
f 177 165 166
f 178 170 171
f 178 171 172
f 178 172 179
f 179 172 173
f 179 173 180
f 180 173 174
f 180 174 181
f 181 174 175
f 181 175 182
f 182 175 176
f 184 183 82
f 184 82 83
f 82 185 85
f 183 185 82
f 187 186 86
f 85 187 86
f 185 187 85
f 189 188 186
f 189 186 187
f 190 188 189
f 193 192 191
f 195 194 191
f 195 191 192
f 197 196 194
f 197 194 195
f 88 89 196
f 197 88 196
f 198 88 197
f 83 88 184
f 184 88 198
f 186 91 86
f 91 186 92
f 186 199 92
f 186 188 199
f 188 190 200
f 188 200 199
f 203 202 201
f 201 202 193
f 201 193 191
f 95 201 191
f 94 95 191
f 94 191 97
f 97 191 194
f 97 194 99
f 99 194 196
f 99 196 89
f 206 205 204
f 204 207 206
f 210 209 208
f 199 102 92
f 211 210 208
f 103 102 199
f 200 103 199
f 212 103 200
f 213 203 201
f 201 95 213
f 95 214 213
f 95 105 214
f 217 216 215
f 219 218 215
f 215 218 217
f 218 219 205
f 205 219 204
f 219 108 204
f 108 106 204
f 221 220 109
f 109 220 106
f 220 207 106
f 207 204 106
f 220 221 209
f 221 208 209
f 221 222 208
f 211 208 223
f 223 208 222
f 212 224 103
f 103 224 111
f 112 111 224
f 112 224 225
f 226 214 105
f 226 105 114
f 228 227 115
f 227 114 115
f 227 226 114
f 227 228 216
f 228 215 216
f 228 229 215
f 215 230 219
f 215 229 230
f 230 117 108
f 230 108 219
f 118 221 109
f 221 118 120
f 221 120 222
f 232 231 122
f 122 231 120
f 231 223 120
f 223 222 120
f 232 233 231
f 225 124 112
f 234 124 225
f 126 235 125
f 228 115 125
f 235 228 125
f 236 228 235
f 236 128 129
f 229 236 129
f 228 236 229
f 229 129 130
f 229 130 230
f 230 130 117
f 135 237 232
f 135 232 122
f 233 232 238
f 238 232 237
f 234 137 124
f 239 137 234
f 138 240 235
f 138 235 126
f 235 241 236
f 235 240 241
f 241 140 128
f 241 128 236
f 145 242 237
f 145 237 135
f 238 237 243
f 243 237 242
f 239 147 137
f 244 147 239
f 148 245 240
f 148 240 138
f 240 246 241
f 240 245 246
f 247 149 140
f 241 247 140
f 246 247 241
f 247 151 149
f 154 248 155
f 242 145 155
f 248 242 155
f 249 242 248
f 243 242 250
f 250 242 249
f 244 157 147
f 251 157 244
f 253 252 245
f 148 253 245
f 159 253 148
f 245 252 246
f 246 252 254
f 246 254 247
f 247 254 255
f 255 257 256
f 255 256 162
f 247 255 162
f 151 247 162
f 258 163 162
f 258 162 256
f 259 164 163
f 259 163 258
f 248 154 164
f 259 248 164
f 260 248 259
f 262 249 261
f 249 260 261
f 249 248 260
f 263 166 167
f 262 250 249
f 264 263 167
f 157 264 167
f 251 264 157
f 265 253 159
f 265 159 168
f 267 265 266
f 265 169 266
f 265 168 169
f 170 266 169
f 257 268 256
f 256 268 258
f 258 268 269
f 258 269 259
f 259 269 270
f 259 270 260
f 260 270 271
f 272 176 177
f 271 261 260
f 273 272 177
f 273 177 166
f 274 273 166
f 263 274 166
f 274 263 264
f 275 267 266
f 277 275 276
f 276 275 178
f 275 266 178
f 266 170 178
f 179 278 178
f 178 278 276
f 278 179 279
f 179 280 279
f 179 180 280
f 281 180 181
f 281 280 180
f 282 181 182
f 282 281 181
f 182 176 272
f 283 182 272
f 282 182 283
f 283 272 273
f 284 277 276
f 284 276 278
f 284 278 285
f 285 278 279
f 184 286 183
f 183 286 287
f 288 183 287
f 185 183 288
f 185 289 187
f 288 289 185
f 187 290 189
f 289 290 187
f 190 189 290
f 190 290 291
f 294 293 292
f 192 193 292
f 293 192 292
f 295 192 293
f 192 296 195
f 295 296 192
f 195 297 197
f 296 297 195
f 197 298 198
f 297 298 197
f 184 198 286
f 198 299 286
f 198 298 299
f 286 299 287
f 291 200 190
f 300 200 291
f 294 292 202
f 203 294 202
f 301 294 203
f 202 292 193
f 304 303 302
f 306 305 302
f 302 305 304
f 205 206 306
f 206 305 306
f 206 307 305
f 309 308 207
f 308 206 207
f 308 307 206
f 209 210 309
f 210 308 309
f 210 310 308
f 210 211 310
f 310 211 311
f 313 212 312
f 212 300 312
f 212 200 300
f 314 313 312
f 315 301 203
f 315 203 213
f 317 316 214
f 316 213 214
f 316 315 213
f 319 318 317
f 317 318 316
f 318 319 303
f 303 319 302
f 319 216 302
f 216 217 302
f 302 217 218
f 302 218 306
f 306 218 205
f 220 309 207
f 309 220 209
f 223 321 320
f 311 223 320
f 211 223 311
f 313 224 212
f 322 320 321
f 225 224 313
f 314 225 313
f 323 225 314
f 226 317 214
f 317 226 227
f 317 227 319
f 319 227 216
f 231 321 223
f 231 233 321
f 233 322 321
f 233 324 322
f 323 234 225
f 325 234 323
f 238 324 233
f 238 326 324
f 328 239 327
f 239 325 327
f 239 234 325
f 329 328 327
f 243 326 238
f 243 330 326
f 331 244 328
f 328 244 239
f 328 329 332
f 328 332 331
f 250 330 243
f 250 333 330
f 335 334 331
f 334 244 331
f 334 251 244
f 335 331 332
f 253 336 252
f 252 336 337
f 338 252 337
f 254 252 338
f 338 340 339
f 255 338 339
f 254 338 255
f 339 257 255
f 342 341 262
f 342 262 261
f 250 262 333
f 333 262 341
f 334 264 251
f 343 264 334
f 265 336 253
f 265 267 336
f 267 337 336
f 267 344 337
f 340 345 339
f 345 347 346
f 345 346 268
f 339 345 268
f 257 339 268
f 268 346 348
f 349 268 348
f 269 268 349
f 269 350 270
f 349 350 269
f 270 351 271
f 350 351 270
f 261 271 342
f 342 271 351
f 353 352 274
f 274 352 273
f 274 264 343
f 274 343 353
f 354 344 267
f 354 267 275
f 275 277 354
f 354 277 355
f 347 356 346
f 357 279 280
f 356 348 346
f 281 358 280
f 280 358 357
f 358 281 359
f 281 360 359
f 281 282 360
f 361 282 283
f 361 360 282
f 283 273 352
f 283 352 361
f 362 355 277
f 362 277 284
f 363 284 285
f 363 362 284
f 285 279 357
f 364 285 357
f 363 285 364
f 364 357 358
f 364 358 365
f 365 358 359
f 368 367 366
f 288 287 366
f 367 288 366
f 369 288 367
f 288 370 289
f 369 370 288
f 289 371 290
f 370 371 289
f 291 290 371
f 291 371 372
f 294 373 293
f 293 373 374
f 375 293 374
f 295 293 375
f 295 376 296
f 375 376 295
f 296 377 297
f 376 377 296
f 297 378 298
f 377 378 297
f 366 299 368
f 299 378 368
f 299 298 378
f 299 366 287
f 372 300 291
f 379 300 372
f 381 380 373
f 294 381 373
f 301 381 294
f 373 380 374
f 382 303 304
f 305 383 304
f 304 383 382
f 383 305 384
f 305 385 384
f 305 307 385
f 387 385 386
f 385 308 386
f 385 307 308
f 386 308 388
f 308 389 388
f 308 310 389
f 310 311 389
f 389 311 390
f 312 300 391
f 300 392 391
f 300 379 392
f 391 314 312
f 393 381 301
f 393 301 315
f 395 393 394
f 393 316 394
f 393 315 316
f 318 396 316
f 316 396 394
f 397 396 318
f 397 318 303
f 398 397 303
f 382 398 303
f 398 382 383
f 398 383 399
f 399 383 384
f 400 387 386
f 400 386 388
f 311 320 401
f 402 311 401
f 390 311 402
f 392 403 391
f 401 320 322
f 314 391 403
f 404 314 403
f 323 314 404
f 405 395 394
f 405 394 396
f 405 396 406
f 406 396 397
f 407 402 401
f 401 322 407
f 322 408 407
f 322 324 408
f 404 325 323
f 409 325 404
f 326 408 324
f 326 410 408
f 327 325 411
f 325 412 411
f 325 409 412
f 411 329 327
f 330 410 326
f 330 413 410
f 411 412 414
f 414 412 415
f 414 332 329
f 414 329 411
f 333 413 330
f 333 416 413
f 414 415 335
f 415 334 335
f 415 417 334
f 414 335 332
f 420 419 418
f 338 337 418
f 419 338 418
f 421 338 419
f 423 422 340
f 338 423 340
f 421 423 338
f 424 422 423
f 426 425 341
f 426 341 342
f 333 341 416
f 416 341 425
f 417 343 334
f 427 343 417
f 428 420 418
f 418 337 428
f 337 429 428
f 337 344 429
f 422 345 340
f 431 430 347
f 431 347 345
f 424 431 345
f 422 424 345
f 349 348 430
f 431 349 430
f 432 349 431
f 349 433 350
f 432 433 349
f 350 434 351
f 433 434 350
f 342 351 426
f 426 351 434
f 436 435 353
f 353 435 352
f 353 343 427
f 353 427 436
f 437 429 344
f 437 344 354
f 354 355 437
f 437 355 438
f 430 356 347
f 356 430 348
f 441 440 439
f 443 442 440
f 440 442 439
f 359 360 443
f 360 442 443
f 360 444 442
f 445 360 361
f 445 444 360
f 361 352 435
f 361 435 445
f 446 438 355
f 446 355 362
f 447 362 363
f 447 446 362
f 364 440 441
f 447 364 441
f 363 364 447
f 440 364 365
f 440 365 443
f 443 365 359
f 449 448 367
f 449 367 368
f 367 450 369
f 448 450 367
f 450 452 451
f 370 450 451
f 369 450 370
f 453 371 370
f 453 370 451
f 453 372 371
f 374 454 375
f 455 376 375
f 455 375 454
f 456 377 376
f 456 376 455
f 377 456 457
f 458 377 457
f 378 377 458
f 368 378 449
f 449 378 458
f 452 459 451
f 461 460 459
f 460 451 459
f 460 453 451
f 460 379 372
f 460 372 453
f 381 462 380
f 462 463 380
f 380 463 374
f 463 464 374
f 464 454 374
f 454 464 455
f 455 464 465
f 455 465 456
f 456 465 466
f 456 466 457
f 467 384 385
f 387 467 385
f 468 388 389
f 461 469 460
f 468 389 390
f 379 460 469
f 470 379 469
f 392 379 470
f 393 462 381
f 393 395 462
f 395 463 462
f 395 471 463
f 472 397 398
f 399 473 398
f 398 473 472
f 474 473 399
f 474 399 384
f 475 474 384
f 467 475 384
f 477 475 476
f 476 475 400
f 475 467 400
f 467 387 400
f 388 468 400
f 468 476 400
f 468 478 476
f 402 478 390
f 390 478 468
f 470 479 392
f 392 479 403
f 404 403 479
f 404 479 480
f 481 471 395
f 481 395 405
f 483 481 482
f 481 406 482
f 481 405 406
f 397 472 406
f 472 482 406
f 472 484 482
f 485 472 473
f 484 472 485
f 473 474 486
f 473 486 485
f 487 477 476
f 487 476 478
f 487 478 488
f 490 488 489
f 489 488 407
f 488 478 407
f 478 402 407
f 408 489 407
f 480 409 404
f 491 409 480
f 494 493 492
f 492 493 483
f 482 492 483
f 495 492 482
f 484 497 496
f 495 484 496
f 482 484 495
f 497 484 485
f 497 485 498
f 498 485 486
f 490 489 499
f 490 499 500
f 410 499 408
f 408 499 489
f 491 412 409
f 501 412 491
f 494 492 502
f 494 502 503
f 504 492 495
f 502 492 504
f 495 496 505
f 495 505 504
f 500 499 506
f 500 506 507
f 413 506 410
f 410 506 499
f 501 415 412
f 508 415 501
f 503 502 509
f 503 509 510
f 511 502 504
f 509 502 511
f 504 505 512
f 513 504 512
f 511 504 513
f 514 513 512
f 517 516 515
f 515 516 507
f 506 515 507
f 518 515 506
f 416 518 413
f 413 518 506
f 508 417 415
f 519 417 508
f 510 509 419
f 420 510 419
f 520 510 420
f 419 509 421
f 421 509 511
f 421 511 423
f 423 511 513
f 522 521 424
f 522 424 423
f 514 522 423
f 513 514 423
f 524 523 521
f 524 521 522
f 526 525 523
f 526 523 524
f 525 526 517
f 515 525 517
f 527 525 515
f 426 527 425
f 527 518 425
f 527 515 518
f 425 518 416
f 530 529 528
f 519 528 529
f 427 519 529
f 417 519 427
f 531 520 420
f 531 420 428
f 533 532 429
f 532 428 429
f 532 531 428
f 533 534 532
f 521 431 424
f 431 521 432
f 432 521 523
f 432 523 433
f 433 523 525
f 433 525 434
f 434 525 527
f 434 527 426
f 537 536 535
f 535 536 530
f 530 536 529
f 536 435 529
f 435 436 529
f 529 436 427
f 437 533 429
f 539 538 438
f 438 538 437
f 538 534 437
f 534 533 437
f 541 540 539
f 539 540 538
f 441 439 541
f 439 540 541
f 439 542 540
f 543 439 442
f 543 542 439
f 544 442 444
f 544 543 442
f 445 536 537
f 544 445 537
f 444 445 544
f 536 445 435
f 446 539 438
f 539 446 447
f 539 447 541
f 541 447 441
f 449 545 448
f 546 450 448
f 546 448 545
f 546 452 450
f 457 547 458
f 547 548 458
f 458 548 449
f 548 549 449
f 549 545 449
f 545 549 546
f 546 549 550
f 550 552 551
f 550 551 459
f 546 550 459
f 452 546 459
f 551 461 459
f 463 553 464
f 554 465 464
f 554 464 553
f 555 466 465
f 555 465 554
f 547 457 466
f 555 547 466
f 556 547 555
f 548 547 557
f 557 547 556
f 552 558 551
f 558 560 559
f 558 559 469
f 551 558 469
f 461 551 469
f 559 470 469
f 471 561 553
f 471 553 463
f 563 554 562
f 554 561 562
f 554 553 561
f 554 563 555
f 555 563 564
f 555 564 556
f 556 564 565
f 566 474 475
f 565 557 556
f 477 566 475
f 560 567 559
f 567 569 568
f 567 568 479
f 559 567 479
f 470 559 479
f 568 480 479
f 561 471 481
f 572 571 570
f 571 572 483
f 572 562 483
f 561 481 483
f 561 483 562
f 573 486 566
f 566 486 474
f 487 574 477
f 574 566 477
f 574 573 566
f 488 575 487
f 487 575 574
f 490 575 488
f 568 569 576
f 576 569 577
f 576 491 480
f 576 480 568
f 570 571 493
f 494 570 493
f 578 570 494
f 493 571 483
f 579 496 497
f 498 580 497
f 497 580 579
f 486 573 498
f 573 580 498
f 573 581 580
f 582 573 574
f 581 573 582
f 583 574 575
f 582 574 583
f 500 583 490
f 490 583 575
f 576 577 584
f 584 577 585
f 584 501 491
f 584 491 576
f 503 578 494
f 503 586 578
f 587 505 579
f 579 505 496
f 588 579 580
f 587 579 588
f 589 580 581
f 588 580 589
f 590 581 582
f 589 581 590
f 591 582 583
f 590 582 591
f 507 591 500
f 500 591 583
f 584 585 592
f 592 585 593
f 592 508 501
f 592 501 584
f 510 586 503
f 510 594 586
f 587 512 505
f 512 587 514
f 587 595 514
f 587 588 595
f 596 588 589
f 595 588 596
f 597 589 590
f 596 589 597
f 517 597 516
f 597 591 516
f 597 590 591
f 516 591 507
f 592 593 598
f 598 593 599
f 598 519 508
f 598 508 592
f 520 601 600
f 594 520 600
f 510 520 594
f 603 602 601
f 601 602 600
f 605 604 603
f 603 604 602
f 595 522 514
f 606 604 605
f 522 595 524
f 524 595 596
f 524 596 526
f 526 596 597
f 526 597 517
f 609 608 607
f 609 607 599
f 599 607 598
f 607 530 598
f 530 528 598
f 598 528 519
f 531 601 520
f 601 531 532
f 601 532 603
f 603 532 534
f 610 603 534
f 605 603 610
f 606 605 611
f 605 612 611
f 605 610 612
f 614 613 612
f 612 613 611
f 616 615 614
f 614 615 613
f 618 617 616
f 616 617 615
f 617 618 608
f 608 618 607
f 618 537 607
f 537 535 607
f 607 535 530
f 538 610 534
f 610 538 540
f 610 540 612
f 612 540 542
f 612 542 614
f 614 542 543
f 614 543 616
f 616 543 544
f 616 544 618
f 618 544 537
f 548 619 549
f 620 550 549
f 620 549 619
f 620 552 550
f 557 621 619
f 557 619 548
f 619 622 620
f 619 621 622
f 623 558 552
f 620 623 552
f 622 623 620
f 623 560 558
f 562 624 563
f 625 564 563
f 625 563 624
f 626 565 564
f 626 564 625
f 621 557 565
f 626 621 565
f 627 621 626
f 621 628 622
f 621 627 628
f 622 629 623
f 622 628 629
f 630 567 560
f 623 630 560
f 629 630 623
f 630 569 567
f 570 631 572
f 624 562 572
f 631 624 572
f 632 624 631
f 624 633 625
f 624 632 633
f 625 634 626
f 625 633 634
f 626 635 627
f 626 634 635
f 627 636 628
f 627 635 636
f 628 637 629
f 628 636 637
f 629 638 630
f 629 637 638
f 638 577 569
f 638 569 630
f 578 639 631
f 578 631 570
f 631 640 632
f 631 639 640
f 632 641 633
f 632 640 641
f 633 642 634
f 633 641 642
f 634 643 635
f 634 642 643
f 635 644 636
f 635 643 644
f 636 645 637
f 636 644 645
f 637 646 638
f 637 645 646
f 646 585 577
f 646 577 638
f 586 647 639
f 586 639 578
f 639 648 640
f 639 647 648
f 640 649 641
f 640 648 649
f 641 650 642
f 641 649 650
f 642 651 643
f 642 650 651
f 643 652 644
f 643 651 652
f 644 653 645
f 644 652 653
f 645 654 646
f 645 653 654
f 654 593 585
f 654 585 646
f 594 655 647
f 594 647 586
f 647 656 648
f 647 655 656
f 648 657 649
f 648 656 657
f 649 658 650
f 649 657 658
f 650 659 651
f 650 658 659
f 651 660 652
f 651 659 660
f 652 661 653
f 652 660 661
f 653 662 654
f 653 661 662
f 662 599 593
f 662 593 654
f 600 655 594
f 655 600 602
f 655 602 656
f 656 602 604
f 656 604 657
f 657 604 606
f 663 657 606
f 658 657 663
f 658 664 659
f 658 663 664
f 659 665 660
f 659 664 665
f 660 666 661
f 660 665 666
f 666 608 609
f 662 666 609
f 661 666 662
f 662 609 599
f 611 663 606
f 663 611 613
f 663 613 664
f 664 613 615
f 664 615 665
f 665 615 617
f 665 617 666
f 666 617 608

