# https://github.com/mikedh/trimesh
v -0.02244895 -0.02060853 -0.02003572
v -0.01982994 -0.02248992 -0.02073322
v -0.02104577 -0.02022524 -0.02249982
v -0.02268446 -0.02056204 -0.01602577
v -0.02063084 -0.02267914 -0.01697004
v -0.02261217 -0.02053482 -0.01181877
v -0.02057443 -0.02261141 -0.01273705
v -0.02260281 -0.02053607 -0.00767559
v -0.02053386 -0.02260316 -0.00857233
v -0.02260486 -0.02053671 -0.00354052
v -0.02053576 -0.02260499 -0.00443781
v -0.02260512 -0.02053654 0.00059627
v -0.02053669 -0.02260511 -0.00030147
v -0.02260674 -0.02053387 0.00472666
v -0.02054222 -0.02260202 0.00383228
v -0.02260131 -0.02053891 0.00885792
v -0.02053720 -0.02260001 0.00796182
v -0.02260166 -0.02058779 0.01313370
v -0.02043277 -0.02266366 0.01216847
v -0.02269293 -0.02052821 0.01755946
v -0.02041993 -0.02275786 0.01653951
v -0.02231503 -0.02004861 0.02099246
v -0.02099246 -0.02231503 0.02004861
v -0.02004861 -0.02099246 0.02231503
v -0.02260615 -0.01680175 -0.02073322
v -0.02044779 -0.01680175 -0.02280705
v -0.02306632 -0.01678264 -0.01697004
v -0.02298766 -0.01675347 -0.01273705
v -0.02295631 -0.01675284 -0.00857233
v -0.02295857 -0.01675395 -0.00443781
v -0.02295913 -0.01675386 -0.00030147
v -0.02295629 -0.01675388 0.00383243
v -0.02295570 -0.01675738 0.00796229
v -0.02301524 -0.01675846 0.01215672
v -0.02315133 -0.01667026 0.01650157
v -0.02275786 -0.01653951 0.02041993
v -0.02052821 -0.01755946 0.02269293
v -0.02255200 -0.01248463 -0.02059295
v -0.02043239 -0.01247438 -0.02265540
v -0.02297113 -0.01247438 -0.01683411
v -0.02285426 -0.01246241 -0.01256908
v -0.02280227 -0.01246178 -0.00838257
v -0.02280347 -0.01246292 -0.00424745
v -0.02280501 -0.01246281 -0.00011206
v -0.02280200 -0.01246289 0.00402193
v -0.02279853 -0.01246861 0.00815523
v -0.02285867 -0.01246831 0.01234839
v -0.02301485 -0.01234785 0.01663544
v -0.02266366 -0.01216847 0.02043277
v -0.02058779 -0.01313370 0.02260166
v -0.02260253 -0.00826689 -0.02053001
v -0.02053497 -0.00826614 -0.02259869
v -0.02295784 -0.00826689 -0.01674839
v -0.02280358 -0.00826614 -0.01245884
v -0.02274228 -0.00826662 -0.00826257
v -0.02274373 -0.00826728 -0.00412761
v -0.02274611 -0.00826717 0.00000691
v -0.02274321 -0.00826719 0.00414079
v -0.02273967 -0.00827297 0.00827418
v -0.02279852 -0.00827419 0.01246989
v -0.02295298 -0.00815452 0.01675977
v -0.02260001 -0.00796182 0.02053720
v -0.02053891 -0.00885792 0.02260131
v -0.02260955 -0.00413334 -0.02053369
v -0.02054224 -0.00413375 -0.02260211
v -0.02296145 -0.00413311 -0.01675062
v -0.02280464 -0.00413335 -0.01245873
v -0.02274394 -0.00413375 -0.00826210
v -0.02274678 -0.00413394 -0.00412817
v -0.02274965 -0.00413379 0.00000585
v -0.02274675 -0.00413383 0.00413970
v -0.02274321 -0.00413958 0.00827302
v -0.02280206 -0.00414081 0.01246866
v -0.02295625 -0.00402195 0.01675974
v -0.02260202 -0.00383228 0.02054222
v -0.02053387 -0.00472666 0.02260674
v -0.02260523 0.00000000 -0.02053681
v -0.02053681 -0.00000000 -0.02260523
v -0.02295930 0.00000001 -0.01675411
v -0.02280500 0.00000000 -0.01246307
v -0.02274607 -0.00000002 -0.00826737
v -0.02274963 -0.00000002 -0.00413400
v -0.02275261 0.00000013 -0.00000014
v -0.02274966 0.00000006 0.00413372
v -0.02274612 -0.00000571 0.00826709
v -0.02280501 -0.00000691 0.01246281
v -0.02295923 0.00011205 0.01675389
v -0.02260511 0.00030147 0.02053669
v -0.02053654 -0.00059627 0.02260512
v -0.02260211 0.00413375 -0.02054224
v -0.02053369 0.00413334 -0.02260955
v -0.02295619 0.00413392 -0.01675978
v -0.02280200 0.00413391 -0.01246876
v -0.02274317 0.00413390 -0.00827312
v -0.02274674 0.00413391 -0.00413979
v -0.02274966 0.00413404 -0.00000593
v -0.02274681 0.00413395 0.00412810
v -0.02274374 0.00412831 0.00826212
v -0.02280349 0.00412761 0.01245911
v -0.02295859 0.00424745 0.01675176
v -0.02260499 0.00443781 0.02053576
v -0.02053671 0.00354052 0.02260486
v -0.02259869 0.00826614 -0.02053497
v -0.02053001 0.00826689 -0.02260253
v -0.02295295 0.00826662 -0.01675428
v -0.02279860 0.00826728 -0.01246414
v -0.02273970 0.00826731 -0.00826851
v -0.02274321 0.00826728 -0.00413514
v -0.02274612 0.00826738 -0.00000124
v -0.02274374 0.00826732 0.00413332
v -0.02274166 0.00826224 0.00826830
v -0.02280168 0.00826257 0.01246449
v -0.02295631 0.00838257 0.01675332
v -0.02260316 0.00857233 0.02053386
v -0.02053607 0.00767559 0.02260281
v -0.02265540 0.01247438 -0.02043239
v -0.02059295 0.01248463 -0.02255200
v -0.02301146 0.01246241 -0.01663316
v -0.02285765 0.01246178 -0.01234260
v -0.02279860 0.01246291 -0.00814831
v -0.02280207 0.01246295 -0.00401503
v -0.02280501 0.01246301 0.00011895
v -0.02280349 0.01246302 0.00425435
v -0.02280168 0.01245887 0.00838884
v -0.02285338 0.01245883 0.01257390
v -0.02298674 0.01256908 0.01683357
v -0.02261141 0.01273705 0.02057443
v -0.02053482 0.01181877 0.02261217
v -0.02280705 0.01680175 -0.02044779
v -0.02073322 0.01680175 -0.02260615
v -0.02316154 0.01678264 -0.01659908
v -0.02301146 0.01675347 -0.01227297
v -0.02295294 0.01675284 -0.00807658
v -0.02295630 0.01675394 -0.00394449
v -0.02295923 0.01675401 0.00018949
v -0.02295859 0.01675405 0.00432574
v -0.02295631 0.01675076 0.00845851
v -0.02298674 0.01674839 0.01262191
v -0.02308567 0.01683410 0.01686234
v -0.02267914 0.01697004 0.02063084
v -0.02056204 0.01602577 0.02268446
v -0.02249982 0.02022524 -0.02104577
v -0.02003572 0.02060853 -0.02244895
v -0.02280705 0.02060853 -0.01772163
v -0.02265540 0.02056204 -0.01338804
v -0.02259869 0.02053482 -0.00916360
v -0.02260225 0.02053607 -0.00503110
v -0.02260512 0.02053671 -0.00089774
v -0.02260499 0.02053673 0.00323904
v -0.02260316 0.02053383 0.00737140
v -0.02261141 0.02053001 0.01151387
v -0.02267914 0.02059295 0.01576099
v -0.02248992 0.02073322 0.01982994
v -0.02060853 0.02003572 0.02244895
v -0.02073322 0.02248992 -0.01982994
v -0.02059295 0.02267914 -0.01576099
v -0.02053001 0.02261141 -0.01151387
v -0.02053383 0.02260316 -0.00737140
v -0.02053673 0.02260499 -0.00323904
v -0.02053671 0.02260512 0.00089774
v -0.02053607 0.02260225 0.00503110
v -0.02053482 0.02259869 0.00916360
v -0.02056204 0.02265540 0.01338804
v -0.02060853 0.02280705 0.01772163
v -0.02022524 0.02249982 0.02104577
v -0.01576099 -0.02267914 -0.02059295
v -0.01772163 -0.02060853 -0.02280705
v -0.01686234 -0.02308567 -0.01683410
v -0.01683357 -0.02298674 -0.01256908
v -0.01675332 -0.02295631 -0.00838257
v -0.01675176 -0.02295859 -0.00424745
v -0.01675389 -0.02295923 -0.00011205
v -0.01675974 -0.02295625 0.00402195
v -0.01675977 -0.02295298 0.00815452
v -0.01663544 -0.02301485 0.01234785
v -0.01650157 -0.02315133 0.01667026
v -0.01755946 -0.02269293 0.02052821
v -0.01653951 -0.02041993 0.02275786
v -0.01659908 -0.01678264 -0.02316154
v -0.01667026 -0.01650157 0.02315133
v -0.01663316 -0.01246241 -0.02301146
v -0.01675846 -0.01215672 0.02301524
v -0.01675428 -0.00826662 -0.02295295
v -0.01675738 -0.00796229 0.02295570
v -0.01675978 -0.00413392 -0.02295619
v -0.01675388 -0.00383243 0.02295629
v -0.01675411 -0.00000001 -0.02295930
v -0.01675386 0.00030147 0.02295913
v -0.01675062 0.00413311 -0.02296145
v -0.01675395 0.00443781 0.02295857
v -0.01674839 0.00826689 -0.02295784
v -0.01675284 0.00857233 0.02295631
v -0.01683411 0.01247438 -0.02297113
v -0.01675347 0.01273705 0.02298766
v -0.01697004 0.01678264 -0.02306632
v -0.01678264 0.01697004 0.02306632
v -0.01602577 0.02056204 -0.02268446
v -0.01680175 0.02073322 0.02260615
v -0.01697004 0.02267914 -0.02063084
v -0.01683410 0.02308567 -0.01686234
v -0.01674839 0.02298674 -0.01262191
v -0.01675076 0.02295631 -0.00845851
v -0.01675405 0.02295859 -0.00432574
v -0.01675401 0.02295923 -0.00018949
v -0.01675394 0.02295630 0.00394449
v -0.01675284 0.02295294 0.00807658
v -0.01675347 0.02301146 0.01227297
v -0.01678264 0.02316154 0.01659908
v -0.01680175 0.02280705 0.02044779
v -0.01151387 -0.02261141 -0.02053001
v -0.01338804 -0.02056204 -0.02265540
v -0.01262191 -0.02298674 -0.01674839
v -0.01257390 -0.02285338 -0.01245883
v -0.01246449 -0.02280168 -0.00826257
v -0.01245911 -0.02280349 -0.00412761
v -0.01246281 -0.02280501 0.00000691
v -0.01246866 -0.02280206 0.00414081
v -0.01246989 -0.02279852 0.00827419
v -0.01234839 -0.02285867 0.01246831
v -0.01215672 -0.02301524 0.01675846
v -0.01313370 -0.02260166 0.02058779
v -0.01216847 -0.02043277 0.02266366
v -0.01227297 -0.01675347 -0.02301146
v -0.01234785 -0.01663544 0.02301485
v -0.01234260 -0.01246178 -0.02285765
v -0.01246831 -0.01234839 0.02285867
v -0.01246414 -0.00826728 -0.02279860
v -0.01246861 -0.00815523 0.02279853
v -0.01246876 -0.00413391 -0.02280200
v -0.01246289 -0.00402193 0.02280200
v -0.01246307 -0.00000000 -0.02280500
v -0.01246281 0.00011206 0.02280501
v -0.01245873 0.00413335 -0.02280464
v -0.01246292 0.00424745 0.02280347
v -0.01245884 0.00826614 -0.02280358
v -0.01246178 0.00838257 0.02280227
v -0.01256908 0.01246241 -0.02285426
v -0.01246241 0.01256908 0.02285426
v -0.01273705 0.01675347 -0.02298766
v -0.01247438 0.01683411 0.02297113
v -0.01181877 0.02053482 -0.02261217
v -0.01248463 0.02059295 0.02255200
v -0.01273705 0.02261141 -0.02057443
v -0.01256908 0.02298674 -0.01683357
v -0.01245883 0.02285338 -0.01257390
v -0.01245887 0.02280168 -0.00838884
v -0.01246302 0.02280349 -0.00425435
v -0.01246301 0.02280501 -0.00011895
v -0.01246295 0.02280207 0.00401503
v -0.01246291 0.02279860 0.00814831
v -0.01246178 0.02285765 0.01234260
v -0.01246241 0.02301146 0.01663316
v -0.01247438 0.02265540 0.02043239
v -0.00737140 -0.02260316 -0.02053383
v -0.00916360 -0.02053482 -0.02259869
v -0.00845851 -0.02295631 -0.01675076
v -0.00838884 -0.02280168 -0.01245887
v -0.00826830 -0.02274166 -0.00826224
v -0.00826212 -0.02274374 -0.00412831
v -0.00826709 -0.02274612 0.00000571
v -0.00827302 -0.02274321 0.00413958
v -0.00827418 -0.02273967 0.00827297
v -0.00815523 -0.02279853 0.01246861
v -0.00796229 -0.02295570 0.01675738
v -0.00885792 -0.02260131 0.02053891
v -0.00796182 -0.02053720 0.02260001
v -0.00807658 -0.01675284 -0.02295294
v -0.00815452 -0.01675977 0.02295298
v -0.00814831 -0.01246291 -0.02279860
v -0.00827419 -0.01246989 0.02279852
v -0.00826851 -0.00826731 -0.02273970
v -0.00827297 -0.00827418 0.02273967
v -0.00827312 -0.00413390 -0.02274317
v -0.00826719 -0.00414079 0.02274321
v -0.00826737 0.00000002 -0.02274607
v -0.00826717 -0.00000691 0.02274611
v -0.00826210 0.00413375 -0.02274394
v -0.00826728 0.00412761 0.02274373
v -0.00826257 0.00826662 -0.02274228
v -0.00826662 0.00826257 0.02274228
v -0.00838257 0.01246178 -0.02280227
v -0.00826614 0.01245884 0.02280358
v -0.00857233 0.01675284 -0.02295631
v -0.00826689 0.01674839 0.02295784
v -0.00767559 0.02053607 -0.02260281
v -0.00826689 0.02053001 0.02260253
v -0.00857233 0.02260316 -0.02053386
v -0.00838257 0.02295631 -0.01675332
v -0.00826257 0.02280168 -0.01246449
v -0.00826224 0.02274166 -0.00826830
v -0.00826732 0.02274374 -0.00413332
v -0.00826738 0.02274612 0.00000124
v -0.00826728 0.02274321 0.00413514
v -0.00826731 0.02273970 0.00826851
v -0.00826728 0.02279860 0.01246414
v -0.00826662 0.02295295 0.01675428
v -0.00826614 0.02259869 0.02053497
v -0.00323904 -0.02260499 -0.02053673
v -0.00503110 -0.02053607 -0.02260225
v -0.00432574 -0.02295859 -0.01675405
v -0.00425435 -0.02280349 -0.01246302
v -0.00413332 -0.02274374 -0.00826732
v -0.00412810 -0.02274681 -0.00413395
v -0.00413372 -0.02274966 -0.00000006
v -0.00413970 -0.02274675 0.00413383
v -0.00414079 -0.02274321 0.00826719
v -0.00402193 -0.02280200 0.01246289
v -0.00383243 -0.02295629 0.01675388
v -0.00472666 -0.02260674 0.02053387
v -0.00383228 -0.02054222 0.02260202
v -0.00394449 -0.01675394 -0.02295630
v -0.00402195 -0.01675974 0.02295625
v -0.00401503 -0.01246295 -0.02280207
v -0.00414081 -0.01246866 0.02280206
v -0.00413514 -0.00826728 -0.02274321
v -0.00413958 -0.00827302 0.02274321
v -0.00413979 -0.00413391 -0.02274674
v -0.00413383 -0.00413970 0.02274675
v -0.00413400 0.00000002 -0.02274963
v -0.00413379 -0.00000585 0.02274965
v -0.00412817 0.00413394 -0.02274678
v -0.00413394 0.00412817 0.02274678
v -0.00412761 0.00826728 -0.02274373
v -0.00413375 0.00826210 0.02274394
v -0.00424745 0.01246292 -0.02280347
v -0.00413335 0.01245873 0.02280464
v -0.00443781 0.01675395 -0.02295857
v -0.00413311 0.01675062 0.02296145
v -0.00354052 0.02053671 -0.02260486
v -0.00413334 0.02053369 0.02260955
v -0.00443781 0.02260499 -0.02053576
v -0.00424745 0.02295859 -0.01675176
v -0.00412761 0.02280349 -0.01245911
v -0.00412831 0.02274374 -0.00826212
v -0.00413395 0.02274681 -0.00412810
v -0.00413404 0.02274966 0.00000593
v -0.00413391 0.02274674 0.00413979
v -0.00413390 0.02274317 0.00827312
v -0.00413391 0.02280200 0.01246876
v -0.00413392 0.02295619 0.01675978
v -0.00413375 0.02260211 0.02054224
v 0.00089774 -0.02260512 -0.02053671
v -0.00089774 -0.02053671 -0.02260512
v -0.00018949 -0.02295923 -0.01675401
v -0.00011895 -0.02280501 -0.01246301
v 0.00000124 -0.02274612 -0.00826738
v 0.00000593 -0.02274966 -0.00413404
v 0.00000014 -0.02275261 -0.00000013
v -0.00000585 -0.02274965 0.00413379
v -0.00000691 -0.02274611 0.00826717
v 0.00011206 -0.02280501 0.01246281
v 0.00030147 -0.02295913 0.01675386
v -0.00059627 -0.02260512 0.02053654
v 0.00030147 -0.02053669 0.02260511
v 0.00018949 -0.01675401 -0.02295923
v 0.00011205 -0.01675389 0.02295923
v 0.00011895 -0.01246301 -0.02280501
v -0.00000691 -0.01246281 0.02280501
v -0.00000124 -0.00826738 -0.02274612
v -0.00000571 -0.00826709 0.02274612
v -0.00000593 -0.00413404 -0.02274966
v 0.00000006 -0.00413372 0.02274966
v -0.00000014 -0.00000013 -0.02275261
v 0.00000013 0.00000014 0.02275261
v 0.00000585 0.00413379 -0.02274965
v -0.00000002 0.00413400 0.02274963
v 0.00000691 0.00826717 -0.02274611
v -0.00000002 0.00826737 0.02274607
v -0.00011206 0.01246281 -0.02280501
v 0.00000000 0.01246307 0.02280500
v -0.00030147 0.01675386 -0.02295913
v 0.00000001 0.01675411 0.02295930
v 0.00059627 0.02053654 -0.02260512
v 0.00000000 0.02053681 0.02260523
v -0.00030147 0.02260511 -0.02053669
v -0.00011205 0.02295923 -0.01675389
v 0.00000691 0.02280501 -0.01246281
v 0.00000571 0.02274612 -0.00826709
v -0.00000006 0.02274966 -0.00413372
v -0.00000013 0.02275261 0.00000014
v 0.00000002 0.02274963 0.00413400
v 0.00000002 0.02274607 0.00826737
v -0.00000000 0.02280500 0.01246307
v -0.00000001 0.02295930 0.01675411
v -0.00000000 0.02260523 0.02053681
v 0.00503110 -0.02260225 -0.02053607
v 0.00323904 -0.02053673 -0.02260499
v 0.00394449 -0.02295630 -0.01675394
v 0.00401503 -0.02280207 -0.01246295
v 0.00413514 -0.02274321 -0.00826728
v 0.00413979 -0.02274674 -0.00413391
v 0.00413400 -0.02274963 0.00000002
v 0.00412817 -0.02274678 0.00413394
v 0.00412761 -0.02274373 0.00826728
v 0.00424745 -0.02280347 0.01246292
v 0.00443781 -0.02295857 0.01675395
v 0.00354052 -0.02260486 0.02053671
v 0.00443781 -0.02053576 0.02260499
v 0.00432574 -0.01675405 -0.02295859
v 0.00424745 -0.01675176 0.02295859
v 0.00425435 -0.01246302 -0.02280349
v 0.00412761 -0.01245911 0.02280349
v 0.00413332 -0.00826732 -0.02274374
v 0.00412831 -0.00826212 0.02274374
v 0.00412810 -0.00413395 -0.02274681
v 0.00413395 -0.00412810 0.02274681
v 0.00413372 -0.00000006 -0.02274966
v 0.00413404 0.00000593 0.02274966
v 0.00413970 0.00413383 -0.02274675
v 0.00413391 0.00413979 0.02274674
v 0.00414079 0.00826719 -0.02274321
v 0.00413390 0.00827312 0.02274317
v 0.00402193 0.01246289 -0.02280200
v 0.00413391 0.01246876 0.02280200
v 0.00383243 0.01675388 -0.02295629
v 0.00413392 0.01675978 0.02295619
v 0.00472666 0.02053387 -0.02260674
v 0.00413375 0.02054224 0.02260211
v 0.00383228 0.02260202 -0.02054222
v 0.00402195 0.02295625 -0.01675974
v 0.00414081 0.02280206 -0.01246866
v 0.00413958 0.02274321 -0.00827302
v 0.00413383 0.02274675 -0.00413970
v 0.00413379 0.02274965 -0.00000585
v 0.00413394 0.02274678 0.00412817
v 0.00413375 0.02274394 0.00826210
v 0.00413335 0.02280464 0.01245873
v 0.00413311 0.02296145 0.01675062
v 0.00413334 0.02260955 0.02053369
v 0.00916360 -0.02259869 -0.02053482
v 0.00737140 -0.02053383 -0.02260316
v 0.00807658 -0.02295294 -0.01675284
v 0.00814831 -0.02279860 -0.01246291
v 0.00826851 -0.02273970 -0.00826731
v 0.00827312 -0.02274317 -0.00413390
v 0.00826737 -0.02274607 0.00000002
v 0.00826210 -0.02274394 0.00413375
v 0.00826257 -0.02274228 0.00826662
v 0.00838257 -0.02280227 0.01246178
v 0.00857233 -0.02295631 0.01675284
v 0.00767559 -0.02260281 0.02053607
v 0.00857233 -0.02053386 0.02260316
v 0.00845851 -0.01675076 -0.02295631
v 0.00838257 -0.01675332 0.02295631
v 0.00838884 -0.01245887 -0.02280168
v 0.00826257 -0.01246449 0.02280168
v 0.00826830 -0.00826224 -0.02274166
v 0.00826224 -0.00826830 0.02274166
v 0.00826212 -0.00412831 -0.02274374
v 0.00826732 -0.00413332 0.02274374
v 0.00826709 0.00000571 -0.02274612
v 0.00826738 0.00000124 0.02274612
v 0.00827302 0.00413958 -0.02274321
v 0.00826728 0.00413514 0.02274321
v 0.00827418 0.00827297 -0.02273967
v 0.00826731 0.00826851 0.02273970
v 0.00815523 0.01246861 -0.02279853
v 0.00826728 0.01246414 0.02279860
v 0.00796229 0.01675738 -0.02295570
v 0.00826662 0.01675428 0.02295295
v 0.00885792 0.02053891 -0.02260131
v 0.00826614 0.02053497 0.02259869
v 0.00796182 0.02260001 -0.02053720
v 0.00815452 0.02295298 -0.01675977
v 0.00827419 0.02279852 -0.01246989
v 0.00827297 0.02273967 -0.00827418
v 0.00826719 0.02274321 -0.00414079
v 0.00826717 0.02274611 -0.00000691
v 0.00826728 0.02274373 0.00412761
v 0.00826662 0.02274228 0.00826257
v 0.00826614 0.02280358 0.01245884
v 0.00826689 0.02295784 0.01674839
v 0.00826689 0.02260253 0.02053001
v 0.01338804 -0.02265540 -0.02056204
v 0.01151387 -0.02053001 -0.02261141
v 0.01227297 -0.02301146 -0.01675347
v 0.01234260 -0.02285765 -0.01246178
v 0.01246414 -0.02279860 -0.00826728
v 0.01246876 -0.02280200 -0.00413391
v 0.01246307 -0.02280500 -0.00000000
v 0.01245873 -0.02280464 0.00413335
v 0.01245884 -0.02280358 0.00826614
v 0.01256908 -0.02285426 0.01246241
v 0.01273705 -0.02298766 0.01675347
v 0.01181877 -0.02261217 0.02053482
v 0.01273705 -0.02057443 0.02261141
v 0.01262191 -0.01674839 -0.02298674
v 0.01256908 -0.01683357 0.02298674
v 0.01257390 -0.01245883 -0.02285338
v 0.01245883 -0.01257390 0.02285338
v 0.01246449 -0.00826257 -0.02280168
v 0.01245887 -0.00838884 0.02280168
v 0.01245911 -0.00412761 -0.02280349
v 0.01246302 -0.00425435 0.02280349
v 0.01246281 0.00000691 -0.02280501
v 0.01246301 -0.00011895 0.02280501
v 0.01246866 0.00414081 -0.02280206
v 0.01246295 0.00401503 0.02280207
v 0.01246989 0.00827419 -0.02279852
v 0.01246291 0.00814831 0.02279860
v 0.01234839 0.01246831 -0.02285867
v 0.01246178 0.01234260 0.02285765
v 0.01215672 0.01675846 -0.02301524
v 0.01246241 0.01663316 0.02301146
v 0.01313370 0.02058779 -0.02260166
v 0.01247438 0.02043239 0.02265540
v 0.01216847 0.02266366 -0.02043277
v 0.01234785 0.02301485 -0.01663544
v 0.01246831 0.02285867 -0.01234839
v 0.01246861 0.02279853 -0.00815523
v 0.01246289 0.02280200 -0.00402193
v 0.01246281 0.02280501 0.00011206
v 0.01246292 0.02280347 0.00424745
v 0.01246178 0.02280227 0.00838257
v 0.01246241 0.02285426 0.01256908
v 0.01247438 0.02297113 0.01683411
v 0.01248463 0.02255200 0.02059295
v 0.01772163 -0.02280705 -0.02060853
v 0.01576099 -0.02059295 -0.02267914
v 0.01659908 -0.02316154 -0.01678264
v 0.01663316 -0.02301146 -0.01246241
v 0.01675428 -0.02295295 -0.00826662
v 0.01675978 -0.02295619 -0.00413392
v 0.01675411 -0.02295930 -0.00000001
v 0.01675062 -0.02296145 0.00413311
v 0.01674839 -0.02295784 0.00826689
v 0.01683411 -0.02297113 0.01247438
v 0.01697004 -0.02306632 0.01678264
v 0.01602577 -0.02268446 0.02056204
v 0.01697004 -0.02063084 0.02267914
v 0.01686234 -0.01683410 -0.02308567
v 0.01683410 -0.01686234 0.02308567
v 0.01683357 -0.01256908 -0.02298674
v 0.01674839 -0.01262191 0.02298674
v 0.01675332 -0.00838257 -0.02295631
v 0.01675076 -0.00845851 0.02295631
v 0.01675176 -0.00424745 -0.02295859
v 0.01675405 -0.00432574 0.02295859
v 0.01675389 -0.00011205 -0.02295923
v 0.01675401 -0.00018949 0.02295923
v 0.01675974 0.00402195 -0.02295625
v 0.01675394 0.00394449 0.02295630
v 0.01675977 0.00815452 -0.02295298
v 0.01675284 0.00807658 0.02295294
v 0.01663544 0.01234785 -0.02301485
v 0.01675347 0.01227297 0.02301146
v 0.01650157 0.01667026 -0.02315133
v 0.01678264 0.01659908 0.02316154
v 0.01755946 0.02052821 -0.02269293
v 0.01680175 0.02044779 0.02280705
v 0.01653951 0.02275786 -0.02041993
v 0.01667026 0.02315133 -0.01650157
v 0.01675846 0.02301524 -0.01215672
v 0.01675738 0.02295570 -0.00796229
v 0.01675388 0.02295629 -0.00383243
v 0.01675386 0.02295913 0.00030147
v 0.01675395 0.02295857 0.00443781
v 0.01675284 0.02295631 0.00857233
v 0.01675347 0.02298766 0.01273705
v 0.01678264 0.02306632 0.01697004
v 0.01680175 0.02260615 0.02073322
v 0.02104577 -0.02249982 -0.02022524
v 0.01982994 -0.02073322 -0.02248992
v 0.02044779 -0.02280705 -0.01680175
v 0.02043239 -0.02265540 -0.01247438
v 0.02053497 -0.02259869 -0.00826614
v 0.02054224 -0.02260211 -0.00413375
v 0.02053681 -0.02260523 -0.00000000
v 0.02053369 -0.02260955 0.00413334
v 0.02053001 -0.02260253 0.00826689
v 0.02059295 -0.02255200 0.01248463
v 0.02073322 -0.02260615 0.01680175
v 0.02003572 -0.02244895 0.02060853
v 0.02073322 -0.01982994 0.02248992
v 0.02063084 -0.01697004 -0.02267914
v 0.02059295 -0.01576099 0.02267914
v 0.02057443 -0.01273705 -0.02261141
v 0.02053001 -0.01151387 0.02261141
v 0.02053386 -0.00857233 -0.02260316
v 0.02053383 -0.00737140 0.02260316
v 0.02053576 -0.00443781 -0.02260499
v 0.02053673 -0.00323904 0.02260499
v 0.02053669 -0.00030147 -0.02260511
v 0.02053671 0.00089774 0.02260512
v 0.02054222 0.00383228 -0.02260202
v 0.02053607 0.00503110 0.02260225
v 0.02053720 0.00796182 -0.02260001
v 0.02053482 0.00916360 0.02259869
v 0.02043277 0.01216847 -0.02266366
v 0.02056204 0.01338804 0.02265540
v 0.02041993 0.01653951 -0.02275786
v 0.02060853 0.01772163 0.02280705
v 0.02099246 0.02004861 -0.02231503
v 0.02022524 0.02104577 0.02249982
v 0.02004861 0.02231503 -0.02099246
v 0.02052821 0.02269293 -0.01755946
v 0.02058779 0.02260166 -0.01313370
v 0.02053891 0.02260131 -0.00885792
v 0.02053387 0.02260674 -0.00472666
v 0.02053654 0.02260512 -0.00059627
v 0.02053671 0.02260486 0.00354052
v 0.02053607 0.02260281 0.00767559
v 0.02053482 0.02261217 0.01181877
v 0.02056204 0.02268446 0.01602577
v 0.02060853 0.02244895 0.02003572
v 0.02244895 -0.02003572 -0.02060853
v 0.02260615 -0.02073322 -0.01680175
v 0.02255200 -0.02059295 -0.01248463
v 0.02260253 -0.02053001 -0.00826689
v 0.02260955 -0.02053369 -0.00413334
v 0.02260523 -0.02053681 0.00000000
v 0.02260211 -0.02054224 0.00413375
v 0.02259869 -0.02053497 0.00826614
v 0.02265540 -0.02043239 0.01247438
v 0.02280705 -0.02044779 0.01680175
v 0.02249982 -0.02104577 0.02022524
v 0.02268446 -0.01602577 -0.02056204
v 0.02306632 -0.01697004 -0.01678264
v 0.02297113 -0.01683411 -0.01247438
v 0.02295784 -0.01674839 -0.00826689
v 0.02296145 -0.01675062 -0.00413311
v 0.02295930 -0.01675411 0.00000001
v 0.02295619 -0.01675978 0.00413392
v 0.02295295 -0.01675428 0.00826662
v 0.02301146 -0.01663316 0.01246241
v 0.02316154 -0.01659908 0.01678264
v 0.02280705 -0.01772163 0.02060853
v 0.02261217 -0.01181877 -0.02053482
v 0.02298766 -0.01273705 -0.01675347
v 0.02285426 -0.01256908 -0.01246241
v 0.02280358 -0.01245884 -0.00826614
v 0.02280464 -0.01245873 -0.00413335
v 0.02280500 -0.01246307 0.00000000
v 0.02280200 -0.01246876 0.00413391
v 0.02279860 -0.01246414 0.00826728
v 0.02285765 -0.01234260 0.01246178
v 0.02301146 -0.01227297 0.01675347
v 0.02265540 -0.01338804 0.02056204
v 0.02260281 -0.00767559 -0.02053607
v 0.02295631 -0.00857233 -0.01675284
v 0.02280227 -0.00838257 -0.01246178
v 0.02274228 -0.00826257 -0.00826662
v 0.02274394 -0.00826210 -0.00413375
v 0.02274607 -0.00826737 -0.00000002
v 0.02274317 -0.00827312 0.00413390
v 0.02273970 -0.00826851 0.00826731
v 0.02279860 -0.00814831 0.01246291
v 0.02295294 -0.00807658 0.01675284
v 0.02259869 -0.00916360 0.02053482
v 0.02260486 -0.00354052 -0.02053671
v 0.02295857 -0.00443781 -0.01675395
v 0.02280347 -0.00424745 -0.01246292
v 0.02274373 -0.00412761 -0.00826728
v 0.02274678 -0.00412817 -0.00413394
v 0.02274963 -0.00413400 -0.00000002
v 0.02274674 -0.00413979 0.00413391
v 0.02274321 -0.00413514 0.00826728
v 0.02280207 -0.00401503 0.01246295
v 0.02295630 -0.00394449 0.01675394
v 0.02260225 -0.00503110 0.02053607
v 0.02260512 0.00059627 -0.02053654
v 0.02295913 -0.00030147 -0.01675386
v 0.02280501 -0.00011206 -0.01246281
v 0.02274611 0.00000691 -0.00826717
v 0.02274965 0.00000585 -0.00413379
v 0.02275261 -0.00000014 0.00000013
v 0.02274966 -0.00000593 0.00413404
v 0.02274612 -0.00000124 0.00826738
v 0.02280501 0.00011895 0.01246301
v 0.02295923 0.00018949 0.01675401
v 0.02260512 -0.00089774 0.02053671
v 0.02260674 0.00472666 -0.02053387
v 0.02295629 0.00383243 -0.01675388
v 0.02280200 0.00402193 -0.01246289
v 0.02274321 0.00414079 -0.00826719
v 0.02274675 0.00413970 -0.00413383
v 0.02274966 0.00413372 0.00000006
v 0.02274681 0.00412810 0.00413395
v 0.02274374 0.00413332 0.00826732
v 0.02280349 0.00425435 0.01246302
v 0.02295859 0.00432574 0.01675405
v 0.02260499 0.00323904 0.02053673
v 0.02260131 0.00885792 -0.02053891
v 0.02295570 0.00796229 -0.01675738
v 0.02279853 0.00815523 -0.01246861
v 0.02273967 0.00827418 -0.00827297
v 0.02274321 0.00827302 -0.00413958
v 0.02274612 0.00826709 -0.00000571
v 0.02274374 0.00826212 0.00412831
v 0.02274166 0.00826830 0.00826224
v 0.02280168 0.00838884 0.01245887
v 0.02295631 0.00845851 0.01675076
v 0.02260316 0.00737140 0.02053383
v 0.02260166 0.01313370 -0.02058779
v 0.02301524 0.01215672 -0.01675846
v 0.02285867 0.01234839 -0.01246831
v 0.02279852 0.01246989 -0.00827419
v 0.02280206 0.01246866 -0.00414081
v 0.02280501 0.01246281 -0.00000691
v 0.02280349 0.01245911 0.00412761
v 0.02280168 0.01246449 0.00826257
v 0.02285338 0.01257390 0.01245883
v 0.02298674 0.01262191 0.01674839
v 0.02261141 0.01151387 0.02053001
v 0.02269293 0.01755946 -0.02052821
v 0.02315133 0.01650157 -0.01667026
v 0.02301485 0.01663544 -0.01234785
v 0.02295298 0.01675977 -0.00815452
v 0.02295625 0.01675974 -0.00402195
v 0.02295923 0.01675389 0.00011205
v 0.02295859 0.01675176 0.00424745
v 0.02295631 0.01675332 0.00838257
v 0.02298674 0.01683357 0.01256908
v 0.02308567 0.01686234 0.01683410
v 0.02267914 0.01576099 0.02059295
v 0.02231503 0.02099246 -0.02004861
v 0.02275786 0.02041993 -0.01653951
v 0.02266366 0.02043277 -0.01216847
v 0.02260001 0.02053720 -0.00796182
v 0.02260202 0.02054222 -0.00383228
v 0.02260511 0.02053669 0.00030147
v 0.02260499 0.02053576 0.00443781
v 0.02260316 0.02053386 0.00857233
v 0.02261141 0.02057443 0.01273705
v 0.02267914 0.02063084 0.01697004
v 0.02248992 0.01982994 0.02073322
f 3 2 1
f 5 4 1
f 5 1 2
f 7 6 4
f 7 4 5
f 9 8 6
f 9 6 7
f 11 10 8
f 11 8 9
f 13 12 10
f 13 10 11
f 15 14 12
f 15 12 13
f 17 16 14
f 17 14 15
f 19 18 16
f 19 16 17
f 21 20 18
f 21 18 19
f 23 22 20
f 23 20 21
f 24 22 23
f 3 1 25
f 3 25 26
f 27 1 4
f 25 1 27
f 28 4 6
f 27 4 28
f 29 6 8
f 28 6 29
f 30 8 10
f 29 8 30
f 31 10 12
f 30 10 31
f 32 12 14
f 31 12 32
f 33 14 16
f 32 14 33
f 34 16 18
f 33 16 34
f 35 18 20
f 34 18 35
f 36 20 22
f 35 20 36
f 22 24 37
f 22 37 36
f 26 25 38
f 26 38 39
f 40 25 27
f 38 25 40
f 41 27 28
f 40 27 41
f 42 28 29
f 41 28 42
f 43 29 30
f 42 29 43
f 44 30 31
f 43 30 44
f 45 31 32
f 44 31 45
f 46 32 33
f 45 32 46
f 47 33 34
f 46 33 47
f 48 34 35
f 47 34 48
f 49 35 36
f 48 35 49
f 36 37 50
f 36 50 49
f 39 38 51
f 39 51 52
f 53 38 40
f 51 38 53
f 54 40 41
f 53 40 54
f 55 41 42
f 54 41 55
f 56 42 43
f 55 42 56
f 57 43 44
f 56 43 57
f 58 44 45
f 57 44 58
f 59 45 46
f 58 45 59
f 60 46 47
f 59 46 60
f 61 47 48
f 60 47 61
f 62 48 49
f 61 48 62
f 49 50 63
f 49 63 62
f 52 51 64
f 52 64 65
f 66 51 53
f 64 51 66
f 67 53 54
f 66 53 67
f 68 54 55
f 67 54 68
f 69 55 56
f 68 55 69
f 70 56 57
f 69 56 70
f 71 57 58
f 70 57 71
f 72 58 59
f 71 58 72
f 73 59 60
f 72 59 73
f 74 60 61
f 73 60 74
f 75 61 62
f 74 61 75
f 62 63 76
f 62 76 75
f 65 64 77
f 65 77 78
f 79 64 66
f 77 64 79
f 80 66 67
f 79 66 80
f 81 67 68
f 80 67 81
f 82 68 69
f 81 68 82
f 83 69 70
f 82 69 83
f 84 70 71
f 83 70 84
f 85 71 72
f 84 71 85
f 86 72 73
f 85 72 86
f 87 73 74
f 86 73 87
f 88 74 75
f 87 74 88
f 75 76 89
f 75 89 88
f 78 77 90
f 78 90 91
f 92 77 79
f 90 77 92
f 93 79 80
f 92 79 93
f 94 80 81
f 93 80 94
f 95 81 82
f 94 81 95
f 96 82 83
f 95 82 96
f 97 83 84
f 96 83 97
f 98 84 85
f 97 84 98
f 99 85 86
f 98 85 99
f 100 86 87
f 99 86 100
f 101 87 88
f 100 87 101
f 88 89 102
f 88 102 101
f 91 90 103
f 91 103 104
f 105 90 92
f 103 90 105
f 106 92 93
f 105 92 106
f 107 93 94
f 106 93 107
f 108 94 95
f 107 94 108
f 109 95 96
f 108 95 109
f 110 96 97
f 109 96 110
f 111 97 98
f 110 97 111
f 112 98 99
f 111 98 112
f 113 99 100
f 112 99 113
f 114 100 101
f 113 100 114
f 101 102 115
f 101 115 114
f 104 103 116
f 104 116 117
f 118 103 105
f 116 103 118
f 119 105 106
f 118 105 119
f 120 106 107
f 119 106 120
f 121 107 108
f 120 107 121
f 122 108 109
f 121 108 122
f 123 109 110
f 122 109 123
f 124 110 111
f 123 110 124
f 125 111 112
f 124 111 125
f 126 112 113
f 125 112 126
f 127 113 114
f 126 113 127
f 114 115 128
f 114 128 127
f 117 116 129
f 117 129 130
f 131 116 118
f 129 116 131
f 132 118 119
f 131 118 132
f 133 119 120
f 132 119 133
f 134 120 121
f 133 120 134
f 135 121 122
f 134 121 135
f 136 122 123
f 135 122 136
f 137 123 124
f 136 123 137
f 138 124 125
f 137 124 138
f 139 125 126
f 138 125 139
f 140 126 127
f 139 126 140
f 127 128 141
f 127 141 140
f 130 129 142
f 130 142 143
f 144 129 131
f 142 129 144
f 145 131 132
f 144 131 145
f 146 132 133
f 145 132 146
f 147 133 134
f 146 133 147
f 148 134 135
f 147 134 148
f 149 135 136
f 148 135 149
f 150 136 137
f 149 136 150
f 151 137 138
f 150 137 151
f 152 138 139
f 151 138 152
f 153 139 140
f 152 139 153
f 140 141 154
f 140 154 153
f 155 143 142
f 155 142 144
f 155 144 156
f 156 144 145
f 156 145 157
f 157 145 146
f 157 146 158
f 158 146 147
f 158 147 159
f 159 147 148
f 159 148 160
f 160 148 149
f 160 149 161
f 161 149 150
f 161 150 162
f 162 150 151
f 162 151 163
f 163 151 152
f 163 152 164
f 164 152 153
f 164 153 165
f 165 153 154
f 167 166 2
f 167 2 3
f 2 168 5
f 166 168 2
f 5 169 7
f 168 169 5
f 7 170 9
f 169 170 7
f 9 171 11
f 170 171 9
f 11 172 13
f 171 172 11
f 13 173 15
f 172 173 13
f 15 174 17
f 173 174 15
f 17 175 19
f 174 175 17
f 19 176 21
f 175 176 19
f 21 177 23
f 176 177 21
f 24 23 177
f 24 177 178
f 26 167 3
f 26 179 167
f 178 37 24
f 180 37 178
f 39 179 26
f 39 181 179
f 180 50 37
f 182 50 180
f 52 181 39
f 52 183 181
f 182 63 50
f 184 63 182
f 65 183 52
f 65 185 183
f 184 76 63
f 186 76 184
f 78 185 65
f 78 187 185
f 186 89 76
f 188 89 186
f 91 187 78
f 91 189 187
f 188 102 89
f 190 102 188
f 104 189 91
f 104 191 189
f 190 115 102
f 192 115 190
f 117 191 104
f 117 193 191
f 192 128 115
f 194 128 192
f 130 193 117
f 130 195 193
f 194 141 128
f 196 141 194
f 143 195 130
f 143 197 195
f 196 154 141
f 198 154 196
f 199 197 143
f 199 143 155
f 200 155 156
f 200 199 155
f 201 156 157
f 201 200 156
f 202 157 158
f 202 201 157
f 203 158 159
f 203 202 158
f 204 159 160
f 204 203 159
f 205 160 161
f 205 204 160
f 206 161 162
f 206 205 161
f 207 162 163
f 207 206 162
f 208 163 164
f 208 207 163
f 209 164 165
f 209 208 164
f 165 154 198
f 165 198 209
f 211 210 166
f 211 166 167
f 166 212 168
f 210 212 166
f 168 213 169
f 212 213 168
f 169 214 170
f 213 214 169
f 170 215 171
f 214 215 170
f 171 216 172
f 215 216 171
f 172 217 173
f 216 217 172
f 173 218 174
f 217 218 173
f 174 219 175
f 218 219 174
f 175 220 176
f 219 220 175
f 176 221 177
f 220 221 176
f 178 177 221
f 178 221 222
f 179 211 167
f 179 223 211
f 222 180 178
f 224 180 222
f 181 223 179
f 181 225 223
f 224 182 180
f 226 182 224
f 183 225 181
f 183 227 225
f 226 184 182
f 228 184 226
f 185 227 183
f 185 229 227
f 228 186 184
f 230 186 228
f 187 229 185
f 187 231 229
f 230 188 186
f 232 188 230
f 189 231 187
f 189 233 231
f 232 190 188
f 234 190 232
f 191 233 189
f 191 235 233
f 234 192 190
f 236 192 234
f 193 235 191
f 193 237 235
f 236 194 192
f 238 194 236
f 195 237 193
f 195 239 237
f 238 196 194
f 240 196 238
f 197 239 195
f 197 241 239
f 240 198 196
f 242 198 240
f 243 241 197
f 243 197 199
f 244 199 200
f 244 243 199
f 245 200 201
f 245 244 200
f 246 201 202
f 246 245 201
f 247 202 203
f 247 246 202
f 248 203 204
f 248 247 203
f 249 204 205
f 249 248 204
f 250 205 206
f 250 249 205
f 251 206 207
f 251 250 206
f 252 207 208
f 252 251 207
f 253 208 209
f 253 252 208
f 209 198 242
f 209 242 253
f 255 254 210
f 255 210 211
f 210 256 212
f 254 256 210
f 212 257 213
f 256 257 212
f 213 258 214
f 257 258 213
f 214 259 215
f 258 259 214
f 215 260 216
f 259 260 215
f 216 261 217
f 260 261 216
f 217 262 218
f 261 262 217
f 218 263 219
f 262 263 218
f 219 264 220
f 263 264 219
f 220 265 221
f 264 265 220
f 222 221 265
f 222 265 266
f 223 255 211
f 223 267 255
f 266 224 222
f 268 224 266
f 225 267 223
f 225 269 267
f 268 226 224
f 270 226 268
f 227 269 225
f 227 271 269
f 270 228 226
f 272 228 270
f 229 271 227
f 229 273 271
f 272 230 228
f 274 230 272
f 231 273 229
f 231 275 273
f 274 232 230
f 276 232 274
f 233 275 231
f 233 277 275
f 276 234 232
f 278 234 276
f 235 277 233
f 235 279 277
f 278 236 234
f 280 236 278
f 237 279 235
f 237 281 279
f 280 238 236
f 282 238 280
f 239 281 237
f 239 283 281
f 282 240 238
f 284 240 282
f 241 283 239
f 241 285 283
f 284 242 240
f 286 242 284
f 287 285 241
f 287 241 243
f 288 243 244
f 288 287 243
f 289 244 245
f 289 288 244
f 290 245 246
f 290 289 245
f 291 246 247
f 291 290 246
f 292 247 248
f 292 291 247
f 293 248 249
f 293 292 248
f 294 249 250
f 294 293 249
f 295 250 251
f 295 294 250
f 296 251 252
f 296 295 251
f 297 252 253
f 297 296 252
f 253 242 286
f 253 286 297
f 299 298 254
f 299 254 255
f 254 300 256
f 298 300 254
f 256 301 257
f 300 301 256
f 257 302 258
f 301 302 257
f 258 303 259
f 302 303 258
f 259 304 260
f 303 304 259
f 260 305 261
f 304 305 260
f 261 306 262
f 305 306 261
f 262 307 263
f 306 307 262
f 263 308 264
f 307 308 263
f 264 309 265
f 308 309 264
f 266 265 309
f 266 309 310
f 267 299 255
f 267 311 299
f 310 268 266
f 312 268 310
f 269 311 267
f 269 313 311
f 312 270 268
f 314 270 312
f 271 313 269
f 271 315 313
f 314 272 270
f 316 272 314
f 273 315 271
f 273 317 315
f 316 274 272
f 318 274 316
f 275 317 273
f 275 319 317
f 318 276 274
f 320 276 318
f 277 319 275
f 277 321 319
f 320 278 276
f 322 278 320
f 279 321 277
f 279 323 321
f 322 280 278
f 324 280 322
f 281 323 279
f 281 325 323
f 324 282 280
f 326 282 324
f 283 325 281
f 283 327 325
f 326 284 282
f 328 284 326
f 285 327 283
f 285 329 327
f 328 286 284
f 330 286 328
f 331 329 285
f 331 285 287
f 332 287 288
f 332 331 287
f 333 288 289
f 333 332 288
f 334 289 290
f 334 333 289
f 335 290 291
f 335 334 290
f 336 291 292
f 336 335 291
f 337 292 293
f 337 336 292
f 338 293 294
f 338 337 293
f 339 294 295
f 339 338 294
f 340 295 296
f 340 339 295
f 341 296 297
f 341 340 296
f 297 286 330
f 297 330 341
f 343 342 298
f 343 298 299
f 298 344 300
f 342 344 298
f 300 345 301
f 344 345 300
f 301 346 302
f 345 346 301
f 302 347 303
f 346 347 302
f 303 348 304
f 347 348 303
f 304 349 305
f 348 349 304
f 305 350 306
f 349 350 305
f 306 351 307
f 350 351 306
f 307 352 308
f 351 352 307
f 308 353 309
f 352 353 308
f 310 309 353
f 310 353 354
f 311 343 299
f 311 355 343
f 354 312 310
f 356 312 354
f 313 355 311
f 313 357 355
f 356 314 312
f 358 314 356
f 315 357 313
f 315 359 357
f 358 316 314
f 360 316 358
f 317 359 315
f 317 361 359
f 360 318 316
f 362 318 360
f 319 361 317
f 319 363 361
f 362 320 318
f 364 320 362
f 321 363 319
f 321 365 363
f 364 322 320
f 366 322 364
f 323 365 321
f 323 367 365
f 366 324 322
f 368 324 366
f 325 367 323
f 325 369 367
f 368 326 324
f 370 326 368
f 327 369 325
f 327 371 369
f 370 328 326
f 372 328 370
f 329 371 327
f 329 373 371
f 372 330 328
f 374 330 372
f 375 373 329
f 375 329 331
f 376 331 332
f 376 375 331
f 377 332 333
f 377 376 332
f 378 333 334
f 378 377 333
f 379 334 335
f 379 378 334
f 380 335 336
f 380 379 335
f 381 336 337
f 381 380 336
f 382 337 338
f 382 381 337
f 383 338 339
f 383 382 338
f 384 339 340
f 384 383 339
f 385 340 341
f 385 384 340
f 341 330 374
f 341 374 385
f 387 386 342
f 387 342 343
f 342 388 344
f 386 388 342
f 344 389 345
f 388 389 344
f 345 390 346
f 389 390 345
f 346 391 347
f 390 391 346
f 347 392 348
f 391 392 347
f 348 393 349
f 392 393 348
f 349 394 350
f 393 394 349
f 350 395 351
f 394 395 350
f 351 396 352
f 395 396 351
f 352 397 353
f 396 397 352
f 354 353 397
f 354 397 398
f 355 387 343
f 355 399 387
f 398 356 354
f 400 356 398
f 357 399 355
f 357 401 399
f 400 358 356
f 402 358 400
f 359 401 357
f 359 403 401
f 402 360 358
f 404 360 402
f 361 403 359
f 361 405 403
f 404 362 360
f 406 362 404
f 363 405 361
f 363 407 405
f 406 364 362
f 408 364 406
f 365 407 363
f 365 409 407
f 408 366 364
f 410 366 408
f 367 409 365
f 367 411 409
f 410 368 366
f 412 368 410
f 369 411 367
f 369 413 411
f 412 370 368
f 414 370 412
f 371 413 369
f 371 415 413
f 414 372 370
f 416 372 414
f 373 415 371
f 373 417 415
f 416 374 372
f 418 374 416
f 419 417 373
f 419 373 375
f 420 375 376
f 420 419 375
f 421 376 377
f 421 420 376
f 422 377 378
f 422 421 377
f 423 378 379
f 423 422 378
f 424 379 380
f 424 423 379
f 425 380 381
f 425 424 380
f 426 381 382
f 426 425 381
f 427 382 383
f 427 426 382
f 428 383 384
f 428 427 383
f 429 384 385
f 429 428 384
f 385 374 418
f 385 418 429
f 431 430 386
f 431 386 387
f 386 432 388
f 430 432 386
f 388 433 389
f 432 433 388
f 389 434 390
f 433 434 389
f 390 435 391
f 434 435 390
f 391 436 392
f 435 436 391
f 392 437 393
f 436 437 392
f 393 438 394
f 437 438 393
f 394 439 395
f 438 439 394
f 395 440 396
f 439 440 395
f 396 441 397
f 440 441 396
f 398 397 441
f 398 441 442
f 399 431 387
f 399 443 431
f 442 400 398
f 444 400 442
f 401 443 399
f 401 445 443
f 444 402 400
f 446 402 444
f 403 445 401
f 403 447 445
f 446 404 402
f 448 404 446
f 405 447 403
f 405 449 447
f 448 406 404
f 450 406 448
f 407 449 405
f 407 451 449
f 450 408 406
f 452 408 450
f 409 451 407
f 409 453 451
f 452 410 408
f 454 410 452
f 411 453 409
f 411 455 453
f 454 412 410
f 456 412 454
f 413 455 411
f 413 457 455
f 456 414 412
f 458 414 456
f 415 457 413
f 415 459 457
f 458 416 414
f 460 416 458
f 417 459 415
f 417 461 459
f 460 418 416
f 462 418 460
f 463 461 417
f 463 417 419
f 464 419 420
f 464 463 419
f 465 420 421
f 465 464 420
f 466 421 422
f 466 465 421
f 467 422 423
f 467 466 422
f 468 423 424
f 468 467 423
f 469 424 425
f 469 468 424
f 470 425 426
f 470 469 425
f 471 426 427
f 471 470 426
f 472 427 428
f 472 471 427
f 473 428 429
f 473 472 428
f 429 418 462
f 429 462 473
f 475 474 430
f 475 430 431
f 430 476 432
f 474 476 430
f 432 477 433
f 476 477 432
f 433 478 434
f 477 478 433
f 434 479 435
f 478 479 434
f 435 480 436
f 479 480 435
f 436 481 437
f 480 481 436
f 437 482 438
f 481 482 437
f 438 483 439
f 482 483 438
f 439 484 440
f 483 484 439
f 440 485 441
f 484 485 440
f 442 441 485
f 442 485 486
f 443 475 431
f 443 487 475
f 486 444 442
f 488 444 486
f 445 487 443
f 445 489 487
f 488 446 444
f 490 446 488
f 447 489 445
f 447 491 489
f 490 448 446
f 492 448 490
f 449 491 447
f 449 493 491
f 492 450 448
f 494 450 492
f 451 493 449
f 451 495 493
f 494 452 450
f 496 452 494
f 453 495 451
f 453 497 495
f 496 454 452
f 498 454 496
f 455 497 453
f 455 499 497
f 498 456 454
f 500 456 498
f 457 499 455
f 457 501 499
f 500 458 456
f 502 458 500
f 459 501 457
f 459 503 501
f 502 460 458
f 504 460 502
f 461 503 459
f 461 505 503
f 504 462 460
f 506 462 504
f 507 505 461
f 507 461 463
f 508 463 464
f 508 507 463
f 509 464 465
f 509 508 464
f 510 465 466
f 510 509 465
f 511 466 467
f 511 510 466
f 512 467 468
f 512 511 467
f 513 468 469
f 513 512 468
f 514 469 470
f 514 513 469
f 515 470 471
f 515 514 470
f 516 471 472
f 516 515 471
f 517 472 473
f 517 516 472
f 473 462 506
f 473 506 517
f 519 518 474
f 519 474 475
f 474 520 476
f 518 520 474
f 476 521 477
f 520 521 476
f 477 522 478
f 521 522 477
f 478 523 479
f 522 523 478
f 479 524 480
f 523 524 479
f 480 525 481
f 524 525 480
f 481 526 482
f 525 526 481
f 482 527 483
f 526 527 482
f 483 528 484
f 527 528 483
f 484 529 485
f 528 529 484
f 486 485 529
f 486 529 530
f 487 519 475
f 487 531 519
f 530 488 486
f 532 488 530
f 489 531 487
f 489 533 531
f 532 490 488
f 534 490 532
f 491 533 489
f 491 535 533
f 534 492 490
f 536 492 534
f 493 535 491
f 493 537 535
f 536 494 492
f 538 494 536
f 495 537 493
f 495 539 537
f 538 496 494
f 540 496 538
f 497 539 495
f 497 541 539
f 540 498 496
f 542 498 540
f 499 541 497
f 499 543 541
f 542 500 498
f 544 500 542
f 501 543 499
f 501 545 543
f 544 502 500
f 546 502 544
f 503 545 501
f 503 547 545
f 546 504 502
f 548 504 546
f 505 547 503
f 505 549 547
f 548 506 504
f 550 506 548
f 551 549 505
f 551 505 507
f 552 507 508
f 552 551 507
f 553 508 509
f 553 552 508
f 554 509 510
f 554 553 509
f 555 510 511
f 555 554 510
f 556 511 512
f 556 555 511
f 557 512 513
f 557 556 512
f 558 513 514
f 558 557 513
f 559 514 515
f 559 558 514
f 560 515 516
f 560 559 515
f 561 516 517
f 561 560 516
f 517 506 550
f 517 550 561
f 563 562 518
f 563 518 519
f 518 564 520
f 562 564 518
f 520 565 521
f 564 565 520
f 521 566 522
f 565 566 521
f 522 567 523
f 566 567 522
f 523 568 524
f 567 568 523
f 524 569 525
f 568 569 524
f 525 570 526
f 569 570 525
f 526 571 527
f 570 571 526
f 527 572 528
f 571 572 527
f 528 573 529
f 572 573 528
f 530 529 573
f 530 573 574
f 531 563 519
f 531 575 563
f 574 532 530
f 576 532 574
f 533 575 531
f 533 577 575
f 576 534 532
f 578 534 576
f 535 577 533
f 535 579 577
f 578 536 534
f 580 536 578
f 537 579 535
f 537 581 579
f 580 538 536
f 582 538 580
f 539 581 537
f 539 583 581
f 582 540 538
f 584 540 582
f 541 583 539
f 541 585 583
f 584 542 540
f 586 542 584
f 543 585 541
f 543 587 585
f 586 544 542
f 588 544 586
f 545 587 543
f 545 589 587
f 588 546 544
f 590 546 588
f 547 589 545
f 547 591 589
f 590 548 546
f 592 548 590
f 549 591 547
f 549 593 591
f 592 550 548
f 594 550 592
f 595 593 549
f 595 549 551
f 596 551 552
f 596 595 551
f 597 552 553
f 597 596 552
f 598 553 554
f 598 597 553
f 599 554 555
f 599 598 554
f 600 555 556
f 600 599 555
f 601 556 557
f 601 600 556
f 602 557 558
f 602 601 557
f 603 558 559
f 603 602 558
f 604 559 560
f 604 603 559
f 605 560 561
f 605 604 560
f 561 550 594
f 561 594 605
f 563 606 562
f 607 564 562
f 607 562 606
f 608 565 564
f 608 564 607
f 609 566 565
f 609 565 608
f 610 567 566
f 610 566 609
f 611 568 567
f 611 567 610
f 612 569 568
f 612 568 611
f 613 570 569
f 613 569 612
f 614 571 570
f 614 570 613
f 615 572 571
f 615 571 614
f 616 573 572
f 616 572 615
f 616 574 573
f 575 617 606
f 575 606 563
f 606 618 607
f 606 617 618
f 607 619 608
f 607 618 619
f 608 620 609
f 608 619 620
f 609 621 610
f 609 620 621
f 610 622 611
f 610 621 622
f 611 623 612
f 611 622 623
f 612 624 613
f 612 623 624
f 613 625 614
f 613 624 625
f 614 626 615
f 614 625 626
f 615 627 616
f 615 626 627
f 627 576 574
f 627 574 616
f 577 628 617
f 577 617 575
f 617 629 618
f 617 628 629
f 618 630 619
f 618 629 630
f 619 631 620
f 619 630 631
f 620 632 621
f 620 631 632
f 621 633 622
f 621 632 633
f 622 634 623
f 622 633 634
f 623 635 624
f 623 634 635
f 624 636 625
f 624 635 636
f 625 637 626
f 625 636 637
f 626 638 627
f 626 637 638
f 638 578 576
f 638 576 627
f 579 639 628
f 579 628 577
f 628 640 629
f 628 639 640
f 629 641 630
f 629 640 641
f 630 642 631
f 630 641 642
f 631 643 632
f 631 642 643
f 632 644 633
f 632 643 644
f 633 645 634
f 633 644 645
f 634 646 635
f 634 645 646
f 635 647 636
f 635 646 647
f 636 648 637
f 636 647 648
f 637 649 638
f 637 648 649
f 649 580 578
f 649 578 638
f 581 650 639
f 581 639 579
f 639 651 640
f 639 650 651
f 640 652 641
f 640 651 652
f 641 653 642
f 641 652 653
f 642 654 643
f 642 653 654
f 643 655 644
f 643 654 655
f 644 656 645
f 644 655 656
f 645 657 646
f 645 656 657
f 646 658 647
f 646 657 658
f 647 659 648
f 647 658 659
f 648 660 649
f 648 659 660
f 660 582 580
f 660 580 649
f 583 661 650
f 583 650 581
f 650 662 651
f 650 661 662
f 651 663 652
f 651 662 663
f 652 664 653
f 652 663 664
f 653 665 654
f 653 664 665
f 654 666 655
f 654 665 666
f 655 667 656
f 655 666 667
f 656 668 657
f 656 667 668
f 657 669 658
f 657 668 669
f 658 670 659
f 658 669 670
f 659 671 660
f 659 670 671
f 671 584 582
f 671 582 660
f 585 672 661
f 585 661 583
f 661 673 662
f 661 672 673
f 662 674 663
f 662 673 674
f 663 675 664
f 663 674 675
f 664 676 665
f 664 675 676
f 665 677 666
f 665 676 677
f 666 678 667
f 666 677 678
f 667 679 668
f 667 678 679
f 668 680 669
f 668 679 680
f 669 681 670
f 669 680 681
f 670 682 671
f 670 681 682
f 682 586 584
f 682 584 671
f 587 683 672
f 587 672 585
f 672 684 673
f 672 683 684
f 673 685 674
f 673 684 685
f 674 686 675
f 674 685 686
f 675 687 676
f 675 686 687
f 676 688 677
f 676 687 688
f 677 689 678
f 677 688 689
f 678 690 679
f 678 689 690
f 679 691 680
f 679 690 691
f 680 692 681
f 680 691 692
f 681 693 682
f 681 692 693
f 693 588 586
f 693 586 682
f 589 694 683
f 589 683 587
f 683 695 684
f 683 694 695
f 684 696 685
f 684 695 696
f 685 697 686
f 685 696 697
f 686 698 687
f 686 697 698
f 687 699 688
f 687 698 699
f 688 700 689
f 688 699 700
f 689 701 690
f 689 700 701
f 690 702 691
f 690 701 702
f 691 703 692
f 691 702 703
f 692 704 693
f 692 703 704
f 704 590 588
f 704 588 693
f 591 705 694
f 591 694 589
f 694 706 695
f 694 705 706
f 695 707 696
f 695 706 707
f 696 708 697
f 696 707 708
f 697 709 698
f 697 708 709
f 698 710 699
f 698 709 710
f 699 711 700
f 699 710 711
f 700 712 701
f 700 711 712
f 701 713 702
f 701 712 713
f 702 714 703
f 702 713 714
f 703 715 704
f 703 714 715
f 715 592 590
f 715 590 704
f 593 716 705
f 593 705 591
f 705 717 706
f 705 716 717
f 706 718 707
f 706 717 718
f 707 719 708
f 707 718 719
f 708 720 709
f 708 719 720
f 709 721 710
f 709 720 721
f 710 722 711
f 710 721 722
f 711 723 712
f 711 722 723
f 712 724 713
f 712 723 724
f 713 725 714
f 713 724 725
f 714 726 715
f 714 725 726
f 726 594 592
f 726 592 715
f 595 716 593
f 716 595 596
f 716 596 717
f 717 596 597
f 717 597 718
f 718 597 598
f 718 598 719
f 719 598 599
f 719 599 720
f 720 599 600
f 720 600 721
f 721 600 601
f 721 601 722
f 722 601 602
f 722 602 723
f 723 602 603
f 723 603 724
f 724 603 604
f 724 604 725
f 725 604 605
f 725 605 726
f 726 605 594

