# https://github.com/mikedh/trimesh
v -0.01432072 -0.02219844 -0.02452283
v -0.01354329 -0.02362281 -0.02482107
v -0.01358014 -0.02257210 -0.02540408
v -0.01335509 -0.02302512 -0.02393539
v -0.01443226 -0.02051524 -0.02467248
v -0.01357027 -0.02059618 -0.02553421
v -0.01362141 -0.02097012 -0.02380848
v -0.01442476 -0.01844361 -0.02467701
v -0.01358805 -0.01852048 -0.02550291
v -0.01360359 -0.01888745 -0.02383898
v -0.01442245 -0.01641150 -0.02466475
v -0.01359015 -0.01650439 -0.02549667
v -0.01358927 -0.01684619 -0.02383408
v -0.01442205 -0.01440063 -0.02466502
v -0.01358942 -0.01449326 -0.02549791
v -0.01358916 -0.01483407 -0.02383227
v -0.01442171 -0.01238824 -0.02466551
v -0.01358869 -0.01248079 -0.02549828
v -0.01358931 -0.01282217 -0.02383271
v -0.01442102 -0.01037671 -0.02466507
v -0.01358835 -0.01046802 -0.02549703
v -0.01358855 -0.01081012 -0.02383293
v -0.01443504 -0.00836006 -0.02465725
v -0.01361209 -0.00844050 -0.02549055
v -0.01359443 -0.00880149 -0.02382992
v -0.01446776 -0.00633473 -0.02466950
v -0.01364434 -0.00641025 -0.02550123
v -0.01361934 -0.00676385 -0.02382548
v -0.01437282 -0.00473364 -0.02482247
v -0.01326446 -0.00423113 -0.02541787
v -0.01345748 -0.00457012 -0.02390487
v -0.01361677 -0.00338113 -0.02449978
v -0.01258967 -0.02453102 -0.02450481
v -0.01119709 -0.02524085 -0.02480276
v -0.01203564 -0.02435159 -0.02538986
v -0.01156376 -0.02447800 -0.02392806
v -0.01164919 -0.02272167 -0.02579621
v -0.01172569 -0.02255805 -0.02353451
v -0.01165402 -0.02060935 -0.02577572
v -0.01170362 -0.02045223 -0.02355906
v -0.01167719 -0.01857338 -0.02574431
v -0.01167727 -0.01842097 -0.02358656
v -0.01167750 -0.01656344 -0.02574436
v -0.01167628 -0.01640926 -0.02358582
v -0.01167701 -0.01455111 -0.02574509
v -0.01167703 -0.01439760 -0.02358555
v -0.01167589 -0.01253891 -0.02574531
v -0.01167666 -0.01238479 -0.02358572
v -0.01167676 -0.01052579 -0.02574454
v -0.01167665 -0.01037364 -0.02358563
v -0.01170981 -0.00849826 -0.02574457
v -0.01169520 -0.00836016 -0.02358152
v -0.01172725 -0.00645001 -0.02574606
v -0.01170608 -0.00632019 -0.02358027
v -0.01145042 -0.00469570 -0.02575008
v -0.01140737 -0.00457544 -0.02357992
v -0.01275734 -0.00207849 -0.02466373
v -0.01182238 -0.00249856 -0.02554384
v -0.01187679 -0.00273537 -0.02378435
v -0.01230144 -0.00059881 -0.02482871
v -0.01125948 -0.00044855 -0.02536841
v -0.01155921 -0.00075223 -0.02396377
v -0.01141015 0.00029321 -0.02450185
v -0.00967909 -0.02564186 -0.02468593
v -0.00971002 -0.02476236 -0.02557275
v -0.00951495 -0.02478686 -0.02375774
v -0.00949368 -0.02264720 -0.02578165
v -0.00956003 -0.02258954 -0.02354557
v -0.00952689 -0.02058225 -0.02573611
v -0.00953555 -0.02057835 -0.02359438
v -0.00953469 -0.01857183 -0.02572750
v -0.00953257 -0.01857248 -0.02360293
v -0.00953375 -0.01656049 -0.02572887
v -0.00953359 -0.01656050 -0.02360173
v -0.00953360 -0.01454771 -0.02572902
v -0.00953365 -0.01454767 -0.02360164
v -0.00953225 -0.01253569 -0.02572907
v -0.00953288 -0.01253505 -0.02360180
v -0.00953399 -0.01052317 -0.02572904
v -0.00953425 -0.01052311 -0.02360172
v -0.00956041 -0.00849653 -0.02573094
v -0.00955478 -0.00849867 -0.02359954
v -0.00957884 -0.00646494 -0.02574075
v -0.00955838 -0.00645936 -0.02359009
v -0.00963475 -0.00442725 -0.02576296
v -0.00957595 -0.00441084 -0.02356790
v -0.00971030 -0.00235221 -0.02578213
v -0.00962771 -0.00233148 -0.02354880
v -0.00922361 -0.00012200 -0.02558197
v -0.00947156 -0.00025617 -0.02374720
v -0.00991554 0.00073270 -0.02465434
v -0.00805429 -0.02849018 -0.02451357
v -0.00709771 -0.02943647 -0.02483153
v -0.00754087 -0.02846519 -0.02534024
v -0.00709000 -0.02898482 -0.02400379
v -0.00848478 -0.02691023 -0.02466959
v -0.00753196 -0.02670952 -0.02558924
v -0.00752573 -0.02704388 -0.02374242
v -0.00733605 -0.02468339 -0.02580345
v -0.00743563 -0.02474237 -0.02352275
v -0.00737259 -0.02259490 -0.02576413
v -0.00739411 -0.02273130 -0.02356630
v -0.00739163 -0.02057911 -0.02574413
v -0.00738916 -0.02073535 -0.02358707
v -0.00820336 -0.02061416 0.07617110
v -0.00741550 -0.02162466 0.07566521
v -0.00702267 -0.02062578 0.07511379
v -0.00832705 -0.02045108 0.07788257
v -0.00774394 -0.02162829 0.07732997
v -0.00829788 -0.02047832 0.07999651
v -0.00772409 -0.02161615 0.07945682
v -0.00833255 -0.02046948 0.08210988
v -0.00771886 -0.02164873 0.08158907
v -0.00820764 -0.02032383 0.08381850
v -0.00772935 -0.02152291 0.08361747
v -0.00715768 -0.02101545 0.08487991
v -0.00739067 -0.01856975 -0.02574462
v -0.00739012 -0.01872356 -0.02358602
v -0.00743621 -0.01971974 0.07637850
v -0.00742455 -0.01959554 0.07840531
v -0.00743485 -0.01960828 0.08053524
v -0.00744575 -0.01957707 0.08265333
v -0.00722128 -0.01980377 0.08431582
v -0.00739026 -0.01655707 -0.02574505
v -0.00739030 -0.01671051 -0.02358557
v -0.00739022 -0.01454431 -0.02574504
v -0.00739023 -0.01469775 -0.02358559
v -0.00738911 -0.01253222 -0.02574500
v -0.00738944 -0.01268540 -0.02358570
v -0.00738965 -0.01051963 -0.02574479
v -0.00739048 -0.01067273 -0.02358600
v -0.00739721 -0.00849895 -0.02574490
v -0.00739860 -0.00865129 -0.02358594
v -0.00740657 -0.00647520 -0.02575241
v -0.00740238 -0.00661687 -0.02357832
v -0.00829189 -0.00668479 0.07607816
v -0.00715660 -0.00722390 0.07597008
v -0.00732686 -0.00637648 0.07524496
v -0.00839699 -0.00652552 0.07773849
v -0.00756855 -0.00736351 0.07780345
v -0.00833630 -0.00653722 0.07986773
v -0.00749728 -0.00737588 0.07993410
v -0.00834825 -0.00653560 0.08203320
v -0.00747996 -0.00740079 0.08210532
v -0.00825620 -0.00638697 0.08376545
v -0.00777447 -0.00717234 0.08379343
v -0.00727120 -0.00672147 0.08475064
v -0.00745589 -0.00445673 -0.02578064
v -0.00741923 -0.00457297 -0.02354940
v -0.00751855 -0.00584822 0.07630093
v -0.00749144 -0.00571959 0.07827152
v -0.00749422 -0.00573452 0.08040233
v -0.00752405 -0.00570794 0.08257679
v -0.00727027 -0.00592180 0.08426908
v -0.00752260 -0.00240242 -0.02581366
v -0.00744465 -0.00250529 -0.02351677
v -0.00724871 -0.00058271 -0.02583482
v -0.00714195 -0.00070367 -0.02349749
v -0.00853959 0.00159604 -0.02481450
v -0.00721485 0.00146413 -0.02546831
v -0.00763924 0.00119796 -0.02386111
v -0.00707816 0.00235726 -0.02450244
v -0.00578448 -0.02946316 -0.02450384
v -0.00593450 -0.02872027 -0.02541092
v -0.00554835 -0.02835046 -0.02390998
v -0.00543161 -0.02682477 -0.02554759
v -0.00551385 -0.02634838 -0.02377300
v -0.00544217 -0.02470289 -0.02551031
v -0.00548070 -0.02430820 -0.02380897
v -0.00547761 -0.02265041 -0.02549744
v -0.00547661 -0.02230993 -0.02383375
v -0.00645177 -0.02281905 0.07630914
v -0.00525446 -0.02330375 0.07611130
v -0.00595845 -0.02225648 0.07508687
v -0.00657061 -0.02279622 0.07834008
v -0.00539908 -0.02341949 0.07780295
v -0.00653536 -0.02279258 0.08048469
v -0.00539261 -0.02335017 0.07993353
v -0.00654646 -0.02280490 0.08263494
v -0.00536683 -0.02338011 0.08208388
v -0.00653680 -0.02246532 0.08431273
v -0.00553494 -0.02325758 0.08381280
v -0.00552362 -0.02207850 0.08489358
v -0.00547884 -0.02063959 -0.02549799
v -0.00547768 -0.02029919 -0.02383353
v -0.00539814 -0.02098884 0.07506113
v -0.00589318 -0.02045076 0.08495766
v -0.00547791 -0.01862764 -0.02549798
v -0.00547792 -0.01828591 -0.02383265
v -0.00588015 -0.01983530 0.07569527
v -0.00567818 -0.01959631 0.07737414
v -0.00566033 -0.01960870 0.07951407
v -0.00568078 -0.01956940 0.08164119
v -0.00568814 -0.01970129 0.08367644
v -0.00547792 -0.01661481 -0.02549795
v -0.00547792 -0.01627314 -0.02383266
v -0.00547789 -0.01460209 -0.02549796
v -0.00547790 -0.01426041 -0.02383267
v -0.00547736 -0.01258973 -0.02549793
v -0.00547748 -0.01224802 -0.02383272
v -0.00547675 -0.01057737 -0.02549759
v -0.00547732 -0.01023591 -0.02383310
v -0.00547476 -0.00856463 -0.02549669
v -0.00547613 -0.00822393 -0.02383379
v -0.00547478 -0.00655353 -0.02549697
v -0.00547503 -0.00621376 -0.02383212
v -0.00535592 -0.00748785 0.07602129
v -0.00587195 -0.00636229 0.07517509
v -0.00559242 -0.00766359 0.07789834
v -0.00552257 -0.00768349 0.08000249
v -0.00547362 -0.00771372 0.08216019
v -0.00603039 -0.00743498 0.08406796
v -0.00527024 -0.00632108 0.08497498
v -0.00550793 -0.00453206 -0.02550563
v -0.00549674 -0.00418521 -0.02382453
v -0.00583130 -0.00541156 0.07606894
v -0.00579471 -0.00517949 0.07791709
v -0.00579260 -0.00519861 0.07999266
v -0.00581444 -0.00516536 0.08210701
v -0.00569377 -0.00528756 0.08404050
v -0.00556253 -0.00247342 -0.02554354
v -0.00549896 -0.00207694 -0.02380166
v -0.00557114 -0.00033202 -0.02555998
v -0.00551458 0.00012766 -0.02378509
v -0.00530112 0.00137084 -0.02532863
v -0.00576632 0.00186300 -0.02400866
v -0.00577523 0.00234611 -0.02482303
v -0.00476251 -0.02853011 -0.02481185
v -0.00461286 -0.02683964 -0.02465103
v -0.00463904 -0.02476658 -0.02464659
v -0.00464500 -0.02274361 -0.02466525
v -0.00464730 -0.02212488 0.07596694
v -0.00450957 -0.02255076 0.07785591
v -0.00452982 -0.02248967 0.07999161
v -0.00450315 -0.02249642 0.08213498
v -0.00471415 -0.02277415 0.08380560
v -0.00464517 -0.02073294 -0.02466632
v -0.00471222 -0.02049776 0.07618790
v -0.00448862 -0.02077233 0.07791312
v -0.00450799 -0.02076987 0.08005875
v -0.00450157 -0.02072962 0.08218615
v -0.00465470 -0.02113830 0.08408554
v -0.00464526 -0.01871991 -0.02466533
v -0.00464527 -0.01670711 -0.02466530
v -0.00464529 -0.01469438 -0.02466532
v -0.00464520 -0.01268175 -0.02466532
v -0.00424114 -0.01261305 0.07036235
v -0.00333413 -0.01336218 0.07020880
v -0.00364099 -0.01243053 0.06918487
v -0.00417159 -0.01235635 0.07197128
v -0.00366199 -0.01333528 0.07152213
v -0.00334476 -0.01238894 0.07247952
v -0.00464472 -0.01066948 -0.02466520
v -0.00437498 -0.01070627 0.06986012
v -0.00348226 -0.01074303 0.06903730
v -0.00441312 -0.01057845 0.07197543
v -0.00350325 -0.01079826 0.07292209
v -0.00464260 -0.00865811 -0.02466460
v -0.00436293 -0.00854859 0.06990944
v -0.00350073 -0.00862663 0.06908752
v -0.00464208 -0.00852646 0.07181651
v -0.00351477 -0.00951756 0.07414021
v -0.00433344 -0.00883833 0.07397004
v -0.00425734 -0.00829274 0.07590493
v -0.00360502 -0.00909445 0.07563698
v -0.00326456 -0.00838436 0.07693122
v -0.00464032 -0.00664846 -0.02466344
v -0.00437716 -0.00638544 0.06996152
v -0.00350247 -0.00647198 0.06908409
v -0.00463644 -0.00632550 0.07189730
v -0.00476038 -0.00672004 0.07423502
v -0.00371310 -0.00764796 0.07790939
v -0.00357563 -0.00739115 0.08003886
v -0.00349482 -0.00743107 0.08214775
v -0.00388173 -0.00728268 0.08406738
v -0.00325243 -0.00606176 0.08496548
v -0.00465271 -0.00463135 -0.02466701
v -0.00415093 -0.00470382 0.06969563
v -0.00333312 -0.00473406 0.06919916
v -0.00435732 -0.00441732 0.07139721
v -0.00429242 -0.00443835 0.07354871
v -0.00449697 -0.00458618 0.07551124
v -0.00443530 -0.00428814 0.07758052
v -0.00442827 -0.00432796 0.07963736
v -0.00443889 -0.00432301 0.08170948
v -0.00431760 -0.00427852 0.08369428
v -0.00382882 -0.00481062 0.08491561
v -0.00468704 -0.00255234 -0.02469119
v -0.00366110 -0.00374841 0.07018259
v -0.00346911 -0.00362128 0.07191701
v -0.00341255 -0.00364456 0.07403870
v -0.00340109 -0.00365711 0.07609632
v -0.00338456 -0.00369164 0.07813147
v -0.00338271 -0.00371836 0.08016930
v -0.00335532 -0.00368001 0.08224052
v -0.00319194 -0.00380410 0.08391254
v -0.00467130 -0.00038868 -0.02467518
v -0.00479585 0.00136813 -0.02451149
v -0.00274026 -0.01225281 0.06997187
v -0.00283430 -0.01288418 0.07151425
v -0.00260374 -0.01025405 0.06993870
v -0.00257303 -0.01094651 0.07195112
v -0.00262411 -0.00813974 0.06989865
v -0.00232434 -0.00862007 0.07185836
v -0.00258010 -0.00868422 0.07392306
v -0.00273813 -0.00836412 0.07595394
v -0.00261888 -0.00595950 0.06988760
v -0.00232837 -0.00647604 0.07180550
v -0.00232912 -0.00641226 0.07395260
v -0.00233130 -0.00640543 0.07602254
v -0.00251980 -0.00660084 0.07795202
v -0.00251123 -0.00621902 0.08006213
v -0.00243442 -0.00625047 0.08216229
v -0.00259895 -0.00654857 0.08385427
v -0.00284338 -0.00424573 0.07015522
v -0.00260333 -0.00451648 0.07184862
v -0.00260421 -0.00450069 0.07398933
v -0.00259901 -0.00446469 0.07604790
v -0.00257598 -0.00450310 0.07806800
v -0.00255824 -0.00451084 0.08010965
v -0.00250267 -0.00450566 0.08220355
v -0.00258627 -0.00496073 0.08408935
v -0.00022835 0.01959472 -0.02622766
v 0.00068326 0.01883838 -0.02635554
v 0.00038622 0.01978022 -0.02739224
v -0.00021027 0.01985328 -0.02458833
v 0.00034050 0.01886659 -0.02502508
v 0.00060204 0.01982062 -0.02408881
v -0.00036064 0.02148968 -0.02673488
v 0.00052867 0.02147850 -0.02754323
v -0.00048107 0.02163932 -0.02465920
v 0.00048438 0.02131415 -0.02396528
v -0.00034690 0.02364771 -0.02668249
v 0.00048695 0.02362168 -0.02750976
v -0.00066492 0.02367373 -0.02478504
v 0.00072594 0.02254300 -0.02282618
v -0.00047997 0.02365612 -0.02250958
v -0.00045923 0.02382675 -0.02021232
v 0.00059120 0.02283569 -0.02073404
v -0.00048689 0.02379963 -0.01814217
v 0.00059955 0.02274489 -0.01868546
v -0.00028038 0.02400800 -0.01653608
v 0.00056633 0.02283696 -0.01672698
v 0.00060759 0.02355388 -0.01555967
v -0.00036590 0.02582625 -0.02664588
v 0.00048106 0.02577846 -0.02753478
v -0.00063603 0.02585151 -0.02468583
v -0.00063926 0.02581906 -0.02257666
v -0.00065526 0.02577930 -0.02056533
v -0.00068510 0.02575714 -0.01851377
v -0.00044425 0.02577793 -0.01666788
v 0.00063947 0.02548012 -0.01583876
v -0.00013096 0.02750756 -0.02692269
v 0.00067259 0.02748724 -0.02743313
v -0.00034492 0.02776529 -0.02519854
v -0.00031959 0.02775868 -0.02301167
v -0.00032203 0.02774379 -0.02094447
v -0.00034761 0.02774429 -0.01890731
v -0.00022684 0.02777786 -0.01693140
v 0.00028914 0.02754739 -0.01589577
v 0.00036795 0.02845297 -0.02642929
v 0.00053448 0.02856838 -0.02469375
v 0.00053868 0.02855159 -0.02257030
v 0.00049729 0.02856592 -0.02051653
v 0.00050379 0.02860029 -0.01844380
v 0.00063815 0.02851555 -0.01677472
v 0.00124955 0.01995954 -0.02661083
v 0.00114621 0.01932206 -0.02504669
v 0.00129659 0.02178994 -0.02692283
v 0.00152007 0.02142069 -0.02515598
v 0.00152000 0.02390701 -0.02649955
v 0.00272324 0.02354274 -0.02551975
v 0.00249918 0.02265983 -0.02434495
v 0.00266507 0.02269057 -0.02245610
v 0.00243619 0.02265748 -0.02069120
v 0.00249000 0.02257392 -0.01864086
v 0.00251705 0.02250619 -0.01660170
v 0.00155735 0.02381874 -0.01458105
v 0.00237874 0.02270685 -0.01466637
v 0.00178486 0.02365945 -0.01265354
v 0.00270862 0.02276598 -0.01260339
v 0.00173465 0.02368914 -0.01067261
v 0.00266446 0.02277281 -0.01063249
v 0.00172436 0.02369509 -0.00865906
v 0.00263619 0.02278233 -0.00862338
v 0.00172450 0.02369420 -0.00664572
v 0.00263625 0.02278215 -0.00660926
v 0.00172457 0.02369412 -0.00463303
v 0.00263684 0.02278186 -0.00459649
v 0.00172460 0.02369413 -0.00262028
v 0.00263685 0.02278188 -0.00258376
v 0.00172454 0.02369413 -0.00060751
v 0.00263684 0.02278184 -0.00057100
v 0.00172338 0.02369447 0.00140321
v 0.00263593 0.02278171 0.00144019
v 0.00172639 0.02369257 0.00341257
v 0.00263754 0.02278226 0.00345061
v 0.00174573 0.02367531 0.00547127
v 0.00267010 0.02277190 0.00550400
v 0.00172877 0.02369642 0.00761358
v 0.00265465 0.02277342 0.00764806
v 0.00187516 0.02385603 0.00935552
v 0.00236424 0.02301015 0.00934292
v 0.00289277 0.02352816 0.01033309
v 0.00133382 0.02627799 -0.02675850
v 0.00272617 0.02452751 -0.02476319
v 0.00172049 0.02571702 -0.02468710
v 0.00269515 0.02483418 -0.02281620
v 0.00169807 0.02593546 -0.02234899
v 0.00270101 0.02479416 -0.02077313
v 0.00171981 0.02594303 -0.02030562
v 0.00273038 0.02483023 -0.01870922
v 0.00173771 0.02600340 -0.01818003
v 0.00237599 0.02487136 -0.01633894
v 0.00147899 0.02596416 -0.01673322
v 0.00264856 0.02450870 -0.01413039
v 0.00263000 0.02458084 -0.01215002
v 0.00263595 0.02460774 -0.01014134
v 0.00263778 0.02460681 -0.00812702
v 0.00263690 0.02460635 -0.00611408
v 0.00263683 0.02460638 -0.00410137
v 0.00263686 0.02460638 -0.00208860
v 0.00263678 0.02460643 -0.00007582
v 0.00263604 0.02460679 0.00193441
v 0.00263670 0.02460518 0.00394388
v 0.00263136 0.02460556 0.00601494
v 0.00264376 0.02460613 0.00817599
v 0.00291230 0.02436853 0.00986848
v 0.00116344 0.02796558 -0.02647910
v 0.00135588 0.02768195 -0.02482198
v 0.00129899 0.02765424 -0.02272697
v 0.00125797 0.02767772 -0.02067881
v 0.00128194 0.02770396 -0.01857749
v 0.00113922 0.02733551 -0.01670725
v 0.00496226 0.02291138 -0.02463291
v 0.00451676 0.02369401 -0.02544220
v 0.00446980 0.02265448 -0.02277041
v 0.00454849 0.02264016 -0.02068753
v 0.00462040 0.02260636 -0.01860047
v 0.00437478 0.02256579 -0.01683803
v 0.00471018 0.02277084 -0.01470013
v 0.00449060 0.02279317 -0.01250103
v 0.00448290 0.02278075 -0.01050788
v 0.00446149 0.02278186 -0.00850623
v 0.00446031 0.02278220 -0.00649254
v 0.00446133 0.02278187 -0.00447955
v 0.00446136 0.02278188 -0.00246685
v 0.00446136 0.02278185 -0.00045406
v 0.00446102 0.02278147 0.00155775
v 0.00446056 0.02278302 0.00356846
v 0.00448165 0.02278905 0.00561419
v 0.00450150 0.02277462 0.00773394
v 0.00404159 0.02292997 0.00963305
v 0.00425629 0.02385758 0.01035699
v 0.00457213 0.02442062 -0.02464556
v 0.00456601 0.02459427 -0.02277830
v 0.00455937 0.02452998 -0.02068839
v 0.00456436 0.02453396 -0.01862147
v 0.00426424 0.02460413 -0.01687190
v 0.00471601 0.02447895 -0.01502153
v 0.00437455 0.02455268 -0.01301469
v 0.00442007 0.02460772 -0.01101440
v 0.00445983 0.02460766 -0.00900088
v 0.00446190 0.02460631 -0.00698779
v 0.00446135 0.02460637 -0.00497471
v 0.00446135 0.02460638 -0.00296198
v 0.00446136 0.02460638 -0.00094919
v 0.00446135 0.02460636 0.00106352
v 0.00446108 0.02460640 0.00307305
v 0.00445925 0.02461141 0.00508748
v 0.00445825 0.02462184 0.00717656
v 0.00447412 0.02446702 0.00922176
v 0.00676803 0.02277652 -0.02470044
v 0.00631199 0.02381928 -0.02553385
v 0.00658150 0.02260880 -0.02274003
v 0.00666129 0.02257492 -0.02065911
v 0.00673557 0.02256065 -0.01856339
v 0.00625312 0.02277642 -0.01638634
v 0.00563724 0.02366233 -0.01434795
v 0.00707735 0.02383633 -0.01548709
v 0.00531377 0.02370616 -0.01247661
v 0.00535844 0.02370014 -0.01047199
v 0.00537343 0.02369430 -0.00846875
v 0.00537297 0.02369423 -0.00645620
v 0.00537357 0.02369414 -0.00444304
v 0.00537362 0.02369412 -0.00243032
v 0.00537361 0.02369412 -0.00041752
v 0.00537359 0.02369387 0.00159487
v 0.00537302 0.02369451 0.00360458
v 0.00537726 0.02370633 0.00563406
v 0.00540653 0.02369549 0.00772515
v 0.00526866 0.02353747 0.00943228
v 0.00637911 0.02469138 -0.02458224
v 0.00643808 0.02486698 -0.02269329
v 0.00642533 0.02480149 -0.02058885
v 0.00642602 0.02481250 -0.01848497
v 0.00637769 0.02473905 -0.01643394
v 0.00790339 -0.02844187 -0.02450513
v 0.00892216 -0.02942524 -0.02482899
v 0.00839046 -0.02844368 -0.02534564
v 0.00891342 -0.02895152 -0.02399441
v 0.00774399 -0.02670132 -0.02467196
v 0.00867470 -0.02676192 -0.02557287
v 0.00863355 -0.02725779 -0.02377198
v 0.00775950 -0.02455237 -0.02469733
v 0.00866811 -0.02462405 -0.02556690
v 0.00860070 -0.02507433 -0.02378077
v 0.00773655 -0.02247362 -0.02467368
v 0.00861678 -0.02256781 -0.02554486
v 0.00859438 -0.02297104 -0.02378708
v 0.00771698 -0.02044189 -0.02466553
v 0.00859980 -0.02053814 -0.02553130
v 0.00859288 -0.02093918 -0.02379770
v 0.00770765 -0.01842201 -0.02466506
v 0.00857353 -0.01851211 -0.02552935
v 0.00857267 -0.01891642 -0.02380097
v 0.00770783 -0.01640977 -0.02466528
v 0.00857175 -0.01649958 -0.02552951
v 0.00857181 -0.01690460 -0.02380133
v 0.00770900 -0.01439765 -0.02466532
v 0.00857310 -0.01448757 -0.02552944
v 0.00857311 -0.01489236 -0.02380121
v 0.00770905 -0.01238494 -0.02466531
v 0.00857315 -0.01247486 -0.02552942
v 0.00857316 -0.01287960 -0.02380121
v 0.00770902 -0.01037219 -0.02466531
v 0.00857312 -0.01046211 -0.02552942
v 0.00857312 -0.01086686 -0.02380121
v 0.00770902 -0.00835941 -0.02466530
v 0.00857311 -0.00844934 -0.02552943
v 0.00857314 -0.00885410 -0.02380120
v 0.00770904 -0.00634699 -0.02466562
v 0.00857348 -0.00643751 -0.02552983
v 0.00857308 -0.00684140 -0.02380127
v 0.00770935 -0.00433637 -0.02466567
v 0.00857411 -0.00442666 -0.02552818
v 0.00857252 -0.00483079 -0.02380206
v 0.00770436 -0.00230713 -0.02465300
v 0.00855291 -0.00237994 -0.02552370
v 0.00857390 -0.00281697 -0.02379536
v 0.00767446 -0.00022499 -0.02465784
v 0.00852422 -0.00025317 -0.02555078
v 0.00857756 -0.00075136 -0.02376733
v 0.00779689 0.00146952 -0.02480840
v 0.00894928 0.00165709 -0.02540787
v 0.00858213 0.00126202 -0.02390757
v 0.00876729 0.00238785 -0.02450091
v 0.00785236 0.01963578 -0.02620595
v 0.00874035 0.01886826 -0.02637060
v 0.00844963 0.01982922 -0.02739617
v 0.00793164 0.01988303 -0.02457768
v 0.00841988 0.01888581 -0.02504614
v 0.00874923 0.01982456 -0.02408938
v 0.00778829 0.02122671 -0.02697484
v 0.00861747 0.02151169 -0.02756054
v 0.00760179 0.02157026 -0.02504997
v 0.00860326 0.02143116 -0.02365896
v 0.00752915 0.02340084 -0.02647777
v 0.00860640 0.02361837 -0.02752068
v 0.00831346 0.02261834 -0.02274517
v 0.00850362 0.02282240 -0.02059151
v 0.00858589 0.02277447 -0.01851880
v 0.00823533 0.02290215 -0.01667066
v 0.00884513 0.02405943 -0.01576937
v 0.00775584 0.02583240 -0.02665795
v 0.00859318 0.02575177 -0.02753545
v 0.00735424 0.02572001 -0.02484132
v 0.00741166 0.02599805 -0.02258166
v 0.00741659 0.02593505 -0.02049211
v 0.00741776 0.02593742 -0.01841000
v 0.00766965 0.02600833 -0.01655144
v 0.00845155 0.02568333 -0.01569060
v 0.00794797 0.02751691 -0.02691693
v 0.00874281 0.02747187 -0.02741199
v 0.00776276 0.02777225 -0.02521878
v 0.00782614 0.02772617 -0.02302841
v 0.00784348 0.02767300 -0.02092155
v 0.00782586 0.02765952 -0.01886139
v 0.00797776 0.02771491 -0.01689076
v 0.00853135 0.02754970 -0.01582390
v 0.00842115 0.02845880 -0.02642529
v 0.00860483 0.02856817 -0.02468381
v 0.00862841 0.02854034 -0.02254171
v 0.00859296 0.02855737 -0.02046843
v 0.00860173 0.02859926 -0.01839162
v 0.00878200 0.02852513 -0.01672330
v 0.01023545 -0.02944922 -0.02450170
v 0.01004437 -0.02873449 -0.02542311
v 0.01043557 -0.02832003 -0.02390612
v 0.01073737 -0.02663755 -0.02560913
v 0.01078968 -0.02625635 -0.02371704
v 0.01034613 -0.02440380 -0.02584145
v 0.01029714 -0.02433999 -0.02348870
v 0.01064241 -0.02264833 -0.02582680
v 0.01061981 -0.02261490 -0.02349899
v 0.01062676 -0.02060056 -0.02582100
v 0.01061179 -0.02058520 -0.02350498
v 0.01059339 -0.01857296 -0.02582117
v 0.01059319 -0.01857170 -0.02350902
v 0.01059250 -0.01655983 -0.02582199
v 0.01059328 -0.01656053 -0.02350903
v 0.01059364 -0.01454769 -0.02582175
v 0.01059367 -0.01454772 -0.02350891
v 0.01059365 -0.01253497 -0.02582171
v 0.01059364 -0.01253496 -0.02350891
v 0.01059362 -0.01052221 -0.02582171
v 0.01059364 -0.01052221 -0.02350892
v 0.01059363 -0.00850945 -0.02582175
v 0.01059362 -0.00850946 -0.02350888
v 0.01059459 -0.00649854 -0.02582161
v 0.01059300 -0.00649819 -0.02350902
v 0.01059311 -0.00448831 -0.02582138
v 0.01059433 -0.00448748 -0.02350925
v 0.01055739 -0.00242446 -0.02584344
v 0.01061584 -0.00244212 -0.02348719
v 0.01056635 -0.00027441 -0.02584246
v 0.01062344 -0.00030694 -0.02348817
v 0.01099753 0.00136008 -0.02542212
v 0.01045117 0.00162697 -0.02390852
v 0.01008770 0.00236348 -0.02480794
v 0.00933886 0.01997836 -0.02663043
v 0.00924088 0.01931851 -0.02509265
v 0.00948430 0.02197477 -0.02667624
v 0.00951610 0.02126283 -0.02464302
v 0.00945939 0.02407303 -0.02671858
v 0.00975667 0.02358359 -0.02475132
v 0.00952036 0.02353847 -0.02269674
v 0.00954081 0.02392759 -0.02057584
v 0.00962003 0.02387126 -0.01848400
v 0.00943817 0.02358019 -0.01683102
v 0.00945713 0.02624405 -0.02672485
v 0.00974769 0.02572510 -0.02480797
v 0.00974143 0.02578914 -0.02266579
v 0.00975442 0.02585491 -0.02058779
v 0.00980790 0.02584255 -0.01847155
v 0.00960177 0.02526857 -0.01659606
v 0.00923067 0.02795729 -0.02645563
v 0.00946381 0.02768370 -0.02476451
v 0.00944515 0.02770299 -0.02262703
v 0.00942096 0.02777049 -0.02054377
v 0.00945940 0.02780816 -0.01844425
v 0.00937233 0.02738162 -0.01655905
v 0.01123227 -0.02853494 -0.02482416
v 0.01176352 -0.02697919 -0.02464707
v 0.01266030 -0.02568108 -0.02448257
v 0.01228487 -0.02486841 -0.02545880
v 0.01247409 -0.02444783 -0.02386283
v 0.01267063 -0.02269153 -0.02553342
v 0.01264474 -0.02227348 -0.02379377
v 0.01263709 -0.02066085 -0.02552194
v 0.01261939 -0.02023696 -0.02379868
v 0.01261310 -0.01863308 -0.02552851
v 0.01261333 -0.01822791 -0.02380146
v 0.01261346 -0.01662030 -0.02552972
v 0.01261408 -0.01621587 -0.02380125
v 0.01261417 -0.01460783 -0.02552944
v 0.01261416 -0.01420306 -0.02380121
v 0.01261415 -0.01259508 -0.02552942
v 0.01261415 -0.01219032 -0.02380122
v 0.01261412 -0.01058230 -0.02552943
v 0.01261413 -0.01017755 -0.02380120
v 0.01261419 -0.00856962 -0.02552936
v 0.01261391 -0.00816570 -0.02380081
v 0.01261539 -0.00655969 -0.02552857
v 0.01261431 -0.00615418 -0.02380245
v 0.01261221 -0.00454415 -0.02553527
v 0.01262887 -0.00411365 -0.02380694
v 0.01258901 -0.00246076 -0.02556330
v 0.01264462 -0.00202554 -0.02377986
v 0.01260405 -0.00048051 -0.02542307
v 0.01237294 0.00003462 -0.02392276
v 0.01258441 0.00056648 -0.02482972
v 0.01157621 0.00155145 -0.02452270
v 0.01343216 -0.02436379 -0.02482272
v 0.01352488 -0.02276340 -0.02466890
v 0.01349150 -0.02073917 -0.02465750
v 0.01347724 -0.01872203 -0.02466509
v 0.01347795 -0.01671050 -0.02466548
v 0.01347827 -0.01469775 -0.02466531
v 0.01347825 -0.01268500 -0.02466532
v 0.01347823 -0.01067221 -0.02466533
v 0.01347827 -0.00865984 -0.02466501
v 0.01347896 -0.00664953 -0.02466496
v 0.01348112 -0.00461856 -0.02467763
v 0.01348806 -0.00254819 -0.02467279
v 0.01337784 -0.00086671 -0.02452224
f 3 2 1
f 4 1 2
f 3 1 5
f 3 5 6
f 1 4 7
f 1 7 5
f 6 5 8
f 6 8 9
f 5 7 10
f 5 10 8
f 9 8 11
f 9 11 12
f 8 10 13
f 8 13 11
f 12 11 14
f 12 14 15
f 11 13 16
f 11 16 14
f 15 14 17
f 15 17 18
f 14 16 19
f 14 19 17
f 18 17 20
f 18 20 21
f 17 19 22
f 17 22 20
f 21 20 23
f 21 23 24
f 20 22 25
f 20 25 23
f 24 23 26
f 24 26 27
f 23 25 28
f 23 28 26
f 27 26 29
f 27 29 30
f 26 28 31
f 26 31 29
f 32 30 29
f 32 29 31
f 35 34 33
f 36 33 34
f 35 33 2
f 3 35 2
f 37 35 3
f 4 2 33
f 36 4 33
f 38 4 36
f 6 37 3
f 6 39 37
f 38 7 4
f 40 7 38
f 9 39 6
f 9 41 39
f 40 10 7
f 42 10 40
f 12 41 9
f 12 43 41
f 42 13 10
f 44 13 42
f 15 43 12
f 15 45 43
f 44 16 13
f 46 16 44
f 18 45 15
f 18 47 45
f 46 19 16
f 48 19 46
f 21 47 18
f 21 49 47
f 48 22 19
f 50 22 48
f 24 49 21
f 24 51 49
f 50 25 22
f 52 25 50
f 27 51 24
f 27 53 51
f 52 28 25
f 54 28 52
f 30 53 27
f 30 55 53
f 54 31 28
f 56 31 54
f 30 32 57
f 58 30 57
f 55 30 58
f 59 57 32
f 31 59 32
f 56 59 31
f 58 57 60
f 58 60 61
f 57 59 62
f 57 62 60
f 63 61 60
f 63 60 62
f 65 64 34
f 65 34 35
f 36 34 64
f 36 64 66
f 37 65 35
f 37 67 65
f 66 38 36
f 68 38 66
f 39 67 37
f 39 69 67
f 68 40 38
f 70 40 68
f 41 69 39
f 41 71 69
f 70 42 40
f 72 42 70
f 43 71 41
f 43 73 71
f 72 44 42
f 74 44 72
f 45 73 43
f 45 75 73
f 74 46 44
f 76 46 74
f 47 75 45
f 47 77 75
f 76 48 46
f 78 48 76
f 49 77 47
f 49 79 77
f 78 50 48
f 80 50 78
f 51 79 49
f 51 81 79
f 80 52 50
f 82 52 80
f 53 81 51
f 53 83 81
f 82 54 52
f 84 54 82
f 55 83 53
f 55 85 83
f 84 56 54
f 86 56 84
f 58 85 55
f 58 87 85
f 86 59 56
f 88 59 86
f 61 87 58
f 61 89 87
f 88 62 59
f 90 62 88
f 91 89 61
f 91 61 63
f 63 62 90
f 63 90 91
f 94 93 92
f 95 92 93
f 94 92 96
f 94 96 97
f 92 95 98
f 92 98 96
f 97 96 64
f 65 97 64
f 99 97 65
f 66 64 96
f 98 66 96
f 100 66 98
f 67 99 65
f 67 101 99
f 100 68 66
f 102 68 100
f 69 101 67
f 69 103 101
f 102 70 68
f 104 70 102
f 107 106 105
f 109 108 105
f 109 105 106
f 111 110 108
f 111 108 109
f 113 112 110
f 113 110 111
f 115 114 112
f 115 112 113
f 116 114 115
f 71 103 69
f 71 117 103
f 104 72 70
f 118 72 104
f 119 107 105
f 119 105 108
f 119 108 120
f 120 108 110
f 120 110 121
f 121 110 112
f 121 112 122
f 122 112 114
f 122 114 123
f 123 114 116
f 73 117 71
f 73 124 117
f 118 74 72
f 125 74 118
f 75 124 73
f 75 126 124
f 125 76 74
f 127 76 125
f 77 126 75
f 77 128 126
f 127 78 76
f 129 78 127
f 79 128 77
f 79 130 128
f 129 80 78
f 131 80 129
f 81 130 79
f 81 132 130
f 131 82 80
f 133 82 131
f 83 132 81
f 83 134 132
f 133 84 82
f 135 84 133
f 138 137 136
f 140 139 136
f 140 136 137
f 142 141 139
f 142 139 140
f 144 143 141
f 144 141 142
f 146 145 143
f 146 143 144
f 147 145 146
f 85 134 83
f 85 148 134
f 135 86 84
f 149 86 135
f 150 138 136
f 150 136 139
f 150 139 151
f 151 139 141
f 151 141 152
f 152 141 143
f 152 143 153
f 153 143 145
f 153 145 154
f 154 145 147
f 87 148 85
f 87 155 148
f 149 88 86
f 156 88 149
f 89 155 87
f 89 157 155
f 156 90 88
f 158 90 156
f 89 91 159
f 160 89 159
f 157 89 160
f 161 159 91
f 90 161 91
f 158 161 90
f 162 160 159
f 162 159 161
f 164 163 93
f 164 93 94
f 95 93 163
f 95 163 165
f 97 164 94
f 97 166 164
f 165 98 95
f 167 98 165
f 99 166 97
f 99 168 166
f 167 100 98
f 169 100 167
f 101 168 99
f 101 170 168
f 169 102 100
f 171 102 169
f 174 173 172
f 176 175 172
f 176 172 173
f 178 177 175
f 178 175 176
f 180 179 177
f 180 177 178
f 182 181 179
f 182 179 180
f 183 181 182
f 103 170 101
f 103 184 170
f 171 104 102
f 185 104 171
f 174 172 106
f 107 174 106
f 186 174 107
f 106 172 109
f 109 172 175
f 109 175 111
f 111 175 177
f 111 177 113
f 113 177 179
f 113 179 115
f 115 179 181
f 116 115 181
f 183 116 181
f 187 116 183
f 117 184 103
f 117 188 184
f 185 118 104
f 189 118 185
f 190 186 107
f 190 107 119
f 191 119 120
f 191 190 119
f 192 120 121
f 192 191 120
f 193 121 122
f 193 192 121
f 194 122 123
f 194 193 122
f 123 116 187
f 123 187 194
f 124 188 117
f 124 195 188
f 189 125 118
f 196 125 189
f 126 195 124
f 126 197 195
f 196 127 125
f 198 127 196
f 128 197 126
f 128 199 197
f 198 129 127
f 200 129 198
f 130 199 128
f 130 201 199
f 200 131 129
f 202 131 200
f 132 201 130
f 132 203 201
f 202 133 131
f 204 133 202
f 134 203 132
f 134 205 203
f 204 135 133
f 206 135 204
f 208 207 137
f 208 137 138
f 137 209 140
f 207 209 137
f 140 210 142
f 209 210 140
f 142 211 144
f 210 211 142
f 144 212 146
f 211 212 144
f 147 146 212
f 147 212 213
f 148 205 134
f 148 214 205
f 206 149 135
f 215 149 206
f 216 208 138
f 216 138 150
f 217 150 151
f 217 216 150
f 218 151 152
f 218 217 151
f 219 152 153
f 219 218 152
f 220 153 154
f 220 219 153
f 154 147 213
f 154 213 220
f 155 214 148
f 155 221 214
f 215 156 149
f 222 156 215
f 157 221 155
f 157 223 221
f 222 158 156
f 224 158 222
f 160 223 157
f 160 225 223
f 224 161 158
f 226 161 224
f 227 225 160
f 227 160 162
f 162 161 226
f 162 226 227
f 164 228 163
f 228 165 163
f 166 229 228
f 166 228 164
f 229 167 165
f 229 165 228
f 168 230 229
f 168 229 166
f 230 169 167
f 230 167 229
f 170 231 230
f 170 230 168
f 231 171 169
f 231 169 230
f 174 232 173
f 233 176 173
f 233 173 232
f 234 178 176
f 234 176 233
f 235 180 178
f 235 178 234
f 236 182 180
f 236 180 235
f 236 183 182
f 184 237 231
f 184 231 170
f 237 185 171
f 237 171 231
f 186 238 232
f 186 232 174
f 232 239 233
f 232 238 239
f 233 240 234
f 233 239 240
f 234 241 235
f 234 240 241
f 235 242 236
f 235 241 242
f 242 187 183
f 242 183 236
f 188 243 237
f 188 237 184
f 243 189 185
f 243 185 237
f 190 238 186
f 238 190 191
f 238 191 239
f 239 191 192
f 239 192 240
f 240 192 193
f 240 193 241
f 241 193 194
f 241 194 242
f 242 194 187
f 195 244 243
f 195 243 188
f 244 196 189
f 244 189 243
f 197 245 244
f 197 244 195
f 245 198 196
f 245 196 244
f 199 246 245
f 199 245 197
f 246 200 198
f 246 198 245
f 249 248 247
f 251 250 247
f 251 247 248
f 252 250 251
f 201 253 246
f 201 246 199
f 253 202 200
f 253 200 246
f 249 247 254
f 249 254 255
f 256 247 250
f 254 247 256
f 250 252 257
f 250 257 256
f 203 258 253
f 203 253 201
f 258 204 202
f 258 202 253
f 255 254 259
f 255 259 260
f 261 254 256
f 259 254 261
f 256 257 262
f 263 256 262
f 261 256 263
f 265 264 263
f 265 263 262
f 266 264 265
f 205 267 258
f 205 258 203
f 267 206 204
f 267 204 258
f 260 259 268
f 260 268 269
f 270 259 261
f 268 259 270
f 271 261 263
f 270 261 271
f 208 271 207
f 271 264 207
f 271 263 264
f 266 272 264
f 272 207 264
f 272 209 207
f 209 273 210
f 272 273 209
f 210 274 211
f 273 274 210
f 211 275 212
f 274 275 211
f 213 212 275
f 213 275 276
f 214 277 267
f 214 267 205
f 277 215 206
f 277 206 267
f 269 268 278
f 269 278 279
f 280 268 270
f 278 268 280
f 281 270 271
f 280 270 281
f 216 282 208
f 282 271 208
f 282 281 271
f 217 283 216
f 216 283 282
f 218 284 217
f 217 284 283
f 219 285 218
f 218 285 284
f 220 286 219
f 219 286 285
f 287 286 220
f 213 287 220
f 276 287 213
f 221 288 277
f 221 277 214
f 288 222 215
f 288 215 277
f 289 279 278
f 289 278 280
f 289 280 290
f 290 280 281
f 290 281 291
f 291 281 282
f 291 282 292
f 292 282 283
f 292 283 293
f 293 283 284
f 293 284 294
f 294 284 285
f 294 285 295
f 295 285 286
f 295 286 296
f 296 286 287
f 223 297 288
f 223 288 221
f 297 224 222
f 297 222 288
f 225 298 297
f 225 297 223
f 298 226 224
f 298 224 297
f 227 298 225
f 298 227 226
f 249 299 248
f 300 251 248
f 300 248 299
f 300 252 251
f 255 301 299
f 255 299 249
f 299 302 300
f 299 301 302
f 302 257 252
f 302 252 300
f 260 303 301
f 260 301 255
f 301 304 302
f 301 303 304
f 305 262 257
f 302 305 257
f 304 305 302
f 306 265 262
f 306 262 305
f 306 266 265
f 269 307 303
f 269 303 260
f 303 308 304
f 303 307 308
f 304 309 305
f 304 308 309
f 305 310 306
f 305 309 310
f 311 272 266
f 306 311 266
f 310 311 306
f 312 273 272
f 312 272 311
f 313 274 273
f 313 273 312
f 314 275 274
f 314 274 313
f 314 276 275
f 279 315 307
f 279 307 269
f 307 316 308
f 307 315 316
f 308 317 309
f 308 316 317
f 309 318 310
f 309 317 318
f 310 319 311
f 310 318 319
f 311 320 312
f 311 319 320
f 312 321 313
f 312 320 321
f 313 322 314
f 313 321 322
f 322 287 276
f 322 276 314
f 289 315 279
f 315 289 290
f 315 290 316
f 316 290 291
f 316 291 317
f 317 291 292
f 317 292 318
f 318 292 293
f 318 293 319
f 319 293 294
f 319 294 320
f 320 294 295
f 320 295 321
f 321 295 296
f 321 296 322
f 322 296 287
f 325 324 323
f 327 326 323
f 327 323 324
f 328 326 327
f 325 323 329
f 325 329 330
f 331 323 326
f 329 323 331
f 326 328 332
f 326 332 331
f 330 329 333
f 330 333 334
f 335 329 331
f 333 329 335
f 331 332 336
f 337 331 336
f 335 331 337
f 339 338 337
f 339 337 336
f 341 340 338
f 341 338 339
f 343 342 340
f 343 340 341
f 344 342 343
f 334 333 345
f 334 345 346
f 347 333 335
f 345 333 347
f 348 335 337
f 347 335 348
f 349 337 338
f 348 337 349
f 350 338 340
f 349 338 350
f 351 340 342
f 350 340 351
f 342 344 352
f 342 352 351
f 346 345 353
f 346 353 354
f 355 345 347
f 353 345 355
f 356 347 348
f 355 347 356
f 357 348 349
f 356 348 357
f 358 349 350
f 357 349 358
f 359 350 351
f 358 350 359
f 351 352 360
f 351 360 359
f 361 354 353
f 361 353 355
f 361 355 362
f 362 355 356
f 362 356 363
f 363 356 357
f 363 357 364
f 364 357 358
f 364 358 365
f 365 358 359
f 365 359 366
f 366 359 360
f 325 367 324
f 368 327 324
f 368 324 367
f 368 328 327
f 330 369 367
f 330 367 325
f 367 370 368
f 367 369 370
f 370 332 328
f 370 328 368
f 334 371 369
f 334 369 330
f 373 370 372
f 370 371 372
f 370 369 371
f 370 373 332
f 373 336 332
f 373 374 336
f 336 375 339
f 374 375 336
f 339 376 341
f 375 376 339
f 341 377 343
f 376 377 341
f 379 378 344
f 343 379 344
f 377 379 343
f 381 380 378
f 381 378 379
f 383 382 380
f 383 380 381
f 385 384 382
f 385 382 383
f 387 386 384
f 387 384 385
f 389 388 386
f 389 386 387
f 391 390 388
f 391 388 389
f 393 392 390
f 393 390 391
f 395 394 392
f 395 392 393
f 397 396 394
f 397 394 395
f 399 398 396
f 399 396 397
f 401 400 398
f 401 398 399
f 403 402 400
f 403 400 401
f 404 402 403
f 346 405 371
f 346 371 334
f 372 371 406
f 371 407 406
f 371 405 407
f 409 408 407
f 407 408 406
f 411 410 409
f 409 410 408
f 413 412 411
f 411 412 410
f 415 414 413
f 413 414 412
f 416 414 378
f 414 352 378
f 352 344 378
f 414 415 352
f 416 378 380
f 416 380 417
f 417 380 382
f 417 382 418
f 418 382 384
f 418 384 419
f 419 384 386
f 419 386 420
f 420 386 388
f 420 388 421
f 421 388 390
f 421 390 422
f 422 390 392
f 422 392 423
f 423 392 394
f 423 394 424
f 424 394 396
f 424 396 425
f 425 396 398
f 425 398 426
f 426 398 400
f 426 400 427
f 427 400 402
f 427 402 428
f 428 402 404
f 354 429 405
f 354 405 346
f 405 430 407
f 405 429 430
f 407 431 409
f 407 430 431
f 409 432 411
f 409 431 432
f 411 433 413
f 411 432 433
f 413 434 415
f 413 433 434
f 434 360 352
f 434 352 415
f 361 429 354
f 429 361 362
f 429 362 430
f 430 362 363
f 430 363 431
f 431 363 364
f 431 364 432
f 432 364 365
f 432 365 433
f 433 365 366
f 433 366 434
f 434 366 360
f 436 435 373
f 436 373 372
f 373 437 374
f 435 437 373
f 374 438 375
f 437 438 374
f 375 439 376
f 438 439 375
f 376 440 377
f 439 440 376
f 377 441 379
f 440 441 377
f 379 442 381
f 441 442 379
f 381 443 383
f 442 443 381
f 383 444 385
f 443 444 383
f 385 445 387
f 444 445 385
f 387 446 389
f 445 446 387
f 389 447 391
f 446 447 389
f 391 448 393
f 447 448 391
f 393 449 395
f 448 449 393
f 395 450 397
f 449 450 395
f 397 451 399
f 450 451 397
f 399 452 401
f 451 452 399
f 401 453 403
f 452 453 401
f 404 403 453
f 404 453 454
f 455 436 372
f 455 372 406
f 456 406 408
f 456 455 406
f 457 408 410
f 457 456 408
f 458 410 412
f 458 457 410
f 459 412 414
f 459 458 412
f 460 414 416
f 460 459 414
f 461 416 417
f 461 460 416
f 462 417 418
f 462 461 417
f 463 418 419
f 463 462 418
f 464 419 420
f 464 463 419
f 465 420 421
f 465 464 420
f 466 421 422
f 466 465 421
f 467 422 423
f 467 466 422
f 468 423 424
f 468 467 423
f 469 424 425
f 469 468 424
f 470 425 426
f 470 469 425
f 471 426 427
f 471 470 426
f 472 427 428
f 472 471 427
f 428 404 454
f 428 454 472
f 474 473 435
f 474 435 436
f 435 475 437
f 473 475 435
f 437 476 438
f 475 476 437
f 438 477 439
f 476 477 438
f 439 478 440
f 477 478 439
f 478 480 479
f 441 478 479
f 440 478 441
f 481 442 441
f 481 441 479
f 482 443 442
f 482 442 481
f 483 444 443
f 483 443 482
f 484 445 444
f 484 444 483
f 485 446 445
f 485 445 484
f 486 447 446
f 486 446 485
f 487 448 447
f 487 447 486
f 488 449 448
f 488 448 487
f 489 450 449
f 489 449 488
f 490 451 450
f 490 450 489
f 491 452 451
f 491 451 490
f 492 453 452
f 492 452 491
f 492 454 453
f 493 474 436
f 493 436 455
f 494 455 456
f 494 493 455
f 495 456 457
f 495 494 456
f 496 457 458
f 496 495 457
f 497 458 459
f 497 496 458
f 460 479 480
f 497 460 480
f 459 460 497
f 479 460 461
f 479 461 481
f 481 461 462
f 481 462 482
f 482 462 463
f 482 463 483
f 483 463 464
f 483 464 484
f 484 464 465
f 484 465 485
f 485 465 466
f 485 466 486
f 486 466 467
f 486 467 487
f 487 467 468
f 487 468 488
f 488 468 469
f 488 469 489
f 489 469 470
f 489 470 490
f 490 470 471
f 490 471 491
f 491 471 472
f 491 472 492
f 492 472 454
f 500 499 498
f 501 498 499
f 500 498 502
f 500 502 503
f 498 501 504
f 498 504 502
f 503 502 505
f 503 505 506
f 502 504 507
f 502 507 505
f 506 505 508
f 506 508 509
f 505 507 510
f 505 510 508
f 509 508 511
f 509 511 512
f 508 510 513
f 508 513 511
f 512 511 514
f 512 514 515
f 511 513 516
f 511 516 514
f 515 514 517
f 515 517 518
f 514 516 519
f 514 519 517
f 518 517 520
f 518 520 521
f 517 519 522
f 517 522 520
f 521 520 523
f 521 523 524
f 520 522 525
f 520 525 523
f 524 523 526
f 524 526 527
f 523 525 528
f 523 528 526
f 527 526 529
f 527 529 530
f 526 528 531
f 526 531 529
f 530 529 532
f 530 532 533
f 529 531 534
f 529 534 532
f 533 532 535
f 533 535 536
f 532 534 537
f 532 537 535
f 536 535 538
f 536 538 539
f 535 537 540
f 535 540 538
f 539 538 541
f 539 541 542
f 538 540 543
f 538 543 541
f 542 541 544
f 542 544 545
f 541 543 546
f 541 546 544
f 547 545 544
f 547 544 546
f 550 549 548
f 552 551 548
f 552 548 549
f 553 551 552
f 550 548 554
f 550 554 555
f 556 548 551
f 554 548 556
f 551 553 557
f 551 557 556
f 555 554 558
f 555 558 559
f 474 558 473
f 558 556 473
f 558 554 556
f 557 560 556
f 560 473 556
f 560 475 473
f 475 561 476
f 560 561 475
f 476 562 477
f 561 562 476
f 477 563 478
f 562 563 477
f 480 478 563
f 480 563 564
f 559 558 565
f 559 565 566
f 493 567 474
f 567 558 474
f 567 565 558
f 494 568 493
f 493 568 567
f 495 569 494
f 494 569 568
f 496 570 495
f 495 570 569
f 497 571 496
f 496 571 570
f 572 571 497
f 480 572 497
f 564 572 480
f 566 565 573
f 566 573 574
f 575 565 567
f 573 565 575
f 576 567 568
f 575 567 576
f 577 568 569
f 576 568 577
f 578 569 570
f 577 569 578
f 579 570 571
f 578 570 579
f 571 572 580
f 571 580 579
f 581 574 573
f 581 573 575
f 581 575 582
f 582 575 576
f 582 576 583
f 583 576 577
f 583 577 584
f 584 577 578
f 584 578 585
f 585 578 579
f 585 579 586
f 586 579 580
f 588 587 499
f 588 499 500
f 501 499 587
f 501 587 589
f 503 588 500
f 503 590 588
f 589 504 501
f 591 504 589
f 506 590 503
f 506 592 590
f 591 507 504
f 593 507 591
f 509 592 506
f 509 594 592
f 593 510 507
f 595 510 593
f 512 594 509
f 512 596 594
f 595 513 510
f 597 513 595
f 515 596 512
f 515 598 596
f 597 516 513
f 599 516 597
f 518 598 515
f 518 600 598
f 599 519 516
f 601 519 599
f 521 600 518
f 521 602 600
f 601 522 519
f 603 522 601
f 524 602 521
f 524 604 602
f 603 525 522
f 605 525 603
f 527 604 524
f 527 606 604
f 605 528 525
f 607 528 605
f 530 606 527
f 530 608 606
f 607 531 528
f 609 531 607
f 533 608 530
f 533 610 608
f 609 534 531
f 611 534 609
f 536 610 533
f 536 612 610
f 611 537 534
f 613 537 611
f 539 612 536
f 539 614 612
f 613 540 537
f 615 540 613
f 542 614 539
f 542 616 614
f 615 543 540
f 617 543 615
f 545 616 542
f 545 618 616
f 617 546 543
f 619 546 617
f 620 618 545
f 620 545 547
f 547 546 619
f 547 619 620
f 550 621 549
f 622 552 549
f 622 549 621
f 622 553 552
f 555 623 621
f 555 621 550
f 621 624 622
f 621 623 624
f 624 557 553
f 624 553 622
f 559 625 623
f 559 623 555
f 623 626 624
f 623 625 626
f 627 560 557
f 624 627 557
f 626 627 624
f 628 561 560
f 628 560 627
f 629 562 561
f 629 561 628
f 630 563 562
f 630 562 629
f 630 564 563
f 566 631 625
f 566 625 559
f 625 632 626
f 625 631 632
f 626 633 627
f 626 632 633
f 627 634 628
f 627 633 634
f 628 635 629
f 628 634 635
f 629 636 630
f 629 635 636
f 636 572 564
f 636 564 630
f 574 637 631
f 574 631 566
f 631 638 632
f 631 637 638
f 632 639 633
f 632 638 639
f 633 640 634
f 633 639 640
f 634 641 635
f 634 640 641
f 635 642 636
f 635 641 642
f 642 580 572
f 642 572 636
f 581 637 574
f 637 581 582
f 637 582 638
f 638 582 583
f 638 583 639
f 639 583 584
f 639 584 640
f 640 584 585
f 640 585 641
f 641 585 586
f 641 586 642
f 642 586 580
f 588 643 587
f 643 589 587
f 590 644 643
f 590 643 588
f 644 591 589
f 644 589 643
f 646 645 644
f 590 646 644
f 592 646 590
f 591 644 645
f 647 591 645
f 593 591 647
f 594 646 592
f 594 648 646
f 647 595 593
f 649 595 647
f 596 648 594
f 596 650 648
f 649 597 595
f 651 597 649
f 598 650 596
f 598 652 650
f 651 599 597
f 653 599 651
f 600 652 598
f 600 654 652
f 653 601 599
f 655 601 653
f 602 654 600
f 602 656 654
f 655 603 601
f 657 603 655
f 604 656 602
f 604 658 656
f 657 605 603
f 659 605 657
f 606 658 604
f 606 660 658
f 659 607 605
f 661 607 659
f 608 660 606
f 608 662 660
f 661 609 607
f 663 609 661
f 610 662 608
f 610 664 662
f 663 611 609
f 665 611 663
f 612 664 610
f 612 666 664
f 665 613 611
f 667 613 665
f 614 666 612
f 614 668 666
f 667 615 613
f 669 615 667
f 616 668 614
f 616 670 668
f 669 617 615
f 671 617 669
f 618 673 672
f 670 618 672
f 616 618 670
f 671 672 673
f 619 671 673
f 617 671 619
f 620 673 618
f 673 620 619
f 646 674 645
f 674 647 645
f 648 675 674
f 648 674 646
f 675 649 647
f 675 647 674
f 650 676 675
f 650 675 648
f 676 651 649
f 676 649 675
f 652 677 676
f 652 676 650
f 677 653 651
f 677 651 676
f 654 678 677
f 654 677 652
f 678 655 653
f 678 653 677
f 656 679 678
f 656 678 654
f 679 657 655
f 679 655 678
f 658 680 679
f 658 679 656
f 680 659 657
f 680 657 679
f 660 681 680
f 660 680 658
f 681 661 659
f 681 659 680
f 662 682 681
f 662 681 660
f 682 663 661
f 682 661 681
f 664 683 682
f 664 682 662
f 683 665 663
f 683 663 682
f 666 684 683
f 666 683 664
f 684 667 665
f 684 665 683
f 668 685 684
f 668 684 666
f 685 669 667
f 685 667 684
f 670 686 685
f 670 685 668
f 686 671 669
f 686 669 685
f 672 686 670
f 686 672 671

