# https://github.com/mikedh/trimesh
v -0.04324604 0.03539461 -0.00986530
v -0.04115702 0.03311824 -0.01062646
v -0.04219363 0.03544508 -0.01178092
v -0.04106597 0.03421660 -0.00871080
v -0.04322737 0.03843974 -0.01064751
v -0.04093713 0.03844263 -0.01165432
v -0.04185951 0.03804646 -0.00884177
v -0.04209260 0.04038858 -0.01028078
v -0.03752754 0.03192249 -0.01023111
v -0.03727142 0.03438959 -0.01202451
v -0.03722267 0.03440925 -0.00847766
v -0.03690236 0.03689094 -0.01023379
v -0.03998407 0.03904766 -0.00983381
v -0.03439162 0.02983810 -0.00980256
v -0.03132059 0.02801817 -0.01062668
v -0.03325675 0.03037229 -0.01197669
v -0.03205141 0.02979332 -0.00846576
v -0.03136573 0.03395615 -0.01236092
v -0.03245907 0.03396002 -0.00816906
v -0.03248697 0.03600096 -0.01028560
v -0.02761979 0.02778361 -0.01026814
v -0.02881486 0.02987729 -0.01235962
v -0.02762148 0.02984161 -0.00813391
v -0.02669459 0.03403944 -0.01235976
v -0.02778089 0.03399361 -0.00813481
v -0.02782708 0.03610175 -0.01025642
v -0.02289545 0.02777508 -0.01021777
v -0.02413296 0.02988786 -0.01235090
v -0.02288347 0.02985357 -0.00811760
v -0.02201179 0.03408147 -0.01234738
v -0.02309311 0.03406440 -0.00812301
v -0.02320190 0.03611613 -0.01021382
v -0.02030261 -0.04291150 -0.00084148
v -0.01767196 -0.04629960 -0.00043691
v -0.01871803 -0.04356605 -0.00273972
v -0.01844397 -0.04398651 0.00141763
v -0.02032237 -0.04009110 -0.00166242
v -0.01778384 -0.03958278 -0.00291926
v -0.01917176 -0.04051126 0.00095713
v -0.01799809 -0.03779358 -0.00017484
v -0.02043523 0.00676670 -0.00489965
v -0.01741038 0.00452538 -0.00558355
v -0.01888025 0.00713431 -0.00763890
v -0.02074294 0.00686222 -0.00031823
v -0.01824338 0.00434101 -0.00138601
v -0.02069922 0.00689766 0.00450683
v -0.01823320 0.00450259 0.00344726
v -0.02076638 0.00692698 0.00928925
v -0.01822335 0.00452916 0.00825883
v -0.02035087 0.00739266 0.01291628
v -0.01826935 0.00485127 0.01272069
v -0.01819526 0.00647930 0.01537860
v -0.02042743 0.01077652 -0.00555942
v -0.01738263 0.01127553 -0.00768003
v -0.02131070 0.01120593 -0.00130861
v -0.02126682 0.01058626 0.00273372
v -0.02072338 0.01141949 0.00698507
v -0.02047002 0.01055576 0.01144093
v -0.01808433 0.01077710 0.01525709
v -0.01913001 0.01389010 -0.00522965
v -0.01884575 0.01750275 -0.00372602
v -0.02082109 0.01587731 -0.00132454
v -0.02070530 0.01566532 0.00353316
v -0.01898830 0.01571109 0.00664819
v -0.01870813 0.01384038 0.00962738
v -0.01809271 0.01352922 0.01293414
v -0.02030365 0.02002438 -0.00099745
v -0.01823433 0.02102939 -0.00341218
v -0.02040623 0.02048228 0.00236108
v -0.01872448 0.01958003 0.00574100
v -0.01796800 0.02281314 -0.00039597
v -0.01771099 0.02267164 0.00452191
v -0.01916998 0.02802010 -0.00986203
v -0.01904199 0.03032614 -0.01217168
v -0.01802968 0.03083413 -0.00835375
v -0.01779001 0.03469689 -0.01217802
v -0.01913843 0.03466088 -0.00824786
v -0.01853199 0.03606175 -0.01021846
v -0.01597957 -0.05730630 -0.00932476
v -0.01378684 -0.06047015 -0.01079458
v -0.01381475 -0.05761848 -0.01251930
v -0.01593330 -0.05680807 -0.00477604
v -0.01345107 -0.06051890 -0.00609867
v -0.01358896 -0.05842850 -0.00283093
v -0.01576084 -0.05394328 -0.01086780
v -0.01308084 -0.05416087 -0.01210292
v -0.01629900 -0.05298857 -0.00627439
v -0.01462673 -0.05597551 -0.00138509
v -0.01590077 -0.05286577 -0.00137466
v -0.01309408 -0.05406834 0.00083706
v -0.01460420 -0.05189591 -0.00973002
v -0.01421463 -0.05103898 -0.00599333
v -0.01424040 -0.04870349 -0.00324212
v -0.01610429 -0.04958742 -0.00199649
v -0.01384768 -0.04919144 0.00135473
v -0.01441784 -0.04393230 -0.00357977
v -0.01631931 -0.04266642 0.00378580
v -0.01508190 -0.04583456 0.00303300
v -0.01310523 -0.04411453 0.00515941
v -0.01311037 -0.03892463 -0.00337221
v -0.01662519 -0.03917255 0.00299217
v -0.01338050 -0.04087955 0.00583458
v -0.01480227 -0.03664980 -0.00090824
v -0.01448650 -0.03745623 0.00316561
v -0.01401242 0.00478108 -0.00494437
v -0.01547471 0.00670352 -0.00761963
v -0.01453264 0.00441714 -0.00116870
v -0.01462902 0.00465974 0.00362141
v -0.01401968 0.00453134 0.00859598
v -0.01495045 0.00384445 0.01234402
v -0.01656578 0.00710058 0.01829516
v -0.01472465 0.00423017 0.01660565
v -0.01553673 0.00783273 0.02132132
v -0.01411557 0.00468799 0.02116409
v -0.01286594 0.00643985 0.02389973
v -0.01293483 0.01114057 -0.00875370
v -0.01628921 0.01027770 0.01828487
v -0.01356508 0.01165545 0.02044064
v -0.01375337 0.00954262 0.02274951
v -0.01708404 0.01564691 -0.00622352
v -0.01456189 0.01604950 -0.00770857
v -0.01710104 0.01746845 0.00889181
v -0.01623465 0.01658907 0.01251796
v -0.01436077 0.01616212 0.01539683
v -0.01404768 0.01370118 0.01763159
v -0.01616175 0.01955148 -0.00590297
v -0.01269989 0.02047938 -0.00737970
v -0.01663097 0.02099461 0.00808500
v -0.01530741 0.02040457 0.01176171
v -0.01375376 0.01994727 0.01456505
v -0.01494200 0.02263849 -0.00482639
v -0.01331783 0.02283832 -0.00216279
v -0.01469695 0.02281892 0.00241489
v -0.01393240 0.02262603 0.00842319
v -0.01271776 0.02251053 0.01328483
v -0.01627559 0.02989050 -0.01067702
v -0.01342697 0.03210981 -0.01027694
v -0.01401106 0.03371383 -0.01185053
v -0.01426352 0.03398375 -0.00863635
v -0.01385440 0.03594769 -0.01022130
v -0.01170215 -0.06299998 -0.00917427
v -0.00808699 -0.06460637 -0.00999521
v -0.01043840 -0.06180267 -0.01236164
v -0.01151192 -0.06292860 -0.00598642
v -0.00955155 -0.06434911 -0.00657588
v -0.00869999 -0.06265243 -0.00352247
v -0.00923210 -0.05849934 -0.01240064
v -0.01209636 -0.05738910 -0.00035161
v -0.01021338 -0.05990039 -0.00150965
v -0.00907702 -0.05746669 0.00092204
v -0.00928721 -0.05566985 -0.00996490
v -0.01198031 -0.05309890 -0.00912580
v -0.00921958 -0.05478279 -0.00660701
v -0.01161476 -0.05267534 -0.00555771
v -0.00893683 -0.05308196 -0.00388955
v -0.00941258 -0.05330413 0.00158605
v -0.00943506 -0.04895934 -0.00317312
v -0.00835032 -0.04915966 0.00194428
v -0.00951756 -0.04414048 -0.00350513
v -0.01060360 -0.04630973 0.00374873
v -0.00876200 -0.04301444 0.00599312
v -0.00867407 -0.04027380 -0.00300324
v -0.00895972 -0.04118311 0.00902219
v -0.01185990 -0.03869134 0.00844452
v -0.01118059 -0.03877563 0.01385416
v -0.00951566 -0.04123823 0.01199688
v -0.00809479 -0.03995546 0.01510406
v -0.01179660 -0.03508420 -0.00156060
v -0.00969764 -0.03596357 -0.00260231
v -0.01177707 -0.03462744 0.00327962
v -0.01184558 -0.03431858 0.00876251
v -0.01199266 -0.03500346 0.01299013
v -0.00966923 -0.03740063 0.01717909
v -0.01121749 -0.03466213 0.01725607
v -0.00859293 -0.03490008 0.01921721
v -0.00911016 -0.03328980 -0.00000286
v -0.00938189 -0.03197430 0.00370759
v -0.00801204 -0.03010719 0.00612229
v -0.01113450 -0.03067374 0.00786582
v -0.01200344 -0.03022009 0.01286871
v -0.01154273 -0.03009405 0.01718292
v -0.00899864 -0.03123455 0.01968980
v -0.00954964 -0.02796365 0.00879851
v -0.00897196 -0.02513895 0.01038772
v -0.01154000 -0.02581206 0.01255058
v -0.01151856 -0.02535763 0.01707725
v -0.00910097 -0.02649947 0.01956040
v -0.01146851 -0.02104538 0.01322884
v -0.00892444 -0.02109626 0.01081057
v -0.01161365 -0.02062140 0.01781616
v -0.00863443 -0.02176270 0.01997663
v -0.01148899 -0.01643694 0.01310073
v -0.00901516 -0.01643450 0.01067844
v -0.01210631 -0.01630064 0.01749569
v -0.00965127 -0.01852653 0.02172894
v -0.01121486 -0.01595565 0.02187847
v -0.00852932 -0.01630008 0.02382614
v -0.01146148 -0.01175927 0.01303529
v -0.00902572 -0.01176276 0.01060046
v -0.01205759 -0.01164815 0.01741580
v -0.01151826 -0.01154471 0.02184393
v -0.00896834 -0.01276709 0.02434122
v -0.01137999 -0.00710808 0.01306505
v -0.00898376 -0.00711583 0.01065182
v -0.01194077 -0.00699665 0.01741960
v -0.01141454 -0.00684365 0.02180078
v -0.00902503 -0.00805305 0.02430106
v -0.01122127 -0.00242906 0.01326748
v -0.00888181 -0.00237939 0.01082640
v -0.01179321 -0.00240547 0.01756522
v -0.01132736 -0.00223349 0.02184254
v -0.00895331 -0.00338361 0.02424057
v -0.01166017 0.00238137 0.01278532
v -0.00839450 0.00171880 0.01080043
v -0.01221110 0.00159574 0.01775310
v -0.01206802 0.00199518 0.02199326
v -0.00948661 0.00183731 0.02436916
v -0.01205867 0.00714460 -0.00651858
v -0.01165736 0.00641120 -0.00224204
v -0.01173989 0.00667197 0.00258790
v -0.01147795 0.00693941 0.00710789
v -0.00937143 0.00568278 0.01022282
v -0.00883541 0.00624871 0.02482807
v -0.01103148 0.01117937 -0.01070252
v -0.00909263 0.00951672 -0.00964157
v -0.00850211 0.01153454 -0.01170396
v -0.00890664 0.00840578 -0.00473028
v -0.00886482 0.00861960 0.00006832
v -0.00892149 0.00889557 0.00482793
v -0.00846841 0.00856853 0.00841154
v -0.01203121 0.01155936 0.02237353
v -0.00981812 0.01014380 0.02407900
v -0.00978381 0.01288858 -0.01030899
v -0.00987285 0.01612628 -0.00864678
v -0.01092266 0.01711415 0.00388490
v -0.00957068 0.01621444 0.00104094
v -0.00811303 0.01410352 0.00360711
v -0.00885186 0.01513986 0.00600060
v -0.01100148 0.01695122 0.01741135
v -0.01026856 0.01534764 0.01912268
v -0.00856327 0.01340902 0.02153851
v -0.00825334 0.02043064 -0.00762342
v -0.01156501 0.01993305 0.00009966
v -0.00964356 0.02117104 -0.00300838
v -0.00794685 0.01840039 -0.00130173
v -0.01246576 0.02081122 0.00420680
v -0.00969826 0.01785195 0.00739913
v -0.01105942 0.02062401 0.00792163
v -0.00880589 0.02021735 0.01016735
v -0.01037060 0.02040827 0.01529669
v -0.00858828 0.01829713 0.01703348
v -0.00986091 0.02248596 -0.00553377
v -0.01014153 0.02240850 0.01200119
v -0.00921597 0.03306404 -0.01023458
v -0.00922438 0.03443927 -0.01161023
v -0.00923269 0.03450696 -0.00885389
v -0.00924110 0.03588219 -0.01022954
v -0.00350813 -0.06493609 -0.00998343
v -0.00486137 -0.06189036 -0.01229910
v -0.00575154 -0.06484390 -0.00611042
v -0.00338094 -0.06292766 -0.00286575
v -0.00526195 -0.05949921 -0.01088267
v -0.00655440 -0.05778866 -0.00973630
v -0.00381629 -0.05781707 -0.00891181
v -0.00561855 -0.06051430 -0.00051010
v -0.00463510 -0.05756414 0.00113434
v -0.00509307 -0.05590191 -0.00644906
v -0.00447010 -0.05319143 -0.00347163
v -0.00470908 -0.05337078 0.00144228
v -0.00465394 -0.04899915 -0.00313031
v -0.00359658 -0.04925219 0.00183790
v -0.00415970 -0.04361786 -0.00294798
v -0.00588750 -0.04627716 0.00356077
v -0.00404304 -0.04401076 0.00519362
v -0.00543318 -0.04086299 -0.00128625
v -0.00677841 -0.03802015 -0.00106873
v -0.00434719 -0.03840737 0.00008629
v -0.00664794 -0.03981872 0.00791495
v -0.00405896 -0.04070706 0.00681829
v -0.00526617 -0.03954179 0.00954350
v -0.00478373 -0.04124832 0.01187899
v -0.00331860 -0.03989634 0.01542247
v -0.00701252 -0.03455807 -0.00053885
v -0.00435436 -0.03509618 0.00044133
v -0.00457006 -0.03841470 0.00814104
v -0.00582371 -0.03742809 0.01787208
v -0.00460116 -0.03434479 0.01974735
v -0.00525164 -0.03219181 0.00240660
v -0.00338238 -0.03009757 0.00579535
v -0.00463614 -0.03016626 0.02024518
v -0.00575477 -0.02793882 0.00821788
v -0.00456046 -0.02518213 0.00984380
v -0.00467056 -0.02551079 0.02002441
v -0.00454967 -0.02114482 0.01027054
v -0.00342740 -0.02149972 0.02049926
v -0.00463756 -0.01651785 0.01012028
v -0.00580997 -0.01865407 0.02237273
v -0.00458340 -0.01583995 0.02430330
v -0.00464531 -0.01189654 0.01003492
v -0.00457792 -0.01174051 0.02490875
v -0.00464825 -0.00724941 0.01006902
v -0.00460556 -0.00708348 0.02484564
v -0.00460299 -0.00250954 0.01019625
v -0.00459276 -0.00247217 0.02478817
v -0.00458935 0.00228913 0.01039915
v -0.00456911 0.00218043 0.02480453
v -0.00465307 0.00656175 0.01000377
v -0.00458417 0.00686913 0.02486580
v -0.00370738 0.00949416 -0.01008772
v -0.00469646 0.01119389 -0.01185406
v -0.00484122 0.00909348 -0.00588972
v -0.00475749 0.00923112 -0.00113577
v -0.00475977 0.00941005 0.00358216
v -0.00472127 0.00895849 0.00773193
v -0.00453885 0.01096382 0.02433316
v -0.00580300 0.01358173 -0.01055813
v -0.00472642 0.01660798 -0.00860217
v -0.00574371 0.01541007 0.00102217
v -0.00393602 0.01355577 0.00340719
v -0.00488980 0.01385334 0.00748583
v -0.00717401 0.01642867 0.00948422
v -0.00471697 0.01449426 0.01285172
v -0.00614981 0.01590207 0.01351086
v -0.00437850 0.01454095 0.01830846
v -0.00731138 0.01638073 0.01727914
v -0.00382710 0.01313765 0.02256587
v -0.00371284 0.02027946 -0.00750987
v -0.00566765 0.02086478 -0.00369011
v -0.00326974 0.01809277 -0.00128025
v -0.00759482 0.01949346 0.01337961
v -0.00474602 0.02219774 -0.00593352
v -0.00470897 0.03307892 -0.01023094
v -0.00471860 0.03438527 -0.01161462
v -0.00469971 0.03450143 -0.00885380
v -0.00470934 0.03580778 -0.01023748
v 0.00021966 -0.06440159 -0.00961143
v -0.00009407 -0.06237810 -0.01236475
v -0.00120901 -0.06454819 -0.00608358
v -0.00008780 -0.06292875 -0.00346095
v -0.00250700 -0.05873132 -0.01084791
v 0.00068961 -0.05768818 -0.01242576
v -0.00013570 -0.06057878 -0.00149532
v 0.00034875 -0.05672243 0.00086080
v -0.00045077 -0.05587296 -0.00886542
v -0.00074606 -0.05486156 -0.00527141
v 0.00049769 -0.05213364 -0.00379522
v -0.00061357 -0.05270437 0.00140146
v -0.00054883 -0.04829515 -0.00321143
v 0.00120046 -0.04926588 0.00194292
v 0.00071910 -0.04476635 -0.00344430
v -0.00109894 -0.04640880 0.00357304
v 0.00071792 -0.04314908 0.00594031
v -0.00310836 -0.03972986 -0.00129240
v 0.00003379 -0.03968823 -0.00309959
v -0.00048708 -0.04128571 0.00914321
v -0.00318038 -0.03964115 0.00883680
v -0.00063100 -0.04120829 0.01292743
v 0.00048333 -0.03921455 0.01539229
v -0.00205303 -0.03594628 -0.00106822
v 0.00114124 -0.03540940 -0.00256756
v -0.00103371 -0.03711681 0.01788436
v -0.00015436 -0.03355991 0.01943576
v -0.00110895 -0.03320400 -0.00014150
v -0.00042491 -0.03222684 0.00282666
v 0.00031703 -0.03083297 0.00575835
v -0.00028952 -0.02911963 0.01960296
v -0.00110598 -0.02825341 0.00814531
v -0.00017705 -0.02546979 0.01010604
v -0.00026604 -0.02449637 0.01940394
v -0.00019153 -0.02120137 0.01081509
v 0.00040196 -0.02070175 0.02026586
v -0.00024367 -0.01666494 0.01066579
v -0.00107243 -0.01844417 0.02237055
v -0.00016247 -0.01505561 0.02399796
v -0.00025898 -0.01209968 0.01059994
v -0.00020892 -0.01067453 0.02432369
v -0.00026986 -0.00747219 0.01060537
v -0.00023852 -0.00604182 0.02425390
v -0.00026459 -0.00274620 0.01069689
v -0.00022597 -0.00145026 0.02422511
v -0.00030425 0.00208655 0.01089192
v -0.00023009 0.00320139 0.02430652
v -0.00039459 0.00632780 0.01045666
v -0.00025239 0.00793183 0.02440067
v 0.00014045 0.00857044 -0.01052205
v 0.00045020 0.01078165 -0.01193494
v -0.00069922 0.00838882 -0.00695614
v -0.00062258 0.00849819 -0.00223165
v 0.00003287 0.00863378 0.00312298
v 0.00034281 0.00873256 0.00846780
v -0.00074057 0.01149958 0.02396820
v -0.00108516 0.01350790 -0.01044340
v -0.00018236 0.01651785 -0.00852963
v -0.00107862 0.01541421 0.00140788
v -0.00086550 0.01412447 0.00457906
v -0.00184558 0.01582138 0.00859181
v 0.00043708 0.01626501 0.00626903
v -0.00319716 0.01564308 0.01224775
v -0.00228990 0.01670555 0.01632685
v -0.00025163 0.01524688 0.01961673
v -0.00085109 0.01343419 0.02190935
v 0.00052107 0.02066789 -0.00803009
v -0.00116395 0.02076325 -0.00332800
v 0.00042988 0.01809657 -0.00054976
v -0.00051016 0.01857345 0.00905896
v 0.00035032 0.02130330 0.01052283
v -0.00168550 0.01932178 0.01271171
v 0.00033998 0.01992669 0.01553017
v 0.00058597 0.01755617 0.01752071
v 0.00013754 0.02229918 -0.00509068
v 0.00116085 0.02238970 0.01297997
v -0.00047416 0.03232144 -0.01022573
v 0.00043148 0.03461994 -0.01198789
v 0.00040358 0.03435271 -0.00852081
v -0.00049231 0.03658088 -0.01027165
v 0.00265850 -0.06232334 -0.01079163
v 0.00216945 -0.06272282 -0.00639838
v 0.00511245 -0.06023774 -0.00933305
v 0.00392119 -0.05885734 -0.01250592
v 0.00422205 -0.06001195 -0.00479916
v 0.00296967 -0.05852900 -0.00137574
v 0.00538448 -0.05752561 -0.00286214
v 0.00268817 -0.05357954 -0.01061040
v 0.00478593 -0.05432557 -0.01213113
v 0.00238392 -0.05316225 -0.00695858
v 0.00433355 -0.05613999 -0.00040765
v 0.00396613 -0.05267949 0.00081156
v 0.00472040 -0.05192681 -0.00962126
v 0.00483149 -0.05169763 -0.00622556
v 0.00460056 -0.04859735 -0.00353620
v 0.00457794 -0.04913716 0.00145862
v 0.00418770 -0.04328589 -0.00362887
v 0.00448793 -0.04648737 0.00295095
v 0.00476982 -0.04324772 0.00522735
v 0.00539009 -0.03905341 -0.00327915
v 0.00234799 -0.03897173 0.00816548
v 0.00397256 -0.03982721 0.00547638
v 0.00192842 -0.03926364 0.01262390
v 0.00448390 -0.03626522 -0.00145590
v 0.00214803 -0.03437879 0.00003416
v 0.00554365 -0.03712788 0.00211838
v 0.00254536 -0.03480082 0.00462169
v 0.00266265 -0.03425915 0.00874020
v 0.00277017 -0.03503259 0.01289223
v 0.00202856 -0.03590698 0.01668326
v 0.00198600 -0.03003143 0.00853764
v 0.00276816 -0.03027755 0.01286916
v 0.00227820 -0.03142694 0.01725151
v 0.00233583 -0.02524799 0.01275599
v 0.00218948 -0.02676703 0.01710113
v 0.00225132 -0.02009413 0.01319972
v 0.00232077 -0.02153474 0.01752948
v 0.00221807 -0.01553996 0.01308096
v 0.00283173 -0.01651612 0.01748840
v 0.00199193 -0.01728394 0.02124275
v 0.00218402 -0.01096683 0.01304031
v 0.00278261 -0.01190102 0.01746725
v 0.00227160 -0.01292952 0.02184966
v 0.00218188 -0.00635589 0.01303720
v 0.00274974 -0.00728183 0.01742618
v 0.00219421 -0.00830023 0.02184561
v 0.00214839 -0.00166138 0.01313893
v 0.00273482 -0.00267343 0.01743803
v 0.00218152 -0.00367181 0.02180738
v 0.00208490 0.00309168 0.01327856
v 0.00269684 0.00195562 0.01754043
v 0.00215514 0.00091524 0.02184802
v 0.00242794 0.00639452 -0.00911809
v 0.00557119 0.00462952 -0.01140142
v 0.00374807 0.00792357 -0.01269569
v 0.00229143 0.00638894 -0.00458289
v 0.00500733 0.00470780 -0.00616170
v 0.00238246 0.00640272 0.00012408
v 0.00463396 0.00492753 -0.00096195
v 0.00309567 0.00673863 0.00405041
v 0.00440767 0.00517999 0.00273732
v 0.00510308 0.00699604 0.00577920
v 0.00228630 0.00670563 0.01255485
v 0.00315856 0.00662731 0.01724191
v 0.00215496 0.00556241 0.02193162
v 0.00492723 0.01137784 -0.01323374
v 0.00417126 0.00897094 0.00819630
v 0.00451307 0.00901290 0.01357745
v 0.00467814 0.00963122 0.01822402
v 0.00223519 0.01099459 0.02148839
v 0.00464993 0.01195862 0.01923927
v 0.00414996 0.01362504 -0.01083582
v 0.00467889 0.01652638 -0.00830199
v 0.00169148 0.01705468 0.00303692
v 0.00278278 0.01499664 0.01870957
v 0.00401116 0.01773319 0.01578062
v 0.00528357 0.01408143 0.01719082
v 0.00245056 0.02009751 -0.01014286
v 0.00522598 0.01865763 -0.01083797
v 0.00416204 0.02138196 -0.01196544
v 0.00205521 0.02043443 -0.00084708
v 0.00322216 0.02072060 0.00299554
v 0.00208179 0.01999386 0.00695235
v 0.00354020 0.02123938 0.01452227
v 0.00267593 0.02459858 -0.00976160
v 0.00484828 0.02515691 -0.01239010
v 0.00447614 0.02301954 -0.00586093
v 0.00539677 0.02500375 -0.00779463
v 0.00481501 0.02287487 -0.00052332
v 0.00482485 0.02262363 0.00445713
v 0.00466245 0.02261901 0.00852910
v 0.00462715 0.02252000 0.01219741
v 0.00227004 0.02951577 -0.01031522
v 0.00450874 0.02979743 -0.01202205
v 0.00442062 0.02984675 -0.00857391
v 0.00506189 0.03443889 -0.01232654
v 0.00532819 0.03527928 -0.00813297
v 0.00233879 0.03868578 -0.01065049
v 0.00482460 0.03958755 -0.01217523
v 0.00411412 0.03882580 -0.00833202
v 0.00488212 0.04152494 -0.00987882
v 0.00667265 -0.05649282 -0.01026081
v 0.00669499 -0.05750935 -0.00609049
v 0.00648861 -0.05298994 -0.00962073
v 0.00706923 -0.05306636 -0.00556943
v 0.00663752 -0.05427827 -0.00202105
v 0.00703486 -0.04921214 -0.00093726
v 0.00901974 -0.04568595 0.00006527
v 0.00842772 -0.04426427 -0.00286076
v 0.00732516 -0.04424429 0.00322584
v 0.00986600 -0.04270731 0.00109978
v 0.00992428 -0.04027547 -0.00270774
v 0.00698859 -0.04084254 0.00385859
v 0.00908791 -0.03924903 0.00134924
v 0.00833111 -0.03784829 -0.00100955
v 0.00672849 0.00631737 -0.01475402
v 0.00982863 0.00442269 -0.01431047
v 0.00909877 0.00736234 -0.01685045
v 0.00828744 0.00415002 -0.00954647
v 0.00696707 0.00664143 -0.00529642
v 0.00959145 0.00667460 -0.00774402
v 0.00632537 0.00666878 -0.00095962
v 0.00619120 0.00672827 0.00350340
v 0.00708231 0.00991307 -0.01540653
v 0.01062384 0.01069244 -0.01700532
v 0.00715579 0.01128698 -0.00623415
v 0.01049875 0.01077734 -0.00767235
v 0.00727470 0.01122616 -0.00218740
v 0.00749814 0.01097867 0.00326917
v 0.00674416 0.01093442 0.00825453
v 0.00664765 0.01132222 0.01249290
v 0.00626777 0.01157817 0.01647395
v 0.00848281 0.01286619 -0.01412206
v 0.00918248 0.01377821 -0.01005426
v 0.00707628 0.01591707 -0.00488465
v 0.00904632 0.01560105 -0.00282464
v 0.00943268 0.01366742 0.00024786
v 0.00916843 0.01408295 0.00398200
v 0.00768223 0.01575433 0.00821821
v 0.00962752 0.01735472 0.00573381
v 0.00683038 0.01490135 0.01337919
v 0.00874782 0.01809001 -0.00986751
v 0.00859479 0.02034638 -0.01243835
v 0.00737306 0.02004383 -0.00586819
v 0.00923144 0.02066823 -0.00780806
v 0.00954394 0.01948106 -0.00316941
v 0.00716091 0.02045788 0.00905005
v 0.00897656 0.02092082 0.00610506
v 0.00626005 0.01964797 0.01258918
v 0.00941285 0.02469374 -0.01213876
v 0.00876973 0.02553522 -0.00849529
v 0.00843370 0.02256390 -0.00191519
v 0.00870957 0.02267008 0.00303355
v 0.00862615 0.02724133 -0.01068296
v 0.00660989 0.03009869 -0.01032784
v 0.00658840 0.03409623 -0.01025841
v 0.00952956 0.03681910 -0.01021369
v 0.00828686 0.03821556 -0.01234341
v 0.00916464 0.03842067 -0.00812888
v 0.00688546 0.04358839 -0.01063590
v 0.00964213 0.04311391 -0.01214176
v 0.00867862 0.04262361 -0.00834532
v 0.00982617 0.04525864 -0.00986785
v 0.01103212 -0.04306228 -0.00159566
v 0.01094838 -0.04023002 -0.00087089
v 0.01386161 0.00468019 -0.01419894
v 0.01315120 0.00726527 -0.01707591
v 0.01245389 0.00448602 -0.01080585
v 0.01410209 0.00765676 -0.00836722
v 0.01462131 0.01110738 -0.01713492
v 0.01383182 0.01105558 -0.00755116
v 0.01286762 0.01356241 -0.01450122
v 0.01166801 0.01612324 -0.01055516
v 0.01371749 0.01639180 -0.01276548
v 0.01327909 0.01517946 -0.00809030
v 0.01122634 0.01733406 -0.00061018
v 0.01098300 0.01576103 0.00254710
v 0.01422564 0.02040408 -0.01223233
v 0.01365160 0.02087742 -0.00819981
v 0.01116950 0.02094869 -0.00011318
v 0.01133288 0.01935663 0.00302509
v 0.01404756 0.02268885 -0.01025464
v 0.01127620 0.02466065 -0.00992910
v 0.01395325 0.03744738 -0.01020949
v 0.01273129 0.03945931 -0.01230562
v 0.01379442 0.03945358 -0.00818450
v 0.01475473 0.04414461 -0.01234149
v 0.01401365 0.04403508 -0.00810401
v 0.01317857 0.04631361 -0.01027914
v 0.01621550 0.00681333 -0.01523328
v 0.01600179 0.00609105 -0.01164350
v 0.01952556 0.00850696 -0.01407690
v 0.01854910 0.01099218 -0.01685295
v 0.01828646 0.00817933 -0.01001797
v 0.01811362 0.01096426 -0.00799783
v 0.01727770 0.01363245 -0.01522223
v 0.01875965 0.01706377 -0.01333805
v 0.01857445 0.01573099 -0.00755352
v 0.01903192 0.02123084 -0.01200645
v 0.01884163 0.02058023 -0.00817558
v 0.01787708 0.02264842 -0.01023978
v 0.01853334 0.03735734 -0.01018584
v 0.01741400 0.03923645 -0.01222784
v 0.01837915 0.03944923 -0.00821463
v 0.01896581 0.04294686 -0.01275093
v 0.01892884 0.04320119 -0.00758812
v 0.01600023 0.04829084 -0.01057355
v 0.01884909 0.04789597 -0.01190523
v 0.01785723 0.04748520 -0.00840926
v 0.01904932 0.05002091 -0.00974501
v 0.02321657 0.00950206 -0.01411078
v 0.02290502 0.01156078 -0.01682995
v 0.02192787 0.00930760 -0.01061004
v 0.02353153 0.01225191 -0.00826428
v 0.02056516 0.01501728 -0.01541996
v 0.02365820 0.01607928 -0.01688004
v 0.02254666 0.01630784 -0.00749688
v 0.02248228 0.01770959 -0.01464050
v 0.02322704 0.02088479 -0.01323965
v 0.02367604 0.01979302 -0.00757299
v 0.02068435 0.02461292 -0.01053208
v 0.02325874 0.02540074 -0.01185270
v 0.02305356 0.02446953 -0.00836039
v 0.02337034 0.02732251 -0.00984773
v 0.02277643 0.03662861 -0.01018971
v 0.02255520 0.03870459 -0.01221252
v 0.02317743 0.03874142 -0.00816230
v 0.02282154 0.04423554 -0.01321329
v 0.02293932 0.04394363 -0.00755728
v 0.02308707 0.04889285 -0.01302967
v 0.02291080 0.04834231 -0.00815732
v 0.02332016 0.05041308 -0.01062830
v 0.02552376 0.01154530 -0.01521889
v 0.02534807 0.01078078 -0.01154159
v 0.02793347 0.01349805 -0.01366558
v 0.02740470 0.01561423 -0.01701509
v 0.02732760 0.01309421 -0.00999638
v 0.02766228 0.01634106 -0.00815383
v 0.02510997 0.01990755 -0.01531536
v 0.02838765 0.02097404 -0.01688920
v 0.02710853 0.02109011 -0.00754519
v 0.02710600 0.02268599 -0.01469945
v 0.02792068 0.02571645 -0.01341150
v 0.02835751 0.02446244 -0.00755142
v 0.02535601 0.03010767 -0.01018364
v 0.02700729 0.02972816 -0.01211256
v 0.02732646 0.02867273 -0.00813709
v 0.02548878 0.03399169 -0.01022918
v 0.02800435 0.03457092 -0.01190655
v 0.02816372 0.03455251 -0.00847058
v 0.02674791 0.03969595 -0.01329917
v 0.02702521 0.03974130 -0.00757032
v 0.02580577 0.04330967 -0.01486053
v 0.02893313 0.04153550 -0.01528344
v 0.02752555 0.04462376 -0.01673671
v 0.02774034 0.04388381 -0.00747446
v 0.02544413 0.04721142 -0.01526219
v 0.02867806 0.04746674 -0.01662746
v 0.02743502 0.04820317 -0.00846016
v 0.02646986 0.05010726 -0.01406694
v 0.02760222 0.05024003 -0.01121645
v 0.03031229 0.01639012 -0.01519327
v 0.03003521 0.01552499 -0.01148031
v 0.03273272 0.01828841 -0.01370616
v 0.03157768 0.01979721 -0.01685977
v 0.03204859 0.01774808 -0.01006083
v 0.03246041 0.02095374 -0.00818064
v 0.02988930 0.02484495 -0.01546183
v 0.03240348 0.02407328 -0.01651416
v 0.03185152 0.02554951 -0.00750693
v 0.03195140 0.02672183 -0.01484330
v 0.03292400 0.02977796 -0.01272372
v 0.03270699 0.03015291 -0.00801904
v 0.03247957 0.03247976 -0.01015406
v 0.03055582 0.03431968 -0.01015117
v 0.03241787 0.03619334 -0.01019455
v 0.03229643 0.03853203 -0.01276458
v 0.03236702 0.03837903 -0.00800070
v 0.03283507 0.04205949 -0.01494449
v 0.03096892 0.04401593 -0.01665909
v 0.03241778 0.04403780 -0.00795052
v 0.03254489 0.04622478 -0.01470499
v 0.02982401 0.04874881 -0.01370546
v 0.03318485 0.04625069 -0.01068303
v 0.03012463 0.04802195 -0.01005747
v 0.03411627 0.02154668 -0.01522525
v 0.03491985 0.02092008 -0.01163618
v 0.03452409 0.02495092 -0.01435230
v 0.03673816 0.02515658 -0.01211206
v 0.03690477 0.02266454 -0.00977788
v 0.03657127 0.02541102 -0.00831794
v 0.03758146 0.02897544 -0.01205870
v 0.03759503 0.03008024 -0.00833227
v 0.03434161 0.03435342 -0.01019744
v 0.03638866 0.03427127 -0.01186209
v 0.03642823 0.03446235 -0.00850059
v 0.03755860 0.03860883 -0.01202312
v 0.03704328 0.04019917 -0.00804607
v 0.03458692 0.04419085 -0.01457538
v 0.03682779 0.04249608 -0.01242988
v 0.03656854 0.04385820 -0.00854109
v 0.03640175 0.04511518 -0.01133663
v 0.03864987 0.02571476 -0.01050966
v 0.03888993 0.02952854 -0.01021734
v 0.03889135 0.03439609 -0.01018955
v 0.03895652 0.03920890 -0.01008930
v 0.03868960 0.04290445 -0.00963809
f 3 2 1
f 4 1 2
f 3 1 5
f 3 5 6
f 1 4 7
f 1 7 5
f 8 6 5
f 8 5 7
f 10 9 2
f 10 2 3
f 4 2 9
f 4 9 11
f 6 13 12
f 10 6 12
f 3 6 10
f 11 12 13
f 7 11 13
f 4 11 7
f 8 13 6
f 13 8 7
f 16 15 14
f 17 14 15
f 16 14 9
f 10 16 9
f 18 16 10
f 11 9 14
f 17 11 14
f 19 11 17
f 20 18 10
f 20 10 12
f 12 11 19
f 12 19 20
f 22 21 15
f 22 15 16
f 17 15 21
f 17 21 23
f 18 22 16
f 18 24 22
f 23 19 17
f 25 19 23
f 26 24 18
f 26 18 20
f 20 19 25
f 20 25 26
f 28 27 21
f 28 21 22
f 23 21 27
f 23 27 29
f 24 28 22
f 24 30 28
f 29 25 23
f 31 25 29
f 32 30 24
f 32 24 26
f 26 25 31
f 26 31 32
f 35 34 33
f 36 33 34
f 35 33 37
f 35 37 38
f 33 36 39
f 33 39 37
f 40 38 37
f 40 37 39
f 43 42 41
f 45 44 41
f 45 41 42
f 47 46 44
f 47 44 45
f 49 48 46
f 49 46 47
f 51 50 48
f 51 48 49
f 52 50 51
f 43 41 53
f 43 53 54
f 55 41 44
f 53 41 55
f 56 44 46
f 55 44 56
f 57 46 48
f 56 46 57
f 58 48 50
f 57 48 58
f 50 52 59
f 50 59 58
f 60 54 53
f 62 61 60
f 53 62 60
f 55 62 53
f 63 55 56
f 62 55 63
f 57 65 64
f 63 57 64
f 56 57 63
f 65 57 58
f 65 58 66
f 66 58 59
f 61 62 67
f 61 67 68
f 69 62 63
f 67 62 69
f 63 64 70
f 63 70 69
f 71 68 67
f 71 67 69
f 71 69 72
f 72 69 70
f 74 73 27
f 74 27 28
f 29 27 73
f 29 73 75
f 30 74 28
f 30 76 74
f 75 31 29
f 77 31 75
f 78 76 30
f 78 30 32
f 32 31 77
f 32 77 78
f 81 80 79
f 83 82 79
f 83 79 80
f 84 82 83
f 81 79 85
f 81 85 86
f 87 79 82
f 85 79 87
f 82 84 88
f 89 82 88
f 87 82 89
f 90 89 88
f 91 86 85
f 91 85 87
f 91 87 92
f 94 93 92
f 87 94 92
f 89 94 87
f 89 90 95
f 89 95 94
f 93 94 34
f 35 93 34
f 96 93 35
f 98 97 36
f 98 36 34
f 95 98 34
f 94 95 34
f 99 97 98
f 38 96 35
f 38 100 96
f 101 39 97
f 97 39 36
f 97 99 102
f 97 102 101
f 103 100 38
f 103 38 40
f 40 39 101
f 104 40 101
f 103 40 104
f 104 101 102
f 106 105 42
f 106 42 43
f 42 107 45
f 105 107 42
f 45 108 47
f 107 108 45
f 47 109 49
f 108 109 47
f 49 110 51
f 109 110 49
f 112 111 52
f 51 112 52
f 110 112 51
f 114 113 111
f 114 111 112
f 115 113 114
f 54 106 43
f 54 116 106
f 117 59 111
f 111 59 52
f 113 119 118
f 117 113 118
f 111 113 117
f 119 113 115
f 54 60 120
f 121 54 120
f 116 54 121
f 61 120 60
f 122 64 65
f 66 123 65
f 65 123 122
f 124 123 66
f 124 66 59
f 125 124 59
f 117 125 59
f 125 117 118
f 121 120 126
f 121 126 127
f 68 126 61
f 61 126 120
f 128 70 122
f 122 70 64
f 129 122 123
f 128 122 129
f 123 124 130
f 123 130 129
f 131 127 126
f 131 126 68
f 71 131 68
f 132 131 71
f 133 71 72
f 133 132 71
f 72 70 128
f 134 72 128
f 133 72 134
f 134 128 129
f 134 129 135
f 135 129 130
f 74 136 73
f 136 75 73
f 138 137 136
f 74 138 136
f 76 138 74
f 75 136 137
f 139 75 137
f 77 75 139
f 140 138 76
f 140 76 78
f 78 77 139
f 78 139 140
f 143 142 141
f 145 144 141
f 145 141 142
f 146 144 145
f 143 141 80
f 81 143 80
f 147 143 81
f 80 141 83
f 83 141 144
f 149 148 84
f 149 84 83
f 146 149 83
f 144 146 83
f 150 148 149
f 86 152 151
f 147 86 151
f 81 86 147
f 154 153 152
f 152 153 151
f 148 88 84
f 155 153 154
f 90 88 148
f 150 90 148
f 156 90 150
f 91 152 86
f 152 91 92
f 152 92 154
f 92 93 154
f 93 155 154
f 93 157 155
f 156 95 90
f 158 95 156
f 96 157 93
f 96 159 157
f 158 160 95
f 95 160 98
f 99 98 160
f 99 160 161
f 100 159 96
f 100 162 159
f 164 102 163
f 102 161 163
f 102 99 161
f 166 165 164
f 166 164 163
f 167 165 166
f 100 103 168
f 169 100 168
f 162 100 169
f 104 170 103
f 103 170 168
f 102 164 104
f 164 170 104
f 164 171 170
f 172 164 165
f 171 164 172
f 165 167 173
f 174 165 173
f 172 165 174
f 175 174 173
f 176 169 168
f 176 168 170
f 176 170 177
f 179 178 177
f 170 179 177
f 171 179 170
f 180 171 172
f 179 171 180
f 181 172 174
f 180 172 181
f 174 175 182
f 174 182 181
f 183 178 179
f 185 184 183
f 179 185 183
f 180 185 179
f 186 180 181
f 185 180 186
f 181 182 187
f 181 187 186
f 184 185 188
f 184 188 189
f 190 185 186
f 188 185 190
f 186 187 191
f 186 191 190
f 189 188 192
f 189 192 193
f 194 188 190
f 192 188 194
f 190 191 195
f 196 190 195
f 194 190 196
f 197 196 195
f 193 192 198
f 193 198 199
f 200 192 194
f 198 192 200
f 201 194 196
f 200 194 201
f 196 197 202
f 196 202 201
f 199 198 203
f 199 203 204
f 205 198 200
f 203 198 205
f 206 200 201
f 205 200 206
f 201 202 207
f 201 207 206
f 204 203 208
f 204 208 209
f 210 203 205
f 208 203 210
f 211 205 206
f 210 205 211
f 206 207 212
f 206 212 211
f 209 208 213
f 209 213 214
f 215 208 210
f 213 208 215
f 216 210 211
f 215 210 216
f 211 212 217
f 211 217 216
f 106 218 105
f 219 107 105
f 219 105 218
f 220 108 107
f 220 107 219
f 221 109 108
f 221 108 220
f 222 214 213
f 109 222 213
f 110 109 213
f 222 109 221
f 110 213 112
f 112 213 215
f 112 215 114
f 114 215 216
f 115 114 216
f 217 115 216
f 223 115 217
f 226 225 224
f 225 227 218
f 116 225 218
f 106 116 218
f 224 225 116
f 218 227 219
f 219 227 228
f 219 228 220
f 220 228 229
f 220 229 221
f 221 229 230
f 221 230 222
f 231 118 119
f 232 231 119
f 115 232 119
f 223 232 115
f 233 226 224
f 224 116 233
f 116 234 233
f 116 121 234
f 237 236 235
f 235 238 237
f 239 124 125
f 240 239 125
f 240 125 118
f 241 240 118
f 231 241 118
f 241 231 232
f 127 234 121
f 127 242 234
f 245 244 243
f 245 243 236
f 243 235 236
f 243 246 235
f 238 235 247
f 235 248 247
f 235 246 248
f 248 249 247
f 251 250 239
f 250 124 239
f 250 130 124
f 251 239 240
f 252 242 127
f 252 127 131
f 132 243 244
f 252 132 244
f 131 132 252
f 243 132 133
f 243 133 246
f 246 133 134
f 246 134 248
f 253 249 248
f 134 253 248
f 135 253 134
f 135 130 250
f 135 250 253
f 255 254 137
f 255 137 138
f 139 137 254
f 139 254 256
f 257 255 138
f 257 138 140
f 140 139 256
f 140 256 257
f 259 258 142
f 259 142 143
f 142 260 145
f 258 260 142
f 146 145 260
f 146 260 261
f 147 263 262
f 259 147 262
f 143 147 259
f 263 264 262
f 261 265 146
f 146 265 149
f 150 149 265
f 150 265 266
f 151 263 147
f 267 264 263
f 151 267 263
f 153 267 151
f 153 155 267
f 267 155 268
f 266 156 150
f 269 156 266
f 157 268 155
f 157 270 268
f 269 158 156
f 271 158 269
f 159 270 157
f 159 272 270
f 271 273 158
f 158 273 160
f 161 160 273
f 161 273 274
f 162 276 275
f 272 162 275
f 159 162 272
f 276 277 275
f 163 161 278
f 161 279 278
f 161 274 279
f 163 278 280
f 281 163 280
f 166 163 281
f 167 166 281
f 167 281 282
f 169 283 276
f 169 276 162
f 277 276 284
f 284 276 283
f 279 285 278
f 278 285 280
f 282 286 167
f 167 286 173
f 175 173 286
f 175 286 287
f 176 283 169
f 288 284 283
f 176 288 283
f 177 288 176
f 177 178 288
f 288 178 289
f 287 182 175
f 290 182 287
f 291 289 178
f 291 178 183
f 183 184 291
f 291 184 292
f 290 187 182
f 293 187 290
f 189 292 184
f 189 294 292
f 293 191 187
f 295 191 293
f 193 294 189
f 193 296 294
f 295 297 191
f 191 297 195
f 197 195 297
f 197 297 298
f 199 296 193
f 199 299 296
f 298 202 197
f 300 202 298
f 204 299 199
f 204 301 299
f 300 207 202
f 302 207 300
f 209 301 204
f 209 303 301
f 302 212 207
f 304 212 302
f 214 303 209
f 214 305 303
f 304 217 212
f 306 217 304
f 222 305 214
f 222 307 305
f 306 223 217
f 308 223 306
f 310 309 225
f 310 225 226
f 225 311 227
f 309 311 225
f 227 312 228
f 311 312 227
f 228 313 229
f 312 313 228
f 229 314 230
f 313 314 229
f 222 230 307
f 307 230 314
f 308 232 223
f 315 232 308
f 316 310 226
f 316 226 233
f 233 234 316
f 316 234 317
f 319 318 237
f 237 318 236
f 321 320 238
f 320 237 238
f 320 319 237
f 323 322 321
f 321 322 320
f 325 324 323
f 323 324 322
f 240 241 325
f 241 324 325
f 241 326 324
f 241 232 315
f 241 315 326
f 242 317 234
f 242 327 317
f 329 328 245
f 245 328 244
f 245 236 318
f 245 318 329
f 247 321 238
f 321 247 249
f 330 321 249
f 323 321 330
f 330 250 251
f 325 330 251
f 323 330 325
f 325 251 240
f 331 327 242
f 331 242 252
f 252 244 328
f 252 328 331
f 253 330 249
f 330 253 250
f 333 332 254
f 333 254 255
f 256 254 332
f 256 332 334
f 335 333 255
f 335 255 257
f 257 256 334
f 257 334 335
f 337 336 258
f 337 258 259
f 258 338 260
f 336 338 258
f 261 260 338
f 261 338 339
f 259 262 340
f 341 259 340
f 337 259 341
f 264 340 262
f 339 342 261
f 261 342 265
f 266 265 342
f 266 342 343
f 344 341 340
f 344 340 264
f 267 344 264
f 345 344 267
f 267 268 345
f 345 268 346
f 343 269 266
f 347 269 343
f 270 346 268
f 270 348 346
f 347 271 269
f 349 271 347
f 272 348 270
f 272 350 348
f 349 351 271
f 271 351 273
f 274 273 351
f 274 351 352
f 272 275 353
f 354 272 353
f 350 272 354
f 277 353 275
f 356 279 355
f 279 352 355
f 279 274 352
f 281 280 356
f 355 281 356
f 357 281 355
f 282 281 357
f 282 357 358
f 354 353 359
f 354 359 360
f 284 359 277
f 277 359 353
f 356 285 279
f 285 356 280
f 358 361 282
f 282 361 286
f 287 286 361
f 287 361 362
f 363 360 359
f 363 359 284
f 288 363 284
f 364 363 288
f 288 289 364
f 364 289 365
f 362 290 287
f 366 290 362
f 367 365 289
f 367 289 291
f 291 292 367
f 367 292 368
f 366 293 290
f 369 293 366
f 294 368 292
f 294 370 368
f 369 295 293
f 371 295 369
f 296 370 294
f 296 372 370
f 371 373 295
f 295 373 297
f 298 297 373
f 298 373 374
f 299 372 296
f 299 375 372
f 374 300 298
f 376 300 374
f 301 375 299
f 301 377 375
f 376 302 300
f 378 302 376
f 303 377 301
f 303 379 377
f 378 304 302
f 380 304 378
f 305 379 303
f 305 381 379
f 380 306 304
f 382 306 380
f 307 381 305
f 307 383 381
f 382 308 306
f 384 308 382
f 386 385 309
f 386 309 310
f 309 387 311
f 385 387 309
f 311 388 312
f 387 388 311
f 312 389 313
f 388 389 312
f 313 390 314
f 389 390 313
f 307 314 383
f 383 314 390
f 384 315 308
f 391 315 384
f 392 386 310
f 392 310 316
f 316 317 392
f 392 317 393
f 395 394 319
f 319 394 318
f 397 395 396
f 395 320 396
f 395 319 320
f 322 398 320
f 320 398 396
f 324 399 322
f 322 399 398
f 399 324 400
f 324 401 400
f 324 326 401
f 326 315 391
f 326 391 401
f 327 393 317
f 327 402 393
f 404 403 329
f 329 403 328
f 329 318 394
f 329 394 404
f 405 397 396
f 407 406 405
f 396 407 405
f 398 407 396
f 399 409 408
f 407 399 408
f 398 399 407
f 409 399 400
f 410 402 327
f 410 327 331
f 331 328 403
f 331 403 410
f 411 406 407
f 411 407 408
f 413 412 332
f 413 332 333
f 334 332 412
f 334 412 414
f 415 413 333
f 415 333 335
f 335 334 414
f 335 414 415
f 337 416 336
f 417 338 336
f 417 336 416
f 417 339 338
f 419 418 416
f 337 419 416
f 341 419 337
f 416 418 417
f 417 418 420
f 420 422 421
f 420 421 342
f 417 420 342
f 339 417 342
f 421 343 342
f 341 344 423
f 424 341 423
f 419 341 424
f 345 425 344
f 344 425 423
f 422 426 421
f 425 345 346
f 343 421 426
f 427 343 426
f 347 343 427
f 428 424 423
f 428 423 425
f 428 425 429
f 425 346 429
f 346 430 429
f 346 348 430
f 427 349 347
f 431 349 427
f 350 430 348
f 350 432 430
f 431 433 349
f 349 433 351
f 352 351 433
f 352 433 434
f 354 432 350
f 354 435 432
f 355 352 436
f 352 437 436
f 352 434 437
f 438 357 355
f 438 355 436
f 438 358 357
f 360 440 439
f 435 360 439
f 354 360 435
f 442 441 440
f 440 441 439
f 441 442 437
f 442 436 437
f 442 443 436
f 436 444 438
f 436 443 444
f 445 361 358
f 438 445 358
f 444 445 438
f 445 362 361
f 363 440 360
f 440 363 364
f 440 364 442
f 442 364 365
f 446 442 365
f 443 442 446
f 443 447 444
f 443 446 447
f 444 448 445
f 444 447 448
f 448 366 362
f 448 362 445
f 367 446 365
f 446 367 368
f 449 446 368
f 447 446 449
f 447 450 448
f 447 449 450
f 450 369 366
f 450 366 448
f 370 451 449
f 370 449 368
f 449 452 450
f 449 451 452
f 452 371 369
f 452 369 450
f 372 453 451
f 372 451 370
f 451 454 452
f 451 453 454
f 455 373 371
f 452 455 371
f 454 455 452
f 455 374 373
f 375 456 453
f 375 453 372
f 453 457 454
f 453 456 457
f 454 458 455
f 454 457 458
f 458 376 374
f 458 374 455
f 377 459 456
f 377 456 375
f 456 460 457
f 456 459 460
f 457 461 458
f 457 460 461
f 461 378 376
f 461 376 458
f 379 462 459
f 379 459 377
f 459 463 460
f 459 462 463
f 460 464 461
f 460 463 464
f 464 380 378
f 464 378 461
f 381 465 462
f 381 462 379
f 462 466 463
f 462 465 466
f 463 467 464
f 463 466 467
f 467 382 380
f 467 380 464
f 470 469 468
f 472 471 468
f 472 468 469
f 474 473 471
f 474 471 472
f 476 475 473
f 476 473 474
f 477 475 476
f 383 478 465
f 383 465 381
f 465 479 466
f 465 478 479
f 466 480 467
f 466 479 480
f 480 384 382
f 480 382 467
f 470 468 385
f 386 470 385
f 481 470 386
f 385 468 387
f 387 468 471
f 387 471 388
f 388 471 473
f 388 473 389
f 389 473 475
f 477 482 475
f 482 389 475
f 482 390 389
f 383 390 478
f 390 483 478
f 390 482 483
f 478 483 479
f 479 483 484
f 486 485 484
f 485 479 484
f 485 480 479
f 485 391 384
f 485 384 480
f 487 481 386
f 487 386 392
f 392 393 487
f 487 393 488
f 489 394 395
f 397 489 395
f 492 491 490
f 492 490 486
f 486 490 485
f 490 400 485
f 400 401 485
f 485 401 391
f 495 494 493
f 494 488 493
f 488 402 493
f 488 393 402
f 496 403 404
f 394 489 404
f 489 496 404
f 489 497 496
f 405 498 397
f 498 489 397
f 498 497 489
f 406 498 405
f 490 491 409
f 491 408 409
f 491 499 408
f 490 409 400
f 495 493 500
f 495 500 501
f 500 493 402
f 502 500 402
f 410 502 402
f 503 500 502
f 410 403 496
f 504 410 496
f 502 410 504
f 504 496 497
f 504 497 505
f 505 497 498
f 505 498 506
f 506 498 406
f 411 506 406
f 507 506 411
f 411 408 499
f 411 499 507
f 501 500 508
f 501 508 509
f 500 503 510
f 500 510 508
f 509 508 412
f 413 509 412
f 511 509 413
f 414 412 508
f 510 414 508
f 512 414 510
f 413 415 513
f 514 413 513
f 511 413 514
f 515 513 415
f 414 515 415
f 512 515 414
f 516 514 513
f 516 513 515
f 419 517 418
f 518 420 418
f 518 418 517
f 518 422 420
f 424 519 517
f 424 517 419
f 517 520 518
f 517 519 520
f 521 426 422
f 518 521 422
f 520 521 518
f 521 427 426
f 428 519 424
f 519 428 429
f 519 429 520
f 520 429 430
f 522 520 430
f 521 520 522
f 522 431 427
f 522 427 521
f 524 523 522
f 430 524 522
f 432 524 430
f 523 526 525
f 523 525 433
f 522 523 433
f 431 522 433
f 525 434 433
f 435 524 432
f 435 527 524
f 525 526 528
f 528 526 529
f 528 437 434
f 528 434 525
f 530 527 435
f 530 435 439
f 441 528 529
f 530 441 529
f 439 441 530
f 528 441 437
f 533 532 531
f 469 470 531
f 532 469 531
f 534 469 532
f 534 536 535
f 472 534 535
f 469 534 472
f 537 474 472
f 537 472 535
f 538 476 474
f 538 474 537
f 538 477 476
f 533 531 539
f 533 539 540
f 481 539 470
f 470 539 531
f 535 536 541
f 541 536 542
f 535 543 537
f 535 541 543
f 537 544 538
f 537 543 544
f 545 482 477
f 538 545 477
f 544 545 538
f 546 483 482
f 546 482 545
f 547 484 483
f 547 483 546
f 547 486 484
f 548 540 539
f 548 539 481
f 487 548 481
f 549 548 487
f 550 541 488
f 541 549 488
f 549 487 488
f 541 542 549
f 552 543 551
f 543 550 551
f 543 541 550
f 543 552 544
f 544 552 553
f 555 554 553
f 554 544 553
f 554 545 544
f 545 556 546
f 545 554 556
f 556 491 492
f 547 556 492
f 546 556 547
f 547 492 486
f 558 557 494
f 558 494 495
f 494 557 488
f 557 559 488
f 559 550 488
f 559 557 560
f 551 550 561
f 561 550 559
f 554 555 562
f 562 555 563
f 554 564 556
f 554 562 564
f 564 499 491
f 564 491 556
f 501 558 495
f 501 565 558
f 559 560 502
f 560 503 502
f 560 566 503
f 567 561 559
f 502 567 559
f 504 567 502
f 568 504 505
f 568 567 504
f 506 562 563
f 568 506 563
f 505 506 568
f 562 506 507
f 562 507 564
f 564 507 499
f 509 570 569
f 565 509 569
f 501 509 565
f 566 569 570
f 510 566 570
f 503 566 510
f 511 571 570
f 511 570 509
f 571 512 510
f 571 510 570
f 573 572 571
f 511 573 571
f 514 573 511
f 512 571 572
f 574 512 572
f 515 512 574
f 514 516 575
f 576 514 575
f 573 514 576
f 577 575 516
f 515 577 516
f 574 577 515
f 578 576 575
f 578 575 577
f 524 579 523
f 579 526 523
f 527 580 579
f 527 579 524
f 580 529 526
f 580 526 579
f 530 580 527
f 580 530 529
f 582 581 532
f 582 532 533
f 532 583 534
f 581 583 532
f 536 534 583
f 536 583 584
f 540 582 533
f 540 585 582
f 584 542 536
f 586 542 584
f 587 585 540
f 587 540 548
f 589 587 588
f 587 549 588
f 587 548 549
f 590 588 549
f 542 590 549
f 586 590 542
f 551 591 552
f 592 553 552
f 592 552 591
f 592 555 553
f 589 588 557
f 558 589 557
f 593 589 558
f 560 557 588
f 590 560 588
f 594 560 590
f 561 595 591
f 561 591 551
f 591 596 592
f 591 595 596
f 596 563 555
f 596 555 592
f 565 598 597
f 593 565 597
f 558 565 593
f 594 597 598
f 566 594 598
f 560 594 566
f 567 595 561
f 595 567 568
f 595 568 596
f 596 568 563
f 569 598 565
f 598 569 566
f 600 599 572
f 600 572 573
f 574 572 599
f 574 599 601
f 576 600 573
f 576 602 600
f 601 577 574
f 603 577 601
f 604 602 576
f 604 576 578
f 578 577 603
f 578 603 604
f 582 605 581
f 606 583 581
f 606 581 605
f 606 584 583
f 608 607 605
f 582 608 605
f 585 608 582
f 605 607 606
f 606 607 609
f 584 606 609
f 610 584 609
f 586 584 610
f 611 608 585
f 611 585 587
f 587 589 611
f 611 589 612
f 610 590 586
f 613 590 610
f 593 612 589
f 593 614 612
f 613 594 590
f 615 594 613
f 616 614 593
f 616 593 597
f 597 594 615
f 597 615 616
f 618 617 599
f 618 599 600
f 601 599 617
f 601 617 619
f 602 618 600
f 602 620 618
f 619 603 601
f 621 603 619
f 602 604 622
f 623 602 622
f 620 602 623
f 624 622 604
f 603 624 604
f 621 624 603
f 625 623 622
f 625 622 624
f 627 626 607
f 627 607 608
f 607 628 609
f 626 628 607
f 610 609 628
f 610 628 629
f 608 611 630
f 631 608 630
f 627 608 631
f 612 630 611
f 629 613 610
f 632 613 629
f 633 631 630
f 630 612 633
f 612 634 633
f 612 614 634
f 632 615 613
f 635 615 632
f 614 616 636
f 637 614 636
f 634 614 637
f 638 636 616
f 615 638 616
f 635 638 615
f 639 637 636
f 639 636 638
f 641 640 617
f 641 617 618
f 619 617 640
f 619 640 642
f 620 641 618
f 620 643 641
f 642 621 619
f 644 621 642
f 623 643 620
f 623 645 643
f 644 624 621
f 646 624 644
f 647 645 623
f 647 623 625
f 625 624 646
f 625 646 647
f 627 648 626
f 649 628 626
f 649 626 648
f 649 629 628
f 651 650 648
f 627 651 648
f 631 651 627
f 648 650 649
f 649 650 652
f 629 649 652
f 653 629 652
f 632 629 653
f 631 633 654
f 655 631 654
f 651 631 655
f 634 654 633
f 653 635 632
f 656 635 653
f 657 655 654
f 654 634 657
f 634 658 657
f 634 637 658
f 656 638 635
f 659 638 656
f 637 639 660
f 661 637 660
f 658 637 661
f 662 660 639
f 638 662 639
f 659 662 638
f 661 660 663
f 661 663 664
f 660 662 665
f 660 665 663
f 664 663 640
f 641 664 640
f 666 664 641
f 642 640 663
f 665 642 663
f 667 642 665
f 670 669 668
f 669 666 668
f 666 643 668
f 666 641 643
f 667 644 642
f 671 644 667
f 670 668 672
f 670 672 673
f 645 672 643
f 643 672 668
f 671 646 644
f 674 646 671
f 675 673 672
f 675 672 645
f 647 675 645
f 676 675 647
f 647 646 674
f 647 674 676
f 651 677 650
f 678 652 650
f 678 650 677
f 678 653 652
f 680 679 677
f 651 680 677
f 655 680 651
f 677 679 678
f 678 679 681
f 653 678 681
f 682 653 681
f 656 653 682
f 655 657 683
f 684 655 683
f 680 655 684
f 658 683 657
f 682 659 656
f 685 659 682
f 686 684 683
f 683 658 686
f 658 687 686
f 658 661 687
f 685 662 659
f 688 662 685
f 664 690 689
f 687 664 689
f 661 664 687
f 688 689 690
f 665 688 690
f 662 688 665
f 692 691 690
f 664 692 690
f 666 692 664
f 665 690 691
f 693 665 691
f 667 665 693
f 695 694 669
f 695 669 670
f 666 669 692
f 692 669 694
f 693 671 667
f 696 671 693
f 673 698 697
f 695 673 697
f 670 673 695
f 700 699 698
f 698 699 697
f 696 699 700
f 674 696 700
f 671 696 674
f 675 698 673
f 698 675 676
f 698 676 700
f 700 676 674
f 680 701 679
f 702 681 679
f 702 679 701
f 702 682 681
f 684 703 701
f 684 701 680
f 705 702 704
f 702 703 704
f 702 701 703
f 682 702 705
f 706 682 705
f 685 682 706
f 686 703 684
f 686 687 703
f 687 704 703
f 687 707 704
f 706 688 685
f 708 688 706
f 687 689 709
f 710 687 709
f 707 687 710
f 711 709 689
f 688 711 689
f 708 711 688
f 710 709 691
f 692 710 691
f 712 710 692
f 693 691 709
f 711 693 709
f 713 693 711
f 695 714 694
f 714 715 694
f 715 692 694
f 715 712 692
f 713 696 693
f 716 696 713
f 697 714 695
f 717 715 714
f 697 717 714
f 699 717 697
f 699 696 716
f 699 716 717
f 704 718 705
f 718 706 705
f 707 719 718
f 707 718 704
f 719 708 706
f 719 706 718
f 710 720 719
f 710 719 707
f 720 711 708
f 720 708 719
f 712 721 720
f 712 720 710
f 721 713 711
f 721 711 720
f 715 722 721
f 715 721 712
f 722 716 713
f 722 713 721
f 717 722 715
f 722 717 716

