# https://github.com/mikedh/trimesh
v -0.02177311 -0.00958638 -0.03265060
v -0.01942230 -0.01264667 -0.03410810
v -0.01955818 -0.00985620 -0.03574073
v -0.02196245 -0.00958826 -0.02782634
v -0.02007926 -0.01261182 -0.03015629
v -0.02185946 -0.00959695 -0.02277210
v -0.01997555 -0.01259019 -0.02504664
v -0.02184979 -0.00959779 -0.01782941
v -0.01991687 -0.01259289 -0.02004437
v -0.02185291 -0.00959759 -0.01289855
v -0.01991991 -0.01259348 -0.01511494
v -0.02185310 -0.00959770 -0.00796416
v -0.01992124 -0.01259339 -0.01018192
v -0.02185273 -0.00959794 -0.00303108
v -0.01992125 -0.01259327 -0.00524733
v -0.02184727 -0.00959766 0.00190123
v -0.01991949 -0.01259114 -0.00031241
v -0.02185844 -0.00963948 0.00686068
v -0.01991588 -0.01260454 0.00462405
v -0.02197317 -0.00964596 0.01186196
v -0.01995768 -0.01268375 0.00954245
v -0.02174674 -0.00889389 0.01663434
v -0.02006096 -0.01234996 0.01425515
v -0.01978263 -0.01073586 0.01789273
v -0.02207657 -0.00515021 -0.03350372
v -0.01957258 -0.00510255 -0.03595497
v -0.02254471 -0.00518252 -0.02900932
v -0.02241926 -0.00519868 -0.02395137
v -0.02238346 -0.00519970 -0.01898349
v -0.02238702 -0.00519929 -0.01405312
v -0.02238776 -0.00519937 -0.00911933
v -0.02238745 -0.00520124 -0.00418582
v -0.02238438 -0.00519781 0.00074599
v -0.02238587 -0.00518438 0.00570743
v -0.02249002 -0.00521234 0.01078007
v -0.02263938 -0.00509739 0.01584930
v -0.01935081 -0.00797946 0.02107076
v -0.02175706 -0.00472443 0.02028329
v -0.01942674 -0.00494937 0.02341440
v -0.02210866 -0.00003122 -0.03331282
v -0.01966346 -0.00002352 -0.03581407
v -0.02255903 -0.00007042 -0.02883050
v -0.02240220 -0.00008252 -0.02374871
v -0.02234133 -0.00008147 -0.01875767
v -0.02234383 -0.00008078 -0.01382594
v -0.02234559 -0.00008077 -0.00889311
v -0.02234519 -0.00008271 -0.00395883
v -0.02234449 -0.00008058 0.00097357
v -0.02234908 -0.00003131 0.00593671
v -0.02240776 -0.00001416 0.01097191
v -0.02251420 0.00005107 0.01598907
v -0.02202298 -0.00000858 0.02037870
v -0.02012400 -0.00119186 0.02352562
v -0.02222677 0.00505728 -0.03326982
v -0.01977382 0.00500770 -0.03582658
v -0.02263075 0.00506940 -0.02869093
v -0.02245215 0.00503665 -0.02353513
v -0.02238264 0.00503593 -0.01852962
v -0.02238499 0.00503771 -0.01359889
v -0.02238774 0.00503780 -0.00866710
v -0.02238746 0.00503671 -0.00373232
v -0.02238734 0.00503477 0.00119962
v -0.02239702 0.00508141 0.00613465
v -0.02241451 0.00513765 0.01113825
v -0.02244160 0.00448895 0.01544656
v -0.02169174 0.00539920 0.01959878
v -0.02003166 0.00354035 0.02332398
v -0.02180735 0.00904162 -0.03388853
v -0.01881529 0.01029130 -0.03568385
v -0.02212868 0.00950103 -0.02990409
v -0.02191362 0.00946573 -0.02472211
v -0.02184520 0.00943365 -0.01968136
v -0.02184979 0.00943536 -0.01475264
v -0.02185304 0.00943612 -0.00982229
v -0.02185297 0.00943582 -0.00488751
v -0.02185230 0.00943220 0.00004704
v -0.02185834 0.00944996 0.00496917
v -0.02187191 0.00955908 0.00992853
v -0.02167984 0.00920117 0.01530104
v -0.02028086 0.00942359 0.01890356
v -0.01962929 0.00719356 0.02184344
v -0.02023781 0.01228368 -0.03240626
v -0.02000644 0.01252447 -0.02750519
v -0.01991052 0.01244019 -0.02240166
v -0.01991749 0.01242896 -0.01745974
v -0.01992129 0.01243170 -0.01253212
v -0.01992125 0.01243187 -0.00759771
v -0.01992070 0.01243009 -0.00266196
v -0.01991953 0.01242942 0.00226877
v -0.01993782 0.01250558 0.00716440
v -0.01993023 0.01259241 0.01207930
v -0.01961649 0.01188189 0.01628560
v -0.01720212 -0.01507580 -0.03252966
v -0.01427864 -0.01764836 -0.03410792
v -0.01522438 -0.01466605 -0.03582739
v -0.01745663 -0.01496205 -0.02763291
v -0.01497658 -0.01752906 -0.03015619
v -0.01734974 -0.01494237 -0.02253813
v -0.01492858 -0.01741212 -0.02504657
v -0.01733637 -0.01494660 -0.01759370
v -0.01486942 -0.01741100 -0.02004431
v -0.01734011 -0.01494691 -0.01266424
v -0.01487155 -0.01741430 -0.01511488
v -0.01734029 -0.01494691 -0.00772985
v -0.01487292 -0.01741429 -0.01018186
v -0.01733949 -0.01494595 -0.00279463
v -0.01487250 -0.01741429 -0.00524690
v -0.01733776 -0.01494309 0.00213717
v -0.01487084 -0.01741120 -0.00031348
v -0.01736430 -0.01499057 0.00704213
v -0.01488768 -0.01741450 0.00459865
v -0.01744637 -0.01507786 0.01198606
v -0.01495447 -0.01750697 0.00954491
v -0.01759685 -0.01426679 0.01711439
v -0.01456929 -0.01756988 0.01527902
v -0.01648858 -0.01389952 0.02090164
v -0.01508290 -0.01646164 0.01981524
v -0.01389511 -0.01504592 0.02235848
v -0.01497988 -0.01011924 -0.03646961
v -0.01793165 -0.01104448 0.02016845
v -0.01474167 -0.01105833 0.02340084
v -0.01509434 -0.00505884 -0.03635638
v -0.01699475 -0.00456860 0.00710277
v -0.01471616 -0.00483519 0.00384533
v -0.01452709 -0.00779116 0.00537887
v -0.01519881 -0.00746326 0.00919903
v -0.01693402 -0.00392558 0.01184199
v -0.01489109 -0.00588787 0.01311164
v -0.01729719 -0.00343955 0.02594431
v -0.01623299 -0.00708689 0.02506687
v -0.01383858 -0.00589152 0.02743452
v -0.01519681 -0.00013289 -0.03633521
v -0.01740690 0.00001604 0.00616668
v -0.01483805 0.00007162 0.00356377
v -0.01793284 -0.00068649 0.01017170
v -0.01559245 -0.00286354 0.01540196
v -0.01679140 0.00054198 0.01458838
v -0.01370524 -0.00058548 0.01758644
v -0.01759018 0.00121576 0.02601233
v -0.01444043 -0.00122929 0.02766750
v -0.01522315 0.00484999 -0.03636995
v -0.01691151 0.00419236 0.00555461
v -0.01392391 0.00546775 0.00375488
v -0.01714031 0.00409557 0.01003572
v -0.01557623 0.00437643 0.01399319
v -0.01447270 0.00289582 0.01657030
v -0.01758261 0.00624026 0.02530780
v -0.01445067 0.00371807 0.02772664
v -0.01446185 0.00919921 -0.03640983
v -0.01534792 0.00742720 0.00706114
v -0.01487184 0.00693547 0.01126696
v -0.01831275 0.01053344 0.02069224
v -0.01687401 0.01077300 0.02479122
v -0.01450359 0.00838386 0.02752606
v -0.01771603 0.01437976 -0.03397150
v -0.01432816 0.01483973 -0.03580819
v -0.01750674 0.01495202 -0.03002398
v -0.01733274 0.01483698 -0.02490989
v -0.01733440 0.01478090 -0.01990876
v -0.01734039 0.01478404 -0.01498135
v -0.01734033 0.01478535 -0.01004840
v -0.01734020 0.01478505 -0.00511342
v -0.01733769 0.01478214 -0.00017832
v -0.01734113 0.01479890 0.00473500
v -0.01741284 0.01488804 0.00964556
v -0.01749061 0.01444768 0.01528792
v -0.01680018 0.01427806 0.02051129
v -0.01530710 0.01411305 0.02336729
v -0.01376888 0.01207424 0.02594217
v -0.01511398 0.01725460 -0.03249709
v -0.01489658 0.01738319 -0.02763664
v -0.01486433 0.01725826 -0.02254630
v -0.01487253 0.01724861 -0.01760195
v -0.01487297 0.01725256 -0.01267245
v -0.01487287 0.01725272 -0.00773806
v -0.01487196 0.01725187 -0.00280285
v -0.01486956 0.01724931 0.00213076
v -0.01491403 0.01728197 0.00703500
v -0.01500282 0.01736788 0.01193859
v -0.01429008 0.01737323 0.01703772
v -0.01410029 0.01629030 0.02079876
v -0.01226899 -0.02019296 -0.03264407
v -0.00863322 -0.02189378 -0.03350567
v -0.01083659 -0.01909632 -0.03573589
v -0.01261817 -0.02004598 -0.02781944
v -0.00962288 -0.02205429 -0.02900889
v -0.01253022 -0.01998978 -0.02276523
v -0.00957038 -0.02193278 -0.02394994
v -0.01251610 -0.01999423 -0.01782257
v -0.00952018 -0.02192376 -0.01898203
v -0.01251923 -0.01999526 -0.01289171
v -0.00952263 -0.02192697 -0.01405167
v -0.01251927 -0.01999530 -0.00795720
v -0.00952362 -0.02192710 -0.00911790
v -0.01251877 -0.01999447 -0.00302295
v -0.00952516 -0.02192676 -0.00418449
v -0.01252304 -0.01999042 0.00190523
v -0.00952903 -0.02192245 0.00074520
v -0.01257107 -0.02001924 0.00683867
v -0.00952437 -0.02193530 0.00569211
v -0.01260314 -0.02005488 0.01183208
v -0.00949842 -0.02201218 0.01074064
v -0.01187574 -0.01974889 0.01614735
v -0.00947475 -0.02171330 0.01550103
v -0.00934376 -0.02043604 0.01876849
v -0.00981849 -0.01521198 -0.03646460
v -0.01035039 -0.01800420 0.02091376
v -0.01012000 -0.01479178 0.02403970
v -0.00983682 -0.01007207 -0.03626521
v -0.01232671 -0.01030629 0.00693151
v -0.01031821 -0.00977055 0.00360928
v -0.00938512 -0.01284310 0.00541280
v -0.00965011 -0.01280984 0.01026775
v -0.01265527 -0.00946383 0.01213358
v -0.01014243 -0.01167828 0.01492899
v -0.01158570 -0.00913579 0.01609641
v -0.00903094 -0.01025008 0.01752613
v -0.01052936 -0.01215581 0.02559581
v -0.01281723 -0.00925641 0.02623686
v -0.00938090 -0.01037356 0.02755530
v -0.01001751 -0.00508620 -0.03618314
v -0.01013503 -0.00514380 0.00301281
v -0.01330868 -0.00543280 0.01578022
v -0.00993999 -0.00584695 0.01854244
v -0.00976719 -0.00555356 0.02863778
v -0.00945152 -0.00006764 -0.03571249
v -0.01029609 0.00002735 0.00314970
v -0.01025976 -0.00082407 0.01922293
v -0.01064969 -0.00023002 0.02867738
v -0.01079256 0.00540725 -0.03627493
v -0.00965776 0.00441743 0.00315653
v -0.01292504 0.00656108 0.01529117
v -0.01040294 0.00434107 0.01858714
v -0.01003612 0.00537575 0.02862889
v -0.01004103 0.00984567 -0.03633182
v -0.01289234 0.00951695 0.00549232
v -0.00952561 0.00999774 0.00365715
v -0.01272241 0.00962591 0.01024057
v -0.01153183 0.01003236 0.01489352
v -0.01014146 0.00894993 0.01748734
v -0.01004909 0.01046870 0.02765206
v -0.00938808 0.01434528 -0.03642697
v -0.01033849 0.01237305 0.00696601
v -0.00937758 0.01256499 0.01213129
v -0.00898749 0.01148622 0.01609148
v -0.01033223 0.01556346 0.02378842
v -0.00972552 0.01316740 0.02615001
v -0.01275504 0.01948844 -0.03405427
v -0.00954032 0.01917272 -0.03578437
v -0.01259442 0.02005085 -0.03014911
v -0.01251095 0.01988478 -0.02505467
v -0.01251753 0.01982783 -0.02005152
v -0.01251957 0.01983239 -0.01512168
v -0.01251939 0.01983366 -0.01018868
v -0.01251926 0.01983366 -0.00525412
v -0.01251687 0.01983184 -0.00031879
v -0.01252899 0.01982961 0.00461919
v -0.01260831 0.01987177 0.00953897
v -0.01232536 0.01990303 0.01427436
v -0.01073700 0.01959854 0.01794993
v -0.01030067 0.01800937 0.02051539
v -0.00966134 0.02176315 -0.03261828
v -0.00952522 0.02188602 -0.02782364
v -0.00951886 0.02176945 -0.02277277
v -0.00952367 0.02176206 -0.01782935
v -0.00952365 0.02176535 -0.01289845
v -0.00952364 0.02176550 -0.00796404
v -0.00952280 0.02176525 -0.00303004
v -0.00952183 0.02176038 0.00190279
v -0.00956329 0.02177159 0.00685883
v -0.00957758 0.02184951 0.01188909
v -0.00884018 0.02158568 0.01673244
v -0.00392510 -0.02218478 -0.03343682
v -0.00607325 -0.01971920 -0.03595418
v -0.00524796 -0.02263145 -0.02897371
v -0.00522100 -0.02249313 -0.02389217
v -0.00512491 -0.02245694 -0.01889960
v -0.00512276 -0.02246106 -0.01396778
v -0.00512537 -0.02246180 -0.00903505
v -0.00512828 -0.02246147 -0.00410181
v -0.00513064 -0.02245830 0.00083031
v -0.00509904 -0.02246137 0.00578740
v -0.00497065 -0.02256412 0.01085954
v -0.00496257 -0.02264156 0.01594609
v -0.00741335 -0.02011164 0.02106023
v -0.00582125 -0.02172291 0.01982409
v -0.00404008 -0.01987027 0.02313022
v -0.00474656 -0.01518113 -0.03632922
v -0.00733173 -0.01539441 0.00704013
v -0.00589581 -0.01423156 0.00378046
v -0.00360534 -0.01716037 0.00617249
v -0.00520328 -0.01683049 0.00975773
v -0.00699077 -0.01494872 0.01125600
v -0.00369075 -0.01526105 0.01328468
v -0.00761377 -0.01442321 0.02624687
v -0.00568756 -0.01706807 0.02515675
v -0.00460400 -0.01463472 0.02754761
v -0.00489601 -0.01001332 -0.03618572
v -0.00488843 -0.01032458 0.00298883
v -0.00642381 -0.01272386 0.01528699
v -0.00458631 -0.00973188 0.01857710
v -0.00439922 -0.00962869 0.02863924
v -0.00461140 -0.00512383 -0.03557607
v -0.00490808 -0.00515798 0.00324128
v -0.00553254 -0.00707507 0.02060320
v -0.00746352 -0.00370125 0.02090751
v -0.00402233 -0.00531318 0.02226631
v -0.00531190 -0.00708602 0.03133126
v -0.00758082 -0.00452930 0.03171866
v -0.00651359 -0.00448460 0.03608670
v -0.00533201 -0.00683386 0.03488151
v -0.00467443 -0.00441366 0.03731054
v -0.00556681 -0.00207198 -0.03380717
v -0.00658224 0.00035180 -0.03375219
v -0.00367644 0.00004305 -0.03189743
v -0.00516887 -0.00001394 0.00335357
v -0.00780047 0.00116272 0.02091027
v -0.00409308 -0.00071972 0.02321244
v -0.00822661 0.00095713 0.03113673
v -0.00718195 -0.00026839 0.03534544
v -0.00439466 0.00024576 0.03779053
v -0.00443562 0.00265238 -0.03294113
v -0.00590606 0.00498443 -0.03540813
v -0.00529825 0.00507938 0.00326832
v -0.00697481 0.00546784 0.02056738
v -0.00525894 0.00399956 0.02223934
v -0.00721859 0.00526420 0.03049757
v -0.00690543 0.00441466 0.03425595
v -0.00535369 0.00410773 0.03759005
v -0.00570387 0.01057274 -0.03628244
v -0.00469010 0.00948468 0.00314290
v -0.00361978 0.00740512 0.02089913
v -0.00573692 0.00986856 0.01853432
v -0.00590996 0.00907560 0.02861619
v -0.00409206 0.00762326 0.03166785
v -0.00422162 0.00672877 0.03604232
v -0.00516039 0.01506431 -0.03641190
v -0.00790067 0.01459567 0.00543509
v -0.00458751 0.01432726 0.00379842
v -0.00744429 0.01516775 0.00921234
v -0.00581014 0.01479940 0.01311110
v -0.00533778 0.01322034 0.01578127
v -0.00748332 0.01494766 0.02577994
v -0.00522684 0.01342837 0.02736825
v -0.00418395 0.01958478 -0.03593270
v -0.00463848 0.01698574 0.00713400
v -0.00386202 0.01685854 0.01184507
v -0.00773567 0.02028792 0.02018358
v -0.00579017 0.01911708 0.02280420
v -0.00413223 0.01701145 0.02560463
v -0.00532234 0.02204980 -0.03347526
v -0.00516959 0.02247981 -0.02900234
v -0.00511900 0.02233016 -0.02395198
v -0.00512454 0.02229526 -0.01898350
v -0.00512540 0.02229946 -0.01405295
v -0.00512530 0.02230019 -0.00911916
v -0.00512527 0.02230016 -0.00418469
v -0.00512361 0.02229670 0.00074610
v -0.00512917 0.02229664 0.00568170
v -0.00517350 0.02239447 0.01071285
v -0.00504136 0.02250157 0.01584640
v -0.00459405 0.02164501 0.02034444
v 0.00111800 -0.02220853 -0.03340482
v -0.00110844 -0.01968942 -0.03587085
v -0.00019730 -0.02263442 -0.02887810
v -0.00014051 -0.02247463 -0.02376122
v -0.00000900 -0.02241478 -0.01875708
v -0.00000232 -0.02241785 -0.01382489
v -0.00000677 -0.02241965 -0.00889315
v -0.00001008 -0.02241925 -0.00395959
v -0.00000792 -0.02241816 0.00097426
v 0.00006048 -0.02242237 0.00594247
v 0.00019030 -0.02248335 0.01097690
v 0.00024425 -0.02259185 0.01608510
v -0.00090946 -0.02202887 0.02057186
v 0.00144366 -0.02013428 0.02372783
v 0.00015135 -0.01515467 -0.03633443
v -0.00096655 -0.01496160 0.00356834
v 0.00128208 -0.01753390 0.00631262
v -0.00124269 -0.01737477 0.01029123
v 0.00116927 -0.01527351 0.01360424
v -0.00102236 -0.01771482 0.02611851
v -0.00010679 -0.01467237 0.02784805
v 0.00002855 -0.01005201 -0.03623382
v 0.00026550 -0.01036810 0.00312882
v -0.00118477 -0.01268794 0.01610760
v 0.00122113 -0.01029511 0.01849344
v 0.00054196 -0.01107359 0.02818058
v 0.00111312 -0.00561757 -0.03547996
v 0.00020643 -0.00517806 0.00334971
v -0.00119384 -0.00785519 0.02093733
v 0.00072197 -0.00405753 0.02321066
v -0.00284156 -0.00432141 0.03073140
v 0.00007783 -0.00616548 0.02821295
v -0.00357150 -0.00549632 0.03493300
v -0.00128024 -0.00265695 -0.03332818
v 0.00071808 -0.00005208 -0.03135023
v -0.00000352 -0.00007927 0.00342808
v -0.00037019 -0.00262236 0.02575247
v -0.00191180 -0.00034872 0.02630415
v -0.00178915 0.00039099 0.02994947
v -0.00251653 -0.00094265 0.03503021
v -0.00220155 0.00562832 -0.03377587
v -0.00050558 0.00348204 -0.03170751
v -0.00022411 0.00502057 0.00335054
v 0.00031404 0.00198840 0.02616133
v -0.00078526 0.00412004 0.02323008
v 0.00011368 0.00166251 0.03068196
v -0.00023930 0.00188254 0.03544898
v -0.00029859 0.00424447 0.03788952
v 0.00072484 0.00650700 -0.03378319
v -0.00067643 0.00931448 -0.03574435
v -0.00036268 0.01020941 0.00313978
v 0.00120381 0.00773116 0.02090542
v -0.00072873 0.01017556 0.01922285
v -0.00120318 0.01060264 0.02866456
v 0.00117489 0.00824676 0.03121416
v -0.00003466 0.00728133 0.03540505
v -0.00026180 0.01502296 -0.03637083
v 0.00095518 0.01477956 0.00356422
v -0.00278352 0.01550206 0.01540137
v -0.00049530 0.01361990 0.01758684
v 0.00004490 0.01444555 0.02760399
v 0.00081456 0.01957363 -0.03581367
v -0.00013507 0.01735753 0.00618670
v -0.00068431 0.01787344 0.01018065
v 0.00061954 0.01670338 0.01458819
v -0.00105622 0.02007202 0.02349336
v 0.00124794 0.01760809 0.02588182
v -0.00028117 0.02204819 -0.03330544
v -0.00011235 0.02248331 -0.02882693
v -0.00000358 0.02231370 -0.02374935
v -0.00000429 0.02225286 -0.01875795
v -0.00000689 0.02225624 -0.01382593
v -0.00000681 0.02225802 -0.00889316
v -0.00000682 0.02225803 -0.00395855
v -0.00000654 0.02225615 0.00097404
v -0.00000556 0.02225322 0.00590597
v -0.00001320 0.02232051 0.01089997
v 0.00001250 0.02247609 0.01594050
v 0.00006593 0.02197052 0.02037763
v 0.00617451 -0.02230331 -0.03330728
v 0.00392184 -0.01975769 -0.03588523
v 0.00490054 -0.02271571 -0.02876877
v 0.00496679 -0.02252597 -0.02361871
v 0.00510976 -0.02245629 -0.01861286
v 0.00511775 -0.02245903 -0.01368259
v 0.00511191 -0.02246180 -0.00875146
v 0.00510944 -0.02246151 -0.00381746
v 0.00511052 -0.02246076 0.00111734
v 0.00518973 -0.02246935 0.00606832
v 0.00528299 -0.02249497 0.01106488
v 0.00464817 -0.02253024 0.01536419
v 0.00454978 -0.02181915 0.02015162
v 0.00480970 -0.02011403 0.02319490
v 0.00508141 -0.01521519 -0.03637989
v 0.00454061 -0.01452664 0.00382877
v 0.00523964 -0.01700669 0.00673887
v 0.00358998 -0.01707116 0.01032492
v 0.00551783 -0.01495167 0.01276955
v 0.00454031 -0.01769031 0.02515953
v 0.00506232 -0.01372077 0.02758774
v 0.00501494 -0.01005695 -0.03627169
v 0.00462076 -0.00965131 0.00315152
v 0.00462922 -0.01275319 0.01555411
v 0.00637783 -0.00953107 0.01851586
v 0.00519132 -0.00909279 0.02860444
v 0.00627809 -0.00477081 -0.03560489
v 0.00528297 -0.00523878 0.00326815
v 0.00360720 -0.00755163 0.02092508
v 0.00518044 -0.00408974 0.02225071
v 0.00473906 -0.00711652 0.03120328
v 0.00255229 -0.00421690 0.03082830
v 0.00376460 -0.00435163 0.03609490
v 0.00478546 -0.00671772 0.03487469
v 0.00556047 -0.00440882 0.03726247
v 0.00359405 -0.00219971 -0.03332791
v 0.00395480 0.00122573 -0.03190504
v 0.00516064 -0.00014749 0.00335161
v 0.00186249 -0.00062131 0.02653045
v 0.00405132 0.00080314 0.02319958
v 0.00193429 0.00016398 0.03136457
v 0.00235330 -0.00027985 0.03542145
v 0.00471448 0.00053607 0.03777117
v 0.00294670 0.00442361 -0.03295768
v 0.00585089 0.00225232 -0.03376604
v 0.00481010 0.00555469 -0.03528593
v 0.00488800 0.00499272 0.00324312
v 0.00400743 0.00521076 0.02222401
v 0.00402718 0.00541652 0.03761381
v 0.00486478 0.00993138 -0.03621629
v 0.00481978 0.01016827 0.00302475
v 0.00554295 0.00688457 0.02056538
v 0.00441816 0.01031345 0.01858703
v 0.00445335 0.00993364 0.02863587
v 0.00539446 0.00715195 0.03059076
v 0.00447757 0.00690445 0.03431498
v 0.00464624 0.01505399 -0.03634632
v 0.00586985 0.01406602 0.00379316
v 0.00297609 0.01438537 0.01657071
v 0.00664107 0.01283901 0.01529057
v 0.00445616 0.01548937 0.01399362
v 0.00463856 0.01430755 0.02735677
v 0.00584753 0.01961345 -0.03584658
v 0.00399508 0.01679214 0.00553197
v 0.00406261 0.01704462 0.01003221
v 0.00459408 0.01952298 0.02348969
v 0.00529946 0.01672305 0.02548268
v 0.00478355 0.02211617 -0.03327690
v 0.00500607 0.02254325 -0.02869067
v 0.00511616 0.02236423 -0.02353513
v 0.00511528 0.02229444 -0.01852964
v 0.00511167 0.02229739 -0.01359872
v 0.00511167 0.02230015 -0.00866694
v 0.00511171 0.02230021 -0.00373237
v 0.00511182 0.02229942 0.00120131
v 0.00511186 0.02229556 0.00613194
v 0.00510616 0.02233321 0.01110421
v 0.00511327 0.02244930 0.01613968
v 0.00519456 0.02189142 0.02050166
v 0.01003180 -0.02185688 -0.03284684
v 0.00938815 -0.01939952 -0.03570043
v 0.00932845 -0.02218640 -0.02873154
v 0.00938305 -0.02198829 -0.02354817
v 0.00950915 -0.02191926 -0.01852732
v 0.00951657 -0.02192381 -0.01359927
v 0.00951027 -0.02192711 -0.00866858
v 0.00950910 -0.02192698 -0.00373426
v 0.00950649 -0.02192547 0.00120231
v 0.00955189 -0.02193031 0.00614385
v 0.00964789 -0.02195742 0.01107264
v 0.00880532 -0.02180594 0.01627488
v 0.00767942 -0.02010567 0.02102265
v 0.01095223 -0.01977640 0.01805093
v 0.00938876 -0.01455107 -0.03638884
v 0.00781793 -0.01480377 0.00557418
v 0.00742588 -0.01542270 0.00932155
v 0.01005565 -0.01764885 0.02139352
v 0.00768449 -0.01551848 0.02519725
v 0.01139766 -0.01424548 0.02366844
v 0.01005594 -0.01007791 -0.03632062
v 0.00946038 -0.01017723 0.00366863
v 0.01032810 -0.01256685 0.00706466
v 0.00940824 -0.01278544 0.01220648
v 0.00901477 -0.01169558 0.01608350
v 0.01012663 -0.00918834 0.01749731
v 0.00909497 -0.01297100 0.02627826
v 0.01012638 -0.00962329 0.02752464
v 0.01077257 -0.00568415 -0.03627105
v 0.00963686 -0.00459601 0.00313602
v 0.00691506 -0.00567756 0.02059638
v 0.01036019 -0.00453975 0.01859028
v 0.00731918 -0.00498653 0.03125156
v 0.00944021 -0.00519038 0.02865859
v 0.00657962 -0.00554244 0.03482956
v 0.00653819 -0.00066851 -0.03381283
v 0.00939523 -0.00021905 -0.03571949
v 0.01027470 -0.00024895 0.00311499
v 0.00774884 -0.00131379 0.02090113
v 0.01023474 0.00062433 0.01922289
v 0.00827890 0.00000269 0.03125192
v 0.01065238 -0.00012950 0.02869062
v 0.00715298 -0.00129763 0.03538214
v 0.00996996 0.00494455 -0.03620944
v 0.01011991 0.00488921 0.00300453
v 0.00746027 0.00354067 0.02088933
v 0.00994485 0.00564884 0.01853536
v 0.00761806 0.00449385 0.03122212
v 0.00981347 0.00504850 0.02870652
v 0.00680840 0.00380879 0.03538961
v 0.00982869 0.00990823 -0.03629707
v 0.01030433 0.00955106 0.00364969
v 0.00902749 0.01005393 0.01748492
v 0.00978315 0.00991982 0.02783993
v 0.00974881 0.01506171 -0.03643552
v 0.00937259 0.01266897 0.00544039
v 0.00731993 0.01519332 0.00702861
v 0.00698792 0.01477268 0.01126195
v 0.00963972 0.01259627 0.01023114
v 0.01011021 0.01144732 0.01489380
v 0.00784619 0.01403551 0.02617415
v 0.00918176 0.01603664 0.02429762
v 0.01163634 0.01250806 0.02593159
v 0.01071022 0.01897192 -0.03562674
v 0.00988299 0.01936675 0.02265949
v 0.00879260 0.02165767 -0.03391966
v 0.00942515 0.02201971 -0.02991207
v 0.00954614 0.02182701 -0.02472147
v 0.00951486 0.02175793 -0.01968116
v 0.00950935 0.02176216 -0.01475255
v 0.00950996 0.02176545 -0.00982216
v 0.00951003 0.02176550 -0.00488760
v 0.00951012 0.02176527 0.00004674
v 0.00951007 0.02176096 0.00497761
v 0.00950444 0.02177152 0.00992494
v 0.00950230 0.02187470 0.01498232
v 0.00962160 0.02160776 0.01970791
v 0.01260501 -0.01969076 -0.03392673
v 0.01245299 -0.02026107 -0.02993878
v 0.01242800 -0.02007210 -0.02474610
v 0.01250509 -0.01998595 -0.01968074
v 0.01251149 -0.01999140 -0.01475183
v 0.01250597 -0.01999533 -0.00982236
v 0.01250560 -0.01999525 -0.00488784
v 0.01250292 -0.01999373 0.00004836
v 0.01251186 -0.01999382 0.00498813
v 0.01260902 -0.02002791 0.00987477
v 0.01242253 -0.02008329 0.01446600
v 0.01506353 -0.01742448 -0.03243418
v 0.01429284 -0.01505692 -0.03579465
v 0.01486771 -0.01754611 -0.02751834
v 0.01485484 -0.01741679 -0.02240153
v 0.01486235 -0.01740881 -0.01745751
v 0.01485942 -0.01741426 -0.01253072
v 0.01485921 -0.01741437 -0.00759639
v 0.01485847 -0.01741343 -0.00266116
v 0.01485418 -0.01741264 0.00227197
v 0.01489838 -0.01744141 0.00717900
v 0.01503378 -0.01750756 0.01207999
v 0.01433352 -0.01761823 0.01711715
v 0.01395912 -0.01648538 0.02084915
v 0.01501239 -0.01391779 0.02228669
v 0.01444169 -0.00943394 -0.03641435
v 0.01287013 -0.00969104 0.00543903
v 0.01273434 -0.00979134 0.01021289
v 0.01153507 -0.01028305 0.01491814
v 0.01199610 -0.01069788 0.02559855
v 0.01424840 -0.01096864 0.02378599
v 0.01516732 -0.00512098 -0.03639737
v 0.01388455 -0.00566973 0.00370613
v 0.01530879 -0.00755752 0.00700584
v 0.01485076 -0.00703405 0.01118912
v 0.01555583 -0.00441877 0.01395799
v 0.01289220 -0.00672024 0.01525945
v 0.01522009 -0.00801311 0.02515868
v 0.01400758 -0.00449333 0.02749669
v 0.01514673 -0.00018976 -0.03636354
v 0.01480753 -0.00026298 0.00353020
v 0.01444571 -0.00298623 0.01655692
v 0.01367946 0.00045723 0.01761106
v 0.01448716 0.00082032 0.02775230
v 0.01507600 0.00474166 -0.03636692
v 0.01471914 0.00462267 0.00382761
v 0.01328827 0.00528260 0.01582854
v 0.01558203 0.00278197 0.01544607
v 0.01488355 0.00574347 0.01318428
v 0.01448883 0.00585985 0.02783215
v 0.01497716 0.00983360 -0.03646081
v 0.01454177 0.00753901 0.00543726
v 0.01231778 0.01010607 0.00698126
v 0.01262684 0.00928572 0.01217767
v 0.01520929 0.00727491 0.00925482
v 0.01156303 0.00890270 0.01609444
v 0.01414247 0.00965998 0.02739575
v 0.01521069 0.01444794 -0.03579344
v 0.01368398 0.01566481 0.02315791
v 0.01519550 0.01224927 0.02523901
v 0.01423829 0.01750142 -0.03403175
v 0.01217453 0.02008400 -0.03244094
v 0.01495452 0.01737539 -0.03004121
v 0.01258466 0.01991107 -0.02751320
v 0.01491666 0.01725127 -0.02491277
v 0.01252268 0.01982516 -0.02240741
v 0.01485623 0.01724922 -0.01991529
v 0.01250327 0.01982993 -0.01746653
v 0.01485791 0.01725265 -0.01498961
v 0.01250554 0.01983363 -0.01253888
v 0.01485936 0.01725263 -0.01005660
v 0.01250583 0.01983365 -0.00760446
v 0.01485927 0.01725267 -0.00512192
v 0.01250584 0.01983358 -0.00266990
v 0.01485925 0.01725078 -0.00018792
v 0.01250581 0.01983034 0.00226300
v 0.01485737 0.01724912 0.00474692
v 0.01250224 0.01982948 0.00719722
v 0.01485704 0.01731302 0.00969168
v 0.01250382 0.01991275 0.01219995
v 0.01494008 0.01744939 0.01466756
v 0.01261854 0.02001381 0.01723991
v 0.01507853 0.01718504 0.01939682
v 0.01272863 0.01927978 0.02104974
v 0.01769546 -0.01456557 -0.03405499
v 0.01749268 -0.01512087 -0.03014711
v 0.01732479 -0.01499584 -0.02505225
v 0.01732362 -0.01494123 -0.02005149
v 0.01732673 -0.01494576 -0.01512309
v 0.01732662 -0.01494700 -0.01019009
v 0.01732674 -0.01494651 -0.00525510
v 0.01732358 -0.01494509 -0.00032184
v 0.01732466 -0.01496296 0.00459235
v 0.01742558 -0.01501061 0.00954764
v 0.01754876 -0.01457476 0.01524589
v 0.01649133 -0.01509272 0.01970885
v 0.02017556 -0.01251042 -0.03261533
v 0.01877197 -0.01054002 -0.03578058
v 0.01996814 -0.01270788 -0.02782197
v 0.01990037 -0.01259955 -0.02277246
v 0.01990645 -0.01259001 -0.01782943
v 0.01990765 -0.01259334 -0.01289848
v 0.01990771 -0.01259329 -0.00796393
v 0.01990694 -0.01259284 -0.00302977
v 0.01990226 -0.01259804 0.00189829
v 0.01992836 -0.01264406 0.00683694
v 0.01999312 -0.01263103 0.01183807
v 0.01975398 -0.01186192 0.01609411
v 0.01756460 -0.01111304 0.02064367
v 0.02044912 -0.00936367 0.01868292
v 0.01970538 -0.00536974 -0.03593384
v 0.01708190 -0.00386294 0.00614997
v 0.01695377 -0.00463746 0.01053788
v 0.01923364 -0.00719183 0.02214184
v 0.01756563 -0.00508650 0.02527698
v 0.02008595 -0.00360132 0.02327274
v 0.01962197 -0.00044251 -0.03588680
v 0.01738868 0.00102057 0.00625200
v 0.01794817 -0.00094391 0.01009607
v 0.01677816 -0.00067027 0.01460670
v 0.01757507 -0.00144632 0.02601484
v 0.02001772 0.00108120 0.02365875
v 0.01958890 0.00462726 -0.03593239
v 0.01678088 0.00498655 0.00664941
v 0.01709599 0.00340712 0.01120010
v 0.01757773 0.00421648 0.02553121
v 0.01961917 0.00535571 0.02285685
v 0.01959729 0.00946565 -0.03566059
v 0.01826093 0.00970794 0.02149532
v 0.01958165 0.01087794 0.01810626
v 0.02026714 0.00798536 0.02034029
v 0.01675569 0.00944187 0.02539633
v 0.01944854 0.01233463 -0.03398836
v 0.01720121 0.01487737 -0.03247254
v 0.02011493 0.01232222 -0.02995822
v 0.01744850 0.01478490 -0.02752414
v 0.01998813 0.01236231 -0.02475112
v 0.01733434 0.01478459 -0.02240751
v 0.01990024 0.01243519 -0.01968707
v 0.01732130 0.01478840 -0.01746575
v 0.01990373 0.01243736 -0.01475862
v 0.01732657 0.01478530 -0.01253894
v 0.01990770 0.01243181 -0.00982908
v 0.01732675 0.01478515 -0.00760457
v 0.01990765 0.01243153 -0.00489465
v 0.01732663 0.01478449 -0.00267028
v 0.01990721 0.01242898 0.00004027
v 0.01732584 0.01478175 0.00226614
v 0.01990778 0.01243955 0.00498244
v 0.01732563 0.01482198 0.00720826
v 0.01992276 0.01253387 0.00989125
v 0.01735110 0.01492813 0.01209466
v 0.01989727 0.01232725 0.01452353
v 0.01744850 0.01426103 0.01711535
v 0.01671234 0.01372154 0.02178208
v 0.02185994 -0.00897096 -0.03347711
v 0.02198518 -0.00976677 -0.02900201
v 0.02184373 -0.00963859 -0.02395069
v 0.02183564 -0.00959285 -0.01898216
v 0.02183940 -0.00959678 -0.01405156
v 0.02183951 -0.00959766 -0.00911779
v 0.02183918 -0.00959923 -0.00418436
v 0.02183490 -0.00960308 0.00074520
v 0.02184576 -0.00959798 0.00569351
v 0.02192440 -0.00957152 0.01074010
v 0.02170215 -0.00953200 0.01543543
v 0.02211918 -0.00433338 -0.03342911
v 0.02255343 -0.00544250 -0.02896991
v 0.02240462 -0.00529005 -0.02389268
v 0.02236864 -0.00519543 -0.01889971
v 0.02237348 -0.00519690 -0.01396760
v 0.02237422 -0.00519945 -0.00903487
v 0.02237385 -0.00520235 -0.00410162
v 0.02237083 -0.00520450 0.00083013
v 0.02237403 -0.00517043 0.00578677
v 0.02247387 -0.00504415 0.01086065
v 0.02256973 -0.00508664 0.01589920
v 0.02172031 -0.00595058 0.01972558
v 0.02209607 0.00071896 -0.03341231
v 0.02254640 -0.00040802 -0.02887744
v 0.02238658 -0.00020999 -0.02376154
v 0.02232670 -0.00007749 -0.01875728
v 0.02233026 -0.00007639 -0.01382489
v 0.02233205 -0.00008089 -0.00889313
v 0.02233161 -0.00008413 -0.00395958
v 0.02233086 -0.00008160 0.00097351
v 0.02233560 -0.00001146 0.00594101
v 0.02239625 0.00011813 0.01098188
v 0.02249745 0.00011867 0.01610178
v 0.02197790 -0.00114739 0.02050974
v 0.02215366 0.00584170 -0.03333539
v 0.02261667 0.00471350 -0.02877109
v 0.02243916 0.00489743 -0.02361821
v 0.02236872 0.00504198 -0.01861272
v 0.02237144 0.00504374 -0.01368242
v 0.02237420 0.00503774 -0.00875126
v 0.02237386 0.00503538 -0.00381728
v 0.02237377 0.00503684 0.00111648
v 0.02238369 0.00511671 0.00606725
v 0.02240173 0.00519962 0.01108457
v 0.02243022 0.00452908 0.01541631
v 0.02167990 0.00435615 0.02015279
v 0.02167710 0.00977033 -0.03288422
v 0.02207390 0.00919356 -0.02873821
v 0.02190297 0.00931586 -0.02354715
v 0.02183228 0.00944041 -0.01852706
v 0.02183619 0.00944253 -0.01359918
v 0.02183949 0.00943609 -0.00866844
v 0.02183936 0.00943502 -0.00373421
v 0.02183880 0.00943263 0.00120115
v 0.02184584 0.00947912 0.00614239
v 0.02185912 0.00956397 0.01109369
v 0.02166664 0.00868241 0.01633156
f 3 2 1
f 5 4 1
f 5 1 2
f 7 6 4
f 7 4 5
f 9 8 6
f 9 6 7
f 11 10 8
f 11 8 9
f 13 12 10
f 13 10 11
f 15 14 12
f 15 12 13
f 17 16 14
f 17 14 15
f 19 18 16
f 19 16 17
f 21 20 18
f 21 18 19
f 23 22 20
f 23 20 21
f 24 22 23
f 3 1 25
f 3 25 26
f 27 1 4
f 25 1 27
f 28 4 6
f 27 4 28
f 29 6 8
f 28 6 29
f 30 8 10
f 29 8 30
f 31 10 12
f 30 10 31
f 32 12 14
f 31 12 32
f 33 14 16
f 32 14 33
f 34 16 18
f 33 16 34
f 35 18 20
f 34 18 35
f 36 20 22
f 35 20 36
f 22 24 37
f 38 22 37
f 36 22 38
f 39 38 37
f 26 25 40
f 26 40 41
f 42 25 27
f 40 25 42
f 43 27 28
f 42 27 43
f 44 28 29
f 43 28 44
f 45 29 30
f 44 29 45
f 46 30 31
f 45 30 46
f 47 31 32
f 46 31 47
f 48 32 33
f 47 32 48
f 49 33 34
f 48 33 49
f 50 34 35
f 49 34 50
f 51 35 36
f 50 35 51
f 52 36 38
f 51 36 52
f 38 39 53
f 38 53 52
f 41 40 54
f 41 54 55
f 56 40 42
f 54 40 56
f 57 42 43
f 56 42 57
f 58 43 44
f 57 43 58
f 59 44 45
f 58 44 59
f 60 45 46
f 59 45 60
f 61 46 47
f 60 46 61
f 62 47 48
f 61 47 62
f 63 48 49
f 62 48 63
f 64 49 50
f 63 49 64
f 65 50 51
f 64 50 65
f 66 51 52
f 65 51 66
f 52 53 67
f 52 67 66
f 55 54 68
f 55 68 69
f 70 54 56
f 68 54 70
f 71 56 57
f 70 56 71
f 72 57 58
f 71 57 72
f 73 58 59
f 72 58 73
f 74 59 60
f 73 59 74
f 75 60 61
f 74 60 75
f 76 61 62
f 75 61 76
f 77 62 63
f 76 62 77
f 78 63 64
f 77 63 78
f 79 64 65
f 78 64 79
f 66 81 80
f 79 66 80
f 65 66 79
f 81 66 67
f 82 69 68
f 82 68 70
f 82 70 83
f 83 70 71
f 83 71 84
f 84 71 72
f 84 72 85
f 85 72 73
f 85 73 86
f 86 73 74
f 86 74 87
f 87 74 75
f 87 75 88
f 88 75 76
f 88 76 89
f 89 76 77
f 89 77 90
f 90 77 78
f 90 78 91
f 91 78 79
f 91 79 92
f 92 79 80
f 95 94 93
f 97 96 93
f 97 93 94
f 99 98 96
f 99 96 97
f 101 100 98
f 101 98 99
f 103 102 100
f 103 100 101
f 105 104 102
f 105 102 103
f 107 106 104
f 107 104 105
f 109 108 106
f 109 106 107
f 111 110 108
f 111 108 109
f 113 112 110
f 113 110 111
f 115 114 112
f 115 112 113
f 117 116 114
f 117 114 115
f 118 116 117
f 95 93 2
f 3 95 2
f 119 95 3
f 2 93 5
f 5 93 96
f 5 96 7
f 7 96 98
f 7 98 9
f 9 98 100
f 9 100 11
f 11 100 102
f 11 102 13
f 13 102 104
f 13 104 15
f 15 104 106
f 15 106 17
f 17 106 108
f 17 108 19
f 19 108 110
f 19 110 21
f 21 110 112
f 21 112 23
f 23 112 114
f 23 114 24
f 114 120 24
f 114 116 120
f 116 118 121
f 116 121 120
f 26 119 3
f 26 122 119
f 125 124 123
f 127 126 123
f 123 126 125
f 127 128 126
f 120 37 24
f 130 129 39
f 130 39 37
f 121 130 37
f 120 121 37
f 131 129 130
f 41 122 26
f 41 132 122
f 123 124 133
f 133 124 134
f 123 135 127
f 123 133 135
f 128 127 136
f 127 137 136
f 127 135 137
f 137 138 136
f 139 53 129
f 129 53 39
f 129 131 140
f 129 140 139
f 55 132 41
f 55 141 132
f 133 134 142
f 142 134 143
f 133 144 135
f 133 142 144
f 146 137 145
f 137 144 145
f 137 135 144
f 137 146 138
f 147 67 139
f 139 67 53
f 139 140 148
f 139 148 147
f 69 141 55
f 69 149 141
f 143 150 142
f 142 150 144
f 144 150 151
f 144 151 145
f 152 80 81
f 67 147 81
f 147 152 81
f 147 153 152
f 147 148 154
f 147 154 153
f 69 82 155
f 156 69 155
f 149 69 156
f 83 157 82
f 82 157 155
f 84 158 83
f 83 158 157
f 85 159 84
f 84 159 158
f 86 160 85
f 85 160 159
f 87 161 86
f 86 161 160
f 88 162 87
f 87 162 161
f 89 163 88
f 88 163 162
f 90 164 89
f 89 164 163
f 91 165 90
f 90 165 164
f 92 166 91
f 91 166 165
f 80 152 92
f 152 166 92
f 152 167 166
f 153 169 168
f 167 153 168
f 152 153 167
f 169 153 154
f 170 156 155
f 170 155 157
f 170 157 171
f 171 157 158
f 171 158 172
f 172 158 159
f 172 159 173
f 173 159 160
f 173 160 174
f 174 160 161
f 174 161 175
f 175 161 162
f 175 162 176
f 176 162 163
f 176 163 177
f 177 163 164
f 177 164 178
f 178 164 165
f 178 165 179
f 179 165 166
f 179 166 180
f 180 166 167
f 180 167 181
f 181 167 168
f 184 183 182
f 186 185 182
f 186 182 183
f 188 187 185
f 188 185 186
f 190 189 187
f 190 187 188
f 192 191 189
f 192 189 190
f 194 193 191
f 194 191 192
f 196 195 193
f 196 193 194
f 198 197 195
f 198 195 196
f 200 199 197
f 200 197 198
f 202 201 199
f 202 199 200
f 204 203 201
f 204 201 202
f 205 203 204
f 184 182 94
f 95 184 94
f 206 184 95
f 94 182 97
f 97 182 185
f 97 185 99
f 99 185 187
f 99 187 101
f 101 187 189
f 101 189 103
f 103 189 191
f 103 191 105
f 105 191 193
f 105 193 107
f 107 193 195
f 107 195 109
f 109 195 197
f 109 197 111
f 111 197 199
f 111 199 113
f 113 199 201
f 113 201 115
f 115 201 203
f 205 207 203
f 207 115 203
f 207 117 115
f 118 117 207
f 118 207 208
f 119 206 95
f 119 209 206
f 212 211 210
f 214 213 210
f 210 213 212
f 216 215 214
f 214 215 213
f 216 217 215
f 219 121 218
f 121 208 218
f 121 118 208
f 220 219 218
f 122 209 119
f 122 221 209
f 210 211 125
f 211 124 125
f 211 222 124
f 210 125 126
f 210 126 214
f 214 126 128
f 223 214 128
f 216 214 223
f 217 216 224
f 224 216 223
f 219 130 121
f 131 130 219
f 220 131 219
f 225 131 220
f 132 221 122
f 132 226 221
f 222 134 124
f 227 134 222
f 136 223 128
f 136 138 223
f 138 224 223
f 138 228 224
f 225 140 131
f 229 140 225
f 141 226 132
f 141 230 226
f 227 143 134
f 231 143 227
f 145 232 146
f 232 233 146
f 233 138 146
f 233 228 138
f 229 148 140
f 234 148 229
f 149 230 141
f 149 235 230
f 150 143 236
f 143 237 236
f 143 231 237
f 238 151 150
f 238 150 236
f 232 145 151
f 238 232 151
f 239 232 238
f 233 232 240
f 240 232 239
f 234 154 148
f 241 154 234
f 156 235 149
f 156 242 235
f 237 243 236
f 236 243 238
f 238 243 244
f 238 244 239
f 239 244 245
f 239 245 240
f 247 246 169
f 169 246 168
f 169 154 241
f 169 241 247
f 156 170 248
f 249 156 248
f 242 156 249
f 171 250 170
f 170 250 248
f 172 251 171
f 171 251 250
f 173 252 172
f 172 252 251
f 174 253 173
f 173 253 252
f 175 254 174
f 174 254 253
f 176 255 175
f 175 255 254
f 177 256 176
f 176 256 255
f 178 257 177
f 177 257 256
f 179 258 178
f 178 258 257
f 180 259 179
f 179 259 258
f 259 180 260
f 180 261 260
f 180 181 261
f 181 168 246
f 181 246 261
f 262 249 248
f 262 248 250
f 262 250 263
f 263 250 251
f 263 251 264
f 264 251 252
f 264 252 265
f 265 252 253
f 265 253 266
f 266 253 254
f 266 254 267
f 267 254 255
f 267 255 268
f 268 255 256
f 268 256 269
f 269 256 257
f 269 257 270
f 270 257 258
f 270 258 271
f 271 258 259
f 271 259 272
f 272 259 260
f 274 273 183
f 274 183 184
f 183 275 186
f 273 275 183
f 186 276 188
f 275 276 186
f 188 277 190
f 276 277 188
f 190 278 192
f 277 278 190
f 192 279 194
f 278 279 192
f 194 280 196
f 279 280 194
f 196 281 198
f 280 281 196
f 198 282 200
f 281 282 198
f 200 283 202
f 282 283 200
f 202 284 204
f 283 284 202
f 286 285 205
f 204 286 205
f 284 286 204
f 287 285 286
f 206 274 184
f 206 288 274
f 291 290 289
f 293 292 289
f 289 292 291
f 293 294 292
f 285 207 205
f 296 295 208
f 296 208 207
f 287 296 207
f 285 287 207
f 297 295 296
f 209 288 206
f 209 298 288
f 289 290 212
f 290 211 212
f 290 299 211
f 289 212 213
f 289 213 293
f 300 294 293
f 213 300 293
f 215 300 213
f 215 217 300
f 300 217 301
f 295 218 208
f 220 218 295
f 297 220 295
f 302 220 297
f 221 298 209
f 221 303 298
f 299 222 211
f 304 222 299
f 224 306 305
f 301 224 305
f 217 224 301
f 306 307 305
f 309 225 308
f 225 302 308
f 225 220 302
f 311 310 309
f 311 309 308
f 312 310 311
f 226 314 313
f 303 226 313
f 221 226 303
f 314 315 313
f 304 227 222
f 316 227 304
f 228 317 306
f 228 306 224
f 307 306 318
f 318 306 317
f 319 229 309
f 309 229 225
f 320 309 310
f 319 309 320
f 310 312 321
f 310 321 320
f 323 322 314
f 226 323 314
f 230 323 226
f 314 322 315
f 316 231 227
f 324 231 316
f 233 325 317
f 233 317 228
f 318 317 326
f 326 317 325
f 327 234 319
f 319 234 229
f 328 319 320
f 327 319 328
f 320 321 329
f 320 329 328
f 235 323 230
f 235 330 323
f 324 237 231
f 331 237 324
f 333 332 325
f 233 333 325
f 240 333 233
f 325 332 326
f 335 334 327
f 334 234 327
f 334 241 234
f 335 327 328
f 335 328 336
f 336 328 329
f 242 330 235
f 242 337 330
f 243 237 338
f 237 339 338
f 237 331 339
f 340 244 243
f 340 243 338
f 244 340 341
f 342 244 341
f 245 244 342
f 240 245 333
f 333 245 342
f 343 246 247
f 344 343 247
f 241 344 247
f 334 344 241
f 249 337 242
f 249 345 337
f 339 346 338
f 338 346 340
f 340 346 347
f 340 347 341
f 348 260 261
f 349 348 261
f 349 261 246
f 350 349 246
f 343 350 246
f 350 343 344
f 351 345 249
f 351 249 262
f 352 262 263
f 352 351 262
f 353 263 264
f 353 352 263
f 354 264 265
f 354 353 264
f 355 265 266
f 355 354 265
f 356 266 267
f 356 355 266
f 357 267 268
f 357 356 267
f 358 268 269
f 358 357 268
f 359 269 270
f 359 358 269
f 360 270 271
f 360 359 270
f 361 271 272
f 361 360 271
f 272 260 348
f 362 272 348
f 361 272 362
f 362 348 349
f 364 363 273
f 364 273 274
f 273 365 275
f 363 365 273
f 275 366 276
f 365 366 275
f 276 367 277
f 366 367 276
f 277 368 278
f 367 368 277
f 278 369 279
f 368 369 278
f 279 370 280
f 369 370 279
f 280 371 281
f 370 371 280
f 281 372 282
f 371 372 281
f 282 373 283
f 372 373 282
f 283 374 284
f 373 374 283
f 284 375 286
f 374 375 284
f 287 286 375
f 287 375 376
f 288 364 274
f 288 377 364
f 379 378 291
f 291 378 290
f 380 291 292
f 380 379 291
f 292 294 380
f 380 294 381
f 376 382 287
f 287 382 296
f 297 296 382
f 297 382 383
f 298 377 288
f 298 384 377
f 378 299 290
f 385 299 378
f 386 381 294
f 386 294 300
f 300 301 386
f 386 301 387
f 383 302 297
f 388 302 383
f 303 384 298
f 303 389 384
f 385 304 299
f 390 304 385
f 391 387 301
f 391 301 305
f 305 307 391
f 391 307 392
f 308 302 393
f 302 394 393
f 302 388 394
f 395 311 308
f 395 308 393
f 395 312 311
f 396 389 303
f 396 303 313
f 313 315 396
f 396 315 397
f 390 316 304
f 398 316 390
f 318 400 399
f 392 318 399
f 307 318 392
f 399 400 394
f 400 393 394
f 400 401 393
f 393 402 395
f 393 401 402
f 402 321 312
f 402 312 395
f 323 403 322
f 403 404 322
f 404 315 322
f 404 397 315
f 398 324 316
f 405 324 398
f 407 406 400
f 318 407 400
f 326 407 318
f 400 406 401
f 401 406 408
f 401 408 402
f 402 408 409
f 321 402 409
f 410 321 409
f 329 321 410
f 412 411 403
f 323 412 403
f 330 412 323
f 403 411 404
f 405 331 324
f 413 331 405
f 415 414 332
f 415 332 333
f 326 332 407
f 407 332 414
f 417 416 335
f 335 416 334
f 418 335 336
f 418 417 335
f 336 329 410
f 336 410 418
f 337 412 330
f 337 419 412
f 413 339 331
f 420 339 413
f 341 421 342
f 421 422 342
f 422 333 342
f 422 415 333
f 416 344 334
f 423 344 416
f 345 419 337
f 345 424 419
f 420 425 339
f 339 425 346
f 346 426 347
f 425 426 346
f 341 347 421
f 347 427 421
f 347 426 427
f 421 427 422
f 429 428 350
f 350 428 349
f 350 344 423
f 350 423 429
f 430 424 345
f 430 345 351
f 431 351 352
f 431 430 351
f 432 352 353
f 432 431 352
f 433 353 354
f 433 432 353
f 434 354 355
f 434 433 354
f 435 355 356
f 435 434 355
f 436 356 357
f 436 435 356
f 437 357 358
f 437 436 357
f 438 358 359
f 438 437 358
f 439 359 360
f 439 438 359
f 440 360 361
f 440 439 360
f 441 361 362
f 441 440 361
f 362 349 428
f 362 428 441
f 443 442 363
f 443 363 364
f 363 444 365
f 442 444 363
f 365 445 366
f 444 445 365
f 366 446 367
f 445 446 366
f 367 447 368
f 446 447 367
f 368 448 369
f 447 448 368
f 369 449 370
f 448 449 369
f 370 450 371
f 449 450 370
f 371 451 372
f 450 451 371
f 372 452 373
f 451 452 372
f 373 453 374
f 452 453 373
f 374 454 375
f 453 454 374
f 376 375 454
f 376 454 455
f 377 443 364
f 377 456 443
f 458 457 379
f 379 457 378
f 459 379 380
f 459 458 379
f 380 381 459
f 459 381 460
f 455 461 376
f 376 461 382
f 383 382 461
f 383 461 462
f 384 456 377
f 384 463 456
f 457 385 378
f 464 385 457
f 465 460 381
f 465 381 386
f 386 387 465
f 465 387 466
f 462 388 383
f 467 388 462
f 389 463 384
f 389 468 463
f 464 390 385
f 469 390 464
f 470 466 387
f 470 387 391
f 391 392 470
f 470 392 471
f 473 394 472
f 394 467 472
f 394 388 467
f 475 474 473
f 475 473 472
f 476 474 475
f 477 468 389
f 477 389 396
f 396 397 477
f 477 397 478
f 469 398 390
f 479 398 469
f 392 399 480
f 481 392 480
f 471 392 481
f 394 473 399
f 473 480 399
f 473 482 480
f 483 473 474
f 482 473 483
f 474 476 484
f 474 484 483
f 487 486 485
f 486 478 485
f 478 404 485
f 478 397 404
f 479 405 398
f 488 405 479
f 481 480 406
f 407 481 406
f 489 481 407
f 406 480 408
f 408 480 482
f 408 482 409
f 409 482 483
f 410 409 483
f 484 410 483
f 490 410 484
f 487 485 411
f 412 487 411
f 491 487 412
f 411 485 404
f 488 413 405
f 492 413 488
f 494 493 414
f 494 414 415
f 407 414 489
f 489 414 493
f 496 495 417
f 417 495 416
f 497 417 418
f 497 496 417
f 418 410 490
f 418 490 497
f 419 491 412
f 419 498 491
f 492 420 413
f 499 420 492
f 502 501 500
f 501 494 500
f 494 422 500
f 494 415 422
f 495 423 416
f 503 423 495
f 424 498 419
f 424 504 498
f 499 505 420
f 420 505 425
f 425 506 426
f 505 506 425
f 500 427 502
f 427 506 502
f 427 426 506
f 427 500 422
f 508 507 429
f 429 507 428
f 429 423 503
f 429 503 508
f 509 504 424
f 509 424 430
f 510 430 431
f 510 509 430
f 511 431 432
f 511 510 431
f 512 432 433
f 512 511 432
f 513 433 434
f 513 512 433
f 514 434 435
f 514 513 434
f 515 435 436
f 515 514 435
f 516 436 437
f 516 515 436
f 517 437 438
f 517 516 437
f 518 438 439
f 518 517 438
f 519 439 440
f 519 518 439
f 520 440 441
f 520 519 440
f 441 428 507
f 441 507 520
f 522 521 442
f 522 442 443
f 442 523 444
f 521 523 442
f 444 524 445
f 523 524 444
f 445 525 446
f 524 525 445
f 446 526 447
f 525 526 446
f 447 527 448
f 526 527 447
f 448 528 449
f 527 528 448
f 449 529 450
f 528 529 449
f 450 530 451
f 529 530 450
f 451 531 452
f 530 531 451
f 452 532 453
f 531 532 452
f 532 534 533
f 454 532 533
f 453 532 454
f 533 455 454
f 456 522 443
f 456 535 522
f 536 457 458
f 459 537 458
f 458 537 536
f 460 537 459
f 534 538 533
f 538 540 539
f 538 539 461
f 533 538 461
f 455 533 461
f 539 462 461
f 463 535 456
f 463 541 535
f 543 542 536
f 542 457 536
f 542 464 457
f 543 536 537
f 543 537 544
f 544 537 460
f 465 544 460
f 545 544 465
f 465 466 545
f 545 466 546
f 540 547 539
f 462 539 547
f 548 462 547
f 467 462 548
f 468 541 463
f 468 549 541
f 542 469 464
f 550 469 542
f 466 470 551
f 552 466 551
f 546 466 552
f 471 551 470
f 472 467 553
f 467 554 553
f 467 548 554
f 555 475 472
f 555 472 553
f 555 476 475
f 468 477 556
f 557 468 556
f 549 468 557
f 478 556 477
f 550 479 469
f 558 479 550
f 552 551 559
f 552 559 560
f 481 559 471
f 471 559 551
f 553 554 561
f 561 554 562
f 553 563 555
f 553 561 563
f 563 484 476
f 563 476 555
f 557 556 486
f 487 557 486
f 564 557 487
f 486 556 478
f 558 488 479
f 565 488 558
f 560 559 566
f 560 566 567
f 489 566 481
f 481 566 559
f 561 562 568
f 568 562 569
f 561 570 563
f 561 568 570
f 570 490 484
f 570 484 563
f 491 564 487
f 491 571 564
f 565 492 488
f 572 492 565
f 567 566 493
f 494 567 493
f 573 567 494
f 493 566 489
f 568 569 496
f 569 495 496
f 569 574 495
f 568 496 497
f 568 497 570
f 570 497 490
f 498 571 491
f 498 575 571
f 577 499 576
f 499 572 576
f 499 492 572
f 579 578 577
f 579 577 576
f 501 502 578
f 579 501 578
f 580 501 579
f 494 501 573
f 573 501 580
f 583 582 581
f 574 583 581
f 503 574 581
f 495 574 503
f 504 575 498
f 504 584 575
f 577 505 499
f 505 577 506
f 506 577 578
f 506 578 502
f 581 582 508
f 582 507 508
f 582 585 507
f 581 508 503
f 586 584 504
f 586 504 509
f 587 509 510
f 587 586 509
f 588 510 511
f 588 587 510
f 589 511 512
f 589 588 511
f 590 512 513
f 590 589 512
f 591 513 514
f 591 590 513
f 592 514 515
f 592 591 514
f 593 515 516
f 593 592 515
f 594 516 517
f 594 593 516
f 595 517 518
f 595 594 517
f 596 518 519
f 596 595 518
f 597 519 520
f 597 596 519
f 520 507 585
f 520 585 597
f 522 598 521
f 599 523 521
f 599 521 598
f 600 524 523
f 600 523 599
f 601 525 524
f 601 524 600
f 602 526 525
f 602 525 601
f 603 527 526
f 603 526 602
f 604 528 527
f 604 527 603
f 605 529 528
f 605 528 604
f 606 530 529
f 606 529 605
f 607 531 530
f 607 530 606
f 608 532 531
f 608 531 607
f 608 534 532
f 610 609 598
f 522 610 598
f 535 610 522
f 598 609 599
f 599 609 611
f 599 611 600
f 600 611 612
f 600 612 601
f 601 612 613
f 601 613 602
f 602 613 614
f 602 614 603
f 603 614 615
f 603 615 604
f 604 615 616
f 604 616 605
f 605 616 617
f 605 617 606
f 606 617 618
f 606 618 607
f 607 618 619
f 607 619 608
f 608 619 620
f 608 620 534
f 620 538 534
f 620 621 538
f 540 538 621
f 540 621 622
f 541 610 535
f 541 623 610
f 624 542 543
f 544 625 543
f 543 625 624
f 545 626 544
f 544 626 625
f 546 626 545
f 547 540 627
f 540 628 627
f 540 622 628
f 627 548 547
f 549 623 541
f 549 629 623
f 631 630 624
f 630 542 624
f 630 550 542
f 631 624 625
f 631 625 632
f 634 633 632
f 625 634 632
f 626 634 625
f 552 634 546
f 546 634 626
f 628 635 627
f 548 627 635
f 636 548 635
f 554 548 636
f 557 629 549
f 557 637 629
f 630 558 550
f 638 558 630
f 639 633 634
f 634 552 639
f 552 640 639
f 552 560 640
f 636 562 554
f 641 562 636
f 564 637 557
f 564 642 637
f 638 565 558
f 643 565 638
f 646 645 644
f 645 640 644
f 640 567 644
f 640 560 567
f 641 569 562
f 647 569 641
f 571 642 564
f 571 648 642
f 650 572 649
f 572 643 649
f 572 565 643
f 652 651 650
f 652 650 649
f 651 652 646
f 644 651 646
f 653 651 644
f 573 653 567
f 567 653 644
f 647 574 569
f 654 574 647
f 575 648 571
f 575 655 648
f 650 576 572
f 576 650 579
f 579 650 651
f 579 651 580
f 580 651 653
f 580 653 573
f 657 656 583
f 583 656 582
f 583 574 654
f 583 654 657
f 584 659 658
f 655 584 658
f 575 584 655
f 661 660 659
f 659 660 658
f 663 662 661
f 661 662 660
f 665 664 663
f 663 664 662
f 667 666 665
f 665 666 664
f 669 668 667
f 667 668 666
f 671 670 669
f 669 670 668
f 673 672 671
f 671 672 670
f 675 674 673
f 673 674 672
f 677 676 675
f 675 676 674
f 679 678 677
f 677 678 676
f 681 680 679
f 679 680 678
f 656 680 681
f 585 656 681
f 582 656 585
f 586 659 584
f 659 586 587
f 659 587 661
f 661 587 588
f 661 588 663
f 663 588 589
f 663 589 665
f 665 589 590
f 665 590 667
f 667 590 591
f 667 591 669
f 669 591 592
f 669 592 671
f 671 592 593
f 671 593 673
f 673 593 594
f 673 594 675
f 675 594 595
f 675 595 677
f 677 595 596
f 677 596 679
f 679 596 597
f 679 597 681
f 681 597 585
f 610 682 609
f 683 611 609
f 683 609 682
f 684 612 611
f 684 611 683
f 685 613 612
f 685 612 684
f 686 614 613
f 686 613 685
f 687 615 614
f 687 614 686
f 688 616 615
f 688 615 687
f 689 617 616
f 689 616 688
f 690 618 617
f 690 617 689
f 691 619 618
f 691 618 690
f 692 620 619
f 692 619 691
f 693 621 620
f 693 620 692
f 693 622 621
f 695 694 682
f 610 695 682
f 623 695 610
f 682 694 683
f 683 694 696
f 683 696 684
f 684 696 697
f 684 697 685
f 685 697 698
f 685 698 686
f 686 698 699
f 686 699 687
f 687 699 700
f 687 700 688
f 688 700 701
f 688 701 689
f 689 701 702
f 689 702 690
f 690 702 703
f 690 703 691
f 691 703 704
f 691 704 692
f 692 704 705
f 707 706 705
f 706 692 705
f 706 693 692
f 706 628 622
f 706 622 693
f 629 695 623
f 629 708 695
f 709 630 631
f 632 710 631
f 631 710 709
f 633 710 632
f 707 711 706
f 711 713 712
f 711 712 635
f 706 711 635
f 628 706 635
f 712 636 635
f 637 708 629
f 637 714 708
f 715 638 709
f 709 638 630
f 716 709 710
f 715 709 716
f 639 717 633
f 717 710 633
f 717 716 710
f 640 717 639
f 712 713 718
f 718 713 719
f 718 641 636
f 718 636 712
f 642 714 637
f 642 720 714
f 721 643 715
f 715 643 638
f 722 715 716
f 721 715 722
f 646 722 645
f 722 717 645
f 722 716 717
f 645 717 640
f 718 719 723
f 723 719 724
f 723 647 641
f 723 641 718
f 648 720 642
f 648 725 720
f 721 649 643
f 649 721 652
f 652 721 722
f 652 722 646
f 728 727 726
f 728 726 724
f 726 723 724
f 726 729 723
f 729 654 647
f 729 647 723
f 655 731 730
f 725 655 730
f 648 655 725
f 733 732 731
f 731 732 730
f 735 734 733
f 733 734 732
f 737 736 735
f 735 736 734
f 739 738 737
f 737 738 736
f 741 740 739
f 739 740 738
f 743 742 741
f 741 742 740
f 745 744 743
f 743 744 742
f 747 746 745
f 745 746 744
f 749 748 747
f 747 748 746
f 751 750 749
f 749 750 748
f 750 751 727
f 751 726 727
f 751 752 726
f 752 656 657
f 729 752 657
f 726 752 729
f 729 657 654
f 658 731 655
f 731 658 660
f 731 660 733
f 733 660 662
f 733 662 735
f 735 662 664
f 735 664 737
f 737 664 666
f 737 666 739
f 739 666 668
f 739 668 741
f 741 668 670
f 741 670 743
f 743 670 672
f 743 672 745
f 745 672 674
f 745 674 747
f 747 674 676
f 747 676 749
f 749 676 678
f 749 678 751
f 751 678 680
f 751 680 752
f 752 680 656
f 695 753 694
f 754 696 694
f 754 694 753
f 755 697 696
f 755 696 754
f 756 698 697
f 756 697 755
f 757 699 698
f 757 698 756
f 758 700 699
f 758 699 757
f 759 701 700
f 759 700 758
f 760 702 701
f 760 701 759
f 761 703 702
f 761 702 760
f 762 704 703
f 762 703 761
f 763 705 704
f 763 704 762
f 763 707 705
f 708 764 753
f 708 753 695
f 753 765 754
f 753 764 765
f 754 766 755
f 754 765 766
f 755 767 756
f 755 766 767
f 756 768 757
f 756 767 768
f 757 769 758
f 757 768 769
f 758 770 759
f 758 769 770
f 759 771 760
f 759 770 771
f 760 772 761
f 760 771 772
f 761 773 762
f 761 772 773
f 762 774 763
f 762 773 774
f 775 711 707
f 763 775 707
f 774 775 763
f 775 713 711
f 714 776 764
f 714 764 708
f 764 777 765
f 764 776 777
f 765 778 766
f 765 777 778
f 766 779 767
f 766 778 779
f 767 780 768
f 767 779 780
f 768 781 769
f 768 780 781
f 769 782 770
f 769 781 782
f 770 783 771
f 770 782 783
f 771 784 772
f 771 783 784
f 772 785 773
f 772 784 785
f 773 786 774
f 773 785 786
f 774 787 775
f 774 786 787
f 787 719 713
f 787 713 775
f 720 788 776
f 720 776 714
f 776 789 777
f 776 788 789
f 777 790 778
f 777 789 790
f 778 791 779
f 778 790 791
f 779 792 780
f 779 791 792
f 780 793 781
f 780 792 793
f 781 794 782
f 781 793 794
f 782 795 783
f 782 794 795
f 783 796 784
f 783 795 796
f 784 797 785
f 784 796 797
f 785 798 786
f 785 797 798
f 786 799 787
f 786 798 799
f 799 724 719
f 799 719 787
f 725 800 788
f 725 788 720
f 788 801 789
f 788 800 801
f 789 802 790
f 789 801 802
f 790 803 791
f 790 802 803
f 791 804 792
f 791 803 804
f 792 805 793
f 792 804 805
f 793 806 794
f 793 805 806
f 794 807 795
f 794 806 807
f 795 808 796
f 795 807 808
f 796 809 797
f 796 808 809
f 797 810 798
f 797 809 810
f 810 727 728
f 799 810 728
f 798 810 799
f 799 728 724
f 730 800 725
f 800 730 732
f 800 732 801
f 801 732 734
f 801 734 802
f 802 734 736
f 802 736 803
f 803 736 738
f 803 738 804
f 804 738 740
f 804 740 805
f 805 740 742
f 805 742 806
f 806 742 744
f 806 744 807
f 807 744 746
f 807 746 808
f 808 746 748
f 808 748 809
f 809 748 750
f 809 750 810
f 810 750 727

