# https://github.com/mikedh/trimesh
v -0.02507596 -0.00031313 -0.00601078
v -0.02367081 -0.00154375 -0.00723353
v -0.02366811 0.00066334 -0.00840728
v -0.02535873 0.00004387 -0.00227533
v -0.02404055 -0.00220890 -0.00321910
v -0.02505647 0.00044418 0.00141440
v -0.02402165 -0.00185308 0.00122284
v -0.02360822 -0.00051561 0.00378386
v -0.02479095 -0.00002333 0.01130406
v -0.02372275 -0.00128373 0.01067699
v -0.02374645 0.00066188 0.00999734
v -0.02378872 -0.00062441 0.01266341
v -0.02403843 0.00198598 -0.00579111
v -0.02402116 0.00231108 -0.00138282
v -0.02360757 0.00165613 0.00257074
v -0.02381242 0.00132119 0.01198376
v -0.02107130 -0.01282179 -0.01087869
v -0.01956676 -0.01569869 -0.01116532
v -0.01954699 -0.01375681 -0.01382679
v -0.02118640 -0.01318075 -0.00597135
v -0.01955566 -0.01607438 -0.00806041
v -0.02119042 -0.01310118 -0.00142238
v -0.01954961 -0.01599018 -0.00357019
v -0.02126191 -0.01311700 0.00305967
v -0.01956893 -0.01590928 0.00088829
v -0.02141998 -0.01313737 0.00759433
v -0.01966615 -0.01592840 0.00541103
v -0.02125176 -0.01251587 0.01189068
v -0.01891685 -0.01589167 0.01070862
v -0.01909419 -0.01383821 0.01367986
v -0.02109001 -0.00930587 -0.01480370
v -0.01956023 -0.01136189 -0.01618569
v -0.01935383 -0.00825676 -0.01794350
v -0.02167955 -0.00840578 -0.01091651
v -0.02162240 -0.00909742 -0.00688745
v -0.02159349 -0.00908055 -0.00229922
v -0.02157916 -0.00907626 0.00212918
v -0.02171611 -0.00917781 0.00665849
v -0.02192507 -0.00908584 0.01121945
v -0.01898578 -0.01173199 0.01592322
v -0.02115099 -0.00878878 0.01520557
v -0.01902782 -0.00902918 0.01810433
v -0.02121085 -0.00451178 -0.01559271
v -0.01956544 -0.00335648 -0.01841191
v -0.02169086 -0.00515933 -0.01220747
v -0.02211266 -0.00448190 -0.00731582
v -0.02214991 -0.00501616 -0.00208468
v -0.02199785 -0.00423470 0.00263541
v -0.02150813 -0.00518722 0.00612097
v -0.02211070 -0.00392432 0.01113281
v -0.02128190 -0.00449365 0.01534622
v -0.01958175 -0.00557279 0.01822143
v -0.02119142 -0.00004694 -0.01548818
v -0.01952635 0.00108232 -0.01835007
v -0.02205946 -0.00058291 -0.01096542
v -0.02221524 0.00004178 0.00681944
v -0.02179781 0.00067834 0.01495080
v -0.01952003 -0.00109159 0.01825194
v -0.02128285 0.00455199 -0.01537105
v -0.01958332 0.00560933 -0.01828478
v -0.02172038 0.00454053 -0.01137855
v -0.02209094 0.00436508 -0.00723666
v -0.02213954 0.00510516 -0.00250375
v -0.02200337 0.00461479 0.00260639
v -0.02155920 0.00527460 0.00741715
v -0.02217188 0.00404587 0.01154744
v -0.02121782 0.00525857 0.01590261
v -0.01958953 0.00344988 0.01824632
v -0.02110582 0.00891036 -0.01528659
v -0.01960116 0.00874552 -0.01784204
v -0.02189573 0.00920837 -0.01117573
v -0.02173630 0.00924851 -0.00667826
v -0.02159466 0.00917762 -0.00222941
v -0.02159368 0.00918036 0.00224222
v -0.02164173 0.00920362 0.00682124
v -0.02176367 0.00853130 0.01071162
v -0.02123443 0.00936294 0.01451672
v -0.01887015 0.00864969 0.01816241
v -0.01914119 0.01144125 -0.01633071
v -0.01963360 0.01381128 -0.01342076
v -0.02115772 0.01274743 -0.01193729
v -0.02137409 0.01328868 -0.00758004
v -0.02123080 0.01323478 -0.00306445
v -0.02117558 0.01317898 0.00135776
v -0.02125856 0.01320240 0.00587410
v -0.02118150 0.01281909 0.01075556
v -0.01892483 0.01388995 0.01407467
v -0.01902364 0.01164202 0.01611997
v -0.01908020 0.01564590 -0.01090552
v -0.01965335 0.01606910 -0.00552742
v -0.01955847 0.01600500 -0.00106983
v -0.01958387 0.01601212 0.00341838
v -0.01962804 0.01605385 0.00794208
v -0.01900333 0.01602569 0.01141422
v -0.01727186 -0.01750644 -0.01090190
v -0.01364626 -0.01974386 -0.01135215
v -0.01526516 -0.01763589 -0.01374584
v -0.01726067 -0.01821525 -0.00573626
v -0.01444573 -0.01982356 -0.00665498
v -0.01723027 -0.01811189 -0.00127879
v -0.01435144 -0.01972653 -0.00222754
v -0.01730126 -0.01810462 0.00319104
v -0.01435489 -0.01969201 0.00219504
v -0.01736713 -0.01814038 0.00772901
v -0.01441135 -0.01976513 0.00675446
v -0.01696019 -0.01817977 0.01088197
v -0.01447095 -0.01955378 0.01108230
v -0.01501529 -0.01813440 0.01362604
v -0.01725164 -0.01361161 -0.01597763
v -0.01493763 -0.01590973 -0.01577616
v -0.01496682 -0.01347917 -0.01815321
v -0.01731441 -0.01352517 0.01571315
v -0.01491616 -0.01582466 0.01582424
v -0.01491885 -0.01355497 0.01813011
v -0.01680605 -0.00959215 -0.01985075
v -0.01441908 -0.01132433 -0.02095311
v -0.01450302 -0.00843164 -0.02223700
v -0.01508298 -0.01066224 -0.01161252
v -0.01622672 -0.00810279 -0.01054457
v -0.01482915 -0.00857876 -0.01336766
v -0.01470817 -0.00976898 -0.00963595
v -0.01656661 -0.00822246 -0.00177374
v -0.01525360 -0.00839841 -0.00500709
v -0.01463142 -0.01076502 -0.00274531
v -0.01497357 -0.01110928 0.00073911
v -0.01646735 -0.00803094 0.00288828
v -0.01463907 -0.00967935 0.00403194
v -0.01640406 -0.00764333 0.01109118
v -0.01540986 -0.00835176 0.00875510
v -0.01480936 -0.01034096 0.01081500
v -0.01406684 -0.00991558 0.01282078
v -0.01700629 -0.00768612 0.02058563
v -0.01602818 -0.01107215 0.01970580
v -0.01377698 -0.00985311 0.02218235
v -0.01734270 -0.00535289 -0.02072248
v -0.01419067 -0.00450128 -0.02211553
v -0.01680955 -0.00469915 -0.01098605
v -0.01498385 -0.00363556 -0.01370718
v -0.01527559 -0.00770612 -0.00766460
v -0.01688596 -0.00515500 -0.00640337
v -0.01728764 -0.00401296 -0.00181234
v -0.01735116 -0.00464568 0.00216398
v -0.01529307 -0.00769907 0.00607142
v -0.01701713 -0.00504152 0.00735180
v -0.01686015 -0.00374402 0.01122557
v -0.01445259 -0.00555262 0.01343469
v -0.01726077 -0.00342415 0.02064270
v -0.01443758 -0.00495453 0.02206771
v -0.01725552 -0.00097093 -0.02073392
v -0.01485922 0.00015704 -0.02189918
v -0.01688685 -0.00008878 -0.01084047
v -0.01502507 0.00093717 -0.01353994
v -0.01740529 0.00000273 -0.00688407
v -0.01731809 0.00006211 -0.00228452
v -0.01731893 0.00002122 0.00222440
v -0.01742476 0.00006947 0.00680841
v -0.01692277 0.00015392 0.01075156
v -0.01504480 -0.00086027 0.01346513
v -0.01726239 0.00100451 0.02061873
v -0.01487197 -0.00007487 0.02179599
v -0.01723498 0.00345315 -0.02073667
v -0.01441292 0.00498055 -0.02218357
v -0.01685753 0.00382388 -0.01128192
v -0.01445421 0.00563373 -0.01349008
v -0.01701603 0.00512334 -0.00740613
v -0.01735154 0.00472922 -0.00221942
v -0.01728820 0.00409681 0.00175341
v -0.01692794 0.00521132 0.00632346
v -0.01688869 0.00474537 0.01083035
v -0.01504705 0.00373395 0.01352405
v -0.01736776 0.00548489 0.02054672
v -0.01416682 0.00467731 0.02199619
v -0.01722296 0.00815758 -0.02024044
v -0.01374196 0.00980078 -0.02234734
v -0.01640269 0.00772653 -0.01114552
v -0.01412463 0.00998829 -0.01289930
v -0.01540702 0.00843492 -0.00881099
v -0.01529118 0.00778229 -0.00612753
v -0.01646532 0.00811499 -0.00294490
v -0.01463713 0.00976315 -0.00415805
v -0.01656488 0.00830706 0.00171845
v -0.01526582 0.00846044 0.00497781
v -0.01536134 0.00769443 0.00763110
v -0.01631502 0.00809429 0.01043781
v -0.01476538 0.00972073 0.00956962
v -0.01425663 0.00895228 0.01358668
v -0.01703672 0.00861528 0.02049678
v -0.01446625 0.00875685 0.02205939
v -0.01564925 0.01160925 -0.01960300
v -0.01722232 0.01371768 -0.01582147
v -0.01483246 0.01355741 -0.01832391
v -0.01482708 0.01041858 -0.01088646
v -0.01497128 0.01119266 -0.00090345
v -0.01463501 0.01083186 0.00264661
v -0.01450901 0.01119978 0.01176007
v -0.01725485 0.01359279 0.01579477
v -0.01491484 0.01364038 0.01808802
v -0.01503122 0.01135101 0.02046049
v -0.01495110 0.01592250 -0.01594078
v -0.01676218 0.01795054 -0.01161723
v -0.01449024 0.01852705 -0.01394674
v -0.01740488 0.01823751 -0.00783207
v -0.01730252 0.01820970 -0.00340748
v -0.01723910 0.01817000 0.00104415
v -0.01732079 0.01822351 0.00558529
v -0.01707243 0.01827147 0.00987594
v -0.01604038 0.01750016 0.01324708
v -0.01489916 0.01594248 0.01576173
v -0.01419725 0.01972987 -0.01059234
v -0.01445519 0.01980552 -0.00575884
v -0.01433768 0.01976192 -0.00129112
v -0.01440812 0.01977421 0.00320200
v -0.01447042 0.01986948 0.00771299
v -0.01388018 0.01970146 0.01200536
v -0.01317731 -0.01744457 -0.01591217
v -0.00998446 -0.01973969 -0.01599724
v -0.01073299 -0.01753116 -0.01842326
v -0.00980983 -0.02084792 -0.01203575
v -0.01109607 -0.02083330 -0.00776728
v -0.01097832 -0.02075103 -0.00335904
v -0.01089217 -0.02071818 0.00109273
v -0.01094860 -0.02078487 0.00560563
v -0.01045524 -0.02075722 0.01082870
v -0.01257633 -0.01809151 0.01600514
v -0.01116443 -0.01954030 0.01489691
v -0.00951717 -0.01786471 0.01777729
v -0.01243347 -0.01453331 -0.01970657
v -0.00970023 -0.01620898 -0.02090001
v -0.01060727 -0.01292492 -0.02233653
v -0.00939729 -0.01524989 -0.01085049
v -0.01283393 -0.01257472 -0.01096556
v -0.01058966 -0.01313263 -0.01355577
v -0.01011634 -0.01551256 -0.00696176
v -0.01217906 -0.01375713 -0.00633395
v -0.01005251 -0.01546189 -0.00248059
v -0.01275696 -0.01326256 -0.00199403
v -0.00999017 -0.01543978 0.00208485
v -0.01271777 -0.01302624 0.00326567
v -0.00989321 -0.01556683 0.00671600
v -0.01206104 -0.01378062 0.00746442
v -0.01044127 -0.01514011 0.01038959
v -0.01278420 -0.01268204 0.01089762
v -0.01022710 -0.01321566 0.01281715
v -0.01279394 -0.01299192 0.02093681
v -0.01096789 -0.01529688 0.01972914
v -0.00994363 -0.01303664 0.02217013
v -0.01012421 -0.00923443 -0.02228908
v -0.00900595 -0.01104182 -0.01652049
v -0.01218472 -0.00942831 -0.01571648
v -0.01056105 -0.00834078 -0.01854120
v -0.01361660 -0.01048247 -0.00649697
v -0.01363107 -0.01044834 0.00726741
v -0.01027072 -0.00944142 0.01408951
v -0.01074548 -0.00871854 0.02223709
v -0.01090923 -0.00691602 -0.02097663
v -0.01252606 -0.00424302 -0.01958233
v -0.01322894 -0.00537609 -0.01600017
v -0.01106428 -0.00651007 0.01557821
v -0.01259437 -0.00336969 0.01668293
v -0.01032323 -0.00675223 0.01900844
v -0.01224545 -0.00466777 0.02056990
v -0.01305408 0.00107692 -0.02010585
v -0.01308290 -0.00117315 -0.01647881
v -0.01311674 0.00130209 0.01633793
v -0.01305963 -0.00097883 0.02001538
v -0.01223992 0.00473524 -0.02064342
v -0.01259334 0.00345394 -0.01674000
v -0.01327708 0.00548122 0.01576869
v -0.01252253 0.00438667 0.01943427
v -0.01032103 0.00683844 -0.01906759
v -0.01072643 0.00874198 -0.02237445
v -0.01106511 0.00659372 -0.01563316
v -0.01034295 0.00951742 -0.01416697
v -0.01365821 0.01052188 -0.00742360
v -0.01364299 0.01048656 0.00636344
v -0.01222099 0.00834612 0.01638808
v -0.01051245 0.00852127 0.01841815
v -0.01083907 0.00711347 0.02088534
v -0.01002521 0.00945510 0.02222790
v -0.01303715 0.01328818 -0.02046294
v -0.00996786 0.01298665 -0.02233124
v -0.01288519 0.01273277 -0.01106180
v -0.01039612 0.01324485 -0.01297747
v -0.01216341 0.01381121 -0.00775218
v -0.01275576 0.01308801 -0.00357623
v -0.01277038 0.01331648 0.00168403
v -0.01217571 0.01378434 0.00601445
v -0.01257237 0.01313593 0.00996883
v -0.01133260 0.01314530 0.01299467
v -0.00948964 0.01109896 0.01616490
v -0.01257739 0.01379872 0.02048433
v -0.01052320 0.01323964 0.02222775
v -0.01077756 0.01584935 -0.01956925
v -0.01234760 0.01787197 -0.01659081
v -0.00892785 0.01813015 -0.01796314
v -0.01009082 0.01530762 -0.01030000
v -0.01003862 0.01556167 -0.00600812
v -0.01003835 0.01548792 -0.00147035
v -0.01006136 0.01554032 0.00310750
v -0.00998356 0.01558238 0.00774172
v -0.00955741 0.01521225 0.01122393
v -0.01289112 0.01859165 0.01512477
v -0.01128859 0.01755057 0.01781987
v -0.01023631 0.01610680 0.02052254
v -0.01129452 0.01960850 -0.01479476
v -0.01007203 0.02089429 -0.01126093
v -0.01102976 0.02086549 -0.00676464
v -0.01092286 0.02080710 -0.00225969
v -0.01091215 0.02080001 0.00221749
v -0.01102499 0.02085477 0.00667572
v -0.01026870 0.02084307 0.01147899
v -0.00986273 0.01989394 0.01607718
v -0.00815835 -0.02248797 -0.01003334
v -0.00479565 -0.02417413 -0.01176517
v -0.00681948 -0.02220668 -0.01337458
v -0.00830927 -0.02249863 -0.00579423
v -0.00558233 -0.02433166 -0.00696374
v -0.00816123 -0.02247207 -0.00131942
v -0.00549995 -0.02431942 -0.00248841
v -0.00817220 -0.02250531 0.00320397
v -0.00537964 -0.02431795 0.00204032
v -0.00820935 -0.02255649 0.00777624
v -0.00535365 -0.02439214 0.00667617
v -0.00757124 -0.02229186 0.01167657
v -0.00538092 -0.02411944 0.01104065
v -0.00526154 -0.02296269 0.01406345
v -0.00838849 -0.01853966 -0.01985513
v -0.00555936 -0.01973595 -0.02003544
v -0.00659814 -0.01709153 -0.02219667
v -0.00577103 -0.02108811 -0.01645452
v -0.00614310 -0.02069435 0.01598092
v -0.00530364 -0.01844026 0.01892492
v -0.00533694 -0.01341161 -0.02259254
v -0.00740963 -0.01366722 -0.01384584
v -0.00502667 -0.01548178 -0.01166395
v -0.00615911 -0.01597457 -0.00690454
v -0.00612180 -0.01591794 -0.00237840
v -0.00598679 -0.01590053 0.00215000
v -0.00584162 -0.01604601 0.00678440
v -0.00630583 -0.01566168 0.01136278
v -0.00614978 -0.01334969 0.01404085
v -0.00695404 -0.01612020 0.02058621
v -0.00575168 -0.01350283 0.02214837
v -0.00653280 -0.01079815 -0.01998571
v -0.00900697 -0.00918685 -0.01985366
v -0.00506524 -0.01190241 -0.01697782
v -0.00589814 -0.01105941 0.01622823
v -0.00836857 -0.00873769 0.01697641
v -0.00530756 -0.01105270 0.01988407
v -0.00805738 -0.00943536 0.02045553
v -0.00801563 0.00954551 -0.02053697
v -0.00834635 0.00883976 -0.01703649
v -0.00890994 0.00941861 0.01979385
v -0.00523528 0.01112082 -0.01995511
v -0.00569111 0.01350986 -0.02227463
v -0.00591789 0.01114731 -0.01631219
v -0.00634739 0.01339097 -0.01417564
v -0.00484428 0.01208636 0.01691503
v -0.00717459 0.01385468 0.01373338
v -0.00642156 0.01097909 0.01995585
v -0.00570756 0.01299368 0.02244370
v -0.00694480 0.01613748 -0.02067066
v -0.00603033 0.01814405 -0.01871927
v -0.00564169 0.01562970 -0.01158180
v -0.00608918 0.01606386 -0.00709772
v -0.00603640 0.01599964 -0.00252848
v -0.00601770 0.01598148 0.00198136
v -0.00602468 0.01608007 0.00663501
v -0.00566360 0.01566740 0.01149554
v -0.00832185 0.01871673 0.01987059
v -0.00598123 0.01692848 0.02229350
v -0.00641959 0.02043387 -0.01612973
v -0.00770407 0.02237728 -0.01168100
v -0.00548752 0.02305850 -0.01409585
v -0.00834801 0.02262393 -0.00786515
v -0.00825735 0.02258225 -0.00336443
v -0.00815664 0.02255650 0.00111961
v -0.00822999 0.02258424 0.00560246
v -0.00802330 0.02260557 0.00986432
v -0.00666792 0.02234021 0.01322007
v -0.00567527 0.02117534 0.01636749
v -0.00553104 0.01980906 0.02005153
v -0.00522078 0.02431901 -0.01068180
v -0.00556924 0.02442759 -0.00572918
v -0.00547005 0.02439883 -0.00123358
v -0.00545982 0.02438285 0.00325154
v -0.00547450 0.02444293 0.00784317
v -0.00492330 0.02419187 0.01217727
v -0.00423576 -0.02291822 -0.01550526
v -0.00084135 -0.02427911 -0.01524300
v -0.00185733 -0.02238258 -0.01778699
v -0.00085951 -0.02503930 -0.01088466
v -0.00155301 -0.02496365 -0.00686689
v -0.00153265 -0.02494218 -0.00229879
v -0.00136672 -0.02498632 0.00214158
v -0.00128175 -0.02504361 0.00673279
v -0.00196750 -0.02501450 0.01071883
v -0.00356601 -0.02261972 0.01612398
v -0.00173407 -0.02400969 0.01465072
v -0.00124571 -0.02205865 0.01724110
v -0.00091417 -0.02049143 -0.02022401
v -0.00236010 -0.01764182 -0.02254257
v -0.00372485 -0.01751027 0.02094195
v -0.00143038 -0.01992401 0.01941839
v -0.00093816 -0.01758531 0.02214669
v -0.00020537 -0.01398640 -0.02254243
v -0.00407624 -0.01382828 -0.01531938
v -0.00167178 -0.01304464 -0.01769393
v -0.00076623 -0.01518259 -0.01518433
v -0.00090230 -0.01596098 -0.01092319
v -0.00155134 -0.01588546 -0.00689691
v -0.00145654 -0.01583543 -0.00229679
v -0.00128592 -0.01580608 0.00224684
v -0.00114335 -0.01589938 0.00684858
v -0.00115169 -0.01601839 0.01147549
v -0.00205212 -0.01515074 0.01491537
v -0.00330542 -0.01316814 0.01647007
v -0.00005722 -0.01346391 0.01805092
v -0.00134997 -0.01398279 0.02243246
v -0.00171538 -0.01195233 -0.02019934
v -0.00167172 -0.01201303 0.01982933
v -0.00166177 0.01209529 -0.01989793
v -0.00192891 0.01348063 -0.02240629
v -0.00344188 0.01323515 -0.01655910
v -0.00019780 0.01355843 -0.01808219
v -0.00378339 0.01397597 0.01517734
v -0.00141697 0.01316019 0.01761138
v -0.00155478 0.01206191 0.02013465
v -0.00115825 0.01406278 0.02248815
v -0.00396783 0.01790393 -0.02040027
v -0.00053121 0.01719892 -0.02240455
v -0.00172074 0.01534863 -0.01464932
v -0.00076006 0.01609657 -0.01077689
v -0.00141998 0.01599728 -0.00689335
v -0.00139092 0.01591713 -0.00230554
v -0.00130008 0.01588796 0.00223978
v -0.00130966 0.01598147 0.00680992
v -0.00122797 0.01606843 0.01140635
v -0.00087757 0.01512565 0.01542781
v -0.00129394 0.01765236 0.02249350
v -0.00132067 0.02044931 -0.01930377
v -0.00341513 0.02241482 -0.01676547
v -0.00082387 0.02237202 -0.01742496
v -0.00400304 0.02304416 0.01529325
v -0.00165545 0.02250660 0.01760747
v -0.00083283 0.02053055 0.02017572
v -0.00197774 0.02410101 -0.01467002
v -0.00084369 0.02511436 -0.01073338
v -0.00146879 0.02509150 -0.00681457
v -0.00149863 0.02502465 -0.00233494
v -0.00142511 0.02503345 0.00217878
v -0.00140996 0.02509292 0.00678687
v -0.00136697 0.02513541 0.01139609
v -0.00106747 0.02430926 0.01541786
v 0.00394432 -0.02419525 -0.01501326
v 0.00286177 -0.02210024 -0.01798036
v 0.00317824 -0.02504488 -0.01139604
v 0.00244117 -0.02500851 -0.00737455
v 0.00306164 -0.02438597 -0.00256067
v 0.00342709 -0.02441533 0.00260505
v 0.00336471 -0.02499732 0.00691900
v 0.00222359 -0.02453157 0.01168507
v 0.00145269 -0.02294080 0.01540392
v 0.00474839 -0.02265179 0.01394514
v 0.00336595 -0.01982478 -0.02029979
v 0.00241769 -0.01720160 -0.02231915
v 0.00251304 -0.02118315 0.01704789
v 0.00292494 -0.01960775 0.01998531
v 0.00335079 -0.01668869 0.02232700
v 0.00373943 -0.01338383 -0.02230635
v 0.00180454 -0.01343528 -0.01811750
v 0.00395629 -0.01517219 -0.01502411
v 0.00309655 -0.01604929 -0.01147729
v 0.00310678 -0.01595747 -0.00680159
v 0.00323621 -0.01585435 -0.00217664
v 0.00339556 -0.01585118 0.00233745
v 0.00349786 -0.01587195 0.00688561
v 0.00287179 -0.01593096 0.01087344
v 0.00265780 -0.01519704 0.01516109
v 0.00347319 -0.01314463 0.01776015
v 0.00236789 -0.01338555 0.02238860
v 0.00338029 -0.01200794 -0.01991713
v 0.00345181 -0.01199751 0.02026724
v 0.00340706 0.01212296 -0.02028656
v 0.00201056 0.01405600 -0.02258582
v 0.00328771 0.01328559 -0.01771817
v 0.00364307 0.01199968 0.01983222
v 0.00212890 0.01347512 0.01800477
v 0.00325122 0.01394019 0.02242653
v 0.00386580 0.01707500 -0.02226088
v 0.00276584 0.01523098 -0.01550182
v 0.00319137 0.01611349 -0.01142083
v 0.00328264 0.01604028 -0.00674794
v 0.00326603 0.01593294 -0.00210959
v 0.00335327 0.01592580 0.00242668
v 0.00337597 0.01598679 0.00696888
v 0.00274511 0.01607753 0.01087427
v 0.00367868 0.01532761 0.01459764
v 0.00292355 0.01759626 0.02215549
v 0.00284541 0.01963652 -0.02009140
v 0.00231278 0.02125412 -0.01710814
v 0.00117350 0.02302981 -0.01537755
v 0.00458282 0.02274332 -0.01390995
v 0.00230715 0.02233043 0.01829700
v 0.00279837 0.02011740 0.02061103
v 0.00298498 0.02460757 -0.01159856
v 0.00261823 0.02511743 -0.00746599
v 0.00338120 0.02449731 -0.00339392
v 0.00312012 0.02447668 0.00177473
v 0.00329666 0.02504677 0.00678236
v 0.00270500 0.02514799 0.01073650
v 0.00351053 0.02444027 0.01460030
v 0.00539271 -0.02269511 -0.01610247
v 0.00714483 -0.02300817 -0.01401101
v 0.00730258 -0.02418018 -0.01106866
v 0.00636871 -0.02422237 -0.00646121
v 0.00591634 -0.02276373 -0.00245257
v 0.00825316 -0.02221022 -0.00476415
v 0.00555280 -0.02242131 0.00102575
v 0.00704823 -0.02277417 0.00435448
v 0.00738720 -0.02410368 0.00719077
v 0.00668962 -0.02415187 0.01085323
v 0.00831305 -0.02234322 0.01293070
v 0.00559816 -0.01754037 -0.02092739
v 0.00678660 -0.01898153 -0.01883825
v 0.00847327 -0.02076389 -0.01554774
v 0.00842669 -0.02083445 -0.00161766
v 0.00863827 -0.02090105 0.00308326
v 0.00721945 -0.02036856 0.01608006
v 0.00574726 -0.01844026 0.01985751
v 0.00907006 -0.01812173 0.01841770
v 0.00889861 -0.01613787 -0.02058434
v 0.00754895 -0.01348048 -0.02215481
v 0.00511687 -0.01322011 -0.01667119
v 0.00819970 -0.01319017 -0.01361862
v 0.00720660 -0.01525727 -0.01114156
v 0.00721674 -0.01545289 -0.00678770
v 0.00729213 -0.01536256 -0.00209539
v 0.00737663 -0.01537005 0.00239534
v 0.00748660 -0.01538156 0.00686403
v 0.00666044 -0.01522690 0.01168913
v 0.00588857 -0.01387563 0.01544034
v 0.00795499 -0.01360480 0.01369127
v 0.00730773 -0.01649486 0.02095266
v 0.00755724 -0.01341824 0.02225586
v 0.00702088 -0.01107689 -0.01999773
v 0.00766018 -0.01114239 -0.01644315
v 0.00764121 -0.01151053 0.01633788
v 0.00778271 -0.01076421 0.02073169
v 0.00774894 0.01088545 -0.02071545
v 0.00751967 0.01355100 -0.02225910
v 0.00566824 0.01404256 -0.01535199
v 0.00768733 0.01127805 -0.01650788
v 0.00842076 0.01340567 -0.01328436
v 0.00544794 0.01318986 0.01650652
v 0.00730095 0.01141432 0.01671305
v 0.00769778 0.01337502 0.01402651
v 0.00725118 0.01099469 0.01994504
v 0.00769969 0.01338073 0.02216202
v 0.00720261 0.01659849 -0.02096672
v 0.00561742 0.01853266 -0.01992047
v 0.00896339 0.01822505 -0.01847393
v 0.00674563 0.01529686 -0.01219457
v 0.00735289 0.01552700 -0.00780252
v 0.00733224 0.01544339 -0.00316460
v 0.00732860 0.01543649 0.00136669
v 0.00737286 0.01552217 0.00588851
v 0.00702078 0.01540503 0.01070700
v 0.00891203 0.01609126 0.02055236
v 0.00536698 0.01861227 0.02011664
v 0.00759038 0.01882141 0.01816376
v 0.00707199 0.02044100 -0.01616396
v 0.00822079 0.02243689 -0.01292887
v 0.00554654 0.02250203 -0.00086720
v 0.00706859 0.02286171 -0.00419276
v 0.00896089 0.02090406 -0.00243903
v 0.00802107 0.02098416 0.00200119
v 0.00589049 0.02284745 0.00260259
v 0.00832192 0.02226152 0.00484593
v 0.00569725 0.02170988 0.01676305
v 0.00723669 0.02312050 0.01397891
v 0.00902915 0.02071740 0.01509545
v 0.00697722 0.02408520 -0.01127341
v 0.00693243 0.02432214 -0.00747149
v 0.00674326 0.02414791 0.00603972
v 0.00701674 0.02439479 0.01074941
v 0.00948076 -0.02234189 -0.01163529
v 0.00976948 -0.02260739 -0.00805196
v 0.00948188 -0.02219486 0.00661020
v 0.00996890 -0.02263299 0.01006737
v 0.01228891 -0.01935264 -0.01497263
v 0.01202391 -0.01754420 -0.01778716
v 0.01178824 -0.02033500 -0.01088230
v 0.01216540 -0.02029442 -0.00565771
v 0.01273638 -0.02023435 -0.00181576
v 0.01147339 -0.02013312 0.00149993
v 0.01230015 -0.02020934 0.00681025
v 0.01172193 -0.02034138 0.01244464
v 0.01141796 -0.01936924 0.01582513
v 0.01198573 -0.01809398 0.01764815
v 0.01253346 -0.01516917 -0.02025985
v 0.01191520 -0.01297023 -0.02218799
v 0.00962112 -0.01373514 -0.01096913
v 0.01005228 -0.01367717 -0.00781886
v 0.01007967 -0.01360764 -0.00316946
v 0.01006643 -0.01360251 0.00136711
v 0.01018986 -0.01364876 0.00577464
v 0.00973160 -0.01336187 0.01066045
v 0.01186672 -0.01587212 0.01969217
v 0.01304569 -0.01240568 0.02219762
v 0.00981070 -0.00952389 -0.02059604
v 0.01258304 -0.00873216 -0.02234409
v 0.01012889 -0.00885227 -0.01720232
v 0.01229344 -0.00899572 -0.01359334
v 0.01185544 -0.01132390 -0.01043778
v 0.01228073 -0.01126519 -0.00570926
v 0.01220175 -0.01124504 -0.00108995
v 0.01226708 -0.01129306 0.00335422
v 0.01235250 -0.01131462 0.00774618
v 0.01142943 -0.01069673 0.01202647
v 0.01044068 -0.00924764 0.01549357
v 0.01214896 -0.00899742 0.01339699
v 0.01000687 -0.00887070 0.01925538
v 0.01186422 -0.00926176 0.02240525
v 0.01212451 -0.00686473 -0.01916711
v 0.01283651 -0.00664148 -0.01582873
v 0.01266653 -0.00719803 0.01603135
v 0.01263723 -0.00664324 0.02071494
v 0.00994550 0.00904379 -0.01922038
v 0.01264089 0.00683608 -0.02065499
v 0.01184850 0.00940621 -0.02239420
v 0.01012888 0.00908810 -0.01618447
v 0.01286612 0.00693372 -0.01623746
v 0.01216488 0.00910453 -0.01352254
v 0.01003185 0.00969350 0.01618912
v 0.01219050 0.00703042 0.01618852
v 0.01222055 0.00904194 0.01349108
v 0.00997767 0.00939793 0.02059874
v 0.01219150 0.00680423 0.01921053
v 0.01267466 0.00861215 0.02240454
v 0.01305831 0.01250088 -0.02218223
v 0.00989533 0.01371774 -0.00995296
v 0.01124772 0.01134029 -0.01184710
v 0.01015502 0.01370027 -0.00564619
v 0.01235757 0.01135327 -0.00785647
v 0.01005638 0.01367185 -0.00110862
v 0.01225423 0.01132723 -0.00337486
v 0.01006396 0.01373771 0.00340089
v 0.01218242 0.01133985 0.00116867
v 0.01007459 0.01383262 0.00785345
v 0.01219781 0.01149264 0.00569974
v 0.01008509 0.01269264 0.01173806
v 0.01222476 0.01123901 0.00990942
v 0.01200107 0.01291352 0.02220749
v 0.01204476 0.01554436 -0.01994420
v 0.01266690 0.01790356 -0.01746891
v 0.01121379 0.01770692 0.01816723
v 0.01176999 0.01539216 0.02060047
v 0.01134793 0.01947031 -0.01591635
v 0.01164495 0.02042957 -0.01249090
v 0.00989712 0.02273790 -0.01001907
v 0.01230995 0.02038165 -0.00677969
v 0.00943705 0.02229890 -0.00650868
v 0.01289026 0.02035860 -0.00150702
v 0.01150791 0.02026731 0.00168169
v 0.01222770 0.02033004 0.00559560
v 0.00983149 0.02267236 0.00815235
v 0.01182029 0.02045385 0.01080586
v 0.00948408 0.02248513 0.01167855
v 0.01215475 0.01952927 0.01481659
v 0.01415600 -0.01810661 -0.01554534
v 0.01447106 -0.01812008 -0.01238173
v 0.01463871 -0.01802107 -0.00806639
v 0.01723704 -0.01764095 -0.00458236
v 0.01629610 -0.01956731 -0.00221592
v 0.01539104 -0.01956383 0.00232183
v 0.01516657 -0.01829650 0.00646916
v 0.01681166 -0.01805547 0.00447261
v 0.01460693 -0.01804155 0.01023336
v 0.01414461 -0.01788411 0.01511969
v 0.01491814 -0.01291991 -0.02093718
v 0.01582359 -0.01439940 -0.01842883
v 0.01632531 -0.01589882 -0.01486033
v 0.01667663 -0.01577976 -0.01008298
v 0.01726889 -0.01572448 -0.00666591
v 0.01735466 -0.01621285 0.00682987
v 0.01677985 -0.01580328 0.01227558
v 0.01607622 -0.01533092 0.01663907
v 0.01493335 -0.01390647 0.01989671
v 0.01719876 -0.01290627 0.01850532
v 0.01730884 -0.01163513 -0.01989011
v 0.01579575 -0.00979154 -0.02221793
v 0.01422291 -0.00900868 -0.01106375
v 0.01459981 -0.00901825 -0.00803634
v 0.01449313 -0.00900473 -0.00348527
v 0.01444555 -0.00901159 0.00102851
v 0.01457604 -0.00906502 0.00550755
v 0.01406778 -0.00885777 0.01043347
v 0.01624311 -0.01151566 0.02098641
v 0.01622370 -0.00856122 0.02226596
v 0.01411735 -0.00400860 -0.02007703
v 0.01628110 -0.00489555 -0.02215615
v 0.01444209 -0.00383946 -0.01639796
v 0.01581031 -0.00505241 -0.01362981
v 0.01648941 -0.00683644 -0.01058762
v 0.01689540 -0.00688997 -0.00598986
v 0.01679162 -0.00685715 -0.00143411
v 0.01687422 -0.00682400 0.00311408
v 0.01693499 -0.00688581 0.00764132
v 0.01599017 -0.00644053 0.01197385
v 0.01461420 -0.00421074 0.01616418
v 0.01682963 -0.00340137 0.01326813
v 0.01429754 -0.00394568 0.02011331
v 0.01596919 -0.00456478 0.02218006
v 0.01486391 0.00021356 -0.02006063
v 0.01668092 0.00004985 -0.02197781
v 0.01495760 0.00025459 -0.01641754
v 0.01692251 -0.00097584 -0.01361202
v 0.01494021 -0.00024021 0.01651134
v 0.01684733 0.00102854 0.01373715
v 0.01486583 -0.00014891 0.02011298
v 0.01667347 0.00006955 0.02195810
v 0.01429442 0.00409881 -0.02008054
v 0.01596805 0.00468592 -0.02220788
v 0.01432160 0.00385152 -0.01680138
v 0.01638549 0.00379474 -0.01348849
v 0.01422146 0.00480546 0.01577581
v 0.01650260 0.00501524 0.01314437
v 0.01412971 0.00400043 0.02014264
v 0.01628792 0.00493268 0.02215455
v 0.01627585 0.00865056 -0.02226675
v 0.01436738 0.00907579 -0.00992354
v 0.01584633 0.00691871 -0.01173260
v 0.01460468 0.00906674 -0.00568481
v 0.01700734 0.00685492 -0.00778527
v 0.01443920 0.00908092 -0.00111371
v 0.01687404 0.00687125 -0.00323134
v 0.01442527 0.00915725 0.00344091
v 0.01677347 0.00694952 0.00137944
v 0.01446496 0.00927264 0.00796800
v 0.01680312 0.00708142 0.00594898
v 0.01447888 0.00815068 0.01195070
v 0.01684151 0.00681125 0.01023534
v 0.01582604 0.00979742 0.02222591
v 0.01630295 0.01160578 -0.02099210
v 0.01463813 0.01365566 -0.02057054
v 0.01663633 0.01335174 -0.01875817
v 0.01455923 0.01406250 0.02014504
v 0.01660017 0.01436321 0.01780781
v 0.01726965 0.01168335 0.01992147
v 0.01586289 0.01592275 -0.01641498
v 0.01437645 0.01818980 -0.01450656
v 0.01684301 0.01583292 -0.01233743
v 0.01455934 0.01812138 -0.01022636
v 0.01673364 0.01610710 -0.00802202
v 0.01511247 0.01843864 -0.00640195
v 0.01706835 0.01756097 -0.00479710
v 0.01476155 0.01813182 0.00804530
v 0.01622780 0.01843566 0.00477143
v 0.01707442 0.01650081 0.00631871
v 0.01669423 0.01593919 0.01009894
v 0.01443638 0.01821567 0.01229374
v 0.01672212 0.01573439 0.01440550
v 0.01448007 0.01719706 0.01640689
v 0.01576317 0.01967697 -0.00299163
v 0.01589233 0.01973421 0.00160120
v 0.01886552 -0.01821996 -0.00210178
v 0.01867496 -0.01793365 0.00140237
v 0.01838892 -0.01251923 -0.01665927
v 0.01901287 -0.01290640 -0.01235305
v 0.01922041 -0.01352893 -0.00797603
v 0.02025633 -0.01436210 -0.00481463
v 0.02099587 -0.01594585 -0.00150691
v 0.02056425 -0.01537939 0.00282087
v 0.01958269 -0.01391845 0.00619255
v 0.02163910 -0.01303431 0.00456315
v 0.01893591 -0.01311458 0.01064941
v 0.01828054 -0.01295892 0.01550776
v 0.01836788 -0.00874545 -0.02005961
v 0.01976253 -0.00886979 -0.01644868
v 0.02096217 -0.00986326 -0.01335117
v 0.02127519 -0.01114944 -0.01003031
v 0.02165311 -0.01201975 -0.00651675
v 0.02121907 -0.01163341 0.00785747
v 0.02092876 -0.01065590 0.01148278
v 0.01973136 -0.00943235 0.01557866
v 0.02164415 -0.00838843 0.01386476
v 0.01831943 -0.00972263 0.01945738
v 0.01906049 -0.00405938 -0.02029577
v 0.02099740 -0.00496207 -0.01773109
v 0.02160294 -0.00728001 -0.01542489
v 0.01851867 -0.00325123 -0.01095528
v 0.01875410 -0.00412625 -0.00702659
v 0.01864037 -0.00408919 -0.00249247
v 0.01865814 -0.00396257 0.00209271
v 0.01875755 -0.00402210 0.00668470
v 0.01828199 -0.00469471 0.01022521
v 0.02105327 -0.00632760 0.01663125
v 0.01907996 -0.00546236 0.01998232
v 0.02136473 -0.00298634 0.01811299
v 0.01906537 0.00096052 -0.02083609
v 0.02132859 -0.00118844 -0.01849727
v 0.01883222 0.00111183 -0.01076249
v 0.01934678 -0.00004128 -0.00688628
v 0.01924032 -0.00003936 -0.00232140
v 0.01922471 0.00012888 0.00227283
v 0.01928119 0.00012992 0.00687585
v 0.01874002 -0.00110585 0.01080679
v 0.01906721 -0.00087787 0.02077034
v 0.02133084 0.00126713 0.01843114
v 0.01909731 0.00553006 -0.02003814
v 0.02136115 0.00306629 -0.01817605
v 0.01833725 0.00465082 -0.01029786
v 0.01879886 0.00403370 -0.00676764
v 0.01865834 0.00404099 -0.00215541
v 0.01861083 0.00418852 0.00245227
v 0.01866556 0.00428423 0.00702038
v 0.01841112 0.00337758 0.01103016
v 0.01905730 0.00414020 0.02023644
v 0.02099706 0.00504250 0.01766353
v 0.01840654 0.00977019 -0.01948435
v 0.02105008 0.00641041 -0.01669514
v 0.01979796 0.00948964 -0.01564445
v 0.02165138 0.00852052 -0.01393448
v 0.02161058 0.00737569 0.01535121
v 0.01972593 0.00895678 0.01644221
v 0.02097819 0.00998580 0.01335836
v 0.01832377 0.00877638 0.02009439
v 0.01839312 0.01299461 -0.01556917
v 0.02100648 0.01077441 -0.01155126
v 0.01902483 0.01314350 -0.01075362
v 0.02127141 0.01144050 -0.00769642
v 0.01900464 0.01437467 -0.00553767
v 0.02126892 0.01144483 -0.00321395
v 0.01954369 0.01420850 -0.00116261
v 0.02122824 0.01142571 0.00130452
v 0.01959978 0.01365412 0.00294176
v 0.02123306 0.01150618 0.00583614
v 0.01895567 0.01412953 0.00717754
v 0.02124167 0.01130839 0.01010033
v 0.01896079 0.01305926 0.01241245
v 0.01830175 0.01258590 0.01669397
v 0.01827402 0.01768840 -0.00198183
v 0.01838050 0.01680546 0.00243147
v 0.02301397 -0.01233506 -0.00264319
v 0.02291072 -0.01315967 0.00176235
v 0.02285389 -0.00788309 -0.01176443
v 0.02314798 -0.00920579 -0.00650088
v 0.02359994 -0.00856409 -0.00179543
v 0.02364360 -0.00918529 0.00208120
v 0.02319082 -0.00935060 0.00640741
v 0.02278613 -0.00852849 0.01094334
v 0.02289078 -0.00398861 -0.01525177
v 0.02356854 -0.00411971 -0.01096088
v 0.02351455 -0.00473473 -0.00703184
v 0.02347288 -0.00467883 -0.00242464
v 0.02348095 -0.00457999 0.00217173
v 0.02358071 -0.00443511 0.00680801
v 0.02365697 -0.00443361 0.01136582
v 0.02283622 -0.00523652 0.01483968
v 0.02313515 0.00097830 -0.01558959
v 0.02364078 -0.00013333 -0.01155480
v 0.02354311 -0.00012479 -0.00691277
v 0.02346504 0.00000424 -0.00235643
v 0.02343637 0.00013051 0.00219712
v 0.02349359 0.00027413 0.00682597
v 0.02361567 0.00027961 0.01150837
v 0.02313215 -0.00086913 0.01553568
v 0.02283908 0.00537480 -0.01489294
v 0.02368857 0.00460277 -0.01138057
v 0.02361737 0.00455316 -0.00677892
v 0.02352147 0.00467242 -0.00216125
v 0.02352738 0.00477751 0.00236228
v 0.02354713 0.00485178 0.00692405
v 0.02357580 0.00423875 0.01086479
v 0.02289545 0.00408153 0.01517693
v 0.02282816 0.00866942 -0.01097778
v 0.02309484 0.00862671 -0.00668173
v 0.02299305 0.00864724 -0.00207276
v 0.02298302 0.00871730 0.00247397
v 0.02303414 0.00879594 0.00698798
v 0.02288502 0.00800129 0.01172169
f 3 2 1
f 5 4 1
f 5 1 2
f 7 6 4
f 7 4 5
f 8 6 7
f 11 10 9
f 12 9 10
f 13 3 1
f 13 1 4
f 13 4 14
f 14 4 6
f 14 6 15
f 15 6 8
f 16 11 9
f 16 9 12
f 19 18 17
f 21 20 17
f 21 17 18
f 23 22 20
f 23 20 21
f 25 24 22
f 25 22 23
f 27 26 24
f 27 24 25
f 29 28 26
f 29 26 27
f 30 28 29
f 33 32 31
f 31 32 19
f 17 31 19
f 34 31 17
f 35 17 20
f 34 17 35
f 36 20 22
f 35 20 36
f 37 22 24
f 36 22 37
f 38 24 26
f 37 24 38
f 39 26 28
f 38 26 39
f 28 30 40
f 41 28 40
f 39 28 41
f 42 41 40
f 33 31 43
f 33 43 44
f 45 31 34
f 43 31 45
f 46 34 35
f 45 34 46
f 47 35 36
f 46 35 47
f 48 36 37
f 47 36 48
f 49 37 38
f 48 37 49
f 50 38 39
f 49 38 50
f 51 39 41
f 50 39 51
f 41 42 52
f 41 52 51
f 44 43 53
f 44 53 54
f 55 43 45
f 53 43 55
f 3 55 2
f 55 46 2
f 55 45 46
f 2 46 5
f 5 46 47
f 5 47 7
f 7 47 48
f 7 48 8
f 48 56 8
f 48 49 56
f 11 56 10
f 56 50 10
f 56 49 50
f 10 50 12
f 50 57 12
f 50 51 57
f 51 52 58
f 51 58 57
f 54 53 59
f 54 59 60
f 61 53 55
f 59 53 61
f 13 62 3
f 62 55 3
f 62 61 55
f 14 63 13
f 13 63 62
f 15 64 14
f 14 64 63
f 8 56 15
f 56 64 15
f 56 65 64
f 16 66 11
f 66 56 11
f 66 65 56
f 12 57 16
f 57 66 16
f 57 67 66
f 57 58 68
f 57 68 67
f 60 59 69
f 60 69 70
f 71 59 61
f 69 59 71
f 72 61 62
f 71 61 72
f 73 62 63
f 72 62 73
f 74 63 64
f 73 63 74
f 75 64 65
f 74 64 75
f 76 65 66
f 75 65 76
f 77 66 67
f 76 66 77
f 67 68 78
f 67 78 77
f 79 70 69
f 81 80 79
f 69 81 79
f 71 81 69
f 82 71 72
f 81 71 82
f 83 72 73
f 82 72 83
f 84 73 74
f 83 73 84
f 85 74 75
f 84 74 85
f 86 75 76
f 85 75 86
f 77 88 87
f 86 77 87
f 76 77 86
f 88 77 78
f 89 80 81
f 89 81 82
f 89 82 90
f 90 82 83
f 90 83 91
f 91 83 84
f 91 84 92
f 92 84 85
f 92 85 93
f 93 85 86
f 93 86 94
f 94 86 87
f 97 96 95
f 99 98 95
f 99 95 96
f 101 100 98
f 101 98 99
f 103 102 100
f 103 100 101
f 105 104 102
f 105 102 103
f 107 106 104
f 107 104 105
f 108 106 107
f 111 110 109
f 109 110 97
f 109 97 95
f 19 109 95
f 18 19 95
f 18 95 21
f 21 95 98
f 21 98 23
f 23 98 100
f 23 100 25
f 25 100 102
f 25 102 27
f 27 102 104
f 27 104 29
f 29 104 106
f 113 112 30
f 113 30 29
f 108 113 29
f 106 108 29
f 114 112 113
f 117 116 115
f 115 116 111
f 115 111 109
f 33 115 109
f 32 33 109
f 32 109 19
f 120 119 118
f 119 121 118
f 124 123 122
f 126 125 122
f 122 125 124
f 126 127 125
f 130 129 128
f 112 40 30
f 131 130 128
f 133 132 42
f 133 42 40
f 114 133 40
f 112 114 40
f 134 132 133
f 117 115 135
f 117 135 136
f 44 135 33
f 33 135 115
f 119 120 137
f 137 120 138
f 121 119 139
f 119 140 139
f 119 137 140
f 139 140 123
f 140 122 123
f 140 141 122
f 122 142 126
f 122 141 142
f 127 126 143
f 126 144 143
f 126 142 144
f 143 144 129
f 144 128 129
f 144 145 128
f 131 128 146
f 146 128 145
f 147 52 132
f 132 52 42
f 132 134 148
f 132 148 147
f 136 135 149
f 136 149 150
f 54 149 44
f 44 149 135
f 137 138 151
f 151 138 152
f 137 153 140
f 137 151 153
f 140 154 141
f 140 153 154
f 141 155 142
f 141 154 155
f 142 156 144
f 142 155 156
f 144 157 145
f 144 156 157
f 146 145 158
f 158 145 157
f 159 58 147
f 147 58 52
f 147 148 160
f 147 160 159
f 150 149 161
f 150 161 162
f 60 161 54
f 54 161 149
f 151 152 163
f 163 152 164
f 151 165 153
f 151 163 165
f 153 166 154
f 153 165 166
f 154 167 155
f 154 166 167
f 155 168 156
f 155 167 168
f 156 169 157
f 156 168 169
f 158 157 170
f 170 157 169
f 171 68 159
f 159 68 58
f 159 160 172
f 159 172 171
f 162 161 173
f 162 173 174
f 70 173 60
f 60 173 161
f 163 164 175
f 175 164 176
f 178 165 177
f 165 175 177
f 165 163 175
f 180 179 178
f 179 165 178
f 179 166 165
f 166 181 167
f 166 179 181
f 183 168 182
f 168 181 182
f 168 167 181
f 185 184 183
f 184 168 183
f 184 169 168
f 170 169 186
f 186 169 184
f 187 78 171
f 171 78 68
f 171 172 188
f 171 188 187
f 189 174 173
f 191 189 190
f 190 189 79
f 189 173 79
f 173 70 79
f 176 192 175
f 190 79 80
f 175 192 177
f 180 193 179
f 179 193 181
f 181 193 194
f 181 194 182
f 185 195 184
f 196 87 88
f 195 186 184
f 197 196 88
f 197 88 78
f 198 197 78
f 187 198 78
f 198 187 188
f 199 191 190
f 201 199 200
f 200 199 89
f 199 190 89
f 190 80 89
f 90 202 89
f 89 202 200
f 91 203 90
f 90 203 202
f 92 204 91
f 91 204 203
f 93 205 92
f 92 205 204
f 94 206 93
f 93 206 205
f 207 206 94
f 207 94 87
f 208 207 87
f 196 208 87
f 208 196 197
f 209 201 200
f 209 200 202
f 209 202 210
f 210 202 203
f 210 203 211
f 211 203 204
f 211 204 212
f 212 204 205
f 212 205 213
f 213 205 206
f 213 206 214
f 214 206 207
f 217 216 215
f 96 97 215
f 216 96 215
f 218 96 216
f 96 219 99
f 218 219 96
f 99 220 101
f 219 220 99
f 101 221 103
f 220 221 101
f 103 222 105
f 221 222 103
f 105 223 107
f 222 223 105
f 225 224 108
f 107 225 108
f 223 225 107
f 226 224 225
f 229 228 227
f 227 228 217
f 227 217 215
f 111 227 215
f 110 111 215
f 110 215 97
f 232 231 230
f 234 233 231
f 231 233 230
f 236 235 234
f 234 235 233
f 238 237 236
f 236 237 235
f 240 239 238
f 238 239 237
f 242 241 240
f 240 241 239
f 224 113 108
f 243 241 242
f 245 244 114
f 245 114 113
f 226 245 113
f 224 226 113
f 246 244 245
f 229 227 116
f 117 229 116
f 247 229 117
f 116 227 111
f 250 249 248
f 248 249 232
f 232 249 231
f 249 120 231
f 120 118 231
f 231 118 121
f 251 231 121
f 234 231 251
f 251 123 124
f 236 251 124
f 234 251 236
f 236 124 125
f 236 125 238
f 238 125 127
f 252 238 127
f 240 238 252
f 252 129 130
f 242 252 130
f 240 252 242
f 130 131 242
f 131 243 242
f 131 253 243
f 244 133 114
f 134 133 244
f 246 134 244
f 254 134 246
f 136 256 255
f 247 136 255
f 117 136 247
f 255 256 250
f 256 249 250
f 256 257 249
f 257 138 120
f 257 120 249
f 139 251 121
f 251 139 123
f 143 252 127
f 252 143 129
f 146 259 258
f 253 146 258
f 131 146 253
f 261 260 259
f 259 260 258
f 254 260 261
f 148 254 261
f 134 254 148
f 150 262 256
f 150 256 136
f 256 263 257
f 256 262 263
f 263 152 138
f 263 138 257
f 158 264 259
f 158 259 146
f 259 265 261
f 259 264 265
f 265 160 148
f 265 148 261
f 162 266 262
f 162 262 150
f 262 267 263
f 262 266 267
f 267 164 152
f 267 152 263
f 170 268 264
f 170 264 158
f 264 269 265
f 264 268 269
f 269 172 160
f 269 160 265
f 271 270 266
f 162 271 266
f 174 271 162
f 266 270 267
f 267 270 272
f 164 267 272
f 273 164 272
f 176 164 273
f 177 274 178
f 274 180 178
f 182 275 183
f 275 185 183
f 186 276 268
f 186 268 170
f 278 269 277
f 269 276 277
f 269 268 276
f 172 269 278
f 279 172 278
f 188 172 279
f 174 189 280
f 281 174 280
f 271 174 281
f 191 280 189
f 192 176 282
f 176 283 282
f 176 273 283
f 274 177 192
f 282 274 192
f 284 274 282
f 285 193 180
f 274 285 180
f 284 285 274
f 286 194 193
f 286 193 285
f 275 182 194
f 286 275 194
f 287 275 286
f 288 195 185
f 275 288 185
f 287 288 275
f 288 289 195
f 195 289 186
f 289 290 186
f 290 276 186
f 291 197 198
f 290 277 276
f 292 291 198
f 188 292 198
f 279 292 188
f 293 281 280
f 295 293 294
f 294 293 199
f 293 280 199
f 280 191 199
f 283 296 282
f 294 199 201
f 282 296 284
f 284 296 297
f 284 297 285
f 285 297 298
f 285 298 286
f 286 298 299
f 286 299 287
f 287 299 300
f 287 300 288
f 288 300 301
f 302 207 208
f 301 289 288
f 303 302 208
f 303 208 197
f 304 303 197
f 291 304 197
f 304 291 292
f 305 295 294
f 305 294 201
f 209 305 201
f 306 305 209
f 307 209 210
f 307 306 209
f 308 210 211
f 308 307 210
f 309 211 212
f 309 308 211
f 310 212 213
f 310 309 212
f 311 213 214
f 311 310 213
f 214 207 302
f 312 214 302
f 311 214 312
f 312 302 303
f 315 314 313
f 317 316 313
f 317 313 314
f 319 318 316
f 319 316 317
f 321 320 318
f 321 318 319
f 323 322 320
f 323 320 321
f 325 324 322
f 325 322 323
f 326 324 325
f 329 328 327
f 216 217 327
f 328 216 327
f 330 216 328
f 313 218 315
f 218 330 315
f 218 216 330
f 218 313 219
f 219 313 316
f 219 316 220
f 220 316 318
f 220 318 221
f 221 318 320
f 221 320 222
f 222 320 322
f 222 322 223
f 223 322 324
f 326 331 324
f 331 223 324
f 331 225 223
f 226 225 331
f 226 331 332
f 329 327 228
f 229 329 228
f 333 329 229
f 228 327 217
f 335 334 230
f 230 334 232
f 336 230 233
f 336 335 230
f 337 233 235
f 337 336 233
f 338 235 237
f 338 337 235
f 339 237 239
f 339 338 237
f 340 239 241
f 340 339 239
f 241 243 340
f 340 243 341
f 332 342 226
f 226 342 245
f 246 245 342
f 246 342 343
f 247 345 344
f 333 247 344
f 229 247 333
f 250 248 345
f 248 344 345
f 248 346 344
f 248 232 334
f 248 334 346
f 253 348 347
f 341 253 347
f 243 253 341
f 350 349 348
f 348 349 347
f 343 349 350
f 254 343 350
f 246 343 254
f 255 345 247
f 345 255 250
f 258 348 253
f 348 258 260
f 348 260 350
f 350 260 254
f 271 351 270
f 352 272 270
f 352 270 351
f 352 273 272
f 277 353 278
f 353 279 278
f 355 354 351
f 271 355 351
f 281 355 271
f 351 354 352
f 352 354 356
f 273 352 356
f 357 273 356
f 283 273 357
f 359 358 290
f 359 290 289
f 277 290 353
f 290 360 353
f 290 358 360
f 279 353 360
f 361 279 360
f 292 279 361
f 362 355 281
f 362 281 293
f 293 295 362
f 362 295 363
f 357 364 283
f 283 364 296
f 296 365 297
f 364 365 296
f 297 366 298
f 365 366 297
f 298 367 299
f 366 367 298
f 299 368 300
f 367 368 299
f 300 369 301
f 368 369 300
f 289 301 359
f 359 301 369
f 370 303 304
f 371 370 304
f 292 371 304
f 361 371 292
f 372 363 295
f 372 295 305
f 374 372 373
f 372 306 373
f 372 305 306
f 307 375 306
f 306 375 373
f 308 376 307
f 307 376 375
f 309 377 308
f 308 377 376
f 310 378 309
f 309 378 377
f 311 379 310
f 310 379 378
f 379 311 380
f 311 381 380
f 311 312 381
f 312 303 370
f 382 312 370
f 381 312 382
f 382 370 371
f 383 374 373
f 383 373 375
f 383 375 384
f 384 375 376
f 384 376 385
f 385 376 377
f 385 377 386
f 386 377 378
f 386 378 387
f 387 378 379
f 387 379 388
f 388 379 380
f 391 390 389
f 314 315 389
f 390 314 389
f 392 314 390
f 314 393 317
f 392 393 314
f 317 394 319
f 393 394 317
f 319 395 321
f 394 395 319
f 321 396 323
f 395 396 321
f 323 397 325
f 396 397 323
f 399 398 326
f 325 399 326
f 397 399 325
f 400 398 399
f 402 401 328
f 402 328 329
f 389 330 391
f 330 401 391
f 330 328 401
f 330 389 315
f 398 331 326
f 404 403 332
f 404 332 331
f 400 404 331
f 398 400 331
f 405 403 404
f 333 402 329
f 333 406 402
f 409 408 407
f 334 335 407
f 335 409 407
f 335 410 409
f 411 335 336
f 411 410 335
f 412 336 337
f 412 411 336
f 413 337 338
f 413 412 337
f 414 338 339
f 414 413 338
f 415 339 340
f 415 414 339
f 417 416 341
f 416 340 341
f 416 415 340
f 403 342 332
f 418 416 417
f 343 342 403
f 405 343 403
f 419 343 405
f 420 406 333
f 420 333 344
f 346 407 408
f 420 346 408
f 344 346 420
f 407 346 334
f 347 417 341
f 421 418 417
f 347 421 417
f 349 421 347
f 349 343 419
f 349 419 421
f 423 422 354
f 423 354 355
f 422 425 424
f 356 422 424
f 354 422 356
f 424 357 356
f 359 426 358
f 358 426 427
f 428 358 427
f 360 358 428
f 361 360 428
f 361 428 429
f 355 362 430
f 431 355 430
f 423 355 431
f 425 432 424
f 430 362 363
f 424 432 357
f 432 364 357
f 432 433 364
f 364 434 365
f 433 434 364
f 365 435 366
f 434 435 365
f 366 436 367
f 435 436 366
f 367 437 368
f 436 437 367
f 368 438 369
f 437 438 368
f 359 369 426
f 369 439 426
f 369 438 439
f 426 439 427
f 429 371 361
f 440 371 429
f 441 431 430
f 443 441 442
f 442 441 372
f 441 430 372
f 430 363 372
f 374 442 372
f 444 380 381
f 444 381 445
f 381 446 445
f 381 382 446
f 382 371 440
f 382 440 446
f 447 443 442
f 447 442 374
f 383 447 374
f 448 447 383
f 449 383 384
f 449 448 383
f 450 384 385
f 450 449 384
f 451 385 386
f 451 450 385
f 452 386 387
f 452 451 386
f 453 387 388
f 453 452 387
f 388 380 444
f 454 388 444
f 453 388 454
f 454 444 445
f 456 455 390
f 456 390 391
f 390 457 392
f 455 457 390
f 392 458 393
f 457 458 392
f 393 459 394
f 458 459 393
f 394 460 395
f 459 460 394
f 395 461 396
f 460 461 395
f 396 462 397
f 461 462 396
f 462 464 463
f 399 462 463
f 397 462 399
f 463 400 399
f 466 465 401
f 466 401 402
f 391 401 456
f 456 401 465
f 464 467 463
f 463 467 400
f 467 404 400
f 467 468 404
f 405 404 468
f 405 468 469
f 406 466 402
f 406 470 466
f 472 471 409
f 409 471 408
f 473 409 410
f 473 472 409
f 474 410 411
f 474 473 410
f 475 411 412
f 475 474 411
f 476 412 413
f 476 475 412
f 477 413 414
f 477 476 413
f 478 414 415
f 478 477 414
f 479 415 416
f 479 478 415
f 416 418 479
f 479 418 480
f 469 419 405
f 481 419 469
f 482 470 406
f 482 406 420
f 420 408 471
f 420 471 482
f 483 480 418
f 483 418 421
f 421 419 481
f 421 481 483
f 485 484 422
f 485 422 423
f 425 422 484
f 425 484 486
f 488 487 428
f 488 428 427
f 429 428 487
f 429 487 489
f 431 485 423
f 431 490 485
f 486 491 425
f 425 491 432
f 432 492 433
f 491 492 432
f 433 493 434
f 492 493 433
f 434 494 435
f 493 494 434
f 435 495 436
f 494 495 435
f 436 496 437
f 495 496 436
f 437 497 438
f 496 497 437
f 438 498 439
f 497 498 438
f 427 439 488
f 488 439 498
f 489 440 429
f 499 440 489
f 500 490 431
f 500 431 441
f 502 501 443
f 501 441 443
f 501 500 441
f 502 503 501
f 505 504 446
f 446 504 445
f 446 440 499
f 446 499 505
f 447 502 443
f 506 503 502
f 447 506 502
f 448 506 447
f 507 448 449
f 507 506 448
f 508 449 450
f 508 507 449
f 509 450 451
f 509 508 450
f 510 451 452
f 510 509 451
f 511 452 453
f 511 510 452
f 512 453 454
f 512 511 453
f 454 445 504
f 454 504 512
f 456 513 455
f 455 513 514
f 515 455 514
f 457 455 515
f 457 516 458
f 515 516 457
f 516 518 517
f 459 516 517
f 458 516 459
f 519 460 459
f 519 459 517
f 460 519 520
f 521 460 520
f 461 460 521
f 461 522 462
f 521 522 461
f 464 462 522
f 464 522 523
f 466 524 465
f 524 525 465
f 465 525 456
f 525 526 456
f 526 513 456
f 513 526 514
f 518 527 517
f 517 527 519
f 519 527 528
f 519 528 520
f 523 529 464
f 464 529 467
f 529 531 530
f 468 529 530
f 467 529 468
f 530 469 468
f 533 532 524
f 466 533 524
f 470 533 466
f 534 471 472
f 532 525 524
f 534 472 535
f 472 536 535
f 472 473 536
f 537 473 474
f 537 536 473
f 538 474 475
f 538 537 474
f 539 475 476
f 539 538 475
f 540 476 477
f 540 539 476
f 541 477 478
f 541 540 477
f 543 541 542
f 541 479 542
f 541 478 479
f 531 544 530
f 542 479 480
f 469 530 544
f 545 469 544
f 481 469 545
f 546 533 470
f 546 470 482
f 482 471 534
f 547 482 534
f 546 482 547
f 547 534 535
f 548 543 542
f 548 542 480
f 483 548 480
f 549 548 483
f 483 481 545
f 483 545 549
f 551 550 484
f 551 484 485
f 553 552 486
f 484 553 486
f 550 553 484
f 554 552 553
f 557 556 555
f 487 488 555
f 556 487 555
f 558 487 556
f 489 487 558
f 489 558 559
f 490 561 560
f 551 490 560
f 485 490 551
f 552 491 486
f 562 560 561
f 554 563 552
f 563 491 552
f 563 492 491
f 492 564 493
f 563 564 492
f 493 565 494
f 564 565 493
f 494 566 495
f 565 566 494
f 495 567 496
f 566 567 495
f 496 568 497
f 567 568 496
f 555 498 557
f 498 568 557
f 498 497 568
f 498 555 488
f 571 570 569
f 559 569 570
f 499 559 570
f 489 559 499
f 500 561 490
f 572 562 561
f 500 572 561
f 501 572 500
f 501 503 572
f 572 503 573
f 576 575 574
f 578 577 574
f 574 577 576
f 578 579 577
f 582 581 580
f 582 580 571
f 571 580 570
f 580 504 570
f 504 505 570
f 570 505 499
f 583 573 503
f 583 503 506
f 584 506 507
f 584 583 506
f 508 574 575
f 584 508 575
f 507 508 584
f 574 508 509
f 574 509 578
f 585 579 578
f 509 585 578
f 510 585 509
f 586 510 511
f 586 585 510
f 512 580 581
f 586 512 581
f 511 512 586
f 580 512 504
f 514 587 515
f 588 516 515
f 588 515 587
f 588 518 516
f 520 589 521
f 590 522 521
f 590 521 589
f 590 523 522
f 592 591 526
f 592 526 525
f 514 526 587
f 526 593 587
f 526 591 593
f 587 593 588
f 588 593 594
f 588 594 518
f 594 527 518
f 594 595 527
f 527 596 528
f 595 596 527
f 520 528 589
f 528 597 589
f 528 596 597
f 589 597 590
f 590 597 598
f 590 598 523
f 598 529 523
f 598 599 529
f 531 529 599
f 531 599 600
f 602 601 532
f 602 532 533
f 525 532 592
f 592 532 601
f 603 535 536
f 537 604 536
f 536 604 603
f 538 605 537
f 537 605 604
f 539 606 538
f 538 606 605
f 540 607 539
f 539 607 606
f 541 608 540
f 540 608 607
f 543 608 541
f 600 609 531
f 531 609 544
f 545 544 609
f 545 609 610
f 533 546 611
f 612 533 611
f 602 533 612
f 547 613 546
f 546 613 611
f 614 613 547
f 614 547 535
f 615 614 535
f 603 615 535
f 615 603 604
f 615 604 616
f 616 604 605
f 616 605 617
f 617 605 606
f 617 606 618
f 618 606 607
f 618 607 619
f 619 607 608
f 619 608 620
f 622 620 621
f 621 620 548
f 620 608 548
f 608 543 548
f 549 623 548
f 548 623 621
f 624 623 549
f 545 624 549
f 610 624 545
f 625 612 611
f 625 611 613
f 625 613 626
f 626 613 614
f 627 622 621
f 627 621 623
f 627 623 628
f 628 623 624
f 631 630 629
f 633 632 629
f 633 629 630
f 634 632 633
f 637 636 635
f 639 638 635
f 639 635 636
f 640 638 639
f 631 629 550
f 551 631 550
f 641 631 551
f 550 629 553
f 553 629 632
f 643 642 554
f 643 554 553
f 634 643 553
f 632 634 553
f 645 644 642
f 645 642 643
f 647 646 644
f 647 644 645
f 649 648 646
f 649 646 647
f 651 650 648
f 651 648 649
f 653 652 650
f 653 650 651
f 652 653 637
f 652 637 635
f 557 652 635
f 556 557 635
f 556 635 558
f 558 635 638
f 559 558 638
f 640 559 638
f 654 559 640
f 655 641 551
f 655 551 560
f 560 562 655
f 655 562 656
f 642 563 554
f 563 642 564
f 564 642 644
f 564 644 565
f 565 644 646
f 565 646 566
f 566 646 648
f 566 648 567
f 567 648 650
f 567 650 568
f 568 650 652
f 568 652 557
f 658 657 569
f 569 657 571
f 569 559 654
f 569 654 658
f 659 656 562
f 659 562 572
f 661 660 573
f 660 572 573
f 660 659 572
f 663 662 661
f 661 662 660
f 575 576 663
f 576 662 663
f 576 664 662
f 665 576 577
f 665 664 576
f 667 666 579
f 666 577 579
f 666 665 577
f 669 668 667
f 667 668 666
f 581 582 669
f 582 668 669
f 582 670 668
f 582 571 657
f 582 657 670
f 583 661 573
f 661 583 584
f 661 584 663
f 663 584 575
f 585 667 579
f 667 585 586
f 667 586 669
f 669 586 581
f 592 671 591
f 672 593 591
f 672 591 671
f 673 594 593
f 673 593 672
f 594 673 674
f 675 594 674
f 595 594 675
f 595 676 596
f 675 676 595
f 676 678 677
f 597 676 677
f 596 676 597
f 679 598 597
f 679 597 677
f 680 599 598
f 680 598 679
f 680 600 599
f 602 681 601
f 681 682 601
f 601 682 592
f 682 683 592
f 683 671 592
f 671 683 672
f 672 683 684
f 672 684 673
f 673 684 685
f 673 685 674
f 678 686 677
f 677 686 679
f 679 686 687
f 679 687 680
f 680 687 688
f 688 690 689
f 688 689 609
f 680 688 609
f 600 680 609
f 689 610 609
f 692 691 681
f 602 692 681
f 612 692 602
f 681 691 682
f 693 614 615
f 616 694 615
f 615 694 693
f 617 695 616
f 616 695 694
f 618 696 617
f 617 696 695
f 619 697 618
f 618 697 696
f 620 698 619
f 619 698 697
f 622 698 620
f 690 699 689
f 610 689 699
f 700 610 699
f 624 610 700
f 612 625 701
f 702 612 701
f 692 612 702
f 626 703 625
f 625 703 701
f 704 703 626
f 704 626 614
f 705 704 614
f 693 705 614
f 705 693 694
f 705 694 706
f 706 694 695
f 706 695 707
f 707 695 696
f 707 696 708
f 708 696 697
f 708 697 709
f 709 697 698
f 709 698 710
f 712 710 711
f 711 710 627
f 710 698 627
f 698 622 627
f 628 713 627
f 627 713 711
f 714 713 628
f 624 714 628
f 700 714 624
f 702 701 715
f 702 715 716
f 717 701 703
f 715 701 717
f 703 704 718
f 703 718 717
f 712 711 719
f 712 719 720
f 721 711 713
f 719 711 721
f 713 714 722
f 713 722 721
f 716 715 723
f 716 723 724
f 725 715 717
f 723 715 725
f 717 718 726
f 717 726 725
f 720 719 727
f 720 727 728
f 729 719 721
f 727 719 729
f 721 722 730
f 721 730 729
f 724 723 630
f 631 724 630
f 731 724 631
f 630 723 633
f 633 723 725
f 733 732 634
f 733 634 633
f 726 733 633
f 725 726 633
f 735 734 732
f 735 732 733
f 737 736 734
f 737 734 735
f 739 738 736
f 739 736 737
f 741 740 738
f 741 738 739
f 743 742 740
f 743 740 741
f 742 743 728
f 742 728 727
f 637 742 727
f 636 637 727
f 636 727 639
f 639 727 729
f 640 639 729
f 730 640 729
f 744 640 730
f 641 746 745
f 731 641 745
f 631 641 731
f 746 747 745
f 732 643 634
f 643 732 645
f 645 732 734
f 645 734 647
f 647 734 736
f 647 736 649
f 649 736 738
f 649 738 651
f 651 738 740
f 651 740 653
f 653 740 742
f 653 742 637
f 750 749 748
f 744 750 748
f 654 744 748
f 640 744 654
f 655 746 641
f 752 751 656
f 656 751 655
f 751 747 655
f 747 746 655
f 754 753 752
f 752 753 751
f 756 755 754
f 754 755 753
f 756 757 755
f 760 759 758
f 762 761 758
f 758 761 760
f 764 763 762
f 762 763 761
f 763 764 749
f 749 764 748
f 764 657 748
f 657 658 748
f 748 658 654
f 659 752 656
f 752 659 660
f 752 660 754
f 754 660 662
f 754 662 756
f 765 757 756
f 662 765 756
f 664 765 662
f 766 664 665
f 766 765 664
f 666 758 759
f 766 666 759
f 665 666 766
f 758 666 668
f 758 668 762
f 762 668 670
f 762 670 764
f 764 670 657
f 674 767 675
f 768 676 675
f 768 675 767
f 768 678 676
f 682 769 683
f 770 684 683
f 770 683 769
f 771 685 684
f 771 684 770
f 771 772 685
f 685 772 674
f 772 773 674
f 773 767 674
f 767 773 768
f 768 773 774
f 774 776 775
f 774 775 686
f 768 774 686
f 678 768 686
f 777 687 686
f 777 686 775
f 778 688 687
f 778 687 777
f 778 690 688
f 692 779 691
f 769 682 691
f 779 769 691
f 780 769 779
f 782 770 781
f 770 780 781
f 770 769 780
f 770 782 771
f 771 782 783
f 771 783 772
f 776 784 775
f 775 784 777
f 777 784 785
f 787 786 785
f 786 777 785
f 786 778 777
f 788 699 690
f 778 788 690
f 786 788 778
f 788 700 699
f 702 789 779
f 702 779 692
f 791 780 790
f 780 789 790
f 780 779 789
f 792 704 705
f 791 781 780
f 706 793 705
f 705 793 792
f 707 794 706
f 706 794 793
f 708 795 707
f 707 795 794
f 709 796 708
f 708 796 795
f 710 797 709
f 709 797 796
f 787 798 786
f 797 710 712
f 800 799 798
f 799 786 798
f 799 788 786
f 799 714 700
f 799 700 788
f 716 801 789
f 716 789 702
f 790 789 802
f 802 789 801
f 803 718 792
f 792 718 704
f 804 792 793
f 803 792 804
f 805 793 794
f 804 793 805
f 806 794 795
f 805 794 806
f 807 795 796
f 806 795 807
f 808 796 797
f 807 796 808
f 720 808 712
f 712 808 797
f 799 800 809
f 809 800 810
f 809 722 714
f 809 714 799
f 724 811 801
f 724 801 716
f 802 801 812
f 812 801 811
f 813 726 803
f 803 726 718
f 814 803 804
f 813 803 814
f 815 804 805
f 814 804 815
f 816 805 806
f 815 805 816
f 817 806 807
f 816 806 817
f 818 807 808
f 817 807 818
f 728 818 720
f 720 818 808
f 809 810 819
f 819 810 820
f 819 730 722
f 819 722 809
f 731 821 811
f 731 811 724
f 812 811 822
f 811 823 822
f 811 821 823
f 813 733 726
f 824 822 823
f 733 813 735
f 735 813 814
f 735 814 737
f 737 814 815
f 737 815 739
f 739 815 816
f 739 816 741
f 741 816 817
f 741 817 743
f 743 817 818
f 743 818 728
f 827 826 825
f 825 826 820
f 826 819 820
f 826 828 819
f 828 744 730
f 828 730 819
f 745 821 731
f 821 745 747
f 829 821 747
f 823 821 829
f 824 823 830
f 823 831 830
f 823 829 831
f 833 832 831
f 831 832 830
f 835 834 833
f 833 834 832
f 837 836 835
f 835 836 834
f 839 838 837
f 837 838 836
f 841 840 839
f 839 840 838
f 840 841 827
f 841 826 827
f 841 842 826
f 842 749 750
f 828 842 750
f 826 842 828
f 828 750 744
f 751 829 747
f 829 751 753
f 829 753 831
f 831 753 755
f 831 755 833
f 833 755 757
f 843 833 757
f 835 833 843
f 835 844 837
f 835 843 844
f 844 759 760
f 839 844 760
f 837 844 839
f 839 760 761
f 839 761 841
f 841 761 763
f 841 763 842
f 842 763 749
f 765 843 757
f 843 765 766
f 843 766 844
f 844 766 759
f 772 845 773
f 846 774 773
f 846 773 845
f 846 776 774
f 781 847 782
f 848 783 782
f 848 782 847
f 845 772 783
f 848 845 783
f 849 845 848
f 845 850 846
f 845 849 850
f 851 784 776
f 846 851 776
f 850 851 846
f 852 785 784
f 852 784 851
f 852 787 785
f 790 853 791
f 847 781 791
f 853 847 791
f 854 847 853
f 847 855 848
f 847 854 855
f 848 856 849
f 848 855 856
f 849 857 850
f 849 856 857
f 850 858 851
f 850 857 858
f 851 859 852
f 851 858 859
f 860 798 787
f 852 860 787
f 859 860 852
f 860 800 798
f 802 861 853
f 802 853 790
f 853 862 854
f 853 861 862
f 854 863 855
f 854 862 863
f 855 864 856
f 855 863 864
f 856 865 857
f 856 864 865
f 857 866 858
f 857 865 866
f 858 867 859
f 858 866 867
f 859 868 860
f 859 867 868
f 868 810 800
f 868 800 860
f 812 869 861
f 812 861 802
f 861 870 862
f 861 869 870
f 862 871 863
f 862 870 871
f 863 872 864
f 863 871 872
f 864 873 865
f 864 872 873
f 865 874 866
f 865 873 874
f 866 875 867
f 866 874 875
f 867 876 868
f 867 875 876
f 876 820 810
f 876 810 868
f 822 869 812
f 869 822 824
f 877 869 824
f 870 869 877
f 870 878 871
f 870 877 878
f 871 879 872
f 871 878 879
f 872 880 873
f 872 879 880
f 873 881 874
f 873 880 881
f 874 882 875
f 874 881 882
f 882 827 825
f 876 882 825
f 875 882 876
f 876 825 820
f 830 877 824
f 877 830 832
f 877 832 878
f 878 832 834
f 878 834 879
f 879 834 836
f 879 836 880
f 880 836 838
f 880 838 881
f 881 838 840
f 881 840 882
f 882 840 827

