# https://github.com/mikedh/trimesh
v -0.02065570 -0.01451932 0.02352499
v -0.01854224 -0.01744922 0.02204771
v -0.01857851 -0.01480425 0.02047816
v -0.02085326 -0.01450807 0.02804652
v -0.01914254 -0.01743140 0.02576161
v -0.02082823 -0.01454653 0.03282637
v -0.01907650 -0.01737849 0.03049454
v -0.02097456 -0.01451412 0.03769258
v -0.01908970 -0.01744306 0.03531388
v -0.02055694 -0.01400485 0.04151167
v -0.01918233 -0.01715855 0.03999374
v -0.01801301 -0.01584505 0.04314617
v -0.02091437 -0.01038210 0.02265874
v -0.01831253 -0.01068221 0.02060335
v -0.02140127 -0.01040572 0.02694011
v -0.02134586 -0.01044101 0.03170812
v -0.02142622 -0.01045235 0.03658412
v -0.02093181 -0.01027108 0.04095711
v -0.01862364 -0.01062344 0.04301939
v -0.02082445 -0.00576672 0.02264933
v -0.01893547 -0.00592878 0.02077639
v -0.02133957 -0.00572723 0.02694137
v -0.02126725 -0.00575814 0.03175919
v -0.02131304 -0.00576100 0.03662859
v -0.02077857 -0.00560887 0.04099459
v -0.01895864 -0.00542282 0.04286428
v -0.02033609 -0.00155295 -0.06866932
v -0.01782423 -0.00250963 -0.06855036
v -0.01916121 -0.00107173 -0.07044917
v -0.02065414 -0.00110876 -0.06466499
v -0.01854491 -0.00321839 -0.06469887
v -0.02042129 -0.00067271 -0.06071693
v -0.01870917 -0.00289226 -0.06003858
v -0.01862530 -0.00155841 -0.05764672
v -0.02074232 -0.00122052 0.02265390
v -0.01885930 -0.00144711 0.02075087
v -0.02126991 -0.00109936 0.02701230
v -0.02121178 -0.00111055 0.03188305
v -0.02127002 -0.00112177 0.03675398
v -0.02074255 -0.00100064 0.04111264
v -0.01885933 -0.00077405 0.04301551
v -0.01891708 0.00028191 -0.06819664
v -0.01857717 0.00100841 -0.06346242
v -0.01804051 0.00060695 -0.05885023
v -0.02077863 0.00338772 0.02277169
v -0.01895687 0.00320185 0.02090255
v -0.02131314 0.00353987 0.02713777
v -0.02126724 0.00353703 0.03200722
v -0.02134021 0.00350601 0.03682571
v -0.02082622 0.00354538 0.04111901
v -0.01893746 0.00370749 0.04299344
v -0.02092788 0.00805061 0.02281311
v -0.01862104 0.00840325 0.02075134
v -0.02142536 0.00823149 0.02718719
v -0.02134580 0.00821988 0.03206417
v -0.02140276 0.00818413 0.03683248
v -0.02091833 0.00816034 0.04111329
v -0.01830290 0.00846185 0.04315474
v -0.02055197 0.01178490 0.02226025
v -0.01807753 0.01361435 0.02059852
v -0.02097019 0.01229431 0.02607768
v -0.02082575 0.01232611 0.03094302
v -0.02085382 0.01228609 0.03572341
v -0.02066044 0.01229679 0.04024585
v -0.01855399 0.01258790 0.04326229
v -0.01921494 0.01492836 0.02371678
v -0.01910342 0.01521710 0.02834439
v -0.01907420 0.01515762 0.03313922
v -0.01913345 0.01521561 0.03789227
v -0.01851917 0.01523881 0.04164425
v -0.01659166 -0.01979702 0.02352407
v -0.01322691 -0.02126910 0.02265378
v -0.01535413 -0.01867552 0.02047244
v -0.01682868 -0.01970560 0.02804908
v -0.01400053 -0.02150061 0.02694038
v -0.01668320 -0.01973237 0.03285127
v -0.01381120 -0.02145738 0.03172292
v -0.01668618 -0.01981273 0.03769916
v -0.01365054 -0.02160616 0.03657900
v -0.01669022 -0.01918491 0.04152947
v -0.01421455 -0.02121044 0.04047690
v -0.01396833 -0.01922918 0.04318299
v -0.01416826 -0.01550937 0.02035924
v -0.01478532 -0.01466101 0.04327152
v -0.01493798 -0.01275105 0.02206034
v -0.01657099 -0.00961357 0.02306447
v -0.01430646 -0.01278267 0.02578529
v -0.01605052 -0.01001641 0.02805992
v -0.01438661 -0.01280888 0.03051787
v -0.01610108 -0.00981780 0.03283758
v -0.01440915 -0.01263492 0.03529570
v -0.01605945 -0.00959667 0.03768242
v -0.01435096 -0.01276187 0.03996695
v -0.01633702 -0.01039162 0.04151135
v -0.01701811 -0.00500336 0.02262518
v -0.01650332 -0.00602313 0.02694544
v -0.01655521 -0.00578443 0.03173514
v -0.01653275 -0.00550595 0.03658499
v -0.01713701 -0.00648561 0.04095246
v -0.01685292 -0.00071259 -0.06904563
v -0.01446933 -0.00148635 -0.06678586
v -0.01438641 -0.00289201 -0.06427770
v -0.01457405 -0.00328708 -0.05967756
v -0.01654169 -0.00123371 -0.05471057
v -0.01499258 -0.00279846 -0.05519750
v -0.01580319 -0.00121419 -0.05047825
v -0.01442260 -0.00260639 -0.05043409
v -0.01600247 -0.00125702 -0.04592641
v -0.01377047 -0.00287991 -0.04568761
v -0.01612057 -0.00116539 -0.04132616
v -0.01403647 -0.00329950 -0.04136381
v -0.01586801 -0.00070484 -0.03770469
v -0.01408061 -0.00289134 -0.03707275
v -0.01399340 -0.00152624 -0.03477916
v -0.01701528 -0.00041270 0.02275986
v -0.01644997 -0.00139397 0.02708042
v -0.01650054 -0.00111057 0.03188326
v -0.01644987 -0.00082716 0.03668600
v -0.01701524 -0.00180843 0.04100641
v -0.01508012 0.00063216 -0.06555720
v -0.01450394 0.00098432 -0.06085861
v -0.01441227 0.00049433 -0.05522613
v -0.01394729 0.00109149 -0.05091033
v -0.01417345 0.00030432 -0.04536874
v -0.01413754 0.00089692 -0.04019097
v -0.01349261 0.00060045 -0.03588844
v -0.01713288 0.00426467 0.02281781
v -0.01653212 0.00328477 0.02718630
v -0.01655534 0.00356329 0.03203706
v -0.01650426 0.00380197 0.03682589
v -0.01701893 0.00278217 0.04114337
v -0.01633299 0.00817102 0.02225996
v -0.01605495 0.00737506 0.02608757
v -0.01610110 0.00759621 0.03093172
v -0.01605320 0.00779554 0.03570939
v -0.01657443 0.00739284 0.04070490
v -0.01437048 0.01054185 0.02374311
v -0.01488948 0.01243617 0.02046904
v -0.01441807 0.01041491 0.02836183
v -0.01438961 0.01058756 0.03311540
v -0.01429227 0.01056136 0.03786760
v -0.01490231 0.01053201 0.04163329
v -0.01402621 0.01329944 0.04329737
v -0.01682885 0.01692912 0.02212216
v -0.01417795 0.01696394 0.02050412
v -0.01680565 0.01754341 0.02587414
v -0.01674766 0.01748416 0.03062719
v -0.01680714 0.01751338 0.03542202
v -0.01651841 0.01762490 0.04004963
v -0.01520439 0.01648748 0.04316789
v -0.01388683 0.01907040 0.02352056
v -0.01387613 0.01926378 0.02804300
v -0.01391615 0.01923570 0.03282339
v -0.01388435 0.01938015 0.03768873
v -0.01337494 0.01896193 0.04150616
v -0.00893276 -0.02147136 0.02265975
v -0.01034388 -0.01919408 0.02058342
v -0.00998963 -0.02202015 0.02694669
v -0.00975926 -0.02198003 0.03176473
v -0.00948724 -0.02210204 0.03663518
v -0.01054092 -0.02163267 0.04094485
v -0.00972317 -0.01895581 0.04308527
v -0.00944046 -0.01699004 0.02265535
v -0.01225556 -0.01501561 0.02355188
v -0.00921264 -0.01672086 0.02694763
v -0.01207098 -0.01506431 0.02806547
v -0.00929475 -0.01672874 0.03170842
v -0.01215752 -0.01500301 0.03282671
v -0.00928924 -0.01663150 0.03658197
v -0.01208658 -0.01490431 0.03768265
v -0.00907690 -0.01721503 0.04097074
v -0.01198305 -0.01553165 0.04152979
v -0.01262842 -0.00072951 -0.06355757
v -0.01247977 -0.00116609 -0.05967215
v -0.01245477 -0.00126952 -0.05522133
v -0.01234098 -0.00048363 -0.05113300
v -0.01231233 -0.00133951 -0.04615465
v -0.00926882 -0.00090319 -0.04389169
v -0.00998326 -0.00303138 -0.04104991
v -0.00996043 -0.00326071 -0.03670860
v -0.01179062 -0.00114395 -0.03187586
v -0.01022453 -0.00270412 -0.03238415
v -0.01091890 -0.00110020 -0.02763619
v -0.00950624 -0.00245670 -0.02762284
v -0.01105236 -0.00109750 -0.02308629
v -0.00966004 -0.00250973 -0.02310084
v -0.01125101 -0.00113324 -0.01849874
v -0.00913273 -0.00281631 -0.01829903
v -0.01138273 -0.00110678 -0.01378868
v -0.00946182 -0.00321326 -0.01384043
v -0.01115510 -0.00079194 -0.01001481
v -0.00955996 -0.00283859 -0.00938907
v -0.00944621 -0.00155749 -0.00700954
v -0.00987336 0.00316690 -0.06584413
v -0.01146551 0.00319587 -0.06439585
v -0.00912224 0.00167915 -0.06387372
v -0.01150521 0.00338800 -0.06113008
v -0.00930845 0.00142372 -0.05893909
v -0.01148890 0.00319530 -0.05560549
v -0.00938817 0.00132046 -0.05427307
v -0.01222897 0.00099729 -0.05328881
v -0.00994781 0.00268994 -0.05268839
v -0.01005919 0.00080454 -0.04254591
v -0.01011369 0.00087401 -0.03780416
v -0.00997916 0.00044606 -0.03261245
v -0.00951361 0.00028271 -0.02761369
v -0.00968947 0.00027103 -0.02306303
v -0.00985097 0.00020269 -0.01843758
v -0.00935300 0.00089943 -0.01355541
v -0.00977732 0.00066474 -0.00865814
v -0.00911953 0.00567722 -0.06394030
v -0.00943689 0.00553229 -0.05863380
v -0.00865122 0.00532090 -0.05432139
v -0.01212205 0.01331227 0.02213312
v -0.01215141 0.01270223 0.02589880
v -0.01217760 0.01279957 0.03065101
v -0.01200496 0.01282803 0.03540458
v -0.01213189 0.01278043 0.04002329
v -0.00898289 0.01498438 0.02306151
v -0.01005189 0.01671286 0.02061167
v -0.00938558 0.01446316 0.02805702
v -0.00918625 0.01451106 0.03283469
v -0.00896510 0.01446490 0.03767883
v -0.00976106 0.01474295 0.04150645
v -0.00999329 0.01703100 0.04301507
v -0.00975038 0.01932829 0.02265312
v -0.00977418 0.01981272 0.02693393
v -0.00980992 0.01975576 0.03170224
v -0.00982154 0.01983532 0.03657922
v -0.00964065 0.01933784 0.04095330
v -0.00439197 -0.02135376 0.02266273
v -0.00535256 -0.01954397 0.02077659
v -0.00541951 -0.02192604 0.02701021
v -0.00511569 -0.02189852 0.03187983
v -0.00477641 -0.02196870 0.03675578
v -0.00580663 -0.02151300 0.04107828
v -0.00478064 -0.01958754 0.04292965
v -0.00517419 -0.01770585 0.02265635
v -0.00512657 -0.01717322 0.02694441
v -0.00520707 -0.01720125 0.03175943
v -0.00523549 -0.01713318 0.03662714
v -0.00505241 -0.01769937 0.04099192
v -0.00716505 -0.00559564 0.03302078
v -0.00400878 -0.00787484 0.03210246
v -0.00563826 -0.00509668 0.03022067
v -0.00711262 -0.00492743 0.03735359
v -0.00484795 -0.00779788 0.03615626
v -0.00478887 -0.00649912 0.03938539
v -0.00772124 -0.00054989 -0.04137668
v -0.00799697 -0.00120426 -0.03672151
v -0.00799450 -0.00112771 -0.03213431
v -0.00810095 -0.00107380 -0.02760034
v -0.00829715 -0.00114120 -0.02307758
v -0.00819491 -0.00126674 -0.01874625
v -0.00617624 -0.00089469 -0.01595477
v -0.00559399 -0.00302496 -0.01364788
v -0.00523973 -0.00353584 -0.00894929
v -0.00770223 -0.00038071 -0.00471618
v -0.00641235 -0.00340535 -0.00529631
v -0.00672141 -0.00042821 -0.00035267
v -0.00530091 -0.00361040 -0.00109750
v -0.00661843 -0.00118294 0.00441798
v -0.00534830 -0.00359657 0.00337373
v -0.00674758 -0.00115977 0.00895722
v -0.00544163 -0.00352775 0.00789235
v -0.00687687 -0.00120573 0.01363618
v -0.00552344 -0.00357732 0.01255113
v -0.00662006 -0.00086258 0.01736448
v -0.00459984 -0.00368355 0.01794174
v -0.00398796 -0.00059984 0.02070832
v -0.00757096 -0.00117683 0.03210038
v -0.00448081 -0.00040449 0.02933312
v -0.00806485 -0.00180786 0.03569977
v -0.00584071 -0.00398904 0.04079989
v -0.00699495 -0.00054430 0.03989003
v -0.00390025 -0.00162095 0.04302947
v -0.00483649 0.00172714 -0.06368703
v -0.00580040 0.00402532 -0.06666199
v -0.00531623 0.00128718 -0.05993342
v -0.00520491 0.00147430 -0.05525216
v -0.00692540 0.00368366 -0.05039150
v -0.00537433 0.00209255 -0.05095352
v -0.00699293 0.00299229 -0.04558339
v -0.00542593 0.00148570 -0.04534166
v -0.00692238 0.00140827 -0.04314819
v -0.00513709 0.00204250 -0.04078379
v -0.00650007 0.00363092 -0.04215315
v -0.00635570 0.00354685 -0.03783426
v -0.00501608 0.00213444 -0.03580048
v -0.00641312 0.00347349 -0.03322078
v -0.00505641 0.00210069 -0.03122619
v -0.00643323 0.00346655 -0.02865463
v -0.00507330 0.00214598 -0.02667443
v -0.00642139 0.00354381 -0.02406946
v -0.00502655 0.00218616 -0.02206018
v -0.00632563 0.00364296 -0.01947488
v -0.00494437 0.00134968 -0.01770996
v -0.00673040 0.00326137 -0.01498113
v -0.00767485 0.00342361 -0.00963853
v -0.00687769 0.00326465 -0.00499214
v -0.00570942 0.00300876 -0.00226272
v -0.00535897 0.00148312 0.00105361
v -0.00537152 0.00117611 0.00538700
v -0.00551489 0.00122944 0.01010841
v -0.00560199 0.00127943 0.01488154
v -0.00486964 0.00137859 0.01847045
v -0.00707986 0.00288193 0.03156169
v -0.00450193 0.00400052 0.03027937
v -0.00731909 0.00284684 0.03568863
v -0.00586465 0.00330317 0.03941658
v -0.00477791 0.00181297 0.04189183
v -0.00702082 0.00727904 -0.06823361
v -0.00437024 0.00618512 -0.06988987
v -0.00453195 0.00843174 -0.07037630
v -0.00715025 0.00875021 -0.06531790
v -0.00589054 0.00808847 -0.06282415
v -0.00561032 0.00627994 -0.06033600
v -0.00538644 0.00555411 -0.05610471
v -0.00521125 0.00517618 -0.05096746
v -0.00477209 0.00499698 -0.04588292
v -0.00489618 0.00495802 -0.04130398
v -0.00500881 0.00487330 -0.03670882
v -0.00505661 0.00483663 -0.03214297
v -0.00506392 0.00483561 -0.02757780
v -0.00504339 0.00491695 -0.02301554
v -0.00497861 0.00500930 -0.01848687
v -0.00506987 0.00514431 -0.01391174
v -0.00475253 0.00535136 -0.00883630
v -0.00420037 0.00539834 -0.00397671
v -0.00499380 0.00559313 0.03307372
v -0.00429579 0.00556770 0.03741686
v -0.00553680 0.00969714 -0.06812200
v -0.00415360 0.00962052 -0.06530899
v -0.00437222 0.01542889 0.02262304
v -0.00529753 0.01734742 0.02077296
v -0.00539201 0.01491422 0.02694052
v -0.00515333 0.01496530 0.03172935
v -0.00487482 0.01494208 0.03658011
v -0.00585472 0.01554283 0.04094860
v -0.00479189 0.01736683 0.04286386
v -0.00513542 0.01923618 0.02264740
v -0.00509605 0.01975016 0.02694070
v -0.00512707 0.01967719 0.03175919
v -0.00512991 0.01972310 0.03662863
v -0.00497776 0.01918859 0.04099472
v 0.00017156 -0.02137456 0.02265670
v -0.00076446 -0.01950601 0.02077181
v -0.00082472 -0.02187806 0.02700082
v -0.00047947 -0.02184142 0.03188312
v -0.00013423 -0.02187799 0.03676539
v -0.00113048 -0.02137480 0.04110978
v -0.00019446 -0.01950607 0.04299469
v -0.00052164 -0.01764607 0.02266821
v -0.00042493 -0.01710890 0.02701411
v -0.00047948 -0.01715062 0.03188318
v -0.00053403 -0.01710891 0.03675226
v -0.00043731 -0.01764604 0.04109816
v -0.00274181 -0.00541623 -0.00430118
v 0.00088656 -0.00759343 -0.00512353
v -0.00071930 -0.00542533 -0.00663348
v -0.00289969 -0.00605616 0.00093266
v 0.00015582 -0.00788334 -0.00029516
v -0.00290912 -0.00600151 0.00548169
v 0.00019282 -0.00791564 0.00436959
v -0.00292883 -0.00602973 0.01013153
v -0.00034951 -0.00782643 0.00831499
v -0.00293791 -0.00615507 0.01487591
v 0.00012412 -0.00760046 0.01328809
v -0.00245435 -0.00621859 0.01808014
v -0.00071411 -0.00725491 0.01749363
v -0.00069306 -0.00527917 0.02026556
v 0.00075054 -0.00818842 0.03214725
v -0.00118925 -0.00511534 0.02927133
v -0.00122936 -0.00872308 0.03569253
v -0.00332436 -0.00541447 0.04188082
v -0.00102150 -0.00762815 0.03991620
v 0.00008124 -0.00452712 0.04305219
v -0.00326238 0.00013753 -0.01421766
v -0.00269802 -0.00077541 -0.00981119
v -0.00061246 -0.00238817 -0.00688127
v -0.00218822 -0.00149257 0.02392832
v -0.00116511 -0.00283825 0.02303079
v -0.00207612 -0.00141248 0.02679166
v -0.00016338 -0.00278714 0.02679023
v -0.00048025 -0.00111074 0.04404589
v -0.00325270 0.00354880 -0.06406735
v -0.00323809 0.00378999 -0.06020514
v -0.00332500 0.00343334 -0.05516448
v -0.00328097 0.00359615 -0.05057684
v -0.00336145 0.00363161 -0.04601491
v -0.00352207 0.00356683 -0.04143174
v -0.00363432 0.00352174 -0.03685681
v -0.00368085 0.00347332 -0.03229045
v -0.00370022 0.00347944 -0.02774719
v -0.00369381 0.00353318 -0.02318569
v -0.00347430 0.00309711 -0.01814453
v -0.00327969 0.00375347 -0.01334836
v -0.00244964 0.00316019 -0.00958108
v 0.00029042 0.00257410 -0.00748333
v -0.00363094 0.00405632 -0.00067490
v -0.00286354 0.00368876 0.00319847
v -0.00290875 0.00370343 0.00786853
v -0.00298962 0.00379716 0.01268919
v -0.00270030 0.00392034 0.01719333
v -0.00169982 0.00314365 0.02001269
v -0.00096423 0.00095346 0.02302877
v -0.00068815 0.00058113 0.02687789
v 0.00025584 0.00280922 0.02940187
v -0.00334795 0.00428951 0.04083649
v -0.00099013 0.00231454 0.04303246
v -0.00069733 0.00611754 -0.06880210
v -0.00043635 0.00876000 -0.07086666
v -0.00300760 0.00659659 -0.06405505
v 0.00030560 0.00842744 -0.06682807
v -0.00020758 0.00578806 -0.00513956
v -0.00035730 0.00575168 0.00038221
v 0.00027359 0.00560786 0.00566346
v -0.00037941 0.00553363 0.00992622
v 0.00035980 0.00536010 0.01370187
v -0.00009126 0.00506479 0.01757682
v -0.00054608 0.00593024 0.03219000
v -0.00117348 0.00648277 0.03578265
v 0.00008838 0.00541640 0.03994351
v -0.00145380 0.01038721 -0.06866653
v 0.00021838 0.01542520 0.02276000
v -0.00081599 0.01726929 0.02075090
v -0.00076288 0.01485983 0.02708041
v -0.00047948 0.01491049 0.03188315
v -0.00019607 0.01485992 0.03668599
v -0.00117734 0.01542524 0.04100655
v -0.00014293 0.01726926 0.04301554
v -0.00058940 0.01915250 0.02265377
v -0.00046828 0.01967998 0.02701243
v -0.00047949 0.01962174 0.03188336
v -0.00049068 0.01967987 0.03675410
v -0.00036952 0.01915228 0.04111251
v 0.00484789 -0.02151121 0.02269016
v 0.00382186 -0.01958544 0.02084050
v 0.00381747 -0.02196854 0.02701073
v 0.00415674 -0.02189846 0.03188654
v 0.00446056 -0.02192601 0.03675612
v 0.00343302 -0.02135373 0.04110351
v 0.00439344 -0.01954576 0.04299021
v 0.00225263 -0.01478686 -0.05395737
v 0.00525631 -0.01690233 -0.05551879
v 0.00432035 -0.01457508 -0.05726278
v 0.00163184 -0.01461146 -0.04959911
v 0.00426796 -0.01722750 -0.05055235
v 0.00217191 -0.01406982 -0.04518224
v 0.00376289 -0.01677325 -0.04685297
v 0.00554768 -0.01444289 -0.04370067
v 0.00409351 -0.01769819 0.02278004
v 0.00427655 -0.01713316 0.02714515
v 0.00424816 -0.01720193 0.03201185
v 0.00416759 -0.01717534 0.03682500
v 0.00421502 -0.01770919 0.04111156
v 0.00424621 -0.01237033 -0.05530535
v 0.00534094 -0.00979500 -0.05270227
v 0.00199264 -0.01112949 -0.05155476
v 0.00170781 -0.01061045 -0.04715503
v 0.00399638 -0.01244301 -0.04109896
v 0.00236532 -0.01064271 -0.04188584
v 0.00268528 -0.01023077 -0.03682669
v 0.00402106 -0.01162975 -0.03684683
v 0.00267939 -0.01039732 -0.03227588
v 0.00406190 -0.01176941 -0.03226247
v 0.00250347 -0.00995431 -0.02728329
v 0.00408067 -0.01192330 -0.02777277
v 0.00201109 -0.00998988 -0.02205670
v 0.00409433 -0.01204594 -0.02318123
v 0.00203353 -0.01009894 -0.01743250
v 0.00406481 -0.01215168 -0.01852535
v 0.00246479 -0.00955689 -0.01308163
v 0.00377551 -0.01194102 -0.01490313
v 0.00458642 -0.01011696 -0.01191428
v 0.00436310 -0.00813248 -0.04929252
v 0.00384179 -0.00801830 -0.04534556
v 0.00470570 -0.00844490 -0.04157684
v 0.00400543 -0.00882834 -0.03684386
v 0.00406613 -0.00899312 -0.03229733
v 0.00414147 -0.00811305 -0.02801783
v 0.00452635 -0.00590646 -0.02511358
v 0.00237923 -0.00643186 -0.02397542
v 0.00199964 -0.00591135 -0.01961696
v 0.00210531 -0.00600641 -0.01495345
v 0.00377737 -0.00803492 -0.00860124
v 0.00186555 -0.00543414 -0.00924557
v 0.00439100 -0.00766860 -0.00410750
v 0.00388687 -0.00783298 -0.00013762
v 0.00394369 -0.00789238 0.00458114
v 0.00304485 -0.00778297 0.00937642
v 0.00227853 -0.00507905 0.01357316
v 0.00405623 -0.00537112 0.01065358
v 0.00129999 -0.00556046 0.01816847
v 0.00459541 -0.00761649 0.03261681
v 0.00348320 -0.00629177 0.03018507
v 0.00301251 -0.00789971 0.03676330
v 0.00247031 -0.00646862 0.04084869
v 0.00491926 -0.00542012 0.03945888
v 0.00371774 -0.00403617 -0.02214356
v 0.00410044 -0.00384465 -0.01847544
v 0.00422692 -0.00396294 -0.01374510
v 0.00467127 -0.00396968 -0.00970064
v 0.00378150 -0.00344687 -0.00566210
v 0.00226504 -0.00064188 -0.00460980
v 0.00425898 -0.00334197 -0.00099068
v 0.00286068 -0.00110760 -0.00013351
v 0.00423271 -0.00344481 0.00363736
v 0.00285166 -0.00114867 0.00445041
v 0.00432808 -0.00381102 0.00798640
v 0.00271312 -0.00132458 0.00971903
v 0.00196620 -0.00031790 0.01438395
v 0.00212360 -0.00177779 0.01777646
v 0.00123581 -0.00128224 0.02247688
v 0.00122458 -0.00079353 0.02687646
v 0.00345186 -0.00183443 0.02933732
v 0.00385369 -0.00394409 0.04193271
v 0.00294167 -0.00054946 0.04305543
v 0.00217370 0.00408145 -0.02250223
v 0.00448865 0.00181766 -0.02234295
v 0.00367034 0.00361040 -0.02525493
v 0.00203527 0.00369154 -0.01744390
v 0.00414444 0.00163699 -0.01866178
v 0.00226063 0.00326218 -0.01321215
v 0.00416803 0.00180475 -0.01399518
v 0.00223293 0.00474440 -0.01021083
v 0.00357725 0.00186576 -0.00869548
v 0.00425775 0.00113924 -0.00370961
v 0.00426078 0.00120798 0.00078258
v 0.00430846 0.00121118 0.00541068
v 0.00402015 0.00198580 0.00934116
v 0.00196648 0.00319198 0.01359211
v 0.00378455 0.00416533 0.01113308
v 0.00126423 0.00250721 0.01868227
v 0.00466039 0.00288273 0.03025398
v 0.00243296 0.00321697 0.04194273
v 0.00393293 0.00428663 0.03948145
v 0.00491630 0.00183022 0.04088230
v 0.00328735 0.00669071 -0.06874715
v 0.00392177 0.00834140 -0.07083144
v 0.00382324 0.00819930 -0.06745012
v 0.00184776 0.00875874 -0.05007749
v 0.00534748 0.00594917 -0.05020074
v 0.00364884 0.00833554 -0.05312262
v 0.00190943 0.00774072 -0.04538183
v 0.00387231 0.00579201 -0.04672950
v 0.00234457 0.00861433 -0.04158092
v 0.00448470 0.00626659 -0.04186895
v 0.00261202 0.00802959 -0.03682914
v 0.00403601 0.00668430 -0.03682018
v 0.00270236 0.00813709 -0.03230947
v 0.00407868 0.00673656 -0.03227613
v 0.00250472 0.00740725 -0.02750865
v 0.00407014 0.00581329 -0.02808558
v 0.00216998 0.00839214 -0.02376308
v 0.00198683 0.00780763 -0.01952014
v 0.00227914 0.00746252 -0.01443904
v 0.00381313 0.00796314 -0.01161254
v 0.00358814 0.00589903 -0.00854370
v 0.00453241 0.00541311 -0.00514655
v 0.00400192 0.00557568 -0.00108176
v 0.00404899 0.00561769 0.00351560
v 0.00359361 0.00546060 0.00856621
v 0.00354696 0.00540210 0.03161097
v 0.00349777 0.00571424 0.03573431
v 0.00192134 0.01233405 -0.06959518
v 0.00437902 0.01242138 -0.07091543
v 0.00386654 0.01130570 -0.06711606
v 0.00223103 0.01165708 -0.05430376
v 0.00521016 0.01042199 -0.05605045
v 0.00434239 0.01319024 -0.05722087
v 0.00171733 0.01297019 -0.05133257
v 0.00188021 0.01193760 -0.04662478
v 0.00444787 0.01185941 -0.04346654
v 0.00425072 0.00959608 -0.04077160
v 0.00399407 0.00936769 -0.03684916
v 0.00406285 0.00954180 -0.03227733
v 0.00412073 0.00962271 -0.02766039
v 0.00410196 0.00976340 -0.02301043
v 0.00413909 0.00986936 -0.01833434
v 0.00457076 0.00966501 -0.01460173
v 0.00516021 0.01436182 -0.06805187
v 0.00469622 0.01472448 -0.05450415
v 0.00431356 0.01502438 -0.04938399
v 0.00489488 0.01451356 -0.04564621
v 0.00489556 0.01554697 0.02281394
v 0.00383278 0.01736860 0.02090213
v 0.00391591 0.01494271 0.02718141
v 0.00419439 0.01496516 0.03203127
v 0.00443309 0.01491327 0.03682097
v 0.00341332 0.01542807 0.04114123
v 0.00433874 0.01734543 0.04299002
v 0.00401882 0.01918853 0.02277181
v 0.00417096 0.01972300 0.02713782
v 0.00416810 0.01967721 0.03200722
v 0.00413718 0.01974952 0.03682504
v 0.00417668 0.01923441 0.04111708
v 0.00958275 -0.02162839 0.02283065
v 0.00876345 -0.01896534 0.02067309
v 0.00852838 -0.02210145 0.02713779
v 0.00880002 -0.02198091 0.03200656
v 0.00903023 -0.02202209 0.03682277
v 0.00797339 -0.02147438 0.04110826
v 0.00938404 -0.01919619 0.04318693
v 0.00766187 -0.01527361 -0.06868984
v 0.00916479 -0.01592371 -0.06868931
v 0.00868081 -0.01484044 -0.07045384
v 0.00739483 -0.01490588 -0.06478575
v 0.00883019 -0.01629472 -0.06478138
v 0.00651044 -0.01491830 -0.06023510
v 0.00827611 -0.01654790 -0.05947056
v 0.00895267 -0.01696647 -0.05453050
v 0.00834635 -0.01719611 -0.05043226
v 0.00746526 -0.01691443 -0.04625825
v 0.00919212 -0.01405130 -0.04421049
v 0.00811749 -0.01721102 0.02279909
v 0.00833004 -0.01662870 0.02718768
v 0.00833626 -0.01672875 0.03206089
v 0.00825418 -0.01672500 0.03682216
v 0.00848106 -0.01699340 0.04111517
v 0.00833394 -0.01376808 -0.06867060
v 0.00878223 -0.01351741 -0.06475250
v 0.00803098 -0.01345053 -0.05965702
v 0.00835302 -0.01240991 -0.05577160
v 0.00904829 -0.01056501 -0.05291927
v 0.00564073 -0.01039007 -0.04078949
v 0.00795846 -0.01053784 -0.04345302
v 0.00534122 -0.01022733 -0.03686400
v 0.00544864 -0.01036520 -0.03228392
v 0.00569206 -0.00967735 -0.02751686
v 0.00617390 -0.00999940 -0.02321042
v 0.00622001 -0.01006983 -0.01850360
v 0.00589066 -0.01016159 -0.01412914
v 0.00792716 -0.00828953 -0.05057391
v 0.00796970 -0.00801949 -0.04656841
v 0.00586686 -0.00582747 -0.02282716
v 0.00623827 -0.00592097 -0.01844129
v 0.00627394 -0.00603429 -0.01368460
v 0.00581974 -0.00640997 -0.00935410
v 0.00562850 -0.00577511 -0.00454122
v 0.00567046 -0.00586528 0.00012030
v 0.00573178 -0.00592899 0.00480746
v 0.00554851 -0.00635183 0.00846695
v 0.00621304 -0.00466863 0.03214150
v 0.00619323 -0.00550223 0.03619953
v 0.00656916 0.00012133 0.03222847
v 0.00711442 -0.00187437 0.03575765
v 0.00604694 -0.00165368 0.03997073
v 0.00597941 0.00460452 -0.02348275
v 0.00624035 0.00364894 -0.01859674
v 0.00613683 0.00310477 -0.01465012
v 0.00588456 0.00390153 -0.00965566
v 0.00578306 0.00351182 -0.00466919
v 0.00579467 0.00363539 -0.00020206
v 0.00578480 0.00367372 0.00434499
v 0.00553029 0.00336673 0.00802211
v 0.00604776 0.00399693 0.03267278
v 0.00634738 0.00238268 0.03681991
v 0.00639658 0.00889535 -0.06873574
v 0.00913832 0.00611131 -0.04965467
v 0.00744302 0.00757672 -0.05279667
v 0.00761182 0.00589302 -0.04577868
v 0.00627505 0.00792350 -0.04108543
v 0.00832275 0.00941175 -0.04369131
v 0.00541806 0.00802240 -0.03684019
v 0.00543918 0.00814127 -0.03224399
v 0.00569429 0.00767373 -0.02724935
v 0.00605741 0.00840706 -0.02237423
v 0.00624007 0.00785582 -0.01840809
v 0.00607576 0.00689740 -0.01344521
v 0.01020126 0.01048735 -0.06930875
v 0.00882922 0.01201058 -0.07078191
v 0.00897708 0.01084463 -0.06506415
v 0.00665578 0.01284752 -0.06405956
v 0.00650406 0.01288270 -0.06007884
v 0.00836479 0.01123361 -0.05929233
v 0.00895102 0.00976124 -0.05491057
v 0.00796401 0.01305956 -0.04426623
v 0.00824493 0.01483400 -0.06929899
v 0.00914334 0.01452803 -0.06506235
v 0.00801873 0.01432152 -0.05953685
v 0.00891835 0.01463487 -0.05583459
v 0.00837845 0.01492847 -0.05150302
v 0.00840989 0.01465722 -0.04694968
v 0.00880158 0.01474698 0.02225506
v 0.00903340 0.01703359 0.02074702
v 0.00800663 0.01446940 0.02608399
v 0.00822775 0.01451103 0.03092883
v 0.00842637 0.01446048 0.03570649
v 0.00802353 0.01498094 0.04070194
v 0.00909216 0.01672249 0.04316306
v 0.00868104 0.01934177 0.02280929
v 0.00886230 0.01983618 0.02718229
v 0.00885097 0.01975582 0.03205829
v 0.00881568 0.01981122 0.03682630
v 0.00879206 0.01932433 0.04110766
v 0.01325729 -0.02120476 0.02329480
v 0.01300466 -0.01925353 0.02055804
v 0.01269257 -0.02160491 0.02719200
v 0.01285153 -0.02145992 0.03204645
v 0.01304031 -0.02150470 0.03682968
v 0.01226698 -0.02127324 0.04111724
v 0.01440480 -0.01861075 0.04327210
v 0.00983685 -0.01441818 -0.06867007
v 0.01021759 -0.01490625 -0.06474812
v 0.01019294 -0.01505244 -0.05989361
v 0.01052549 -0.01426791 -0.05493784
v 0.01109335 -0.01450952 -0.05036939
v 0.01056296 -0.01515374 -0.04654621
v 0.01102202 -0.01556717 0.02216421
v 0.01381491 -0.01480308 0.02038521
v 0.01112781 -0.01491838 0.02597058
v 0.01119876 -0.01500002 0.03080656
v 0.01111090 -0.01505540 0.03559206
v 0.01129551 -0.01499579 0.04015797
v 0.01321304 -0.01540495 0.04338119
v 0.01075932 -0.01047519 -0.05025226
v 0.01084296 -0.01143499 -0.04621820
v 0.01340575 -0.01288555 0.02360843
v 0.01346536 -0.01270095 0.02817435
v 0.01340997 -0.01278880 0.03295985
v 0.01332833 -0.01271785 0.03779582
v 0.01397713 -0.01261206 0.04160220
v 0.01092875 0.00917044 -0.05069572
v 0.01069101 0.00767279 -0.04684791
v 0.01291859 0.01134605 -0.06813470
v 0.01302434 0.01228888 -0.07035531
v 0.01117981 0.01271079 -0.06413355
v 0.01338538 0.01313012 -0.06718824
v 0.01023049 0.01270769 -0.05973462
v 0.01054582 0.01229977 -0.05460686
v 0.01095813 0.01289037 -0.04965507
v 0.01083601 0.01140005 -0.04621344
v 0.01117183 0.01276092 0.02379946
v 0.01394160 0.01039301 0.02223662
v 0.01307097 0.01319528 0.02049489
v 0.01104488 0.01281911 0.02847071
v 0.01331426 0.01049654 0.02608376
v 0.01121883 0.01279657 0.03324854
v 0.01341297 0.01056748 0.03093970
v 0.01119262 0.01271642 0.03798111
v 0.01347427 0.01048094 0.03570093
v 0.01116101 0.01334794 0.04170607
v 0.01342557 0.01066552 0.04021452
v 0.01391933 0.01257822 0.04340717
v 0.01254445 0.01415637 -0.06906685
v 0.01425501 0.01642297 0.02062023
v 0.01321420 0.01698846 0.04328825
v 0.01241481 0.01896690 0.02225474
v 0.01292408 0.01938452 0.02607383
v 0.01295648 0.01923818 0.03094004
v 0.01291802 0.01926322 0.03571989
v 0.01292928 0.01906566 0.04024142
v 0.01572063 -0.01920779 0.02216308
v 0.01572195 -0.01982167 0.02595524
v 0.01572399 -0.01973469 0.03078250
v 0.01587456 -0.01969189 0.03560919
v 0.01564182 -0.01976417 0.04018626
v 0.01817412 -0.01723186 0.02358015
v 0.01702071 -0.01599485 0.02049431
v 0.01810185 -0.01746460 0.02815722
v 0.01814464 -0.01731403 0.03298391
v 0.01823162 -0.01731200 0.03781116
v 0.01761775 -0.01731067 0.04160332
v 0.01766349 -0.01459470 0.04320837
v 0.01540336 -0.01007110 0.02265124
v 0.01760615 -0.01097409 0.02057947
v 0.01513495 -0.00984422 0.02694424
v 0.01513870 -0.00992630 0.03170551
v 0.01503866 -0.00992008 0.03657873
v 0.01562098 -0.00970753 0.04096732
v 0.01737530 -0.01035349 0.04309331
v 0.01611915 -0.00580506 0.02265485
v 0.01795572 -0.00598348 0.02077620
v 0.01558530 -0.00575763 0.02694141
v 0.01561189 -0.00583820 0.03175456
v 0.01554311 -0.00586660 0.03662126
v 0.01610814 -0.00568355 0.04098637
v 0.01799540 -0.00541191 0.04292591
v 0.01605600 -0.00115274 0.02266824
v 0.01791603 -0.00139558 0.02077171
v 0.01551887 -0.00105601 0.02701415
v 0.01556057 -0.00111056 0.03188322
v 0.01551886 -0.00116511 0.03675230
v 0.01605603 -0.00106840 0.04109820
v 0.01791597 -0.00082558 0.04299460
v 0.01610933 0.00346237 0.02277449
v 0.01799750 0.00319060 0.02083676
v 0.01554314 0.00364545 0.02713927
v 0.01561121 0.00361703 0.03200698
v 0.01558318 0.00353653 0.03682200
v 0.01611581 0.00358415 0.04111006
v 0.01795393 0.00376251 0.04298982
v 0.01562499 0.00748686 0.02279567
v 0.01736577 0.00813313 0.02068114
v 0.01504145 0.00769920 0.02718444
v 0.01513870 0.00770471 0.03205799
v 0.01513082 0.00762260 0.03681878
v 0.01540000 0.00785041 0.04111106
v 0.01760404 0.00875384 0.04318299
v 0.01478413 0.01273809 -0.06926802
v 0.01763913 0.01237829 0.02058342
v 0.01708547 0.01376408 0.04329397
v 0.01801080 0.01744886 -0.06994504
v 0.01620814 0.01699610 -0.06887486
v 0.01803091 0.01591240 -0.06931201
v 0.01805894 0.01654912 -0.06780469
v 0.01759486 0.01510018 0.02223694
v 0.01556851 0.01759228 0.02377267
v 0.01822269 0.01509614 0.02606725
v 0.01585301 0.01749965 0.02845253
v 0.01814233 0.01509316 0.03091514
v 0.01578845 0.01748645 0.03327187
v 0.01811555 0.01523864 0.03571733
v 0.01584136 0.01755250 0.03800479
v 0.01820698 0.01500162 0.04024234
v 0.01585918 0.01695220 0.04171870
v 0.01803882 0.01808559 -0.06843772
v 0.01968320 -0.01385702 0.02264916
v 0.01991466 -0.01463035 0.02693673
v 0.01986988 -0.01444157 0.03171995
v 0.02001486 -0.01428262 0.03657440
v 0.01961472 -0.01484733 0.04047160
v 0.01988434 -0.00956343 0.02265815
v 0.02043205 -0.01062027 0.02694364
v 0.02039087 -0.01039006 0.03175985
v 0.02051141 -0.01011843 0.03662862
v 0.02003835 -0.01117279 0.04093576
v 0.01976368 -0.00502306 0.02266289
v 0.02033596 -0.00605061 0.02701029
v 0.02030841 -0.00574678 0.03187987
v 0.02037849 -0.00540751 0.03675568
v 0.01992117 -0.00643793 0.04107625
v 0.01978476 -0.00045956 0.02265663
v 0.02028795 -0.00145581 0.02700102
v 0.02025138 -0.00111057 0.03188328
v 0.02028802 -0.00076532 0.03676559
v 0.01978452 -0.00176160 0.04110970
v 0.01992296 0.00421658 0.02268813
v 0.02037865 0.00318637 0.02701063
v 0.02030847 0.00352564 0.03188658
v 0.02033599 0.00382947 0.03675620
v 0.01976372 0.00280193 0.04110368
v 0.02004263 0.00895087 0.02282155
v 0.02051200 0.00789719 0.02713123
v 0.02038999 0.00816922 0.03200168
v 0.02043010 0.00839959 0.03681972
v 0.01988131 0.00734271 0.04110666
v 0.01962040 0.01262451 0.02328951
v 0.02001612 0.01206049 0.02718741
v 0.01986734 0.01222116 0.03204349
v 0.01991057 0.01241049 0.03682603
v 0.01967905 0.01163687 0.04111262
v 0.02204515 0.01551620 -0.06890628
v 0.02232616 0.01785151 -0.07050187
v 0.02259267 0.01742412 -0.06724786
v 0.02168109 0.01932058 -0.06884345
v 0.02617196 0.01569950 -0.06847446
v 0.02689096 0.01740981 -0.07060544
v 0.02819726 0.01813669 -0.06712321
v 0.02499695 0.02154757 -0.06927526
v 0.02759824 0.02158679 -0.07062652
v 0.02628716 0.02099221 -0.06714428
v 0.02831961 0.02338821 -0.06850669
v 0.02951028 0.01748395 -0.06924304
v 0.03171561 0.01989045 -0.06846964
v 0.03116205 0.02082636 -0.07030798
v 0.03084264 0.02193578 -0.06744175
v 0.03126029 0.02337007 -0.06928009
v 0.03302523 0.02219680 -0.06887486
f 3 2 1
f 5 4 1
f 5 1 2
f 7 6 4
f 7 4 5
f 9 8 6
f 9 6 7
f 11 10 8
f 11 8 9
f 12 10 11
f 3 1 13
f 3 13 14
f 15 1 4
f 13 1 15
f 16 4 6
f 15 4 16
f 17 6 8
f 16 6 17
f 18 8 10
f 17 8 18
f 10 12 19
f 10 19 18
f 14 13 20
f 14 20 21
f 22 13 15
f 20 13 22
f 23 15 16
f 22 15 23
f 24 16 17
f 23 16 24
f 25 17 18
f 24 17 25
f 18 19 26
f 18 26 25
f 29 28 27
f 31 30 27
f 31 27 28
f 33 32 30
f 33 30 31
f 34 32 33
f 21 20 35
f 21 35 36
f 37 20 22
f 35 20 37
f 38 22 23
f 37 22 38
f 39 23 24
f 38 23 39
f 40 24 25
f 39 24 40
f 25 26 41
f 25 41 40
f 42 29 27
f 42 27 30
f 42 30 43
f 43 30 32
f 43 32 44
f 44 32 34
f 36 35 45
f 36 45 46
f 47 35 37
f 45 35 47
f 48 37 38
f 47 37 48
f 49 38 39
f 48 38 49
f 50 39 40
f 49 39 50
f 40 41 51
f 40 51 50
f 46 45 52
f 46 52 53
f 54 45 47
f 52 45 54
f 55 47 48
f 54 47 55
f 56 48 49
f 55 48 56
f 57 49 50
f 56 49 57
f 50 51 58
f 50 58 57
f 53 52 59
f 53 59 60
f 61 52 54
f 59 52 61
f 62 54 55
f 61 54 62
f 63 55 56
f 62 55 63
f 64 56 57
f 63 56 64
f 57 58 65
f 57 65 64
f 66 60 59
f 66 59 61
f 66 61 67
f 67 61 62
f 67 62 68
f 68 62 63
f 68 63 69
f 69 63 64
f 69 64 70
f 70 64 65
f 73 72 71
f 75 74 71
f 75 71 72
f 77 76 74
f 77 74 75
f 79 78 76
f 79 76 77
f 81 80 78
f 81 78 79
f 82 80 81
f 73 71 2
f 3 73 2
f 83 73 3
f 2 71 5
f 5 71 74
f 5 74 7
f 7 74 76
f 7 76 9
f 9 76 78
f 9 78 11
f 11 78 80
f 12 11 80
f 82 12 80
f 84 12 82
f 14 86 85
f 83 14 85
f 3 14 83
f 88 87 86
f 86 87 85
f 90 89 88
f 88 89 87
f 92 91 90
f 90 91 89
f 94 93 92
f 92 93 91
f 84 93 94
f 19 84 94
f 12 84 19
f 21 95 86
f 21 86 14
f 86 96 88
f 86 95 96
f 88 97 90
f 88 96 97
f 90 98 92
f 90 97 98
f 92 99 94
f 92 98 99
f 99 26 19
f 99 19 94
f 29 100 28
f 28 100 101
f 102 28 101
f 31 28 102
f 31 103 33
f 102 103 31
f 105 104 34
f 33 105 34
f 103 105 33
f 107 106 104
f 107 104 105
f 109 108 106
f 109 106 107
f 111 110 108
f 111 108 109
f 113 112 110
f 113 110 111
f 114 112 113
f 36 115 95
f 36 95 21
f 95 116 96
f 95 115 116
f 96 117 97
f 96 116 117
f 97 118 98
f 97 117 118
f 98 119 99
f 98 118 119
f 119 41 26
f 119 26 99
f 42 100 29
f 120 101 100
f 42 120 100
f 43 120 42
f 121 43 44
f 121 120 43
f 44 34 104
f 122 44 104
f 121 44 122
f 122 104 106
f 122 106 123
f 123 106 108
f 123 108 124
f 124 108 110
f 124 110 125
f 125 110 112
f 125 112 126
f 126 112 114
f 46 127 115
f 46 115 36
f 115 128 116
f 115 127 128
f 116 129 117
f 116 128 129
f 117 130 118
f 117 129 130
f 118 131 119
f 118 130 131
f 131 51 41
f 131 41 119
f 53 132 127
f 53 127 46
f 127 133 128
f 127 132 133
f 128 134 129
f 128 133 134
f 129 135 130
f 129 134 135
f 130 136 131
f 130 135 136
f 136 58 51
f 136 51 131
f 138 137 132
f 53 138 132
f 60 138 53
f 132 137 133
f 133 137 139
f 133 139 134
f 134 139 140
f 134 140 135
f 135 140 141
f 135 141 136
f 136 141 142
f 58 136 142
f 143 58 142
f 65 58 143
f 60 66 144
f 145 60 144
f 138 60 145
f 67 146 66
f 66 146 144
f 68 147 67
f 67 147 146
f 69 148 68
f 68 148 147
f 70 149 69
f 69 149 148
f 150 149 70
f 65 150 70
f 143 150 65
f 151 145 144
f 151 144 146
f 151 146 152
f 152 146 147
f 152 147 153
f 153 147 148
f 153 148 154
f 154 148 149
f 154 149 155
f 155 149 150
f 157 156 72
f 157 72 73
f 72 158 75
f 156 158 72
f 75 159 77
f 158 159 75
f 77 160 79
f 159 160 77
f 79 161 81
f 160 161 79
f 82 81 161
f 82 161 162
f 83 164 163
f 157 83 163
f 73 83 157
f 166 165 164
f 164 165 163
f 168 167 166
f 166 167 165
f 170 169 168
f 168 169 167
f 172 171 170
f 170 171 169
f 162 171 172
f 84 162 172
f 82 162 84
f 85 164 83
f 164 85 87
f 164 87 166
f 166 87 89
f 166 89 168
f 168 89 91
f 168 91 170
f 170 91 93
f 170 93 172
f 172 93 84
f 101 173 102
f 174 103 102
f 174 102 173
f 175 105 103
f 175 103 174
f 176 107 105
f 176 105 175
f 177 109 107
f 177 107 176
f 109 177 178
f 179 109 178
f 111 109 179
f 111 180 113
f 179 180 111
f 182 181 114
f 113 182 114
f 180 182 113
f 184 183 181
f 184 181 182
f 186 185 183
f 186 183 184
f 188 187 185
f 188 185 186
f 190 189 187
f 190 187 188
f 192 191 189
f 192 189 190
f 193 191 192
f 173 101 120
f 196 195 194
f 198 197 196
f 195 196 197
f 173 121 174
f 121 173 120
f 200 199 198
f 197 198 199
f 174 122 175
f 122 174 121
f 123 201 122
f 123 199 201
f 199 123 202
f 176 202 123
f 202 176 200
f 201 200 176
f 176 175 201
f 201 175 122
f 199 200 201
f 176 123 124
f 176 124 177
f 203 178 177
f 124 203 177
f 125 203 124
f 204 125 126
f 204 203 125
f 126 114 181
f 205 126 181
f 204 126 205
f 205 181 183
f 205 183 206
f 206 183 185
f 206 185 207
f 207 185 187
f 207 187 208
f 208 187 189
f 208 189 209
f 209 189 191
f 209 191 210
f 210 191 193
f 211 194 195
f 211 195 197
f 211 197 212
f 212 197 199
f 212 199 213
f 213 199 202
f 138 214 137
f 215 139 137
f 215 137 214
f 216 140 139
f 216 139 215
f 217 141 140
f 217 140 216
f 218 142 141
f 218 141 217
f 218 143 142
f 220 219 214
f 138 220 214
f 145 220 138
f 214 219 215
f 215 219 221
f 215 221 216
f 216 221 222
f 216 222 217
f 217 222 223
f 217 223 218
f 218 223 224
f 143 218 224
f 225 143 224
f 150 143 225
f 226 220 145
f 226 145 151
f 227 151 152
f 227 226 151
f 228 152 153
f 228 227 152
f 229 153 154
f 229 228 153
f 230 154 155
f 230 229 154
f 155 150 225
f 155 225 230
f 232 231 156
f 232 156 157
f 156 233 158
f 231 233 156
f 158 234 159
f 233 234 158
f 159 235 160
f 234 235 159
f 160 236 161
f 235 236 160
f 162 161 236
f 162 236 237
f 238 232 157
f 238 157 163
f 239 163 165
f 239 238 163
f 240 165 167
f 240 239 165
f 241 167 169
f 241 240 167
f 242 169 171
f 242 241 169
f 171 162 237
f 171 237 242
f 245 244 243
f 247 246 243
f 247 243 244
f 248 246 247
f 178 249 179
f 250 180 179
f 250 179 249
f 251 182 180
f 251 180 250
f 252 184 182
f 252 182 251
f 253 186 184
f 253 184 252
f 254 188 186
f 254 186 253
f 188 254 255
f 256 188 255
f 190 188 256
f 190 257 192
f 256 257 190
f 259 258 193
f 192 259 193
f 257 259 192
f 261 260 258
f 261 258 259
f 263 262 260
f 263 260 261
f 265 264 262
f 265 262 263
f 267 266 264
f 267 264 265
f 269 268 266
f 269 266 267
f 270 268 269
f 245 243 271
f 245 271 272
f 273 243 246
f 271 243 273
f 246 248 274
f 275 246 274
f 273 246 275
f 276 275 274
f 278 277 196
f 278 196 194
f 196 279 198
f 277 279 196
f 198 280 200
f 279 280 198
f 282 281 202
f 200 282 202
f 280 282 200
f 284 283 281
f 284 281 282
f 286 285 284
f 285 249 284
f 178 284 249
f 284 178 283
f 203 283 178
f 283 203 285
f 285 287 283
f 286 287 285
f 285 203 249
f 289 288 286
f 287 286 288
f 249 204 250
f 204 249 203
f 291 290 289
f 288 289 290
f 250 205 251
f 205 250 204
f 293 292 291
f 290 291 292
f 251 206 252
f 206 251 205
f 295 294 293
f 292 293 294
f 252 207 253
f 207 252 206
f 297 296 295
f 294 295 296
f 253 208 254
f 208 253 207
f 209 254 208
f 254 209 255
f 298 255 209
f 255 298 297
f 296 297 298
f 210 299 209
f 209 299 298
f 193 258 210
f 258 299 210
f 258 300 299
f 260 302 301
f 300 260 301
f 258 260 300
f 302 260 262
f 302 262 303
f 303 262 264
f 303 264 304
f 304 264 266
f 304 266 305
f 305 266 268
f 305 268 306
f 306 268 270
f 272 271 307
f 272 307 308
f 309 271 273
f 307 271 309
f 275 311 310
f 309 275 310
f 273 275 309
f 311 275 276
f 314 313 312
f 315 312 211
f 312 278 211
f 278 194 211
f 278 312 313
f 315 211 316
f 211 317 316
f 211 212 317
f 318 212 213
f 318 317 212
f 213 202 281
f 319 213 281
f 318 213 319
f 319 281 283
f 319 283 320
f 320 283 287
f 320 287 321
f 321 287 288
f 321 288 322
f 322 288 290
f 322 290 323
f 323 290 292
f 323 292 324
f 324 292 294
f 324 294 325
f 325 294 296
f 325 296 326
f 326 296 298
f 326 298 327
f 327 298 299
f 327 299 328
f 328 299 300
f 328 300 329
f 329 300 301
f 330 308 307
f 330 307 309
f 330 309 331
f 331 309 310
f 332 314 312
f 332 312 315
f 332 315 333
f 333 315 316
f 335 334 219
f 335 219 220
f 219 336 221
f 334 336 219
f 221 337 222
f 336 337 221
f 222 338 223
f 337 338 222
f 223 339 224
f 338 339 223
f 225 224 339
f 225 339 340
f 341 335 220
f 341 220 226
f 342 226 227
f 342 341 226
f 343 227 228
f 343 342 227
f 344 228 229
f 344 343 228
f 345 229 230
f 345 344 229
f 230 225 340
f 230 340 345
f 347 346 231
f 347 231 232
f 231 348 233
f 346 348 231
f 233 349 234
f 348 349 233
f 234 350 235
f 349 350 234
f 235 351 236
f 350 351 235
f 237 236 351
f 237 351 352
f 353 347 232
f 353 232 238
f 354 238 239
f 354 353 238
f 355 239 240
f 355 354 239
f 356 240 241
f 356 355 240
f 357 241 242
f 357 356 241
f 242 237 352
f 242 352 357
f 360 359 358
f 362 361 358
f 362 358 359
f 364 363 361
f 364 361 362
f 366 365 363
f 366 363 364
f 368 367 365
f 368 365 366
f 370 369 367
f 370 367 368
f 371 369 370
f 373 372 244
f 373 244 245
f 244 374 247
f 372 374 244
f 376 375 248
f 247 376 248
f 374 376 247
f 377 375 376
f 255 378 256
f 379 257 256
f 379 256 378
f 380 360 358
f 257 380 358
f 259 257 358
f 380 257 379
f 259 358 261
f 261 358 361
f 261 361 263
f 263 361 363
f 263 363 265
f 265 363 365
f 265 365 267
f 267 365 367
f 267 367 269
f 269 367 369
f 382 381 270
f 382 270 269
f 371 382 269
f 369 371 269
f 384 383 381
f 384 381 382
f 384 373 383
f 373 272 383
f 373 245 272
f 375 274 248
f 276 274 375
f 377 276 375
f 385 276 377
f 278 386 277
f 387 279 277
f 387 277 386
f 388 280 279
f 388 279 387
f 389 282 280
f 389 280 388
f 390 284 282
f 390 282 389
f 391 286 284
f 391 284 390
f 392 289 286
f 392 286 391
f 393 291 289
f 393 289 392
f 394 293 291
f 394 291 393
f 395 295 293
f 395 293 394
f 396 297 295
f 396 295 395
f 378 255 297
f 396 378 297
f 397 378 396
f 378 398 379
f 378 397 398
f 380 379 399
f 399 379 398
f 400 301 302
f 303 401 302
f 302 401 400
f 304 402 303
f 303 402 401
f 305 403 304
f 304 403 402
f 306 404 305
f 305 404 403
f 405 404 306
f 405 306 270
f 406 405 270
f 381 406 270
f 406 381 383
f 406 383 407
f 383 272 407
f 272 408 407
f 272 308 408
f 409 310 311
f 410 409 311
f 276 410 311
f 385 410 276
f 412 411 313
f 412 313 314
f 313 411 278
f 411 413 278
f 413 386 278
f 413 411 414
f 413 316 317
f 387 413 317
f 386 413 387
f 387 317 318
f 387 318 388
f 388 318 319
f 388 319 389
f 389 319 320
f 389 320 390
f 390 320 321
f 390 321 391
f 391 321 322
f 391 322 392
f 392 322 323
f 392 323 393
f 393 323 324
f 393 324 394
f 394 324 325
f 394 325 395
f 395 325 326
f 395 326 396
f 396 326 327
f 396 327 397
f 397 327 328
f 397 328 398
f 415 399 398
f 328 415 398
f 329 415 328
f 329 301 400
f 416 329 400
f 415 329 416
f 416 400 401
f 416 401 417
f 417 401 402
f 417 402 418
f 418 402 403
f 418 403 419
f 419 403 404
f 419 404 420
f 420 404 405
f 421 408 308
f 421 308 330
f 422 330 331
f 422 421 330
f 331 310 409
f 423 331 409
f 422 331 423
f 423 409 410
f 424 412 314
f 424 314 332
f 333 413 414
f 424 333 414
f 332 333 424
f 413 333 316
f 426 425 334
f 426 334 335
f 334 427 336
f 425 427 334
f 336 428 337
f 427 428 336
f 337 429 338
f 428 429 337
f 338 430 339
f 429 430 338
f 340 339 430
f 340 430 431
f 432 426 335
f 432 335 341
f 433 341 342
f 433 432 341
f 434 342 343
f 434 433 342
f 435 343 344
f 435 434 343
f 436 344 345
f 436 435 344
f 345 340 431
f 345 431 436
f 438 437 346
f 438 346 347
f 346 439 348
f 437 439 346
f 348 440 349
f 439 440 348
f 349 441 350
f 440 441 349
f 350 442 351
f 441 442 350
f 352 351 442
f 352 442 443
f 446 445 444
f 448 447 444
f 448 444 445
f 450 449 447
f 450 447 448
f 451 449 450
f 452 438 347
f 452 347 353
f 453 353 354
f 453 452 353
f 454 354 355
f 454 453 354
f 455 355 356
f 455 454 355
f 456 356 357
f 456 455 356
f 357 352 443
f 357 443 456
f 457 446 444
f 459 458 457
f 444 459 457
f 447 459 444
f 460 447 449
f 459 447 460
f 449 451 461
f 462 449 461
f 460 449 462
f 464 463 462
f 464 462 461
f 466 465 463
f 466 463 464
f 468 467 465
f 468 465 466
f 470 469 467
f 470 467 468
f 472 471 469
f 472 469 470
f 474 473 471
f 474 471 472
f 475 473 474
f 476 458 459
f 476 459 460
f 476 460 477
f 477 460 462
f 477 462 478
f 478 462 463
f 478 463 479
f 479 463 465
f 479 465 480
f 480 465 467
f 480 467 481
f 483 482 481
f 467 483 481
f 469 483 467
f 484 469 471
f 483 469 484
f 485 471 473
f 484 471 485
f 473 475 486
f 487 473 486
f 485 473 487
f 359 360 487
f 486 359 487
f 488 359 486
f 359 489 362
f 488 489 359
f 362 490 364
f 489 490 362
f 364 491 366
f 490 491 364
f 491 493 492
f 368 491 492
f 366 491 368
f 494 370 368
f 494 368 492
f 494 371 370
f 496 495 372
f 496 372 373
f 372 497 374
f 495 497 372
f 497 499 498
f 376 497 498
f 374 497 376
f 498 377 376
f 500 482 483
f 500 483 484
f 500 484 501
f 501 484 485
f 501 485 502
f 502 485 487
f 502 487 503
f 360 380 487
f 380 504 487
f 504 503 487
f 504 380 505
f 507 506 505
f 505 506 504
f 509 508 507
f 507 508 506
f 511 510 509
f 509 510 508
f 510 511 493
f 511 492 493
f 511 512 492
f 492 513 494
f 492 512 513
f 514 382 371
f 494 514 371
f 513 514 494
f 515 384 382
f 515 382 514
f 515 516 384
f 516 373 384
f 516 496 373
f 499 517 498
f 377 498 517
f 518 377 517
f 385 377 518
f 521 520 519
f 523 522 519
f 523 519 520
f 525 524 522
f 525 522 523
f 527 526 524
f 527 524 525
f 527 528 505
f 399 527 505
f 380 399 505
f 526 527 399
f 505 528 507
f 507 528 529
f 507 529 509
f 509 529 530
f 509 530 511
f 511 530 531
f 533 532 531
f 532 511 531
f 532 512 511
f 512 534 513
f 512 532 534
f 534 405 406
f 514 534 406
f 513 534 514
f 514 406 407
f 514 407 515
f 407 408 515
f 408 516 515
f 408 535 516
f 538 537 536
f 518 538 536
f 410 518 536
f 385 518 410
f 540 539 411
f 540 411 412
f 414 411 539
f 414 539 541
f 544 543 542
f 546 545 542
f 546 542 543
f 548 547 545
f 548 545 546
f 550 549 547
f 550 547 548
f 552 551 549
f 552 549 550
f 554 553 551
f 554 551 552
f 553 554 521
f 519 553 521
f 555 553 519
f 556 519 522
f 555 519 556
f 557 522 524
f 556 522 557
f 526 559 558
f 557 526 558
f 524 526 557
f 559 526 399
f 415 559 399
f 560 559 415
f 561 415 416
f 561 560 415
f 562 416 417
f 562 561 416
f 563 417 418
f 563 562 417
f 419 532 533
f 563 419 533
f 418 419 563
f 532 419 420
f 532 420 534
f 534 420 405
f 564 535 408
f 564 408 421
f 565 421 422
f 565 564 421
f 423 536 537
f 565 423 537
f 422 423 565
f 536 423 410
f 412 424 566
f 567 412 566
f 540 412 567
f 568 566 424
f 414 568 424
f 541 568 414
f 571 570 569
f 569 570 544
f 542 569 544
f 572 569 542
f 573 542 545
f 572 542 573
f 547 575 574
f 573 547 574
f 545 547 573
f 575 547 549
f 575 549 576
f 576 549 551
f 576 551 577
f 577 551 553
f 577 553 578
f 578 553 555
f 578 555 579
f 579 555 556
f 579 556 580
f 580 556 557
f 580 557 581
f 581 557 558
f 582 567 566
f 582 566 568
f 583 571 569
f 583 569 572
f 583 572 584
f 584 572 573
f 584 573 585
f 585 573 574
f 587 586 425
f 587 425 426
f 425 588 427
f 586 588 425
f 427 589 428
f 588 589 427
f 428 590 429
f 589 590 428
f 429 591 430
f 590 591 429
f 431 430 591
f 431 591 592
f 593 587 426
f 593 426 432
f 594 432 433
f 594 593 432
f 595 433 434
f 595 594 433
f 596 434 435
f 596 595 434
f 597 435 436
f 597 596 435
f 436 431 592
f 436 592 597
f 599 598 437
f 599 437 438
f 437 600 439
f 598 600 437
f 439 601 440
f 600 601 439
f 440 602 441
f 601 602 440
f 441 603 442
f 602 603 441
f 443 442 603
f 443 603 604
f 607 606 605
f 609 608 605
f 609 605 606
f 611 610 608
f 611 608 609
f 445 446 610
f 611 445 610
f 612 445 611
f 445 613 448
f 612 613 445
f 448 614 450
f 613 614 448
f 451 450 614
f 451 614 615
f 616 599 438
f 616 438 452
f 617 452 453
f 617 616 452
f 618 453 454
f 618 617 453
f 619 454 455
f 619 618 454
f 620 455 456
f 620 619 455
f 456 443 604
f 456 604 620
f 621 607 605
f 621 605 608
f 621 608 622
f 622 608 610
f 622 610 623
f 623 610 446
f 457 623 446
f 624 623 457
f 457 458 624
f 624 458 625
f 461 451 626
f 451 627 626
f 451 615 627
f 628 464 461
f 628 461 626
f 629 466 464
f 629 464 628
f 630 468 466
f 630 466 629
f 631 470 468
f 631 468 630
f 632 472 470
f 632 470 631
f 633 474 472
f 633 472 632
f 633 475 474
f 634 625 458
f 634 458 476
f 635 476 477
f 635 634 476
f 478 626 627
f 635 478 627
f 477 478 635
f 626 478 479
f 626 479 628
f 628 479 480
f 628 480 629
f 629 480 481
f 629 481 630
f 630 481 482
f 636 630 482
f 631 630 636
f 631 637 632
f 631 636 637
f 632 638 633
f 632 637 638
f 639 486 475
f 633 639 475
f 638 639 633
f 640 488 486
f 640 486 639
f 641 489 488
f 641 488 640
f 642 490 489
f 642 489 641
f 643 491 490
f 643 490 642
f 643 493 491
f 496 644 495
f 645 497 495
f 645 495 644
f 645 499 497
f 500 636 482
f 636 500 501
f 636 501 637
f 637 501 502
f 637 502 638
f 638 502 503
f 638 503 639
f 639 503 504
f 639 504 640
f 640 504 506
f 640 506 641
f 641 506 508
f 641 508 642
f 642 508 510
f 642 510 643
f 643 510 493
f 516 646 644
f 516 644 496
f 644 647 645
f 644 646 647
f 648 517 499
f 645 648 499
f 647 648 645
f 648 518 517
f 521 649 520
f 650 523 520
f 650 520 649
f 651 525 523
f 651 523 650
f 652 527 525
f 652 525 651
f 653 528 527
f 653 527 652
f 654 529 528
f 654 528 653
f 655 530 529
f 655 529 654
f 656 531 530
f 656 530 655
f 656 533 531
f 535 657 646
f 535 646 516
f 646 658 647
f 646 657 658
f 658 537 538
f 648 658 538
f 647 658 648
f 648 538 518
f 540 659 539
f 659 541 539
f 661 660 543
f 661 543 544
f 543 662 546
f 660 662 543
f 662 664 663
f 548 662 663
f 546 662 548
f 665 550 548
f 665 548 663
f 666 552 550
f 666 550 665
f 667 554 552
f 667 552 666
f 649 521 554
f 667 649 554
f 668 649 667
f 649 669 650
f 649 668 669
f 650 670 651
f 650 669 670
f 670 558 559
f 652 670 559
f 651 670 652
f 652 559 560
f 652 560 653
f 653 560 561
f 653 561 654
f 654 561 562
f 654 562 655
f 655 562 563
f 655 563 656
f 656 563 533
f 564 657 535
f 657 564 565
f 657 565 658
f 658 565 537
f 672 671 659
f 540 672 659
f 567 672 540
f 568 541 659
f 673 568 659
f 671 673 659
f 568 673 674
f 676 675 674
f 676 674 673
f 570 571 675
f 676 570 675
f 677 570 676
f 544 570 661
f 661 570 677
f 663 664 575
f 664 574 575
f 664 678 574
f 663 575 576
f 663 576 665
f 665 576 577
f 665 577 666
f 666 577 578
f 666 578 667
f 667 578 579
f 667 579 668
f 668 579 580
f 668 580 669
f 669 580 581
f 669 581 670
f 670 581 558
f 679 672 567
f 679 567 582
f 582 568 674
f 680 582 674
f 679 582 680
f 680 674 675
f 680 675 681
f 681 675 571
f 583 681 571
f 682 681 583
f 683 583 584
f 683 682 583
f 684 584 585
f 684 683 584
f 585 574 678
f 585 678 684
f 686 685 586
f 686 586 587
f 586 687 588
f 685 687 586
f 588 688 589
f 687 688 588
f 589 689 590
f 688 689 589
f 590 690 591
f 689 690 590
f 592 591 690
f 592 690 691
f 692 686 587
f 692 587 593
f 693 593 594
f 693 692 593
f 694 594 595
f 694 693 594
f 695 595 596
f 695 694 595
f 696 596 597
f 696 695 596
f 597 592 691
f 597 691 696
f 698 697 598
f 698 598 599
f 598 699 600
f 697 699 598
f 600 700 601
f 699 700 600
f 601 701 602
f 700 701 601
f 602 702 603
f 701 702 602
f 604 603 702
f 604 702 703
f 607 704 606
f 705 609 606
f 705 606 704
f 706 611 609
f 706 609 705
f 707 612 611
f 707 611 706
f 708 613 612
f 708 612 707
f 709 614 613
f 709 613 708
f 709 615 614
f 599 616 710
f 711 599 710
f 698 599 711
f 617 712 616
f 616 712 710
f 618 713 617
f 617 713 712
f 619 714 618
f 618 714 713
f 620 715 619
f 619 715 714
f 716 715 620
f 604 716 620
f 703 716 604
f 621 704 607
f 704 621 622
f 704 622 705
f 705 622 623
f 705 623 706
f 706 623 624
f 706 624 707
f 707 624 625
f 717 707 625
f 708 707 717
f 708 718 709
f 708 717 718
f 718 627 615
f 718 615 709
f 719 711 710
f 719 710 712
f 719 712 720
f 720 712 713
f 720 713 721
f 721 713 714
f 721 714 722
f 722 714 715
f 722 715 723
f 723 715 716
f 634 717 625
f 717 634 635
f 717 635 718
f 718 635 627
f 661 724 660
f 725 662 660
f 725 660 724
f 725 664 662
f 727 726 671
f 727 671 672
f 726 729 728
f 673 726 728
f 671 726 673
f 730 676 673
f 730 673 728
f 731 677 676
f 731 676 730
f 724 661 677
f 731 724 677
f 732 724 731
f 724 733 725
f 724 732 733
f 733 678 664
f 733 664 725
f 736 735 734
f 738 737 734
f 738 734 735
f 740 739 737
f 740 737 738
f 742 741 739
f 742 739 740
f 744 743 741
f 744 741 742
f 745 743 744
f 746 727 672
f 746 672 679
f 680 728 729
f 746 680 729
f 679 680 746
f 728 680 681
f 728 681 730
f 730 681 682
f 730 682 731
f 731 682 683
f 731 683 732
f 732 683 684
f 732 684 733
f 733 684 678
f 736 734 685
f 686 736 685
f 747 736 686
f 685 734 687
f 687 734 737
f 687 737 688
f 688 737 739
f 688 739 689
f 689 739 741
f 689 741 690
f 690 741 743
f 691 690 743
f 745 691 743
f 748 691 745
f 749 747 686
f 749 686 692
f 750 692 693
f 750 749 692
f 751 693 694
f 751 750 693
f 752 694 695
f 752 751 694
f 753 695 696
f 753 752 695
f 696 691 748
f 696 748 753
f 698 754 697
f 755 699 697
f 755 697 754
f 756 700 699
f 756 699 755
f 757 701 700
f 757 700 756
f 758 702 701
f 758 701 757
f 758 703 702
f 760 759 754
f 698 760 754
f 711 760 698
f 754 759 755
f 755 759 761
f 755 761 756
f 756 761 762
f 756 762 757
f 757 762 763
f 757 763 758
f 758 763 764
f 703 758 764
f 765 703 764
f 716 703 765
f 711 719 766
f 767 711 766
f 760 711 767
f 720 768 719
f 719 768 766
f 721 769 720
f 720 769 768
f 722 770 721
f 721 770 769
f 723 771 722
f 722 771 770
f 772 771 723
f 716 772 723
f 765 772 716
f 767 766 773
f 767 773 774
f 775 766 768
f 773 766 775
f 776 768 769
f 775 768 776
f 777 769 770
f 776 769 777
f 778 770 771
f 777 770 778
f 771 772 779
f 771 779 778
f 774 773 780
f 774 780 781
f 782 773 775
f 780 773 782
f 783 775 776
f 782 775 783
f 784 776 777
f 783 776 784
f 785 777 778
f 784 777 785
f 778 779 786
f 778 786 785
f 781 780 787
f 781 787 788
f 789 780 782
f 787 780 789
f 790 782 783
f 789 782 790
f 791 783 784
f 790 783 791
f 792 784 785
f 791 784 792
f 785 786 793
f 785 793 792
f 788 787 794
f 788 794 795
f 796 787 789
f 794 787 796
f 797 789 790
f 796 789 797
f 798 790 791
f 797 790 798
f 799 791 792
f 798 791 799
f 792 793 800
f 792 800 799
f 727 801 726
f 801 729 726
f 795 794 735
f 736 795 735
f 802 795 736
f 735 794 738
f 738 794 796
f 738 796 740
f 740 796 797
f 740 797 742
f 742 797 798
f 742 798 744
f 744 798 799
f 745 744 799
f 800 745 799
f 803 745 800
f 801 727 746
f 806 805 804
f 746 729 801
f 805 806 807
f 747 809 808
f 802 747 808
f 736 747 802
f 811 810 809
f 809 810 808
f 813 812 811
f 811 812 810
f 815 814 813
f 813 814 812
f 817 816 815
f 815 816 814
f 803 816 817
f 748 803 817
f 745 803 748
f 818 804 805
f 818 805 807
f 749 809 747
f 809 749 750
f 809 750 811
f 811 750 751
f 811 751 813
f 813 751 752
f 813 752 815
f 815 752 753
f 815 753 817
f 817 753 748
f 760 819 759
f 820 761 759
f 820 759 819
f 821 762 761
f 821 761 820
f 822 763 762
f 822 762 821
f 823 764 763
f 823 763 822
f 823 765 764
f 767 824 819
f 767 819 760
f 819 825 820
f 819 824 825
f 820 826 821
f 820 825 826
f 821 827 822
f 821 826 827
f 822 828 823
f 822 827 828
f 828 772 765
f 828 765 823
f 774 829 824
f 774 824 767
f 824 830 825
f 824 829 830
f 825 831 826
f 825 830 831
f 826 832 827
f 826 831 832
f 827 833 828
f 827 832 833
f 833 779 772
f 833 772 828
f 781 834 829
f 781 829 774
f 829 835 830
f 829 834 835
f 830 836 831
f 830 835 836
f 831 837 832
f 831 836 837
f 832 838 833
f 832 837 838
f 838 786 779
f 838 779 833
f 788 839 834
f 788 834 781
f 834 840 835
f 834 839 840
f 835 841 836
f 835 840 841
f 836 842 837
f 836 841 842
f 837 843 838
f 837 842 843
f 843 793 786
f 843 786 838
f 795 844 839
f 795 839 788
f 839 845 840
f 839 844 845
f 840 846 841
f 840 845 846
f 841 847 842
f 841 846 847
f 842 848 843
f 842 847 848
f 848 800 793
f 848 793 843
f 802 849 844
f 802 844 795
f 844 850 845
f 844 849 850
f 845 851 846
f 845 850 851
f 846 852 847
f 846 851 852
f 847 853 848
f 847 852 853
f 853 803 800
f 853 800 848
f 855 854 806
f 855 806 804
f 807 806 854
f 807 854 856
f 808 849 802
f 849 808 810
f 849 810 850
f 850 810 812
f 850 812 851
f 851 812 814
f 851 814 852
f 852 814 816
f 852 816 853
f 853 816 803
f 857 855 804
f 857 804 818
f 818 807 856
f 818 856 857
f 859 858 854
f 859 854 855
f 856 854 858
f 856 858 860
f 855 857 861
f 862 855 861
f 859 855 862
f 863 861 857
f 856 863 857
f 860 863 856
f 864 862 861
f 864 861 863
f 859 865 858
f 865 860 858
f 867 866 865
f 859 867 865
f 862 867 859
f 860 865 866
f 868 860 866
f 863 860 868
f 869 867 862
f 869 862 864
f 864 863 868
f 864 868 869
f 867 870 866
f 870 868 866
f 869 870 867
f 870 869 868

