# https://github.com/mikedh/trimesh
v -0.01138934 -0.01011548 0.05112804
v -0.01011540 -0.01138942 0.05069962
v -0.01074649 -0.01015086 0.05006522
v -0.01015078 -0.01074657 0.05176244
v -0.01153769 -0.00785897 0.05090567
v -0.01039001 -0.00795618 0.04976420
v -0.01049509 -0.00852304 0.05205357
v -0.01152478 -0.00507756 0.05088314
v -0.01041034 -0.00518526 0.04979479
v -0.01048540 -0.00567886 0.05201383
v -0.01155622 -0.00241129 0.05091285
v -0.01047645 -0.00253180 0.04983400
v -0.01047557 -0.00297527 0.05199357
v -0.01155884 0.00019208 0.05091520
v -0.01047786 0.00007141 0.04983386
v -0.01047612 -0.00037153 0.05199461
v -0.01155477 0.00279693 0.05091384
v -0.01047254 0.00267740 0.04983398
v -0.01047446 0.00223166 0.05199431
v -0.01155910 0.00543091 0.05092881
v -0.01049612 0.00533109 0.04984195
v -0.01047319 0.00484463 0.05200109
v -0.01160562 0.00813036 0.05091560
v -0.01056069 0.00806134 0.04981279
v -0.01048863 0.00751754 0.05202404
v -0.01149995 0.01030445 0.05071001
v -0.01009250 0.01052781 0.04998376
v -0.01052750 0.01009282 0.05184389
v -0.01030414 0.01150026 0.05111764
v -0.00785889 -0.01153777 0.05092198
v -0.00852296 -0.01049517 0.04977409
v -0.00795610 -0.01039009 0.05206345
v -0.00783364 -0.00801577 0.04942244
v -0.00801570 -0.00783372 0.05240521
v -0.00791695 -0.00525216 0.04947363
v -0.00799646 -0.00505389 0.05235383
v -0.00799517 -0.00260734 0.04951390
v -0.00799145 -0.00241071 0.05231453
v -0.00799388 -0.00000442 0.04951351
v -0.00799137 0.00019169 0.05231357
v -0.00798952 0.00260110 0.04951309
v -0.00799081 0.00279686 0.05231499
v -0.00804052 0.00525445 0.04949877
v -0.00799033 0.00542347 0.05233490
v -0.00812092 0.00800825 0.04947075
v -0.00800794 0.00812123 0.05235691
v -0.00751723 0.01048895 0.04980362
v -0.00806102 0.01056101 0.05201487
v -0.00813005 0.01160593 0.05091205
v -0.00507748 -0.01152486 0.05094451
v -0.00567878 -0.01048548 0.04981383
v -0.00518518 -0.01041042 0.05203287
v -0.00505381 -0.00799654 0.04947383
v -0.00525208 -0.00791703 0.05235403
v -0.00517534 -0.00525070 0.04953441
v -0.00525062 -0.00517542 0.05229325
v -0.00525210 -0.00260699 0.04957418
v -0.00524757 -0.00253284 0.05225346
v -0.00596181 -0.00018683 -0.05834405
v -0.00535473 -0.00066474 -0.05873728
v -0.00537625 -0.00001818 -0.05935029
v -0.00602056 0.00019012 -0.05662926
v -0.00517725 -0.00083233 -0.05695504
v -0.00532158 -0.00039216 -0.05521669
v -0.00524896 -0.00000383 0.04957441
v -0.00524759 0.00007154 0.05225290
v -0.00559284 0.00061442 -0.05827707
v -0.00491780 0.00082105 -0.05632966
v -0.00524590 0.00259988 0.04957218
v -0.00524699 0.00267671 0.05225540
v -0.00531618 0.00524576 0.04953900
v -0.00524545 0.00531650 0.05228865
v -0.00542315 0.00799064 0.04949276
v -0.00525414 0.00804083 0.05232888
v -0.00484432 0.01047351 0.04982656
v -0.00533078 0.01049644 0.05198571
v -0.00543060 0.01155942 0.05089885
v -0.00241121 -0.01155630 0.05091480
v -0.00297519 -0.01047565 0.04983409
v -0.00253172 -0.01047653 0.05199365
v -0.00241063 -0.00799153 0.04951312
v -0.00260726 -0.00799525 0.05231375
v -0.00253276 -0.00524765 0.04957420
v -0.00260691 -0.00525218 0.05225347
v -0.00335283 -0.00288748 -0.05844100
v -0.00281339 -0.00326449 -0.05884623
v -0.00278173 -0.00265553 -0.05947698
v -0.00395049 -0.00212874 -0.05591666
v -0.00233022 -0.00368752 -0.05658039
v -0.00386988 -0.00248692 -0.05286749
v -0.00249846 -0.00385595 -0.05350432
v -0.00384163 -0.00250793 -0.05036493
v -0.00247981 -0.00387575 -0.05097271
v -0.00385669 -0.00247983 -0.04779209
v -0.00247696 -0.00385952 -0.04843258
v -0.00385838 -0.00247844 -0.04518072
v -0.00247934 -0.00385720 -0.04582395
v -0.00385796 -0.00247910 -0.04257068
v -0.00247906 -0.00385800 -0.04321259
v -0.00385795 -0.00247909 -0.03996140
v -0.00247900 -0.00385805 -0.04060327
v -0.00385795 -0.00247909 -0.03735208
v -0.00247901 -0.00385803 -0.03799397
v -0.00385795 -0.00247909 -0.03474276
v -0.00247901 -0.00385803 -0.03538465
v -0.00385795 -0.00247909 -0.03213343
v -0.00247901 -0.00385803 -0.03277532
v -0.00385795 -0.00247909 -0.02952411
v -0.00247901 -0.00385803 -0.03016600
v -0.00385795 -0.00247909 -0.02691479
v -0.00247901 -0.00385803 -0.02755668
v -0.00385795 -0.00247909 -0.02430547
v -0.00247901 -0.00385803 -0.02494736
v -0.00385795 -0.00247909 -0.02169614
v -0.00247901 -0.00385803 -0.02233803
v -0.00385795 -0.00247909 -0.01908682
v -0.00247901 -0.00385803 -0.01972871
v -0.00385795 -0.00247909 -0.01647750
v -0.00247901 -0.00385803 -0.01711939
v -0.00385795 -0.00247909 -0.01386818
v -0.00247901 -0.00385803 -0.01451007
v -0.00385795 -0.00247909 -0.01125885
v -0.00247901 -0.00385803 -0.01190074
v -0.00385795 -0.00247909 -0.00864953
v -0.00247901 -0.00385803 -0.00929142
v -0.00385795 -0.00247909 -0.00604021
v -0.00247901 -0.00385803 -0.00668210
v -0.00385795 -0.00247909 -0.00343088
v -0.00247901 -0.00385803 -0.00407278
v -0.00385795 -0.00247909 -0.00082156
v -0.00247901 -0.00385803 -0.00146345
v -0.00385795 -0.00247909 0.00178776
v -0.00247901 -0.00385803 0.00114587
v -0.00385795 -0.00247909 0.00439708
v -0.00247901 -0.00385803 0.00375519
v -0.00385795 -0.00247909 0.00700641
v -0.00247901 -0.00385803 0.00636452
v -0.00385795 -0.00247909 0.00961573
v -0.00247901 -0.00385803 0.00897384
v -0.00385795 -0.00247909 0.01222505
v -0.00247901 -0.00385803 0.01158316
v -0.00385790 -0.00247909 0.01483444
v -0.00247896 -0.00385800 0.01419254
v -0.00385803 -0.00247904 0.01744386
v -0.00247904 -0.00385806 0.01680192
v -0.00385958 -0.00247781 0.02004999
v -0.00248151 -0.00385783 0.01940896
v -0.00385606 -0.00247962 0.02265548
v -0.00247723 -0.00385776 0.02201327
v -0.00384984 -0.00251199 0.02534384
v -0.00241710 -0.00389059 0.02466686
v -0.00390442 -0.00251977 0.02812930
v -0.00243104 -0.00395003 0.02742808
v -0.00366083 -0.00225158 0.03031054
v -0.00283184 -0.00371449 0.02966123
v -0.00223286 -0.00288797 0.03114170
v -0.00260773 -0.00260338 0.04961357
v -0.00260330 -0.00260781 0.05221409
v -0.00469321 0.00000323 -0.05828672
v -0.00232514 -0.00189622 -0.05829871
v -0.00271899 0.00016052 -0.05719494
v -0.00443486 0.00034849 -0.05372609
v -0.00417195 -0.00003508 -0.05085319
v -0.00416864 -0.00001224 -0.04830745
v -0.00417852 0.00000131 -0.04570683
v -0.00417843 0.00000029 -0.04309614
v -0.00417826 0.00000010 -0.04048673
v -0.00417827 0.00000012 -0.03787742
v -0.00417827 0.00000012 -0.03526810
v -0.00417827 0.00000012 -0.03265878
v -0.00417827 0.00000012 -0.03004946
v -0.00417827 0.00000012 -0.02744013
v -0.00417827 0.00000012 -0.02483081
v -0.00417827 0.00000012 -0.02222149
v -0.00417827 0.00000012 -0.01961216
v -0.00417827 0.00000012 -0.01700284
v -0.00417827 0.00000012 -0.01439352
v -0.00417827 0.00000012 -0.01178420
v -0.00417827 0.00000012 -0.00917487
v -0.00417827 0.00000012 -0.00656555
v -0.00417827 0.00000012 -0.00395623
v -0.00417827 0.00000012 -0.00134691
v -0.00417827 0.00000012 0.00126242
v -0.00417827 0.00000012 0.00387174
v -0.00417827 0.00000012 0.00648106
v -0.00417827 0.00000012 0.00909038
v -0.00417827 0.00000012 0.01169971
v -0.00417827 0.00000012 0.01430903
v -0.00417824 0.00000012 0.01691847
v -0.00417795 0.00000017 0.01952744
v -0.00417865 0.00000003 0.02213189
v -0.00419701 -0.00000173 0.02475624
v -0.00424042 0.00000634 0.02747597
v -0.00396875 0.00004830 0.02998513
v -0.00222203 -0.00009336 0.03127695
v -0.00260375 0.00000000 0.04961457
v -0.00260326 -0.00000391 0.05221300
v -0.00272135 0.00267792 -0.05949355
v -0.00334551 0.00267449 -0.05881848
v -0.00253756 0.00199052 -0.05854345
v -0.00374935 0.00224351 -0.05653832
v -0.00382115 0.00275657 -0.05376043
v -0.00389272 0.00243724 -0.05140766
v -0.00384885 0.00244898 -0.04886984
v -0.00385614 0.00247980 -0.04627495
v -0.00385826 0.00248002 -0.04366344
v -0.00385797 0.00247929 -0.04105368
v -0.00385795 0.00247932 -0.03844440
v -0.00385795 0.00247932 -0.03583508
v -0.00385795 0.00247932 -0.03322576
v -0.00385795 0.00247932 -0.03061643
v -0.00385795 0.00247932 -0.02800711
v -0.00385795 0.00247932 -0.02539779
v -0.00385795 0.00247932 -0.02278847
v -0.00385795 0.00247932 -0.02017914
v -0.00385795 0.00247932 -0.01756982
v -0.00385795 0.00247932 -0.01496050
v -0.00385795 0.00247932 -0.01235117
v -0.00385795 0.00247932 -0.00974185
v -0.00385795 0.00247932 -0.00713253
v -0.00385795 0.00247932 -0.00452321
v -0.00385795 0.00247932 -0.00191388
v -0.00385795 0.00247932 0.00069544
v -0.00385795 0.00247932 0.00330476
v -0.00385795 0.00247932 0.00591408
v -0.00385795 0.00247932 0.00852341
v -0.00385795 0.00247932 0.01113273
v -0.00385795 0.00247932 0.01374205
v -0.00385797 0.00247934 0.01635141
v -0.00385784 0.00247932 0.01896073
v -0.00385692 0.00247800 0.02156760
v -0.00386377 0.00247808 0.02417889
v -0.00389878 0.00251195 0.02685803
v -0.00377557 0.00257642 0.02947391
v -0.00287127 0.00232235 0.03114842
v -0.00260047 0.00260320 0.04961204
v -0.00260289 0.00260078 0.05221562
v -0.00294927 0.00324521 -0.05843708
v -0.00213454 0.00388137 -0.05587358
v -0.00248581 0.00381260 -0.05271809
v -0.00250506 0.00381441 -0.05017710
v -0.00247871 0.00385685 -0.04760157
v -0.00247871 0.00385984 -0.04499091
v -0.00247905 0.00385827 -0.04238049
v -0.00247901 0.00385825 -0.03977119
v -0.00247901 0.00385827 -0.03716188
v -0.00247901 0.00385827 -0.03455256
v -0.00247901 0.00385827 -0.03194324
v -0.00247901 0.00385827 -0.02933391
v -0.00247901 0.00385827 -0.02672459
v -0.00247901 0.00385827 -0.02411527
v -0.00247901 0.00385827 -0.02150595
v -0.00247901 0.00385827 -0.01889662
v -0.00247901 0.00385827 -0.01628730
v -0.00247901 0.00385827 -0.01367798
v -0.00247901 0.00385827 -0.01106865
v -0.00247901 0.00385827 -0.00845933
v -0.00247901 0.00385827 -0.00585001
v -0.00247901 0.00385827 -0.00324069
v -0.00247901 0.00385827 -0.00063136
v -0.00247901 0.00385827 0.00197796
v -0.00247901 0.00385827 0.00458728
v -0.00247901 0.00385827 0.00719660
v -0.00247901 0.00385827 0.00980593
v -0.00247901 0.00385827 0.01241525
v -0.00247901 0.00385828 0.01502458
v -0.00247901 0.00385830 0.01763395
v -0.00247864 0.00385739 0.02024207
v -0.00247926 0.00385643 0.02284943
v -0.00249558 0.00388778 0.02550602
v -0.00249056 0.00396729 0.02823864
v -0.00222782 0.00374196 0.03037727
v -0.00267640 0.00524730 0.04957225
v -0.00259957 0.00524621 0.05225548
v -0.00279654 0.00799113 0.04951266
v -0.00260078 0.00798983 0.05231457
v -0.00223135 0.01047477 0.04983335
v -0.00267709 0.01047285 0.05199367
v -0.00279661 0.01155508 0.05091381
v 0.00019215 -0.01155892 0.05091246
v -0.00037145 -0.01047620 0.04983305
v 0.00007149 -0.01047794 0.05199380
v 0.00019177 -0.00799145 0.04951409
v -0.00000434 -0.00799396 0.05231414
v -0.00062510 -0.00556067 -0.05826120
v 0.00018803 -0.00594571 -0.05833472
v 0.00002346 -0.00535326 -0.05933816
v -0.00086184 -0.00486038 -0.05632716
v -0.00022222 -0.00598773 -0.05661393
v 0.00034813 -0.00526802 -0.05520688
v 0.00007162 -0.00524766 0.04957476
v -0.00000375 -0.00524904 0.05225325
v -0.00201615 -0.00282138 -0.05864759
v -0.00000979 -0.00463721 -0.05826160
v -0.00022162 -0.00320093 -0.05745520
v 0.00009938 -0.00439321 -0.05373920
v -0.00003622 -0.00418460 -0.05086181
v -0.00000439 -0.00417258 -0.04830595
v 0.00000065 -0.00417743 -0.04570773
v 0.00000021 -0.00417839 -0.04309622
v 0.00000020 -0.00417837 -0.04048670
v 0.00000020 -0.00417835 -0.03787742
v 0.00000020 -0.00417835 -0.03526810
v 0.00000020 -0.00417835 -0.03265878
v 0.00000020 -0.00417835 -0.03004946
v 0.00000020 -0.00417835 -0.02744013
v 0.00000020 -0.00417835 -0.02483081
v 0.00000020 -0.00417835 -0.02222149
v 0.00000020 -0.00417835 -0.01961216
v 0.00000020 -0.00417835 -0.01700284
v 0.00000020 -0.00417835 -0.01439352
v 0.00000020 -0.00417835 -0.01178420
v 0.00000020 -0.00417835 -0.00917487
v 0.00000020 -0.00417835 -0.00656555
v 0.00000020 -0.00417835 -0.00395623
v 0.00000020 -0.00417835 -0.00134691
v 0.00000020 -0.00417835 0.00126242
v 0.00000020 -0.00417835 0.00387174
v 0.00000020 -0.00417835 0.00648106
v 0.00000020 -0.00417835 0.00909038
v 0.00000020 -0.00417835 0.01169971
v 0.00000023 -0.00417829 0.01430908
v 0.00000023 -0.00417843 0.01691842
v -0.00000183 -0.00417976 0.01952545
v -0.00000146 -0.00417777 0.02213179
v 0.00005525 -0.00418735 0.02478349
v 0.00008858 -0.00424616 0.02753315
v -0.00064220 -0.00397905 0.02999198
v 0.00015706 -0.00221160 0.03131282
v -0.00000383 -0.00260334 0.04961465
v 0.00000008 -0.00260382 0.05221308
v 0.00004664 -0.00112399 -0.05669729
v -0.00096236 -0.00022829 -0.05565158
v 0.00005804 -0.00073344 -0.05353316
v -0.00072826 -0.00005333 -0.05352692
v 0.00003187 -0.00076364 -0.05087406
v -0.00075683 -0.00002081 -0.05087237
v 0.00000199 -0.00077883 -0.04824089
v -0.00077927 -0.00000234 -0.04823732
v -0.00000052 -0.00077938 -0.04563046
v -0.00077978 0.00000042 -0.04563123
v 0.00000019 -0.00077977 -0.04302186
v -0.00077971 0.00000015 -0.04302194
v 0.00000020 -0.00077984 -0.04041246
v -0.00077974 0.00000012 -0.04041246
v 0.00000020 -0.00077983 -0.03780314
v -0.00077975 0.00000012 -0.03780314
v 0.00000020 -0.00077983 -0.03519382
v -0.00077975 0.00000012 -0.03519382
v 0.00000020 -0.00077983 -0.03258450
v -0.00077975 0.00000012 -0.03258450
v 0.00000020 -0.00077983 -0.02997517
v -0.00077975 0.00000012 -0.02997517
v 0.00000020 -0.00077983 -0.02736585
v -0.00077975 0.00000012 -0.02736585
v 0.00000020 -0.00077983 -0.02475653
v -0.00077975 0.00000012 -0.02475653
v 0.00000020 -0.00077983 -0.02214721
v -0.00077975 0.00000012 -0.02214721
v 0.00000020 -0.00077983 -0.01953788
v -0.00077975 0.00000012 -0.01953788
v 0.00000020 -0.00077983 -0.01692856
v -0.00077975 0.00000012 -0.01692856
v 0.00000020 -0.00077983 -0.01431924
v -0.00077975 0.00000012 -0.01431924
v 0.00000020 -0.00077983 -0.01170991
v -0.00077975 0.00000012 -0.01170991
v 0.00000020 -0.00077983 -0.00910059
v -0.00077975 0.00000012 -0.00910059
v 0.00000020 -0.00077983 -0.00649127
v -0.00077975 0.00000012 -0.00649127
v 0.00000020 -0.00077983 -0.00388195
v -0.00077975 0.00000012 -0.00388195
v 0.00000020 -0.00077983 -0.00127262
v -0.00077975 0.00000012 -0.00127262
v 0.00000020 -0.00077983 0.00133670
v -0.00077975 0.00000012 0.00133670
v 0.00000020 -0.00077983 0.00394602
v -0.00077975 0.00000012 0.00394602
v 0.00000020 -0.00077983 0.00655534
v -0.00077975 0.00000012 0.00655534
v 0.00000020 -0.00077983 0.00916467
v -0.00077975 0.00000012 0.00916467
v 0.00000020 -0.00077983 0.01177399
v -0.00077975 0.00000012 0.01177399
v 0.00000020 -0.00077983 0.01438335
v -0.00077975 0.00000011 0.01438335
v 0.00000017 -0.00077983 0.01699272
v -0.00077975 0.00000015 0.01699272
v 0.00000002 -0.00077965 0.01960027
v -0.00077957 0.00000032 0.01960027
v 0.00000006 -0.00078094 0.02220652
v -0.00078086 0.00000029 0.02220651
v -0.00000904 -0.00078993 0.02485037
v -0.00078974 0.00000842 0.02485022
v -0.00001679 -0.00078856 0.02757404
v -0.00078832 0.00001526 0.02757452
v 0.00015125 -0.00092940 0.03004793
v -0.00093165 -0.00013219 0.03004070
v 0.00000020 0.00000012 0.04961640
v 0.00000020 0.00000012 0.05221125
v -0.00196444 0.00286777 -0.05861091
v -0.00025226 0.00278811 -0.05737402
v -0.00051498 0.00085644 -0.05588493
v -0.00002997 0.00074969 -0.05352338
v -0.00001155 0.00076404 -0.05083166
v -0.00000162 0.00077826 -0.04823384
v -0.00000004 0.00077963 -0.04563120
v 0.00000019 0.00078002 -0.04302186
v 0.00000021 0.00078007 -0.04041248
v 0.00000020 0.00078006 -0.03780314
v 0.00000020 0.00078006 -0.03519382
v 0.00000020 0.00078006 -0.03258450
v 0.00000020 0.00078006 -0.02997517
v 0.00000020 0.00078006 -0.02736585
v 0.00000020 0.00078006 -0.02475653
v 0.00000020 0.00078006 -0.02214721
v 0.00000020 0.00078006 -0.01953788
v 0.00000020 0.00078006 -0.01692856
v 0.00000020 0.00078006 -0.01431924
v 0.00000020 0.00078006 -0.01170991
v 0.00000020 0.00078006 -0.00910059
v 0.00000020 0.00078006 -0.00649127
v 0.00000020 0.00078006 -0.00388195
v 0.00000020 0.00078006 -0.00127262
v 0.00000020 0.00078006 0.00133670
v 0.00000020 0.00078006 0.00394602
v 0.00000020 0.00078006 0.00655534
v 0.00000020 0.00078006 0.00916467
v 0.00000020 0.00078006 0.01177399
v 0.00000019 0.00078006 0.01438335
v 0.00000023 0.00078006 0.01699273
v 0.00000040 0.00077991 0.01960027
v 0.00000036 0.00078120 0.02220650
v 0.00000860 0.00078912 0.02485040
v 0.00001547 0.00078677 0.02757420
v -0.00013445 0.00095061 0.03003278
v -0.00009432 0.00228975 0.03129688
v 0.00000422 0.00260358 0.04961465
v 0.00000031 0.00260406 0.05221308
v 0.00000171 0.00537388 -0.05934260
v -0.00063062 0.00534726 -0.05872372
v 0.00004512 0.00467490 -0.05827636
v -0.00079761 0.00514659 -0.05693558
v -0.00035555 0.00529293 -0.05518915
v 0.00037379 0.00439774 -0.05366172
v -0.00003392 0.00415267 -0.05072120
v -0.00001251 0.00417011 -0.04815808
v 0.00000137 0.00418081 -0.04555798
v 0.00000036 0.00417878 -0.04294760
v 0.00000017 0.00417853 -0.04033816
v 0.00000020 0.00417858 -0.03772886
v 0.00000020 0.00417858 -0.03511954
v 0.00000020 0.00417858 -0.03251021
v 0.00000020 0.00417858 -0.02990089
v 0.00000020 0.00417858 -0.02729157
v 0.00000020 0.00417858 -0.02468225
v 0.00000020 0.00417858 -0.02207292
v 0.00000020 0.00417858 -0.01946360
v 0.00000020 0.00417858 -0.01685428
v 0.00000020 0.00417858 -0.01424496
v 0.00000020 0.00417858 -0.01163563
v 0.00000020 0.00417858 -0.00902631
v 0.00000020 0.00417858 -0.00641699
v 0.00000020 0.00417858 -0.00380766
v 0.00000020 0.00417858 -0.00119834
v 0.00000020 0.00417858 0.00141098
v 0.00000020 0.00417858 0.00402030
v 0.00000020 0.00417858 0.00662963
v 0.00000020 0.00417858 0.00923895
v 0.00000020 0.00417858 0.01184827
v 0.00000020 0.00417858 0.01445759
v 0.00000020 0.00417861 0.01706696
v 0.00000022 0.00417825 0.01967594
v 0.00000009 0.00417673 0.02228303
v -0.00000156 0.00419492 0.02490927
v 0.00000637 0.00425503 0.02760557
v 0.00004814 0.00400633 0.03006015
v -0.00007123 0.00524790 0.04957476
v 0.00000414 0.00524927 0.05225325
v -0.00017264 0.00596050 -0.05833817
v 0.00021751 0.00601604 -0.05661982
v -0.00019138 0.00799169 0.04951409
v 0.00000474 0.00799419 0.05231414
v 0.00037185 0.01047643 0.04983305
v -0.00007110 0.01047817 0.05199380
v -0.00019176 0.01155916 0.05091246
v 0.00279700 -0.01155485 0.05091381
v 0.00223174 -0.01047454 0.04983335
v 0.00267748 -0.01047262 0.05199367
v 0.00279694 -0.00799089 0.04951266
v 0.00260118 -0.00798960 0.05231457
v 0.00067000 -0.00531355 -0.05871624
v 0.00081313 -0.00512471 -0.05692931
v 0.00267679 -0.00524707 0.04957225
v 0.00259996 -0.00524598 0.05225548
v 0.00279394 -0.00279943 -0.05949516
v 0.00175680 -0.00273064 -0.05835808
v 0.00298958 -0.00335658 -0.05848947
v 0.00212609 -0.00392372 -0.05590534
v 0.00276407 -0.00380494 -0.05304565
v 0.00244647 -0.00385781 -0.05082881
v 0.00246186 -0.00384715 -0.04823433
v 0.00247998 -0.00385676 -0.04563164
v 0.00247972 -0.00385829 -0.04302149
v 0.00247939 -0.00385806 -0.04041179
v 0.00247940 -0.00385803 -0.03780251
v 0.00247940 -0.00385803 -0.03519319
v 0.00247940 -0.00385803 -0.03258387
v 0.00247940 -0.00385803 -0.02997454
v 0.00247940 -0.00385803 -0.02736522
v 0.00247940 -0.00385803 -0.02475590
v 0.00247940 -0.00385803 -0.02214657
v 0.00247940 -0.00385803 -0.01953725
v 0.00247940 -0.00385803 -0.01692793
v 0.00247940 -0.00385803 -0.01431861
v 0.00247940 -0.00385803 -0.01170928
v 0.00247940 -0.00385803 -0.00909996
v 0.00247940 -0.00385803 -0.00649064
v 0.00247940 -0.00385803 -0.00388132
v 0.00247940 -0.00385803 -0.00127199
v 0.00247940 -0.00385803 0.00133733
v 0.00247940 -0.00385803 0.00394665
v 0.00247940 -0.00385803 0.00655597
v 0.00247940 -0.00385803 0.00916530
v 0.00247940 -0.00385803 0.01177462
v 0.00247942 -0.00385798 0.01438398
v 0.00247944 -0.00385812 0.01699332
v 0.00247796 -0.00386047 0.01960054
v 0.00247684 -0.00385624 0.02220759
v 0.00251726 -0.00382349 0.02486638
v 0.00258556 -0.00385233 0.02760152
v 0.00208466 -0.00373145 0.03007591
v 0.00294643 -0.00220848 0.03122061
v 0.00260086 -0.00260297 0.04961204
v 0.00260328 -0.00260054 0.05221562
v 0.00245762 -0.00169794 -0.05821416
v 0.00111671 0.00050225 -0.05647560
v 0.00322140 0.00016413 -0.05743141
v 0.00075633 0.00006959 -0.05352962
v 0.00077715 0.00002122 -0.05083335
v 0.00077964 0.00000177 -0.04823742
v 0.00077922 -0.00000017 -0.04563042
v 0.00078009 0.00000011 -0.04302178
v 0.00078016 0.00000011 -0.04041248
v 0.00078014 0.00000012 -0.03780314
v 0.00078014 0.00000012 -0.03519382
v 0.00078014 0.00000012 -0.03258450
v 0.00078014 0.00000012 -0.02997517
v 0.00078014 0.00000012 -0.02736585
v 0.00078014 0.00000012 -0.02475653
v 0.00078014 0.00000012 -0.02214721
v 0.00078014 0.00000012 -0.01953788
v 0.00078014 0.00000012 -0.01692856
v 0.00078014 0.00000012 -0.01431924
v 0.00078014 0.00000012 -0.01170991
v 0.00078014 0.00000012 -0.00910059
v 0.00078014 0.00000012 -0.00649127
v 0.00078014 0.00000012 -0.00388195
v 0.00078014 0.00000012 -0.00127262
v 0.00078014 0.00000012 0.00133670
v 0.00078014 0.00000012 0.00394602
v 0.00078014 0.00000012 0.00655534
v 0.00078014 0.00000012 0.00916467
v 0.00078014 0.00000012 0.01177399
v 0.00078014 0.00000012 0.01438335
v 0.00078014 0.00000009 0.01699273
v 0.00077998 -0.00000006 0.01960027
v 0.00078128 -0.00000002 0.02220652
v 0.00078931 -0.00000922 0.02485055
v 0.00078700 -0.00001705 0.02757371
v 0.00094845 0.00015341 0.03004000
v 0.00227773 0.00015817 0.03133113
v 0.00260414 0.00000023 0.04961457
v 0.00260366 0.00000414 0.05221300
v 0.00192599 0.00230234 -0.05832325
v 0.00286401 0.00196354 -0.05859746
v 0.00268135 0.00275020 -0.05949696
v 0.00229616 0.00292876 0.03121488
v 0.00260812 0.00260361 0.04961357
v 0.00260369 0.00260804 0.05221409
v 0.00064162 0.00558958 -0.05826825
v 0.00270902 0.00336398 -0.05881814
v 0.00227401 0.00372537 -0.05652192
v 0.00086069 0.00490486 -0.05632382
v 0.00277157 0.00377630 -0.05368154
v 0.00244234 0.00385198 -0.05126798
v 0.00244625 0.00382864 -0.04868830
v 0.00247908 0.00385781 -0.04608363
v 0.00248058 0.00385934 -0.04347328
v 0.00247941 0.00385824 -0.04086350
v 0.00247938 0.00385826 -0.03825420
v 0.00247940 0.00385827 -0.03564488
v 0.00247940 0.00385827 -0.03303556
v 0.00247940 0.00385827 -0.03042624
v 0.00247940 0.00385827 -0.02781691
v 0.00247940 0.00385827 -0.02520759
v 0.00247940 0.00385827 -0.02259827
v 0.00247940 0.00385827 -0.01998894
v 0.00247940 0.00385827 -0.01737962
v 0.00247940 0.00385827 -0.01477030
v 0.00247940 0.00385827 -0.01216098
v 0.00247940 0.00385827 -0.00955165
v 0.00247940 0.00385827 -0.00694233
v 0.00247940 0.00385827 -0.00433301
v 0.00247940 0.00385827 -0.00172369
v 0.00247940 0.00385827 0.00088564
v 0.00247940 0.00385827 0.00349496
v 0.00247940 0.00385827 0.00610428
v 0.00247940 0.00385827 0.00871360
v 0.00247940 0.00385827 0.01132293
v 0.00247940 0.00385827 0.01393225
v 0.00247940 0.00385828 0.01654159
v 0.00247942 0.00385824 0.01915089
v 0.00247909 0.00385690 0.02175907
v 0.00247835 0.00386165 0.02437105
v 0.00249587 0.00390987 0.02702289
v 0.00254405 0.00381149 0.02958407
v 0.00253315 0.00524788 0.04957420
v 0.00260730 0.00525241 0.05225347
v 0.00241102 0.00799177 0.04951312
v 0.00260766 0.00799549 0.05231375
v 0.00297559 0.01047588 0.04983409
v 0.00253212 0.01047677 0.05199365
v 0.00241160 0.01155653 0.05091480
v 0.00543099 -0.01155918 0.05089885
v 0.00484471 -0.01047327 0.04982656
v 0.00533117 -0.01049620 0.05198571
v 0.00542355 -0.00799041 0.04949276
v 0.00525453 -0.00804060 0.05232888
v 0.00531658 -0.00524553 0.04953900
v 0.00524584 -0.00531626 0.05228865
v 0.00338434 -0.00284015 -0.05886210
v 0.00372341 -0.00235653 -0.05657592
v 0.00382922 -0.00250781 -0.05345086
v 0.00383537 -0.00248547 -0.05084548
v 0.00383727 -0.00247463 -0.04825413
v 0.00385810 -0.00247814 -0.04563340
v 0.00385907 -0.00247946 -0.04302256
v 0.00385834 -0.00247913 -0.04041307
v 0.00385834 -0.00247908 -0.03780377
v 0.00385835 -0.00247909 -0.03519445
v 0.00385835 -0.00247909 -0.03258513
v 0.00385835 -0.00247909 -0.02997580
v 0.00385835 -0.00247909 -0.02736648
v 0.00385835 -0.00247909 -0.02475716
v 0.00385835 -0.00247909 -0.02214784
v 0.00385835 -0.00247909 -0.01953851
v 0.00385835 -0.00247909 -0.01692919
v 0.00385835 -0.00247909 -0.01431987
v 0.00385835 -0.00247909 -0.01171055
v 0.00385835 -0.00247909 -0.00910122
v 0.00385835 -0.00247909 -0.00649190
v 0.00385835 -0.00247909 -0.00388258
v 0.00385835 -0.00247909 -0.00127325
v 0.00385835 -0.00247909 0.00133607
v 0.00385835 -0.00247909 0.00394539
v 0.00385835 -0.00247909 0.00655471
v 0.00385835 -0.00247909 0.00916404
v 0.00385834 -0.00247909 0.01177336
v 0.00385835 -0.00247906 0.01438270
v 0.00385839 -0.00247911 0.01699205
v 0.00385746 -0.00248133 0.01959984
v 0.00385617 -0.00247766 0.02220690
v 0.00388751 -0.00241697 0.02486074
v 0.00396213 -0.00241409 0.02759977
v 0.00375734 -0.00279534 0.02979823
v 0.00524629 -0.00259965 0.04957218
v 0.00524738 -0.00267648 0.05225540
v 0.00535339 0.00000474 -0.05933898
v 0.00464427 -0.00005079 -0.05826871
v 0.00556201 -0.00065112 -0.05826464
v 0.00487399 -0.00090422 -0.05634013
v 0.00437631 0.00007024 -0.05367711
v 0.00525705 0.00030798 -0.05519713
v 0.00416621 -0.00004078 -0.05075283
v 0.00416442 -0.00000546 -0.04816782
v 0.00417832 0.00000077 -0.04555852
v 0.00417953 -0.00000005 -0.04294733
v 0.00417868 0.00000008 -0.04033814
v 0.00417864 0.00000013 -0.03772886
v 0.00417866 0.00000012 -0.03511954
v 0.00417866 0.00000012 -0.03251021
v 0.00417866 0.00000012 -0.02990089
v 0.00417866 0.00000012 -0.02729157
v 0.00417866 0.00000012 -0.02468225
v 0.00417866 0.00000012 -0.02207292
v 0.00417866 0.00000012 -0.01946360
v 0.00417866 0.00000012 -0.01685428
v 0.00417866 0.00000012 -0.01424496
v 0.00417866 0.00000012 -0.01163563
v 0.00417866 0.00000012 -0.00902631
v 0.00417866 0.00000012 -0.00641699
v 0.00417866 0.00000012 -0.00380766
v 0.00417866 0.00000012 -0.00119834
v 0.00417866 0.00000012 0.00141098
v 0.00417866 0.00000012 0.00402030
v 0.00417866 0.00000012 0.00662963
v 0.00417866 0.00000012 0.00923895
v 0.00417866 0.00000012 0.01184827
v 0.00417866 0.00000013 0.01445760
v 0.00417869 0.00000015 0.01706696
v 0.00417831 -0.00000117 0.01967543
v 0.00417670 -0.00000060 0.02228298
v 0.00419650 0.00005169 0.02492275
v 0.00426378 0.00008165 0.02764320
v 0.00400591 -0.00063742 0.03008250
v 0.00524935 0.00000406 0.04957441
v 0.00524798 -0.00007131 0.05225290
v 0.00324653 0.00297299 -0.05845558
v 0.00531405 0.00063752 -0.05871779
v 0.00512159 0.00077617 -0.05692513
v 0.00387272 0.00210614 -0.05585489
v 0.00374740 0.00275710 -0.05286589
v 0.00382712 0.00244370 -0.05063317
v 0.00384682 0.00246158 -0.04804205
v 0.00385917 0.00248023 -0.04544055
v 0.00385913 0.00247964 -0.04283088
v 0.00385836 0.00247930 -0.04022159
v 0.00385832 0.00247933 -0.03761231
v 0.00385835 0.00247932 -0.03500299
v 0.00385835 0.00247932 -0.03239367
v 0.00385835 0.00247932 -0.02978434
v 0.00385835 0.00247932 -0.02717502
v 0.00385835 0.00247932 -0.02456570
v 0.00385835 0.00247932 -0.02195638
v 0.00385835 0.00247932 -0.01934705
v 0.00385835 0.00247932 -0.01673773
v 0.00385835 0.00247932 -0.01412841
v 0.00385835 0.00247932 -0.01151909
v 0.00385835 0.00247932 -0.00890976
v 0.00385835 0.00247932 -0.00630044
v 0.00385835 0.00247932 -0.00369112
v 0.00385835 0.00247932 -0.00108180
v 0.00385835 0.00247932 0.00152753
v 0.00385835 0.00247932 0.00413685
v 0.00385835 0.00247932 0.00674617
v 0.00385835 0.00247932 0.00935549
v 0.00385835 0.00247932 0.01196482
v 0.00385835 0.00247932 0.01457414
v 0.00385836 0.00247936 0.01718349
v 0.00385830 0.00247890 0.01979251
v 0.00385708 0.00247733 0.02240029
v 0.00386243 0.00250233 0.02502497
v 0.00391452 0.00255623 0.02769912
v 0.00379932 0.00206295 0.03012452
v 0.00525249 0.00260723 0.04957418
v 0.00524796 0.00253307 0.05225346
v 0.00517574 0.00525093 0.04953441
v 0.00525101 0.00517566 0.05229325
v 0.00505420 0.00799677 0.04947383
v 0.00525247 0.00791726 0.05235403
v 0.00567917 0.01048571 0.04981383
v 0.00518557 0.01041065 0.05203287
v 0.00507787 0.01152509 0.05094451
v 0.00813044 -0.01160570 0.05091205
v 0.00751762 -0.01048871 0.04980362
v 0.00806142 -0.01056077 0.05201487
v 0.00812131 -0.00800802 0.04947075
v 0.00800833 -0.00812100 0.05235691
v 0.00804091 -0.00525422 0.04949877
v 0.00799072 -0.00542323 0.05233490
v 0.00798991 -0.00260086 0.04951309
v 0.00799121 -0.00279662 0.05231499
v 0.00594566 0.00017478 -0.05833496
v 0.00598865 -0.00024852 -0.05661726
v 0.00799427 0.00000466 0.04951351
v 0.00799177 -0.00019146 0.05231357
v 0.00799557 0.00260758 0.04951390
v 0.00799185 0.00241094 0.05231453
v 0.00791734 0.00525239 0.04947363
v 0.00799685 0.00505413 0.05235383
v 0.00783404 0.00801601 0.04942244
v 0.00801609 0.00783396 0.05240521
v 0.00852336 0.01049540 0.04977409
v 0.00795650 0.01039032 0.05206345
v 0.00785928 0.01153800 0.05092198
v 0.01030453 -0.01150003 0.05111764
v 0.01009290 -0.01052758 0.04998376
v 0.01052789 -0.01009258 0.05184389
v 0.01056109 -0.00806110 0.04981279
v 0.01048903 -0.00751731 0.05202404
v 0.01049652 -0.00533086 0.04984195
v 0.01047359 -0.00484440 0.05200109
v 0.01047293 -0.00267717 0.04983398
v 0.01047485 -0.00223143 0.05199431
v 0.01047825 -0.00007118 0.04983386
v 0.01047651 0.00037177 0.05199461
v 0.01047685 0.00253204 0.04983400
v 0.01047596 0.00297551 0.05199357
v 0.01041073 0.00518549 0.04979479
v 0.01048579 0.00567909 0.05201383
v 0.01039040 0.00795642 0.04976420
v 0.01049548 0.00852328 0.05205357
v 0.01074688 0.01015109 0.05006522
v 0.01015117 0.01074680 0.05176244
v 0.01011579 0.01138965 0.05069962
v 0.01150034 -0.01030422 0.05071001
v 0.01160601 -0.00813013 0.05091560
v 0.01155950 -0.00543068 0.05092881
v 0.01155516 -0.00279669 0.05091384
v 0.01155924 -0.00019184 0.05091520
v 0.01155661 0.00241153 0.05091285
v 0.01152517 0.00507779 0.05088314
v 0.01153808 0.00785920 0.05090567
v 0.01138973 0.01011571 0.05112804
f 3 2 1
f 4 1 2
f 3 1 5
f 3 5 6
f 1 4 7
f 1 7 5
f 6 5 8
f 6 8 9
f 5 7 10
f 5 10 8
f 9 8 11
f 9 11 12
f 8 10 13
f 8 13 11
f 12 11 14
f 12 14 15
f 11 13 16
f 11 16 14
f 15 14 17
f 15 17 18
f 14 16 19
f 14 19 17
f 18 17 20
f 18 20 21
f 17 19 22
f 17 22 20
f 21 20 23
f 21 23 24
f 20 22 25
f 20 25 23
f 24 23 26
f 24 26 27
f 23 25 28
f 23 28 26
f 29 27 26
f 29 26 28
f 31 30 2
f 31 2 3
f 4 2 30
f 4 30 32
f 6 31 3
f 6 33 31
f 32 7 4
f 34 7 32
f 9 33 6
f 9 35 33
f 34 10 7
f 36 10 34
f 12 35 9
f 12 37 35
f 36 13 10
f 38 13 36
f 15 37 12
f 15 39 37
f 38 16 13
f 40 16 38
f 18 39 15
f 18 41 39
f 40 19 16
f 42 19 40
f 21 41 18
f 21 43 41
f 42 22 19
f 44 22 42
f 24 43 21
f 24 45 43
f 44 25 22
f 46 25 44
f 27 45 24
f 27 47 45
f 46 28 25
f 48 28 46
f 49 47 27
f 49 27 29
f 29 28 48
f 29 48 49
f 51 50 30
f 51 30 31
f 32 30 50
f 32 50 52
f 33 51 31
f 33 53 51
f 52 34 32
f 54 34 52
f 35 53 33
f 35 55 53
f 54 36 34
f 56 36 54
f 37 55 35
f 37 57 55
f 56 38 36
f 58 38 56
f 61 60 59
f 63 62 59
f 63 59 60
f 64 62 63
f 39 57 37
f 39 65 57
f 58 40 38
f 66 40 58
f 67 61 59
f 67 59 62
f 67 62 68
f 68 62 64
f 41 65 39
f 41 69 65
f 66 42 40
f 70 42 66
f 43 69 41
f 43 71 69
f 70 44 42
f 72 44 70
f 45 71 43
f 45 73 71
f 72 46 44
f 74 46 72
f 47 73 45
f 47 75 73
f 74 48 46
f 76 48 74
f 77 75 47
f 77 47 49
f 49 48 76
f 49 76 77
f 79 78 50
f 79 50 51
f 52 50 78
f 52 78 80
f 53 79 51
f 53 81 79
f 80 54 52
f 82 54 80
f 55 81 53
f 55 83 81
f 82 56 54
f 84 56 82
f 87 86 85
f 89 88 85
f 89 85 86
f 91 90 88
f 91 88 89
f 93 92 90
f 93 90 91
f 95 94 92
f 95 92 93
f 97 96 94
f 97 94 95
f 99 98 96
f 99 96 97
f 101 100 98
f 101 98 99
f 103 102 100
f 103 100 101
f 105 104 102
f 105 102 103
f 107 106 104
f 107 104 105
f 109 108 106
f 109 106 107
f 111 110 108
f 111 108 109
f 113 112 110
f 113 110 111
f 115 114 112
f 115 112 113
f 117 116 114
f 117 114 115
f 119 118 116
f 119 116 117
f 121 120 118
f 121 118 119
f 123 122 120
f 123 120 121
f 125 124 122
f 125 122 123
f 127 126 124
f 127 124 125
f 129 128 126
f 129 126 127
f 131 130 128
f 131 128 129
f 133 132 130
f 133 130 131
f 135 134 132
f 135 132 133
f 137 136 134
f 137 134 135
f 139 138 136
f 139 136 137
f 141 140 138
f 141 138 139
f 143 142 140
f 143 140 141
f 145 144 142
f 145 142 143
f 147 146 144
f 147 144 145
f 149 148 146
f 149 146 147
f 151 150 148
f 151 148 149
f 153 152 150
f 153 150 151
f 155 154 152
f 155 152 153
f 156 154 155
f 57 83 55
f 57 157 83
f 84 58 56
f 158 58 84
f 60 61 159
f 85 160 87
f 60 159 63
f 161 63 159
f 63 161 88
f 160 88 161
f 88 160 85
f 63 88 64
f 88 162 64
f 88 90 162
f 163 90 92
f 162 90 163
f 164 92 94
f 163 92 164
f 165 94 96
f 164 94 165
f 166 96 98
f 165 96 166
f 167 98 100
f 166 98 167
f 168 100 102
f 167 100 168
f 169 102 104
f 168 102 169
f 170 104 106
f 169 104 170
f 171 106 108
f 170 106 171
f 172 108 110
f 171 108 172
f 173 110 112
f 172 110 173
f 174 112 114
f 173 112 174
f 175 114 116
f 174 114 175
f 176 116 118
f 175 116 176
f 177 118 120
f 176 118 177
f 178 120 122
f 177 120 178
f 179 122 124
f 178 122 179
f 180 124 126
f 179 124 180
f 181 126 128
f 180 126 181
f 182 128 130
f 181 128 182
f 183 130 132
f 182 130 183
f 184 132 134
f 183 132 184
f 185 134 136
f 184 134 185
f 186 136 138
f 185 136 186
f 187 138 140
f 186 138 187
f 188 140 142
f 187 140 188
f 189 142 144
f 188 142 189
f 190 144 146
f 189 144 190
f 191 146 148
f 190 146 191
f 192 148 150
f 191 148 192
f 193 150 152
f 192 150 193
f 194 152 154
f 193 152 194
f 154 156 195
f 154 195 194
f 65 157 57
f 65 196 157
f 158 66 58
f 197 66 158
f 159 61 67
f 200 199 198
f 68 159 67
f 159 68 161
f 201 161 68
f 161 201 200
f 199 200 201
f 64 162 68
f 162 201 68
f 162 202 201
f 203 162 163
f 202 162 203
f 204 163 164
f 203 163 204
f 205 164 165
f 204 164 205
f 206 165 166
f 205 165 206
f 207 166 167
f 206 166 207
f 208 167 168
f 207 167 208
f 209 168 169
f 208 168 209
f 210 169 170
f 209 169 210
f 211 170 171
f 210 170 211
f 212 171 172
f 211 171 212
f 213 172 173
f 212 172 213
f 214 173 174
f 213 173 214
f 215 174 175
f 214 174 215
f 216 175 176
f 215 175 216
f 217 176 177
f 216 176 217
f 218 177 178
f 217 177 218
f 219 178 179
f 218 178 219
f 220 179 180
f 219 179 220
f 221 180 181
f 220 180 221
f 222 181 182
f 221 181 222
f 223 182 183
f 222 182 223
f 224 183 184
f 223 183 224
f 225 184 185
f 224 184 225
f 226 185 186
f 225 185 226
f 227 186 187
f 226 186 227
f 228 187 188
f 227 187 228
f 229 188 189
f 228 188 229
f 230 189 190
f 229 189 230
f 231 190 191
f 230 190 231
f 232 191 192
f 231 191 232
f 233 192 193
f 232 192 233
f 234 193 194
f 233 193 234
f 194 195 235
f 194 235 234
f 69 196 65
f 69 236 196
f 197 70 66
f 237 70 197
f 238 198 199
f 238 199 201
f 238 201 239
f 239 201 202
f 239 202 240
f 240 202 203
f 240 203 241
f 241 203 204
f 241 204 242
f 242 204 205
f 242 205 243
f 243 205 206
f 243 206 244
f 244 206 207
f 244 207 245
f 245 207 208
f 245 208 246
f 246 208 209
f 246 209 247
f 247 209 210
f 247 210 248
f 248 210 211
f 248 211 249
f 249 211 212
f 249 212 250
f 250 212 213
f 250 213 251
f 251 213 214
f 251 214 252
f 252 214 215
f 252 215 253
f 253 215 216
f 253 216 254
f 254 216 217
f 254 217 255
f 255 217 218
f 255 218 256
f 256 218 219
f 256 219 257
f 257 219 220
f 257 220 258
f 258 220 221
f 258 221 259
f 259 221 222
f 259 222 260
f 260 222 223
f 260 223 261
f 261 223 224
f 261 224 262
f 262 224 225
f 262 225 263
f 263 225 226
f 263 226 264
f 264 226 227
f 264 227 265
f 265 227 228
f 265 228 266
f 266 228 229
f 266 229 267
f 267 229 230
f 267 230 268
f 268 230 231
f 268 231 269
f 269 231 232
f 269 232 270
f 270 232 233
f 270 233 271
f 271 233 234
f 271 234 272
f 272 234 235
f 71 236 69
f 71 273 236
f 237 72 70
f 274 72 237
f 73 273 71
f 73 275 273
f 274 74 72
f 276 74 274
f 75 275 73
f 75 277 275
f 276 76 74
f 278 76 276
f 279 277 75
f 279 75 77
f 77 76 278
f 77 278 279
f 281 280 78
f 281 78 79
f 80 78 280
f 80 280 282
f 81 281 79
f 81 283 281
f 282 82 80
f 284 82 282
f 287 286 285
f 289 288 285
f 289 285 286
f 290 288 289
f 83 283 81
f 83 291 283
f 284 84 82
f 292 84 284
f 86 87 293
f 285 294 287
f 86 293 89
f 295 89 293
f 89 295 288
f 294 288 295
f 288 294 285
f 290 296 288
f 296 89 288
f 296 91 89
f 91 297 93
f 296 297 91
f 93 298 95
f 297 298 93
f 95 299 97
f 298 299 95
f 97 300 99
f 299 300 97
f 99 301 101
f 300 301 99
f 101 302 103
f 301 302 101
f 103 303 105
f 302 303 103
f 105 304 107
f 303 304 105
f 107 305 109
f 304 305 107
f 109 306 111
f 305 306 109
f 111 307 113
f 306 307 111
f 113 308 115
f 307 308 113
f 115 309 117
f 308 309 115
f 117 310 119
f 309 310 117
f 119 311 121
f 310 311 119
f 121 312 123
f 311 312 121
f 123 313 125
f 312 313 123
f 125 314 127
f 313 314 125
f 127 315 129
f 314 315 127
f 129 316 131
f 315 316 129
f 131 317 133
f 316 317 131
f 133 318 135
f 317 318 133
f 135 319 137
f 318 319 135
f 137 320 139
f 319 320 137
f 139 321 141
f 320 321 139
f 141 322 143
f 321 322 141
f 143 323 145
f 322 323 143
f 145 324 147
f 323 324 145
f 147 325 149
f 324 325 147
f 149 326 151
f 325 326 149
f 151 327 153
f 326 327 151
f 153 328 155
f 327 328 153
f 156 155 328
f 156 328 329
f 157 291 83
f 157 330 291
f 292 158 84
f 331 158 292
f 160 293 87
f 333 332 161
f 161 332 160
f 332 295 160
f 295 293 160
f 335 334 333
f 333 334 332
f 337 336 335
f 335 336 334
f 339 338 337
f 337 338 336
f 341 340 339
f 339 340 338
f 343 342 341
f 341 342 340
f 345 344 343
f 343 344 342
f 347 346 345
f 345 346 344
f 349 348 347
f 347 348 346
f 351 350 349
f 349 350 348
f 353 352 351
f 351 352 350
f 355 354 353
f 353 354 352
f 357 356 355
f 355 356 354
f 359 358 357
f 357 358 356
f 361 360 359
f 359 360 358
f 363 362 361
f 361 362 360
f 365 364 363
f 363 364 362
f 367 366 365
f 365 366 364
f 369 368 367
f 367 368 366
f 371 370 369
f 369 370 368
f 373 372 371
f 371 372 370
f 375 374 373
f 373 374 372
f 377 376 375
f 375 376 374
f 379 378 377
f 377 378 376
f 381 380 379
f 379 380 378
f 383 382 381
f 381 382 380
f 385 384 383
f 383 384 382
f 387 386 385
f 385 386 384
f 389 388 387
f 387 388 386
f 391 390 389
f 389 390 388
f 393 392 391
f 391 392 390
f 395 394 393
f 393 394 392
f 397 396 395
f 395 396 394
f 399 398 397
f 397 398 396
f 329 398 399
f 195 329 399
f 156 329 195
f 196 330 157
f 196 400 330
f 331 197 158
f 401 197 331
f 198 402 200
f 402 403 200
f 200 403 161
f 403 404 161
f 404 333 161
f 333 404 335
f 335 404 405
f 335 405 337
f 337 405 406
f 337 406 339
f 339 406 407
f 339 407 341
f 341 407 408
f 341 408 343
f 343 408 409
f 343 409 345
f 345 409 410
f 345 410 347
f 347 410 411
f 347 411 349
f 349 411 412
f 349 412 351
f 351 412 413
f 351 413 353
f 353 413 414
f 353 414 355
f 355 414 415
f 355 415 357
f 357 415 416
f 357 416 359
f 359 416 417
f 359 417 361
f 361 417 418
f 361 418 363
f 363 418 419
f 363 419 365
f 365 419 420
f 365 420 367
f 367 420 421
f 367 421 369
f 369 421 422
f 369 422 371
f 371 422 423
f 371 423 373
f 373 423 424
f 373 424 375
f 375 424 425
f 375 425 377
f 377 425 426
f 377 426 379
f 379 426 427
f 379 427 381
f 381 427 428
f 381 428 383
f 383 428 429
f 383 429 385
f 385 429 430
f 385 430 387
f 387 430 431
f 387 431 389
f 389 431 432
f 389 432 391
f 391 432 433
f 391 433 393
f 393 433 434
f 393 434 395
f 395 434 435
f 395 435 397
f 397 435 436
f 397 436 399
f 399 436 437
f 195 399 437
f 438 195 437
f 235 195 438
f 236 400 196
f 236 439 400
f 401 237 197
f 440 237 401
f 402 198 238
f 443 442 441
f 239 402 238
f 402 239 403
f 444 403 239
f 403 444 443
f 442 443 444
f 444 239 445
f 239 446 445
f 239 240 446
f 447 240 241
f 447 446 240
f 448 241 242
f 448 447 241
f 449 242 243
f 449 448 242
f 450 243 244
f 450 449 243
f 451 244 245
f 451 450 244
f 452 245 246
f 452 451 245
f 453 246 247
f 453 452 246
f 454 247 248
f 454 453 247
f 455 248 249
f 455 454 248
f 456 249 250
f 456 455 249
f 457 250 251
f 457 456 250
f 458 251 252
f 458 457 251
f 459 252 253
f 459 458 252
f 460 253 254
f 460 459 253
f 461 254 255
f 461 460 254
f 462 255 256
f 462 461 255
f 463 256 257
f 463 462 256
f 464 257 258
f 464 463 257
f 465 258 259
f 465 464 258
f 466 259 260
f 466 465 259
f 467 260 261
f 467 466 260
f 468 261 262
f 468 467 261
f 469 262 263
f 469 468 262
f 470 263 264
f 470 469 263
f 471 264 265
f 471 470 264
f 472 265 266
f 472 471 265
f 473 266 267
f 473 472 266
f 474 267 268
f 474 473 267
f 475 268 269
f 475 474 268
f 476 269 270
f 476 475 269
f 477 270 271
f 477 476 270
f 478 271 272
f 478 477 271
f 272 235 438
f 272 438 478
f 273 439 236
f 273 479 439
f 440 274 237
f 480 274 440
f 481 441 442
f 481 442 444
f 481 444 482
f 482 444 445
f 275 479 273
f 275 483 479
f 480 276 274
f 484 276 480
f 277 483 275
f 277 485 483
f 484 278 276
f 486 278 484
f 487 485 277
f 487 277 279
f 279 278 486
f 279 486 487
f 489 488 280
f 489 280 281
f 282 280 488
f 282 488 490
f 283 489 281
f 283 491 489
f 490 284 282
f 492 284 490
f 287 493 286
f 494 289 286
f 494 286 493
f 494 290 289
f 291 491 283
f 291 495 491
f 492 292 284
f 496 292 492
f 493 287 294
f 499 498 497
f 500 498 499
f 498 500 295
f 494 295 500
f 295 494 294
f 493 294 494
f 494 500 290
f 500 296 290
f 500 501 296
f 296 502 297
f 501 502 296
f 297 503 298
f 502 503 297
f 298 504 299
f 503 504 298
f 299 505 300
f 504 505 299
f 300 506 301
f 505 506 300
f 301 507 302
f 506 507 301
f 302 508 303
f 507 508 302
f 303 509 304
f 508 509 303
f 304 510 305
f 509 510 304
f 305 511 306
f 510 511 305
f 306 512 307
f 511 512 306
f 307 513 308
f 512 513 307
f 308 514 309
f 513 514 308
f 309 515 310
f 514 515 309
f 310 516 311
f 515 516 310
f 311 517 312
f 516 517 311
f 312 518 313
f 517 518 312
f 313 519 314
f 518 519 313
f 314 520 315
f 519 520 314
f 315 521 316
f 520 521 315
f 316 522 317
f 521 522 316
f 317 523 318
f 522 523 317
f 318 524 319
f 523 524 318
f 319 525 320
f 524 525 319
f 320 526 321
f 525 526 320
f 321 527 322
f 526 527 321
f 322 528 323
f 527 528 322
f 323 529 324
f 528 529 323
f 324 530 325
f 529 530 324
f 325 531 326
f 530 531 325
f 326 532 327
f 531 532 326
f 327 533 328
f 532 533 327
f 329 328 533
f 329 533 534
f 330 495 291
f 330 535 495
f 496 331 292
f 536 331 496
f 537 497 498
f 539 537 538
f 538 537 332
f 537 498 332
f 498 295 332
f 334 540 332
f 332 540 538
f 336 541 334
f 334 541 540
f 338 542 336
f 336 542 541
f 340 543 338
f 338 543 542
f 342 544 340
f 340 544 543
f 344 545 342
f 342 545 544
f 346 546 344
f 344 546 545
f 348 547 346
f 346 547 546
f 350 548 348
f 348 548 547
f 352 549 350
f 350 549 548
f 354 550 352
f 352 550 549
f 356 551 354
f 354 551 550
f 358 552 356
f 356 552 551
f 360 553 358
f 358 553 552
f 362 554 360
f 360 554 553
f 364 555 362
f 362 555 554
f 366 556 364
f 364 556 555
f 368 557 366
f 366 557 556
f 370 558 368
f 368 558 557
f 372 559 370
f 370 559 558
f 374 560 372
f 372 560 559
f 376 561 374
f 374 561 560
f 378 562 376
f 376 562 561
f 380 563 378
f 378 563 562
f 382 564 380
f 380 564 563
f 384 565 382
f 382 565 564
f 386 566 384
f 384 566 565
f 388 567 386
f 386 567 566
f 390 568 388
f 388 568 567
f 392 569 390
f 390 569 568
f 394 570 392
f 392 570 569
f 396 571 394
f 394 571 570
f 398 572 396
f 396 572 571
f 573 572 398
f 329 573 398
f 534 573 329
f 400 535 330
f 400 574 535
f 536 401 331
f 575 401 536
f 578 577 576
f 576 577 539
f 576 539 538
f 403 576 538
f 404 403 538
f 404 538 405
f 405 538 540
f 405 540 406
f 406 540 541
f 406 541 407
f 407 541 542
f 407 542 408
f 408 542 543
f 408 543 409
f 409 543 544
f 409 544 410
f 410 544 545
f 410 545 411
f 411 545 546
f 411 546 412
f 412 546 547
f 412 547 413
f 413 547 548
f 413 548 414
f 414 548 549
f 414 549 415
f 415 549 550
f 415 550 416
f 416 550 551
f 416 551 417
f 417 551 552
f 417 552 418
f 418 552 553
f 418 553 419
f 419 553 554
f 419 554 420
f 420 554 555
f 420 555 421
f 421 555 556
f 421 556 422
f 422 556 557
f 422 557 423
f 423 557 558
f 423 558 424
f 424 558 559
f 424 559 425
f 425 559 560
f 425 560 426
f 426 560 561
f 426 561 427
f 427 561 562
f 427 562 428
f 428 562 563
f 428 563 429
f 429 563 564
f 429 564 430
f 430 564 565
f 430 565 431
f 431 565 566
f 431 566 432
f 432 566 567
f 432 567 433
f 433 567 568
f 433 568 434
f 434 568 569
f 434 569 435
f 435 569 570
f 435 570 436
f 436 570 571
f 436 571 437
f 437 571 572
f 438 437 572
f 573 438 572
f 579 438 573
f 439 574 400
f 439 580 574
f 575 440 401
f 581 440 575
f 443 441 582
f 576 583 578
f 583 576 584
f 403 584 576
f 584 403 585
f 443 585 403
f 585 443 582
f 445 446 585
f 446 584 585
f 446 586 584
f 587 446 447
f 587 586 446
f 588 447 448
f 588 587 447
f 589 448 449
f 589 588 448
f 590 449 450
f 590 589 449
f 591 450 451
f 591 590 450
f 592 451 452
f 592 591 451
f 593 452 453
f 593 592 452
f 594 453 454
f 594 593 453
f 595 454 455
f 595 594 454
f 596 455 456
f 596 595 455
f 597 456 457
f 597 596 456
f 598 457 458
f 598 597 457
f 599 458 459
f 599 598 458
f 600 459 460
f 600 599 459
f 601 460 461
f 601 600 460
f 602 461 462
f 602 601 461
f 603 462 463
f 603 602 462
f 604 463 464
f 604 603 463
f 605 464 465
f 605 604 464
f 606 465 466
f 606 605 465
f 607 466 467
f 607 606 466
f 608 467 468
f 608 607 467
f 609 468 469
f 609 608 468
f 610 469 470
f 610 609 469
f 611 470 471
f 611 610 470
f 612 471 472
f 612 611 471
f 613 472 473
f 613 612 472
f 614 473 474
f 614 613 473
f 615 474 475
f 615 614 474
f 616 475 476
f 616 615 475
f 617 476 477
f 617 616 476
f 618 477 478
f 618 617 477
f 478 438 579
f 478 579 618
f 479 580 439
f 479 619 580
f 581 480 440
f 620 480 581
f 481 582 441
f 582 481 482
f 582 482 585
f 585 482 445
f 483 619 479
f 483 621 619
f 620 484 480
f 622 484 620
f 485 621 483
f 485 623 621
f 622 486 484
f 624 486 622
f 625 623 485
f 625 485 487
f 487 486 624
f 487 624 625
f 627 626 488
f 627 488 489
f 490 488 626
f 490 626 628
f 491 627 489
f 491 629 627
f 628 492 490
f 630 492 628
f 495 629 491
f 495 631 629
f 630 496 492
f 632 496 630
f 497 633 499
f 634 500 499
f 634 499 633
f 635 501 500
f 635 500 634
f 636 502 501
f 636 501 635
f 637 503 502
f 637 502 636
f 638 504 503
f 638 503 637
f 639 505 504
f 639 504 638
f 640 506 505
f 640 505 639
f 641 507 506
f 641 506 640
f 642 508 507
f 642 507 641
f 643 509 508
f 643 508 642
f 644 510 509
f 644 509 643
f 645 511 510
f 645 510 644
f 646 512 511
f 646 511 645
f 647 513 512
f 647 512 646
f 648 514 513
f 648 513 647
f 649 515 514
f 649 514 648
f 650 516 515
f 650 515 649
f 651 517 516
f 651 516 650
f 652 518 517
f 652 517 651
f 653 519 518
f 653 518 652
f 654 520 519
f 654 519 653
f 655 521 520
f 655 520 654
f 656 522 521
f 656 521 655
f 657 523 522
f 657 522 656
f 658 524 523
f 658 523 657
f 659 525 524
f 659 524 658
f 660 526 525
f 660 525 659
f 661 527 526
f 661 526 660
f 662 528 527
f 662 527 661
f 663 529 528
f 663 528 662
f 664 530 529
f 664 529 663
f 665 531 530
f 665 530 664
f 666 532 531
f 666 531 665
f 667 533 532
f 667 532 666
f 667 534 533
f 535 631 495
f 535 668 631
f 632 536 496
f 669 536 632
f 633 497 537
f 672 671 670
f 673 671 672
f 671 673 539
f 634 539 673
f 539 634 537
f 633 537 634
f 675 674 673
f 674 634 673
f 674 635 634
f 635 676 636
f 635 674 676
f 636 677 637
f 636 676 677
f 637 678 638
f 637 677 678
f 638 679 639
f 638 678 679
f 639 680 640
f 639 679 680
f 640 681 641
f 640 680 681
f 641 682 642
f 641 681 682
f 642 683 643
f 642 682 683
f 643 684 644
f 643 683 684
f 644 685 645
f 644 684 685
f 645 686 646
f 645 685 686
f 646 687 647
f 646 686 687
f 647 688 648
f 647 687 688
f 648 689 649
f 648 688 689
f 649 690 650
f 649 689 690
f 650 691 651
f 650 690 691
f 651 692 652
f 651 691 692
f 652 693 653
f 652 692 693
f 653 694 654
f 653 693 694
f 654 695 655
f 654 694 695
f 655 696 656
f 655 695 696
f 656 697 657
f 656 696 697
f 657 698 658
f 657 697 698
f 658 699 659
f 658 698 699
f 659 700 660
f 659 699 700
f 660 701 661
f 660 700 701
f 661 702 662
f 661 701 702
f 662 703 663
f 662 702 703
f 663 704 664
f 663 703 704
f 664 705 665
f 664 704 705
f 665 706 666
f 665 705 706
f 666 707 667
f 666 706 707
f 707 573 534
f 707 534 667
f 574 668 535
f 574 708 668
f 669 575 536
f 709 575 669
f 577 578 710
f 671 711 670
f 711 671 712
f 539 712 671
f 712 539 713
f 577 713 539
f 713 577 710
f 712 713 675
f 713 674 675
f 713 714 674
f 674 715 676
f 674 714 715
f 676 716 677
f 676 715 716
f 677 717 678
f 677 716 717
f 678 718 679
f 678 717 718
f 679 719 680
f 679 718 719
f 680 720 681
f 680 719 720
f 681 721 682
f 681 720 721
f 682 722 683
f 682 721 722
f 683 723 684
f 683 722 723
f 684 724 685
f 684 723 724
f 685 725 686
f 685 724 725
f 686 726 687
f 686 725 726
f 687 727 688
f 687 726 727
f 688 728 689
f 688 727 728
f 689 729 690
f 689 728 729
f 690 730 691
f 690 729 730
f 691 731 692
f 691 730 731
f 692 732 693
f 692 731 732
f 693 733 694
f 693 732 733
f 694 734 695
f 694 733 734
f 695 735 696
f 695 734 735
f 696 736 697
f 696 735 736
f 697 737 698
f 697 736 737
f 698 738 699
f 698 737 738
f 699 739 700
f 699 738 739
f 700 740 701
f 700 739 740
f 701 741 702
f 701 740 741
f 702 742 703
f 702 741 742
f 703 743 704
f 703 742 743
f 704 744 705
f 704 743 744
f 705 745 706
f 705 744 745
f 706 746 707
f 706 745 746
f 746 579 573
f 746 573 707
f 580 708 574
f 580 747 708
f 709 581 575
f 748 581 709
f 583 710 578
f 710 583 584
f 710 584 713
f 713 584 586
f 713 586 714
f 714 586 587
f 714 587 715
f 715 587 588
f 715 588 716
f 716 588 589
f 716 589 717
f 717 589 590
f 717 590 718
f 718 590 591
f 718 591 719
f 719 591 592
f 719 592 720
f 720 592 593
f 720 593 721
f 721 593 594
f 721 594 722
f 722 594 595
f 722 595 723
f 723 595 596
f 723 596 724
f 724 596 597
f 724 597 725
f 725 597 598
f 725 598 726
f 726 598 599
f 726 599 727
f 727 599 600
f 727 600 728
f 728 600 601
f 728 601 729
f 729 601 602
f 729 602 730
f 730 602 603
f 730 603 731
f 731 603 604
f 731 604 732
f 732 604 605
f 732 605 733
f 733 605 606
f 733 606 734
f 734 606 607
f 734 607 735
f 735 607 608
f 735 608 736
f 736 608 609
f 736 609 737
f 737 609 610
f 737 610 738
f 738 610 611
f 738 611 739
f 739 611 612
f 739 612 740
f 740 612 613
f 740 613 741
f 741 613 614
f 741 614 742
f 742 614 615
f 742 615 743
f 743 615 616
f 743 616 744
f 744 616 617
f 744 617 745
f 745 617 618
f 745 618 746
f 746 618 579
f 619 747 580
f 619 749 747
f 748 620 581
f 750 620 748
f 621 749 619
f 621 751 749
f 750 622 620
f 752 622 750
f 623 751 621
f 623 753 751
f 752 624 622
f 754 624 752
f 755 753 623
f 755 623 625
f 625 624 754
f 625 754 755
f 757 756 626
f 757 626 627
f 628 626 756
f 628 756 758
f 629 757 627
f 629 759 757
f 758 630 628
f 760 630 758
f 631 759 629
f 631 761 759
f 760 632 630
f 762 632 760
f 668 761 631
f 668 763 761
f 762 669 632
f 764 669 762
f 670 765 672
f 766 673 672
f 766 672 765
f 766 675 673
f 708 763 668
f 708 767 763
f 764 709 669
f 768 709 764
f 711 765 670
f 765 711 712
f 765 712 766
f 766 712 675
f 747 767 708
f 747 769 767
f 768 748 709
f 770 748 768
f 749 769 747
f 749 771 769
f 770 750 748
f 772 750 770
f 751 771 749
f 751 773 771
f 772 752 750
f 774 752 772
f 753 773 751
f 753 775 773
f 774 754 752
f 776 754 774
f 777 775 753
f 777 753 755
f 755 754 776
f 755 776 777
f 779 778 756
f 779 756 757
f 758 756 778
f 758 778 780
f 759 779 757
f 759 781 779
f 780 760 758
f 782 760 780
f 761 781 759
f 761 783 781
f 782 762 760
f 784 762 782
f 763 783 761
f 763 785 783
f 784 764 762
f 786 764 784
f 767 785 763
f 767 787 785
f 786 768 764
f 788 768 786
f 769 787 767
f 769 789 787
f 788 770 768
f 790 770 788
f 771 789 769
f 771 791 789
f 790 772 770
f 792 772 790
f 773 791 771
f 773 793 791
f 792 774 772
f 794 774 792
f 775 793 773
f 775 795 793
f 794 776 774
f 796 776 794
f 797 795 775
f 797 775 777
f 777 776 796
f 777 796 797
f 779 798 778
f 798 780 778
f 781 799 798
f 781 798 779
f 799 782 780
f 799 780 798
f 783 800 799
f 783 799 781
f 800 784 782
f 800 782 799
f 785 801 800
f 785 800 783
f 801 786 784
f 801 784 800
f 787 802 801
f 787 801 785
f 802 788 786
f 802 786 801
f 789 803 802
f 789 802 787
f 803 790 788
f 803 788 802
f 791 804 803
f 791 803 789
f 804 792 790
f 804 790 803
f 793 805 804
f 793 804 791
f 805 794 792
f 805 792 804
f 795 806 805
f 795 805 793
f 806 796 794
f 806 794 805
f 797 806 795
f 806 797 796

