# https://github.com/mikedh/trimesh
v -0.02480779 -0.00351783 -0.00363478
v -0.02189467 -0.00612395 -0.00440290
v -0.02318946 -0.00433507 -0.00673351
v -0.02135545 -0.00499629 -0.00182560
v -0.02469565 -0.00112679 -0.00820375
v -0.02160548 -0.00198716 -0.00936887
v -0.02274427 0.00022387 -0.01054502
v -0.02544959 0.00066229 -0.00411755
v -0.02306526 -0.00234599 0.00035502
v -0.02510752 0.00075044 0.00141811
v -0.02131517 0.00035992 0.00337108
v -0.02199833 0.00260930 -0.00854349
v -0.02332823 0.00301685 -0.00370236
v -0.02153902 0.00580473 -0.00194104
v -0.02527236 0.00476363 0.00089471
v -0.02297984 0.00297332 0.00570565
v -0.02493455 0.00577983 0.00586441
v -0.02180161 0.00557719 0.00786897
v -0.02229109 0.00819302 0.00067171
v -0.02260818 0.01098166 0.00376791
v -0.02490946 0.01031905 0.00557971
v -0.02236017 0.00945961 0.00827690
v -0.02470426 0.01568084 0.00632283
v -0.02262963 0.01548185 0.00438305
v -0.02246684 0.01449895 0.00815882
v -0.02497684 0.02130038 0.00580427
v -0.02276615 0.02035211 0.00346238
v -0.02250849 0.01962182 0.00817719
v -0.02536886 0.02567473 0.00158284
v -0.02166148 0.02272112 0.00050574
v -0.02241486 0.02530714 -0.00193551
v -0.02509911 0.02689590 0.00505632
v -0.02256319 0.02441376 0.00795571
v -0.02492961 0.02991398 -0.00305702
v -0.02169285 0.02796894 -0.00489362
v -0.02171637 0.03047701 -0.00648254
v -0.02515891 0.03060464 0.00061454
v -0.02325883 0.03040516 0.00359979
v -0.02159839 0.02814767 0.00634066
v -0.02268791 0.03293529 -0.00288948
v -0.02206575 0.03266722 0.00083515
v -0.01823855 -0.00658546 -0.00431698
v -0.01935400 -0.00488282 -0.00695847
v -0.01753529 -0.00556953 -0.00157496
v -0.01719508 -0.00234400 -0.01020631
v -0.01818297 0.00133269 -0.01164156
v -0.01905996 -0.00256696 0.00093815
v -0.01733007 -0.00027016 0.00348783
v -0.01925195 0.00491596 -0.01861701
v -0.01715325 0.00382810 -0.01871065
v -0.01799810 0.00601391 -0.02102353
v -0.01972116 0.00552658 -0.01431359
v -0.01806810 0.00324054 -0.01556328
v -0.01956427 0.00594061 -0.00994688
v -0.01838191 0.00521003 -0.00735679
v -0.01791312 0.00364223 -0.00498791
v -0.01707463 0.00530388 -0.00164991
v -0.01893673 0.00269277 0.00621806
v -0.01804734 0.00579369 0.00839878
v -0.01932136 0.00969035 -0.01923507
v -0.01761764 0.01023121 -0.02135967
v -0.01759700 0.01072678 -0.01731040
v -0.01750591 0.00771008 -0.01382843
v -0.01709689 0.00667646 -0.00985282
v -0.01807822 0.01124790 -0.00536854
v -0.01989360 0.01020235 -0.00312332
v -0.01767273 0.00807555 -0.00323549
v -0.01978445 0.00734553 -0.00118572
v -0.01827989 0.00787536 0.00091392
v -0.01742709 0.00998827 -0.00191083
v -0.01768000 0.01078836 0.00313989
v -0.01816640 0.01052142 0.00921153
v -0.01934020 0.01583297 -0.01902256
v -0.01755479 0.01553583 -0.02132413
v -0.01759423 0.01521692 -0.01744951
v -0.01935005 0.01577563 -0.00468053
v -0.01759273 0.01501558 -0.00647296
v -0.01762549 0.01532450 -0.00268068
v -0.01783306 0.01540681 0.00379701
v -0.01763952 0.01612820 0.00905951
v -0.01947897 0.02055601 -0.01931963
v -0.01717552 0.01972100 -0.02105660
v -0.01761453 0.01843850 -0.01412757
v -0.01998315 0.02080696 -0.01397542
v -0.01985219 0.01963294 -0.00834792
v -0.01763484 0.01834955 -0.00951196
v -0.02033677 0.02188720 -0.00430066
v -0.01791529 0.02071145 -0.00178304
v -0.01796833 0.02009681 0.00319735
v -0.01851828 0.02148229 0.00871103
v -0.01796841 0.02316314 -0.01918819
v -0.01716252 0.02546827 -0.01685118
v -0.01952087 0.02491621 -0.01554433
v -0.02040322 0.02571384 -0.00935029
v -0.01802048 0.02619803 -0.00654129
v -0.01747860 0.02330943 -0.00351892
v -0.01989402 0.02343237 -0.00101919
v -0.01839476 0.02553180 -0.00162359
v -0.01727594 0.02303860 0.00101940
v -0.01774386 0.02518037 0.00819215
v -0.01804475 0.02720929 -0.01348121
v -0.01755887 0.02810446 -0.00921500
v -0.01994737 0.02874382 -0.00652922
v -0.01731034 0.03084838 -0.00605580
v -0.01723616 0.02810411 -0.00440707
v -0.01906391 0.03106556 0.00364051
v -0.01641050 0.02836889 0.00632892
v -0.01781613 0.03320984 -0.00372342
v -0.01777212 0.03315790 0.00025243
v -0.01442772 -0.01367954 -0.01333996
v -0.01239181 -0.01706608 -0.01488227
v -0.01251094 -0.01455074 -0.01624323
v -0.01215249 -0.01469778 -0.01227142
v -0.01499041 -0.00970532 -0.01391326
v -0.01251997 -0.00954685 -0.01657210
v -0.01268799 -0.01199683 -0.01001513
v -0.01484245 -0.01047833 -0.00933080
v -0.01511911 -0.00882645 -0.00348087
v -0.01283959 -0.01117466 -0.00544666
v -0.01457619 -0.00938768 0.00195668
v -0.01225678 -0.01158162 -0.00030390
v -0.01477895 -0.00942960 0.00683072
v -0.01238339 -0.01232472 0.00546216
v -0.01489068 -0.00950129 0.01193012
v -0.01224990 -0.01189988 0.01085316
v -0.01498198 -0.00955780 0.01733072
v -0.01222003 -0.01214768 0.01608364
v -0.01445201 -0.00901708 0.02158867
v -0.01291001 -0.01172675 0.02038395
v -0.01173839 -0.01009948 0.02320915
v -0.01469804 -0.00439295 -0.01379055
v -0.01162909 -0.00487502 -0.01624469
v -0.01608958 -0.00626519 -0.00897865
v -0.01565079 -0.00452884 0.00129723
v -0.01501275 -0.00489237 0.00561852
v -0.01531365 -0.00491579 0.01066897
v -0.01551560 -0.00490857 0.01605930
v -0.01492377 -0.00476698 0.02095161
v -0.01232053 -0.00520706 0.02325219
v -0.01257979 -0.00215167 -0.01459450
v -0.01246026 0.00001608 -0.01193341
v -0.01550215 0.00059392 0.00636413
v -0.01494933 0.00022300 0.01084370
v -0.01529745 0.00028248 0.01620698
v -0.01480223 0.00047692 0.02103824
v -0.01279506 0.00064500 0.02312275
v -0.01592015 0.00611315 -0.01990364
v -0.01560476 0.00505016 -0.01409574
v -0.01275918 0.00285156 -0.00860604
v -0.01554681 0.00508914 -0.00846208
v -0.01298740 0.00333723 -0.00392649
v -0.01220838 0.00586635 -0.00182760
v -0.01538889 0.00585782 0.01107030
v -0.01517838 0.00536975 0.01638319
v -0.01473224 0.00559008 0.02119352
v -0.01272565 0.00579941 0.02323416
v -0.01586620 0.01010365 -0.01897707
v -0.01540486 0.01021019 -0.00366172
v -0.01553312 0.00728604 -0.00115686
v -0.01362664 0.00825803 0.00044832
v -0.01230310 0.01079610 0.00319776
v -0.01564074 0.01158114 0.01157549
v -0.01527939 0.01049452 0.01628434
v -0.01484262 0.01072459 0.02117755
v -0.01200770 0.01111371 0.02341133
v -0.01584479 0.01609806 -0.01931203
v -0.01589040 0.01568311 -0.00484392
v -0.01256550 0.01551813 0.00382848
v -0.01471675 0.01575227 0.01086750
v -0.01475582 0.01496552 0.01488906
v -0.01466696 0.01529630 0.02008076
v -0.01293437 0.01494839 0.02331923
v -0.01568465 0.02181657 -0.01863960
v -0.01527202 0.02045044 -0.01479237
v -0.01536683 0.02004177 -0.00915226
v -0.01505267 0.02101279 -0.00368813
v -0.01263501 0.02012025 0.00313911
v -0.01380619 0.02031749 0.00907272
v -0.01168293 0.01799247 0.01199045
v -0.01239995 0.01781775 0.01750425
v -0.01189604 0.01753295 0.02172996
v -0.01570394 0.02542981 -0.01427647
v -0.01495666 0.02516548 -0.00849921
v -0.01564790 0.02345851 -0.00099233
v -0.01367155 0.02503463 -0.00209902
v -0.01232703 0.02277971 0.00037867
v -0.01240524 0.02501313 0.00817569
v -0.01566647 0.02871585 -0.00653411
v -0.01269147 0.03040427 -0.00670280
v -0.01216409 0.02793835 -0.00508708
v -0.01362222 0.03104299 0.00370966
v -0.01100871 0.02830186 0.00637987
v -0.01222388 0.03318485 -0.00374204
v -0.01225869 0.03315027 0.00032538
v -0.00967564 -0.03976536 -0.01336554
v -0.00649369 -0.04212538 -0.01424749
v -0.00799368 -0.03931870 -0.01637070
v -0.00989925 -0.03977981 -0.00839981
v -0.00735110 -0.04237205 -0.00956215
v -0.00989401 -0.03980325 -0.00307898
v -0.00728968 -0.04238143 -0.00426564
v -0.00965356 -0.03909912 0.00198256
v -0.00789154 -0.04189642 -0.00010300
v -0.00631351 -0.04034335 0.00344031
v -0.00987006 -0.03513519 -0.01421596
v -0.00724527 -0.03518598 -0.01674423
v -0.01041940 -0.03512208 -0.00964047
v -0.01040589 -0.03514337 -0.00436510
v -0.01054551 -0.03503703 0.00102943
v -0.00797117 -0.03760229 0.00567059
v -0.00970248 -0.03460582 0.00576554
v -0.00684331 -0.03491667 0.00793035
v -0.00978025 -0.02989979 -0.01404242
v -0.00713411 -0.02994917 -0.01655276
v -0.01030343 -0.02988219 -0.00947160
v -0.01023480 -0.02986922 -0.00421568
v -0.01039035 -0.02975298 0.00107734
v -0.00997174 -0.02962368 0.00577515
v -0.00728445 -0.03090223 0.00845034
v -0.00980830 -0.02477250 -0.01385733
v -0.00720512 -0.02484308 -0.01639700
v -0.01029805 -0.02473610 -0.00925644
v -0.01017979 -0.02473463 -0.00399850
v -0.01027929 -0.02458930 0.00120627
v -0.00988937 -0.02438327 0.00576733
v -0.00735544 -0.02566296 0.00838144
v -0.01047042 -0.01951025 -0.01367047
v -0.00811686 -0.01964345 -0.01650026
v -0.01033878 -0.01957418 -0.00915325
v -0.01020709 -0.01957043 -0.00386790
v -0.01027711 -0.01952524 0.00129971
v -0.00985041 -0.01932983 0.00571301
v -0.00739196 -0.02043602 0.00818468
v -0.00789280 -0.01475456 -0.01702637
v -0.01005184 -0.01471135 -0.00985315
v -0.00959832 -0.01490126 -0.00515643
v -0.01024483 -0.01432604 0.00052108
v -0.01012052 -0.01502654 0.00594186
v -0.00696574 -0.01522759 0.00858095
v -0.00799423 -0.00950169 -0.01706720
v -0.00777084 -0.01064818 -0.01081550
v -0.01033700 -0.01002875 -0.00831304
v -0.00738684 -0.01260401 -0.00873844
v -0.00764647 -0.01265749 -0.00433464
v -0.00972118 -0.00870159 -0.00341359
v -0.00823744 -0.01072600 -0.00124084
v -0.00801500 -0.01259074 0.01081230
v -0.00745730 -0.01249960 0.01627356
v -0.00874428 -0.01210896 0.02100815
v -0.00778982 -0.00914656 0.02332020
v -0.00677577 -0.00486558 -0.01639286
v -0.00772157 -0.00810384 -0.00827212
v -0.00702135 -0.00670681 -0.00535933
v -0.00757992 -0.00497390 -0.00229708
v -0.00954947 -0.00492741 0.00148413
v -0.00758036 -0.00756844 0.00114397
v -0.00739910 -0.00657848 0.00570001
v -0.01003907 -0.00422342 0.00678574
v -0.00738335 -0.00676692 0.01073934
v -0.00987823 -0.00420257 0.01190697
v -0.00729208 -0.00673116 0.01604314
v -0.00971325 -0.00403812 0.01731079
v -0.00707848 -0.00724212 0.02093245
v -0.00990126 -0.00496901 0.02158191
v -0.00839308 -0.00171057 -0.01398442
v -0.00723745 0.00036627 -0.01114032
v -0.00738981 -0.00221697 0.00077253
v -0.00982922 -0.00014852 0.00549548
v -0.00633380 0.00030219 0.00365476
v -0.01050534 0.00044886 0.01082129
v -0.01025144 0.00057886 0.01613319
v -0.01081740 -0.00057047 0.02093685
v -0.00770708 0.00215841 -0.00868082
v -0.00838429 0.00338457 -0.00465361
v -0.00599202 0.00523589 -0.00140632
v -0.00801116 0.00296182 0.00662067
v -0.01008179 0.00547454 0.01066262
v -0.00747144 0.00623570 0.00836845
v -0.01029857 0.00585671 0.01623553
v -0.01074826 0.00466616 0.02107490
v -0.00830072 0.00760257 0.00124836
v -0.00727768 0.01085198 0.00318557
v -0.00961725 0.00986200 0.01080083
v -0.00653392 0.01030878 0.00912769
v -0.00987188 0.01041949 0.01490353
v -0.01015419 0.00993458 0.02062071
v -0.00747687 0.01547919 0.00365216
v -0.00735282 0.01266006 0.01233329
v -0.00700511 0.01287990 0.01746171
v -0.00785899 0.01303854 0.02171385
v -0.00810899 0.01546703 0.02331977
v -0.00719266 0.01975524 0.00351061
v -0.00833657 0.02143505 0.00858875
v -0.00635084 0.01845052 0.01063381
v -0.00784844 0.01824997 0.01618940
v -0.00774702 0.01791988 0.02103228
v -0.00702841 0.02309981 0.00167372
v -0.00838268 0.02571537 -0.00135002
v -0.00813403 0.02558157 0.00776854
v -0.00668717 0.02842300 -0.00367548
v -0.00784587 0.03072781 -0.00558415
v -0.00843196 0.03102300 0.00343185
v -0.00686840 0.02825017 0.00566795
v -0.00792235 0.03270726 -0.00444542
v -0.00738498 0.03282898 -0.00063141
v -0.00145334 -0.04243543 -0.01399810
v -0.00387803 -0.03987519 -0.01677170
v -0.00265889 -0.04298782 -0.00940714
v -0.00263808 -0.04294135 -0.00408430
v -0.00379008 -0.04233813 0.00050539
v -0.00122492 -0.04029973 0.00383918
v -0.00247051 -0.03520328 -0.01720159
v -0.00460000 -0.03496532 -0.00806844
v -0.00238039 -0.03395526 -0.01115408
v -0.00145628 -0.03700021 -0.00833785
v -0.00279700 -0.03713786 -0.00532762
v -0.00465352 -0.03421687 -0.00320895
v -0.00111286 -0.03550248 -0.00162067
v -0.00387191 -0.03765125 0.00642423
v -0.00258305 -0.03435311 0.00839946
v -0.00239938 -0.02994640 -0.01704103
v -0.00485853 -0.03024923 -0.00911691
v -0.00269031 -0.02945725 -0.01172480
v -0.00565202 -0.03010210 -0.00418819
v -0.00279591 -0.03270122 0.00068520
v -0.00463782 -0.02968398 0.00073542
v -0.00162144 -0.02994654 0.00305982
v -0.00253589 -0.02981900 0.00896905
v -0.00246161 -0.02484656 -0.01693529
v -0.00468915 -0.02491785 -0.00904689
v -0.00189846 -0.02496906 -0.01179128
v -0.00553484 -0.02480272 -0.00419312
v -0.00493684 -0.02472884 0.00074297
v -0.00205513 -0.02590592 0.00359375
v -0.00266862 -0.02466099 0.00883807
v -0.00251342 -0.01980386 -0.01687581
v -0.00456031 -0.01961247 -0.00897270
v -0.00183977 -0.01975861 -0.01174715
v -0.00537361 -0.01951194 -0.00415469
v -0.00482301 -0.01951358 0.00071751
v -0.00210232 -0.02074246 0.00358172
v -0.00280100 -0.01944823 0.00858854
v -0.00264530 -0.01470026 -0.01687183
v -0.00512544 -0.01490303 -0.00888919
v -0.00279093 -0.01422876 -0.01173357
v -0.00573292 -0.01406269 -0.00389852
v -0.00469620 -0.01431510 0.00057965
v -0.00211504 -0.01555664 0.00343199
v -0.00171652 -0.01489915 0.00896419
v -0.00281993 -0.00947607 -0.01693285
v -0.00129790 -0.00998067 -0.01154143
v -0.00525747 -0.00987823 0.00100561
v -0.00165844 -0.01030631 0.00367361
v -0.00269527 -0.01241020 0.01152988
v -0.00224768 -0.01220058 0.01630985
v -0.00337472 -0.01186540 0.02114512
v -0.00228119 -0.00985775 0.02316945
v -0.00156439 -0.00486437 -0.01631998
v -0.00386060 -0.00698861 -0.00860168
v -0.00486887 -0.00429592 -0.00537444
v -0.00190042 -0.00420616 -0.00747843
v -0.00296369 -0.00747249 0.00564771
v -0.00271448 -0.00719679 0.01095412
v -0.00272528 -0.00728956 0.01623159
v -0.00256924 -0.00789214 0.02101918
v -0.00270131 -0.00229612 -0.01374911
v -0.00277068 -0.00182586 -0.00995539
v -0.00433905 -0.00036706 -0.00764583
v -0.00312383 -0.00217780 -0.00325849
v -0.00104990 0.00047264 -0.00591818
v -0.00338571 -0.00150776 0.00088255
v -0.00119555 0.00024982 0.00351465
v -0.00368625 0.00295533 -0.00495366
v -0.00115418 0.00533165 -0.00147038
v -0.00392820 0.00284668 0.00596859
v -0.00274933 0.00619553 0.00773639
v -0.00339430 0.00768832 0.00124315
v -0.00239394 0.01087812 0.00300573
v -0.00145310 0.01028828 0.00877063
v -0.00208242 0.01538184 0.00397657
v -0.00272995 0.01294544 0.01125702
v -0.00243678 0.01343513 0.01603541
v -0.00349313 0.01394257 0.02097834
v -0.00235776 0.01584195 0.02306006
v -0.00289323 0.01815406 0.00682616
v -0.00544579 0.02121321 0.00539695
v -0.00197764 0.01800939 0.01161123
v -0.00272281 0.01818777 0.01617865
v -0.00260976 0.01776940 0.02098721
v -0.00497088 0.02621609 0.00062859
v -0.00527134 0.02527764 0.00554311
v -0.00528135 0.03077959 -0.00287703
v -0.00505536 0.02972094 0.00192969
v 0.00264662 -0.04185090 -0.01344958
v 0.00196134 -0.03942031 -0.01640151
v 0.00287723 -0.04240940 -0.00894286
v 0.00274237 -0.04292688 -0.00388791
v 0.00158299 -0.04227405 0.00066557
v 0.00418844 -0.03944955 0.00379929
v 0.00219987 -0.03447185 -0.01709867
v 0.00055192 -0.03482119 -0.01001401
v 0.00210161 -0.03593407 -0.00718236
v 0.00117052 -0.03695334 -0.00439151
v 0.00293215 -0.03470876 -0.00119993
v 0.00121305 -0.03737249 0.00632821
v 0.00311334 -0.03352367 0.00809453
v 0.00293611 -0.03003801 -0.01702516
v 0.00116261 -0.03051813 -0.01159748
v 0.00332863 -0.03327461 -0.00881269
v 0.00122042 -0.03239832 0.00153306
v 0.00215693 -0.02837860 0.00328226
v 0.00211003 -0.02928046 0.00887481
v 0.00285511 -0.02496289 -0.01695717
v 0.00222219 -0.02513353 -0.01175984
v 0.00212125 -0.02341449 0.00361566
v 0.00269281 -0.02486141 0.00878888
v 0.00276406 -0.01994172 -0.01688448
v 0.00209182 -0.01992722 -0.01171700
v 0.00198324 -0.01822620 0.00355505
v 0.00243422 -0.01960698 0.00861057
v 0.00259025 -0.01478078 -0.01688353
v 0.00262955 -0.01410980 -0.01176801
v 0.00184366 -0.01309095 0.00329570
v 0.00350199 -0.01509463 0.00897227
v 0.00243590 -0.00950267 -0.01697562
v 0.00343404 -0.00944600 -0.01144559
v 0.00280657 -0.00929875 0.00320351
v 0.00240241 -0.01256068 0.01141278
v 0.00278145 -0.01215138 0.01621079
v 0.00181065 -0.01177427 0.02110743
v 0.00286658 -0.00987412 0.02323462
v 0.00368363 -0.00484831 -0.01642202
v 0.00216302 -0.00695585 -0.00878386
v 0.00274770 -0.00403801 -0.00703830
v 0.00309552 -0.00757761 0.00590203
v 0.00259864 -0.00723758 0.01102741
v 0.00259383 -0.00727666 0.01637599
v 0.00266144 -0.00787777 0.02115233
v 0.00171172 -0.00236089 -0.01434611
v 0.00224150 -0.00182519 -0.01067291
v 0.00264704 -0.00163540 -0.00416885
v 0.00289447 0.00078844 -0.00685200
v 0.00146320 -0.00162932 0.00036294
v 0.00420116 0.00031462 0.00360908
v 0.00197178 0.00296510 -0.00477850
v 0.00377901 0.00526114 -0.00141504
v 0.00148785 0.00286799 0.00602621
v 0.00269818 0.00621916 0.00775382
v 0.00143604 0.00772752 0.00117157
v 0.00246944 0.01085090 0.00300270
v 0.00363895 0.00967343 0.00914286
v 0.00350493 0.01568688 0.00407680
v 0.00146280 0.01241569 0.01067457
v 0.00210337 0.01278105 0.01475063
v 0.00180052 0.01319889 0.02050452
v 0.00296188 0.01493129 0.02336853
v 0.00249671 0.01804423 0.00665122
v 0.00235387 0.01809690 0.01086254
v 0.00246836 0.01829256 0.01624508
v 0.00255157 0.01776834 0.02109589
v 0.00535066 -0.03965842 -0.01458534
v 0.00554461 -0.04030930 -0.01085000
v 0.00714388 -0.04060921 -0.00695728
v 0.00742854 -0.04199762 -0.00352415
v 0.00658541 -0.04200687 0.00070005
v 0.00811702 -0.03915963 0.00276433
v 0.00799038 -0.03747877 -0.01307488
v 0.00656317 -0.03552303 -0.01637935
v 0.00825242 -0.03844050 -0.00893087
v 0.00459704 -0.03382346 -0.00455813
v 0.00507682 -0.03581419 0.00594758
v 0.00776429 -0.03528122 0.00440955
v 0.00751511 -0.03020346 -0.01654967
v 0.00484949 -0.02938825 -0.00844282
v 0.00575205 -0.02937435 -0.00328181
v 0.00471335 -0.03100001 0.00020423
v 0.00736346 -0.03278067 0.00667843
v 0.00709420 -0.02915925 0.00813265
v 0.00737865 -0.02517753 -0.01646862
v 0.00487142 -0.02388358 -0.00894492
v 0.00565303 -0.02495399 -0.00406692
v 0.00501245 -0.02604677 0.00079182
v 0.00731457 -0.02360190 0.00832493
v 0.00794002 -0.01962769 -0.01651491
v 0.00462316 -0.01862314 -0.00889725
v 0.00539121 -0.01978653 -0.00405149
v 0.00484281 -0.02086471 0.00080157
v 0.00704535 -0.01842554 0.00813563
v 0.00705426 -0.01419216 -0.01702341
v 0.00547265 -0.01424018 -0.00951413
v 0.00563929 -0.01448880 -0.00460701
v 0.00459394 -0.01563932 0.00072118
v 0.00795383 -0.01462683 0.00813739
v 0.00778216 -0.00966480 -0.01714772
v 0.00725378 -0.01107638 -0.01112590
v 0.00796362 -0.01287985 -0.00876953
v 0.00783991 -0.01233833 -0.00377569
v 0.00873597 -0.00972505 -0.00081795
v 0.00529923 -0.01081821 0.00033580
v 0.00819041 -0.01274302 0.01086375
v 0.00786780 -0.01234413 0.01617988
v 0.00686578 -0.01184292 0.02110990
v 0.00853108 -0.00935821 0.02345587
v 0.00894538 -0.00498774 -0.01662847
v 0.00674446 -0.00808199 -0.00950215
v 0.00570975 -0.00380693 -0.00389992
v 0.00750018 -0.00671547 -0.00504206
v 0.00698991 -0.00728201 0.00234863
v 0.00803706 -0.00470787 -0.00141500
v 0.00788802 -0.00660153 0.00644381
v 0.00724012 -0.00684449 0.01093892
v 0.00720482 -0.00681771 0.01634678
v 0.00752986 -0.00702841 0.02115883
v 0.00628454 -0.00169247 -0.01372730
v 0.00495422 -0.00081887 -0.00852239
v 0.00902958 0.00057814 -0.01155267
v 0.00648843 -0.00244419 0.00030203
v 0.00819440 -0.00029551 0.00354033
v 0.00718644 0.00215402 -0.00768737
v 0.00673075 0.00349232 -0.00404852
v 0.00866650 0.00515734 -0.00137531
v 0.00659969 0.00271917 0.00602517
v 0.00742451 0.00566451 0.00835897
v 0.00629899 0.00766240 0.00121017
v 0.00738693 0.01085309 0.00311230
v 0.00726694 0.00826456 0.01084568
v 0.00503635 0.01083931 0.01237642
v 0.00536992 0.01064826 0.01753172
v 0.00792340 0.00815976 0.01496248
v 0.00525437 0.01124131 0.02178979
v 0.00777994 0.00830234 0.02010448
v 0.00828619 0.01036572 0.02365660
v 0.00800630 0.01467922 0.00374195
v 0.00789912 0.01527794 0.02386558
v 0.00472421 0.02146229 0.00561170
v 0.00701391 0.01988246 0.00342246
v 0.00756092 0.02007016 0.00822316
v 0.00712719 0.01781054 0.01029278
v 0.00762571 0.01782246 0.01572460
v 0.00781286 0.01789365 0.02107484
v 0.00496298 0.02561155 0.00143875
v 0.00834978 0.02353728 0.00110216
v 0.00664306 0.02652363 -0.00170253
v 0.00523471 0.02682843 0.00499306
v 0.00767753 0.02435060 0.00789583
v 0.00527873 0.02982010 -0.00330443
v 0.00818118 0.02869344 -0.00446390
v 0.00780618 0.03149434 -0.00572010
v 0.00518957 0.03044256 0.00049538
v 0.00697880 0.03039114 0.00360131
v 0.00856515 0.02815707 0.00635265
v 0.00754959 0.03282353 -0.00305168
v 0.00816949 0.03262077 0.00079985
v 0.00979322 -0.03870510 -0.00424851
v 0.00959352 -0.04033456 0.00018177
v 0.00970550 -0.03379074 -0.01406043
v 0.00996903 -0.03515727 -0.00888835
v 0.01047915 -0.03424456 -0.00338847
v 0.01009928 -0.03549216 0.00118897
v 0.00994048 -0.02908427 -0.01403471
v 0.01041283 -0.03018010 -0.00950851
v 0.01035375 -0.02988266 -0.00418956
v 0.01052739 -0.02970617 0.00114621
v 0.00971662 -0.03067486 0.00516677
v 0.00984746 -0.02399499 -0.01392120
v 0.01032567 -0.02505784 -0.00929559
v 0.01026606 -0.02476264 -0.00401817
v 0.01037981 -0.02457076 0.00126255
v 0.00999511 -0.02583915 0.00580587
v 0.01082162 -0.01927071 -0.01394102
v 0.01027478 -0.01988605 -0.00923209
v 0.01016972 -0.01958523 -0.00389282
v 0.01027450 -0.01948574 0.00130429
v 0.00982018 -0.02077569 0.00586173
v 0.01280558 -0.01654544 -0.01390376
v 0.01156639 -0.01538171 -0.01638262
v 0.01031606 -0.01548810 -0.00957687
v 0.01210731 -0.01335498 -0.01138390
v 0.00972530 -0.01552859 -0.00467567
v 0.00991850 -0.01437727 -0.00012002
v 0.01024182 -0.01562580 0.00516833
v 0.01249448 -0.00980298 -0.01663450
v 0.01012074 -0.01005235 -0.00891548
v 0.01289146 -0.01164209 -0.00794291
v 0.01067262 -0.00986162 -0.00406173
v 0.01309391 -0.01148319 -0.00354705
v 0.01213042 -0.01189620 0.00109321
v 0.01206900 -0.01234266 0.00713552
v 0.01299160 -0.01168433 0.01161269
v 0.01250245 -0.01187839 0.01619936
v 0.01170553 -0.01161470 0.02112809
v 0.01323110 -0.00880076 0.02340049
v 0.01287903 -0.00551810 -0.01613483
v 0.00935363 -0.00484474 0.00068445
v 0.00999299 -0.00411030 0.00575035
v 0.00992636 -0.00432848 0.01088289
v 0.00978334 -0.00438702 0.01631918
v 0.01037084 -0.00420933 0.02113738
v 0.01226309 -0.00489220 0.02344619
v 0.01113572 -0.00207889 -0.01463490
v 0.01352346 -0.00030061 -0.01190547
v 0.00996085 0.00072833 0.00641091
v 0.01064432 0.00033196 0.01101938
v 0.01040703 0.00020353 0.01638181
v 0.01095250 0.00031795 0.02114029
v 0.01291846 0.00056047 0.02320303
v 0.01329693 0.00293859 -0.00896152
v 0.01126249 0.00332723 -0.00451912
v 0.01385321 0.00580390 -0.00205583
v 0.00971319 0.00499929 0.01127712
v 0.00981858 0.00486265 0.01630615
v 0.00995939 0.00512002 0.02113418
v 0.01241169 0.00615019 0.02336749
v 0.01247936 0.00804371 0.00041517
v 0.01256394 0.01089153 0.00321287
v 0.01248948 0.01203790 0.02384072
v 0.01244555 0.01550765 0.00379137
v 0.01031677 0.01564691 0.01246733
v 0.01229555 0.01595280 0.00921573
v 0.01321442 0.01286137 0.01089818
v 0.01261249 0.01349447 0.01463213
v 0.01092487 0.01622278 0.01667926
v 0.01324567 0.01523751 0.01859572
v 0.01202395 0.01603099 0.02331766
v 0.01225435 0.02016039 0.00313520
v 0.01244377 0.02057948 0.00871199
v 0.01180543 0.01731220 0.02045084
v 0.01361014 0.02254336 0.00051605
v 0.01205788 0.02492157 -0.00189359
v 0.01233826 0.02514182 0.00830830
v 0.01349813 0.02765309 -0.00486144
v 0.01294696 0.03028928 -0.00653998
v 0.01113275 0.03107306 0.00364444
v 0.01367231 0.02837711 0.00637886
v 0.01227442 0.03317063 -0.00383976
v 0.01245288 0.03311451 0.00020238
v 0.01450207 -0.01358435 -0.01436284
v 0.01496589 -0.00859467 -0.01394643
v 0.01489793 -0.01089020 -0.01034932
v 0.01517394 -0.00890120 -0.00486313
v 0.01452999 -0.00938739 0.00083248
v 0.01471918 -0.00933188 0.00587105
v 0.01494311 -0.00925017 0.01092207
v 0.01509798 -0.00926584 0.01623112
v 0.01469341 -0.00994533 0.02059033
v 0.01466350 -0.00386715 -0.01329937
v 0.01592829 -0.00621178 -0.00959581
v 0.01773303 -0.00553106 -0.00664994
v 0.01824687 -0.00660928 -0.00381011
v 0.01568556 -0.00537102 0.00061489
v 0.01911092 -0.00504830 -0.00133182
v 0.01504508 -0.00480460 0.00592156
v 0.01535373 -0.00464773 0.01101107
v 0.01557363 -0.00455265 0.01630916
v 0.01509292 -0.00585374 0.02114892
v 0.01835975 -0.00237189 -0.00999819
v 0.01776369 0.00164011 -0.01179329
v 0.01737720 -0.00228001 0.00154486
v 0.01560783 -0.00012237 0.00564073
v 0.01903929 0.00034686 0.00376288
v 0.01507262 0.00056930 0.01105311
v 0.01537552 0.00072867 0.01637386
v 0.01490172 -0.00053119 0.02115206
v 0.01596128 0.00488807 -0.01858538
v 0.01807119 0.00381400 -0.01868883
v 0.01722936 0.00601090 -0.02102340
v 0.01557591 0.00551284 -0.01422873
v 0.01723249 0.00322752 -0.01550362
v 0.01572615 0.00591832 -0.00981472
v 0.01700169 0.00522824 -0.00716637
v 0.01759877 0.00370270 -0.00494306
v 0.01841641 0.00538896 -0.00161843
v 0.01754680 0.00282873 0.00664462
v 0.01553218 0.00529812 0.01078341
v 0.01829711 0.00581693 0.00855519
v 0.01530846 0.00581411 0.01633995
v 0.01486891 0.00461346 0.02109153
v 0.01590809 0.00967927 -0.01922152
v 0.01761681 0.01023192 -0.02136080
v 0.01763262 0.01071379 -0.01729249
v 0.01773854 0.00768742 -0.01377838
v 0.01819854 0.00666561 -0.00976099
v 0.01723873 0.01127257 -0.00534425
v 0.01549693 0.01018016 -0.00306658
v 0.01772612 0.00810739 -0.00320278
v 0.01570149 0.00735357 -0.00106968
v 0.01728005 0.00792528 0.00101508
v 0.01797667 0.01001035 -0.00188052
v 0.01797020 0.01095061 0.00318726
v 0.01509139 0.00980094 0.01154529
v 0.01760436 0.01039828 0.00903274
v 0.01480835 0.01103428 0.01657103
v 0.01495551 0.00967589 0.02110718
v 0.01589337 0.01583307 -0.01902344
v 0.01767982 0.01553619 -0.02132509
v 0.01763805 0.01521607 -0.01745027
v 0.01594028 0.01579175 -0.00467276
v 0.01766165 0.01503184 -0.00647352
v 0.01769629 0.01533508 -0.00267864
v 0.01785620 0.01563776 0.00377296
v 0.01791644 0.01519827 0.00867869
v 0.01444887 0.01448197 0.02143900
v 0.01575574 0.02055681 -0.01932040
v 0.01805786 0.01972044 -0.02105685
v 0.01761824 0.01843876 -0.01412918
v 0.01526425 0.02081206 -0.01397346
v 0.01541711 0.01964953 -0.00834469
v 0.01759638 0.01835151 -0.00951357
v 0.01500519 0.02189190 -0.00427676
v 0.01746713 0.02072401 -0.00178900
v 0.01772349 0.02019359 0.00314543
v 0.01779659 0.02040909 0.00889887
v 0.01726281 0.02316259 -0.01918825
v 0.01807166 0.02547091 -0.01685182
v 0.01573030 0.02492244 -0.01554181
v 0.01492797 0.02569344 -0.00931953
v 0.01741492 0.02623025 -0.00653476
v 0.01792418 0.02331512 -0.00354203
v 0.01551929 0.02344274 -0.00101360
v 0.01705066 0.02550853 -0.00163250
v 0.01829438 0.02303803 0.00097810
v 0.01772950 0.02499315 0.00839954
v 0.01724796 0.02722665 -0.01347918
v 0.01784521 0.02811139 -0.00921780
v 0.01551751 0.02873016 -0.00648218
v 0.01825259 0.03086448 -0.00604581
v 0.01826538 0.02813611 -0.00439407
v 0.01657593 0.03104137 0.00370189
v 0.01911317 0.02828504 0.00642299
v 0.01782483 0.03317102 -0.00372174
v 0.01791384 0.03313704 0.00029847
v 0.02192973 -0.00625126 -0.00385497
v 0.02150625 -0.00494515 -0.00649344
v 0.02308479 -0.00447060 -0.00171275
v 0.02335239 -0.00236357 -0.00878605
v 0.02220514 -0.00005068 -0.01050463
v 0.02135912 -0.00210345 0.00092384
v 0.02309747 0.00086992 0.00357271
v 0.01932052 0.00611358 -0.01989335
v 0.01970649 0.00505526 -0.01408961
v 0.02196191 0.00253165 -0.00913395
v 0.01983079 0.00510562 -0.00839423
v 0.02276290 0.00263090 -0.00472316
v 0.02237957 0.00560513 -0.00199069
v 0.02150082 0.00303171 0.00612263
v 0.02261473 0.00658009 0.00779494
v 0.01937257 0.01010259 -0.01896892
v 0.01992779 0.01025572 -0.00369217
v 0.01988545 0.00737410 -0.00114377
v 0.02166613 0.00816717 0.00042610
v 0.02280474 0.01066518 0.00346071
v 0.02272942 0.01122728 0.00815239
v 0.01938824 0.01609777 -0.01931271
v 0.01939857 0.01569847 -0.00485060
v 0.02267987 0.01553595 0.00438270
v 0.02274904 0.01633671 0.00829428
v 0.01954884 0.02181679 -0.01864014
v 0.01999079 0.02045767 -0.01480148
v 0.01992009 0.02004843 -0.00917347
v 0.02031596 0.02100120 -0.00370861
v 0.02264963 0.02002766 0.00378347
v 0.02258534 0.02154383 0.00843357
v 0.01959315 0.02544679 -0.01428634
v 0.02042302 0.02518930 -0.00852113
v 0.01981011 0.02345258 -0.00104059
v 0.02160760 0.02506268 -0.00189711
v 0.02236403 0.02270027 0.00075511
v 0.02205014 0.02556049 0.00794716
v 0.01984680 0.02877661 -0.00654653
v 0.02193390 0.03007752 -0.00661955
v 0.02238170 0.02798091 -0.00465157
v 0.02176834 0.03102719 0.00342753
v 0.02331002 0.02825845 0.00572177
v 0.02219050 0.03275013 -0.00431595
v 0.02279567 0.03287751 -0.00054506
v 0.02490818 -0.00356157 -0.00482640
v 0.02487274 -0.00020206 -0.00791023
v 0.02553031 0.00094995 -0.00326910
v 0.02517886 -0.00023584 0.00048873
v 0.02533281 0.00538979 0.00165539
v 0.02506149 0.00421616 0.00505936
v 0.02504311 0.00969350 0.00579656
v 0.02480918 0.01526798 0.00635252
v 0.02503754 0.02069745 0.00560130
v 0.02538719 0.02630127 0.00089347
v 0.02513073 0.02531954 0.00582811
v 0.02493230 0.03088032 -0.00267484
v 0.02523412 0.02981958 0.00210002
f 3 2 1
f 4 1 2
f 7 6 5
f 5 6 3
f 1 5 3
f 8 5 1
f 1 4 9
f 10 1 9
f 8 1 10
f 11 10 9
f 12 7 5
f 12 5 8
f 12 8 13
f 15 14 13
f 8 15 13
f 10 15 8
f 10 11 16
f 17 10 16
f 15 10 17
f 18 17 16
f 19 14 15
f 21 20 19
f 15 21 19
f 17 21 15
f 17 18 22
f 17 22 21
f 20 21 23
f 20 23 24
f 21 22 25
f 21 25 23
f 24 23 26
f 24 26 27
f 23 25 28
f 23 28 26
f 31 30 29
f 29 30 27
f 26 29 27
f 32 29 26
f 26 28 33
f 26 33 32
f 36 35 34
f 34 35 31
f 29 34 31
f 37 34 29
f 32 39 38
f 37 32 38
f 29 32 37
f 39 32 33
f 40 36 34
f 40 34 37
f 40 37 41
f 41 37 38
f 43 42 2
f 43 2 3
f 4 2 42
f 4 42 44
f 46 45 6
f 46 6 7
f 3 6 43
f 43 6 45
f 44 47 4
f 4 47 9
f 11 9 47
f 11 47 48
f 51 50 49
f 53 52 49
f 53 49 50
f 54 52 12
f 52 46 12
f 46 7 12
f 46 52 53
f 54 12 55
f 12 56 55
f 12 13 56
f 13 14 56
f 56 14 57
f 48 58 11
f 11 58 16
f 18 16 58
f 18 58 59
f 51 49 60
f 51 60 61
f 52 63 62
f 60 52 62
f 49 52 60
f 63 52 54
f 63 54 64
f 67 66 65
f 55 64 54
f 69 68 19
f 68 70 19
f 66 19 70
f 19 66 14
f 67 14 66
f 14 67 68
f 68 57 14
f 69 57 68
f 68 67 70
f 19 20 69
f 69 20 71
f 59 22 18
f 72 22 59
f 61 60 73
f 61 73 74
f 60 62 75
f 60 75 73
f 65 66 76
f 65 76 77
f 66 70 78
f 66 78 76
f 24 71 20
f 24 79 71
f 72 25 22
f 80 25 72
f 74 73 81
f 74 81 82
f 73 75 83
f 84 73 83
f 81 73 84
f 86 85 84
f 86 84 83
f 85 86 77
f 76 85 77
f 87 85 76
f 76 78 88
f 76 88 87
f 27 79 24
f 27 89 79
f 80 28 25
f 90 28 80
f 91 82 81
f 93 92 91
f 81 93 91
f 84 93 81
f 94 84 85
f 93 84 94
f 87 96 95
f 94 87 95
f 85 87 94
f 98 97 31
f 97 96 31
f 87 31 96
f 31 87 30
f 88 30 87
f 30 88 97
f 97 99 30
f 98 99 97
f 97 88 96
f 27 30 89
f 89 30 99
f 90 33 28
f 100 33 90
f 101 92 93
f 101 93 94
f 101 94 102
f 104 103 36
f 103 102 36
f 94 36 102
f 36 94 35
f 95 35 94
f 35 95 103
f 103 105 35
f 104 105 103
f 103 95 102
f 31 35 98
f 98 35 105
f 107 106 39
f 39 106 38
f 39 33 100
f 39 100 107
f 108 104 36
f 108 36 40
f 109 40 41
f 109 108 40
f 41 38 106
f 41 106 109
f 112 111 110
f 113 110 111
f 112 110 114
f 112 114 115
f 110 113 116
f 117 110 116
f 114 110 117
f 119 118 117
f 119 117 116
f 121 120 118
f 121 118 119
f 123 122 120
f 123 120 121
f 125 124 122
f 125 122 123
f 127 126 124
f 127 124 125
f 129 128 126
f 129 126 127
f 130 128 129
f 115 114 131
f 115 131 132
f 133 114 117
f 131 114 133
f 43 133 42
f 133 118 42
f 133 117 118
f 42 118 44
f 118 134 44
f 118 120 134
f 135 120 122
f 134 120 135
f 136 122 124
f 135 122 136
f 137 124 126
f 136 124 137
f 138 126 128
f 137 126 138
f 128 130 139
f 128 139 138
f 140 132 131
f 46 141 45
f 141 131 45
f 131 133 45
f 141 140 131
f 45 133 43
f 134 47 44
f 47 134 48
f 134 142 48
f 134 135 142
f 143 135 136
f 142 135 143
f 144 136 137
f 143 136 144
f 145 137 138
f 144 137 145
f 138 139 146
f 138 146 145
f 51 147 50
f 148 53 50
f 148 50 147
f 141 46 149
f 46 148 149
f 148 150 149
f 46 53 148
f 55 56 150
f 56 149 150
f 56 151 149
f 56 57 151
f 151 57 152
f 142 58 48
f 58 142 59
f 142 153 59
f 142 143 153
f 154 143 144
f 153 143 154
f 155 144 145
f 154 144 155
f 145 146 156
f 145 156 155
f 61 157 147
f 61 147 51
f 157 62 63
f 148 157 63
f 147 157 148
f 148 63 64
f 148 64 150
f 55 150 64
f 67 65 158
f 160 159 69
f 160 70 159
f 70 160 158
f 152 158 160
f 158 152 67
f 159 67 152
f 152 57 159
f 159 57 69
f 70 67 159
f 69 71 160
f 160 71 161
f 162 72 153
f 153 72 59
f 163 153 154
f 162 153 163
f 164 154 155
f 163 154 164
f 155 156 165
f 155 165 164
f 74 166 157
f 74 157 61
f 166 75 62
f 166 62 157
f 77 167 158
f 77 158 65
f 167 78 70
f 167 70 158
f 79 161 71
f 79 168 161
f 169 80 162
f 162 80 72
f 170 162 163
f 169 162 170
f 171 163 164
f 170 163 171
f 164 165 172
f 164 172 171
f 82 173 166
f 82 166 74
f 174 83 75
f 166 174 75
f 173 174 166
f 175 86 83
f 175 83 174
f 167 77 86
f 175 167 86
f 176 167 175
f 176 88 78
f 176 78 167
f 89 168 79
f 89 177 168
f 179 178 169
f 178 80 169
f 178 90 80
f 179 169 170
f 179 170 180
f 180 170 171
f 180 171 181
f 181 171 172
f 91 173 82
f 173 91 92
f 182 173 92
f 174 173 182
f 174 183 175
f 174 182 183
f 183 95 96
f 176 183 96
f 175 183 176
f 185 184 98
f 185 96 184
f 96 185 176
f 186 176 185
f 176 186 88
f 184 88 186
f 186 99 184
f 184 99 98
f 96 88 184
f 89 99 177
f 177 99 186
f 178 100 90
f 187 100 178
f 101 182 92
f 182 101 102
f 182 102 183
f 189 188 104
f 189 102 188
f 102 189 183
f 190 183 189
f 183 190 95
f 188 95 190
f 190 105 188
f 188 105 104
f 102 95 188
f 98 105 185
f 185 105 190
f 192 191 107
f 107 191 106
f 107 100 187
f 107 187 192
f 193 189 104
f 193 104 108
f 194 108 109
f 194 193 108
f 109 106 191
f 109 191 194
f 197 196 195
f 199 198 195
f 199 195 196
f 201 200 198
f 201 198 199
f 203 202 200
f 203 200 201
f 204 202 203
f 197 195 205
f 197 205 206
f 207 195 198
f 205 195 207
f 208 198 200
f 207 198 208
f 209 200 202
f 208 200 209
f 202 204 210
f 211 202 210
f 209 202 211
f 212 211 210
f 206 205 213
f 206 213 214
f 215 205 207
f 213 205 215
f 216 207 208
f 215 207 216
f 217 208 209
f 216 208 217
f 218 209 211
f 217 209 218
f 211 212 219
f 211 219 218
f 214 213 220
f 214 220 221
f 222 213 215
f 220 213 222
f 223 215 216
f 222 215 223
f 224 216 217
f 223 216 224
f 225 217 218
f 224 217 225
f 218 219 226
f 218 226 225
f 221 220 227
f 221 227 228
f 229 220 222
f 227 220 229
f 230 222 223
f 229 222 230
f 231 223 224
f 230 223 231
f 232 224 225
f 231 224 232
f 225 226 233
f 225 233 232
f 228 227 111
f 112 228 111
f 234 228 112
f 111 227 113
f 227 235 113
f 227 229 235
f 236 229 230
f 235 229 236
f 237 230 231
f 236 230 237
f 238 231 232
f 237 231 238
f 232 233 239
f 232 239 238
f 115 234 112
f 115 240 234
f 242 116 241
f 116 113 241
f 241 113 235
f 243 241 235
f 243 236 244
f 236 243 235
f 245 119 242
f 116 242 119
f 119 245 121
f 246 121 245
f 121 246 237
f 244 237 246
f 237 244 236
f 121 237 123
f 123 237 238
f 239 247 238
f 247 123 238
f 247 125 123
f 125 248 127
f 247 248 125
f 127 249 129
f 248 249 127
f 130 129 249
f 130 249 250
f 132 240 115
f 132 251 240
f 241 252 242
f 242 252 245
f 245 252 253
f 253 254 245
f 254 255 245
f 256 246 245
f 256 245 255
f 258 257 255
f 255 257 256
f 260 259 258
f 258 259 257
f 262 261 260
f 260 261 259
f 264 263 262
f 262 263 261
f 250 263 264
f 139 250 264
f 130 250 139
f 265 251 132
f 265 132 140
f 140 141 265
f 265 141 266
f 254 267 255
f 269 268 267
f 268 255 267
f 268 258 255
f 258 270 260
f 258 268 270
f 260 271 262
f 260 270 271
f 262 272 264
f 262 271 272
f 272 146 139
f 272 139 264
f 273 266 141
f 273 141 149
f 274 149 151
f 274 273 149
f 151 152 274
f 274 152 275
f 269 276 268
f 278 277 276
f 277 268 276
f 277 270 268
f 270 279 271
f 270 277 279
f 271 280 272
f 271 279 280
f 280 156 146
f 280 146 272
f 281 275 152
f 281 152 160
f 160 161 281
f 281 161 282
f 277 278 283
f 283 278 284
f 277 285 279
f 277 283 285
f 279 286 280
f 279 285 286
f 286 165 156
f 286 156 280
f 168 282 161
f 168 287 282
f 284 288 283
f 283 288 285
f 285 288 289
f 285 289 286
f 286 289 290
f 165 286 290
f 291 165 290
f 172 165 291
f 177 287 168
f 177 292 287
f 294 293 179
f 179 293 178
f 295 179 180
f 295 294 179
f 296 180 181
f 296 295 180
f 181 172 291
f 181 291 296
f 298 297 186
f 298 186 185
f 177 186 292
f 292 186 297
f 293 187 178
f 299 187 293
f 301 300 190
f 301 190 189
f 185 190 298
f 298 190 300
f 303 302 192
f 192 302 191
f 192 187 299
f 192 299 303
f 304 301 189
f 304 189 193
f 305 193 194
f 305 304 193
f 194 191 302
f 194 302 305
f 307 306 196
f 307 196 197
f 196 308 199
f 306 308 196
f 199 309 201
f 308 309 199
f 201 310 203
f 309 310 201
f 204 203 310
f 204 310 311
f 206 307 197
f 206 312 307
f 315 314 313
f 317 316 313
f 313 316 315
f 317 318 316
f 311 319 204
f 204 319 210
f 212 210 319
f 212 319 320
f 214 312 206
f 214 321 312
f 313 314 322
f 322 314 323
f 313 324 317
f 313 322 324
f 318 317 325
f 317 326 325
f 317 324 326
f 326 327 325
f 320 219 212
f 328 219 320
f 221 321 214
f 221 329 321
f 322 323 330
f 330 323 331
f 322 332 324
f 322 330 332
f 324 333 326
f 324 332 333
f 327 326 334
f 334 326 333
f 328 226 219
f 335 226 328
f 228 329 221
f 228 336 329
f 330 331 337
f 337 331 338
f 330 339 332
f 330 337 339
f 332 340 333
f 332 339 340
f 334 333 341
f 341 333 340
f 335 233 226
f 342 233 335
f 234 336 228
f 234 343 336
f 337 338 344
f 344 338 345
f 337 346 339
f 337 344 346
f 339 347 340
f 339 346 347
f 341 340 348
f 348 340 347
f 342 239 233
f 349 239 342
f 240 343 234
f 240 350 343
f 344 345 243
f 345 241 243
f 345 351 241
f 344 243 244
f 344 244 346
f 346 244 246
f 352 346 246
f 347 346 352
f 348 347 353
f 353 347 352
f 349 354 239
f 239 354 247
f 247 355 248
f 354 355 247
f 248 356 249
f 355 356 248
f 250 249 356
f 250 356 357
f 251 350 240
f 251 358 350
f 351 359 241
f 241 359 252
f 359 361 360
f 253 359 360
f 252 359 253
f 256 352 246
f 254 253 360
f 362 353 352
f 256 362 352
f 257 362 256
f 363 257 259
f 363 362 257
f 364 259 261
f 364 363 259
f 365 261 263
f 365 364 261
f 263 250 357
f 263 357 365
f 366 358 251
f 366 251 265
f 368 367 266
f 367 265 266
f 367 366 265
f 370 369 368
f 369 360 368
f 361 367 368
f 361 368 360
f 360 369 254
f 369 267 254
f 369 371 267
f 269 267 371
f 269 371 372
f 273 368 266
f 373 370 368
f 273 373 368
f 274 373 273
f 274 275 373
f 373 275 374
f 372 375 269
f 269 375 276
f 278 276 375
f 278 375 376
f 377 374 275
f 377 275 281
f 281 282 377
f 377 282 378
f 376 284 278
f 379 284 376
f 287 378 282
f 287 380 378
f 379 381 284
f 284 381 288
f 288 382 289
f 381 382 288
f 289 383 290
f 382 383 289
f 291 290 383
f 291 383 384
f 292 386 385
f 380 292 385
f 287 292 380
f 293 294 386
f 294 385 386
f 294 387 385
f 388 294 295
f 388 387 294
f 389 295 296
f 389 388 295
f 296 291 384
f 296 384 389
f 298 390 297
f 386 292 297
f 390 386 297
f 391 386 390
f 391 299 293
f 391 293 386
f 301 392 300
f 390 298 300
f 392 390 300
f 393 390 392
f 393 302 303
f 391 393 303
f 390 393 391
f 391 303 299
f 304 392 301
f 392 304 305
f 392 305 393
f 393 305 302
f 395 394 306
f 395 306 307
f 306 396 308
f 394 396 306
f 308 397 309
f 396 397 308
f 309 398 310
f 397 398 309
f 311 310 398
f 311 398 399
f 312 395 307
f 312 400 395
f 401 314 315
f 401 315 402
f 315 403 402
f 315 316 403
f 316 318 403
f 403 318 404
f 399 405 311
f 311 405 319
f 320 319 405
f 320 405 406
f 321 400 312
f 321 407 400
f 409 408 401
f 408 314 401
f 408 323 314
f 409 401 402
f 410 404 318
f 410 318 325
f 325 327 410
f 410 327 411
f 406 328 320
f 412 328 406
f 329 407 321
f 329 413 407
f 408 331 323
f 414 331 408
f 334 411 327
f 334 415 411
f 412 335 328
f 416 335 412
f 336 413 329
f 336 417 413
f 414 338 331
f 418 338 414
f 341 415 334
f 341 419 415
f 416 342 335
f 420 342 416
f 343 417 336
f 343 421 417
f 418 345 338
f 422 345 418
f 348 419 341
f 348 423 419
f 420 349 342
f 424 349 420
f 350 421 343
f 350 425 421
f 422 351 345
f 426 351 422
f 353 423 348
f 353 427 423
f 424 428 349
f 349 428 354
f 354 429 355
f 428 429 354
f 355 430 356
f 429 430 355
f 357 356 430
f 357 430 431
f 358 425 350
f 358 432 425
f 426 433 351
f 351 433 359
f 361 359 433
f 361 433 434
f 435 427 353
f 435 353 362
f 436 362 363
f 436 435 362
f 437 363 364
f 437 436 363
f 438 364 365
f 438 437 364
f 365 357 431
f 365 431 438
f 439 432 358
f 439 358 366
f 440 366 367
f 440 439 366
f 369 370 441
f 442 441 370
f 434 367 361
f 367 434 440
f 369 443 371
f 441 443 369
f 372 371 443
f 372 443 444
f 445 442 370
f 445 370 373
f 373 374 445
f 445 374 446
f 444 447 372
f 372 447 375
f 376 375 447
f 376 447 448
f 449 446 374
f 449 374 377
f 377 378 449
f 449 378 450
f 448 379 376
f 451 379 448
f 380 450 378
f 380 452 450
f 451 453 379
f 379 453 381
f 381 454 382
f 453 454 381
f 382 455 383
f 454 455 382
f 384 383 455
f 384 455 456
f 457 452 380
f 457 380 385
f 458 385 387
f 458 457 385
f 459 387 388
f 459 458 387
f 460 388 389
f 460 459 388
f 389 384 456
f 389 456 460
f 395 461 394
f 462 396 394
f 462 394 461
f 396 462 463
f 464 396 463
f 397 396 464
f 397 465 398
f 464 465 397
f 399 398 465
f 399 465 466
f 468 467 461
f 395 468 461
f 400 468 395
f 461 467 462
f 462 467 469
f 470 402 403
f 469 463 462
f 404 470 403
f 405 399 471
f 399 472 471
f 399 466 472
f 471 406 405
f 407 468 400
f 407 473 468
f 474 408 409
f 402 470 409
f 470 474 409
f 470 475 474
f 410 476 404
f 476 470 404
f 476 475 470
f 472 477 471
f 476 410 411
f 406 471 477
f 478 406 477
f 412 406 478
f 413 473 407
f 413 479 473
f 480 414 474
f 474 414 408
f 481 474 475
f 480 474 481
f 482 475 476
f 481 475 482
f 415 482 411
f 411 482 476
f 478 416 412
f 483 416 478
f 417 479 413
f 417 484 479
f 485 418 480
f 480 418 414
f 486 480 481
f 485 480 486
f 487 481 482
f 486 481 487
f 419 487 415
f 415 487 482
f 483 420 416
f 488 420 483
f 421 484 417
f 421 489 484
f 490 422 485
f 485 422 418
f 491 485 486
f 490 485 491
f 492 486 487
f 491 486 492
f 423 492 419
f 419 492 487
f 488 424 420
f 493 424 488
f 425 489 421
f 425 494 489
f 496 495 490
f 495 422 490
f 495 426 422
f 496 490 491
f 496 491 497
f 499 498 497
f 491 499 497
f 492 499 491
f 427 499 423
f 423 499 492
f 493 500 424
f 424 500 428
f 428 501 429
f 500 501 428
f 429 502 430
f 501 502 429
f 431 430 502
f 431 502 503
f 432 494 425
f 432 504 494
f 495 505 426
f 426 505 433
f 507 506 434
f 433 507 434
f 505 507 433
f 498 499 508
f 507 509 506
f 508 499 427
f 435 508 427
f 510 508 435
f 511 435 436
f 511 510 435
f 512 436 437
f 512 511 436
f 513 437 438
f 513 512 437
f 438 431 503
f 438 503 513
f 514 504 432
f 514 432 439
f 516 514 515
f 514 440 515
f 514 439 440
f 440 434 515
f 434 506 515
f 441 442 515
f 441 515 506
f 509 517 506
f 517 441 506
f 517 443 441
f 444 443 517
f 444 517 518
f 519 516 515
f 519 515 442
f 445 519 442
f 520 519 445
f 445 446 520
f 520 446 521
f 518 522 444
f 444 522 447
f 448 447 522
f 448 522 523
f 524 521 446
f 524 446 449
f 449 450 524
f 524 450 525
f 527 451 526
f 451 523 526
f 451 448 523
f 529 528 527
f 529 527 526
f 531 530 528
f 531 528 529
f 532 530 531
f 452 525 450
f 452 533 525
f 527 453 451
f 453 527 454
f 454 527 528
f 454 528 455
f 455 528 530
f 456 455 530
f 532 456 530
f 534 456 532
f 452 457 535
f 536 452 535
f 533 452 536
f 535 457 537
f 457 538 537
f 457 458 538
f 539 458 459
f 539 538 458
f 540 459 460
f 540 539 459
f 460 456 534
f 460 534 540
f 543 542 541
f 541 542 536
f 535 541 536
f 544 541 535
f 535 537 545
f 535 545 544
f 548 547 546
f 546 547 543
f 541 546 543
f 549 546 541
f 544 551 550
f 549 544 550
f 541 544 549
f 551 544 545
f 552 548 546
f 552 546 549
f 552 549 553
f 553 549 550
f 463 554 464
f 555 465 464
f 555 464 554
f 555 466 465
f 468 556 467
f 557 469 467
f 557 467 556
f 554 463 469
f 557 554 469
f 558 554 557
f 554 559 555
f 554 558 559
f 559 472 466
f 559 466 555
f 473 560 556
f 473 556 468
f 556 561 557
f 556 560 561
f 557 562 558
f 557 561 562
f 558 563 559
f 558 562 563
f 564 477 472
f 559 564 472
f 563 564 559
f 564 478 477
f 479 565 560
f 479 560 473
f 560 566 561
f 560 565 566
f 561 567 562
f 561 566 567
f 562 568 563
f 562 567 568
f 563 569 564
f 563 568 569
f 569 483 478
f 569 478 564
f 484 570 565
f 484 565 479
f 565 571 566
f 565 570 571
f 566 572 567
f 566 571 572
f 567 573 568
f 567 572 573
f 568 574 569
f 568 573 574
f 574 488 483
f 574 483 569
f 576 575 570
f 484 576 570
f 489 576 484
f 578 577 575
f 577 570 575
f 577 571 570
f 571 579 572
f 571 577 579
f 572 580 573
f 572 579 580
f 573 581 574
f 573 580 581
f 581 493 488
f 581 488 574
f 494 576 489
f 494 582 576
f 584 583 578
f 583 495 578
f 496 577 578
f 496 578 495
f 586 585 584
f 583 584 585
f 577 497 579
f 497 577 496
f 587 585 586
f 585 587 498
f 580 498 587
f 498 580 497
f 579 497 580
f 580 587 581
f 581 587 588
f 581 588 493
f 588 500 493
f 588 589 500
f 500 590 501
f 589 590 500
f 501 591 502
f 590 591 501
f 503 502 591
f 503 591 592
f 504 582 494
f 504 593 582
f 583 505 495
f 505 583 507
f 507 583 585
f 509 507 594
f 507 585 594
f 498 508 594
f 498 594 585
f 510 595 508
f 508 595 594
f 511 596 510
f 510 596 595
f 512 597 511
f 511 597 596
f 513 598 512
f 512 598 597
f 599 598 513
f 503 599 513
f 592 599 503
f 600 593 504
f 600 504 514
f 514 516 600
f 600 516 601
f 594 517 509
f 517 594 518
f 594 602 518
f 594 595 602
f 603 595 596
f 602 595 603
f 604 596 597
f 603 596 604
f 605 597 598
f 604 597 605
f 598 599 606
f 598 606 605
f 607 601 516
f 607 516 519
f 608 519 520
f 608 607 519
f 520 521 608
f 608 521 609
f 602 522 518
f 522 602 523
f 602 610 523
f 602 603 610
f 611 603 604
f 610 603 611
f 612 604 605
f 611 604 612
f 605 606 613
f 605 613 612
f 614 609 521
f 614 521 524
f 524 525 614
f 614 525 615
f 610 526 523
f 526 610 529
f 529 610 611
f 529 611 531
f 531 611 612
f 532 531 612
f 613 532 612
f 616 532 613
f 533 615 525
f 533 617 615
f 620 619 618
f 622 621 618
f 618 621 620
f 622 623 621
f 616 534 532
f 624 534 616
f 536 617 533
f 536 625 617
f 618 619 538
f 619 537 538
f 619 626 537
f 618 538 539
f 618 539 622
f 627 623 622
f 539 627 622
f 540 627 539
f 540 534 624
f 540 624 627
f 629 628 542
f 629 542 543
f 536 542 625
f 625 542 628
f 626 545 537
f 630 545 626
f 632 631 547
f 632 547 548
f 543 547 629
f 629 547 631
f 634 633 551
f 551 633 550
f 551 545 630
f 551 630 634
f 635 632 548
f 635 548 552
f 636 552 553
f 636 635 552
f 553 550 633
f 553 633 636
f 576 637 575
f 637 578 575
f 582 638 637
f 582 637 576
f 639 584 578
f 637 639 578
f 638 639 637
f 640 586 584
f 640 584 639
f 641 587 586
f 641 586 640
f 642 588 587
f 642 587 641
f 643 589 588
f 643 588 642
f 644 590 589
f 644 589 643
f 645 591 590
f 645 590 644
f 645 592 591
f 593 646 638
f 593 638 582
f 638 647 639
f 638 646 647
f 649 640 648
f 640 647 648
f 640 639 647
f 651 650 649
f 650 640 649
f 650 641 640
f 641 652 642
f 641 650 652
f 642 653 643
f 642 652 653
f 643 654 644
f 643 653 654
f 644 655 645
f 644 654 655
f 655 599 592
f 655 592 645
f 600 646 593
f 647 646 656
f 646 601 656
f 601 657 656
f 601 646 600
f 647 656 648
f 651 658 650
f 660 659 658
f 659 650 658
f 659 652 650
f 652 661 653
f 652 659 661
f 653 662 654
f 653 661 662
f 654 663 655
f 654 662 663
f 663 606 599
f 663 599 655
f 666 665 664
f 668 667 664
f 668 664 665
f 669 667 607
f 667 657 607
f 657 601 607
f 657 667 668
f 669 607 670
f 607 671 670
f 607 608 671
f 608 609 671
f 671 609 672
f 660 673 659
f 675 674 673
f 674 659 673
f 674 661 659
f 661 676 662
f 661 674 676
f 662 677 663
f 662 676 677
f 677 613 606
f 677 606 663
f 666 664 678
f 666 678 679
f 667 681 680
f 678 667 680
f 664 667 678
f 681 667 669
f 681 669 682
f 685 684 683
f 670 682 669
f 687 686 614
f 686 688 614
f 684 614 688
f 614 684 609
f 685 609 684
f 609 685 686
f 686 672 609
f 687 672 686
f 686 685 688
f 614 615 687
f 687 615 689
f 674 675 690
f 690 675 691
f 674 692 676
f 674 690 692
f 676 693 677
f 676 692 693
f 693 616 613
f 693 613 677
f 679 678 694
f 679 694 695
f 678 680 696
f 678 696 694
f 683 684 697
f 683 697 698
f 684 688 699
f 684 699 697
f 617 689 615
f 617 700 689
f 690 691 620
f 691 619 620
f 691 701 619
f 690 620 621
f 690 621 692
f 692 621 623
f 702 692 623
f 693 692 702
f 702 624 616
f 702 616 693
f 695 694 703
f 695 703 704
f 694 696 705
f 706 694 705
f 703 694 706
f 708 707 706
f 708 706 705
f 707 708 698
f 697 707 698
f 709 707 697
f 697 699 710
f 697 710 709
f 625 700 617
f 625 711 700
f 701 626 619
f 712 626 701
f 627 702 623
f 702 627 624
f 713 704 703
f 715 714 713
f 703 715 713
f 706 715 703
f 716 706 707
f 715 706 716
f 709 718 717
f 716 709 717
f 707 709 716
f 720 719 629
f 719 718 629
f 709 629 718
f 629 709 628
f 710 628 709
f 628 710 719
f 719 721 628
f 720 721 719
f 719 710 718
f 625 628 711
f 711 628 721
f 712 630 626
f 722 630 712
f 723 714 715
f 723 715 716
f 723 716 724
f 726 725 632
f 725 724 632
f 716 632 724
f 632 716 631
f 717 631 716
f 631 717 725
f 725 727 631
f 726 727 725
f 725 717 724
f 629 631 720
f 720 631 727
f 729 728 634
f 634 728 633
f 634 630 722
f 634 722 729
f 730 726 632
f 730 632 635
f 731 635 636
f 731 730 635
f 636 633 728
f 636 728 731
f 733 732 649
f 733 649 648
f 651 649 732
f 651 732 734
f 736 735 656
f 736 656 657
f 648 656 733
f 733 656 735
f 734 737 651
f 651 737 658
f 660 658 737
f 660 737 738
f 666 739 665
f 740 668 665
f 740 665 739
f 736 657 741
f 657 740 741
f 740 742 741
f 657 668 740
f 670 671 742
f 671 741 742
f 671 743 741
f 671 672 743
f 743 672 744
f 738 745 660
f 660 745 673
f 675 673 745
f 675 745 746
f 679 747 739
f 679 739 666
f 747 680 681
f 740 747 681
f 739 747 740
f 740 681 682
f 740 682 742
f 670 742 682
f 685 683 748
f 750 749 687
f 750 688 749
f 688 750 748
f 744 748 750
f 748 744 685
f 749 685 744
f 744 672 749
f 749 672 687
f 688 685 749
f 687 689 750
f 750 689 751
f 746 691 675
f 752 691 746
f 695 753 747
f 695 747 679
f 753 696 680
f 753 680 747
f 698 754 748
f 698 748 683
f 754 699 688
f 754 688 748
f 700 751 689
f 700 755 751
f 752 701 691
f 756 701 752
f 704 757 753
f 704 753 695
f 758 705 696
f 753 758 696
f 757 758 753
f 759 708 705
f 759 705 758
f 754 698 708
f 759 754 708
f 760 754 759
f 760 710 699
f 760 699 754
f 711 755 700
f 711 761 755
f 756 712 701
f 762 712 756
f 713 757 704
f 757 713 714
f 763 757 714
f 758 757 763
f 758 764 759
f 758 763 764
f 764 717 718
f 760 764 718
f 759 764 760
f 766 765 720
f 766 718 765
f 718 766 760
f 767 760 766
f 760 767 710
f 765 710 767
f 767 721 765
f 765 721 720
f 718 710 765
f 711 721 761
f 761 721 767
f 762 722 712
f 768 722 762
f 723 763 714
f 763 723 724
f 763 724 764
f 770 769 726
f 770 724 769
f 724 770 764
f 771 764 770
f 764 771 717
f 769 717 771
f 771 727 769
f 769 727 726
f 724 717 769
f 720 727 766
f 766 727 771
f 773 772 729
f 729 772 728
f 729 722 768
f 729 768 773
f 774 770 726
f 774 726 730
f 775 730 731
f 775 774 730
f 731 728 772
f 731 772 775
f 733 776 732
f 776 734 732
f 736 777 735
f 776 733 735
f 777 776 735
f 778 776 777
f 779 737 734
f 776 779 734
f 778 779 776
f 779 738 737
f 741 777 736
f 777 741 743
f 777 743 778
f 778 743 744
f 780 778 744
f 779 778 780
f 781 745 738
f 779 781 738
f 780 781 779
f 781 746 745
f 750 780 744
f 780 750 751
f 782 780 751
f 781 780 782
f 782 752 746
f 782 746 781
f 755 783 782
f 755 782 751
f 783 756 752
f 783 752 782
f 761 784 783
f 761 783 755
f 784 762 756
f 784 756 783
f 766 785 767
f 784 761 767
f 785 784 767
f 786 784 785
f 786 768 762
f 786 762 784
f 770 787 771
f 785 766 771
f 787 785 771
f 788 785 787
f 788 772 773
f 786 788 773
f 785 788 786
f 786 773 768
f 774 787 770
f 787 774 775
f 787 775 788
f 788 775 772

