# https://github.com/mikedh/trimesh
v -0.05655908 -0.02206384 -0.01589474
v -0.05168299 -0.02548799 -0.01711768
v -0.05395859 -0.02138320 -0.02049645
v -0.05700106 -0.02196779 -0.00845608
v -0.05312429 -0.02582685 -0.01012640
v -0.05686990 -0.02202319 -0.00043512
v -0.05285700 -0.02583021 -0.00213666
v -0.05704299 -0.02196481 0.00772254
v -0.05281057 -0.02602098 0.00597325
v -0.05628708 -0.02125399 0.01412321
v -0.05382402 -0.02532592 0.01241843
v -0.05207592 -0.02293471 0.01662799
v -0.05687480 -0.01505591 -0.01727618
v -0.05288332 -0.01506028 -0.02111157
v -0.05772743 -0.01501929 -0.01032618
v -0.05769348 -0.01496863 -0.00243886
v -0.05789697 -0.01484076 0.00558404
v -0.05708239 -0.01480103 0.01293254
v -0.05292148 -0.01666193 0.01728400
v -0.05676981 -0.00708095 -0.01701703
v -0.05285320 -0.00706137 -0.02082175
v -0.05753602 -0.00706273 -0.01008315
v -0.05740051 -0.00705935 -0.00220148
v -0.05760030 -0.00694390 0.00570565
v -0.05682735 -0.00686212 0.01278420
v -0.05287377 -0.00863370 0.01691479
v -0.05693063 0.00077186 -0.01682257
v -0.05315486 0.00084603 -0.02066266
v -0.05753169 0.00071982 -0.00987480
v -0.05724488 0.00069353 -0.00198765
v -0.05738782 0.00070225 0.00588755
v -0.05687403 0.00119769 0.01421810
v -0.05198714 -0.00069347 0.01780934
v -0.05718457 0.00869104 -0.01685968
v -0.05341399 0.00878710 -0.02080104
v -0.05775818 0.00859669 -0.00971660
v -0.05739264 0.00849288 -0.00172937
v -0.05738270 0.00844000 0.00607149
v -0.05772546 0.00856262 0.01396224
v -0.05368552 0.00452857 0.02073270
v -0.05641190 0.00890016 0.02099778
v -0.05202568 0.00838055 0.02428784
v -0.05652679 0.01493477 -0.01785107
v -0.05192671 0.01569154 -0.02039010
v -0.05723414 0.01649021 -0.01056024
v -0.05775722 0.01646578 -0.00175102
v -0.05762485 0.01645790 0.00615111
v -0.05781628 0.01651305 0.01398761
v -0.05707730 0.01641679 0.02108502
v -0.05285876 0.01447402 0.02517761
v -0.05321812 0.01899917 -0.01542624
v -0.05408194 0.02088124 -0.00924034
v -0.05172536 0.02410820 -0.00551256
v -0.05659051 0.02246204 -0.00331094
v -0.05702172 0.02344921 0.00405637
v -0.05702337 0.02356380 0.01192490
v -0.05662429 0.02361979 0.01952066
v -0.05306656 0.02208877 0.02461353
v -0.05321428 0.02679253 0.00010502
v -0.05316821 0.02744034 0.00749389
v -0.05308937 0.02754769 0.01559987
v -0.05233336 0.02679813 0.02188710
v -0.04405353 -0.02576833 -0.01683427
v -0.04776792 -0.02206502 -0.02104114
v -0.04720287 -0.02662421 -0.01103925
v -0.04502694 -0.02719216 -0.00287757
v -0.04687437 -0.02670713 0.00503772
v -0.04689745 -0.02559430 0.01265444
v -0.04658202 -0.02034585 0.01689630
v -0.04576527 -0.01502650 -0.02176648
v -0.04682009 -0.01269716 0.01699891
v -0.04582819 -0.00704081 -0.02147980
v -0.04664486 -0.00480892 0.01667089
v -0.04621605 0.00085663 -0.02140095
v -0.04557267 0.00149034 0.01817158
v -0.04646580 0.00881350 -0.02158570
v -0.04795067 0.00507434 0.02182522
v -0.04667020 0.01083048 0.02443918
v -0.04448811 0.01567898 -0.02076803
v -0.04545875 0.01843166 0.02514804
v -0.04616721 0.01936226 -0.01681786
v -0.04798700 0.02108450 -0.01076985
v -0.04421254 0.02386950 -0.00601336
v -0.04703497 0.02447530 0.02476795
v -0.04624881 0.02702453 -0.00140071
v -0.04621195 0.02813588 0.00539489
v -0.04602922 0.02824125 0.01352558
v -0.04593018 0.02737494 0.02079923
v -0.04043598 -0.02983551 -0.00066470
v -0.03663040 -0.03210049 -0.00242294
v -0.03877031 -0.02974179 -0.00456528
v -0.03599233 -0.03052995 0.00159926
v -0.03607352 -0.02556444 -0.01669122
v -0.03975593 -0.02192709 -0.02076450
v -0.03892298 -0.02720903 -0.00967227
v -0.04007208 -0.02652969 0.00622465
v -0.04159879 -0.02258631 0.01309047
v -0.03691786 -0.02152560 0.00994255
v -0.03777133 -0.01497287 -0.02148739
v -0.04082403 -0.01356560 -0.00119839
v -0.03900670 -0.01359720 -0.00433425
v -0.03707132 -0.01739379 -0.00250225
v -0.03717042 -0.01549193 0.00063072
v -0.04170163 -0.01649078 0.01392452
v -0.03709876 -0.01462921 0.01052534
v -0.03789410 -0.00704476 -0.02119828
v -0.04139568 -0.00669476 -0.00189853
v -0.03813822 -0.00683124 -0.00530809
v -0.03823497 -0.00877972 0.00154600
v -0.04200844 -0.00856521 0.01349439
v -0.03746558 -0.00676437 0.01020810
v -0.03833094 0.00083308 -0.02118325
v -0.04103105 0.00015513 -0.00258568
v -0.03682586 0.00088313 -0.00472213
v -0.03832414 -0.00053569 0.00090192
v -0.04200151 0.00032172 0.01405347
v -0.03766974 0.00115288 0.00997923
v -0.03864056 0.00876289 -0.02143748
v -0.03763627 0.00387734 -0.00128901
v -0.04088846 0.00834805 0.01402668
v -0.03647314 0.00798810 0.01035825
v -0.04321619 0.00726672 0.01957331
v -0.03670870 0.01563351 -0.02063430
v -0.03856605 0.01273059 0.01415489
v -0.04156795 0.01412349 0.02020313
v -0.03591690 0.01638297 0.01770486
v -0.03827799 0.01929351 -0.01669025
v -0.04002961 0.02091235 -0.01072713
v -0.03635851 0.02375048 -0.00582732
v -0.03846739 0.01911832 0.02222199
v -0.03868082 0.02343489 0.02418832
v -0.03840754 0.02682576 -0.00130159
v -0.03833822 0.02791986 0.00543391
v -0.03809557 0.02798385 0.01357878
v -0.03785179 0.02707702 0.02080104
v -0.03041868 -0.03254491 -0.00184256
v -0.03227765 -0.03030737 -0.00567071
v -0.02864630 -0.03058088 0.00205792
v -0.02843626 -0.02549323 -0.01667518
v -0.03199796 -0.02184318 -0.02063883
v -0.03020444 -0.02724964 -0.01055535
v -0.03224568 -0.02647988 0.00598893
v -0.03025787 -0.02148410 0.00882638
v -0.03001449 -0.01497261 -0.02137323
v -0.03255598 -0.01463837 -0.00526077
v -0.03045721 -0.01783852 -0.00185912
v -0.03073695 -0.01441208 0.00154927
v -0.03043369 -0.01467299 0.00955782
v -0.03013531 -0.00704804 -0.02108661
v -0.03077091 -0.00694357 -0.00637255
v -0.03097371 -0.00665355 0.00261264
v -0.03082655 -0.00684490 0.00928277
v -0.03058959 0.00082914 -0.02108970
v -0.02924419 0.00078531 -0.00525215
v -0.03108179 0.00100632 0.00146378
v -0.03095323 0.00100593 0.00906126
v -0.03094074 0.00875864 -0.02138196
v -0.03126607 0.00418448 -0.00188489
v -0.02914171 0.00780943 0.00995126
v -0.02904983 0.01563345 -0.02061848
v -0.03269254 0.01263234 0.01294221
v -0.02853590 0.01626414 0.01721363
v -0.03057505 0.01928068 -0.01661542
v -0.03223461 0.02087264 -0.01056538
v -0.02869534 0.02375423 -0.00579913
v -0.03193050 0.02013465 0.02161739
v -0.03001261 0.02400489 0.02398574
v -0.03070721 0.02681070 -0.00122290
v -0.03060033 0.02786427 0.00558229
v -0.03036620 0.02787112 0.01379309
v -0.03009441 0.02696315 0.02105587
v -0.02250946 -0.03250966 -0.00177104
v -0.02435318 -0.03029457 -0.00559124
v -0.02077429 -0.03058333 0.00210435
v -0.02085412 -0.02549455 -0.01671381
v -0.02439436 -0.02183880 -0.02062290
v -0.02247411 -0.02720301 -0.01055756
v -0.02453192 -0.02654423 0.00600915
v -0.02255649 -0.02166200 0.00897814
v -0.02237330 -0.01497406 -0.02137745
v -0.02427419 -0.01464067 -0.00520469
v -0.02230070 -0.01780347 -0.00179045
v -0.02260786 -0.01443348 0.00150006
v -0.02265666 -0.01484955 0.00978613
v -0.02248914 -0.00704648 -0.02108832
v -0.02275633 -0.00694340 -0.00633512
v -0.02284067 -0.00678219 0.00255521
v -0.02303005 -0.00693434 0.00949614
v -0.02294332 0.00083110 -0.02109187
v -0.02141353 0.00073858 -0.00518444
v -0.02307497 0.00080756 0.00137829
v -0.02313352 0.00099336 0.00925158
v -0.02329568 0.00876047 -0.02138609
v -0.02335732 0.00403331 -0.00192320
v -0.02129849 0.00781164 0.01011547
v -0.02140398 0.01563440 -0.02062240
v -0.02484218 0.01246436 0.01303414
v -0.02072761 0.01611304 0.01732537
v -0.02293219 0.01928281 -0.01662001
v -0.02458971 0.02087692 -0.01056199
v -0.02105315 0.02375725 -0.00580681
v -0.02417516 0.02001001 0.02167944
v -0.02234578 0.02394934 0.02407941
v -0.02306514 0.02681698 -0.00122902
v -0.02295415 0.02787233 0.00558404
v -0.02272409 0.02787370 0.01380309
v -0.02249809 0.02692818 0.02109239
v -0.01463882 -0.03254030 -0.00174540
v -0.01650601 -0.03029317 -0.00564189
v -0.01293755 -0.03060007 0.00219062
v -0.01316489 -0.02556542 -0.01675884
v -0.01676485 -0.02184331 -0.02066337
v -0.01479780 -0.02726718 -0.01060236
v -0.01674381 -0.02661213 0.00614582
v -0.01483157 -0.02174663 0.00913751
v -0.01473070 -0.01497100 -0.02138473
v -0.01639235 -0.01459199 -0.00516347
v -0.01453236 -0.01780137 -0.00186918
v -0.01485054 -0.01446621 0.00140542
v -0.01494472 -0.01489134 0.00992893
v -0.01484564 -0.00704452 -0.02109132
v -0.01512017 -0.00688634 -0.00627156
v -0.01507311 -0.00682289 0.00250391
v -0.01528637 -0.00692665 0.00959874
v -0.01529670 0.00083123 -0.02109454
v -0.01379206 0.00076397 -0.00515914
v -0.01530925 0.00077271 0.00139602
v -0.01542286 0.00100748 0.00931337
v -0.01564724 0.00876044 -0.02138722
v -0.01563816 0.00401554 -0.00187868
v -0.01363087 0.00782050 0.01013439
v -0.01375471 0.01563437 -0.02062254
v -0.01708119 0.01245809 0.01312615
v -0.01306225 0.01610906 0.01734505
v -0.01528389 0.01928296 -0.01662141
v -0.01694412 0.02087778 -0.01056641
v -0.01340400 0.02375714 -0.00580722
v -0.01651115 0.01993507 0.02173898
v -0.01472769 0.02393087 0.02408290
v -0.01541697 0.02681714 -0.00123071
v -0.01530734 0.02787358 0.00558008
v -0.01507729 0.02787790 0.01379558
v -0.01485803 0.02693144 0.02108152
v -0.00851775 -0.03216042 -0.00118727
v -0.00922894 -0.03034712 -0.00519623
v -0.00633219 -0.03000076 0.00111783
v -0.00549656 -0.02570949 -0.01684838
v -0.00909024 -0.02187491 -0.02069831
v -0.00672015 -0.02727844 -0.00932983
v -0.00785081 -0.02669725 0.00545615
v -0.00714747 -0.02189185 0.00918755
v -0.00707845 -0.01496858 -0.02138302
v -0.00885918 -0.01443859 -0.00512311
v -0.00702294 -0.01756118 -0.00180973
v -0.00725836 -0.01421958 0.00142426
v -0.00731929 -0.01496715 0.00993023
v -0.00719986 -0.00704152 -0.02109075
v -0.00762007 -0.00676948 -0.00620734
v -0.00740221 -0.00665249 0.00246647
v -0.00764166 -0.00692365 0.00959688
v -0.00764747 0.00083121 -0.02109446
v -0.00623296 0.00081446 -0.00513014
v -0.00767185 0.00084009 0.00137151
v -0.00777790 0.00101069 0.00930814
v -0.00799774 0.00876035 -0.02138711
v -0.00799725 0.00401716 -0.00187895
v -0.00598699 0.00782059 0.01012937
v -0.00610534 0.01563436 -0.02062249
v -0.00943554 0.01246431 0.01312391
v -0.00541696 0.01611305 0.01734081
v -0.00763444 0.01928293 -0.01662130
v -0.00929465 0.02087770 -0.01056634
v -0.00575456 0.02375713 -0.00580710
v -0.00886766 0.01993629 0.02173679
v -0.00707963 0.02393311 0.02407977
v -0.00776747 0.02681709 -0.00123053
v -0.00765789 0.02787346 0.00558020
v -0.00742777 0.02787788 0.01379548
v -0.00720753 0.02693251 0.02108059
v -0.00464548 -0.02987596 -0.00279497
v 0.00224998 -0.02589558 -0.01685026
v -0.00134532 -0.02194842 -0.02070236
v -0.00067481 -0.02666310 -0.01089917
v 0.00068716 -0.02670414 -0.00114106
v -0.00040425 -0.02573720 0.00628413
v 0.00054014 -0.02208196 0.00914350
v 0.00057617 -0.01496709 -0.02138337
v -0.00029330 -0.01513017 -0.00506775
v 0.00022115 -0.01867477 -0.00171046
v 0.00091887 -0.01532859 0.00146725
v 0.00029355 -0.01503731 0.00992285
v 0.00044590 -0.00703841 -0.02109115
v -0.00013434 -0.00663296 -0.00609040
v 0.00032504 -0.00654309 0.00236097
v 0.00000105 -0.00692025 0.00959687
v 0.00000185 0.00083118 -0.02109439
v 0.00133643 0.00084213 -0.00508067
v -0.00001122 0.00085642 0.00131799
v -0.00012789 0.00101206 0.00930789
v -0.00034835 0.00876031 -0.02138708
v -0.00035135 0.00401312 -0.00187898
v 0.00166224 0.00782022 0.01012921
v 0.00154399 0.01563436 -0.02062249
v -0.00178827 0.01246449 0.01312175
v 0.00223246 0.01611318 0.01734043
v 0.00001490 0.01928293 -0.01662129
v -0.00164528 0.02087770 -0.01056630
v 0.00189476 0.02375718 -0.00580712
v -0.00121831 0.01993790 0.02173551
v 0.00057032 0.02393347 0.02407987
v -0.00011813 0.02681714 -0.00123055
v -0.00000852 0.02787343 0.00558023
v 0.00022161 0.02787780 0.01379559
v 0.00044197 0.02693251 0.02108081
v 0.01007761 -0.02608023 -0.01672525
v 0.00639996 -0.02202425 -0.02070177
v 0.00628356 -0.02604628 -0.00927225
v 0.00456952 -0.02241580 -0.00212257
v 0.00793917 -0.02178852 -0.00557619
v 0.00713505 -0.02198887 0.00167738
v 0.00769538 -0.02544230 0.00532008
v 0.00819987 -0.02225445 0.00904156
v 0.00822401 -0.01496367 -0.02138675
v 0.00803098 -0.01492134 -0.00569060
v 0.00830589 -0.01486971 0.00210135
v 0.00788850 -0.01506679 0.00990705
v 0.00809343 -0.00703657 -0.02109252
v 0.00737039 -0.00655168 -0.00595518
v 0.00805441 -0.00651693 0.00220535
v 0.00764693 -0.00691668 0.00960326
v 0.00765132 0.00083111 -0.02109446
v 0.00895055 0.00084447 -0.00505696
v 0.00764997 0.00084935 0.00128706
v 0.00751893 0.00101284 0.00931478
v 0.00730109 0.00876029 -0.02138715
v 0.00729372 0.00401484 -0.00188142
v 0.00930517 0.00781951 0.01013490
v 0.00919347 0.01563441 -0.02062258
v 0.00586079 0.01246391 0.01312179
v 0.00987954 0.01611088 0.01734049
v 0.00766423 0.01928294 -0.01662128
v 0.00600405 0.02087771 -0.01056630
v 0.00954424 0.02375732 -0.00580692
v 0.00643101 0.01993764 0.02173545
v 0.00821909 0.02393205 0.02407986
v 0.00753149 0.02681664 -0.00123025
v 0.00764131 0.02787144 0.00558077
v 0.00787123 0.02787454 0.01379616
v 0.00809094 0.02692958 0.02108108
v 0.01775942 -0.02616804 -0.01662113
v 0.01407528 -0.02205774 -0.02066756
v 0.01412140 -0.02610886 -0.01045871
v 0.01595302 -0.02207554 -0.00629265
v 0.01614410 -0.02544175 0.00589661
v 0.01439418 -0.02219217 0.00285298
v 0.01578329 -0.02233548 0.00898156
v 0.01586962 -0.01495967 -0.02138797
v 0.01556923 -0.01488209 -0.00548670
v 0.01607089 -0.01495244 0.00188765
v 0.01550611 -0.01506810 0.00988267
v 0.01574268 -0.00703619 -0.02109395
v 0.01494655 -0.00654462 -0.00587817
v 0.01573517 -0.00653671 0.00211210
v 0.01529816 -0.00691008 0.00960175
v 0.01530071 0.00083087 -0.02109450
v 0.01659052 0.00083933 -0.00505492
v 0.01528904 0.00084149 0.00129014
v 0.01516766 0.00101914 0.00931733
v 0.01495048 0.00876014 -0.02138711
v 0.01493458 0.00400270 -0.00187504
v 0.01694996 0.00782825 0.01013979
v 0.01684307 0.01563423 -0.02062267
v 0.01349950 0.01246043 0.01312748
v 0.01752308 0.01610815 0.01734671
v 0.01531395 0.01928312 -0.01662126
v 0.01365355 0.02087792 -0.01056608
v 0.01719375 0.02375728 -0.00580719
v 0.01407683 0.01993210 0.02173578
v 0.01586694 0.02392671 0.02408033
v 0.01518130 0.02681504 -0.00122974
v 0.01529110 0.02786871 0.00558204
v 0.01552049 0.02787401 0.01379688
v 0.01574028 0.02692857 0.02108127
v 0.02538539 -0.02616940 -0.01651464
v 0.02171966 -0.02205888 -0.02062900
v 0.02175698 -0.02618414 -0.01026287
v 0.02352627 -0.02208292 -0.00608607
v 0.02372513 -0.02550611 0.00575858
v 0.02209495 -0.02234390 0.00266940
v 0.02335726 -0.02233078 0.00885561
v 0.02351863 -0.01495818 -0.02138778
v 0.02314237 -0.01485740 -0.00543388
v 0.02373400 -0.01501072 0.00178919
v 0.02319343 -0.01506122 0.00974771
v 0.02338999 -0.00703621 -0.02109143
v 0.02259054 -0.00651722 -0.00595270
v 0.02341393 -0.00665291 0.00219258
v 0.02304579 -0.00692236 0.00947118
v 0.02294593 0.00083111 -0.02109012
v 0.02447890 0.00087121 -0.00510612
v 0.02304618 0.00068009 0.00140145
v 0.02293134 0.00101140 0.00920594
v 0.02259465 0.00876027 -0.02138212
v 0.02275841 0.00391090 -0.00179150
v 0.02477008 0.00786959 0.01002630
v 0.02448472 0.01563101 -0.02061970
v 0.02116855 0.01248876 0.01313105
v 0.02528156 0.01620551 0.01734670
v 0.02296289 0.01928108 -0.01662273
v 0.02130321 0.02087753 -0.01056682
v 0.02483652 0.02375074 -0.00581652
v 0.02174150 0.01995217 0.02174191
v 0.02352930 0.02399781 0.02407731
v 0.02282500 0.02680908 -0.00123737
v 0.02293525 0.02786790 0.00557509
v 0.02315459 0.02791381 0.01378246
v 0.02337552 0.02701675 0.02106497
v 0.03296830 -0.02615674 -0.01656377
v 0.02936044 -0.02205443 -0.02062190
v 0.02933587 -0.02616912 -0.01019432
v 0.03108554 -0.02202832 -0.00620847
v 0.03131613 -0.02550738 0.00575832
v 0.02967973 -0.02240419 0.00263301
v 0.03105477 -0.02233536 0.00879519
v 0.03116380 -0.01495383 -0.02138302
v 0.03084402 -0.01478219 -0.00566254
v 0.03147382 -0.01516521 0.00194960
v 0.03095832 -0.01516948 0.00956385
v 0.03103690 -0.00702897 -0.02108684
v 0.03056627 -0.00643106 -0.00611228
v 0.03138848 -0.00680766 0.00235476
v 0.03084306 -0.00711125 0.00925279
v 0.03059177 0.00084047 -0.02108654
v 0.03273992 0.00089530 -0.00521216
v 0.03114843 0.00064258 0.00148703
v 0.03081106 0.00084269 0.00898691
v 0.03023459 0.00876686 -0.02137938
v 0.03091962 0.00394466 -0.00185832
v 0.03272333 0.00767805 0.00973729
v 0.03212456 0.01564092 -0.02060734
v 0.02909811 0.01258477 0.01299331
v 0.03314506 0.01632354 0.01722100
v 0.03059597 0.01927625 -0.01661681
v 0.02894282 0.02086952 -0.01057345
v 0.03247602 0.02374710 -0.00581115
v 0.02949078 0.02014664 0.02173383
v 0.03115803 0.02418334 0.02405108
v 0.03046458 0.02680351 -0.00123175
v 0.03057988 0.02786614 0.00557592
v 0.03078729 0.02796804 0.01374421
v 0.03097413 0.02713683 0.02101115
v 0.04066109 -0.02617304 -0.01677033
v 0.03699059 -0.02204764 -0.02066561
v 0.03694504 -0.02612737 -0.01042434
v 0.03886227 -0.02192980 -0.00653397
v 0.03974507 -0.02571903 0.00664090
v 0.03735420 -0.02237300 0.00278349
v 0.03814248 -0.02233711 0.01023069
v 0.03886319 -0.01495244 -0.02143719
v 0.03932572 -0.01509956 -0.00514894
v 0.03935810 -0.01421780 0.00121592
v 0.03769991 -0.01518641 0.01047364
v 0.03877880 -0.00703034 -0.02118046
v 0.03799867 -0.00646925 -0.00520417
v 0.03853875 -0.00479762 0.00140709
v 0.03756072 -0.00721307 0.01005382
v 0.03834701 0.00083698 -0.02119940
v 0.03920524 -0.00009678 -0.00436344
v 0.03760348 0.00165970 0.00060784
v 0.03764025 0.00061991 0.00978423
v 0.03799679 0.00876879 -0.02148668
v 0.03752543 0.00350500 -0.00250784
v 0.03869094 0.00676448 0.01047802
v 0.03998830 0.01573456 -0.02064732
v 0.03661536 0.01198782 0.01281979
v 0.03904394 0.01523112 0.01714510
v 0.03827395 0.01936522 -0.01655341
v 0.03657842 0.02089908 -0.01054539
v 0.04028748 0.02391074 -0.00566249
v 0.03675263 0.01979815 0.02160606
v 0.03914560 0.02295944 0.02430773
v 0.03824491 0.02691397 -0.00103603
v 0.03834333 0.02795769 0.00578149
v 0.03857189 0.02801374 0.01385913
v 0.03865503 0.02714193 0.02106035
v 0.04851382 -0.02632553 -0.01701153
v 0.04476361 -0.02213448 -0.02084321
v 0.04580700 -0.02623895 -0.00987035
v 0.04636448 -0.02234965 -0.00497283
v 0.04880812 -0.02636157 0.00559445
v 0.04466995 -0.02187286 0.00146320
v 0.04281450 -0.02088685 0.01390175
v 0.04508383 -0.02588485 0.01211807
v 0.04795819 -0.02318877 0.01656463
v 0.04670351 -0.01511201 -0.02161786
v 0.04586977 -0.01938695 -0.00263190
v 0.04264724 -0.01433597 -0.00213472
v 0.04228213 -0.01334956 0.01356849
v 0.04721451 -0.01696893 0.01720710
v 0.04665645 -0.00723722 -0.02142624
v 0.04147760 -0.00670219 -0.00195455
v 0.04228237 -0.00547042 0.01318051
v 0.04707417 -0.00906950 0.01675596
v 0.04627289 0.00061455 -0.02148665
v 0.04115585 -0.00016940 -0.00125695
v 0.04234612 0.00244149 0.01427327
v 0.04776523 -0.00106620 0.01754503
v 0.04603422 0.00860965 -0.02173687
v 0.04125836 0.00978972 0.01488908
v 0.04611629 0.00414303 0.02035689
v 0.04377340 0.00863373 0.02048160
v 0.04788917 0.00811413 0.02410412
v 0.04809032 0.01564172 -0.02087791
v 0.04175280 0.01571939 0.02103219
v 0.04653413 0.01533584 0.02513363
v 0.04622126 0.01954662 -0.01668402
v 0.04445495 0.02110323 -0.01050202
v 0.04831596 0.02415660 -0.00560028
v 0.04657422 0.02329042 0.02524293
v 0.04626845 0.02719517 -0.00082758
v 0.04633112 0.02819632 0.00602805
v 0.04655298 0.02818177 0.01408595
v 0.04657382 0.02725372 0.02122641
v 0.05451084 -0.02566785 -0.01635249
v 0.05220958 -0.02234400 -0.02052002
v 0.05348772 -0.02629495 -0.01007457
v 0.04919244 -0.02350068 -0.00097942
v 0.05287186 -0.02554366 -0.00163137
v 0.05471915 -0.02588504 0.00727309
v 0.05211812 -0.02570131 0.01329173
v 0.05339584 -0.02053077 0.01697722
v 0.05367333 -0.01536455 -0.02086317
v 0.05319867 -0.01287313 0.01723499
v 0.05356778 -0.00755040 -0.02073276
v 0.05322011 -0.00500847 0.01691860
v 0.05329553 0.00028399 -0.02083253
v 0.05422701 0.00133562 0.01837878
v 0.05327695 0.00832003 -0.02102059
v 0.05179430 0.00482471 0.02181022
v 0.05340152 0.01070084 0.02459476
v 0.05438342 0.01466525 -0.02024526
v 0.05357206 0.01825894 0.02528375
v 0.05267157 0.01874997 -0.01780326
v 0.05280696 0.02029760 -0.01130791
v 0.05449353 0.02311004 -0.00564326
v 0.05289651 0.02437760 0.02453549
v 0.05263870 0.02659856 -0.00166850
v 0.05338324 0.02743908 0.00426373
v 0.05358456 0.02747180 0.01228857
v 0.05363444 0.02692527 0.01987155
v 0.05702378 -0.02103753 -0.01704304
v 0.05737259 -0.02236103 -0.01003643
v 0.05737283 -0.02195930 -0.00202722
v 0.05765039 -0.02189404 0.00610779
v 0.05681478 -0.02291194 0.01259319
v 0.05746724 -0.01362598 -0.01694830
v 0.05816394 -0.01536067 -0.00997147
v 0.05811725 -0.01494611 -0.00194431
v 0.05835552 -0.01474907 0.00610431
v 0.05751065 -0.01660320 0.01328764
v 0.05732686 -0.00585914 -0.01689934
v 0.05801359 -0.00755620 -0.00991467
v 0.05783773 -0.00712969 -0.00195783
v 0.05800637 -0.00679489 0.00601733
v 0.05722679 -0.00855957 0.01311798
v 0.05727307 0.00195798 -0.01701997
v 0.05797951 0.00012044 -0.00993767
v 0.05768741 0.00052832 -0.00199278
v 0.05781336 0.00097305 0.00594098
v 0.05733779 0.00023480 0.01385469
v 0.05744337 0.01002625 -0.01701354
v 0.05819352 0.00801185 -0.00999279
v 0.05784150 0.00823139 -0.00202971
v 0.05782432 0.00870428 0.00589736
v 0.05816771 0.00868647 0.01383527
v 0.05687847 0.00715828 0.01997854
v 0.05675492 0.01629058 -0.01617716
v 0.05765451 0.01658738 -0.00941228
v 0.05820963 0.01622923 -0.00188035
v 0.05807038 0.01653726 0.00604011
v 0.05825945 0.01658436 0.01401713
v 0.05754356 0.01457849 0.02103715
v 0.05696507 0.02338921 -0.00126611
v 0.05742640 0.02351882 0.00618164
v 0.05747534 0.02356705 0.01419196
v 0.05712019 0.02207098 0.02124385
f 3 2 1
f 5 4 1
f 5 1 2
f 7 6 4
f 7 4 5
f 9 8 6
f 9 6 7
f 11 10 8
f 11 8 9
f 12 10 11
f 3 1 13
f 3 13 14
f 15 1 4
f 13 1 15
f 16 4 6
f 15 4 16
f 17 6 8
f 16 6 17
f 18 8 10
f 17 8 18
f 10 12 19
f 10 19 18
f 14 13 20
f 14 20 21
f 22 13 15
f 20 13 22
f 23 15 16
f 22 15 23
f 24 16 17
f 23 16 24
f 25 17 18
f 24 17 25
f 18 19 26
f 18 26 25
f 21 20 27
f 21 27 28
f 29 20 22
f 27 20 29
f 30 22 23
f 29 22 30
f 31 23 24
f 30 23 31
f 32 24 25
f 31 24 32
f 25 26 33
f 25 33 32
f 28 27 34
f 28 34 35
f 36 27 29
f 34 27 36
f 37 29 30
f 36 29 37
f 38 30 31
f 37 30 38
f 39 31 32
f 38 31 39
f 32 33 40
f 41 32 40
f 39 32 41
f 42 41 40
f 35 34 43
f 35 43 44
f 45 34 36
f 43 34 45
f 46 36 37
f 45 36 46
f 47 37 38
f 46 37 47
f 48 38 39
f 47 38 48
f 49 39 41
f 48 39 49
f 41 42 50
f 41 50 49
f 51 44 43
f 51 43 45
f 51 45 52
f 54 53 52
f 45 54 52
f 46 54 45
f 55 46 47
f 54 46 55
f 56 47 48
f 55 47 56
f 57 48 49
f 56 48 57
f 49 50 58
f 49 58 57
f 59 53 54
f 59 54 55
f 59 55 60
f 60 55 56
f 60 56 61
f 61 56 57
f 61 57 62
f 62 57 58
f 64 63 2
f 64 2 3
f 2 65 5
f 63 65 2
f 5 66 7
f 65 66 5
f 7 67 9
f 66 67 7
f 9 68 11
f 67 68 9
f 12 11 68
f 12 68 69
f 14 64 3
f 14 70 64
f 69 19 12
f 71 19 69
f 21 70 14
f 21 72 70
f 71 26 19
f 73 26 71
f 28 72 21
f 28 74 72
f 73 33 26
f 75 33 73
f 35 74 28
f 35 76 74
f 75 77 33
f 33 77 40
f 42 40 77
f 42 77 78
f 44 76 35
f 44 79 76
f 78 50 42
f 80 50 78
f 81 79 44
f 81 44 51
f 82 51 52
f 82 81 51
f 52 53 82
f 82 53 83
f 80 58 50
f 84 58 80
f 85 83 53
f 85 53 59
f 86 59 60
f 86 85 59
f 87 60 61
f 87 86 60
f 88 61 62
f 88 87 61
f 62 58 84
f 62 84 88
f 91 90 89
f 92 89 90
f 94 93 63
f 94 63 64
f 63 95 65
f 93 95 63
f 89 66 91
f 66 95 91
f 66 65 95
f 92 96 89
f 96 66 89
f 96 67 66
f 96 98 97
f 68 96 97
f 67 96 68
f 97 69 68
f 70 94 64
f 70 99 94
f 102 101 100
f 100 103 102
f 97 98 104
f 104 98 105
f 104 71 69
f 104 69 97
f 72 99 70
f 72 106 99
f 100 101 107
f 107 101 108
f 103 100 109
f 109 100 107
f 104 105 110
f 110 105 111
f 110 73 71
f 110 71 104
f 74 106 72
f 74 112 106
f 107 108 113
f 113 108 114
f 109 107 115
f 115 107 113
f 110 111 116
f 116 111 117
f 116 75 73
f 116 73 110
f 76 112 74
f 76 118 112
f 114 119 113
f 113 119 115
f 116 117 120
f 120 117 121
f 122 77 75
f 116 122 75
f 120 122 116
f 122 78 77
f 79 118 76
f 79 123 118
f 121 124 120
f 126 125 124
f 125 120 124
f 125 122 120
f 125 80 78
f 125 78 122
f 127 123 79
f 127 79 81
f 128 81 82
f 128 127 81
f 82 83 128
f 128 83 129
f 126 130 125
f 80 125 130
f 131 80 130
f 84 80 131
f 132 129 83
f 132 83 85
f 133 85 86
f 133 132 85
f 134 86 87
f 134 133 86
f 135 87 88
f 135 134 87
f 88 84 131
f 88 131 135
f 137 136 90
f 137 90 91
f 92 90 136
f 92 136 138
f 140 139 93
f 140 93 94
f 93 141 95
f 139 141 93
f 91 95 137
f 137 95 141
f 138 142 92
f 92 142 96
f 98 96 142
f 98 142 143
f 99 140 94
f 99 144 140
f 146 145 102
f 102 145 101
f 102 103 146
f 146 103 147
f 143 105 98
f 148 105 143
f 106 144 99
f 106 149 144
f 145 108 101
f 150 108 145
f 109 147 103
f 109 151 147
f 148 111 105
f 152 111 148
f 112 149 106
f 112 153 149
f 150 114 108
f 154 114 150
f 115 151 109
f 115 155 151
f 152 117 111
f 156 117 152
f 118 153 112
f 118 157 153
f 154 158 114
f 114 158 119
f 115 119 155
f 155 119 158
f 156 121 117
f 159 121 156
f 123 157 118
f 123 160 157
f 159 161 121
f 121 161 124
f 126 124 161
f 126 161 162
f 163 160 123
f 163 123 127
f 164 127 128
f 164 163 127
f 128 129 164
f 164 129 165
f 162 166 126
f 126 166 130
f 131 130 166
f 131 166 167
f 168 165 129
f 168 129 132
f 169 132 133
f 169 168 132
f 170 133 134
f 170 169 133
f 171 134 135
f 171 170 134
f 135 131 167
f 135 167 171
f 173 172 136
f 173 136 137
f 138 136 172
f 138 172 174
f 176 175 139
f 176 139 140
f 139 177 141
f 175 177 139
f 137 141 173
f 173 141 177
f 174 178 138
f 138 178 142
f 143 142 178
f 143 178 179
f 144 176 140
f 144 180 176
f 182 181 146
f 146 181 145
f 146 147 182
f 182 147 183
f 179 148 143
f 184 148 179
f 149 180 144
f 149 185 180
f 181 150 145
f 186 150 181
f 151 183 147
f 151 187 183
f 184 152 148
f 188 152 184
f 153 185 149
f 153 189 185
f 186 154 150
f 190 154 186
f 155 187 151
f 155 191 187
f 188 156 152
f 192 156 188
f 157 189 153
f 157 193 189
f 190 194 154
f 154 194 158
f 155 158 191
f 191 158 194
f 192 159 156
f 195 159 192
f 160 193 157
f 160 196 193
f 195 197 159
f 159 197 161
f 162 161 197
f 162 197 198
f 199 196 160
f 199 160 163
f 200 163 164
f 200 199 163
f 164 165 200
f 200 165 201
f 198 202 162
f 162 202 166
f 167 166 202
f 167 202 203
f 204 201 165
f 204 165 168
f 205 168 169
f 205 204 168
f 206 169 170
f 206 205 169
f 207 170 171
f 207 206 170
f 171 167 203
f 171 203 207
f 209 208 172
f 209 172 173
f 174 172 208
f 174 208 210
f 212 211 175
f 212 175 176
f 175 213 177
f 211 213 175
f 173 177 209
f 209 177 213
f 210 214 174
f 174 214 178
f 179 178 214
f 179 214 215
f 180 212 176
f 180 216 212
f 218 217 182
f 182 217 181
f 182 183 218
f 218 183 219
f 215 184 179
f 220 184 215
f 185 216 180
f 185 221 216
f 217 186 181
f 222 186 217
f 187 219 183
f 187 223 219
f 220 188 184
f 224 188 220
f 189 221 185
f 189 225 221
f 222 190 186
f 226 190 222
f 191 223 187
f 191 227 223
f 224 192 188
f 228 192 224
f 193 225 189
f 193 229 225
f 226 230 190
f 190 230 194
f 191 194 227
f 227 194 230
f 228 195 192
f 231 195 228
f 196 229 193
f 196 232 229
f 231 233 195
f 195 233 197
f 198 197 233
f 198 233 234
f 235 232 196
f 235 196 199
f 236 199 200
f 236 235 199
f 200 201 236
f 236 201 237
f 234 238 198
f 198 238 202
f 203 202 238
f 203 238 239
f 240 237 201
f 240 201 204
f 241 204 205
f 241 240 204
f 242 205 206
f 242 241 205
f 243 206 207
f 243 242 206
f 207 203 239
f 207 239 243
f 245 244 208
f 245 208 209
f 210 208 244
f 210 244 246
f 248 247 211
f 248 211 212
f 211 249 213
f 247 249 211
f 209 213 245
f 245 213 249
f 246 250 210
f 210 250 214
f 215 214 250
f 215 250 251
f 216 248 212
f 216 252 248
f 254 253 218
f 218 253 217
f 218 219 254
f 254 219 255
f 251 220 215
f 256 220 251
f 221 252 216
f 221 257 252
f 253 222 217
f 258 222 253
f 223 255 219
f 223 259 255
f 256 224 220
f 260 224 256
f 225 257 221
f 225 261 257
f 258 226 222
f 262 226 258
f 227 259 223
f 227 263 259
f 260 228 224
f 264 228 260
f 229 261 225
f 229 265 261
f 262 266 226
f 226 266 230
f 227 230 263
f 263 230 266
f 264 231 228
f 267 231 264
f 232 265 229
f 232 268 265
f 267 269 231
f 231 269 233
f 234 233 269
f 234 269 270
f 271 268 232
f 271 232 235
f 272 235 236
f 272 271 235
f 236 237 272
f 272 237 273
f 270 274 234
f 234 274 238
f 239 238 274
f 239 274 275
f 276 273 237
f 276 237 240
f 277 240 241
f 277 276 240
f 278 241 242
f 278 277 241
f 279 242 243
f 279 278 242
f 243 239 275
f 243 275 279
f 245 280 244
f 280 246 244
f 282 281 247
f 282 247 248
f 247 283 249
f 281 283 247
f 245 249 280
f 249 284 280
f 249 283 284
f 280 284 246
f 284 250 246
f 284 285 250
f 251 250 285
f 251 285 286
f 252 282 248
f 252 287 282
f 289 288 254
f 254 288 253
f 254 255 289
f 289 255 290
f 286 256 251
f 291 256 286
f 257 287 252
f 257 292 287
f 288 258 253
f 293 258 288
f 259 290 255
f 259 294 290
f 291 260 256
f 295 260 291
f 261 292 257
f 261 296 292
f 293 262 258
f 297 262 293
f 263 294 259
f 263 298 294
f 295 264 260
f 299 264 295
f 265 296 261
f 265 300 296
f 297 301 262
f 262 301 266
f 263 266 298
f 298 266 301
f 299 267 264
f 302 267 299
f 268 300 265
f 268 303 300
f 302 304 267
f 267 304 269
f 270 269 304
f 270 304 305
f 306 303 268
f 306 268 271
f 307 271 272
f 307 306 271
f 272 273 307
f 307 273 308
f 305 309 270
f 270 309 274
f 275 274 309
f 275 309 310
f 311 308 273
f 311 273 276
f 312 276 277
f 312 311 276
f 313 277 278
f 313 312 277
f 314 278 279
f 314 313 278
f 279 275 310
f 279 310 314
f 316 315 281
f 316 281 282
f 281 317 283
f 315 317 281
f 317 319 318
f 284 317 318
f 283 317 284
f 284 318 320
f 321 284 320
f 285 284 321
f 286 285 321
f 286 321 322
f 287 316 282
f 287 323 316
f 318 319 289
f 319 288 289
f 319 324 288
f 289 290 318
f 290 320 318
f 290 325 320
f 322 291 286
f 326 291 322
f 292 323 287
f 292 327 323
f 324 293 288
f 328 293 324
f 294 325 290
f 294 329 325
f 326 295 291
f 330 295 326
f 296 327 292
f 296 331 327
f 328 297 293
f 332 297 328
f 298 329 294
f 298 333 329
f 330 299 295
f 334 299 330
f 300 331 296
f 300 335 331
f 332 336 297
f 297 336 301
f 298 301 333
f 333 301 336
f 334 302 299
f 337 302 334
f 303 335 300
f 303 338 335
f 337 339 302
f 302 339 304
f 305 304 339
f 305 339 340
f 341 338 303
f 341 303 306
f 342 306 307
f 342 341 306
f 307 308 342
f 342 308 343
f 340 344 305
f 305 344 309
f 310 309 344
f 310 344 345
f 346 343 308
f 346 308 311
f 347 311 312
f 347 346 311
f 348 312 313
f 348 347 312
f 349 313 314
f 349 348 313
f 314 310 345
f 314 345 349
f 351 350 315
f 351 315 316
f 315 352 317
f 350 352 315
f 319 317 352
f 319 352 353
f 355 354 321
f 355 321 320
f 322 321 354
f 322 354 356
f 323 351 316
f 323 357 351
f 353 324 319
f 358 324 353
f 325 355 320
f 325 359 355
f 356 326 322
f 360 326 356
f 327 357 323
f 327 361 357
f 358 328 324
f 362 328 358
f 329 359 325
f 329 363 359
f 360 330 326
f 364 330 360
f 331 361 327
f 331 365 361
f 362 332 328
f 366 332 362
f 333 363 329
f 333 367 363
f 364 334 330
f 368 334 364
f 335 365 331
f 335 369 365
f 366 370 332
f 332 370 336
f 333 336 367
f 367 336 370
f 368 337 334
f 371 337 368
f 338 369 335
f 338 372 369
f 371 373 337
f 337 373 339
f 340 339 373
f 340 373 374
f 375 372 338
f 375 338 341
f 376 341 342
f 376 375 341
f 342 343 376
f 376 343 377
f 374 378 340
f 340 378 344
f 345 344 378
f 345 378 379
f 380 377 343
f 380 343 346
f 381 346 347
f 381 380 346
f 382 347 348
f 382 381 347
f 383 348 349
f 383 382 348
f 349 345 379
f 349 379 383
f 385 384 350
f 385 350 351
f 350 386 352
f 384 386 350
f 353 352 386
f 353 386 387
f 389 388 354
f 389 354 355
f 356 354 388
f 356 388 390
f 357 385 351
f 357 391 385
f 387 358 353
f 392 358 387
f 359 389 355
f 359 393 389
f 390 360 356
f 394 360 390
f 361 391 357
f 361 395 391
f 392 362 358
f 396 362 392
f 363 393 359
f 363 397 393
f 394 364 360
f 398 364 394
f 365 395 361
f 365 399 395
f 396 366 362
f 400 366 396
f 367 397 363
f 367 401 397
f 398 368 364
f 402 368 398
f 369 399 365
f 369 403 399
f 400 404 366
f 366 404 370
f 367 370 401
f 401 370 404
f 402 371 368
f 405 371 402
f 372 403 369
f 372 406 403
f 405 407 371
f 371 407 373
f 374 373 407
f 374 407 408
f 409 406 372
f 409 372 375
f 410 375 376
f 410 409 375
f 376 377 410
f 410 377 411
f 408 412 374
f 374 412 378
f 379 378 412
f 379 412 413
f 414 411 377
f 414 377 380
f 415 380 381
f 415 414 380
f 416 381 382
f 416 415 381
f 417 382 383
f 417 416 382
f 383 379 413
f 383 413 417
f 419 418 384
f 419 384 385
f 384 420 386
f 418 420 384
f 387 386 420
f 387 420 421
f 423 422 388
f 423 388 389
f 390 388 422
f 390 422 424
f 391 419 385
f 391 425 419
f 421 392 387
f 426 392 421
f 393 423 389
f 393 427 423
f 424 394 390
f 428 394 424
f 395 425 391
f 395 429 425
f 426 396 392
f 430 396 426
f 397 427 393
f 397 431 427
f 428 398 394
f 432 398 428
f 399 429 395
f 399 433 429
f 430 400 396
f 434 400 430
f 401 431 397
f 401 435 431
f 432 402 398
f 436 402 432
f 403 433 399
f 403 437 433
f 434 438 400
f 400 438 404
f 401 404 435
f 435 404 438
f 436 405 402
f 439 405 436
f 406 437 403
f 406 440 437
f 439 441 405
f 405 441 407
f 408 407 441
f 408 441 442
f 443 440 406
f 443 406 409
f 444 409 410
f 444 443 409
f 410 411 444
f 444 411 445
f 442 446 408
f 408 446 412
f 413 412 446
f 413 446 447
f 448 445 411
f 448 411 414
f 449 414 415
f 449 448 414
f 450 415 416
f 450 449 415
f 451 416 417
f 451 450 416
f 417 413 447
f 417 447 451
f 453 452 418
f 453 418 419
f 418 454 420
f 452 454 418
f 421 420 454
f 421 454 455
f 457 456 422
f 457 422 423
f 424 422 456
f 424 456 458
f 425 453 419
f 425 459 453
f 455 426 421
f 460 426 455
f 427 457 423
f 427 461 457
f 458 428 424
f 462 428 458
f 429 459 425
f 429 463 459
f 460 430 426
f 464 430 460
f 431 461 427
f 431 465 461
f 462 432 428
f 466 432 462
f 433 463 429
f 433 467 463
f 464 434 430
f 468 434 464
f 435 465 431
f 435 469 465
f 466 436 432
f 470 436 466
f 437 467 433
f 437 471 467
f 468 472 434
f 434 472 438
f 435 438 469
f 469 438 472
f 470 439 436
f 473 439 470
f 440 471 437
f 440 474 471
f 473 475 439
f 439 475 441
f 442 441 475
f 442 475 476
f 477 474 440
f 477 440 443
f 478 443 444
f 478 477 443
f 444 445 478
f 478 445 479
f 476 480 442
f 442 480 446
f 447 446 480
f 447 480 481
f 482 479 445
f 482 445 448
f 483 448 449
f 483 482 448
f 484 449 450
f 484 483 449
f 485 450 451
f 485 484 450
f 451 447 481
f 451 481 485
f 487 486 452
f 487 452 453
f 452 488 454
f 486 488 452
f 455 454 488
f 455 488 489
f 491 490 456
f 491 456 457
f 493 492 458
f 456 493 458
f 490 493 456
f 494 492 493
f 459 487 453
f 459 495 487
f 497 460 496
f 460 489 496
f 460 455 489
f 496 491 497
f 491 461 497
f 491 457 461
f 498 462 492
f 492 462 458
f 492 494 499
f 492 499 498
f 463 495 459
f 463 500 495
f 501 464 497
f 497 464 460
f 465 501 461
f 461 501 497
f 502 466 498
f 498 466 462
f 498 499 503
f 498 503 502
f 467 500 463
f 467 504 500
f 505 468 501
f 501 468 464
f 469 505 465
f 465 505 501
f 506 470 502
f 502 470 466
f 502 503 507
f 502 507 506
f 471 504 467
f 471 508 504
f 505 472 468
f 472 505 469
f 509 473 506
f 506 473 470
f 506 507 510
f 511 506 510
f 509 506 511
f 512 511 510
f 474 508 471
f 474 513 508
f 509 475 473
f 475 509 476
f 509 514 476
f 509 511 514
f 511 512 515
f 511 515 514
f 516 513 474
f 516 474 477
f 517 477 478
f 517 516 477
f 478 479 517
f 517 479 518
f 514 480 476
f 481 480 514
f 515 481 514
f 519 481 515
f 520 518 479
f 520 479 482
f 521 482 483
f 521 520 482
f 522 483 484
f 522 521 483
f 523 484 485
f 523 522 484
f 485 481 519
f 485 519 523
f 525 524 486
f 525 486 487
f 486 526 488
f 524 526 486
f 528 527 489
f 488 528 489
f 526 528 488
f 490 491 527
f 528 490 527
f 529 490 528
f 490 530 493
f 529 530 490
f 494 493 530
f 494 530 531
f 495 525 487
f 495 532 525
f 527 496 489
f 496 527 491
f 531 499 494
f 533 499 531
f 500 532 495
f 500 534 532
f 533 503 499
f 535 503 533
f 504 534 500
f 504 536 534
f 535 507 503
f 537 507 535
f 508 536 504
f 508 538 536
f 537 539 507
f 507 539 510
f 512 510 539
f 512 539 540
f 513 538 508
f 513 541 538
f 540 515 512
f 542 515 540
f 543 541 513
f 543 513 516
f 544 516 517
f 544 543 516
f 517 518 544
f 544 518 545
f 542 519 515
f 546 519 542
f 547 545 518
f 547 518 520
f 548 520 521
f 548 547 520
f 549 521 522
f 549 548 521
f 550 522 523
f 550 549 522
f 523 519 546
f 523 546 550
f 525 551 524
f 552 526 524
f 552 524 551
f 553 528 526
f 553 526 552
f 554 529 528
f 554 528 553
f 555 530 529
f 555 529 554
f 555 531 530
f 532 556 551
f 532 551 525
f 551 557 552
f 551 556 557
f 552 558 553
f 552 557 558
f 553 559 554
f 553 558 559
f 554 560 555
f 554 559 560
f 560 533 531
f 560 531 555
f 534 561 556
f 534 556 532
f 556 562 557
f 556 561 562
f 557 563 558
f 557 562 563
f 558 564 559
f 558 563 564
f 559 565 560
f 559 564 565
f 565 535 533
f 565 533 560
f 536 566 561
f 536 561 534
f 561 567 562
f 561 566 567
f 562 568 563
f 562 567 568
f 563 569 564
f 563 568 569
f 564 570 565
f 564 569 570
f 570 537 535
f 570 535 565
f 538 571 566
f 538 566 536
f 566 572 567
f 566 571 572
f 567 573 568
f 567 572 573
f 568 574 569
f 568 573 574
f 569 575 570
f 569 574 575
f 576 539 537
f 570 576 537
f 575 576 570
f 576 540 539
f 541 577 571
f 541 571 538
f 571 578 572
f 571 577 578
f 572 579 573
f 572 578 579
f 573 580 574
f 573 579 580
f 574 581 575
f 574 580 581
f 575 582 576
f 575 581 582
f 582 542 540
f 582 540 576
f 543 577 541
f 577 543 544
f 577 544 578
f 578 544 545
f 583 578 545
f 579 578 583
f 579 584 580
f 579 583 584
f 580 585 581
f 580 584 585
f 581 586 582
f 581 585 586
f 586 546 542
f 586 542 582
f 547 583 545
f 583 547 548
f 583 548 584
f 584 548 549
f 584 549 585
f 585 549 550
f 585 550 586
f 586 550 546

