# https://github.com/mikedh/trimesh

o P.obj
v -0.01191579 -0.03022011 0.01250000
v -0.00473104 0.01332828 0.01250000
v -0.01191579 0.01977989 0.01250000
v 0.00370004 0.01977989 0.01250000
v 0.00630782 0.01964837 0.01250000
v 0.00867147 0.01926534 0.01250000
v 0.01079430 0.01864811 0.01250000
v 0.01267963 0.01781399 0.01250000
v 0.01433076 0.01678030 0.01250000
v 0.01575100 0.01556435 0.01250000
v 0.01694366 0.01418343 0.01250000
v 0.00370004 0.01332828 0.01250000
v 0.01791206 0.01265488 0.01250000
v -0.00473104 -0.00214093 0.01250000
v 0.00523806 0.01324826 0.01250000
v 0.00659560 0.01301805 0.01250000
v 0.00778156 0.01265242 0.01250000
v 0.01865949 0.01099598 0.01250000
v 0.00880486 0.01216612 0.01250000
v 0.00967440 0.01157392 0.01250000
v 0.01039909 0.01089059 0.01250000
v 0.01918928 0.00922407 0.01250000
v 0.01098785 0.01013089 0.01250000
v 0.01144958 0.00930959 0.01250000
v 0.01179320 0.00844145 0.01250000
v 0.01950472 0.00735643 0.01250000
v 0.01202761 0.00754124 0.01250000
v 0.01216172 0.00662371 0.01250000
v 0.01960913 0.00541039 0.01250000
v 0.01220444 0.00570364 0.01250000
v 0.01213355 0.00450203 0.01250000
v 0.01949856 0.00348696 0.01250000
v 0.01192442 0.00339154 0.01250000
v 0.01916449 0.00164932 0.01250000
v 0.01158242 0.00237474 0.01250000
v 0.01111288 0.00145416 0.01250000
v 0.01860335 -0.00008700 0.01250000
v 0.01052115 0.00063235 0.01250000
v 0.00981258 -0.00008815 0.01250000
v 0.01781158 -0.00170648 0.01250000
v 0.00899251 -0.00070478 0.01250000
v 0.00806629 -0.00121501 0.01250000
v 0.00703926 -0.00161628 0.01250000
v 0.00591677 -0.00190606 0.01250000
v 0.01678562 -0.00319358 0.01250000
v 0.00470416 -0.00208179 0.01250000
v 0.00340679 -0.00214093 0.01250000
v -0.00473104 -0.00859254 0.01250000
v 0.01552189 -0.00453279 0.01250000
v 0.01401684 -0.00570857 0.01250000
v 0.01226689 -0.00670539 0.01250000
v 0.01026850 -0.00750773 0.01250000
v 0.00801809 -0.00810005 0.01250000
v 0.00551210 -0.00846683 0.01250000
v 0.00274696 -0.00859254 0.01250000
v -0.00473104 -0.03022011 0.01250000
v -0.01191579 -0.03022011 -0.01250000
v -0.01191579 0.01977989 -0.01250000
v -0.00473104 0.01332828 -0.01250000
v 0.00370004 0.01977989 -0.01250000
v 0.00630782 0.01964837 -0.01250000
v 0.00867147 0.01926534 -0.01250000
v 0.01079430 0.01864811 -0.01250000
v 0.01267963 0.01781399 -0.01250000
v 0.01433076 0.01678030 -0.01250000
v 0.01575100 0.01556435 -0.01250000
v 0.01694366 0.01418343 -0.01250000
v 0.00370004 0.01332828 -0.01250000
v 0.01791206 0.01265488 -0.01250000
v -0.00473104 -0.00214093 -0.01250000
v 0.00523806 0.01324826 -0.01250000
v 0.00659560 0.01301805 -0.01250000
v 0.00778156 0.01265242 -0.01250000
v 0.01865949 0.01099598 -0.01250000
v 0.00880486 0.01216612 -0.01250000
v 0.00967440 0.01157392 -0.01250000
v 0.01039909 0.01089059 -0.01250000
v 0.01918928 0.00922407 -0.01250000
v 0.01098785 0.01013089 -0.01250000
v 0.01144958 0.00930959 -0.01250000
v 0.01179320 0.00844145 -0.01250000
v 0.01950472 0.00735643 -0.01250000
v 0.01202761 0.00754124 -0.01250000
v 0.01216172 0.00662371 -0.01250000
v 0.01960913 0.00541039 -0.01250000
v 0.01220444 0.00570364 -0.01250000
v 0.01213355 0.00450203 -0.01250000
v 0.01949856 0.00348696 -0.01250000
v 0.01192442 0.00339154 -0.01250000
v 0.01916449 0.00164932 -0.01250000
v 0.01158242 0.00237474 -0.01250000
v 0.01111288 0.00145416 -0.01250000
v 0.01860335 -0.00008700 -0.01250000
v 0.01052115 0.00063235 -0.01250000
v 0.00981258 -0.00008815 -0.01250000
v 0.01781158 -0.00170648 -0.01250000
v 0.00899251 -0.00070478 -0.01250000
v 0.00806629 -0.00121501 -0.01250000
v 0.00703926 -0.00161628 -0.01250000
v 0.00591677 -0.00190606 -0.01250000
v 0.01678562 -0.00319358 -0.01250000
v 0.00470416 -0.00208179 -0.01250000
v 0.00340679 -0.00214093 -0.01250000
v -0.00473104 -0.00859254 -0.01250000
v 0.01552189 -0.00453279 -0.01250000
v 0.01401684 -0.00570857 -0.01250000
v 0.01226689 -0.00670539 -0.01250000
v 0.01026850 -0.00750773 -0.01250000
v 0.00801809 -0.00810005 -0.01250000
v 0.00551210 -0.00846683 -0.01250000
v 0.00274696 -0.00859254 -0.01250000
v -0.00473104 -0.03022011 -0.01250000
f 1 2 3
f 2 4 3
f 2 5 4
f 2 6 5
f 2 7 6
f 2 8 7
f 2 9 8
f 2 10 9
f 2 11 10
f 2 12 11
f 12 13 11
f 1 14 2
f 15 13 12
f 16 13 15
f 17 13 16
f 17 18 13
f 19 18 17
f 20 18 19
f 21 18 20
f 21 22 18
f 23 22 21
f 24 22 23
f 25 22 24
f 25 26 22
f 27 26 25
f 28 26 27
f 28 29 26
f 30 29 28
f 31 29 30
f 31 32 29
f 33 32 31
f 33 34 32
f 35 34 33
f 36 34 35
f 36 37 34
f 38 37 36
f 39 37 38
f 39 40 37
f 41 40 39
f 42 40 41
f 43 40 42
f 44 40 43
f 44 45 40
f 46 45 44
f 47 45 46
f 1 48 14
f 48 47 14
f 48 45 47
f 48 49 45
f 48 50 49
f 48 51 50
f 48 52 51
f 48 53 52
f 48 54 53
f 48 55 54
f 1 56 48
f 57 58 59
f 59 58 60
f 59 60 61
f 59 61 62
f 59 62 63
f 59 63 64
f 59 64 65
f 59 65 66
f 59 66 67
f 59 67 68
f 68 67 69
f 57 59 70
f 71 68 69
f 72 71 69
f 73 72 69
f 73 69 74
f 75 73 74
f 76 75 74
f 77 76 74
f 77 74 78
f 79 77 78
f 80 79 78
f 81 80 78
f 81 78 82
f 83 81 82
f 84 83 82
f 84 82 85
f 86 84 85
f 87 86 85
f 87 85 88
f 89 87 88
f 89 88 90
f 91 89 90
f 92 91 90
f 92 90 93
f 94 92 93
f 95 94 93
f 95 93 96
f 97 95 96
f 98 97 96
f 99 98 96
f 100 99 96
f 100 96 101
f 102 100 101
f 103 102 101
f 57 70 104
f 104 70 103
f 104 103 101
f 104 101 105
f 104 105 106
f 104 106 107
f 104 107 108
f 104 108 109
f 104 109 110
f 104 110 111
f 57 104 112
f 1 3 58
f 1 58 57
f 3 4 60
f 3 60 58
f 4 5 61
f 4 61 60
f 5 6 62
f 5 62 61
f 6 7 63
f 6 63 62
f 7 8 64
f 7 64 63
f 8 9 65
f 8 65 64
f 9 10 66
f 9 66 65
f 10 11 67
f 10 67 66
f 12 2 59
f 12 59 68
f 11 13 69
f 11 69 67
f 2 14 70
f 2 70 59
f 15 12 68
f 15 68 71
f 16 15 71
f 16 71 72
f 17 16 72
f 17 72 73
f 13 18 74
f 13 74 69
f 19 17 73
f 19 73 75
f 20 19 75
f 20 75 76
f 21 20 76
f 21 76 77
f 18 22 78
f 18 78 74
f 23 21 77
f 23 77 79
f 24 23 79
f 24 79 80
f 25 24 80
f 25 80 81
f 22 26 82
f 22 82 78
f 27 25 81
f 27 81 83
f 28 27 83
f 28 83 84
f 26 29 85
f 26 85 82
f 30 28 84
f 30 84 86
f 31 30 86
f 31 86 87
f 29 32 88
f 29 88 85
f 33 31 87
f 33 87 89
f 32 34 90
f 32 90 88
f 35 33 89
f 35 89 91
f 36 35 91
f 36 91 92
f 34 37 93
f 34 93 90
f 38 36 92
f 38 92 94
f 39 38 94
f 39 94 95
f 37 40 96
f 37 96 93
f 41 39 95
f 41 95 97
f 42 41 97
f 42 97 98
f 43 42 98
f 43 98 99
f 44 43 99
f 44 99 100
f 40 45 101
f 40 101 96
f 46 44 100
f 46 100 102
f 47 46 102
f 47 102 103
f 14 47 103
f 14 103 70
f 45 49 105
f 45 105 101
f 49 50 106
f 49 106 105
f 50 51 107
f 50 107 106
f 51 52 108
f 51 108 107
f 52 53 109
f 52 109 108
f 53 54 110
f 53 110 109
f 55 48 104
f 55 104 111
f 54 55 111
f 54 111 110
f 56 1 57
f 56 57 112
f 48 56 112
f 48 112 104

