# https://github.com/mikedh/trimesh

o A.obj
v -0.02413163 -0.02192363 0.01250000
v 0.00225321 0.02807637 0.01250000
v -0.00277595 0.02807637 0.01250000
v -0.00037070 0.01714342 0.01250000
v 0.02448353 -0.02192363 0.01250000
v -0.00780510 -0.00085949 0.01250000
v 0.00764679 -0.00085949 0.01250000
v -0.01057478 -0.00727348 0.01250000
v 0.01056225 -0.00727348 0.01250000
v -0.01684300 -0.02192363 0.01250000
v 0.01719490 -0.02192363 0.01250000
v -0.02413163 -0.02192363 -0.01250000
v -0.00277595 0.02807637 -0.01250000
v 0.00225321 0.02807637 -0.01250000
v -0.00037070 0.01714342 -0.01250000
v 0.02448353 -0.02192363 -0.01250000
v -0.00780510 -0.00085949 -0.01250000
v 0.00764679 -0.00085949 -0.01250000
v -0.01057478 -0.00727348 -0.01250000
v 0.01056225 -0.00727348 -0.01250000
v -0.01684300 -0.02192363 -0.01250000
v 0.01719490 -0.02192363 -0.01250000
f 1 2 3
f 1 4 2
f 4 5 2
f 1 6 4
f 7 5 4
f 1 8 6
f 8 7 6
f 8 9 7
f 9 5 7
f 1 10 8
f 11 5 9
f 12 13 14
f 12 14 15
f 15 14 16
f 12 15 17
f 18 15 16
f 12 17 19
f 19 17 18
f 19 18 20
f 20 18 16
f 12 19 21
f 22 20 16
f 1 3 13
f 1 13 12
f 3 2 14
f 3 14 13
f 2 5 16
f 2 16 14
f 4 6 17
f 4 17 15
f 7 4 15
f 7 15 18
f 6 7 18
f 6 18 17
f 9 8 19
f 9 19 20
f 10 1 12
f 10 12 21
f 8 10 21
f 8 21 19
f 11 9 20
f 11 20 22
f 5 11 22
f 5 22 16

