# https://github.com/mikedh/trimesh

o Y.obj
v -0.00360224 -0.00434307 0.00293255
v -0.01349961 0.01919065 0.00293255
v -0.02215063 0.01919065 0.00293255
v -0.00008318 0.00196191 0.00293255
v 0.02213089 0.01919065 0.00293255
v 0.01347987 0.01919065 0.00293255
v 0.00358250 -0.00441639 0.00293255
v -0.00360224 -0.03080935 0.00293255
v 0.00358250 -0.03080935 0.00293255
v -0.00360224 -0.00434307 -0.00293255
v -0.02215063 0.01919065 -0.00293255
v -0.01349961 0.01919065 -0.00293255
v -0.00008318 0.00196191 -0.00293255
v 0.01347987 0.01919065 -0.00293255
v 0.02213089 0.01919065 -0.00293255
v 0.00358250 -0.00441639 -0.00293255
v -0.00360224 -0.03080935 -0.00293255
v 0.00358250 -0.03080935 -0.00293255
f 1 2 3
f 1 4 2
f 4 5 6
f 4 7 5
f 1 7 4
f 8 7 1
f 8 9 7
f 10 11 12
f 10 12 13
f 13 14 15
f 13 15 16
f 10 13 16
f 17 10 16
f 17 16 18
f 1 3 11
f 1 11 10
f 3 2 12
f 3 12 11
f 2 4 13
f 2 13 12
f 4 6 14
f 4 14 13
f 6 5 15
f 6 15 14
f 5 7 16
f 5 16 15
f 8 1 10
f 8 10 17
f 9 8 17
f 9 17 18
f 7 9 18
f 7 18 16

