# https://github.com/mikedh/trimesh

o D.obj
v -0.02004605 -0.02504946 0.00293255
v -0.01286130 0.01849893 0.00293255
v -0.02004605 0.02495054 0.00293255
v -0.00061790 0.02495054 0.00293255
v 0.00378679 0.02468405 0.00293255
v 0.00776839 0.02391837 0.00293255
v 0.01133455 0.02270416 0.00293255
v 0.01449289 0.02109206 0.00293255
v 0.01725107 0.01913274 0.00293255
v -0.00179092 0.01849893 0.00293255
v 0.00155169 0.01832578 0.00293255
v 0.01961671 0.01687686 0.00293255
v -0.01286130 -0.01859785 0.00293255
v 0.00458093 0.01782247 0.00293255
v 0.00730114 0.01701318 0.00293255
v 0.00971663 0.01592208 0.00293255
v 0.02159745 0.01437507 0.00293255
v 0.01183174 0.01457337 0.00293255
v 0.01365080 0.01299123 0.00293255
v 0.02320094 0.01167803 0.00293255
v 0.01517813 0.01119983 0.00293255
v 0.02443480 0.00883640 0.00293255
v 0.01641806 0.00922337 0.00293255
v 0.01737491 0.00708603 0.00293255
v 0.02530667 0.00590084 0.00293255
v 0.01805303 0.00481199 0.00293255
v 0.02582420 0.00292200 0.00293255
v 0.01845672 0.00242543 0.00293255
v 0.02599501 -0.00004946 0.00293255
v 0.01859032 -0.00004946 0.00293255
v 0.01850733 -0.00170810 0.00293255
v 0.02578783 -0.00323654 0.00293255
v 0.01823800 -0.00356173 0.00293255
v 0.02517463 -0.00635615 0.00293255
v 0.01775179 -0.00554570 0.00293255
v 0.01701814 -0.00759535 0.00293255
v 0.02416788 -0.00936833 0.00293255
v 0.01600651 -0.00964601 0.00293255
v 0.02278005 -0.01223313 0.00293255
v 0.01468636 -0.01163304 0.00293255
v 0.01302712 -0.01349176 0.00293255
v 0.02102362 -0.01491056 0.00293255
v 0.01099827 -0.01515753 0.00293255
v 0.01891106 -0.01736068 0.00293255
v 0.00856924 -0.01656568 0.00293255
v 0.00570949 -0.01765156 0.00293255
v 0.01645484 -0.01954350 0.00293255
v 0.00238848 -0.01835050 0.00293255
v -0.00142435 -0.01859785 0.00293255
v 0.01366743 -0.02141907 0.00293255
v 0.01056131 -0.02294742 0.00293255
v 0.00714895 -0.02408857 0.00293255
v 0.00344283 -0.02480258 0.00293255
v -0.00054458 -0.02504946 0.00293255
v -0.02004605 -0.02504946 -0.00293255
v -0.02004605 0.02495054 -0.00293255
v -0.01286130 0.01849893 -0.00293255
v -0.00061790 0.02495054 -0.00293255
v 0.00378679 0.02468405 -0.00293255
v 0.00776839 0.02391837 -0.00293255
v 0.01133455 0.02270416 -0.00293255
v 0.01449289 0.02109206 -0.00293255
v 0.01725107 0.01913274 -0.00293255
v -0.00179092 0.01849893 -0.00293255
v 0.00155169 0.01832578 -0.00293255
v 0.01961671 0.01687686 -0.00293255
v -0.01286130 -0.01859785 -0.00293255
v 0.00458093 0.01782247 -0.00293255
v 0.00730114 0.01701318 -0.00293255
v 0.00971663 0.01592208 -0.00293255
v 0.02159745 0.01437507 -0.00293255
v 0.01183174 0.01457337 -0.00293255
v 0.01365080 0.01299123 -0.00293255
v 0.02320094 0.01167803 -0.00293255
v 0.01517813 0.01119983 -0.00293255
v 0.02443480 0.00883640 -0.00293255
v 0.01641806 0.00922337 -0.00293255
v 0.01737491 0.00708603 -0.00293255
v 0.02530667 0.00590084 -0.00293255
v 0.01805303 0.00481199 -0.00293255
v 0.02582420 0.00292200 -0.00293255
v 0.01845672 0.00242543 -0.00293255
v 0.02599501 -0.00004946 -0.00293255
v 0.01859032 -0.00004946 -0.00293255
v 0.01850733 -0.00170810 -0.00293255
v 0.02578783 -0.00323654 -0.00293255
v 0.01823800 -0.00356173 -0.00293255
v 0.02517463 -0.00635615 -0.00293255
v 0.01775179 -0.00554570 -0.00293255
v 0.01701814 -0.00759535 -0.00293255
v 0.02416788 -0.00936833 -0.00293255
v 0.01600651 -0.00964601 -0.00293255
v 0.02278005 -0.01223313 -0.00293255
v 0.01468636 -0.01163304 -0.00293255
v 0.01302712 -0.01349176 -0.00293255
v 0.02102362 -0.01491056 -0.00293255
v 0.01099827 -0.01515753 -0.00293255
v 0.01891106 -0.01736068 -0.00293255
v 0.00856924 -0.01656568 -0.00293255
v 0.00570949 -0.01765156 -0.00293255
v 0.01645484 -0.01954350 -0.00293255
v 0.00238848 -0.01835050 -0.00293255
v -0.00142435 -0.01859785 -0.00293255
v 0.01366743 -0.02141907 -0.00293255
v 0.01056131 -0.02294742 -0.00293255
v 0.00714895 -0.02408857 -0.00293255
v 0.00344283 -0.02480258 -0.00293255
v -0.00054458 -0.02504946 -0.00293255
f 1 2 3
f 2 4 3
f 2 5 4
f 2 6 5
f 2 7 6
f 2 8 7
f 2 9 8
f 2 10 9
f 10 11 9
f 11 12 9
f 1 13 2
f 14 12 11
f 15 12 14
f 16 12 15
f 16 17 12
f 18 17 16
f 19 17 18
f 19 20 17
f 21 20 19
f 21 22 20
f 23 22 21
f 24 22 23
f 24 25 22
f 26 25 24
f 26 27 25
f 28 27 26
f 28 29 27
f 30 29 28
f 31 29 30
f 31 32 29
f 33 32 31
f 33 34 32
f 35 34 33
f 36 34 35
f 36 37 34
f 38 37 36
f 38 39 37
f 40 39 38
f 41 39 40
f 41 42 39
f 43 42 41
f 43 44 42
f 45 44 43
f 46 44 45
f 46 47 44
f 48 47 46
f 49 47 48
f 1 49 13
f 1 47 49
f 1 50 47
f 1 51 50
f 1 52 51
f 1 53 52
f 1 54 53
f 55 56 57
f 57 56 58
f 57 58 59
f 57 59 60
f 57 60 61
f 57 61 62
f 57 62 63
f 57 63 64
f 64 63 65
f 65 63 66
f 55 57 67
f 68 65 66
f 69 68 66
f 70 69 66
f 70 66 71
f 72 70 71
f 73 72 71
f 73 71 74
f 75 73 74
f 75 74 76
f 77 75 76
f 78 77 76
f 78 76 79
f 80 78 79
f 80 79 81
f 82 80 81
f 82 81 83
f 84 82 83
f 85 84 83
f 85 83 86
f 87 85 86
f 87 86 88
f 89 87 88
f 90 89 88
f 90 88 91
f 92 90 91
f 92 91 93
f 94 92 93
f 95 94 93
f 95 93 96
f 97 95 96
f 97 96 98
f 99 97 98
f 100 99 98
f 100 98 101
f 102 100 101
f 103 102 101
f 55 67 103
f 55 103 101
f 55 101 104
f 55 104 105
f 55 105 106
f 55 106 107
f 55 107 108
f 1 3 56
f 1 56 55
f 3 4 58
f 3 58 56
f 4 5 59
f 4 59 58
f 5 6 60
f 5 60 59
f 6 7 61
f 6 61 60
f 7 8 62
f 7 62 61
f 8 9 63
f 8 63 62
f 10 2 57
f 10 57 64
f 11 10 64
f 11 64 65
f 9 12 66
f 9 66 63
f 2 13 67
f 2 67 57
f 14 11 65
f 14 65 68
f 15 14 68
f 15 68 69
f 16 15 69
f 16 69 70
f 12 17 71
f 12 71 66
f 18 16 70
f 18 70 72
f 19 18 72
f 19 72 73
f 17 20 74
f 17 74 71
f 21 19 73
f 21 73 75
f 20 22 76
f 20 76 74
f 23 21 75
f 23 75 77
f 24 23 77
f 24 77 78
f 22 25 79
f 22 79 76
f 26 24 78
f 26 78 80
f 25 27 81
f 25 81 79
f 28 26 80
f 28 80 82
f 27 29 83
f 27 83 81
f 30 28 82
f 30 82 84
f 31 30 84
f 31 84 85
f 29 32 86
f 29 86 83
f 33 31 85
f 33 85 87
f 32 34 88
f 32 88 86
f 35 33 87
f 35 87 89
f 36 35 89
f 36 89 90
f 34 37 91
f 34 91 88
f 38 36 90
f 38 90 92
f 37 39 93
f 37 93 91
f 40 38 92
f 40 92 94
f 41 40 94
f 41 94 95
f 39 42 96
f 39 96 93
f 43 41 95
f 43 95 97
f 42 44 98
f 42 98 96
f 45 43 97
f 45 97 99
f 46 45 99
f 46 99 100
f 44 47 101
f 44 101 98
f 48 46 100
f 48 100 102
f 49 48 102
f 49 102 103
f 13 49 103
f 13 103 67
f 47 50 104
f 47 104 101
f 50 51 105
f 50 105 104
f 51 52 106
f 51 106 105
f 52 53 107
f 52 107 106
f 54 1 55
f 54 55 108
f 53 54 108
f 53 108 107

