# https://github.com/mikedh/trimesh

o T.obj
v -0.02089443 0.01026857 0.01250000
v 0.02089443 0.01672018 0.01250000
v -0.02089443 0.01672018 0.01250000
v 0.02089443 0.01026857 0.01250000
v -0.00359237 -0.03327982 0.01250000
v 0.00359238 0.01026857 0.01250000
v -0.00359237 0.01026857 0.01250000
v 0.00359238 -0.03327982 0.01250000
v -0.02089443 0.01026857 -0.01250000
v -0.02089443 0.01672018 -0.01250000
v 0.02089443 0.01672018 -0.01250000
v 0.02089443 0.01026857 -0.01250000
v -0.00359237 -0.03327982 -0.01250000
v -0.00359237 0.01026857 -0.01250000
v 0.00359238 0.01026857 -0.01250000
v 0.00359238 -0.03327982 -0.01250000
f 1 2 3
f 2 1 7
f 2 7 6
f 2 6 4
f 5 6 7
f 5 8 6
f 9 10 11
f 11 12 15
f 11 15 14
f 11 14 9
f 13 14 15
f 13 15 16
f 1 3 10
f 1 10 9
f 3 2 11
f 3 11 10
f 2 4 12
f 2 12 11
f 7 1 9
f 7 9 14
f 5 7 14
f 5 14 13
f 4 6 15
f 4 15 12
f 8 5 13
f 8 13 16
f 6 8 16
f 6 16 15

