# https://github.com/mikedh/trimesh

o C.obj
v 0.00268017 0.02498021 0.01250000
v 0.00771423 0.02517693 0.01250000
v 0.00646187 0.02520243 0.01250000
v 0.00897477 0.02509959 0.01250000
v 0.01024870 0.02496917 0.01250000
v -0.00089891 0.02432941 0.01250000
v 0.01154124 0.02478444 0.01250000
v 0.01285758 0.02454415 0.01250000
v 0.01420294 0.02424707 0.01250000
v -0.00425130 0.02327386 0.01250000
v 0.01558253 0.02389195 0.01250000
v 0.01700155 0.02347756 0.01250000
v 0.01846522 0.02300265 0.01250000
v -0.00735294 0.02183735 0.01250000
v 0.01997873 0.02246599 0.01250000
v 0.02154731 0.02186633 0.01250000
v 0.02317615 0.02120243 0.01250000
v -0.01017979 0.02004370 0.01250000
v 0.00917648 0.01864125 0.01250000
v 0.01055004 0.01847364 0.01250000
v 0.01191689 0.01823682 0.01250000
v 0.01328177 0.01792957 0.01250000
v 0.01464937 0.01755065 0.01250000
v 0.01602441 0.01709880 0.01250000
v 0.01741160 0.01657281 0.01250000
v 0.01881566 0.01597141 0.01250000
v 0.02024129 0.01529338 0.01250000
v 0.02169322 0.01453747 0.01250000
v 0.02317615 0.01370243 0.01250000
v -0.01270777 0.01791672 0.01250000
v 0.00639044 0.01877386 0.01250000
v 0.00779152 0.01874091 0.01250000
v 0.00366739 0.01861166 0.01250000
v 0.00108224 0.01813696 0.01250000
v -0.00134616 0.01736761 0.01250000
v -0.01491284 0.01548021 0.01250000
v -0.00359897 0.01632148 0.01250000
v -0.00565734 0.01501642 0.01250000
v -0.01677093 0.01275799 0.01250000
v -0.00750241 0.01347029 0.01250000
v -0.00911534 0.01170094 0.01250000
v -0.01825800 0.00977386 0.01250000
v -0.01047728 0.00972624 0.01250000
v -0.01934997 0.00655164 0.01250000
v -0.01156938 0.00756404 0.01250000
v -0.01237279 0.00523219 0.01250000
v -0.02002280 0.00311513 0.01250000
v -0.01286865 0.00274856 0.01250000
v -0.02025242 -0.00051186 0.01250000
v -0.01303813 0.00013100 0.01250000
v -0.01287394 -0.00252876 0.01250000
v -0.02008443 -0.00313541 0.01250000
v -0.01239131 -0.00503401 0.01250000
v -0.01957517 -0.00585742 0.01250000
v -0.01160509 -0.00737011 0.01250000
v -0.01871670 -0.00861565 0.01250000
v -0.01053019 -0.00952244 0.01250000
v -0.01750109 -0.01134784 0.01250000
v -0.00918148 -0.01147635 0.01250000
v -0.01592041 -0.01399173 0.01250000
v -0.00757384 -0.01321721 0.01250000
v 0.02229132 -0.01372746 0.01250000
v 0.02367616 -0.02051186 0.01250000
v 0.02367616 -0.01286900 0.01250000
v -0.00572216 -0.01473040 0.01250000
v 0.02088912 -0.01451648 0.01250000
v -0.01396670 -0.01648507 0.01250000
v 0.01947303 -0.01523507 0.01250000
v -0.00364130 -0.01600127 0.01250000
v 0.01804653 -0.01588223 0.01250000
v 0.01661308 -0.01645696 0.01250000
v -0.00134617 -0.01701520 0.01250000
v 0.01517616 -0.01695828 0.01250000
v -0.01163205 -0.01876562 0.01250000
v 0.01373923 -0.01738520 0.01250000
v 0.00114838 -0.01775756 0.01250000
v 0.01230578 -0.01773672 0.01250000
v 0.01087928 -0.01801185 0.01250000
v 0.00382744 -0.01821370 0.01250000
v 0.00946319 -0.01820961 0.01250000
v 0.00806099 -0.01832898 0.01250000
v 0.00667615 -0.01836900 0.01250000
v -0.00890850 -0.02077112 0.01250000
v 0.02246964 -0.02112135 0.01250000
v -0.00578813 -0.02243932 0.01250000
v 0.02123833 -0.02169737 0.01250000
v 0.01997527 -0.02223619 0.01250000
v 0.01867351 -0.02273408 0.01250000
v -0.00226300 -0.02370796 0.01250000
v 0.01732612 -0.02318733 0.01250000
v 0.01592616 -0.02359221 0.01250000
v 0.01446666 -0.02394502 0.01250000
v 0.00167483 -0.02451480 0.01250000
v 0.01294070 -0.02424201 0.01250000
v 0.01134133 -0.02447949 0.01250000
v 0.00966160 -0.02465372 0.01250000
v 0.00603330 -0.02479757 0.01250000
v 0.00789457 -0.02476099 0.01250000
v 0.00268017 0.02498021 -0.01250000
v 0.00646187 0.02520243 -0.01250000
v 0.00771423 0.02517693 -0.01250000
v 0.00897477 0.02509959 -0.01250000
v 0.01024870 0.02496917 -0.01250000
v -0.00089891 0.02432941 -0.01250000
v 0.01154124 0.02478444 -0.01250000
v 0.01285758 0.02454415 -0.01250000
v 0.01420294 0.02424707 -0.01250000
v -0.00425130 0.02327386 -0.01250000
v 0.01558253 0.02389195 -0.01250000
v 0.01700155 0.02347756 -0.01250000
v 0.01846522 0.02300265 -0.01250000
v -0.00735294 0.02183735 -0.01250000
v 0.01997873 0.02246599 -0.01250000
v 0.02154731 0.02186633 -0.01250000
v 0.02317615 0.02120243 -0.01250000
v -0.01017979 0.02004370 -0.01250000
v 0.00917648 0.01864125 -0.01250000
v 0.01055004 0.01847364 -0.01250000
v 0.01191689 0.01823682 -0.01250000
v 0.01328177 0.01792957 -0.01250000
v 0.01464937 0.01755065 -0.01250000
v 0.01602441 0.01709880 -0.01250000
v 0.01741160 0.01657281 -0.01250000
v 0.01881566 0.01597141 -0.01250000
v 0.02024129 0.01529338 -0.01250000
v 0.02169322 0.01453747 -0.01250000
v 0.02317615 0.01370243 -0.01250000
v -0.01270777 0.01791672 -0.01250000
v 0.00639044 0.01877386 -0.01250000
v 0.00779152 0.01874091 -0.01250000
v 0.00366739 0.01861166 -0.01250000
v 0.00108224 0.01813696 -0.01250000
v -0.00134616 0.01736761 -0.01250000
v -0.01491284 0.01548021 -0.01250000
v -0.00359897 0.01632148 -0.01250000
v -0.00565734 0.01501642 -0.01250000
v -0.01677093 0.01275799 -0.01250000
v -0.00750241 0.01347029 -0.01250000
v -0.00911534 0.01170094 -0.01250000
v -0.01825800 0.00977386 -0.01250000
v -0.01047728 0.00972624 -0.01250000
v -0.01934997 0.00655164 -0.01250000
v -0.01156938 0.00756404 -0.01250000
v -0.01237279 0.00523219 -0.01250000
v -0.02002280 0.00311513 -0.01250000
v -0.01286865 0.00274856 -0.01250000
v -0.02025242 -0.00051186 -0.01250000
v -0.01303813 0.00013100 -0.01250000
v -0.01287394 -0.00252876 -0.01250000
v -0.02008443 -0.00313541 -0.01250000
v -0.01239131 -0.00503401 -0.01250000
v -0.01957517 -0.00585742 -0.01250000
v -0.01160509 -0.00737011 -0.01250000
v -0.01871670 -0.00861565 -0.01250000
v -0.01053019 -0.00952244 -0.01250000
v -0.01750109 -0.01134784 -0.01250000
v -0.00918148 -0.01147635 -0.01250000
v -0.01592041 -0.01399173 -0.01250000
v -0.00757384 -0.01321721 -0.01250000
v 0.02229132 -0.01372746 -0.01250000
v 0.02367616 -0.01286900 -0.01250000
v 0.02367616 -0.02051186 -0.01250000
v -0.00572216 -0.01473040 -0.01250000
v 0.02088912 -0.01451648 -0.01250000
v -0.01396670 -0.01648507 -0.01250000
v 0.01947303 -0.01523507 -0.01250000
v -0.00364130 -0.01600127 -0.01250000
v 0.01804653 -0.01588223 -0.01250000
v 0.01661308 -0.01645696 -0.01250000
v -0.00134617 -0.01701520 -0.01250000
v 0.01517616 -0.01695828 -0.01250000
v -0.01163205 -0.01876562 -0.01250000
v 0.01373923 -0.01738520 -0.01250000
v 0.00114838 -0.01775756 -0.01250000
v 0.01230578 -0.01773672 -0.01250000
v 0.01087928 -0.01801185 -0.01250000
v 0.00382744 -0.01821370 -0.01250000
v 0.00946319 -0.01820961 -0.01250000
v 0.00806099 -0.01832898 -0.01250000
v 0.00667615 -0.01836900 -0.01250000
v -0.00890850 -0.02077112 -0.01250000
v 0.02246964 -0.02112135 -0.01250000
v -0.00578813 -0.02243932 -0.01250000
v 0.02123833 -0.02169737 -0.01250000
v 0.01997527 -0.02223619 -0.01250000
v 0.01867351 -0.02273408 -0.01250000
v -0.00226300 -0.02370796 -0.01250000
v 0.01732612 -0.02318733 -0.01250000
v 0.01592616 -0.02359221 -0.01250000
v 0.01446666 -0.02394502 -0.01250000
v 0.00167483 -0.02451480 -0.01250000
v 0.01294070 -0.02424201 -0.01250000
v 0.01134133 -0.02447949 -0.01250000
v 0.00966160 -0.02465372 -0.01250000
v 0.00603330 -0.02479757 -0.01250000
v 0.00789457 -0.02476099 -0.01250000
f 1 2 3
f 1 4 2
f 1 5 4
f 6 5 1
f 6 7 5
f 6 8 7
f 6 9 8
f 10 9 6
f 10 11 9
f 10 12 11
f 10 13 12
f 14 13 10
f 14 15 13
f 14 16 15
f 14 17 16
f 18 17 14
f 18 19 17
f 19 20 17
f 20 21 17
f 21 22 17
f 22 23 17
f 23 24 17
f 24 25 17
f 25 26 17
f 26 27 17
f 27 28 17
f 28 29 17
f 30 31 18
f 31 32 18
f 32 19 18
f 30 33 31
f 30 34 33
f 30 35 34
f 36 35 30
f 36 37 35
f 36 38 37
f 39 38 36
f 39 40 38
f 39 41 40
f 42 41 39
f 42 43 41
f 44 43 42
f 44 45 43
f 44 46 45
f 47 46 44
f 47 48 46
f 49 48 47
f 49 50 48
f 49 51 50
f 52 51 49
f 52 53 51
f 54 53 52
f 54 55 53
f 56 55 54
f 56 57 55
f 58 57 56
f 58 59 57
f 60 59 58
f 60 61 59
f 62 63 64
f 60 65 61
f 66 63 62
f 67 65 60
f 68 63 66
f 67 69 65
f 70 63 68
f 71 63 70
f 67 72 69
f 73 63 71
f 74 72 67
f 75 63 73
f 74 76 72
f 77 63 75
f 78 63 77
f 74 79 76
f 80 63 78
f 81 63 80
f 74 82 79
f 82 63 81
f 74 63 82
f 83 63 74
f 83 84 63
f 85 84 83
f 85 86 84
f 85 87 86
f 85 88 87
f 89 88 85
f 89 90 88
f 89 91 90
f 89 92 91
f 93 92 89
f 93 94 92
f 93 95 94
f 93 96 95
f 97 96 93
f 97 98 96
f 99 100 101
f 99 101 102
f 99 102 103
f 104 99 103
f 104 103 105
f 104 105 106
f 104 106 107
f 108 104 107
f 108 107 109
f 108 109 110
f 108 110 111
f 112 108 111
f 112 111 113
f 112 113 114
f 112 114 115
f 116 112 115
f 116 115 117
f 117 115 118
f 118 115 119
f 119 115 120
f 120 115 121
f 121 115 122
f 122 115 123
f 123 115 124
f 124 115 125
f 125 115 126
f 126 115 127
f 128 116 129
f 129 116 130
f 130 116 117
f 128 129 131
f 128 131 132
f 128 132 133
f 134 128 133
f 134 133 135
f 134 135 136
f 137 134 136
f 137 136 138
f 137 138 139
f 140 137 139
f 140 139 141
f 142 140 141
f 142 141 143
f 142 143 144
f 145 142 144
f 145 144 146
f 147 145 146
f 147 146 148
f 147 148 149
f 150 147 149
f 150 149 151
f 152 150 151
f 152 151 153
f 154 152 153
f 154 153 155
f 156 154 155
f 156 155 157
f 158 156 157
f 158 157 159
f 160 161 162
f 158 159 163
f 164 160 162
f 165 158 163
f 166 164 162
f 165 163 167
f 168 166 162
f 169 168 162
f 165 167 170
f 171 169 162
f 172 165 170
f 173 171 162
f 172 170 174
f 175 173 162
f 176 175 162
f 172 174 177
f 178 176 162
f 179 178 162
f 172 177 180
f 180 179 162
f 172 180 162
f 181 172 162
f 181 162 182
f 183 181 182
f 183 182 184
f 183 184 185
f 183 185 186
f 187 183 186
f 187 186 188
f 187 188 189
f 187 189 190
f 191 187 190
f 191 190 192
f 191 192 193
f 191 193 194
f 195 191 194
f 195 194 196
f 1 3 100
f 1 100 99
f 3 2 101
f 3 101 100
f 2 4 102
f 2 102 101
f 4 5 103
f 4 103 102
f 6 1 99
f 6 99 104
f 5 7 105
f 5 105 103
f 7 8 106
f 7 106 105
f 8 9 107
f 8 107 106
f 10 6 104
f 10 104 108
f 9 11 109
f 9 109 107
f 11 12 110
f 11 110 109
f 12 13 111
f 12 111 110
f 14 10 108
f 14 108 112
f 13 15 113
f 13 113 111
f 15 16 114
f 15 114 113
f 16 17 115
f 16 115 114
f 18 14 112
f 18 112 116
f 20 19 117
f 20 117 118
f 21 20 118
f 21 118 119
f 22 21 119
f 22 119 120
f 23 22 120
f 23 120 121
f 24 23 121
f 24 121 122
f 25 24 122
f 25 122 123
f 26 25 123
f 26 123 124
f 27 26 124
f 27 124 125
f 28 27 125
f 28 125 126
f 29 28 126
f 29 126 127
f 17 29 127
f 17 127 115
f 30 18 116
f 30 116 128
f 32 31 129
f 32 129 130
f 19 32 130
f 19 130 117
f 31 33 131
f 31 131 129
f 33 34 132
f 33 132 131
f 34 35 133
f 34 133 132
f 36 30 128
f 36 128 134
f 35 37 135
f 35 135 133
f 37 38 136
f 37 136 135
f 39 36 134
f 39 134 137
f 38 40 138
f 38 138 136
f 40 41 139
f 40 139 138
f 42 39 137
f 42 137 140
f 41 43 141
f 41 141 139
f 44 42 140
f 44 140 142
f 43 45 143
f 43 143 141
f 45 46 144
f 45 144 143
f 47 44 142
f 47 142 145
f 46 48 146
f 46 146 144
f 49 47 145
f 49 145 147
f 48 50 148
f 48 148 146
f 50 51 149
f 50 149 148
f 52 49 147
f 52 147 150
f 51 53 151
f 51 151 149
f 54 52 150
f 54 150 152
f 53 55 153
f 53 153 151
f 56 54 152
f 56 152 154
f 55 57 155
f 55 155 153
f 58 56 154
f 58 154 156
f 57 59 157
f 57 157 155
f 60 58 156
f 60 156 158
f 59 61 159
f 59 159 157
f 62 64 161
f 62 161 160
f 64 63 162
f 64 162 161
f 61 65 163
f 61 163 159
f 66 62 160
f 66 160 164
f 67 60 158
f 67 158 165
f 68 66 164
f 68 164 166
f 65 69 167
f 65 167 163
f 70 68 166
f 70 166 168
f 71 70 168
f 71 168 169
f 69 72 170
f 69 170 167
f 73 71 169
f 73 169 171
f 74 67 165
f 74 165 172
f 75 73 171
f 75 171 173
f 72 76 174
f 72 174 170
f 77 75 173
f 77 173 175
f 78 77 175
f 78 175 176
f 76 79 177
f 76 177 174
f 80 78 176
f 80 176 178
f 81 80 178
f 81 178 179
f 79 82 180
f 79 180 177
f 82 81 179
f 82 179 180
f 83 74 172
f 83 172 181
f 63 84 182
f 63 182 162
f 85 83 181
f 85 181 183
f 84 86 184
f 84 184 182
f 86 87 185
f 86 185 184
f 87 88 186
f 87 186 185
f 89 85 183
f 89 183 187
f 88 90 188
f 88 188 186
f 90 91 189
f 90 189 188
f 91 92 190
f 91 190 189
f 93 89 187
f 93 187 191
f 92 94 192
f 92 192 190
f 94 95 193
f 94 193 192
f 95 96 194
f 95 194 193
f 97 93 191
f 97 191 195
f 98 97 195
f 98 195 196
f 96 98 196
f 96 196 194

