# https://github.com/mikedh/trimesh

o E.obj
v -0.01191616 -0.02491769 0.00293255
v -0.00473141 0.01863070 0.00293255
v -0.01191616 0.02508231 0.00293255
v 0.01645627 0.02508231 0.00293255
v 0.01645627 0.01863070 0.00293255
v -0.00473141 0.00352806 0.00293255
v -0.00473141 -0.00292356 0.00293255
v 0.01572314 0.00352806 0.00293255
v 0.01572314 -0.00292356 0.00293255
v -0.00473141 -0.01846608 0.00293255
v 0.01711610 -0.01846608 0.00293255
v 0.01711610 -0.02491769 0.00293255
v -0.01191616 -0.02491769 -0.00293255
v -0.01191616 0.02508231 -0.00293255
v -0.00473141 0.01863070 -0.00293255
v 0.01645627 0.02508231 -0.00293255
v 0.01645627 0.01863070 -0.00293255
v -0.00473141 0.00352806 -0.00293255
v -0.00473141 -0.00292356 -0.00293255
v 0.01572314 0.00352806 -0.00293255
v 0.01572314 -0.00292356 -0.00293255
v -0.00473141 -0.01846608 -0.00293255
v 0.01711610 -0.01846608 -0.00293255
v 0.01711610 -0.02491769 -0.00293255
f 1 2 3
f 2 4 3
f 2 5 4
f 1 6 2
f 1 7 6
f 7 8 6
f 7 9 8
f 1 10 7
f 1 11 10
f 1 12 11
f 13 14 15
f 15 14 16
f 15 16 17
f 13 15 18
f 13 18 19
f 19 18 20
f 19 20 21
f 13 19 22
f 13 22 23
f 13 23 24
f 1 3 14
f 1 14 13
f 3 4 16
f 3 16 14
f 5 2 15
f 5 15 17
f 4 5 17
f 4 17 16
f 2 6 18
f 2 18 15
f 6 8 20
f 6 20 18
f 9 7 19
f 9 19 21
f 8 9 21
f 8 21 20
f 7 10 22
f 7 22 19
f 10 11 23
f 10 23 22
f 12 1 13
f 12 13 24
f 11 12 24
f 11 24 23

