# https://github.com/mikedh/trimesh

o X.obj
v -0.00416484 0.00093646 0.00284091
v -0.01510234 0.02430294 0.00284091
v -0.02355404 0.02430294 0.00284091
v 0.00009652 0.00583703 0.00284091
v 0.02360505 0.02430294 0.00284091
v 0.01522437 0.02430294 0.00284091
v 0.00428687 0.00093646 0.00284091
v -0.02504552 -0.02413456 0.00284091
v 0.00009652 -0.00410615 0.00284091
v 0.02495448 -0.02413456 0.00284091
v -0.01659382 -0.02413456 0.00284091
v 0.01657380 -0.02413456 0.00284091
v -0.00416484 0.00093646 -0.00284091
v -0.02355404 0.02430294 -0.00284091
v -0.01510234 0.02430294 -0.00284091
v 0.00009652 0.00583703 -0.00284091
v 0.01522437 0.02430294 -0.00284091
v 0.02360505 0.02430294 -0.00284091
v 0.00428687 0.00093646 -0.00284091
v -0.02504552 -0.02413456 -0.00284091
v 0.00009652 -0.00410615 -0.00284091
v 0.02495448 -0.02413456 -0.00284091
v -0.01659382 -0.02413456 -0.00284091
v 0.01657380 -0.02413456 -0.00284091
f 1 2 3
f 1 4 2
f 4 5 6
f 4 7 5
f 1 7 4
f 8 7 1
f 8 9 7
f 9 10 7
f 8 11 9
f 12 10 9
f 13 14 15
f 13 15 16
f 16 17 18
f 16 18 19
f 13 16 19
f 20 13 19
f 20 19 21
f 21 19 22
f 20 21 23
f 24 21 22
f 1 3 14
f 1 14 13
f 3 2 15
f 3 15 14
f 2 4 16
f 2 16 15
f 4 6 17
f 4 17 16
f 6 5 18
f 6 18 17
f 5 7 19
f 5 19 18
f 8 1 13
f 8 13 20
f 7 10 22
f 7 22 19
f 11 8 20
f 11 20 23
f 9 11 23
f 9 23 21
f 12 9 21
f 12 21 24
f 10 12 24
f 10 24 22

