# https://github.com/mikedh/trimesh
v -0.02346382 -0.01605162 -0.00393036
v -0.02201345 -0.01859988 -0.00488640
v -0.02135336 -0.01577274 -0.00647801
v -0.02376237 -0.01593760 0.00055515
v -0.02201838 -0.01893732 -0.00167313
v -0.02378648 -0.01583413 0.00541804
v -0.02148427 -0.01880004 0.00384653
v -0.02330821 -0.01546373 0.00913140
v -0.02136815 -0.01797365 0.00890074
v -0.02119263 -0.01643827 0.01162664
v -0.02377099 -0.01141511 -0.00529881
v -0.02190149 -0.01104741 -0.00729163
v -0.02420620 -0.01178543 -0.00054441
v -0.02429134 -0.01168809 0.00429565
v -0.02389222 -0.01132812 0.00935475
v -0.02193696 -0.01296908 0.01185432
v -0.02364136 -0.00687402 -0.00911993
v -0.02091926 -0.00861267 -0.00955749
v -0.02229532 -0.00635225 -0.01258738
v -0.02412511 -0.00645765 -0.00452163
v -0.02407772 -0.00701009 -0.00040955
v -0.02413248 -0.00691766 0.00445096
v -0.02430595 -0.00680017 0.00931292
v -0.02230695 -0.00934285 0.01324561
v -0.02348957 -0.00636732 0.01345293
v -0.02077456 -0.00751084 0.01547234
v -0.02333151 -0.00283204 -0.01316443
v -0.02126252 -0.00491585 -0.01487415
v -0.02037486 -0.00178863 -0.01581017
v -0.02423426 -0.00170713 -0.00922194
v -0.02411383 -0.00230994 -0.00508887
v -0.02400379 -0.00220265 -0.00020413
v -0.02403908 -0.00212698 0.00469530
v -0.02424402 -0.00210306 0.00950916
v -0.02382038 -0.00202048 0.01360951
v -0.02095102 -0.00264812 0.01633980
v -0.02218950 0.00025358 -0.01384607
v -0.02181201 0.00371970 -0.01236317
v -0.02378821 0.00218665 -0.01000398
v -0.02418864 0.00256052 -0.00492266
v -0.02406257 0.00260942 -0.00004910
v -0.02411166 0.00264545 0.00477626
v -0.02423556 0.00195917 0.00888332
v -0.02368295 0.00283675 0.01275356
v -0.02148787 0.00229773 0.01555727
v -0.02335715 0.00694706 -0.00901410
v -0.02144680 0.00752955 -0.01126982
v -0.02426452 0.00733536 -0.00478300
v -0.02423942 0.00745442 0.00006709
v -0.02421635 0.00675010 0.00415145
v -0.02370721 0.00708801 0.00861295
v -0.02131384 0.00740717 0.01208274
v -0.02135172 0.00521836 0.01431030
v -0.02218761 0.01001277 -0.00885326
v -0.02189223 0.01214098 -0.00711383
v -0.02342764 0.01099098 -0.00552928
v -0.02377747 0.01162594 -0.00098172
v -0.02359356 0.01118781 0.00410519
v -0.02121229 0.01219028 0.00742898
v -0.02132995 0.00982618 0.00956146
v -0.02134027 0.01406969 -0.00448059
v -0.02201424 0.01454425 0.00115659
v -0.02129130 0.01446054 0.00470057
v -0.01966358 -0.02049739 -0.00467871
v -0.01586330 -0.02289388 -0.00522585
v -0.01756177 -0.02065924 -0.00762962
v -0.01965041 -0.02117616 0.00074301
v -0.01669228 -0.02302953 -0.00023258
v -0.01884662 -0.02074313 0.00482355
v -0.01661379 -0.02261797 0.00424404
v -0.01641185 -0.02134015 0.00727943
v -0.01878842 -0.01607628 -0.00889899
v -0.01718669 -0.01890104 -0.00960279
v -0.01716352 -0.01638861 -0.01201720
v -0.01759480 -0.01942712 0.00907803
v -0.01913633 -0.01495666 0.01408835
v -0.01791166 -0.01792097 0.01298559
v -0.01592923 -0.01635690 0.01546470
v -0.01866327 -0.01237581 -0.01328158
v -0.01716093 -0.01379105 -0.01448818
v -0.01694950 -0.01075613 -0.01633463
v -0.01919213 -0.01077194 -0.01014372
v -0.01963373 -0.01179620 -0.00413056
v -0.01696405 -0.01388181 -0.00623208
v -0.01713542 -0.01135843 -0.00804146
v -0.01629002 -0.01404749 -0.00084751
v -0.01911475 -0.01110768 0.00088891
v -0.01673764 -0.01327935 0.00428627
v -0.01866891 -0.01077202 0.00453555
v -0.01655472 -0.01177949 0.00696898
v -0.02020303 -0.01109401 0.01430553
v -0.01680821 -0.01219197 0.01637044
v -0.01980483 -0.00825957 -0.01376311
v -0.01784672 -0.00557088 -0.01679037
v -0.01769216 -0.00668459 -0.00765900
v -0.01971650 -0.00720035 -0.00496040
v -0.01961974 -0.00691719 -0.00014397
v -0.01922585 -0.00662531 0.00484540
v -0.01730544 -0.00832923 0.00727035
v -0.01773811 -0.00709844 0.01713482
v -0.01709377 -0.00136479 -0.01730327
v -0.01895215 -0.00205053 -0.00428528
v -0.01709277 -0.00104269 -0.00725205
v -0.01958208 -0.00201939 -0.00006646
v -0.01963578 -0.00265525 0.00404054
v -0.01766310 -0.00473101 0.00871209
v -0.01872348 -0.00156017 0.00806308
v -0.01585239 -0.00261735 0.01080594
v -0.01792224 -0.00405369 0.01826618
v -0.01860958 -0.00136601 0.01826480
v -0.01581035 -0.00252984 0.02002747
v -0.02014028 0.00197183 -0.01471640
v -0.01757803 0.00298937 -0.01664850
v -0.01873660 0.00241604 -0.00432614
v -0.01684931 0.00294792 -0.00667110
v -0.01963845 0.00208699 -0.00073835
v -0.01904591 0.00253059 0.00386358
v -0.01766886 0.00193040 0.00744323
v -0.01663555 0.00054408 0.00979119
v -0.01840970 0.00181983 0.01711039
v -0.01661376 0.00069707 0.01894016
v -0.01942584 0.00668995 -0.01389624
v -0.01635528 0.00853768 -0.01668791
v -0.01761285 0.00541911 -0.00420537
v -0.01869231 0.00610625 -0.00056216
v -0.01728133 0.00751996 -0.00247535
v -0.01651229 0.00766193 0.00270425
v -0.01692996 0.00461296 0.00525091
v -0.01962097 0.00715114 0.01386963
v -0.01703776 0.00674969 0.01622175
v -0.01838560 0.01101530 -0.01435157
v -0.01597741 0.01206910 -0.01571215
v -0.01991406 0.01160158 -0.01037825
v -0.01606649 0.00936836 -0.00082620
v -0.01953346 0.01181584 0.00913734
v -0.01710806 0.01180464 0.01148521
v -0.01714503 0.00949719 0.01377656
v -0.01707758 0.01339882 -0.01332298
v -0.01739664 0.01486466 -0.00926805
v -0.01896956 0.01637356 -0.00512111
v -0.01653514 0.01693421 -0.00748017
v -0.01967033 0.01673120 -0.00120554
v -0.01929541 0.01675977 0.00320171
v -0.01821528 0.01586282 0.00663658
v -0.01709681 0.01423935 0.00920159
v -0.01629286 0.01818542 -0.00409085
v -0.01660843 0.01839463 0.00099111
v -0.01592342 0.01815413 0.00548750
v -0.01533279 -0.02051462 -0.00986348
v -0.01188510 -0.02277326 -0.00869632
v -0.01249468 -0.02043527 -0.01188248
v -0.01197194 -0.02344501 -0.00430055
v -0.01247831 -0.02348689 -0.00020638
v -0.01241845 -0.02347893 0.00459030
v -0.01427222 -0.02069307 0.01010630
v -0.01313644 -0.02256498 0.00824418
v -0.01081445 -0.02099465 0.01150424
v -0.01484475 -0.01624976 -0.01436855
v -0.01106280 -0.01834170 -0.01425551
v -0.01255521 -0.01558294 -0.01665581
v -0.01400603 -0.01600715 0.00051108
v -0.01335628 -0.01598204 -0.00228931
v -0.01122226 -0.01779316 -0.00074917
v -0.01192658 -0.01670752 0.00258758
v -0.01346255 -0.01868126 0.01343817
v -0.01178195 -0.01588329 0.01641146
v -0.01432460 -0.01234464 -0.01833781
v -0.01118057 -0.01362201 -0.01910783
v -0.01248014 -0.01054534 -0.02057624
v -0.01206316 -0.01320828 -0.00909313
v -0.01469053 -0.01169308 -0.00887642
v -0.01231031 -0.01065010 -0.01094455
v -0.01223676 -0.01472249 -0.00550006
v -0.01302883 -0.01476750 0.00447256
v -0.01328676 -0.01326300 0.00832428
v -0.01450920 -0.01031234 0.00943801
v -0.01128921 -0.01169886 0.01080670
v -0.01263309 -0.01339414 0.01839340
v -0.01445907 -0.01026131 0.01869846
v -0.01130274 -0.01170989 0.02008576
v -0.01478891 -0.00784537 -0.01919314
v -0.01182235 -0.00678655 -0.02096514
v -0.01464319 -0.00809696 -0.00952264
v -0.01190587 -0.00643127 -0.01203748
v -0.01559852 -0.00648983 0.00972322
v -0.01223912 -0.00756477 0.01175268
v -0.01554912 -0.00648202 0.01898853
v -0.01238506 -0.00733976 0.02061622
v -0.01474595 -0.00312481 -0.01907119
v -0.01184356 -0.00197945 -0.02082670
v -0.01472775 -0.00329318 -0.00958704
v -0.01252888 -0.00101253 -0.01199672
v -0.01263800 -0.00289790 0.01235991
v -0.01188730 -0.00269048 0.02107646
v -0.01484914 0.00157185 -0.01898409
v -0.01203278 0.00278463 -0.02080875
v -0.01483332 0.00203074 -0.00921125
v -0.01192362 0.00376998 -0.01202585
v -0.01512498 0.00391096 0.00857148
v -0.01277503 0.00192129 0.01168939
v -0.01518519 0.00410498 0.01860096
v -0.01279649 0.00161222 0.02050992
v -0.01457962 0.00604630 -0.01902550
v -0.01111180 0.00769980 -0.02073634
v -0.01388938 0.00615650 -0.00971165
v -0.01141218 0.00812371 -0.01128805
v -0.01530888 0.00689933 -0.00572121
v -0.01514192 0.00659479 0.00549337
v -0.01372596 0.00724869 0.00829361
v -0.01184756 0.00703103 0.01087615
v -0.01435614 0.00708139 0.01859357
v -0.01157308 0.00684140 0.02028345
v -0.01307071 0.00942246 -0.01879013
v -0.01330561 0.01141238 -0.01711461
v -0.01253149 0.00933825 -0.00834005
v -0.01334862 0.01029947 -0.00401327
v -0.01387421 0.01171336 -0.00075209
v -0.01178808 0.01235339 -0.00286503
v -0.01365393 0.01127598 0.00190463
v -0.01295423 0.00971718 0.00554095
v -0.01165761 0.00971634 0.00940606
v -0.01465707 0.01189686 0.01379092
v -0.01232480 0.01209105 0.01624941
v -0.01245295 0.00984803 0.01866011
v -0.01283659 0.01434614 -0.01454238
v -0.01438328 0.01631030 -0.01019721
v -0.01227484 0.01657002 -0.01198313
v -0.01108980 0.01338006 0.00037897
v -0.01494591 0.01697844 0.00867175
v -0.01221253 0.01667726 0.01166853
v -0.01226151 0.01430824 0.01390700
v -0.01249545 0.01855038 -0.00923694
v -0.01250867 0.01955197 -0.00421358
v -0.01303740 0.01941723 -0.00010737
v -0.01293919 0.01950702 0.00468669
v -0.01228785 0.01904377 0.00886634
v -0.00671080 -0.02293011 -0.01002976
v -0.00912873 -0.02106522 -0.01227582
v -0.00792405 -0.02330879 -0.00500506
v -0.00774706 -0.02330313 -0.00020545
v -0.00756898 -0.02338124 0.00466767
v -0.00861421 -0.02285998 0.00885894
v -0.00639495 -0.02099210 0.01171987
v -0.00735063 -0.01930502 -0.01464992
v -0.00819681 -0.01672064 -0.01664270
v -0.01059721 -0.01666729 -0.00441195
v -0.00808152 -0.01601205 -0.00680572
v -0.00704613 -0.01807322 -0.00417549
v -0.00719662 -0.01887003 0.00041529
v -0.00863733 -0.01794262 0.00348311
v -0.00974455 -0.01604886 0.00542234
v -0.00622953 -0.01633827 0.00681030
v -0.00866051 -0.01859810 0.01403074
v -0.00642836 -0.01624672 0.01629220
v -0.00658800 -0.01400572 -0.01900827
v -0.00884114 -0.01101598 -0.02095164
v -0.00886970 -0.01099404 -0.01207010
v -0.00716953 -0.01402233 -0.00927570
v -0.00882452 -0.01402232 0.00877357
v -0.00714253 -0.01121910 0.01175571
v -0.00864625 -0.01403937 0.01874825
v -0.00758599 -0.01111837 0.02055778
v -0.00762722 -0.00688273 -0.02146602
v -0.00942607 -0.00732836 -0.01415480
v -0.00783466 -0.00597499 -0.01585246
v -0.00635311 -0.00920492 -0.01448526
v -0.00808255 -0.00869848 0.01375994
v -0.00997351 -0.00558169 0.01407809
v -0.00675646 -0.00703055 0.01546341
v -0.00767129 -0.00678704 0.02110550
v -0.00773957 -0.00207547 -0.02137320
v -0.01021058 -0.00327577 -0.01446146
v -0.00734933 -0.00217878 -0.01630911
v -0.01035411 -0.00103381 0.01400981
v -0.00733062 -0.00329535 0.01590877
v -0.00782889 -0.00196373 0.02101657
v -0.00794721 0.00272216 -0.02134043
v -0.01003254 0.00122586 -0.01438411
v -0.00646660 0.00292195 -0.01601324
v -0.00958964 0.00300449 0.01365455
v -0.00705680 0.00195895 0.01566459
v -0.00783179 0.00281940 0.02095506
v -0.00733694 0.00676036 -0.02142786
v -0.00868327 0.00468245 -0.01402111
v -0.00764064 0.00784046 -0.01273720
v -0.00723110 0.00546637 0.01430429
v -0.00826648 0.00716323 0.01241135
v -0.00714362 0.00692368 0.02101372
v -0.01055868 0.01180051 -0.01888195
v -0.00713072 0.01115108 -0.02080717
v -0.01004674 0.01133996 -0.00986131
v -0.00744101 0.01146847 -0.01132121
v -0.01035936 0.01203782 -0.00641653
v -0.01083990 0.01240103 0.00423101
v -0.00974307 0.01216434 0.00801332
v -0.00849512 0.01101569 0.01095848
v -0.01008178 0.01231345 0.01872617
v -0.00805011 0.01087903 0.02035163
v -0.00817760 0.01435644 -0.01809997
v -0.00994924 0.01660945 -0.01439455
v -0.00628565 0.01658004 -0.01653033
v -0.00769011 0.01337569 -0.00885885
v -0.00799049 0.01436016 -0.00440245
v -0.00791015 0.01501165 0.00052912
v -0.00752944 0.01442334 0.00528314
v -0.00661482 0.01349260 0.00938798
v -0.00980228 0.01671738 0.01399690
v -0.00840973 0.01593659 0.01574823
v -0.00700641 0.01408008 0.01846297
v -0.00840900 0.01893855 -0.01336263
v -0.00964213 0.02103557 -0.01013058
v -0.00661103 0.02137192 -0.01189396
v -0.01024600 0.02132981 -0.00613295
v -0.01015096 0.02125881 -0.00137056
v -0.01013518 0.02129956 0.00345201
v -0.00975282 0.02142098 0.00801978
v -0.00841347 0.02062609 0.01122558
v -0.00680854 0.01862040 0.01378923
v -0.00742785 0.02292970 -0.00845759
v -0.00734110 0.02314134 -0.00395618
v -0.00726816 0.02312775 0.00089816
v -0.00714794 0.02324814 0.00573782
v -0.00665386 0.02288255 0.00941682
v -0.00570153 -0.02138189 -0.01383442
v -0.00237031 -0.02275465 -0.01358624
v -0.00383538 -0.01991498 -0.01589599
v -0.00258287 -0.02338977 -0.00919681
v -0.00321626 -0.02323497 -0.00501975
v -0.00298744 -0.02321918 -0.00018335
v -0.00277908 -0.02328297 0.00463758
v -0.00386881 -0.02278909 0.00884174
v -0.00176048 -0.02095536 0.01164443
v -0.00301196 -0.01687677 -0.01717210
v -0.00413752 -0.01635218 -0.00755758
v -0.00187111 -0.01828978 -0.00459336
v -0.00298939 -0.01892764 -0.00025300
v -0.00412450 -0.01828199 0.00407776
v -0.00174349 -0.01634832 0.00710263
v -0.00403812 -0.01854689 0.01389382
v -0.00173829 -0.01620312 0.01618687
v -0.00177707 -0.01403001 -0.01893682
v -0.00404550 -0.01113550 -0.02081389
v -0.00409018 -0.01179109 -0.01208294
v -0.00193977 -0.01403537 -0.00979119
v -0.00401488 -0.01393478 0.00939844
v -0.00180158 -0.01158525 0.01174222
v -0.00389428 -0.01397367 0.01867127
v -0.00280400 -0.01107465 0.02049060
v -0.00282585 -0.00702959 -0.02137411
v -0.00414658 -0.00653747 -0.01630952
v -0.00186795 -0.00955358 -0.01439202
v -0.00404236 -0.00934054 0.01412036
v -0.00303505 -0.00644334 0.01599141
v -0.00287319 -0.00689242 0.02098752
v -0.00294394 -0.00224029 -0.02127152
v -0.00305223 -0.00222323 -0.01686771
v -0.00313437 -0.00217486 0.01654163
v -0.00303940 -0.00207807 0.02089728
v -0.00325800 0.00258299 -0.02129233
v -0.00235702 0.00199349 -0.01676670
v -0.00258957 0.00197282 0.01647621
v -0.00307543 0.00275437 0.02090061
v -0.00327817 0.00734114 -0.02145642
v -0.00595854 0.00681368 -0.01459666
v -0.00240573 0.00652021 -0.01590754
v -0.00512513 0.00822105 0.01367108
v -0.00345829 0.00604650 0.01565199
v -0.00313413 0.00752779 0.02099215
v -0.00202040 0.01151191 -0.02099794
v -0.00350035 0.00910178 -0.01392951
v -0.00261301 0.01154799 -0.01199301
v -0.00172996 0.00960544 0.01400444
v -0.00421183 0.01148279 0.01168928
v -0.00313211 0.01166095 0.02049581
v -0.00413897 0.01431634 -0.01916405
v -0.00189993 0.01656663 -0.01670525
v -0.00428042 0.01439014 -0.00907467
v -0.00487904 0.01641443 -0.00549922
v -0.00180442 0.01677562 -0.00726265
v -0.00564590 0.01674570 -0.00141105
v -0.00529391 0.01676080 0.00321331
v -0.00342062 0.01643672 0.00638009
v -0.00250803 0.01445252 0.00892776
v -0.00406566 0.01674092 0.01629790
v -0.00201594 0.01445674 0.01868695
v -0.00427426 0.01890207 -0.01441566
v -0.00217563 0.02132589 -0.01211779
v -0.00269662 0.01832332 -0.00362986
v -0.00262089 0.01863373 0.00100344
v -0.00207753 0.01814779 0.00473193
v -0.00396331 0.02149895 0.01168577
v -0.00173587 0.01902671 0.01393121
v -0.00328757 0.02318499 -0.00929396
v -0.00324209 0.02372101 -0.00513733
v -0.00313851 0.02372664 -0.00034671
v -0.00303666 0.02379444 0.00448922
v -0.00294645 0.02331237 0.00872885
v 0.00240037 -0.02271138 -0.01340423
v 0.00090551 -0.02013338 -0.01604364
v 0.00155208 -0.02349251 -0.00981540
v 0.00153347 -0.02333236 -0.00501228
v 0.00179477 -0.02324973 -0.00013937
v 0.00194115 -0.02331348 0.00465531
v 0.00082197 -0.02278615 0.00880683
v 0.00292806 -0.02097199 0.01169546
v 0.00103296 -0.01640751 -0.01728588
v 0.00023966 -0.01636483 -0.00725931
v 0.00264888 -0.01795349 -0.00391559
v 0.00192345 -0.01889280 -0.00020472
v 0.00074292 -0.01828151 0.00409436
v 0.00305729 -0.01636547 0.00714407
v 0.00057401 -0.01851944 0.01388063
v 0.00287357 -0.01619160 0.01629417
v 0.00289038 -0.01408108 -0.01891652
v 0.00078020 -0.01121864 -0.02075680
v 0.00117745 -0.01124886 -0.01205735
v 0.00282024 -0.01399072 -0.00908057
v 0.00071916 -0.01390853 0.00939440
v 0.00293302 -0.01157388 0.01176932
v 0.00079139 -0.01396965 0.01864749
v 0.00188607 -0.01116738 0.02050326
v 0.00197608 -0.00708790 -0.02132462
v 0.00109544 -0.00625977 -0.01602847
v 0.00214974 -0.00882627 -0.01403075
v 0.00072984 -0.00932556 0.01416723
v 0.00171620 -0.00642253 0.01601509
v 0.00182420 -0.00707367 0.02100501
v 0.00186085 -0.00231023 -0.02129379
v 0.00110348 -0.00167464 -0.01678374
v 0.00169492 -0.00219986 0.01657435
v 0.00169804 -0.00231577 0.02088137
v 0.00158825 0.00257636 -0.02140954
v 0.00175027 0.00248959 -0.01667177
v 0.00161773 0.00258082 0.01653830
v 0.00168418 0.00255027 0.02086537
v 0.00230574 0.00752830 -0.02113710
v 0.00262182 0.00676353 -0.01695564
v 0.00162905 0.00683976 0.01592711
v 0.00158932 0.00737042 0.02098526
v 0.00245337 0.01203273 -0.02092671
v 0.00120148 0.00971919 -0.01469908
v 0.00273083 0.01199703 -0.01189729
v 0.00273105 0.00977799 0.01405059
v 0.00054660 0.01212189 0.01168947
v 0.00153804 0.01149565 0.02051036
v 0.00063326 0.01437051 -0.01913869
v 0.00284360 0.01667075 -0.01666568
v 0.00042223 0.01439625 -0.00974675
v 0.00263192 0.01676356 -0.00747387
v 0.00286751 0.01439120 0.00938912
v 0.00060298 0.01679831 0.00710960
v 0.00048920 0.01662654 0.01623504
v 0.00261753 0.01433169 0.01868446
v 0.00039755 0.01892853 -0.01429279
v 0.00254255 0.02137082 -0.01205104
v 0.00157213 0.01867638 -0.00448405
v 0.00164868 0.01930659 -0.00013818
v 0.00171553 0.01868040 0.00416517
v 0.00076050 0.02139585 0.01161037
v 0.00289851 0.01890476 0.01390875
v 0.00145346 0.02313843 -0.00920329
v 0.00151934 0.02366007 -0.00507261
v 0.00165529 0.02365239 -0.00023455
v 0.00177077 0.02370740 0.00459581
v 0.00183044 0.02319459 0.00873542
v 0.00421873 -0.02049737 -0.01478623
v 0.00555359 -0.02141779 -0.01243124
v 0.00656547 -0.02271792 -0.00917249
v 0.00643393 -0.02340592 -0.00487761
v 0.00658397 -0.02336432 -0.00005901
v 0.00668787 -0.02337884 0.00471703
v 0.00557268 -0.02283239 0.00886653
v 0.00772056 -0.02101697 0.01180297
v 0.00766579 -0.01890049 -0.01368749
v 0.00569535 -0.01656245 -0.01669087
v 0.00365522 -0.01604929 -0.00578769
v 0.00589246 -0.01671686 -0.00296721
v 0.00618107 -0.01798091 0.00015368
v 0.00535717 -0.01800979 0.00417310
v 0.00639937 -0.01643264 0.00671914
v 0.00533910 -0.01854447 0.01400915
v 0.00756927 -0.01621885 0.01643026
v 0.00685971 -0.01340088 -0.01865338
v 0.00589871 -0.01087985 -0.02061727
v 0.00605123 -0.01103545 -0.01132127
v 0.00723150 -0.01323415 -0.00864150
v 0.00695822 -0.01478755 -0.00472881
v 0.00621811 -0.01395197 0.00861876
v 0.00615575 -0.01158277 0.01138678
v 0.00544983 -0.01400414 0.01877431
v 0.00650128 -0.01122447 0.02060762
v 0.00602404 -0.00649590 -0.02137028
v 0.00461282 -0.00652061 -0.01463720
v 0.00624216 -0.00746768 -0.01275592
v 0.00610441 -0.00935404 0.01336696
v 0.00592331 -0.00570860 0.01574717
v 0.00647181 -0.00712358 0.02109330
v 0.00655120 -0.00237246 -0.02143286
v 0.00516728 -0.00266295 -0.01587967
v 0.00736748 -0.00438240 -0.01394383
v 0.00675400 -0.00111281 0.01609357
v 0.00646598 -0.00243705 0.02095499
v 0.00700607 0.00309728 -0.02109626
v 0.00577985 0.00264318 -0.01660913
v 0.00577427 0.00322026 0.01657767
v 0.00649194 0.00232798 0.02098051
v 0.00608868 0.00484372 -0.01878316
v 0.00472713 0.00718920 -0.01912945
v 0.00616135 0.00671960 0.01565239
v 0.00638569 0.00719291 0.02107980
v 0.00543081 0.00967739 -0.01795969
v 0.00548211 0.01090639 -0.02044714
v 0.00641007 0.01044899 -0.01496510
v 0.00754258 0.01128053 -0.01191599
v 0.00677854 0.00900154 0.01374838
v 0.00593009 0.01158321 0.01169956
v 0.00626696 0.01149018 0.02055214
v 0.00520910 0.01413711 -0.01918243
v 0.00760321 0.01608104 -0.01674788
v 0.00576513 0.01439822 -0.00919485
v 0.00667820 0.01648842 -0.00668461
v 0.00773712 0.01436889 0.00860828
v 0.00515301 0.01678131 0.00678201
v 0.00515234 0.01658358 0.01629712
v 0.00736226 0.01437623 0.01875019
v 0.00509521 0.01906986 -0.01435473
v 0.00721365 0.02143780 -0.01214132
v 0.00606591 0.01838315 -0.00446064
v 0.00577047 0.01931378 -0.00092893
v 0.00682755 0.01855105 0.00310184
v 0.00543392 0.02133054 0.01173307
v 0.00753170 0.01895920 0.01401408
v 0.00619268 0.02319363 -0.00920664
v 0.00630080 0.02367877 -0.00495374
v 0.00642603 0.02361760 -0.00006671
v 0.00652434 0.02365091 0.00475862
v 0.00655051 0.02315204 0.00890523
v 0.00828931 -0.02068719 -0.01032576
v 0.01048487 -0.02129181 -0.00750614
v 0.01071978 -0.02253005 -0.00446179
v 0.01077662 -0.02285861 -0.00002976
v 0.01086052 -0.02286576 0.00472989
v 0.01004056 -0.02259371 0.00894979
v 0.01101047 -0.02106508 0.01140070
v 0.01187832 -0.01784101 -0.01327366
v 0.01075762 -0.01562724 -0.01595156
v 0.01155913 -0.01937093 -0.00928331
v 0.00839928 -0.01611874 -0.00048061
v 0.00865335 -0.01616929 0.00399571
v 0.01083901 -0.01860414 0.01327061
v 0.01080992 -0.01624242 0.01604983
v 0.00931102 -0.01107811 -0.01932115
v 0.01094639 -0.01206105 -0.01741195
v 0.00917094 -0.01100979 -0.01013927
v 0.01051968 -0.01212365 -0.00767732
v 0.01060159 -0.01333395 -0.00458976
v 0.01090984 -0.01411180 0.00035684
v 0.01059058 -0.01347981 0.00545866
v 0.00893857 -0.01164525 0.00942006
v 0.01138574 -0.01170944 0.00693168
v 0.01076254 -0.01401473 0.01803315
v 0.01058187 -0.01039863 0.02040163
v 0.01202217 -0.00898761 -0.01869694
v 0.00990264 -0.00737318 -0.02066685
v 0.01010513 -0.00770666 -0.01124316
v 0.01159974 -0.00966856 -0.00899979
v 0.01125498 -0.00939021 0.00929605
v 0.00876625 -0.00701223 0.01351026
v 0.01106556 -0.00554184 0.01137687
v 0.01140380 -0.00589907 0.02064395
v 0.01063682 -0.00237112 -0.02091956
v 0.00870588 -0.00093105 -0.01416215
v 0.01109769 -0.00276687 -0.01198570
v 0.00905729 -0.00364286 0.01414510
v 0.01105825 -0.00261148 0.01206931
v 0.01058677 -0.00179740 0.02107276
v 0.01112600 0.00180992 -0.02084279
v 0.00876948 0.00364706 -0.01489972
v 0.01126647 0.00180782 -0.01256795
v 0.01144684 -0.00044747 0.01337101
v 0.00987896 0.00286366 0.01554946
v 0.01122782 0.00236481 0.02110074
v 0.00868637 0.00616947 -0.01845605
v 0.01082983 0.00596474 -0.02036828
v 0.00894526 0.00828949 -0.01495545
v 0.01136068 0.00662283 -0.01194842
v 0.00927202 0.00648890 0.01448260
v 0.01138072 0.00473221 0.01416801
v 0.01083654 0.00802232 0.01218923
v 0.01105812 0.00772485 0.02060852
v 0.00778709 0.01234177 -0.01826974
v 0.01071125 0.00877494 -0.01836220
v 0.01093457 0.01142165 -0.01689438
v 0.01107137 0.01103228 -0.01094462
v 0.01019467 0.01200603 0.01064831
v 0.00999310 0.01205961 0.02008218
v 0.01176095 0.01571817 -0.01590840
v 0.00999175 0.01342575 -0.00966516
v 0.00917945 0.01723118 -0.00427036
v 0.01136328 0.01450540 -0.00545768
v 0.01200477 0.01659539 -0.00220882
v 0.00861253 0.01647176 0.00527305
v 0.01061641 0.01476187 0.00552289
v 0.01104925 0.01654439 0.00270783
v 0.01124262 0.01335103 0.00820874
v 0.01059456 0.01622761 0.01639286
v 0.01138083 0.01370859 0.01841024
v 0.01062124 0.01869480 -0.01381563
v 0.01118574 0.02111020 -0.01148541
v 0.00988797 0.01831185 -0.00070656
v 0.00976815 0.02138642 0.01147617
v 0.01228469 0.01907294 0.01326380
v 0.01059498 0.02295684 -0.00925747
v 0.01104816 0.02378137 -0.00491869
v 0.01121891 0.02374009 0.00003655
v 0.01055282 0.02367044 0.00414328
v 0.01146302 0.02298221 0.00805245
v 0.01291351 -0.02067769 -0.00507993
v 0.01362602 -0.02099216 -0.00109097
v 0.01371544 -0.02104977 0.00359867
v 0.01324128 -0.02080311 0.00869569
v 0.01384581 -0.01560665 -0.01480009
v 0.01517772 -0.01677208 -0.01233967
v 0.01519181 -0.01794892 -0.00922082
v 0.01536504 -0.01867501 -0.00425592
v 0.01589545 -0.01863834 0.00102251
v 0.01597530 -0.01863232 0.00566847
v 0.01517360 -0.01807663 0.01009494
v 0.01358192 -0.01630379 0.01406285
v 0.01600213 -0.01633064 0.01154166
v 0.01631369 -0.01431806 -0.01366838
v 0.01480427 -0.01232598 -0.01590739
v 0.01273267 -0.01059728 -0.00570813
v 0.01363839 -0.01110064 -0.00135182
v 0.01326189 -0.01157532 0.00385943
v 0.01590549 -0.01402650 0.01395112
v 0.01342123 -0.01166464 0.01817901
v 0.01572310 -0.01020284 0.01603948
v 0.01333685 -0.00560628 -0.01899456
v 0.01522152 -0.00799333 -0.01664006
v 0.01280041 -0.00651037 -0.00904278
v 0.01423231 -0.00669697 -0.00543507
v 0.01562769 -0.00781573 -0.00219529
v 0.01604488 -0.00930716 0.00118245
v 0.01520483 -0.00898789 0.00533131
v 0.01353400 -0.00700102 0.00851148
v 0.01602228 -0.00572277 0.00651935
v 0.01367573 -0.00828875 0.01878404
v 0.01567822 -0.00724888 0.01670064
v 0.01353375 -0.00115274 -0.01903927
v 0.01633292 -0.00259905 -0.01663717
v 0.01415066 -0.00230790 -0.00952226
v 0.01555751 -0.00288176 -0.00721371
v 0.01613823 -0.00505310 -0.00439898
v 0.01352708 -0.00314178 0.00971959
v 0.01634181 -0.00191666 0.00767847
v 0.01606608 -0.00506257 0.01795780
v 0.01499535 -0.00167101 0.02038477
v 0.01352342 0.00373614 -0.01909858
v 0.01587701 0.00184051 -0.01731699
v 0.01455538 0.00206204 -0.01120595
v 0.01627493 -0.00013207 -0.00930352
v 0.01513789 0.00036654 0.01052951
v 0.01320883 0.00309095 0.01295283
v 0.01567813 0.00307053 0.01087272
v 0.01477833 0.00319911 0.02024352
v 0.01283081 0.00784593 -0.01876934
v 0.01589750 0.00687307 -0.01722149
v 0.01530072 0.00516614 -0.01013526
v 0.01379929 0.00867298 -0.00890908
v 0.01636850 0.00650213 -0.00772971
v 0.01411811 0.00687759 0.00969758
v 0.01627760 0.00515424 0.00888683
v 0.01562076 0.00791274 0.00677551
v 0.01654936 0.00436982 0.01836772
v 0.01413601 0.00683062 0.01897958
v 0.01639819 0.00741037 0.01717399
v 0.01606978 0.01154494 -0.01602631
v 0.01246082 0.01209368 -0.00861682
v 0.01567221 0.00925356 -0.00547618
v 0.01391615 0.01138070 -0.00577276
v 0.01571669 0.01178887 -0.00292495
v 0.01364840 0.01220220 0.00509562
v 0.01633536 0.01008740 0.00399037
v 0.01575253 0.01282873 0.00187092
v 0.01259367 0.01090588 0.00933633
v 0.01315025 0.01056644 0.01869913
v 0.01560136 0.01254575 0.01637268
v 0.01620339 0.01434581 -0.01382921
v 0.01316249 0.01680571 -0.01438473
v 0.01568853 0.01665556 -0.01189911
v 0.01344628 0.01577014 0.00062508
v 0.01496560 0.01427580 -0.00091943
v 0.01477872 0.01676565 0.01532589
v 0.01575516 0.01893134 -0.00958785
v 0.01362082 0.02170914 -0.00907607
v 0.01644766 0.02104013 -0.00689580
v 0.01313470 0.02103143 0.00999032
v 0.01623116 0.02113238 0.00756790
v 0.01583030 0.01903967 0.00977900
v 0.01579507 0.01802751 0.01289435
v 0.01532483 0.02311234 -0.00509261
v 0.01602337 0.02388874 0.00007336
v 0.01561671 0.02331445 0.00485051
v 0.01742626 -0.01528367 -0.01037846
v 0.01817760 -0.01572712 -0.00602442
v 0.01817084 -0.01634912 -0.00129835
v 0.01824887 -0.01630406 0.00327493
v 0.01784092 -0.01610765 0.00841465
v 0.01745934 -0.01120708 -0.01367376
v 0.01891572 -0.01137545 -0.01008391
v 0.02020148 -0.01250312 -0.00691975
v 0.02048020 -0.01387647 -0.00350052
v 0.02056965 -0.01405969 0.00083935
v 0.02066478 -0.01404853 0.00546944
v 0.01983388 -0.01353752 0.00995854
v 0.01819507 -0.01164824 0.01318297
v 0.02063607 -0.01028476 0.01117797
v 0.01816898 -0.00626463 -0.01384281
v 0.02011639 -0.00721580 -0.01130044
v 0.02079633 -0.00970026 -0.00896690
v 0.01761950 -0.00573680 -0.00050957
v 0.01742217 -0.00718533 0.00346971
v 0.01814184 -0.00776387 0.01431422
v 0.02091532 -0.00651292 0.01221816
v 0.01885478 -0.00172169 -0.01466790
v 0.02043931 -0.00349969 -0.01232951
v 0.01767932 -0.00144597 -0.00496943
v 0.01836981 -0.00161538 0.00046725
v 0.01794385 -0.00280652 0.00452889
v 0.01977643 -0.00416912 0.01502949
v 0.01835342 -0.00223296 0.01806774
v 0.02067899 -0.00078625 0.01614295
v 0.02087107 -0.00014225 -0.01381980
v 0.01918451 0.00227193 -0.01601807
v 0.01745094 0.00293468 -0.00848670
v 0.01842019 0.00320311 -0.00445582
v 0.01839355 0.00252140 -0.00021873
v 0.01836221 0.00180227 0.00405675
v 0.01739227 0.00202678 0.00807648
v 0.01804870 0.00097885 0.01876106
v 0.01990260 0.00357862 0.01644388
v 0.02013879 0.00690959 -0.01601632
v 0.01772048 0.00748500 -0.00440642
v 0.01842127 0.00663889 -0.00080403
v 0.01770279 0.00646913 0.00452994
v 0.01949087 0.00794133 0.01558539
v 0.02003953 0.00981727 -0.01480684
v 0.01822258 0.01192139 -0.01436366
v 0.02040614 0.01149325 -0.01254420
v 0.01745595 0.01070814 0.00046300
v 0.01879245 0.01208591 0.01376480
v 0.02023110 0.01253054 0.01129879
v 0.02088753 0.00975891 0.01340498
v 0.01956658 0.01438115 -0.01028337
v 0.01830190 0.01646671 -0.00940948
v 0.02040866 0.01618432 -0.00763824
v 0.01840922 0.01590294 0.01061969
v 0.01995149 0.01818132 0.00713590
v 0.02085913 0.01468780 0.00853036
v 0.01718705 0.01563297 0.01398775
v 0.01955357 0.01921830 -0.00561044
v 0.01862521 0.02174652 -0.00408520
v 0.02110971 0.02082565 -0.00261428
v 0.01984924 0.02151601 0.00610609
v 0.01969167 0.02310626 -0.00073488
v 0.02034484 0.02311608 0.00349898
v 0.02205020 -0.01036847 -0.00511044
v 0.02226444 -0.01119990 -0.00024654
v 0.02237844 -0.01119001 0.00444662
v 0.02201465 -0.01169303 0.00814299
v 0.02201711 -0.00625029 -0.00869710
v 0.02274563 -0.00703492 -0.00488689
v 0.02323868 -0.00689103 -0.00139880
v 0.02331408 -0.00707696 0.00411310
v 0.02247477 -0.00742096 0.00916341
v 0.02227132 -0.00137734 -0.01063494
v 0.02339014 -0.00246368 -0.00586277
v 0.02487588 -0.00293217 -0.00228829
v 0.02520653 -0.00446375 0.00126713
v 0.02488557 -0.00407169 0.00504151
v 0.02334144 -0.00252398 0.00916023
v 0.02522940 -0.00093027 0.00681885
v 0.02210663 -0.00299290 0.01289162
v 0.02226332 0.00313563 -0.01359829
v 0.02326426 0.00271961 -0.00873768
v 0.02483185 0.00192223 -0.00651974
v 0.02556728 -0.00008385 -0.00444979
v 0.02330896 0.00301880 0.00947628
v 0.02482934 0.00280905 0.00643163
v 0.02238502 0.00137575 0.01354523
v 0.02231398 0.00781535 -0.01343351
v 0.02296180 0.00699396 -0.00985136
v 0.02475771 0.00426274 -0.00553053
v 0.02319059 0.00719815 -0.00466283
v 0.02515310 0.00496250 -0.00144256
v 0.02319768 0.00792076 0.00086077
v 0.02517854 0.00458063 0.00324559
v 0.02316336 0.00711565 0.00583041
v 0.02277938 0.00728617 0.00941822
v 0.02215454 0.00642027 0.01317005
v 0.02238873 0.01190639 -0.00914426
v 0.02292200 0.01185838 -0.00503321
v 0.02273616 0.01205395 -0.00029042
v 0.02265239 0.01138917 0.00385511
v 0.02218313 0.01112230 0.00906911
v 0.02242163 0.01688349 -0.00426748
v 0.02307069 0.01679550 -0.00007868
v 0.02245160 0.01559068 0.00470381
v 0.02243637 0.02102355 0.00038393
v 0.02238387 0.02019312 0.00416776
v 0.02700520 -0.00080175 -0.00040942
v 0.02666920 -0.00240308 0.00363300
v 0.02652382 0.00240548 -0.00371668
v 0.02706871 0.00255151 0.00049516
v 0.02686484 0.00098570 0.00407896
f 3 2 1
f 5 4 1
f 5 1 2
f 7 6 4
f 7 4 5
f 9 8 6
f 9 6 7
f 10 8 9
f 3 1 11
f 3 11 12
f 13 1 4
f 11 1 13
f 14 4 6
f 13 4 14
f 15 6 8
f 14 6 15
f 8 10 16
f 8 16 15
f 19 18 17
f 17 18 12
f 11 17 12
f 20 17 11
f 21 11 13
f 20 11 21
f 22 13 14
f 21 13 22
f 23 14 15
f 22 14 23
f 15 16 24
f 25 15 24
f 23 15 25
f 26 25 24
f 29 28 27
f 27 28 19
f 17 27 19
f 30 27 17
f 31 17 20
f 30 17 31
f 32 20 21
f 31 20 32
f 33 21 22
f 32 21 33
f 34 22 23
f 33 22 34
f 35 23 25
f 34 23 35
f 25 26 36
f 25 36 35
f 37 29 27
f 39 38 37
f 27 39 37
f 30 39 27
f 40 30 31
f 39 30 40
f 41 31 32
f 40 31 41
f 42 32 33
f 41 32 42
f 43 33 34
f 42 33 43
f 44 34 35
f 43 34 44
f 35 36 45
f 35 45 44
f 38 39 46
f 38 46 47
f 48 39 40
f 46 39 48
f 49 40 41
f 48 40 49
f 50 41 42
f 49 41 50
f 51 42 43
f 50 42 51
f 44 53 52
f 51 44 52
f 43 44 51
f 53 44 45
f 54 47 46
f 56 55 54
f 46 56 54
f 48 56 46
f 57 48 49
f 56 48 57
f 58 49 50
f 57 49 58
f 51 60 59
f 58 51 59
f 50 51 58
f 60 51 52
f 61 55 56
f 61 56 57
f 61 57 62
f 62 57 58
f 62 58 63
f 63 58 59
f 66 65 64
f 68 67 64
f 68 64 65
f 70 69 67
f 70 67 68
f 71 69 70
f 74 73 72
f 72 73 66
f 72 66 64
f 3 72 64
f 2 3 64
f 2 64 5
f 5 64 67
f 5 67 7
f 7 67 69
f 71 75 69
f 75 7 69
f 75 9 7
f 77 76 10
f 9 77 10
f 75 77 9
f 78 76 77
f 81 80 79
f 79 80 74
f 72 79 74
f 82 79 72
f 12 83 3
f 84 3 83
f 3 84 72
f 85 72 84
f 72 85 82
f 87 86 83
f 83 86 84
f 89 88 87
f 87 88 86
f 89 90 88
f 91 16 76
f 76 16 10
f 76 78 92
f 76 92 91
f 81 79 93
f 81 93 94
f 19 93 18
f 93 82 18
f 93 79 82
f 95 82 85
f 82 95 18
f 96 18 95
f 18 96 12
f 83 12 96
f 83 97 87
f 83 96 97
f 87 98 89
f 87 97 98
f 90 89 99
f 99 89 98
f 91 24 16
f 26 24 91
f 92 26 91
f 100 26 92
f 94 93 28
f 29 94 28
f 101 94 29
f 28 93 19
f 96 95 102
f 102 95 103
f 96 104 97
f 96 102 104
f 97 105 98
f 97 104 105
f 99 98 106
f 98 107 106
f 98 105 107
f 107 108 106
f 110 36 109
f 36 100 109
f 36 26 100
f 111 110 109
f 29 37 112
f 113 29 112
f 101 29 113
f 38 112 37
f 102 103 114
f 114 103 115
f 102 116 104
f 102 114 116
f 104 117 105
f 104 116 117
f 119 107 118
f 107 117 118
f 107 105 117
f 107 119 108
f 121 120 110
f 120 36 110
f 120 45 36
f 121 110 111
f 113 112 122
f 113 122 123
f 47 122 38
f 38 122 112
f 115 124 114
f 126 125 124
f 125 114 124
f 125 116 114
f 128 117 127
f 117 125 127
f 117 116 125
f 117 128 118
f 129 52 53
f 130 129 53
f 45 130 53
f 120 130 45
f 123 122 131
f 123 131 132
f 54 133 47
f 133 122 47
f 133 131 122
f 55 133 54
f 126 134 125
f 125 134 127
f 135 59 60
f 136 135 60
f 136 60 52
f 137 136 52
f 129 137 52
f 137 129 130
f 138 132 131
f 138 131 133
f 138 133 139
f 141 139 140
f 140 139 61
f 139 133 61
f 133 55 61
f 62 142 61
f 61 142 140
f 63 143 62
f 62 143 142
f 144 143 63
f 144 63 59
f 145 144 59
f 135 145 59
f 145 135 136
f 146 141 140
f 146 140 142
f 146 142 147
f 147 142 143
f 147 143 148
f 148 143 144
f 151 150 149
f 65 66 149
f 150 65 149
f 152 65 150
f 65 153 68
f 152 153 65
f 68 154 70
f 153 154 68
f 156 155 71
f 70 156 71
f 154 156 70
f 157 155 156
f 160 159 158
f 158 159 151
f 158 151 149
f 74 158 149
f 73 74 149
f 73 149 66
f 163 162 161
f 161 164 163
f 155 75 71
f 157 165 155
f 165 75 155
f 165 77 75
f 78 77 165
f 78 165 166
f 169 168 167
f 167 168 160
f 167 160 158
f 81 167 158
f 80 81 158
f 80 158 74
f 172 171 170
f 85 84 171
f 84 170 171
f 84 173 170
f 86 161 162
f 173 86 162
f 84 86 173
f 174 164 161
f 86 174 161
f 88 174 86
f 176 175 90
f 175 88 90
f 175 174 88
f 176 177 175
f 179 92 178
f 92 166 178
f 92 78 166
f 180 179 178
f 169 167 181
f 169 181 182
f 94 181 81
f 81 181 167
f 171 172 183
f 183 172 184
f 183 95 85
f 183 85 171
f 99 185 176
f 99 176 90
f 177 176 186
f 186 176 185
f 187 100 179
f 179 100 92
f 179 180 188
f 179 188 187
f 182 181 189
f 182 189 190
f 101 189 94
f 94 189 181
f 183 184 191
f 191 184 192
f 191 103 95
f 191 95 183
f 106 185 99
f 106 108 185
f 108 186 185
f 108 193 186
f 187 109 100
f 111 109 187
f 188 111 187
f 194 111 188
f 190 189 195
f 190 195 196
f 113 195 101
f 101 195 189
f 191 192 197
f 197 192 198
f 197 115 103
f 197 103 191
f 118 199 119
f 199 200 119
f 200 108 119
f 200 193 108
f 201 120 121
f 202 201 121
f 111 202 121
f 194 202 111
f 196 195 203
f 196 203 204
f 123 203 113
f 113 203 195
f 197 198 205
f 205 198 206
f 207 124 115
f 197 207 115
f 205 207 197
f 207 126 124
f 127 208 128
f 199 118 128
f 208 199 128
f 209 199 208
f 200 199 210
f 210 199 209
f 211 130 201
f 201 130 120
f 201 202 212
f 201 212 211
f 213 204 203
f 203 123 213
f 123 214 213
f 123 132 214
f 206 215 205
f 205 215 207
f 207 215 216
f 216 218 217
f 216 217 134
f 207 216 134
f 126 207 134
f 217 219 134
f 134 219 127
f 219 220 127
f 220 208 127
f 208 220 209
f 209 220 221
f 222 136 137
f 221 210 209
f 223 222 137
f 223 137 130
f 224 223 130
f 211 224 130
f 224 211 212
f 225 214 132
f 225 132 138
f 227 225 226
f 225 139 226
f 225 138 139
f 141 226 139
f 218 228 217
f 217 228 219
f 229 144 145
f 230 229 145
f 230 145 136
f 231 230 136
f 222 231 136
f 231 222 223
f 232 227 226
f 232 226 141
f 146 232 141
f 233 232 146
f 234 146 147
f 234 233 146
f 235 147 148
f 235 234 147
f 148 144 229
f 236 148 229
f 235 148 236
f 236 229 230
f 238 237 150
f 238 150 151
f 150 239 152
f 237 239 150
f 152 240 153
f 239 240 152
f 153 241 154
f 240 241 153
f 154 242 156
f 241 242 154
f 157 156 242
f 157 242 243
f 245 244 159
f 245 159 160
f 151 159 238
f 238 159 244
f 248 247 246
f 162 163 246
f 163 248 246
f 163 249 248
f 251 250 164
f 250 163 164
f 250 249 163
f 251 252 250
f 243 253 157
f 157 253 165
f 166 165 253
f 166 253 254
f 256 255 168
f 256 168 169
f 160 168 245
f 245 168 255
f 258 257 170
f 170 257 172
f 173 246 247
f 258 173 247
f 170 173 258
f 246 173 162
f 174 251 164
f 259 252 251
f 174 259 251
f 175 259 174
f 175 177 259
f 259 177 260
f 254 261 166
f 166 261 178
f 180 178 261
f 180 261 262
f 182 256 169
f 182 263 256
f 266 265 264
f 257 266 264
f 184 257 264
f 172 257 184
f 186 268 267
f 260 186 267
f 177 186 260
f 268 269 267
f 262 188 180
f 270 188 262
f 190 263 182
f 190 271 263
f 264 265 272
f 272 265 273
f 272 192 184
f 272 184 264
f 193 274 268
f 193 268 186
f 269 268 275
f 275 268 274
f 270 194 188
f 276 194 270
f 196 271 190
f 196 277 271
f 272 273 278
f 278 273 279
f 278 198 192
f 278 192 272
f 200 280 274
f 200 274 193
f 275 274 281
f 281 274 280
f 276 202 194
f 282 202 276
f 204 277 196
f 204 283 277
f 279 284 278
f 198 278 284
f 285 198 284
f 206 198 285
f 287 286 280
f 200 287 280
f 210 287 200
f 280 286 281
f 282 212 202
f 288 212 282
f 204 213 289
f 290 204 289
f 283 204 290
f 214 289 213
f 215 206 291
f 206 292 291
f 206 285 292
f 293 216 215
f 293 215 291
f 293 218 216
f 219 294 220
f 295 221 220
f 295 220 294
f 295 296 221
f 296 210 221
f 296 287 210
f 297 223 224
f 298 297 224
f 212 298 224
f 288 298 212
f 299 290 289
f 301 299 300
f 300 299 225
f 299 289 225
f 289 214 225
f 292 302 291
f 300 225 227
f 291 302 293
f 293 302 303
f 293 303 218
f 303 228 218
f 303 304 228
f 219 228 294
f 228 305 294
f 228 304 305
f 294 305 295
f 295 305 306
f 307 230 231
f 306 296 295
f 308 307 231
f 308 231 223
f 309 308 223
f 297 309 223
f 309 297 298
f 310 301 300
f 312 310 311
f 311 310 232
f 310 300 232
f 300 227 232
f 233 313 232
f 232 313 311
f 234 314 233
f 233 314 313
f 235 315 234
f 234 315 314
f 236 316 235
f 235 316 315
f 317 316 236
f 317 236 230
f 318 317 230
f 307 318 230
f 318 307 308
f 319 312 311
f 319 311 313
f 319 313 320
f 320 313 314
f 320 314 321
f 321 314 315
f 321 315 322
f 322 315 316
f 322 316 323
f 323 316 317
f 326 325 324
f 237 238 324
f 325 237 324
f 327 237 325
f 237 328 239
f 327 328 237
f 239 329 240
f 328 329 239
f 240 330 241
f 329 330 240
f 241 331 242
f 330 331 241
f 243 242 331
f 243 331 332
f 326 324 244
f 245 326 244
f 333 326 245
f 244 324 238
f 335 334 248
f 248 334 247
f 336 248 249
f 336 335 248
f 337 249 250
f 337 336 249
f 250 252 337
f 337 252 338
f 332 339 243
f 243 339 253
f 254 253 339
f 254 339 340
f 342 341 255
f 342 255 256
f 245 255 333
f 333 255 341
f 344 343 258
f 258 343 257
f 258 247 334
f 258 334 344
f 345 338 252
f 345 252 259
f 259 260 345
f 345 260 346
f 340 347 254
f 254 347 261
f 262 261 347
f 262 347 348
f 263 342 256
f 263 349 342
f 351 350 266
f 266 350 265
f 266 257 343
f 266 343 351
f 352 346 260
f 352 260 267
f 267 269 352
f 352 269 353
f 348 270 262
f 354 270 348
f 271 349 263
f 271 355 349
f 350 273 265
f 356 273 350
f 275 353 269
f 275 357 353
f 354 276 270
f 358 276 354
f 277 355 271
f 277 359 355
f 356 279 273
f 360 279 356
f 281 357 275
f 281 361 357
f 358 282 276
f 362 282 358
f 283 359 277
f 283 363 359
f 284 279 364
f 279 365 364
f 279 360 365
f 364 285 284
f 287 366 286
f 366 367 286
f 367 281 286
f 367 361 281
f 362 288 282
f 368 288 362
f 290 363 283
f 290 369 363
f 365 370 364
f 285 364 370
f 371 285 370
f 292 285 371
f 373 372 366
f 287 373 366
f 296 373 287
f 366 372 367
f 368 298 288
f 374 298 368
f 375 369 290
f 375 290 299
f 299 301 375
f 375 301 376
f 371 377 292
f 292 377 302
f 377 379 378
f 303 377 378
f 302 377 303
f 380 304 303
f 380 303 378
f 381 305 304
f 381 304 380
f 305 381 382
f 383 305 382
f 306 305 383
f 296 306 373
f 373 306 383
f 385 384 309
f 309 384 308
f 309 298 374
f 309 374 385
f 386 376 301
f 386 301 310
f 310 312 386
f 386 312 387
f 379 388 378
f 378 388 380
f 380 388 389
f 380 389 381
f 381 389 390
f 381 390 382
f 392 391 318
f 318 391 317
f 318 308 384
f 318 384 392
f 393 387 312
f 393 312 319
f 394 319 320
f 394 393 319
f 395 320 321
f 395 394 320
f 396 321 322
f 396 395 321
f 397 322 323
f 397 396 322
f 323 317 391
f 323 391 397
f 399 398 325
f 399 325 326
f 325 400 327
f 398 400 325
f 327 401 328
f 400 401 327
f 328 402 329
f 401 402 328
f 329 403 330
f 402 403 329
f 330 404 331
f 403 404 330
f 332 331 404
f 332 404 405
f 333 399 326
f 333 406 399
f 408 407 335
f 335 407 334
f 409 335 336
f 409 408 335
f 410 336 337
f 410 409 336
f 337 338 410
f 410 338 411
f 405 412 332
f 332 412 339
f 340 339 412
f 340 412 413
f 415 414 341
f 415 341 342
f 333 341 406
f 406 341 414
f 417 416 344
f 344 416 343
f 344 334 407
f 344 407 417
f 418 411 338
f 418 338 345
f 345 346 418
f 418 346 419
f 413 420 340
f 340 420 347
f 348 347 420
f 348 420 421
f 349 415 342
f 349 422 415
f 424 423 351
f 351 423 350
f 351 343 416
f 351 416 424
f 425 419 346
f 425 346 352
f 352 353 425
f 425 353 426
f 421 354 348
f 427 354 421
f 355 422 349
f 355 428 422
f 423 356 350
f 429 356 423
f 357 426 353
f 357 430 426
f 427 358 354
f 431 358 427
f 359 428 355
f 359 432 428
f 429 360 356
f 433 360 429
f 361 430 357
f 361 434 430
f 431 362 358
f 435 362 431
f 363 432 359
f 363 436 432
f 433 365 360
f 437 365 433
f 367 434 361
f 367 438 434
f 435 368 362
f 439 368 435
f 369 436 363
f 369 440 436
f 437 441 365
f 365 441 370
f 371 370 441
f 371 441 442
f 444 443 372
f 444 372 373
f 367 372 438
f 438 372 443
f 439 374 368
f 445 374 439
f 446 440 369
f 446 369 375
f 375 376 446
f 446 376 447
f 442 448 371
f 371 448 377
f 379 377 448
f 379 448 449
f 451 450 383
f 451 383 382
f 373 383 444
f 444 383 450
f 453 452 385
f 385 452 384
f 385 374 445
f 385 445 453
f 454 447 376
f 454 376 386
f 386 387 454
f 454 387 455
f 449 456 379
f 379 456 388
f 388 457 389
f 456 457 388
f 389 458 390
f 457 458 389
f 382 390 451
f 451 390 458
f 460 459 392
f 392 459 391
f 392 384 452
f 392 452 460
f 461 455 387
f 461 387 393
f 462 393 394
f 462 461 393
f 463 394 395
f 463 462 394
f 464 395 396
f 464 463 395
f 465 396 397
f 465 464 396
f 397 391 459
f 397 459 465
f 399 466 398
f 398 466 467
f 468 398 467
f 400 398 468
f 400 469 401
f 468 469 400
f 401 470 402
f 469 470 401
f 402 471 403
f 470 471 402
f 403 472 404
f 471 472 403
f 405 404 472
f 405 472 473
f 475 474 466
f 399 475 466
f 406 475 399
f 466 474 467
f 476 407 408
f 476 408 477
f 408 478 477
f 408 409 478
f 479 409 410
f 479 478 409
f 410 411 479
f 479 411 480
f 473 481 405
f 405 481 412
f 413 412 481
f 413 481 482
f 484 483 414
f 484 414 415
f 406 414 475
f 475 414 483
f 486 485 417
f 417 485 416
f 417 407 476
f 487 417 476
f 486 417 487
f 487 476 477
f 488 480 411
f 488 411 418
f 418 419 488
f 488 419 489
f 482 490 413
f 413 490 420
f 421 420 490
f 421 490 491
f 422 484 415
f 422 492 484
f 493 423 424
f 494 493 424
f 416 494 424
f 485 494 416
f 495 489 419
f 495 419 425
f 425 426 495
f 495 426 496
f 491 427 421
f 497 427 491
f 428 492 422
f 428 498 492
f 500 499 493
f 499 423 493
f 499 429 423
f 500 493 494
f 430 496 426
f 430 501 496
f 497 431 427
f 502 431 497
f 432 498 428
f 432 503 498
f 499 433 429
f 504 433 499
f 434 501 430
f 434 505 501
f 502 435 431
f 506 435 502
f 436 508 507
f 503 436 507
f 432 436 503
f 504 507 508
f 437 504 508
f 433 504 437
f 438 505 434
f 438 509 505
f 506 439 435
f 510 439 506
f 512 511 508
f 436 512 508
f 440 512 436
f 508 511 437
f 511 441 437
f 511 513 441
f 442 441 513
f 442 513 514
f 516 515 443
f 516 443 444
f 438 443 509
f 509 443 515
f 510 445 439
f 517 445 510
f 518 512 440
f 518 440 446
f 446 447 518
f 518 447 519
f 514 520 442
f 442 520 448
f 449 448 520
f 449 520 521
f 523 522 450
f 523 450 451
f 444 450 516
f 516 450 522
f 525 524 453
f 453 524 452
f 453 445 517
f 453 517 525
f 526 519 447
f 526 447 454
f 454 455 526
f 526 455 527
f 521 528 449
f 449 528 456
f 456 529 457
f 528 529 456
f 457 530 458
f 529 530 457
f 451 458 523
f 523 458 530
f 532 531 460
f 460 531 459
f 460 452 524
f 460 524 532
f 533 527 455
f 533 455 461
f 534 461 462
f 534 533 461
f 535 462 463
f 535 534 462
f 536 463 464
f 536 535 463
f 537 464 465
f 537 536 464
f 465 459 531
f 465 531 537
f 467 538 468
f 468 538 539
f 540 468 539
f 469 468 540
f 469 541 470
f 540 541 469
f 470 542 471
f 541 542 470
f 471 543 472
f 542 543 471
f 473 472 543
f 473 543 544
f 546 545 474
f 546 474 475
f 467 474 538
f 474 547 538
f 474 545 547
f 538 547 539
f 548 477 478
f 479 549 478
f 478 549 548
f 480 549 479
f 544 550 473
f 473 550 481
f 482 481 550
f 482 550 551
f 484 552 483
f 552 553 483
f 553 475 483
f 553 546 475
f 554 485 486
f 554 486 555
f 486 556 555
f 486 487 556
f 487 477 548
f 557 487 548
f 556 487 557
f 557 548 549
f 557 549 558
f 560 558 559
f 559 558 488
f 558 549 488
f 549 480 488
f 489 559 488
f 551 561 482
f 482 561 490
f 491 490 561
f 491 561 562
f 564 563 552
f 484 564 552
f 492 564 484
f 552 563 553
f 566 565 554
f 565 485 554
f 565 494 485
f 566 554 555
f 567 560 559
f 569 567 568
f 568 567 495
f 567 559 495
f 559 489 495
f 496 568 495
f 562 497 491
f 570 497 562
f 498 564 492
f 498 571 564
f 572 499 500
f 573 572 500
f 494 573 500
f 565 573 494
f 569 568 574
f 569 574 575
f 501 574 496
f 496 574 568
f 570 502 497
f 576 502 570
f 503 571 498
f 503 577 571
f 578 504 572
f 572 504 499
f 572 573 579
f 572 579 578
f 580 575 574
f 574 501 580
f 501 581 580
f 501 505 581
f 576 506 502
f 582 506 576
f 503 507 583
f 584 503 583
f 577 503 584
f 504 578 507
f 578 583 507
f 578 585 583
f 578 579 586
f 578 586 585
f 589 588 587
f 588 581 587
f 581 509 587
f 581 505 509
f 582 510 506
f 590 510 582
f 511 512 591
f 583 592 584
f 511 591 513
f 593 513 591
f 513 593 585
f 592 585 593
f 585 592 583
f 514 513 585
f 586 514 585
f 594 514 586
f 589 587 515
f 516 589 515
f 595 589 516
f 515 587 509
f 590 517 510
f 596 517 590
f 518 591 512
f 518 519 591
f 519 593 591
f 519 597 593
f 594 598 514
f 514 598 520
f 600 599 521
f 520 600 521
f 598 600 520
f 601 599 600
f 604 603 602
f 522 523 602
f 603 522 602
f 605 522 603
f 516 522 595
f 595 522 605
f 607 606 525
f 525 606 524
f 525 517 596
f 525 596 607
f 608 597 519
f 608 519 526
f 526 527 608
f 608 527 609
f 599 528 521
f 601 610 599
f 610 528 599
f 610 529 528
f 602 530 604
f 530 610 604
f 530 529 610
f 530 602 523
f 612 611 532
f 532 611 531
f 532 524 606
f 532 606 612
f 613 609 527
f 613 527 533
f 614 533 534
f 614 613 533
f 615 534 535
f 615 614 534
f 616 535 536
f 616 615 535
f 617 536 537
f 617 616 536
f 537 531 611
f 537 611 617
f 539 618 540
f 619 541 540
f 619 540 618
f 620 542 541
f 620 541 619
f 621 543 542
f 621 542 620
f 621 544 543
f 546 622 545
f 545 622 623
f 624 545 623
f 547 545 624
f 539 547 618
f 547 625 618
f 547 624 625
f 618 625 619
f 619 625 626
f 619 626 620
f 620 626 627
f 620 627 621
f 621 627 628
f 628 630 629
f 628 629 550
f 621 628 550
f 544 621 550
f 629 551 550
f 632 631 622
f 546 632 622
f 553 632 546
f 622 631 623
f 633 555 556
f 557 634 556
f 556 634 633
f 558 635 557
f 557 635 634
f 560 635 558
f 630 636 629
f 636 638 637
f 636 637 561
f 629 636 561
f 551 629 561
f 637 562 561
f 564 639 563
f 639 640 563
f 640 553 563
f 640 632 553
f 641 565 566
f 555 633 566
f 633 641 566
f 633 642 641
f 634 644 643
f 642 634 643
f 633 634 642
f 644 634 635
f 644 635 645
f 647 645 646
f 646 645 567
f 645 635 567
f 635 560 567
f 569 646 567
f 637 638 648
f 648 638 649
f 648 570 562
f 648 562 637
f 571 650 639
f 571 639 564
f 640 639 651
f 651 639 650
f 652 573 641
f 641 573 565
f 642 654 653
f 652 642 653
f 641 642 652
f 654 642 643
f 647 646 655
f 647 655 656
f 575 655 569
f 569 655 646
f 649 657 648
f 570 648 657
f 658 570 657
f 576 570 658
f 577 659 650
f 577 650 571
f 651 650 660
f 660 650 659
f 662 661 652
f 661 573 652
f 661 579 573
f 662 652 653
f 663 656 655
f 665 663 664
f 664 663 580
f 663 655 580
f 655 575 580
f 581 664 580
f 658 582 576
f 666 582 658
f 584 667 659
f 584 659 577
f 660 659 668
f 668 659 667
f 670 586 669
f 586 661 669
f 586 579 661
f 671 670 669
f 674 673 672
f 672 673 665
f 672 665 664
f 589 672 664
f 588 589 664
f 588 664 581
f 677 676 675
f 666 675 676
f 590 666 676
f 582 666 590
f 592 667 584
f 592 593 667
f 593 668 667
f 593 678 668
f 679 594 670
f 670 594 586
f 670 671 680
f 681 670 680
f 679 670 681
f 682 681 680
f 685 684 683
f 683 684 674
f 672 683 674
f 686 683 672
f 595 686 589
f 589 686 672
f 676 677 687
f 687 677 688
f 687 596 590
f 687 590 676
f 597 690 689
f 678 597 689
f 593 597 678
f 679 598 594
f 691 689 690
f 598 679 600
f 600 679 681
f 693 692 601
f 693 601 600
f 682 693 600
f 681 682 600
f 692 693 685
f 692 685 683
f 604 692 683
f 603 604 683
f 603 683 605
f 605 683 686
f 605 686 595
f 687 688 607
f 688 606 607
f 688 694 606
f 687 607 596
f 608 690 597
f 696 695 609
f 609 695 608
f 695 691 608
f 691 690 608
f 696 697 695
f 692 610 601
f 610 692 604
f 700 699 698
f 611 612 698
f 612 700 698
f 612 701 700
f 612 606 694
f 612 694 701
f 613 696 609
f 702 697 696
f 613 702 696
f 614 702 613
f 703 614 615
f 703 702 614
f 704 615 616
f 704 703 615
f 617 698 699
f 704 617 699
f 616 617 704
f 698 617 611
f 623 705 624
f 706 625 624
f 706 624 705
f 707 626 625
f 707 625 706
f 708 627 626
f 708 626 707
f 709 628 627
f 709 627 708
f 709 630 628
f 632 710 631
f 705 623 631
f 710 705 631
f 711 705 710
f 713 706 712
f 706 711 712
f 706 705 711
f 706 713 707
f 707 713 714
f 707 714 708
f 708 714 715
f 708 715 709
f 709 715 716
f 716 718 717
f 716 717 636
f 709 716 636
f 630 709 636
f 717 638 636
f 640 719 710
f 640 710 632
f 721 711 720
f 711 719 720
f 711 710 719
f 711 721 712
f 722 643 644
f 645 723 644
f 644 723 722
f 647 723 645
f 717 718 724
f 724 718 725
f 724 649 638
f 724 638 717
f 651 726 719
f 651 719 640
f 720 719 727
f 727 719 726
f 728 653 654
f 643 722 654
f 722 728 654
f 722 729 728
f 730 722 723
f 729 722 730
f 656 730 647
f 647 730 723
f 725 731 724
f 731 733 732
f 731 732 657
f 724 731 657
f 649 724 657
f 732 658 657
f 735 734 726
f 651 735 726
f 660 735 651
f 736 661 662
f 734 727 726
f 653 728 662
f 728 736 662
f 728 737 736
f 738 728 729
f 737 728 738
f 739 729 730
f 738 729 739
f 663 740 656
f 740 730 656
f 740 739 730
f 665 740 663
f 732 733 741
f 741 733 742
f 741 666 658
f 741 658 732
f 668 735 660
f 668 743 735
f 736 669 661
f 669 736 671
f 736 744 671
f 736 737 744
f 745 737 738
f 744 737 745
f 746 738 739
f 745 738 746
f 674 746 673
f 746 740 673
f 746 739 740
f 673 740 665
f 741 742 675
f 742 677 675
f 742 747 677
f 741 675 666
f 678 749 748
f 743 678 748
f 668 678 743
f 749 750 748
f 744 680 671
f 680 744 682
f 744 751 682
f 744 745 751
f 685 751 684
f 751 746 684
f 751 745 746
f 684 746 674
f 754 753 752
f 747 754 752
f 688 747 752
f 677 747 688
f 689 749 678
f 756 755 691
f 691 755 689
f 755 750 689
f 750 749 689
f 756 757 755
f 751 693 682
f 693 751 685
f 760 759 758
f 760 758 753
f 758 752 753
f 758 761 752
f 761 694 688
f 761 688 752
f 695 756 691
f 763 762 697
f 697 762 695
f 762 757 695
f 757 756 695
f 763 764 762
f 758 759 700
f 759 699 700
f 759 765 699
f 758 700 701
f 758 701 761
f 761 701 694
f 702 763 697
f 766 764 763
f 702 766 763
f 703 766 702
f 767 703 704
f 767 766 703
f 704 699 765
f 704 765 767
f 712 768 713
f 769 714 713
f 769 713 768
f 770 715 714
f 770 714 769
f 771 716 715
f 771 715 770
f 771 718 716
f 720 772 721
f 768 712 721
f 772 768 721
f 773 768 772
f 768 774 769
f 768 773 774
f 769 775 770
f 769 774 775
f 770 776 771
f 770 775 776
f 776 725 718
f 776 718 771
f 727 777 772
f 727 772 720
f 772 778 773
f 772 777 778
f 780 774 779
f 774 778 779
f 774 773 778
f 774 780 775
f 775 780 781
f 783 782 781
f 782 775 781
f 782 776 775
f 784 731 725
f 776 784 725
f 782 784 776
f 784 733 731
f 735 785 734
f 777 727 734
f 785 777 734
f 786 777 785
f 788 778 787
f 778 786 787
f 778 777 786
f 778 788 779
f 782 783 789
f 789 783 790
f 782 791 784
f 782 789 791
f 791 742 733
f 791 733 784
f 743 792 785
f 743 785 735
f 785 793 786
f 785 792 793
f 787 786 794
f 786 795 794
f 786 793 795
f 797 796 795
f 795 796 794
f 799 798 797
f 797 798 796
f 798 799 790
f 799 789 790
f 799 800 789
f 789 801 791
f 789 800 801
f 801 747 742
f 801 742 791
f 748 792 743
f 792 748 750
f 802 792 750
f 793 792 802
f 793 803 795
f 793 802 803
f 795 804 797
f 795 803 804
f 797 805 799
f 797 804 805
f 799 806 800
f 799 805 806
f 806 753 754
f 801 806 754
f 800 806 801
f 801 754 747
f 755 802 750
f 802 755 757
f 807 802 757
f 803 802 807
f 803 808 804
f 803 807 808
f 804 809 805
f 804 808 809
f 809 759 760
f 806 809 760
f 805 809 806
f 806 760 753
f 762 807 757
f 807 762 764
f 810 807 764
f 808 807 810
f 808 811 809
f 808 810 811
f 811 765 759
f 811 759 809
f 766 810 764
f 810 766 767
f 810 767 811
f 811 767 765
f 779 812 780
f 813 781 780
f 813 780 812
f 813 783 781
f 787 814 788
f 812 779 788
f 814 812 788
f 815 812 814
f 812 816 813
f 812 815 816
f 816 790 783
f 816 783 813
f 794 814 787
f 814 794 796
f 814 796 815
f 815 796 798
f 815 798 816
f 816 798 790

