# https://github.com/mikedh/trimesh
v -0.05351588 0.00186982 -0.02120489
v -0.05012665 0.00016190 -0.02184697
v -0.05075759 0.00277381 -0.02400649
v -0.05396983 0.00232135 -0.01620303
v -0.05155247 -0.00023371 -0.01627731
v -0.05353988 0.00278620 -0.01137105
v -0.05228922 0.00050350 -0.01138721
v -0.05057447 0.00231310 -0.00770023
v -0.05337055 0.00165985 0.00745339
v -0.05077305 -0.00001984 0.00766107
v -0.05092967 0.00186565 0.00436810
v -0.05378651 0.00201089 0.01228216
v -0.05141169 -0.00030040 0.01246899
v -0.05340770 0.00238138 0.01725258
v -0.05217142 0.00017543 0.01730752
v -0.05021895 0.00223367 0.02042513
v -0.05140754 0.00436932 -0.02068827
v -0.05149819 0.00475914 -0.01470510
v -0.05167522 0.00434703 -0.01059294
v -0.05217240 0.00479401 0.00808925
v -0.05218205 0.00518140 0.01389857
v -0.05123044 0.00500700 0.01869300
v -0.04838930 -0.00239877 -0.00407510
v -0.04550369 -0.00670697 -0.00487188
v -0.04441197 -0.00363570 -0.00723785
v -0.04857527 -0.00230419 0.00160067
v -0.04640144 -0.00638494 -0.00064738
v -0.04460708 -0.00357903 0.00374736
v -0.04560651 0.00028059 -0.02118739
v -0.04702332 0.00178342 -0.02400408
v -0.04652139 -0.00030244 -0.01630376
v -0.04719990 -0.00057772 -0.00991708
v -0.04952708 0.00312566 -0.00332080
v -0.04948875 0.00222491 0.00058709
v -0.04708505 -0.00041275 0.00660400
v -0.04669237 -0.00026028 0.01256273
v -0.04770842 -0.00006484 0.01811271
v -0.04463755 0.00335628 0.02086064
v -0.04710927 0.00408074 -0.02270007
v -0.04538490 0.00529578 -0.01624643
v -0.04731525 0.00536830 -0.01039630
v -0.04833197 0.00693739 -0.00504262
v -0.04448475 0.00755352 -0.00742416
v -0.04836051 0.00752030 -0.00020429
v -0.04905189 0.00785029 0.00589401
v -0.04987767 0.00898837 0.01250287
v -0.04911569 0.00895047 0.01795361
v -0.04692453 0.00699378 0.02117278
v -0.04608258 0.01092586 -0.00267488
v -0.04605960 0.01119383 0.00259457
v -0.04648544 0.01191056 0.00736217
v -0.04536435 0.01455897 0.00953524
v -0.04805972 0.01275430 0.01170395
v -0.04801080 0.01362666 0.01699455
v -0.04524191 0.01257281 0.02080942
v -0.04495511 0.01642814 0.01387178
v -0.04481302 0.01621656 0.01897014
v -0.04310139 -0.00971614 -0.00305156
v -0.03862303 -0.01146504 -0.00407351
v -0.04142901 -0.00812693 -0.00677509
v -0.04348683 -0.00880832 0.00125391
v -0.04044383 -0.01136629 0.00006714
v -0.04016678 -0.00878962 0.00329354
v -0.03951604 -0.00426863 -0.00770436
v -0.03966933 -0.00424117 0.00418114
v -0.04427462 0.00258738 -0.02126925
v -0.04289962 0.00285557 -0.01565432
v -0.04383982 0.00280978 -0.01101897
v -0.04093789 0.00132342 -0.00808760
v -0.04333740 0.00153525 0.00660083
v -0.03952121 0.00222490 0.00450943
v -0.04295367 0.00215652 0.01108990
v -0.04301588 0.00192342 0.01695646
v -0.04318474 0.00488186 -0.01233010
v -0.04315814 0.00898221 -0.01091027
v -0.04106322 0.00766015 -0.01370477
v -0.03987078 0.00533773 -0.01049503
v -0.04019695 0.00501890 0.00832647
v -0.03968790 0.00509229 0.01400044
v -0.04035593 0.00503196 0.01877654
v -0.04090231 0.00908927 0.02098259
v -0.04232082 0.01372216 -0.02102979
v -0.03886055 0.01198757 -0.02097042
v -0.04092674 0.01506531 -0.02360863
v -0.04241912 0.01399566 -0.01610479
v -0.03967241 0.01059608 -0.01694395
v -0.04260496 0.01421110 -0.01094042
v -0.04331235 0.01335856 -0.00582174
v -0.04317932 0.01422308 -0.00011516
v -0.04348119 0.01414024 0.00522271
v -0.04116191 0.01444711 0.02069407
v -0.04210446 0.01815276 -0.02189786
v -0.03999051 0.01876786 -0.02356083
v -0.03970849 0.01859954 -0.01948958
v -0.03954044 0.01676893 -0.01434344
v -0.03957655 0.01648697 -0.00887046
v -0.04022131 0.01637812 -0.00369683
v -0.03897999 0.01612621 0.00137886
v -0.04132144 0.01652500 0.00801879
v -0.03916794 0.01663768 0.01188913
v -0.04073034 0.01632189 0.01718195
v -0.04032006 0.02096133 -0.02222004
v -0.03298318 -0.01162586 -0.00405575
v -0.03586642 -0.00861582 -0.00710250
v -0.03584762 -0.01172259 0.00058682
v -0.03456528 -0.00860036 0.00356876
v -0.03454299 -0.00331513 -0.00759547
v -0.03454596 -0.00333440 0.00393843
v -0.03393519 0.00238714 -0.00798135
v -0.03373721 0.00157134 0.00357469
v -0.03395090 0.00586154 -0.00981230
v -0.03603171 0.00774502 -0.01285762
v -0.03744374 0.00891120 0.00663496
v -0.03431683 0.00760951 0.00331345
v -0.03761581 0.00889539 0.01262498
v -0.03788201 0.00812102 0.01741693
v -0.03783361 0.01569744 -0.02172171
v -0.03483390 0.01312097 -0.01891480
v -0.03477096 0.01052092 -0.01633599
v -0.03609234 0.01311561 0.00273138
v -0.03521829 0.01451287 -0.00147464
v -0.03299412 0.01154772 -0.00000593
v -0.03405742 0.01189496 0.00626800
v -0.03332418 0.01327985 0.00417964
v -0.03706250 0.01333904 0.01247135
v -0.03505555 0.01465829 0.00940437
v -0.03787147 0.01248401 0.01805427
v -0.03885937 0.01962602 -0.02219691
v -0.03546515 0.01615551 -0.01702454
v -0.03472679 0.01633898 -0.01176623
v -0.03541512 0.01620031 -0.00551602
v -0.03613284 0.01595059 0.00631292
v -0.02810514 -0.01254624 -0.00470471
v -0.02925248 -0.00917810 -0.00713278
v -0.02971151 -0.01217236 0.00007456
v -0.02924694 -0.00881926 0.00369209
v -0.02872822 -0.00333497 -0.00768187
v -0.02927831 -0.00350190 0.00442759
v -0.02807686 0.00147754 -0.00759124
v -0.02928807 0.00211013 0.00430428
v -0.03146177 0.00962816 -0.01038343
v -0.02844659 0.00750502 -0.00748381
v -0.02960326 0.00813722 0.00451038
v -0.03230936 0.01338287 -0.01460892
v -0.03180575 0.01392074 -0.00967450
v -0.02923552 0.01105982 -0.00387018
v -0.03199873 0.01285061 -0.00514968
v -0.02956426 0.01105944 0.00224823
v -0.03218041 0.01062993 0.00334541
v -0.03204466 0.01295741 0.00573105
v -0.02528216 -0.02624663 -0.00923315
v -0.02206291 -0.02839813 -0.01024210
v -0.02228153 -0.02516990 -0.01228977
v -0.02593823 -0.02584199 -0.00388533
v -0.02322205 -0.02868067 -0.00519403
v -0.02583709 -0.02584845 0.00206780
v -0.02291803 -0.02869702 0.00071509
v -0.02592249 -0.02578739 0.00814470
v -0.02280296 -0.02884321 0.00674791
v -0.02540418 -0.02513159 0.01285187
v -0.02358694 -0.02824175 0.01155764
v -0.02229423 -0.02642730 0.01466556
v -0.02392667 -0.02325121 -0.00997494
v -0.02323654 -0.01895265 -0.00810016
v -0.02562414 -0.02107772 -0.00528947
v -0.02630921 -0.02065665 0.00072163
v -0.02651970 -0.02051494 0.00668612
v -0.02601210 -0.02031821 0.01206688
v -0.02295403 -0.02171668 0.01518429
v -0.02574871 -0.01563002 -0.00404084
v -0.02431826 -0.01387899 -0.00733083
v -0.02641132 -0.01463762 0.00133404
v -0.02618481 -0.01466543 0.00685497
v -0.02583341 -0.01436218 0.01207670
v -0.02303748 -0.01564463 0.01506065
v -0.02307350 -0.00948641 -0.00747744
v -0.02644948 -0.00850928 0.00690168
v -0.02563033 -0.00870052 0.01216179
v -0.02295300 -0.00979802 0.01505973
v -0.02378988 -0.00351170 -0.00705797
v -0.02653217 -0.00220116 0.00741031
v -0.02554253 -0.00316675 0.01207131
v -0.02290790 -0.00418734 0.01504347
v -0.02393990 0.00219737 -0.00689469
v -0.02651809 0.00340300 0.00745458
v -0.02554424 0.00235274 0.01206843
v -0.02290839 0.00139703 0.01501366
v -0.02200286 0.00801836 -0.00789034
v -0.02650510 0.00928055 0.00663593
v -0.02557142 0.00802378 0.01210067
v -0.02297125 0.00702384 0.01507117
v -0.02661570 0.01469274 -0.00483968
v -0.02347138 0.01407742 -0.00789175
v -0.02665682 0.01369023 0.00168694
v -0.02612632 0.01368375 0.00693919
v -0.02548301 0.01418760 0.01110140
v -0.02245400 0.01326507 0.01494508
v -0.02511930 0.01832896 -0.00956870
v -0.02274243 0.01802346 -0.01056614
v -0.02357741 0.01970999 -0.01199553
v -0.02565020 0.01980411 -0.00592495
v -0.02574994 0.01914361 -0.00050430
v -0.02551668 0.01850541 0.00601594
v -0.02405002 0.01911706 0.01032663
v -0.02285930 0.01751754 0.01333892
v -0.02325743 0.02129718 -0.00934959
v -0.02292772 0.02211987 -0.00370504
v -0.02292328 0.02212677 0.00230928
v -0.02225309 0.02186085 0.00790332
v -0.01653057 -0.02876200 -0.01006907
v -0.01863736 -0.02653155 -0.01278848
v -0.01800788 -0.02927855 -0.00503830
v -0.01773963 -0.02922598 0.00092372
v -0.01742526 -0.02938276 0.00692821
v -0.01887559 -0.02875989 0.01221647
v -0.01748084 -0.02564193 0.01527297
v -0.02124774 -0.02025649 -0.01160543
v -0.01805253 -0.02135659 -0.01399940
v -0.01766147 -0.02026611 0.01581287
v -0.01926176 -0.01570779 -0.01488250
v -0.01733866 -0.01668477 -0.01715569
v -0.01699925 -0.01355499 -0.01888423
v -0.02038681 -0.01438867 -0.01018434
v -0.01778480 -0.01430364 0.01562777
v -0.01642443 -0.01204992 -0.01531653
v -0.01627530 -0.01179375 -0.00934615
v -0.01734681 -0.01156330 -0.00481528
v -0.02034945 -0.00822004 -0.00356189
v -0.01685538 -0.01147997 0.00133905
v -0.02009167 -0.00870709 0.00267239
v -0.01784446 -0.01098142 0.00602963
v -0.01975603 -0.00796025 0.00728685
v -0.01669815 -0.00905054 0.00904276
v -0.01778401 -0.00854793 0.01554806
v -0.02117086 -0.00216223 -0.00414055
v -0.02076361 -0.00342746 0.00110631
v -0.02040908 -0.00319855 0.00650767
v -0.01742810 -0.00440338 0.00958970
v -0.01778034 -0.00288470 0.01554746
v -0.02055052 0.00288849 -0.00538003
v -0.01996270 0.00172111 -0.00029470
v -0.01996012 0.00208450 0.00537545
v -0.01752323 0.00127600 0.00912192
v -0.01783660 0.00277966 0.01556258
v -0.01936047 0.00762686 -0.01512844
v -0.01600535 0.00567847 -0.01692226
v -0.01712782 0.00847913 -0.01911115
v -0.02008989 0.00851478 -0.01146973
v -0.01808457 0.00540251 -0.00974897
v -0.01696843 0.00435294 -0.00330744
v -0.01715927 0.00480884 0.00263980
v -0.01684461 0.00464030 0.00721435
v -0.01786844 0.00848947 0.01560067
v -0.01658101 0.01026550 -0.01531674
v -0.01814143 0.01067594 -0.01006799
v -0.01762154 0.01318286 -0.00792034
v -0.01701643 0.01341695 0.01563967
v -0.02107972 0.02018436 -0.01031374
v -0.01740295 0.01843484 -0.00778894
v -0.02116135 0.02048306 0.01199610
v -0.01809337 0.01830906 0.01485310
v -0.01801735 0.02206614 -0.00541069
v -0.01777666 0.02275817 0.00085451
v -0.01776873 0.02284463 0.00683538
v -0.01740943 0.02193137 0.01201924
v -0.01104884 -0.02832982 -0.00939189
v -0.01370290 -0.02563758 -0.01320676
v -0.01214042 -0.02923867 -0.00493228
v -0.01190330 -0.02909956 0.00105921
v -0.01146703 -0.02919810 0.00705214
v -0.01280239 -0.02863212 0.01229991
v -0.01148482 -0.02565923 0.01514375
v -0.01343035 -0.02065483 -0.02113836
v -0.01123903 -0.02206319 -0.02125392
v -0.01207659 -0.01930873 -0.02390156
v -0.01476420 -0.02044908 -0.01705674
v -0.01174042 -0.02338267 -0.01680406
v -0.01173165 -0.02045061 0.01562544
v -0.01448262 -0.01608608 -0.02155770
v -0.01118735 -0.01567647 -0.02390523
v -0.01189755 -0.01456887 0.01541176
v -0.01308193 -0.01253454 -0.02103925
v -0.01152796 -0.01195506 -0.01718325
v -0.01219969 -0.01191102 -0.01158656
v -0.01222949 -0.01208259 -0.00564909
v -0.01225299 -0.01238481 0.00010053
v -0.01302484 -0.01189187 0.00611140
v -0.01180198 -0.00913522 0.00962600
v -0.01189707 -0.00881498 0.01532988
v -0.01225599 -0.00282729 0.01011415
v -0.01189408 -0.00314361 0.01533413
v -0.01164620 0.00293605 0.00942433
v -0.01195406 0.00255995 0.01534285
v -0.01432148 0.00755652 -0.02193540
v -0.01177731 0.00623471 -0.02086597
v -0.01152769 0.00801404 -0.02355846
v -0.01144775 0.00538749 -0.01559524
v -0.01233866 0.00525737 -0.01049352
v -0.01240982 0.00545170 -0.00459363
v -0.01252307 0.00589640 0.00127836
v -0.01245867 0.00598997 0.00644924
v -0.01196884 0.00834113 0.01540902
v -0.01302141 0.00971788 -0.02116204
v -0.01132562 0.01022039 -0.01724931
v -0.01269061 0.01098698 -0.01136223
v -0.01171980 0.01471694 -0.00779765
v -0.01195414 0.01417064 0.01557026
v -0.01107292 0.01974115 -0.00698991
v -0.01192176 0.01931805 0.01503465
v -0.01188332 0.02191862 -0.00430967
v -0.01187827 0.02260031 0.00088642
v -0.01191149 0.02267436 0.00689493
v -0.01191056 0.02215853 0.01213927
v -0.00924555 -0.02472028 -0.01072243
v -0.00605466 -0.02637038 -0.00763691
v -0.00590329 -0.02856610 -0.00506163
v -0.00621303 -0.02907239 0.00099230
v -0.00573434 -0.02913459 0.00705120
v -0.00693491 -0.02862856 0.01223548
v -0.00571337 -0.02580161 0.01505681
v -0.00955783 -0.01878018 -0.02184921
v -0.00917551 -0.02071621 -0.01583363
v -0.00866110 -0.01966746 -0.00962830
v -0.00553563 -0.02389857 -0.00462359
v -0.00834168 -0.02053902 -0.00413961
v -0.00558467 -0.02299287 0.00112702
v -0.00847906 -0.01994872 0.00261357
v -0.00639570 -0.02251129 0.00590733
v -0.00803177 -0.01950745 0.00718338
v -0.00504784 -0.02091802 0.00896574
v -0.00597942 -0.02062145 0.01554059
v -0.00968635 -0.01425801 -0.02120427
v -0.00912083 -0.01509434 -0.01631443
v -0.00921157 -0.01514141 -0.01020248
v -0.00929104 -0.01514686 -0.00441266
v -0.00955433 -0.01533793 0.00137677
v -0.00947293 -0.01505380 0.00655819
v -0.00621590 -0.01550836 0.00958374
v -0.00614334 -0.01473696 0.01532891
v -0.00629876 -0.00895229 0.01001514
v -0.00613928 -0.00898257 0.01524797
v -0.00632007 -0.00303889 0.00982886
v -0.00613405 -0.00331415 0.01524976
v -0.00550150 0.00190134 0.00981763
v -0.00615918 0.00238274 0.01525301
v -0.01001217 0.00846517 -0.02130427
v -0.00970646 0.00781183 -0.01638087
v -0.00973038 0.00854787 -0.01002046
v -0.00943836 0.00831909 -0.00452793
v -0.00963964 0.00867248 0.00132721
v -0.00916691 0.00903279 0.00651136
v -0.00665459 0.00707260 0.00944442
v -0.00617298 0.00819155 0.01534223
v -0.00861419 0.01333362 -0.00539174
v -0.00852752 0.01313040 -0.00012693
v -0.00832549 0.01349462 0.00556477
v -0.00574596 0.01262369 0.00919759
v -0.00615311 0.01408902 0.01556187
v -0.00537995 0.01685345 -0.00371009
v -0.00661352 0.01882348 -0.00681900
v -0.00593101 0.01644624 0.00273782
v -0.00531981 0.01606716 0.00736910
v -0.00614666 0.01923264 0.01507398
v -0.00622893 0.02192989 -0.00443020
v -0.00616118 0.02255907 0.00091858
v -0.00612961 0.02257947 0.00699105
v -0.00614553 0.02202616 0.01223201
v 0.00054814 -0.02839826 -0.00444811
v -0.00068901 -0.02626042 -0.00671563
v -0.00058360 -0.02907262 0.00090476
v -0.00012524 -0.02916821 0.00702436
v -0.00126861 -0.02863604 0.01223137
v -0.00004754 -0.02580617 0.01506052
v -0.00038519 -0.02413446 -0.00427572
v -0.00023969 -0.02361787 0.00122675
v -0.00171883 -0.02314494 0.00655781
v -0.00022696 -0.02024950 0.00966026
v -0.00031275 -0.02061840 0.01554432
v -0.00028817 -0.01501500 0.01014096
v -0.00047699 -0.01473017 0.01533179
v -0.00041552 -0.00917630 0.00983961
v -0.00047449 -0.00897424 0.01524979
v -0.00046878 -0.00331484 0.00971351
v -0.00046628 -0.00330869 0.01524983
v -0.00050669 0.00257071 0.00984366
v -0.00046790 0.00236097 0.01525011
v -0.00055612 0.00848956 0.01010165
v -0.00046782 0.00812204 0.01533358
v -0.00053265 0.01376917 0.00960748
v -0.00046793 0.01400733 0.01554686
v 0.00054600 0.01759368 -0.00427091
v -0.00083388 0.01971924 -0.00681356
v -0.00067642 0.01711817 0.00126000
v -0.00057890 0.01663863 0.00669825
v -0.00047052 0.01918634 0.01506390
v -0.00063683 0.02188554 -0.00460584
v -0.00047690 0.02255720 0.00081761
v -0.00046401 0.02258627 0.00697008
v -0.00046784 0.02201653 0.01223265
v 0.00624284 -0.02846711 -0.00441414
v 0.00419245 -0.02668324 -0.00685706
v 0.00507145 -0.02910143 0.00086873
v 0.00548313 -0.02919082 0.00698307
v 0.00439045 -0.02863272 0.01223440
v 0.00562170 -0.02579470 0.01506369
v 0.00548918 -0.02333390 -0.00509045
v 0.00505450 -0.02282789 0.00127677
v 0.00405812 -0.02269580 0.00671253
v 0.00503810 -0.01912545 0.00926638
v 0.00535546 -0.02061224 0.01554537
v 0.00582571 -0.01358994 0.00945697
v 0.00519062 -0.01472928 0.01533343
v 0.00461712 -0.00849604 0.00980923
v 0.00519070 -0.00897375 0.01525121
v 0.00540818 -0.00356836 0.00982610
v 0.00519843 -0.00330731 0.01524984
v 0.00536649 0.00238615 0.00998371
v 0.00519874 0.00235753 0.01524799
v 0.00536270 0.00894910 0.00956038
v 0.00519644 0.00811159 0.01532729
v 0.00424660 0.01434844 0.00903587
v 0.00519592 0.01399578 0.01553891
v 0.00536236 0.01636903 -0.00481253
v 0.00544809 0.01914386 -0.00679580
v 0.00448246 0.01624393 -0.00020849
v 0.00471335 0.01611664 0.00552463
v 0.00521187 0.01918211 0.01507179
v 0.00501083 0.02190915 -0.00450624
v 0.00521994 0.02258874 0.00092737
v 0.00524660 0.02262719 0.00707029
v 0.00523918 0.02203299 0.01228180
v 0.01208867 -0.02854985 -0.00434007
v 0.00929641 -0.02575116 -0.00759751
v 0.01080538 -0.02922227 0.00089472
v 0.01117044 -0.02924085 0.00696602
v 0.01007103 -0.02864477 0.01223146
v 0.01133591 -0.02584968 0.01507585
v 0.00827365 -0.01988661 -0.02059313
v 0.01224270 -0.02288634 -0.02166558
v 0.01032423 -0.01934563 -0.02421994
v 0.00808428 -0.01976658 -0.01491275
v 0.01121436 -0.02305265 -0.01626228
v 0.00802932 -0.02038245 -0.00904520
v 0.01133480 -0.02349594 -0.01115761
v 0.00754882 -0.01902500 -0.00381534
v 0.00767742 -0.01978845 0.00130867
v 0.00741380 -0.02074384 0.00614980
v 0.01109811 -0.02072235 0.01558699
v 0.00853331 -0.01560195 -0.02239292
v 0.01235097 -0.01507542 -0.02434954
v 0.00792254 -0.01494597 -0.01769916
v 0.00810920 -0.01497226 -0.01178581
v 0.00829822 -0.01505993 -0.00601059
v 0.00863807 -0.01520099 -0.00012505
v 0.00840554 -0.01602873 0.00605444
v 0.01094656 -0.01487940 0.01540417
v 0.01123558 -0.01211226 -0.02043798
v 0.01118543 -0.01178560 -0.01470184
v 0.01120194 -0.01205778 -0.00894313
v 0.01142099 -0.01228018 -0.00322631
v 0.01175291 -0.01252321 0.00270002
v 0.01088443 -0.01249714 0.00717437
v 0.01077509 -0.00937997 0.00941598
v 0.01094711 -0.00913882 0.01533329
v 0.01137253 -0.00363528 0.01011084
v 0.01095366 -0.00347216 0.01533162
v 0.01088586 0.00262360 0.00957994
v 0.01095263 0.00219422 0.01532803
v 0.00885628 0.00759598 -0.02131434
v 0.01228308 0.00590812 -0.02184316
v 0.01172242 0.00850885 -0.02389657
v 0.00858171 0.00796380 -0.01648789
v 0.01095664 0.00552439 -0.01646318
v 0.00873447 0.00850462 -0.00994550
v 0.01104454 0.00560813 -0.01043735
v 0.00846036 0.00871883 -0.00327945
v 0.01124409 0.00570104 -0.00454950
v 0.00869393 0.00884860 0.00265729
v 0.01149849 0.00593245 0.00133513
v 0.00859031 0.00772952 0.00714462
v 0.01168379 0.00529964 0.00654637
v 0.01095613 0.00794917 0.01541072
v 0.01117448 0.01011041 -0.02070965
v 0.01133853 0.01034462 -0.01492542
v 0.01070101 0.01134746 -0.00996609
v 0.01041998 0.01478476 -0.00760615
v 0.00781514 0.01294229 -0.00498263
v 0.00741090 0.01330605 0.00126474
v 0.00728048 0.01241777 0.00654825
v 0.01099866 0.01385304 0.01565495
v 0.01204961 0.01920132 -0.00708656
v 0.01104132 0.01911373 0.01521136
v 0.01075430 0.02204071 -0.00422671
v 0.01096684 0.02266660 0.00106609
v 0.01100895 0.02264859 0.00712690
v 0.01098625 0.02203883 0.01237184
v 0.01807059 -0.02876877 -0.00438375
v 0.01607845 -0.02585414 -0.00779393
v 0.01668493 -0.02938830 0.00088905
v 0.01697213 -0.02935044 0.00700563
v 0.01584139 -0.02874231 0.01226896
v 0.01714247 -0.02592714 0.01516917
v 0.01679435 -0.02274053 -0.02106552
v 0.01496124 -0.02006102 -0.02444074
v 0.01599414 -0.02317704 -0.01622371
v 0.01631462 -0.02325596 -0.01110250
v 0.01694856 -0.02076189 0.01572261
v 0.01696215 -0.01573006 -0.02410799
v 0.01683170 -0.01494557 0.01558632
v 0.01562324 -0.01240384 -0.02223682
v 0.01608450 -0.01181955 -0.01749534
v 0.01600229 -0.01208861 -0.01162562
v 0.01686392 -0.01123629 -0.00542980
v 0.01622078 -0.01124157 0.00124076
v 0.01544041 -0.01107879 0.00647145
v 0.01666693 -0.00765813 0.00917753
v 0.01683736 -0.00923489 0.01554487
v 0.01654703 -0.00202202 0.00970489
v 0.01684155 -0.00357007 0.01554421
v 0.01577414 0.00254209 0.00913530
v 0.01684448 0.00210089 0.01553980
v 0.01703322 0.00608417 -0.02100003
v 0.01557093 0.00758132 -0.02382194
v 0.01609421 0.00547531 -0.01621008
v 0.01650614 0.00526242 -0.00990295
v 0.01525006 0.00464389 -0.00519841
v 0.01594158 0.00463654 0.00008578
v 0.01617641 0.00443232 0.00569460
v 0.01690369 0.00788662 0.01565727
v 0.01553702 0.00991773 -0.02251738
v 0.01631575 0.01040641 -0.01770854
v 0.01568154 0.01099382 -0.01145524
v 0.01684984 0.01367910 -0.00815444
v 0.01692393 0.01385551 0.01588530
v 0.01790292 0.01924957 -0.00722534
v 0.01650725 0.01908310 0.01497663
v 0.01665101 0.02225572 -0.00420931
v 0.01598016 0.02281445 0.00025241
v 0.01715136 0.02211705 0.00562882
v 0.01611655 0.02161546 0.01140318
v 0.02263446 -0.02832178 -0.00392369
v 0.02140617 -0.02657857 -0.00670570
v 0.02193308 -0.02879814 0.00083582
v 0.02215419 -0.02871551 0.00701339
v 0.02134051 -0.02841776 0.01233420
v 0.02230393 -0.02482564 0.01491328
v 0.01897821 -0.01895532 -0.02152041
v 0.01921826 -0.02007188 -0.01611982
v 0.01977042 -0.01998127 -0.01096721
v 0.02179187 -0.02212642 -0.00767428
v 0.02210592 -0.01924627 0.01516832
v 0.01882355 -0.01433063 -0.02093340
v 0.01930181 -0.01521648 -0.01613866
v 0.01976487 -0.01473718 -0.01035790
v 0.02261220 -0.01619511 -0.00757834
v 0.02201900 -0.01341973 0.01507633
v 0.02209199 -0.00928354 -0.00688801
v 0.01960178 -0.00784049 -0.00360831
v 0.01920470 -0.00849162 0.00119118
v 0.01890937 -0.00931872 0.00595127
v 0.02200641 -0.00772959 0.01507419
v 0.02023733 -0.00317755 -0.00408187
v 0.02228715 -0.00241700 -0.00699511
v 0.01987031 -0.00325908 0.00131632
v 0.01951948 -0.00480277 0.00665926
v 0.02197516 -0.00205810 0.01505835
v 0.01952320 0.00274395 -0.00477645
v 0.02351494 0.00172829 -0.00725314
v 0.01908950 0.00198446 0.00143870
v 0.01898771 0.00090948 0.00679742
v 0.02199981 0.00361092 0.01504288
v 0.01846313 0.00843763 -0.02105293
v 0.01876059 0.00791144 -0.01613075
v 0.01873123 0.00823070 -0.01082988
v 0.02180663 0.00735176 -0.00767368
v 0.02205502 0.00934520 0.01518690
v 0.02244631 0.01364200 -0.00720914
v 0.02136322 0.01487155 0.01493967
v 0.02236373 0.01873091 -0.00689522
v 0.02008968 0.01971439 0.00890670
v 0.02187077 0.02013514 0.00446106
v 0.02298899 0.01764919 0.00649840
v 0.02262487 0.01641977 0.01122477
v 0.01972760 0.01888957 0.01312346
v 0.02132121 0.02174569 -0.00508371
v 0.02150380 0.02193769 0.00004335
v 0.02457087 -0.02487209 -0.00436739
v 0.02491462 -0.02584320 0.00081782
v 0.02507163 -0.02576225 0.00699472
v 0.02471841 -0.02649243 0.01180911
v 0.02481634 -0.01931108 -0.00420354
v 0.02553335 -0.02060147 0.00089844
v 0.02565183 -0.02051700 0.00698371
v 0.02514385 -0.02193752 0.01233188
v 0.02454132 -0.01341889 -0.00420282
v 0.02526371 -0.01469056 0.00102273
v 0.02544538 -0.01460436 0.00701034
v 0.02493642 -0.01599987 0.01226974
v 0.02547329 -0.00862090 -0.00502266
v 0.02559685 -0.00886957 0.00033953
v 0.02523209 -0.00876247 0.00704177
v 0.02480766 -0.01018780 0.01226708
v 0.02812748 -0.00727278 -0.00437364
v 0.02720674 -0.00411495 -0.00740924
v 0.02762744 -0.00653838 0.00063815
v 0.02556087 -0.00333392 0.00667453
v 0.02843507 -0.00370647 0.00405663
v 0.02470756 -0.00449363 0.01225651
v 0.02796755 0.00230483 -0.00758023
v 0.02559058 0.00257978 0.00761071
v 0.02814875 0.00237680 0.00456100
v 0.02463604 0.00115933 0.01218839
v 0.02765810 0.00834421 -0.00719813
v 0.02551272 0.00875670 0.00682959
v 0.02891976 0.00873065 0.00397243
v 0.02467545 0.00676324 0.01215830
v 0.02832780 0.01185716 -0.00400920
v 0.02512399 0.01505088 -0.00396320
v 0.02867331 0.01168026 0.00110262
v 0.02561667 0.01279983 0.00178869
v 0.02459205 0.01449272 0.00675711
v 0.02439378 0.01213335 0.01216706
v 0.02423710 0.01990602 -0.00396016
v 0.02450836 0.01794032 0.00109695
v 0.03096717 -0.00944522 -0.00320267
v 0.03537722 -0.01168048 -0.00415200
v 0.03269785 -0.00811690 -0.00694780
v 0.03045236 -0.00861048 0.00112087
v 0.03350145 -0.01144519 -0.00009197
v 0.03379423 -0.00898049 0.00320467
v 0.03373464 -0.00366359 -0.00778415
v 0.03338858 -0.00374704 0.00408321
v 0.03320917 0.00244879 -0.00792962
v 0.03332167 0.00215320 0.00376059
v 0.03067605 0.00892310 -0.01001512
v 0.03478754 0.00538569 -0.01012787
v 0.03284877 0.00868356 -0.01320691
v 0.03433565 0.00779410 0.00372226
v 0.03130683 0.01249813 -0.01484646
v 0.03478894 0.01094738 -0.01725808
v 0.03410057 0.01489897 -0.01855806
v 0.03088522 0.01401128 -0.01120010
v 0.03077405 0.01317351 -0.00641222
v 0.03282132 0.01357680 -0.00225537
v 0.03219199 0.01127527 0.00059220
v 0.03124258 0.01062291 0.00342266
v 0.03283367 0.01132122 0.00590253
v 0.03094905 0.01273238 0.00674514
v 0.03312584 0.01370357 0.00379509
v 0.03140185 0.01387446 0.01270612
v 0.03324267 0.01090791 0.01139839
v 0.03148410 0.01435859 0.01742264
v 0.03293931 0.01126982 0.01706325
v 0.03464312 0.01337324 0.02052915
v 0.03380664 0.01598892 -0.01441092
v 0.03410639 0.01647307 -0.00899386
v 0.03503462 0.01613703 -0.00363233
v 0.03439748 0.01609967 0.00759834
v 0.03285077 0.01613853 0.01355438
v 0.03422268 0.01706012 0.01784440
v 0.03955415 -0.01165426 -0.00353801
v 0.03873034 -0.00858003 -0.00691561
v 0.03772570 -0.01179567 0.00055452
v 0.03974707 -0.00794890 0.00334538
v 0.03863147 -0.00304821 -0.00753796
v 0.03848799 -0.00290404 0.00394337
v 0.03952065 0.00210911 -0.00812594
v 0.03961618 0.00154115 0.00448451
v 0.03987183 0.00540582 -0.01080465
v 0.03836491 0.00716527 -0.01349025
v 0.03857571 0.00515618 0.00640277
v 0.03623659 0.00867953 0.00763316
v 0.03623975 0.00791663 0.01415760
v 0.03931191 0.00501176 0.01102024
v 0.03593060 0.00874177 0.01882018
v 0.03907780 0.00522924 0.01682103
v 0.03958747 0.00753281 0.02084879
v 0.03610816 0.01366540 -0.02152845
v 0.03900453 0.01198613 -0.02060685
v 0.03892598 0.01494578 -0.02370875
v 0.03930430 0.01021090 -0.01583444
v 0.03526280 0.01306571 0.00178732
v 0.03981583 0.01314836 0.02179169
v 0.03750470 0.01815545 -0.02167761
v 0.03995284 0.01858119 -0.02358194
v 0.03844867 0.01736637 -0.01737938
v 0.03942582 0.02019751 -0.02017471
v 0.03874690 0.01632321 -0.01166362
v 0.03884241 0.01650889 -0.00591274
v 0.03812320 0.01610379 0.00073326
v 0.03993580 0.01638531 0.00673706
v 0.03828911 0.01764262 0.01328000
v 0.03729830 0.01978234 0.01754894
v 0.04010711 0.01983651 0.01670953
v 0.03834409 0.01834193 0.02032393
v 0.03952492 0.02094566 -0.02207434
v 0.03911478 0.02107476 0.01842680
v 0.04253952 -0.00904090 -0.00476429
v 0.04215848 -0.00986867 -0.00046420
v 0.04543071 -0.00645787 -0.00300474
v 0.04445569 -0.00317843 -0.00726013
v 0.04462483 -0.00678811 0.00114339
v 0.04480601 -0.00298621 0.00351657
v 0.04321499 0.00178803 -0.02127508
v 0.04650837 0.00018794 -0.02183563
v 0.04586705 0.00272689 -0.02397797
v 0.04216504 0.00308965 -0.01532068
v 0.04540283 -0.00027615 -0.01635866
v 0.04292472 0.00248453 -0.01026505
v 0.04490687 -0.00049062 -0.01155469
v 0.04565908 -0.00058868 0.00713203
v 0.04188922 0.00204031 0.00813742
v 0.04213660 0.00189412 0.01382455
v 0.04591503 -0.00043479 0.01246851
v 0.04201342 0.00262256 0.01858525
v 0.04510095 0.00000324 0.01730584
v 0.04548812 0.00243890 0.02065848
v 0.04547841 0.00435433 -0.02071602
v 0.04471121 0.00563346 -0.01459032
v 0.04505013 0.00533387 -0.01093814
v 0.04231218 0.00497438 -0.01248579
v 0.04224807 0.00912793 -0.01082522
v 0.04469719 0.00641553 -0.00767615
v 0.04519828 0.00799925 0.02181585
v 0.04130139 0.01502681 -0.02231826
v 0.04149326 0.01380642 -0.01619252
v 0.04174344 0.01405911 -0.00944514
v 0.04486668 0.01040539 -0.00480499
v 0.04241032 0.01358015 -0.00395067
v 0.04518188 0.01118859 -0.00011247
v 0.04224902 0.01413431 0.00247185
v 0.04504721 0.01146435 0.00519517
v 0.04304071 0.01445929 0.00728675
v 0.04545487 0.01317219 0.00941096
v 0.04456480 0.01449021 0.02072268
v 0.04112843 0.01861836 -0.02075277
v 0.04370550 0.01595304 0.01153109
v 0.04431138 0.01683368 0.01667133
v 0.04175917 0.01940015 0.01890965
v 0.04750573 -0.00240688 -0.00353415
v 0.04702917 -0.00375364 -0.00025599
v 0.05116394 0.00048601 -0.02097995
v 0.04960391 0.00190471 -0.02383945
v 0.05041941 -0.00020374 -0.01611747
v 0.04938523 -0.00027544 -0.01011547
v 0.04855968 0.00280033 -0.00504586
v 0.05152969 0.00236295 -0.00799823
v 0.04868285 0.00172214 0.00175004
v 0.05033368 0.00006847 0.00656969
v 0.05115523 0.00211244 0.00461026
v 0.05061854 -0.00037386 0.01249512
v 0.04952587 -0.00018413 0.01786131
v 0.05063773 0.00365074 0.02072759
v 0.04966335 0.00417752 -0.02259724
v 0.05055748 0.00478509 -0.01771058
v 0.05007815 0.00462640 -0.01060564
v 0.04690159 0.00829244 -0.00314589
v 0.04738828 0.00751558 0.00116512
v 0.05061647 0.00424288 0.00611290
v 0.04797385 0.00841030 0.00759592
v 0.05101536 0.00559570 0.01076742
v 0.04912791 0.00966354 0.01378504
v 0.05156889 0.00731829 0.01519773
v 0.04983506 0.00916478 0.02066709
v 0.04702568 0.01336225 0.01310115
v 0.05073795 0.00984700 0.01786236
v 0.04820680 0.01277083 0.01791587
v 0.05255173 0.00281891 -0.02109178
v 0.05302930 0.00233820 -0.01606693
v 0.05271439 0.00180102 -0.01109513
v 0.05236105 0.00259163 0.00772090
v 0.05302274 0.00295551 0.01289642
v 0.05312465 0.00185544 0.01746840
v 0.05289032 0.00624727 0.01837483
f 3 2 1
f 5 4 1
f 5 1 2
f 7 6 4
f 7 4 5
f 8 6 7
f 11 10 9
f 13 12 9
f 13 9 10
f 15 14 12
f 15 12 13
f 16 14 15
f 17 3 1
f 17 1 4
f 17 4 18
f 18 4 6
f 18 6 19
f 19 6 8
f 20 11 9
f 20 9 12
f 20 12 21
f 21 12 14
f 21 14 22
f 22 14 16
f 25 24 23
f 27 26 23
f 27 23 24
f 28 26 27
f 30 29 2
f 30 2 3
f 2 31 5
f 29 31 2
f 5 32 7
f 31 32 5
f 23 33 8
f 32 23 8
f 7 32 8
f 25 23 32
f 34 23 26
f 33 23 34
f 35 10 11
f 26 35 11
f 34 26 11
f 35 26 28
f 10 36 13
f 35 36 10
f 13 37 15
f 36 37 13
f 16 15 37
f 16 37 38
f 39 30 3
f 39 3 17
f 40 17 18
f 40 39 17
f 41 18 19
f 41 40 18
f 41 19 8
f 42 41 8
f 33 42 8
f 41 42 43
f 44 33 34
f 42 33 44
f 20 45 11
f 45 34 11
f 45 44 34
f 21 46 20
f 20 46 45
f 22 47 21
f 21 47 46
f 48 47 22
f 16 48 22
f 38 48 16
f 49 43 42
f 49 42 44
f 49 44 50
f 50 44 45
f 50 45 51
f 53 52 51
f 45 53 51
f 46 53 45
f 54 46 47
f 53 46 54
f 47 48 55
f 47 55 54
f 56 52 53
f 56 53 54
f 56 54 57
f 57 54 55
f 60 59 58
f 62 61 58
f 62 58 59
f 63 61 62
f 60 58 24
f 25 60 24
f 64 60 25
f 24 58 27
f 27 58 61
f 28 27 61
f 63 28 61
f 65 28 63
f 30 66 29
f 67 31 29
f 67 29 66
f 68 32 31
f 68 31 67
f 68 69 32
f 69 25 32
f 69 64 25
f 35 28 70
f 28 71 70
f 28 65 71
f 72 36 35
f 72 35 70
f 73 37 36
f 73 36 72
f 73 38 37
f 39 66 30
f 66 39 40
f 66 40 67
f 41 74 40
f 74 75 40
f 76 40 75
f 40 76 67
f 77 67 76
f 67 77 74
f 74 68 67
f 41 68 74
f 74 77 75
f 75 77 43
f 77 69 43
f 68 41 43
f 68 43 69
f 71 78 70
f 70 78 72
f 72 78 79
f 72 79 73
f 73 79 80
f 38 73 80
f 81 38 80
f 48 38 81
f 84 83 82
f 86 85 82
f 86 82 83
f 85 86 76
f 75 85 76
f 87 85 75
f 49 88 43
f 88 75 43
f 88 87 75
f 50 89 49
f 49 89 88
f 51 90 50
f 50 90 89
f 52 90 51
f 81 55 48
f 91 55 81
f 84 82 92
f 84 92 93
f 85 95 94
f 92 85 94
f 82 85 92
f 95 85 87
f 95 87 96
f 96 87 88
f 96 88 97
f 97 88 89
f 97 89 98
f 98 89 90
f 98 90 99
f 99 90 52
f 56 99 52
f 100 99 56
f 101 56 57
f 101 100 56
f 57 55 91
f 57 91 101
f 102 93 92
f 102 92 94
f 104 103 59
f 104 59 60
f 59 105 62
f 103 105 59
f 63 62 105
f 63 105 106
f 64 104 60
f 64 107 104
f 106 65 63
f 108 65 106
f 69 107 64
f 69 109 107
f 108 71 65
f 110 71 108
f 112 111 77
f 112 77 76
f 69 77 109
f 109 77 111
f 78 71 113
f 71 114 113
f 71 110 114
f 115 79 78
f 115 78 113
f 116 80 79
f 116 79 115
f 116 81 80
f 84 117 83
f 83 117 118
f 119 83 118
f 86 83 119
f 76 86 112
f 112 86 119
f 122 121 120
f 124 123 120
f 123 113 120
f 114 122 120
f 114 120 113
f 126 125 123
f 125 113 123
f 125 115 113
f 115 127 116
f 115 125 127
f 127 91 81
f 127 81 116
f 93 128 117
f 93 117 84
f 95 129 94
f 129 117 94
f 117 128 94
f 117 129 118
f 130 95 96
f 130 129 95
f 131 96 97
f 131 130 96
f 98 120 121
f 131 98 121
f 97 98 131
f 132 124 120
f 98 132 120
f 99 132 98
f 100 125 126
f 132 100 126
f 99 100 132
f 125 100 101
f 125 101 127
f 127 101 91
f 102 128 93
f 128 102 94
f 134 133 103
f 134 103 104
f 103 135 105
f 133 135 103
f 106 105 135
f 106 135 136
f 107 134 104
f 107 137 134
f 136 108 106
f 138 108 136
f 109 137 107
f 109 139 137
f 138 110 108
f 140 110 138
f 112 141 111
f 141 142 111
f 142 109 111
f 142 139 109
f 140 114 110
f 143 114 140
f 118 144 119
f 141 112 119
f 144 141 119
f 145 141 144
f 142 141 146
f 141 147 146
f 141 145 147
f 121 122 147
f 122 146 147
f 122 148 146
f 143 149 114
f 143 123 149
f 123 143 150
f 148 150 143
f 150 148 124
f 149 124 148
f 148 122 149
f 149 122 114
f 123 124 149
f 150 126 123
f 129 144 118
f 144 129 130
f 144 130 145
f 145 130 131
f 145 131 147
f 147 131 121
f 132 150 124
f 150 132 126
f 153 152 151
f 155 154 151
f 155 151 152
f 157 156 154
f 157 154 155
f 159 158 156
f 159 156 157
f 161 160 158
f 161 158 159
f 162 160 161
f 163 153 151
f 165 164 163
f 151 165 163
f 154 165 151
f 166 154 156
f 165 154 166
f 167 156 158
f 166 156 167
f 168 158 160
f 167 158 168
f 160 162 169
f 160 169 168
f 164 165 170
f 164 170 171
f 172 165 166
f 170 165 172
f 173 166 167
f 172 166 173
f 174 167 168
f 173 167 174
f 168 169 175
f 168 175 174
f 171 170 133
f 134 171 133
f 176 171 134
f 133 170 135
f 135 170 172
f 135 172 136
f 172 177 136
f 172 173 177
f 178 173 174
f 177 173 178
f 174 175 179
f 174 179 178
f 137 176 134
f 137 180 176
f 181 138 177
f 177 138 136
f 182 177 178
f 181 177 182
f 178 179 183
f 178 183 182
f 139 180 137
f 139 184 180
f 185 140 181
f 181 140 138
f 186 181 182
f 185 181 186
f 182 183 187
f 182 187 186
f 142 184 139
f 142 188 184
f 189 143 185
f 185 143 140
f 190 185 186
f 189 185 190
f 186 187 191
f 186 191 190
f 142 146 192
f 193 142 192
f 188 142 193
f 148 194 146
f 146 194 192
f 143 189 148
f 189 194 148
f 189 195 194
f 196 189 190
f 195 189 196
f 190 191 197
f 190 197 196
f 200 199 198
f 198 199 193
f 192 198 193
f 201 198 192
f 202 192 194
f 201 192 202
f 203 194 195
f 202 194 203
f 196 205 204
f 203 196 204
f 195 196 203
f 205 196 197
f 206 200 198
f 206 198 201
f 206 201 207
f 207 201 202
f 207 202 208
f 208 202 203
f 208 203 209
f 209 203 204
f 211 210 152
f 211 152 153
f 152 212 155
f 210 212 152
f 155 213 157
f 212 213 155
f 157 214 159
f 213 214 157
f 159 215 161
f 214 215 159
f 162 161 215
f 162 215 216
f 153 163 217
f 218 153 217
f 211 153 218
f 164 217 163
f 216 169 162
f 219 169 216
f 222 221 220
f 220 221 218
f 217 220 218
f 223 220 217
f 171 223 164
f 164 223 217
f 219 175 169
f 224 175 219
f 225 222 220
f 225 220 223
f 225 223 226
f 171 176 223
f 176 227 223
f 227 226 223
f 227 176 228
f 230 229 228
f 228 229 227
f 232 231 230
f 230 231 229
f 232 233 231
f 224 179 175
f 234 179 224
f 180 235 228
f 180 228 176
f 228 236 230
f 228 235 236
f 230 237 232
f 230 236 237
f 233 232 238
f 238 232 237
f 234 183 179
f 239 183 234
f 184 240 235
f 184 235 180
f 235 241 236
f 235 240 241
f 236 242 237
f 236 241 242
f 238 237 243
f 243 237 242
f 239 187 183
f 244 187 239
f 247 246 245
f 249 248 245
f 249 245 246
f 249 250 240
f 188 249 240
f 184 188 240
f 248 249 188
f 240 250 241
f 241 250 251
f 241 251 242
f 242 251 252
f 242 252 243
f 244 191 187
f 253 191 244
f 254 247 245
f 254 245 248
f 254 248 255
f 248 188 255
f 188 256 255
f 188 193 256
f 253 197 191
f 257 197 253
f 200 258 199
f 258 259 199
f 259 193 199
f 259 256 193
f 260 204 205
f 261 260 205
f 197 261 205
f 257 261 197
f 206 258 200
f 262 259 258
f 206 262 258
f 207 262 206
f 263 207 208
f 263 262 207
f 264 208 209
f 264 263 208
f 209 204 260
f 265 209 260
f 264 209 265
f 265 260 261
f 267 266 210
f 267 210 211
f 210 268 212
f 266 268 210
f 212 269 213
f 268 269 212
f 213 270 214
f 269 270 213
f 214 271 215
f 270 271 214
f 216 215 271
f 216 271 272
f 275 274 273
f 277 276 273
f 277 273 274
f 277 267 276
f 267 218 276
f 267 211 218
f 272 219 216
f 278 219 272
f 275 273 279
f 275 279 280
f 222 279 221
f 279 276 221
f 279 273 276
f 221 276 218
f 278 224 219
f 281 224 278
f 282 280 279
f 282 279 222
f 225 282 222
f 283 282 225
f 284 225 226
f 284 283 225
f 285 226 227
f 285 284 226
f 286 227 229
f 286 285 227
f 287 229 231
f 287 286 229
f 231 233 287
f 287 233 288
f 281 234 224
f 289 234 281
f 238 288 233
f 238 290 288
f 289 239 234
f 291 239 289
f 243 290 238
f 243 292 290
f 291 244 239
f 293 244 291
f 296 295 294
f 246 247 294
f 295 246 294
f 297 246 295
f 246 298 249
f 297 298 246
f 249 299 250
f 298 299 249
f 250 300 251
f 299 300 250
f 251 301 252
f 300 301 251
f 243 252 292
f 292 252 301
f 293 253 244
f 302 253 293
f 303 296 294
f 303 294 247
f 254 303 247
f 304 303 254
f 305 254 255
f 305 304 254
f 255 256 305
f 305 256 306
f 302 257 253
f 307 257 302
f 259 306 256
f 259 308 306
f 307 261 257
f 309 261 307
f 310 308 259
f 310 259 262
f 311 262 263
f 311 310 262
f 312 263 264
f 312 311 263
f 313 264 265
f 313 312 264
f 265 261 309
f 265 309 313
f 267 314 266
f 266 314 315
f 316 266 315
f 268 266 316
f 268 317 269
f 316 317 268
f 269 318 270
f 317 318 269
f 270 319 271
f 318 319 270
f 272 271 319
f 272 319 320
f 275 321 274
f 322 277 274
f 322 274 321
f 314 267 277
f 322 314 277
f 323 314 322
f 315 314 324
f 314 325 324
f 314 323 325
f 327 326 325
f 325 326 324
f 329 328 327
f 327 328 326
f 329 330 328
f 320 278 272
f 331 278 320
f 280 332 321
f 280 321 275
f 321 333 322
f 321 332 333
f 322 334 323
f 322 333 334
f 323 335 325
f 323 334 335
f 325 336 327
f 325 335 336
f 327 337 329
f 327 336 337
f 330 329 338
f 338 329 337
f 331 281 278
f 339 281 331
f 282 332 280
f 332 282 283
f 332 283 333
f 333 283 284
f 333 284 334
f 334 284 285
f 334 285 335
f 335 285 286
f 335 286 336
f 336 286 287
f 336 287 337
f 287 288 337
f 288 338 337
f 288 340 338
f 339 289 281
f 341 289 339
f 290 340 288
f 290 342 340
f 341 291 289
f 343 291 341
f 292 342 290
f 292 344 342
f 343 293 291
f 345 293 343
f 296 346 295
f 347 297 295
f 347 295 346
f 348 298 297
f 348 297 347
f 349 299 298
f 349 298 348
f 350 300 299
f 350 299 349
f 351 301 300
f 351 300 350
f 351 352 301
f 352 292 301
f 352 344 292
f 345 302 293
f 353 302 345
f 303 346 296
f 346 303 304
f 346 304 347
f 347 304 305
f 347 305 348
f 348 305 306
f 354 348 306
f 349 348 354
f 349 355 350
f 349 354 355
f 350 356 351
f 350 355 356
f 352 351 357
f 357 351 356
f 353 307 302
f 358 307 353
f 360 359 354
f 306 360 354
f 308 360 306
f 354 359 355
f 355 359 361
f 355 361 356
f 356 361 362
f 356 362 357
f 358 309 307
f 363 309 358
f 364 360 308
f 364 308 310
f 365 310 311
f 365 364 310
f 366 311 312
f 366 365 311
f 367 312 313
f 367 366 312
f 313 309 363
f 313 363 367
f 369 368 316
f 369 316 315
f 316 370 317
f 368 370 316
f 317 371 318
f 370 371 317
f 318 372 319
f 371 372 318
f 320 319 372
f 320 372 373
f 374 369 315
f 374 315 324
f 375 324 326
f 375 374 324
f 376 326 328
f 376 375 326
f 328 330 376
f 376 330 377
f 373 331 320
f 378 331 373
f 338 377 330
f 338 379 377
f 378 339 331
f 380 339 378
f 340 379 338
f 340 381 379
f 380 341 339
f 382 341 380
f 342 381 340
f 342 383 381
f 382 343 341
f 384 343 382
f 344 383 342
f 344 385 383
f 384 345 343
f 386 345 384
f 352 385 344
f 352 387 385
f 386 353 345
f 388 353 386
f 357 387 352
f 357 389 387
f 388 358 353
f 390 358 388
f 392 391 359
f 392 359 360
f 359 393 361
f 391 393 359
f 361 394 362
f 393 394 361
f 357 362 389
f 389 362 394
f 390 363 358
f 395 363 390
f 396 392 360
f 396 360 364
f 397 364 365
f 397 396 364
f 398 365 366
f 398 397 365
f 399 366 367
f 399 398 366
f 367 363 395
f 367 395 399
f 401 400 368
f 401 368 369
f 368 402 370
f 400 402 368
f 370 403 371
f 402 403 370
f 371 404 372
f 403 404 371
f 373 372 404
f 373 404 405
f 406 401 369
f 406 369 374
f 407 374 375
f 407 406 374
f 408 375 376
f 408 407 375
f 376 377 408
f 408 377 409
f 405 378 373
f 410 378 405
f 379 409 377
f 379 411 409
f 410 380 378
f 412 380 410
f 381 411 379
f 381 413 411
f 412 382 380
f 414 382 412
f 383 413 381
f 383 415 413
f 414 384 382
f 416 384 414
f 385 415 383
f 385 417 415
f 416 386 384
f 418 386 416
f 387 417 385
f 387 419 417
f 418 388 386
f 420 388 418
f 389 419 387
f 389 421 419
f 420 390 388
f 422 390 420
f 424 423 391
f 424 391 392
f 391 425 393
f 423 425 391
f 393 426 394
f 425 426 393
f 389 394 421
f 421 394 426
f 422 395 390
f 427 395 422
f 428 424 392
f 428 392 396
f 429 396 397
f 429 428 396
f 430 397 398
f 430 429 397
f 431 398 399
f 431 430 398
f 399 395 427
f 399 427 431
f 433 432 400
f 433 400 401
f 400 434 402
f 432 434 400
f 402 435 403
f 434 435 402
f 403 436 404
f 435 436 403
f 405 404 436
f 405 436 437
f 440 439 438
f 442 441 438
f 442 438 439
f 444 443 441
f 444 441 442
f 445 443 406
f 443 433 406
f 433 401 406
f 433 443 444
f 407 446 406
f 406 446 445
f 408 447 407
f 407 447 446
f 409 447 408
f 437 410 405
f 448 410 437
f 440 438 449
f 440 449 450
f 451 438 441
f 449 438 451
f 452 441 443
f 451 441 452
f 453 443 445
f 452 443 453
f 454 445 446
f 453 445 454
f 455 446 447
f 454 446 455
f 411 455 409
f 409 455 447
f 448 412 410
f 456 412 448
f 457 450 449
f 457 449 451
f 457 451 458
f 458 451 452
f 458 452 459
f 459 452 453
f 459 453 460
f 460 453 454
f 460 454 461
f 461 454 455
f 461 455 462
f 455 411 462
f 411 463 462
f 411 413 463
f 456 414 412
f 464 414 456
f 415 463 413
f 415 465 463
f 464 416 414
f 466 416 464
f 417 465 415
f 417 467 465
f 466 418 416
f 468 418 466
f 471 470 469
f 473 472 469
f 473 469 470
f 475 474 472
f 475 472 473
f 477 476 474
f 477 474 475
f 479 478 476
f 479 476 477
f 481 480 478
f 481 478 479
f 481 467 480
f 467 419 480
f 467 417 419
f 468 420 418
f 482 420 468
f 483 471 469
f 483 469 472
f 483 472 484
f 484 472 474
f 484 474 485
f 487 486 485
f 474 487 485
f 476 487 474
f 488 476 478
f 487 476 488
f 489 478 480
f 488 478 489
f 421 489 419
f 419 489 480
f 482 422 420
f 490 422 482
f 486 487 423
f 424 486 423
f 491 486 424
f 423 487 425
f 425 487 488
f 425 488 426
f 426 488 489
f 426 489 421
f 490 427 422
f 492 427 490
f 493 491 424
f 493 424 428
f 494 428 429
f 494 493 428
f 495 429 430
f 495 494 429
f 496 430 431
f 496 495 430
f 431 427 492
f 431 492 496
f 498 497 432
f 498 432 433
f 432 499 434
f 497 499 432
f 434 500 435
f 499 500 434
f 435 501 436
f 500 501 435
f 437 436 501
f 437 501 502
f 504 503 439
f 504 439 440
f 439 505 442
f 503 505 439
f 442 506 444
f 505 506 442
f 433 444 498
f 498 444 506
f 502 448 437
f 507 448 502
f 450 504 440
f 450 508 504
f 507 456 448
f 509 456 507
f 510 508 450
f 510 450 457
f 511 457 458
f 511 510 457
f 512 458 459
f 512 511 458
f 513 459 460
f 513 512 459
f 514 460 461
f 514 513 460
f 515 461 462
f 515 514 461
f 462 463 515
f 515 463 516
f 509 464 456
f 517 464 509
f 465 516 463
f 465 518 516
f 517 466 464
f 519 466 517
f 467 518 465
f 467 520 518
f 519 468 466
f 521 468 519
f 523 522 470
f 523 470 471
f 470 524 473
f 522 524 470
f 473 525 475
f 524 525 473
f 475 526 477
f 525 526 475
f 477 527 479
f 526 527 477
f 479 528 481
f 527 528 479
f 467 481 520
f 520 481 528
f 521 482 468
f 529 482 521
f 530 523 471
f 530 471 483
f 531 483 484
f 531 530 483
f 532 484 485
f 532 531 484
f 485 486 532
f 532 486 533
f 529 490 482
f 534 490 529
f 491 533 486
f 491 535 533
f 534 492 490
f 536 492 534
f 537 535 491
f 537 491 493
f 538 493 494
f 538 537 493
f 539 494 495
f 539 538 494
f 540 495 496
f 540 539 495
f 496 492 536
f 496 536 540
f 542 541 497
f 542 497 498
f 497 543 499
f 541 543 497
f 499 544 500
f 543 544 499
f 500 545 501
f 544 545 500
f 502 501 545
f 502 545 546
f 504 547 503
f 548 505 503
f 548 503 547
f 549 506 505
f 549 505 548
f 549 550 506
f 550 498 506
f 550 542 498
f 546 507 502
f 551 507 546
f 508 552 547
f 508 547 504
f 547 553 548
f 547 552 553
f 548 554 549
f 548 553 554
f 550 549 555
f 555 549 554
f 551 509 507
f 556 509 551
f 510 552 508
f 552 510 511
f 552 511 553
f 553 511 512
f 553 512 554
f 512 513 554
f 513 557 554
f 557 555 554
f 513 558 557
f 514 559 513
f 513 559 558
f 515 560 514
f 514 560 559
f 516 560 515
f 556 517 509
f 561 517 556
f 557 558 562
f 557 562 563
f 564 558 559
f 562 558 564
f 565 559 560
f 564 559 565
f 518 565 516
f 516 565 560
f 561 519 517
f 566 519 561
f 563 562 567
f 563 567 568
f 569 562 564
f 567 562 569
f 570 564 565
f 569 564 570
f 520 570 518
f 518 570 565
f 566 521 519
f 571 521 566
f 523 572 522
f 573 524 522
f 573 522 572
f 574 525 524
f 574 524 573
f 575 568 567
f 525 575 567
f 526 525 567
f 575 525 574
f 526 567 527
f 527 567 569
f 527 569 528
f 528 569 570
f 528 570 520
f 571 529 521
f 576 529 571
f 530 572 523
f 572 530 531
f 572 531 573
f 573 531 532
f 573 532 574
f 532 533 574
f 533 575 574
f 533 577 575
f 576 534 529
f 578 534 576
f 535 577 533
f 535 579 577
f 582 581 580
f 584 583 580
f 580 583 582
f 578 583 584
f 536 578 584
f 534 578 536
f 585 579 535
f 585 535 537
f 586 537 538
f 586 585 537
f 539 580 581
f 586 539 581
f 538 539 586
f 580 539 540
f 580 540 584
f 584 540 536
f 542 587 541
f 588 543 541
f 588 541 587
f 589 544 543
f 589 543 588
f 590 545 544
f 590 544 589
f 590 546 545
f 550 591 587
f 550 587 542
f 587 592 588
f 587 591 592
f 588 593 589
f 588 592 593
f 589 594 590
f 589 593 594
f 594 551 546
f 594 546 590
f 555 595 591
f 555 591 550
f 591 596 592
f 591 595 596
f 592 597 593
f 592 596 597
f 593 598 594
f 593 597 598
f 598 556 551
f 598 551 594
f 557 599 595
f 557 595 555
f 595 600 596
f 595 599 600
f 596 601 597
f 596 600 601
f 597 602 598
f 597 601 602
f 602 561 556
f 602 556 598
f 604 603 599
f 557 604 599
f 563 604 557
f 599 603 600
f 600 603 605
f 607 606 605
f 606 600 605
f 606 601 600
f 601 608 602
f 601 606 608
f 608 566 561
f 608 561 602
f 568 604 563
f 568 609 604
f 606 607 610
f 610 607 611
f 606 612 608
f 606 610 612
f 612 571 566
f 612 566 608
f 575 609 568
f 575 613 609
f 610 611 614
f 614 611 615
f 610 616 612
f 610 614 616
f 616 576 571
f 616 571 612
f 577 618 617
f 613 577 617
f 575 577 613
f 620 619 618
f 618 619 617
f 619 620 615
f 620 614 615
f 620 621 614
f 614 622 616
f 614 621 622
f 622 578 576
f 622 576 616
f 579 623 618
f 579 618 577
f 618 624 620
f 618 623 624
f 624 581 582
f 621 624 582
f 620 624 621
f 621 582 583
f 621 583 622
f 622 583 578
f 585 623 579
f 623 585 586
f 623 586 624
f 624 586 581
f 627 626 625
f 629 628 625
f 629 625 626
f 630 628 629
f 627 625 603
f 604 627 603
f 631 627 604
f 603 625 605
f 605 625 628
f 607 605 628
f 630 607 628
f 632 607 630
f 609 631 604
f 609 633 631
f 632 611 607
f 634 611 632
f 637 636 635
f 636 633 635
f 633 613 635
f 633 609 613
f 634 615 611
f 638 615 634
f 641 640 639
f 639 640 637
f 635 639 637
f 642 639 635
f 617 643 613
f 643 635 613
f 643 642 635
f 643 617 644
f 617 645 644
f 617 619 645
f 638 646 615
f 646 647 615
f 648 615 647
f 615 648 619
f 649 619 648
f 619 649 646
f 646 645 619
f 638 645 646
f 646 649 647
f 651 650 648
f 651 648 647
f 653 652 650
f 653 650 651
f 654 652 653
f 655 641 639
f 655 639 642
f 655 642 656
f 656 642 643
f 656 643 657
f 657 643 644
f 658 649 648
f 658 648 650
f 658 650 659
f 659 650 652
f 659 652 660
f 660 652 654
f 662 661 626
f 662 626 627
f 626 663 629
f 661 663 626
f 630 629 663
f 630 663 664
f 631 662 627
f 631 665 662
f 664 632 630
f 666 632 664
f 633 665 631
f 633 667 665
f 666 634 632
f 668 634 666
f 670 669 636
f 670 636 637
f 633 636 667
f 667 636 669
f 672 638 671
f 638 668 671
f 638 634 668
f 674 673 672
f 674 672 671
f 676 675 673
f 676 673 674
f 677 675 676
f 680 679 678
f 640 641 678
f 679 640 678
f 681 640 679
f 637 640 670
f 670 640 681
f 682 644 645
f 645 638 682
f 638 672 682
f 647 649 682
f 647 682 672
f 647 672 651
f 651 672 673
f 651 673 653
f 653 673 675
f 654 653 675
f 677 654 675
f 683 654 677
f 680 678 684
f 680 684 685
f 684 678 641
f 686 684 641
f 655 686 641
f 687 684 686
f 688 655 656
f 688 686 655
f 689 656 657
f 689 688 656
f 657 644 682
f 690 657 682
f 689 657 690
f 690 682 649
f 658 690 649
f 691 690 658
f 692 658 659
f 692 691 658
f 694 692 693
f 692 660 693
f 692 659 660
f 695 693 660
f 654 695 660
f 683 695 654
f 696 685 684
f 696 684 687
f 697 694 693
f 697 693 695
f 662 698 661
f 699 663 661
f 699 661 698
f 699 664 663
f 701 700 698
f 662 701 698
f 665 701 662
f 698 700 699
f 699 700 702
f 664 699 702
f 703 664 702
f 666 664 703
f 706 705 704
f 708 707 704
f 708 704 705
f 710 709 707
f 710 707 708
f 710 701 709
f 701 667 709
f 701 665 667
f 712 668 711
f 668 703 711
f 668 666 703
f 714 713 712
f 714 712 711
f 716 715 713
f 716 713 714
f 717 715 716
f 718 706 704
f 718 704 707
f 718 707 719
f 719 721 720
f 719 722 721
f 722 719 670
f 707 670 719
f 670 707 669
f 721 669 707
f 707 709 721
f 721 709 720
f 722 669 721
f 720 709 723
f 709 667 723
f 669 722 723
f 669 723 667
f 712 671 668
f 671 712 674
f 674 712 713
f 674 713 676
f 676 713 715
f 677 676 715
f 717 677 715
f 724 677 717
f 680 725 679
f 726 681 679
f 726 679 725
f 722 670 681
f 726 722 681
f 727 722 726
f 723 722 728
f 722 729 728
f 722 727 729
f 731 730 729
f 729 730 728
f 733 732 731
f 731 732 730
f 733 734 732
f 724 683 677
f 735 683 724
f 685 736 725
f 685 725 680
f 736 687 686
f 726 736 686
f 725 736 726
f 726 686 688
f 726 688 727
f 727 688 689
f 727 689 729
f 729 689 690
f 729 690 731
f 731 690 691
f 731 691 733
f 737 734 733
f 691 737 733
f 692 737 691
f 739 738 694
f 738 692 694
f 738 737 692
f 735 738 739
f 695 735 739
f 683 735 695
f 696 736 685
f 736 696 687
f 697 739 694
f 739 697 695
f 701 740 700
f 741 702 700
f 741 700 740
f 741 703 702
f 743 742 705
f 743 705 706
f 705 744 708
f 742 744 705
f 708 745 710
f 744 745 708
f 710 745 701
f 745 746 701
f 746 740 701
f 746 745 747
f 740 748 741
f 740 746 748
f 741 748 703
f 748 749 703
f 749 711 703
f 748 750 749
f 711 751 714
f 749 751 711
f 714 752 716
f 751 752 714
f 717 716 752
f 717 752 753
f 754 743 706
f 754 706 718
f 755 718 719
f 755 754 718
f 756 719 720
f 756 755 719
f 757 746 723
f 746 756 723
f 756 720 723
f 746 747 756
f 746 758 748
f 746 757 758
f 750 748 759
f 748 760 759
f 748 758 760
f 762 761 760
f 760 761 759
f 762 763 761
f 753 724 717
f 764 724 753
f 728 757 723
f 757 728 730
f 757 730 758
f 758 730 732
f 758 732 760
f 760 732 734
f 765 760 734
f 762 760 765
f 763 762 766
f 762 767 766
f 762 765 767
f 764 766 767
f 735 764 767
f 724 764 735
f 737 765 734
f 765 737 738
f 765 738 767
f 767 738 735
f 743 768 742
f 769 744 742
f 769 742 768
f 770 745 744
f 770 744 769
f 770 747 745
f 750 771 749
f 772 751 749
f 772 749 771
f 773 752 751
f 773 751 772
f 773 753 752
f 754 768 743
f 768 754 755
f 768 755 769
f 769 755 756
f 769 756 770
f 770 756 747
f 759 771 750
f 771 759 761
f 771 761 772
f 772 761 763
f 774 772 763
f 773 772 774
f 774 764 753
f 774 753 773
f 766 774 763
f 774 766 764

