# https://github.com/mikedh/trimesh
v -0.04041045 0.00845795 0.00354553
v -0.03878691 0.00676713 0.00191033
v -0.03839292 0.00939322 -0.00007881
v -0.04071660 0.00881803 0.00803699
v -0.03917310 0.00584568 0.00673757
v -0.04073151 0.00891780 0.01370830
v -0.03916426 0.00580348 0.01235656
v -0.04039900 0.00941158 0.01820090
v -0.03920165 0.00627101 0.01762036
v -0.03876874 0.00814008 0.02095344
v -0.03794480 0.01102133 0.00319395
v -0.03850381 0.01119026 0.00928908
v -0.03841223 0.01129033 0.01502516
v -0.03767129 0.01095896 0.02029608
v -0.03538722 0.00367079 -0.00700915
v -0.03178446 0.00103904 -0.00876228
v -0.03366115 0.00478308 -0.01109145
v -0.03550023 0.00299194 -0.00225901
v -0.03277567 0.00090223 -0.00298453
v -0.03619074 0.00360872 0.00305692
v -0.03329296 0.00109368 0.00177052
v -0.03608396 0.00300652 0.00951507
v -0.03200027 0.00039959 0.00733414
v -0.03609787 0.00302771 0.01506636
v -0.03312149 0.00107684 0.01281465
v -0.03616992 0.00389754 0.02076011
v -0.03197528 0.00029774 0.01836792
v -0.03546118 0.00302764 0.02588084
v -0.03263957 0.00083081 0.02487235
v -0.03500778 0.00447772 0.02947229
v -0.03346068 0.00135407 0.02957345
v -0.03231864 0.00269561 0.03207763
v -0.03520113 0.00769984 -0.00870536
v -0.03267718 0.00909720 -0.01147875
v -0.03634462 0.00758530 -0.00347021
v -0.03626462 0.00777330 0.02445433
v -0.03383131 0.00825687 0.02738916
v -0.03171963 0.00588102 0.02998659
v -0.03217787 0.01112046 -0.00790503
v -0.03434509 0.01131309 -0.00224608
v -0.03226691 0.01117673 0.00132782
v -0.03399868 0.01110293 0.00646352
v -0.03401288 0.01115584 0.01202229
v -0.03384647 0.01127199 0.01773502
v -0.03358130 0.01061434 0.02314763
v -0.03016612 -0.01843031 -0.02361762
v -0.02642673 -0.02129076 -0.02543441
v -0.02831888 -0.01739141 -0.02774167
v -0.03047508 -0.01845531 -0.01841526
v -0.02747813 -0.02156943 -0.01961295
v -0.03044218 -0.01847487 -0.01285212
v -0.02744255 -0.02157803 -0.01412195
v -0.03045326 -0.01840281 -0.00722323
v -0.02748073 -0.02160299 -0.00856527
v -0.02989170 -0.01790369 -0.00283238
v -0.02746075 -0.02118747 -0.00321575
v -0.02731097 -0.01919188 0.00004589
v -0.02998849 -0.01436687 -0.02534462
v -0.02744148 -0.01313345 -0.02813121
v -0.03048190 -0.01385686 -0.02102818
v -0.03042690 -0.01376424 -0.01542679
v -0.03043320 -0.01377925 -0.00980562
v -0.03007526 -0.01381121 -0.00446808
v -0.02813141 -0.01490256 -0.00026150
v -0.02700611 -0.01096562 -0.02431183
v -0.02743775 -0.01069114 -0.01815805
v -0.02738158 -0.01072377 -0.01253772
v -0.02733321 -0.01069753 -0.00700589
v -0.02658407 -0.01110206 -0.00172617
v -0.02922274 -0.00190379 0.00869219
v -0.02634552 -0.00480096 0.00889739
v -0.02800129 -0.00267028 0.00597917
v -0.02683383 -0.00268187 0.01100098
v -0.02924969 -0.00207409 0.01973881
v -0.02590976 -0.00403097 0.01842761
v -0.02843988 -0.00201798 0.01660826
v -0.02687310 -0.00296675 0.02221557
v -0.02991174 0.00367037 -0.01809325
v -0.02641535 0.00107471 -0.02007648
v -0.02717918 0.00484730 -0.02254718
v -0.03127172 0.00293832 -0.01365062
v -0.02858938 0.00077040 -0.01396122
v -0.02679243 -0.00037175 -0.00933411
v -0.02840018 -0.00027285 -0.00411506
v -0.02886045 -0.00042301 0.00181678
v -0.02930482 -0.00071267 0.01282428
v -0.02897738 -0.00079738 0.02371619
v -0.02889385 0.00018503 0.02955972
v -0.02742652 0.00230522 0.03259096
v -0.02956584 0.00778478 -0.01993738
v -0.02655255 0.00912827 -0.02167143
v -0.03078757 0.00774066 -0.01537900
v -0.03009320 0.00870707 0.00400474
v -0.02831293 0.00913894 0.00001329
v -0.02593532 0.00647142 0.00215554
v -0.02703079 0.00631951 0.00797380
v -0.03044363 0.00872362 0.00917216
v -0.02689365 0.00641487 0.01347520
v -0.03025075 0.00885038 0.01473718
v -0.02677504 0.00663578 0.01907535
v -0.03028208 0.00903755 0.02042801
v -0.02761357 0.00680284 0.02543314
v -0.03126398 0.00869599 0.02533968
v -0.02696049 0.00545775 0.03075883
v -0.02773067 0.01077725 -0.01880353
v -0.02764387 0.01100921 -0.01432708
v -0.02751970 0.01111362 -0.00951914
v -0.02867190 0.01099996 -0.00402198
v -0.02540510 -0.01916195 -0.03006821
v -0.02138249 -0.02135871 -0.03058260
v -0.02251986 -0.01736099 -0.03345726
v -0.02143916 -0.02222178 -0.02424672
v -0.02309276 -0.02229351 -0.02022875
v -0.02223968 -0.02170448 -0.01447705
v -0.02196050 -0.02164498 -0.00816958
v -0.02222575 -0.02227154 -0.00287452
v -0.02473242 -0.01749194 0.00286012
v -0.02252137 -0.02136265 0.00224692
v -0.02135442 -0.01935038 0.00564068
v -0.02504282 -0.01487383 -0.03093407
v -0.02167626 -0.01307386 -0.03384788
v -0.02504485 -0.01312426 0.00205875
v -0.02176707 -0.01435502 0.00504824
v -0.02212555 -0.01087595 -0.02987452
v -0.02149497 -0.01002469 -0.02426069
v -0.02306117 -0.00997556 -0.02014587
v -0.02189018 -0.01066683 -0.01514428
v -0.02280099 -0.01079852 -0.00956722
v -0.02177053 -0.00963248 -0.00340853
v -0.02278250 -0.01071238 0.00159621
v -0.02214822 -0.00715093 0.00512307
v -0.02441340 -0.00670177 0.00716647
v -0.02145435 -0.00966542 0.00748521
v -0.02232190 -0.00835342 0.01016125
v -0.02453399 -0.00222172 -0.00659198
v -0.02079341 -0.00403809 -0.00935160
v -0.02288476 -0.00198853 -0.01066282
v -0.02481903 -0.00217164 -0.00143155
v -0.02111669 -0.00480986 -0.00416503
v -0.02476005 -0.00357151 0.00340450
v -0.02180368 -0.00524216 0.00118596
v -0.02606537 -0.00273305 0.01413973
v -0.02300782 -0.00506215 0.01388812
v -0.02117361 -0.00508527 0.01973784
v -0.02512295 -0.00266588 0.02650188
v -0.02215701 -0.00485053 0.02444094
v -0.02465959 -0.00182233 0.03075276
v -0.02177738 -0.00433762 0.02943159
v -0.02147976 -0.00192168 0.03266313
v -0.02506825 0.00263707 -0.02489829
v -0.02216425 0.00126316 -0.02494778
v -0.02134996 0.00350915 -0.02693404
v -0.02129989 -0.00035661 -0.02075000
v -0.02333485 -0.00059792 -0.01481698
v -0.02232874 0.00264992 0.03266801
v -0.02207185 0.00525305 -0.02471156
v -0.02239827 0.00792873 -0.02218845
v -0.02440155 0.00888664 -0.01260475
v -0.02268692 0.00937817 -0.01673371
v -0.02024452 0.00680126 -0.01437997
v -0.02142624 0.00638135 -0.00860603
v -0.02477339 0.00871260 -0.00737219
v -0.02273249 0.00623730 -0.00311065
v -0.02554274 0.00820516 -0.00275813
v -0.02161040 0.00624141 0.00247067
v -0.02224338 0.00592025 0.00821560
v -0.02339784 0.00524455 0.01270415
v -0.02271064 0.00509176 0.01769590
v -0.02268909 0.00536215 0.02333986
v -0.02274523 0.00524863 0.02888323
v -0.02357871 0.01062043 -0.01967352
v -0.01973806 -0.01910187 -0.03588097
v -0.01597302 -0.02122890 -0.03548203
v -0.01695967 -0.01786705 -0.03842746
v -0.01580453 -0.02214788 -0.02999414
v -0.01732586 -0.02214253 -0.02579666
v -0.01741445 -0.02135751 -0.01955606
v -0.01878949 -0.01849673 -0.01334030
v -0.01627701 -0.01736292 -0.01673794
v -0.01921776 -0.01853954 -0.00891003
v -0.01645287 -0.01830145 -0.00556270
v -0.01610571 -0.02110686 -0.00220806
v -0.01648854 -0.02210869 0.00282368
v -0.01915677 -0.01756580 0.00920855
v -0.01756605 -0.02116767 0.00709324
v -0.01512724 -0.01914100 0.01077522
v -0.01935012 -0.01484469 -0.03675437
v -0.01525915 -0.01382489 -0.03862726
v -0.01915577 -0.01388666 -0.01303878
v -0.01715463 -0.01313248 -0.01641030
v -0.01915459 -0.01325991 -0.00824163
v -0.01644286 -0.01407865 -0.00629070
v -0.02005122 -0.01219818 0.00885972
v -0.01689093 -0.01628082 0.01300146
v -0.01849377 -0.01308087 0.01304550
v -0.01567289 -0.01335676 0.01519537
v -0.01709849 -0.01098383 -0.03494144
v -0.01590028 -0.01005189 -0.03000688
v -0.01736280 -0.01006937 -0.02586331
v -0.01677273 -0.01089369 -0.02026861
v -0.01717011 -0.00869894 -0.00550683
v -0.01986160 -0.00713126 -0.00156397
v -0.02052004 -0.00927971 0.00330700
v -0.01932633 -0.00847808 0.01352410
v -0.01573378 -0.00940514 0.01654990
v -0.01906436 -0.00243393 -0.01794852
v -0.01503511 -0.00439688 -0.02004441
v -0.01742092 -0.00212977 -0.02223089
v -0.02016141 -0.00278599 -0.01349551
v -0.01729858 -0.00444102 -0.01399846
v -0.01633556 -0.00569895 -0.00896094
v -0.01779172 -0.00591572 0.01803778
v -0.01635874 -0.00581961 0.02423976
v -0.01753439 -0.00483456 0.02998179
v -0.01650071 -0.00159410 0.03259830
v -0.01713689 -0.00037355 -0.02527176
v -0.01616696 0.00273323 -0.02730884
v -0.01922989 0.00361372 0.01388809
v -0.01631062 0.00339009 0.01129326
v -0.01519439 0.00101165 0.01376371
v -0.01611971 0.00082118 0.01897951
v -0.01936834 0.00307308 0.02044173
v -0.01589854 0.00106738 0.02484873
v -0.01925199 0.00329236 0.02622698
v -0.01560908 0.00050802 0.03007853
v -0.01914207 0.00255367 0.03074590
v -0.01663148 0.00551077 -0.02484110
v -0.01715593 0.00655261 -0.01943608
v -0.02024535 0.00850702 -0.01914628
v -0.01640981 0.00591854 -0.01386990
v -0.01630269 0.00514888 -0.00977551
v -0.01799846 0.00550365 -0.00319230
v -0.01938476 0.00910199 0.00282729
v -0.01603681 0.00807878 -0.00019756
v -0.01956430 0.00921374 0.00736313
v -0.01670201 0.00710991 0.01024154
v -0.01881446 0.01368106 0.00309096
v -0.01530142 0.01443900 0.00037732
v -0.01925733 0.01452105 0.00839460
v -0.01590814 0.01261831 0.01110211
v -0.01739736 0.01726369 0.00303766
v -0.01692894 0.02135283 0.00478371
v -0.01935157 0.01949953 0.00783001
v -0.01741903 0.01686582 0.01305361
v -0.01896347 0.02030883 0.01315488
v -0.01566940 0.01893742 0.01562577
v -0.01889306 0.02512147 0.00881780
v -0.01686687 0.02491871 0.00571861
v -0.01942148 0.02552496 0.01322721
v -0.01630792 0.02413417 0.01667604
v -0.01647650 0.02833705 0.00734724
v -0.01631412 0.03165432 0.01037762
v -0.01875047 0.02990043 0.01250836
v -0.01734503 0.02959158 0.01642501
v -0.01552909 0.03289844 0.01441019
v -0.00990196 -0.02145942 -0.03590557
v -0.01270116 -0.01835621 -0.03893644
v -0.01095841 -0.02216588 -0.03069424
v -0.01220920 -0.02147488 -0.02463598
v -0.01343153 -0.01908768 -0.02002386
v -0.01001425 -0.01836251 -0.02187288
v -0.01321313 -0.01801715 -0.00323125
v -0.01116945 -0.01996441 -0.00072889
v -0.01203324 -0.02196235 0.00242567
v -0.01213238 -0.02197354 0.00725688
v -0.00974500 -0.01986611 0.01110926
v -0.01004655 -0.01383415 -0.03890803
v -0.01383855 -0.01491148 -0.01914301
v -0.01049307 -0.01383416 -0.02145511
v -0.01090921 -0.01695997 -0.00292199
v -0.01225184 -0.01356263 -0.00568717
v -0.01187103 -0.01611881 0.01425437
v -0.01145894 -0.01298459 0.01699871
v -0.01130578 -0.01076677 -0.03592758
v -0.01114845 -0.01003780 -0.03070500
v -0.01154128 -0.01069978 -0.02484978
v -0.01334669 -0.00820678 -0.00805541
v -0.01022754 -0.01063817 -0.00902637
v -0.01070115 -0.00784647 -0.01062765
v -0.01110898 -0.01068331 0.01972562
v -0.01405974 -0.00782776 0.02065864
v -0.01277682 -0.00760744 0.02521807
v -0.01103986 -0.00955068 0.02345275
v -0.00919469 -0.00713920 0.02749668
v -0.01434030 -0.00299699 -0.02483416
v -0.01041376 -0.00457236 -0.02442954
v -0.01218599 -0.00123175 -0.02752815
v -0.01051575 -0.00515108 -0.01886629
v -0.01175891 -0.00555022 -0.01399657
v -0.01235749 -0.00501508 0.02994250
v -0.01184886 -0.00195233 0.03208621
v -0.00980861 0.00273018 -0.02779278
v -0.01360783 0.00274744 -0.00668008
v -0.01187316 0.00332246 -0.01070565
v -0.00946975 0.00078268 -0.00868030
v -0.01111908 0.00099141 -0.00388400
v -0.01396129 0.00342360 -0.00275128
v -0.01085342 0.00328378 -0.00089285
v -0.01253954 0.00346134 0.01088715
v -0.01004683 0.00062745 0.01368254
v -0.01133091 0.00016497 0.01892770
v -0.01196722 0.00039516 0.02396006
v -0.01059943 -0.00029968 0.02900095
v -0.01098016 0.00567980 -0.02477611
v -0.01160462 0.00630469 -0.02043691
v -0.01118137 0.00528590 -0.01487841
v -0.01126057 0.00844777 -0.00006928
v -0.01069749 0.00790205 0.01139147
v -0.01065118 0.01351250 -0.00035727
v -0.01186741 0.01189709 0.01327107
v -0.01450053 0.01521750 0.01414231
v -0.01061524 0.01382967 0.01566746
v -0.01491896 0.01943778 0.00173149
v -0.01137010 0.01942981 -0.00011468
v -0.01101067 0.01904998 0.01736370
v -0.01406953 0.02435300 0.00266806
v -0.01000072 0.02428883 0.00049652
v -0.01222021 0.02291613 0.01901042
v -0.01406862 0.02718082 0.01951671
v -0.01003705 0.02422770 0.02125225
v -0.01225056 0.02795549 0.00321933
v -0.01375104 0.03078830 0.00680771
v -0.01079198 0.03017106 0.00498883
v -0.01449680 0.03130307 0.01884981
v -0.01046034 0.03026815 0.02156614
v -0.01125636 0.03340077 0.00944893
v -0.01140892 0.03345011 0.01326203
v -0.01084243 0.03342835 0.01830633
v -0.00830067 -0.02383090 0.00327351
v -0.00396089 -0.02695255 0.00329047
v -0.00569844 -0.02406273 -0.00018108
v -0.00838962 -0.02397731 0.00840509
v -0.00556643 -0.02662728 0.00720601
v -0.00534249 -0.02412913 0.01014532
v -0.00432655 -0.02143897 -0.03577291
v -0.00716551 -0.01841674 -0.03885522
v -0.00538737 -0.02219142 -0.03056966
v -0.00655976 -0.02134868 -0.02541635
v -0.00516234 -0.01831547 -0.02237097
v -0.00833867 -0.01894973 -0.00297030
v -0.00424063 -0.02162478 -0.00312966
v -0.00575148 -0.01824835 -0.00591305
v -0.00470640 -0.02020909 0.01209552
v -0.00451008 -0.01384458 -0.03880083
v -0.00535714 -0.01382647 -0.02230825
v -0.00801750 -0.01458464 -0.00772809
v -0.00405649 -0.01601976 -0.00874371
v -0.00647353 -0.01195757 -0.01047297
v -0.00607495 -0.01703013 0.01438226
v -0.00784868 -0.01312432 0.01995107
v -0.00658257 -0.01514196 0.01784242
v -0.00382526 -0.01357711 0.02170215
v -0.00579142 -0.01079925 -0.03580780
v -0.00567366 -0.01004035 -0.03057461
v -0.00550604 -0.01081737 -0.02531114
v -0.00549572 -0.00836061 -0.01186374
v -0.00691223 -0.01083587 0.02392103
v -0.00466521 -0.00789813 0.02698347
v -0.00451338 -0.00480561 -0.02484034
v -0.00702358 -0.00188152 -0.02786809
v -0.00577816 -0.00516804 -0.01956103
v -0.00558167 -0.00562050 -0.01450789
v -0.00916223 -0.00310533 0.03049113
v -0.00557979 -0.00329442 0.02821278
v -0.00434341 0.00270918 -0.02778528
v -0.00873943 0.00264702 -0.01325768
v -0.00622717 0.00351866 -0.01653870
v -0.00462655 0.00078034 -0.01401801
v -0.00476546 -0.00017097 -0.00761625
v -0.00683327 0.00040926 -0.00328506
v -0.00547573 0.00332797 -0.00039888
v -0.00614559 0.00328494 0.01143835
v -0.00451670 0.00072089 0.01367409
v -0.00585329 0.00032550 0.01888568
v -0.00617903 0.00003978 0.02490030
v -0.00626859 0.00562218 -0.02545393
v -0.00562030 0.00551999 -0.02070565
v -0.00562350 0.00847732 0.00000784
v -0.00571779 0.00622861 0.01305741
v -0.00854201 0.00921945 0.01395345
v -0.00509864 0.00891101 0.01538707
v -0.00588964 0.01437075 -0.00037871
v -0.00493495 0.01382114 0.01699604
v -0.00525071 0.02015597 -0.00007344
v -0.00767699 0.02087900 0.00845663
v -0.00512871 0.01940777 0.00491787
v -0.00517140 0.01652771 0.00755198
v -0.00428264 0.01808616 0.01069182
v -0.00596876 0.01744778 0.01885689
v -0.00884113 0.02030519 0.01966924
v -0.00522008 0.02003143 0.02110948
v -0.00532506 0.02235351 0.00199096
v -0.00876885 0.02523897 0.00362969
v -0.00862804 0.02577862 0.00855021
v -0.00599682 0.02188882 0.01309872
v -0.00767870 0.02514279 0.01317174
v -0.00459530 0.02483046 0.01572070
v -0.00570106 0.02507618 0.02228083
v -0.00837506 0.03103816 0.00828820
v -0.00885602 0.03042198 0.01303420
v -0.00544455 0.03079008 0.01656817
v -0.00512610 0.03018011 0.02235911
v -0.00872688 0.03340441 0.01119017
v -0.00776852 0.03599433 0.01270516
v -0.00656078 0.03564191 0.01115585
v -0.00578742 0.03454295 0.01343690
v -0.00749745 0.03625653 0.01774407
v -0.00626451 0.03519202 0.02153683
v -0.00532415 0.03837013 0.01523149
v -0.00467307 0.03866717 0.01952527
v 0.00081703 -0.02710028 0.00253556
v -0.00142351 -0.02501250 -0.00033199
v -0.00081503 -0.02701869 0.00712798
v -0.00130350 -0.02396044 0.01069136
v 0.00113846 -0.02142259 -0.03577113
v -0.00163593 -0.01839577 -0.03878609
v 0.00008464 -0.02218165 -0.03048126
v -0.00104241 -0.02141423 -0.02525536
v 0.00031744 -0.01838627 -0.02226407
v 0.00109215 -0.02196731 -0.00307113
v -0.00157208 -0.01919310 -0.00593399
v 0.00006763 -0.02113445 0.01238960
v -0.00257060 -0.01838020 0.01455074
v 0.00054170 -0.01842005 0.01532625
v 0.00100061 -0.01383948 -0.03878711
v 0.00017003 -0.01385125 -0.02226370
v 0.00119758 -0.01648506 -0.00864447
v -0.00117678 -0.01285444 -0.01070341
v -0.00081560 -0.01612826 0.01801672
v 0.00145617 -0.01360738 0.02210233
v -0.00028942 -0.01081146 -0.03577984
v -0.00018361 -0.01005719 -0.03051937
v 0.00001959 -0.01082116 -0.02525390
v 0.00026484 -0.00839664 -0.01170668
v -0.00126410 -0.01080301 0.02493633
v 0.00015142 -0.00715060 0.02709822
v 0.00098581 -0.00482638 -0.02483188
v -0.00159872 -0.00192240 -0.02784283
v -0.00020121 -0.00516831 -0.01956508
v 0.00007127 -0.00552563 -0.01441397
v 0.00012066 -0.00275912 0.02712367
v 0.00107446 0.00267717 -0.02780553
v -0.00307860 0.00272057 -0.01909434
v -0.00068694 0.00364894 -0.02151771
v 0.00049939 0.00127813 -0.01827552
v 0.00067356 -0.00005535 -0.01356256
v -0.00002145 -0.00016206 -0.00854498
v -0.00116368 0.00045935 -0.00321736
v 0.00028244 0.00336148 -0.00045289
v 0.00017203 0.00363545 0.01137495
v 0.00089407 0.00075648 0.01360087
v -0.00044734 0.00035498 0.01881485
v -0.00019698 -0.00001667 0.02414180
v -0.00027214 0.00535176 -0.02423821
v 0.00001837 0.00844911 -0.00007490
v -0.00157354 0.00580670 0.01331173
v 0.00041085 0.01002711 0.01547816
v -0.00027425 0.01432096 -0.00043015
v -0.00270362 0.01391635 0.00846902
v -0.00056758 0.01509515 0.00635559
v -0.00003689 0.01231879 0.00811004
v 0.00065148 0.01488291 0.00988840
v 0.00092215 0.01378184 0.01723192
v 0.00113854 0.01944850 0.00005630
v -0.00066835 0.01959962 0.00426077
v 0.00102895 0.02010711 0.01176677
v -0.00122884 0.01645915 0.01922702
v 0.00009675 0.01996640 0.02145995
v 0.00002302 0.02144226 0.00225160
v -0.00181882 0.02227810 0.01401616
v -0.00059712 0.02664722 0.01587280
v 0.00004711 0.02503063 0.02221242
v 0.00013994 0.03164756 0.01589445
v -0.00008414 0.03086862 0.02233303
v -0.00313952 0.03718964 0.01428675
v -0.00050824 0.03588685 0.01562231
v -0.00008126 0.03618641 0.02171388
v 0.00025533 0.03880197 0.01805693
v 0.00443609 -0.02644073 0.00378977
v 0.00534612 -0.02405545 0.00014075
v 0.00277053 -0.02482685 0.00820921
v 0.00650597 -0.02443675 0.00487193
v 0.00659850 -0.02141018 -0.03585524
v 0.00387543 -0.01838982 -0.03880145
v 0.00548448 -0.02214641 -0.03056504
v 0.00442892 -0.02141318 -0.02526263
v 0.00578832 -0.01841501 -0.02232809
v 0.00599025 -0.02089545 -0.00260708
v 0.00517576 -0.01833803 -0.00526031
v 0.00540040 -0.02179581 0.00865162
v 0.00290170 -0.01926525 0.01291411
v 0.00696106 -0.01891251 0.01125409
v 0.00657719 -0.01381053 -0.03882663
v 0.00561845 -0.01392185 -0.02238582
v 0.00593108 -0.01560785 -0.00816071
v 0.00485067 -0.01241136 -0.01036021
v 0.00505058 -0.01699461 0.01536680
v 0.00478534 -0.01549543 0.01924801
v 0.00706215 -0.01364089 0.02210480
v 0.00521408 -0.01082212 -0.03583283
v 0.00529988 -0.01010829 -0.03062316
v 0.00548994 -0.01088939 -0.02539040
v 0.00504498 -0.00769478 -0.01174282
v 0.00440328 -0.01082686 0.02495633
v 0.00571576 -0.00720692 0.02708571
v 0.00650570 -0.00491617 -0.02485763
v 0.00384461 -0.00196016 -0.02785272
v 0.00531392 -0.00528940 -0.01969312
v 0.00554936 -0.00559261 -0.01446492
v 0.00575842 -0.00303268 0.02776510
v 0.00649816 0.00266062 -0.02786893
v 0.00236643 0.00363721 -0.02068248
v 0.00470977 0.00270942 -0.01744677
v 0.00576858 0.00091787 -0.01359971
v 0.00564148 -0.00017342 -0.00852393
v 0.00448991 0.00045945 -0.00339511
v 0.00586968 0.00323384 -0.00061515
v 0.00450646 0.00288413 0.01089271
v 0.00654952 0.00063311 0.01361364
v 0.00513483 0.00022199 0.01883229
v 0.00544341 -0.00002398 0.02515869
v 0.00528294 0.00569245 -0.02483517
v 0.00597807 0.00537047 -0.01945707
v 0.00557584 0.00827229 -0.00030135
v 0.00246566 0.00764290 0.01290021
v 0.00643912 0.00743748 0.01127247
v 0.00540461 0.01415317 -0.00065056
v 0.00270376 0.01404637 0.00782946
v 0.00527293 0.01057391 0.01386803
v 0.00647183 0.01432280 0.01646629
v 0.00685514 0.02025864 -0.00022814
v 0.00426047 0.01859815 0.00559891
v 0.00526000 0.01668669 0.00864246
v 0.00525558 0.01959888 0.01007083
v 0.00414920 0.01680581 0.01922118
v 0.00620941 0.02100988 0.02128660
v 0.00506226 0.02181081 0.00258914
v 0.00210172 0.02451908 0.01354329
v 0.00516375 0.02567434 0.01090429
v 0.00509963 0.02573732 0.02225670
v 0.00295612 0.02950702 0.01373147
v 0.00524450 0.03193124 0.01102747
v 0.00583322 0.03083032 0.02245039
v 0.00321945 0.03507110 0.01356351
v 0.00656056 0.03567283 0.01156026
v 0.00547431 0.03605569 0.02134625
v 0.00432073 0.03843489 0.01487209
v 0.00570621 0.03855346 0.01816721
v 0.00755152 -0.02479118 0.00237828
v 0.01211153 -0.02146414 -0.03592094
v 0.00946828 -0.01840495 -0.03887130
v 0.01087931 -0.02211760 -0.03071596
v 0.01052980 -0.02149765 -0.02477527
v 0.01081869 -0.01841901 -0.02152949
v 0.00835608 -0.01881981 -0.00294689
v 0.00990938 -0.01990847 -0.00120498
v 0.01115203 -0.02209367 0.00269767
v 0.01014667 -0.02093146 0.00813772
v 0.01234526 -0.01900478 0.01089911
v 0.01221207 -0.01385221 -0.03885198
v 0.01035414 -0.01387457 -0.02193067
v 0.00878759 -0.01267661 -0.00879753
v 0.01131360 -0.01411076 -0.00609923
v 0.01111361 -0.01739413 -0.00356663
v 0.01025053 -0.01701744 0.01364343
v 0.01026109 -0.01546116 0.01815473
v 0.01122244 -0.01282086 0.02209930
v 0.01085494 -0.01078232 -0.03587137
v 0.01080540 -0.01013358 -0.03070189
v 0.01120366 -0.01080829 -0.02462663
v 0.01192363 -0.01007094 -0.00791553
v 0.00953590 -0.00851537 -0.01080220
v 0.00960239 -0.01050655 0.02490824
v 0.01079325 -0.00695813 0.02703373
v 0.01176940 -0.00460574 -0.02410087
v 0.00990833 -0.00142494 -0.02763533
v 0.01086898 -0.00543262 -0.01964983
v 0.01128663 -0.00557635 -0.01364883
v 0.01122060 -0.00449127 0.02966161
v 0.00834813 -0.00189558 0.02990745
v 0.01194751 -0.00276839 0.03194853
v 0.01162610 0.00333798 -0.02765588
v 0.00783422 0.00353353 -0.01482142
v 0.01026554 0.00272222 -0.01159857
v 0.01154714 0.00085981 -0.00779813
v 0.01084293 0.00027832 -0.00271528
v 0.01097366 0.00310736 0.00021458
v 0.00970453 0.00353500 0.01090055
v 0.01232048 0.00055404 0.01388804
v 0.01089807 0.00000513 0.01895616
v 0.01077292 0.00037405 0.02491278
v 0.01109029 -0.00047325 0.03009599
v 0.01079301 0.00562431 -0.02485424
v 0.01081052 0.00627935 -0.01968902
v 0.01155551 0.00525295 -0.01368710
v 0.01045421 0.00814533 0.00021912
v 0.01181144 0.00823247 0.01096349
v 0.01038276 0.01395318 -0.00010856
v 0.00961704 0.01180694 0.01361904
v 0.01122257 0.01539556 0.01543263
v 0.01103873 0.01898603 -0.00007619
v 0.00743835 0.02090069 0.00679398
v 0.00827894 0.01864950 0.01894502
v 0.01108503 0.01929495 0.01731726
v 0.00841699 0.02506851 0.00326261
v 0.01069305 0.02404170 0.00043281
v 0.00779056 0.02445764 0.00796532
v 0.01076645 0.02193529 0.01984327
v 0.01046913 0.02590972 0.02151767
v 0.01198994 0.02800208 0.00335058
v 0.01190894 0.03095323 0.00602113
v 0.00856796 0.03059858 0.00765891
v 0.01025145 0.03183469 0.02149343
v 0.01103220 0.03256501 0.00808546
v 0.01061449 0.03376713 0.01194741
v 0.00819070 0.03694274 0.01527344
v 0.01143633 0.03355174 0.01777002
v 0.00867266 0.03596132 0.01954099
v 0.01745756 -0.02115105 -0.03524638
v 0.01481746 -0.01843428 -0.03853411
v 0.01644616 -0.02217650 -0.03079907
v 0.01649201 -0.02211512 -0.02500434
v 0.01405033 -0.01738507 -0.01931651
v 0.01634215 -0.02122021 -0.01990264
v 0.01728796 -0.01921716 -0.01670046
v 0.01359171 -0.01931721 -0.00217838
v 0.01775769 -0.02131718 -0.00280233
v 0.01580612 -0.01723525 -0.00543132
v 0.01674392 -0.02204795 0.00256460
v 0.01581064 -0.02110595 0.00704943
v 0.01629100 -0.01918795 0.01050785
v 0.01658485 -0.01433415 -0.03829390
v 0.01365206 -0.01318780 -0.02013166
v 0.01639623 -0.01496751 -0.01705179
v 0.01604854 -0.01329684 -0.00603329
v 0.01598120 -0.01633527 0.01352501
v 0.01374257 -0.01279579 0.01929410
v 0.01627973 -0.01173305 0.01610513
v 0.01623902 -0.01110819 -0.03584535
v 0.01649265 -0.01006948 -0.03067269
v 0.01653991 -0.01015488 -0.02487180
v 0.01698359 -0.01110889 -0.01908783
v 0.01346435 -0.00719010 -0.00902727
v 0.01629301 -0.00930605 -0.00591248
v 0.01461808 -0.00886347 0.01909395
v 0.01682351 -0.00765496 0.01617107
v 0.01347134 -0.00879569 0.02311354
v 0.01400504 -0.00184729 -0.02599808
v 0.01558650 -0.00308269 -0.02293404
v 0.01570536 -0.00443160 -0.01925271
v 0.01679970 -0.00458710 -0.01362197
v 0.01711399 -0.00569127 -0.00787066
v 0.01743299 -0.00584413 0.01972455
v 0.01625715 -0.00576590 0.02619870
v 0.01567727 -0.00448545 0.03067822
v 0.01702711 -0.00192261 0.03249487
v 0.01809801 -0.00001070 -0.02470590
v 0.01618835 0.00236518 -0.02736498
v 0.01348991 0.00348139 -0.00918367
v 0.01601143 0.00261021 -0.00593287
v 0.01624272 0.00091136 -0.00235373
v 0.01549761 0.00106564 0.00146051
v 0.01420218 0.00426360 0.00337472
v 0.01740593 0.00310282 0.00419453
v 0.01491389 0.00366940 0.01080370
v 0.01661211 0.00114475 0.01457308
v 0.01590100 0.00063041 0.01905877
v 0.01573097 0.00100488 0.02487780
v 0.01602776 0.00083482 0.03011189
v 0.01655472 0.00549025 -0.02485057
v 0.01640974 0.00613390 -0.01962039
v 0.01645757 0.00601907 -0.01387367
v 0.01721694 0.00506862 -0.00808934
v 0.01326150 0.00949369 0.00295645
v 0.01775798 0.00488132 0.00793140
v 0.01421660 0.00803121 0.00795689
v 0.01314295 0.01474766 0.00209149
v 0.01452504 0.01455373 0.00725236
v 0.01300745 0.01306484 0.01237146
v 0.01398266 0.02032510 0.00260996
v 0.01660614 0.01907998 0.00593739
v 0.01658418 0.01771003 0.00891752
v 0.01413784 0.01880251 0.01357702
v 0.01709424 0.02110467 0.01061914
v 0.01343719 0.02521507 0.00192073
v 0.01639720 0.02425260 0.00493873
v 0.01482600 0.02582013 0.01383226
v 0.01664949 0.02567080 0.00999092
v 0.01328384 0.02415747 0.01821328
v 0.01559238 0.02797403 0.00676596
v 0.01371141 0.03033050 0.00955290
v 0.01338058 0.03102804 0.01453800
v 0.01334804 0.02920082 0.01887992
v 0.01902346 -0.01740890 -0.03660618
v 0.02137356 -0.01922630 -0.03369913
v 0.02242967 -0.02133696 -0.03027405
v 0.02219160 -0.02220672 -0.02510854
v 0.02226590 -0.02219891 -0.01946239
v 0.01926208 -0.01804594 -0.01297273
v 0.02199131 -0.02161991 -0.01426975
v 0.01898832 -0.01915813 -0.00823114
v 0.02232793 -0.02168629 -0.00804406
v 0.02237031 -0.02230647 -0.00308130
v 0.02139879 -0.02144355 0.00235221
v 0.01958811 -0.01925538 0.00824791
v 0.02280635 -0.01860942 0.00588119
v 0.01945380 -0.01307037 -0.03570855
v 0.02226144 -0.01485118 -0.03326224
v 0.01878295 -0.01317505 -0.01435013
v 0.01929331 -0.01341583 -0.00854666
v 0.02131777 -0.01610944 0.00958473
v 0.01926613 -0.01348968 0.01295308
v 0.02205178 -0.01188194 0.01059139
v 0.02172140 -0.01094226 -0.03091290
v 0.02230205 -0.01007019 -0.02486104
v 0.02223448 -0.01009908 -0.01916326
v 0.02217927 -0.01070022 -0.01314696
v 0.02336951 -0.01052596 -0.00727273
v 0.02141015 -0.00959963 -0.00376648
v 0.01962424 -0.00719355 -0.00320664
v 0.02297359 -0.00855638 -0.00019683
v 0.01935627 -0.00943418 0.01346987
v 0.02270213 -0.00782073 0.01077189
v 0.01827293 -0.00215397 -0.02007331
v 0.01950169 -0.00242768 -0.01561924
v 0.02127187 -0.00265772 -0.01156174
v 0.02136357 -0.00399367 -0.00795851
v 0.02164645 -0.00555944 -0.00281779
v 0.02202765 -0.00574887 0.01432024
v 0.02275561 -0.00510046 0.01965918
v 0.02213690 -0.00527983 0.02467967
v 0.02087272 -0.00473891 0.02994641
v 0.02307449 -0.00260806 0.03287087
v 0.02305646 0.00124297 -0.02433806
v 0.02097420 0.00281962 -0.02692763
v 0.02195241 -0.00028566 -0.01922164
v 0.02327986 -0.00058632 -0.01309541
v 0.01879780 0.00332438 -0.00316814
v 0.01916859 0.00278588 0.00110705
v 0.01849482 0.00325822 0.01295029
v 0.01927616 0.00289536 0.01768670
v 0.01913400 0.00313913 0.02342096
v 0.01940894 0.00338444 0.02895743
v 0.02178923 0.00159485 0.03282597
v 0.02099971 0.00490560 -0.02565156
v 0.02237068 0.00659007 -0.02051285
v 0.02126911 0.00663816 -0.01392535
v 0.02232902 0.00640720 -0.00803425
v 0.02223274 0.00521061 -0.00223845
v 0.02183259 0.00511829 0.00399432
v 0.02280214 0.00578130 0.00880205
v 0.02198729 0.00520806 0.01401847
v 0.02252534 0.00528324 0.02049849
v 0.02250928 0.00557082 0.02624118
v 0.02305319 0.00508992 0.03069680
v 0.01829108 0.02054757 0.00766987
v 0.01829327 0.02395512 0.00829550
v 0.02477423 -0.01743761 -0.03077788
v 0.02721514 -0.01924130 -0.02806521
v 0.02733443 -0.02118520 -0.02488890
v 0.02737897 -0.02152124 -0.01952020
v 0.02744310 -0.02145079 -0.01388454
v 0.02746458 -0.02152912 -0.00838990
v 0.02633870 -0.02139765 -0.00256851
v 0.02516869 -0.01867265 0.00284114
v 0.02810364 -0.01748516 -0.00008186
v 0.02522297 -0.01307190 -0.02984931
v 0.02812743 -0.01488892 -0.02755156
v 0.02547396 -0.01270048 0.00284559
v 0.02795428 -0.01378394 -0.00008182
v 0.02401532 -0.01465343 0.00703102
v 0.02677388 -0.01114078 -0.02589440
v 0.02744047 -0.01079468 -0.02051886
v 0.02734297 -0.01081141 -0.01496360
v 0.02729206 -0.01075319 -0.00933795
v 0.02660844 -0.01104847 -0.00286576
v 0.02404112 -0.00674522 0.00199279
v 0.02471542 -0.00802552 0.00698992
v 0.02399500 -0.00181429 -0.00883967
v 0.02466143 -0.00269459 -0.00342162
v 0.02563297 -0.00278738 0.00224683
v 0.02706584 -0.00294481 0.00557240
v 0.02666185 -0.00474852 0.00956356
v 0.02754826 -0.00439463 0.01415429
v 0.02688760 -0.00457842 0.01895202
v 0.02707530 -0.00475799 0.02469672
v 0.02626813 -0.00449292 0.02993332
v 0.02823062 -0.00082239 0.03285426
v 0.02428928 0.00413343 -0.02471994
v 0.02691192 0.00299185 -0.02291406
v 0.02792442 0.00089991 -0.01941471
v 0.02758450 0.00015588 -0.01412528
v 0.02754738 -0.00014502 -0.00794339
v 0.02811115 -0.00011234 -0.00167737
v 0.02876322 -0.00036138 0.00343134
v 0.02687821 0.00340528 0.03286415
v 0.02715415 0.00718781 -0.02158126
v 0.02530341 0.00896513 -0.01924951
v 0.02467077 0.00901562 -0.01532131
v 0.02496484 0.00879808 -0.00997114
v 0.02673158 0.00828872 -0.00599638
v 0.02700762 0.00680341 -0.00253942
v 0.02698798 0.00643999 0.00262601
v 0.02686210 0.00649902 0.00807610
v 0.02678857 0.00652365 0.01355304
v 0.02669351 0.00661482 0.01918421
v 0.02773364 0.00672210 0.02526895
v 0.02761104 0.00559503 0.03004030
v 0.02786155 0.01062997 -0.01810981
v 0.02812501 0.01131581 -0.01277291
v 0.02883283 0.01079327 -0.00735700
v 0.03001912 -0.01745677 -0.02445359
v 0.03035018 -0.01847851 -0.01948399
v 0.03037721 -0.01837813 -0.01378144
v 0.03043700 -0.01842070 -0.00818901
v 0.02984095 -0.01921553 -0.00384649
v 0.02985217 -0.01314087 -0.02374666
v 0.03039048 -0.01383960 -0.01929549
v 0.03034238 -0.01383299 -0.01371300
v 0.03027203 -0.01377550 -0.00805462
v 0.02994942 -0.01498463 -0.00314600
v 0.02951392 -0.00183298 0.00745966
v 0.03039224 -0.00240076 0.01215768
v 0.03039621 -0.00255104 0.01774595
v 0.03050262 -0.00265962 0.02345388
v 0.03043772 -0.00269225 0.02899612
v 0.03028038 0.00464907 -0.02002531
v 0.03271606 0.00283404 -0.01706490
v 0.03271490 0.00094813 -0.01381751
v 0.03259235 0.00076372 -0.00852173
v 0.03242221 0.00097669 -0.00297439
v 0.03234600 0.00105409 0.00252505
v 0.03250954 0.00042307 0.00852941
v 0.03308655 0.00025416 0.01484886
v 0.03320117 0.00024571 0.02055446
v 0.03347852 0.00018240 0.02634555
v 0.03285101 0.00021996 0.03080866
v 0.03185296 0.00293065 0.03228454
v 0.03057331 0.00902974 -0.01919216
v 0.03349124 0.00721514 -0.01680694
v 0.02955561 0.00915991 -0.00320728
v 0.03041465 0.00876208 0.00138466
v 0.03034397 0.00872686 0.00689690
v 0.03023184 0.00874982 0.01241755
v 0.03013657 0.00882748 0.01799868
v 0.03049885 0.00897032 0.02338535
v 0.03276388 0.00859597 0.02722486
v 0.03335455 0.00581555 0.02929162
v 0.03193304 0.01105372 -0.01528834
v 0.03325686 0.01146434 -0.00910653
v 0.03325975 0.01129441 -0.00229945
v 0.03393217 0.01109707 0.00411567
v 0.03382092 0.01110400 0.00967283
v 0.03376019 0.01115054 0.01522814
v 0.03380003 0.01122701 0.02089228
v 0.03435477 0.01068899 0.02532303
v 0.03536582 0.00459612 -0.01341685
v 0.03549254 0.00287093 -0.00927036
v 0.03621079 0.00379159 -0.00440267
v 0.03602364 0.00299914 0.00114073
v 0.03595005 0.00304749 0.00665444
v 0.03593990 0.00308095 0.01215274
v 0.03598786 0.00307194 0.01775186
v 0.03622700 0.00391150 0.02469903
v 0.03477818 0.00270831 0.02953480
v 0.03505580 0.00904756 -0.01303173
v 0.03658049 0.00772007 -0.00827547
v 0.03874560 0.00803595 -0.00462604
v 0.03911364 0.00622997 -0.00142169
v 0.03905206 0.00582238 0.00378840
v 0.03899821 0.00592055 0.00931340
v 0.03898591 0.00593589 0.01483590
v 0.03911718 0.00595650 0.02056403
v 0.03913891 0.00652462 0.02456420
v 0.03731064 0.00840482 0.02686273
v 0.03772228 0.01088924 -0.00405567
v 0.03838382 0.01123174 0.00122346
v 0.03834594 0.01116803 0.00681368
v 0.03827023 0.01120743 0.01237179
v 0.03828096 0.01127917 0.01804416
v 0.03831955 0.01092473 0.02349553
v 0.04036433 0.00936910 -0.00194382
v 0.04063910 0.00889763 0.00242119
v 0.04056459 0.00888261 0.00799402
v 0.04055569 0.00894957 0.01359637
v 0.04060286 0.00895151 0.01930068
v 0.04034997 0.00851448 0.02386307
f 3 2 1
f 5 4 1
f 5 1 2
f 7 6 4
f 7 4 5
f 9 8 6
f 9 6 7
f 10 8 9
f 11 3 1
f 11 1 4
f 11 4 12
f 12 4 6
f 12 6 13
f 13 6 8
f 13 8 14
f 14 8 10
f 17 16 15
f 19 18 15
f 19 15 16
f 21 20 18
f 21 18 19
f 23 22 20
f 23 20 21
f 25 24 22
f 25 22 23
f 27 26 24
f 27 24 25
f 29 28 26
f 29 26 27
f 31 30 28
f 31 28 29
f 32 30 31
f 17 15 33
f 17 33 34
f 35 15 18
f 33 15 35
f 3 35 2
f 35 20 2
f 35 18 20
f 2 20 5
f 5 20 22
f 5 22 7
f 7 22 24
f 7 24 9
f 9 24 26
f 9 26 10
f 26 36 10
f 26 28 36
f 30 38 37
f 36 30 37
f 28 30 36
f 38 30 32
f 39 34 33
f 39 33 35
f 39 35 40
f 40 35 3
f 11 40 3
f 41 40 11
f 42 11 12
f 42 41 11
f 43 12 13
f 43 42 12
f 44 13 14
f 44 43 13
f 14 10 36
f 45 14 36
f 44 14 45
f 45 36 37
f 48 47 46
f 50 49 46
f 50 46 47
f 52 51 49
f 52 49 50
f 54 53 51
f 54 51 52
f 56 55 53
f 56 53 54
f 57 55 56
f 48 46 58
f 48 58 59
f 60 46 49
f 58 46 60
f 61 49 51
f 60 49 61
f 62 51 53
f 61 51 62
f 63 53 55
f 62 53 63
f 55 57 64
f 55 64 63
f 65 59 58
f 65 58 60
f 65 60 66
f 66 60 61
f 66 61 67
f 67 61 62
f 67 62 68
f 68 62 63
f 68 63 69
f 69 63 64
f 72 71 70
f 73 70 71
f 76 75 74
f 77 74 75
f 80 79 78
f 82 81 78
f 82 78 79
f 16 17 81
f 82 16 81
f 83 16 82
f 16 84 19
f 83 84 16
f 19 85 21
f 84 85 19
f 70 23 72
f 23 85 72
f 23 21 85
f 73 86 70
f 86 23 70
f 86 25 23
f 74 27 76
f 27 86 76
f 27 25 86
f 77 87 74
f 87 27 74
f 87 29 27
f 29 88 31
f 87 88 29
f 32 31 88
f 32 88 89
f 80 78 90
f 80 90 91
f 92 78 81
f 90 78 92
f 34 92 17
f 17 92 81
f 95 94 93
f 97 96 93
f 93 96 95
f 99 98 97
f 97 98 96
f 101 100 99
f 99 100 98
f 103 102 101
f 101 102 100
f 37 38 103
f 38 102 103
f 38 104 102
f 38 32 89
f 38 89 104
f 105 91 90
f 105 90 92
f 105 92 106
f 106 92 34
f 39 106 34
f 107 106 39
f 108 39 40
f 108 107 39
f 41 93 94
f 108 41 94
f 40 41 108
f 93 41 42
f 93 42 97
f 97 42 43
f 97 43 99
f 99 43 44
f 99 44 101
f 101 44 45
f 101 45 103
f 103 45 37
f 111 110 109
f 47 48 109
f 110 47 109
f 112 47 110
f 47 113 50
f 112 113 47
f 50 114 52
f 113 114 50
f 52 115 54
f 114 115 52
f 54 116 56
f 115 116 54
f 118 117 57
f 56 118 57
f 116 118 56
f 119 117 118
f 111 109 120
f 111 120 121
f 59 120 48
f 48 120 109
f 122 64 117
f 117 64 57
f 117 119 123
f 117 123 122
f 124 121 120
f 124 120 59
f 65 124 59
f 125 124 65
f 126 65 66
f 126 125 65
f 127 66 67
f 127 126 66
f 128 67 68
f 128 127 67
f 129 68 69
f 129 128 68
f 69 64 122
f 130 69 122
f 129 69 130
f 133 132 131
f 123 130 122
f 134 132 133
f 137 136 135
f 139 138 135
f 139 135 136
f 141 140 138
f 141 138 139
f 140 141 131
f 140 131 132
f 72 140 132
f 71 72 132
f 143 142 73
f 143 73 71
f 134 143 71
f 132 134 71
f 75 76 142
f 143 75 142
f 144 75 143
f 146 145 77
f 75 146 77
f 144 146 75
f 148 147 145
f 148 145 146
f 149 147 148
f 152 151 150
f 79 80 150
f 151 79 150
f 153 79 151
f 79 154 82
f 153 154 79
f 135 83 137
f 83 154 137
f 83 82 154
f 83 135 84
f 84 135 138
f 84 138 85
f 85 138 140
f 85 140 72
f 142 86 73
f 86 142 76
f 145 87 77
f 87 145 88
f 88 145 147
f 89 88 147
f 149 89 147
f 155 89 149
f 156 152 150
f 150 80 156
f 80 157 156
f 80 91 157
f 160 159 158
f 162 161 158
f 158 161 160
f 164 163 162
f 162 163 161
f 94 95 164
f 95 163 164
f 95 165 163
f 166 95 96
f 166 165 95
f 167 96 98
f 167 166 96
f 168 98 100
f 168 167 98
f 169 100 102
f 169 168 100
f 170 102 104
f 170 169 102
f 104 89 155
f 104 155 170
f 171 157 91
f 171 91 105
f 106 158 159
f 171 106 159
f 105 106 171
f 158 106 107
f 158 107 162
f 162 107 108
f 162 108 164
f 164 108 94
f 174 173 172
f 110 111 172
f 173 110 172
f 175 110 173
f 110 176 112
f 175 176 110
f 112 177 113
f 176 177 112
f 177 179 178
f 114 177 178
f 113 177 114
f 180 115 114
f 180 114 178
f 115 180 181
f 182 115 181
f 116 115 182
f 116 183 118
f 182 183 116
f 185 184 119
f 118 185 119
f 183 185 118
f 186 184 185
f 174 172 187
f 174 187 188
f 121 187 111
f 111 187 172
f 178 179 189
f 189 179 190
f 178 191 180
f 178 189 191
f 181 180 192
f 192 180 191
f 193 123 184
f 184 123 119
f 184 186 194
f 195 184 194
f 193 184 195
f 196 195 194
f 197 188 187
f 197 187 121
f 124 197 121
f 198 197 124
f 199 124 125
f 199 198 124
f 200 125 126
f 200 199 125
f 127 189 190
f 200 127 190
f 126 127 200
f 189 127 128
f 189 128 191
f 128 129 191
f 129 201 191
f 201 192 191
f 129 202 201
f 130 203 129
f 129 203 202
f 130 123 203
f 123 193 203
f 133 131 203
f 133 203 193
f 133 193 134
f 193 204 134
f 193 195 204
f 195 196 205
f 195 205 204
f 208 207 206
f 210 209 206
f 210 206 207
f 136 137 209
f 210 136 209
f 211 136 210
f 202 139 201
f 139 211 201
f 139 136 211
f 139 202 141
f 141 202 203
f 141 203 131
f 204 143 134
f 205 212 204
f 212 143 204
f 212 144 143
f 144 213 146
f 212 213 144
f 146 214 148
f 213 214 146
f 149 148 214
f 149 214 215
f 217 216 151
f 217 151 152
f 206 153 208
f 153 216 208
f 153 151 216
f 153 206 154
f 154 206 209
f 154 209 137
f 220 219 218
f 222 221 218
f 218 221 220
f 224 223 222
f 222 223 221
f 226 225 224
f 224 225 223
f 215 225 226
f 155 215 226
f 149 215 155
f 227 217 152
f 227 152 156
f 229 228 157
f 228 156 157
f 228 227 156
f 159 160 229
f 160 228 229
f 160 230 228
f 231 160 161
f 231 230 160
f 232 161 163
f 232 231 161
f 234 232 233
f 232 165 233
f 232 163 165
f 166 235 165
f 165 235 233
f 219 236 218
f 236 166 218
f 166 167 218
f 166 236 235
f 218 167 168
f 218 168 222
f 222 168 169
f 222 169 224
f 224 169 170
f 224 170 226
f 226 170 155
f 171 229 157
f 229 171 159
f 234 233 237
f 234 237 238
f 239 233 235
f 237 233 239
f 235 236 240
f 235 240 239
f 241 238 237
f 243 242 241
f 237 243 241
f 239 243 237
f 239 240 244
f 245 239 244
f 243 239 245
f 246 245 244
f 242 243 247
f 242 247 248
f 249 243 245
f 247 243 249
f 245 246 250
f 245 250 249
f 251 248 247
f 253 252 251
f 247 253 251
f 249 253 247
f 249 250 254
f 249 254 253
f 255 252 253
f 255 253 254
f 257 256 173
f 257 173 174
f 173 258 175
f 256 258 173
f 175 259 176
f 258 259 175
f 259 261 260
f 177 259 260
f 176 259 177
f 260 179 177
f 181 262 182
f 182 262 263
f 264 182 263
f 183 182 264
f 183 265 185
f 264 265 183
f 186 185 265
f 186 265 266
f 188 257 174
f 188 267 257
f 260 261 268
f 268 261 269
f 268 190 179
f 268 179 260
f 271 270 262
f 181 271 262
f 192 271 181
f 262 270 263
f 266 272 186
f 186 272 194
f 196 194 272
f 196 272 273
f 274 267 188
f 274 188 197
f 275 197 198
f 275 274 197
f 276 198 199
f 276 275 198
f 200 268 269
f 276 200 269
f 199 200 276
f 268 200 190
f 279 278 277
f 278 271 277
f 271 201 277
f 271 192 201
f 281 205 280
f 205 273 280
f 205 196 273
f 283 282 281
f 283 281 280
f 284 282 283
f 287 286 285
f 207 208 285
f 286 207 285
f 288 207 286
f 207 289 210
f 288 289 207
f 277 211 279
f 211 289 279
f 211 210 289
f 211 277 201
f 281 212 205
f 212 281 213
f 213 281 282
f 284 290 282
f 290 213 282
f 290 214 213
f 215 214 290
f 215 290 291
f 287 285 216
f 217 287 216
f 292 287 217
f 216 285 208
f 295 294 293
f 297 296 293
f 293 296 295
f 297 298 296
f 300 299 220
f 220 299 219
f 301 220 221
f 301 300 220
f 302 221 223
f 302 301 221
f 303 223 225
f 303 302 223
f 225 215 291
f 225 291 303
f 304 292 217
f 304 217 227
f 305 227 228
f 305 304 227
f 306 228 230
f 306 305 228
f 231 293 294
f 306 231 294
f 230 231 306
f 293 231 232
f 293 232 297
f 232 234 297
f 234 298 297
f 234 307 298
f 299 236 219
f 308 236 299
f 238 307 234
f 238 309 307
f 311 240 310
f 240 308 310
f 240 236 308
f 312 311 310
f 238 241 313
f 314 238 313
f 309 238 314
f 242 313 241
f 311 244 240
f 246 244 311
f 312 246 311
f 315 246 312
f 314 313 316
f 314 316 317
f 248 316 242
f 242 316 313
f 319 250 318
f 250 315 318
f 250 246 315
f 320 319 318
f 321 317 316
f 323 321 322
f 322 321 251
f 321 316 251
f 316 248 251
f 252 322 251
f 324 254 319
f 319 254 250
f 319 320 325
f 319 325 324
f 326 323 322
f 326 322 252
f 255 326 252
f 327 326 255
f 255 254 324
f 328 255 324
f 327 255 328
f 328 324 325
f 331 330 329
f 333 332 329
f 333 329 330
f 334 332 333
f 336 335 256
f 336 256 257
f 256 337 258
f 335 337 256
f 258 338 259
f 337 338 258
f 261 259 338
f 261 338 339
f 342 341 340
f 340 341 331
f 340 331 329
f 263 340 329
f 264 263 329
f 264 329 265
f 265 329 332
f 266 265 332
f 334 266 332
f 343 266 334
f 267 336 257
f 267 344 336
f 339 269 261
f 345 269 339
f 348 347 346
f 346 347 342
f 346 342 340
f 271 346 340
f 270 271 340
f 270 340 263
f 343 349 266
f 266 349 272
f 351 350 273
f 272 351 273
f 349 351 272
f 352 350 351
f 353 344 267
f 353 267 274
f 354 274 275
f 354 353 274
f 355 275 276
f 355 354 275
f 276 269 345
f 276 345 355
f 348 346 278
f 279 348 278
f 356 348 279
f 278 346 271
f 350 280 273
f 352 357 350
f 357 280 350
f 357 283 280
f 284 283 357
f 284 357 358
f 360 359 286
f 360 286 287
f 286 361 288
f 359 361 286
f 288 362 289
f 361 362 288
f 279 289 356
f 356 289 362
f 290 284 363
f 284 364 363
f 284 358 364
f 363 291 290
f 292 360 287
f 292 365 360
f 368 367 366
f 294 295 366
f 295 368 366
f 295 369 368
f 370 295 296
f 370 369 295
f 296 298 370
f 370 298 371
f 373 372 300
f 300 372 299
f 374 300 301
f 374 373 300
f 375 301 302
f 375 374 301
f 303 363 364
f 375 303 364
f 302 303 375
f 363 303 291
f 376 365 292
f 376 292 304
f 377 304 305
f 377 376 304
f 306 366 367
f 377 306 367
f 305 306 377
f 366 306 294
f 307 371 298
f 307 378 371
f 380 308 379
f 308 372 379
f 308 299 372
f 381 380 379
f 309 378 307
f 309 382 378
f 380 310 308
f 312 310 380
f 381 312 380
f 383 312 381
f 314 382 309
f 314 384 382
f 387 386 385
f 385 388 387
f 390 315 389
f 315 383 389
f 315 312 383
f 391 390 389
f 317 393 392
f 384 317 392
f 314 317 384
f 392 393 386
f 393 385 386
f 393 394 385
f 388 385 395
f 385 396 395
f 385 394 396
f 390 318 315
f 397 395 396
f 320 318 390
f 391 320 390
f 398 320 391
f 321 393 317
f 393 321 323
f 399 393 323
f 394 393 399
f 394 400 396
f 394 399 400
f 397 396 401
f 401 396 400
f 398 325 320
f 402 325 398
f 326 399 323
f 327 403 326
f 403 404 326
f 405 326 404
f 326 405 399
f 406 399 405
f 399 406 403
f 403 400 399
f 327 400 403
f 403 406 404
f 328 400 327
f 400 328 401
f 407 401 328
f 401 407 406
f 404 406 407
f 408 407 328
f 325 408 328
f 402 408 325
f 409 405 404
f 409 404 407
f 409 407 410
f 410 407 408
f 412 411 330
f 412 330 331
f 330 413 333
f 411 413 330
f 334 333 413
f 334 413 414
f 416 415 335
f 416 335 336
f 335 417 337
f 415 417 335
f 337 418 338
f 417 418 337
f 339 338 418
f 339 418 419
f 421 420 341
f 421 341 342
f 331 341 412
f 412 341 420
f 423 343 422
f 343 414 422
f 343 334 414
f 424 423 422
f 344 416 336
f 344 425 416
f 419 345 339
f 426 345 419
f 428 427 347
f 428 347 348
f 342 347 421
f 421 347 427
f 423 349 343
f 424 429 423
f 429 349 423
f 429 351 349
f 352 351 429
f 352 429 430
f 431 425 344
f 431 344 353
f 432 353 354
f 432 431 353
f 433 354 355
f 433 432 354
f 355 345 426
f 355 426 433
f 356 428 348
f 356 434 428
f 430 435 352
f 352 435 357
f 358 357 435
f 358 435 436
f 438 437 359
f 438 359 360
f 359 439 361
f 437 439 359
f 361 440 362
f 439 440 361
f 356 362 434
f 434 362 440
f 436 364 358
f 441 364 436
f 365 438 360
f 365 442 438
f 445 444 443
f 367 368 443
f 368 445 443
f 368 446 445
f 447 368 369
f 447 446 368
f 448 369 370
f 448 447 369
f 370 371 448
f 448 371 449
f 451 450 373
f 373 450 372
f 452 373 374
f 452 451 373
f 453 374 375
f 453 452 374
f 375 364 441
f 375 441 453
f 454 442 365
f 454 365 376
f 377 443 444
f 454 377 444
f 376 377 454
f 443 377 367
f 378 449 371
f 378 455 449
f 450 456 372
f 372 456 379
f 381 379 456
f 381 456 457
f 382 455 378
f 382 458 455
f 461 460 459
f 459 462 461
f 457 383 381
f 463 383 457
f 384 458 382
f 384 464 458
f 459 460 387
f 460 386 387
f 460 465 386
f 387 388 459
f 388 462 459
f 388 466 462
f 463 467 383
f 383 467 389
f 391 389 467
f 391 467 468
f 469 464 384
f 469 384 392
f 392 386 465
f 392 465 469
f 470 466 388
f 470 388 395
f 395 397 470
f 470 397 471
f 468 398 391
f 472 398 468
f 401 471 397
f 401 473 471
f 472 402 398
f 474 402 472
f 405 475 406
f 475 476 406
f 476 401 406
f 476 473 401
f 474 408 402
f 477 408 474
f 409 475 405
f 478 476 475
f 409 478 475
f 410 478 409
f 410 408 477
f 410 477 478
f 480 479 411
f 480 411 412
f 479 482 481
f 413 479 481
f 411 479 413
f 481 414 413
f 484 483 415
f 484 415 416
f 415 485 417
f 483 485 415
f 417 486 418
f 485 486 417
f 419 418 486
f 419 486 487
f 489 488 420
f 489 420 421
f 412 420 480
f 480 420 488
f 482 490 481
f 490 492 491
f 490 491 422
f 481 490 422
f 414 481 422
f 491 424 422
f 425 484 416
f 425 493 484
f 487 426 419
f 494 426 487
f 496 495 427
f 496 427 428
f 421 427 489
f 489 427 495
f 492 497 491
f 491 497 424
f 497 429 424
f 497 498 429
f 430 429 498
f 430 498 499
f 500 493 425
f 500 425 431
f 501 431 432
f 501 500 431
f 502 432 433
f 502 501 432
f 433 426 494
f 433 494 502
f 434 496 428
f 434 503 496
f 499 504 430
f 430 504 435
f 436 435 504
f 436 504 505
f 507 506 437
f 507 437 438
f 437 508 439
f 506 508 437
f 439 509 440
f 508 509 439
f 434 440 503
f 503 440 509
f 505 441 436
f 510 441 505
f 442 507 438
f 442 511 507
f 512 444 445
f 512 445 513
f 445 514 513
f 445 446 514
f 515 446 447
f 515 514 446
f 516 447 448
f 516 515 447
f 448 449 516
f 516 449 517
f 519 518 451
f 451 518 450
f 520 451 452
f 520 519 451
f 521 452 453
f 521 520 452
f 453 441 510
f 453 510 521
f 522 511 442
f 522 442 454
f 454 444 512
f 523 454 512
f 522 454 523
f 523 512 513
f 455 517 449
f 455 524 517
f 456 450 525
f 450 526 525
f 450 518 526
f 525 457 456
f 458 524 455
f 458 527 524
f 528 460 461
f 526 529 525
f 528 461 462
f 457 525 529
f 530 457 529
f 463 457 530
f 464 527 458
f 464 531 527
f 533 532 528
f 532 460 528
f 532 465 460
f 528 462 533
f 462 534 533
f 462 466 534
f 530 535 463
f 463 535 467
f 468 467 535
f 468 535 536
f 537 531 464
f 537 464 469
f 469 465 532
f 469 532 537
f 466 470 538
f 539 466 538
f 534 466 539
f 471 538 470
f 536 472 468
f 540 472 536
f 539 538 541
f 539 541 542
f 473 541 471
f 471 541 538
f 540 474 472
f 543 474 540
f 542 541 544
f 542 544 545
f 476 544 473
f 473 544 541
f 543 477 474
f 546 477 543
f 547 545 544
f 547 544 476
f 478 547 476
f 548 547 478
f 478 477 546
f 478 546 548
f 480 549 479
f 549 482 479
f 551 550 483
f 551 483 484
f 483 552 485
f 550 552 483
f 485 553 486
f 552 553 485
f 487 486 553
f 487 553 554
f 489 555 488
f 555 556 488
f 488 556 480
f 556 557 480
f 557 549 480
f 549 557 482
f 557 490 482
f 557 558 490
f 492 490 558
f 492 558 559
f 493 551 484
f 493 560 551
f 554 494 487
f 561 494 554
f 496 562 495
f 562 563 495
f 495 563 489
f 563 564 489
f 564 555 489
f 555 564 556
f 559 565 492
f 492 565 497
f 497 566 498
f 565 566 497
f 499 498 566
f 499 566 567
f 568 560 493
f 568 493 500
f 569 500 501
f 569 568 500
f 570 501 502
f 570 569 501
f 502 494 561
f 502 561 570
f 572 571 562
f 496 572 562
f 503 572 496
f 562 571 563
f 567 573 499
f 499 573 504
f 505 504 573
f 505 573 574
f 576 575 506
f 576 506 507
f 506 577 508
f 575 577 506
f 508 578 509
f 577 578 508
f 503 509 572
f 572 509 578
f 580 510 579
f 510 574 579
f 510 505 574
f 581 580 579
f 511 576 507
f 511 582 576
f 583 513 514
f 583 514 584
f 514 585 584
f 514 515 585
f 586 515 516
f 586 585 515
f 516 517 586
f 586 517 587
f 589 588 519
f 519 588 518
f 590 519 520
f 590 589 519
f 591 520 521
f 591 590 520
f 521 510 580
f 592 521 580
f 591 521 592
f 592 580 581
f 593 582 511
f 593 511 522
f 594 522 523
f 594 593 522
f 523 513 583
f 595 523 583
f 594 523 595
f 595 583 584
f 524 587 517
f 524 596 587
f 588 526 518
f 597 526 588
f 527 596 524
f 527 598 596
f 597 599 526
f 526 599 529
f 530 529 599
f 530 599 600
f 531 598 527
f 531 601 598
f 602 532 533
f 534 602 533
f 535 530 603
f 530 604 603
f 530 600 604
f 603 536 535
f 531 537 605
f 606 531 605
f 601 531 606
f 532 602 537
f 602 605 537
f 602 607 605
f 539 607 534
f 534 607 602
f 604 608 603
f 536 603 608
f 609 536 608
f 540 536 609
f 610 606 605
f 612 611 610
f 605 612 610
f 607 612 605
f 542 612 539
f 539 612 607
f 609 543 540
f 613 543 609
f 614 611 612
f 542 545 612
f 545 615 612
f 615 614 612
f 615 545 616
f 618 617 616
f 616 617 615
f 613 617 618
f 546 613 618
f 543 613 546
f 547 616 545
f 616 547 548
f 616 548 618
f 618 548 546
f 620 619 550
f 620 550 551
f 550 621 552
f 619 621 550
f 552 622 553
f 621 622 552
f 624 623 554
f 553 624 554
f 622 624 553
f 625 623 624
f 628 627 626
f 557 556 626
f 627 557 626
f 629 557 627
f 557 630 558
f 629 630 557
f 559 558 630
f 559 630 631
f 560 620 551
f 560 632 620
f 633 561 623
f 623 561 554
f 623 625 634
f 623 634 633
f 628 626 564
f 563 628 564
f 635 628 563
f 564 626 556
f 631 636 559
f 559 636 565
f 636 638 637
f 566 636 637
f 565 636 566
f 637 567 566
f 639 632 560
f 639 560 568
f 640 568 569
f 640 639 568
f 641 569 570
f 641 640 569
f 570 561 633
f 642 570 633
f 641 570 642
f 642 633 634
f 572 643 571
f 643 644 571
f 644 563 571
f 644 635 563
f 637 638 645
f 645 638 646
f 647 573 567
f 637 647 567
f 645 647 637
f 647 574 573
f 576 648 575
f 575 648 649
f 650 575 649
f 577 575 650
f 577 651 578
f 650 651 577
f 572 578 643
f 578 652 643
f 578 651 652
f 643 652 644
f 646 653 645
f 645 653 647
f 647 653 654
f 647 654 574
f 654 579 574
f 654 655 579
f 581 579 655
f 581 655 656
f 658 657 648
f 576 658 648
f 582 658 576
f 648 657 649
f 659 584 585
f 659 585 660
f 585 661 660
f 585 586 661
f 663 662 587
f 662 586 587
f 662 661 586
f 663 664 662
f 666 665 589
f 589 665 588
f 667 589 590
f 667 666 589
f 668 590 591
f 668 667 590
f 669 591 592
f 669 668 591
f 592 581 656
f 592 656 669
f 670 658 582
f 670 582 593
f 671 593 594
f 671 670 593
f 672 594 595
f 672 671 594
f 595 584 659
f 673 595 659
f 672 595 673
f 673 659 660
f 596 674 663
f 596 663 587
f 664 663 675
f 663 676 675
f 663 674 676
f 665 675 676
f 597 665 676
f 588 665 597
f 598 677 674
f 598 674 596
f 674 678 676
f 674 677 678
f 679 599 597
f 676 679 597
f 678 679 676
f 679 600 599
f 601 680 677
f 601 677 598
f 682 678 681
f 678 680 681
f 678 677 680
f 684 683 682
f 683 678 682
f 683 679 678
f 683 604 600
f 683 600 679
f 606 685 680
f 606 680 601
f 681 680 686
f 686 680 685
f 683 684 687
f 687 684 688
f 689 608 604
f 683 689 604
f 687 689 683
f 689 609 608
f 610 685 606
f 691 690 611
f 611 690 610
f 690 686 610
f 686 685 610
f 690 691 688
f 691 687 688
f 691 692 687
f 687 693 689
f 687 692 693
f 693 613 609
f 693 609 689
f 614 691 611
f 691 614 615
f 691 615 692
f 692 615 617
f 692 617 693
f 693 617 613
f 620 694 619
f 619 694 695
f 696 619 695
f 621 619 696
f 621 697 622
f 696 697 621
f 622 698 624
f 697 698 622
f 700 699 625
f 624 700 625
f 698 700 624
f 702 701 699
f 702 699 700
f 627 628 701
f 702 627 701
f 703 627 702
f 627 704 629
f 703 704 627
f 704 706 705
f 630 704 705
f 629 704 630
f 705 631 630
f 632 707 694
f 632 694 620
f 695 694 708
f 708 694 707
f 709 634 699
f 699 634 625
f 710 699 701
f 709 699 710
f 635 710 628
f 628 710 701
f 706 711 705
f 711 713 712
f 711 712 636
f 705 711 636
f 631 705 636
f 712 638 636
f 639 707 632
f 714 708 707
f 639 714 707
f 640 714 639
f 715 640 641
f 715 714 640
f 716 641 642
f 716 715 641
f 642 634 709
f 717 642 709
f 716 642 717
f 717 709 710
f 717 710 718
f 635 644 710
f 644 719 710
f 719 718 710
f 719 644 720
f 720 721 719
f 712 713 722
f 722 713 723
f 722 646 638
f 722 638 712
f 649 724 650
f 725 651 650
f 725 650 724
f 651 725 726
f 727 651 726
f 652 651 727
f 644 652 720
f 652 728 720
f 652 727 728
f 720 728 721
f 723 729 722
f 722 729 646
f 729 653 646
f 729 730 653
f 653 731 654
f 730 731 653
f 654 732 655
f 731 732 654
f 656 655 732
f 656 732 733
f 735 734 657
f 735 657 658
f 649 657 724
f 657 736 724
f 657 734 736
f 724 736 725
f 725 736 737
f 725 737 726
f 738 660 661
f 662 739 661
f 661 739 738
f 664 739 662
f 740 665 666
f 667 741 666
f 666 741 740
f 668 742 667
f 667 742 741
f 669 743 668
f 668 743 742
f 744 743 669
f 656 744 669
f 733 744 656
f 745 735 658
f 745 658 670
f 746 670 671
f 746 745 670
f 747 671 672
f 747 746 671
f 748 672 673
f 748 747 672
f 673 660 738
f 749 673 738
f 748 673 749
f 749 738 739
f 749 739 750
f 750 739 664
f 675 750 664
f 751 750 675
f 675 665 740
f 752 675 740
f 751 675 752
f 752 740 741
f 752 741 753
f 753 741 742
f 753 742 754
f 754 742 743
f 754 743 755
f 755 743 744
f 681 756 682
f 756 684 682
f 686 757 756
f 686 756 681
f 757 688 684
f 757 684 756
f 690 757 686
f 757 690 688
f 695 758 696
f 696 758 759
f 760 696 759
f 697 696 760
f 697 761 698
f 760 761 697
f 698 762 700
f 761 762 698
f 700 763 702
f 762 763 700
f 702 764 703
f 763 764 702
f 764 766 765
f 704 764 765
f 703 764 704
f 765 706 704
f 708 767 758
f 708 758 695
f 759 758 768
f 768 758 767
f 765 766 769
f 769 766 770
f 771 711 706
f 765 771 706
f 769 771 765
f 771 713 711
f 714 767 708
f 772 768 767
f 714 772 767
f 715 772 714
f 773 715 716
f 773 772 715
f 774 716 717
f 774 773 716
f 775 717 718
f 775 774 717
f 776 718 719
f 776 775 718
f 777 769 721
f 769 776 721
f 776 719 721
f 769 770 776
f 769 778 771
f 769 777 778
f 778 723 713
f 778 713 771
f 726 779 727
f 780 728 727
f 780 727 779
f 777 721 728
f 780 777 728
f 781 777 780
f 783 778 782
f 778 781 782
f 778 777 781
f 778 783 723
f 783 729 723
f 783 784 729
f 729 785 730
f 784 785 729
f 730 786 731
f 785 786 730
f 731 787 732
f 786 787 731
f 733 732 787
f 733 787 788
f 735 789 734
f 734 789 790
f 791 734 790
f 736 734 791
f 736 792 737
f 791 792 736
f 726 737 779
f 737 793 779
f 737 792 793
f 779 793 780
f 780 793 794
f 780 794 781
f 781 794 795
f 781 795 782
f 788 744 733
f 796 744 788
f 745 789 735
f 745 746 789
f 746 797 789
f 797 790 789
f 746 798 797
f 747 799 746
f 746 799 798
f 748 800 747
f 747 800 799
f 800 748 801
f 748 802 801
f 748 749 802
f 803 749 750
f 803 802 749
f 804 750 751
f 804 803 750
f 805 751 752
f 805 804 751
f 806 752 753
f 806 805 752
f 807 753 754
f 807 806 753
f 808 754 755
f 808 807 754
f 755 744 796
f 755 796 808
f 809 797 798
f 809 798 799
f 809 799 810
f 810 799 800
f 810 800 811
f 811 800 801
f 759 812 760
f 813 761 760
f 813 760 812
f 814 762 761
f 814 761 813
f 815 763 762
f 815 762 814
f 816 764 763
f 816 763 815
f 816 766 764
f 768 817 812
f 768 812 759
f 812 818 813
f 812 817 818
f 813 819 814
f 813 818 819
f 814 820 815
f 814 819 820
f 815 821 816
f 815 820 821
f 821 770 766
f 821 766 816
f 772 817 768
f 817 772 773
f 817 773 818
f 818 773 774
f 818 774 819
f 819 774 775
f 819 775 820
f 820 775 776
f 820 776 821
f 821 776 770
f 782 822 783
f 823 784 783
f 823 783 822
f 824 785 784
f 824 784 823
f 825 786 785
f 825 785 824
f 826 787 786
f 826 786 825
f 826 788 787
f 790 827 791
f 791 827 828
f 829 791 828
f 792 791 829
f 792 830 793
f 829 830 792
f 793 831 794
f 830 831 793
f 794 832 795
f 831 832 794
f 782 795 822
f 795 833 822
f 795 832 833
f 822 833 823
f 823 833 834
f 823 834 824
f 824 834 835
f 824 835 825
f 825 835 836
f 825 836 826
f 826 836 837
f 788 826 837
f 838 788 837
f 796 788 838
f 797 839 827
f 797 827 790
f 828 827 840
f 840 827 839
f 841 801 802
f 803 842 802
f 802 842 841
f 804 843 803
f 803 843 842
f 805 844 804
f 804 844 843
f 806 845 805
f 805 845 844
f 807 846 806
f 806 846 845
f 846 807 847
f 807 848 847
f 807 808 848
f 808 796 838
f 808 838 848
f 809 839 797
f 849 840 839
f 809 849 839
f 810 849 809
f 850 810 811
f 850 849 810
f 811 801 841
f 851 811 841
f 850 811 851
f 851 841 842
f 851 842 852
f 852 842 843
f 852 843 853
f 853 843 844
f 853 844 854
f 854 844 845
f 854 845 855
f 855 845 846
f 855 846 856
f 856 846 847
f 828 857 829
f 858 830 829
f 858 829 857
f 859 831 830
f 859 830 858
f 860 832 831
f 860 831 859
f 861 833 832
f 861 832 860
f 862 834 833
f 862 833 861
f 863 835 834
f 863 834 862
f 864 836 835
f 864 835 863
f 865 837 836
f 865 836 864
f 865 838 837
f 840 866 857
f 840 857 828
f 857 867 858
f 857 866 867
f 869 859 868
f 859 867 868
f 859 858 867
f 859 869 860
f 860 869 870
f 860 870 861
f 861 870 871
f 861 871 862
f 862 871 872
f 862 872 863
f 863 872 873
f 863 873 864
f 864 873 874
f 875 847 848
f 864 875 848
f 865 864 848
f 874 875 864
f 865 848 838
f 849 866 840
f 866 849 850
f 866 850 867
f 876 868 867
f 850 876 867
f 851 876 850
f 877 851 852
f 877 876 851
f 878 852 853
f 878 877 852
f 879 853 854
f 879 878 853
f 880 854 855
f 880 879 854
f 881 855 856
f 881 880 855
f 856 847 875
f 856 875 881
f 868 882 869
f 883 870 869
f 883 869 882
f 884 871 870
f 884 870 883
f 885 872 871
f 885 871 884
f 886 873 872
f 886 872 885
f 887 874 873
f 887 873 886
f 887 875 874
f 876 882 868
f 882 876 877
f 882 877 883
f 883 877 878
f 883 878 884
f 884 878 879
f 884 879 885
f 885 879 880
f 885 880 886
f 886 880 881
f 886 881 887
f 887 881 875

