# https://github.com/mikedh/trimesh
v -0.01993737 -0.01744752 0.00812521
v -0.01825682 -0.02003009 0.00780424
v -0.01886168 -0.01810896 0.00567527
v -0.01746180 -0.01948918 0.01002415
v -0.02037190 -0.01395857 0.00429340
v -0.01810715 -0.01604920 0.00287527
v -0.01874917 -0.01342811 0.00070395
v -0.02045490 -0.01346850 0.00829428
v -0.01805147 -0.01511723 0.01028145
v -0.02014627 -0.00985195 0.00005206
v -0.01806657 -0.01142732 -0.00190935
v -0.01841074 -0.00823283 -0.00335524
v -0.02105267 -0.00889760 0.00404779
v -0.02050664 -0.00942957 0.00768205
v -0.01797791 -0.01043618 0.01026931
v -0.02035926 -0.00460659 -0.00139441
v -0.01882053 -0.00472911 -0.00434748
v -0.02095914 -0.00496978 0.00339934
v -0.02043096 -0.00476118 0.00773133
v -0.01793227 -0.00579178 0.01030781
v -0.02011150 -0.00069270 -0.00467368
v -0.01846976 -0.00276122 -0.00596339
v -0.01772359 0.00042497 -0.00787196
v -0.02084347 0.00022366 -0.00073436
v -0.02087776 -0.00036426 0.00347839
v -0.02033861 -0.00017828 0.00787020
v -0.01799880 -0.00062756 0.00992496
v -0.02038337 0.00417444 -0.00558649
v -0.01854897 0.00480586 -0.00769735
v -0.02089048 0.00422523 -0.00140594
v -0.02083765 0.00426250 0.00354828
v -0.02023815 0.00441198 0.00798137
v -0.01845843 0.00455230 0.00977301
v -0.02008182 0.00841921 -0.00548523
v -0.01705918 0.00900439 -0.00746534
v -0.02092515 0.00882920 -0.00139217
v -0.02087462 0.00890010 0.00359469
v -0.02024488 0.00901619 0.00802747
v -0.01846115 0.00922756 0.00981632
v -0.01880578 0.01130839 -0.00526802
v -0.01845500 0.01463813 -0.00384351
v -0.02040870 0.01312580 -0.00150876
v -0.02091935 0.01349175 0.00362382
v -0.02028495 0.01361177 0.00802203
v -0.01846092 0.01374787 0.00976823
v -0.02027315 0.01788883 -0.00068743
v -0.01843044 0.01891862 -0.00356501
v -0.02092826 0.01804394 0.00359127
v -0.02033770 0.01818515 0.00796909
v -0.01768955 0.01851387 0.00999397
v -0.02032019 0.02243235 -0.00073456
v -0.01851652 0.02354620 -0.00370613
v -0.02096024 0.02262830 0.00353225
v -0.02037586 0.02278539 0.00789697
v -0.01843721 0.02217830 0.01029419
v -0.02036115 0.02706458 -0.00080886
v -0.01849536 0.02822967 -0.00374256
v -0.02101686 0.02723288 0.00348387
v -0.02038198 0.02740188 0.00783819
v -0.01784741 0.02635226 0.01039233
v -0.02003714 0.03142639 -0.00072785
v -0.01813351 0.03207714 -0.00301704
v -0.02106113 0.03184456 0.00352834
v -0.02048886 0.03200186 0.00787406
v -0.01786712 0.03092552 0.01037381
v -0.01881841 0.03439649 -0.00058218
v -0.01850818 0.03776408 0.00080149
v -0.02054488 0.03623055 0.00326777
v -0.02056446 0.03657875 0.00786487
v -0.01799359 0.03550257 0.01041794
v -0.01997483 0.04010009 0.00347634
v -0.01821587 0.04135082 0.00183284
v -0.02027302 0.04056966 0.00693811
v -0.01767459 0.04052740 0.01020413
v -0.01870190 0.04315757 0.00500157
v -0.01802921 0.04351628 0.00846588
v -0.01527408 -0.03106765 0.00817291
v -0.01368876 -0.03365662 0.00770191
v -0.01429686 -0.03179462 0.00563918
v -0.01286741 -0.03319106 0.01000246
v -0.01548887 -0.02683027 -0.00058470
v -0.01354838 -0.02929920 -0.00172400
v -0.01428738 -0.02708411 -0.00410603
v -0.01581659 -0.02808714 0.00477299
v -0.01384317 -0.03037223 0.00207740
v -0.01569931 -0.02718646 0.00846033
v -0.01342418 -0.02889495 0.01032963
v -0.01555875 -0.02327423 -0.00465174
v -0.01330060 -0.02581534 -0.00642069
v -0.01341127 -0.02283075 -0.00745408
v -0.01614025 -0.02242331 -0.00062594
v -0.01618414 -0.02385040 0.00287361
v -0.01647511 -0.02303489 0.00746372
v -0.01386524 -0.02319734 0.01000524
v -0.01569221 -0.01839842 -0.00540303
v -0.01354737 -0.01793693 -0.00821197
v -0.01617031 -0.01904093 -0.00193055
v -0.01674409 -0.01936674 0.00335052
v -0.01430340 -0.01746082 0.01025996
v -0.01552448 -0.01445983 -0.00580953
v -0.01388038 -0.01269627 -0.00812443
v -0.01669400 -0.01470572 -0.00142654
v -0.01416749 -0.01276599 0.01027308
v -0.01606041 -0.01048965 -0.00505375
v -0.01380555 -0.00811827 -0.00803049
v -0.01411948 -0.00812499 0.01037855
v -0.01654399 -0.00506432 -0.00643649
v -0.01421127 -0.00431645 -0.00874829
v -0.01472353 -0.00388491 0.01009193
v -0.01538434 -0.00123709 -0.00965660
v -0.01331651 -0.00260230 -0.01078341
v -0.01254869 0.00044020 -0.01188696
v -0.01531176 -0.00050202 0.00882359
v -0.01367585 0.00120915 0.00625955
v -0.01322890 -0.00210547 0.00781115
v -0.01454991 0.00177675 -0.01019989
v -0.01476986 0.00500662 -0.00891184
v -0.01606052 0.00398209 0.00793396
v -0.01407375 0.00479036 0.00514030
v -0.01374564 0.00965720 -0.00871274
v -0.01538645 0.00886117 0.00486444
v -0.01385537 0.01038391 0.00111143
v -0.01350876 0.00707389 0.00262818
v -0.01677082 0.00854248 0.00843474
v -0.01677668 0.01296735 -0.00612884
v -0.01426489 0.01396378 -0.00807421
v -0.01529754 0.01338243 0.00383650
v -0.01353903 0.01390015 0.00141246
v -0.01666730 0.01268570 0.00776995
v -0.01607884 0.01683160 -0.00580194
v -0.01310158 0.01920329 -0.00806787
v -0.01402366 0.01626179 0.00396603
v -0.01578550 0.01692626 0.00758691
v -0.01321314 0.01893178 0.00622291
v -0.01610272 0.02138140 -0.00584800
v -0.01373431 0.02318911 -0.00748143
v -0.01414706 0.02029744 0.00882199
v -0.01448140 0.02357983 0.01024271
v -0.01618243 0.02601015 -0.00597008
v -0.01328679 0.02707545 -0.00764991
v -0.01405319 0.02856875 0.01040059
v -0.01618070 0.03130397 -0.00555804
v -0.01336025 0.03173828 -0.00769174
v -0.01417036 0.03312939 0.01037411
v -0.01538727 0.03609847 -0.00542980
v -0.01258116 0.03665524 -0.00756739
v -0.01696658 0.03555407 -0.00242431
v -0.01431651 0.03772525 0.01036953
v -0.01426266 0.03901746 -0.00527087
v -0.01401498 0.04233650 -0.00388776
v -0.01620067 0.04034376 -0.00143464
v -0.01383322 0.04189093 0.01018890
v -0.01585448 0.04565335 -0.00071238
v -0.01336943 0.04693769 -0.00374719
v -0.01682112 0.04549544 0.00331401
v -0.01634454 0.04642910 0.00790973
v -0.01389604 0.04580934 0.01008126
v -0.01550726 0.04947182 -0.00140862
v -0.01310114 0.05055308 -0.00294435
v -0.01596698 0.04996504 0.00234023
v -0.01555801 0.05007609 0.00698586
v -0.01393703 0.04958193 0.00991719
v -0.01358890 0.05218482 -0.00010538
v -0.01351454 0.05256609 0.00468607
v -0.01298641 0.05199097 0.00859099
v -0.01071899 -0.04504774 0.00802457
v -0.00920252 -0.04761994 0.00756716
v -0.00971613 -0.04567683 0.00550683
v -0.00840531 -0.04677770 0.01010492
v -0.01104617 -0.04138027 0.00434941
v -0.00896886 -0.04357075 0.00276608
v -0.00952618 -0.04077640 0.00073697
v -0.01112633 -0.04101495 0.00837322
v -0.00881622 -0.04271364 0.01024221
v -0.01092548 -0.03656929 -0.00042250
v -0.00896998 -0.03862163 -0.00196715
v -0.00962691 -0.03598624 -0.00402683
v -0.01157499 -0.03696981 0.00352094
v -0.01191894 -0.03673259 0.00738177
v -0.00924117 -0.03736225 0.01039756
v -0.01076247 -0.03292714 -0.00492117
v -0.00869648 -0.03469171 -0.00633876
v -0.00865999 -0.03191924 -0.00742074
v -0.01205185 -0.03171648 -0.00128218
v -0.01228267 -0.03370450 0.00373313
v -0.00915524 -0.03186886 0.01048980
v -0.01180846 -0.02907959 -0.00531079
v -0.00944300 -0.02745241 -0.00772698
v -0.01021616 -0.02693561 0.01004736
v -0.00977435 -0.02288688 -0.00879012
v -0.01081061 -0.02291145 0.00814430
v -0.00938187 -0.02244140 0.00556826
v -0.00874611 -0.02509587 0.00772166
v -0.01109270 -0.01881287 -0.01016910
v -0.00867917 -0.02115111 -0.01073764
v -0.00885557 -0.01819256 -0.01202001
v -0.01082850 -0.01832511 0.00422945
v -0.00965718 -0.01777617 0.00049626
v -0.00894353 -0.02035977 0.00269149
v -0.01200784 -0.01925482 0.00834378
v -0.01174221 -0.01488854 -0.01051482
v -0.00880289 -0.01382815 -0.01231400
v -0.01096561 -0.01406245 -0.00011545
v -0.00894482 -0.01364418 -0.00310676
v -0.00880039 -0.01646476 -0.00191094
v -0.01134745 -0.01324963 0.00402748
v -0.01182177 -0.01497638 0.00769521
v -0.01158910 -0.01024597 -0.01045919
v -0.00878040 -0.00919854 -0.01222683
v -0.01119002 -0.00921288 -0.00098313
v -0.00898182 -0.00932599 -0.00332640
v -0.01142403 -0.00919948 0.00333637
v -0.01171620 -0.01030002 0.00773845
v -0.01188583 -0.00590616 -0.01042380
v -0.00961434 -0.00434768 -0.01233447
v -0.01116634 -0.00457988 -0.00086981
v -0.00895241 -0.00466892 -0.00322140
v -0.01150076 -0.00521490 0.00269453
v -0.01193790 -0.00533257 0.00740099
v -0.00872831 -0.00066745 -0.01281502
v -0.01114689 0.00003451 -0.00080505
v -0.00892109 -0.00001351 -0.00318938
v -0.01188682 -0.00117843 0.00377136
v -0.01222282 0.00415118 -0.01082070
v -0.00926991 0.00410925 -0.01230473
v -0.01104977 0.00395855 -0.00139461
v -0.00888508 0.00454554 -0.00317863
v -0.01225096 0.00383141 0.00244337
v -0.01149941 0.00801088 -0.01041238
v -0.00876233 0.00919023 -0.01218396
v -0.01166367 0.00791767 -0.00076132
v -0.00885971 0.00903530 -0.00322079
v -0.01159380 0.01263902 -0.01039723
v -0.00890037 0.01377175 -0.01225257
v -0.01164468 0.01308712 -0.00108483
v -0.00887087 0.01355934 -0.00326956
v -0.01141032 0.01691333 -0.01043115
v -0.00808927 0.01852689 -0.01209974
v -0.01109731 0.01816354 -0.00093314
v -0.00898345 0.01810727 -0.00326862
v -0.01207606 0.01796860 0.00280978
v -0.00996513 0.02008869 -0.01012524
v -0.00934448 0.02340150 -0.00868140
v -0.01121749 0.02279414 -0.00088894
v -0.00906387 0.02268646 -0.00327310
v -0.01135614 0.02283296 0.00342163
v -0.01193410 0.02204942 0.00723927
v -0.00982916 0.02769088 -0.00814528
v -0.01097371 0.02703117 -0.00087309
v -0.00816756 0.02753464 -0.00304467
v -0.01143618 0.02739566 0.00347024
v -0.01167053 0.02639017 0.00787633
v -0.00924924 0.03170584 -0.00813206
v -0.00979673 0.02986272 -0.00073902
v -0.01106399 0.03162888 0.00321506
v -0.00941879 0.03319621 0.00070867
v -0.01174736 0.03091687 0.00785550
v -0.00866605 0.03577847 -0.00813859
v -0.01102053 0.03644381 0.00402473
v -0.00868533 0.03758282 0.00104231
v -0.01189855 0.03543461 0.00783003
v -0.01242916 0.04070198 -0.00632235
v -0.00947169 0.04068372 -0.00783746
v -0.01086429 0.04069145 0.00400711
v -0.00829572 0.04175059 0.00184885
v -0.01205820 0.04000567 0.00777951
v -0.01152815 0.04437947 -0.00605964
v -0.00820057 0.04537641 -0.00754449
v -0.00969572 0.04358409 0.00398175
v -0.01132224 0.04424431 0.00757397
v -0.00841894 0.04639300 0.00571779
v -0.00917917 0.04767835 -0.00527155
v -0.00958651 0.04977303 -0.00331528
v -0.00950904 0.04731007 0.00868562
v -0.00971673 0.04995154 0.00993529
v -0.01028333 0.05200495 -0.00160988
v -0.00930192 0.05253609 0.00285373
v -0.00928066 0.05240658 0.00783320
v -0.00659001 -0.05439845 0.00885154
v -0.00491850 -0.05751287 0.00840215
v -0.00476305 -0.05546852 0.00562483
v -0.00640167 -0.05427601 0.01299792
v -0.00497311 -0.05758168 0.01151932
v -0.00380468 -0.05620067 0.01467951
v -0.00632617 -0.05080425 0.00387228
v -0.00438328 -0.05253571 0.00261139
v -0.00500580 -0.04969713 0.00060082
v -0.00746104 -0.04980769 0.00845266
v -0.00673526 -0.05150767 0.01199055
v -0.00440700 -0.05188662 0.01466165
v -0.00626249 -0.04527936 -0.00478106
v -0.00409645 -0.04830472 -0.00629413
v -0.00418132 -0.04577053 -0.00773056
v -0.00645532 -0.04663025 -0.00049447
v -0.00475926 -0.04840034 -0.00286042
v -0.00774387 -0.04660667 0.00369045
v -0.00429188 -0.04849447 0.01189229
v -0.00520003 -0.04477082 0.01038491
v -0.00642919 -0.04195294 -0.00601969
v -0.00414182 -0.04146162 -0.00783775
v -0.00760372 -0.04211460 -0.00149773
v -0.00497098 -0.04037024 0.01027161
v -0.00729474 -0.03806335 -0.00528410
v -0.00483683 -0.03620640 -0.00827414
v -0.00542160 -0.03598871 0.01011495
v -0.00504156 -0.03113311 -0.00870178
v -0.00617733 -0.03131559 0.00425942
v -0.00509692 -0.03156880 0.00059679
v -0.00432108 -0.03381440 0.00309512
v -0.00439375 -0.03480883 0.00699628
v -0.00636136 -0.03261624 0.00853077
v -0.00554799 -0.02688417 -0.00884917
v -0.00636731 -0.02778226 -0.00004577
v -0.00413010 -0.02729787 -0.00316599
v -0.00411245 -0.03028459 -0.00194490
v -0.00694908 -0.02762314 0.00346824
v -0.00749518 -0.02837326 0.00744275
v -0.00652977 -0.02380232 -0.01002707
v -0.00376422 -0.02580930 -0.01068856
v -0.00481442 -0.02271551 -0.01211092
v -0.00638881 -0.02358515 -0.00145698
v -0.00407637 -0.02298100 -0.00334046
v -0.00753933 -0.02382520 0.00320555
v -0.00461579 -0.01858394 -0.01290284
v -0.00726890 -0.01973110 -0.00076517
v -0.00490356 -0.01823806 -0.00335897
v -0.00457844 -0.01394470 -0.01280919
v -0.00475965 -0.01399911 -0.00378812
v -0.00468228 -0.00928189 -0.01272765
v -0.00476959 -0.00945704 -0.00371111
v -0.00474005 -0.00471491 -0.01274140
v -0.00479264 -0.00480344 -0.00364910
v -0.00471862 -0.00012446 -0.01274039
v -0.00480021 -0.00015178 -0.00363591
v -0.00470681 0.00450808 -0.01272350
v -0.00476821 0.00444717 -0.00365139
v -0.00479018 0.00908944 -0.01275469
v -0.00475986 0.00898090 -0.00366485
v -0.00490536 0.01367536 -0.01277695
v -0.00479506 0.01350588 -0.00366720
v -0.00428570 0.01769232 -0.01278556
v -0.00488833 0.01807789 -0.00367891
v -0.00734793 0.02209703 -0.01073427
v -0.00395434 0.02277650 -0.01219066
v -0.00489886 0.02271786 -0.00366777
v -0.00518527 0.02473267 -0.01006502
v -0.00466033 0.02803295 -0.00861987
v -0.00423074 0.02675173 -0.00363851
v -0.00519257 0.03242494 -0.00799856
v -0.00788320 0.03153034 -0.00173516
v -0.00489076 0.03156560 -0.00324466
v -0.00470777 0.03650921 -0.00807257
v -0.00688156 0.03516070 -0.00138000
v -0.00340070 0.03617652 -0.00287112
v -0.00491806 0.04129569 -0.00827034
v -0.00510946 0.03817244 -0.00098373
v -0.00467061 0.04051482 0.00058157
v -0.00389151 0.04545009 -0.00779781
v -0.00749888 0.04589448 0.00250287
v -0.00454684 0.04502033 0.00091560
v -0.00487786 0.04783051 -0.00542667
v -0.00488826 0.04826372 -0.00195111
v -0.00711971 0.04979222 -0.00004497
v -0.00662292 0.04967494 0.00424322
v -0.00517403 0.04872614 0.00758772
v -0.00368709 0.05062722 0.00643419
v -0.00455027 0.05025368 0.00958478
v -0.00482772 0.05177619 0.00748314
v -0.00246659 -0.05951682 0.00847494
v 0.00037278 -0.06140879 0.00897415
v 0.00076451 -0.05907314 0.00614089
v -0.00247873 -0.05971822 0.01298630
v -0.00032970 -0.06143608 0.01189466
v 0.00058933 -0.05875922 0.01451262
v -0.00156960 -0.05497563 -0.00104339
v 0.00022993 -0.05656410 -0.00028300
v -0.00037150 -0.05497742 -0.00340016
v -0.00238535 -0.05590061 0.00324647
v 0.00024934 -0.05703932 0.00278925
v -0.00067801 -0.05451196 0.01562750
v -0.00211685 -0.05149935 -0.00481619
v 0.00037183 -0.05295586 -0.00555982
v -0.00041418 -0.04950312 -0.00768585
v -0.00323645 -0.05163539 -0.00059897
v 0.00001091 -0.05092749 0.01501933
v -0.00062994 -0.04559811 -0.00856977
v 0.00021962 -0.04759735 0.00408190
v -0.00159880 -0.04547936 0.00382258
v -0.00036439 -0.04607628 0.00081822
v 0.00016321 -0.04772186 0.00877688
v -0.00269663 -0.04617046 0.00841005
v 0.00072755 -0.04883979 0.01309549
v 0.00031753 -0.04107224 -0.00878718
v -0.00159230 -0.04188959 -0.00039478
v -0.00025272 -0.04075952 -0.00290709
v 0.00030686 -0.04401279 -0.00122193
v -0.00214891 -0.04085257 0.00393403
v -0.00266477 -0.04260243 0.00759592
v -0.00167290 -0.03740456 -0.01031676
v 0.00065370 -0.03844486 -0.01030472
v -0.00034648 -0.03618607 -0.01163772
v -0.00163635 -0.03754049 -0.00176898
v 0.00006449 -0.03699579 -0.00295985
v -0.00268604 -0.03679275 0.00283081
v -0.00284302 -0.03815800 0.00774933
v -0.00224526 -0.03355241 -0.01058720
v 0.00004108 -0.03251776 -0.01178083
v -0.00257583 -0.03363859 -0.00087856
v -0.00012884 -0.03171778 -0.00315377
v -0.00235341 -0.02917932 -0.01048900
v -0.00010868 -0.02728632 -0.01199745
v -0.00055400 -0.02704156 -0.00398934
v -0.00054098 -0.02270161 -0.01289604
v 0.00020441 -0.02318899 -0.00390632
v 0.00020954 -0.01875739 -0.01285388
v 0.00020112 -0.01865495 -0.00376555
v 0.00020794 -0.01404706 -0.01275063
v 0.00012703 -0.01408195 -0.00365717
v 0.00010595 -0.00940655 -0.01269840
v 0.00010286 -0.00946457 -0.00358754
v 0.00001622 -0.00478765 -0.01267670
v 0.00006191 -0.00483976 -0.00356567
v 0.00000043 -0.00023343 -0.01267294
v 0.00000132 -0.00023031 -0.00356283
v -0.00001490 0.00431977 -0.01267928
v -0.00000056 0.00434670 -0.00356501
v -0.00010278 0.00893626 -0.01270118
v 0.00000559 0.00891896 -0.00356290
v -0.00020529 0.01357908 -0.01275203
v -0.00000153 0.01349267 -0.00356180
v -0.00023255 0.01834419 -0.01286195
v -0.00006278 0.01809523 -0.00356687
v 0.00052876 0.02235998 -0.01290774
v -0.00010326 0.02272379 -0.00358740
v -0.00252489 0.02685562 -0.01070958
v 0.00046138 0.02620841 -0.01187133
v -0.00018600 0.02742576 -0.00367742
v -0.00047624 0.02879855 -0.01001481
v -0.00006610 0.03129355 -0.00831924
v -0.00014559 0.03212101 -0.00377769
v -0.00010581 0.03650382 -0.00803142
v 0.00107806 0.03610028 -0.00320200
v -0.00033374 0.04122239 -0.00826036
v -0.00110554 0.03897064 -0.00127020
v 0.00013159 0.04171976 0.00068621
v 0.00080353 0.04540957 -0.00781195
v 0.00016799 0.04529393 0.00077132
v -0.00024748 0.04777224 -0.00539175
v -0.00005934 0.04771622 -0.00167130
v 0.00009845 0.04880988 0.00828160
v -0.00005661 0.05019691 0.00685794
v 0.00010608 0.05017703 0.00963409
v -0.00004898 0.05156406 0.00821043
v 0.00209138 -0.06032315 0.00838481
v 0.00224479 -0.06039044 0.01141485
v 0.00148012 -0.05450393 -0.00220799
v 0.00253036 -0.05478836 0.00208343
v 0.00370994 -0.05629926 0.00550608
v 0.00449803 -0.05786174 0.00904817
v 0.00445429 -0.05780741 0.01300104
v 0.00405041 -0.05450552 0.01484787
v 0.00247183 -0.05089739 -0.00563031
v 0.00320628 -0.05124584 -0.00160299
v 0.00434939 -0.05127733 0.00151097
v 0.00507527 -0.05334712 0.00421840
v 0.00393432 -0.05052349 0.01455114
v 0.00481598 -0.04811944 -0.00468949
v 0.00343831 -0.04649424 -0.00780107
v 0.00497581 -0.04893328 -0.00095017
v 0.00150421 -0.04523417 0.00293414
v 0.00219414 -0.04586354 0.00761985
v 0.00430090 -0.04624260 0.01035289
v 0.00482928 -0.04862887 0.01191683
v 0.00486545 -0.04227777 -0.00766887
v 0.00162564 -0.04114509 -0.00068806
v 0.00214763 -0.04111305 0.00409861
v 0.00263409 -0.04168506 0.00777237
v 0.00506483 -0.04266236 0.01028568
v 0.00200828 -0.03573976 -0.01056594
v 0.00450571 -0.03759631 -0.00822682
v 0.00179166 -0.03638571 -0.00164133
v 0.00272709 -0.03686550 0.00213173
v 0.00285830 -0.03746187 0.00697293
v 0.00532018 -0.03753372 0.01016261
v 0.00228414 -0.03137964 -0.01049615
v 0.00454991 -0.03304946 -0.00880567
v 0.00305966 -0.03271573 -0.00130278
v 0.00436125 -0.03311423 0.00129578
v 0.00438730 -0.03435393 0.00494198
v 0.00490053 -0.03454122 0.00848508
v 0.00290663 -0.02755711 -0.01070627
v 0.00547458 -0.02837344 -0.00878273
v 0.00351012 -0.02809198 -0.00319301
v 0.00517825 -0.03051659 -0.00081147
v 0.00521893 -0.02517366 -0.01004543
v 0.00392913 -0.02316901 -0.01216024
v 0.00437717 -0.02330912 -0.00325252
v 0.00426711 -0.01813059 -0.01277849
v 0.00488267 -0.01820100 -0.00328019
v 0.00490478 -0.01414061 -0.01277340
v 0.00422243 -0.01342831 -0.00367647
v 0.00479077 -0.00955190 -0.01275383
v 0.00490172 -0.00950077 -0.00370619
v 0.00470827 -0.00497243 -0.01272595
v 0.00488740 -0.00493072 -0.00369314
v 0.00472111 -0.00034192 -0.01274116
v 0.00481489 -0.00036205 -0.00366962
v 0.00474046 0.00424918 -0.01273884
v 0.00481226 0.00422147 -0.00364738
v 0.00468116 0.00881182 -0.01272472
v 0.00480258 0.00882613 -0.00362816
v 0.00457719 0.01347519 -0.01280876
v 0.00476818 0.01341099 -0.00364397
v 0.00460102 0.01816782 -0.01291280
v 0.00474477 0.01797184 -0.00366959
v 0.00486972 0.02233899 -0.01214216
v 0.00474326 0.02257913 -0.00372313
v 0.00397775 0.02550506 -0.01070873
v 0.00206177 0.02812140 -0.01001010
v 0.00517166 0.02706709 -0.00866042
v 0.00467039 0.02721231 -0.00381608
v 0.00467071 0.03180770 -0.00793914
v 0.00490898 0.03158801 -0.00335398
v 0.00449240 0.03648096 -0.00813187
v 0.00472854 0.03550645 -0.00271304
v 0.00442204 0.04117231 -0.00833914
v 0.00338445 0.03862266 -0.00127268
v 0.00510907 0.04080227 0.00073425
v 0.00555207 0.04529967 -0.00786602
v 0.00501549 0.04497238 0.00124415
v 0.00376148 0.04766071 -0.00603441
v 0.00451663 0.04797071 -0.00190679
v 0.00409485 0.04872895 0.00872225
v 0.00498454 0.04957337 0.00604322
v 0.00467607 0.05029294 0.00961658
v 0.00505886 0.05179776 0.00781253
v 0.00662633 -0.05394349 0.00802355
v 0.00653740 -0.05537433 0.01203809
v 0.00633299 -0.05010191 0.00325142
v 0.00762620 -0.04955409 0.00831635
v 0.00659614 -0.05202694 0.01250965
v 0.00630503 -0.04469767 -0.00549466
v 0.00644921 -0.04650195 -0.00138779
v 0.00766943 -0.04588896 0.00295470
v 0.00914018 -0.04695718 0.00622642
v 0.00950725 -0.04782548 0.00831078
v 0.00842459 -0.04581430 0.01015261
v 0.00648115 -0.04075381 -0.00595637
v 0.00757603 -0.04156266 -0.00218303
v 0.00895300 -0.04209216 0.00142799
v 0.00964592 -0.04420113 0.00413417
v 0.00876195 -0.04043414 0.01034947
v 0.00754716 -0.03700848 -0.00567622
v 0.00898337 -0.03741613 -0.00334233
v 0.00952201 -0.03942402 -0.00060603
v 0.01004929 -0.03605566 0.01034772
v 0.00956991 -0.03475005 -0.00530866
v 0.00785944 -0.03241061 -0.00746833
v 0.00618412 -0.03104995 0.00323413
v 0.00666578 -0.03178519 0.00785478
v 0.00820595 -0.03313124 0.01033806
v 0.00975116 -0.02747020 -0.00768111
v 0.00640779 -0.02720321 -0.00043392
v 0.00691899 -0.02788923 0.00344567
v 0.00744603 -0.02764337 0.00690250
v 0.01003996 -0.02852679 0.01018850
v 0.00734293 -0.02257337 -0.01071835
v 0.00903829 -0.02348476 -0.00885386
v 0.00650478 -0.02256306 -0.00143306
v 0.00750471 -0.02346844 0.00257758
v 0.00865225 -0.02390642 0.00631678
v 0.00964635 -0.02524912 0.00883957
v 0.01010960 -0.02054069 -0.01017462
v 0.00811485 -0.01897477 -0.01208992
v 0.00764068 -0.01887135 -0.00123303
v 0.00893970 -0.01927172 0.00120823
v 0.00935704 -0.02127680 0.00407983
v 0.00893049 -0.01418668 -0.01227502
v 0.00815716 -0.01435380 -0.00315945
v 0.00970709 -0.01671823 -0.00092760
v 0.00877722 -0.00962203 -0.01224603
v 0.00905463 -0.00963112 -0.00332824
v 0.00928250 -0.00457359 -0.01235140
v 0.00901676 -0.00506481 -0.00326595
v 0.00873300 0.00021474 -0.01280052
v 0.00894999 -0.00050059 -0.00318039
v 0.00957009 0.00393482 -0.01228375
v 0.00891999 0.00408068 -0.00314208
v 0.00870420 0.00875738 -0.01218827
v 0.00888696 0.00870866 -0.00317158
v 0.00873980 0.01336824 -0.01229628
v 0.00886458 0.01330845 -0.00322506
v 0.00882591 0.01773980 -0.01202422
v 0.00887983 0.01778704 -0.00329314
v 0.00872284 0.02064144 -0.01073728
v 0.00667354 0.02334987 -0.01005424
v 0.00979917 0.02227928 -0.00871130
v 0.00894416 0.02232212 -0.00335487
v 0.00930816 0.02710584 -0.00800486
v 0.00890937 0.02667490 -0.00302758
v 0.00927559 0.03171315 -0.00815342
v 0.00878185 0.02959720 -0.00178954
v 0.00737719 0.03304135 -0.00140649
v 0.00977123 0.03117415 0.00028895
v 0.00922185 0.03630246 -0.00834060
v 0.00645607 0.03674251 -0.00096953
v 0.00899083 0.03574782 0.00101468
v 0.00946836 0.04071943 -0.00794082
v 0.00890552 0.04054851 0.00191238
v 0.00918571 0.04476060 -0.00741232
v 0.00881619 0.04345600 0.00311571
v 0.00699221 0.04702310 0.00322124
v 0.00977846 0.04476458 0.00551418
v 0.00771366 0.04796016 -0.00538995
v 0.00737602 0.04970560 -0.00108277
v 0.01061923 0.04978943 -0.00358499
v 0.00709995 0.05043298 0.00239049
v 0.00797455 0.04780730 0.00789050
v 0.00956830 0.04979357 0.00988683
v 0.00971430 0.05214330 -0.00003391
v 0.00897324 0.05246113 0.00466705
v 0.00995728 0.05239968 0.00848905
v 0.01071906 -0.04524587 0.00715952
v 0.01105922 -0.04070101 0.00375065
v 0.01110157 -0.04225713 0.00836680
v 0.01092451 -0.03598639 -0.00109742
v 0.01157782 -0.03687936 0.00349038
v 0.01169741 -0.03716727 0.00736178
v 0.01073572 -0.03182437 -0.00547427
v 0.01201580 -0.03145782 -0.00224386
v 0.01226514 -0.03322772 0.00274552
v 0.01367439 -0.03297658 0.00624039
v 0.01338901 -0.03428608 0.00876190
v 0.01301261 -0.03167418 0.01017276
v 0.01215444 -0.02790247 -0.00583906
v 0.01352610 -0.02840979 -0.00349406
v 0.01383382 -0.02975600 0.00007559
v 0.01429784 -0.03062205 0.00384649
v 0.01396183 -0.02715191 0.01025457
v 0.01428129 -0.02575225 -0.00550024
v 0.01285929 -0.02381342 -0.00751596
v 0.01107909 -0.02187078 0.00763083
v 0.01384075 -0.02323070 0.01005522
v 0.01156566 -0.01733075 -0.01051252
v 0.01332118 -0.01968493 -0.00820973
v 0.01083506 -0.01785458 0.00350982
v 0.01198503 -0.01803028 0.00828545
v 0.01375689 -0.01937274 0.01012911
v 0.01165445 -0.01307985 -0.01050120
v 0.01398605 -0.01512651 -0.00815796
v 0.01102897 -0.01353145 -0.00058425
v 0.01135079 -0.01349722 0.00406306
v 0.01178123 -0.01407088 0.00775203
v 0.01427322 -0.01513474 0.01029535
v 0.01149542 -0.00849015 -0.01050673
v 0.01376058 -0.01053010 -0.00810968
v 0.01123714 -0.00861766 -0.00091751
v 0.01143692 -0.00959234 0.00339331
v 0.01171315 -0.00944936 0.00779066
v 0.01410983 -0.01040642 0.01033288
v 0.01224293 -0.00465626 -0.01086057
v 0.01459210 -0.00518235 -0.00817411
v 0.01116696 -0.00400299 -0.00078708
v 0.01150367 -0.00567271 0.00273701
v 0.01192339 -0.00463644 0.00691077
v 0.01451217 -0.00537599 0.01019616
v 0.01458800 -0.00227765 -0.01017279
v 0.01258323 -0.00089173 -0.01186830
v 0.01114619 0.00062648 -0.00078491
v 0.01188046 -0.00084852 0.00348321
v 0.01320409 -0.00059165 0.00672562
v 0.01420632 -0.00213669 0.00883183
v 0.01333627 0.00225171 -0.01072363
v 0.01183605 0.00559616 -0.01039475
v 0.01503506 0.00348805 -0.00895133
v 0.01105115 0.00478396 -0.00141013
v 0.01224195 0.00443716 0.00189920
v 0.01366462 0.00284930 0.00560773
v 0.01147580 0.00988529 -0.01043098
v 0.01439709 0.00773094 -0.00866193
v 0.01166572 0.00920913 -0.00103521
v 0.01350782 0.00846326 0.00153045
v 0.01404041 0.00617758 0.00403241
v 0.01160850 0.01440713 -0.01045255
v 0.01450262 0.01220409 -0.00812315
v 0.01164968 0.01440950 -0.00083245
v 0.01386899 0.01200606 0.00107907
v 0.01102262 0.01825444 -0.01011949
v 0.01340214 0.01745447 -0.00804052
v 0.01110212 0.01878799 -0.00095971
v 0.01356244 0.01534156 0.00253408
v 0.01208341 0.01840962 0.00362683
v 0.01402598 0.01744152 0.00548342
v 0.01331628 0.02246739 -0.00751662
v 0.01117318 0.02331004 -0.00095433
v 0.01136643 0.02241212 0.00338526
v 0.01323893 0.02008775 0.00772087
v 0.01195243 0.02293748 0.00786474
v 0.01466445 0.02201250 0.01009646
v 0.01335386 0.02705283 -0.00766372
v 0.01092664 0.02766342 -0.00030658
v 0.01144023 0.02702177 0.00341812
v 0.01167597 0.02721481 0.00782196
v 0.01407638 0.02632223 0.01040127
v 0.01340400 0.03160156 -0.00781421
v 0.01108042 0.03205626 0.00342926
v 0.01178259 0.03181806 0.00780034
v 0.01408365 0.03089217 0.01036493
v 0.01333927 0.03585249 -0.00753163
v 0.01105351 0.03733645 0.00397274
v 0.01193329 0.03634982 0.00775600
v 0.01420388 0.03542937 0.01036040
v 0.01324185 0.03871299 -0.00635948
v 0.01183764 0.04222317 -0.00608629
v 0.01418853 0.04037020 -0.00434416
v 0.01094138 0.04161514 0.00452908
v 0.01213630 0.04095762 0.00774878
v 0.01434498 0.03998688 0.01033952
v 0.01083037 0.04608612 -0.00580056
v 0.01344241 0.04512255 -0.00381115
v 0.01118870 0.04524750 0.00807237
v 0.01393791 0.04579991 0.01010680
v 0.01399128 0.04945592 -0.00288663
v 0.01300390 0.05068806 0.00994360
v 0.01301380 0.05198546 -0.00153629
v 0.01345093 0.05248586 0.00223891
v 0.01347404 0.05220729 0.00697115
v 0.01528454 -0.03124071 0.00722652
v 0.01550689 -0.02638203 -0.00154790
v 0.01583588 -0.02775375 0.00400318
v 0.01571683 -0.02839507 0.00842390
v 0.01557315 -0.02242061 -0.00500787
v 0.01617333 -0.02253980 -0.00053597
v 0.01619434 -0.02380477 0.00285432
v 0.01627421 -0.02339944 0.00741859
v 0.01569837 -0.01746149 -0.00530158
v 0.01618500 -0.01918966 -0.00182920
v 0.01674245 -0.01877589 0.00274566
v 0.01829469 -0.01920026 0.00636456
v 0.01798591 -0.02057652 0.00878674
v 0.01770407 -0.01797233 0.01011996
v 0.01544038 -0.01322044 -0.00577161
v 0.01666483 -0.01404363 -0.00206193
v 0.01810982 -0.01456556 0.00141201
v 0.01886181 -0.01654552 0.00418579
v 0.01802358 -0.01287520 0.01031370
v 0.01598899 -0.00875579 -0.00538176
v 0.01806224 -0.00964679 -0.00301636
v 0.01875338 -0.01197762 -0.00070639
v 0.01789401 -0.00813639 0.01033345
v 0.01646800 -0.00504486 -0.00587859
v 0.01839612 -0.00607416 -0.00396486
v 0.01844067 -0.00392153 0.01025615
v 0.01532133 0.00033047 -0.01011845
v 0.01717283 -0.00027869 -0.00818848
v 0.01819532 -0.00307961 -0.00571046
v 0.01569682 0.00111500 0.00844458
v 0.01771380 -0.00030271 0.00997671
v 0.01803600 0.00421786 -0.00772257
v 0.01606009 0.00540419 0.00762740
v 0.01846775 0.00448767 0.00977123
v 0.01795493 0.00849634 -0.00741752
v 0.01539569 0.00946178 0.00435758
v 0.01677512 0.00942983 0.00837159
v 0.01845312 0.00899873 0.00982282
v 0.01782468 0.01139117 -0.00617917
v 0.01639764 0.01469111 -0.00577514
v 0.01882048 0.01295897 -0.00420974
v 0.01532438 0.01423315 0.00444504
v 0.01667334 0.01347496 0.00778858
v 0.01847311 0.01357852 0.00980316
v 0.01612109 0.01899221 -0.00577683
v 0.01847202 0.01677385 -0.00352502
v 0.01549265 0.01786954 0.00809922
v 0.01799178 0.01871679 0.00994560
v 0.01620612 0.02353871 -0.00594572
v 0.01848613 0.02133388 -0.00362054
v 0.01787557 0.02397569 0.01041841
v 0.01625989 0.02807474 -0.00606308
v 0.01854812 0.02589711 -0.00375977
v 0.01785751 0.02854068 0.01038307
v 0.01620400 0.03272971 -0.00531747
v 0.01851151 0.03023490 -0.00344231
v 0.01794345 0.03311978 0.01036184
v 0.01535918 0.03691371 -0.00486174
v 0.01813515 0.03361452 -0.00200200
v 0.01695864 0.03654381 -0.00184461
v 0.01882082 0.03609280 0.00039214
v 0.01800985 0.03764997 0.01039285
v 0.01616904 0.04151157 -0.00108362
v 0.01852130 0.03974615 0.00140405
v 0.01751032 0.04201481 0.01008304
v 0.01578476 0.04684282 -0.00077540
v 0.01822833 0.04281882 0.00317902
v 0.01682550 0.04577263 0.00404769
v 0.01867662 0.04324401 0.00697217
v 0.01666170 0.04550595 0.00853976
v 0.01541837 0.05057855 -0.00048038
v 0.01592157 0.04999289 0.00346321
v 0.01553314 0.04915095 0.00797828
v 0.01998460 -0.01755687 0.00719805
v 0.02038242 -0.01321822 0.00360801
v 0.02048029 -0.01473213 0.00827041
v 0.02017603 -0.00868059 -0.00046826
v 0.02104069 -0.00877054 0.00406509
v 0.02050877 -0.01050538 0.00774503
v 0.02043811 -0.00373987 -0.00163441
v 0.02097375 -0.00476209 0.00343669
v 0.02042433 -0.00578992 0.00779835
v 0.02020427 0.00027392 -0.00511636
v 0.02092257 0.00026554 -0.00069100
v 0.02092786 -0.00013870 0.00352443
v 0.02034548 -0.00113893 0.00787735
v 0.02041793 0.00518677 -0.00553448
v 0.02094452 0.00413670 -0.00141198
v 0.02086764 0.00446343 0.00358186
v 0.02030447 0.00349072 0.00794809
v 0.02005988 0.00951289 -0.00490393
v 0.02092631 0.00878450 -0.00136040
v 0.02085522 0.00907817 0.00358345
v 0.02027519 0.00812567 0.00801468
v 0.02040346 0.01382251 -0.00123809
v 0.02088707 0.01367227 0.00362051
v 0.02023946 0.01271493 0.00803220
v 0.02028766 0.01907460 -0.00068778
v 0.02093057 0.01821214 0.00359883
v 0.02030433 0.01724507 0.00798394
v 0.02032387 0.02366515 -0.00078820
v 0.02097463 0.02269835 0.00351993
v 0.02036544 0.02174402 0.00792226
v 0.02036050 0.02822953 -0.00079821
v 0.02101840 0.02722323 0.00343597
v 0.02040434 0.02624580 0.00785778
v 0.02003767 0.03264008 -0.00018971
v 0.02105159 0.03188165 0.00346653
v 0.02047126 0.03078665 0.00780559
v 0.02053996 0.03701829 0.00356440
v 0.02054486 0.03543070 0.00781527
v 0.01998189 0.04122518 0.00457450
v 0.02022670 0.03986373 0.00785704
f 3 2 1
f 4 1 2
f 7 6 5
f 5 6 3
f 1 5 3
f 8 5 1
f 1 4 9
f 1 9 8
f 12 11 10
f 10 11 7
f 5 10 7
f 13 10 5
f 14 5 8
f 13 5 14
f 8 9 15
f 8 15 14
f 12 10 16
f 12 16 17
f 18 10 13
f 16 10 18
f 19 13 14
f 18 13 19
f 14 15 20
f 14 20 19
f 23 22 21
f 21 22 17
f 16 21 17
f 24 21 16
f 25 16 18
f 24 16 25
f 26 18 19
f 25 18 26
f 19 20 27
f 19 27 26
f 23 21 28
f 23 28 29
f 30 21 24
f 28 21 30
f 31 24 25
f 30 24 31
f 32 25 26
f 31 25 32
f 26 27 33
f 26 33 32
f 29 28 34
f 29 34 35
f 36 28 30
f 34 28 36
f 37 30 31
f 36 30 37
f 38 31 32
f 37 31 38
f 32 33 39
f 32 39 38
f 40 35 34
f 42 41 40
f 34 42 40
f 36 42 34
f 43 36 37
f 42 36 43
f 44 37 38
f 43 37 44
f 38 39 45
f 38 45 44
f 41 42 46
f 41 46 47
f 48 42 43
f 46 42 48
f 49 43 44
f 48 43 49
f 44 45 50
f 44 50 49
f 47 46 51
f 47 51 52
f 53 46 48
f 51 46 53
f 54 48 49
f 53 48 54
f 49 50 55
f 49 55 54
f 52 51 56
f 52 56 57
f 58 51 53
f 56 51 58
f 59 53 54
f 58 53 59
f 54 55 60
f 54 60 59
f 57 56 61
f 57 61 62
f 63 56 58
f 61 56 63
f 64 58 59
f 63 58 64
f 59 60 65
f 59 65 64
f 66 62 61
f 68 67 66
f 61 68 66
f 63 68 61
f 69 63 64
f 68 63 69
f 64 65 70
f 64 70 69
f 67 68 71
f 67 71 72
f 73 68 69
f 71 68 73
f 69 70 74
f 69 74 73
f 75 72 71
f 75 71 73
f 75 73 76
f 76 73 74
f 79 78 77
f 80 77 78
f 83 82 81
f 85 84 81
f 85 81 82
f 84 85 79
f 77 84 79
f 86 84 77
f 77 80 87
f 77 87 86
f 90 89 88
f 88 89 83
f 81 88 83
f 91 88 81
f 92 81 84
f 91 81 92
f 93 84 86
f 92 84 93
f 86 87 94
f 86 94 93
f 90 88 95
f 90 95 96
f 97 88 91
f 95 88 97
f 98 91 92
f 97 91 98
f 3 98 2
f 98 93 2
f 98 92 93
f 4 2 93
f 94 4 93
f 99 4 94
f 96 95 100
f 96 100 101
f 102 95 97
f 100 95 102
f 7 102 6
f 102 98 6
f 102 97 98
f 6 98 3
f 99 9 4
f 103 9 99
f 101 100 104
f 101 104 105
f 12 104 11
f 104 102 11
f 104 100 102
f 11 102 7
f 103 15 9
f 106 15 103
f 105 104 107
f 105 107 108
f 17 107 12
f 12 107 104
f 106 20 15
f 109 20 106
f 112 111 110
f 110 111 108
f 110 108 107
f 23 110 107
f 22 23 107
f 22 107 17
f 115 114 113
f 109 115 113
f 27 109 113
f 20 109 27
f 116 112 110
f 110 23 116
f 23 117 116
f 23 29 117
f 113 114 118
f 118 114 119
f 118 33 27
f 118 27 113
f 35 117 29
f 35 120 117
f 123 122 121
f 123 121 119
f 121 118 119
f 121 124 118
f 124 39 33
f 124 33 118
f 35 40 125
f 126 35 125
f 120 35 126
f 41 125 40
f 121 122 127
f 127 122 128
f 121 129 124
f 121 127 129
f 129 45 39
f 129 39 124
f 126 125 130
f 126 130 131
f 47 130 41
f 41 130 125
f 128 132 127
f 134 133 132
f 133 127 132
f 133 129 127
f 133 50 45
f 133 45 129
f 131 130 135
f 131 135 136
f 52 135 47
f 47 135 130
f 134 137 133
f 50 133 137
f 138 50 137
f 55 50 138
f 136 135 139
f 136 139 140
f 57 139 52
f 52 139 135
f 138 60 55
f 141 60 138
f 140 139 142
f 140 142 143
f 62 142 57
f 57 142 139
f 141 65 60
f 144 65 141
f 143 142 145
f 143 145 146
f 66 147 62
f 147 142 62
f 147 145 142
f 67 147 66
f 144 70 65
f 148 70 144
f 149 146 145
f 151 150 149
f 145 151 149
f 147 151 145
f 72 151 67
f 67 151 147
f 148 74 70
f 152 74 148
f 150 151 153
f 150 153 154
f 75 155 72
f 155 151 72
f 155 153 151
f 76 156 75
f 75 156 155
f 157 156 76
f 74 157 76
f 152 157 74
f 154 153 158
f 154 158 159
f 160 153 155
f 158 153 160
f 161 155 156
f 160 155 161
f 156 157 162
f 156 162 161
f 163 159 158
f 163 158 160
f 163 160 164
f 164 160 161
f 164 161 165
f 165 161 162
f 168 167 166
f 169 166 167
f 172 171 170
f 170 171 168
f 166 170 168
f 173 170 166
f 166 169 174
f 166 174 173
f 177 176 175
f 175 176 172
f 170 175 172
f 178 175 170
f 179 170 173
f 178 170 179
f 173 174 180
f 173 180 179
f 183 182 181
f 181 182 177
f 175 181 177
f 184 181 175
f 185 175 178
f 184 175 185
f 79 185 78
f 185 179 78
f 185 178 179
f 80 78 179
f 180 80 179
f 186 80 180
f 183 181 187
f 183 187 188
f 83 187 82
f 187 184 82
f 187 181 184
f 82 184 85
f 85 184 185
f 85 185 79
f 186 87 80
f 189 87 186
f 188 187 89
f 90 188 89
f 190 188 90
f 89 187 83
f 193 192 191
f 189 193 191
f 94 189 191
f 87 189 94
f 196 195 194
f 195 190 194
f 190 96 194
f 190 90 96
f 199 198 197
f 199 197 192
f 197 191 192
f 197 200 191
f 200 99 94
f 200 94 191
f 196 194 201
f 196 201 202
f 101 201 96
f 96 201 194
f 205 204 203
f 205 203 198
f 203 197 198
f 203 206 197
f 197 207 200
f 197 206 207
f 207 103 99
f 207 99 200
f 202 201 208
f 202 208 209
f 105 208 101
f 101 208 201
f 203 204 210
f 210 204 211
f 203 212 206
f 203 210 212
f 206 213 207
f 206 212 213
f 213 106 103
f 213 103 207
f 209 208 214
f 209 214 215
f 108 214 105
f 105 214 208
f 210 211 216
f 216 211 217
f 210 218 212
f 210 216 218
f 212 219 213
f 212 218 219
f 219 109 106
f 219 106 213
f 215 214 111
f 112 215 111
f 220 215 112
f 111 214 108
f 216 217 221
f 221 217 222
f 216 223 218
f 216 221 223
f 223 114 115
f 219 223 115
f 218 223 219
f 219 115 109
f 112 116 224
f 225 112 224
f 220 112 225
f 117 224 116
f 221 222 226
f 226 222 227
f 221 228 223
f 221 226 228
f 228 119 114
f 228 114 223
f 225 224 229
f 225 229 230
f 120 229 117
f 117 229 224
f 226 227 231
f 231 227 232
f 231 122 123
f 228 231 123
f 226 231 228
f 228 123 119
f 230 229 233
f 230 233 234
f 126 233 120
f 120 233 229
f 231 232 235
f 235 232 236
f 235 128 122
f 235 122 231
f 234 233 237
f 234 237 238
f 131 237 126
f 126 237 233
f 235 236 239
f 239 236 240
f 241 132 128
f 235 241 128
f 239 241 235
f 241 134 132
f 242 238 237
f 237 131 242
f 131 243 242
f 131 136 243
f 239 240 244
f 244 240 245
f 239 246 241
f 239 244 246
f 247 137 134
f 241 247 134
f 246 247 241
f 247 138 137
f 140 243 136
f 140 248 243
f 244 245 249
f 249 245 250
f 244 251 246
f 244 249 251
f 246 252 247
f 246 251 252
f 252 141 138
f 252 138 247
f 143 248 140
f 143 253 248
f 250 254 249
f 256 255 254
f 255 249 254
f 255 251 249
f 251 257 252
f 251 255 257
f 257 144 141
f 257 141 252
f 146 253 143
f 146 258 253
f 255 256 259
f 259 256 260
f 255 261 257
f 255 259 261
f 261 148 144
f 261 144 257
f 146 149 262
f 263 146 262
f 258 146 263
f 150 262 149
f 259 260 264
f 264 260 265
f 259 266 261
f 259 264 266
f 266 152 148
f 266 148 261
f 263 262 267
f 263 267 268
f 154 267 150
f 150 267 262
f 265 269 264
f 271 270 269
f 270 264 269
f 270 266 264
f 270 157 152
f 270 152 266
f 272 268 267
f 267 154 272
f 154 273 272
f 154 159 273
f 271 274 270
f 157 270 274
f 275 157 274
f 162 157 275
f 276 273 159
f 276 159 163
f 277 163 164
f 277 276 163
f 278 164 165
f 278 277 164
f 165 162 275
f 165 275 278
f 281 280 279
f 283 282 279
f 283 279 280
f 284 282 283
f 287 286 285
f 285 286 281
f 279 285 281
f 288 285 279
f 289 279 282
f 288 279 289
f 282 284 290
f 282 290 289
f 293 292 291
f 295 294 291
f 295 291 292
f 294 295 287
f 285 294 287
f 296 294 285
f 168 296 167
f 296 288 167
f 296 285 288
f 288 289 297
f 169 288 297
f 298 169 297
f 288 169 167
f 297 289 290
f 293 291 299
f 293 299 300
f 301 291 294
f 299 291 301
f 172 301 171
f 301 296 171
f 301 294 296
f 171 296 168
f 298 174 169
f 302 174 298
f 300 299 303
f 300 303 304
f 177 303 176
f 303 301 176
f 303 299 301
f 176 301 172
f 302 180 174
f 305 180 302
f 304 303 182
f 183 304 182
f 306 304 183
f 182 303 177
f 309 308 307
f 311 310 307
f 307 310 309
f 305 310 311
f 186 305 311
f 180 305 186
f 188 306 183
f 188 312 306
f 315 314 313
f 315 313 308
f 313 307 308
f 313 316 307
f 307 317 311
f 307 316 317
f 317 189 186
f 317 186 311
f 320 319 318
f 319 312 318
f 312 190 318
f 312 188 190
f 313 314 321
f 321 314 322
f 313 323 316
f 313 321 323
f 323 192 193
f 317 323 193
f 316 323 317
f 317 193 189
f 320 318 195
f 196 320 195
f 324 320 196
f 195 318 190
f 321 322 325
f 325 322 326
f 325 198 199
f 323 325 199
f 321 325 323
f 323 199 192
f 202 324 196
f 202 327 324
f 325 326 205
f 326 204 205
f 326 328 204
f 325 205 198
f 209 327 202
f 209 329 327
f 328 211 204
f 330 211 328
f 215 329 209
f 215 331 329
f 330 217 211
f 332 217 330
f 220 331 215
f 220 333 331
f 332 222 217
f 334 222 332
f 225 333 220
f 225 335 333
f 334 227 222
f 336 227 334
f 230 335 225
f 230 337 335
f 336 232 227
f 338 232 336
f 234 337 230
f 234 339 337
f 338 236 232
f 340 236 338
f 238 339 234
f 238 341 339
f 340 240 236
f 342 240 340
f 238 242 343
f 344 238 343
f 341 238 344
f 243 343 242
f 342 245 240
f 345 245 342
f 346 344 343
f 343 243 346
f 243 347 346
f 243 248 347
f 345 250 245
f 348 250 345
f 253 347 248
f 253 349 347
f 254 250 350
f 250 351 350
f 250 348 351
f 350 256 254
f 258 349 253
f 258 352 349
f 350 351 353
f 353 351 354
f 353 260 256
f 353 256 350
f 263 352 258
f 263 355 352
f 354 356 353
f 260 353 356
f 357 260 356
f 265 260 357
f 268 355 263
f 268 358 355
f 269 265 359
f 265 360 359
f 265 357 360
f 359 271 269
f 361 358 268
f 361 268 272
f 363 362 273
f 362 272 273
f 362 361 272
f 362 363 360
f 363 359 360
f 363 364 359
f 359 364 271
f 364 365 271
f 365 274 271
f 364 366 365
f 275 274 365
f 275 365 367
f 276 363 273
f 363 276 277
f 363 277 364
f 368 366 364
f 277 368 364
f 278 368 277
f 278 275 367
f 278 367 368
f 371 370 369
f 373 372 369
f 373 369 370
f 374 372 373
f 377 376 375
f 379 378 375
f 379 375 376
f 378 379 371
f 378 371 369
f 281 378 369
f 280 281 369
f 280 369 283
f 283 369 372
f 284 283 372
f 374 284 372
f 380 284 374
f 383 382 381
f 381 382 377
f 375 381 377
f 384 381 375
f 287 384 286
f 384 378 286
f 384 375 378
f 286 378 281
f 380 290 284
f 385 290 380
f 383 381 292
f 293 383 292
f 386 383 293
f 292 381 295
f 295 381 384
f 295 384 287
f 389 388 387
f 391 390 388
f 388 390 387
f 298 297 391
f 297 390 391
f 297 392 390
f 297 290 385
f 297 385 392
f 300 386 293
f 300 393 386
f 396 395 394
f 396 394 389
f 394 388 389
f 394 397 388
f 388 398 391
f 388 397 398
f 398 302 298
f 398 298 391
f 401 400 399
f 400 393 399
f 393 304 399
f 393 300 304
f 394 395 402
f 402 395 403
f 394 404 397
f 394 402 404
f 397 405 398
f 397 404 405
f 405 305 302
f 405 302 398
f 401 399 406
f 401 406 407
f 306 406 304
f 304 406 399
f 402 403 408
f 408 403 409
f 408 308 309
f 404 408 309
f 402 408 404
f 404 309 310
f 404 310 405
f 405 310 305
f 407 406 410
f 407 410 411
f 312 410 306
f 306 410 406
f 408 409 315
f 409 314 315
f 409 412 314
f 408 315 308
f 411 410 319
f 320 411 319
f 413 411 320
f 319 410 312
f 412 322 314
f 414 322 412
f 324 413 320
f 324 415 413
f 414 326 322
f 416 326 414
f 327 415 324
f 327 417 415
f 416 328 326
f 418 328 416
f 329 417 327
f 329 419 417
f 418 330 328
f 420 330 418
f 331 419 329
f 331 421 419
f 420 332 330
f 422 332 420
f 333 421 331
f 333 423 421
f 422 334 332
f 424 334 422
f 335 423 333
f 335 425 423
f 424 336 334
f 426 336 424
f 337 425 335
f 337 427 425
f 426 338 336
f 428 338 426
f 339 427 337
f 339 429 427
f 428 340 338
f 430 340 428
f 341 429 339
f 341 431 429
f 430 342 340
f 432 342 430
f 344 431 341
f 344 433 431
f 432 345 342
f 434 345 432
f 344 346 435
f 436 344 435
f 433 344 436
f 347 435 346
f 434 348 345
f 437 348 434
f 438 436 435
f 435 347 438
f 347 439 438
f 347 349 439
f 437 351 348
f 440 351 437
f 352 439 349
f 352 441 439
f 440 354 351
f 442 354 440
f 355 441 352
f 355 443 441
f 442 444 354
f 354 444 356
f 357 356 444
f 357 444 445
f 358 443 355
f 358 446 443
f 445 360 357
f 447 360 445
f 448 446 358
f 448 358 361
f 449 361 362
f 449 448 361
f 362 360 447
f 362 447 449
f 451 450 365
f 451 365 366
f 367 365 450
f 367 450 452
f 453 451 366
f 453 366 368
f 368 367 452
f 368 452 453
f 371 454 370
f 455 373 370
f 455 370 454
f 455 374 373
f 377 456 376
f 457 379 376
f 457 376 456
f 457 458 379
f 379 458 371
f 458 459 371
f 459 454 371
f 454 459 455
f 455 459 460
f 374 455 460
f 461 374 460
f 380 374 461
f 383 462 382
f 456 377 382
f 462 456 382
f 463 456 462
f 465 457 464
f 457 463 464
f 457 456 463
f 457 465 458
f 461 385 380
f 466 385 461
f 468 467 462
f 383 468 462
f 386 468 383
f 462 467 463
f 463 467 469
f 470 389 387
f 469 464 463
f 390 471 387
f 387 471 470
f 471 390 472
f 390 473 472
f 390 392 473
f 392 385 466
f 392 466 473
f 393 468 386
f 393 474 468
f 475 395 396
f 389 470 396
f 470 475 396
f 470 476 475
f 477 470 471
f 476 470 477
f 471 472 478
f 471 478 477
f 401 479 400
f 479 480 400
f 480 393 400
f 480 474 393
f 481 403 475
f 475 403 395
f 482 475 476
f 481 475 482
f 483 476 477
f 482 476 483
f 477 478 484
f 477 484 483
f 407 485 479
f 407 479 401
f 480 479 486
f 486 479 485
f 487 409 481
f 481 409 403
f 482 489 488
f 487 482 488
f 481 482 487
f 489 482 483
f 489 483 490
f 490 483 484
f 411 491 485
f 411 485 407
f 486 485 492
f 492 485 491
f 494 493 487
f 493 409 487
f 493 412 409
f 494 487 488
f 496 495 491
f 411 496 491
f 413 496 411
f 491 495 492
f 493 414 412
f 497 414 493
f 415 496 413
f 415 498 496
f 497 416 414
f 499 416 497
f 417 498 415
f 417 500 498
f 499 418 416
f 501 418 499
f 419 500 417
f 419 502 500
f 501 420 418
f 503 420 501
f 421 502 419
f 421 504 502
f 503 422 420
f 505 422 503
f 423 504 421
f 423 506 504
f 505 424 422
f 507 424 505
f 425 506 423
f 425 508 506
f 507 426 424
f 509 426 507
f 427 508 425
f 427 510 508
f 509 428 426
f 511 428 509
f 429 510 427
f 429 512 510
f 511 430 428
f 513 430 511
f 431 512 429
f 431 514 512
f 513 432 430
f 515 432 513
f 433 514 431
f 433 516 514
f 515 434 432
f 517 434 515
f 436 519 518
f 516 436 518
f 433 436 516
f 519 520 518
f 517 437 434
f 521 437 517
f 438 519 436
f 438 439 519
f 439 520 519
f 439 522 520
f 521 440 437
f 523 440 521
f 441 522 439
f 441 524 522
f 523 442 440
f 525 442 523
f 443 524 441
f 443 526 524
f 525 527 442
f 442 527 444
f 445 444 527
f 445 527 528
f 446 526 443
f 446 529 526
f 528 447 445
f 530 447 528
f 531 529 446
f 531 446 448
f 532 448 449
f 532 531 448
f 449 447 530
f 449 530 532
f 534 533 450
f 534 450 451
f 452 450 533
f 452 533 535
f 536 534 451
f 536 451 453
f 453 452 535
f 453 535 536
f 458 537 459
f 538 460 459
f 538 459 537
f 538 461 460
f 464 539 465
f 537 458 465
f 539 537 465
f 540 537 539
f 537 541 538
f 537 540 541
f 541 466 461
f 541 461 538
f 468 542 467
f 543 469 467
f 543 467 542
f 539 464 469
f 543 539 469
f 544 539 543
f 546 540 545
f 540 544 545
f 540 539 544
f 547 472 473
f 540 547 473
f 541 540 473
f 546 547 540
f 541 473 466
f 474 548 542
f 474 542 468
f 542 549 543
f 542 548 549
f 551 544 550
f 544 549 550
f 544 543 549
f 544 551 545
f 547 478 472
f 552 478 547
f 480 553 548
f 480 548 474
f 555 549 554
f 549 553 554
f 549 548 553
f 549 555 550
f 552 484 478
f 556 484 552
f 558 557 553
f 480 558 553
f 486 558 480
f 553 557 554
f 559 488 489
f 490 560 489
f 489 560 559
f 561 560 490
f 484 561 490
f 556 561 484
f 492 558 486
f 492 562 558
f 563 493 494
f 488 559 494
f 559 563 494
f 559 564 563
f 565 559 560
f 564 559 565
f 560 561 566
f 560 566 565
f 496 567 495
f 567 568 495
f 568 492 495
f 568 562 492
f 569 497 563
f 563 497 493
f 570 563 564
f 569 563 570
f 565 572 571
f 570 565 571
f 564 565 570
f 572 565 566
f 574 573 567
f 496 574 567
f 498 574 496
f 567 573 568
f 575 499 569
f 569 499 497
f 570 577 576
f 575 570 576
f 569 570 575
f 577 570 571
f 500 574 498
f 500 578 574
f 580 579 575
f 579 499 575
f 579 501 499
f 580 575 576
f 502 578 500
f 502 581 578
f 579 503 501
f 582 503 579
f 504 581 502
f 504 583 581
f 582 505 503
f 584 505 582
f 506 583 504
f 506 585 583
f 584 507 505
f 586 507 584
f 508 585 506
f 508 587 585
f 586 509 507
f 588 509 586
f 510 587 508
f 510 589 587
f 588 511 509
f 590 511 588
f 512 589 510
f 512 591 589
f 590 513 511
f 592 513 590
f 514 591 512
f 514 593 591
f 592 515 513
f 594 515 592
f 516 596 595
f 593 516 595
f 514 516 593
f 596 597 595
f 594 517 515
f 598 517 594
f 518 596 516
f 518 520 596
f 520 597 596
f 520 599 597
f 598 521 517
f 600 521 598
f 522 599 520
f 522 601 599
f 603 523 602
f 523 600 602
f 523 521 600
f 604 603 602
f 524 601 522
f 524 605 601
f 606 525 603
f 603 525 523
f 603 604 607
f 603 607 606
f 526 605 524
f 526 608 605
f 606 527 525
f 528 527 606
f 607 528 606
f 609 528 607
f 529 608 526
f 529 610 608
f 612 530 611
f 530 609 611
f 530 528 609
f 613 612 611
f 614 610 529
f 614 529 531
f 616 614 615
f 614 532 615
f 614 531 532
f 530 612 532
f 612 615 532
f 612 617 615
f 618 533 534
f 612 618 534
f 617 612 534
f 618 612 613
f 535 533 618
f 535 618 619
f 620 616 615
f 620 615 617
f 620 617 621
f 621 617 534
f 536 621 534
f 622 621 536
f 536 535 619
f 536 619 622
f 545 623 546
f 623 547 546
f 550 624 551
f 623 545 551
f 624 623 551
f 625 623 624
f 625 552 547
f 625 547 623
f 554 626 555
f 624 550 555
f 626 624 555
f 627 624 626
f 624 628 625
f 624 627 628
f 628 556 552
f 628 552 625
f 558 629 557
f 626 554 557
f 629 626 557
f 630 626 629
f 626 631 627
f 626 630 631
f 633 628 632
f 628 631 632
f 628 627 631
f 556 628 633
f 634 556 633
f 561 556 634
f 562 635 629
f 562 629 558
f 637 630 636
f 630 635 636
f 630 629 635
f 630 637 631
f 631 637 638
f 631 638 632
f 634 566 561
f 639 566 634
f 641 640 635
f 562 641 635
f 568 641 562
f 635 640 636
f 642 571 572
f 643 642 572
f 566 643 572
f 639 643 566
f 574 644 573
f 644 645 573
f 645 568 573
f 645 641 568
f 646 576 577
f 571 642 577
f 642 646 577
f 642 647 646
f 642 643 648
f 642 648 647
f 578 649 644
f 578 644 574
f 645 644 650
f 650 644 649
f 651 579 580
f 576 646 580
f 646 651 580
f 646 652 651
f 653 646 647
f 652 646 653
f 647 648 654
f 647 654 653
f 581 655 649
f 581 649 578
f 650 649 656
f 656 649 655
f 657 582 651
f 651 582 579
f 658 651 652
f 657 651 658
f 659 652 653
f 658 652 659
f 653 654 660
f 653 660 659
f 583 661 655
f 583 655 581
f 656 655 662
f 662 655 661
f 663 584 657
f 657 584 582
f 664 657 658
f 663 657 664
f 665 658 659
f 664 658 665
f 659 660 666
f 659 666 665
f 668 667 661
f 583 668 661
f 585 668 583
f 661 667 662
f 669 586 663
f 663 586 584
f 670 663 664
f 669 663 670
f 665 672 671
f 670 665 671
f 664 665 670
f 672 665 666
f 587 674 673
f 668 587 673
f 585 587 668
f 674 675 673
f 676 588 669
f 669 588 586
f 677 669 670
f 676 669 677
f 670 671 678
f 670 678 677
f 589 679 674
f 589 674 587
f 675 674 680
f 680 674 679
f 681 590 676
f 676 590 588
f 677 683 682
f 681 677 682
f 676 677 681
f 683 677 678
f 591 684 679
f 591 679 589
f 680 679 685
f 685 679 684
f 686 592 681
f 681 592 590
f 681 682 687
f 681 687 686
f 593 688 684
f 593 684 591
f 685 684 689
f 689 684 688
f 690 594 686
f 686 594 592
f 686 687 691
f 692 686 691
f 690 686 692
f 693 692 691
f 595 688 593
f 595 597 688
f 597 689 688
f 597 694 689
f 695 598 690
f 690 598 594
f 696 690 692
f 695 690 696
f 692 693 697
f 698 692 697
f 696 692 698
f 699 698 697
f 599 694 597
f 599 700 694
f 701 600 695
f 695 600 598
f 702 695 696
f 701 695 702
f 703 696 698
f 702 696 703
f 698 699 704
f 698 704 703
f 601 700 599
f 601 705 700
f 701 602 600
f 602 701 604
f 701 706 604
f 701 702 706
f 707 702 703
f 706 702 707
f 703 704 708
f 703 708 707
f 605 705 601
f 605 709 705
f 710 607 706
f 706 607 604
f 711 706 707
f 710 706 711
f 707 708 712
f 707 712 711
f 608 714 713
f 709 608 713
f 605 608 709
f 714 715 713
f 716 609 710
f 710 609 607
f 717 710 711
f 716 710 717
f 711 712 718
f 711 718 717
f 610 719 714
f 610 714 608
f 715 714 720
f 720 714 719
f 716 611 609
f 611 716 613
f 716 721 613
f 716 717 721
f 717 718 722
f 717 722 721
f 614 719 610
f 614 616 719
f 616 720 719
f 616 723 720
f 721 618 613
f 619 618 721
f 722 619 721
f 724 619 722
f 725 723 616
f 725 616 620
f 726 620 621
f 726 725 620
f 727 621 622
f 727 726 621
f 622 619 724
f 622 724 727
f 632 728 633
f 728 634 633
f 636 729 637
f 730 638 637
f 730 637 729
f 728 632 638
f 730 728 638
f 731 728 730
f 731 639 634
f 731 634 728
f 641 732 640
f 729 636 640
f 732 729 640
f 733 729 732
f 729 734 730
f 729 733 734
f 730 735 731
f 730 734 735
f 735 643 639
f 735 639 731
f 645 736 732
f 645 732 641
f 732 737 733
f 732 736 737
f 733 738 734
f 733 737 738
f 740 735 739
f 735 738 739
f 735 734 738
f 643 735 740
f 741 643 740
f 648 643 741
f 650 742 736
f 650 736 645
f 736 743 737
f 736 742 743
f 745 738 744
f 738 743 744
f 738 737 743
f 738 745 739
f 741 654 648
f 746 654 741
f 656 747 742
f 656 742 650
f 749 743 748
f 743 747 748
f 743 742 747
f 743 749 744
f 746 660 654
f 750 660 746
f 662 751 747
f 662 747 656
f 748 747 752
f 752 747 751
f 750 666 660
f 753 666 750
f 668 754 667
f 754 755 667
f 667 755 662
f 755 756 662
f 756 751 662
f 751 756 752
f 757 671 672
f 758 757 672
f 666 758 672
f 753 758 666
f 673 754 668
f 673 675 754
f 675 755 754
f 675 759 755
f 760 678 757
f 757 678 671
f 757 758 761
f 757 761 760
f 680 759 675
f 680 762 759
f 763 682 683
f 678 760 683
f 760 763 683
f 760 764 763
f 760 761 765
f 760 765 764
f 685 767 766
f 762 685 766
f 680 685 762
f 767 768 766
f 769 687 763
f 763 687 682
f 770 763 764
f 769 763 770
f 764 765 771
f 764 771 770
f 689 772 767
f 689 767 685
f 768 767 773
f 773 767 772
f 769 691 687
f 691 769 693
f 769 774 693
f 769 770 774
f 770 771 775
f 770 775 774
f 694 776 772
f 694 772 689
f 773 772 777
f 777 772 776
f 774 697 693
f 699 697 774
f 775 699 774
f 778 699 775
f 700 779 776
f 700 776 694
f 777 776 780
f 780 776 779
f 778 704 699
f 781 704 778
f 705 782 779
f 705 779 700
f 780 779 783
f 783 779 782
f 781 708 704
f 784 708 781
f 709 785 782
f 709 782 705
f 783 782 786
f 782 787 786
f 782 785 787
f 787 788 786
f 784 712 708
f 789 712 784
f 713 785 709
f 785 713 715
f 790 785 715
f 787 785 790
f 788 787 791
f 791 787 790
f 789 718 712
f 792 718 789
f 720 793 790
f 720 790 715
f 791 790 794
f 790 795 794
f 790 793 795
f 797 796 795
f 795 796 794
f 792 796 797
f 722 792 797
f 718 792 722
f 723 798 793
f 723 793 720
f 793 799 795
f 793 798 799
f 795 800 797
f 795 799 800
f 800 724 722
f 800 722 797
f 725 798 723
f 798 725 726
f 798 726 799
f 799 726 727
f 799 727 800
f 800 727 724
f 739 801 740
f 801 741 740
f 744 802 745
f 801 739 745
f 802 801 745
f 803 801 802
f 803 746 741
f 803 741 801
f 748 804 749
f 802 744 749
f 804 802 749
f 805 802 804
f 802 806 803
f 802 805 806
f 806 750 746
f 806 746 803
f 752 807 804
f 752 804 748
f 804 808 805
f 804 807 808
f 805 809 806
f 805 808 809
f 809 753 750
f 809 750 806
f 755 810 756
f 807 752 756
f 810 807 756
f 811 807 810
f 807 812 808
f 807 811 812
f 808 813 809
f 808 812 813
f 813 758 753
f 813 753 809
f 759 814 810
f 759 810 755
f 810 815 811
f 810 814 815
f 811 816 812
f 811 815 816
f 812 817 813
f 812 816 817
f 817 761 758
f 817 758 813
f 762 818 814
f 762 814 759
f 814 819 815
f 814 818 819
f 815 820 816
f 815 819 820
f 816 821 817
f 816 820 821
f 821 765 761
f 821 761 817
f 766 818 762
f 818 766 768
f 822 818 768
f 819 818 822
f 819 823 820
f 819 822 823
f 820 824 821
f 820 823 824
f 824 771 765
f 824 765 821
f 773 825 822
f 773 822 768
f 822 826 823
f 822 825 826
f 823 827 824
f 823 826 827
f 827 775 771
f 827 771 824
f 777 828 825
f 777 825 773
f 825 829 826
f 825 828 829
f 826 830 827
f 826 829 830
f 830 778 775
f 830 775 827
f 780 831 828
f 780 828 777
f 828 832 829
f 828 831 832
f 829 833 830
f 829 832 833
f 833 781 778
f 833 778 830
f 783 834 831
f 783 831 780
f 831 835 832
f 831 834 835
f 832 836 833
f 832 835 836
f 836 784 781
f 836 781 833
f 786 834 783
f 834 786 788
f 837 834 788
f 835 834 837
f 835 838 836
f 835 837 838
f 838 789 784
f 838 784 836
f 791 839 837
f 791 837 788
f 837 840 838
f 837 839 840
f 840 792 789
f 840 789 838
f 794 839 791
f 839 794 796
f 839 796 840
f 840 796 792

