# https://github.com/mikedh/trimesh
v -0.04531804 -0.01832525 0.03931904
v -0.04083558 -0.02287340 0.03694702
v -0.04331202 -0.01955362 0.03400143
v -0.04042734 -0.02069310 0.04225538
v -0.04470861 -0.01247525 -0.01490036
v -0.04227112 -0.01458816 -0.01700932
v -0.04164795 -0.01127569 -0.02003591
v -0.04504624 -0.01208770 -0.00860875
v -0.04290325 -0.01591488 -0.01038306
v -0.04537577 -0.01124739 0.00022343
v -0.04286508 -0.01604937 -0.00257417
v -0.04609872 -0.01109344 0.00899979
v -0.04282819 -0.01610651 0.00523576
v -0.04602607 -0.01096107 0.01681448
v -0.04275590 -0.01619007 0.01299873
v -0.04584068 -0.01110330 0.02460306
v -0.04255749 -0.01619214 0.02084491
v -0.04605890 -0.01277757 0.03254951
v -0.04259179 -0.01690490 0.02834448
v -0.04708503 -0.01133670 0.03961125
v -0.04197789 -0.01723892 0.04713552
v -0.04635628 -0.01244736 0.04744495
v -0.04532817 -0.01064433 0.05496475
v -0.04295326 -0.01493447 0.05314159
v -0.04109576 -0.01251573 0.05742424
v -0.04196792 -0.00949133 -0.01624553
v -0.04215322 -0.00815264 -0.00792703
v -0.04363074 -0.00690819 -0.00023894
v -0.04178970 -0.00343410 0.00248883
v -0.04567802 -0.00588220 0.00572347
v -0.04612009 -0.00486294 0.01302260
v -0.04597527 -0.00479412 0.02085123
v -0.04579961 -0.00502950 0.02874266
v -0.04608562 -0.00419423 0.03782557
v -0.04721247 -0.00403461 0.04659517
v -0.04635965 -0.00386929 0.05399162
v -0.04202122 -0.00611122 0.05826401
v -0.04103098 -0.00125107 0.00811638
v -0.04182610 -0.00084941 0.01674882
v -0.04272682 -0.00111365 0.02393303
v -0.04184970 -0.00010131 0.03155911
v -0.04332310 0.00112835 0.03930291
v -0.04170080 0.00454177 0.04213375
v -0.04556544 0.00224262 0.04536859
v -0.04583863 0.00347227 0.05253891
v -0.04224938 0.00198653 0.05760762
v -0.04131890 0.00697982 0.04806413
v -0.04148257 0.00686546 0.05498128
v -0.03736803 -0.03477318 -0.04666834
v -0.03333005 -0.03861261 -0.04890286
v -0.03509876 -0.03511096 -0.05088419
v -0.03264340 -0.03664992 -0.04476159
v -0.03852043 -0.02753657 -0.04846538
v -0.03410721 -0.02904894 -0.05299956
v -0.03417166 -0.03285546 -0.03986276
v -0.03838000 -0.02816857 -0.03964328
v -0.03794128 -0.02721531 -0.03070560
v -0.03397140 -0.03134430 -0.03244460
v -0.03772447 -0.02745956 -0.02277473
v -0.03369478 -0.03155963 -0.02439527
v -0.03775989 -0.02751758 -0.01477416
v -0.03374998 -0.03180159 -0.01644614
v -0.03740122 -0.02644198 -0.00728450
v -0.03479938 -0.03092158 -0.01030675
v -0.03236767 -0.02832387 -0.00500257
v -0.03768529 -0.02095221 -0.05403193
v -0.03275478 -0.02380206 -0.05644611
v -0.03327838 -0.01823500 -0.05884494
v -0.03935263 -0.01865945 -0.04711347
v -0.03915108 -0.01968065 -0.04029687
v -0.03886461 -0.01978800 -0.03239276
v -0.03874052 -0.02108378 -0.02570630
v -0.03953120 -0.02003647 -0.01737642
v -0.03973104 -0.02108838 -0.00858827
v -0.03378115 -0.02466572 -0.00033030
v -0.03878575 -0.02093912 -0.00000276
v -0.03854744 -0.02028659 0.00879583
v -0.03356277 -0.02329102 0.00704397
v -0.03834300 -0.02042753 0.01659119
v -0.03336949 -0.02347821 0.01492263
v -0.03826219 -0.02050562 0.02466394
v -0.03423716 -0.02339009 0.02173960
v -0.03956152 -0.02124924 0.03140619
v -0.03446307 -0.02315933 0.03098426
v -0.03647140 -0.02285137 0.03885771
v -0.03418625 -0.01980066 0.04166195
v -0.03583513 -0.01521242 -0.05549860
v -0.03386734 -0.01107864 -0.05310615
v -0.03784660 -0.01351934 -0.04971218
v -0.03809398 -0.01246848 -0.04201160
v -0.03775127 -0.01247364 -0.03407377
v -0.03860056 -0.01345512 -0.02482668
v -0.03365379 -0.01731862 0.04674802
v -0.03656024 -0.01568714 0.05399683
v -0.03455469 -0.01157051 0.05823325
v -0.03306537 -0.00890488 -0.04701279
v -0.03370961 -0.00856143 -0.03816258
v -0.03449869 -0.00881439 -0.03104075
v -0.03495388 -0.00791686 -0.02353874
v -0.03658151 -0.00665464 -0.01539330
v -0.03746683 -0.00474875 -0.00940517
v -0.03339774 -0.00356904 -0.01334026
v -0.03924728 -0.00415131 -0.00326102
v -0.03479870 -0.00412523 0.05911749
v -0.03282147 -0.00150132 -0.00753560
v -0.03495619 -0.00098792 0.00115487
v -0.03442155 -0.00020431 0.00699228
v -0.03445561 0.00064235 0.01410353
v -0.03695314 0.00113830 0.02328924
v -0.03720326 0.00316877 0.03009650
v -0.03326251 0.00426790 0.02612468
v -0.03902791 0.00378416 0.03625356
v -0.03415377 0.00424082 0.05814793
v -0.03277023 0.00635592 0.03182527
v -0.03611251 0.00682507 0.04002565
v -0.03397671 0.00885825 0.04666336
v -0.03556310 0.00881673 0.05387428
v -0.02838697 -0.03843850 -0.04769876
v -0.02785694 -0.03503128 -0.05105683
v -0.02596199 -0.03592435 -0.04534198
v -0.02673511 -0.02742315 -0.05314617
v -0.02589089 -0.03307618 -0.04008177
v -0.02802963 -0.03213689 -0.03319461
v -0.02669208 -0.03137202 -0.02487726
v -0.02751382 -0.03148305 -0.01613494
v -0.02900658 -0.03107052 -0.00919877
v -0.02590521 -0.02759949 -0.00543277
v -0.02652912 -0.02305479 -0.05562120
v -0.02760106 -0.01919707 -0.05912957
v -0.02574262 -0.02494539 -0.00052043
v -0.02781576 -0.02417139 0.00610620
v -0.02653067 -0.02345649 0.01434060
v -0.02887949 -0.02314589 0.02329224
v -0.02933959 -0.02080511 0.03026958
v -0.02550086 -0.01948901 0.02626610
v -0.03109604 -0.02027012 0.03643780
v -0.03149075 -0.01296332 -0.05739404
v -0.02630465 -0.01305065 -0.05937335
v -0.02483242 -0.01726406 0.03181678
v -0.02681371 -0.01694211 0.04070228
v -0.02623102 -0.01630989 0.04676791
v -0.02750242 -0.01528659 0.05326847
v -0.02598753 -0.01012438 0.05769963
v -0.02698098 -0.00908373 -0.05404230
v -0.02651021 -0.00790848 -0.04819026
v -0.02656925 -0.00716064 -0.04093499
v -0.02893939 -0.00667361 -0.03184809
v -0.02915828 -0.00466017 -0.02509244
v -0.02532288 -0.00358969 -0.02889406
v -0.03093222 -0.00411175 -0.01907830
v -0.02772184 -0.00305669 0.05888689
v -0.02482556 -0.00149895 -0.02320514
v -0.02797910 -0.00119363 -0.01519663
v -0.02574612 0.00065499 -0.00861309
v -0.02742879 0.00064764 -0.00077813
v -0.02879551 0.00090323 0.00746270
v -0.02909877 0.00303148 0.01441832
v -0.02516173 0.00412674 0.01050636
v -0.03090218 0.00366823 0.02040483
v -0.02555416 0.00272372 0.05882128
v -0.02480631 0.00630809 0.01619424
v -0.02785634 0.00663488 0.02420382
v -0.02564150 0.00848415 0.03064134
v -0.02903219 0.00881875 0.03891785
v -0.02963834 0.01113326 0.04600803
v -0.02570454 0.01210143 0.04195936
v -0.03056488 0.01197659 0.05234362
v -0.02741638 0.00978048 0.05760039
v -0.02536654 0.01456227 0.04800475
v -0.02548302 0.01446085 0.05487280
v -0.02285190 -0.03536586 -0.04872545
v -0.01864350 -0.03226955 -0.04696466
v -0.01965305 -0.02978619 -0.05120009
v -0.01767635 -0.03115448 -0.04009835
v -0.02113444 -0.03070291 -0.03157144
v -0.02151548 -0.02845102 -0.02460384
v -0.01771127 -0.02721394 -0.02868166
v -0.02245243 -0.02803723 -0.01804272
v -0.02291554 -0.02806768 -0.01053055
v -0.02245674 -0.01906227 -0.05676510
v -0.01901371 -0.02265400 -0.05328391
v -0.01706441 -0.02504975 -0.02299463
v -0.01760708 -0.02484613 -0.01443902
v -0.01977899 -0.02491127 -0.00697007
v -0.01769217 -0.02302866 -0.00061752
v -0.02107386 -0.02281177 0.00771575
v -0.02143963 -0.02062759 0.01460328
v -0.01766603 -0.01936569 0.01057216
v -0.02311606 -0.02011646 0.02059040
v -0.01649480 -0.01664595 -0.05628472
v -0.01886360 -0.01200694 -0.05923249
v -0.01700373 -0.01722414 0.01609198
v -0.01908555 -0.01677430 0.02474826
v -0.01862580 -0.01598671 0.03058322
v -0.01858168 -0.01522924 0.03774340
v -0.02079367 -0.01501801 0.04708194
v -0.02167035 -0.01311257 0.05369593
v -0.01731177 -0.01182042 0.05014561
v -0.01945253 -0.00789998 -0.05563189
v -0.02085880 -0.00674607 -0.04782360
v -0.02125229 -0.00478957 -0.04060057
v -0.01731817 -0.00356523 -0.04465052
v -0.02302613 -0.00420070 -0.03458961
v -0.01783905 -0.00955088 0.05427855
v -0.01923747 -0.00453662 0.05789984
v -0.01697829 -0.00151945 -0.03881494
v -0.01999895 -0.00122772 -0.03077488
v -0.01783174 0.00062916 -0.02436031
v -0.02121013 0.00095558 -0.01614577
v -0.02169796 0.00313557 -0.00923407
v -0.01783801 0.00424109 -0.01320117
v -0.02258573 0.00362897 -0.00267999
v -0.02295927 0.00363509 0.00471667
v -0.01867895 0.00368561 0.05879202
v -0.01709321 0.00637090 -0.00747157
v -0.01772790 0.00662287 0.00113788
v -0.01985380 0.00661173 0.00853558
v -0.01777156 0.00847943 0.01490677
v -0.02113076 0.00880459 0.02315263
v -0.02142130 0.01094800 0.03001640
v -0.01764805 0.01207855 0.02608416
v -0.02311184 0.01150403 0.03608394
v -0.01828366 0.01205818 0.05803631
v -0.01700775 0.01418317 0.03173849
v -0.02028508 0.01457826 0.04001300
v -0.01829188 0.01668612 0.04669565
v -0.01977799 0.01661197 0.05387595
v -0.01249321 -0.03033168 -0.04652361
v -0.01160106 -0.02663537 -0.05103150
v -0.01360624 -0.02870561 -0.04092307
v -0.00967648 -0.02773221 -0.04509678
v -0.01529545 -0.02788384 -0.03454861
v -0.01028848 -0.01900846 -0.05279951
v -0.00932463 -0.02528818 -0.03910321
v -0.01241188 -0.02474152 -0.03078218
v -0.01018715 -0.02286406 -0.02427850
v -0.01178556 -0.02287242 -0.01650446
v -0.01310419 -0.02266444 -0.00818384
v -0.01355721 -0.02050534 -0.00141137
v -0.00966946 -0.01938195 -0.00533900
v -0.01527369 -0.01994893 0.00475942
v -0.01170647 -0.01553745 -0.05618447
v -0.01158618 -0.01115014 -0.05909716
v -0.00916697 -0.01724201 0.00030288
v -0.01125486 -0.01678108 0.00901550
v -0.01077010 -0.01600230 0.01487860
v -0.01079869 -0.01522354 0.02196868
v -0.01320950 -0.01477506 0.03099853
v -0.01356906 -0.01263709 0.03796069
v -0.00976026 -0.01149963 0.03408217
v -0.01508223 -0.01213273 0.04417702
v -0.01450794 -0.00499194 -0.05674593
v -0.01033056 -0.00483592 -0.05933688
v -0.01494485 -0.00388562 -0.05081478
v -0.00910132 -0.00939999 0.03974262
v -0.01096511 -0.00919711 0.04869719
v -0.01157531 -0.00760374 0.05471391
v -0.01041803 -0.00378071 0.05778361
v -0.00968286 -0.00141717 -0.05419891
v -0.01199737 -0.00107003 -0.04682805
v -0.00995816 0.00070265 -0.04034270
v -0.01327968 0.00096263 -0.03187569
v -0.01366573 0.00308826 -0.02500537
v -0.00983218 0.00424473 -0.02898808
v -0.01534043 0.00365557 -0.01895615
v -0.01355811 0.00286115 0.03215285
v -0.01069709 0.00435080 0.02683296
v -0.00900840 0.00037105 0.03010693
v -0.01161429 0.00024596 0.03777274
v -0.01396872 0.00362845 0.03899666
v -0.01098543 0.00125455 0.04517801
v -0.01331508 0.00437937 0.04586906
v -0.01119061 0.00359013 0.04903118
v -0.01064820 0.00353337 0.05877962
v -0.00915993 0.00633706 -0.02329746
v -0.01130029 0.00678779 -0.01456342
v -0.01088349 0.00758044 -0.00868685
v -0.01077479 0.00837699 -0.00158818
v -0.01317743 0.00881421 0.00750770
v -0.01355826 0.01092238 0.01430876
v -0.00974736 0.01206634 0.01044939
v -0.01528193 0.01148812 0.02030981
v -0.01000726 0.00687642 0.03186133
v -0.01158666 0.00695832 0.04032168
v -0.00916127 0.00604861 0.04580224
v -0.00984651 0.01059615 0.05875018
v -0.00918268 0.01417377 0.01613770
v -0.01108193 0.01459076 0.02471338
v -0.01061041 0.01538329 0.03053696
v -0.01231903 0.01649021 0.03812758
v -0.01415165 0.01907883 0.04602088
v -0.01001321 0.01994203 0.04194187
v -0.01500312 0.01988841 0.05242599
v -0.01174558 0.01767136 0.05758822
v -0.00975685 0.02245427 0.04789490
v -0.00980718 0.02234574 0.05487707
v -0.00718231 -0.02712567 -0.04913430
v -0.00231296 -0.02434959 -0.04680095
v -0.00263917 -0.02011417 -0.05067331
v -0.00299424 -0.02411229 -0.04028366
v -0.00462225 -0.02284868 -0.03259313
v -0.00617683 -0.02034112 -0.02491078
v -0.00228222 -0.01930040 -0.02884593
v -0.00709750 -0.01986077 -0.01836411
v -0.00741797 -0.01987203 -0.01104880
v -0.00721474 -0.01250634 -0.05473988
v -0.00440515 -0.01498890 -0.04876128
v -0.00494572 -0.01134047 -0.04899190
v -0.00319984 -0.01170358 -0.04585092
v -0.00165134 -0.01710107 -0.02321926
v -0.00204323 -0.01689463 -0.01468582
v -0.00322747 -0.01680634 -0.00663356
v -0.00287692 -0.01602148 -0.00084769
v -0.00294665 -0.01522994 0.00625224
v -0.00534732 -0.01478443 0.01529412
v -0.00570879 -0.01265266 0.02225301
v -0.00189342 -0.01150554 0.01837769
v -0.00738607 -0.01207786 0.02828433
v -0.00239351 -0.00801673 -0.05503643
v -0.00322635 -0.00398921 -0.05929512
v -0.00128215 -0.00973515 -0.04929580
v -0.00128489 -0.00937243 0.02394370
v -0.00337589 -0.00892024 0.03260708
v -0.00292361 -0.00815097 0.03849483
v -0.00280376 -0.00755640 0.04577120
v -0.00487139 -0.00723331 0.05377212
v -0.00221221 -0.00245790 0.05761440
v -0.00239587 0.00000682 -0.05541847
v -0.00480145 0.00059443 -0.04790119
v -0.00575903 0.00307666 -0.04094357
v -0.00040762 0.00346664 -0.04363124
v -0.00750409 0.00372086 -0.03481016
v -0.00551644 0.00293207 0.01619531
v -0.00263257 0.00436272 0.01121637
v -0.00104348 0.00042354 0.01425480
v -0.00429005 0.00000541 0.02250843
v -0.00732050 0.00364810 0.02187627
v -0.00158958 0.00001268 0.03096842
v -0.00514315 0.00041662 0.03971422
v -0.00739032 0.00294317 0.04676796
v -0.00360116 0.00428904 0.04295532
v -0.00389918 0.00446163 0.05877392
v -0.00199564 0.00613999 -0.03779634
v -0.00336149 0.00682547 -0.03032276
v -0.00281593 0.00756070 -0.02449490
v -0.00288343 0.00833978 -0.01731830
v -0.00531459 0.00879574 -0.00824632
v -0.00556486 0.01090437 -0.00127049
v -0.00174451 0.01203765 -0.00516024
v -0.00731322 0.01149932 0.00469973
v -0.00179025 0.00688914 0.01594494
v -0.00480361 0.00727344 0.02393408
v -0.00113351 0.00728476 0.02947879
v -0.00431489 0.00689291 0.03785823
v -0.00305729 0.01159222 0.05877418
v -0.00126761 0.01418060 0.00049523
v -0.00440451 0.01450848 0.00849452
v -0.00218765 0.01637632 0.01496315
v -0.00380370 0.01635634 0.02279626
v -0.00508821 0.01657059 0.03095209
v -0.00621199 0.01876448 0.03731599
v -0.00147811 0.01978475 0.03394948
v -0.00256068 0.01996430 0.05800808
v -0.00262105 0.02223955 0.03996431
v -0.00343587 0.02355126 0.04660264
v -0.00313363 0.02431615 0.05314251
v 0.00643896 -0.02334772 -0.04851691
v 0.00428942 -0.02034538 -0.05136840
v 0.00361434 -0.02322220 -0.04069608
v 0.00126461 -0.02048915 -0.03340117
v 0.00591824 -0.01959754 -0.03680043
v -0.00072510 -0.01299517 -0.04786193
v 0.00470671 -0.01368351 -0.05160375
v 0.00504290 -0.01702688 -0.03083331
v 0.00588878 -0.01601348 -0.02330485
v 0.00382051 -0.01595885 -0.01770148
v 0.00495911 -0.01524582 -0.00937363
v 0.00256829 -0.01479787 -0.00041474
v 0.00214827 -0.01265213 0.00653667
v 0.00596481 -0.01150489 0.00266062
v 0.00047253 -0.01207840 0.01257425
v 0.00549378 -0.00813812 -0.05531910
v 0.00336376 -0.00413090 -0.05946572
v 0.00657030 -0.00937226 0.00823019
v 0.00448973 -0.00892838 0.01690001
v 0.00494432 -0.00815026 0.02274434
v 0.00491119 -0.00736851 0.02982400
v 0.00250104 -0.00692309 0.03888584
v 0.00221402 -0.00489681 0.04608432
v 0.00599381 -0.00365289 0.04202869
v 0.00078769 -0.00465108 0.05241203
v 0.00171268 0.00283763 -0.05728299
v 0.00599335 0.00227711 -0.05953049
v 0.00421647 0.00328575 -0.05294116
v 0.00296502 0.00152175 -0.04869525
v 0.00471991 0.00340198 -0.04471578
v 0.00236157 0.00293975 0.00065957
v 0.00518580 0.00426867 -0.00440785
v 0.00623476 0.00066261 -0.00234776
v 0.00486800 0.00060806 0.00700231
v 0.00061837 0.00364309 0.00627810
v 0.00549628 0.00025286 0.01612454
v 0.00311793 0.00038853 0.02341545
v 0.00140636 0.00366651 0.03154150
v 0.00481857 0.00435926 0.02653826
v -0.00050733 0.00298759 0.03750469
v 0.00669272 -0.00170537 0.04790930
v 0.00462727 -0.00139648 0.05488829
v 0.00434605 0.00318983 0.05800688
v 0.00698999 0.00594002 -0.05437314
v 0.00539559 0.00720708 -0.04066866
v 0.00398259 0.00859809 -0.03218140
v 0.00269215 0.00880315 -0.02400608
v 0.00236216 0.01088676 -0.01701087
v 0.00627010 0.01199494 -0.02093172
v 0.00059930 0.01147080 -0.01096948
v 0.00523096 0.00654346 -0.00046148
v 0.00484687 0.00670285 0.00694553
v 0.00539605 0.00695473 0.01387843
v 0.00392729 0.00689302 0.02173857
v 0.00497008 0.01146478 0.05876772
v 0.00662450 0.01416083 -0.01524369
v 0.00357258 0.01449230 -0.00720687
v 0.00574008 0.01634170 -0.00080257
v 0.00235967 0.01667253 0.00742533
v 0.00186931 0.01885253 0.01433223
v 0.00573388 0.01995043 0.01036633
v 0.00098970 0.01934814 0.02089363
v 0.00076257 0.01933251 0.02828751
v 0.00583277 0.01857527 0.05876235
v 0.00647645 0.02207710 0.01609650
v 0.00588955 0.02232319 0.02469978
v 0.00379182 0.02228903 0.03207414
v 0.00580346 0.02413856 0.03850249
v 0.00221958 0.02473688 0.04692568
v 0.00211823 0.02727041 0.05362241
v 0.00550849 0.02827154 0.05007915
v 0.00403506 0.02558290 0.05750893
v 0.00666458 0.03014173 0.05426884
v 0.01141338 -0.02263111 -0.04652706
v 0.01208517 -0.01879702 -0.05126136
v 0.00954171 -0.02092041 -0.04137220
v 0.01435451 -0.01997685 -0.04501169
v 0.01300262 -0.01144033 -0.05316885
v 0.01240133 -0.01744930 -0.03949421
v 0.01336663 -0.01512634 -0.03224782
v 0.01173400 -0.01509873 -0.02436876
v 0.01047045 -0.01486022 -0.01612309
v 0.01008699 -0.01269470 -0.00912882
v 0.01398883 -0.01158255 -0.01306156
v 0.00836992 -0.01208521 -0.00312570
v 0.01329872 -0.00731398 -0.05566216
v 0.01135554 -0.00271168 -0.05932142
v 0.01447343 -0.00938065 -0.00751592
v 0.01234065 -0.00892337 0.00118456
v 0.01279824 -0.00814878 0.00703182
v 0.01277125 -0.00737130 0.01411869
v 0.01036831 -0.00692762 0.02315256
v 0.01000184 -0.00479332 0.03010337
v 0.01381483 -0.00364514 0.02623476
v 0.00832892 -0.00421141 0.03613180
v 0.01401725 0.00530871 -0.05981162
v 0.00738234 0.00453289 -0.04799189
v 0.01024998 0.00279153 -0.01510154
v 0.01297276 0.00412247 -0.02025555
v 0.01392668 0.00052722 -0.01816068
v 0.01267285 0.00049415 -0.00873012
v 0.00853478 0.00349384 -0.00943083
v 0.01130897 0.00064865 0.00062701
v 0.00893632 0.00368823 0.00766070
v 0.01237286 0.00430898 0.00269025
v 0.00775201 0.00358172 0.01507968
v 0.00757926 0.00291645 0.02144866
v 0.01442307 -0.00150564 0.03179810
v 0.01243949 -0.00109168 0.04058282
v 0.01291293 -0.00039904 0.04660838
v 0.01183567 0.00050187 0.05311201
v 0.01345911 0.00544630 0.05752160
v 0.01182088 0.00789866 -0.05553465
v 0.01082571 0.00862143 -0.04765245
v 0.00979603 0.01111863 -0.04056185
v 0.01377609 0.01232442 -0.04465714
v 0.00886230 0.01159946 -0.03404798
v 0.00850810 0.01157783 -0.02671008
v 0.01290029 0.00633762 -0.01630641
v 0.01246547 0.00648307 -0.00879121
v 0.01226385 0.00650450 -0.00133080
v 0.01180589 0.01244464 0.05873092
v 0.01430350 0.01434343 -0.03881267
v 0.01368222 0.01451082 -0.03024821
v 0.01157556 0.01445840 -0.02290348
v 0.01365354 0.01632059 -0.01651716
v 0.01029052 0.01665461 -0.00828037
v 0.00989496 0.01879634 -0.00142836
v 0.01367848 0.02002902 -0.00526279
v 0.00822743 0.01936471 0.00461484
v 0.01270994 0.01953393 0.05878653
v 0.01434122 0.02217832 0.00039213
v 0.01225839 0.02251762 0.00902573
v 0.01268542 0.02327045 0.01488139
v 0.01276098 0.02406893 0.02197420
v 0.01039744 0.02449032 0.03102875
v 0.00993780 0.02664906 0.03779300
v 0.01365646 0.02793433 0.03400714
v 0.00808139 0.02736298 0.04404609
v 0.01249224 0.02699314 0.05783896
v 0.01411336 0.03035674 0.03978786
v 0.01194095 0.03107843 0.04863622
v 0.01354934 0.03096617 0.05476650
v 0.01680075 -0.01945543 -0.04902944
v 0.02066674 -0.01652718 -0.04721689
v 0.01978977 -0.01401130 -0.05153372
v 0.01966977 -0.01505126 -0.03992760
v 0.01735869 -0.01256854 -0.03285793
v 0.02132107 -0.01162259 -0.03690586
v 0.01646432 -0.01208449 -0.02622283
v 0.01621402 -0.01212016 -0.01882960
v 0.01716375 -0.00343139 -0.05689877
v 0.02147402 -0.00542901 -0.05327891
v 0.02187083 -0.00930284 -0.03105817
v 0.02151762 -0.00908069 -0.02243306
v 0.02035373 -0.00897996 -0.01450425
v 0.02075418 -0.00816750 -0.00875926
v 0.02064521 -0.00737013 -0.00161599
v 0.01821988 -0.00692097 0.00744277
v 0.01785671 -0.00478693 0.01440542
v 0.02169368 -0.00364718 0.01049836
v 0.01618140 -0.00421633 0.02043796
v 0.02056271 -0.00050211 -0.05636517
v 0.01973876 0.00339746 -0.05941865
v 0.01815024 0.00284088 -0.03081896
v 0.02112753 0.00432076 -0.03579746
v 0.02211443 0.00061479 -0.03373042
v 0.02022566 0.00031762 -0.02452582
v 0.01631469 0.00347530 -0.02518794
v 0.01874578 0.00038501 -0.01508467
v 0.01666942 0.00342404 -0.00813802
v 0.02104517 0.00504670 -0.01191796
v 0.01519030 0.00288536 -0.00238894
v 0.02229204 -0.00151495 0.01606373
v 0.02019000 -0.00106754 0.02475519
v 0.02064062 -0.00028135 0.03060484
v 0.02069420 0.00047311 0.03777515
v 0.01839488 0.00074030 0.04702481
v 0.01759477 0.00261248 0.05369721
v 0.02204148 0.00376418 0.05026170
v 0.01666412 0.01087538 -0.05667591
v 0.02125338 0.01112345 -0.05932141
v 0.01615303 0.01190079 -0.05070710
v 0.02111472 0.00650881 -0.03194332
v 0.02122486 0.00729158 -0.02383563
v 0.01945568 0.00835877 -0.01526260
v 0.02158075 0.00598451 0.05441363
v 0.02029609 0.01104427 0.05803051
v 0.02177480 0.01456818 -0.05413637
v 0.02028354 0.01491474 -0.04616674
v 0.02054556 0.01551680 -0.04007707
v 0.02057243 0.01627823 -0.03287442
v 0.01815998 0.01668585 -0.02379798
v 0.01779045 0.01892665 -0.01691347
v 0.02162179 0.02025611 -0.02065236
v 0.01610553 0.01953099 -0.01094681
v 0.01783532 0.01862161 0.04053355
v 0.02092226 0.01977463 0.03470496
v 0.02170466 0.01645994 0.03716221
v 0.02017528 0.01709195 0.04499441
v 0.01784876 0.01998688 0.04556536
v 0.01973995 0.01947269 0.04863908
v 0.02109667 0.01944173 0.05898625
v 0.02227154 0.02264971 -0.01509217
v 0.02023417 0.02290422 -0.00666466
v 0.02070167 0.02360397 -0.00088361
v 0.02077344 0.02435626 0.00621275
v 0.01828135 0.02459179 0.01539520
v 0.01789969 0.02677922 0.02245878
v 0.02191826 0.02818056 0.01862437
v 0.01612338 0.02741509 0.02840206
v 0.02080789 0.02209685 0.03905089
v 0.02198859 0.02163627 0.04515312
v 0.02091160 0.02694057 0.05807270
v 0.02244911 0.03057557 0.02430422
v 0.02028467 0.03092816 0.03280646
v 0.02192757 0.03187880 0.03977584
v 0.02073687 0.03195935 0.04667785
v 0.02076519 0.03109166 0.05395125
v 0.02697996 -0.01460865 -0.04663809
v 0.02788138 -0.01091078 -0.05132836
v 0.02503349 -0.01297058 -0.04160967
v 0.02997400 -0.01204894 -0.04521808
v 0.03043476 -0.00280044 -0.05161902
v 0.02883694 -0.00950210 -0.03906420
v 0.02820274 -0.00819551 -0.03238497
v 0.02848617 -0.00741058 -0.02526199
v 0.02770185 -0.00730467 -0.01649809
v 0.02627377 -0.00704003 -0.00829488
v 0.02581882 -0.00490178 -0.00139214
v 0.02984979 -0.00391906 -0.00536635
v 0.02408761 -0.00427256 0.00465069
v 0.02452370 0.00335063 -0.05530101
v 0.02800080 0.00053924 -0.04826421
v 0.02635765 0.00375903 -0.04841205
v 0.02800905 0.00095715 -0.03936656
v 0.02473823 0.00368770 -0.04083177
v 0.02698727 0.00047911 -0.03087456
v 0.02553767 0.00404339 -0.02363784
v 0.02804943 0.00406355 -0.02893999
v 0.02407730 0.00298975 -0.01672044
v 0.03033323 -0.00177276 0.00013977
v 0.02818536 -0.00121238 0.00881821
v 0.02862606 -0.00036887 0.01470135
v 0.02865402 0.00036893 0.02179450
v 0.02619572 0.00087851 0.03101045
v 0.02590112 0.00295539 0.03804396
v 0.02994735 0.00409245 0.03405438
v 0.02433388 0.00344941 0.04425461
v 0.02961770 0.00817953 -0.05596182
v 0.02846086 0.01093294 -0.05935294
v 0.02975849 0.00641515 -0.04906359
v 0.02730039 0.00648458 -0.03990807
v 0.02818936 0.00650452 -0.03286617
v 0.02446264 0.01134451 -0.01722569
v 0.02785673 0.01131289 -0.02027763
v 0.03045514 0.00733272 -0.01730725
v 0.02766026 0.00740362 -0.00993478
v 0.02538245 0.01099312 -0.01072546
v 0.03114164 0.01250176 -0.00570907
v 0.02983871 0.00599723 0.03913285
v 0.02865400 0.00719934 0.04782684
v 0.02744192 0.00856697 0.05487371
v 0.02843446 0.01331736 0.05759814
v 0.02912840 0.01521081 -0.05585782
v 0.02777846 0.01592787 -0.04946188
v 0.02731221 0.01673369 -0.04052462
v 0.02574520 0.01908206 -0.03248890
v 0.02982314 0.02043410 -0.03647571
v 0.02399374 0.01968115 -0.02642844
v 0.02860481 0.01538944 -0.01420169
v 0.02874363 0.01516514 -0.00890518
v 0.02640055 0.01856421 0.02375155
v 0.02891162 0.02041209 0.01985087
v 0.03077834 0.01660478 0.02218851
v 0.02826059 0.01595971 0.03136114
v 0.02452894 0.01914555 0.02942032
v 0.02688191 0.01608581 0.04052349
v 0.02354559 0.01872690 0.04627319
v 0.02926948 0.01866281 0.04329459
v 0.02847440 0.02123948 0.05832251
v 0.02956119 0.02260248 -0.03149662
v 0.02869511 0.02266824 -0.02418566
v 0.02879528 0.02296692 -0.01770109
v 0.02780783 0.02308001 -0.01059944
v 0.02708222 0.02380596 -0.00134942
v 0.02613503 0.02719887 0.00635158
v 0.02954065 0.02671767 0.00335037
v 0.02435183 0.02774696 0.01269073
v 0.02852291 0.02289293 0.02428979
v 0.02730193 0.02357578 0.03204874
v 0.02778396 0.02321461 0.03981057
v 0.02758885 0.02778325 0.05747675
v 0.02831103 0.02959839 0.00854386
v 0.02762990 0.03033848 0.01530450
v 0.02901118 0.03088342 0.02162795
v 0.02811567 0.03103842 0.02881211
v 0.02822676 0.03092764 0.03664403
v 0.02834665 0.03094393 0.04476940
v 0.02835738 0.03045038 0.05262091
v 0.03247008 -0.01142613 -0.04934836
v 0.03668745 -0.00863057 -0.04746564
v 0.03576963 -0.00579246 -0.05186508
v 0.03777240 -0.00785761 -0.04036398
v 0.03410598 -0.00727837 -0.03202379
v 0.03384212 -0.00501885 -0.02502342
v 0.03735270 -0.00335878 -0.02771684
v 0.03284385 -0.00443330 -0.01852984
v 0.03232017 -0.00443795 -0.01116054
v 0.03146626 0.00358954 -0.04747300
v 0.03708113 0.00206675 -0.05165913
v 0.03125102 0.00381891 -0.04018365
v 0.03111995 0.00287519 -0.03388795
v 0.03698896 -0.00088866 -0.02203817
v 0.03700823 -0.00043519 -0.01478523
v 0.03575191 -0.00053587 -0.00701107
v 0.03700988 0.00047673 -0.00019893
v 0.03595359 0.00031506 0.00667794
v 0.03441880 0.00068339 0.01500628
v 0.03413631 0.00284671 0.02199670
v 0.03773341 0.00461500 0.01935458
v 0.03237913 0.00353558 0.02818238
v 0.03596826 0.00803345 -0.05507619
v 0.03538518 0.01162416 -0.05891023
v 0.03638021 0.00857817 -0.02382252
v 0.03277235 0.01265579 -0.02270359
v 0.03689827 0.01421718 -0.02796456
v 0.03687108 0.00643610 -0.01735575
v 0.03524822 0.00760226 -0.00968674
v 0.03703573 0.01052072 -0.00421977
v 0.03720270 0.00714714 0.02511141
v 0.03591810 0.00764351 0.03261753
v 0.03536641 0.00885707 0.04007165
v 0.03373699 0.01303757 0.04604904
v 0.03754120 0.01137639 0.04116774
v 0.03162635 0.01091581 0.05319954
v 0.03562802 0.01437171 -0.05705316
v 0.03548292 0.01588252 -0.04901431
v 0.03353286 0.01929808 -0.04137469
v 0.03775575 0.01882946 -0.04385011
v 0.03282933 0.01904921 -0.02359418
v 0.03579662 0.02015801 -0.02846760
v 0.03115529 0.01871484 -0.01713643
v 0.03138499 0.01885034 -0.00750753
v 0.03557742 0.01518276 -0.00147731
v 0.03293576 0.02095994 0.00087615
v 0.03697554 0.01551746 0.00511201
v 0.03381202 0.02054115 0.00852147
v 0.03595155 0.01546831 0.01414702
v 0.03207645 0.02038898 0.01590514
v 0.03680387 0.01448073 0.02191860
v 0.03591670 0.01467343 0.02898221
v 0.03539456 0.01430771 0.03810599
v 0.03262755 0.02157689 0.04636037
v 0.03258683 0.01719995 0.05401536
v 0.03500598 0.02227683 -0.03829969
v 0.03587676 0.02287269 -0.03275845
v 0.03148851 0.02690770 0.00712151
v 0.03191606 0.02682218 0.01451269
v 0.03123904 0.02648950 0.02190308
v 0.03130796 0.02776110 0.03023762
v 0.03171924 0.02700638 0.03925056
v 0.03245027 0.02774617 0.04803534
v 0.03212692 0.02516575 0.05425347
v 0.04342933 -0.00691765 -0.04652743
v 0.04296488 -0.00405263 -0.05069635
v 0.04142313 -0.00321484 -0.04068270
v 0.04479690 -0.00375163 -0.04613655
v 0.03939627 -0.00375271 -0.03279126
v 0.04432243 -0.00115677 -0.04917620
v 0.04112689 0.00422668 -0.04795786
v 0.04087223 0.00459263 -0.03908374
v 0.04077473 0.00218383 -0.03329267
v 0.03945762 0.00317736 -0.02532297
v 0.03910004 0.00368532 -0.01635599
v 0.03947245 0.00482382 -0.00821030
v 0.04024405 0.00439977 -0.00106764
v 0.04033963 0.00433987 0.00680937
v 0.03976207 0.00442424 0.01431561
v 0.03934424 0.01142765 -0.05455326
v 0.04035340 0.01330582 -0.04719509
v 0.04102385 0.01181122 -0.04045766
v 0.04004620 0.00961333 -0.03191579
v 0.03974491 0.01054592 -0.00029669
v 0.04020799 0.01047027 0.00707873
v 0.04015631 0.01055714 0.01518029
v 0.03959286 0.01049604 0.02259167
v 0.03940086 0.01172270 0.03077038
v 0.03918665 0.01097188 0.03688700
v 0.03968346 0.01920260 -0.04002151
v 0.03963609 0.01768683 -0.03349317
v 0.04668383 -0.00471443 -0.04843917
f 3 2 1
f 4 1 2
f 7 6 5
f 9 8 5
f 9 5 6
f 11 10 8
f 11 8 9
f 13 12 10
f 13 10 11
f 15 14 12
f 15 12 13
f 17 16 14
f 17 14 15
f 19 18 16
f 19 16 17
f 18 19 3
f 1 18 3
f 20 18 1
f 1 4 21
f 22 1 21
f 20 1 22
f 24 23 22
f 24 22 21
f 25 23 24
f 26 7 5
f 26 5 8
f 26 8 27
f 27 8 10
f 27 10 28
f 30 29 28
f 10 30 28
f 12 30 10
f 31 12 14
f 30 12 31
f 32 14 16
f 31 14 32
f 33 16 18
f 32 16 33
f 34 18 20
f 33 18 34
f 35 20 22
f 34 20 35
f 36 22 23
f 35 22 36
f 23 25 37
f 23 37 36
f 38 29 30
f 38 30 31
f 38 31 39
f 39 31 32
f 39 32 40
f 40 32 33
f 40 33 41
f 41 33 34
f 41 34 42
f 44 43 42
f 34 44 42
f 35 44 34
f 45 35 36
f 44 35 45
f 36 37 46
f 36 46 45
f 47 43 44
f 47 44 45
f 47 45 48
f 48 45 46
f 51 50 49
f 52 49 50
f 51 49 53
f 51 53 54
f 49 52 55
f 56 49 55
f 53 49 56
f 58 57 56
f 58 56 55
f 60 59 57
f 60 57 58
f 62 61 59
f 62 59 60
f 64 63 61
f 64 61 62
f 65 63 64
f 68 67 66
f 66 67 54
f 53 66 54
f 69 66 53
f 70 53 56
f 69 53 70
f 71 56 57
f 70 56 71
f 72 57 59
f 71 57 72
f 73 59 61
f 72 59 73
f 74 61 63
f 73 61 74
f 63 65 75
f 76 63 75
f 74 63 76
f 78 77 76
f 78 76 75
f 80 79 77
f 80 77 78
f 82 81 79
f 82 79 80
f 84 83 81
f 84 81 82
f 2 3 83
f 84 2 83
f 85 2 84
f 4 2 85
f 4 85 86
f 87 68 66
f 89 88 87
f 66 89 87
f 69 89 66
f 90 69 70
f 89 69 90
f 91 70 71
f 90 70 91
f 92 71 72
f 91 71 92
f 7 92 6
f 92 73 6
f 92 72 73
f 6 73 9
f 9 73 74
f 9 74 11
f 11 74 76
f 11 76 13
f 13 76 77
f 13 77 15
f 15 77 79
f 15 79 17
f 17 79 81
f 17 81 19
f 19 81 83
f 19 83 3
f 86 93 4
f 4 93 21
f 21 94 24
f 93 94 21
f 25 24 94
f 25 94 95
f 96 88 89
f 96 89 90
f 96 90 97
f 97 90 91
f 97 91 98
f 98 91 92
f 98 92 99
f 99 92 7
f 26 99 7
f 100 99 26
f 102 100 101
f 100 27 101
f 100 26 27
f 28 103 27
f 27 103 101
f 29 103 28
f 95 37 25
f 104 37 95
f 105 102 101
f 105 101 103
f 105 103 106
f 106 103 29
f 38 106 29
f 107 106 38
f 108 38 39
f 108 107 38
f 109 39 40
f 109 108 39
f 111 109 110
f 109 41 110
f 109 40 41
f 42 112 41
f 41 112 110
f 43 112 42
f 104 46 37
f 113 46 104
f 114 111 110
f 114 110 112
f 114 112 115
f 115 112 43
f 47 115 43
f 116 115 47
f 117 47 48
f 117 116 47
f 48 46 113
f 48 113 117
f 119 118 50
f 119 50 51
f 52 50 118
f 52 118 120
f 54 119 51
f 54 121 119
f 120 122 52
f 52 122 55
f 55 123 58
f 122 123 55
f 58 124 60
f 123 124 58
f 60 125 62
f 124 125 60
f 62 126 64
f 125 126 62
f 65 64 126
f 65 126 127
f 129 128 67
f 129 67 68
f 54 67 121
f 121 67 128
f 127 130 65
f 65 130 75
f 75 131 78
f 130 131 75
f 78 132 80
f 131 132 78
f 80 133 82
f 132 133 80
f 133 135 134
f 84 133 134
f 82 133 84
f 136 85 84
f 136 84 134
f 136 86 85
f 68 87 137
f 138 68 137
f 129 68 138
f 88 137 87
f 135 139 134
f 134 139 136
f 136 139 140
f 136 140 86
f 140 93 86
f 140 141 93
f 93 142 94
f 141 142 93
f 95 94 142
f 95 142 143
f 144 138 137
f 144 137 88
f 96 144 88
f 145 144 96
f 146 96 97
f 146 145 96
f 147 97 98
f 147 146 97
f 149 147 148
f 147 99 148
f 147 98 99
f 100 150 99
f 99 150 148
f 102 150 100
f 143 104 95
f 151 104 143
f 152 149 148
f 152 148 150
f 152 150 153
f 153 150 102
f 105 153 102
f 154 153 105
f 155 105 106
f 155 154 105
f 156 106 107
f 156 155 106
f 158 156 157
f 156 108 157
f 156 107 108
f 109 159 108
f 108 159 157
f 111 159 109
f 151 113 104
f 160 113 151
f 161 158 157
f 161 157 159
f 161 159 162
f 162 159 111
f 114 162 111
f 163 162 114
f 164 114 115
f 164 163 114
f 166 164 165
f 164 116 165
f 164 115 116
f 117 167 116
f 116 167 165
f 168 167 117
f 113 168 117
f 160 168 113
f 169 166 165
f 169 165 167
f 169 167 170
f 170 167 168
f 119 171 118
f 171 120 118
f 173 172 171
f 119 173 171
f 121 173 119
f 171 172 120
f 172 122 120
f 172 174 122
f 122 175 123
f 174 175 122
f 175 177 176
f 124 175 176
f 123 175 124
f 178 125 124
f 178 124 176
f 179 126 125
f 179 125 178
f 179 127 126
f 129 180 128
f 180 181 128
f 181 121 128
f 181 173 121
f 177 182 176
f 176 182 178
f 178 182 183
f 178 183 179
f 179 183 184
f 179 184 127
f 184 130 127
f 184 185 130
f 130 186 131
f 185 186 130
f 186 188 187
f 132 186 187
f 131 186 132
f 189 133 132
f 189 132 187
f 189 135 133
f 191 190 180
f 129 191 180
f 138 191 129
f 180 190 181
f 188 192 187
f 187 192 189
f 189 192 193
f 189 193 135
f 193 139 135
f 193 194 139
f 139 195 140
f 194 195 139
f 140 196 141
f 195 196 140
f 196 198 197
f 142 196 197
f 141 196 142
f 197 143 142
f 199 191 138
f 199 138 144
f 200 144 145
f 200 199 144
f 202 200 201
f 200 146 201
f 200 145 146
f 147 203 146
f 146 203 201
f 149 203 147
f 198 204 197
f 143 197 204
f 205 143 204
f 151 143 205
f 206 202 201
f 206 201 203
f 206 203 207
f 207 203 149
f 152 207 149
f 208 207 152
f 209 152 153
f 209 208 152
f 211 209 210
f 209 154 210
f 209 153 154
f 155 212 154
f 154 212 210
f 156 213 155
f 155 213 212
f 158 213 156
f 205 160 151
f 214 160 205
f 215 211 210
f 215 210 212
f 215 212 216
f 216 212 213
f 216 213 217
f 217 213 158
f 161 217 158
f 218 217 161
f 219 161 162
f 219 218 161
f 221 219 220
f 219 163 220
f 219 162 163
f 164 222 163
f 163 222 220
f 166 222 164
f 214 168 160
f 223 168 214
f 224 221 220
f 224 220 222
f 224 222 225
f 225 222 166
f 169 225 166
f 226 225 169
f 227 169 170
f 227 226 169
f 170 168 223
f 170 223 227
f 229 228 172
f 229 172 173
f 228 231 230
f 174 228 230
f 172 228 174
f 232 175 174
f 232 174 230
f 232 177 175
f 181 229 173
f 181 233 229
f 231 234 230
f 230 234 232
f 232 234 235
f 232 235 177
f 235 182 177
f 235 236 182
f 182 237 183
f 236 237 182
f 183 238 184
f 237 238 183
f 238 240 239
f 185 238 239
f 184 238 185
f 241 186 185
f 241 185 239
f 241 188 186
f 243 242 190
f 243 190 191
f 181 190 233
f 233 190 242
f 240 244 239
f 239 244 241
f 241 244 245
f 241 245 188
f 245 192 188
f 245 246 192
f 192 247 193
f 246 247 192
f 193 248 194
f 247 248 193
f 248 250 249
f 195 248 249
f 194 248 195
f 251 196 195
f 251 195 249
f 251 198 196
f 191 199 252
f 253 191 252
f 243 191 253
f 200 254 199
f 199 254 252
f 202 254 200
f 250 255 249
f 249 255 251
f 251 255 256
f 251 256 198
f 256 204 198
f 256 257 204
f 205 204 257
f 205 257 258
f 259 253 252
f 259 252 254
f 259 254 260
f 260 254 202
f 206 260 202
f 261 260 206
f 262 206 207
f 262 261 206
f 264 262 263
f 262 208 263
f 262 207 208
f 209 265 208
f 208 265 263
f 211 265 209
f 268 267 266
f 270 269 266
f 266 269 268
f 272 271 270
f 270 271 269
f 272 273 271
f 258 214 205
f 274 214 258
f 275 264 263
f 275 263 265
f 275 265 276
f 276 265 211
f 215 276 211
f 277 276 215
f 278 215 216
f 278 277 215
f 279 216 217
f 279 278 216
f 281 279 280
f 279 218 280
f 279 217 218
f 219 282 218
f 218 282 280
f 267 283 266
f 282 219 221
f 266 283 270
f 270 283 284
f 270 284 272
f 272 284 285
f 272 285 273
f 274 223 214
f 286 223 274
f 287 281 280
f 287 280 282
f 287 282 288
f 288 282 221
f 224 288 221
f 289 288 224
f 290 224 225
f 290 289 224
f 292 290 291
f 290 226 291
f 290 225 226
f 227 293 226
f 226 293 291
f 294 293 227
f 223 294 227
f 286 294 223
f 295 292 291
f 295 291 293
f 295 293 296
f 296 293 294
f 229 297 228
f 297 231 228
f 299 298 297
f 229 299 297
f 233 299 229
f 297 298 231
f 298 234 231
f 298 300 234
f 234 301 235
f 300 301 234
f 301 303 302
f 236 301 302
f 235 301 236
f 304 237 236
f 304 236 302
f 305 238 237
f 305 237 304
f 305 240 238
f 243 306 242
f 299 233 307
f 233 306 307
f 306 308 307
f 233 242 306
f 308 309 307
f 303 310 302
f 302 310 304
f 304 310 311
f 304 311 305
f 305 311 312
f 305 312 240
f 312 244 240
f 312 313 244
f 244 314 245
f 313 314 244
f 245 315 246
f 314 315 245
f 315 317 316
f 247 315 316
f 246 315 247
f 318 248 247
f 318 247 316
f 318 250 248
f 320 319 306
f 243 320 306
f 253 320 243
f 306 319 308
f 308 319 321
f 308 321 309
f 317 322 316
f 316 322 318
f 318 322 323
f 318 323 250
f 323 255 250
f 323 324 255
f 255 325 256
f 324 325 255
f 256 326 257
f 325 326 256
f 258 257 326
f 258 326 327
f 328 320 253
f 328 253 259
f 329 259 260
f 329 328 259
f 331 329 330
f 329 261 330
f 329 260 261
f 262 332 261
f 261 332 330
f 264 332 262
f 335 334 333
f 337 336 333
f 333 336 335
f 267 268 337
f 268 336 337
f 268 338 336
f 339 268 269
f 339 338 268
f 341 339 340
f 339 271 340
f 339 269 271
f 273 340 271
f 327 274 258
f 342 274 327
f 343 331 330
f 343 330 332
f 343 332 344
f 344 332 264
f 275 344 264
f 345 344 275
f 346 275 276
f 346 345 275
f 347 276 277
f 347 346 276
f 349 347 348
f 347 278 348
f 347 277 278
f 279 350 278
f 278 350 348
f 334 351 333
f 350 279 281
f 333 351 337
f 337 351 352
f 337 352 267
f 352 283 267
f 352 353 283
f 283 354 284
f 353 354 283
f 340 285 341
f 285 354 341
f 285 284 354
f 285 340 273
f 342 286 274
f 355 286 342
f 356 349 348
f 356 348 350
f 356 350 357
f 357 350 281
f 287 357 281
f 358 357 287
f 359 287 288
f 359 358 287
f 360 288 289
f 360 359 288
f 362 360 361
f 360 290 361
f 360 289 290
f 292 361 290
f 355 294 286
f 363 294 355
f 364 362 361
f 364 361 292
f 295 364 292
f 365 364 295
f 366 295 296
f 366 365 295
f 296 294 363
f 296 363 366
f 368 367 298
f 368 298 299
f 298 369 300
f 367 369 298
f 369 371 370
f 301 369 370
f 300 369 301
f 370 303 301
f 299 307 372
f 373 299 372
f 368 299 373
f 309 372 307
f 371 374 370
f 370 374 303
f 374 310 303
f 374 375 310
f 310 376 311
f 375 376 310
f 311 377 312
f 376 377 311
f 312 378 313
f 377 378 312
f 378 380 379
f 314 378 379
f 313 378 314
f 381 315 314
f 381 314 379
f 381 317 315
f 383 382 319
f 383 319 320
f 372 321 373
f 321 382 373
f 321 319 382
f 321 372 309
f 380 384 379
f 379 384 381
f 381 384 385
f 381 385 317
f 385 322 317
f 385 386 322
f 322 387 323
f 386 387 322
f 323 388 324
f 387 388 323
f 388 390 389
f 325 388 389
f 324 388 325
f 391 326 325
f 391 325 389
f 391 327 326
f 320 328 392
f 393 320 392
f 383 320 393
f 392 328 394
f 328 395 394
f 328 329 395
f 329 331 395
f 395 331 396
f 399 398 397
f 401 400 397
f 397 400 399
f 334 335 401
f 335 400 401
f 335 402 400
f 403 335 336
f 403 402 335
f 405 403 404
f 403 338 404
f 403 336 338
f 339 406 338
f 338 406 404
f 390 407 389
f 406 339 341
f 389 407 391
f 391 407 408
f 327 391 408
f 409 327 408
f 342 327 409
f 410 393 392
f 410 392 394
f 411 396 331
f 411 331 343
f 412 343 344
f 412 411 343
f 413 344 345
f 413 412 344
f 415 413 414
f 413 346 414
f 413 345 346
f 347 416 346
f 346 416 414
f 398 417 397
f 416 347 349
f 397 417 401
f 401 417 418
f 401 418 334
f 418 351 334
f 418 419 351
f 351 420 352
f 419 420 351
f 404 353 405
f 353 420 405
f 353 352 420
f 353 404 354
f 354 404 406
f 354 406 341
f 409 355 342
f 421 355 409
f 422 415 414
f 422 414 416
f 422 416 423
f 423 416 349
f 356 423 349
f 424 423 356
f 425 356 357
f 425 424 356
f 427 425 426
f 425 358 426
f 425 357 358
f 359 428 358
f 358 428 426
f 360 429 359
f 359 429 428
f 362 429 360
f 421 363 355
f 430 363 421
f 431 427 426
f 431 426 428
f 431 428 432
f 432 428 429
f 432 429 433
f 433 429 362
f 364 433 362
f 434 433 364
f 435 364 365
f 435 434 364
f 437 435 436
f 435 366 436
f 435 365 366
f 438 436 366
f 363 438 366
f 430 438 363
f 439 437 436
f 439 436 438
f 441 440 367
f 441 367 368
f 440 443 442
f 369 440 442
f 367 440 369
f 442 371 369
f 373 441 368
f 373 444 441
f 443 445 442
f 442 445 371
f 445 374 371
f 445 446 374
f 374 447 375
f 446 447 374
f 375 448 376
f 447 448 375
f 448 450 449
f 377 448 449
f 376 448 377
f 451 378 377
f 451 377 449
f 451 380 378
f 453 452 382
f 453 382 383
f 373 382 444
f 444 382 452
f 450 454 449
f 449 454 451
f 451 454 455
f 451 455 380
f 455 384 380
f 455 456 384
f 384 457 385
f 456 457 384
f 385 458 386
f 457 458 385
f 458 460 459
f 387 458 459
f 386 458 387
f 461 388 387
f 461 387 459
f 461 390 388
f 393 453 383
f 393 462 453
f 463 394 395
f 396 463 395
f 466 465 464
f 468 467 464
f 464 467 466
f 398 399 468
f 399 467 468
f 399 469 467
f 471 469 470
f 469 400 470
f 469 399 400
f 402 472 400
f 400 472 470
f 403 473 402
f 402 473 472
f 460 474 459
f 473 403 405
f 459 474 461
f 461 474 475
f 461 475 390
f 475 407 390
f 475 476 407
f 407 477 408
f 476 477 407
f 409 408 477
f 409 477 478
f 479 462 393
f 479 393 410
f 410 394 463
f 480 410 463
f 479 410 480
f 482 480 481
f 481 480 411
f 480 463 411
f 463 396 411
f 412 483 411
f 411 483 481
f 413 484 412
f 412 484 483
f 465 485 464
f 484 413 415
f 464 485 468
f 468 485 486
f 468 486 398
f 486 417 398
f 486 487 417
f 470 418 471
f 418 487 471
f 418 417 487
f 418 470 419
f 419 470 472
f 419 472 420
f 420 472 473
f 420 473 405
f 478 421 409
f 488 421 478
f 489 482 481
f 489 481 483
f 489 483 490
f 490 483 484
f 490 484 491
f 491 484 415
f 422 491 415
f 492 491 422
f 493 422 423
f 493 492 422
f 495 493 494
f 493 424 494
f 493 423 424
f 425 496 424
f 424 496 494
f 427 496 425
f 488 430 421
f 497 430 488
f 498 495 494
f 498 494 496
f 498 496 499
f 499 496 427
f 431 499 427
f 500 499 431
f 501 431 432
f 501 500 431
f 502 432 433
f 502 501 432
f 504 502 503
f 502 434 503
f 502 433 434
f 435 505 434
f 434 505 503
f 437 505 435
f 497 438 430
f 506 438 497
f 507 504 503
f 507 503 505
f 507 505 508
f 508 505 437
f 439 508 437
f 509 508 439
f 439 438 506
f 439 506 509
f 441 510 440
f 510 443 440
f 512 511 510
f 441 512 510
f 444 512 441
f 510 511 443
f 511 445 443
f 511 513 445
f 513 515 514
f 446 513 514
f 445 513 446
f 516 447 446
f 516 446 514
f 517 448 447
f 517 447 516
f 517 450 448
f 453 518 452
f 518 519 452
f 519 444 452
f 519 512 444
f 515 520 514
f 514 520 516
f 516 520 521
f 516 521 517
f 517 521 522
f 517 522 450
f 522 454 450
f 522 523 454
f 454 524 455
f 523 524 454
f 455 525 456
f 524 525 455
f 525 527 526
f 457 525 526
f 456 525 457
f 528 458 457
f 528 457 526
f 528 460 458
f 530 529 518
f 453 530 518
f 462 530 453
f 518 529 519
f 533 532 531
f 535 534 531
f 531 534 533
f 465 466 535
f 466 534 535
f 466 536 534
f 538 536 537
f 536 467 537
f 536 466 467
f 469 539 467
f 467 539 537
f 471 539 469
f 527 540 526
f 526 540 528
f 528 540 541
f 528 541 460
f 541 474 460
f 541 542 474
f 474 543 475
f 542 543 474
f 475 544 476
f 543 544 475
f 544 546 545
f 477 544 545
f 476 544 477
f 545 478 477
f 462 479 547
f 548 462 547
f 530 462 548
f 480 549 479
f 479 549 547
f 482 549 480
f 532 550 531
f 531 550 535
f 535 550 551
f 535 551 465
f 551 485 465
f 551 552 485
f 537 486 538
f 486 552 538
f 486 485 552
f 486 537 487
f 487 537 539
f 487 539 471
f 546 553 545
f 478 545 553
f 554 478 553
f 488 478 554
f 555 548 547
f 555 547 549
f 555 549 556
f 556 549 482
f 489 556 482
f 557 556 489
f 558 489 490
f 558 557 489
f 559 490 491
f 559 558 490
f 561 559 560
f 559 492 560
f 559 491 492
f 493 562 492
f 492 562 560
f 495 562 493
f 565 564 563
f 567 566 563
f 563 566 565
f 567 568 566
f 554 497 488
f 569 497 554
f 570 561 560
f 570 560 562
f 570 562 571
f 571 562 495
f 498 571 495
f 572 571 498
f 573 498 499
f 573 572 498
f 574 499 500
f 574 573 499
f 576 574 575
f 574 501 575
f 574 500 501
f 502 577 501
f 501 577 575
f 564 578 563
f 577 502 504
f 563 578 567
f 567 578 579
f 567 579 568
f 569 506 497
f 580 506 569
f 581 576 575
f 581 575 577
f 581 577 582
f 582 577 504
f 507 582 504
f 583 582 507
f 584 507 508
f 584 583 507
f 585 508 509
f 585 584 508
f 509 506 580
f 509 580 585
f 587 586 511
f 587 511 512
f 586 589 588
f 513 586 588
f 511 586 513
f 588 515 513
f 519 587 512
f 519 590 587
f 589 591 588
f 588 591 515
f 591 520 515
f 591 592 520
f 520 593 521
f 592 593 520
f 521 594 522
f 593 594 521
f 522 595 523
f 594 595 522
f 595 597 596
f 524 595 596
f 523 595 524
f 598 525 524
f 598 524 596
f 598 527 525
f 530 599 529
f 590 519 600
f 519 599 600
f 599 601 600
f 519 529 599
f 603 602 601
f 601 602 600
f 532 533 603
f 533 602 603
f 533 604 602
f 606 604 605
f 604 534 605
f 604 533 534
f 536 607 534
f 534 607 605
f 538 607 536
f 597 608 596
f 596 608 598
f 598 608 609
f 598 609 527
f 609 540 527
f 609 610 540
f 540 611 541
f 610 611 540
f 541 612 542
f 611 612 541
f 612 614 613
f 543 612 613
f 542 612 543
f 615 544 543
f 615 543 613
f 615 546 544
f 617 616 599
f 530 617 599
f 548 617 530
f 599 616 601
f 601 616 618
f 601 618 603
f 603 618 619
f 603 619 532
f 619 550 532
f 619 620 550
f 605 551 606
f 551 620 606
f 551 550 620
f 551 621 552
f 621 551 622
f 605 622 551
f 622 605 623
f 607 623 605
f 623 607 624
f 538 624 607
f 624 538 625
f 552 625 538
f 625 552 621
f 625 626 624
f 614 627 613
f 613 627 615
f 615 627 628
f 615 628 546
f 628 553 546
f 628 629 553
f 554 553 629
f 554 629 630
f 631 617 548
f 631 548 555
f 632 555 556
f 632 631 555
f 633 556 557
f 633 632 556
f 635 633 634
f 633 558 634
f 633 557 558
f 559 636 558
f 558 636 634
f 622 637 621
f 636 559 561
f 621 637 625
f 625 637 638
f 625 638 626
f 641 640 639
f 643 642 639
f 639 642 641
f 564 565 643
f 565 642 643
f 565 644 642
f 646 644 645
f 644 566 645
f 644 565 566
f 568 645 566
f 630 569 554
f 647 569 630
f 648 635 634
f 648 634 636
f 648 636 649
f 649 636 561
f 570 649 561
f 650 649 570
f 651 570 571
f 651 650 570
f 652 571 572
f 652 651 571
f 654 652 653
f 652 573 653
f 652 572 573
f 574 655 573
f 573 655 653
f 640 656 639
f 655 574 576
f 639 656 643
f 643 656 657
f 643 657 564
f 657 578 564
f 657 658 578
f 645 579 646
f 579 658 646
f 579 578 658
f 579 645 568
f 647 580 569
f 659 580 647
f 660 654 653
f 660 653 655
f 660 655 661
f 661 655 576
f 581 661 576
f 662 661 581
f 663 581 582
f 663 662 581
f 664 582 583
f 664 663 582
f 665 583 584
f 665 664 583
f 666 584 585
f 666 665 584
f 585 580 659
f 585 659 666
f 587 667 586
f 667 589 586
f 669 668 667
f 587 669 667
f 590 669 587
f 667 668 589
f 668 591 589
f 668 670 591
f 591 671 592
f 670 671 591
f 671 673 672
f 593 671 672
f 592 671 593
f 674 594 593
f 674 593 672
f 675 595 594
f 675 594 674
f 675 597 595
f 590 600 676
f 677 590 676
f 669 590 677
f 602 678 600
f 600 678 676
f 604 679 602
f 602 679 678
f 673 680 672
f 679 604 606
f 672 680 674
f 674 680 681
f 674 681 675
f 675 681 682
f 675 682 597
f 682 608 597
f 682 683 608
f 608 684 609
f 683 684 608
f 609 685 610
f 684 685 609
f 685 687 686
f 611 685 686
f 610 685 611
f 688 612 611
f 688 611 686
f 688 614 612
f 690 689 616
f 690 616 617
f 676 618 677
f 618 689 677
f 618 616 689
f 618 676 619
f 619 676 678
f 619 678 620
f 620 678 679
f 620 679 606
f 693 692 691
f 622 623 692
f 623 691 692
f 623 694 691
f 695 623 624
f 695 694 623
f 624 626 695
f 695 626 696
f 687 697 686
f 686 697 688
f 688 697 698
f 688 698 614
f 698 627 614
f 698 699 627
f 699 701 700
f 628 699 700
f 627 699 628
f 702 629 628
f 702 628 700
f 702 630 629
f 703 690 617
f 703 617 631
f 704 631 632
f 704 703 631
f 706 704 705
f 704 633 705
f 704 632 633
f 635 705 633
f 692 693 707
f 707 693 708
f 709 637 622
f 692 709 622
f 707 709 692
f 710 638 637
f 710 637 709
f 696 626 711
f 626 710 711
f 710 712 711
f 626 638 710
f 714 713 712
f 712 713 711
f 716 715 714
f 714 715 713
f 640 641 716
f 641 715 716
f 641 717 715
f 718 641 642
f 718 717 641
f 719 642 644
f 719 718 642
f 720 700 646
f 700 719 646
f 719 644 646
f 700 701 719
f 700 721 702
f 700 720 721
f 721 647 630
f 721 630 702
f 722 706 705
f 722 705 635
f 648 722 635
f 723 722 648
f 649 707 708
f 723 649 708
f 648 649 723
f 707 649 650
f 707 650 709
f 709 650 651
f 709 651 710
f 710 651 652
f 710 652 712
f 712 652 654
f 724 712 654
f 714 712 724
f 714 725 716
f 714 724 725
f 726 656 640
f 716 726 640
f 725 726 716
f 727 657 656
f 727 656 726
f 728 658 657
f 728 657 727
f 720 646 658
f 728 720 658
f 729 720 728
f 720 730 721
f 720 729 730
f 730 659 647
f 730 647 721
f 660 724 654
f 724 660 661
f 724 661 725
f 725 661 662
f 725 662 726
f 726 662 663
f 726 663 727
f 727 663 664
f 727 664 728
f 728 664 665
f 728 665 729
f 729 665 666
f 729 666 730
f 730 666 659
f 732 731 668
f 732 668 669
f 731 734 733
f 670 731 733
f 668 731 670
f 735 671 670
f 735 670 733
f 735 673 671
f 677 737 736
f 732 677 736
f 669 677 732
f 736 737 734
f 737 733 734
f 737 738 733
f 733 739 735
f 733 738 739
f 740 680 673
f 735 740 673
f 739 740 735
f 741 681 680
f 741 680 740
f 742 682 681
f 742 681 741
f 743 683 682
f 743 682 742
f 744 684 683
f 744 683 743
f 745 685 684
f 745 684 744
f 745 687 685
f 690 746 689
f 737 677 689
f 746 737 689
f 747 737 746
f 737 748 738
f 737 747 748
f 738 749 739
f 738 748 749
f 749 693 691
f 740 749 691
f 739 749 740
f 740 691 694
f 740 694 741
f 741 694 695
f 741 695 742
f 742 695 696
f 750 742 696
f 743 742 750
f 743 751 744
f 743 750 751
f 744 752 745
f 744 751 752
f 753 697 687
f 745 753 687
f 752 753 745
f 754 698 697
f 754 697 753
f 755 699 698
f 755 698 754
f 755 701 699
f 703 746 690
f 746 703 704
f 746 704 747
f 747 704 706
f 756 747 706
f 748 747 756
f 748 757 749
f 748 756 757
f 757 708 693
f 757 693 749
f 711 750 696
f 750 711 713
f 750 713 751
f 751 713 715
f 751 715 752
f 752 715 717
f 752 717 753
f 753 717 718
f 753 718 754
f 754 718 719
f 754 719 755
f 755 719 701
f 722 756 706
f 756 722 723
f 756 723 757
f 757 723 708
f 732 758 731
f 758 734 731
f 736 758 732
f 758 736 734

