# https://github.com/mikedh/trimesh

o paprika_LP
v -0.01726387 0.01271807 -0.01708323
v -0.01901222 0.01143384 -0.01368095
v -0.02091970 0.01060871 -0.00979999
v -0.02418584 0.01132506 -0.00559614
v -0.02483252 0.01151579 -0.00053830
v -0.02468593 0.01117808 0.00354580
v -0.02306811 0.01188556 0.00651961
v -0.02084859 0.01212055 0.01090015
v -0.01779002 0.01203861 0.01465653
v -0.01532251 0.01290900 0.01874624
v -0.01182196 0.01347034 0.02132678
v -0.00844913 0.01396260 0.02319886
v -0.00498318 0.01439917 0.02387911
v 0.00127930 0.01531004 0.02396680
v 0.00632885 0.01818173 0.02130125
v 0.01014256 0.01883795 0.01804856
v 0.01339571 0.01833537 0.01448382
v 0.01562528 0.01971356 0.00917100
v 0.01801725 0.02035110 0.00534972
v 0.01923769 0.02054314 0.00163389
v 0.02010612 0.02089508 -0.00276774
v 0.01921601 0.02094085 -0.00769199
v 0.01772127 0.01969586 -0.01146776
v 0.01501392 0.01726786 -0.01551125
v 0.01233309 0.01756175 -0.01913808
v 0.00994844 0.01720596 -0.02190589
v 0.00682190 0.01643207 -0.02380507
v 0.00332311 0.01554249 -0.02456249
v -0.00017235 0.01409803 -0.02450183
v -0.00422634 0.01341242 -0.02319286
v -0.00889222 0.01370887 -0.02262139
v -0.01340648 0.01347628 -0.02078254
v 0.01871095 -0.01845564 0.01137374
v 0.01737918 -0.01913987 0.01551242
v 0.01539740 -0.01945055 0.01966984
v 0.01199995 -0.01970599 0.02213723
v 0.00805957 -0.02045094 0.02278241
v 0.00278743 -0.02103762 0.02248088
v -0.00096053 -0.02161810 0.02127513
v -0.00411593 -0.02206400 0.01892378
v -0.00580088 -0.02228737 0.01576929
v -0.00703999 -0.02205695 0.01188944
v -0.01368719 -0.02325623 0.00823061
v -0.01521947 -0.02368626 0.00543891
v -0.01536711 -0.02413615 0.00114711
v -0.01505016 -0.02366197 -0.00349095
v -0.00852010 -0.02131121 -0.00902506
v -0.00718664 -0.02143076 -0.01429048
v -0.00497241 -0.02177154 -0.01847794
v -0.00156653 -0.02154425 -0.02125019
v 0.00216568 -0.02054183 -0.02296080
v 0.00597874 -0.01967876 -0.02324875
v 0.00911958 -0.01884174 -0.02294173
v 0.01299819 -0.01844742 -0.02121558
v 0.01593387 -0.01827556 -0.01878516
v 0.01811754 -0.01786355 -0.01463204
v 0.01876939 -0.01735653 -0.00935350
v 0.02659256 -0.01720896 -0.00261919
v 0.02710722 -0.01722665 0.00122429
v 0.02678120 -0.01727275 0.00558811
v 0.00273062 0.01779388 -0.01898992
v -0.00048557 0.01549979 -0.01932822
v -0.00392533 0.01388131 -0.01913129
v -0.00749888 0.01457129 -0.01816968
v -0.01092904 0.01525539 -0.01674193
v -0.01491644 0.01467171 -0.01468435
v -0.01720014 0.01276861 -0.01183714
v -0.01857076 0.01215072 -0.00807508
v -0.02052146 0.01352075 -0.00456016
v -0.02172165 0.01345395 -0.00072680
v -0.02183292 0.01303241 0.00253882
v -0.02046322 0.01318023 0.00546640
v -0.01883527 0.01306251 0.00867110
v -0.01582013 0.01270377 0.01148056
v -0.01382039 0.01439342 0.01427893
v -0.01084540 0.01599094 0.01785718
v -0.00784416 0.01620752 0.01980435
v -0.00465710 0.01610560 0.02022544
v 0.00042164 0.01717670 0.01984608
v 0.00426206 0.02030161 0.01732052
v 0.00767531 0.02078715 0.01460828
v 0.01019584 0.02018591 0.01214853
v 0.01294628 0.02045486 0.00743114
v 0.01476802 0.02099270 0.00372634
v 0.01664200 0.02174412 0.00045942
v 0.01597115 0.02199217 -0.00281978
v 0.01576671 0.02204591 -0.00668964
v 0.01424566 0.02096416 -0.00992614
v 0.01172271 0.01850142 -0.01372927
v 0.00881791 0.01907053 -0.01661768
v 0.00829111 0.01907086 -0.01950471
v 0.00564286 0.01842770 -0.02060102
v 0.01656058 -0.02157454 -0.01221768
v 0.01743116 -0.02012499 -0.00777655
v 0.01531448 -0.02254542 -0.00579281
v 0.01270430 -0.02389325 -0.00398948
v 0.00751077 -0.02639569 -0.00683636
v 0.00625403 -0.02470069 -0.00188070
v 0.00400355 -0.02688574 -0.00751504
v 0.00253709 -0.02595012 -0.00307783
v -0.00049275 -0.02624565 -0.00499941
v -0.00183522 -0.02622149 -0.01050622
v -0.00382491 -0.02516573 -0.00673633
v -0.00614054 -0.02372897 -0.00787306
v -0.00584031 -0.02356090 0.00964988
v -0.00263098 -0.02449129 0.00704433
v 0.00379539 -0.02619432 0.01023655
v 0.00298488 -0.02554026 0.00607221
v 0.00816542 -0.02588900 0.01056003
v 0.00876692 -0.02489886 0.00589082
v 0.01217390 -0.02492035 0.01208010
v 0.01371742 -0.02353262 0.00778151
v 0.01729130 -0.02122632 0.01003107
v -0.01329705 -0.02293073 -0.00698465
v -0.00702797 -0.02712772 -0.00266353
v -0.00232057 -0.02623879 -0.00122507
v 0.01706289 -0.02342044 -0.00198217
v 0.02166622 -0.02129279 -0.00438361
v 0.02371421 -0.01764298 -0.00651387
v 0.02368789 -0.01812172 0.00950923
v 0.00638181 -0.02423226 0.00207679
v 0.00062994 -0.02513575 0.00229696
v -0.00560055 -0.02612629 0.00358308
v -0.01118696 -0.02225087 0.01057896
v 0.01520857 -0.02284617 0.01345163
v 0.01380145 -0.02303448 0.01701467
v 0.01143306 -0.02328763 0.01889916
v 0.00825076 -0.02309710 0.01968166
v 0.00329660 -0.02358897 0.01963609
v 0.00020539 -0.02430389 0.01824843
v -0.00281054 -0.02489390 0.01618614
v -0.00421864 -0.02490853 0.01319568
v 0.01111827 -0.02488189 0.01472574
v 0.00804403 -0.02580980 0.01498007
v 0.00359990 -0.02599641 0.01418222
v 0.00022876 -0.02630826 0.01375343
v -0.00069092 -0.02601208 0.01077746
v 0.00424632 -0.02448561 0.01793227
v 0.00698161 -0.02422462 0.01792633
v 0.02379426 -0.02136331 -0.00180183
v 0.01980909 -0.02356867 0.00045818
v 0.02450076 -0.02092538 0.00175436
v 0.02145342 -0.02310957 0.00349944
v 0.02408972 -0.02088476 0.00530479
v 0.02051891 -0.02227040 0.00779536
v 0.01625519 -0.02386654 0.00483565
v 0.01351716 -0.02394620 -0.00017342
v 0.01252813 -0.02432263 0.00385955
v 0.01090332 -0.02421933 0.00103265
v 0.01045147 -0.02448345 -0.00252478
v 0.01061106 -0.02578388 -0.00702853
v -0.00447988 -0.02474111 -0.01200991
v -0.00244215 -0.02540033 -0.01566913
v 0.00080845 -0.02518342 -0.01761676
v 0.00408491 -0.02454503 -0.01884569
v 0.00685840 -0.02370108 -0.01943426
v 0.00953714 -0.02308966 -0.01929982
v 0.01300041 -0.02260850 -0.01813149
v 0.01530364 -0.02217996 -0.01578059
v 0.00008988 -0.02708306 -0.01311262
v 0.00266402 -0.02663918 -0.01448428
v 0.00495798 -0.02616233 -0.01554540
v 0.00741210 -0.02558322 -0.01605790
v 0.00921171 -0.02530056 -0.01573612
v 0.01194452 -0.02496377 -0.01459221
v 0.01376123 -0.02451891 -0.01265686
v 0.01481177 -0.02382658 -0.00999764
v 0.00112573 -0.02703768 -0.00874893
v 0.00212115 -0.02718146 -0.01062761
v 0.00440421 -0.02700222 -0.01104994
v 0.00519493 -0.02679628 -0.01262898
v 0.00724051 -0.02647470 -0.01299398
v 0.00808811 -0.02656187 -0.01077028
v 0.01044697 -0.02619321 -0.01045973
v 0.01229920 -0.02557408 -0.01022630
v 0.01279780 -0.02512374 -0.00860600
v -0.00861400 -0.02424349 0.00817844
v -0.01135235 -0.02495345 0.00731426
v -0.01083685 -0.02589808 0.00431851
v -0.01191161 -0.02618969 -0.00031257
v -0.01263417 -0.02548522 -0.00300796
v -0.00997338 -0.02608626 -0.00487352
v 0.00604175 0.01837814 -0.01375780
v 0.00884684 0.01746113 -0.01072771
v 0.00406820 0.01599806 -0.01066182
v 0.00297110 0.01597129 -0.00782036
v 0.00173121 0.01558898 -0.01178771
v 0.00147173 0.01675013 -0.01465464
v 0.00622079 0.01620811 -0.00312073
v 0.01052552 0.02010011 -0.00755513
v 0.01229176 0.02150004 -0.00546882
v 0.01136581 0.01951180 -0.00154574
v 0.00612990 0.01597553 0.00224884
v 0.00992389 0.01943893 0.00546013
v 0.00007434 0.01700857 0.01402290
v -0.00365227 0.01558604 0.01650001
v -0.00242367 0.01304566 0.01044485
v 0.00261185 0.01993210 0.01365679
v 0.00511932 0.02076991 0.01173828
v 0.00675216 0.02007112 0.00987978
v -0.00057764 0.01517416 0.00687854
v 0.00161302 0.01832505 0.01029630
v 0.00359193 0.01894242 0.00919059
v 0.00349745 0.01626753 0.00521397
v -0.01529032 0.01293596 0.00565843
v -0.01268771 0.01216483 0.00863629
v -0.01116874 0.01435248 0.01065366
v -0.00894367 0.01644233 0.01437530
v -0.00694720 0.01631507 0.01611784
v -0.00433336 0.01396064 0.01043668
v -0.00922105 0.01123077 0.00524740
v -0.00718618 0.01255039 0.00666803
v -0.00526604 0.01366205 0.00780450
v -0.00085475 0.01373159 -0.01363577
v -0.00355556 0.01310436 -0.01346339
v -0.00589967 0.01364710 -0.01280090
v -0.00858847 0.01417664 -0.01236864
v -0.01233688 0.01315105 -0.00959849
v -0.01566061 0.01242046 -0.00923231
v -0.01687543 0.01247452 -0.00766490
v -0.01699721 0.01358970 -0.00410329
v -0.01781869 0.01369104 -0.00002710
v -0.01904957 0.01338650 0.00213810
v -0.01830684 0.01333498 0.00454391
v -0.00121877 0.01294582 -0.00880567
v -0.00535112 0.01184749 -0.00793110
v -0.00840832 0.01096914 -0.00553947
v -0.01057743 0.01132029 -0.00300235
v -0.01152323 0.01117567 -0.00022716
v -0.01103306 0.01080224 0.00287006
v 0.00041962 0.01548816 -0.00448984
v 0.00225468 0.01615261 -0.00222827
v 0.00226428 0.01648953 0.00056755
v -0.00196405 0.01501033 0.00465902
v 0.00091156 0.01605578 0.00278981
v -0.00705520 0.01169163 0.00300222
v -0.00577600 0.01267922 0.00404322
v -0.00413434 0.01381504 0.00473274
v -0.00176164 0.01315144 -0.00552517
v -0.00459200 0.01237566 -0.00555670
v -0.00657952 0.01197162 -0.00392556
v -0.00748171 0.01128804 -0.00153333
v -0.00804149 0.01102947 0.00022305
v -0.00789810 0.01111403 0.00163467
v -0.00726140 0.01579838 0.00083761
v -0.00644364 0.01628216 0.00210127
v -0.00538475 0.01665506 0.00248488
v -0.00418716 0.01715542 0.00276598
v -0.00285527 0.01758787 0.00221149
v -0.00180147 0.01795235 0.00118740
v -0.00135929 0.01814405 -0.00019158
v -0.00174897 0.01786492 -0.00166941
v -0.00269680 0.01728431 -0.00302435
v -0.00399526 0.01663292 -0.00367979
v -0.00560048 0.01607106 -0.00400764
v -0.00698011 0.01566068 -0.00330662
v -0.00777090 0.01536182 -0.00218008
v -0.00772879 0.01546923 -0.00061397
v -0.00722986 0.01889058 -0.00348625
v -0.00835229 0.01830435 -0.00322801
v -0.00912676 0.01798212 -0.00241619
v -0.00971599 0.01810671 -0.00108253
v -0.00936999 0.01840942 0.00056050
v -0.00868393 0.01896325 0.00168880
v -0.00743117 0.01972564 0.00223428
v -0.00638788 0.02030076 0.00207509
v -0.00532128 0.02074666 0.00140150
v -0.00458775 0.02101640 0.00038955
v -0.00434603 0.02091153 -0.00066882
v -0.00476255 0.02064689 -0.00187548
v -0.00534407 0.02016651 -0.00283597
v -0.00622673 0.01956358 -0.00322004
v -0.00889607 0.02311871 -0.00299484
v -0.00966166 0.02248796 -0.00327313
v -0.01050867 0.02188280 -0.00345817
v -0.01138951 0.02113759 -0.00319667
v -0.01190593 0.02086766 -0.00247215
v -0.01257645 0.02053746 -0.00109957
v -0.01262144 0.02071708 0.00041691
v -0.01180120 0.02144892 0.00147065
v -0.01068882 0.02243533 0.00209024
v -0.00956398 0.02324780 0.00195194
v -0.00874622 0.02377689 0.00111955
v -0.00813525 0.02402110 0.00008057
v -0.00787655 0.02383259 -0.00106902
v -0.00841942 0.02349423 -0.00212380
v -0.01491977 0.02410317 -0.00341292
v -0.01551161 0.02345100 -0.00326020
v -0.01596038 0.02288646 -0.00284570
v -0.01639917 0.02239100 -0.00204864
v -0.01644109 0.02229658 -0.00088874
v -0.01620517 0.02264846 0.00034809
v -0.01583769 0.02318186 0.00111884
v -0.01545989 0.02388757 0.00166059
v -0.01463521 0.02503102 0.00199210
v -0.01407125 0.02588580 0.00144649
v -0.01359963 0.02639112 -0.00015769
v -0.01332388 0.02626869 -0.00150238
v -0.01355666 0.02567412 -0.00266666
v -0.01421575 0.02489011 -0.00329905
v -0.01952773 0.02367595 0.00091603
v -0.01931239 0.02442750 0.00164433
v -0.01895404 0.02548528 0.00194619
v -0.01889613 0.02646510 0.00149435
v -0.01891480 0.02718146 0.00039177
v -0.01911330 0.02714287 -0.00127829
v -0.01933850 0.02654065 -0.00249977
v -0.01972917 0.02557611 -0.00295729
v -0.02010788 0.02463383 -0.00289343
v -0.02037592 0.02394953 -0.00264610
v -0.02046779 0.02345766 -0.00224962
v -0.02047732 0.02307510 -0.00164453
v -0.02032675 0.02300366 -0.00085328
v -0.01986935 0.02328659 0.00005517
v -0.02260647 0.02326498 0.00074456
v -0.02231793 0.02406517 0.00165067
v -0.02233354 0.02499909 0.00185570
v -0.02258884 0.02581796 0.00150245
v -0.02296658 0.02651858 0.00059987
v -0.02378571 0.02669658 -0.00082344
v -0.02412420 0.02610461 -0.00193451
v -0.02395965 0.02488509 -0.00235971
v -0.02339759 0.02418891 -0.00235050
v -0.02320020 0.02360216 -0.00208070
v -0.02297572 0.02306700 -0.00171746
v -0.02289149 0.02254033 -0.00117597
v -0.02281470 0.02225238 -0.00024329
v -0.02277219 0.02280373 -0.00006836
v -0.02601868 0.02231623 -0.00221717
v -0.02582194 0.02421091 -0.00186027
v -0.02484591 0.02218577 0.00078988
v -0.02479204 0.02185238 -0.00097708
v -0.02428143 0.02338172 0.00190734
v -0.02431036 0.02444147 0.00213927
v -0.02459132 0.02530755 0.00183421
v -0.02509762 0.02591101 0.00077218
v -0.02596148 0.02591832 -0.00050304
v -0.02616762 0.02518623 -0.00154384
v -0.02648365 0.02115071 -0.00000137
v -0.02612531 0.02163755 0.00127163
v -0.02637069 0.02242090 0.00222305
v -0.02667405 0.02313308 0.00248455
v -0.02725492 0.02403853 0.00226777
v -0.02786464 0.02452061 0.00142259
v -0.02831009 0.02455254 0.00027307
v -0.02812243 0.02382854 -0.00068351
v -0.02761339 0.02304911 -0.00104081
v -0.02679315 0.02206530 -0.00108025
v -0.02763748 0.02118375 0.00158929
v -0.02778747 0.02168959 0.00223134
v -0.02808175 0.02237539 0.00252425
v -0.02838466 0.02300726 0.00240183
v -0.02914104 0.02351427 0.00182494
v -0.02947640 0.02345551 0.00095592
v -0.02917636 0.02278904 0.00017179
v -0.02866053 0.02193733 0.00007692
v -0.02821881 0.02130873 0.00013653
v -0.02789129 0.02087745 0.00072641
v -0.02852543 0.02128555 0.00156977
v -0.02879367 0.02153615 0.00187920
v -0.02903696 0.02188979 0.00209076
v -0.02945903 0.02217657 0.00205021
v -0.02992517 0.02257258 0.00185269
v -0.03000000 0.02256331 0.00121626
v -0.02971335 0.02207307 0.00091812
v -0.02933059 0.02154059 0.00087868
v -0.02902285 0.02127503 0.00094907
v -0.02863258 0.02118016 0.00106307
v -0.02497082 0.02214248 -0.00222644
v -0.02447039 0.02191010 -0.00185968
v -0.02395384 0.02136286 -0.00114130
v -0.02374438 0.02109214 -0.00041632
v -0.02552537 0.02125368 -0.00260927
v -0.02511512 0.02035202 -0.00251949
v -0.02440203 0.02033504 -0.00181103
v -0.02395861 0.02040785 -0.00072661
v -0.02458394 0.02030422 -0.00127959
v -0.02589540 0.02131421 -0.00255220
v -0.01546936 0.00886545 0.02028787
v -0.01831167 0.00821498 0.01622212
v -0.02237428 0.00804188 0.01282832
v -0.02503233 0.00790084 0.00857133
v -0.02619811 0.00749875 0.00413568
v -0.02656233 0.00789483 -0.00023199
v -0.02604258 0.00781452 -0.00548925
v -0.02274287 0.00763241 -0.01078073
v -0.02009867 0.00802993 -0.01483309
v -0.01815522 0.00903509 -0.01899032
v -0.01443593 0.00975099 -0.02287324
v -0.00919676 0.01033518 -0.02544013
v -0.00391619 0.01071801 -0.02658306
v 0.00057542 0.01127661 -0.02715890
v 0.00505370 0.01244311 -0.02700741
v 0.00876862 0.01313387 -0.02591169
v 0.01198174 0.01394210 -0.02383086
v 0.01482738 0.01419852 -0.02075421
v 0.01742927 0.01366949 -0.01635839
v 0.02046139 0.01613785 -0.01232673
v 0.02210964 0.01821157 -0.00840828
v 0.02309619 0.01865153 -0.00344714
v 0.02270435 0.01839472 0.00168103
v 0.02126041 0.01803135 0.00567835
v 0.01903227 0.01695568 0.01003780
v 0.01569672 0.01558545 0.01495963
v 0.01236195 0.01545545 0.02016446
v 0.00809790 0.01468425 0.02398913
v 0.00282576 0.01257880 0.02618156
v -0.00344332 0.01112722 0.02665913
v -0.00767949 0.01042346 0.02590902
v -0.01133277 0.00981700 0.02397817
v -0.02630572 0.00303163 0.00426940
v -0.02664356 0.00287956 -0.00004081
v -0.02584858 0.00279056 -0.00553189
v -0.02275554 0.00319526 -0.01123557
v -0.01966557 0.00334361 -0.01562591
v -0.01756763 0.00384893 -0.02002335
v -0.01403103 0.00455941 -0.02357660
v -0.00796352 0.00505096 -0.02675479
v -0.00277783 0.00568471 -0.02802661
v 0.00234028 0.00621589 -0.02837796
v 0.00648948 0.00696503 -0.02792338
v 0.01070959 0.00724175 -0.02648466
v 0.01399512 0.00748680 -0.02411176
v 0.01678682 0.00806636 -0.02079946
v 0.01923031 0.00881876 -0.01622728
v 0.02305884 0.01126832 -0.01185941
v 0.02507960 0.01350384 -0.00796787
v 0.02608358 0.01406773 -0.00306137
v 0.02566739 0.01397129 0.00192465
v 0.02438571 0.01386133 0.00607025
v 0.02194614 0.01245095 0.01030616
v 0.01825578 0.01065924 0.01494135
v 0.01468797 0.01062784 0.02026997
v 0.00952656 0.00943202 0.02541453
v 0.00419565 0.00827015 0.02766500
v -0.00183183 0.00709425 0.02806977
v -0.00639180 0.00612774 0.02733278
v -0.01047727 0.00520963 0.02537248
v -0.01502280 0.00403352 0.02135074
v -0.01840752 0.00341505 0.01713775
v -0.02229403 0.00328576 0.01363760
v -0.02511153 0.00331586 0.00908233
v -0.02428594 -0.00582601 0.00469840
v -0.02440699 -0.00576960 0.00003598
v -0.02301091 -0.00580930 -0.00529990
v -0.02044402 -0.00549777 -0.01017145
v -0.01707249 -0.00499520 -0.01450609
v -0.01467929 -0.00492768 -0.01884960
v -0.01158572 -0.00440336 -0.02265006
v -0.00561681 -0.00389810 -0.02600800
v -0.00067871 -0.00309308 -0.02739958
v 0.00417032 -0.00245958 -0.02768479
v 0.00844057 -0.00196059 -0.02709785
v 0.01278369 -0.00117261 -0.02545143
v 0.01597879 -0.00077202 -0.02306527
v 0.01855117 -0.00011730 -0.02004203
v 0.02082358 0.00069249 -0.01530596
v 0.02421065 0.00248328 -0.01176368
v 0.02753288 0.00461459 -0.00740169
v 0.02864492 0.00545390 -0.00303885
v 0.02823879 0.00566323 0.00178394
v 0.02693693 0.00529980 0.00613509
v 0.02465368 0.00413532 0.01060939
v 0.02047451 0.00271129 0.01494448
v 0.01646113 0.00128700 0.02133344
v 0.01176483 0.00064221 0.02562870
v 0.00681530 -0.00011234 0.02790203
v 0.00105403 -0.00153989 0.02837796
v -0.00380388 -0.00250280 0.02754016
v -0.00787093 -0.00326480 0.02586168
v -0.01249352 -0.00433636 0.02182845
v -0.01581386 -0.00480270 0.01718118
v -0.01965825 -0.00522686 0.01360005
v -0.02285394 -0.00563352 0.00947031
v -0.02169306 -0.01431095 -0.00013405
v -0.02006491 -0.01421895 -0.00502650
v -0.01713459 -0.01371193 -0.00924139
v -0.01326740 -0.01296620 -0.01327129
v -0.01129104 -0.01303619 -0.01772417
v -0.00842144 -0.01331755 -0.02146129
v -0.00462856 -0.01260772 -0.02425254
v 0.00113212 -0.01172774 -0.02560624
v 0.00560029 -0.01117651 -0.02589903
v 0.00946813 -0.01074563 -0.02538234
v 0.01334569 -0.01005964 -0.02392573
v 0.01613988 -0.00978037 -0.02184764
v 0.01824415 -0.00924162 -0.01904523
v 0.02042691 -0.00842294 -0.01416721
v 0.02423951 -0.00647355 -0.01090766
v 0.02814861 -0.00466147 -0.00746130
v 0.03000000 -0.00347179 -0.00261632
v 0.02975723 -0.00319970 0.00153052
v 0.02861822 -0.00351201 0.00596062
v 0.02619439 -0.00472024 0.01037909
v 0.02162489 -0.00626277 0.01439855
v 0.01752649 -0.00720433 0.02135068
v 0.01301752 -0.00796542 0.02529289
v 0.00804802 -0.00898840 0.02702139
v 0.00261093 -0.01042033 0.02716563
v -0.00239650 -0.01170815 0.02596843
v -0.00658200 -0.01229457 0.02431953
v -0.01019930 -0.01250417 0.02104000
v -0.01292983 -0.01245683 0.01589832
v -0.01689802 -0.01373374 0.01223290
v -0.02046145 -0.01427602 0.00879712
v -0.02176880 -0.01445539 0.00427443
v -0.01855287 -0.02049626 -0.00068965
v -0.01728013 -0.02048914 -0.00423754
v -0.01501099 -0.01991591 -0.00784387
v -0.01001537 -0.01841255 -0.01131164
v -0.00890326 -0.01836005 -0.01640854
v -0.00668386 -0.01801392 -0.02015910
v -0.00305775 -0.01782365 -0.02300696
v 0.00189771 -0.01638408 -0.02442289
v 0.00589875 -0.01570233 -0.02472495
v 0.00960531 -0.01503110 -0.02427441
v 0.01311500 -0.01463031 -0.02294682
v 0.01534739 -0.01416149 -0.02133279
v 0.01726054 -0.01408457 -0.01923165
v 0.01924748 -0.01338996 -0.01409166
v 0.02169064 -0.01239623 -0.00988167
v 0.02680124 -0.01166401 -0.00717786
v 0.02920771 -0.01061138 -0.00286679
v 0.02949089 -0.01018239 0.00142723
v 0.02870363 -0.01095327 0.00548867
v 0.02611035 -0.01220910 0.01005542
v 0.02047967 -0.01388451 0.01321827
v 0.01706635 -0.01406721 0.02082688
v 0.01291977 -0.01460185 0.02386964
v 0.00825455 -0.01519708 0.02528793
v 0.00227016 -0.01739583 0.02464751
v -0.00125716 -0.01822678 0.02342766
v -0.00504900 -0.01871905 0.02099142
v -0.00815882 -0.01900497 0.01785646
v -0.01054315 -0.01830925 0.01481187
v -0.01437840 -0.02015998 0.01013450
v -0.01723939 -0.02084872 0.00676565
v -0.01851663 -0.02081953 0.00310421
v -0.00699088 -0.02063083 0.01682264
v -0.00458684 -0.02037592 0.01996727
v -0.00102406 -0.01981555 0.02256759
v 0.00245037 -0.01918114 0.02343856
v 0.00816685 -0.01841927 0.02407996
v 0.01245212 -0.01752231 0.02292560
v 0.01624448 -0.01744670 0.02024836
v 0.01305683 -0.01653126 -0.02208473
v 0.00936339 -0.01692878 -0.02361075
v 0.00593858 -0.01768255 -0.02398979
v 0.00203118 -0.01845460 -0.02369478
v -0.00231515 -0.01967647 -0.02213213
v -0.00584234 -0.01997265 -0.01924634
v -0.00788504 -0.02015633 -0.01532437
v -0.00927074 -0.01985610 -0.01017289
v -0.01415744 -0.02141725 -0.00741599
v -0.01616959 -0.02206916 -0.00386575
v 0.01492571 -0.01633687 -0.02083406
v -0.01720119 -0.02226145 -0.00075932
v -0.00832265 -0.02002091 0.01348454
v 0.01835633 -0.01704657 0.01660266
f 28 29 62
f 29 30 63
f 30 31 64
f 31 32 65
f 32 1 66
f 1 2 67
f 2 3 68
f 3 4 69
f 4 5 70
f 5 6 71
f 6 7 72
f 7 8 73
f 8 9 74
f 9 10 75
f 10 11 76
f 11 12 77
f 12 13 78
f 13 14 79
f 14 15 80
f 15 16 81
f 16 17 82
f 17 18 83
f 18 19 84
f 19 20 85
f 20 21 86
f 21 22 87
f 22 23 88
f 23 24 89
f 24 25 90
f 25 26 91
f 26 27 92
f 27 28 61
f 57 94 93
f 93 94 95
f 95 96 176
f 96 150 151
f 98 100 99
f 100 101 168
f 101 103 102
f 103 104 152
f 42 105 132
f 132 105 106
f 137 106 108
f 107 108 110
f 110 112 111
f 112 113 125
f 48 152 104
f 34 125 113
f 47 104 182
f 104 103 115
f 103 101 116
f 101 100 122
f 100 98 121
f 150 96 147
f 96 95 117
f 95 94 118
f 94 57 119
f 33 113 145
f 113 112 146
f 112 110 148
f 110 108 122
f 108 106 123
f 106 105 177
f 105 42 124
f 35 36 127
f 36 37 128
f 37 38 129
f 38 39 130
f 39 40 131
f 40 41 132
f 126 133 111
f 130 131 136
f 131 132 137
f 127 134 133
f 128 139 134
f 128 129 138
f 107 135 136
f 109 111 133
f 134 135 107
f 129 130 135
f 139 138 135
f 119 58 140
f 58 59 142
f 59 60 144
f 60 120 145
f 140 141 117
f 142 143 141
f 144 145 143
f 145 146 141
f 117 141 146
f 147 146 148
f 148 110 121
f 149 121 98
f 150 98 97
f 48 49 153
f 49 50 154
f 50 51 155
f 51 52 156
f 52 53 157
f 53 54 158
f 54 55 159
f 55 56 93
f 152 153 160
f 153 154 161
f 154 155 162
f 155 156 163
f 156 157 164
f 157 158 165
f 158 159 166
f 159 93 167
f 102 160 169
f 160 161 170
f 161 162 171
f 162 163 172
f 163 164 173
f 164 165 174
f 165 166 175
f 166 167 176
f 170 171 172
f 176 151 174
f 174 151 97
f 99 170 173
f 99 168 169
f 124 43 178
f 43 44 179
f 44 45 180
f 45 46 181
f 46 114 182
f 177 178 179
f 180 181 182
f 123 179 180
f 116 122 123
f 183 184 89
f 185 186 184
f 187 225 186
f 188 214 225
f 62 214 188
f 188 187 185
f 183 90 61
f 90 91 92
f 190 184 186
f 89 184 190
f 87 88 190
f 191 192 86
f 192 191 190
f 85 86 192
f 193 194 192
f 200 194 193
f 84 192 194
f 82 83 194
f 196 78 79
f 201 197 196
f 79 80 198
f 80 81 199
f 81 82 200
f 195 198 202
f 198 199 203
f 199 200 204
f 202 203 204
f 206 205 73
f 211 230 205
f 74 75 207
f 75 76 208
f 76 77 209
f 77 78 196
f 210 213 208
f 196 197 210
f 197 201 213
f 206 207 212
f 207 208 213
f 62 63 215
f 63 64 216
f 64 65 217
f 65 66 218
f 66 67 219
f 67 68 220
f 68 69 221
f 69 70 222
f 70 71 223
f 71 72 224
f 72 73 205
f 214 215 216
f 222 223 224
f 218 219 220
f 216 217 226
f 217 218 227
f 228 227 218
f 228 221 222
f 229 222 205
f 186 225 239
f 189 186 231
f 193 189 232
f 204 193 233
f 201 204 235
f 230 211 236
f 213 201 234
f 211 212 237
f 212 213 238
f 225 226 240
f 226 227 241
f 227 228 242
f 228 229 243
f 229 230 244
f 244 236 246
f 236 237 247
f 237 238 248
f 238 234 249
f 234 235 250
f 235 233 251
f 233 232 252
f 232 231 253
f 231 239 254
f 239 240 255
f 240 241 256
f 241 242 257
f 242 243 258
f 243 244 245
f 255 256 260
f 256 257 261
f 257 258 262
f 258 245 263
f 245 246 264
f 246 247 265
f 247 248 266
f 248 249 267
f 249 250 268
f 250 251 269
f 251 252 270
f 252 253 271
f 253 254 272
f 254 255 259
f 271 272 274
f 272 259 275
f 259 260 276
f 260 261 277
f 261 262 278
f 262 263 279
f 263 264 280
f 264 265 281
f 265 266 282
f 266 267 283
f 267 268 284
f 268 269 285
f 269 270 286
f 270 271 273
f 274 275 288
f 275 276 289
f 276 277 290
f 277 278 291
f 278 279 292
f 279 280 293
f 280 281 294
f 281 282 295
f 282 283 296
f 283 284 297
f 284 285 298
f 285 286 299
f 286 273 300
f 273 274 287
f 293 294 302
f 294 295 303
f 295 296 304
f 296 297 305
f 297 298 306
f 298 299 307
f 299 300 308
f 300 287 309
f 287 288 310
f 288 289 311
f 289 290 312
f 290 291 313
f 291 292 314
f 292 293 301
f 301 302 316
f 302 303 317
f 303 304 318
f 304 305 319
f 305 306 320
f 306 307 321
f 307 308 322
f 308 309 323
f 309 310 324
f 310 311 325
f 311 312 326
f 312 313 327
f 313 314 328
f 314 301 315
f 329 330 322
f 332 328 315
f 315 316 333
f 316 317 334
f 317 318 335
f 318 319 336
f 319 320 337
f 320 321 338
f 321 322 330
f 332 331 340
f 331 333 341
f 333 334 342
f 334 335 343
f 335 336 344
f 336 337 345
f 337 338 346
f 338 330 347
f 330 329 348
f 332 339 348
f 340 341 350
f 341 342 351
f 342 343 352
f 343 344 353
f 344 345 354
f 345 346 355
f 346 347 356
f 347 348 357
f 348 339 358
f 339 340 349
f 359 360 367
f 360 361 366
f 361 362 365
f 362 363 364
f 349 350 360
f 350 351 361
f 351 352 362
f 352 353 363
f 353 354 364
f 354 355 365
f 355 356 366
f 356 357 367
f 357 358 368
f 358 349 359
f 323 324 369
f 324 325 370
f 325 326 371
f 326 327 372
f 327 328 332
f 329 369 373
f 369 370 374
f 370 371 375
f 371 372 376
f 372 332 377
f 378 377 332
f 378 373 374
f 377 374 375
f 10 9 380
f 9 8 381
f 8 7 382
f 7 6 383
f 6 5 384
f 5 4 385
f 4 3 386
f 3 2 387
f 2 1 388
f 1 32 389
f 32 31 390
f 31 30 391
f 30 29 392
f 29 28 393
f 28 27 394
f 27 26 395
f 26 25 396
f 25 24 397
f 24 23 398
f 23 22 399
f 22 21 400
f 21 20 401
f 20 19 402
f 19 18 403
f 18 17 404
f 17 16 405
f 16 15 406
f 15 14 407
f 14 13 408
f 13 12 409
f 12 11 410
f 11 10 379
f 383 384 412
f 384 385 413
f 385 386 414
f 386 387 415
f 387 388 416
f 388 389 417
f 389 390 418
f 390 391 419
f 391 392 420
f 392 393 421
f 393 394 422
f 394 395 423
f 395 396 424
f 396 397 425
f 397 398 426
f 398 399 427
f 399 400 428
f 400 401 429
f 401 402 430
f 402 403 431
f 403 404 432
f 404 405 433
f 405 406 434
f 406 407 435
f 407 408 436
f 408 409 437
f 409 410 438
f 410 379 439
f 379 380 440
f 380 381 441
f 381 382 442
f 382 383 411
f 411 412 444
f 412 413 445
f 413 414 446
f 414 415 447
f 415 416 448
f 416 417 449
f 417 418 450
f 418 419 451
f 419 420 452
f 420 421 453
f 421 422 454
f 422 423 455
f 423 424 456
f 424 425 457
f 425 426 458
f 426 427 459
f 427 428 460
f 428 429 461
f 429 430 462
f 430 431 463
f 431 432 464
f 432 433 465
f 433 434 466
f 434 435 467
f 435 436 468
f 436 437 469
f 437 438 470
f 438 439 471
f 439 440 472
f 440 441 473
f 441 442 474
f 442 411 443
f 444 445 476
f 445 446 477
f 446 447 478
f 447 448 479
f 448 449 480
f 449 450 481
f 450 451 482
f 451 452 483
f 452 453 484
f 453 454 485
f 454 455 486
f 455 456 487
f 456 457 488
f 457 458 489
f 458 459 490
f 459 460 491
f 460 461 492
f 461 462 493
f 462 463 494
f 463 464 495
f 464 465 496
f 465 466 497
f 466 467 498
f 467 468 499
f 468 469 500
f 469 470 501
f 470 471 502
f 471 472 503
f 472 473 504
f 473 474 505
f 474 443 506
f 443 444 475
f 475 476 508
f 476 477 509
f 477 478 510
f 478 479 511
f 479 480 512
f 480 481 513
f 481 482 514
f 482 483 515
f 483 484 516
f 484 485 517
f 485 486 518
f 486 487 519
f 487 488 520
f 488 489 521
f 489 490 522
f 490 491 523
f 491 492 524
f 492 493 525
f 493 494 526
f 494 495 527
f 495 496 528
f 496 497 529
f 497 498 530
f 498 499 531
f 499 500 532
f 500 501 533
f 501 502 534
f 502 503 535
f 503 504 536
f 504 505 537
f 505 506 538
f 506 475 507
f 520 521 57
f 519 520 56
f 521 522 119
f 58 119 522
f 523 524 59
f 525 60 59
f 526 120 60
f 120 526 527
f 529 544 545
f 530 543 544
f 531 542 543
f 532 541 542
f 533 540 541
f 534 539 540
f 124 535 536
f 536 537 44
f 538 45 44
f 508 509 554
f 47 114 554
f 510 511 552
f 511 512 551
f 512 513 550
f 513 514 549
f 514 515 548
f 515 516 547
f 516 517 546
f 34 35 126
f 544 36 35
f 543 37 36
f 542 38 37
f 541 39 38
f 540 40 39
f 539 41 40
f 114 46 555
f 509 510 553
f 48 47 553
f 49 48 552
f 50 49 551
f 51 50 550
f 52 51 549
f 53 52 548
f 54 53 547
f 517 518 556
f 556 55 54
f 556 518 519
f 508 555 557
f 557 555 46
f 538 507 557
f 558 42 41
f 558 535 124
f 534 535 558
f 545 35 34
f 528 545 559
f 559 34 33
f 62 61 28
f 63 62 29
f 64 63 30
f 65 64 31
f 66 65 32
f 67 66 1
f 68 67 2
f 69 68 3
f 70 69 4
f 71 70 5
f 72 71 6
f 73 72 7
f 74 73 8
f 75 74 9
f 76 75 10
f 77 76 11
f 78 77 12
f 79 78 13
f 80 79 14
f 81 80 15
f 82 81 16
f 83 82 17
f 84 83 18
f 85 84 19
f 86 85 20
f 87 86 21
f 88 87 22
f 89 88 23
f 90 89 24
f 91 90 25
f 92 91 26
f 61 92 27
f 93 56 57
f 95 167 93
f 176 167 95
f 151 176 96
f 99 97 98
f 168 99 100
f 102 168 101
f 152 102 103
f 132 41 42
f 106 137 132
f 108 107 137
f 110 109 107
f 111 109 110
f 125 111 112
f 104 47 48
f 113 33 34
f 182 114 47
f 115 182 104
f 116 115 103
f 122 116 101
f 121 122 100
f 147 149 150
f 117 147 96
f 118 117 95
f 119 118 94
f 145 120 33
f 146 145 113
f 148 146 112
f 122 121 110
f 123 122 108
f 177 123 106
f 124 177 105
f 127 126 35
f 128 127 36
f 129 128 37
f 130 129 38
f 131 130 39
f 132 131 40
f 111 125 126
f 136 135 130
f 137 136 131
f 133 126 127
f 134 127 128
f 138 139 128
f 136 137 107
f 133 134 109
f 107 109 134
f 135 138 129
f 135 134 139
f 140 118 119
f 142 140 58
f 144 142 59
f 145 144 60
f 117 118 140
f 141 140 142
f 143 142 144
f 141 143 145
f 146 147 117
f 148 149 147
f 121 149 148
f 98 150 149
f 97 151 150
f 153 152 48
f 154 153 49
f 155 154 50
f 156 155 51
f 157 156 52
f 158 157 53
f 159 158 54
f 93 159 55
f 160 102 152
f 161 160 153
f 162 161 154
f 163 162 155
f 164 163 156
f 165 164 157
f 166 165 158
f 167 166 159
f 169 168 102
f 170 169 160
f 171 170 161
f 172 171 162
f 173 172 163
f 174 173 164
f 175 174 165
f 176 175 166
f 172 173 170
f 174 175 176
f 97 173 174
f 173 97 99
f 169 170 99
f 178 177 124
f 179 178 43
f 180 179 44
f 181 180 45
f 182 181 46
f 179 123 177
f 182 115 180
f 180 115 123
f 123 115 116
f 89 90 183
f 184 183 185
f 186 185 187
f 225 187 188
f 188 61 62
f 185 183 188
f 61 188 183
f 92 61 90
f 186 189 190
f 190 88 89
f 190 191 87
f 86 87 191
f 190 189 192
f 192 84 85
f 192 189 193
f 193 204 200
f 194 83 84
f 194 200 82
f 79 195 196
f 196 195 201
f 198 195 79
f 199 198 80
f 200 199 81
f 202 201 195
f 203 202 198
f 204 203 199
f 204 201 202
f 73 74 206
f 205 206 211
f 207 206 74
f 208 207 75
f 209 208 76
f 196 209 77
f 208 209 210
f 210 209 196
f 213 210 197
f 212 211 206
f 213 212 207
f 215 214 62
f 216 215 63
f 217 216 64
f 218 217 65
f 219 218 66
f 220 219 67
f 221 220 68
f 222 221 69
f 223 222 70
f 224 223 71
f 205 224 72
f 216 225 214
f 224 205 222
f 220 221 218
f 226 225 216
f 227 226 217
f 218 221 228
f 222 229 228
f 205 230 229
f 239 231 186
f 231 232 189
f 232 233 193
f 233 235 204
f 235 234 201
f 236 244 230
f 234 238 213
f 237 236 211
f 238 237 212
f 240 239 225
f 241 240 226
f 242 241 227
f 243 242 228
f 244 243 229
f 246 245 244
f 247 246 236
f 248 247 237
f 249 248 238
f 250 249 234
f 251 250 235
f 252 251 233
f 253 252 232
f 254 253 231
f 255 254 239
f 256 255 240
f 257 256 241
f 258 257 242
f 245 258 243
f 260 259 255
f 261 260 256
f 262 261 257
f 263 262 258
f 264 263 245
f 265 264 246
f 266 265 247
f 267 266 248
f 268 267 249
f 269 268 250
f 270 269 251
f 271 270 252
f 272 271 253
f 259 272 254
f 274 273 271
f 275 274 272
f 276 275 259
f 277 276 260
f 278 277 261
f 279 278 262
f 280 279 263
f 281 280 264
f 282 281 265
f 283 282 266
f 284 283 267
f 285 284 268
f 286 285 269
f 273 286 270
f 288 287 274
f 289 288 275
f 290 289 276
f 291 290 277
f 292 291 278
f 293 292 279
f 294 293 280
f 295 294 281
f 296 295 282
f 297 296 283
f 298 297 284
f 299 298 285
f 300 299 286
f 287 300 273
f 302 301 293
f 303 302 294
f 304 303 295
f 305 304 296
f 306 305 297
f 307 306 298
f 308 307 299
f 309 308 300
f 310 309 287
f 311 310 288
f 312 311 289
f 313 312 290
f 314 313 291
f 301 314 292
f 316 315 301
f 317 316 302
f 318 317 303
f 319 318 304
f 320 319 305
f 321 320 306
f 322 321 307
f 323 322 308
f 324 323 309
f 325 324 310
f 326 325 311
f 327 326 312
f 328 327 313
f 315 328 314
f 322 323 329
f 315 331 332
f 333 331 315
f 334 333 316
f 335 334 317
f 336 335 318
f 337 336 319
f 338 337 320
f 330 338 321
f 340 339 332
f 341 340 331
f 342 341 333
f 343 342 334
f 344 343 335
f 345 344 336
f 346 345 337
f 347 346 338
f 348 347 330
f 348 329 332
f 350 349 340
f 351 350 341
f 352 351 342
f 353 352 343
f 354 353 344
f 355 354 345
f 356 355 346
f 357 356 347
f 358 357 348
f 349 358 339
f 367 368 359
f 366 367 360
f 365 366 361
f 364 365 362
f 360 359 349
f 361 360 350
f 362 361 351
f 363 362 352
f 364 363 353
f 365 364 354
f 366 365 355
f 367 366 356
f 368 367 357
f 359 368 358
f 369 329 323
f 370 369 324
f 371 370 325
f 372 371 326
f 332 372 327
f 373 378 329
f 374 373 369
f 375 374 370
f 376 375 371
f 377 376 372
f 332 329 378
f 374 377 378
f 375 376 377
f 380 379 10
f 381 380 9
f 382 381 8
f 383 382 7
f 384 383 6
f 385 384 5
f 386 385 4
f 387 386 3
f 388 387 2
f 389 388 1
f 390 389 32
f 391 390 31
f 392 391 30
f 393 392 29
f 394 393 28
f 395 394 27
f 396 395 26
f 397 396 25
f 398 397 24
f 399 398 23
f 400 399 22
f 401 400 21
f 402 401 20
f 403 402 19
f 404 403 18
f 405 404 17
f 406 405 16
f 407 406 15
f 408 407 14
f 409 408 13
f 410 409 12
f 379 410 11
f 412 411 383
f 413 412 384
f 414 413 385
f 415 414 386
f 416 415 387
f 417 416 388
f 418 417 389
f 419 418 390
f 420 419 391
f 421 420 392
f 422 421 393
f 423 422 394
f 424 423 395
f 425 424 396
f 426 425 397
f 427 426 398
f 428 427 399
f 429 428 400
f 430 429 401
f 431 430 402
f 432 431 403
f 433 432 404
f 434 433 405
f 435 434 406
f 436 435 407
f 437 436 408
f 438 437 409
f 439 438 410
f 440 439 379
f 441 440 380
f 442 441 381
f 411 442 382
f 444 443 411
f 445 444 412
f 446 445 413
f 447 446 414
f 448 447 415
f 449 448 416
f 450 449 417
f 451 450 418
f 452 451 419
f 453 452 420
f 454 453 421
f 455 454 422
f 456 455 423
f 457 456 424
f 458 457 425
f 459 458 426
f 460 459 427
f 461 460 428
f 462 461 429
f 463 462 430
f 464 463 431
f 465 464 432
f 466 465 433
f 467 466 434
f 468 467 435
f 469 468 436
f 470 469 437
f 471 470 438
f 472 471 439
f 473 472 440
f 474 473 441
f 443 474 442
f 476 475 444
f 477 476 445
f 478 477 446
f 479 478 447
f 480 479 448
f 481 480 449
f 482 481 450
f 483 482 451
f 484 483 452
f 485 484 453
f 486 485 454
f 487 486 455
f 488 487 456
f 489 488 457
f 490 489 458
f 491 490 459
f 492 491 460
f 493 492 461
f 494 493 462
f 495 494 463
f 496 495 464
f 497 496 465
f 498 497 466
f 499 498 467
f 500 499 468
f 501 500 469
f 502 501 470
f 503 502 471
f 504 503 472
f 505 504 473
f 506 505 474
f 475 506 443
f 508 507 475
f 509 508 476
f 510 509 477
f 511 510 478
f 512 511 479
f 513 512 480
f 514 513 481
f 515 514 482
f 516 515 483
f 517 516 484
f 518 517 485
f 519 518 486
f 520 519 487
f 521 520 488
f 522 521 489
f 523 522 490
f 524 523 491
f 525 524 492
f 526 525 493
f 527 526 494
f 528 527 495
f 529 528 496
f 530 529 497
f 531 530 498
f 532 531 499
f 533 532 500
f 534 533 501
f 535 534 502
f 536 535 503
f 537 536 504
f 538 537 505
f 507 538 506
f 57 56 520
f 56 55 519
f 119 57 521
f 522 523 58
f 59 58 523
f 59 524 525
f 60 525 526
f 527 33 120
f 545 528 529
f 544 529 530
f 543 530 531
f 542 531 532
f 541 532 533
f 540 533 534
f 536 43 124
f 44 43 536
f 44 537 538
f 554 555 508
f 554 553 47
f 552 553 510
f 551 552 511
f 550 551 512
f 549 550 513
f 548 549 514
f 547 548 515
f 546 547 516
f 126 125 34
f 35 545 544
f 36 544 543
f 37 543 542
f 38 542 541
f 39 541 540
f 40 540 539
f 555 554 114
f 553 554 509
f 553 552 48
f 552 551 49
f 551 550 50
f 550 549 51
f 549 548 52
f 548 547 53
f 547 546 54
f 556 546 517
f 54 546 556
f 519 55 556
f 557 507 508
f 46 45 557
f 557 45 538
f 41 539 558
f 124 42 558
f 558 539 534
f 34 559 545
f 559 527 528
f 33 527 559

