# https://github.com/mikedh/trimesh
v -0.05729372 -0.01398203 0.00616347
v -0.05284393 -0.01651157 0.00427470
v -0.05475544 -0.01233726 0.00205190
v -0.05716974 -0.01184808 0.01080604
v -0.05365889 -0.01754890 0.01001350
v -0.05311043 -0.01503132 0.01531662
v -0.05767997 -0.00557528 0.00453503
v -0.05376951 -0.00624506 -0.00026672
v -0.05490061 -0.00603625 0.00935574
v -0.05234599 -0.01014490 0.01277388
v -0.05712693 0.00068773 -0.00185472
v -0.05232882 -0.00116574 -0.00381539
v -0.05431990 0.00244569 -0.00569401
v -0.05735617 0.00282191 0.00285410
v -0.05387350 0.00035686 0.00729475
v -0.05299701 0.00622333 -0.00246853
v -0.05290447 0.00511670 0.00475723
v -0.05729330 0.01727677 -0.01746802
v -0.05288058 0.01476073 -0.01922638
v -0.05468752 0.01892074 -0.02152767
v -0.05721232 0.01938821 -0.01282055
v -0.05364529 0.01378117 -0.01358649
v -0.05296005 0.01623986 -0.00841277
v -0.05768273 0.02569248 -0.01912119
v -0.05379132 0.02499300 -0.02387333
v -0.05484488 0.02520790 -0.01422086
v -0.05234448 0.02124573 -0.01074788
v -0.05723176 0.03205116 -0.02551414
v -0.05232541 0.03012180 -0.02755359
v -0.05316021 0.03588186 -0.02967338
v -0.05736849 0.03413402 -0.02081422
v -0.05375012 0.03172396 -0.01634986
v -0.05374853 0.03787645 -0.02480374
v -0.05285014 0.03657676 -0.01894370
v -0.04924255 -0.02710204 0.01999366
v -0.04448694 -0.03295819 0.02130476
v -0.04693922 -0.02853981 0.01616137
v -0.04503960 -0.03060015 0.02454495
v -0.05026134 -0.02189549 0.01495881
v -0.04423567 -0.02527862 0.01214933
v -0.04723343 -0.02124063 0.00941950
v -0.04964016 -0.02197576 0.01993461
v -0.04598120 -0.02358506 0.02321787
v -0.04545746 -0.01803490 0.00498530
v -0.04823010 -0.01306362 0.00117222
v -0.04604868 -0.01766440 0.01968845
v -0.04777165 -0.01304951 0.01611290
v -0.04623262 -0.00676237 -0.00060686
v -0.04824228 -0.00469796 0.00966651
v -0.04434998 -0.00974485 0.01257788
v -0.04444229 -0.00175830 -0.00346092
v -0.04879217 0.00304578 -0.00726603
v -0.04627577 0.00161216 0.00784674
v -0.05033211 0.00990729 -0.00884148
v -0.04400244 0.00638513 -0.01155637
v -0.04596038 0.01109209 -0.01438442
v -0.04986611 0.01022294 -0.00396977
v -0.04707163 0.00978691 -0.00038861
v -0.04543255 0.00650810 0.00407958
v -0.04674251 0.01439753 -0.01787674
v -0.04753847 0.01902278 -0.02201058
v -0.04573186 0.01367982 -0.00413463
v -0.04647690 0.01917601 -0.00741895
v -0.04745254 0.02547722 -0.02444751
v -0.04758604 0.02744603 -0.01358589
v -0.04570600 0.02292687 -0.01038567
v -0.04438118 0.02953704 -0.02727109
v -0.04785103 0.03378089 -0.03039674
v -0.04740331 0.03403434 -0.01596434
v -0.05017960 0.04114822 -0.02804592
v -0.04539595 0.04039241 -0.03022695
v -0.04711532 0.04178771 -0.02431138
v -0.04540948 0.03815150 -0.01970346
v -0.04469899 0.04397266 -0.02666064
v -0.04210516 -0.03605743 0.02690095
v -0.03787279 -0.04101427 0.02753579
v -0.03886895 -0.03761039 0.02496059
v -0.03657882 -0.03754615 0.03117769
v -0.03809070 -0.03216730 0.02030381
v -0.04043553 -0.02984849 0.01604665
v -0.04187216 -0.03305924 0.02396634
v -0.03854930 -0.03362949 0.02768812
v -0.03864769 -0.02817108 0.02423770
v -0.03638358 -0.02565418 0.01212309
v -0.04012942 -0.02178276 0.00814142
v -0.03971174 -0.02112160 0.02359122
v -0.03612990 -0.01785837 0.00434879
v -0.03986806 -0.01303061 0.00137831
v -0.03912799 -0.01274571 0.01647201
v -0.03632133 -0.01721302 0.02052810
v -0.03804070 -0.00672462 -0.00026061
v -0.03929201 -0.00411096 0.00977618
v -0.03742366 -0.00868302 0.01294413
v -0.03628052 -0.00174977 -0.00317982
v -0.04030373 0.00205313 -0.00748906
v -0.03912424 0.00230688 0.00758656
v -0.03623023 0.00594763 -0.01148026
v -0.03926484 0.00989133 -0.01434393
v -0.04013116 0.01021072 0.00087494
v -0.03617571 0.00625041 0.00480059
v -0.04143576 0.01883883 -0.01960611
v -0.03857854 0.01546256 -0.01640048
v -0.03932392 0.01799879 -0.00597548
v -0.03615296 0.01401191 -0.00323651
v -0.03574328 0.02156577 -0.01894895
v -0.04012188 0.02447885 -0.02299552
v -0.04149659 0.02694039 -0.01155481
v -0.03860208 0.02345530 -0.00830986
v -0.03626304 0.02958100 -0.02702227
v -0.04037081 0.03463194 -0.03032898
v -0.04011672 0.03271429 -0.01490305
v -0.03577392 0.02940503 -0.01101340
v -0.03700968 0.04183059 -0.03120611
v -0.04002227 0.04223702 -0.02290719
v -0.03607466 0.03786681 -0.01887975
v -0.03826825 0.04423210 -0.02698621
v -0.03423846 -0.04459809 0.03060534
v -0.02889655 -0.04793325 0.02779171
v -0.03204926 -0.04382426 0.02531758
v -0.03328879 -0.04516750 0.03579409
v -0.02988180 -0.04903813 0.03386244
v -0.02947993 -0.04708310 0.03877254
v -0.03076691 -0.03742530 0.02450573
v -0.03033698 -0.04129095 0.03553216
v -0.03084182 -0.03610910 0.03319735
v -0.02988267 -0.03257537 0.02137565
v -0.03226604 -0.02963334 0.01621152
v -0.03322495 -0.02940865 0.02690039
v -0.03101873 -0.03129571 0.03127769
v -0.02828862 -0.02545706 0.01224138
v -0.03106570 -0.02080584 0.00829538
v -0.03246513 -0.02225458 0.02454056
v -0.02813512 -0.02536008 0.02849932
v -0.02950546 -0.01652840 0.00500437
v -0.03131511 -0.01211943 0.00180110
v -0.03129573 -0.01344187 0.01746508
v -0.02827326 -0.01734736 0.02025672
v -0.03126582 -0.00573223 -0.00036924
v -0.03349130 -0.00458617 0.01192164
v -0.03064417 -0.00801703 0.01515706
v -0.02836267 -0.00169305 -0.00319450
v -0.03220887 0.00210177 -0.00727219
v -0.03215194 0.00107795 0.00863382
v -0.02793050 -0.00201550 0.01253677
v -0.02835011 0.00612881 -0.01126231
v -0.03212007 0.01100818 -0.01431083
v -0.03201964 0.01004948 0.00067701
v -0.02834965 0.00617038 0.00462264
v -0.03032428 0.01726527 -0.01593101
v -0.03197411 0.01887091 -0.00630631
v -0.02817143 0.01388784 -0.00345896
v -0.02856636 0.02221548 -0.01878443
v -0.03219613 0.02586927 -0.02282239
v -0.03022897 0.02501410 -0.00807855
v -0.02841709 0.02957571 -0.02693110
v -0.03250071 0.03469783 -0.03114445
v -0.03215032 0.03381300 -0.01490799
v -0.02851701 0.03000812 -0.01096183
v -0.03372162 0.04098800 -0.03473535
v -0.02840230 0.03776214 -0.03531342
v -0.03112594 0.04333893 -0.03773710
v -0.03205367 0.04190723 -0.02283304
v -0.02823880 0.03765626 -0.01893102
v -0.03330411 0.04757285 -0.03440895
v -0.02871672 0.04910480 -0.03800073
v -0.03012651 0.04600086 -0.02797769
v -0.03018117 0.05026461 -0.03166920
v -0.02925812 0.05201227 -0.03454519
v -0.02654449 -0.05234651 0.03712861
v -0.02105120 -0.05539445 0.03587066
v -0.02344428 -0.05308189 0.03335052
v -0.02245253 -0.05250393 0.03933782
v -0.02159633 -0.04958780 0.02863707
v -0.02412243 -0.04461499 0.02469022
v -0.02308584 -0.04609464 0.03975501
v -0.02213728 -0.03827297 0.02309372
v -0.02458730 -0.03584869 0.03331953
v -0.02084411 -0.04089991 0.03638287
v -0.02049980 -0.03318092 0.02030402
v -0.02430805 -0.02938204 0.01625882
v -0.02247709 -0.02984263 0.03137736
v -0.02039977 -0.02536573 0.01223169
v -0.02348093 -0.02138629 0.00949011
v -0.02444354 -0.02117147 0.02431960
v -0.02067731 -0.02495446 0.02836055
v -0.02565048 -0.01242537 0.00407712
v -0.02280783 -0.01585917 0.00728124
v -0.02413299 -0.01252983 0.01717002
v -0.02037227 -0.01747753 0.02008292
v -0.02008207 -0.00987007 0.00468172
v -0.02436228 -0.00677731 0.00073651
v -0.02236157 -0.00640371 0.01548595
v -0.02058724 -0.00156730 -0.00321989
v -0.02434903 0.00226473 -0.00721222
v -0.02437304 0.00238938 0.00863001
v -0.02066204 -0.00141425 0.01261872
v -0.02067222 0.00617835 -0.01115271
v -0.02433646 0.01118986 -0.01413741
v -0.02421313 0.00994604 0.00050031
v -0.02057336 0.00617937 0.00454903
v -0.02263157 0.01727015 -0.01585872
v -0.02410455 0.01886193 -0.00637958
v -0.02032697 0.01378104 -0.00349552
v -0.02082474 0.02210958 -0.01878009
v -0.02446966 0.02589502 -0.02282520
v -0.02240869 0.02497372 -0.00808264
v -0.02054726 0.02958635 -0.02687310
v -0.02429083 0.03329956 -0.03099774
v -0.02447052 0.03377549 -0.01497811
v -0.02070883 0.02987869 -0.01098774
v -0.02068473 0.03720070 -0.03521131
v -0.02481602 0.04254261 -0.03854688
v -0.02413208 0.04159404 -0.02284985
v -0.02050611 0.03751805 -0.01899380
v -0.02094162 0.04906013 -0.03851214
v -0.02451545 0.05024393 -0.03087953
v -0.02040655 0.04571892 -0.02676858
v -0.02276145 0.05237900 -0.03518196
v -0.01450414 -0.05582583 0.03634772
v -0.01633423 -0.05375208 0.03203234
v -0.01476213 -0.05251354 0.03975791
v -0.01229903 -0.04939143 0.02787997
v -0.01612807 -0.04432826 0.02487061
v -0.01489990 -0.04611575 0.03963183
v -0.01439458 -0.03802819 0.02322939
v -0.01643086 -0.03600901 0.03309034
v -0.01279665 -0.04103052 0.03622457
v -0.01279109 -0.03303137 0.02041914
v -0.01652368 -0.02927035 0.01627699
v -0.01453689 -0.03003522 0.03120268
v -0.01251082 -0.02540879 0.01222800
v -0.01629308 -0.02041035 0.00932258
v -0.01660764 -0.02134070 0.02419391
v -0.01283924 -0.02514440 0.02829693
v -0.01450833 -0.01426113 0.00763458
v -0.01624137 -0.01257383 0.01718997
v -0.01247890 -0.01765352 0.02008258
v -0.01277821 -0.00926242 0.00473947
v -0.01650868 -0.00540224 0.00075025
v -0.01454753 -0.00646233 0.01549795
v -0.01269261 -0.00140034 -0.00315821
v -0.01657276 0.00238741 -0.00708956
v -0.01662373 0.00235987 0.00860186
v -0.01284552 -0.00155597 0.01259240
v -0.01262680 0.00515299 -0.01207802
v -0.01478854 0.00955557 -0.01503561
v -0.01636575 0.00990939 0.00049843
v -0.01270987 0.00610383 0.00454942
v -0.01475045 0.01724944 -0.01577338
v -0.01624149 0.01874445 -0.00638538
v -0.01246803 0.01377365 -0.00348817
v -0.01293625 0.02208092 -0.01876289
v -0.01660199 0.02586231 -0.02283781
v -0.01453620 0.02489249 -0.00808995
v -0.01268553 0.02967167 -0.02687362
v -0.01637204 0.03340409 -0.03091564
v -0.01660865 0.03371424 -0.01498728
v -0.01282980 0.02985420 -0.01098717
v -0.01270222 0.03732794 -0.03513337
v -0.01669592 0.04248932 -0.03844590
v -0.01626505 0.04143644 -0.02288913
v -0.01269923 0.03751767 -0.01902639
v -0.01283465 0.04904149 -0.03841234
v -0.01632802 0.05004065 -0.03087528
v -0.01241695 0.04560099 -0.02683445
v -0.01460237 0.05231196 -0.03518072
v -0.00632674 -0.05583383 0.03637062
v -0.00820579 -0.05367377 0.03198791
v -0.00659385 -0.05262116 0.03962603
v -0.00433573 -0.04929247 0.02784747
v -0.00831221 -0.04410267 0.02499848
v -0.00694484 -0.04628338 0.03952773
v -0.00668479 -0.03794657 0.02335258
v -0.00858733 -0.03614748 0.03300072
v -0.00492623 -0.04114462 0.03621148
v -0.00498599 -0.03300831 0.02045915
v -0.00873258 -0.02926060 0.01634023
v -0.00667680 -0.03011408 0.03119069
v -0.00462066 -0.02550908 0.01223136
v -0.00838587 -0.02043129 0.00934053
v -0.00873318 -0.02141378 0.02419538
v -0.00497161 -0.02516141 0.02830212
v -0.00669049 -0.01432802 0.00763654
v -0.00837068 -0.01269903 0.01718753
v -0.00461688 -0.01766320 0.02008773
v -0.00487449 -0.00934419 0.00471822
v -0.00865658 -0.00529689 0.00075737
v -0.00667696 -0.00654332 0.01548644
v -0.01003992 0.00360935 -0.01794238
v -0.00565218 -0.00092761 -0.02101810
v -0.00511206 0.00290633 -0.02122065
v -0.00689898 0.00248657 -0.01635083
v -0.00542993 -0.00189967 -0.00259500
v -0.00733971 0.00136241 -0.00734679
v -0.00874446 0.00228779 0.00859817
v -0.00497017 -0.00158114 0.01258982
v -0.00780980 0.00527287 -0.01824884
v -0.00975017 0.00667388 -0.01452753
v -0.00809529 0.01129528 -0.01425635
v -0.00649128 0.00636486 -0.01172076
v -0.00850381 0.00990959 0.00050362
v -0.00484564 0.00609923 0.00455145
v -0.00674819 0.01732192 -0.01562836
v -0.00838021 0.01873928 -0.00638404
v -0.00460944 0.01378042 -0.00348722
v -0.00509446 0.02209374 -0.01873361
v -0.00874191 0.02586415 -0.02284229
v -0.00667458 0.02489464 -0.00808938
v -0.00482676 0.02967626 -0.02687825
v -0.00849807 0.03348427 -0.03091511
v -0.00874247 0.03371990 -0.01498422
v -0.00496929 0.02985830 -0.01098594
v -0.00482975 0.03735020 -0.03513541
v -0.00872820 0.04253015 -0.03839162
v -0.00849486 0.04143764 -0.02295250
v -0.00484631 0.03752666 -0.01902694
v -0.00497360 0.04889773 -0.03838288
v -0.00839970 0.04998208 -0.03091296
v -0.00466418 0.04556351 -0.02687407
v -0.00671155 0.05221291 -0.03513577
v 0.00174212 -0.05594101 0.03634626
v -0.00015209 -0.05367898 0.03192802
v 0.00148602 -0.05267047 0.03969579
v 0.00356036 -0.04934963 0.02782018
v -0.00051784 -0.04409719 0.02496379
v 0.00108631 -0.04628298 0.03960424
v 0.00116191 -0.03795229 0.02331484
v -0.00071238 -0.03618049 0.03301096
v 0.00300107 -0.04119783 0.03626786
v 0.00287633 -0.03300761 0.02045196
v -0.00087398 -0.02926579 0.01634345
v 0.00118588 -0.03010996 0.03119434
v 0.00324125 -0.02551937 0.01222886
v -0.00051778 -0.02055864 0.00932894
v -0.00087286 -0.02140543 0.02419887
v 0.00288823 -0.02515700 0.02830178
v -0.00215016 -0.01307032 -0.01803770
v 0.00140595 -0.01665659 -0.01764563
v 0.00241009 -0.01252874 -0.02291172
v -0.00169656 -0.01284448 -0.01083956
v 0.00006309 -0.01659961 -0.01267274
v 0.00272546 -0.01241444 -0.00849974
v 0.00118548 -0.01440917 0.00762447
v -0.00051064 -0.01270136 0.01718662
v 0.00324044 -0.01765541 0.02008809
v -0.00162384 -0.00657296 -0.02543065
v 0.00229381 -0.00835380 -0.02752000
v 0.00105457 -0.00586537 -0.02922394
v -0.00413198 -0.00477840 -0.01796342
v -0.00269001 -0.00565720 -0.01098478
v 0.00193086 -0.00678568 -0.00671030
v 0.00310100 -0.00929464 0.00475118
v -0.00068576 -0.00521860 0.00078198
v 0.00118426 -0.00654062 0.01548630
v 0.00110303 -0.00320596 -0.02800930
v 0.00205908 0.00037696 -0.02386149
v -0.00306422 0.00224136 -0.01300180
v 0.00081212 -0.00264987 -0.00384929
v -0.00088110 0.00228924 0.00859920
v 0.00288936 -0.00157850 0.01258939
v -0.00052962 0.00516079 -0.01848427
v 0.00046356 0.01006479 -0.01486276
v -0.00064512 0.00991287 0.00050380
v 0.00301400 0.00610070 0.00455147
v 0.00118745 0.01723750 -0.01567534
v -0.00052213 0.01874303 -0.00638381
v 0.00324930 0.01378086 -0.00348729
v 0.00271413 0.02205805 -0.01872925
v -0.00089299 0.02586297 -0.02284144
v 0.00118328 0.02489618 -0.00808950
v 0.00302910 0.02967761 -0.02688016
v -0.00063990 0.03348331 -0.03092042
v -0.00087985 0.03372173 -0.01498193
v 0.00288958 0.02985685 -0.01098699
v 0.00302659 0.03730470 -0.03513222
v -0.00087095 0.04240869 -0.03838247
v -0.00068132 0.04142270 -0.02295701
v 0.00301361 0.03752563 -0.01902551
v 0.00276346 0.04879887 -0.03830631
v -0.00060945 0.04989992 -0.03091169
v 0.00312337 0.04553732 -0.02690921
v 0.00104944 0.05210244 -0.03507880
v 0.00808434 -0.05549907 0.03700268
v 0.00738353 -0.05377523 0.03247467
v 0.00972684 -0.05108424 0.03945336
v 0.01158366 -0.04948964 0.02914501
v 0.00735747 -0.04415562 0.02490594
v 0.00793841 -0.04529458 0.03947359
v 0.00902116 -0.03797966 0.02324651
v 0.00719687 -0.03620899 0.03303648
v 0.01098316 -0.04123128 0.03635578
v 0.01073518 -0.03300353 0.02044742
v 0.00698599 -0.02926119 0.01634376
v 0.00903767 -0.03010478 0.03119057
v 0.01109792 -0.02551438 0.01222666
v 0.00733833 -0.02056653 0.00932521
v 0.00698694 -0.02140493 0.02419849
v 0.01074327 -0.02515264 0.02829702
v 0.00458578 -0.01475966 -0.01860369
v 0.00461886 -0.01472501 -0.01325008
v 0.00905069 -0.01440571 0.00762298
v 0.00734661 -0.01269765 0.01718563
v 0.01109858 -0.01765552 0.02008579
v 0.00352555 -0.00460897 -0.02757452
v 0.00717777 -0.00592941 -0.02389380
v 0.00869056 -0.01026305 -0.01769861
v 0.00820051 -0.01010434 -0.01070481
v 0.00918862 -0.00529861 -0.00710404
v 0.01096741 -0.00928960 0.00478028
v 0.00722773 -0.00519035 0.00085915
v 0.00904192 -0.00654185 0.01548422
v 0.00983032 0.00070360 -0.02198438
v 0.00910416 -0.00323556 -0.00292845
v 0.00697593 0.00228791 0.00859762
v 0.01074450 -0.00157721 0.01259018
v 0.00741724 0.00601034 -0.01934268
v 0.00976711 0.01033549 -0.01540637
v 0.00721612 0.00991087 0.00050349
v 0.01086877 0.00609866 0.00454914
v 0.00897566 0.01714440 -0.01569325
v 0.00733594 0.01874291 -0.00638483
v 0.01111013 0.01377851 -0.00348968
v 0.01064275 0.02206447 -0.01873535
v 0.00693693 0.02589173 -0.02283587
v 0.00904191 0.02489315 -0.00809177
v 0.01080966 0.02972855 -0.02686831
v 0.00721049 0.03348394 -0.03092024
v 0.00697889 0.03371995 -0.01498552
v 0.01074576 0.02985759 -0.01099106
v 0.01089976 0.03726449 -0.03509324
v 0.00697644 0.04233856 -0.03832381
v 0.00712538 0.04140186 -0.02299957
v 0.01086148 0.03752862 -0.01903792
v 0.01061688 0.05028257 -0.03838889
v 0.00824109 0.05062845 -0.03088631
v 0.01096424 0.04543625 -0.02696916
v 0.00832221 0.05359453 -0.03503391
v 0.01194610 -0.05312767 0.03515198
v 0.01917673 -0.04856117 0.02904764
v 0.01518771 -0.04426108 0.02489036
v 0.01594832 -0.05001925 0.03545547
v 0.01623133 -0.04618741 0.03909013
v 0.01687670 -0.03803617 0.02322436
v 0.01502718 -0.03618299 0.03308500
v 0.01897438 -0.04120614 0.03650867
v 0.01859356 -0.03300199 0.02044851
v 0.01484248 -0.02925536 0.01634209
v 0.01682544 -0.03004950 0.03119820
v 0.01896016 -0.02551458 0.01223035
v 0.01519756 -0.02056567 0.00932421
v 0.01484701 -0.02140527 0.02419407
v 0.01856458 -0.02512441 0.02829495
v 0.01692382 -0.01439934 0.00764443
v 0.01520661 -0.01270090 0.01718584
v 0.01896369 -0.01766100 0.02008901
v 0.01234259 -0.00338795 -0.01846879
v 0.01181572 -0.00580103 -0.01266260
v 0.01875672 -0.00929753 0.00483077
v 0.01500859 -0.00523746 0.00092388
v 0.01691761 -0.00653595 0.01550586
v 0.01278457 0.00333552 -0.01743578
v 0.01419768 -0.00004937 -0.01110625
v 0.01731970 -0.00142791 -0.00399034
v 0.01771234 0.00230871 -0.00769228
v 0.01480404 0.00231360 0.00860113
v 0.01861514 -0.00149941 0.01263264
v 0.01791600 0.00579600 -0.01203862
v 0.01589504 0.01176961 -0.01425734
v 0.01507021 0.00990939 0.00049762
v 0.01866345 0.00614913 0.00455078
v 0.01688991 0.01712031 -0.01567240
v 0.01519849 0.01873746 -0.00638507
v 0.01896623 0.01377432 -0.00349120
v 0.01865808 0.02209619 -0.01884132
v 0.01480815 0.02598442 -0.02280501
v 0.01692000 0.02489600 -0.00807538
v 0.01852511 0.02974103 -0.02684124
v 0.01497562 0.03347518 -0.03090458
v 0.01480101 0.03374773 -0.01498274
v 0.01860501 0.02993513 -0.01094768
v 0.01884779 0.03719351 -0.03507211
v 0.01493117 0.04225811 -0.03831012
v 0.01499382 0.04138623 -0.02303985
v 0.01867181 0.03756837 -0.01896075
v 0.01780747 0.04853070 -0.03939280
v 0.01598754 0.04958506 -0.02969169
v 0.01897810 0.04533399 -0.02687849
v 0.01317756 0.05727972 -0.03544614
v 0.01788556 0.05675403 -0.03791000
v 0.01650630 0.05569535 -0.03196807
v 0.01844877 0.06031692 -0.03423758
v 0.02713184 -0.04880488 0.02902317
v 0.02303936 -0.04445631 0.02491176
v 0.02316488 -0.04864316 0.03560102
v 0.02494962 -0.04532208 0.03889818
v 0.02476596 -0.03814520 0.02324844
v 0.02285620 -0.03615857 0.03320717
v 0.02683237 -0.04121274 0.03666584
v 0.02649154 -0.03307148 0.02045190
v 0.02270774 -0.02925368 0.01634780
v 0.02463540 -0.03005371 0.03128027
v 0.02682930 -0.02552135 0.01230664
v 0.02309045 -0.02056316 0.00938368
v 0.02270372 -0.02140727 0.02418929
v 0.02636228 -0.02509999 0.02832472
v 0.02482859 -0.01432430 0.00771190
v 0.02309951 -0.01270476 0.01724420
v 0.02683218 -0.01767240 0.02014966
v 0.02660373 -0.00931653 0.00476183
v 0.02282246 -0.00530155 0.00091553
v 0.02483582 -0.00646456 0.01556915
v 0.02652113 -0.00145565 -0.00304701
v 0.02291119 0.00234407 -0.00701265
v 0.02268734 0.00241490 0.00863810
v 0.02655508 -0.00146274 0.01258498
v 0.02664956 0.00598776 -0.01103531
v 0.02300313 0.01092807 -0.01395085
v 0.02285588 0.00996159 0.00050107
v 0.02646539 0.00629510 0.00461077
v 0.02431332 0.01701352 -0.01634684
v 0.02308343 0.01873248 -0.00633656
v 0.02677354 0.01380420 -0.00342348
v 0.02533806 0.02090307 -0.01952176
v 0.02381125 0.02515294 -0.02294414
v 0.02481725 0.02497157 -0.00801748
v 0.02660966 0.02971022 -0.02707441
v 0.02288297 0.03344481 -0.03097716
v 0.02267057 0.03383865 -0.01481664
v 0.02647739 0.02999752 -0.01088569
v 0.02702561 0.03716242 -0.03524966
v 0.02310439 0.04222130 -0.03842389
v 0.02298408 0.04136345 -0.02283340
v 0.02663936 0.03764562 -0.01867289
v 0.02500181 0.04983462 -0.03948065
v 0.02342357 0.05062981 -0.02980294
v 0.02716286 0.04541096 -0.02676667
v 0.02657655 0.05645114 -0.03787068
v 0.02469925 0.05739164 -0.03214983
v 0.02322327 0.06036060 -0.03538057
v 0.03441491 -0.04887068 0.02807856
v 0.03108441 -0.04472714 0.02490371
v 0.03189842 -0.04857555 0.03489761
v 0.03128992 -0.04491171 0.03851180
v 0.03270240 -0.03825826 0.02324802
v 0.03192220 -0.03725785 0.03321055
v 0.03359619 -0.04263827 0.03605475
v 0.03433633 -0.03318281 0.02035789
v 0.03058633 -0.02929225 0.01638427
v 0.03252391 -0.03008389 0.03145984
v 0.03456578 -0.02552954 0.01235968
v 0.03088983 -0.02054527 0.00942627
v 0.03052156 -0.02138186 0.02421468
v 0.03420037 -0.02502472 0.02845602
v 0.03217724 -0.01439177 0.00717418
v 0.03091964 -0.01267451 0.01727033
v 0.03456373 -0.01760167 0.02020275
v 0.03322788 -0.01054178 0.00412758
v 0.03182392 -0.00618637 0.00078115
v 0.03220340 -0.00651549 0.01502069
v 0.03452927 -0.00151381 -0.00330331
v 0.03070542 0.00226974 -0.00709705
v 0.03167709 0.00173026 0.00861934
v 0.03317362 -0.00262958 0.01199631
v 0.03449722 0.00603960 -0.01134745
v 0.03076571 0.01101777 -0.01517158
v 0.03068077 0.01005164 0.00063813
v 0.03441306 0.00631394 0.00467351
v 0.02941020 0.01665849 -0.01859466
v 0.03523032 0.01406605 -0.01937643
v 0.03132461 0.01961068 -0.02175814
v 0.03089781 0.01880264 -0.00629690
v 0.03468898 0.01385579 -0.00321680
v 0.03269044 0.02464977 -0.02414907
v 0.03214275 0.02501114 -0.00848730
v 0.03493274 0.02961656 -0.02734544
v 0.03270386 0.03458150 -0.03128907
v 0.03186070 0.03317098 -0.01462128
v 0.03323268 0.02883356 -0.01138884
v 0.03274407 0.03792115 -0.03541885
v 0.03096569 0.04232686 -0.03806030
v 0.03078754 0.04152056 -0.02315339
v 0.03519953 0.03787936 -0.01989709
v 0.03262530 0.04930636 -0.03804702
v 0.03117872 0.05106141 -0.03127405
v 0.03355062 0.04546391 -0.02794315
v 0.03249326 0.05345991 -0.03575366
v 0.02875920 0.05726151 -0.03445398
v 0.03933037 -0.04815791 0.03007839
v 0.03966970 -0.04415545 0.02517599
v 0.03648327 -0.04634648 0.03548400
v 0.04112770 -0.04331863 0.03194812
v 0.03951040 -0.03732965 0.02299331
v 0.03955118 -0.03624684 0.03248438
v 0.04237871 -0.03331556 0.02024057
v 0.03844795 -0.02940829 0.01632341
v 0.04056006 -0.03010251 0.03170420
v 0.04239744 -0.02555066 0.01217303
v 0.03862454 -0.02042969 0.00837029
v 0.03843092 -0.02128901 0.02438590
v 0.04226993 -0.02497168 0.02872073
v 0.03727173 -0.01479105 0.00507243
v 0.04305860 -0.01738321 0.00435204
v 0.03918292 -0.01180137 0.00194451
v 0.03860505 -0.01244133 0.01630173
v 0.04243513 -0.01753655 0.02039437
v 0.04015998 -0.00660669 -0.00093223
v 0.04307856 -0.00915175 0.01252138
v 0.03722870 -0.00674145 0.01297429
v 0.03911412 -0.00367583 0.00998335
v 0.04132859 -0.00271358 -0.00411359
v 0.03976751 0.00151755 -0.00748059
v 0.04001151 0.00141924 0.00730495
v 0.04271476 0.00612367 -0.01168228
v 0.04005732 0.01064629 -0.01560793
v 0.03983709 0.00926939 0.00092829
v 0.04120598 0.00513418 0.00432932
v 0.04175907 0.01466238 -0.01896481
v 0.03861228 0.01841373 -0.02189153
v 0.03882002 0.01920010 -0.00708896
v 0.04290302 0.01400934 -0.00305703
v 0.04017507 0.02455584 -0.02340118
v 0.03741844 0.02481192 -0.01039574
v 0.04110828 0.02691908 -0.01458900
v 0.04279464 0.02203795 -0.01052352
v 0.04130803 0.02969844 -0.02624638
v 0.03946752 0.03323219 -0.02901323
v 0.03941184 0.03399635 -0.01626946
v 0.03630404 0.04149339 -0.03409137
v 0.03941362 0.03740823 -0.02709890
v 0.03657177 0.04207501 -0.02737471
v 0.04146483 0.03625358 -0.02045431
v 0.03586474 0.04774705 -0.03326738
v 0.04455918 -0.04475935 0.02736085
v 0.04983210 -0.04130963 0.02801929
v 0.04843401 -0.03754069 0.02470113
v 0.04828877 -0.03744218 0.03166661
v 0.05086770 -0.03242539 0.02126776
v 0.04657558 -0.02962541 0.01620069
v 0.04831306 -0.03003878 0.03135715
v 0.05062530 -0.02566392 0.01203176
v 0.04798920 -0.02085870 0.00807389
v 0.04773402 -0.02209671 0.02471883
v 0.04919309 -0.02625205 0.02830393
v 0.04956329 -0.01679717 0.00475894
v 0.04649210 -0.01279376 0.00071803
v 0.04682598 -0.01345216 0.01643998
v 0.05074446 -0.01731607 0.02061206
v 0.04547853 -0.00709867 -0.00316437
v 0.04972514 -0.00952645 -0.00252987
v 0.04703507 -0.00402049 -0.00576301
v 0.04800622 -0.00576017 0.00834577
v 0.05007077 -0.01004428 0.01303637
v 0.04800936 0.00109052 -0.00767531
v 0.04963122 -0.00149534 0.00380373
v 0.04534463 0.00100333 0.00549973
v 0.04771052 0.00453169 0.00138738
v 0.04920615 0.00623420 -0.01060804
v 0.04735670 0.01024216 -0.01404715
v 0.04739508 0.01009452 -0.00070510
v 0.04447689 0.02013229 -0.01855893
v 0.04810377 0.01555840 -0.01515688
v 0.04689116 0.01820476 -0.00757395
v 0.04944275 0.01418580 -0.00415561
v 0.04401692 0.02722340 -0.02106229
v 0.04754415 0.02061420 -0.01266023
v 0.04356252 0.03336440 -0.02475506
v 0.04368172 0.03225803 -0.01883336
v 0.05592347 -0.03922472 0.02882806
v 0.05588789 -0.03807813 0.02637132
v 0.05552233 -0.03532140 0.03056272
v 0.05638812 -0.03179741 0.02048234
v 0.05456597 -0.02996272 0.01668268
v 0.05634364 -0.03497903 0.02767323
v 0.05264577 -0.03123297 0.02778616
v 0.05522653 -0.02778432 0.02398719
v 0.05722828 -0.02564667 0.01317205
v 0.05539388 -0.02143889 0.00967835
v 0.05533924 -0.02139921 0.02306634
v 0.05247280 -0.01149607 0.00400117
v 0.05600227 -0.01590298 0.00860174
v 0.05471487 -0.01311717 0.01609556
v 0.05736718 -0.01715857 0.01958122
v 0.05182041 -0.00570527 -0.00263936
v 0.05206766 -0.00563548 0.00294516
v 0.05533809 -0.01079537 0.01103219
v 0.05190503 0.00196910 -0.00344123
v 0.05207829 0.01073311 -0.01058254
v 0.05204524 0.00980574 -0.00412451
v 0.05167428 0.01634604 -0.00943074
v 0.05894051 -0.03723036 0.02821700
v 0.05943743 -0.02791476 0.01843691
v 0.06012143 -0.02095228 0.01319392
v 0.06005608 -0.02183877 0.01963643
v 0.05961965 -0.01507056 0.01436758
f 3 2 1
f 5 4 1
f 5 1 2
f 6 4 5
f 3 1 7
f 3 7 8
f 4 10 9
f 7 4 9
f 1 4 7
f 10 4 6
f 13 12 11
f 11 12 8
f 7 11 8
f 14 11 7
f 7 9 15
f 7 15 14
f 16 13 11
f 16 11 14
f 16 14 17
f 17 14 15
f 20 19 18
f 22 21 18
f 22 18 19
f 23 21 22
f 20 18 24
f 20 24 25
f 21 27 26
f 24 21 26
f 18 21 24
f 27 21 23
f 30 29 28
f 28 29 25
f 24 28 25
f 31 28 24
f 24 26 32
f 24 32 31
f 33 30 28
f 33 28 31
f 33 31 34
f 34 31 32
f 37 36 35
f 38 35 36
f 41 40 39
f 39 40 37
f 35 39 37
f 42 39 35
f 35 38 43
f 35 43 42
f 45 44 2
f 45 2 3
f 39 5 41
f 5 44 41
f 5 2 44
f 39 42 46
f 6 39 46
f 47 6 46
f 39 6 5
f 46 42 43
f 8 45 3
f 8 48 45
f 50 49 10
f 10 49 9
f 10 6 47
f 10 47 50
f 52 51 12
f 52 12 13
f 8 12 48
f 48 12 51
f 49 15 9
f 53 15 49
f 56 55 54
f 57 54 16
f 54 52 16
f 52 13 16
f 52 54 55
f 57 16 58
f 16 59 58
f 16 17 59
f 17 15 53
f 17 53 59
f 61 60 19
f 61 19 20
f 54 22 56
f 22 60 56
f 22 19 60
f 54 57 62
f 23 54 62
f 63 23 62
f 54 23 22
f 62 57 58
f 25 61 20
f 25 64 61
f 66 65 27
f 27 65 26
f 27 23 63
f 27 63 66
f 68 67 29
f 68 29 30
f 25 29 64
f 64 29 67
f 65 32 26
f 69 32 65
f 30 33 70
f 71 30 70
f 68 30 71
f 70 33 72
f 33 73 72
f 33 34 73
f 34 32 69
f 34 69 73
f 74 71 70
f 74 70 72
f 77 76 75
f 78 75 76
f 80 79 36
f 80 36 37
f 79 81 36
f 81 77 36
f 75 36 77
f 36 75 38
f 82 38 75
f 38 82 81
f 81 83 38
f 79 83 81
f 81 82 77
f 82 75 78
f 85 84 40
f 85 40 41
f 37 40 80
f 80 40 84
f 83 43 38
f 86 43 83
f 88 87 44
f 88 44 45
f 41 44 85
f 85 44 87
f 90 89 46
f 46 89 47
f 46 43 86
f 46 86 90
f 48 88 45
f 48 91 88
f 93 92 50
f 50 92 49
f 50 47 89
f 50 89 93
f 95 94 51
f 95 51 52
f 48 51 91
f 91 51 94
f 92 53 49
f 96 53 92
f 98 97 55
f 98 55 56
f 52 55 95
f 95 55 97
f 100 99 59
f 59 99 58
f 59 53 96
f 59 96 100
f 61 101 60
f 101 102 60
f 102 56 60
f 102 98 56
f 104 103 62
f 62 103 63
f 62 58 99
f 62 99 104
f 106 105 101
f 61 106 101
f 64 106 61
f 107 65 66
f 105 102 101
f 108 107 66
f 63 108 66
f 103 108 63
f 110 109 67
f 110 67 68
f 64 67 106
f 106 67 109
f 112 111 107
f 111 65 107
f 111 69 65
f 112 107 108
f 71 110 68
f 71 113 110
f 115 114 73
f 73 114 72
f 73 69 111
f 73 111 115
f 116 113 71
f 116 71 74
f 74 72 114
f 74 114 116
f 119 118 117
f 121 120 117
f 121 117 118
f 122 120 121
f 119 117 76
f 77 119 76
f 123 119 77
f 117 120 124
f 78 117 124
f 125 78 124
f 117 78 76
f 124 120 122
f 127 126 79
f 127 79 80
f 77 82 123
f 128 123 82
f 123 128 126
f 83 126 128
f 126 83 79
f 129 128 82
f 78 129 82
f 125 129 78
f 131 130 84
f 131 84 85
f 80 84 127
f 127 84 130
f 133 132 128
f 132 83 128
f 132 86 83
f 133 128 129
f 135 134 87
f 135 87 88
f 85 87 131
f 131 87 134
f 137 136 90
f 90 136 89
f 90 86 132
f 90 132 137
f 91 135 88
f 91 138 135
f 139 92 93
f 140 139 93
f 89 140 93
f 136 140 89
f 142 141 94
f 142 94 95
f 91 94 138
f 138 94 141
f 144 143 139
f 143 92 139
f 143 96 92
f 144 139 140
f 146 145 97
f 146 97 98
f 95 97 142
f 142 97 145
f 148 147 100
f 100 147 99
f 100 96 143
f 100 143 148
f 102 146 98
f 102 149 146
f 151 150 104
f 104 150 103
f 104 99 147
f 104 147 151
f 153 152 105
f 153 105 106
f 102 105 149
f 149 105 152
f 150 108 103
f 154 108 150
f 156 155 109
f 156 109 110
f 106 109 153
f 153 109 155
f 158 157 112
f 112 157 111
f 112 108 154
f 112 154 158
f 161 160 159
f 160 156 159
f 156 113 159
f 156 110 113
f 163 162 115
f 115 162 114
f 115 111 157
f 115 157 163
f 161 159 164
f 161 164 165
f 164 159 113
f 166 164 113
f 116 166 113
f 167 164 166
f 116 114 162
f 116 162 166
f 168 165 164
f 168 164 167
f 171 170 169
f 172 169 170
f 174 173 118
f 174 118 119
f 169 121 171
f 121 173 171
f 121 118 173
f 122 121 169
f 172 122 169
f 175 122 172
f 123 174 119
f 123 176 174
f 178 177 124
f 124 177 125
f 124 122 175
f 124 175 178
f 180 179 126
f 180 126 127
f 123 126 176
f 176 126 179
f 177 129 125
f 181 129 177
f 183 182 130
f 183 130 131
f 127 130 180
f 180 130 182
f 185 184 133
f 133 184 132
f 133 129 181
f 133 181 185
f 135 186 134
f 186 187 134
f 187 131 134
f 187 183 131
f 189 188 137
f 137 188 136
f 137 132 184
f 137 184 189
f 191 190 186
f 135 191 186
f 138 191 135
f 186 190 187
f 188 140 136
f 192 140 188
f 194 193 141
f 194 141 142
f 138 141 191
f 191 141 193
f 196 195 144
f 144 195 143
f 144 140 192
f 144 192 196
f 198 197 145
f 198 145 146
f 142 145 194
f 194 145 197
f 200 199 148
f 148 199 147
f 148 143 195
f 148 195 200
f 149 198 146
f 149 201 198
f 203 202 151
f 151 202 150
f 151 147 199
f 151 199 203
f 205 204 152
f 205 152 153
f 149 152 201
f 201 152 204
f 202 154 150
f 206 154 202
f 208 207 155
f 208 155 156
f 153 155 205
f 205 155 207
f 210 209 158
f 158 209 157
f 158 154 206
f 158 206 210
f 212 211 160
f 212 160 161
f 156 160 208
f 208 160 211
f 214 213 163
f 163 213 162
f 163 157 209
f 163 209 214
f 165 212 161
f 165 215 212
f 217 216 166
f 166 216 167
f 166 162 213
f 166 213 217
f 218 215 165
f 218 165 168
f 168 167 216
f 168 216 218
f 220 219 170
f 220 170 171
f 172 170 219
f 172 219 221
f 223 222 173
f 223 173 174
f 171 173 220
f 220 173 222
f 221 175 172
f 224 175 221
f 176 223 174
f 176 225 223
f 227 226 178
f 178 226 177
f 178 175 224
f 178 224 227
f 229 228 179
f 229 179 180
f 176 179 225
f 225 179 228
f 226 181 177
f 230 181 226
f 232 231 182
f 232 182 183
f 180 182 229
f 229 182 231
f 234 233 185
f 185 233 184
f 185 181 230
f 185 230 234
f 187 232 183
f 187 235 232
f 237 236 189
f 189 236 188
f 189 184 233
f 189 233 237
f 239 238 190
f 239 190 191
f 187 190 235
f 235 190 238
f 236 192 188
f 240 192 236
f 242 241 193
f 242 193 194
f 191 193 239
f 239 193 241
f 244 243 196
f 196 243 195
f 196 192 240
f 196 240 244
f 246 245 197
f 246 197 198
f 194 197 242
f 242 197 245
f 248 247 200
f 200 247 199
f 200 195 243
f 200 243 248
f 201 246 198
f 201 249 246
f 251 250 203
f 203 250 202
f 203 199 247
f 203 247 251
f 253 252 204
f 253 204 205
f 201 204 249
f 249 204 252
f 250 206 202
f 254 206 250
f 256 255 207
f 256 207 208
f 205 207 253
f 253 207 255
f 258 257 210
f 210 257 209
f 210 206 254
f 210 254 258
f 260 259 211
f 260 211 212
f 208 211 256
f 256 211 259
f 262 261 214
f 214 261 213
f 214 209 257
f 214 257 262
f 215 260 212
f 215 263 260
f 265 264 217
f 217 264 216
f 217 213 261
f 217 261 265
f 266 263 215
f 266 215 218
f 218 216 264
f 218 264 266
f 268 267 219
f 268 219 220
f 221 219 267
f 221 267 269
f 271 270 222
f 271 222 223
f 220 222 268
f 268 222 270
f 269 224 221
f 272 224 269
f 225 271 223
f 225 273 271
f 275 274 227
f 227 274 226
f 227 224 272
f 227 272 275
f 277 276 228
f 277 228 229
f 225 228 273
f 273 228 276
f 274 230 226
f 278 230 274
f 280 279 231
f 280 231 232
f 229 231 277
f 277 231 279
f 282 281 234
f 234 281 233
f 234 230 278
f 234 278 282
f 235 280 232
f 235 283 280
f 285 284 237
f 237 284 236
f 237 233 281
f 237 281 285
f 287 286 238
f 287 238 239
f 235 238 283
f 283 238 286
f 284 240 236
f 288 240 284
f 291 290 289
f 292 289 290
f 294 293 241
f 294 241 242
f 239 241 287
f 287 241 293
f 296 295 244
f 244 295 243
f 244 240 288
f 244 288 296
f 297 291 289
f 299 298 246
f 298 297 246
f 289 246 297
f 246 289 245
f 292 245 289
f 245 292 298
f 298 300 245
f 299 300 298
f 298 292 297
f 242 245 294
f 294 245 300
f 302 301 248
f 248 301 247
f 248 243 295
f 248 295 302
f 249 299 246
f 249 303 299
f 305 304 251
f 251 304 250
f 251 247 301
f 251 301 305
f 307 306 252
f 307 252 253
f 249 252 303
f 303 252 306
f 304 254 250
f 308 254 304
f 310 309 255
f 310 255 256
f 253 255 307
f 307 255 309
f 312 311 258
f 258 311 257
f 258 254 308
f 258 308 312
f 314 313 259
f 314 259 260
f 256 259 310
f 310 259 313
f 316 315 262
f 262 315 261
f 262 257 311
f 262 311 316
f 263 314 260
f 263 317 314
f 319 318 265
f 265 318 264
f 265 261 315
f 265 315 319
f 320 317 263
f 320 263 266
f 266 264 318
f 266 318 320
f 322 321 267
f 322 267 268
f 269 267 321
f 269 321 323
f 325 324 270
f 325 270 271
f 268 270 322
f 322 270 324
f 323 272 269
f 326 272 323
f 273 325 271
f 273 327 325
f 329 328 275
f 275 328 274
f 275 272 326
f 275 326 329
f 331 330 276
f 331 276 277
f 273 276 327
f 327 276 330
f 328 278 274
f 332 278 328
f 334 333 279
f 334 279 280
f 277 279 331
f 331 279 333
f 336 335 282
f 282 335 281
f 282 278 332
f 282 332 336
f 339 338 337
f 341 340 337
f 341 337 338
f 342 340 341
f 283 334 280
f 283 343 334
f 345 344 285
f 285 344 284
f 285 281 335
f 285 335 345
f 348 347 346
f 346 347 339
f 337 346 339
f 349 346 337
f 350 337 340
f 349 337 350
f 340 342 351
f 340 351 350
f 353 352 286
f 353 286 287
f 283 286 343
f 343 286 352
f 344 288 284
f 354 288 344
f 355 348 346
f 291 356 290
f 356 346 290
f 346 349 290
f 356 355 346
f 290 349 292
f 349 357 292
f 349 350 357
f 358 293 294
f 350 358 294
f 357 350 294
f 358 350 351
f 287 293 353
f 353 293 358
f 360 359 296
f 296 359 295
f 296 288 354
f 296 354 360
f 361 356 291
f 361 291 297
f 297 292 361
f 357 361 292
f 361 357 362
f 300 362 357
f 362 300 299
f 300 357 294
f 364 363 302
f 302 363 301
f 302 295 359
f 302 359 364
f 303 362 299
f 303 365 362
f 367 366 305
f 305 366 304
f 305 301 363
f 305 363 367
f 369 368 306
f 369 306 307
f 303 306 365
f 365 306 368
f 366 308 304
f 370 308 366
f 372 371 309
f 372 309 310
f 307 309 369
f 369 309 371
f 374 373 312
f 312 373 311
f 312 308 370
f 312 370 374
f 376 375 313
f 376 313 314
f 310 313 372
f 372 313 375
f 378 377 316
f 316 377 315
f 316 311 373
f 316 373 378
f 317 376 314
f 317 379 376
f 381 380 319
f 319 380 318
f 319 315 377
f 319 377 381
f 382 379 317
f 382 317 320
f 320 318 380
f 320 380 382
f 384 383 321
f 384 321 322
f 323 321 383
f 323 383 385
f 387 386 324
f 387 324 325
f 322 324 384
f 384 324 386
f 385 326 323
f 388 326 385
f 327 387 325
f 327 389 387
f 391 390 329
f 329 390 328
f 329 326 388
f 329 388 391
f 393 392 330
f 393 330 331
f 327 330 389
f 389 330 392
f 390 332 328
f 394 332 390
f 396 395 333
f 396 333 334
f 331 333 393
f 393 333 395
f 398 397 336
f 336 397 335
f 336 332 394
f 336 394 398
f 339 399 338
f 400 341 338
f 400 338 399
f 400 342 341
f 343 396 334
f 343 401 396
f 403 402 345
f 345 402 344
f 345 335 397
f 345 397 403
f 348 404 347
f 404 405 347
f 347 405 339
f 405 406 339
f 406 399 339
f 399 406 400
f 400 406 407
f 342 400 407
f 408 342 407
f 351 342 408
f 410 409 352
f 410 352 353
f 343 352 401
f 401 352 409
f 402 354 344
f 411 354 402
f 355 404 348
f 355 356 404
f 356 405 404
f 356 412 405
f 408 413 351
f 351 413 358
f 353 358 410
f 410 358 413
f 415 414 360
f 360 414 359
f 360 354 411
f 360 411 415
f 416 412 356
f 416 356 361
f 361 362 416
f 416 362 417
f 419 418 364
f 364 418 363
f 364 359 414
f 364 414 419
f 365 417 362
f 365 420 417
f 422 421 367
f 367 421 366
f 367 363 418
f 367 418 422
f 424 423 368
f 424 368 369
f 365 368 420
f 420 368 423
f 421 370 366
f 425 370 421
f 427 426 371
f 427 371 372
f 369 371 424
f 424 371 426
f 429 428 374
f 374 428 373
f 374 370 425
f 374 425 429
f 431 430 375
f 431 375 376
f 372 375 427
f 427 375 430
f 433 432 378
f 378 432 377
f 378 373 428
f 378 428 433
f 379 431 376
f 379 434 431
f 436 435 381
f 381 435 380
f 381 377 432
f 381 432 436
f 437 434 379
f 437 379 382
f 382 380 435
f 382 435 437
f 384 438 383
f 438 385 383
f 440 439 386
f 440 386 387
f 384 386 438
f 386 441 438
f 386 439 441
f 385 438 441
f 442 385 441
f 388 385 442
f 389 440 387
f 389 443 440
f 445 444 391
f 391 444 390
f 391 388 442
f 391 442 445
f 447 446 392
f 447 392 393
f 389 392 443
f 443 392 446
f 444 394 390
f 448 394 444
f 450 449 395
f 450 395 396
f 393 395 447
f 447 395 449
f 452 451 398
f 398 451 397
f 398 394 448
f 398 448 452
f 401 450 396
f 401 453 450
f 455 454 403
f 403 454 402
f 403 397 451
f 403 451 455
f 405 456 406
f 457 407 406
f 457 406 456
f 457 408 407
f 459 458 409
f 459 409 410
f 401 409 453
f 453 409 458
f 454 411 402
f 460 411 454
f 412 461 456
f 412 456 405
f 456 462 457
f 456 461 462
f 457 462 408
f 462 463 408
f 463 413 408
f 462 464 463
f 410 413 459
f 459 413 463
f 466 465 415
f 415 465 414
f 415 411 460
f 415 460 466
f 416 461 412
f 462 461 467
f 461 417 467
f 417 468 467
f 417 461 416
f 462 467 464
f 470 469 419
f 419 469 418
f 419 414 465
f 419 465 470
f 420 468 417
f 420 471 468
f 473 472 422
f 422 472 421
f 422 418 469
f 422 469 473
f 475 474 423
f 475 423 424
f 420 423 471
f 471 423 474
f 472 425 421
f 476 425 472
f 478 477 426
f 478 426 427
f 424 426 475
f 475 426 477
f 480 479 429
f 429 479 428
f 429 425 476
f 429 476 480
f 482 481 430
f 482 430 431
f 427 430 478
f 478 430 481
f 484 483 433
f 433 483 432
f 433 428 479
f 433 479 484
f 434 482 431
f 434 485 482
f 487 486 436
f 436 486 435
f 436 432 483
f 436 483 487
f 434 437 488
f 489 434 488
f 485 434 489
f 490 488 437
f 435 490 437
f 486 490 435
f 491 489 488
f 491 488 490
f 493 492 439
f 493 439 440
f 439 494 441
f 492 494 439
f 442 441 494
f 442 494 495
f 443 493 440
f 443 496 493
f 498 497 445
f 445 497 444
f 445 442 495
f 445 495 498
f 500 499 446
f 500 446 447
f 443 446 496
f 496 446 499
f 497 448 444
f 501 448 497
f 503 502 449
f 503 449 450
f 447 449 500
f 500 449 502
f 505 504 452
f 452 504 451
f 452 448 501
f 452 501 505
f 453 503 450
f 453 506 503
f 508 507 455
f 455 507 454
f 455 451 504
f 455 504 508
f 510 509 458
f 510 458 459
f 453 458 506
f 506 458 509
f 507 460 454
f 511 460 507
f 513 512 463
f 513 463 464
f 459 463 510
f 510 463 512
f 515 514 466
f 466 514 465
f 466 460 511
f 466 511 515
f 517 516 467
f 517 467 468
f 464 467 513
f 513 467 516
f 519 518 470
f 470 518 469
f 470 465 514
f 470 514 519
f 471 517 468
f 471 520 517
f 522 521 473
f 473 521 472
f 473 469 518
f 473 518 522
f 524 523 474
f 524 474 475
f 471 474 520
f 520 474 523
f 521 476 472
f 525 476 521
f 527 526 477
f 527 477 478
f 475 477 524
f 524 477 526
f 529 528 480
f 480 528 479
f 480 476 525
f 480 525 529
f 531 530 481
f 531 481 482
f 478 481 527
f 527 481 530
f 533 532 484
f 484 532 483
f 484 479 528
f 484 528 533
f 485 531 482
f 485 534 531
f 536 535 487
f 487 535 486
f 487 483 532
f 487 532 536
f 489 534 485
f 489 537 534
f 535 490 486
f 538 490 535
f 539 537 489
f 539 489 491
f 491 490 538
f 491 538 539
f 541 540 492
f 541 492 493
f 492 542 494
f 540 542 492
f 495 494 542
f 495 542 543
f 496 541 493
f 496 544 541
f 546 545 498
f 498 545 497
f 498 495 543
f 498 543 546
f 548 547 499
f 548 499 500
f 496 499 544
f 544 499 547
f 545 501 497
f 549 501 545
f 551 550 502
f 551 502 503
f 500 502 548
f 548 502 550
f 553 552 505
f 505 552 504
f 505 501 549
f 505 549 553
f 506 551 503
f 506 554 551
f 556 555 508
f 508 555 507
f 508 504 552
f 508 552 556
f 558 557 509
f 558 509 510
f 506 509 554
f 554 509 557
f 555 511 507
f 559 511 555
f 561 560 512
f 561 512 513
f 510 512 558
f 558 512 560
f 563 562 515
f 515 562 514
f 515 511 559
f 515 559 563
f 565 564 516
f 565 516 517
f 513 516 561
f 561 516 564
f 567 566 519
f 519 566 518
f 519 514 562
f 519 562 567
f 570 569 568
f 569 565 568
f 565 520 568
f 565 517 520
f 572 571 522
f 522 571 521
f 522 518 566
f 522 566 572
f 570 568 523
f 524 570 523
f 573 570 524
f 523 568 520
f 571 525 521
f 574 525 571
f 576 575 526
f 576 526 527
f 524 526 573
f 573 526 575
f 578 577 529
f 529 577 528
f 529 525 574
f 529 574 578
f 580 579 530
f 580 530 531
f 527 530 576
f 576 530 579
f 582 581 533
f 533 581 532
f 533 528 577
f 533 577 582
f 534 580 531
f 534 583 580
f 585 584 536
f 536 584 535
f 536 532 581
f 536 581 585
f 537 587 586
f 583 537 586
f 534 537 583
f 584 586 587
f 538 584 587
f 535 584 538
f 539 587 537
f 587 539 538
f 589 588 540
f 589 540 541
f 588 591 590
f 542 588 590
f 540 588 542
f 590 543 542
f 544 589 541
f 544 592 589
f 590 591 546
f 591 545 546
f 591 593 545
f 590 546 543
f 595 594 547
f 595 547 548
f 544 547 592
f 592 547 594
f 593 549 545
f 596 549 593
f 598 597 550
f 598 550 551
f 548 550 595
f 595 550 597
f 600 599 553
f 553 599 552
f 553 549 596
f 553 596 600
f 603 602 601
f 602 598 601
f 598 554 601
f 598 551 554
f 605 604 556
f 556 604 555
f 556 552 599
f 556 599 605
f 603 601 557
f 558 603 557
f 606 603 558
f 557 601 554
f 609 608 607
f 604 607 608
f 559 604 608
f 555 604 559
f 611 610 560
f 611 560 561
f 558 560 606
f 606 560 610
f 608 609 563
f 609 562 563
f 609 612 562
f 608 563 559
f 614 613 564
f 614 564 565
f 561 564 611
f 611 564 613
f 616 615 567
f 567 615 566
f 567 562 612
f 567 612 616
f 618 617 569
f 618 569 570
f 565 569 614
f 614 569 617
f 620 619 572
f 572 619 571
f 572 566 615
f 572 615 620
f 573 618 570
f 573 621 618
f 624 623 622
f 619 624 622
f 574 619 622
f 571 619 574
f 626 625 575
f 626 575 576
f 573 575 621
f 621 575 625
f 622 623 578
f 623 577 578
f 623 627 577
f 622 578 574
f 580 628 579
f 626 576 629
f 576 628 629
f 628 630 629
f 576 579 628
f 581 582 630
f 582 629 630
f 582 631 629
f 582 577 627
f 582 627 631
f 583 632 628
f 583 628 580
f 632 584 585
f 630 632 585
f 628 632 630
f 630 585 581
f 586 632 583
f 632 586 584
f 589 633 588
f 633 591 588
f 635 634 633
f 589 635 633
f 592 635 589
f 591 633 634
f 636 591 634
f 593 591 636
f 638 637 594
f 638 594 595
f 592 594 635
f 635 594 637
f 636 596 593
f 639 596 636
f 641 640 597
f 641 597 598
f 595 597 638
f 638 597 640
f 643 642 600
f 600 642 599
f 600 596 639
f 600 639 643
f 645 644 602
f 645 602 603
f 598 602 641
f 641 602 644
f 647 646 605
f 605 646 604
f 605 599 642
f 605 642 647
f 650 649 648
f 649 645 648
f 645 606 648
f 645 603 606
f 652 651 607
f 607 651 609
f 607 604 646
f 607 646 652
f 650 648 610
f 611 650 610
f 653 650 611
f 610 648 606
f 656 655 654
f 651 654 655
f 612 651 655
f 609 651 612
f 658 657 613
f 658 613 614
f 611 613 653
f 653 613 657
f 655 656 616
f 656 615 616
f 656 659 615
f 655 616 612
f 618 660 617
f 660 661 617
f 661 614 617
f 661 658 614
f 663 662 620
f 620 662 619
f 620 615 659
f 620 659 663
f 621 664 660
f 621 660 618
f 624 665 623
f 665 660 623
f 660 664 623
f 660 665 661
f 624 619 662
f 624 662 665
f 626 666 625
f 664 621 625
f 666 664 625
f 667 664 666
f 667 627 623
f 667 623 664
f 629 666 626
f 666 629 631
f 666 631 667
f 667 631 627
f 669 668 634
f 669 634 635
f 636 634 668
f 636 668 670
f 672 671 637
f 672 637 638
f 635 673 669
f 673 635 674
f 637 674 635
f 674 637 675
f 671 675 637
f 670 673 674
f 639 670 674
f 636 670 639
f 677 676 640
f 677 640 641
f 638 640 672
f 672 640 676
f 674 675 643
f 675 642 643
f 675 678 642
f 674 643 639
f 645 679 644
f 679 680 644
f 680 641 644
f 680 677 641
f 682 681 647
f 647 681 646
f 647 642 678
f 647 678 682
f 650 683 649
f 679 645 649
f 683 679 649
f 684 679 683
f 652 685 651
f 685 679 651
f 679 684 651
f 679 685 680
f 652 646 681
f 652 681 685
f 653 686 683
f 653 683 650
f 686 656 654
f 684 686 654
f 683 686 684
f 684 654 651
f 658 687 657
f 686 653 657
f 687 686 657
f 688 686 687
f 688 659 656
f 688 656 686
f 661 689 687
f 661 687 658
f 689 662 663
f 688 689 663
f 687 689 688
f 688 663 659
f 665 689 661
f 689 665 662
f 669 690 668
f 690 670 668
f 672 691 671
f 673 690 669
f 675 671 691
f 690 673 670
f 677 692 676
f 691 672 676
f 692 691 676
f 693 691 692
f 693 678 675
f 693 675 691
f 680 694 692
f 680 692 677
f 694 681 682
f 693 694 682
f 692 694 693
f 693 682 678
f 685 694 680
f 694 685 681

