# https://github.com/mikedh/trimesh
v -0.04452159 -0.01055677 -0.00363180
v -0.04236807 -0.01410064 -0.00406834
v -0.04338644 -0.01143588 -0.00682349
v -0.04223861 -0.01283566 -0.00116235
v -0.04521861 -0.00530438 -0.01427339
v -0.04219637 -0.00901393 -0.01616123
v -0.04255227 -0.00565674 -0.01818552
v -0.04563338 -0.00639090 -0.00809061
v -0.04301682 -0.00949022 -0.01155807
v -0.04538859 -0.00499543 -0.00230690
v -0.04273100 -0.00798226 0.00010769
v -0.04581333 0.00021399 -0.01547060
v -0.04266211 0.00018640 -0.01866005
v -0.04644574 0.00024517 -0.00975035
v -0.04633402 -0.00066187 -0.00430809
v -0.04326561 -0.00377831 0.00245315
v -0.04498430 0.00051702 0.00198892
v -0.04427362 0.00050812 0.00789609
v -0.04281046 -0.00251177 0.00744011
v -0.04246461 -0.00075681 0.01110753
v -0.04514833 0.00504417 -0.01621298
v -0.04131346 0.00662203 -0.01840284
v -0.04572558 0.00648324 -0.01042807
v -0.04555551 0.00587666 -0.00349764
v -0.04328222 0.00591326 0.00048979
v -0.04288064 0.00344772 0.00460096
v -0.04252806 0.00216772 0.00960563
v -0.04311041 0.00901303 -0.01426449
v -0.04337923 0.01039069 -0.00927082
v -0.04233700 0.01347528 -0.00600242
v -0.04452066 0.01125994 -0.00483512
v -0.04277465 0.01077706 -0.00072582
v -0.04229833 0.01438003 -0.00239383
v -0.03917246 -0.02969151 -0.00276848
v -0.03616217 -0.03358460 -0.00227436
v -0.03700687 -0.03084187 -0.00670969
v -0.03883711 -0.02962614 0.00240519
v -0.03631865 -0.03296714 0.00216756
v -0.03608169 -0.03080734 0.00562150
v -0.03890264 -0.02369254 -0.01449100
v -0.03613601 -0.02764993 -0.01626147
v -0.03615440 -0.02418140 -0.01830506
v -0.03939228 -0.02489657 -0.00841934
v -0.03700920 -0.02801517 -0.01173774
v -0.03991690 -0.02388273 -0.00285572
v -0.03935200 -0.02440800 0.00275084
v -0.03688720 -0.02640262 0.00600196
v -0.03916056 -0.01816541 -0.01535837
v -0.03605489 -0.01826701 -0.01854546
v -0.03985456 -0.01911394 -0.01070083
v -0.04024554 -0.01766355 -0.00377831
v -0.03974681 -0.01848995 0.00260544
v -0.03724396 -0.02229994 0.00840657
v -0.03934047 -0.01826154 0.00960439
v -0.03878832 -0.01681690 0.01532152
v -0.03686762 -0.02088363 0.01339217
v -0.03542809 -0.01941552 0.01723290
v -0.03987455 -0.01275583 -0.01530571
v -0.03716344 -0.01179305 -0.01860765
v -0.04074741 -0.01400632 -0.00933058
v -0.04015541 -0.01167087 0.00284787
v -0.03972602 -0.01217235 0.00906031
v -0.03933170 -0.01203397 0.01457637
v -0.03606985 -0.01359870 0.01835044
v -0.03690014 -0.00597576 -0.01927973
v -0.04086084 -0.00600501 0.00432652
v -0.04024114 -0.00559864 0.00959436
v -0.03909167 -0.00591897 0.01456527
v -0.03695174 -0.00729044 0.01838123
v -0.03684914 0.00022242 -0.01926213
v -0.03979271 0.00092097 0.01396980
v -0.03682175 -0.00122113 0.01838892
v -0.03580092 0.00543980 -0.01928063
v -0.04075261 0.00799358 0.00339707
v -0.04042408 0.00613371 0.00964423
v -0.03899189 0.00712970 0.01523080
v -0.03685512 0.00489441 0.01838012
v -0.04028826 0.01281733 -0.01532786
v -0.03677320 0.01183991 -0.01865162
v -0.04086688 0.01317838 -0.01005251
v -0.04026810 0.01405246 0.00260785
v -0.03975568 0.01227395 0.00903250
v -0.03919499 0.01235026 0.01456581
v -0.03633002 0.01185821 0.01833649
v -0.03938048 0.01870649 -0.01530923
v -0.03627390 0.01870028 -0.01853007
v -0.03983495 0.01872289 -0.00973907
v -0.04021933 0.01791403 -0.00297911
v -0.03968472 0.01871957 0.00300922
v -0.03914776 0.01885076 0.00770937
v -0.03887597 0.01775496 0.01367795
v -0.03628174 0.01822291 0.01733111
v -0.03898951 0.02369639 -0.01608311
v -0.03522550 0.02523717 -0.01838118
v -0.03934478 0.02424253 -0.01123146
v -0.03904555 0.02426293 -0.00489291
v -0.03874598 0.02366115 0.00198062
v -0.03712897 0.02394997 0.00655921
v -0.03688478 0.02199513 0.01115996
v -0.03607582 0.02163430 0.01548265
v -0.03713383 0.02770296 -0.01425329
v -0.03687067 0.02804519 -0.00820199
v -0.03663058 0.02802735 -0.00195952
v -0.03614861 0.02712226 0.00321858
v -0.03839856 0.03716910 -0.00338891
v -0.03618619 0.03475687 -0.00454330
v -0.03618299 0.03766090 -0.00469093
v -0.03576024 0.03602021 -0.00148372
v -0.03614211 0.03860468 -0.00298761
v -0.03325985 -0.03542568 -0.00370894
v -0.02898246 -0.03879195 -0.00393675
v -0.03126686 -0.03605147 -0.00680600
v -0.02989517 -0.03744467 0.00009947
v -0.03338901 -0.03072867 -0.01418047
v -0.02909414 -0.03255107 -0.01601260
v -0.03173258 -0.02941028 -0.01815903
v -0.03389854 -0.03215319 -0.00889662
v -0.02966750 -0.03413864 -0.01145785
v -0.03222587 -0.03510475 0.00162930
v -0.03337937 -0.02878781 0.00984685
v -0.03039535 -0.03388951 0.00818035
v -0.02972792 -0.03102271 0.01248402
v -0.03057981 -0.02467624 -0.01932982
v -0.03502641 -0.02437298 0.01020218
v -0.02962906 -0.02820246 0.01550083
v -0.03370803 -0.02443531 0.01442928
v -0.03059488 -0.02386411 0.01832615
v -0.03051767 -0.01828752 -0.01921725
v -0.03134332 -0.01874651 0.01942561
v -0.03037588 -0.01204188 -0.01912889
v -0.03271340 -0.01082029 -0.00889269
v -0.03016898 -0.01204369 -0.01144161
v -0.03022968 -0.01500162 -0.00986797
v -0.02984371 -0.01314796 -0.00730900
v -0.03154262 -0.01468979 0.02091271
v -0.03347478 -0.01009603 0.02141149
v -0.02919119 -0.01312609 0.02339635
v -0.02981269 -0.00625315 -0.01841224
v -0.03291593 -0.00599703 -0.00930909
v -0.03003075 -0.00570187 -0.01256371
v -0.03057379 -0.00711497 -0.00690886
v -0.03386521 -0.00428986 0.02149901
v -0.03000300 -0.00720857 0.02381776
v -0.03094263 0.00006362 -0.01831863
v -0.03288717 0.00019213 -0.00930178
v -0.03078631 0.00126086 -0.01256286
v -0.03053759 -0.00096207 -0.00691844
v -0.03385434 0.00175659 0.02148838
v -0.03003248 -0.00109714 0.02378751
v -0.03011842 0.00665677 -0.01852312
v -0.03298215 0.00635198 -0.00932533
v -0.02981134 0.00739165 -0.01256761
v -0.03056677 0.00527448 -0.00686679
v -0.03390984 0.00789604 0.02139135
v -0.03011626 0.00508473 0.02378085
v -0.03122052 0.01318710 -0.01924236
v -0.03272037 0.01114650 -0.00979060
v -0.02971224 0.01337305 -0.01142540
v -0.03008043 0.01193157 -0.00713558
v -0.03299985 0.01301672 0.02088309
v -0.02956057 0.01175097 0.02349981
v -0.03041413 0.01851473 -0.01922832
v -0.03055626 0.01537981 -0.00888773
v -0.03224578 0.01765040 0.01937845
v -0.02988294 0.01621400 0.02174003
v -0.02969866 0.02391632 -0.01929733
v -0.03470459 0.02623557 0.00790626
v -0.03345221 0.02565761 0.01344410
v -0.03047440 0.02412408 0.01838358
v -0.03392133 0.03022263 -0.01614487
v -0.02982025 0.02983909 -0.01830284
v -0.03381676 0.03178309 -0.01001643
v -0.03467533 0.03153878 -0.00316242
v -0.03387852 0.02987406 0.00269453
v -0.03247872 0.03008833 0.00853491
v -0.03106641 0.02995415 0.01256675
v -0.02979224 0.02827309 0.01569464
v -0.03062255 0.03277199 -0.01466218
v -0.02966962 0.03446745 -0.01090953
v -0.03146162 0.03648152 -0.00714744
v -0.03047084 0.03420725 0.00350506
v -0.03218965 0.03771204 -0.00043736
v -0.02901034 0.03284776 0.01022324
v -0.03012124 0.03925041 -0.00322681
v -0.02818751 -0.03736014 -0.00866437
v -0.02348807 -0.03919120 -0.00931510
v -0.02532854 -0.03654183 -0.01239401
v -0.02384201 -0.03993536 -0.00254842
v -0.02792271 -0.03701238 0.00463167
v -0.02482485 -0.03939546 0.00259367
v -0.02673038 -0.03702722 0.00856550
v -0.02346487 -0.03902099 0.00881384
v -0.02419411 -0.03707890 0.01228678
v -0.02451163 -0.03464535 -0.01577017
v -0.02479636 -0.03088798 -0.01863085
v -0.02747346 -0.03064091 0.01519332
v -0.02579235 -0.03342839 0.01422913
v -0.02323203 -0.03124729 0.01786181
v -0.02421647 -0.02449630 -0.01916690
v -0.02626920 -0.02361908 -0.00888844
v -0.02464225 -0.02372462 -0.01124057
v -0.02339190 -0.02644273 -0.00987366
v -0.02354056 -0.02492540 -0.00752931
v -0.02702204 -0.02271442 0.02149496
v -0.02543475 -0.02689156 0.02035482
v -0.02297917 -0.02455069 0.02328799
v -0.02378463 -0.01834732 -0.01838269
v -0.02763380 -0.01900071 -0.00939444
v -0.02458803 -0.01786980 -0.01266359
v -0.02492693 -0.01900849 -0.00674854
v -0.02833798 -0.01791357 0.02183902
v -0.02430446 -0.01894736 0.02396063
v -0.02448300 -0.01239889 -0.01785812
v -0.02537187 -0.01135958 -0.01375998
v -0.02481449 -0.01183186 -0.00613137
v -0.02452677 -0.01198387 0.02452887
v -0.02446160 -0.00954589 -0.01623624
v -0.02727080 -0.00582974 -0.01580582
v -0.02472272 -0.00560296 -0.00619794
v -0.02455307 -0.00576176 0.02446475
v -0.02856422 -0.00023886 -0.01582981
v -0.02473046 0.00055751 -0.00620899
v -0.02456423 0.00037625 0.02443862
v -0.02736352 0.00538262 -0.01581565
v -0.02476102 0.00677225 -0.00620234
v -0.02462087 0.00657577 0.02444425
v -0.02465599 0.00913075 -0.01533495
v -0.02553676 0.01173599 -0.01807247
v -0.02490869 0.01223166 -0.01373249
v -0.02384956 0.01208781 -0.00620485
v -0.02375262 0.01188934 0.02444230
v -0.02393437 0.01891489 -0.01842768
v -0.02787761 0.01931596 -0.00939118
v -0.02441331 0.01918602 -0.01265691
v -0.02527250 0.01760536 -0.00681605
v -0.02806410 0.02070855 0.02139524
v -0.02489914 0.01737808 0.02382737
v -0.02518301 0.02563749 -0.01923280
v -0.02648008 0.02386499 -0.00990878
v -0.02377381 0.02504525 -0.01126541
v -0.02428693 0.02357624 -0.00735214
v -0.02708931 0.02446480 0.02139499
v -0.02389348 0.02327170 0.02337660
v -0.02284231 0.03135366 -0.01865102
v -0.02379144 0.02674223 -0.00894976
v -0.02793708 0.03137340 0.01442911
v -0.02465835 0.03068928 0.01777450
v -0.02357280 0.02736227 0.02112952
v -0.02624701 0.03451073 -0.01501656
v -0.02703755 0.03674454 -0.01051933
v -0.02351997 0.03773803 -0.01336668
v -0.02786556 0.03764726 0.00176730
v -0.02502766 0.03660116 0.00544026
v -0.02486517 0.03509001 0.00950831
v -0.02423257 0.03408840 0.01455831
v -0.02418920 0.03941470 -0.00870551
v -0.02370181 0.04021343 -0.00276006
v -0.02374887 0.03924593 0.00297721
v -0.02160653 -0.03743150 -0.01518450
v -0.01713121 -0.03909573 -0.01475811
v -0.01903091 -0.03566785 -0.01816346
v -0.01832132 -0.03990431 -0.00968950
v -0.01823517 -0.04046564 -0.00495558
v -0.01842814 -0.04050403 0.00221884
v -0.01804227 -0.04003588 0.00916065
v -0.02152205 -0.03613498 0.01593960
v -0.01897188 -0.03907731 0.01408950
v -0.01751603 -0.03626174 0.01743755
v -0.01800522 -0.03070672 -0.01926749
v -0.01694727 -0.03218370 0.01946910
v -0.01745363 -0.02406183 -0.01840404
v -0.01883798 -0.02458019 -0.01265275
v -0.01875611 -0.02784896 -0.00933956
v -0.01821819 -0.02518612 -0.00673427
v -0.01999376 -0.02797017 0.02151592
v -0.01781727 -0.02483722 0.02397278
v -0.01750629 -0.02146251 -0.01584775
v -0.02114321 -0.01793107 -0.01582375
v -0.01842323 -0.01819825 -0.00612196
v -0.01828499 -0.01823124 0.02452560
v -0.02234857 -0.01352205 -0.01540021
v -0.01825321 -0.01192866 -0.00629242
v -0.01827922 -0.01195054 0.02435530
v -0.01822124 -0.00584623 -0.00636436
v -0.01823827 -0.00585027 0.02428549
v -0.01828560 0.00031228 -0.00635493
v -0.01829703 0.00030851 0.02429587
v -0.01829812 0.00652321 -0.00632363
v -0.01831736 0.00651777 0.02432811
v -0.02225693 0.01315745 -0.01620371
v -0.01835219 0.01276503 -0.00625712
v -0.01834502 0.01270096 0.02439177
v -0.02119479 0.01763139 -0.01584259
v -0.01850872 0.01910331 -0.00620409
v -0.01843884 0.01888969 0.02445768
v -0.01763612 0.02136504 -0.01581816
v -0.01939155 0.02409185 -0.01846106
v -0.01774079 0.02492320 -0.01265882
v -0.01802890 0.02542333 -0.00682940
v -0.01787078 0.02501446 0.02385953
v -0.01713008 0.02994452 -0.01928402
v -0.01920488 0.02806775 -0.00944360
v -0.01857750 0.03183558 0.01945209
v -0.01797994 0.02893632 0.02181408
v -0.02176956 0.03650424 -0.01663067
v -0.01718330 0.03594728 -0.01845388
v -0.02199623 0.03753674 0.00864964
v -0.02067573 0.03729194 0.01357252
v -0.01909515 0.03581433 0.01737156
v -0.01851530 0.03934504 -0.01428634
v -0.01828078 0.04016664 -0.00989098
v -0.01761109 0.04063450 -0.00394176
v -0.01834969 0.04010602 0.00266667
v -0.01809099 0.03968810 0.00969856
v -0.01662164 0.03916165 0.01538061
v -0.01513891 -0.04289066 -0.00163345
v -0.01054296 -0.04524605 -0.00384444
v -0.01324079 -0.04249363 -0.00611065
v -0.01448484 -0.04252183 0.00321856
v -0.01166779 -0.04510484 0.00235311
v -0.01131936 -0.04345250 0.00636330
v -0.01085623 -0.03922839 -0.01608984
v -0.01325760 -0.03626715 -0.01855306
v -0.01232699 -0.04069572 -0.01083482
v -0.01260150 -0.04084381 0.00882527
v -0.01326481 -0.03929230 0.01467468
v -0.01117436 -0.03630899 0.01838270
v -0.01195729 -0.03048089 -0.01921913
v -0.01470905 -0.03053000 -0.00882991
v -0.01289056 -0.02978787 -0.01140747
v -0.01052167 -0.03278131 -0.00976444
v -0.01170981 -0.03065983 -0.00723781
v -0.01232329 -0.03299342 0.02095450
v -0.01549588 -0.02980145 0.02187438
v -0.01151371 -0.03005644 0.02340132
v -0.01087108 -0.02527358 -0.01790250
v -0.01204141 -0.02511964 -0.01374794
v -0.01217518 -0.02476186 -0.00611401
v -0.01191418 -0.02459081 0.02452905
v -0.01312781 -0.02252566 -0.01622999
v -0.01204648 -0.01831004 -0.00629282
v -0.01205224 -0.01832380 0.02435521
v -0.01200192 -0.01214297 -0.00645446
v -0.01202454 -0.01214382 0.02419667
v -0.01200882 -0.00603176 -0.00645750
v -0.01201713 -0.00602284 0.02419417
v -0.01203469 0.00011990 -0.00644991
v -0.01204192 0.00013079 0.02420190
v -0.01204638 0.00631747 -0.00642658
v -0.01205609 0.00632946 0.02422482
v -0.01209862 0.01255349 -0.00634107
v -0.01211195 0.01255759 0.02431002
v -0.01219026 0.01888022 -0.00625491
v -0.01221273 0.01881965 0.02439981
v -0.01314265 0.02263117 -0.01537211
v -0.01271325 0.02537943 -0.01812246
v -0.01104338 0.02567265 -0.01374391
v -0.01137929 0.02432956 -0.00620375
v -0.01144516 0.02412204 0.02445155
v -0.01280285 0.03164661 -0.01932811
v -0.01518629 0.03063144 -0.00989341
v -0.01209688 0.03054151 -0.01144938
v -0.01270804 0.02981719 -0.00719609
v -0.01475185 0.03200034 0.02093205
v -0.01263719 0.02927598 0.02351796
v -0.01050344 0.03638239 -0.01854666
v -0.01112453 0.03311896 -0.00891875
v -0.01346642 0.03645402 0.01837981
v -0.01031180 0.03388168 0.02139396
v -0.01203103 0.03944735 -0.01528009
v -0.01368430 0.04073186 -0.00950562
v -0.01414062 0.04268884 -0.00435796
v -0.01043709 0.04320389 -0.00605487
v -0.01327274 0.04271460 -0.00085018
v -0.01187380 0.04091369 0.00338957
v -0.01199297 0.04009675 0.00904972
v -0.01189035 0.03965682 0.01453879
v -0.01095742 0.04489799 -0.00185569
v -0.00963229 -0.04335521 -0.00894451
v -0.00503061 -0.04543328 -0.00970877
v -0.00679256 -0.04263555 -0.01261373
v -0.00526578 -0.04633264 -0.00263843
v -0.00617088 -0.04637353 0.00282540
v -0.00845147 -0.04260514 0.01005076
v -0.00711256 -0.04517449 0.00766666
v -0.00397831 -0.04308148 0.01199289
v -0.00598580 -0.04079711 -0.01581122
v -0.00632267 -0.03690372 -0.01868667
v -0.00730030 -0.03989522 0.01441701
v -0.00428388 -0.03686420 0.01834842
v -0.00518069 -0.03032611 -0.01856634
v -0.00706528 -0.02994148 -0.01256972
v -0.00568316 -0.03305744 -0.00930392
v -0.00588005 -0.03060940 -0.00682806
v -0.00712659 -0.03392757 0.02141598
v -0.00568129 -0.03015285 0.02381645
v -0.00532196 -0.02756997 -0.01583734
v -0.00910171 -0.02486143 -0.01536240
v -0.00592642 -0.02479869 -0.00618213
v -0.00574899 -0.02463598 0.02446665
v -0.00589171 -0.01836458 -0.00636433
v -0.00588985 -0.01837760 0.02428558
v -0.00588748 -0.01215117 -0.00645711
v -0.00589438 -0.01215955 0.02419411
v -0.00588866 -0.00602885 -0.00645516
v -0.00588863 -0.00602862 0.02419692
v -0.00588625 0.00009525 -0.00645353
v -0.00588619 0.00009510 0.02419952
v -0.00588550 0.00622516 -0.00645280
v -0.00588659 0.00622708 0.02420095
v -0.00594891 0.01240769 -0.00642846
v -0.00595054 0.01241695 0.02422476
v -0.00598642 0.01870936 -0.00632243
v -0.00599682 0.01871725 0.02432778
v -0.00914307 0.02474492 -0.01625241
v -0.00603872 0.02517481 -0.00621941
v -0.00614506 0.02497482 0.02444341
v -0.00547060 0.02756461 -0.01584821
v -0.00728709 0.03017030 -0.01850813
v -0.00557415 0.03037168 -0.01256246
v -0.00610337 0.03099168 -0.00694839
v -0.00617497 0.03043202 0.02377997
v -0.00434930 0.03747446 -0.01865981
v -0.00629017 0.03328997 -0.00931899
v -0.00730683 0.03729495 0.01836004
v -0.00457124 0.03423314 0.02148751
v -0.00650813 0.04032884 -0.01527533
v -0.00769850 0.04123852 -0.01033787
v -0.00548443 0.04372695 -0.00734033
v -0.00968815 0.04361313 0.00198276
v -0.00677890 0.04272438 0.00569490
v -0.00547101 0.04092473 0.00987980
v -0.00576255 0.03941493 0.01451622
v -0.00548208 0.04592701 -0.00315926
v -0.00544144 0.04554272 0.00334442
v -0.00318698 -0.04362872 -0.01540704
v 0.00084613 -0.04515956 -0.01437913
v -0.00025771 -0.04139425 -0.01817150
v 0.00106222 -0.04639472 -0.00902795
v 0.00016344 -0.04635444 -0.00351185
v 0.00022043 -0.04634728 0.00310191
v -0.00112241 -0.04561518 0.00861080
v 0.00184643 -0.04309333 0.01242243
v -0.00058830 -0.03593931 -0.01933905
v -0.00111022 -0.03991705 0.01528905
v 0.00181895 -0.03687332 0.01826499
v 0.00162908 -0.03106520 -0.01841501
v -0.00091985 -0.03091919 -0.01256242
v 0.00054312 -0.03298829 -0.00929124
v 0.00038405 -0.03066920 -0.00691842
v -0.00094704 -0.03390798 0.02143837
v 0.00051517 -0.03016466 0.02378432
v 0.00035775 -0.02873524 -0.01586080
v 0.00027722 -0.02490916 -0.00622509
v 0.00042967 -0.02473792 0.02443932
v 0.00027290 -0.01843847 -0.00635418
v 0.00028009 -0.01845419 0.02429402
v 0.00025813 -0.01216207 -0.00645095
v 0.00025560 -0.01217528 0.02420069
v 0.00023441 -0.00601008 -0.00645614
v 0.00023644 -0.00601441 0.02419909
v 0.00023574 0.00010698 -0.00645186
v 0.00023796 0.00010537 0.02420297
v 0.00023665 0.00622086 -0.00645349
v 0.00023963 0.00622489 0.02419942
v 0.00021484 0.01237170 -0.00645208
v 0.00022085 0.01238529 0.02420159
v 0.00020172 0.01865265 -0.00635809
v 0.00019646 0.01866376 0.02429531
v 0.00019632 0.02512425 -0.00622724
v 0.00004350 0.02494564 0.02443801
v 0.00011893 0.02894290 -0.01586111
v -0.00120094 0.03128850 -0.01842558
v 0.00139668 0.03112924 -0.01256167
v 0.00009024 0.03088109 -0.00691875
v -0.00003692 0.03037457 0.02378775
v 0.00099960 0.03620865 -0.01941404
v -0.00006757 0.03319846 -0.00929115
v -0.00129005 0.03714205 0.01836979
v 0.00148943 0.03416871 0.02149732
v -0.00281723 0.04273754 -0.01612615
v 0.00069018 0.04165613 -0.01814760
v -0.00313143 0.04344215 -0.01152340
v -0.00319095 0.04364277 0.00852653
v -0.00054497 0.04274786 0.01119193
v 0.00105155 0.04006348 0.01399039
v -0.00026717 0.04489648 -0.01478346
v -0.00007720 0.04545430 -0.00878640
v 0.00106754 0.04671801 -0.00237844
v -0.00061858 0.04670244 0.00216604
v 0.00092302 0.04521999 0.00746962
v 0.00369880 -0.04242771 -0.01672183
v 0.00545704 -0.04365142 -0.01347282
v 0.00676351 -0.04537036 -0.00907353
v 0.00563203 -0.04633872 -0.00427767
v 0.00654648 -0.04558604 0.00240089
v 0.00478202 -0.04507882 0.00864715
v 0.00696933 -0.04257339 0.01149654
v 0.00812462 -0.04040792 -0.01521726
v 0.00473312 -0.03717951 -0.01872142
v 0.00578608 -0.03995176 0.01465590
v 0.00789284 -0.03699631 0.01825076
v 0.00766336 -0.02994350 -0.01851139
v 0.00605184 -0.03016147 -0.01256307
v 0.00676555 -0.03307985 -0.00931912
v 0.00657689 -0.03078192 -0.00694843
v 0.00512106 -0.03398726 0.02141256
v 0.00664978 -0.03022829 0.02377963
v 0.00594225 -0.02735632 -0.01584746
v 0.00650980 -0.02496260 -0.00621939
v 0.00661667 -0.02476838 0.02444465
v 0.00645622 -0.01849285 -0.00632442
v 0.00647285 -0.01850891 0.02432643
v 0.00642343 -0.01219169 -0.00642921
v 0.00642736 -0.01220829 0.02422286
v 0.00636104 -0.00603424 -0.00642975
v 0.00636327 -0.00601747 0.02419953
v 0.00635283 0.00003251 -0.00639573
v 0.00636215 0.00011558 0.02419942
v 0.00637525 0.00610444 -0.00639899
v 0.00636454 0.00623935 0.02419696
v 0.00640583 0.01225776 -0.00643566
v 0.00637052 0.01237029 0.02419411
v 0.00639364 0.01854593 -0.00636536
v 0.00636568 0.01858889 0.02428523
v 0.00640122 0.02501318 -0.00618558
v 0.00621979 0.02484651 0.02446468
v 0.00579870 0.02777914 -0.01583699
v 0.00563762 0.03054078 -0.01859441
v 0.00754158 0.03015215 -0.01256942
v 0.00635325 0.03082225 -0.00682922
v 0.00615476 0.03036569 0.02381845
v 0.00684774 0.03716174 -0.01874545
v 0.00615906 0.03326810 -0.00930391
v 0.00480830 0.03716223 0.01838358
v 0.00768521 0.03418864 0.02141254
v 0.00646017 0.04058779 -0.01545062
v 0.00271979 0.04335430 -0.01427019
v 0.00625848 0.04136827 -0.01116035
v 0.00410016 0.04368318 -0.00929489
v 0.00836871 0.04313426 -0.00690988
v 0.00285437 0.04277683 0.01016959
v 0.00555951 0.04367630 0.00652516
v 0.00742984 0.04095894 0.00940870
v 0.00715851 0.03930546 0.01522105
v 0.00544539 0.04574572 -0.00443622
v 0.00630680 0.04570989 0.00176304
v 0.00908000 -0.04265037 -0.01059898
v 0.01187991 -0.04342332 -0.00690777
v 0.01096586 -0.04487401 -0.00264030
v 0.01056444 -0.04336769 0.00252372
v 0.01355325 -0.04239962 -0.00069299
v 0.00925445 -0.04297132 0.00742684
v 0.01387199 -0.03938928 -0.01530347
v 0.01089551 -0.03620976 -0.01859993
v 0.01318846 -0.04086647 -0.00938889
v 0.01391055 -0.04071477 0.00378790
v 0.01219768 -0.04053660 0.01066979
v 0.01161946 -0.03917178 0.01524803
v 0.01410301 -0.03601144 0.01834958
v 0.01317212 -0.03144420 -0.01933138
v 0.01258558 -0.03031566 -0.01144947
v 0.01159811 -0.03290854 -0.00891902
v 0.01317930 -0.02960691 -0.00719854
v 0.01084453 -0.03364451 0.02137702
v 0.01309577 -0.02903476 0.02356167
v 0.00961700 -0.02453194 -0.01625103
v 0.01320042 -0.02514660 -0.01812555
v 0.01153581 -0.02544628 -0.01374400
v 0.01185051 -0.02412088 -0.00620859
v 0.01190729 -0.02389329 0.02447628
v 0.01365992 -0.02237681 -0.01537228
v 0.01270192 -0.01867314 -0.00625366
v 0.01267926 -0.01859082 0.02442165
v 0.01265718 -0.01238447 -0.00626611
v 0.01258844 -0.01234695 0.02431059
v 0.01253672 -0.00620623 -0.00628055
v 0.01253381 -0.00612027 0.02422219
v 0.01252587 -0.00005119 -0.00630894
v 0.01251786 0.00007988 0.02420178
v 0.01257857 0.00603366 -0.00633192
v 0.01249305 0.00623365 0.02419412
v 0.01259304 0.01216916 -0.00637250
v 0.01250024 0.01235613 0.02419599
v 0.01259215 0.01846462 -0.00627149
v 0.01252429 0.01853692 0.02435653
v 0.00957866 0.02507164 -0.01536159
v 0.01360476 0.02273489 -0.01622896
v 0.01134362 0.02548062 -0.01790166
v 0.01251742 0.02533110 -0.01374760
v 0.01265050 0.02497558 -0.00611551
v 0.01238379 0.02479781 0.02453027
v 0.01240411 0.03071041 -0.01923233
v 0.01336644 0.02999933 -0.01140722
v 0.01218324 0.03087222 -0.00723948
v 0.01198460 0.03026601 0.02339457
v 0.01374483 0.03662178 -0.01862431
v 0.01099768 0.03299193 -0.00976446
v 0.01187237 0.03661352 0.01833790
v 0.01287989 0.03324710 0.02090650
v 0.01239630 0.03962811 -0.01538715
v 0.01202157 0.04070087 -0.00972769
v 0.01336419 0.04270750 -0.00558020
v 0.00919038 0.04279779 0.00360790
v 0.01204124 0.04366498 0.00000725
v 0.01380619 0.04093446 0.00296903
v 0.01325081 0.04025376 0.00993796
v 0.01249835 0.03955004 0.01457227
v 0.01111693 0.04489594 -0.00308947
v 0.01445987 -0.04248131 -0.00427981
v 0.01849300 -0.03889653 -0.01472560
v 0.01758665 -0.03586804 -0.01840178
v 0.01874070 -0.03938866 -0.00931784
v 0.01792419 -0.04036372 -0.00261207
v 0.01970434 -0.03979480 0.00363271
v 0.01793566 -0.03984448 0.00817802
v 0.01774322 -0.03905141 0.01408371
v 0.01976840 -0.03535745 0.01740535
v 0.01761156 -0.02975841 -0.01930216
v 0.01567362 -0.03040049 -0.00989419
v 0.01527062 -0.03168175 0.02100299
v 0.01909747 -0.03137454 0.01952898
v 0.01993970 -0.02383509 -0.01849067
v 0.01827872 -0.02467103 -0.01265081
v 0.01972088 -0.02781936 -0.00945012
v 0.01859184 -0.02521839 -0.00682639
v 0.01850363 -0.02855956 0.02188094
v 0.01833051 -0.02469722 0.02393171
v 0.01820607 -0.02109231 -0.01581733
v 0.01918599 -0.01890077 -0.00610167
v 0.01887806 -0.01862814 0.02452540
v 0.01894338 -0.01253255 -0.00608491
v 0.01882040 -0.01248891 0.02439534
v 0.01869581 -0.00570727 -0.00681018
v 0.01879563 -0.00630793 0.02432539
v 0.01906013 0.00134506 -0.00687166
v 0.01877309 -0.00009793 0.02429577
v 0.01798368 0.00680507 -0.00626481
v 0.01871395 0.00606232 0.02428493
v 0.01890161 0.01198761 -0.00618828
v 0.01875159 0.01216238 0.02435728
v 0.01896783 0.01837054 -0.00607321
v 0.01876866 0.01840152 0.02454298
v 0.01798154 0.02167441 -0.01584415
v 0.01792894 0.02427249 -0.01839863
v 0.01931183 0.02479249 -0.01265229
v 0.01869100 0.02540001 -0.00673460
v 0.01839661 0.02496163 0.02393993
v 0.01849197 0.03097303 -0.01926773
v 0.01923081 0.02806120 -0.00934064
v 0.01518394 0.03074135 -0.00883095
v 0.01605010 0.03002239 0.02179885
v 0.01770308 0.03248719 0.01938833
v 0.02066526 0.02813155 0.02147754
v 0.01945727 0.03594717 -0.01820551
v 0.01841015 0.03658718 0.01729502
v 0.01718045 0.03911118 -0.01617486
v 0.01871264 0.03961828 -0.01041018
v 0.01746525 0.04072084 -0.00381454
v 0.01474099 0.04281495 -0.00261083
v 0.01986816 0.03932363 0.00160128
v 0.01785271 0.03940887 0.00762839
v 0.01790569 0.03923937 0.01356927
v 0.02164629 -0.03634056 -0.01604304
v 0.02185914 -0.03702236 -0.01142709
v 0.02413899 -0.03723273 -0.00722144
v 0.02553330 -0.03940656 -0.00342362
v 0.02414119 -0.04002083 0.00187841
v 0.02391521 -0.03921399 0.00879055
v 0.02226223 -0.03733831 0.01461612
v 0.02502483 -0.03696062 0.01237344
v 0.02602258 -0.03394432 -0.01457145
v 0.02327905 -0.03119638 -0.01863572
v 0.02591798 -0.03501035 -0.00940153
v 0.02524114 -0.03438977 0.01437541
v 0.02357288 -0.03142466 0.01790001
v 0.02570422 -0.02544702 -0.01926761
v 0.02439652 -0.02479348 -0.01124848
v 0.02445096 -0.02649805 -0.00894243
v 0.02501112 -0.02329597 -0.00722719
v 0.02443448 -0.02763396 0.02037977
v 0.02427532 -0.02299442 0.02345502
v 0.02188030 -0.01732058 -0.01582552
v 0.02453833 -0.01856776 -0.01846342
v 0.02439160 -0.01964923 -0.01259727
v 0.02480757 -0.01731502 -0.00669406
v 0.02530788 -0.01716024 0.02389592
v 0.02301422 -0.01268665 -0.01627648
v 0.02626479 -0.01132539 -0.01812949
v 0.02523460 -0.01263602 -0.01316713
v 0.02374082 -0.01137423 -0.00717423
v 0.02423203 -0.01167979 0.02444202
v 0.02444114 -0.00938875 -0.01581486
v 0.02475391 -0.00404170 -0.01232505
v 0.02266249 -0.00662717 -0.00891027
v 0.02544738 -0.00861815 -0.01022265
v 0.02510208 -0.00636810 0.02444213
v 0.02207757 -0.00184149 -0.00940314
v 0.02588820 0.00081112 -0.01233697
v 0.02504253 -0.00016884 0.02444031
v 0.02457427 0.00195174 -0.00895124
v 0.02465271 0.00575938 -0.00676892
v 0.02502911 0.00597133 0.02446704
v 0.02283877 0.01372012 -0.01548063
v 0.02506010 0.00970193 -0.01634956
v 0.02495956 0.01266702 -0.01790850
v 0.02604369 0.01130800 -0.01383698
v 0.02547140 0.01192980 -0.00602818
v 0.02500810 0.01215191 0.02455090
v 0.02161062 0.01815090 -0.01582672
v 0.02425592 0.01856514 -0.01838076
v 0.02508128 0.01798337 -0.01269075
v 0.02542262 0.01920666 -0.00671181
v 0.02489829 0.01900821 0.02396687
v 0.02469476 0.02471246 -0.01917461
v 0.02511275 0.02394177 -0.01124373
v 0.02401282 0.02513924 -0.00753091
v 0.02368035 0.02458942 0.02324917
v 0.02527266 0.03116918 -0.01872033
v 0.02386658 0.02665731 -0.00987470
v 0.02368530 0.03127155 0.01840358
v 0.02444955 0.02716985 0.02144671
v 0.02499372 0.03453806 -0.01543855
v 0.02126951 0.03725584 -0.01426547
v 0.02560956 0.03510409 -0.01010765
v 0.02285253 0.03747782 -0.00927793
v 0.02589176 0.03649281 -0.00604166
v 0.02205881 0.03701292 0.00474763
v 0.02411495 0.03738164 0.00018580
v 0.02676156 0.03489190 0.00251475
v 0.02475489 0.03487907 0.00817482
v 0.02165280 0.03717417 0.01066807
v 0.02580617 0.03384960 0.01341398
v 0.02196370 0.03642117 0.01539765
v 0.02322444 0.03880393 -0.00409298
v 0.03237867 -0.03944199 -0.00349512
v 0.03052594 -0.03623454 -0.00635881
v 0.03027869 -0.03954379 0.00236326
v 0.02814547 -0.03699464 0.00903700
v 0.03161959 -0.03624859 0.00617112
v 0.03106685 -0.03254993 -0.01462763
v 0.03025331 -0.02973052 -0.01829303
v 0.03061165 -0.03334731 -0.01021040
v 0.03011479 -0.03338176 0.01036022
v 0.02809573 -0.03059737 0.01518410
v 0.03154674 -0.02973181 0.01243466
v 0.03018565 -0.02373959 -0.01933326
v 0.02719246 -0.02358462 -0.00979892
v 0.03009745 -0.02722705 0.01664342
v 0.02797305 -0.02474470 0.02060875
v 0.03201565 -0.02280415 0.01806411
v 0.03094024 -0.01830249 -0.01928775
v 0.02735377 -0.01850484 -0.00923944
v 0.02836836 -0.02052870 0.02146459
v 0.03256034 -0.01739950 0.01943207
v 0.03184431 -0.01293069 -0.01930017
v 0.02695230 -0.01255368 -0.00958410
v 0.03025344 -0.01606570 0.02179609
v 0.03003635 -0.01154540 0.02350466
v 0.02666256 -0.00718368 -0.01471323
v 0.03083505 -0.00637018 -0.01859868
v 0.03059585 -0.00487258 0.02377960
v 0.02771093 -0.00105112 -0.01599514
v 0.03163474 0.00022439 -0.01847767
v 0.03050916 0.00130932 0.02378470
v 0.02803198 0.00511885 -0.01508190
v 0.03040218 0.00651811 -0.01849481
v 0.02961418 0.00408539 -0.01003166
v 0.03048671 0.00734937 -0.01216090
v 0.03119438 0.00748107 -0.00721588
v 0.03047832 0.00742079 0.02381954
v 0.03084989 0.01226222 -0.01916085
v 0.03080552 0.01187238 -0.01144613
v 0.03041421 0.01323696 -0.00720800
v 0.02968480 0.01323879 0.02344789
v 0.03099310 0.01842502 -0.01924240
v 0.03074111 0.01500992 -0.00981815
v 0.02810315 0.01920278 -0.00938009
v 0.02889444 0.01794078 0.02190629
v 0.03183913 0.01884551 0.01951379
v 0.03201775 0.01481205 0.02099834
v 0.03106275 0.02477632 -0.01935049
v 0.02673960 0.02383904 -0.00888970
v 0.02743277 0.02432102 0.02071860
v 0.03144682 0.02435969 0.01769475
v 0.03214450 0.02963967 -0.01822075
v 0.02839865 0.02959637 0.01634266
v 0.03012441 0.03157374 0.01252442
v 0.03149559 0.02842174 0.01439329
v 0.02956935 0.03289596 -0.01612171
v 0.03097008 0.03350044 -0.01030481
v 0.02960830 0.03456788 -0.00370294
v 0.02676277 0.03651280 -0.00243570
v 0.03224426 0.03340653 0.00173374
v 0.02973386 0.03310656 0.00797653
v 0.03626982 -0.03910335 -0.00218308
v 0.03645844 -0.03723156 -0.00524537
v 0.03430502 -0.03660842 0.00257478
v 0.03755379 -0.03549844 -0.00091207
v 0.03436469 -0.03011160 -0.01614004
v 0.03467178 -0.03076010 -0.01157981
v 0.03657791 -0.03263542 -0.00686396
v 0.03514534 -0.03127891 0.00332304
v 0.03763642 -0.03050462 0.00040172
v 0.03317113 -0.03107866 0.00812116
v 0.03755349 -0.02744573 -0.01421391
v 0.03562734 -0.02511854 -0.01840324
v 0.03796215 -0.02858398 -0.00920016
v 0.03656722 -0.02713022 0.00350662
v 0.03504986 -0.02581269 0.00775139
v 0.03752133 -0.02332464 0.00630826
v 0.03381084 -0.02538146 0.01327299
v 0.03664497 -0.01857292 -0.01856120
v 0.03728646 -0.02150186 0.01095200
v 0.03644575 -0.02131502 0.01533784
v 0.03662559 -0.01784418 0.01734499
v 0.03726690 -0.01168635 -0.01866317
v 0.03340445 -0.01277884 0.02092287
v 0.03668781 -0.01147119 0.01837107
v 0.03640890 -0.00515882 -0.01932485
v 0.03433763 -0.00759284 0.02139789
v 0.03722357 -0.00455654 0.01834939
v 0.03736276 -0.00001758 -0.01933118
v 0.03428060 -0.00147411 0.02143054
v 0.03721443 0.00152303 0.01826195
v 0.03737729 0.00607064 -0.01932149
v 0.03324297 0.00716869 -0.00974995
v 0.03430028 0.00458357 0.02142072
v 0.03733833 0.00766896 0.01822124
v 0.03764574 0.01182518 -0.01864047
v 0.03334221 0.01069469 -0.00881632
v 0.03392420 0.01038465 0.02138434
v 0.03642793 0.01391774 0.01834907
v 0.03658246 0.01833211 -0.01861016
v 0.03580666 0.01960302 0.01742358
v 0.03670553 0.02423680 -0.01829980
v 0.03518175 0.02540865 0.00955765
v 0.03674347 0.02572532 0.00546867
v 0.03755537 0.02253179 0.00872302
v 0.03725727 0.02119037 0.01361057
v 0.03413538 0.02474003 0.01457372
v 0.03655510 0.02783756 -0.01615539
v 0.03384249 0.03110025 -0.01414974
v 0.03749734 0.02833246 -0.01150954
v 0.03525146 0.03157631 -0.00903269
v 0.03797438 0.03027699 -0.00676943
v 0.03445807 0.03010596 0.00467182
v 0.03657981 0.03173635 0.00019707
v 0.03775428 0.02859503 0.00188871
v 0.03291103 0.02955418 0.01016641
v 0.03550778 0.03300064 -0.00385124
v 0.03909216 -0.03597901 -0.00401881
v 0.03947438 -0.03009693 -0.00376180
v 0.03943086 -0.02296660 -0.01527180
v 0.03983375 -0.02461376 -0.00897614
v 0.04027876 -0.02373073 -0.00252736
v 0.03926690 -0.02483902 0.00208650
v 0.03968854 -0.01704740 -0.01529677
v 0.04028690 -0.01935205 -0.01062213
v 0.04080178 -0.01815402 -0.00493572
v 0.04083836 -0.01841756 0.00217759
v 0.03972229 -0.01841594 0.00877179
v 0.03912833 -0.01812792 0.01414814
v 0.04083211 -0.01191809 -0.01608438
v 0.04115736 -0.01353397 -0.01070168
v 0.04276136 -0.01314329 -0.00614593
v 0.04323295 -0.01509026 -0.00160040
v 0.04291302 -0.01459620 0.00324612
v 0.04122363 -0.01276034 0.00878958
v 0.04381889 -0.01145415 0.00637465
v 0.03964842 -0.01348214 0.01457995
v 0.04350442 -0.00900023 -0.01434550
v 0.04176333 -0.00663350 -0.01843762
v 0.04374223 -0.01014327 -0.00942028
v 0.04296938 -0.00857822 0.01006113
v 0.04027178 -0.00744357 0.01442486
v 0.04342529 -0.00410692 0.01199690
v 0.04310260 -0.00023848 -0.01871493
v 0.04025992 -0.00123597 0.01529020
v 0.04343595 0.00171723 0.01241749
v 0.04305333 0.00557051 -0.01819073
v 0.04031593 0.00568809 0.01462363
v 0.04294193 0.00684146 0.01147357
v 0.04270451 0.00895210 -0.01613217
v 0.04033730 0.01334328 -0.01487879
v 0.04347458 0.00954257 -0.01158420
v 0.04125804 0.01378604 -0.00860391
v 0.04377438 0.01161752 -0.00689420
v 0.04109702 0.01378762 0.00383731
v 0.04272442 0.01344197 -0.00067776
v 0.04372268 0.01043642 0.00255066
v 0.04335173 0.00912928 0.00742625
v 0.04093778 0.01209006 0.01072847
v 0.03957578 0.01152685 0.01521457
v 0.03975135 0.01972511 -0.01541789
v 0.04031686 0.01847039 -0.00980050
v 0.04271284 0.01432041 -0.00421838
v 0.04064873 0.01781966 -0.00265870
v 0.04007194 0.01861768 0.00283817
v 0.03962012 0.01856412 0.00857052
v 0.03929984 0.01668382 0.01464821
v 0.03927832 0.02461667 -0.01485239
v 0.03996276 0.02507954 -0.00941938
v 0.04036395 0.02394636 -0.00433028
v 0.03942121 0.02378920 0.00251360
v 0.03928332 0.02939803 -0.00267292
v 0.04555279 -0.01055324 -0.00387149
v 0.04544559 -0.01175909 0.00235838
v 0.04573838 -0.00460833 -0.01558041
v 0.04598604 -0.00631229 -0.00932533
v 0.04665050 -0.00528540 -0.00259671
v 0.04670226 -0.00622510 0.00281318
v 0.04551738 -0.00724569 0.00766710
v 0.04624073 0.00128604 -0.01543237
v 0.04681474 -0.00008766 -0.00990775
v 0.04665814 0.00009246 -0.00341024
v 0.04667373 0.00018891 0.00311149
v 0.04595666 -0.00125274 0.00860749
v 0.04547593 0.00599186 -0.01476308
v 0.04610532 0.00650523 -0.00932611
v 0.04665607 0.00550752 -0.00413897
v 0.04590459 0.00648741 0.00246089
v 0.04542279 0.00465437 0.00864259
v 0.04518265 0.01076556 -0.00257182
f 3 2 1
f 4 1 2
f 7 6 5
f 9 8 5
f 9 5 6
f 8 9 3
f 1 8 3
f 10 8 1
f 1 4 11
f 1 11 10
f 7 5 12
f 7 12 13
f 14 5 8
f 12 5 14
f 15 8 10
f 14 8 15
f 10 11 16
f 17 10 16
f 15 10 17
f 19 18 17
f 19 17 16
f 20 18 19
f 13 12 21
f 13 21 22
f 23 12 14
f 21 12 23
f 24 14 15
f 23 14 24
f 17 26 25
f 24 17 25
f 15 17 24
f 26 17 18
f 26 18 27
f 27 18 20
f 28 22 21
f 28 21 23
f 28 23 29
f 31 30 29
f 23 31 29
f 24 31 23
f 24 25 32
f 24 32 31
f 33 30 31
f 33 31 32
f 36 35 34
f 38 37 34
f 38 34 35
f 39 37 38
f 42 41 40
f 44 43 40
f 44 40 41
f 43 44 36
f 34 43 36
f 45 43 34
f 46 34 37
f 45 34 46
f 37 39 47
f 37 47 46
f 42 40 48
f 42 48 49
f 50 40 43
f 48 40 50
f 51 43 45
f 50 43 51
f 52 45 46
f 51 45 52
f 46 47 53
f 54 46 53
f 52 46 54
f 56 55 54
f 56 54 53
f 57 55 56
f 49 48 58
f 49 58 59
f 60 48 50
f 58 48 60
f 3 60 2
f 60 51 2
f 60 50 51
f 2 51 4
f 51 61 4
f 51 52 61
f 62 52 54
f 61 52 62
f 63 54 55
f 62 54 63
f 55 57 64
f 55 64 63
f 59 58 6
f 7 59 6
f 65 59 7
f 6 58 9
f 9 58 60
f 9 60 3
f 66 11 61
f 61 11 4
f 67 61 62
f 66 61 67
f 68 62 63
f 67 62 68
f 63 64 69
f 63 69 68
f 13 65 7
f 13 70 65
f 66 16 11
f 16 66 19
f 19 66 67
f 19 67 20
f 67 71 20
f 67 68 71
f 68 69 72
f 68 72 71
f 22 70 13
f 22 73 70
f 74 25 26
f 27 75 26
f 26 75 74
f 20 71 27
f 71 75 27
f 71 76 75
f 71 72 77
f 71 77 76
f 22 28 78
f 79 22 78
f 73 22 79
f 29 80 28
f 28 80 78
f 30 80 29
f 81 32 74
f 74 32 25
f 82 74 75
f 81 74 82
f 83 75 76
f 82 75 83
f 76 77 84
f 76 84 83
f 79 78 85
f 79 85 86
f 87 78 80
f 85 78 87
f 33 88 30
f 88 80 30
f 88 87 80
f 32 81 33
f 81 88 33
f 81 89 88
f 90 81 82
f 89 81 90
f 91 82 83
f 90 82 91
f 83 84 92
f 83 92 91
f 86 85 93
f 86 93 94
f 95 85 87
f 93 85 95
f 96 87 88
f 95 87 96
f 97 88 89
f 96 88 97
f 90 99 98
f 97 90 98
f 89 90 97
f 99 90 91
f 99 91 100
f 100 91 92
f 101 94 93
f 101 93 95
f 101 95 102
f 102 95 96
f 102 96 103
f 103 96 97
f 103 97 104
f 104 97 98
f 107 106 105
f 108 105 106
f 109 107 105
f 109 105 108
f 112 111 110
f 113 110 111
f 116 115 114
f 118 117 114
f 118 114 115
f 117 118 112
f 117 112 110
f 36 117 110
f 35 36 110
f 113 119 110
f 119 35 110
f 119 38 35
f 121 120 39
f 38 121 39
f 119 121 38
f 122 120 121
f 116 114 41
f 42 116 41
f 123 116 42
f 41 114 44
f 44 114 117
f 44 117 36
f 124 47 120
f 120 47 39
f 120 122 125
f 126 120 125
f 124 120 126
f 127 126 125
f 49 123 42
f 49 128 123
f 124 53 47
f 53 124 56
f 56 124 126
f 57 56 126
f 127 57 126
f 129 57 127
f 59 128 49
f 59 130 128
f 133 132 131
f 131 134 133
f 136 64 135
f 64 129 135
f 64 57 129
f 137 136 135
f 65 130 59
f 65 138 130
f 131 132 139
f 139 132 140
f 134 131 141
f 141 131 139
f 142 69 136
f 136 69 64
f 136 137 143
f 136 143 142
f 70 138 65
f 70 144 138
f 139 140 145
f 145 140 146
f 141 139 147
f 147 139 145
f 148 72 142
f 142 72 69
f 142 143 149
f 142 149 148
f 73 144 70
f 73 150 144
f 145 146 151
f 151 146 152
f 147 145 153
f 153 145 151
f 154 77 148
f 148 77 72
f 148 149 155
f 148 155 154
f 79 150 73
f 79 156 150
f 151 152 157
f 157 152 158
f 153 151 159
f 159 151 157
f 160 84 154
f 154 84 77
f 154 155 161
f 154 161 160
f 86 156 79
f 86 162 156
f 158 163 157
f 157 163 159
f 165 164 160
f 164 84 160
f 164 92 84
f 165 160 161
f 94 162 86
f 94 166 162
f 167 98 99
f 100 168 99
f 99 168 167
f 169 168 100
f 92 169 100
f 164 169 92
f 94 101 170
f 171 94 170
f 166 94 171
f 102 172 101
f 101 172 170
f 103 173 102
f 102 173 172
f 104 174 103
f 103 174 173
f 98 167 104
f 167 174 104
f 167 175 174
f 168 177 176
f 175 168 176
f 167 168 175
f 177 168 169
f 178 171 170
f 178 170 172
f 178 172 179
f 107 180 106
f 180 172 106
f 172 173 106
f 180 179 172
f 173 174 181
f 108 173 181
f 182 108 181
f 173 108 106
f 181 174 175
f 181 175 183
f 183 175 176
f 184 180 107
f 184 107 109
f 109 108 182
f 109 182 184
f 187 186 185
f 111 112 185
f 186 111 185
f 188 111 186
f 190 189 113
f 111 190 113
f 188 190 111
f 192 191 189
f 192 189 190
f 193 191 192
f 195 194 115
f 195 115 116
f 185 118 187
f 118 194 187
f 118 115 194
f 118 185 112
f 189 119 113
f 119 189 121
f 121 189 191
f 197 196 122
f 197 122 121
f 193 197 121
f 191 193 121
f 198 196 197
f 123 195 116
f 123 199 195
f 202 201 200
f 200 203 202
f 196 125 122
f 205 204 127
f 205 127 125
f 198 205 125
f 196 198 125
f 206 204 205
f 128 199 123
f 128 207 199
f 200 201 208
f 208 201 209
f 203 200 210
f 210 200 208
f 211 129 204
f 204 129 127
f 204 206 212
f 204 212 211
f 130 207 128
f 130 213 207
f 208 209 133
f 209 132 133
f 209 214 132
f 133 134 208
f 134 210 208
f 134 215 210
f 211 135 129
f 137 135 211
f 212 137 211
f 216 137 212
f 138 218 217
f 213 138 217
f 130 138 213
f 214 217 218
f 140 214 218
f 132 214 140
f 141 215 134
f 141 219 215
f 216 143 137
f 220 143 216
f 144 221 218
f 144 218 138
f 221 146 140
f 221 140 218
f 147 219 141
f 147 222 219
f 220 149 143
f 223 149 220
f 150 224 221
f 150 221 144
f 224 152 146
f 224 146 221
f 153 222 147
f 153 225 222
f 223 155 149
f 226 155 223
f 228 227 224
f 150 228 224
f 156 228 150
f 152 224 227
f 229 152 227
f 158 152 229
f 159 225 153
f 159 230 225
f 226 161 155
f 231 161 226
f 162 228 156
f 162 232 228
f 163 158 233
f 158 234 233
f 158 229 234
f 233 235 163
f 235 159 163
f 235 230 159
f 236 164 165
f 237 236 165
f 161 237 165
f 231 237 161
f 166 232 162
f 166 238 232
f 233 234 239
f 239 234 240
f 235 233 241
f 241 233 239
f 242 169 236
f 236 169 164
f 236 237 243
f 236 243 242
f 171 238 166
f 171 244 238
f 240 245 239
f 239 245 241
f 246 176 177
f 247 246 177
f 247 177 169
f 248 247 169
f 242 248 169
f 248 242 243
f 249 244 171
f 249 171 178
f 251 249 250
f 249 179 250
f 249 178 179
f 180 250 179
f 252 182 181
f 252 181 253
f 181 254 253
f 181 183 254
f 183 176 246
f 255 183 246
f 254 183 255
f 255 246 247
f 256 251 250
f 256 250 180
f 184 256 180
f 257 256 184
f 184 182 252
f 258 184 252
f 257 184 258
f 258 252 253
f 261 260 259
f 186 187 259
f 260 186 259
f 262 186 260
f 186 263 188
f 262 263 186
f 188 264 190
f 263 264 188
f 190 265 192
f 264 265 190
f 267 266 193
f 192 267 193
f 265 267 192
f 268 266 267
f 261 259 194
f 195 261 194
f 269 261 195
f 194 259 187
f 266 197 193
f 198 197 266
f 268 198 266
f 270 198 268
f 199 269 195
f 199 271 269
f 273 272 202
f 202 272 201
f 202 203 273
f 273 203 274
f 270 275 198
f 198 275 205
f 206 205 275
f 206 275 276
f 207 278 277
f 271 207 277
f 199 207 271
f 272 277 278
f 209 272 278
f 201 272 209
f 210 274 203
f 210 279 274
f 276 212 206
f 280 212 276
f 213 281 278
f 213 278 207
f 281 214 209
f 281 209 278
f 215 279 210
f 215 282 279
f 280 216 212
f 283 216 280
f 217 281 213
f 281 217 214
f 219 282 215
f 219 284 282
f 283 220 216
f 285 220 283
f 222 284 219
f 222 286 284
f 285 223 220
f 287 223 285
f 225 286 222
f 225 288 286
f 287 226 223
f 289 226 287
f 228 290 227
f 290 229 227
f 230 288 225
f 230 291 288
f 289 231 226
f 292 231 289
f 232 293 290
f 232 290 228
f 293 234 229
f 293 229 290
f 235 291 230
f 235 294 291
f 292 237 231
f 295 237 292
f 297 296 293
f 232 297 293
f 238 297 232
f 234 293 296
f 298 234 296
f 240 234 298
f 241 294 235
f 241 299 294
f 295 243 237
f 300 243 295
f 244 297 238
f 244 301 297
f 298 302 240
f 240 302 245
f 241 245 299
f 299 245 302
f 304 303 248
f 248 303 247
f 248 243 300
f 248 300 304
f 244 249 305
f 306 244 305
f 301 244 306
f 251 305 249
f 307 253 254
f 255 308 254
f 254 308 307
f 309 308 255
f 247 309 255
f 303 309 247
f 310 306 305
f 310 305 251
f 256 310 251
f 311 310 256
f 312 256 257
f 312 311 256
f 313 257 258
f 313 312 257
f 258 253 307
f 314 258 307
f 313 258 314
f 314 307 308
f 314 308 315
f 315 308 309
f 318 317 316
f 320 319 316
f 320 316 317
f 321 319 320
f 323 322 260
f 323 260 261
f 260 324 262
f 322 324 260
f 316 263 318
f 263 324 318
f 263 262 324
f 263 316 264
f 264 316 319
f 321 325 319
f 325 264 319
f 325 265 264
f 265 326 267
f 325 326 265
f 268 267 326
f 268 326 327
f 269 323 261
f 269 328 323
f 331 330 329
f 329 332 331
f 334 270 333
f 270 327 333
f 270 268 327
f 335 334 333
f 271 328 269
f 271 336 328
f 329 330 273
f 330 272 273
f 330 337 272
f 273 274 329
f 274 332 329
f 274 338 332
f 334 275 270
f 276 275 334
f 335 276 334
f 339 276 335
f 340 336 271
f 340 271 277
f 277 272 337
f 277 337 340
f 279 338 274
f 279 341 338
f 339 280 276
f 342 280 339
f 282 341 279
f 282 343 341
f 342 283 280
f 344 283 342
f 284 343 282
f 284 345 343
f 344 285 283
f 346 285 344
f 286 345 284
f 286 347 345
f 346 287 285
f 348 287 346
f 288 347 286
f 288 349 347
f 348 289 287
f 350 289 348
f 291 349 288
f 291 351 349
f 350 292 289
f 352 292 350
f 294 351 291
f 294 353 351
f 352 295 292
f 354 295 352
f 356 355 296
f 356 296 297
f 298 296 355
f 298 355 357
f 299 353 294
f 299 358 353
f 354 300 295
f 359 300 354
f 301 356 297
f 301 360 356
f 302 298 361
f 298 362 361
f 298 357 362
f 361 363 302
f 363 299 302
f 363 358 299
f 364 303 304
f 365 364 304
f 300 365 304
f 359 365 300
f 306 360 301
f 306 366 360
f 362 367 361
f 361 367 363
f 369 368 364
f 368 303 364
f 368 309 303
f 369 364 365
f 370 366 306
f 370 306 310
f 371 310 311
f 371 370 310
f 373 371 372
f 371 312 372
f 371 311 312
f 372 312 374
f 312 375 374
f 312 313 375
f 376 313 314
f 376 375 313
f 377 314 315
f 377 376 314
f 315 309 368
f 315 368 377
f 378 373 372
f 378 372 374
f 381 380 379
f 317 318 379
f 380 317 379
f 382 317 380
f 317 383 320
f 382 383 317
f 385 384 321
f 320 385 321
f 383 385 320
f 386 384 385
f 388 387 322
f 388 322 323
f 379 324 381
f 324 387 381
f 324 322 387
f 324 379 318
f 384 325 321
f 386 389 384
f 389 325 384
f 389 326 325
f 327 326 389
f 327 389 390
f 328 388 323
f 328 391 388
f 393 392 331
f 331 392 330
f 331 332 393
f 393 332 394
f 390 395 327
f 327 395 333
f 335 333 395
f 335 395 396
f 336 398 397
f 391 336 397
f 328 336 391
f 392 397 398
f 337 392 398
f 330 392 337
f 338 394 332
f 338 399 394
f 396 339 335
f 400 339 396
f 340 398 336
f 398 340 337
f 341 399 338
f 341 401 399
f 400 342 339
f 402 342 400
f 343 401 341
f 343 403 401
f 402 344 342
f 404 344 402
f 345 403 343
f 345 405 403
f 404 346 344
f 406 346 404
f 347 405 345
f 347 407 405
f 406 348 346
f 408 348 406
f 349 407 347
f 349 409 407
f 408 350 348
f 410 350 408
f 351 409 349
f 351 411 409
f 410 352 350
f 412 352 410
f 353 411 351
f 353 413 411
f 412 354 352
f 414 354 412
f 356 415 355
f 415 357 355
f 358 413 353
f 358 416 413
f 414 359 354
f 417 359 414
f 419 418 415
f 356 419 415
f 360 419 356
f 357 415 418
f 420 357 418
f 362 357 420
f 363 416 358
f 363 421 416
f 417 365 359
f 422 365 417
f 366 419 360
f 366 423 419
f 420 424 362
f 362 424 367
f 363 367 421
f 421 367 424
f 426 425 369
f 369 425 368
f 369 365 422
f 369 422 426
f 427 423 366
f 427 366 370
f 428 370 371
f 428 427 370
f 371 373 428
f 428 373 429
f 430 374 375
f 430 375 431
f 375 432 431
f 375 376 432
f 433 376 377
f 433 432 376
f 377 368 425
f 377 425 433
f 434 429 373
f 434 373 378
f 378 374 430
f 435 378 430
f 434 378 435
f 435 430 431
f 438 437 436
f 380 381 436
f 437 380 436
f 439 380 437
f 380 440 382
f 439 440 380
f 382 441 383
f 440 441 382
f 383 442 385
f 441 442 383
f 386 385 442
f 386 442 443
f 438 436 387
f 388 438 387
f 444 438 388
f 387 436 381
f 443 445 386
f 386 445 389
f 390 389 445
f 390 445 446
f 391 444 388
f 391 447 444
f 449 448 393
f 393 448 392
f 393 394 449
f 449 394 450
f 446 451 390
f 390 451 395
f 396 395 451
f 396 451 452
f 453 447 391
f 453 391 397
f 397 392 448
f 397 448 453
f 399 450 394
f 399 454 450
f 452 400 396
f 455 400 452
f 401 454 399
f 401 456 454
f 455 402 400
f 457 402 455
f 403 456 401
f 403 458 456
f 457 404 402
f 459 404 457
f 405 458 403
f 405 460 458
f 459 406 404
f 461 406 459
f 407 460 405
f 407 462 460
f 461 408 406
f 463 408 461
f 409 462 407
f 409 464 462
f 463 410 408
f 465 410 463
f 411 464 409
f 411 466 464
f 465 412 410
f 467 412 465
f 413 466 411
f 413 468 466
f 467 414 412
f 469 414 467
f 416 468 413
f 416 470 468
f 469 417 414
f 471 417 469
f 473 472 418
f 473 418 419
f 420 418 472
f 420 472 474
f 421 470 416
f 421 475 470
f 471 422 417
f 476 422 471
f 423 473 419
f 423 477 473
f 474 478 420
f 420 478 424
f 421 424 475
f 475 424 478
f 480 479 426
f 426 479 425
f 426 422 476
f 426 476 480
f 423 427 481
f 482 423 481
f 477 423 482
f 428 483 427
f 427 483 481
f 429 483 428
f 484 431 432
f 484 432 485
f 432 486 485
f 432 433 486
f 433 425 479
f 433 479 486
f 487 482 481
f 487 481 483
f 487 483 488
f 488 483 429
f 434 488 429
f 489 488 434
f 490 434 435
f 490 489 434
f 435 431 484
f 491 435 484
f 490 435 491
f 491 484 485
f 438 492 437
f 437 492 493
f 494 437 493
f 439 437 494
f 439 495 440
f 494 495 439
f 440 496 441
f 495 496 440
f 441 497 442
f 496 497 441
f 443 442 497
f 443 497 498
f 500 499 492
f 438 500 492
f 444 500 438
f 492 499 493
f 498 501 443
f 443 501 445
f 446 445 501
f 446 501 502
f 447 500 444
f 447 503 500
f 505 504 449
f 449 504 448
f 449 450 505
f 505 450 506
f 502 507 446
f 446 507 451
f 452 451 507
f 452 507 508
f 509 503 447
f 509 447 453
f 453 448 504
f 453 504 509
f 454 506 450
f 454 510 506
f 508 455 452
f 511 455 508
f 456 510 454
f 456 512 510
f 511 457 455
f 513 457 511
f 458 512 456
f 458 514 512
f 513 459 457
f 515 459 513
f 460 514 458
f 460 516 514
f 515 461 459
f 517 461 515
f 462 516 460
f 462 518 516
f 517 463 461
f 519 463 517
f 464 518 462
f 464 520 518
f 519 465 463
f 521 465 519
f 466 520 464
f 466 522 520
f 521 467 465
f 523 467 521
f 468 522 466
f 468 524 522
f 523 469 467
f 525 469 523
f 470 524 468
f 470 526 524
f 525 471 469
f 527 471 525
f 529 528 472
f 529 472 473
f 474 472 528
f 474 528 530
f 475 526 470
f 475 531 526
f 527 476 471
f 532 476 527
f 477 529 473
f 477 533 529
f 530 534 474
f 474 534 478
f 475 478 531
f 531 478 534
f 536 535 480
f 480 535 479
f 480 476 532
f 480 532 536
f 482 538 537
f 533 482 537
f 477 482 533
f 540 539 538
f 538 539 537
f 540 541 539
f 544 543 542
f 485 486 542
f 486 544 542
f 486 545 544
f 486 479 535
f 486 535 545
f 487 538 482
f 538 487 488
f 538 488 540
f 546 541 540
f 488 546 540
f 489 546 488
f 547 489 490
f 547 546 489
f 491 542 543
f 547 491 543
f 490 491 547
f 542 491 485
f 493 548 494
f 494 548 549
f 550 494 549
f 495 494 550
f 550 552 551
f 496 550 551
f 495 550 496
f 553 497 496
f 553 496 551
f 553 498 497
f 555 554 499
f 555 499 500
f 493 499 548
f 499 556 548
f 499 554 556
f 548 556 549
f 552 557 551
f 551 557 553
f 553 557 558
f 553 558 498
f 558 501 498
f 558 559 501
f 502 501 559
f 502 559 560
f 503 555 500
f 503 561 555
f 563 562 505
f 505 562 504
f 505 506 563
f 563 506 564
f 560 565 502
f 502 565 507
f 508 507 565
f 508 565 566
f 503 509 567
f 568 503 567
f 561 503 568
f 569 567 509
f 504 569 509
f 562 569 504
f 510 564 506
f 510 570 564
f 566 511 508
f 571 511 566
f 572 568 567
f 572 567 569
f 512 570 510
f 512 573 570
f 571 513 511
f 574 513 571
f 514 573 512
f 514 575 573
f 574 515 513
f 576 515 574
f 516 575 514
f 516 577 575
f 576 517 515
f 578 517 576
f 518 577 516
f 518 579 577
f 578 519 517
f 580 519 578
f 520 579 518
f 520 581 579
f 580 521 519
f 582 521 580
f 522 581 520
f 522 583 581
f 582 523 521
f 584 523 582
f 524 583 522
f 524 585 583
f 584 525 523
f 586 525 584
f 589 588 587
f 590 587 588
f 526 585 524
f 526 591 585
f 586 527 525
f 592 527 586
f 589 587 528
f 529 589 528
f 593 589 529
f 530 528 587
f 590 530 587
f 594 530 590
f 531 591 526
f 531 595 591
f 592 532 527
f 596 532 592
f 533 593 529
f 533 597 593
f 594 598 530
f 530 598 534
f 531 534 595
f 595 534 598
f 600 599 536
f 536 599 535
f 536 532 596
f 536 596 600
f 601 597 533
f 601 533 537
f 602 537 539
f 602 601 537
f 539 541 602
f 602 541 603
f 606 605 604
f 543 544 604
f 544 606 604
f 544 607 606
f 608 544 545
f 608 607 544
f 545 535 599
f 545 599 608
f 609 603 541
f 609 541 546
f 547 604 605
f 609 547 605
f 546 547 609
f 604 547 543
f 549 610 550
f 610 552 550
f 612 611 554
f 612 554 555
f 554 613 556
f 611 613 554
f 549 556 610
f 556 614 610
f 556 613 614
f 610 614 552
f 614 557 552
f 614 615 557
f 557 616 558
f 615 616 557
f 558 617 559
f 616 617 558
f 560 559 617
f 560 617 618
f 561 612 555
f 561 619 612
f 620 562 563
f 564 620 563
f 565 560 621
f 560 622 621
f 560 618 622
f 621 566 565
f 568 619 561
f 568 623 619
f 625 624 620
f 624 562 620
f 624 569 562
f 620 564 625
f 564 626 625
f 564 570 626
f 622 627 621
f 566 621 627
f 628 566 627
f 571 566 628
f 629 623 568
f 629 568 572
f 572 569 624
f 572 624 629
f 573 626 570
f 573 630 626
f 628 574 571
f 631 574 628
f 575 630 573
f 575 632 630
f 631 576 574
f 633 576 631
f 577 632 575
f 577 634 632
f 633 578 576
f 635 578 633
f 579 634 577
f 579 636 634
f 635 580 578
f 637 580 635
f 581 636 579
f 581 638 636
f 637 582 580
f 639 582 637
f 583 638 581
f 583 640 638
f 639 584 582
f 641 584 639
f 585 640 583
f 585 642 640
f 641 586 584
f 643 586 641
f 645 644 588
f 645 588 589
f 590 588 644
f 590 644 646
f 591 642 585
f 591 647 642
f 643 592 586
f 648 592 643
f 593 645 589
f 593 649 645
f 651 594 650
f 594 646 650
f 594 590 646
f 650 647 651
f 647 595 651
f 647 591 595
f 654 653 652
f 648 654 652
f 596 648 652
f 592 648 596
f 597 649 593
f 597 655 649
f 651 598 594
f 598 651 595
f 652 653 600
f 653 599 600
f 653 656 599
f 652 600 596
f 657 655 597
f 657 597 601
f 658 601 602
f 658 657 601
f 660 659 603
f 659 602 603
f 659 658 602
f 605 606 660
f 606 659 660
f 606 661 659
f 662 606 607
f 662 661 606
f 663 607 608
f 663 662 607
f 608 599 656
f 608 656 663
f 609 660 603
f 660 609 605
f 612 664 611
f 665 613 611
f 665 611 664
f 613 665 666
f 667 613 666
f 614 613 667
f 614 668 615
f 667 668 614
f 615 669 616
f 668 669 615
f 669 671 670
f 617 669 670
f 616 669 617
f 670 618 617
f 673 672 664
f 612 673 664
f 619 673 612
f 664 672 665
f 665 672 674
f 665 674 666
f 671 675 670
f 618 670 675
f 676 618 675
f 622 618 676
f 623 673 619
f 623 677 673
f 679 678 625
f 625 678 624
f 625 626 679
f 679 626 680
f 676 681 622
f 622 681 627
f 628 627 681
f 628 681 682
f 623 629 683
f 684 623 683
f 677 623 684
f 685 683 629
f 624 685 629
f 678 685 624
f 630 680 626
f 630 686 680
f 682 631 628
f 687 631 682
f 684 683 688
f 684 688 689
f 683 685 690
f 683 690 688
f 632 686 630
f 632 691 686
f 687 633 631
f 692 633 687
f 693 689 688
f 696 695 694
f 690 693 688
f 696 691 695
f 691 634 695
f 691 632 634
f 692 635 633
f 697 635 692
f 694 695 698
f 694 698 699
f 636 698 634
f 634 698 695
f 697 637 635
f 700 637 697
f 701 699 698
f 698 636 701
f 636 702 701
f 636 638 702
f 700 639 637
f 703 639 700
f 706 705 704
f 707 704 705
f 640 702 638
f 640 708 702
f 703 641 639
f 709 641 703
f 706 704 710
f 706 710 711
f 704 707 712
f 704 712 710
f 642 708 640
f 642 713 708
f 709 643 641
f 714 643 709
f 711 710 644
f 645 711 644
f 715 711 645
f 646 644 710
f 712 646 710
f 716 646 712
f 647 713 642
f 647 717 713
f 714 648 643
f 718 648 714
f 649 715 645
f 649 719 715
f 716 720 646
f 646 720 650
f 647 650 717
f 717 650 720
f 722 721 654
f 654 721 653
f 654 648 718
f 654 718 722
f 655 724 723
f 719 655 723
f 649 655 719
f 726 725 724
f 724 725 723
f 726 727 725
f 730 729 728
f 732 731 728
f 728 731 730
f 734 733 732
f 732 733 731
f 721 733 734
f 656 721 734
f 653 721 656
f 657 724 655
f 724 657 658
f 724 658 726
f 735 727 726
f 658 735 726
f 659 735 658
f 661 728 729
f 735 661 729
f 659 661 735
f 728 661 662
f 728 662 732
f 732 662 663
f 732 663 734
f 734 663 656
f 737 736 667
f 737 667 666
f 667 738 668
f 736 738 667
f 738 740 739
f 669 738 739
f 668 738 669
f 739 671 669
f 742 741 672
f 742 672 673
f 672 743 674
f 741 743 672
f 666 674 737
f 737 674 743
f 740 744 739
f 744 746 745
f 744 745 675
f 739 744 675
f 671 739 675
f 745 676 675
f 677 742 673
f 677 747 742
f 748 678 679
f 680 748 679
f 746 749 745
f 749 751 750
f 749 750 681
f 745 749 681
f 676 745 681
f 750 682 681
f 684 747 677
f 684 752 747
f 753 685 748
f 748 685 678
f 686 753 680
f 680 753 748
f 750 751 754
f 754 751 755
f 754 687 682
f 754 682 750
f 689 752 684
f 689 756 752
f 757 690 753
f 753 690 685
f 691 757 686
f 686 757 753
f 755 758 754
f 687 754 758
f 759 687 758
f 692 687 759
f 689 693 760
f 761 689 760
f 756 689 761
f 693 690 760
f 690 757 760
f 696 694 760
f 696 760 757
f 696 757 691
f 759 697 692
f 762 697 759
f 761 760 763
f 761 763 764
f 699 763 694
f 694 763 760
f 762 700 697
f 765 700 762
f 764 763 766
f 764 766 767
f 766 763 699
f 768 766 699
f 701 768 699
f 769 766 768
f 701 702 768
f 768 702 770
f 765 703 700
f 771 703 765
f 767 766 705
f 706 767 705
f 772 767 706
f 707 705 766
f 769 707 766
f 773 707 769
f 708 770 702
f 708 774 770
f 771 709 703
f 775 709 771
f 711 772 706
f 711 776 772
f 778 712 777
f 712 773 777
f 712 707 773
f 777 774 778
f 774 713 778
f 774 708 713
f 781 780 779
f 775 781 779
f 714 775 779
f 709 775 714
f 715 776 711
f 715 782 776
f 783 716 778
f 778 716 712
f 717 783 713
f 713 783 778
f 779 780 784
f 784 780 785
f 784 718 714
f 784 714 779
f 719 782 715
f 719 786 782
f 783 720 716
f 720 783 717
f 789 788 787
f 789 787 785
f 785 787 784
f 787 721 784
f 721 722 784
f 784 722 718
f 790 786 719
f 790 719 723
f 791 723 725
f 791 790 723
f 793 792 727
f 792 725 727
f 792 791 725
f 729 730 793
f 730 792 793
f 730 794 792
f 795 730 731
f 795 794 730
f 733 787 788
f 795 733 788
f 731 733 795
f 787 733 721
f 735 793 727
f 793 735 729
f 797 796 736
f 797 736 737
f 796 799 798
f 738 796 798
f 736 796 738
f 798 740 738
f 742 800 741
f 801 743 741
f 801 741 800
f 801 802 743
f 802 737 743
f 802 797 737
f 798 799 803
f 803 799 804
f 805 744 740
f 798 805 740
f 803 805 798
f 805 746 744
f 807 806 800
f 742 807 800
f 747 807 742
f 800 806 801
f 801 806 808
f 801 808 802
f 804 809 803
f 811 810 809
f 810 803 809
f 810 805 803
f 812 749 746
f 805 812 746
f 810 812 805
f 812 751 749
f 752 807 747
f 752 813 807
f 811 814 810
f 810 814 812
f 812 814 815
f 751 812 815
f 816 751 815
f 755 751 816
f 756 813 752
f 756 817 813
f 758 755 818
f 755 819 818
f 755 816 819
f 818 759 758
f 761 817 756
f 761 820 817
f 818 819 821
f 821 819 822
f 821 762 759
f 821 759 818
f 764 820 761
f 764 823 820
f 821 822 824
f 824 822 825
f 824 765 762
f 824 762 821
f 767 823 764
f 767 826 823
f 827 769 768
f 770 827 768
f 824 825 828
f 828 825 829
f 828 771 765
f 828 765 824
f 772 826 767
f 772 830 826
f 831 773 827
f 827 773 769
f 774 831 770
f 770 831 827
f 828 829 832
f 832 829 833
f 832 775 771
f 832 771 828
f 776 830 772
f 776 834 830
f 831 777 773
f 777 831 774
f 832 833 781
f 833 780 781
f 833 835 780
f 832 781 775
f 782 834 776
f 782 836 834
f 839 838 837
f 841 840 837
f 837 840 839
f 835 840 841
f 785 835 841
f 780 835 785
f 786 843 842
f 836 786 842
f 782 786 836
f 845 844 843
f 843 844 842
f 845 846 844
f 849 848 847
f 849 847 838
f 847 837 838
f 847 850 837
f 850 788 789
f 841 850 789
f 837 850 841
f 841 789 785
f 790 843 786
f 843 790 791
f 843 791 845
f 851 846 845
f 791 851 845
f 792 851 791
f 794 847 848
f 851 794 848
f 792 794 851
f 847 794 795
f 847 795 850
f 850 795 788
f 797 852 796
f 852 799 796
f 802 853 852
f 802 852 797
f 853 804 799
f 853 799 852
f 807 854 806
f 855 808 806
f 855 806 854
f 853 802 808
f 855 853 808
f 856 853 855
f 857 809 804
f 853 857 804
f 856 857 853
f 857 811 809
f 813 858 854
f 813 854 807
f 854 859 855
f 854 858 859
f 855 860 856
f 855 859 860
f 856 861 857
f 856 860 861
f 862 814 811
f 857 862 811
f 861 862 857
f 863 815 814
f 863 814 862
f 863 816 815
f 817 864 858
f 817 858 813
f 858 865 859
f 858 864 865
f 867 860 866
f 860 865 866
f 860 859 865
f 860 867 861
f 861 867 868
f 870 869 868
f 869 861 868
f 869 862 861
f 862 871 863
f 862 869 871
f 871 819 816
f 871 816 863
f 873 872 864
f 817 873 864
f 820 873 817
f 864 872 865
f 865 872 874
f 865 874 866
f 870 875 869
f 877 876 875
f 876 869 875
f 876 871 869
f 876 822 819
f 876 819 871
f 823 873 820
f 823 878 873
f 876 877 879
f 879 877 880
f 879 825 822
f 879 822 876
f 826 878 823
f 826 881 878
f 879 880 882
f 882 880 883
f 882 829 825
f 882 825 879
f 830 885 884
f 881 830 884
f 826 830 881
f 887 886 885
f 885 886 884
f 887 888 886
f 891 890 889
f 893 892 889
f 889 892 891
f 892 893 883
f 893 882 883
f 893 894 882
f 894 833 829
f 894 829 882
f 834 895 885
f 834 885 830
f 885 896 887
f 885 895 896
f 888 887 897
f 887 898 897
f 887 896 898
f 897 898 890
f 898 889 890
f 898 899 889
f 889 900 893
f 889 899 900
f 893 901 894
f 893 900 901
f 901 835 833
f 901 833 894
f 836 902 895
f 836 895 834
f 895 903 896
f 895 902 903
f 896 904 898
f 896 903 904
f 898 905 899
f 898 904 905
f 905 838 839
f 900 905 839
f 899 905 900
f 900 839 840
f 900 840 901
f 901 840 835
f 842 902 836
f 902 842 844
f 902 844 903
f 903 844 846
f 906 903 846
f 904 903 906
f 906 848 849
f 905 906 849
f 904 906 905
f 905 849 838
f 851 906 846
f 906 851 848
f 866 907 867
f 908 868 867
f 908 867 907
f 908 870 868
f 873 909 872
f 910 874 872
f 910 872 909
f 907 866 874
f 910 907 874
f 911 907 910
f 907 912 908
f 907 911 912
f 913 875 870
f 908 913 870
f 912 913 908
f 913 877 875
f 878 914 909
f 878 909 873
f 909 915 910
f 909 914 915
f 910 916 911
f 910 915 916
f 911 917 912
f 911 916 917
f 912 918 913
f 912 917 918
f 918 880 877
f 918 877 913
f 881 919 914
f 881 914 878
f 914 920 915
f 914 919 920
f 915 921 916
f 915 920 921
f 916 922 917
f 916 921 922
f 917 923 918
f 917 922 923
f 923 883 880
f 923 880 918
f 884 919 881
f 919 884 886
f 919 886 920
f 920 886 888
f 924 920 888
f 921 920 924
f 924 890 891
f 922 924 891
f 921 924 922
f 922 891 892
f 922 892 923
f 923 892 883
f 897 924 888
f 924 897 890

