# https://github.com/mikedh/trimesh
v -0.02222377 -0.01154207 -0.01593076
v -0.01975852 -0.01490799 -0.01762502
v -0.01984688 -0.01189998 -0.01928278
v -0.02249960 -0.01150408 -0.01079877
v -0.02047875 -0.01482475 -0.01343979
v -0.02241277 -0.01148710 -0.00547961
v -0.02040648 -0.01471012 -0.00803168
v -0.02240051 -0.01146897 -0.00029383
v -0.02031988 -0.01468339 -0.00277309
v -0.02246630 -0.01149768 0.00498214
v -0.02029543 -0.01470567 0.00241437
v -0.02264876 -0.01138163 0.01037689
v -0.02038505 -0.01476984 0.00778270
v -0.02226731 -0.01074657 0.01450352
v -0.02057005 -0.01433549 0.01295653
v -0.01940136 -0.01284450 0.01620558
v -0.02264113 -0.00679186 -0.01667776
v -0.01989384 -0.00678754 -0.01939661
v -0.02322132 -0.00681948 -0.01191091
v -0.02311568 -0.00682506 -0.00661951
v -0.02307935 -0.00678982 -0.00141498
v -0.02312173 -0.00672850 0.00379786
v -0.02324694 -0.00664795 0.00910094
v -0.02277460 -0.00654324 0.01384307
v -0.02010040 -0.00775230 0.01644135
v -0.02274172 -0.00134632 -0.01656256
v -0.02007497 -0.00134487 -0.01923622
v -0.02330705 -0.00217489 -0.01262670
v -0.02258698 -0.00124251 -0.00791958
v -0.02242007 -0.00211449 -0.00256484
v -0.02241285 -0.00203103 0.00263497
v -0.02249748 -0.00190359 0.00788274
v -0.02231437 -0.00186350 0.01286633
v -0.01990599 -0.00282153 0.01677106
v -0.02271137 0.00328392 -0.01720232
v -0.02017828 0.00401324 -0.01927478
v -0.02256135 0.00362890 -0.01275585
v -0.01950084 0.00384324 -0.00869332
v -0.02028463 0.00136608 -0.00510738
v -0.02027741 0.00115191 -0.00015093
v -0.02032934 0.00128110 0.00511625
v -0.02045325 0.00134002 0.01038084
v -0.02023397 0.00062405 0.01486815
v -0.02219551 0.00772562 -0.01690532
v -0.01916853 0.00947469 -0.01916170
v -0.02103393 0.00838917 -0.01405797
v -0.01969091 0.00668330 -0.01140731
v -0.02039031 0.01069912 -0.01645918
v -0.01750263 -0.01747428 -0.01579680
v -0.01349231 -0.01918604 -0.01667918
v -0.01603456 -0.01634463 -0.01919917
v -0.01780713 -0.01729214 -0.01066562
v -0.01512012 -0.01922384 -0.01266841
v -0.01767918 -0.01718721 -0.00536736
v -0.01440043 -0.01980159 -0.00797140
v -0.01763605 -0.01715863 -0.00021087
v -0.01509800 -0.01976196 -0.00271524
v -0.01759069 -0.01722178 0.00503938
v -0.01504701 -0.01975689 0.00240302
v -0.01771975 -0.01725906 0.01043023
v -0.01502403 -0.01986526 0.00775918
v -0.01784342 -0.01652880 0.01457711
v -0.01511938 -0.01962177 0.01286673
v -0.01464343 -0.01763591 0.01625557
v -0.01504539 -0.01224924 -0.02010498
v -0.01524572 -0.01183999 0.01682474
v -0.01506389 -0.00681559 -0.01989570
v -0.01469731 -0.00649791 0.01724636
v -0.01530149 -0.00143843 -0.01977494
v -0.01568232 -0.00317270 0.01915223
v -0.01770326 0.00020542 0.01880672
v -0.01407403 -0.00151698 0.02105276
v -0.01541638 0.00386458 -0.01982112
v -0.01804290 0.00352549 -0.00637093
v -0.01755467 0.00360040 -0.00281669
v -0.01754978 0.00370850 0.00247262
v -0.01765701 0.00377155 0.00774850
v -0.01784906 0.00334710 0.01376490
v -0.01681722 0.00376814 0.01845393
v -0.01449295 0.00210887 0.02199598
v -0.01468586 0.00837508 -0.01989851
v -0.01815088 0.01054439 -0.01263960
v -0.01545289 0.00872217 -0.00925221
v -0.01540344 0.00606279 -0.00581857
v -0.01485995 0.00615718 -0.00036004
v -0.01490964 0.00625127 0.00493754
v -0.01501565 0.00630794 0.01012264
v -0.01520265 0.00634162 0.01542913
v -0.01499168 0.00559875 0.01998389
v -0.01806047 0.01306016 -0.01662850
v -0.01450471 0.01401960 -0.01923649
v -0.01672126 0.01413620 -0.01289062
v -0.01435963 0.01375016 -0.01004856
v -0.01534411 0.01647303 -0.01554457
v -0.01434757 0.01676495 -0.01164973
v -0.01236105 -0.02244441 -0.00526477
v -0.00850041 -0.02439977 -0.00711443
v -0.01081597 -0.02211998 -0.00900186
v -0.01264564 -0.02246824 -0.00043372
v -0.00945111 -0.02458117 -0.00168530
v -0.01254465 -0.02251092 0.00479519
v -0.00935669 -0.02457542 0.00352104
v -0.01250161 -0.02263419 0.01019209
v -0.00920757 -0.02470304 0.00890147
v -0.01250002 -0.02202766 0.01436198
v -0.00919824 -0.02456186 0.01402554
v -0.00989302 -0.02223210 0.01703402
v -0.00886273 -0.01937949 -0.01727002
v -0.01088640 -0.01692628 -0.01936876
v -0.01008806 -0.02063764 -0.01295134
v -0.00991563 -0.01679434 0.01728249
v -0.00956436 -0.01221191 -0.01987639
v -0.01058226 -0.01103859 0.01645126
v -0.00967084 -0.00680472 -0.01969349
v -0.00877113 -0.00774732 0.01726794
v -0.00989925 -0.00150832 -0.01961989
v -0.01000703 -0.00452605 0.01993792
v -0.01013249 -0.00133963 0.02277724
v -0.01003279 0.00373845 -0.01966525
v -0.01074546 0.00141604 0.02459090
v -0.01255237 0.00532106 0.02408911
v -0.00883773 0.00283381 0.02663579
v -0.01006770 0.00901642 -0.01977036
v -0.01218074 0.00938035 -0.00684856
v -0.01222867 0.00869808 -0.00282638
v -0.01230760 0.00877451 0.00250735
v -0.01233348 0.00884697 0.00769222
v -0.01242638 0.00888931 0.01287076
v -0.01269873 0.00841911 0.01897576
v -0.01175081 0.00906978 0.02381548
v -0.00922129 0.00837844 0.02680458
v -0.00931094 0.01348521 -0.01983734
v -0.01012426 0.01368257 -0.00851365
v -0.00962953 0.01162046 -0.00534699
v -0.00980915 0.01135512 -0.00034990
v -0.00983289 0.01146854 0.00496918
v -0.00982263 0.01150496 0.01011325
v -0.00994269 0.01150415 0.01536285
v -0.01014743 0.01163096 0.02078298
v -0.00956658 0.01179077 0.02495497
v -0.01313065 0.01979944 -0.01649209
v -0.01017003 0.01889139 -0.01934690
v -0.01257800 0.02012786 -0.01226536
v -0.01062895 0.01843794 -0.00966594
v -0.01241130 0.02481806 -0.01651811
v -0.00972519 0.02480116 -0.01935420
v -0.01217049 0.02489256 -0.01221938
v -0.00917378 0.02355714 -0.00950886
v -0.01197172 0.02915250 -0.01717867
v -0.00874196 0.02963831 -0.01911126
v -0.01209655 0.02971702 -0.01309757
v -0.00939775 0.02872359 -0.00959952
v -0.00970887 0.03215587 -0.01552616
v -0.00906067 0.03198262 -0.01138701
v -0.00780069 -0.02287795 -0.01130879
v -0.00393336 -0.02448655 -0.01106805
v -0.00508507 -0.02221796 -0.01392005
v -0.00406468 -0.02531060 -0.00600152
v -0.00478031 -0.02527544 -0.00149027
v -0.00465943 -0.02524819 0.00373970
v -0.00448115 -0.02530485 0.00903917
v -0.00445653 -0.02547774 0.01444368
v -0.00699369 -0.02130532 0.01966925
v -0.00551672 -0.02468289 0.01857953
v -0.00350535 -0.02286715 0.02145135
v -0.00392072 -0.02005736 -0.01678109
v -0.00555456 -0.01684497 -0.01924558
v -0.00654428 -0.01690531 0.01897512
v -0.00355359 -0.01815391 0.02150112
v -0.00427459 -0.01216445 -0.01977267
v -0.00608477 -0.01232977 0.01744045
v -0.00384603 -0.01411757 0.01958058
v -0.00438796 -0.00684967 -0.01962235
v -0.00384795 -0.00915697 0.01957250
v -0.00694344 -0.00656294 0.01901958
v -0.00437709 -0.00665354 0.02185707
v -0.00456981 -0.00154688 -0.01954222
v -0.00755884 -0.00087436 0.02519225
v -0.00566013 -0.00388792 0.02379016
v -0.00405610 -0.00186943 0.02666979
v -0.00469034 0.00372983 -0.01956387
v -0.00490479 0.00384367 0.02748227
v -0.00472191 0.00896202 -0.01962920
v -0.00425643 0.00854504 0.02747828
v -0.00473391 0.01412458 -0.01971230
v -0.00704698 0.01469765 -0.00694587
v -0.00725050 0.01397141 -0.00296938
v -0.00738921 0.01410931 0.00236061
v -0.00735690 0.01418851 0.00758471
v -0.00736236 0.01419555 0.01274862
v -0.00747813 0.01430616 0.01808027
v -0.00729888 0.01452149 0.02323969
v -0.00525583 0.01301161 0.02672721
v -0.00489126 0.01939397 -0.01987825
v -0.00572968 0.01905033 -0.00870985
v -0.00350469 0.01660183 -0.00582800
v -0.00415393 0.01611976 -0.00038332
v -0.00414998 0.01627168 0.00489743
v -0.00412518 0.01628851 0.01006884
v -0.00415798 0.01634773 0.01534193
v -0.00420838 0.01654763 0.02074259
v -0.00377517 0.01617956 0.02489018
v -0.00490732 0.02475716 -0.02009696
v -0.00446758 0.02478591 -0.00885154
v -0.00383060 0.02890453 -0.01918133
v -0.00485138 0.02963615 -0.00961805
v -0.00593155 0.03189250 -0.01726917
v -0.00531972 0.03210939 -0.01311426
v 0.00136249 -0.02464965 -0.01216280
v -0.00052511 -0.02273792 -0.01481173
v 0.00053908 -0.02476126 -0.00722465
v -0.00012540 -0.02459994 -0.00129246
v 0.00006300 -0.02456027 0.00397915
v 0.00021576 -0.02457122 0.00921559
v 0.00029641 -0.02472626 0.01458058
v -0.00072406 -0.02455537 0.01935494
v 0.00102380 -0.02105460 0.02175345
v 0.00203341 -0.02020777 -0.01736896
v -0.00031407 -0.01688304 -0.01925208
v 0.00063364 -0.01726858 0.02239016
v 0.00090270 -0.01222458 -0.01977579
v -0.00275232 -0.01168553 0.01911562
v 0.00035196 -0.01316120 0.02206871
v 0.00085429 -0.00691942 -0.01965866
v -0.00214148 -0.00611005 0.02509743
v -0.00039979 -0.00904463 0.02381091
v 0.00124696 -0.00725133 0.02673841
v 0.00072607 -0.00162997 -0.01956755
v 0.00047435 -0.00165565 0.02741625
v 0.00061029 0.00364209 -0.01954272
v 0.00042295 0.00383832 0.02730584
v 0.00056790 0.00887101 -0.01955381
v 0.00046518 0.00924075 0.02739462
v 0.00052322 0.01406345 -0.01964892
v 0.00048773 0.01402195 0.02695086
v 0.00040320 0.01934184 -0.01989219
v -0.00047101 0.01988485 -0.00858686
v 0.00184655 0.01717898 -0.00620265
v 0.00054484 0.01674632 -0.00155483
v 0.00054279 0.01691925 0.00375890
v 0.00060997 0.01697208 0.00894797
v 0.00060844 0.01700349 0.01416034
v 0.00055771 0.01712929 0.01951666
v 0.00053928 0.01665861 0.02431304
v 0.00070279 0.02412169 -0.01920919
v 0.00030864 0.02488519 -0.00975616
v -0.00007411 0.02738061 -0.01731558
v -0.00219950 0.03019857 -0.01563489
v 0.00085564 0.02699056 -0.01328376
v -0.00172623 0.02939593 -0.01153979
v 0.00473166 -0.02408107 -0.01086739
v 0.00576942 -0.02210175 -0.01435585
v 0.00400258 -0.02292851 -0.00707809
v 0.00600227 -0.02257340 -0.00941470
v 0.00318625 -0.02246061 -0.00250464
v 0.00326150 -0.02241367 0.00283169
v 0.00340369 -0.02244988 0.00798765
v 0.00352212 -0.02252128 0.01328892
v 0.00322309 -0.02263173 0.01837962
v 0.00641466 -0.01953634 -0.01701688
v 0.00522688 -0.01655332 -0.01908574
v 0.00656956 -0.02023823 -0.00644390
v 0.00573487 -0.01966600 -0.00001315
v 0.00583372 -0.01972620 0.00516281
v 0.00593148 -0.01975420 0.01036331
v 0.00608569 -0.01987391 0.01566243
v 0.00538548 -0.01991716 0.01977497
v 0.00530508 -0.01702918 0.02173403
v 0.00536989 -0.01157981 -0.01976157
v 0.00649314 -0.01424248 0.02396279
v 0.00305137 -0.01143098 0.02520414
v 0.00639494 -0.01177001 0.02666915
v 0.00608367 -0.00700109 -0.01969958
v 0.00593768 -0.00717132 0.02755229
v 0.00602447 -0.00169347 -0.01963524
v 0.00586488 -0.00183448 0.02734949
v 0.00590866 0.00354973 -0.01956474
v 0.00595211 0.00353409 0.02731748
v 0.00579875 0.00879558 -0.01955165
v 0.00598811 0.00906576 0.02753350
v 0.00566729 0.01407117 -0.01968911
v 0.00562146 0.01389014 0.02671005
v 0.00611378 0.01937450 -0.01937541
v 0.00513028 0.01938837 -0.00921567
v 0.00610435 0.01616501 -0.00681716
v 0.00514715 0.01606686 -0.00278646
v 0.00521431 0.01623357 0.00256154
v 0.00534436 0.01629236 0.00782576
v 0.00535097 0.01629982 0.01301006
v 0.00533601 0.01640402 0.01831631
v 0.00532103 0.01620266 0.02340448
v 0.00592580 0.02230564 -0.01654694
v 0.00290568 0.02455020 -0.01560920
v 0.00637441 0.02189974 -0.01233631
v 0.00334465 0.02368828 -0.01173172
v 0.00749839 -0.02220767 -0.01136726
v 0.00891634 -0.01693178 -0.01764134
v 0.01122429 -0.01749493 -0.01474020
v 0.00990707 -0.01936344 -0.01131956
v 0.00920687 -0.01742985 -0.00712442
v 0.01119006 -0.01712042 -0.00941573
v 0.00829312 -0.01699431 -0.00258275
v 0.00826628 -0.01703305 0.00261968
v 0.00840087 -0.01713089 0.00766251
v 0.00858225 -0.01716572 0.01286466
v 0.00844347 -0.01728248 0.01794110
v 0.01196408 -0.01462780 -0.01692571
v 0.01029462 -0.01213437 -0.01911217
v 0.01169686 -0.01489715 -0.00645493
v 0.01083309 -0.01443121 -0.00018931
v 0.01094902 -0.01455121 0.00493270
v 0.01104150 -0.01456696 0.01010000
v 0.01126956 -0.01459103 0.01539133
v 0.01069571 -0.01480049 0.02087558
v 0.01036663 -0.01391006 0.02492795
v 0.01073174 -0.01090141 0.02666824
v 0.01058493 -0.00632739 -0.01972391
v 0.01161219 -0.00581525 0.02702999
v 0.01130827 -0.00173769 -0.01970264
v 0.01063871 -0.00118869 0.02742255
v 0.01123953 0.00354043 -0.01966155
v 0.01141302 0.00349926 0.02755968
v 0.01104827 0.00880215 -0.01967934
v 0.01078899 0.00925782 0.02688395
v 0.01085909 0.01418373 -0.01986932
v 0.00860471 0.01398647 -0.00535313
v 0.01060653 0.01436213 -0.00858941
v 0.01156338 0.01124787 -0.00698877
v 0.01088799 0.01140786 -0.00289833
v 0.00840166 0.01414223 -0.00024918
v 0.01098841 0.01148477 0.00248607
v 0.00855866 0.01418960 0.00511266
v 0.01104924 0.01147262 0.00773695
v 0.00857769 0.01418155 0.01030162
v 0.01103788 0.01148305 0.01292166
v 0.00856891 0.01424051 0.01554850
v 0.01105469 0.01159597 0.01827003
v 0.00858970 0.01434845 0.02091273
v 0.01117544 0.01133171 0.02341341
v 0.00862553 0.01366100 0.02506252
v 0.01197473 0.01887588 -0.01936300
v 0.01144297 0.01927195 -0.00958155
v 0.00996369 0.02135656 -0.01721826
v 0.01104754 0.02244557 -0.01284219
v 0.01269670 -0.01685087 -0.01133016
v 0.01421671 -0.01155815 -0.01755059
v 0.01646940 -0.01223640 -0.01460569
v 0.01508378 -0.01408340 -0.01125845
v 0.01440370 -0.01227024 -0.00716648
v 0.01640024 -0.01196904 -0.00945992
v 0.01353608 -0.01191172 -0.00272333
v 0.01354162 -0.01199694 0.00248395
v 0.01358358 -0.01152941 0.00832417
v 0.01303412 -0.01129729 0.01408913
v 0.01329827 -0.01142461 0.01948458
v 0.01293925 -0.01232390 0.02379633
v 0.01728901 -0.00920911 -0.01684409
v 0.01562120 -0.00676864 -0.01912968
v 0.01701997 -0.00994715 -0.00656688
v 0.01624178 -0.00949831 -0.00037087
v 0.01629897 -0.00956861 0.00483440
v 0.01588963 -0.00879136 0.00918066
v 0.01448573 -0.00798797 0.01309743
v 0.01663930 -0.00607484 0.01179763
v 0.01432136 -0.00731075 0.01815613
v 0.01398423 -0.00800647 0.02377172
v 0.01585107 -0.00102289 -0.01980871
v 0.01635969 -0.00430384 0.01568416
v 0.01654388 -0.00404553 0.02077519
v 0.01597750 -0.00431674 0.02491711
v 0.01572841 -0.00097950 0.02679904
v 0.01657213 0.00349239 -0.01984794
v 0.01550902 0.00456018 0.02680273
v 0.01638011 0.00879309 -0.01992089
v 0.01376150 0.00867661 -0.00535290
v 0.01588322 0.00901511 -0.00858915
v 0.01684766 0.00600625 -0.00674950
v 0.01613937 0.00623444 -0.00270126
v 0.01350007 0.00888001 -0.00025075
v 0.01624064 0.00642110 0.00267789
v 0.01361899 0.00889817 0.00511290
v 0.01634101 0.00642337 0.00797293
v 0.01362689 0.00888635 0.01030136
v 0.01635366 0.00643782 0.01317104
v 0.01362239 0.00894914 0.01554962
v 0.01644268 0.00651577 0.01847930
v 0.01374723 0.00900041 0.02091914
v 0.01664135 0.00611320 0.02355586
v 0.01389417 0.00827476 0.02507919
v 0.01614282 0.01420714 -0.02006470
v 0.01626979 0.01373777 -0.00905089
v 0.01700031 0.01836091 -0.01915674
v 0.01707547 0.01851485 -0.00878623
v 0.01564210 0.02187375 -0.01596899
v 0.01455039 0.02474378 -0.01242135
v 0.01693701 0.02479663 -0.01321705
v 0.01565731 0.02334616 -0.00995178
v 0.01615287 0.02595940 -0.01157997
v 0.01796039 -0.01172157 -0.01128854
v 0.01966861 -0.00624367 -0.01755954
v 0.02064253 -0.00794391 -0.01486350
v 0.02039852 -0.00914295 -0.01117091
v 0.01928360 -0.00643284 -0.00645639
v 0.02175607 -0.00559338 -0.00958964
v 0.01831650 -0.00628550 -0.00161062
v 0.01842557 -0.00630395 0.00363231
v 0.01810516 -0.00628341 0.00848411
v 0.02241834 -0.00472799 -0.01646945
v 0.02038521 -0.00201546 -0.01907928
v 0.01954301 -0.00180000 -0.00601495
v 0.02164498 -0.00074196 -0.00917238
v 0.01890128 -0.00162216 -0.00145106
v 0.01906515 -0.00152448 0.00378513
v 0.01916516 -0.00155047 0.00896769
v 0.01858461 -0.00167807 0.01392199
v 0.01864897 -0.00072137 0.01955677
v 0.01829943 -0.00152620 0.02374351
v 0.02131851 0.00346176 -0.01927723
v 0.01880038 0.00285659 -0.00602642
v 0.02079065 0.00459280 -0.00925484
v 0.01819995 0.00304496 -0.00138472
v 0.01835613 0.00319853 0.00393986
v 0.01848523 0.00320866 0.00920257
v 0.01852040 0.00323828 0.01438854
v 0.01866427 0.00326376 0.01964758
v 0.01852017 0.00220578 0.02434220
v 0.02108751 0.00883288 -0.01937976
v 0.02206933 0.00976271 -0.00958414
v 0.02091801 0.01390621 -0.01911630
v 0.02107126 0.01456926 -0.00883520
v 0.02221347 0.01692271 -0.01677935
v 0.01877833 0.01964055 -0.01737005
v 0.02171654 0.01953966 -0.01451390
v 0.02127766 0.01970775 -0.00958864
v 0.02047382 0.02198152 -0.01258206
v 0.01852581 0.02434916 -0.01121690
v 0.02333439 -0.00587492 -0.01312000
v 0.02387998 -0.00107985 -0.01607882
v 0.02379775 -0.00273228 -0.01186056
v 0.02398365 0.00466423 -0.01661883
v 0.02386492 0.00201472 -0.01244895
v 0.02366870 0.00954490 -0.01730897
v 0.02456174 0.00835974 -0.01299673
v 0.02403726 0.01301596 -0.01650130
v 0.02638777 0.01371624 -0.01372862
v 0.02670066 0.01154581 -0.01118436
v 0.02580088 0.01439523 -0.00988271
v 0.02613313 0.01639739 -0.01259416
v 0.02431140 0.01860084 -0.01121899
v 0.02822925 0.01392289 -0.01153439
f 3 2 1
f 5 4 1
f 5 1 2
f 7 6 4
f 7 4 5
f 9 8 6
f 9 6 7
f 11 10 8
f 11 8 9
f 13 12 10
f 13 10 11
f 15 14 12
f 15 12 13
f 16 14 15
f 3 1 17
f 3 17 18
f 19 1 4
f 17 1 19
f 20 4 6
f 19 4 20
f 21 6 8
f 20 6 21
f 22 8 10
f 21 8 22
f 23 10 12
f 22 10 23
f 24 12 14
f 23 12 24
f 14 16 25
f 14 25 24
f 18 17 26
f 18 26 27
f 28 17 19
f 26 17 28
f 29 19 20
f 28 19 29
f 30 20 21
f 29 20 30
f 31 21 22
f 30 21 31
f 32 22 23
f 31 22 32
f 33 23 24
f 32 23 33
f 24 25 34
f 24 34 33
f 27 26 35
f 27 35 36
f 37 26 28
f 35 26 37
f 29 39 38
f 37 29 38
f 28 29 37
f 39 29 30
f 39 30 40
f 40 30 31
f 40 31 41
f 41 31 32
f 41 32 42
f 42 32 33
f 42 33 43
f 43 33 34
f 36 35 44
f 36 44 45
f 37 47 46
f 44 37 46
f 35 37 44
f 47 37 38
f 48 45 44
f 48 44 46
f 51 50 49
f 53 52 49
f 53 49 50
f 55 54 52
f 55 52 53
f 57 56 54
f 57 54 55
f 59 58 56
f 59 56 57
f 61 60 58
f 61 58 59
f 63 62 60
f 63 60 61
f 64 62 63
f 51 49 2
f 3 51 2
f 65 51 3
f 2 49 5
f 5 49 52
f 5 52 7
f 7 52 54
f 7 54 9
f 9 54 56
f 9 56 11
f 11 56 58
f 11 58 13
f 13 58 60
f 13 60 15
f 15 60 62
f 16 15 62
f 64 16 62
f 66 16 64
f 18 65 3
f 18 67 65
f 66 25 16
f 68 25 66
f 27 67 18
f 27 69 67
f 71 34 70
f 34 68 70
f 34 25 68
f 72 71 70
f 36 69 27
f 36 73 69
f 74 38 39
f 40 75 39
f 39 75 74
f 41 76 40
f 40 76 75
f 42 77 41
f 41 77 76
f 43 78 42
f 42 78 77
f 34 71 43
f 71 78 43
f 71 79 78
f 71 72 80
f 71 80 79
f 45 73 36
f 45 81 73
f 82 46 47
f 83 82 47
f 83 47 38
f 84 83 38
f 74 84 38
f 84 74 75
f 84 75 85
f 85 75 76
f 85 76 86
f 86 76 77
f 86 77 87
f 87 77 78
f 87 78 88
f 88 78 79
f 88 79 89
f 89 79 80
f 45 48 90
f 91 45 90
f 81 45 91
f 46 82 48
f 82 90 48
f 82 92 90
f 82 83 93
f 82 93 92
f 94 91 90
f 94 90 92
f 94 92 95
f 95 92 93
f 98 97 96
f 100 99 96
f 100 96 97
f 102 101 99
f 102 99 100
f 104 103 101
f 104 101 102
f 106 105 103
f 106 103 104
f 107 105 106
f 109 108 50
f 109 50 51
f 50 110 53
f 108 110 50
f 96 55 98
f 55 110 98
f 55 53 110
f 55 96 57
f 57 96 99
f 57 99 59
f 59 99 101
f 59 101 61
f 61 101 103
f 61 103 63
f 63 103 105
f 64 63 105
f 107 64 105
f 111 64 107
f 65 109 51
f 65 112 109
f 111 66 64
f 113 66 111
f 67 112 65
f 67 114 112
f 113 68 66
f 115 68 113
f 69 114 67
f 69 116 114
f 115 117 68
f 68 117 70
f 72 70 117
f 72 117 118
f 73 116 69
f 73 119 116
f 121 80 120
f 80 118 120
f 80 72 118
f 122 121 120
f 81 119 73
f 81 123 119
f 124 83 84
f 85 125 84
f 84 125 124
f 86 126 85
f 85 126 125
f 87 127 86
f 86 127 126
f 88 128 87
f 87 128 127
f 89 129 88
f 88 129 128
f 80 121 89
f 121 129 89
f 121 130 129
f 121 122 131
f 121 131 130
f 91 123 81
f 91 132 123
f 134 133 124
f 133 83 124
f 133 93 83
f 134 124 125
f 134 125 135
f 135 125 126
f 135 126 136
f 136 126 127
f 136 127 137
f 137 127 128
f 137 128 138
f 138 128 129
f 138 129 139
f 139 129 130
f 139 130 140
f 140 130 131
f 91 94 141
f 142 91 141
f 132 91 142
f 95 143 94
f 94 143 141
f 144 143 95
f 93 144 95
f 133 144 93
f 142 141 145
f 142 145 146
f 147 141 143
f 145 141 147
f 143 144 148
f 143 148 147
f 146 145 149
f 146 149 150
f 151 145 147
f 149 145 151
f 147 148 152
f 147 152 151
f 153 150 149
f 153 149 151
f 153 151 154
f 154 151 152
f 157 156 155
f 97 98 155
f 156 97 155
f 158 97 156
f 97 159 100
f 158 159 97
f 100 160 102
f 159 160 100
f 102 161 104
f 160 161 102
f 104 162 106
f 161 162 104
f 164 163 107
f 106 164 107
f 162 164 106
f 165 163 164
f 167 166 108
f 167 108 109
f 155 110 157
f 110 166 157
f 110 108 166
f 110 155 98
f 168 111 163
f 163 111 107
f 163 165 169
f 163 169 168
f 112 167 109
f 112 170 167
f 172 171 168
f 171 111 168
f 171 113 111
f 172 168 169
f 114 170 112
f 114 173 170
f 175 115 174
f 115 171 174
f 115 113 171
f 176 175 174
f 116 173 114
f 116 177 173
f 175 117 115
f 179 178 118
f 179 118 117
f 176 179 117
f 175 176 117
f 180 178 179
f 119 177 116
f 119 181 177
f 178 120 118
f 122 120 178
f 180 122 178
f 182 122 180
f 123 181 119
f 123 183 181
f 182 131 122
f 184 131 182
f 132 183 123
f 132 185 183
f 186 133 134
f 135 187 134
f 134 187 186
f 136 188 135
f 135 188 187
f 137 189 136
f 136 189 188
f 138 190 137
f 137 190 189
f 139 191 138
f 138 191 190
f 140 192 139
f 139 192 191
f 193 192 140
f 131 193 140
f 184 193 131
f 142 185 132
f 142 194 185
f 196 195 186
f 195 133 186
f 195 144 133
f 196 186 187
f 196 187 197
f 197 187 188
f 197 188 198
f 198 188 189
f 198 189 199
f 199 189 190
f 199 190 200
f 200 190 191
f 200 191 201
f 201 191 192
f 201 192 202
f 202 192 193
f 146 194 142
f 146 203 194
f 195 148 144
f 204 148 195
f 150 203 146
f 150 205 203
f 204 152 148
f 206 152 204
f 207 205 150
f 207 150 153
f 208 153 154
f 208 207 153
f 154 152 206
f 154 206 208
f 210 209 156
f 210 156 157
f 156 211 158
f 209 211 156
f 158 212 159
f 211 212 158
f 159 213 160
f 212 213 159
f 160 214 161
f 213 214 160
f 161 215 162
f 214 215 161
f 162 216 164
f 215 216 162
f 165 164 216
f 165 216 217
f 219 218 166
f 219 166 167
f 157 166 210
f 210 166 218
f 217 169 165
f 220 169 217
f 170 219 167
f 170 221 219
f 222 171 172
f 223 222 172
f 169 223 172
f 220 223 169
f 173 221 170
f 173 224 221
f 222 174 171
f 226 225 176
f 226 176 174
f 223 226 174
f 222 223 174
f 227 225 226
f 177 224 173
f 177 228 224
f 225 179 176
f 180 179 225
f 227 180 225
f 229 180 227
f 181 228 177
f 181 230 228
f 229 182 180
f 231 182 229
f 183 230 181
f 183 232 230
f 231 184 182
f 233 184 231
f 185 232 183
f 185 234 232
f 233 193 184
f 235 193 233
f 194 234 185
f 194 236 234
f 238 237 196
f 196 237 195
f 239 196 197
f 239 238 196
f 240 197 198
f 240 239 197
f 241 198 199
f 241 240 198
f 242 199 200
f 242 241 199
f 243 200 201
f 243 242 200
f 244 201 202
f 244 243 201
f 202 193 235
f 202 235 244
f 203 236 194
f 203 245 236
f 237 204 195
f 246 204 237
f 205 248 247
f 245 205 247
f 203 205 245
f 250 249 248
f 248 249 247
f 246 249 250
f 206 246 250
f 204 246 206
f 207 248 205
f 248 207 208
f 248 208 250
f 250 208 206
f 252 251 209
f 252 209 210
f 251 254 253
f 211 251 253
f 209 251 211
f 255 212 211
f 255 211 253
f 256 213 212
f 256 212 255
f 257 214 213
f 257 213 256
f 258 215 214
f 258 214 257
f 259 216 215
f 259 215 258
f 259 217 216
f 261 260 218
f 261 218 219
f 210 218 252
f 252 218 260
f 254 262 253
f 253 262 255
f 255 262 263
f 255 263 256
f 256 263 264
f 256 264 257
f 257 264 265
f 257 265 258
f 258 265 266
f 258 266 259
f 259 266 267
f 217 259 267
f 268 217 267
f 220 217 268
f 221 261 219
f 221 269 261
f 271 223 270
f 223 268 270
f 223 220 268
f 272 271 270
f 224 269 221
f 224 273 269
f 271 226 223
f 227 226 271
f 272 227 271
f 274 227 272
f 228 273 224
f 228 275 273
f 274 229 227
f 276 229 274
f 230 275 228
f 230 277 275
f 276 231 229
f 278 231 276
f 232 277 230
f 232 279 277
f 278 233 231
f 280 233 278
f 234 279 232
f 234 281 279
f 280 235 233
f 282 235 280
f 236 281 234
f 236 283 281
f 285 284 238
f 238 284 237
f 286 238 239
f 286 285 238
f 287 239 240
f 287 286 239
f 288 240 241
f 288 287 240
f 289 241 242
f 289 288 241
f 290 242 243
f 290 289 242
f 291 243 244
f 291 290 243
f 244 235 282
f 244 282 291
f 245 293 292
f 283 245 292
f 236 245 283
f 295 294 293
f 293 294 292
f 284 294 295
f 246 284 295
f 237 284 246
f 247 293 245
f 293 247 249
f 293 249 295
f 295 249 246
f 252 296 251
f 296 254 251
f 261 297 260
f 297 298 260
f 260 298 252
f 298 299 252
f 299 296 252
f 299 301 300
f 299 300 262
f 296 299 262
f 254 296 262
f 302 263 262
f 302 262 300
f 303 264 263
f 303 263 302
f 304 265 264
f 304 264 303
f 305 266 265
f 305 265 304
f 306 267 266
f 306 266 305
f 306 268 267
f 308 307 297
f 261 308 297
f 269 308 261
f 297 307 298
f 301 309 300
f 300 309 302
f 302 309 310
f 302 310 303
f 303 310 311
f 303 311 304
f 304 311 312
f 304 312 305
f 305 312 313
f 305 313 306
f 306 313 314
f 306 314 268
f 314 270 268
f 314 315 270
f 272 270 315
f 272 315 316
f 273 308 269
f 273 317 308
f 316 274 272
f 318 274 316
f 275 317 273
f 275 319 317
f 318 276 274
f 320 276 318
f 277 319 275
f 277 321 319
f 320 278 276
f 322 278 320
f 279 321 277
f 279 323 321
f 322 280 278
f 324 280 322
f 281 323 279
f 281 325 323
f 328 327 326
f 330 329 326
f 326 329 328
f 332 331 330
f 330 331 329
f 334 333 332
f 332 333 331
f 336 335 334
f 334 335 333
f 338 337 336
f 336 337 335
f 340 339 338
f 338 339 337
f 324 339 340
f 282 324 340
f 280 324 282
f 283 325 281
f 283 341 325
f 326 327 285
f 327 284 285
f 327 342 284
f 326 285 286
f 326 286 330
f 330 286 287
f 330 287 332
f 332 287 288
f 332 288 334
f 334 288 289
f 334 289 336
f 336 289 290
f 336 290 338
f 338 290 291
f 338 291 340
f 340 291 282
f 343 341 283
f 343 283 292
f 344 292 294
f 344 343 292
f 294 284 342
f 294 342 344
f 298 345 299
f 345 301 299
f 308 346 307
f 346 347 307
f 307 347 298
f 347 348 298
f 348 345 298
f 348 350 349
f 348 349 309
f 345 348 309
f 301 345 309
f 351 310 309
f 351 309 349
f 352 311 310
f 352 310 351
f 353 312 311
f 353 311 352
f 354 313 312
f 354 312 353
f 355 314 313
f 355 313 354
f 356 315 314
f 356 314 355
f 356 316 315
f 358 357 346
f 308 358 346
f 317 358 308
f 346 357 347
f 350 359 349
f 349 359 351
f 351 359 360
f 351 360 352
f 352 360 361
f 352 361 353
f 353 361 362
f 364 363 362
f 363 353 362
f 363 354 353
f 354 365 355
f 354 363 365
f 355 366 356
f 355 365 366
f 366 318 316
f 366 316 356
f 319 358 317
f 319 367 358
f 364 368 363
f 363 368 365
f 365 368 369
f 365 369 366
f 366 369 370
f 318 366 370
f 371 318 370
f 320 318 371
f 321 367 319
f 321 372 367
f 371 322 320
f 373 322 371
f 323 372 321
f 323 374 372
f 377 376 375
f 379 378 375
f 375 378 377
f 381 380 379
f 379 380 378
f 383 382 381
f 381 382 380
f 385 384 383
f 383 384 382
f 387 386 385
f 385 386 384
f 389 388 387
f 387 388 386
f 373 388 389
f 324 373 389
f 322 373 324
f 325 374 323
f 325 390 374
f 375 376 328
f 376 327 328
f 376 391 327
f 375 328 329
f 375 329 379
f 379 329 331
f 379 331 381
f 381 331 333
f 381 333 383
f 383 333 335
f 383 335 385
f 385 335 337
f 385 337 387
f 387 337 339
f 387 339 389
f 389 339 324
f 341 390 325
f 341 392 390
f 391 342 327
f 393 342 391
f 394 392 341
f 394 341 343
f 396 394 395
f 394 344 395
f 394 343 344
f 397 395 344
f 342 397 344
f 393 397 342
f 398 396 395
f 398 395 397
f 347 399 348
f 399 350 348
f 358 400 357
f 400 401 357
f 357 401 347
f 401 402 347
f 402 399 347
f 402 404 403
f 402 403 359
f 399 402 359
f 350 399 359
f 405 360 359
f 405 359 403
f 406 361 360
f 406 360 405
f 407 362 361
f 407 361 406
f 407 364 362
f 409 408 400
f 358 409 400
f 367 409 358
f 400 408 401
f 403 404 410
f 410 404 411
f 403 412 405
f 403 410 412
f 405 413 406
f 405 412 413
f 406 414 407
f 406 413 414
f 415 368 364
f 407 415 364
f 414 415 407
f 416 369 368
f 416 368 415
f 417 370 369
f 417 369 416
f 417 371 370
f 372 409 367
f 372 418 409
f 410 411 419
f 419 411 420
f 410 421 412
f 410 419 421
f 412 422 413
f 412 421 422
f 413 423 414
f 413 422 423
f 414 424 415
f 414 423 424
f 415 425 416
f 415 424 425
f 416 426 417
f 416 425 426
f 426 373 371
f 426 371 417
f 374 418 372
f 374 427 418
f 419 420 377
f 420 376 377
f 420 428 376
f 419 377 378
f 419 378 421
f 421 378 380
f 421 380 422
f 422 380 382
f 422 382 423
f 423 382 384
f 423 384 424
f 424 384 386
f 424 386 425
f 425 386 388
f 425 388 426
f 426 388 373
f 390 427 374
f 390 429 427
f 428 391 376
f 430 391 428
f 392 432 431
f 429 392 431
f 390 392 429
f 432 433 431
f 430 393 391
f 434 393 430
f 394 432 392
f 436 435 396
f 396 435 394
f 435 433 394
f 433 432 394
f 434 435 436
f 397 434 436
f 393 434 397
f 398 436 396
f 436 398 397
f 401 437 402
f 437 404 402
f 409 438 408
f 437 401 408
f 438 437 408
f 439 437 438
f 439 411 404
f 439 404 437
f 418 440 438
f 418 438 409
f 438 441 439
f 438 440 441
f 441 420 411
f 441 411 439
f 427 442 440
f 427 440 418
f 440 443 441
f 440 442 443
f 443 428 420
f 443 420 441
f 429 444 442
f 429 442 427
f 446 443 445
f 443 444 445
f 443 442 444
f 428 443 446
f 447 428 446
f 430 428 447
f 431 444 429
f 449 448 433
f 433 448 431
f 448 445 431
f 445 444 431
f 447 448 449
f 434 447 449
f 430 447 434
f 435 449 433
f 449 435 434
f 445 450 446
f 450 447 446
f 448 450 445
f 450 448 447

