# https://github.com/mikedh/trimesh
v -0.03913042 -0.02065191 -0.04906244
v -0.03360552 -0.02462091 -0.05053335
v -0.03617036 -0.01984325 -0.05426081
v -0.03962785 -0.02055397 -0.04060370
v -0.03529733 -0.02501991 -0.04259608
v -0.03947673 -0.02049614 -0.03173030
v -0.03518047 -0.02487459 -0.03366724
v -0.03945758 -0.02049735 -0.02299139
v -0.03509233 -0.02485313 -0.02487759
v -0.03946060 -0.02049711 -0.01426758
v -0.03509538 -0.02485608 -0.01615339
v -0.03945947 -0.02049680 -0.00553882
v -0.03509928 -0.02485774 -0.00743319
v -0.03946256 -0.02049280 0.00317566
v -0.03510855 -0.02485102 0.00128414
v -0.03945163 -0.02050480 0.01189084
v -0.03509478 -0.02484817 0.00999927
v -0.03945261 -0.02060846 0.02091079
v -0.03487431 -0.02498639 0.01887685
v -0.03964480 -0.02048346 0.03024920
v -0.03484731 -0.02518744 0.02809928
v -0.03884658 -0.01947171 0.03749714
v -0.03605469 -0.02425403 0.03550337
v -0.03406509 -0.02146127 0.04028961
v -0.03945608 -0.01262764 -0.05054543
v -0.03490282 -0.01262850 -0.05491809
v -0.04042671 -0.01258699 -0.04260717
v -0.04026076 -0.01252553 -0.03367731
v -0.04019470 -0.01252429 -0.02489161
v -0.04019945 -0.01252660 -0.01616961
v -0.04020048 -0.01252641 -0.00744362
v -0.04019467 -0.01252654 0.00127755
v -0.04019444 -0.01253373 0.00999098
v -0.04032192 -0.01253514 0.01884213
v -0.04061188 -0.01234791 0.02801525
v -0.03978367 -0.01206629 0.03628997
v -0.03509116 -0.01420294 0.04106123
v -0.03933436 -0.00352976 -0.05023437
v -0.03486225 -0.00350654 -0.05458356
v -0.04021891 -0.00350711 -0.04230900
v -0.03997211 -0.00348048 -0.03331339
v -0.03986237 -0.00347909 -0.02448162
v -0.03986484 -0.00348158 -0.01575826
v -0.03986804 -0.00348146 -0.00703438
v -0.03986291 -0.00348165 0.00168792
v -0.03985858 -0.00349235 0.01041069
v -0.03998789 -0.00348872 0.01925761
v -0.04032128 -0.00323223 0.02830235
v -0.03958183 -0.00284439 0.03631436
v -0.03519510 -0.00485573 0.04080858
v -0.03956061 0.00551868 -0.04988518
v -0.03521143 0.00554190 -0.05435729
v -0.04031430 0.00549343 -0.04187264
v -0.03998974 0.00549369 -0.03282436
v -0.03986008 0.00549511 -0.02397481
v -0.03986301 0.00549382 -0.01525198
v -0.03986805 0.00549388 -0.00652978
v -0.03986491 0.00549392 0.00219404
v -0.03986096 0.00548498 0.01091595
v -0.03996989 0.00548481 0.01974474
v -0.04025602 0.00572075 0.02873375
v -0.03946673 0.00609221 0.03661916
v -0.03501962 0.00416340 0.04078898
v -0.03989513 0.01464064 -0.04992575
v -0.03552250 0.01463978 -0.05447904
v -0.04063835 0.01460088 -0.04180569
v -0.04031631 0.01453891 -0.03267752
v -0.04018911 0.01453676 -0.02382298
v -0.04019469 0.01453867 -0.01510502
v -0.04020068 0.01453877 -0.00638381
v -0.04019938 0.01453889 0.00234207
v -0.04019453 0.01453192 0.01106040
v -0.04025916 0.01452732 0.01984321
v -0.04047261 0.01471171 0.02879244
v -0.03962043 0.01500377 0.03674593
v -0.03505134 0.01298361 0.04095112
v -0.03923784 0.02185539 -0.05119334
v -0.03403945 0.02266400 -0.05415343
v -0.03988588 0.02266410 -0.04418076
v -0.03956642 0.02256612 -0.03503923
v -0.03944776 0.02250822 -0.02612964
v -0.03945568 0.02250946 -0.01741517
v -0.03946084 0.02250927 -0.00869707
v -0.03945940 0.02250929 0.00003161
v -0.03945549 0.02250476 0.00875234
v -0.03947591 0.02249943 0.01749334
v -0.03962374 0.02263535 0.02645665
v -0.03922971 0.02292817 0.03504626
v -0.03517805 0.02137887 0.04049488
v -0.03551044 0.02663305 -0.04862841
v -0.03521671 0.02703198 -0.04004608
v -0.03508475 0.02688673 -0.03108950
v -0.03509021 0.02686570 -0.02234865
v -0.03509716 0.02686917 -0.01362509
v -0.03509867 0.02687068 -0.00490075
v -0.03509502 0.02686386 0.00381108
v -0.03509787 0.02685951 0.01253035
v -0.03515704 0.02698323 0.02145176
v -0.03521631 0.02727588 0.03060495
v -0.03435540 0.02656102 0.03759410
v -0.02502177 -0.02502014 -0.05023764
v -0.02915779 -0.02065192 -0.05490883
v -0.02734917 -0.02587679 -0.04230926
v -0.02728626 -0.02566411 -0.03331035
v -0.02707459 -0.02559738 -0.02443998
v -0.02703793 -0.02563334 -0.01565777
v -0.02709165 -0.02569099 -0.00695376
v -0.02715600 -0.02568229 0.00169729
v -0.02714365 -0.02562077 0.01039752
v -0.02685848 -0.02572558 0.01925648
v -0.02657558 -0.02601665 0.02837846
v -0.02881282 -0.02504999 0.03651792
v -0.02671296 -0.02022262 0.04114166
v -0.02678282 -0.01258871 -0.05566134
v -0.03009760 -0.01016660 -0.02491845
v -0.02827715 -0.01177809 -0.02828626
v -0.02628989 -0.01506329 -0.02318197
v -0.02576905 -0.01247288 -0.01988087
v -0.02698667 -0.01198091 0.04177459
v -0.02684973 -0.00348129 -0.05533725
v -0.03104656 -0.00388669 -0.03066758
v -0.02778855 -0.00057074 -0.03756724
v -0.02463724 -0.00764347 -0.03354187
v -0.03105500 -0.00182454 -0.02422264
v -0.02617815 -0.00577469 -0.02089822
v -0.03011399 -0.00155353 0.02956847
v -0.02790135 -0.00090484 0.02458037
v -0.02552025 -0.00618332 0.02673164
v -0.02603321 -0.00356209 0.03155907
v -0.02700834 -0.00294533 0.04132433
v -0.02728606 0.00551925 -0.05524185
v -0.03059251 0.00405667 -0.03358462
v -0.02668414 0.00607576 -0.03826466
v -0.03082015 0.00500956 -0.02697492
v -0.02757913 0.00364272 -0.02016803
v -0.03013444 0.00399584 0.02804208
v -0.02664976 0.00601266 0.02380448
v -0.02718692 0.00321236 0.03172616
v -0.02684031 0.00581093 0.04125240
v -0.02758429 0.01459911 -0.05544972
v -0.02598233 0.00930369 -0.03231663
v -0.02551998 0.00922730 -0.02278240
v -0.02525670 0.00868516 0.02795395
v -0.02681971 0.01468762 0.04154478
v -0.02558014 0.02256599 -0.05465027
v -0.02689758 0.02273131 0.04072769
v -0.02757185 0.02703231 -0.05031782
v -0.02728841 0.02788891 -0.04236892
v -0.02710438 0.02767643 -0.03342437
v -0.02707240 0.02761085 -0.02459855
v -0.02705863 0.02764560 -0.01577773
v -0.02710126 0.02770155 -0.00700161
v -0.02712856 0.02769515 0.00165087
v -0.02712484 0.02763559 0.01027768
v -0.02711403 0.02773250 0.01909827
v -0.02703398 0.02800111 0.02820685
v -0.02695114 0.02719089 0.03626870
v -0.01606196 -0.02487741 -0.05010493
v -0.02001568 -0.02055387 -0.05458883
v -0.01840344 -0.02566768 -0.04212701
v -0.01829668 -0.02538356 -0.03308038
v -0.01795883 -0.02529636 -0.02418657
v -0.01786182 -0.02539326 -0.01539042
v -0.01791403 -0.02555418 -0.00665652
v -0.01805036 -0.02561452 0.00204028
v -0.01816287 -0.02550546 0.01071855
v -0.01787368 -0.02547642 0.01952826
v -0.01744236 -0.02571876 0.02853849
v -0.01954057 -0.02482702 0.03655708
v -0.01763386 -0.02021063 0.04064037
v -0.01765468 -0.01252667 -0.05533928
v -0.02311758 -0.01159257 -0.02348886
v -0.01793861 -0.01530965 -0.01635395
v -0.01794361 -0.01151488 -0.02068195
v -0.02254184 -0.01142628 -0.01354446
v -0.01851061 -0.01538836 -0.00857866
v -0.02157806 -0.01054178 -0.00512659
v -0.01574654 -0.01241210 -0.00295911
v -0.01753937 -0.01285591 0.04180149
v -0.01780147 -0.00348154 -0.05501274
v -0.02303742 -0.00333330 -0.04147244
v -0.01751137 -0.00283166 -0.04574615
v -0.01839152 -0.00800151 -0.04172898
v -0.01815083 -0.00923018 -0.03495414
v -0.01953330 -0.00864214 -0.02517485
v -0.02316538 -0.00920217 -0.01916629
v -0.02271778 -0.00312586 -0.01593787
v -0.02309306 -0.00333525 -0.00668459
v -0.01725230 -0.00817668 0.00244802
v -0.02219170 -0.00327074 0.00278783
v -0.01696444 -0.00658873 0.01082956
v -0.02178821 -0.00244259 0.01273132
v -0.01918549 -0.00711652 0.01982077
v -0.02363546 -0.00388616 0.02022464
v -0.01796043 -0.00813775 0.02763195
v -0.01845061 -0.00396190 0.03250278
v -0.01884526 -0.00370099 0.04159130
v -0.01829041 0.00549262 -0.05499514
v -0.02275920 0.00328235 -0.04282630
v -0.01607064 0.00488820 -0.04571066
v -0.02348960 0.00636060 -0.01582630
v -0.02180335 0.00500918 -0.00870987
v -0.02211099 0.00474624 -0.00021212
v -0.02206797 0.00469540 0.00827962
v -0.02315629 0.00382760 0.01745510
v -0.01883494 0.00516788 0.03205986
v -0.01864057 0.00513396 0.04185685
v -0.01865429 0.01453758 -0.05528389
v -0.01928188 0.00919413 -0.04005899
v -0.01740188 0.01042632 -0.03250469
v -0.01846640 0.01038982 -0.02466145
v -0.01831744 0.00953155 -0.01466953
v -0.01733523 0.00911252 -0.00474292
v -0.01754336 0.00908531 0.00392740
v -0.01759379 0.00918242 0.01253383
v -0.01904295 0.00979406 0.02159576
v -0.01726002 0.00977982 0.02840662
v -0.01765087 0.01513454 0.04214397
v -0.01670486 0.02250871 -0.05449763
v -0.01893987 0.02344101 0.04030204
v -0.01864179 0.02688957 -0.05019850
v -0.01829040 0.02767983 -0.04230630
v -0.01805460 0.02739597 -0.03332365
v -0.01797392 0.02730965 -0.02444918
v -0.01794284 0.02740228 -0.01557658
v -0.01795681 0.02753815 -0.00678630
v -0.01804471 0.02760468 0.00195465
v -0.01813198 0.02752261 0.01065390
v -0.01807024 0.02748957 0.01934126
v -0.01782806 0.02768405 0.02821217
v -0.01769161 0.02679296 0.03607023
v -0.00732288 -0.02486011 -0.05011324
v -0.01110362 -0.02049653 -0.05446914
v -0.00961836 -0.02560410 -0.04213139
v -0.00947088 -0.02527528 -0.03308271
v -0.00911015 -0.02519384 -0.02424709
v -0.00899646 -0.02533903 -0.01544904
v -0.01022545 -0.02552324 -0.00790185
v -0.00905117 -0.02468318 0.00105111
v -0.00883911 -0.02474403 0.01111885
v -0.00911380 -0.02555742 0.01951609
v -0.00875996 -0.02563418 0.02852044
v -0.01070636 -0.02472625 0.03626725
v -0.00813473 -0.02050164 0.04118002
v -0.00879977 -0.01252463 -0.05521211
v -0.01333265 -0.01261129 -0.04016654
v -0.01119325 -0.01055365 -0.04571871
v -0.00682437 -0.01590979 -0.04176231
v -0.00832932 -0.01617167 -0.03372982
v -0.01365891 -0.01241188 -0.03144228
v -0.01008934 -0.01510691 -0.02314348
v -0.01415979 -0.01235817 -0.02513889
v -0.00770397 -0.01251012 -0.01809093
v -0.01160748 -0.01272135 -0.01673554
v -0.01043909 -0.01266926 -0.01284620
v -0.00967852 -0.01525083 -0.00866521
v -0.00806878 -0.01361429 -0.00190036
v -0.01333482 -0.01138478 0.02953587
v -0.01038433 -0.01185547 0.02506648
v -0.00712401 -0.01516021 0.02657509
v -0.00894491 -0.01193819 0.03153363
v -0.00886850 -0.01653683 0.04598796
v -0.01369316 -0.01108569 0.04642537
v -0.01302427 -0.01198952 0.05575091
v -0.00833641 -0.01629116 0.05367022
v -0.01343678 -0.01177381 0.06515974
v -0.00853935 -0.01655021 0.06297942
v -0.01267486 -0.01074119 0.07238747
v -0.00986740 -0.01554513 0.07039998
v -0.00787590 -0.01283338 0.07519257
v -0.00895181 -0.00348310 -0.05488318
v -0.00967084 -0.00343566 -0.04727653
v -0.00898045 -0.01046988 -0.01540215
v -0.01107116 -0.00930167 0.00197925
v -0.00990867 -0.00833512 0.00869096
v -0.01068223 -0.00913187 0.01846189
v -0.00835145 -0.00299271 0.03399473
v -0.01439814 -0.00201557 0.04590617
v -0.01384031 -0.00398275 0.05384407
v -0.01440812 -0.00361349 0.06308004
v -0.01362961 -0.00328063 0.07126950
v -0.00887717 -0.00562602 0.07601103
v -0.00945860 0.00549100 -0.05488546
v -0.00772829 0.00485471 -0.04609820
v -0.01076028 0.00624069 0.03168997
v -0.01439612 0.00701685 0.04623962
v -0.01382106 0.00509414 0.05412020
v -0.01430805 0.00566339 0.06334326
v -0.01357749 0.00614725 0.07141011
v -0.00903143 0.00387704 0.07596045
v -0.00986827 0.01453616 -0.05521754
v -0.00994066 0.00950141 -0.04163828
v -0.00965644 0.01025460 -0.03372425
v -0.00937642 0.00996854 -0.02477970
v -0.00930035 0.00981801 -0.01586455
v -0.01055072 0.00979533 -0.00824216
v -0.00947153 0.01054070 0.00096772
v -0.00917703 0.01071814 0.01121166
v -0.00955440 0.01033344 0.01946064
v -0.00945683 0.00967477 0.02731650
v -0.01284928 0.01463336 0.04535169
v -0.01290013 0.01307387 0.05201666
v -0.01338114 0.01362000 0.06123469
v -0.01305209 0.01423643 0.06994522
v -0.00903149 0.01271538 0.07547511
v -0.00796438 0.02251107 -0.05447822
v -0.01111968 0.02181580 0.04133571
v -0.00761986 0.01875317 0.04722592
v -0.00883413 0.01805191 0.05647136
v -0.00900667 0.01862667 0.06567958
v -0.00819105 0.01798164 0.07260777
v -0.00985567 0.02687225 -0.05011335
v -0.00945702 0.02761626 -0.04213643
v -0.00920547 0.02728760 -0.03309300
v -0.00914200 0.02720571 -0.02426387
v -0.00905861 0.02734325 -0.01543573
v -0.01025617 0.02749585 -0.00786778
v -0.00870375 0.02667137 -0.00020235
v -0.00934525 0.02671665 0.01002116
v -0.00931752 0.02758896 0.01971491
v -0.00902052 0.02762719 0.02852041
v -0.00885369 0.02663982 0.03611854
v 0.00138709 -0.02485780 -0.05011825
v -0.00238596 -0.02049928 -0.05447652
v -0.00090446 -0.02560351 -0.04213887
v -0.00075764 -0.02527304 -0.03308733
v -0.00045995 -0.02517097 -0.02426751
v -0.00032660 -0.02532478 -0.01552679
v -0.00147902 -0.02477311 -0.00583415
v -0.00410296 -0.01901336 0.00103915
v 0.00082357 -0.02184508 -0.00215440
v -0.00454717 -0.01982557 0.01122081
v -0.00120062 -0.02057773 0.01508457
v 0.00055315 -0.02484529 0.01823811
v -0.00024489 -0.02572483 0.02840857
v -0.00219732 -0.02471621 0.03615512
v 0.00163811 -0.02124491 0.04132877
v -0.00008284 -0.01252669 -0.05521645
v -0.00266797 -0.01196785 -0.04616895
v 0.00162787 -0.01662277 -0.04132574
v -0.00061797 -0.01746870 -0.03347562
v -0.00045209 -0.01713967 -0.02440794
v -0.00137525 -0.01596820 -0.01515031
v -0.00653558 -0.01245803 -0.01420159
v -0.00037222 -0.01758329 -0.00461741
v -0.00630188 -0.01162358 0.00379933
v -0.00527456 -0.01294246 0.01076754
v 0.00004272 -0.01662749 0.02122700
v -0.00543120 -0.01396081 0.01929668
v -0.00161214 -0.01635840 0.02854724
v 0.00090180 -0.01100132 0.03312893
v -0.00055834 -0.01788499 0.04647308
v -0.00038645 -0.01704019 0.05418001
v -0.00024812 -0.01744747 0.06335629
v -0.00260406 -0.01649886 0.07148441
v -0.00041672 -0.01177726 0.07621520
v -0.00023200 -0.00348181 -0.05488295
v -0.00071694 -0.00357899 -0.04713212
v -0.00169667 -0.00621000 0.03700673
v -0.00291728 -0.00202309 0.03702774
v -0.00039064 -0.00345046 0.03885602
v -0.00058332 -0.00351656 0.07709187
v -0.00073990 0.00549370 -0.05488279
v 0.00124118 0.00488560 -0.04600467
v 0.00096578 -0.00075619 0.03700831
v -0.00154329 0.00395736 0.03313965
v -0.00070723 0.00582490 0.07704703
v -0.00115220 0.01453863 -0.05521644
v -0.00110655 0.00942656 -0.04145883
v -0.00079486 0.01018505 -0.03354969
v -0.00047431 0.00981140 -0.02448348
v -0.00029325 0.00956153 -0.01552301
v -0.00151953 0.01020164 -0.00591699
v -0.00440422 0.01493951 0.00235820
v 0.00012682 0.01490707 -0.00126462
v -0.00508416 0.01507596 0.00992785
v -0.00120082 0.01501834 0.01382951
v 0.00042973 0.01058770 0.01853340
v -0.00050614 0.00931869 0.02744936
v -0.00069574 0.01405060 0.07603002
v 0.00074497 0.02250668 -0.05448607
v -0.00487932 0.02191588 0.00285466
v -0.00085251 0.02197095 -0.00127655
v -0.00453301 0.02199979 0.01047610
v -0.00014717 0.02201722 0.01388022
v -0.00239449 0.02329552 0.04130803
v 0.00150421 0.01987735 0.04636839
v -0.00073135 0.01899476 0.05418753
v -0.00083523 0.01939700 0.06334138
v -0.00077682 0.01862838 0.07146047
v -0.00114023 0.02686947 -0.05012950
v -0.00073875 0.02761557 -0.04214650
v -0.00048874 0.02728521 -0.03308960
v -0.00047584 0.02718236 -0.02427385
v -0.00038333 0.02733302 -0.01558094
v -0.00069364 0.02677586 -0.00579060
v -0.00030694 0.02693154 0.01855248
v -0.00049841 0.02777406 0.02856322
v -0.00027181 0.02672250 0.03615862
v 0.01010471 -0.02485044 -0.05011548
v 0.00632396 -0.02049440 -0.05447892
v 0.00781188 -0.02559805 -0.04213692
v 0.00796117 -0.02527091 -0.03308571
v 0.00821577 -0.02514440 -0.02423915
v 0.00830660 -0.02522403 -0.01556117
v 0.00831365 -0.02539492 -0.00689731
v 0.00403484 -0.02018337 0.00313526
v 0.00774333 -0.02466612 0.00116466
v 0.00286253 -0.01988462 0.01208484
v 0.00796008 -0.02457905 0.01129696
v 0.00950021 -0.02563793 0.02052630
v 0.00841300 -0.02575000 0.02837855
v 0.00633228 -0.02467826 0.03618277
v 0.01034573 -0.01980632 0.04132822
v 0.00862950 -0.01251975 -0.05521774
v 0.00706789 -0.01118509 -0.04566773
v 0.00844843 -0.01563058 -0.04043466
v 0.00706203 -0.01624021 -0.03310305
v 0.00717379 -0.01587157 -0.02385505
v 0.00896268 -0.01593937 -0.01467572
v 0.00724466 -0.01692939 -0.00791596
v 0.00756794 -0.01579882 0.00058462
v 0.00877686 -0.01139433 0.00560580
v 0.00484664 -0.01391133 0.00902614
v 0.00404907 -0.01332172 0.01681815
v 0.00720548 -0.01287564 0.02350294
v 0.00610866 -0.01522964 0.02812056
v 0.01056375 -0.01063902 0.03155286
v 0.00705742 -0.01659904 0.04648857
v 0.00735601 -0.01563501 0.05433952
v 0.00779433 -0.01609407 0.06355203
v 0.00625008 -0.01584996 0.07170577
v 0.00944392 -0.01018379 0.07576823
v 0.00848523 -0.00347287 -0.05488414
v 0.00702793 -0.00216528 -0.04715954
v 0.00958281 -0.00881290 0.01184595
v 0.01039077 -0.00918283 0.02115977
v 0.00218639 -0.00494310 0.03698731
v 0.00658950 -0.00305509 0.03416955
v 0.00757587 -0.00243143 0.07705466
v 0.00797998 0.00550445 -0.05488173
v 0.01030412 0.00481458 -0.04606748
v 0.00857248 0.00472707 0.03234343
v 0.00879111 0.00560565 0.07714418
v 0.00756023 0.01454579 -0.05521753
v 0.00804048 0.00956071 -0.04131668
v 0.00814728 0.01034478 -0.03317373
v 0.00844004 0.00997425 -0.02405320
v 0.00855157 0.00980362 -0.01513089
v 0.00858370 0.00963979 -0.00653874
v 0.00397828 0.01573972 0.00333374
v 0.00802613 0.01044982 0.00138387
v 0.00317241 0.01386268 0.01139482
v 0.00822375 0.01058139 0.01173045
v 0.00942348 0.01004713 0.02122662
v 0.00834995 0.00916680 0.02786838
v 0.00815888 0.01377686 0.07558679
v 0.00946007 0.02251729 -0.05447476
v 0.00346068 0.02311051 0.00091507
v 0.00390452 0.02119453 0.00888886
v 0.00741799 0.02238939 0.04123700
v 0.00877509 0.01805757 0.04526603
v 0.00711323 0.01770423 0.05202200
v 0.00723291 0.01803571 0.06120086
v 0.00750415 0.01773510 0.06992381
v 0.00757010 0.02686537 -0.05012047
v 0.00797639 0.02761026 -0.04215156
v 0.00822818 0.02728289 -0.03309954
v 0.00822310 0.02715617 -0.02425204
v 0.00823713 0.02723690 -0.01561890
v 0.00832351 0.02743863 -0.00694439
v 0.00834276 0.02670625 0.00257883
v 0.00771015 0.02672176 0.01284654
v 0.00925174 0.02770145 0.02065040
v 0.00809098 0.02781741 0.02846298
v 0.00830646 0.02676500 0.03626994
v 0.01901668 -0.02497004 -0.05017275
v 0.01506293 -0.02048627 -0.05449630
v 0.01666468 -0.02572135 -0.04213817
v 0.01681146 -0.02539689 -0.03308439
v 0.01706479 -0.02526945 -0.02423430
v 0.01707943 -0.02527690 -0.01551539
v 0.01712642 -0.02535680 -0.00680348
v 0.01711833 -0.02547094 0.00180213
v 0.01699326 -0.02554011 0.01040902
v 0.01714199 -0.02562270 0.01931052
v 0.01731469 -0.02573890 0.02842719
v 0.01507786 -0.02472260 0.03626191
v 0.01833865 -0.02135573 0.04037692
v 0.01741262 -0.01251471 -0.05528192
v 0.01291992 -0.01173961 -0.04252335
v 0.01276590 -0.01274110 -0.03544482
v 0.01249800 -0.01215534 -0.02601433
v 0.01323929 -0.01188871 -0.01743838
v 0.01600869 -0.01280174 -0.01255738
v 0.01658529 -0.01573141 -0.00726572
v 0.01294601 -0.01308807 0.00066048
v 0.01978861 -0.01137427 -0.00191007
v 0.01127790 -0.01185315 0.02738566
v 0.01230187 -0.01334555 0.04521905
v 0.01843347 -0.01275008 0.04224686
v 0.01264772 -0.01214540 0.05191701
v 0.01325053 -0.01243532 0.06119046
v 0.01298727 -0.01288422 0.06997252
v 0.01731411 -0.00347280 -0.05499311
v 0.01460946 -0.00402604 -0.04584085
v 0.01873803 -0.00777223 -0.03995892
v 0.01820667 -0.00892833 -0.03116428
v 0.01709453 -0.00868779 -0.02272639
v 0.01929547 -0.00967013 -0.01742155
v 0.01522097 -0.00827432 0.00430523
v 0.01851389 -0.00687432 0.01172656
v 0.01731096 -0.00793089 0.01949627
v 0.01611061 -0.00866883 0.02764365
v 0.01704633 -0.00354595 0.03259021
v 0.01697785 -0.00813620 0.04754043
v 0.01756118 -0.00771439 0.05616586
v 0.01791157 -0.00808392 0.06554180
v 0.01685302 -0.00837886 0.07257207
v 0.01628603 -0.00243325 0.07575663
v 0.01682699 0.00550056 -0.05501092
v 0.01731196 0.00405248 -0.04524295
v 0.01772524 0.00473870 0.03269965
v 0.01589965 0.00716650 0.07573642
v 0.01641162 0.01454699 -0.05534483
v 0.01674094 0.00910816 -0.04132379
v 0.01731093 0.01061428 -0.03308334
v 0.01756105 0.01033300 -0.02379891
v 0.01754076 0.01022668 -0.01477342
v 0.01630126 0.01012168 -0.00731799
v 0.01796341 0.00925170 0.00022858
v 0.01728807 0.00924933 0.01003408
v 0.01729283 0.01034789 0.01996691
v 0.01740304 0.00933868 0.02813263
v 0.01303883 0.01428640 0.04784921
v 0.01657766 0.01503887 0.04238505
v 0.01823429 0.00979052 0.04513664
v 0.01711279 0.01000039 0.05204120
v 0.01272632 0.01454342 0.05660383
v 0.01747402 0.01024647 0.06141777
v 0.01314279 0.01475076 0.06594728
v 0.01787495 0.00968550 0.07019610
v 0.01331938 0.01354561 0.07292180
v 0.01848036 0.02262044 -0.05447547
v 0.01716344 0.02211661 0.04059580
v 0.01644438 0.02699962 -0.04989999
v 0.01682258 0.02774064 -0.04188924
v 0.01707672 0.02741121 -0.03284530
v 0.01707634 0.02728141 -0.02399616
v 0.01706211 0.02728796 -0.01528260
v 0.01707759 0.02737181 -0.00664574
v 0.01712597 0.02752021 0.00195943
v 0.01704527 0.02761367 0.01067261
v 0.01695565 0.02766186 0.01948465
v 0.01696598 0.02776269 0.02853208
v 0.01709590 0.02674164 0.03650908
v 0.02815870 -0.02528995 -0.05027082
v 0.02402271 -0.02061902 -0.05463903
v 0.02579090 -0.02603793 -0.04219968
v 0.02586287 -0.02572137 -0.03308586
v 0.02611820 -0.02559787 -0.02423448
v 0.02612733 -0.02560175 -0.01551549
v 0.02611738 -0.02560718 -0.00678992
v 0.02612899 -0.02563932 0.00194063
v 0.02613351 -0.02568411 0.01063752
v 0.02627384 -0.02571912 0.01944542
v 0.02646562 -0.02583450 0.02853055
v 0.02416245 -0.02490385 0.03645526
v 0.02610780 -0.02045744 0.04081071
v 0.02635850 -0.01269539 -0.05549044
v 0.02123035 -0.01307933 -0.01414058
v 0.02521775 -0.01175734 -0.01828535
v 0.02597320 -0.01523992 -0.01291264
v 0.02454677 -0.01569898 -0.00657607
v 0.02642386 -0.01107948 -0.00399157
v 0.02722279 -0.01373188 0.04162739
v 0.02629790 -0.00370686 -0.05527484
v 0.02142111 -0.00079123 -0.04269641
v 0.02527137 -0.00365224 -0.03835169
v 0.02533619 -0.00652955 -0.03323656
v 0.02444277 -0.00825659 -0.02419955
v 0.02085335 -0.00275240 0.00285292
v 0.02541090 -0.00242740 -0.00206275
v 0.02145906 -0.00231768 0.00908735
v 0.02520245 -0.00355779 0.01457736
v 0.02558057 -0.00669681 0.01984939
v 0.02414489 -0.00675757 0.02769254
v 0.02606360 -0.00097480 0.03214306
v 0.02088634 -0.00268669 0.04609765
v 0.02585371 -0.00439215 0.04201441
v 0.02081490 -0.00203612 0.05399937
v 0.02131516 -0.00223853 0.06330344
v 0.02066118 -0.00364899 0.07058452
v 0.02586632 0.00524423 -0.05534118
v 0.02198296 0.00601817 -0.04125995
v 0.02667274 0.00302886 -0.03746897
v 0.02174362 0.00482767 0.00334163
v 0.02518175 0.00604092 -0.00179144
v 0.02226019 0.00479055 0.01010116
v 0.02656405 0.00320725 0.01549165
v 0.02499913 0.00581501 0.03190196
v 0.02144116 0.00434057 0.04614481
v 0.02556337 0.00564928 0.04202041
v 0.02064732 0.00466166 0.05405708
v 0.02118091 0.00462339 0.06337511
v 0.02094572 0.00287332 0.07149851
v 0.02558092 0.01435907 -0.05563375
v 0.02446195 0.00894543 -0.03474678
v 0.02566263 0.00943254 -0.02602547
v 0.02569612 0.00936287 -0.01695829
v 0.02480282 0.00915178 -0.00737455
v 0.02440142 0.00900574 0.01826690
v 0.02566691 0.00896527 0.02642644
v 0.02621347 0.01414304 0.04168214
v 0.02781700 0.02249471 -0.05466798
v 0.02628303 0.02225018 0.04119196
v 0.02566533 0.02719839 -0.04987285
v 0.02594105 0.02802850 -0.04160673
v 0.02612714 0.02774148 -0.03244102
v 0.02612491 0.02761585 -0.02359235
v 0.02611681 0.02761402 -0.01487669
v 0.02611466 0.02761769 -0.00615596
v 0.02611878 0.02764524 0.00253460
v 0.02612754 0.02769509 0.01116671
v 0.02610168 0.02776129 0.01988110
v 0.02611741 0.02787294 0.02886186
v 0.02618302 0.02687228 0.03690788
v 0.03517136 -0.02464160 -0.04946229
v 0.03260670 -0.02091476 -0.05423984
v 0.03391019 -0.02528995 -0.04223999
v 0.03387770 -0.02497004 -0.03311108
v 0.03409416 -0.02485045 -0.02423350
v 0.03410941 -0.02485765 -0.01551598
v 0.03409677 -0.02486260 -0.00679559
v 0.03408933 -0.02486884 0.00192688
v 0.03408494 -0.02485423 0.01065230
v 0.03422605 -0.02475341 0.01954891
v 0.03452328 -0.02486245 0.02865695
v 0.03284960 -0.02439193 0.03666399
v 0.03426683 -0.01881134 0.04055105
v 0.03430804 -0.01298250 -0.05463255
v 0.02980849 -0.00990362 -0.01616150
v 0.02915721 -0.01314895 -0.00852583
v 0.03403995 -0.01022431 0.04080064
v 0.03417847 -0.00406793 -0.05448541
v 0.02963996 -0.00090591 -0.03249053
v 0.03031255 -0.00334197 -0.02374880
v 0.03138755 -0.00203880 -0.01412522
v 0.03006564 -0.00577437 -0.00758762
v 0.02989017 -0.00095714 0.02070726
v 0.02978240 -0.00387070 0.02690143
v 0.03398980 -0.00131193 0.04057642
v 0.03387258 0.00486529 -0.05460229
v 0.02942866 0.00579035 -0.03118506
v 0.03032893 0.00473911 -0.02411623
v 0.03029196 0.00481411 -0.01513015
v 0.02953559 0.00327407 -0.00724694
v 0.02954477 0.00598734 0.02184147
v 0.03010914 0.00299164 0.02802892
v 0.03417248 0.00744588 0.04075865
v 0.03384980 0.01408143 -0.05480473
v 0.03429375 0.01652218 0.04123511
v 0.03505922 0.02148296 -0.05387073
v 0.03344657 0.02358054 0.04068376
v 0.03306800 0.02626424 -0.05108062
v 0.03407969 0.02706147 -0.04383843
v 0.03420542 0.02686891 -0.03450196
v 0.03410235 0.02686819 -0.02548196
v 0.03409181 0.02687962 -0.01676668
v 0.03409720 0.02687449 -0.00805135
v 0.03409645 0.02687058 0.00067947
v 0.03409621 0.02686522 0.00940143
v 0.03409631 0.02688520 0.01813354
v 0.03415178 0.02703632 0.02700706
v 0.03424565 0.02654383 0.03548114
v 0.03813189 -0.01944326 -0.05027054
v 0.03846327 -0.02091477 -0.04223983
v 0.03834928 -0.02061904 -0.03313241
v 0.03845588 -0.02048626 -0.02423476
v 0.03847071 -0.02049407 -0.01551473
v 0.03846156 -0.02050076 -0.00679521
v 0.03845459 -0.02051180 0.00192489
v 0.03844675 -0.02049519 0.01064250
v 0.03856939 -0.02028108 0.01952306
v 0.03889657 -0.02031510 0.02865919
v 0.03819864 -0.02152433 0.03588561
v 0.03863218 -0.01099747 -0.05016686
v 0.03942815 -0.01298218 -0.04219959
v 0.03922721 -0.01269541 -0.03311100
v 0.03919932 -0.01251475 -0.02423487
v 0.03920690 -0.01251949 -0.01551435
v 0.03920230 -0.01252695 -0.00679526
v 0.03919593 -0.01253868 0.00192539
v 0.03918995 -0.01252595 0.01064356
v 0.03931633 -0.01227159 0.01949812
v 0.03963693 -0.01219554 0.02861580
v 0.03881968 -0.01446786 0.03665876
v 0.03846821 -0.00213409 -0.05012004
v 0.03926100 -0.00406695 -0.04214545
v 0.03897338 -0.00370536 -0.03309781
v 0.03886651 -0.00347280 -0.02424547
v 0.03886874 -0.00347281 -0.01552698
v 0.03886944 -0.00348196 -0.00680745
v 0.03886431 -0.00349236 0.00191353
v 0.03886012 -0.00347936 0.01063429
v 0.03898677 -0.00322322 0.01948820
v 0.03931788 -0.00308134 0.02854647
v 0.03854179 -0.00535416 0.03650224
v 0.03844922 0.00689953 -0.05022583
v 0.03932045 0.00484049 -0.04214638
v 0.03899057 0.00524537 -0.03309585
v 0.03886134 0.00550390 -0.02424906
v 0.03886485 0.00550451 -0.01553046
v 0.03886936 0.00549359 -0.00681011
v 0.03886625 0.00548579 0.00191192
v 0.03886254 0.00549703 0.01063485
v 0.03897088 0.00572821 0.01948883
v 0.03925608 0.00582752 0.02854084
v 0.03848845 0.00349721 0.03643893
v 0.03864621 0.01623212 -0.05010132
v 0.03961215 0.01400141 -0.04196265
v 0.03932243 0.01428561 -0.03284412
v 0.03919010 0.01454976 -0.02399801
v 0.03919598 0.01455080 -0.01528015
v 0.03920210 0.01453872 -0.00655922
v 0.03920083 0.01453412 0.00216486
v 0.03919607 0.01453735 0.01088839
v 0.03926003 0.01470691 0.01972050
v 0.03946798 0.01476763 0.02872293
v 0.03863013 0.01242711 0.03662657
v 0.03784920 0.02347415 -0.04908950
v 0.03878343 0.02226631 -0.04168680
v 0.03858471 0.02229338 -0.03246579
v 0.03845039 0.02251374 -0.02359159
v 0.03845471 0.02252438 -0.01488007
v 0.03846126 0.02251226 -0.00615909
v 0.03846083 0.02250889 0.00256888
v 0.03845711 0.02250328 0.01129420
v 0.03847563 0.02258883 0.02008175
v 0.03861845 0.02271050 0.02901216
v 0.03822006 0.02102004 0.03695446
f 3 2 1
f 5 4 1
f 5 1 2
f 7 6 4
f 7 4 5
f 9 8 6
f 9 6 7
f 11 10 8
f 11 8 9
f 13 12 10
f 13 10 11
f 15 14 12
f 15 12 13
f 17 16 14
f 17 14 15
f 19 18 16
f 19 16 17
f 21 20 18
f 21 18 19
f 23 22 20
f 23 20 21
f 24 22 23
f 3 1 25
f 3 25 26
f 27 1 4
f 25 1 27
f 28 4 6
f 27 4 28
f 29 6 8
f 28 6 29
f 30 8 10
f 29 8 30
f 31 10 12
f 30 10 31
f 32 12 14
f 31 12 32
f 33 14 16
f 32 14 33
f 34 16 18
f 33 16 34
f 35 18 20
f 34 18 35
f 36 20 22
f 35 20 36
f 22 24 37
f 22 37 36
f 26 25 38
f 26 38 39
f 40 25 27
f 38 25 40
f 41 27 28
f 40 27 41
f 42 28 29
f 41 28 42
f 43 29 30
f 42 29 43
f 44 30 31
f 43 30 44
f 45 31 32
f 44 31 45
f 46 32 33
f 45 32 46
f 47 33 34
f 46 33 47
f 48 34 35
f 47 34 48
f 49 35 36
f 48 35 49
f 36 37 50
f 36 50 49
f 39 38 51
f 39 51 52
f 53 38 40
f 51 38 53
f 54 40 41
f 53 40 54
f 55 41 42
f 54 41 55
f 56 42 43
f 55 42 56
f 57 43 44
f 56 43 57
f 58 44 45
f 57 44 58
f 59 45 46
f 58 45 59
f 60 46 47
f 59 46 60
f 61 47 48
f 60 47 61
f 62 48 49
f 61 48 62
f 49 50 63
f 49 63 62
f 52 51 64
f 52 64 65
f 66 51 53
f 64 51 66
f 67 53 54
f 66 53 67
f 68 54 55
f 67 54 68
f 69 55 56
f 68 55 69
f 70 56 57
f 69 56 70
f 71 57 58
f 70 57 71
f 72 58 59
f 71 58 72
f 73 59 60
f 72 59 73
f 74 60 61
f 73 60 74
f 75 61 62
f 74 61 75
f 62 63 76
f 62 76 75
f 65 64 77
f 65 77 78
f 79 64 66
f 77 64 79
f 80 66 67
f 79 66 80
f 81 67 68
f 80 67 81
f 82 68 69
f 81 68 82
f 83 69 70
f 82 69 83
f 84 70 71
f 83 70 84
f 85 71 72
f 84 71 85
f 86 72 73
f 85 72 86
f 87 73 74
f 86 73 87
f 88 74 75
f 87 74 88
f 75 76 89
f 75 89 88
f 90 78 77
f 90 77 79
f 90 79 91
f 91 79 80
f 91 80 92
f 92 80 81
f 92 81 93
f 93 81 82
f 93 82 94
f 94 82 83
f 94 83 95
f 95 83 84
f 95 84 96
f 96 84 85
f 96 85 97
f 97 85 86
f 97 86 98
f 98 86 87
f 98 87 99
f 99 87 88
f 99 88 100
f 100 88 89
f 102 101 2
f 102 2 3
f 2 103 5
f 101 103 2
f 5 104 7
f 103 104 5
f 7 105 9
f 104 105 7
f 9 106 11
f 105 106 9
f 11 107 13
f 106 107 11
f 13 108 15
f 107 108 13
f 15 109 17
f 108 109 15
f 17 110 19
f 109 110 17
f 19 111 21
f 110 111 19
f 21 112 23
f 111 112 21
f 24 23 112
f 24 112 113
f 26 102 3
f 26 114 102
f 117 116 115
f 115 118 117
f 113 37 24
f 119 37 113
f 39 114 26
f 39 120 114
f 123 122 121
f 123 121 116
f 121 115 116
f 121 124 115
f 118 115 125
f 125 115 124
f 128 127 126
f 126 129 128
f 119 50 37
f 130 50 119
f 52 120 39
f 52 131 120
f 121 122 132
f 132 122 133
f 121 134 124
f 121 132 134
f 125 124 135
f 135 124 134
f 126 127 136
f 136 127 137
f 129 126 138
f 138 126 136
f 130 63 50
f 139 63 130
f 65 131 52
f 65 140 131
f 133 141 132
f 132 141 134
f 134 141 142
f 134 142 135
f 137 143 136
f 136 143 138
f 139 76 63
f 144 76 139
f 78 140 65
f 78 145 140
f 144 89 76
f 146 89 144
f 147 145 78
f 147 78 90
f 148 90 91
f 148 147 90
f 149 91 92
f 149 148 91
f 150 92 93
f 150 149 92
f 151 93 94
f 151 150 93
f 152 94 95
f 152 151 94
f 153 95 96
f 153 152 95
f 154 96 97
f 154 153 96
f 155 97 98
f 155 154 97
f 156 98 99
f 156 155 98
f 157 99 100
f 157 156 99
f 100 89 146
f 100 146 157
f 159 158 101
f 159 101 102
f 101 160 103
f 158 160 101
f 103 161 104
f 160 161 103
f 104 162 105
f 161 162 104
f 105 163 106
f 162 163 105
f 106 164 107
f 163 164 106
f 107 165 108
f 164 165 107
f 108 166 109
f 165 166 108
f 109 167 110
f 166 167 109
f 110 168 111
f 167 168 110
f 111 169 112
f 168 169 111
f 113 112 169
f 113 169 170
f 114 159 102
f 114 171 159
f 172 116 117
f 174 172 173
f 172 117 173
f 118 175 173
f 118 173 117
f 177 176 175
f 175 176 173
f 177 178 176
f 170 119 113
f 179 119 170
f 120 171 114
f 120 180 171
f 183 182 181
f 122 123 181
f 123 183 181
f 123 184 183
f 123 116 172
f 185 123 172
f 184 123 185
f 125 186 118
f 125 172 186
f 172 125 185
f 187 185 125
f 185 187 174
f 186 174 187
f 187 175 186
f 186 175 118
f 172 174 186
f 175 188 177
f 175 187 188
f 178 177 189
f 177 190 189
f 177 188 190
f 192 191 190
f 190 191 189
f 194 193 192
f 192 193 191
f 127 128 194
f 128 193 194
f 128 195 193
f 128 129 195
f 195 129 196
f 179 130 119
f 197 130 179
f 131 180 120
f 131 198 180
f 181 182 199
f 199 182 200
f 199 133 122
f 199 122 181
f 135 201 187
f 135 187 125
f 187 202 188
f 187 201 202
f 188 203 190
f 188 202 203
f 190 204 192
f 190 203 204
f 192 205 194
f 192 204 205
f 205 137 127
f 205 127 194
f 138 196 129
f 138 206 196
f 197 139 130
f 207 139 197
f 140 198 131
f 140 208 198
f 200 209 199
f 199 209 133
f 209 141 133
f 209 210 141
f 141 211 142
f 210 211 141
f 135 142 201
f 142 212 201
f 142 211 212
f 201 212 202
f 202 212 213
f 202 213 203
f 203 213 214
f 203 214 204
f 204 214 215
f 204 215 205
f 205 215 216
f 205 216 137
f 216 143 137
f 216 217 143
f 138 143 206
f 206 143 217
f 207 144 139
f 218 144 207
f 145 208 140
f 145 219 208
f 218 146 144
f 220 146 218
f 221 219 145
f 221 145 147
f 222 147 148
f 222 221 147
f 223 148 149
f 223 222 148
f 224 149 150
f 224 223 149
f 225 150 151
f 225 224 150
f 226 151 152
f 226 225 151
f 227 152 153
f 227 226 152
f 228 153 154
f 228 227 153
f 229 154 155
f 229 228 154
f 230 155 156
f 230 229 155
f 231 156 157
f 231 230 156
f 157 146 220
f 157 220 231
f 233 232 158
f 233 158 159
f 158 234 160
f 232 234 158
f 160 235 161
f 234 235 160
f 161 236 162
f 235 236 161
f 162 237 163
f 236 237 162
f 163 238 164
f 237 238 163
f 164 239 165
f 238 239 164
f 165 240 166
f 239 240 165
f 166 241 167
f 240 241 166
f 167 242 168
f 241 242 167
f 168 243 169
f 242 243 168
f 170 169 243
f 170 243 244
f 171 233 159
f 171 245 233
f 248 247 246
f 250 249 246
f 246 249 248
f 252 251 250
f 250 251 249
f 252 174 251
f 174 173 251
f 254 253 251
f 254 251 173
f 254 173 255
f 173 256 255
f 173 176 256
f 176 178 256
f 256 178 257
f 260 259 258
f 258 261 260
f 263 179 262
f 179 244 262
f 179 170 244
f 265 264 263
f 265 263 262
f 267 266 264
f 267 264 265
f 269 268 266
f 269 266 267
f 270 268 269
f 180 245 171
f 180 271 245
f 246 247 183
f 247 182 183
f 247 272 182
f 246 183 184
f 246 184 250
f 250 184 185
f 250 185 252
f 254 273 253
f 174 252 185
f 273 254 255
f 274 257 178
f 274 178 189
f 275 189 191
f 275 274 189
f 276 191 193
f 276 275 191
f 195 258 259
f 276 195 259
f 193 195 276
f 195 196 258
f 196 261 258
f 196 277 261
f 278 197 263
f 263 197 179
f 279 263 264
f 278 263 279
f 280 264 266
f 279 264 280
f 281 266 268
f 280 266 281
f 268 270 282
f 268 282 281
f 198 271 180
f 198 283 271
f 272 200 182
f 284 200 272
f 206 277 196
f 206 285 277
f 286 207 278
f 278 207 197
f 287 278 279
f 286 278 287
f 288 279 280
f 287 279 288
f 289 280 281
f 288 280 289
f 281 282 290
f 281 290 289
f 208 283 198
f 208 291 283
f 284 292 200
f 200 292 209
f 209 293 210
f 292 293 209
f 210 294 211
f 293 294 210
f 211 295 212
f 294 295 211
f 212 296 213
f 295 296 212
f 213 297 214
f 296 297 213
f 214 298 215
f 297 298 214
f 215 299 216
f 298 299 215
f 216 300 217
f 299 300 216
f 206 217 285
f 285 217 300
f 301 218 286
f 286 218 207
f 302 286 287
f 301 286 302
f 303 287 288
f 302 287 303
f 304 288 289
f 303 288 304
f 289 290 305
f 289 305 304
f 219 291 208
f 219 306 291
f 308 307 301
f 307 218 301
f 307 220 218
f 308 301 302
f 308 302 309
f 309 302 303
f 309 303 310
f 310 303 304
f 310 304 311
f 311 304 305
f 312 306 219
f 312 219 221
f 313 221 222
f 313 312 221
f 314 222 223
f 314 313 222
f 315 223 224
f 315 314 223
f 316 224 225
f 316 315 224
f 317 225 226
f 317 316 225
f 318 226 227
f 318 317 226
f 319 227 228
f 319 318 227
f 320 228 229
f 320 319 228
f 321 229 230
f 321 320 229
f 322 230 231
f 322 321 230
f 231 220 307
f 231 307 322
f 324 323 232
f 324 232 233
f 232 325 234
f 323 325 232
f 234 326 235
f 325 326 234
f 235 327 236
f 326 327 235
f 236 328 237
f 327 328 236
f 237 329 238
f 328 329 237
f 329 331 330
f 239 329 330
f 238 329 239
f 332 240 239
f 332 239 330
f 240 332 333
f 334 240 333
f 241 240 334
f 241 335 242
f 334 335 241
f 242 336 243
f 335 336 242
f 244 243 336
f 244 336 337
f 245 324 233
f 245 338 324
f 340 339 248
f 248 339 247
f 341 248 249
f 341 340 248
f 342 249 251
f 342 341 249
f 344 343 253
f 343 251 253
f 343 342 251
f 255 256 344
f 256 343 344
f 256 345 343
f 346 330 257
f 330 345 257
f 345 256 257
f 330 331 345
f 330 347 332
f 330 346 347
f 333 332 348
f 332 349 348
f 332 347 349
f 259 260 349
f 260 348 349
f 260 350 348
f 260 261 350
f 350 261 351
f 337 352 244
f 244 352 262
f 262 353 265
f 352 353 262
f 265 354 267
f 353 354 265
f 267 355 269
f 354 355 267
f 270 269 355
f 270 355 356
f 271 338 245
f 271 357 338
f 339 272 247
f 358 272 339
f 273 344 253
f 344 273 255
f 274 346 257
f 346 274 275
f 346 275 347
f 347 275 276
f 347 276 349
f 349 276 259
f 277 360 359
f 351 277 359
f 261 277 351
f 360 361 359
f 356 282 270
f 362 282 356
f 283 357 271
f 283 363 357
f 358 284 272
f 364 284 358
f 366 365 360
f 277 366 360
f 285 366 277
f 360 365 361
f 362 290 282
f 367 290 362
f 291 363 283
f 291 368 363
f 364 369 284
f 284 369 292
f 292 370 293
f 369 370 292
f 293 371 294
f 370 371 293
f 294 372 295
f 371 372 294
f 295 373 296
f 372 373 295
f 373 375 374
f 297 373 374
f 296 373 297
f 376 298 297
f 376 297 374
f 298 376 377
f 378 298 377
f 299 298 378
f 299 379 300
f 378 379 299
f 285 300 366
f 366 300 379
f 367 305 290
f 380 305 367
f 306 368 291
f 306 381 368
f 374 375 382
f 382 375 383
f 374 384 376
f 374 382 384
f 377 376 385
f 385 376 384
f 387 386 308
f 308 386 307
f 388 308 309
f 388 387 308
f 389 309 310
f 389 388 309
f 390 310 311
f 390 389 310
f 311 305 380
f 311 380 390
f 391 381 306
f 391 306 312
f 392 312 313
f 392 391 312
f 393 313 314
f 393 392 313
f 394 314 315
f 394 393 314
f 395 315 316
f 395 394 315
f 396 316 317
f 396 395 316
f 318 382 383
f 396 318 383
f 317 318 396
f 382 318 319
f 382 319 384
f 397 385 384
f 319 397 384
f 320 397 319
f 398 320 321
f 398 397 320
f 399 321 322
f 399 398 321
f 322 307 386
f 322 386 399
f 401 400 323
f 401 323 324
f 323 402 325
f 400 402 323
f 325 403 326
f 402 403 325
f 326 404 327
f 403 404 326
f 327 405 328
f 404 405 327
f 328 406 329
f 405 406 328
f 408 407 331
f 329 408 331
f 406 408 329
f 410 409 407
f 410 407 408
f 334 333 409
f 410 334 409
f 411 334 410
f 334 412 335
f 411 412 334
f 335 413 336
f 412 413 335
f 337 336 413
f 337 413 414
f 338 401 324
f 338 415 401
f 417 416 340
f 340 416 339
f 418 340 341
f 418 417 340
f 419 341 342
f 419 418 341
f 420 342 343
f 420 419 342
f 421 343 345
f 421 420 343
f 345 331 407
f 422 345 407
f 421 345 422
f 424 423 422
f 407 424 422
f 409 424 407
f 348 425 333
f 425 409 333
f 425 424 409
f 425 348 426
f 348 427 426
f 348 350 427
f 350 351 427
f 427 351 428
f 414 429 337
f 337 429 352
f 352 430 353
f 429 430 352
f 353 431 354
f 430 431 353
f 354 432 355
f 431 432 354
f 356 355 432
f 356 432 433
f 357 415 338
f 357 434 415
f 416 358 339
f 435 358 416
f 436 423 424
f 436 424 425
f 436 425 437
f 437 425 426
f 351 359 438
f 439 351 438
f 428 351 439
f 361 438 359
f 433 362 356
f 440 362 433
f 363 434 357
f 363 441 434
f 435 364 358
f 442 364 435
f 439 438 365
f 366 439 365
f 443 439 366
f 365 438 361
f 440 367 362
f 444 367 440
f 368 441 363
f 368 445 441
f 442 446 364
f 364 446 369
f 369 447 370
f 446 447 369
f 370 448 371
f 447 448 370
f 371 449 372
f 448 449 371
f 372 450 373
f 449 450 372
f 452 451 375
f 373 452 375
f 450 452 373
f 454 453 451
f 454 451 452
f 378 377 453
f 454 378 453
f 455 378 454
f 378 456 379
f 455 456 378
f 366 379 443
f 443 379 456
f 444 380 367
f 457 380 444
f 381 445 368
f 381 458 445
f 459 383 451
f 451 383 375
f 460 451 453
f 459 451 460
f 385 460 377
f 377 460 453
f 462 461 387
f 387 461 386
f 463 387 388
f 463 462 387
f 464 388 389
f 464 463 388
f 465 389 390
f 465 464 389
f 390 380 457
f 390 457 465
f 466 458 381
f 466 381 391
f 467 391 392
f 467 466 391
f 468 392 393
f 468 467 392
f 469 393 394
f 469 468 393
f 470 394 395
f 470 469 394
f 471 395 396
f 471 470 395
f 396 383 459
f 472 396 459
f 471 396 472
f 472 459 460
f 472 460 473
f 473 460 385
f 397 473 385
f 474 473 397
f 475 397 398
f 475 474 397
f 476 398 399
f 476 475 398
f 399 386 461
f 399 461 476
f 478 477 400
f 478 400 401
f 400 479 402
f 477 479 400
f 402 480 403
f 479 480 402
f 403 481 404
f 480 481 403
f 404 482 405
f 481 482 404
f 405 483 406
f 482 483 405
f 406 484 408
f 483 484 406
f 408 485 410
f 484 485 408
f 410 486 411
f 485 486 410
f 411 487 412
f 486 487 411
f 412 488 413
f 487 488 412
f 414 413 488
f 414 488 489
f 415 478 401
f 415 490 478
f 491 416 417
f 418 492 417
f 417 492 491
f 419 493 418
f 418 493 492
f 420 494 419
f 419 494 493
f 494 420 495
f 420 496 495
f 420 421 496
f 498 496 497
f 496 422 497
f 496 421 422
f 423 497 422
f 499 426 427
f 428 499 427
f 429 414 500
f 414 501 500
f 414 489 501
f 502 430 429
f 502 429 500
f 503 431 430
f 503 430 502
f 504 432 431
f 504 431 503
f 504 433 432
f 434 490 415
f 434 505 490
f 507 506 491
f 506 416 491
f 506 435 416
f 507 491 492
f 507 492 508
f 508 492 493
f 508 493 509
f 509 493 494
f 509 494 510
f 510 494 495
f 511 498 497
f 511 497 423
f 436 511 423
f 512 511 436
f 513 436 437
f 513 512 436
f 437 426 499
f 514 437 499
f 513 437 514
f 499 428 514
f 428 515 514
f 428 439 515
f 501 516 500
f 500 516 502
f 502 516 517
f 502 517 503
f 503 517 518
f 503 518 504
f 504 518 519
f 433 504 519
f 520 433 519
f 440 433 520
f 441 505 434
f 441 521 505
f 506 442 435
f 522 442 506
f 443 515 439
f 443 523 515
f 520 444 440
f 524 444 520
f 445 521 441
f 445 525 521
f 522 526 442
f 442 526 446
f 446 527 447
f 526 527 446
f 447 528 448
f 527 528 447
f 448 529 449
f 528 529 448
f 449 530 450
f 529 530 449
f 450 531 452
f 530 531 450
f 452 532 454
f 531 532 452
f 454 533 455
f 532 533 454
f 455 534 456
f 533 534 455
f 443 456 523
f 523 456 534
f 537 536 535
f 539 538 535
f 535 538 537
f 541 540 539
f 539 540 538
f 543 542 541
f 541 542 540
f 524 542 543
f 457 524 543
f 444 524 457
f 458 525 445
f 458 544 525
f 535 536 462
f 536 461 462
f 536 545 461
f 535 462 463
f 535 463 539
f 539 463 464
f 539 464 541
f 541 464 465
f 541 465 543
f 543 465 457
f 546 544 458
f 546 458 466
f 547 466 467
f 547 546 466
f 548 467 468
f 548 547 467
f 549 468 469
f 549 548 468
f 550 469 470
f 550 549 469
f 551 470 471
f 551 550 470
f 552 471 472
f 552 551 471
f 553 472 473
f 553 552 472
f 554 473 474
f 554 553 473
f 555 474 475
f 555 554 474
f 556 475 476
f 556 555 475
f 476 461 545
f 476 545 556
f 558 557 477
f 558 477 478
f 477 559 479
f 557 559 477
f 479 560 480
f 559 560 479
f 480 561 481
f 560 561 480
f 481 562 482
f 561 562 481
f 482 563 483
f 562 563 482
f 483 564 484
f 563 564 483
f 484 565 485
f 564 565 484
f 485 566 486
f 565 566 485
f 486 567 487
f 566 567 486
f 487 568 488
f 567 568 487
f 489 488 568
f 489 568 569
f 490 558 478
f 490 570 558
f 573 572 571
f 495 496 571
f 496 573 571
f 496 574 573
f 496 498 574
f 574 498 575
f 569 501 489
f 576 501 569
f 505 570 490
f 505 577 570
f 578 506 507
f 578 507 579
f 507 580 579
f 507 508 580
f 581 508 509
f 581 580 508
f 510 571 572
f 581 510 572
f 509 510 581
f 571 510 495
f 498 511 582
f 583 498 582
f 575 498 583
f 512 584 511
f 511 584 582
f 584 512 585
f 512 586 585
f 512 513 586
f 587 513 514
f 587 586 513
f 514 515 587
f 587 515 588
f 516 501 589
f 501 590 589
f 501 576 590
f 591 517 516
f 591 516 589
f 592 518 517
f 592 517 591
f 593 519 518
f 593 518 592
f 593 520 519
f 521 577 505
f 521 594 577
f 595 522 578
f 578 522 506
f 578 579 596
f 578 596 595
f 583 582 597
f 583 597 598
f 599 582 584
f 597 582 599
f 584 585 600
f 584 600 599
f 523 588 515
f 523 601 588
f 589 590 602
f 602 590 603
f 589 604 591
f 589 602 604
f 591 605 592
f 591 604 605
f 592 606 593
f 592 605 606
f 606 524 520
f 606 520 593
f 525 594 521
f 525 607 594
f 595 526 522
f 596 608 595
f 608 526 595
f 608 527 526
f 527 609 528
f 608 609 527
f 528 610 529
f 609 610 528
f 529 611 530
f 610 611 529
f 597 531 598
f 531 611 598
f 531 530 611
f 531 597 532
f 532 597 599
f 600 612 599
f 612 532 599
f 612 533 532
f 533 613 534
f 612 613 533
f 523 534 601
f 601 534 613
f 602 603 537
f 603 536 537
f 603 614 536
f 602 537 538
f 602 538 604
f 604 538 540
f 604 540 605
f 605 540 542
f 605 542 606
f 606 542 524
f 544 607 525
f 544 615 607
f 614 545 536
f 616 545 614
f 617 615 544
f 617 544 546
f 618 546 547
f 618 617 546
f 619 547 548
f 619 618 547
f 620 548 549
f 620 619 548
f 621 549 550
f 621 620 549
f 622 550 551
f 622 621 550
f 623 551 552
f 623 622 551
f 624 552 553
f 624 623 552
f 625 553 554
f 625 624 553
f 626 554 555
f 626 625 554
f 627 555 556
f 627 626 555
f 556 545 616
f 556 616 627
f 629 628 557
f 629 557 558
f 557 630 559
f 628 630 557
f 559 631 560
f 630 631 559
f 560 632 561
f 631 632 560
f 561 633 562
f 632 633 561
f 562 634 563
f 633 634 562
f 563 635 564
f 634 635 563
f 564 636 565
f 635 636 564
f 565 637 566
f 636 637 565
f 566 638 567
f 637 638 566
f 567 639 568
f 638 639 567
f 569 568 639
f 569 639 640
f 570 629 558
f 570 641 629
f 642 572 573
f 574 643 573
f 573 643 642
f 575 643 574
f 640 576 569
f 644 576 640
f 577 641 570
f 577 645 641
f 646 579 580
f 581 647 580
f 580 647 646
f 572 642 581
f 642 647 581
f 642 648 647
f 649 642 643
f 648 642 649
f 583 649 575
f 575 649 643
f 650 585 586
f 587 651 586
f 586 651 650
f 588 651 587
f 644 590 576
f 652 590 644
f 594 645 577
f 594 653 645
f 654 596 646
f 646 596 579
f 655 646 647
f 654 646 655
f 656 647 648
f 655 647 656
f 657 648 649
f 656 648 657
f 598 657 583
f 583 657 649
f 658 600 650
f 650 600 585
f 659 650 651
f 658 650 659
f 601 659 588
f 588 659 651
f 652 603 590
f 660 603 652
f 607 653 594
f 607 661 653
f 654 608 596
f 608 654 609
f 609 654 655
f 609 655 610
f 610 655 656
f 610 656 611
f 611 656 657
f 611 657 598
f 658 612 600
f 612 658 613
f 613 658 659
f 613 659 601
f 660 614 603
f 662 614 660
f 615 661 607
f 615 663 661
f 662 616 614
f 664 616 662
f 665 663 615
f 665 615 617
f 666 617 618
f 666 665 617
f 667 618 619
f 667 666 618
f 668 619 620
f 668 667 619
f 669 620 621
f 669 668 620
f 670 621 622
f 670 669 621
f 671 622 623
f 671 670 622
f 672 623 624
f 672 671 623
f 673 624 625
f 673 672 624
f 674 625 626
f 674 673 625
f 675 626 627
f 675 674 626
f 627 616 664
f 627 664 675
f 629 676 628
f 677 630 628
f 677 628 676
f 678 631 630
f 678 630 677
f 679 632 631
f 679 631 678
f 680 633 632
f 680 632 679
f 681 634 633
f 681 633 680
f 682 635 634
f 682 634 681
f 683 636 635
f 683 635 682
f 684 637 636
f 684 636 683
f 685 638 637
f 685 637 684
f 686 639 638
f 686 638 685
f 686 640 639
f 641 687 676
f 641 676 629
f 676 688 677
f 676 687 688
f 677 689 678
f 677 688 689
f 678 690 679
f 678 689 690
f 679 691 680
f 679 690 691
f 680 692 681
f 680 691 692
f 681 693 682
f 681 692 693
f 682 694 683
f 682 693 694
f 683 695 684
f 683 694 695
f 684 696 685
f 684 695 696
f 685 697 686
f 685 696 697
f 697 644 640
f 697 640 686
f 645 698 687
f 645 687 641
f 687 699 688
f 687 698 699
f 688 700 689
f 688 699 700
f 689 701 690
f 689 700 701
f 690 702 691
f 690 701 702
f 691 703 692
f 691 702 703
f 692 704 693
f 692 703 704
f 693 705 694
f 693 704 705
f 694 706 695
f 694 705 706
f 695 707 696
f 695 706 707
f 696 708 697
f 696 707 708
f 708 652 644
f 708 644 697
f 653 709 698
f 653 698 645
f 698 710 699
f 698 709 710
f 699 711 700
f 699 710 711
f 700 712 701
f 700 711 712
f 701 713 702
f 701 712 713
f 702 714 703
f 702 713 714
f 703 715 704
f 703 714 715
f 704 716 705
f 704 715 716
f 705 717 706
f 705 716 717
f 706 718 707
f 706 717 718
f 707 719 708
f 707 718 719
f 719 660 652
f 719 652 708
f 661 720 709
f 661 709 653
f 709 721 710
f 709 720 721
f 710 722 711
f 710 721 722
f 711 723 712
f 711 722 723
f 712 724 713
f 712 723 724
f 713 725 714
f 713 724 725
f 714 726 715
f 714 725 726
f 715 727 716
f 715 726 727
f 716 728 717
f 716 727 728
f 717 729 718
f 717 728 729
f 718 730 719
f 718 729 730
f 730 662 660
f 730 660 719
f 663 731 720
f 663 720 661
f 720 732 721
f 720 731 732
f 721 733 722
f 721 732 733
f 722 734 723
f 722 733 734
f 723 735 724
f 723 734 735
f 724 736 725
f 724 735 736
f 725 737 726
f 725 736 737
f 726 738 727
f 726 737 738
f 727 739 728
f 727 738 739
f 728 740 729
f 728 739 740
f 729 741 730
f 729 740 741
f 741 664 662
f 741 662 730
f 665 731 663
f 731 665 666
f 731 666 732
f 732 666 667
f 732 667 733
f 733 667 668
f 733 668 734
f 734 668 669
f 734 669 735
f 735 669 670
f 735 670 736
f 736 670 671
f 736 671 737
f 737 671 672
f 737 672 738
f 738 672 673
f 738 673 739
f 739 673 674
f 739 674 740
f 740 674 675
f 740 675 741
f 741 675 664

