# https://github.com/mikedh/trimesh
v -0.02179911 -0.00053518 -0.00911310
v -0.02014318 -0.00192122 -0.01044549
v -0.02011229 0.00055670 -0.01181549
v -0.02212333 -0.00012784 -0.00483504
v -0.02061540 -0.00267825 -0.00589618
v -0.02179871 0.00027486 -0.00056300
v -0.02061093 -0.00234832 -0.00082337
v -0.02015702 -0.00084090 0.00213911
v -0.02058659 0.00209308 -0.00883062
v -0.02062518 0.00245348 -0.00369865
v -0.02017621 0.00167269 0.00083822
v -0.02234349 0.01038879 -0.03418632
v -0.01962319 0.00821878 -0.03680446
v -0.02096833 0.00989167 -0.03758536
v -0.02292888 0.01081214 -0.02914089
v -0.01996796 0.00755274 -0.03172390
v -0.02281295 0.01077630 -0.02392215
v -0.02065773 0.00759164 -0.02640222
v -0.02279132 0.01067927 -0.01870002
v -0.02054605 0.00753573 -0.02116335
v -0.02226241 0.01113793 -0.01475949
v -0.02052410 0.00779070 -0.01625917
v -0.02017378 0.00975483 -0.01296352
v -0.02036247 0.01262160 -0.03637488
v -0.02079861 0.01543495 -0.03313707
v -0.02261970 0.01418158 -0.03140463
v -0.02289873 0.01479229 -0.02647512
v -0.02289240 0.01470067 -0.02121076
v -0.02253145 0.01470330 -0.01632561
v -0.01976711 0.01491701 -0.01232239
v -0.02015965 0.01762903 -0.03024773
v -0.02084898 0.01809575 -0.02404393
v -0.02081385 0.01806590 -0.01883561
v -0.02005535 0.01806390 -0.01491488
v -0.01757482 -0.02012427 -0.02996427
v -0.01420027 -0.02295218 -0.03101861
v -0.01610845 -0.02041952 -0.03373026
v -0.01773319 -0.02056129 -0.02442980
v -0.01515155 -0.02316111 -0.02558544
v -0.01725466 -0.01975481 -0.01964734
v -0.01503043 -0.02272933 -0.02081398
v -0.01480448 -0.02127640 -0.01760376
v -0.01734678 -0.01663187 -0.03466166
v -0.01570790 -0.01832608 -0.03596002
v -0.01536201 -0.01468265 -0.03802875
v -0.01760102 -0.01449811 -0.03084097
v -0.01822042 -0.01593977 -0.02557861
v -0.01812001 -0.01578043 -0.02038612
v -0.01587583 -0.01899040 -0.01581061
v -0.01749722 -0.01561279 -0.01483208
v -0.01737132 -0.01503043 -0.00903507
v -0.01551529 -0.01822139 -0.01148250
v -0.01745879 -0.01518394 -0.00391932
v -0.01500651 -0.01822544 -0.00560411
v -0.01756999 -0.01525247 0.00116758
v -0.01495939 -0.01773428 0.00003978
v -0.01724678 -0.01459891 0.00598970
v -0.01492469 -0.01742860 0.00486336
v -0.01479603 -0.01610024 0.00808003
v -0.01692823 -0.01163607 -0.03554876
v -0.01557404 -0.01026609 -0.03816696
v -0.01532033 -0.01036251 -0.03302674
v -0.01562864 -0.01217513 -0.02965872
v -0.01550369 -0.01016574 -0.02895326
v -0.01746641 -0.01050131 -0.02607922
v -0.01790685 -0.01052884 -0.02028529
v -0.01782586 -0.01035870 -0.01509785
v -0.01780663 -0.01040299 -0.00994548
v -0.01786658 -0.01053789 -0.00491929
v -0.01796880 -0.01068602 0.00003066
v -0.01803583 -0.01066439 0.00511985
v -0.01586022 -0.01386428 0.00985774
v -0.01751610 -0.01053356 0.01078422
v -0.01737304 -0.00992185 0.01665597
v -0.01544139 -0.01308495 0.01416758
v -0.01746537 -0.01001327 0.02175451
v -0.01547198 -0.01314942 0.01928707
v -0.01754074 -0.00998197 0.02688670
v -0.01558800 -0.01322594 0.02446064
v -0.01721739 -0.00930601 0.03182363
v -0.01460897 -0.01313885 0.03037807
v -0.01469676 -0.01084391 0.03374272
v -0.01450654 -0.00828247 -0.03710724
v -0.01522967 -0.00380818 -0.03289135
v -0.01703472 -0.00580767 -0.02909530
v -0.01479772 -0.00774181 -0.03124234
v -0.01782506 -0.00464784 -0.02479999
v -0.01774390 -0.00527837 -0.02028056
v -0.01770043 -0.00589564 -0.01572029
v -0.01829583 -0.00518447 -0.01037025
v -0.01845308 -0.00586570 -0.00456842
v -0.01833766 -0.00507353 0.00076867
v -0.01779965 -0.00540013 0.00535345
v -0.01787422 -0.00539599 0.01041632
v -0.01792730 -0.00533312 0.01555789
v -0.01797294 -0.00537202 0.02069741
v -0.01808519 -0.00539813 0.02584424
v -0.01820784 -0.00532987 0.03108943
v -0.01586460 -0.00868814 0.03569947
v -0.01768070 -0.00523848 0.03681249
v -0.01705094 -0.00416804 0.04164168
v -0.01551919 -0.00766347 0.03993712
v -0.01520969 -0.00578484 0.04344593
v -0.01721078 -0.00014209 -0.03001347
v -0.01526410 0.00117002 -0.03310891
v -0.01777358 -0.00017764 -0.02548035
v -0.01766712 -0.00006883 -0.02027063
v -0.01812912 -0.00075736 -0.01450616
v -0.01825799 0.00050397 0.00501005
v -0.01779663 -0.00013920 0.01069598
v -0.01788796 -0.00003931 0.01580428
v -0.01795313 -0.00004048 0.02092848
v -0.01801671 -0.00003533 0.02605046
v -0.01811078 -0.00000851 0.03120155
v -0.01818163 -0.00072802 0.03568982
v -0.01733785 0.00029984 0.04016055
v -0.01555288 -0.00163768 0.04398398
v -0.01790785 0.00445027 -0.02984174
v -0.01608137 0.00502465 -0.03294754
v -0.01842562 0.00437809 -0.02533538
v -0.01830875 0.00441691 -0.02014801
v -0.01820908 0.00524709 -0.01472712
v -0.01826960 0.00481538 -0.01041489
v -0.01843851 0.00566683 -0.00499058
v -0.01837818 0.00504345 0.00090109
v -0.01785044 0.00575193 0.00633885
v -0.01788758 0.00501879 0.01078335
v -0.01795093 0.00517036 0.01592823
v -0.01802146 0.00524210 0.02110413
v -0.01805221 0.00450115 0.02551462
v -0.01752559 0.00553778 0.02997673
v -0.01728804 0.00427127 0.03562432
v -0.01581026 0.00453984 0.03938810
v -0.01515222 0.00221276 0.04244119
v -0.01813993 0.00988361 -0.04006216
v -0.01503244 0.00817612 -0.04062441
v -0.01396323 0.01113404 -0.04284164
v -0.01510627 0.00668558 -0.03619384
v -0.01839332 0.01078791 -0.00986755
v -0.01782203 0.01037671 -0.00484003
v -0.01782892 0.00961134 -0.00035779
v -0.01739909 0.01054770 0.00425531
v -0.01730285 0.00958444 0.00954533
v -0.01739881 0.00965678 0.01466816
v -0.01749087 0.00980302 0.01990067
v -0.01729418 0.00937270 0.02541320
v -0.01461639 0.01062485 0.02900103
v -0.01538048 0.00812950 0.03247979
v -0.01506381 0.00707918 0.03659990
v -0.01619290 0.01299486 -0.04010882
v -0.01802752 0.01543851 -0.03577140
v -0.01448526 0.01575237 -0.03896880
v -0.01796392 0.01504138 -0.00945501
v -0.01737224 0.01496192 -0.00602579
v -0.01721502 0.01452314 -0.00047456
v -0.01583131 0.01487409 0.00319936
v -0.01539194 0.01320568 0.00695455
v -0.01539902 0.01284318 0.01184428
v -0.01553176 0.01296303 0.01704440
v -0.01556478 0.01302341 0.02220544
v -0.01475850 0.01298258 0.02603610
v -0.01544368 0.01803645 -0.03525847
v -0.01756914 0.02030402 -0.03094738
v -0.01414325 0.02060779 -0.03296711
v -0.01826885 0.02073659 -0.02666113
v -0.01817982 0.02074583 -0.02144922
v -0.01781295 0.02074900 -0.01654319
v -0.01667575 0.01983063 -0.01279957
v -0.01514236 0.01805170 -0.00886205
v -0.01480522 0.01748014 -0.00370877
v -0.01427674 0.01717791 0.00104332
v -0.01511860 0.02232320 -0.02919451
v -0.01500651 0.02266168 -0.02436876
v -0.01488543 0.02268631 -0.01916940
v -0.01418749 0.02241360 -0.01426739
v -0.01359017 -0.02022505 -0.03627141
v -0.00968693 -0.02285709 -0.03491314
v -0.00968836 -0.01988717 -0.03855589
v -0.00981895 -0.02357878 -0.02997365
v -0.01049741 -0.02356137 -0.02547935
v -0.01042429 -0.02352922 -0.02034414
v -0.01322221 -0.02085050 -0.01383750
v -0.01055202 -0.02294303 -0.01552851
v -0.01290350 -0.02078967 -0.00895251
v -0.00967513 -0.02282852 -0.01010184
v -0.01216449 -0.02041555 -0.00461893
v -0.00961801 -0.02252189 -0.00525869
v -0.00948088 -0.02115716 -0.00192733
v -0.01228541 -0.01659302 -0.04036666
v -0.00940749 -0.01724922 -0.04084936
v -0.01048470 -0.01453779 -0.04246946
v -0.01151604 -0.01912013 -0.00069936
v -0.01033896 -0.01871730 0.00485664
v -0.01315642 -0.01567266 0.01181990
v -0.01055577 -0.01769612 0.01012680
v -0.01283272 -0.01568793 0.01662963
v -0.00961962 -0.01760620 0.01550374
v -0.01297559 -0.01578318 0.02178709
v -0.00968454 -0.01769939 0.02057607
v -0.01301382 -0.01578492 0.02701005
v -0.00974825 -0.01774188 0.02581458
v -0.01247924 -0.01577792 0.03055739
v -0.00968422 -0.01746537 0.03072796
v -0.01023571 -0.01577567 0.03357311
v -0.01283486 -0.01112835 -0.04078766
v -0.00972607 -0.01131744 -0.04239522
v -0.01402841 -0.00994975 -0.03105704
v -0.01308325 -0.01057050 0.03758709
v -0.01136825 -0.01313444 0.03544889
v -0.01286867 -0.00983014 0.04279745
v -0.00965579 -0.01323891 0.04090503
v -0.01190199 -0.00958335 0.04677953
v -0.01035184 -0.01219397 0.04559250
v -0.00929896 -0.01070417 0.04825583
v -0.01100449 -0.00779816 -0.03988576
v -0.01311104 -0.00629062 -0.03500706
v -0.00920501 -0.00512582 -0.03888519
v -0.01304842 -0.00496819 0.04623510
v -0.00964226 -0.00678680 0.04934182
v -0.01269415 -0.00120890 -0.03567880
v -0.01023887 0.00131196 -0.03819795
v -0.01297566 0.00116567 0.04596344
v -0.01052251 -0.00137169 0.04931161
v -0.01302355 0.00361728 -0.03553912
v -0.01014054 0.00575844 -0.03809942
v -0.01367476 0.00569546 0.04114013
v -0.01207143 0.00601383 0.04541125
v -0.00950321 0.00471799 0.04933348
v -0.01036187 0.00808420 -0.04004409
v -0.01102285 0.00996361 -0.04284008
v -0.01320855 0.01030226 0.03126410
v -0.01282101 0.00976794 0.03545185
v -0.01207132 0.00961176 0.04093867
v -0.01083096 0.00957015 0.04434657
v -0.00967591 0.00811235 0.04705768
v -0.01280623 0.01456706 -0.04182163
v -0.01016413 0.01375492 -0.04277970
v -0.01359570 0.01587199 0.00485413
v -0.01281114 0.01544436 0.00915002
v -0.01287202 0.01547647 0.01433305
v -0.01299247 0.01557287 0.01953038
v -0.01261596 0.01558568 0.02437221
v -0.01142702 0.01463006 0.02810728
v -0.01069640 0.01289532 0.03183434
v -0.00950107 0.01288004 0.03736860
v -0.00915321 0.01201466 0.04230283
v -0.01122070 0.01676317 -0.04000501
v -0.01029626 0.01886366 -0.03667844
v -0.01008869 0.02097941 -0.03410816
v -0.01305194 0.02104576 -0.01075977
v -0.01074453 0.02020487 -0.00784387
v -0.01073322 0.01885138 -0.00461844
v -0.00999030 0.01842818 0.00042687
v -0.01024689 0.01741816 0.00568861
v -0.00966901 0.01733291 0.01148707
v -0.00974606 0.01744642 0.01667433
v -0.00972819 0.01752511 0.02183098
v -0.00902401 0.01723603 0.02675271
v -0.00997529 0.02264988 -0.03078452
v -0.01044495 0.02318084 -0.02563889
v -0.01035500 0.02319751 -0.02045927
v -0.01026903 0.02322622 -0.01523014
v -0.00958247 0.02241645 -0.00977109
v -0.00399495 -0.02299107 -0.03544363
v -0.00587067 -0.02106069 -0.03781324
v -0.00532087 -0.02347455 -0.03077420
v -0.00524296 -0.02332709 -0.02547576
v -0.00507036 -0.02330494 -0.02020482
v -0.00499037 -0.02334785 -0.01504330
v -0.00498797 -0.02343390 -0.00997375
v -0.00493154 -0.02355411 -0.00484410
v -0.00793732 -0.02080581 0.00189549
v -0.00523102 -0.02301725 0.00011534
v -0.00692053 -0.02037642 0.00591032
v -0.00506269 -0.02233176 0.00448039
v -0.00361311 -0.02077767 0.00784151
v -0.00779443 -0.01408716 -0.04115271
v -0.00520735 -0.01710917 -0.03896618
v -0.00544042 -0.01860679 0.01031939
v -0.00508692 -0.01811631 0.01559112
v -0.00506254 -0.01822929 0.02069053
v -0.00509352 -0.01830813 0.02586682
v -0.00496864 -0.01841466 0.03111792
v -0.00782680 -0.01582421 0.03775522
v -0.00521244 -0.01794810 0.03608385
v -0.00677117 -0.01550500 0.04187287
v -0.00492711 -0.01736295 0.04044305
v -0.00346375 -0.01586560 0.04390934
v -0.00821544 -0.00984494 -0.04067897
v -0.00494014 -0.01123069 -0.03902878
v -0.00644944 -0.01324220 0.04592905
v -0.00462516 -0.01010867 0.04935655
v -0.00530172 -0.00430360 -0.04250634
v -0.00734950 -0.00487382 -0.04093251
v -0.00433369 -0.00742581 -0.04058439
v -0.00553901 -0.00725978 0.05157001
v -0.00759152 -0.00381062 0.05193636
v -0.00398709 -0.00545087 0.05343765
v -0.00783386 -0.00126081 -0.04097019
v -0.00460652 -0.00012989 -0.04312221
v -0.00801935 0.00126399 0.05194102
v -0.00455364 -0.00133587 0.05399578
v -0.00721530 0.00450589 -0.04058156
v -0.00353589 0.00473754 -0.04269338
v -0.00750800 0.00493364 0.05192351
v -0.00469903 0.00371901 0.05367380
v -0.00763875 0.01167797 -0.04110973
v -0.00470172 0.00748123 -0.04078321
v -0.00538027 0.00923475 -0.03931481
v -0.00818507 0.01076611 0.04585959
v -0.00608395 0.00954936 0.04868678
v -0.00436664 0.00740790 0.05170925
v -0.00771692 0.01608996 -0.04018476
v -0.00425819 0.01431756 -0.03886197
v -0.00832123 0.01591828 0.03056285
v -0.00730857 0.01552301 0.03461301
v -0.00587898 0.01515955 0.03851960
v -0.00487497 0.01373115 0.04205698
v -0.00479350 0.01212094 0.04601879
v -0.00467474 0.01961004 -0.03777188
v -0.00781552 0.02063439 -0.03593190
v -0.00821394 0.02083124 -0.00524409
v -0.00727862 0.02047021 -0.00122907
v -0.00579893 0.02010102 0.00254902
v -0.00480937 0.01861026 0.00594812
v -0.00510025 0.01782035 0.01041876
v -0.00513946 0.01793113 0.01548739
v -0.00515919 0.01804747 0.02066371
v -0.00507543 0.01813081 0.02593393
v -0.00497785 0.01769991 0.03166789
v -0.00375749 0.01722526 0.03733257
v -0.00551236 0.02245862 -0.03440197
v -0.00446583 0.02315833 -0.03007372
v -0.00517103 0.02308905 -0.02560956
v -0.00507421 0.02304836 -0.02036837
v -0.00505101 0.02309579 -0.01516554
v -0.00504284 0.02318417 -0.00991893
v -0.00496208 0.02269531 -0.00413558
v -0.00374382 0.02228882 0.00147799
v 0.00128478 -0.02310518 -0.03544983
v -0.00105090 -0.02043857 -0.03792570
v -0.00001288 -0.02355612 -0.03082617
v 0.00006163 -0.02333721 -0.02546867
v 0.00028716 -0.02326228 -0.02019314
v 0.00036739 -0.02330599 -0.01498325
v 0.00034000 -0.02336735 -0.00979169
v 0.00037988 -0.02349668 -0.00454457
v 0.00033554 -0.02361321 0.00064594
v -0.00103016 -0.02294279 0.00506877
v 0.00134103 -0.02078395 0.00825763
v 0.00025979 -0.01576028 -0.03824161
v 0.00000004 -0.01868111 0.01123819
v 0.00008399 -0.01804462 0.01568175
v 0.00027329 -0.01816369 0.02083651
v 0.00028340 -0.01824579 0.02601407
v 0.00037009 -0.01834071 0.03128268
v 0.00034725 -0.01845615 0.03656186
v -0.00091655 -0.01788364 0.04106321
v 0.00150249 -0.01585637 0.04428112
v 0.00022348 -0.01112436 -0.03872513
v -0.00107230 -0.01322144 0.04676164
v 0.00149422 -0.01069942 0.04927127
v 0.00137754 -0.00808701 -0.04083929
v -0.00119543 -0.00486615 -0.04309360
v -0.00101303 -0.00810554 0.05193055
v 0.00025264 -0.00490923 0.05400658
v 0.00014342 -0.00019188 -0.04386456
v 0.00021693 -0.00013079 0.05470243
v 0.00150162 0.00453693 -0.04307318
v 0.00021137 0.00462844 0.05404479
v -0.00106090 0.00797211 -0.04078665
v 0.00023248 0.01102429 -0.03867591
v -0.00109100 0.01055086 0.04936953
v 0.00149664 0.00795395 0.05204411
v 0.00007112 0.01565250 -0.03823559
v -0.00285243 0.01588180 0.04094504
v -0.00058011 0.01513119 0.04321944
v 0.00087120 0.01299371 0.04565731
v 0.00106550 0.02032877 -0.03796848
v -0.00275628 0.02088188 0.00495927
v -0.00013525 0.02012262 0.00753369
v 0.00071717 0.01832748 0.01075121
v 0.00014947 0.01784252 0.01574425
v 0.00020751 0.01797286 0.02089755
v 0.00024928 0.01808146 0.02602739
v 0.00022966 0.01820042 0.03122131
v -0.00045400 0.01822011 0.03580272
v 0.00080123 0.01707788 0.04018661
v 0.00001007 0.02285973 -0.03537568
v 0.00012512 0.02330923 -0.03069030
v 0.00015255 0.02311393 -0.02538746
v 0.00023321 0.02302870 -0.02008478
v 0.00030697 0.02303999 -0.01484831
v 0.00028622 0.02311939 -0.00973661
v 0.00020252 0.02327368 -0.00462145
v 0.00026843 0.02336390 0.00060740
v 0.00060970 0.02235223 0.00516535
v 0.00614150 -0.02291724 -0.03480332
v 0.00456233 -0.02004493 -0.03770366
v 0.00521977 -0.02369310 -0.03067951
v 0.00534230 -0.02348124 -0.02530941
v 0.00556498 -0.02338790 -0.02004813
v 0.00560035 -0.02339335 -0.01487612
v 0.00482848 -0.02338139 -0.01044673
v 0.00545438 -0.02284161 -0.00504379
v 0.00493859 -0.02280899 0.00066796
v 0.00396729 -0.02254187 0.00522153
v 0.00578803 -0.02038324 0.00747144
v 0.00467756 -0.01497524 -0.03820419
v 0.00580711 -0.01863454 0.01069294
v 0.00527168 -0.01810447 0.01578436
v 0.00555363 -0.01820386 0.02091627
v 0.00562111 -0.01827123 0.02609416
v 0.00489499 -0.01826485 0.03056963
v 0.00560980 -0.01779523 0.03603964
v 0.00401687 -0.01747978 0.04115815
v 0.00588200 -0.01543234 0.04353288
v 0.00599244 -0.01050798 -0.03872701
v 0.00498026 -0.01327965 0.04622026
v 0.00688841 -0.00995893 0.04929517
v 0.00582342 -0.00728606 -0.04046980
v 0.00380121 -0.00492597 -0.04273923
v 0.00402847 -0.00788062 0.05190602
v 0.00500800 -0.00397295 0.05370145
v 0.00487633 -0.00021431 -0.04311517
v 0.00497380 0.00106232 0.05404919
v 0.00556022 0.00395825 -0.04247219
v 0.00448010 0.00518445 0.05350187
v 0.00397076 0.00750883 -0.04078813
v 0.00564098 0.01014090 -0.03870899
v 0.00442316 0.00992162 0.04940366
v 0.00511300 0.00735295 0.05198796
v 0.00505675 0.01567111 -0.03847283
v 0.00251057 0.01512545 0.04252855
v 0.00479395 0.01586458 0.03947264
v 0.00601145 0.01372226 0.04119996
v 0.00636189 0.01216456 0.04541141
v 0.00590818 0.01966659 -0.03771705
v 0.00395973 0.02050219 0.00800142
v 0.00668045 0.01842597 0.01052292
v 0.00536991 0.01789259 0.01590869
v 0.00546973 0.01800488 0.02108388
v 0.00482625 0.01807502 0.02548538
v 0.00584581 0.01758384 0.02992499
v 0.00451331 0.01735114 0.03561085
v 0.00483817 0.02263008 -0.03540905
v 0.00538709 0.02341592 -0.03067937
v 0.00549600 0.02323403 -0.02527410
v 0.00551040 0.02313633 -0.01999394
v 0.00558236 0.02313689 -0.01478355
v 0.00485798 0.02312442 -0.01036064
v 0.00571273 0.02260237 -0.00591446
v 0.00482081 0.02261340 -0.00074550
v 0.00487778 0.02233132 0.00414097
v 0.00819080 -0.02052904 -0.03635319
v 0.01092465 -0.02059369 -0.03332681
v 0.00983367 -0.02275977 -0.03034448
v 0.00995891 -0.02292467 -0.02530424
v 0.01010131 -0.02284130 -0.01997338
v 0.01015730 -0.02284485 -0.01483997
v 0.00909752 -0.02261338 -0.00946809
v 0.00863662 -0.02110133 -0.00504021
v 0.01121315 -0.02039969 -0.00767099
v 0.00800664 -0.02074307 -0.00074086
v 0.00774321 -0.02073981 0.00415460
v 0.01119829 -0.01817061 -0.03561683
v 0.00963764 -0.01558531 -0.03769047
v 0.01149712 -0.01891156 -0.00400565
v 0.01113962 -0.01874016 0.00154397
v 0.00965460 -0.01873105 0.00643975
v 0.01104401 -0.01751809 0.01064478
v 0.00983963 -0.01755295 0.01581751
v 0.01003646 -0.01766810 0.02097769
v 0.01018914 -0.01772170 0.02609123
v 0.00920632 -0.01749967 0.03157420
v 0.00887682 -0.01605058 0.03613061
v 0.01067951 -0.01567839 0.03382032
v 0.00781801 -0.01572643 0.04017053
v 0.01065838 -0.01049099 -0.03824691
v 0.01129793 -0.01355569 0.03648716
v 0.00983972 -0.01316986 0.04290654
v 0.00959114 -0.01218542 0.04678341
v 0.01073714 -0.00962569 0.04828809
v 0.00774693 -0.00386405 -0.04092105
v 0.01043285 -0.00664819 -0.03876431
v 0.00745506 -0.00603352 0.05157989
v 0.01020770 -0.00504650 0.04944414
v 0.00813838 0.00108504 -0.04092914
v 0.01131152 -0.00143423 -0.03887318
v 0.00826732 -0.00154785 0.05201644
v 0.01070063 0.00103999 0.04937222
v 0.00738388 0.00545572 -0.04045944
v 0.01066571 0.00446578 -0.03877776
v 0.00771820 0.00483426 0.05132106
v 0.01038476 0.00555481 0.04850415
v 0.01044302 0.01024806 -0.03839875
v 0.00840520 0.00923511 0.04760782
v 0.00989814 0.01094747 0.04430512
v 0.01102433 0.00828267 0.04580465
v 0.01052349 0.01500771 -0.03778949
v 0.00845078 0.01538217 0.03248299
v 0.01038373 0.01511137 0.02905297
v 0.01061827 0.01324365 0.03126748
v 0.01010519 0.01281185 0.03549397
v 0.00738385 0.01508780 0.03662812
v 0.00995562 0.01211087 0.04094613
v 0.01084765 0.01809774 -0.03551805
v 0.00812689 0.02120579 -0.03528066
v 0.01125530 0.02034518 -0.03292852
v 0.00828227 0.02048760 -0.00317188
v 0.00984875 0.02084295 -0.00688945
v 0.01201698 0.01864837 -0.00513884
v 0.01105056 0.01851907 0.00031599
v 0.00798877 0.02050017 0.00166432
v 0.00992443 0.01854371 0.00551942
v 0.00731592 0.02016562 0.00605589
v 0.01135419 0.01736549 0.00966128
v 0.00984812 0.01735395 0.01462066
v 0.00995350 0.01748711 0.01985106
v 0.00966511 0.01733359 0.02534324
v 0.00935649 0.02247283 -0.03156397
v 0.01011808 0.02266206 -0.02645340
v 0.01010750 0.02258761 -0.02121340
v 0.01017150 0.02258862 -0.01604080
v 0.00968525 0.02235795 -0.01051657
v 0.01260739 -0.02099608 -0.03019272
v 0.01316218 -0.02089971 -0.02653769
v 0.01322189 -0.02083190 -0.02122227
v 0.01327289 -0.02083737 -0.01605980
v 0.01288729 -0.02079917 -0.01130470
v 0.01356658 -0.01509478 -0.03621235
v 0.01575722 -0.01579784 -0.03333140
v 0.01517574 -0.01826172 -0.02960839
v 0.01571285 -0.01815364 -0.02413065
v 0.01567184 -0.01813712 -0.01884796
v 0.01567024 -0.01815963 -0.01378932
v 0.01481727 -0.01814120 -0.00867211
v 0.01557457 -0.01742930 -0.00421416
v 0.01507630 -0.01754550 0.00016628
v 0.01411601 -0.01734745 0.00569336
v 0.01381946 -0.01598852 0.01022719
v 0.01571619 -0.01567723 0.00796623
v 0.01303824 -0.01566362 0.01455814
v 0.01311188 -0.01572362 0.01970480
v 0.01336936 -0.01582164 0.02475187
v 0.01275947 -0.01548363 0.03032590
v 0.01663193 -0.01279606 -0.03554948
v 0.01430552 -0.01077098 -0.03753873
v 0.01634409 -0.01366037 0.01075577
v 0.01563401 -0.01315766 0.01685159
v 0.01584965 -0.01323219 0.02194345
v 0.01588196 -0.01325202 0.02699812
v 0.01484618 -0.01255109 0.03176686
v 0.01386296 -0.01086358 0.03565941
v 0.01612881 -0.00980069 0.03380560
v 0.01320711 -0.01003692 0.04094038
v 0.01216201 -0.01067632 0.04567311
v 0.01523668 -0.00534717 -0.03765956
v 0.01580160 -0.00821845 0.03770484
v 0.01548342 -0.00718400 0.04197517
v 0.01326094 -0.00677585 0.04602877
v 0.01585037 -0.00380970 0.04402796
v 0.01519164 -0.00023202 -0.03765094
v 0.01320237 -0.00071039 0.04633305
v 0.01546264 0.00034896 0.04359749
v 0.01512542 0.00500301 -0.03774702
v 0.01396306 0.00491273 0.04204166
v 0.01540028 0.00601918 0.03860207
v 0.01613201 0.00305380 0.04098953
v 0.01232455 0.00484435 0.04596278
v 0.01508761 0.00995193 -0.03756121
v 0.01318515 0.01114834 0.03142611
v 0.01542973 0.01106496 0.02830527
v 0.01614301 0.00851004 0.03090913
v 0.01575081 0.00749036 0.03483290
v 0.01316081 0.00954437 0.03743782
v 0.01227130 0.00924236 0.04224071
v 0.01625134 0.01282808 -0.03543438
v 0.01296781 0.01548632 -0.03599794
v 0.01567988 0.01541110 -0.03331717
v 0.01331340 0.01539397 0.01210152
v 0.01532634 0.01509371 0.00860885
v 0.01559949 0.01325231 0.01091354
v 0.01564837 0.01279369 0.01447110
v 0.01310316 0.01551360 0.01706419
v 0.01577539 0.01300945 0.01976451
v 0.01327876 0.01562329 0.02224587
v 0.01582808 0.01272920 0.02463499
v 0.01323020 0.01430725 0.02664753
v 0.01453097 0.01794484 -0.03130208
v 0.01296248 0.02060115 -0.02903913
v 0.01578508 0.01790554 -0.02661852
v 0.01328717 0.02058686 -0.02405741
v 0.01569938 0.01788774 -0.02148388
v 0.01325256 0.02058352 -0.01891895
v 0.01566686 0.01790600 -0.01632753
v 0.01324936 0.02054396 -0.01379939
v 0.01512223 0.01788115 -0.01052118
v 0.01244013 0.02014268 -0.00951243
v 0.01554077 0.01715444 -0.00557611
v 0.01495998 0.01735964 -0.00089073
v 0.01453312 0.01721701 0.00467355
v 0.01789899 -0.01562160 -0.03032869
v 0.01835599 -0.01558375 -0.02679023
v 0.01825094 -0.01557021 -0.02158585
v 0.01822167 -0.01557452 -0.01642500
v 0.01821443 -0.01560779 -0.01133041
v 0.01823216 -0.01565409 -0.00622940
v 0.01837383 -0.01570638 -0.00109732
v 0.01782397 -0.01545961 0.00454937
v 0.01823173 -0.00904631 -0.03583247
v 0.01988554 -0.01129295 -0.03335242
v 0.02050933 -0.01315509 -0.02976546
v 0.02098406 -0.01315111 -0.02443958
v 0.02086908 -0.01312804 -0.01924401
v 0.02086990 -0.01313357 -0.01412402
v 0.02089496 -0.01315130 -0.00898331
v 0.02100647 -0.01315351 -0.00373998
v 0.02108104 -0.01321481 0.00146416
v 0.02005178 -0.01266735 0.00628709
v 0.01846662 -0.01013041 0.01072016
v 0.02087001 -0.00920430 0.00764218
v 0.01755243 -0.01002418 0.01549748
v 0.01767366 -0.00999088 0.02062545
v 0.01783457 -0.01001790 0.02575021
v 0.01751646 -0.00994137 0.03059035
v 0.01847192 -0.00419729 -0.03580175
v 0.02110003 -0.00678952 -0.03333863
v 0.01866328 -0.00560244 0.01101138
v 0.02075347 -0.00428344 0.00802387
v 0.01805335 -0.00550315 0.01550307
v 0.01820748 -0.00538035 0.02069813
v 0.01837723 -0.00531241 0.02589564
v 0.01848638 -0.00521511 0.03107911
v 0.01796420 -0.00553762 0.03602170
v 0.01735569 -0.00528198 0.04054766
v 0.01839439 0.00095427 -0.03582256
v 0.02101356 -0.00167070 -0.03329698
v 0.01862793 -0.00035770 0.01104401
v 0.02075681 0.00100583 0.00807074
v 0.01802200 -0.00019609 0.01554638
v 0.01818732 -0.00000913 0.02081994
v 0.01831015 0.00006026 0.02609407
v 0.01840342 0.00013049 0.03138378
v 0.01849593 -0.00064846 0.03584725
v 0.01766060 -0.00077377 0.04070856
v 0.01841379 0.00618820 -0.03590884
v 0.02105451 0.00364888 -0.03331782
v 0.01876343 0.00490188 0.01118369
v 0.02087412 0.00629121 0.00820158
v 0.01811674 0.00505826 0.01568902
v 0.01822637 0.00529673 0.02094324
v 0.01829936 0.00458518 0.02545147
v 0.01781968 0.00526731 0.03087083
v 0.01757519 0.00374603 0.03682714
v 0.01797778 0.00978248 -0.03593204
v 0.02059489 0.00913570 -0.03328645
v 0.01802273 0.01064048 0.01037077
v 0.02060721 0.01073576 0.00753282
v 0.01759708 0.00958150 0.01571993
v 0.01768654 0.00983964 0.02100948
v 0.01757142 0.00889218 0.02649551
v 0.01990833 0.01279582 -0.03122365
v 0.01811001 0.01530879 -0.02907561
v 0.02111954 0.01277383 -0.02653123
v 0.01836270 0.01529960 -0.02410237
v 0.02095649 0.01280128 -0.02129748
v 0.01820949 0.01532261 -0.01892242
v 0.02086050 0.01287430 -0.01608124
v 0.01819643 0.01535265 -0.01379507
v 0.02087715 0.01289983 -0.01098332
v 0.01818718 0.01538464 -0.00861889
v 0.02088682 0.01294932 -0.00583903
v 0.01821057 0.01548763 -0.00341316
v 0.02095228 0.01310086 -0.00061341
v 0.01829390 0.01559076 0.00175909
v 0.02101503 0.01277522 0.00426147
v 0.01833288 0.01431977 0.00623406
v 0.02276046 -0.00919187 -0.03017664
v 0.02302419 -0.01007487 -0.02562781
v 0.02289965 -0.01004385 -0.02045663
v 0.02285155 -0.01002050 -0.01532236
v 0.02285566 -0.01001068 -0.01019867
v 0.02293479 -0.00988731 -0.00497389
v 0.02307064 -0.00992711 0.00028360
v 0.02255465 -0.01066558 0.00432964
v 0.02299600 -0.00436656 -0.03012003
v 0.02356842 -0.00556080 -0.02559167
v 0.02346774 -0.00553196 -0.02040711
v 0.02340920 -0.00545284 -0.01523722
v 0.02341161 -0.00544179 -0.01011196
v 0.02348883 -0.00529141 -0.00490623
v 0.02359959 -0.00525023 0.00037377
v 0.02298390 -0.00663720 0.00488009
v 0.02296811 0.00090498 -0.03010756
v 0.02352112 -0.00032001 -0.02552596
v 0.02343184 -0.00026005 -0.02028677
v 0.02336718 -0.00013520 -0.01509039
v 0.02336864 -0.00012245 -0.00996094
v 0.02343634 0.00001088 -0.00476071
v 0.02352459 0.00006926 0.00048526
v 0.02286655 -0.00134043 0.00501031
v 0.02310677 0.00618948 -0.02999085
v 0.02360975 0.00498702 -0.02540862
v 0.02348274 0.00504658 -0.02014020
v 0.02341126 0.00518451 -0.01493729
v 0.02340926 0.00519204 -0.00981028
v 0.02344920 0.00528670 -0.00462302
v 0.02351397 0.00533174 0.00059930
v 0.02287789 0.00396186 0.00508387
v 0.02267060 0.01021680 -0.02949063
v 0.02310845 0.00959540 -0.02533719
v 0.02292778 0.00963680 -0.02006536
v 0.02285554 0.00975717 -0.01485132
v 0.02285608 0.00976244 -0.00973097
v 0.02287087 0.00981221 -0.00456885
v 0.02293279 0.00991196 0.00064286
v 0.02263985 0.00891252 0.00519477
f 3 2 1
f 5 4 1
f 5 1 2
f 7 6 4
f 7 4 5
f 8 6 7
f 9 3 1
f 9 1 4
f 9 4 10
f 10 4 6
f 10 6 11
f 11 6 8
f 14 13 12
f 16 15 12
f 16 12 13
f 18 17 15
f 18 15 16
f 20 19 17
f 20 17 18
f 22 21 19
f 22 19 20
f 23 21 22
f 24 14 12
f 26 25 24
f 12 26 24
f 15 26 12
f 27 15 17
f 26 15 27
f 28 17 19
f 27 17 28
f 29 19 21
f 28 19 29
f 21 23 30
f 21 30 29
f 31 25 26
f 31 26 27
f 31 27 32
f 32 27 28
f 32 28 33
f 33 28 29
f 33 29 34
f 34 29 30
f 37 36 35
f 39 38 35
f 39 35 36
f 41 40 38
f 41 38 39
f 42 40 41
f 45 44 43
f 43 44 37
f 35 43 37
f 46 43 35
f 47 35 38
f 46 35 47
f 48 38 40
f 47 38 48
f 40 42 49
f 50 40 49
f 48 40 50
f 52 51 50
f 52 50 49
f 54 53 51
f 54 51 52
f 56 55 53
f 56 53 54
f 58 57 55
f 58 55 56
f 59 57 58
f 45 43 60
f 45 60 61
f 46 63 62
f 60 46 62
f 43 46 60
f 65 64 63
f 46 65 63
f 47 65 46
f 66 47 48
f 65 47 66
f 67 48 50
f 66 48 67
f 68 50 51
f 67 50 68
f 69 51 53
f 68 51 69
f 70 53 55
f 69 53 70
f 71 55 57
f 70 55 71
f 57 59 72
f 73 57 72
f 71 57 73
f 75 74 73
f 75 73 72
f 77 76 74
f 77 74 75
f 79 78 76
f 79 76 77
f 81 80 78
f 81 78 79
f 82 80 81
f 83 61 60
f 86 85 84
f 62 83 60
f 85 86 64
f 65 85 64
f 87 85 65
f 88 65 66
f 87 65 88
f 89 66 67
f 88 66 89
f 90 67 68
f 89 67 90
f 91 68 69
f 90 68 91
f 92 69 70
f 91 69 92
f 93 70 71
f 92 70 93
f 94 71 73
f 93 71 94
f 95 73 74
f 94 73 95
f 96 74 76
f 95 74 96
f 97 76 78
f 96 76 97
f 98 78 80
f 97 78 98
f 80 82 99
f 100 80 99
f 98 80 100
f 102 101 100
f 102 100 99
f 103 101 102
f 84 85 104
f 84 104 105
f 106 85 87
f 104 85 106
f 107 87 88
f 106 87 107
f 108 88 89
f 107 88 108
f 3 108 2
f 108 90 2
f 108 89 90
f 2 90 5
f 5 90 91
f 5 91 7
f 7 91 92
f 7 92 8
f 92 109 8
f 92 93 109
f 110 93 94
f 109 93 110
f 111 94 95
f 110 94 111
f 112 95 96
f 111 95 112
f 113 96 97
f 112 96 113
f 114 97 98
f 113 97 114
f 115 98 100
f 114 98 115
f 116 100 101
f 115 100 116
f 101 103 117
f 101 117 116
f 105 104 118
f 105 118 119
f 120 104 106
f 118 104 120
f 121 106 107
f 120 106 121
f 122 107 108
f 121 107 122
f 9 123 3
f 123 108 3
f 123 122 108
f 10 124 9
f 9 124 123
f 11 125 10
f 10 125 124
f 8 109 11
f 109 125 11
f 109 126 125
f 127 109 110
f 126 109 127
f 128 110 111
f 127 110 128
f 129 111 112
f 128 111 129
f 130 112 113
f 129 112 130
f 131 113 114
f 130 113 131
f 132 114 115
f 131 114 132
f 116 134 133
f 132 116 133
f 115 116 132
f 134 116 117
f 137 136 135
f 13 14 135
f 136 13 135
f 138 13 136
f 118 16 119
f 16 138 119
f 16 13 138
f 16 118 18
f 18 118 120
f 18 120 20
f 20 120 121
f 20 121 22
f 22 121 122
f 22 122 23
f 122 139 23
f 122 123 139
f 140 123 124
f 139 123 140
f 141 124 125
f 140 124 141
f 142 125 126
f 141 125 142
f 143 126 127
f 142 126 143
f 144 127 128
f 143 127 144
f 145 128 129
f 144 128 145
f 146 129 130
f 145 129 146
f 131 148 147
f 146 131 147
f 130 131 146
f 148 131 132
f 148 132 149
f 149 132 133
f 150 137 135
f 152 150 151
f 151 150 24
f 150 135 24
f 135 14 24
f 25 151 24
f 153 30 139
f 139 30 23
f 154 139 140
f 153 139 154
f 155 140 141
f 154 140 155
f 142 157 156
f 155 142 156
f 141 142 155
f 157 142 143
f 157 143 158
f 158 143 144
f 158 144 159
f 159 144 145
f 159 145 160
f 160 145 146
f 160 146 161
f 161 146 147
f 162 152 151
f 164 162 163
f 163 162 31
f 162 151 31
f 151 25 31
f 32 165 31
f 31 165 163
f 33 166 32
f 32 166 165
f 34 167 33
f 33 167 166
f 168 167 34
f 168 34 30
f 169 168 30
f 153 169 30
f 169 153 154
f 169 154 170
f 170 154 155
f 170 155 171
f 171 155 156
f 172 164 163
f 172 163 165
f 172 165 173
f 173 165 166
f 173 166 174
f 174 166 167
f 174 167 175
f 175 167 168
f 178 177 176
f 36 37 176
f 177 36 176
f 179 36 177
f 36 180 39
f 179 180 36
f 39 181 41
f 180 181 39
f 183 182 42
f 41 183 42
f 181 183 41
f 185 184 182
f 185 182 183
f 187 186 184
f 187 184 185
f 188 186 187
f 191 190 189
f 189 190 178
f 189 178 176
f 45 189 176
f 44 45 176
f 44 176 37
f 182 49 42
f 49 182 52
f 52 182 184
f 52 184 54
f 54 184 186
f 188 192 186
f 192 54 186
f 192 56 54
f 56 193 58
f 192 193 56
f 195 194 59
f 58 195 59
f 193 195 58
f 197 196 194
f 197 194 195
f 199 198 196
f 199 196 197
f 201 200 198
f 201 198 199
f 203 202 200
f 203 200 201
f 204 202 203
f 191 189 205
f 191 205 206
f 61 205 45
f 45 205 189
f 207 62 63
f 64 207 63
f 194 72 59
f 72 194 75
f 75 194 196
f 75 196 77
f 77 196 198
f 77 198 79
f 79 198 200
f 79 200 81
f 81 200 202
f 209 208 82
f 209 82 81
f 204 209 81
f 202 204 81
f 211 210 208
f 211 208 209
f 213 212 210
f 213 210 211
f 214 212 213
f 215 206 205
f 217 215 216
f 216 215 83
f 215 205 83
f 205 61 83
f 83 62 216
f 62 207 216
f 86 84 216
f 86 216 207
f 86 207 64
f 208 99 82
f 99 208 102
f 102 208 210
f 102 210 103
f 210 218 103
f 210 212 218
f 212 214 219
f 212 219 218
f 217 216 220
f 217 220 221
f 105 220 84
f 84 220 216
f 222 117 218
f 218 117 103
f 218 219 223
f 218 223 222
f 221 220 224
f 221 224 225
f 119 224 105
f 105 224 220
f 226 133 134
f 117 222 134
f 222 226 134
f 222 227 226
f 222 223 228
f 222 228 227
f 230 229 136
f 230 136 137
f 224 138 225
f 138 229 225
f 138 136 229
f 138 224 119
f 231 147 148
f 149 232 148
f 148 232 231
f 133 226 149
f 226 232 149
f 226 233 232
f 227 235 234
f 233 227 234
f 226 227 233
f 235 227 228
f 137 150 236
f 237 137 236
f 230 137 237
f 152 236 150
f 238 156 157
f 158 239 157
f 157 239 238
f 159 240 158
f 158 240 239
f 160 241 159
f 159 241 240
f 161 242 160
f 160 242 241
f 243 242 161
f 243 161 147
f 244 243 147
f 231 244 147
f 244 231 232
f 244 232 245
f 245 232 233
f 245 233 246
f 246 233 234
f 247 237 236
f 247 236 152
f 162 247 152
f 248 247 162
f 162 164 248
f 248 164 249
f 250 168 169
f 250 169 251
f 169 252 251
f 169 170 252
f 253 170 171
f 253 252 170
f 171 156 238
f 254 171 238
f 253 171 254
f 254 238 239
f 254 239 255
f 255 239 240
f 255 240 256
f 256 240 241
f 256 241 257
f 257 241 242
f 257 242 258
f 258 242 243
f 259 249 164
f 259 164 172
f 260 172 173
f 260 259 172
f 261 173 174
f 261 260 173
f 262 174 175
f 262 261 174
f 175 168 250
f 263 175 250
f 262 175 263
f 263 250 251
f 265 264 177
f 265 177 178
f 177 266 179
f 264 266 177
f 179 267 180
f 266 267 179
f 180 268 181
f 267 268 180
f 181 269 183
f 268 269 181
f 183 270 185
f 269 270 183
f 185 271 187
f 270 271 185
f 273 272 188
f 187 273 188
f 271 273 187
f 275 274 272
f 275 272 273
f 276 274 275
f 191 277 190
f 277 278 190
f 278 178 190
f 278 265 178
f 272 192 188
f 192 272 193
f 193 272 274
f 276 279 274
f 279 193 274
f 279 195 193
f 195 280 197
f 279 280 195
f 197 281 199
f 280 281 197
f 199 282 201
f 281 282 199
f 201 283 203
f 282 283 201
f 285 284 204
f 203 285 204
f 283 285 203
f 287 286 284
f 287 284 285
f 288 286 287
f 206 289 277
f 206 277 191
f 278 277 290
f 290 277 289
f 284 209 204
f 209 284 211
f 211 284 286
f 288 291 286
f 291 211 286
f 291 213 211
f 214 213 291
f 214 291 292
f 289 206 215
f 295 294 293
f 294 295 217
f 295 290 217
f 289 215 217
f 289 217 290
f 297 219 296
f 219 292 296
f 219 214 292
f 298 297 296
f 293 294 299
f 293 299 300
f 221 299 217
f 217 299 294
f 301 223 297
f 297 223 219
f 297 298 302
f 297 302 301
f 300 299 303
f 300 303 304
f 225 303 221
f 221 303 299
f 305 228 301
f 301 228 223
f 301 302 306
f 301 306 305
f 229 230 307
f 303 308 304
f 308 303 309
f 303 225 309
f 229 307 309
f 229 309 225
f 310 234 235
f 311 310 235
f 311 235 228
f 312 311 228
f 305 312 228
f 312 305 306
f 237 313 307
f 237 307 230
f 309 307 314
f 314 307 313
f 315 243 244
f 245 316 244
f 244 316 315
f 316 245 317
f 245 318 317
f 245 246 318
f 246 234 310
f 319 246 310
f 318 246 319
f 319 310 311
f 247 313 237
f 247 248 313
f 248 320 313
f 320 314 313
f 248 321 320
f 249 321 248
f 322 251 252
f 253 323 252
f 252 323 322
f 323 253 324
f 253 325 324
f 253 254 325
f 326 254 255
f 326 325 254
f 327 255 256
f 327 326 255
f 328 256 257
f 328 327 256
f 329 257 258
f 329 328 257
f 258 243 315
f 330 258 315
f 329 258 330
f 330 315 316
f 330 316 331
f 331 316 317
f 332 320 321
f 332 321 249
f 259 332 249
f 333 332 259
f 334 259 260
f 334 333 259
f 335 260 261
f 335 334 260
f 336 261 262
f 336 335 261
f 337 262 263
f 337 336 262
f 263 251 322
f 338 263 322
f 337 263 338
f 338 322 323
f 338 323 339
f 339 323 324
f 341 340 264
f 341 264 265
f 264 342 266
f 340 342 264
f 266 343 267
f 342 343 266
f 267 344 268
f 343 344 267
f 268 345 269
f 344 345 268
f 269 346 270
f 345 346 269
f 270 347 271
f 346 347 270
f 271 348 273
f 347 348 271
f 273 349 275
f 348 349 273
f 276 275 349
f 276 349 350
f 278 341 265
f 278 351 341
f 350 352 276
f 276 352 279
f 279 353 280
f 352 353 279
f 280 354 281
f 353 354 280
f 281 355 282
f 354 355 281
f 282 356 283
f 355 356 282
f 283 357 285
f 356 357 283
f 285 358 287
f 357 358 285
f 288 287 358
f 288 358 359
f 290 351 278
f 290 360 351
f 359 361 288
f 288 361 291
f 292 291 361
f 292 361 362
f 364 363 295
f 364 295 293
f 290 295 360
f 360 295 363
f 362 365 292
f 292 365 296
f 298 296 365
f 298 365 366
f 300 364 293
f 300 367 364
f 366 302 298
f 368 302 366
f 304 367 300
f 304 369 367
f 368 306 302
f 370 306 368
f 371 369 304
f 371 304 308
f 308 309 371
f 371 309 372
f 374 373 312
f 312 373 311
f 312 306 370
f 312 370 374
f 314 372 309
f 314 375 372
f 376 317 318
f 376 318 377
f 318 378 377
f 318 319 378
f 319 311 373
f 319 373 378
f 320 375 314
f 320 379 375
f 380 324 325
f 380 325 381
f 325 382 381
f 325 326 382
f 383 326 327
f 383 382 326
f 384 327 328
f 384 383 327
f 385 328 329
f 385 384 328
f 386 329 330
f 386 385 329
f 387 330 331
f 387 386 330
f 331 317 376
f 388 331 376
f 387 331 388
f 388 376 377
f 389 379 320
f 389 320 332
f 390 332 333
f 390 389 332
f 391 333 334
f 391 390 333
f 392 334 335
f 392 391 334
f 393 335 336
f 393 392 335
f 394 336 337
f 394 393 336
f 395 337 338
f 395 394 337
f 396 338 339
f 396 395 338
f 339 324 380
f 397 339 380
f 396 339 397
f 397 380 381
f 399 398 340
f 399 340 341
f 340 400 342
f 398 400 340
f 342 401 343
f 400 401 342
f 343 402 344
f 401 402 343
f 344 403 345
f 402 403 344
f 345 404 346
f 403 404 345
f 346 405 347
f 404 405 346
f 347 406 348
f 405 406 347
f 348 407 349
f 406 407 348
f 350 349 407
f 350 407 408
f 351 399 341
f 351 409 399
f 408 410 350
f 350 410 352
f 352 411 353
f 410 411 352
f 353 412 354
f 411 412 353
f 354 413 355
f 412 413 354
f 355 414 356
f 413 414 355
f 356 415 357
f 414 415 356
f 357 416 358
f 415 416 357
f 359 358 416
f 359 416 417
f 360 409 351
f 360 418 409
f 417 419 359
f 359 419 361
f 362 361 419
f 362 419 420
f 422 421 363
f 422 363 364
f 360 363 418
f 418 363 421
f 420 423 362
f 362 423 365
f 366 365 423
f 366 423 424
f 367 422 364
f 367 425 422
f 424 368 366
f 426 368 424
f 369 425 367
f 369 427 425
f 426 370 368
f 428 370 426
f 429 427 369
f 429 369 371
f 371 372 429
f 429 372 430
f 432 431 374
f 374 431 373
f 374 370 428
f 374 428 432
f 375 430 372
f 375 433 430
f 436 435 434
f 377 378 434
f 378 436 434
f 378 437 436
f 378 373 431
f 378 431 437
f 379 433 375
f 379 438 433
f 440 439 382
f 382 439 381
f 441 382 383
f 441 440 382
f 442 383 384
f 442 441 383
f 443 384 385
f 443 442 384
f 444 385 386
f 444 443 385
f 445 386 387
f 445 444 386
f 388 434 435
f 445 388 435
f 387 388 445
f 434 388 377
f 446 438 379
f 446 379 389
f 447 389 390
f 447 446 389
f 448 390 391
f 448 447 390
f 449 391 392
f 449 448 391
f 450 392 393
f 450 449 392
f 451 393 394
f 451 450 393
f 452 394 395
f 452 451 394
f 453 395 396
f 453 452 395
f 454 396 397
f 454 453 396
f 397 381 439
f 397 439 454
f 399 455 398
f 398 455 456
f 457 398 456
f 400 398 457
f 400 458 401
f 457 458 400
f 401 459 402
f 458 459 401
f 402 460 403
f 459 460 402
f 403 461 404
f 460 461 403
f 461 463 462
f 405 461 462
f 404 461 405
f 464 406 405
f 464 405 462
f 465 407 406
f 465 406 464
f 465 408 407
f 467 466 455
f 399 467 455
f 409 467 399
f 455 466 456
f 463 468 462
f 462 468 464
f 464 468 469
f 464 469 465
f 465 469 470
f 465 470 408
f 470 410 408
f 470 471 410
f 410 472 411
f 471 472 410
f 411 473 412
f 472 473 411
f 412 474 413
f 473 474 412
f 413 475 414
f 474 475 413
f 475 477 476
f 415 475 476
f 414 475 415
f 478 416 415
f 478 415 476
f 478 417 416
f 418 467 409
f 418 479 467
f 477 480 476
f 476 480 478
f 478 480 481
f 478 481 417
f 481 419 417
f 481 482 419
f 420 419 482
f 420 482 483
f 422 484 421
f 484 485 421
f 485 418 421
f 485 479 418
f 423 420 486
f 420 487 486
f 420 483 487
f 486 424 423
f 425 488 484
f 425 484 422
f 485 484 489
f 489 484 488
f 486 487 490
f 490 487 491
f 490 426 424
f 490 424 486
f 427 492 488
f 427 488 425
f 489 488 493
f 493 488 492
f 490 491 494
f 494 491 495
f 494 428 426
f 494 426 490
f 429 492 427
f 429 430 492
f 430 493 492
f 430 496 493
f 499 498 497
f 499 497 495
f 495 497 494
f 497 431 494
f 431 432 494
f 494 432 428
f 433 496 430
f 433 500 496
f 503 502 501
f 505 504 501
f 501 504 503
f 435 436 505
f 436 504 505
f 436 506 504
f 437 497 498
f 506 437 498
f 436 437 506
f 497 437 431
f 438 508 507
f 500 438 507
f 433 438 500
f 508 509 507
f 512 511 510
f 514 513 510
f 510 513 512
f 516 515 514
f 514 515 513
f 439 440 516
f 440 515 516
f 440 517 515
f 518 440 441
f 518 517 440
f 519 441 442
f 519 518 441
f 520 442 443
f 520 519 442
f 444 501 502
f 520 444 502
f 443 444 520
f 501 444 445
f 501 445 505
f 505 445 435
f 446 508 438
f 521 509 508
f 446 521 508
f 447 521 446
f 522 447 448
f 522 521 447
f 523 448 449
f 523 522 448
f 524 449 450
f 524 523 449
f 525 450 451
f 525 524 450
f 452 510 511
f 525 452 511
f 451 452 525
f 510 452 453
f 510 453 514
f 514 453 454
f 514 454 516
f 516 454 439
f 456 526 457
f 527 458 457
f 527 457 526
f 528 459 458
f 528 458 527
f 529 460 459
f 529 459 528
f 530 461 460
f 530 460 529
f 530 463 461
f 467 531 466
f 531 532 466
f 466 532 456
f 532 533 456
f 533 526 456
f 526 533 527
f 527 533 534
f 527 534 528
f 528 534 535
f 528 535 529
f 529 535 536
f 529 536 530
f 530 536 537
f 530 537 463
f 537 468 463
f 537 538 468
f 468 539 469
f 538 539 468
f 469 540 470
f 539 540 469
f 540 542 541
f 471 540 541
f 470 540 471
f 543 472 471
f 543 471 541
f 544 473 472
f 544 472 543
f 545 474 473
f 545 473 544
f 546 475 474
f 546 474 545
f 546 477 475
f 548 547 531
f 467 548 531
f 479 548 467
f 531 547 532
f 542 549 541
f 541 549 543
f 543 549 550
f 543 550 544
f 544 550 551
f 544 551 545
f 545 551 552
f 545 552 546
f 546 552 553
f 553 555 554
f 553 554 480
f 546 553 480
f 477 546 480
f 556 481 480
f 556 480 554
f 557 482 481
f 557 481 556
f 557 483 482
f 485 548 479
f 485 558 548
f 555 559 554
f 554 559 556
f 556 559 560
f 562 561 560
f 561 556 560
f 561 557 556
f 561 487 483
f 561 483 557
f 489 558 485
f 489 563 558
f 561 562 564
f 564 562 565
f 564 491 487
f 564 487 561
f 493 563 489
f 493 566 563
f 569 568 567
f 569 567 565
f 567 564 565
f 567 570 564
f 570 495 491
f 570 491 564
f 496 566 493
f 496 571 566
f 574 573 572
f 576 575 572
f 572 575 574
f 575 576 568
f 576 567 568
f 576 577 567
f 577 498 499
f 570 577 499
f 567 577 570
f 570 499 495
f 500 579 578
f 571 500 578
f 496 500 571
f 579 580 578
f 583 582 581
f 585 584 581
f 581 584 583
f 587 586 585
f 585 586 584
f 589 588 587
f 587 588 586
f 588 589 573
f 573 589 572
f 589 502 572
f 502 503 572
f 572 503 504
f 572 504 576
f 576 504 506
f 576 506 577
f 577 506 498
f 507 579 500
f 591 590 509
f 509 590 507
f 590 580 507
f 580 579 507
f 593 592 591
f 591 592 590
f 595 594 593
f 593 594 592
f 597 596 595
f 595 596 594
f 599 598 597
f 597 598 596
f 511 512 599
f 512 598 599
f 512 600 598
f 601 512 513
f 601 600 512
f 602 513 515
f 602 601 513
f 517 581 582
f 602 517 582
f 515 517 602
f 581 517 518
f 581 518 585
f 585 518 519
f 585 519 587
f 587 519 520
f 587 520 589
f 589 520 502
f 521 591 509
f 591 521 522
f 591 522 593
f 593 522 523
f 593 523 595
f 595 523 524
f 595 524 597
f 597 524 525
f 597 525 599
f 599 525 511
f 532 603 533
f 604 534 533
f 604 533 603
f 605 535 534
f 605 534 604
f 606 536 535
f 606 535 605
f 607 537 536
f 607 536 606
f 608 538 537
f 608 537 607
f 609 539 538
f 609 538 608
f 610 540 539
f 610 539 609
f 610 542 540
f 548 611 547
f 611 612 547
f 547 612 532
f 612 613 532
f 613 603 532
f 603 613 604
f 604 613 614
f 604 614 605
f 605 614 615
f 605 615 606
f 606 615 616
f 606 616 607
f 607 616 617
f 607 617 608
f 608 617 618
f 608 618 609
f 609 618 619
f 609 619 610
f 610 619 620
f 620 622 621
f 620 621 549
f 610 620 549
f 542 610 549
f 623 550 549
f 623 549 621
f 624 551 550
f 624 550 623
f 625 552 551
f 625 551 624
f 626 553 552
f 626 552 625
f 626 555 553
f 558 627 611
f 558 611 548
f 612 611 628
f 628 611 627
f 621 622 629
f 629 622 630
f 621 631 623
f 621 629 631
f 623 632 624
f 623 631 632
f 624 633 625
f 624 632 633
f 625 634 626
f 625 633 634
f 635 559 555
f 626 635 555
f 634 635 626
f 636 560 559
f 636 559 635
f 636 562 560
f 563 637 627
f 563 627 558
f 628 627 638
f 638 627 637
f 629 630 639
f 639 630 640
f 629 641 631
f 629 639 641
f 631 642 632
f 631 641 642
f 632 643 633
f 632 642 643
f 633 644 634
f 633 643 644
f 634 645 635
f 634 644 645
f 635 646 636
f 635 645 646
f 646 565 562
f 646 562 636
f 566 647 637
f 566 637 563
f 638 637 648
f 648 637 647
f 639 640 649
f 649 640 650
f 639 651 641
f 639 649 651
f 641 652 642
f 641 651 652
f 642 653 643
f 642 652 653
f 643 654 644
f 643 653 654
f 644 655 645
f 644 654 655
f 655 568 569
f 646 655 569
f 645 655 646
f 646 569 565
f 571 656 647
f 571 647 566
f 648 647 657
f 657 647 656
f 649 650 658
f 658 650 659
f 649 660 651
f 649 658 660
f 651 661 652
f 651 660 661
f 652 662 653
f 652 661 662
f 662 573 574
f 654 662 574
f 653 662 654
f 654 574 575
f 654 575 655
f 655 575 568
f 578 656 571
f 664 663 580
f 580 663 578
f 663 657 578
f 657 656 578
f 666 665 664
f 664 665 663
f 668 667 666
f 666 667 665
f 670 669 668
f 668 669 667
f 672 671 670
f 670 671 669
f 674 673 672
f 672 673 671
f 676 675 674
f 674 675 673
f 678 677 676
f 676 677 675
f 677 678 659
f 659 678 658
f 678 582 658
f 582 583 658
f 658 583 584
f 658 584 660
f 660 584 586
f 660 586 661
f 661 586 588
f 661 588 662
f 662 588 573
f 590 664 580
f 664 590 592
f 664 592 666
f 666 592 594
f 666 594 668
f 668 594 596
f 668 596 670
f 670 596 598
f 670 598 672
f 672 598 600
f 672 600 674
f 674 600 601
f 674 601 676
f 676 601 602
f 676 602 678
f 678 602 582
f 612 679 613
f 680 614 613
f 680 613 679
f 681 615 614
f 681 614 680
f 682 616 615
f 682 615 681
f 683 617 616
f 683 616 682
f 684 618 617
f 684 617 683
f 685 619 618
f 685 618 684
f 686 620 619
f 686 619 685
f 686 622 620
f 628 687 679
f 628 679 612
f 679 688 680
f 679 687 688
f 680 689 681
f 680 688 689
f 681 690 682
f 681 689 690
f 682 691 683
f 682 690 691
f 683 692 684
f 683 691 692
f 684 693 685
f 684 692 693
f 685 694 686
f 685 693 694
f 694 630 622
f 694 622 686
f 638 695 687
f 638 687 628
f 687 696 688
f 687 695 696
f 688 697 689
f 688 696 697
f 689 698 690
f 689 697 698
f 690 699 691
f 690 698 699
f 691 700 692
f 691 699 700
f 692 701 693
f 692 700 701
f 693 702 694
f 693 701 702
f 702 640 630
f 702 630 694
f 648 703 695
f 648 695 638
f 695 704 696
f 695 703 704
f 696 705 697
f 696 704 705
f 697 706 698
f 697 705 706
f 698 707 699
f 698 706 707
f 699 708 700
f 699 707 708
f 700 709 701
f 700 708 709
f 701 710 702
f 701 709 710
f 710 650 640
f 710 640 702
f 657 711 703
f 657 703 648
f 703 712 704
f 703 711 712
f 704 713 705
f 704 712 713
f 705 714 706
f 705 713 714
f 706 715 707
f 706 714 715
f 707 716 708
f 707 715 716
f 708 717 709
f 708 716 717
f 709 718 710
f 709 717 718
f 718 659 650
f 718 650 710
f 663 711 657
f 711 663 665
f 711 665 712
f 712 665 667
f 712 667 713
f 713 667 669
f 713 669 714
f 714 669 671
f 714 671 715
f 715 671 673
f 715 673 716
f 716 673 675
f 716 675 717
f 717 675 677
f 717 677 718
f 718 677 659

