# https://github.com/mikedh/trimesh
v -0.05653082 -0.01169256 -0.03751663
v -0.05452962 -0.01255681 -0.03751592
v -0.05499500 -0.01111495 -0.03989681
v -0.05704911 -0.01118580 -0.03226570
v -0.05518969 -0.01302547 -0.03227280
v -0.05712011 -0.01116213 -0.02570518
v -0.05445283 -0.01333149 -0.02542421
v -0.05718527 -0.01115214 -0.01941054
v -0.05559227 -0.01381738 -0.02030550
v -0.05711293 -0.01114146 -0.01329468
v -0.05471923 -0.01331534 -0.01391366
v -0.05702022 -0.01116649 -0.00720444
v -0.05514487 -0.01295647 -0.00717896
v -0.05699504 -0.01111778 -0.00111656
v -0.05514280 -0.01294899 -0.00110021
v -0.05703647 -0.01111944 0.00497147
v -0.05527377 -0.01302644 0.00495928
v -0.05715270 -0.01118639 0.01106917
v -0.05445582 -0.01339723 0.01136491
v -0.05721588 -0.01118719 0.01734244
v -0.05556783 -0.01381635 0.01640257
v -0.05717533 -0.01109178 0.02390932
v -0.05477948 -0.01331430 0.02324242
v -0.05670346 -0.01059201 0.02917261
v -0.05578850 -0.01256610 0.02921153
v -0.05526328 -0.01111955 0.03160994
v -0.05563168 -0.00967941 -0.03754214
v -0.05518546 -0.00927861 -0.03229097
v -0.05463276 -0.00908693 -0.02511143
v -0.05552962 -0.00860768 -0.01859361
v -0.05446831 -0.00909887 -0.01366964
v -0.05528053 -0.00933752 -0.00719279
v -0.05514500 -0.00928283 -0.00113557
v -0.05513706 -0.00929695 0.00493793
v -0.05470215 -0.00910246 0.01166869
v -0.05560930 -0.00865551 0.01824164
v -0.05446752 -0.00907856 0.02354529
v -0.05478118 -0.00973600 0.02919393
v -0.05363047 -0.01054366 -0.03754143
v -0.05332604 -0.01111828 -0.03229807
v -0.05237902 -0.01124793 -0.02621113
v -0.04828029 -0.01046353 -0.02250544
v -0.04984497 -0.01365821 -0.01927301
v -0.05242452 -0.01123514 -0.01292643
v -0.04796365 -0.01053582 -0.01675761
v -0.05340518 -0.01112751 -0.00716731
v -0.05329276 -0.01111404 -0.00111922
v -0.05337437 -0.01120394 0.00492574
v -0.05240501 -0.01130438 0.01064129
v -0.04830304 -0.01051959 0.01435711
v -0.04980033 -0.01367429 0.01755832
v -0.05244826 -0.01127266 0.02433280
v -0.04807590 -0.01064626 0.02020761
v -0.05386621 -0.01171009 0.02923285
v -0.05094795 -0.00848385 -0.02024122
v -0.05024279 -0.00811424 0.01701148
v -0.04274334 -0.01338471 -0.01969315
v -0.04354381 -0.01163250 -0.02210036
v -0.04146929 -0.01166896 -0.01643536
v -0.04257190 -0.01342026 0.01713880
v -0.04346719 -0.01182197 0.01478307
v -0.04182900 -0.01161039 0.01962214
v -0.04614017 -0.00579660 -0.01841567
v -0.04181186 -0.00630155 -0.02215209
v -0.04386429 -0.00794317 -0.01441401
v -0.04536902 -0.00368909 -0.01236325
v -0.04140613 -0.00519014 -0.01056032
v -0.04574267 -0.00440428 0.01738067
v -0.04278143 -0.00576317 0.01467381
v -0.04331209 -0.00650673 0.02001006
v -0.04314176 -0.00177608 -0.01911505
v -0.04141942 0.00130994 -0.01641723
v -0.04555821 0.00058083 -0.01397525
v -0.04344917 -0.00208206 -0.00807216
v -0.04573086 0.00169548 -0.00711771
v -0.04165384 0.00109323 -0.00464553
v -0.04523108 0.00206850 0.01691124
v -0.04246420 0.00089252 0.01392419
v -0.04250019 0.00006523 0.02002798
v -0.04339851 0.00426014 -0.01280450
v -0.04151040 0.00732883 -0.01013800
v -0.04570655 0.00674297 -0.00780897
v -0.04274375 0.00387371 -0.00087700
v -0.04608435 0.00739790 -0.00061544
v -0.04594695 0.00818809 0.00655163
v -0.04265862 0.00508439 0.00501421
v -0.04594494 0.00645312 0.01246481
v -0.04264135 0.00436842 0.01057995
v -0.04563942 0.00870687 0.01620484
v -0.04274844 0.00592341 0.01967231
v -0.04338890 0.01047832 -0.00658972
v -0.04151035 0.01355576 -0.00397742
v -0.04571317 0.01308902 -0.00156486
v -0.04673973 0.01290679 0.00410743
v -0.04585720 0.01352471 0.01024250
v -0.04351290 0.01285115 0.01450270
v -0.04168767 0.01029376 0.01767101
v -0.04349858 0.01692139 -0.00034982
v -0.04153373 0.02014877 0.00223560
v -0.04538858 0.01830860 0.00438630
v -0.04338574 0.01936011 0.00816619
v -0.04143231 0.01649609 0.01127323
v -0.04204699 0.02163994 0.00545687
v -0.03664988 -0.01342873 -0.01973244
v -0.03796916 -0.01086117 -0.02234566
v -0.03537496 -0.01170350 -0.01639676
v -0.03633662 -0.01353220 0.01720208
v -0.03777493 -0.01105919 0.01463209
v -0.03661161 -0.01094511 0.01985843
v -0.03510788 -0.00576762 -0.02239074
v -0.03840813 -0.00838014 -0.01324492
v -0.03539447 -0.00507066 -0.01015204
v -0.03647249 -0.00516892 0.01406230
v -0.03685172 -0.00499035 0.02074891
v -0.03824610 -0.00170529 -0.01995628
v -0.03540870 0.00123772 -0.01661870
v -0.03853546 -0.00202018 -0.00719833
v -0.03565628 0.00127274 -0.00430011
v -0.03677110 0.00064483 0.01363008
v -0.03705326 0.00149301 0.02076240
v -0.03840804 0.00423516 -0.01350978
v -0.03542506 0.00722509 -0.01042001
v -0.03712012 0.00365759 -0.00051667
v -0.03707358 0.00446196 0.00508751
v -0.03696660 0.00379617 0.01066797
v -0.03715043 0.00693224 0.01998246
v -0.03839506 0.01033763 -0.00739902
v -0.03543338 0.01333174 -0.00431888
v -0.03854406 0.01356295 0.01441353
v -0.03566642 0.01060239 0.01750174
v -0.03858191 0.01671390 -0.00125372
v -0.03552671 0.01995018 0.00183389
v -0.03840910 0.02014249 0.00808822
v -0.03528406 0.01669788 0.01112040
v -0.03695375 0.02178832 0.00493001
v -0.03055325 -0.01343550 -0.01975448
v -0.03186403 -0.01085401 -0.02231160
v -0.02922790 -0.01165405 -0.01647165
v -0.03014218 -0.01366340 0.01723216
v -0.03149236 -0.01106686 0.01471332
v -0.03040925 -0.01106403 0.01980500
v -0.02893302 -0.00582123 -0.02229763
v -0.03219189 -0.00825069 -0.01327087
v -0.02913076 -0.00499437 -0.01026119
v -0.03016137 -0.00511431 0.01419752
v -0.03061605 -0.00514657 0.02065378
v -0.03201317 -0.00177220 -0.01981896
v -0.02913333 0.00119435 -0.01648373
v -0.03222776 -0.00186582 -0.00724734
v -0.02940239 0.00132262 -0.00439422
v -0.03045691 0.00074119 0.01384122
v -0.03079784 0.00136852 0.02062440
v -0.03206769 0.00415406 -0.01339510
v -0.02912207 0.00720322 -0.01029223
v -0.03086735 0.00378909 -0.00056757
v -0.03079461 0.00464749 0.00511230
v -0.03064252 0.00396110 0.01081761
v -0.03086957 0.00683668 0.01983340
v -0.03205497 0.01025201 -0.00729850
v -0.02912871 0.01330467 -0.00418765
v -0.03222200 0.01345890 0.01424150
v -0.02940888 0.01049656 0.01742553
v -0.03223645 0.01653973 -0.00118974
v -0.02923327 0.01987246 0.00192329
v -0.03200922 0.01993945 0.00800496
v -0.02895109 0.01654745 0.01109063
v -0.03060695 0.02161454 0.00495325
v -0.02444324 -0.01343588 -0.01976047
v -0.02576658 -0.01090172 -0.02228992
v -0.02311604 -0.01165328 -0.01647733
v -0.02399189 -0.01375883 0.01720090
v -0.02531452 -0.01113123 0.01476173
v -0.02426382 -0.01121850 0.01973589
v -0.02283562 -0.00584022 -0.02228776
v -0.02603709 -0.00823026 -0.01333077
v -0.02300714 -0.00499890 -0.01028056
v -0.02398888 -0.00509040 0.01424720
v -0.02444795 -0.00531020 0.02057707
v -0.02586759 -0.00180580 -0.01975343
v -0.02301093 0.00119616 -0.01647031
v -0.02603402 -0.00186215 -0.00732012
v -0.02328031 0.00131551 -0.00441030
v -0.02426296 0.00081386 0.01386519
v -0.02461499 0.00125368 0.02057415
v -0.02587290 0.00415339 -0.01332682
v -0.02300044 0.00720803 -0.01027714
v -0.02471643 0.00379724 -0.00060393
v -0.02461480 0.00469459 0.00507877
v -0.02444666 0.00404079 0.01081034
v -0.02471614 0.00678119 0.01982012
v -0.02586285 0.01025759 -0.00722519
v -0.02300735 0.01331336 -0.00417015
v -0.02603245 0.01339101 0.01423737
v -0.02328878 0.01048259 0.01743134
v -0.02604085 0.01654028 -0.00111572
v -0.02311256 0.01987925 0.00193973
v -0.02575277 0.01986794 0.00804098
v -0.02282741 0.01653483 0.01109887
v -0.02443490 0.02160458 0.00499414
v -0.01833300 -0.01343575 -0.01975843
v -0.01965932 -0.01090432 -0.02229033
v -0.01700657 -0.01165422 -0.01647484
v -0.01788520 -0.01376168 0.01719773
v -0.01920900 -0.01113456 0.01475971
v -0.01815624 -0.01122530 0.01973427
v -0.01672695 -0.00583864 -0.02229057
v -0.01992965 -0.00823390 -0.01332912
v -0.01690046 -0.00500037 -0.01027675
v -0.01788327 -0.00508855 0.01424151
v -0.01833811 -0.00531549 0.02057828
v -0.01976264 -0.00180485 -0.01975689
v -0.01690416 0.00119767 -0.01647470
v -0.01992714 -0.00186716 -0.00731901
v -0.01717352 0.00131449 -0.00440716
v -0.01815492 0.00081368 0.01385874
v -0.01850630 0.00125309 0.02057865
v -0.01976835 0.00415623 -0.01333077
v -0.01689548 0.00720830 -0.01028172
v -0.01861013 0.00379394 -0.00060206
v -0.01850656 0.00469004 0.00507756
v -0.01833778 0.00403780 0.01080648
v -0.01861022 0.00678472 0.01982421
v -0.01975969 0.01025992 -0.00722896
v -0.01690242 0.01331376 -0.00417478
v -0.01992894 0.01339463 0.01424154
v -0.01718208 0.01048638 0.01743272
v -0.01993719 0.01654498 -0.00111769
v -0.01700685 0.01988057 0.00193655
v -0.01964685 0.01987475 0.00804482
v -0.01672475 0.01653962 0.01109818
v -0.01833167 0.02160986 0.00499277
v -0.01222183 -0.01343570 -0.01975823
v -0.01354780 -0.01090334 -0.02229064
v -0.01089543 -0.01165420 -0.01647481
v -0.01177612 -0.01375486 0.01720052
v -0.01310278 -0.01113111 0.01475924
v -0.01204777 -0.01121822 0.01973743
v -0.01061555 -0.00583835 -0.02229068
v -0.01381950 -0.00823411 -0.01332787
v -0.01078948 -0.00500025 -0.01027652
v -0.01177608 -0.00509142 0.01424046
v -0.01222993 -0.00531009 0.02058056
v -0.01365205 -0.00180402 -0.01975828
v -0.01079309 0.00119764 -0.01647483
v -0.01381776 -0.00186711 -0.00731735
v -0.01106252 0.00131463 -0.00440698
v -0.01204778 0.00081028 0.01385902
v -0.01239732 0.00125607 0.02057961
v -0.01365901 0.00415620 -0.01333237
v -0.01078443 0.00720820 -0.01028186
v -0.01249989 0.00379394 -0.00060122
v -0.01239753 0.00468921 0.00507899
v -0.01222994 0.00403553 0.01080777
v -0.01249998 0.00678582 0.01982429
v -0.01365036 0.01025971 -0.00723066
v -0.01079135 0.01331362 -0.00417497
v -0.01381962 0.01339618 0.01424143
v -0.01107099 0.01048651 0.01743260
v -0.01382784 0.01654484 -0.00111935
v -0.01089576 0.01988042 0.00193637
v -0.01353967 0.01987631 0.00804323
v -0.01061381 0.01653971 0.01109799
v -0.01222168 0.02160988 0.00499186
v -0.00611070 -0.01343570 -0.01975828
v -0.00743659 -0.01090332 -0.02229065
v -0.00478429 -0.01165419 -0.01647484
v -0.00566489 -0.01375453 0.01720065
v -0.00699159 -0.01113095 0.01475941
v -0.00593667 -0.01121796 0.01973745
v -0.00450442 -0.00583838 -0.02229065
v -0.00770829 -0.00823407 -0.01332795
v -0.00467831 -0.00500024 -0.01027658
v -0.00566493 -0.00509160 0.01424057
v -0.00611881 -0.00531000 0.02058049
v -0.00754081 -0.00180405 -0.01975818
v -0.00468193 0.00119762 -0.01647477
v -0.00770654 -0.00186705 -0.00731743
v -0.00495135 0.00131463 -0.00440702
v -0.00593668 0.00081029 0.01385915
v -0.00628612 0.00125601 0.02057952
v -0.00754775 0.00415616 -0.01333224
v -0.00467324 0.00720820 -0.01028180
v -0.00638868 0.00379398 -0.00060128
v -0.00628633 0.00468929 0.00507897
v -0.00611880 0.00403561 0.01080783
v -0.00638876 0.00678572 0.01982425
v -0.00753906 0.01025969 -0.00723053
v -0.00468016 0.01331362 -0.00417490
v -0.00770830 0.01339607 0.01424141
v -0.00495982 0.01048645 0.01743259
v -0.00771656 0.01654480 -0.00111925
v -0.00478458 0.01988041 0.00193642
v -0.00742837 0.01987615 0.00804322
v -0.00450258 0.01653965 0.01109802
v -0.00611041 0.02160982 0.00499192
v 0.00000041 -0.01343570 -0.01975828
v -0.00132549 -0.01090333 -0.02229064
v 0.00132682 -0.01165419 -0.01647484
v 0.00044628 -0.01375470 0.01720058
v -0.00088034 -0.01113104 0.01475937
v 0.00017451 -0.01121810 0.01973739
v 0.00160669 -0.00583838 -0.02229065
v -0.00159717 -0.00823407 -0.01332796
v 0.00143279 -0.00500024 -0.01027658
v 0.00044628 -0.00509153 0.01424056
v -0.00000765 -0.00531008 0.02058046
v -0.00142970 -0.00180406 -0.01975817
v 0.00142918 0.00119762 -0.01647477
v -0.00159541 -0.00186705 -0.00731744
v 0.00115976 0.00131463 -0.00440702
v 0.00017451 0.00081034 0.01385912
v -0.00017498 0.00125598 0.02057951
v -0.00143663 0.00415616 -0.01333223
v 0.00143787 0.00720820 -0.01028180
v -0.00027757 0.00379398 -0.00060128
v -0.00017520 0.00468930 0.00507895
v -0.00000764 0.00403563 0.01080780
v -0.00027764 0.00678572 0.01982425
v -0.00142794 0.01025969 -0.00723052
v 0.00143095 0.01331362 -0.00417490
v -0.00159718 0.01339606 0.01424141
v 0.00115128 0.01048646 0.01743259
v -0.00160544 0.01654480 -0.00111924
v 0.00132652 0.01988041 0.00193641
v -0.00131722 0.01987614 0.00804325
v 0.00160853 0.01653965 0.01109802
v 0.00000070 0.02160982 0.00499193
v 0.00611152 -0.01343570 -0.01975828
v 0.00478562 -0.01090333 -0.02229064
v 0.00743791 -0.01165419 -0.01647483
v 0.00655739 -0.01375470 0.01720058
v 0.00523077 -0.01113105 0.01475937
v 0.00628562 -0.01121810 0.01973740
v 0.00771780 -0.00583838 -0.02229065
v 0.00451393 -0.00823407 -0.01332796
v 0.00754390 -0.00500025 -0.01027656
v 0.00655739 -0.00509153 0.01424056
v 0.00610346 -0.00531008 0.02058047
v 0.00468141 -0.00180406 -0.01975817
v 0.00754030 0.00119763 -0.01647477
v 0.00451569 -0.00186705 -0.00731744
v 0.00727096 0.00131458 -0.00440707
v 0.00628562 0.00081035 0.01385911
v 0.00593613 0.00125597 0.02057952
v 0.00467448 0.00415616 -0.01333223
v 0.00754899 0.00720821 -0.01028180
v 0.00583360 0.00379396 -0.00060135
v 0.00593594 0.00468930 0.00507890
v 0.00610347 0.00403564 0.01080777
v 0.00583348 0.00678567 0.01982428
v 0.00468317 0.01025969 -0.00723052
v 0.00754207 0.01331363 -0.00417490
v 0.00451393 0.01339606 0.01424141
v 0.00726244 0.01048636 0.01743266
v 0.00450567 0.01654480 -0.00111924
v 0.00743767 0.01988042 0.00193643
v 0.00479388 0.01987614 0.00804324
v 0.00771965 0.01653965 0.01109803
v 0.00611182 0.02160982 0.00499193
v 0.01222263 -0.01343566 -0.01975825
v 0.01089675 -0.01090331 -0.02229065
v 0.01354910 -0.01165419 -0.01647482
v 0.01266848 -0.01375469 0.01720056
v 0.01134188 -0.01113104 0.01475936
v 0.01239669 -0.01121808 0.01973739
v 0.01382898 -0.00583830 -0.02229068
v 0.01062504 -0.00823410 -0.01332792
v 0.01365520 -0.00500039 -0.01027656
v 0.01266848 -0.00509151 0.01424053
v 0.01221453 -0.00531010 0.02058050
v 0.01079257 -0.00180401 -0.01975818
v 0.01365155 0.00119774 -0.01647482
v 0.01062692 -0.00186717 -0.00731743
v 0.01338213 0.00131451 -0.00440702
v 0.01239674 0.00081035 0.01385908
v 0.01204726 0.00125590 0.02057958
v 0.01078567 0.00415622 -0.01333223
v 0.01366029 0.00720834 -0.01028182
v 0.01194475 0.00379386 -0.00060127
v 0.01204709 0.00468919 0.00507900
v 0.01221462 0.00403558 0.01080781
v 0.01194473 0.00678566 0.01982432
v 0.01079436 0.01025976 -0.00723052
v 0.01365342 0.01331376 -0.00417489
v 0.01062518 0.01339594 0.01424154
v 0.01337375 0.01048652 0.01743270
v 0.01061690 0.01654486 -0.00111921
v 0.01354897 0.01988057 0.00193643
v 0.01090506 0.01987615 0.00804329
v 0.01383100 0.01653961 0.01109818
v 0.01222308 0.02160988 0.00499199
v 0.01833383 -0.01343577 -0.01975836
v 0.01700783 -0.01090327 -0.02229064
v 0.01966125 -0.01165399 -0.01647623
v 0.01877956 -0.01375469 0.01720061
v 0.01745296 -0.01113102 0.01475934
v 0.01850786 -0.01121812 0.01973742
v 0.01993929 -0.00583926 -0.02229047
v 0.01673668 -0.00823403 -0.01332832
v 0.01976641 -0.00499897 -0.01027777
v 0.01877972 -0.00509165 0.01424083
v 0.01832579 -0.00530980 0.02058019
v 0.01690354 -0.00180417 -0.01975828
v 0.01976087 0.00119605 -0.01647486
v 0.01673802 -0.00186697 -0.00731751
v 0.01948819 0.00131860 -0.00440616
v 0.01850803 0.00080988 0.01386037
v 0.01815813 0.00125764 0.02057833
v 0.01689668 0.00415606 -0.01333238
v 0.01976958 0.00720666 -0.01028200
v 0.01805200 0.00379589 -0.00059903
v 0.01815576 0.00468964 0.00508196
v 0.01832503 0.00403513 0.01081035
v 0.01805409 0.00678964 0.01982167
v 0.01690547 0.01025962 -0.00723058
v 0.01976269 0.01331219 -0.00417501
v 0.01673617 0.01339625 0.01424132
v 0.01948010 0.01049172 0.01742829
v 0.01672789 0.01654478 -0.00111933
v 0.01965617 0.01987906 0.00193500
v 0.01701619 0.01987627 0.00804316
v 0.01994031 0.01653975 0.01109659
v 0.01833308 0.02160984 0.00499116
v 0.02444595 -0.01343797 -0.01976044
v 0.02311807 -0.01090529 -0.02229025
v 0.02576740 -0.01165262 -0.01647462
v 0.02489263 -0.01375567 0.01720119
v 0.02356478 -0.01113154 0.01476017
v 0.02462165 -0.01121819 0.01973630
v 0.02604893 -0.00584181 -0.02228776
v 0.02284557 -0.00823144 -0.01332973
v 0.02586808 -0.00499422 -0.01027638
v 0.02489162 -0.00509237 0.01424248
v 0.02443709 -0.00530705 0.02057756
v 0.02301105 -0.00180784 -0.01975673
v 0.02586748 0.00119303 -0.01646992
v 0.02284344 -0.00186052 -0.00731934
v 0.02559305 0.00132131 -0.00440788
v 0.02461797 0.00081126 0.01386036
v 0.02426400 0.00126031 0.02057633
v 0.02300170 0.00415132 -0.01333185
v 0.02587287 0.00720278 -0.01027962
v 0.02415678 0.00379983 -0.00059802
v 0.02426383 0.00469427 0.00508086
v 0.02443379 0.00403936 0.01080804
v 0.02415663 0.00678754 0.01981913
v 0.02301047 0.01025504 -0.00723031
v 0.02586436 0.01330817 -0.00417364
v 0.02283817 0.01339950 0.01423467
v 0.02558456 0.01048640 0.01742425
v 0.02283045 0.01654023 -0.00112026
v 0.02576195 0.01987307 0.00193781
v 0.02312197 0.01987479 0.00804008
v 0.02604243 0.01653605 0.01109290
v 0.02443638 0.02160455 0.00498976
v 0.03055391 -0.01343368 -0.01975624
v 0.02923216 -0.01090530 -0.02229124
v 0.03184209 -0.01165948 -0.01641449
v 0.03100514 -0.01375645 0.01719985
v 0.02967794 -0.01113261 0.01475940
v 0.03072965 -0.01121889 0.01973813
v 0.03219013 -0.00579677 -0.02230565
v 0.02892832 -0.00823968 -0.01330309
v 0.03198930 -0.00505952 -0.01022937
v 0.03099349 -0.00508323 0.01422013
v 0.03054535 -0.00533321 0.02059834
v 0.02913550 -0.00179145 -0.01975369
v 0.03206105 0.00126971 -0.01647410
v 0.02896086 -0.00187190 -0.00731797
v 0.03182881 0.00120867 -0.00440445
v 0.03073269 0.00082868 0.01379873
v 0.03039947 0.00116907 0.02063566
v 0.02912554 0.00416778 -0.01332340
v 0.03206603 0.00727635 -0.01027516
v 0.03035270 0.00372290 -0.00061643
v 0.03045930 0.00465314 0.00503251
v 0.03060136 0.00403683 0.01073411
v 0.03035175 0.00665478 0.01990271
v 0.02913114 0.01027024 -0.00722605
v 0.03205439 0.01337598 -0.00417445
v 0.02895916 0.01339241 0.01424824
v 0.03185173 0.01039396 0.01753332
v 0.02895315 0.01655203 -0.00111575
v 0.03201894 0.01994105 0.00196883
v 0.02924246 0.01986749 0.00805387
v 0.03223430 0.01654078 0.01116195
v 0.03060839 0.02161510 0.00502585
v 0.03661688 -0.01338068 -0.01968289
v 0.03534897 -0.01084810 -0.02230405
v 0.03796490 -0.01173348 -0.01637360
v 0.03704244 -0.01373017 0.01721406
v 0.03574958 -0.01111088 0.01473485
v 0.03679267 -0.01124848 0.01978704
v 0.03831198 -0.00573070 -0.02240433
v 0.03511557 -0.00834456 -0.01327378
v 0.03827410 -0.00524192 -0.01021167
v 0.03705940 -0.00505618 0.01415603
v 0.03674319 -0.00547183 0.02067973
v 0.03535503 -0.00167877 -0.01984270
v 0.03834673 0.00136613 -0.01665382
v 0.03523756 -0.00202148 -0.00726705
v 0.03822988 0.00102693 -0.00430306
v 0.03692026 0.00077815 0.01371623
v 0.03675103 0.00099335 0.02079248
v 0.03542978 0.00430316 -0.01335383
v 0.03841119 0.00738093 -0.01035911
v 0.03673238 0.00352672 -0.00060967
v 0.03681320 0.00448963 0.00495927
v 0.03692560 0.00390152 0.01064651
v 0.03677537 0.00651665 0.02011634
v 0.03543132 0.01039943 -0.00724882
v 0.03839689 0.01349006 -0.00425351
v 0.03529155 0.01341057 0.01440660
v 0.03829290 0.01037639 0.01773109
v 0.03528869 0.01668537 -0.00113010
v 0.03842594 0.02010932 0.00192065
v 0.03553315 0.01994968 0.00814206
v 0.03857279 0.01674443 0.01127420
v 0.03695582 0.02178475 0.00505455
v 0.04269821 -0.01333710 -0.01957335
v 0.04138691 -0.01073764 -0.02225512
v 0.04357832 -0.01223898 -0.01684706
v 0.04301855 -0.01363761 0.01723629
v 0.04169655 -0.01099733 0.01474655
v 0.04292073 -0.01125893 0.01979750
v 0.04409839 -0.00637894 -0.02195049
v 0.04233971 -0.00817013 -0.01418250
v 0.04328001 -0.00452572 -0.01031931
v 0.04341992 -0.00531016 0.01481130
v 0.04307043 -0.00478216 0.02009264
v 0.04125733 -0.00207208 -0.01997396
v 0.04324919 0.00044530 -0.01677933
v 0.04131616 -0.00185802 -0.00721969
v 0.04326322 0.00174983 -0.00426443
v 0.04247090 0.00058961 0.01445536
v 0.04249845 0.00245330 0.02020242
v 0.04149897 0.00396645 -0.01355162
v 0.04341690 0.00653930 -0.01046674
v 0.04246816 0.00416851 -0.00049399
v 0.04251685 0.00505841 0.00501794
v 0.04264339 0.00402401 0.01099171
v 0.04196356 0.00726049 0.01967989
v 0.04151463 0.01010396 -0.00734809
v 0.04339345 0.01278253 -0.00428986
v 0.04144240 0.01360029 0.01418707
v 0.04335619 0.01045486 0.01697559
v 0.04143085 0.01649988 -0.00120285
v 0.04339259 0.01935577 0.00194228
v 0.04153504 0.02016078 0.00783297
v 0.04350332 0.01693851 0.01051185
v 0.04205495 0.02161290 0.00462603
v 0.04984445 -0.01366635 -0.01980861
v 0.04805911 -0.01063357 -0.02247620
v 0.04833446 -0.01087404 -0.01651021
v 0.04997581 -0.01382570 0.01698227
v 0.04821451 -0.01081859 0.01437834
v 0.04845961 -0.01076092 0.02024312
v 0.05024849 -0.00816982 -0.01936386
v 0.04562758 -0.00470739 -0.01791639
v 0.04554769 -0.00394764 -0.01309885
v 0.05025449 -0.00830450 0.01764192
v 0.04583611 -0.00476928 0.01745925
v 0.04561269 0.00141772 -0.01300047
v 0.04559246 0.00056600 -0.00796725
v 0.04526024 0.00139029 0.01677330
v 0.04568206 0.00765416 -0.00677968
v 0.04596794 0.00701832 -0.00150520
v 0.04586445 0.00816060 0.00507554
v 0.04594838 0.00665488 0.01147445
v 0.04552466 0.00694013 0.01714545
v 0.04568132 0.01413354 -0.00054882
v 0.04671965 0.01292589 0.00421437
v 0.04585259 0.01261220 0.01121251
v 0.04539503 0.01832476 0.00573901
v 0.05363311 -0.01168967 -0.03754350
v 0.05562888 -0.01255320 -0.03754119
v 0.05499042 -0.01111571 -0.03989536
v 0.05339420 -0.01118713 -0.03231367
v 0.05521364 -0.01297139 -0.03229941
v 0.05245668 -0.01119644 -0.02617056
v 0.05470688 -0.01327616 -0.02510251
v 0.05559123 -0.01378913 -0.01858695
v 0.05240892 -0.01128811 -0.01302108
v 0.05447290 -0.01337405 -0.01368901
v 0.05337427 -0.01119310 -0.00717981
v 0.05527445 -0.01300769 -0.00721885
v 0.05329184 -0.01111358 -0.00111612
v 0.05514298 -0.01294775 -0.00113410
v 0.05339961 -0.01111878 0.00492673
v 0.05514438 -0.01295336 0.00493856
v 0.05247477 -0.01127245 0.01064574
v 0.05473018 -0.01331389 0.01167048
v 0.05562269 -0.01381127 0.01824337
v 0.05242932 -0.01131557 0.02433236
v 0.05444923 -0.01346289 0.02354136
v 0.05383364 -0.01062560 0.02923045
v 0.05475608 -0.01264631 0.02919187
v 0.05526156 -0.01110878 0.03160972
v 0.05453311 -0.00968413 -0.03751828
v 0.05523219 -0.00932488 -0.03228174
v 0.05450979 -0.00911789 -0.02545660
v 0.05558441 -0.00863157 -0.02037122
v 0.05469299 -0.00908650 -0.01397031
v 0.05513682 -0.00929661 -0.00717994
v 0.05514411 -0.00928152 -0.00109893
v 0.05529187 -0.00933520 0.00495958
v 0.05451731 -0.00915622 0.01137205
v 0.05557252 -0.00866783 0.01640789
v 0.05476370 -0.00911078 0.02324529
v 0.05577962 -0.00968343 0.02921074
v 0.05652888 -0.01054766 -0.03751597
v 0.05705163 -0.01110914 -0.03226748
v 0.05713894 -0.01117148 -0.02571741
v 0.05723047 -0.01116622 -0.01943428
v 0.05715813 -0.01117536 -0.01332162
v 0.05703700 -0.01111119 -0.00721899
v 0.05699525 -0.01111569 -0.00111691
v 0.05703664 -0.01116978 0.00497141
v 0.05714911 -0.01115395 0.01106777
v 0.05721288 -0.01114767 0.01734167
v 0.05717493 -0.01124451 0.02390883
v 0.05670207 -0.01170414 0.02917215
f 3 2 1
f 5 4 1
f 5 1 2
f 7 6 4
f 7 4 5
f 9 8 6
f 9 6 7
f 11 10 8
f 11 8 9
f 13 12 10
f 13 10 11
f 15 14 12
f 15 12 13
f 17 16 14
f 17 14 15
f 19 18 16
f 19 16 17
f 21 20 18
f 21 18 19
f 23 22 20
f 23 20 21
f 25 24 22
f 25 22 23
f 26 24 25
f 27 3 1
f 27 1 4
f 27 4 28
f 28 4 6
f 28 6 29
f 29 6 8
f 29 8 30
f 30 8 10
f 30 10 31
f 31 10 12
f 31 12 32
f 32 12 14
f 32 14 33
f 33 14 16
f 33 16 34
f 34 16 18
f 34 18 35
f 35 18 20
f 35 20 36
f 36 20 22
f 36 22 37
f 37 22 24
f 37 24 38
f 38 24 26
f 3 39 2
f 40 5 2
f 40 2 39
f 41 7 5
f 41 5 40
f 7 41 42
f 43 7 42
f 9 7 43
f 43 45 44
f 11 43 44
f 9 43 11
f 46 13 11
f 46 11 44
f 47 15 13
f 47 13 46
f 48 17 15
f 48 15 47
f 49 19 17
f 49 17 48
f 19 49 50
f 51 19 50
f 21 19 51
f 51 53 52
f 23 51 52
f 21 51 23
f 54 25 23
f 54 23 52
f 54 26 25
f 27 39 3
f 39 27 28
f 39 28 40
f 40 28 29
f 40 29 41
f 55 42 41
f 29 55 41
f 30 55 29
f 31 44 45
f 55 31 45
f 30 31 55
f 44 31 32
f 44 32 46
f 46 32 33
f 46 33 47
f 47 33 34
f 47 34 48
f 48 34 35
f 48 35 49
f 56 50 49
f 35 56 49
f 36 56 35
f 37 52 53
f 56 37 53
f 36 37 56
f 52 37 38
f 52 38 54
f 54 38 26
f 58 57 43
f 58 43 42
f 45 43 57
f 45 57 59
f 61 60 51
f 61 51 50
f 53 51 60
f 53 60 62
f 42 55 63
f 64 42 63
f 58 42 64
f 45 59 65
f 63 45 65
f 66 63 65
f 55 45 63
f 67 66 65
f 50 56 68
f 69 50 68
f 61 50 69
f 70 68 56
f 53 70 56
f 62 70 53
f 71 64 63
f 73 72 71
f 63 73 71
f 66 73 63
f 66 67 74
f 75 66 74
f 73 66 75
f 76 75 74
f 69 68 77
f 69 77 78
f 68 70 79
f 68 79 77
f 80 72 73
f 82 81 80
f 73 82 80
f 75 82 73
f 75 76 83
f 84 75 83
f 82 75 84
f 86 85 84
f 86 84 83
f 88 87 85
f 88 85 86
f 87 88 78
f 77 87 78
f 89 87 77
f 77 79 90
f 77 90 89
f 91 81 82
f 93 92 91
f 82 93 91
f 84 93 82
f 94 84 85
f 93 84 94
f 95 85 87
f 94 85 95
f 89 97 96
f 95 89 96
f 87 89 95
f 97 89 90
f 98 92 93
f 100 99 98
f 93 100 98
f 94 100 93
f 95 102 101
f 100 95 101
f 94 95 100
f 102 95 96
f 103 99 100
f 103 100 101
f 105 104 57
f 105 57 58
f 59 57 104
f 59 104 106
f 108 107 60
f 108 60 61
f 62 60 107
f 62 107 109
f 64 105 58
f 64 110 105
f 106 111 59
f 59 111 65
f 67 65 111
f 67 111 112
f 69 108 61
f 69 113 108
f 109 70 62
f 114 70 109
f 115 110 64
f 115 64 71
f 71 72 115
f 115 72 116
f 112 117 67
f 67 117 74
f 76 74 117
f 76 117 118
f 78 113 69
f 78 119 113
f 114 79 70
f 120 79 114
f 121 116 72
f 121 72 80
f 80 81 121
f 121 81 122
f 118 123 76
f 76 123 83
f 83 124 86
f 123 124 83
f 86 125 88
f 124 125 86
f 78 88 119
f 119 88 125
f 120 90 79
f 126 90 120
f 127 122 81
f 127 81 91
f 91 92 127
f 127 92 128
f 130 129 97
f 97 129 96
f 97 90 126
f 97 126 130
f 131 128 92
f 131 92 98
f 98 99 131
f 131 99 132
f 134 133 102
f 102 133 101
f 102 96 129
f 102 129 134
f 135 132 99
f 135 99 103
f 103 101 133
f 103 133 135
f 137 136 104
f 137 104 105
f 106 104 136
f 106 136 138
f 140 139 107
f 140 107 108
f 109 107 139
f 109 139 141
f 110 137 105
f 110 142 137
f 138 143 106
f 106 143 111
f 112 111 143
f 112 143 144
f 113 140 108
f 113 145 140
f 141 114 109
f 146 114 141
f 147 142 110
f 147 110 115
f 115 116 147
f 147 116 148
f 144 149 112
f 112 149 117
f 118 117 149
f 118 149 150
f 119 145 113
f 119 151 145
f 146 120 114
f 152 120 146
f 153 148 116
f 153 116 121
f 121 122 153
f 153 122 154
f 150 155 118
f 118 155 123
f 123 156 124
f 155 156 123
f 124 157 125
f 156 157 124
f 119 125 151
f 151 125 157
f 152 126 120
f 158 126 152
f 159 154 122
f 159 122 127
f 127 128 159
f 159 128 160
f 162 161 130
f 130 161 129
f 130 126 158
f 130 158 162
f 163 160 128
f 163 128 131
f 131 132 163
f 163 132 164
f 166 165 134
f 134 165 133
f 134 129 161
f 134 161 166
f 167 164 132
f 167 132 135
f 135 133 165
f 135 165 167
f 169 168 136
f 169 136 137
f 138 136 168
f 138 168 170
f 172 171 139
f 172 139 140
f 141 139 171
f 141 171 173
f 142 169 137
f 142 174 169
f 170 175 138
f 138 175 143
f 144 143 175
f 144 175 176
f 145 172 140
f 145 177 172
f 173 146 141
f 178 146 173
f 179 174 142
f 179 142 147
f 147 148 179
f 179 148 180
f 176 181 144
f 144 181 149
f 150 149 181
f 150 181 182
f 151 177 145
f 151 183 177
f 178 152 146
f 184 152 178
f 185 180 148
f 185 148 153
f 153 154 185
f 185 154 186
f 182 187 150
f 150 187 155
f 155 188 156
f 187 188 155
f 156 189 157
f 188 189 156
f 151 157 183
f 183 157 189
f 184 158 152
f 190 158 184
f 191 186 154
f 191 154 159
f 159 160 191
f 191 160 192
f 194 193 162
f 162 193 161
f 162 158 190
f 162 190 194
f 195 192 160
f 195 160 163
f 163 164 195
f 195 164 196
f 198 197 166
f 166 197 165
f 166 161 193
f 166 193 198
f 199 196 164
f 199 164 167
f 167 165 197
f 167 197 199
f 201 200 168
f 201 168 169
f 170 168 200
f 170 200 202
f 204 203 171
f 204 171 172
f 173 171 203
f 173 203 205
f 174 201 169
f 174 206 201
f 202 207 170
f 170 207 175
f 176 175 207
f 176 207 208
f 177 204 172
f 177 209 204
f 205 178 173
f 210 178 205
f 211 206 174
f 211 174 179
f 179 180 211
f 211 180 212
f 208 213 176
f 176 213 181
f 182 181 213
f 182 213 214
f 183 209 177
f 183 215 209
f 210 184 178
f 216 184 210
f 217 212 180
f 217 180 185
f 185 186 217
f 217 186 218
f 214 219 182
f 182 219 187
f 187 220 188
f 219 220 187
f 188 221 189
f 220 221 188
f 183 189 215
f 215 189 221
f 216 190 184
f 222 190 216
f 223 218 186
f 223 186 191
f 191 192 223
f 223 192 224
f 226 225 194
f 194 225 193
f 194 190 222
f 194 222 226
f 227 224 192
f 227 192 195
f 195 196 227
f 227 196 228
f 230 229 198
f 198 229 197
f 198 193 225
f 198 225 230
f 231 228 196
f 231 196 199
f 199 197 229
f 199 229 231
f 233 232 200
f 233 200 201
f 202 200 232
f 202 232 234
f 236 235 203
f 236 203 204
f 205 203 235
f 205 235 237
f 206 233 201
f 206 238 233
f 234 239 202
f 202 239 207
f 208 207 239
f 208 239 240
f 209 236 204
f 209 241 236
f 237 210 205
f 242 210 237
f 243 238 206
f 243 206 211
f 211 212 243
f 243 212 244
f 240 245 208
f 208 245 213
f 214 213 245
f 214 245 246
f 215 241 209
f 215 247 241
f 242 216 210
f 248 216 242
f 249 244 212
f 249 212 217
f 217 218 249
f 249 218 250
f 246 251 214
f 214 251 219
f 219 252 220
f 251 252 219
f 220 253 221
f 252 253 220
f 215 221 247
f 247 221 253
f 248 222 216
f 254 222 248
f 255 250 218
f 255 218 223
f 223 224 255
f 255 224 256
f 258 257 226
f 226 257 225
f 226 222 254
f 226 254 258
f 259 256 224
f 259 224 227
f 227 228 259
f 259 228 260
f 262 261 230
f 230 261 229
f 230 225 257
f 230 257 262
f 263 260 228
f 263 228 231
f 231 229 261
f 231 261 263
f 265 264 232
f 265 232 233
f 234 232 264
f 234 264 266
f 268 267 235
f 268 235 236
f 237 235 267
f 237 267 269
f 238 265 233
f 238 270 265
f 266 271 234
f 234 271 239
f 240 239 271
f 240 271 272
f 241 268 236
f 241 273 268
f 269 242 237
f 274 242 269
f 275 270 238
f 275 238 243
f 243 244 275
f 275 244 276
f 272 277 240
f 240 277 245
f 246 245 277
f 246 277 278
f 247 273 241
f 247 279 273
f 274 248 242
f 280 248 274
f 281 276 244
f 281 244 249
f 249 250 281
f 281 250 282
f 278 283 246
f 246 283 251
f 251 284 252
f 283 284 251
f 252 285 253
f 284 285 252
f 247 253 279
f 279 253 285
f 280 254 248
f 286 254 280
f 287 282 250
f 287 250 255
f 255 256 287
f 287 256 288
f 290 289 258
f 258 289 257
f 258 254 286
f 258 286 290
f 291 288 256
f 291 256 259
f 259 260 291
f 291 260 292
f 294 293 262
f 262 293 261
f 262 257 289
f 262 289 294
f 295 292 260
f 295 260 263
f 263 261 293
f 263 293 295
f 297 296 264
f 297 264 265
f 266 264 296
f 266 296 298
f 300 299 267
f 300 267 268
f 269 267 299
f 269 299 301
f 270 297 265
f 270 302 297
f 298 303 266
f 266 303 271
f 272 271 303
f 272 303 304
f 273 300 268
f 273 305 300
f 301 274 269
f 306 274 301
f 307 302 270
f 307 270 275
f 275 276 307
f 307 276 308
f 304 309 272
f 272 309 277
f 278 277 309
f 278 309 310
f 279 305 273
f 279 311 305
f 306 280 274
f 312 280 306
f 313 308 276
f 313 276 281
f 281 282 313
f 313 282 314
f 310 315 278
f 278 315 283
f 283 316 284
f 315 316 283
f 284 317 285
f 316 317 284
f 279 285 311
f 311 285 317
f 312 286 280
f 318 286 312
f 319 314 282
f 319 282 287
f 287 288 319
f 319 288 320
f 322 321 290
f 290 321 289
f 290 286 318
f 290 318 322
f 323 320 288
f 323 288 291
f 291 292 323
f 323 292 324
f 326 325 294
f 294 325 293
f 294 289 321
f 294 321 326
f 327 324 292
f 327 292 295
f 295 293 325
f 295 325 327
f 329 328 296
f 329 296 297
f 298 296 328
f 298 328 330
f 332 331 299
f 332 299 300
f 301 299 331
f 301 331 333
f 302 329 297
f 302 334 329
f 330 335 298
f 298 335 303
f 304 303 335
f 304 335 336
f 305 332 300
f 305 337 332
f 333 306 301
f 338 306 333
f 339 334 302
f 339 302 307
f 307 308 339
f 339 308 340
f 336 341 304
f 304 341 309
f 310 309 341
f 310 341 342
f 311 337 305
f 311 343 337
f 338 312 306
f 344 312 338
f 345 340 308
f 345 308 313
f 313 314 345
f 345 314 346
f 342 347 310
f 310 347 315
f 315 348 316
f 347 348 315
f 316 349 317
f 348 349 316
f 311 317 343
f 343 317 349
f 344 318 312
f 350 318 344
f 351 346 314
f 351 314 319
f 319 320 351
f 351 320 352
f 354 353 322
f 322 353 321
f 322 318 350
f 322 350 354
f 355 352 320
f 355 320 323
f 323 324 355
f 355 324 356
f 358 357 326
f 326 357 325
f 326 321 353
f 326 353 358
f 359 356 324
f 359 324 327
f 327 325 357
f 327 357 359
f 361 360 328
f 361 328 329
f 330 328 360
f 330 360 362
f 364 363 331
f 364 331 332
f 333 331 363
f 333 363 365
f 334 361 329
f 334 366 361
f 362 367 330
f 330 367 335
f 336 335 367
f 336 367 368
f 337 364 332
f 337 369 364
f 365 338 333
f 370 338 365
f 371 366 334
f 371 334 339
f 339 340 371
f 371 340 372
f 368 373 336
f 336 373 341
f 342 341 373
f 342 373 374
f 343 369 337
f 343 375 369
f 370 344 338
f 376 344 370
f 377 372 340
f 377 340 345
f 345 346 377
f 377 346 378
f 374 379 342
f 342 379 347
f 347 380 348
f 379 380 347
f 348 381 349
f 380 381 348
f 343 349 375
f 375 349 381
f 376 350 344
f 382 350 376
f 383 378 346
f 383 346 351
f 351 352 383
f 383 352 384
f 386 385 354
f 354 385 353
f 354 350 382
f 354 382 386
f 387 384 352
f 387 352 355
f 355 356 387
f 387 356 388
f 390 389 358
f 358 389 357
f 358 353 385
f 358 385 390
f 391 388 356
f 391 356 359
f 359 357 389
f 359 389 391
f 393 392 360
f 393 360 361
f 362 360 392
f 362 392 394
f 396 395 363
f 396 363 364
f 365 363 395
f 365 395 397
f 366 393 361
f 366 398 393
f 394 399 362
f 362 399 367
f 368 367 399
f 368 399 400
f 369 396 364
f 369 401 396
f 397 370 365
f 402 370 397
f 403 398 366
f 403 366 371
f 371 372 403
f 403 372 404
f 400 405 368
f 368 405 373
f 374 373 405
f 374 405 406
f 375 401 369
f 375 407 401
f 402 376 370
f 408 376 402
f 409 404 372
f 409 372 377
f 377 378 409
f 409 378 410
f 406 411 374
f 374 411 379
f 379 412 380
f 411 412 379
f 380 413 381
f 412 413 380
f 375 381 407
f 407 381 413
f 408 382 376
f 414 382 408
f 415 410 378
f 415 378 383
f 383 384 415
f 415 384 416
f 418 417 386
f 386 417 385
f 386 382 414
f 386 414 418
f 419 416 384
f 419 384 387
f 387 388 419
f 419 388 420
f 422 421 390
f 390 421 389
f 390 385 417
f 390 417 422
f 423 420 388
f 423 388 391
f 391 389 421
f 391 421 423
f 425 424 392
f 425 392 393
f 394 392 424
f 394 424 426
f 428 427 395
f 428 395 396
f 397 395 427
f 397 427 429
f 398 425 393
f 398 430 425
f 426 431 394
f 394 431 399
f 400 399 431
f 400 431 432
f 401 428 396
f 401 433 428
f 429 402 397
f 434 402 429
f 435 430 398
f 435 398 403
f 403 404 435
f 435 404 436
f 432 437 400
f 400 437 405
f 406 405 437
f 406 437 438
f 407 433 401
f 407 439 433
f 434 408 402
f 440 408 434
f 441 436 404
f 441 404 409
f 409 410 441
f 441 410 442
f 438 443 406
f 406 443 411
f 411 444 412
f 443 444 411
f 412 445 413
f 444 445 412
f 407 413 439
f 439 413 445
f 440 414 408
f 446 414 440
f 447 442 410
f 447 410 415
f 415 416 447
f 447 416 448
f 450 449 418
f 418 449 417
f 418 414 446
f 418 446 450
f 451 448 416
f 451 416 419
f 419 420 451
f 451 420 452
f 454 453 422
f 422 453 421
f 422 417 449
f 422 449 454
f 455 452 420
f 455 420 423
f 423 421 453
f 423 453 455
f 457 456 424
f 457 424 425
f 426 424 456
f 426 456 458
f 460 459 427
f 460 427 428
f 429 427 459
f 429 459 461
f 430 457 425
f 430 462 457
f 458 463 426
f 426 463 431
f 432 431 463
f 432 463 464
f 433 460 428
f 433 465 460
f 461 434 429
f 466 434 461
f 467 462 430
f 467 430 435
f 435 436 467
f 467 436 468
f 464 469 432
f 432 469 437
f 438 437 469
f 438 469 470
f 439 465 433
f 439 471 465
f 466 440 434
f 472 440 466
f 473 468 436
f 473 436 441
f 441 442 473
f 473 442 474
f 470 475 438
f 438 475 443
f 443 476 444
f 475 476 443
f 444 477 445
f 476 477 444
f 439 445 471
f 471 445 477
f 472 446 440
f 478 446 472
f 479 474 442
f 479 442 447
f 447 448 479
f 479 448 480
f 482 481 450
f 450 481 449
f 450 446 478
f 450 478 482
f 483 480 448
f 483 448 451
f 451 452 483
f 483 452 484
f 486 485 454
f 454 485 453
f 454 449 481
f 454 481 486
f 487 484 452
f 487 452 455
f 455 453 485
f 455 485 487
f 489 488 456
f 489 456 457
f 458 456 488
f 458 488 490
f 492 491 459
f 492 459 460
f 461 459 491
f 461 491 493
f 462 489 457
f 462 494 489
f 490 495 458
f 458 495 463
f 464 463 495
f 464 495 496
f 465 492 460
f 465 497 492
f 493 466 461
f 498 466 493
f 499 494 462
f 499 462 467
f 467 468 499
f 499 468 500
f 496 501 464
f 464 501 469
f 470 469 501
f 470 501 502
f 471 497 465
f 471 503 497
f 498 472 466
f 504 472 498
f 505 500 468
f 505 468 473
f 473 474 505
f 505 474 506
f 502 507 470
f 470 507 475
f 475 508 476
f 507 508 475
f 476 509 477
f 508 509 476
f 471 477 503
f 503 477 509
f 504 478 472
f 510 478 504
f 511 506 474
f 511 474 479
f 479 480 511
f 511 480 512
f 514 513 482
f 482 513 481
f 482 478 510
f 482 510 514
f 515 512 480
f 515 480 483
f 483 484 515
f 515 484 516
f 518 517 486
f 486 517 485
f 486 481 513
f 486 513 518
f 519 516 484
f 519 484 487
f 487 485 517
f 487 517 519
f 521 520 488
f 521 488 489
f 490 488 520
f 490 520 522
f 524 523 491
f 524 491 492
f 493 491 523
f 493 523 525
f 494 521 489
f 494 526 521
f 522 527 490
f 490 527 495
f 496 495 527
f 496 527 528
f 497 524 492
f 497 529 524
f 525 498 493
f 530 498 525
f 531 526 494
f 531 494 499
f 499 500 531
f 531 500 532
f 528 533 496
f 496 533 501
f 502 501 533
f 502 533 534
f 503 529 497
f 503 535 529
f 530 504 498
f 536 504 530
f 537 532 500
f 537 500 505
f 505 506 537
f 537 506 538
f 534 539 502
f 502 539 507
f 507 540 508
f 539 540 507
f 508 541 509
f 540 541 508
f 503 509 535
f 535 509 541
f 536 510 504
f 542 510 536
f 543 538 506
f 543 506 511
f 511 512 543
f 543 512 544
f 546 545 514
f 514 545 513
f 514 510 542
f 514 542 546
f 547 544 512
f 547 512 515
f 515 516 547
f 547 516 548
f 550 549 518
f 518 549 517
f 518 513 545
f 518 545 550
f 551 548 516
f 551 516 519
f 519 517 549
f 519 549 551
f 553 552 520
f 553 520 521
f 522 520 552
f 522 552 554
f 556 555 523
f 556 523 524
f 525 523 555
f 525 555 557
f 526 559 558
f 553 526 558
f 521 526 553
f 559 560 527
f 554 559 527
f 522 554 527
f 559 554 558
f 560 528 527
f 529 562 561
f 556 529 561
f 524 529 556
f 557 561 562
f 530 557 562
f 525 557 530
f 531 559 526
f 559 531 532
f 563 559 532
f 560 559 563
f 564 533 528
f 560 564 528
f 563 564 560
f 564 534 533
f 535 565 562
f 535 562 529
f 565 536 530
f 565 530 562
f 537 563 532
f 563 537 538
f 566 563 538
f 564 563 566
f 567 539 534
f 564 567 534
f 566 567 564
f 568 540 539
f 568 539 567
f 569 541 540
f 569 540 568
f 565 535 541
f 569 565 541
f 570 565 569
f 570 542 536
f 570 536 565
f 543 566 538
f 566 543 544
f 571 566 544
f 567 566 571
f 567 572 568
f 567 571 572
f 568 573 569
f 568 572 573
f 573 545 546
f 570 573 546
f 569 573 570
f 570 546 542
f 547 571 544
f 571 547 548
f 574 571 548
f 572 571 574
f 574 549 550
f 573 574 550
f 572 574 573
f 573 550 545
f 551 574 548
f 574 551 549
f 577 576 575
f 579 578 575
f 579 575 576
f 581 580 578
f 581 578 579
f 552 553 580
f 581 552 580
f 582 552 581
f 584 583 554
f 552 584 554
f 582 584 552
f 586 585 583
f 586 583 584
f 588 587 585
f 588 585 586
f 590 589 587
f 590 587 588
f 592 591 589
f 592 589 590
f 555 556 591
f 592 555 591
f 593 555 592
f 595 594 557
f 555 595 557
f 593 595 555
f 597 596 594
f 597 594 595
f 598 596 597
f 599 577 575
f 599 575 578
f 599 578 600
f 600 578 580
f 600 580 601
f 601 580 553
f 558 601 553
f 602 601 558
f 558 554 583
f 603 558 583
f 602 558 603
f 603 583 585
f 603 585 604
f 604 585 587
f 604 587 605
f 605 587 589
f 605 589 606
f 606 589 591
f 606 591 607
f 607 591 556
f 561 607 556
f 608 607 561
f 561 557 594
f 609 561 594
f 608 561 609
f 609 594 596
f 609 596 610
f 610 596 598
f 577 611 576
f 612 579 576
f 612 576 611
f 613 581 579
f 613 579 612
f 614 582 581
f 614 581 613
f 615 584 582
f 615 582 614
f 616 586 584
f 616 584 615
f 617 588 586
f 617 586 616
f 618 590 588
f 618 588 617
f 619 592 590
f 619 590 618
f 620 593 592
f 620 592 619
f 621 595 593
f 621 593 620
f 622 597 595
f 622 595 621
f 622 598 597
f 599 611 577
f 611 599 600
f 611 600 612
f 612 600 601
f 612 601 613
f 613 601 602
f 613 602 614
f 614 602 603
f 614 603 615
f 615 603 604
f 615 604 616
f 616 604 605
f 616 605 617
f 617 605 606
f 617 606 618
f 618 606 607
f 618 607 619
f 619 607 608
f 619 608 620
f 620 608 609
f 620 609 621
f 621 609 610
f 621 610 622
f 622 610 598

