# https://github.com/mikedh/trimesh
v -0.02175533 -0.00888307 -0.01190096
v -0.01972068 -0.01139919 -0.01296684
v -0.02046969 -0.00903292 -0.01548155
v -0.02192419 -0.00932408 -0.00654029
v -0.02000600 -0.01222624 -0.00890698
v -0.02163271 -0.00860859 -0.00193860
v -0.02001048 -0.01197379 -0.00437937
v -0.01970987 -0.01042926 -0.00087329
v -0.02194618 -0.00516409 -0.01610633
v -0.01955623 -0.00761790 -0.01791725
v -0.01971774 -0.00464582 -0.01906318
v -0.02259991 -0.00427950 -0.01193553
v -0.02257613 -0.00504075 -0.00768856
v -0.02259184 -0.00490062 -0.00276284
v -0.02040074 -0.00759913 0.00132545
v -0.02168892 -0.00453996 0.00146422
v -0.01976762 -0.00515695 0.00369852
v -0.02189814 -0.00040469 -0.01695740
v -0.01889210 0.00003216 -0.01909893
v -0.02266513 -0.00004794 -0.01266727
v -0.02257561 0.00001738 -0.00769764
v -0.02257102 -0.00069249 -0.00348681
v -0.02180279 0.00024139 0.00056113
v -0.02004974 -0.00143571 0.00403379
v -0.02063553 0.00263583 -0.01680322
v -0.01983797 0.00538719 -0.01461756
v -0.02176412 0.00359992 -0.01347615
v -0.02195122 0.00430859 -0.00878055
v -0.02172832 0.00392657 -0.00352004
v -0.02038635 0.00407190 -0.00013916
v -0.01974561 0.00195914 0.00255688
v -0.02007135 0.00691303 -0.01103639
v -0.02003893 0.00725959 -0.00649328
v -0.01968882 0.00645346 -0.00257378
v -0.01705835 -0.01821607 -0.01197598
v -0.01555894 -0.02116211 -0.01232230
v -0.01551299 -0.01907040 -0.01514376
v -0.01724502 -0.01876166 -0.00680112
v -0.01502914 -0.02166635 -0.00839095
v -0.01709063 -0.01812818 -0.00239096
v -0.01493753 -0.02079771 -0.00344912
v -0.01485553 -0.01952603 -0.00043925
v -0.01692105 -0.01504444 -0.01640747
v -0.01474737 -0.01689992 -0.01788892
v -0.01478489 -0.01393670 -0.01896426
v -0.01822793 -0.01384888 -0.01258374
v -0.01825832 -0.01512068 -0.00784467
v -0.01825046 -0.01430522 -0.00284290
v -0.01482709 -0.01725443 0.00182128
v -0.01721601 -0.01385951 0.00179713
v -0.01493607 -0.01460239 0.00424316
v -0.01797320 -0.01101933 -0.01672131
v -0.01565486 -0.00935677 -0.01928126
v -0.01846050 -0.00934967 0.00228645
v -0.01484629 -0.01240628 0.00658565
v -0.01701731 -0.00928276 0.00587164
v -0.01488523 -0.00961943 0.00878187
v -0.01541676 -0.00498599 -0.01965437
v -0.01771000 -0.00434200 0.00605326
v -0.01541484 -0.00590108 0.00874759
v -0.01472725 -0.00103652 -0.01959492
v -0.01767043 0.00105337 0.00636262
v -0.01525301 -0.00140023 0.00892466
v -0.01845416 0.00494730 -0.01718410
v -0.01550641 0.00405829 -0.01925055
v -0.01831149 0.00536096 0.00182013
v -0.01776548 0.00503160 0.00688475
v -0.01501006 0.00167278 0.01118186
v -0.01737893 0.00437279 0.01143287
v -0.01722214 0.00547533 0.01671086
v -0.01464355 0.00227112 0.01597431
v -0.01409700 0.00373910 0.01876193
v -0.01686656 0.00844019 -0.01742098
v -0.01406262 0.00974047 -0.01906945
v -0.01775858 0.00926145 -0.01313713
v -0.01836636 0.00953797 -0.00838215
v -0.01768266 0.00962481 -0.00369404
v -0.01703244 0.00914962 0.00087261
v -0.01730622 0.00906632 0.00572779
v -0.01792554 0.00912285 0.01102331
v -0.01810421 0.00923691 0.01591914
v -0.01562655 0.00670018 0.02010586
v -0.01722880 0.00943320 0.02023858
v -0.01452113 0.00900375 0.02229982
v -0.01546289 0.01164588 -0.01594396
v -0.01574464 0.01254784 -0.01208268
v -0.01468035 0.01453610 -0.01040373
v -0.01675236 0.01274286 -0.00822543
v -0.01573554 0.01346335 -0.00507646
v -0.01540526 0.01196341 -0.00175936
v -0.01462388 0.01146273 0.00276984
v -0.01475077 0.01170606 0.00707272
v -0.01481264 0.01352784 0.00956552
v -0.01722235 0.01353581 0.01077222
v -0.01808587 0.01416810 0.01591319
v -0.01755355 0.01408394 0.02028527
v -0.01484582 0.01263725 0.02338484
v -0.01398160 0.01554200 -0.00718663
v -0.01592899 0.01609508 0.01162476
v -0.01412114 0.01888262 0.01354725
v -0.01725397 0.01787014 0.01501214
v -0.01726636 0.01849637 0.01941254
v -0.01476411 0.01853009 0.02330628
v -0.01572033 0.02120001 0.01724308
v -0.01500597 0.02151469 0.02076390
v -0.01322940 -0.02311409 -0.01219862
v -0.00940701 -0.02568970 -0.01287890
v -0.01106495 -0.02329936 -0.01538460
v -0.01251633 -0.02366902 -0.00743313
v -0.01027645 -0.02551605 -0.00803494
v -0.01006466 -0.02421002 -0.00498909
v -0.01279856 -0.02019065 -0.01662739
v -0.00990701 -0.02190799 -0.01777109
v -0.01077348 -0.01855963 -0.01908944
v -0.01114273 -0.02224766 -0.00325398
v -0.01306060 -0.01915176 0.00172872
v -0.01082557 -0.02075065 0.00131499
v -0.01054441 -0.01908100 0.00423987
v -0.01059237 -0.01385284 -0.02012500
v -0.01316775 -0.01421586 0.00637815
v -0.01060111 -0.01668946 0.00652481
v -0.01069409 -0.01431789 0.00885749
v -0.01117182 -0.00855012 -0.02011258
v -0.01276858 -0.00814205 0.01103846
v -0.01066734 -0.01203388 0.01118109
v -0.00988723 -0.00974660 0.01343748
v -0.01030196 -0.00383541 -0.01990421
v -0.01281835 -0.00355003 0.01093318
v -0.01039508 -0.00600612 0.01328721
v -0.01195375 -0.00416144 0.02111630
v -0.01040541 -0.00661903 0.02006029
v -0.01062253 -0.00370893 0.01854192
v -0.00978538 -0.00602403 0.02249521
v -0.01123944 0.00031280 -0.01946951
v -0.01273377 0.00012633 0.01156611
v -0.01025602 -0.00139394 0.01353667
v -0.01276505 -0.00031141 0.01975425
v -0.01110704 0.00049291 0.01849425
v -0.01007798 -0.00080183 0.02258441
v -0.01064902 0.00448244 -0.01954252
v -0.01126739 0.00211126 0.01549436
v -0.01247568 0.00246876 0.01802093
v -0.01107428 0.00225036 0.02054666
v -0.01033409 0.00488538 0.01801767
v -0.01003087 0.00866017 -0.01966919
v -0.01159619 0.00709489 0.02031658
v -0.01160367 0.00958280 0.02296587
v -0.01306640 0.01368063 -0.01748004
v -0.00996816 0.01331195 -0.01912468
v -0.01333011 0.01428342 -0.01396210
v -0.01378313 0.01447079 -0.00344594
v -0.01278607 0.01399713 0.00025500
v -0.01124139 0.01359090 0.00369995
v -0.01022267 0.01214050 0.00684770
v -0.01134606 0.01216563 0.00981128
v -0.01338734 0.01455260 0.01122820
v -0.00994969 0.01423393 0.01307915
v -0.01033695 0.01179349 0.02450610
v -0.01291956 0.01531549 0.02580961
v -0.00944386 0.01490586 0.02708132
v -0.01068668 0.01565084 -0.01647238
v -0.01090731 0.01657350 -0.01196108
v -0.01077445 0.01717956 -0.00702151
v -0.01046788 0.01644684 -0.00231601
v -0.00943889 0.01549317 0.00258664
v -0.01072994 0.01886801 0.01327691
v -0.01273136 0.01844167 0.02575892
v -0.01069422 0.01775711 0.02721174
v -0.01330694 0.02321045 0.01576868
v -0.01004225 0.02293333 0.01403189
v -0.01296838 0.02398452 0.01925601
v -0.01151948 0.02308767 0.02261140
v -0.00984082 0.02082802 0.02552154
v -0.01013605 0.02554974 0.01717825
v -0.00961979 0.02538891 0.02069018
v -0.00861229 -0.02437886 -0.01684206
v -0.00524766 -0.02576011 -0.01655207
v -0.00666303 -0.02290674 -0.01898678
v -0.00541202 -0.02637218 -0.01195958
v -0.00601592 -0.02638335 -0.00768355
v -0.00784311 -0.02348903 -0.00224011
v -0.00615947 -0.02556766 -0.00336654
v -0.00506771 -0.02414265 -0.00012093
v -0.00605202 -0.01901303 -0.02016618
v -0.00621415 -0.02213740 0.00169310
v -0.00797131 -0.01912538 0.00676384
v -0.00648851 -0.02061165 0.00561484
v -0.00495687 -0.01886664 0.00862367
v -0.00758386 -0.01477235 -0.02165383
v -0.00447257 -0.01655807 -0.02198223
v -0.00602216 -0.01333984 -0.02339190
v -0.00818333 -0.01438500 0.01126373
v -0.00661970 -0.01616163 0.01048897
v -0.00507152 -0.01416135 0.01312137
v -0.00830373 -0.01076992 -0.02198171
v -0.00544296 -0.00955992 -0.02390921
v -0.00806736 -0.00935459 0.01645709
v -0.00596462 -0.01199289 0.01597908
v -0.00821465 -0.00890694 0.02024502
v -0.00570079 -0.01135040 0.01986752
v -0.00555540 -0.00943204 0.02253543
v -0.00797535 -0.00626838 -0.02188380
v -0.00455556 -0.00448172 -0.02365689
v -0.00898228 -0.00536107 0.01650131
v -0.00607328 -0.00496546 0.02336265
v -0.00650935 -0.00287518 -0.02147555
v -0.00591690 0.00053874 -0.01998876
v -0.00906156 -0.00047106 0.01661545
v -0.00551001 -0.00052702 0.02325570
v -0.00642680 0.00507618 -0.01945144
v -0.00842018 0.00384577 0.01920380
v -0.00591120 0.00413441 0.02260042
v -0.00585169 0.00929158 -0.01959690
v -0.00804781 0.00912771 0.01604802
v -0.00454570 0.00972566 0.01370709
v -0.00580665 0.00698670 0.01651430
v -0.00501161 0.00720600 0.02012007
v -0.00831524 0.01010138 0.02017330
v -0.00480524 0.01358320 -0.01919193
v -0.00838095 0.01423613 0.00581609
v -0.00626723 0.01345960 0.00847645
v -0.00702935 0.01150359 0.01131021
v -0.00745905 0.01348363 0.01597494
v -0.00591359 0.01308379 0.01840713
v -0.00647140 0.01214368 0.02174617
v -0.00762639 0.01328226 0.02499460
v -0.00555859 0.01371607 0.02310850
v -0.00717891 0.01662559 -0.01676218
v -0.00773405 0.01859903 -0.01308774
v -0.00466564 0.01895468 -0.01487293
v -0.00847455 0.01892190 -0.00894896
v -0.00809375 0.01890162 -0.00429437
v -0.00618481 0.01847052 -0.00115719
v -0.00579744 0.01689345 0.00128678
v -0.00546264 0.01580855 0.00570789
v -0.00441760 0.01566624 0.01640899
v -0.00693663 0.01913634 0.01326660
v -0.00534996 0.01572347 0.02491429
v -0.00701595 0.01847505 0.02708912
v -0.00554852 0.02049660 -0.01124463
v -0.00542623 0.02081274 -0.00658982
v -0.00478846 0.02025048 -0.00282471
v -0.00549842 0.02401392 0.01284156
v -0.00662580 0.02336546 0.02328316
v -0.00596717 0.02098042 0.02579680
v -0.00576601 0.02586042 0.01512199
v -0.00552169 0.02560602 0.01921835
v -0.00007851 -0.02591278 -0.01690511
v -0.00221948 -0.02355348 -0.01923609
v -0.00123143 -0.02635031 -0.01266924
v -0.00110395 -0.02630363 -0.00759839
v -0.00105800 -0.02632705 -0.00270618
v -0.00298541 -0.02354759 0.00273191
v -0.00182510 -0.02544702 0.00094596
v 0.00035093 -0.02384732 0.00423377
v -0.00108427 -0.01986648 -0.02017042
v -0.00215616 -0.02146547 0.00607820
v 0.00004194 -0.01908893 0.00911832
v 0.00004306 -0.01689776 -0.02195363
v -0.00238952 -0.01382641 -0.02389856
v -0.00221112 -0.01668551 0.01132947
v 0.00003078 -0.01428941 0.01360212
v -0.00124164 -0.00962179 -0.02452525
v -0.00090302 -0.01269151 0.01656390
v -0.00200060 -0.01178384 0.02033276
v -0.00090900 -0.00934014 0.02277447
v -0.00058366 -0.00540056 -0.02443808
v -0.00108755 -0.00497676 0.02325546
v -0.00386269 -0.00073337 -0.02216236
v -0.00045213 -0.00007550 -0.02369804
v -0.00120682 0.00000802 0.02318415
v -0.00169130 0.00192145 -0.02148464
v -0.00116368 0.00537655 -0.02002931
v -0.00055671 0.00423509 0.02326570
v -0.00168621 0.00995783 -0.01954362
v -0.00103935 0.00887857 0.01436578
v -0.00153387 0.00783187 0.01637314
v -0.00289422 0.00932270 0.01991443
v -0.00037325 0.00921725 0.01806630
v -0.00158268 0.00837391 0.02251343
v -0.00005214 0.01348465 -0.01908490
v -0.00398303 0.01405755 0.01110434
v -0.00149040 0.01162427 0.01488903
v -0.00300845 0.01459025 0.01484325
v -0.00432286 0.01436514 0.02059514
v -0.00008896 0.01402036 0.01786048
v 0.00000716 0.01078445 0.02064227
v -0.00241092 0.01655110 -0.01748622
v -0.00016952 0.01895932 -0.01508470
v -0.00210650 0.01875360 -0.00053286
v -0.00127730 0.01725279 0.00234786
v -0.00298911 0.01856410 0.00690996
v 0.00021756 0.01877720 0.00406337
v -0.00404145 0.01802913 0.01181715
v -0.00175029 0.01624656 0.02130675
v -0.00367298 0.01951008 0.02455574
v -0.00022866 0.01901276 0.02257284
v -0.00128879 0.02084210 -0.01201553
v -0.00117739 0.02145334 -0.00769482
v -0.00093461 0.02073045 -0.00343734
v -0.00052929 0.02137238 0.00702729
v -0.00020397 0.02355776 0.00937912
v -0.00320950 0.02242369 0.01008383
v -0.00298452 0.02256701 0.02173929
v -0.00161859 0.02407675 0.01866155
v 0.00062542 0.02146445 0.02023915
v -0.00198457 0.02522778 0.01195513
v -0.00148366 0.02543496 0.01540963
v 0.00434282 -0.02561919 -0.01622430
v 0.00280787 -0.02307626 -0.01891765
v 0.00364283 -0.02643184 -0.01259782
v 0.00375627 -0.02626939 -0.00760493
v 0.00322660 -0.02624930 -0.00325733
v 0.00308974 -0.02555115 0.00123549
v 0.00402327 -0.02352125 0.00385588
v 0.00295223 -0.01925932 -0.02019965
v 0.00318282 -0.02144378 0.00629892
v 0.00474424 -0.01905234 0.00905099
v 0.00483487 -0.01690779 -0.02189505
v 0.00253774 -0.01400121 -0.02384724
v 0.00243998 -0.01662256 0.01133625
v 0.00471928 -0.01423060 0.01363543
v 0.00366059 -0.00974347 -0.02445729
v 0.00385872 -0.01260471 0.01660313
v 0.00285536 -0.01172391 0.02032779
v 0.00406463 -0.00941250 0.02274585
v 0.00357341 -0.00476652 -0.02442405
v 0.00389440 -0.00511899 0.02325218
v 0.00414216 -0.00049776 -0.02443517
v 0.00383420 -0.00012868 0.02325901
v 0.00099454 0.00410266 -0.02216430
v 0.00432360 0.00397078 -0.02365537
v 0.00379393 0.00488910 0.02332403
v 0.00341623 0.00642412 -0.02151032
v 0.00324833 0.00936557 -0.01995969
v 0.00305735 0.00859262 0.01413486
v 0.00419916 0.00779353 0.01610227
v 0.00338377 0.00961698 0.01904540
v 0.00343909 0.00926129 0.02239439
v 0.00464702 0.01357750 -0.01906280
v 0.00350702 0.01152459 0.01506234
v 0.00411379 0.01447117 0.01845858
v 0.00324295 0.01097980 0.02074906
v 0.00229899 0.01652115 -0.01740386
v 0.00466440 0.01894913 -0.01505485
v 0.00272505 0.01868780 -0.00048440
v 0.00419752 0.01727812 0.00216145
v 0.00389006 0.01842128 0.00445162
v 0.00259474 0.01649560 0.02104967
v 0.00300596 0.01907219 0.02213283
v 0.00360390 0.02083365 -0.01201174
v 0.00374947 0.02145555 -0.00769653
v 0.00393578 0.02073242 -0.00341534
v 0.00253127 0.02023068 0.00598336
v 0.00309049 0.02139139 0.00956125
v 0.00129742 0.02380517 0.01228907
v 0.00351286 0.02127163 0.01536507
v 0.00086871 0.02339329 0.01621450
v 0.00404830 0.02014437 0.01997164
v 0.00613642 -0.02337445 -0.01760400
v 0.00788111 -0.02441872 -0.01565452
v 0.00885149 -0.02596030 -0.01249174
v 0.00784766 -0.02636004 -0.00825024
v 0.00774805 -0.02558313 -0.00286282
v 0.00644571 -0.02410700 0.00146323
v 0.00921470 -0.02344836 -0.00076210
v 0.00964248 -0.02186167 -0.01727593
v 0.00768618 -0.01940099 -0.01956090
v 0.00814860 -0.02212150 0.00237900
v 0.00812458 -0.02060170 0.00606708
v 0.00801431 -0.01910678 0.00860610
v 0.00885747 -0.01621030 -0.02162455
v 0.00785888 -0.01365495 -0.02363295
v 0.00789485 -0.01666285 0.01050424
v 0.00792527 -0.01422895 0.01328106
v 0.00789184 -0.00911978 -0.02440362
v 0.00871483 -0.01224205 0.01567912
v 0.00736525 -0.01138794 0.02036562
v 0.00827615 -0.00853670 0.02252483
v 0.00843137 -0.00491420 -0.02445664
v 0.00818091 -0.00394253 0.02273058
v 0.00837625 0.00001525 -0.02452172
v 0.00819875 0.00100361 0.02277579
v 0.00957085 0.00422416 -0.02390924
v 0.00767950 0.00563845 0.02245801
v 0.00731936 0.00719657 -0.02193225
v 0.00834483 0.01008120 -0.02018359
v 0.00757397 0.00905028 0.01347452
v 0.00829784 0.00675618 0.01618690
v 0.00802562 0.00672466 0.01926543
v 0.00590160 0.00904445 0.02110581
v 0.00937536 0.01369011 -0.01914070
v 0.00674363 0.01439698 0.01180295
v 0.00847236 0.01408259 0.00856674
v 0.00854281 0.01159547 0.01084612
v 0.00584523 0.01490522 0.01627397
v 0.00776127 0.01659390 -0.01690271
v 0.00879632 0.01858626 -0.01433879
v 0.00726017 0.01870141 -0.00062558
v 0.00932581 0.01694558 0.00100695
v 0.00833966 0.01629702 0.00484800
v 0.00583476 0.01814109 0.00754289
v 0.00567344 0.01885927 0.01161921
v 0.00590104 0.01819501 0.01600509
v 0.00533072 0.01754349 0.01991156
v 0.00743942 0.02029026 -0.01262129
v 0.00799324 0.02079591 -0.00880996
v 0.00814994 0.02042182 -0.00415143
v 0.01332005 -0.02538836 -0.01154053
v 0.01295498 -0.02341701 -0.01452502
v 0.01191251 -0.02560621 -0.00740944
v 0.01130699 -0.02412280 -0.00353062
v 0.01409166 -0.02357361 -0.00578314
v 0.01349188 -0.02079708 -0.01701573
v 0.01286713 -0.01845363 -0.01879967
v 0.01309212 -0.02217461 -0.00256708
v 0.01278795 -0.02078916 0.00184158
v 0.01082399 -0.01910873 0.00649565
v 0.01332891 -0.01920217 0.00392978
v 0.01133017 -0.01386866 -0.02231894
v 0.01298901 -0.01485497 -0.02034016
v 0.01320633 -0.01678099 0.00635092
v 0.01071940 -0.01431639 0.01125323
v 0.01316209 -0.01438450 0.00870347
v 0.01406525 -0.01176135 -0.02168903
v 0.01194571 -0.01009783 -0.02365327
v 0.01313780 -0.01209327 0.01115964
v 0.01114184 -0.00919912 0.01632449
v 0.01302917 -0.00840734 0.01321400
v 0.01007577 -0.00983574 0.01994198
v 0.01264827 -0.00502431 -0.02388385
v 0.01135753 -0.00498007 0.01654241
v 0.01302445 -0.00398333 0.01353727
v 0.01048772 -0.00621302 0.02034902
v 0.01264243 -0.00016125 -0.02392637
v 0.01145855 -0.00024307 0.01658285
v 0.01315297 0.00077840 0.01360812
v 0.01048439 -0.00141235 0.02031135
v 0.01325300 0.00363539 -0.02342396
v 0.01079115 0.00483858 0.01574261
v 0.01288711 0.00476207 0.01297435
v 0.01029714 0.00312683 0.02028925
v 0.01179527 0.00686983 -0.02203888
v 0.01335105 0.00919114 -0.02020611
v 0.01083890 0.00924482 0.01109436
v 0.01314157 0.00933936 0.00882581
v 0.01317522 0.00681721 0.01125854
v 0.01386992 0.01311147 -0.01894394
v 0.01098393 0.01309761 0.00713493
v 0.01275334 0.01395432 0.00458684
v 0.01308936 0.01190678 0.00641061
v 0.01278095 0.01585364 -0.01674772
v 0.01303301 0.01705816 -0.01279877
v 0.01068861 0.01889739 -0.01110001
v 0.01343952 0.01716696 -0.00834851
v 0.01105076 0.01883831 -0.00645069
v 0.01352040 0.01645711 -0.00347388
v 0.01034708 0.01841583 -0.00234096
v 0.01254028 0.01567267 0.00146925
v 0.01535934 -0.02403964 -0.01221366
v 0.01555626 -0.02400374 -0.00925179
v 0.01601392 -0.01836252 -0.01770411
v 0.01692162 -0.02002311 -0.01527232
v 0.01761697 -0.02164771 -0.01162311
v 0.01746681 -0.02158330 -0.00667504
v 0.01704213 -0.02074444 -0.00243755
v 0.01574464 -0.01922463 0.00144533
v 0.01848498 -0.01858832 -0.00056997
v 0.01847503 -0.01705181 -0.01666058
v 0.01692848 -0.01511254 -0.01883308
v 0.01725081 -0.01653721 0.00263383
v 0.01559886 -0.01440837 0.00632477
v 0.01833220 -0.01373076 0.00436269
v 0.01543354 -0.00835605 -0.02197836
v 0.01729256 -0.01078571 -0.01961874
v 0.01712974 -0.01179443 0.00757124
v 0.01546880 -0.00985665 0.01053294
v 0.01788912 -0.00832935 0.00866062
v 0.01561067 -0.00385879 -0.02203866
v 0.01842040 -0.00532185 -0.01963608
v 0.01542677 -0.00628172 0.01120500
v 0.01788849 -0.00386500 0.00900631
v 0.01561024 0.00091365 -0.02205120
v 0.01795699 -0.00093504 -0.02031731
v 0.01546649 -0.00154260 0.01129837
v 0.01789378 0.00088744 0.00901881
v 0.01493505 0.00498158 -0.02170962
v 0.01816725 0.00392167 -0.01974751
v 0.01511745 0.00420631 0.01071303
v 0.01764236 0.00490799 0.00834759
v 0.01728350 0.00903095 -0.01898312
v 0.01554296 0.00944827 0.00653125
v 0.01758204 0.01014376 0.00383822
v 0.01827760 0.00736311 0.00600621
v 0.01723238 0.01212168 -0.01780354
v 0.01592887 0.01463404 -0.01669478
v 0.01844624 0.01356720 -0.01532611
v 0.01581201 0.01418832 -0.00161072
v 0.01732399 0.01452523 -0.00500760
v 0.01824315 0.01256418 -0.00339509
v 0.01786487 0.01158412 0.00033933
v 0.01546642 0.01309335 0.00231928
v 0.01700122 0.01581538 -0.01333850
v 0.01714719 0.01581614 -0.00847518
v 0.01971427 -0.01777298 -0.01280048
v 0.01988204 -0.01868727 -0.00776931
v 0.01964994 -0.01865911 -0.00342694
v 0.01955666 -0.01401007 -0.01668967
v 0.02083383 -0.01362480 -0.01342819
v 0.02086067 -0.01515927 -0.00893126
v 0.02076485 -0.01452159 -0.00349222
v 0.01969064 -0.01468062 0.00118271
v 0.02026912 -0.00913328 -0.01684223
v 0.02223269 -0.01015545 -0.01431497
v 0.02261007 -0.01199227 -0.01119661
v 0.02258545 -0.01222311 -0.00663184
v 0.02227680 -0.01138082 -0.00253618
v 0.02097521 -0.01016262 0.00168099
v 0.02296923 -0.00895687 -0.00002473
v 0.01947959 -0.01049619 0.00541750
v 0.02096711 -0.00446800 -0.01768994
v 0.02264284 -0.00636919 -0.01538943
v 0.02227627 -0.00690613 0.00274486
v 0.02022139 -0.00551996 0.00565917
v 0.02223613 -0.00419445 0.00340040
v 0.02305188 -0.00286636 -0.01678859
v 0.02125511 -0.00064309 -0.01876944
v 0.02093505 -0.00036866 0.00337250
v 0.02260911 0.00140971 -0.00007542
v 0.02294818 -0.00207816 0.00135978
v 0.01954521 -0.00084283 0.00667904
v 0.02211635 0.00249324 -0.01779638
v 0.02060731 0.00597118 -0.01669479
v 0.02312996 0.00383009 -0.01539979
v 0.02075126 0.00468673 0.00138474
v 0.02222619 0.00513995 -0.00111794
v 0.01954315 0.00383731 0.00570965
v 0.01952431 0.01021955 -0.01627392
v 0.02235866 0.00628447 -0.01291278
v 0.02080152 0.00944784 -0.01200525
v 0.02262763 0.00715215 -0.00875174
v 0.02093039 0.00954801 -0.00691420
v 0.02259612 0.00691982 -0.00413865
v 0.02021448 0.00928429 -0.00226294
v 0.01938406 0.00829446 0.00267871
v 0.01966272 0.01357366 -0.01222884
v 0.01962774 0.01276709 -0.00744546
v 0.02417443 -0.00842629 -0.01212824
v 0.02455082 -0.00920572 -0.00777131
v 0.02421079 -0.00914716 -0.00321559
v 0.02471603 -0.00374421 -0.01295516
v 0.02520959 -0.00491974 -0.00775854
v 0.02518935 -0.00565078 -0.00355916
v 0.02408678 -0.00535916 0.00056145
v 0.02422607 0.00029350 -0.01598742
v 0.02523714 0.00059735 -0.01185168
v 0.02520963 -0.00011129 -0.00764204
v 0.02463869 -0.00131425 -0.00250470
v 0.02429221 0.00403267 -0.01221589
v 0.02456183 0.00418251 -0.00758775
v 0.02416839 0.00334803 -0.00327016
f 3 2 1
f 5 4 1
f 5 1 2
f 7 6 4
f 7 4 5
f 8 6 7
f 11 10 9
f 9 10 3
f 1 9 3
f 12 9 1
f 13 1 4
f 12 1 13
f 14 4 6
f 13 4 14
f 6 8 15
f 16 6 15
f 14 6 16
f 17 16 15
f 11 9 18
f 11 18 19
f 20 9 12
f 18 9 20
f 21 12 13
f 20 12 21
f 22 13 14
f 21 13 22
f 23 14 16
f 22 14 23
f 16 17 24
f 16 24 23
f 25 19 18
f 27 26 25
f 18 27 25
f 20 27 18
f 28 20 21
f 27 20 28
f 29 21 22
f 28 21 29
f 23 31 30
f 29 23 30
f 22 23 29
f 31 23 24
f 32 26 27
f 32 27 28
f 32 28 33
f 33 28 29
f 33 29 34
f 34 29 30
f 37 36 35
f 39 38 35
f 39 35 36
f 41 40 38
f 41 38 39
f 42 40 41
f 45 44 43
f 43 44 37
f 35 43 37
f 46 43 35
f 47 35 38
f 46 35 47
f 48 38 40
f 47 38 48
f 40 42 49
f 50 40 49
f 48 40 50
f 51 50 49
f 45 43 52
f 45 52 53
f 3 52 2
f 52 46 2
f 52 43 46
f 2 46 5
f 5 46 47
f 5 47 7
f 7 47 48
f 7 48 8
f 48 54 8
f 48 50 54
f 50 51 55
f 56 50 55
f 54 50 56
f 57 56 55
f 53 52 10
f 11 53 10
f 58 53 11
f 10 52 3
f 54 15 8
f 15 54 17
f 54 59 17
f 54 56 59
f 56 57 60
f 56 60 59
f 19 58 11
f 19 61 58
f 62 24 59
f 59 24 17
f 59 60 63
f 59 63 62
f 19 25 64
f 65 19 64
f 61 19 65
f 26 64 25
f 66 30 31
f 24 62 31
f 62 66 31
f 62 67 66
f 62 63 68
f 69 62 68
f 67 62 69
f 71 70 69
f 71 69 68
f 72 70 71
f 65 64 73
f 65 73 74
f 32 75 26
f 75 64 26
f 75 73 64
f 33 76 32
f 32 76 75
f 34 77 33
f 33 77 76
f 30 66 34
f 66 77 34
f 66 78 77
f 79 66 67
f 78 66 79
f 80 67 69
f 79 67 80
f 81 69 70
f 80 69 81
f 70 72 82
f 83 70 82
f 81 70 83
f 84 83 82
f 85 74 73
f 85 73 75
f 85 75 86
f 88 87 86
f 75 88 86
f 76 88 75
f 77 90 89
f 88 77 89
f 76 77 88
f 90 77 78
f 90 78 91
f 91 78 79
f 91 79 92
f 94 93 92
f 79 94 92
f 80 94 79
f 95 80 81
f 94 80 95
f 96 81 83
f 95 81 96
f 83 84 97
f 83 97 96
f 98 87 88
f 98 88 89
f 99 93 94
f 101 100 99
f 94 101 99
f 95 101 94
f 102 95 96
f 101 95 102
f 96 97 103
f 96 103 102
f 104 100 101
f 104 101 102
f 104 102 105
f 105 102 103
f 108 107 106
f 110 109 106
f 110 106 107
f 111 109 110
f 114 113 112
f 112 113 108
f 112 108 106
f 37 112 106
f 36 37 106
f 36 106 39
f 39 106 109
f 111 115 109
f 115 39 109
f 115 41 39
f 117 116 42
f 41 117 42
f 115 117 41
f 118 116 117
f 114 112 44
f 45 114 44
f 119 114 45
f 44 112 37
f 116 49 42
f 121 120 51
f 121 51 49
f 118 121 49
f 116 118 49
f 122 120 121
f 53 119 45
f 53 123 119
f 120 55 51
f 125 124 57
f 125 57 55
f 122 125 55
f 120 122 55
f 126 124 125
f 58 123 53
f 58 127 123
f 128 60 124
f 124 60 57
f 124 126 129
f 124 129 128
f 132 131 130
f 133 130 131
f 61 127 58
f 61 134 127
f 135 63 128
f 128 63 60
f 128 129 136
f 128 136 135
f 132 130 137
f 132 137 138
f 130 133 139
f 130 139 137
f 65 134 61
f 65 140 134
f 135 68 63
f 136 141 135
f 141 68 135
f 141 71 68
f 141 142 71
f 142 138 71
f 137 71 138
f 71 137 72
f 143 72 137
f 72 143 142
f 142 144 72
f 141 144 142
f 142 143 138
f 143 137 139
f 74 140 65
f 74 145 140
f 144 146 72
f 72 146 82
f 84 82 146
f 84 146 147
f 74 85 148
f 149 74 148
f 145 74 149
f 86 150 85
f 85 150 148
f 87 150 86
f 151 89 90
f 91 152 90
f 90 152 151
f 152 91 153
f 91 154 153
f 91 92 154
f 156 155 93
f 155 92 93
f 155 154 92
f 156 157 155
f 159 97 158
f 97 147 158
f 97 84 147
f 160 159 158
f 161 149 148
f 161 148 150
f 161 150 162
f 162 150 87
f 98 162 87
f 163 162 98
f 98 89 151
f 164 98 151
f 163 98 164
f 164 151 152
f 164 152 165
f 165 152 153
f 99 156 93
f 99 100 156
f 100 157 156
f 100 166 157
f 167 103 159
f 159 103 97
f 159 160 168
f 159 168 167
f 100 104 169
f 170 100 169
f 166 100 170
f 105 171 104
f 104 171 169
f 172 171 105
f 172 105 103
f 173 172 103
f 167 173 103
f 173 167 168
f 174 170 169
f 174 169 171
f 174 171 175
f 175 171 172
f 178 177 176
f 107 108 176
f 177 107 176
f 179 107 177
f 107 180 110
f 179 180 107
f 182 181 111
f 110 182 111
f 180 182 110
f 183 181 182
f 178 176 113
f 114 178 113
f 184 178 114
f 113 176 108
f 181 115 111
f 183 185 181
f 185 115 181
f 185 117 115
f 187 186 118
f 117 187 118
f 185 187 117
f 188 186 187
f 191 190 189
f 190 184 189
f 184 119 189
f 184 114 119
f 186 121 118
f 193 192 122
f 193 122 121
f 188 193 121
f 186 188 121
f 194 192 193
f 191 189 195
f 191 195 196
f 123 195 119
f 119 195 189
f 192 125 122
f 198 197 126
f 198 126 125
f 194 198 125
f 192 194 125
f 200 199 197
f 200 197 198
f 201 199 200
f 196 195 202
f 196 202 203
f 127 202 123
f 123 202 195
f 204 129 197
f 197 129 126
f 132 204 131
f 204 199 131
f 204 197 199
f 133 131 199
f 201 133 199
f 205 133 201
f 206 203 202
f 202 127 206
f 127 207 206
f 127 134 207
f 208 136 204
f 204 136 129
f 138 208 132
f 132 208 204
f 205 139 133
f 209 139 205
f 140 207 134
f 140 210 207
f 208 141 136
f 144 141 211
f 141 208 211
f 138 143 211
f 138 211 208
f 212 211 143
f 139 212 143
f 209 212 139
f 145 210 140
f 145 213 210
f 216 215 214
f 216 211 217
f 211 216 144
f 214 144 216
f 144 214 146
f 218 146 214
f 211 212 217
f 146 218 147
f 149 213 145
f 149 219 213
f 220 153 154
f 220 154 221
f 154 222 221
f 154 155 222
f 223 214 157
f 214 222 157
f 222 155 157
f 214 215 222
f 225 218 224
f 218 223 224
f 218 214 223
f 225 227 226
f 225 226 158
f 218 225 158
f 147 218 158
f 226 160 158
f 228 219 149
f 228 149 161
f 230 228 229
f 228 162 229
f 228 161 162
f 163 231 162
f 162 231 229
f 164 232 163
f 163 232 231
f 232 164 233
f 164 234 233
f 164 165 234
f 165 153 220
f 235 165 220
f 234 165 235
f 235 220 221
f 237 236 223
f 157 237 223
f 166 237 157
f 223 236 224
f 227 238 226
f 160 226 238
f 239 160 238
f 168 160 239
f 240 230 229
f 240 229 231
f 240 231 241
f 241 231 232
f 241 232 242
f 242 232 233
f 170 237 166
f 170 243 237
f 245 244 173
f 173 244 172
f 173 168 239
f 173 239 245
f 246 243 170
f 246 170 174
f 247 174 175
f 247 246 174
f 175 172 244
f 175 244 247
f 249 248 177
f 249 177 178
f 177 250 179
f 248 250 177
f 179 251 180
f 250 251 179
f 180 252 182
f 251 252 180
f 254 253 183
f 182 254 183
f 252 254 182
f 255 253 254
f 184 249 178
f 184 256 249
f 253 185 183
f 255 257 253
f 257 185 253
f 257 187 185
f 188 187 257
f 188 257 258
f 260 259 190
f 260 190 191
f 184 190 256
f 256 190 259
f 258 261 188
f 188 261 193
f 194 193 261
f 194 261 262
f 196 260 191
f 196 263 260
f 262 264 194
f 194 264 198
f 198 265 200
f 264 265 198
f 201 200 265
f 201 265 266
f 203 263 196
f 203 267 263
f 266 205 201
f 268 205 266
f 203 206 269
f 270 203 269
f 267 203 270
f 207 269 206
f 268 209 205
f 271 209 268
f 272 270 269
f 269 207 272
f 207 273 272
f 207 210 273
f 271 212 209
f 274 212 271
f 213 273 210
f 213 275 273
f 277 276 216
f 216 276 215
f 279 277 278
f 277 217 278
f 277 216 217
f 280 278 217
f 212 280 217
f 274 280 212
f 219 275 213
f 219 281 275
f 282 221 222
f 215 276 283
f 282 215 283
f 284 282 283
f 222 215 282
f 225 224 285
f 283 286 284
f 287 279 278
f 278 280 287
f 225 285 227
f 288 281 219
f 288 219 228
f 228 230 288
f 288 230 289
f 291 290 234
f 234 290 233
f 293 291 292
f 291 235 292
f 291 234 235
f 221 282 235
f 282 292 235
f 282 294 292
f 237 294 236
f 294 284 236
f 294 282 284
f 284 286 236
f 286 295 236
f 285 224 236
f 285 236 295
f 295 297 296
f 295 296 238
f 285 295 238
f 227 285 238
f 296 239 238
f 298 289 230
f 298 230 240
f 299 240 241
f 299 298 240
f 300 241 242
f 300 299 241
f 242 233 290
f 242 290 300
f 301 293 292
f 303 302 301
f 292 303 301
f 294 303 292
f 243 303 237
f 237 303 294
f 306 305 304
f 306 304 297
f 297 304 296
f 304 244 296
f 244 245 296
f 296 245 239
f 307 302 303
f 307 303 243
f 246 307 243
f 308 307 246
f 247 304 305
f 308 247 305
f 246 247 308
f 304 247 244
f 310 309 248
f 310 248 249
f 248 311 250
f 309 311 248
f 250 312 251
f 311 312 250
f 251 313 252
f 312 313 251
f 252 314 254
f 313 314 252
f 255 254 314
f 255 314 315
f 256 310 249
f 256 316 310
f 315 317 255
f 255 317 257
f 258 257 317
f 258 317 318
f 320 319 259
f 320 259 260
f 256 259 316
f 316 259 319
f 318 321 258
f 258 321 261
f 262 261 321
f 262 321 322
f 263 320 260
f 263 323 320
f 322 324 262
f 262 324 264
f 264 325 265
f 324 325 264
f 266 265 325
f 266 325 326
f 267 323 263
f 267 327 323
f 326 268 266
f 328 268 326
f 270 327 267
f 270 329 327
f 328 271 268
f 330 271 328
f 270 272 331
f 332 270 331
f 329 270 332
f 273 331 272
f 330 274 271
f 333 274 330
f 334 332 331
f 331 273 334
f 273 335 334
f 273 275 335
f 337 336 277
f 277 336 276
f 277 279 337
f 337 279 338
f 333 280 274
f 339 280 333
f 281 335 275
f 281 340 335
f 336 341 276
f 276 341 283
f 341 286 283
f 286 341 342
f 279 287 338
f 343 338 287
f 287 280 339
f 287 339 343
f 344 340 281
f 344 281 288
f 288 289 344
f 344 289 345
f 347 346 291
f 291 346 290
f 291 293 347
f 347 293 348
f 342 349 286
f 286 349 295
f 297 295 349
f 297 349 350
f 351 345 289
f 351 289 298
f 352 298 299
f 352 351 298
f 353 299 300
f 353 352 299
f 300 290 346
f 300 346 353
f 354 348 293
f 354 293 301
f 356 355 302
f 355 301 302
f 355 354 301
f 358 357 356
f 356 357 355
f 305 306 358
f 306 357 358
f 306 359 357
f 306 297 350
f 306 350 359
f 307 356 302
f 356 307 308
f 356 308 358
f 358 308 305
f 310 360 309
f 309 360 361
f 362 309 361
f 311 309 362
f 311 363 312
f 362 363 311
f 312 364 313
f 363 364 312
f 364 366 365
f 314 364 365
f 313 364 314
f 365 315 314
f 368 367 360
f 310 368 360
f 316 368 310
f 360 367 361
f 366 369 365
f 365 369 315
f 369 317 315
f 369 370 317
f 318 317 370
f 318 370 371
f 373 372 319
f 373 319 320
f 316 319 368
f 368 319 372
f 371 374 318
f 318 374 321
f 322 321 374
f 322 374 375
f 323 373 320
f 323 376 373
f 375 377 322
f 322 377 324
f 324 378 325
f 377 378 324
f 326 325 378
f 326 378 379
f 327 376 323
f 327 380 376
f 379 328 326
f 381 328 379
f 329 380 327
f 329 382 380
f 381 330 328
f 383 330 381
f 332 382 329
f 332 384 382
f 383 333 330
f 385 333 383
f 386 384 332
f 386 332 334
f 334 335 386
f 386 335 387
f 389 388 337
f 337 388 336
f 391 390 338
f 390 337 338
f 390 389 337
f 385 390 391
f 339 385 391
f 333 385 339
f 340 387 335
f 340 392 387
f 395 394 393
f 393 396 341
f 388 393 341
f 336 388 341
f 393 388 395
f 343 391 338
f 342 341 396
f 391 343 339
f 397 392 340
f 397 340 344
f 344 345 397
f 397 345 398
f 400 399 347
f 347 399 346
f 402 401 348
f 401 347 348
f 401 400 347
f 401 402 394
f 402 393 394
f 402 403 393
f 393 404 396
f 393 403 404
f 405 349 342
f 396 405 342
f 404 405 396
f 405 350 349
f 406 398 345
f 406 345 351
f 407 351 352
f 407 406 351
f 408 352 353
f 408 407 352
f 353 346 399
f 353 399 408
f 354 402 348
f 402 354 355
f 402 355 403
f 403 355 357
f 403 357 404
f 404 357 359
f 404 359 405
f 405 359 350
f 410 409 362
f 410 362 361
f 362 411 363
f 409 411 362
f 411 413 412
f 364 411 412
f 363 411 364
f 412 366 364
f 415 414 367
f 415 367 368
f 361 367 410
f 410 367 414
f 413 416 412
f 412 416 366
f 416 369 366
f 416 417 369
f 417 419 418
f 370 417 418
f 369 417 370
f 418 371 370
f 373 420 372
f 420 421 372
f 421 368 372
f 421 415 368
f 419 422 418
f 422 424 423
f 422 423 374
f 418 422 374
f 371 418 374
f 423 375 374
f 426 425 420
f 373 426 420
f 376 426 373
f 420 425 421
f 424 427 423
f 427 429 428
f 427 428 377
f 423 427 377
f 375 423 377
f 430 378 377
f 430 377 428
f 430 379 378
f 380 426 376
f 380 431 426
f 428 429 432
f 432 429 433
f 428 434 430
f 428 432 434
f 434 381 379
f 434 379 430
f 382 431 380
f 382 435 431
f 432 433 436
f 436 433 437
f 432 438 434
f 432 436 438
f 438 383 381
f 438 381 434
f 384 435 382
f 384 439 435
f 436 437 440
f 440 437 441
f 436 442 438
f 436 440 442
f 442 385 383
f 442 383 438
f 443 439 384
f 443 384 386
f 386 387 443
f 443 387 444
f 447 446 445
f 447 445 441
f 441 445 440
f 445 388 440
f 388 389 440
f 440 389 390
f 440 390 442
f 442 390 385
f 392 444 387
f 392 448 444
f 451 450 449
f 451 449 446
f 446 449 445
f 449 394 445
f 394 395 445
f 445 395 388
f 452 448 392
f 452 392 397
f 454 453 398
f 453 397 398
f 453 452 397
f 456 455 454
f 454 455 453
f 458 457 456
f 456 457 455
f 399 400 458
f 400 457 458
f 400 459 457
f 401 449 450
f 459 401 450
f 400 401 459
f 449 401 394
f 406 454 398
f 454 406 407
f 454 407 456
f 456 407 408
f 456 408 458
f 458 408 399
f 410 460 409
f 461 411 409
f 461 409 460
f 461 413 411
f 415 462 414
f 462 463 414
f 414 463 410
f 463 464 410
f 464 460 410
f 460 464 461
f 461 464 465
f 461 465 413
f 465 416 413
f 465 466 416
f 466 468 467
f 417 466 467
f 416 466 417
f 467 419 417
f 470 469 462
f 415 470 462
f 421 470 415
f 462 469 463
f 468 471 467
f 471 473 472
f 471 472 422
f 467 471 422
f 419 467 422
f 472 424 422
f 426 474 425
f 474 475 425
f 475 421 425
f 475 470 421
f 473 476 472
f 476 478 477
f 476 477 427
f 472 476 427
f 424 472 427
f 477 429 427
f 431 479 474
f 431 474 426
f 475 474 480
f 480 474 479
f 477 478 481
f 481 478 482
f 481 433 429
f 481 429 477
f 435 483 479
f 435 479 431
f 480 479 484
f 484 479 483
f 481 482 485
f 485 482 486
f 485 437 433
f 485 433 481
f 439 487 483
f 439 483 435
f 484 483 488
f 488 483 487
f 485 486 489
f 489 486 490
f 489 441 437
f 489 437 485
f 443 487 439
f 443 444 487
f 444 488 487
f 444 491 488
f 494 493 492
f 494 492 490
f 490 492 489
f 492 446 489
f 446 447 489
f 489 447 441
f 448 496 495
f 491 448 495
f 444 448 491
f 496 497 495
f 500 499 498
f 502 501 498
f 498 501 500
f 501 502 493
f 493 502 492
f 502 450 492
f 450 451 492
f 492 451 446
f 452 496 448
f 503 497 496
f 452 503 496
f 453 503 452
f 504 453 455
f 504 503 453
f 457 498 499
f 504 457 499
f 455 457 504
f 498 457 459
f 498 459 502
f 502 459 450
f 463 505 464
f 506 465 464
f 506 464 505
f 507 466 465
f 507 465 506
f 507 468 466
f 470 508 469
f 505 463 469
f 508 505 469
f 509 505 508
f 505 510 506
f 505 509 510
f 506 511 507
f 506 510 511
f 512 471 468
f 507 512 468
f 511 512 507
f 512 473 471
f 475 513 508
f 475 508 470
f 515 509 514
f 509 513 514
f 509 508 513
f 509 515 510
f 510 515 516
f 510 516 511
f 511 516 517
f 519 518 517
f 518 511 517
f 518 512 511
f 520 476 473
f 512 520 473
f 518 520 512
f 520 478 476
f 480 521 513
f 480 513 475
f 514 513 522
f 522 513 521
f 519 523 518
f 525 524 523
f 524 518 523
f 524 520 518
f 524 482 478
f 524 478 520
f 527 526 521
f 480 527 521
f 484 527 480
f 521 526 522
f 530 529 528
f 530 528 525
f 528 524 525
f 528 531 524
f 531 486 482
f 531 482 524
f 488 533 532
f 527 488 532
f 484 488 527
f 533 534 532
f 528 529 535
f 535 529 536
f 528 537 531
f 528 535 537
f 537 490 486
f 537 486 531
f 491 538 533
f 491 533 488
f 534 533 539
f 533 540 539
f 533 538 540
f 542 541 540
f 540 541 539
f 544 543 542
f 542 543 541
f 543 544 536
f 544 535 536
f 544 545 535
f 545 493 494
f 537 545 494
f 535 545 537
f 537 494 490
f 495 538 491
f 538 495 497
f 546 538 497
f 540 538 546
f 540 547 542
f 540 546 547
f 547 499 500
f 544 547 500
f 542 547 544
f 544 500 501
f 544 501 545
f 545 501 493
f 503 546 497
f 546 503 504
f 546 504 547
f 547 504 499
f 514 548 515
f 549 516 515
f 549 515 548
f 550 517 516
f 550 516 549
f 550 519 517
f 522 551 548
f 522 548 514
f 548 552 549
f 548 551 552
f 549 553 550
f 549 552 553
f 554 523 519
f 550 554 519
f 553 554 550
f 554 525 523
f 527 555 526
f 551 522 526
f 555 551 526
f 556 551 555
f 551 557 552
f 551 556 557
f 552 558 553
f 552 557 558
f 558 529 530
f 554 558 530
f 553 558 554
f 554 530 525
f 532 555 527
f 555 532 534
f 559 555 534
f 556 555 559
f 556 560 557
f 556 559 560
f 557 561 558
f 557 560 561
f 561 536 529
f 561 529 558
f 539 559 534
f 559 539 541
f 559 541 560
f 560 541 543
f 560 543 561
f 561 543 536

