# https://github.com/mikedh/trimesh
v -0.03875974 -0.00267947 -0.00532318
v -0.03551984 -0.00495593 -0.00632054
v -0.03705559 -0.00225327 -0.00829154
v -0.03910108 -0.00264043 -0.00057666
v -0.03647141 -0.00526175 -0.00187117
v -0.03854012 -0.00220297 0.00319871
v -0.03653143 -0.00493771 0.00282516
v -0.03639727 -0.00324724 0.00567322
v -0.03898404 0.00185666 -0.00616588
v -0.03620408 0.00149694 -0.00828851
v -0.03967829 0.00187417 -0.00166672
v -0.03904047 0.00186822 0.00267812
v -0.03665360 0.00136458 0.00569865
v -0.03837048 0.00581531 -0.00674377
v -0.03662805 0.00582195 -0.00779659
v -0.03894131 0.00642229 -0.00283298
v -0.03855703 0.00644564 0.00194463
v -0.03701665 0.00590139 0.00477352
v -0.03737851 0.00803145 -0.00558650
v -0.03642877 0.00848297 -0.00110170
v -0.03585845 0.00847452 0.00340949
v -0.03192889 -0.00465693 -0.00566537
v -0.03350155 -0.00304851 -0.00811400
v -0.03169923 -0.00526779 -0.00156307
v -0.03283073 -0.00582587 0.00243956
v -0.03442694 -0.00165167 0.00812865
v -0.03267545 -0.00469753 0.00663022
v -0.03227871 -0.00267455 0.00921443
v -0.03268342 -0.00042852 -0.00707127
v -0.03420367 0.00336971 -0.00599815
v -0.03162679 0.00109441 -0.00450982
v -0.03401168 0.00234578 0.00770537
v -0.03188428 0.00037888 0.00937296
v -0.03561789 0.00694493 -0.00559029
v -0.03128490 0.00385915 -0.00154145
v -0.03388770 0.00663593 -0.00207392
v -0.03136126 0.00656444 0.00092266
v -0.03364701 0.00624186 0.00541458
v -0.03082597 0.00430190 0.00776871
v -0.03316986 0.00826116 0.00203783
v -0.03069357 -0.00203817 -0.00547186
v -0.02945414 -0.00252619 -0.00232093
v -0.02776368 -0.00311522 0.00064509
v -0.02863435 -0.00464791 0.00361098
v -0.02976415 -0.00287615 0.00768848
v -0.02635700 -0.00217579 0.00526413
v -0.02664981 -0.00452257 0.01230515
v -0.02801733 -0.00233134 0.01047383
v -0.02913541 -0.00209069 0.01253847
v -0.02741342 -0.00325430 0.01455578
v -0.02987669 0.00076871 -0.00239143
v -0.02767829 0.00086121 0.00054399
v -0.02766834 -0.00113059 0.00855171
v -0.02980583 0.00112638 0.01119403
v -0.02805604 0.00042232 0.01443677
v -0.02820334 0.00445591 0.00333528
v -0.03076150 0.00665882 0.00372900
v -0.02756644 0.00452640 0.00755848
v -0.02756466 0.00392858 0.01158546
v -0.02606264 -0.00203210 0.00259601
v -0.02237804 -0.00482238 0.01313324
v -0.02326398 -0.00250571 0.01006718
v -0.02534104 -0.00178968 0.01703163
v -0.02351962 -0.00504103 0.01640452
v -0.02254976 -0.00333838 0.01937292
v -0.02484642 0.00114189 0.00389161
v -0.02304723 -0.00010463 0.00685403
v -0.02247649 0.00188796 0.00577966
v -0.02563605 0.00314449 0.01625914
v -0.02321468 0.00058553 0.01943534
v -0.02328610 0.00399837 0.00785670
v -0.02499949 0.00601755 0.01229655
v -0.02243382 0.00644403 0.01050543
v -0.02466523 0.00688089 0.01579032
v -0.02329070 0.00536327 0.01902436
v -0.02306082 0.00813000 0.01325290
v -0.02218000 0.00845246 0.01760462
v -0.02005945 -0.00322969 -0.05134814
v -0.01829204 -0.00536894 -0.05243058
v -0.01746815 -0.00243165 -0.05389552
v -0.02007192 -0.00245478 -0.04842280
v -0.01901626 -0.00502164 -0.04882172
v -0.01748634 -0.00335699 -0.04590560
v -0.02073197 -0.00314018 0.01194860
v -0.01783996 -0.00256297 0.01449865
v -0.01823216 -0.00476927 0.01742703
v -0.02054690 -0.00174325 0.02174890
v -0.01933912 -0.00479848 0.02058476
v -0.01743618 -0.00309691 0.02297892
v -0.01900195 -0.00068172 -0.05082645
v -0.01828772 -0.00041686 -0.04741611
v -0.02102669 0.00189913 0.00725186
v -0.01941878 0.00135760 0.00964738
v -0.01815803 -0.00062704 0.01205931
v -0.02087947 0.00302669 0.02168703
v -0.01743161 0.00119868 0.02388646
v -0.01820049 0.00427403 0.01198819
v -0.02051525 0.00710110 0.01243895
v -0.01782669 0.00632421 0.01462271
v -0.02083942 0.00692751 0.02097083
v -0.01846358 0.00583005 0.02287285
v -0.01905939 0.00846186 0.01639988
v -0.01822665 0.00843749 0.02087431
v -0.01618570 -0.00786420 -0.05081317
v -0.01248561 -0.00950541 -0.05174092
v -0.01484299 -0.00669877 -0.05405522
v -0.01652380 -0.00706421 -0.04721750
v -0.01399711 -0.00928699 -0.04831755
v -0.01380842 -0.00721879 -0.04574348
v -0.01332978 -0.00363943 -0.05496307
v -0.01321841 -0.00382953 -0.04456391
v -0.01599656 -0.00294099 0.01694486
v -0.01424635 -0.00330861 0.01835077
v -0.01386783 -0.00455316 0.02054962
v -0.01377131 -0.00317503 0.02397885
v -0.01689889 0.00222485 -0.05184554
v -0.01412105 0.00146196 -0.05434621
v -0.01654399 0.00249719 -0.04808741
v -0.01482990 0.00068140 -0.04512257
v -0.01646836 0.00183234 0.01215104
v -0.01364560 0.00129260 0.01448677
v -0.01352239 -0.00162919 0.01634748
v -0.01457219 -0.00058993 0.02600657
v -0.01545697 0.00208044 0.02660142
v -0.01501687 0.00211419 0.02971571
v -0.01399751 -0.00027859 0.02921180
v -0.01284166 0.00206444 0.03251897
v -0.01564846 0.00570711 -0.05231765
v -0.01285790 0.00704705 -0.05404393
v -0.01564673 0.00613912 -0.04886871
v -0.01318524 0.00620767 -0.04507929
v -0.01454503 0.00472337 0.01603913
v -0.01587617 0.00694767 0.01746311
v -0.01253514 0.00658888 0.01893554
v -0.01523743 0.00596507 0.02402416
v -0.01395576 0.00449759 0.02744325
v -0.01338282 0.00414280 0.03069076
v -0.01418725 0.00893527 -0.05078497
v -0.01337311 0.00914226 -0.04726779
v -0.01388958 0.00824226 0.02137710
v -0.01080468 -0.01209747 0.03156685
v -0.00807815 -0.01406432 0.03005935
v -0.00901859 -0.01170165 0.02892330
v -0.01137873 -0.01238906 0.03555709
v -0.00910639 -0.01426935 0.03495636
v -0.01097319 -0.01161144 0.03945505
v -0.00912073 -0.01423411 0.03987832
v -0.01065036 -0.01189666 0.04357471
v -0.00967374 -0.01370099 0.04371842
v -0.00819896 -0.01199628 0.04599245
v -0.00799950 -0.00980366 -0.05174333
v -0.01025667 -0.00728667 -0.05429981
v -0.01038380 -0.00976439 -0.04802385
v -0.00889391 -0.00729980 -0.04509175
v -0.01109622 -0.00697489 -0.01510353
v -0.00796888 -0.00943808 -0.01508191
v -0.00948704 -0.00724459 -0.01806408
v -0.01131653 -0.00739058 -0.01008975
v -0.00892623 -0.00978745 -0.01102402
v -0.01134721 -0.00726515 -0.00538038
v -0.00900380 -0.00973778 -0.00633988
v -0.01105488 -0.00661179 -0.00093716
v -0.00897613 -0.00931678 -0.00207829
v -0.00883555 -0.00805845 0.00078204
v -0.01055590 -0.00602127 0.02618547
v -0.00871864 -0.00883892 0.02649824
v -0.00877993 -0.00820509 0.02374113
v -0.00961964 -0.00950393 0.03102576
v -0.00897298 -0.00748928 0.02831072
v -0.00946495 -0.00677679 0.03184839
v -0.01106854 -0.00745247 0.03495425
v -0.00963856 -0.00811723 0.03810877
v -0.00942777 -0.00946029 0.04099812
v -0.00885379 -0.00977845 0.04449028
v -0.00922563 -0.00296421 -0.05479915
v -0.00899983 -0.00481893 -0.04273135
v -0.01145005 -0.00151306 -0.04236267
v -0.00854134 -0.00339104 -0.04054722
v -0.01124578 -0.00206180 -0.02394517
v -0.00803384 -0.00468254 -0.02474626
v -0.00984356 -0.00238298 -0.02722115
v -0.01146005 -0.00333193 -0.01903967
v -0.00897052 -0.00547484 -0.02070467
v -0.01184331 -0.00235417 -0.01491290
v -0.01179392 -0.00299553 -0.01098709
v -0.01182755 -0.00298603 -0.00628177
v -0.01186950 -0.00290179 -0.00156487
v -0.00983347 -0.00599803 0.00254889
v -0.01144937 -0.00287152 0.00355676
v -0.01081908 -0.00184005 0.00776636
v -0.00951160 -0.00494488 0.00625054
v -0.00902459 -0.00318566 0.00920841
v -0.01143714 -0.00317684 0.01756025
v -0.00919767 -0.00458709 0.01697517
v -0.00944511 -0.00139615 0.01470115
v -0.00978958 -0.00591614 0.02120875
v -0.01258023 -0.00285403 0.02696259
v -0.00933697 -0.00610790 0.02998048
v -0.01155439 -0.00311044 0.03132145
v -0.01174006 -0.00203152 0.03575150
v -0.00956658 -0.00573961 0.03908970
v -0.01128859 -0.00271185 0.04011105
v -0.01136997 -0.00222114 0.04550420
v -0.00884785 -0.00504952 0.04375924
v -0.01098306 -0.00192867 0.04904674
v -0.00892749 -0.00442166 0.04876851
v -0.00885649 -0.00309051 0.05143991
v -0.00940953 0.00198505 -0.05471381
v -0.01230288 0.00298226 -0.04235840
v -0.00956807 -0.00134121 -0.03890512
v -0.01129061 0.00191553 -0.03796238
v -0.01128833 0.00250401 -0.03261235
v -0.00925913 -0.00056905 -0.03492781
v -0.01140670 0.00101954 -0.02826900
v -0.00937379 -0.00088021 -0.03053773
v -0.01144367 0.00266284 -0.02535970
v -0.01154882 0.00175792 -0.02048358
v -0.01193721 0.00184839 -0.01543796
v -0.01182984 0.00198849 -0.01076772
v -0.01177791 0.00199569 -0.00607833
v -0.01180156 0.00132327 -0.00211291
v -0.01140439 0.00216922 0.00204445
v -0.01098812 0.00135020 0.00655348
v -0.00840418 0.00142497 0.01001624
v -0.00912158 0.00143637 0.01450290
v -0.01165183 0.00096131 0.03489831
v -0.01117662 0.00143597 0.03866872
v -0.01131591 0.00140345 0.04333636
v -0.01111180 0.00135429 0.04772110
v -0.00956877 0.00036166 0.05115511
v -0.00890592 0.00605945 -0.05480857
v -0.01166734 0.00615167 -0.04247227
v -0.01124537 0.00603496 -0.03941447
v -0.01137833 0.00621724 -0.03468879
v -0.01123768 0.00583792 -0.02969659
v -0.00953524 0.00604658 -0.02675169
v -0.00860447 0.00412170 -0.02360085
v -0.00962618 0.00447713 -0.01968790
v -0.00811307 0.00665317 -0.01753006
v -0.01112934 0.00560229 -0.01623566
v -0.01132914 0.00631830 -0.01176423
v -0.01128147 0.00639111 -0.00708747
v -0.01108919 0.00590502 -0.00212687
v -0.00980906 0.00610444 0.00115007
v -0.00948226 0.00461078 0.00451198
v -0.00868667 0.00424422 0.00776616
v -0.00943349 0.00413741 0.01609052
v -0.00902400 0.00683971 0.01852580
v -0.01220538 0.00703021 0.02562548
v -0.01128668 0.00658871 0.02922851
v -0.01038570 0.00577832 0.03268335
v -0.00975652 0.00431350 0.03614807
v -0.00934896 0.00434786 0.04085583
v -0.00947984 0.00438398 0.04550013
v -0.00919133 0.00365169 0.04941766
v -0.01183884 0.01098754 -0.05234918
v -0.00901065 0.01004234 -0.05395032
v -0.01138508 0.01163966 -0.04882387
v -0.01029007 0.01064543 -0.04587850
v -0.00877848 0.00875364 -0.04289697
v -0.00893573 0.00856033 -0.03720208
v -0.00890845 0.00869112 -0.03253750
v -0.00846456 0.00823444 -0.02898843
v -0.00890059 0.00842292 -0.01410728
v -0.00890489 0.00879539 -0.00969976
v -0.00892416 0.00872763 -0.00507270
v -0.00835534 0.00833860 -0.00074971
v -0.00896294 0.00844189 0.02137632
v -0.00925332 0.00852200 0.02634086
v -0.00811534 0.00813211 0.03133014
v -0.00958809 0.01263664 -0.05141663
v -0.00880322 0.01260543 -0.04855614
v -0.00729608 -0.01130837 0.02586794
v -0.00495456 -0.01361702 0.02707969
v -0.00488120 -0.01161332 0.02369736
v -0.00482840 -0.01402028 0.03112870
v -0.00455792 -0.01419118 0.03536772
v -0.00471063 -0.01480506 0.03994400
v -0.00591276 -0.01418854 0.04426606
v -0.00397042 -0.01228739 0.04647161
v -0.00334992 -0.00975180 -0.05172289
v -0.00550020 -0.00727624 -0.05416980
v -0.00572931 -0.00968809 -0.04803978
v -0.00350427 -0.00684448 -0.04519857
v -0.00452691 -0.00903722 -0.01433488
v -0.00607924 -0.00776948 -0.01752497
v -0.00516434 -0.00953112 -0.01066744
v -0.00531169 -0.00948006 -0.00595012
v -0.00451566 -0.00949868 -0.00114202
v -0.00738549 -0.00765433 0.00417478
v -0.00496570 -0.00960027 0.00269939
v -0.00704592 -0.00691081 0.00854573
v -0.00416095 -0.00947101 0.00746359
v -0.00637326 -0.00757724 0.01252045
v -0.00417715 -0.00946111 0.01194983
v -0.00686554 -0.00704927 0.01694341
v -0.00414657 -0.00934505 0.01651096
v -0.00685635 -0.00868498 0.02157536
v -0.00386046 -0.00984593 0.02134026
v -0.00821012 -0.00872457 0.02933768
v -0.00819214 -0.00699283 0.04040706
v -0.00728189 -0.00733411 0.04398452
v -0.00472170 -0.00886394 0.04713106
v -0.00448489 -0.00294810 -0.05466855
v -0.00517055 -0.00514767 -0.04238982
v -0.00707628 -0.00308147 -0.03710034
v -0.00522534 -0.00433677 -0.03859153
v -0.00685172 -0.00305746 -0.03267915
v -0.00448748 -0.00418672 -0.03358698
v -0.00769441 -0.00342667 -0.02887027
v -0.00510610 -0.00437737 -0.02847440
v -0.00390074 -0.00461556 -0.02343384
v -0.00446296 -0.00573135 -0.01968527
v -0.00758612 -0.00348000 0.01220524
v -0.00510605 -0.00587928 0.04879323
v -0.00722034 -0.00215483 0.05480611
v -0.00493508 -0.00499411 0.05357523
v -0.00626904 -0.00217750 0.05862943
v -0.00479383 -0.00459794 0.05767294
v -0.00381140 -0.00323709 0.06005870
v -0.00473255 0.00186276 -0.05465558
v -0.00736131 0.00130438 0.01300767
v -0.00777999 0.00270942 0.05287368
v -0.00661502 0.00206619 0.05708505
v -0.00389559 0.00096978 0.06034657
v -0.00445211 0.00657592 -0.05430809
v -0.00607193 0.00660971 -0.02707294
v -0.00348071 0.00435092 -0.02482341
v -0.00519732 0.00444897 -0.02004012
v -0.00428054 0.00611064 -0.01720845
v -0.00776061 0.00708152 0.00271172
v -0.00667863 0.00668515 0.00635750
v -0.00560163 0.00580816 0.00974184
v -0.00556599 0.00470145 0.01299237
v -0.00653909 0.00618547 0.01623985
v -0.00383888 0.00691272 0.01416665
v -0.00755804 0.00698379 0.03481151
v -0.00692676 0.00666066 0.03856401
v -0.00705358 0.00667463 0.04314772
v -0.00716381 0.00626465 0.04845645
v -0.00641994 0.00610067 0.05333048
v -0.00529389 0.00607816 0.05644948
v -0.00434993 0.00469884 0.05888890
v -0.00451902 0.00913080 -0.05198505
v -0.00717610 0.01143363 -0.05108076
v -0.00462568 0.00930211 -0.04732320
v -0.00752556 0.01107861 -0.04728192
v -0.00400056 0.00876926 -0.04246310
v -0.00534878 0.00895736 -0.03906035
v -0.00442571 0.00849431 -0.03499711
v -0.00519181 0.00823226 -0.03052824
v -0.00562200 0.00804639 -0.01564032
v -0.00517569 0.00852861 -0.01210989
v -0.00524704 0.00847608 -0.00743646
v -0.00475346 0.00851172 -0.00201350
v -0.00464827 0.00864569 0.00350298
v -0.00341232 0.00821135 0.00849043
v -0.00455507 0.00825764 0.01755184
v -0.00419434 0.00884195 0.02189559
v -0.00476390 0.00889390 0.02590202
v -0.00463671 0.00893937 0.03059931
v -0.00456716 0.00849981 0.03559787
v -0.00408739 0.00841250 0.04073267
v -0.00416751 0.00848901 0.04532840
v -0.00422738 0.00857257 0.05004077
v -0.00372136 0.00835299 0.05452548
v -0.00291333 -0.01194240 0.02540266
v -0.00237870 -0.01220113 0.02943376
v -0.00215045 -0.01203595 0.03388097
v -0.00029122 -0.01241727 0.03690313
v 0.00072871 -0.01427233 0.03997183
v -0.00091887 -0.01420844 0.04416689
v 0.00074654 -0.01116419 0.04699048
v 0.00125543 -0.00972232 -0.05171059
v -0.00084866 -0.00728710 -0.05413941
v -0.00110769 -0.00960843 -0.04805710
v 0.00061951 -0.00761395 -0.04585786
v -0.00291035 -0.00719207 -0.01560053
v -0.00219928 -0.00739979 -0.01170962
v -0.00230633 -0.00730347 -0.00694996
v -0.00201406 -0.00724181 -0.00249320
v -0.00059281 -0.00764047 0.00014515
v 0.00066853 -0.00954475 0.00260587
v 0.00005313 -0.01009187 0.00767611
v 0.00004035 -0.01010820 0.01222631
v -0.00003554 -0.01002920 0.01680329
v 0.00003216 -0.00989347 0.02139384
v 0.00006898 -0.01024623 0.02643292
v 0.00062535 -0.01015004 0.03174637
v 0.00104865 -0.01059808 0.03528836
v -0.00069413 -0.00867252 0.04886387
v -0.00199781 -0.00703447 0.04982434
v 0.00071984 -0.00703840 0.05038203
v 0.00013651 -0.00301251 -0.05464515
v -0.00231882 -0.00319922 -0.04302507
v 0.00047448 -0.00404336 -0.04448193
v -0.00225783 -0.00253940 -0.03948397
v -0.00215575 -0.00267109 -0.03476186
v -0.00227529 -0.00271840 -0.03001468
v -0.00209129 -0.00267622 -0.02555875
v -0.00070563 -0.00294807 -0.02288168
v 0.00024615 -0.00456467 -0.02094156
v 0.00022510 -0.00583070 -0.01601175
v -0.00006135 -0.00596062 -0.01073513
v 0.00001633 -0.00583247 -0.00599698
v 0.00039106 -0.00608453 -0.00224646
v 0.00040939 -0.00569463 0.05319017
v -0.00103924 -0.00501384 0.05810271
v 0.00011365 -0.00256986 0.06062432
v -0.00009945 0.00183881 -0.05460104
v -0.00033906 -0.00135259 -0.04218702
v 0.00005027 -0.00120211 -0.03847771
v -0.00002161 -0.00135542 -0.03373020
v -0.00002434 -0.00130635 -0.02902686
v 0.00031349 -0.00152115 -0.02526310
v 0.00073863 0.00110946 0.06114987
v 0.00080587 0.00688223 -0.05418172
v -0.00196506 0.00633990 -0.03257463
v -0.00055798 0.00662443 -0.03530330
v 0.00035277 0.00519980 -0.03298093
v 0.00025587 0.00468496 -0.02858254
v -0.00297981 0.00607780 -0.02892125
v 0.00070832 0.00373807 -0.02386502
v -0.00070986 0.00374237 -0.02064624
v -0.00023050 0.00471530 -0.01601648
v -0.00243180 0.00639301 -0.01419337
v 0.00009340 0.00495311 -0.01073546
v -0.00215455 0.00630172 -0.00976909
v 0.00003603 0.00482871 -0.00601194
v -0.00233558 0.00623757 -0.00500743
v -0.00035175 0.00507765 -0.00226020
v -0.00170302 0.00664137 -0.00100299
v 0.00061675 0.00663823 0.00011995
v -0.00309993 0.00698387 0.01160773
v -0.00286673 0.00720659 0.05784745
v -0.00053812 0.00527072 0.06005731
v -0.00085810 0.00886592 -0.05184392
v 0.00012185 0.00918977 -0.04743859
v 0.00004976 0.00867828 -0.04300006
v -0.00017982 0.00835599 -0.03781281
v 0.00018372 0.00859833 0.00257907
v -0.00064107 0.00912854 0.00707246
v -0.00003111 0.00835888 0.01212370
v 0.00051783 0.00893845 0.01736307
v -0.00008320 0.00890392 0.02137457
v -0.00002382 0.00884905 0.02603707
v 0.00004024 0.00889401 0.03067850
v 0.00004888 0.00894915 0.03523991
v 0.00003430 0.00897387 0.03980933
v 0.00007683 0.00904736 0.04433497
v 0.00002324 0.00917966 0.04891037
v -0.00065374 0.00924316 0.05295493
v 0.00052595 0.00828427 0.05700849
v 0.00509366 -0.01375724 0.04103331
v 0.00354744 -0.01211889 0.03789919
v 0.00368718 -0.01396346 0.04416325
v 0.00495427 -0.01132571 0.04597676
v 0.00587480 -0.00978995 -0.05174540
v 0.00372871 -0.00730785 -0.05415046
v 0.00351031 -0.00965525 -0.04806659
v 0.00507611 -0.00725080 -0.04526891
v 0.00246033 -0.00738595 -0.01433823
v 0.00602100 -0.00928427 -0.01525166
v 0.00430244 -0.00716976 -0.01731316
v 0.00220704 -0.00729364 -0.00990622
v 0.00517536 -0.00952800 -0.01120669
v 0.00236653 -0.00724642 -0.00510701
v 0.00523566 -0.00942829 -0.00646118
v 0.00172935 -0.00763750 -0.00105534
v 0.00419517 -0.00936735 -0.00160035
v 0.00526689 -0.00952936 0.00303757
v 0.00416303 -0.00950609 0.00784951
v 0.00414932 -0.00949791 0.01248652
v 0.00414635 -0.00944076 0.01701942
v 0.00413813 -0.00935427 0.02158396
v 0.00416299 -0.00918707 0.02612358
v 0.00416411 -0.00910199 0.03070207
v 0.00421617 -0.00990113 0.03503041
v 0.00203805 -0.00806889 0.04875169
v 0.00485618 -0.00803706 0.04682760
v 0.00470702 -0.00306348 -0.05465332
v 0.00421653 -0.00480501 -0.04320041
v 0.00197845 -0.00251880 -0.04190498
v 0.00224036 -0.00262748 -0.03749803
v 0.00498802 -0.00425672 -0.03908668
v 0.00221635 -0.00270458 -0.03282855
v 0.00526593 -0.00443391 -0.03371286
v 0.00231476 -0.00263578 -0.02808126
v 0.00523609 -0.00479452 -0.02937668
v 0.00165683 -0.00289997 -0.02404972
v 0.00479788 -0.00470224 -0.02418503
v 0.00477644 -0.00572307 -0.01957782
v 0.00461082 -0.00590977 0.04946247
v 0.00554673 -0.00488914 0.05377853
v 0.00358955 -0.00464584 0.05812890
v 0.00440604 -0.00165435 0.06026996
v 0.00450171 0.00180484 -0.05458313
v 0.00379751 0.00272303 0.06019047
v 0.00494504 0.00605594 -0.05468854
v 0.00169269 0.00664286 -0.03418341
v 0.00261142 0.00634947 -0.03046480
v 0.00433355 0.00609254 -0.02729311
v 0.00519047 0.00447555 -0.02436461
v 0.00347117 0.00437082 -0.01965424
v 0.00291773 0.00610871 -0.01563978
v 0.00604884 0.00661828 -0.01732978
v 0.00222851 0.00638141 -0.01180101
v 0.00231453 0.00629228 -0.00708651
v 0.00202523 0.00624182 -0.00262330
v 0.00306489 0.00689222 0.01269571
v 0.00416717 0.00637151 0.01041516
v 0.00538196 0.00446683 0.01291663
v 0.00495152 0.00615969 0.01471748
v 0.00287650 0.00613474 0.05891773
v 0.00429783 0.00718307 0.05648938
v 0.00529644 0.00469945 0.05789178
v 0.00196120 0.01077631 -0.05227944
v 0.00503722 0.01061291 -0.05403983
v 0.00238542 0.01131230 -0.04885266
v 0.00428170 0.01089725 -0.04570098
v 0.00518282 0.00924586 -0.04274131
v 0.00479168 0.00887910 -0.03811903
v 0.00481574 0.00849877 -0.03301022
v 0.00575764 0.00801466 -0.02877159
v 0.00514345 0.00825276 -0.01394942
v 0.00519226 0.00852533 -0.00954351
v 0.00521543 0.00844778 -0.00482328
v 0.00386911 0.00840222 -0.00045902
v 0.00552033 0.00861547 0.00227745
v 0.00367004 0.00840397 0.00694033
v 0.00400828 0.00821648 0.01649634
v 0.00464622 0.00900661 0.02139369
v 0.00472725 0.00895783 0.02611126
v 0.00408978 0.00890010 0.03014975
v 0.00498135 0.00846014 0.03416079
v 0.00417937 0.00838274 0.03878940
v 0.00419249 0.00845933 0.04333920
v 0.00428289 0.00855331 0.04793643
v 0.00386727 0.00849094 0.05297644
v 0.00499207 0.01315216 -0.05088386
v 0.00558786 0.01283767 -0.04740043
v 0.00652646 -0.01079070 0.03966467
v 0.00637509 -0.01242721 0.04369255
v 0.01048997 -0.00985534 -0.05170404
v 0.00838871 -0.00737669 -0.05418400
v 0.00820640 -0.00978754 -0.04805941
v 0.01047472 -0.00721413 -0.04511332
v 0.00944339 -0.00929005 -0.01461437
v 0.00808704 -0.00775091 -0.01770161
v 0.00883124 -0.00979730 -0.01094217
v 0.00882580 -0.00972491 -0.00631782
v 0.00801013 -0.00943632 -0.00145515
v 0.00773293 -0.00807305 0.00265121
v 0.00980419 -0.00702908 0.00105493
v 0.00697111 -0.00724460 0.00729372
v 0.00628777 -0.00768222 0.01182040
v 0.00694062 -0.00690122 0.01584241
v 0.00698179 -0.00753497 0.02047702
v 0.00699269 -0.00746002 0.02506512
v 0.00700695 -0.00740821 0.02956482
v 0.00704852 -0.00789468 0.03470215
v 0.00778025 -0.00749577 0.03908757
v 0.00723833 -0.00848827 0.04352323
v 0.00938946 -0.00305212 -0.05470467
v 0.00785199 -0.00514461 -0.04239628
v 0.00752560 -0.00330875 -0.03880664
v 0.00957748 -0.00227864 -0.04049899
v 0.00716135 -0.00304765 -0.03517941
v 0.00862559 -0.00350378 -0.03176109
v 0.00887284 -0.00477368 -0.02895499
v 0.00901377 -0.00503217 -0.02472932
v 0.00901674 -0.00571907 -0.02042394
v 0.00941137 -0.00555649 0.00442255
v 0.00899728 -0.00456038 0.00816472
v 0.00769979 -0.00355201 0.01220555
v 0.00934652 -0.00143369 0.00999842
v 0.00906158 -0.00323002 0.01492015
v 0.01011085 -0.00524623 0.01774688
v 0.00973493 -0.00576928 0.02249898
v 0.00924715 -0.00580209 0.02669764
v 0.00974302 -0.00523569 0.03098722
v 0.00935306 -0.00517802 0.03613479
v 0.00953612 -0.00509881 0.04073337
v 0.00886833 -0.00515333 0.04546416
v 0.00851440 -0.00445004 0.04980468
v 0.00760356 -0.00254358 0.05403570
v 0.00959702 -0.00155778 0.05112671
v 0.00639091 -0.00320623 0.05759993
v 0.00921926 0.00183956 -0.05471835
v 0.00932455 -0.00078917 -0.03708158
v 0.00965308 -0.00127802 -0.03339059
v 0.00707398 0.00211925 0.01147264
v 0.00901781 0.00225651 0.00962450
v 0.00935397 0.00118517 0.01429121
v 0.00779635 0.00180996 0.05326059
v 0.00920762 0.00226612 0.05085369
v 0.00660419 0.00097895 0.05754723
v 0.00913102 0.00669600 -0.05485249
v 0.00815372 0.00667804 -0.02673752
v 0.00962597 0.00450445 -0.02461756
v 0.00859850 0.00412399 -0.02077842
v 0.00950879 0.00604113 -0.01764014
v 0.00731402 0.00676791 0.00447845
v 0.00909068 0.00650262 0.00138518
v 0.00932516 0.00482459 0.00354898
v 0.00938483 0.00400657 0.00652945
v 0.00690712 0.00557561 0.00832152
v 0.00811796 0.00474476 0.01597098
v 0.00707041 0.00687769 0.01743814
v 0.01051850 0.00672362 0.01890774
v 0.00731032 0.00656194 0.03664502
v 0.00908347 0.00629764 0.03354540
v 0.00931379 0.00461056 0.03559092
v 0.00936302 0.00416376 0.03875413
v 0.00705321 0.00661128 0.04102176
v 0.00947101 0.00430188 0.04349155
v 0.00716221 0.00674596 0.04566785
v 0.00952465 0.00407420 0.04790367
v 0.00719500 0.00602598 0.05035298
v 0.00643880 0.00555465 0.05461920
v 0.01003954 0.01045252 -0.05404078
v 0.00842229 0.01084473 -0.04499337
v 0.00902133 0.00886920 -0.04225294
v 0.00895218 0.00836875 -0.03915072
v 0.00900269 0.00860507 -0.03448382
v 0.00904378 0.00840545 -0.03007121
v 0.00839980 0.00823686 -0.01537992
v 0.00878826 0.00875681 -0.01186617
v 0.00886078 0.00878009 -0.00720174
v 0.00843073 0.00849937 -0.00212122
v 0.00844097 0.00847224 0.02061643
v 0.00962524 0.00862073 0.02488388
v 0.00847767 0.00829247 0.03007230
v 0.00816943 0.01307900 -0.05239061
v 0.00873954 0.01314448 -0.04885526
v 0.01408826 -0.00938706 -0.05129435
v 0.01348250 -0.00695053 -0.05408081
v 0.01261249 -0.00958026 -0.04798004
v 0.01487731 -0.00680588 -0.04573896
v 0.01111279 -0.00643787 -0.01573630
v 0.01116549 -0.00737466 -0.01080899
v 0.01119378 -0.00734995 -0.00613277
v 0.01099052 -0.00722672 -0.00176985
v 0.01350716 -0.00238229 -0.05481661
v 0.01108518 -0.00280217 -0.04278818
v 0.01349035 -0.00311419 -0.04448194
v 0.01118981 -0.00162147 -0.02934881
v 0.01142206 -0.00263118 -0.02454307
v 0.01149090 -0.00310618 -0.01961148
v 0.01179292 -0.00231857 -0.01480773
v 0.01169731 -0.00370711 -0.01150077
v 0.01219697 -0.00278259 -0.00737166
v 0.01230324 -0.00298920 -0.00189753
v 0.01136660 -0.00318940 0.00296295
v 0.01075568 -0.00289072 0.00692561
v 0.01489823 -0.00491904 0.01730946
v 0.01255761 -0.00233966 0.01501237
v 0.01315114 -0.00539872 0.02067577
v 0.01304621 -0.00472695 0.02576224
v 0.01221527 -0.00270158 0.03083148
v 0.01435743 -0.00245347 0.02875952
v 0.01111973 -0.00237078 0.03508632
v 0.01127033 -0.00222237 0.03974253
v 0.01146813 -0.00222546 0.04435219
v 0.01101931 -0.00290117 0.04796548
v 0.01433960 0.00160040 -0.05435081
v 0.01227569 0.00176181 -0.04234893
v 0.01449656 0.00224202 -0.04496374
v 0.01129943 0.00170967 -0.03866966
v 0.01142136 0.00195992 -0.03323512
v 0.01204628 0.00184663 -0.02907202
v 0.01157494 0.00172041 -0.02489686
v 0.01149692 0.00198624 -0.01970302
v 0.01186891 0.00191694 -0.01538760
v 0.01213225 0.00173972 -0.01023261
v 0.01372308 0.00128532 -0.00761477
v 0.01413474 -0.00030558 -0.00476533
v 0.01384357 0.00006694 -0.00100292
v 0.01158180 0.00205306 0.00256513
v 0.01387934 0.00252442 0.00001546
v 0.01094465 0.00046731 0.00741412
v 0.01441211 0.00135532 0.01411567
v 0.01370615 -0.00031957 0.03145654
v 0.01149717 0.00197720 0.03452873
v 0.01369114 0.00247017 0.03213717
v 0.01120090 0.00125604 0.03980795
v 0.01138069 0.00135412 0.04454603
v 0.01114419 0.00045258 0.04860146
v 0.01347846 0.00640587 -0.05398700
v 0.01157731 0.00700667 -0.04286845
v 0.01378773 0.00693036 -0.04571963
v 0.01130639 0.00612418 -0.03817765
v 0.01139098 0.00629447 -0.03356361
v 0.01131154 0.00527933 -0.02866256
v 0.01100591 0.00627345 -0.01513635
v 0.01124253 0.00637068 -0.01079288
v 0.01379828 0.00377128 -0.00655577
v 0.01179077 0.00641028 -0.00562922
v 0.01423850 0.00406902 -0.00282172
v 0.01179928 0.00564691 -0.00078131
v 0.01367692 0.00439240 0.01683121
v 0.01423280 0.00645889 0.01986625
v 0.01201675 0.00669901 0.02743819
v 0.01374668 0.00643502 0.02426418
v 0.01402460 0.00474073 0.02643504
v 0.01402707 0.00392799 0.02938897
v 0.01171180 0.00552664 0.03132692
v 0.01346066 0.00911083 -0.05242828
v 0.01146787 0.01160359 -0.05097941
v 0.01414094 0.00875012 -0.04889772
v 0.01177993 0.01035559 -0.04685635
v 0.01260067 0.00798567 0.02168649
v 0.01660426 -0.00721875 -0.05238279
v 0.01622653 -0.00792584 -0.04879142
v 0.01906391 -0.00510549 -0.05076577
v 0.01757142 -0.00349093 -0.05384011
v 0.01827491 -0.00541995 -0.04721927
v 0.01738171 -0.00254660 -0.04582158
v 0.01927811 -0.00509891 0.01607117
v 0.01689000 -0.00226854 0.01416022
v 0.01771482 -0.00498650 0.02128176
v 0.01632731 -0.00256164 0.02616813
v 0.01866242 -0.00172594 0.02372609
v 0.01836879 -0.00054078 -0.05236834
v 0.01654431 0.00279005 -0.05126845
v 0.01900341 -0.00079479 -0.04883333
v 0.01682779 0.00143845 -0.04728957
v 0.01516744 0.00224417 -0.00526193
v 0.01522207 0.00149469 -0.00240442
v 0.01692990 0.00127208 0.01229053
v 0.01817302 -0.00047312 0.01198333
v 0.01894965 0.00173516 0.01016521
v 0.01614887 0.00221040 0.02591685
v 0.01831398 0.00217768 0.02329349
v 0.01526853 0.00054393 0.02973399
v 0.01541816 0.00661667 -0.05133905
v 0.01560904 0.00515288 -0.04794568
v 0.01844720 0.00389958 0.01292098
v 0.01832858 0.00452832 0.01692204
v 0.01850992 0.00420003 0.02019840
v 0.01600159 0.00561393 0.02231416
v 0.02013400 -0.00258256 -0.05124207
v 0.02005114 -0.00325754 -0.04829192
v 0.02004783 -0.00226654 0.01180734
v 0.02348460 -0.00496231 0.01204522
v 0.02244166 -0.00239560 0.00941192
v 0.02267116 -0.00497254 0.01724518
v 0.02089278 -0.00320954 0.02106977
v 0.02322325 -0.00167090 0.01918039
v 0.02119879 0.00083799 0.00808501
v 0.02336926 -0.00088648 0.00703049
v 0.02406466 0.00174965 0.00604524
v 0.02066047 0.00039522 0.02174044
v 0.02255284 0.00195091 0.01945822
v 0.02250394 0.00385063 0.00868676
v 0.02290372 0.00468257 0.01206274
v 0.02289689 0.00391743 0.01613700
v 0.02484487 -0.00347683 0.00815762
v 0.02808442 -0.00495071 0.00738511
v 0.02671889 -0.00153317 0.00532611
v 0.02724510 -0.00495403 0.01259368
v 0.02548502 -0.00310531 0.01639617
v 0.02777158 -0.00163785 0.01447297
v 0.02772106 0.00201823 0.00475995
v 0.02526720 0.00055227 0.01711978
v 0.02713839 0.00201335 0.01474845
v 0.02750739 0.00393532 0.00691051
v 0.02746785 0.00390192 0.01139671
v 0.03049896 -0.00283583 -0.00531268
v 0.03324882 -0.00481841 -0.00620860
v 0.03280751 -0.00197084 -0.00801557
v 0.03014903 -0.00256030 -0.00081339
v 0.03244916 -0.00503996 -0.00188820
v 0.02945516 -0.00308951 0.00316439
v 0.03161542 -0.00505469 0.00291752
v 0.03186385 -0.00494419 0.00791649
v 0.03004412 -0.00312367 0.01175913
v 0.03313483 -0.00158790 0.00995491
v 0.03136875 -0.00028858 -0.00600718
v 0.03216147 0.00262467 -0.00377476
v 0.03031382 0.00064576 -0.00271242
v 0.02966958 0.00087990 0.00194287
v 0.02983302 0.00052110 0.01243428
v 0.03215562 0.00198483 0.01050643
v 0.03203121 0.00413985 -0.00021012
v 0.03224430 0.00449819 0.00439257
v 0.03245264 0.00391538 0.00833716
v 0.03797505 -0.00519887 -0.00610408
v 0.03596349 -0.00322204 -0.00856563
v 0.03607722 -0.00575393 -0.00254169
v 0.03606659 -0.00505595 0.00284554
v 0.03508682 -0.00348229 0.00723142
v 0.03745087 -0.00246802 0.00596428
v 0.03363194 0.00224583 -0.00636141
v 0.03669504 0.00133621 -0.00871647
v 0.03645848 -0.00095775 0.00828250
v 0.03578428 0.00169185 0.00915226
v 0.03530171 0.00589054 -0.00666458
v 0.03792152 0.00581978 -0.00797060
v 0.03427812 0.00626397 -0.00288143
v 0.03476234 0.00703555 0.00181260
v 0.03635400 0.00668334 0.00465864
v 0.03657789 0.00447238 0.00688484
v 0.03631018 0.00813809 -0.00552363
v 0.03671017 0.00836281 -0.00163853
v 0.03723207 0.00805688 0.00227651
v 0.04194703 -0.00466459 -0.00551888
v 0.04030213 -0.00260616 -0.00829976
v 0.04033387 -0.00500730 -0.00135852
v 0.03946957 -0.00252331 0.00330616
v 0.04182074 -0.00173810 0.00069362
v 0.04118687 0.00161447 -0.00825461
v 0.03995539 0.00192101 0.00283657
v 0.04141316 0.00223239 0.00024961
v 0.03852158 0.00136677 0.00657205
v 0.04102990 0.00451070 -0.00668354
v 0.03883231 0.00709905 -0.00511313
v 0.04168055 0.00412724 -0.00306546
v 0.03924472 0.00622945 -0.00026238
v 0.03855241 0.00574127 0.00417882
v 0.04349288 -0.00174531 -0.00591577
v 0.04332451 -0.00329968 -0.00257093
v 0.04324512 0.00184239 -0.00548945
v 0.04342831 0.00026630 -0.00208894
f 3 2 1
f 5 4 1
f 5 1 2
f 7 6 4
f 7 4 5
f 8 6 7
f 3 1 9
f 3 9 10
f 11 1 4
f 9 1 11
f 12 4 6
f 11 4 12
f 6 8 13
f 6 13 12
f 10 9 14
f 10 14 15
f 16 9 11
f 14 9 16
f 17 11 12
f 16 11 17
f 12 13 18
f 12 18 17
f 19 15 14
f 19 14 16
f 19 16 20
f 20 16 17
f 20 17 21
f 21 17 18
f 23 22 2
f 23 2 3
f 2 24 5
f 22 24 2
f 5 25 7
f 24 25 5
f 27 26 8
f 7 27 8
f 25 27 7
f 28 26 27
f 10 30 29
f 23 10 29
f 3 10 23
f 30 31 29
f 32 13 26
f 26 13 8
f 26 28 33
f 26 33 32
f 15 34 30
f 15 30 10
f 31 30 35
f 30 36 35
f 30 34 36
f 36 37 35
f 39 38 32
f 38 13 32
f 38 18 13
f 39 32 33
f 19 34 15
f 34 19 20
f 34 20 36
f 40 37 36
f 20 40 36
f 21 40 20
f 21 18 38
f 21 38 40
f 23 41 22
f 42 24 22
f 42 22 41
f 24 42 43
f 44 24 43
f 25 24 44
f 44 46 45
f 27 44 45
f 25 44 27
f 28 27 45
f 49 48 47
f 50 49 47
f 29 41 23
f 41 29 31
f 51 41 31
f 42 41 51
f 43 42 52
f 52 42 51
f 46 53 45
f 28 45 33
f 53 33 45
f 33 53 54
f 48 54 53
f 54 48 49
f 49 50 55
f 49 55 54
f 35 51 31
f 57 56 37
f 37 56 35
f 56 52 35
f 52 51 35
f 38 39 57
f 39 56 57
f 39 58 56
f 39 33 54
f 59 39 54
f 58 39 59
f 59 54 55
f 40 57 37
f 57 40 38
f 43 60 44
f 60 46 44
f 62 61 47
f 62 47 48
f 64 63 50
f 47 64 50
f 61 64 47
f 65 63 64
f 52 66 60
f 52 60 43
f 60 66 46
f 66 67 46
f 67 53 46
f 66 68 67
f 48 53 62
f 62 53 67
f 69 55 63
f 63 55 50
f 63 65 70
f 63 70 69
f 56 66 52
f 71 68 66
f 56 71 66
f 58 71 56
f 73 71 72
f 71 59 72
f 71 58 59
f 55 69 59
f 69 72 59
f 69 74 72
f 69 70 75
f 69 75 74
f 76 73 72
f 76 72 74
f 76 74 77
f 77 74 75
f 80 79 78
f 82 81 78
f 82 78 79
f 83 81 82
f 62 84 61
f 61 84 85
f 86 61 85
f 64 61 86
f 88 87 65
f 64 88 65
f 86 88 64
f 89 87 88
f 90 80 78
f 90 78 81
f 90 81 91
f 91 81 83
f 68 92 67
f 92 93 67
f 67 93 62
f 93 94 62
f 94 84 62
f 84 94 85
f 95 70 87
f 87 70 65
f 87 89 96
f 87 96 95
f 71 92 68
f 98 97 73
f 73 97 71
f 97 93 71
f 93 92 71
f 98 99 97
f 100 75 95
f 95 75 70
f 95 96 101
f 95 101 100
f 76 98 73
f 102 99 98
f 76 102 98
f 77 102 76
f 77 75 100
f 103 77 100
f 102 77 103
f 103 100 101
f 106 105 104
f 108 107 104
f 108 104 105
f 109 107 108
f 106 104 79
f 80 106 79
f 110 106 80
f 79 104 82
f 82 104 107
f 83 82 107
f 109 83 107
f 111 83 109
f 85 112 86
f 86 112 113
f 114 86 113
f 88 86 114
f 89 88 114
f 89 114 115
f 80 90 116
f 117 80 116
f 110 80 117
f 91 118 90
f 90 118 116
f 119 118 91
f 83 119 91
f 111 119 83
f 93 120 94
f 120 121 94
f 94 121 85
f 121 122 85
f 122 112 85
f 112 122 113
f 124 96 123
f 96 115 123
f 96 89 115
f 126 125 124
f 126 124 123
f 127 125 126
f 117 116 128
f 117 128 129
f 130 116 118
f 128 116 130
f 118 119 131
f 118 131 130
f 97 120 93
f 133 132 99
f 99 132 97
f 132 121 97
f 121 120 97
f 133 134 132
f 136 135 124
f 135 96 124
f 135 101 96
f 136 124 125
f 136 125 137
f 137 125 127
f 138 129 128
f 138 128 130
f 138 130 139
f 139 130 131
f 102 133 99
f 140 134 133
f 102 140 133
f 103 140 102
f 103 101 135
f 103 135 140
f 143 142 141
f 145 144 141
f 145 141 142
f 147 146 144
f 147 144 145
f 149 148 146
f 149 146 147
f 150 148 149
f 152 151 105
f 152 105 106
f 105 153 108
f 151 153 105
f 109 108 153
f 109 153 154
f 157 156 155
f 159 158 155
f 159 155 156
f 161 160 158
f 161 158 159
f 163 162 160
f 163 160 161
f 164 162 163
f 167 166 165
f 143 141 168
f 166 169 165
f 171 170 168
f 141 171 168
f 144 171 141
f 146 173 172
f 171 146 172
f 144 146 171
f 173 146 148
f 173 148 174
f 174 148 150
f 110 152 106
f 110 175 152
f 177 111 176
f 111 154 176
f 111 109 154
f 178 177 176
f 181 180 179
f 183 182 179
f 183 179 180
f 182 183 157
f 155 182 157
f 184 182 155
f 185 155 158
f 184 155 185
f 186 158 160
f 185 158 186
f 187 160 162
f 186 160 187
f 162 164 188
f 189 162 188
f 187 162 189
f 191 190 189
f 191 189 188
f 192 190 191
f 195 194 193
f 114 113 193
f 194 114 193
f 196 114 194
f 165 197 115
f 196 165 115
f 114 196 115
f 167 165 196
f 165 169 198
f 199 165 198
f 197 165 199
f 199 198 170
f 171 199 170
f 200 199 171
f 171 172 201
f 202 171 201
f 200 171 202
f 204 203 202
f 204 202 201
f 206 205 203
f 206 203 204
f 207 205 206
f 117 175 110
f 117 208 175
f 209 119 177
f 177 119 111
f 177 178 210
f 211 177 210
f 209 177 211
f 213 212 211
f 213 211 210
f 215 214 212
f 215 212 213
f 214 215 181
f 179 214 181
f 216 214 179
f 217 179 182
f 216 179 217
f 218 182 184
f 217 182 218
f 219 184 185
f 218 184 219
f 220 185 186
f 219 185 220
f 221 186 187
f 220 186 221
f 222 187 189
f 221 187 222
f 223 189 190
f 222 189 223
f 190 192 224
f 190 224 223
f 195 193 122
f 121 195 122
f 225 195 121
f 122 193 113
f 197 123 115
f 123 197 126
f 126 197 199
f 126 199 127
f 199 226 127
f 199 200 226
f 227 200 202
f 226 200 227
f 228 202 203
f 227 202 228
f 229 203 205
f 228 203 229
f 205 207 230
f 205 230 229
f 129 208 117
f 129 231 208
f 232 131 209
f 209 131 119
f 233 209 211
f 232 209 233
f 234 211 212
f 233 211 234
f 235 212 214
f 234 212 235
f 216 237 236
f 235 216 236
f 214 216 235
f 237 216 217
f 237 217 238
f 240 239 238
f 217 240 238
f 218 240 217
f 241 218 219
f 240 218 241
f 242 219 220
f 241 219 242
f 243 220 221
f 242 220 243
f 222 245 244
f 243 222 244
f 221 222 243
f 245 222 223
f 245 223 246
f 246 223 224
f 247 225 121
f 247 121 132
f 132 134 247
f 247 134 248
f 249 135 136
f 137 250 136
f 136 250 249
f 251 250 137
f 251 137 127
f 252 251 127
f 226 252 127
f 252 226 227
f 252 227 253
f 253 227 228
f 253 228 254
f 254 228 229
f 254 229 255
f 255 229 230
f 129 138 256
f 257 129 256
f 231 129 257
f 139 258 138
f 138 258 256
f 259 258 139
f 259 139 131
f 260 259 131
f 232 260 131
f 260 232 233
f 260 233 261
f 261 233 234
f 261 234 262
f 262 234 235
f 262 235 263
f 263 235 236
f 264 239 240
f 264 240 241
f 264 241 265
f 265 241 242
f 265 242 266
f 266 242 243
f 266 243 267
f 267 243 244
f 268 248 134
f 268 134 140
f 140 135 249
f 269 140 249
f 268 140 269
f 269 249 250
f 269 250 270
f 270 250 251
f 271 257 256
f 271 256 258
f 271 258 272
f 272 258 259
f 275 274 273
f 142 143 273
f 274 142 273
f 276 142 274
f 142 277 145
f 276 277 142
f 145 278 147
f 277 278 145
f 147 279 149
f 278 279 147
f 150 149 279
f 150 279 280
f 282 281 151
f 282 151 152
f 151 283 153
f 281 283 151
f 154 153 283
f 154 283 284
f 286 285 156
f 286 156 157
f 156 287 159
f 285 287 156
f 159 288 161
f 287 288 159
f 161 289 163
f 288 289 161
f 291 290 164
f 163 291 164
f 289 291 163
f 293 292 290
f 293 290 291
f 295 294 292
f 295 292 293
f 297 296 294
f 297 294 295
f 299 298 296
f 299 296 297
f 298 299 275
f 298 275 273
f 167 298 273
f 166 167 273
f 169 166 300
f 166 273 300
f 143 168 300
f 143 300 273
f 170 300 168
f 301 172 173
f 174 302 173
f 173 302 301
f 303 302 174
f 150 303 174
f 280 303 150
f 175 282 152
f 175 304 282
f 284 305 154
f 154 305 176
f 307 306 178
f 176 307 178
f 305 307 176
f 309 308 306
f 309 306 307
f 311 310 308
f 311 308 309
f 180 181 310
f 311 180 310
f 312 180 311
f 180 313 183
f 312 313 180
f 157 183 286
f 286 183 313
f 290 188 164
f 188 290 191
f 191 290 292
f 191 292 192
f 292 314 192
f 292 294 314
f 195 314 194
f 314 296 194
f 314 294 296
f 194 296 196
f 196 296 298
f 196 298 167
f 300 198 169
f 198 300 170
f 301 201 172
f 201 301 204
f 204 301 302
f 303 315 302
f 315 204 302
f 315 206 204
f 317 316 207
f 206 317 207
f 315 317 206
f 319 318 316
f 319 316 317
f 320 318 319
f 208 304 175
f 208 321 304
f 306 210 178
f 210 306 213
f 213 306 308
f 213 308 215
f 215 308 310
f 215 310 181
f 322 224 314
f 314 224 192
f 225 322 195
f 195 322 314
f 323 230 316
f 316 230 207
f 324 316 318
f 323 316 324
f 318 320 325
f 318 325 324
f 231 321 208
f 231 326 321
f 328 327 237
f 237 327 236
f 329 237 238
f 329 328 237
f 238 239 329
f 329 239 330
f 331 244 245
f 246 332 245
f 245 332 331
f 333 332 246
f 333 246 224
f 334 333 224
f 322 334 224
f 336 334 335
f 335 334 247
f 334 322 247
f 322 225 247
f 248 335 247
f 337 251 252
f 253 338 252
f 252 338 337
f 254 339 253
f 253 339 338
f 255 340 254
f 254 340 339
f 230 323 255
f 323 340 255
f 323 341 340
f 324 343 342
f 341 324 342
f 323 324 341
f 343 324 325
f 257 345 344
f 326 257 344
f 231 257 326
f 347 346 345
f 345 346 344
f 259 260 347
f 260 346 347
f 260 348 346
f 349 260 261
f 349 348 260
f 350 261 262
f 350 349 261
f 351 262 263
f 351 350 262
f 263 236 327
f 263 327 351
f 352 330 239
f 352 239 264
f 353 264 265
f 353 352 264
f 354 265 266
f 354 353 265
f 355 266 267
f 355 354 266
f 267 244 331
f 356 267 331
f 355 267 356
f 356 331 332
f 356 332 357
f 357 332 333
f 358 336 335
f 358 335 248
f 268 358 248
f 359 358 268
f 360 268 269
f 360 359 268
f 361 269 270
f 361 360 269
f 270 251 337
f 362 270 337
f 361 270 362
f 362 337 338
f 362 338 363
f 363 338 339
f 363 339 364
f 364 339 340
f 364 340 365
f 365 340 341
f 365 341 366
f 366 341 342
f 271 345 257
f 345 271 272
f 345 272 347
f 347 272 259
f 275 367 274
f 368 276 274
f 368 274 367
f 369 277 276
f 369 276 368
f 277 369 370
f 371 277 370
f 278 277 371
f 278 372 279
f 371 372 278
f 280 279 372
f 280 372 373
f 375 374 281
f 375 281 282
f 281 376 283
f 374 376 281
f 284 283 376
f 284 376 377
f 286 378 285
f 379 287 285
f 379 285 378
f 380 288 287
f 380 287 379
f 381 289 288
f 381 288 380
f 289 381 382
f 383 289 382
f 291 289 383
f 291 384 293
f 383 384 291
f 293 385 295
f 384 385 293
f 295 386 297
f 385 386 295
f 297 387 299
f 386 387 297
f 275 299 367
f 299 388 367
f 299 387 388
f 367 388 368
f 368 388 389
f 368 389 369
f 369 389 390
f 369 390 370
f 392 303 391
f 303 373 391
f 303 280 373
f 393 392 391
f 304 375 282
f 304 394 375
f 305 284 395
f 284 396 395
f 284 377 396
f 397 307 305
f 397 305 395
f 398 309 307
f 398 307 397
f 399 311 309
f 399 309 398
f 400 312 311
f 400 311 399
f 312 400 401
f 402 312 401
f 313 312 402
f 286 313 378
f 313 403 378
f 313 402 403
f 378 403 379
f 379 403 404
f 379 404 380
f 380 404 405
f 380 405 381
f 381 405 406
f 381 406 382
f 392 315 303
f 393 407 392
f 407 315 392
f 407 317 315
f 317 408 319
f 407 408 317
f 320 319 408
f 320 408 409
f 321 394 304
f 321 410 394
f 396 411 395
f 395 411 397
f 397 411 412
f 397 412 398
f 398 412 413
f 398 413 399
f 399 413 414
f 399 414 400
f 400 414 415
f 400 415 401
f 409 325 320
f 416 325 409
f 326 410 321
f 326 417 410
f 420 419 418
f 422 421 418
f 418 421 420
f 327 328 422
f 328 421 422
f 328 423 421
f 424 328 329
f 424 423 328
f 426 425 330
f 425 329 330
f 425 424 329
f 428 427 426
f 426 427 425
f 430 429 428
f 428 429 427
f 432 431 430
f 430 431 429
f 432 433 431
f 434 333 334
f 336 434 334
f 435 342 343
f 436 435 343
f 325 436 343
f 416 436 325
f 437 417 326
f 437 326 344
f 438 344 346
f 438 437 344
f 439 346 348
f 439 438 346
f 440 348 349
f 440 439 348
f 350 418 419
f 440 350 419
f 349 350 440
f 418 350 351
f 418 351 422
f 422 351 327
f 352 426 330
f 426 352 353
f 426 353 428
f 428 353 354
f 428 354 430
f 430 354 355
f 430 355 432
f 441 433 432
f 355 441 432
f 356 441 355
f 442 356 357
f 442 441 356
f 357 333 434
f 443 357 434
f 442 357 443
f 443 434 336
f 358 443 336
f 444 443 358
f 445 358 359
f 445 444 358
f 446 359 360
f 446 445 359
f 447 360 361
f 447 446 360
f 448 361 362
f 448 447 361
f 449 362 363
f 449 448 362
f 450 363 364
f 450 449 363
f 451 364 365
f 451 450 364
f 452 365 366
f 452 451 365
f 366 342 435
f 453 366 435
f 452 366 453
f 453 435 436
f 455 454 371
f 455 371 370
f 371 456 372
f 454 456 371
f 373 372 456
f 373 456 457
f 459 458 374
f 459 374 375
f 374 460 376
f 458 460 374
f 377 376 460
f 377 460 461
f 464 463 462
f 466 465 462
f 466 462 463
f 468 467 465
f 468 465 466
f 470 469 467
f 470 467 468
f 383 382 469
f 470 383 469
f 471 383 470
f 383 472 384
f 471 472 383
f 384 473 385
f 472 473 384
f 385 474 386
f 473 474 385
f 386 475 387
f 474 475 386
f 387 476 388
f 475 476 387
f 388 477 389
f 476 477 388
f 389 478 390
f 477 478 389
f 370 390 455
f 455 390 478
f 391 373 479
f 373 480 479
f 373 457 480
f 479 393 391
f 394 459 375
f 394 481 459
f 483 396 482
f 396 461 482
f 396 377 461
f 485 484 483
f 485 483 482
f 487 486 484
f 487 484 485
f 489 488 486
f 489 486 487
f 491 490 488
f 491 488 489
f 402 401 490
f 491 402 490
f 492 402 491
f 462 403 464
f 403 492 464
f 403 402 492
f 403 462 404
f 404 462 465
f 404 465 405
f 405 465 467
f 405 467 406
f 406 467 469
f 406 469 382
f 480 493 479
f 479 493 393
f 493 407 393
f 493 494 407
f 407 495 408
f 494 495 407
f 409 408 495
f 409 495 496
f 410 481 394
f 410 497 481
f 483 411 396
f 411 483 412
f 412 483 484
f 412 484 413
f 413 484 486
f 413 486 414
f 414 486 488
f 414 488 415
f 415 488 490
f 415 490 401
f 496 416 409
f 498 416 496
f 417 497 410
f 417 499 497
f 500 419 420
f 421 501 420
f 420 501 500
f 501 421 502
f 421 503 502
f 421 423 503
f 504 423 424
f 504 503 423
f 506 504 505
f 504 425 505
f 504 424 425
f 427 507 425
f 425 507 505
f 429 508 427
f 427 508 507
f 431 509 429
f 429 509 508
f 433 509 431
f 512 511 510
f 510 513 512
f 516 515 514
f 498 516 514
f 436 498 514
f 416 498 436
f 417 437 517
f 518 417 517
f 499 417 518
f 438 519 437
f 437 519 517
f 519 438 520
f 438 521 520
f 438 439 521
f 522 439 440
f 522 521 439
f 440 419 500
f 523 440 500
f 522 440 523
f 523 500 501
f 523 501 524
f 524 501 502
f 525 506 505
f 525 505 507
f 525 507 526
f 526 507 508
f 526 508 527
f 527 508 509
f 527 509 528
f 528 509 433
f 441 528 433
f 529 528 441
f 530 441 442
f 530 529 441
f 443 510 511
f 530 443 511
f 442 443 530
f 531 513 510
f 443 531 510
f 444 531 443
f 532 444 445
f 532 531 444
f 533 445 446
f 533 532 445
f 534 446 447
f 534 533 446
f 535 447 448
f 535 534 447
f 536 448 449
f 536 535 448
f 537 449 450
f 537 536 449
f 538 450 451
f 538 537 450
f 539 451 452
f 539 538 451
f 453 514 515
f 539 453 515
f 452 453 539
f 514 453 436
f 540 518 517
f 540 517 519
f 540 519 541
f 541 519 520
f 455 542 454
f 543 456 454
f 543 454 542
f 543 457 456
f 545 544 458
f 545 458 459
f 458 546 460
f 544 546 458
f 461 460 546
f 461 546 547
f 549 548 463
f 549 463 464
f 463 550 466
f 548 550 463
f 466 551 468
f 550 551 466
f 468 552 470
f 551 552 468
f 552 554 553
f 471 552 553
f 470 552 471
f 555 472 471
f 555 471 553
f 556 473 472
f 556 472 555
f 557 474 473
f 557 473 556
f 558 475 474
f 558 474 557
f 559 476 475
f 559 475 558
f 560 477 476
f 560 476 559
f 561 478 477
f 561 477 560
f 542 455 478
f 561 542 478
f 562 542 561
f 542 563 543
f 542 562 563
f 563 480 457
f 563 457 543
f 481 545 459
f 481 564 545
f 547 565 461
f 461 565 482
f 565 567 566
f 485 565 566
f 482 565 485
f 568 487 485
f 568 485 566
f 487 568 569
f 570 487 569
f 489 487 570
f 489 571 491
f 570 571 489
f 491 572 492
f 571 572 491
f 464 492 549
f 549 492 572
f 554 573 553
f 553 573 555
f 555 573 574
f 576 575 574
f 575 555 574
f 575 556 555
f 578 557 577
f 557 575 577
f 557 556 575
f 557 578 558
f 558 578 579
f 558 579 559
f 559 579 580
f 559 580 560
f 560 580 581
f 560 581 561
f 561 581 582
f 561 582 562
f 562 582 583
f 562 583 563
f 563 583 584
f 563 584 480
f 584 493 480
f 584 585 493
f 585 587 586
f 494 585 586
f 493 585 494
f 588 495 494
f 588 494 586
f 588 496 495
f 497 564 481
f 497 589 564
f 567 590 566
f 566 590 568
f 568 590 591
f 568 591 569
f 575 576 592
f 592 576 593
f 577 575 594
f 594 575 592
f 586 587 595
f 595 587 596
f 586 597 588
f 586 595 597
f 597 498 496
f 597 496 588
f 499 589 497
f 499 598 589
f 600 599 503
f 503 599 502
f 601 503 504
f 601 600 503
f 504 506 601
f 601 506 602
f 605 604 603
f 607 606 603
f 603 606 605
f 606 607 593
f 593 607 592
f 607 511 592
f 511 512 592
f 609 608 513
f 513 608 512
f 608 594 512
f 594 592 512
f 609 610 608
f 613 612 611
f 615 614 611
f 611 614 613
f 617 616 615
f 615 616 614
f 619 618 617
f 617 618 616
f 618 619 596
f 619 595 596
f 619 620 595
f 620 515 516
f 597 620 516
f 595 620 597
f 597 516 498
f 518 598 499
f 518 621 598
f 623 622 521
f 521 622 520
f 624 521 522
f 624 623 521
f 625 522 523
f 625 624 522
f 626 523 524
f 626 625 523
f 524 502 599
f 524 599 626
f 627 602 506
f 627 506 525
f 628 525 526
f 628 627 525
f 629 526 527
f 629 628 526
f 630 527 528
f 630 629 527
f 529 603 604
f 630 529 604
f 528 529 630
f 603 529 530
f 603 530 607
f 607 530 511
f 531 609 513
f 631 610 609
f 531 631 609
f 532 631 531
f 632 532 533
f 632 631 532
f 633 533 534
f 633 632 533
f 535 611 612
f 633 535 612
f 534 535 633
f 611 535 536
f 611 536 615
f 615 536 537
f 615 537 617
f 617 537 538
f 617 538 619
f 619 538 539
f 619 539 620
f 620 539 515
f 634 621 518
f 634 518 540
f 635 540 541
f 635 634 540
f 541 520 622
f 541 622 635
f 637 636 544
f 637 544 545
f 544 638 546
f 636 638 544
f 547 546 638
f 547 638 639
f 549 640 548
f 641 550 548
f 641 548 640
f 642 551 550
f 642 550 641
f 643 552 551
f 643 551 642
f 643 554 552
f 564 637 545
f 564 644 637
f 565 547 645
f 547 646 645
f 547 639 646
f 645 567 565
f 569 647 570
f 648 571 570
f 648 570 647
f 649 572 571
f 649 571 648
f 640 549 572
f 649 640 572
f 650 640 649
f 640 651 641
f 640 650 651
f 641 652 642
f 641 651 652
f 642 653 643
f 642 652 653
f 654 573 554
f 643 654 554
f 653 654 643
f 655 574 573
f 655 573 654
f 655 576 574
f 657 656 578
f 657 578 577
f 578 658 579
f 656 658 578
f 579 659 580
f 658 659 579
f 659 661 660
f 581 659 660
f 580 659 581
f 662 582 581
f 662 581 660
f 663 583 582
f 663 582 662
f 664 584 583
f 664 583 663
f 665 585 584
f 665 584 664
f 665 587 585
f 589 644 564
f 589 666 644
f 645 646 667
f 667 646 668
f 669 590 567
f 645 669 567
f 667 669 645
f 670 591 590
f 670 590 669
f 647 569 591
f 670 647 591
f 671 647 670
f 647 672 648
f 647 671 672
f 648 673 649
f 648 672 673
f 649 674 650
f 649 673 674
f 650 675 651
f 650 674 675
f 677 652 676
f 652 675 676
f 652 651 675
f 652 677 653
f 653 677 678
f 680 679 678
f 679 653 678
f 679 654 653
f 654 681 655
f 654 679 681
f 681 593 576
f 681 576 655
f 594 657 577
f 594 682 657
f 661 683 660
f 685 684 683
f 684 660 683
f 684 662 660
f 662 686 663
f 662 684 686
f 663 687 664
f 663 686 687
f 664 688 665
f 664 687 688
f 688 596 587
f 688 587 665
f 598 666 589
f 598 689 666
f 667 668 690
f 690 668 691
f 667 692 669
f 667 690 692
f 669 693 670
f 669 692 693
f 670 694 671
f 670 693 694
f 694 599 600
f 672 694 600
f 671 694 672
f 672 600 601
f 672 601 673
f 673 601 602
f 695 673 602
f 674 673 695
f 674 696 675
f 674 695 696
f 676 675 697
f 675 698 697
f 675 696 698
f 700 699 698
f 698 699 697
f 699 700 680
f 680 700 679
f 700 604 679
f 604 605 679
f 679 605 606
f 679 606 681
f 681 606 593
f 701 682 594
f 701 594 608
f 608 610 701
f 701 610 702
f 705 704 703
f 707 706 703
f 703 706 705
f 706 707 685
f 685 707 684
f 707 612 684
f 612 613 684
f 684 613 614
f 684 614 686
f 686 614 616
f 686 616 687
f 687 616 618
f 687 618 688
f 688 618 596
f 621 709 708
f 689 621 708
f 598 621 689
f 711 710 709
f 709 710 708
f 710 711 691
f 691 711 690
f 711 622 690
f 622 623 690
f 690 623 624
f 690 624 692
f 692 624 625
f 692 625 693
f 693 625 626
f 693 626 694
f 694 626 599
f 627 695 602
f 695 627 628
f 695 628 696
f 696 628 629
f 696 629 698
f 698 629 630
f 698 630 700
f 700 630 604
f 712 702 610
f 712 610 631
f 632 703 704
f 712 632 704
f 631 632 712
f 703 632 633
f 703 633 707
f 707 633 612
f 634 709 621
f 709 634 635
f 709 635 711
f 711 635 622
f 637 713 636
f 714 638 636
f 714 636 713
f 714 639 638
f 716 715 713
f 637 716 713
f 644 716 637
f 713 715 714
f 714 715 717
f 639 714 717
f 718 639 717
f 646 639 718
f 720 719 656
f 720 656 657
f 656 721 658
f 719 721 656
f 721 723 722
f 659 721 722
f 658 721 659
f 722 661 659
f 666 725 724
f 716 666 724
f 644 666 716
f 727 726 725
f 725 726 724
f 718 726 727
f 668 718 727
f 646 718 668
f 676 728 677
f 729 678 677
f 729 677 728
f 729 680 678
f 732 731 730
f 731 720 730
f 720 682 730
f 720 657 682
f 722 723 733
f 733 723 734
f 735 683 661
f 722 735 661
f 733 735 722
f 735 685 683
f 689 736 725
f 689 725 666
f 725 737 727
f 725 736 737
f 737 691 668
f 737 668 727
f 697 728 676
f 728 697 699
f 728 699 729
f 729 699 680
f 738 732 730
f 738 730 682
f 701 738 682
f 739 738 701
f 741 740 702
f 740 701 702
f 740 739 701
f 740 741 734
f 734 741 733
f 741 704 733
f 704 705 733
f 733 705 706
f 733 706 735
f 735 706 685
f 708 736 689
f 736 708 710
f 736 710 737
f 737 710 691
f 712 741 702
f 741 712 704
f 716 742 715
f 743 717 715
f 743 715 742
f 743 718 717
f 746 745 744
f 719 720 744
f 745 719 744
f 747 719 745
f 747 749 748
f 721 747 748
f 719 747 721
f 748 723 721
f 724 742 716
f 742 724 726
f 742 726 743
f 743 726 718
f 752 751 750
f 750 751 746
f 750 746 744
f 732 750 744
f 731 732 744
f 731 744 720
f 748 749 753
f 753 749 754
f 753 734 723
f 753 723 748
f 755 752 750
f 755 750 732
f 738 755 732
f 756 755 738
f 757 738 739
f 757 756 738
f 740 753 754
f 757 740 754
f 739 740 757
f 753 740 734
f 760 759 758
f 745 746 758
f 759 745 758
f 761 745 759
f 761 763 762
f 747 761 762
f 745 761 747
f 762 749 747
f 760 758 751
f 752 760 751
f 764 760 752
f 751 758 746
f 762 763 765
f 765 763 766
f 765 754 749
f 765 749 762
f 767 764 752
f 767 752 755
f 768 755 756
f 768 767 755
f 757 765 766
f 768 757 766
f 756 757 768
f 765 757 754
f 771 770 769
f 773 772 769
f 773 769 770
f 775 774 772
f 775 772 773
f 759 760 774
f 775 759 774
f 776 759 775
f 776 778 777
f 761 776 777
f 759 776 761
f 777 763 761
f 779 771 769
f 781 780 779
f 769 781 779
f 772 781 769
f 782 772 774
f 781 772 782
f 764 782 760
f 760 782 774
f 777 778 783
f 783 778 784
f 783 766 763
f 783 763 777
f 785 780 781
f 785 781 782
f 785 782 786
f 786 782 764
f 767 786 764
f 787 786 767
f 768 783 784
f 787 768 784
f 767 768 787
f 783 768 766
f 789 788 770
f 789 770 771
f 770 790 773
f 788 790 770
f 773 791 775
f 790 791 773
f 791 793 792
f 776 791 792
f 775 791 776
f 792 778 776
f 771 779 794
f 795 771 794
f 789 771 795
f 780 794 779
f 793 796 792
f 778 792 796
f 797 778 796
f 784 778 797
f 795 794 798
f 795 798 799
f 785 800 780
f 800 794 780
f 800 798 794
f 786 801 785
f 785 801 800
f 801 786 802
f 786 803 802
f 786 787 803
f 787 784 797
f 787 797 803
f 804 799 798
f 804 798 800
f 804 800 805
f 805 800 801
f 805 801 806
f 806 801 802
f 808 807 788
f 808 788 789
f 788 809 790
f 807 809 788
f 809 811 810
f 791 809 810
f 790 809 791
f 810 793 791
f 795 808 789
f 795 812 808
f 810 811 813
f 813 811 814
f 815 796 793
f 810 815 793
f 813 815 810
f 815 797 796
f 799 817 816
f 812 799 816
f 795 799 812
f 819 818 817
f 817 818 816
f 818 819 814
f 819 813 814
f 819 820 813
f 820 802 803
f 815 820 803
f 813 820 815
f 815 803 797
f 804 817 799
f 817 804 805
f 817 805 819
f 819 805 806
f 819 806 820
f 820 806 802
f 808 821 807
f 822 809 807
f 822 807 821
f 822 811 809
f 812 823 821
f 812 821 808
f 821 824 822
f 821 823 824
f 824 814 811
f 824 811 822
f 816 823 812
f 823 816 818
f 823 818 824
f 824 818 814

