# https://github.com/mikedh/trimesh
v -0.05616512 -0.00481932 0.00660025
v -0.05213776 -0.00946457 0.00652626
v -0.05421816 -0.00387877 0.00255978
v -0.05326519 -0.00646926 0.01011267
v -0.05664282 0.00163017 0.00588751
v -0.05412589 0.00376128 0.00191591
v -0.05459154 -0.00034346 0.01010176
v -0.05600424 0.00817401 0.00531219
v -0.05350962 0.01047131 0.00317799
v -0.05449719 0.00743315 0.00952500
v -0.05370352 0.01223020 0.00717787
v -0.04848612 -0.02777351 0.00575048
v -0.04437451 -0.03330608 0.00664792
v -0.04694044 -0.02901772 0.00166122
v -0.04532879 -0.03022355 0.01018294
v -0.04892488 -0.02040311 -0.00877716
v -0.04558094 -0.02469336 -0.01067547
v -0.04685478 -0.02085520 -0.01483295
v -0.04945476 -0.02238706 0.00016895
v -0.04621416 -0.02651793 -0.00422940
v -0.04916795 -0.02095708 0.00616618
v -0.04632892 -0.02400410 0.01016245
v -0.04907763 -0.01438248 -0.01596869
v -0.04523395 -0.01850723 -0.01914092
v -0.04535607 -0.01354575 -0.02129212
v -0.05010149 -0.01284941 -0.00897149
v -0.05015510 -0.01516115 -0.00308519
v -0.05009055 -0.01452932 0.00377283
v -0.04693419 -0.01567995 0.01019423
v -0.04936348 -0.00611150 -0.01754446
v -0.04524388 -0.00618074 -0.02175435
v -0.05003739 -0.00608861 -0.01020976
v -0.05084490 -0.00812318 -0.00164338
v -0.04985572 -0.00386766 0.01424882
v -0.04799198 -0.00973795 0.01285043
v -0.04413128 -0.00750665 0.01683607
v -0.04937520 0.00174929 -0.01743139
v -0.04439850 0.00195754 -0.02117890
v -0.05002118 0.00182087 -0.01020347
v -0.05089602 -0.00011775 -0.00297534
v -0.05045601 0.00383802 0.01426601
v -0.04523703 0.00005911 0.01739338
v -0.04956703 0.00959342 -0.01743757
v -0.04644132 0.01067660 -0.02155349
v -0.05020011 0.00976254 -0.01001792
v -0.05074710 0.00898454 -0.00188319
v -0.05041584 0.01196691 0.01312652
v -0.04545898 0.00795968 0.01739055
v -0.04877442 0.01580024 -0.01848736
v -0.04367211 0.01788718 -0.02149115
v -0.04951126 0.01747010 -0.01087917
v -0.05011390 0.01771622 -0.00173288
v -0.05094188 0.01685642 0.00671855
v -0.04933781 0.01889255 0.01449806
v -0.04555139 0.01578669 0.01750997
v -0.04627699 0.02100440 -0.01592748
v -0.04667608 0.02242101 -0.00935200
v -0.04544868 0.02646238 -0.00519543
v -0.04888465 0.02473388 -0.00206881
v -0.05026218 0.02461698 0.00527401
v -0.04927030 0.02610290 0.01216550
v -0.04485922 0.02435356 0.01738029
v -0.04671062 0.03014250 -0.00040630
v -0.04621494 0.03365567 0.00241141
v -0.04872100 0.03123373 0.00569916
v -0.04708544 0.03255814 0.01117147
v -0.04548759 0.03022624 0.01523358
v -0.04473888 0.03590978 0.00561616
v -0.04128151 -0.03602013 -0.00857253
v -0.03658653 -0.04025223 -0.01145419
v -0.03907521 -0.03662345 -0.01458461
v -0.04147222 -0.03772400 -0.00055492
v -0.03732151 -0.04153981 -0.00387878
v -0.04185083 -0.03678871 0.00470308
v -0.03712955 -0.04169699 0.00570694
v -0.03834097 -0.03793843 0.01046851
v -0.04097732 -0.03104178 -0.01625706
v -0.03731486 -0.03426909 -0.01894374
v -0.03719641 -0.02908146 -0.02109088
v -0.04319285 -0.02889134 -0.00991766
v -0.04366445 -0.03234765 -0.00134699
v -0.04191342 -0.02768550 0.01416938
v -0.04022753 -0.03364782 0.01302182
v -0.03638092 -0.03148079 0.01685793
v -0.04267974 -0.02414680 -0.01709044
v -0.03804012 -0.02173622 -0.02115696
v -0.04214001 -0.02003799 0.01421996
v -0.03728904 -0.02390309 0.01714270
v -0.03882122 -0.01389670 -0.02168675
v -0.04090034 -0.01216890 -0.00191677
v -0.03888140 -0.01335884 -0.00606486
v -0.03794305 -0.01669735 -0.00247887
v -0.03678243 -0.01586836 0.00110564
v -0.04310662 -0.01342748 0.01482883
v -0.03799169 -0.01476900 0.01723975
v -0.03861224 -0.00652969 -0.02115496
v -0.04143506 -0.00614617 -0.00840062
v -0.03834989 -0.00519132 -0.01475013
v -0.03727853 -0.00986763 -0.01093630
v -0.04175477 -0.00541570 -0.00168745
v -0.03758989 -0.00844867 0.00242586
v -0.03799681 -0.00604965 0.01803520
v -0.03883628 -0.00278860 -0.01900271
v -0.04106965 0.00134062 -0.01655918
v -0.04267218 0.00265276 -0.00865417
v -0.04188379 0.00175209 -0.00259892
v -0.03803054 0.00101570 0.00240028
v -0.03822272 0.00187890 0.01817115
v -0.03837589 0.00673578 -0.01715017
v -0.04037805 0.00885486 -0.02143627
v -0.04116537 0.00865431 -0.01019427
v -0.03724237 0.01015046 -0.01333771
v -0.04184584 0.01000977 -0.00253593
v -0.03873370 0.00896640 0.00140021
v -0.03854066 0.00973937 0.01824583
v -0.03754027 0.01620728 -0.02149949
v -0.03887417 0.01396073 -0.00837527
v -0.04082443 0.01607816 -0.00317280
v -0.03712412 0.01908177 -0.00534115
v -0.03776091 0.01586897 0.00123865
v -0.03750117 0.01869269 0.01743908
v -0.04210652 0.02578846 -0.01743535
v -0.03820150 0.02342502 -0.02064357
v -0.04353786 0.02634338 -0.01055723
v -0.03695910 0.01985049 -0.00071548
v -0.03837191 0.02563121 0.01842454
v -0.03813699 0.02885779 -0.01630082
v -0.03699714 0.03196888 -0.01298014
v -0.04075402 0.03176783 -0.01154827
v -0.04283344 0.03277747 -0.00323045
v -0.04307112 0.03601849 0.01329199
v -0.03888094 0.03153295 0.01776527
v -0.03739005 0.03655716 -0.00961044
v -0.03974985 0.03824991 -0.00042076
v -0.04154374 0.03996824 0.00677541
v -0.03847427 0.04117695 0.00218320
v -0.04107388 0.04142734 0.01271455
v -0.03775013 0.03919538 0.01710287
v -0.03679765 0.04454794 0.00691603
v -0.03696253 0.04372321 0.01458538
v -0.03414834 -0.04558685 0.00054355
v -0.03049554 -0.04892629 -0.00123646
v -0.03098394 -0.04604979 -0.00506237
v -0.03394457 -0.04567817 0.00569364
v -0.03060059 -0.04930370 0.00391511
v -0.02910381 -0.04650631 0.00975009
v -0.03500583 -0.03840365 -0.01705968
v -0.03040163 -0.04173190 -0.01729934
v -0.03059856 -0.03688754 -0.02141580
v -0.03137632 -0.04300772 -0.01066856
v -0.03478145 -0.03688492 0.01504343
v -0.03173095 -0.04087988 0.01308619
v -0.02968272 -0.03698554 0.01687373
v -0.02950508 -0.03041019 -0.02134369
v -0.02833038 -0.03256799 -0.01131672
v -0.03315995 -0.02863220 -0.00837902
v -0.03059036 -0.02893946 -0.01451812
v -0.02861091 -0.03430579 -0.00234076
v -0.03312894 -0.02869756 -0.00140079
v -0.02915593 -0.02949924 0.00251116
v -0.02995293 -0.03055220 0.01892002
v -0.03099919 -0.02646750 -0.01886443
v -0.03384143 -0.02170668 -0.01635145
v -0.03414679 -0.02237080 -0.00959515
v -0.03498330 -0.02198083 -0.00306809
v -0.03180174 -0.02241284 0.00148003
v -0.03043953 -0.02125503 0.01871969
v -0.03459904 -0.01288025 -0.01821229
v -0.03490404 -0.01570388 -0.01005992
v -0.02985363 -0.01443985 0.00306764
v -0.03124751 -0.01291071 0.01780680
v -0.03537688 -0.00795847 -0.01628826
v -0.03122297 -0.00931971 0.00587321
v -0.03427099 -0.00403164 0.00652330
v -0.02877005 -0.00647159 0.00890922
v -0.03001798 -0.00614519 0.01780441
v -0.03356263 0.00238186 0.00593108
v -0.02953518 -0.00075873 0.00923945
v -0.03022936 0.00168583 0.01794892
v -0.03540321 0.01141057 -0.01784765
v -0.02814256 0.00528355 0.00645367
v -0.03266811 0.00971478 0.00321797
v -0.03108496 0.00995784 0.01702646
v -0.03448066 0.01923406 -0.01736803
v -0.03522476 0.01581430 -0.01163790
v -0.02982671 0.01800720 0.00152321
v -0.03290062 0.01634991 0.01409336
v -0.02863134 0.01788235 0.01151344
v -0.02815757 0.01384304 0.01338772
v -0.03525825 0.02508614 -0.01751326
v -0.03418590 0.02460499 -0.01075733
v -0.03143742 0.02256502 -0.00229269
v -0.02870562 0.02680005 -0.00512823
v -0.03085507 0.02040458 0.01411635
v -0.03093720 0.02560737 0.01724472
v -0.02864372 0.03442329 -0.02068697
v -0.03373985 0.03282926 -0.01624342
v -0.02893280 0.03006802 -0.01825418
v -0.03033918 0.02964762 -0.01156692
v -0.03024460 0.03348238 0.01844117
v -0.03201232 0.03738825 -0.01642428
v -0.03314798 0.04050652 -0.01073514
v -0.02915670 0.04148071 -0.01483353
v -0.03519337 0.04153999 -0.00316682
v -0.02971691 0.04151217 0.01781285
v -0.02927992 0.04353955 -0.00946829
v -0.03102520 0.04576046 -0.00150954
v -0.03316703 0.04854560 0.00510314
v -0.02967339 0.04954930 0.00153389
v -0.03186445 0.04876340 0.00991567
v -0.03111402 0.04645226 0.01419293
v -0.02833079 0.05166476 0.00718697
v -0.02641082 -0.05243517 -0.00112863
v -0.02010405 -0.05663640 -0.00067324
v -0.02251515 -0.05253056 -0.00580759
v -0.02656634 -0.05290542 0.00645336
v -0.02253770 -0.05653876 0.00488391
v -0.02210030 -0.05308148 0.00917841
v -0.02595916 -0.04560177 -0.01584281
v -0.02025081 -0.04821658 -0.01738013
v -0.02383008 -0.04384902 -0.02118922
v -0.02645830 -0.04742782 -0.00910698
v -0.02165505 -0.04955937 -0.01098488
v -0.02057255 -0.04669605 0.01125871
v -0.02159304 -0.03852485 -0.02154247
v -0.02063978 -0.04027458 -0.00333046
v -0.02542602 -0.03825183 -0.00122560
v -0.02383908 -0.03751255 -0.00493565
v -0.02166104 -0.03796978 0.00197506
v -0.02427513 -0.04176631 0.01419090
v -0.02143448 -0.03728527 0.01808969
v -0.02378796 -0.03369154 -0.01735380
v -0.02764299 -0.03038470 -0.01707171
v -0.02324571 -0.03525865 -0.01038902
v -0.02449785 -0.03347619 0.00527491
v -0.02535708 -0.02924709 0.00590090
v -0.02057890 -0.02973534 0.00853779
v -0.02302382 -0.03316067 0.02165452
v -0.02609120 -0.02779139 0.02216830
v -0.02070482 -0.03028258 0.02470037
v -0.02192386 -0.02558956 0.00671175
v -0.02434852 -0.02189298 0.00317987
v -0.02537077 -0.02149839 0.02144961
v -0.02143436 -0.02441679 0.02493605
v -0.02097342 -0.01282119 0.00290636
v -0.02418102 -0.01448293 0.01855967
v -0.01997941 -0.01844055 0.02215317
v -0.02463719 -0.00997150 0.00626260
v -0.02182557 -0.00400454 0.00937263
v -0.02202692 -0.00634238 0.01776110
v -0.02342563 0.00172403 0.00950411
v -0.02236133 0.00150064 0.01790174
v -0.02029151 0.00587695 0.00628880
v -0.02430552 0.01096424 0.00305912
v -0.02172212 0.00947356 0.01696824
v -0.02129435 0.01671601 0.00190012
v -0.02381223 0.01680753 0.01151468
v -0.02171303 0.01450447 0.01403620
v -0.02663289 0.02541102 -0.00157404
v -0.02262328 0.02308164 0.00186594
v -0.02431286 0.02093864 0.01340600
v -0.02156602 0.02502088 0.01710995
v -0.02452351 0.03042205 -0.01609048
v -0.02288057 0.03334504 -0.02106405
v -0.02505496 0.03238988 -0.01078714
v -0.02137725 0.03345489 -0.01439804
v -0.02413396 0.03181012 -0.00661411
v -0.02122433 0.02857954 -0.00075644
v -0.02236109 0.03345132 0.01833306
v -0.02701942 0.03976221 -0.01908855
v -0.02156085 0.04128410 -0.02141489
v -0.02023653 0.03531911 -0.01022102
v -0.02167903 0.04118393 0.01735194
v -0.02348894 0.04462390 -0.01589204
v -0.02418944 0.04630213 -0.00859277
v -0.02601639 0.04831135 -0.00311642
v -0.02116177 0.04943703 -0.00677219
v -0.02712958 0.05003438 0.01346943
v -0.02436805 0.04754512 0.01663925
v -0.02222713 0.05194594 -0.00049115
v -0.02270979 0.05331783 0.00637099
v -0.02171690 0.05178268 0.01197647
v -0.01254016 -0.05719335 -0.00214259
v -0.01706791 -0.05373480 -0.00630350
v -0.01644958 -0.05723509 0.00550576
v -0.01457729 -0.05294358 0.00946827
v -0.01349888 -0.04851510 -0.01837530
v -0.01517447 -0.04493450 -0.02101416
v -0.01442500 -0.05087714 -0.01253205
v -0.01263346 -0.04673011 0.01111961
v -0.01350927 -0.04141774 -0.01748946
v -0.01835390 -0.03778445 -0.01594074
v -0.01505654 -0.04106421 -0.00990337
v -0.01935976 -0.03846582 -0.00925364
v -0.01497448 -0.04085269 -0.00248091
v -0.01374837 -0.03683898 0.00202753
v -0.01628415 -0.04187549 0.01401805
v -0.01191174 -0.03693110 0.01812544
v -0.01678476 -0.03425104 0.00662339
v -0.01338239 -0.02993510 0.00912017
v -0.01643022 -0.03386769 0.02234369
v -0.01517911 -0.02776999 0.02511422
v -0.01854881 -0.02069495 0.00538052
v -0.01392510 -0.02246962 0.00971044
v -0.01600429 -0.02184574 0.02478195
v -0.01296361 -0.01697499 0.00726249
v -0.01403839 -0.01444053 0.00174655
v -0.01413934 -0.01294497 0.01826692
v -0.01487201 -0.01842093 0.02229513
v -0.01858336 -0.00742354 0.00563204
v -0.01327312 -0.00556899 0.00321175
v -0.01526499 -0.00514746 0.01785896
v -0.01503073 -0.00269801 0.00691770
v -0.01634711 0.00146985 0.00858845
v -0.01438366 0.00158231 0.01800613
v -0.01343937 0.00480644 0.00557533
v -0.01514914 0.00996206 0.00268874
v -0.01340911 0.00844791 0.01801426
v -0.01381046 0.01764430 0.00273317
v -0.01965117 0.01847173 0.01403621
v -0.01537212 0.01638459 0.01710372
v -0.01536995 0.02272875 0.00590486
v -0.01807687 0.02595556 0.00553031
v -0.01240626 0.02596015 0.00897938
v -0.01448720 0.02523857 0.01799321
v -0.01910380 0.03369781 -0.01877951
v -0.01446967 0.03111500 0.00027710
v -0.01700286 0.03335909 -0.00520765
v -0.01454731 0.02944060 0.00598014
v -0.01440429 0.03412605 0.01734644
v -0.01415908 0.03704629 -0.01639795
v -0.01590945 0.03940134 -0.02167196
v -0.01316445 0.03646222 -0.00844271
v -0.01765833 0.04038193 0.01454758
v -0.01432444 0.04339944 0.01178427
v -0.01384535 0.03869491 0.01436485
v -0.01838117 0.04820760 -0.01853604
v -0.01337668 0.04769454 -0.02143224
v -0.01879122 0.04916667 -0.01267682
v -0.01908702 0.04674139 0.01419310
v -0.01418594 0.05021376 0.01055590
v -0.01351516 0.05188024 -0.01610924
v -0.01472670 0.05214251 -0.00818729
v -0.01454184 0.05292952 -0.00199409
v -0.01504139 0.05367603 0.00538781
v -0.01148482 -0.05428215 -0.00885494
v -0.00558562 -0.05656251 -0.00848645
v -0.00751092 -0.05307155 -0.01304047
v -0.00537921 -0.05806358 -0.00079900
v -0.00846812 -0.05709120 0.00541305
v -0.00648331 -0.05287720 0.00941382
v -0.00580065 -0.04957713 -0.01756701
v -0.00641364 -0.04564261 -0.02061819
v -0.00452927 -0.04547147 0.01105214
v -0.00620560 -0.04276805 -0.01751371
v -0.00842542 -0.04129096 -0.00955126
v -0.01066817 -0.03821821 -0.00285965
v -0.00591172 -0.03717217 -0.00595415
v -0.00867302 -0.04147041 0.01397451
v -0.00578500 -0.03632594 0.01636723
v -0.00936481 -0.03099141 -0.00100252
v -0.00624507 -0.02981315 -0.00521152
v -0.00750138 -0.03325173 0.00643445
v -0.00662627 -0.02912386 0.00254590
v -0.00641119 -0.02841210 0.01083239
v -0.01099802 -0.03069678 0.02188350
v -0.00637417 -0.02901924 0.01820500
v -0.01001089 -0.02116515 -0.00153570
v -0.00635583 -0.02139092 -0.00552880
v -0.00682601 -0.02394824 0.00224385
v -0.00671930 -0.02186088 0.01133096
v -0.01074497 -0.02198669 0.02124682
v -0.00642410 -0.02064624 0.01688351
v -0.01004027 -0.01506439 -0.00288802
v -0.00463829 -0.01431330 -0.00495378
v -0.00880982 -0.01785853 0.00434428
v -0.00723181 -0.01879581 0.01330368
v -0.00993210 -0.01581722 0.01399734
v -0.00522087 -0.01499872 0.00994993
v -0.00756630 -0.01054215 -0.00169850
v -0.00660674 -0.00657086 0.00095275
v -0.00691069 -0.01082186 0.01444076
v -0.00706316 -0.00613793 0.01711391
v -0.01166286 0.00087745 0.00568461
v -0.00739917 0.00173068 0.00263937
v -0.00635737 0.00148805 0.01810404
v -0.00662400 0.00983516 0.00170155
v -0.00665718 0.00937849 0.01796647
v -0.00531338 0.01563970 0.00333283
v -0.00667548 0.01720693 0.01780637
v -0.00910420 0.02100204 0.00644527
v -0.00504842 0.02467547 0.00896612
v -0.00662813 0.02515954 0.01791028
v -0.01156589 0.03409277 -0.00220101
v -0.00998401 0.03363284 0.00434469
v -0.00854358 0.03176625 0.00912862
v -0.00563431 0.03204476 0.01797214
v -0.00486343 0.03789752 -0.01730671
v -0.00863432 0.04198813 -0.02161015
v -0.00775934 0.03721722 -0.01111707
v -0.00621081 0.03611787 -0.00279903
v -0.00605707 0.03552838 0.00509489
v -0.01028417 0.04214838 0.01312747
v -0.00767338 0.03866391 0.01628061
v -0.00501321 0.04836453 -0.02172447
v -0.00711349 0.04715163 0.01057851
v -0.00569612 0.04337822 0.01317577
v -0.00663409 0.05237234 -0.01745372
v -0.00653661 0.05295977 -0.01013100
v -0.00864695 0.05378166 -0.00160300
v -0.00921742 0.05676103 0.00509504
v -0.00466317 0.05720115 0.00278120
v -0.00722943 0.05496258 0.00885172
v -0.00547848 0.05931351 0.00687271
v 0.00235915 -0.05636151 -0.00824634
v 0.00081708 -0.05256266 -0.01358695
v 0.00131686 -0.05802558 -0.00192907
v -0.00047386 -0.05709802 0.00538876
v 0.00148631 -0.05291315 0.00952569
v 0.00213404 -0.04834821 -0.01789378
v 0.00004494 -0.04602846 -0.02021693
v 0.00243583 -0.04698194 0.01046321
v 0.00009769 -0.04328089 -0.01850263
v 0.00143833 -0.04087842 -0.01104892
v 0.00082211 -0.03682453 -0.00553376
v -0.00385669 -0.03710502 0.01241988
v 0.00049539 -0.03817145 0.00993045
v 0.00177635 -0.02977165 -0.00661100
v -0.00271421 -0.02852896 0.00645768
v 0.00343432 -0.02942998 0.00913396
v -0.00337348 -0.03098330 0.01464092
v -0.00005781 -0.02040119 -0.00654517
v -0.00396593 -0.02101064 0.00643439
v -0.00406105 -0.02363349 0.01403658
v 0.00038092 -0.02184170 0.00922378
v 0.00281027 -0.01554100 -0.00498617
v 0.00337116 -0.01510430 0.01108367
v -0.00103530 -0.00999736 -0.00211694
v 0.00190576 -0.00640764 0.00113805
v -0.00024364 -0.01012267 0.01396290
v 0.00166357 -0.00556310 0.01711841
v 0.00124513 0.00178808 0.00178061
v 0.00145923 0.00136933 0.01803574
v 0.00203913 0.00950411 0.00258062
v 0.00123920 0.00916019 0.01783003
v 0.00063743 0.01450797 0.00556138
v -0.00336815 0.01842731 0.00690808
v 0.00170878 0.01762002 0.00863643
v 0.00214811 0.01737446 0.01851880
v 0.00080288 0.02625176 0.00207157
v -0.00244731 0.02707054 0.00531110
v 0.00231507 0.02184472 0.00688958
v 0.00007155 0.02632063 0.01789508
v -0.00239348 0.03232606 0.00071166
v 0.00341640 0.02973493 -0.00204705
v 0.00060965 0.03394165 -0.00473802
v -0.00456691 0.03201235 0.00678724
v 0.00072269 0.03360820 0.01711745
v 0.00296562 0.03777722 -0.01724692
v -0.00087583 0.04190284 -0.02165013
v 0.00035666 0.03632036 -0.00999931
v 0.00354908 0.03765532 0.01379996
v -0.00223552 0.04009305 0.01442264
v -0.00016934 0.04300646 0.01115123
v 0.00276665 0.04815443 -0.02164236
v 0.00122469 0.04917855 0.00978751
v 0.00115713 0.05232040 -0.01737947
v 0.00131983 0.05290236 -0.01009446
v -0.00061805 0.05368964 -0.00285091
v 0.00289742 0.05707091 0.00230192
v 0.00101471 0.05665282 0.00919037
v 0.00076755 0.05971454 0.00638953
v 0.00492899 -0.05372100 -0.01012174
v 0.00840677 -0.05432448 -0.00720636
v 0.01005969 -0.05719121 -0.00191657
v 0.00750074 -0.05710934 0.00543479
v 0.00938842 -0.05305849 0.00962377
v 0.00472953 -0.04405830 -0.01700539
v 0.00794288 -0.04645742 -0.01475315
v 0.01031782 -0.05048448 -0.01054600
v 0.00906405 -0.04589565 0.01056912
v 0.00990030 -0.03924366 -0.01299459
v 0.00583793 -0.03694177 -0.00828818
v 0.00805627 -0.03985330 -0.00379958
v 0.00835140 -0.03640902 -0.00583728
v 0.00539388 -0.03593051 -0.00045182
v 0.01067838 -0.03774754 0.00211100
v 0.00833062 -0.03724773 0.00965451
v 0.00898505 -0.03438206 -0.00828190
v 0.00437554 -0.03487378 -0.00543436
v 0.00604631 -0.03079531 -0.00347994
v 0.00928886 -0.03495775 0.00606960
v 0.00605882 -0.03092722 0.00473072
v 0.00942001 -0.02542579 0.00042581
v 0.00697393 -0.02257822 -0.00479207
v 0.00813900 -0.02600229 0.00632866
v 0.00915076 -0.02092628 0.00915998
v 0.00866695 -0.01746337 -0.00286923
v 0.00508732 -0.01277455 -0.00164581
v 0.01070773 -0.01439697 0.00116984
v 0.01100698 -0.01296226 0.01104142
v 0.00958983 -0.00659346 0.00190444
v 0.00725538 -0.00993138 0.01408883
v 0.00858585 -0.00415202 0.01657014
v 0.00922281 0.00144265 0.00163243
v 0.00966978 0.00340361 0.01706584
v 0.01115122 0.00842462 0.00291070
v 0.00918388 0.00998734 0.01892043
v 0.00730943 0.01321799 0.00628201
v 0.00937427 0.01704774 0.00880375
v 0.00841196 0.01411885 0.02150674
v 0.00669608 0.01816187 0.02149191
v 0.01068760 0.01664981 0.02398287
v 0.01124598 0.02111523 0.00668773
v 0.00706194 0.02512577 0.00217375
v 0.00697288 0.02482436 0.01882847
v 0.01156030 0.02082009 0.02228585
v 0.01097005 0.02943198 -0.00197800
v 0.00719790 0.03334847 -0.00590131
v 0.00909676 0.03227753 0.01699137
v 0.01076036 0.03795602 -0.01711849
v 0.00685011 0.04180093 -0.02154051
v 0.00900242 0.03622255 -0.01073644
v 0.00727717 0.04196569 0.01066420
v 0.01094206 0.03702001 0.01375470
v 0.01006292 0.04712611 -0.02103222
v 0.00925092 0.04919899 0.00994680
v 0.00841458 0.05174882 -0.01727736
v 0.00908953 0.05295204 -0.00994561
v 0.00736514 0.05369552 -0.00272446
v 0.01101178 0.05712315 0.00230020
v 0.00904691 0.05665175 0.00930156
v 0.00892875 0.05961743 0.00628296
v 0.01932982 -0.05732752 -0.00091714
v 0.01648579 -0.05311694 -0.00609129
v 0.01555376 -0.05733931 0.00549878
v 0.01733103 -0.05334399 0.00968325
v 0.01779894 -0.04851167 -0.00940160
v 0.01476404 -0.04461005 -0.01267725
v 0.01699866 -0.04590024 0.01064628
v 0.01827942 -0.03881666 -0.01472478
v 0.01649264 -0.03882553 -0.00641334
v 0.01707488 -0.04154043 -0.00247093
v 0.01824021 -0.03610567 0.00245209
v 0.01733445 -0.03747303 0.00970763
v 0.01765337 -0.03499898 -0.01072790
v 0.01563052 -0.03368583 0.00644281
v 0.01248328 -0.02079581 -0.00020024
v 0.01254562 -0.02280703 0.00451011
v 0.01591634 -0.01832688 0.00523928
v 0.01622161 -0.01316895 0.00317882
v 0.01677777 -0.01413314 0.00854954
v 0.01745670 -0.00599737 0.00251486
v 0.01231404 -0.00692794 0.01338562
v 0.01615492 -0.00640746 0.01032276
v 0.01609206 0.00241113 0.00158576
v 0.01376383 -0.00066260 0.01379015
v 0.01868641 -0.00027502 0.01123744
v 0.01926498 0.00985061 0.00275033
v 0.01607944 0.00387822 0.01446004
v 0.01856534 0.00878091 0.01821093
v 0.01507346 0.01376933 0.00645273
v 0.01593073 0.01784495 0.00841421
v 0.01477045 0.01359723 0.02228409
v 0.01557553 0.01792197 0.02409037
v 0.01689886 0.02069831 0.00662986
v 0.01564165 0.02463699 0.00233281
v 0.01635602 0.02547778 0.01899537
v 0.01801508 0.02040445 0.02177920
v 0.01778201 0.02855013 -0.00235622
v 0.01627483 0.03282065 -0.00569997
v 0.01657245 0.03241582 0.01656610
v 0.01794767 0.03659759 -0.01705174
v 0.01651432 0.04092833 -0.02096740
v 0.01690366 0.03646334 -0.01064350
v 0.01617234 0.04096474 0.01062118
v 0.01747966 0.03603972 0.01331139
v 0.01600325 0.04620292 -0.01887691
v 0.01324030 0.04971684 -0.01710124
v 0.01897943 0.04911923 -0.01455395
v 0.01724525 0.04918711 0.01012018
v 0.01653061 0.05230146 -0.01027873
v 0.01642551 0.05383671 -0.00164196
v 0.01778740 0.05665931 0.00353040
v 0.01664541 0.05657407 0.00891290
v 0.01539883 0.05916206 0.00573897
v 0.02552592 -0.05673780 -0.00026057
v 0.02368831 -0.05417389 -0.00436327
v 0.02314128 -0.05713798 0.00539989
v 0.02571622 -0.05208525 0.00936829
v 0.02019795 -0.04372417 -0.00995914
v 0.02456201 -0.04674297 -0.00574869
v 0.02391892 -0.04487642 0.01060420
v 0.02176850 -0.03779175 -0.01863568
v 0.02526592 -0.04101599 -0.01676076
v 0.02609327 -0.03601096 -0.02090067
v 0.02497955 -0.04134610 -0.00950644
v 0.02581956 -0.03630948 -0.00686157
v 0.02490466 -0.04124806 -0.00215413
v 0.02611464 -0.03890965 0.00144790
v 0.02593872 -0.03881633 0.01053756
v 0.02319074 -0.03388782 -0.01594027
v 0.02398304 -0.03307177 -0.01056387
v 0.02054497 -0.03003166 0.00586942
v 0.02530125 -0.02978896 0.00277155
v 0.02398453 -0.03160395 0.00923700
v 0.02587072 -0.02720717 0.00701256
v 0.01968038 -0.01322328 0.00536434
v 0.02127932 -0.00607717 0.00683884
v 0.02592535 -0.00187211 0.00764731
v 0.02285898 0.00074296 0.00291090
v 0.02398658 -0.00130343 0.01216947
v 0.02062165 0.00264803 0.01461794
v 0.02472003 0.00358521 0.01641658
v 0.02599653 0.00871593 0.00100175
v 0.02522281 0.01054657 0.01722696
v 0.01974723 0.01840492 0.00482003
v 0.02368002 0.01712209 0.00104392
v 0.01971558 0.01627584 0.02175552
v 0.02354305 0.01864445 0.01820038
v 0.02164714 0.02390061 -0.00043751
v 0.02604765 0.02104325 -0.00247864
v 0.02477048 0.02661994 -0.00448253
v 0.02323971 0.02702299 0.01657882
v 0.02214806 0.03366423 -0.01671194
v 0.02674770 0.03106466 -0.01754392
v 0.02298098 0.03487379 -0.02089663
v 0.02576033 0.03283208 -0.01292820
v 0.02458998 0.03288221 -0.00679410
v 0.02157704 0.03228058 0.01446353
v 0.02444120 0.03398720 0.01096352
v 0.02614211 0.02888557 0.01323480
v 0.02643598 0.04015821 -0.02159414
v 0.02286500 0.03552523 -0.01138505
v 0.02497797 0.04096559 0.00998743
v 0.02372493 0.04510964 -0.01750886
v 0.02522501 0.04859043 -0.01282526
v 0.02481075 0.04960458 0.00962763
v 0.02435054 0.05174289 -0.00889830
v 0.02507740 0.05318856 -0.00166340
v 0.02488149 0.05324226 0.00535368
v 0.02062589 0.05626019 0.00698383
v 0.02775112 -0.05247518 -0.00207913
v 0.02903214 -0.05318904 0.00389543
v 0.02923016 -0.04521008 -0.00186557
v 0.03182955 -0.04564503 0.00341869
v 0.03231456 -0.04996400 0.00717614
v 0.03285496 -0.04486220 0.00962031
v 0.03393360 -0.04090077 -0.01659749
v 0.03171447 -0.03730117 -0.02127684
v 0.03181981 -0.04232847 -0.00911137
v 0.02823600 -0.04121240 -0.00639397
v 0.03224830 -0.03931705 -0.00430470
v 0.03269529 -0.03746351 0.00133994
v 0.03165427 -0.03653282 0.01058757
v 0.02841271 -0.03077413 -0.01844615
v 0.03321572 -0.02948288 -0.02151920
v 0.02857730 -0.02959194 -0.00955673
v 0.03175595 -0.03419587 -0.00310201
v 0.02917273 -0.02976692 -0.00167595
v 0.03330898 -0.02943528 0.00983190
v 0.03248276 -0.02609612 -0.01599158
v 0.03183894 -0.02425575 -0.00942369
v 0.03349782 -0.02107670 -0.00665414
v 0.02965273 -0.02376261 -0.00207237
v 0.03129161 -0.02433099 0.00565963
v 0.03204156 -0.02133397 0.00231154
v 0.03472127 -0.01931444 -0.00098515
v 0.02860411 0.00289330 0.00604115
v 0.02752915 0.00096188 0.01249495
v 0.02925785 0.00958315 -0.00213119
v 0.03308435 0.00646289 0.00061428
v 0.03356597 0.01148163 -0.00526216
v 0.03273631 0.00561270 0.00677248
v 0.02897043 0.00710917 0.01307230
v 0.03364255 0.01035225 0.01018676
v 0.02813361 0.01487182 -0.00220258
v 0.03162184 0.01816650 -0.00454369
v 0.02891860 0.01564564 0.01420247
v 0.03357513 0.01758203 0.01094016
v 0.03270462 0.02583970 -0.00572437
v 0.02846740 0.02323262 0.01387120
v 0.03226996 0.02575598 0.01053269
v 0.03296836 0.02865106 -0.01821811
v 0.03173960 0.03307493 -0.02168196
v 0.02831120 0.03259121 -0.00873578
v 0.03143624 0.02915237 -0.01208325
v 0.03277510 0.03296246 0.00991281
v 0.03413090 0.03940347 -0.02112085
v 0.03300656 0.04092860 0.01040940
v 0.03092490 0.04360919 -0.01830341
v 0.03291047 0.04520144 -0.01095870
v 0.02936360 0.04979591 -0.00881331
v 0.03408638 0.04873212 -0.00527588
v 0.03266508 0.04823030 0.00928592
v 0.03113965 0.05191778 -0.00306752
v 0.03226420 0.05190458 0.00428139
v 0.03643669 -0.04479057 0.00522542
v 0.03689348 -0.03717522 -0.01901181
v 0.04144375 -0.03742210 -0.01410975
v 0.04001642 -0.04067414 -0.00968648
v 0.03599961 -0.03748850 -0.00159770
v 0.03949517 -0.04064523 -0.00110807
v 0.04026035 -0.04228156 0.00654919
v 0.04059343 -0.03669110 0.00968293
v 0.04164974 -0.03348248 -0.01767512
v 0.03959415 -0.03038735 -0.02134545
v 0.04077310 -0.02995438 0.01079233
v 0.03666303 -0.02291860 -0.01857580
v 0.04145697 -0.02153027 -0.02149489
v 0.03598813 -0.02170224 -0.01263451
v 0.03554844 -0.02081298 0.00526345
v 0.04084387 -0.02314894 0.00964416
v 0.04067191 -0.01844225 -0.01616248
v 0.03928875 -0.01803453 -0.00811990
v 0.04036568 -0.01682571 -0.00069023
v 0.04034416 -0.01778166 0.00546653
v 0.03756706 0.01166112 -0.00265073
v 0.04053273 0.01034639 0.00128267
v 0.03905114 0.00661040 0.00518611
v 0.04090703 0.00910421 0.00951109
v 0.03783970 0.01851750 -0.01586916
v 0.04153637 0.01336899 -0.01863263
v 0.04148429 0.01775634 -0.02119560
v 0.03704399 0.01641357 -0.00945184
v 0.03945587 0.01312129 -0.01085929
v 0.03628413 0.01410198 -0.00524851
v 0.04012307 0.01661640 -0.00595145
v 0.03703751 0.01741359 -0.00228044
v 0.04064343 0.01592405 0.00057230
v 0.04052471 0.01723322 0.01007462
v 0.03643232 0.02457418 -0.01720783
v 0.04061587 0.02507807 -0.02106092
v 0.03672533 0.02337795 -0.00968505
v 0.03976686 0.02092392 -0.00257581
v 0.04070691 0.02497693 0.01005734
v 0.03970014 0.03273617 -0.02099479
v 0.04087813 0.03300003 0.01043830
v 0.03955951 0.03730653 -0.01822495
v 0.03614209 0.04136932 -0.01576215
v 0.04212836 0.03719901 -0.01044889
v 0.03740956 0.04117489 -0.01048253
v 0.04074729 0.04112251 -0.00565354
v 0.04022433 0.04152117 0.00950772
v 0.03903963 0.04518615 -0.00263280
v 0.03661289 0.04931403 0.00080222
v 0.04107988 0.04474864 0.00428540
v 0.03718218 0.04817145 0.00675139
v 0.04420242 -0.03813606 -0.00932636
v 0.04515967 -0.03804905 -0.00367379
v 0.04477201 -0.03822136 0.00421809
v 0.04532380 -0.02882931 -0.01880028
v 0.04689382 -0.03142823 -0.01446627
v 0.04799648 -0.03412709 -0.00809584
v 0.04901718 -0.03416476 0.00047422
v 0.04783998 -0.03418724 0.00674671
v 0.04854980 -0.02875283 0.00978801
v 0.04947238 -0.02650679 -0.01708722
v 0.04691635 -0.02339327 -0.02112064
v 0.04887687 -0.02209007 0.01087569
v 0.04422214 -0.01359631 -0.01766120
v 0.04781133 -0.01501555 -0.02114663
v 0.04366038 -0.01328810 -0.01013756
v 0.04354648 -0.01323439 -0.00181885
v 0.04442787 -0.01309671 0.00554004
v 0.04825595 -0.01601858 0.00998284
v 0.04548569 -0.00622678 -0.01766875
v 0.04851495 -0.00657490 -0.02085034
v 0.04458753 -0.00611384 -0.01011757
v 0.04464113 -0.00621999 -0.00165149
v 0.04549251 -0.00626259 0.00574584
v 0.04956142 -0.00800467 0.00995092
v 0.04555985 0.00172675 -0.01758093
v 0.04849794 0.00115202 -0.02073858
v 0.04467252 0.00202851 -0.00995732
v 0.04469474 0.00074772 -0.00262475
v 0.04420529 0.00209466 0.00503090
v 0.04858572 0.00079417 0.01001590
v 0.04452072 0.00845513 -0.01762767
v 0.04735177 0.00940415 -0.02110758
v 0.04395120 0.01033978 -0.00940751
v 0.04406860 0.00788543 -0.00099138
v 0.04867569 0.00925379 0.01057819
v 0.04776559 0.01636250 -0.02126180
v 0.04328378 0.01559728 -0.00161419
v 0.04875909 0.01711729 0.01045940
v 0.04776179 0.02138976 -0.01898253
v 0.04517726 0.02746141 -0.01682914
v 0.04939410 0.02381194 -0.01460468
v 0.04883461 0.02592897 0.00983263
v 0.04297535 0.03316728 -0.01631743
v 0.04820780 0.02850706 -0.01082350
v 0.04532114 0.03198850 -0.01131419
v 0.04827978 0.03280679 -0.00645397
v 0.04710169 0.03462007 0.00926805
v 0.04708002 0.03735909 -0.00232494
v 0.04455062 0.04117251 0.00093907
v 0.04907100 0.03684947 0.00434777
v 0.04517602 0.04009906 0.00670288
v 0.05152453 -0.02761537 -0.01028388
v 0.05165651 -0.02998703 -0.00270729
v 0.05244580 -0.02903920 0.00426091
v 0.05149910 -0.02089826 -0.01662806
v 0.05263075 -0.02203627 -0.00994297
v 0.05368222 -0.02244555 -0.00321530
v 0.05633348 -0.02343491 0.00300966
v 0.05586412 -0.02573420 0.00718913
v 0.05545907 -0.02095828 0.00950823
v 0.05151526 -0.01243581 -0.01750656
v 0.05324557 -0.01492006 -0.01008478
v 0.05592236 -0.01449209 -0.00482106
v 0.05730020 -0.01856725 -0.00067786
v 0.05606824 -0.01229205 0.00981027
v 0.05142652 -0.00473671 -0.01743175
v 0.05326941 -0.00630689 -0.01107916
v 0.05641266 -0.00782310 -0.00602790
v 0.05592685 -0.00436521 0.00980330
v 0.05148324 0.00303091 -0.01744018
v 0.05324153 0.00146411 -0.01099065
v 0.05641258 0.00002527 -0.00593193
v 0.05596837 0.00336828 0.00975803
v 0.05168364 0.01089746 -0.01750289
v 0.05341356 0.00932086 -0.01113898
v 0.05646318 0.00792549 -0.00593165
v 0.05605150 0.01112996 0.00970625
v 0.05137946 0.01829791 -0.01643951
v 0.05343009 0.01784516 -0.00968238
v 0.05653161 0.01542721 -0.00550505
v 0.05504720 0.01874537 0.00922137
v 0.05154485 0.02570163 -0.00886861
v 0.05607193 0.02068240 -0.00245982
v 0.05358871 0.02560742 -0.00076608
v 0.05683222 0.02121929 0.00408586
v 0.05344391 0.02489842 0.00667691
v 0.05145169 0.03254436 -0.00095746
v 0.05153292 0.03102581 0.00573432
v 0.05918967 -0.02039788 0.00449948
v 0.05966063 -0.01279505 -0.00031107
v 0.06008832 -0.01539198 0.00632953
v 0.05987009 -0.00413776 -0.00095556
v 0.06019005 -0.00813405 0.00544990
v 0.05987598 0.00385100 -0.00086134
v 0.06011777 -0.00025413 0.00542207
v 0.05992058 0.01180147 -0.00077858
v 0.06021661 0.00763251 0.00545881
v 0.05907130 0.01790957 -0.00004903
v 0.05963071 0.01522159 0.00551637
f 3 2 1
f 4 1 2
f 3 1 5
f 3 5 6
f 1 4 7
f 1 7 5
f 6 5 8
f 6 8 9
f 5 7 10
f 5 10 8
f 11 9 8
f 11 8 10
f 14 13 12
f 15 12 13
f 18 17 16
f 20 19 16
f 20 16 17
f 19 20 14
f 12 19 14
f 21 19 12
f 12 15 22
f 12 22 21
f 25 24 23
f 23 24 18
f 16 23 18
f 26 23 16
f 27 16 19
f 26 16 27
f 28 19 21
f 27 19 28
f 21 22 29
f 21 29 28
f 25 23 30
f 25 30 31
f 32 23 26
f 30 23 32
f 33 26 27
f 32 26 33
f 3 33 2
f 33 28 2
f 33 27 28
f 35 34 4
f 35 4 2
f 29 35 2
f 28 29 2
f 36 34 35
f 31 30 37
f 31 37 38
f 39 30 32
f 37 30 39
f 40 32 33
f 39 32 40
f 6 40 3
f 3 40 33
f 41 7 34
f 34 7 4
f 34 36 42
f 34 42 41
f 38 37 43
f 38 43 44
f 45 37 39
f 43 37 45
f 46 39 40
f 45 39 46
f 9 46 6
f 6 46 40
f 47 10 41
f 41 10 7
f 41 42 48
f 41 48 47
f 44 43 49
f 44 49 50
f 51 43 45
f 49 43 51
f 52 45 46
f 51 45 52
f 11 53 9
f 53 46 9
f 53 52 46
f 10 47 11
f 47 53 11
f 47 54 53
f 47 48 55
f 47 55 54
f 56 50 49
f 56 49 51
f 56 51 57
f 59 58 57
f 51 59 57
f 52 59 51
f 60 52 53
f 59 52 60
f 61 53 54
f 60 53 61
f 54 55 62
f 54 62 61
f 63 58 59
f 65 64 63
f 59 65 63
f 60 65 59
f 61 67 66
f 65 61 66
f 60 61 65
f 67 61 62
f 68 64 65
f 68 65 66
f 71 70 69
f 73 72 69
f 73 69 70
f 75 74 72
f 75 72 73
f 76 74 75
f 79 78 77
f 77 78 71
f 69 77 71
f 80 77 69
f 81 69 72
f 80 69 81
f 14 81 13
f 81 74 13
f 81 72 74
f 83 82 15
f 83 15 13
f 76 83 13
f 74 76 13
f 84 82 83
f 79 77 85
f 79 85 86
f 18 85 17
f 85 80 17
f 85 77 80
f 17 80 20
f 20 80 81
f 20 81 14
f 87 22 82
f 82 22 15
f 82 84 88
f 82 88 87
f 86 85 24
f 25 86 24
f 89 86 25
f 24 85 18
f 92 91 90
f 90 93 92
f 94 29 87
f 87 29 22
f 87 88 95
f 87 95 94
f 31 89 25
f 31 96 89
f 99 98 97
f 99 97 91
f 97 90 91
f 97 100 90
f 93 90 101
f 101 90 100
f 94 35 29
f 36 35 94
f 95 36 94
f 102 36 95
f 38 104 103
f 96 38 103
f 31 38 96
f 103 104 98
f 104 97 98
f 104 105 97
f 97 106 100
f 97 105 106
f 101 100 107
f 107 100 106
f 102 42 36
f 108 42 102
f 110 109 104
f 38 110 104
f 44 110 38
f 112 111 109
f 111 104 109
f 111 105 104
f 105 113 106
f 105 111 113
f 107 106 114
f 114 106 113
f 108 48 42
f 115 48 108
f 50 110 44
f 50 116 110
f 112 117 111
f 119 118 117
f 118 111 117
f 118 113 111
f 114 113 120
f 120 113 118
f 115 55 48
f 121 55 115
f 50 56 122
f 123 50 122
f 116 50 123
f 57 124 56
f 56 124 122
f 119 125 118
f 124 57 58
f 118 125 120
f 121 62 55
f 126 62 121
f 127 123 122
f 129 128 127
f 122 129 127
f 124 129 122
f 63 130 58
f 130 124 58
f 130 129 124
f 64 130 63
f 131 66 67
f 132 131 67
f 62 132 67
f 126 132 62
f 133 128 129
f 133 129 130
f 133 130 134
f 136 134 135
f 135 134 68
f 134 130 68
f 130 64 68
f 66 131 68
f 131 135 68
f 131 137 135
f 131 132 138
f 131 138 137
f 139 136 135
f 139 135 137
f 139 137 140
f 140 137 138
f 143 142 141
f 145 144 141
f 145 141 142
f 146 144 145
f 149 148 147
f 70 71 147
f 148 70 147
f 150 70 148
f 141 73 143
f 73 150 143
f 73 70 150
f 73 141 75
f 75 141 144
f 152 151 76
f 152 76 75
f 146 152 75
f 144 146 75
f 153 151 152
f 149 147 78
f 79 149 78
f 154 149 79
f 78 147 71
f 157 156 155
f 159 158 156
f 156 158 155
f 159 160 158
f 151 83 76
f 84 83 151
f 153 84 151
f 161 84 153
f 86 163 162
f 154 86 162
f 79 86 154
f 162 163 157
f 163 156 157
f 163 164 156
f 156 165 159
f 156 164 165
f 160 159 166
f 166 159 165
f 161 88 84
f 167 88 161
f 89 168 163
f 89 163 86
f 163 169 164
f 163 168 169
f 169 91 92
f 165 169 92
f 164 169 165
f 92 93 165
f 93 166 165
f 93 170 166
f 167 95 88
f 171 95 167
f 96 172 168
f 96 168 89
f 172 98 99
f 169 172 99
f 168 172 169
f 169 99 91
f 101 174 173
f 170 101 173
f 93 101 170
f 174 175 173
f 171 102 95
f 176 102 171
f 103 172 96
f 172 103 98
f 107 177 174
f 107 174 101
f 175 174 178
f 178 174 177
f 176 108 102
f 179 108 176
f 110 180 109
f 180 112 109
f 182 181 177
f 107 182 177
f 114 182 107
f 177 181 178
f 179 115 108
f 183 115 179
f 116 184 180
f 116 180 110
f 185 117 112
f 180 185 112
f 184 185 180
f 185 119 117
f 120 182 114
f 120 186 182
f 189 188 187
f 183 189 187
f 121 183 187
f 115 183 121
f 123 190 184
f 123 184 116
f 184 191 185
f 184 190 191
f 185 191 119
f 191 192 119
f 192 125 119
f 191 193 192
f 120 125 186
f 186 125 192
f 188 194 187
f 121 187 194
f 195 121 194
f 126 121 195
f 190 123 127
f 198 197 196
f 199 197 198
f 197 199 128
f 191 128 199
f 128 191 127
f 190 127 191
f 191 199 193
f 195 132 126
f 200 132 195
f 201 196 197
f 203 201 202
f 202 201 133
f 201 197 133
f 197 128 133
f 134 204 133
f 133 204 202
f 136 204 134
f 200 138 132
f 205 138 200
f 206 203 202
f 206 202 204
f 206 204 207
f 209 207 208
f 208 207 139
f 207 204 139
f 204 136 139
f 208 139 210
f 139 211 210
f 139 140 211
f 140 138 205
f 140 205 211
f 212 209 208
f 212 208 210
f 215 214 213
f 217 216 213
f 217 213 214
f 218 216 217
f 221 220 219
f 223 222 219
f 223 219 220
f 222 223 215
f 222 215 213
f 143 222 213
f 142 143 213
f 142 213 145
f 145 213 216
f 146 145 216
f 218 146 216
f 224 146 218
f 221 219 148
f 149 221 148
f 225 221 149
f 148 219 150
f 150 219 222
f 150 222 143
f 228 227 226
f 227 229 226
f 224 230 146
f 146 230 152
f 153 152 230
f 153 230 231
f 154 233 232
f 225 154 232
f 149 154 225
f 157 155 233
f 155 232 233
f 155 234 232
f 158 227 228
f 234 158 228
f 155 158 234
f 236 235 160
f 160 235 158
f 235 229 158
f 229 227 158
f 236 237 235
f 239 161 238
f 161 231 238
f 161 153 231
f 240 239 238
f 162 233 154
f 233 162 157
f 242 241 236
f 160 242 236
f 166 242 160
f 236 241 237
f 243 167 239
f 239 167 161
f 239 240 244
f 239 244 243
f 170 242 166
f 170 245 242
f 247 246 243
f 246 167 243
f 246 171 167
f 247 243 244
f 248 245 170
f 248 170 173
f 173 175 248
f 248 175 249
f 246 176 171
f 250 176 246
f 178 249 175
f 178 251 249
f 250 179 176
f 252 179 250
f 254 253 181
f 254 181 182
f 178 181 251
f 251 181 253
f 252 183 179
f 255 183 252
f 186 254 182
f 186 256 254
f 258 257 189
f 189 257 188
f 189 183 255
f 189 255 258
f 193 259 192
f 259 260 192
f 260 186 192
f 260 256 186
f 257 261 188
f 188 261 194
f 195 194 261
f 195 261 262
f 264 263 198
f 264 198 196
f 263 266 265
f 199 263 265
f 198 263 199
f 265 267 199
f 199 267 193
f 267 268 193
f 268 259 193
f 259 268 260
f 262 200 195
f 269 200 262
f 196 201 270
f 271 196 270
f 264 196 271
f 266 272 265
f 270 201 203
f 265 272 267
f 269 205 200
f 273 205 269
f 274 271 270
f 274 270 203
f 206 274 203
f 275 274 206
f 277 275 276
f 275 207 276
f 275 206 207
f 209 276 207
f 278 210 211
f 279 278 211
f 205 279 211
f 273 279 205
f 280 277 276
f 280 276 209
f 212 280 209
f 281 280 212
f 212 210 278
f 282 212 278
f 281 212 282
f 282 278 279
f 284 283 214
f 284 214 215
f 214 285 217
f 283 285 214
f 218 217 285
f 218 285 286
f 288 287 220
f 288 220 221
f 220 289 223
f 287 289 220
f 215 223 284
f 284 223 289
f 286 224 218
f 290 224 286
f 225 292 291
f 288 225 291
f 221 225 288
f 294 293 292
f 292 293 291
f 228 226 294
f 226 293 294
f 226 295 293
f 226 229 295
f 295 229 296
f 290 297 224
f 224 297 230
f 231 230 297
f 231 297 298
f 232 292 225
f 292 232 234
f 292 234 294
f 294 234 228
f 299 296 229
f 299 229 235
f 235 237 299
f 299 237 300
f 298 301 231
f 231 301 238
f 240 238 301
f 240 301 302
f 242 303 241
f 303 304 241
f 304 237 241
f 304 300 237
f 302 244 240
f 305 244 302
f 307 306 303
f 242 307 303
f 245 307 242
f 303 306 304
f 309 308 247
f 247 308 246
f 247 244 305
f 247 305 309
f 245 248 310
f 311 245 310
f 307 245 311
f 249 310 248
f 308 250 246
f 312 250 308
f 313 311 310
f 310 249 313
f 249 314 313
f 249 251 314
f 312 252 250
f 315 252 312
f 317 316 253
f 317 253 254
f 251 253 314
f 314 253 316
f 315 255 252
f 318 255 315
f 256 317 254
f 256 319 317
f 320 257 258
f 321 320 258
f 255 321 258
f 318 321 255
f 260 323 322
f 319 260 322
f 256 260 319
f 320 261 257
f 324 322 323
f 262 261 320
f 321 262 320
f 325 262 321
f 264 326 263
f 326 266 263
f 328 327 268
f 328 268 267
f 260 268 323
f 268 329 323
f 268 327 329
f 323 329 324
f 325 269 262
f 330 269 325
f 332 331 326
f 264 332 326
f 271 332 264
f 326 331 266
f 331 272 266
f 331 333 272
f 267 272 328
f 328 272 333
f 336 335 334
f 330 336 334
f 273 330 334
f 269 330 273
f 271 274 337
f 338 271 337
f 332 271 338
f 275 339 274
f 274 339 337
f 277 339 275
f 334 335 340
f 340 335 341
f 340 279 273
f 340 273 334
f 342 338 337
f 342 337 339
f 342 339 343
f 343 339 277
f 280 343 277
f 344 343 280
f 345 280 281
f 345 344 280
f 282 340 341
f 345 282 341
f 281 282 345
f 340 282 279
f 348 347 346
f 283 284 346
f 347 283 346
f 349 283 347
f 283 350 285
f 349 350 283
f 286 285 350
f 286 350 351
f 353 352 287
f 353 287 288
f 346 289 348
f 289 352 348
f 289 287 352
f 289 346 284
f 351 290 286
f 354 290 351
f 355 353 288
f 355 288 291
f 356 291 293
f 356 355 291
f 358 356 357
f 356 295 357
f 356 293 295
f 296 357 295
f 354 359 290
f 290 359 297
f 298 297 359
f 298 359 360
f 358 357 361
f 358 361 362
f 361 357 296
f 363 361 296
f 299 363 296
f 364 361 363
f 299 300 363
f 363 300 365
f 301 298 366
f 298 367 366
f 298 360 367
f 366 302 301
f 362 361 368
f 362 368 369
f 361 364 370
f 361 370 368
f 304 365 300
f 304 371 365
f 366 367 372
f 372 367 373
f 372 305 302
f 372 302 366
f 369 368 374
f 369 374 375
f 376 306 307
f 368 376 307
f 374 368 307
f 376 368 370
f 304 377 371
f 377 304 378
f 306 378 304
f 378 306 379
f 376 379 306
f 377 378 373
f 373 378 372
f 378 308 372
f 308 309 372
f 372 309 305
f 380 375 374
f 374 307 380
f 307 381 380
f 307 311 381
f 379 382 378
f 308 378 382
f 383 308 382
f 312 308 383
f 311 313 384
f 385 311 384
f 381 311 385
f 314 384 313
f 383 315 312
f 386 315 383
f 385 384 316
f 317 385 316
f 387 385 317
f 316 384 314
f 386 318 315
f 388 318 386
f 319 387 317
f 319 389 387
f 388 321 318
f 390 321 388
f 391 389 319
f 391 319 322
f 322 324 391
f 391 324 392
f 390 325 321
f 393 325 390
f 328 394 327
f 395 329 327
f 395 327 394
f 395 396 329
f 396 324 329
f 396 392 324
f 393 330 325
f 397 330 393
f 399 398 331
f 399 331 332
f 331 400 333
f 398 400 331
f 328 333 394
f 333 401 394
f 333 400 401
f 394 401 395
f 395 401 402
f 403 335 336
f 402 396 395
f 404 403 336
f 330 404 336
f 397 404 330
f 338 399 332
f 338 405 399
f 407 406 403
f 406 335 403
f 406 341 335
f 407 403 404
f 408 405 338
f 408 338 342
f 409 342 343
f 409 408 342
f 410 343 344
f 410 409 343
f 412 410 411
f 410 345 411
f 410 344 345
f 413 411 345
f 341 413 345
f 406 413 341
f 414 412 411
f 414 411 413
f 416 415 347
f 416 347 348
f 347 417 349
f 415 417 347
f 349 418 350
f 417 418 349
f 351 350 418
f 351 418 419
f 421 420 352
f 421 352 353
f 348 352 416
f 416 352 420
f 419 354 351
f 422 354 419
f 423 421 353
f 423 353 355
f 424 355 356
f 424 423 355
f 356 358 424
f 424 358 425
f 359 354 426
f 354 427 426
f 354 422 427
f 426 360 359
f 362 425 358
f 362 428 425
f 429 364 363
f 430 429 427
f 363 427 429
f 427 363 426
f 365 426 363
f 426 365 431
f 431 367 360
f 431 360 426
f 369 428 362
f 369 432 428
f 433 370 429
f 429 370 364
f 431 365 434
f 371 434 365
f 435 429 430
f 429 435 433
f 434 373 367
f 434 367 431
f 375 432 369
f 375 436 432
f 433 376 370
f 371 377 434
f 376 433 379
f 435 379 433
f 379 435 437
f 434 377 373
f 438 436 375
f 438 375 380
f 380 381 438
f 438 381 439
f 437 440 379
f 379 440 382
f 383 382 440
f 383 440 441
f 385 439 381
f 385 442 439
f 441 386 383
f 443 386 441
f 387 442 385
f 387 444 442
f 443 388 386
f 445 388 443
f 389 447 446
f 444 389 446
f 387 389 444
f 447 448 446
f 445 390 388
f 449 390 445
f 447 389 391
f 452 451 450
f 451 452 392
f 452 448 392
f 447 391 392
f 447 392 448
f 449 393 390
f 453 393 449
f 456 455 454
f 454 455 450
f 451 454 450
f 457 454 451
f 396 457 392
f 392 457 451
f 453 397 393
f 458 397 453
f 460 459 398
f 460 398 399
f 398 461 400
f 459 461 398
f 454 401 456
f 401 461 456
f 401 400 461
f 401 454 402
f 402 454 457
f 402 457 396
f 464 463 462
f 458 462 463
f 404 458 463
f 397 458 404
f 405 460 399
f 405 465 460
f 463 464 407
f 464 406 407
f 464 466 406
f 463 407 404
f 467 465 405
f 467 405 408
f 468 408 409
f 468 467 408
f 469 409 410
f 469 468 409
f 410 412 469
f 469 412 470
f 466 413 406
f 471 413 466
f 472 470 412
f 472 412 414
f 414 413 471
f 414 471 472
f 416 473 415
f 415 473 474
f 475 415 474
f 417 415 475
f 417 476 418
f 475 476 417
f 419 418 476
f 419 476 477
f 421 478 420
f 478 479 420
f 420 479 416
f 479 480 416
f 480 473 416
f 473 480 474
f 477 422 419
f 481 422 477
f 423 478 421
f 423 424 478
f 424 482 478
f 482 479 478
f 424 483 482
f 485 483 484
f 483 424 484
f 425 486 484
f 425 484 424
f 486 487 484
f 481 427 422
f 488 427 481
f 489 482 483
f 428 490 425
f 428 483 490
f 483 428 489
f 491 489 428
f 489 491 485
f 490 485 491
f 491 486 490
f 490 486 425
f 483 485 490
f 487 486 492
f 486 493 492
f 486 491 493
f 488 492 493
f 430 488 493
f 427 488 430
f 495 494 491
f 428 495 491
f 432 495 428
f 491 494 493
f 493 494 496
f 430 493 496
f 497 430 496
f 435 430 497
f 436 499 498
f 495 436 498
f 432 436 495
f 499 500 498
f 497 437 435
f 501 437 497
f 438 499 436
f 438 439 499
f 439 500 499
f 439 502 500
f 501 503 437
f 437 503 440
f 441 440 503
f 441 503 504
f 442 502 439
f 442 505 502
f 504 443 441
f 506 443 504
f 444 505 442
f 444 507 505
f 506 445 443
f 508 445 506
f 509 507 444
f 509 444 446
f 446 448 509
f 509 448 510
f 512 449 511
f 449 508 511
f 449 445 508
f 513 512 511
f 515 514 452
f 515 452 450
f 448 452 510
f 510 452 514
f 517 516 512
f 516 449 512
f 516 453 449
f 517 512 513
f 519 518 455
f 519 455 456
f 450 455 515
f 515 455 518
f 516 458 453
f 520 458 516
f 522 521 459
f 522 459 460
f 459 523 461
f 521 523 459
f 456 461 519
f 519 461 523
f 525 524 462
f 462 524 464
f 462 458 520
f 462 520 525
f 465 522 460
f 465 526 522
f 524 466 464
f 527 466 524
f 528 526 465
f 528 465 467
f 529 467 468
f 529 528 467
f 530 468 469
f 530 529 468
f 469 470 530
f 530 470 531
f 527 471 466
f 532 471 527
f 533 531 470
f 533 470 472
f 472 471 532
f 472 532 533
f 535 534 475
f 535 475 474
f 475 536 476
f 534 536 475
f 477 476 536
f 477 536 537
f 539 538 480
f 539 480 479
f 474 480 535
f 535 480 538
f 537 481 477
f 540 481 537
f 482 539 479
f 482 541 539
f 543 542 484
f 484 542 485
f 484 487 543
f 543 487 544
f 540 488 481
f 545 488 540
f 546 541 482
f 546 482 489
f 489 485 542
f 489 542 546
f 547 544 487
f 547 487 492
f 492 488 545
f 492 545 547
f 495 548 494
f 549 496 494
f 549 494 548
f 549 497 496
f 498 548 495
f 549 548 550
f 548 500 550
f 500 551 550
f 500 548 498
f 497 549 550
f 552 497 550
f 501 497 552
f 502 551 500
f 502 553 551
f 503 501 554
f 501 555 554
f 501 552 555
f 554 504 503
f 505 553 502
f 505 556 553
f 554 555 557
f 557 555 558
f 557 506 504
f 557 504 554
f 507 556 505
f 507 559 556
f 558 560 557
f 506 557 560
f 561 506 560
f 508 506 561
f 562 559 507
f 562 507 509
f 509 510 562
f 562 510 563
f 561 564 508
f 508 564 511
f 513 511 564
f 513 564 565
f 567 566 514
f 567 514 515
f 510 514 563
f 563 514 566
f 569 568 517
f 517 568 516
f 517 513 565
f 517 565 569
f 571 570 518
f 571 518 519
f 515 518 567
f 567 518 570
f 568 520 516
f 572 520 568
f 574 573 521
f 574 521 522
f 521 575 523
f 573 575 521
f 519 523 571
f 571 523 575
f 577 576 525
f 525 576 524
f 525 520 572
f 525 572 577
f 526 579 578
f 574 526 578
f 522 526 574
f 579 580 578
f 576 527 524
f 581 527 576
f 528 579 526
f 582 580 579
f 528 582 579
f 529 582 528
f 583 529 530
f 583 582 529
f 530 531 583
f 583 531 584
f 581 532 527
f 585 532 581
f 586 584 531
f 586 531 533
f 533 532 585
f 533 585 586
f 588 587 534
f 588 534 535
f 534 589 536
f 587 589 534
f 537 536 589
f 537 589 590
f 539 591 538
f 591 592 538
f 592 535 538
f 592 588 535
f 590 540 537
f 593 540 590
f 596 595 594
f 595 597 591
f 541 595 591
f 539 541 591
f 594 595 541
f 542 597 598
f 597 542 591
f 543 591 542
f 591 543 592
f 599 592 543
f 543 544 599
f 599 544 600
f 593 545 540
f 601 545 593
f 602 596 594
f 602 594 541
f 546 602 541
f 603 602 546
f 546 542 598
f 546 598 603
f 544 547 604
f 605 544 604
f 600 544 605
f 606 604 547
f 545 606 547
f 601 606 545
f 607 605 604
f 607 604 606
f 551 608 550
f 608 552 550
f 553 609 608
f 553 608 551
f 609 555 552
f 609 552 608
f 611 610 609
f 553 611 609
f 556 611 553
f 558 555 609
f 612 558 609
f 610 612 609
f 558 612 613
f 614 613 612
f 559 611 556
f 559 615 611
f 613 560 558
f 561 560 613
f 614 561 613
f 616 561 614
f 559 562 617
f 618 559 617
f 615 559 618
f 563 617 562
f 564 561 619
f 561 620 619
f 561 616 620
f 619 565 564
f 623 622 621
f 621 622 618
f 621 618 617
f 567 621 617
f 566 567 617
f 566 617 563
f 619 620 569
f 620 568 569
f 620 624 568
f 619 569 565
f 627 626 625
f 628 625 626
f 623 621 570
f 571 623 570
f 629 623 571
f 570 621 567
f 632 631 630
f 624 632 630
f 572 624 630
f 568 624 572
f 627 625 573
f 574 627 573
f 633 627 574
f 628 634 625
f 634 573 625
f 634 575 573
f 571 575 629
f 629 575 634
f 630 631 577
f 631 576 577
f 631 635 576
f 630 577 572
f 636 633 574
f 636 574 578
f 578 580 636
f 636 580 637
f 635 581 576
f 638 581 635
f 639 637 580
f 639 580 582
f 640 582 583
f 640 639 582
f 642 641 584
f 641 583 584
f 641 640 583
f 638 641 642
f 585 638 642
f 581 638 585
f 586 642 584
f 642 586 585
f 588 643 587
f 644 589 587
f 644 587 643
f 644 590 589
f 592 645 643
f 592 643 588
f 647 644 646
f 644 645 646
f 644 643 645
f 590 644 647
f 648 590 647
f 593 590 648
f 650 649 595
f 650 595 596
f 595 651 597
f 649 651 595
f 651 652 597
f 651 592 652
f 592 651 645
f 653 645 651
f 645 653 599
f 652 599 653
f 653 598 652
f 652 598 597
f 592 599 652
f 599 600 645
f 600 646 645
f 600 654 646
f 648 601 593
f 655 601 648
f 596 602 656
f 657 596 656
f 650 596 657
f 603 658 602
f 602 658 656
f 598 653 659
f 658 598 659
f 660 658 659
f 603 598 658
f 659 654 660
f 654 605 660
f 654 600 605
f 655 606 601
f 661 606 655
f 662 657 656
f 662 656 658
f 662 658 663
f 665 664 663
f 658 665 663
f 660 665 658
f 665 660 605
f 666 665 605
f 607 666 605
f 667 665 666
f 607 606 661
f 607 661 666
f 668 664 665
f 668 665 667
f 611 669 610
f 670 612 610
f 670 610 669
f 670 614 612
f 673 672 671
f 672 674 669
f 615 672 669
f 611 615 669
f 671 672 615
f 676 675 674
f 675 669 674
f 675 670 669
f 675 616 614
f 675 614 670
f 673 671 677
f 673 677 678
f 618 677 615
f 615 677 671
f 675 676 679
f 679 676 680
f 679 620 616
f 679 616 675
f 678 677 622
f 623 678 622
f 681 678 623
f 622 677 618
f 679 680 682
f 682 680 683
f 682 624 620
f 682 620 679
f 685 684 626
f 685 626 627
f 687 686 628
f 626 687 628
f 684 687 626
f 687 681 686
f 681 629 686
f 681 623 629
f 682 683 632
f 683 631 632
f 683 688 631
f 682 632 624
f 633 685 627
f 633 689 685
f 686 634 628
f 634 686 629
f 688 635 631
f 690 635 688
f 691 689 633
f 691 633 636
f 693 692 637
f 692 636 637
f 692 691 636
f 693 694 692
f 690 638 635
f 695 638 690
f 639 693 637
f 696 694 693
f 639 696 693
f 640 696 639
f 697 640 641
f 697 696 640
f 641 638 695
f 641 695 697
f 646 698 647
f 698 648 647
f 650 699 649
f 649 699 700
f 701 649 700
f 651 649 701
f 703 702 653
f 651 703 653
f 701 703 651
f 703 704 698
f 654 703 698
f 646 654 698
f 702 703 654
f 648 698 704
f 705 648 704
f 655 648 705
f 707 706 699
f 650 707 699
f 657 707 650
f 699 706 700
f 702 659 653
f 659 702 654
f 705 661 655
f 708 661 705
f 657 662 709
f 710 657 709
f 707 657 710
f 663 711 662
f 662 711 709
f 664 711 663
f 712 667 666
f 713 712 666
f 661 713 666
f 708 713 661
f 714 710 709
f 714 709 711
f 714 711 715
f 715 711 664
f 668 715 664
f 716 715 668
f 668 667 712
f 717 668 712
f 716 668 717
f 717 712 713
f 673 718 672
f 672 718 719
f 720 672 719
f 674 672 720
f 676 674 720
f 676 720 721
f 724 723 722
f 726 725 722
f 726 722 723
f 678 727 673
f 727 725 673
f 726 673 725
f 673 726 718
f 728 718 726
f 718 728 727
f 727 729 718
f 678 729 727
f 727 728 725
f 719 718 730
f 730 718 729
f 721 680 676
f 731 680 721
f 724 722 732
f 724 732 733
f 734 722 725
f 732 722 734
f 681 729 678
f 729 681 735
f 734 735 681
f 735 734 728
f 725 728 734
f 729 735 730
f 731 683 680
f 736 683 731
f 733 732 684
f 685 733 684
f 737 733 685
f 684 732 687
f 687 732 734
f 687 734 681
f 736 688 683
f 738 688 736
f 689 740 739
f 737 689 739
f 685 689 737
f 742 741 740
f 740 741 739
f 742 743 741
f 738 690 688
f 744 690 738
f 691 740 689
f 740 691 692
f 740 692 742
f 746 745 694
f 694 745 692
f 745 743 692
f 743 742 692
f 748 747 746
f 746 747 745
f 744 747 748
f 695 744 748
f 690 744 695
f 696 746 694
f 746 696 697
f 746 697 748
f 748 697 695
f 700 749 701
f 750 703 701
f 750 701 749
f 751 704 703
f 751 703 750
f 751 705 704
f 707 752 706
f 752 753 706
f 706 753 700
f 753 754 700
f 754 749 700
f 749 754 750
f 750 754 755
f 750 755 751
f 751 755 756
f 705 751 756
f 757 705 756
f 708 705 757
f 759 758 752
f 707 759 752
f 710 759 707
f 752 758 753
f 757 713 708
f 760 713 757
f 710 714 761
f 762 710 761
f 759 710 762
f 715 763 714
f 714 763 761
f 716 764 715
f 715 764 763
f 717 765 716
f 716 765 764
f 766 765 717
f 713 766 717
f 760 766 713
f 762 761 767
f 762 767 768
f 769 761 763
f 767 761 769
f 770 763 764
f 769 763 770
f 771 764 765
f 770 764 771
f 765 766 772
f 765 772 771
f 768 767 773
f 768 773 774
f 775 767 769
f 773 767 775
f 776 769 770
f 775 769 776
f 777 770 771
f 776 770 777
f 771 772 778
f 771 778 777
f 774 773 779
f 774 779 780
f 781 773 775
f 779 773 781
f 782 775 776
f 781 775 782
f 719 782 720
f 782 777 720
f 782 776 777
f 721 720 777
f 778 721 777
f 783 721 778
f 780 779 723
f 724 780 723
f 784 780 724
f 723 779 726
f 726 779 781
f 726 781 728
f 781 785 728
f 781 782 785
f 730 785 719
f 719 785 782
f 783 731 721
f 786 731 783
f 733 788 787
f 784 733 787
f 724 733 784
f 788 789 787
f 785 735 728
f 735 785 730
f 786 736 731
f 790 736 786
f 737 791 788
f 737 788 733
f 789 788 792
f 788 793 792
f 788 791 793
f 793 794 792
f 790 738 736
f 795 738 790
f 739 791 737
f 791 739 741
f 791 741 793
f 797 796 743
f 743 796 741
f 796 794 741
f 794 793 741
f 799 798 797
f 797 798 796
f 795 798 799
f 744 795 799
f 738 795 744
f 745 797 743
f 797 745 747
f 797 747 799
f 799 747 744
f 753 800 754
f 801 755 754
f 801 754 800
f 802 756 755
f 802 755 801
f 802 757 756
f 759 803 758
f 800 753 758
f 803 800 758
f 804 800 803
f 800 805 801
f 800 804 805
f 807 802 806
f 802 805 806
f 802 801 805
f 757 802 807
f 808 757 807
f 760 757 808
f 762 809 803
f 762 803 759
f 803 810 804
f 803 809 810
f 812 805 811
f 805 810 811
f 805 804 810
f 805 812 806
f 808 766 760
f 813 766 808
f 768 814 809
f 768 809 762
f 809 815 810
f 809 814 815
f 811 810 816
f 816 810 815
f 813 772 766
f 817 772 813
f 774 818 814
f 774 814 768
f 814 819 815
f 814 818 819
f 816 815 820
f 820 815 819
f 817 778 772
f 821 778 817
f 780 822 818
f 780 818 774
f 818 823 819
f 818 822 823
f 820 819 824
f 824 819 823
f 821 783 778
f 825 783 821
f 784 826 822
f 784 822 780
f 822 827 823
f 822 826 827
f 824 823 828
f 828 823 827
f 825 786 783
f 829 786 825
f 787 826 784
f 826 787 789
f 830 826 789
f 827 826 830
f 828 827 831
f 827 832 831
f 827 830 832
f 834 833 832
f 832 833 831
f 829 833 834
f 790 829 834
f 786 829 790
f 792 830 789
f 830 792 794
f 835 830 794
f 832 830 835
f 832 836 834
f 832 835 836
f 836 795 790
f 836 790 834
f 796 835 794
f 835 796 798
f 835 798 836
f 836 798 795
f 806 837 807
f 837 808 807
f 811 838 812
f 837 806 812
f 838 837 812
f 839 837 838
f 839 813 808
f 839 808 837
f 816 840 838
f 816 838 811
f 838 841 839
f 838 840 841
f 841 817 813
f 841 813 839
f 820 842 840
f 820 840 816
f 840 843 841
f 840 842 843
f 843 821 817
f 843 817 841
f 824 844 842
f 824 842 820
f 842 845 843
f 842 844 845
f 845 825 821
f 845 821 843
f 828 846 844
f 828 844 824
f 844 847 845
f 844 846 847
f 847 829 825
f 847 825 845
f 831 846 828
f 846 831 833
f 846 833 847
f 847 833 829

