# https://github.com/mikedh/trimesh
v -0.02508004 -0.01022056 0.00692129
v -0.02293248 -0.01408590 0.00593694
v -0.02306843 -0.01129363 0.00442713
v -0.02336097 -0.01179332 0.00863184
v -0.02531803 -0.00565999 0.00652365
v -0.02302963 -0.00585266 0.00404991
v -0.02367787 -0.00680725 0.00958010
v -0.02527010 0.00019877 0.00646585
v -0.02271791 -0.00022099 0.00456888
v -0.02282011 -0.00049091 0.00846094
v -0.02527908 0.00601475 0.00644978
v -0.02305869 0.00650006 0.00455799
v -0.02409298 0.00525773 0.00836167
v -0.02497800 0.01060100 0.00592969
v -0.02236267 0.01274537 0.00438089
v -0.02310746 0.00995076 0.00902019
v -0.02339379 0.01339579 0.00737271
v -0.01952062 -0.02152196 0.00755015
v -0.01621071 -0.02586751 0.00670427
v -0.01724041 -0.02274648 0.00417622
v -0.01715912 -0.02310498 0.00961266
v -0.02086199 -0.01692836 0.00715307
v -0.01704853 -0.01669558 0.00385302
v -0.01704343 -0.02046850 0.01258569
v -0.01977728 -0.01669922 0.01153833
v -0.01706334 -0.01707819 0.01531876
v -0.01975458 -0.01119520 -0.02065148
v -0.01606304 -0.01396057 -0.02249804
v -0.01784686 -0.01009075 -0.02484602
v -0.02014594 -0.01118653 -0.01521146
v -0.01715410 -0.01418771 -0.01647988
v -0.02011322 -0.01100474 -0.00935191
v -0.01709531 -0.01416089 -0.01066923
v -0.01946765 -0.01032307 -0.00487100
v -0.01705396 -0.01366852 -0.00519541
v -0.01689077 -0.01160241 -0.00194342
v -0.01802787 -0.01074673 0.00398397
v -0.02075274 -0.01062994 0.01180585
v -0.01776382 -0.01251069 0.01538241
v -0.01994394 -0.00599769 -0.02157918
v -0.01768165 -0.00450291 -0.02505834
v -0.02068422 -0.00595613 -0.01651988
v -0.02071867 -0.00572563 -0.01064858
v -0.01999734 -0.00558546 -0.00550798
v -0.01764756 -0.00687674 -0.00194743
v -0.01782080 -0.00451332 0.00366897
v -0.02018737 -0.00459318 0.01148843
v -0.01770741 -0.00683013 0.01509369
v -0.01985845 -0.00009715 -0.02128739
v -0.01772736 0.00147632 -0.02484258
v -0.02057679 -0.00004102 -0.01620378
v -0.02057803 0.00026031 -0.01036065
v -0.01980489 0.00040068 -0.00534504
v -0.01752719 -0.00096854 -0.00193387
v -0.01750625 -0.00215058 0.00686690
v -0.02141804 0.00130528 0.00598630
v -0.01622355 -0.00320136 0.01352032
v -0.02007189 0.00589513 -0.02118300
v -0.01791790 0.00743155 -0.02490905
v -0.02072596 0.00593556 -0.01604238
v -0.02066976 0.00617694 -0.01017976
v -0.01985495 0.00624069 -0.00517539
v -0.01749631 0.00479494 -0.00185579
v -0.02080419 0.00625503 0.00739584
v -0.01963889 0.01064986 -0.02196449
v -0.01716041 0.01202389 -0.02492998
v -0.02018315 0.01120095 -0.01740776
v -0.02015027 0.01139926 -0.01154611
v -0.01964685 0.01139598 -0.00620037
v -0.01762540 0.01022676 -0.00222376
v -0.01548962 0.00844481 0.00696866
v -0.01780356 0.01042544 0.00399295
v -0.01811663 0.00901700 0.01140914
v -0.02045956 0.01309935 0.01182004
v -0.01620740 0.01091270 0.01465430
v -0.01671051 0.01410960 -0.02098434
v -0.01717902 0.01435174 -0.01461816
v -0.01710103 0.01441104 -0.00886585
v -0.01630805 0.01392199 -0.00360674
v -0.02130858 0.01639421 0.00715218
v -0.01724399 0.01709699 0.00365255
v -0.01990085 0.01816375 0.01112732
v -0.01644090 0.01601001 0.01489768
v -0.01953091 0.02140994 0.00667849
v -0.01663994 0.02432336 0.00420620
v -0.01700110 0.02332885 0.01003603
v -0.01707962 0.02033118 0.01302593
v -0.01719610 0.02571739 0.00663090
v -0.01389167 -0.02892864 0.00618843
v -0.01029125 -0.03049912 0.00657852
v -0.01317882 -0.02751032 0.00407412
v -0.01195520 -0.02885038 0.00937800
v -0.01142722 -0.02307815 0.00379383
v -0.01499987 -0.02267968 0.01231059
v -0.01338918 -0.02532153 0.01132180
v -0.01090617 -0.02330427 0.01498436
v -0.01234342 -0.01923440 0.00604163
v -0.01375639 -0.01553775 0.00586946
v -0.01070732 -0.01703186 0.00830158
v -0.01456113 -0.01528386 0.01844548
v -0.01307296 -0.01931512 0.01732123
v -0.01075151 -0.01719980 0.02007866
v -0.01487077 -0.01180214 -0.02724692
v -0.01097425 -0.01393861 -0.02680001
v -0.01183393 -0.01044758 -0.02969127
v -0.01195670 -0.01492449 -0.02203045
v -0.01194174 -0.01428715 -0.01677787
v -0.01254818 -0.01407620 -0.01040654
v -0.01142424 -0.01412116 -0.00437593
v -0.01466959 -0.01097721 0.00146790
v -0.01332287 -0.01436072 0.00073698
v -0.01504261 -0.01381497 0.00406251
v -0.01141125 -0.01251476 0.00336677
v -0.01439624 -0.01112668 0.00652277
v -0.01105897 -0.01268513 0.00946170
v -0.01492330 -0.00960533 0.01839791
v -0.01128786 -0.01258344 0.02070026
v -0.01479710 -0.00721084 -0.02802697
v -0.01104696 -0.00568292 -0.03016318
v -0.01487988 -0.00431505 0.00088628
v -0.01459537 -0.00525102 0.00610791
v -0.01132089 -0.00641044 0.00328941
v -0.01189373 -0.00708839 0.00975029
v -0.01484465 -0.00496001 0.01754688
v -0.01136359 -0.00675119 0.02026185
v -0.01472882 -0.00125628 -0.02784249
v -0.01117785 0.00031186 -0.02996986
v -0.01496607 0.00031989 0.00167706
v -0.01409563 -0.00321855 0.00322146
v -0.01187262 -0.00129687 0.00394620
v -0.01242099 -0.00317022 0.01205297
v -0.01161085 -0.00306373 0.01759072
v -0.01494168 0.00472226 -0.02779530
v -0.01144434 0.00621770 -0.03003267
v -0.01530417 0.00740343 0.00152771
v -0.01204217 0.00587891 0.00369475
v -0.01469666 0.01032649 -0.02790202
v -0.01047751 0.01145666 -0.02982261
v -0.01494659 0.01233516 0.00112215
v -0.01424421 0.00941119 0.00324984
v -0.01172014 0.01149333 0.00353529
v -0.01422377 0.01175989 0.00605594
v -0.01213771 0.01125254 0.00976583
v -0.01305845 0.00945791 0.01250169
v -0.01210878 0.01268528 0.01483687
v -0.01237230 0.01421322 -0.02611286
v -0.01188342 0.01511330 -0.02194508
v -0.01149243 0.01440245 -0.01752710
v -0.01255779 0.01429243 -0.01163809
v -0.01190351 0.01449897 -0.00516250
v -0.01234493 0.01465187 0.00123440
v -0.01507447 0.01389670 0.00396395
v -0.01365175 0.01675857 0.00523497
v -0.01141892 0.01552479 0.00927954
v -0.01065006 0.01803706 0.01495488
v -0.01003883 0.01985491 0.00728461
v -0.01313067 0.02226191 0.00390070
v -0.01481927 0.02298122 0.01258823
v -0.01207493 0.02232908 0.01475130
v -0.01462442 0.02830545 0.00569649
v -0.01130453 0.02791810 0.00396445
v -0.01335106 0.02807057 0.00897209
v -0.01179548 0.02608020 0.01247887
v -0.01056943 0.03072706 0.00768022
v -0.00472560 -0.03120017 0.00704061
v -0.00754583 -0.02815891 0.00381337
v -0.00941024 -0.02789314 0.01305649
v -0.00709722 -0.03083488 0.01115612
v -0.00573348 -0.02808379 0.01467406
v -0.00494494 -0.02420380 0.00432105
v -0.00462768 -0.02284461 0.01529442
v -0.00626428 -0.02034018 0.00723919
v -0.00653530 -0.01652441 0.01018516
v -0.00635405 -0.01956458 0.01762880
v -0.00607477 -0.01662776 0.02064011
v -0.00505597 -0.01405285 -0.02797013
v -0.00724413 -0.01102966 -0.03025722
v -0.00704958 -0.01408665 -0.02226365
v -0.00860848 -0.01117028 -0.01572416
v -0.00608666 -0.01006832 -0.01944970
v -0.00964838 -0.01097364 -0.01020070
v -0.00881976 -0.01086819 -0.00512642
v -0.00616895 -0.01162990 -0.00204485
v -0.00637262 -0.01352246 0.00062682
v -0.00583984 -0.01098191 0.00339994
v -0.00708412 -0.01361095 0.01190849
v -0.00875312 -0.00943289 0.01226098
v -0.00481501 -0.01229555 0.01414043
v -0.00620775 -0.01121773 0.02131030
v -0.00590529 -0.00573153 -0.03077275
v -0.00836768 -0.00597906 -0.01548894
v -0.00617510 -0.00449070 -0.01921945
v -0.00912094 -0.00577181 -0.01022845
v -0.00839852 -0.00547837 -0.00506213
v -0.00526885 -0.00698522 -0.00224416
v -0.00598931 -0.00563972 0.00397822
v -0.00911290 -0.00516230 0.01313678
v -0.00498163 -0.00570225 0.01523289
v -0.00568821 -0.00507986 0.02061726
v -0.00615815 0.00026746 -0.03061395
v -0.00843300 -0.00010843 -0.01561430
v -0.00611006 0.00143805 -0.01931290
v -0.00928069 0.00009517 -0.01037785
v -0.00868289 0.00045787 -0.00510377
v -0.00556563 -0.00099251 -0.00215689
v -0.00597979 0.00018421 0.00381652
v -0.00688738 -0.00244000 0.01728159
v -0.00644391 0.00619906 -0.03068634
v -0.00823459 0.00584706 -0.01551665
v -0.00591534 0.00736013 -0.01908341
v -0.00914416 0.00597953 -0.01040795
v -0.00866469 0.00632685 -0.00518226
v -0.00580151 0.00489005 -0.00218866
v -0.00594989 0.00597968 0.00385472
v -0.00511926 0.01142342 -0.03017001
v -0.00880060 0.01116530 -0.01538466
v -0.00664544 0.01195762 -0.01898261
v -0.00962405 0.01121003 -0.01037741
v -0.00877651 0.01149443 -0.00489209
v -0.00525699 0.01098848 -0.00156470
v -0.00602667 0.01128332 0.00334741
v -0.01013522 0.01238445 0.01238182
v -0.00713686 0.01430855 -0.02797633
v -0.00631013 0.01425302 -0.02306115
v -0.00651108 0.01395648 0.00034420
v -0.00960884 0.01637590 0.01227533
v -0.00556813 0.02081594 0.00762737
v -0.00717192 0.02432147 0.00400623
v -0.00738045 0.01937694 0.01174450
v -0.00606954 0.02283324 0.01519650
v -0.00551744 0.02903126 0.00391446
v -0.00918628 0.02965756 0.01161024
v -0.00688945 0.02773818 0.01447971
v -0.00616764 0.03145834 0.00699318
v -0.00561893 0.03119597 0.01176651
v 0.00107649 -0.03123643 0.00700506
v -0.00051415 -0.02745664 0.00421928
v -0.00176671 -0.03126186 0.01188004
v -0.00043215 -0.02806999 0.01504857
v -0.00089311 -0.02427565 0.00586154
v -0.00291704 -0.02264546 0.00644419
v -0.00094720 -0.02211821 0.00807094
v 0.00046847 -0.02393902 0.01524670
v -0.00050534 -0.02014069 0.01135672
v -0.00412815 -0.01726153 0.01358485
v -0.00100336 -0.01901805 0.01873397
v 0.00019315 -0.01632274 0.01530245
v -0.00023892 -0.01664774 0.02057828
v 0.00005773 -0.01380352 -0.02664002
v -0.00140093 -0.01117201 -0.03018715
v -0.00319250 -0.01184558 -0.02284628
v -0.00008117 -0.01107695 -0.02393704
v -0.00001543 -0.01337119 0.00122923
v -0.00134678 -0.01100011 -0.00094060
v -0.00024180 -0.01108641 0.00341066
v -0.00111620 -0.01062985 0.01522164
v -0.00032365 -0.01130655 0.02124820
v -0.00004021 -0.00587100 -0.03071305
v -0.00324793 -0.00727987 -0.02210203
v -0.00042618 -0.00578216 -0.02368296
v -0.00012373 -0.00563918 -0.00154659
v -0.00033852 -0.00578905 0.00398828
v 0.00041610 -0.00648762 0.01527864
v 0.00040430 -0.00623628 0.02117458
v -0.00033639 0.00010978 -0.03058759
v -0.00327377 -0.00137452 -0.02223281
v -0.00033935 0.00011275 -0.02378882
v -0.00034151 0.00027967 -0.00147938
v -0.00028158 0.00008898 0.00388464
v -0.00327957 0.00082888 0.01813116
v -0.00058055 -0.00045339 0.01585090
v -0.00083495 -0.00092644 0.02051981
v -0.00067687 0.00609086 -0.03071435
v -0.00312337 0.00453998 -0.02223438
v -0.00021640 0.00600393 -0.02366292
v -0.00054998 0.00613634 -0.00150624
v -0.00029786 0.00600191 0.00396285
v -0.00241913 0.00602844 0.01814142
v -0.00003973 0.00575599 0.01594804
v -0.00003158 0.00478435 0.02041290
v 0.00064449 0.01137823 -0.03018761
v -0.00332601 0.01014093 -0.02203978
v -0.00056875 0.01130873 -0.02392635
v 0.00070917 0.01135952 -0.00094274
v -0.00046103 0.01132943 0.00339314
v -0.00265984 0.01218888 0.01763198
v -0.00000689 0.01107057 0.01493814
v -0.00015782 0.01035507 0.02045346
v -0.00079543 0.01401594 -0.02664603
v -0.00065606 0.01365425 0.00123272
v -0.00334003 0.01786003 0.01318049
v 0.00114017 0.01465047 0.01241498
v -0.00015053 0.01767677 0.01043085
v -0.00298694 0.01835577 0.01829825
v -0.00021559 0.01608325 0.02056949
v -0.00297342 0.02384215 0.00565349
v -0.00088856 0.02117185 0.00835132
v -0.00276168 0.02297506 0.01730284
v -0.00041017 0.02154576 0.01982607
v 0.00024170 0.02467450 0.00576762
v -0.00023292 0.02774713 0.00422260
v -0.00100729 0.02787447 0.01546136
v 0.00029186 0.02496912 0.01785719
v -0.00040192 0.03145168 0.00698445
v -0.00025302 0.03150316 0.01167876
v 0.00632673 -0.03103738 0.00617920
v 0.00470479 -0.02887112 0.00385029
v 0.00456890 -0.03094807 0.01133370
v 0.00572767 -0.02689384 0.01476447
v 0.00201994 -0.02296021 0.00655791
v 0.00640984 -0.02407642 0.00404990
v 0.00519972 -0.02193414 0.01549482
v 0.00483658 -0.01989299 0.00769701
v 0.00357314 -0.01821797 0.01261589
v 0.00720882 -0.01624567 0.00974351
v 0.00421194 -0.01934887 0.01769454
v 0.00561794 -0.01670875 0.02051813
v 0.00685689 -0.01421874 -0.02731002
v 0.00433422 -0.01118444 -0.03015765
v 0.00268446 -0.00999267 -0.02216647
v 0.00498900 -0.01391624 -0.02272731
v 0.00600254 -0.01187720 -0.01925134
v 0.00589375 -0.01363798 0.00022096
v 0.00460364 -0.01056054 -0.00171901
v 0.00543579 -0.01110299 0.00336050
v 0.00477087 -0.01467135 0.01271695
v 0.00430698 -0.01050824 0.01439395
v 0.00548591 -0.01145312 0.02121423
v 0.00571602 -0.00597013 -0.03070934
v 0.00246238 -0.00445763 -0.02226799
v 0.00530118 -0.00738318 -0.01931513
v 0.00510449 -0.00431251 -0.00227151
v 0.00534466 -0.00579210 0.00393794
v 0.00478713 -0.00435091 0.01455539
v 0.00542644 -0.00556154 0.02113947
v 0.00548263 -0.00004235 -0.03061608
v 0.00259871 0.00143099 -0.02222793
v 0.00545206 -0.00157249 -0.01934146
v 0.00490740 0.00156343 -0.00212892
v 0.00533871 0.00007007 0.00385245
v 0.00463328 0.00142507 0.01452718
v 0.00536118 0.00023770 0.02113348
v 0.00516952 0.00595349 -0.03079795
v 0.00261860 0.00736295 -0.02210386
v 0.00549590 0.00434591 -0.01914576
v 0.00466050 0.00744329 -0.00224910
v 0.00526604 0.00593662 0.00393495
v 0.00457864 0.00712327 0.01459640
v 0.00527203 0.00591169 0.02118504
v 0.00647914 0.01124148 -0.03026650
v 0.00252497 0.01197012 -0.02285651
v 0.00539867 0.01003961 -0.01941287
v 0.00555071 0.01200031 -0.00209842
v 0.00508540 0.01121263 0.00331460
v 0.00405548 0.01147213 0.01408714
v 0.00522697 0.01159129 0.02130924
v 0.00516890 0.01439818 -0.02723474
v 0.00587838 0.01406900 -0.02163247
v 0.00570190 0.01373705 0.00054686
v 0.00576605 0.01362671 0.01208694
v 0.00451495 0.01753893 0.00949390
v 0.00498301 0.01756079 0.02066356
v 0.00271716 0.02219850 0.00680038
v 0.00699101 0.02065035 0.00650466
v 0.00422983 0.02457007 0.00436795
v 0.00282719 0.02236975 0.01865668
v 0.00442916 0.02458611 0.01637713
v 0.00719815 0.02041632 0.01824768
v 0.00669245 0.02851045 0.00386899
v 0.00522118 0.02839527 0.01431154
v 0.00458377 0.03131164 0.00622464
v 0.00582251 0.03129663 0.01049838
v 0.01001530 -0.03038439 0.00773755
v 0.01058936 -0.02769748 0.00395168
v 0.00885931 -0.02922298 0.01167546
v 0.01147869 -0.02882336 0.00936576
v 0.01245908 -0.02207741 0.00392475
v 0.01174873 -0.02640275 0.01144092
v 0.01011609 -0.02364942 0.01507405
v 0.00954824 -0.01971083 0.00638284
v 0.01110592 -0.01607835 0.00828969
v 0.01088339 -0.02013446 0.01731955
v 0.01069449 -0.01567627 0.02019676
v 0.01233146 -0.01387055 -0.02663241
v 0.00968552 -0.01121298 -0.02985344
v 0.01118858 -0.01493295 -0.02215658
v 0.00826205 -0.01053125 -0.01523365
v 0.01085179 -0.01424050 -0.01661260
v 0.00910751 -0.01101177 -0.00931157
v 0.01194519 -0.01400720 -0.01059733
v 0.00807731 -0.01181710 -0.00440284
v 0.01061289 -0.01405189 -0.00481870
v 0.01174142 -0.01440973 0.00126190
v 0.01112509 -0.01107178 0.00342612
v 0.00753727 -0.01185423 0.01199477
v 0.01060377 -0.01089599 0.00954657
v 0.01055217 -0.01019004 0.02048710
v 0.01071332 -0.00599687 -0.03002853
v 0.00765272 -0.00442595 -0.01571628
v 0.00847194 -0.00571129 -0.01057729
v 0.00793042 -0.00722514 -0.00540928
v 0.01030606 -0.00462363 0.00344665
v 0.00838617 -0.00708196 0.01239086
v 0.01200495 -0.00422093 0.00938935
v 0.01056218 -0.00435691 0.02039189
v 0.01050328 -0.00008875 -0.02996918
v 0.00774717 0.00142680 -0.01550521
v 0.00854965 0.00010882 -0.01037068
v 0.00799460 -0.00134622 -0.00521115
v 0.01135560 0.00004434 0.00368580
v 0.00836571 -0.00131533 0.01225819
v 0.01124961 0.00089629 0.01008003
v 0.01054652 0.00134338 0.02039983
v 0.01031003 0.00591297 -0.03015546
v 0.00761216 0.00729654 -0.01540206
v 0.00843732 0.00594151 -0.01028832
v 0.00783385 0.00449523 -0.00507186
v 0.01115425 0.00736119 0.00405706
v 0.00834366 0.00442090 0.01226015
v 0.01199270 0.00589195 0.01008451
v 0.01057751 0.00697637 0.02051189
v 0.01103648 0.01068690 -0.02964969
v 0.00778681 0.01188661 -0.01644507
v 0.00898052 0.01123478 -0.01158941
v 0.00826480 0.01068933 -0.00564409
v 0.01091397 0.01230198 0.00334009
v 0.00801040 0.00987738 0.01244040
v 0.01092868 0.01244283 0.00961058
v 0.01058027 0.01268871 0.02058921
v 0.01072785 0.01398284 -0.02726303
v 0.01118186 0.01507479 -0.02194214
v 0.01126000 0.01440600 -0.01536951
v 0.01187208 0.01429645 -0.00881073
v 0.01002372 0.01430892 -0.00350932
v 0.01261693 0.01458349 0.00075372
v 0.00990650 0.01744031 0.00838176
v 0.01012756 0.01703065 0.01998289
v 0.01155377 0.01951723 0.00612266
v 0.01058904 0.02339612 0.00386188
v 0.01007161 0.02319956 0.01528648
v 0.01088226 0.01928059 0.01824015
v 0.01233141 0.02787332 0.00410515
v 0.00893276 0.02814959 0.01273053
v 0.01097873 0.02874615 0.01005134
v 0.01132934 0.02596521 0.01233740
v 0.00954431 0.03083194 0.00655883
v 0.01368055 -0.02778261 0.00652344
v 0.01634585 -0.02485999 0.00754550
v 0.01594370 -0.02410656 0.00416878
v 0.01438541 -0.02297108 0.01235153
v 0.01770357 -0.02215589 0.00963480
v 0.01305310 -0.01656146 0.00533476
v 0.01654944 -0.01692692 0.00370167
v 0.01618870 -0.01975598 0.01375381
v 0.01424762 -0.01726677 0.01755466
v 0.01700571 -0.01556902 0.01504388
v 0.01389005 -0.01018886 -0.02794441
v 0.01630114 -0.01198129 -0.02506828
v 0.01640140 -0.01384645 -0.02176653
v 0.01646245 -0.01410867 -0.01617777
v 0.01655974 -0.01402933 -0.01037578
v 0.01537784 -0.01376836 -0.00440304
v 0.01444077 -0.01247005 0.00102441
v 0.01708722 -0.00975325 -0.00208445
v 0.01696616 -0.01183163 0.00392664
v 0.01441702 -0.01374775 0.00408942
v 0.01397070 -0.01177884 0.00632134
v 0.01414125 -0.01289267 0.01834255
v 0.01698021 -0.01014008 0.01538521
v 0.01423778 -0.00464182 -0.02780332
v 0.01709531 -0.00747978 -0.02499702
v 0.01393468 -0.00649942 0.00123855
v 0.01688723 -0.00414776 -0.00180407
v 0.01746938 -0.00520601 0.00409479
v 0.01354112 -0.00560166 0.00619767
v 0.01410740 -0.00719374 0.01823371
v 0.01705979 -0.00432579 0.01523760
v 0.01405551 0.00131355 -0.02784261
v 0.01701828 -0.00161783 -0.02493233
v 0.01457481 -0.00140657 0.00153712
v 0.01677413 0.00161600 -0.00191447
v 0.01344780 -0.00336673 0.00324092
v 0.01633311 -0.00307749 0.00673386
v 0.01624735 0.00024937 0.00982993
v 0.01417338 -0.00143688 0.01810470
v 0.01715836 0.00137413 0.01517831
v 0.01406087 0.00731317 -0.02793391
v 0.01702822 0.00435995 -0.02500849
v 0.01426586 0.00578413 0.00169845
v 0.01685654 0.00735032 -0.00186095
v 0.01620959 0.00726694 0.00943575
v 0.01421396 0.00422073 0.01815405
v 0.01719453 0.00703158 0.01532159
v 0.01411636 0.01195911 -0.02710867
v 0.01717439 0.01009236 -0.02458808
v 0.01415871 0.01148763 0.00140879
v 0.01617745 0.01190399 -0.00182133
v 0.01339396 0.00932805 0.00332576
v 0.01422370 0.01086729 0.00610875
v 0.01736329 0.00850780 0.00632079
v 0.01690059 0.01091038 0.00378484
v 0.01429116 0.00988426 0.01834677
v 0.01717260 0.01271363 0.01547162
v 0.01580015 0.01391053 -0.02299434
v 0.01655150 0.01427139 -0.01738031
v 0.01651872 0.01430852 -0.01153713
v 0.01586819 0.01413863 -0.00537359
v 0.01631454 0.01693564 0.00392100
v 0.01426027 0.01391853 0.00407299
v 0.01297841 0.01574704 0.00595914
v 0.01372736 0.01668052 0.01758384
v 0.01678594 0.01748982 0.01459850
v 0.01642613 0.02311701 0.00427615
v 0.01761047 0.02047389 0.01152964
v 0.01426635 0.02300623 0.01230660
v 0.01679191 0.02401528 0.00877931
v 0.01634971 0.02587369 0.00564052
v 0.01386103 0.02779560 0.00725094
v 0.01881996 -0.02136836 0.00650620
v 0.02043354 -0.01637550 0.00703999
v 0.01904970 -0.01833862 0.01082841
v 0.01895413 -0.01018376 -0.02142367
v 0.01941877 -0.01104686 -0.01618152
v 0.01954212 -0.01100082 -0.01023512
v 0.01894753 -0.01162899 -0.00572166
v 0.02264734 -0.01334618 0.00732430
v 0.02119051 -0.01177680 0.00423961
v 0.02004226 -0.01312221 0.01151070
v 0.02303445 -0.01007045 0.00914630
v 0.01921537 -0.00464050 -0.02138073
v 0.01997068 -0.00583103 -0.01622417
v 0.02004225 -0.00573988 -0.01026309
v 0.01938838 -0.00701481 -0.00516504
v 0.02297754 -0.00657138 0.00410318
v 0.01939387 -0.00612921 0.01161408
v 0.02226042 -0.00446505 0.00869714
v 0.01918378 0.00128392 -0.02141417
v 0.01990159 0.00004720 -0.01624343
v 0.01990309 0.00018050 -0.01031841
v 0.01912833 -0.00110719 -0.00522947
v 0.02036630 -0.00017048 0.00693519
v 0.02225256 -0.00048393 0.00467988
v 0.02331221 0.00080017 0.00839352
v 0.01878897 -0.00087974 0.01264984
v 0.01939737 0.00725171 -0.02128192
v 0.02005165 0.00596445 -0.01616228
v 0.02000245 0.00604657 -0.01027613
v 0.01916346 0.00473476 -0.00526748
v 0.02083970 0.00564757 0.00657846
v 0.02198843 0.00626000 0.00470025
v 0.01867153 0.00436521 0.01227013
v 0.02286091 0.00594870 0.00828890
v 0.01897193 0.01188286 -0.02062333
v 0.01952834 0.01122552 -0.01603259
v 0.01943126 0.01127483 -0.01025951
v 0.01892663 0.01023346 -0.00521425
v 0.02236776 0.01157756 0.00456715
v 0.02178567 0.01124242 0.00835411
v 0.01927986 0.01081966 0.01138598
v 0.02232678 0.01451620 0.00611342
v 0.02014663 0.01730575 0.00738048
v 0.01909385 0.01687517 0.01180422
v 0.01874947 0.02187806 0.00772396
v 0.02434807 -0.01045046 0.00592328
v 0.02457945 -0.00591449 0.00642098
v 0.02445251 -0.00004666 0.00653887
v 0.02457524 0.00593468 0.00663583
v 0.02433338 0.01067094 0.00705462
f 3 2 1
f 4 1 2
f 3 1 5
f 3 5 6
f 1 4 7
f 1 7 5
f 6 5 8
f 6 8 9
f 5 7 10
f 5 10 8
f 9 8 11
f 9 11 12
f 8 10 13
f 8 13 11
f 12 11 14
f 12 14 15
f 11 13 16
f 11 16 14
f 17 15 14
f 17 14 16
f 20 19 18
f 21 18 19
f 20 18 22
f 20 22 23
f 18 21 24
f 25 18 24
f 22 18 25
f 26 25 24
f 29 28 27
f 31 30 27
f 31 27 28
f 33 32 30
f 33 30 31
f 35 34 32
f 35 32 33
f 36 34 35
f 23 22 2
f 3 23 2
f 37 23 3
f 2 22 4
f 22 38 4
f 22 25 38
f 25 26 39
f 25 39 38
f 29 27 40
f 29 40 41
f 42 27 30
f 40 27 42
f 43 30 32
f 42 30 43
f 44 32 34
f 43 32 44
f 34 36 45
f 34 45 44
f 6 37 3
f 6 46 37
f 47 7 38
f 38 7 4
f 38 39 48
f 38 48 47
f 41 40 49
f 41 49 50
f 51 40 42
f 49 40 51
f 52 42 43
f 51 42 52
f 53 43 44
f 52 43 53
f 44 45 54
f 44 54 53
f 9 56 55
f 46 9 55
f 6 9 46
f 57 55 47
f 55 10 47
f 10 7 47
f 55 56 10
f 57 47 48
f 50 49 58
f 50 58 59
f 60 49 51
f 58 49 60
f 61 51 52
f 60 51 61
f 62 52 53
f 61 52 62
f 53 54 63
f 53 63 62
f 12 64 56
f 12 56 9
f 64 13 10
f 64 10 56
f 59 58 65
f 59 65 66
f 67 58 60
f 65 58 67
f 68 60 61
f 67 60 68
f 69 61 62
f 68 61 69
f 62 63 70
f 62 70 69
f 72 71 64
f 12 72 64
f 15 72 12
f 16 13 64
f 73 16 64
f 71 73 64
f 16 73 74
f 75 74 73
f 76 66 65
f 76 65 67
f 76 67 77
f 77 67 68
f 77 68 78
f 78 68 69
f 78 69 79
f 79 69 70
f 15 17 80
f 81 15 80
f 72 15 81
f 16 74 17
f 74 80 17
f 74 82 80
f 74 75 83
f 74 83 82
f 81 80 84
f 81 84 85
f 82 87 86
f 84 82 86
f 80 82 84
f 87 82 83
f 88 85 84
f 88 84 86
f 91 90 89
f 92 89 90
f 91 89 19
f 20 91 19
f 93 91 20
f 95 94 21
f 95 21 19
f 92 95 19
f 89 92 19
f 96 94 95
f 23 98 97
f 93 23 97
f 20 23 93
f 94 24 21
f 99 97 98
f 101 100 26
f 101 26 24
f 96 101 24
f 94 96 24
f 102 100 101
f 105 104 103
f 28 29 103
f 104 28 103
f 106 28 104
f 28 107 31
f 106 107 28
f 31 108 33
f 107 108 31
f 33 109 35
f 108 109 33
f 111 110 36
f 35 111 36
f 109 111 35
f 37 112 23
f 112 110 23
f 111 23 110
f 23 111 98
f 113 98 111
f 98 113 112
f 112 114 98
f 37 114 112
f 112 113 110
f 99 98 115
f 115 98 114
f 116 39 100
f 100 39 26
f 100 102 117
f 100 117 116
f 105 103 118
f 105 118 119
f 41 118 29
f 29 118 103
f 120 45 110
f 110 45 36
f 114 37 121
f 46 121 37
f 122 110 113
f 110 122 120
f 115 114 123
f 123 114 121
f 124 48 116
f 116 48 39
f 116 117 125
f 116 125 124
f 119 118 126
f 119 126 127
f 50 126 41
f 41 126 118
f 128 54 120
f 120 54 45
f 130 129 122
f 130 121 129
f 121 130 55
f 128 55 130
f 55 128 46
f 129 46 128
f 128 120 129
f 129 120 122
f 121 46 129
f 131 123 121
f 55 131 121
f 57 131 55
f 57 48 124
f 132 57 124
f 131 57 132
f 132 124 125
f 127 126 133
f 127 133 134
f 59 133 50
f 50 133 126
f 135 63 128
f 128 63 54
f 128 130 136
f 128 136 135
f 134 133 137
f 134 137 138
f 66 137 59
f 59 137 133
f 139 70 135
f 135 70 63
f 141 140 136
f 140 142 136
f 71 136 142
f 136 71 135
f 72 135 71
f 135 72 140
f 140 139 135
f 141 139 140
f 140 72 142
f 71 142 143
f 144 71 143
f 73 71 144
f 75 73 144
f 75 144 145
f 146 138 137
f 146 137 66
f 76 146 66
f 147 146 76
f 148 76 77
f 148 147 76
f 149 77 78
f 149 148 77
f 150 78 79
f 150 149 78
f 79 70 139
f 151 79 139
f 150 79 151
f 81 152 72
f 81 139 152
f 139 81 151
f 153 151 81
f 151 153 141
f 152 141 153
f 153 142 152
f 152 142 72
f 139 141 152
f 143 142 154
f 154 142 153
f 145 83 75
f 155 83 145
f 157 156 153
f 81 157 153
f 85 157 81
f 158 86 87
f 156 154 153
f 159 158 87
f 83 159 87
f 155 159 83
f 85 88 160
f 161 85 160
f 157 85 161
f 162 160 88
f 162 88 86
f 163 162 86
f 158 163 86
f 163 158 159
f 164 161 160
f 164 160 162
f 166 165 90
f 166 90 91
f 168 167 92
f 90 168 92
f 165 168 90
f 169 167 168
f 93 166 91
f 93 170 166
f 167 95 92
f 96 95 167
f 169 96 167
f 171 96 169
f 172 170 93
f 172 93 97
f 97 99 172
f 172 99 173
f 171 174 96
f 96 174 101
f 102 101 174
f 102 174 175
f 177 176 104
f 177 104 105
f 104 178 106
f 176 178 104
f 178 180 179
f 107 178 179
f 106 178 107
f 181 108 107
f 181 107 179
f 182 109 108
f 182 108 181
f 109 182 183
f 184 109 183
f 111 109 184
f 113 111 184
f 113 184 185
f 115 187 186
f 173 115 186
f 99 115 173
f 187 188 186
f 175 117 102
f 189 117 175
f 119 177 105
f 119 190 177
f 179 180 191
f 191 180 192
f 179 193 181
f 179 191 193
f 181 194 182
f 181 193 194
f 183 182 195
f 195 182 194
f 185 122 113
f 196 122 185
f 123 197 187
f 123 187 115
f 188 187 198
f 198 187 197
f 189 125 117
f 199 125 189
f 127 190 119
f 127 200 190
f 191 192 201
f 201 192 202
f 191 203 193
f 191 201 203
f 193 204 194
f 193 203 204
f 195 194 205
f 205 194 204
f 196 130 122
f 206 130 196
f 131 197 123
f 207 198 197
f 131 207 197
f 132 207 131
f 132 125 199
f 132 199 207
f 134 200 127
f 134 208 200
f 201 202 209
f 209 202 210
f 201 211 203
f 201 209 211
f 203 212 204
f 203 211 212
f 205 204 213
f 213 204 212
f 206 136 130
f 214 136 206
f 138 208 134
f 138 215 208
f 209 210 216
f 216 210 217
f 209 218 211
f 209 216 218
f 211 219 212
f 211 218 219
f 213 212 220
f 220 212 219
f 214 141 136
f 221 141 214
f 143 222 144
f 222 145 144
f 223 215 138
f 223 138 146
f 224 146 147
f 224 223 146
f 148 216 217
f 224 148 217
f 147 148 224
f 216 148 149
f 216 149 218
f 218 149 150
f 218 150 219
f 225 220 219
f 150 225 219
f 151 225 150
f 151 141 221
f 151 221 225
f 154 226 222
f 154 222 143
f 226 155 145
f 226 145 222
f 228 227 156
f 228 156 157
f 154 156 226
f 156 229 226
f 156 227 229
f 155 226 229
f 230 155 229
f 159 155 230
f 161 228 157
f 161 231 228
f 232 162 163
f 233 232 163
f 159 233 163
f 230 233 159
f 234 231 161
f 234 161 164
f 164 162 232
f 235 164 232
f 234 164 235
f 235 232 233
f 237 236 165
f 237 165 166
f 165 238 168
f 236 238 165
f 169 168 238
f 169 238 239
f 170 241 240
f 237 170 240
f 166 170 237
f 241 242 240
f 239 171 169
f 243 171 239
f 172 241 170
f 245 244 173
f 173 244 172
f 244 242 172
f 242 241 172
f 174 247 246
f 247 174 245
f 171 245 174
f 245 171 244
f 243 244 171
f 175 174 246
f 175 246 248
f 250 249 176
f 250 176 177
f 249 252 251
f 178 249 251
f 176 249 178
f 251 180 178
f 254 253 184
f 254 184 183
f 185 184 253
f 185 253 255
f 186 245 173
f 186 188 245
f 188 247 245
f 188 256 247
f 248 189 175
f 257 189 248
f 190 250 177
f 190 258 250
f 251 252 259
f 259 252 260
f 259 192 180
f 259 180 251
f 195 254 183
f 195 261 254
f 255 196 185
f 262 196 255
f 198 256 188
f 198 263 256
f 257 199 189
f 264 199 257
f 200 258 190
f 200 265 258
f 259 260 266
f 266 260 267
f 266 202 192
f 266 192 259
f 205 261 195
f 205 268 261
f 262 206 196
f 269 206 262
f 198 207 270
f 271 198 270
f 263 198 271
f 272 270 207
f 199 272 207
f 264 272 199
f 208 265 200
f 208 273 265
f 266 267 274
f 274 267 275
f 274 210 202
f 274 202 266
f 213 268 205
f 213 276 268
f 269 214 206
f 277 214 269
f 271 270 278
f 271 278 279
f 270 272 280
f 270 280 278
f 215 273 208
f 215 281 273
f 274 275 282
f 282 275 283
f 282 217 210
f 282 210 274
f 220 276 213
f 220 284 276
f 277 221 214
f 285 221 277
f 279 278 286
f 279 286 287
f 278 280 288
f 278 288 286
f 289 281 215
f 289 215 223
f 224 282 283
f 289 224 283
f 223 224 289
f 282 224 217
f 290 284 220
f 290 220 225
f 225 221 285
f 225 285 290
f 293 292 291
f 291 292 287
f 286 291 287
f 294 291 286
f 286 288 295
f 286 295 294
f 228 296 227
f 297 293 291
f 227 297 291
f 229 227 291
f 297 227 296
f 229 291 230
f 291 298 230
f 291 294 298
f 294 295 299
f 294 299 298
f 301 300 296
f 228 301 296
f 231 301 228
f 296 300 297
f 303 302 298
f 302 230 298
f 302 233 230
f 303 298 299
f 304 301 231
f 304 231 234
f 305 234 235
f 305 304 234
f 235 233 302
f 235 302 305
f 307 306 236
f 307 236 237
f 236 308 238
f 306 308 236
f 239 238 308
f 239 308 309
f 237 240 310
f 311 237 310
f 307 237 311
f 242 310 240
f 309 243 239
f 312 243 309
f 313 311 310
f 315 313 314
f 314 313 244
f 313 310 244
f 310 242 244
f 246 247 316
f 314 316 247
f 316 314 312
f 244 312 314
f 312 244 243
f 248 246 316
f 248 316 317
f 319 318 249
f 319 249 250
f 321 320 252
f 249 321 252
f 318 321 249
f 322 320 321
f 324 323 253
f 324 253 254
f 255 253 323
f 255 323 325
f 326 315 314
f 314 247 326
f 247 327 326
f 247 256 327
f 317 257 248
f 328 257 317
f 258 319 250
f 258 329 319
f 330 260 320
f 320 260 252
f 320 322 331
f 320 331 330
f 261 324 254
f 261 332 324
f 325 262 255
f 333 262 325
f 263 327 256
f 263 334 327
f 328 264 257
f 335 264 328
f 265 329 258
f 265 336 329
f 337 267 330
f 330 267 260
f 330 331 338
f 330 338 337
f 268 332 261
f 268 339 332
f 333 269 262
f 340 269 333
f 271 334 263
f 271 341 334
f 335 272 264
f 342 272 335
f 273 336 265
f 273 343 336
f 344 275 337
f 337 275 267
f 337 338 345
f 337 345 344
f 276 339 268
f 276 346 339
f 340 277 269
f 347 277 340
f 279 341 271
f 279 348 341
f 342 280 272
f 349 280 342
f 281 343 273
f 281 350 343
f 351 283 344
f 344 283 275
f 344 345 352
f 344 352 351
f 284 346 276
f 284 353 346
f 347 285 277
f 354 285 347
f 287 348 279
f 287 355 348
f 349 288 280
f 356 288 349
f 357 350 281
f 357 281 289
f 289 283 351
f 358 289 351
f 357 289 358
f 358 351 352
f 359 353 284
f 359 284 290
f 290 285 354
f 290 354 359
f 361 360 292
f 361 292 293
f 287 292 355
f 355 292 360
f 356 295 288
f 362 295 356
f 365 364 363
f 364 361 363
f 361 297 363
f 361 293 297
f 368 367 366
f 362 368 366
f 299 362 366
f 295 362 299
f 365 363 300
f 301 365 300
f 369 365 301
f 300 363 297
f 366 367 303
f 367 302 303
f 367 370 302
f 366 303 299
f 371 369 301
f 371 301 304
f 372 304 305
f 372 371 304
f 305 302 370
f 305 370 372
f 374 373 306
f 374 306 307
f 373 376 375
f 308 373 375
f 306 373 308
f 375 309 308
f 311 374 307
f 311 377 374
f 376 378 375
f 309 375 378
f 379 309 378
f 312 309 379
f 380 377 311
f 380 311 313
f 313 315 380
f 380 315 381
f 379 382 312
f 312 382 316
f 317 316 382
f 317 382 383
f 385 384 318
f 385 318 319
f 318 386 321
f 384 386 318
f 388 387 322
f 321 388 322
f 386 388 321
f 390 389 387
f 390 387 388
f 392 391 389
f 392 389 390
f 323 324 391
f 392 323 391
f 393 323 392
f 325 323 393
f 325 393 394
f 315 326 395
f 396 315 395
f 381 315 396
f 327 395 326
f 383 328 317
f 397 328 383
f 329 385 319
f 329 398 385
f 399 331 387
f 387 331 322
f 400 387 389
f 399 387 400
f 401 389 391
f 400 389 401
f 332 401 324
f 324 401 391
f 394 333 325
f 402 333 394
f 396 395 403
f 396 403 404
f 334 403 327
f 327 403 395
f 397 335 328
f 405 335 397
f 336 398 329
f 336 406 398
f 407 338 399
f 399 338 331
f 408 399 400
f 407 399 408
f 409 400 401
f 408 400 409
f 339 409 332
f 332 409 401
f 402 340 333
f 410 340 402
f 404 403 411
f 404 411 412
f 341 411 334
f 334 411 403
f 405 342 335
f 413 342 405
f 343 406 336
f 343 414 406
f 415 345 407
f 407 345 338
f 416 407 408
f 415 407 416
f 417 408 409
f 416 408 417
f 346 417 339
f 339 417 409
f 410 347 340
f 418 347 410
f 412 411 419
f 412 419 420
f 348 419 341
f 341 419 411
f 413 349 342
f 421 349 413
f 350 414 343
f 350 422 414
f 423 352 415
f 415 352 345
f 424 415 416
f 423 415 424
f 425 416 417
f 424 416 425
f 353 425 346
f 346 425 417
f 418 354 347
f 426 354 418
f 420 419 427
f 420 427 428
f 355 427 348
f 348 427 419
f 421 356 349
f 429 356 421
f 430 422 350
f 430 350 357
f 431 357 358
f 431 430 357
f 358 352 423
f 432 358 423
f 431 358 432
f 432 423 424
f 432 424 433
f 433 424 425
f 433 425 434
f 434 425 353
f 359 434 353
f 435 434 359
f 359 354 426
f 359 426 435
f 428 427 360
f 361 428 360
f 436 428 361
f 360 427 355
f 429 362 356
f 437 362 429
f 439 438 364
f 439 364 365
f 361 364 436
f 436 364 438
f 441 440 368
f 368 440 367
f 368 362 437
f 368 437 441
f 369 439 365
f 369 442 439
f 445 444 443
f 440 445 443
f 370 440 443
f 367 440 370
f 446 442 369
f 446 369 371
f 372 443 444
f 446 372 444
f 371 372 446
f 443 372 370
f 374 447 373
f 447 376 373
f 449 448 447
f 374 449 447
f 377 449 374
f 448 451 450
f 448 450 378
f 447 448 378
f 376 447 378
f 450 379 378
f 377 380 452
f 453 377 452
f 449 377 453
f 451 454 450
f 452 380 381
f 454 456 455
f 454 455 382
f 450 454 382
f 379 450 382
f 455 383 382
f 385 457 384
f 384 457 458
f 459 384 458
f 386 384 459
f 386 460 388
f 459 460 386
f 388 461 390
f 460 461 388
f 390 462 392
f 461 462 390
f 462 464 463
f 393 462 463
f 392 462 393
f 453 466 465
f 453 463 466
f 463 453 393
f 452 393 453
f 393 452 394
f 466 394 452
f 452 467 466
f 466 467 465
f 463 394 466
f 396 467 381
f 381 467 452
f 455 456 468
f 468 456 469
f 468 397 383
f 468 383 455
f 398 470 457
f 398 457 385
f 458 457 471
f 471 457 470
f 463 464 472
f 472 464 473
f 472 394 463
f 394 472 402
f 465 467 474
f 475 474 467
f 404 475 396
f 396 475 467
f 468 469 476
f 476 469 477
f 476 405 397
f 476 397 468
f 406 478 470
f 406 470 398
f 471 470 479
f 479 470 478
f 472 473 480
f 480 473 481
f 402 482 410
f 482 475 410
f 483 410 475
f 410 483 480
f 474 480 483
f 480 474 482
f 482 472 480
f 402 472 482
f 482 474 475
f 475 404 483
f 404 484 483
f 404 412 484
f 476 477 485
f 485 477 486
f 485 413 405
f 485 405 476
f 414 487 478
f 414 478 406
f 479 478 488
f 488 478 487
f 480 481 489
f 489 481 490
f 489 418 410
f 489 410 480
f 420 484 412
f 420 491 484
f 485 486 492
f 492 486 493
f 492 421 413
f 492 413 485
f 422 494 487
f 422 487 414
f 488 487 495
f 495 487 494
f 489 490 496
f 496 490 497
f 418 498 426
f 418 499 498
f 499 418 500
f 489 500 418
f 500 489 501
f 498 501 489
f 489 496 498
f 498 496 426
f 499 501 498
f 500 491 499
f 491 428 499
f 491 420 428
f 492 493 502
f 502 493 503
f 502 429 421
f 502 421 492
f 430 494 422
f 504 495 494
f 430 504 494
f 431 504 430
f 505 431 432
f 505 504 431
f 506 432 433
f 506 505 432
f 507 433 434
f 507 506 433
f 435 496 497
f 507 435 497
f 434 435 507
f 501 509 508
f 509 496 508
f 435 508 496
f 508 435 510
f 426 510 435
f 510 426 509
f 509 499 510
f 501 499 509
f 509 426 496
f 436 510 428
f 428 510 499
f 502 503 511
f 511 503 512
f 511 437 429
f 511 429 502
f 508 510 438
f 439 508 438
f 513 508 439
f 438 510 436
f 516 515 514
f 514 515 512
f 512 515 511
f 515 440 511
f 440 441 511
f 511 441 437
f 442 518 517
f 513 442 517
f 439 442 513
f 517 518 516
f 516 518 515
f 518 444 515
f 444 445 515
f 515 445 440
f 446 518 442
f 518 446 444
f 449 519 448
f 519 451 448
f 453 520 519
f 453 519 449
f 521 454 451
f 519 521 451
f 520 521 519
f 521 456 454
f 458 522 459
f 523 460 459
f 523 459 522
f 524 461 460
f 524 460 523
f 525 462 461
f 525 461 524
f 525 464 462
f 527 526 520
f 453 527 520
f 465 527 453
f 529 528 526
f 528 520 526
f 528 521 520
f 528 469 456
f 528 456 521
f 471 530 522
f 471 522 458
f 522 531 523
f 522 530 531
f 523 532 524
f 523 531 532
f 524 533 525
f 524 532 533
f 533 473 464
f 533 464 525
f 474 527 465
f 474 534 527
f 528 529 535
f 535 529 536
f 535 477 469
f 535 469 528
f 479 537 530
f 479 530 471
f 530 538 531
f 530 537 538
f 531 539 532
f 531 538 539
f 532 540 533
f 532 539 540
f 540 481 473
f 540 473 533
f 474 483 541
f 542 474 541
f 534 474 542
f 543 541 536
f 483 536 541
f 536 483 535
f 484 535 483
f 535 484 544
f 544 486 477
f 544 477 535
f 488 545 537
f 488 537 479
f 537 546 538
f 537 545 546
f 538 547 539
f 538 546 547
f 539 548 540
f 539 547 548
f 548 490 481
f 548 481 540
f 542 541 549
f 542 549 550
f 544 484 551
f 491 551 484
f 552 541 543
f 541 552 549
f 551 493 486
f 551 486 544
f 495 553 545
f 495 545 488
f 545 554 546
f 545 553 554
f 546 555 547
f 546 554 555
f 547 556 548
f 547 555 556
f 556 497 490
f 556 490 548
f 550 549 500
f 501 550 500
f 557 550 501
f 558 549 552
f 549 558 500
f 559 500 558
f 500 559 491
f 551 491 559
f 559 503 493
f 559 493 551
f 504 553 495
f 553 504 505
f 553 505 554
f 554 505 506
f 554 506 555
f 555 506 507
f 555 507 556
f 556 507 497
f 508 561 560
f 557 508 560
f 501 508 557
f 560 561 558
f 561 559 558
f 561 562 559
f 562 512 503
f 562 503 559
f 513 563 561
f 513 561 508
f 563 516 514
f 562 563 514
f 561 563 562
f 562 514 512
f 517 563 513
f 563 517 516
f 527 564 526
f 564 529 526
f 534 565 564
f 534 564 527
f 565 536 529
f 565 529 564
f 542 566 565
f 542 565 534
f 566 543 536
f 566 536 565
f 550 567 566
f 550 566 542
f 567 552 543
f 567 543 566
f 557 568 567
f 557 567 550
f 568 558 552
f 568 552 567
f 560 568 557
f 568 560 558

