# https://github.com/mikedh/trimesh
v 0.00000000 0.00000000 0.00000000
v 0.00000000 0.00000000 0.00000000
v 0.00000000 0.00000000 0.00000000
v 0.00000000 0.00000000 0.00000000
v 0.00000000 0.00000000 0.00000000
v 0.00000000 0.00000000 0.00000000
v 0.00000000 0.00000000 0.00000000
v 0.00000000 0.00000000 0.00000000
v 0.00000000 0.00000000 0.00000000
v 0.00000000 0.00000000 0.00000000
v 0.00000000 0.00000000 0.00000000
v 0.00000000 0.00000000 0.00000000
v 0.00000000 0.00000000 0.00000000
v 0.00000000 0.00000000 0.00000000
v 0.00000000 0.00000000 0.00000000
v 0.00000000 0.00000000 0.00000000
v 0.00000000 0.00000000 0.00000000
v 0.00000000 0.00000000 0.00000000
v 0.00000000 0.00000000 0.00000000
v 0.00000000 0.00000000 0.00000000
v 0.00000000 0.00000000 0.00000000
v 0.00000000 0.00000000 0.00000000
v 0.00000000 0.00000000 0.00000000
v 0.00000000 0.00000000 0.00000000
v 0.00000000 0.00000000 0.00000000
v 0.00000000 0.00000000 0.00000000
v 0.00000000 0.00000000 0.00000000
v 0.00000000 0.00000000 0.00000000
v 0.00000000 0.00000000 0.00000000
v 0.00000000 0.00000000 0.00000000
v 0.00000000 0.00000000 0.00000000
v 0.00000000 0.00000000 0.00000000
v 0.00000000 0.00000000 0.00000000
v 0.00000000 0.00000000 0.00000000
v 0.00000000 0.00000000 0.00000000
v 0.00000000 0.00000000 0.00000000
v 0.00000000 0.00000000 0.00000000
v 0.00000000 0.00000000 0.00000000
v 0.00000000 0.00000000 0.00000000
v 0.00000000 0.00000000 0.00000000
v 0.00000000 0.00000000 0.00000000
v 0.00000000 0.00000000 0.00000000
v 0.00000000 0.00000000 0.00000000
v 0.00000000 0.00000000 0.00000000
v 0.00000000 0.00000000 0.00000000
v 0.00000000 0.00000000 0.00000000
v 0.00000000 0.00000000 0.00000000
v 0.00000000 0.00000000 0.00000000
v 0.00000000 0.00000000 0.00000000
v 0.00000000 0.00000000 0.00000000
v 0.00000000 0.00000000 0.00000000
v 0.00000000 0.00000000 0.00000000
v 0.00000000 0.00000000 0.00000000
v 0.00000000 0.00000000 0.00000000
v 0.00000000 0.00000000 0.00000000
v 0.00000000 0.00000000 0.00000000
v 0.00000000 0.00000000 0.00000000
v 0.00000000 0.00000000 0.00000000
v 0.00000000 0.00000000 0.00000000
v 0.00000000 0.00000000 0.00000000
v 0.00000000 0.00000000 0.00000000
v 0.00000000 0.00000000 0.00000000
v 0.00000000 0.00000000 0.00000000
v 0.00000000 0.00000000 0.00000000
v 0.00000000 0.00000000 0.00000000
v 0.00000000 0.00000000 0.00000000
v 0.00000000 0.00000000 0.00000000
v 0.00000000 0.00000000 0.00000000
v 0.00000000 0.00000000 0.00000000
v 0.00000000 0.00000000 0.00000000
v 0.00000000 0.00000000 0.00000000
v 0.00000000 0.00000000 0.00000000
v 0.00000000 0.00000000 0.00000000
v 0.00000000 0.00000000 0.00000000
v 0.00000000 0.00000000 0.00000000
v 0.00000000 0.00000000 0.00000000
v 0.00000000 0.00000000 0.00000000
v 0.00000000 0.00000000 0.00000000
v 0.00000000 0.00000000 0.00000000
v 0.00000000 0.00000000 0.00000000
v 0.00000000 0.00000000 0.00000000
v 0.00000000 0.00000000 0.00000000
v 0.00000000 0.00000000 0.00000000
v 0.00000000 0.00000000 0.00000000
v 0.00000000 0.00000000 0.00000000
v 0.00000000 0.00000000 0.00000000
v 0.00000000 0.00000000 0.00000000
v 0.00000000 0.00000000 0.00000000
v 0.00000000 0.00000000 0.00000000
v 0.00000000 0.00000000 0.00000000
v 0.00000000 0.00000000 0.00000000
v 0.00000000 0.00000000 0.00000000
v 0.00000000 0.00000000 0.00000000
v 0.00000000 0.00000000 0.00000000
v 0.00000000 0.00000000 0.00000000
v 0.00000000 0.00000000 0.00000000
v 0.00000000 0.00000000 0.00000000
v 0.00000000 0.00000000 0.00000000
v 0.00000000 0.00000000 0.00000000
v 0.00000000 0.00000000 0.00000000
v 0.00000000 0.00000000 0.00000000
v 0.00000000 0.00000000 0.00000000
v 0.00000000 0.00000000 0.00000000
v 0.00000000 0.00000000 0.00000000
v 0.00000000 0.00000000 0.00000000
v 0.00000000 0.00000000 0.00000000
v 0.00000000 0.00000000 0.00000000
v 0.00000000 0.00000000 0.00000000
v 0.00000000 0.00000000 0.00000000
v 0.00000000 0.00000000 0.00000000
v 0.00000000 0.00000000 0.00000000
v 0.00000000 0.00000000 0.00000000
v 0.00000000 0.00000000 0.00000000
v 0.00000000 0.00000000 0.00000000
v 0.00000000 0.00000000 0.00000000
v 0.00000000 0.00000000 0.00000000
v 0.00000000 0.00000000 0.00000000
v 0.00000000 0.00000000 0.00000000
v 0.00000000 0.00000000 0.00000000
v 0.00000000 0.00000000 0.00000000
v 0.00000000 0.00000000 0.00000000
v 0.00000000 0.00000000 0.00000000
v 0.00000000 0.00000000 0.00000000
v 0.00000000 0.00000000 0.00000000
v 0.00000000 0.00000000 0.00000000
v 0.00000000 0.00000000 0.00000000
v 0.00000000 0.00000000 0.00000000
v 0.00000000 0.00000000 0.00000000
v 0.00000000 0.00000000 0.00000000
v 0.00000000 0.00000000 0.00000000
v 0.00000000 0.00000000 0.00000000
v 0.00000000 0.00000000 0.00000000
v 0.00000000 0.00000000 0.00000000
v 0.00000000 0.00000000 0.00000000
v 0.00000000 0.00000000 0.00000000
v 0.00000000 0.00000000 0.00000000
v 0.00000000 0.00000000 0.00000000
v 0.00000000 0.00000000 0.00000000
v 0.00000000 0.00000000 0.00000000
v 0.00000000 0.00000000 0.00000000
v 0.00000000 0.00000000 0.00000000
v 0.00000000 0.00000000 0.00000000
v 0.00000000 0.00000000 0.00000000
v 0.00000000 0.00000000 0.00000000
v 0.00000000 0.00000000 0.00000000
v 0.00000000 0.00000000 0.00000000
v 0.00000000 0.00000000 0.00000000
v 0.00000000 0.00000000 0.00000000
v 0.00000000 0.00000000 0.00000000
v 0.00000000 0.00000000 0.00000000
v 0.00000000 0.00000000 0.00000000
v 0.00000000 0.00000000 0.00000000
v 0.00000000 0.00000000 0.00000000
v 0.00000000 0.00000000 0.00000000
v 0.00000000 0.00000000 0.00000000
v 0.00000000 0.00000000 0.00000000
v 0.00000000 0.00000000 0.00000000
v 0.00000000 0.00000000 0.00000000
v 0.00000000 0.00000000 0.00000000
v 0.00000000 0.00000000 0.00000000
v 0.00000000 0.00000000 0.00000000
v 0.00000000 0.00000000 0.00000000
v 0.00000000 0.00000000 0.00000000
v 0.00000000 0.00000000 0.00000000
v 0.00000000 0.00000000 0.00000000
v 0.00000000 0.00000000 0.00000000
v 0.00000000 0.00000000 0.00000000
v 0.00000000 0.00000000 0.00000000
v 0.00000000 0.00000000 0.00000000
v 0.00000000 0.00000000 0.00000000
v 0.00000000 0.00000000 0.00000000
v 0.00000000 0.00000000 0.00000000
v 0.00000000 0.00000000 0.00000000
v 0.00000000 0.00000000 0.00000000
v 0.00000000 0.00000000 0.00000000
v 0.00000000 0.00000000 0.00000000
v 0.00000000 0.00000000 0.00000000
v 0.00000000 0.00000000 0.00000000
v 0.00000000 0.00000000 0.00000000
v 0.00000000 0.00000000 0.00000000
v 0.00000000 0.00000000 0.00000000
v 0.00000000 0.00000000 0.00000000
v 0.00000000 0.00000000 0.00000000
v 0.00000000 0.00000000 0.00000000
v 0.00000000 0.00000000 0.00000000
v 0.00000000 0.00000000 0.00000000
v 0.00000000 0.00000000 0.00000000
v 0.00000000 0.00000000 0.00000000
v 0.00000000 0.00000000 0.00000000
v 0.00000000 0.00000000 0.00000000
v 0.00000000 0.00000000 0.00000000
v 0.00000000 0.00000000 0.00000000
v 0.00000000 0.00000000 0.00000000
v 0.00000000 0.00000000 0.00000000
v 0.00000000 0.00000000 0.00000000
v 0.00000000 0.00000000 0.00000000
v 0.00000000 0.00000000 0.00000000
v 0.00000000 0.00000000 0.00000000
v 0.00000000 0.00000000 0.00000000
v 0.00000000 0.00000000 0.00000000
v 0.00000000 0.00000000 0.00000000
v 0.00000000 0.00000000 0.00000000
v 0.00000000 0.00000000 0.00000000
v 0.00000000 0.00000000 0.00000000
v 0.00000000 0.00000000 0.00000000
v 0.00000000 0.00000000 0.00000000
v 0.00000000 0.00000000 0.00000000
v 0.00000000 0.00000000 0.00000000
v 0.00000000 0.00000000 0.00000000
v 0.00000000 0.00000000 0.00000000
v 0.00000000 0.00000000 0.00000000
v 0.00000000 0.00000000 0.00000000
v 0.00000000 0.00000000 0.00000000
v 0.00000000 0.00000000 0.00000000
v 0.00000000 0.00000000 0.00000000
v 0.00000000 0.00000000 0.00000000
v 0.00000000 0.00000000 0.00000000
v 0.00000000 0.00000000 0.00000000
v 0.00000000 0.00000000 0.00000000
v 0.00000000 0.00000000 0.00000000
v 0.00000000 0.00000000 0.00000000
v 0.00000000 0.00000000 0.00000000
v 0.00000000 0.00000000 0.00000000
v 0.00000000 0.00000000 0.00000000
v 0.00000000 0.00000000 0.00000000
v 0.00000000 0.00000000 0.00000000
v 0.00000000 0.00000000 0.00000000
v 0.00000000 0.00000000 0.00000000
v 0.00000000 0.00000000 0.00000000
v 0.00000000 0.00000000 0.00000000
v 0.00000000 0.00000000 0.00000000
v 0.00000000 0.00000000 0.00000000
v 0.00000000 0.00000000 0.00000000
v 0.00000000 0.00000000 0.00000000
v 0.00000000 0.00000000 0.00000000
v 0.00000000 0.00000000 0.00000000
v 0.00000000 0.00000000 0.00000000
v 0.00000000 0.00000000 0.00000000
v 0.00000000 0.00000000 0.00000000
v 0.00000000 0.00000000 0.00000000
v 0.00000000 0.00000000 0.00000000
v 0.00000000 0.00000000 0.00000000
v 0.00000000 0.00000000 0.00000000
v 0.00000000 0.00000000 0.00000000
v 0.00000000 0.00000000 0.00000000
v 0.00000000 0.00000000 0.00000000
v 0.00000000 0.00000000 0.00000000
v 0.00000000 0.00000000 0.00000000
v 0.00000000 0.00000000 0.00000000
v 0.00000000 0.00000000 0.00000000
v 0.00000000 0.00000000 0.00000000
v 0.00000000 0.00000000 0.00000000
v 0.00000000 0.00000000 0.00000000
v 0.00000000 0.00000000 0.00000000
v 0.00000000 0.00000000 0.00000000
v 0.00000000 0.00000000 0.00000000
v 0.00000000 0.00000000 0.00000000
v 0.00000000 0.00000000 0.00000000
v 0.00000000 0.00000000 0.00000000
v 0.00000000 0.00000000 0.00000000
v 0.00000000 0.00000000 0.00000000
v 0.00000000 0.00000000 0.00000000
v 0.00000000 0.00000000 0.00000000
v 0.00000000 0.00000000 0.00000000
v 0.00000000 0.00000000 0.00000000
v 0.00000000 0.00000000 0.00000000
v 0.00000000 0.00000000 0.00000000
v 0.00000000 0.00000000 0.00000000
v 0.00000000 0.00000000 0.00000000
v 0.00000000 0.00000000 0.00000000
v 0.00000000 0.00000000 0.00000000
v 0.00000000 0.00000000 0.00000000
v 0.00000000 0.00000000 0.00000000
v 0.00000000 0.00000000 0.00000000
v 0.00000000 0.00000000 0.00000000
v 0.00000000 0.00000000 0.00000000
v 0.00000000 0.00000000 0.00000000
v 0.00000000 0.00000000 0.00000000
v 0.00000000 0.00000000 0.00000000
v 0.00000000 0.00000000 0.00000000
v 0.00000000 0.00000000 0.00000000
v 0.00000000 0.00000000 0.00000000
v 0.00000000 0.00000000 0.00000000
v 0.00000000 0.00000000 0.00000000
v 0.00000000 0.00000000 0.00000000
v 0.00000000 0.00000000 0.00000000
v 0.00000000 0.00000000 0.00000000
v 0.00000000 0.00000000 0.00000000
v 0.00000000 0.00000000 0.00000000
v 0.00000000 0.00000000 0.00000000
v 0.00000000 0.00000000 0.00000000
v 0.00000000 0.00000000 0.00000000
v 0.00000000 0.00000000 0.00000000
v 0.00000000 0.00000000 0.00000000
v 0.00000000 0.00000000 0.00000000
v 0.00000000 0.00000000 0.00000000
v 0.00000000 0.00000000 0.00000000
v 0.00000000 0.00000000 0.00000000
v 0.00000000 0.00000000 0.00000000
v 0.00000000 0.00000000 0.00000000
v 0.00000000 0.00000000 0.00000000
v 0.00000000 0.00000000 0.00000000
v 0.00000000 0.00000000 0.00000000
v 0.00000000 0.00000000 0.00000000
v 0.00000000 0.00000000 0.00000000
v 0.00000000 0.00000000 0.00000000
v 0.00000000 0.00000000 0.00000000
v 0.00000000 0.00000000 0.00000000
v 0.00000000 0.00000000 0.00000000
v 0.00000000 0.00000000 0.00000000
v 0.00000000 0.00000000 0.00000000
v 0.00000000 0.00000000 0.00000000
v 0.00000000 0.00000000 0.00000000
v 0.00000000 0.00000000 0.00000000
v 0.00000000 0.00000000 0.00000000
v 0.00000000 0.00000000 0.00000000
v 0.00000000 0.00000000 0.00000000
v 0.00000000 0.00000000 0.00000000
v 0.00000000 0.00000000 0.00000000
v 0.00000000 0.00000000 0.00000000
v 0.00000000 0.00000000 0.00000000
v 0.00000000 0.00000000 0.00000000
v 0.00000000 0.00000000 0.00000000
v 0.00000000 0.00000000 0.00000000
v 0.00000000 0.00000000 0.00000000
v 0.00000000 0.00000000 0.00000000
v 0.00000000 0.00000000 0.00000000
v 0.00000000 0.00000000 0.00000000
v 0.00000000 0.00000000 0.00000000
v 0.00000000 0.00000000 0.00000000
v 0.00000000 0.00000000 0.00000000
v 0.00000000 0.00000000 0.00000000
v 0.00000000 0.00000000 0.00000000
v 0.00000000 0.00000000 0.00000000
v 0.00000000 0.00000000 0.00000000
v 0.00000000 0.00000000 0.00000000
v 0.00000000 0.00000000 0.00000000
v 0.00000000 0.00000000 0.00000000
v 0.00000000 0.00000000 0.00000000
v 0.00000000 0.00000000 0.00000000
v 0.00000000 0.00000000 0.00000000
v 0.00000000 0.00000000 0.00000000
v 0.00000000 0.00000000 0.00000000
v 0.00000000 0.00000000 0.00000000
v 0.00000000 0.00000000 0.00000000
v 0.00000000 0.00000000 0.00000000
v 0.00000000 0.00000000 0.00000000
v 0.00000000 0.00000000 0.00000000
v 0.00000000 0.00000000 0.00000000
v 0.00000000 0.00000000 0.00000000
v 0.00000000 0.00000000 0.00000000
v 0.00000000 0.00000000 0.00000000
v 0.00000000 0.00000000 0.00000000
v 0.00000000 0.00000000 0.00000000
v 0.00000000 0.00000000 0.00000000
v 0.00000000 0.00000000 0.00000000
v 0.00000000 0.00000000 0.00000000
v 0.00000000 0.00000000 0.00000000
v 0.00000000 0.00000000 0.00000000
v 0.00000000 0.00000000 0.00000000
v 0.00000000 0.00000000 0.00000000
v 0.00000000 0.00000000 0.00000000
v 0.00000000 0.00000000 0.00000000
v 0.00000000 0.00000000 0.00000000
v 0.00000000 0.00000000 0.00000000
v 0.00000000 0.00000000 0.00000000
v 0.00000000 0.00000000 0.00000000
v 0.00000000 0.00000000 0.00000000
v 0.00000000 0.00000000 0.00000000
v 0.00000000 0.00000000 0.00000000
v 0.00000000 0.00000000 0.00000000
v 0.00000000 0.00000000 0.00000000
v 0.00000000 0.00000000 0.00000000
v 0.00000000 0.00000000 0.00000000
v 0.00000000 0.00000000 0.00000000
v 0.00000000 0.00000000 0.00000000
v 0.00000000 0.00000000 0.00000000
v 0.00000000 0.00000000 0.00000000
v 0.00000000 0.00000000 0.00000000
v 0.00000000 0.00000000 0.00000000
v 0.00000000 0.00000000 0.00000000
v 0.00000000 0.00000000 0.00000000
v 0.00000000 0.00000000 0.00000000
v 0.00000000 0.00000000 0.00000000
v 0.00000000 0.00000000 0.00000000
v 0.00000000 0.00000000 0.00000000
v 0.00000000 0.00000000 0.00000000
v 0.00000000 0.00000000 0.00000000
v 0.00000000 0.00000000 0.00000000
v 0.00000000 0.00000000 0.00000000
v 0.00000000 0.00000000 0.00000000
v 0.00000000 0.00000000 0.00000000
v 0.00000000 0.00000000 0.00000000
v 0.00000000 0.00000000 0.00000000
v 0.00000000 0.00000000 0.00000000
v 0.00000000 0.00000000 0.00000000
v 0.00000000 0.00000000 0.00000000
v 0.00000000 0.00000000 0.00000000
v 0.00000000 0.00000000 0.00000000
v 0.00000000 0.00000000 0.00000000
v 0.00000000 0.00000000 0.00000000
v 0.00000000 0.00000000 0.00000000
v 0.00000000 0.00000000 0.00000000
v 0.00000000 0.00000000 0.00000000
v 0.00000000 0.00000000 0.00000000
v 0.00000000 0.00000000 0.00000000
v 0.00000000 0.00000000 0.00000000
v 0.00000000 0.00000000 0.00000000
v 0.00000000 0.00000000 0.00000000
v 0.00000000 0.00000000 0.00000000
v 0.00000000 0.00000000 0.00000000
v 0.00000000 0.00000000 0.00000000
v 0.00000000 0.00000000 0.00000000
v 0.00000000 0.00000000 0.00000000
v 0.00000000 0.00000000 0.00000000
v 0.00000000 0.00000000 0.00000000
v 0.00000000 0.00000000 0.00000000
v 0.00000000 0.00000000 0.00000000
v 0.00000000 0.00000000 0.00000000
v 0.00000000 0.00000000 0.00000000
v 0.00000000 0.00000000 0.00000000
v 0.00000000 0.00000000 0.00000000
v 0.00000000 0.00000000 0.00000000
v 0.00000000 0.00000000 0.00000000
v 0.00000000 0.00000000 0.00000000
v 0.00000000 0.00000000 0.00000000
v 0.00000000 0.00000000 0.00000000
v 0.00000000 0.00000000 0.00000000
v 0.00000000 0.00000000 0.00000000
v 0.00000000 0.00000000 0.00000000
v 0.00000000 0.00000000 0.00000000
v 0.00000000 0.00000000 0.00000000
v 0.00000000 0.00000000 0.00000000
v 0.00000000 0.00000000 0.00000000
v 0.00000000 0.00000000 0.00000000
v 0.00000000 0.00000000 0.00000000
v 0.00000000 0.00000000 0.00000000
v 0.00000000 0.00000000 0.00000000
v 0.00000000 0.00000000 0.00000000
v 0.00000000 0.00000000 0.00000000
v 0.00000000 0.00000000 0.00000000
v 0.00000000 0.00000000 0.00000000
v 0.00000000 0.00000000 0.00000000
v 0.00000000 0.00000000 0.00000000
v 0.00000000 0.00000000 0.00000000
v 0.00000000 0.00000000 0.00000000
v 0.00000000 0.00000000 0.00000000
v 0.00000000 0.00000000 0.00000000
v 0.00000000 0.00000000 0.00000000
v 0.00000000 0.00000000 0.00000000
v 0.00000000 0.00000000 0.00000000
v 0.00000000 0.00000000 0.00000000
v 0.00000000 0.00000000 0.00000000
v 0.00000000 0.00000000 0.00000000
v 0.00000000 0.00000000 0.00000000
v 0.00000000 0.00000000 0.00000000
v 0.00000000 0.00000000 0.00000000
v 0.00000000 0.00000000 0.00000000
v 0.00000000 0.00000000 0.00000000
v 0.00000000 0.00000000 0.00000000
v 0.00000000 0.00000000 0.00000000
v 0.00000000 0.00000000 0.00000000
v 0.00000000 0.00000000 0.00000000
v 0.00000000 0.00000000 0.00000000
v 0.00000000 0.00000000 0.00000000
v 0.00000000 0.00000000 0.00000000
v 0.00000000 0.00000000 0.00000000
v 0.00000000 0.00000000 0.00000000
v 0.00000000 0.00000000 0.00000000
v 0.00000000 0.00000000 0.00000000
v 0.00000000 0.00000000 0.00000000
v 0.00000000 0.00000000 0.00000000
v 0.00000000 0.00000000 0.00000000
v 0.00000000 0.00000000 0.00000000
v 0.00000000 0.00000000 0.00000000
v 0.00000000 0.00000000 0.00000000
v 0.00000000 0.00000000 0.00000000
v 0.00000000 0.00000000 0.00000000
v 0.00000000 0.00000000 0.00000000
v 0.00000000 0.00000000 0.00000000
v 0.00000000 0.00000000 0.00000000
v 0.00000000 0.00000000 0.00000000
v 0.00000000 0.00000000 0.00000000
v 0.00000000 0.00000000 0.00000000
v 0.00000000 0.00000000 0.00000000
v 0.00000000 0.00000000 0.00000000
v 0.00000000 0.00000000 0.00000000
v 0.00000000 0.00000000 0.00000000
v 0.00000000 0.00000000 0.00000000
v 0.00000000 0.00000000 0.00000000
v 0.00000000 0.00000000 0.00000000
v 0.00000000 0.00000000 0.00000000
v 0.00000000 0.00000000 0.00000000
v 0.00000000 0.00000000 0.00000000
v 0.00000000 0.00000000 0.00000000
v 0.00000000 0.00000000 0.00000000
v 0.00000000 0.00000000 0.00000000
v 0.00000000 0.00000000 0.00000000
v 0.00000000 0.00000000 0.00000000
v 0.00000000 0.00000000 0.00000000
v 0.00000000 0.00000000 0.00000000
v 0.00000000 0.00000000 0.00000000
v 0.00000000 0.00000000 0.00000000
v 0.00000000 0.00000000 0.00000000
v 0.00000000 0.00000000 0.00000000
v 0.00000000 0.00000000 0.00000000
v 0.00000000 0.00000000 0.00000000
v 0.00000000 0.00000000 0.00000000
v 0.00000000 0.00000000 0.00000000
v 0.00000000 0.00000000 0.00000000
v 0.00000000 0.00000000 0.00000000
v 0.00000000 0.00000000 0.00000000
v 0.00000000 0.00000000 0.00000000
v 0.00000000 0.00000000 0.00000000
v 0.00000000 0.00000000 0.00000000
v 0.00000000 0.00000000 0.00000000
v 0.00000000 0.00000000 0.00000000
v 0.00000000 0.00000000 0.00000000
v 0.00000000 0.00000000 0.00000000
v 0.00000000 0.00000000 0.00000000
v 0.00000000 0.00000000 0.00000000
v 0.00000000 0.00000000 0.00000000
v 0.00000000 0.00000000 0.00000000
v 0.00000000 0.00000000 0.00000000
v 0.00000000 0.00000000 0.00000000
v 0.00000000 0.00000000 0.00000000
v 0.00000000 0.00000000 0.00000000
v 0.00000000 0.00000000 0.00000000
v 0.00000000 0.00000000 0.00000000
v 0.00000000 0.00000000 0.00000000
v 0.00000000 0.00000000 0.00000000
v 0.00000000 0.00000000 0.00000000
v 0.00000000 0.00000000 0.00000000
v 0.00000000 0.00000000 0.00000000
v 0.00000000 0.00000000 0.00000000
v 0.00000000 0.00000000 0.00000000
v 0.00000000 0.00000000 0.00000000
v 0.00000000 0.00000000 0.00000000
v 0.00000000 0.00000000 0.00000000
v 0.00000000 0.00000000 0.00000000
v 0.00000000 0.00000000 0.00000000
v 0.00000000 0.00000000 0.00000000
v 0.00000000 0.00000000 0.00000000
v 0.00000000 0.00000000 0.00000000
v 0.00000000 0.00000000 0.00000000
v 0.00000000 0.00000000 0.00000000
v 0.00000000 0.00000000 0.00000000
v 0.00000000 0.00000000 0.00000000
v 0.00000000 0.00000000 0.00000000
v 0.00000000 0.00000000 0.00000000
v 0.00000000 0.00000000 0.00000000
v 0.00000000 0.00000000 0.00000000
v 0.00000000 0.00000000 0.00000000
v 0.00000000 0.00000000 0.00000000
v 0.00000000 0.00000000 0.00000000
v 0.00000000 0.00000000 0.00000000
v 0.00000000 0.00000000 0.00000000
v 0.00000000 0.00000000 0.00000000
v 0.00000000 0.00000000 0.00000000
v 0.00000000 0.00000000 0.00000000
v 0.00000000 0.00000000 0.00000000
v 0.00000000 0.00000000 0.00000000
v 0.00000000 0.00000000 0.00000000
v 0.00000000 0.00000000 0.00000000
v 0.00000000 0.00000000 0.00000000
v 0.00000000 0.00000000 0.00000000
v 0.00000000 0.00000000 0.00000000
v 0.00000000 0.00000000 0.00000000
v 0.00000000 0.00000000 0.00000000
v 0.00000000 0.00000000 0.00000000
v 0.00000000 0.00000000 0.00000000
v 0.00000000 0.00000000 0.00000000
v 0.00000000 0.00000000 0.00000000
v 0.00000000 0.00000000 0.00000000
v 0.00000000 0.00000000 0.00000000
v 0.00000000 0.00000000 0.00000000
v 0.00000000 0.00000000 0.00000000
v 0.00000000 0.00000000 0.00000000
v 0.00000000 0.00000000 0.00000000
v 0.00000000 0.00000000 0.00000000
v 0.00000000 0.00000000 0.00000000
v 0.00000000 0.00000000 0.00000000
v 0.00000000 0.00000000 0.00000000
v 0.00000000 0.00000000 0.00000000
v 0.00000000 0.00000000 0.00000000
v 0.00000000 0.00000000 0.00000000
v 0.00000000 0.00000000 0.00000000
v 0.00000000 0.00000000 0.00000000
v 0.00000000 0.00000000 0.00000000
v 0.00000000 0.00000000 0.00000000
v 0.00000000 0.00000000 0.00000000
v 0.00000000 0.00000000 0.00000000
v 0.00000000 0.00000000 0.00000000
v 0.00000000 0.00000000 0.00000000
v 0.00000000 0.00000000 0.00000000
v 0.00000000 0.00000000 0.00000000
v 0.00000000 0.00000000 0.00000000
v 0.00000000 0.00000000 0.00000000
v 0.00000000 0.00000000 0.00000000
v 0.00000000 0.00000000 0.00000000
v 0.00000000 0.00000000 0.00000000
v 0.00000000 0.00000000 0.00000000
v 0.00000000 0.00000000 0.00000000
v 0.00000000 0.00000000 0.00000000
v 0.00000000 0.00000000 0.00000000
v 0.00000000 0.00000000 0.00000000
v 0.00000000 0.00000000 0.00000000
v 0.00000000 0.00000000 0.00000000
v 0.00000000 0.00000000 0.00000000
v 0.00000000 0.00000000 0.00000000
v 0.00000000 0.00000000 0.00000000
v 0.00000000 0.00000000 0.00000000
v 0.00000000 0.00000000 0.00000000
v 0.00000000 0.00000000 0.00000000
v 0.00000000 0.00000000 0.00000000
v 0.00000000 0.00000000 0.00000000
v 0.00000000 0.00000000 0.00000000
v 0.00000000 0.00000000 0.00000000
v 0.00000000 0.00000000 0.00000000
v 0.00000000 0.00000000 0.00000000
v 0.00000000 0.00000000 0.00000000
v 0.00000000 0.00000000 0.00000000
v 0.00000000 0.00000000 0.00000000
v 0.00000000 0.00000000 0.00000000
v 0.00000000 0.00000000 0.00000000
v 0.00000000 0.00000000 0.00000000
v 0.00000000 0.00000000 0.00000000
v 0.00000000 0.00000000 0.00000000
v 0.00000000 0.00000000 0.00000000
v 0.00000000 0.00000000 0.00000000
v 0.00000000 0.00000000 0.00000000
v 0.00000000 0.00000000 0.00000000
v 0.00000000 0.00000000 0.00000000
v 0.00000000 0.00000000 0.00000000
v 0.00000000 0.00000000 0.00000000
v 0.00000000 0.00000000 0.00000000
v 0.00000000 0.00000000 0.00000000
v 0.00000000 0.00000000 0.00000000
v 0.00000000 0.00000000 0.00000000
v 0.00000000 0.00000000 0.00000000
v 0.00000000 0.00000000 0.00000000
v 0.00000000 0.00000000 0.00000000
v 0.00000000 0.00000000 0.00000000
v 0.00000000 0.00000000 0.00000000
v 0.00000000 0.00000000 0.00000000
v 0.00000000 0.00000000 0.00000000
v 0.00000000 0.00000000 0.00000000
v 0.00000000 0.00000000 0.00000000
v 0.00000000 0.00000000 0.00000000
v 0.00000000 0.00000000 0.00000000
v 0.00000000 0.00000000 0.00000000
v 0.00000000 0.00000000 0.00000000
v 0.00000000 0.00000000 0.00000000
v 0.00000000 0.00000000 0.00000000
v 0.00000000 0.00000000 0.00000000
v 0.00000000 0.00000000 0.00000000
v 0.00000000 0.00000000 0.00000000
v 0.00000000 0.00000000 0.00000000
v 0.00000000 0.00000000 0.00000000
v 0.00000000 0.00000000 0.00000000
v 0.00000000 0.00000000 0.00000000
v 0.00000000 0.00000000 0.00000000
v 0.00000000 0.00000000 0.00000000
v 0.00000000 0.00000000 0.00000000
v 0.00000000 0.00000000 0.00000000
v 0.00000000 0.00000000 0.00000000
v 0.00000000 0.00000000 0.00000000
v 0.00000000 0.00000000 0.00000000
v 0.00000000 0.00000000 0.00000000
v 0.00000000 0.00000000 0.00000000
v 0.00000000 0.00000000 0.00000000
v 0.00000000 0.00000000 0.00000000
v 0.00000000 0.00000000 0.00000000
v 0.00000000 0.00000000 0.00000000
v 0.00000000 0.00000000 0.00000000
v 0.00000000 0.00000000 0.00000000
v 0.00000000 0.00000000 0.00000000
v 0.00000000 0.00000000 0.00000000
v 0.00000000 0.00000000 0.00000000
v 0.00000000 0.00000000 0.00000000
v 0.00000000 0.00000000 0.00000000
v 0.00000000 0.00000000 0.00000000
v 0.00000000 0.00000000 0.00000000
v 0.00000000 0.00000000 0.00000000
v 0.00000000 0.00000000 0.00000000
v 0.00000000 0.00000000 0.00000000
v 0.00000000 0.00000000 0.00000000
v 0.00000000 0.00000000 0.00000000
v 0.00000000 0.00000000 0.00000000
v 0.00000000 0.00000000 0.00000000
v 0.00000000 0.00000000 0.00000000
v 0.00000000 0.00000000 0.00000000
v 0.00000000 0.00000000 0.00000000
v 0.00000000 0.00000000 0.00000000
v 0.00000000 0.00000000 0.00000000
v 0.00000000 0.00000000 0.00000000
v 0.00000000 0.00000000 0.00000000
v 0.00000000 0.00000000 0.00000000
v 0.00000000 0.00000000 0.00000000
v 0.00000000 0.00000000 0.00000000
v 0.00000000 0.00000000 0.00000000
v 0.00000000 0.00000000 0.00000000
v 0.00000000 0.00000000 0.00000000
v 0.00000000 0.00000000 0.00000000
v 0.00000000 0.00000000 0.00000000
v 0.00000000 0.00000000 0.00000000
v 0.00000000 0.00000000 0.00000000
v 0.00000000 0.00000000 0.00000000
v 0.00000000 0.00000000 0.00000000
v 0.00000000 0.00000000 0.00000000
v 0.00000000 0.00000000 0.00000000
v 0.00000000 0.00000000 0.00000000
v 0.00000000 0.00000000 0.00000000
v 0.00000000 0.00000000 0.00000000
v 0.00000000 0.00000000 0.00000000
v 0.00000000 0.00000000 0.00000000
v 0.00000000 0.00000000 0.00000000
v 0.00000000 0.00000000 0.00000000
v 0.00000000 0.00000000 0.00000000
v 0.00000000 0.00000000 0.00000000
v 0.00000000 0.00000000 0.00000000
v 0.00000000 0.00000000 0.00000000
v 0.00000000 0.00000000 0.00000000
v 0.00000000 0.00000000 0.00000000
v 0.00000000 0.00000000 0.00000000
v 0.00000000 0.00000000 0.00000000
v 0.00000000 0.00000000 0.00000000
v 0.00000000 0.00000000 0.00000000
v 0.00000000 0.00000000 0.00000000
v 0.00000000 0.00000000 0.00000000
v 0.00000000 0.00000000 0.00000000
v 0.00000000 0.00000000 0.00000000
v 0.00000000 0.00000000 0.00000000
v 0.00000000 0.00000000 0.00000000
v 0.00000000 0.00000000 0.00000000
v 0.00000000 0.00000000 0.00000000
v 0.00000000 0.00000000 0.00000000
v 0.00000000 0.00000000 0.00000000
v 0.00000000 0.00000000 0.00000000
v 0.00000000 0.00000000 0.00000000
v 0.00000000 0.00000000 0.00000000
v 0.00000000 0.00000000 0.00000000
v 0.00000000 0.00000000 0.00000000
v 0.00000000 0.00000000 0.00000000
v 0.00000000 0.00000000 0.00000000
v 0.00000000 0.00000000 0.00000000
v 0.00000000 0.00000000 0.00000000
v 0.00000000 0.00000000 0.00000000
v 0.00000000 0.00000000 0.00000000
v 0.00000000 0.00000000 0.00000000
v 0.00000000 0.00000000 0.00000000
v 0.00000000 0.00000000 0.00000000
v 0.00000000 0.00000000 0.00000000
v 0.00000000 0.00000000 0.00000000
v 0.00000000 0.00000000 0.00000000
v 0.00000000 0.00000000 0.00000000
v 0.00000000 0.00000000 0.00000000
v 0.00000000 0.00000000 0.00000000
v 0.00000000 0.00000000 0.00000000
v 0.00000000 0.00000000 0.00000000
v 0.00000000 0.00000000 0.00000000
v 0.00000000 0.00000000 0.00000000
f 3 2 1
f 5 4 1
f 5 1 2
f 6 4 5
f 7 3 1
f 9 8 7
f 1 9 7
f 4 9 1
f 4 6 10
f 4 10 9
f 11 8 9
f 14 13 12
f 10 11 9
f 15 13 14
f 12 13 16
f 12 16 17
f 13 15 18
f 13 18 16
f 17 16 19
f 17 19 20
f 16 18 21
f 16 21 19
f 20 19 22
f 20 22 23
f 19 21 24
f 19 24 22
f 27 26 25
f 25 26 23
f 22 25 23
f 28 25 22
f 22 24 29
f 22 29 28
f 27 25 30
f 27 30 31
f 28 33 32
f 30 28 32
f 25 28 30
f 33 28 29
f 31 30 34
f 31 34 35
f 30 32 36
f 30 36 34
f 35 34 37
f 35 37 38
f 34 36 39
f 34 39 37
f 38 37 40
f 38 40 41
f 37 39 42
f 37 42 40
f 41 40 43
f 41 43 44
f 40 42 45
f 46 40 45
f 43 40 46
f 47 46 45
f 48 44 43
f 50 49 48
f 43 50 48
f 46 50 43
f 46 47 51
f 46 51 50
f 49 50 52
f 49 52 53
f 50 51 54
f 50 54 52
f 55 53 52
f 58 57 56
f 54 55 52
f 59 57 58
f 60 56 57
f 60 57 59
f 62 61 2
f 62 2 3
f 2 63 5
f 61 63 2
f 6 5 63
f 6 63 64
f 65 62 3
f 65 3 7
f 7 8 65
f 65 8 66
f 68 10 67
f 10 64 67
f 10 6 64
f 69 68 67
f 8 11 70
f 71 8 70
f 66 8 71
f 11 10 70
f 10 68 70
f 14 12 70
f 14 70 68
f 15 14 68
f 69 15 68
f 72 15 69
f 71 70 73
f 71 73 74
f 17 73 12
f 12 73 70
f 72 18 15
f 75 18 72
f 74 73 76
f 74 76 77
f 20 76 17
f 17 76 73
f 75 21 18
f 78 21 75
f 77 76 79
f 77 79 80
f 23 79 20
f 20 79 76
f 78 24 21
f 81 24 78
f 80 79 26
f 27 80 26
f 82 80 27
f 26 79 23
f 81 29 24
f 83 29 81
f 86 85 84
f 85 82 84
f 82 31 84
f 82 27 31
f 88 87 33
f 33 87 32
f 33 29 83
f 33 83 88
f 86 84 89
f 86 89 90
f 35 89 31
f 31 89 84
f 87 36 32
f 91 36 87
f 90 89 92
f 90 92 93
f 38 92 35
f 35 92 89
f 91 39 36
f 94 39 91
f 93 92 95
f 93 95 96
f 41 95 38
f 38 95 92
f 94 42 39
f 97 42 94
f 96 95 98
f 96 98 99
f 44 98 41
f 41 98 95
f 97 100 42
f 42 100 45
f 47 45 100
f 47 100 101
f 102 99 98
f 104 102 103
f 103 102 48
f 102 98 48
f 98 44 48
f 49 103 48
f 101 51 47
f 105 51 101
f 104 103 106
f 104 106 107
f 53 106 49
f 49 106 103
f 105 54 51
f 108 54 105
f 109 107 106
f 111 109 110
f 110 109 55
f 109 106 55
f 106 53 55
f 58 56 112
f 110 112 56
f 112 110 108
f 55 108 110
f 108 55 54
f 59 58 112
f 59 112 113
f 114 111 110
f 114 110 56
f 60 114 56
f 115 114 60
f 60 59 113
f 60 113 115
f 117 116 61
f 117 61 62
f 61 118 63
f 116 118 61
f 64 63 118
f 64 118 119
f 62 65 120
f 121 62 120
f 117 62 121
f 66 120 65
f 67 64 122
f 64 123 122
f 64 119 123
f 122 69 67
f 121 120 124
f 121 124 125
f 71 124 66
f 66 124 120
f 122 123 126
f 126 123 127
f 126 72 69
f 126 69 122
f 125 124 128
f 125 128 129
f 74 128 71
f 71 128 124
f 126 127 130
f 130 127 131
f 130 75 72
f 130 72 126
f 132 129 128
f 128 74 132
f 74 133 132
f 74 77 133
f 131 134 130
f 75 130 134
f 135 75 134
f 78 75 135
f 80 133 77
f 80 136 133
f 139 138 137
f 135 139 137
f 81 135 137
f 78 135 81
f 142 141 140
f 141 136 140
f 136 82 140
f 136 80 82
f 137 138 143
f 143 138 144
f 143 83 81
f 143 81 137
f 142 140 85
f 86 142 85
f 145 142 86
f 85 140 82
f 143 144 88
f 144 87 88
f 144 146 87
f 143 88 83
f 90 145 86
f 90 147 145
f 146 91 87
f 148 91 146
f 93 147 90
f 93 149 147
f 148 94 91
f 150 94 148
f 96 149 93
f 96 151 149
f 154 153 152
f 150 154 152
f 97 150 152
f 94 150 97
f 99 151 96
f 99 155 151
f 153 156 152
f 156 158 157
f 156 157 100
f 152 156 100
f 97 152 100
f 157 101 100
f 99 102 159
f 160 99 159
f 155 99 160
f 104 159 102
f 157 158 161
f 161 158 162
f 161 105 101
f 161 101 157
f 163 160 159
f 159 104 163
f 104 164 163
f 104 107 164
f 162 165 161
f 105 161 165
f 166 105 165
f 108 105 166
f 167 164 107
f 167 107 109
f 109 111 167
f 167 111 168
f 112 108 169
f 108 170 169
f 108 166 170
f 169 113 112
f 171 168 111
f 171 111 114
f 115 169 170
f 171 115 170
f 114 115 171
f 169 115 113
f 173 172 116
f 173 116 117
f 172 175 174
f 118 172 174
f 116 172 118
f 174 119 118
f 121 173 117
f 121 176 173
f 174 175 177
f 177 175 178
f 177 123 119
f 177 119 174
f 125 176 121
f 125 179 176
f 177 178 180
f 180 178 181
f 180 127 123
f 180 123 177
f 129 179 125
f 129 182 179
f 181 183 180
f 127 180 183
f 184 127 183
f 131 127 184
f 129 132 185
f 186 129 185
f 182 129 186
f 133 185 132
f 134 131 187
f 131 188 187
f 131 184 188
f 187 135 134
f 186 185 189
f 186 189 190
f 136 189 133
f 133 189 185
f 187 188 139
f 188 138 139
f 188 191 138
f 187 139 135
f 190 189 141
f 142 190 141
f 192 190 142
f 141 189 136
f 195 194 193
f 191 193 194
f 144 191 194
f 138 191 144
f 145 192 142
f 145 196 192
f 195 197 194
f 144 194 197
f 198 144 197
f 146 144 198
f 147 196 145
f 147 199 196
f 201 148 200
f 148 198 200
f 148 146 198
f 202 201 200
f 149 204 203
f 199 149 203
f 147 149 199
f 204 205 203
f 207 206 201
f 206 148 201
f 206 150 148
f 207 201 202
f 209 208 204
f 149 209 204
f 151 209 149
f 210 153 154
f 208 205 204
f 211 210 154
f 150 211 154
f 206 211 150
f 155 209 151
f 155 212 209
f 214 156 213
f 156 153 213
f 213 153 210
f 215 213 210
f 210 211 215
f 156 214 158
f 160 212 155
f 160 216 212
f 213 217 214
f 158 214 217
f 218 158 217
f 162 158 218
f 219 216 160
f 219 160 163
f 163 164 219
f 219 164 220
f 218 221 162
f 162 221 165
f 166 165 221
f 166 221 222
f 223 220 164
f 223 164 167
f 167 168 223
f 223 168 224
f 222 170 166
f 225 170 222
f 226 224 168
f 226 168 171
f 171 170 225
f 171 225 226
f 228 227 172
f 228 172 173
f 230 229 175
f 172 230 175
f 227 230 172
f 231 229 230
f 176 228 173
f 176 232 228
f 233 178 229
f 229 178 175
f 229 231 234
f 229 234 233
f 179 232 176
f 179 235 232
f 236 181 233
f 233 181 178
f 233 234 237
f 233 237 236
f 182 235 179
f 182 238 235
f 236 183 181
f 184 183 236
f 237 184 236
f 239 184 237
f 186 238 182
f 186 240 238
f 239 188 184
f 241 188 239
f 190 240 186
f 190 242 240
f 241 191 188
f 243 191 241
f 192 242 190
f 192 244 242
f 245 195 193
f 246 245 193
f 191 246 193
f 243 246 191
f 196 244 192
f 196 247 244
f 245 197 195
f 249 248 198
f 249 198 197
f 246 249 197
f 245 246 197
f 250 248 249
f 199 252 251
f 247 199 251
f 196 199 247
f 252 253 251
f 248 200 198
f 202 200 248
f 250 202 248
f 254 202 250
f 203 252 199
f 203 205 252
f 205 253 252
f 205 255 253
f 256 206 207
f 257 256 207
f 202 257 207
f 254 257 202
f 209 258 208
f 258 259 208
f 259 205 208
f 259 255 205
f 260 211 256
f 256 211 206
f 256 257 261
f 256 261 260
f 263 262 258
f 209 263 258
f 212 263 209
f 264 213 215
f 262 259 258
f 265 264 215
f 265 215 211
f 266 265 211
f 260 266 211
f 266 260 261
f 216 263 212
f 216 267 263
f 264 217 213
f 218 217 264
f 265 218 264
f 268 218 265
f 216 219 269
f 270 216 269
f 267 216 270
f 220 269 219
f 221 218 271
f 218 272 271
f 218 268 272
f 271 222 221
f 273 270 269
f 275 273 274
f 274 273 223
f 273 269 223
f 269 220 223
f 272 276 271
f 274 223 224
f 222 271 276
f 277 222 276
f 225 222 277
f 278 275 274
f 278 274 224
f 226 278 224
f 279 278 226
f 226 225 277
f 226 277 279
f 228 280 227
f 227 280 281
f 282 227 281
f 230 227 282
f 231 230 282
f 231 282 283
f 232 284 280
f 232 280 228
f 281 280 285
f 285 280 284
f 287 234 286
f 234 283 286
f 234 231 283
f 288 287 286
f 235 289 284
f 235 284 232
f 285 284 290
f 290 284 289
f 291 237 287
f 287 237 234
f 287 288 292
f 287 292 291
f 294 293 289
f 235 294 289
f 238 294 235
f 289 293 290
f 295 239 291
f 291 239 237
f 291 292 296
f 291 296 295
f 240 294 238
f 240 297 294
f 298 241 295
f 295 241 239
f 295 296 299
f 295 299 298
f 242 301 300
f 297 242 300
f 240 242 297
f 301 302 300
f 303 243 298
f 298 243 241
f 298 299 304
f 298 304 303
f 244 305 301
f 244 301 242
f 302 301 306
f 306 301 305
f 307 246 303
f 303 246 243
f 303 304 308
f 303 308 307
f 247 309 305
f 247 305 244
f 306 305 310
f 310 305 309
f 307 249 246
f 250 249 307
f 308 250 307
f 311 250 308
f 251 309 247
f 313 312 253
f 253 312 251
f 312 310 251
f 310 309 251
f 313 314 312
f 311 254 250
f 315 254 311
f 255 316 313
f 255 313 253
f 314 313 317
f 317 313 316
f 315 257 254
f 318 257 315
f 320 319 316
f 255 320 316
f 259 320 255
f 316 319 317
f 318 261 257
f 321 261 318
f 323 322 262
f 323 262 263
f 259 262 320
f 320 262 322
f 325 324 266
f 266 324 265
f 266 261 321
f 266 321 325
f 267 323 263
f 267 326 323
f 329 328 327
f 324 329 327
f 268 324 327
f 265 324 268
f 270 326 267
f 270 330 326
f 328 331 327
f 268 327 331
f 332 268 331
f 272 268 332
f 333 330 270
f 333 270 273
f 273 275 333
f 333 275 334
f 276 272 335
f 272 336 335
f 272 332 336
f 335 277 276
f 337 334 275
f 337 275 278
f 279 335 336
f 337 279 336
f 278 279 337
f 335 279 277
f 339 338 282
f 339 282 281
f 341 340 283
f 282 341 283
f 338 341 282
f 343 342 340
f 343 340 341
f 344 342 343
f 285 339 281
f 285 345 339
f 340 286 283
f 286 340 288
f 340 346 288
f 340 342 346
f 342 344 347
f 342 347 346
f 290 349 348
f 345 290 348
f 285 290 345
f 349 350 348
f 351 292 346
f 346 292 288
f 346 347 352
f 346 352 351
f 294 353 293
f 353 354 293
f 293 354 290
f 354 355 290
f 355 349 290
f 349 355 350
f 356 296 351
f 351 296 292
f 351 352 357
f 351 357 356
f 297 358 353
f 297 353 294
f 354 353 359
f 359 353 358
f 360 299 356
f 356 299 296
f 356 357 361
f 356 361 360
f 300 358 297
f 363 362 302
f 302 362 300
f 362 359 300
f 359 358 300
f 363 364 362
f 365 304 360
f 360 304 299
f 360 361 366
f 360 366 365
f 306 367 363
f 306 363 302
f 364 363 368
f 368 363 367
f 369 308 365
f 365 308 304
f 365 366 370
f 365 370 369
f 310 371 367
f 310 367 306
f 368 367 372
f 372 367 371
f 373 311 369
f 369 311 308
f 369 370 374
f 375 369 374
f 373 369 375
f 376 375 374
f 312 371 310
f 312 314 371
f 314 372 371
f 314 377 372
f 378 315 373
f 373 315 311
f 375 380 379
f 378 375 379
f 373 375 378
f 380 375 376
f 317 377 314
f 317 381 377
f 383 382 378
f 382 315 378
f 382 318 315
f 383 378 379
f 385 384 319
f 385 319 320
f 317 319 381
f 381 319 384
f 382 321 318
f 386 321 382
f 323 387 322
f 387 388 322
f 388 320 322
f 388 385 320
f 389 324 325
f 390 389 325
f 321 390 325
f 386 390 321
f 392 391 387
f 323 392 387
f 326 392 323
f 393 328 329
f 391 388 387
f 394 393 329
f 394 329 324
f 395 394 324
f 389 395 324
f 395 389 390
f 330 392 326
f 330 396 392
f 398 331 397
f 331 328 397
f 397 328 393
f 399 397 393
f 393 394 399
f 331 398 332
f 330 333 400
f 401 330 400
f 396 330 401
f 397 402 398
f 400 333 334
f 332 398 402
f 403 332 402
f 336 332 403
f 404 401 400
f 404 400 334
f 337 404 334
f 405 404 337
f 337 336 403
f 337 403 405
f 339 406 338
f 338 406 407
f 408 338 407
f 341 338 408
f 341 409 343
f 408 409 341
f 344 343 409
f 344 409 410
f 345 411 406
f 345 406 339
f 407 406 412
f 406 413 412
f 406 411 413
f 413 414 412
f 410 347 344
f 415 347 410
f 348 411 345
f 411 348 350
f 416 411 350
f 413 411 416
f 414 413 417
f 417 413 416
f 415 352 347
f 418 352 415
f 354 419 355
f 419 420 355
f 355 420 350
f 420 421 350
f 421 416 350
f 416 421 417
f 418 357 352
f 422 357 418
f 359 423 419
f 359 419 354
f 420 419 424
f 424 419 423
f 422 361 357
f 425 361 422
f 362 423 359
f 362 364 423
f 364 424 423
f 364 426 424
f 425 366 361
f 427 366 425
f 430 429 428
f 429 426 428
f 426 368 428
f 426 364 368
f 433 432 431
f 427 433 431
f 370 427 431
f 366 427 370
f 430 428 434
f 430 434 435
f 372 434 368
f 368 434 428
f 432 436 431
f 436 438 437
f 436 437 374
f 431 436 374
f 370 431 374
f 437 376 374
f 439 435 434
f 434 372 439
f 372 440 439
f 372 377 440
f 437 438 380
f 438 379 380
f 438 441 379
f 437 380 376
f 381 440 377
f 381 442 440
f 443 382 383
f 444 443 383
f 379 444 383
f 441 444 379
f 385 445 384
f 445 446 384
f 446 381 384
f 446 442 381
f 448 447 443
f 447 382 443
f 447 386 382
f 448 443 444
f 450 449 445
f 385 450 445
f 388 450 385
f 445 449 446
f 447 390 386
f 451 390 447
f 453 452 391
f 453 391 392
f 388 391 450
f 450 391 452
f 455 454 395
f 395 454 394
f 395 390 451
f 395 451 455
f 396 453 392
f 396 456 453
f 458 457 399
f 399 457 397
f 399 394 454
f 399 454 458
f 401 456 396
f 401 459 456
f 457 460 397
f 397 460 402
f 403 402 460
f 403 460 461
f 462 459 401
f 462 401 404
f 463 404 405
f 463 462 404
f 405 403 461
f 405 461 463
f 407 464 408
f 408 464 465
f 466 408 465
f 409 408 466
f 468 467 410
f 409 468 410
f 466 468 409
f 469 467 468
f 412 464 407
f 412 414 464
f 414 465 464
f 414 470 465
f 471 415 467
f 467 415 410
f 467 469 472
f 467 472 471
f 475 474 473
f 474 470 473
f 470 417 473
f 470 414 417
f 477 476 471
f 476 415 471
f 476 418 415
f 477 471 472
f 475 473 421
f 420 475 421
f 478 475 420
f 421 473 417
f 476 422 418
f 479 422 476
f 482 481 480
f 481 478 480
f 478 424 480
f 478 420 424
f 485 484 483
f 479 485 483
f 425 479 483
f 422 479 425
f 482 480 486
f 482 486 487
f 426 486 424
f 424 486 480
f 483 484 488
f 488 484 489
f 488 427 425
f 488 425 483
f 487 486 429
f 430 487 429
f 490 487 430
f 429 486 426
f 488 489 433
f 489 432 433
f 489 491 432
f 488 433 427
f 435 490 430
f 435 492 490
f 436 432 493
f 432 494 493
f 432 491 494
f 493 438 436
f 435 439 495
f 496 435 495
f 492 435 496
f 440 495 439
f 494 497 493
f 438 493 497
f 498 438 497
f 441 438 498
f 499 496 495
f 495 440 499
f 440 500 499
f 440 442 500
f 498 444 441
f 501 444 498
f 504 503 502
f 503 500 502
f 500 446 502
f 500 442 446
f 506 505 448
f 448 505 447
f 448 444 501
f 448 501 506
f 509 508 507
f 507 508 504
f 507 504 502
f 450 507 502
f 449 450 502
f 449 502 446
f 512 511 510
f 505 510 511
f 451 505 511
f 447 505 451
f 509 507 452
f 453 509 452
f 513 509 453
f 452 507 450
f 511 512 455
f 512 454 455
f 512 514 454
f 511 455 451
f 456 513 453
f 456 515 513
f 516 457 458
f 517 516 458
f 454 517 458
f 514 517 454
f 459 515 456
f 459 518 515
f 516 460 457
f 461 460 516
f 517 461 516
f 519 461 517
f 520 518 459
f 520 459 462
f 521 462 463
f 521 520 462
f 463 461 519
f 463 519 521
f 465 522 466
f 466 522 523
f 524 466 523
f 468 466 524
f 469 468 524
f 469 524 525
f 527 526 522
f 465 527 522
f 470 527 465
f 526 528 522
f 528 529 522
f 530 523 522
f 530 522 529
f 525 530 529
f 472 525 529
f 469 525 472
f 532 531 474
f 532 474 475
f 470 474 527
f 527 474 531
f 529 528 477
f 528 476 477
f 528 533 476
f 529 477 472
f 536 535 534
f 535 532 534
f 532 478 534
f 532 475 478
f 539 538 537
f 533 539 537
f 479 533 537
f 476 533 479
f 536 534 481
f 482 536 481
f 540 536 482
f 481 534 478
f 537 538 485
f 538 484 485
f 538 541 484
f 537 485 479
f 487 540 482
f 487 542 540
f 545 544 543
f 541 545 543
f 489 541 543
f 484 541 489
f 490 542 487
f 490 546 542
f 543 544 547
f 547 544 548
f 547 491 489
f 547 489 543
f 492 546 490
f 492 549 546
f 547 548 550
f 550 548 551
f 550 494 491
f 550 491 547
f 554 553 552
f 553 549 552
f 549 496 552
f 549 492 496
f 551 555 550
f 555 557 556
f 555 556 497
f 550 555 497
f 494 550 497
f 556 498 497
f 558 554 552
f 560 558 559
f 559 558 499
f 558 552 499
f 552 496 499
f 500 559 499
f 556 557 561
f 561 557 562
f 561 501 498
f 561 498 556
f 565 564 563
f 563 564 560
f 563 560 559
f 504 563 559
f 503 504 559
f 503 559 500
f 561 562 506
f 562 505 506
f 562 566 505
f 561 506 501
f 565 563 508
f 509 565 508
f 567 565 509
f 508 563 504
f 569 568 510
f 510 568 512
f 510 505 566
f 510 566 569
f 513 567 509
f 513 570 567
f 568 514 512
f 571 514 568
f 515 573 572
f 570 515 572
f 513 515 570
f 573 574 572
f 571 517 514
f 575 517 571
f 518 576 573
f 518 573 515
f 574 573 577
f 577 573 576
f 575 519 517
f 578 519 575
f 520 576 518
f 579 577 576
f 520 579 576
f 521 579 520
f 521 519 578
f 521 578 579
f 582 581 580
f 524 523 580
f 581 524 580
f 583 524 581
f 525 524 583
f 525 583 584
f 582 580 526
f 527 582 526
f 585 582 527
f 528 526 586
f 526 580 586
f 523 530 586
f 523 586 580
f 587 586 530
f 525 587 530
f 584 587 525
f 589 588 531
f 589 531 532
f 527 531 585
f 585 531 588
f 591 590 586
f 590 528 586
f 590 533 528
f 591 586 587
f 593 592 535
f 593 535 536
f 532 535 589
f 589 535 592
f 595 594 539
f 539 594 538
f 539 533 590
f 539 590 595
f 540 593 536
f 540 596 593
f 599 598 597
f 594 599 597
f 541 594 597
f 538 594 541
f 542 596 540
f 542 600 596
f 597 598 545
f 598 544 545
f 598 601 544
f 597 545 541
f 546 600 542
f 546 602 600
f 604 548 603
f 548 601 603
f 548 544 601
f 605 604 603
f 549 602 546
f 549 606 602
f 607 551 604
f 604 551 548
f 604 605 608
f 604 608 607
f 610 609 553
f 610 553 554
f 549 553 606
f 606 553 609
f 612 555 611
f 555 551 611
f 611 551 607
f 613 611 607
f 607 608 613
f 555 612 557
f 554 558 614
f 615 554 614
f 610 554 615
f 560 614 558
f 612 611 616
f 616 611 617
f 616 562 557
f 616 557 612
f 615 614 564
f 565 615 564
f 618 615 565
f 564 614 560
f 616 617 619
f 619 617 620
f 619 566 562
f 619 562 616
f 567 618 565
f 567 621 618
f 619 620 569
f 620 568 569
f 620 622 568
f 619 569 566
f 570 621 567
f 570 623 621
f 622 571 568
f 624 571 622
f 570 572 625
f 626 570 625
f 623 570 626
f 574 625 572
f 624 575 571
f 627 575 624
f 628 626 625
f 625 574 628
f 574 629 628
f 574 577 629
f 627 578 575
f 630 578 627
f 631 629 577
f 631 577 579
f 579 578 630
f 579 630 631
f 582 632 581
f 581 632 633
f 634 581 633
f 583 581 634
f 584 583 634
f 584 634 635
f 637 636 632
f 582 637 632
f 585 637 582
f 632 636 633
f 635 587 584
f 638 587 635
f 640 639 588
f 640 588 589
f 585 588 637
f 637 588 639
f 642 641 591
f 591 641 590
f 591 587 638
f 591 638 642
f 644 643 592
f 644 592 593
f 589 592 640
f 640 592 643
f 646 645 595
f 595 645 594
f 595 590 641
f 595 641 646
f 596 644 593
f 596 647 644
f 649 648 599
f 599 648 598
f 599 594 645
f 599 645 649
f 600 647 596
f 600 650 647
f 648 601 598
f 651 601 648
f 602 650 600
f 602 652 650
f 651 653 601
f 601 653 603
f 605 603 653
f 605 653 654
f 606 656 655
f 652 606 655
f 602 606 652
f 656 657 655
f 659 608 658
f 608 654 658
f 608 605 654
f 660 659 658
f 610 661 609
f 661 662 609
f 609 662 606
f 662 663 606
f 663 656 606
f 664 611 613
f 663 657 656
f 608 659 613
f 659 664 613
f 659 665 664
f 659 660 666
f 659 666 665
f 668 667 661
f 610 668 661
f 615 668 610
f 661 667 662
f 670 669 664
f 669 611 664
f 669 617 611
f 670 664 665
f 670 665 671
f 671 665 666
f 618 668 615
f 618 672 668
f 669 620 617
f 673 620 669
f 621 675 674
f 672 621 674
f 618 621 672
f 675 676 674
f 673 622 620
f 677 622 673
f 623 678 675
f 623 675 621
f 676 675 679
f 679 675 678
f 677 624 622
f 680 624 677
f 626 681 678
f 626 678 623
f 679 678 682
f 682 678 681
f 684 627 683
f 627 680 683
f 627 624 680
f 685 684 683
f 628 681 626
f 628 629 681
f 629 682 681
f 629 686 682
f 688 687 684
f 687 627 684
f 687 630 627
f 688 684 685
f 689 686 629
f 689 629 631
f 631 630 687
f 631 687 689
f 691 690 634
f 691 634 633
f 635 634 690
f 635 690 692
f 694 693 636
f 694 636 637
f 633 636 691
f 691 636 693
f 692 638 635
f 695 638 692
f 697 696 639
f 697 639 640
f 637 639 694
f 694 639 696
f 699 698 642
f 642 698 641
f 642 638 695
f 642 695 699
f 644 700 643
f 700 701 643
f 701 640 643
f 701 697 640
f 703 702 646
f 646 702 645
f 646 641 698
f 646 698 703
f 705 704 700
f 644 705 700
f 647 705 644
f 706 648 649
f 704 701 700
f 707 706 649
f 645 707 649
f 702 707 645
f 650 705 647
f 650 708 705
f 710 709 706
f 709 648 706
f 709 651 648
f 710 706 707
f 652 708 650
f 652 711 708
f 709 712 651
f 651 712 653
f 654 653 712
f 654 712 713
f 714 711 652
f 714 652 655
f 655 657 714
f 714 657 715
f 713 716 654
f 654 716 658
f 660 658 716
f 660 716 717
f 719 718 663
f 719 663 662
f 657 663 715
f 715 663 718
f 717 666 660
f 720 666 717
f 668 721 667
f 721 722 667
f 722 662 667
f 722 719 662
f 724 723 670
f 670 723 669
f 725 670 671
f 725 724 670
f 671 666 720
f 671 720 725
f 672 726 721
f 672 721 668
f 722 721 727
f 727 721 726
f 723 673 669
f 728 673 723
f 674 726 672
f 674 676 726
f 676 727 726
f 676 729 727
f 728 677 673
f 730 677 728
f 679 729 676
f 679 731 729
f 730 680 677
f 732 680 730
f 682 731 679
f 682 733 731
f 732 734 680
f 680 734 683
f 685 683 734
f 685 734 735
f 686 733 682
f 686 736 733
f 738 737 688
f 688 737 687
f 688 685 735
f 688 735 738
f 739 736 686
f 739 686 689
f 689 687 737
f 689 737 739
f 691 740 690
f 740 692 690
f 694 741 693
f 740 691 693
f 741 740 693
f 742 740 741
f 742 695 692
f 742 692 740
f 697 743 696
f 741 694 696
f 743 741 696
f 744 741 743
f 744 698 699
f 742 744 699
f 741 744 742
f 742 699 695
f 701 745 743
f 701 743 697
f 745 702 703
f 744 745 703
f 743 745 744
f 744 703 698
f 705 746 704
f 745 701 704
f 746 745 704
f 747 745 746
f 747 707 702
f 747 702 745
f 708 748 746
f 708 746 705
f 748 709 710
f 747 748 710
f 746 748 747
f 747 710 707
f 711 749 748
f 711 748 708
f 750 712 709
f 748 750 709
f 749 750 748
f 750 713 712
f 714 749 711
f 749 714 715
f 751 749 715
f 750 749 751
f 752 716 713
f 750 752 713
f 751 752 750
f 752 717 716
f 719 753 718
f 751 715 718
f 753 751 718
f 754 751 753
f 751 755 752
f 751 754 755
f 755 720 717
f 755 717 752
f 722 756 753
f 722 753 719
f 756 723 724
f 754 756 724
f 753 756 754
f 754 724 725
f 754 725 755
f 755 725 720
f 727 757 756
f 727 756 722
f 757 728 723
f 757 723 756
f 729 758 757
f 729 757 727
f 758 730 728
f 758 728 757
f 731 759 758
f 731 758 729
f 759 732 730
f 759 730 758
f 733 760 759
f 733 759 731
f 761 734 732
f 759 761 732
f 760 761 759
f 761 735 734
f 736 762 760
f 736 760 733
f 762 737 738
f 761 762 738
f 760 762 761
f 761 738 735
f 739 762 736
f 762 739 737

