# https://github.com/mikedh/trimesh
v -0.04843525 -0.01077153 -0.03531836
v -0.04600240 -0.01205586 -0.03571615
v -0.04639582 -0.01004214 -0.03735755
v -0.04864159 -0.01042891 -0.03161351
v -0.04680270 -0.01237868 -0.03153125
v -0.04862333 -0.01040734 -0.02700554
v -0.04670751 -0.01233493 -0.02692915
v -0.04865688 -0.01038155 -0.02248826
v -0.04674542 -0.01239282 -0.02241115
v -0.04840887 -0.01004109 -0.01897866
v -0.04682447 -0.01205812 -0.01822183
v -0.04673570 -0.01078974 -0.01603995
v -0.04679365 -0.00875783 -0.03492590
v -0.04673451 -0.00842191 -0.03049075
v -0.04672287 -0.00846791 -0.02586819
v -0.04675280 -0.00842415 -0.02142229
v -0.04626486 -0.00877594 -0.01721304
v -0.04153963 -0.01240034 -0.03562899
v -0.04268543 -0.01038147 -0.03754176
v -0.04325559 -0.01302103 -0.03208101
v -0.04240025 -0.01246061 -0.02717173
v -0.04202488 -0.01247133 -0.02213930
v -0.04243908 -0.01300071 -0.01795135
v -0.04480566 -0.01040318 -0.01323606
v -0.04285284 -0.01249046 -0.01367891
v -0.04378490 -0.01002329 -0.01005756
v -0.04219973 -0.01203024 -0.00931915
v -0.04219080 -0.01078912 -0.00717467
v -0.04260633 -0.00842723 -0.03566297
v -0.04317622 -0.00779067 -0.03214608
v -0.04211461 -0.00832168 -0.02788584
v -0.04232789 -0.00833009 -0.02281517
v -0.04242193 -0.00781425 -0.01800927
v -0.04261254 -0.00832354 -0.01311330
v -0.04174256 -0.00878332 -0.00832916
v -0.03693359 -0.01238442 -0.03554525
v -0.03810316 -0.01041306 -0.03746571
v -0.03899000 -0.01249793 -0.03097066
v -0.04014564 -0.01038454 -0.02632991
v -0.03739238 -0.01041983 -0.02894161
v -0.04003357 -0.01042412 -0.02254162
v -0.03804951 -0.01077320 -0.01982678
v -0.03799977 -0.01203911 -0.01773646
v -0.03736441 -0.01248801 -0.01339847
v -0.03788277 -0.01297537 -0.00912325
v -0.04037719 -0.01041665 -0.00437561
v -0.03840697 -0.01248020 -0.00483113
v -0.03939339 -0.01005295 -0.00113158
v -0.03779766 -0.01202519 -0.00039488
v -0.03777421 -0.01074107 0.00178018
v -0.03799369 -0.00845479 -0.03548697
v -0.03820143 -0.00833051 -0.03116891
v -0.03853664 -0.00874811 -0.01873516
v -0.03756149 -0.00832395 -0.01400578
v -0.03787776 -0.00783848 -0.00913526
v -0.03822503 -0.00834295 -0.00425216
v -0.03733635 -0.00877970 0.00055536
v -0.03249093 -0.01240138 -0.03547721
v -0.03365058 -0.01040277 -0.03743053
v -0.03439328 -0.01239857 -0.03162425
v -0.03319712 -0.01042247 -0.02957241
v -0.03634949 -0.01002065 -0.01701396
v -0.03534307 -0.01040799 -0.01385160
v -0.03352992 -0.01079008 -0.01106567
v -0.03356422 -0.01203107 -0.00893757
v -0.03305489 -0.01247445 -0.00458909
v -0.03352831 -0.01299125 -0.00024306
v -0.03582041 -0.01006462 0.00365876
v -0.03399885 -0.01218719 0.00384499
v -0.03319956 -0.01075720 0.00614788
v -0.03354427 -0.00841373 -0.03543050
v -0.03327240 -0.00842612 -0.03147612
v -0.03399533 -0.00878671 -0.00992665
v -0.03320940 -0.00833640 -0.00519007
v -0.03355307 -0.00781528 -0.00027602
v -0.03335507 -0.00862377 0.00442720
v -0.02807560 -0.01240850 -0.03541087
v -0.02924112 -0.01040660 -0.03741037
v -0.02998653 -0.01240836 -0.03149028
v -0.02880313 -0.01041193 -0.02945481
v -0.03197903 -0.01003287 -0.00821540
v -0.03108331 -0.01040020 -0.00505602
v -0.02927849 -0.01075714 -0.00230805
v -0.02848075 -0.01218724 -0.00000251
v -0.02896783 -0.01299073 0.00407908
v -0.03137909 -0.01041518 0.00891920
v -0.02939578 -0.01249199 0.00848255
v -0.03047283 -0.01006661 0.01221600
v -0.02882756 -0.01206044 0.01298904
v -0.02886455 -0.01075516 0.01525249
v -0.02915847 -0.00840422 -0.03540853
v -0.02888821 -0.00840679 -0.03141957
v -0.02912749 -0.00862429 -0.00059121
v -0.02894217 -0.00781764 0.00409914
v -0.02931492 -0.00832924 0.00907694
v -0.02845412 -0.00875500 0.01407423
v -0.02365815 -0.01240851 -0.03540943
v -0.02482462 -0.01040683 -0.03741180
v -0.02557500 -0.01240837 -0.03140755
v -0.02440765 -0.01040628 -0.02940516
v -0.02665915 -0.01006568 0.00018600
v -0.02470482 -0.01074289 0.00206155
v -0.02471963 -0.01202703 0.00421393
v -0.02415125 -0.01250828 0.00869633
v -0.02459357 -0.01302191 0.01325338
v -0.02686059 -0.01006421 0.01735351
v -0.02559542 -0.01207900 0.01690017
v -0.02378821 -0.01077524 0.01903793
v -0.02474510 -0.00840477 -0.03541082
v -0.02448868 -0.00840439 -0.03140703
v -0.02515556 -0.00878369 0.00327188
v -0.02434325 -0.00831866 0.00809545
v -0.02474290 -0.00778243 0.01324634
v -0.02454273 -0.00872929 0.01746653
v -0.01924107 -0.01240849 -0.03541282
v -0.02040773 -0.01040663 -0.03741470
v -0.02115821 -0.01240835 -0.03140670
v -0.01999146 -0.01040651 -0.02940630
v -0.02312656 -0.01005934 0.00493501
v -0.02226608 -0.01039676 0.00818215
v -0.02054057 -0.01076896 0.01098542
v -0.01977084 -0.01219478 0.01347901
v -0.02117354 -0.01242066 0.01736284
v -0.02016709 -0.01044967 0.01921188
v -0.02032760 -0.00840477 -0.03541291
v -0.02007126 -0.00840474 -0.03140901
v -0.02044927 -0.00858454 0.01284417
v -0.02020120 -0.00841626 0.01737900
v -0.01482430 -0.01240850 -0.03541290
v -0.01599099 -0.01040663 -0.03741478
v -0.01674078 -0.01240850 -0.03140914
v -0.01557408 -0.01040663 -0.02940731
v -0.01810989 -0.00999467 0.01360434
v -0.01538659 -0.01035511 0.01548125
v -0.01612940 -0.01190102 0.01718600
v -0.01570464 -0.01042007 0.01903615
v -0.01591083 -0.00840476 -0.03541292
v -0.01565424 -0.00840477 -0.03140918
v -0.01590383 -0.00889491 0.01702126
v -0.01040756 -0.01240849 -0.03541284
v -0.01157424 -0.01040663 -0.03741471
v -0.01232400 -0.01240850 -0.03140914
v -0.01115733 -0.01040663 -0.02940726
v -0.01120515 -0.01171812 0.01750905
v -0.01121156 -0.01038112 0.01622437
v -0.01121450 -0.01045265 0.01886461
v -0.01149408 -0.00840477 -0.03541284
v -0.01123750 -0.00840477 -0.03140912
v -0.01122091 -0.00911566 0.01757992
v -0.00599080 -0.01240849 -0.03541284
v -0.00715749 -0.01040663 -0.03741471
v -0.00790726 -0.01240849 -0.03140912
v -0.00674058 -0.01040663 -0.02940725
v -0.00651205 -0.01173857 0.01745763
v -0.00651341 -0.01044500 0.01609474
v -0.00652676 -0.01037105 0.01877061
v -0.00707732 -0.00840477 -0.03541284
v -0.00682074 -0.00840477 -0.03140912
v -0.00652812 -0.00907748 0.01740772
v -0.00886200 0.01657166 0.00968488
v -0.00735295 0.01404667 0.00864959
v -0.00716423 0.01677967 0.00643903
v -0.00909013 0.01664168 0.01400545
v -0.00727568 0.01361159 0.01178602
v -0.00911428 0.01667698 0.01852807
v -0.00723509 0.01371998 0.01630155
v -0.00919299 0.01669094 0.02297072
v -0.00731473 0.01372470 0.02082333
v -0.00879359 0.01703060 0.02642808
v -0.00653843 0.01365600 0.02605692
v -0.00678554 0.01599893 0.02875888
v -0.00873979 0.01991811 0.00833936
v -0.00678384 0.02100288 0.00598050
v -0.00917078 0.02032165 0.01189547
v -0.00915814 0.02034012 0.01638089
v -0.00920277 0.02032016 0.02082404
v -0.00895811 0.02031639 0.02503864
v -0.00747017 0.01945782 0.02844942
v -0.00684731 0.02256519 0.00860473
v -0.00662977 0.02235774 0.01258828
v -0.00738094 0.02214062 0.01733899
v -0.00696806 0.02233655 0.02221546
v -0.00635905 0.02248668 0.02718693
v -0.00157404 -0.01240849 -0.03541284
v -0.00274073 -0.01040663 -0.03741471
v -0.00349050 -0.01240849 -0.03140912
v -0.00232382 -0.01040663 -0.02940725
v -0.00273256 -0.01144188 0.01780096
v -0.00273151 -0.01083222 0.01633812
v -0.00273393 -0.00997988 0.01841382
v -0.00266056 -0.00840477 -0.03541284
v -0.00240399 -0.00840477 -0.03140912
v -0.00273288 -0.00937021 0.01695099
v -0.00505352 0.01219859 0.00875318
v -0.00185251 0.01019863 0.00849339
v -0.00281611 0.01197845 0.00613814
v -0.00493913 0.01151898 0.01396374
v -0.00201266 0.00936876 0.01179851
v -0.00488389 0.01159624 0.01850822
v -0.00267693 0.00946688 0.01631881
v -0.00495021 0.01150462 0.02302824
v -0.00222607 0.00948459 0.02146982
v -0.00454660 0.01142362 0.02612897
v -0.00267627 0.01031058 0.02557091
v -0.00197758 0.01169690 0.02830960
v -0.00457382 0.01518277 0.00449597
v -0.00148267 0.01394749 0.00376120
v -0.00283879 0.01709962 0.00230094
v -0.00480836 0.01745478 0.03108994
v -0.00352806 0.01420505 0.03027623
v -0.00168277 0.01603923 0.03244089
v -0.00483888 0.01950528 0.00359439
v -0.00145612 0.02037422 0.00215438
v -0.00472549 0.02079247 0.01403770
v -0.00296644 0.02048603 0.01100822
v -0.00271533 0.01874056 0.01298173
v -0.00278223 0.01824856 0.01612056
v -0.00507059 0.02079938 0.01826101
v -0.00203016 0.01821129 0.02143347
v -0.00445126 0.02113002 0.02202906
v -0.00220199 0.02036296 0.02432757
v -0.00512391 0.02095933 0.03043852
v -0.00213951 0.01949594 0.03258828
v -0.00357473 0.02256391 0.00476458
v -0.00250854 0.02260606 0.00781669
v -0.00330150 0.02255968 0.02610629
v -0.00256380 0.02251102 0.03046475
v -0.00000136 -0.01532476 0.01345812
v 0.00291279 -0.01684753 0.01299300
v 0.00131567 -0.01421913 0.01104080
v -0.00020281 -0.01425723 0.01754865
v 0.00199595 -0.01716711 0.01730037
v -0.00000382 -0.01421375 0.02226568
v 0.00142254 -0.01662624 0.02119263
v 0.00255087 -0.01524496 0.02367393
v 0.00284271 -0.01240849 -0.03541284
v 0.00167603 -0.01040663 -0.03741471
v 0.00092625 -0.01240849 -0.03140912
v 0.00209294 -0.01040663 -0.02940725
v -0.00023328 -0.01066262 0.01352090
v 0.00190584 -0.01033729 0.01058542
v -0.00100971 -0.01040643 0.01737208
v 0.00213128 -0.01005375 0.01557954
v 0.00195013 -0.01218605 0.01760891
v -0.00030530 -0.01019343 0.02117049
v 0.00234971 -0.00984672 0.01916015
v 0.00199915 -0.01158912 0.02414738
v 0.00175620 -0.00840477 -0.03541284
v 0.00201277 -0.00840477 -0.03140912
v -0.00010577 -0.00650470 0.01247320
v 0.00281077 -0.00594350 0.01092805
v 0.00161027 -0.00801901 0.01712428
v -0.00033119 -0.00655228 0.01714382
v -0.00015108 -0.00537877 0.02120854
v 0.00183539 -0.00695115 0.02383904
v 0.00122136 -0.00397857 0.01356274
v 0.00238168 -0.00382081 0.01761148
v 0.00236566 -0.00398945 0.02228868
v 0.00011794 0.00295586 0.01395841
v 0.00264313 0.00096491 0.01243822
v 0.00168247 0.00345273 0.01124085
v -0.00029310 0.00301400 0.01843966
v 0.00259335 0.00073346 0.01710773
v 0.00015264 0.00350737 0.02206306
v 0.00142224 0.00102166 0.02109259
v 0.00249131 0.00240833 0.02345710
v -0.00056854 0.00661750 0.01321123
v 0.00205678 0.00659132 0.01075469
v -0.00112727 0.00662729 0.01725667
v -0.00037695 0.00666553 0.02166071
v 0.00249996 0.00623456 0.02434190
v 0.00223518 0.00939346 0.00893747
v 0.00064092 0.01143909 0.00623241
v 0.00063454 0.00947102 0.02577986
v 0.00296964 0.01161341 0.02872199
v 0.00280768 0.01369529 0.00384191
v 0.00062969 0.01670718 0.00194719
v -0.00057622 0.01671955 0.01312752
v 0.00162395 0.01648970 0.01049793
v 0.00258317 0.01456398 0.01271087
v 0.00267047 0.01375272 0.01676891
v -0.00065442 0.01585551 0.01848971
v 0.00158694 0.01460746 0.02115417
v -0.00022348 0.01584243 0.02176034
v 0.00235453 0.01612750 0.02389758
v 0.00086021 0.01371304 0.03108002
v 0.00193330 0.01663874 0.03284087
v 0.00282881 0.02031326 0.00190490
v -0.00019218 0.01957141 0.00904517
v 0.00154508 0.02118775 0.00664728
v 0.00313269 0.01851411 0.00828813
v 0.00084780 0.01881691 0.02564637
v -0.00025318 0.02110563 0.02698731
v 0.00295278 0.02077962 0.02847647
v 0.00184964 0.02034846 0.03283207
v 0.00137690 0.02237480 0.00414444
v 0.00145379 0.02231423 0.03028938
v 0.00755220 -0.01718693 0.01311095
v 0.00505033 -0.01467771 0.01059835
v 0.00639472 -0.01770882 0.01738168
v 0.00519144 -0.01709841 0.02167451
v 0.00643977 -0.01465059 0.02416006
v 0.00725947 -0.01240849 -0.03541284
v 0.00609279 -0.01040663 -0.03741471
v 0.00534301 -0.01240849 -0.03140912
v 0.00650970 -0.01040663 -0.02940725
v 0.00623660 -0.01038214 0.01005952
v 0.00559558 -0.01071384 0.01547921
v 0.00630148 -0.01200220 0.01738182
v 0.00700839 -0.01071309 0.01928450
v 0.00634959 -0.01038771 0.02473014
v 0.00617295 -0.00840477 -0.03541284
v 0.00642953 -0.00840477 -0.03140912
v 0.00747438 -0.00603338 0.01060461
v 0.00381513 -0.00582760 0.01763681
v 0.00632410 -0.00668341 0.01548672
v 0.00625314 -0.00669340 0.01928022
v 0.00624210 -0.00605322 0.02415795
v 0.00599304 -0.00381334 0.01357383
v 0.00650154 -0.00387777 0.02120677
v 0.00657642 0.00070128 0.01356494
v 0.00525176 0.00293829 0.01076343
v 0.00471767 0.00289103 0.01710403
v 0.00658262 0.00290194 0.01576341
v 0.00605841 0.00290407 0.01896924
v 0.00609976 0.00075022 0.02110920
v 0.00631936 0.00298229 0.02397903
v 0.00641678 0.00657211 0.00995391
v 0.00499512 0.00718138 0.01738086
v 0.00630085 0.00718229 0.01607736
v 0.00629792 0.00718131 0.01868679
v 0.00729868 0.00667090 0.02480728
v 0.00734967 0.00943852 0.00839918
v 0.00512850 0.01156683 0.00624491
v 0.00472482 0.01119243 0.01762175
v 0.00606870 0.01118108 0.01580400
v 0.00653253 0.01120579 0.01896851
v 0.00516537 0.00948484 0.02640314
v 0.00746706 0.01161080 0.02858402
v 0.00731981 0.01371894 0.00383628
v 0.00510428 0.01666050 0.00201075
v 0.00515169 0.01581568 0.01045931
v 0.00692400 0.01372833 0.01374705
v 0.00568418 0.01379473 0.02108640
v 0.00744907 0.01588514 0.02444742
v 0.00538049 0.01380448 0.03099042
v 0.00643230 0.01671079 0.03281732
v 0.00729687 0.02031857 0.00193105
v 0.00528581 0.02079669 0.00605366
v 0.00744857 0.01821681 0.00831985
v 0.00511210 0.01825436 0.02659104
v 0.00714741 0.02077707 0.02881046
v 0.00633138 0.02028140 0.03285681
v 0.00628290 0.02209662 0.00373218
v 0.00617368 0.02205578 0.03108730
v 0.01129511 -0.01677078 0.01361129
v 0.00968667 -0.01479484 0.01094388
v 0.01074144 -0.01723528 0.01746290
v 0.00982807 -0.01684466 0.02174255
v 0.01079688 -0.01383055 0.02386280
v 0.01167623 -0.01240849 -0.03541284
v 0.01050954 -0.01040663 -0.03741471
v 0.00975977 -0.01240849 -0.03140912
v 0.01092645 -0.01040663 -0.02940725
v 0.01062465 -0.01049114 0.01061949
v 0.01024279 -0.00987785 0.01559982
v 0.01063976 -0.01222084 0.01715044
v 0.01048490 -0.01008259 0.01918033
v 0.01067791 -0.00923819 0.02417685
v 0.01058971 -0.00840477 -0.03541284
v 0.01084629 -0.00840477 -0.03140912
v 0.01124104 -0.00655951 0.01106805
v 0.01100843 -0.00805316 0.01763482
v 0.00875308 -0.00581250 0.01713118
v 0.01018572 -0.00547433 0.02369083
v 0.01008175 -0.00398968 0.01244214
v 0.01009739 -0.00386026 0.01715335
v 0.01128465 -0.00411591 0.02124232
v 0.01119551 0.00096986 0.01366564
v 0.00967739 0.00291010 0.01114670
v 0.00792337 0.00291499 0.01762862
v 0.01014036 0.00071530 0.01758419
v 0.01007366 0.00101759 0.02220902
v 0.01045056 0.00388636 0.02360913
v 0.01041058 0.00657577 0.01050106
v 0.00760365 0.00718223 0.01738329
v 0.01118869 0.00719068 0.02391027
v 0.01186149 0.00937004 0.00904609
v 0.00967952 0.01153552 0.00609316
v 0.00787641 0.01119445 0.01715077
v 0.01034999 0.00944829 0.02589621
v 0.01200057 0.01147950 0.02862781
v 0.01184026 0.01362892 0.00374597
v 0.00962505 0.01661952 0.00196620
v 0.01068756 0.01646593 0.01091254
v 0.01099048 0.01461605 0.01361130
v 0.00997073 0.01378776 0.01799583
v 0.01005692 0.01464299 0.02212673
v 0.01067172 0.01587060 0.02392924
v 0.00989142 0.01370911 0.03098277
v 0.01095444 0.01662750 0.03285357
v 0.01174864 0.02026018 0.00192066
v 0.00951920 0.02076482 0.00639404
v 0.01129078 0.01893399 0.00868353
v 0.01036755 0.01823278 0.02575200
v 0.01090493 0.02111443 0.02814068
v 0.01074954 0.02028802 0.03292469
v 0.01105489 0.02231453 0.00448481
v 0.01106473 0.02228846 0.03066677
v 0.01261683 -0.01436893 0.01252600
v 0.01284351 -0.01437876 0.01721322
v 0.01272292 -0.01542145 0.02126155
v 0.01609299 -0.01240849 -0.03541284
v 0.01492630 -0.01040663 -0.03741471
v 0.01417653 -0.01240849 -0.03140912
v 0.01534321 -0.01040663 -0.02940725
v 0.01284444 -0.01030098 0.01357488
v 0.01289657 -0.01077125 0.02122228
v 0.01500647 -0.00840477 -0.03541284
v 0.01526304 -0.00840477 -0.03140911
v 0.01261360 -0.00547655 0.01351295
v 0.01289491 -0.00667496 0.01761836
v 0.01270714 -0.00665798 0.02232088
v 0.01252085 0.00383373 0.01328917
v 0.01293573 0.00289825 0.01736673
v 0.01243843 0.00235048 0.02113649
v 0.01276395 0.00711526 0.01251923
v 0.01370874 0.00660314 0.01638713
v 0.01326158 0.00618472 0.02113536
v 0.01521156 0.01023345 0.00923140
v 0.01510355 0.01196459 0.00639421
v 0.01475542 0.00940644 0.01332103
v 0.01530351 0.00944855 0.01851440
v 0.01465848 0.00942694 0.02303372
v 0.01442693 0.01027647 0.02636250
v 0.01509562 0.01140948 0.02822539
v 0.01570614 0.01425474 0.00398359
v 0.01393068 0.01655121 0.00219387
v 0.01282934 0.01587625 0.01301624
v 0.01331538 0.01587278 0.01619809
v 0.01279697 0.01612955 0.02130117
v 0.01508208 0.01361880 0.03020447
v 0.01487453 0.01739320 0.03263201
v 0.01528218 0.01984442 0.00235161
v 0.01284617 0.02111340 0.00781035
v 0.01440521 0.01985683 0.01043093
v 0.01500461 0.01825318 0.01379450
v 0.01549819 0.01826690 0.01853700
v 0.01455869 0.01881851 0.02281797
v 0.01324519 0.02036355 0.02588432
v 0.01590532 0.02110444 0.02393413
v 0.01430736 0.02082988 0.03247585
v 0.01506140 0.02246338 0.00429252
v 0.01587425 0.02255217 0.00867651
v 0.01498631 0.02253524 0.02699103
v 0.01607432 0.02244282 0.03004711
v 0.02050972 -0.01240850 -0.03541292
v 0.01934304 -0.01040663 -0.03741479
v 0.01859328 -0.01240849 -0.03140911
v 0.01975996 -0.01040663 -0.02940726
v 0.01942320 -0.00840476 -0.03541290
v 0.01967978 -0.00840476 -0.03140915
v 0.01713611 0.01140198 0.00857501
v 0.01749814 0.01146549 0.01164383
v 0.01748191 0.01160986 0.01618716
v 0.01762603 0.01160101 0.02071520
v 0.01724320 0.01167867 0.02565989
v 0.01741806 0.01737138 0.00367866
v 0.01894884 0.01537041 0.00592416
v 0.01947167 0.01364439 0.00908732
v 0.01989336 0.01372078 0.01375444
v 0.01989942 0.01380638 0.01828701
v 0.02000035 0.01371446 0.02282409
v 0.01925057 0.01418209 0.02720235
v 0.01776898 0.01593395 0.03046072
v 0.02003608 0.01741367 0.02848629
v 0.01767699 0.02087824 0.00434168
v 0.02009131 0.01940161 0.00626886
v 0.01709968 0.02114775 0.01274177
v 0.01773628 0.02080829 0.01650121
v 0.01737932 0.02078108 0.02070194
v 0.01740912 0.01940417 0.03115104
v 0.01935168 0.02090985 0.02881216
v 0.01892192 0.02244790 0.00759519
v 0.01959009 0.02231602 0.01258786
v 0.01999680 0.02205714 0.01749240
v 0.01920679 0.02231252 0.02222971
v 0.01937151 0.02249470 0.02625288
v 0.02492645 -0.01240851 -0.03541292
v 0.02375975 -0.01040665 -0.03741469
v 0.02301001 -0.01240849 -0.03140919
v 0.02417671 -0.01040663 -0.02940732
v 0.02383996 -0.00840479 -0.03541281
v 0.02409656 -0.00840478 -0.03140914
v 0.02158588 0.01742843 0.00878710
v 0.02177868 0.01665395 0.01269320
v 0.02171945 0.01671205 0.01722196
v 0.02175783 0.01664141 0.02174928
v 0.02136185 0.01604044 0.02536589
v 0.02141525 0.02086797 0.00935574
v 0.02184111 0.02030677 0.01290372
v 0.02176615 0.02028158 0.01733604
v 0.02175087 0.02034923 0.02183340
v 0.02150648 0.01949432 0.02582392
v 0.02934428 -0.01240844 -0.03541060
v 0.02817690 -0.01040641 -0.03741170
v 0.02742703 -0.01240855 -0.03140901
v 0.02859420 -0.01040676 -0.02940621
v 0.02825735 -0.00840469 -0.03540933
v 0.02851424 -0.00840487 -0.03140656
v 0.03376049 -0.01240788 -0.03540774
v 0.03259589 -0.01040583 -0.03741012
v 0.03184472 -0.01240863 -0.03140660
v 0.03301049 -0.01040636 -0.02940484
v 0.03267633 -0.00840386 -0.03541132
v 0.03293168 -0.00840397 -0.03140782
v 0.03814018 -0.01240329 -0.03543887
v 0.03700616 -0.01041168 -0.03743635
v 0.03624430 -0.01240545 -0.03142250
v 0.03740262 -0.01040261 -0.02946168
v 0.03708896 -0.00841216 -0.03548228
v 0.03733865 -0.00840715 -0.03149517
v 0.04250061 -0.01238216 -0.03548983
v 0.04139243 -0.01042329 -0.03748504
v 0.04062262 -0.01239887 -0.03149709
v 0.04177209 -0.01041711 -0.02957262
v 0.04147718 -0.00844110 -0.03556548
v 0.04169207 -0.00843429 -0.03160846
v 0.04696824 -0.01238316 -0.03558367
v 0.04585302 -0.01038626 -0.03749042
v 0.04557919 -0.01249303 -0.03101949
v 0.04584605 -0.01037599 -0.02878880
v 0.04590328 -0.00840745 -0.03557853
v 0.04621542 -0.00833061 -0.03082506
v 0.05161319 -0.01239236 -0.03567219
v 0.05048040 -0.01041293 -0.03754144
v 0.05049897 -0.01305714 -0.03119937
v 0.04859153 -0.01004006 -0.02678888
v 0.04973619 -0.01208331 -0.02728507
v 0.05154403 -0.01082348 -0.02508980
v 0.05056616 -0.00839321 -0.03560652
v 0.05055208 -0.00775528 -0.03110173
v 0.05080502 -0.00877263 -0.02667505
v 0.05522710 -0.01182347 -0.03518154
v 0.05416734 -0.01076761 -0.03729207
v 0.05552430 -0.01248201 -0.03100986
v 0.05411686 -0.01241449 -0.02679962
v 0.05528979 -0.01042370 -0.02486278
v 0.05426237 -0.00894788 -0.03619564
v 0.05533517 -0.00830885 -0.03171387
v 0.05528518 -0.00842687 -0.02675282
v 0.05627579 -0.00999036 -0.03514368
v 0.05743055 -0.01039944 -0.03155786
v 0.05946491 -0.01083336 -0.02838224
v 0.05868729 -0.01170562 -0.02650496
v 0.05910300 -0.00999491 -0.02515243
v 0.05902024 -0.00910913 -0.02742850
v 0.06084861 -0.01040361 -0.02622827
f 3 2 1
f 5 4 1
f 5 1 2
f 7 6 4
f 7 4 5
f 9 8 6
f 9 6 7
f 11 10 8
f 11 8 9
f 12 10 11
f 13 3 1
f 13 1 4
f 13 4 14
f 14 4 6
f 14 6 15
f 15 6 8
f 15 8 16
f 16 8 10
f 16 10 17
f 17 10 12
f 19 18 2
f 19 2 3
f 2 20 5
f 18 20 2
f 5 21 7
f 20 21 5
f 7 22 9
f 21 22 7
f 9 23 11
f 22 23 9
f 25 24 12
f 11 25 12
f 23 25 11
f 27 26 24
f 27 24 25
f 28 26 27
f 29 19 3
f 29 3 13
f 30 13 14
f 30 29 13
f 31 14 15
f 31 30 14
f 32 15 16
f 32 31 15
f 33 16 17
f 33 32 16
f 17 12 24
f 34 17 24
f 33 17 34
f 34 24 26
f 34 26 35
f 35 26 28
f 37 36 18
f 37 18 19
f 18 38 20
f 36 38 18
f 38 40 39
f 21 38 39
f 20 38 21
f 41 22 21
f 41 21 39
f 22 41 42
f 43 22 42
f 23 22 43
f 23 44 25
f 43 44 23
f 25 45 27
f 44 45 25
f 47 46 28
f 27 47 28
f 45 47 27
f 49 48 46
f 49 46 47
f 50 48 49
f 51 37 19
f 51 19 29
f 52 29 30
f 52 51 29
f 31 39 40
f 52 31 40
f 30 31 52
f 39 31 32
f 39 32 41
f 53 42 41
f 32 53 41
f 33 53 32
f 54 33 34
f 54 53 33
f 55 34 35
f 55 54 34
f 35 28 46
f 56 35 46
f 55 35 56
f 56 46 48
f 56 48 57
f 57 48 50
f 59 58 36
f 59 36 37
f 36 60 38
f 58 60 36
f 40 38 60
f 40 60 61
f 42 62 43
f 63 44 43
f 63 43 62
f 44 63 64
f 65 44 64
f 45 44 65
f 45 66 47
f 65 66 45
f 47 67 49
f 66 67 47
f 69 68 50
f 49 69 50
f 67 69 49
f 70 68 69
f 71 59 37
f 71 37 51
f 72 51 52
f 72 71 51
f 52 40 61
f 52 61 72
f 53 62 42
f 62 53 54
f 62 54 63
f 73 64 63
f 54 73 63
f 55 73 54
f 74 55 56
f 74 73 55
f 75 56 57
f 75 74 56
f 57 50 68
f 76 57 68
f 75 57 76
f 76 68 70
f 78 77 58
f 78 58 59
f 58 79 60
f 77 79 58
f 61 60 79
f 61 79 80
f 64 81 65
f 82 66 65
f 82 65 81
f 66 82 83
f 84 66 83
f 67 66 84
f 67 85 69
f 84 85 67
f 87 86 70
f 69 87 70
f 85 87 69
f 89 88 86
f 89 86 87
f 90 88 89
f 91 78 59
f 91 59 71
f 92 71 72
f 92 91 71
f 72 61 80
f 72 80 92
f 73 81 64
f 81 73 74
f 81 74 82
f 93 83 82
f 74 93 82
f 75 93 74
f 94 75 76
f 94 93 75
f 76 70 86
f 95 76 86
f 94 76 95
f 95 86 88
f 95 88 96
f 96 88 90
f 98 97 77
f 98 77 78
f 77 99 79
f 97 99 77
f 80 79 99
f 80 99 100
f 83 101 84
f 84 101 102
f 103 84 102
f 85 84 103
f 85 104 87
f 103 104 85
f 87 105 89
f 104 105 87
f 107 106 90
f 89 107 90
f 105 107 89
f 108 106 107
f 109 98 78
f 109 78 91
f 110 91 92
f 110 109 91
f 92 80 100
f 92 100 110
f 93 101 83
f 111 102 101
f 93 111 101
f 94 111 93
f 112 94 95
f 112 111 94
f 113 95 96
f 113 112 95
f 96 90 106
f 114 96 106
f 113 96 114
f 114 106 108
f 116 115 97
f 116 97 98
f 97 117 99
f 115 117 97
f 100 99 117
f 100 117 118
f 102 119 103
f 120 104 103
f 120 103 119
f 104 120 121
f 122 104 121
f 105 104 122
f 105 123 107
f 122 123 105
f 108 107 123
f 108 123 124
f 125 116 98
f 125 98 109
f 126 109 110
f 126 125 109
f 110 100 118
f 110 118 126
f 111 119 102
f 119 111 112
f 119 112 120
f 127 121 120
f 112 127 120
f 113 127 112
f 128 113 114
f 128 127 113
f 114 108 124
f 114 124 128
f 130 129 115
f 130 115 116
f 115 131 117
f 129 131 115
f 118 117 131
f 118 131 132
f 121 133 122
f 122 133 134
f 135 122 134
f 123 122 135
f 124 123 135
f 124 135 136
f 137 130 116
f 137 116 125
f 138 125 126
f 138 137 125
f 126 118 132
f 126 132 138
f 127 133 121
f 139 134 133
f 127 139 133
f 128 139 127
f 128 124 136
f 128 136 139
f 141 140 129
f 141 129 130
f 129 142 131
f 140 142 129
f 132 131 142
f 132 142 143
f 145 144 135
f 145 135 134
f 136 135 144
f 136 144 146
f 147 141 130
f 147 130 137
f 148 137 138
f 148 147 137
f 138 132 143
f 138 143 148
f 149 145 134
f 149 134 139
f 139 136 146
f 139 146 149
f 151 150 140
f 151 140 141
f 140 152 142
f 150 152 140
f 143 142 152
f 143 152 153
f 155 154 144
f 155 144 145
f 146 144 154
f 146 154 156
f 157 151 141
f 157 141 147
f 158 147 148
f 158 157 147
f 148 143 153
f 148 153 158
f 159 155 145
f 159 145 149
f 149 146 156
f 149 156 159
f 162 161 160
f 164 163 160
f 164 160 161
f 166 165 163
f 166 163 164
f 168 167 165
f 168 165 166
f 170 169 167
f 170 167 168
f 171 169 170
f 162 160 172
f 162 172 173
f 174 160 163
f 172 160 174
f 175 163 165
f 174 163 175
f 176 165 167
f 175 165 176
f 177 167 169
f 176 167 177
f 169 171 178
f 169 178 177
f 179 173 172
f 179 172 174
f 179 174 180
f 180 174 175
f 180 175 181
f 181 175 176
f 181 176 182
f 182 176 177
f 182 177 183
f 183 177 178
f 185 184 150
f 185 150 151
f 150 186 152
f 184 186 150
f 153 152 186
f 153 186 187
f 189 188 154
f 189 154 155
f 156 154 188
f 156 188 190
f 191 185 151
f 191 151 157
f 192 157 158
f 192 191 157
f 158 153 187
f 158 187 192
f 193 189 155
f 193 155 159
f 159 156 190
f 159 190 193
f 196 195 194
f 198 197 194
f 198 194 195
f 200 199 197
f 200 197 198
f 202 201 199
f 202 199 200
f 204 203 201
f 204 201 202
f 205 203 204
f 208 207 206
f 206 207 196
f 206 196 194
f 162 206 194
f 161 162 194
f 161 194 164
f 164 194 197
f 164 197 166
f 166 197 199
f 166 199 168
f 168 199 201
f 168 201 170
f 170 201 203
f 210 209 171
f 210 171 170
f 205 210 170
f 203 205 170
f 211 209 210
f 208 206 212
f 208 212 213
f 173 212 162
f 162 212 206
f 216 215 214
f 218 217 214
f 214 217 216
f 220 219 218
f 218 219 217
f 220 221 219
f 222 178 209
f 209 178 171
f 209 211 223
f 209 223 222
f 224 213 212
f 224 212 173
f 179 224 173
f 225 224 179
f 180 214 215
f 225 180 215
f 179 180 225
f 214 180 181
f 214 181 218
f 218 181 182
f 218 182 220
f 226 221 220
f 182 226 220
f 183 226 182
f 183 178 222
f 227 183 222
f 226 183 227
f 227 222 223
f 230 229 228
f 232 231 228
f 232 228 229
f 234 233 231
f 234 231 232
f 235 233 234
f 237 236 184
f 237 184 185
f 184 238 186
f 236 238 184
f 187 186 238
f 187 238 239
f 230 228 240
f 230 240 241
f 242 188 189
f 244 243 231
f 240 231 243
f 231 240 228
f 242 190 188
f 246 244 245
f 231 245 244
f 245 231 233
f 233 235 247
f 233 247 245
f 248 237 185
f 248 185 191
f 249 191 192
f 249 248 191
f 192 187 239
f 192 239 249
f 241 240 250
f 241 250 251
f 242 189 193
f 243 252 240
f 253 240 252
f 240 253 250
f 242 193 190
f 252 246 253
f 245 253 246
f 253 245 254
f 245 247 255
f 245 255 254
f 256 251 250
f 256 250 253
f 256 253 257
f 257 253 254
f 257 254 258
f 258 254 255
f 261 260 259
f 263 262 259
f 263 259 260
f 265 264 262
f 265 262 263
f 266 264 265
f 261 259 267
f 261 267 268
f 269 259 262
f 267 259 269
f 270 262 264
f 269 262 270
f 264 266 271
f 264 271 270
f 273 272 195
f 273 195 196
f 267 198 268
f 198 272 268
f 198 195 272
f 198 267 200
f 200 267 269
f 200 269 202
f 202 269 270
f 271 274 270
f 274 202 270
f 274 204 202
f 205 204 274
f 205 274 275
f 277 276 207
f 277 207 208
f 196 207 273
f 273 207 276
f 280 279 278
f 282 281 278
f 278 281 280
f 284 283 282
f 282 283 281
f 284 285 283
f 275 286 205
f 205 286 210
f 211 210 286
f 211 286 287
f 213 277 208
f 213 288 277
f 291 290 289
f 291 289 279
f 279 289 278
f 289 215 278
f 215 216 278
f 278 216 217
f 278 217 282
f 282 217 219
f 282 219 284
f 293 292 221
f 221 292 219
f 292 285 219
f 285 284 219
f 293 294 292
f 287 223 211
f 295 223 287
f 296 288 213
f 296 213 224
f 225 289 290
f 296 225 290
f 224 225 296
f 289 225 215
f 226 293 221
f 297 294 293
f 226 297 293
f 227 297 226
f 227 223 295
f 227 295 297
f 299 298 229
f 299 229 230
f 229 300 232
f 298 300 229
f 232 301 234
f 300 301 232
f 235 234 301
f 235 301 302
f 304 303 236
f 304 236 237
f 236 305 238
f 303 305 236
f 239 238 305
f 239 305 306
f 241 299 230
f 241 307 299
f 309 308 244
f 244 308 243
f 244 246 309
f 309 246 310
f 302 247 235
f 311 247 302
f 312 304 237
f 312 237 248
f 313 248 249
f 313 312 248
f 249 239 306
f 249 306 313
f 251 307 241
f 251 314 307
f 252 243 315
f 243 316 315
f 243 308 316
f 315 317 252
f 317 246 252
f 317 310 246
f 311 255 247
f 318 255 311
f 319 314 251
f 319 251 256
f 257 315 316
f 319 257 316
f 256 257 319
f 320 317 315
f 257 320 315
f 258 320 257
f 258 255 318
f 258 318 320
f 322 321 260
f 322 260 261
f 321 324 323
f 263 321 323
f 260 321 263
f 263 323 325
f 326 263 325
f 265 263 326
f 266 265 326
f 266 326 327
f 268 322 261
f 268 328 322
f 323 324 329
f 329 324 330
f 325 323 331
f 331 323 329
f 327 271 266
f 332 271 327
f 334 333 272
f 334 272 273
f 268 272 328
f 328 272 333
f 329 330 335
f 335 330 336
f 331 329 337
f 337 329 335
f 332 338 271
f 271 338 274
f 275 274 338
f 275 338 339
f 341 340 276
f 341 276 277
f 273 276 334
f 334 276 340
f 343 342 280
f 280 342 279
f 281 335 336
f 343 281 336
f 280 281 343
f 344 337 335
f 281 344 335
f 283 344 281
f 283 285 344
f 344 285 345
f 339 346 275
f 275 346 286
f 287 286 346
f 287 346 347
f 288 341 277
f 288 348 341
f 350 349 291
f 291 349 290
f 291 279 342
f 291 342 350
f 351 345 285
f 351 285 292
f 292 294 351
f 351 294 352
f 347 295 287
f 353 295 347
f 354 348 288
f 354 288 296
f 296 290 349
f 296 349 354
f 355 352 294
f 355 294 297
f 297 295 353
f 297 353 355
f 357 356 298
f 357 298 299
f 298 358 300
f 356 358 298
f 300 359 301
f 358 359 300
f 302 301 359
f 302 359 360
f 362 361 303
f 362 303 304
f 303 363 305
f 361 363 303
f 306 305 363
f 306 363 364
f 307 357 299
f 307 365 357
f 367 366 309
f 309 366 308
f 309 310 367
f 367 310 368
f 360 311 302
f 369 311 360
f 370 362 304
f 370 304 312
f 371 312 313
f 371 370 312
f 313 306 364
f 313 364 371
f 314 365 307
f 314 372 365
f 374 316 373
f 316 366 373
f 316 308 366
f 373 368 374
f 368 317 374
f 368 310 317
f 369 318 311
f 375 318 369
f 376 372 314
f 376 314 319
f 319 316 374
f 377 319 374
f 376 319 377
f 377 374 317
f 320 377 317
f 378 377 320
f 320 318 375
f 320 375 378
f 380 379 321
f 380 321 322
f 382 381 324
f 321 382 324
f 379 382 321
f 326 325 381
f 382 326 381
f 383 326 382
f 327 326 383
f 327 383 384
f 328 380 322
f 328 385 380
f 386 330 381
f 381 330 324
f 331 386 325
f 325 386 381
f 384 332 327
f 387 332 384
f 389 388 333
f 389 333 334
f 328 333 385
f 385 333 388
f 390 336 386
f 386 336 330
f 337 390 331
f 331 390 386
f 387 391 332
f 332 391 338
f 339 338 391
f 339 391 392
f 394 393 340
f 394 340 341
f 334 340 389
f 389 340 393
f 396 395 343
f 343 395 342
f 343 336 390
f 397 343 390
f 396 343 397
f 397 390 337
f 344 397 337
f 398 397 344
f 344 345 398
f 398 345 399
f 392 400 339
f 339 400 346
f 347 346 400
f 347 400 401
f 348 394 341
f 348 402 394
f 404 403 350
f 350 403 349
f 350 342 395
f 350 395 404
f 405 399 345
f 405 345 351
f 351 352 405
f 405 352 406
f 401 353 347
f 407 353 401
f 408 402 348
f 408 348 354
f 354 349 403
f 354 403 408
f 409 406 352
f 409 352 355
f 355 353 407
f 355 407 409
f 357 410 356
f 411 358 356
f 411 356 410
f 412 359 358
f 412 358 411
f 412 360 359
f 414 413 361
f 414 361 362
f 361 415 363
f 413 415 361
f 364 363 415
f 364 415 416
f 365 417 410
f 365 410 357
f 417 366 367
f 411 417 367
f 410 417 411
f 411 367 368
f 418 411 368
f 412 411 418
f 418 369 360
f 418 360 412
f 419 414 362
f 419 362 370
f 420 370 371
f 420 419 370
f 371 364 416
f 371 416 420
f 372 421 417
f 372 417 365
f 422 373 366
f 417 422 366
f 421 422 417
f 418 368 373
f 422 418 373
f 423 418 422
f 423 375 369
f 423 369 418
f 376 421 372
f 421 376 377
f 421 377 422
f 422 377 378
f 422 378 423
f 423 378 375
f 380 424 379
f 425 382 379
f 425 379 424
f 426 383 382
f 426 382 425
f 426 384 383
f 385 427 424
f 385 424 380
f 424 428 425
f 424 427 428
f 425 429 426
f 425 428 429
f 429 387 384
f 429 384 426
f 431 430 388
f 431 388 389
f 385 388 427
f 388 432 427
f 388 430 432
f 427 432 428
f 428 432 433
f 428 433 429
f 429 433 434
f 429 434 387
f 434 391 387
f 434 435 391
f 392 391 435
f 392 435 436
f 438 437 393
f 438 393 394
f 389 393 431
f 431 393 437
f 439 395 396
f 397 440 396
f 396 440 439
f 398 441 397
f 397 441 440
f 399 441 398
f 436 442 392
f 392 442 400
f 401 400 442
f 401 442 443
f 402 438 394
f 402 444 438
f 445 403 404
f 446 445 404
f 446 404 395
f 447 446 395
f 439 447 395
f 447 439 440
f 447 440 448
f 448 440 441
f 448 441 449
f 451 449 450
f 450 449 405
f 449 441 405
f 441 399 405
f 406 450 405
f 443 407 401
f 452 407 443
f 453 444 402
f 453 402 408
f 408 403 445
f 454 408 445
f 453 408 454
f 454 445 446
f 455 451 450
f 455 450 406
f 409 455 406
f 456 455 409
f 409 407 452
f 409 452 456
f 458 457 413
f 458 413 414
f 413 459 415
f 457 459 413
f 416 415 459
f 416 459 460
f 461 458 414
f 461 414 419
f 462 419 420
f 462 461 419
f 420 416 460
f 420 460 462
f 431 463 430
f 464 432 430
f 464 430 463
f 465 433 432
f 465 432 464
f 466 434 433
f 466 433 465
f 467 435 434
f 467 434 466
f 467 436 435
f 438 468 437
f 468 469 437
f 437 469 431
f 469 470 431
f 470 463 431
f 463 470 464
f 464 470 471
f 464 471 465
f 465 471 472
f 465 472 466
f 466 472 473
f 466 473 467
f 467 473 474
f 474 476 475
f 474 475 442
f 467 474 442
f 436 467 442
f 475 443 442
f 444 477 468
f 444 468 438
f 469 468 478
f 478 468 477
f 479 446 447
f 448 480 447
f 447 480 479
f 449 481 448
f 448 481 480
f 451 481 449
f 475 476 482
f 482 476 483
f 482 452 443
f 482 443 475
f 453 477 444
f 484 478 477
f 453 484 477
f 454 484 453
f 454 446 479
f 485 454 479
f 484 454 485
f 485 479 480
f 485 480 486
f 486 480 481
f 486 481 487
f 487 481 451
f 455 487 451
f 488 487 455
f 456 482 483
f 488 456 483
f 455 456 488
f 482 456 452
f 490 489 457
f 490 457 458
f 457 491 459
f 489 491 457
f 460 459 491
f 460 491 492
f 493 490 458
f 493 458 461
f 494 461 462
f 494 493 461
f 462 460 492
f 462 492 494
f 469 495 470
f 496 471 470
f 496 470 495
f 497 472 471
f 497 471 496
f 498 473 472
f 498 472 497
f 499 474 473
f 499 473 498
f 499 476 474
f 478 500 495
f 478 495 469
f 495 501 496
f 495 500 501
f 496 502 497
f 496 501 502
f 497 503 498
f 497 502 503
f 498 504 499
f 498 503 504
f 504 483 476
f 504 476 499
f 484 500 478
f 500 484 485
f 500 485 501
f 501 485 486
f 501 486 502
f 502 486 487
f 502 487 503
f 503 487 488
f 503 488 504
f 504 488 483
f 506 505 489
f 506 489 490
f 489 507 491
f 505 507 489
f 492 491 507
f 492 507 508
f 509 506 490
f 509 490 493
f 510 493 494
f 510 509 493
f 494 492 508
f 494 508 510
f 512 511 505
f 512 505 506
f 505 513 507
f 511 513 505
f 508 507 513
f 508 513 514
f 515 512 506
f 515 506 509
f 516 509 510
f 516 515 509
f 510 508 514
f 510 514 516
f 518 517 511
f 518 511 512
f 511 519 513
f 517 519 511
f 514 513 519
f 514 519 520
f 521 518 512
f 521 512 515
f 522 515 516
f 522 521 515
f 516 514 520
f 516 520 522
f 524 523 517
f 524 517 518
f 517 525 519
f 523 525 517
f 520 519 525
f 520 525 526
f 527 524 518
f 527 518 521
f 528 521 522
f 528 527 521
f 522 520 526
f 522 526 528
f 530 529 523
f 530 523 524
f 523 531 525
f 529 531 523
f 526 525 531
f 526 531 532
f 533 530 524
f 533 524 527
f 534 527 528
f 534 533 527
f 528 526 532
f 528 532 534
f 536 535 529
f 536 529 530
f 529 537 531
f 535 537 529
f 539 538 532
f 531 539 532
f 537 539 531
f 540 538 539
f 541 536 530
f 541 530 533
f 542 533 534
f 542 541 533
f 534 532 538
f 543 534 538
f 542 534 543
f 543 538 540
f 545 544 535
f 545 535 536
f 535 546 537
f 544 546 535
f 537 547 539
f 546 547 537
f 540 539 547
f 540 547 548
f 549 545 536
f 549 536 541
f 550 541 542
f 550 549 541
f 551 542 543
f 551 550 542
f 543 540 548
f 543 548 551
f 545 552 544
f 553 546 544
f 553 544 552
f 546 553 554
f 555 546 554
f 547 546 555
f 548 547 555
f 548 555 556
f 549 552 545
f 552 549 550
f 552 550 553
f 557 554 553
f 550 557 553
f 551 557 550
f 551 548 556
f 551 556 557
f 554 558 555
f 558 556 555
f 557 558 554
f 558 557 556

