# https://github.com/mikedh/trimesh
v -0.03611622 -0.01842359 -0.01647628
v -0.03350236 -0.02109412 -0.01646008
v -0.03461884 -0.01932209 -0.01883247
v -0.03350588 -0.01996539 -0.01449888
v -0.03603711 -0.01957878 0.00885433
v -0.03309980 -0.02154960 0.00798307
v -0.03351616 -0.01943739 0.00618170
v -0.03633916 -0.01868946 0.01354241
v -0.03470306 -0.02140588 0.01153154
v -0.03308670 -0.01988723 0.01500835
v -0.03633479 -0.01575137 -0.02034497
v -0.03294147 -0.01717759 -0.02161715
v -0.03456763 -0.01380662 -0.02318176
v -0.03643376 -0.01381311 -0.01755421
v -0.03423051 -0.01619391 -0.01445574
v -0.03461339 -0.01722005 0.00798340
v -0.03301405 -0.01458852 0.01025171
v -0.03645949 -0.01523069 0.01226851
v -0.03459009 -0.01727999 0.01712137
v -0.03645001 -0.01421161 0.01803397
v -0.03299510 -0.01472371 0.02004075
v -0.03633128 -0.00999443 -0.02044823
v -0.03396961 -0.00978171 -0.02369304
v -0.03398986 -0.00995223 -0.01809421
v -0.03322087 -0.01232656 -0.01635640
v -0.03458855 -0.01212243 0.01324859
v -0.03297205 -0.00970671 0.01542560
v -0.03643552 -0.01016015 0.01743105
v -0.03454326 -0.01218748 0.02226878
v -0.03629565 -0.00934199 0.02234909
v -0.03342440 -0.00968052 0.02445676
v -0.03628704 -0.00505166 -0.02085546
v -0.03297905 -0.00536176 -0.02317916
v -0.03450868 -0.00726526 -0.01702374
v -0.03626702 -0.00444748 -0.01677705
v -0.03331510 -0.00477545 -0.01464216
v -0.03454936 -0.00726799 0.01837104
v -0.03394811 -0.00429076 0.02021714
v -0.03619333 -0.00491436 0.02205871
v -0.03393114 -0.00581559 0.02487646
v -0.03465228 -0.00227623 -0.02060322
v -0.03399132 0.00028072 -0.01959332
v -0.03640240 0.00037881 -0.01727782
v -0.03393968 -0.00097282 -0.01397081
v -0.03602218 0.00024358 0.02281288
v -0.03397816 -0.00001170 0.02087004
v -0.03406519 -0.00082464 0.02476752
v -0.03631250 0.00396794 -0.02019547
v -0.03297358 0.00250733 -0.02134142
v -0.03463156 0.00570792 -0.02304103
v -0.03639270 0.00588552 -0.01751111
v -0.03417450 0.00371677 -0.01444602
v -0.03630123 0.00552426 0.02233565
v -0.03410590 0.00454552 0.01999513
v -0.03410546 0.00410368 0.02474692
v -0.03634251 0.00957473 -0.02038690
v -0.03398370 0.00970133 -0.02368898
v -0.03397740 0.00952840 -0.01806832
v -0.03318783 0.00727401 -0.01637894
v -0.03653625 0.00953892 0.01826915
v -0.03317478 0.00755212 0.01773669
v -0.03466366 0.01030447 0.01520104
v -0.03640332 0.01079602 0.02169191
v -0.03411590 0.00864285 0.02447694
v -0.03637264 0.01458424 -0.02093607
v -0.03308455 0.01418483 -0.02329694
v -0.03451935 0.01225086 -0.01699447
v -0.03633417 0.01520635 -0.01681863
v -0.03335554 0.01483907 -0.01461417
v -0.03650322 0.01441780 0.01308992
v -0.03307067 0.01233943 0.01265863
v -0.03471864 0.01526762 0.00999235
v -0.03647465 0.01506358 0.01723216
v -0.03466537 0.01410780 0.02033378
v -0.03318133 0.01212698 0.02286814
v -0.03481892 0.01747232 -0.02080787
v -0.03326287 0.02010930 -0.01854293
v -0.03616559 0.01889868 -0.01742047
v -0.03401526 0.01853086 -0.01433915
v -0.03612615 0.01859165 0.00851817
v -0.03324475 0.01740529 0.00730633
v -0.03367495 0.02015639 0.00615465
v -0.03634487 0.01931130 0.01223054
v -0.03454321 0.01923658 0.01519317
v -0.03299446 0.01696782 0.01778630
v -0.03368512 0.02120792 -0.01570847
v -0.03401284 0.02157492 0.00884999
v -0.03345053 0.02145842 0.01259268
v -0.02934697 -0.02133626 -0.01605756
v -0.03053217 -0.02003797 -0.01884198
v -0.02948306 -0.01928556 -0.01401840
v -0.02827525 -0.02178903 0.00808850
v -0.02941771 -0.01976900 0.00598572
v -0.03072451 -0.02185579 0.01208446
v -0.02820504 -0.01977520 0.01540704
v -0.02795704 -0.01741895 -0.02151827
v -0.03054759 -0.01420082 -0.02367671
v -0.02971455 -0.01520663 -0.01415491
v -0.03059177 -0.01712201 0.00732883
v -0.02808469 -0.01457757 0.01010242
v -0.03056094 -0.01721345 0.01781743
v -0.02807560 -0.01466016 0.02026776
v -0.02937008 -0.00976920 -0.02422733
v -0.02937714 -0.00966736 -0.01784733
v -0.02842778 -0.01197593 -0.01644427
v -0.03055156 -0.01209602 0.01265005
v -0.02806481 -0.00978586 0.01516604
v -0.03048226 -0.01223151 0.02289920
v -0.02929208 -0.00913962 0.02483155
v -0.02811597 -0.00530420 -0.02338399
v -0.03045919 -0.00730262 -0.01635525
v -0.02915563 -0.00425144 -0.01416273
v -0.03047298 -0.00740691 0.01764642
v -0.02929066 -0.00447783 0.01962154
v -0.02935600 -0.00471655 0.02535397
v -0.03066604 -0.00230178 -0.02125338
v -0.02937233 -0.00003676 -0.01981275
v -0.02942263 0.00016109 -0.01340029
v -0.02940929 -0.00011060 0.02029990
v -0.02947837 0.00030999 0.02526172
v -0.02810914 0.00219654 -0.02117764
v -0.03066036 0.00525055 -0.02353671
v -0.02968418 0.00456148 -0.01422772
v -0.02955228 0.00433785 0.01970658
v -0.02955540 0.00523516 0.02526606
v -0.02937340 0.00966871 -0.02423026
v -0.02937520 0.00977208 -0.01784674
v -0.02842731 0.00753829 -0.01651811
v -0.02837580 0.00738476 0.01779063
v -0.03066933 0.00965869 0.01522040
v -0.02955935 0.00949215 0.02471698
v -0.02823359 0.01414777 -0.02353194
v -0.03045932 0.01217639 -0.01631433
v -0.02919496 0.01537733 -0.01413436
v -0.02818875 0.01203196 0.01277799
v -0.03071245 0.01450439 0.01010514
v -0.03068136 0.01474611 0.02026762
v -0.02837886 0.01242256 0.02274338
v -0.03084094 0.01740162 -0.02153517
v -0.02842418 0.01999637 -0.01889195
v -0.02947255 0.01941332 -0.01403822
v -0.02841653 0.01701922 0.00744649
v -0.02961459 0.01970871 0.00594787
v -0.03047419 0.01986901 0.01525480
v -0.02807555 0.01719531 0.01772421
v -0.02961494 0.02142148 -0.01612742
v -0.02948031 0.02179518 0.00795369
v -0.02932390 0.02184785 0.01200155
v -0.02419505 -0.02124971 -0.01609567
v -0.02535326 -0.01998800 -0.01879522
v -0.02438678 -0.01920907 -0.01409480
v -0.02326151 -0.02172802 0.00810068
v -0.02435461 -0.01973153 0.00607476
v -0.02565153 -0.02175144 0.01215946
v -0.02318486 -0.01969825 0.01534884
v -0.02289952 -0.01735378 -0.02143925
v -0.02545155 -0.01419675 -0.02348199
v -0.02470409 -0.01520704 -0.01426460
v -0.02547694 -0.01711749 0.00744708
v -0.02304453 -0.01458774 0.01021332
v -0.02550466 -0.01709103 0.01777851
v -0.02303696 -0.01465617 0.02015497
v -0.02433843 -0.00972680 -0.02408852
v -0.02433675 -0.00970303 -0.01799708
v -0.02348945 -0.01203163 -0.01651861
v -0.02550341 -0.01215607 0.01274393
v -0.02304196 -0.00980608 0.01527952
v -0.02534954 -0.01227354 0.02276755
v -0.02416401 -0.00926747 0.02465743
v -0.02312596 -0.00528075 -0.02328007
v -0.02528233 -0.00738956 -0.01650184
v -0.02401957 -0.00434754 -0.01432178
v -0.02531992 -0.00748628 0.01773338
v -0.02415170 -0.00446824 0.01973618
v -0.02423424 -0.00490994 0.02518633
v -0.02559006 -0.00227674 -0.02112966
v -0.02433816 -0.00003073 -0.01966227
v -0.02436597 0.00008562 -0.01356012
v -0.02436192 -0.00003121 0.02040175
v -0.02437483 0.00012341 0.02513495
v -0.02311918 0.00223042 -0.02106971
v -0.02558426 0.00524081 -0.02333434
v -0.02471121 0.00448853 -0.01437205
v -0.02456303 0.00442031 0.01978943
v -0.02450338 0.00512977 0.02515376
v -0.02433816 0.00971102 -0.02408993
v -0.02433695 0.00973725 -0.01799689
v -0.02349113 0.00748065 -0.01659328
v -0.02340314 0.00746520 0.01782675
v -0.02564145 0.00973835 0.01529001
v -0.02456174 0.00941837 0.02460040
v -0.02325262 0.01415747 -0.02342885
v -0.02528242 0.01211201 -0.01643837
v -0.02403912 0.01531564 -0.01425205
v -0.02317131 0.01213520 0.01279996
v -0.02564331 0.01451858 0.01022283
v -0.02564684 0.01469739 0.02015000
v -0.02340255 0.01233835 0.02268365
v -0.02578439 0.01733031 -0.02149807
v -0.02340891 0.01994088 -0.01884296
v -0.02438469 0.01931622 -0.01414542
v -0.02340265 0.01706793 0.00750334
v -0.02457753 0.01966412 0.00607323
v -0.02533910 0.01976215 0.01527389
v -0.02303585 0.01708612 0.01772047
v -0.02457740 0.02129741 -0.01617296
v -0.02439137 0.02169033 0.00805354
v -0.02418151 0.02172987 0.01205241
v -0.01921979 -0.02129322 -0.01614588
v -0.02034948 -0.01995281 -0.01882767
v -0.01945053 -0.01928170 -0.01413173
v -0.01839081 -0.02171908 0.00809492
v -0.01944335 -0.01970377 0.00608173
v -0.02072159 -0.02171771 0.01212760
v -0.01831407 -0.01969981 0.01533209
v -0.01803031 -0.01734107 -0.02144155
v -0.02050497 -0.01416847 -0.02341519
v -0.01981091 -0.01525509 -0.01427790
v -0.02049873 -0.01709214 0.00750167
v -0.01817236 -0.01458614 0.01022364
v -0.02058027 -0.01708487 0.01772013
v -0.01816634 -0.01465921 0.02014246
v -0.01944556 -0.00972484 -0.02405261
v -0.01944374 -0.00973077 -0.01801108
v -0.01862280 -0.01204419 -0.01651509
v -0.02058147 -0.01215931 0.01279895
v -0.01817391 -0.00980313 0.01529298
v -0.02036204 -0.01234341 0.02268109
v -0.01921756 -0.00939127 0.02458633
v -0.01825639 -0.00528146 -0.02327158
v -0.02026725 -0.00748418 -0.01659415
v -0.01907123 -0.00445648 -0.01438525
v -0.02035489 -0.00748262 0.01782688
v -0.01921995 -0.00445070 0.01980137
v -0.01930120 -0.00505456 0.02511590
v -0.02064108 -0.00225258 -0.02107095
v -0.01944416 -0.00000507 -0.01965027
v -0.01944646 -0.00000601 -0.01360082
v -0.01944604 -0.00000311 0.02044039
v -0.01944411 -0.00000692 0.02507472
v -0.01824970 0.00224272 -0.02107357
v -0.02063454 0.00527223 -0.02326867
v -0.01981861 0.00444345 -0.01438309
v -0.01966930 0.00444499 0.01980012
v -0.01958551 0.00503827 0.02511567
v -0.01944337 0.00971767 -0.02405265
v -0.01944326 0.00971167 -0.01801038
v -0.01862307 0.00747090 -0.01658844
v -0.01853171 0.00747475 0.01782423
v -0.02071521 0.00979535 0.01528992
v -0.01966760 0.00937223 0.02458960
v -0.01838358 0.01415937 -0.02341674
v -0.02026619 0.01203191 -0.01651860
v -0.01907737 0.01524071 -0.01427952
v -0.01829909 0.01215120 0.01279410
v -0.02071362 0.01457789 0.01022317
v -0.02072190 0.01464168 0.02014564
v -0.01853161 0.01232570 0.02268738
v -0.02085597 0.01732943 -0.02144128
v -0.01853641 0.01994389 -0.01882862
v -0.01943955 0.01927005 -0.01413164
v -0.01853081 0.01708319 0.00749861
v -0.01966772 0.01969449 0.00608322
v -0.02034843 0.01968725 0.01533336
v -0.01816472 0.01707244 0.01772526
v -0.01966771 0.02128614 -0.01614408
v -0.01944514 0.02170630 0.00809995
v -0.01921952 0.02170489 0.01212831
v -0.01436027 -0.02130324 -0.01614587
v -0.01549134 -0.01995700 -0.01883283
v -0.01459040 -0.01928753 -0.01412863
v -0.01353105 -0.02172076 0.00809539
v -0.01458577 -0.01970457 0.00607973
v -0.01586386 -0.02172021 0.01212608
v -0.01345487 -0.01970178 0.01533441
v -0.01317542 -0.01734219 -0.02144313
v -0.01564828 -0.01416938 -0.02341815
v -0.01495021 -0.01525482 -0.01427444
v -0.01563936 -0.01709061 0.00749878
v -0.01331495 -0.01458692 0.01022001
v -0.01572404 -0.01708757 0.01772178
v -0.01330967 -0.01465626 0.02014765
v -0.01458750 -0.00972699 -0.02405636
v -0.01458636 -0.00972697 -0.01800515
v -0.01376080 -0.01204227 -0.01651353
v -0.01572564 -0.01215831 0.01279501
v -0.01331639 -0.00980299 0.01528781
v -0.01550469 -0.01234522 0.02268459
v -0.01436180 -0.00939315 0.02458964
v -0.01339671 -0.00528265 -0.02327469
v -0.01540694 -0.00748935 -0.01659025
v -0.01421304 -0.00446087 -0.01438077
v -0.01549876 -0.00748230 0.01782689
v -0.01436122 -0.00445207 0.01979959
v -0.01444370 -0.00505690 0.02511735
v -0.01578119 -0.00225123 -0.02107583
v -0.01458613 -0.00000484 -0.01965626
v -0.01458522 -0.00000773 -0.01359582
v -0.01458520 -0.00000442 0.02043785
v -0.01458418 -0.00000970 0.02507673
v -0.01339007 0.00224150 -0.02107713
v -0.01577453 0.00527253 -0.02327301
v -0.01495704 0.00444517 -0.01437906
v -0.01480910 0.00444285 0.01979790
v -0.01472487 0.00503778 0.02511933
v -0.01458483 0.00971624 -0.02405631
v -0.01458600 0.00971480 -0.01800515
v -0.01376102 0.00747283 -0.01658687
v -0.01367097 0.00747222 0.01782352
v -0.01585581 0.00979336 0.01528758
v -0.01480760 0.00937497 0.02459279
v -0.01352304 0.01415920 -0.02341973
v -0.01540649 0.01202743 -0.01651524
v -0.01421897 0.01524100 -0.01427396
v -0.01343984 0.01214761 0.01279372
v -0.01585576 0.01457742 0.01021984
v -0.01586402 0.01464412 0.02014777
v -0.01367091 0.01232875 0.02268847
v -0.01599677 0.01733142 -0.02144180
v -0.01367654 0.01994486 -0.01883075
v -0.01457910 0.01927374 -0.01412692
v -0.01367100 0.01708100 0.00749763
v -0.01480891 0.01969498 0.00607977
v -0.01549056 0.01968939 0.01533760
v -0.01330831 0.01707667 0.01772317
v -0.01480889 0.02128952 -0.01614360
v -0.01458464 0.02171103 0.00809622
v -0.01436010 0.02171041 0.01212892
v -0.00949971 -0.02130058 -0.01614421
v -0.01063289 -0.01995586 -0.01883096
v -0.00972808 -0.01928537 -0.01412785
v -0.00866696 -0.02172086 0.00809548
v -0.00972255 -0.01970517 0.00607975
v -0.01100113 -0.02172086 0.01212688
v -0.00859076 -0.01970175 0.01533460
v -0.00831146 -0.01734221 -0.02144302
v -0.01078651 -0.01417007 -0.02341989
v -0.01008664 -0.01525390 -0.01427434
v -0.01077834 -0.01709171 0.00749766
v -0.00845092 -0.01458699 0.01021992
v -0.01086132 -0.01708760 0.01772315
v -0.00844562 -0.01465607 0.02014782
v -0.00972400 -0.00972704 -0.02405705
v -0.00972290 -0.00972613 -0.01800499
v -0.00889667 -0.01204219 -0.01651367
v -0.01086292 -0.01215834 0.01279368
v -0.00845229 -0.00980300 0.01528759
v -0.01064539 -0.01233969 0.02268853
v -0.00950136 -0.00938669 0.02459290
v -0.00853266 -0.00528267 -0.02327473
v -0.01054843 -0.00748384 -0.01658686
v -0.00935185 -0.00445683 -0.01437892
v -0.01063863 -0.00748303 0.01782351
v -0.00949969 -0.00445321 0.01979777
v -0.00958282 -0.00505100 0.02512006
v -0.01091936 -0.00225221 -0.02107714
v -0.00972271 -0.00000545 -0.01965640
v -0.00972265 -0.00000539 -0.01359505
v -0.00972268 -0.00000547 0.02043712
v -0.00972268 -0.00000542 0.02507853
v -0.00852602 0.00224134 -0.02107703
v -0.01091271 0.00527176 -0.02327480
v -0.01009349 0.00444601 -0.01437901
v -0.00994566 0.00444227 0.01979781
v -0.00986239 0.00504017 0.02512008
v -0.00972139 0.00971612 -0.02405705
v -0.00972257 0.00971552 -0.01800502
v -0.00889689 0.00747290 -0.01658701
v -0.00880693 0.00747211 0.01782358
v -0.01099306 0.00979205 0.01528767
v -0.00994415 0.00937587 0.02459288
v -0.00865896 0.01415918 -0.02341987
v -0.01054866 0.01203135 -0.01651351
v -0.00935872 0.01524319 -0.01427426
v -0.00857580 0.01214742 0.01279383
v -0.01099308 0.01457604 0.01021993
v -0.01100128 0.01464545 0.02014769
v -0.00880682 0.01232886 0.02268841
v -0.01113399 0.01733140 -0.02144308
v -0.00881250 0.01994479 -0.01883094
v -0.00971730 0.01927459 -0.01412790
v -0.00880693 0.01708082 0.00749773
v -0.00994568 0.01969424 0.00607972
v -0.01063180 0.01969102 0.01533459
v -0.00844433 0.01707683 0.01772296
v -0.00994568 0.02128961 -0.01614432
v -0.00972287 0.02171001 0.00809538
v -0.00949980 0.02171007 0.01212677
v -0.00463554 -0.02130037 -0.01614426
v -0.00576870 -0.01995558 -0.01883087
v -0.00486391 -0.01928534 -0.01412793
v -0.00380281 -0.02172084 0.00809546
v -0.00485832 -0.01970514 0.00607976
v -0.00613689 -0.02172081 0.01212685
v -0.00372660 -0.01970173 0.01533456
v -0.00344719 -0.01734224 -0.02144302
v -0.00592217 -0.01417004 -0.02341985
v -0.00522249 -0.01525394 -0.01427438
v -0.00591409 -0.01709172 0.00749773
v -0.00358672 -0.01458697 0.01021997
v -0.00599701 -0.01708763 0.01772303
v -0.00358138 -0.01465620 0.02014771
v -0.00485978 -0.00972700 -0.02405698
v -0.00485866 -0.00972627 -0.01800509
v -0.00403254 -0.01204221 -0.01651368
v -0.00599859 -0.01215832 0.01279382
v -0.00358807 -0.00980299 0.01528769
v -0.00578112 -0.01233952 0.02268849
v -0.00463714 -0.00938651 0.02459290
v -0.00366850 -0.00528265 -0.02327469
v -0.00568428 -0.00748362 -0.01658697
v -0.00448767 -0.00445675 -0.01437904
v -0.00577441 -0.00748303 0.01782354
v -0.00463553 -0.00445320 0.01979782
v -0.00471867 -0.00505085 0.02512004
v -0.00605513 -0.00225223 -0.02107699
v -0.00485849 -0.00000543 -0.01965630
v -0.00485850 -0.00000540 -0.01359514
v -0.00485850 -0.00000544 0.02043718
v -0.00485853 -0.00000537 0.02507846
v -0.00366186 0.00224136 -0.02107698
v -0.00604849 0.00527179 -0.02327471
v -0.00522934 0.00444595 -0.01437905
v -0.00508148 0.00444232 0.01979784
v -0.00499821 0.00504012 0.02512001
v -0.00485719 0.00971614 -0.02405698
v -0.00485831 0.00971542 -0.01800509
v -0.00403277 0.00747287 -0.01658702
v -0.00394279 0.00747215 0.01782359
v -0.00612884 0.00979213 0.01528769
v -0.00507997 0.00937580 0.02459284
v -0.00379482 0.01415918 -0.02341983
v -0.00568453 0.01203142 -0.01651368
v -0.00449454 0.01524311 -0.01427440
v -0.00371164 0.01214747 0.01279383
v -0.00612884 0.01457610 0.01021997
v -0.00613700 0.01464535 0.02014771
v -0.00394268 0.01232882 0.02268841
v -0.00626979 0.01733138 -0.02144303
v -0.00394836 0.01994478 -0.01883090
v -0.00485310 0.01927451 -0.01412794
v -0.00394278 0.01708085 0.00749774
v -0.00508148 0.01969427 0.00607976
v -0.00576763 0.01969087 0.01533452
v -0.00358008 0.01707677 0.01772303
v -0.00508148 0.02128957 -0.01614428
v -0.00485867 0.02170997 0.00809546
v -0.00463565 0.02170993 0.01212682
v 0.00022860 -0.02130042 -0.01614428
v -0.00090451 -0.01995564 -0.01883090
v 0.00000021 -0.01928536 -0.01412793
v 0.00106129 -0.02172084 0.00809546
v 0.00000578 -0.01970514 0.00607976
v -0.00127279 -0.02172081 0.01212684
v 0.00113749 -0.01970173 0.01533456
v 0.00141691 -0.01734224 -0.02144302
v -0.00105805 -0.01417003 -0.02341983
v -0.00035839 -0.01525395 -0.01427438
v -0.00104996 -0.01709171 0.00749774
v 0.00127737 -0.01458697 0.01021996
v -0.00113291 -0.01708763 0.01772303
v 0.00128271 -0.01465620 0.02014771
v 0.00000431 -0.00972700 -0.02405697
v 0.00000544 -0.00972627 -0.01800509
v 0.00083155 -0.01204221 -0.01651368
v -0.00113448 -0.01215832 0.01279383
v 0.00127603 -0.00980299 0.01528769
v -0.00091693 -0.01233968 0.02268841
v 0.00022703 -0.00938665 0.02459284
v 0.00119560 -0.00528265 -0.02327469
v -0.00082010 -0.00748373 -0.01658702
v 0.00037647 -0.00445681 -0.01437905
v -0.00091025 -0.00748300 0.01782359
v 0.00022861 -0.00445318 0.01979784
v 0.00014549 -0.00505096 0.02512000
v -0.00119101 -0.00225221 -0.02107698
v 0.00000561 -0.00000543 -0.01965630
v 0.00000561 -0.00000543 -0.01359515
v 0.00000561 -0.00000543 0.02043718
v 0.00000561 -0.00000543 0.02507844
v 0.00120224 0.00224136 -0.02107698
v -0.00118437 0.00527179 -0.02327469
v -0.00036524 0.00444595 -0.01437905
v -0.00021738 0.00444232 0.01979784
v -0.00013410 0.00504010 0.02512000
v 0.00000691 0.00971614 -0.02405697
v 0.00000579 0.00971542 -0.01800509
v 0.00083132 0.00747287 -0.01658702
v 0.00092131 0.00747214 0.01782358
v -0.00126474 0.00979214 0.01528769
v -0.00021587 0.00937579 0.02459284
v 0.00106927 0.01415918 -0.02341983
v -0.00082032 0.01203136 -0.01651368
v 0.00036961 0.01524309 -0.01427438
v 0.00115246 0.01214747 0.01279382
v -0.00126474 0.01457611 0.01021996
v -0.00127289 0.01464535 0.02014771
v 0.00092140 0.01232883 0.02268841
v -0.00140568 0.01733138 -0.02144302
v 0.00091574 0.01994478 -0.01883090
v 0.00001102 0.01927451 -0.01412793
v 0.00092131 0.01708085 0.00749774
v -0.00021738 0.01969428 0.00607976
v -0.00090344 0.01969088 0.01533457
v 0.00128400 0.01707679 0.01772303
v -0.00021738 0.02128957 -0.01614428
v 0.00000545 0.02170998 0.00809546
v 0.00022851 0.02170995 0.01212684
v 0.00509270 -0.02130042 -0.01614428
v 0.00395958 -0.01995564 -0.01883090
v 0.00486433 -0.01928536 -0.01412794
v 0.00592541 -0.02172083 0.00809546
v 0.00486988 -0.01970513 0.00607976
v 0.00359130 -0.02172081 0.01212685
v 0.00600160 -0.01970174 0.01533456
v 0.00628101 -0.01734224 -0.02144303
v 0.00380604 -0.01417003 -0.02341983
v 0.00450576 -0.01525397 -0.01427440
v 0.00381413 -0.01709171 0.00749774
v 0.00614148 -0.01458696 0.01021997
v 0.00373119 -0.01708763 0.01772303
v 0.00614681 -0.01465621 0.02014771
v 0.00486841 -0.00972700 -0.02405698
v 0.00486954 -0.00972627 -0.01800509
v 0.00569576 -0.01204227 -0.01651368
v 0.00372961 -0.01215832 0.01279383
v 0.00614013 -0.00980298 0.01528769
v 0.00394716 -0.01233967 0.02268841
v 0.00509113 -0.00938665 0.02459284
v 0.00605972 -0.00528264 -0.02327471
v 0.00404400 -0.00748373 -0.01658702
v 0.00524057 -0.00445681 -0.01437905
v 0.00395384 -0.00748300 0.01782359
v 0.00509271 -0.00445318 0.01979784
v 0.00500960 -0.00505098 0.02512000
v 0.00367308 -0.00225221 -0.02107698
v 0.00486971 -0.00000542 -0.01965630
v 0.00486973 -0.00000545 -0.01359514
v 0.00486972 -0.00000542 0.02043718
v 0.00486975 -0.00000549 0.02507846
v 0.00606636 0.00224137 -0.02107699
v 0.00367972 0.00527179 -0.02327469
v 0.00449890 0.00444589 -0.01437904
v 0.00464675 0.00444231 0.01979780
v 0.00473006 0.00503999 0.02512004
v 0.00487101 0.00971614 -0.02405698
v 0.00486988 0.00971541 -0.01800509
v 0.00569551 0.00747276 -0.01658697
v 0.00578550 0.00747212 0.01782348
v 0.00359936 0.00979210 0.01528766
v 0.00464827 0.00937568 0.02459292
v 0.00593339 0.01415918 -0.02341985
v 0.00404377 0.01203136 -0.01651368
v 0.00523371 0.01524309 -0.01427438
v 0.00601656 0.01214740 0.01279376
v 0.00359936 0.01457611 0.01021995
v 0.00359116 0.01464538 0.02014774
v 0.00578559 0.01232870 0.02268853
v 0.00345841 0.01733138 -0.02144302
v 0.00577993 0.01994472 -0.01883087
v 0.00487513 0.01927448 -0.01412793
v 0.00578550 0.01708089 0.00749776
v 0.00464675 0.01969431 0.00607981
v 0.00396062 0.01969090 0.01533458
v 0.00614810 0.01707680 0.01772308
v 0.00464676 0.02128952 -0.01614426
v 0.00486953 0.02171001 0.00809550
v 0.00509256 0.02170998 0.01212687
v 0.00995691 -0.02130046 -0.01614432
v 0.00882373 -0.01995564 -0.01883094
v 0.00972853 -0.01928545 -0.01412790
v 0.01078967 -0.02172091 0.00809540
v 0.00973410 -0.01970511 0.00607973
v 0.00845550 -0.02172082 0.01212683
v 0.01086589 -0.01970180 0.01533454
v 0.01114522 -0.01734226 -0.02144308
v 0.00867019 -0.01417003 -0.02341987
v 0.00936994 -0.01525405 -0.01427426
v 0.00867828 -0.01709167 0.00749773
v 0.01100571 -0.01458689 0.01021993
v 0.00859534 -0.01708768 0.01772303
v 0.01101103 -0.01465630 0.02014774
v 0.00973261 -0.00972698 -0.02405705
v 0.00973380 -0.00972637 -0.01800502
v 0.01055989 -0.01204221 -0.01651351
v 0.00859377 -0.01215827 0.01279383
v 0.01100435 -0.00980290 0.01528767
v 0.00881130 -0.01233972 0.02268841
v 0.00995531 -0.00938673 0.02459287
v 0.01092393 -0.00528262 -0.02327480
v 0.00890812 -0.00748375 -0.01658701
v 0.01010471 -0.00445686 -0.01437901
v 0.00881798 -0.00748297 0.01782358
v 0.00995687 -0.00445314 0.01979781
v 0.00987378 -0.00505103 0.02512008
v 0.00853724 -0.00225219 -0.02107703
v 0.00973393 -0.00000540 -0.01965640
v 0.00973388 -0.00000547 -0.01359505
v 0.00973394 -0.00000541 0.02043708
v 0.00973390 -0.00000543 0.02507853
v 0.01093059 0.00224135 -0.02107714
v 0.00854389 0.00527182 -0.02327473
v 0.00936307 0.00444597 -0.01437892
v 0.00951114 0.00444259 0.01979775
v 0.00959417 0.00504020 0.02512009
v 0.00973523 0.00971619 -0.02405705
v 0.00973413 0.00971527 -0.01800499
v 0.01055966 0.00747298 -0.01658686
v 0.01064964 0.00747333 0.01782427
v 0.00846348 0.00979213 0.01528768
v 0.00951261 0.00937582 0.02459286
v 0.01079773 0.01415922 -0.02341989
v 0.00890789 0.01203133 -0.01651367
v 0.01009787 0.01524305 -0.01427434
v 0.01088056 0.01214753 0.01279451
v 0.00846360 0.01457605 0.01021995
v 0.00845589 0.01464492 0.02014765
v 0.01065133 0.01232762 0.02268756
v 0.00832269 0.01733136 -0.02144302
v 0.01064411 0.01994500 -0.01883096
v 0.00973930 0.01927452 -0.01412785
v 0.01064965 0.01708073 0.00749754
v 0.00951092 0.01969436 0.00607961
v 0.00882486 0.01969085 0.01533464
v 0.01101379 0.01707574 0.01772248
v 0.00951093 0.02128973 -0.01614421
v 0.00973375 0.02171006 0.00809554
v 0.00995685 0.02170995 0.01212696
v 0.01482012 -0.02130037 -0.01614360
v 0.01368776 -0.01995572 -0.01883075
v 0.01459033 -0.01928459 -0.01412692
v 0.01565068 -0.02172132 0.00809605
v 0.01459733 -0.01970585 0.00607979
v 0.01331952 -0.02172081 0.01212680
v 0.01572853 -0.01970059 0.01533463
v 0.01600799 -0.01734228 -0.02144180
v 0.01353427 -0.01417005 -0.02341973
v 0.01423019 -0.01525185 -0.01427396
v 0.01354237 -0.01709188 0.00749765
v 0.01586841 -0.01458829 0.01021986
v 0.01345942 -0.01708752 0.01772307
v 0.01587378 -0.01465498 0.02014775
v 0.01459606 -0.00972710 -0.02405631
v 0.01459723 -0.00972565 -0.01800515
v 0.01541772 -0.01203829 -0.01651524
v 0.01345781 -0.01215847 0.01279372
v 0.01586708 -0.00980424 0.01528758
v 0.01367535 -0.01233959 0.02268851
v 0.01481875 -0.00938582 0.02459280
v 0.01578575 -0.00528339 -0.02327301
v 0.01377224 -0.00748368 -0.01658687
v 0.01496827 -0.00445603 -0.01437906
v 0.01368201 -0.00748310 0.01782351
v 0.01482040 -0.00445369 0.01979785
v 0.01473626 -0.00504863 0.02511932
v 0.01340129 -0.00225235 -0.02107713
v 0.01459736 -0.00000601 -0.01965626
v 0.01459645 -0.00000312 -0.01359582
v 0.01459710 -0.00000557 0.02043796
v 0.01459537 -0.00000108 0.02507672
v 0.01579242 0.00224037 -0.02107583
v 0.01340794 0.00527180 -0.02327469
v 0.01422427 0.00445002 -0.01438077
v 0.01437159 0.00444323 0.01980132
v 0.01445521 0.00504607 0.02511719
v 0.01459873 0.00971613 -0.02405636
v 0.01459758 0.00971611 -0.01800515
v 0.01541816 0.00747850 -0.01659025
v 0.01550833 0.00747317 0.01783000
v 0.01332728 0.00979484 0.01529029
v 0.01437503 0.00938001 0.02458793
v 0.01565950 0.01415852 -0.02341815
v 0.01377203 0.01203141 -0.01651353
v 0.01496144 0.01524396 -0.01427444
v 0.01574368 0.01215177 0.01279727
v 0.01332717 0.01457614 0.01022173
v 0.01332103 0.01464358 0.02014554
v 0.01550724 0.01233413 0.02268344
v 0.01318665 0.01733133 -0.02144313
v 0.01550256 0.01994614 -0.01883283
v 0.01460162 0.01927668 -0.01412863
v 0.01550794 0.01707905 0.00749849
v 0.01437153 0.01969260 0.00607707
v 0.01369085 0.01968958 0.01533350
v 0.01587363 0.01707711 0.01771951
v 0.01437149 0.02129239 -0.01614587
v 0.01459654 0.02170894 0.00809319
v 0.01482172 0.02170890 0.01212532
v 0.01967893 -0.02129699 -0.01614408
v 0.01854763 -0.01995474 -0.01882862
v 0.01945078 -0.01928091 -0.01413164
v 0.02050981 -0.02171560 0.00809883
v 0.01945491 -0.01970444 0.00608258
v 0.01817678 -0.02171889 0.01212819
v 0.02058490 -0.01969834 0.01533536
v 0.02086720 -0.01734029 -0.02144128
v 0.01839480 -0.01417022 -0.02341674
v 0.01908859 -0.01525157 -0.01427952
v 0.01840214 -0.01709404 0.00749860
v 0.02072628 -0.01458873 0.01022315
v 0.01831874 -0.01708392 0.01772273
v 0.02073310 -0.01465289 0.02014439
v 0.01945460 -0.00972853 -0.02405265
v 0.01945449 -0.00972253 -0.01801038
v 0.02027742 -0.01204276 -0.01651860
v 0.01831705 -0.01216208 0.01279412
v 0.02072647 -0.00980622 0.01528991
v 0.01853600 -0.01233655 0.02268742
v 0.01967871 -0.00938307 0.02458960
v 0.02064577 -0.00528309 -0.02326867
v 0.01863429 -0.00748176 -0.01658844
v 0.01982983 -0.00445431 -0.01438309
v 0.01854281 -0.00748559 0.01782418
v 0.01968155 -0.00445463 0.01980032
v 0.01959689 -0.00504905 0.02511562
v 0.01826092 -0.00225358 -0.02107357
v 0.01945538 -0.00000579 -0.01965027
v 0.01945768 -0.00000485 -0.01360082
v 0.01945478 -0.00000733 0.02044275
v 0.01945532 -0.00000393 0.02507494
v 0.02065231 0.00224173 -0.02107095
v 0.01826762 0.00527061 -0.02327158
v 0.01908245 0.00444562 -0.01438525
v 0.01921654 0.00442203 0.01980079
v 0.01931370 0.00504051 0.02511580
v 0.01945678 0.00971398 -0.02405261
v 0.01945497 0.00971992 -0.01801108
v 0.02027847 0.00747333 -0.01659415
v 0.02037909 0.00741388 0.01779266
v 0.01819367 0.00979309 0.01528343
v 0.01922478 0.00937871 0.02459091
v 0.02051619 0.01415761 -0.02341519
v 0.01863402 0.01203333 -0.01651509
v 0.01982214 0.01524423 -0.01427790
v 0.02061198 0.01214838 0.01275554
v 0.01818340 0.01458020 0.01022203
v 0.01814543 0.01466938 0.02015660
v 0.02030766 0.01238817 0.02272759
v 0.01804153 0.01733022 -0.02144155
v 0.02036071 0.01994196 -0.01882767
v 0.01946175 0.01927085 -0.01413173
v 0.02036637 0.01708618 0.00750212
v 0.01923085 0.01969273 0.00608821
v 0.01854812 0.01969085 0.01532856
v 0.02067792 0.01711252 0.01774544
v 0.01923101 0.02128236 -0.01614588
v 0.01945672 0.02170566 0.00809719
v 0.01968120 0.02170622 0.01212151
v 0.02458862 -0.02130827 -0.01617296
v 0.02342013 -0.01995173 -0.01884296
v 0.02439592 -0.01932708 -0.01414542
v 0.02548848 -0.02172412 0.00806668
v 0.02436606 -0.01967474 0.00607319
v 0.02304887 -0.02172642 0.01212766
v 0.02551022 -0.01975525 0.01533446
v 0.02579562 -0.01734116 -0.02149807
v 0.02326384 -0.01416832 -0.02342885
v 0.02405034 -0.01532649 -0.01425205
v 0.02327306 -0.01707791 0.00750227
v 0.02565599 -0.01452886 0.01022168
v 0.02319070 -0.01709706 0.01771977
v 0.02566041 -0.01470886 0.02014761
v 0.02434938 -0.00972187 -0.02408993
v 0.02434818 -0.00974810 -0.01799689
v 0.02529364 -0.01212287 -0.01643837
v 0.02318934 -0.01214607 0.01279993
v 0.02565309 -0.00974893 0.01528998
v 0.02340727 -0.01234928 0.02268335
v 0.02457286 -0.00942915 0.02460045
v 0.02559549 -0.00525167 -0.02333434
v 0.02350236 -0.00749150 -0.01659328
v 0.02472243 -0.00449939 -0.01437205
v 0.02341501 -0.00747519 0.01782689
v 0.02457283 -0.00443136 0.01979175
v 0.02451475 -0.00514091 0.02515522
v 0.02313041 -0.00224128 -0.02106971
v 0.02434938 0.00001987 -0.01966227
v 0.02437720 -0.00009647 -0.01356012
v 0.02434331 -0.00001338 0.02039768
v 0.02438583 -0.00013810 0.02513805
v 0.02560128 0.00226588 -0.02112966
v 0.02313719 0.00526989 -0.02328007
v 0.02403079 0.00433669 -0.01432178
v 0.02418469 0.00438338 0.01967283
v 0.02424441 0.00489099 0.02519158
v 0.02434965 0.00971594 -0.02408852
v 0.02434797 0.00969217 -0.01799708
v 0.02529356 0.00737871 -0.01650184
v 0.02538738 0.00733813 0.01761924
v 0.02309098 0.00970208 0.01518541
v 0.02413826 0.00931549 0.02470109
v 0.02546277 0.01418590 -0.02348199
v 0.02350067 0.01202077 -0.01651861
v 0.02471531 0.01519618 -0.01426460
v 0.02554370 0.01202762 0.01264554
v 0.02305434 0.01457631 0.01015425
v 0.02299652 0.01470532 0.02025350
v 0.02532100 0.01238369 0.02283066
v 0.02291074 0.01734292 -0.02143925
v 0.02536449 0.01997714 -0.01879522
v 0.02439800 0.01919822 -0.01409480
v 0.02536815 0.01711545 0.00743941
v 0.02420488 0.01974441 0.00613206
v 0.02338586 0.01970932 0.01535588
v 0.02560208 0.01711259 0.01789678
v 0.02420628 0.02123886 -0.01609567
v 0.02439170 0.02174370 0.00816607
v 0.02457047 0.02172327 0.01216647
v 0.02962617 -0.02143234 -0.01612742
v 0.02843541 -0.02000722 -0.01889195
v 0.02948377 -0.01942418 -0.01403822
v 0.03061140 -0.02184835 0.00798963
v 0.02942969 -0.01973908 0.00597382
v 0.02809460 -0.02181441 0.01208548
v 0.03056769 -0.01985843 0.01533799
v 0.03085217 -0.01741248 -0.02153517
v 0.02824481 -0.01415863 -0.02353194
v 0.02920619 -0.01538819 -0.01413436
v 0.02828584 -0.01703001 0.00744708
v 0.03072167 -0.01451517 0.01010435
v 0.02820448 -0.01720061 0.01774374
v 0.03069474 -0.01475697 0.02026596
v 0.02938462 -0.00967956 -0.02423026
v 0.02938643 -0.00978294 -0.01784674
v 0.03047054 -0.01218724 -0.01631433
v 0.02820760 -0.01204249 0.01277680
v 0.03068258 -0.00966854 0.01521967
v 0.02838501 -0.01243365 0.02274240
v 0.02957093 -0.00950347 0.02471948
v 0.03067158 -0.00526141 -0.02353671
v 0.02843853 -0.00754915 -0.01651811
v 0.02969541 -0.00457233 -0.01422772
v 0.02838795 -0.00739457 0.01779205
v 0.02954302 -0.00436768 0.01970603
v 0.02956521 -0.00524922 0.02526889
v 0.02812037 -0.00220739 -0.02117764
v 0.02938355 0.00002591 -0.01981275
v 0.02943385 -0.00017194 -0.01340029
v 0.02939798 0.00005204 0.02023492
v 0.02949338 -0.00032122 0.02523853
v 0.03067726 0.00229092 -0.02125338
v 0.02812719 0.00529335 -0.02338399
v 0.02916685 0.00424058 -0.01416273
v 0.02989821 0.00501732 0.01955759
v 0.02939120 0.00476714 0.02529699
v 0.02938131 0.00975834 -0.02422733
v 0.02938837 0.00965650 -0.01784733
v 0.03047042 0.00729176 -0.01635525
v 0.02964563 0.00809322 0.01787181
v 0.02784586 0.00962288 0.01538287
v 0.02931719 0.00937950 0.02474589
v 0.03055881 0.01418996 -0.02367671
v 0.02843900 0.01196507 -0.01644427
v 0.02972578 0.01519578 -0.01415491
v 0.03073717 0.01187377 0.01346506
v 0.02810080 0.01445178 0.01003261
v 0.02907665 0.01398785 0.01995292
v 0.03065562 0.01176676 0.02225383
v 0.02796827 0.01740810 -0.02151827
v 0.03054340 0.02002711 -0.01884198
v 0.02949429 0.01927471 -0.01401840
v 0.03054312 0.01704979 0.00734949
v 0.02935473 0.01978214 0.00603930
v 0.02833363 0.01977615 0.01549785
v 0.03071754 0.01713456 0.01812074
v 0.02935819 0.02132540 -0.01605756
v 0.02948892 0.02182269 0.00808867
v 0.02960105 0.02182728 0.01218343
v 0.03369635 -0.02121878 -0.01570847
v 0.03327410 -0.02012016 -0.01854293
v 0.03402648 -0.01854172 -0.01433915
v 0.03462794 -0.02141787 0.00844752
v 0.03353271 -0.02019165 0.00618766
v 0.03302821 -0.02162020 0.01202882
v 0.03459743 -0.01923898 0.01527374
v 0.03483014 -0.01748318 -0.02080787
v 0.03309577 -0.01419569 -0.02329694
v 0.03336677 -0.01484992 -0.01461417
v 0.03310634 -0.01742737 0.00733250
v 0.03470564 -0.01528439 0.01000876
v 0.03306882 -0.01696840 0.01782645
v 0.03467712 -0.01411806 0.02033532
v 0.03399493 -0.00971219 -0.02368898
v 0.03398862 -0.00953925 -0.01806832
v 0.03453057 -0.01226172 -0.01699447
v 0.03308772 -0.01235036 0.01265853
v 0.03467719 -0.01031446 0.01520234
v 0.03319013 -0.01213844 0.02286789
v 0.03412252 -0.00865636 0.02447712
v 0.03464279 -0.00571877 -0.02304103
v 0.03319906 -0.00728487 -0.01637894
v 0.03418573 -0.00372763 -0.01444602
v 0.03318376 -0.00756433 0.01773820
v 0.03407110 -0.00458757 0.01996825
v 0.03410930 -0.00409965 0.02468192
v 0.03298480 -0.00251818 -0.02134142
v 0.03400254 -0.00029157 -0.01959332
v 0.03395091 0.00096196 -0.01397081
v 0.03403371 0.00001159 0.02073624
v 0.03412564 0.00092415 0.02460590
v 0.03466351 0.00226537 -0.02060322
v 0.03299028 0.00535091 -0.02317916
v 0.03332632 0.00476459 -0.01464216
v 0.03464860 0.00429805 0.02073057
v 0.03405290 0.00612499 0.02467165
v 0.03398084 0.00977085 -0.02369304
v 0.03400109 0.00994137 -0.01809421
v 0.03451991 0.00725441 -0.01702374
v 0.03110017 0.01071107 0.01791355
v 0.03346720 0.00893845 0.02051849
v 0.03351709 0.01014752 0.02421874
v 0.03457885 0.01379576 -0.02318176
v 0.03323209 0.01231571 -0.01635640
v 0.03424174 0.01618305 -0.01445574
v 0.03470122 0.01283245 0.01385740
v 0.03305354 0.01435168 0.01032657
v 0.03333803 0.01246516 0.01732918
v 0.03346517 0.01478717 0.01915844
v 0.03416442 0.01134673 0.02271356
v 0.03295269 0.01716674 -0.02161715
v 0.03463006 0.01931124 -0.01883247
v 0.03351711 0.01995454 -0.01449888
v 0.03463703 0.01706307 0.00809712
v 0.03350912 0.01938304 0.00627970
v 0.03320651 0.01978503 0.01528182
v 0.03472639 0.01704721 0.01751272
v 0.03351358 0.02108326 -0.01646008
v 0.03351522 0.02134414 0.00741170
v 0.03418068 0.02150166 0.01124653
v 0.03617681 -0.01890953 -0.01742047
v 0.03604655 -0.01861110 0.00856318
v 0.03632836 -0.01932143 0.01228621
v 0.03638386 -0.01459509 -0.02093607
v 0.03634540 -0.01521720 -0.01681863
v 0.03649577 -0.01443236 0.01312558
v 0.03649536 -0.01506975 0.01727654
v 0.03635373 -0.00958558 -0.02038690
v 0.03654263 -0.00955188 0.01827169
v 0.03641139 -0.01080796 0.02169302
v 0.03632372 -0.00397879 -0.02019547
v 0.03640393 -0.00589638 -0.01751111
v 0.03627846 -0.00553896 0.02227944
v 0.03641363 -0.00038966 -0.01727782
v 0.03609358 -0.00015771 0.02264573
v 0.03629826 0.00504081 -0.02085546
v 0.03627825 0.00443662 -0.01677705
v 0.03611324 0.00492263 0.02260467
v 0.03634251 0.00998358 -0.02044823
v 0.03577632 0.00905477 0.02305173
v 0.03634602 0.01574051 -0.02034497
v 0.03644498 0.01380226 -0.01755421
v 0.03639185 0.01562330 0.01184460
v 0.03606708 0.01467353 0.01653399
v 0.03612745 0.01841274 -0.01647628
v 0.03612408 0.01944048 0.00903787
v 0.03646182 0.01845558 0.01383921
f 3 2 1
f 4 1 2
f 7 6 5
f 9 8 5
f 9 5 6
f 10 8 9
f 13 12 11
f 11 12 3
f 1 11 3
f 14 11 1
f 1 4 15
f 1 15 14
f 16 7 5
f 18 17 16
f 5 18 16
f 8 18 5
f 8 10 19
f 20 8 19
f 18 8 20
f 21 20 19
f 13 11 22
f 13 22 23
f 14 25 24
f 22 14 24
f 11 14 22
f 25 14 15
f 26 17 18
f 28 27 26
f 18 28 26
f 20 28 18
f 20 21 29
f 30 20 29
f 28 20 30
f 31 30 29
f 23 22 32
f 23 32 33
f 22 24 34
f 35 22 34
f 32 22 35
f 36 35 34
f 37 27 28
f 39 38 37
f 28 39 37
f 30 39 28
f 30 31 40
f 30 40 39
f 41 33 32
f 43 42 41
f 32 43 41
f 35 43 32
f 35 36 44
f 35 44 43
f 38 39 45
f 38 45 46
f 39 40 47
f 39 47 45
f 50 49 48
f 48 49 42
f 43 48 42
f 51 48 43
f 43 44 52
f 43 52 51
f 46 45 53
f 46 53 54
f 45 47 55
f 45 55 53
f 50 48 56
f 50 56 57
f 51 59 58
f 56 51 58
f 48 51 56
f 59 51 52
f 62 61 60
f 60 61 54
f 53 60 54
f 63 60 53
f 53 55 64
f 53 64 63
f 57 56 65
f 57 65 66
f 56 58 67
f 68 56 67
f 65 56 68
f 69 68 67
f 72 71 70
f 70 71 62
f 60 70 62
f 73 70 60
f 63 75 74
f 73 63 74
f 60 63 73
f 75 63 64
f 76 66 65
f 78 77 76
f 65 78 76
f 68 78 65
f 68 69 79
f 68 79 78
f 82 81 80
f 80 81 72
f 70 80 72
f 83 80 70
f 73 85 84
f 83 73 84
f 70 73 83
f 85 73 74
f 86 77 78
f 86 78 79
f 87 82 80
f 87 80 83
f 87 83 88
f 88 83 84
f 90 89 2
f 90 2 3
f 4 2 89
f 4 89 91
f 93 92 6
f 93 6 7
f 6 94 9
f 92 94 6
f 10 9 94
f 10 94 95
f 97 96 12
f 97 12 13
f 3 12 90
f 90 12 96
f 91 15 4
f 98 15 91
f 99 93 7
f 99 7 16
f 16 17 99
f 99 17 100
f 95 101 10
f 10 101 19
f 21 19 101
f 21 101 102
f 23 97 13
f 23 103 97
f 105 104 25
f 25 104 24
f 25 15 98
f 25 98 105
f 106 100 17
f 106 17 26
f 26 27 106
f 106 27 107
f 102 108 21
f 21 108 29
f 31 29 108
f 31 108 109
f 33 103 23
f 33 110 103
f 104 111 24
f 24 111 34
f 36 34 111
f 36 111 112
f 113 107 27
f 113 27 37
f 37 38 113
f 113 38 114
f 109 40 31
f 115 40 109
f 116 110 33
f 116 33 41
f 41 42 116
f 116 42 117
f 112 44 36
f 118 44 112
f 46 114 38
f 46 119 114
f 115 47 40
f 120 47 115
f 122 121 49
f 122 49 50
f 42 49 117
f 117 49 121
f 118 52 44
f 123 52 118
f 54 119 46
f 54 124 119
f 120 55 47
f 125 55 120
f 57 122 50
f 57 126 122
f 128 127 59
f 59 127 58
f 59 52 123
f 59 123 128
f 130 129 61
f 130 61 62
f 54 61 124
f 124 61 129
f 125 64 55
f 131 64 125
f 66 126 57
f 66 132 126
f 127 133 58
f 58 133 67
f 69 67 133
f 69 133 134
f 136 135 71
f 136 71 72
f 62 71 130
f 130 71 135
f 138 137 75
f 75 137 74
f 75 64 131
f 75 131 138
f 139 132 66
f 139 66 76
f 76 77 139
f 139 77 140
f 134 79 69
f 141 79 134
f 143 142 81
f 143 81 82
f 72 81 136
f 136 81 142
f 145 144 85
f 85 144 84
f 85 74 137
f 85 137 145
f 146 140 77
f 146 77 86
f 86 79 141
f 86 141 146
f 147 143 82
f 147 82 87
f 148 87 88
f 148 147 87
f 88 84 144
f 88 144 148
f 150 149 89
f 150 89 90
f 91 89 149
f 91 149 151
f 153 152 92
f 153 92 93
f 92 154 94
f 152 154 92
f 95 94 154
f 95 154 155
f 157 156 96
f 157 96 97
f 90 96 150
f 150 96 156
f 151 98 91
f 158 98 151
f 159 153 93
f 159 93 99
f 99 100 159
f 159 100 160
f 155 161 95
f 95 161 101
f 102 101 161
f 102 161 162
f 103 157 97
f 103 163 157
f 165 164 105
f 105 164 104
f 105 98 158
f 105 158 165
f 166 160 100
f 166 100 106
f 106 107 166
f 166 107 167
f 162 168 102
f 102 168 108
f 109 108 168
f 109 168 169
f 110 163 103
f 110 170 163
f 164 171 104
f 104 171 111
f 112 111 171
f 112 171 172
f 173 167 107
f 173 107 113
f 113 114 173
f 173 114 174
f 169 115 109
f 175 115 169
f 176 170 110
f 176 110 116
f 116 117 176
f 176 117 177
f 172 118 112
f 178 118 172
f 119 174 114
f 119 179 174
f 175 120 115
f 180 120 175
f 182 181 121
f 182 121 122
f 117 121 177
f 177 121 181
f 178 123 118
f 183 123 178
f 124 179 119
f 124 184 179
f 180 125 120
f 185 125 180
f 126 182 122
f 126 186 182
f 188 187 128
f 128 187 127
f 128 123 183
f 128 183 188
f 190 189 129
f 190 129 130
f 124 129 184
f 184 129 189
f 185 131 125
f 191 131 185
f 132 186 126
f 132 192 186
f 187 193 127
f 127 193 133
f 134 133 193
f 134 193 194
f 196 195 135
f 196 135 136
f 130 135 190
f 190 135 195
f 198 197 138
f 138 197 137
f 138 131 191
f 138 191 198
f 199 192 132
f 199 132 139
f 139 140 199
f 199 140 200
f 194 141 134
f 201 141 194
f 203 202 142
f 203 142 143
f 136 142 196
f 196 142 202
f 205 204 145
f 145 204 144
f 145 137 197
f 145 197 205
f 206 200 140
f 206 140 146
f 146 141 201
f 146 201 206
f 207 203 143
f 207 143 147
f 208 147 148
f 208 207 147
f 148 144 204
f 148 204 208
f 210 209 149
f 210 149 150
f 151 149 209
f 151 209 211
f 213 212 152
f 213 152 153
f 152 214 154
f 212 214 152
f 155 154 214
f 155 214 215
f 217 216 156
f 217 156 157
f 150 156 210
f 210 156 216
f 211 158 151
f 218 158 211
f 219 213 153
f 219 153 159
f 159 160 219
f 219 160 220
f 215 221 155
f 155 221 161
f 162 161 221
f 162 221 222
f 163 217 157
f 163 223 217
f 225 224 165
f 165 224 164
f 165 158 218
f 165 218 225
f 226 220 160
f 226 160 166
f 166 167 226
f 226 167 227
f 222 228 162
f 162 228 168
f 169 168 228
f 169 228 229
f 170 223 163
f 170 230 223
f 224 231 164
f 164 231 171
f 172 171 231
f 172 231 232
f 233 227 167
f 233 167 173
f 173 174 233
f 233 174 234
f 229 175 169
f 235 175 229
f 236 230 170
f 236 170 176
f 176 177 236
f 236 177 237
f 232 178 172
f 238 178 232
f 179 234 174
f 179 239 234
f 235 180 175
f 240 180 235
f 242 241 181
f 242 181 182
f 177 181 237
f 237 181 241
f 238 183 178
f 243 183 238
f 184 239 179
f 184 244 239
f 240 185 180
f 245 185 240
f 186 242 182
f 186 246 242
f 248 247 188
f 188 247 187
f 188 183 243
f 188 243 248
f 250 249 189
f 250 189 190
f 184 189 244
f 244 189 249
f 245 191 185
f 251 191 245
f 192 246 186
f 192 252 246
f 247 253 187
f 187 253 193
f 194 193 253
f 194 253 254
f 256 255 195
f 256 195 196
f 190 195 250
f 250 195 255
f 258 257 198
f 198 257 197
f 198 191 251
f 198 251 258
f 259 252 192
f 259 192 199
f 199 200 259
f 259 200 260
f 254 201 194
f 261 201 254
f 263 262 202
f 263 202 203
f 196 202 256
f 256 202 262
f 265 264 205
f 205 264 204
f 205 197 257
f 205 257 265
f 266 260 200
f 266 200 206
f 206 201 261
f 206 261 266
f 267 263 203
f 267 203 207
f 268 207 208
f 268 267 207
f 208 204 264
f 208 264 268
f 270 269 209
f 270 209 210
f 211 209 269
f 211 269 271
f 273 272 212
f 273 212 213
f 212 274 214
f 272 274 212
f 215 214 274
f 215 274 275
f 277 276 216
f 277 216 217
f 210 216 270
f 270 216 276
f 271 218 211
f 278 218 271
f 279 273 213
f 279 213 219
f 219 220 279
f 279 220 280
f 275 281 215
f 215 281 221
f 222 221 281
f 222 281 282
f 223 277 217
f 223 283 277
f 285 284 225
f 225 284 224
f 225 218 278
f 225 278 285
f 286 280 220
f 286 220 226
f 226 227 286
f 286 227 287
f 282 288 222
f 222 288 228
f 229 228 288
f 229 288 289
f 230 283 223
f 230 290 283
f 284 291 224
f 224 291 231
f 232 231 291
f 232 291 292
f 293 287 227
f 293 227 233
f 233 234 293
f 293 234 294
f 289 235 229
f 295 235 289
f 296 290 230
f 296 230 236
f 236 237 296
f 296 237 297
f 292 238 232
f 298 238 292
f 239 294 234
f 239 299 294
f 295 240 235
f 300 240 295
f 302 301 241
f 302 241 242
f 237 241 297
f 297 241 301
f 298 243 238
f 303 243 298
f 244 299 239
f 244 304 299
f 300 245 240
f 305 245 300
f 246 302 242
f 246 306 302
f 308 307 248
f 248 307 247
f 248 243 303
f 248 303 308
f 310 309 249
f 310 249 250
f 244 249 304
f 304 249 309
f 305 251 245
f 311 251 305
f 252 306 246
f 252 312 306
f 307 313 247
f 247 313 253
f 254 253 313
f 254 313 314
f 316 315 255
f 316 255 256
f 250 255 310
f 310 255 315
f 318 317 258
f 258 317 257
f 258 251 311
f 258 311 318
f 319 312 252
f 319 252 259
f 259 260 319
f 319 260 320
f 314 261 254
f 321 261 314
f 323 322 262
f 323 262 263
f 256 262 316
f 316 262 322
f 325 324 265
f 265 324 264
f 265 257 317
f 265 317 325
f 326 320 260
f 326 260 266
f 266 261 321
f 266 321 326
f 327 323 263
f 327 263 267
f 328 267 268
f 328 327 267
f 268 264 324
f 268 324 328
f 330 329 269
f 330 269 270
f 271 269 329
f 271 329 331
f 333 332 272
f 333 272 273
f 272 334 274
f 332 334 272
f 275 274 334
f 275 334 335
f 337 336 276
f 337 276 277
f 270 276 330
f 330 276 336
f 331 278 271
f 338 278 331
f 339 333 273
f 339 273 279
f 279 280 339
f 339 280 340
f 335 341 275
f 275 341 281
f 282 281 341
f 282 341 342
f 283 337 277
f 283 343 337
f 345 344 285
f 285 344 284
f 285 278 338
f 285 338 345
f 346 340 280
f 346 280 286
f 286 287 346
f 346 287 347
f 342 348 282
f 282 348 288
f 289 288 348
f 289 348 349
f 290 343 283
f 290 350 343
f 344 351 284
f 284 351 291
f 292 291 351
f 292 351 352
f 353 347 287
f 353 287 293
f 293 294 353
f 353 294 354
f 349 295 289
f 355 295 349
f 356 350 290
f 356 290 296
f 296 297 356
f 356 297 357
f 352 298 292
f 358 298 352
f 299 354 294
f 299 359 354
f 355 300 295
f 360 300 355
f 362 361 301
f 362 301 302
f 297 301 357
f 357 301 361
f 358 303 298
f 363 303 358
f 304 359 299
f 304 364 359
f 360 305 300
f 365 305 360
f 306 362 302
f 306 366 362
f 368 367 308
f 308 367 307
f 308 303 363
f 308 363 368
f 370 369 309
f 370 309 310
f 304 309 364
f 364 309 369
f 365 311 305
f 371 311 365
f 312 366 306
f 312 372 366
f 367 373 307
f 307 373 313
f 314 313 373
f 314 373 374
f 376 375 315
f 376 315 316
f 310 315 370
f 370 315 375
f 378 377 318
f 318 377 317
f 318 311 371
f 318 371 378
f 379 372 312
f 379 312 319
f 319 320 379
f 379 320 380
f 374 321 314
f 381 321 374
f 383 382 322
f 383 322 323
f 316 322 376
f 376 322 382
f 385 384 325
f 325 384 324
f 325 317 377
f 325 377 385
f 386 380 320
f 386 320 326
f 326 321 381
f 326 381 386
f 387 383 323
f 387 323 327
f 388 327 328
f 388 387 327
f 328 324 384
f 328 384 388
f 390 389 329
f 390 329 330
f 331 329 389
f 331 389 391
f 393 392 332
f 393 332 333
f 332 394 334
f 392 394 332
f 335 334 394
f 335 394 395
f 397 396 336
f 397 336 337
f 330 336 390
f 390 336 396
f 391 338 331
f 398 338 391
f 399 393 333
f 399 333 339
f 339 340 399
f 399 340 400
f 395 401 335
f 335 401 341
f 342 341 401
f 342 401 402
f 343 397 337
f 343 403 397
f 405 404 345
f 345 404 344
f 345 338 398
f 345 398 405
f 406 400 340
f 406 340 346
f 346 347 406
f 406 347 407
f 402 408 342
f 342 408 348
f 349 348 408
f 349 408 409
f 350 403 343
f 350 410 403
f 404 411 344
f 344 411 351
f 352 351 411
f 352 411 412
f 413 407 347
f 413 347 353
f 353 354 413
f 413 354 414
f 409 355 349
f 415 355 409
f 416 410 350
f 416 350 356
f 356 357 416
f 416 357 417
f 412 358 352
f 418 358 412
f 359 414 354
f 359 419 414
f 415 360 355
f 420 360 415
f 422 421 361
f 422 361 362
f 357 361 417
f 417 361 421
f 418 363 358
f 423 363 418
f 364 419 359
f 364 424 419
f 420 365 360
f 425 365 420
f 366 422 362
f 366 426 422
f 428 427 368
f 368 427 367
f 368 363 423
f 368 423 428
f 430 429 369
f 430 369 370
f 364 369 424
f 424 369 429
f 425 371 365
f 431 371 425
f 372 426 366
f 372 432 426
f 427 433 367
f 367 433 373
f 374 373 433
f 374 433 434
f 436 435 375
f 436 375 376
f 370 375 430
f 430 375 435
f 438 437 378
f 378 437 377
f 378 371 431
f 378 431 438
f 439 432 372
f 439 372 379
f 379 380 439
f 439 380 440
f 434 381 374
f 441 381 434
f 443 442 382
f 443 382 383
f 376 382 436
f 436 382 442
f 445 444 385
f 385 444 384
f 385 377 437
f 385 437 445
f 446 440 380
f 446 380 386
f 386 381 441
f 386 441 446
f 447 443 383
f 447 383 387
f 448 387 388
f 448 447 387
f 388 384 444
f 388 444 448
f 450 449 389
f 450 389 390
f 391 389 449
f 391 449 451
f 453 452 392
f 453 392 393
f 392 454 394
f 452 454 392
f 395 394 454
f 395 454 455
f 457 456 396
f 457 396 397
f 390 396 450
f 450 396 456
f 451 398 391
f 458 398 451
f 459 453 393
f 459 393 399
f 399 400 459
f 459 400 460
f 455 461 395
f 395 461 401
f 402 401 461
f 402 461 462
f 403 457 397
f 403 463 457
f 465 464 405
f 405 464 404
f 405 398 458
f 405 458 465
f 466 460 400
f 466 400 406
f 406 407 466
f 466 407 467
f 462 468 402
f 402 468 408
f 409 408 468
f 409 468 469
f 410 463 403
f 410 470 463
f 464 471 404
f 404 471 411
f 412 411 471
f 412 471 472
f 473 467 407
f 473 407 413
f 413 414 473
f 473 414 474
f 469 415 409
f 475 415 469
f 476 470 410
f 476 410 416
f 416 417 476
f 476 417 477
f 472 418 412
f 478 418 472
f 419 474 414
f 419 479 474
f 475 420 415
f 480 420 475
f 482 481 421
f 482 421 422
f 417 421 477
f 477 421 481
f 478 423 418
f 483 423 478
f 424 479 419
f 424 484 479
f 480 425 420
f 485 425 480
f 426 482 422
f 426 486 482
f 488 487 428
f 428 487 427
f 428 423 483
f 428 483 488
f 490 489 429
f 490 429 430
f 424 429 484
f 484 429 489
f 485 431 425
f 491 431 485
f 432 486 426
f 432 492 486
f 487 493 427
f 427 493 433
f 434 433 493
f 434 493 494
f 496 495 435
f 496 435 436
f 430 435 490
f 490 435 495
f 498 497 438
f 438 497 437
f 438 431 491
f 438 491 498
f 499 492 432
f 499 432 439
f 439 440 499
f 499 440 500
f 494 441 434
f 501 441 494
f 503 502 442
f 503 442 443
f 436 442 496
f 496 442 502
f 505 504 445
f 445 504 444
f 445 437 497
f 445 497 505
f 506 500 440
f 506 440 446
f 446 441 501
f 446 501 506
f 507 503 443
f 507 443 447
f 508 447 448
f 508 507 447
f 448 444 504
f 448 504 508
f 510 509 449
f 510 449 450
f 451 449 509
f 451 509 511
f 513 512 452
f 513 452 453
f 452 514 454
f 512 514 452
f 455 454 514
f 455 514 515
f 517 516 456
f 517 456 457
f 450 456 510
f 510 456 516
f 511 458 451
f 518 458 511
f 519 513 453
f 519 453 459
f 459 460 519
f 519 460 520
f 515 521 455
f 455 521 461
f 462 461 521
f 462 521 522
f 463 517 457
f 463 523 517
f 525 524 465
f 465 524 464
f 465 458 518
f 465 518 525
f 526 520 460
f 526 460 466
f 466 467 526
f 526 467 527
f 522 528 462
f 462 528 468
f 469 468 528
f 469 528 529
f 470 523 463
f 470 530 523
f 524 531 464
f 464 531 471
f 472 471 531
f 472 531 532
f 533 527 467
f 533 467 473
f 473 474 533
f 533 474 534
f 529 475 469
f 535 475 529
f 536 530 470
f 536 470 476
f 476 477 536
f 536 477 537
f 532 478 472
f 538 478 532
f 479 534 474
f 479 539 534
f 535 480 475
f 540 480 535
f 542 541 481
f 542 481 482
f 477 481 537
f 537 481 541
f 538 483 478
f 543 483 538
f 484 539 479
f 484 544 539
f 540 485 480
f 545 485 540
f 486 542 482
f 486 546 542
f 548 547 488
f 488 547 487
f 488 483 543
f 488 543 548
f 550 549 489
f 550 489 490
f 484 489 544
f 544 489 549
f 545 491 485
f 551 491 545
f 492 546 486
f 492 552 546
f 547 553 487
f 487 553 493
f 494 493 553
f 494 553 554
f 556 555 495
f 556 495 496
f 490 495 550
f 550 495 555
f 558 557 498
f 498 557 497
f 498 491 551
f 498 551 558
f 559 552 492
f 559 492 499
f 499 500 559
f 559 500 560
f 554 501 494
f 561 501 554
f 563 562 502
f 563 502 503
f 496 502 556
f 556 502 562
f 565 564 505
f 505 564 504
f 505 497 557
f 505 557 565
f 566 560 500
f 566 500 506
f 506 501 561
f 506 561 566
f 567 563 503
f 567 503 507
f 568 507 508
f 568 567 507
f 508 504 564
f 508 564 568
f 570 569 509
f 570 509 510
f 511 509 569
f 511 569 571
f 573 572 512
f 573 512 513
f 512 574 514
f 572 574 512
f 515 514 574
f 515 574 575
f 577 576 516
f 577 516 517
f 510 516 570
f 570 516 576
f 571 518 511
f 578 518 571
f 579 573 513
f 579 513 519
f 519 520 579
f 579 520 580
f 575 581 515
f 515 581 521
f 522 521 581
f 522 581 582
f 523 577 517
f 523 583 577
f 585 584 525
f 525 584 524
f 525 518 578
f 525 578 585
f 586 580 520
f 586 520 526
f 526 527 586
f 586 527 587
f 582 588 522
f 522 588 528
f 529 528 588
f 529 588 589
f 530 583 523
f 530 590 583
f 584 591 524
f 524 591 531
f 532 531 591
f 532 591 592
f 593 587 527
f 593 527 533
f 533 534 593
f 593 534 594
f 589 535 529
f 595 535 589
f 596 590 530
f 596 530 536
f 536 537 596
f 596 537 597
f 592 538 532
f 598 538 592
f 539 594 534
f 539 599 594
f 595 540 535
f 600 540 595
f 602 601 541
f 602 541 542
f 537 541 597
f 597 541 601
f 598 543 538
f 603 543 598
f 544 599 539
f 544 604 599
f 600 545 540
f 605 545 600
f 546 602 542
f 546 606 602
f 608 607 548
f 548 607 547
f 548 543 603
f 548 603 608
f 610 609 549
f 610 549 550
f 544 549 604
f 604 549 609
f 605 551 545
f 611 551 605
f 552 606 546
f 552 612 606
f 607 613 547
f 547 613 553
f 554 553 613
f 554 613 614
f 616 615 555
f 616 555 556
f 550 555 610
f 610 555 615
f 618 617 558
f 558 617 557
f 558 551 611
f 558 611 618
f 619 612 552
f 619 552 559
f 559 560 619
f 619 560 620
f 614 561 554
f 621 561 614
f 623 622 562
f 623 562 563
f 556 562 616
f 616 562 622
f 625 624 565
f 565 624 564
f 565 557 617
f 565 617 625
f 626 620 560
f 626 560 566
f 566 561 621
f 566 621 626
f 627 623 563
f 627 563 567
f 628 567 568
f 628 627 567
f 568 564 624
f 568 624 628
f 630 629 569
f 630 569 570
f 571 569 629
f 571 629 631
f 633 632 572
f 633 572 573
f 572 634 574
f 632 634 572
f 575 574 634
f 575 634 635
f 637 636 576
f 637 576 577
f 570 576 630
f 630 576 636
f 631 578 571
f 638 578 631
f 639 633 573
f 639 573 579
f 579 580 639
f 639 580 640
f 635 641 575
f 575 641 581
f 582 581 641
f 582 641 642
f 583 637 577
f 583 643 637
f 645 644 585
f 585 644 584
f 585 578 638
f 585 638 645
f 646 640 580
f 646 580 586
f 586 587 646
f 646 587 647
f 642 648 582
f 582 648 588
f 589 588 648
f 589 648 649
f 590 643 583
f 590 650 643
f 644 651 584
f 584 651 591
f 592 591 651
f 592 651 652
f 653 647 587
f 653 587 593
f 593 594 653
f 653 594 654
f 649 595 589
f 655 595 649
f 656 650 590
f 656 590 596
f 596 597 656
f 656 597 657
f 652 598 592
f 658 598 652
f 599 654 594
f 599 659 654
f 655 600 595
f 660 600 655
f 662 661 601
f 662 601 602
f 597 601 657
f 657 601 661
f 658 603 598
f 663 603 658
f 604 659 599
f 604 664 659
f 660 605 600
f 665 605 660
f 606 662 602
f 606 666 662
f 668 667 608
f 608 667 607
f 608 603 663
f 608 663 668
f 670 669 609
f 670 609 610
f 604 609 664
f 664 609 669
f 665 611 605
f 671 611 665
f 612 666 606
f 612 672 666
f 667 673 607
f 607 673 613
f 614 613 673
f 614 673 674
f 676 675 615
f 676 615 616
f 610 615 670
f 670 615 675
f 678 677 618
f 618 677 617
f 618 611 671
f 618 671 678
f 679 672 612
f 679 612 619
f 619 620 679
f 679 620 680
f 674 621 614
f 681 621 674
f 683 682 622
f 683 622 623
f 616 622 676
f 676 622 682
f 685 684 625
f 625 684 624
f 625 617 677
f 625 677 685
f 686 680 620
f 686 620 626
f 626 621 681
f 626 681 686
f 687 683 623
f 687 623 627
f 688 627 628
f 688 687 627
f 628 624 684
f 628 684 688
f 690 689 629
f 690 629 630
f 631 629 689
f 631 689 691
f 693 692 632
f 693 632 633
f 632 694 634
f 692 694 632
f 635 634 694
f 635 694 695
f 697 696 636
f 697 636 637
f 630 636 690
f 690 636 696
f 691 638 631
f 698 638 691
f 699 693 633
f 699 633 639
f 639 640 699
f 699 640 700
f 695 701 635
f 635 701 641
f 642 641 701
f 642 701 702
f 643 697 637
f 643 703 697
f 705 704 645
f 645 704 644
f 645 638 698
f 645 698 705
f 706 700 640
f 706 640 646
f 646 647 706
f 706 647 707
f 702 708 642
f 642 708 648
f 649 648 708
f 649 708 709
f 650 703 643
f 650 710 703
f 704 711 644
f 644 711 651
f 652 651 711
f 652 711 712
f 713 707 647
f 713 647 653
f 653 654 713
f 713 654 714
f 709 655 649
f 715 655 709
f 716 710 650
f 716 650 656
f 656 657 716
f 716 657 717
f 712 658 652
f 718 658 712
f 659 714 654
f 659 719 714
f 715 660 655
f 720 660 715
f 722 721 661
f 722 661 662
f 657 661 717
f 717 661 721
f 718 663 658
f 723 663 718
f 664 719 659
f 664 724 719
f 720 665 660
f 725 665 720
f 666 722 662
f 666 726 722
f 728 727 668
f 668 727 667
f 668 663 723
f 668 723 728
f 730 729 669
f 730 669 670
f 664 669 724
f 724 669 729
f 725 671 665
f 731 671 725
f 672 726 666
f 672 732 726
f 727 733 667
f 667 733 673
f 674 673 733
f 674 733 734
f 736 735 675
f 736 675 676
f 670 675 730
f 730 675 735
f 738 737 678
f 678 737 677
f 678 671 731
f 678 731 738
f 739 732 672
f 739 672 679
f 679 680 739
f 739 680 740
f 734 681 674
f 741 681 734
f 743 742 682
f 743 682 683
f 676 682 736
f 736 682 742
f 745 744 685
f 685 744 684
f 685 677 737
f 685 737 745
f 746 740 680
f 746 680 686
f 686 681 741
f 686 741 746
f 747 743 683
f 747 683 687
f 748 687 688
f 748 747 687
f 688 684 744
f 688 744 748
f 750 749 689
f 750 689 690
f 691 689 749
f 691 749 751
f 753 752 692
f 753 692 693
f 692 754 694
f 752 754 692
f 695 694 754
f 695 754 755
f 757 756 696
f 757 696 697
f 690 696 750
f 750 696 756
f 751 698 691
f 758 698 751
f 759 753 693
f 759 693 699
f 699 700 759
f 759 700 760
f 755 761 695
f 695 761 701
f 702 701 761
f 702 761 762
f 703 757 697
f 703 763 757
f 765 764 705
f 705 764 704
f 705 698 758
f 705 758 765
f 766 760 700
f 766 700 706
f 706 707 766
f 766 707 767
f 762 768 702
f 702 768 708
f 709 708 768
f 709 768 769
f 710 763 703
f 710 770 763
f 764 771 704
f 704 771 711
f 712 711 771
f 712 771 772
f 773 767 707
f 773 707 713
f 713 714 773
f 773 714 774
f 769 715 709
f 775 715 769
f 776 770 710
f 776 710 716
f 716 717 776
f 776 717 777
f 772 718 712
f 778 718 772
f 719 774 714
f 719 779 774
f 775 720 715
f 780 720 775
f 782 781 721
f 782 721 722
f 717 721 777
f 777 721 781
f 778 723 718
f 783 723 778
f 724 779 719
f 724 784 779
f 780 725 720
f 785 725 780
f 726 782 722
f 726 786 782
f 788 787 728
f 728 787 727
f 728 723 783
f 728 783 788
f 790 789 729
f 790 729 730
f 724 729 784
f 784 729 789
f 785 731 725
f 791 731 785
f 732 786 726
f 732 792 786
f 787 793 727
f 727 793 733
f 734 733 793
f 734 793 794
f 796 795 735
f 796 735 736
f 730 735 790
f 790 735 795
f 798 797 738
f 738 797 737
f 738 731 791
f 738 791 798
f 799 792 732
f 799 732 739
f 739 740 799
f 799 740 800
f 794 741 734
f 801 741 794
f 803 802 742
f 803 742 743
f 736 742 796
f 796 742 802
f 805 804 745
f 745 804 744
f 745 737 797
f 745 797 805
f 806 800 740
f 806 740 746
f 746 741 801
f 746 801 806
f 807 803 743
f 807 743 747
f 808 747 748
f 808 807 747
f 748 744 804
f 748 804 808
f 810 809 749
f 810 749 750
f 751 749 809
f 751 809 811
f 813 812 752
f 813 752 753
f 752 814 754
f 812 814 752
f 755 754 814
f 755 814 815
f 817 816 756
f 817 756 757
f 750 756 810
f 810 756 816
f 811 758 751
f 818 758 811
f 819 813 753
f 819 753 759
f 759 760 819
f 819 760 820
f 815 821 755
f 755 821 761
f 762 761 821
f 762 821 822
f 763 817 757
f 763 823 817
f 825 824 765
f 765 824 764
f 765 758 818
f 765 818 825
f 826 820 760
f 826 760 766
f 766 767 826
f 826 767 827
f 822 828 762
f 762 828 768
f 769 768 828
f 769 828 829
f 770 823 763
f 770 830 823
f 824 831 764
f 764 831 771
f 772 771 831
f 772 831 832
f 833 827 767
f 833 767 773
f 773 774 833
f 833 774 834
f 829 775 769
f 835 775 829
f 836 830 770
f 836 770 776
f 776 777 836
f 836 777 837
f 832 778 772
f 838 778 832
f 779 834 774
f 779 839 834
f 835 780 775
f 840 780 835
f 842 841 781
f 842 781 782
f 777 781 837
f 837 781 841
f 838 783 778
f 843 783 838
f 784 839 779
f 784 844 839
f 840 785 780
f 845 785 840
f 786 842 782
f 786 846 842
f 848 847 788
f 788 847 787
f 788 783 843
f 788 843 848
f 850 849 789
f 850 789 790
f 784 789 844
f 844 789 849
f 845 791 785
f 851 791 845
f 792 846 786
f 792 852 846
f 847 853 787
f 787 853 793
f 794 793 853
f 794 853 854
f 856 855 795
f 856 795 796
f 790 795 850
f 850 795 855
f 858 857 798
f 798 857 797
f 798 791 851
f 798 851 858
f 859 852 792
f 859 792 799
f 799 800 859
f 859 800 860
f 854 801 794
f 861 801 854
f 863 862 802
f 863 802 803
f 796 802 856
f 856 802 862
f 865 864 805
f 805 864 804
f 805 797 857
f 805 857 865
f 866 860 800
f 866 800 806
f 806 801 861
f 806 861 866
f 867 863 803
f 867 803 807
f 868 807 808
f 868 867 807
f 808 804 864
f 808 864 868
f 870 869 809
f 870 809 810
f 811 809 869
f 811 869 871
f 873 872 812
f 873 812 813
f 812 874 814
f 872 874 812
f 815 814 874
f 815 874 875
f 877 876 816
f 877 816 817
f 810 816 870
f 870 816 876
f 871 818 811
f 878 818 871
f 879 873 813
f 879 813 819
f 819 820 879
f 879 820 880
f 875 881 815
f 815 881 821
f 822 821 881
f 822 881 882
f 823 877 817
f 823 883 877
f 885 884 825
f 825 884 824
f 825 818 878
f 825 878 885
f 886 880 820
f 886 820 826
f 826 827 886
f 886 827 887
f 882 888 822
f 822 888 828
f 829 828 888
f 829 888 889
f 830 883 823
f 830 890 883
f 884 891 824
f 824 891 831
f 832 831 891
f 832 891 892
f 893 887 827
f 893 827 833
f 833 834 893
f 893 834 894
f 889 835 829
f 895 835 889
f 896 890 830
f 896 830 836
f 836 837 896
f 896 837 897
f 892 838 832
f 898 838 892
f 839 894 834
f 839 899 894
f 895 840 835
f 900 840 895
f 902 901 841
f 902 841 842
f 837 841 897
f 897 841 901
f 898 843 838
f 903 843 898
f 844 899 839
f 844 904 899
f 900 845 840
f 905 845 900
f 846 902 842
f 846 906 902
f 908 907 848
f 848 907 847
f 848 843 903
f 848 903 908
f 850 909 849
f 909 910 849
f 910 844 849
f 910 904 844
f 905 851 845
f 911 851 905
f 852 906 846
f 852 912 906
f 907 913 847
f 847 913 853
f 854 853 913
f 854 913 914
f 916 915 855
f 916 855 856
f 850 855 909
f 855 917 909
f 855 915 917
f 857 917 918
f 917 857 909
f 858 909 857
f 909 858 910
f 919 910 858
f 858 851 911
f 858 911 919
f 920 912 852
f 920 852 859
f 859 860 920
f 920 860 921
f 914 861 854
f 922 861 914
f 924 923 862
f 924 862 863
f 856 862 916
f 916 862 923
f 926 925 865
f 865 925 864
f 865 857 918
f 865 918 926
f 927 921 860
f 927 860 866
f 866 861 922
f 866 922 927
f 928 924 863
f 928 863 867
f 929 867 868
f 929 928 867
f 868 864 925
f 868 925 929
f 870 930 869
f 930 871 869
f 873 931 872
f 932 874 872
f 932 872 931
f 932 875 874
f 877 933 876
f 930 870 876
f 933 930 876
f 934 930 933
f 934 878 871
f 934 871 930
f 879 931 873
f 931 879 880
f 935 931 880
f 932 931 935
f 936 881 875
f 932 936 875
f 935 936 932
f 936 882 881
f 883 937 933
f 883 933 877
f 937 884 885
f 934 937 885
f 933 937 934
f 934 885 878
f 886 935 880
f 935 886 887
f 938 935 887
f 936 935 938
f 939 888 882
f 936 939 882
f 938 939 936
f 939 889 888
f 890 940 937
f 890 937 883
f 941 891 884
f 937 941 884
f 940 941 937
f 941 892 891
f 893 938 887
f 938 893 894
f 942 938 894
f 939 938 942
f 942 895 889
f 942 889 939
f 896 940 890
f 940 896 897
f 943 940 897
f 941 940 943
f 943 898 892
f 943 892 941
f 899 944 942
f 899 942 894
f 944 900 895
f 944 895 942
f 902 945 901
f 943 897 901
f 945 943 901
f 946 943 945
f 946 903 898
f 946 898 943
f 904 947 944
f 904 944 899
f 947 905 900
f 947 900 944
f 906 948 945
f 906 945 902
f 948 907 908
f 946 948 908
f 945 948 946
f 946 908 903
f 910 949 947
f 910 947 904
f 949 911 905
f 949 905 947
f 912 950 948
f 912 948 906
f 951 913 907
f 948 951 907
f 950 951 948
f 951 914 913
f 916 952 915
f 953 917 915
f 953 915 952
f 919 949 910
f 918 917 953
f 949 919 911
f 920 950 912
f 950 920 921
f 954 950 921
f 951 950 954
f 954 922 914
f 954 914 951
f 924 955 923
f 952 916 923
f 955 952 923
f 956 952 955
f 956 925 926
f 953 956 926
f 952 956 953
f 953 926 918
f 927 954 921
f 954 927 922
f 928 955 924
f 955 928 929
f 955 929 956
f 956 929 925

