# https://github.com/mikedh/trimesh
v -0.01995801 -0.01185307 -0.03677270
v -0.01696350 -0.01599973 -0.03886339
v -0.01700992 -0.01225442 -0.04109786
v -0.02023993 -0.01183779 -0.03034883
v -0.01781432 -0.01598134 -0.03358631
v -0.02010587 -0.01184560 -0.02370290
v -0.01772144 -0.01588854 -0.02688157
v -0.02009161 -0.01184863 -0.01720048
v -0.01764756 -0.01588507 -0.02030508
v -0.02009559 -0.01184871 -0.01071305
v -0.01765013 -0.01588800 -0.01381766
v -0.02009549 -0.01184742 -0.00422186
v -0.01765205 -0.01588778 -0.00732758
v -0.02009332 -0.01184514 0.00226921
v -0.01765558 -0.01588309 -0.00083789
v -0.02011618 -0.01190222 0.00878981
v -0.01765577 -0.01589969 0.00566476
v -0.02021895 -0.01193910 0.01537269
v -0.01766786 -0.01600190 0.01219412
v -0.01981013 -0.01105438 0.02165290
v -0.01761222 -0.01560080 0.01842904
v -0.01711142 -0.01350791 0.02324640
v -0.02032215 -0.00599184 -0.03799384
v -0.01665191 -0.00642934 -0.04090064
v -0.02101526 -0.00602340 -0.03191305
v -0.02084457 -0.00606051 -0.02524335
v -0.02079462 -0.00606336 -0.01871144
v -0.02079936 -0.00606282 -0.01222500
v -0.02080036 -0.00606263 -0.00573392
v -0.02079760 -0.00606020 0.00075713
v -0.02079751 -0.00607102 0.00724797
v -0.02090246 -0.00614855 0.01377979
v -0.02097519 -0.00595423 0.02044666
v -0.01799059 -0.00955349 0.02618779
v -0.01965521 -0.00527146 0.02634296
v -0.01684161 -0.00598821 0.02939298
v -0.02032909 0.00062545 -0.03782988
v -0.01775931 0.00043411 -0.04044583
v -0.02102428 0.00070698 -0.03172697
v -0.02082804 0.00066814 -0.02498393
v -0.02074381 0.00066520 -0.01842256
v -0.02074707 0.00066668 -0.01193532
v -0.02074945 0.00066679 -0.00544545
v -0.02074793 0.00066662 0.00104682
v -0.02074359 0.00066452 0.00753722
v -0.02077408 0.00064517 0.01401510
v -0.02090803 0.00071796 0.02051327
v -0.02016106 0.00126272 0.02737381
v -0.01719320 -0.00084521 0.03072160
v -0.01956731 0.00246019 0.04090106
v -0.01677322 -0.00141845 0.03910705
v -0.01780116 0.00163905 0.03629487
v -0.01697879 -0.00067209 0.04294227
v -0.02042551 0.00718999 -0.03777599
v -0.01713709 0.00768029 -0.04071933
v -0.02108548 0.00742586 -0.03156676
v -0.02088899 0.00740292 -0.02470301
v -0.02079418 0.00739343 -0.01812112
v -0.02079663 0.00739607 -0.01163663
v -0.02080024 0.00739634 -0.00514809
v -0.02079849 0.00739547 0.00134384
v -0.02079968 0.00739196 0.00783583
v -0.02081653 0.00739907 0.01432171
v -0.02087960 0.00746484 0.02078198
v -0.02092783 0.00759327 0.02726713
v -0.01779974 0.00281603 0.03261638
v -0.02039001 0.00662303 0.03456488
v -0.02126251 0.00834889 0.04130010
v -0.01810199 0.00317514 0.04593572
v -0.02001360 0.00767282 0.04614888
v -0.01730498 0.00685367 0.04938735
v -0.01981036 0.01245126 -0.03856336
v -0.01630100 0.01504478 -0.04091829
v -0.02040465 0.01317462 -0.03314447
v -0.02018257 0.01322618 -0.02625371
v -0.02008759 0.01318079 -0.01962617
v -0.02009142 0.01318096 -0.01314538
v -0.02009580 0.01318221 -0.00665870
v -0.02009403 0.01318152 -0.00016706
v -0.02009707 0.01317661 0.00632423
v -0.02014105 0.01319798 0.01281536
v -0.02013917 0.01331538 0.01930763
v -0.02018389 0.01350747 0.02575559
v -0.02027016 0.01353808 0.03215561
v -0.02043821 0.01349628 0.03866144
v -0.02007510 0.01350706 0.04500719
v -0.01778272 0.01240971 0.05003138
v -0.01791392 0.01690837 -0.03649467
v -0.01775994 0.01732324 -0.02992788
v -0.01764454 0.01723686 -0.02321223
v -0.01764715 0.01721786 -0.01671387
v -0.01765202 0.01722126 -0.01023070
v -0.01765100 0.01722131 -0.00373926
v -0.01765053 0.01721536 0.00274992
v -0.01769627 0.01722743 0.00925208
v -0.01772073 0.01737342 0.01576425
v -0.01705808 0.01716960 0.02246988
v -0.01817658 0.01626335 0.02818586
v -0.01778582 0.01609908 0.03371325
v -0.01705792 0.01642224 0.04097140
v -0.01613823 0.01678463 0.04824240
v -0.01346979 -0.02492124 0.03436185
v -0.01058804 -0.02794739 0.03485716
v -0.01139644 -0.02554530 0.03044270
v -0.01315995 -0.02473052 0.04019414
v -0.01160789 -0.02781034 0.03886509
v -0.01118604 -0.02564968 0.04185742
v -0.01419234 -0.01933098 -0.03676403
v -0.00942654 -0.02141378 -0.03800345
v -0.01244516 -0.01773522 -0.04109953
v -0.01453340 -0.01920669 -0.03033930
v -0.01052312 -0.02174527 -0.03191247
v -0.01441762 -0.01912942 -0.02369363
v -0.01042149 -0.02158958 -0.02524139
v -0.01440159 -0.01913255 -0.01719118
v -0.01036162 -0.02157343 -0.01870944
v -0.01440595 -0.01913392 -0.01070367
v -0.01036566 -0.02157754 -0.01222296
v -0.01441348 -0.01912964 -0.00421463
v -0.01037558 -0.02157375 -0.00573517
v -0.01440845 -0.01912782 0.00227518
v -0.01036983 -0.02157187 0.00074912
v -0.01431716 -0.01921119 0.00882493
v -0.01020152 -0.02164345 0.00728411
v -0.01424551 -0.01927483 0.01532878
v -0.01007902 -0.02179019 0.01390080
v -0.01413210 -0.01830212 0.02194574
v -0.01079842 -0.02170257 0.01945005
v -0.01354091 -0.01978641 0.02831535
v -0.01019949 -0.02251171 0.02574887
v -0.01440688 -0.01832746 0.03401484
v -0.01373022 -0.01922425 0.03910245
v -0.01038680 -0.02108767 0.04311460
v -0.01075937 -0.01325214 -0.04126933
v -0.01506697 -0.01208870 0.02755794
v -0.01408303 -0.01244809 0.03318605
v -0.01359762 -0.01206470 0.04008198
v -0.01105443 -0.01439028 0.04354582
v -0.01185101 -0.00934513 -0.03885242
v -0.01428809 -0.00483622 -0.03726731
v -0.01095434 -0.00937329 -0.03355327
v -0.01352042 -0.00536324 -0.03013734
v -0.01106512 -0.00942555 -0.02684688
v -0.01367134 -0.00528188 -0.02349425
v -0.01116259 -0.00939730 -0.02030585
v -0.01370111 -0.00526143 -0.01701460
v -0.01116128 -0.00939559 -0.01382074
v -0.01369513 -0.00526243 -0.01052727
v -0.01115647 -0.00939312 -0.00733131
v -0.01369379 -0.00526152 -0.00403461
v -0.01115924 -0.00941598 -0.00082691
v -0.01375930 -0.00532348 0.00250405
v -0.01123355 -0.00951743 0.00574655
v -0.01383198 -0.00530336 0.00906947
v -0.01124771 -0.00904486 0.01195445
v -0.01308648 -0.00469896 0.01403126
v -0.01062993 -0.00653105 0.01614346
v -0.01462519 -0.00560654 0.03273575
v -0.01455282 -0.00506958 0.03975437
v -0.01132535 -0.00945654 0.04549728
v -0.01321308 -0.00507488 0.04704958
v -0.01046734 -0.00660234 0.04947698
v -0.01513788 0.00185081 -0.03781302
v -0.01435040 0.00042134 -0.03165940
v -0.01447596 0.00058952 -0.02491087
v -0.01454985 0.00067103 -0.01841031
v -0.01454678 0.00066831 -0.01192803
v -0.01454218 0.00067071 -0.00543657
v -0.01456875 0.00065408 0.00104145
v -0.01466811 0.00055761 0.00754238
v -0.01390277 0.00090219 0.01439596
v -0.01102728 -0.00131792 0.01754215
v -0.01542823 -0.00069569 0.03502397
v -0.01529629 0.00096931 0.04760147
v -0.01144234 -0.00294724 0.05258878
v -0.01315977 0.00124345 0.05296047
v -0.00929389 -0.00030269 0.05592454
v -0.01385755 0.00733590 -0.03858604
v -0.01349987 0.00619389 -0.03321101
v -0.01361567 0.00643338 -0.02640828
v -0.01369824 0.00660172 -0.01981772
v -0.01369916 0.00660205 -0.01333543
v -0.01369468 0.00659876 -0.00684428
v -0.01369519 0.00660150 -0.00035809
v -0.01376305 0.00652571 0.00607204
v -0.01380215 0.00641096 0.01264201
v -0.01142304 0.00351192 0.01957239
v -0.01280004 0.00825230 0.02074917
v -0.01029141 0.00642897 0.02337913
v -0.01436485 0.00831941 0.05317115
v -0.00996740 0.00606207 0.05644075
v -0.01104404 0.01068707 -0.03646472
v -0.01178583 0.01337079 -0.04110694
v -0.01110825 0.01050375 -0.02991378
v -0.01116260 0.01072005 -0.02322363
v -0.01116161 0.01073963 -0.01672447
v -0.01115897 0.01073022 -0.01023794
v -0.01115713 0.01073353 -0.00374475
v -0.01116390 0.01073314 0.00273411
v -0.01121485 0.01059768 0.00921531
v -0.01124605 0.01038843 0.01584863
v -0.01114436 0.01092377 0.02042790
v -0.01000698 0.01446940 0.02326930
v -0.01406339 0.01437181 0.02734443
v -0.01122741 0.00970079 0.02670513
v -0.01074404 0.01067593 0.03214570
v -0.01422953 0.01421648 0.03526283
v -0.01064584 0.01110689 0.03829698
v -0.01320909 0.01472042 0.04071000
v -0.01022446 0.01327433 0.04306272
v -0.01428658 0.01468159 0.05296786
v -0.01035424 0.01258201 0.05562735
v -0.01453332 0.01974515 -0.03875739
v -0.01078048 0.01978777 -0.04105995
v -0.01450495 0.02062134 -0.03343028
v -0.01440387 0.02053940 -0.02669934
v -0.01440128 0.02046394 -0.02012633
v -0.01440607 0.02046569 -0.01364202
v -0.01440588 0.02046742 -0.00715191
v -0.01440354 0.02046203 -0.00066528
v -0.01442225 0.02045934 0.00583361
v -0.01449460 0.02059182 0.01243353
v -0.01407005 0.02075306 0.01880228
v -0.01182850 0.01912071 0.02342804
v -0.01240922 0.01666848 0.04578287
v -0.01116547 0.01644648 0.05179853
v -0.01036930 0.02278000 -0.03677893
v -0.01035410 0.02305779 -0.03035553
v -0.01036309 0.02292183 -0.02371226
v -0.01036680 0.02290698 -0.01721126
v -0.01036682 0.02291104 -0.01072375
v -0.01036563 0.02290679 -0.00423708
v -0.01036592 0.02290228 0.00224826
v -0.01041167 0.02299812 0.00887588
v -0.01037871 0.02322867 0.01569346
v -0.00968599 0.02262227 0.02098358
v -0.00877322 -0.02470767 0.03219381
v -0.00783641 -0.02470802 0.03928549
v -0.00333543 -0.02178630 -0.03798718
v -0.00529605 -0.01855637 -0.04093128
v -0.00483926 -0.02247858 -0.03191478
v -0.00469892 -0.02232788 -0.02517262
v -0.00457820 -0.02227636 -0.01860919
v -0.00457786 -0.02228121 -0.01212187
v -0.00458896 -0.02227866 -0.00563597
v -0.00458406 -0.02227861 0.00085045
v -0.00438790 -0.02236655 0.00740729
v -0.00420033 -0.02250537 0.01410824
v -0.00587320 -0.02197124 0.02089004
v -0.00736210 -0.01874606 0.02718784
v -0.00352608 -0.01886778 0.02291471
v -0.00678979 -0.01937163 0.03401864
v -0.00449832 -0.01988026 0.03729333
v -0.00344015 -0.02178862 0.04119500
v -0.00474511 -0.02185393 0.04644248
v -0.00760232 -0.01802852 0.04814634
v -0.00612613 -0.01806194 0.05373156
v -0.00466947 -0.02097896 0.05229414
v -0.00367138 -0.01804954 0.05538196
v -0.00396740 -0.01543984 -0.03799493
v -0.00805025 -0.01254373 -0.03674133
v -0.00364428 -0.01505550 -0.03190240
v -0.00778582 -0.01260999 -0.03033180
v -0.00375194 -0.01516560 -0.02524367
v -0.00790437 -0.01264409 -0.02371073
v -0.00378642 -0.01518037 -0.01871254
v -0.00791914 -0.01264084 -0.01721072
v -0.00378315 -0.01517811 -0.01222494
v -0.00791493 -0.01263981 -0.01072265
v -0.00378072 -0.01517804 -0.00573796
v -0.00791092 -0.01264141 -0.00423581
v -0.00377636 -0.01518098 0.00075004
v -0.00791241 -0.01269926 0.00227263
v -0.00379968 -0.01516583 0.00733898
v -0.00796000 -0.01270168 0.00885388
v -0.00387776 -0.01509362 0.01407628
v -0.00789734 -0.01161991 0.01553600
v -0.00373641 -0.01589372 0.01998827
v -0.00706714 -0.01296433 0.02199442
v -0.00782266 -0.01169018 0.02761428
v -0.00706855 -0.01217069 0.03356674
v -0.00418675 -0.01448043 0.03665901
v -0.00877509 -0.01118804 0.04813670
v -0.00678282 -0.01253470 0.05279481
v -0.00408540 -0.01260256 0.05559707
v -0.00822349 -0.00527546 0.02025820
v -0.00757399 -0.00601704 0.02659626
v -0.00781689 -0.00596474 0.03328406
v -0.00474765 -0.00957216 0.03879916
v -0.00682531 -0.00515348 0.04030634
v -0.00378935 -0.00664239 0.04281051
v -0.00837817 -0.00616173 0.05311153
v -0.00469469 -0.00500692 0.05566532
v -0.00854114 0.00197355 0.02192624
v -0.00723188 0.00077427 0.02686366
v -0.00746495 0.00057752 0.03341871
v -0.00772300 0.00080270 0.04010360
v -0.00479070 -0.00281765 0.04578039
v -0.00650470 0.00140391 0.04596807
v -0.00366069 0.00063471 0.04913284
v -0.00467847 0.00269555 0.05636598
v -0.00839998 0.00657774 0.02752031
v -0.00801247 0.00651749 0.03361046
v -0.00807732 0.00777310 0.04060583
v -0.00672676 0.00808861 0.04722174
v -0.00390698 0.00578424 0.05051932
v -0.00543695 0.00902211 0.05595547
v -0.00786852 0.01461095 -0.03874662
v -0.00789402 0.01374684 -0.03339142
v -0.00794550 0.01388479 -0.02665745
v -0.00791666 0.01398220 -0.02011823
v -0.00791392 0.01397653 -0.01363562
v -0.00791496 0.01397430 -0.00714432
v -0.00791836 0.01398312 -0.00065576
v -0.00790214 0.01397901 0.00584501
v -0.00781542 0.01381445 0.01253153
v -0.00813121 0.01361768 0.01895398
v -0.00855493 0.01367813 0.04737484
v -0.00427748 0.00979093 0.05263539
v -0.00721606 0.01303880 0.05291433
v -0.00335492 0.01710824 -0.03727151
v -0.00494924 0.01945198 -0.04088811
v -0.00388206 0.01634016 -0.03014318
v -0.00380020 0.01648854 -0.02350358
v -0.00377936 0.01651630 -0.01702542
v -0.00378205 0.01651154 -0.01053734
v -0.00378682 0.01651446 -0.00404701
v -0.00378072 0.01651846 0.00243611
v -0.00361283 0.01643839 0.00903446
v -0.00345364 0.01629493 0.01585655
v -0.00468078 0.01659134 0.02114579
v -0.00495591 0.01990556 0.02319472
v -0.00450908 0.02314297 -0.03800168
v -0.00454089 0.02383264 -0.03192151
v -0.00457856 0.02365998 -0.02525178
v -0.00458153 0.02360996 -0.01872014
v -0.00458098 0.02361472 -0.01223355
v -0.00458071 0.02361205 -0.00574598
v -0.00457808 0.02360950 0.00073868
v -0.00458684 0.02370390 0.00732412
v -0.00461161 0.02390126 0.01419219
v -0.00441690 0.02323984 0.02037646
v 0.00324206 -0.02181148 -0.03793172
v 0.00181435 -0.01919964 -0.04054147
v 0.00172777 -0.02247726 -0.03181184
v 0.00197727 -0.02230672 -0.02500116
v 0.00215068 -0.02222621 -0.01842033
v 0.00215429 -0.02222901 -0.01193386
v 0.00214291 -0.02222892 -0.00544881
v 0.00214689 -0.02222661 0.00103924
v 0.00232332 -0.02230921 0.00762188
v 0.00254136 -0.02244628 0.01437348
v 0.00091702 -0.02172722 0.02030181
v 0.00233324 -0.01919628 0.02294487
v -0.00170045 -0.01720944 0.04036919
v -0.00122576 -0.01855678 0.04665117
v -0.00211087 -0.01950253 0.05229336
v 0.00215172 -0.01660590 -0.03781066
v 0.00228945 -0.01584329 -0.03171212
v 0.00218420 -0.01597940 -0.02497501
v 0.00214538 -0.01603151 -0.01841391
v 0.00214716 -0.01602830 -0.01192595
v 0.00214996 -0.01602823 -0.00543816
v 0.00215180 -0.01602893 0.00104906
v 0.00211609 -0.01597849 0.00761244
v 0.00200794 -0.01587581 0.01434726
v 0.00205933 -0.01665156 0.02037625
v -0.00183088 -0.01113202 0.04125352
v -0.00040164 -0.01231272 0.04662738
v -0.00131631 -0.01419362 0.05295764
v -0.00160573 -0.00525083 0.04738815
v -0.00130062 -0.00723455 0.05286627
v -0.00185298 0.00047691 0.05294160
v -0.00234231 0.00644234 0.05410208
v 0.00333249 0.01796044 -0.03782191
v 0.00191604 0.02058012 -0.04045146
v 0.00190339 0.01716799 -0.03167364
v 0.00207145 0.01729168 -0.02492850
v 0.00215298 0.01736501 -0.01842871
v 0.00215016 0.01736225 -0.01194635
v 0.00214694 0.01736220 -0.00545432
v 0.00214422 0.01736503 0.00102772
v 0.00222986 0.01729330 0.00752820
v 0.00239842 0.01717276 0.01428293
v 0.00091372 0.01795559 0.02043363
v 0.00235427 0.02057507 0.02306116
v 0.00210769 0.02314693 -0.03783256
v 0.00218904 0.02384038 -0.03172788
v 0.00215001 0.02364322 -0.02498382
v 0.00214707 0.02355911 -0.01842231
v 0.00214854 0.02356248 -0.01193493
v 0.00214868 0.02356248 -0.00544721
v 0.00215012 0.02355918 0.00104005
v 0.00214725 0.02364337 0.00760140
v 0.00210988 0.02383953 0.01434620
v 0.00218977 0.02314533 0.02045344
v 0.00992341 -0.02192131 -0.03775088
v 0.00877438 -0.01816553 -0.04080405
v 0.00842700 -0.02259595 -0.03163904
v 0.00868942 -0.02237116 -0.02480461
v 0.00888296 -0.02227655 -0.01822070
v 0.00888611 -0.02227860 -0.01173739
v 0.00887512 -0.02228111 -0.00525186
v 0.00887533 -0.02227652 0.00123508
v 0.00899724 -0.02233031 0.00779922
v 0.00913727 -0.02248110 0.01454190
v 0.00756989 -0.02174706 0.02057243
v 0.00956216 -0.01854153 0.02355740
v 0.00786776 -0.01573493 -0.03777966
v 0.00811258 -0.01494452 -0.03156234
v 0.00810072 -0.01509508 -0.02470267
v 0.00807627 -0.01518268 -0.01811932
v 0.00807788 -0.01518042 -0.01163431
v 0.00808029 -0.01517814 -0.00514661
v 0.00808390 -0.01518104 0.00133908
v 0.00805005 -0.01516580 0.00786650
v 0.00794521 -0.01505874 0.01452746
v 0.00826455 -0.01544197 0.02062727
v 0.00881702 0.01667844 -0.03859275
v 0.00916085 0.01995635 -0.04072572
v 0.00767640 0.01632147 -0.03321593
v 0.00791613 0.01643270 -0.02641370
v 0.00808395 0.01651420 -0.01982679
v 0.00808407 0.01651438 -0.01334630
v 0.00807914 0.01651176 -0.00685599
v 0.00807653 0.01651629 -0.00036780
v 0.00809715 0.01648650 0.00611169
v 0.00818091 0.01633605 0.01275483
v 0.00765318 0.01710572 0.01988757
v 0.00924606 0.01946775 0.02351986
v 0.00867101 0.02324683 -0.03778178
v 0.00890743 0.02390214 -0.03157365
v 0.00888475 0.02370443 -0.02471133
v 0.00887537 0.02360938 -0.01812986
v 0.00887796 0.02361198 -0.01164521
v 0.00887819 0.02361474 -0.00515754
v 0.00887870 0.02361001 0.00132899
v 0.00887581 0.02365991 0.00786090
v 0.00883878 0.02383058 0.01453051
v 0.00880831 0.02313750 0.02061186
v 0.01512870 -0.02132353 -0.03709457
v 0.01476672 -0.01855813 -0.04097549
v 0.01433282 -0.02189201 -0.03156332
v 0.01450101 -0.02166686 -0.02471847
v 0.01466998 -0.02156900 -0.01811593
v 0.01467277 -0.02157323 -0.01163485
v 0.01466292 -0.02157749 -0.00514868
v 0.01465821 -0.02157508 0.00133602
v 0.01471707 -0.02159378 0.00786455
v 0.01482077 -0.02175247 0.01453702
v 0.01372350 -0.02141783 0.02063525
v 0.01675829 -0.01764297 0.02368954
v 0.01195651 -0.01333228 -0.03869808
v 0.01591509 -0.01224889 -0.04122625
v 0.01210127 -0.01241326 -0.03329420
v 0.01221487 -0.01252381 -0.02644162
v 0.01221218 -0.01264401 -0.01981553
v 0.01221098 -0.01264535 -0.01333205
v 0.01221222 -0.01264092 -0.00684541
v 0.01221758 -0.01264165 -0.00036025
v 0.01220278 -0.01264489 0.00613682
v 0.01208287 -0.01259896 0.01278965
v 0.01234882 -0.01251171 0.01927358
v 0.01506628 -0.01309833 0.02384737
v 0.01532794 -0.00953176 -0.03665496
v 0.01541467 -0.00926750 -0.03017217
v 0.01546019 -0.00938751 -0.02351928
v 0.01545695 -0.00940224 -0.01702215
v 0.01545626 -0.00939688 -0.01053699
v 0.01546069 -0.00939564 -0.00405035
v 0.01545935 -0.00939686 0.00243312
v 0.01533910 -0.00939957 0.00905919
v 0.01522856 -0.00928599 0.01591168
v 0.01614802 -0.00914138 0.02131562
v 0.01216856 0.01382868 -0.03637878
v 0.01609243 0.01047989 -0.03859287
v 0.01486028 0.01444917 -0.04106414
v 0.01198542 0.01391289 -0.02975419
v 0.01520590 0.01062197 -0.03313294
v 0.01220318 0.01397868 -0.02303217
v 0.01534340 0.01073481 -0.02625228
v 0.01222283 0.01397776 -0.01653584
v 0.01546362 0.01073159 -0.01962792
v 0.01221231 0.01397438 -0.01005309
v 0.01546078 0.01072916 -0.01314716
v 0.01221098 0.01397654 -0.00356192
v 0.01545610 0.01073023 -0.00666050
v 0.01221254 0.01397789 0.00292348
v 0.01545609 0.01073442 -0.00017165
v 0.01224085 0.01388037 0.00946442
v 0.01545940 0.01071971 0.00632833
v 0.01218942 0.01376961 0.01617092
v 0.01542529 0.01060115 0.01294938
v 0.01216177 0.01466634 0.02147023
v 0.01535906 0.01086555 0.01935888
v 0.01606772 0.01357469 0.02388695
v 0.01654040 0.01902485 -0.04088719
v 0.01507006 0.01982524 0.02371547
v 0.01393148 0.02263277 -0.03857114
v 0.01465470 0.02322608 -0.03314974
v 0.01470642 0.02300202 -0.02625929
v 0.01466207 0.02290459 -0.01963521
v 0.01466292 0.02290668 -0.01315617
v 0.01466407 0.02291095 -0.00666963
v 0.01466396 0.02290703 -0.00018201
v 0.01466094 0.02292121 0.00632050
v 0.01465310 0.02305526 0.01296641
v 0.01466840 0.02277334 0.01939023
v 0.01861861 -0.01849428 -0.03869944
v 0.01862816 -0.01936088 -0.03331586
v 0.01861647 -0.01923930 -0.02648155
v 0.01870607 -0.01912548 -0.01982493
v 0.01871068 -0.01912851 -0.01333995
v 0.01870318 -0.01913394 -0.00685445
v 0.01869687 -0.01913701 -0.00037038
v 0.01871164 -0.01913524 0.00612982
v 0.01883551 -0.01918844 0.01280670
v 0.01850386 -0.01928542 0.01930295
v 0.02209989 -0.01568705 -0.03668473
v 0.02045870 -0.01394087 -0.04106819
v 0.02200372 -0.01602015 -0.03018924
v 0.02195061 -0.01589635 -0.02351227
v 0.02195235 -0.01588153 -0.01701202
v 0.02194928 -0.01588784 -0.01052795
v 0.02194384 -0.01589535 -0.00404245
v 0.02194082 -0.01589073 0.00244253
v 0.02205460 -0.01580111 0.00909913
v 0.02217618 -0.01581283 0.01593334
v 0.02131006 -0.01580357 0.02131697
v 0.02137415 -0.01195174 0.02359314
v 0.01825977 -0.00544866 -0.03800066
v 0.02137492 -0.00677669 -0.04093712
v 0.01787658 -0.00512680 -0.03190696
v 0.01798274 -0.00523468 -0.02524898
v 0.01799638 -0.00526864 -0.01872156
v 0.01799342 -0.00526495 -0.01223579
v 0.01799576 -0.00526254 -0.00574809
v 0.01799802 -0.00526093 0.00073692
v 0.01791042 -0.00528538 0.00732027
v 0.01775984 -0.00529725 0.01417993
v 0.01855022 -0.00505246 0.02039720
v 0.02098113 -0.00595919 0.02342162
v 0.01942788 0.00067002 -0.03782099
v 0.02202063 0.00033241 -0.04054761
v 0.01866190 0.00080758 -0.03172549
v 0.01879545 0.00070225 -0.02499129
v 0.01884692 0.00066349 -0.01843182
v 0.01884358 0.00066531 -0.01194431
v 0.01884359 0.00066818 -0.00545644
v 0.01884685 0.00066996 0.00103151
v 0.01879474 0.00063114 0.00759260
v 0.01865863 0.00052589 0.01432971
v 0.01942124 0.00066362 0.02042826
v 0.02201496 0.00100098 0.02315905
v 0.01855592 0.00638654 -0.03778451
v 0.02096576 0.00729427 -0.04079204
v 0.01776456 0.00663136 -0.03156859
v 0.01791220 0.00661906 -0.02471202
v 0.01799790 0.00659436 -0.01813024
v 0.01799565 0.00659600 -0.01164526
v 0.01799339 0.00659842 -0.00515748
v 0.01799569 0.00660176 0.00133015
v 0.01798094 0.00656728 0.00786127
v 0.01787082 0.00645962 0.01451999
v 0.01825515 0.00678274 0.02061252
v 0.02137170 0.00811138 0.02354887
v 0.02133619 0.01329269 -0.04093838
v 0.02055054 0.01526050 0.02371711
v 0.02127619 0.01715209 -0.03859429
v 0.01840299 0.02068315 -0.03641563
v 0.02216812 0.01715167 -0.03316055
v 0.01880998 0.02055695 -0.02977778
v 0.02205723 0.01713179 -0.02629930
v 0.01871559 0.02046573 -0.02303085
v 0.02194185 0.01722229 -0.01964615
v 0.01869780 0.02046694 -0.01653474
v 0.02194396 0.01722875 -0.01316447
v 0.01870310 0.02046738 -0.01005507
v 0.02194930 0.01722132 -0.00667893
v 0.01870336 0.02046557 -0.00356493
v 0.02194789 0.01721693 -0.00019127
v 0.01870041 0.02046289 0.00292268
v 0.02194476 0.01723295 0.00631123
v 0.01870388 0.02053677 0.00949917
v 0.02202203 0.01734874 0.01295689
v 0.01879667 0.02062966 0.01620391
v 0.02214632 0.01700768 0.01938163
v 0.01881505 0.01977883 0.02148097
v 0.02423501 -0.01090704 -0.03800994
v 0.02456633 -0.01200327 -0.03191754
v 0.02440909 -0.01190173 -0.02524703
v 0.02439044 -0.01184290 -0.01871848
v 0.02439283 -0.01184758 -0.01223373
v 0.02438857 -0.01185743 -0.00574756
v 0.02438434 -0.01185464 0.00073352
v 0.02448220 -0.01168567 0.00733607
v 0.02470733 -0.01151746 0.01418092
v 0.02413881 -0.01231338 0.01971207
v 0.02460636 -0.00481678 -0.03798961
v 0.02529660 -0.00632054 -0.03191879
v 0.02514436 -0.00618047 -0.02517927
v 0.02509189 -0.00606004 -0.01861753
v 0.02509646 -0.00605979 -0.01213058
v 0.02509394 -0.00607077 -0.00564502
v 0.02509189 -0.00606762 0.00083830
v 0.02518650 -0.00587408 0.00742221
v 0.02541128 -0.00561166 0.01425664
v 0.02473662 -0.00710809 0.02036842
v 0.02462935 0.00175985 -0.03793446
v 0.02529270 0.00024587 -0.03181174
v 0.02512191 0.00049537 -0.02500095
v 0.02504144 0.00066876 -0.01842018
v 0.02504430 0.00067238 -0.01193366
v 0.02504435 0.00066105 -0.00544855
v 0.02504154 0.00066466 0.00103792
v 0.02512206 0.00083806 0.00761875
v 0.02529260 0.00108757 0.01442944
v 0.02462680 -0.00042672 0.02054930
v 0.02474254 0.00844047 -0.03776372
v 0.02541227 0.00694489 -0.03164861
v 0.02518633 0.00720758 -0.02481341
v 0.02509183 0.00740109 -0.01822943
v 0.02509398 0.00740420 -0.01174609
v 0.02509657 0.00739319 -0.00526059
v 0.02509170 0.00739354 0.00122679
v 0.02514321 0.00751426 0.00779021
v 0.02529392 0.00765460 0.01453238
v 0.02460164 0.00615077 0.02060478
v 0.02414684 0.01364455 -0.03710202
v 0.02471088 0.01284891 -0.03157155
v 0.02448278 0.01301850 -0.02472778
v 0.02438428 0.01318815 -0.01812677
v 0.02438866 0.01319088 -0.01164574
v 0.02439293 0.01318096 -0.00515952
v 0.02438877 0.01317696 0.00132702
v 0.02440491 0.01323683 0.00785899
v 0.02456060 0.01333845 0.01453007
v 0.02422911 0.01224188 0.02062104
f 3 2 1
f 5 4 1
f 5 1 2
f 7 6 4
f 7 4 5
f 9 8 6
f 9 6 7
f 11 10 8
f 11 8 9
f 13 12 10
f 13 10 11
f 15 14 12
f 15 12 13
f 17 16 14
f 17 14 15
f 19 18 16
f 19 16 17
f 21 20 18
f 21 18 19
f 22 20 21
f 3 1 23
f 3 23 24
f 25 1 4
f 23 1 25
f 26 4 6
f 25 4 26
f 27 6 8
f 26 6 27
f 28 8 10
f 27 8 28
f 29 10 12
f 28 10 29
f 30 12 14
f 29 12 30
f 31 14 16
f 30 14 31
f 32 16 18
f 31 16 32
f 33 18 20
f 32 18 33
f 20 22 34
f 35 20 34
f 33 20 35
f 36 35 34
f 24 23 37
f 24 37 38
f 39 23 25
f 37 23 39
f 40 25 26
f 39 25 40
f 41 26 27
f 40 26 41
f 42 27 28
f 41 27 42
f 43 28 29
f 42 28 43
f 44 29 30
f 43 29 44
f 45 30 31
f 44 30 45
f 46 31 32
f 45 31 46
f 47 32 33
f 46 32 47
f 48 33 35
f 47 33 48
f 35 36 49
f 35 49 48
f 52 51 50
f 53 50 51
f 38 37 54
f 38 54 55
f 56 37 39
f 54 37 56
f 57 39 40
f 56 39 57
f 58 40 41
f 57 40 58
f 59 41 42
f 58 41 59
f 60 42 43
f 59 42 60
f 61 43 44
f 60 43 61
f 62 44 45
f 61 44 62
f 63 45 46
f 62 45 63
f 64 46 47
f 63 46 64
f 65 47 48
f 64 47 65
f 48 49 66
f 67 48 66
f 65 48 67
f 67 66 52
f 50 67 52
f 68 67 50
f 50 53 69
f 70 50 69
f 68 50 70
f 71 70 69
f 55 54 72
f 55 72 73
f 74 54 56
f 72 54 74
f 75 56 57
f 74 56 75
f 76 57 58
f 75 57 76
f 77 58 59
f 76 58 77
f 78 59 60
f 77 59 78
f 79 60 61
f 78 60 79
f 80 61 62
f 79 61 80
f 81 62 63
f 80 62 81
f 82 63 64
f 81 63 82
f 83 64 65
f 82 64 83
f 84 65 67
f 83 65 84
f 85 67 68
f 84 67 85
f 86 68 70
f 85 68 86
f 70 71 87
f 70 87 86
f 88 73 72
f 88 72 74
f 88 74 89
f 89 74 75
f 89 75 90
f 90 75 76
f 90 76 91
f 91 76 77
f 91 77 92
f 92 77 78
f 92 78 93
f 93 78 79
f 93 79 94
f 94 79 80
f 94 80 95
f 95 80 81
f 95 81 96
f 96 81 82
f 96 82 97
f 97 82 83
f 97 83 98
f 98 83 84
f 98 84 99
f 99 84 85
f 99 85 100
f 100 85 86
f 100 86 101
f 101 86 87
f 104 103 102
f 106 105 102
f 106 102 103
f 107 105 106
f 110 109 108
f 112 111 108
f 112 108 109
f 114 113 111
f 114 111 112
f 116 115 113
f 116 113 114
f 118 117 115
f 118 115 116
f 120 119 117
f 120 117 118
f 122 121 119
f 122 119 120
f 124 123 121
f 124 121 122
f 126 125 123
f 126 123 124
f 128 127 125
f 128 125 126
f 130 129 127
f 130 127 128
f 129 130 104
f 102 129 104
f 131 129 102
f 132 102 105
f 131 102 132
f 105 107 133
f 105 133 132
f 110 108 2
f 3 110 2
f 134 110 3
f 2 108 5
f 5 108 111
f 5 111 7
f 7 111 113
f 7 113 9
f 9 113 115
f 9 115 11
f 11 115 117
f 11 117 13
f 13 117 119
f 13 119 15
f 15 119 121
f 15 121 17
f 17 121 123
f 17 123 19
f 19 123 125
f 19 125 21
f 21 125 127
f 21 127 22
f 127 135 22
f 127 129 135
f 136 129 131
f 135 129 136
f 137 131 132
f 136 131 137
f 132 133 138
f 132 138 137
f 24 140 139
f 134 24 139
f 3 24 134
f 142 141 140
f 140 141 139
f 144 143 142
f 142 143 141
f 146 145 144
f 144 145 143
f 148 147 146
f 146 147 145
f 150 149 148
f 148 149 147
f 152 151 150
f 150 151 149
f 154 153 152
f 152 153 151
f 156 155 154
f 154 155 153
f 156 157 155
f 135 34 22
f 34 135 36
f 135 158 36
f 135 136 158
f 159 136 137
f 158 136 159
f 137 138 160
f 161 137 160
f 159 137 161
f 162 161 160
f 38 163 140
f 38 140 24
f 140 164 142
f 140 163 164
f 142 165 144
f 142 164 165
f 144 166 146
f 144 165 166
f 146 167 148
f 146 166 167
f 148 168 150
f 148 167 168
f 150 169 152
f 150 168 169
f 152 170 154
f 152 169 170
f 154 171 156
f 154 170 171
f 157 156 172
f 172 156 171
f 173 49 158
f 158 49 36
f 52 173 51
f 173 159 51
f 173 158 159
f 51 159 53
f 159 174 53
f 159 161 174
f 161 162 175
f 176 161 175
f 174 161 176
f 177 176 175
f 55 178 163
f 55 163 38
f 163 179 164
f 163 178 179
f 164 180 165
f 164 179 180
f 165 181 166
f 165 180 181
f 166 182 167
f 166 181 182
f 167 183 168
f 167 182 183
f 168 184 169
f 168 183 184
f 169 185 170
f 169 184 185
f 170 186 171
f 170 185 186
f 172 171 187
f 171 188 187
f 171 186 188
f 188 189 187
f 173 66 49
f 66 173 52
f 174 69 53
f 69 174 71
f 174 190 71
f 174 176 190
f 176 177 191
f 176 191 190
f 193 192 178
f 55 193 178
f 73 193 55
f 178 192 179
f 179 192 194
f 179 194 180
f 180 194 195
f 180 195 181
f 181 195 196
f 181 196 182
f 182 196 197
f 182 197 183
f 183 197 198
f 183 198 184
f 184 198 199
f 184 199 185
f 185 199 200
f 185 200 186
f 186 200 201
f 186 201 188
f 188 201 202
f 202 203 188
f 203 204 188
f 205 189 188
f 205 188 204
f 207 206 204
f 204 206 205
f 209 208 207
f 207 208 206
f 209 210 208
f 211 87 190
f 190 87 71
f 190 191 212
f 190 212 211
f 73 88 213
f 214 73 213
f 193 73 214
f 89 215 88
f 88 215 213
f 90 216 89
f 89 216 215
f 91 217 90
f 90 217 216
f 92 218 91
f 91 218 217
f 93 219 92
f 92 219 218
f 94 220 93
f 93 220 219
f 95 221 94
f 94 221 220
f 96 222 95
f 95 222 221
f 97 223 96
f 96 223 222
f 203 224 204
f 224 97 204
f 97 98 204
f 97 224 223
f 204 98 99
f 204 99 207
f 207 99 100
f 207 100 209
f 225 210 209
f 100 225 209
f 101 225 100
f 101 87 211
f 226 101 211
f 225 101 226
f 226 211 212
f 227 214 213
f 227 213 215
f 227 215 228
f 228 215 216
f 228 216 229
f 229 216 217
f 229 217 230
f 230 217 218
f 230 218 231
f 231 218 219
f 231 219 232
f 232 219 220
f 232 220 233
f 233 220 221
f 233 221 234
f 234 221 222
f 234 222 235
f 235 222 223
f 235 223 236
f 236 223 224
f 104 237 103
f 238 106 103
f 238 103 237
f 238 107 106
f 240 239 109
f 240 109 110
f 109 241 112
f 239 241 109
f 112 242 114
f 241 242 112
f 114 243 116
f 242 243 114
f 116 244 118
f 243 244 116
f 118 245 120
f 244 245 118
f 120 246 122
f 245 246 120
f 122 247 124
f 246 247 122
f 124 248 126
f 247 248 124
f 126 249 128
f 248 249 126
f 249 251 250
f 130 249 250
f 128 249 130
f 237 104 130
f 250 237 130
f 252 237 250
f 254 238 253
f 238 252 253
f 238 237 252
f 133 107 238
f 255 133 238
f 254 255 238
f 133 255 256
f 258 257 256
f 258 256 255
f 259 257 258
f 134 261 260
f 240 134 260
f 110 134 240
f 263 262 261
f 261 262 260
f 265 264 263
f 263 264 262
f 267 266 265
f 265 266 264
f 269 268 267
f 267 268 266
f 271 270 269
f 269 270 268
f 273 272 271
f 271 272 270
f 275 274 273
f 273 274 272
f 277 276 275
f 275 276 274
f 279 278 277
f 277 278 276
f 278 279 251
f 279 250 251
f 279 280 250
f 250 281 252
f 250 280 281
f 253 252 282
f 282 252 281
f 283 138 256
f 256 138 133
f 284 256 257
f 283 256 284
f 257 259 285
f 257 285 284
f 139 261 134
f 261 139 141
f 261 141 263
f 263 141 143
f 263 143 265
f 265 143 145
f 265 145 267
f 267 145 147
f 267 147 269
f 269 147 149
f 269 149 271
f 271 149 151
f 271 151 273
f 273 151 153
f 273 153 275
f 275 153 155
f 275 155 277
f 277 155 157
f 286 277 157
f 279 277 286
f 279 287 280
f 279 286 287
f 280 288 281
f 280 287 288
f 282 281 289
f 281 290 289
f 281 288 290
f 283 160 138
f 291 289 290
f 160 283 162
f 283 292 162
f 283 284 292
f 284 285 293
f 284 293 292
f 172 294 286
f 172 286 157
f 286 295 287
f 286 294 295
f 287 296 288
f 287 295 296
f 288 297 290
f 288 296 297
f 291 290 298
f 290 299 298
f 290 297 299
f 292 175 162
f 300 298 299
f 177 175 292
f 293 177 292
f 301 177 293
f 187 294 172
f 294 187 189
f 302 294 189
f 295 294 302
f 295 303 296
f 295 302 303
f 296 304 297
f 296 303 304
f 297 305 299
f 297 304 305
f 300 299 306
f 306 299 305
f 301 191 177
f 307 191 301
f 193 308 192
f 309 194 192
f 309 192 308
f 310 195 194
f 310 194 309
f 311 196 195
f 311 195 310
f 312 197 196
f 312 196 311
f 313 198 197
f 313 197 312
f 314 199 198
f 314 198 313
f 315 200 199
f 315 199 314
f 316 201 200
f 316 200 315
f 317 202 201
f 317 201 316
f 205 302 189
f 203 202 317
f 302 205 206
f 302 206 303
f 303 206 208
f 303 208 304
f 304 208 210
f 318 304 210
f 305 304 318
f 306 305 319
f 305 320 319
f 305 318 320
f 307 319 320
f 212 307 320
f 191 307 212
f 322 321 308
f 193 322 308
f 214 322 193
f 308 321 309
f 309 321 323
f 309 323 310
f 310 323 324
f 310 324 311
f 311 324 325
f 311 325 312
f 312 325 326
f 312 326 313
f 313 326 327
f 313 327 314
f 314 327 328
f 314 328 315
f 315 328 329
f 315 329 316
f 316 329 330
f 316 330 317
f 317 330 331
f 203 317 331
f 332 203 331
f 224 203 332
f 225 318 210
f 318 225 226
f 318 226 320
f 320 226 212
f 333 322 214
f 333 214 227
f 334 227 228
f 334 333 227
f 335 228 229
f 335 334 228
f 336 229 230
f 336 335 229
f 337 230 231
f 337 336 230
f 338 231 232
f 338 337 231
f 339 232 233
f 339 338 232
f 340 233 234
f 340 339 233
f 341 234 235
f 341 340 234
f 342 235 236
f 342 341 235
f 236 224 332
f 236 332 342
f 344 343 239
f 344 239 240
f 239 345 241
f 343 345 239
f 241 346 242
f 345 346 241
f 242 347 243
f 346 347 242
f 243 348 244
f 347 348 243
f 244 349 245
f 348 349 244
f 245 350 246
f 349 350 245
f 246 351 247
f 350 351 246
f 247 352 248
f 351 352 247
f 248 353 249
f 352 353 248
f 251 249 353
f 251 353 354
f 253 355 254
f 356 255 254
f 356 254 355
f 357 258 255
f 357 255 356
f 357 259 258
f 358 344 240
f 358 240 260
f 359 260 262
f 359 358 260
f 360 262 264
f 360 359 262
f 361 264 266
f 361 360 264
f 362 266 268
f 362 361 266
f 363 268 270
f 363 362 268
f 364 270 272
f 364 363 270
f 365 272 274
f 365 364 272
f 366 274 276
f 366 365 274
f 367 276 278
f 367 366 276
f 278 251 354
f 278 354 367
f 282 368 355
f 282 355 253
f 355 369 356
f 355 368 369
f 356 370 357
f 356 369 370
f 370 285 259
f 370 259 357
f 289 368 282
f 368 289 291
f 371 368 291
f 369 368 371
f 369 372 370
f 369 371 372
f 372 293 285
f 372 285 370
f 298 371 291
f 371 298 300
f 373 371 300
f 372 371 373
f 373 301 293
f 373 293 372
f 306 374 373
f 306 373 300
f 374 307 301
f 374 301 373
f 319 374 306
f 374 319 307
f 376 375 321
f 376 321 322
f 321 377 323
f 375 377 321
f 323 378 324
f 377 378 323
f 324 379 325
f 378 379 324
f 325 380 326
f 379 380 325
f 326 381 327
f 380 381 326
f 327 382 328
f 381 382 327
f 328 383 329
f 382 383 328
f 329 384 330
f 383 384 329
f 330 385 331
f 384 385 330
f 332 331 385
f 332 385 386
f 387 376 322
f 387 322 333
f 388 333 334
f 388 387 333
f 389 334 335
f 389 388 334
f 390 335 336
f 390 389 335
f 391 336 337
f 391 390 336
f 392 337 338
f 392 391 337
f 393 338 339
f 393 392 338
f 394 339 340
f 394 393 339
f 395 340 341
f 395 394 340
f 396 341 342
f 396 395 341
f 342 332 386
f 342 386 396
f 398 397 343
f 398 343 344
f 343 399 345
f 397 399 343
f 345 400 346
f 399 400 345
f 346 401 347
f 400 401 346
f 347 402 348
f 401 402 347
f 348 403 349
f 402 403 348
f 349 404 350
f 403 404 349
f 350 405 351
f 404 405 350
f 351 406 352
f 405 406 351
f 352 407 353
f 406 407 352
f 354 353 407
f 354 407 408
f 409 398 344
f 409 344 358
f 410 358 359
f 410 409 358
f 411 359 360
f 411 410 359
f 412 360 361
f 412 411 360
f 413 361 362
f 413 412 361
f 414 362 363
f 414 413 362
f 415 363 364
f 415 414 363
f 416 364 365
f 416 415 364
f 417 365 366
f 417 416 365
f 418 366 367
f 418 417 366
f 367 354 408
f 367 408 418
f 420 419 375
f 420 375 376
f 375 421 377
f 419 421 375
f 377 422 378
f 421 422 377
f 378 423 379
f 422 423 378
f 379 424 380
f 423 424 379
f 380 425 381
f 424 425 380
f 381 426 382
f 425 426 381
f 382 427 383
f 426 427 382
f 383 428 384
f 427 428 383
f 384 429 385
f 428 429 384
f 386 385 429
f 386 429 430
f 431 420 376
f 431 376 387
f 432 387 388
f 432 431 387
f 433 388 389
f 433 432 388
f 434 389 390
f 434 433 389
f 435 390 391
f 435 434 390
f 436 391 392
f 436 435 391
f 437 392 393
f 437 436 392
f 438 393 394
f 438 437 393
f 439 394 395
f 439 438 394
f 440 395 396
f 440 439 395
f 396 386 430
f 396 430 440
f 442 441 397
f 442 397 398
f 397 443 399
f 441 443 397
f 399 444 400
f 443 444 399
f 400 445 401
f 444 445 400
f 401 446 402
f 445 446 401
f 402 447 403
f 446 447 402
f 403 448 404
f 447 448 403
f 404 449 405
f 448 449 404
f 405 450 406
f 449 450 405
f 406 451 407
f 450 451 406
f 408 407 451
f 408 451 452
f 398 409 453
f 454 398 453
f 442 398 454
f 410 455 409
f 409 455 453
f 411 456 410
f 410 456 455
f 412 457 411
f 411 457 456
f 413 458 412
f 412 458 457
f 414 459 413
f 413 459 458
f 415 460 414
f 414 460 459
f 416 461 415
f 415 461 460
f 417 462 416
f 416 462 461
f 418 463 417
f 417 463 462
f 464 463 418
f 408 464 418
f 452 464 408
f 465 454 453
f 465 453 455
f 465 455 466
f 466 455 456
f 466 456 467
f 467 456 457
f 467 457 468
f 468 457 458
f 468 458 469
f 469 458 459
f 469 459 470
f 470 459 460
f 470 460 471
f 471 460 461
f 471 461 472
f 472 461 462
f 472 462 473
f 473 462 463
f 473 463 474
f 474 463 464
f 477 476 475
f 479 478 475
f 479 475 476
f 481 480 478
f 481 478 479
f 483 482 480
f 483 480 481
f 485 484 482
f 485 482 483
f 487 486 484
f 487 484 485
f 489 488 486
f 489 486 487
f 491 490 488
f 491 488 489
f 493 492 490
f 493 490 491
f 495 494 492
f 495 492 493
f 496 494 495
f 477 475 419
f 420 477 419
f 497 477 420
f 419 475 421
f 421 475 478
f 421 478 422
f 422 478 480
f 422 480 423
f 423 480 482
f 423 482 424
f 424 482 484
f 424 484 425
f 425 484 486
f 425 486 426
f 426 486 488
f 426 488 427
f 427 488 490
f 427 490 428
f 428 490 492
f 428 492 429
f 429 492 494
f 430 429 494
f 496 430 494
f 498 430 496
f 499 497 420
f 499 420 431
f 500 431 432
f 500 499 431
f 501 432 433
f 501 500 432
f 502 433 434
f 502 501 433
f 503 434 435
f 503 502 434
f 504 435 436
f 504 503 435
f 505 436 437
f 505 504 436
f 506 437 438
f 506 505 437
f 507 438 439
f 507 506 438
f 508 439 440
f 508 507 439
f 440 430 498
f 440 498 508
f 442 509 441
f 510 443 441
f 510 441 509
f 511 444 443
f 511 443 510
f 512 445 444
f 512 444 511
f 513 446 445
f 513 445 512
f 514 447 446
f 514 446 513
f 515 448 447
f 515 447 514
f 516 449 448
f 516 448 515
f 517 450 449
f 517 449 516
f 518 451 450
f 518 450 517
f 518 452 451
f 520 519 509
f 442 520 509
f 454 520 442
f 509 519 510
f 510 519 521
f 510 521 511
f 511 521 522
f 511 522 512
f 512 522 523
f 512 523 513
f 513 523 524
f 513 524 514
f 514 524 525
f 514 525 515
f 515 525 526
f 515 526 516
f 516 526 527
f 516 527 517
f 517 527 528
f 517 528 518
f 518 528 529
f 452 518 529
f 530 452 529
f 464 452 530
f 454 465 531
f 532 454 531
f 520 454 532
f 466 533 465
f 465 533 531
f 467 534 466
f 466 534 533
f 468 535 467
f 467 535 534
f 469 536 468
f 468 536 535
f 470 537 469
f 469 537 536
f 471 538 470
f 470 538 537
f 472 539 471
f 471 539 538
f 473 540 472
f 472 540 539
f 474 541 473
f 473 541 540
f 542 541 474
f 464 542 474
f 530 542 464
f 532 531 543
f 532 543 544
f 545 531 533
f 543 531 545
f 546 533 534
f 545 533 546
f 547 534 535
f 546 534 547
f 548 535 536
f 547 535 548
f 549 536 537
f 548 536 549
f 550 537 538
f 549 537 550
f 551 538 539
f 550 538 551
f 552 539 540
f 551 539 552
f 553 540 541
f 552 540 553
f 541 542 554
f 541 554 553
f 544 543 555
f 544 555 556
f 557 543 545
f 555 543 557
f 558 545 546
f 557 545 558
f 559 546 547
f 558 546 559
f 560 547 548
f 559 547 560
f 561 548 549
f 560 548 561
f 562 549 550
f 561 549 562
f 563 550 551
f 562 550 563
f 564 551 552
f 563 551 564
f 565 552 553
f 564 552 565
f 553 554 566
f 553 566 565
f 556 555 476
f 477 556 476
f 567 556 477
f 476 555 479
f 479 555 557
f 479 557 481
f 481 557 558
f 481 558 483
f 483 558 559
f 483 559 485
f 485 559 560
f 485 560 487
f 487 560 561
f 487 561 489
f 489 561 562
f 489 562 491
f 491 562 563
f 491 563 493
f 493 563 564
f 493 564 495
f 495 564 565
f 496 495 565
f 566 496 565
f 568 496 566
f 497 570 569
f 567 497 569
f 477 497 567
f 572 571 570
f 570 571 569
f 574 573 572
f 572 573 571
f 576 575 574
f 574 575 573
f 578 577 576
f 576 577 575
f 580 579 578
f 578 579 577
f 582 581 580
f 580 581 579
f 584 583 582
f 582 583 581
f 586 585 584
f 584 585 583
f 588 587 586
f 586 587 585
f 568 587 588
f 498 568 588
f 496 568 498
f 499 570 497
f 570 499 500
f 570 500 572
f 572 500 501
f 572 501 574
f 574 501 502
f 574 502 576
f 576 502 503
f 576 503 578
f 578 503 504
f 578 504 580
f 580 504 505
f 580 505 582
f 582 505 506
f 582 506 584
f 584 506 507
f 584 507 586
f 586 507 508
f 586 508 588
f 588 508 498
f 520 589 519
f 590 521 519
f 590 519 589
f 591 522 521
f 591 521 590
f 592 523 522
f 592 522 591
f 593 524 523
f 593 523 592
f 594 525 524
f 594 524 593
f 595 526 525
f 595 525 594
f 596 527 526
f 596 526 595
f 597 528 527
f 597 527 596
f 598 529 528
f 598 528 597
f 598 530 529
f 532 599 589
f 532 589 520
f 589 600 590
f 589 599 600
f 590 601 591
f 590 600 601
f 591 602 592
f 591 601 602
f 592 603 593
f 592 602 603
f 593 604 594
f 593 603 604
f 594 605 595
f 594 604 605
f 595 606 596
f 595 605 606
f 596 607 597
f 596 606 607
f 597 608 598
f 597 607 608
f 608 542 530
f 608 530 598
f 544 609 599
f 544 599 532
f 599 610 600
f 599 609 610
f 600 611 601
f 600 610 611
f 601 612 602
f 601 611 612
f 602 613 603
f 602 612 613
f 603 614 604
f 603 613 614
f 604 615 605
f 604 614 615
f 605 616 606
f 605 615 616
f 606 617 607
f 606 616 617
f 607 618 608
f 607 617 618
f 618 554 542
f 618 542 608
f 556 619 609
f 556 609 544
f 609 620 610
f 609 619 620
f 610 621 611
f 610 620 621
f 611 622 612
f 611 621 622
f 612 623 613
f 612 622 623
f 613 624 614
f 613 623 624
f 614 625 615
f 614 624 625
f 615 626 616
f 615 625 626
f 616 627 617
f 616 626 627
f 617 628 618
f 617 627 628
f 628 566 554
f 628 554 618
f 567 629 619
f 567 619 556
f 619 630 620
f 619 629 630
f 620 631 621
f 620 630 631
f 621 632 622
f 621 631 632
f 622 633 623
f 622 632 633
f 623 634 624
f 623 633 634
f 624 635 625
f 624 634 635
f 625 636 626
f 625 635 636
f 626 637 627
f 626 636 637
f 627 638 628
f 627 637 638
f 638 568 566
f 638 566 628
f 569 629 567
f 629 569 571
f 629 571 630
f 630 571 573
f 630 573 631
f 631 573 575
f 631 575 632
f 632 575 577
f 632 577 633
f 633 577 579
f 633 579 634
f 634 579 581
f 634 581 635
f 635 581 583
f 635 583 636
f 636 583 585
f 636 585 637
f 637 585 587
f 637 587 638
f 638 587 568

