# https://github.com/mikedh/trimesh
v -0.02831457 0.00487275 0.02180593
v -0.02446815 0.00209108 0.01975617
v -0.02608033 0.00545341 0.01834678
v -0.02916424 0.00539219 0.02755502
v -0.02567558 0.00187357 0.02607632
v -0.02909197 0.00545304 0.03374143
v -0.02561248 0.00192832 0.03229212
v -0.02900518 0.00533730 0.04002675
v -0.02541918 0.00186599 0.03855643
v -0.02908630 0.00539201 0.04649671
v -0.02546529 0.00180742 0.04502245
v -0.02837847 0.00597192 0.05162153
v -0.02633249 0.00249471 0.05022023
v -0.02479915 0.00453299 0.05363323
v -0.02706157 0.00837642 0.02092766
v -0.02553029 0.01182557 0.02289075
v -0.02872254 0.00971175 0.02510908
v -0.02912349 0.01062988 0.03093863
v -0.02908994 0.01067728 0.03714232
v -0.02912027 0.01067251 0.04346545
v -0.02869272 0.01068664 0.04968155
v -0.02550521 0.00949588 0.05388926
v -0.02508312 0.01374351 0.02746453
v -0.02561034 0.01412946 0.03418297
v -0.02558149 0.01420739 0.04042266
v -0.02557799 0.01428585 0.04675307
v -0.02493526 0.01359914 0.05178464
v -0.02263317 -0.01359450 -0.05208210
v -0.01889323 -0.01577679 -0.05267390
v -0.02079434 -0.01219138 -0.05538613
v -0.02225960 -0.01215708 -0.04844364
v -0.01992772 -0.01575543 -0.04727622
v -0.01957927 -0.01427611 -0.04409435
v -0.02233368 -0.00895773 -0.05318541
v -0.01861621 -0.00671047 -0.05576475
v -0.02089478 -0.00803957 -0.04987257
v -0.01992676 -0.01096819 -0.04603622
v -0.01998652 -0.00520206 -0.05268889
v -0.02274401 -0.00063373 -0.02692619
v -0.01847150 -0.00358595 -0.02907959
v -0.02054814 0.00063173 -0.03135864
v -0.02305227 -0.00069532 -0.02123808
v -0.01964371 -0.00408882 -0.02259240
v -0.02278826 -0.00078380 -0.01508492
v -0.01943222 -0.00420811 -0.01647671
v -0.02268747 -0.00096814 -0.00885294
v -0.01928549 -0.00430203 -0.01029168
v -0.02274451 -0.00100975 -0.00255830
v -0.02012708 -0.00420826 -0.00495530
v -0.02227740 -0.00022606 0.00322351
v -0.01972997 -0.00352204 0.00036441
v -0.01915020 -0.00129826 0.00395373
v -0.02246290 0.00381142 -0.02876106
v -0.01956968 0.00528161 -0.03171304
v -0.02300364 0.00441965 -0.02414633
v -0.02289950 0.00446260 -0.01798434
v -0.02276976 0.00427270 -0.01174379
v -0.02290016 0.00482928 -0.00461969
v -0.02358158 0.00478958 0.00213368
v -0.01941372 0.00110829 0.00717871
v -0.02278772 0.00474442 0.00884819
v -0.02368013 0.00535022 0.01522392
v -0.02012483 0.00245632 0.01414309
v -0.01994683 0.00205810 0.02112423
v -0.02052052 0.00182765 0.02632107
v -0.02038717 0.00188520 0.03242375
v -0.02018908 0.00194587 0.03867085
v -0.02009030 0.00186249 0.04509324
v -0.02136489 0.00228916 0.05087505
v -0.02014507 0.00668027 0.05399351
v -0.01910569 0.00757571 -0.02779831
v -0.01959447 0.00790362 -0.02107414
v -0.02024351 0.00760308 -0.01533560
v -0.01966930 0.00833050 -0.00944078
v -0.02079721 0.00910500 -0.00349102
v -0.01947797 0.01173385 -0.00139555
v -0.02240001 0.00977229 0.00104059
v -0.02289547 0.01131427 0.00763022
v -0.02338790 0.01034151 0.01344294
v -0.02361890 0.01126022 0.01840106
v -0.02091181 0.01167096 0.05375257
v -0.01909297 0.01342520 0.00294153
v -0.02052670 0.01499961 0.00856453
v -0.01854947 0.01773700 0.01152020
v -0.02218019 0.01583267 0.01366200
v -0.02064497 0.01698818 0.01774149
v -0.02026207 0.01464744 0.02240902
v -0.02044571 0.01413842 0.02667224
v -0.02051522 0.01401284 0.03136740
v -0.02035154 0.01413376 0.03762031
v -0.02027804 0.01426918 0.04385099
v -0.02025039 0.01388794 0.04991224
v -0.01875189 0.01962195 0.01579524
v -0.01303867 -0.01739499 -0.05262475
v -0.01478208 -0.01358723 -0.05609070
v -0.01421365 -0.01689430 -0.04696935
v -0.01714396 -0.01286948 -0.04100825
v -0.01444494 -0.01637940 -0.04079970
v -0.01570306 -0.01235824 -0.03625732
v -0.01332699 -0.01594868 -0.03477410
v -0.01329564 -0.01436438 -0.03196789
v -0.01300321 -0.00798012 -0.05669925
v -0.01796529 -0.00608397 -0.04677546
v -0.01640500 -0.00714007 -0.03953521
v -0.01438647 -0.00829390 -0.03696479
v -0.01367824 -0.01107399 -0.03415913
v -0.01731926 -0.00133485 -0.05208118
v -0.01376106 -0.00253093 -0.05580558
v -0.01715752 0.00008592 -0.04609552
v -0.01700602 -0.00102930 -0.04084832
v -0.01382136 -0.00431638 -0.03410809
v -0.01747267 -0.00200109 -0.03522337
v -0.01384371 -0.00391010 -0.02836401
v -0.01333249 -0.00457254 -0.02339734
v -0.01441770 -0.00411286 -0.01615906
v -0.01424340 -0.00424023 -0.01002783
v -0.01543359 -0.00401845 -0.00361010
v -0.01627397 -0.00214126 0.00150394
v -0.01302396 -0.00059110 -0.00019736
v -0.01381493 0.00265034 -0.05368206
v -0.01343739 0.00590987 -0.05050024
v -0.01621024 0.00396228 -0.04802576
v -0.01633318 0.00459221 -0.04218000
v -0.01718368 0.00397468 -0.03594407
v -0.01464469 0.00136013 0.00405839
v -0.01535096 0.00279984 0.00916915
v -0.01608379 0.00424375 0.01375276
v -0.01290475 0.00540871 0.01067475
v -0.01688565 0.00520465 0.01982412
v -0.01724881 0.00530534 0.02665347
v -0.01690975 0.00534390 0.03281361
v -0.01671640 0.00548542 0.03898392
v -0.01657231 0.00541346 0.04533554
v -0.01725130 0.00461259 0.05044901
v -0.01276664 0.00753436 -0.04588745
v -0.01406680 0.00760278 -0.03989992
v -0.01442379 0.00846540 -0.03401421
v -0.01328696 0.00812297 -0.02770389
v -0.01525600 0.00823070 -0.02334499
v -0.01486617 0.00829879 -0.01584868
v -0.01627536 0.01105537 -0.01063259
v -0.01260324 0.01089594 -0.01291316
v -0.01764032 0.01140363 -0.00590404
v -0.01253523 0.00693321 0.01529131
v -0.01376413 0.00825794 0.02117182
v -0.01664926 0.01116868 0.02584626
v -0.01223802 0.01098559 0.02362349
v -0.01699883 0.01056066 0.03288882
v -0.01676988 0.01067899 0.03908191
v -0.01666682 0.01073318 0.04536826
v -0.01704644 0.00956391 0.05109837
v -0.01298386 0.01353574 -0.00955546
v -0.01438840 0.01370082 -0.00276219
v -0.01315337 0.01416790 0.00265194
v -0.01562458 0.01507490 0.00719017
v -0.01253391 0.01761594 0.01093444
v -0.01738828 0.01836551 0.01970353
v -0.01350571 0.01569608 0.02335469
v -0.01386396 0.02032356 0.01499690
v -0.01330034 0.01999123 0.01992584
v -0.00953977 -0.01980453 -0.05235019
v -0.00759387 -0.02123646 -0.05325780
v -0.00820189 -0.01832752 -0.05521451
v -0.00671503 -0.01987700 -0.05141564
v -0.00830253 -0.01275029 -0.05666022
v -0.00743637 -0.01749853 -0.04765015
v -0.00767368 -0.01683743 -0.04046796
v -0.00763560 -0.01696814 -0.03417178
v -0.01095818 -0.01286504 -0.02890451
v -0.00810806 -0.01643509 -0.02841378
v -0.00942299 -0.01244203 -0.02377517
v -0.00709597 -0.01592097 -0.02243517
v -0.00700308 -0.01448930 -0.01942721
v -0.00742870 -0.00717864 -0.05663557
v -0.01100211 -0.00706706 -0.03343752
v -0.01037595 -0.00780265 -0.02758043
v -0.00883270 -0.00724273 -0.02469105
v -0.00739277 -0.01126364 -0.02146188
v -0.00788529 -0.00121890 -0.05627287
v -0.01048704 -0.00100908 -0.02827036
v -0.00840888 -0.00211487 -0.03162652
v -0.00793761 -0.00451127 -0.02821923
v -0.01091162 -0.00395462 -0.02638894
v -0.01013048 -0.00140281 -0.02292520
v -0.01113357 -0.00056606 -0.01582469
v -0.01108157 -0.00070064 -0.00967768
v -0.01139749 -0.00073743 -0.00407640
v -0.01008030 0.00427793 -0.05838597
v -0.00595262 0.00227497 -0.05898628
v -0.00644116 0.00567594 -0.06142238
v -0.01127446 0.00591521 -0.05462299
v -0.00780116 0.00168486 -0.02817461
v -0.01081881 0.00478242 -0.02333456
v -0.00698463 0.00535316 -0.02578322
v -0.01088138 0.00390783 -0.01677645
v -0.01091818 0.00522343 -0.01125158
v -0.00978262 0.00443552 -0.00506159
v -0.01043975 0.00424482 0.00076606
v -0.01103060 0.00520443 0.00637622
v -0.00700658 0.00740598 -0.05792341
v -0.00792917 0.00789716 -0.05155307
v -0.00664484 0.00841499 -0.04604704
v -0.00930780 0.00911136 -0.04061470
v -0.01015028 0.01113418 -0.03543308
v -0.00582523 0.01158089 -0.03764104
v -0.01066690 0.01065251 -0.02914770
v -0.00781108 0.00879299 -0.02168643
v -0.01011937 0.01184228 -0.02365762
v -0.01009959 0.01111044 -0.01737758
v -0.00758161 0.00883116 -0.01621269
v -0.00738803 0.00800387 -0.01039218
v -0.00673668 0.00793372 -0.00236739
v -0.00662031 0.00785783 0.00352850
v -0.00775783 0.00763407 0.00969853
v -0.00753562 0.00797472 0.01442103
v -0.00835485 0.00884829 0.01952364
v -0.00787162 0.01296478 0.02311011
v -0.00716422 0.01366565 -0.03315975
v -0.00734304 0.01399718 -0.02736425
v -0.00744573 0.01385439 -0.02121727
v -0.00844569 0.01387367 -0.01501175
v -0.00713966 0.01443355 -0.00972019
v -0.00791104 0.01431661 -0.00442732
v -0.00775009 0.01416919 0.00176994
v -0.00829911 0.01485634 0.00785289
v -0.00704057 0.01712172 0.01195128
v -0.00844790 0.01769304 0.02280918
v -0.00881698 0.01959745 0.01419153
v -0.00804099 0.01989745 0.01890043
v -0.00470914 -0.01946813 -0.05370106
v -0.00204384 -0.01666391 -0.05136276
v -0.00281134 -0.01407938 -0.05558262
v -0.00129268 -0.01592735 -0.04595684
v -0.00209043 -0.01602477 -0.04050107
v -0.00206310 -0.01604457 -0.03423117
v -0.00216172 -0.01609835 -0.02813937
v -0.00118197 -0.01625351 -0.02172417
v -0.00490353 -0.01291533 -0.01643045
v -0.00269149 -0.01635092 -0.01694376
v -0.00378473 -0.01207647 -0.01163860
v -0.00092333 -0.01662687 -0.01192816
v -0.00180469 -0.01437772 -0.00841821
v -0.00171833 -0.00762370 -0.05545090
v -0.00547836 -0.00638766 -0.02237611
v -0.00456514 -0.00708734 -0.01487280
v -0.00146157 -0.00757555 -0.01249773
v -0.00028149 -0.01038808 -0.00942601
v -0.00145516 -0.00424830 -0.05241127
v -0.00453413 -0.00124180 -0.05274445
v -0.00165678 -0.00298888 -0.04793652
v -0.00312616 -0.00086212 -0.04781802
v 0.00047228 -0.00056380 -0.04467724
v -0.00531042 -0.00084692 -0.02725706
v -0.00403939 -0.00180796 -0.02284973
v -0.00427826 -0.00123562 -0.01704381
v -0.00143744 -0.00471402 -0.01003097
v -0.00447685 -0.00188460 -0.01018410
v -0.00358335 0.00025648 -0.00546603
v -0.00143528 -0.00337577 -0.00437707
v -0.00109139 -0.00194258 -0.00138390
v -0.00106447 0.00323537 -0.05850465
v -0.00251769 0.00469976 -0.06149308
v -0.00213882 0.00178768 -0.05247241
v -0.00158771 0.00125826 -0.04698393
v -0.00113622 0.00192814 -0.02296768
v -0.00075190 0.00604808 -0.02548906
v -0.00171459 0.00245335 -0.01570577
v -0.00122284 0.00515279 -0.01325161
v -0.00406331 0.00389832 -0.01011094
v -0.00202543 0.00440278 -0.00590995
v -0.00120999 0.00138944 -0.00324687
v -0.00245891 0.00708390 -0.06000233
v -0.00163813 0.00769840 -0.05486877
v -0.00169349 0.00760264 -0.04841779
v -0.00241250 0.00835059 -0.04209606
v -0.00125750 0.01064823 -0.03794983
v -0.00146951 0.00730000 -0.02188400
v -0.00221358 0.00747906 -0.01613049
v -0.00290106 0.00753517 -0.00513622
v -0.00182334 0.00793187 0.00051557
v -0.00184110 0.00756597 0.00669372
v -0.00260615 0.00795467 0.01414254
v -0.00404140 0.01185131 0.01936953
v -0.00121172 0.01107454 0.01675580
v -0.00278449 0.01348312 -0.03495923
v -0.00150484 0.01415861 -0.02945769
v -0.00142339 0.01474740 -0.02258023
v -0.00152523 0.01460996 -0.01642600
v -0.00159035 0.01451741 -0.01031310
v -0.00155158 0.01437522 -0.00413001
v -0.00148393 0.01423018 0.00206266
v -0.00135662 0.01422186 0.00819130
v -0.00132842 0.01430235 0.01427441
v -0.00440064 0.01661995 0.01631763
v -0.00520869 0.01627796 0.02105684
v 0.00135270 -0.01912140 -0.00841095
v 0.00600820 -0.02190241 -0.00916374
v 0.00374618 -0.01969784 -0.01209643
v 0.00170561 -0.01985087 -0.00329731
v 0.00496783 -0.02263817 -0.00427575
v 0.00239540 -0.01817472 0.00067352
v 0.00481237 -0.02212286 0.00168330
v 0.00494385 -0.02035619 0.00488493
v 0.00094510 -0.01232168 -0.05346013
v 0.00212788 -0.01275372 -0.04876685
v 0.00186235 -0.01374245 -0.04229078
v 0.00170349 -0.01371094 -0.03593903
v 0.00159544 -0.01361322 -0.02977774
v 0.00199764 -0.01360146 -0.02409387
v 0.00389632 -0.01408504 -0.01967675
v 0.00345445 -0.01691577 -0.01559921
v 0.00083390 -0.01451931 -0.00468430
v 0.00369088 -0.01387633 -0.00054979
v 0.00456304 -0.01684398 0.00311649
v 0.00217157 -0.00812739 -0.05198807
v 0.00478166 -0.00833938 -0.04903372
v 0.00518110 -0.01023329 -0.04547732
v 0.00492453 -0.01063542 -0.03947613
v 0.00469735 -0.01047280 -0.03319357
v 0.00563021 -0.01049806 -0.02703448
v 0.00624772 -0.01161750 -0.02139771
v 0.00437102 -0.00705961 -0.01221346
v 0.00581604 -0.00995260 -0.01040204
v 0.00491471 -0.01066372 -0.00387752
v 0.00312533 -0.00458763 -0.04782984
v 0.00512659 -0.00199529 -0.04372217
v 0.00435610 -0.00489770 -0.00995422
v 0.00434998 -0.00449297 -0.00421548
v 0.00175410 0.00043502 0.00212490
v 0.00392664 -0.00383547 0.00155434
v 0.00578473 -0.00098120 0.00487890
v 0.00052177 0.00559949 -0.05856042
v 0.00080154 0.00513730 -0.05326604
v 0.00076097 0.00424111 -0.04585990
v 0.00400991 0.00161853 -0.04128063
v 0.00189810 0.00615699 -0.03926393
v 0.00500535 0.00205151 -0.03613428
v 0.00247515 0.00589914 -0.03338777
v 0.00478460 0.00209353 -0.02852471
v 0.00107204 0.00500407 -0.02833266
v 0.00575106 0.00213416 -0.02130520
v 0.00419788 0.00265461 -0.01592623
v 0.00451037 0.00502581 -0.01329380
v 0.00033284 0.00490380 -0.00242706
v 0.00111777 0.00514996 0.00278024
v 0.00430824 0.00188135 0.00718283
v 0.00163650 0.00409587 0.00896750
v 0.00138171 0.00554302 0.01616202
v 0.00491121 0.00246455 0.01303202
v 0.00211401 0.00602706 0.02184008
v 0.00476779 0.00272633 0.01881284
v 0.00503288 0.00497106 0.02239995
v 0.00067113 0.01080631 -0.03457769
v 0.00213222 0.00997180 -0.02833710
v 0.00421370 0.00907230 -0.02261584
v 0.00534173 0.01135482 -0.02457025
v 0.00422902 0.00763736 -0.01666017
v 0.00095995 0.01024835 0.01947900
v 0.00547240 0.00730573 0.02647994
v 0.00219222 0.01036880 0.02626637
v 0.00249587 0.01140935 0.03181919
v 0.00469056 0.00875689 0.03279152
v 0.00473378 0.01033458 0.03587198
v 0.00376323 0.01350845 -0.02366098
v 0.00444221 0.01384625 -0.01775514
v 0.00504252 0.01388533 -0.01078161
v 0.00499140 0.01448766 -0.00389907
v 0.00501408 0.01439590 0.00242788
v 0.00504325 0.01436822 0.00847404
v 0.00495934 0.01441039 0.01438955
v 0.00377909 0.01358969 0.02048795
v 0.00483658 0.01440085 0.02724061
v 0.00434159 0.01319312 0.03346355
v 0.00764136 -0.01811604 -0.01140392
v 0.01018022 -0.02013116 -0.00755380
v 0.01009447 -0.02222097 -0.00406684
v 0.01097170 -0.02274862 0.00218968
v 0.00718072 -0.01877710 0.00806214
v 0.01013027 -0.02271543 0.00800513
v 0.00859247 -0.01819653 0.01298774
v 0.01107736 -0.02211050 0.01412476
v 0.01109966 -0.02044816 0.01717987
v 0.00736912 -0.01293516 -0.01534816
v 0.00836508 -0.01326481 -0.01002050
v 0.01111090 -0.01525484 -0.00700944
v 0.00661214 -0.01331591 0.00250809
v 0.00845726 -0.01365838 0.00783351
v 0.00988935 -0.01387617 0.01172267
v 0.01057557 -0.01692305 0.01532161
v 0.00685537 -0.00590852 -0.04567501
v 0.00749560 -0.00662946 -0.04101220
v 0.00724236 -0.00652067 -0.03480379
v 0.00790524 -0.00651686 -0.02939511
v 0.01022070 -0.00735574 -0.02571342
v 0.01045294 -0.00944563 -0.02221748
v 0.01032001 -0.01010962 -0.01777003
v 0.01015203 -0.00753904 -0.01344576
v 0.00944638 -0.01091776 -0.00532190
v 0.01083763 -0.01062356 0.00197271
v 0.01212781 -0.01059540 0.00923802
v 0.00717940 -0.00187926 -0.04051798
v 0.00738739 -0.00181572 -0.03475818
v 0.00838289 -0.00165019 -0.02892232
v 0.01128807 -0.00278456 -0.02519369
v 0.01030124 -0.00405808 -0.00970712
v 0.01146983 -0.00370346 -0.00399637
v 0.01083906 -0.00478422 0.00200498
v 0.00830875 -0.00165045 0.00874176
v 0.01020853 -0.00433292 0.00796639
v 0.00806835 0.00002689 0.01415433
v 0.01107342 -0.00386722 0.01397754
v 0.01117084 -0.00174699 0.01730474
v 0.00979382 0.00115244 -0.02329876
v 0.01063733 0.00142985 -0.01739188
v 0.01036244 0.00196708 -0.01132375
v 0.00807060 0.00600977 -0.01032629
v 0.01175846 0.00202324 -0.00448249
v 0.00904589 0.00597833 -0.00457980
v 0.01039873 0.00175338 0.00292697
v 0.00777388 0.00419547 0.00220053
v 0.01052268 0.00129161 0.00882087
v 0.00780914 0.00486719 0.00782185
v 0.01152337 0.00482418 0.01084391
v 0.01079519 0.00407148 0.01774106
v 0.00734873 0.00454488 0.02045267
v 0.00670050 0.01183716 -0.02117325
v 0.00701042 0.01067262 -0.01563736
v 0.00841750 0.01057185 -0.00919934
v 0.01070414 0.01043863 -0.00622462
v 0.01106414 0.00854340 -0.00273426
v 0.01092522 0.00820107 0.00324494
v 0.01088293 0.00773307 0.00758776
v 0.00987432 0.00748118 0.02091884
v 0.01097550 0.00856099 0.02544575
v 0.01038771 0.00823733 0.03190347
v 0.00748871 0.01274739 0.03946325
v 0.01040793 0.00814330 0.03727651
v 0.01117454 0.01158513 0.04214027
v 0.00985482 0.01339969 -0.00519559
v 0.01072686 0.01380359 0.00071899
v 0.01070434 0.01377771 0.00688808
v 0.01064449 0.01380690 0.01285756
v 0.00976762 0.01457395 0.01993258
v 0.00862335 0.01735616 0.02584477
v 0.01162871 0.01689838 0.02339143
v 0.00732908 0.01694416 0.03212767
v 0.00804828 0.01828316 0.03913482
v 0.01026634 0.01437461 0.04503328
v 0.00848296 0.01775779 0.04505899
v 0.01118659 0.01875001 0.04718761
v 0.01049084 0.01913013 0.02742983
v 0.01073937 0.01932147 0.03242147
v 0.01075296 0.02058023 0.03852179
v 0.01121351 0.02345353 0.04277505
v 0.00887720 0.02261226 0.04405943
v 0.01018813 0.02274433 0.04710271
v 0.01063570 0.02523663 0.04563038
v 0.01313308 -0.01785286 -0.00351464
v 0.01421945 -0.01911346 0.00114506
v 0.01644241 -0.01996779 0.00491968
v 0.01644517 -0.02207804 0.00836890
v 0.01737756 -0.02262959 0.01448403
v 0.01329186 -0.01876399 0.02044071
v 0.01639886 -0.02262333 0.02028125
v 0.01466634 -0.01800642 0.02557902
v 0.01715466 -0.02193936 0.02648665
v 0.01708349 -0.02014153 0.02951814
v 0.01290001 -0.01294451 -0.00283439
v 0.01466762 -0.01367395 0.00157250
v 0.01746740 -0.01503758 0.00531154
v 0.01275921 -0.01326574 0.01484371
v 0.01454585 -0.01357531 0.02043038
v 0.01604760 -0.01369178 0.02351258
v 0.01837048 -0.01639478 0.02676929
v 0.01350560 -0.00547002 -0.02170795
v 0.01347100 -0.00666965 -0.01671793
v 0.01583687 -0.01063177 0.00702120
v 0.01645953 -0.01071900 0.01377456
v 0.01730125 -0.01137445 0.01943894
v 0.01331829 -0.00090789 -0.02095026
v 0.01400043 -0.00180191 -0.01602983
v 0.01325290 -0.00206771 -0.01028592
v 0.01409197 -0.00105964 -0.00439142
v 0.01683657 -0.00167692 -0.00063833
v 0.01686053 -0.00347607 0.00234672
v 0.01649480 -0.00404506 0.00815282
v 0.01730165 -0.00430953 0.01455526
v 0.01337244 -0.00033923 0.02139492
v 0.01646467 -0.00443060 0.01997223
v 0.01400378 -0.00092392 0.02781614
v 0.01744453 -0.00433842 0.02650727
v 0.01464976 -0.00046803 0.03264845
v 0.01736524 -0.00402741 0.03234633
v 0.01743649 -0.00189462 0.03584403
v 0.01602364 0.00083241 0.00106777
v 0.01604284 0.00191613 0.00701867
v 0.01739218 0.00437059 0.01124140
v 0.01402684 0.00523101 0.01967120
v 0.01409229 0.00436289 0.02487568
v 0.01393613 0.00483510 0.03212114
v 0.01576388 0.00413423 0.03609111
v 0.01271212 0.01182613 -0.00308940
v 0.01304197 0.01144887 0.00186381
v 0.01322828 0.01067955 0.00886689
v 0.01622008 0.00778063 0.01490464
v 0.01333342 0.01074747 0.01560381
v 0.01763023 0.00795775 0.02164856
v 0.01311995 0.01219632 0.02147209
v 0.01752566 0.00783199 0.02793265
v 0.01358388 0.01170711 0.02762216
v 0.01732086 0.00776289 0.03436470
v 0.01380428 0.01171827 0.03378666
v 0.01342436 0.00819446 0.03518194
v 0.01395762 0.01069357 0.03832356
v 0.01321046 0.01685933 0.02637387
v 0.01348330 0.01678638 0.03237843
v 0.01348275 0.01796313 0.03934272
v 0.01296285 0.01617617 0.04419150
v 0.01248674 0.02232635 0.04529868
v 0.01948057 -0.01769233 0.00873791
v 0.02041883 -0.01866412 0.01434922
v 0.02261404 -0.02020144 0.01743959
v 0.02269355 -0.02187249 0.02056078
v 0.02361019 -0.02232622 0.02680411
v 0.01967787 -0.01953047 0.03323610
v 0.02164528 -0.02227191 0.03171875
v 0.02062478 -0.01933167 0.03916786
v 0.02408023 -0.02297137 0.03819411
v 0.02094044 -0.01885471 0.04438031
v 0.02237466 -0.02132959 0.04424615
v 0.02383642 -0.01975729 0.04727625
v 0.01916322 -0.01279298 0.00941118
v 0.01969169 -0.01354315 0.01428845
v 0.02219603 -0.01696532 0.02057204
v 0.01924515 -0.01398989 0.02018036
v 0.02396685 -0.01677078 0.02635658
v 0.02272709 -0.01656775 0.03336853
v 0.02331177 -0.01663954 0.04068520
v 0.02401976 -0.01728896 0.04584471
v 0.01903508 -0.00084050 0.00333327
v 0.01938653 -0.00027095 0.00846557
v 0.02049202 -0.00068429 0.01350520
v 0.02269335 -0.00156271 0.01720426
v 0.02272845 -0.00380094 0.02061223
v 0.02267736 -0.00427969 0.02647606
v 0.02246553 -0.00431110 0.03279865
v 0.02006687 0.00020528 0.03994482
v 0.02158264 -0.00355702 0.03757144
v 0.02435286 -0.00057142 0.04142548
v 0.02053429 0.00456357 0.01418932
v 0.02368082 0.00331545 0.01758249
v 0.01925874 0.00510520 0.03843616
v 0.02295805 0.00104821 0.04494426
v 0.02082704 0.00442412 0.04473898
v 0.02119941 0.00565761 0.05069819
v 0.02301845 0.00318506 0.05007702
v 0.02264719 0.00503293 0.05306871
v 0.02204374 0.00758630 0.01921140
v 0.02267164 0.00801354 0.02501431
v 0.02255128 0.00793867 0.03115839
v 0.02304865 0.00747062 0.03884359
v 0.02275380 0.00768106 0.04633808
v 0.02437827 0.00690655 0.05045782
v 0.02752404 -0.02597204 0.03987595
v 0.02949755 -0.02730360 0.03870715
v 0.02852799 -0.02592821 0.03687288
v 0.03001071 -0.02536915 0.04169303
v 0.02479005 -0.01902834 0.02138881
v 0.02632536 -0.01939888 0.02590361
v 0.02903343 -0.01994153 0.02986808
v 0.02834041 -0.02293532 0.03316854
v 0.02727209 -0.02252391 0.04476685
v 0.02790698 -0.01882203 0.04726255
v 0.02821818 -0.01710574 0.03133639
v 0.02880764 -0.01655703 0.03747644
v 0.02875195 -0.01700700 0.04376305
v 0.02574894 0.00051501 0.02104667
v 0.02606625 -0.00069423 0.02646233
v 0.02594037 -0.00078515 0.03280439
v 0.02519423 -0.00169400 0.03772270
v 0.02548984 0.00538639 0.02162254
v 0.02602843 0.00457004 0.02643020
v 0.02593194 0.00449475 0.03263829
v 0.02697458 0.00370217 0.03945437
v 0.02774975 0.00288126 0.04560074
v 0.02998033 0.00519625 0.04296765
v 0.02567609 0.00455460 0.05110746
v 0.02878566 0.00560881 0.04799110
v 0.02778171 0.00726952 0.04448368
v 0.03166247 -0.02414494 0.03822156
v 0.03162099 -0.01966113 0.03440968
v 0.03225372 -0.01922877 0.03992395
v 0.03134150 -0.02094881 0.04408460
v 0.03086607 0.00529393 0.04499414
f 3 2 1
f 5 4 1
f 5 1 2
f 7 6 4
f 7 4 5
f 9 8 6
f 9 6 7
f 11 10 8
f 11 8 9
f 13 12 10
f 13 10 11
f 14 12 13
f 15 3 1
f 17 16 15
f 1 17 15
f 4 17 1
f 18 4 6
f 17 4 18
f 19 6 8
f 18 6 19
f 20 8 10
f 19 8 20
f 21 10 12
f 20 10 21
f 12 14 22
f 12 22 21
f 23 16 17
f 23 17 18
f 23 18 24
f 24 18 19
f 24 19 25
f 25 19 20
f 25 20 26
f 26 20 21
f 26 21 27
f 27 21 22
f 30 29 28
f 32 31 28
f 32 28 29
f 33 31 32
f 30 28 34
f 30 34 35
f 31 37 36
f 34 31 36
f 28 31 34
f 37 31 33
f 38 35 34
f 38 34 36
f 41 40 39
f 43 42 39
f 43 39 40
f 45 44 42
f 45 42 43
f 47 46 44
f 47 44 45
f 49 48 46
f 49 46 47
f 51 50 48
f 51 48 49
f 52 50 51
f 41 39 53
f 41 53 54
f 55 39 42
f 53 39 55
f 56 42 44
f 55 42 56
f 57 44 46
f 56 44 57
f 58 46 48
f 57 46 58
f 59 48 50
f 58 48 59
f 50 52 60
f 61 50 60
f 59 50 61
f 63 62 61
f 63 61 60
f 2 3 62
f 63 2 62
f 64 2 63
f 2 65 5
f 64 65 2
f 5 66 7
f 65 66 5
f 7 67 9
f 66 67 7
f 9 68 11
f 67 68 9
f 11 69 13
f 68 69 11
f 14 13 69
f 14 69 70
f 71 54 53
f 71 53 55
f 71 55 72
f 72 55 56
f 72 56 73
f 73 56 57
f 73 57 74
f 74 57 58
f 74 58 75
f 77 76 75
f 58 77 75
f 59 77 58
f 78 59 61
f 77 59 78
f 79 61 62
f 78 61 79
f 15 80 3
f 80 62 3
f 80 79 62
f 16 80 15
f 70 22 14
f 81 22 70
f 82 76 77
f 82 77 78
f 82 78 83
f 85 84 83
f 78 85 83
f 79 85 78
f 80 87 86
f 85 80 86
f 79 80 85
f 87 80 16
f 23 87 16
f 88 87 23
f 89 23 24
f 89 88 23
f 90 24 25
f 90 89 24
f 91 25 26
f 91 90 25
f 92 26 27
f 92 91 26
f 27 22 81
f 27 81 92
f 93 84 85
f 93 85 86
f 95 94 29
f 95 29 30
f 29 96 32
f 94 96 29
f 98 97 33
f 32 98 33
f 96 98 32
f 100 99 97
f 100 97 98
f 101 99 100
f 35 95 30
f 35 102 95
f 103 36 37
f 33 97 37
f 97 103 37
f 97 104 103
f 99 106 105
f 104 99 105
f 97 99 104
f 106 99 101
f 35 38 107
f 108 35 107
f 102 35 108
f 36 103 38
f 103 107 38
f 103 109 107
f 110 103 104
f 109 103 110
f 104 105 111
f 112 104 111
f 110 104 112
f 40 41 112
f 111 40 112
f 113 40 111
f 40 114 43
f 113 114 40
f 43 115 45
f 114 115 43
f 45 116 47
f 115 116 45
f 47 117 49
f 116 117 47
f 117 119 118
f 51 117 118
f 49 117 51
f 118 52 51
f 120 108 107
f 122 121 120
f 107 122 120
f 109 122 107
f 123 109 110
f 122 109 123
f 124 110 112
f 123 110 124
f 54 124 41
f 41 124 112
f 119 125 118
f 118 125 52
f 125 60 52
f 125 126 60
f 126 128 127
f 63 126 127
f 60 126 63
f 129 64 63
f 129 63 127
f 130 65 64
f 130 64 129
f 131 66 65
f 131 65 130
f 132 67 66
f 132 66 131
f 133 68 67
f 133 67 132
f 134 69 68
f 134 68 133
f 134 70 69
f 135 121 122
f 135 122 123
f 135 123 136
f 136 123 124
f 136 124 137
f 137 124 54
f 71 137 54
f 138 137 71
f 139 71 72
f 139 138 71
f 140 72 73
f 140 139 72
f 142 140 141
f 140 74 141
f 140 73 74
f 75 143 74
f 74 143 141
f 76 143 75
f 128 144 127
f 127 144 129
f 129 144 145
f 147 146 145
f 146 129 145
f 146 130 129
f 130 148 131
f 130 146 148
f 131 149 132
f 131 148 149
f 132 150 133
f 132 149 150
f 133 151 134
f 133 150 151
f 151 81 70
f 151 70 134
f 152 142 141
f 152 141 143
f 152 143 153
f 153 143 76
f 82 153 76
f 154 153 82
f 155 82 83
f 155 154 82
f 83 84 155
f 155 84 156
f 157 86 87
f 147 158 146
f 158 87 146
f 87 88 146
f 87 158 157
f 146 88 89
f 146 89 148
f 148 89 90
f 148 90 149
f 149 90 91
f 149 91 150
f 150 91 92
f 150 92 151
f 151 92 81
f 159 156 84
f 159 84 93
f 93 86 157
f 160 93 157
f 159 93 160
f 160 157 158
f 163 162 161
f 164 161 162
f 163 161 94
f 95 163 94
f 165 163 95
f 164 166 161
f 166 94 161
f 166 96 94
f 96 167 98
f 166 167 96
f 98 168 100
f 167 168 98
f 170 169 101
f 100 170 101
f 168 170 100
f 172 171 169
f 172 169 170
f 173 171 172
f 102 165 95
f 102 174 165
f 175 105 106
f 101 169 106
f 169 175 106
f 169 176 175
f 171 178 177
f 176 171 177
f 169 171 176
f 178 171 173
f 108 174 102
f 108 179 174
f 175 111 105
f 111 180 113
f 180 111 181
f 175 181 111
f 181 175 182
f 176 182 175
f 113 183 114
f 183 176 114
f 177 114 176
f 114 177 184
f 182 184 177
f 184 182 183
f 183 180 184
f 113 180 183
f 183 182 176
f 185 115 114
f 185 114 184
f 186 116 115
f 186 115 185
f 187 117 116
f 187 116 186
f 187 119 117
f 190 189 188
f 191 188 120
f 188 179 120
f 179 108 120
f 179 188 189
f 121 191 120
f 181 192 180
f 194 193 192
f 193 180 192
f 193 184 180
f 184 195 185
f 184 193 195
f 185 196 186
f 185 195 196
f 186 197 187
f 186 196 197
f 198 125 119
f 187 198 119
f 197 198 187
f 199 126 125
f 199 125 198
f 199 128 126
f 200 190 188
f 200 188 191
f 200 191 201
f 201 191 121
f 135 201 121
f 202 201 135
f 203 135 136
f 203 202 135
f 205 203 204
f 203 137 204
f 203 136 137
f 138 206 137
f 137 206 204
f 139 193 138
f 194 138 193
f 138 194 206
f 207 206 194
f 206 207 208
f 210 209 207
f 208 207 209
f 193 140 195
f 140 193 139
f 211 209 210
f 209 211 142
f 196 142 211
f 142 196 140
f 195 140 196
f 196 211 197
f 197 211 212
f 197 212 198
f 198 212 213
f 198 213 199
f 199 213 214
f 199 214 128
f 214 144 128
f 214 215 144
f 144 216 145
f 215 216 144
f 147 145 216
f 147 216 217
f 218 205 204
f 218 204 206
f 218 206 219
f 219 206 208
f 219 208 220
f 220 208 209
f 220 209 221
f 221 209 142
f 152 221 142
f 222 221 152
f 223 152 153
f 223 222 152
f 224 153 154
f 224 223 153
f 225 154 155
f 225 224 154
f 155 156 225
f 225 156 226
f 217 158 147
f 227 158 217
f 228 226 156
f 228 156 159
f 229 159 160
f 229 228 159
f 160 158 227
f 160 227 229
f 163 230 162
f 230 164 162
f 232 231 230
f 163 232 230
f 165 232 163
f 230 231 164
f 231 166 164
f 231 233 166
f 166 234 167
f 233 234 166
f 167 235 168
f 234 235 167
f 168 236 170
f 235 236 168
f 170 237 172
f 236 237 170
f 239 238 173
f 172 239 173
f 237 239 172
f 241 240 238
f 241 238 239
f 242 240 241
f 174 232 165
f 174 243 232
f 244 177 178
f 173 238 178
f 238 244 178
f 238 245 244
f 240 247 246
f 245 240 246
f 238 240 245
f 247 240 242
f 179 249 248
f 243 179 248
f 174 179 243
f 251 250 249
f 249 250 248
f 251 252 250
f 253 181 182
f 177 244 182
f 244 253 182
f 244 254 253
f 255 244 245
f 254 244 255
f 245 246 256
f 257 245 256
f 255 245 257
f 259 258 257
f 259 257 256
f 260 258 259
f 262 261 189
f 262 189 190
f 179 189 249
f 189 263 249
f 189 261 263
f 249 263 251
f 251 263 264
f 251 264 252
f 253 192 181
f 253 254 265
f 194 253 265
f 266 194 265
f 253 194 192
f 265 254 255
f 265 255 267
f 269 268 267
f 255 269 267
f 257 269 255
f 258 271 270
f 269 258 270
f 257 258 269
f 271 258 260
f 272 262 190
f 272 190 200
f 273 200 201
f 273 272 200
f 274 201 202
f 274 273 201
f 275 202 203
f 275 274 202
f 203 205 275
f 275 205 276
f 266 277 194
f 194 277 207
f 207 278 210
f 277 278 207
f 269 211 268
f 211 278 268
f 211 210 278
f 270 279 269
f 279 211 269
f 279 212 211
f 212 280 213
f 279 280 212
f 213 281 214
f 280 281 213
f 214 282 215
f 281 282 214
f 282 284 283
f 216 282 283
f 215 282 216
f 283 217 216
f 285 276 205
f 285 205 218
f 286 218 219
f 286 285 218
f 287 219 220
f 287 286 219
f 288 220 221
f 288 287 220
f 289 221 222
f 289 288 221
f 290 222 223
f 290 289 222
f 291 223 224
f 291 290 223
f 292 224 225
f 292 291 224
f 294 293 226
f 293 225 226
f 293 292 225
f 293 294 284
f 294 283 284
f 294 295 283
f 295 227 217
f 295 217 283
f 228 294 226
f 294 228 229
f 294 229 295
f 295 229 227
f 298 297 296
f 300 299 296
f 300 296 297
f 302 301 299
f 302 299 300
f 303 301 302
f 232 304 231
f 305 233 231
f 305 231 304
f 306 234 233
f 306 233 305
f 307 235 234
f 307 234 306
f 308 236 235
f 308 235 307
f 309 237 236
f 309 236 308
f 237 309 310
f 311 237 310
f 239 237 311
f 296 241 298
f 241 311 298
f 241 239 311
f 241 296 242
f 296 312 242
f 296 299 312
f 301 314 313
f 312 301 313
f 299 301 312
f 314 301 303
f 243 315 304
f 243 304 232
f 317 305 316
f 305 315 316
f 305 304 315
f 305 317 306
f 306 317 318
f 306 318 307
f 307 318 319
f 307 319 308
f 308 319 320
f 308 320 309
f 309 320 321
f 309 321 310
f 323 322 247
f 247 322 246
f 247 242 312
f 324 247 312
f 323 247 324
f 324 312 313
f 248 315 243
f 325 316 315
f 248 325 315
f 250 325 248
f 250 252 325
f 325 252 326
f 322 327 246
f 246 327 256
f 256 328 259
f 327 328 256
f 330 329 260
f 259 330 260
f 328 330 259
f 331 329 330
f 262 332 261
f 333 263 261
f 333 261 332
f 334 264 263
f 334 263 333
f 326 252 335
f 252 334 335
f 334 336 335
f 252 264 334
f 338 337 336
f 336 337 335
f 340 339 338
f 338 339 337
f 266 265 340
f 265 339 340
f 265 341 339
f 342 265 267
f 342 341 265
f 267 268 342
f 342 268 343
f 344 270 271
f 260 329 271
f 329 344 271
f 329 345 344
f 329 331 346
f 347 329 346
f 345 329 347
f 349 348 347
f 349 347 346
f 351 350 348
f 351 348 349
f 352 350 351
f 272 332 262
f 332 272 273
f 332 273 333
f 333 273 274
f 333 274 334
f 334 274 275
f 334 275 336
f 336 275 276
f 353 336 276
f 338 336 353
f 338 354 340
f 338 353 354
f 340 354 266
f 354 355 266
f 355 277 266
f 354 356 355
f 277 357 278
f 355 357 277
f 268 278 343
f 343 278 357
f 344 279 270
f 279 344 280
f 280 344 345
f 280 345 281
f 281 345 347
f 281 347 282
f 282 347 348
f 282 348 284
f 348 358 284
f 348 350 358
f 350 352 359
f 360 350 359
f 358 350 360
f 362 361 360
f 362 360 359
f 363 361 362
f 285 353 276
f 353 285 286
f 353 286 354
f 364 356 354
f 286 364 354
f 287 364 286
f 365 287 288
f 365 364 287
f 366 288 289
f 366 365 288
f 367 289 290
f 367 366 289
f 368 290 291
f 368 367 290
f 369 291 292
f 369 368 291
f 370 292 293
f 370 369 292
f 293 284 358
f 371 293 358
f 370 293 371
f 371 358 360
f 371 360 372
f 372 360 361
f 372 361 373
f 373 361 363
f 298 374 297
f 297 374 375
f 376 297 375
f 300 297 376
f 300 377 302
f 376 377 300
f 379 378 303
f 302 379 303
f 377 379 302
f 381 380 378
f 381 378 379
f 382 380 381
f 310 383 311
f 374 298 311
f 383 374 311
f 384 374 383
f 375 374 385
f 385 374 384
f 386 313 314
f 303 378 314
f 378 386 314
f 378 387 386
f 380 389 388
f 387 380 388
f 378 380 387
f 389 380 382
f 316 390 317
f 391 318 317
f 391 317 390
f 392 319 318
f 392 318 391
f 393 320 319
f 393 319 392
f 320 393 394
f 395 320 394
f 321 320 395
f 310 321 383
f 321 396 383
f 321 395 396
f 397 322 323
f 383 397 323
f 384 383 323
f 396 397 383
f 398 385 384
f 323 398 384
f 324 398 323
f 324 313 386
f 399 324 386
f 398 324 399
f 399 386 387
f 399 387 400
f 400 387 388
f 325 390 316
f 390 325 326
f 401 390 326
f 391 390 401
f 391 402 392
f 391 401 402
f 392 403 393
f 392 402 403
f 394 393 404
f 404 393 403
f 397 405 322
f 322 405 327
f 327 406 328
f 405 406 327
f 328 407 330
f 406 407 328
f 409 408 331
f 330 409 331
f 407 409 330
f 411 410 408
f 411 408 409
f 412 410 411
f 335 401 326
f 401 335 337
f 401 337 402
f 402 337 339
f 402 339 403
f 413 404 403
f 339 413 403
f 341 413 339
f 414 341 342
f 414 413 341
f 416 415 343
f 415 342 343
f 415 414 342
f 418 417 416
f 416 417 415
f 420 419 418
f 418 419 417
f 419 408 421
f 408 419 331
f 420 331 419
f 331 420 346
f 422 346 420
f 346 422 349
f 423 349 422
f 349 423 410
f 421 410 423
f 410 421 408
f 351 349 410
f 424 351 410
f 412 424 410
f 425 351 424
f 425 352 351
f 356 426 355
f 427 357 355
f 427 355 426
f 416 343 357
f 427 416 357
f 428 416 427
f 430 418 429
f 418 428 429
f 418 416 428
f 418 430 420
f 420 430 431
f 420 431 422
f 422 431 432
f 422 432 423
f 424 433 425
f 425 433 352
f 433 359 352
f 433 434 359
f 359 435 362
f 434 435 359
f 437 436 363
f 362 437 363
f 435 437 362
f 438 436 437
f 364 426 356
f 426 364 365
f 426 365 427
f 427 365 366
f 427 366 428
f 439 429 428
f 366 439 428
f 367 439 366
f 440 367 368
f 440 439 367
f 441 368 369
f 441 440 368
f 442 369 370
f 442 441 369
f 443 370 371
f 443 442 370
f 445 443 444
f 443 372 444
f 443 371 372
f 373 446 372
f 372 446 444
f 363 436 373
f 436 446 373
f 436 447 446
f 436 438 448
f 449 436 448
f 447 436 449
f 450 449 448
f 451 445 444
f 451 444 446
f 451 446 452
f 452 446 447
f 452 447 453
f 455 454 453
f 447 455 453
f 449 455 447
f 449 450 456
f 449 456 455
f 457 454 455
f 457 455 456
f 375 458 376
f 459 377 376
f 459 376 458
f 377 459 460
f 461 377 460
f 379 377 461
f 379 462 381
f 461 462 379
f 464 463 382
f 381 464 382
f 462 464 381
f 466 465 463
f 466 463 464
f 467 465 466
f 385 468 458
f 385 458 375
f 458 469 459
f 458 468 469
f 460 459 470
f 470 459 469
f 471 388 389
f 382 463 389
f 463 471 389
f 463 472 471
f 465 474 473
f 472 465 473
f 463 465 472
f 474 465 467
f 394 475 395
f 476 396 395
f 476 395 475
f 476 397 396
f 398 468 385
f 468 398 399
f 468 399 469
f 477 470 469
f 399 477 469
f 400 477 399
f 400 388 471
f 478 400 471
f 477 400 478
f 478 471 472
f 478 472 479
f 479 472 473
f 404 480 475
f 404 475 394
f 475 481 476
f 475 480 481
f 482 405 397
f 476 482 397
f 481 482 476
f 483 406 405
f 483 405 482
f 406 483 484
f 485 406 484
f 407 406 485
f 407 486 409
f 485 486 407
f 409 487 411
f 486 487 409
f 489 488 412
f 411 489 412
f 487 489 411
f 491 490 488
f 491 488 489
f 493 492 490
f 493 490 491
f 494 492 493
f 413 480 404
f 480 413 414
f 480 414 481
f 481 414 415
f 481 415 482
f 482 415 417
f 482 417 483
f 495 484 483
f 417 495 483
f 419 495 417
f 496 419 421
f 496 495 419
f 421 423 496
f 496 423 497
f 498 424 488
f 488 424 412
f 499 488 490
f 498 488 499
f 500 490 492
f 499 490 500
f 492 494 501
f 492 501 500
f 429 502 430
f 503 431 430
f 503 430 502
f 504 432 431
f 504 431 503
f 497 423 505
f 423 504 505
f 504 506 505
f 423 432 504
f 505 498 507
f 498 505 424
f 506 424 505
f 424 506 433
f 508 433 506
f 507 499 509
f 499 507 498
f 510 434 508
f 433 508 434
f 509 500 511
f 500 509 499
f 512 435 510
f 434 510 435
f 435 513 437
f 513 500 437
f 501 437 500
f 437 501 514
f 511 514 501
f 514 511 513
f 513 512 514
f 435 512 513
f 513 511 500
f 514 438 437
f 439 502 429
f 502 439 440
f 502 440 503
f 503 440 441
f 503 441 504
f 504 441 442
f 504 442 506
f 506 442 443
f 506 443 508
f 508 443 445
f 515 508 445
f 510 508 515
f 510 516 512
f 510 515 516
f 512 517 514
f 512 516 517
f 518 448 438
f 514 518 438
f 517 518 514
f 518 450 448
f 451 515 445
f 515 451 452
f 515 452 516
f 516 452 453
f 516 453 517
f 517 453 454
f 519 517 454
f 518 517 519
f 519 456 450
f 519 450 518
f 457 519 454
f 519 457 456
f 460 520 461
f 521 462 461
f 521 461 520
f 462 521 522
f 523 462 522
f 464 462 523
f 464 524 466
f 523 524 464
f 526 525 467
f 466 526 467
f 524 526 466
f 528 527 525
f 528 525 526
f 530 529 527
f 530 527 528
f 531 529 530
f 470 532 520
f 470 520 460
f 520 533 521
f 520 532 533
f 522 521 534
f 521 535 534
f 521 533 535
f 473 474 535
f 474 534 535
f 474 536 534
f 474 467 525
f 537 474 525
f 536 474 537
f 537 525 527
f 537 527 538
f 538 527 529
f 538 529 539
f 539 529 531
f 477 532 470
f 532 477 478
f 532 478 533
f 533 478 479
f 533 479 535
f 535 479 473
f 484 540 485
f 541 486 485
f 541 485 540
f 542 487 486
f 542 486 541
f 487 542 543
f 544 487 543
f 489 487 544
f 489 545 491
f 544 545 489
f 491 546 493
f 545 546 491
f 548 547 494
f 493 548 494
f 546 548 493
f 549 547 548
f 495 540 484
f 540 495 496
f 540 496 541
f 541 496 497
f 550 541 497
f 542 541 550
f 543 542 551
f 551 542 550
f 552 501 547
f 547 501 494
f 547 549 553
f 554 547 553
f 552 547 554
f 556 555 554
f 556 554 553
f 557 555 556
f 505 550 497
f 558 551 550
f 505 558 550
f 507 558 505
f 559 507 509
f 559 558 507
f 560 509 511
f 560 559 509
f 511 501 552
f 561 511 552
f 560 511 561
f 561 552 554
f 561 554 562
f 562 554 555
f 562 555 563
f 563 555 557
f 566 565 564
f 567 564 565
f 522 568 523
f 569 524 523
f 569 523 568
f 524 569 570
f 571 524 570
f 526 524 571
f 564 528 566
f 528 571 566
f 528 526 571
f 567 572 564
f 572 528 564
f 572 530 528
f 531 530 572
f 531 572 573
f 534 568 522
f 568 534 536
f 568 536 569
f 574 570 569
f 536 574 569
f 537 574 536
f 575 537 538
f 575 574 537
f 576 538 539
f 576 575 538
f 539 531 573
f 539 573 576
f 543 577 544
f 578 545 544
f 578 544 577
f 579 546 545
f 579 545 578
f 580 548 546
f 580 546 579
f 580 549 548
f 551 581 577
f 551 577 543
f 577 582 578
f 577 581 582
f 578 583 579
f 578 582 583
f 579 584 580
f 579 583 584
f 580 584 549
f 584 585 549
f 585 553 549
f 584 586 585
f 585 588 587
f 556 585 587
f 553 585 556
f 587 557 556
f 558 581 551
f 581 558 559
f 581 559 582
f 582 559 560
f 582 560 583
f 583 560 561
f 583 561 584
f 589 586 584
f 561 589 584
f 562 589 561
f 563 587 588
f 589 563 588
f 562 563 589
f 587 563 557
f 566 590 565
f 590 567 565
f 570 591 571
f 590 566 571
f 591 590 571
f 592 590 591
f 593 572 567
f 590 593 567
f 592 593 590
f 593 573 572
f 574 591 570
f 591 574 575
f 591 575 592
f 592 575 576
f 592 576 593
f 593 576 573
f 586 594 585
f 594 588 585
f 589 594 586
f 594 589 588

