# https://github.com/mikedh/trimesh
v -0.03592604 -0.04001762 0.01531210
v -0.03167641 -0.04346605 0.01509448
v -0.03358839 -0.04047606 0.01133814
v -0.03557044 -0.03984946 0.02070089
v -0.03365254 -0.04319237 0.01934778
v -0.03232336 -0.04123677 0.02252291
v -0.03564523 -0.03472009 -0.00817545
v -0.03182082 -0.03751513 -0.00928319
v -0.03355964 -0.03425424 -0.01175690
v -0.03608805 -0.03448575 -0.00229842
v -0.03298298 -0.03762306 -0.00376979
v -0.03582929 -0.03507034 0.00326434
v -0.03283478 -0.03738683 0.00243225
v -0.03569614 -0.03509663 0.00829065
v -0.03281882 -0.03814537 0.00763529
v -0.03607174 -0.03492342 0.01338857
v -0.03590318 -0.03546469 0.01873356
v -0.03293641 -0.03652180 0.02275078
v -0.03592829 -0.02927773 -0.00914021
v -0.03274553 -0.02941246 -0.01219811
v -0.03675978 -0.02999849 -0.00462035
v -0.03587636 -0.02924550 0.00133684
v -0.03365123 -0.02983609 0.00526040
v -0.03252106 -0.03190592 0.00939190
v -0.03312184 -0.03226213 0.01570148
v -0.03249736 -0.03269819 0.02059555
v -0.03591138 -0.02311427 -0.00887976
v -0.03274788 -0.02332024 -0.01197181
v -0.03603323 -0.02354211 -0.00351286
v -0.03345044 -0.02328547 0.00004372
v -0.03163576 -0.02633239 0.00238745
v -0.03603796 -0.01717206 -0.00875087
v -0.03289320 -0.01737852 -0.01186351
v -0.03594487 -0.01693764 -0.00398626
v -0.03272898 -0.01833499 -0.00096863
v -0.03609638 -0.01125892 -0.00863066
v -0.03297941 -0.01140612 -0.01181339
v -0.03605788 -0.01101949 -0.00382518
v -0.03275118 -0.01239737 -0.00082973
v -0.03622415 -0.00516943 -0.00871675
v -0.03314371 -0.00529167 -0.01192607
v -0.03615459 -0.00499933 -0.00377678
v -0.03293206 -0.00637855 -0.00059731
v -0.03573236 -0.00033009 -0.00955370
v -0.03215014 0.00018702 -0.01161942
v -0.03588060 0.00039723 -0.00496777
v -0.03300184 -0.00065355 -0.00097123
v -0.03320435 0.00307341 -0.00762789
v -0.03247731 0.00292570 -0.00304229
v -0.02568384 -0.04370281 0.01506340
v -0.02869655 -0.04124699 0.01131227
v -0.02875019 -0.04379114 0.01982086
v -0.02734783 -0.04036213 0.02310499
v -0.02605585 -0.03781121 -0.00911192
v -0.02882330 -0.03487301 -0.01225219
v -0.02760724 -0.03829553 -0.00369123
v -0.02740789 -0.03799422 0.00250762
v -0.02725625 -0.03867363 0.00774779
v -0.02740404 -0.03525484 0.02310257
v -0.02723355 -0.02944731 -0.01275255
v -0.02892703 -0.02911481 0.00517702
v -0.02616448 -0.03135197 0.00878702
v -0.02761552 -0.03168895 0.01422417
v -0.02759693 -0.03210002 0.01981675
v -0.02727682 -0.02332817 -0.01254107
v -0.02865138 -0.02234525 0.00024614
v -0.02580206 -0.02625525 0.00225659
v -0.02744582 -0.01738095 -0.01245166
v -0.02722613 -0.01714734 -0.00038436
v -0.02757576 -0.01142131 -0.01247965
v -0.02728785 -0.01112753 -0.00016908
v -0.02776133 -0.00531807 -0.01262256
v -0.02748990 -0.00504213 0.00003336
v -0.02642490 0.00012611 -0.01199494
v -0.02752361 0.00034066 -0.00066571
v -0.02780514 0.00334059 -0.00881367
v -0.02763874 0.00341661 -0.00387817
v -0.02932052 0.02428899 0.00312038
v -0.02656804 0.02155107 0.00214222
v -0.02798197 0.02427333 0.00074192
v -0.02656607 0.02291869 0.00451637
v -0.02953638 0.02925075 0.00265454
v -0.02753595 0.02917359 -0.00020422
v -0.02715071 0.02783584 0.00521452
v -0.02930045 0.03539364 0.00260332
v -0.02704995 0.03510932 0.00041833
v -0.02692786 0.03488203 0.00456950
v -0.02920383 0.04131396 0.00260917
v -0.02746623 0.04131387 0.00082086
v -0.02739324 0.04136795 0.00429687
v -0.02911351 0.04714531 0.00251392
v -0.02736985 0.04715975 0.00078568
v -0.02737469 0.04710179 0.00430873
v -0.02924460 0.05312838 0.00258031
v -0.02743108 0.05309564 0.00093632
v -0.02654366 0.05321460 0.00470325
v -0.02948354 0.05923362 0.00273821
v -0.02683149 0.05941328 -0.00029554
v -0.02779949 0.05828932 0.00511183
v -0.02926069 0.06419048 0.00238709
v -0.02702890 0.06556928 -0.00018666
v -0.02721853 0.06356521 0.00497486
v -0.02606112 0.06722330 0.00264049
v -0.01959234 -0.04357601 0.01502488
v -0.02250926 -0.04101966 0.01137494
v -0.02254740 -0.04367021 0.01980669
v -0.02114044 -0.04031358 0.02305440
v -0.02003688 -0.03771008 -0.00901780
v -0.02268402 -0.03480584 -0.01203394
v -0.02160113 -0.03815592 -0.00356907
v -0.02136716 -0.03782772 0.00264188
v -0.02111212 -0.03846921 0.00786482
v -0.02124066 -0.03537135 0.02305420
v -0.02110147 -0.02939905 -0.01253466
v -0.02287788 -0.02933022 0.00509879
v -0.02018250 -0.03151655 0.00884358
v -0.02157546 -0.03188804 0.01423256
v -0.02151972 -0.03231690 0.01977399
v -0.02119421 -0.02331711 -0.01231641
v -0.02251303 -0.02264612 0.00006106
v -0.01975965 -0.02646930 0.00219647
v -0.02136711 -0.01737467 -0.01223095
v -0.02110150 -0.01743055 -0.00056663
v -0.02153073 -0.01143321 -0.01231105
v -0.02120759 -0.01136483 -0.00035849
v -0.02176129 -0.00535721 -0.01250891
v -0.02138363 -0.00523465 -0.00010721
v -0.02045923 0.00008843 -0.01189270
v -0.02140604 0.00016828 -0.00077307
v -0.02176223 0.00325113 -0.00878506
v -0.02154109 0.00327829 -0.00395866
v -0.02149586 0.02124861 0.00261851
v -0.02241305 0.02432047 -0.00053991
v -0.02158440 0.02376842 0.00522936
v -0.02353004 0.02945241 -0.01992443
v -0.02075591 0.02738936 -0.02054015
v -0.02179291 0.03001267 -0.02326702
v -0.02383371 0.02884051 -0.01452141
v -0.02134985 0.02721402 -0.01549650
v -0.02340699 0.03014625 -0.00949014
v -0.02152183 0.02753124 -0.00922639
v -0.02378002 0.02987831 -0.00310286
v -0.02114196 0.02732631 -0.00402638
v -0.02182055 0.02981805 0.00541315
v -0.02397850 0.03496181 -0.02096215
v -0.02131345 0.03489989 -0.02351258
v -0.02411008 0.03461911 -0.01518943
v -0.02133249 0.03582593 -0.01228175
v -0.02131855 0.03210871 -0.00868918
v -0.02031209 0.03163529 -0.00307597
v -0.02146096 0.03242958 0.00193189
v -0.02476937 0.03592533 0.00262942
v -0.02392431 0.04105681 -0.02085865
v -0.02126134 0.04095898 -0.02339913
v -0.02398036 0.04139317 -0.01571287
v -0.02134768 0.04151343 -0.01313665
v -0.02565564 0.04136786 0.00250856
v -0.02390759 0.04696266 -0.02093430
v -0.02127957 0.04683389 -0.02342129
v -0.02393648 0.04724632 -0.01577611
v -0.02132022 0.04733178 -0.01309296
v -0.02563103 0.04711623 0.00258050
v -0.02394397 0.05291269 -0.02092918
v -0.02133269 0.05276904 -0.02340302
v -0.02398744 0.05332175 -0.01491193
v -0.02130415 0.05275633 -0.01228541
v -0.02484412 0.05281679 0.00221578
v -0.02394304 0.05915488 -0.02089911
v -0.02129828 0.05897003 -0.02344204
v -0.02471155 0.05924638 -0.01521414
v -0.02121860 0.05625655 -0.00870975
v -0.02385460 0.05900050 -0.00846322
v -0.02443112 0.05944571 -0.00372124
v -0.02199544 0.05678879 -0.00233249
v -0.02200884 0.05568229 0.00303183
v -0.02175482 0.05998236 0.00531182
v -0.02321442 0.06410496 -0.02165854
v -0.02081911 0.06402253 -0.02310119
v -0.02389180 0.06488658 -0.01671087
v -0.02377568 0.06476278 -0.01047161
v -0.02457952 0.06414810 -0.00436692
v -0.02248558 0.06536370 0.00529992
v -0.02178255 0.06689437 -0.02023432
v -0.02125177 0.06724421 -0.01522384
v -0.02127725 0.06718308 -0.00910812
v -0.02178527 0.06759767 -0.00228185
v -0.02072336 0.06768999 0.00301575
v -0.01372202 -0.04356799 0.01501767
v -0.01652585 -0.04090550 0.01137839
v -0.01653232 -0.04369910 0.01974932
v -0.01515608 -0.04041576 0.02303617
v -0.01416259 -0.03769793 -0.00902286
v -0.01669632 -0.03476385 -0.01195010
v -0.01569785 -0.03811039 -0.00356988
v -0.01543675 -0.03775205 0.00264702
v -0.01516560 -0.03838245 0.00787136
v -0.01526518 -0.03547067 0.02311997
v -0.01515448 -0.02939662 -0.01244835
v -0.01696679 -0.02941701 0.00512959
v -0.01432650 -0.03153700 0.00886783
v -0.01570188 -0.03195171 0.01430872
v -0.01558887 -0.03240363 0.01988472
v -0.01524919 -0.02331765 -0.01222644
v -0.01652686 -0.02282631 -0.00001452
v -0.01388556 -0.02648024 0.00220158
v -0.01542011 -0.01737392 -0.01214070
v -0.01515562 -0.01759896 -0.00065498
v -0.01559665 -0.01143412 -0.01223479
v -0.01526291 -0.01152113 -0.00043540
v -0.01585762 -0.00535833 -0.01246229
v -0.01541913 -0.00535706 -0.00012969
v -0.01458573 0.00008994 -0.01187745
v -0.01542571 0.00008975 -0.00071852
v -0.01585641 0.00324000 -0.00872613
v -0.01558694 0.00323845 -0.00387012
v -0.01523634 0.02134258 0.00262241
v -0.01613588 0.02300449 0.00030698
v -0.01532039 0.02385670 0.00525137
v -0.01903975 0.03059697 -0.02106634
v -0.01883660 0.02884284 -0.01638015
v -0.01943593 0.02984245 -0.00976096
v -0.01871836 0.02955867 -0.00346255
v -0.01512377 0.02827881 -0.00044439
v -0.01546751 0.02897291 0.00538102
v -0.01860139 0.03649855 -0.02089242
v -0.01857871 0.03368876 -0.01491844
v -0.01575355 0.03176422 0.00204080
v -0.01863595 0.04250276 -0.02079552
v -0.01862447 0.03994257 -0.01571834
v -0.01868959 0.04827976 -0.02080372
v -0.01866750 0.04580209 -0.01561562
v -0.01869898 0.05422760 -0.02096764
v -0.01856451 0.05238028 -0.01505884
v -0.01868129 0.06049452 -0.02108801
v -0.01784563 0.05905084 -0.01543995
v -0.01860708 0.05875570 -0.00943565
v -0.01891769 0.05888392 -0.00406831
v -0.01845034 0.05970216 0.00103897
v -0.01938537 0.06544839 -0.02031864
v -0.01865341 0.06469702 -0.01543093
v -0.01875856 0.06472080 -0.00918664
v -0.01789855 0.06405215 -0.00291541
v -0.01466297 0.06472038 0.00073824
v -0.01501814 0.06215590 0.00274069
v -0.01607482 0.06440787 0.00475288
v -0.01575063 0.06709216 0.00197193
v -0.00786740 -0.04357080 0.01501941
v -0.01066914 -0.04090749 0.01137493
v -0.01067557 -0.04370942 0.01974613
v -0.00929600 -0.04041930 0.02304030
v -0.00830282 -0.03770053 -0.00902708
v -0.01083630 -0.03476580 -0.01195531
v -0.00983742 -0.03811358 -0.00357465
v -0.00957400 -0.03775420 0.00264141
v -0.00930413 -0.03838526 0.00786545
v -0.00940235 -0.03546769 0.02313098
v -0.00929507 -0.02939842 -0.01245317
v -0.01110862 -0.02940937 0.00513324
v -0.00846390 -0.03153248 0.00886565
v -0.00984286 -0.03194725 0.01430938
v -0.00972895 -0.03239989 0.01989318
v -0.00938732 -0.02331766 -0.01223034
v -0.01066740 -0.02282384 -0.00001203
v -0.00802620 -0.02646957 0.00220431
v -0.00955666 -0.01737308 -0.01214268
v -0.00929687 -0.01759884 -0.00065358
v -0.00973301 -0.01143257 -0.01223642
v -0.00940263 -0.01152173 -0.00043335
v -0.00999488 -0.00535680 -0.01246538
v -0.00955656 -0.00535567 -0.00012262
v -0.00872232 0.00009073 -0.01188045
v -0.00956204 0.00009280 -0.00070773
v -0.00999460 0.00324232 -0.00872778
v -0.00972468 0.00324173 -0.00386434
v -0.00927103 0.02135116 0.00250772
v -0.01068177 0.02394428 0.00001405
v -0.00935970 0.02387531 0.00522510
v -0.00814144 0.02928359 0.00000611
v -0.00959966 0.02919128 0.00535469
v -0.00964224 0.03186472 0.00275243
v -0.00953923 0.06309871 0.00256976
v -0.00959260 0.06493614 0.00092902
v -0.00955429 0.06484530 0.00433837
v -0.00960766 0.06668273 0.00269763
v -0.00200149 -0.04357078 0.01501964
v -0.00480782 -0.04091204 0.01137483
v -0.00481607 -0.04370603 0.01974643
v -0.00343490 -0.04041471 0.02303772
v -0.00243687 -0.03770065 -0.00902700
v -0.00497516 -0.03476665 -0.01195947
v -0.00397219 -0.03811444 -0.00357459
v -0.00370989 -0.03775633 0.00264134
v -0.00344114 -0.03838866 0.00786520
v -0.00353944 -0.03546367 0.02312684
v -0.00343308 -0.02939844 -0.01245743
v -0.00524339 -0.02940730 0.00513236
v -0.00259761 -0.03153232 0.00886529
v -0.00397681 -0.03194593 0.01430783
v -0.00386404 -0.03239706 0.01988982
v -0.00352512 -0.02331762 -0.01223443
v -0.00480623 -0.02281539 -0.00000819
v -0.00216022 -0.02646927 0.00220428
v -0.00369380 -0.01737303 -0.01214604
v -0.00343511 -0.01759164 -0.00065052
v -0.00386894 -0.01143251 -0.01223858
v -0.00354143 -0.01151599 -0.00043261
v -0.00412959 -0.00535680 -0.01246631
v -0.00369557 -0.00535182 -0.00012459
v -0.00285635 0.00009068 -0.01188060
v -0.00370006 0.00009487 -0.00071103
v -0.00412933 0.00324243 -0.00872892
v -0.00386091 0.00324251 -0.00386699
v -0.00342770 0.02131227 0.00249085
v -0.00491779 0.02402902 -0.00012905
v -0.00352314 0.02396097 0.00518317
v -0.00239477 0.02931117 -0.00014019
v -0.00381838 0.02929763 0.00523061
v -0.00390142 0.03197887 0.00256599
v -0.00366680 0.06304128 0.00250183
v -0.00372348 0.06482835 0.00074906
v -0.00368966 0.06475898 0.00430054
v -0.00374635 0.06654605 0.00254777
v 0.00386483 -0.04357077 0.01501964
v 0.00105841 -0.04091210 0.01137494
v 0.00105010 -0.04370577 0.01974630
v 0.00243118 -0.04041468 0.02303737
v 0.00342938 -0.03770067 -0.00902693
v 0.00089099 -0.03476659 -0.01195941
v 0.00189405 -0.03811440 -0.00357452
v 0.00215629 -0.03775628 0.00264145
v 0.00242497 -0.03838863 0.00786533
v 0.00232674 -0.03546374 0.02312655
v 0.00243301 -0.02939842 -0.01245741
v 0.00062284 -0.02940756 0.00513230
v 0.00326859 -0.03153243 0.00886543
v 0.00188943 -0.03194610 0.01430793
v 0.00200222 -0.03239720 0.01988976
v 0.00234094 -0.02331765 -0.01223446
v 0.00105995 -0.02281530 -0.00000814
v 0.00370596 -0.02646952 0.00220422
v 0.00217231 -0.01737306 -0.01214608
v 0.00243101 -0.01759155 -0.00065054
v 0.00199724 -0.01143255 -0.01223860
v 0.00232462 -0.01151600 -0.00043278
v 0.00173660 -0.00535682 -0.01246633
v 0.00217047 -0.00535195 -0.00012484
v 0.00300996 0.00009060 -0.01188056
v 0.00216608 0.00009465 -0.00071115
v 0.00173690 0.00324225 -0.00872874
v 0.00200531 0.00324227 -0.00386690
v 0.00243619 0.02131020 0.00249586
v 0.00088981 0.02397302 -0.00016293
v 0.00233062 0.02397169 0.00515643
v 0.00343425 0.02928514 -0.00016028
v 0.00199162 0.02929176 0.00515775
v 0.00188423 0.03194877 0.00249788
v 0.00216948 0.06298353 0.00249917
v 0.00216701 0.06474252 0.00074087
v 0.00216601 0.06473776 0.00425212
v 0.00216355 0.06649675 0.00249382
v 0.00973097 -0.04357086 0.01501962
v 0.00692458 -0.04091205 0.01137491
v 0.00691632 -0.04370591 0.01974635
v 0.00829741 -0.04041484 0.02303747
v 0.00929549 -0.03770075 -0.00902696
v 0.00675726 -0.03476666 -0.01195936
v 0.00776016 -0.03811455 -0.00357450
v 0.00802244 -0.03775641 0.00264144
v 0.00829116 -0.03838867 0.00786529
v 0.00819294 -0.03546379 0.02312666
v 0.00829930 -0.02939852 -0.01245738
v 0.00648903 -0.02940759 0.00513249
v 0.00913469 -0.03153230 0.00886540
v 0.00775548 -0.03194581 0.01430796
v 0.00786833 -0.03239702 0.01988985
v 0.00820718 -0.02331777 -0.01223444
v 0.00692613 -0.02281552 -0.00000814
v 0.00957219 -0.02646947 0.00220445
v 0.00803844 -0.01737321 -0.01214606
v 0.00829726 -0.01759172 -0.00065044
v 0.00786331 -0.01143273 -0.01223859
v 0.00819090 -0.01151603 -0.00043264
v 0.00760281 -0.00535702 -0.01246626
v 0.00803669 -0.00535175 -0.00012471
v 0.00887609 0.00009049 -0.01188072
v 0.00803221 0.00009503 -0.00071103
v 0.00760310 0.00324257 -0.00872882
v 0.00787141 0.00324269 -0.00386680
v 0.00830294 0.02131300 0.00249852
v 0.00675540 0.02396766 -0.00015822
v 0.00819566 0.02397073 0.00515433
v 0.00929298 0.02917324 -0.00015766
v 0.00783768 0.02926433 0.00515248
v 0.00772327 0.03187373 0.00249342
v 0.00800375 0.06305067 0.00251396
v 0.00800221 0.06478488 0.00074256
v 0.00802712 0.06484868 0.00425533
v 0.00802559 0.06658289 0.00248393
v 0.01559543 -0.04356997 0.01502047
v 0.01279053 -0.04091216 0.01137511
v 0.01278228 -0.04370581 0.01974642
v 0.01416262 -0.04041377 0.02303745
v 0.01515678 -0.03769748 -0.00902548
v 0.01262318 -0.03476670 -0.01195923
v 0.01362305 -0.03811227 -0.00357322
v 0.01388655 -0.03775535 0.00264276
v 0.01415638 -0.03838850 0.00786608
v 0.01405670 -0.03546123 0.02312595
v 0.01416453 -0.02939854 -0.01245652
v 0.01235502 -0.02940752 0.00513214
v 0.01499500 -0.03153267 0.00885928
v 0.01361655 -0.03194394 0.01430411
v 0.01373041 -0.03239384 0.01988777
v 0.01407124 -0.02331771 -0.01223232
v 0.01279238 -0.02281513 -0.00000829
v 0.01543742 -0.02646871 0.00220231
v 0.01390132 -0.01737301 -0.01214271
v 0.01416328 -0.01759024 -0.00065177
v 0.01372559 -0.01143239 -0.01223448
v 0.01405607 -0.01151245 -0.00043552
v 0.01346478 -0.00535681 -0.01246220
v 0.01390041 -0.00534578 -0.00012862
v 0.01473234 0.00009057 -0.01188070
v 0.01389443 0.00010219 -0.00071522
v 0.01346366 0.00324541 -0.00873331
v 0.01373266 0.00324874 -0.00387118
v 0.01417398 0.02124386 0.00248389
v 0.01261340 0.02386370 -0.00015693
v 0.01406558 0.02386970 0.00512909
v 0.01514759 0.02894493 -0.00015469
v 0.01370625 0.02910346 0.00513076
v 0.01357882 0.03166982 0.00248489
v 0.01381472 0.06325142 0.00254714
v 0.01380645 0.06494017 0.00074993
v 0.01384545 0.06508153 0.00425918
v 0.01383718 0.06677028 0.00246197
v 0.02145712 -0.04356508 0.01501926
v 0.01865248 -0.04090906 0.01137693
v 0.01864402 -0.04370290 0.01974717
v 0.02002255 -0.04041231 0.02303663
v 0.02101696 -0.03769425 -0.00902382
v 0.01848290 -0.03476273 -0.01195657
v 0.01948395 -0.03810752 -0.00357200
v 0.01974905 -0.03774817 0.00264233
v 0.02001767 -0.03838221 0.00786706
v 0.01991780 -0.03546710 0.02312355
v 0.02002489 -0.02939372 -0.01245338
v 0.01821406 -0.02940917 0.00512262
v 0.02085265 -0.03153170 0.00886104
v 0.01947697 -0.03194876 0.01430366
v 0.01959363 -0.03240413 0.01988543
v 0.01993409 -0.02331171 -0.01222984
v 0.01865527 -0.02281381 -0.00001300
v 0.02129643 -0.02647493 0.00219466
v 0.01976493 -0.01736583 -0.01213977
v 0.02002394 -0.01759176 -0.00065693
v 0.01958770 -0.01142474 -0.01223022
v 0.01991816 -0.01151961 -0.00044009
v 0.01932080 -0.00535093 -0.01246039
v 0.01976358 -0.00535640 -0.00013358
v 0.02058972 0.00010075 -0.01187144
v 0.01975576 0.00009087 -0.00072067
v 0.01932006 0.00324266 -0.00872778
v 0.01959299 0.00323936 -0.00387495
v 0.02009422 0.02110562 0.00252747
v 0.01859231 0.02370259 -0.00013874
v 0.01998005 0.02373123 0.00511747
v 0.02123434 0.02980325 -0.00028570
v 0.02030295 0.02955423 0.00526182
v 0.01912384 0.03249930 0.00249180
v 0.01924000 0.06240431 0.00252688
v 0.02030192 0.06456905 0.00049859
v 0.01997301 0.06432810 0.00454695
v 0.01974114 0.06692310 0.00251857
v 0.02739950 -0.04361119 0.01498087
v 0.02452791 -0.04090671 0.01136122
v 0.02451858 -0.04371571 0.01974265
v 0.02592774 -0.04046857 0.02304514
v 0.02700644 -0.03777552 -0.00906278
v 0.02435676 -0.03475909 -0.01196920
v 0.02543292 -0.03817978 -0.00358510
v 0.02567904 -0.03779750 0.00260956
v 0.02592028 -0.03839916 0.00783135
v 0.02586867 -0.03555195 0.02316452
v 0.02592840 -0.02939282 -0.01249800
v 0.02408725 -0.02941500 0.00513793
v 0.02684031 -0.03147476 0.00902334
v 0.02544097 -0.03192678 0.01442283
v 0.02556925 -0.03245336 0.01996538
v 0.02586749 -0.02331639 -0.01230471
v 0.02451390 -0.02283827 0.00000639
v 0.02720752 -0.02650044 0.00228117
v 0.02571272 -0.01737331 -0.01222673
v 0.02589752 -0.01766322 -0.00059295
v 0.02553187 -0.01143373 -0.01231932
v 0.02583147 -0.01165361 -0.00035297
v 0.02526402 -0.00535481 -0.01254652
v 0.02570875 -0.00552050 -0.00004666
v 0.02664993 0.00015053 -0.01188908
v 0.02572031 -0.00004904 -0.00063357
v 0.02530153 0.00326747 -0.00862680
v 0.02556941 0.00317351 -0.00377600
v 0.02490097 0.02133146 0.00297094
v 0.02521067 0.02406793 0.00009459
v 0.02649287 0.02472351 0.00489405
v 0.02596748 0.02920639 -0.00098766
v 0.02597729 0.02921614 0.00599015
v 0.02268294 0.03606100 0.00251081
v 0.02562645 0.03488195 -0.00025923
v 0.02538022 0.03394969 0.00528821
v 0.02350860 0.04160479 0.00251659
v 0.02607505 0.04147856 -0.00012948
v 0.02623512 0.04003758 0.00515720
v 0.02337641 0.04741618 0.00250308
v 0.02602850 0.04732118 -0.00015177
v 0.02602410 0.04586024 0.00515652
v 0.02354628 0.05320337 0.00253385
v 0.02621040 0.05312988 -0.00015765
v 0.02604327 0.05167810 0.00517089
v 0.02273829 0.05877354 0.00253132
v 0.02536152 0.05944126 -0.00028148
v 0.02563534 0.05851150 0.00532881
v 0.02734292 0.06475356 -0.00018835
v 0.02591391 0.06471233 0.00515716
v 0.02587714 0.06713190 0.00245019
v 0.03346281 -0.04376416 0.01500094
v 0.03053010 -0.04103110 0.01129301
v 0.03053282 -0.04381264 0.01974126
v 0.03199414 -0.04049575 0.02312042
v 0.03315475 -0.03796768 -0.00910081
v 0.03037540 -0.03485572 -0.01206710
v 0.03158242 -0.03834958 -0.00361345
v 0.03173932 -0.03799556 0.00257299
v 0.03193476 -0.03860218 0.00776973
v 0.03196529 -0.03547607 0.02329865
v 0.03193575 -0.02952115 -0.01263977
v 0.03012858 -0.02934354 0.00534725
v 0.03301435 -0.03134293 0.00922648
v 0.03161769 -0.03187812 0.01456430
v 0.03169033 -0.03237685 0.02010921
v 0.03190232 -0.02347329 -0.01249650
v 0.03047681 -0.02283864 0.00018024
v 0.03322325 -0.02630692 0.00250056
v 0.03178835 -0.01754053 -0.01245115
v 0.03187237 -0.01765287 -0.00036244
v 0.03160958 -0.01159866 -0.01254478
v 0.03184780 -0.01170796 -0.00010995
v 0.03142186 -0.00547022 -0.01274158
v 0.03182780 -0.00557180 0.00017544
v 0.03292432 0.00005109 -0.01204802
v 0.03185975 -0.00003250 -0.00041637
v 0.03152155 0.00331526 -0.00868543
v 0.03173616 0.00322386 -0.00365605
v 0.02891479 0.02352109 0.00203774
v 0.03166264 0.02626879 0.00296473
v 0.03046008 0.02869073 0.00010843
v 0.03111569 0.02997303 0.00490784
v 0.03144772 0.03520466 -0.00011499
v 0.03147842 0.03659287 0.00514138
v 0.03131008 0.04111936 -0.00012622
v 0.03131432 0.04256377 0.00516034
v 0.03129403 0.04697326 -0.00014987
v 0.03124221 0.04836719 0.00515012
v 0.03134147 0.05291167 -0.00018896
v 0.03135459 0.05434768 0.00514941
v 0.03144084 0.05912656 -0.00020168
v 0.03151913 0.06061598 0.00518567
v 0.03224778 0.06407955 0.00052432
v 0.03087125 0.06550326 0.00445248
v 0.03084380 0.06687434 0.00195747
v 0.03822643 -0.04319603 0.01563455
v 0.03632974 -0.04117369 0.01166900
v 0.03635040 -0.04346719 0.01982421
v 0.03747349 -0.03937616 0.02284342
v 0.03790681 -0.03740434 -0.00846293
v 0.03614062 -0.03502142 -0.01176976
v 0.03712048 -0.03776807 -0.00359274
v 0.03716273 -0.03745639 0.00259341
v 0.03737624 -0.03836237 0.00815968
v 0.03682266 -0.03473112 0.02275966
v 0.03729594 -0.02961109 -0.01202801
v 0.03596259 -0.02909954 0.00525473
v 0.03785796 -0.03155051 0.00824986
v 0.03719580 -0.03255749 0.01327758
v 0.03723954 -0.03281518 0.01909216
v 0.03726157 -0.02355126 -0.01193547
v 0.03674155 -0.02218470 -0.00031355
v 0.03792384 -0.02613890 0.00185458
v 0.03722414 -0.01764023 -0.01189822
v 0.03727643 -0.01624790 -0.00088662
v 0.03708359 -0.01168196 -0.01196264
v 0.03728434 -0.01028875 -0.00065602
v 0.03705249 -0.00549823 -0.01209499
v 0.03733867 -0.00412585 -0.00043034
v 0.03784714 -0.00051501 -0.01144544
v 0.03679664 0.00073222 -0.00100670
v 0.03650306 0.00268387 -0.00953688
v 0.03724327 0.00286058 -0.00486694
v 0.03385211 0.03028257 0.00203151
v 0.03407424 0.03509009 0.00247496
v 0.03393520 0.04100838 0.00252050
v 0.03388527 0.04686291 0.00250220
v 0.03388468 0.05282626 0.00245604
v 0.03396342 0.05902645 0.00252323
v 0.03363802 0.06405567 0.00300762
v 0.04037188 -0.03932115 0.01428954
v 0.04002737 -0.04138930 0.01932550
v 0.03996639 -0.03381086 -0.00902962
v 0.04030522 -0.03472239 -0.00353967
v 0.04013133 -0.03519650 0.00180342
v 0.04005147 -0.03495227 0.00869992
v 0.04034514 -0.03486158 0.01565390
v 0.04024434 -0.03673030 0.02016961
v 0.04038027 -0.02803668 -0.00894037
v 0.04109822 -0.03021720 -0.00435959
v 0.04019904 -0.03020782 0.00241776
v 0.04035702 -0.02207212 -0.00884381
v 0.04045377 -0.02483362 -0.00308484
v 0.04038220 -0.01625856 -0.00880243
v 0.04035635 -0.01897794 -0.00403970
v 0.04033941 -0.01025979 -0.00880088
v 0.04041571 -0.01319859 -0.00394209
v 0.04038885 -0.00404581 -0.00875568
v 0.04046225 -0.00711607 -0.00382275
v 0.03979834 0.00082462 -0.00812216
v 0.04013964 -0.00114622 -0.00370334
f 3 2 1
f 5 4 1
f 5 1 2
f 6 4 5
f 9 8 7
f 11 10 7
f 11 7 8
f 13 12 10
f 13 10 11
f 15 14 12
f 15 12 13
f 14 15 3
f 1 14 3
f 16 14 1
f 17 1 4
f 16 1 17
f 4 6 18
f 4 18 17
f 9 7 19
f 9 19 20
f 21 7 10
f 19 7 21
f 22 10 12
f 21 10 22
f 14 24 23
f 22 14 23
f 12 14 22
f 24 14 16
f 24 16 25
f 25 16 17
f 25 17 26
f 26 17 18
f 20 19 27
f 20 27 28
f 29 19 21
f 27 19 29
f 22 31 30
f 29 22 30
f 21 22 29
f 31 22 23
f 28 27 32
f 28 32 33
f 34 27 29
f 32 27 34
f 29 30 35
f 29 35 34
f 33 32 36
f 33 36 37
f 38 32 34
f 36 32 38
f 34 35 39
f 34 39 38
f 37 36 40
f 37 40 41
f 42 36 38
f 40 36 42
f 38 39 43
f 38 43 42
f 41 40 44
f 41 44 45
f 46 40 42
f 44 40 46
f 42 43 47
f 42 47 46
f 48 45 44
f 48 44 46
f 48 46 49
f 49 46 47
f 51 50 2
f 51 2 3
f 2 52 5
f 50 52 2
f 6 5 52
f 6 52 53
f 55 54 8
f 55 8 9
f 8 56 11
f 54 56 8
f 11 57 13
f 56 57 11
f 13 58 15
f 57 58 13
f 3 15 51
f 51 15 58
f 53 18 6
f 59 18 53
f 20 55 9
f 20 60 55
f 62 61 24
f 24 61 23
f 63 24 25
f 63 62 24
f 64 25 26
f 64 63 25
f 26 18 59
f 26 59 64
f 28 60 20
f 28 65 60
f 67 66 31
f 31 66 30
f 31 23 61
f 31 61 67
f 33 65 28
f 33 68 65
f 66 35 30
f 69 35 66
f 37 68 33
f 37 70 68
f 69 39 35
f 71 39 69
f 41 70 37
f 41 72 70
f 71 43 39
f 73 43 71
f 45 72 41
f 45 74 72
f 73 47 43
f 75 47 73
f 76 74 45
f 76 45 48
f 77 48 49
f 77 76 48
f 49 47 75
f 49 75 77
f 80 79 78
f 81 78 79
f 80 78 82
f 80 82 83
f 78 81 84
f 78 84 82
f 83 82 85
f 83 85 86
f 82 84 87
f 82 87 85
f 86 85 88
f 86 88 89
f 85 87 90
f 85 90 88
f 89 88 91
f 89 91 92
f 88 90 93
f 88 93 91
f 92 91 94
f 92 94 95
f 91 93 96
f 91 96 94
f 95 94 97
f 95 97 98
f 94 96 99
f 94 99 97
f 98 97 100
f 98 100 101
f 97 99 102
f 97 102 100
f 103 101 100
f 103 100 102
f 105 104 50
f 105 50 51
f 50 106 52
f 104 106 50
f 53 52 106
f 53 106 107
f 109 108 54
f 109 54 55
f 54 110 56
f 108 110 54
f 56 111 57
f 110 111 56
f 57 112 58
f 111 112 57
f 51 58 105
f 105 58 112
f 107 59 53
f 113 59 107
f 60 109 55
f 60 114 109
f 116 115 62
f 62 115 61
f 117 62 63
f 117 116 62
f 118 63 64
f 118 117 63
f 64 59 113
f 64 113 118
f 65 114 60
f 65 119 114
f 121 120 67
f 67 120 66
f 67 61 115
f 67 115 121
f 68 119 65
f 68 122 119
f 120 69 66
f 123 69 120
f 70 122 68
f 70 124 122
f 123 71 69
f 125 71 123
f 72 124 70
f 72 126 124
f 125 73 71
f 127 73 125
f 74 126 72
f 74 128 126
f 127 75 73
f 129 75 127
f 130 128 74
f 130 74 76
f 131 76 77
f 131 130 76
f 77 75 129
f 77 129 131
f 133 132 79
f 133 79 80
f 81 79 132
f 81 132 134
f 137 136 135
f 139 138 135
f 139 135 136
f 141 140 138
f 141 138 139
f 143 142 140
f 143 140 141
f 143 133 142
f 133 83 142
f 133 80 83
f 134 84 81
f 144 84 134
f 137 135 145
f 137 145 146
f 147 135 138
f 145 135 147
f 140 149 148
f 147 140 148
f 138 140 147
f 149 140 142
f 149 142 150
f 83 86 142
f 86 151 142
f 151 150 142
f 151 86 152
f 144 151 152
f 87 144 152
f 84 144 87
f 146 145 153
f 146 153 154
f 155 145 147
f 153 145 155
f 147 148 156
f 147 156 155
f 89 157 152
f 89 152 86
f 157 90 87
f 157 87 152
f 154 153 158
f 154 158 159
f 160 153 155
f 158 153 160
f 155 156 161
f 155 161 160
f 92 162 157
f 92 157 89
f 162 93 90
f 162 90 157
f 159 158 163
f 159 163 164
f 165 158 160
f 163 158 165
f 160 161 166
f 160 166 165
f 95 167 162
f 95 162 92
f 167 96 93
f 167 93 162
f 164 163 168
f 164 168 169
f 170 163 165
f 168 163 170
f 165 166 171
f 172 165 171
f 170 165 172
f 174 173 172
f 174 172 171
f 174 175 167
f 98 174 167
f 95 98 167
f 173 174 98
f 96 167 175
f 176 96 175
f 99 96 176
f 169 168 177
f 169 177 178
f 179 168 170
f 177 168 179
f 180 170 172
f 179 170 180
f 181 172 173
f 180 172 181
f 101 181 98
f 98 181 173
f 176 102 99
f 182 102 176
f 183 178 177
f 183 177 179
f 183 179 184
f 184 179 180
f 184 180 185
f 185 180 181
f 185 181 186
f 186 181 101
f 103 186 101
f 187 186 103
f 103 102 182
f 103 182 187
f 189 188 104
f 189 104 105
f 104 190 106
f 188 190 104
f 107 106 190
f 107 190 191
f 193 192 108
f 193 108 109
f 108 194 110
f 192 194 108
f 110 195 111
f 194 195 110
f 111 196 112
f 195 196 111
f 105 112 189
f 189 112 196
f 191 113 107
f 197 113 191
f 114 193 109
f 114 198 193
f 200 199 116
f 116 199 115
f 201 116 117
f 201 200 116
f 202 117 118
f 202 201 117
f 118 113 197
f 118 197 202
f 119 198 114
f 119 203 198
f 205 204 121
f 121 204 120
f 121 115 199
f 121 199 205
f 122 203 119
f 122 206 203
f 204 123 120
f 207 123 204
f 124 206 122
f 124 208 206
f 207 125 123
f 209 125 207
f 126 208 124
f 126 210 208
f 209 127 125
f 211 127 209
f 128 210 126
f 128 212 210
f 211 129 127
f 213 129 211
f 214 212 128
f 214 128 130
f 215 130 131
f 215 214 130
f 131 129 213
f 131 213 215
f 217 216 132
f 217 132 133
f 134 132 216
f 134 216 218
f 137 219 136
f 220 139 136
f 220 136 219
f 221 141 139
f 221 139 220
f 222 143 141
f 222 141 221
f 222 223 143
f 223 133 143
f 223 217 133
f 218 144 134
f 224 144 218
f 146 225 219
f 146 219 137
f 219 226 220
f 219 225 226
f 226 148 149
f 221 226 149
f 220 226 221
f 221 149 150
f 221 150 222
f 227 223 222
f 150 227 222
f 151 227 150
f 151 144 224
f 151 224 227
f 154 228 225
f 154 225 146
f 225 229 226
f 225 228 229
f 229 156 148
f 229 148 226
f 159 230 228
f 159 228 154
f 228 231 229
f 228 230 231
f 231 161 156
f 231 156 229
f 164 232 230
f 164 230 159
f 230 233 231
f 230 232 233
f 233 166 161
f 233 161 231
f 169 234 232
f 169 232 164
f 232 235 233
f 232 234 235
f 236 171 166
f 233 236 166
f 235 236 233
f 237 174 171
f 237 171 236
f 238 175 174
f 238 174 237
f 238 176 175
f 178 239 234
f 178 234 169
f 234 240 235
f 234 239 240
f 235 241 236
f 235 240 241
f 236 242 237
f 236 241 242
f 244 238 243
f 238 242 243
f 238 237 242
f 176 238 244
f 245 176 244
f 182 176 245
f 183 239 178
f 239 183 184
f 239 184 240
f 240 184 185
f 240 185 241
f 241 185 186
f 241 186 242
f 246 243 242
f 186 246 242
f 187 246 186
f 187 182 245
f 187 245 246
f 248 247 188
f 248 188 189
f 188 249 190
f 247 249 188
f 191 190 249
f 191 249 250
f 252 251 192
f 252 192 193
f 192 253 194
f 251 253 192
f 194 254 195
f 253 254 194
f 195 255 196
f 254 255 195
f 189 196 248
f 248 196 255
f 250 197 191
f 256 197 250
f 198 252 193
f 198 257 252
f 259 258 200
f 200 258 199
f 260 200 201
f 260 259 200
f 261 201 202
f 261 260 201
f 202 197 256
f 202 256 261
f 203 257 198
f 203 262 257
f 264 263 205
f 205 263 204
f 205 199 258
f 205 258 264
f 206 262 203
f 206 265 262
f 263 207 204
f 266 207 263
f 208 265 206
f 208 267 265
f 266 209 207
f 268 209 266
f 210 267 208
f 210 269 267
f 268 211 209
f 270 211 268
f 212 269 210
f 212 271 269
f 270 213 211
f 272 213 270
f 273 271 212
f 273 212 214
f 274 214 215
f 274 273 214
f 215 213 272
f 215 272 274
f 276 275 216
f 276 216 217
f 218 216 275
f 218 275 277
f 223 276 217
f 223 278 276
f 277 224 218
f 279 224 277
f 280 278 223
f 280 223 227
f 227 224 279
f 227 279 280
f 282 281 244
f 282 244 243
f 245 244 281
f 245 281 283
f 284 282 243
f 284 243 246
f 246 245 283
f 246 283 284
f 286 285 247
f 286 247 248
f 247 287 249
f 285 287 247
f 250 249 287
f 250 287 288
f 290 289 251
f 290 251 252
f 251 291 253
f 289 291 251
f 253 292 254
f 291 292 253
f 254 293 255
f 292 293 254
f 248 255 286
f 286 255 293
f 288 256 250
f 294 256 288
f 257 290 252
f 257 295 290
f 297 296 259
f 259 296 258
f 298 259 260
f 298 297 259
f 299 260 261
f 299 298 260
f 261 256 294
f 261 294 299
f 262 295 257
f 262 300 295
f 302 301 264
f 264 301 263
f 264 258 296
f 264 296 302
f 265 300 262
f 265 303 300
f 301 266 263
f 304 266 301
f 267 303 265
f 267 305 303
f 304 268 266
f 306 268 304
f 269 305 267
f 269 307 305
f 306 270 268
f 308 270 306
f 271 307 269
f 271 309 307
f 308 272 270
f 310 272 308
f 311 309 271
f 311 271 273
f 312 273 274
f 312 311 273
f 274 272 310
f 274 310 312
f 314 313 275
f 314 275 276
f 277 275 313
f 277 313 315
f 278 314 276
f 278 316 314
f 315 279 277
f 317 279 315
f 318 316 278
f 318 278 280
f 280 279 317
f 280 317 318
f 320 319 281
f 320 281 282
f 283 281 319
f 283 319 321
f 322 320 282
f 322 282 284
f 284 283 321
f 284 321 322
f 324 323 285
f 324 285 286
f 285 325 287
f 323 325 285
f 288 287 325
f 288 325 326
f 328 327 289
f 328 289 290
f 289 329 291
f 327 329 289
f 291 330 292
f 329 330 291
f 292 331 293
f 330 331 292
f 286 293 324
f 324 293 331
f 326 294 288
f 332 294 326
f 295 328 290
f 295 333 328
f 335 334 297
f 297 334 296
f 336 297 298
f 336 335 297
f 337 298 299
f 337 336 298
f 299 294 332
f 299 332 337
f 300 333 295
f 300 338 333
f 340 339 302
f 302 339 301
f 302 296 334
f 302 334 340
f 303 338 300
f 303 341 338
f 339 304 301
f 342 304 339
f 305 341 303
f 305 343 341
f 342 306 304
f 344 306 342
f 307 343 305
f 307 345 343
f 344 308 306
f 346 308 344
f 309 345 307
f 309 347 345
f 346 310 308
f 348 310 346
f 349 347 309
f 349 309 311
f 350 311 312
f 350 349 311
f 312 310 348
f 312 348 350
f 352 351 313
f 352 313 314
f 315 313 351
f 315 351 353
f 316 352 314
f 316 354 352
f 353 317 315
f 355 317 353
f 356 354 316
f 356 316 318
f 318 317 355
f 318 355 356
f 358 357 319
f 358 319 320
f 321 319 357
f 321 357 359
f 360 358 320
f 360 320 322
f 322 321 359
f 322 359 360
f 362 361 323
f 362 323 324
f 323 363 325
f 361 363 323
f 326 325 363
f 326 363 364
f 366 365 327
f 366 327 328
f 327 367 329
f 365 367 327
f 329 368 330
f 367 368 329
f 330 369 331
f 368 369 330
f 324 331 362
f 362 331 369
f 364 332 326
f 370 332 364
f 333 366 328
f 333 371 366
f 373 372 335
f 335 372 334
f 374 335 336
f 374 373 335
f 375 336 337
f 375 374 336
f 337 332 370
f 337 370 375
f 338 371 333
f 338 376 371
f 378 377 340
f 340 377 339
f 340 334 372
f 340 372 378
f 341 376 338
f 341 379 376
f 377 342 339
f 380 342 377
f 343 379 341
f 343 381 379
f 380 344 342
f 382 344 380
f 345 381 343
f 345 383 381
f 382 346 344
f 384 346 382
f 347 383 345
f 347 385 383
f 384 348 346
f 386 348 384
f 387 385 347
f 387 347 349
f 388 349 350
f 388 387 349
f 350 348 386
f 350 386 388
f 390 389 351
f 390 351 352
f 353 351 389
f 353 389 391
f 354 390 352
f 354 392 390
f 391 355 353
f 393 355 391
f 394 392 354
f 394 354 356
f 356 355 393
f 356 393 394
f 396 395 357
f 396 357 358
f 359 357 395
f 359 395 397
f 398 396 358
f 398 358 360
f 360 359 397
f 360 397 398
f 400 399 361
f 400 361 362
f 361 401 363
f 399 401 361
f 364 363 401
f 364 401 402
f 404 403 365
f 404 365 366
f 365 405 367
f 403 405 365
f 367 406 368
f 405 406 367
f 368 407 369
f 406 407 368
f 362 369 400
f 400 369 407
f 402 370 364
f 408 370 402
f 371 404 366
f 371 409 404
f 411 410 373
f 373 410 372
f 412 373 374
f 412 411 373
f 413 374 375
f 413 412 374
f 375 370 408
f 375 408 413
f 376 409 371
f 376 414 409
f 416 415 378
f 378 415 377
f 378 372 410
f 378 410 416
f 379 414 376
f 379 417 414
f 415 380 377
f 418 380 415
f 381 417 379
f 381 419 417
f 418 382 380
f 420 382 418
f 383 419 381
f 383 421 419
f 420 384 382
f 422 384 420
f 385 421 383
f 385 423 421
f 422 386 384
f 424 386 422
f 425 423 385
f 425 385 387
f 426 387 388
f 426 425 387
f 388 386 424
f 388 424 426
f 428 427 389
f 428 389 390
f 391 389 427
f 391 427 429
f 392 428 390
f 392 430 428
f 429 393 391
f 431 393 429
f 432 430 392
f 432 392 394
f 394 393 431
f 394 431 432
f 434 433 395
f 434 395 396
f 397 395 433
f 397 433 435
f 436 434 396
f 436 396 398
f 398 397 435
f 398 435 436
f 438 437 399
f 438 399 400
f 399 439 401
f 437 439 399
f 402 401 439
f 402 439 440
f 442 441 403
f 442 403 404
f 403 443 405
f 441 443 403
f 405 444 406
f 443 444 405
f 406 445 407
f 444 445 406
f 400 407 438
f 438 407 445
f 440 408 402
f 446 408 440
f 409 442 404
f 409 447 442
f 449 448 411
f 411 448 410
f 450 411 412
f 450 449 411
f 451 412 413
f 451 450 412
f 413 408 446
f 413 446 451
f 414 447 409
f 414 452 447
f 454 453 416
f 416 453 415
f 416 410 448
f 416 448 454
f 417 452 414
f 417 455 452
f 453 418 415
f 456 418 453
f 419 455 417
f 419 457 455
f 456 420 418
f 458 420 456
f 421 457 419
f 421 459 457
f 458 422 420
f 460 422 458
f 423 459 421
f 423 461 459
f 460 424 422
f 462 424 460
f 463 461 423
f 463 423 425
f 464 425 426
f 464 463 425
f 426 424 462
f 426 462 464
f 466 465 427
f 466 427 428
f 429 427 465
f 429 465 467
f 430 466 428
f 430 468 466
f 467 431 429
f 469 431 467
f 470 468 430
f 470 430 432
f 432 431 469
f 432 469 470
f 472 471 433
f 472 433 434
f 435 433 471
f 435 471 473
f 474 472 434
f 474 434 436
f 436 435 473
f 436 473 474
f 476 475 437
f 476 437 438
f 437 477 439
f 475 477 437
f 440 439 477
f 440 477 478
f 480 479 441
f 480 441 442
f 441 481 443
f 479 481 441
f 443 482 444
f 481 482 443
f 444 483 445
f 482 483 444
f 438 445 476
f 476 445 483
f 478 446 440
f 484 446 478
f 447 480 442
f 447 485 480
f 487 486 449
f 449 486 448
f 488 449 450
f 488 487 449
f 489 450 451
f 489 488 450
f 451 446 484
f 451 484 489
f 452 485 447
f 452 490 485
f 492 491 454
f 454 491 453
f 454 448 486
f 454 486 492
f 455 490 452
f 455 493 490
f 491 456 453
f 494 456 491
f 457 493 455
f 457 495 493
f 494 458 456
f 496 458 494
f 459 495 457
f 459 497 495
f 496 460 458
f 498 460 496
f 461 497 459
f 461 499 497
f 498 462 460
f 500 462 498
f 501 499 461
f 501 461 463
f 502 463 464
f 502 501 463
f 464 462 500
f 464 500 502
f 504 503 465
f 504 465 466
f 467 465 503
f 467 503 505
f 468 504 466
f 468 506 504
f 505 469 467
f 507 469 505
f 468 470 508
f 509 468 508
f 506 468 509
f 510 508 470
f 469 510 470
f 507 510 469
f 509 508 511
f 509 511 512
f 508 510 513
f 508 513 511
f 512 511 514
f 512 514 515
f 511 513 516
f 511 516 514
f 515 514 517
f 515 517 518
f 514 516 519
f 514 519 517
f 518 517 520
f 518 520 521
f 517 519 522
f 517 522 520
f 521 520 471
f 472 521 471
f 523 521 472
f 473 471 520
f 522 473 520
f 524 473 522
f 525 523 472
f 525 472 474
f 474 473 524
f 474 524 525
f 527 526 475
f 527 475 476
f 475 528 477
f 526 528 475
f 478 477 528
f 478 528 529
f 531 530 479
f 531 479 480
f 479 532 481
f 530 532 479
f 481 533 482
f 532 533 481
f 482 534 483
f 533 534 482
f 476 483 527
f 527 483 534
f 529 484 478
f 535 484 529
f 485 531 480
f 485 536 531
f 538 537 487
f 487 537 486
f 539 487 488
f 539 538 487
f 540 488 489
f 540 539 488
f 489 484 535
f 489 535 540
f 490 536 485
f 490 541 536
f 543 542 492
f 492 542 491
f 492 486 537
f 492 537 543
f 493 541 490
f 493 544 541
f 542 494 491
f 545 494 542
f 495 544 493
f 495 546 544
f 545 496 494
f 547 496 545
f 497 546 495
f 497 548 546
f 547 498 496
f 549 498 547
f 499 548 497
f 499 550 548
f 549 500 498
f 551 500 549
f 552 550 499
f 552 499 501
f 553 501 502
f 553 552 501
f 502 500 551
f 502 551 553
f 504 554 503
f 554 505 503
f 556 555 554
f 504 556 554
f 506 556 504
f 505 554 555
f 557 505 555
f 507 505 557
f 509 556 506
f 509 558 556
f 557 510 507
f 559 510 557
f 512 558 509
f 512 560 558
f 559 513 510
f 561 513 559
f 515 560 512
f 515 562 560
f 561 516 513
f 563 516 561
f 518 562 515
f 518 564 562
f 563 519 516
f 565 519 563
f 521 564 518
f 521 566 564
f 565 522 519
f 567 522 565
f 523 566 521
f 523 568 566
f 567 524 522
f 569 524 567
f 570 568 523
f 570 523 525
f 525 524 569
f 525 569 570
f 572 571 526
f 572 526 527
f 526 573 528
f 571 573 526
f 529 528 573
f 529 573 574
f 576 575 530
f 576 530 531
f 530 577 532
f 575 577 530
f 532 578 533
f 577 578 532
f 533 579 534
f 578 579 533
f 527 534 572
f 572 534 579
f 574 535 529
f 580 535 574
f 536 576 531
f 536 581 576
f 583 582 538
f 538 582 537
f 584 538 539
f 584 583 538
f 585 539 540
f 585 584 539
f 540 535 580
f 540 580 585
f 541 581 536
f 541 586 581
f 588 587 543
f 543 587 542
f 543 537 582
f 543 582 588
f 544 586 541
f 544 589 586
f 587 545 542
f 590 545 587
f 546 589 544
f 546 591 589
f 590 547 545
f 592 547 590
f 548 591 546
f 548 593 591
f 592 549 547
f 594 549 592
f 550 593 548
f 550 595 593
f 594 551 549
f 596 551 594
f 597 595 550
f 597 550 552
f 598 552 553
f 598 597 552
f 553 551 596
f 553 596 598
f 556 599 555
f 599 557 555
f 558 600 599
f 558 599 556
f 600 559 557
f 600 557 599
f 560 601 600
f 560 600 558
f 601 561 559
f 601 559 600
f 562 602 601
f 562 601 560
f 602 563 561
f 602 561 601
f 564 603 602
f 564 602 562
f 603 565 563
f 603 563 602
f 566 604 603
f 566 603 564
f 604 567 565
f 604 565 603
f 568 605 604
f 568 604 566
f 605 569 567
f 605 567 604
f 570 605 568
f 605 570 569
f 572 606 571
f 607 573 571
f 607 571 606
f 607 574 573
f 576 608 575
f 609 577 575
f 609 575 608
f 610 578 577
f 610 577 609
f 611 579 578
f 611 578 610
f 606 572 579
f 611 606 579
f 612 606 611
f 606 613 607
f 606 612 613
f 613 580 574
f 613 574 607
f 581 614 608
f 581 608 576
f 608 615 609
f 608 614 615
f 609 616 610
f 609 615 616
f 616 582 583
f 611 616 583
f 610 616 611
f 611 583 584
f 611 584 612
f 612 584 585
f 612 585 613
f 613 585 580
f 586 617 614
f 586 614 581
f 614 618 615
f 614 617 618
f 618 587 588
f 616 618 588
f 615 618 616
f 616 588 582
f 589 619 617
f 589 617 586
f 617 620 618
f 617 619 620
f 620 590 587
f 620 587 618
f 591 621 619
f 591 619 589
f 619 622 620
f 619 621 622
f 622 592 590
f 622 590 620
f 593 623 621
f 593 621 591
f 621 624 622
f 621 623 624
f 624 594 592
f 624 592 622
f 595 625 623
f 595 623 593
f 623 626 624
f 623 625 626
f 626 596 594
f 626 594 624
f 597 625 595
f 625 597 598
f 625 598 626
f 626 598 596

