# https://github.com/mikedh/trimesh
v -0.02401678 -0.01031882 0.00090407
v -0.02231042 -0.01301064 -0.00020285
v -0.02296596 -0.01106095 -0.00215557
v -0.02230496 -0.01234323 0.00231144
v -0.02411771 -0.00667110 -0.00736682
v -0.02229148 -0.00867382 -0.00900473
v -0.02264252 -0.00582312 -0.01072710
v -0.02450067 -0.00739823 -0.00300666
v -0.02264822 -0.00968721 -0.00545748
v -0.02502575 -0.00649957 0.00113180
v -0.02291497 -0.00973882 0.00431851
v -0.02427692 -0.00656951 0.00534151
v -0.02226311 -0.00763063 0.00700443
v -0.02447627 -0.00259135 -0.00818078
v -0.02262668 -0.00152098 -0.01102315
v -0.02503855 -0.00251570 -0.00410206
v -0.02505176 -0.00249087 0.00050915
v -0.02505047 -0.00238995 0.00518057
v -0.02290773 -0.00493642 0.00912263
v -0.02418080 -0.00207989 0.00931190
v -0.02231884 -0.00262821 0.01148527
v -0.02415422 0.00172862 -0.00811014
v -0.02230119 0.00237403 -0.01019932
v -0.02507816 0.00214360 -0.00410944
v -0.02504004 0.00232150 0.00058887
v -0.02500333 0.00165056 0.00460482
v -0.02429373 0.00248801 0.00849669
v -0.02265491 0.00087396 0.01188737
v -0.02296219 0.00470820 -0.00786164
v -0.02235347 0.00744590 -0.00580658
v -0.02419828 0.00566892 -0.00478812
v -0.02449735 0.00637804 -0.00041757
v -0.02426014 0.00602522 0.00455213
v -0.02298732 0.00618660 0.00784871
v -0.02240306 0.00413529 0.01051839
v -0.02267076 0.00893657 -0.00253680
v -0.02266319 0.00926249 0.00173121
v -0.02236510 0.00849032 0.00551960
v -0.01986415 -0.01524835 -0.00793268
v -0.01704062 -0.01778063 -0.00881419
v -0.01863595 -0.01557675 -0.01123043
v -0.01992397 -0.01621672 -0.00351118
v -0.01787907 -0.01792532 -0.00412086
v -0.02044164 -0.01526886 0.00093673
v -0.01780561 -0.01792900 0.00032829
v -0.01999818 -0.01572756 0.00584381
v -0.01770742 -0.01802533 0.00483785
v -0.01985020 -0.01515220 0.01015792
v -0.01777667 -0.01777215 0.00911374
v -0.01776077 -0.01652511 0.01208115
v -0.01961008 -0.01234147 -0.01206102
v -0.01824383 -0.01385749 -0.01314473
v -0.01792675 -0.01075205 -0.01491959
v -0.02091853 -0.01105203 -0.00862924
v -0.02113566 -0.01302057 -0.00388471
v -0.02105940 -0.01143028 0.00536088
v -0.02050449 -0.01153926 0.00937648
v -0.01764382 -0.01429738 0.01431710
v -0.01981772 -0.01126605 0.01342529
v -0.01775108 -0.01150521 0.01641710
v -0.02036281 -0.00754951 -0.01298117
v -0.01849156 -0.00642879 -0.01609771
v -0.01794357 -0.00864593 -0.00011922
v -0.01951276 -0.00585203 0.00037506
v -0.01863060 -0.00657613 -0.00207498
v -0.01791844 -0.00770747 0.00217472
v -0.02099405 -0.00661940 0.01008457
v -0.01989628 -0.00689601 0.01352070
v -0.01830183 -0.00797504 0.01639025
v -0.01976241 -0.00262990 -0.01635715
v -0.01760800 -0.00486745 -0.01799132
v -0.01775466 -0.00214466 -0.01909748
v -0.02102038 -0.00317795 -0.01326326
v -0.01997890 -0.00266729 -0.00271242
v -0.01827693 -0.00114252 -0.00626777
v -0.01798677 -0.00455075 -0.00481569
v -0.02000725 -0.00177899 0.00058146
v -0.01828391 -0.00368302 0.00289675
v -0.02035493 -0.00189047 0.01380841
v -0.01819267 -0.00345614 0.01637809
v -0.01970813 0.00174091 -0.01709524
v -0.01693390 0.00217113 -0.01917679
v -0.02085170 0.00159539 -0.01316143
v -0.01967499 0.00124992 -0.00423535
v -0.01792001 0.00255903 -0.00591698
v -0.01981050 0.00170108 -0.00089804
v -0.01825381 0.00085433 0.00259579
v -0.02048107 0.00318508 0.01357343
v -0.01821590 0.00099241 0.01640652
v -0.01861851 0.00461781 -0.01694168
v -0.01828627 0.00808192 -0.01553062
v -0.02009623 0.00647619 -0.01318484
v -0.02110077 0.00652511 -0.00889714
v -0.01820000 0.00431255 -0.00284740
v -0.01784949 0.00391332 0.00086023
v -0.02118522 0.00713817 0.00946242
v -0.01980554 0.00726781 0.01305808
v -0.01752231 0.00609493 0.01639733
v -0.01959179 0.01045812 -0.01288003
v -0.01760883 0.01138206 -0.01530897
v -0.01996616 0.01082154 -0.00939950
v -0.02039123 0.01079004 -0.00494817
v -0.02037066 0.01156978 -0.00039684
v -0.02040625 0.01095322 0.00466570
v -0.01975104 0.01060264 0.00940656
v -0.01764078 0.01124298 0.01233424
v -0.01772607 0.00898451 0.01438283
v -0.01772592 0.01289144 -0.01271669
v -0.01741454 0.01307215 -0.00776803
v -0.01839769 0.01284341 -0.00317572
v -0.01804912 0.01270393 0.00064902
v -0.01762183 0.01315305 0.00529712
v -0.01772831 0.01347409 0.00966892
v -0.01652272 -0.01540416 -0.01337230
v -0.01296509 -0.01786674 -0.01290862
v -0.01406544 -0.01550190 -0.01578388
v -0.01315777 -0.01846956 -0.00781261
v -0.01385644 -0.01847477 -0.00395656
v -0.01383669 -0.01843124 0.00047947
v -0.01371804 -0.01844802 0.00496091
v -0.01364923 -0.01847559 0.00951208
v -0.01598047 -0.01613820 0.01411567
v -0.01446656 -0.01762267 0.01300885
v -0.01286465 -0.01585779 0.01598253
v -0.01533952 -0.01225979 -0.01681025
v -0.01292928 -0.01414685 -0.01802484
v -0.01301128 -0.01119417 -0.01905917
v -0.01518632 -0.01136894 -0.00390870
v -0.01404793 -0.01113651 -0.00619927
v -0.01342514 -0.01282370 -0.00312993
v -0.01372095 -0.01311727 0.00048503
v -0.01601521 -0.01094766 0.00106096
v -0.01353705 -0.01311028 0.00476246
v -0.01527159 -0.01075384 0.00578336
v -0.01314054 -0.01216276 0.00759194
v -0.01577174 -0.01004998 0.01873007
v -0.01450153 -0.01320294 0.01792840
v -0.01273336 -0.01143159 0.02000786
v -0.01616819 -0.00813411 -0.01761042
v -0.01394598 -0.00627803 -0.01983203
v -0.01518732 -0.00798400 -0.00778548
v -0.01370818 -0.00568901 -0.01082384
v -0.01236286 -0.00905840 -0.00873027
v -0.01665534 -0.00778597 -0.00395997
v -0.01648462 -0.00673838 0.00505901
v -0.01307103 -0.00990926 0.00979321
v -0.01526534 -0.00682332 0.00898532
v -0.01321637 -0.00697828 0.01187822
v -0.01605183 -0.00579470 0.01861764
v -0.01316798 -0.00796712 0.02034972
v -0.01436269 -0.00140116 -0.02035402
v -0.01595775 -0.00366867 -0.00811998
v -0.01365969 -0.00143084 -0.01099540
v -0.01649137 -0.00138792 0.00575337
v -0.01549275 -0.00251163 0.00909315
v -0.01383528 -0.00348862 0.01191897
v -0.01600701 -0.00132718 0.01856276
v -0.01313824 -0.00350564 0.02080034
v -0.01301196 0.00285003 -0.02030111
v -0.01588008 0.00168496 -0.00830588
v -0.01366324 0.00311333 -0.01089688
v -0.01631575 0.00328695 0.00492679
v -0.01545437 0.00208325 0.00920829
v -0.01385903 0.00109253 0.01198686
v -0.01602502 0.00315048 0.01859043
v -0.01336607 0.00176154 0.02081271
v -0.01668526 0.00619551 -0.01791739
v -0.01419603 0.00651356 -0.01934838
v -0.01504155 0.00644481 -0.00808113
v -0.01366882 0.00619764 -0.01043307
v -0.01627521 0.00653601 -0.00435691
v -0.01629828 0.00625665 0.00051815
v -0.01526707 0.00737898 0.00428952
v -0.01513488 0.00602560 0.00841029
v -0.01305446 0.00634106 0.01203055
v -0.01563438 0.00627645 0.01863434
v -0.01319933 0.00643723 0.02002232
v -0.01564829 0.00985476 -0.01767590
v -0.01226411 0.01063524 -0.01916064
v -0.01323740 0.00889500 -0.00896844
v -0.01603783 0.01102211 -0.00451256
v -0.01397908 0.01207187 -0.00687039
v -0.01599219 0.01039238 0.00074773
v -0.01457037 0.01130111 0.00347391
v -0.01366112 0.00904956 0.00641905
v -0.01314142 0.00890637 0.00975232
v -0.01600689 0.01103427 0.01406034
v -0.01369783 0.01121532 0.01640376
v -0.01369787 0.00898912 0.01863306
v -0.01444105 0.01274200 -0.01666668
v -0.01416796 0.01418104 -0.01291297
v -0.01520578 0.01471822 -0.00803485
v -0.01373082 0.01557728 -0.01088440
v -0.01330065 0.01359175 -0.00374630
v -0.01532810 0.01581443 -0.00459668
v -0.01518425 0.01548299 -0.00053166
v -0.01313897 0.01317767 0.00163374
v -0.01544514 0.01515018 0.00385893
v -0.01583183 0.01575928 0.00823248
v -0.01481611 0.01496456 0.01160831
v -0.01366526 0.01346513 0.01410160
v -0.01335110 0.01744547 -0.00836514
v -0.01406122 0.01787345 -0.00288914
v -0.01398410 0.01785009 0.00160012
v -0.01318676 0.01792722 0.00620019
v -0.01263644 0.01722678 0.01045243
v -0.01175342 -0.01652398 -0.01713334
v -0.00847896 -0.01780426 -0.01679812
v -0.00989749 -0.01506679 -0.01917582
v -0.00849036 -0.01844652 -0.01251843
v -0.00915040 -0.01842168 -0.00846593
v -0.00983230 -0.01842465 -0.00450317
v -0.00854610 -0.01800970 0.00039968
v -0.00914305 -0.01837086 0.00506268
v -0.00901010 -0.01838175 0.00961883
v -0.00930275 -0.01794484 0.01418052
v -0.00845407 -0.01645600 0.01715351
v -0.00954673 -0.01129921 -0.02053153
v -0.01217473 -0.01133446 -0.00440497
v -0.01149937 -0.01161747 -0.00046144
v -0.01105825 -0.01180181 0.00443758
v -0.00978964 -0.01278349 0.00905237
v -0.00927524 -0.01143618 0.00749683
v -0.01141254 -0.01179752 0.00962349
v -0.00910560 -0.01172498 0.01201426
v -0.01030851 -0.01404793 0.01875364
v -0.00882593 -0.01171730 0.02048133
v -0.01077185 -0.00723681 -0.02174662
v -0.00847954 -0.00958754 -0.02240308
v -0.00868633 -0.00662731 -0.02357073
v -0.01153098 -0.00707442 -0.01267459
v -0.00910935 -0.00638561 -0.01501516
v -0.00930785 -0.00898109 -0.01185605
v -0.00856764 -0.00901470 -0.00795101
v -0.00971032 -0.00955640 -0.00399395
v -0.00824188 -0.00960856 0.00083281
v -0.00819395 -0.00967266 0.00602535
v -0.01027047 -0.00906288 0.01349038
v -0.01130474 -0.00554268 0.01422893
v -0.00817067 -0.00788959 0.01578199
v -0.00898337 -0.00741310 0.02149633
v -0.01158396 -0.00343215 -0.02203859
v -0.00877230 -0.00231315 -0.02383873
v -0.01148663 -0.00357884 -0.01324389
v -0.00926645 -0.00139345 -0.01543006
v -0.01165226 -0.00118478 0.01420184
v -0.00879216 -0.00350083 0.01590688
v -0.00996389 -0.00430361 0.02280963
v -0.01141531 -0.00100510 0.02312063
v -0.00827276 -0.00322306 0.02468947
v -0.01134305 0.00080232 -0.02200814
v -0.00805042 0.00258609 -0.02362908
v -0.01143400 0.00093753 -0.01314194
v -0.00857189 0.00318977 -0.01529811
v -0.01168712 0.00340474 0.01421646
v -0.00884591 0.00110989 0.01583389
v -0.01105477 0.00253935 0.02279199
v -0.00892758 0.00086030 0.02465617
v -0.01000170 0.00414401 -0.02171427
v -0.00941128 0.00751551 -0.02043108
v -0.01147971 0.00560461 -0.01262048
v -0.00810182 0.00739364 -0.01462292
v -0.01122648 0.00646109 0.01424743
v -0.00881799 0.00545814 0.01555996
v -0.01002499 0.00590587 0.02133685
v -0.00801235 0.00423210 0.02310690
v -0.00828299 0.01198187 -0.01950411
v -0.00992196 0.00911366 -0.01207821
v -0.01103739 0.01081421 -0.00916465
v -0.00837355 0.01141226 -0.01126747
v -0.01207922 0.01131965 0.00470774
v -0.01113646 0.01114781 0.00825506
v -0.01002715 0.01046915 0.01137678
v -0.00854630 0.00856174 0.01390944
v -0.01134764 0.01141942 0.01869443
v -0.00933216 0.01001795 0.02018775
v -0.01042060 0.01367047 -0.01715128
v -0.01140498 0.01564331 -0.01324774
v -0.00844619 0.01595754 -0.01589300
v -0.00933639 0.01258503 -0.00805271
v -0.00877120 0.01368513 -0.00391570
v -0.00988925 0.01375955 0.00062801
v -0.00894317 0.01330219 0.00566548
v -0.00812090 0.01242884 0.00958923
v -0.01165019 0.01613042 0.01351779
v -0.00985582 0.01504957 0.01594350
v -0.00834172 0.01320973 0.01849571
v -0.00930711 0.01794016 -0.01274788
v -0.01115244 0.01994381 -0.00907457
v -0.00818085 0.02023687 -0.01079197
v -0.01174125 0.02022589 -0.00518282
v -0.01169323 0.02021189 -0.00063360
v -0.01136379 0.02017186 0.00363999
v -0.00996447 0.01988117 0.00694767
v -0.00894347 0.01861704 0.01013746
v -0.00879841 0.01722382 0.01370535
v -0.00897050 0.02174419 -0.00747162
v -0.00883526 0.02197029 -0.00313792
v -0.00876644 0.02197574 0.00146963
v -0.00817102 0.02168417 0.00582501
v -0.00366047 -0.01794914 -0.01718237
v -0.00575966 -0.01554927 -0.01992736
v -0.00461209 -0.01844967 -0.01317515
v -0.00520918 -0.01842034 -0.00915542
v -0.00528570 -0.01773943 -0.00410588
v -0.00601280 -0.01545692 0.00032533
v -0.00452394 -0.01451137 -0.00191166
v -0.00524952 -0.01608370 0.00281905
v -0.00441933 -0.01765722 0.00552968
v -0.00449479 -0.01839582 0.00964328
v -0.00433138 -0.01843342 0.01426895
v -0.00693222 -0.01545978 0.01906605
v -0.00504315 -0.01765706 0.01771201
v -0.00413977 -0.01562150 0.02019401
v -0.00646528 -0.01231876 -0.02181321
v -0.00321196 -0.01376345 -0.02213356
v -0.00539300 -0.01053169 -0.02359244
v -0.00670365 -0.01054859 -0.01330935
v -0.00492290 -0.01125241 -0.01530433
v -0.00397384 -0.01288995 -0.01325868
v -0.00350560 -0.01167119 -0.01097030
v -0.00614461 -0.01163047 0.00087080
v -0.00525990 -0.01104658 -0.00165071
v -0.00469698 -0.01260091 0.00308405
v -0.00685197 -0.01140422 0.00979204
v -0.00484288 -0.01277837 0.01323265
v -0.00406014 -0.01146360 0.01174037
v -0.00711150 -0.01113879 0.01472130
v -0.00429363 -0.01132505 0.01586299
v -0.00407397 -0.01162342 0.02131484
v -0.00469813 -0.00701287 -0.02444575
v -0.00343023 -0.00926810 -0.01771830
v -0.00657181 -0.00794027 -0.01692346
v -0.00480505 -0.00605689 -0.01910828
v -0.00563404 -0.00963123 -0.00935312
v -0.00488557 -0.00942179 -0.00476675
v -0.00518243 -0.00935521 0.00492502
v -0.00434750 -0.00965006 0.00926875
v -0.00475924 -0.00724322 0.01648958
v -0.00490540 -0.00861451 0.02274401
v -0.00722859 -0.00632066 0.02341785
v -0.00429761 -0.00654275 0.02462478
v -0.00473780 -0.00234917 -0.02439249
v -0.00709910 -0.00350347 -0.01777539
v -0.00423381 -0.00239858 -0.01951094
v -0.00457483 -0.00281021 0.01688913
v -0.00476278 -0.00252118 0.02555154
v -0.00427409 0.00174586 -0.02434090
v -0.00679974 0.00080387 -0.01759656
v -0.00330800 0.00242217 -0.01916377
v -0.00478274 0.00260929 0.01683824
v -0.00439985 0.00214756 0.02501348
v -0.00744102 0.00629184 -0.02236671
v -0.00416060 0.00618409 -0.02369818
v -0.00547883 0.00406245 -0.01714995
v -0.00447319 0.00707826 -0.01596298
v -0.00468639 0.00726257 0.01574841
v -0.00532596 0.00774539 0.02151311
v -0.00440148 0.00521463 0.02340082
v -0.00427273 0.00824479 -0.02115142
v -0.00443997 0.01033307 -0.01957360
v -0.00712027 0.01053710 -0.01362416
v -0.00430257 0.01056970 -0.01466931
v -0.00428860 0.00963930 0.01435156
v -0.00592262 0.01118227 0.01212643
v -0.00515802 0.01142649 0.02021202
v -0.00715243 0.01506756 -0.01818381
v -0.00394136 0.01492041 -0.01934758
v -0.00530889 0.01255283 -0.01214474
v -0.00510333 0.01390748 -0.00831815
v -0.00639461 0.01513422 -0.00429541
v -0.00416819 0.01579497 -0.00665174
v -0.00715601 0.01554858 -0.00046848
v -0.00679650 0.01567974 0.00382683
v -0.00495443 0.01535140 0.00677892
v -0.00393702 0.01333749 0.00984058
v -0.00477196 0.01513610 0.01612847
v -0.00341124 0.01296215 0.01820286
v -0.00486336 0.01732250 -0.01639790
v -0.00452380 0.01787124 -0.01251970
v -0.00377647 0.01970671 -0.01043841
v -0.00391654 0.01722799 -0.00320373
v -0.00420670 0.01753810 0.00177528
v -0.00366981 0.01709233 0.00523693
v -0.00724105 0.02050548 0.00897350
v -0.00488951 0.01987567 0.01133796
v -0.00406392 0.01791950 0.01390500
v -0.00495323 0.02195699 -0.00836203
v -0.00481403 0.02247518 -0.00424342
v -0.00473163 0.02249873 0.00044122
v -0.00462603 0.02253713 0.00513938
v -0.00427955 0.02168975 0.00918141
v 0.00072553 -0.01792151 -0.01714654
v -0.00125128 -0.01628646 -0.01992224
v -0.00019114 -0.01840798 -0.01312272
v -0.00060743 -0.01800765 -0.00791726
v -0.00213293 -0.01607109 -0.00455080
v 0.00033902 -0.01547322 -0.00544354
v -0.00266018 -0.01452613 0.00511752
v -0.00046209 -0.01546983 0.00652622
v 0.00048952 -0.01803333 0.00897711
v 0.00011976 -0.01848570 0.01429454
v -0.00088535 -0.01800345 0.01832949
v 0.00002803 -0.01570924 0.02048149
v 0.00103279 -0.01407095 -0.02210965
v -0.00101872 -0.01122674 -0.02388673
v -0.00131650 -0.01198216 -0.01530589
v -0.00028042 -0.01310144 -0.01293079
v 0.00083228 -0.01158435 -0.01070107
v -0.00249817 -0.01263377 -0.00398685
v -0.00033933 -0.01168331 -0.00545993
v -0.00237833 -0.01099983 0.00579232
v 0.00018038 -0.01162624 0.00665743
v -0.00098652 -0.01147759 0.01217486
v 0.00004731 -0.01309132 0.01443022
v -0.00009881 -0.01138232 0.01604485
v 0.00096917 -0.01222360 0.02138700
v 0.00003627 -0.00717309 -0.02439442
v -0.00120804 -0.00657160 -0.01955928
v 0.00107312 -0.00967387 -0.01772570
v -0.00043707 -0.00969997 -0.00746108
v 0.00014267 -0.00952705 0.00878117
v 0.00047694 -0.00666783 0.01683632
v -0.00110029 -0.00945494 0.02304861
v -0.00000781 -0.00661737 0.02491247
v -0.00008551 -0.00242709 -0.02435612
v -0.00010323 -0.00251297 -0.02004084
v -0.00074508 -0.00393523 0.01838176
v -0.00218121 -0.00112804 0.01875508
v 0.00022560 -0.00155619 0.01974497
v -0.00004673 -0.00253203 0.02556864
v -0.00024045 0.00240415 -0.02441175
v 0.00065851 0.00144704 -0.01992060
v -0.00181257 0.00254717 0.01839234
v -0.00041667 0.00123908 0.01974755
v 0.00047923 0.00141944 0.02552578
v 0.00086558 0.00655480 -0.02393488
v -0.00312825 0.00692820 -0.01833140
v 0.00027375 0.00615509 -0.01976391
v 0.00054533 0.00357593 0.01838313
v -0.00039393 0.00562005 0.01677159
v -0.00203732 0.00744329 0.02270642
v -0.00063446 0.00535716 0.02444469
v -0.00084806 0.00841109 -0.02242975
v -0.00061506 0.00917166 -0.01769674
v -0.00081981 0.01224049 -0.01955936
v 0.00047692 0.01019892 -0.01529484
v -0.00301367 0.01208182 0.01432698
v -0.00044645 0.01055357 0.01630483
v -0.00065539 0.01042676 0.02078709
v 0.00050822 0.00808569 0.02268146
v 0.00088685 0.01539885 -0.01954288
v -0.00067399 0.01334145 -0.01210448
v -0.00269082 0.01596344 -0.00979620
v 0.00044660 0.01579481 -0.01104563
v 0.00071916 0.01396990 0.00968346
v -0.00107629 0.01570911 0.00747297
v 0.00025333 0.01330725 0.01346727
v -0.00072568 0.01590787 0.01565022
v 0.00062297 0.01269168 0.01888796
v -0.00010695 0.01764041 -0.01725863
v -0.00070867 0.01766281 -0.01408914
v -0.00060839 0.01786897 -0.00795256
v 0.00038427 0.02057280 -0.01010721
v 0.00045231 0.01801630 -0.00338409
v -0.00005115 0.01815606 0.00061872
v -0.00001058 0.01758420 0.00470982
v -0.00103336 0.02017720 0.01214736
v 0.00105874 0.01791547 0.01443517
v -0.00026756 0.02200099 -0.00826800
v -0.00014637 0.02248992 -0.00412284
v -0.00002203 0.02244973 0.00059031
v 0.00004343 0.02248859 0.00520262
v 0.00003205 0.02198406 0.00926136
v 0.00517631 -0.01793155 -0.01718155
v 0.00378698 -0.01578261 -0.01989886
v 0.00417648 -0.01838637 -0.01316381
v 0.00437068 -0.01835236 -0.00853009
v 0.00250584 -0.01452648 -0.00405308
v 0.00426779 -0.01765369 -0.00447037
v 0.00508241 -0.01608104 -0.00177450
v 0.00200607 -0.01607102 0.00562512
v 0.00516274 -0.01776530 0.00515724
v 0.00438898 -0.01450770 0.00298562
v 0.00506931 -0.01844525 0.01020370
v 0.00387819 -0.01845453 0.01359768
v 0.00383628 -0.01777316 0.01791081
v 0.00460010 -0.01477429 0.02026197
v 0.00484053 -0.01334616 -0.02177109
v 0.00395313 -0.01088485 -0.02364350
v 0.00431169 -0.01132135 -0.01491247
v 0.00345532 -0.01279149 -0.01274540
v 0.00476953 -0.01129914 -0.01146005
v 0.00213233 -0.01105241 -0.00461379
v 0.00447472 -0.01261768 -0.00201464
v 0.00238314 -0.01259668 0.00512199
v 0.00511569 -0.01101041 0.00279394
v 0.00390066 -0.01176305 0.01164902
v 0.00425718 -0.01313310 0.01405287
v 0.00468569 -0.01051331 0.01579181
v 0.00519703 -0.01085189 0.02133322
v 0.00407146 -0.00656095 -0.02432864
v 0.00321472 -0.00677921 -0.01920558
v 0.00501961 -0.00900916 -0.01734429
v 0.00488973 -0.00941246 -0.00850985
v 0.00488132 -0.00944654 -0.00379025
v 0.00426637 -0.00935964 0.00564408
v 0.00540287 -0.00966376 0.00866979
v 0.00449990 -0.00722185 0.01644775
v 0.00316041 -0.00921741 0.02302122
v 0.00487665 -0.00580474 0.02470888
v 0.00456550 -0.00250685 -0.02439267
v 0.00404760 -0.00263878 -0.01940090
v 0.00161706 -0.00290299 0.01838317
v 0.00455452 -0.00298794 0.01688717
v 0.00398559 -0.00189101 0.02555269
v 0.00452292 0.00223084 -0.02446529
v 0.00401697 0.00174366 -0.01894933
v 0.00198863 0.00082427 0.01874829
v 0.00434860 0.00244479 0.01686203
v 0.00425710 0.00234366 0.02501120
v 0.00532270 0.00577609 -0.02360369
v 0.00384983 0.00475540 -0.01771914
v 0.00241293 0.00791927 -0.01789551
v 0.00484133 0.00642932 -0.01585952
v 0.00427676 0.00680556 0.01588069
v 0.00586343 0.00468620 0.02313175
v 0.00247526 0.00611288 0.02339674
v 0.00365275 0.00784406 0.02159535
v 0.00304599 0.00831475 -0.02161932
v 0.00401984 0.01062064 -0.01985032
v 0.00501695 0.01023827 -0.01454307
v 0.00283039 0.01133853 0.01501645
v 0.00581767 0.00909582 0.01412880
v 0.00408903 0.01141320 0.01249243
v 0.00450373 0.01078975 0.02030546
v 0.00502679 0.01477836 -0.01927721
v 0.00401211 0.01268897 -0.01261072
v 0.00292794 0.01646233 -0.00875962
v 0.00429622 0.01394907 -0.00894631
v 0.00520850 0.01512587 -0.00585208
v 0.00508008 0.01335900 0.00938628
v 0.00327270 0.01571642 0.00721278
v 0.00325306 0.01521178 0.01585713
v 0.00466364 0.01317683 0.01810087
v 0.00403620 0.01736188 -0.01727064
v 0.00334306 0.01777394 -0.01316081
v 0.00468340 0.01967398 -0.01055247
v 0.00338040 0.01702880 -0.00480902
v 0.00403257 0.01748668 -0.00051485
v 0.00411054 0.01725886 0.00381630
v 0.00324582 0.02017617 0.01190187
v 0.00560832 0.01796545 0.01362590
v 0.00444925 0.02207439 -0.00823473
v 0.00454926 0.02255806 -0.00404340
v 0.00465201 0.02246310 0.00073027
v 0.00406721 0.02242556 0.00470657
v 0.00489485 0.02174252 0.00847784
v 0.00948163 -0.01766934 -0.01669781
v 0.00843584 -0.01568393 -0.01916317
v 0.00866917 -0.01845526 -0.01318261
v 0.00885008 -0.01834959 -0.00854646
v 0.00898992 -0.01835654 -0.00400775
v 0.00584595 -0.01545820 0.00072262
v 0.00837838 -0.01801245 0.00065155
v 0.00967162 -0.01844553 0.00558157
v 0.00900305 -0.01841628 0.00952938
v 0.00789894 -0.01793559 0.01445962
v 0.00703798 -0.01641200 0.01818745
v 0.01036724 -0.01605136 0.01681243
v 0.00720534 -0.01109517 -0.02235918
v 0.00873383 -0.01212498 -0.02049813
v 0.00601066 -0.01177804 -0.01308356
v 0.00592713 -0.01164903 0.00021869
v 0.00689688 -0.01143410 0.00972366
v 0.00918187 -0.01140523 0.00728944
v 0.00848871 -0.01278923 0.01023868
v 0.00908860 -0.01183534 0.01183793
v 0.00709112 -0.01219073 0.01358224
v 0.00854940 -0.01448628 0.01908249
v 0.00879681 -0.01205375 0.02039433
v 0.00982850 -0.00907191 -0.02171148
v 0.00784469 -0.00744811 -0.02362462
v 0.00666496 -0.00597550 -0.01759314
v 0.00872664 -0.00726281 -0.01530364
v 0.00876079 -0.00931308 -0.01199073
v 0.00906939 -0.00901838 -0.00855196
v 0.00928947 -0.00944931 -0.00528857
v 0.00805034 -0.00958678 0.00024850
v 0.00859683 -0.00966943 0.00476175
v 0.00927067 -0.00996049 0.01348964
v 0.00812973 -0.00649062 0.01575960
v 0.00647969 -0.00781100 0.02272091
v 0.00980330 -0.00717963 0.02143962
v 0.00861307 -0.00257566 -0.02385010
v 0.00692268 -0.00159163 -0.01745622
v 0.00918511 -0.00340309 -0.01586252
v 0.00862698 -0.00148305 0.01592477
v 0.00858068 -0.00516504 0.02341932
v 0.00829263 -0.00179765 0.02478386
v 0.00854435 0.00178243 -0.02358140
v 0.00612842 0.00232692 -0.01706254
v 0.00904542 0.00145540 -0.01558135
v 0.00862869 0.00309165 0.01589449
v 0.00821514 0.00206512 0.02447527
v 0.00844709 0.00474433 -0.02241699
v 0.00644426 0.00742892 -0.02177769
v 0.00952665 0.00647296 -0.02055631
v 0.00905537 0.00613661 -0.01450715
v 0.00819104 0.00651934 0.01546326
v 0.00866276 0.00661864 0.02133410
v 0.00952809 0.00363453 0.02284780
v 0.00932429 0.01124696 -0.01954810
v 0.00918804 0.00889940 -0.01256932
v 0.00681694 0.01162971 -0.01252554
v 0.00946391 0.01083637 -0.01041941
v 0.00869226 0.00842793 0.01420199
v 0.00805677 0.01072405 0.01188487
v 0.00891821 0.01063084 0.02013345
v 0.00903738 0.01404253 -0.01745150
v 0.00679098 0.01607450 -0.01713560
v 0.00949212 0.01532410 -0.01504052
v 0.00847018 0.01264817 -0.00876177
v 0.00658475 0.01548830 -0.00256109
v 0.00888337 0.01359624 -0.00420665
v 0.00692327 0.01561352 0.00169319
v 0.00915294 0.01383509 -0.00008386
v 0.00626597 0.01532026 0.00553096
v 0.00924956 0.01330758 0.00444661
v 0.00891984 0.01246971 0.00861165
v 0.00801777 0.01536384 0.01649205
v 0.00870525 0.01317787 0.01879038
v 0.00865895 0.01759656 -0.01316827
v 0.00950447 0.01999003 -0.01030874
v 0.00951791 0.01866597 0.00942211
v 0.00650809 0.01986648 0.01048667
v 0.00853888 0.02046539 0.00784294
v 0.00970485 0.01732723 0.01303285
v 0.00818901 0.02164527 -0.00869750
v 0.00860379 0.02206088 -0.00511339
v 0.00869624 0.02196597 -0.00039305
v 0.00834296 0.02173056 0.00458332
v 0.01138231 -0.01554324 -0.01803911
v 0.01387411 -0.01567385 -0.01540927
v 0.01360568 -0.01779045 -0.01264301
v 0.01346503 -0.01844923 -0.00849008
v 0.01359206 -0.01841824 -0.00392718
v 0.01366589 -0.01845335 0.00052171
v 0.01369664 -0.01846565 0.00500872
v 0.01301719 -0.01843209 0.00886237
v 0.01296267 -0.01767519 0.01322636
v 0.01328811 -0.01606387 0.01603443
v 0.01408832 -0.01342874 -0.01731055
v 0.01236078 -0.01236120 -0.01904711
v 0.01166291 -0.01165200 -0.00291128
v 0.01299156 -0.01143322 -0.00544967
v 0.01392288 -0.01296027 -0.00323738
v 0.01364204 -0.01310739 0.00030205
v 0.01142903 -0.01152214 0.00134941
v 0.01253844 -0.01279613 0.00527101
v 0.01109317 -0.01147471 0.00447187
v 0.01402131 -0.01114328 0.00760124
v 0.01142720 -0.01173928 0.00954778
v 0.01309139 -0.01383208 0.01794405
v 0.01289582 -0.01021580 0.02011585
v 0.01120767 -0.00575450 -0.02203573
v 0.01342608 -0.00752160 -0.01978844
v 0.01176776 -0.00647758 -0.01337534
v 0.01304260 -0.00743001 -0.01111307
v 0.01269854 -0.00931081 -0.00812291
v 0.01286512 -0.00911150 0.01073716
v 0.01132855 -0.00710104 0.01364492
v 0.01357008 -0.00568187 0.01173456
v 0.01345622 -0.00630851 0.02025322
v 0.01147931 -0.00145389 -0.02206147
v 0.01373877 -0.00310101 -0.02047015
v 0.01315372 -0.00227497 -0.01512071
v 0.01398995 -0.00518669 -0.01245028
v 0.01138064 -0.00367773 0.01425903
v 0.01360194 -0.00143102 0.01203207
v 0.01084243 -0.00277910 0.02283764
v 0.01317268 -0.00195490 0.02084548
v 0.01075493 0.00236280 -0.02174409
v 0.01395497 0.00144973 -0.01987240
v 0.01305117 0.00283094 -0.01551690
v 0.01148104 0.00086617 0.01428406
v 0.01364912 0.00318361 0.01204301
v 0.01120823 0.00076856 0.02316029
v 0.01300475 0.00314022 0.02091497
v 0.01309274 0.00670344 -0.01942460
v 0.01370531 0.00492141 -0.01396592
v 0.01108450 0.00648925 -0.01296242
v 0.01306060 0.00617409 -0.01127300
v 0.01100993 0.00641878 0.01370621
v 0.01334461 0.00706659 0.01136083
v 0.01263583 0.00727411 0.02017176
v 0.01353174 0.01040555 -0.01904332
v 0.01162166 0.01133395 -0.00774966
v 0.01232635 0.00901212 -0.00918670
v 0.01454976 0.01132355 -0.00674943
v 0.01143224 0.01116154 0.00641735
v 0.01364014 0.00961636 0.00474371
v 0.01366469 0.01205502 0.00349429
v 0.01125851 0.01019320 0.01023763
v 0.01344829 0.00868218 0.00829872
v 0.01368338 0.00868452 0.01870180
v 0.01136838 0.01161183 0.01830267
v 0.01356000 0.01108280 0.01634319
v 0.01323551 0.01280906 -0.01720694
v 0.01333186 0.01412432 -0.01350180
v 0.01134626 0.01556780 -0.01298362
v 0.01371438 0.01566299 -0.01069355
v 0.01305219 0.01319245 -0.00499431
v 0.01310340 0.01359089 0.00032866
v 0.01338287 0.01357732 0.01398022
v 0.01141797 0.01478690 0.01485716
v 0.01311901 0.01561400 0.01230814
v 0.01274920 0.01795939 -0.00914001
v 0.01124779 0.02031234 -0.00729490
v 0.01387220 0.01785260 -0.00511594
v 0.01157030 0.02020893 -0.00293059
v 0.01389410 0.01781477 -0.00059774
v 0.01153317 0.02012402 0.00168605
v 0.01326148 0.01789247 0.00458286
v 0.01081225 0.01984616 0.00551053
v 0.01295401 0.01727872 0.00929471
v 0.01576857 -0.01617511 -0.01307858
v 0.01746427 -0.01649453 -0.01101331
v 0.01756572 -0.01770823 -0.00809184
v 0.01758797 -0.01798066 -0.00383449
v 0.01764128 -0.01793781 0.00062269
v 0.01775887 -0.01796324 0.00508901
v 0.01699833 -0.01775475 0.00979297
v 0.01600972 -0.01613376 0.01417422
v 0.01872593 -0.01553378 0.01221091
v 0.01555246 -0.01003057 -0.01753015
v 0.01697068 -0.01203372 -0.01524223
v 0.01779384 -0.01437979 -0.01267748
v 0.01501714 -0.01078883 -0.00489678
v 0.01578778 -0.01098822 -0.00014485
v 0.01508476 -0.01137088 0.00469129
v 0.01746152 -0.01356189 0.01525015
v 0.01579927 -0.01154103 0.01811505
v 0.01808728 -0.01013023 0.01623741
v 0.01655202 -0.00643336 -0.01793134
v 0.01808638 -0.00819831 -0.01559263
v 0.01513319 -0.00670897 -0.00882842
v 0.01641752 -0.00702334 -0.00459146
v 0.01768720 -0.00801636 -0.00145966
v 0.01771853 -0.00865230 0.00125604
v 0.01841473 -0.00654927 0.00332639
v 0.01648828 -0.00776597 0.00500654
v 0.01506341 -0.00798775 0.00859872
v 0.01574928 -0.00806059 0.01871938
v 0.01794740 -0.00581788 0.01649573
v 0.01843861 -0.00489263 -0.01704557
v 0.01682310 -0.00282777 -0.01899055
v 0.01584325 -0.00175877 -0.01279559
v 0.01622181 -0.00249078 -0.00821607
v 0.01768644 -0.00275402 -0.00587877
v 0.01837081 -0.00516364 -0.00353350
v 0.01772918 -0.00455208 0.00600854
v 0.01770934 -0.00180455 0.00665857
v 0.01575944 -0.00309974 0.00878173
v 0.01571652 -0.00354618 0.01864700
v 0.01796106 -0.00139780 0.01645503
v 0.01708754 -0.00047586 -0.01729341
v 0.01518338 0.00234526 -0.01762870
v 0.01812665 0.00113858 -0.01533167
v 0.01574897 0.00305181 -0.01246805
v 0.01610363 0.00234764 -0.00841169
v 0.01797558 0.00091496 -0.00625303
v 0.01629719 0.00234057 0.00606762
v 0.01839476 0.00019573 0.00464406
v 0.01769470 0.00288866 0.00258782
v 0.01513609 0.00143006 0.00976783
v 0.01583038 0.00093914 0.01865536
v 0.01802866 0.00300360 0.01648148
v 0.01552016 0.00688677 -0.01712485
v 0.01767598 0.00537656 -0.01485892
v 0.01494628 0.00677705 -0.00796165
v 0.01764295 0.00396858 -0.00452091
v 0.01604048 0.00675683 -0.00352404
v 0.01611644 0.00601469 0.00141788
v 0.01796166 0.00434962 -0.00085202
v 0.01505968 0.00720344 0.00509863
v 0.01495969 0.00533496 0.00917873
v 0.01548478 0.00620012 0.01810682
v 0.01776962 0.00679358 0.01581083
v 0.01598511 0.01135997 -0.01714951
v 0.01831505 0.00996320 -0.01522358
v 0.01599081 0.01075642 -0.00464664
v 0.01573615 0.01062125 0.00073486
v 0.01836027 0.00919310 0.01352029
v 0.01577515 0.01119526 0.01408627
v 0.01776981 0.01197217 0.01152063
v 0.01720993 0.01281699 -0.01394420
v 0.01718585 0.01318391 -0.00876673
v 0.01520473 0.01511254 -0.00704413
v 0.01795741 0.01260401 -0.00392587
v 0.01506749 0.01543997 -0.00291697
v 0.01816360 0.01282006 -0.00002711
v 0.01512970 0.01580906 0.00118092
v 0.01747101 0.01298554 0.00389790
v 0.01548061 0.01510458 0.00524264
v 0.01804803 0.01336439 0.00820503
v 0.01578497 0.01481577 0.01012485
v 0.01969659 -0.01477572 -0.00858004
v 0.01972003 -0.01623762 -0.00442679
v 0.02027627 -0.01526290 0.00004774
v 0.01986984 -0.01562171 0.00514142
v 0.01977461 -0.01558900 0.00935755
v 0.01951114 -0.01123981 -0.01240931
v 0.02079571 -0.01073233 -0.00931802
v 0.02096927 -0.01258740 -0.00462040
v 0.02214342 -0.01232254 -0.00140993
v 0.02213795 -0.01300630 0.00116203
v 0.02088953 -0.01206823 0.00486094
v 0.02274846 -0.01108795 0.00301983
v 0.02030631 -0.01151247 0.00964467
v 0.01967116 -0.01228326 0.01310587
v 0.02029430 -0.00638837 -0.01338401
v 0.02212984 -0.00741952 -0.01033975
v 0.02247990 -0.00911757 -0.00732159
v 0.02279871 -0.01007561 -0.00378340
v 0.01950591 -0.00577320 0.00003465
v 0.02209771 -0.00900316 0.00564971
v 0.02082471 -0.00735715 0.00943617
v 0.02274383 -0.00628435 0.00769757
v 0.01969758 -0.00791084 0.01365226
v 0.01944304 -0.00190180 -0.01643254
v 0.02092559 -0.00182128 -0.01329308
v 0.02251360 -0.00366809 -0.01105295
v 0.01976276 -0.00163181 -0.00320993
v 0.02056861 -0.00249658 0.00052179
v 0.01951508 -0.00302448 0.00387133
v 0.02215452 -0.00425702 0.01040874
v 0.02015186 -0.00350546 0.01357576
v 0.02247090 -0.00106340 0.01185552
v 0.02029338 0.00267539 -0.01310264
v 0.02251244 0.00066107 -0.01072729
v 0.01940231 0.00236106 -0.00317148
v 0.01977127 0.00082085 0.00082211
v 0.02021331 0.00160185 0.01381040
v 0.02220851 0.00250293 0.01146978
v 0.01991335 0.00780855 -0.01266981
v 0.02218203 0.00402870 -0.00929756
v 0.02095222 0.00721582 -0.00837480
v 0.02282774 0.00605501 -0.00657236
v 0.02090138 0.00644402 0.01019084
v 0.02219291 0.00754129 0.00713354
v 0.02281825 0.00486348 0.00918985
v 0.01946684 0.00623849 0.01367943
v 0.01961031 0.01133525 -0.01218092
v 0.01984931 0.01085100 -0.00849216
v 0.02217980 0.00841095 -0.00424349
v 0.02020877 0.01101110 -0.00341852
v 0.02249691 0.00920965 -0.00042017
v 0.02018487 0.01154077 0.00169873
v 0.02250665 0.00895903 0.00386415
v 0.02022164 0.01073540 0.00626456
v 0.01947928 0.01018752 0.01043814
v 0.02385041 -0.01032736 -0.00005603
v 0.02394812 -0.00580624 -0.00826169
v 0.02433305 -0.00711955 -0.00376067
v 0.02485934 -0.00643311 0.00111507
v 0.02411085 -0.00731095 0.00457700
v 0.02432301 -0.00147177 -0.00823205
v 0.02487053 -0.00252067 -0.00426178
v 0.02488508 -0.00241565 0.00052326
v 0.02488480 -0.00241629 0.00521275
v 0.02401621 -0.00318441 0.00872425
v 0.02401762 0.00291106 -0.00752828
v 0.02491127 0.00217485 -0.00404299
v 0.02487294 0.00222200 0.00060309
v 0.02483767 0.00168124 0.00467288
v 0.02413075 0.00156165 0.00899208
v 0.02403222 0.00623127 -0.00366237
v 0.02433111 0.00630566 0.00063876
v 0.02409834 0.00551438 0.00552164
f 3 2 1
f 4 1 2
f 7 6 5
f 9 8 5
f 9 5 6
f 8 9 3
f 1 8 3
f 10 8 1
f 1 4 11
f 12 1 11
f 10 1 12
f 13 12 11
f 7 5 14
f 7 14 15
f 16 5 8
f 14 5 16
f 17 8 10
f 16 8 17
f 18 10 12
f 17 10 18
f 12 13 19
f 20 12 19
f 18 12 20
f 21 20 19
f 15 14 22
f 15 22 23
f 24 14 16
f 22 14 24
f 25 16 17
f 24 16 25
f 26 17 18
f 25 17 26
f 27 18 20
f 26 18 27
f 20 21 28
f 20 28 27
f 29 23 22
f 31 30 29
f 22 31 29
f 24 31 22
f 32 24 25
f 31 24 32
f 33 25 26
f 32 25 33
f 27 35 34
f 33 27 34
f 26 27 33
f 35 27 28
f 36 30 31
f 36 31 32
f 36 32 37
f 37 32 33
f 37 33 38
f 38 33 34
f 41 40 39
f 43 42 39
f 43 39 40
f 45 44 42
f 45 42 43
f 47 46 44
f 47 44 45
f 49 48 46
f 49 46 47
f 50 48 49
f 53 52 51
f 51 52 41
f 39 51 41
f 54 51 39
f 55 39 42
f 54 39 55
f 3 55 2
f 55 44 2
f 55 42 44
f 2 44 4
f 44 56 4
f 44 46 56
f 57 46 48
f 56 46 57
f 48 50 58
f 59 48 58
f 57 48 59
f 60 59 58
f 53 51 61
f 53 61 62
f 7 61 6
f 61 54 6
f 61 51 54
f 6 54 9
f 9 54 55
f 9 55 3
f 65 64 63
f 56 11 4
f 66 63 64
f 11 56 13
f 56 67 13
f 56 57 67
f 68 57 59
f 67 57 68
f 59 60 69
f 59 69 68
f 72 71 70
f 70 71 62
f 61 70 62
f 73 70 61
f 15 73 7
f 7 73 61
f 76 75 74
f 76 74 65
f 74 64 65
f 74 77 64
f 66 64 78
f 78 64 77
f 67 19 13
f 19 67 21
f 67 79 21
f 67 68 79
f 68 69 80
f 68 80 79
f 72 70 81
f 72 81 82
f 83 70 73
f 81 70 83
f 23 83 15
f 15 83 73
f 74 75 84
f 84 75 85
f 74 86 77
f 74 84 86
f 78 77 87
f 87 77 86
f 88 28 79
f 79 28 21
f 79 80 89
f 79 89 88
f 90 82 81
f 92 91 90
f 81 92 90
f 83 92 81
f 29 93 23
f 93 83 23
f 93 92 83
f 85 94 84
f 93 29 30
f 84 94 86
f 86 94 95
f 86 95 87
f 96 34 35
f 28 88 35
f 88 96 35
f 88 97 96
f 88 89 98
f 88 98 97
f 91 92 99
f 91 99 100
f 101 92 93
f 99 92 101
f 36 102 30
f 102 93 30
f 102 101 93
f 37 103 36
f 36 103 102
f 38 104 37
f 37 104 103
f 34 96 38
f 96 104 38
f 96 105 104
f 97 107 106
f 105 97 106
f 96 97 105
f 107 97 98
f 108 100 99
f 108 99 101
f 108 101 109
f 109 101 102
f 109 102 110
f 110 102 103
f 110 103 111
f 111 103 104
f 111 104 112
f 112 104 105
f 112 105 113
f 113 105 106
f 116 115 114
f 40 41 114
f 115 40 114
f 117 40 115
f 40 118 43
f 117 118 40
f 43 119 45
f 118 119 43
f 45 120 47
f 119 120 45
f 47 121 49
f 120 121 47
f 123 122 50
f 49 123 50
f 121 123 49
f 124 122 123
f 127 126 125
f 125 126 116
f 125 116 114
f 53 125 114
f 52 53 114
f 52 114 41
f 130 129 128
f 132 131 128
f 128 131 130
f 134 133 132
f 132 133 131
f 134 135 133
f 122 58 50
f 137 136 60
f 137 60 58
f 124 137 58
f 122 124 58
f 138 136 137
f 127 125 139
f 127 139 140
f 62 139 53
f 53 139 125
f 143 142 141
f 143 141 129
f 141 128 129
f 141 144 128
f 144 65 63
f 132 144 63
f 128 144 132
f 132 63 66
f 145 132 66
f 134 132 145
f 135 134 146
f 134 147 146
f 134 145 147
f 147 148 146
f 149 69 136
f 136 69 60
f 136 138 150
f 136 150 149
f 140 139 71
f 72 140 71
f 151 140 72
f 71 139 62
f 141 142 152
f 152 142 153
f 152 75 76
f 144 152 76
f 141 152 144
f 144 76 65
f 78 154 145
f 78 145 66
f 145 155 147
f 145 154 155
f 148 147 156
f 156 147 155
f 157 80 149
f 149 80 69
f 149 150 158
f 149 158 157
f 82 151 72
f 82 159 151
f 152 153 160
f 160 153 161
f 160 85 75
f 160 75 152
f 87 162 154
f 87 154 78
f 154 163 155
f 154 162 163
f 156 155 164
f 164 155 163
f 165 89 157
f 157 89 80
f 157 158 166
f 157 166 165
f 82 90 167
f 168 82 167
f 159 82 168
f 91 167 90
f 160 161 169
f 169 161 170
f 171 94 85
f 160 171 85
f 169 171 160
f 172 95 94
f 172 94 171
f 162 87 95
f 172 162 95
f 173 162 172
f 162 174 163
f 162 173 174
f 164 163 175
f 175 163 174
f 176 98 165
f 165 98 89
f 165 166 177
f 165 177 176
f 168 167 178
f 168 178 179
f 100 178 91
f 91 178 167
f 170 180 169
f 182 181 180
f 181 169 180
f 181 171 169
f 171 183 172
f 171 181 183
f 185 173 184
f 173 183 184
f 173 172 183
f 173 185 174
f 174 185 186
f 187 106 107
f 186 175 174
f 188 187 107
f 188 107 98
f 189 188 98
f 176 189 98
f 189 176 177
f 190 179 178
f 190 178 100
f 108 190 100
f 191 190 108
f 193 191 192
f 191 109 192
f 191 108 109
f 110 181 109
f 182 109 181
f 109 182 192
f 194 192 182
f 192 194 195
f 197 196 194
f 195 194 196
f 181 111 183
f 111 181 110
f 112 183 111
f 183 112 184
f 198 184 112
f 184 198 197
f 196 197 198
f 113 199 112
f 112 199 198
f 200 199 113
f 200 113 106
f 201 200 106
f 187 201 106
f 201 187 188
f 202 193 192
f 202 192 195
f 202 195 203
f 203 195 196
f 203 196 204
f 204 196 198
f 204 198 205
f 205 198 199
f 205 199 206
f 206 199 200
f 209 208 207
f 115 116 207
f 208 115 207
f 210 115 208
f 115 211 117
f 210 211 115
f 117 212 118
f 211 212 117
f 118 213 119
f 212 213 118
f 119 214 120
f 213 214 119
f 120 215 121
f 214 215 120
f 121 216 123
f 215 216 121
f 124 123 216
f 124 216 217
f 209 207 126
f 127 209 126
f 218 209 127
f 126 207 116
f 219 129 130
f 131 220 130
f 130 220 219
f 133 221 131
f 131 221 220
f 223 221 222
f 221 133 222
f 135 224 222
f 135 222 133
f 224 225 222
f 217 226 124
f 124 226 137
f 138 137 226
f 138 226 227
f 230 229 228
f 229 218 228
f 218 140 228
f 218 127 140
f 233 232 231
f 142 143 231
f 143 233 231
f 143 234 233
f 143 129 219
f 235 143 219
f 234 143 235
f 235 219 220
f 235 220 236
f 236 220 221
f 236 221 237
f 135 146 224
f 221 223 237
f 239 238 148
f 148 238 146
f 238 225 146
f 225 224 146
f 239 240 238
f 227 150 138
f 241 150 227
f 230 228 242
f 230 242 243
f 151 242 140
f 140 242 228
f 231 232 244
f 244 232 245
f 244 153 142
f 244 142 231
f 156 246 239
f 156 239 148
f 240 239 247
f 247 239 246
f 249 158 248
f 158 241 248
f 158 150 241
f 250 249 248
f 243 242 251
f 243 251 252
f 159 251 151
f 151 251 242
f 244 245 253
f 253 245 254
f 253 161 153
f 253 153 244
f 164 255 246
f 164 246 156
f 247 246 256
f 256 246 255
f 257 166 249
f 249 166 158
f 249 250 258
f 249 258 257
f 259 252 251
f 251 159 259
f 159 260 259
f 159 168 260
f 253 254 261
f 261 254 262
f 261 170 161
f 261 161 253
f 175 263 255
f 175 255 164
f 256 255 264
f 264 255 263
f 266 265 257
f 265 166 257
f 265 177 166
f 266 257 258
f 179 260 168
f 179 267 260
f 262 268 261
f 268 270 269
f 268 269 180
f 261 268 180
f 170 261 180
f 269 182 180
f 184 271 185
f 272 186 185
f 272 185 271
f 272 273 186
f 186 273 175
f 273 274 175
f 274 263 175
f 275 188 189
f 274 264 263
f 276 275 189
f 177 276 189
f 265 276 177
f 277 267 179
f 277 179 190
f 279 277 278
f 277 191 278
f 277 190 191
f 270 280 269
f 278 191 193
f 269 280 182
f 280 194 182
f 280 281 194
f 194 282 197
f 281 282 194
f 184 197 271
f 197 283 271
f 197 282 283
f 271 283 272
f 272 283 284
f 285 200 201
f 284 273 272
f 286 285 201
f 286 201 188
f 287 286 188
f 275 287 188
f 287 275 276
f 288 279 278
f 290 288 289
f 289 288 202
f 288 278 202
f 278 193 202
f 203 291 202
f 202 291 289
f 204 292 203
f 203 292 291
f 205 293 204
f 204 293 292
f 293 205 294
f 205 295 294
f 205 206 295
f 206 200 285
f 296 206 285
f 295 206 296
f 296 285 286
f 297 290 289
f 297 289 291
f 297 291 298
f 298 291 292
f 298 292 299
f 299 292 293
f 299 293 300
f 300 293 294
f 302 301 208
f 302 208 209
f 208 303 210
f 301 303 208
f 210 304 211
f 303 304 210
f 211 305 212
f 304 305 211
f 305 307 306
f 213 305 306
f 212 305 213
f 213 306 308
f 309 213 308
f 214 213 309
f 214 310 215
f 309 310 214
f 215 311 216
f 310 311 215
f 313 312 217
f 216 313 217
f 311 313 216
f 314 312 313
f 317 316 315
f 316 302 315
f 302 218 315
f 302 209 218
f 320 319 318
f 318 321 320
f 306 307 322
f 322 307 323
f 308 306 324
f 324 306 322
f 325 223 222
f 327 325 326
f 325 222 326
f 225 328 326
f 225 326 222
f 312 226 217
f 329 326 328
f 227 226 312
f 314 227 312
f 330 227 314
f 317 315 229
f 230 317 229
f 331 317 230
f 229 315 218
f 334 333 332
f 332 333 319
f 319 333 318
f 333 232 318
f 232 233 318
f 335 321 318
f 233 335 318
f 234 335 233
f 336 234 235
f 336 335 234
f 236 322 323
f 336 236 323
f 235 236 336
f 337 324 322
f 236 337 322
f 237 337 236
f 237 223 325
f 338 237 325
f 337 237 338
f 225 238 328
f 325 327 338
f 238 240 328
f 240 329 328
f 240 339 329
f 341 241 340
f 241 330 340
f 241 227 330
f 342 341 340
f 243 331 230
f 243 343 331
f 333 334 344
f 344 334 345
f 344 245 232
f 344 232 333
f 247 339 240
f 247 346 339
f 341 248 241
f 250 248 341
f 342 250 341
f 347 250 342
f 252 343 243
f 252 348 343
f 344 345 349
f 349 345 350
f 349 254 245
f 349 245 344
f 256 346 247
f 256 351 346
f 347 258 250
f 352 258 347
f 252 259 353
f 354 252 353
f 348 252 354
f 350 355 349
f 353 259 260
f 254 349 355
f 356 254 355
f 262 254 356
f 264 351 256
f 264 357 351
f 359 358 266
f 266 358 265
f 266 258 352
f 266 352 359
f 360 354 353
f 353 260 360
f 260 361 360
f 260 267 361
f 268 262 362
f 262 363 362
f 262 356 363
f 362 270 268
f 365 364 274
f 365 274 273
f 264 274 357
f 357 274 364
f 358 276 265
f 366 276 358
f 267 277 367
f 368 267 367
f 361 267 368
f 363 369 362
f 367 277 279
f 362 369 270
f 369 280 270
f 369 370 280
f 370 372 371
f 281 370 371
f 280 370 281
f 373 282 281
f 373 281 371
f 374 283 282
f 374 282 373
f 283 374 375
f 376 283 375
f 284 283 376
f 273 284 365
f 365 284 376
f 378 377 287
f 287 377 286
f 287 276 366
f 287 366 378
f 379 368 367
f 379 367 279
f 288 379 279
f 380 379 288
f 288 290 380
f 380 290 381
f 372 382 371
f 371 382 373
f 373 382 383
f 373 383 374
f 374 383 384
f 385 294 295
f 384 375 374
f 385 295 386
f 295 387 386
f 295 296 387
f 296 286 377
f 296 377 387
f 388 381 290
f 388 290 297
f 389 297 298
f 389 388 297
f 390 298 299
f 390 389 298
f 391 299 300
f 391 390 299
f 300 294 385
f 392 300 385
f 391 300 392
f 392 385 386
f 394 393 301
f 394 301 302
f 301 395 303
f 393 395 301
f 303 396 304
f 395 396 303
f 396 398 397
f 305 396 397
f 304 396 305
f 397 307 305
f 308 399 309
f 309 399 400
f 401 309 400
f 310 309 401
f 310 402 311
f 401 402 310
f 311 403 313
f 402 403 311
f 314 313 403
f 314 403 404
f 406 405 316
f 406 316 317
f 302 316 394
f 394 316 405
f 408 407 320
f 320 407 319
f 320 321 408
f 408 321 409
f 397 398 410
f 410 398 411
f 410 323 307
f 410 307 397
f 324 412 399
f 324 399 308
f 400 399 413
f 413 399 412
f 415 414 326
f 326 414 327
f 326 329 415
f 415 329 416
f 404 330 314
f 417 330 404
f 331 406 317
f 331 418 406
f 420 419 332
f 332 419 334
f 332 319 407
f 332 407 420
f 421 409 321
f 421 321 335
f 336 410 411
f 421 336 411
f 335 336 421
f 410 336 323
f 337 412 324
f 422 413 412
f 337 422 412
f 338 422 337
f 338 327 414
f 338 414 422
f 339 416 329
f 339 423 416
f 417 424 330
f 330 424 340
f 342 340 424
f 342 424 425
f 343 418 331
f 343 426 418
f 419 345 334
f 427 345 419
f 346 429 428
f 423 346 428
f 339 346 423
f 429 430 428
f 425 347 342
f 431 347 425
f 348 426 343
f 348 432 426
f 427 350 345
f 433 350 427
f 351 434 429
f 351 429 346
f 430 429 435
f 435 429 434
f 431 352 347
f 436 352 431
f 354 432 348
f 354 437 432
f 355 350 438
f 350 439 438
f 350 433 439
f 438 356 355
f 441 440 434
f 351 441 434
f 357 441 351
f 442 358 359
f 440 435 434
f 443 442 359
f 352 443 359
f 436 443 352
f 444 437 354
f 444 354 360
f 360 439 444
f 439 360 438
f 361 438 360
f 438 361 445
f 446 445 361
f 356 438 445
f 447 356 445
f 363 356 447
f 365 448 364
f 448 449 364
f 449 357 364
f 449 441 357
f 451 450 442
f 450 358 442
f 450 366 358
f 451 442 443
f 368 446 361
f 368 452 446
f 447 453 363
f 363 453 369
f 453 455 454
f 370 453 454
f 369 453 370
f 454 372 370
f 457 456 376
f 457 376 375
f 365 376 448
f 376 458 448
f 376 456 458
f 377 458 459
f 458 377 448
f 378 448 377
f 448 378 449
f 460 449 378
f 378 366 450
f 378 450 460
f 461 452 368
f 461 368 379
f 462 379 380
f 462 461 379
f 380 455 462
f 455 380 454
f 381 454 380
f 454 381 463
f 464 463 381
f 454 463 372
f 463 382 372
f 463 465 382
f 382 466 383
f 465 466 382
f 383 467 384
f 466 467 383
f 375 384 457
f 457 384 467
f 469 468 387
f 387 468 386
f 387 377 459
f 387 459 469
f 470 464 381
f 470 381 388
f 471 388 389
f 471 470 388
f 472 389 390
f 472 471 389
f 473 390 391
f 473 472 390
f 474 391 392
f 474 473 391
f 392 386 468
f 392 468 474
f 476 475 393
f 476 393 394
f 393 477 395
f 475 477 393
f 395 478 396
f 477 478 395
f 480 479 398
f 396 480 398
f 478 480 396
f 481 479 480
f 484 483 482
f 401 400 482
f 483 401 482
f 485 401 483
f 401 486 402
f 485 486 401
f 402 487 403
f 486 487 402
f 404 403 487
f 404 487 488
f 490 489 405
f 490 405 406
f 394 405 476
f 476 405 489
f 492 491 408
f 408 491 407
f 408 409 492
f 492 409 493
f 494 411 479
f 479 411 398
f 479 481 495
f 479 495 494
f 484 482 496
f 484 496 497
f 413 496 400
f 400 496 482
f 499 498 415
f 415 498 414
f 415 416 499
f 499 416 500
f 488 417 404
f 501 417 488
f 418 490 406
f 418 502 490
f 504 503 420
f 420 503 419
f 420 407 491
f 420 491 504
f 505 493 409
f 505 409 421
f 421 411 494
f 506 421 494
f 505 421 506
f 506 494 495
f 507 497 496
f 507 496 413
f 422 507 413
f 508 507 422
f 422 414 498
f 422 498 508
f 423 500 416
f 423 509 500
f 501 510 417
f 417 510 424
f 425 424 510
f 425 510 511
f 426 502 418
f 426 512 502
f 503 427 419
f 513 427 503
f 423 428 514
f 515 423 514
f 509 423 515
f 430 514 428
f 511 431 425
f 516 431 511
f 432 512 426
f 432 517 512
f 513 433 427
f 518 433 513
f 515 514 519
f 515 519 520
f 435 519 430
f 430 519 514
f 516 436 431
f 521 436 516
f 437 517 432
f 437 522 517
f 524 439 523
f 439 518 523
f 439 433 518
f 525 524 523
f 520 519 440
f 441 520 440
f 526 520 441
f 440 519 435
f 529 528 527
f 521 527 528
f 443 521 528
f 436 521 443
f 530 522 437
f 530 437 444
f 444 439 530
f 524 530 439
f 530 524 531
f 445 531 524
f 531 445 446
f 447 445 524
f 525 447 524
f 532 447 525
f 535 534 533
f 534 526 533
f 526 449 533
f 526 441 449
f 528 529 451
f 529 450 451
f 529 536 450
f 528 451 443
f 452 531 446
f 452 537 531
f 532 538 447
f 447 538 453
f 540 539 455
f 453 540 455
f 538 540 453
f 541 539 540
f 543 542 456
f 543 456 457
f 533 458 535
f 458 542 535
f 458 456 542
f 459 458 544
f 533 544 458
f 544 533 545
f 449 545 533
f 545 449 460
f 460 450 536
f 460 536 545
f 546 537 452
f 546 452 461
f 547 461 462
f 547 546 461
f 462 455 547
f 539 547 455
f 547 539 548
f 463 548 539
f 548 463 464
f 541 549 539
f 549 463 539
f 549 465 463
f 465 550 466
f 549 550 465
f 466 551 467
f 550 551 466
f 457 467 543
f 543 467 551
f 553 552 469
f 469 552 468
f 469 459 544
f 469 544 553
f 554 548 464
f 554 464 470
f 555 470 471
f 555 554 470
f 556 471 472
f 556 555 471
f 557 472 473
f 557 556 472
f 558 473 474
f 558 557 473
f 474 468 552
f 474 552 558
f 560 559 475
f 560 475 476
f 475 561 477
f 559 561 475
f 477 562 478
f 561 562 477
f 478 563 480
f 562 563 478
f 565 564 481
f 480 565 481
f 563 565 480
f 483 484 564
f 565 483 564
f 566 483 565
f 483 567 485
f 566 567 483
f 485 568 486
f 567 568 485
f 568 570 569
f 487 568 569
f 486 568 487
f 569 488 487
f 490 571 489
f 571 572 489
f 572 476 489
f 572 560 476
f 573 491 492
f 493 573 492
f 574 495 564
f 564 495 481
f 497 574 484
f 484 574 564
f 577 576 575
f 575 498 577
f 498 499 577
f 579 578 577
f 579 577 499
f 570 580 569
f 579 499 500
f 488 569 580
f 581 488 580
f 501 488 581
f 583 582 571
f 490 583 571
f 502 583 490
f 584 503 504
f 582 572 571
f 585 584 504
f 585 504 491
f 586 585 491
f 573 586 491
f 586 573 493
f 505 586 493
f 587 586 505
f 588 505 506
f 588 587 505
f 506 495 574
f 589 506 574
f 588 506 589
f 589 574 497
f 507 589 497
f 590 589 507
f 508 575 576
f 590 508 576
f 507 508 590
f 579 591 578
f 498 575 508
f 579 500 591
f 500 592 591
f 500 509 592
f 510 501 593
f 501 594 593
f 501 581 594
f 593 511 510
f 512 583 502
f 512 595 583
f 596 513 584
f 584 513 503
f 584 585 597
f 584 597 596
f 515 592 509
f 515 598 592
f 594 599 593
f 511 593 599
f 600 511 599
f 516 511 600
f 517 595 512
f 517 601 595
f 602 518 596
f 596 518 513
f 596 597 603
f 596 603 602
f 520 598 515
f 520 604 598
f 600 521 516
f 605 521 600
f 522 607 606
f 601 522 606
f 517 522 601
f 602 523 518
f 608 606 607
f 525 523 602
f 603 525 602
f 609 525 603
f 526 604 520
f 526 610 604
f 612 611 527
f 527 611 529
f 527 521 605
f 527 605 612
f 530 607 522
f 530 531 607
f 531 608 607
f 531 613 608
f 615 532 614
f 532 609 614
f 532 525 609
f 616 615 614
f 618 617 534
f 618 534 535
f 526 534 610
f 610 534 617
f 611 536 529
f 619 536 611
f 537 621 620
f 613 537 620
f 531 537 613
f 615 538 532
f 622 620 621
f 616 623 615
f 623 538 615
f 623 540 538
f 625 624 541
f 540 625 541
f 623 625 540
f 627 626 624
f 627 624 625
f 629 628 626
f 629 626 627
f 542 543 628
f 629 542 628
f 630 542 629
f 535 542 618
f 618 542 630
f 632 631 545
f 545 631 544
f 545 536 619
f 545 619 632
f 546 621 537
f 633 622 621
f 546 633 621
f 547 633 546
f 547 548 633
f 633 548 634
f 624 549 541
f 549 624 550
f 550 624 626
f 550 626 551
f 551 626 628
f 551 628 543
f 637 636 635
f 552 553 636
f 553 635 636
f 553 638 635
f 553 544 631
f 553 631 638
f 639 634 548
f 639 548 554
f 640 554 555
f 640 639 554
f 641 555 556
f 641 640 555
f 642 556 557
f 642 641 556
f 558 636 637
f 642 558 637
f 557 558 642
f 636 558 552
f 560 643 559
f 559 643 644
f 645 559 644
f 561 559 645
f 561 646 562
f 645 646 561
f 562 647 563
f 646 647 562
f 563 648 565
f 647 648 563
f 565 649 566
f 648 649 565
f 566 650 567
f 649 650 566
f 567 651 568
f 650 651 567
f 570 568 651
f 570 651 652
f 654 653 643
f 560 654 643
f 572 654 560
f 643 653 644
f 657 656 655
f 659 658 655
f 655 658 657
f 661 660 659
f 659 660 658
f 661 576 660
f 576 577 660
f 663 662 660
f 663 660 577
f 578 663 577
f 652 664 570
f 570 664 580
f 581 580 664
f 581 664 665
f 583 666 582
f 666 667 582
f 667 572 582
f 667 654 572
f 668 585 586
f 668 586 669
f 586 670 669
f 586 587 670
f 588 655 656
f 670 588 656
f 587 588 670
f 655 588 589
f 655 589 659
f 659 589 590
f 659 590 661
f 663 671 662
f 576 661 590
f 673 671 672
f 672 671 591
f 671 663 591
f 663 578 591
f 592 672 591
f 665 594 581
f 674 594 665
f 595 675 666
f 595 666 583
f 667 666 676
f 676 666 675
f 678 677 668
f 677 585 668
f 677 597 585
f 678 668 669
f 673 672 679
f 673 679 680
f 598 679 592
f 592 679 672
f 599 594 681
f 594 682 681
f 594 674 682
f 681 600 599
f 601 683 675
f 601 675 595
f 676 675 684
f 684 675 683
f 677 603 597
f 685 603 677
f 680 679 686
f 680 686 687
f 604 686 598
f 598 686 679
f 681 682 688
f 688 682 689
f 688 605 600
f 688 600 681
f 606 683 601
f 606 608 683
f 608 684 683
f 608 690 684
f 692 609 691
f 609 685 691
f 609 603 685
f 693 692 691
f 687 686 694
f 687 694 695
f 610 694 604
f 604 694 686
f 688 689 612
f 689 611 612
f 689 696 611
f 688 612 605
f 613 690 608
f 613 697 690
f 692 614 609
f 699 698 616
f 699 616 614
f 693 699 614
f 692 693 614
f 700 698 699
f 703 702 701
f 705 704 701
f 705 701 702
f 704 705 695
f 704 695 694
f 618 704 694
f 617 618 694
f 617 694 610
f 708 707 706
f 696 706 707
f 619 696 707
f 611 696 619
f 709 697 613
f 709 613 620
f 711 710 622
f 710 620 622
f 710 709 620
f 698 623 616
f 712 710 711
f 700 713 698
f 713 623 698
f 713 625 623
f 625 714 627
f 713 714 625
f 701 629 703
f 629 714 703
f 629 627 714
f 629 701 630
f 630 701 704
f 630 704 618
f 717 716 715
f 715 716 708
f 708 716 707
f 716 631 707
f 631 632 707
f 707 632 619
f 633 711 622
f 719 718 634
f 634 718 633
f 718 712 633
f 712 711 633
f 721 720 719
f 719 720 718
f 723 722 721
f 721 722 720
f 725 724 723
f 723 724 722
f 637 635 725
f 635 724 725
f 635 726 724
f 638 716 717
f 726 638 717
f 635 638 726
f 716 638 631
f 639 719 634
f 719 639 640
f 719 640 721
f 721 640 641
f 721 641 723
f 723 641 642
f 723 642 725
f 725 642 637
f 644 727 645
f 645 727 728
f 729 645 728
f 646 645 729
f 646 730 647
f 729 730 646
f 647 731 648
f 730 731 647
f 648 732 649
f 731 732 648
f 649 733 650
f 732 733 649
f 733 735 734
f 651 733 734
f 650 733 651
f 734 652 651
f 654 736 653
f 736 737 653
f 653 737 644
f 737 738 644
f 738 727 644
f 727 738 728
f 739 656 657
f 658 740 657
f 657 740 739
f 660 741 658
f 658 741 740
f 662 741 660
f 735 742 734
f 742 744 743
f 742 743 664
f 734 742 664
f 652 734 664
f 743 665 664
f 667 745 736
f 667 736 654
f 737 736 746
f 746 736 745
f 747 669 670
f 656 739 670
f 739 747 670
f 739 748 747
f 740 750 749
f 748 740 749
f 739 740 748
f 752 751 750
f 740 752 750
f 741 752 740
f 671 753 662
f 753 741 662
f 753 752 741
f 673 753 671
f 743 744 754
f 754 744 755
f 754 674 665
f 754 665 743
f 757 756 745
f 667 757 745
f 676 757 667
f 758 677 678
f 756 746 745
f 669 747 678
f 747 758 678
f 747 759 758
f 748 761 760
f 759 748 760
f 747 748 759
f 761 748 749
f 762 751 752
f 764 763 762
f 752 764 762
f 753 764 752
f 680 764 673
f 673 764 753
f 754 755 765
f 765 755 766
f 765 682 674
f 765 674 754
f 684 768 767
f 757 684 767
f 676 684 757
f 677 768 685
f 768 677 767
f 758 767 677
f 767 758 769
f 770 769 758
f 771 758 759
f 770 758 771
f 759 760 772
f 759 772 771
f 775 774 773
f 773 774 763
f 764 773 763
f 776 773 764
f 687 776 680
f 680 776 764
f 765 766 777
f 777 766 778
f 777 689 682
f 777 682 765
f 690 779 768
f 690 768 684
f 769 770 780
f 691 780 770
f 780 691 779
f 685 779 691
f 779 685 768
f 691 770 693
f 770 781 693
f 770 771 781
f 771 772 782
f 783 771 782
f 781 771 783
f 785 784 783
f 785 783 782
f 784 785 775
f 773 784 775
f 786 784 773
f 787 773 776
f 786 773 787
f 695 787 687
f 687 787 776
f 777 778 788
f 788 778 789
f 788 696 689
f 788 689 777
f 697 790 779
f 697 779 690
f 780 779 791
f 791 779 790
f 781 699 693
f 699 781 700
f 781 792 700
f 781 783 792
f 793 783 784
f 792 783 793
f 703 793 702
f 793 786 702
f 793 784 786
f 702 786 705
f 705 786 787
f 705 787 695
f 796 795 794
f 794 795 789
f 789 795 788
f 795 708 788
f 708 706 788
f 788 706 696
f 709 790 697
f 797 791 790
f 709 797 790
f 710 797 709
f 799 798 712
f 798 710 712
f 798 797 710
f 798 792 800
f 792 798 700
f 799 700 798
f 700 799 713
f 801 713 799
f 800 793 802
f 793 800 792
f 803 714 801
f 713 801 714
f 802 793 804
f 703 804 793
f 804 703 805
f 714 805 703
f 805 714 803
f 807 806 805
f 805 806 804
f 806 807 796
f 796 807 795
f 807 717 795
f 717 715 795
f 795 715 708
f 718 799 712
f 799 718 720
f 799 720 801
f 801 720 722
f 801 722 803
f 803 722 724
f 803 724 805
f 805 724 726
f 805 726 807
f 807 726 717
f 728 808 729
f 809 730 729
f 809 729 808
f 810 731 730
f 810 730 809
f 811 732 731
f 811 731 810
f 812 733 732
f 812 732 811
f 812 735 733
f 737 813 738
f 808 728 738
f 813 808 738
f 814 808 813
f 808 815 809
f 808 814 815
f 817 810 816
f 810 815 816
f 810 809 815
f 819 818 817
f 818 810 817
f 818 811 810
f 811 820 812
f 811 818 820
f 821 742 735
f 812 821 735
f 820 821 812
f 821 744 742
f 746 822 813
f 746 813 737
f 824 814 823
f 814 822 823
f 814 813 822
f 814 824 815
f 815 824 825
f 826 749 750
f 825 816 815
f 819 827 818
f 826 750 751
f 829 828 827
f 828 818 827
f 828 820 818
f 820 830 821
f 820 828 830
f 830 755 744
f 830 744 821
f 757 831 756
f 822 746 756
f 831 822 756
f 832 822 831
f 823 822 833
f 833 822 832
f 834 760 761
f 749 826 761
f 826 834 761
f 826 835 834
f 762 836 751
f 836 826 751
f 836 835 826
f 829 837 828
f 836 762 763
f 839 838 837
f 838 828 837
f 838 830 828
f 838 766 755
f 838 755 830
f 767 831 757
f 831 767 769
f 840 831 769
f 832 831 840
f 833 832 841
f 841 832 840
f 842 772 834
f 834 772 760
f 843 834 835
f 842 834 843
f 775 843 774
f 843 836 774
f 843 835 836
f 774 836 763
f 838 839 844
f 844 839 845
f 844 778 766
f 844 766 838
f 780 846 840
f 780 840 769
f 841 840 847
f 840 848 847
f 840 846 848
f 842 782 772
f 849 847 848
f 782 842 785
f 785 842 843
f 785 843 775
f 852 851 850
f 852 850 845
f 850 844 845
f 850 853 844
f 853 789 778
f 853 778 844
f 791 854 846
f 791 846 780
f 846 855 848
f 846 854 855
f 849 848 856
f 848 857 856
f 848 855 857
f 859 858 857
f 857 858 856
f 861 860 859
f 859 860 858
f 860 861 851
f 861 850 851
f 861 862 850
f 862 796 794
f 853 862 794
f 850 862 853
f 853 794 789
f 797 854 791
f 854 797 798
f 854 798 855
f 855 798 800
f 855 800 857
f 857 800 802
f 857 802 859
f 859 802 804
f 859 804 861
f 861 804 806
f 861 806 862
f 862 806 796
f 816 863 817
f 863 819 817
f 823 864 824
f 865 825 824
f 865 824 864
f 863 816 825
f 865 863 825
f 866 863 865
f 867 827 819
f 863 867 819
f 866 867 863
f 867 829 827
f 833 868 864
f 833 864 823
f 864 869 865
f 864 868 869
f 865 870 866
f 865 869 870
f 866 871 867
f 866 870 871
f 872 837 829
f 867 872 829
f 871 872 867
f 872 839 837
f 841 873 868
f 841 868 833
f 868 874 869
f 868 873 874
f 869 875 870
f 869 874 875
f 870 876 871
f 870 875 876
f 871 877 872
f 871 876 877
f 877 845 839
f 877 839 872
f 847 873 841
f 873 847 849
f 878 873 849
f 874 873 878
f 874 879 875
f 874 878 879
f 875 880 876
f 875 879 880
f 880 851 852
f 877 880 852
f 876 880 877
f 877 852 845
f 856 878 849
f 878 856 858
f 878 858 879
f 879 858 860
f 879 860 880
f 880 860 851

