# https://github.com/mikedh/trimesh
v -0.02205112 -0.01051236 -0.02141632
v -0.01973843 -0.01356936 -0.02267990
v -0.02051960 -0.01069879 -0.02558839
v -0.02223916 -0.01104449 -0.01529221
v -0.02012266 -0.01451955 -0.01792098
v -0.02181511 -0.01015501 -0.00994724
v -0.02007735 -0.01412610 -0.01264250
v -0.01959916 -0.01223727 -0.00859962
v -0.02198526 -0.01053718 0.01759705
v -0.01957288 -0.01359701 0.01632824
v -0.02030372 -0.01070138 0.01349185
v -0.02249457 -0.01095221 0.02394458
v -0.02010971 -0.01455042 0.02116564
v -0.02203605 -0.01027533 0.02859182
v -0.02030184 -0.01411873 0.02680344
v -0.01888477 -0.01243658 0.03057874
v -0.02212079 -0.00614538 -0.02635305
v -0.01936756 -0.00896589 -0.02856444
v -0.01947667 -0.00537769 -0.03000969
v -0.02286450 -0.00521022 -0.02152582
v -0.02285079 -0.00604195 -0.01657153
v -0.02287732 -0.00593034 -0.01082716
v -0.02033209 -0.00931351 -0.00575429
v -0.02227256 -0.00573722 -0.00467224
v -0.02218087 -0.00502605 0.00161261
v -0.01993326 -0.00842517 -0.00110527
v -0.02214850 -0.00510903 0.00700174
v -0.01987798 -0.00836518 0.00445483
v -0.02218729 -0.00619607 0.01251344
v -0.01992178 -0.00888019 0.00955014
v -0.02285791 -0.00524933 0.01749448
v -0.02306832 -0.00599176 0.02254570
v -0.02249427 -0.00583336 0.02787643
v -0.01959069 -0.00697902 0.03096433
v -0.02244016 -0.00012824 -0.02729493
v -0.01958792 -0.00013472 -0.03028767
v -0.02294922 -0.00016621 -0.02216112
v -0.02281973 -0.00016932 -0.01638440
v -0.02282330 -0.00016022 -0.01071184
v -0.02288290 -0.00012891 -0.00515332
v -0.02292544 -0.00017052 0.00035082
v -0.02292447 -0.00015834 0.00580716
v -0.02287894 -0.00020159 0.01131629
v -0.02288520 -0.00022432 0.01690679
v -0.02299207 -0.00018619 0.02264821
v -0.02239926 -0.00014845 0.02787959
v -0.01885816 -0.00031163 0.03059946
v -0.02256382 0.00558798 -0.02725049
v -0.01963617 0.00546728 -0.03024938
v -0.02306679 0.00566279 -0.02206142
v -0.02285779 0.00566811 -0.01618390
v -0.02276105 0.00488977 -0.01126292
v -0.02218810 0.00585294 -0.00636367
v -0.02212968 0.00475869 -0.00088521
v -0.02213957 0.00468243 0.00451246
v -0.02224753 0.00540640 0.01082884
v -0.02290889 0.00554705 0.01703634
v -0.02300489 0.00563310 0.02283469
v -0.02238242 0.00560210 0.02807194
v -0.02016113 0.00480162 0.03093397
v -0.02206170 0.01006754 -0.02788033
v -0.01860171 0.01144385 -0.03005122
v -0.02249187 0.01064310 -0.02334250
v -0.02225570 0.01071989 -0.01748719
v -0.02191237 0.01017915 -0.01133479
v -0.02030689 0.01034717 -0.00738179
v -0.01990659 0.00852643 -0.00342428
v -0.01986498 0.00805022 0.00174082
v -0.01989194 0.00810229 0.00728209
v -0.02027051 0.00896451 0.01190028
v -0.01955020 0.01185652 0.01469329
v -0.02181536 0.00979551 0.01613756
v -0.02235337 0.01059017 0.02157790
v -0.02204663 0.01066816 0.02704962
v -0.01903494 0.01042562 0.03088013
v -0.02038573 0.01383662 -0.02618073
v -0.02019498 0.01420131 -0.02068104
v -0.02003050 0.01414415 -0.01492836
v -0.01957724 0.01323387 -0.01026065
v -0.02010768 0.01368682 0.01878872
v -0.02025998 0.01421095 0.02421824
v -0.01950048 0.01414395 0.02874493
v -0.01618355 -0.01703636 -0.02669005
v -0.01286848 -0.01880982 -0.02734872
v -0.01456161 -0.01580443 -0.02971894
v -0.01734966 -0.01659267 -0.02155273
v -0.01390153 -0.01907553 -0.02217477
v -0.01733704 -0.01723778 -0.01519438
v -0.01384225 -0.01914120 -0.01642426
v -0.01725336 -0.01627710 -0.00959776
v -0.01382204 -0.01927191 -0.01088246
v -0.01617697 -0.01560938 -0.00448457
v -0.01375770 -0.01889452 -0.00584827
v -0.01352700 -0.01740116 -0.00237070
v -0.01620674 -0.01628031 0.01182925
v -0.01271179 -0.01886489 0.01115668
v -0.01470146 -0.01603502 0.00822791
v -0.01718101 -0.01663088 0.01757714
v -0.01374631 -0.01912817 0.01704363
v -0.01724289 -0.01731634 0.02412926
v -0.01362318 -0.01932221 0.02282366
v -0.01729370 -0.01645761 0.02868407
v -0.01429384 -0.01883736 0.02747948
v -0.01404291 -0.01640980 0.03059782
v -0.01765328 -0.01313311 -0.02719489
v -0.01475715 -0.01103268 -0.03046632
v -0.01812425 -0.01193936 -0.00502260
v -0.01461256 -0.01480913 -0.00032401
v -0.01703813 -0.01168119 0.00074020
v -0.01707637 -0.01205043 0.00719599
v -0.01423185 -0.01430257 0.00415476
v -0.01813679 -0.01273528 0.01226118
v -0.01442698 -0.01067081 0.03107638
v -0.01403035 -0.00598787 -0.03039936
v -0.01572968 -0.00451577 0.03062227
v -0.01503330 -0.00030906 -0.03029198
v -0.01579988 -0.00069137 -0.02114663
v -0.01405863 0.00045953 -0.02407502
v -0.01402693 -0.00239078 -0.02275887
v -0.01457545 -0.00314422 -0.01777139
v -0.01615585 -0.00017006 -0.01641610
v -0.01462859 -0.00272436 -0.01222507
v -0.01579315 0.00030113 -0.01170468
v -0.01413955 -0.00099641 -0.00882164
v -0.01588362 -0.00058024 0.01216880
v -0.01423051 0.00063102 0.00937467
v -0.01421912 -0.00218500 0.01067001
v -0.01459352 -0.00296643 0.01549495
v -0.01611645 -0.00018465 0.01675314
v -0.01447988 -0.00283715 0.02134170
v -0.01586734 -0.00009270 0.02267557
v -0.01433734 -0.00309482 0.02688604
v -0.01607702 -0.00036419 0.02797480
v -0.01440768 0.00582267 -0.03037822
v -0.01458187 0.00230628 -0.02059195
v -0.01459348 0.00275704 -0.01499021
v -0.01411756 0.00188149 -0.01006581
v -0.01463258 0.00229518 0.01267913
v -0.01449221 0.00266316 0.01815373
v -0.01420149 0.00259096 0.02404839
v -0.01496932 0.00263070 0.02861801
v -0.01540626 0.00639959 0.03076534
v -0.01449096 0.01091149 -0.03101672
v -0.01812890 0.01238484 -0.00624633
v -0.01711028 0.01211475 -0.00037022
v -0.01777797 0.01152689 0.00594367
v -0.01811781 0.01167285 0.01113302
v -0.01332453 0.01221643 0.03099395
v -0.01746542 0.01610968 -0.02806109
v -0.01365515 0.01558348 -0.03005797
v -0.01735700 0.01691350 -0.02363415
v -0.01722995 0.01684999 -0.01790897
v -0.01722743 0.01620921 -0.01153529
v -0.01615875 0.01593441 -0.00580669
v -0.01470907 0.01570924 -0.00219083
v -0.01474277 0.01488992 0.00108901
v -0.01359502 0.01696391 0.00267917
v -0.01614530 0.01520215 0.00496228
v -0.01656554 0.01594694 0.01014965
v -0.01721179 0.01588927 0.01555199
v -0.01732598 0.01686121 0.02129524
v -0.01706711 0.01694736 0.02682785
v -0.01550104 0.01557923 0.03059305
v -0.01380158 0.01855967 -0.02628151
v -0.01363787 0.01882568 -0.02088109
v -0.01374320 0.01875904 -0.01522319
v -0.01376236 0.01878728 -0.00965458
v -0.01304963 0.01836789 -0.00447893
v -0.01324659 0.01855493 0.00673327
v -0.01377252 0.01882969 0.01281202
v -0.01375691 0.01880866 0.01835371
v -0.01374431 0.01895611 0.02407665
v -0.01327871 0.01846346 0.02860887
v -0.00851924 -0.02033743 -0.02807502
v -0.00942422 -0.01705405 -0.03045982
v -0.00959836 -0.02045963 -0.02357195
v -0.00960415 -0.02037705 -0.01777315
v -0.00893545 -0.02030086 -0.01132900
v -0.00888752 -0.01975491 -0.00533599
v -0.01179230 -0.01689976 0.00182311
v -0.00898954 -0.01915956 -0.00009024
v -0.01228353 -0.01724690 0.00627930
v -0.00932007 -0.01902888 0.00588617
v -0.00781666 -0.02035280 0.01030138
v -0.00960079 -0.02040618 0.01562518
v -0.00945138 -0.02052352 0.02137765
v -0.00977447 -0.01997075 0.02744089
v -0.00872947 -0.01698243 0.03056111
v -0.00840584 -0.01193584 -0.03011393
v -0.01088390 -0.01061459 -0.01559280
v -0.00918698 -0.01089906 -0.01973484
v -0.00731867 -0.01364513 -0.01684012
v -0.00838587 -0.01355456 -0.01137063
v -0.01080009 -0.01037744 -0.01004433
v -0.00824382 -0.01203841 -0.00790541
v -0.01081955 -0.01031751 0.01777767
v -0.00928997 -0.01076925 0.01362611
v -0.00735564 -0.01350204 0.01650250
v -0.00841602 -0.01347847 0.02252049
v -0.01097174 -0.01064018 0.02398714
v -0.00829672 -0.01403830 0.02779004
v -0.01115592 -0.01159286 0.02855352
v -0.00927784 -0.00848661 -0.02800101
v -0.01129569 -0.00521027 -0.02730650
v -0.00857715 -0.00898701 -0.02385186
v -0.01149237 -0.00628920 -0.02138887
v -0.01252204 -0.00608491 -0.01543853
v -0.01229616 -0.00571498 -0.01032925
v -0.00933331 -0.00954520 -0.00598310
v -0.01112223 -0.00583760 -0.00476381
v -0.00888709 -0.00859042 -0.00129580
v -0.01097685 -0.00503735 0.00153047
v -0.00879020 -0.00850907 0.00433387
v -0.01079269 -0.00573961 0.00656317
v -0.00882566 -0.00897925 0.00965125
v -0.01167697 -0.00608153 0.01203740
v -0.01244833 -0.00579229 0.01784387
v -0.01218633 -0.00636508 0.02276684
v -0.01252061 -0.00718911 0.02793862
v -0.01242928 -0.00014082 -0.02676167
v -0.01214998 0.00056154 -0.00575217
v -0.01165907 -0.00015056 0.00033250
v -0.01219893 -0.00085758 0.00642122
v -0.01114340 0.00614318 -0.02719491
v -0.01219723 0.00512788 -0.02260034
v -0.01242423 0.00632625 -0.01653713
v -0.01233497 0.00496511 -0.01067036
v -0.01095880 0.00655061 -0.00610584
v -0.01092222 0.00483755 -0.00084981
v -0.01095707 0.00477229 0.00455401
v -0.01171795 0.00525254 0.01054239
v -0.01236024 0.00621407 0.01678580
v -0.01208305 0.00616701 0.02256740
v -0.01250780 0.00541942 0.02726998
v -0.00913507 0.00918049 -0.02698430
v -0.00971860 0.01109110 -0.03012416
v -0.01071764 0.00964401 -0.02310957
v -0.00814204 0.01132902 -0.02535725
v -0.01121159 0.01066255 -0.01783108
v -0.01089217 0.01022887 -0.01169372
v -0.00928100 0.01045964 -0.00766804
v -0.00884325 0.00865986 -0.00355188
v -0.00878159 0.00826241 0.00171792
v -0.00883453 0.00832842 0.00724514
v -0.00930766 0.00914731 0.01190538
v -0.01076035 0.00990449 0.01597881
v -0.00826217 0.01160465 0.01377459
v -0.01093027 0.01055752 0.02130913
v -0.01135718 0.01000955 0.02738898
v -0.00781276 0.01776182 -0.03027463
v -0.00803943 0.01316218 -0.02127051
v -0.00851261 0.01357285 -0.01519932
v -0.00767939 0.01314012 -0.01000837
v -0.01276786 0.01696693 -0.00062561
v -0.00783167 0.01317845 0.01777043
v -0.00810108 0.01327034 0.02406734
v -0.00900749 0.01355267 0.02865555
v -0.00871468 0.01677531 0.03056364
v -0.00951546 0.01960617 -0.02729608
v -0.00942194 0.02012708 -0.02211662
v -0.00941585 0.02000288 -0.01640169
v -0.00955371 0.02007504 -0.01084688
v -0.00852414 0.01996188 -0.00500877
v -0.00950743 0.01884915 0.00089473
v -0.00884513 0.01933571 0.00575927
v -0.00887229 0.01997084 0.01079749
v -0.00953231 0.02007726 0.01701755
v -0.00950870 0.02016839 0.02274460
v -0.00916617 0.01995647 0.02794034
v -0.00570788 -0.02281524 -0.02634273
v -0.00156030 -0.02484301 -0.02732631
v -0.00424654 -0.02158985 -0.03002388
v -0.00604331 -0.02267397 -0.02077333
v -0.00245614 -0.02507409 -0.02211129
v -0.00605161 -0.02260308 -0.01497306
v -0.00251571 -0.02495776 -0.01624485
v -0.00535862 -0.02214390 -0.01021339
v -0.00327103 -0.02433375 -0.01174949
v -0.00170133 -0.02255722 -0.00810340
v -0.00578917 -0.02259008 0.01276148
v -0.00156073 -0.02455363 0.01173114
v -0.00354134 -0.02218012 0.00909559
v -0.00608445 -0.02265781 0.01820156
v -0.00257440 -0.02495750 0.01674269
v -0.00582448 -0.02278948 0.02410734
v -0.00239141 -0.02506360 0.02259115
v -0.00578742 -0.02203725 0.02866540
v -0.00295492 -0.02457748 0.02727964
v -0.00265508 -0.02222862 0.03055011
v -0.00268929 -0.01715223 -0.03047194
v -0.00364205 -0.02015150 -0.00540953
v -0.00310173 -0.01952440 0.00030002
v -0.00360196 -0.02021325 0.00567769
v -0.00317413 -0.01768550 0.03091788
v -0.00284092 -0.01392320 -0.02740803
v -0.00622142 -0.01134774 -0.02626487
v -0.00325789 -0.01374938 -0.02168417
v -0.00681792 -0.01192777 -0.02178095
v -0.00244415 -0.01443368 -0.01571554
v -0.00329884 -0.01452157 -0.01086936
v -0.00358649 -0.01389604 -0.00560135
v -0.00645175 -0.01152647 -0.00385828
v -0.00258681 -0.01372942 0.00021243
v -0.00605312 -0.01145119 0.00136660
v -0.00260475 -0.01376621 0.00563128
v -0.00608873 -0.01148543 0.00698906
v -0.00332189 -0.01385314 0.01174880
v -0.00694516 -0.01195266 0.01165886
v -0.00258024 -0.01431411 0.01763291
v -0.00348517 -0.01418204 0.02261783
v -0.00346999 -0.01474495 0.02784472
v -0.00640639 0.01161290 -0.02834115
v -0.00690394 0.01160684 -0.00585649
v -0.00605258 0.01115422 -0.00117561
v -0.00602137 0.01110225 0.00443738
v -0.00647944 0.01115663 0.00971218
v -0.00308928 0.01386858 -0.02668881
v -0.00421161 0.01565743 -0.03032180
v -0.00261878 0.01401562 -0.02131699
v -0.00350268 0.01411517 -0.01648160
v -0.00336613 0.01416010 -0.01089250
v -0.00322052 0.01351131 -0.00483814
v -0.00250034 0.01335188 0.00155059
v -0.00257033 0.01333971 0.00708506
v -0.00363966 0.01347468 0.01270011
v -0.00243919 0.01396861 0.01765206
v -0.00312788 0.01387678 0.02260721
v -0.00433179 0.01449682 0.02785782
v -0.00210850 0.01660746 0.03079202
v -0.00605479 0.02176590 -0.02802314
v -0.00241832 0.02140912 -0.03009428
v -0.00605126 0.02239896 -0.02347724
v -0.00596753 0.02226002 -0.01764376
v -0.00603910 0.02225565 -0.01190800
v -0.00567076 0.02230437 -0.00662115
v -0.00352172 0.02182370 -0.00299442
v -0.00259638 0.01978986 0.00033086
v -0.00462769 0.01981445 0.00597115
v -0.00527118 0.02181437 0.01085975
v -0.00161851 0.02218589 0.00866442
v -0.00612565 0.02223972 0.01559003
v -0.00612241 0.02229996 0.02131453
v -0.00579409 0.02245558 0.02682086
v -0.00343798 0.02074529 0.03072588
v -0.00256416 0.02447134 -0.02615398
v -0.00245169 0.02467182 -0.02058845
v -0.00251615 0.02455391 -0.01481203
v -0.00249299 0.02461216 -0.00915534
v -0.00192012 0.02401412 -0.00482713
v -0.00265999 0.02418867 0.01279962
v -0.00263887 0.02462061 0.01832859
v -0.00263206 0.02476121 0.02419512
v -0.00215007 0.02425126 0.02868304
v 0.00236109 -0.02463699 -0.02671423
v 0.00148040 -0.02180999 -0.03011941
v 0.00170857 -0.02510146 -0.02207462
v 0.00176043 -0.02498185 -0.01619776
v 0.00073629 -0.02456296 -0.01115460
v 0.00274288 -0.02214506 -0.00857211
v 0.00249949 -0.02433307 0.01237327
v 0.00095451 -0.02258567 0.00867730
v 0.00171667 -0.02493001 0.01679779
v 0.00277441 -0.02515255 0.02295715
v 0.00135371 -0.02520701 0.02788230
v 0.00270457 -0.02224131 0.03099174
v 0.00314879 -0.01611087 -0.03024893
v 0.00287155 -0.02017143 -0.00520917
v 0.00240762 -0.01946919 0.00025696
v 0.00294541 -0.02015246 0.00602621
v 0.00251682 -0.01767707 0.03098628
v 0.00256808 -0.01425121 -0.02713257
v 0.00239467 -0.01434385 -0.02221920
v 0.00255127 -0.01439777 -0.01643998
v 0.00259461 -0.01442339 -0.01068462
v 0.00172506 -0.01442908 -0.00586883
v 0.00240808 -0.01382902 -0.00007815
v 0.00262218 -0.01388237 0.00612219
v 0.00237722 -0.01449808 0.01129667
v 0.00239665 -0.01437774 0.01699628
v 0.00233061 -0.01418274 0.02280196
v 0.00230685 -0.01474566 0.02797501
v 0.00315419 0.01358433 -0.02730469
v 0.00160669 0.01675614 -0.03041505
v 0.00237626 0.01395494 -0.02215354
v 0.00245237 0.01402225 -0.01639520
v 0.00246555 0.01407112 -0.01075752
v 0.00254615 0.01412158 -0.00516082
v 0.00259021 0.01413614 0.00045880
v 0.00258801 0.01416280 0.00601404
v 0.00249873 0.01413818 0.01147764
v 0.00252989 0.01400948 0.01694912
v 0.00264233 0.01377324 0.02261208
v 0.00139253 0.01437655 0.02786775
v 0.00264311 0.01729165 0.03098953
v 0.00328997 0.02127689 -0.02993042
v 0.00088759 0.02219940 -0.00260605
v 0.00393044 0.01978785 0.00015651
v 0.00190314 0.01975366 0.00576664
v 0.00275855 0.02173863 0.00912197
v 0.00240490 0.02192021 0.03098084
v 0.00205849 0.02450240 -0.02728251
v 0.00167963 0.02549628 -0.02293795
v 0.00275281 0.02470238 -0.01784623
v 0.00173613 0.02458129 -0.01206878
v 0.00180339 0.02423458 -0.00673216
v 0.00109845 0.02395489 0.01098412
v 0.00229427 0.02471749 0.01617228
v 0.00237465 0.02548573 0.02262361
v 0.00237443 0.02492958 0.02792513
v 0.00515086 -0.02216184 -0.02802520
v 0.00517419 -0.02280513 -0.02347175
v 0.00523589 -0.02266718 -0.01761567
v 0.00492939 -0.02258637 -0.01220275
v 0.00463747 -0.02214880 0.01084859
v 0.00523147 -0.02256451 0.01558949
v 0.00561196 -0.02260270 0.02100185
v 0.00752967 -0.02312360 0.02525075
v 0.00672328 -0.02442639 0.02833391
v 0.00865635 -0.02107859 0.03076749
v 0.00913423 -0.01998150 -0.02674456
v 0.00689314 -0.01815720 -0.03024563
v 0.00866727 -0.02044380 -0.02066565
v 0.00874868 -0.02032727 -0.01494142
v 0.00775468 -0.02022051 -0.00932136
v 0.00879031 -0.01968995 -0.00444952
v 0.00801770 -0.01963855 0.00031910
v 0.00817487 -0.01962180 0.00593420
v 0.00819320 -0.02021743 0.01202316
v 0.00876693 -0.02025561 0.01845676
v 0.00954259 -0.02072885 0.02386116
v 0.00818568 -0.01634675 0.03105771
v 0.00530847 -0.01199108 -0.02827443
v 0.00878841 -0.01139469 -0.03009142
v 0.00848649 -0.01076818 -0.02490517
v 0.00744218 -0.01333102 -0.02173329
v 0.00760133 -0.01373864 -0.01639438
v 0.00768645 -0.01369416 -0.01069204
v 0.00656541 -0.01346438 -0.00469694
v 0.00599442 -0.01185747 0.00029539
v 0.00813724 -0.01143332 -0.00215601
v 0.00539584 -0.01145175 0.00454380
v 0.00855050 -0.01094516 0.00879834
v 0.00745646 -0.01345830 0.01177347
v 0.00749593 -0.01374881 0.01704100
v 0.00743571 -0.01356650 0.02285594
v 0.00771385 -0.01380169 0.02806216
v 0.00848297 -0.00861907 -0.02742261
v 0.00864378 -0.00902832 0.00073348
v 0.00858052 -0.00844736 0.00608607
v 0.00615357 0.01142663 -0.02708229
v 0.00943977 0.00817989 -0.02721111
v 0.00742272 0.01163663 -0.03001316
v 0.00868257 0.01073045 -0.02445591
v 0.00843319 0.01679636 -0.03041634
v 0.00663278 0.01295340 -0.02312636
v 0.00750675 0.01335534 -0.01761059
v 0.00760008 0.01338055 -0.01189341
v 0.00760348 0.01337508 -0.00633655
v 0.00762894 0.01340890 -0.00084750
v 0.00758569 0.01343317 0.00466641
v 0.00755317 0.01342581 0.01023919
v 0.00757728 0.01341980 0.01584323
v 0.00762520 0.01318020 0.02150526
v 0.00713724 0.01368896 0.02751019
v 0.00847001 0.01638635 0.03111249
v 0.00836270 0.02032360 -0.02764653
v 0.00572606 0.02294531 -0.02708010
v 0.00902964 0.02196844 -0.02452489
v 0.00561557 0.02225690 -0.01474014
v 0.00740115 0.02264544 -0.01874201
v 0.00979295 0.02019770 -0.01668027
v 0.00864862 0.01997787 -0.01080145
v 0.00519525 0.02223622 -0.00949816
v 0.00804060 0.01987582 -0.00465741
v 0.00448494 0.02179907 -0.00480279
v 0.00885221 0.01930308 0.00120635
v 0.00805266 0.01923689 0.00597354
v 0.00776076 0.01980623 0.01114769
v 0.00484996 0.02224454 0.01282775
v 0.00875782 0.02030154 0.01665673
v 0.00607308 0.02265397 0.01727760
v 0.00891263 0.02184428 0.02031408
v 0.00780148 0.02192299 0.03056628
v 0.00647998 0.02414970 -0.02272373
v 0.00678247 0.02428933 0.02161456
v 0.00749301 0.02447781 0.02687890
v 0.00999288 -0.02238251 0.02780929
v 0.01370259 -0.01881522 -0.02674137
v 0.01276540 -0.01599418 -0.03005135
v 0.01291224 -0.01923941 -0.02210463
v 0.01293652 -0.01904151 -0.01636294
v 0.01300184 -0.01901992 -0.01077082
v 0.01301134 -0.01907784 -0.00522200
v 0.01303140 -0.01912991 0.00038996
v 0.01305512 -0.01912688 0.00602414
v 0.01308534 -0.01907782 0.01156914
v 0.01302326 -0.01898690 0.01714069
v 0.01307747 -0.01901367 0.02283541
v 0.01259142 -0.01987309 0.02795529
v 0.01423040 -0.01649227 0.03082615
v 0.01361662 -0.01125454 -0.03100681
v 0.01054516 -0.01151638 -0.02155538
v 0.01111199 -0.01162705 -0.01772899
v 0.01123022 -0.01163256 -0.01213511
v 0.01047210 -0.01122514 -0.00597664
v 0.01055859 -0.01160621 0.01186035
v 0.01107738 -0.01163209 0.01561638
v 0.01097319 -0.01153671 0.02138967
v 0.01119638 -0.01142016 0.02697237
v 0.01348591 -0.01188609 0.03085560
v 0.01106668 -0.00614854 -0.02825528
v 0.01473617 -0.00592050 -0.03015399
v 0.01225182 -0.00652742 -0.02532940
v 0.01328676 -0.00870488 -0.02100191
v 0.01400287 -0.00884247 -0.01515653
v 0.01393441 -0.00877848 -0.00956946
v 0.01273129 -0.00800570 -0.00432350
v 0.01153772 -0.00607770 -0.00014237
v 0.01412821 -0.00498780 -0.00219064
v 0.01103850 -0.00563906 0.00428304
v 0.01234971 -0.00674836 0.00830471
v 0.01330473 -0.00879279 0.01241286
v 0.01381008 -0.00882899 0.01823723
v 0.01363244 -0.00868193 0.02413852
v 0.01443108 -0.00853675 0.02873846
v 0.01407396 -0.00389838 -0.02713207
v 0.01372423 -0.00323421 0.00190722
v 0.01414004 -0.00371272 0.00617700
v 0.01163054 0.00529782 -0.02780825
v 0.01432866 0.00289429 -0.02830029
v 0.01318820 0.00579396 -0.02997290
v 0.01321230 0.00505041 -0.02559675
v 0.01172364 0.00651629 0.00123016
v 0.01406985 0.00333086 0.00000945
v 0.01332588 0.00627701 -0.00272069
v 0.01183138 0.00671565 0.00690123
v 0.01368378 0.00282260 0.00418531
v 0.01406001 0.00457690 0.00822546
v 0.01364123 0.01095558 -0.03100053
v 0.01063815 0.01123363 -0.02022475
v 0.01234756 0.00832469 -0.02267050
v 0.01116686 0.01130461 -0.01478343
v 0.01392743 0.00842608 -0.01756716
v 0.01107068 0.01129083 -0.00923972
v 0.01391531 0.00854045 -0.01193507
v 0.01100040 0.01032388 -0.00369354
v 0.01378218 0.00815321 -0.00668910
v 0.01022373 0.01108339 0.00123011
v 0.01029201 0.01045641 0.00602613
v 0.01331004 0.00757848 0.01109199
v 0.01095240 0.01067155 0.01220465
v 0.01107151 0.01122309 0.01863339
v 0.01379862 0.00846384 0.01580596
v 0.01101505 0.01101095 0.02433434
v 0.01380899 0.00837046 0.02156390
v 0.01100431 0.01165799 0.02878735
v 0.01372778 0.00850200 0.02703914
v 0.01434104 0.01073758 0.03087029
v 0.01479704 0.01541871 -0.02990388
v 0.01327435 0.01700535 0.03080946
v 0.01242458 0.01841446 -0.02798055
v 0.01249331 0.01947592 -0.02285546
v 0.00987806 0.02181789 -0.02119343
v 0.01363309 0.01857185 -0.01715226
v 0.01290700 0.01867001 -0.01207228
v 0.01287188 0.01869218 -0.00652679
v 0.01295220 0.01874841 -0.00090090
v 0.01299788 0.01875020 0.00474226
v 0.01305076 0.01868742 0.01029859
v 0.01304422 0.01864201 0.01579456
v 0.01286455 0.01941033 0.02136913
v 0.01066881 0.02240430 0.02453051
v 0.01382204 0.01921448 0.02698298
v 0.01108768 0.02174486 0.02872279
v 0.01661756 -0.01652092 -0.02805959
v 0.01657155 -0.01730747 -0.02358676
v 0.01645346 -0.01711605 -0.01782619
v 0.01652634 -0.01701802 -0.01216085
v 0.01655715 -0.01704577 -0.00659755
v 0.01654916 -0.01708708 -0.00099003
v 0.01656204 -0.01710657 0.00463138
v 0.01657835 -0.01709360 0.01018600
v 0.01656651 -0.01705015 0.01569164
v 0.01661570 -0.01697899 0.02135198
v 0.01635462 -0.01704675 0.02690048
v 0.01951586 -0.01421889 -0.02635270
v 0.01776796 -0.01184691 -0.03017029
v 0.01941097 -0.01447194 -0.02086044
v 0.01935686 -0.01433470 -0.01515316
v 0.01936526 -0.01432275 -0.00958939
v 0.01936387 -0.01432860 -0.00403962
v 0.01936190 -0.01433010 0.00151804
v 0.01935917 -0.01433647 0.00706771
v 0.01935733 -0.01433513 0.01261129
v 0.01945210 -0.01425227 0.01829972
v 0.01958806 -0.01418418 0.02413597
v 0.01886797 -0.01415186 0.02872212
v 0.01893558 -0.01090421 0.03066539
v 0.01956266 -0.00681106 -0.03024712
v 0.01584911 -0.00407410 -0.02252189
v 0.01612101 -0.00520817 -0.01655248
v 0.01616871 -0.00518957 -0.01089784
v 0.01573164 -0.00517342 -0.00569256
v 0.01592367 -0.00417408 0.01094300
v 0.01603571 -0.00532255 0.01679846
v 0.01581547 -0.00529808 0.02267095
v 0.01645240 -0.00505199 0.02797142
v 0.01857348 -0.00580190 0.03053839
v 0.01589290 -0.00013697 -0.02661074
v 0.01820782 -0.00066467 -0.02991936
v 0.01683450 0.00061315 -0.02125501
v 0.01683478 -0.00015023 -0.01642268
v 0.01680829 -0.00012049 -0.01069818
v 0.01679550 -0.00093608 -0.00597977
v 0.01561997 -0.00048034 -0.00038384
v 0.01565373 0.00002834 0.00655663
v 0.01682969 0.00062197 0.01215732
v 0.01679626 -0.00029459 0.01695977
v 0.01657607 -0.00036876 0.02277682
v 0.01719400 -0.00016901 0.02799774
v 0.01941573 0.00012481 0.03033051
v 0.01880629 0.00514445 -0.03032098
v 0.01564972 0.00479571 -0.02168255
v 0.01614984 0.00483820 -0.01628650
v 0.01603298 0.00495160 -0.01058631
v 0.01579547 0.00384888 -0.00472499
v 0.01564734 0.00483367 0.01176086
v 0.01606190 0.00482166 0.01708595
v 0.01589290 0.00471457 0.02288956
v 0.01620193 0.00502403 0.02813413
v 0.01887448 0.00615108 0.03064593
v 0.01892301 0.01061563 -0.02993520
v 0.01815308 0.01216298 0.03074918
v 0.01878626 0.01394089 -0.02797068
v 0.01627712 0.01678442 -0.02619134
v 0.01955006 0.01391077 -0.02344821
v 0.01656965 0.01671622 -0.02060566
v 0.01942914 0.01391201 -0.01758144
v 0.01644445 0.01667682 -0.01481373
v 0.01933372 0.01400443 -0.01184941
v 0.01644791 0.01669993 -0.00922552
v 0.01936022 0.01400690 -0.00628850
v 0.01652943 0.01672272 -0.00369461
v 0.01936731 0.01400173 -0.00074589
v 0.01653787 0.01676086 0.00186082
v 0.01936391 0.01400507 0.00480626
v 0.01657025 0.01675628 0.00746255
v 0.01936580 0.01399903 0.01036223
v 0.01658737 0.01667080 0.01305061
v 0.01936306 0.01398884 0.01592966
v 0.01652339 0.01666496 0.01862613
v 0.01941002 0.01404711 0.02160921
v 0.01660797 0.01670142 0.02427407
v 0.01950531 0.01368966 0.02708686
v 0.01666286 0.01595052 0.02876998
v 0.02139429 -0.01008633 -0.02745968
v 0.02160362 -0.01104203 -0.02231722
v 0.02146448 -0.01092006 -0.01662822
v 0.02145049 -0.01086785 -0.01104020
v 0.02145254 -0.01087154 -0.00549328
v 0.02145219 -0.01087139 0.00005719
v 0.02144794 -0.01087795 0.00560427
v 0.02144392 -0.01087655 0.01114788
v 0.02152656 -0.01073749 0.01679806
v 0.02172504 -0.01058955 0.02265542
v 0.02129348 -0.01121265 0.02737616
v 0.02172666 -0.00485488 -0.02743040
v 0.02224184 -0.00614217 -0.02230650
v 0.02208999 -0.00602243 -0.01657598
v 0.02204808 -0.00591750 -0.01096152
v 0.02205248 -0.00591804 -0.00541143
v 0.02205336 -0.00592090 0.00014010
v 0.02205021 -0.00592752 0.00568980
v 0.02204849 -0.00592483 0.01123561
v 0.02212893 -0.00575982 0.01686785
v 0.02231945 -0.00553749 0.02271535
v 0.02176917 -0.00679476 0.02793908
v 0.02174172 0.00078717 -0.02738571
v 0.02226959 -0.00049578 -0.02220487
v 0.02207290 -0.00030889 -0.01642307
v 0.02200408 -0.00016242 -0.01079376
v 0.02200771 -0.00015925 -0.00524341
v 0.02200988 -0.00016425 0.00030721
v 0.02200773 -0.00016924 0.00585777
v 0.02200539 -0.00016598 0.01140646
v 0.02207426 -0.00001715 0.01703587
v 0.02221888 0.00019635 0.02286255
v 0.02165146 -0.00109744 0.02809800
v 0.02182530 0.00651657 -0.02724808
v 0.02235141 0.00523305 -0.02206891
v 0.02213011 0.00543325 -0.01626117
v 0.02204705 0.00559555 -0.01063055
v 0.02205015 0.00559898 -0.00508280
v 0.02205332 0.00559231 0.00046706
v 0.02205233 0.00558978 0.00601845
v 0.02204832 0.00559155 0.01156783
v 0.02209284 0.00569736 0.01718275
v 0.02222228 0.00581861 0.02295130
v 0.02162924 0.00452809 0.02814610
v 0.02122695 0.01098520 -0.02670719
v 0.02172094 0.01027400 -0.02203026
v 0.02152870 0.01040698 -0.01618885
v 0.02144693 0.01055005 -0.01053938
v 0.02145092 0.01055142 -0.00499384
v 0.02145274 0.01054321 0.00055458
v 0.02145141 0.01054312 0.00610572
v 0.02144845 0.01054257 0.01165388
v 0.02146310 0.01059516 0.01724378
v 0.02159490 0.01067818 0.02295352
v 0.02131566 0.00970915 0.02815781
f 3 2 1
f 5 4 1
f 5 1 2
f 7 6 4
f 7 4 5
f 8 6 7
f 11 10 9
f 13 12 9
f 13 9 10
f 15 14 12
f 15 12 13
f 16 14 15
f 19 18 17
f 17 18 3
f 1 17 3
f 20 17 1
f 21 1 4
f 20 1 21
f 22 4 6
f 21 4 22
f 6 8 23
f 24 6 23
f 22 6 24
f 26 25 24
f 26 24 23
f 28 27 25
f 28 25 26
f 30 29 27
f 30 27 28
f 29 30 11
f 9 29 11
f 31 29 9
f 32 9 12
f 31 9 32
f 33 12 14
f 32 12 33
f 14 16 34
f 14 34 33
f 19 17 35
f 19 35 36
f 37 17 20
f 35 17 37
f 38 20 21
f 37 20 38
f 39 21 22
f 38 21 39
f 40 22 24
f 39 22 40
f 41 24 25
f 40 24 41
f 42 25 27
f 41 25 42
f 43 27 29
f 42 27 43
f 44 29 31
f 43 29 44
f 45 31 32
f 44 31 45
f 46 32 33
f 45 32 46
f 33 34 47
f 33 47 46
f 36 35 48
f 36 48 49
f 50 35 37
f 48 35 50
f 51 37 38
f 50 37 51
f 52 38 39
f 51 38 52
f 53 39 40
f 52 39 53
f 54 40 41
f 53 40 54
f 55 41 42
f 54 41 55
f 56 42 43
f 55 42 56
f 57 43 44
f 56 43 57
f 58 44 45
f 57 44 58
f 59 45 46
f 58 45 59
f 46 47 60
f 46 60 59
f 49 48 61
f 49 61 62
f 63 48 50
f 61 48 63
f 64 50 51
f 63 50 64
f 65 51 52
f 64 51 65
f 53 67 66
f 65 53 66
f 52 53 65
f 67 53 54
f 67 54 68
f 68 54 55
f 68 55 69
f 69 55 56
f 69 56 70
f 72 71 70
f 56 72 70
f 57 72 56
f 73 57 58
f 72 57 73
f 74 58 59
f 73 58 74
f 59 60 75
f 59 75 74
f 76 62 61
f 76 61 63
f 76 63 77
f 77 63 64
f 77 64 78
f 78 64 65
f 78 65 79
f 79 65 66
f 80 71 72
f 80 72 73
f 80 73 81
f 81 73 74
f 81 74 82
f 82 74 75
f 85 84 83
f 87 86 83
f 87 83 84
f 89 88 86
f 89 86 87
f 91 90 88
f 91 88 89
f 93 92 90
f 93 90 91
f 94 92 93
f 97 96 95
f 99 98 95
f 99 95 96
f 101 100 98
f 101 98 99
f 103 102 100
f 103 100 101
f 104 102 103
f 85 83 105
f 85 105 106
f 3 105 2
f 105 86 2
f 105 83 86
f 2 86 5
f 5 86 88
f 5 88 7
f 7 88 90
f 7 90 8
f 90 107 8
f 90 92 107
f 92 94 108
f 109 92 108
f 107 92 109
f 111 110 109
f 111 109 108
f 110 111 97
f 95 110 97
f 112 110 95
f 11 112 10
f 112 98 10
f 112 95 98
f 10 98 13
f 13 98 100
f 13 100 15
f 15 100 102
f 16 15 102
f 104 16 102
f 113 16 104
f 106 105 18
f 19 106 18
f 114 106 19
f 18 105 3
f 107 23 8
f 23 107 26
f 26 107 109
f 26 109 28
f 28 109 110
f 28 110 30
f 30 110 112
f 30 112 11
f 113 34 16
f 115 34 113
f 36 114 19
f 36 116 114
f 119 118 117
f 121 120 117
f 117 120 119
f 123 122 121
f 121 122 120
f 123 124 122
f 127 126 125
f 129 128 125
f 125 128 127
f 131 130 129
f 129 130 128
f 133 132 131
f 131 132 130
f 115 132 133
f 47 115 133
f 34 115 47
f 49 116 36
f 49 134 116
f 118 135 117
f 117 135 121
f 121 135 136
f 121 136 123
f 123 136 137
f 123 137 124
f 126 138 125
f 125 138 129
f 129 138 139
f 129 139 131
f 131 139 140
f 131 140 133
f 133 140 141
f 47 133 141
f 142 47 141
f 60 47 142
f 62 134 49
f 62 143 134
f 144 66 67
f 68 145 67
f 67 145 144
f 69 146 68
f 68 146 145
f 70 147 69
f 69 147 146
f 71 147 70
f 142 75 60
f 148 75 142
f 62 76 149
f 150 62 149
f 143 62 150
f 77 151 76
f 76 151 149
f 78 152 77
f 77 152 151
f 79 153 78
f 78 153 152
f 66 144 79
f 144 153 79
f 144 154 153
f 145 156 155
f 154 145 155
f 144 145 154
f 158 157 156
f 145 158 156
f 146 158 145
f 159 146 147
f 158 146 159
f 80 160 71
f 160 147 71
f 160 159 147
f 81 161 80
f 80 161 160
f 82 162 81
f 81 162 161
f 163 162 82
f 75 163 82
f 148 163 75
f 164 150 149
f 164 149 151
f 164 151 165
f 165 151 152
f 165 152 166
f 166 152 153
f 166 153 167
f 167 153 154
f 167 154 168
f 168 154 155
f 169 157 158
f 169 158 159
f 169 159 170
f 170 159 160
f 170 160 171
f 171 160 161
f 171 161 172
f 172 161 162
f 172 162 173
f 173 162 163
f 175 174 84
f 175 84 85
f 84 176 87
f 174 176 84
f 87 177 89
f 176 177 87
f 89 178 91
f 177 178 89
f 91 179 93
f 178 179 91
f 181 180 94
f 93 181 94
f 179 181 93
f 183 182 180
f 183 180 181
f 96 97 182
f 183 96 182
f 184 96 183
f 96 185 99
f 184 185 96
f 99 186 101
f 185 186 99
f 101 187 103
f 186 187 101
f 104 103 187
f 104 187 188
f 106 175 85
f 106 189 175
f 192 191 190
f 194 193 190
f 190 193 192
f 194 195 193
f 180 108 94
f 108 180 111
f 111 180 182
f 111 182 97
f 198 197 196
f 200 199 196
f 196 199 198
f 202 201 200
f 200 201 199
f 188 201 202
f 113 188 202
f 104 188 113
f 114 204 203
f 189 114 203
f 106 114 189
f 206 205 204
f 204 205 203
f 205 206 191
f 206 190 191
f 206 207 190
f 190 208 194
f 190 207 208
f 195 194 209
f 194 210 209
f 194 208 210
f 212 211 210
f 210 211 209
f 214 213 212
f 212 213 211
f 216 215 214
f 214 215 213
f 215 216 197
f 216 196 197
f 216 217 196
f 196 218 200
f 196 217 218
f 200 219 202
f 200 218 219
f 219 115 113
f 219 113 202
f 116 220 204
f 116 204 114
f 220 118 119
f 206 220 119
f 204 220 206
f 206 119 120
f 206 120 207
f 207 120 122
f 207 122 208
f 208 122 124
f 221 208 124
f 210 208 221
f 210 222 212
f 210 221 222
f 212 223 214
f 212 222 223
f 223 126 127
f 216 223 127
f 214 223 216
f 216 127 128
f 216 128 217
f 217 128 130
f 217 130 218
f 218 130 132
f 218 132 219
f 219 132 115
f 134 224 220
f 134 220 116
f 225 135 118
f 220 225 118
f 224 225 220
f 226 136 135
f 226 135 225
f 227 137 136
f 227 136 226
f 221 124 137
f 227 221 137
f 228 221 227
f 221 229 222
f 221 228 229
f 222 230 223
f 222 229 230
f 231 138 126
f 223 231 126
f 230 231 223
f 232 139 138
f 232 138 231
f 233 140 139
f 233 139 232
f 234 141 140
f 234 140 233
f 234 142 141
f 236 235 224
f 134 236 224
f 143 236 134
f 238 237 235
f 237 224 235
f 237 225 224
f 225 239 226
f 225 237 239
f 226 240 227
f 226 239 240
f 242 228 241
f 228 240 241
f 228 227 240
f 228 242 229
f 229 242 243
f 229 243 230
f 230 243 244
f 230 244 231
f 231 244 245
f 247 246 245
f 246 231 245
f 246 232 231
f 232 248 233
f 232 246 248
f 233 249 234
f 233 248 249
f 249 148 142
f 249 142 234
f 150 236 143
f 150 250 236
f 238 251 237
f 237 251 239
f 239 251 252
f 239 252 240
f 240 252 253
f 240 253 241
f 254 155 156
f 157 254 156
f 247 255 246
f 246 255 248
f 248 255 256
f 248 256 249
f 249 256 257
f 148 249 257
f 258 148 257
f 163 148 258
f 259 250 150
f 259 150 164
f 260 164 165
f 260 259 164
f 261 165 166
f 261 260 165
f 262 166 167
f 262 261 166
f 263 167 168
f 263 262 167
f 168 155 254
f 264 168 254
f 263 168 264
f 264 254 157
f 169 264 157
f 265 264 169
f 266 169 170
f 266 265 169
f 267 170 171
f 267 266 170
f 268 171 172
f 268 267 171
f 269 172 173
f 269 268 172
f 173 163 258
f 173 258 269
f 272 271 270
f 274 273 270
f 274 270 271
f 276 275 273
f 276 273 274
f 278 277 275
f 278 275 276
f 279 277 278
f 282 281 280
f 284 283 280
f 284 280 281
f 286 285 283
f 286 283 284
f 288 287 285
f 288 285 286
f 289 287 288
f 272 270 174
f 175 272 174
f 290 272 175
f 174 270 176
f 176 270 273
f 176 273 177
f 177 273 275
f 177 275 178
f 178 275 277
f 279 291 277
f 291 178 277
f 291 179 178
f 179 292 181
f 291 292 179
f 181 293 183
f 292 293 181
f 280 184 282
f 184 293 282
f 184 183 293
f 184 280 185
f 185 280 283
f 185 283 186
f 186 283 285
f 186 285 187
f 187 285 287
f 188 187 287
f 289 188 287
f 294 188 289
f 189 296 295
f 290 189 295
f 175 189 290
f 298 297 296
f 296 297 295
f 191 192 298
f 192 297 298
f 192 299 297
f 300 192 193
f 300 299 192
f 302 301 195
f 301 193 195
f 301 300 193
f 304 303 302
f 302 303 301
f 306 305 304
f 304 305 303
f 308 307 306
f 306 307 305
f 197 198 308
f 198 307 308
f 198 309 307
f 310 198 199
f 310 309 198
f 311 199 201
f 311 310 199
f 201 188 294
f 201 294 311
f 203 296 189
f 296 203 205
f 296 205 298
f 298 205 191
f 209 302 195
f 302 209 211
f 302 211 304
f 304 211 213
f 304 213 306
f 306 213 215
f 306 215 308
f 308 215 197
f 236 312 235
f 312 238 235
f 241 313 242
f 314 243 242
f 314 242 313
f 315 244 243
f 315 243 314
f 316 245 244
f 316 244 315
f 316 247 245
f 318 317 312
f 236 318 312
f 250 318 236
f 312 317 238
f 317 251 238
f 317 319 251
f 251 320 252
f 319 320 251
f 252 321 253
f 320 321 252
f 241 253 313
f 253 322 313
f 253 321 322
f 313 322 314
f 314 322 323
f 314 323 315
f 315 323 324
f 315 324 316
f 316 324 325
f 316 325 247
f 325 255 247
f 325 326 255
f 255 327 256
f 326 327 255
f 256 328 257
f 327 328 256
f 258 257 328
f 258 328 329
f 250 259 330
f 331 250 330
f 318 250 331
f 260 332 259
f 259 332 330
f 261 333 260
f 260 333 332
f 262 334 261
f 261 334 333
f 263 335 262
f 262 335 334
f 335 263 336
f 263 337 336
f 263 264 337
f 338 264 265
f 338 337 264
f 340 338 339
f 338 266 339
f 338 265 266
f 267 341 266
f 266 341 339
f 268 342 267
f 267 342 341
f 269 343 268
f 268 343 342
f 344 343 269
f 258 344 269
f 329 344 258
f 345 331 330
f 345 330 332
f 345 332 346
f 346 332 333
f 346 333 347
f 347 333 334
f 347 334 348
f 348 334 335
f 348 335 349
f 349 335 336
f 350 340 339
f 350 339 341
f 350 341 351
f 351 341 342
f 351 342 352
f 352 342 343
f 352 343 353
f 353 343 344
f 355 354 271
f 355 271 272
f 271 356 274
f 354 356 271
f 274 357 276
f 356 357 274
f 276 358 278
f 357 358 276
f 279 278 358
f 279 358 359
f 361 360 281
f 361 281 282
f 281 362 284
f 360 362 281
f 284 363 286
f 362 363 284
f 286 364 288
f 363 364 286
f 289 288 364
f 289 364 365
f 290 355 272
f 290 366 355
f 359 367 279
f 279 367 291
f 291 368 292
f 367 368 291
f 292 369 293
f 368 369 292
f 282 293 361
f 361 293 369
f 365 294 289
f 370 294 365
f 371 366 290
f 371 290 295
f 372 295 297
f 372 371 295
f 373 297 299
f 373 372 297
f 374 299 300
f 374 373 299
f 375 300 301
f 375 374 300
f 376 301 303
f 376 375 301
f 377 303 305
f 377 376 303
f 378 305 307
f 378 377 305
f 379 307 309
f 379 378 307
f 380 309 310
f 380 379 309
f 381 310 311
f 381 380 310
f 311 294 370
f 311 370 381
f 383 382 317
f 383 317 318
f 317 384 319
f 382 384 317
f 319 385 320
f 384 385 319
f 320 386 321
f 385 386 320
f 321 387 322
f 386 387 321
f 322 388 323
f 387 388 322
f 323 389 324
f 388 389 323
f 324 390 325
f 389 390 324
f 325 391 326
f 390 391 325
f 326 392 327
f 391 392 326
f 327 393 328
f 392 393 327
f 329 328 393
f 329 393 394
f 331 383 318
f 331 395 383
f 397 396 337
f 337 396 336
f 398 337 338
f 398 397 337
f 338 340 398
f 398 340 399
f 394 344 329
f 400 344 394
f 401 395 331
f 401 331 345
f 402 345 346
f 402 401 345
f 403 346 347
f 403 402 346
f 404 347 348
f 404 403 347
f 405 348 349
f 405 404 348
f 349 336 396
f 349 396 405
f 406 399 340
f 406 340 350
f 407 350 351
f 407 406 350
f 408 351 352
f 408 407 351
f 409 352 353
f 409 408 352
f 353 344 400
f 353 400 409
f 355 410 354
f 411 356 354
f 411 354 410
f 412 357 356
f 412 356 411
f 413 358 357
f 413 357 412
f 413 359 358
f 361 414 360
f 415 362 360
f 415 360 414
f 416 363 362
f 416 362 415
f 363 416 417
f 418 363 417
f 364 363 418
f 365 364 418
f 365 418 419
f 421 420 410
f 355 421 410
f 366 421 355
f 410 420 411
f 411 420 422
f 411 422 412
f 412 422 423
f 412 423 413
f 413 423 424
f 413 424 359
f 424 367 359
f 424 425 367
f 367 426 368
f 425 426 367
f 368 427 369
f 426 427 368
f 361 369 414
f 369 428 414
f 369 427 428
f 414 428 415
f 415 428 429
f 415 429 416
f 416 429 430
f 416 430 417
f 419 370 365
f 431 370 419
f 366 371 432
f 433 366 432
f 421 366 433
f 432 371 434
f 371 435 434
f 371 372 435
f 436 372 373
f 436 435 372
f 437 373 374
f 437 436 373
f 438 374 375
f 438 437 374
f 440 438 439
f 438 376 439
f 438 375 376
f 377 441 376
f 376 441 439
f 441 377 442
f 377 443 442
f 377 378 443
f 444 378 379
f 444 443 378
f 445 379 380
f 445 444 379
f 446 380 381
f 446 445 380
f 381 370 431
f 381 431 446
f 447 433 432
f 447 432 434
f 448 440 439
f 448 439 441
f 448 441 449
f 449 441 442
f 452 451 450
f 453 450 451
f 452 450 382
f 383 452 382
f 454 452 383
f 453 455 450
f 455 382 450
f 455 384 382
f 384 456 385
f 455 456 384
f 385 457 386
f 456 457 385
f 386 458 387
f 457 458 386
f 387 459 388
f 458 459 387
f 388 460 389
f 459 460 388
f 389 461 390
f 460 461 389
f 390 462 391
f 461 462 390
f 391 463 392
f 462 463 391
f 392 464 393
f 463 464 392
f 394 393 464
f 394 464 465
f 395 467 466
f 454 395 466
f 383 395 454
f 467 468 466
f 471 470 469
f 473 472 469
f 469 472 471
f 475 474 473
f 473 474 472
f 396 397 475
f 397 474 475
f 397 476 474
f 477 397 398
f 477 476 397
f 479 478 399
f 478 398 399
f 478 477 398
f 481 480 479
f 479 480 478
f 481 482 480
f 465 400 394
f 483 400 465
f 401 467 395
f 484 468 467
f 401 484 467
f 402 484 401
f 403 469 470
f 484 403 470
f 402 403 484
f 469 403 404
f 469 404 473
f 473 404 405
f 473 405 475
f 475 405 396
f 406 479 399
f 479 406 407
f 479 407 481
f 485 482 481
f 407 485 481
f 408 485 407
f 486 408 409
f 486 485 408
f 409 400 483
f 409 483 486
f 417 487 418
f 487 419 418
f 489 488 420
f 489 420 421
f 420 490 422
f 488 490 420
f 422 491 423
f 490 491 422
f 423 492 424
f 491 492 423
f 424 493 425
f 492 493 424
f 425 494 426
f 493 494 425
f 426 495 427
f 494 495 426
f 427 496 428
f 495 496 427
f 428 497 429
f 496 497 428
f 429 498 430
f 497 498 429
f 417 430 487
f 430 499 487
f 430 498 499
f 419 487 499
f 500 419 499
f 431 419 500
f 433 489 421
f 433 501 489
f 502 434 435
f 436 503 435
f 435 503 502
f 437 504 436
f 436 504 503
f 438 505 437
f 437 505 504
f 440 505 438
f 506 442 443
f 444 507 443
f 443 507 506
f 445 508 444
f 444 508 507
f 446 509 445
f 445 509 508
f 510 509 446
f 431 510 446
f 500 510 431
f 433 447 511
f 512 433 511
f 501 433 512
f 513 511 447
f 513 447 434
f 514 513 434
f 502 514 434
f 514 502 503
f 514 503 515
f 515 503 504
f 515 504 516
f 516 504 505
f 516 505 517
f 519 517 518
f 518 517 448
f 517 505 448
f 505 440 448
f 449 520 448
f 448 520 518
f 521 520 449
f 521 449 442
f 522 521 442
f 506 522 442
f 522 506 507
f 522 507 523
f 523 507 508
f 523 508 524
f 524 508 509
f 524 509 525
f 525 509 510
f 526 512 511
f 526 511 513
f 527 519 518
f 527 518 520
f 527 520 528
f 528 520 521
f 531 530 529
f 532 529 530
f 535 534 533
f 537 536 533
f 537 533 534
f 538 536 537
f 531 529 451
f 452 531 451
f 539 531 452
f 541 540 453
f 541 453 451
f 532 541 451
f 529 532 451
f 543 542 540
f 543 540 541
f 545 544 542
f 545 542 543
f 547 546 544
f 547 544 545
f 546 547 535
f 533 546 535
f 548 546 533
f 549 533 536
f 548 533 549
f 536 538 550
f 551 536 550
f 549 536 551
f 553 552 551
f 553 551 550
f 555 554 552
f 555 552 553
f 557 556 554
f 557 554 555
f 558 556 557
f 454 539 452
f 454 559 539
f 540 455 453
f 455 540 456
f 456 540 542
f 456 542 457
f 457 542 544
f 457 544 458
f 458 544 546
f 458 546 459
f 459 546 548
f 459 548 460
f 460 548 549
f 460 549 461
f 461 549 551
f 461 551 462
f 462 551 552
f 462 552 463
f 463 552 554
f 463 554 464
f 464 554 556
f 465 464 556
f 558 465 556
f 560 465 558
f 561 559 454
f 561 454 466
f 563 562 468
f 562 466 468
f 562 561 466
f 470 471 563
f 471 562 563
f 471 564 562
f 565 471 472
f 565 564 471
f 566 472 474
f 566 565 472
f 567 474 476
f 567 566 474
f 568 476 477
f 568 567 476
f 569 477 478
f 569 568 477
f 570 478 480
f 570 569 478
f 572 571 482
f 571 480 482
f 571 570 480
f 574 573 572
f 572 573 571
f 560 573 574
f 483 560 574
f 465 560 483
f 484 563 468
f 563 484 470
f 485 572 482
f 572 485 486
f 572 486 574
f 574 486 483
f 489 575 488
f 576 490 488
f 576 488 575
f 577 491 490
f 577 490 576
f 578 492 491
f 578 491 577
f 579 493 492
f 579 492 578
f 580 494 493
f 580 493 579
f 581 495 494
f 581 494 580
f 582 496 495
f 582 495 581
f 583 497 496
f 583 496 582
f 584 498 497
f 584 497 583
f 585 499 498
f 585 498 584
f 585 500 499
f 587 586 575
f 489 587 575
f 501 587 489
f 575 586 576
f 576 586 588
f 576 588 577
f 577 588 589
f 577 589 578
f 578 589 590
f 578 590 579
f 579 590 591
f 579 591 580
f 580 591 592
f 580 592 581
f 581 592 593
f 581 593 582
f 582 593 594
f 582 594 583
f 583 594 595
f 583 595 584
f 584 595 596
f 584 596 585
f 585 596 597
f 500 585 597
f 598 500 597
f 510 500 598
f 512 587 501
f 512 599 587
f 600 513 514
f 515 601 514
f 514 601 600
f 516 602 515
f 515 602 601
f 517 603 516
f 516 603 602
f 519 603 517
f 604 521 522
f 523 605 522
f 522 605 604
f 524 606 523
f 523 606 605
f 525 607 524
f 524 607 606
f 608 607 525
f 510 608 525
f 598 608 510
f 512 526 609
f 610 512 609
f 599 512 610
f 513 600 526
f 600 609 526
f 600 611 609
f 612 600 601
f 611 600 612
f 613 601 602
f 612 601 613
f 614 602 603
f 613 602 614
f 527 615 519
f 615 603 519
f 615 614 603
f 528 616 527
f 527 616 615
f 521 604 528
f 604 616 528
f 604 617 616
f 618 604 605
f 617 604 618
f 619 605 606
f 618 605 619
f 620 606 607
f 619 606 620
f 607 608 621
f 607 621 620
f 610 609 530
f 531 610 530
f 622 610 531
f 530 609 532
f 609 623 532
f 609 611 623
f 624 611 612
f 623 611 624
f 625 612 613
f 624 612 625
f 626 613 614
f 625 613 626
f 535 626 534
f 626 615 534
f 626 614 615
f 534 615 537
f 537 615 616
f 537 616 538
f 616 627 538
f 616 617 627
f 628 617 618
f 627 617 628
f 629 618 619
f 628 618 629
f 630 619 620
f 629 619 630
f 620 621 631
f 620 631 630
f 539 622 531
f 539 632 622
f 623 541 532
f 541 623 543
f 543 623 624
f 543 624 545
f 545 624 625
f 545 625 547
f 547 625 626
f 547 626 535
f 627 550 538
f 550 627 553
f 553 627 628
f 553 628 555
f 555 628 629
f 555 629 557
f 557 629 630
f 558 557 630
f 631 558 630
f 633 558 631
f 559 635 634
f 632 559 634
f 539 559 632
f 637 636 635
f 635 636 634
f 639 638 637
f 637 638 636
f 641 640 639
f 639 640 638
f 643 642 641
f 641 642 640
f 645 644 643
f 643 644 642
f 647 646 645
f 645 646 644
f 649 648 647
f 647 648 646
f 651 650 649
f 649 650 648
f 653 652 651
f 651 652 650
f 655 654 653
f 653 654 652
f 633 654 655
f 560 633 655
f 558 633 560
f 561 635 559
f 635 561 562
f 635 562 637
f 637 562 564
f 637 564 639
f 639 564 565
f 639 565 641
f 641 565 566
f 641 566 643
f 643 566 567
f 643 567 645
f 645 567 568
f 645 568 647
f 647 568 569
f 647 569 649
f 649 569 570
f 649 570 651
f 651 570 571
f 651 571 653
f 653 571 573
f 653 573 655
f 655 573 560
f 587 656 586
f 657 588 586
f 657 586 656
f 658 589 588
f 658 588 657
f 659 590 589
f 659 589 658
f 660 591 590
f 660 590 659
f 661 592 591
f 661 591 660
f 662 593 592
f 662 592 661
f 663 594 593
f 663 593 662
f 664 595 594
f 664 594 663
f 665 596 595
f 665 595 664
f 666 597 596
f 666 596 665
f 666 598 597
f 599 667 656
f 599 656 587
f 656 668 657
f 656 667 668
f 657 669 658
f 657 668 669
f 658 670 659
f 658 669 670
f 659 671 660
f 659 670 671
f 660 672 661
f 660 671 672
f 661 673 662
f 661 672 673
f 662 674 663
f 662 673 674
f 663 675 664
f 663 674 675
f 664 676 665
f 664 675 676
f 665 677 666
f 665 676 677
f 677 608 598
f 677 598 666
f 610 678 667
f 610 667 599
f 667 679 668
f 667 678 679
f 668 680 669
f 668 679 680
f 669 681 670
f 669 680 681
f 670 682 671
f 670 681 682
f 671 683 672
f 671 682 683
f 672 684 673
f 672 683 684
f 673 685 674
f 673 684 685
f 674 686 675
f 674 685 686
f 675 687 676
f 675 686 687
f 676 688 677
f 676 687 688
f 688 621 608
f 688 608 677
f 622 689 678
f 622 678 610
f 678 690 679
f 678 689 690
f 679 691 680
f 679 690 691
f 680 692 681
f 680 691 692
f 681 693 682
f 681 692 693
f 682 694 683
f 682 693 694
f 683 695 684
f 683 694 695
f 684 696 685
f 684 695 696
f 685 697 686
f 685 696 697
f 686 698 687
f 686 697 698
f 687 699 688
f 687 698 699
f 699 631 621
f 699 621 688
f 632 700 689
f 632 689 622
f 689 701 690
f 689 700 701
f 690 702 691
f 690 701 702
f 691 703 692
f 691 702 703
f 692 704 693
f 692 703 704
f 693 705 694
f 693 704 705
f 694 706 695
f 694 705 706
f 695 707 696
f 695 706 707
f 696 708 697
f 696 707 708
f 697 709 698
f 697 708 709
f 698 710 699
f 698 709 710
f 710 633 631
f 710 631 699
f 634 700 632
f 700 634 636
f 700 636 701
f 701 636 638
f 701 638 702
f 702 638 640
f 702 640 703
f 703 640 642
f 703 642 704
f 704 642 644
f 704 644 705
f 705 644 646
f 705 646 706
f 706 646 648
f 706 648 707
f 707 648 650
f 707 650 708
f 708 650 652
f 708 652 709
f 709 652 654
f 709 654 710
f 710 654 633

