# https://github.com/mikedh/trimesh
v -0.05754550 -0.00512478 -0.00699499
v -0.05429582 -0.00885829 -0.00987331
v -0.05366336 -0.00355050 -0.01294580
v -0.05793910 -0.00509231 0.00087514
v -0.05473819 -0.01004878 -0.00294908
v -0.05778842 -0.00609590 0.00865815
v -0.05394129 -0.01014267 0.00644970
v -0.05705113 -0.00422949 0.01380793
v -0.05485118 -0.00847329 0.01398463
v -0.05236129 -0.00555069 0.01798753
v -0.05733136 0.00033283 -0.00939972
v -0.05292967 0.00359790 -0.01194500
v -0.05807533 0.00114679 -0.00301850
v -0.05773737 0.00045459 0.00606322
v -0.05448793 0.00061801 0.01042228
v -0.05298586 -0.00145024 0.01510356
v -0.05495861 0.00583792 -0.00694347
v -0.05404854 0.00599398 0.00113502
v -0.05479975 0.00406142 0.00657185
v -0.04875897 -0.01966870 0.00686647
v -0.04610178 -0.02403648 0.00737726
v -0.04578620 -0.02235644 0.00292539
v -0.04506870 -0.02207639 0.00961363
v -0.04910395 -0.01386779 -0.01568670
v -0.04564593 -0.01792026 -0.01740573
v -0.04584578 -0.01347611 -0.02021015
v -0.05069012 -0.01298819 -0.00837280
v -0.04652650 -0.01771088 -0.01097291
v -0.05055803 -0.01514015 0.00114063
v -0.04645935 -0.01823642 -0.00321252
v -0.05009894 -0.01396126 0.00783501
v -0.04496560 -0.01555968 0.01125929
v -0.05036720 -0.00835663 -0.01612022
v -0.04402477 -0.00677739 -0.02010345
v -0.04863003 -0.01004322 0.01433901
v -0.04527854 -0.00581783 0.01862419
v -0.04721426 -0.00303088 -0.01674700
v -0.04656491 0.00133391 -0.01419299
v -0.05077299 0.00361984 0.00588621
v -0.04438853 0.00233048 0.00292613
v -0.04740724 -0.00013913 0.00952390
v -0.04529949 0.00190451 0.01262899
v -0.04901163 0.00185758 0.01400026
v -0.04736104 -0.00008896 0.01785808
v -0.05077293 0.00926073 -0.00927876
v -0.04538169 0.00859538 -0.01195521
v -0.05030131 0.01045196 -0.00335409
v -0.04668785 0.00944553 0.00235121
v -0.04659121 0.00371216 0.01503006
v -0.04676891 0.01265060 -0.00745841
v -0.04495608 0.01425445 -0.00188131
v -0.04120526 -0.02747440 -0.00017681
v -0.03795587 -0.03224702 -0.00174719
v -0.03894703 -0.02864378 -0.00532079
v -0.03614276 -0.03121349 0.00305628
v -0.04204571 -0.02186579 -0.01480809
v -0.03807805 -0.02457916 -0.01780363
v -0.03919594 -0.01945402 -0.02003515
v -0.04233856 -0.02290764 -0.00679082
v -0.03842266 -0.02628196 -0.01133049
v -0.04373716 -0.02250765 -0.00138278
v -0.04072909 -0.02570479 0.00662383
v -0.03859997 -0.02093469 0.01026098
v -0.03887521 -0.01200582 -0.02125014
v -0.03650598 -0.01472644 0.01206949
v -0.03684270 -0.00579187 -0.02040783
v -0.04169017 -0.00447334 0.00022762
v -0.03933193 -0.00449211 -0.00341018
v -0.03790558 -0.00945878 -0.00217237
v -0.03653673 -0.00768681 0.00270831
v -0.04031594 -0.00979473 0.01543113
v -0.03793372 -0.00398068 0.01786767
v -0.04006754 -0.00171230 -0.01726286
v -0.03826354 0.00320282 -0.01409881
v -0.04190653 0.00019789 -0.00177505
v -0.03657025 0.00106468 -0.00372323
v -0.04025440 -0.00276404 0.00591186
v -0.03854778 -0.00087923 0.01317329
v -0.04298889 0.00134631 0.01565463
v -0.03669122 0.00923187 -0.01211153
v -0.03938119 0.00489021 -0.00070171
v -0.03871008 0.00910266 0.00211991
v -0.04094174 0.01418844 -0.00778704
v -0.04126013 0.01762113 -0.00202794
v -0.03663525 0.01935654 -0.00469350
v -0.03765785 0.01692674 0.00324492
v -0.03794853 0.02170367 -0.00050351
v -0.03325273 -0.03698625 -0.00810709
v -0.02957013 -0.04135437 -0.00684823
v -0.03071503 -0.03767232 -0.01266507
v -0.03468317 -0.03616800 -0.00150396
v -0.03077143 -0.04032295 -0.00221272
v -0.03027965 -0.03698283 0.00206767
v -0.03323053 -0.02956847 -0.02324791
v -0.03049807 -0.03226593 -0.02551432
v -0.02991850 -0.02716609 -0.02862356
v -0.03472805 -0.03008837 -0.01593526
v -0.03093416 -0.03395290 -0.01911288
v -0.03604207 -0.03177773 -0.00736886
v -0.02864439 -0.03068842 0.00431505
v -0.03447396 -0.02221706 -0.02331576
v -0.03133916 -0.02022095 -0.02804022
v -0.03256851 -0.02580224 0.00726222
v -0.03048319 -0.02064089 0.01001920
v -0.03310974 -0.01486653 -0.02584005
v -0.02888983 -0.01421377 -0.02771406
v -0.03381107 -0.01456354 -0.01683025
v -0.03096555 -0.01862168 -0.01783417
v -0.03072717 -0.01525327 -0.02172806
v -0.02923656 -0.01718733 -0.00978927
v -0.03350452 -0.01328892 -0.00751286
v -0.03107750 -0.01672826 -0.00186320
v -0.03511405 -0.01345240 -0.00047365
v -0.03045992 -0.01337829 0.00214816
v -0.02855646 -0.01470285 0.01184211
v -0.02927369 -0.01096624 -0.02322774
v -0.03202264 -0.00785520 -0.01947932
v -0.03041944 -0.01001174 -0.01496020
v -0.02910052 -0.01036143 -0.01061068
v -0.03149294 -0.00522851 -0.00570548
v -0.02875271 -0.00705917 0.00408087
v -0.03229315 -0.00974083 0.01509618
v -0.02921045 -0.00587894 0.01794572
v -0.03240244 -0.00216851 -0.01714559
v -0.02996087 0.00224183 -0.01333887
v -0.02942273 0.00194158 -0.00383122
v -0.03281301 -0.00215170 0.00802007
v -0.03380957 0.00319452 0.01576452
v -0.03000543 0.00294818 0.01070501
v -0.03019035 0.00017983 0.01916139
v -0.02881997 0.00902724 -0.01203790
v -0.03251545 0.00606250 -0.00111485
v -0.02983527 0.01074624 0.00307437
v -0.03363802 0.00823770 0.01489424
v -0.02938904 0.00820937 0.01196590
v -0.03123013 0.00598116 0.02218693
v -0.03360576 0.00953469 0.02091961
v -0.02892321 0.01046784 0.02555376
v -0.03277652 0.01401014 -0.00904497
v -0.02971244 0.01790452 -0.00617016
v -0.03123954 0.01495252 0.00673112
v -0.03317496 0.01788202 0.00738372
v -0.03066641 0.01310841 0.01676490
v -0.02954222 0.01724864 0.00955231
v -0.03044966 0.01394340 0.02345477
v -0.03445329 0.02525268 -0.00176774
v -0.02962610 0.02447366 -0.00399534
v -0.03281730 0.02496356 0.00251297
v -0.03113804 0.02112833 0.00768551
v -0.02901188 0.02848608 0.00058596
v -0.02590036 -0.04370027 -0.00879306
v -0.02223533 -0.04799911 -0.00951122
v -0.02323971 -0.04424816 -0.01299941
v -0.02036391 -0.04705807 -0.00475148
v -0.02544143 -0.03730249 -0.03140769
v -0.02205499 -0.04156488 -0.03349649
v -0.02219111 -0.03721723 -0.03603730
v -0.02698822 -0.03638260 -0.02395195
v -0.02294564 -0.04117626 -0.02700080
v -0.02672570 -0.03919943 -0.01558128
v -0.02274766 -0.04168163 -0.01897948
v -0.02486029 -0.04195220 -0.00165952
v -0.02274719 -0.03661088 0.00239964
v -0.02666823 -0.03189405 -0.03179863
v -0.02053760 -0.03053173 -0.03575572
v -0.02068840 -0.03044594 0.00404491
v -0.02360237 -0.02684669 -0.03246528
v -0.02388708 -0.02152693 -0.02975613
v -0.02610760 -0.02188493 -0.01499246
v -0.02294068 -0.02048008 -0.01915836
v -0.02214885 -0.02594217 -0.01691087
v -0.02318567 -0.02555261 -0.01093882
v -0.02544850 -0.02022251 -0.00948163
v -0.02056342 -0.02325850 -0.00469008
v -0.02454372 -0.02556757 0.00701678
v -0.02257958 -0.02067571 0.00985445
v -0.02101260 -0.01455148 -0.02798988
v -0.02683339 -0.01388389 -0.01587027
v -0.02330047 -0.01779130 -0.01523413
v -0.02734040 -0.01845982 -0.01362327
v -0.02286064 -0.01357545 -0.01245658
v -0.02494342 -0.01815257 -0.00146460
v -0.02277738 -0.01298503 0.00243984
v -0.02068330 -0.01473848 0.01179253
v -0.02422626 -0.01043062 -0.02501161
v -0.02748065 -0.00500450 -0.01476581
v -0.02282285 -0.00921552 -0.01700638
v -0.02693616 -0.00918743 -0.01362240
v -0.02614092 -0.00746936 -0.01058968
v -0.02069040 -0.00688800 0.00394484
v -0.02446492 -0.00982175 0.01489871
v -0.02250443 -0.00498724 0.01797210
v -0.02265893 -0.00257811 -0.01033053
v -0.02210551 0.00171821 -0.01321895
v -0.02176307 0.00091501 -0.00471103
v -0.02461671 -0.00201203 0.00678067
v -0.02270850 0.00291493 0.00974016
v -0.02076068 0.00102258 0.01992181
v -0.02085216 0.00892393 -0.01197969
v -0.02442625 0.00585439 -0.00099663
v -0.02079727 0.01117043 0.00294217
v -0.02258971 0.01060322 0.01137500
v -0.02486312 0.00595347 0.02329679
v -0.02179934 0.01001123 0.02615134
v -0.02469463 0.01379670 -0.00896793
v -0.02275559 0.01874191 -0.00592299
v -0.02430305 0.01427760 0.00806297
v -0.02725415 0.01825613 0.01301768
v -0.02692708 0.01904890 0.02079747
v -0.02281130 0.01643397 0.02625072
v -0.02097856 0.02495622 -0.00426058
v -0.02765449 0.02570300 0.00751869
v -0.02552108 0.02481342 0.01456387
v -0.02189297 0.02610552 0.01969118
v -0.02214146 0.02240308 0.02352077
v -0.02414112 0.02900797 -0.00133605
v -0.02295368 0.02991943 0.00677514
v -0.02191469 0.02956782 0.01488938
v -0.01741950 -0.05301343 -0.01608844
v -0.01424701 -0.05585226 -0.01493689
v -0.01534890 -0.05265037 -0.02045037
v -0.01892980 -0.05209848 -0.00932943
v -0.01547296 -0.05582775 -0.01009303
v -0.01401602 -0.05152427 -0.00588586
v -0.01846853 -0.04574668 -0.03110180
v -0.01280652 -0.04807036 -0.03154759
v -0.01699104 -0.04400282 -0.03569227
v -0.01882010 -0.04677139 -0.02305123
v -0.01345508 -0.04974471 -0.02477140
v -0.02020496 -0.04749351 -0.01512576
v -0.01352765 -0.04570995 -0.00315867
v -0.01500095 -0.03692409 -0.03660260
v -0.01671274 -0.04166514 -0.00051657
v -0.01474203 -0.03643246 0.00218980
v -0.01334720 -0.02808496 -0.03609080
v -0.01891225 -0.03010516 -0.01433337
v -0.01518492 -0.02949581 -0.02069100
v -0.01278535 -0.03406765 -0.01659021
v -0.01528164 -0.03246397 -0.01011434
v -0.01929172 -0.02894119 -0.00835745
v -0.01460288 -0.02918246 -0.00576574
v -0.01283544 -0.03046090 0.00395012
v -0.01726784 -0.02504718 -0.03286303
v -0.01433061 -0.01921766 -0.02988318
v -0.01276143 -0.02263608 -0.02016196
v -0.01292181 -0.02294383 -0.00348383
v -0.01665479 -0.02556547 0.00689213
v -0.01472447 -0.02068715 0.00985737
v -0.01356772 -0.01380873 -0.02756018
v -0.01643078 -0.01783217 -0.01679782
v -0.01328186 -0.01377825 -0.01365419
v -0.01680569 -0.01790342 -0.00045603
v -0.01475347 -0.01280359 0.00213615
v -0.01279963 -0.01475861 0.01179378
v -0.01694189 -0.00963705 -0.02369363
v -0.01843730 -0.00492958 -0.01637740
v -0.01249764 -0.00454272 -0.02049443
v -0.01585484 -0.00708856 -0.01312754
v -0.01278233 -0.00689904 0.00393030
v -0.01666822 -0.00980284 0.01479668
v -0.01467727 -0.00490660 0.01777425
v -0.01531344 -0.00267305 -0.01553294
v -0.01797016 -0.00153123 -0.01218240
v -0.01426292 0.00329351 -0.01294019
v -0.01608638 -0.00071569 -0.00866477
v -0.01264556 0.00163784 -0.00464634
v -0.01656724 -0.00206935 0.00685550
v -0.01463711 0.00285613 0.00997235
v -0.01277367 0.00100667 0.01967794
v -0.01345044 0.00976079 -0.01175690
v -0.01651623 0.00567504 -0.00083574
v -0.01380193 0.00989039 0.00192491
v -0.01361710 0.00869817 0.01099199
v -0.01668669 0.00600273 0.02297827
v -0.01481836 0.01088531 0.02608486
v -0.01660941 0.01370198 -0.00885781
v -0.01465124 0.01864811 -0.00594770
v -0.01868630 0.01697630 0.00630224
v -0.01398782 0.01643233 0.00415176
v -0.01524861 0.01553474 0.01063392
v -0.01376947 0.01661704 0.02704105
v -0.01300229 0.02469778 -0.00435280
v -0.01367897 0.02029859 0.00891863
v -0.01914245 0.02574936 0.02274113
v -0.01517331 0.02324540 0.02653993
v -0.01713969 0.02994016 -0.00026682
v -0.01800265 0.03314784 0.00618469
v -0.01286126 0.03505414 0.00292541
v -0.01870114 0.03351488 0.01247790
v -0.01511367 0.03343238 0.01875981
v -0.01563120 0.02865217 0.02312730
v -0.01529869 0.03712392 0.00917377
v -0.01407740 0.03749559 0.01480766
v -0.01185900 -0.05339992 -0.01736415
v -0.01125404 -0.05410866 -0.01066565
v -0.01126413 -0.04357822 -0.03206630
v -0.00759529 -0.04653316 -0.02843264
v -0.00733838 -0.04828186 -0.02452016
v -0.00611931 -0.04972680 -0.01545909
v -0.00716206 -0.05035818 -0.00817860
v -0.00566336 -0.04645144 -0.00434019
v -0.01048964 -0.03731152 -0.03321504
v -0.00671726 -0.04272726 -0.02479693
v -0.01039443 -0.03713557 -0.02567913
v -0.00629671 -0.03774503 -0.02004030
v -0.00863296 -0.04154252 -0.00060657
v -0.00683442 -0.03659915 0.00216217
v -0.00609153 -0.03375270 -0.03220136
v -0.00836502 -0.03099458 -0.03629404
v -0.00622949 -0.03378117 -0.02551291
v -0.00735301 -0.02731177 -0.02117648
v -0.00552755 -0.03361727 -0.01465816
v -0.00901827 -0.03331944 -0.00943010
v -0.00689047 -0.02918730 -0.00549443
v -0.00502120 -0.03062835 0.00398902
v -0.01131885 -0.02254950 -0.03326399
v -0.00550260 -0.02294051 -0.03578568
v -0.00523627 -0.02167577 -0.01981533
v -0.00480843 -0.02288050 -0.00367941
v -0.00881384 -0.02557837 0.00689233
v -0.00687545 -0.02068221 0.00986377
v -0.00734503 -0.01857474 -0.03206020
v -0.00590460 -0.01441880 -0.02852879
v -0.00813744 -0.01774349 -0.01685184
v -0.00630147 -0.01278488 -0.01356493
v -0.00884278 -0.01778921 -0.00077734
v -0.00693674 -0.01288613 0.00208119
v -0.00494227 -0.01476268 0.01179792
v -0.00878523 -0.00987580 -0.02472241
v -0.00584546 -0.00578024 -0.02187981
v -0.00643823 -0.00555380 -0.01273205
v -0.00496749 -0.00708280 0.00400148
v -0.00880227 -0.00985496 0.01475449
v -0.00686408 -0.00497162 0.01770910
v -0.01063499 0.00013601 -0.01614656
v -0.00587292 0.00063771 -0.01966331
v -0.00889713 -0.00085225 -0.00965246
v -0.00481499 0.00172736 -0.00479372
v -0.00865496 -0.00210569 0.00697578
v -0.00673325 0.00272918 0.01003775
v -0.00491172 0.00086713 0.01964864
v -0.00773159 0.00508282 -0.01648203
v -0.00594793 0.00913793 -0.01294198
v -0.00867065 0.00570197 -0.00076878
v -0.00717717 0.01080213 0.00212463
v -0.00616826 0.00962610 0.01187903
v -0.00871531 0.00587822 0.02274018
v -0.00677580 0.01074391 0.02584589
v -0.00861927 0.01358999 -0.00886043
v -0.00679110 0.01848110 -0.00599054
v -0.00620890 0.01621991 0.00350541
v -0.00788786 0.01503947 0.01461843
v -0.01086378 0.01866316 0.01414638
v -0.00499350 0.01819772 0.01764783
v -0.00609173 0.01745296 0.02767924
v -0.00563036 0.02365619 -0.00390708
v -0.00717339 0.02200059 0.00679447
v -0.00759495 0.02201166 0.01453996
v -0.00771724 0.02266325 0.03039342
v -0.01078971 0.02797511 0.02966307
v -0.00550225 0.02538945 0.03342852
v -0.00959551 0.02929554 -0.00149714
v -0.00587240 0.03287098 0.00199495
v -0.01174143 0.03234336 0.02440278
v -0.00961129 0.03358816 0.02926643
v -0.00573696 0.03223085 0.03400966
v -0.01144410 0.04064608 0.00666240
v -0.00614685 0.04019203 0.00369603
v -0.01078489 0.04164825 0.01240337
v -0.00707161 0.04150234 0.01870949
v -0.00798981 0.03751235 0.02430941
v -0.00634588 0.03767030 0.03093189
v -0.00749363 0.04410369 0.00831227
v -0.00543741 0.04574923 0.01363611
v -0.00458857 -0.04571951 -0.02410291
v -0.00326527 -0.04476730 -0.01903168
v 0.00058517 -0.04613295 -0.01302182
v -0.00061026 -0.04768589 -0.00871632
v 0.00239835 -0.04507696 -0.00552275
v -0.00047773 -0.03741310 -0.02744738
v -0.00279874 -0.03733905 -0.02311018
v 0.00270842 -0.03999874 -0.02318402
v 0.00167321 -0.04208082 -0.01665138
v 0.00062726 -0.04179322 -0.00128891
v 0.00114431 -0.03680063 0.00232491
v 0.00199532 -0.03396864 -0.03132517
v -0.00066612 -0.02855053 -0.03634228
v -0.00329920 -0.03082096 -0.01907499
v 0.00237815 -0.02938985 -0.01269031
v -0.00109985 -0.03238896 -0.00894822
v 0.00190379 -0.02777688 -0.00583434
v 0.00297799 -0.03071311 0.00414532
v 0.00327115 -0.02219585 -0.03634716
v -0.00039194 -0.02353013 -0.01907452
v 0.00278420 -0.02528596 -0.01637414
v 0.00254260 -0.02207927 -0.00351972
v -0.00096490 -0.02567188 0.00694081
v 0.00093056 -0.02076286 0.00995041
v -0.00061274 -0.01721891 -0.03281591
v 0.00313024 -0.01356025 -0.02857912
v -0.00065805 -0.01818479 -0.01681151
v 0.00199875 -0.01420779 -0.01368890
v -0.00085823 -0.01795404 -0.00077306
v 0.00091000 -0.01310325 0.00220772
v 0.00288919 -0.01494371 0.01186094
v -0.00078078 -0.00986141 -0.02445461
v 0.00091224 -0.00497663 -0.02146238
v 0.00302355 -0.00685317 -0.01200314
v 0.00282070 -0.00725129 0.00419835
v -0.00093483 -0.00990168 0.01475775
v 0.00100485 -0.00514749 0.01773971
v 0.00263709 0.00112818 -0.01976768
v -0.00088826 -0.00197884 -0.00888591
v 0.00282127 0.00188093 -0.00495416
v -0.00083860 -0.00238484 0.00701849
v 0.00114142 0.00246521 0.01007294
v 0.00287017 0.00071038 0.01970790
v -0.00106864 0.00624580 -0.01695379
v 0.00301056 0.00980653 -0.01283710
v -0.00091015 0.00581877 -0.00085361
v 0.00073327 0.01077755 0.00211205
v 0.00287111 0.00851063 0.01203064
v -0.00087997 0.00561502 0.02268510
v 0.00107617 0.01046202 0.02570225
v -0.00072698 0.01355985 -0.00882131
v 0.00199008 0.01922897 -0.00506406
v 0.00102076 0.01844371 0.00251490
v -0.00111240 0.01345181 0.01528603
v 0.00190550 0.01750063 0.01834771
v 0.00290284 0.01636302 0.02765352
v 0.00078617 0.02257816 -0.00125638
v -0.00372061 0.02573906 0.00125068
v -0.00341933 0.02585278 0.00713788
v -0.00309801 0.02587544 0.01307405
v 0.00094595 0.02435102 0.01871053
v -0.00103427 0.02116766 0.03095367
v 0.00083614 0.02616802 0.03416608
v 0.00095788 0.02881985 0.00588548
v 0.00144887 0.03337377 0.00219583
v 0.00219432 0.02989370 0.01456223
v 0.00183712 0.03228010 0.03529898
v 0.00248516 0.04069666 0.00335702
v -0.00372031 0.04151541 0.02334481
v -0.00276688 0.04165912 0.02841578
v 0.00010469 0.03917797 0.03394231
v -0.00157855 0.04579062 0.00773140
v -0.00178679 0.04918251 0.01338056
v 0.00266629 0.04971937 0.01083702
v -0.00117839 0.04822054 0.01813707
v 0.00125184 0.04556930 0.02448115
v 0.00251102 0.04401632 0.03093257
v 0.00234920 0.05180172 0.01637782
v 0.00407015 -0.04507353 -0.00953032
v 0.00415123 -0.03756459 -0.02630862
v 0.00963388 -0.03715663 -0.02094333
v 0.00824933 -0.04044151 -0.01638416
v 0.00780463 -0.04187076 -0.00744669
v 0.00761240 -0.04017468 -0.00043196
v 0.00963959 -0.03538536 0.00222660
v 0.00920186 -0.03241704 -0.03123429
v 0.00708852 -0.02877513 -0.03580778
v 0.00891579 -0.03422310 -0.02587907
v 0.00419523 -0.03034923 -0.00858645
v 0.01025637 -0.02984211 0.00450974
v 0.00944637 -0.02334490 -0.03546512
v 0.00402865 -0.02068723 -0.01630015
v 0.00825152 -0.02127259 -0.01297780
v 0.00785694 -0.02632353 -0.00871067
v 0.00794516 -0.02334400 -0.00527884
v 0.00698489 -0.02578892 0.00712856
v 0.00878414 -0.02091021 0.01007615
v 0.00697149 -0.01787149 -0.03295609
v 0.01115498 -0.01496814 -0.02865546
v 0.00820745 -0.01287387 -0.01315447
v 0.00843073 -0.01817051 -0.00211290
v 0.00920154 -0.01188008 0.00210261
v 0.01062969 -0.01498058 0.01194397
v 0.00712522 -0.00997172 -0.02438887
v 0.00881508 -0.00506120 -0.02145598
v 0.01099005 -0.00680204 -0.01234380
v 0.01026663 -0.00505800 0.00426075
v 0.00690399 -0.01018783 0.01480793
v 0.00885560 -0.00525195 0.01780010
v 0.01060098 0.00097938 -0.01974294
v 0.00683913 -0.00194090 -0.00911717
v 0.01047955 0.00208886 -0.00515978
v 0.00656967 -0.00202159 0.00710794
v 0.00944384 0.00395073 0.00985699
v 0.01076546 0.00216621 0.01953428
v 0.00687130 0.00595287 -0.01686165
v 0.01077467 0.00967370 -0.01270837
v 0.00874907 0.00510965 0.00033613
v 0.00947064 0.00939490 0.00339908
v 0.01027301 0.01102925 0.01195740
v 0.00639029 0.00610904 0.02263358
v 0.00925059 0.01206840 0.02533792
v 0.00708188 0.01337087 -0.00867825
v 0.00988785 0.01739120 -0.00599261
v 0.00985657 0.01650534 0.00298398
v 0.00636847 0.01399709 0.01509574
v 0.00920805 0.02015647 0.01814841
v 0.01027012 0.01882345 0.02748319
v 0.00431556 0.02603561 -0.00043266
v 0.01013277 0.02395744 -0.00387105
v 0.00854667 0.02445951 0.00258427
v 0.00860679 0.02583831 0.01973560
v 0.00646759 0.02171937 0.03068303
v 0.00939169 0.02777287 0.03364593
v 0.00787156 0.02865170 -0.00028721
v 0.00565896 0.03007801 0.00326607
v 0.00733927 0.03448577 0.00311673
v 0.00738440 0.03076080 0.00777926
v 0.00578342 0.03358382 0.01421378
v 0.01072158 0.03277925 0.01148680
v 0.00796226 0.03161072 0.01841740
v 0.00764722 0.03465186 0.03515744
v 0.01057040 0.04051397 0.00336999
v 0.00988973 0.03606964 0.01586585
v 0.00964222 0.04144597 0.03439608
v 0.00647162 0.04562045 0.00630588
v 0.01022099 0.04966653 0.01030157
v 0.00414456 0.05015680 0.02149404
v 0.00775488 0.04912198 0.02619348
v 0.00844231 0.04656931 0.03060728
v 0.00842755 0.05279975 0.01557781
v 0.00954360 0.05256376 0.02322278
v 0.01233477 -0.03781477 -0.01623690
v 0.01330877 -0.03781174 -0.01058925
v 0.01299073 -0.03783658 -0.00281912
v 0.01164406 -0.02826815 -0.03302005
v 0.01333285 -0.02889545 -0.02719486
v 0.01675169 -0.02997628 -0.02076732
v 0.01623407 -0.03371637 -0.01523193
v 0.01731848 -0.03368261 -0.00683497
v 0.01612697 -0.03377738 -0.00047373
v 0.01543300 -0.03094095 0.00284633
v 0.01218654 -0.02232187 -0.03149036
v 0.01640903 -0.02075903 -0.02800312
v 0.01779198 -0.02551176 -0.02423536
v 0.01264324 -0.02084989 -0.00838374
v 0.01608049 -0.02583157 0.00578691
v 0.01689937 -0.01940315 0.00988641
v 0.01840370 -0.01246939 -0.02791495
v 0.01610430 -0.01367871 -0.01234036
v 0.01597052 -0.01678746 -0.00718998
v 0.01351069 -0.01489354 -0.00189286
v 0.01837981 -0.01372785 -0.00564361
v 0.01796893 -0.01252181 0.01186287
v 0.01454310 -0.00939910 -0.02465381
v 0.01724232 -0.00344197 -0.02189653
v 0.01843560 -0.00595510 -0.01244942
v 0.01734153 -0.01134467 -0.00120510
v 0.01688541 -0.00738079 0.00246004
v 0.01429608 -0.00970498 0.01480246
v 0.01705171 -0.00365848 0.01749670
v 0.01779528 0.00195860 -0.01953276
v 0.01484624 -0.00173012 -0.00941243
v 0.01871594 0.00332202 -0.00537965
v 0.01163436 0.00196112 0.00558561
v 0.01671272 0.00091521 0.00357401
v 0.01657562 0.00197086 0.01868900
v 0.01470468 0.00583553 -0.01674890
v 0.01870003 0.01097541 -0.01268878
v 0.01634888 0.00555795 -0.00035864
v 0.01367085 0.00626179 0.00261724
v 0.01588210 0.00521837 0.00647976
v 0.01757560 0.01076726 0.00234443
v 0.01696732 0.00875216 0.01020066
v 0.01210470 0.00869243 0.02206041
v 0.01783170 0.00825971 0.01988071
v 0.01432035 0.01396698 -0.00868694
v 0.01714734 0.02009038 -0.00613018
v 0.01678263 0.01846227 0.00394472
v 0.01212695 0.01666619 0.01435329
v 0.01728613 0.01527840 0.01195661
v 0.01608396 0.01274127 0.02312142
v 0.01669875 0.01678289 0.02559083
v 0.01813935 0.02569343 -0.00393342
v 0.01620202 0.02240651 0.00645944
v 0.01310188 0.02741618 0.00611575
v 0.01734003 0.02021490 0.01507102
v 0.01710885 0.02646750 0.00950059
v 0.01615945 0.02586261 0.01864228
v 0.01234089 0.02421440 0.02996805
v 0.01803196 0.02371728 0.02780720
v 0.01488373 0.02825315 -0.00037310
v 0.01571266 0.03313010 0.00270149
v 0.01857389 0.03317904 0.01185186
v 0.01681389 0.03333065 0.01846189
v 0.01641638 0.02809388 0.03118222
v 0.01624642 0.03331845 0.03416435
v 0.01848083 0.04049687 0.00347773
v 0.01661104 0.03654573 0.01510911
v 0.01834642 0.04010327 0.03528534
v 0.01450787 0.04559369 0.00632599
v 0.01845906 0.04964891 0.01034006
v 0.01235545 0.05018703 0.02995269
v 0.01667436 0.04716884 0.03416575
v 0.01654702 0.05284794 0.01540859
v 0.01676580 0.05396281 0.02284237
v 0.01757183 0.05244176 0.03033250
v 0.02008325 -0.02962941 -0.01627307
v 0.02103005 -0.02961038 -0.01081266
v 0.02025625 -0.02938193 -0.00192528
v 0.02115574 -0.02101587 -0.02546089
v 0.02465553 -0.02203649 -0.02077439
v 0.02390837 -0.02576109 -0.01539663
v 0.02598757 -0.02582518 -0.00700243
v 0.02382050 -0.02543285 0.00061996
v 0.02117042 -0.02247326 0.00614322
v 0.02706506 -0.02199594 0.00360946
v 0.02596206 -0.01752721 -0.02452362
v 0.02291652 -0.01534915 -0.02758977
v 0.02089733 -0.01303588 -0.01005990
v 0.02384660 -0.01909036 0.00778382
v 0.02431300 -0.01479473 0.01010419
v 0.02037575 -0.00683758 -0.02540957
v 0.02453544 -0.00808229 -0.02707148
v 0.02363862 -0.00791898 -0.01169997
v 0.02422247 -0.00986992 -0.00675158
v 0.02347570 -0.00883504 -0.00076097
v 0.02581712 -0.00420382 0.00201060
v 0.02010013 -0.00712229 0.01424408
v 0.02577455 -0.00762445 0.01209087
v 0.02382143 -0.00339358 -0.02427101
v 0.02587152 0.00039323 -0.02073631
v 0.02276289 -0.00232216 -0.00953918
v 0.02656116 0.00104135 -0.00589127
v 0.02446191 0.00297475 0.00328819
v 0.02407488 -0.00307243 0.01530851
v 0.02375733 0.00196704 0.01785595
v 0.02262815 0.00594263 -0.01667812
v 0.02566343 0.01003629 -0.01385916
v 0.02109301 0.00800511 -0.00035467
v 0.02599283 0.00847003 -0.00430909
v 0.01998471 0.00520980 0.00362114
v 0.02287660 0.00673150 0.00612110
v 0.02500511 0.01055719 0.01032277
v 0.02646480 0.00887353 0.01963635
v 0.01994089 0.01663964 -0.00927844
v 0.02567492 0.01625538 -0.01161194
v 0.02393610 0.01308374 -0.00090401
v 0.02554197 0.01712507 0.00274866
v 0.02492481 0.01662656 0.01214134
v 0.02262416 0.01380621 0.02261200
v 0.02459627 0.01848548 0.02568392
v 0.02385207 0.02080325 -0.00836161
v 0.02561784 0.02505414 -0.00506428
v 0.02281788 0.02143356 0.00701034
v 0.02441526 0.02665853 0.01042014
v 0.02466459 0.02200121 0.01516409
v 0.02451436 0.02825415 0.01787394
v 0.02682417 0.02558737 0.02767623
v 0.02299264 0.02961208 -0.00116311
v 0.02474048 0.03452678 0.00175969
v 0.02522009 0.03232856 0.01263483
v 0.02352927 0.03434695 0.01749674
v 0.02250724 0.02965609 0.03075968
v 0.02416953 0.03557872 0.03357226
v 0.02591123 0.03967043 0.00406409
v 0.02335940 0.03607925 0.01446095
v 0.02432849 0.04335328 0.03442806
v 0.02408926 0.04485991 0.00743949
v 0.02535336 0.04915039 0.01149721
v 0.02352442 0.04976952 0.03373741
v 0.02312510 0.05205430 0.01443092
v 0.02399427 0.05299457 0.02087311
v 0.02427532 0.05254224 0.02881708
v 0.02775814 -0.02181230 -0.01618558
v 0.02905760 -0.02186478 -0.01122628
v 0.03344433 -0.02123417 -0.00494674
v 0.03041109 -0.02414207 -0.00144477
v 0.03346050 -0.02155632 0.00183643
v 0.02844811 -0.01148444 -0.02505793
v 0.03193623 -0.01403612 -0.02101094
v 0.03163191 -0.01800357 -0.01525382
v 0.03349716 -0.01795239 -0.00894025
v 0.03181149 -0.01809424 0.00638808
v 0.03244708 -0.01320632 0.01010608
v 0.02783536 -0.00506076 -0.02436736
v 0.03194921 -0.00583277 -0.02201681
v 0.02806748 -0.00491722 -0.00742283
v 0.02840465 -0.00700463 -0.00267383
v 0.03428220 -0.00720229 0.01190201
v 0.03478851 0.00112042 -0.02001985
v 0.03151069 -0.00209090 -0.00192019
v 0.03151012 0.00345710 -0.00430635
v 0.03264682 0.00121004 0.00330649
v 0.03053802 -0.00211353 0.01477523
v 0.03251498 0.00275465 0.01774802
v 0.03061399 0.00602150 -0.01674670
v 0.03236977 0.01092768 -0.01382735
v 0.03297881 0.00832736 -0.00377946
v 0.03098111 0.00581397 0.00742123
v 0.03350282 0.01183420 0.01003012
v 0.03453132 0.00996142 0.01968658
v 0.03360687 0.01600876 -0.01166689
v 0.03037558 0.01365534 -0.00153925
v 0.03485537 0.01700961 0.00315233
v 0.03159949 0.01845994 0.01165620
v 0.03002356 0.01413504 0.02273066
v 0.03296666 0.01971486 0.02573258
v 0.03000118 0.02143337 -0.00907751
v 0.03470280 0.02442577 -0.00538009
v 0.03182502 0.02087534 0.00799073
v 0.02849301 0.02566679 0.01344972
v 0.03263836 0.02502529 0.02713828
v 0.03095392 0.02971287 -0.00120975
v 0.03358104 0.03449140 0.00278378
v 0.02724329 0.03233819 0.01567144
v 0.02780022 0.03258260 0.03027378
v 0.03277811 0.03315960 0.02701126
v 0.03310852 0.03862801 0.00720103
v 0.02836353 0.04153789 0.00661186
v 0.03265232 0.04167381 0.01060976
v 0.02917605 0.04061753 0.03029582
v 0.03244839 0.04219952 0.02568572
v 0.03099234 0.04569048 0.01354623
v 0.02856516 0.04984269 0.01687452
v 0.03301490 0.04529438 0.02035526
v 0.02928290 0.04857551 0.02498681
v 0.02761661 0.04799898 0.03138708
v 0.03536895 -0.02218090 -0.00105258
v 0.03642932 -0.01298628 -0.01686810
v 0.03671244 -0.01405030 -0.01110807
v 0.04046047 -0.01395959 -0.00481958
v 0.03909328 -0.01820794 0.00088350
v 0.03892337 -0.01654258 0.00717613
v 0.04090751 -0.01199310 0.00997195
v 0.04026890 -0.00962446 -0.01466615
v 0.03933835 -0.00570354 -0.02013862
v 0.04123686 -0.01007570 -0.00891759
v 0.04177853 -0.00512230 0.01204115
v 0.04201158 0.00199931 -0.02022340
v 0.03550732 0.00384050 -0.00061961
v 0.03795553 -0.00198571 0.01477445
v 0.04090203 0.00394580 0.01763857
v 0.03866975 0.00614536 -0.01709144
v 0.04123182 0.01073596 -0.01319088
v 0.03615251 0.01059765 0.00061295
v 0.03640085 0.00728516 0.00533804
v 0.04058379 0.00960117 0.01898137
v 0.04078762 0.01463428 -0.00867953
v 0.03570666 0.01892313 -0.00879730
v 0.04061593 0.01842756 -0.00541679
v 0.04062922 0.01380711 0.00511440
v 0.04080170 0.01878010 0.00381571
v 0.04124298 0.01803732 0.00982371
v 0.03593099 0.01629772 0.02240298
v 0.04108878 0.01523024 0.01997285
v 0.04090142 0.02376840 -0.00387804
v 0.03912274 0.02059056 0.00625033
v 0.04120136 0.02120996 0.02232549
v 0.03829005 0.02604418 0.02555687
v 0.03861763 0.02918417 -0.00143821
v 0.04112828 0.03272606 0.00262717
v 0.03782159 0.03383846 0.02277036
v 0.04049895 0.03475353 0.01857773
v 0.04147500 0.03005824 0.02207457
v 0.03932538 0.03611919 0.00676859
v 0.03970160 0.03736632 0.01246758
v 0.03652815 0.04038519 0.01725489
v 0.03519037 0.03982307 0.02289894
v 0.04412436 -0.01410751 -0.00020012
v 0.04431691 -0.01434188 0.00486788
v 0.04441989 -0.00500970 -0.01727066
v 0.04473181 -0.00602049 -0.01133303
v 0.04840252 -0.00598342 -0.00479434
v 0.04787374 -0.01008750 0.00072760
v 0.04745855 -0.01044014 0.00721560
v 0.04892881 -0.00550703 0.01016942
v 0.04853725 -0.00151861 -0.01485485
v 0.04680828 0.00010195 -0.01955055
v 0.04952080 -0.00204044 -0.00898629
v 0.04382815 0.00019965 0.01445505
v 0.04945712 0.00214485 0.01252400
v 0.04631255 0.00558021 -0.01745155
v 0.05072939 0.00934356 -0.01299666
v 0.04757172 0.00503231 0.01562725
v 0.04710949 0.01101272 0.01786315
v 0.04862124 0.01298432 -0.00829759
v 0.04757791 0.01437968 -0.00071449
v 0.04359019 0.01915279 -0.00016130
v 0.04778217 0.01488389 0.00736195
v 0.05007023 0.01658461 0.01183689
v 0.04706572 0.01892107 0.01819831
v 0.04367810 0.02720939 0.00036799
v 0.04437219 0.02460415 0.00741735
v 0.04771456 0.02106079 0.01368959
v 0.04556858 0.02499971 0.01652278
v 0.04324143 0.02667627 0.02160687
v 0.04375656 0.03290403 0.00716612
v 0.04387830 0.03133378 0.01545353
v 0.05203556 -0.00597739 -0.00012152
v 0.05223432 -0.00626566 0.00497075
v 0.05128092 0.00344470 -0.01549588
v 0.05259589 0.00143988 -0.01078935
v 0.05481528 0.00056866 -0.00542177
v 0.05607933 -0.00203228 0.00090535
v 0.05571394 -0.00219189 0.00742479
v 0.05593048 0.00238114 0.01011289
v 0.05608192 0.00573409 -0.00970833
v 0.05615070 0.01019262 -0.01126171
v 0.05218472 0.01079331 0.01372883
v 0.05585251 0.00842711 0.01085130
v 0.05510363 0.01248471 -0.00937220
v 0.05602339 0.01314019 -0.00299721
v 0.05536574 0.01300869 0.00660614
v 0.05076224 0.01639967 0.01574439
v 0.06000067 0.00455428 -0.00123161
v 0.05945870 0.00203074 0.00575750
v 0.05919741 0.00984566 -0.00685558
v 0.06027076 0.01025398 0.00028107
v 0.05983952 0.00776908 0.00643076
f 3 2 1
f 5 4 1
f 5 1 2
f 7 6 4
f 7 4 5
f 9 8 6
f 9 6 7
f 10 8 9
f 3 1 11
f 3 11 12
f 13 1 4
f 11 1 13
f 14 4 6
f 13 4 14
f 8 16 15
f 14 8 15
f 6 8 14
f 16 8 10
f 17 12 11
f 17 11 13
f 17 13 18
f 18 13 14
f 18 14 19
f 19 14 15
f 22 21 20
f 23 20 21
f 26 25 24
f 28 27 24
f 28 24 25
f 30 29 27
f 30 27 28
f 29 30 22
f 20 29 22
f 31 29 20
f 20 23 32
f 20 32 31
f 26 24 33
f 26 33 34
f 3 33 2
f 33 27 2
f 33 24 27
f 2 27 5
f 5 27 29
f 5 29 7
f 7 29 31
f 32 35 31
f 35 7 31
f 35 9 7
f 10 9 35
f 10 35 36
f 37 34 33
f 33 3 37
f 3 38 37
f 3 12 38
f 41 40 39
f 39 15 41
f 15 16 41
f 43 42 41
f 43 41 16
f 44 43 16
f 10 44 16
f 36 44 10
f 12 17 45
f 46 12 45
f 38 12 46
f 18 47 17
f 17 47 45
f 40 48 39
f 48 18 39
f 18 19 39
f 18 48 47
f 43 49 42
f 15 39 19
f 49 43 44
f 50 46 45
f 50 45 47
f 50 47 51
f 51 47 48
f 54 53 52
f 55 52 53
f 58 57 56
f 60 59 56
f 60 56 57
f 59 60 54
f 52 59 54
f 61 59 52
f 62 21 22
f 52 62 22
f 61 52 22
f 62 52 55
f 23 21 62
f 23 62 63
f 58 56 25
f 26 58 25
f 64 58 26
f 25 56 28
f 28 56 59
f 28 59 30
f 30 59 61
f 30 61 22
f 63 32 23
f 65 32 63
f 34 64 26
f 34 66 64
f 69 68 67
f 67 70 69
f 65 71 32
f 32 71 35
f 36 35 71
f 36 71 72
f 73 66 34
f 73 34 37
f 37 38 73
f 73 38 74
f 67 68 75
f 75 68 76
f 41 77 40
f 77 67 40
f 67 75 40
f 67 77 70
f 79 78 42
f 78 41 42
f 78 77 41
f 72 78 79
f 44 72 79
f 36 72 44
f 46 74 38
f 46 80 74
f 76 81 75
f 40 75 81
f 82 40 81
f 48 40 82
f 49 79 42
f 79 49 44
f 83 80 46
f 83 46 50
f 85 83 84
f 83 51 84
f 83 50 51
f 86 84 51
f 48 86 51
f 82 86 48
f 87 85 84
f 87 84 86
f 90 89 88
f 92 91 88
f 92 88 89
f 93 91 92
f 96 95 94
f 98 97 94
f 98 94 95
f 97 98 90
f 88 97 90
f 99 97 88
f 54 99 53
f 99 91 53
f 99 88 91
f 55 53 91
f 93 55 91
f 100 55 93
f 96 94 101
f 96 101 102
f 58 101 57
f 101 97 57
f 101 94 97
f 57 97 60
f 60 97 99
f 60 99 54
f 100 103 55
f 55 103 62
f 63 62 103
f 63 103 104
f 102 101 105
f 102 105 106
f 64 107 58
f 108 58 107
f 58 108 101
f 109 101 108
f 101 109 105
f 111 110 107
f 107 110 108
f 113 112 111
f 111 112 110
f 113 114 112
f 104 65 63
f 115 65 104
f 116 106 105
f 109 116 105
f 118 107 117
f 64 117 107
f 117 64 66
f 107 118 111
f 111 118 119
f 120 68 69
f 111 120 69
f 113 111 69
f 119 120 111
f 69 70 113
f 70 114 113
f 70 121 114
f 115 122 65
f 65 122 71
f 72 71 122
f 72 122 123
f 124 117 66
f 124 66 73
f 73 74 124
f 124 74 125
f 120 76 68
f 126 76 120
f 127 121 70
f 127 70 77
f 129 127 128
f 127 78 128
f 127 77 78
f 130 128 78
f 72 130 78
f 123 130 72
f 80 125 74
f 80 131 125
f 126 132 76
f 76 132 81
f 82 81 132
f 82 132 133
f 129 128 134
f 129 134 135
f 128 130 136
f 137 128 136
f 134 128 137
f 138 137 136
f 139 131 80
f 139 80 83
f 83 85 139
f 139 85 140
f 142 86 141
f 86 133 141
f 86 82 133
f 135 134 143
f 141 144 142
f 143 134 137
f 143 137 145
f 145 137 138
f 85 87 146
f 147 85 146
f 140 85 147
f 148 146 87
f 148 87 86
f 149 148 86
f 142 149 86
f 149 142 144
f 150 147 146
f 150 146 148
f 153 152 151
f 154 151 152
f 157 156 155
f 159 158 155
f 159 155 156
f 161 160 158
f 161 158 159
f 160 161 153
f 160 153 151
f 90 160 151
f 89 90 151
f 154 162 151
f 162 89 151
f 162 92 89
f 93 92 162
f 93 162 163
f 157 155 164
f 157 164 165
f 96 164 95
f 164 158 95
f 164 155 158
f 95 158 98
f 98 158 160
f 98 160 90
f 163 100 93
f 166 100 163
f 167 165 164
f 164 96 167
f 96 168 167
f 96 102 168
f 171 170 169
f 173 172 169
f 169 172 171
f 173 174 172
f 166 175 100
f 100 175 103
f 104 103 175
f 104 175 176
f 106 168 102
f 106 177 168
f 179 178 170
f 178 109 170
f 108 169 170
f 108 170 109
f 110 180 108
f 110 178 180
f 178 110 181
f 173 181 110
f 181 173 179
f 180 179 173
f 173 169 180
f 180 169 108
f 178 179 180
f 182 174 173
f 110 182 173
f 112 182 110
f 112 114 182
f 182 114 183
f 176 115 104
f 184 115 176
f 185 177 106
f 185 106 116
f 118 117 186
f 109 178 116
f 187 116 178
f 116 187 185
f 118 188 119
f 188 178 119
f 181 119 178
f 119 181 189
f 187 189 181
f 189 187 188
f 188 186 189
f 118 186 188
f 188 187 178
f 189 120 119
f 121 183 114
f 121 190 183
f 184 191 115
f 115 191 122
f 123 122 191
f 123 191 192
f 124 186 117
f 189 186 193
f 186 125 193
f 125 194 193
f 125 186 124
f 120 189 193
f 195 120 193
f 126 120 195
f 196 190 121
f 196 121 127
f 127 129 196
f 196 129 197
f 192 130 123
f 198 130 192
f 131 194 125
f 131 199 194
f 195 200 126
f 126 200 132
f 133 132 200
f 133 200 201
f 135 197 129
f 135 202 197
f 198 203 130
f 130 203 136
f 138 136 203
f 138 203 204
f 205 199 131
f 205 131 139
f 139 140 205
f 205 140 206
f 201 207 133
f 133 207 141
f 135 143 202
f 208 202 143
f 202 208 207
f 144 207 208
f 207 144 141
f 145 209 143
f 143 209 208
f 210 209 145
f 138 210 145
f 204 210 138
f 147 206 140
f 147 211 206
f 212 148 149
f 144 208 149
f 208 212 149
f 208 213 212
f 209 215 214
f 213 209 214
f 208 209 213
f 215 209 210
f 216 211 147
f 216 147 150
f 150 148 212
f 217 150 212
f 216 150 217
f 217 212 213
f 217 213 218
f 218 213 214
f 221 220 219
f 223 222 219
f 223 219 220
f 224 222 223
f 227 226 225
f 229 228 225
f 229 225 226
f 228 229 221
f 219 228 221
f 230 228 219
f 153 230 152
f 230 222 152
f 230 219 222
f 154 152 222
f 224 154 222
f 231 154 224
f 227 225 156
f 157 227 156
f 232 227 157
f 156 225 159
f 159 225 228
f 159 228 161
f 161 228 230
f 161 230 153
f 231 233 154
f 154 233 162
f 163 162 233
f 163 233 234
f 165 232 157
f 165 235 232
f 238 237 236
f 240 239 236
f 236 239 238
f 240 241 239
f 234 166 163
f 242 166 234
f 243 235 165
f 243 165 167
f 167 168 243
f 243 168 244
f 236 237 171
f 237 170 171
f 237 245 170
f 236 171 172
f 236 172 240
f 172 174 240
f 174 241 240
f 174 246 241
f 242 247 166
f 166 247 175
f 176 175 247
f 176 247 248
f 177 244 168
f 177 249 244
f 245 250 170
f 170 250 179
f 181 179 250
f 181 250 251
f 252 246 174
f 252 174 182
f 182 183 252
f 252 183 253
f 248 184 176
f 254 184 248
f 255 249 177
f 255 177 185
f 257 255 256
f 255 187 256
f 255 185 187
f 258 256 187
f 181 258 187
f 251 258 181
f 190 253 183
f 190 259 253
f 254 260 184
f 184 260 191
f 192 191 260
f 192 260 261
f 262 257 256
f 264 263 194
f 263 262 194
f 256 194 262
f 194 256 193
f 258 193 256
f 193 258 263
f 263 265 193
f 264 265 263
f 263 258 262
f 195 193 265
f 195 265 266
f 267 259 190
f 267 190 196
f 196 197 267
f 267 197 268
f 261 198 192
f 269 198 261
f 199 264 194
f 199 270 264
f 266 271 195
f 195 271 200
f 201 200 271
f 201 271 272
f 202 268 197
f 202 273 268
f 269 274 198
f 198 274 203
f 204 203 274
f 204 274 275
f 276 270 199
f 276 199 205
f 205 206 276
f 276 206 277
f 207 201 278
f 201 279 278
f 201 272 279
f 278 280 207
f 280 202 207
f 280 273 202
f 275 210 204
f 281 210 275
f 211 277 206
f 211 282 277
f 279 283 278
f 278 283 280
f 284 214 215
f 285 284 215
f 210 285 215
f 281 285 210
f 286 282 211
f 286 211 216
f 288 286 287
f 286 217 287
f 286 216 217
f 218 289 217
f 217 289 287
f 290 289 218
f 290 218 214
f 291 290 214
f 284 291 214
f 291 284 285
f 292 288 287
f 292 287 289
f 292 289 293
f 293 289 290
f 221 294 220
f 295 223 220
f 295 220 294
f 295 224 223
f 227 296 226
f 226 296 297
f 298 226 297
f 229 226 298
f 221 229 294
f 229 299 294
f 229 298 299
f 294 299 295
f 295 299 300
f 224 295 300
f 301 224 300
f 231 224 301
f 232 302 296
f 232 296 227
f 297 296 303
f 296 304 303
f 296 302 304
f 304 305 303
f 301 306 231
f 231 306 233
f 234 233 306
f 234 306 307
f 309 308 302
f 232 309 302
f 235 309 232
f 302 308 304
f 304 308 310
f 237 310 311
f 310 237 304
f 238 304 237
f 304 238 305
f 312 305 238
f 313 238 239
f 313 312 238
f 239 241 313
f 313 241 314
f 307 242 234
f 315 242 307
f 235 243 316
f 317 235 316
f 309 235 317
f 244 316 243
f 311 245 237
f 318 245 311
f 246 314 241
f 246 319 314
f 315 320 242
f 242 320 247
f 248 247 320
f 248 320 321
f 322 317 316
f 316 244 322
f 244 323 322
f 244 249 323
f 318 324 245
f 245 324 250
f 251 250 324
f 251 324 325
f 326 319 246
f 326 246 252
f 252 253 326
f 326 253 327
f 321 254 248
f 328 254 321
f 329 323 249
f 329 249 255
f 255 257 329
f 329 257 330
f 325 258 251
f 331 258 325
f 259 327 253
f 259 332 327
f 328 333 254
f 254 333 260
f 261 260 333
f 261 333 334
f 257 262 335
f 336 257 335
f 330 257 336
f 265 264 337
f 335 337 264
f 337 335 331
f 262 331 335
f 331 262 258
f 266 265 337
f 266 337 338
f 339 332 259
f 339 259 267
f 267 268 339
f 339 268 340
f 334 269 261
f 341 269 334
f 342 336 335
f 335 264 342
f 264 343 342
f 264 270 343
f 338 344 266
f 266 344 271
f 272 271 344
f 272 344 345
f 273 340 268
f 273 346 340
f 341 347 269
f 269 347 274
f 275 274 347
f 275 347 348
f 349 343 270
f 349 270 276
f 276 277 349
f 349 277 350
f 345 279 272
f 351 279 345
f 280 353 352
f 346 280 352
f 273 280 346
f 353 354 352
f 348 281 275
f 355 281 348
f 282 350 277
f 282 356 350
f 351 357 279
f 279 357 283
f 280 283 353
f 283 358 353
f 283 357 358
f 353 358 354
f 360 285 359
f 285 355 359
f 285 281 355
f 361 360 359
f 362 356 282
f 362 282 286
f 286 288 362
f 362 288 363
f 364 290 291
f 285 360 291
f 360 364 291
f 360 365 364
f 360 361 366
f 360 366 365
f 288 292 367
f 368 288 367
f 363 288 368
f 293 369 292
f 292 369 367
f 370 369 293
f 370 293 290
f 371 370 290
f 364 371 290
f 371 364 365
f 371 365 372
f 372 365 366
f 373 368 367
f 373 367 369
f 373 369 374
f 374 369 370
f 297 375 298
f 376 299 298
f 376 298 375
f 299 376 377
f 378 299 377
f 300 299 378
f 301 300 378
f 301 378 379
f 375 297 303
f 382 381 380
f 383 381 382
f 381 383 305
f 376 305 383
f 305 376 303
f 375 303 376
f 376 383 377
f 379 384 301
f 301 384 306
f 307 306 384
f 307 384 385
f 387 386 308
f 387 308 309
f 381 310 380
f 310 386 380
f 310 308 386
f 311 310 388
f 310 381 388
f 305 312 388
f 305 388 381
f 388 312 389
f 312 390 389
f 312 313 390
f 313 314 390
f 390 314 391
f 385 315 307
f 392 315 385
f 317 387 309
f 317 393 387
f 395 394 388
f 394 311 388
f 394 318 311
f 395 388 389
f 319 391 314
f 319 396 391
f 392 397 315
f 315 397 320
f 321 320 397
f 321 397 398
f 399 393 317
f 399 317 322
f 322 323 399
f 399 323 400
f 394 401 318
f 318 401 324
f 325 324 401
f 325 401 402
f 403 396 319
f 403 319 326
f 326 327 403
f 403 327 404
f 398 328 321
f 405 328 398
f 406 400 323
f 406 323 329
f 329 330 406
f 406 330 407
f 402 331 325
f 408 331 402
f 332 404 327
f 332 409 404
f 405 410 328
f 328 410 333
f 334 333 410
f 334 410 411
f 336 407 330
f 336 412 407
f 408 413 331
f 331 413 337
f 338 337 413
f 338 413 414
f 415 409 332
f 415 332 339
f 339 340 415
f 415 340 416
f 411 341 334
f 417 341 411
f 418 412 336
f 418 336 342
f 342 343 418
f 418 343 419
f 414 420 338
f 338 420 344
f 345 344 420
f 345 420 421
f 346 416 340
f 346 422 416
f 417 423 341
f 341 423 347
f 348 347 423
f 348 423 424
f 425 419 343
f 425 343 349
f 349 350 425
f 425 350 426
f 421 351 345
f 427 351 421
f 428 422 346
f 428 346 352
f 352 354 428
f 428 354 429
f 424 355 348
f 430 355 424
f 356 432 431
f 426 356 431
f 350 356 426
f 432 433 357
f 427 432 357
f 351 427 357
f 432 427 431
f 434 358 357
f 434 357 433
f 434 435 358
f 435 354 358
f 435 429 354
f 430 436 355
f 355 436 359
f 361 359 436
f 361 436 437
f 362 432 356
f 433 432 438
f 432 363 438
f 363 439 438
f 363 432 362
f 433 438 434
f 434 438 440
f 434 440 435
f 437 366 361
f 441 366 437
f 368 439 363
f 368 442 439
f 443 370 371
f 372 444 371
f 371 444 443
f 445 444 372
f 366 445 372
f 441 445 366
f 446 442 368
f 446 368 373
f 448 446 447
f 446 374 447
f 446 373 374
f 449 447 374
f 449 374 370
f 450 449 370
f 443 450 370
f 450 443 444
f 450 444 451
f 451 444 445
f 452 448 447
f 452 447 449
f 377 453 378
f 453 379 378
f 380 454 382
f 382 454 455
f 456 382 455
f 383 382 456
f 377 383 453
f 383 457 453
f 383 456 457
f 453 457 379
f 457 384 379
f 457 458 384
f 385 384 458
f 385 458 459
f 461 460 386
f 461 386 387
f 380 386 454
f 386 462 454
f 386 460 462
f 454 462 455
f 463 389 390
f 391 463 390
f 459 392 385
f 464 392 459
f 393 461 387
f 393 465 461
f 466 394 395
f 467 466 395
f 467 395 389
f 468 467 389
f 463 468 389
f 463 391 468
f 391 469 468
f 391 396 469
f 464 470 392
f 392 470 397
f 398 397 470
f 398 470 471
f 472 465 393
f 472 393 399
f 399 400 472
f 472 400 473
f 466 401 394
f 402 401 466
f 467 402 466
f 474 402 467
f 475 469 396
f 475 396 403
f 403 404 475
f 475 404 476
f 471 405 398
f 477 405 471
f 478 473 400
f 478 400 406
f 406 407 478
f 478 407 479
f 474 408 402
f 480 408 474
f 409 476 404
f 409 481 476
f 477 482 405
f 405 482 410
f 411 410 482
f 411 482 483
f 412 479 407
f 412 484 479
f 480 485 408
f 408 485 413
f 414 413 485
f 414 485 486
f 487 481 409
f 487 409 415
f 415 416 487
f 487 416 488
f 483 417 411
f 489 417 483
f 490 484 412
f 490 412 418
f 418 419 490
f 490 419 491
f 486 492 414
f 414 492 420
f 421 420 492
f 421 492 493
f 422 488 416
f 422 494 488
f 489 495 417
f 417 495 423
f 424 423 495
f 424 495 496
f 497 491 419
f 497 419 425
f 425 426 497
f 497 426 498
f 493 427 421
f 499 427 493
f 500 494 422
f 500 422 428
f 428 429 500
f 500 429 501
f 496 430 424
f 502 430 496
f 426 431 503
f 504 426 503
f 498 426 504
f 505 503 431
f 427 505 431
f 499 505 427
f 435 501 429
f 435 506 501
f 502 507 430
f 430 507 436
f 437 436 507
f 437 507 508
f 509 504 503
f 511 510 439
f 510 509 439
f 503 439 509
f 439 503 438
f 505 438 503
f 438 505 510
f 510 512 438
f 511 512 510
f 510 505 509
f 512 514 513
f 440 512 513
f 438 512 440
f 513 515 440
f 515 435 440
f 515 506 435
f 508 441 437
f 516 441 508
f 442 511 439
f 442 517 511
f 514 518 513
f 513 518 515
f 516 445 441
f 519 445 516
f 520 517 442
f 520 442 446
f 446 448 520
f 520 448 521
f 522 449 450
f 522 450 523
f 450 524 523
f 450 451 524
f 451 445 519
f 451 519 524
f 525 521 448
f 525 448 452
f 452 449 522
f 526 452 522
f 525 452 526
f 526 522 523
f 455 527 456
f 528 457 456
f 528 456 527
f 529 458 457
f 529 457 528
f 529 459 458
f 461 530 460
f 531 462 460
f 531 460 530
f 531 532 462
f 462 532 455
f 532 533 455
f 533 527 455
f 527 533 528
f 528 533 534
f 528 534 529
f 529 534 535
f 459 529 535
f 536 459 535
f 464 459 536
f 465 537 530
f 465 530 461
f 539 531 538
f 531 537 538
f 531 530 537
f 531 539 532
f 540 467 468
f 469 540 468
f 536 541 464
f 464 541 470
f 471 470 541
f 471 541 542
f 472 537 465
f 472 473 537
f 473 538 537
f 473 543 538
f 545 544 540
f 544 467 540
f 544 474 467
f 547 545 546
f 546 545 475
f 545 540 475
f 540 469 475
f 476 546 475
f 542 477 471
f 548 477 542
f 549 543 473
f 549 473 478
f 478 479 549
f 549 479 550
f 544 480 474
f 551 480 544
f 552 547 546
f 546 476 552
f 476 553 552
f 476 481 553
f 548 554 477
f 477 554 482
f 483 482 554
f 483 554 555
f 484 550 479
f 484 556 550
f 551 557 480
f 480 557 485
f 486 485 557
f 486 557 558
f 481 487 559
f 560 481 559
f 553 481 560
f 488 559 487
f 555 489 483
f 561 489 555
f 562 556 484
f 562 484 490
f 490 491 562
f 562 491 563
f 558 564 486
f 486 564 492
f 564 565 492
f 565 560 492
f 559 492 560
f 492 559 493
f 566 493 559
f 493 566 565
f 565 567 493
f 564 567 565
f 565 566 560
f 559 488 566
f 488 568 566
f 488 494 568
f 495 489 569
f 489 570 569
f 489 561 570
f 569 496 495
f 571 563 491
f 571 491 497
f 497 498 571
f 571 498 572
f 567 499 493
f 573 499 567
f 494 500 574
f 575 494 574
f 568 494 575
f 570 576 569
f 574 500 501
f 496 569 576
f 577 496 576
f 502 496 577
f 504 572 498
f 504 578 572
f 580 505 579
f 505 573 579
f 505 499 573
f 575 574 581
f 579 582 580
f 574 501 581
f 501 583 581
f 501 506 583
f 507 502 584
f 502 585 584
f 502 577 585
f 584 508 507
f 586 578 504
f 586 504 509
f 509 505 586
f 580 586 505
f 586 580 587
f 512 587 580
f 587 512 511
f 514 512 580
f 582 514 580
f 588 514 582
f 515 583 506
f 515 589 583
f 585 590 584
f 508 584 590
f 591 508 590
f 516 508 591
f 517 587 511
f 517 592 587
f 588 593 514
f 514 593 518
f 515 518 589
f 589 518 593
f 591 519 516
f 594 519 591
f 595 592 517
f 595 517 520
f 520 521 595
f 595 521 596
f 597 523 524
f 598 597 524
f 519 598 524
f 594 598 519
f 599 596 521
f 599 521 525
f 600 525 526
f 600 599 525
f 526 523 597
f 601 526 597
f 600 526 601
f 601 597 598
f 532 602 533
f 603 534 533
f 603 533 602
f 604 535 534
f 604 534 603
f 604 536 535
f 538 605 539
f 605 606 539
f 539 606 532
f 606 607 532
f 607 602 532
f 602 607 603
f 603 607 608
f 603 608 604
f 604 608 609
f 609 611 610
f 609 610 541
f 604 609 541
f 536 604 541
f 610 542 541
f 613 612 605
f 538 613 605
f 543 613 538
f 605 612 606
f 614 544 545
f 547 614 545
f 611 615 610
f 542 610 615
f 616 542 615
f 548 542 616
f 543 549 617
f 618 543 617
f 613 543 618
f 550 617 549
f 620 619 614
f 619 544 614
f 619 551 544
f 620 614 547
f 552 620 547
f 621 620 552
f 552 553 621
f 621 553 622
f 554 548 623
f 548 624 623
f 548 616 624
f 623 555 554
f 625 618 617
f 617 550 625
f 550 626 625
f 550 556 626
f 619 627 551
f 551 627 557
f 558 557 627
f 558 627 628
f 560 622 553
f 560 629 622
f 624 630 623
f 555 623 630
f 631 555 630
f 561 555 631
f 632 626 556
f 632 556 562
f 562 563 632
f 632 563 633
f 564 558 634
f 558 635 634
f 558 628 635
f 637 636 566
f 637 567 636
f 567 637 634
f 629 634 637
f 634 629 564
f 636 564 629
f 629 560 636
f 636 560 566
f 567 564 636
f 566 568 637
f 637 568 638
f 631 570 561
f 639 570 631
f 563 571 640
f 641 563 640
f 633 563 641
f 635 642 634
f 640 571 572
f 567 634 642
f 643 567 642
f 573 567 643
f 575 638 568
f 575 644 638
f 639 645 570
f 570 645 576
f 577 576 645
f 577 645 646
f 647 641 640
f 640 572 647
f 572 648 647
f 572 578 648
f 643 649 573
f 573 649 579
f 649 582 579
f 582 649 650
f 575 581 644
f 651 644 581
f 581 583 651
f 651 583 652
f 646 585 577
f 653 585 646
f 654 648 578
f 654 578 586
f 586 587 654
f 654 587 655
f 650 588 582
f 656 588 650
f 589 652 583
f 589 657 652
f 653 658 585
f 585 658 590
f 591 590 658
f 591 658 659
f 592 655 587
f 592 660 655
f 656 661 588
f 588 661 593
f 589 593 657
f 657 593 661
f 659 594 591
f 662 594 659
f 663 660 592
f 663 592 595
f 595 596 663
f 663 596 664
f 662 598 594
f 665 598 662
f 666 664 596
f 666 596 599
f 667 599 600
f 667 666 599
f 668 600 601
f 668 667 600
f 601 598 665
f 601 665 668
f 606 669 607
f 670 608 607
f 670 607 669
f 608 670 671
f 672 608 671
f 609 608 672
f 611 609 672
f 611 672 673
f 613 674 612
f 674 675 612
f 612 675 606
f 675 676 606
f 676 669 606
f 669 676 670
f 670 676 677
f 670 677 671
f 673 678 611
f 611 678 615
f 616 615 678
f 616 678 679
f 618 680 674
f 618 674 613
f 675 674 681
f 681 674 680
f 682 619 620
f 621 683 620
f 620 683 682
f 622 683 621
f 679 624 616
f 684 624 679
f 625 680 618
f 625 626 680
f 626 681 680
f 626 685 681
f 682 627 619
f 682 683 686
f 628 682 686
f 687 628 686
f 682 628 627
f 683 622 686
f 622 688 686
f 622 629 688
f 684 689 624
f 624 689 630
f 631 630 689
f 631 689 690
f 691 685 626
f 691 626 632
f 632 633 691
f 691 633 692
f 687 635 628
f 693 635 687
f 694 688 629
f 694 629 637
f 637 638 694
f 694 638 695
f 690 639 631
f 696 639 690
f 641 692 633
f 641 697 692
f 693 698 635
f 635 698 642
f 643 642 698
f 643 698 699
f 644 695 638
f 644 700 695
f 696 701 639
f 639 701 645
f 646 645 701
f 646 701 702
f 703 697 641
f 703 641 647
f 647 648 703
f 703 648 704
f 699 705 643
f 643 705 649
f 644 651 700
f 706 700 651
f 700 706 705
f 650 705 706
f 705 650 649
f 652 706 651
f 702 653 646
f 707 653 702
f 708 704 648
f 708 648 654
f 654 655 708
f 708 655 709
f 710 656 706
f 706 656 650
f 657 710 652
f 652 710 706
f 658 653 711
f 653 712 711
f 653 707 712
f 711 659 658
f 660 714 713
f 709 660 713
f 655 660 709
f 710 661 656
f 715 713 714
f 661 710 657
f 711 712 716
f 716 712 717
f 716 662 659
f 716 659 711
f 663 714 660
f 719 718 664
f 664 718 663
f 718 715 663
f 715 714 663
f 721 720 719
f 719 720 718
f 720 721 717
f 721 716 717
f 721 722 716
f 722 665 662
f 722 662 716
f 666 719 664
f 719 666 667
f 719 667 721
f 721 667 668
f 721 668 722
f 722 668 665
f 671 723 672
f 723 673 672
f 675 724 676
f 725 677 676
f 725 676 724
f 725 726 677
f 677 726 671
f 726 727 671
f 727 723 671
f 723 727 673
f 727 678 673
f 727 728 678
f 679 678 728
f 679 728 729
f 731 730 724
f 675 731 724
f 681 731 675
f 724 730 725
f 725 730 732
f 725 732 726
f 729 684 679
f 733 684 729
f 685 731 681
f 685 734 731
f 735 687 686
f 688 735 686
f 733 736 684
f 684 736 689
f 690 689 736
f 690 736 737
f 738 734 685
f 738 685 691
f 691 692 738
f 738 692 739
f 740 693 735
f 735 693 687
f 694 741 688
f 741 735 688
f 741 740 735
f 695 741 694
f 737 696 690
f 742 696 737
f 697 744 743
f 739 697 743
f 692 697 739
f 740 698 693
f 745 743 744
f 740 741 746
f 699 740 746
f 747 699 746
f 740 699 698
f 741 695 746
f 695 748 746
f 695 700 748
f 701 696 749
f 696 750 749
f 696 742 750
f 749 702 701
f 703 744 697
f 703 704 744
f 704 745 744
f 704 751 745
f 747 752 699
f 699 752 705
f 700 705 748
f 748 705 752
f 750 753 749
f 702 749 753
f 754 702 753
f 707 702 754
f 755 751 704
f 755 704 708
f 708 709 755
f 755 709 756
f 759 758 757
f 754 759 757
f 712 754 757
f 707 754 712
f 760 756 709
f 760 709 713
f 762 761 715
f 761 713 715
f 761 760 713
f 761 762 758
f 762 757 758
f 762 763 757
f 763 717 712
f 763 712 757
f 718 762 715
f 762 718 720
f 762 720 763
f 763 720 717
f 726 764 727
f 765 728 727
f 765 727 764
f 765 729 728
f 731 766 730
f 767 732 730
f 767 730 766
f 767 768 732
f 732 768 726
f 768 769 726
f 769 764 726
f 764 769 765
f 765 769 770
f 729 765 770
f 771 729 770
f 733 729 771
f 773 772 766
f 731 773 766
f 734 773 731
f 766 772 767
f 767 772 774
f 767 774 768
f 736 733 775
f 733 776 775
f 733 771 776
f 775 737 736
f 777 773 734
f 777 734 738
f 738 739 777
f 777 739 778
f 776 779 775
f 737 775 779
f 780 737 779
f 742 737 780
f 781 778 739
f 781 739 743
f 783 782 745
f 782 743 745
f 782 781 743
f 747 746 783
f 746 782 783
f 746 784 782
f 746 748 784
f 784 748 785
f 780 750 742
f 786 750 780
f 751 787 783
f 751 783 745
f 788 752 747
f 783 788 747
f 787 788 783
f 785 748 789
f 748 788 789
f 788 790 789
f 748 752 788
f 790 791 753
f 786 790 753
f 750 786 753
f 790 786 789
f 791 754 753
f 755 787 751
f 787 755 756
f 792 787 756
f 788 787 792
f 788 793 790
f 788 792 793
f 793 758 759
f 791 793 759
f 790 793 791
f 791 759 754
f 760 792 756
f 792 760 761
f 792 761 793
f 793 761 758
f 768 794 769
f 795 770 769
f 795 769 794
f 795 771 770
f 773 796 772
f 797 774 772
f 797 772 796
f 797 798 774
f 774 798 768
f 798 799 768
f 799 794 768
f 794 799 795
f 795 799 800
f 771 795 800
f 801 771 800
f 776 771 801
f 777 796 773
f 797 796 802
f 796 778 802
f 778 803 802
f 778 796 777
f 797 802 798
f 779 776 804
f 776 805 804
f 776 801 805
f 804 780 779
f 806 803 778
f 806 778 781
f 807 781 782
f 807 806 781
f 808 782 784
f 808 807 782
f 809 804 785
f 804 808 785
f 808 784 785
f 804 805 808
f 809 786 780
f 809 780 804
f 789 809 785
f 809 789 786
f 798 810 799
f 811 800 799
f 811 799 810
f 811 801 800
f 803 812 802
f 810 798 802
f 812 810 802
f 813 810 812
f 810 814 811
f 810 813 814
f 814 805 801
f 814 801 811
f 806 812 803
f 812 806 807
f 812 807 813
f 813 807 808
f 813 808 814
f 814 808 805

