# https://github.com/mikedh/trimesh
v -0.06101283 -0.00502992 -0.04198903
v -0.05896969 -0.00849173 -0.04343061
v -0.05870499 -0.00468978 -0.04630435
v -0.06140906 -0.00505917 -0.03598888
v -0.05822592 -0.00909627 -0.03819466
v -0.06152946 -0.00498812 -0.02947600
v -0.05821365 -0.00835945 -0.03117807
v -0.06095918 -0.00446191 -0.02449938
v -0.05908968 -0.00778008 -0.02603631
v -0.05765989 -0.00598605 -0.02271065
v -0.06146425 0.00087669 -0.04280001
v -0.05904962 0.00255300 -0.04676919
v -0.06225849 0.00084867 -0.03726087
v -0.06232113 0.00091941 -0.03087793
v -0.06154762 0.00084753 -0.02512074
v -0.05812560 -0.00082810 -0.02192871
v -0.06084017 0.00614025 -0.04335545
v -0.05815717 0.00765821 -0.04657159
v -0.06147104 0.00668762 -0.03852150
v -0.06148908 0.00686398 -0.03218907
v -0.06099803 0.00691994 -0.02609651
v -0.05797094 0.00565941 -0.02218572
v -0.05821892 0.00976512 -0.04294354
v -0.05794940 0.00956761 -0.03733433
v -0.05819764 0.00963407 -0.03003079
v -0.05725564 0.00970541 -0.02417623
v -0.05568862 -0.01117744 -0.04324143
v -0.05178294 -0.01367636 -0.04220920
v -0.05240071 -0.01060084 -0.04612754
v -0.05464657 -0.01177111 -0.03676603
v -0.05268334 -0.01369388 -0.03845269
v -0.05174443 -0.01122921 -0.03426414
v -0.05506782 -0.00678949 -0.04900193
v -0.05116350 -0.00839298 -0.04927453
v -0.05200288 -0.00512015 -0.05199722
v -0.05227708 -0.00895548 -0.03090454
v -0.05317880 -0.00853887 -0.02472441
v -0.05188400 -0.00438380 -0.02174653
v -0.05594020 -0.00054494 -0.05005274
v -0.05201399 0.00110267 -0.05235894
v -0.05465882 0.00161866 -0.03559343
v -0.05258843 0.00282502 -0.04013387
v -0.05200206 -0.00139768 -0.03773939
v -0.05124992 -0.00239385 -0.03157969
v -0.05424973 0.00226215 -0.03113758
v -0.05136482 0.00083494 -0.02795749
v -0.05281634 0.00252340 -0.02195203
v -0.05554917 0.00574447 -0.04992129
v -0.05101412 0.00698103 -0.05185223
v -0.05579061 0.00666165 -0.03649561
v -0.05342007 0.00754667 -0.04048475
v -0.05534257 0.00666790 -0.03144823
v -0.05214127 0.00549548 -0.02756391
v -0.05334125 0.00777348 -0.02247444
v -0.05386637 0.00986377 -0.04828166
v -0.05228705 0.00998785 -0.04408259
v -0.05363288 0.00939136 -0.02596609
v -0.04844533 -0.01116809 -0.04913367
v -0.04517518 -0.01369707 -0.04993302
v -0.04760835 -0.01057981 -0.05177026
v -0.04993591 -0.01070240 -0.04214768
v -0.04526342 -0.01219186 -0.04757427
v -0.05007591 -0.01140514 -0.03739349
v -0.04642288 -0.00557709 -0.05296999
v -0.04682361 -0.00631143 -0.04639948
v -0.04971124 -0.00660676 -0.04431111
v -0.04974915 -0.00557242 -0.03780475
v -0.04973169 -0.00711884 -0.03224068
v -0.04733115 -0.00562189 -0.02786889
v -0.04558508 -0.00806570 -0.02428128
v -0.04831609 -0.00389043 -0.01932787
v -0.04655258 -0.00828947 -0.01926001
v -0.04568462 -0.00604852 -0.01558025
v -0.04653981 0.00112388 -0.05296812
v -0.04937700 -0.00058549 -0.04254797
v -0.04562473 0.00121473 -0.04565461
v -0.04794840 -0.00276981 -0.02485122
v -0.04998409 0.00123413 -0.02460156
v -0.04535937 -0.00086619 -0.02217289
v -0.04852210 0.00248480 -0.01907856
v -0.04679196 -0.00076841 -0.01564120
v -0.04529838 0.00697975 -0.05211172
v -0.04968107 0.00572985 -0.04353551
v -0.04594058 0.00700982 -0.04617889
v -0.05051413 0.00620123 -0.02407548
v -0.04552891 0.00622021 -0.02119730
v -0.04856252 0.00714346 -0.01923624
v -0.04702903 0.00564542 -0.01630093
v -0.04718519 0.00974627 -0.04907344
v -0.04549717 0.00940443 -0.01774289
v -0.03996939 -0.01405318 -0.04939935
v -0.04146197 -0.01157576 -0.05200957
v -0.04016313 -0.01144498 -0.04690140
v -0.03994672 -0.00570998 -0.05288627
v -0.04020464 -0.00552854 -0.04615864
v -0.04406600 -0.00483460 -0.02462097
v -0.04114677 -0.00508277 -0.02219282
v -0.03949777 -0.00825840 -0.01831061
v -0.04304804 -0.00400943 -0.01246891
v -0.04049603 -0.00823164 -0.01315955
v -0.03944946 -0.00587686 -0.00934956
v -0.04035621 0.00108673 -0.05289382
v -0.04008968 0.00105063 -0.04619606
v -0.04084479 0.00076904 -0.02169977
v -0.04361196 0.00235179 -0.01262626
v -0.04032507 -0.00080177 -0.00928016
v -0.03902279 0.00699275 -0.05200464
v -0.04018467 0.00681739 -0.04700618
v -0.04043529 0.00611388 -0.02117386
v -0.04363811 0.00763291 -0.01361189
v -0.04039767 0.00552284 -0.00976318
v -0.04040523 0.00940276 -0.04946933
v -0.04095301 0.00969922 -0.01852230
v -0.03986570 0.00984281 -0.01232591
v -0.03339756 -0.01413362 -0.04933104
v -0.03485023 -0.01160603 -0.05194220
v -0.03351674 -0.01167550 -0.04680687
v -0.03349668 -0.00569636 -0.05284813
v -0.03362404 -0.00592553 -0.04599023
v -0.03719144 -0.00397614 -0.01915995
v -0.03467772 -0.00589471 -0.01579576
v -0.03409114 -0.00820154 -0.01204153
v -0.03693428 -0.00377368 -0.00605769
v -0.03565580 -0.00816334 -0.00775374
v -0.03290927 -0.00659616 -0.00413614
v -0.03388373 0.00111860 -0.05290233
v -0.03360113 0.00074570 -0.04595028
v -0.03707295 0.00230785 -0.01923926
v -0.03405930 -0.00087886 -0.01597350
v -0.03737943 0.00238360 -0.00599404
v -0.03294118 0.00062872 -0.00393688
v -0.03239193 0.00702504 -0.05204634
v -0.03369485 0.00675783 -0.04676221
v -0.03733520 0.00745534 -0.01843332
v -0.03322262 0.00570137 -0.01705036
v -0.03735758 0.00740522 -0.00687241
v -0.03431998 0.00595386 -0.00402409
v -0.03392915 0.00945334 -0.04938142
v -0.03397734 0.00997571 -0.01356802
v -0.03390446 0.00940799 -0.00671506
v -0.03030045 -0.01817415 -0.00527902
v -0.02655460 -0.02029632 -0.00602032
v -0.02831951 -0.01680983 -0.00863960
v -0.03016805 -0.01658291 -0.00148667
v -0.02860676 -0.02003632 -0.00144377
v -0.02724347 -0.01850219 0.00143173
v -0.02819829 -0.01394727 -0.04889944
v -0.02869941 -0.01167228 -0.05155049
v -0.02768633 -0.01066607 -0.04720776
v -0.03112237 -0.01180779 -0.00676909
v -0.02697096 -0.01251512 -0.00959829
v -0.02909787 -0.01124078 -0.00273356
v -0.02649051 -0.01515975 0.00000210
v -0.02776186 -0.00579424 -0.05204941
v -0.02776188 -0.00441788 -0.04674062
v -0.03035056 -0.00583205 -0.03014699
v -0.02690904 -0.00768205 -0.03080601
v -0.02754326 -0.00486036 -0.03321721
v -0.03027742 -0.00483264 -0.02600795
v -0.02886811 -0.00738333 -0.02607062
v -0.02731187 -0.00582740 -0.02292214
v -0.03146716 -0.00348849 -0.01174913
v -0.02794703 -0.00654473 -0.01033827
v -0.02852439 -0.00495626 -0.00379690
v -0.02796769 0.00097580 -0.05205280
v -0.02777450 0.00239187 -0.04670092
v -0.02815056 -0.00301625 -0.02949763
v -0.02727050 -0.00325950 -0.02440749
v -0.03127511 0.00150392 -0.01356971
v -0.02695695 -0.00280955 -0.00742851
v -0.03033873 0.00004389 -0.00754016
v -0.02718993 0.00621764 -0.05136698
v -0.02857653 0.00760852 -0.04739647
v -0.03022025 0.00709383 -0.01968434
v -0.02762224 0.00461773 -0.01826962
v -0.02678460 0.00746003 -0.02120443
v -0.02742156 0.00303843 -0.01128405
v -0.02856279 0.00347380 -0.00605305
v -0.02810704 0.00708681 -0.00390415
v -0.02866478 0.00911685 -0.04988446
v -0.02831367 0.00927387 -0.01748887
v -0.02801529 0.01034419 -0.01265229
v -0.02777325 0.01062229 -0.00744921
v -0.02044723 -0.02061803 -0.00612347
v -0.02348545 -0.01733223 -0.00938964
v -0.02369380 -0.02055377 -0.00092217
v -0.02220597 -0.01799279 0.00152406
v -0.02541083 -0.01115843 -0.04986645
v -0.02244324 -0.01123215 -0.01074952
v -0.02359539 -0.01076658 -0.00260365
v -0.02057604 -0.01478219 -0.00044670
v -0.02524242 -0.00593074 -0.04945044
v -0.02074922 -0.00813976 -0.03079823
v -0.02237395 -0.00534582 -0.03366725
v -0.02375797 -0.00810057 -0.02527523
v -0.02206222 -0.00533756 -0.02255297
v -0.02401267 -0.00584861 -0.01281421
v -0.02033014 -0.00786681 -0.01338005
v -0.02081359 -0.00453973 -0.01475367
v -0.02189829 -0.00583153 -0.00423064
v -0.02477160 -0.00437832 0.01253447
v -0.02045785 -0.00779754 0.01146723
v -0.02289513 -0.00499176 0.00788712
v -0.02461887 -0.00423412 0.01893765
v -0.02175022 -0.00760598 0.01758350
v -0.02157653 -0.00603619 0.02144525
v -0.02532289 0.00079362 -0.04936598
v -0.02239776 -0.00255767 -0.03098678
v -0.02214459 -0.00254611 -0.02540541
v -0.02237179 -0.00265189 -0.01121846
v -0.02093030 -0.00263126 -0.00667598
v -0.02432777 0.00004591 0.00706891
v -0.02141501 -0.00317028 0.00478314
v -0.02026776 0.00130690 0.00345817
v -0.02575338 0.00166623 0.01237305
v -0.02581642 -0.00014971 0.01689073
v -0.02148554 -0.00310122 0.02440505
v -0.02440623 0.00133924 0.02220431
v -0.02057755 0.00136595 0.02731114
v -0.02568265 0.00613532 -0.04888044
v -0.02045361 0.00459802 -0.01821275
v -0.02298775 0.00642917 -0.02128584
v -0.02171607 0.00349536 -0.01305772
v -0.02329395 0.00444028 -0.00700564
v -0.02093833 0.00690969 -0.00397845
v -0.02285086 0.00450484 0.00608238
v -0.02152857 0.00773638 0.00788138
v -0.02453277 0.00583108 0.01036080
v -0.02471619 0.00589906 0.01687681
v -0.02290591 0.00624614 0.02148890
v -0.02153331 0.00435472 0.02460845
v -0.02199236 0.00893242 -0.01893582
v -0.02333375 0.01084620 -0.01249262
v -0.02388655 0.01293406 -0.00723925
v -0.02022067 0.01432310 -0.00944251
v -0.02166943 0.01254186 -0.00393762
v -0.02103145 0.00939139 0.01262846
v -0.02083465 0.00919582 0.01915744
v -0.02240029 0.01535971 -0.00646387
v -0.01426791 -0.02055204 -0.00628889
v -0.01731403 -0.01732631 -0.00938577
v -0.01654952 -0.02052384 -0.00049147
v -0.01630291 -0.01795696 0.00221148
v -0.01516478 -0.01161606 -0.01066889
v -0.01711323 -0.01081665 -0.00307355
v -0.01412206 -0.01486776 0.00004699
v -0.01441765 -0.00806308 -0.03093345
v -0.01600183 -0.00536374 -0.03365388
v -0.01727113 -0.00808443 -0.02536137
v -0.01567441 -0.00528931 -0.02280291
v -0.01534088 -0.00742893 -0.01278694
v -0.01711240 -0.00552621 -0.01482416
v -0.01448872 -0.00519276 -0.00370062
v -0.01963151 -0.00625299 0.00627475
v -0.01508221 -0.00769409 0.00542430
v -0.01678490 -0.00382096 0.00274676
v -0.01473119 -0.00913594 0.01101876
v -0.01687262 -0.00928050 0.01669492
v -0.01911526 -0.00555188 0.02412254
v -0.01573500 -0.00858700 0.02354081
v -0.01595014 -0.00552862 0.02736462
v -0.01598926 -0.00262822 -0.03106225
v -0.01575655 -0.00257843 -0.02565790
v -0.01607930 -0.00289049 -0.01258064
v -0.01646545 -0.00214036 -0.00815067
v -0.01573790 0.00156846 0.00152612
v -0.01782948 0.00081186 0.01787256
v -0.01606036 0.00126053 0.01496299
v -0.01536747 -0.00101701 0.01638481
v -0.01545018 0.00023449 0.01944142
v -0.01827808 0.00080935 0.03045173
v -0.01758507 -0.00207725 0.02938288
v -0.01420813 0.00021926 0.03239385
v -0.01876954 0.00713555 -0.01891506
v -0.01600813 0.00617991 -0.01586013
v -0.01504570 0.00430827 -0.01229796
v -0.01700821 0.00424758 -0.00720424
v -0.01504039 0.00746014 -0.00339749
v -0.01959494 0.00624791 0.00480728
v -0.01571519 0.00618325 0.00217270
v -0.01494797 0.00254206 0.01755263
v -0.01959794 0.00751692 0.02333203
v -0.01601325 0.00715117 0.02733806
v -0.01620024 0.00406978 0.03047876
v -0.01719457 0.00966228 -0.01406626
v -0.01452982 0.01200092 -0.01058366
v -0.01482570 0.01337613 -0.00267948
v -0.01616422 0.00917235 0.00588185
v -0.01526810 0.01068046 0.01159172
v -0.01677338 0.01093330 0.01800747
v -0.01595304 0.01022859 0.02347630
v -0.01951867 0.01813445 -0.00581166
v -0.01521308 0.01839643 -0.00913725
v -0.01611633 0.01677309 -0.00072651
v -0.01785270 0.02005780 -0.00193805
v -0.01540265 0.01904973 0.00231405
v -0.01577698 0.02176509 -0.00529398
v -0.01494621 0.02155874 0.00052394
v -0.00829828 -0.02049336 -0.00635504
v -0.01106978 -0.01736483 -0.00940066
v -0.00973746 -0.02113718 -0.00078528
v -0.01254928 -0.01729163 0.00644631
v -0.01004919 -0.02045233 0.00531479
v -0.01183050 -0.01638580 0.01280691
v -0.00904854 -0.01997392 0.01131517
v -0.00898907 -0.01837100 0.01514974
v -0.00861518 -0.01256138 -0.00993679
v -0.00968832 -0.01097668 -0.00287253
v -0.00814287 -0.01396956 -0.00108319
v -0.00972528 -0.01414700 0.00459201
v -0.01034420 -0.01102543 0.00858953
v -0.01295149 -0.01244490 0.01166669
v -0.00953514 -0.01541557 0.01826656
v -0.01295633 -0.01215072 0.01872261
v -0.01217896 -0.01153433 0.02387100
v -0.00979514 -0.01331934 0.02292919
v -0.00860076 -0.01131041 0.02677376
v -0.00822684 -0.00809436 -0.03112807
v -0.00972125 -0.00535726 -0.03371478
v -0.01027121 -0.00821776 -0.02487791
v -0.00995912 -0.00528029 -0.02185404
v -0.01299332 -0.00465398 -0.01229337
v -0.00907575 -0.00654370 -0.00976863
v -0.01019565 -0.00807527 0.00003411
v -0.01334042 -0.00551667 0.00034926
v -0.00874882 -0.00927765 0.00512431
v -0.01317106 -0.00462469 0.03101350
v -0.01058388 -0.00792480 0.02953277
v -0.00918113 -0.00469120 0.03261828
v -0.00961987 -0.00255914 -0.03107929
v -0.00930680 -0.00242921 -0.02468800
v -0.01092343 -0.00225252 -0.00692186
v -0.01273331 0.00019570 -0.00156249
v -0.00810817 0.00036381 -0.00392947
v -0.01316873 0.00027030 0.01208045
v -0.00884364 0.00117470 0.00968951
v -0.00926771 -0.00158977 0.01270076
v -0.01028011 -0.00181457 0.01894211
v -0.01063672 0.00084041 0.02099426
v -0.00888267 0.00012526 0.03363352
v -0.01352853 0.00744846 -0.01248390
v -0.01049978 0.00739797 -0.01001532
v -0.00972509 0.00359364 -0.00609271
v -0.01278983 0.00659806 -0.00077395
v -0.01064696 0.00310012 0.01313806
v -0.00915596 0.00339849 0.01917175
v -0.01302127 0.00735384 0.03043375
v -0.01029206 0.00542057 0.03260283
v -0.00978319 0.01319186 -0.00998581
v -0.00932916 0.01233769 -0.00270177
v -0.00938111 0.01001136 -0.00014037
v -0.00990877 0.01070851 0.00559119
v -0.01186344 0.01240570 0.01118650
v -0.00905353 0.01366159 0.00912980
v -0.01297174 0.01306121 0.01653295
v -0.01249526 0.01324690 0.02243480
v -0.01076689 0.01223108 0.02661673
v -0.00880731 0.00972522 0.03006419
v -0.00852855 0.01887125 -0.00950063
v -0.01015823 0.01554242 -0.00058024
v -0.01260140 0.01984284 0.00521639
v -0.00916086 0.01668926 0.00464162
v -0.00978712 0.01576717 0.01372226
v -0.00974081 0.01940303 0.00803715
v -0.00882362 0.01635090 0.01964531
v -0.00833265 0.01507329 0.02425280
v -0.01010200 0.02215765 -0.00655620
v -0.01005261 0.02276263 -0.00087342
v -0.00931097 0.02162422 0.00613958
v -0.00260058 -0.02002294 -0.00550310
v -0.00443909 -0.01669239 -0.00903589
v -0.00370742 -0.02104132 -0.00079106
v -0.00347855 -0.02099818 0.00562339
v -0.00341846 -0.02105576 0.01190750
v -0.00631864 -0.01748402 0.01880006
v -0.00466021 -0.01997949 0.01653108
v -0.00176132 -0.01779519 0.02073326
v -0.00412882 -0.01063695 -0.00977189
v -0.00378533 -0.01209001 -0.00249138
v -0.00400078 -0.01323601 0.00057467
v -0.00636944 -0.01190089 0.00490473
v -0.00324700 -0.01102788 0.00193342
v -0.00510572 -0.01464680 0.02319077
v -0.00185078 -0.01164629 0.02722716
v -0.00212986 -0.00762512 -0.03042607
v -0.00467149 -0.00579648 -0.03338727
v -0.00339530 -0.00892101 -0.02526653
v -0.00619996 -0.00474880 -0.01934753
v -0.00380962 -0.00775203 -0.01917880
v -0.00263578 -0.00569215 -0.01590383
v -0.00212928 -0.00584253 -0.00988580
v -0.00431895 -0.00986286 -0.00060711
v -0.00472971 -0.00858621 0.03045645
v -0.00349463 -0.00460555 0.03278300
v -0.00360100 -0.00301833 -0.03116400
v -0.00317256 -0.00171141 -0.02526964
v -0.00275165 -0.00278632 -0.01832885
v -0.00380748 -0.00205833 -0.00678379
v -0.00336671 0.00071623 -0.00439352
v -0.00416116 0.00070544 0.00830938
v -0.00280680 -0.00174169 0.01016738
v -0.00306231 -0.00312335 0.01730546
v -0.00485994 -0.00128905 0.02323356
v -0.00643089 0.00136494 0.02378657
v -0.00230258 0.00039137 0.02617328
v -0.00373611 0.00099513 0.03347818
v -0.00207411 0.00362358 -0.00736476
v -0.00379530 0.00814399 -0.00990500
v -0.00376319 0.00327622 0.01035951
v -0.00311356 0.00467294 0.01766324
v -0.00334733 0.00296068 0.02392898
v -0.00368572 0.00649333 0.03262224
v -0.00447137 0.01409184 -0.01003262
v -0.00363298 0.01268110 -0.00254637
v -0.00386863 0.01126880 0.00039671
v -0.00630761 0.01318669 0.00556169
v -0.00322910 0.01333504 0.00187930
v -0.00496265 0.01327684 0.02719782
v -0.00204469 0.01020872 0.03025491
v -0.00261323 0.01797592 -0.00899487
v -0.00429241 0.01475141 -0.00054411
v -0.00763018 0.01819765 0.01039494
v -0.00634305 0.01952113 0.01633840
v -0.00404196 0.01911621 0.02019160
v -0.00293609 0.01631634 0.02346976
v -0.00415842 0.02156151 -0.00639266
v -0.00374485 0.02266343 -0.00096710
v -0.00359748 0.02262807 0.00557569
v -0.00350193 0.02199432 0.01258007
v -0.00219644 0.02137073 0.01807020
v -0.00005150 -0.01710689 -0.00720060
v 0.00192962 -0.01840734 -0.00460642
v 0.00288024 -0.02034107 -0.00072249
v 0.00262972 -0.02087653 0.00557586
v 0.00285690 -0.02092869 0.01200100
v 0.00127790 -0.02024011 0.01738735
v 0.00414271 -0.01775843 0.02108140
v 0.00434276 -0.01516707 -0.00670502
v 0.00110258 -0.01152166 -0.00966813
v -0.00134838 -0.01150531 -0.00098633
v 0.00212574 -0.01467901 0.02466531
v 0.00338962 -0.01205595 0.02797941
v -0.00038260 -0.00485938 -0.03102495
v 0.00238740 -0.00581548 -0.02812684
v 0.00237824 -0.00762264 -0.02494750
v 0.00326244 -0.00809387 -0.01857970
v -0.00027719 -0.00555994 -0.01283758
v 0.00243116 -0.00849105 -0.01347077
v 0.00055526 -0.00523444 0.01902050
v 0.00135471 -0.00525795 0.01523274
v 0.00372630 -0.00738360 0.01639968
v 0.00422376 -0.00571624 0.02088230
v 0.00109132 -0.00895844 0.03026720
v 0.00302729 -0.00579890 0.03272944
v 0.00182488 -0.00303566 -0.02649375
v 0.00322004 -0.00253751 -0.01949530
v 0.00226488 -0.00252692 -0.01155651
v 0.00202449 -0.00127573 -0.00591269
v 0.00270941 0.00066891 -0.00431842
v -0.00021359 0.00028336 0.00569275
v 0.00393182 0.00114010 0.00340575
v 0.00281515 -0.00127647 0.00556887
v 0.00261283 -0.00343310 0.01076890
v 0.00094124 -0.00245287 0.02376965
v 0.00254916 0.00083291 0.02645067
v 0.00313944 0.00111063 0.03386115
v 0.00002035 0.00627470 -0.01239408
v 0.00316013 0.00490320 -0.01121291
v 0.00271836 0.00671948 -0.01440893
v 0.00336186 0.00273710 -0.00619203
v 0.00147211 0.00272276 0.00628671
v 0.00179241 0.00496577 0.01167996
v 0.00046374 0.00680066 0.01711061
v 0.00308894 0.00766013 0.01431355
v 0.00173515 0.00678887 0.02036271
v 0.00301373 0.00407295 0.02395773
v 0.00256792 0.00777866 0.03254137
v 0.00194242 0.00845550 -0.01302413
v 0.00288557 0.01228439 -0.01014671
v -0.00123330 0.01298288 -0.00112397
v 0.00401131 0.00892642 0.01763363
v 0.00083232 0.01315884 0.02745956
v 0.00313796 0.01098475 0.03062045
v 0.00195467 0.01714144 -0.00734411
v -0.00028753 0.01987759 -0.00607774
v 0.00407863 0.01941477 -0.00420941
v 0.00120872 0.01943897 0.02100047
v 0.00418255 0.01625596 0.02492553
v 0.00209789 0.02183645 -0.00106566
v 0.00261360 0.02246622 0.00554765
v 0.00274946 0.02254845 0.01189730
v 0.00275787 0.02185030 0.01733909
v 0.00976439 -0.02015231 -0.00006137
v 0.00690284 -0.01787409 -0.00375054
v 0.00870026 -0.02089109 0.00553623
v 0.00894123 -0.02087300 0.01190189
v 0.00741214 -0.02010319 0.01732893
v 0.01025670 -0.01767931 0.02098140
v 0.00996508 -0.01470604 -0.00676895
v 0.00826794 -0.01098200 -0.00972675
v 0.00881887 -0.01539319 0.02477878
v 0.00557413 -0.01088355 0.03063626
v 0.00790403 -0.01366699 0.02876118
v 0.00937448 -0.01108257 0.03225476
v 0.00462471 -0.00484516 -0.02394235
v 0.00598649 -0.00536321 -0.01929203
v 0.00849704 -0.00580033 -0.01531959
v 0.00881807 -0.00772460 -0.01306058
v 0.00497213 -0.00611477 0.01237113
v 0.00815066 -0.00521387 0.00913029
v 0.00948710 -0.00795914 0.01272102
v 0.00760438 -0.00808428 0.01779277
v 0.01014440 -0.00572093 0.02119211
v 0.00931220 -0.00560447 0.03399825
v 0.00882321 -0.00304758 -0.01284791
v 0.00778603 -0.00144074 -0.00668611
v 0.00891784 0.00070671 -0.00431724
v 0.00874232 0.00072267 0.00311877
v 0.00926409 -0.00240768 0.00553502
v 0.00726885 -0.00238419 0.02462558
v 0.00879278 0.00084419 0.02627733
v 0.00790369 -0.00148518 0.03601867
v 0.00660098 0.00160020 0.03599491
v 0.00964753 0.00029748 0.03782213
v 0.00453370 0.00762410 -0.01303001
v 0.00768403 0.00751463 -0.01047403
v 0.00928018 0.00365170 -0.00701534
v 0.00722010 0.00386915 0.00577706
v 0.00586932 0.00674551 0.01049243
v 0.01040585 0.00717304 0.00851098
v 0.01017544 0.00398270 0.02450308
v 0.00702891 0.00727111 0.02122809
v 0.00739457 0.00592597 0.03401146
v 0.01029407 0.00349525 0.03647800
v 0.01010984 0.01232994 -0.00934332
v 0.00818987 0.00950376 0.01340833
v 0.00943551 0.00962581 0.01784164
v 0.00528007 0.01358507 0.02931581
v 0.00842981 0.01139984 0.03230184
v 0.00702115 0.01625437 -0.00694045
v 0.00968678 0.01940375 -0.00390440
v 0.00737906 0.01933665 0.02094619
v 0.01013026 0.01696463 0.02475635
v 0.00912530 0.01523452 0.02945185
v 0.00845000 0.02169608 -0.00005838
v 0.00864055 0.02240654 0.00557862
v 0.00894190 0.02243657 0.01189324
v 0.00897974 0.02168842 0.01721536
v 0.01591660 -0.02017317 -0.00028161
v 0.01409768 -0.01689891 -0.00328130
v 0.01470917 -0.02093908 0.00541909
v 0.01497922 -0.02090382 0.01185098
v 0.01351872 -0.02006190 0.01726883
v 0.01639230 -0.01762644 0.02099678
v 0.01597801 -0.01375279 -0.00621734
v 0.01391520 -0.01164729 -0.00906125
v 0.01499364 -0.01537660 0.02484508
v 0.01362444 -0.01408003 0.02954353
v 0.01504168 -0.01111814 0.03269168
v 0.01203223 -0.00482031 -0.01175449
v 0.01551072 -0.00668041 -0.00972137
v 0.01334564 -0.00564411 0.00816366
v 0.01628954 -0.00823164 0.01218866
v 0.01330418 -0.00823289 0.01708381
v 0.01641879 -0.00566160 0.02111380
v 0.01632223 -0.00636209 0.03410737
v 0.01386391 -0.00213689 -0.00707367
v 0.01506688 0.00077309 -0.00440449
v 0.01485980 0.00071728 0.00320880
v 0.01623575 -0.00239639 0.00487623
v 0.01351421 -0.00236702 0.02448612
v 0.01490697 0.00077695 0.02611881
v 0.01311021 -0.00236579 0.03650145
v 0.01469139 0.00073967 0.03817632
v 0.01622389 0.00367989 -0.00637966
v 0.01326473 0.00756781 -0.00923435
v 0.01338443 0.00388407 0.00481902
v 0.01619396 0.00724245 0.00814560
v 0.01634954 0.00391300 0.02442523
v 0.01337800 0.00726305 0.02108033
v 0.01332501 0.00782124 0.03403876
v 0.01631157 0.00390018 0.03650730
v 0.01614225 0.01254689 -0.00943196
v 0.01472406 0.00977605 0.01222719
v 0.01480873 0.00977586 0.01700356
v 0.01487331 0.01265031 0.03255859
v 0.01418529 0.01573351 -0.00609176
v 0.01572785 0.01874256 -0.00297505
v 0.01349836 0.01922387 0.02092414
v 0.01616026 0.01691921 0.02483310
v 0.01472602 0.01564847 0.02954452
v 0.01440325 0.02176845 -0.00020631
v 0.01468582 0.02246500 0.00549794
v 0.01503672 0.02244211 0.01187088
v 0.01513316 0.02160586 0.01726278
v 0.02226251 -0.02024600 -0.00048504
v 0.01977056 -0.01818218 -0.00282045
v 0.02086004 -0.02099399 0.00531546
v 0.02109750 -0.02095809 0.01183924
v 0.01966682 -0.02007597 0.01729606
v 0.02256375 -0.01768066 0.02107590
v 0.02160644 -0.01361322 -0.00743864
v 0.01954740 -0.01101951 -0.00936664
v 0.02102329 -0.01474940 -0.00139667
v 0.01799007 -0.01228158 -0.00139886
v 0.02138633 -0.01178304 -0.00346220
v 0.02193647 -0.01132794 0.00114207
v 0.02107261 -0.01532899 0.02485073
v 0.01965620 -0.01403937 0.02961530
v 0.02106767 -0.01105795 0.03261849
v 0.02285124 -0.00605672 -0.00919449
v 0.02151949 -0.00953835 0.00044014
v 0.01942574 -0.00569887 0.00813716
v 0.02249212 -0.00824859 0.01226944
v 0.01958917 -0.00823798 0.01702790
v 0.02257870 -0.00570761 0.02117498
v 0.02255822 -0.00626884 0.03406595
v 0.01987694 -0.00212475 -0.00627023
v 0.02103688 0.00082545 -0.00451160
v 0.02094008 0.00082676 0.00320887
v 0.02227206 -0.00234469 0.00483167
v 0.01959717 -0.00236496 0.02445049
v 0.02090263 0.00076653 0.02611840
v 0.01949785 -0.00235738 0.03650741
v 0.02110523 0.00080341 0.03817582
v 0.02229034 0.00368200 -0.00651772
v 0.01923921 0.00768390 -0.00926457
v 0.01942943 0.00394449 0.00488988
v 0.02232119 0.00719541 0.00821848
v 0.02244553 0.00390518 0.02450688
v 0.01960285 0.00720515 0.02109251
v 0.01963229 0.00791109 0.03409061
v 0.02270092 0.00390943 0.03650014
v 0.02237337 0.01276570 -0.00952862
v 0.01805007 0.01391462 -0.00143241
v 0.02018899 0.01344753 -0.00348403
v 0.02204161 0.01133823 -0.00050070
v 0.02182795 0.01205921 0.00130242
v 0.02099221 0.00979144 0.01227726
v 0.02111724 0.00978259 0.01708026
v 0.02094184 0.01266297 0.03268398
v 0.02083271 0.01498444 -0.00691880
v 0.02061740 0.01548784 -0.00043246
v 0.02192932 0.01935292 -0.00251408
v 0.01965702 0.01916760 0.02103235
v 0.02235978 0.01684541 0.02491096
v 0.02076273 0.01556227 0.02960966
v 0.02057167 0.02186072 -0.00022611
v 0.02086056 0.02257407 0.00551496
v 0.02121022 0.02249897 0.01195908
v 0.02130251 0.02161949 0.01735976
v 0.02874760 -0.02033623 -0.00051180
v 0.02571359 -0.01778593 -0.00276797
v 0.02717169 -0.02106228 0.00537485
v 0.02727466 -0.02102291 0.01197401
v 0.02591078 -0.02016234 0.01742416
v 0.02874143 -0.01773021 0.02115418
v 0.02709034 -0.01362536 -0.00694675
v 0.02591214 -0.01112488 -0.00951190
v 0.02838269 -0.01171510 -0.00353460
v 0.02721369 -0.01431059 -0.00067810
v 0.02691527 -0.01089668 0.00136397
v 0.02629741 -0.01549305 0.02415060
v 0.02612816 -0.01375249 0.02902297
v 0.02742236 -0.00982022 0.03237265
v 0.02911259 -0.00607735 -0.00937805
v 0.02658307 -0.00951792 -0.00019549
v 0.02521995 -0.00563658 0.00855998
v 0.02836794 -0.00778983 0.01308482
v 0.02586733 -0.00823687 0.01718355
v 0.02889146 -0.00571976 0.02127387
v 0.02842396 -0.00437842 0.03402399
v 0.02587196 -0.00199612 -0.00651151
v 0.02707219 0.00083772 -0.00483132
v 0.02704677 0.00081898 0.00308956
v 0.02849032 -0.00232976 0.00574977
v 0.02572270 -0.00242888 0.02453101
v 0.02703545 0.00070050 0.02626034
v 0.02550956 -0.00195330 0.03647562
v 0.02614973 0.00124563 0.03781961
v 0.02846430 0.00367099 -0.00676188
v 0.02544969 0.00768377 -0.00938311
v 0.02645991 0.00395455 0.00551656
v 0.02755452 0.00675982 0.00915420
v 0.02865618 0.00391494 0.02465193
v 0.02585675 0.00725241 0.02126051
v 0.02662574 0.00714023 0.03400926
v 0.02790177 0.00302807 0.03601652
v 0.02874872 0.01277483 -0.00952297
v 0.02567152 0.01305781 -0.00341335
v 0.02707532 0.01099349 0.00000262
v 0.02678167 0.01256872 0.00145413
v 0.02682667 0.00933244 0.01227279
v 0.02734580 0.00978190 0.01715009
v 0.02657740 0.01257620 0.03232844
v 0.02731819 0.01518661 -0.00697668
v 0.02677419 0.01598143 -0.00076798
v 0.02855632 0.01936796 -0.00278991
v 0.02588105 0.01922132 0.02120541
v 0.02806231 0.01700339 0.02418706
v 0.02720361 0.01527018 0.02846432
v 0.02707184 0.02192508 -0.00036165
v 0.02718311 0.02267390 0.00546119
v 0.02742745 0.02257411 0.01199865
v 0.02751429 0.02170360 0.01748807
v 0.03364924 -0.01980502 0.00014260
v 0.03182685 -0.01785151 -0.00238693
v 0.03273342 -0.02037070 0.00533710
v 0.03270705 -0.02025127 0.01196846
v 0.03173593 -0.01980449 0.01748146
v 0.03396237 -0.01734174 0.02025890
v 0.03225022 -0.01334031 -0.00653679
v 0.03191735 -0.01122299 -0.00915828
v 0.03415537 -0.01078922 -0.00405533
v 0.03225134 -0.01443576 -0.00035328
v 0.03353429 -0.01187961 0.00159887
v 0.03251006 -0.01466539 0.02435565
v 0.03054832 -0.01203380 0.02939407
v 0.03505761 -0.01157183 0.02753592
v 0.03386328 -0.00683607 -0.00883844
v 0.03305686 -0.00988267 -0.00043469
v 0.02980055 -0.00520375 0.01051133
v 0.03268104 -0.00611052 0.01432961
v 0.03182667 -0.00737595 0.01767173
v 0.03418446 -0.00520844 0.02041681
v 0.03264799 -0.00943750 0.03071546
v 0.03325490 -0.00619166 0.03260822
v 0.03168756 -0.00251966 -0.00674281
v 0.03418565 0.00045488 -0.00473440
v 0.03179687 0.00039780 0.00330724
v 0.03417711 -0.00121015 0.00621301
v 0.03397818 -0.00341968 0.01170220
v 0.03289114 -0.00249849 0.02398670
v 0.03333596 0.00071284 0.02642903
v 0.02919878 -0.00005885 0.03599138
v 0.03269407 0.00044285 0.03390285
v 0.03380259 0.00462282 -0.00648275
v 0.03152444 0.00771003 -0.00906666
v 0.03293021 0.00281672 0.00548604
v 0.03084428 0.00765225 0.01239758
v 0.03313617 0.00496450 0.01075537
v 0.03447825 0.00677164 0.01525069
v 0.03495528 0.00396390 0.02378396
v 0.03173871 0.00725028 0.02093093
v 0.03289783 0.00729117 0.03280068
v 0.03370798 0.01215254 -0.00891757
v 0.03299643 0.01241282 -0.00386850
v 0.03249081 0.01099654 0.00021224
v 0.03408029 0.01364693 0.00134564
v 0.03216541 0.00892009 0.01644187
v 0.03033535 0.01237084 0.03075593
v 0.03246698 0.01359937 0.02803957
v 0.03488627 0.01046665 0.03029142
v 0.03245802 0.01490186 -0.00748992
v 0.03208711 0.01698506 -0.00146881
v 0.03299183 0.01932979 -0.00263893
v 0.03172771 0.01926728 0.02079261
v 0.03406199 0.01622644 0.02383591
v 0.03224405 0.02122475 -0.00116905
v 0.03280230 0.02188200 0.00380944
v 0.03288034 0.02185456 0.01033359
v 0.03290515 0.02135131 0.01628573
v 0.03562883 -0.01675289 0.00047864
v 0.03617588 -0.01839265 0.00439746
v 0.03656906 -0.01790078 0.01029964
v 0.03627342 -0.01782478 0.01626264
v 0.03510835 -0.01063575 -0.00746784
v 0.03954847 -0.01440457 0.00620021
v 0.03964437 -0.01027747 0.00277175
v 0.04044784 -0.01546007 0.01327451
v 0.03930212 -0.01535937 0.01946886
v 0.03866272 -0.01378649 0.02399730
v 0.04105070 -0.01166624 0.02722244
v 0.03600568 -0.00614893 -0.00557346
v 0.03879679 -0.00800422 -0.00118295
v 0.03954308 -0.00368531 -0.00329331
v 0.03538767 -0.00522818 0.01713780
v 0.03799244 -0.00859730 0.03034969
v 0.03956802 -0.00485241 0.03275686
v 0.03954343 0.00066816 -0.00370220
v 0.03580972 0.00124146 0.00557903
v 0.03967247 0.00079715 0.00825097
v 0.03998430 -0.00186275 0.01128326
v 0.03814601 -0.00313568 0.01840940
v 0.03919937 -0.00133864 0.02403161
v 0.03824872 0.00116311 0.02620910
v 0.03956476 0.00060943 0.03358447
v 0.03605843 0.00889015 -0.00634431
v 0.03955726 0.00500574 -0.00346991
v 0.03920093 0.00337693 0.01098849
v 0.03535168 0.00673867 0.01906232
v 0.03809067 0.00468548 0.01782205
v 0.04068938 0.00286674 0.02328787
v 0.03947434 0.00610368 0.03277525
v 0.03529061 0.01292081 -0.00704260
v 0.03911937 0.00974298 -0.00031037
v 0.03985260 0.01257696 0.00331934
v 0.03783292 0.01327926 0.02715700
v 0.04087631 0.01012747 0.03036399
v 0.03537968 0.01867855 0.00088204
v 0.03922113 0.01581125 0.00539468
v 0.03666134 0.01939768 0.00691898
v 0.04027608 0.01701210 0.01156216
v 0.03663646 0.01940158 0.01326564
v 0.03961083 0.01696865 0.01848452
v 0.03569747 0.01888326 0.01846126
v 0.04030719 0.01552883 0.02401183
v 0.04246420 -0.01155822 0.00543749
v 0.04470914 -0.01205958 0.00804446
v 0.04503474 -0.01359749 0.01201654
v 0.04519520 -0.01406422 0.01785659
v 0.04401089 -0.01370650 0.02334149
v 0.04539196 -0.01186141 0.02676975
v 0.04313039 -0.00472722 -0.00111159
v 0.04543384 -0.00587568 0.00166224
v 0.04680870 -0.00917759 0.00591409
v 0.04529107 -0.00877488 0.02940024
v 0.04512531 -0.00396272 0.03258865
v 0.04678232 -0.00201385 -0.00032810
v 0.04392692 0.00009102 -0.00246831
v 0.04560435 0.00072708 0.00946298
v 0.04719593 -0.00186244 0.01209547
v 0.04424970 -0.00185507 0.01847906
v 0.04228699 0.00031308 0.02394373
v 0.04629181 0.00077504 0.02117394
v 0.04498766 0.00194806 0.03297821
v 0.04491826 0.00446215 -0.00111348
v 0.04271807 0.00708380 -0.00064281
v 0.04698597 0.00664890 0.00177364
v 0.04575363 0.00331343 0.01209153
v 0.04525966 0.00348478 0.01816912
v 0.04440005 0.00694151 0.03228822
v 0.04538195 0.01077368 0.00521334
v 0.04289444 0.01353360 0.00636370
v 0.04657372 0.01282006 0.00911996
v 0.04442726 0.01274174 0.02727814
v 0.04521465 0.00967086 0.03048068
v 0.04416146 0.01512068 0.01050644
v 0.04490572 0.01568941 0.01641214
v 0.04497440 0.01542260 0.02231461
v 0.04795148 -0.01128322 0.01108732
v 0.04905672 -0.01177112 0.01632725
v 0.04844367 -0.01155208 0.02322529
v 0.05225484 -0.00747097 0.00651620
v 0.05078556 -0.00562935 0.00340136
v 0.05159298 -0.00877717 0.01225769
v 0.05230008 -0.00884720 0.01947275
v 0.05108665 -0.00815708 0.02538270
v 0.04895393 -0.00590181 0.02971246
v 0.05219876 -0.00394608 0.02705163
v 0.04771158 0.00176906 -0.00033409
v 0.05086111 -0.00006028 0.00212955
v 0.05137807 0.00103967 0.00923310
v 0.05221798 -0.00222296 0.01092145
v 0.05093694 -0.00256188 0.01674348
v 0.05156176 0.00049556 0.02023609
v 0.04899441 -0.00104561 0.03064828
v 0.05217546 0.00214263 0.02755567
v 0.05234838 0.00587046 0.00354906
v 0.05136995 0.00406712 0.01212531
v 0.05152689 0.00378622 0.01762788
v 0.04835766 0.00672331 0.02977912
v 0.05167228 0.00761894 0.02660514
v 0.05082698 0.00906783 0.00537099
v 0.05117961 0.01030716 0.01006370
v 0.04851760 0.01332600 0.01369765
v 0.05221215 0.01039566 0.01653496
v 0.04893166 0.01350439 0.01958349
v 0.05214640 0.01002292 0.02254572
v 0.04889978 0.01203319 0.02503356
v 0.05408296 -0.00428824 0.00508178
v 0.05415896 -0.00509410 0.01082201
v 0.05415619 -0.00475011 0.01832492
v 0.05408895 -0.00568962 0.02293555
v 0.05436193 0.00101492 0.00650653
v 0.05432236 0.00048712 0.02298045
v 0.05411097 0.00724921 0.00662490
v 0.05414178 0.00623358 0.01112665
v 0.05413315 0.00655145 0.01860019
v 0.05395458 0.00578600 0.02443651
f 3 2 1
f 5 4 1
f 5 1 2
f 7 6 4
f 7 4 5
f 9 8 6
f 9 6 7
f 10 8 9
f 3 1 11
f 3 11 12
f 13 1 4
f 11 1 13
f 14 4 6
f 13 4 14
f 15 6 8
f 14 6 15
f 8 10 16
f 8 16 15
f 12 11 17
f 12 17 18
f 19 11 13
f 17 11 19
f 20 13 14
f 19 13 20
f 21 14 15
f 20 14 21
f 15 16 22
f 15 22 21
f 23 18 17
f 23 17 19
f 23 19 24
f 24 19 20
f 24 20 25
f 25 20 21
f 25 21 26
f 26 21 22
f 29 28 27
f 31 30 27
f 31 27 28
f 32 30 31
f 35 34 33
f 33 34 29
f 33 29 27
f 3 33 27
f 2 3 27
f 2 27 5
f 5 27 30
f 32 36 30
f 36 5 30
f 36 7 5
f 7 37 9
f 36 37 7
f 10 9 37
f 10 37 38
f 35 33 39
f 35 39 40
f 12 39 3
f 3 39 33
f 43 42 41
f 45 44 41
f 41 44 43
f 45 46 44
f 38 16 10
f 47 16 38
f 40 39 48
f 40 48 49
f 18 48 12
f 12 48 39
f 41 42 50
f 50 42 51
f 41 52 45
f 41 50 52
f 46 45 53
f 53 45 52
f 47 22 16
f 54 22 47
f 55 49 48
f 55 48 18
f 23 55 18
f 56 55 23
f 24 50 51
f 56 24 51
f 23 24 56
f 50 24 25
f 50 25 52
f 57 53 52
f 25 57 52
f 26 57 25
f 26 22 54
f 26 54 57
f 60 59 58
f 61 28 29
f 62 58 59
f 63 31 28
f 63 28 61
f 63 32 31
f 60 58 34
f 35 60 34
f 64 60 35
f 65 58 62
f 58 65 34
f 66 34 65
f 34 66 29
f 61 29 66
f 61 67 63
f 61 66 67
f 68 36 32
f 63 68 32
f 67 68 63
f 36 68 69
f 70 36 69
f 37 36 70
f 72 71 38
f 37 72 38
f 70 72 37
f 73 71 72
f 40 64 35
f 40 74 64
f 66 65 75
f 75 65 76
f 75 42 43
f 67 75 43
f 66 75 67
f 67 43 44
f 67 44 68
f 78 77 46
f 46 77 44
f 77 69 44
f 69 68 44
f 38 78 47
f 78 38 77
f 71 77 38
f 77 71 79
f 80 79 71
f 71 73 81
f 71 81 80
f 49 74 40
f 49 82 74
f 75 76 83
f 83 76 84
f 83 51 42
f 83 42 75
f 53 85 78
f 53 78 46
f 85 47 78
f 47 85 54
f 79 80 86
f 87 86 80
f 80 81 88
f 80 88 87
f 89 82 49
f 89 49 55
f 56 83 84
f 89 56 84
f 55 56 89
f 83 56 51
f 57 85 53
f 87 90 86
f 54 85 57
f 90 87 88
f 92 91 59
f 92 59 60
f 62 59 91
f 62 91 93
f 64 92 60
f 64 94 92
f 93 65 62
f 95 65 93
f 69 96 70
f 70 96 97
f 98 70 97
f 72 70 98
f 100 99 73
f 72 100 73
f 98 100 72
f 101 99 100
f 74 94 64
f 74 102 94
f 95 76 65
f 103 76 95
f 77 96 69
f 77 79 96
f 79 97 96
f 79 104 97
f 105 81 99
f 99 81 73
f 99 101 106
f 99 106 105
f 82 102 74
f 82 107 102
f 103 84 76
f 108 84 103
f 86 104 79
f 86 109 104
f 110 88 105
f 105 88 81
f 105 106 111
f 105 111 110
f 112 107 82
f 112 82 89
f 89 84 108
f 89 108 112
f 113 109 86
f 113 86 90
f 90 88 110
f 114 90 110
f 113 90 114
f 114 110 111
f 116 115 91
f 116 91 92
f 93 91 115
f 93 115 117
f 94 116 92
f 94 118 116
f 117 95 93
f 119 95 117
f 97 120 98
f 98 120 121
f 122 98 121
f 100 98 122
f 124 123 101
f 100 124 101
f 122 124 100
f 125 123 124
f 102 118 94
f 102 126 118
f 119 103 95
f 127 103 119
f 104 128 120
f 104 120 97
f 121 120 129
f 129 120 128
f 130 106 123
f 123 106 101
f 123 125 131
f 123 131 130
f 107 126 102
f 107 132 126
f 127 108 103
f 133 108 127
f 109 134 128
f 109 128 104
f 129 128 135
f 135 128 134
f 136 111 130
f 130 111 106
f 130 131 137
f 130 137 136
f 138 132 107
f 138 107 112
f 112 108 133
f 112 133 138
f 113 134 109
f 139 135 134
f 113 139 134
f 114 139 113
f 114 111 136
f 140 114 136
f 139 114 140
f 140 136 137
f 143 142 141
f 145 144 141
f 145 141 142
f 146 144 145
f 148 147 115
f 148 115 116
f 117 115 147
f 117 147 149
f 143 141 150
f 143 150 151
f 144 153 152
f 150 144 152
f 141 144 150
f 153 144 146
f 118 148 116
f 118 154 148
f 149 119 117
f 155 119 149
f 158 157 156
f 160 159 156
f 160 156 157
f 161 159 160
f 121 162 122
f 163 151 150
f 122 163 150
f 124 122 150
f 163 122 162
f 125 124 150
f 152 125 150
f 164 125 152
f 126 154 118
f 126 165 154
f 155 127 119
f 166 127 155
f 167 158 156
f 167 156 159
f 167 159 168
f 168 159 161
f 129 169 162
f 129 162 121
f 163 162 170
f 162 171 170
f 162 169 171
f 164 170 171
f 131 164 171
f 125 164 131
f 132 165 126
f 132 172 165
f 166 133 127
f 173 133 166
f 176 175 174
f 175 177 169
f 135 175 169
f 129 135 169
f 174 175 135
f 169 177 171
f 171 177 178
f 131 171 178
f 179 131 178
f 137 131 179
f 180 172 132
f 180 132 138
f 138 133 173
f 138 173 180
f 181 176 174
f 181 174 135
f 139 181 135
f 182 181 139
f 183 139 140
f 183 182 139
f 140 137 179
f 140 179 183
f 185 184 142
f 185 142 143
f 142 186 145
f 184 186 142
f 146 145 186
f 146 186 187
f 148 188 147
f 188 149 147
f 151 185 143
f 151 189 185
f 191 190 153
f 153 190 152
f 153 146 187
f 153 187 191
f 154 192 188
f 154 188 148
f 192 155 149
f 192 149 188
f 194 193 157
f 194 157 158
f 157 195 160
f 193 195 157
f 161 160 195
f 161 195 196
f 199 198 197
f 198 189 197
f 189 163 197
f 189 151 163
f 190 164 152
f 200 164 190
f 203 202 201
f 205 204 201
f 205 201 202
f 206 204 205
f 165 207 192
f 165 192 154
f 207 166 155
f 207 155 192
f 208 194 158
f 208 158 167
f 209 167 168
f 209 208 167
f 168 161 196
f 168 196 209
f 210 199 197
f 210 197 163
f 170 210 163
f 211 210 170
f 170 164 200
f 170 200 211
f 214 213 212
f 212 213 203
f 201 212 203
f 215 212 201
f 216 201 204
f 215 201 216
f 204 206 217
f 218 204 217
f 216 204 218
f 219 218 217
f 172 220 207
f 172 207 165
f 220 173 166
f 220 166 207
f 222 221 175
f 222 175 176
f 175 223 177
f 221 223 175
f 177 224 178
f 223 224 177
f 179 178 224
f 179 224 225
f 226 214 212
f 228 227 226
f 212 228 226
f 215 228 212
f 229 215 216
f 228 215 229
f 218 231 230
f 229 218 230
f 216 218 229
f 231 218 219
f 180 220 172
f 220 180 173
f 232 222 176
f 232 176 181
f 233 181 182
f 233 232 181
f 235 233 234
f 233 183 234
f 233 182 183
f 236 234 183
f 179 236 183
f 225 236 179
f 237 227 228
f 237 228 229
f 237 229 238
f 238 229 230
f 239 235 234
f 239 234 236
f 241 240 184
f 241 184 185
f 184 242 186
f 240 242 184
f 187 186 242
f 187 242 243
f 189 241 185
f 189 244 241
f 246 245 191
f 191 245 190
f 191 187 243
f 191 243 246
f 248 247 193
f 248 193 194
f 193 249 195
f 247 249 193
f 196 195 249
f 196 249 250
f 252 251 198
f 252 198 199
f 189 198 244
f 244 198 251
f 245 200 190
f 253 200 245
f 256 255 254
f 202 203 254
f 255 202 254
f 257 202 255
f 202 258 205
f 257 258 202
f 260 259 206
f 205 260 206
f 258 260 205
f 261 259 260
f 262 248 194
f 262 194 208
f 263 208 209
f 263 262 208
f 209 196 250
f 209 250 263
f 264 252 199
f 264 199 210
f 265 210 211
f 265 264 210
f 211 200 253
f 211 253 265
f 256 254 213
f 214 256 213
f 266 256 214
f 213 254 203
f 269 268 267
f 259 217 206
f 270 269 267
f 272 271 219
f 272 219 217
f 261 272 217
f 259 261 217
f 273 271 272
f 222 274 221
f 221 274 275
f 276 221 275
f 223 221 276
f 223 277 224
f 276 277 223
f 225 224 277
f 225 277 278
f 214 226 279
f 280 214 279
f 266 214 280
f 227 279 226
f 268 281 267
f 282 230 231
f 281 270 267
f 283 282 231
f 283 231 219
f 284 283 219
f 271 284 219
f 284 271 273
f 232 274 222
f 285 275 274
f 232 285 274
f 233 285 232
f 233 235 285
f 285 235 286
f 278 236 225
f 287 236 278
f 288 280 279
f 288 279 227
f 237 288 227
f 289 288 237
f 290 237 238
f 290 289 237
f 238 230 282
f 291 238 282
f 290 238 291
f 291 282 283
f 235 239 292
f 293 235 292
f 286 235 293
f 236 287 294
f 292 236 294
f 295 292 294
f 239 236 292
f 296 295 294
f 297 293 292
f 297 292 295
f 297 295 298
f 298 295 296
f 300 299 240
f 300 240 241
f 240 301 242
f 299 301 240
f 303 302 243
f 242 303 243
f 301 303 242
f 305 304 302
f 305 302 303
f 306 304 305
f 244 300 241
f 244 307 300
f 309 308 246
f 246 308 245
f 246 243 302
f 310 246 302
f 309 246 310
f 312 311 310
f 302 312 310
f 304 312 302
f 304 306 313
f 314 304 313
f 312 304 314
f 316 315 314
f 316 314 313
f 317 315 316
f 319 318 247
f 319 247 248
f 247 320 249
f 318 320 247
f 250 249 320
f 250 320 321
f 252 322 251
f 322 323 251
f 323 244 251
f 323 307 244
f 325 253 324
f 253 308 324
f 253 245 308
f 255 256 325
f 324 255 325
f 326 255 324
f 312 257 311
f 257 326 311
f 257 255 326
f 257 312 258
f 258 312 314
f 258 314 260
f 260 314 315
f 328 327 261
f 328 261 260
f 317 328 260
f 315 317 260
f 329 327 328
f 330 319 248
f 330 248 262
f 331 262 263
f 331 330 262
f 263 250 321
f 263 321 331
f 264 322 252
f 332 323 322
f 264 332 322
f 265 332 264
f 332 265 253
f 333 332 253
f 325 333 253
f 332 333 334
f 266 333 256
f 256 333 325
f 337 336 335
f 268 269 335
f 269 337 335
f 269 338 337
f 269 270 338
f 338 270 339
f 327 272 261
f 273 272 327
f 329 273 327
f 340 273 329
f 275 341 276
f 276 341 342
f 343 276 342
f 277 276 343
f 333 344 278
f 343 333 278
f 277 343 278
f 334 333 343
f 280 344 266
f 266 344 333
f 336 345 335
f 335 345 268
f 345 281 268
f 345 346 281
f 270 281 339
f 339 281 346
f 347 283 284
f 348 347 284
f 273 348 284
f 340 348 273
f 285 341 275
f 285 286 341
f 286 342 341
f 286 349 342
f 351 350 344
f 350 278 344
f 350 287 278
f 351 344 280
f 288 351 280
f 352 351 288
f 354 352 353
f 352 289 353
f 352 288 289
f 290 355 289
f 289 355 353
f 291 356 290
f 290 356 355
f 357 356 291
f 357 291 283
f 358 357 283
f 347 358 283
f 358 347 348
f 293 349 286
f 293 359 349
f 350 360 287
f 287 360 294
f 362 361 296
f 294 362 296
f 360 362 294
f 354 353 363
f 362 364 361
f 363 353 355
f 363 355 365
f 365 355 356
f 365 356 366
f 366 356 357
f 367 359 293
f 367 293 297
f 368 297 298
f 368 367 297
f 298 296 361
f 369 298 361
f 368 298 369
f 369 361 364
f 371 370 299
f 371 299 300
f 299 372 301
f 370 372 299
f 301 373 303
f 372 373 301
f 303 374 305
f 373 374 303
f 376 375 306
f 305 376 306
f 374 376 305
f 377 375 376
f 307 371 300
f 307 378 371
f 380 379 309
f 309 379 308
f 382 380 381
f 380 310 381
f 380 309 310
f 311 381 310
f 375 313 306
f 377 383 375
f 383 313 375
f 383 316 313
f 317 316 383
f 317 383 384
f 386 385 318
f 386 318 319
f 318 387 320
f 385 387 318
f 389 388 321
f 320 389 321
f 387 389 320
f 390 388 389
f 323 378 307
f 323 391 378
f 379 392 308
f 308 392 324
f 381 326 382
f 326 392 382
f 326 324 392
f 326 381 311
f 384 393 317
f 317 393 328
f 329 328 393
f 329 393 394
f 395 386 319
f 395 319 330
f 396 330 331
f 396 395 330
f 331 321 388
f 397 331 388
f 396 331 397
f 397 388 390
f 398 391 323
f 398 323 332
f 332 334 398
f 398 334 399
f 401 400 337
f 337 400 336
f 402 337 338
f 402 401 337
f 404 403 339
f 403 338 339
f 403 402 338
f 404 405 403
f 394 340 329
f 406 340 394
f 408 407 343
f 408 343 342
f 334 343 399
f 399 343 407
f 400 409 336
f 336 409 345
f 345 410 346
f 409 410 345
f 339 346 404
f 346 411 404
f 346 410 411
f 404 411 405
f 406 348 340
f 412 348 406
f 349 408 342
f 349 413 408
f 415 414 351
f 351 414 350
f 417 415 416
f 415 352 416
f 415 351 352
f 354 416 352
f 419 418 358
f 358 418 357
f 358 348 412
f 358 412 419
f 359 413 349
f 359 420 413
f 414 421 350
f 350 421 360
f 416 362 417
f 362 421 417
f 362 360 421
f 364 362 422
f 362 416 422
f 354 363 422
f 354 422 416
f 365 423 363
f 363 423 422
f 423 365 424
f 365 425 424
f 365 366 425
f 366 357 418
f 366 418 425
f 426 420 359
f 426 359 367
f 427 367 368
f 427 426 367
f 428 368 369
f 428 427 368
f 369 364 422
f 429 369 422
f 428 369 429
f 429 422 423
f 429 423 430
f 430 423 424
f 371 431 370
f 370 431 432
f 433 370 432
f 372 370 433
f 372 434 373
f 433 434 372
f 373 435 374
f 434 435 373
f 374 436 376
f 435 436 374
f 377 376 436
f 377 436 437
f 439 438 431
f 371 439 431
f 378 439 371
f 440 379 380
f 438 432 431
f 382 440 380
f 437 441 377
f 377 441 383
f 384 383 441
f 384 441 442
f 386 443 385
f 385 443 444
f 445 385 444
f 387 385 445
f 387 446 389
f 445 446 387
f 448 447 390
f 389 448 390
f 446 448 389
f 448 439 447
f 439 391 447
f 439 378 391
f 440 392 379
f 392 440 382
f 451 450 449
f 449 452 451
f 442 453 384
f 384 453 393
f 394 393 453
f 394 453 454
f 395 443 386
f 455 444 443
f 395 455 443
f 396 455 395
f 456 396 397
f 456 455 396
f 397 390 447
f 457 397 447
f 456 397 457
f 457 447 391
f 398 457 391
f 458 457 398
f 398 399 458
f 458 399 459
f 462 461 460
f 400 401 460
f 401 462 460
f 401 463 462
f 402 449 450
f 463 402 450
f 401 402 463
f 464 452 449
f 402 464 449
f 403 464 402
f 403 405 464
f 464 405 465
f 454 406 394
f 466 406 454
f 469 468 467
f 407 408 467
f 468 407 467
f 470 407 468
f 399 407 459
f 459 407 470
f 461 471 460
f 460 471 400
f 471 409 400
f 471 472 409
f 472 474 473
f 410 472 473
f 409 472 410
f 410 473 475
f 476 410 475
f 411 410 476
f 405 411 465
f 465 411 476
f 466 412 406
f 477 412 466
f 478 469 467
f 467 408 478
f 408 479 478
f 408 413 479
f 480 414 415
f 417 480 415
f 474 481 473
f 473 481 475
f 483 482 419
f 419 482 418
f 419 412 477
f 419 477 483
f 420 485 484
f 479 420 484
f 413 420 479
f 480 421 414
f 486 484 485
f 421 480 417
f 488 487 425
f 425 487 424
f 425 418 482
f 425 482 488
f 426 485 420
f 489 486 485
f 426 489 485
f 427 489 426
f 490 427 428
f 490 489 427
f 491 428 429
f 491 490 428
f 492 429 430
f 492 491 429
f 430 424 487
f 430 487 492
f 494 493 433
f 494 433 432
f 433 495 434
f 493 495 433
f 434 496 435
f 495 496 434
f 435 497 436
f 496 497 435
f 437 436 497
f 437 497 498
f 500 499 438
f 500 438 439
f 432 438 494
f 494 438 499
f 498 501 437
f 437 501 441
f 503 502 442
f 441 503 442
f 501 503 441
f 504 502 503
f 444 505 445
f 506 446 445
f 506 445 505
f 446 506 507
f 508 446 507
f 448 446 508
f 439 448 500
f 500 448 508
f 511 510 509
f 450 451 509
f 451 511 509
f 451 512 511
f 451 452 512
f 512 452 513
f 502 453 442
f 454 453 502
f 504 454 502
f 514 454 504
f 455 505 444
f 505 455 456
f 505 456 506
f 515 507 506
f 456 515 506
f 457 515 456
f 516 457 458
f 516 515 457
f 458 459 516
f 516 459 517
f 519 518 462
f 462 518 461
f 463 509 510
f 519 463 510
f 462 463 519
f 509 463 450
f 520 513 452
f 520 452 464
f 464 465 520
f 520 465 521
f 523 466 522
f 466 514 522
f 466 454 514
f 524 523 522
f 469 525 468
f 468 525 526
f 527 468 526
f 470 468 527
f 459 470 517
f 517 470 527
f 518 528 461
f 461 528 471
f 528 530 529
f 472 528 529
f 471 528 472
f 529 474 472
f 532 531 476
f 532 476 475
f 465 476 521
f 521 476 531
f 534 533 523
f 533 466 523
f 533 477 466
f 534 523 524
f 478 525 469
f 478 479 525
f 479 526 525
f 479 535 526
f 530 536 529
f 529 536 474
f 536 481 474
f 536 537 481
f 475 481 532
f 532 481 537
f 538 482 483
f 539 538 483
f 477 539 483
f 533 539 477
f 540 535 479
f 540 479 484
f 484 486 540
f 540 486 541
f 543 542 488
f 488 542 487
f 488 482 538
f 544 488 538
f 543 488 544
f 544 538 539
f 545 541 486
f 545 486 489
f 546 489 490
f 546 545 489
f 547 490 491
f 547 546 490
f 548 491 492
f 548 547 491
f 492 487 542
f 492 542 548
f 550 549 493
f 550 493 494
f 493 551 495
f 549 551 493
f 495 552 496
f 551 552 495
f 496 553 497
f 552 553 496
f 498 497 553
f 498 553 554
f 556 555 499
f 556 499 500
f 494 499 550
f 550 499 555
f 554 557 498
f 498 557 501
f 501 558 503
f 557 558 501
f 504 503 558
f 504 558 559
f 507 560 508
f 560 561 508
f 561 500 508
f 561 556 500
f 563 562 511
f 511 562 510
f 564 511 512
f 564 563 511
f 512 513 564
f 564 513 565
f 559 514 504
f 566 514 559
f 515 560 507
f 567 561 560
f 515 567 560
f 516 567 515
f 516 517 567
f 567 517 568
f 570 569 519
f 519 569 518
f 519 510 562
f 519 562 570
f 571 565 513
f 571 513 520
f 520 521 571
f 571 521 572
f 566 573 514
f 514 573 522
f 524 522 573
f 524 573 574
f 576 575 527
f 576 527 526
f 517 527 568
f 568 527 575
f 569 577 518
f 518 577 528
f 530 528 577
f 530 577 578
f 580 579 531
f 580 531 532
f 521 531 572
f 572 531 579
f 582 581 534
f 534 581 533
f 534 524 574
f 534 574 582
f 535 576 526
f 535 583 576
f 578 584 530
f 530 584 536
f 536 585 537
f 584 585 536
f 532 537 580
f 580 537 585
f 581 539 533
f 586 539 581
f 587 583 535
f 587 535 540
f 540 541 587
f 587 541 588
f 590 589 543
f 543 589 542
f 591 543 544
f 591 590 543
f 544 539 586
f 544 586 591
f 592 588 541
f 592 541 545
f 593 545 546
f 593 592 545
f 594 546 547
f 594 593 546
f 595 547 548
f 595 594 547
f 548 542 589
f 548 589 595
f 597 596 549
f 597 549 550
f 549 598 551
f 596 598 549
f 551 599 552
f 598 599 551
f 552 600 553
f 599 600 552
f 554 553 600
f 554 600 601
f 603 602 555
f 603 555 556
f 550 604 597
f 604 550 605
f 555 605 550
f 605 555 606
f 602 606 555
f 605 607 604
f 601 608 554
f 554 608 557
f 557 609 558
f 608 609 557
f 559 558 609
f 559 609 610
f 561 603 556
f 561 611 603
f 606 612 605
f 605 612 607
f 614 613 563
f 563 613 562
f 615 563 564
f 615 614 563
f 564 565 615
f 615 565 616
f 610 566 559
f 617 566 610
f 618 611 561
f 618 561 567
f 567 568 618
f 618 568 619
f 621 620 570
f 570 620 569
f 570 562 613
f 570 613 621
f 622 616 565
f 622 565 571
f 571 572 622
f 622 572 623
f 617 624 566
f 566 624 573
f 574 573 624
f 574 624 625
f 627 626 575
f 627 575 576
f 568 575 619
f 619 575 626
f 620 628 569
f 569 628 577
f 578 577 628
f 578 628 629
f 631 630 579
f 631 579 580
f 572 579 623
f 623 579 630
f 633 632 582
f 582 632 581
f 582 574 625
f 582 625 633
f 583 627 576
f 583 634 627
f 637 636 635
f 635 638 637
f 629 639 578
f 578 639 584
f 584 640 585
f 639 640 584
f 580 585 631
f 631 585 640
f 632 586 581
f 641 586 632
f 642 634 583
f 642 583 587
f 587 636 642
f 636 587 635
f 588 635 587
f 635 588 643
f 644 643 588
f 635 643 638
f 646 645 590
f 590 645 589
f 647 590 591
f 647 646 590
f 591 586 641
f 591 641 647
f 648 644 588
f 648 588 592
f 649 592 593
f 649 648 592
f 650 593 594
f 650 649 593
f 651 594 595
f 651 650 594
f 595 589 645
f 595 645 651
f 653 652 596
f 653 596 597
f 596 654 598
f 652 654 596
f 598 655 599
f 654 655 598
f 599 656 600
f 655 656 599
f 601 600 656
f 601 656 657
f 659 658 602
f 659 602 603
f 658 606 602
f 606 658 660
f 597 604 653
f 661 653 604
f 604 607 661
f 661 607 662
f 657 663 601
f 601 663 608
f 608 664 609
f 663 664 608
f 610 609 664
f 610 664 665
f 611 659 603
f 611 666 659
f 660 667 606
f 606 667 612
f 607 612 662
f 662 612 667
f 669 668 614
f 614 668 613
f 670 614 615
f 670 669 614
f 615 616 670
f 670 616 671
f 665 617 610
f 672 617 665
f 673 666 611
f 673 611 618
f 618 619 673
f 673 619 674
f 676 675 621
f 621 675 620
f 621 613 668
f 621 668 676
f 677 671 616
f 677 616 622
f 622 623 677
f 677 623 678
f 672 679 617
f 617 679 624
f 625 624 679
f 625 679 680
f 682 681 626
f 682 626 627
f 619 626 674
f 674 626 681
f 675 683 620
f 620 683 628
f 629 628 683
f 629 683 684
f 686 685 630
f 686 630 631
f 623 630 678
f 678 630 685
f 688 687 633
f 633 687 632
f 633 625 680
f 633 680 688
f 634 682 627
f 634 689 682
f 691 690 637
f 637 690 636
f 637 638 691
f 691 638 692
f 684 693 629
f 629 693 639
f 639 694 640
f 693 694 639
f 631 640 686
f 686 640 694
f 687 641 632
f 695 641 687
f 696 689 634
f 696 634 642
f 643 644 697
f 698 697 644
f 690 642 636
f 642 690 696
f 638 643 692
f 692 643 697
f 700 699 646
f 646 699 645
f 701 646 647
f 701 700 646
f 647 641 695
f 647 695 701
f 702 698 644
f 702 644 648
f 703 648 649
f 703 702 648
f 704 649 650
f 704 703 649
f 705 650 651
f 705 704 650
f 651 645 699
f 651 699 705
f 707 706 652
f 707 652 653
f 652 708 654
f 706 708 652
f 654 709 655
f 708 709 654
f 655 710 656
f 709 710 655
f 657 656 710
f 657 710 711
f 713 712 658
f 713 658 659
f 712 660 658
f 660 712 714
f 653 661 707
f 715 707 661
f 661 662 715
f 715 662 716
f 711 717 657
f 657 717 663
f 717 719 718
f 664 717 718
f 663 717 664
f 718 665 664
f 666 713 659
f 666 720 713
f 714 721 660
f 660 721 667
f 662 667 716
f 716 667 721
f 722 668 669
f 722 669 723
f 669 724 723
f 669 670 724
f 670 671 724
f 724 671 725
f 719 726 718
f 665 718 726
f 727 665 726
f 672 665 727
f 728 720 666
f 728 666 673
f 673 674 728
f 728 674 729
f 731 730 676
f 676 730 675
f 676 668 722
f 732 676 722
f 731 676 732
f 732 722 723
f 733 725 671
f 733 671 677
f 677 678 733
f 733 678 734
f 679 672 735
f 672 736 735
f 672 727 736
f 735 680 679
f 738 737 681
f 738 681 682
f 674 681 729
f 729 681 737
f 730 739 675
f 675 739 683
f 741 740 684
f 683 741 684
f 739 741 683
f 742 740 741
f 744 743 685
f 744 685 686
f 678 685 734
f 734 685 743
f 735 736 688
f 736 687 688
f 736 745 687
f 735 688 680
f 689 738 682
f 689 746 738
f 748 747 691
f 691 747 690
f 691 692 748
f 748 692 749
f 740 693 684
f 742 750 740
f 750 693 740
f 750 694 693
f 686 694 744
f 744 694 750
f 753 752 751
f 745 753 751
f 695 745 751
f 687 745 695
f 754 746 689
f 754 689 696
f 697 698 755
f 756 755 698
f 747 696 690
f 696 747 754
f 692 697 749
f 749 697 755
f 758 757 700
f 700 757 699
f 701 751 752
f 758 701 752
f 700 701 758
f 751 701 695
f 759 756 698
f 759 698 702
f 760 702 703
f 760 759 702
f 761 703 704
f 761 760 703
f 762 704 705
f 762 761 704
f 705 699 757
f 705 757 762
f 707 763 706
f 764 708 706
f 764 706 763
f 765 709 708
f 765 708 764
f 766 710 709
f 766 709 765
f 766 711 710
f 713 767 712
f 715 763 707
f 714 712 767
f 764 763 768
f 763 716 768
f 716 769 768
f 716 763 715
f 764 768 765
f 765 768 770
f 765 770 766
f 766 770 771
f 766 771 711
f 771 717 711
f 771 772 717
f 719 717 772
f 719 772 773
f 720 774 767
f 720 767 713
f 767 774 714
f 774 775 714
f 775 721 714
f 774 776 775
f 716 721 769
f 769 721 775
f 777 723 724
f 725 777 724
f 773 778 719
f 719 778 726
f 727 726 778
f 727 778 779
f 728 774 720
f 728 729 774
f 729 776 774
f 729 780 776
f 781 730 731
f 781 731 782
f 731 783 782
f 731 732 783
f 732 723 777
f 784 732 777
f 783 732 784
f 784 777 725
f 733 784 725
f 785 784 733
f 733 734 785
f 785 734 786
f 779 736 727
f 787 736 779
f 738 788 737
f 788 789 737
f 789 729 737
f 789 780 729
f 781 739 730
f 782 790 781
f 790 739 781
f 790 741 739
f 792 791 742
f 741 792 742
f 790 792 741
f 743 744 791
f 792 743 791
f 793 743 792
f 734 743 786
f 786 743 793
f 787 745 736
f 794 745 787
f 746 795 788
f 746 788 738
f 748 796 747
f 796 788 747
f 788 795 747
f 788 796 789
f 748 749 796
f 796 749 797
f 791 750 742
f 750 791 744
f 799 798 753
f 753 798 752
f 753 745 794
f 753 794 799
f 754 795 746
f 747 795 754
f 755 756 800
f 797 749 801
f 749 800 801
f 800 802 801
f 749 755 800
f 804 803 802
f 802 803 801
f 806 805 804
f 804 805 803
f 757 758 806
f 758 805 806
f 758 807 805
f 758 752 798
f 758 798 807
f 759 800 756
f 800 759 760
f 800 760 802
f 802 760 761
f 802 761 804
f 804 761 762
f 804 762 806
f 806 762 757
f 769 808 768
f 768 808 809
f 810 768 809
f 770 768 810
f 770 811 771
f 810 811 770
f 771 812 772
f 811 812 771
f 773 772 812
f 773 812 813
f 776 814 775
f 814 815 775
f 775 815 769
f 815 816 769
f 816 808 769
f 808 816 809
f 813 817 773
f 773 817 778
f 779 778 817
f 779 817 818
f 820 819 814
f 776 820 814
f 780 820 776
f 814 819 815
f 822 821 783
f 783 821 782
f 823 783 784
f 823 822 783
f 825 823 824
f 823 785 824
f 823 784 785
f 786 824 785
f 818 787 779
f 826 787 818
f 789 828 827
f 820 789 827
f 780 789 820
f 828 829 827
f 821 830 782
f 782 830 790
f 790 831 792
f 830 831 790
f 824 793 825
f 793 831 825
f 793 792 831
f 793 824 786
f 826 794 787
f 832 794 826
f 796 828 789
f 834 833 797
f 797 833 796
f 833 829 796
f 829 828 796
f 834 835 833
f 837 836 799
f 799 836 798
f 799 794 832
f 799 832 837
f 801 834 797
f 838 835 834
f 801 838 834
f 803 838 801
f 839 803 805
f 839 838 803
f 840 805 807
f 840 839 805
f 807 798 836
f 807 836 840
f 809 841 810
f 842 811 810
f 842 810 841
f 843 812 811
f 843 811 842
f 843 813 812
f 845 844 816
f 845 816 815
f 809 816 841
f 816 846 841
f 816 844 846
f 841 846 842
f 842 846 847
f 842 847 843
f 843 847 848
f 848 850 849
f 848 849 817
f 843 848 817
f 813 843 817
f 849 818 817
f 820 851 819
f 851 852 819
f 852 815 819
f 852 845 815
f 854 853 822
f 822 853 821
f 855 822 823
f 855 854 822
f 823 825 855
f 855 825 856
f 849 850 857
f 857 850 858
f 857 826 818
f 857 818 849
f 827 851 820
f 827 829 851
f 829 852 851
f 829 859 852
f 853 860 821
f 821 860 830
f 830 861 831
f 860 861 830
f 825 831 856
f 856 831 861
f 857 858 862
f 862 858 863
f 862 832 826
f 862 826 857
f 864 859 829
f 864 829 833
f 866 865 835
f 865 833 835
f 865 864 833
f 868 867 866
f 866 867 865
f 870 869 868
f 868 869 867
f 869 870 863
f 863 870 862
f 870 836 862
f 836 837 862
f 862 837 832
f 838 866 835
f 866 838 839
f 866 839 868
f 868 839 840
f 868 840 870
f 870 840 836
f 845 871 844
f 872 846 844
f 872 844 871
f 873 847 846
f 873 846 872
f 874 848 847
f 874 847 873
f 874 850 848
f 852 875 871
f 852 871 845
f 875 853 854
f 872 875 854
f 871 875 872
f 872 854 855
f 872 855 873
f 873 855 856
f 876 873 856
f 874 873 876
f 876 858 850
f 876 850 874
f 859 877 875
f 859 875 852
f 878 860 853
f 875 878 853
f 877 878 875
f 879 861 860
f 879 860 878
f 876 856 861
f 879 876 861
f 880 876 879
f 880 863 858
f 880 858 876
f 864 877 859
f 877 864 865
f 877 865 878
f 878 865 867
f 878 867 879
f 879 867 869
f 879 869 880
f 880 869 863

